<?xml version="1.0" encoding="UTF-8" standalone="no"?>
<!DOCTYPE svg PUBLIC "-//W3C//DTD SVG 1.1//EN"
 "http://www.w3.org/Graphics/SVG/1.1/DTD/svg11.dtd">
<!-- Generated by graphviz version 2.28.0 (20110630.0925)
 -->
<!-- Title: _anonymous_0 Pages: 1 -->
<svg width="437pt" height="366pt"
 viewBox="0.00 0.00 436.75 366.45" xmlns="http://www.w3.org/2000/svg" xmlns:xlink="http://www.w3.org/1999/xlink">
<g id="graph1" class="graph" transform="scale(1 1) rotate(0) translate(4 362.449)">
<title>_anonymous_0</title>
<polygon fill="white" stroke="white" points="-4,5 -4,-362.449 433.749,-362.449 433.749,5 -4,5"/>
<!-- ESRRA_ESR2 -->
<g id="node1" class="node"><title>ESRRA_ESR2</title>
<a xlink:href="ESRRA_ESR2.svg" xlink:title="Z&#45;value: 3.814||remove21">
<polygon fill="#3247ff" stroke="#3247ff" stroke-width="2" points="102.95,-79.2 44.45,-79.2 32.45,-67.2 32.45,-55.2 44.45,-43.2 102.95,-43.2 114.95,-55.2 114.95,-67.2 102.95,-79.2"/>
<path fill="#3247ff" stroke="#3247ff" stroke-width="2" d="M44.45,-79.2C38.45,-79.2 32.45,-73.2 32.45,-67.2"/>
<path fill="#3247ff" stroke="#3247ff" stroke-width="2" d="M32.45,-55.2C32.45,-49.2 38.45,-43.2 44.45,-43.2"/>
<path fill="#3247ff" stroke="#3247ff" stroke-width="2" d="M102.95,-43.2C108.95,-43.2 114.95,-49.2 114.95,-55.2"/>
<path fill="#3247ff" stroke="#3247ff" stroke-width="2" d="M114.95,-67.2C114.95,-73.2 108.95,-79.2 102.95,-79.2"/>
<polyline fill="none" stroke="white" stroke-width="2" points="102.95,-79.2 44.45,-79.2 "/>
<path fill="none" stroke="white" stroke-width="2" d="M44.45,-79.2C38.45,-79.2 32.45,-73.2 32.45,-67.2"/>
<polyline fill="none" stroke="white" stroke-width="2" points="32.45,-67.2 32.45,-55.2 "/>
<path fill="none" stroke="white" stroke-width="2" d="M32.45,-55.2C32.45,-49.2 38.45,-43.2 44.45,-43.2"/>
<polyline fill="none" stroke="white" stroke-width="2" points="44.45,-43.2 102.95,-43.2 "/>
<path fill="none" stroke="white" stroke-width="2" d="M102.95,-43.2C108.95,-43.2 114.95,-49.2 114.95,-55.2"/>
<polyline fill="none" stroke="white" stroke-width="2" points="114.95,-55.2 114.95,-67.2 "/>
<path fill="none" stroke="white" stroke-width="2" d="M114.95,-67.2C114.95,-73.2 108.95,-79.2 102.95,-79.2"/>
<text text-anchor="middle" x="73.7" y="-58.7" font-family="Helvetica,sans-Serif" font-size="10.00" fill="white">ESRRA_ESR2</text>
</a>
</g>
<!-- HLF_TEF -->
<g id="node2" class="node"><title>HLF_TEF</title>
<a xlink:href="HLF_TEF.svg" xlink:title="Z&#45;value: 0.505||remove18">
<polygon fill="#b7beff" stroke="#b7beff" stroke-width="2" points="370.199,-240.425 335.699,-240.425 323.699,-228.425 323.699,-216.425 335.699,-204.425 370.199,-204.425 382.199,-216.425 382.199,-228.425 370.199,-240.425"/>
<path fill="#b7beff" stroke="#b7beff" stroke-width="2" d="M335.699,-240.425C329.699,-240.425 323.699,-234.425 323.699,-228.425"/>
<path fill="#b7beff" stroke="#b7beff" stroke-width="2" d="M323.699,-216.425C323.699,-210.425 329.699,-204.425 335.699,-204.425"/>
<path fill="#b7beff" stroke="#b7beff" stroke-width="2" d="M370.199,-204.425C376.199,-204.425 382.199,-210.425 382.199,-216.425"/>
<path fill="#b7beff" stroke="#b7beff" stroke-width="2" d="M382.199,-228.425C382.199,-234.425 376.199,-240.425 370.199,-240.425"/>
<polyline fill="none" stroke="white" stroke-width="2" points="370.199,-240.425 335.699,-240.425 "/>
<path fill="none" stroke="white" stroke-width="2" d="M335.699,-240.425C329.699,-240.425 323.699,-234.425 323.699,-228.425"/>
<polyline fill="none" stroke="white" stroke-width="2" points="323.699,-228.425 323.699,-216.425 "/>
<path fill="none" stroke="white" stroke-width="2" d="M323.699,-216.425C323.699,-210.425 329.699,-204.425 335.699,-204.425"/>
<polyline fill="none" stroke="white" stroke-width="2" points="335.699,-204.425 370.199,-204.425 "/>
<path fill="none" stroke="white" stroke-width="2" d="M370.199,-204.425C376.199,-204.425 382.199,-210.425 382.199,-216.425"/>
<polyline fill="none" stroke="white" stroke-width="2" points="382.199,-216.425 382.199,-228.425 "/>
<path fill="none" stroke="white" stroke-width="2" d="M382.199,-228.425C382.199,-234.425 376.199,-240.425 370.199,-240.425"/>
<text text-anchor="middle" x="352.949" y="-219.925" font-family="Helvetica,sans-Serif" font-size="10.00">HLF_TEF</text>
</a>
</g>
<!-- ESRRA_ESR2&#45;&gt;HLF_TEF -->
<g id="edge2" class="edge"><title>ESRRA_ESR2&#45;&gt;HLF_TEF</title>
<a xlink:title="TEF: 1.345||HLF: 0.034||remove18">
<path fill="none" stroke="#d06dff" stroke-width="3" d="M104.921,-79.2252C156.815,-109.187 260.59,-169.101 316.03,-201.109"/>
<polygon fill="#d06dff" stroke="#d06dff" points="314.868,-203.672 323.196,-205.247 317.668,-198.822 314.868,-203.672"/>
</a>
</g>
<!-- ARNT -->
<g id="node4" class="node"><title>ARNT</title>
<a xlink:href="ARNT.svg" xlink:title="Z&#45;value: 0.674||remove24">
<polygon fill="#ffb0b0" stroke="#ffb0b0" stroke-width="2" points="206.725,-197.225 176.725,-197.225 164.725,-185.225 164.725,-173.225 176.725,-161.225 206.725,-161.225 218.725,-173.225 218.725,-185.225 206.725,-197.225"/>
<path fill="#ffb0b0" stroke="#ffb0b0" stroke-width="2" d="M176.725,-197.225C170.725,-197.225 164.725,-191.225 164.725,-185.225"/>
<path fill="#ffb0b0" stroke="#ffb0b0" stroke-width="2" d="M164.725,-173.225C164.725,-167.225 170.725,-161.225 176.725,-161.225"/>
<path fill="#ffb0b0" stroke="#ffb0b0" stroke-width="2" d="M206.725,-161.225C212.725,-161.225 218.725,-167.225 218.725,-173.225"/>
<path fill="#ffb0b0" stroke="#ffb0b0" stroke-width="2" d="M218.725,-185.225C218.725,-191.225 212.725,-197.225 206.725,-197.225"/>
<polyline fill="none" stroke="white" stroke-width="2" points="206.725,-197.225 176.725,-197.225 "/>
<path fill="none" stroke="white" stroke-width="2" d="M176.725,-197.225C170.725,-197.225 164.725,-191.225 164.725,-185.225"/>
<polyline fill="none" stroke="white" stroke-width="2" points="164.725,-185.225 164.725,-173.225 "/>
<path fill="none" stroke="white" stroke-width="2" d="M164.725,-173.225C164.725,-167.225 170.725,-161.225 176.725,-161.225"/>
<polyline fill="none" stroke="white" stroke-width="2" points="176.725,-161.225 206.725,-161.225 "/>
<path fill="none" stroke="white" stroke-width="2" d="M206.725,-161.225C212.725,-161.225 218.725,-167.225 218.725,-173.225"/>
<polyline fill="none" stroke="white" stroke-width="2" points="218.725,-173.225 218.725,-185.225 "/>
<path fill="none" stroke="white" stroke-width="2" d="M218.725,-185.225C218.725,-191.225 212.725,-197.225 206.725,-197.225"/>
<text text-anchor="middle" x="191.725" y="-176.725" font-family="Helvetica,sans-Serif" font-size="10.00">ARNT</text>
</a>
</g>
<!-- ESRRA_ESR2&#45;&gt;ARNT -->
<g id="edge4" class="edge"><title>ESRRA_ESR2&#45;&gt;ARNT</title>
<a xlink:title="ARNT: 0.185||remove21root">
<path fill="none" stroke="#bec5ff" stroke-width="3" d="M91.8827,-79.3827C112.302,-99.8017 145.513,-133.013 167.969,-155.469"/>
<polygon fill="#bec5ff" stroke="#bec5ff" points="166.078,-157.538 173.715,-161.215 170.038,-153.578 166.078,-157.538"/>
</a>
</g>
<!-- RARG -->
<g id="node6" class="node"><title>RARG</title>
<a xlink:href="RARG.svg" xlink:title="Z&#45;value: 1.340||remove20">
<polygon fill="#96a0ff" stroke="#96a0ff" stroke-width="2" points="163.525,-36 133.525,-36 121.525,-24 121.525,-12 133.525,-6.39488e-14 163.525,-6.39488e-14 175.525,-12 175.525,-24 163.525,-36"/>
<path fill="#96a0ff" stroke="#96a0ff" stroke-width="2" d="M133.525,-36C127.525,-36 121.525,-30 121.525,-24"/>
<path fill="#96a0ff" stroke="#96a0ff" stroke-width="2" d="M121.525,-12C121.525,-6 127.525,-6.39488e-14 133.525,-6.39488e-14"/>
<path fill="#96a0ff" stroke="#96a0ff" stroke-width="2" d="M163.525,-6.39488e-14C169.525,-6.39488e-14 175.525,-6 175.525,-12"/>
<path fill="#96a0ff" stroke="#96a0ff" stroke-width="2" d="M175.525,-24C175.525,-30 169.525,-36 163.525,-36"/>
<polyline fill="none" stroke="white" stroke-width="2" points="163.525,-36 133.525,-36 "/>
<path fill="none" stroke="white" stroke-width="2" d="M133.525,-36C127.525,-36 121.525,-30 121.525,-24"/>
<polyline fill="none" stroke="white" stroke-width="2" points="121.525,-24 121.525,-12 "/>
<path fill="none" stroke="white" stroke-width="2" d="M121.525,-12C121.525,-6 127.525,-6.39488e-14 133.525,-6.39488e-14"/>
<polyline fill="none" stroke="white" stroke-width="2" points="133.525,-6.39488e-14 163.525,-6.39488e-14 "/>
<path fill="none" stroke="white" stroke-width="2" d="M163.525,-6.39488e-14C169.525,-6.39488e-14 175.525,-6 175.525,-12"/>
<polyline fill="none" stroke="white" stroke-width="2" points="175.525,-12 175.525,-24 "/>
<path fill="none" stroke="white" stroke-width="2" d="M175.525,-24C175.525,-30 169.525,-36 163.525,-36"/>
<text text-anchor="middle" x="148.525" y="-15.5" font-family="Helvetica,sans-Serif" font-size="10.00">RARG</text>
</a>
</g>
<!-- ESRRA_ESR2&#45;&gt;RARG -->
<g id="edge6" class="edge"><title>ESRRA_ESR2&#45;&gt;RARG</title>
<a xlink:title="RARG: 0.130||remove16root">
<path fill="none" stroke="#ebc2ff" stroke-width="3" d="M104.999,-43.1296C108.062,-41.3609 111.182,-39.5597 114.273,-37.7752"/>
<polygon fill="#ebc2ff" stroke="#ebc2ff" points="115.864,-40.0898 121.392,-33.6649 113.064,-35.2401 115.864,-40.0898"/>
</a>
</g>
<!-- FOXD1_FOXO1_FOXO6_FOXG1_FOXP1 -->
<g id="node8" class="node"><title>FOXD1_FOXO1_FOXO6_FOXG1_FOXP1</title>
<a xlink:href="FOXD1_FOXO1_FOXO6_FOXG1_FOXP1.svg" xlink:title="Z&#45;value: 0.656||remove13">
<polygon fill="#b1b9ff" stroke="#b1b9ff" stroke-width="2" points="398.749,-315.249 220.749,-315.249 208.749,-303.249 208.749,-291.249 220.749,-279.249 398.749,-279.249 410.749,-291.249 410.749,-303.249 398.749,-315.249"/>
<path fill="#b1b9ff" stroke="#b1b9ff" stroke-width="2" d="M220.749,-315.249C214.749,-315.249 208.749,-309.249 208.749,-303.249"/>
<path fill="#b1b9ff" stroke="#b1b9ff" stroke-width="2" d="M208.749,-291.249C208.749,-285.249 214.749,-279.249 220.749,-279.249"/>
<path fill="#b1b9ff" stroke="#b1b9ff" stroke-width="2" d="M398.749,-279.249C404.749,-279.249 410.749,-285.249 410.749,-291.249"/>
<path fill="#b1b9ff" stroke="#b1b9ff" stroke-width="2" d="M410.749,-303.249C410.749,-309.249 404.749,-315.249 398.749,-315.249"/>
<polyline fill="none" stroke="white" stroke-width="2" points="398.749,-315.249 220.749,-315.249 "/>
<path fill="none" stroke="white" stroke-width="2" d="M220.749,-315.249C214.749,-315.249 208.749,-309.249 208.749,-303.249"/>
<polyline fill="none" stroke="white" stroke-width="2" points="208.749,-303.249 208.749,-291.249 "/>
<path fill="none" stroke="white" stroke-width="2" d="M208.749,-291.249C208.749,-285.249 214.749,-279.249 220.749,-279.249"/>
<polyline fill="none" stroke="white" stroke-width="2" points="220.749,-279.249 398.749,-279.249 "/>
<path fill="none" stroke="white" stroke-width="2" d="M398.749,-279.249C404.749,-279.249 410.749,-285.249 410.749,-291.249"/>
<polyline fill="none" stroke="white" stroke-width="2" points="410.749,-291.249 410.749,-303.249 "/>
<path fill="none" stroke="white" stroke-width="2" d="M410.749,-303.249C410.749,-309.249 404.749,-315.249 398.749,-315.249"/>
<text text-anchor="middle" x="309.749" y="-294.749" font-family="Helvetica,sans-Serif" font-size="10.00">FOXD1_FOXO1_FOXO6_FOXG1_FOXP1</text>
</a>
</g>
<!-- ESRRA_ESR2&#45;&gt;FOXD1_FOXO1_FOXO6_FOXG1_FOXP1 -->
<g id="edge8" class="edge"><title>ESRRA_ESR2&#45;&gt;FOXD1_FOXO1_FOXO6_FOXG1_FOXP1</title>
<a xlink:title="FOXP1: 1.145||FOXG1: 0.675||FOXO1: 0.161||remove13">
<path fill="none" stroke="#d47bff" stroke-width="3" d="M81.9407,-79.5861C95.3159,-107.95 123.964,-162.977 160.405,-200.105 191.093,-231.372 233.542,-257.779 265.343,-275.131"/>
<polygon fill="#d47bff" stroke="#d47bff" points="264.402,-277.805 272.774,-279.128 267.054,-272.873 264.402,-277.805"/>
</a>
</g>
<!-- ERG -->
<g id="node10" class="node"><title>ERG</title>
<a xlink:href="ERG.svg" xlink:title="Z&#45;value: 0.660||remove15">
<polygon fill="#b1b9ff" stroke="#b1b9ff" stroke-width="2" points="249.925,-358.449 219.925,-358.449 207.925,-346.449 207.925,-334.449 219.925,-322.449 249.925,-322.449 261.925,-334.449 261.925,-346.449 249.925,-358.449"/>
<path fill="#b1b9ff" stroke="#b1b9ff" stroke-width="2" d="M219.925,-358.449C213.925,-358.449 207.925,-352.449 207.925,-346.449"/>
<path fill="#b1b9ff" stroke="#b1b9ff" stroke-width="2" d="M207.925,-334.449C207.925,-328.449 213.925,-322.449 219.925,-322.449"/>
<path fill="#b1b9ff" stroke="#b1b9ff" stroke-width="2" d="M249.925,-322.449C255.925,-322.449 261.925,-328.449 261.925,-334.449"/>
<path fill="#b1b9ff" stroke="#b1b9ff" stroke-width="2" d="M261.925,-346.449C261.925,-352.449 255.925,-358.449 249.925,-358.449"/>
<polyline fill="none" stroke="white" stroke-width="2" points="249.925,-358.449 219.925,-358.449 "/>
<path fill="none" stroke="white" stroke-width="2" d="M219.925,-358.449C213.925,-358.449 207.925,-352.449 207.925,-346.449"/>
<polyline fill="none" stroke="white" stroke-width="2" points="207.925,-346.449 207.925,-334.449 "/>
<path fill="none" stroke="white" stroke-width="2" d="M207.925,-334.449C207.925,-328.449 213.925,-322.449 219.925,-322.449"/>
<polyline fill="none" stroke="white" stroke-width="2" points="219.925,-322.449 249.925,-322.449 "/>
<path fill="none" stroke="white" stroke-width="2" d="M249.925,-322.449C255.925,-322.449 261.925,-328.449 261.925,-334.449"/>
<polyline fill="none" stroke="white" stroke-width="2" points="261.925,-334.449 261.925,-346.449 "/>
<path fill="none" stroke="white" stroke-width="2" d="M261.925,-346.449C261.925,-352.449 255.925,-358.449 249.925,-358.449"/>
<text text-anchor="middle" x="234.925" y="-337.949" font-family="Helvetica,sans-Serif" font-size="10.00">ERG</text>
</a>
</g>
<!-- ESRRA_ESR2&#45;&gt;ERG -->
<g id="edge10" class="edge"><title>ESRRA_ESR2&#45;&gt;ERG</title>
<a xlink:title="ERG: 1.344||remove15">
<path fill="none" stroke="#d06dff" stroke-width="3" d="M77.7959,-79.3609C88.8774,-124.85 123.381,-245.24 192.589,-318.129 194.971,-320.637 197.697,-322.92 200.593,-324.984"/>
<polygon fill="#d06dff" stroke="#d06dff" points="199.319,-327.492 207.576,-329.407 202.316,-322.761 199.319,-327.492"/>
</a>
</g>
<!-- ARNT&#45;&gt;HLF_TEF -->
<g id="edge20" class="edge"><title>ARNT&#45;&gt;HLF_TEF</title>
<a xlink:title="TEF: 0.143||remove18root">
<path fill="none" stroke="#ffc1c1" stroke-width="3" d="M219.074,-186.553C245.599,-193.66 286.049,-204.499 315.544,-212.402"/>
<polygon fill="#ffc1c1" stroke="#ffc1c1" points="315.1,-215.182 323.552,-214.548 316.55,-209.773 315.1,-215.182"/>
</a>
</g>
<!-- ARNT&#45;&gt;FOXD1_FOXO1_FOXO6_FOXG1_FOXP1 -->
<g id="edge24" class="edge"><title>ARNT&#45;&gt;FOXD1_FOXO1_FOXO6_FOXG1_FOXP1</title>
<a xlink:title="FOXP1: 0.121||remove13root">
<path fill="none" stroke="#ffc3c3" stroke-width="3" d="M209.907,-197.407C230.326,-217.826 263.537,-251.037 285.994,-273.494"/>
<polygon fill="#ffc3c3" stroke="#ffc3c3" points="284.103,-275.563 291.74,-279.24 288.063,-271.603 284.103,-275.563"/>
</a>
</g>
<!-- ARNT&#45;&gt;ERG -->
<g id="edge28" class="edge"><title>ARNT&#45;&gt;ERG</title>
<a xlink:title="ERG: 0.123||remove15root">
<path fill="none" stroke="#ffc3c3" stroke-width="3" d="M186.306,-197.467C179.08,-225.638 169.676,-280.412 192.589,-318.129 194.745,-321.678 197.672,-324.691 200.987,-327.243"/>
<polygon fill="#ffc3c3" stroke="#ffc3c3" points="199.5,-329.616 207.74,-331.602 202.537,-324.911 199.5,-329.616"/>
</a>
</g>
<!-- PATZ1_KLF4 -->
<g id="node15" class="node"><title>PATZ1_KLF4</title>
<a xlink:href="PATZ1_KLF4.svg" xlink:title="Z&#45;value: 1.751||remove22">
<polygon fill="#8591ff" stroke="#8591ff" stroke-width="2" points="174.525,-358.449 122.525,-358.449 110.525,-346.449 110.525,-334.449 122.525,-322.449 174.525,-322.449 186.525,-334.449 186.525,-346.449 174.525,-358.449"/>
<path fill="#8591ff" stroke="#8591ff" stroke-width="2" d="M122.525,-358.449C116.525,-358.449 110.525,-352.449 110.525,-346.449"/>
<path fill="#8591ff" stroke="#8591ff" stroke-width="2" d="M110.525,-334.449C110.525,-328.449 116.525,-322.449 122.525,-322.449"/>
<path fill="#8591ff" stroke="#8591ff" stroke-width="2" d="M174.525,-322.449C180.525,-322.449 186.525,-328.449 186.525,-334.449"/>
<path fill="#8591ff" stroke="#8591ff" stroke-width="2" d="M186.525,-346.449C186.525,-352.449 180.525,-358.449 174.525,-358.449"/>
<polyline fill="none" stroke="white" stroke-width="2" points="174.525,-358.449 122.525,-358.449 "/>
<path fill="none" stroke="white" stroke-width="2" d="M122.525,-358.449C116.525,-358.449 110.525,-352.449 110.525,-346.449"/>
<polyline fill="none" stroke="white" stroke-width="2" points="110.525,-346.449 110.525,-334.449 "/>
<path fill="none" stroke="white" stroke-width="2" d="M110.525,-334.449C110.525,-328.449 116.525,-322.449 122.525,-322.449"/>
<polyline fill="none" stroke="white" stroke-width="2" points="122.525,-322.449 174.525,-322.449 "/>
<path fill="none" stroke="white" stroke-width="2" d="M174.525,-322.449C180.525,-322.449 186.525,-328.449 186.525,-334.449"/>
<polyline fill="none" stroke="white" stroke-width="2" points="186.525,-334.449 186.525,-346.449 "/>
<path fill="none" stroke="white" stroke-width="2" d="M186.525,-346.449C186.525,-352.449 180.525,-358.449 174.525,-358.449"/>
<text text-anchor="middle" x="148.525" y="-337.949" font-family="Helvetica,sans-Serif" font-size="10.00">PATZ1_KLF4</text>
</a>
</g>
<!-- ARNT&#45;&gt;PATZ1_KLF4 -->
<g id="edge18" class="edge"><title>ARNT&#45;&gt;PATZ1_KLF4</title>
<a xlink:title="KLF4: 0.073||PATZ1: 0.046||ARNT: 0.269||remove22root">
<path fill="none" stroke="#ffc6c6" stroke-width="3" d="M185.727,-205.471C177.706,-235.408 164.599,-284.322 156.541,-314.395"/>
<path fill="none" stroke="#b9c0ff" stroke-width="3" d="M183.795,-204.954C175.774,-234.89 162.667,-283.804 154.609,-313.877"/>
<polygon fill="#b9c0ff" stroke="#b9c0ff" points="187.487,-205.858 186.853,-197.406 182.078,-204.408 187.487,-205.858"/>
<polygon fill="#ffc6c6" stroke="#ffc6c6" points="152.811,-313.635 153.445,-322.087 158.22,-315.084 152.811,-313.635"/>
</a>
</g>
<!-- ZBTB12 -->
<g id="node18" class="node"><title>ZBTB12</title>
<a xlink:href="ZBTB12.svg" xlink:title="Z&#45;value: 0.315||remove12">
<polygon fill="#bfc5ff" stroke="#bfc5ff" stroke-width="2" points="88.7,-315.249 58.7,-315.249 46.7,-303.249 46.7,-291.249 58.7,-279.249 88.7,-279.249 100.7,-291.249 100.7,-303.249 88.7,-315.249"/>
<path fill="#bfc5ff" stroke="#bfc5ff" stroke-width="2" d="M58.7,-315.249C52.7,-315.249 46.7,-309.249 46.7,-303.249"/>
<path fill="#bfc5ff" stroke="#bfc5ff" stroke-width="2" d="M46.7,-291.249C46.7,-285.249 52.7,-279.249 58.7,-279.249"/>
<path fill="#bfc5ff" stroke="#bfc5ff" stroke-width="2" d="M88.7,-279.249C94.7,-279.249 100.7,-285.249 100.7,-291.249"/>
<path fill="#bfc5ff" stroke="#bfc5ff" stroke-width="2" d="M100.7,-303.249C100.7,-309.249 94.7,-315.249 88.7,-315.249"/>
<polyline fill="none" stroke="white" stroke-width="2" points="88.7,-315.249 58.7,-315.249 "/>
<path fill="none" stroke="white" stroke-width="2" d="M58.7,-315.249C52.7,-315.249 46.7,-309.249 46.7,-303.249"/>
<polyline fill="none" stroke="white" stroke-width="2" points="46.7,-303.249 46.7,-291.249 "/>
<path fill="none" stroke="white" stroke-width="2" d="M46.7,-291.249C46.7,-285.249 52.7,-279.249 58.7,-279.249"/>
<polyline fill="none" stroke="white" stroke-width="2" points="58.7,-279.249 88.7,-279.249 "/>
<path fill="none" stroke="white" stroke-width="2" d="M88.7,-279.249C94.7,-279.249 100.7,-285.249 100.7,-291.249"/>
<polyline fill="none" stroke="white" stroke-width="2" points="100.7,-291.249 100.7,-303.249 "/>
<path fill="none" stroke="white" stroke-width="2" d="M100.7,-303.249C100.7,-309.249 94.7,-315.249 88.7,-315.249"/>
<text text-anchor="middle" x="73.7" y="-294.749" font-family="Helvetica,sans-Serif" font-size="10.00">ZBTB12</text>
</a>
</g>
<!-- ARNT&#45;&gt;ZBTB12 -->
<g id="edge22" class="edge"><title>ARNT&#45;&gt;ZBTB12</title>
<a xlink:title="ZBTB12: 0.116||remove12root">
<path fill="none" stroke="#ffc3c3" stroke-width="3" d="M173.542,-197.407C153.123,-217.826 119.912,-251.037 97.4555,-273.494"/>
<polygon fill="#ffc3c3" stroke="#ffc3c3" points="95.3866,-271.603 91.7097,-279.24 99.3465,-275.563 95.3866,-271.603"/>
</a>
</g>
<!-- NFIL3 -->
<g id="node21" class="node"><title>NFIL3</title>
<a xlink:href="NFIL3.svg" xlink:title="Z&#45;value: 0.789||remove19">
<polygon fill="#acb4ff" stroke="#acb4ff" stroke-width="2" points="45.5,-240.425 15.5,-240.425 3.5,-228.425 3.5,-216.425 15.5,-204.425 45.5,-204.425 57.5,-216.425 57.5,-228.425 45.5,-240.425"/>
<path fill="#acb4ff" stroke="#acb4ff" stroke-width="2" d="M15.5,-240.425C9.5,-240.425 3.5,-234.425 3.5,-228.425"/>
<path fill="#acb4ff" stroke="#acb4ff" stroke-width="2" d="M3.5,-216.425C3.5,-210.425 9.5,-204.425 15.5,-204.425"/>
<path fill="#acb4ff" stroke="#acb4ff" stroke-width="2" d="M45.5,-204.425C51.5,-204.425 57.5,-210.425 57.5,-216.425"/>
<path fill="#acb4ff" stroke="#acb4ff" stroke-width="2" d="M57.5,-228.425C57.5,-234.425 51.5,-240.425 45.5,-240.425"/>
<polyline fill="none" stroke="white" stroke-width="2" points="45.5,-240.425 15.5,-240.425 "/>
<path fill="none" stroke="white" stroke-width="2" d="M15.5,-240.425C9.5,-240.425 3.5,-234.425 3.5,-228.425"/>
<polyline fill="none" stroke="white" stroke-width="2" points="3.5,-228.425 3.5,-216.425 "/>
<path fill="none" stroke="white" stroke-width="2" d="M3.5,-216.425C3.5,-210.425 9.5,-204.425 15.5,-204.425"/>
<polyline fill="none" stroke="white" stroke-width="2" points="15.5,-204.425 45.5,-204.425 "/>
<path fill="none" stroke="white" stroke-width="2" d="M45.5,-204.425C51.5,-204.425 57.5,-210.425 57.5,-216.425"/>
<polyline fill="none" stroke="white" stroke-width="2" points="57.5,-216.425 57.5,-228.425 "/>
<path fill="none" stroke="white" stroke-width="2" d="M57.5,-228.425C57.5,-234.425 51.5,-240.425 45.5,-240.425"/>
<text text-anchor="middle" x="30.5" y="-219.925" font-family="Helvetica,sans-Serif" font-size="10.00">NFIL3</text>
</a>
</g>
<!-- ARNT&#45;&gt;NFIL3 -->
<g id="edge26" class="edge"><title>ARNT&#45;&gt;NFIL3</title>
<a xlink:title="NFIL3: 0.163||remove19root">
<path fill="none" stroke="#ffc0c0" stroke-width="3" d="M164.375,-186.553C137.194,-193.836 95.3881,-205.038 65.7338,-212.984"/>
<polygon fill="#ffc0c0" stroke="#ffc0c0" points="64.7169,-210.357 57.7142,-215.133 66.1663,-215.767 64.7169,-210.357"/>
</a>
</g>
<!-- BHLHE40 -->
<g id="node24" class="node"><title>BHLHE40</title>
<a xlink:href="BHLHE40.svg" xlink:title="Z&#45;value: 0.505||remove23">
<polygon fill="#b7beff" stroke="#b7beff" stroke-width="2" points="48.75,-154.025 12.25,-154.025 0.25,-142.025 0.25,-130.025 12.25,-118.025 48.75,-118.025 60.75,-130.025 60.75,-142.025 48.75,-154.025"/>
<path fill="#b7beff" stroke="#b7beff" stroke-width="2" d="M12.25,-154.025C6.25,-154.025 0.25,-148.025 0.25,-142.025"/>
<path fill="#b7beff" stroke="#b7beff" stroke-width="2" d="M0.25,-130.025C0.25,-124.025 6.25,-118.025 12.25,-118.025"/>
<path fill="#b7beff" stroke="#b7beff" stroke-width="2" d="M48.75,-118.025C54.75,-118.025 60.75,-124.025 60.75,-130.025"/>
<path fill="#b7beff" stroke="#b7beff" stroke-width="2" d="M60.75,-142.025C60.75,-148.025 54.75,-154.025 48.75,-154.025"/>
<polyline fill="none" stroke="white" stroke-width="2" points="48.75,-154.025 12.25,-154.025 "/>
<path fill="none" stroke="white" stroke-width="2" d="M12.25,-154.025C6.25,-154.025 0.25,-148.025 0.25,-142.025"/>
<polyline fill="none" stroke="white" stroke-width="2" points="0.25,-142.025 0.25,-130.025 "/>
<path fill="none" stroke="white" stroke-width="2" d="M0.25,-130.025C0.25,-124.025 6.25,-118.025 12.25,-118.025"/>
<polyline fill="none" stroke="white" stroke-width="2" points="12.25,-118.025 48.75,-118.025 "/>
<path fill="none" stroke="white" stroke-width="2" d="M48.75,-118.025C54.75,-118.025 60.75,-124.025 60.75,-130.025"/>
<polyline fill="none" stroke="white" stroke-width="2" points="60.75,-130.025 60.75,-142.025 "/>
<path fill="none" stroke="white" stroke-width="2" d="M60.75,-142.025C60.75,-148.025 54.75,-154.025 48.75,-154.025"/>
<text text-anchor="middle" x="30.5" y="-133.525" font-family="Helvetica,sans-Serif" font-size="10.00">BHLHE40</text>
</a>
</g>
<!-- ARNT&#45;&gt;BHLHE40 -->
<g id="edge30" class="edge"><title>ARNT&#45;&gt;BHLHE40</title>
<a xlink:title="BHLHE40: 0.349||remove23root">
<path fill="none" stroke="#ffb3b3" stroke-width="3" d="M164.375,-171.896C138.179,-164.877 98.4001,-154.218 69.0057,-146.342"/>
<polygon fill="#ffb3b3" stroke="#ffb3b3" points="69.4623,-143.566 61.0102,-144.2 68.0129,-148.975 69.4623,-143.566"/>
</a>
</g>
<!-- RARG&#45;&gt;HLF_TEF -->
<g id="edge12" class="edge"><title>RARG&#45;&gt;HLF_TEF</title>
<a xlink:title="HLF: 0.321||remove18">
<path fill="none" stroke="#e7b5ff" stroke-width="3" d="M166.666,-36.1413C203.641,-73.116 287.709,-157.184 329.067,-198.542"/>
<polygon fill="#e7b5ff" stroke="#e7b5ff" points="327.212,-200.647 334.849,-204.324 331.172,-196.687 327.212,-200.647"/>
</a>
</g>
<!-- RARG&#45;&gt;ARNT -->
<g id="edge14" class="edge"><title>RARG&#45;&gt;ARNT</title>
<a xlink:title="ARNT: 0.184||RARG: 0.034||remove20root">
<path fill="none" stroke="#bfc5ff" stroke-width="3" d="M156.454,-43.7293C164.475,-73.6656 177.582,-122.58 185.64,-152.653"/>
<path fill="none" stroke="#ffc9c9" stroke-width="3" d="M154.522,-44.2469C162.544,-74.1832 175.65,-123.097 183.708,-153.17"/>
<polygon fill="#ffc9c9" stroke="#ffc9c9" points="158.171,-43.1838 153.396,-36.1811 152.762,-44.6332 158.171,-43.1838"/>
<polygon fill="#bfc5ff" stroke="#bfc5ff" points="182.029,-153.86 186.805,-160.863 187.438,-152.41 182.029,-153.86"/>
</a>
</g>
<!-- RARG&#45;&gt;FOXD1_FOXO1_FOXO6_FOXG1_FOXP1 -->
<g id="edge16" class="edge"><title>RARG&#45;&gt;FOXD1_FOXO1_FOXO6_FOXG1_FOXP1</title>
<a xlink:title="FOXP1: 0.675||FOXO1: 0.099||remove13">
<path fill="none" stroke="#df9cff" stroke-width="3" d="M159.103,-36.3223C187.128,-84.8626 263.325,-216.84 295.309,-272.238"/>
<polygon fill="#df9cff" stroke="#df9cff" points="292.917,-273.694 299.341,-279.222 297.766,-270.894 292.917,-273.694"/>
</a>
</g>
<!-- FOXD1_FOXO1_FOXO6_FOXG1_FOXP1&#45;&gt;HLF_TEF -->
<g id="edge38" class="edge"><title>FOXD1_FOXO1_FOXO6_FOXG1_FOXP1&#45;&gt;HLF_TEF</title>
<a xlink:title="HLF: 0.001||remove0root">
<path fill="none" stroke="#eecbff" stroke-width="3" d="M320.207,-279.136C325.632,-269.739 332.349,-258.105 338.284,-247.825"/>
<polygon fill="#eecbff" stroke="#eecbff" points="340.863,-248.958 342.438,-240.63 336.013,-246.158 340.863,-248.958"/>
</a>
</g>
<!-- FOXD1_FOXO1_FOXO6_FOXG1_FOXP1&#45;&gt;FOXD1_FOXO1_FOXO6_FOXG1_FOXP1 -->
<g id="edge40" class="edge"><title>FOXD1_FOXO1_FOXO6_FOXG1_FOXP1&#45;&gt;FOXD1_FOXO1_FOXO6_FOXG1_FOXP1</title>
<a xlink:title="FOXP1: 0.292||FOXO1: 0.176||remove13">
<path fill="none" stroke="#e8b7ff" stroke-width="3" d="M410.887,-302.885C421.757,-301.8 428.749,-299.921 428.749,-297.249 428.749,-295.329 425.137,-293.818 419.069,-292.717"/>
<polygon fill="#e8b7ff" stroke="#e8b7ff" points="419.189,-289.908 410.887,-291.613 418.44,-295.458 419.189,-289.908"/>
</a>
</g>
<!-- ERG&#45;&gt;FOXD1_FOXO1_FOXO6_FOXG1_FOXP1 -->
<g id="edge36" class="edge"><title>ERG&#45;&gt;FOXD1_FOXO1_FOXO6_FOXG1_FOXP1</title>
<a xlink:title="FOXG1: 0.063||ERG: 0.029||remove8root">
<path fill="none" stroke="#edc7ff" stroke-width="3" d="M268.607,-319.848C269.385,-319.399 270.166,-318.948 270.946,-318.497"/>
<path fill="none" stroke="#eec9ff" stroke-width="3" d="M269.607,-321.58C270.385,-321.131 271.166,-320.68 271.946,-320.229"/>
<polygon fill="#eec9ff" stroke="#eec9ff" points="267.466,-318.428 261.938,-324.853 270.266,-323.278 267.466,-318.428"/>
<polygon fill="#edc7ff" stroke="#edc7ff" points="272.922,-321.745 278.45,-315.32 270.122,-316.895 272.922,-321.745"/>
</a>
</g>
<!-- ERG&#45;&gt;PATZ1_KLF4 -->
<g id="edge34" class="edge"><title>ERG&#45;&gt;PATZ1_KLF4</title>
<a xlink:title="PATZ1: 0.048||ERG: 0.749||remove15">
<path fill="none" stroke="#edc8ff" stroke-width="3" d="M199.278,-341.449C197.855,-341.449 196.421,-341.449 194.983,-341.449"/>
<path fill="none" stroke="#dd97ff" stroke-width="3" d="M199.278,-339.449C197.855,-339.449 196.421,-339.449 194.983,-339.449"/>
<polygon fill="#dd97ff" stroke="#dd97ff" points="199.587,-343.249 207.587,-340.449 199.587,-337.649 199.587,-343.249"/>
<polygon fill="#edc8ff" stroke="#edc8ff" points="194.735,-337.649 186.735,-340.449 194.735,-343.249 194.735,-337.649"/>
</a>
</g>
<!-- SP1 -->
<g id="node26" class="node"><title>SP1</title>
<a xlink:href="SP1.svg" xlink:title="Z&#45;value: 0.981||remove11">
<polygon fill="#a4adff" stroke="#a4adff" stroke-width="2" points="249.925,-36 219.925,-36 207.925,-24 207.925,-12 219.925,-0 249.925,-0 261.925,-12 261.925,-24 249.925,-36"/>
<path fill="#a4adff" stroke="#a4adff" stroke-width="2" d="M219.925,-36C213.925,-36 207.925,-30 207.925,-24"/>
<path fill="#a4adff" stroke="#a4adff" stroke-width="2" d="M207.925,-12C207.925,-6 213.925,-0 219.925,-0"/>
<path fill="#a4adff" stroke="#a4adff" stroke-width="2" d="M249.925,-0C255.925,-0 261.925,-6 261.925,-12"/>
<path fill="#a4adff" stroke="#a4adff" stroke-width="2" d="M261.925,-24C261.925,-30 255.925,-36 249.925,-36"/>
<polyline fill="none" stroke="white" stroke-width="2" points="249.925,-36 219.925,-36 "/>
<path fill="none" stroke="white" stroke-width="2" d="M219.925,-36C213.925,-36 207.925,-30 207.925,-24"/>
<polyline fill="none" stroke="white" stroke-width="2" points="207.925,-24 207.925,-12 "/>
<path fill="none" stroke="white" stroke-width="2" d="M207.925,-12C207.925,-6 213.925,-0 219.925,-0"/>
<polyline fill="none" stroke="white" stroke-width="2" points="219.925,-0 249.925,-0 "/>
<path fill="none" stroke="white" stroke-width="2" d="M249.925,-0C255.925,-0 261.925,-6 261.925,-12"/>
<polyline fill="none" stroke="white" stroke-width="2" points="261.925,-12 261.925,-24 "/>
<path fill="none" stroke="white" stroke-width="2" d="M261.925,-24C261.925,-30 255.925,-36 249.925,-36"/>
<text text-anchor="middle" x="234.925" y="-15.5" font-family="Helvetica,sans-Serif" font-size="10.00">SP1</text>
</a>
</g>
<!-- ERG&#45;&gt;SP1 -->
<g id="edge32" class="edge"><title>ERG&#45;&gt;SP1</title>
<a xlink:title="SP1: 0.105||ERG: 0.141||remove11">
<path fill="none" stroke="#ecc4ff" stroke-width="3" d="M200.355,-328.048C196.936,-325.397 194.015,-322.38 191.733,-318.646 182.22,-301.614 188.302,-293.973 191.607,-276.18 199.196,-239.569 215.122,-234.836 222.067,-199.895 236.572,-133.788 220.583,-112.894 228.309,-44.3969"/>
<path fill="none" stroke="#ebc2ff" stroke-width="3" d="M201.576,-326.465C198.373,-324.006 195.452,-320.989 193.445,-317.613 183.785,-302.86 189.867,-295.218 193.571,-276.558 199.766,-241.486 215.692,-236.753 224.022,-200.314 238.16,-132.573 222.171,-111.679 230.296,-44.6292"/>
<polygon fill="#ebc2ff" stroke="#ebc2ff" points="199.476,-329.627 207.715,-331.618 202.515,-324.924 199.476,-329.627"/>
<polygon fill="#ecc4ff" stroke="#ecc4ff" points="232.095,-44.7528 230.329,-36.463 226.54,-44.0447 232.095,-44.7528"/>
</a>
</g>
<!-- PATZ1_KLF4&#45;&gt;ESRRA_ESR2 -->
<g id="edge54" class="edge"><title>PATZ1_KLF4&#45;&gt;ESRRA_ESR2</title>
<a xlink:title="ESRRA: 1.315||ESR2: 0.103||remove21">
<path fill="none" stroke="#d16fff" stroke-width="3" d="M143.615,-322.127C130.688,-273.884 95.6779,-143.223 80.6766,-87.2371"/>
<polygon fill="#d16fff" stroke="#d16fff" points="83.3055,-86.2294 78.5303,-79.2268 77.8963,-87.6789 83.3055,-86.2294"/>
</a>
</g>
<!-- PATZ1_KLF4&#45;&gt;HLF_TEF -->
<g id="edge46" class="edge"><title>PATZ1_KLF4&#45;&gt;HLF_TEF</title>
<a xlink:title="TEF: 2.175||HLF: 0.250||remove18">
<path fill="none" stroke="#bd32ff" stroke-width="3" d="M156.919,-322.284C164.404,-307.942 176.639,-288.406 192.589,-276.369 229.164,-248.769 280.708,-234.775 315.398,-228.054"/>
<polygon fill="#bd32ff" stroke="#bd32ff" points="316.042,-230.782 323.4,-226.574 315.024,-225.275 316.042,-230.782"/>
</a>
</g>
<!-- PATZ1_KLF4&#45;&gt;RARG -->
<g id="edge50" class="edge"><title>PATZ1_KLF4&#45;&gt;RARG</title>
<a xlink:title="RARG: 0.012||remove1root">
<path fill="none" stroke="#eecbff" stroke-width="3" d="M148.525,-322.189C148.525,-267.984 148.525,-107.839 148.525,-44.3552"/>
<polygon fill="#eecbff" stroke="#eecbff" points="151.325,-44.0598 148.525,-36.0599 145.725,-44.0599 151.325,-44.0598"/>
</a>
</g>
<!-- PATZ1_KLF4&#45;&gt;FOXD1_FOXO1_FOXO6_FOXG1_FOXP1 -->
<g id="edge52" class="edge"><title>PATZ1_KLF4&#45;&gt;FOXD1_FOXO1_FOXO6_FOXG1_FOXP1</title>
<a xlink:title="FOXP1: 1.364||FOXO1: 0.439||FOXO6: 0.225||FOXG1: 0.052||remove13">
<path fill="none" stroke="#cf6bff" stroke-width="3" d="M186.787,-325.076C192.381,-323.083 198.108,-321.178 203.605,-319.569 206.135,-318.828 208.706,-318.102 211.305,-317.39"/>
<polygon fill="#cf6bff" stroke="#cf6bff" points="212.164,-320.06 219.178,-315.301 210.727,-314.647 212.164,-320.06"/>
</a>
</g>
<!-- PATZ1_KLF4&#45;&gt;PATZ1_KLF4 -->
<g id="edge44" class="edge"><title>PATZ1_KLF4&#45;&gt;PATZ1_KLF4</title>
<a xlink:title="PATZ1: 0.441||KLF4: 0.051||remove22">
<path fill="none" stroke="#e4acff" stroke-width="3" d="M186.739,-347.14C196.859,-346.758 204.525,-344.527 204.525,-340.449 204.525,-337.582 200.735,-335.628 194.967,-334.588"/>
<polygon fill="#e4acff" stroke="#e4acff" points="194.979,-331.775 186.739,-333.759 194.418,-337.347 194.979,-331.775"/>
</a>
</g>
<!-- PATZ1_KLF4&#45;&gt;ZBTB12 -->
<g id="edge48" class="edge"><title>PATZ1_KLF4&#45;&gt;ZBTB12</title>
<a xlink:title="ZBTB12: 0.981||remove12">
<path fill="none" stroke="#d887ff" stroke-width="3" d="M117.226,-322.379C114.162,-320.61 111.042,-318.809 107.952,-317.024"/>
<polygon fill="#d887ff" stroke="#d887ff" points="109.161,-314.489 100.832,-312.914 106.361,-319.339 109.161,-314.489"/>
</a>
</g>
<!-- PATZ1_KLF4&#45;&gt;NFIL3 -->
<g id="edge56" class="edge"><title>PATZ1_KLF4&#45;&gt;NFIL3</title>
<a xlink:title="NFIL3: 0.103||remove10root">
<path fill="none" stroke="#ecc4ff" stroke-width="3" d="M138.572,-322.365C130.583,-308.804 118.504,-290.266 105.02,-276.369 93.0864,-264.07 78.0654,-252.605 64.6414,-243.434"/>
<polygon fill="#ecc4ff" stroke="#ecc4ff" points="65.9989,-240.974 57.7919,-238.856 62.8868,-245.629 65.9989,-240.974"/>
</a>
</g>
<!-- PATZ1_KLF4&#45;&gt;BHLHE40 -->
<g id="edge58" class="edge"><title>PATZ1_KLF4&#45;&gt;BHLHE40</title>
<a xlink:title="BHLHE40: 0.922||remove22">
<path fill="none" stroke="#d98bff" stroke-width="3" d="M138.051,-322.308C116.922,-285.712 69.1583,-202.983 45.03,-161.191"/>
<polygon fill="#d98bff" stroke="#d98bff" points="47.3753,-159.653 40.9504,-154.125 42.5256,-162.453 47.3753,-159.653"/>
</a>
</g>
<!-- PATZ1_KLF4&#45;&gt;SP1 -->
<g id="edge42" class="edge"><title>PATZ1_KLF4&#45;&gt;SP1</title>
<a xlink:title="SP1: 0.098||KLF4: 0.019||remove9root">
<path fill="none" stroke="#ecc5ff" stroke-width="3" d="M145.829,-314.193C144.271,-278.216 144.144,-212.098 159.443,-158.071 171.787,-114.714 198.509,-69.7942 216.423,-42.6892"/>
<path fill="none" stroke="#eecaff" stroke-width="3" d="M147.827,-314.106C146.271,-278.212 146.144,-212.094 161.367,-158.618 173.506,-115.736 200.227,-70.8167 218.091,-43.792"/>
<polygon fill="#eecaff" stroke="#eecaff" points="144.033,-314.335 147.222,-322.188 149.627,-314.061 144.033,-314.335"/>
<polygon fill="#ecc5ff" stroke="#ecc5ff" points="219.696,-44.6309 221.825,-36.4267 215.045,-41.5127 219.696,-44.6309"/>
</a>
</g>
<!-- OLIG2_NEUROD1_ATOH1 -->
<g id="node41" class="node"><title>OLIG2_NEUROD1_ATOH1</title>
<a xlink:href="OLIG2_NEUROD1_ATOH1.svg" xlink:title="Z&#45;value: 0.564||remove14">
<polygon fill="#b5bcff" stroke="#b5bcff" stroke-width="2" points="366.749,-79.2 252.749,-79.2 240.749,-67.2 240.749,-55.2 252.749,-43.2 366.749,-43.2 378.749,-55.2 378.749,-67.2 366.749,-79.2"/>
<path fill="#b5bcff" stroke="#b5bcff" stroke-width="2" d="M252.749,-79.2C246.749,-79.2 240.749,-73.2 240.749,-67.2"/>
<path fill="#b5bcff" stroke="#b5bcff" stroke-width="2" d="M240.749,-55.2C240.749,-49.2 246.749,-43.2 252.749,-43.2"/>
<path fill="#b5bcff" stroke="#b5bcff" stroke-width="2" d="M366.749,-43.2C372.749,-43.2 378.749,-49.2 378.749,-55.2"/>
<path fill="#b5bcff" stroke="#b5bcff" stroke-width="2" d="M378.749,-67.2C378.749,-73.2 372.749,-79.2 366.749,-79.2"/>
<polyline fill="none" stroke="white" stroke-width="2" points="366.749,-79.2 252.749,-79.2 "/>
<path fill="none" stroke="white" stroke-width="2" d="M252.749,-79.2C246.749,-79.2 240.749,-73.2 240.749,-67.2"/>
<polyline fill="none" stroke="white" stroke-width="2" points="240.749,-67.2 240.749,-55.2 "/>
<path fill="none" stroke="white" stroke-width="2" d="M240.749,-55.2C240.749,-49.2 246.749,-43.2 252.749,-43.2"/>
<polyline fill="none" stroke="white" stroke-width="2" points="252.749,-43.2 366.749,-43.2 "/>
<path fill="none" stroke="white" stroke-width="2" d="M366.749,-43.2C372.749,-43.2 378.749,-49.2 378.749,-55.2"/>
<polyline fill="none" stroke="white" stroke-width="2" points="378.749,-55.2 378.749,-67.2 "/>
<path fill="none" stroke="white" stroke-width="2" d="M378.749,-67.2C378.749,-73.2 372.749,-79.2 366.749,-79.2"/>
<text text-anchor="middle" x="309.749" y="-58.7" font-family="Helvetica,sans-Serif" font-size="10.00">OLIG2_NEUROD1_ATOH1</text>
</a>
</g>
<!-- PATZ1_KLF4&#45;&gt;OLIG2_NEUROD1_ATOH1 -->
<g id="edge60" class="edge"><title>PATZ1_KLF4&#45;&gt;OLIG2_NEUROD1_ATOH1</title>
<a xlink:title="ATOH1: 0.016||remove3root">
<path fill="none" stroke="#eecaff" stroke-width="3" d="M159.103,-322.127C187.128,-273.587 263.325,-141.61 295.309,-86.211"/>
<polygon fill="#eecaff" stroke="#eecaff" points="297.766,-87.555 299.341,-79.2268 292.917,-84.755 297.766,-87.555"/>
</a>
</g>
<!-- NFIL3&#45;&gt;ESRRA_ESR2 -->
<g id="edge84" class="edge"><title>NFIL3&#45;&gt;ESRRA_ESR2</title>
<a xlink:title="ESRRA: 0.018||remove5root">
<path fill="none" stroke="#eecaff" stroke-width="3" d="M42.8879,-204.397C50.9226,-191.711 60.8073,-174.008 65.88,-156.905 72.652,-134.072 74.3011,-106.919 74.436,-87.3777"/>
<polygon fill="#eecaff" stroke="#eecaff" points="77.2356,-87.2316 74.4081,-79.2412 71.6356,-87.2508 77.2356,-87.2316"/>
</a>
</g>
<!-- SP1&#45;&gt;ESRRA_ESR2 -->
<g id="edge76" class="edge"><title>SP1&#45;&gt;ESRRA_ESR2</title>
<a xlink:title="ESRRA: 0.012||remove2root">
<path fill="none" stroke="#eecbff" stroke-width="3" d="M207.753,-29.2571C198.947,-32.6464 189.07,-36.1791 179.845,-38.88 161.587,-44.2252 141.208,-48.8277 123.227,-52.4412"/>
<polygon fill="#eecbff" stroke="#eecbff" points="122.458,-49.7386 115.15,-54.031 123.54,-55.2332 122.458,-49.7386"/>
</a>
</g>
<!-- SP1&#45;&gt;HLF_TEF -->
<g id="edge66" class="edge"><title>SP1&#45;&gt;HLF_TEF</title>
<a xlink:title="TEF: 0.333||HLF: 0.031||remove11">
<path fill="none" stroke="#e7b4ff" stroke-width="3" d="M229.354,-36.2597C226.306,-49.4089 224.161,-67.3524 229.709,-82.08 248.173,-131.089 292.394,-174.121 322.522,-199.21"/>
<polygon fill="#e7b4ff" stroke="#e7b4ff" points="320.759,-201.385 328.722,-204.287 324.306,-197.053 320.759,-201.385"/>
</a>
</g>
<!-- SP1&#45;&gt;ARNT -->
<g id="edge68" class="edge"><title>SP1&#45;&gt;ARNT</title>
<a xlink:title="ARNT: 0.115||remove11root">
<path fill="none" stroke="#c3c9ff" stroke-width="3" d="M230.053,-36.1811C222.404,-64.7264 207.545,-120.183 198.744,-153.029"/>
<polygon fill="#c3c9ff" stroke="#c3c9ff" points="196.011,-152.41 196.645,-160.863 201.42,-153.86 196.011,-152.41"/>
</a>
</g>
<!-- SP1&#45;&gt;RARG -->
<g id="edge72" class="edge"><title>SP1&#45;&gt;RARG</title>
<a xlink:title="RARG: 0.250||remove11">
<path fill="none" stroke="#e9baff" stroke-width="3" d="M207.587,-18C200.028,-18 191.717,-18 183.777,-18"/>
<polygon fill="#e9baff" stroke="#e9baff" points="183.684,-15.2001 175.684,-18 183.684,-20.8001 183.684,-15.2001"/>
</a>
</g>
<!-- SP1&#45;&gt;FOXD1_FOXO1_FOXO6_FOXG1_FOXP1 -->
<g id="edge74" class="edge"><title>SP1&#45;&gt;FOXD1_FOXO1_FOXO6_FOXG1_FOXP1</title>
<a xlink:title="FOXO1: 0.176||FOXP1: 0.132||remove11">
<path fill="none" stroke="#eabfff" stroke-width="3" d="M230.268,-36.4553C230.046,-37.7575 229.855,-39.055 229.709,-40.32 227.584,-58.7579 226.422,-63.8135 229.709,-82.08 242.582,-153.607 277.724,-232.404 296.881,-271.826"/>
<polygon fill="#eabfff" stroke="#eabfff" points="294.449,-273.224 300.488,-279.171 299.475,-270.756 294.449,-273.224"/>
</a>
</g>
<!-- SP1&#45;&gt;ZBTB12 -->
<g id="edge70" class="edge"><title>SP1&#45;&gt;ZBTB12</title>
<a xlink:title="ZBTB12: 0.161||remove11">
<path fill="none" stroke="#ebc0ff" stroke-width="3" d="M224.346,-36.3223C196.321,-84.8626 120.125,-216.84 88.1401,-272.238"/>
<polygon fill="#ebc0ff" stroke="#ebc0ff" points="85.6829,-270.894 84.1078,-279.222 90.5327,-273.694 85.6829,-270.894"/>
</a>
</g>
<!-- SP1&#45;&gt;NFIL3 -->
<g id="edge78" class="edge"><title>SP1&#45;&gt;NFIL3</title>
<a xlink:title="NFIL3: 0.018||remove4root">
<path fill="none" stroke="#eecaff" stroke-width="3" d="M216.783,-36.1413C179.809,-73.116 95.7404,-157.184 54.3821,-198.542"/>
<polygon fill="#eecaff" stroke="#eecaff" points="52.2776,-196.687 48.6007,-204.324 56.2375,-200.647 52.2776,-196.687"/>
</a>
</g>
<!-- SP1&#45;&gt;BHLHE40 -->
<g id="edge80" class="edge"><title>SP1&#45;&gt;BHLHE40</title>
<a xlink:title="BHLHE40: 0.511||remove11">
<path fill="none" stroke="#e3a8ff" stroke-width="3" d="M207.779,-33.6728C171.816,-54.4356 108.223,-91.151 67.7791,-114.501"/>
<polygon fill="#e3a8ff" stroke="#e3a8ff" points="66.2837,-112.132 60.7555,-118.557 69.0837,-116.981 66.2837,-112.132"/>
</a>
</g>
<!-- SP1&#45;&gt;SP1 -->
<g id="edge64" class="edge"><title>SP1&#45;&gt;SP1</title>
<a xlink:title="SP1: 0.288||remove11">
<path fill="none" stroke="#e8b7ff" stroke-width="3" d="M262.165,-24.7434C271.949,-24.8884 279.925,-22.6406 279.925,-18 279.925,-14.7371 275.981,-12.6571 270.239,-11.7601"/>
<polygon fill="#e8b7ff" stroke="#e8b7ff" points="270.324,-8.96005 262.165,-11.2566 269.976,-14.5492 270.324,-8.96005"/>
</a>
</g>
<!-- SP1&#45;&gt;OLIG2_NEUROD1_ATOH1 -->
<g id="edge82" class="edge"><title>SP1&#45;&gt;OLIG2_NEUROD1_ATOH1</title>
<a xlink:title="NEUROD1: 0.127||remove11">
<path fill="none" stroke="#ebc3ff" stroke-width="3" d="M261.938,-33.5962C265.036,-35.3846 268.237,-37.2327 271.446,-39.0859"/>
<polygon fill="#ebc3ff" stroke="#ebc3ff" points="270.122,-41.5544 278.45,-43.1296 272.922,-36.7047 270.122,-41.5544"/>
</a>
</g>
<!-- HIC2 -->
<g id="node43" class="node"><title>HIC2</title>
<a xlink:href="HIC2.svg" xlink:title="Z&#45;value: 1.161||remove17">
<polygon fill="#9da7ff" stroke="#9da7ff" stroke-width="2" points="367.949,-154.025 337.949,-154.025 325.949,-142.025 325.949,-130.025 337.949,-118.025 367.949,-118.025 379.949,-130.025 379.949,-142.025 367.949,-154.025"/>
<path fill="#9da7ff" stroke="#9da7ff" stroke-width="2" d="M337.949,-154.025C331.949,-154.025 325.949,-148.025 325.949,-142.025"/>
<path fill="#9da7ff" stroke="#9da7ff" stroke-width="2" d="M325.949,-130.025C325.949,-124.025 331.949,-118.025 337.949,-118.025"/>
<path fill="#9da7ff" stroke="#9da7ff" stroke-width="2" d="M367.949,-118.025C373.949,-118.025 379.949,-124.025 379.949,-130.025"/>
<path fill="#9da7ff" stroke="#9da7ff" stroke-width="2" d="M379.949,-142.025C379.949,-148.025 373.949,-154.025 367.949,-154.025"/>
<polyline fill="none" stroke="white" stroke-width="2" points="367.949,-154.025 337.949,-154.025 "/>
<path fill="none" stroke="white" stroke-width="2" d="M337.949,-154.025C331.949,-154.025 325.949,-148.025 325.949,-142.025"/>
<polyline fill="none" stroke="white" stroke-width="2" points="325.949,-142.025 325.949,-130.025 "/>
<path fill="none" stroke="white" stroke-width="2" d="M325.949,-130.025C325.949,-124.025 331.949,-118.025 337.949,-118.025"/>
<polyline fill="none" stroke="white" stroke-width="2" points="337.949,-118.025 367.949,-118.025 "/>
<path fill="none" stroke="white" stroke-width="2" d="M367.949,-118.025C373.949,-118.025 379.949,-124.025 379.949,-130.025"/>
<polyline fill="none" stroke="white" stroke-width="2" points="379.949,-130.025 379.949,-142.025 "/>
<path fill="none" stroke="white" stroke-width="2" d="M379.949,-142.025C379.949,-148.025 373.949,-154.025 367.949,-154.025"/>
<text text-anchor="middle" x="352.949" y="-133.525" font-family="Helvetica,sans-Serif" font-size="10.00">HIC2</text>
</a>
</g>
<!-- SP1&#45;&gt;HIC2 -->
<g id="edge62" class="edge"><title>SP1&#45;&gt;HIC2</title>
<a xlink:title="HIC2: 0.022||remove6root">
<path fill="none" stroke="#eecaff" stroke-width="3" d="M227.838,-36.0546C223.701,-49.7754 220.852,-68.5342 229.709,-82.08 249.104,-111.741 288.803,-125.192 317.923,-131.229"/>
<polygon fill="#eecaff" stroke="#eecaff" points="317.447,-133.988 325.831,-132.742 318.5,-128.488 317.447,-133.988"/>
</a>
</g>
<!-- OLIG2_NEUROD1_ATOH1&#45;&gt;ARNT -->
<g id="edge86" class="edge"><title>OLIG2_NEUROD1_ATOH1&#45;&gt;ARNT</title>
<a xlink:title="ARNT: 0.123||remove14root">
<path fill="none" stroke="#c3c9ff" stroke-width="3" d="M291.567,-79.3827C271.148,-99.8017 237.937,-133.013 215.48,-155.469"/>
<polygon fill="#c3c9ff" stroke="#c3c9ff" points="213.411,-153.578 209.734,-161.215 217.371,-157.538 213.411,-153.578"/>
</a>
</g>
<!-- HIC2&#45;&gt;ARNT -->
<g id="edge88" class="edge"><title>HIC2&#45;&gt;ARNT</title>
<a xlink:title="ARNT: 0.133||remove17root">
<path fill="none" stroke="#c2c8ff" stroke-width="3" d="M325.6,-143.353C298.418,-150.636 256.613,-161.838 226.958,-169.784"/>
<polygon fill="#c2c8ff" stroke="#c2c8ff" points="225.941,-167.157 218.939,-171.933 227.391,-172.567 225.941,-167.157"/>
</a>
</g>
<!-- HIC2&#45;&gt;RARG -->
<g id="edge90" class="edge"><title>HIC2&#45;&gt;RARG</title>
<a xlink:title="RARG: 0.041||remove7root">
<path fill="none" stroke="#edc9ff" stroke-width="3" d="M325.528,-126.342C299.882,-116.756 260.952,-100.825 229.709,-82.08 210.174,-70.3594 190.061,-54.5167 174.742,-41.5167"/>
<polygon fill="#edc9ff" stroke="#edc9ff" points="176.378,-39.2307 168.485,-36.1396 172.727,-43.4776 176.378,-39.2307"/>
</a>
</g>
<!-- HIC2&#45;&gt;FOXD1_FOXO1_FOXO6_FOXG1_FOXP1 -->
<g id="edge92" class="edge"><title>HIC2&#45;&gt;FOXD1_FOXO1_FOXO6_FOXG1_FOXP1</title>
<a xlink:title="FOXO6: 0.434||remove13">
<path fill="none" stroke="#e4adff" stroke-width="3" d="M341.04,-154.129C333.301,-166.849 323.75,-184.562 318.729,-201.545 311.97,-224.407 309.959,-251.557 309.5,-271.089"/>
<polygon fill="#e4adff" stroke="#e4adff" points="306.699,-271.184 309.389,-279.221 312.298,-271.261 306.699,-271.184"/>
</a>
</g>
<!-- HIC2&#45;&gt;ERG -->
<g id="edge94" class="edge"><title>HIC2&#45;&gt;ERG</title>
<a xlink:title="ERG: 0.572||remove15">
<path fill="none" stroke="#e1a3ff" stroke-width="3" d="M325.898,-149.931C287.827,-171.226 220.027,-215.894 192.589,-276.369 184.921,-293.271 183.002,-302.237 192.589,-318.129 194.734,-321.684 197.654,-324.702 200.966,-327.256"/>
<polygon fill="#e1a3ff" stroke="#e1a3ff" points="199.476,-329.627 207.715,-331.618 202.515,-324.924 199.476,-329.627"/>
</a>
</g>
</g>
</svg>
