<?xml version="1.0" encoding="UTF-8" standalone="no"?>
<!DOCTYPE svg PUBLIC "-//W3C//DTD SVG 1.1//EN"
 "http://www.w3.org/Graphics/SVG/1.1/DTD/svg11.dtd">
<!-- Generated by graphviz version 2.28.0 (20110630.0925)
 -->
<!-- Title: _anonymous_0 Pages: 1 -->
<svg width="476pt" height="389pt"
 viewBox="0.00 0.00 475.84 388.84" xmlns="http://www.w3.org/2000/svg" xmlns:xlink="http://www.w3.org/1999/xlink">
<g id="graph1" class="graph" transform="scale(1 1) rotate(0) translate(4 384.842)">
<title>_anonymous_0</title>
<polygon fill="white" stroke="white" points="-4,5 -4,-384.842 472.842,-384.842 472.842,5 -4,5"/>
<!-- ESRRA_ESR2 -->
<g id="node1" class="node"><title>ESRRA_ESR2</title>
<a xlink:href="ESRRA_ESR2.svg" xlink:title="Z&#45;value: 3.814||remove43">
<polygon fill="#3247ff" stroke="#3247ff" stroke-width="2" points="224.471,-380.842 165.971,-380.842 153.971,-368.842 153.971,-356.842 165.971,-344.842 224.471,-344.842 236.471,-356.842 236.471,-368.842 224.471,-380.842"/>
<path fill="#3247ff" stroke="#3247ff" stroke-width="2" d="M165.971,-380.842C159.971,-380.842 153.971,-374.842 153.971,-368.842"/>
<path fill="#3247ff" stroke="#3247ff" stroke-width="2" d="M153.971,-356.842C153.971,-350.842 159.971,-344.842 165.971,-344.842"/>
<path fill="#3247ff" stroke="#3247ff" stroke-width="2" d="M224.471,-344.842C230.471,-344.842 236.471,-350.842 236.471,-356.842"/>
<path fill="#3247ff" stroke="#3247ff" stroke-width="2" d="M236.471,-368.842C236.471,-374.842 230.471,-380.842 224.471,-380.842"/>
<polyline fill="none" stroke="white" stroke-width="2" points="224.471,-380.842 165.971,-380.842 "/>
<path fill="none" stroke="white" stroke-width="2" d="M165.971,-380.842C159.971,-380.842 153.971,-374.842 153.971,-368.842"/>
<polyline fill="none" stroke="white" stroke-width="2" points="153.971,-368.842 153.971,-356.842 "/>
<path fill="none" stroke="white" stroke-width="2" d="M153.971,-356.842C153.971,-350.842 159.971,-344.842 165.971,-344.842"/>
<polyline fill="none" stroke="white" stroke-width="2" points="165.971,-344.842 224.471,-344.842 "/>
<path fill="none" stroke="white" stroke-width="2" d="M224.471,-344.842C230.471,-344.842 236.471,-350.842 236.471,-356.842"/>
<polyline fill="none" stroke="white" stroke-width="2" points="236.471,-356.842 236.471,-368.842 "/>
<path fill="none" stroke="white" stroke-width="2" d="M236.471,-368.842C236.471,-374.842 230.471,-380.842 224.471,-380.842"/>
<text text-anchor="middle" x="195.221" y="-360.342" font-family="Helvetica,sans-Serif" font-size="10.00" fill="white">ESRRA_ESR2</text>
</a>
</g>
<!-- MEIS2 -->
<g id="node2" class="node"><title>MEIS2</title>
<a xlink:href="MEIS2.svg" xlink:title="Z&#45;value: 1.195||remove42">
<polygon fill="#9ca5ff" stroke="#9ca5ff" stroke-width="2" points="130.2,-334.642 100.2,-334.642 88.2,-322.642 88.2,-310.642 100.2,-298.642 130.2,-298.642 142.2,-310.642 142.2,-322.642 130.2,-334.642"/>
<path fill="#9ca5ff" stroke="#9ca5ff" stroke-width="2" d="M100.2,-334.642C94.2,-334.642 88.2,-328.642 88.2,-322.642"/>
<path fill="#9ca5ff" stroke="#9ca5ff" stroke-width="2" d="M88.2,-310.642C88.2,-304.642 94.2,-298.642 100.2,-298.642"/>
<path fill="#9ca5ff" stroke="#9ca5ff" stroke-width="2" d="M130.2,-298.642C136.2,-298.642 142.2,-304.642 142.2,-310.642"/>
<path fill="#9ca5ff" stroke="#9ca5ff" stroke-width="2" d="M142.2,-322.642C142.2,-328.642 136.2,-334.642 130.2,-334.642"/>
<polyline fill="none" stroke="white" stroke-width="2" points="130.2,-334.642 100.2,-334.642 "/>
<path fill="none" stroke="white" stroke-width="2" d="M100.2,-334.642C94.2,-334.642 88.2,-328.642 88.2,-322.642"/>
<polyline fill="none" stroke="white" stroke-width="2" points="88.2,-322.642 88.2,-310.642 "/>
<path fill="none" stroke="white" stroke-width="2" d="M88.2,-310.642C88.2,-304.642 94.2,-298.642 100.2,-298.642"/>
<polyline fill="none" stroke="white" stroke-width="2" points="100.2,-298.642 130.2,-298.642 "/>
<path fill="none" stroke="white" stroke-width="2" d="M130.2,-298.642C136.2,-298.642 142.2,-304.642 142.2,-310.642"/>
<polyline fill="none" stroke="white" stroke-width="2" points="142.2,-310.642 142.2,-322.642 "/>
<path fill="none" stroke="white" stroke-width="2" d="M142.2,-322.642C142.2,-328.642 136.2,-334.642 130.2,-334.642"/>
<text text-anchor="middle" x="115.2" y="-314.142" font-family="Helvetica,sans-Serif" font-size="10.00">MEIS2</text>
</a>
</g>
<!-- ESRRA_ESR2&#45;&gt;MEIS2 -->
<g id="edge2" class="edge"><title>ESRRA_ESR2&#45;&gt;MEIS2</title>
<a xlink:title="MEIS2: 0.018||remove4root">
<path fill="none" stroke="#eecbff" stroke-width="3" d="M163.594,-344.582C158.95,-341.901 154.148,-339.128 149.454,-336.418"/>
<polygon fill="#eecbff" stroke="#eecbff" points="150.532,-333.808 142.204,-332.232 147.732,-338.657 150.532,-333.808"/>
</a>
</g>
<!-- BATF -->
<g id="node4" class="node"><title>BATF</title>
<a xlink:href="BATF.svg" xlink:title="Z&#45;value: 1.213||remove44">
<polygon fill="#ff9b9b" stroke="#ff9b9b" stroke-width="2" points="256.421,-208.421 226.421,-208.421 214.421,-196.421 214.421,-184.421 226.421,-172.421 256.421,-172.421 268.421,-184.421 268.421,-196.421 256.421,-208.421"/>
<path fill="#ff9b9b" stroke="#ff9b9b" stroke-width="2" d="M226.421,-208.421C220.421,-208.421 214.421,-202.421 214.421,-196.421"/>
<path fill="#ff9b9b" stroke="#ff9b9b" stroke-width="2" d="M214.421,-184.421C214.421,-178.421 220.421,-172.421 226.421,-172.421"/>
<path fill="#ff9b9b" stroke="#ff9b9b" stroke-width="2" d="M256.421,-172.421C262.421,-172.421 268.421,-178.421 268.421,-184.421"/>
<path fill="#ff9b9b" stroke="#ff9b9b" stroke-width="2" d="M268.421,-196.421C268.421,-202.421 262.421,-208.421 256.421,-208.421"/>
<polyline fill="none" stroke="white" stroke-width="2" points="256.421,-208.421 226.421,-208.421 "/>
<path fill="none" stroke="white" stroke-width="2" d="M226.421,-208.421C220.421,-208.421 214.421,-202.421 214.421,-196.421"/>
<polyline fill="none" stroke="white" stroke-width="2" points="214.421,-196.421 214.421,-184.421 "/>
<path fill="none" stroke="white" stroke-width="2" d="M214.421,-184.421C214.421,-178.421 220.421,-172.421 226.421,-172.421"/>
<polyline fill="none" stroke="white" stroke-width="2" points="226.421,-172.421 256.421,-172.421 "/>
<path fill="none" stroke="white" stroke-width="2" d="M256.421,-172.421C262.421,-172.421 268.421,-178.421 268.421,-184.421"/>
<polyline fill="none" stroke="white" stroke-width="2" points="268.421,-184.421 268.421,-196.421 "/>
<path fill="none" stroke="white" stroke-width="2" d="M268.421,-196.421C268.421,-202.421 262.421,-208.421 256.421,-208.421"/>
<text text-anchor="middle" x="241.421" y="-187.921" font-family="Helvetica,sans-Serif" font-size="10.00">BATF</text>
</a>
</g>
<!-- ESRRA_ESR2&#45;&gt;BATF -->
<g id="edge4" class="edge"><title>ESRRA_ESR2&#45;&gt;BATF</title>
<a xlink:title="BATF: 2.037||remove43root">
<path fill="none" stroke="#5b6cff" stroke-width="3" d="M200.078,-344.715C208.292,-314.058 224.957,-251.864 234.428,-216.516"/>
<polygon fill="#5b6cff" stroke="#5b6cff" points="237.194,-217.015 236.56,-208.563 231.784,-215.565 237.194,-217.015"/>
</a>
</g>
<!-- ID4_TCF4_SNAI2 -->
<g id="node6" class="node"><title>ID4_TCF4_SNAI2</title>
<a xlink:href="ID4_TCF4_SNAI2.svg" xlink:title="Z&#45;value: 1.966||remove40">
<polygon fill="#7d8aff" stroke="#7d8aff" stroke-width="2" points="105.25,-254.621 32.75,-254.621 20.75,-242.621 20.75,-230.621 32.75,-218.621 105.25,-218.621 117.25,-230.621 117.25,-242.621 105.25,-254.621"/>
<path fill="#7d8aff" stroke="#7d8aff" stroke-width="2" d="M32.75,-254.621C26.75,-254.621 20.75,-248.621 20.75,-242.621"/>
<path fill="#7d8aff" stroke="#7d8aff" stroke-width="2" d="M20.75,-230.621C20.75,-224.621 26.75,-218.621 32.75,-218.621"/>
<path fill="#7d8aff" stroke="#7d8aff" stroke-width="2" d="M105.25,-218.621C111.25,-218.621 117.25,-224.621 117.25,-230.621"/>
<path fill="#7d8aff" stroke="#7d8aff" stroke-width="2" d="M117.25,-242.621C117.25,-248.621 111.25,-254.621 105.25,-254.621"/>
<polyline fill="none" stroke="white" stroke-width="2" points="105.25,-254.621 32.75,-254.621 "/>
<path fill="none" stroke="white" stroke-width="2" d="M32.75,-254.621C26.75,-254.621 20.75,-248.621 20.75,-242.621"/>
<polyline fill="none" stroke="white" stroke-width="2" points="20.75,-242.621 20.75,-230.621 "/>
<path fill="none" stroke="white" stroke-width="2" d="M20.75,-230.621C20.75,-224.621 26.75,-218.621 32.75,-218.621"/>
<polyline fill="none" stroke="white" stroke-width="2" points="32.75,-218.621 105.25,-218.621 "/>
<path fill="none" stroke="white" stroke-width="2" d="M105.25,-218.621C111.25,-218.621 117.25,-224.621 117.25,-230.621"/>
<polyline fill="none" stroke="white" stroke-width="2" points="117.25,-230.621 117.25,-242.621 "/>
<path fill="none" stroke="white" stroke-width="2" d="M117.25,-242.621C117.25,-248.621 111.25,-254.621 105.25,-254.621"/>
<text text-anchor="middle" x="69" y="-234.121" font-family="Helvetica,sans-Serif" font-size="10.00">ID4_TCF4_SNAI2</text>
</a>
</g>
<!-- ESRRA_ESR2&#45;&gt;ID4_TCF4_SNAI2 -->
<g id="edge6" class="edge"><title>ESRRA_ESR2&#45;&gt;ID4_TCF4_SNAI2</title>
<a xlink:title="SNAI2: 0.628||TCF4: 0.188||ESRRA: 0.115||remove30root">
<path fill="none" stroke="#e3a9ff" stroke-width="3" d="M178.669,-338.209C169.842,-325.046 158.1,-309.037 145.805,-296.46 132.99,-283.327 116.999,-270.63 102.934,-260.439"/>
<path fill="none" stroke="#ecc5ff" stroke-width="3" d="M180.33,-337.096C171.455,-323.863 159.713,-307.854 147.235,-295.063 134.234,-281.76 118.242,-269.064 104.107,-258.819"/>
<polygon fill="#ecc5ff" stroke="#ecc5ff" points="177.369,-339.51 184.104,-344.656 182.048,-336.433 177.369,-339.51"/>
<polygon fill="#e3a9ff" stroke="#e3a9ff" points="104.913,-257.183 96.7725,-254.821 101.663,-261.744 104.913,-257.183"/>
</a>
</g>
<!-- ZNF711_TFAP2A_TFAP2D -->
<g id="node8" class="node"><title>ZNF711_TFAP2A_TFAP2D</title>
<a xlink:href="ZNF711_TFAP2A_TFAP2D.svg" xlink:title="Z&#45;value: 2.387||remove38">
<polygon fill="#6c7aff" stroke="#6c7aff" stroke-width="2" points="126,-162.221 12,-162.221 -2.84217e-14,-150.221 -2.84217e-14,-138.221 12,-126.221 126,-126.221 138,-138.221 138,-150.221 126,-162.221"/>
<path fill="#6c7aff" stroke="#6c7aff" stroke-width="2" d="M12,-162.221C6,-162.221 -2.84217e-14,-156.221 -2.84217e-14,-150.221"/>
<path fill="#6c7aff" stroke="#6c7aff" stroke-width="2" d="M-2.84217e-14,-138.221C-2.84217e-14,-132.221 6,-126.221 12,-126.221"/>
<path fill="#6c7aff" stroke="#6c7aff" stroke-width="2" d="M126,-126.221C132,-126.221 138,-132.221 138,-138.221"/>
<path fill="#6c7aff" stroke="#6c7aff" stroke-width="2" d="M138,-150.221C138,-156.221 132,-162.221 126,-162.221"/>
<polyline fill="none" stroke="white" stroke-width="2" points="126,-162.221 12,-162.221 "/>
<path fill="none" stroke="white" stroke-width="2" d="M12,-162.221C6,-162.221 -2.84217e-14,-156.221 -2.84217e-14,-150.221"/>
<polyline fill="none" stroke="white" stroke-width="2" points="-2.84217e-14,-150.221 -2.84217e-14,-138.221 "/>
<path fill="none" stroke="white" stroke-width="2" d="M-2.84217e-14,-138.221C-2.84217e-14,-132.221 6,-126.221 12,-126.221"/>
<polyline fill="none" stroke="white" stroke-width="2" points="12,-126.221 126,-126.221 "/>
<path fill="none" stroke="white" stroke-width="2" d="M126,-126.221C132,-126.221 138,-132.221 138,-138.221"/>
<polyline fill="none" stroke="white" stroke-width="2" points="138,-138.221 138,-150.221 "/>
<path fill="none" stroke="white" stroke-width="2" d="M138,-150.221C138,-156.221 132,-162.221 126,-162.221"/>
<text text-anchor="middle" x="69" y="-141.721" font-family="Helvetica,sans-Serif" font-size="10.00" fill="white">ZNF711_TFAP2A_TFAP2D</text>
</a>
</g>
<!-- ESRRA_ESR2&#45;&gt;ZNF711_TFAP2A_TFAP2D -->
<g id="edge8" class="edge"><title>ESRRA_ESR2&#45;&gt;ZNF711_TFAP2A_TFAP2D</title>
<a xlink:title="TFAP2A: 0.583||ZNF711: 0.025||ESRRA: 0.732||ESR2: 0.005||remove32root">
<path fill="none" stroke="#e4abff" stroke-width="3" d="M184.054,-337.331C171.689,-307.243 149.387,-256.513 124.41,-216.268 114.238,-199.858 100.864,-182.719 89.7447,-169.38"/>
<path fill="none" stroke="#e1a3ff" stroke-width="3" d="M185.904,-336.571C173.52,-306.438 151.218,-255.708 126.11,-215.214 115.814,-198.628 102.441,-181.488 91.281,-168.1"/>
<polygon fill="#e1a3ff" stroke="#e1a3ff" points="182.445,-338.152 188.054,-344.507 187.632,-336.042 182.445,-338.152"/>
<polygon fill="#e4abff" stroke="#e4abff" points="92.5472,-166.809 85.247,-162.502 88.2681,-170.422 92.5472,-166.809"/>
</a>
</g>
<!-- GATA6 -->
<g id="node10" class="node"><title>GATA6</title>
<a xlink:href="GATA6.svg" xlink:title="Z&#45;value: 0.379||remove28">
<polygon fill="#bcc3ff" stroke="#bcc3ff" stroke-width="2" points="130.2,-82.2 100.2,-82.2 88.2,-70.2 88.2,-58.2 100.2,-46.2 130.2,-46.2 142.2,-58.2 142.2,-70.2 130.2,-82.2"/>
<path fill="#bcc3ff" stroke="#bcc3ff" stroke-width="2" d="M100.2,-82.2C94.2,-82.2 88.2,-76.2 88.2,-70.2"/>
<path fill="#bcc3ff" stroke="#bcc3ff" stroke-width="2" d="M88.2,-58.2C88.2,-52.2 94.2,-46.2 100.2,-46.2"/>
<path fill="#bcc3ff" stroke="#bcc3ff" stroke-width="2" d="M130.2,-46.2C136.2,-46.2 142.2,-52.2 142.2,-58.2"/>
<path fill="#bcc3ff" stroke="#bcc3ff" stroke-width="2" d="M142.2,-70.2C142.2,-76.2 136.2,-82.2 130.2,-82.2"/>
<polyline fill="none" stroke="white" stroke-width="2" points="130.2,-82.2 100.2,-82.2 "/>
<path fill="none" stroke="white" stroke-width="2" d="M100.2,-82.2C94.2,-82.2 88.2,-76.2 88.2,-70.2"/>
<polyline fill="none" stroke="white" stroke-width="2" points="88.2,-70.2 88.2,-58.2 "/>
<path fill="none" stroke="white" stroke-width="2" d="M88.2,-58.2C88.2,-52.2 94.2,-46.2 100.2,-46.2"/>
<polyline fill="none" stroke="white" stroke-width="2" points="100.2,-46.2 130.2,-46.2 "/>
<path fill="none" stroke="white" stroke-width="2" d="M130.2,-46.2C136.2,-46.2 142.2,-52.2 142.2,-58.2"/>
<polyline fill="none" stroke="white" stroke-width="2" points="142.2,-58.2 142.2,-70.2 "/>
<path fill="none" stroke="white" stroke-width="2" d="M142.2,-70.2C142.2,-76.2 136.2,-82.2 130.2,-82.2"/>
<text text-anchor="middle" x="115.2" y="-61.7" font-family="Helvetica,sans-Serif" font-size="10.00">GATA6</text>
</a>
</g>
<!-- ESRRA_ESR2&#45;&gt;GATA6 -->
<g id="edge10" class="edge"><title>ESRRA_ESR2&#45;&gt;GATA6</title>
<a xlink:title="GATA6: 0.330||remove24root">
<path fill="none" stroke="#e8b9ff" stroke-width="3" d="M193.758,-344.568C190.051,-303.754 178.413,-202.55 149.04,-123.341 144.704,-111.649 138.201,-99.558 132.051,-89.3792"/>
<polygon fill="#e8b9ff" stroke="#e8b9ff" points="134.275,-87.6524 127.671,-82.3385 129.52,-90.6104 134.275,-87.6524"/>
</a>
</g>
<!-- SMAD3 -->
<g id="node12" class="node"><title>SMAD3</title>
<a xlink:href="SMAD3.svg" xlink:title="Z&#45;value: 0.374||remove37">
<polygon fill="#bdc3ff" stroke="#bdc3ff" stroke-width="2" points="428.842,-254.621 398.842,-254.621 386.842,-242.621 386.842,-230.621 398.842,-218.621 428.842,-218.621 440.842,-230.621 440.842,-242.621 428.842,-254.621"/>
<path fill="#bdc3ff" stroke="#bdc3ff" stroke-width="2" d="M398.842,-254.621C392.842,-254.621 386.842,-248.621 386.842,-242.621"/>
<path fill="#bdc3ff" stroke="#bdc3ff" stroke-width="2" d="M386.842,-230.621C386.842,-224.621 392.842,-218.621 398.842,-218.621"/>
<path fill="#bdc3ff" stroke="#bdc3ff" stroke-width="2" d="M428.842,-218.621C434.842,-218.621 440.842,-224.621 440.842,-230.621"/>
<path fill="#bdc3ff" stroke="#bdc3ff" stroke-width="2" d="M440.842,-242.621C440.842,-248.621 434.842,-254.621 428.842,-254.621"/>
<polyline fill="none" stroke="white" stroke-width="2" points="428.842,-254.621 398.842,-254.621 "/>
<path fill="none" stroke="white" stroke-width="2" d="M398.842,-254.621C392.842,-254.621 386.842,-248.621 386.842,-242.621"/>
<polyline fill="none" stroke="white" stroke-width="2" points="386.842,-242.621 386.842,-230.621 "/>
<path fill="none" stroke="white" stroke-width="2" d="M386.842,-230.621C386.842,-224.621 392.842,-218.621 398.842,-218.621"/>
<polyline fill="none" stroke="white" stroke-width="2" points="398.842,-218.621 428.842,-218.621 "/>
<path fill="none" stroke="white" stroke-width="2" d="M428.842,-218.621C434.842,-218.621 440.842,-224.621 440.842,-230.621"/>
<polyline fill="none" stroke="white" stroke-width="2" points="440.842,-230.621 440.842,-242.621 "/>
<path fill="none" stroke="white" stroke-width="2" d="M440.842,-242.621C440.842,-248.621 434.842,-254.621 428.842,-254.621"/>
<text text-anchor="middle" x="413.842" y="-234.121" font-family="Helvetica,sans-Serif" font-size="10.00">SMAD3</text>
</a>
</g>
<!-- ESRRA_ESR2&#45;&gt;SMAD3 -->
<g id="edge12" class="edge"><title>ESRRA_ESR2&#45;&gt;SMAD3</title>
<a xlink:title="SMAD3: 2.777||remove37">
<path fill="none" stroke="#bd32ff" stroke-width="3" d="M226.544,-344.757C267.17,-321.302 337.785,-280.532 379.731,-256.314"/>
<polygon fill="#bd32ff" stroke="#bd32ff" points="381.184,-258.709 386.712,-252.284 378.384,-253.859 381.184,-258.709"/>
</a>
</g>
<!-- MEIS2&#45;&gt;BATF -->
<g id="edge46" class="edge"><title>MEIS2&#45;&gt;BATF</title>
<a xlink:title="BATF: 1.415||remove42root">
<path fill="none" stroke="#7e8aff" stroke-width="3" d="M133.284,-298.557C155.404,-276.437 192.923,-238.919 217.435,-214.406"/>
<polygon fill="#7e8aff" stroke="#7e8aff" points="219.693,-216.108 223.37,-208.472 215.733,-212.149 219.693,-216.108"/>
</a>
</g>
<!-- MEIS2&#45;&gt;ID4_TCF4_SNAI2 -->
<g id="edge48" class="edge"><title>MEIS2&#45;&gt;ID4_TCF4_SNAI2</title>
<a xlink:title="TCF4: 0.230||SNAI2: 0.169||remove22root">
<path fill="none" stroke="#eabfff" stroke-width="3" d="M104.717,-298.484C98.4551,-287.639 90.4098,-273.704 83.5406,-261.806"/>
<polygon fill="#eabfff" stroke="#eabfff" points="85.8669,-260.235 79.442,-254.707 81.0172,-263.035 85.8669,-260.235"/>
</a>
</g>
<!-- MEIS2&#45;&gt;ZNF711_TFAP2A_TFAP2D -->
<g id="edge50" class="edge"><title>MEIS2&#45;&gt;ZNF711_TFAP2A_TFAP2D</title>
<a xlink:title="TFAP2A: 0.184||remove20root">
<path fill="none" stroke="#ebc1ff" stroke-width="3" d="M121.49,-298.608C127.666,-277.996 134.877,-243.522 125.26,-215.741 119.087,-197.908 106.425,-181.145 94.6743,-168.337"/>
<polygon fill="#ebc1ff" stroke="#ebc1ff" points="96.5525,-166.249 89.0113,-162.379 92.4936,-170.107 96.5525,-166.249"/>
</a>
</g>
<!-- MEIS2&#45;&gt;SMAD3 -->
<g id="edge52" class="edge"><title>MEIS2&#45;&gt;SMAD3</title>
<a xlink:title="SMAD3: 0.486||remove26root">
<path fill="none" stroke="#e6b1ff" stroke-width="3" d="M142.229,-309.399C196.396,-294.885 318.202,-262.247 378.562,-246.074"/>
<polygon fill="#e6b1ff" stroke="#e6b1ff" points="379.656,-248.68 386.658,-243.904 378.206,-243.271 379.656,-248.68"/>
</a>
</g>
<!-- NFKB1 -->
<g id="node14" class="node"><title>NFKB1</title>
<a xlink:href="NFKB1.svg" xlink:title="Z&#45;value: 0.679||remove39">
<polygon fill="#b0b8ff" stroke="#b0b8ff" stroke-width="2" points="210.221,-36 180.221,-36 168.221,-24 168.221,-12 180.221,-6.39488e-14 210.221,-6.39488e-14 222.221,-12 222.221,-24 210.221,-36"/>
<path fill="#b0b8ff" stroke="#b0b8ff" stroke-width="2" d="M180.221,-36C174.221,-36 168.221,-30 168.221,-24"/>
<path fill="#b0b8ff" stroke="#b0b8ff" stroke-width="2" d="M168.221,-12C168.221,-6 174.221,-6.39488e-14 180.221,-6.39488e-14"/>
<path fill="#b0b8ff" stroke="#b0b8ff" stroke-width="2" d="M210.221,-6.39488e-14C216.221,-6.39488e-14 222.221,-6 222.221,-12"/>
<path fill="#b0b8ff" stroke="#b0b8ff" stroke-width="2" d="M222.221,-24C222.221,-30 216.221,-36 210.221,-36"/>
<polyline fill="none" stroke="white" stroke-width="2" points="210.221,-36 180.221,-36 "/>
<path fill="none" stroke="white" stroke-width="2" d="M180.221,-36C174.221,-36 168.221,-30 168.221,-24"/>
<polyline fill="none" stroke="white" stroke-width="2" points="168.221,-24 168.221,-12 "/>
<path fill="none" stroke="white" stroke-width="2" d="M168.221,-12C168.221,-6 174.221,-6.39488e-14 180.221,-6.39488e-14"/>
<polyline fill="none" stroke="white" stroke-width="2" points="180.221,-6.39488e-14 210.221,-6.39488e-14 "/>
<path fill="none" stroke="white" stroke-width="2" d="M210.221,-6.39488e-14C216.221,-6.39488e-14 222.221,-6 222.221,-12"/>
<polyline fill="none" stroke="white" stroke-width="2" points="222.221,-12 222.221,-24 "/>
<path fill="none" stroke="white" stroke-width="2" d="M222.221,-24C222.221,-30 216.221,-36 210.221,-36"/>
<text text-anchor="middle" x="195.221" y="-15.5" font-family="Helvetica,sans-Serif" font-size="10.00">NFKB1</text>
</a>
</g>
<!-- MEIS2&#45;&gt;NFKB1 -->
<g id="edge44" class="edge"><title>MEIS2&#45;&gt;NFKB1</title>
<a xlink:title="NFKB1: 0.183||remove19root">
<path fill="none" stroke="#ebc1ff" stroke-width="3" d="M120.085,-298.41C133.729,-247.489 172.282,-103.608 188.206,-44.1793"/>
<polygon fill="#ebc1ff" stroke="#ebc1ff" points="190.932,-44.8248 190.298,-36.3727 185.523,-43.3754 190.932,-44.8248"/>
</a>
</g>
<!-- BATF&#45;&gt;SMAD3 -->
<g id="edge58" class="edge"><title>BATF&#45;&gt;SMAD3</title>
<a xlink:title="SMAD3: 0.881||remove37root">
<path fill="none" stroke="#ff9b9b" stroke-width="3" d="M268.741,-197.741C298.504,-205.716 346.205,-218.498 378.728,-227.212"/>
<polygon fill="#ff9b9b" stroke="#ff9b9b" points="378.197,-229.968 386.649,-229.334 379.646,-224.559 378.197,-229.968"/>
</a>
</g>
<!-- BHLHE40 -->
<g id="node16" class="node"><title>BHLHE40</title>
<a xlink:href="BHLHE40.svg" xlink:title="Z&#45;value: 0.505||remove29">
<polygon fill="#b7beff" stroke="#b7beff" stroke-width="2" points="385.892,-334.642 349.392,-334.642 337.392,-322.642 337.392,-310.642 349.392,-298.642 385.892,-298.642 397.892,-310.642 397.892,-322.642 385.892,-334.642"/>
<path fill="#b7beff" stroke="#b7beff" stroke-width="2" d="M349.392,-334.642C343.392,-334.642 337.392,-328.642 337.392,-322.642"/>
<path fill="#b7beff" stroke="#b7beff" stroke-width="2" d="M337.392,-310.642C337.392,-304.642 343.392,-298.642 349.392,-298.642"/>
<path fill="#b7beff" stroke="#b7beff" stroke-width="2" d="M385.892,-298.642C391.892,-298.642 397.892,-304.642 397.892,-310.642"/>
<path fill="#b7beff" stroke="#b7beff" stroke-width="2" d="M397.892,-322.642C397.892,-328.642 391.892,-334.642 385.892,-334.642"/>
<polyline fill="none" stroke="white" stroke-width="2" points="385.892,-334.642 349.392,-334.642 "/>
<path fill="none" stroke="white" stroke-width="2" d="M349.392,-334.642C343.392,-334.642 337.392,-328.642 337.392,-322.642"/>
<polyline fill="none" stroke="white" stroke-width="2" points="337.392,-322.642 337.392,-310.642 "/>
<path fill="none" stroke="white" stroke-width="2" d="M337.392,-310.642C337.392,-304.642 343.392,-298.642 349.392,-298.642"/>
<polyline fill="none" stroke="white" stroke-width="2" points="349.392,-298.642 385.892,-298.642 "/>
<path fill="none" stroke="white" stroke-width="2" d="M385.892,-298.642C391.892,-298.642 397.892,-304.642 397.892,-310.642"/>
<polyline fill="none" stroke="white" stroke-width="2" points="397.892,-310.642 397.892,-322.642 "/>
<path fill="none" stroke="white" stroke-width="2" d="M397.892,-322.642C397.892,-328.642 391.892,-334.642 385.892,-334.642"/>
<text text-anchor="middle" x="367.642" y="-314.142" font-family="Helvetica,sans-Serif" font-size="10.00">BHLHE40</text>
</a>
</g>
<!-- BATF&#45;&gt;BHLHE40 -->
<g id="edge54" class="edge"><title>BATF&#45;&gt;BHLHE40</title>
<a xlink:title="BHLHE40: 0.542||remove29root">
<path fill="none" stroke="#ffaeae" stroke-width="3" d="M259.505,-208.505C281.625,-230.625 319.143,-268.143 343.656,-292.656"/>
<polygon fill="#ffaeae" stroke="#ffaeae" points="341.954,-294.914 349.591,-298.591 345.914,-290.954 341.954,-294.914"/>
</a>
</g>
<!-- ETV4_ETS2 -->
<g id="node22" class="node"><title>ETV4_ETS2</title>
<a xlink:href="ETV4_ETS2.svg" xlink:title="Z&#45;value: 0.872||remove34">
<polygon fill="#a9b1ff" stroke="#a9b1ff" stroke-width="2" points="310.871,-380.842 264.371,-380.842 252.371,-368.842 252.371,-356.842 264.371,-344.842 310.871,-344.842 322.871,-356.842 322.871,-368.842 310.871,-380.842"/>
<path fill="#a9b1ff" stroke="#a9b1ff" stroke-width="2" d="M264.371,-380.842C258.371,-380.842 252.371,-374.842 252.371,-368.842"/>
<path fill="#a9b1ff" stroke="#a9b1ff" stroke-width="2" d="M252.371,-356.842C252.371,-350.842 258.371,-344.842 264.371,-344.842"/>
<path fill="#a9b1ff" stroke="#a9b1ff" stroke-width="2" d="M310.871,-344.842C316.871,-344.842 322.871,-350.842 322.871,-356.842"/>
<path fill="#a9b1ff" stroke="#a9b1ff" stroke-width="2" d="M322.871,-368.842C322.871,-374.842 316.871,-380.842 310.871,-380.842"/>
<polyline fill="none" stroke="white" stroke-width="2" points="310.871,-380.842 264.371,-380.842 "/>
<path fill="none" stroke="white" stroke-width="2" d="M264.371,-380.842C258.371,-380.842 252.371,-374.842 252.371,-368.842"/>
<polyline fill="none" stroke="white" stroke-width="2" points="252.371,-368.842 252.371,-356.842 "/>
<path fill="none" stroke="white" stroke-width="2" d="M252.371,-356.842C252.371,-350.842 258.371,-344.842 264.371,-344.842"/>
<polyline fill="none" stroke="white" stroke-width="2" points="264.371,-344.842 310.871,-344.842 "/>
<path fill="none" stroke="white" stroke-width="2" d="M310.871,-344.842C316.871,-344.842 322.871,-350.842 322.871,-356.842"/>
<polyline fill="none" stroke="white" stroke-width="2" points="322.871,-356.842 322.871,-368.842 "/>
<path fill="none" stroke="white" stroke-width="2" d="M322.871,-368.842C322.871,-374.842 316.871,-380.842 310.871,-380.842"/>
<text text-anchor="middle" x="287.621" y="-360.342" font-family="Helvetica,sans-Serif" font-size="10.00">ETV4_ETS2</text>
</a>
</g>
<!-- BATF&#45;&gt;ETV4_ETS2 -->
<g id="edge56" class="edge"><title>BATF&#45;&gt;ETV4_ETS2</title>
<a xlink:title="ETV4: 0.028||BATF: 0.749||remove34root">
<path fill="none" stroke="#ffcaca" stroke-width="3" d="M249.374,-216.239C258.103,-248.817 272.948,-304.219 281.652,-336.703"/>
<path fill="none" stroke="#a2abff" stroke-width="3" d="M247.442,-216.757C256.171,-249.335 271.016,-304.736 279.721,-337.221"/>
<polygon fill="#a2abff" stroke="#a2abff" points="251.053,-215.55 246.278,-208.547 245.644,-216.999 251.053,-215.55"/>
<polygon fill="#ffcaca" stroke="#ffcaca" points="277.984,-337.697 282.76,-344.699 283.394,-336.247 277.984,-337.697"/>
</a>
</g>
<!-- ID4_TCF4_SNAI2&#45;&gt;BATF -->
<g id="edge36" class="edge"><title>ID4_TCF4_SNAI2&#45;&gt;BATF</title>
<a xlink:title="BATF: 1.224||TCF4: 0.069||remove40root">
<path fill="none" stroke="#8894ff" stroke-width="3" d="M125.08,-220.559C151.753,-213.412 182.779,-205.098 206.042,-198.865"/>
<path fill="none" stroke="#ffc8c8" stroke-width="3" d="M125.598,-222.491C152.271,-215.344 183.297,-207.03 206.559,-200.797"/>
<polygon fill="#ffc8c8" stroke="#ffc8c8" points="124.49,-218.853 117.488,-223.629 125.94,-224.263 124.49,-218.853"/>
<polygon fill="#8894ff" stroke="#8894ff" points="207.182,-202.494 214.185,-197.719 205.733,-197.085 207.182,-202.494"/>
</a>
</g>
<!-- ID4_TCF4_SNAI2&#45;&gt;ID4_TCF4_SNAI2 -->
<g id="edge38" class="edge"><title>ID4_TCF4_SNAI2&#45;&gt;ID4_TCF4_SNAI2</title>
<a xlink:title="SNAI2: 0.300||TCF4: 0.041||remove23root">
<path fill="none" stroke="#e9bbff" stroke-width="3" d="M117.348,-243.153C127.598,-242.49 135,-240.312 135,-236.621 135,-234.025 131.341,-232.178 125.605,-231.08"/>
<polygon fill="#e9bbff" stroke="#e9bbff" points="125.625,-228.262 117.348,-230.089 124.957,-233.822 125.625,-228.262"/>
</a>
</g>
<!-- ID4_TCF4_SNAI2&#45;&gt;SMAD3 -->
<g id="edge42" class="edge"><title>ID4_TCF4_SNAI2&#45;&gt;SMAD3</title>
<a xlink:title="SMAD3: 0.484||remove25root">
<path fill="none" stroke="#e6b1ff" stroke-width="3" d="M117.312,-236.621C187.595,-236.621 316.405,-236.621 378.512,-236.621"/>
<polygon fill="#e6b1ff" stroke="#e6b1ff" points="378.82,-239.421 386.82,-236.621 378.82,-233.821 378.82,-239.421"/>
</a>
</g>
<!-- ID4_TCF4_SNAI2&#45;&gt;BHLHE40 -->
<g id="edge34" class="edge"><title>ID4_TCF4_SNAI2&#45;&gt;BHLHE40</title>
<a xlink:title="BHLHE40: 1.078||remove29">
<path fill="none" stroke="#db90ff" stroke-width="3" d="M117.314,-249.566C176.354,-265.386 275.054,-291.833 329.201,-306.341"/>
<polygon fill="#db90ff" stroke="#db90ff" points="328.724,-309.112 337.176,-308.478 330.174,-303.703 328.724,-309.112"/>
</a>
</g>
<!-- ID4_TCF4_SNAI2&#45;&gt;ETV4_ETS2 -->
<g id="edge40" class="edge"><title>ID4_TCF4_SNAI2&#45;&gt;ETV4_ETS2</title>
<a xlink:title="ETV4: 0.044||ETS2: 0.040||TCF4: 0.133||SNAI2: 0.105||remove15root">
<path fill="none" stroke="#edc9ff" stroke-width="3" d="M107.913,-257.932C147.785,-280.953 209.792,-316.752 249.676,-339.78"/>
<path fill="none" stroke="#ecc4ff" stroke-width="3" d="M106.913,-259.664C146.785,-282.685 208.792,-318.484 248.676,-341.512"/>
<polygon fill="#ecc4ff" stroke="#ecc4ff" points="108.651,-256.28 100.323,-254.705 105.851,-261.13 108.651,-256.28"/>
<polygon fill="#edc9ff" stroke="#edc9ff" points="248.028,-343.216 256.356,-344.791 250.828,-338.366 248.028,-343.216"/>
</a>
</g>
<!-- ZNF711_TFAP2A_TFAP2D&#45;&gt;BATF -->
<g id="edge20" class="edge"><title>ZNF711_TFAP2A_TFAP2D&#45;&gt;BATF</title>
<a xlink:title="BATF: 0.956||remove38root">
<path fill="none" stroke="#97a1ff" stroke-width="3" d="M136.65,-162.348C160.531,-168.747 186.407,-175.68 206.469,-181.055"/>
<polygon fill="#97a1ff" stroke="#97a1ff" points="205.957,-183.817 214.409,-183.183 207.406,-178.408 205.957,-183.817"/>
</a>
</g>
<!-- ZNF711_TFAP2A_TFAP2D&#45;&gt;ID4_TCF4_SNAI2 -->
<g id="edge22" class="edge"><title>ZNF711_TFAP2A_TFAP2D&#45;&gt;ID4_TCF4_SNAI2</title>
<a xlink:title="TCF4: 0.093||SNAI2: 0.069||TFAP2A: 0.750||remove35root">
<path fill="none" stroke="#edc6ff" stroke-width="3" d="M70,-170.551C70,-182.983 70,-197.787 70,-210.227"/>
<path fill="none" stroke="#e1a2ff" stroke-width="3" d="M68,-170.551C68,-182.983 68,-197.787 68,-210.227"/>
<polygon fill="#e1a2ff" stroke="#e1a2ff" points="71.8001,-170.476 69,-162.476 66.2001,-170.476 71.8001,-170.476"/>
<polygon fill="#edc6ff" stroke="#edc6ff" points="66.2001,-210.403 69,-218.403 71.8001,-210.403 66.2001,-210.403"/>
</a>
</g>
<!-- ZNF711_TFAP2A_TFAP2D&#45;&gt;ZNF711_TFAP2A_TFAP2D -->
<g id="edge26" class="edge"><title>ZNF711_TFAP2A_TFAP2D&#45;&gt;ZNF711_TFAP2A_TFAP2D</title>
<a xlink:title="TFAP2A: 0.506||ZNF711: 0.089||remove27root">
<path fill="none" stroke="#e5b0ff" stroke-width="3" d="M138.275,-150.376C148.831,-149.437 156,-147.385 156,-144.221 156,-141.947 152.297,-140.247 146.294,-139.122"/>
<polygon fill="#e5b0ff" stroke="#e5b0ff" points="146.572,-136.335 138.275,-138.066 145.84,-141.887 146.572,-136.335"/>
</a>
</g>
<!-- ZNF711_TFAP2A_TFAP2D&#45;&gt;GATA6 -->
<g id="edge28" class="edge"><title>ZNF711_TFAP2A_TFAP2D&#45;&gt;GATA6</title>
<a xlink:title="GATA6: 0.621||remove28">
<path fill="none" stroke="#e3a9ff" stroke-width="3" d="M79.4835,-126.063C85.7449,-115.218 93.7902,-101.283 100.659,-89.3851"/>
<polygon fill="#e3a9ff" stroke="#e3a9ff" points="103.183,-90.6143 104.758,-82.2861 98.3331,-87.8143 103.183,-90.6143"/>
</a>
</g>
<!-- ZNF711_TFAP2A_TFAP2D&#45;&gt;SMAD3 -->
<g id="edge30" class="edge"><title>ZNF711_TFAP2A_TFAP2D&#45;&gt;SMAD3</title>
<a xlink:title="SMAD3: 0.744||remove33root">
<path fill="none" stroke="#e1a2ff" stroke-width="3" d="M99.5233,-162.266C127.363,-177.851 170.13,-199.646 210.101,-211.301 267.565,-228.056 337.31,-233.724 378.496,-235.642"/>
<polygon fill="#e1a2ff" stroke="#e1a2ff" points="378.477,-238.443 386.589,-235.987 378.716,-232.848 378.477,-238.443"/>
</a>
</g>
<!-- ZNF711_TFAP2A_TFAP2D&#45;&gt;NFKB1 -->
<g id="edge14" class="edge"><title>ZNF711_TFAP2A_TFAP2D&#45;&gt;NFKB1</title>
<a xlink:title="NFKB1: 0.022||remove6root">
<path fill="none" stroke="#eecaff" stroke-width="3" d="M96.7725,-126.02C112.304,-115.136 131.5,-100.461 146.52,-85.08 158.906,-72.3962 170.649,-56.3866 179.499,-43.189"/>
<polygon fill="#eecaff" stroke="#eecaff" points="182.048,-44.4081 184.104,-36.1853 177.369,-41.3315 182.048,-44.4081"/>
</a>
</g>
<!-- ZNF711_TFAP2A_TFAP2D&#45;&gt;BHLHE40 -->
<g id="edge16" class="edge"><title>ZNF711_TFAP2A_TFAP2D&#45;&gt;BHLHE40</title>
<a xlink:title="BHLHE40: 0.226||remove21root">
<path fill="none" stroke="#eabfff" stroke-width="3" d="M100.395,-162.347C155.799,-194.334 270.671,-260.655 330.142,-294.991"/>
<polygon fill="#eabfff" stroke="#eabfff" points="328.784,-297.44 337.112,-299.015 331.584,-292.591 328.784,-297.44"/>
</a>
</g>
<!-- RELA -->
<g id="node18" class="node"><title>RELA</title>
<a xlink:href="RELA.svg" xlink:title="Z&#45;value: 0.637||remove41">
<polygon fill="#b2baff" stroke="#b2baff" stroke-width="2" points="302.621,-36 272.621,-36 260.621,-24 260.621,-12 272.621,-0 302.621,-0 314.621,-12 314.621,-24 302.621,-36"/>
<path fill="#b2baff" stroke="#b2baff" stroke-width="2" d="M272.621,-36C266.621,-36 260.621,-30 260.621,-24"/>
<path fill="#b2baff" stroke="#b2baff" stroke-width="2" d="M260.621,-12C260.621,-6 266.621,-0 272.621,-0"/>
<path fill="#b2baff" stroke="#b2baff" stroke-width="2" d="M302.621,-0C308.621,-0 314.621,-6 314.621,-12"/>
<path fill="#b2baff" stroke="#b2baff" stroke-width="2" d="M314.621,-24C314.621,-30 308.621,-36 302.621,-36"/>
<polyline fill="none" stroke="white" stroke-width="2" points="302.621,-36 272.621,-36 "/>
<path fill="none" stroke="white" stroke-width="2" d="M272.621,-36C266.621,-36 260.621,-30 260.621,-24"/>
<polyline fill="none" stroke="white" stroke-width="2" points="260.621,-24 260.621,-12 "/>
<path fill="none" stroke="white" stroke-width="2" d="M260.621,-12C260.621,-6 266.621,-0 272.621,-0"/>
<polyline fill="none" stroke="white" stroke-width="2" points="272.621,-0 302.621,-0 "/>
<path fill="none" stroke="white" stroke-width="2" d="M302.621,-0C308.621,-0 314.621,-6 314.621,-12"/>
<polyline fill="none" stroke="white" stroke-width="2" points="314.621,-12 314.621,-24 "/>
<path fill="none" stroke="white" stroke-width="2" d="M314.621,-24C314.621,-30 308.621,-36 302.621,-36"/>
<text text-anchor="middle" x="287.621" y="-15.5" font-family="Helvetica,sans-Serif" font-size="10.00">RELA</text>
</a>
</g>
<!-- ZNF711_TFAP2A_TFAP2D&#45;&gt;RELA -->
<g id="edge18" class="edge"><title>ZNF711_TFAP2A_TFAP2D&#45;&gt;RELA</title>
<a xlink:title="RELA: 0.015||remove3root">
<path fill="none" stroke="#eecbff" stroke-width="3" d="M100.323,-126.136C140.949,-102.681 211.564,-61.9111 253.511,-37.6935"/>
<polygon fill="#eecbff" stroke="#eecbff" points="254.963,-40.0881 260.491,-33.6632 252.163,-35.2384 254.963,-40.0881"/>
</a>
</g>
<!-- ZNF711_TFAP2A_TFAP2D&#45;&gt;ETV4_ETS2 -->
<g id="edge24" class="edge"><title>ZNF711_TFAP2A_TFAP2D&#45;&gt;ETV4_ETS2</title>
<a xlink:title="ETV4: 0.086||ETS2: 0.031||remove13root">
<path fill="none" stroke="#edc7ff" stroke-width="3" d="M87.2635,-162.484C126.665,-201.886 219.64,-294.861 263.684,-338.904"/>
<polygon fill="#edc7ff" stroke="#edc7ff" points="261.926,-341.107 269.563,-344.784 265.886,-337.147 261.926,-341.107"/>
</a>
</g>
<!-- HOXD10 -->
<g id="node27" class="node"><title>HOXD10</title>
<a xlink:href="HOXD10.svg" xlink:title="Z&#45;value: 0.803||remove31">
<polygon fill="#abb4ff" stroke="#abb4ff" stroke-width="2" points="383.142,-82.2 352.142,-82.2 340.142,-70.2 340.142,-58.2 352.142,-46.2 383.142,-46.2 395.142,-58.2 395.142,-70.2 383.142,-82.2"/>
<path fill="#abb4ff" stroke="#abb4ff" stroke-width="2" d="M352.142,-82.2C346.142,-82.2 340.142,-76.2 340.142,-70.2"/>
<path fill="#abb4ff" stroke="#abb4ff" stroke-width="2" d="M340.142,-58.2C340.142,-52.2 346.142,-46.2 352.142,-46.2"/>
<path fill="#abb4ff" stroke="#abb4ff" stroke-width="2" d="M383.142,-46.2C389.142,-46.2 395.142,-52.2 395.142,-58.2"/>
<path fill="#abb4ff" stroke="#abb4ff" stroke-width="2" d="M395.142,-70.2C395.142,-76.2 389.142,-82.2 383.142,-82.2"/>
<polyline fill="none" stroke="white" stroke-width="2" points="383.142,-82.2 352.142,-82.2 "/>
<path fill="none" stroke="white" stroke-width="2" d="M352.142,-82.2C346.142,-82.2 340.142,-76.2 340.142,-70.2"/>
<polyline fill="none" stroke="white" stroke-width="2" points="340.142,-70.2 340.142,-58.2 "/>
<path fill="none" stroke="white" stroke-width="2" d="M340.142,-58.2C340.142,-52.2 346.142,-46.2 352.142,-46.2"/>
<polyline fill="none" stroke="white" stroke-width="2" points="352.142,-46.2 383.142,-46.2 "/>
<path fill="none" stroke="white" stroke-width="2" d="M383.142,-46.2C389.142,-46.2 395.142,-52.2 395.142,-58.2"/>
<polyline fill="none" stroke="white" stroke-width="2" points="395.142,-58.2 395.142,-70.2 "/>
<path fill="none" stroke="white" stroke-width="2" d="M395.142,-70.2C395.142,-76.2 389.142,-82.2 383.142,-82.2"/>
<text text-anchor="middle" x="367.642" y="-61.7" font-family="Helvetica,sans-Serif" font-size="10.00">HOXD10</text>
</a>
</g>
<!-- ZNF711_TFAP2A_TFAP2D&#45;&gt;HOXD10 -->
<g id="edge32" class="edge"><title>ZNF711_TFAP2A_TFAP2D&#45;&gt;HOXD10</title>
<a xlink:title="HOXD10: 0.108||remove14root">
<path fill="none" stroke="#ecc6ff" stroke-width="3" d="M136.393,-126.163C196.89,-109.953 283.373,-86.7798 331.607,-73.8554"/>
<polygon fill="#ecc6ff" stroke="#ecc6ff" points="332.579,-76.4938 339.582,-71.7186 331.13,-71.0846 332.579,-76.4938"/>
</a>
</g>
<!-- GATA6&#45;&gt;BATF -->
<g id="edge60" class="edge"><title>GATA6&#45;&gt;BATF</title>
<a xlink:title="BATF: 0.533||remove28root">
<path fill="none" stroke="#aeb6ff" stroke-width="3" d="M133.284,-82.2844C155.404,-104.404 192.923,-141.923 217.435,-166.435"/>
<polygon fill="#aeb6ff" stroke="#aeb6ff" points="215.733,-168.693 223.37,-172.37 219.693,-164.733 215.733,-168.693"/>
</a>
</g>
<!-- GATA6&#45;&gt;GATA6 -->
<g id="edge62" class="edge"><title>GATA6&#45;&gt;GATA6</title>
<a xlink:title="GATA6: 0.011||remove2root">
<path fill="none" stroke="#eecbff" stroke-width="3" d="M142.441,-70.9434C152.224,-71.0884 160.2,-68.8406 160.2,-64.2 160.2,-60.9371 156.257,-58.8571 150.515,-57.9601"/>
<polygon fill="#eecbff" stroke="#eecbff" points="150.6,-55.1601 142.441,-57.4566 150.251,-60.7492 150.6,-55.1601"/>
</a>
</g>
<!-- NFKB1&#45;&gt;BATF -->
<g id="edge72" class="edge"><title>NFKB1&#45;&gt;BATF</title>
<a xlink:title="BATF: 1.066||remove39root">
<path fill="none" stroke="#919cff" stroke-width="3" d="M200.078,-36.1262C208.292,-66.7832 224.957,-128.977 234.428,-164.325"/>
<polygon fill="#919cff" stroke="#919cff" points="231.784,-165.276 236.56,-172.279 237.194,-163.827 231.784,-165.276"/>
</a>
</g>
<!-- NFKB1&#45;&gt;NFKB1 -->
<g id="edge70" class="edge"><title>NFKB1&#45;&gt;NFKB1</title>
<a xlink:title="NFKB1: 0.158||remove16root">
<path fill="none" stroke="#ebc3ff" stroke-width="3" d="M222.462,-24.7434C232.245,-24.8884 240.221,-22.6406 240.221,-18 240.221,-14.7371 236.278,-12.6571 230.535,-11.7601"/>
<polygon fill="#ebc3ff" stroke="#ebc3ff" points="230.62,-8.96005 222.462,-11.2566 230.272,-14.5492 230.62,-8.96005"/>
</a>
</g>
<!-- RELA&#45;&gt;BATF -->
<g id="edge76" class="edge"><title>RELA&#45;&gt;BATF</title>
<a xlink:title="BATF: 1.295||remove41root">
<path fill="none" stroke="#8490ff" stroke-width="3" d="M282.764,-36.1262C274.549,-66.7832 257.884,-128.977 248.413,-164.325"/>
<polygon fill="#8490ff" stroke="#8490ff" points="245.648,-163.827 246.282,-172.279 251.057,-165.276 245.648,-163.827"/>
</a>
</g>
<!-- RELA&#45;&gt;NFKB1 -->
<g id="edge74" class="edge"><title>RELA&#45;&gt;NFKB1</title>
<a xlink:title="NFKB1: 0.171||remove18root">
<path fill="none" stroke="#ebc2ff" stroke-width="3" d="M260.397,-18C250.998,-18 240.331,-18 230.388,-18"/>
<polygon fill="#ebc2ff" stroke="#ebc2ff" points="230.249,-15.1999 222.249,-18 230.25,-20.7999 230.249,-15.1999"/>
</a>
</g>
<!-- ETV4_ETS2&#45;&gt;NFKB1 -->
<g id="edge64" class="edge"><title>ETV4_ETS2&#45;&gt;NFKB1</title>
<a xlink:title="NFKB1: 0.034||remove11root">
<path fill="none" stroke="#eecaff" stroke-width="3" d="M275.296,-344.698C257.358,-317.22 224.617,-262.782 210.101,-211.301 193.822,-153.568 192.997,-82.5393 193.998,-44.7045"/>
<polygon fill="#eecaff" stroke="#eecaff" points="196.811,-44.3542 194.267,-36.2689 191.214,-44.1756 196.811,-44.3542"/>
</a>
</g>
<!-- HOXD10&#45;&gt;MEIS2 -->
<g id="edge66" class="edge"><title>HOXD10&#45;&gt;MEIS2</title>
<a xlink:title="MEIS2: 0.003||remove1root">
<path fill="none" stroke="#eecbff" stroke-width="3" d="M358.89,-82.6192C344.172,-112.247 312.17,-171.219 272.741,-211.301 235.952,-248.698 183.879,-280.374 149.83,-298.949"/>
<polygon fill="#eecbff" stroke="#eecbff" points="148.144,-296.676 142.428,-302.935 150.799,-301.607 148.144,-296.676"/>
</a>
</g>
<!-- HOXD10&#45;&gt;BATF -->
<g id="edge68" class="edge"><title>HOXD10&#45;&gt;BATF</title>
<a xlink:title="BATF: 0.661||remove31root">
<path fill="none" stroke="#a7b0ff" stroke-width="3" d="M349.557,-82.2844C327.437,-104.404 289.919,-141.923 265.406,-166.435"/>
<polygon fill="#a7b0ff" stroke="#a7b0ff" points="263.149,-164.733 259.472,-172.37 267.108,-168.693 263.149,-164.733"/>
</a>
</g>
<!-- ELF2_GABPA_ELF5 -->
<g id="node51" class="node"><title>ELF2_GABPA_ELF5</title>
<a xlink:href="ELF2_GABPA_ELF5.svg" xlink:title="Z&#45;value: 1.088||remove36">
<polygon fill="#a0a9ff" stroke="#a0a9ff" stroke-width="2" points="455.842,-162.221 371.842,-162.221 359.842,-150.221 359.842,-138.221 371.842,-126.221 455.842,-126.221 467.842,-138.221 467.842,-150.221 455.842,-162.221"/>
<path fill="#a0a9ff" stroke="#a0a9ff" stroke-width="2" d="M371.842,-162.221C365.842,-162.221 359.842,-156.221 359.842,-150.221"/>
<path fill="#a0a9ff" stroke="#a0a9ff" stroke-width="2" d="M359.842,-138.221C359.842,-132.221 365.842,-126.221 371.842,-126.221"/>
<path fill="#a0a9ff" stroke="#a0a9ff" stroke-width="2" d="M455.842,-126.221C461.842,-126.221 467.842,-132.221 467.842,-138.221"/>
<path fill="#a0a9ff" stroke="#a0a9ff" stroke-width="2" d="M467.842,-150.221C467.842,-156.221 461.842,-162.221 455.842,-162.221"/>
<polyline fill="none" stroke="white" stroke-width="2" points="455.842,-162.221 371.842,-162.221 "/>
<path fill="none" stroke="white" stroke-width="2" d="M371.842,-162.221C365.842,-162.221 359.842,-156.221 359.842,-150.221"/>
<polyline fill="none" stroke="white" stroke-width="2" points="359.842,-150.221 359.842,-138.221 "/>
<path fill="none" stroke="white" stroke-width="2" d="M359.842,-138.221C359.842,-132.221 365.842,-126.221 371.842,-126.221"/>
<polyline fill="none" stroke="white" stroke-width="2" points="371.842,-126.221 455.842,-126.221 "/>
<path fill="none" stroke="white" stroke-width="2" d="M455.842,-126.221C461.842,-126.221 467.842,-132.221 467.842,-138.221"/>
<polyline fill="none" stroke="white" stroke-width="2" points="467.842,-138.221 467.842,-150.221 "/>
<path fill="none" stroke="white" stroke-width="2" d="M467.842,-150.221C467.842,-156.221 461.842,-162.221 455.842,-162.221"/>
<text text-anchor="middle" x="413.842" y="-141.721" font-family="Helvetica,sans-Serif" font-size="10.00">ELF2_GABPA_ELF5</text>
</a>
</g>
<!-- ELF2_GABPA_ELF5&#45;&gt;MEIS2 -->
<g id="edge78" class="edge"><title>ELF2_GABPA_ELF5&#45;&gt;MEIS2</title>
<a xlink:title="MEIS2: 0.002||remove0root">
<path fill="none" stroke="#eecbff" stroke-width="3" d="M382.446,-162.347C326.006,-194.933 207.853,-263.148 149.421,-296.884"/>
<polygon fill="#eecbff" stroke="#eecbff" points="147.789,-294.593 142.261,-301.018 150.589,-299.443 147.789,-294.593"/>
</a>
</g>
<!-- ELF2_GABPA_ELF5&#45;&gt;BATF -->
<g id="edge84" class="edge"><title>ELF2_GABPA_ELF5&#45;&gt;BATF</title>
<a xlink:title="BATF: 0.768||remove36root">
<path fill="none" stroke="#a1abff" stroke-width="3" d="M359.76,-158.712C332.608,-165.987 300.495,-174.592 276.577,-181.001"/>
<polygon fill="#a1abff" stroke="#a1abff" points="275.802,-178.309 268.799,-183.085 277.252,-183.719 275.802,-178.309"/>
</a>
</g>
<!-- ELF2_GABPA_ELF5&#45;&gt;ID4_TCF4_SNAI2 -->
<g id="edge86" class="edge"><title>ELF2_GABPA_ELF5&#45;&gt;ID4_TCF4_SNAI2</title>
<a xlink:title="SNAI2: 0.029||TCF4: 0.017||remove8root">
<path fill="none" stroke="#eecaff" stroke-width="3" d="M383.318,-162.266C355.479,-177.851 312.712,-199.646 272.741,-211.301 224.3,-225.425 167.131,-231.671 125.7,-234.433"/>
<polygon fill="#eecaff" stroke="#eecaff" points="125.44,-231.643 117.631,-234.94 125.791,-237.232 125.44,-231.643"/>
</a>
</g>
<!-- ELF2_GABPA_ELF5&#45;&gt;ZNF711_TFAP2A_TFAP2D -->
<g id="edge90" class="edge"><title>ELF2_GABPA_ELF5&#45;&gt;ZNF711_TFAP2A_TFAP2D</title>
<a xlink:title="TFAP2A: 0.080||remove12root">
<path fill="none" stroke="#edc7ff" stroke-width="3" d="M359.581,-144.221C302.194,-144.221 211.158,-144.221 146.282,-144.221"/>
<polygon fill="#edc7ff" stroke="#edc7ff" points="146.107,-141.421 138.107,-144.221 146.106,-147.021 146.107,-141.421"/>
</a>
</g>
<!-- ELF2_GABPA_ELF5&#45;&gt;GATA6 -->
<g id="edge92" class="edge"><title>ELF2_GABPA_ELF5&#45;&gt;GATA6</title>
<a xlink:title="GATA6: 0.029||remove9root">
<path fill="none" stroke="#eecaff" stroke-width="3" d="M359.76,-129.73C298.971,-113.441 202.04,-87.4686 150.354,-73.6195"/>
<polygon fill="#eecaff" stroke="#eecaff" points="150.912,-70.8703 142.46,-71.5043 149.463,-76.2795 150.912,-70.8703"/>
</a>
</g>
<!-- ELF2_GABPA_ELF5&#45;&gt;SMAD3 -->
<g id="edge94" class="edge"><title>ELF2_GABPA_ELF5&#45;&gt;SMAD3</title>
<a xlink:title="SMAD3: 0.161||remove17root">
<path fill="none" stroke="#ebc3ff" stroke-width="3" d="M413.842,-162.476C413.842,-176.144 413.842,-195.039 413.842,-210.333"/>
<polygon fill="#ebc3ff" stroke="#ebc3ff" points="411.042,-210.403 413.842,-218.403 416.642,-210.403 411.042,-210.403"/>
</a>
</g>
<!-- ELF2_GABPA_ELF5&#45;&gt;NFKB1 -->
<g id="edge80" class="edge"><title>ELF2_GABPA_ELF5&#45;&gt;NFKB1</title>
<a xlink:title="NFKB1: 0.021||remove5root">
<path fill="none" stroke="#eecaff" stroke-width="3" d="M382.518,-126.136C341.892,-102.681 271.277,-61.9111 229.331,-37.6935"/>
<polygon fill="#eecaff" stroke="#eecaff" points="230.678,-35.2384 222.35,-33.6632 227.878,-40.0881 230.678,-35.2384"/>
</a>
</g>
<!-- ELF2_GABPA_ELF5&#45;&gt;RELA -->
<g id="edge82" class="edge"><title>ELF2_GABPA_ELF5&#45;&gt;RELA</title>
<a xlink:title="RELA: 0.033||remove10root">
<path fill="none" stroke="#eecaff" stroke-width="3" d="M385.565,-126.156C369.773,-115.316 350.291,-100.639 335.162,-85.08 322.903,-72.4735 311.434,-56.4668 302.833,-43.2514"/>
<polygon fill="#eecaff" stroke="#eecaff" points="305.023,-41.4782 298.363,-36.236 300.301,-44.4875 305.023,-41.4782"/>
</a>
</g>
<!-- ELF2_GABPA_ELF5&#45;&gt;ETV4_ETS2 -->
<g id="edge88" class="edge"><title>ELF2_GABPA_ELF5&#45;&gt;ETV4_ETS2</title>
<a xlink:title="ETV4: 0.026||ETS2: 0.015||remove7root">
<path fill="none" stroke="#eecaff" stroke-width="3" d="M403.297,-162.484C380.735,-201.563 327.746,-293.343 302.07,-337.814"/>
<polygon fill="#eecaff" stroke="#eecaff" points="299.622,-336.456 298.046,-344.784 304.471,-339.256 299.622,-336.456"/>
</a>
</g>
</g>
</svg>
