<?xml version="1.0" encoding="UTF-8" standalone="no"?>
<!DOCTYPE svg PUBLIC "-//W3C//DTD SVG 1.1//EN"
 "http://www.w3.org/Graphics/SVG/1.1/DTD/svg11.dtd">
<!-- Generated by graphviz version 2.28.0 (20110630.0925)
 -->
<!-- Title: _anonymous_0 Pages: 1 -->
<svg width="417pt" height="366pt"
 viewBox="0.00 0.00 416.95 366.45" xmlns="http://www.w3.org/2000/svg" xmlns:xlink="http://www.w3.org/1999/xlink">
<g id="graph1" class="graph" transform="scale(1 1) rotate(0) translate(4 362.449)">
<title>_anonymous_0</title>
<polygon fill="white" stroke="white" points="-4,5 -4,-362.449 413.949,-362.449 413.949,5 -4,5"/>
<!-- SIN3A_CHD1 -->
<g id="node1" class="node"><title>SIN3A_CHD1</title>
<a xlink:href="SIN3A_CHD1.svg" xlink:title="Z&#45;value: 1.751||remove31">
<polygon fill="#3247ff" stroke="#3247ff" stroke-width="2" points="291.175,-358.449 236.675,-358.449 224.675,-346.449 224.675,-334.449 236.675,-322.449 291.175,-322.449 303.175,-334.449 303.175,-346.449 291.175,-358.449"/>
<path fill="#3247ff" stroke="#3247ff" stroke-width="2" d="M236.675,-358.449C230.675,-358.449 224.675,-352.449 224.675,-346.449"/>
<path fill="#3247ff" stroke="#3247ff" stroke-width="2" d="M224.675,-334.449C224.675,-328.449 230.675,-322.449 236.675,-322.449"/>
<path fill="#3247ff" stroke="#3247ff" stroke-width="2" d="M291.175,-322.449C297.175,-322.449 303.175,-328.449 303.175,-334.449"/>
<path fill="#3247ff" stroke="#3247ff" stroke-width="2" d="M303.175,-346.449C303.175,-352.449 297.175,-358.449 291.175,-358.449"/>
<polyline fill="none" stroke="white" stroke-width="2" points="291.175,-358.449 236.675,-358.449 "/>
<path fill="none" stroke="white" stroke-width="2" d="M236.675,-358.449C230.675,-358.449 224.675,-352.449 224.675,-346.449"/>
<polyline fill="none" stroke="white" stroke-width="2" points="224.675,-346.449 224.675,-334.449 "/>
<path fill="none" stroke="white" stroke-width="2" d="M224.675,-334.449C224.675,-328.449 230.675,-322.449 236.675,-322.449"/>
<polyline fill="none" stroke="white" stroke-width="2" points="236.675,-322.449 291.175,-322.449 "/>
<path fill="none" stroke="white" stroke-width="2" d="M291.175,-322.449C297.175,-322.449 303.175,-328.449 303.175,-334.449"/>
<polyline fill="none" stroke="white" stroke-width="2" points="303.175,-334.449 303.175,-346.449 "/>
<path fill="none" stroke="white" stroke-width="2" d="M303.175,-346.449C303.175,-352.449 297.175,-358.449 291.175,-358.449"/>
<text text-anchor="middle" x="263.925" y="-337.949" font-family="Helvetica,sans-Serif" font-size="10.00" fill="white">SIN3A_CHD1</text>
</a>
</g>
<!-- SIN3A_CHD1&#45;&gt;SIN3A_CHD1 -->
<g id="edge16" class="edge"><title>SIN3A_CHD1&#45;&gt;SIN3A_CHD1</title>
<a xlink:title="CHD1: 0.054||remove14root">
<path fill="none" stroke="#edc9ff" stroke-width="3" d="M303.43,-347.13C313.689,-346.719 321.425,-344.492 321.425,-340.449 321.425,-337.606 317.6,-335.662 311.763,-334.615"/>
<polygon fill="#edc9ff" stroke="#edc9ff" points="311.672,-331.791 303.43,-333.769 311.107,-337.363 311.672,-331.791"/>
</a>
</g>
<!-- MAFB -->
<g id="node2" class="node"><title>MAFB</title>
<a xlink:href="MAFB.svg" xlink:title="Z&#45;value: 0.960||remove18">
<polygon fill="#7885ff" stroke="#7885ff" stroke-width="2" points="192.525,-358.449 162.525,-358.449 150.525,-346.449 150.525,-334.449 162.525,-322.449 192.525,-322.449 204.525,-334.449 204.525,-346.449 192.525,-358.449"/>
<path fill="#7885ff" stroke="#7885ff" stroke-width="2" d="M162.525,-358.449C156.525,-358.449 150.525,-352.449 150.525,-346.449"/>
<path fill="#7885ff" stroke="#7885ff" stroke-width="2" d="M150.525,-334.449C150.525,-328.449 156.525,-322.449 162.525,-322.449"/>
<path fill="#7885ff" stroke="#7885ff" stroke-width="2" d="M192.525,-322.449C198.525,-322.449 204.525,-328.449 204.525,-334.449"/>
<path fill="#7885ff" stroke="#7885ff" stroke-width="2" d="M204.525,-346.449C204.525,-352.449 198.525,-358.449 192.525,-358.449"/>
<polyline fill="none" stroke="white" stroke-width="2" points="192.525,-358.449 162.525,-358.449 "/>
<path fill="none" stroke="white" stroke-width="2" d="M162.525,-358.449C156.525,-358.449 150.525,-352.449 150.525,-346.449"/>
<polyline fill="none" stroke="white" stroke-width="2" points="150.525,-346.449 150.525,-334.449 "/>
<path fill="none" stroke="white" stroke-width="2" d="M150.525,-334.449C150.525,-328.449 156.525,-322.449 162.525,-322.449"/>
<polyline fill="none" stroke="white" stroke-width="2" points="162.525,-322.449 192.525,-322.449 "/>
<path fill="none" stroke="white" stroke-width="2" d="M192.525,-322.449C198.525,-322.449 204.525,-328.449 204.525,-334.449"/>
<polyline fill="none" stroke="white" stroke-width="2" points="204.525,-334.449 204.525,-346.449 "/>
<path fill="none" stroke="white" stroke-width="2" d="M204.525,-346.449C204.525,-352.449 198.525,-358.449 192.525,-358.449"/>
<text text-anchor="middle" x="177.525" y="-337.949" font-family="Helvetica,sans-Serif" font-size="10.00">MAFB</text>
</a>
</g>
<!-- SIN3A_CHD1&#45;&gt;MAFB -->
<g id="edge2" class="edge"><title>SIN3A_CHD1&#45;&gt;MAFB</title>
<a xlink:title="MAFB: 0.111||SIN3A: 0.019||remove18">
<path fill="none" stroke="#ecc5ff" stroke-width="3" d="M216.25,-341.449C215.155,-341.449 214.065,-341.449 212.981,-341.449"/>
<path fill="none" stroke="#eecaff" stroke-width="3" d="M216.25,-339.449C215.155,-339.449 214.065,-339.449 212.981,-339.449"/>
<polygon fill="#eecaff" stroke="#eecaff" points="216.265,-343.249 224.265,-340.449 216.265,-337.649 216.265,-343.249"/>
<polygon fill="#ecc5ff" stroke="#ecc5ff" points="212.851,-337.649 204.851,-340.449 212.851,-343.249 212.851,-337.649"/>
</a>
</g>
<!-- SP3 -->
<g id="node4" class="node"><title>SP3</title>
<a xlink:href="SP3.svg" xlink:title="Z&#45;value: 1.634||remove28">
<polygon fill="#3d50ff" stroke="#3d50ff" stroke-width="2" points="117.7,-315.249 87.7,-315.249 75.7,-303.249 75.7,-291.249 87.7,-279.249 117.7,-279.249 129.7,-291.249 129.7,-303.249 117.7,-315.249"/>
<path fill="#3d50ff" stroke="#3d50ff" stroke-width="2" d="M87.7,-315.249C81.7,-315.249 75.7,-309.249 75.7,-303.249"/>
<path fill="#3d50ff" stroke="#3d50ff" stroke-width="2" d="M75.7,-291.249C75.7,-285.249 81.7,-279.249 87.7,-279.249"/>
<path fill="#3d50ff" stroke="#3d50ff" stroke-width="2" d="M117.7,-279.249C123.7,-279.249 129.7,-285.249 129.7,-291.249"/>
<path fill="#3d50ff" stroke="#3d50ff" stroke-width="2" d="M129.7,-303.249C129.7,-309.249 123.7,-315.249 117.7,-315.249"/>
<polyline fill="none" stroke="white" stroke-width="2" points="117.7,-315.249 87.7,-315.249 "/>
<path fill="none" stroke="white" stroke-width="2" d="M87.7,-315.249C81.7,-315.249 75.7,-309.249 75.7,-303.249"/>
<polyline fill="none" stroke="white" stroke-width="2" points="75.7,-303.249 75.7,-291.249 "/>
<path fill="none" stroke="white" stroke-width="2" d="M75.7,-291.249C75.7,-285.249 81.7,-279.249 87.7,-279.249"/>
<polyline fill="none" stroke="white" stroke-width="2" points="87.7,-279.249 117.7,-279.249 "/>
<path fill="none" stroke="white" stroke-width="2" d="M117.7,-279.249C123.7,-279.249 129.7,-285.249 129.7,-291.249"/>
<polyline fill="none" stroke="white" stroke-width="2" points="129.7,-291.249 129.7,-303.249 "/>
<path fill="none" stroke="white" stroke-width="2" d="M129.7,-303.249C129.7,-309.249 123.7,-315.249 117.7,-315.249"/>
<text text-anchor="middle" x="102.7" y="-294.749" font-family="Helvetica,sans-Serif" font-size="10.00" fill="white">SP3</text>
</a>
</g>
<!-- SIN3A_CHD1&#45;&gt;SP3 -->
<g id="edge4" class="edge"><title>SIN3A_CHD1&#45;&gt;SP3</title>
<a xlink:title="SP3: 1.334||SIN3A: 0.230||remove28">
<path fill="none" stroke="#d782ff" stroke-width="3" d="M216.303,-322.931C213.7,-322.082 211.099,-321.271 208.564,-320.529 185.346,-313.728 158.601,-308.118 137.807,-304.232"/>
<path fill="none" stroke="#eabfff" stroke-width="3" d="M216.923,-321.03C214.295,-320.172 211.694,-319.362 209.126,-318.609 185.756,-311.771 159.012,-306.161 138.174,-302.266"/>
<polygon fill="#eabfff" stroke="#eabfff" points="215.986,-324.725 224.462,-324.65 217.789,-319.423 215.986,-324.725"/>
<polygon fill="#d782ff" stroke="#d782ff" points="138.41,-300.479 130.036,-301.792 137.401,-305.988 138.41,-300.479"/>
</a>
</g>
<!-- HOXA9 -->
<g id="node6" class="node"><title>HOXA9</title>
<a xlink:href="HOXA9.svg" xlink:title="Z&#45;value: 0.527||remove29">
<polygon fill="#9da7ff" stroke="#9da7ff" stroke-width="2" points="396.949,-240.425 366.949,-240.425 354.949,-228.425 354.949,-216.425 366.949,-204.425 396.949,-204.425 408.949,-216.425 408.949,-228.425 396.949,-240.425"/>
<path fill="#9da7ff" stroke="#9da7ff" stroke-width="2" d="M366.949,-240.425C360.949,-240.425 354.949,-234.425 354.949,-228.425"/>
<path fill="#9da7ff" stroke="#9da7ff" stroke-width="2" d="M354.949,-216.425C354.949,-210.425 360.949,-204.425 366.949,-204.425"/>
<path fill="#9da7ff" stroke="#9da7ff" stroke-width="2" d="M396.949,-204.425C402.949,-204.425 408.949,-210.425 408.949,-216.425"/>
<path fill="#9da7ff" stroke="#9da7ff" stroke-width="2" d="M408.949,-228.425C408.949,-234.425 402.949,-240.425 396.949,-240.425"/>
<polyline fill="none" stroke="white" stroke-width="2" points="396.949,-240.425 366.949,-240.425 "/>
<path fill="none" stroke="white" stroke-width="2" d="M366.949,-240.425C360.949,-240.425 354.949,-234.425 354.949,-228.425"/>
<polyline fill="none" stroke="white" stroke-width="2" points="354.949,-228.425 354.949,-216.425 "/>
<path fill="none" stroke="white" stroke-width="2" d="M354.949,-216.425C354.949,-210.425 360.949,-204.425 366.949,-204.425"/>
<polyline fill="none" stroke="white" stroke-width="2" points="366.949,-204.425 396.949,-204.425 "/>
<path fill="none" stroke="white" stroke-width="2" d="M396.949,-204.425C402.949,-204.425 408.949,-210.425 408.949,-216.425"/>
<polyline fill="none" stroke="white" stroke-width="2" points="408.949,-216.425 408.949,-228.425 "/>
<path fill="none" stroke="white" stroke-width="2" d="M408.949,-228.425C408.949,-234.425 402.949,-240.425 396.949,-240.425"/>
<text text-anchor="middle" x="381.949" y="-219.925" font-family="Helvetica,sans-Serif" font-size="10.00">HOXA9</text>
</a>
</g>
<!-- SIN3A_CHD1&#45;&gt;HOXA9 -->
<g id="edge6" class="edge"><title>SIN3A_CHD1&#45;&gt;HOXA9</title>
<a xlink:title="HOXA9: 0.051||remove13root">
<path fill="none" stroke="#edc9ff" stroke-width="3" d="M265.194,-322.419C267.001,-308.531 271.368,-289.54 281.909,-276.369 298.491,-255.651 325.259,-241.813 346.935,-233.345"/>
<polygon fill="#edc9ff" stroke="#edc9ff" points="348.144,-235.882 354.662,-230.465 346.188,-230.635 348.144,-235.882"/>
</a>
</g>
<!-- MAZ_ZNF281_GTF2F1 -->
<g id="node8" class="node"><title>MAZ_ZNF281_GTF2F1</title>
<a xlink:href="MAZ_ZNF281_GTF2F1.svg" xlink:title="Z&#45;value: 1.186||remove19">
<polygon fill="#6473ff" stroke="#6473ff" stroke-width="2" points="106.75,-240.425 12.25,-240.425 0.25,-228.425 0.25,-216.425 12.25,-204.425 106.75,-204.425 118.75,-216.425 118.75,-228.425 106.75,-240.425"/>
<path fill="#6473ff" stroke="#6473ff" stroke-width="2" d="M12.25,-240.425C6.25,-240.425 0.25,-234.425 0.25,-228.425"/>
<path fill="#6473ff" stroke="#6473ff" stroke-width="2" d="M0.25,-216.425C0.25,-210.425 6.25,-204.425 12.25,-204.425"/>
<path fill="#6473ff" stroke="#6473ff" stroke-width="2" d="M106.75,-204.425C112.75,-204.425 118.75,-210.425 118.75,-216.425"/>
<path fill="#6473ff" stroke="#6473ff" stroke-width="2" d="M118.75,-228.425C118.75,-234.425 112.75,-240.425 106.75,-240.425"/>
<polyline fill="none" stroke="white" stroke-width="2" points="106.75,-240.425 12.25,-240.425 "/>
<path fill="none" stroke="white" stroke-width="2" d="M12.25,-240.425C6.25,-240.425 0.25,-234.425 0.25,-228.425"/>
<polyline fill="none" stroke="white" stroke-width="2" points="0.25,-228.425 0.25,-216.425 "/>
<path fill="none" stroke="white" stroke-width="2" d="M0.25,-216.425C0.25,-210.425 6.25,-204.425 12.25,-204.425"/>
<polyline fill="none" stroke="white" stroke-width="2" points="12.25,-204.425 106.75,-204.425 "/>
<path fill="none" stroke="white" stroke-width="2" d="M106.75,-204.425C112.75,-204.425 118.75,-210.425 118.75,-216.425"/>
<polyline fill="none" stroke="white" stroke-width="2" points="118.75,-216.425 118.75,-228.425 "/>
<path fill="none" stroke="white" stroke-width="2" d="M118.75,-228.425C118.75,-234.425 112.75,-240.425 106.75,-240.425"/>
<text text-anchor="middle" x="59.5" y="-219.925" font-family="Helvetica,sans-Serif" font-size="10.00" fill="white">MAZ_ZNF281_GTF2F1</text>
</a>
</g>
<!-- SIN3A_CHD1&#45;&gt;MAZ_ZNF281_GTF2F1 -->
<g id="edge8" class="edge"><title>SIN3A_CHD1&#45;&gt;MAZ_ZNF281_GTF2F1</title>
<a xlink:title="MAZ: 0.257||ZNF281: 0.124||remove19">
<path fill="none" stroke="#eabdff" stroke-width="3" d="M232.431,-322.267C196.162,-301.326 136.59,-266.932 97.7036,-244.481"/>
<polygon fill="#eabdff" stroke="#eabdff" points="99.0219,-242.009 90.6937,-240.434 96.2219,-246.859 99.0219,-242.009"/>
</a>
</g>
<!-- BHLHE22_BHLHA15_BHLHE23 -->
<g id="node10" class="node"><title>BHLHE22_BHLHA15_BHLHE23</title>
<a xlink:href="BHLHE22_BHLHA15_BHLHE23.svg" xlink:title="Z&#45;value: 0.422||remove33">
<polygon fill="#ffa7a7" stroke="#ffa7a7" stroke-width="2" points="288.725,-197.225 152.725,-197.225 140.725,-185.225 140.725,-173.225 152.725,-161.225 288.725,-161.225 300.725,-173.225 300.725,-185.225 288.725,-197.225"/>
<path fill="#ffa7a7" stroke="#ffa7a7" stroke-width="2" d="M152.725,-197.225C146.725,-197.225 140.725,-191.225 140.725,-185.225"/>
<path fill="#ffa7a7" stroke="#ffa7a7" stroke-width="2" d="M140.725,-173.225C140.725,-167.225 146.725,-161.225 152.725,-161.225"/>
<path fill="#ffa7a7" stroke="#ffa7a7" stroke-width="2" d="M288.725,-161.225C294.725,-161.225 300.725,-167.225 300.725,-173.225"/>
<path fill="#ffa7a7" stroke="#ffa7a7" stroke-width="2" d="M300.725,-185.225C300.725,-191.225 294.725,-197.225 288.725,-197.225"/>
<polyline fill="none" stroke="white" stroke-width="2" points="288.725,-197.225 152.725,-197.225 "/>
<path fill="none" stroke="white" stroke-width="2" d="M152.725,-197.225C146.725,-197.225 140.725,-191.225 140.725,-185.225"/>
<polyline fill="none" stroke="white" stroke-width="2" points="140.725,-185.225 140.725,-173.225 "/>
<path fill="none" stroke="white" stroke-width="2" d="M140.725,-173.225C140.725,-167.225 146.725,-161.225 152.725,-161.225"/>
<polyline fill="none" stroke="white" stroke-width="2" points="152.725,-161.225 288.725,-161.225 "/>
<path fill="none" stroke="white" stroke-width="2" d="M288.725,-161.225C294.725,-161.225 300.725,-167.225 300.725,-173.225"/>
<polyline fill="none" stroke="white" stroke-width="2" points="300.725,-173.225 300.725,-185.225 "/>
<path fill="none" stroke="white" stroke-width="2" d="M300.725,-185.225C300.725,-191.225 294.725,-197.225 288.725,-197.225"/>
<text text-anchor="middle" x="220.725" y="-176.725" font-family="Helvetica,sans-Serif" font-size="10.00">BHLHE22_BHLHA15_BHLHE23</text>
</a>
</g>
<!-- SIN3A_CHD1&#45;&gt;BHLHE22_BHLHA15_BHLHE23 -->
<g id="edge10" class="edge"><title>SIN3A_CHD1&#45;&gt;BHLHE22_BHLHA15_BHLHE23</title>
<a xlink:title="BHLHE23: 0.481||remove31root">
<path fill="none" stroke="#b1b9ff" stroke-width="3" d="M259.053,-322.268C251.404,-293.723 236.545,-238.267 227.744,-205.42"/>
<polygon fill="#b1b9ff" stroke="#b1b9ff" points="230.42,-204.589 225.645,-197.587 225.011,-206.039 230.42,-204.589"/>
</a>
</g>
<!-- POU3F3_POU3F4 -->
<g id="node12" class="node"><title>POU3F3_POU3F4</title>
<a xlink:href="POU3F3_POU3F4.svg" xlink:title="Z&#45;value: 0.515||remove25">
<polygon fill="#9fa8ff" stroke="#9fa8ff" stroke-width="2" points="375.249,-315.249 302.249,-315.249 290.249,-303.249 290.249,-291.249 302.249,-279.249 375.249,-279.249 387.249,-291.249 387.249,-303.249 375.249,-315.249"/>
<path fill="#9fa8ff" stroke="#9fa8ff" stroke-width="2" d="M302.249,-315.249C296.249,-315.249 290.249,-309.249 290.249,-303.249"/>
<path fill="#9fa8ff" stroke="#9fa8ff" stroke-width="2" d="M290.249,-291.249C290.249,-285.249 296.249,-279.249 302.249,-279.249"/>
<path fill="#9fa8ff" stroke="#9fa8ff" stroke-width="2" d="M375.249,-279.249C381.249,-279.249 387.249,-285.249 387.249,-291.249"/>
<path fill="#9fa8ff" stroke="#9fa8ff" stroke-width="2" d="M387.249,-303.249C387.249,-309.249 381.249,-315.249 375.249,-315.249"/>
<polyline fill="none" stroke="white" stroke-width="2" points="375.249,-315.249 302.249,-315.249 "/>
<path fill="none" stroke="white" stroke-width="2" d="M302.249,-315.249C296.249,-315.249 290.249,-309.249 290.249,-303.249"/>
<polyline fill="none" stroke="white" stroke-width="2" points="290.249,-303.249 290.249,-291.249 "/>
<path fill="none" stroke="white" stroke-width="2" d="M290.249,-291.249C290.249,-285.249 296.249,-279.249 302.249,-279.249"/>
<polyline fill="none" stroke="white" stroke-width="2" points="302.249,-279.249 375.249,-279.249 "/>
<path fill="none" stroke="white" stroke-width="2" d="M375.249,-279.249C381.249,-279.249 387.249,-285.249 387.249,-291.249"/>
<polyline fill="none" stroke="white" stroke-width="2" points="387.249,-291.249 387.249,-303.249 "/>
<path fill="none" stroke="white" stroke-width="2" d="M387.249,-303.249C387.249,-309.249 381.249,-315.249 375.249,-315.249"/>
<text text-anchor="middle" x="338.749" y="-294.749" font-family="Helvetica,sans-Serif" font-size="10.00">POU3F3_POU3F4</text>
</a>
</g>
<!-- SIN3A_CHD1&#45;&gt;POU3F3_POU3F4 -->
<g id="edge12" class="edge"><title>SIN3A_CHD1&#45;&gt;POU3F3_POU3F4</title>
<a xlink:title="POU3F3: 2.781||remove25">
<path fill="none" stroke="#bd32ff" stroke-width="3" d="M295.223,-322.379C296.85,-321.44 298.493,-320.491 300.139,-319.541"/>
<polygon fill="#bd32ff" stroke="#bd32ff" points="301.807,-321.811 307.335,-315.386 299.007,-316.961 301.807,-321.811"/>
</a>
</g>
<!-- RCOR1_MTA3 -->
<g id="node14" class="node"><title>RCOR1_MTA3</title>
<a xlink:href="RCOR1_MTA3.svg" xlink:title="Z&#45;value: 1.731||remove32">
<polygon fill="#3448ff" stroke="#3448ff" stroke-width="2" points="88.75,-154.025 30.25,-154.025 18.25,-142.025 18.25,-130.025 30.25,-118.025 88.75,-118.025 100.75,-130.025 100.75,-142.025 88.75,-154.025"/>
<path fill="#3448ff" stroke="#3448ff" stroke-width="2" d="M30.25,-154.025C24.25,-154.025 18.25,-148.025 18.25,-142.025"/>
<path fill="#3448ff" stroke="#3448ff" stroke-width="2" d="M18.25,-130.025C18.25,-124.025 24.25,-118.025 30.25,-118.025"/>
<path fill="#3448ff" stroke="#3448ff" stroke-width="2" d="M88.75,-118.025C94.75,-118.025 100.75,-124.025 100.75,-130.025"/>
<path fill="#3448ff" stroke="#3448ff" stroke-width="2" d="M100.75,-142.025C100.75,-148.025 94.75,-154.025 88.75,-154.025"/>
<polyline fill="none" stroke="white" stroke-width="2" points="88.75,-154.025 30.25,-154.025 "/>
<path fill="none" stroke="white" stroke-width="2" d="M30.25,-154.025C24.25,-154.025 18.25,-148.025 18.25,-142.025"/>
<polyline fill="none" stroke="white" stroke-width="2" points="18.25,-142.025 18.25,-130.025 "/>
<path fill="none" stroke="white" stroke-width="2" d="M18.25,-130.025C18.25,-124.025 24.25,-118.025 30.25,-118.025"/>
<polyline fill="none" stroke="white" stroke-width="2" points="30.25,-118.025 88.75,-118.025 "/>
<path fill="none" stroke="white" stroke-width="2" d="M88.75,-118.025C94.75,-118.025 100.75,-124.025 100.75,-130.025"/>
<polyline fill="none" stroke="white" stroke-width="2" points="100.75,-130.025 100.75,-142.025 "/>
<path fill="none" stroke="white" stroke-width="2" d="M100.75,-142.025C100.75,-148.025 94.75,-154.025 88.75,-154.025"/>
<text text-anchor="middle" x="59.5" y="-133.525" font-family="Helvetica,sans-Serif" font-size="10.00" fill="white">RCOR1_MTA3</text>
</a>
</g>
<!-- SIN3A_CHD1&#45;&gt;RCOR1_MTA3 -->
<g id="edge14" class="edge"><title>SIN3A_CHD1&#45;&gt;RCOR1_MTA3</title>
<a xlink:title="RCOR1: 1.779||SIN3A: 0.229||remove31">
<path fill="none" stroke="#cf6aff" stroke-width="3" d="M240.164,-316.944C213.443,-289.012 167.914,-241.824 127.818,-202.256 113.682,-188.307 97.5878,-172.997 84.5057,-160.693"/>
<path fill="none" stroke="#eabfff" stroke-width="3" d="M241.609,-315.562C214.883,-287.623 169.353,-240.436 129.222,-200.833 115.061,-186.858 98.9662,-171.548 85.8759,-159.236"/>
<polygon fill="#eabfff" stroke="#eabfff" points="239.066,-318.4 246.617,-322.249 243.114,-314.531 239.066,-318.4"/>
<polygon fill="#cf6aff" stroke="#cf6aff" points="86.7797,-157.616 79.03,-154.184 82.9476,-161.7 86.7797,-157.616"/>
</a>
</g>
<!-- PATZ1_KLF4 -->
<g id="node17" class="node"><title>PATZ1_KLF4</title>
<a xlink:href="PATZ1_KLF4.svg" xlink:title="Z&#45;value: 1.751||remove30">
<polygon fill="#3347ff" stroke="#3347ff" stroke-width="2" points="128.7,-79.2 76.7,-79.2 64.7,-67.2 64.7,-55.2 76.7,-43.2 128.7,-43.2 140.7,-55.2 140.7,-67.2 128.7,-79.2"/>
<path fill="#3347ff" stroke="#3347ff" stroke-width="2" d="M76.7,-79.2C70.7,-79.2 64.7,-73.2 64.7,-67.2"/>
<path fill="#3347ff" stroke="#3347ff" stroke-width="2" d="M64.7,-55.2C64.7,-49.2 70.7,-43.2 76.7,-43.2"/>
<path fill="#3347ff" stroke="#3347ff" stroke-width="2" d="M128.7,-43.2C134.7,-43.2 140.7,-49.2 140.7,-55.2"/>
<path fill="#3347ff" stroke="#3347ff" stroke-width="2" d="M140.7,-67.2C140.7,-73.2 134.7,-79.2 128.7,-79.2"/>
<polyline fill="none" stroke="white" stroke-width="2" points="128.7,-79.2 76.7,-79.2 "/>
<path fill="none" stroke="white" stroke-width="2" d="M76.7,-79.2C70.7,-79.2 64.7,-73.2 64.7,-67.2"/>
<polyline fill="none" stroke="white" stroke-width="2" points="64.7,-67.2 64.7,-55.2 "/>
<path fill="none" stroke="white" stroke-width="2" d="M64.7,-55.2C64.7,-49.2 70.7,-43.2 76.7,-43.2"/>
<polyline fill="none" stroke="white" stroke-width="2" points="76.7,-43.2 128.7,-43.2 "/>
<path fill="none" stroke="white" stroke-width="2" d="M128.7,-43.2C134.7,-43.2 140.7,-49.2 140.7,-55.2"/>
<polyline fill="none" stroke="white" stroke-width="2" points="140.7,-55.2 140.7,-67.2 "/>
<path fill="none" stroke="white" stroke-width="2" d="M140.7,-67.2C140.7,-73.2 134.7,-79.2 128.7,-79.2"/>
<text text-anchor="middle" x="102.7" y="-58.7" font-family="Helvetica,sans-Serif" font-size="10.00" fill="white">PATZ1_KLF4</text>
</a>
</g>
<!-- SIN3A_CHD1&#45;&gt;PATZ1_KLF4 -->
<g id="edge18" class="edge"><title>SIN3A_CHD1&#45;&gt;PATZ1_KLF4</title>
<a xlink:title="KLF4: 0.185||PATZ1: 0.181||remove27root">
<path fill="none" stroke="#ebc1ff" stroke-width="3" d="M239.038,-322.43C207.733,-298.315 154.829,-252.463 127.925,-200.105 118.037,-180.862 109.791,-122.102 105.624,-87.4784"/>
<polygon fill="#ebc1ff" stroke="#ebc1ff" points="108.37,-86.8526 104.654,-79.2346 102.808,-87.507 108.37,-86.8526"/>
</a>
</g>
<!-- MAFB&#45;&gt;MAFB -->
<g id="edge42" class="edge"><title>MAFB&#45;&gt;MAFB</title>
<a xlink:title="MAFB: 0.024||remove6root">
<path fill="none" stroke="#eecaff" stroke-width="3" d="M204.765,-347.193C214.549,-347.338 222.525,-345.09 222.525,-340.449 222.525,-337.186 218.581,-335.106 212.839,-334.209"/>
<polygon fill="#eecaff" stroke="#eecaff" points="212.924,-331.409 204.765,-333.706 212.576,-336.998 212.924,-331.409"/>
</a>
</g>
<!-- MAFB&#45;&gt;SP3 -->
<g id="edge44" class="edge"><title>MAFB&#45;&gt;SP3</title>
<a xlink:title="SP3: 0.116||remove18">
<path fill="none" stroke="#ecc5ff" stroke-width="3" d="M150.511,-324.853C146.116,-322.315 141.512,-319.658 136.971,-317.036"/>
<polygon fill="#ecc5ff" stroke="#ecc5ff" points="138.253,-314.543 129.925,-312.968 135.453,-319.393 138.253,-314.543"/>
</a>
</g>
<!-- MAFB&#45;&gt;HOXA9 -->
<g id="edge46" class="edge"><title>MAFB&#45;&gt;HOXA9</title>
<a xlink:title="HOXA9: 0.029||remove7root">
<path fill="none" stroke="#eecaff" stroke-width="3" d="M204.745,-323.161C225.663,-310.017 255.375,-291.652 281.909,-276.369 303.439,-263.969 327.991,-250.717 347.385,-240.45"/>
<polygon fill="#eecaff" stroke="#eecaff" points="348.779,-242.88 354.548,-236.67 346.166,-237.928 348.779,-242.88"/>
</a>
</g>
<!-- MAFB&#45;&gt;BHLHE22_BHLHA15_BHLHE23 -->
<g id="edge48" class="edge"><title>MAFB&#45;&gt;BHLHE22_BHLHA15_BHLHE23</title>
<a xlink:title="BHLHE22: 0.062||remove18root">
<path fill="none" stroke="#c8ceff" stroke-width="3" d="M182.396,-322.268C190.045,-293.723 204.904,-238.267 213.706,-205.42"/>
<polygon fill="#c8ceff" stroke="#c8ceff" points="216.438,-206.039 215.805,-197.587 211.029,-204.589 216.438,-206.039"/>
</a>
</g>
<!-- MAFB&#45;&gt;POU3F3_POU3F4 -->
<g id="edge50" class="edge"><title>MAFB&#45;&gt;POU3F3_POU3F4</title>
<a xlink:title="POU3F3: 0.252||remove18">
<path fill="none" stroke="#eabeff" stroke-width="3" d="M204.551,-325.174C208.987,-323.069 213.606,-321.105 218.105,-319.569 238.48,-312.611 261.575,-307.668 282.064,-304.233"/>
<polygon fill="#eabeff" stroke="#eabeff" points="282.62,-306.98 290.074,-302.944 281.73,-301.451 282.62,-306.98"/>
</a>
</g>
<!-- MAFB&#45;&gt;RCOR1_MTA3 -->
<g id="edge52" class="edge"><title>MAFB&#45;&gt;RCOR1_MTA3</title>
<a xlink:title="RCOR1: 0.120||MTA3: 0.034||remove18">
<path fill="none" stroke="#ecc5ff" stroke-width="3" d="M173.955,-322.128C167.928,-294.327 153.842,-240.594 128.52,-201.545 118.246,-185.7 103.388,-170.943 90.0866,-159.461"/>
<polygon fill="#ecc5ff" stroke="#ecc5ff" points="91.6338,-157.104 83.7091,-154.097 88.0292,-161.39 91.6338,-157.104"/>
</a>
</g>
<!-- MAFB&#45;&gt;PATZ1_KLF4 -->
<g id="edge54" class="edge"><title>MAFB&#45;&gt;PATZ1_KLF4</title>
<a xlink:title="KLF4: 0.149||PATZ1: 0.093||MAFB: 0.456||remove18">
<path fill="none" stroke="#ecc3ff" stroke-width="3" d="M167.919,-314.932C158.43,-286.932 142.553,-240.997 127.586,-201.902 127.627,-201.662 127.475,-201.533 126.965,-200.387 115.663,-161.899 108.514,-116.026 104.808,-87.7655"/>
<path fill="none" stroke="#e6b2ff" stroke-width="3" d="M169.813,-314.291C160.32,-286.279 144.443,-240.343 129.454,-201.187 128.918,-200.134 128.765,-200.005 128.884,-199.823 117.639,-161.591 110.491,-115.718 106.791,-87.5055"/>
<polygon fill="#e6b2ff" stroke="#e6b2ff" points="166.27,-315.674 171.483,-322.357 171.575,-313.882 166.27,-315.674"/>
<polygon fill="#ecc3ff" stroke="#ecc3ff" points="108.548,-87.0492 104.76,-79.4665 102.992,-87.756 108.548,-87.0492"/>
</a>
</g>
<!-- HOXA6 -->
<g id="node21" class="node"><title>HOXA6</title>
<a xlink:href="HOXA6.svg" xlink:title="Z&#45;value: 0.453||remove16">
<polygon fill="#a4adff" stroke="#a4adff" stroke-width="2" points="278.925,-36 248.925,-36 236.925,-24 236.925,-12 248.925,-0 278.925,-0 290.925,-12 290.925,-24 278.925,-36"/>
<path fill="#a4adff" stroke="#a4adff" stroke-width="2" d="M248.925,-36C242.925,-36 236.925,-30 236.925,-24"/>
<path fill="#a4adff" stroke="#a4adff" stroke-width="2" d="M236.925,-12C236.925,-6 242.925,-0 248.925,-0"/>
<path fill="#a4adff" stroke="#a4adff" stroke-width="2" d="M278.925,-0C284.925,-0 290.925,-6 290.925,-12"/>
<path fill="#a4adff" stroke="#a4adff" stroke-width="2" d="M290.925,-24C290.925,-30 284.925,-36 278.925,-36"/>
<polyline fill="none" stroke="white" stroke-width="2" points="278.925,-36 248.925,-36 "/>
<path fill="none" stroke="white" stroke-width="2" d="M248.925,-36C242.925,-36 236.925,-30 236.925,-24"/>
<polyline fill="none" stroke="white" stroke-width="2" points="236.925,-24 236.925,-12 "/>
<path fill="none" stroke="white" stroke-width="2" d="M236.925,-12C236.925,-6 242.925,-0 248.925,-0"/>
<polyline fill="none" stroke="white" stroke-width="2" points="248.925,-0 278.925,-0 "/>
<path fill="none" stroke="white" stroke-width="2" d="M278.925,-0C284.925,-0 290.925,-6 290.925,-12"/>
<polyline fill="none" stroke="white" stroke-width="2" points="290.925,-12 290.925,-24 "/>
<path fill="none" stroke="white" stroke-width="2" d="M290.925,-24C290.925,-30 284.925,-36 278.925,-36"/>
<text text-anchor="middle" x="263.925" y="-15.5" font-family="Helvetica,sans-Serif" font-size="10.00">HOXA6</text>
</a>
</g>
<!-- MAFB&#45;&gt;HOXA6 -->
<g id="edge40" class="edge"><title>MAFB&#45;&gt;HOXA6</title>
<a xlink:title="HOXA6: 0.004||remove1root">
<path fill="none" stroke="#eecbff" stroke-width="3" d="M204.767,-322.505C237.755,-298.954 291.617,-254.194 313.525,-200.105 335.459,-145.949 302.772,-78.884 280.914,-43.1687"/>
<polygon fill="#eecbff" stroke="#eecbff" points="283.063,-41.3257 276.438,-36.0393 278.32,-44.3034 283.063,-41.3257"/>
</a>
</g>
<!-- RREB1 -->
<g id="node31" class="node"><title>RREB1</title>
<a xlink:href="RREB1.svg" xlink:title="Z&#45;value: 0.513||remove26">
<polygon fill="#9fa8ff" stroke="#9fa8ff" stroke-width="2" points="396.949,-154.025 366.949,-154.025 354.949,-142.025 354.949,-130.025 366.949,-118.025 396.949,-118.025 408.949,-130.025 408.949,-142.025 396.949,-154.025"/>
<path fill="#9fa8ff" stroke="#9fa8ff" stroke-width="2" d="M366.949,-154.025C360.949,-154.025 354.949,-148.025 354.949,-142.025"/>
<path fill="#9fa8ff" stroke="#9fa8ff" stroke-width="2" d="M354.949,-130.025C354.949,-124.025 360.949,-118.025 366.949,-118.025"/>
<path fill="#9fa8ff" stroke="#9fa8ff" stroke-width="2" d="M396.949,-118.025C402.949,-118.025 408.949,-124.025 408.949,-130.025"/>
<path fill="#9fa8ff" stroke="#9fa8ff" stroke-width="2" d="M408.949,-142.025C408.949,-148.025 402.949,-154.025 396.949,-154.025"/>
<polyline fill="none" stroke="white" stroke-width="2" points="396.949,-154.025 366.949,-154.025 "/>
<path fill="none" stroke="white" stroke-width="2" d="M366.949,-154.025C360.949,-154.025 354.949,-148.025 354.949,-142.025"/>
<polyline fill="none" stroke="white" stroke-width="2" points="354.949,-142.025 354.949,-130.025 "/>
<path fill="none" stroke="white" stroke-width="2" d="M354.949,-130.025C354.949,-124.025 360.949,-118.025 366.949,-118.025"/>
<polyline fill="none" stroke="white" stroke-width="2" points="366.949,-118.025 396.949,-118.025 "/>
<path fill="none" stroke="white" stroke-width="2" d="M396.949,-118.025C402.949,-118.025 408.949,-124.025 408.949,-130.025"/>
<polyline fill="none" stroke="white" stroke-width="2" points="408.949,-130.025 408.949,-142.025 "/>
<path fill="none" stroke="white" stroke-width="2" d="M408.949,-142.025C408.949,-148.025 402.949,-154.025 396.949,-154.025"/>
<text text-anchor="middle" x="381.949" y="-133.525" font-family="Helvetica,sans-Serif" font-size="10.00">RREB1</text>
</a>
</g>
<!-- MAFB&#45;&gt;RREB1 -->
<g id="edge38" class="edge"><title>MAFB&#45;&gt;RREB1</title>
<a xlink:title="RREB1: 0.067||remove18">
<path fill="none" stroke="#edc8ff" stroke-width="3" d="M195.666,-322.308C232.641,-285.333 316.709,-201.265 358.067,-159.907"/>
<polygon fill="#edc8ff" stroke="#edc8ff" points="360.172,-161.762 363.849,-154.125 356.212,-157.802 360.172,-161.762"/>
</a>
</g>
<!-- SP3&#45;&gt;BHLHE22_BHLHA15_BHLHE23 -->
<g id="edge76" class="edge"><title>SP3&#45;&gt;BHLHE22_BHLHA15_BHLHE23</title>
<a xlink:title="BHLHA15: 0.251||BHLHE22: 0.019||remove28root">
<path fill="none" stroke="#bec4ff" stroke-width="3" d="M120.883,-279.067C141.302,-258.648 174.513,-225.437 196.969,-202.98"/>
<polygon fill="#bec4ff" stroke="#bec4ff" points="199.038,-204.871 202.715,-197.234 195.078,-200.911 199.038,-204.871"/>
</a>
</g>
<!-- SP3&#45;&gt;PATZ1_KLF4 -->
<g id="edge78" class="edge"><title>SP3&#45;&gt;PATZ1_KLF4</title>
<a xlink:title="PATZ1: 0.077||KLF4: 0.020||remove20root">
<path fill="none" stroke="#edc7ff" stroke-width="3" d="M113.942,-279.027C119.523,-268.909 125.67,-255.86 128.52,-243.305 132.628,-225.205 132.135,-219.749 128.52,-201.545 128.385,-200.865 128.12,-200.769 127.925,-200.105 116.651,-161.745 109.503,-115.872 105.8,-87.6355"/>
<polygon fill="#edc7ff" stroke="#edc7ff" points="108.548,-87.0492 104.76,-79.4665 102.992,-87.756 108.548,-87.0492"/>
</a>
</g>
<!-- SP4_PML -->
<g id="node19" class="node"><title>SP4_PML</title>
<a xlink:href="SP4_PML.svg" xlink:title="Z&#45;value: 1.603||remove24">
<polygon fill="#3f53ff" stroke="#3f53ff" stroke-width="2" points="195.775,-36 159.275,-36 147.275,-24 147.275,-12 159.275,-6.39488e-14 195.775,-6.39488e-14 207.775,-12 207.775,-24 195.775,-36"/>
<path fill="#3f53ff" stroke="#3f53ff" stroke-width="2" d="M159.275,-36C153.275,-36 147.275,-30 147.275,-24"/>
<path fill="#3f53ff" stroke="#3f53ff" stroke-width="2" d="M147.275,-12C147.275,-6 153.275,-6.39488e-14 159.275,-6.39488e-14"/>
<path fill="#3f53ff" stroke="#3f53ff" stroke-width="2" d="M195.775,-6.39488e-14C201.775,-6.39488e-14 207.775,-6 207.775,-12"/>
<path fill="#3f53ff" stroke="#3f53ff" stroke-width="2" d="M207.775,-24C207.775,-30 201.775,-36 195.775,-36"/>
<polyline fill="none" stroke="white" stroke-width="2" points="195.775,-36 159.275,-36 "/>
<path fill="none" stroke="white" stroke-width="2" d="M159.275,-36C153.275,-36 147.275,-30 147.275,-24"/>
<polyline fill="none" stroke="white" stroke-width="2" points="147.275,-24 147.275,-12 "/>
<path fill="none" stroke="white" stroke-width="2" d="M147.275,-12C147.275,-6 153.275,-6.39488e-14 159.275,-6.39488e-14"/>
<polyline fill="none" stroke="white" stroke-width="2" points="159.275,-6.39488e-14 195.775,-6.39488e-14 "/>
<path fill="none" stroke="white" stroke-width="2" d="M195.775,-6.39488e-14C201.775,-6.39488e-14 207.775,-6 207.775,-12"/>
<polyline fill="none" stroke="white" stroke-width="2" points="207.775,-12 207.775,-24 "/>
<path fill="none" stroke="white" stroke-width="2" d="M207.775,-24C207.775,-30 201.775,-36 195.775,-36"/>
<text text-anchor="middle" x="177.525" y="-15.5" font-family="Helvetica,sans-Serif" font-size="10.00" fill="white">SP4_PML</text>
</a>
</g>
<!-- SP3&#45;&gt;SP4_PML -->
<g id="edge74" class="edge"><title>SP3&#45;&gt;SP4_PML</title>
<a xlink:title="SP4: 0.099||remove21root">
<path fill="none" stroke="#ecc6ff" stroke-width="3" d="M113.942,-279.027C119.523,-268.909 125.67,-255.86 128.52,-243.305 132.628,-225.205 132.135,-219.749 128.52,-201.545 128.385,-200.865 128.059,-200.784 127.925,-200.105 124.31,-181.9 124.787,-176.638 127.925,-158.345 135.042,-116.849 153.188,-71.3287 165.444,-43.7124"/>
<polygon fill="#ecc6ff" stroke="#ecc6ff" points="168.15,-44.5226 168.884,-36.0787 163.044,-42.2214 168.15,-44.5226"/>
</a>
</g>
<!-- SP3&#45;&gt;RREB1 -->
<g id="edge72" class="edge"><title>SP3&#45;&gt;RREB1</title>
<a xlink:title="RREB1: 0.003||remove0root">
<path fill="none" stroke="#eecbff" stroke-width="3" d="M129.766,-287.976C171.34,-273.049 252.501,-241.158 313.525,-200.105 330.352,-188.784 347.009,-173.302 359.675,-160.391"/>
<polygon fill="#eecbff" stroke="#eecbff" points="362.021,-161.993 365.556,-154.29 357.988,-158.107 362.021,-161.993"/>
</a>
</g>
<!-- MAZ_ZNF281_GTF2F1&#45;&gt;MAFB -->
<g id="edge24" class="edge"><title>MAZ_ZNF281_GTF2F1&#45;&gt;MAFB</title>
<a xlink:title="MAFB: 0.013||remove4root">
<path fill="none" stroke="#eecbff" stroke-width="3" d="M89.3119,-240.517C103.752,-250.113 120.785,-262.729 134.02,-276.369 145.292,-287.986 155.582,-302.846 163.322,-315.331"/>
<polygon fill="#eecbff" stroke="#eecbff" points="161.038,-316.966 167.572,-322.365 165.831,-314.07 161.038,-316.966"/>
</a>
</g>
<!-- MAZ_ZNF281_GTF2F1&#45;&gt;SP3 -->
<g id="edge28" class="edge"><title>MAZ_ZNF281_GTF2F1&#45;&gt;SP3</title>
<a xlink:title="SP3: 0.445||MAZ: 0.613||ZNF281: 0.232||GTF2F1: 0.026||remove19">
<path fill="none" stroke="#e6b3ff" stroke-width="3" d="M74.9726,-247.224C79.5129,-255.088 84.5153,-263.752 89.0494,-271.606"/>
<path fill="none" stroke="#e3aaff" stroke-width="3" d="M73.2406,-248.224C77.7809,-256.088 82.7833,-264.752 87.3174,-272.606"/>
<polygon fill="#e3aaff" stroke="#e3aaff" points="76.3824,-246.066 69.9575,-240.538 71.5327,-248.866 76.3824,-246.066"/>
<polygon fill="#e6b3ff" stroke="#e6b3ff" points="85.7641,-273.516 92.1891,-279.044 90.6139,-270.715 85.7641,-273.516"/>
</a>
</g>
<!-- MAZ_ZNF281_GTF2F1&#45;&gt;MAZ_ZNF281_GTF2F1 -->
<g id="edge30" class="edge"><title>MAZ_ZNF281_GTF2F1&#45;&gt;MAZ_ZNF281_GTF2F1</title>
<a xlink:title="MAZ: 0.032||remove8root">
<path fill="none" stroke="#eecaff" stroke-width="3" d="M118.904,-228.753C129.281,-227.909 136.5,-225.8 136.5,-222.425 136.5,-220.052 132.931,-218.304 127.205,-217.183"/>
<polygon fill="#eecaff" stroke="#eecaff" points="127.2,-214.358 118.904,-216.096 126.473,-219.911 127.2,-214.358"/>
</a>
</g>
<!-- MAZ_ZNF281_GTF2F1&#45;&gt;BHLHE22_BHLHA15_BHLHE23 -->
<g id="edge32" class="edge"><title>MAZ_ZNF281_GTF2F1&#45;&gt;BHLHE22_BHLHA15_BHLHE23</title>
<a xlink:title="BHLHE22: 0.065||remove19root">
<path fill="none" stroke="#c8cdff" stroke-width="3" d="M119.076,-206.461C127.748,-204.138 136.77,-201.72 145.699,-199.328"/>
<polygon fill="#c8cdff" stroke="#c8cdff" points="146.509,-202.009 153.512,-197.234 145.06,-196.6 146.509,-202.009"/>
</a>
</g>
<!-- MAZ_ZNF281_GTF2F1&#45;&gt;POU3F3_POU3F4 -->
<g id="edge34" class="edge"><title>MAZ_ZNF281_GTF2F1&#45;&gt;POU3F3_POU3F4</title>
<a xlink:title="POU3F3: 0.355||remove19">
<path fill="none" stroke="#e8b8ff" stroke-width="3" d="M119.063,-238.385C167.215,-251.287 234.554,-269.33 281.951,-282.03"/>
<polygon fill="#e8b8ff" stroke="#e8b8ff" points="281.517,-284.813 289.969,-284.179 282.967,-279.403 281.517,-284.813"/>
</a>
</g>
<!-- MAZ_ZNF281_GTF2F1&#45;&gt;RCOR1_MTA3 -->
<g id="edge36" class="edge"><title>MAZ_ZNF281_GTF2F1&#45;&gt;RCOR1_MTA3</title>
<a xlink:title="RCOR1: 0.132||MTA3: 0.104||MAZ: 0.067||remove19">
<path fill="none" stroke="#ecc4ff" stroke-width="3" d="M58.5,-196.029C58.5,-185.292 58.5,-172.913 58.5,-162.198"/>
<path fill="none" stroke="#edc8ff" stroke-width="3" d="M60.5,-196.029C60.5,-185.292 60.5,-172.913 60.5,-162.198"/>
<polygon fill="#edc8ff" stroke="#edc8ff" points="56.7001,-196.101 59.5,-204.101 62.3001,-196.101 56.7001,-196.101"/>
<polygon fill="#ecc4ff" stroke="#ecc4ff" points="62.3001,-162.025 59.5,-154.025 56.7001,-162.025 62.3001,-162.025"/>
</a>
</g>
<!-- MAZ_ZNF281_GTF2F1&#45;&gt;SP4_PML -->
<g id="edge20" class="edge"><title>MAZ_ZNF281_GTF2F1&#45;&gt;SP4_PML</title>
<a xlink:title="SP4: 0.088||MAZ: 1.400||ZNF281: 0.058||remove19">
<path fill="none" stroke="#edc7ff" stroke-width="3" d="M78.0717,-197.326C87.2305,-185.29 98.068,-170.362 106.792,-156.375 126.538,-124.811 128.995,-115.379 145.886,-81.6319 152.229,-68.9776 159.069,-54.7794 164.679,-42.9782"/>
<path fill="none" stroke="#d67eff" stroke-width="3" d="M79.6633,-198.537C88.8489,-186.465 99.6865,-171.537 108.488,-157.434 128.473,-125.315 130.93,-115.883 147.674,-82.5281 154.031,-69.8456 160.871,-55.6474 166.486,-43.8369"/>
<polygon fill="#d67eff" stroke="#d67eff" points="76.6215,-196.259 73.967,-204.308 81.0619,-199.671 76.6215,-196.259"/>
<polygon fill="#edc7ff" stroke="#edc7ff" points="168.181,-44.4634 169.076,-36.035 163.12,-42.0655 168.181,-44.4634"/>
</a>
</g>
<!-- MAZ_ZNF281_GTF2F1&#45;&gt;HOXA6 -->
<g id="edge22" class="edge"><title>MAZ_ZNF281_GTF2F1&#45;&gt;HOXA6</title>
<a xlink:title="HOXA6: 0.021||remove5root">
<path fill="none" stroke="#eecaff" stroke-width="3" d="M77.6413,-204.283C114.616,-167.309 198.684,-83.2404 240.042,-41.8821"/>
<polygon fill="#eecaff" stroke="#eecaff" points="242.147,-43.7375 245.824,-36.1007 238.187,-39.7776 242.147,-43.7375"/>
</a>
</g>
<!-- IKZF1 -->
<g id="node24" class="node"><title>IKZF1</title>
<a xlink:href="IKZF1.svg" xlink:title="Z&#45;value: 1.300||remove22">
<polygon fill="#5a6aff" stroke="#5a6aff" stroke-width="2" points="353.749,-79.2 323.749,-79.2 311.749,-67.2 311.749,-55.2 323.749,-43.2 353.749,-43.2 365.749,-55.2 365.749,-67.2 353.749,-79.2"/>
<path fill="#5a6aff" stroke="#5a6aff" stroke-width="2" d="M323.749,-79.2C317.749,-79.2 311.749,-73.2 311.749,-67.2"/>
<path fill="#5a6aff" stroke="#5a6aff" stroke-width="2" d="M311.749,-55.2C311.749,-49.2 317.749,-43.2 323.749,-43.2"/>
<path fill="#5a6aff" stroke="#5a6aff" stroke-width="2" d="M353.749,-43.2C359.749,-43.2 365.749,-49.2 365.749,-55.2"/>
<path fill="#5a6aff" stroke="#5a6aff" stroke-width="2" d="M365.749,-67.2C365.749,-73.2 359.749,-79.2 353.749,-79.2"/>
<polyline fill="none" stroke="white" stroke-width="2" points="353.749,-79.2 323.749,-79.2 "/>
<path fill="none" stroke="white" stroke-width="2" d="M323.749,-79.2C317.749,-79.2 311.749,-73.2 311.749,-67.2"/>
<polyline fill="none" stroke="white" stroke-width="2" points="311.749,-67.2 311.749,-55.2 "/>
<path fill="none" stroke="white" stroke-width="2" d="M311.749,-55.2C311.749,-49.2 317.749,-43.2 323.749,-43.2"/>
<polyline fill="none" stroke="white" stroke-width="2" points="323.749,-43.2 353.749,-43.2 "/>
<path fill="none" stroke="white" stroke-width="2" d="M353.749,-43.2C359.749,-43.2 365.749,-49.2 365.749,-55.2"/>
<polyline fill="none" stroke="white" stroke-width="2" points="365.749,-55.2 365.749,-67.2 "/>
<path fill="none" stroke="white" stroke-width="2" d="M365.749,-67.2C365.749,-73.2 359.749,-79.2 353.749,-79.2"/>
<text text-anchor="middle" x="338.749" y="-58.7" font-family="Helvetica,sans-Serif" font-size="10.00" fill="white">IKZF1</text>
</a>
</g>
<!-- MAZ_ZNF281_GTF2F1&#45;&gt;IKZF1 -->
<g id="edge26" class="edge"><title>MAZ_ZNF281_GTF2F1&#45;&gt;IKZF1</title>
<a xlink:title="IKZF1: 0.001||MAZ: 0.119||ZNF281: 0.033||remove19">
<path fill="none" stroke="#eecbff" stroke-width="3" d="M81.0599,-197.358C93.7592,-184.415 110.417,-168.932 127.366,-157.515 184.997,-118.77 260.292,-88.2425 303.635,-72.3312"/>
<path fill="none" stroke="#ecc5ff" stroke-width="3" d="M82.4875,-198.758C95.1208,-185.88 111.778,-170.397 128.483,-159.174 185.748,-120.623 261.043,-90.0959 304.324,-74.2087"/>
<polygon fill="#ecc5ff" stroke="#ecc5ff" points="79.4285,-196.456 75.8931,-204.16 83.4607,-200.342 79.4285,-196.456"/>
<polygon fill="#eecbff" stroke="#eecbff" points="305.119,-75.8351 311.683,-70.4728 303.208,-70.5713 305.119,-75.8351"/>
</a>
</g>
<!-- BHLHE22_BHLHA15_BHLHE23&#45;&gt;HOXA9 -->
<g id="edge90" class="edge"><title>BHLHE22_BHLHA15_BHLHE23&#45;&gt;HOXA9</title>
<a xlink:title="HOXA9: 0.256||remove29root">
<path fill="none" stroke="#ffbdbd" stroke-width="3" d="M288.164,-197.295C308.334,-202.7 329.635,-208.407 346.83,-213.014"/>
<polygon fill="#ffbdbd" stroke="#ffbdbd" points="346.466,-215.816 354.918,-215.182 347.916,-210.407 346.466,-215.816"/>
</a>
</g>
<!-- BHLHE22_BHLHA15_BHLHE23&#45;&gt;POU3F3_POU3F4 -->
<g id="edge92" class="edge"><title>BHLHE22_BHLHA15_BHLHE23&#45;&gt;POU3F3_POU3F4</title>
<a xlink:title="POU3F3: 0.179||remove25root">
<path fill="none" stroke="#ffc2c2" stroke-width="3" d="M238.907,-197.407C259.326,-217.826 292.537,-251.037 314.994,-273.494"/>
<polygon fill="#ffc2c2" stroke="#ffc2c2" points="313.103,-275.563 320.74,-279.24 317.063,-271.603 313.103,-275.563"/>
</a>
</g>
<!-- RCOR1_MTA3&#45;&gt;SP3 -->
<g id="edge62" class="edge"><title>RCOR1_MTA3&#45;&gt;SP3</title>
<a xlink:title="SP3: 0.797||MTA3: 1.158||remove28">
<path fill="none" stroke="#e0a0ff" stroke-width="3" d="M94.88,-158.585C108.32,-169.711 122.072,-184.156 129.439,-201.15 139.341,-224.869 129.665,-252.621 119.407,-272.437"/>
<path fill="none" stroke="#da8cff" stroke-width="3" d="M93.6052,-160.126C106.871,-171.09 120.623,-185.535 127.601,-201.939 137.453,-224.21 127.777,-251.963 117.631,-271.517"/>
<polygon fill="#da8cff" stroke="#da8cff" points="95.7594,-156.985 87.7502,-154.211 92.2817,-161.374 95.7594,-156.985"/>
<polygon fill="#e0a0ff" stroke="#e0a0ff" points="116.006,-270.738 114.623,-279.1 120.919,-273.425 116.006,-270.738"/>
</a>
</g>
<!-- RCOR1_MTA3&#45;&gt;HOXA9 -->
<g id="edge64" class="edge"><title>RCOR1_MTA3&#45;&gt;HOXA9</title>
<a xlink:title="HOXA9: 0.010||remove2root">
<path fill="none" stroke="#eecbff" stroke-width="3" d="M73.0197,-154.163C85.4503,-169.316 105.338,-190.014 127.925,-200.105 200.484,-232.519 296.185,-230.45 346.898,-226.319"/>
<polygon fill="#eecbff" stroke="#eecbff" points="347.212,-229.103 354.937,-225.616 346.724,-223.524 347.212,-229.103"/>
</a>
</g>
<!-- RCOR1_MTA3&#45;&gt;BHLHE22_BHLHA15_BHLHE23 -->
<g id="edge66" class="edge"><title>RCOR1_MTA3&#45;&gt;BHLHE22_BHLHA15_BHLHE23</title>
<a xlink:title="BHLHA15: 1.112||BHLHE23: 0.176||BHLHE22: 0.098||remove32root">
<path fill="none" stroke="#8e9aff" stroke-width="3" d="M101.019,-147.15C114.605,-150.79 130.146,-154.954 145.431,-159.05"/>
<polygon fill="#8e9aff" stroke="#8e9aff" points="144.937,-161.816 153.389,-161.182 146.386,-156.407 144.937,-161.816"/>
</a>
</g>
<!-- RCOR1_MTA3&#45;&gt;RCOR1_MTA3 -->
<g id="edge68" class="edge"><title>RCOR1_MTA3&#45;&gt;RCOR1_MTA3</title>
<a xlink:title="RCOR1: 1.276||remove32">
<path fill="none" stroke="#d885ff" stroke-width="3" d="M100.855,-142.669C110.971,-142.177 118.5,-139.962 118.5,-136.025 118.5,-133.256 114.778,-131.339 109.051,-130.274"/>
<polygon fill="#d885ff" stroke="#d885ff" points="109.111,-127.464 100.855,-129.38 108.504,-133.031 109.111,-127.464"/>
</a>
</g>
<!-- RCOR1_MTA3&#45;&gt;PATZ1_KLF4 -->
<g id="edge70" class="edge"><title>RCOR1_MTA3&#45;&gt;PATZ1_KLF4</title>
<a xlink:title="KLF4: 0.403||PATZ1: 0.041||MTA3: 1.111||remove30">
<path fill="none" stroke="#e7b5ff" stroke-width="3" d="M73.2406,-110.225C77.7809,-102.361 82.7833,-93.6968 87.3174,-85.8435"/>
<path fill="none" stroke="#db8eff" stroke-width="3" d="M74.9726,-111.225C79.5129,-103.361 84.5153,-94.6968 89.0494,-86.8435"/>
<polygon fill="#db8eff" stroke="#db8eff" points="71.5327,-109.583 69.9575,-117.912 76.3824,-112.383 71.5327,-109.583"/>
<polygon fill="#e7b5ff" stroke="#e7b5ff" points="90.6139,-87.7337 92.1891,-79.4055 85.7641,-84.9337 90.6139,-87.7337"/>
</a>
</g>
<!-- RCOR1_MTA3&#45;&gt;SP4_PML -->
<g id="edge56" class="edge"><title>RCOR1_MTA3&#45;&gt;SP4_PML</title>
<a xlink:title="PML: 0.283||MTA3: 0.757||remove24">
<path fill="none" stroke="#e9bcff" stroke-width="3" d="M105.534,-113.028C119.826,-104.612 134.839,-93.9024 146.036,-81.4114 155.791,-70.6149 163.168,-55.8345 168.176,-43.3204"/>
<path fill="none" stroke="#e1a2ff" stroke-width="3" d="M106.549,-114.751C120.988,-106.24 136,-95.5305 147.524,-82.7486 157.581,-71.5081 164.958,-56.7277 170.033,-44.0639"/>
<polygon fill="#e1a2ff" stroke="#e1a2ff" points="104.628,-111.472 99.0598,-117.863 107.398,-116.339 104.628,-111.472"/>
<polygon fill="#e9bcff" stroke="#e9bcff" points="171.731,-44.6634 171.943,-36.1902 166.493,-42.6814 171.731,-44.6634"/>
</a>
</g>
<!-- RCOR1_MTA3&#45;&gt;HOXA6 -->
<g id="edge58" class="edge"><title>RCOR1_MTA3&#45;&gt;HOXA6</title>
<a xlink:title="HOXA6: 0.048||remove12root">
<path fill="none" stroke="#edc9ff" stroke-width="3" d="M90.9933,-117.842C128.528,-96.1711 191.019,-60.0918 229.713,-37.752"/>
<polygon fill="#edc9ff" stroke="#edc9ff" points="231.122,-40.172 236.65,-33.7471 228.322,-35.3223 231.122,-40.172"/>
</a>
</g>
<!-- RCOR1_MTA3&#45;&gt;IKZF1 -->
<g id="edge60" class="edge"><title>RCOR1_MTA3&#45;&gt;IKZF1</title>
<a xlink:title="IKZF1: 0.518||RCOR1: 0.141||MTA3: 0.016||remove22">
<path fill="none" stroke="#e5afff" stroke-width="3" d="M108.814,-121.776C164.701,-106.801 254.16,-82.8305 303.311,-69.6604"/>
<path fill="none" stroke="#ecc4ff" stroke-width="3" d="M109.331,-123.708C165.218,-108.733 254.677,-84.7623 303.828,-71.5923"/>
<polygon fill="#ecc4ff" stroke="#ecc4ff" points="108.008,-120.128 101.005,-124.903 109.457,-125.537 108.008,-120.128"/>
<polygon fill="#e5afff" stroke="#e5afff" points="304.388,-73.3059 311.391,-68.5306 302.939,-67.8967 304.388,-73.3059"/>
</a>
</g>
<!-- PATZ1_KLF4&#45;&gt;MAZ_ZNF281_GTF2F1 -->
<g id="edge82" class="edge"><title>PATZ1_KLF4&#45;&gt;MAZ_ZNF281_GTF2F1</title>
<a xlink:title="MAZ: 0.544||ZNF281: 0.083||GTF2F1: 0.003||remove19">
<path fill="none" stroke="#e5aeff" stroke-width="3" d="M107.449,-79.3513C111.723,-98.992 116.141,-130.977 107.64,-156.905 102.668,-172.069 92.6976,-186.619 83.114,-198.139"/>
<polygon fill="#e5aeff" stroke="#e5aeff" points="80.9777,-196.329 77.8638,-204.212 85.214,-199.991 80.9777,-196.329"/>
</a>
</g>
<!-- PATZ1_KLF4&#45;&gt;BHLHE22_BHLHA15_BHLHE23 -->
<g id="edge84" class="edge"><title>PATZ1_KLF4&#45;&gt;BHLHE22_BHLHA15_BHLHE23</title>
<a xlink:title="BHLHA15: 0.296||remove30root">
<path fill="none" stroke="#bbc2ff" stroke-width="3" d="M120.883,-79.3827C141.302,-99.8017 174.513,-133.013 196.969,-155.469"/>
<polygon fill="#bbc2ff" stroke="#bbc2ff" points="195.078,-157.538 202.715,-161.215 199.038,-153.578 195.078,-157.538"/>
</a>
</g>
<!-- PATZ1_KLF4&#45;&gt;POU3F3_POU3F4 -->
<g id="edge86" class="edge"><title>PATZ1_KLF4&#45;&gt;POU3F3_POU3F4</title>
<a xlink:title="POU3F3: 0.287||remove25">
<path fill="none" stroke="#e9bcff" stroke-width="3" d="M105.031,-79.2206C109.745,-114.621 120.586,-190.636 127.925,-200.105 165.692,-248.835 233.609,-274.016 282.154,-286.39"/>
<polygon fill="#e9bcff" stroke="#e9bcff" points="281.636,-289.146 290.073,-288.34 282.974,-283.709 281.636,-289.146"/>
</a>
</g>
<!-- PATZ1_KLF4&#45;&gt;PATZ1_KLF4 -->
<g id="edge88" class="edge"><title>PATZ1_KLF4&#45;&gt;PATZ1_KLF4</title>
<a xlink:title="PATZ1: 0.441||KLF4: 0.051||remove30">
<path fill="none" stroke="#e6b3ff" stroke-width="3" d="M140.914,-67.8907C151.035,-67.5084 158.7,-65.2781 158.7,-61.2 158.7,-58.3326 154.91,-56.3787 149.142,-55.3384"/>
<polygon fill="#e6b3ff" stroke="#e6b3ff" points="149.154,-52.5256 140.914,-54.5093 148.593,-58.0974 149.154,-52.5256"/>
</a>
</g>
<!-- PATZ1_KLF4&#45;&gt;RREB1 -->
<g id="edge80" class="edge"><title>PATZ1_KLF4&#45;&gt;RREB1</title>
<a xlink:title="RREB1: 0.216||remove26">
<path fill="none" stroke="#eac0ff" stroke-width="3" d="M140.943,-71.4472C195.248,-85.9981 293.945,-112.444 346.612,-126.556"/>
<polygon fill="#eac0ff" stroke="#eac0ff" points="346.204,-129.345 354.656,-128.711 347.654,-123.936 346.204,-129.345"/>
</a>
</g>
<!-- SP4_PML&#45;&gt;SIN3A_CHD1 -->
<g id="edge112" class="edge"><title>SP4_PML&#45;&gt;SIN3A_CHD1</title>
<a xlink:title="SIN3A: 0.124||remove23root">
<path fill="none" stroke="#ecc5ff" stroke-width="3" d="M168.884,-36.0787C156.878,-62.3027 135.744,-112.753 127.925,-158.345 124.787,-176.638 120.957,-182.902 127.925,-200.105 148.318,-250.455 196.401,-292.722 229.56,-317.321"/>
<polygon fill="#ecc5ff" stroke="#ecc5ff" points="228.279,-319.852 236.394,-322.299 231.576,-315.326 228.279,-319.852"/>
</a>
</g>
<!-- SP4_PML&#45;&gt;HOXA9 -->
<g id="edge108" class="edge"><title>SP4_PML&#45;&gt;HOXA9</title>
<a xlink:title="HOXA9: 0.013||remove3root">
<path fill="none" stroke="#eecbff" stroke-width="3" d="M195.666,-36.1413C232.641,-73.116 316.709,-157.184 358.067,-198.542"/>
<polygon fill="#eecbff" stroke="#eecbff" points="356.212,-200.647 363.849,-204.324 360.172,-196.687 356.212,-200.647"/>
</a>
</g>
<!-- SP4_PML&#45;&gt;BHLHE22_BHLHA15_BHLHE23 -->
<g id="edge110" class="edge"><title>SP4_PML&#45;&gt;BHLHE22_BHLHA15_BHLHE23</title>
<a xlink:title="BHLHE23: 0.138||BHLHE22: 0.092||remove24root">
<path fill="none" stroke="#c4caff" stroke-width="3" d="M182.396,-36.1811C190.045,-64.7264 204.904,-120.183 213.706,-153.029"/>
<polygon fill="#c4caff" stroke="#c4caff" points="211.029,-153.86 215.805,-160.863 216.438,-152.41 211.029,-153.86"/>
</a>
</g>
<!-- SP4_PML&#45;&gt;PATZ1_KLF4 -->
<g id="edge114" class="edge"><title>SP4_PML&#45;&gt;PATZ1_KLF4</title>
<a xlink:title="PATZ1: 0.058||remove15root">
<path fill="none" stroke="#edc8ff" stroke-width="3" d="M147.091,-35.5711C145.25,-36.634 143.385,-37.7103 141.516,-38.7894"/>
<polygon fill="#edc8ff" stroke="#edc8ff" points="139.852,-36.517 134.324,-42.9419 142.652,-41.3668 139.852,-36.517"/>
</a>
</g>
<!-- SP4_PML&#45;&gt;SP4_PML -->
<g id="edge106" class="edge"><title>SP4_PML&#45;&gt;SP4_PML</title>
<a xlink:title="SP4: 0.061||remove17root">
<path fill="none" stroke="#edc8ff" stroke-width="3" d="M207.992,-24.7484C217.773,-24.6791 225.525,-22.4297 225.525,-18 225.525,-14.8854 221.692,-12.8486 216.017,-11.8898"/>
<polygon fill="#edc8ff" stroke="#edc8ff" points="216.189,-9.09468 207.992,-11.2516 215.745,-14.6771 216.189,-9.09468"/>
</a>
</g>
<!-- SP4_PML&#45;&gt;RREB1 -->
<g id="edge104" class="edge"><title>SP4_PML&#45;&gt;RREB1</title>
<a xlink:title="RREB1: 0.179||remove24">
<path fill="none" stroke="#ebc2ff" stroke-width="3" d="M208.129,-35.6695C245.563,-57.2817 308.747,-93.7614 347.747,-116.278"/>
<polygon fill="#ebc2ff" stroke="#ebc2ff" points="346.408,-118.738 354.736,-120.313 349.208,-113.888 346.408,-118.738"/>
</a>
</g>
<!-- HOXA6&#45;&gt;BHLHE22_BHLHA15_BHLHE23 -->
<g id="edge116" class="edge"><title>HOXA6&#45;&gt;BHLHE22_BHLHA15_BHLHE23</title>
<a xlink:title="BHLHE22: 0.059||remove16root">
<path fill="none" stroke="#c8ceff" stroke-width="3" d="M259.053,-36.1811C251.404,-64.7264 236.545,-120.183 227.744,-153.029"/>
<polygon fill="#c8ceff" stroke="#c8ceff" points="225.011,-152.41 225.645,-160.863 230.42,-153.86 225.011,-152.41"/>
</a>
</g>
<!-- IKZF1&#45;&gt;SIN3A_CHD1 -->
<g id="edge100" class="edge"><title>IKZF1&#45;&gt;SIN3A_CHD1</title>
<a xlink:title="SIN3A: 0.037||remove10root">
<path fill="none" stroke="#eec9ff" stroke-width="3" d="M336.694,-79.4681C333.393,-106.304 325.984,-157.783 313.525,-200.105 303.162,-235.303 293.914,-241.696 281.909,-276.369 277.65,-288.67 273.657,-302.554 270.52,-314.246"/>
<polygon fill="#eec9ff" stroke="#eec9ff" points="267.724,-313.868 268.396,-322.318 273.14,-315.294 267.724,-313.868"/>
</a>
</g>
<!-- IKZF1&#45;&gt;BHLHE22_BHLHA15_BHLHE23 -->
<g id="edge98" class="edge"><title>IKZF1&#45;&gt;BHLHE22_BHLHA15_BHLHE23</title>
<a xlink:title="BHLHA15: 0.105||BHLHE23: 0.056||remove22root">
<path fill="none" stroke="#c6cbff" stroke-width="3" d="M320.567,-79.3827C300.148,-99.8017 266.937,-133.013 244.48,-155.469"/>
<polygon fill="#c6cbff" stroke="#c6cbff" points="242.411,-153.578 238.734,-161.215 246.371,-157.538 242.411,-153.578"/>
</a>
</g>
<!-- IKZF1&#45;&gt;PATZ1_KLF4 -->
<g id="edge102" class="edge"><title>IKZF1&#45;&gt;PATZ1_KLF4</title>
<a xlink:title="PATZ1: 0.034||remove9root">
<path fill="none" stroke="#eecaff" stroke-width="3" d="M311.671,-61.2C271.948,-61.2 197.35,-61.2 148.868,-61.2"/>
<polygon fill="#eecaff" stroke="#eecaff" points="148.728,-58.4001 140.728,-61.2 148.728,-64.0001 148.728,-58.4001"/>
</a>
</g>
<!-- RREB1&#45;&gt;SIN3A_CHD1 -->
<g id="edge96" class="edge"><title>RREB1&#45;&gt;SIN3A_CHD1</title>
<a xlink:title="CHD1: 0.044||remove11root">
<path fill="none" stroke="#edc9ff" stroke-width="3" d="M365.781,-154.223C343.846,-179.795 304.776,-228.598 281.909,-276.369 276.194,-288.309 271.992,-302.396 269.094,-314.316"/>
<polygon fill="#edc9ff" stroke="#edc9ff" points="266.352,-313.747 267.293,-322.17 271.81,-314.998 266.352,-313.747"/>
</a>
</g>
<!-- RREB1&#45;&gt;BHLHE22_BHLHA15_BHLHE23 -->
<g id="edge94" class="edge"><title>RREB1&#45;&gt;BHLHE22_BHLHA15_BHLHE23</title>
<a xlink:title="BHLHA15: 0.181||remove26root">
<path fill="none" stroke="#c2c8ff" stroke-width="3" d="M354.6,-143.353C338.428,-147.686 317.08,-153.406 296.195,-159.002"/>
<polygon fill="#c2c8ff" stroke="#c2c8ff" points="295.227,-156.363 288.224,-161.138 296.676,-161.772 295.227,-156.363"/>
</a>
</g>
</g>
</svg>
