<?xml version="1.0" encoding="UTF-8" standalone="no"?>
<!DOCTYPE svg PUBLIC "-//W3C//DTD SVG 1.1//EN"
 "http://www.w3.org/Graphics/SVG/1.1/DTD/svg11.dtd">
<!-- Generated by graphviz version 2.28.0 (20110630.0925)
 -->
<!-- Title: _anonymous_0 Pages: 1 -->
<svg width="490pt" height="380pt"
 viewBox="0.00 0.00 489.88 379.88" xmlns="http://www.w3.org/2000/svg" xmlns:xlink="http://www.w3.org/1999/xlink">
<g id="graph1" class="graph" transform="scale(1 1) rotate(0) translate(4 375.885)">
<title>_anonymous_0</title>
<polygon fill="white" stroke="white" points="-4,5 -4,-375.885 486.885,-375.885 486.885,5 -4,5"/>
<!-- ESRRA_ESR2 -->
<g id="node1" class="node"><title>ESRRA_ESR2</title>
<a xlink:href="ESRRA_ESR2.svg" xlink:title="Z&#45;value: 3.814||remove26">
<polygon fill="#3247ff" stroke="#3247ff" stroke-width="2" points="221.192,-371.885 162.692,-371.885 150.692,-359.885 150.692,-347.885 162.692,-335.885 221.192,-335.885 233.192,-347.885 233.192,-359.885 221.192,-371.885"/>
<path fill="#3247ff" stroke="#3247ff" stroke-width="2" d="M162.692,-371.885C156.692,-371.885 150.692,-365.885 150.692,-359.885"/>
<path fill="#3247ff" stroke="#3247ff" stroke-width="2" d="M150.692,-347.885C150.692,-341.885 156.692,-335.885 162.692,-335.885"/>
<path fill="#3247ff" stroke="#3247ff" stroke-width="2" d="M221.192,-335.885C227.192,-335.885 233.192,-341.885 233.192,-347.885"/>
<path fill="#3247ff" stroke="#3247ff" stroke-width="2" d="M233.192,-359.885C233.192,-365.885 227.192,-371.885 221.192,-371.885"/>
<polyline fill="none" stroke="white" stroke-width="2" points="221.192,-371.885 162.692,-371.885 "/>
<path fill="none" stroke="white" stroke-width="2" d="M162.692,-371.885C156.692,-371.885 150.692,-365.885 150.692,-359.885"/>
<polyline fill="none" stroke="white" stroke-width="2" points="150.692,-359.885 150.692,-347.885 "/>
<path fill="none" stroke="white" stroke-width="2" d="M150.692,-347.885C150.692,-341.885 156.692,-335.885 162.692,-335.885"/>
<polyline fill="none" stroke="white" stroke-width="2" points="162.692,-335.885 221.192,-335.885 "/>
<path fill="none" stroke="white" stroke-width="2" d="M221.192,-335.885C227.192,-335.885 233.192,-341.885 233.192,-347.885"/>
<polyline fill="none" stroke="white" stroke-width="2" points="233.192,-347.885 233.192,-359.885 "/>
<path fill="none" stroke="white" stroke-width="2" d="M233.192,-359.885C233.192,-365.885 227.192,-371.885 221.192,-371.885"/>
<text text-anchor="middle" x="191.942" y="-351.385" font-family="Helvetica,sans-Serif" font-size="10.00" fill="white">ESRRA_ESR2</text>
</a>
</g>
<!-- MAZ_ZNF281_GTF2F1 -->
<g id="node2" class="node"><title>MAZ_ZNF281_GTF2F1</title>
<a xlink:href="MAZ_ZNF281_GTF2F1.svg" xlink:title="Z&#45;value: 1.186||remove21">
<polygon fill="#9ca6ff" stroke="#9ca6ff" stroke-width="2" points="161.25,-326.885 66.75,-326.885 54.75,-314.885 54.75,-302.885 66.75,-290.885 161.25,-290.885 173.25,-302.885 173.25,-314.885 161.25,-326.885"/>
<path fill="#9ca6ff" stroke="#9ca6ff" stroke-width="2" d="M66.75,-326.885C60.75,-326.885 54.75,-320.885 54.75,-314.885"/>
<path fill="#9ca6ff" stroke="#9ca6ff" stroke-width="2" d="M54.75,-302.885C54.75,-296.885 60.75,-290.885 66.75,-290.885"/>
<path fill="#9ca6ff" stroke="#9ca6ff" stroke-width="2" d="M161.25,-290.885C167.25,-290.885 173.25,-296.885 173.25,-302.885"/>
<path fill="#9ca6ff" stroke="#9ca6ff" stroke-width="2" d="M173.25,-314.885C173.25,-320.885 167.25,-326.885 161.25,-326.885"/>
<polyline fill="none" stroke="white" stroke-width="2" points="161.25,-326.885 66.75,-326.885 "/>
<path fill="none" stroke="white" stroke-width="2" d="M66.75,-326.885C60.75,-326.885 54.75,-320.885 54.75,-314.885"/>
<polyline fill="none" stroke="white" stroke-width="2" points="54.75,-314.885 54.75,-302.885 "/>
<path fill="none" stroke="white" stroke-width="2" d="M54.75,-302.885C54.75,-296.885 60.75,-290.885 66.75,-290.885"/>
<polyline fill="none" stroke="white" stroke-width="2" points="66.75,-290.885 161.25,-290.885 "/>
<path fill="none" stroke="white" stroke-width="2" d="M161.25,-290.885C167.25,-290.885 173.25,-296.885 173.25,-302.885"/>
<polyline fill="none" stroke="white" stroke-width="2" points="173.25,-302.885 173.25,-314.885 "/>
<path fill="none" stroke="white" stroke-width="2" d="M173.25,-314.885C173.25,-320.885 167.25,-326.885 161.25,-326.885"/>
<text text-anchor="middle" x="114" y="-306.385" font-family="Helvetica,sans-Serif" font-size="10.00">MAZ_ZNF281_GTF2F1</text>
</a>
</g>
<!-- ESRRA_ESR2&#45;&gt;MAZ_ZNF281_GTF2F1 -->
<g id="edge2" class="edge"><title>ESRRA_ESR2&#45;&gt;MAZ_ZNF281_GTF2F1</title>
<a xlink:title="MAZ: 0.212||ESRRA: 0.138||ESR2: 0.009||remove21">
<path fill="none" stroke="#e7b4ff" stroke-width="3" d="M152.96,-332.532C152.616,-332.334 152.273,-332.136 151.929,-331.937"/>
<path fill="none" stroke="#e9bcff" stroke-width="3" d="M153.96,-330.801C153.616,-330.602 153.273,-330.404 152.929,-330.206"/>
<polygon fill="#e9bcff" stroke="#e9bcff" points="152.361,-334.265 160.689,-335.841 155.161,-329.416 152.361,-334.265"/>
<polygon fill="#e7b4ff" stroke="#e7b4ff" points="153.588,-328.508 145.26,-326.933 150.788,-333.357 153.588,-328.508"/>
</a>
</g>
<!-- ZNF711_TFAP2A_TFAP2D -->
<g id="node4" class="node"><title>ZNF711_TFAP2A_TFAP2D</title>
<a xlink:href="ZNF711_TFAP2A_TFAP2D.svg" xlink:title="Z&#45;value: 2.387||remove28">
<polygon fill="#6c7aff" stroke="#6c7aff" stroke-width="2" points="126,-248.942 12,-248.942 -2.84217e-14,-236.942 -2.84217e-14,-224.942 12,-212.942 126,-212.942 138,-224.942 138,-236.942 126,-248.942"/>
<path fill="#6c7aff" stroke="#6c7aff" stroke-width="2" d="M12,-248.942C6,-248.942 -2.84217e-14,-242.942 -2.84217e-14,-236.942"/>
<path fill="#6c7aff" stroke="#6c7aff" stroke-width="2" d="M-2.84217e-14,-224.942C-2.84217e-14,-218.942 6,-212.942 12,-212.942"/>
<path fill="#6c7aff" stroke="#6c7aff" stroke-width="2" d="M126,-212.942C132,-212.942 138,-218.942 138,-224.942"/>
<path fill="#6c7aff" stroke="#6c7aff" stroke-width="2" d="M138,-236.942C138,-242.942 132,-248.942 126,-248.942"/>
<polyline fill="none" stroke="white" stroke-width="2" points="126,-248.942 12,-248.942 "/>
<path fill="none" stroke="white" stroke-width="2" d="M12,-248.942C6,-248.942 -2.84217e-14,-242.942 -2.84217e-14,-236.942"/>
<polyline fill="none" stroke="white" stroke-width="2" points="-2.84217e-14,-236.942 -2.84217e-14,-224.942 "/>
<path fill="none" stroke="white" stroke-width="2" d="M-2.84217e-14,-224.942C-2.84217e-14,-218.942 6,-212.942 12,-212.942"/>
<polyline fill="none" stroke="white" stroke-width="2" points="12,-212.942 126,-212.942 "/>
<path fill="none" stroke="white" stroke-width="2" d="M126,-212.942C132,-212.942 138,-218.942 138,-224.942"/>
<polyline fill="none" stroke="white" stroke-width="2" points="138,-224.942 138,-236.942 "/>
<path fill="none" stroke="white" stroke-width="2" d="M138,-236.942C138,-242.942 132,-248.942 126,-248.942"/>
<text text-anchor="middle" x="69" y="-228.442" font-family="Helvetica,sans-Serif" font-size="10.00" fill="white">ZNF711_TFAP2A_TFAP2D</text>
</a>
</g>
<!-- ESRRA_ESR2&#45;&gt;ZNF711_TFAP2A_TFAP2D -->
<g id="edge4" class="edge"><title>ESRRA_ESR2&#45;&gt;ZNF711_TFAP2A_TFAP2D</title>
<a xlink:title="TFAP2A: 0.583||ZNF711: 0.025||ESRRA: 0.732||ESR2: 0.005||remove26">
<path fill="none" stroke="#da8cff" stroke-width="3" d="M192.889,-327.614C192.576,-314.758 190.127,-299.485 182.207,-288.586 171.352,-273.305 154.804,-261.768 137.859,-253.366"/>
<path fill="none" stroke="#d57bff" stroke-width="3" d="M194.888,-327.564C194.551,-314.441 192.102,-299.168 183.833,-287.423 172.496,-271.665 155.948,-260.127 138.749,-251.574"/>
<polygon fill="#d57bff" stroke="#d57bff" points="191.088,-327.713 193.834,-335.731 196.688,-327.75 191.088,-327.713"/>
<polygon fill="#da8cff" stroke="#da8cff" points="139.401,-249.892 130.97,-249.021 137.018,-254.959 139.401,-249.892"/>
</a>
</g>
<!-- CREB5_CREM_JUNB -->
<g id="node6" class="node"><title>CREB5_CREM_JUNB</title>
<a xlink:href="CREB5_CREM_JUNB.svg" xlink:title="Z&#45;value: 0.521||remove22">
<polygon fill="#b7beff" stroke="#b7beff" stroke-width="2" points="451.885,-248.942 357.885,-248.942 345.885,-236.942 345.885,-224.942 357.885,-212.942 451.885,-212.942 463.885,-224.942 463.885,-236.942 451.885,-248.942"/>
<path fill="#b7beff" stroke="#b7beff" stroke-width="2" d="M357.885,-248.942C351.885,-248.942 345.885,-242.942 345.885,-236.942"/>
<path fill="#b7beff" stroke="#b7beff" stroke-width="2" d="M345.885,-224.942C345.885,-218.942 351.885,-212.942 357.885,-212.942"/>
<path fill="#b7beff" stroke="#b7beff" stroke-width="2" d="M451.885,-212.942C457.885,-212.942 463.885,-218.942 463.885,-224.942"/>
<path fill="#b7beff" stroke="#b7beff" stroke-width="2" d="M463.885,-236.942C463.885,-242.942 457.885,-248.942 451.885,-248.942"/>
<polyline fill="none" stroke="white" stroke-width="2" points="451.885,-248.942 357.885,-248.942 "/>
<path fill="none" stroke="white" stroke-width="2" d="M357.885,-248.942C351.885,-248.942 345.885,-242.942 345.885,-236.942"/>
<polyline fill="none" stroke="white" stroke-width="2" points="345.885,-236.942 345.885,-224.942 "/>
<path fill="none" stroke="white" stroke-width="2" d="M345.885,-224.942C345.885,-218.942 351.885,-212.942 357.885,-212.942"/>
<polyline fill="none" stroke="white" stroke-width="2" points="357.885,-212.942 451.885,-212.942 "/>
<path fill="none" stroke="white" stroke-width="2" d="M451.885,-212.942C457.885,-212.942 463.885,-218.942 463.885,-224.942"/>
<polyline fill="none" stroke="white" stroke-width="2" points="463.885,-224.942 463.885,-236.942 "/>
<path fill="none" stroke="white" stroke-width="2" d="M463.885,-236.942C463.885,-242.942 457.885,-248.942 451.885,-248.942"/>
<text text-anchor="middle" x="404.885" y="-228.442" font-family="Helvetica,sans-Serif" font-size="10.00">CREB5_CREM_JUNB</text>
</a>
</g>
<!-- ESRRA_ESR2&#45;&gt;CREB5_CREM_JUNB -->
<g id="edge6" class="edge"><title>ESRRA_ESR2&#45;&gt;CREB5_CREM_JUNB</title>
<a xlink:title="CREM: 0.038||remove5root">
<path fill="none" stroke="#edc7ff" stroke-width="3" d="M223.363,-335.744C261.452,-313.753 325.613,-276.71 366.567,-253.065"/>
<polygon fill="#edc7ff" stroke="#edc7ff" points="368.154,-255.382 373.682,-248.957 365.354,-250.532 368.154,-255.382"/>
</a>
</g>
<!-- RCOR1_MTA3 -->
<g id="node8" class="node"><title>RCOR1_MTA3</title>
<a xlink:href="RCOR1_MTA3.svg" xlink:title="Z&#45;value: 1.731||remove24">
<polygon fill="#8692ff" stroke="#8692ff" stroke-width="2" points="98.25,-158.942 39.75,-158.942 27.75,-146.942 27.75,-134.942 39.75,-122.942 98.25,-122.942 110.25,-134.942 110.25,-146.942 98.25,-158.942"/>
<path fill="#8692ff" stroke="#8692ff" stroke-width="2" d="M39.75,-158.942C33.75,-158.942 27.75,-152.942 27.75,-146.942"/>
<path fill="#8692ff" stroke="#8692ff" stroke-width="2" d="M27.75,-134.942C27.75,-128.942 33.75,-122.942 39.75,-122.942"/>
<path fill="#8692ff" stroke="#8692ff" stroke-width="2" d="M98.25,-122.942C104.25,-122.942 110.25,-128.942 110.25,-134.942"/>
<path fill="#8692ff" stroke="#8692ff" stroke-width="2" d="M110.25,-146.942C110.25,-152.942 104.25,-158.942 98.25,-158.942"/>
<polyline fill="none" stroke="white" stroke-width="2" points="98.25,-158.942 39.75,-158.942 "/>
<path fill="none" stroke="white" stroke-width="2" d="M39.75,-158.942C33.75,-158.942 27.75,-152.942 27.75,-146.942"/>
<polyline fill="none" stroke="white" stroke-width="2" points="27.75,-146.942 27.75,-134.942 "/>
<path fill="none" stroke="white" stroke-width="2" d="M27.75,-134.942C27.75,-128.942 33.75,-122.942 39.75,-122.942"/>
<polyline fill="none" stroke="white" stroke-width="2" points="39.75,-122.942 98.25,-122.942 "/>
<path fill="none" stroke="white" stroke-width="2" d="M98.25,-122.942C104.25,-122.942 110.25,-128.942 110.25,-134.942"/>
<polyline fill="none" stroke="white" stroke-width="2" points="110.25,-134.942 110.25,-146.942 "/>
<path fill="none" stroke="white" stroke-width="2" d="M110.25,-146.942C110.25,-152.942 104.25,-158.942 98.25,-158.942"/>
<text text-anchor="middle" x="69" y="-138.442" font-family="Helvetica,sans-Serif" font-size="10.00">RCOR1_MTA3</text>
</a>
</g>
<!-- ESRRA_ESR2&#45;&gt;RCOR1_MTA3 -->
<g id="edge8" class="edge"><title>ESRRA_ESR2&#45;&gt;RCOR1_MTA3</title>
<a xlink:title="MTA3: 0.083||ESRRA: 0.308||ESR2: 0.004||remove24">
<path fill="none" stroke="#ebc2ff" stroke-width="3" d="M189.078,-327.801C187.786,-315.621 185.619,-300.975 182.057,-288.274 171.844,-251.736 170.458,-240.614 148.235,-210.655 135.419,-193.218 117.213,-177.045 101.488,-164.816"/>
<path fill="none" stroke="#e3aaff" stroke-width="3" d="M191.066,-327.59C189.764,-315.328 187.598,-300.682 183.983,-287.735 173.828,-251.489 172.442,-240.367 149.845,-209.469 136.748,-191.722 118.542,-175.55 102.716,-163.237"/>
<polygon fill="#e3aaff" stroke="#e3aaff" points="187.29,-328.019 190.838,-335.717 192.865,-327.487 187.29,-328.019"/>
<polygon fill="#ebc2ff" stroke="#ebc2ff" points="103.575,-161.629 95.5122,-159.013 100.184,-166.086 103.575,-161.629"/>
</a>
</g>
<!-- CTCF_CTCFL -->
<g id="node10" class="node"><title>CTCF_CTCFL</title>
<a xlink:href="CTCF_CTCFL.svg" xlink:title="Z&#45;value: 0.599||remove35">
<polygon fill="#ffb3b3" stroke="#ffb3b3" stroke-width="2" points="265.192,-203.942 208.692,-203.942 196.692,-191.942 196.692,-179.942 208.692,-167.942 265.192,-167.942 277.192,-179.942 277.192,-191.942 265.192,-203.942"/>
<path fill="#ffb3b3" stroke="#ffb3b3" stroke-width="2" d="M208.692,-203.942C202.692,-203.942 196.692,-197.942 196.692,-191.942"/>
<path fill="#ffb3b3" stroke="#ffb3b3" stroke-width="2" d="M196.692,-179.942C196.692,-173.942 202.692,-167.942 208.692,-167.942"/>
<path fill="#ffb3b3" stroke="#ffb3b3" stroke-width="2" d="M265.192,-167.942C271.192,-167.942 277.192,-173.942 277.192,-179.942"/>
<path fill="#ffb3b3" stroke="#ffb3b3" stroke-width="2" d="M277.192,-191.942C277.192,-197.942 271.192,-203.942 265.192,-203.942"/>
<polyline fill="none" stroke="white" stroke-width="2" points="265.192,-203.942 208.692,-203.942 "/>
<path fill="none" stroke="white" stroke-width="2" d="M208.692,-203.942C202.692,-203.942 196.692,-197.942 196.692,-191.942"/>
<polyline fill="none" stroke="white" stroke-width="2" points="196.692,-191.942 196.692,-179.942 "/>
<path fill="none" stroke="white" stroke-width="2" d="M196.692,-179.942C196.692,-173.942 202.692,-167.942 208.692,-167.942"/>
<polyline fill="none" stroke="white" stroke-width="2" points="208.692,-167.942 265.192,-167.942 "/>
<path fill="none" stroke="white" stroke-width="2" d="M265.192,-167.942C271.192,-167.942 277.192,-173.942 277.192,-179.942"/>
<polyline fill="none" stroke="white" stroke-width="2" points="277.192,-179.942 277.192,-191.942 "/>
<path fill="none" stroke="white" stroke-width="2" d="M277.192,-191.942C277.192,-197.942 271.192,-203.942 265.192,-203.942"/>
<text text-anchor="middle" x="236.942" y="-183.442" font-family="Helvetica,sans-Serif" font-size="10.00">CTCF_CTCFL</text>
</a>
</g>
<!-- ESRRA_ESR2&#45;&gt;CTCF_CTCFL -->
<g id="edge10" class="edge"><title>ESRRA_ESR2&#45;&gt;CTCF_CTCFL</title>
<a xlink:title="CTCFL: 0.007||ESRRA: 0.187||remove26root">
<path fill="none" stroke="#cbd0ff" stroke-width="3" d="M197.956,-327.577C206.416,-296.004 220.586,-243.123 229.03,-211.606"/>
<path fill="none" stroke="#ffb7b7" stroke-width="3" d="M199.888,-328.095C208.348,-296.521 222.517,-243.64 230.962,-212.124"/>
<polygon fill="#ffb7b7" stroke="#ffb7b7" points="196.21,-327.14 196.844,-335.592 201.619,-328.589 196.21,-327.14"/>
<polygon fill="#cbd0ff" stroke="#cbd0ff" points="232.749,-212.41 232.115,-203.958 227.34,-210.961 232.749,-212.41"/>
</a>
</g>
<!-- ZIC3_ZIC4 -->
<g id="node12" class="node"><title>ZIC3_ZIC4</title>
<a xlink:href="ZIC3_ZIC4.svg" xlink:title="Z&#45;value: 1.042||remove32">
<polygon fill="#a2abff" stroke="#a2abff" stroke-width="2" points="134.25,-81 93.75,-81 81.75,-69 81.75,-57 93.75,-45 134.25,-45 146.25,-57 146.25,-69 134.25,-81"/>
<path fill="#a2abff" stroke="#a2abff" stroke-width="2" d="M93.75,-81C87.75,-81 81.75,-75 81.75,-69"/>
<path fill="#a2abff" stroke="#a2abff" stroke-width="2" d="M81.75,-57C81.75,-51 87.75,-45 93.75,-45"/>
<path fill="#a2abff" stroke="#a2abff" stroke-width="2" d="M134.25,-45C140.25,-45 146.25,-51 146.25,-57"/>
<path fill="#a2abff" stroke="#a2abff" stroke-width="2" d="M146.25,-69C146.25,-75 140.25,-81 134.25,-81"/>
<polyline fill="none" stroke="white" stroke-width="2" points="134.25,-81 93.75,-81 "/>
<path fill="none" stroke="white" stroke-width="2" d="M93.75,-81C87.75,-81 81.75,-75 81.75,-69"/>
<polyline fill="none" stroke="white" stroke-width="2" points="81.75,-69 81.75,-57 "/>
<path fill="none" stroke="white" stroke-width="2" d="M81.75,-57C81.75,-51 87.75,-45 93.75,-45"/>
<polyline fill="none" stroke="white" stroke-width="2" points="93.75,-45 134.25,-45 "/>
<path fill="none" stroke="white" stroke-width="2" d="M134.25,-45C140.25,-45 146.25,-51 146.25,-57"/>
<polyline fill="none" stroke="white" stroke-width="2" points="146.25,-57 146.25,-69 "/>
<path fill="none" stroke="white" stroke-width="2" d="M146.25,-69C146.25,-75 140.25,-81 134.25,-81"/>
<text text-anchor="middle" x="114" y="-60.5" font-family="Helvetica,sans-Serif" font-size="10.00">ZIC3_ZIC4</text>
</a>
</g>
<!-- ESRRA_ESR2&#45;&gt;ZIC3_ZIC4 -->
<g id="edge12" class="edge"><title>ESRRA_ESR2&#45;&gt;ZIC3_ZIC4</title>
<a xlink:title="ZIC3: 0.043||remove7root">
<path fill="none" stroke="#edc7ff" stroke-width="3" d="M190.301,-335.851C188.895,-322.532 186.535,-304.013 183.02,-288.005 166.878,-214.484 138.227,-130.261 123.429,-88.8093"/>
<polygon fill="#edc7ff" stroke="#edc7ff" points="126.001,-87.6877 120.662,-81.1051 120.731,-89.5807 126.001,-87.6877"/>
</a>
</g>
<!-- MAZ_ZNF281_GTF2F1&#45;&gt;MAZ_ZNF281_GTF2F1 -->
<g id="edge24" class="edge"><title>MAZ_ZNF281_GTF2F1&#45;&gt;MAZ_ZNF281_GTF2F1</title>
<a xlink:title="MAZ: 0.032||remove4root">
<path fill="none" stroke="#edc8ff" stroke-width="3" d="M173.404,-315.213C183.781,-314.369 191,-312.26 191,-308.885 191,-306.512 187.431,-304.764 181.705,-303.643"/>
<polygon fill="#edc8ff" stroke="#edc8ff" points="181.7,-300.818 173.404,-302.556 180.973,-306.371 181.7,-300.818"/>
</a>
</g>
<!-- MAZ_ZNF281_GTF2F1&#45;&gt;ZNF711_TFAP2A_TFAP2D -->
<g id="edge28" class="edge"><title>MAZ_ZNF281_GTF2F1&#45;&gt;ZNF711_TFAP2A_TFAP2D</title>
<a xlink:title="ZNF711: 0.008||MAZ: 1.281||ZNF281: 0.359||GTF2F1: 0.015||remove21">
<path fill="none" stroke="#eecbff" stroke-width="3" d="M98.6054,-284.22C93.535,-275.438 87.8443,-265.581 82.7655,-256.785"/>
<path fill="none" stroke="#c140ff" stroke-width="3" d="M100.337,-283.22C95.267,-274.438 89.5763,-264.581 84.4975,-255.785"/>
<polygon fill="#c140ff" stroke="#c140ff" points="97.1381,-285.279 103.563,-290.807 101.988,-282.479 97.1381,-285.279"/>
<polygon fill="#eecbff" stroke="#eecbff" points="85.9612,-254.72 79.5363,-249.192 81.1115,-257.52 85.9612,-254.72"/>
</a>
</g>
<!-- MAZ_ZNF281_GTF2F1&#45;&gt;CREB5_CREM_JUNB -->
<g id="edge32" class="edge"><title>MAZ_ZNF281_GTF2F1&#45;&gt;CREB5_CREM_JUNB</title>
<a xlink:title="CREB5: 0.157||CREM: 0.126||MAZ: 0.009||remove21">
<path fill="none" stroke="#e9baff" stroke-width="3" d="M181.114,-289.866C227.995,-277.304 290.257,-260.621 337.159,-248.054"/>
<path fill="none" stroke="#eecbff" stroke-width="3" d="M181.632,-291.798C228.513,-279.236 290.775,-262.553 337.676,-249.986"/>
<polygon fill="#eecbff" stroke="#eecbff" points="180.569,-288.148 173.567,-292.924 182.019,-293.558 180.569,-288.148"/>
<polygon fill="#e9baff" stroke="#e9baff" points="338.395,-251.657 345.397,-246.882 336.945,-246.248 338.395,-251.657"/>
</a>
</g>
<!-- MAZ_ZNF281_GTF2F1&#45;&gt;RCOR1_MTA3 -->
<g id="edge36" class="edge"><title>MAZ_ZNF281_GTF2F1&#45;&gt;RCOR1_MTA3</title>
<a xlink:title="RCOR1: 0.132||MTA3: 0.104||MAZ: 0.067||remove20root">
<path fill="none" stroke="#eabdff" stroke-width="3" d="M132.707,-283.325C145.953,-263.185 159.313,-234.075 148.131,-210.478 139.728,-191.945 123.149,-176.281 107.401,-164.735"/>
<path fill="none" stroke="#ecc4ff" stroke-width="3" d="M134.378,-284.423C147.771,-264.019 161.131,-234.91 149.949,-209.646 141.102,-190.491 124.522,-174.827 108.584,-163.123"/>
<polygon fill="#ecc4ff" stroke="#ecc4ff" points="131.105,-282.477 128.873,-290.654 135.717,-285.653 131.105,-282.477"/>
<polygon fill="#eabdff" stroke="#eabdff" points="109.426,-161.514 101.273,-159.197 106.202,-166.093 109.426,-161.514"/>
</a>
</g>
<!-- MAZ_ZNF281_GTF2F1&#45;&gt;CTCF_CTCFL -->
<g id="edge40" class="edge"><title>MAZ_ZNF281_GTF2F1&#45;&gt;CTCF_CTCFL</title>
<a xlink:title="CTCFL: 0.150||remove21root">
<path fill="none" stroke="#bbc2ff" stroke-width="3" d="M132.141,-290.744C153.569,-269.316 189.29,-233.594 212.98,-209.905"/>
<polygon fill="#bbc2ff" stroke="#bbc2ff" points="215.05,-211.794 218.727,-204.157 211.091,-207.834 215.05,-211.794"/>
</a>
</g>
<!-- CEBPB -->
<g id="node20" class="node"><title>CEBPB</title>
<a xlink:href="CEBPB.svg" xlink:title="Z&#45;value: 0.280||remove31">
<polygon fill="#c0c7ff" stroke="#c0c7ff" stroke-width="2" points="374.885,-326.885 344.885,-326.885 332.885,-314.885 332.885,-302.885 344.885,-290.885 374.885,-290.885 386.885,-302.885 386.885,-314.885 374.885,-326.885"/>
<path fill="#c0c7ff" stroke="#c0c7ff" stroke-width="2" d="M344.885,-326.885C338.885,-326.885 332.885,-320.885 332.885,-314.885"/>
<path fill="#c0c7ff" stroke="#c0c7ff" stroke-width="2" d="M332.885,-302.885C332.885,-296.885 338.885,-290.885 344.885,-290.885"/>
<path fill="#c0c7ff" stroke="#c0c7ff" stroke-width="2" d="M374.885,-290.885C380.885,-290.885 386.885,-296.885 386.885,-302.885"/>
<path fill="#c0c7ff" stroke="#c0c7ff" stroke-width="2" d="M386.885,-314.885C386.885,-320.885 380.885,-326.885 374.885,-326.885"/>
<polyline fill="none" stroke="white" stroke-width="2" points="374.885,-326.885 344.885,-326.885 "/>
<path fill="none" stroke="white" stroke-width="2" d="M344.885,-326.885C338.885,-326.885 332.885,-320.885 332.885,-314.885"/>
<polyline fill="none" stroke="white" stroke-width="2" points="332.885,-314.885 332.885,-302.885 "/>
<path fill="none" stroke="white" stroke-width="2" d="M332.885,-302.885C332.885,-296.885 338.885,-290.885 344.885,-290.885"/>
<polyline fill="none" stroke="white" stroke-width="2" points="344.885,-290.885 374.885,-290.885 "/>
<path fill="none" stroke="white" stroke-width="2" d="M374.885,-290.885C380.885,-290.885 386.885,-296.885 386.885,-302.885"/>
<polyline fill="none" stroke="white" stroke-width="2" points="386.885,-302.885 386.885,-314.885 "/>
<path fill="none" stroke="white" stroke-width="2" d="M386.885,-314.885C386.885,-320.885 380.885,-326.885 374.885,-326.885"/>
<text text-anchor="middle" x="359.885" y="-306.385" font-family="Helvetica,sans-Serif" font-size="10.00">CEBPB</text>
</a>
</g>
<!-- MAZ_ZNF281_GTF2F1&#45;&gt;CEBPB -->
<g id="edge26" class="edge"><title>MAZ_ZNF281_GTF2F1&#45;&gt;CEBPB</title>
<a xlink:title="CEBPB: 0.005||remove0root">
<path fill="none" stroke="#eecbff" stroke-width="3" d="M173.522,-308.885C220.76,-308.885 285.2,-308.885 324.603,-308.885"/>
<polygon fill="#eecbff" stroke="#eecbff" points="324.616,-311.685 332.616,-308.885 324.616,-306.085 324.616,-311.685"/>
</a>
</g>
<!-- SP3 -->
<g id="node23" class="node"><title>SP3</title>
<a xlink:href="SP3.svg" xlink:title="Z&#45;value: 1.634||remove30">
<polygon fill="#8a96ff" stroke="#8a96ff" stroke-width="2" points="206.942,-36 176.942,-36 164.942,-24 164.942,-12 176.942,-6.39488e-14 206.942,-6.39488e-14 218.942,-12 218.942,-24 206.942,-36"/>
<path fill="#8a96ff" stroke="#8a96ff" stroke-width="2" d="M176.942,-36C170.942,-36 164.942,-30 164.942,-24"/>
<path fill="#8a96ff" stroke="#8a96ff" stroke-width="2" d="M164.942,-12C164.942,-6 170.942,-6.39488e-14 176.942,-6.39488e-14"/>
<path fill="#8a96ff" stroke="#8a96ff" stroke-width="2" d="M206.942,-6.39488e-14C212.942,-6.39488e-14 218.942,-6 218.942,-12"/>
<path fill="#8a96ff" stroke="#8a96ff" stroke-width="2" d="M218.942,-24C218.942,-30 212.942,-36 206.942,-36"/>
<polyline fill="none" stroke="white" stroke-width="2" points="206.942,-36 176.942,-36 "/>
<path fill="none" stroke="white" stroke-width="2" d="M176.942,-36C170.942,-36 164.942,-30 164.942,-24"/>
<polyline fill="none" stroke="white" stroke-width="2" points="164.942,-24 164.942,-12 "/>
<path fill="none" stroke="white" stroke-width="2" d="M164.942,-12C164.942,-6 170.942,-6.39488e-14 176.942,-6.39488e-14"/>
<polyline fill="none" stroke="white" stroke-width="2" points="176.942,-6.39488e-14 206.942,-6.39488e-14 "/>
<path fill="none" stroke="white" stroke-width="2" d="M206.942,-6.39488e-14C212.942,-6.39488e-14 218.942,-6 218.942,-12"/>
<polyline fill="none" stroke="white" stroke-width="2" points="218.942,-12 218.942,-24 "/>
<path fill="none" stroke="white" stroke-width="2" d="M218.942,-24C218.942,-30 212.942,-36 206.942,-36"/>
<text text-anchor="middle" x="191.942" y="-15.5" font-family="Helvetica,sans-Serif" font-size="10.00">SP3</text>
</a>
</g>
<!-- MAZ_ZNF281_GTF2F1&#45;&gt;SP3 -->
<g id="edge30" class="edge"><title>MAZ_ZNF281_GTF2F1&#45;&gt;SP3</title>
<a xlink:title="SP3: 0.445||MAZ: 0.613||ZNF281: 0.232||GTF2F1: 0.026||remove21">
<path fill="none" stroke="#df9bff" stroke-width="3" d="M131.155,-283.539C137.376,-273.929 143.885,-262.508 148.106,-251.464 175.608,-179.816 185.783,-88.5287 189.272,-44.3287"/>
<path fill="none" stroke="#d989ff" stroke-width="3" d="M132.834,-284.625C139.113,-274.919 145.623,-263.498 149.974,-252.18 177.596,-180.037 187.771,-88.7502 191.266,-44.4861"/>
<polygon fill="#d989ff" stroke="#d989ff" points="129.64,-282.566 127.525,-290.774 134.297,-285.677 129.64,-282.566"/>
<polygon fill="#df9bff" stroke="#df9bff" points="193.077,-44.3944 190.881,-36.208 187.493,-43.9772 193.077,-44.3944"/>
</a>
</g>
<!-- TFDP1 -->
<g id="node26" class="node"><title>TFDP1</title>
<a xlink:href="TFDP1.svg" xlink:title="Z&#45;value: 1.163||remove27">
<polygon fill="#9da7ff" stroke="#9da7ff" stroke-width="2" points="296.942,-36 266.942,-36 254.942,-24 254.942,-12 266.942,-0 296.942,-0 308.942,-12 308.942,-24 296.942,-36"/>
<path fill="#9da7ff" stroke="#9da7ff" stroke-width="2" d="M266.942,-36C260.942,-36 254.942,-30 254.942,-24"/>
<path fill="#9da7ff" stroke="#9da7ff" stroke-width="2" d="M254.942,-12C254.942,-6 260.942,-0 266.942,-0"/>
<path fill="#9da7ff" stroke="#9da7ff" stroke-width="2" d="M296.942,-0C302.942,-0 308.942,-6 308.942,-12"/>
<path fill="#9da7ff" stroke="#9da7ff" stroke-width="2" d="M308.942,-24C308.942,-30 302.942,-36 296.942,-36"/>
<polyline fill="none" stroke="white" stroke-width="2" points="296.942,-36 266.942,-36 "/>
<path fill="none" stroke="white" stroke-width="2" d="M266.942,-36C260.942,-36 254.942,-30 254.942,-24"/>
<polyline fill="none" stroke="white" stroke-width="2" points="254.942,-24 254.942,-12 "/>
<path fill="none" stroke="white" stroke-width="2" d="M254.942,-12C254.942,-6 260.942,-0 266.942,-0"/>
<polyline fill="none" stroke="white" stroke-width="2" points="266.942,-0 296.942,-0 "/>
<path fill="none" stroke="white" stroke-width="2" d="M296.942,-0C302.942,-0 308.942,-6 308.942,-12"/>
<polyline fill="none" stroke="white" stroke-width="2" points="308.942,-12 308.942,-24 "/>
<path fill="none" stroke="white" stroke-width="2" d="M308.942,-24C308.942,-30 302.942,-36 296.942,-36"/>
<text text-anchor="middle" x="281.942" y="-15.5" font-family="Helvetica,sans-Serif" font-size="10.00">TFDP1</text>
</a>
</g>
<!-- MAZ_ZNF281_GTF2F1&#45;&gt;TFDP1 -->
<g id="edge34" class="edge"><title>MAZ_ZNF281_GTF2F1&#45;&gt;TFDP1</title>
<a xlink:title="TFDP1: 0.048||ZNF281: 0.203||MAZ: 0.016||remove21">
<path fill="none" stroke="#edc6ff" stroke-width="3" d="M129.352,-283.313C135.491,-273.487 142.399,-262.004 148.16,-251.347 168.319,-214.302 168.529,-202.463 189.085,-164.583 213.205,-120.418 244.971,-71.329 264.179,-42.4793"/>
<path fill="none" stroke="#e7b5ff" stroke-width="3" d="M131.048,-284.373C137.204,-274.518 144.112,-263.035 149.92,-252.298 170.319,-214.338 170.529,-202.498 190.84,-165.542 214.885,-121.504 246.65,-72.4156 265.844,-43.5878"/>
<polygon fill="#e7b5ff" stroke="#e7b5ff" points="127.785,-282.423 125.885,-290.683 132.522,-285.411 127.785,-282.423"/>
<polygon fill="#edc6ff" stroke="#edc6ff" points="267.493,-44.3604 269.611,-36.1533 262.837,-41.2484 267.493,-44.3604"/>
</a>
</g>
<!-- SP4_PML -->
<g id="node29" class="node"><title>SP4_PML</title>
<a xlink:href="SP4_PML.svg" xlink:title="Z&#45;value: 1.603||remove25">
<polygon fill="#8b97ff" stroke="#8b97ff" stroke-width="2" points="378.135,-81 341.635,-81 329.635,-69 329.635,-57 341.635,-45 378.135,-45 390.135,-57 390.135,-69 378.135,-81"/>
<path fill="#8b97ff" stroke="#8b97ff" stroke-width="2" d="M341.635,-81C335.635,-81 329.635,-75 329.635,-69"/>
<path fill="#8b97ff" stroke="#8b97ff" stroke-width="2" d="M329.635,-57C329.635,-51 335.635,-45 341.635,-45"/>
<path fill="#8b97ff" stroke="#8b97ff" stroke-width="2" d="M378.135,-45C384.135,-45 390.135,-51 390.135,-57"/>
<path fill="#8b97ff" stroke="#8b97ff" stroke-width="2" d="M390.135,-69C390.135,-75 384.135,-81 378.135,-81"/>
<polyline fill="none" stroke="white" stroke-width="2" points="378.135,-81 341.635,-81 "/>
<path fill="none" stroke="white" stroke-width="2" d="M341.635,-81C335.635,-81 329.635,-75 329.635,-69"/>
<polyline fill="none" stroke="white" stroke-width="2" points="329.635,-69 329.635,-57 "/>
<path fill="none" stroke="white" stroke-width="2" d="M329.635,-57C329.635,-51 335.635,-45 341.635,-45"/>
<polyline fill="none" stroke="white" stroke-width="2" points="341.635,-45 378.135,-45 "/>
<path fill="none" stroke="white" stroke-width="2" d="M378.135,-45C384.135,-45 390.135,-51 390.135,-57"/>
<polyline fill="none" stroke="white" stroke-width="2" points="390.135,-57 390.135,-69 "/>
<path fill="none" stroke="white" stroke-width="2" d="M390.135,-69C390.135,-75 384.135,-81 378.135,-81"/>
<text text-anchor="middle" x="359.885" y="-60.5" font-family="Helvetica,sans-Serif" font-size="10.00">SP4_PML</text>
</a>
</g>
<!-- MAZ_ZNF281_GTF2F1&#45;&gt;SP4_PML -->
<g id="edge38" class="edge"><title>MAZ_ZNF281_GTF2F1&#45;&gt;SP4_PML</title>
<a xlink:title="SP4: 0.088||MAZ: 1.400||ZNF281: 0.058||remove21">
<path fill="none" stroke="#ebc2ff" stroke-width="3" d="M164.736,-286.369C201.295,-268.926 249.861,-241.419 283.196,-206.135 315.97,-171.594 338.628,-119.683 350.125,-88.7319"/>
<path fill="none" stroke="#bd32ff" stroke-width="3" d="M165.597,-288.174C202.281,-270.667 250.846,-243.159 284.649,-207.51 317.803,-172.394 340.461,-120.483 352,-89.4284"/>
<polygon fill="#bd32ff" stroke="#bd32ff" points="163.597,-284.915 157.543,-290.847 165.975,-289.985 163.597,-284.915"/>
<polygon fill="#ebc2ff" stroke="#ebc2ff" points="353.79,-89.7722 353.883,-81.2968 348.525,-87.8642 353.79,-89.7722"/>
</a>
</g>
<!-- ZNF711_TFAP2A_TFAP2D&#45;&gt;ZNF711_TFAP2A_TFAP2D -->
<g id="edge62" class="edge"><title>ZNF711_TFAP2A_TFAP2D&#45;&gt;ZNF711_TFAP2A_TFAP2D</title>
<a xlink:title="TFAP2A: 0.506||ZNF711: 0.089||remove28">
<path fill="none" stroke="#dd94ff" stroke-width="3" d="M138.275,-237.097C148.831,-236.158 156,-234.106 156,-230.942 156,-228.668 152.297,-226.969 146.294,-225.844"/>
<polygon fill="#dd94ff" stroke="#dd94ff" points="146.572,-223.056 138.275,-224.787 145.84,-228.608 146.572,-223.056"/>
</a>
</g>
<!-- ZNF711_TFAP2A_TFAP2D&#45;&gt;CREB5_CREM_JUNB -->
<g id="edge66" class="edge"><title>ZNF711_TFAP2A_TFAP2D&#45;&gt;CREB5_CREM_JUNB</title>
<a xlink:title="CREM: 0.244||JUNB: 0.121||CREB5: 0.090||remove22">
<path fill="none" stroke="#e6b1ff" stroke-width="3" d="M138.188,-230.942C196.578,-230.942 279.669,-230.942 337.533,-230.942"/>
<polygon fill="#e6b1ff" stroke="#e6b1ff" points="337.882,-233.742 345.882,-230.942 337.882,-228.142 337.882,-233.742"/>
</a>
</g>
<!-- ZNF711_TFAP2A_TFAP2D&#45;&gt;CTCF_CTCFL -->
<g id="edge72" class="edge"><title>ZNF711_TFAP2A_TFAP2D&#45;&gt;CTCF_CTCFL</title>
<a xlink:title="CTCF: 0.238||remove28root">
<path fill="none" stroke="#b2b9ff" stroke-width="3" d="M136.341,-212.898C153.908,-208.191 172.486,-203.213 188.832,-198.833"/>
<polygon fill="#b2b9ff" stroke="#b2b9ff" points="189.66,-201.51 196.663,-196.735 188.21,-196.101 189.66,-201.51"/>
</a>
</g>
<!-- ZNF711_TFAP2A_TFAP2D&#45;&gt;TFDP1 -->
<g id="edge68" class="edge"><title>ZNF711_TFAP2A_TFAP2D&#45;&gt;TFDP1</title>
<a xlink:title="TFDP1: 0.084||ZNF711: 0.041||TFAP2A: 0.032||remove16root">
<path fill="none" stroke="#ebc2ff" stroke-width="3" d="M92.199,-206.329C133.198,-165.33 216.452,-82.0762 257.401,-41.1269"/>
<path fill="none" stroke="#edc7ff" stroke-width="3" d="M93.6132,-207.743C134.612,-166.745 217.866,-83.4904 258.815,-42.5412"/>
<polygon fill="#edc7ff" stroke="#edc7ff" points="90.8323,-205.15 87.1553,-212.787 94.7921,-209.11 90.8323,-205.15"/>
<polygon fill="#ebc2ff" stroke="#ebc2ff" points="260.156,-43.7462 263.833,-36.1094 256.196,-39.7864 260.156,-43.7462"/>
</a>
</g>
<!-- ZNF711_TFAP2A_TFAP2D&#45;&gt;SP4_PML -->
<g id="edge70" class="edge"><title>ZNF711_TFAP2A_TFAP2D&#45;&gt;SP4_PML</title>
<a xlink:title="SP4: 0.046||TFAP2A: 0.217||ZNF711: 0.116||remove25">
<path fill="none" stroke="#edc6ff" stroke-width="3" d="M107.129,-207.774C163.172,-175.417 266.372,-115.835 321.814,-83.8252"/>
<path fill="none" stroke="#e7b4ff" stroke-width="3" d="M108.129,-209.506C164.172,-177.149 267.372,-117.567 322.814,-85.5572"/>
<polygon fill="#e7b4ff" stroke="#e7b4ff" points="105.934,-206.385 100.406,-212.81 108.734,-211.235 105.934,-206.385"/>
<polygon fill="#edc6ff" stroke="#edc6ff" points="323.956,-86.9763 329.485,-80.5514 321.156,-82.1266 323.956,-86.9763"/>
</a>
</g>
<!-- PATZ1_KLF4 -->
<g id="node35" class="node"><title>PATZ1_KLF4</title>
<a xlink:href="PATZ1_KLF4.svg" xlink:title="Z&#45;value: 1.751||remove34">
<polygon fill="#8591ff" stroke="#8591ff" stroke-width="2" points="430.885,-158.942 378.885,-158.942 366.885,-146.942 366.885,-134.942 378.885,-122.942 430.885,-122.942 442.885,-134.942 442.885,-146.942 430.885,-158.942"/>
<path fill="#8591ff" stroke="#8591ff" stroke-width="2" d="M378.885,-158.942C372.885,-158.942 366.885,-152.942 366.885,-146.942"/>
<path fill="#8591ff" stroke="#8591ff" stroke-width="2" d="M366.885,-134.942C366.885,-128.942 372.885,-122.942 378.885,-122.942"/>
<path fill="#8591ff" stroke="#8591ff" stroke-width="2" d="M430.885,-122.942C436.885,-122.942 442.885,-128.942 442.885,-134.942"/>
<path fill="#8591ff" stroke="#8591ff" stroke-width="2" d="M442.885,-146.942C442.885,-152.942 436.885,-158.942 430.885,-158.942"/>
<polyline fill="none" stroke="white" stroke-width="2" points="430.885,-158.942 378.885,-158.942 "/>
<path fill="none" stroke="white" stroke-width="2" d="M378.885,-158.942C372.885,-158.942 366.885,-152.942 366.885,-146.942"/>
<polyline fill="none" stroke="white" stroke-width="2" points="366.885,-146.942 366.885,-134.942 "/>
<path fill="none" stroke="white" stroke-width="2" d="M366.885,-134.942C366.885,-128.942 372.885,-122.942 378.885,-122.942"/>
<polyline fill="none" stroke="white" stroke-width="2" points="378.885,-122.942 430.885,-122.942 "/>
<path fill="none" stroke="white" stroke-width="2" d="M430.885,-122.942C436.885,-122.942 442.885,-128.942 442.885,-134.942"/>
<polyline fill="none" stroke="white" stroke-width="2" points="442.885,-134.942 442.885,-146.942 "/>
<path fill="none" stroke="white" stroke-width="2" d="M442.885,-146.942C442.885,-152.942 436.885,-158.942 430.885,-158.942"/>
<text text-anchor="middle" x="404.885" y="-138.442" font-family="Helvetica,sans-Serif" font-size="10.00">PATZ1_KLF4</text>
</a>
</g>
<!-- ZNF711_TFAP2A_TFAP2D&#45;&gt;PATZ1_KLF4 -->
<g id="edge64" class="edge"><title>ZNF711_TFAP2A_TFAP2D&#45;&gt;PATZ1_KLF4</title>
<a xlink:title="PATZ1: 0.083||TFAP2A: 0.544||remove28">
<path fill="none" stroke="#ebc2ff" stroke-width="3" d="M101.477,-207.542C124.995,-192.652 157.847,-174.155 189.662,-164.109 246.072,-146.362 314.113,-141.299 358.421,-140.029"/>
<path fill="none" stroke="#db90ff" stroke-width="3" d="M102.547,-209.232C125.976,-194.395 158.829,-175.898 190.263,-166.016 246.221,-148.357 314.261,-143.293 358.478,-142.028"/>
<polygon fill="#db90ff" stroke="#db90ff" points="100.255,-206.188 95.0405,-212.87 103.284,-210.898 100.255,-206.188"/>
<polygon fill="#ebc2ff" stroke="#ebc2ff" points="358.772,-143.822 366.702,-140.828 358.636,-138.223 358.772,-143.822"/>
</a>
</g>
<!-- CREB5_CREM_JUNB&#45;&gt;CREB5_CREM_JUNB -->
<g id="edge82" class="edge"><title>CREB5_CREM_JUNB&#45;&gt;CREB5_CREM_JUNB</title>
<a xlink:title="CREM: 0.108||remove19root">
<path fill="none" stroke="#eac0ff" stroke-width="3" d="M463.964,-237.296C474.515,-236.47 481.885,-234.352 481.885,-230.942 481.885,-228.491 478.077,-226.708 472.018,-225.592"/>
<polygon fill="#eac0ff" stroke="#eac0ff" points="472.248,-222.799 463.964,-224.588 471.556,-228.356 472.248,-222.799"/>
</a>
</g>
<!-- IRX6_IRX4 -->
<g id="node42" class="node"><title>IRX6_IRX4</title>
<a xlink:href="IRX6_IRX4.svg" xlink:title="Z&#45;value: 0.266||remove29">
<polygon fill="#c1c7ff" stroke="#c1c7ff" stroke-width="2" points="303.192,-371.885 260.692,-371.885 248.692,-359.885 248.692,-347.885 260.692,-335.885 303.192,-335.885 315.192,-347.885 315.192,-359.885 303.192,-371.885"/>
<path fill="#c1c7ff" stroke="#c1c7ff" stroke-width="2" d="M260.692,-371.885C254.692,-371.885 248.692,-365.885 248.692,-359.885"/>
<path fill="#c1c7ff" stroke="#c1c7ff" stroke-width="2" d="M248.692,-347.885C248.692,-341.885 254.692,-335.885 260.692,-335.885"/>
<path fill="#c1c7ff" stroke="#c1c7ff" stroke-width="2" d="M303.192,-335.885C309.192,-335.885 315.192,-341.885 315.192,-347.885"/>
<path fill="#c1c7ff" stroke="#c1c7ff" stroke-width="2" d="M315.192,-359.885C315.192,-365.885 309.192,-371.885 303.192,-371.885"/>
<polyline fill="none" stroke="white" stroke-width="2" points="303.192,-371.885 260.692,-371.885 "/>
<path fill="none" stroke="white" stroke-width="2" d="M260.692,-371.885C254.692,-371.885 248.692,-365.885 248.692,-359.885"/>
<polyline fill="none" stroke="white" stroke-width="2" points="248.692,-359.885 248.692,-347.885 "/>
<path fill="none" stroke="white" stroke-width="2" d="M248.692,-347.885C248.692,-341.885 254.692,-335.885 260.692,-335.885"/>
<polyline fill="none" stroke="white" stroke-width="2" points="260.692,-335.885 303.192,-335.885 "/>
<path fill="none" stroke="white" stroke-width="2" d="M303.192,-335.885C309.192,-335.885 315.192,-341.885 315.192,-347.885"/>
<polyline fill="none" stroke="white" stroke-width="2" points="315.192,-347.885 315.192,-359.885 "/>
<path fill="none" stroke="white" stroke-width="2" d="M315.192,-359.885C315.192,-365.885 309.192,-371.885 303.192,-371.885"/>
<text text-anchor="middle" x="281.942" y="-351.385" font-family="Helvetica,sans-Serif" font-size="10.00">IRX6_IRX4</text>
</a>
</g>
<!-- CREB5_CREM_JUNB&#45;&gt;IRX6_IRX4 -->
<g id="edge84" class="edge"><title>CREB5_CREM_JUNB&#45;&gt;IRX6_IRX4</title>
<a xlink:title="IRX4: 0.048||remove8root">
<path fill="none" stroke="#edc6ff" stroke-width="3" d="M376.354,-249.09C361.233,-259.463 342.88,-273.31 328.565,-288.005 316.602,-300.284 305.426,-315.873 297.016,-328.804"/>
<polygon fill="#edc6ff" stroke="#edc6ff" points="294.575,-327.424 292.641,-335.676 299.299,-330.431 294.575,-327.424"/>
</a>
</g>
<!-- RCOR1_MTA3&#45;&gt;ZNF711_TFAP2A_TFAP2D -->
<g id="edge44" class="edge"><title>RCOR1_MTA3&#45;&gt;ZNF711_TFAP2A_TFAP2D</title>
<a xlink:title="ZNF711: 0.072||TFAP2D: 0.043||TFAP2A: 0.016||MTA3: 0.723||remove24">
<path fill="none" stroke="#ecc4ff" stroke-width="3" d="M70,-167.327C70,-179.079 70,-192.886 70,-204.629"/>
<path fill="none" stroke="#d57dff" stroke-width="3" d="M68,-167.327C68,-179.079 68,-192.886 68,-204.629"/>
<polygon fill="#d57dff" stroke="#d57dff" points="71.8001,-167.155 69,-159.155 66.2001,-167.155 71.8001,-167.155"/>
<polygon fill="#ecc4ff" stroke="#ecc4ff" points="66.2001,-204.757 69,-212.757 71.8001,-204.757 66.2001,-204.757"/>
</a>
</g>
<!-- RCOR1_MTA3&#45;&gt;CREB5_CREM_JUNB -->
<g id="edge50" class="edge"><title>RCOR1_MTA3&#45;&gt;CREB5_CREM_JUNB</title>
<a xlink:title="CREM: 0.236||CREB5: 0.201||remove22">
<path fill="none" stroke="#e6b2ff" stroke-width="3" d="M95.0405,-159.015C118.675,-174.443 155.067,-195.827 189.962,-206.822 237.904,-221.928 294.478,-227.831 337.546,-230.025"/>
<polygon fill="#e6b2ff" stroke="#e6b2ff" points="337.577,-232.83 345.699,-230.405 337.838,-227.236 337.577,-232.83"/>
</a>
</g>
<!-- RCOR1_MTA3&#45;&gt;RCOR1_MTA3 -->
<g id="edge54" class="edge"><title>RCOR1_MTA3&#45;&gt;RCOR1_MTA3</title>
<a xlink:title="RCOR1: 1.276||remove24">
<path fill="none" stroke="#c240ff" stroke-width="3" d="M110.355,-147.587C120.471,-147.095 128,-144.88 128,-140.942 128,-138.174 124.278,-136.257 118.551,-135.192"/>
<polygon fill="#c240ff" stroke="#c240ff" points="118.611,-132.382 110.355,-134.298 118.004,-137.949 118.611,-132.382"/>
</a>
</g>
<!-- RCOR1_MTA3&#45;&gt;CTCF_CTCFL -->
<g id="edge58" class="edge"><title>RCOR1_MTA3&#45;&gt;CTCF_CTCFL</title>
<a xlink:title="CTCFL: 0.174||remove24root">
<path fill="none" stroke="#b9c0ff" stroke-width="3" d="M110.514,-152.066C134.179,-158.407 163.949,-166.384 188.656,-173.004"/>
<polygon fill="#b9c0ff" stroke="#b9c0ff" points="188.033,-175.736 196.486,-175.102 189.483,-170.327 188.033,-175.736"/>
</a>
</g>
<!-- RCOR1_MTA3&#45;&gt;CEBPB -->
<g id="edge42" class="edge"><title>RCOR1_MTA3&#45;&gt;CEBPB</title>
<a xlink:title="CEBPB: 0.313||remove24">
<path fill="none" stroke="#e3a9ff" stroke-width="3" d="M100.406,-159.075C155.491,-190.878 269.061,-256.447 325.908,-289.268"/>
<polygon fill="#e3a9ff" stroke="#e3a9ff" points="324.554,-291.72 332.882,-293.295 327.354,-286.87 324.554,-291.72"/>
</a>
</g>
<!-- RCOR1_MTA3&#45;&gt;SP3 -->
<g id="edge46" class="edge"><title>RCOR1_MTA3&#45;&gt;SP3</title>
<a xlink:title="SP3: 0.797||MTA3: 1.158||remove24">
<path fill="none" stroke="#d274ff" stroke-width="3" d="M108.121,-117.577C122.656,-108.142 138.639,-96.2553 150.974,-83.1928 162.091,-71.4678 171.761,-55.9415 178.772,-42.9989"/>
<path fill="none" stroke="#c64dff" stroke-width="3" d="M109.21,-119.254C123.849,-109.747 139.832,-97.8602 152.426,-84.5672 163.789,-72.5251 173.458,-56.9987 180.53,-43.9518"/>
<polygon fill="#c64dff" stroke="#c64dff" points="106.899,-116.22 101.638,-122.866 109.895,-120.951 106.899,-116.22"/>
<polygon fill="#d274ff" stroke="#d274ff" points="182.25,-44.5488 183.485,-36.1634 177.29,-41.9481 182.25,-44.5488"/>
</a>
</g>
<!-- RCOR1_MTA3&#45;&gt;TFDP1 -->
<g id="edge52" class="edge"><title>RCOR1_MTA3&#45;&gt;TFDP1</title>
<a xlink:title="TFDP1: 0.093||remove17root">
<path fill="none" stroke="#ebc1ff" stroke-width="3" d="M100.42,-122.802C139.819,-100.055 207.114,-61.2021 247.765,-37.7323"/>
<polygon fill="#ebc1ff" stroke="#ebc1ff" points="249.259,-40.1029 254.787,-33.678 246.459,-35.2532 249.259,-40.1029"/>
</a>
</g>
<!-- RCOR1_MTA3&#45;&gt;SP4_PML -->
<g id="edge56" class="edge"><title>RCOR1_MTA3&#45;&gt;SP4_PML</title>
<a xlink:title="PML: 0.283||MTA3: 0.757||remove24">
<path fill="none" stroke="#e4adff" stroke-width="3" d="M117.99,-126.78C175.299,-111.424 268.73,-86.3894 321.036,-72.3742"/>
<path fill="none" stroke="#d479ff" stroke-width="3" d="M118.508,-128.712C175.816,-113.356 269.248,-88.3212 321.553,-74.3061"/>
<polygon fill="#d479ff" stroke="#d479ff" points="117.37,-125.083 110.368,-129.858 118.82,-130.492 117.37,-125.083"/>
<polygon fill="#e4adff" stroke="#e4adff" points="322.322,-75.9638 329.324,-71.1886 320.872,-70.5546 322.322,-75.9638"/>
</a>
</g>
<!-- RCOR1_MTA3&#45;&gt;PATZ1_KLF4 -->
<g id="edge48" class="edge"><title>RCOR1_MTA3&#45;&gt;PATZ1_KLF4</title>
<a xlink:title="KLF4: 0.403||PATZ1: 0.041||MTA3: 1.111||remove24">
<path fill="none" stroke="#e09fff" stroke-width="3" d="M118.912,-139.942C183.664,-139.942 295.759,-139.942 358.655,-139.942"/>
<path fill="none" stroke="#c752ff" stroke-width="3" d="M118.912,-141.942C183.664,-141.942 295.759,-141.942 358.655,-141.942"/>
<polygon fill="#c752ff" stroke="#c752ff" points="118.523,-138.142 110.523,-140.942 118.523,-143.742 118.523,-138.142"/>
<polygon fill="#e09fff" stroke="#e09fff" points="358.82,-143.742 366.82,-140.942 358.82,-138.142 358.82,-143.742"/>
</a>
</g>
<!-- RCOR1_MTA3&#45;&gt;IRX6_IRX4 -->
<g id="edge60" class="edge"><title>RCOR1_MTA3&#45;&gt;IRX6_IRX4</title>
<a xlink:title="IRX6: 0.366||IRX4: 0.091||remove24">
<path fill="none" stroke="#e1a4ff" stroke-width="3" d="M91.3302,-159.074C107.721,-172.655 130.297,-191.94 149.04,-210.062 190.395,-250.049 235.142,-300.007 260.731,-329.286"/>
<polygon fill="#e1a4ff" stroke="#e1a4ff" points="258.832,-331.369 266.198,-335.562 263.054,-327.69 258.832,-331.369"/>
</a>
</g>
<!-- CTCF_CTCFL&#45;&gt;CREB5_CREM_JUNB -->
<g id="edge76" class="edge"><title>CTCF_CTCFL&#45;&gt;CREB5_CREM_JUNB</title>
<a xlink:title="CREM: 0.159||remove22root">
<path fill="none" stroke="#ffbaba" stroke-width="3" d="M277.596,-196.836C295.759,-201.702 317.645,-207.567 338.108,-213.05"/>
<polygon fill="#ffbaba" stroke="#ffbaba" points="337.418,-215.763 345.87,-215.129 338.867,-210.354 337.418,-215.763"/>
</a>
</g>
<!-- CTCF_CTCFL&#45;&gt;CTCF_CTCFL -->
<g id="edge78" class="edge"><title>CTCF_CTCFL&#45;&gt;CTCF_CTCFL</title>
<a xlink:title="CTCFL: 0.026||remove3root">
<path fill="none" stroke="#ffc9c9" stroke-width="3" d="M277.329,-192.6C287.408,-192.134 294.942,-189.915 294.942,-185.942 294.942,-183.149 291.218,-181.223 285.502,-180.163"/>
<polygon fill="#ffc9c9" stroke="#ffc9c9" points="285.583,-177.356 277.329,-179.285 284.984,-182.924 285.583,-177.356"/>
</a>
</g>
<!-- CTCF_CTCFL&#45;&gt;CEBPB -->
<g id="edge74" class="edge"><title>CTCF_CTCFL&#45;&gt;CEBPB</title>
<a xlink:title="CEBPB: 0.363||remove31root">
<path fill="none" stroke="#ffa4a4" stroke-width="3" d="M255.083,-204.083C276.511,-225.511 312.232,-261.232 335.922,-284.922"/>
<polygon fill="#ffa4a4" stroke="#ffa4a4" points="334.033,-286.993 341.67,-290.67 337.993,-283.033 334.033,-286.993"/>
</a>
</g>
<!-- CTCF_CTCFL&#45;&gt;IRX6_IRX4 -->
<g id="edge80" class="edge"><title>CTCF_CTCFL&#45;&gt;IRX6_IRX4</title>
<a xlink:title="IRX6: 0.272||remove29root">
<path fill="none" stroke="#ffaeae" stroke-width="3" d="M241.844,-204.235C249.845,-234.094 265.739,-293.412 274.931,-327.719"/>
<polygon fill="#ffaeae" stroke="#ffaeae" points="272.34,-328.866 277.115,-335.869 277.749,-327.417 272.34,-328.866"/>
</a>
</g>
<!-- ZIC3_ZIC4&#45;&gt;MAZ_ZNF281_GTF2F1 -->
<g id="edge14" class="edge"><title>ZIC3_ZIC4&#45;&gt;MAZ_ZNF281_GTF2F1</title>
<a xlink:title="MAZ: 0.042||ZIC3: 0.008||remove6root">
<path fill="none" stroke="#edc7ff" stroke-width="3" d="M127.181,-88.5859C142.871,-125.385 166.126,-194.38 150.002,-252.094 146.687,-263.735 140.452,-275.134 134.083,-284.775"/>
<path fill="none" stroke="#eecbff" stroke-width="3" d="M125.341,-89.3704C140.975,-126.024 164.231,-195.018 148.078,-251.55 144.933,-262.775 138.697,-274.174 132.414,-283.672"/>
<polygon fill="#eecbff" stroke="#eecbff" points="128.635,-87.4201 122.858,-81.2181 123.507,-89.6691 128.635,-87.4201"/>
<polygon fill="#edc7ff" stroke="#edc7ff" points="130.918,-282.671 128.667,-290.842 135.523,-285.857 130.918,-282.671"/>
</a>
</g>
<!-- ZIC3_ZIC4&#45;&gt;ZNF711_TFAP2A_TFAP2D -->
<g id="edge16" class="edge"><title>ZIC3_ZIC4&#45;&gt;ZNF711_TFAP2A_TFAP2D</title>
<a xlink:title="TFAP2A: 0.171||ZIC4: 0.029||ZIC3: 0.023||remove23root">
<path fill="none" stroke="#e8b9ff" stroke-width="3" d="M120.492,-89.343C123.612,-109.703 125.56,-138.109 118.094,-162.122 112.874,-178.619 102.455,-194.386 92.5577,-206.82"/>
<path fill="none" stroke="#edc8ff" stroke-width="3" d="M118.516,-89.6463C121.617,-109.84 123.565,-138.246 116.186,-161.523 111.206,-177.517 100.786,-193.283 90.9932,-205.574"/>
<polygon fill="#edc8ff" stroke="#edc8ff" points="122.22,-88.7605 118.124,-81.3399 116.698,-89.695 122.22,-88.7605"/>
<polygon fill="#e8b9ff" stroke="#e8b9ff" points="89.3418,-204.747 86.4025,-212.696 93.6579,-208.315 89.3418,-204.747"/>
</a>
</g>
<!-- ZIC3_ZIC4&#45;&gt;CREB5_CREM_JUNB -->
<g id="edge18" class="edge"><title>ZIC3_ZIC4&#45;&gt;CREB5_CREM_JUNB</title>
<a xlink:title="CREM: 0.011||remove2root">
<path fill="none" stroke="#eecaff" stroke-width="3" d="M145.406,-81.1323C199.082,-112.122 308.29,-175.173 366.437,-208.745"/>
<polygon fill="#eecaff" stroke="#eecaff" points="365.282,-211.311 373.61,-212.886 368.082,-206.461 365.282,-211.311"/>
</a>
</g>
<!-- ZIC3_ZIC4&#45;&gt;RCOR1_MTA3 -->
<g id="edge20" class="edge"><title>ZIC3_ZIC4&#45;&gt;RCOR1_MTA3</title>
<a xlink:title="MTA3: 0.201||ZIC4: 0.497||remove24">
<path fill="none" stroke="#e7b6ff" stroke-width="3" d="M100.337,-88.6642C95.267,-97.4464 89.5763,-107.303 84.4975,-116.1"/>
<path fill="none" stroke="#dd95ff" stroke-width="3" d="M98.6054,-87.6642C93.535,-96.4464 87.8443,-106.303 82.7655,-115.1"/>
<polygon fill="#dd95ff" stroke="#dd95ff" points="101.988,-89.4057 103.563,-81.0774 97.1381,-86.6056 101.988,-89.4057"/>
<polygon fill="#e7b6ff" stroke="#e7b6ff" points="81.1115,-114.365 79.5363,-122.693 85.9612,-117.165 81.1115,-114.365"/>
</a>
</g>
<!-- ZIC3_ZIC4&#45;&gt;CTCF_CTCFL -->
<g id="edge22" class="edge"><title>ZIC3_ZIC4&#45;&gt;CTCF_CTCFL</title>
<a xlink:title="CTCF: 0.403||CTCFL: 0.026||remove32root">
<path fill="none" stroke="#a0a9ff" stroke-width="3" d="M132.141,-81.1406C153.569,-102.569 189.29,-138.29 212.98,-161.98"/>
<polygon fill="#a0a9ff" stroke="#a0a9ff" points="211.091,-164.05 218.727,-167.727 215.05,-160.091 211.091,-164.05"/>
</a>
</g>
<!-- SP3&#45;&gt;ESRRA_ESR2 -->
<g id="edge120" class="edge"><title>SP3&#45;&gt;ESRRA_ESR2</title>
<a xlink:title="ESRRA: 1.361||ESR2: 0.109||remove26">
<path fill="none" stroke="#bf37ff" stroke-width="3" d="M191.543,-36.2275C190.85,-69.9166 189.541,-144.207 189.962,-206.822 190.247,-249.118 190.992,-298.251 191.483,-327.665"/>
<polygon fill="#bf37ff" stroke="#bf37ff" points="188.685,-327.822 191.62,-335.773 194.284,-327.727 188.685,-327.822"/>
</a>
</g>
<!-- SP3&#45;&gt;ZNF711_TFAP2A_TFAP2D -->
<g id="edge122" class="edge"><title>SP3&#45;&gt;ZNF711_TFAP2A_TFAP2D</title>
<a xlink:title="TFAP2A: 0.666||ZNF711: 0.060||remove28">
<path fill="none" stroke="#d783ff" stroke-width="3" d="M183.45,-36.1179C170.274,-63.7911 143.65,-117.993 117.14,-161.822 108.008,-176.92 96.7908,-193.14 87.482,-206.071"/>
<polygon fill="#d783ff" stroke="#d783ff" points="84.9667,-204.77 82.5322,-212.888 89.4982,-208.06 84.9667,-204.77"/>
</a>
</g>
<!-- SP3&#45;&gt;CREB5_CREM_JUNB -->
<g id="edge126" class="edge"><title>SP3&#45;&gt;CREB5_CREM_JUNB</title>
<a xlink:title="CREB5: 0.572||CREM: 0.270||JUNB: 0.022||remove22">
<path fill="none" stroke="#da8dff" stroke-width="3" d="M210.098,-36.1553C248.521,-74.5789 338.052,-164.11 381.03,-207.088"/>
<polygon fill="#da8dff" stroke="#da8dff" points="379.138,-209.156 386.775,-212.833 383.098,-205.196 379.138,-209.156"/>
</a>
</g>
<!-- SP3&#45;&gt;CTCF_CTCFL -->
<g id="edge130" class="edge"><title>SP3&#45;&gt;CTCF_CTCFL</title>
<a xlink:title="CTCF: 0.331||remove30root">
<path fill="none" stroke="#a7b0ff" stroke-width="3" d="M196.844,-36.2925C204.845,-66.1522 220.739,-125.47 229.931,-159.777"/>
<polygon fill="#a7b0ff" stroke="#a7b0ff" points="227.34,-160.924 232.115,-167.927 232.749,-159.474 227.34,-160.924"/>
</a>
</g>
<!-- SP3&#45;&gt;ZIC3_ZIC4 -->
<g id="edge132" class="edge"><title>SP3&#45;&gt;ZIC3_ZIC4</title>
<a xlink:title="ZIC3: 0.054||ZIC4: 0.001||remove9root">
<path fill="none" stroke="#ecc6ff" stroke-width="3" d="M164.682,-33.7388C160.688,-36.0444 156.514,-38.4545 152.349,-40.859"/>
<polygon fill="#ecc6ff" stroke="#ecc6ff" points="150.911,-38.4562 145.383,-44.8812 153.711,-43.306 150.911,-38.4562"/>
</a>
</g>
<!-- SP3&#45;&gt;SP4_PML -->
<g id="edge128" class="edge"><title>SP3&#45;&gt;SP4_PML</title>
<a xlink:title="SP4: 0.099||remove18root">
<path fill="none" stroke="#ebc1ff" stroke-width="3" d="M219.178,-28.487C229.001,-32.0575 240.229,-35.8962 250.622,-38.88 273.864,-45.5523 300.336,-51.4386 321.403,-55.7257"/>
<polygon fill="#ebc1ff" stroke="#ebc1ff" points="321.091,-58.519 329.486,-57.3465 322.192,-53.0282 321.091,-58.519"/>
</a>
</g>
<!-- SP3&#45;&gt;PATZ1_KLF4 -->
<g id="edge124" class="edge"><title>SP3&#45;&gt;PATZ1_KLF4</title>
<a xlink:title="PATZ1: 0.077||KLF4: 0.020||remove15root">
<path fill="none" stroke="#ebc3ff" stroke-width="3" d="M219.345,-33.8209C256.722,-55.4007 323.883,-94.1762 366.328,-118.682"/>
<polygon fill="#ebc3ff" stroke="#ebc3ff" points="365.107,-121.21 373.436,-122.785 367.907,-116.36 365.107,-121.21"/>
</a>
</g>
<!-- TFDP1&#45;&gt;ESRRA_ESR2 -->
<g id="edge100" class="edge"><title>TFDP1&#45;&gt;ESRRA_ESR2</title>
<a xlink:title="ESRRA: 0.065||remove13root">
<path fill="none" stroke="#ecc4ff" stroke-width="3" d="M265.647,-36.2884C243.441,-62.5664 204.748,-113.539 189.962,-165.062 181.424,-194.814 186.559,-283.409 189.842,-327.853"/>
<polygon fill="#ecc4ff" stroke="#ecc4ff" points="187.052,-328.103 190.449,-335.868 192.636,-327.679 187.052,-328.103"/>
</a>
</g>
<!-- TFDP1&#45;&gt;CTCF_CTCFL -->
<g id="edge106" class="edge"><title>TFDP1&#45;&gt;CTCF_CTCFL</title>
<a xlink:title="CTCF: 0.235||remove27root">
<path fill="none" stroke="#b2b9ff" stroke-width="3" d="M277.041,-36.2925C269.04,-66.1522 253.146,-125.47 243.953,-159.777"/>
<polygon fill="#b2b9ff" stroke="#b2b9ff" points="241.136,-159.474 241.77,-167.927 246.545,-160.924 241.136,-159.474"/>
</a>
</g>
<!-- TFDP1&#45;&gt;TFDP1 -->
<g id="edge104" class="edge"><title>TFDP1&#45;&gt;TFDP1</title>
<a xlink:title="TFDP1: 0.077||remove14root">
<path fill="none" stroke="#ebc3ff" stroke-width="3" d="M309.183,-24.7434C318.966,-24.8884 326.942,-22.6406 326.942,-18 326.942,-14.7371 322.999,-12.6571 317.257,-11.7601"/>
<polygon fill="#ebc3ff" stroke="#ebc3ff" points="317.342,-8.96005 309.183,-11.2566 316.993,-14.5492 317.342,-8.96005"/>
</a>
</g>
<!-- TFDP1&#45;&gt;PATZ1_KLF4 -->
<g id="edge102" class="edge"><title>TFDP1&#45;&gt;PATZ1_KLF4</title>
<a xlink:title="PATZ1: 0.479||TFDP1: 0.173||remove27">
<path fill="none" stroke="#dd97ff" stroke-width="3" d="M296.133,-42.8727C303.64,-55.7932 313.849,-71.3252 325.227,-83.1885 337.515,-96.0448 353.242,-107.961 367.441,-117.48"/>
<path fill="none" stroke="#e8b9ff" stroke-width="3" d="M294.403,-43.8777C301.969,-56.8917 312.177,-72.4237 323.782,-84.5715 336.308,-97.6389 352.034,-109.555 366.327,-119.141"/>
<polygon fill="#e8b9ff" stroke="#e8b9ff" points="297.522,-41.6717 291.15,-36.0826 292.646,-44.4255 297.522,-41.6717"/>
<polygon fill="#dd97ff" stroke="#dd97ff" points="365.512,-120.759 373.738,-122.804 368.583,-116.076 365.512,-120.759"/>
</a>
</g>
<!-- SP4_PML&#45;&gt;ESRRA_ESR2 -->
<g id="edge86" class="edge"><title>SP4_PML&#45;&gt;ESRRA_ESR2</title>
<a xlink:title="ESRRA: 0.411||remove25">
<path fill="none" stroke="#e09fff" stroke-width="3" d="M350.712,-81.395C336.839,-108.974 309.426,-162.529 283.922,-206.822 258.849,-250.368 227.385,-299.625 208.513,-328.649"/>
<polygon fill="#e09fff" stroke="#e09fff" points="206.02,-327.345 203.997,-335.576 210.712,-330.403 206.02,-327.345"/>
</a>
</g>
<!-- SP4_PML&#45;&gt;CREB5_CREM_JUNB -->
<g id="edge90" class="edge"><title>SP4_PML&#45;&gt;CREB5_CREM_JUNB</title>
<a xlink:title="CREB5: 0.392||CREM: 0.074||remove22">
<path fill="none" stroke="#e0a1ff" stroke-width="3" d="M357.097,-81.2956C354.696,-101.475 352.75,-134.683 360.805,-161.822 365.554,-177.825 375.203,-193.672 384.266,-206.147"/>
<polygon fill="#e0a1ff" stroke="#e0a1ff" points="382.158,-208.002 389.206,-212.711 386.632,-204.635 382.158,-208.002"/>
</a>
</g>
<!-- SP4_PML&#45;&gt;CTCF_CTCFL -->
<g id="edge96" class="edge"><title>SP4_PML&#45;&gt;CTCF_CTCFL</title>
<a xlink:title="CTCF: 0.182||remove25root">
<path fill="none" stroke="#b8bfff" stroke-width="3" d="M341.744,-81.1406C320.316,-102.569 284.594,-138.29 260.905,-161.98"/>
<polygon fill="#b8bfff" stroke="#b8bfff" points="258.834,-160.091 255.157,-167.727 262.794,-164.05 258.834,-160.091"/>
</a>
</g>
<!-- SP4_PML&#45;&gt;ZIC3_ZIC4 -->
<g id="edge98" class="edge"><title>SP4_PML&#45;&gt;ZIC3_ZIC4</title>
<a xlink:title="ZIC3: 0.065||remove12root">
<path fill="none" stroke="#ecc4ff" stroke-width="3" d="M329.24,-63C285.186,-63 203.87,-63 154.781,-63"/>
<polygon fill="#ecc4ff" stroke="#ecc4ff" points="154.598,-60.1999 146.598,-63 154.598,-65.7999 154.598,-60.1999"/>
</a>
</g>
<!-- SP4_PML&#45;&gt;TFDP1 -->
<g id="edge92" class="edge"><title>SP4_PML&#45;&gt;TFDP1</title>
<a xlink:title="TFDP1: 0.310||remove25">
<path fill="none" stroke="#e3aaff" stroke-width="3" d="M329.527,-45.473C325.095,-42.9141 320.506,-40.265 316.007,-37.667"/>
<polygon fill="#e3aaff" stroke="#e3aaff" points="317.372,-35.2222 309.044,-33.647 314.572,-40.072 317.372,-35.2222"/>
</a>
</g>
<!-- SP4_PML&#45;&gt;SP4_PML -->
<g id="edge94" class="edge"><title>SP4_PML&#45;&gt;SP4_PML</title>
<a xlink:title="SP4: 0.061||remove11root">
<path fill="none" stroke="#ecc5ff" stroke-width="3" d="M390.352,-69.7484C400.133,-69.6791 407.885,-67.4297 407.885,-63 407.885,-59.8854 404.052,-57.8486 398.377,-56.8898"/>
<polygon fill="#ecc5ff" stroke="#ecc5ff" points="398.549,-54.0947 390.352,-56.2516 398.105,-59.6771 398.549,-54.0947"/>
</a>
</g>
<!-- SP4_PML&#45;&gt;PATZ1_KLF4 -->
<g id="edge88" class="edge"><title>SP4_PML&#45;&gt;PATZ1_KLF4</title>
<a xlink:title="PATZ1: 0.058||remove10root">
<path fill="none" stroke="#ecc5ff" stroke-width="3" d="M370.322,-81.0774C376.243,-91.3328 383.746,-104.329 390.247,-115.59"/>
<polygon fill="#ecc5ff" stroke="#ecc5ff" points="387.923,-117.165 394.348,-122.693 392.773,-114.365 387.923,-117.165"/>
</a>
</g>
<!-- PATZ1_KLF4&#45;&gt;ESRRA_ESR2 -->
<g id="edge110" class="edge"><title>PATZ1_KLF4&#45;&gt;ESRRA_ESR2</title>
<a xlink:title="ESRRA: 1.315||ESR2: 0.103||remove26">
<path fill="none" stroke="#c03cff" stroke-width="3" d="M386.729,-159.098C348.306,-197.521 258.775,-287.052 215.797,-330.03"/>
<polygon fill="#c03cff" stroke="#c03cff" points="213.729,-328.138 210.052,-335.775 217.688,-332.098 213.729,-328.138"/>
</a>
</g>
<!-- PATZ1_KLF4&#45;&gt;MAZ_ZNF281_GTF2F1 -->
<g id="edge108" class="edge"><title>PATZ1_KLF4&#45;&gt;MAZ_ZNF281_GTF2F1</title>
<a xlink:title="MAZ: 0.544||ZNF281: 0.083||GTF2F1: 0.003||remove21">
<path fill="none" stroke="#db90ff" stroke-width="3" d="M373.478,-159.075C319.803,-190.064 210.595,-253.115 152.447,-286.687"/>
<polygon fill="#db90ff" stroke="#db90ff" points="150.803,-284.403 145.275,-290.828 153.603,-289.253 150.803,-284.403"/>
</a>
</g>
<!-- PATZ1_KLF4&#45;&gt;CREB5_CREM_JUNB -->
<g id="edge114" class="edge"><title>PATZ1_KLF4&#45;&gt;CREB5_CREM_JUNB</title>
<a xlink:title="CREB5: 0.256||CREM: 0.148||remove22">
<path fill="none" stroke="#e5b0ff" stroke-width="3" d="M404.885,-159.155C404.885,-172.208 404.885,-189.988 404.885,-204.588"/>
<polygon fill="#e5b0ff" stroke="#e5b0ff" points="402.085,-204.757 404.885,-212.757 407.685,-204.757 402.085,-204.757"/>
</a>
</g>
<!-- PATZ1_KLF4&#45;&gt;CTCF_CTCFL -->
<g id="edge116" class="edge"><title>PATZ1_KLF4&#45;&gt;CTCF_CTCFL</title>
<a xlink:title="CTCF: 0.661||CTCFL: 0.126||remove34root">
<path fill="none" stroke="#8390ff" stroke-width="3" d="M366.776,-151.153C342.569,-157.64 311.028,-166.091 285.096,-173.04"/>
<polygon fill="#8390ff" stroke="#8390ff" points="284.245,-170.369 277.242,-175.144 285.694,-175.778 284.245,-170.369"/>
</a>
</g>
<!-- PATZ1_KLF4&#45;&gt;ZIC3_ZIC4 -->
<g id="edge118" class="edge"><title>PATZ1_KLF4&#45;&gt;ZIC3_ZIC4</title>
<a xlink:title="ZIC3: 0.010||remove1root">
<path fill="none" stroke="#eecaff" stroke-width="3" d="M366.857,-130.753C311.961,-116.043 210.937,-88.9741 154.626,-73.8857"/>
<polygon fill="#eecaff" stroke="#eecaff" points="155.105,-71.1154 146.653,-71.7494 153.656,-76.5246 155.105,-71.1154"/>
</a>
</g>
<!-- PATZ1_KLF4&#45;&gt;PATZ1_KLF4 -->
<g id="edge112" class="edge"><title>PATZ1_KLF4&#45;&gt;PATZ1_KLF4</title>
<a xlink:title="PATZ1: 0.441||KLF4: 0.051||remove33root">
<path fill="none" stroke="#df9bff" stroke-width="3" d="M443.099,-147.633C453.219,-147.251 460.885,-145.02 460.885,-140.942 460.885,-138.075 457.095,-136.121 451.327,-135.081"/>
<polygon fill="#df9bff" stroke="#df9bff" points="451.339,-132.268 443.099,-134.252 450.777,-137.84 451.339,-132.268"/>
</a>
</g>
</g>
</svg>
