<?xml version="1.0" encoding="UTF-8" standalone="no"?>
<!DOCTYPE svg PUBLIC "-//W3C//DTD SVG 1.1//EN"
 "http://www.w3.org/Graphics/SVG/1.1/DTD/svg11.dtd">
<!-- Generated by graphviz version 2.28.0 (20110630.0925)
 -->
<!-- Title: _anonymous_0 Pages: 1 -->
<svg width="549pt" height="519pt"
 viewBox="0.00 0.00 549.22 518.72" xmlns="http://www.w3.org/2000/svg" xmlns:xlink="http://www.w3.org/1999/xlink">
<g id="graph1" class="graph" transform="scale(1 1) rotate(0) translate(4 514.717)">
<title>_anonymous_0</title>
<polygon fill="white" stroke="white" points="-4,5 -4,-514.717 546.217,-514.717 546.217,5 -4,5"/>
<!-- ZNF711_TFAP2A_TFAP2D -->
<g id="node1" class="node"><title>ZNF711_TFAP2A_TFAP2D</title>
<a xlink:href="ZNF711_TFAP2A_TFAP2D.svg" xlink:title="Z&#45;value: 2.387||remove18">
<polygon fill="#3247ff" stroke="#3247ff" stroke-width="2" points="507.617,-447.117 393.617,-447.117 381.617,-435.117 381.617,-423.117 393.617,-411.117 507.617,-411.117 519.617,-423.117 519.617,-435.117 507.617,-447.117"/>
<path fill="#3247ff" stroke="#3247ff" stroke-width="2" d="M393.617,-447.117C387.617,-447.117 381.617,-441.117 381.617,-435.117"/>
<path fill="#3247ff" stroke="#3247ff" stroke-width="2" d="M381.617,-423.117C381.617,-417.117 387.617,-411.117 393.617,-411.117"/>
<path fill="#3247ff" stroke="#3247ff" stroke-width="2" d="M507.617,-411.117C513.617,-411.117 519.617,-417.117 519.617,-423.117"/>
<path fill="#3247ff" stroke="#3247ff" stroke-width="2" d="M519.617,-435.117C519.617,-441.117 513.617,-447.117 507.617,-447.117"/>
<polyline fill="none" stroke="white" stroke-width="2" points="507.617,-447.117 393.617,-447.117 "/>
<path fill="none" stroke="white" stroke-width="2" d="M393.617,-447.117C387.617,-447.117 381.617,-441.117 381.617,-435.117"/>
<polyline fill="none" stroke="white" stroke-width="2" points="381.617,-435.117 381.617,-423.117 "/>
<path fill="none" stroke="white" stroke-width="2" d="M381.617,-423.117C381.617,-417.117 387.617,-411.117 393.617,-411.117"/>
<polyline fill="none" stroke="white" stroke-width="2" points="393.617,-411.117 507.617,-411.117 "/>
<path fill="none" stroke="white" stroke-width="2" d="M507.617,-411.117C513.617,-411.117 519.617,-417.117 519.617,-423.117"/>
<polyline fill="none" stroke="white" stroke-width="2" points="519.617,-423.117 519.617,-435.117 "/>
<path fill="none" stroke="white" stroke-width="2" d="M519.617,-435.117C519.617,-441.117 513.617,-447.117 507.617,-447.117"/>
<text text-anchor="middle" x="450.617" y="-426.617" font-family="Helvetica,sans-Serif" font-size="10.00" fill="white">ZNF711_TFAP2A_TFAP2D</text>
</a>
</g>
<!-- ZNF711_TFAP2A_TFAP2D&#45;&gt;ZNF711_TFAP2A_TFAP2D -->
<g id="edge4" class="edge"><title>ZNF711_TFAP2A_TFAP2D&#45;&gt;ZNF711_TFAP2A_TFAP2D</title>
<a xlink:title="TFAP2A: 0.506||ZNF711: 0.089||remove18">
<path fill="none" stroke="#da8dff" stroke-width="3" d="M519.891,-435.272C530.448,-434.333 537.617,-432.281 537.617,-429.117 537.617,-426.843 533.914,-425.143 527.911,-424.018"/>
<polygon fill="#da8dff" stroke="#da8dff" points="528.189,-421.231 519.891,-422.962 527.457,-426.783 528.189,-421.231"/>
</a>
</g>
<!-- FOSL2_SMARCC1 -->
<g id="node2" class="node"><title>FOSL2_SMARCC1</title>
<a xlink:href="FOSL2_SMARCC1.svg" xlink:title="Z&#45;value: 0.739||remove12">
<polygon fill="#9ca6ff" stroke="#9ca6ff" stroke-width="2" points="378.958,-510.717 301.958,-510.717 289.958,-498.717 289.958,-486.717 301.958,-474.717 378.958,-474.717 390.958,-486.717 390.958,-498.717 378.958,-510.717"/>
<path fill="#9ca6ff" stroke="#9ca6ff" stroke-width="2" d="M301.958,-510.717C295.958,-510.717 289.958,-504.717 289.958,-498.717"/>
<path fill="#9ca6ff" stroke="#9ca6ff" stroke-width="2" d="M289.958,-486.717C289.958,-480.717 295.958,-474.717 301.958,-474.717"/>
<path fill="#9ca6ff" stroke="#9ca6ff" stroke-width="2" d="M378.958,-474.717C384.958,-474.717 390.958,-480.717 390.958,-486.717"/>
<path fill="#9ca6ff" stroke="#9ca6ff" stroke-width="2" d="M390.958,-498.717C390.958,-504.717 384.958,-510.717 378.958,-510.717"/>
<polyline fill="none" stroke="white" stroke-width="2" points="378.958,-510.717 301.958,-510.717 "/>
<path fill="none" stroke="white" stroke-width="2" d="M301.958,-510.717C295.958,-510.717 289.958,-504.717 289.958,-498.717"/>
<polyline fill="none" stroke="white" stroke-width="2" points="289.958,-498.717 289.958,-486.717 "/>
<path fill="none" stroke="white" stroke-width="2" d="M289.958,-486.717C289.958,-480.717 295.958,-474.717 301.958,-474.717"/>
<polyline fill="none" stroke="white" stroke-width="2" points="301.958,-474.717 378.958,-474.717 "/>
<path fill="none" stroke="white" stroke-width="2" d="M378.958,-474.717C384.958,-474.717 390.958,-480.717 390.958,-486.717"/>
<polyline fill="none" stroke="white" stroke-width="2" points="390.958,-486.717 390.958,-498.717 "/>
<path fill="none" stroke="white" stroke-width="2" d="M390.958,-498.717C390.958,-504.717 384.958,-510.717 378.958,-510.717"/>
<text text-anchor="middle" x="340.458" y="-490.217" font-family="Helvetica,sans-Serif" font-size="10.00">FOSL2_SMARCC1</text>
</a>
</g>
<!-- ZNF711_TFAP2A_TFAP2D&#45;&gt;FOSL2_SMARCC1 -->
<g id="edge2" class="edge"><title>ZNF711_TFAP2A_TFAP2D&#45;&gt;FOSL2_SMARCC1</title>
<a xlink:title="FOSL2: 0.211||remove12">
<path fill="none" stroke="#e6b1ff" stroke-width="3" d="M419.345,-447.172C406.786,-454.423 392.182,-462.854 378.979,-470.477"/>
<polygon fill="#e6b1ff" stroke="#e6b1ff" points="377.337,-468.192 371.809,-474.617 380.137,-473.041 377.337,-468.192"/>
</a>
</g>
<!-- ELF3_EHF -->
<g id="node5" class="node"><title>ELF3_EHF</title>
<a xlink:href="ELF3_EHF.svg" xlink:title="Z&#45;value: 1.010||remove19">
<polygon fill="#8b96ff" stroke="#8b96ff" stroke-width="2" points="233.508,-510.717 193.008,-510.717 181.008,-498.717 181.008,-486.717 193.008,-474.717 233.508,-474.717 245.508,-486.717 245.508,-498.717 233.508,-510.717"/>
<path fill="#8b96ff" stroke="#8b96ff" stroke-width="2" d="M193.008,-510.717C187.008,-510.717 181.008,-504.717 181.008,-498.717"/>
<path fill="#8b96ff" stroke="#8b96ff" stroke-width="2" d="M181.008,-486.717C181.008,-480.717 187.008,-474.717 193.008,-474.717"/>
<path fill="#8b96ff" stroke="#8b96ff" stroke-width="2" d="M233.508,-474.717C239.508,-474.717 245.508,-480.717 245.508,-486.717"/>
<path fill="#8b96ff" stroke="#8b96ff" stroke-width="2" d="M245.508,-498.717C245.508,-504.717 239.508,-510.717 233.508,-510.717"/>
<polyline fill="none" stroke="white" stroke-width="2" points="233.508,-510.717 193.008,-510.717 "/>
<path fill="none" stroke="white" stroke-width="2" d="M193.008,-510.717C187.008,-510.717 181.008,-504.717 181.008,-498.717"/>
<polyline fill="none" stroke="white" stroke-width="2" points="181.008,-498.717 181.008,-486.717 "/>
<path fill="none" stroke="white" stroke-width="2" d="M181.008,-486.717C181.008,-480.717 187.008,-474.717 193.008,-474.717"/>
<polyline fill="none" stroke="white" stroke-width="2" points="193.008,-474.717 233.508,-474.717 "/>
<path fill="none" stroke="white" stroke-width="2" d="M233.508,-474.717C239.508,-474.717 245.508,-480.717 245.508,-486.717"/>
<polyline fill="none" stroke="white" stroke-width="2" points="245.508,-486.717 245.508,-498.717 "/>
<path fill="none" stroke="white" stroke-width="2" d="M245.508,-498.717C245.508,-504.717 239.508,-510.717 233.508,-510.717"/>
<text text-anchor="middle" x="213.258" y="-490.217" font-family="Helvetica,sans-Serif" font-size="10.00">ELF3_EHF</text>
</a>
</g>
<!-- ZNF711_TFAP2A_TFAP2D&#45;&gt;ELF3_EHF -->
<g id="edge6" class="edge"><title>ZNF711_TFAP2A_TFAP2D&#45;&gt;ELF3_EHF</title>
<a xlink:title="ELF3: 0.289||EHF: 0.162||remove18">
<path fill="none" stroke="#e3a8ff" stroke-width="3" d="M381.208,-445.788C350.497,-453.381 314.001,-462.7 281.298,-471.837 272.37,-474.331 262.832,-477.157 253.807,-479.906"/>
<polygon fill="#e3a8ff" stroke="#e3a8ff" points="252.863,-477.266 246.037,-482.291 254.506,-482.62 252.863,-477.266"/>
</a>
</g>
<!-- PATZ1_KLF4 -->
<g id="node7" class="node"><title>PATZ1_KLF4</title>
<a xlink:href="PATZ1_KLF4.svg" xlink:title="Z&#45;value: 1.751||remove14">
<polygon fill="#5b6cff" stroke="#5b6cff" stroke-width="2" points="129.1,-447.117 77.1,-447.117 65.1,-435.117 65.1,-423.117 77.1,-411.117 129.1,-411.117 141.1,-423.117 141.1,-435.117 129.1,-447.117"/>
<path fill="#5b6cff" stroke="#5b6cff" stroke-width="2" d="M77.1,-447.117C71.1,-447.117 65.1,-441.117 65.1,-435.117"/>
<path fill="#5b6cff" stroke="#5b6cff" stroke-width="2" d="M65.1,-423.117C65.1,-417.117 71.1,-411.117 77.1,-411.117"/>
<path fill="#5b6cff" stroke="#5b6cff" stroke-width="2" d="M129.1,-411.117C135.1,-411.117 141.1,-417.117 141.1,-423.117"/>
<path fill="#5b6cff" stroke="#5b6cff" stroke-width="2" d="M141.1,-435.117C141.1,-441.117 135.1,-447.117 129.1,-447.117"/>
<polyline fill="none" stroke="white" stroke-width="2" points="129.1,-447.117 77.1,-447.117 "/>
<path fill="none" stroke="white" stroke-width="2" d="M77.1,-447.117C71.1,-447.117 65.1,-441.117 65.1,-435.117"/>
<polyline fill="none" stroke="white" stroke-width="2" points="65.1,-435.117 65.1,-423.117 "/>
<path fill="none" stroke="white" stroke-width="2" d="M65.1,-423.117C65.1,-417.117 71.1,-411.117 77.1,-411.117"/>
<polyline fill="none" stroke="white" stroke-width="2" points="77.1,-411.117 129.1,-411.117 "/>
<path fill="none" stroke="white" stroke-width="2" d="M129.1,-411.117C135.1,-411.117 141.1,-417.117 141.1,-423.117"/>
<polyline fill="none" stroke="white" stroke-width="2" points="141.1,-423.117 141.1,-435.117 "/>
<path fill="none" stroke="white" stroke-width="2" d="M141.1,-435.117C141.1,-441.117 135.1,-447.117 129.1,-447.117"/>
<text text-anchor="middle" x="103.1" y="-426.617" font-family="Helvetica,sans-Serif" font-size="10.00" fill="white">PATZ1_KLF4</text>
</a>
</g>
<!-- ZNF711_TFAP2A_TFAP2D&#45;&gt;PATZ1_KLF4 -->
<g id="edge8" class="edge"><title>ZNF711_TFAP2A_TFAP2D&#45;&gt;PATZ1_KLF4</title>
<a xlink:title="PATZ1: 0.083||TFAP2A: 0.544||remove14">
<path fill="none" stroke="#ebc1ff" stroke-width="3" d="M373.368,-430.117C304.75,-430.117 206.724,-430.117 149.521,-430.117"/>
<path fill="none" stroke="#d988ff" stroke-width="3" d="M373.368,-428.117C304.75,-428.117 206.724,-428.117 149.521,-428.117"/>
<polygon fill="#d988ff" stroke="#d988ff" points="373.543,-431.917 381.543,-429.117 373.543,-426.317 373.543,-431.917"/>
<polygon fill="#ebc1ff" stroke="#ebc1ff" points="149.386,-426.317 141.386,-429.117 149.386,-431.917 149.386,-426.317"/>
</a>
</g>
<!-- SIN3A_CHD1 -->
<g id="node9" class="node"><title>SIN3A_CHD1</title>
<a xlink:href="SIN3A_CHD1.svg" xlink:title="Z&#45;value: 1.751||remove5">
<polygon fill="#5b6cff" stroke="#5b6cff" stroke-width="2" points="66.75,-336.958 12.25,-336.958 0.25,-324.958 0.25,-312.958 12.25,-300.958 66.75,-300.958 78.75,-312.958 78.75,-324.958 66.75,-336.958"/>
<path fill="#5b6cff" stroke="#5b6cff" stroke-width="2" d="M12.25,-336.958C6.25,-336.958 0.25,-330.958 0.25,-324.958"/>
<path fill="#5b6cff" stroke="#5b6cff" stroke-width="2" d="M0.25,-312.958C0.25,-306.958 6.25,-300.958 12.25,-300.958"/>
<path fill="#5b6cff" stroke="#5b6cff" stroke-width="2" d="M66.75,-300.958C72.75,-300.958 78.75,-306.958 78.75,-312.958"/>
<path fill="#5b6cff" stroke="#5b6cff" stroke-width="2" d="M78.75,-324.958C78.75,-330.958 72.75,-336.958 66.75,-336.958"/>
<polyline fill="none" stroke="white" stroke-width="2" points="66.75,-336.958 12.25,-336.958 "/>
<path fill="none" stroke="white" stroke-width="2" d="M12.25,-336.958C6.25,-336.958 0.25,-330.958 0.25,-324.958"/>
<polyline fill="none" stroke="white" stroke-width="2" points="0.25,-324.958 0.25,-312.958 "/>
<path fill="none" stroke="white" stroke-width="2" d="M0.25,-312.958C0.25,-306.958 6.25,-300.958 12.25,-300.958"/>
<polyline fill="none" stroke="white" stroke-width="2" points="12.25,-300.958 66.75,-300.958 "/>
<path fill="none" stroke="white" stroke-width="2" d="M66.75,-300.958C72.75,-300.958 78.75,-306.958 78.75,-312.958"/>
<polyline fill="none" stroke="white" stroke-width="2" points="78.75,-312.958 78.75,-324.958 "/>
<path fill="none" stroke="white" stroke-width="2" d="M78.75,-324.958C78.75,-330.958 72.75,-336.958 66.75,-336.958"/>
<text text-anchor="middle" x="39.5" y="-316.458" font-family="Helvetica,sans-Serif" font-size="10.00" fill="white">SIN3A_CHD1</text>
</a>
</g>
<!-- ZNF711_TFAP2A_TFAP2D&#45;&gt;SIN3A_CHD1 -->
<g id="edge10" class="edge"><title>ZNF711_TFAP2A_TFAP2D&#45;&gt;SIN3A_CHD1</title>
<a xlink:title="SIN3A: 0.087||TFAP2A: 0.071||remove5">
<path fill="none" stroke="#ebc1ff" stroke-width="3" d="M375.18,-409.939C291.165,-387.427 157.668,-351.657 86.9067,-332.696"/>
<path fill="none" stroke="#ebc3ff" stroke-width="3" d="M375.698,-408.007C291.683,-385.495 158.185,-349.725 87.4243,-330.764"/>
<polygon fill="#ebc3ff" stroke="#ebc3ff" points="374.738,-411.684 383.19,-411.05 376.187,-406.275 374.738,-411.684"/>
<polygon fill="#ebc1ff" stroke="#ebc1ff" points="87.7223,-328.981 79.2701,-329.615 86.2728,-334.39 87.7223,-328.981"/>
</a>
</g>
<!-- ZNF524 -->
<g id="node11" class="node"><title>ZNF524</title>
<a xlink:href="ZNF524.svg" xlink:title="Z&#45;value: 0.848||remove8">
<polygon fill="#95a0ff" stroke="#95a0ff" stroke-width="2" points="54.5,-209.758 24.5,-209.758 12.5,-197.758 12.5,-185.758 24.5,-173.758 54.5,-173.758 66.5,-185.758 66.5,-197.758 54.5,-209.758"/>
<path fill="#95a0ff" stroke="#95a0ff" stroke-width="2" d="M24.5,-209.758C18.5,-209.758 12.5,-203.758 12.5,-197.758"/>
<path fill="#95a0ff" stroke="#95a0ff" stroke-width="2" d="M12.5,-185.758C12.5,-179.758 18.5,-173.758 24.5,-173.758"/>
<path fill="#95a0ff" stroke="#95a0ff" stroke-width="2" d="M54.5,-173.758C60.5,-173.758 66.5,-179.758 66.5,-185.758"/>
<path fill="#95a0ff" stroke="#95a0ff" stroke-width="2" d="M66.5,-197.758C66.5,-203.758 60.5,-209.758 54.5,-209.758"/>
<polyline fill="none" stroke="white" stroke-width="2" points="54.5,-209.758 24.5,-209.758 "/>
<path fill="none" stroke="white" stroke-width="2" d="M24.5,-209.758C18.5,-209.758 12.5,-203.758 12.5,-197.758"/>
<polyline fill="none" stroke="white" stroke-width="2" points="12.5,-197.758 12.5,-185.758 "/>
<path fill="none" stroke="white" stroke-width="2" d="M12.5,-185.758C12.5,-179.758 18.5,-173.758 24.5,-173.758"/>
<polyline fill="none" stroke="white" stroke-width="2" points="24.5,-173.758 54.5,-173.758 "/>
<path fill="none" stroke="white" stroke-width="2" d="M54.5,-173.758C60.5,-173.758 66.5,-179.758 66.5,-185.758"/>
<polyline fill="none" stroke="white" stroke-width="2" points="66.5,-185.758 66.5,-197.758 "/>
<path fill="none" stroke="white" stroke-width="2" d="M66.5,-197.758C66.5,-203.758 60.5,-209.758 54.5,-209.758"/>
<text text-anchor="middle" x="39.5" y="-189.258" font-family="Helvetica,sans-Serif" font-size="10.00">ZNF524</text>
</a>
</g>
<!-- ZNF711_TFAP2A_TFAP2D&#45;&gt;ZNF524 -->
<g id="edge12" class="edge"><title>ZNF711_TFAP2A_TFAP2D&#45;&gt;ZNF524</title>
<a xlink:title="ZNF524: 0.242||remove8">
<path fill="none" stroke="#e5adff" stroke-width="3" d="M419.379,-411.082C343.954,-367.535 152.337,-256.905 73.8357,-211.582"/>
<polygon fill="#e5adff" stroke="#e5adff" points="74.9279,-208.98 66.5996,-207.404 72.1278,-213.829 74.9279,-208.98"/>
</a>
</g>
<!-- CEBPG -->
<g id="node13" class="node"><title>CEBPG</title>
<a xlink:href="CEBPG.svg" xlink:title="Z&#45;value: 0.405||remove4">
<polygon fill="#b2b9ff" stroke="#b2b9ff" stroke-width="2" points="529.217,-336.958 499.217,-336.958 487.217,-324.958 487.217,-312.958 499.217,-300.958 529.217,-300.958 541.217,-312.958 541.217,-324.958 529.217,-336.958"/>
<path fill="#b2b9ff" stroke="#b2b9ff" stroke-width="2" d="M499.217,-336.958C493.217,-336.958 487.217,-330.958 487.217,-324.958"/>
<path fill="#b2b9ff" stroke="#b2b9ff" stroke-width="2" d="M487.217,-312.958C487.217,-306.958 493.217,-300.958 499.217,-300.958"/>
<path fill="#b2b9ff" stroke="#b2b9ff" stroke-width="2" d="M529.217,-300.958C535.217,-300.958 541.217,-306.958 541.217,-312.958"/>
<path fill="#b2b9ff" stroke="#b2b9ff" stroke-width="2" d="M541.217,-324.958C541.217,-330.958 535.217,-336.958 529.217,-336.958"/>
<polyline fill="none" stroke="white" stroke-width="2" points="529.217,-336.958 499.217,-336.958 "/>
<path fill="none" stroke="white" stroke-width="2" d="M499.217,-336.958C493.217,-336.958 487.217,-330.958 487.217,-324.958"/>
<polyline fill="none" stroke="white" stroke-width="2" points="487.217,-324.958 487.217,-312.958 "/>
<path fill="none" stroke="white" stroke-width="2" d="M487.217,-312.958C487.217,-306.958 493.217,-300.958 499.217,-300.958"/>
<polyline fill="none" stroke="white" stroke-width="2" points="499.217,-300.958 529.217,-300.958 "/>
<path fill="none" stroke="white" stroke-width="2" d="M529.217,-300.958C535.217,-300.958 541.217,-306.958 541.217,-312.958"/>
<polyline fill="none" stroke="white" stroke-width="2" points="541.217,-312.958 541.217,-324.958 "/>
<path fill="none" stroke="white" stroke-width="2" d="M541.217,-324.958C541.217,-330.958 535.217,-336.958 529.217,-336.958"/>
<text text-anchor="middle" x="514.217" y="-316.458" font-family="Helvetica,sans-Serif" font-size="10.00">CEBPG</text>
</a>
</g>
<!-- ZNF711_TFAP2A_TFAP2D&#45;&gt;CEBPG -->
<g id="edge14" class="edge"><title>ZNF711_TFAP2A_TFAP2D&#45;&gt;CEBPG</title>
<a xlink:title="CEBPG: 1.232||remove4">
<path fill="none" stroke="#bd32ff" stroke-width="3" d="M461.119,-410.926C471.614,-392.748 487.838,-364.649 499.59,-344.293"/>
<polygon fill="#bd32ff" stroke="#bd32ff" points="502.124,-345.504 503.699,-337.176 497.274,-342.704 502.124,-345.504"/>
</a>
</g>
<!-- NR1H4 -->
<g id="node15" class="node"><title>NR1H4</title>
<a xlink:href="NR1H4.svg" xlink:title="Z&#45;value: 0.381||remove20">
<polygon fill="#b3bbff" stroke="#b3bbff" stroke-width="2" points="118.1,-99.6 88.1,-99.6 76.1,-87.6 76.1,-75.6 88.1,-63.6 118.1,-63.6 130.1,-75.6 130.1,-87.6 118.1,-99.6"/>
<path fill="#b3bbff" stroke="#b3bbff" stroke-width="2" d="M88.1,-99.6C82.1,-99.6 76.1,-93.6 76.1,-87.6"/>
<path fill="#b3bbff" stroke="#b3bbff" stroke-width="2" d="M76.1,-75.6C76.1,-69.6 82.1,-63.6 88.1,-63.6"/>
<path fill="#b3bbff" stroke="#b3bbff" stroke-width="2" d="M118.1,-63.6C124.1,-63.6 130.1,-69.6 130.1,-75.6"/>
<path fill="#b3bbff" stroke="#b3bbff" stroke-width="2" d="M130.1,-87.6C130.1,-93.6 124.1,-99.6 118.1,-99.6"/>
<polyline fill="none" stroke="white" stroke-width="2" points="118.1,-99.6 88.1,-99.6 "/>
<path fill="none" stroke="white" stroke-width="2" d="M88.1,-99.6C82.1,-99.6 76.1,-93.6 76.1,-87.6"/>
<polyline fill="none" stroke="white" stroke-width="2" points="76.1,-87.6 76.1,-75.6 "/>
<path fill="none" stroke="white" stroke-width="2" d="M76.1,-75.6C76.1,-69.6 82.1,-63.6 88.1,-63.6"/>
<polyline fill="none" stroke="white" stroke-width="2" points="88.1,-63.6 118.1,-63.6 "/>
<path fill="none" stroke="white" stroke-width="2" d="M118.1,-63.6C124.1,-63.6 130.1,-69.6 130.1,-75.6"/>
<polyline fill="none" stroke="white" stroke-width="2" points="130.1,-75.6 130.1,-87.6 "/>
<path fill="none" stroke="white" stroke-width="2" d="M130.1,-87.6C130.1,-93.6 124.1,-99.6 118.1,-99.6"/>
<text text-anchor="middle" x="103.1" y="-79.1" font-family="Helvetica,sans-Serif" font-size="10.00">NR1H4</text>
</a>
</g>
<!-- ZNF711_TFAP2A_TFAP2D&#45;&gt;NR1H4 -->
<g id="edge16" class="edge"><title>ZNF711_TFAP2A_TFAP2D&#45;&gt;NR1H4</title>
<a xlink:title="NR1H4: 0.080||remove16root">
<path fill="none" stroke="#ebc2ff" stroke-width="3" d="M440,-411.108C418.217,-375.047 365.66,-292.47 308.178,-234.478 254.282,-180.103 179.969,-129.631 137.182,-102.465"/>
<polygon fill="#ebc2ff" stroke="#ebc2ff" points="138.598,-100.048 130.338,-98.1481 135.611,-104.784 138.598,-100.048"/>
</a>
</g>
<!-- ELK4_ETV5_ELK1_ELK3_ELF4 -->
<g id="node17" class="node"><title>ELK4_ETV5_ELK1_ELK3_ELF4</title>
<a xlink:href="ELK4_ETV5_ELK1_ELK3_ELF4.svg" xlink:title="Z&#45;value: 1.430||remove7">
<polygon fill="#707eff" stroke="#707eff" stroke-width="2" points="279.758,-36 146.758,-36 134.758,-24 134.758,-12 146.758,-9.59233e-14 279.758,-9.59233e-14 291.758,-12 291.758,-24 279.758,-36"/>
<path fill="#707eff" stroke="#707eff" stroke-width="2" d="M146.758,-36C140.758,-36 134.758,-30 134.758,-24"/>
<path fill="#707eff" stroke="#707eff" stroke-width="2" d="M134.758,-12C134.758,-6 140.758,-9.59233e-14 146.758,-9.59233e-14"/>
<path fill="#707eff" stroke="#707eff" stroke-width="2" d="M279.758,-9.59233e-14C285.758,-9.59233e-14 291.758,-6 291.758,-12"/>
<path fill="#707eff" stroke="#707eff" stroke-width="2" d="M291.758,-24C291.758,-30 285.758,-36 279.758,-36"/>
<polyline fill="none" stroke="white" stroke-width="2" points="279.758,-36 146.758,-36 "/>
<path fill="none" stroke="white" stroke-width="2" d="M146.758,-36C140.758,-36 134.758,-30 134.758,-24"/>
<polyline fill="none" stroke="white" stroke-width="2" points="134.758,-24 134.758,-12 "/>
<path fill="none" stroke="white" stroke-width="2" d="M134.758,-12C134.758,-6 140.758,-9.59233e-14 146.758,-9.59233e-14"/>
<polyline fill="none" stroke="white" stroke-width="2" points="146.758,-9.59233e-14 279.758,-9.59233e-14 "/>
<path fill="none" stroke="white" stroke-width="2" d="M279.758,-9.59233e-14C285.758,-9.59233e-14 291.758,-6 291.758,-12"/>
<polyline fill="none" stroke="white" stroke-width="2" points="291.758,-12 291.758,-24 "/>
<path fill="none" stroke="white" stroke-width="2" d="M291.758,-24C291.758,-30 285.758,-36 279.758,-36"/>
<text text-anchor="middle" x="213.258" y="-15.5" font-family="Helvetica,sans-Serif" font-size="10.00" fill="white">ELK4_ETV5_ELK1_ELK3_ELF4</text>
</a>
</g>
<!-- ZNF711_TFAP2A_TFAP2D&#45;&gt;ELK4_ETV5_ELK1_ELK3_ELF4 -->
<g id="edge18" class="edge"><title>ZNF711_TFAP2A_TFAP2D&#45;&gt;ELK4_ETV5_ELK1_ELK3_ELF4</title>
<a xlink:title="ELK1: 0.395||ELF4: 0.324||ETV5: 0.140||ELK4: 0.074||remove7">
<path fill="none" stroke="#df9bff" stroke-width="3" d="M440.112,-410.921C402.206,-345.267 272.39,-120.419 228.159,-43.8082"/>
<polygon fill="#df9bff" stroke="#df9bff" points="230.337,-41.9802 223.912,-36.452 225.487,-44.7802 230.337,-41.9802"/>
</a>
</g>
<!-- DDIT3 -->
<g id="node19" class="node"><title>DDIT3</title>
<a xlink:href="DDIT3.svg" xlink:title="Z&#45;value: 0.244||remove21">
<polygon fill="#ffbcbc" stroke="#ffbcbc" stroke-width="2" points="291.858,-273.358 261.858,-273.358 249.858,-261.358 249.858,-249.358 261.858,-237.358 291.858,-237.358 303.858,-249.358 303.858,-261.358 291.858,-273.358"/>
<path fill="#ffbcbc" stroke="#ffbcbc" stroke-width="2" d="M261.858,-273.358C255.858,-273.358 249.858,-267.358 249.858,-261.358"/>
<path fill="#ffbcbc" stroke="#ffbcbc" stroke-width="2" d="M249.858,-249.358C249.858,-243.358 255.858,-237.358 261.858,-237.358"/>
<path fill="#ffbcbc" stroke="#ffbcbc" stroke-width="2" d="M291.858,-237.358C297.858,-237.358 303.858,-243.358 303.858,-249.358"/>
<path fill="#ffbcbc" stroke="#ffbcbc" stroke-width="2" d="M303.858,-261.358C303.858,-267.358 297.858,-273.358 291.858,-273.358"/>
<polyline fill="none" stroke="white" stroke-width="2" points="291.858,-273.358 261.858,-273.358 "/>
<path fill="none" stroke="white" stroke-width="2" d="M261.858,-273.358C255.858,-273.358 249.858,-267.358 249.858,-261.358"/>
<polyline fill="none" stroke="white" stroke-width="2" points="249.858,-261.358 249.858,-249.358 "/>
<path fill="none" stroke="white" stroke-width="2" d="M249.858,-249.358C249.858,-243.358 255.858,-237.358 261.858,-237.358"/>
<polyline fill="none" stroke="white" stroke-width="2" points="261.858,-237.358 291.858,-237.358 "/>
<path fill="none" stroke="white" stroke-width="2" d="M291.858,-237.358C297.858,-237.358 303.858,-243.358 303.858,-249.358"/>
<polyline fill="none" stroke="white" stroke-width="2" points="303.858,-249.358 303.858,-261.358 "/>
<path fill="none" stroke="white" stroke-width="2" d="M303.858,-261.358C303.858,-267.358 297.858,-273.358 291.858,-273.358"/>
<text text-anchor="middle" x="276.858" y="-252.858" font-family="Helvetica,sans-Serif" font-size="10.00">DDIT3</text>
</a>
</g>
<!-- ZNF711_TFAP2A_TFAP2D&#45;&gt;DDIT3 -->
<g id="edge20" class="edge"><title>ZNF711_TFAP2A_TFAP2D&#45;&gt;DDIT3</title>
<a xlink:title="DDIT3: 0.085||remove18root">
<path fill="none" stroke="#c1c7ff" stroke-width="3" d="M432.35,-410.85C400.721,-379.221 335.782,-314.282 300.664,-279.164"/>
<polygon fill="#c1c7ff" stroke="#c1c7ff" points="302.517,-277.057 294.88,-273.38 298.557,-281.017 302.517,-277.057"/>
</a>
</g>
<!-- MYB -->
<g id="node21" class="node"><title>MYB</title>
<a xlink:href="MYB.svg" xlink:title="Z&#45;value: 1.052||remove10">
<polygon fill="#8894ff" stroke="#8894ff" stroke-width="2" points="355.458,-36 325.458,-36 313.458,-24 313.458,-12 325.458,-0 355.458,-0 367.458,-12 367.458,-24 355.458,-36"/>
<path fill="#8894ff" stroke="#8894ff" stroke-width="2" d="M325.458,-36C319.458,-36 313.458,-30 313.458,-24"/>
<path fill="#8894ff" stroke="#8894ff" stroke-width="2" d="M313.458,-12C313.458,-6 319.458,-0 325.458,-0"/>
<path fill="#8894ff" stroke="#8894ff" stroke-width="2" d="M355.458,-0C361.458,-0 367.458,-6 367.458,-12"/>
<path fill="#8894ff" stroke="#8894ff" stroke-width="2" d="M367.458,-24C367.458,-30 361.458,-36 355.458,-36"/>
<polyline fill="none" stroke="white" stroke-width="2" points="355.458,-36 325.458,-36 "/>
<path fill="none" stroke="white" stroke-width="2" d="M325.458,-36C319.458,-36 313.458,-30 313.458,-24"/>
<polyline fill="none" stroke="white" stroke-width="2" points="313.458,-24 313.458,-12 "/>
<path fill="none" stroke="white" stroke-width="2" d="M313.458,-12C313.458,-6 319.458,-0 325.458,-0"/>
<polyline fill="none" stroke="white" stroke-width="2" points="325.458,-0 355.458,-0 "/>
<path fill="none" stroke="white" stroke-width="2" d="M355.458,-0C361.458,-0 367.458,-6 367.458,-12"/>
<polyline fill="none" stroke="white" stroke-width="2" points="367.458,-12 367.458,-24 "/>
<path fill="none" stroke="white" stroke-width="2" d="M367.458,-24C367.458,-30 361.458,-36 355.458,-36"/>
<text text-anchor="middle" x="340.458" y="-15.5" font-family="Helvetica,sans-Serif" font-size="10.00">MYB</text>
</a>
</g>
<!-- ZNF711_TFAP2A_TFAP2D&#45;&gt;MYB -->
<g id="edge22" class="edge"><title>ZNF711_TFAP2A_TFAP2D&#45;&gt;MYB</title>
<a xlink:title="MYB: 0.404||remove10">
<path fill="none" stroke="#de99ff" stroke-width="3" d="M445.741,-410.921C428.185,-345.4 368.145,-121.327 347.499,-44.2744"/>
<polygon fill="#de99ff" stroke="#de99ff" points="350.178,-43.4547 345.403,-36.452 344.769,-44.9041 350.178,-43.4547"/>
</a>
</g>
<!-- FOSL2_SMARCC1&#45;&gt;DDIT3 -->
<g id="edge74" class="edge"><title>FOSL2_SMARCC1&#45;&gt;DDIT3</title>
<a xlink:title="DDIT3: 0.065||remove12root">
<path fill="none" stroke="#c3c9ff" stroke-width="3" d="M335.573,-474.486C324.382,-432.72 296.855,-329.988 283.863,-281.5"/>
<polygon fill="#c3c9ff" stroke="#c3c9ff" points="286.535,-280.654 281.76,-273.652 281.126,-282.104 286.535,-280.654"/>
</a>
</g>
<!-- FOSL1 -->
<g id="node23" class="node"><title>FOSL1</title>
<a xlink:href="FOSL1.svg" xlink:title="Z&#45;value: 1.037||remove15">
<polygon fill="#8995ff" stroke="#8995ff" stroke-width="2" points="465.617,-99.6 435.617,-99.6 423.617,-87.6 423.617,-75.6 435.617,-63.6 465.617,-63.6 477.617,-75.6 477.617,-87.6 465.617,-99.6"/>
<path fill="#8995ff" stroke="#8995ff" stroke-width="2" d="M435.617,-99.6C429.617,-99.6 423.617,-93.6 423.617,-87.6"/>
<path fill="#8995ff" stroke="#8995ff" stroke-width="2" d="M423.617,-75.6C423.617,-69.6 429.617,-63.6 435.617,-63.6"/>
<path fill="#8995ff" stroke="#8995ff" stroke-width="2" d="M465.617,-63.6C471.617,-63.6 477.617,-69.6 477.617,-75.6"/>
<path fill="#8995ff" stroke="#8995ff" stroke-width="2" d="M477.617,-87.6C477.617,-93.6 471.617,-99.6 465.617,-99.6"/>
<polyline fill="none" stroke="white" stroke-width="2" points="465.617,-99.6 435.617,-99.6 "/>
<path fill="none" stroke="white" stroke-width="2" d="M435.617,-99.6C429.617,-99.6 423.617,-93.6 423.617,-87.6"/>
<polyline fill="none" stroke="white" stroke-width="2" points="423.617,-87.6 423.617,-75.6 "/>
<path fill="none" stroke="white" stroke-width="2" d="M423.617,-75.6C423.617,-69.6 429.617,-63.6 435.617,-63.6"/>
<polyline fill="none" stroke="white" stroke-width="2" points="435.617,-63.6 465.617,-63.6 "/>
<path fill="none" stroke="white" stroke-width="2" d="M465.617,-63.6C471.617,-63.6 477.617,-69.6 477.617,-75.6"/>
<polyline fill="none" stroke="white" stroke-width="2" points="477.617,-75.6 477.617,-87.6 "/>
<path fill="none" stroke="white" stroke-width="2" d="M477.617,-87.6C477.617,-93.6 471.617,-99.6 465.617,-99.6"/>
<text text-anchor="middle" x="450.617" y="-79.1" font-family="Helvetica,sans-Serif" font-size="10.00">FOSL1</text>
</a>
</g>
<!-- FOSL2_SMARCC1&#45;&gt;FOSL1 -->
<g id="edge72" class="edge"><title>FOSL2_SMARCC1&#45;&gt;FOSL1</title>
<a xlink:title="FOSL1: 0.005||FOSL2: 0.158||remove12">
<path fill="none" stroke="#eecbff" stroke-width="3" d="M346.452,-466.483C366.234,-392.659 422.638,-182.155 442.569,-107.771"/>
<path fill="none" stroke="#e8b8ff" stroke-width="3" d="M348.384,-467.001C368.166,-393.176 424.57,-182.672 444.501,-108.289"/>
<polygon fill="#e8b8ff" stroke="#e8b8ff" points="344.7,-466.069 345.334,-474.521 350.109,-467.519 344.7,-466.069"/>
<polygon fill="#eecbff" stroke="#eecbff" points="446.307,-108.504 445.673,-100.052 440.897,-107.055 446.307,-108.504"/>
</a>
</g>
<!-- ELF3_EHF&#45;&gt;ELF3_EHF -->
<g id="edge50" class="edge"><title>ELF3_EHF&#45;&gt;ELF3_EHF</title>
<a xlink:title="EHF: 0.082||remove17root">
<path fill="none" stroke="#ebc1ff" stroke-width="3" d="M245.959,-499.452C255.688,-499.251 263.258,-497.006 263.258,-492.717 263.258,-489.768 259.68,-487.786 254.282,-486.769"/>
<polygon fill="#ebc1ff" stroke="#ebc1ff" points="254.187,-483.948 245.959,-485.982 253.66,-489.523 254.187,-483.948"/>
</a>
</g>
<!-- ELF3_EHF&#45;&gt;DDIT3 -->
<g id="edge52" class="edge"><title>ELF3_EHF&#45;&gt;DDIT3</title>
<a xlink:title="DDIT3: 0.085||remove19root">
<path fill="none" stroke="#c1c7ff" stroke-width="3" d="M218.143,-474.486C229.335,-432.72 256.862,-329.988 269.854,-281.5"/>
<polygon fill="#c1c7ff" stroke="#c1c7ff" points="272.591,-282.104 271.957,-273.652 267.182,-280.654 272.591,-282.104"/>
</a>
</g>
<!-- PATZ1_KLF4&#45;&gt;FOSL2_SMARCC1 -->
<g id="edge54" class="edge"><title>PATZ1_KLF4&#45;&gt;FOSL2_SMARCC1</title>
<a xlink:title="FOSL2: 0.012||remove1root">
<path fill="none" stroke="#eecaff" stroke-width="3" d="M141.236,-439.335C179.188,-449.505 237.948,-465.249 281.833,-477.008"/>
<polygon fill="#eecaff" stroke="#eecaff" points="281.117,-479.715 289.569,-479.081 282.566,-474.306 281.117,-479.715"/>
</a>
</g>
<!-- PATZ1_KLF4&#45;&gt;ELF3_EHF -->
<g id="edge56" class="edge"><title>PATZ1_KLF4&#45;&gt;ELF3_EHF</title>
<a xlink:title="ELF3: 0.049||EHF: 0.040||remove9root">
<path fill="none" stroke="#ecc5ff" stroke-width="3" d="M134.372,-447.172C146.931,-454.423 161.535,-462.854 174.738,-470.477"/>
<polygon fill="#ecc5ff" stroke="#ecc5ff" points="173.58,-473.041 181.908,-474.617 176.38,-468.192 173.58,-473.041"/>
</a>
</g>
<!-- PATZ1_KLF4&#45;&gt;PATZ1_KLF4 -->
<g id="edge58" class="edge"><title>PATZ1_KLF4&#45;&gt;PATZ1_KLF4</title>
<a xlink:title="PATZ1: 0.441||KLF4: 0.051||remove14">
<path fill="none" stroke="#dd95ff" stroke-width="3" d="M141.314,-435.808C151.435,-435.425 159.1,-433.195 159.1,-429.117 159.1,-426.249 155.31,-424.296 149.542,-423.255"/>
<polygon fill="#dd95ff" stroke="#dd95ff" points="149.554,-420.442 141.314,-422.426 148.993,-426.014 149.554,-420.442"/>
</a>
</g>
<!-- PATZ1_KLF4&#45;&gt;CEBPG -->
<g id="edge60" class="edge"><title>PATZ1_KLF4&#45;&gt;CEBPG</title>
<a xlink:title="CEBPG: 0.026||remove3root">
<path fill="none" stroke="#edc8ff" stroke-width="3" d="M141.408,-418.852C220.839,-397.569 402.45,-348.906 479.077,-328.374"/>
<polygon fill="#edc8ff" stroke="#edc8ff" points="480.023,-331.02 487.026,-326.244 478.573,-325.61 480.023,-331.02"/>
</a>
</g>
<!-- PATZ1_KLF4&#45;&gt;ELK4_ETV5_ELK1_ELK3_ELF4 -->
<g id="edge62" class="edge"><title>PATZ1_KLF4&#45;&gt;ELK4_ETV5_ELK1_ELK3_ELF4</title>
<a xlink:title="ELF4: 0.309||ETV5: 0.031||ELK1: 0.011||remove7">
<path fill="none" stroke="#e2a5ff" stroke-width="3" d="M107.976,-410.921C125.532,-345.4 185.572,-121.327 206.218,-44.2744"/>
<polygon fill="#e2a5ff" stroke="#e2a5ff" points="208.948,-44.9041 208.314,-36.452 203.539,-43.4547 208.948,-44.9041"/>
</a>
</g>
<!-- PATZ1_KLF4&#45;&gt;DDIT3 -->
<g id="edge64" class="edge"><title>PATZ1_KLF4&#45;&gt;DDIT3</title>
<a xlink:title="DDIT3: 0.069||remove14root">
<path fill="none" stroke="#c3c9ff" stroke-width="3" d="M121.367,-410.85C152.996,-379.221 217.935,-314.282 253.053,-279.164"/>
<polygon fill="#c3c9ff" stroke="#c3c9ff" points="255.159,-281.017 258.836,-273.38 251.2,-277.057 255.159,-281.017"/>
</a>
</g>
<!-- PATZ1_KLF4&#45;&gt;MYB -->
<g id="edge66" class="edge"><title>PATZ1_KLF4&#45;&gt;MYB</title>
<a xlink:title="MYB: 0.133||remove10">
<path fill="none" stroke="#e9bbff" stroke-width="3" d="M113.605,-410.921C151.511,-345.267 281.327,-120.419 325.558,-43.8082"/>
<polygon fill="#e9bbff" stroke="#e9bbff" points="328.23,-44.7802 329.805,-36.452 323.38,-41.9802 328.23,-44.7802"/>
</a>
</g>
<!-- SIN3A_CHD1&#45;&gt;PATZ1_KLF4 -->
<g id="edge38" class="edge"><title>SIN3A_CHD1&#45;&gt;PATZ1_KLF4</title>
<a xlink:title="KLF4: 0.185||PATZ1: 0.181||remove5">
<path fill="none" stroke="#e7b4ff" stroke-width="3" d="M50.0022,-337.149C60.4974,-355.327 76.7207,-383.427 88.4734,-403.783"/>
<polygon fill="#e7b4ff" stroke="#e7b4ff" points="86.1572,-405.371 92.5822,-410.899 91.007,-402.571 86.1572,-405.371"/>
</a>
</g>
<!-- SIN3A_CHD1&#45;&gt;SIN3A_CHD1 -->
<g id="edge40" class="edge"><title>SIN3A_CHD1&#45;&gt;SIN3A_CHD1</title>
<a xlink:title="CHD1: 0.054||remove5">
<path fill="none" stroke="#ecc5ff" stroke-width="3" d="M78.9269,-325.628C88.9645,-325.189 96.5,-322.966 96.5,-318.958 96.5,-316.14 92.7746,-314.205 87.0734,-313.151"/>
<polygon fill="#ecc5ff" stroke="#ecc5ff" points="87.1772,-310.347 78.9269,-312.289 86.5877,-315.916 87.1772,-310.347"/>
</a>
</g>
<!-- SIN3A_CHD1&#45;&gt;ZNF524 -->
<g id="edge42" class="edge"><title>SIN3A_CHD1&#45;&gt;ZNF524</title>
<a xlink:title="ZNF524: 0.108||remove5">
<path fill="none" stroke="#eabeff" stroke-width="3" d="M39.5,-300.734C39.5,-279.103 39.5,-242.862 39.5,-218.162"/>
<polygon fill="#eabeff" stroke="#eabeff" points="42.3001,-217.949 39.5,-209.949 36.7001,-217.949 42.3001,-217.949"/>
</a>
</g>
<!-- SIN3A_CHD1&#45;&gt;ELK4_ETV5_ELK1_ELK3_ELF4 -->
<g id="edge44" class="edge"><title>SIN3A_CHD1&#45;&gt;ELK4_ETV5_ELK1_ELK3_ELF4</title>
<a xlink:title="ELK4: 0.423||ELK3: 0.080||ETV5: 0.034||remove5">
<path fill="none" stroke="#dd97ff" stroke-width="3" d="M50.1078,-300.585C79.9265,-248.938 164.536,-102.39 198.692,-43.2298"/>
<polygon fill="#dd97ff" stroke="#dd97ff" points="201.214,-44.461 202.789,-36.1328 196.365,-41.661 201.214,-44.461"/>
</a>
</g>
<!-- SIN3A_CHD1&#45;&gt;DDIT3 -->
<g id="edge46" class="edge"><title>SIN3A_CHD1&#45;&gt;DDIT3</title>
<a xlink:title="DDIT3: 0.037||remove5root">
<path fill="none" stroke="#c7ccff" stroke-width="3" d="M78.9614,-308.385C124.382,-296.214 198.292,-276.41 241.778,-264.758"/>
<polygon fill="#c7ccff" stroke="#c7ccff" points="242.527,-267.456 249.53,-262.681 241.078,-262.047 242.527,-267.456"/>
</a>
</g>
<!-- JDP2 -->
<g id="node36" class="node"><title>JDP2</title>
<a xlink:href="JDP2.svg" xlink:title="Z&#45;value: 0.436||remove13">
<polygon fill="#b0b7ff" stroke="#b0b7ff" stroke-width="2" points="529.217,-209.758 499.217,-209.758 487.217,-197.758 487.217,-185.758 499.217,-173.758 529.217,-173.758 541.217,-185.758 541.217,-197.758 529.217,-209.758"/>
<path fill="#b0b7ff" stroke="#b0b7ff" stroke-width="2" d="M499.217,-209.758C493.217,-209.758 487.217,-203.758 487.217,-197.758"/>
<path fill="#b0b7ff" stroke="#b0b7ff" stroke-width="2" d="M487.217,-185.758C487.217,-179.758 493.217,-173.758 499.217,-173.758"/>
<path fill="#b0b7ff" stroke="#b0b7ff" stroke-width="2" d="M529.217,-173.758C535.217,-173.758 541.217,-179.758 541.217,-185.758"/>
<path fill="#b0b7ff" stroke="#b0b7ff" stroke-width="2" d="M541.217,-197.758C541.217,-203.758 535.217,-209.758 529.217,-209.758"/>
<polyline fill="none" stroke="white" stroke-width="2" points="529.217,-209.758 499.217,-209.758 "/>
<path fill="none" stroke="white" stroke-width="2" d="M499.217,-209.758C493.217,-209.758 487.217,-203.758 487.217,-197.758"/>
<polyline fill="none" stroke="white" stroke-width="2" points="487.217,-197.758 487.217,-185.758 "/>
<path fill="none" stroke="white" stroke-width="2" d="M487.217,-185.758C487.217,-179.758 493.217,-173.758 499.217,-173.758"/>
<polyline fill="none" stroke="white" stroke-width="2" points="499.217,-173.758 529.217,-173.758 "/>
<path fill="none" stroke="white" stroke-width="2" d="M529.217,-173.758C535.217,-173.758 541.217,-179.758 541.217,-185.758"/>
<polyline fill="none" stroke="white" stroke-width="2" points="541.217,-185.758 541.217,-197.758 "/>
<path fill="none" stroke="white" stroke-width="2" d="M541.217,-197.758C541.217,-203.758 535.217,-209.758 529.217,-209.758"/>
<text text-anchor="middle" x="514.217" y="-189.258" font-family="Helvetica,sans-Serif" font-size="10.00">JDP2</text>
</a>
</g>
<!-- SIN3A_CHD1&#45;&gt;JDP2 -->
<g id="edge48" class="edge"><title>SIN3A_CHD1&#45;&gt;JDP2</title>
<a xlink:title="JDP2: 0.185||remove5">
<path fill="none" stroke="#e7b5ff" stroke-width="3" d="M76.1805,-300.877C116.691,-281.636 184.304,-251.65 245.538,-234.478 327.389,-211.526 426.951,-199.731 478.864,-194.751"/>
<polygon fill="#e7b5ff" stroke="#e7b5ff" points="479.376,-197.515 487.08,-193.981 478.854,-191.939 479.376,-197.515"/>
</a>
</g>
<!-- ZNF524&#45;&gt;ELF3_EHF -->
<g id="edge68" class="edge"><title>ZNF524&#45;&gt;ELF3_EHF</title>
<a xlink:title="EHF: 0.040||remove6root">
<path fill="none" stroke="#edc7ff" stroke-width="3" d="M50.1078,-210.132C79.9265,-261.779 164.536,-408.327 198.692,-467.487"/>
<polygon fill="#edc7ff" stroke="#edc7ff" points="196.365,-469.056 202.789,-474.584 201.214,-466.256 196.365,-469.056"/>
</a>
</g>
<!-- ZNF524&#45;&gt;DDIT3 -->
<g id="edge70" class="edge"><title>ZNF524&#45;&gt;DDIT3</title>
<a xlink:title="DDIT3: 0.044||remove8root">
<path fill="none" stroke="#c6ccff" stroke-width="3" d="M66.728,-199.054C109.895,-210.621 194.018,-233.161 241.691,-245.935"/>
<polygon fill="#c6ccff" stroke="#c6ccff" points="241.131,-248.684 249.583,-248.05 242.581,-243.275 241.131,-248.684"/>
</a>
</g>
<!-- NR1H4&#45;&gt;DDIT3 -->
<g id="edge76" class="edge"><title>NR1H4&#45;&gt;DDIT3</title>
<a xlink:title="DDIT3: 0.086||remove20root">
<path fill="none" stroke="#c1c7ff" stroke-width="3" d="M121.367,-99.8668C152.996,-131.496 217.935,-196.435 253.053,-231.553"/>
<polygon fill="#c1c7ff" stroke="#c1c7ff" points="251.2,-233.659 258.836,-237.336 255.159,-229.7 251.2,-233.659"/>
</a>
</g>
<!-- ELK4_ETV5_ELK1_ELK3_ELF4&#45;&gt;FOSL2_SMARCC1 -->
<g id="edge28" class="edge"><title>ELK4_ETV5_ELK1_ELK3_ELF4&#45;&gt;FOSL2_SMARCC1</title>
<a xlink:title="FOSL2: 0.117||SMARCC1: 0.039||ELF4: 0.116||remove7">
<path fill="none" stroke="#eabdff" stroke-width="3" d="M215.052,-44.3269C217.022,-91.5786 223.775,-193.543 246.503,-275.973 266.304,-347.932 306.024,-427.132 327.224,-466.711"/>
<path fill="none" stroke="#eabdff" stroke-width="3" d="M213.053,-44.4102C215.026,-91.7108 221.78,-193.675 244.574,-276.504 264.517,-348.829 304.237,-428.029 325.461,-467.656"/>
<polygon fill="#eabdff" stroke="#eabdff" points="216.844,-44.0805 213.737,-36.1944 211.248,-44.2964 216.844,-44.0805"/>
<polygon fill="#eabdff" stroke="#eabdff" points="324.061,-468.853 330.326,-474.562 328.989,-466.192 324.061,-468.853"/>
</a>
</g>
<!-- ELK4_ETV5_ELK1_ELK3_ELF4&#45;&gt;ZNF524 -->
<g id="edge30" class="edge"><title>ELK4_ETV5_ELK1_ELK3_ELF4&#45;&gt;ZNF524</title>
<a xlink:title="ZNF524: 0.100||remove7">
<path fill="none" stroke="#eabfff" stroke-width="3" d="M196.979,-36.1191C181.264,-53.447 156.647,-80.1654 134.42,-102.48 111.658,-125.331 84.8089,-150.42 65.4851,-168.167"/>
<polygon fill="#eabfff" stroke="#eabfff" points="63.4978,-166.19 59.4902,-173.659 67.2806,-170.32 63.4978,-166.19"/>
</a>
</g>
<!-- ELK4_ETV5_ELK1_ELK3_ELF4&#45;&gt;ELK4_ETV5_ELK1_ELK3_ELF4 -->
<g id="edge34" class="edge"><title>ELK4_ETV5_ELK1_ELK3_ELF4&#45;&gt;ELK4_ETV5_ELK1_ELK3_ELF4</title>
<a xlink:title="ELK4: 0.168||ELK3: 0.113||remove7">
<path fill="none" stroke="#e7b7ff" stroke-width="3" d="M291.978,-23.9524C302.368,-22.9373 309.258,-20.9531 309.258,-18 309.258,-15.9236 305.852,-14.3262 300.218,-13.2079"/>
<polygon fill="#e7b7ff" stroke="#e7b7ff" points="300.29,-10.3906 291.978,-12.0476 299.509,-15.9359 300.29,-10.3906"/>
</a>
</g>
<!-- ELK4_ETV5_ELK1_ELK3_ELF4&#45;&gt;DDIT3 -->
<g id="edge36" class="edge"><title>ELK4_ETV5_ELK1_ELK3_ELF4&#45;&gt;DDIT3</title>
<a xlink:title="DDIT3: 0.041||remove7root">
<path fill="none" stroke="#c6ccff" stroke-width="3" d="M218.143,-36.231C229.335,-77.9969 256.862,-180.729 269.854,-229.217"/>
<polygon fill="#c6ccff" stroke="#c6ccff" points="267.182,-230.063 271.957,-237.065 272.591,-228.613 267.182,-230.063"/>
</a>
</g>
<!-- ELK4_ETV5_ELK1_ELK3_ELF4&#45;&gt;FOSL1 -->
<g id="edge32" class="edge"><title>ELK4_ETV5_ELK1_ELK3_ELF4&#45;&gt;FOSL1</title>
<a xlink:title="FOSL1: 0.167||ELF4: 0.370||remove7">
<path fill="none" stroke="#e8b7ff" stroke-width="3" d="M288.795,-37.2046C331.307,-48.5957 382.436,-62.2956 415.745,-71.2209"/>
<path fill="none" stroke="#df9eff" stroke-width="3" d="M288.277,-39.1365C330.789,-50.5275 381.918,-64.2275 415.228,-73.1528"/>
<polygon fill="#df9eff" stroke="#df9eff" points="289.093,-35.4211 280.641,-36.0551 287.644,-40.8303 289.093,-35.4211"/>
<polygon fill="#e8b7ff" stroke="#e8b7ff" points="415.103,-74.9828 423.555,-74.3488 416.552,-69.5736 415.103,-74.9828"/>
</a>
</g>
<!-- DDIT3&#45;&gt;CEBPG -->
<g id="edge78" class="edge"><title>DDIT3&#45;&gt;CEBPG</title>
<a xlink:title="CEBPG: 0.034||remove4root">
<path fill="none" stroke="#ffc7c7" stroke-width="3" d="M304.086,-262.654C347.253,-274.221 431.376,-296.761 479.049,-309.535"/>
<polygon fill="#ffc7c7" stroke="#ffc7c7" points="478.49,-312.284 486.942,-311.65 479.939,-306.875 478.49,-312.284"/>
</a>
</g>
<!-- MYB&#45;&gt;DDIT3 -->
<g id="edge26" class="edge"><title>MYB&#45;&gt;DDIT3</title>
<a xlink:title="DDIT3: 0.055||remove10root">
<path fill="none" stroke="#c5caff" stroke-width="3" d="M335.573,-36.231C324.382,-77.9969 296.855,-180.729 283.863,-229.217"/>
<polygon fill="#c5caff" stroke="#c5caff" points="281.126,-228.613 281.76,-237.065 286.535,-230.063 281.126,-228.613"/>
</a>
</g>
<!-- MYB&#45;&gt;FOSL1 -->
<g id="edge24" class="edge"><title>MYB&#45;&gt;FOSL1</title>
<a xlink:title="FOSL1: 0.110||remove10">
<path fill="none" stroke="#eabeff" stroke-width="3" d="M367.689,-33.7214C382.385,-42.2066 400.672,-52.7644 416.331,-61.805"/>
<polygon fill="#eabeff" stroke="#eabeff" points="414.99,-64.2639 423.318,-65.8391 417.79,-59.4142 414.99,-64.2639"/>
</a>
</g>
<!-- FOSL1&#45;&gt;DDIT3 -->
<g id="edge88" class="edge"><title>FOSL1&#45;&gt;DDIT3</title>
<a xlink:title="DDIT3: 0.080||remove15root">
<path fill="none" stroke="#c2c8ff" stroke-width="3" d="M432.35,-99.8668C400.721,-131.496 335.782,-196.435 300.664,-231.553"/>
<polygon fill="#c2c8ff" stroke="#c2c8ff" points="298.557,-229.7 294.88,-237.336 302.517,-233.659 298.557,-229.7"/>
</a>
</g>
<!-- FOSL1&#45;&gt;FOSL1 -->
<g id="edge86" class="edge"><title>FOSL1&#45;&gt;FOSL1</title>
<a xlink:title="FOSL1: 0.060||remove11root">
<path fill="none" stroke="#ecc4ff" stroke-width="3" d="M477.858,-88.3434C487.641,-88.4884 495.617,-86.2406 495.617,-81.6 495.617,-78.3371 491.674,-76.2571 485.932,-75.3601"/>
<polygon fill="#ecc4ff" stroke="#ecc4ff" points="486.016,-72.5601 477.858,-74.8566 485.668,-78.1492 486.016,-72.5601"/>
</a>
</g>
<!-- JDP2&#45;&gt;FOSL2_SMARCC1 -->
<g id="edge80" class="edge"><title>JDP2&#45;&gt;FOSL2_SMARCC1</title>
<a xlink:title="FOSL2: 0.010||remove0root">
<path fill="none" stroke="#eecaff" stroke-width="3" d="M499.915,-209.932C472.04,-246.018 409.748,-329.993 370.577,-408.237 361.172,-427.023 353.315,-449.473 347.986,-466.507"/>
<polygon fill="#eecaff" stroke="#eecaff" points="345.236,-465.925 345.578,-474.394 350.592,-467.56 345.236,-465.925"/>
</a>
</g>
<!-- JDP2&#45;&gt;NR1H4 -->
<g id="edge82" class="edge"><title>JDP2&#45;&gt;NR1H4</title>
<a xlink:title="NR1H4: 0.020||remove2root">
<path fill="none" stroke="#edc9ff" stroke-width="3" d="M486.924,-184.445C414.623,-165.072 218.206,-112.443 137.962,-90.9412"/>
<polygon fill="#edc9ff" stroke="#edc9ff" points="138.567,-88.2046 130.115,-88.8386 137.118,-93.6138 138.567,-88.2046"/>
</a>
</g>
<!-- JDP2&#45;&gt;DDIT3 -->
<g id="edge84" class="edge"><title>JDP2&#45;&gt;DDIT3</title>
<a xlink:title="DDIT3: 0.066||remove13root">
<path fill="none" stroke="#c3c9ff" stroke-width="3" d="M486.989,-199.054C443.822,-210.621 359.699,-233.161 312.026,-245.935"/>
<polygon fill="#c3c9ff" stroke="#c3c9ff" points="311.136,-243.275 304.134,-248.05 312.586,-248.684 311.136,-243.275"/>
</a>
</g>
</g>
</svg>
