<?xml version="1.0" encoding="UTF-8" standalone="no"?>
<!DOCTYPE svg PUBLIC "-//W3C//DTD SVG 1.1//EN"
 "http://www.w3.org/Graphics/SVG/1.1/DTD/svg11.dtd">
<!-- Generated by graphviz version 2.28.0 (20110630.0925)
 -->
<!-- Title: _anonymous_0 Pages: 1 -->
<svg width="420pt" height="366pt"
 viewBox="0.00 0.00 420.45 366.45" xmlns="http://www.w3.org/2000/svg" xmlns:xlink="http://www.w3.org/1999/xlink">
<g id="graph1" class="graph" transform="scale(1 1) rotate(0) translate(4 362.449)">
<title>_anonymous_0</title>
<polygon fill="white" stroke="white" points="-4,5 -4,-362.449 417.449,-362.449 417.449,5 -4,5"/>
<!-- RCOR1_MTA3 -->
<g id="node1" class="node"><title>RCOR1_MTA3</title>
<a xlink:href="RCOR1_MTA3.svg" xlink:title="Z&#45;value: 1.731||remove20">
<polygon fill="#3247ff" stroke="#3247ff" stroke-width="2" points="382.199,-154.025 323.699,-154.025 311.699,-142.025 311.699,-130.025 323.699,-118.025 382.199,-118.025 394.199,-130.025 394.199,-142.025 382.199,-154.025"/>
<path fill="#3247ff" stroke="#3247ff" stroke-width="2" d="M323.699,-154.025C317.699,-154.025 311.699,-148.025 311.699,-142.025"/>
<path fill="#3247ff" stroke="#3247ff" stroke-width="2" d="M311.699,-130.025C311.699,-124.025 317.699,-118.025 323.699,-118.025"/>
<path fill="#3247ff" stroke="#3247ff" stroke-width="2" d="M382.199,-118.025C388.199,-118.025 394.199,-124.025 394.199,-130.025"/>
<path fill="#3247ff" stroke="#3247ff" stroke-width="2" d="M394.199,-142.025C394.199,-148.025 388.199,-154.025 382.199,-154.025"/>
<polyline fill="none" stroke="white" stroke-width="2" points="382.199,-154.025 323.699,-154.025 "/>
<path fill="none" stroke="white" stroke-width="2" d="M323.699,-154.025C317.699,-154.025 311.699,-148.025 311.699,-142.025"/>
<polyline fill="none" stroke="white" stroke-width="2" points="311.699,-142.025 311.699,-130.025 "/>
<path fill="none" stroke="white" stroke-width="2" d="M311.699,-130.025C311.699,-124.025 317.699,-118.025 323.699,-118.025"/>
<polyline fill="none" stroke="white" stroke-width="2" points="323.699,-118.025 382.199,-118.025 "/>
<path fill="none" stroke="white" stroke-width="2" d="M382.199,-118.025C388.199,-118.025 394.199,-124.025 394.199,-130.025"/>
<polyline fill="none" stroke="white" stroke-width="2" points="394.199,-130.025 394.199,-142.025 "/>
<path fill="none" stroke="white" stroke-width="2" d="M394.199,-142.025C394.199,-148.025 388.199,-154.025 382.199,-154.025"/>
<text text-anchor="middle" x="352.949" y="-133.525" font-family="Helvetica,sans-Serif" font-size="10.00" fill="white">RCOR1_MTA3</text>
</a>
</g>
<!-- RCOR1_MTA3&#45;&gt;RCOR1_MTA3 -->
<g id="edge2" class="edge"><title>RCOR1_MTA3&#45;&gt;RCOR1_MTA3</title>
<a xlink:title="RCOR1: 1.276||remove20">
<path fill="none" stroke="#bd32ff" stroke-width="3" d="M394.654,-142.669C404.857,-142.177 412.449,-139.962 412.449,-136.025 412.449,-133.256 408.696,-131.339 402.92,-130.274"/>
<polygon fill="#bd32ff" stroke="#bd32ff" points="402.909,-127.456 394.654,-129.38 402.307,-133.024 402.909,-127.456"/>
</a>
</g>
<!-- E2F2_E2F5 -->
<g id="node3" class="node"><title>E2F2_E2F5</title>
<a xlink:href="E2F2_E2F5.svg" xlink:title="Z&#45;value: 0.434||remove19">
<polygon fill="#a5aeff" stroke="#a5aeff" stroke-width="2" points="374.949,-240.425 330.949,-240.425 318.949,-228.425 318.949,-216.425 330.949,-204.425 374.949,-204.425 386.949,-216.425 386.949,-228.425 374.949,-240.425"/>
<path fill="#a5aeff" stroke="#a5aeff" stroke-width="2" d="M330.949,-240.425C324.949,-240.425 318.949,-234.425 318.949,-228.425"/>
<path fill="#a5aeff" stroke="#a5aeff" stroke-width="2" d="M318.949,-216.425C318.949,-210.425 324.949,-204.425 330.949,-204.425"/>
<path fill="#a5aeff" stroke="#a5aeff" stroke-width="2" d="M374.949,-204.425C380.949,-204.425 386.949,-210.425 386.949,-216.425"/>
<path fill="#a5aeff" stroke="#a5aeff" stroke-width="2" d="M386.949,-228.425C386.949,-234.425 380.949,-240.425 374.949,-240.425"/>
<polyline fill="none" stroke="white" stroke-width="2" points="374.949,-240.425 330.949,-240.425 "/>
<path fill="none" stroke="white" stroke-width="2" d="M330.949,-240.425C324.949,-240.425 318.949,-234.425 318.949,-228.425"/>
<polyline fill="none" stroke="white" stroke-width="2" points="318.949,-228.425 318.949,-216.425 "/>
<path fill="none" stroke="white" stroke-width="2" d="M318.949,-216.425C318.949,-210.425 324.949,-204.425 330.949,-204.425"/>
<polyline fill="none" stroke="white" stroke-width="2" points="330.949,-204.425 374.949,-204.425 "/>
<path fill="none" stroke="white" stroke-width="2" d="M374.949,-204.425C380.949,-204.425 386.949,-210.425 386.949,-216.425"/>
<polyline fill="none" stroke="white" stroke-width="2" points="386.949,-216.425 386.949,-228.425 "/>
<path fill="none" stroke="white" stroke-width="2" d="M386.949,-228.425C386.949,-234.425 380.949,-240.425 374.949,-240.425"/>
<text text-anchor="middle" x="352.949" y="-219.925" font-family="Helvetica,sans-Serif" font-size="10.00">E2F2_E2F5</text>
</a>
</g>
<!-- RCOR1_MTA3&#45;&gt;E2F2_E2F5 -->
<g id="edge4" class="edge"><title>RCOR1_MTA3&#45;&gt;E2F2_E2F5</title>
<a xlink:title="E2F5: 0.398||remove19">
<path fill="none" stroke="#df9cff" stroke-width="3" d="M352.949,-154.348C352.949,-166.572 352.949,-182.828 352.949,-196.389"/>
<polygon fill="#df9cff" stroke="#df9cff" points="350.149,-196.424 352.949,-204.424 355.749,-196.424 350.149,-196.424"/>
</a>
</g>
<!-- DRGX_PROP1 -->
<g id="node5" class="node"><title>DRGX_PROP1</title>
<a xlink:href="DRGX_PROP1.svg" xlink:title="Z&#45;value: 0.337||remove18">
<polygon fill="#aeb6ff" stroke="#aeb6ff" stroke-width="2" points="339.999,-315.249 279.499,-315.249 267.499,-303.249 267.499,-291.249 279.499,-279.249 339.999,-279.249 351.999,-291.249 351.999,-303.249 339.999,-315.249"/>
<path fill="#aeb6ff" stroke="#aeb6ff" stroke-width="2" d="M279.499,-315.249C273.499,-315.249 267.499,-309.249 267.499,-303.249"/>
<path fill="#aeb6ff" stroke="#aeb6ff" stroke-width="2" d="M267.499,-291.249C267.499,-285.249 273.499,-279.249 279.499,-279.249"/>
<path fill="#aeb6ff" stroke="#aeb6ff" stroke-width="2" d="M339.999,-279.249C345.999,-279.249 351.999,-285.249 351.999,-291.249"/>
<path fill="#aeb6ff" stroke="#aeb6ff" stroke-width="2" d="M351.999,-303.249C351.999,-309.249 345.999,-315.249 339.999,-315.249"/>
<polyline fill="none" stroke="white" stroke-width="2" points="339.999,-315.249 279.499,-315.249 "/>
<path fill="none" stroke="white" stroke-width="2" d="M279.499,-315.249C273.499,-315.249 267.499,-309.249 267.499,-303.249"/>
<polyline fill="none" stroke="white" stroke-width="2" points="267.499,-303.249 267.499,-291.249 "/>
<path fill="none" stroke="white" stroke-width="2" d="M267.499,-291.249C267.499,-285.249 273.499,-279.249 279.499,-279.249"/>
<polyline fill="none" stroke="white" stroke-width="2" points="279.499,-279.249 339.999,-279.249 "/>
<path fill="none" stroke="white" stroke-width="2" d="M339.999,-279.249C345.999,-279.249 351.999,-285.249 351.999,-291.249"/>
<polyline fill="none" stroke="white" stroke-width="2" points="351.999,-291.249 351.999,-303.249 "/>
<path fill="none" stroke="white" stroke-width="2" d="M351.999,-303.249C351.999,-309.249 345.999,-315.249 339.999,-315.249"/>
<text text-anchor="middle" x="309.749" y="-294.749" font-family="Helvetica,sans-Serif" font-size="10.00">DRGX_PROP1</text>
</a>
</g>
<!-- RCOR1_MTA3&#45;&gt;DRGX_PROP1 -->
<g id="edge6" class="edge"><title>RCOR1_MTA3&#45;&gt;DRGX_PROP1</title>
<a xlink:title="DRGX: 0.067||remove7root">
<path fill="none" stroke="#ecc3ff" stroke-width="3" d="M338.684,-154.038C329.649,-166.579 318.72,-184.118 313.509,-201.545 306.704,-224.304 306.323,-251.465 307.315,-271.028"/>
<polygon fill="#ecc3ff" stroke="#ecc3ff" points="304.531,-271.368 307.83,-279.175 310.12,-271.015 304.531,-271.368"/>
</a>
</g>
<!-- SMAD3 -->
<g id="node7" class="node"><title>SMAD3</title>
<a xlink:href="SMAD3.svg" xlink:title="Z&#45;value: 0.374||remove22">
<polygon fill="#aab3ff" stroke="#aab3ff" stroke-width="2" points="249.925,-358.449 219.925,-358.449 207.925,-346.449 207.925,-334.449 219.925,-322.449 249.925,-322.449 261.925,-334.449 261.925,-346.449 249.925,-358.449"/>
<path fill="#aab3ff" stroke="#aab3ff" stroke-width="2" d="M219.925,-358.449C213.925,-358.449 207.925,-352.449 207.925,-346.449"/>
<path fill="#aab3ff" stroke="#aab3ff" stroke-width="2" d="M207.925,-334.449C207.925,-328.449 213.925,-322.449 219.925,-322.449"/>
<path fill="#aab3ff" stroke="#aab3ff" stroke-width="2" d="M249.925,-322.449C255.925,-322.449 261.925,-328.449 261.925,-334.449"/>
<path fill="#aab3ff" stroke="#aab3ff" stroke-width="2" d="M261.925,-346.449C261.925,-352.449 255.925,-358.449 249.925,-358.449"/>
<polyline fill="none" stroke="white" stroke-width="2" points="249.925,-358.449 219.925,-358.449 "/>
<path fill="none" stroke="white" stroke-width="2" d="M219.925,-358.449C213.925,-358.449 207.925,-352.449 207.925,-346.449"/>
<polyline fill="none" stroke="white" stroke-width="2" points="207.925,-346.449 207.925,-334.449 "/>
<path fill="none" stroke="white" stroke-width="2" d="M207.925,-334.449C207.925,-328.449 213.925,-322.449 219.925,-322.449"/>
<polyline fill="none" stroke="white" stroke-width="2" points="219.925,-322.449 249.925,-322.449 "/>
<path fill="none" stroke="white" stroke-width="2" d="M249.925,-322.449C255.925,-322.449 261.925,-328.449 261.925,-334.449"/>
<polyline fill="none" stroke="white" stroke-width="2" points="261.925,-334.449 261.925,-346.449 "/>
<path fill="none" stroke="white" stroke-width="2" d="M261.925,-346.449C261.925,-352.449 255.925,-358.449 249.925,-358.449"/>
<text text-anchor="middle" x="234.925" y="-337.949" font-family="Helvetica,sans-Serif" font-size="10.00">SMAD3</text>
</a>
</g>
<!-- RCOR1_MTA3&#45;&gt;SMAD3 -->
<g id="edge8" class="edge"><title>RCOR1_MTA3&#45;&gt;SMAD3</title>
<a xlink:title="SMAD3: 0.247||remove20">
<path fill="none" stroke="#e5aeff" stroke-width="3" d="M339.112,-154.346C319.811,-180.455 284.477,-230.317 260.449,-276.369 254.103,-288.532 248.325,-302.642 243.878,-314.52"/>
<polygon fill="#e5aeff" stroke="#e5aeff" points="241.138,-313.861 241.021,-322.336 246.397,-315.784 241.138,-313.861"/>
</a>
</g>
<!-- EBF1 -->
<g id="node9" class="node"><title>EBF1</title>
<a xlink:href="EBF1.svg" xlink:title="Z&#45;value: 0.941||remove25">
<polygon fill="#ff7878" stroke="#ff7878" stroke-width="2" points="206.725,-197.225 176.725,-197.225 164.725,-185.225 164.725,-173.225 176.725,-161.225 206.725,-161.225 218.725,-173.225 218.725,-185.225 206.725,-197.225"/>
<path fill="#ff7878" stroke="#ff7878" stroke-width="2" d="M176.725,-197.225C170.725,-197.225 164.725,-191.225 164.725,-185.225"/>
<path fill="#ff7878" stroke="#ff7878" stroke-width="2" d="M164.725,-173.225C164.725,-167.225 170.725,-161.225 176.725,-161.225"/>
<path fill="#ff7878" stroke="#ff7878" stroke-width="2" d="M206.725,-161.225C212.725,-161.225 218.725,-167.225 218.725,-173.225"/>
<path fill="#ff7878" stroke="#ff7878" stroke-width="2" d="M218.725,-185.225C218.725,-191.225 212.725,-197.225 206.725,-197.225"/>
<polyline fill="none" stroke="white" stroke-width="2" points="206.725,-197.225 176.725,-197.225 "/>
<path fill="none" stroke="white" stroke-width="2" d="M176.725,-197.225C170.725,-197.225 164.725,-191.225 164.725,-185.225"/>
<polyline fill="none" stroke="white" stroke-width="2" points="164.725,-185.225 164.725,-173.225 "/>
<path fill="none" stroke="white" stroke-width="2" d="M164.725,-173.225C164.725,-167.225 170.725,-161.225 176.725,-161.225"/>
<polyline fill="none" stroke="white" stroke-width="2" points="176.725,-161.225 206.725,-161.225 "/>
<path fill="none" stroke="white" stroke-width="2" d="M206.725,-161.225C212.725,-161.225 218.725,-167.225 218.725,-173.225"/>
<polyline fill="none" stroke="white" stroke-width="2" points="218.725,-173.225 218.725,-185.225 "/>
<path fill="none" stroke="white" stroke-width="2" d="M218.725,-185.225C218.725,-191.225 212.725,-197.225 206.725,-197.225"/>
<text text-anchor="middle" x="191.725" y="-176.725" font-family="Helvetica,sans-Serif" font-size="10.00">EBF1</text>
</a>
</g>
<!-- RCOR1_MTA3&#45;&gt;EBF1 -->
<g id="edge10" class="edge"><title>RCOR1_MTA3&#45;&gt;EBF1</title>
<a xlink:title="EBF1: 0.030||MTA3: 0.228||remove20root">
<path fill="none" stroke="#c8cdff" stroke-width="3" d="M303.641,-150.272C278.88,-156.907 249.506,-164.777 227.102,-170.781"/>
<path fill="none" stroke="#ffb0b0" stroke-width="3" d="M303.124,-148.34C278.362,-154.975 248.988,-162.846 226.584,-168.849"/>
<polygon fill="#ffb0b0" stroke="#ffb0b0" points="304.427,-151.925 311.43,-147.15 302.978,-146.516 304.427,-151.925"/>
<polygon fill="#c8cdff" stroke="#c8cdff" points="225.929,-167.161 218.926,-171.936 227.378,-172.57 225.929,-167.161"/>
</a>
</g>
<!-- EBF3 -->
<g id="node11" class="node"><title>EBF3</title>
<a xlink:href="EBF3.svg" xlink:title="Z&#45;value: 0.693||remove16">
<polygon fill="#8e99ff" stroke="#8e99ff" stroke-width="2" points="163.525,-358.449 133.525,-358.449 121.525,-346.449 121.525,-334.449 133.525,-322.449 163.525,-322.449 175.525,-334.449 175.525,-346.449 163.525,-358.449"/>
<path fill="#8e99ff" stroke="#8e99ff" stroke-width="2" d="M133.525,-358.449C127.525,-358.449 121.525,-352.449 121.525,-346.449"/>
<path fill="#8e99ff" stroke="#8e99ff" stroke-width="2" d="M121.525,-334.449C121.525,-328.449 127.525,-322.449 133.525,-322.449"/>
<path fill="#8e99ff" stroke="#8e99ff" stroke-width="2" d="M163.525,-322.449C169.525,-322.449 175.525,-328.449 175.525,-334.449"/>
<path fill="#8e99ff" stroke="#8e99ff" stroke-width="2" d="M175.525,-346.449C175.525,-352.449 169.525,-358.449 163.525,-358.449"/>
<polyline fill="none" stroke="white" stroke-width="2" points="163.525,-358.449 133.525,-358.449 "/>
<path fill="none" stroke="white" stroke-width="2" d="M133.525,-358.449C127.525,-358.449 121.525,-352.449 121.525,-346.449"/>
<polyline fill="none" stroke="white" stroke-width="2" points="121.525,-346.449 121.525,-334.449 "/>
<path fill="none" stroke="white" stroke-width="2" d="M121.525,-334.449C121.525,-328.449 127.525,-322.449 133.525,-322.449"/>
<polyline fill="none" stroke="white" stroke-width="2" points="133.525,-322.449 163.525,-322.449 "/>
<path fill="none" stroke="white" stroke-width="2" d="M163.525,-322.449C169.525,-322.449 175.525,-328.449 175.525,-334.449"/>
<polyline fill="none" stroke="white" stroke-width="2" points="175.525,-334.449 175.525,-346.449 "/>
<path fill="none" stroke="white" stroke-width="2" d="M175.525,-346.449C175.525,-352.449 169.525,-358.449 163.525,-358.449"/>
<text text-anchor="middle" x="148.525" y="-337.949" font-family="Helvetica,sans-Serif" font-size="10.00">EBF3</text>
</a>
</g>
<!-- RCOR1_MTA3&#45;&gt;EBF3 -->
<g id="edge12" class="edge"><title>RCOR1_MTA3&#45;&gt;EBF3</title>
<a xlink:title="EBF3: 0.063||MTA3: 0.017||remove6root">
<path fill="none" stroke="#ecc4ff" stroke-width="3" d="M329.729,-160.659C290.441,-199.947 212.7,-277.688 173.313,-317.075"/>
<path fill="none" stroke="#eec9ff" stroke-width="3" d="M328.314,-159.245C289.027,-198.533 211.286,-276.273 171.899,-315.661"/>
<polygon fill="#eec9ff" stroke="#eec9ff" points="331.131,-161.803 334.808,-154.166 327.171,-157.843 331.131,-161.803"/>
<polygon fill="#ecc4ff" stroke="#ecc4ff" points="170.302,-314.712 166.625,-322.349 174.262,-318.672 170.302,-314.712"/>
</a>
</g>
<!-- MNT_HEY1_HEY2 -->
<g id="node13" class="node"><title>MNT_HEY1_HEY2</title>
<a xlink:href="MNT_HEY1_HEY2.svg" xlink:title="Z&#45;value: 0.774||remove15">
<polygon fill="#8793ff" stroke="#8793ff" stroke-width="2" points="111.95,-315.249 35.45,-315.249 23.45,-303.249 23.45,-291.249 35.45,-279.249 111.95,-279.249 123.95,-291.249 123.95,-303.249 111.95,-315.249"/>
<path fill="#8793ff" stroke="#8793ff" stroke-width="2" d="M35.45,-315.249C29.45,-315.249 23.45,-309.249 23.45,-303.249"/>
<path fill="#8793ff" stroke="#8793ff" stroke-width="2" d="M23.45,-291.249C23.45,-285.249 29.45,-279.249 35.45,-279.249"/>
<path fill="#8793ff" stroke="#8793ff" stroke-width="2" d="M111.95,-279.249C117.95,-279.249 123.95,-285.249 123.95,-291.249"/>
<path fill="#8793ff" stroke="#8793ff" stroke-width="2" d="M123.95,-303.249C123.95,-309.249 117.95,-315.249 111.95,-315.249"/>
<polyline fill="none" stroke="white" stroke-width="2" points="111.95,-315.249 35.45,-315.249 "/>
<path fill="none" stroke="white" stroke-width="2" d="M35.45,-315.249C29.45,-315.249 23.45,-309.249 23.45,-303.249"/>
<polyline fill="none" stroke="white" stroke-width="2" points="23.45,-303.249 23.45,-291.249 "/>
<path fill="none" stroke="white" stroke-width="2" d="M23.45,-291.249C23.45,-285.249 29.45,-279.249 35.45,-279.249"/>
<polyline fill="none" stroke="white" stroke-width="2" points="35.45,-279.249 111.95,-279.249 "/>
<path fill="none" stroke="white" stroke-width="2" d="M111.95,-279.249C117.95,-279.249 123.95,-285.249 123.95,-291.249"/>
<polyline fill="none" stroke="white" stroke-width="2" points="123.95,-291.249 123.95,-303.249 "/>
<path fill="none" stroke="white" stroke-width="2" d="M123.95,-303.249C123.95,-309.249 117.95,-315.249 111.95,-315.249"/>
<text text-anchor="middle" x="73.7" y="-294.749" font-family="Helvetica,sans-Serif" font-size="10.00">MNT_HEY1_HEY2</text>
</a>
</g>
<!-- RCOR1_MTA3&#45;&gt;MNT_HEY1_HEY2 -->
<g id="edge14" class="edge"><title>RCOR1_MTA3&#45;&gt;MNT_HEY1_HEY2</title>
<a xlink:title="HEY1: 0.091||RCOR1: 0.060||MTA3: 0.007||remove8root">
<path fill="none" stroke="#ebc1ff" stroke-width="3" d="M315.014,-159.081C261.801,-189.804 166.23,-244.982 112.885,-275.78"/>
<path fill="none" stroke="#ecc4ff" stroke-width="3" d="M314.014,-157.349C260.801,-188.072 165.23,-243.25 111.885,-274.048"/>
<polygon fill="#ecc4ff" stroke="#ecc4ff" points="316.2,-160.475 321.729,-154.05 313.4,-155.625 316.2,-160.475"/>
<polygon fill="#ebc1ff" stroke="#ebc1ff" points="110.675,-272.668 105.147,-279.093 113.475,-277.518 110.675,-272.668"/>
</a>
</g>
<!-- E2F2_E2F5&#45;&gt;EBF3 -->
<g id="edge42" class="edge"><title>E2F2_E2F5&#45;&gt;EBF3</title>
<a xlink:title="EBF3: 0.025||remove1root">
<path fill="none" stroke="#edc9ff" stroke-width="3" d="M321.456,-240.607C283.921,-262.278 221.43,-298.357 182.736,-320.697"/>
<polygon fill="#edc9ff" stroke="#edc9ff" points="181.328,-318.277 175.799,-324.702 184.128,-323.127 181.328,-318.277"/>
</a>
</g>
<!-- EBF1&#45;&gt;E2F2_E2F5 -->
<g id="edge18" class="edge"><title>EBF1&#45;&gt;E2F2_E2F5</title>
<a xlink:title="E2F2: 0.218||remove19root">
<path fill="none" stroke="#ffb1b1" stroke-width="3" d="M219.074,-186.553C244.203,-193.286 281.829,-203.368 310.8,-211.131"/>
<polygon fill="#ffb1b1" stroke="#ffb1b1" points="310.272,-213.888 318.724,-213.254 311.721,-208.479 310.272,-213.888"/>
</a>
</g>
<!-- EBF1&#45;&gt;DRGX_PROP1 -->
<g id="edge20" class="edge"><title>EBF1&#45;&gt;DRGX_PROP1</title>
<a xlink:title="PROP1: 0.200||remove18root">
<path fill="none" stroke="#ffb4b4" stroke-width="3" d="M209.907,-197.407C230.326,-217.826 263.537,-251.037 285.994,-273.494"/>
<polygon fill="#ffb4b4" stroke="#ffb4b4" points="284.103,-275.563 291.74,-279.24 288.063,-271.603 284.103,-275.563"/>
</a>
</g>
<!-- EBF1&#45;&gt;SMAD3 -->
<g id="edge28" class="edge"><title>EBF1&#45;&gt;SMAD3</title>
<a xlink:title="SMAD3: 0.252||remove22root">
<path fill="none" stroke="#ffadad" stroke-width="3" d="M196.596,-197.406C204.245,-225.951 219.104,-281.407 227.906,-314.254"/>
<polygon fill="#ffadad" stroke="#ffadad" points="225.229,-315.084 230.005,-322.087 230.638,-313.635 225.229,-315.084"/>
</a>
</g>
<!-- EBF1&#45;&gt;EBF3 -->
<g id="edge32" class="edge"><title>EBF1&#45;&gt;EBF3</title>
<a xlink:title="EBF3: 0.166||remove16root">
<path fill="none" stroke="#ffb8b8" stroke-width="3" d="M186.853,-197.406C179.204,-225.951 164.345,-281.407 155.544,-314.254"/>
<polygon fill="#ffb8b8" stroke="#ffb8b8" points="152.811,-313.635 153.445,-322.087 158.22,-315.084 152.811,-313.635"/>
</a>
</g>
<!-- EBF1&#45;&gt;MNT_HEY1_HEY2 -->
<g id="edge34" class="edge"><title>EBF1&#45;&gt;MNT_HEY1_HEY2</title>
<a xlink:title="HEY1: 0.164||remove15root">
<path fill="none" stroke="#ffb8b8" stroke-width="3" d="M173.542,-197.407C153.123,-217.826 119.912,-251.037 97.4555,-273.494"/>
<polygon fill="#ffb8b8" stroke="#ffb8b8" points="95.3866,-271.603 91.7097,-279.24 99.3465,-275.563 95.3866,-271.603"/>
</a>
</g>
<!-- BHLHE40 -->
<g id="node15" class="node"><title>BHLHE40</title>
<a xlink:href="BHLHE40.svg" xlink:title="Z&#45;value: 0.505||remove17">
<polygon fill="#9fa8ff" stroke="#9fa8ff" stroke-width="2" points="48.75,-240.425 12.25,-240.425 0.25,-228.425 0.25,-216.425 12.25,-204.425 48.75,-204.425 60.75,-216.425 60.75,-228.425 48.75,-240.425"/>
<path fill="#9fa8ff" stroke="#9fa8ff" stroke-width="2" d="M12.25,-240.425C6.25,-240.425 0.25,-234.425 0.25,-228.425"/>
<path fill="#9fa8ff" stroke="#9fa8ff" stroke-width="2" d="M0.25,-216.425C0.25,-210.425 6.25,-204.425 12.25,-204.425"/>
<path fill="#9fa8ff" stroke="#9fa8ff" stroke-width="2" d="M48.75,-204.425C54.75,-204.425 60.75,-210.425 60.75,-216.425"/>
<path fill="#9fa8ff" stroke="#9fa8ff" stroke-width="2" d="M60.75,-228.425C60.75,-234.425 54.75,-240.425 48.75,-240.425"/>
<polyline fill="none" stroke="white" stroke-width="2" points="48.75,-240.425 12.25,-240.425 "/>
<path fill="none" stroke="white" stroke-width="2" d="M12.25,-240.425C6.25,-240.425 0.25,-234.425 0.25,-228.425"/>
<polyline fill="none" stroke="white" stroke-width="2" points="0.25,-228.425 0.25,-216.425 "/>
<path fill="none" stroke="white" stroke-width="2" d="M0.25,-216.425C0.25,-210.425 6.25,-204.425 12.25,-204.425"/>
<polyline fill="none" stroke="white" stroke-width="2" points="12.25,-204.425 48.75,-204.425 "/>
<path fill="none" stroke="white" stroke-width="2" d="M48.75,-204.425C54.75,-204.425 60.75,-210.425 60.75,-216.425"/>
<polyline fill="none" stroke="white" stroke-width="2" points="60.75,-216.425 60.75,-228.425 "/>
<path fill="none" stroke="white" stroke-width="2" d="M60.75,-228.425C60.75,-234.425 54.75,-240.425 48.75,-240.425"/>
<text text-anchor="middle" x="30.5" y="-219.925" font-family="Helvetica,sans-Serif" font-size="10.00">BHLHE40</text>
</a>
</g>
<!-- EBF1&#45;&gt;BHLHE40 -->
<g id="edge16" class="edge"><title>EBF1&#45;&gt;BHLHE40</title>
<a xlink:title="BHLHE40: 0.170||remove17root">
<path fill="none" stroke="#ffb7b7" stroke-width="3" d="M164.375,-186.553C138.179,-193.572 98.4001,-204.231 69.0057,-212.107"/>
<polygon fill="#ffb7b7" stroke="#ffb7b7" points="68.0129,-209.474 61.0102,-214.249 69.4623,-214.883 68.0129,-209.474"/>
</a>
</g>
<!-- ZNF8 -->
<g id="node19" class="node"><title>ZNF8</title>
<a xlink:href="ZNF8.svg" xlink:title="Z&#45;value: 0.243||remove12">
<polygon fill="#b6bdff" stroke="#b6bdff" stroke-width="2" points="45.5,-154.025 15.5,-154.025 3.5,-142.025 3.5,-130.025 15.5,-118.025 45.5,-118.025 57.5,-130.025 57.5,-142.025 45.5,-154.025"/>
<path fill="#b6bdff" stroke="#b6bdff" stroke-width="2" d="M15.5,-154.025C9.5,-154.025 3.5,-148.025 3.5,-142.025"/>
<path fill="#b6bdff" stroke="#b6bdff" stroke-width="2" d="M3.5,-130.025C3.5,-124.025 9.5,-118.025 15.5,-118.025"/>
<path fill="#b6bdff" stroke="#b6bdff" stroke-width="2" d="M45.5,-118.025C51.5,-118.025 57.5,-124.025 57.5,-130.025"/>
<path fill="#b6bdff" stroke="#b6bdff" stroke-width="2" d="M57.5,-142.025C57.5,-148.025 51.5,-154.025 45.5,-154.025"/>
<polyline fill="none" stroke="white" stroke-width="2" points="45.5,-154.025 15.5,-154.025 "/>
<path fill="none" stroke="white" stroke-width="2" d="M15.5,-154.025C9.5,-154.025 3.5,-148.025 3.5,-142.025"/>
<polyline fill="none" stroke="white" stroke-width="2" points="3.5,-142.025 3.5,-130.025 "/>
<path fill="none" stroke="white" stroke-width="2" d="M3.5,-130.025C3.5,-124.025 9.5,-118.025 15.5,-118.025"/>
<polyline fill="none" stroke="white" stroke-width="2" points="15.5,-118.025 45.5,-118.025 "/>
<path fill="none" stroke="white" stroke-width="2" d="M45.5,-118.025C51.5,-118.025 57.5,-124.025 57.5,-130.025"/>
<polyline fill="none" stroke="white" stroke-width="2" points="57.5,-130.025 57.5,-142.025 "/>
<path fill="none" stroke="white" stroke-width="2" d="M57.5,-142.025C57.5,-148.025 51.5,-154.025 45.5,-154.025"/>
<text text-anchor="middle" x="30.5" y="-133.525" font-family="Helvetica,sans-Serif" font-size="10.00">ZNF8</text>
</a>
</g>
<!-- EBF1&#45;&gt;ZNF8 -->
<g id="edge22" class="edge"><title>EBF1&#45;&gt;ZNF8</title>
<a xlink:title="ZNF8: 0.146||remove12root">
<path fill="none" stroke="#ffbaba" stroke-width="3" d="M164.375,-171.896C137.194,-164.613 95.3881,-153.411 65.7338,-145.465"/>
<polygon fill="#ffbaba" stroke="#ffbaba" points="66.1663,-142.683 57.7142,-143.317 64.7169,-148.092 66.1663,-142.683"/>
</a>
</g>
<!-- JUND -->
<g id="node21" class="node"><title>JUND</title>
<a xlink:href="JUND.svg" xlink:title="Z&#45;value: 0.652||remove24">
<polygon fill="#929dff" stroke="#929dff" stroke-width="2" points="88.7,-79.2 58.7,-79.2 46.7,-67.2 46.7,-55.2 58.7,-43.2 88.7,-43.2 100.7,-55.2 100.7,-67.2 88.7,-79.2"/>
<path fill="#929dff" stroke="#929dff" stroke-width="2" d="M58.7,-79.2C52.7,-79.2 46.7,-73.2 46.7,-67.2"/>
<path fill="#929dff" stroke="#929dff" stroke-width="2" d="M46.7,-55.2C46.7,-49.2 52.7,-43.2 58.7,-43.2"/>
<path fill="#929dff" stroke="#929dff" stroke-width="2" d="M88.7,-43.2C94.7,-43.2 100.7,-49.2 100.7,-55.2"/>
<path fill="#929dff" stroke="#929dff" stroke-width="2" d="M100.7,-67.2C100.7,-73.2 94.7,-79.2 88.7,-79.2"/>
<polyline fill="none" stroke="white" stroke-width="2" points="88.7,-79.2 58.7,-79.2 "/>
<path fill="none" stroke="white" stroke-width="2" d="M58.7,-79.2C52.7,-79.2 46.7,-73.2 46.7,-67.2"/>
<polyline fill="none" stroke="white" stroke-width="2" points="46.7,-67.2 46.7,-55.2 "/>
<path fill="none" stroke="white" stroke-width="2" d="M46.7,-55.2C46.7,-49.2 52.7,-43.2 58.7,-43.2"/>
<polyline fill="none" stroke="white" stroke-width="2" points="58.7,-43.2 88.7,-43.2 "/>
<path fill="none" stroke="white" stroke-width="2" d="M88.7,-43.2C94.7,-43.2 100.7,-49.2 100.7,-55.2"/>
<polyline fill="none" stroke="white" stroke-width="2" points="100.7,-55.2 100.7,-67.2 "/>
<path fill="none" stroke="white" stroke-width="2" d="M100.7,-67.2C100.7,-73.2 94.7,-79.2 88.7,-79.2"/>
<text text-anchor="middle" x="73.7" y="-58.7" font-family="Helvetica,sans-Serif" font-size="10.00">JUND</text>
</a>
</g>
<!-- EBF1&#45;&gt;JUND -->
<g id="edge24" class="edge"><title>EBF1&#45;&gt;JUND</title>
<a xlink:title="JUND: 0.290||remove24root">
<path fill="none" stroke="#ffa9a9" stroke-width="3" d="M173.542,-161.042C153.123,-140.623 119.912,-107.412 97.4555,-84.9555"/>
<polygon fill="#ffa9a9" stroke="#ffa9a9" points="99.3465,-82.8866 91.7097,-79.2097 95.3866,-86.8465 99.3465,-82.8866"/>
</a>
</g>
<!-- ERG -->
<g id="node23" class="node"><title>ERG</title>
<a xlink:href="ERG.svg" xlink:title="Z&#45;value: 0.660||remove23">
<polygon fill="#919cff" stroke="#919cff" stroke-width="2" points="163.525,-36 133.525,-36 121.525,-24 121.525,-12 133.525,-6.39488e-14 163.525,-6.39488e-14 175.525,-12 175.525,-24 163.525,-36"/>
<path fill="#919cff" stroke="#919cff" stroke-width="2" d="M133.525,-36C127.525,-36 121.525,-30 121.525,-24"/>
<path fill="#919cff" stroke="#919cff" stroke-width="2" d="M121.525,-12C121.525,-6 127.525,-6.39488e-14 133.525,-6.39488e-14"/>
<path fill="#919cff" stroke="#919cff" stroke-width="2" d="M163.525,-6.39488e-14C169.525,-6.39488e-14 175.525,-6 175.525,-12"/>
<path fill="#919cff" stroke="#919cff" stroke-width="2" d="M175.525,-24C175.525,-30 169.525,-36 163.525,-36"/>
<polyline fill="none" stroke="white" stroke-width="2" points="163.525,-36 133.525,-36 "/>
<path fill="none" stroke="white" stroke-width="2" d="M133.525,-36C127.525,-36 121.525,-30 121.525,-24"/>
<polyline fill="none" stroke="white" stroke-width="2" points="121.525,-24 121.525,-12 "/>
<path fill="none" stroke="white" stroke-width="2" d="M121.525,-12C121.525,-6 127.525,-6.39488e-14 133.525,-6.39488e-14"/>
<polyline fill="none" stroke="white" stroke-width="2" points="133.525,-6.39488e-14 163.525,-6.39488e-14 "/>
<path fill="none" stroke="white" stroke-width="2" d="M163.525,-6.39488e-14C169.525,-6.39488e-14 175.525,-6 175.525,-12"/>
<polyline fill="none" stroke="white" stroke-width="2" points="175.525,-12 175.525,-24 "/>
<path fill="none" stroke="white" stroke-width="2" d="M175.525,-24C175.525,-30 169.525,-36 163.525,-36"/>
<text text-anchor="middle" x="148.525" y="-15.5" font-family="Helvetica,sans-Serif" font-size="10.00">ERG</text>
</a>
</g>
<!-- EBF1&#45;&gt;ERG -->
<g id="edge26" class="edge"><title>EBF1&#45;&gt;ERG</title>
<a xlink:title="ERG: 0.280||remove23root">
<path fill="none" stroke="#ffaaaa" stroke-width="3" d="M186.853,-161.043C179.204,-132.498 164.345,-77.042 155.544,-44.1955"/>
<polygon fill="#ffaaaa" stroke="#ffaaaa" points="158.22,-43.3647 153.445,-36.362 152.811,-44.8142 158.22,-43.3647"/>
</a>
</g>
<!-- TFAP2C -->
<g id="node26" class="node"><title>TFAP2C</title>
<a xlink:href="TFAP2C.svg" xlink:title="Z&#45;value: 0.810||remove13">
<polygon fill="#8490ff" stroke="#8490ff" stroke-width="2" points="250.175,-36 219.675,-36 207.675,-24 207.675,-12 219.675,-0 250.175,-0 262.175,-12 262.175,-24 250.175,-36"/>
<path fill="#8490ff" stroke="#8490ff" stroke-width="2" d="M219.675,-36C213.675,-36 207.675,-30 207.675,-24"/>
<path fill="#8490ff" stroke="#8490ff" stroke-width="2" d="M207.675,-12C207.675,-6 213.675,-0 219.675,-0"/>
<path fill="#8490ff" stroke="#8490ff" stroke-width="2" d="M250.175,-0C256.175,-0 262.175,-6 262.175,-12"/>
<path fill="#8490ff" stroke="#8490ff" stroke-width="2" d="M262.175,-24C262.175,-30 256.175,-36 250.175,-36"/>
<polyline fill="none" stroke="white" stroke-width="2" points="250.175,-36 219.675,-36 "/>
<path fill="none" stroke="white" stroke-width="2" d="M219.675,-36C213.675,-36 207.675,-30 207.675,-24"/>
<polyline fill="none" stroke="white" stroke-width="2" points="207.675,-24 207.675,-12 "/>
<path fill="none" stroke="white" stroke-width="2" d="M207.675,-12C207.675,-6 213.675,-0 219.675,-0"/>
<polyline fill="none" stroke="white" stroke-width="2" points="219.675,-0 250.175,-0 "/>
<path fill="none" stroke="white" stroke-width="2" d="M250.175,-0C256.175,-0 262.175,-6 262.175,-12"/>
<polyline fill="none" stroke="white" stroke-width="2" points="262.175,-12 262.175,-24 "/>
<path fill="none" stroke="white" stroke-width="2" d="M262.175,-24C262.175,-30 256.175,-36 250.175,-36"/>
<text text-anchor="middle" x="234.925" y="-15.5" font-family="Helvetica,sans-Serif" font-size="10.00">TFAP2C</text>
</a>
</g>
<!-- EBF1&#45;&gt;TFAP2C -->
<g id="edge30" class="edge"><title>EBF1&#45;&gt;TFAP2C</title>
<a xlink:title="TFAP2C: 0.147||remove13root">
<path fill="none" stroke="#ffbaba" stroke-width="3" d="M196.596,-161.043C204.245,-132.498 219.104,-77.042 227.906,-44.1955"/>
<polygon fill="#ffbaba" stroke="#ffbaba" points="230.638,-44.8142 230.005,-36.362 225.229,-43.3647 230.638,-44.8142"/>
</a>
</g>
<!-- ARID5B -->
<g id="node30" class="node"><title>ARID5B</title>
<a xlink:href="ARID5B.svg" xlink:title="Z&#45;value: 0.249||remove21">
<polygon fill="#b5bdff" stroke="#b5bdff" stroke-width="2" points="324.749,-79.2 294.749,-79.2 282.749,-67.2 282.749,-55.2 294.749,-43.2 324.749,-43.2 336.749,-55.2 336.749,-67.2 324.749,-79.2"/>
<path fill="#b5bdff" stroke="#b5bdff" stroke-width="2" d="M294.749,-79.2C288.749,-79.2 282.749,-73.2 282.749,-67.2"/>
<path fill="#b5bdff" stroke="#b5bdff" stroke-width="2" d="M282.749,-55.2C282.749,-49.2 288.749,-43.2 294.749,-43.2"/>
<path fill="#b5bdff" stroke="#b5bdff" stroke-width="2" d="M324.749,-43.2C330.749,-43.2 336.749,-49.2 336.749,-55.2"/>
<path fill="#b5bdff" stroke="#b5bdff" stroke-width="2" d="M336.749,-67.2C336.749,-73.2 330.749,-79.2 324.749,-79.2"/>
<polyline fill="none" stroke="white" stroke-width="2" points="324.749,-79.2 294.749,-79.2 "/>
<path fill="none" stroke="white" stroke-width="2" d="M294.749,-79.2C288.749,-79.2 282.749,-73.2 282.749,-67.2"/>
<polyline fill="none" stroke="white" stroke-width="2" points="282.749,-67.2 282.749,-55.2 "/>
<path fill="none" stroke="white" stroke-width="2" d="M282.749,-55.2C282.749,-49.2 288.749,-43.2 294.749,-43.2"/>
<polyline fill="none" stroke="white" stroke-width="2" points="294.749,-43.2 324.749,-43.2 "/>
<path fill="none" stroke="white" stroke-width="2" d="M324.749,-43.2C330.749,-43.2 336.749,-49.2 336.749,-55.2"/>
<polyline fill="none" stroke="white" stroke-width="2" points="336.749,-55.2 336.749,-67.2 "/>
<path fill="none" stroke="white" stroke-width="2" d="M336.749,-67.2C336.749,-73.2 330.749,-79.2 324.749,-79.2"/>
<text text-anchor="middle" x="309.749" y="-58.7" font-family="Helvetica,sans-Serif" font-size="10.00">ARID5B</text>
</a>
</g>
<!-- EBF1&#45;&gt;ARID5B -->
<g id="edge36" class="edge"><title>EBF1&#45;&gt;ARID5B</title>
<a xlink:title="ARID5B: 0.230||remove21root">
<path fill="none" stroke="#ffb0b0" stroke-width="3" d="M209.907,-161.042C230.326,-140.623 263.537,-107.412 285.994,-84.9555"/>
<polygon fill="#ffb0b0" stroke="#ffb0b0" points="288.063,-86.8465 291.74,-79.2097 284.103,-82.8866 288.063,-86.8465"/>
</a>
</g>
<!-- EBF3&#45;&gt;BHLHE40 -->
<g id="edge38" class="edge"><title>EBF3&#45;&gt;BHLHE40</title>
<a xlink:title="BHLHE40: 0.139||remove11root">
<path fill="none" stroke="#e9bbff" stroke-width="3" d="M147.838,-322.422C146.459,-308.536 142.631,-289.546 132.28,-276.369 116.326,-256.06 90.568,-242.513 68.9568,-234.074"/>
<polygon fill="#e9bbff" stroke="#e9bbff" points="69.6826,-231.357 61.2083,-231.194 67.731,-236.606 69.6826,-231.357"/>
</a>
</g>
<!-- EBF3&#45;&gt;ERG -->
<g id="edge40" class="edge"><title>EBF3&#45;&gt;ERG</title>
<a xlink:title="ERG: 0.134||remove10root">
<path fill="none" stroke="#e9bbff" stroke-width="3" d="M148.525,-322.189C148.525,-267.984 148.525,-107.839 148.525,-44.3552"/>
<polygon fill="#e9bbff" stroke="#e9bbff" points="151.325,-44.0598 148.525,-36.0599 145.725,-44.0599 151.325,-44.0598"/>
</a>
</g>
<!-- ZNF8&#45;&gt;JUND -->
<g id="edge60" class="edge"><title>ZNF8&#45;&gt;JUND</title>
<a xlink:title="JUND: 0.158||remove12">
<path fill="none" stroke="#e8b9ff" stroke-width="3" d="M40.9575,-117.912C46.3829,-108.515 53.0997,-96.8808 59.035,-86.6005"/>
<polygon fill="#e8b9ff" stroke="#e8b9ff" points="61.6139,-87.7337 63.1891,-79.4055 56.7641,-84.9337 61.6139,-87.7337"/>
</a>
</g>
<!-- JUND&#45;&gt;SMAD3 -->
<g id="edge58" class="edge"><title>JUND&#45;&gt;SMAD3</title>
<a xlink:title="SMAD3: 0.452||remove22">
<path fill="none" stroke="#dd95ff" stroke-width="3" d="M84.2784,-79.5223C112.303,-128.063 188.5,-260.04 220.484,-315.438"/>
<polygon fill="#dd95ff" stroke="#dd95ff" points="218.092,-316.894 224.517,-322.422 222.942,-314.094 218.092,-316.894"/>
</a>
</g>
<!-- ERG&#45;&gt;MNT_HEY1_HEY2 -->
<g id="edge56" class="edge"><title>ERG&#45;&gt;MNT_HEY1_HEY2</title>
<a xlink:title="MNT: 0.156||remove14root">
<path fill="none" stroke="#e8b9ff" stroke-width="3" d="M143.615,-36.3223C130.688,-84.5654 95.6779,-215.227 80.6766,-271.212"/>
<polygon fill="#e8b9ff" stroke="#e8b9ff" points="77.8963,-270.77 78.5303,-279.222 83.3055,-272.22 77.8963,-270.77"/>
</a>
</g>
<!-- ERG&#45;&gt;ZNF8 -->
<g id="edge52" class="edge"><title>ERG&#45;&gt;ZNF8</title>
<a xlink:title="ZNF8: 0.056||remove2root">
<path fill="none" stroke="#ecc5ff" stroke-width="3" d="M138.572,-36.0841C130.583,-49.6451 118.504,-68.1833 105.02,-82.08 93.0864,-94.3789 78.0654,-105.845 64.6414,-115.015"/>
<polygon fill="#ecc5ff" stroke="#ecc5ff" points="62.8868,-112.82 57.7919,-119.593 65.9989,-117.475 62.8868,-112.82"/>
</a>
</g>
<!-- ERG&#45;&gt;TFAP2C -->
<g id="edge54" class="edge"><title>ERG&#45;&gt;TFAP2C</title>
<a xlink:title="TFAP2C: 0.063||remove5root">
<path fill="none" stroke="#ecc4ff" stroke-width="3" d="M175.862,-18C183.269,-18 191.397,-18 199.192,-18"/>
<polygon fill="#ecc4ff" stroke="#ecc4ff" points="199.468,-20.8001 207.468,-18 199.468,-15.2001 199.468,-20.8001"/>
</a>
</g>
<!-- TFAP2C&#45;&gt;RCOR1_MTA3 -->
<g id="edge44" class="edge"><title>TFAP2C&#45;&gt;RCOR1_MTA3</title>
<a xlink:title="MTA3: 0.018||remove0root">
<path fill="none" stroke="#edc9ff" stroke-width="3" d="M244.877,-36.0841C252.866,-49.6451 264.945,-68.1833 278.429,-82.08 289.596,-93.5891 303.467,-104.368 316.203,-113.22"/>
<polygon fill="#edc9ff" stroke="#edc9ff" points="314.947,-115.752 323.137,-117.932 318.094,-111.12 314.947,-115.752"/>
</a>
</g>
<!-- TFAP2C&#45;&gt;MNT_HEY1_HEY2 -->
<g id="edge50" class="edge"><title>TFAP2C&#45;&gt;MNT_HEY1_HEY2</title>
<a xlink:title="HEY1: 0.057||remove3root">
<path fill="none" stroke="#ecc5ff" stroke-width="3" d="M224.346,-36.3223C196.321,-84.8626 120.125,-216.84 88.1401,-272.238"/>
<polygon fill="#ecc5ff" stroke="#ecc5ff" points="85.6829,-270.894 84.1078,-279.222 90.5327,-273.694 85.6829,-270.894"/>
</a>
</g>
<!-- TFAP2C&#45;&gt;JUND -->
<g id="edge46" class="edge"><title>TFAP2C&#45;&gt;JUND</title>
<a xlink:title="JUND: 0.114||remove9root">
<path fill="none" stroke="#eabeff" stroke-width="3" d="M207.472,-29.3653C198.737,-32.7215 188.972,-36.2078 179.845,-38.88 156.551,-45.6995 129.806,-51.3099 108.991,-55.2001"/>
<polygon fill="#eabeff" stroke="#eabeff" points="108.401,-52.4615 101.036,-56.6572 109.41,-57.9698 108.401,-52.4615"/>
</a>
</g>
<!-- TFAP2C&#45;&gt;TFAP2C -->
<g id="edge48" class="edge"><title>TFAP2C&#45;&gt;TFAP2C</title>
<a xlink:title="TFAP2C: 0.059||remove4root">
<path fill="none" stroke="#ecc4ff" stroke-width="3" d="M262.609,-24.7484C272.188,-24.8198 279.925,-22.5703 279.925,-18 279.925,-14.8579 276.268,-12.8128 270.87,-11.8646"/>
<polygon fill="#ecc4ff" stroke="#ecc4ff" points="270.794,-9.05141 262.609,-11.2516 270.38,-14.6361 270.794,-9.05141"/>
</a>
</g>
</g>
</svg>
