<?xml version="1.0" encoding="UTF-8" standalone="no"?>
<!DOCTYPE svg PUBLIC "-//W3C//DTD SVG 1.1//EN"
 "http://www.w3.org/Graphics/SVG/1.1/DTD/svg11.dtd">
<!-- Generated by graphviz version 2.28.0 (20110630.0925)
 -->
<!-- Title: _anonymous_0 Pages: 1 -->
<svg width="426pt" height="366pt"
 viewBox="0.00 0.00 426.45 366.45" xmlns="http://www.w3.org/2000/svg" xmlns:xlink="http://www.w3.org/1999/xlink">
<g id="graph1" class="graph" transform="scale(1 1) rotate(0) translate(4 362.449)">
<title>_anonymous_0</title>
<polygon fill="white" stroke="white" points="-4,5 -4,-362.449 423.449,-362.449 423.449,5 -4,5"/>
<!-- ESRRA_ESR2 -->
<g id="node1" class="node"><title>ESRRA_ESR2</title>
<a xlink:href="ESRRA_ESR2.svg" xlink:title="Z&#45;value: 3.814||remove29">
<polygon fill="#3247ff" stroke="#3247ff" stroke-width="2" points="402.699,-240.425 344.199,-240.425 332.199,-228.425 332.199,-216.425 344.199,-204.425 402.699,-204.425 414.699,-216.425 414.699,-228.425 402.699,-240.425"/>
<path fill="#3247ff" stroke="#3247ff" stroke-width="2" d="M344.199,-240.425C338.199,-240.425 332.199,-234.425 332.199,-228.425"/>
<path fill="#3247ff" stroke="#3247ff" stroke-width="2" d="M332.199,-216.425C332.199,-210.425 338.199,-204.425 344.199,-204.425"/>
<path fill="#3247ff" stroke="#3247ff" stroke-width="2" d="M402.699,-204.425C408.699,-204.425 414.699,-210.425 414.699,-216.425"/>
<path fill="#3247ff" stroke="#3247ff" stroke-width="2" d="M414.699,-228.425C414.699,-234.425 408.699,-240.425 402.699,-240.425"/>
<polyline fill="none" stroke="white" stroke-width="2" points="402.699,-240.425 344.199,-240.425 "/>
<path fill="none" stroke="white" stroke-width="2" d="M344.199,-240.425C338.199,-240.425 332.199,-234.425 332.199,-228.425"/>
<polyline fill="none" stroke="white" stroke-width="2" points="332.199,-228.425 332.199,-216.425 "/>
<path fill="none" stroke="white" stroke-width="2" d="M332.199,-216.425C332.199,-210.425 338.199,-204.425 344.199,-204.425"/>
<polyline fill="none" stroke="white" stroke-width="2" points="344.199,-204.425 402.699,-204.425 "/>
<path fill="none" stroke="white" stroke-width="2" d="M402.699,-204.425C408.699,-204.425 414.699,-210.425 414.699,-216.425"/>
<polyline fill="none" stroke="white" stroke-width="2" points="414.699,-216.425 414.699,-228.425 "/>
<path fill="none" stroke="white" stroke-width="2" d="M414.699,-228.425C414.699,-234.425 408.699,-240.425 402.699,-240.425"/>
<text text-anchor="middle" x="373.449" y="-219.925" font-family="Helvetica,sans-Serif" font-size="10.00" fill="white">ESRRA_ESR2</text>
</a>
</g>
<!-- E4F1 -->
<g id="node2" class="node"><title>E4F1</title>
<a xlink:href="E4F1.svg" xlink:title="Z&#45;value: 0.328||remove19">
<polygon fill="#bec5ff" stroke="#bec5ff" stroke-width="2" points="66,-154.025 36,-154.025 24,-142.025 24,-130.025 36,-118.025 66,-118.025 78,-130.025 78,-142.025 66,-154.025"/>
<path fill="#bec5ff" stroke="#bec5ff" stroke-width="2" d="M36,-154.025C30,-154.025 24,-148.025 24,-142.025"/>
<path fill="#bec5ff" stroke="#bec5ff" stroke-width="2" d="M24,-130.025C24,-124.025 30,-118.025 36,-118.025"/>
<path fill="#bec5ff" stroke="#bec5ff" stroke-width="2" d="M66,-118.025C72,-118.025 78,-124.025 78,-130.025"/>
<path fill="#bec5ff" stroke="#bec5ff" stroke-width="2" d="M78,-142.025C78,-148.025 72,-154.025 66,-154.025"/>
<polyline fill="none" stroke="white" stroke-width="2" points="66,-154.025 36,-154.025 "/>
<path fill="none" stroke="white" stroke-width="2" d="M36,-154.025C30,-154.025 24,-148.025 24,-142.025"/>
<polyline fill="none" stroke="white" stroke-width="2" points="24,-142.025 24,-130.025 "/>
<path fill="none" stroke="white" stroke-width="2" d="M24,-130.025C24,-124.025 30,-118.025 36,-118.025"/>
<polyline fill="none" stroke="white" stroke-width="2" points="36,-118.025 66,-118.025 "/>
<path fill="none" stroke="white" stroke-width="2" d="M66,-118.025C72,-118.025 78,-124.025 78,-130.025"/>
<polyline fill="none" stroke="white" stroke-width="2" points="78,-130.025 78,-142.025 "/>
<path fill="none" stroke="white" stroke-width="2" d="M78,-142.025C78,-148.025 72,-154.025 66,-154.025"/>
<text text-anchor="middle" x="51" y="-133.525" font-family="Helvetica,sans-Serif" font-size="10.00">E4F1</text>
</a>
</g>
<!-- ESRRA_ESR2&#45;&gt;E4F1 -->
<g id="edge2" class="edge"><title>ESRRA_ESR2&#45;&gt;E4F1</title>
<a xlink:title="E4F1: 0.877||remove19">
<path fill="none" stroke="#ce65ff" stroke-width="3" d="M347.348,-204.223C324.455,-189.246 289.699,-168.837 256.305,-158.345 198.704,-140.247 128.047,-136.301 86.434,-135.719"/>
<polygon fill="#ce65ff" stroke="#ce65ff" points="86.2865,-132.918 78.2609,-135.643 86.2345,-138.518 86.2865,-132.918"/>
</a>
</g>
<!-- PLAGL1 -->
<g id="node4" class="node"><title>PLAGL1</title>
<a xlink:href="PLAGL1.svg" xlink:title="Z&#45;value: 1.203||remove27">
<polygon fill="#9ba5ff" stroke="#9ba5ff" stroke-width="2" points="109.2,-79.2 79.2,-79.2 67.2,-67.2 67.2,-55.2 79.2,-43.2 109.2,-43.2 121.2,-55.2 121.2,-67.2 109.2,-79.2"/>
<path fill="#9ba5ff" stroke="#9ba5ff" stroke-width="2" d="M79.2,-79.2C73.2,-79.2 67.2,-73.2 67.2,-67.2"/>
<path fill="#9ba5ff" stroke="#9ba5ff" stroke-width="2" d="M67.2,-55.2C67.2,-49.2 73.2,-43.2 79.2,-43.2"/>
<path fill="#9ba5ff" stroke="#9ba5ff" stroke-width="2" d="M109.2,-43.2C115.2,-43.2 121.2,-49.2 121.2,-55.2"/>
<path fill="#9ba5ff" stroke="#9ba5ff" stroke-width="2" d="M121.2,-67.2C121.2,-73.2 115.2,-79.2 109.2,-79.2"/>
<polyline fill="none" stroke="white" stroke-width="2" points="109.2,-79.2 79.2,-79.2 "/>
<path fill="none" stroke="white" stroke-width="2" d="M79.2,-79.2C73.2,-79.2 67.2,-73.2 67.2,-67.2"/>
<polyline fill="none" stroke="white" stroke-width="2" points="67.2,-67.2 67.2,-55.2 "/>
<path fill="none" stroke="white" stroke-width="2" d="M67.2,-55.2C67.2,-49.2 73.2,-43.2 79.2,-43.2"/>
<polyline fill="none" stroke="white" stroke-width="2" points="79.2,-43.2 109.2,-43.2 "/>
<path fill="none" stroke="white" stroke-width="2" d="M109.2,-43.2C115.2,-43.2 121.2,-49.2 121.2,-55.2"/>
<polyline fill="none" stroke="white" stroke-width="2" points="121.2,-55.2 121.2,-67.2 "/>
<path fill="none" stroke="white" stroke-width="2" d="M121.2,-67.2C121.2,-73.2 115.2,-79.2 109.2,-79.2"/>
<text text-anchor="middle" x="94.2" y="-58.7" font-family="Helvetica,sans-Serif" font-size="10.00">PLAGL1</text>
</a>
</g>
<!-- ESRRA_ESR2&#45;&gt;PLAGL1 -->
<g id="edge4" class="edge"><title>ESRRA_ESR2&#45;&gt;PLAGL1</title>
<a xlink:title="PLAGL1: 0.182||ESRRA: 0.170||remove27">
<path fill="none" stroke="#e7b6ff" stroke-width="3" d="M334.665,-201.187C280.012,-169.633 180.456,-112.155 128.055,-81.9009"/>
<path fill="none" stroke="#e8b8ff" stroke-width="3" d="M335.665,-199.455C281.012,-167.901 181.456,-110.422 129.055,-80.1688"/>
<polygon fill="#e8b8ff" stroke="#e8b8ff" points="333.9,-202.824 342.229,-204.399 336.7,-197.974 333.9,-202.824"/>
<polygon fill="#e7b6ff" stroke="#e7b6ff" points="129.812,-78.5273 121.484,-76.9522 127.012,-83.3771 129.812,-78.5273"/>
</a>
</g>
<!-- EGR3_EGR2 -->
<g id="node8" class="node"><title>EGR3_EGR2</title>
<a xlink:href="EGR3_EGR2.svg" xlink:title="Z&#45;value: 0.523||remove31">
<polygon fill="#ffb7b7" stroke="#ffb7b7" stroke-width="2" points="238.225,-197.225 186.225,-197.225 174.225,-185.225 174.225,-173.225 186.225,-161.225 238.225,-161.225 250.225,-173.225 250.225,-185.225 238.225,-197.225"/>
<path fill="#ffb7b7" stroke="#ffb7b7" stroke-width="2" d="M186.225,-197.225C180.225,-197.225 174.225,-191.225 174.225,-185.225"/>
<path fill="#ffb7b7" stroke="#ffb7b7" stroke-width="2" d="M174.225,-173.225C174.225,-167.225 180.225,-161.225 186.225,-161.225"/>
<path fill="#ffb7b7" stroke="#ffb7b7" stroke-width="2" d="M238.225,-161.225C244.225,-161.225 250.225,-167.225 250.225,-173.225"/>
<path fill="#ffb7b7" stroke="#ffb7b7" stroke-width="2" d="M250.225,-185.225C250.225,-191.225 244.225,-197.225 238.225,-197.225"/>
<polyline fill="none" stroke="white" stroke-width="2" points="238.225,-197.225 186.225,-197.225 "/>
<path fill="none" stroke="white" stroke-width="2" d="M186.225,-197.225C180.225,-197.225 174.225,-191.225 174.225,-185.225"/>
<polyline fill="none" stroke="white" stroke-width="2" points="174.225,-185.225 174.225,-173.225 "/>
<path fill="none" stroke="white" stroke-width="2" d="M174.225,-173.225C174.225,-167.225 180.225,-161.225 186.225,-161.225"/>
<polyline fill="none" stroke="white" stroke-width="2" points="186.225,-161.225 238.225,-161.225 "/>
<path fill="none" stroke="white" stroke-width="2" d="M238.225,-161.225C244.225,-161.225 250.225,-167.225 250.225,-173.225"/>
<polyline fill="none" stroke="white" stroke-width="2" points="250.225,-173.225 250.225,-185.225 "/>
<path fill="none" stroke="white" stroke-width="2" d="M250.225,-185.225C250.225,-191.225 244.225,-197.225 238.225,-197.225"/>
<text text-anchor="middle" x="212.225" y="-176.725" font-family="Helvetica,sans-Serif" font-size="10.00">EGR3_EGR2</text>
</a>
</g>
<!-- E4F1&#45;&gt;EGR3_EGR2 -->
<g id="edge18" class="edge"><title>E4F1&#45;&gt;EGR3_EGR2</title>
<a xlink:title="EGR2: 0.119||remove19root">
<path fill="none" stroke="#bec4ff" stroke-width="3" d="M78.3496,-143.353C102.411,-149.8 137.93,-159.318 166.338,-166.929"/>
<polygon fill="#bec4ff" stroke="#bec4ff" points="165.694,-169.655 174.146,-169.021 167.143,-164.246 165.694,-169.655"/>
</a>
</g>
<!-- PLAGL1&#45;&gt;PLAGL1 -->
<g id="edge10" class="edge"><title>PLAGL1&#45;&gt;PLAGL1</title>
<a xlink:title="PLAGL1: 0.151||remove23root">
<path fill="none" stroke="#e9baff" stroke-width="3" d="M121.441,-67.9434C131.224,-68.0884 139.2,-65.8406 139.2,-61.2 139.2,-57.9371 135.257,-55.8571 129.515,-54.9601"/>
<polygon fill="#e9baff" stroke="#e9baff" points="129.6,-52.1601 121.441,-54.4566 129.251,-57.7492 129.6,-52.1601"/>
</a>
</g>
<!-- PBX2 -->
<g id="node6" class="node"><title>PBX2</title>
<a xlink:href="PBX2.svg" xlink:title="Z&#45;value: 0.216||remove20">
<polygon fill="#c3c9ff" stroke="#c3c9ff" stroke-width="2" points="345.249,-315.249 315.249,-315.249 303.249,-303.249 303.249,-291.249 315.249,-279.249 345.249,-279.249 357.249,-291.249 357.249,-303.249 345.249,-315.249"/>
<path fill="#c3c9ff" stroke="#c3c9ff" stroke-width="2" d="M315.249,-315.249C309.249,-315.249 303.249,-309.249 303.249,-303.249"/>
<path fill="#c3c9ff" stroke="#c3c9ff" stroke-width="2" d="M303.249,-291.249C303.249,-285.249 309.249,-279.249 315.249,-279.249"/>
<path fill="#c3c9ff" stroke="#c3c9ff" stroke-width="2" d="M345.249,-279.249C351.249,-279.249 357.249,-285.249 357.249,-291.249"/>
<path fill="#c3c9ff" stroke="#c3c9ff" stroke-width="2" d="M357.249,-303.249C357.249,-309.249 351.249,-315.249 345.249,-315.249"/>
<polyline fill="none" stroke="white" stroke-width="2" points="345.249,-315.249 315.249,-315.249 "/>
<path fill="none" stroke="white" stroke-width="2" d="M315.249,-315.249C309.249,-315.249 303.249,-309.249 303.249,-303.249"/>
<polyline fill="none" stroke="white" stroke-width="2" points="303.249,-303.249 303.249,-291.249 "/>
<path fill="none" stroke="white" stroke-width="2" d="M303.249,-291.249C303.249,-285.249 309.249,-279.249 315.249,-279.249"/>
<polyline fill="none" stroke="white" stroke-width="2" points="315.249,-279.249 345.249,-279.249 "/>
<path fill="none" stroke="white" stroke-width="2" d="M345.249,-279.249C351.249,-279.249 357.249,-285.249 357.249,-291.249"/>
<polyline fill="none" stroke="white" stroke-width="2" points="357.249,-291.249 357.249,-303.249 "/>
<path fill="none" stroke="white" stroke-width="2" d="M357.249,-303.249C357.249,-309.249 351.249,-315.249 345.249,-315.249"/>
<text text-anchor="middle" x="330.249" y="-294.749" font-family="Helvetica,sans-Serif" font-size="10.00">PBX2</text>
</a>
</g>
<!-- PLAGL1&#45;&gt;PBX2 -->
<g id="edge6" class="edge"><title>PLAGL1&#45;&gt;PBX2</title>
<a xlink:title="PBX2: 0.070||remove14root">
<path fill="none" stroke="#ecc3ff" stroke-width="3" d="M100.239,-79.3362C110.464,-107.852 133.512,-163.67 168.145,-200.105 204.711,-238.573 259.792,-267.215 295.389,-283.088"/>
<polygon fill="#ecc3ff" stroke="#ecc3ff" points="294.663,-285.827 303.115,-286.469 296.908,-280.697 294.663,-285.827"/>
</a>
</g>
<!-- PLAGL1&#45;&gt;EGR3_EGR2 -->
<g id="edge8" class="edge"><title>PLAGL1&#45;&gt;EGR3_EGR2</title>
<a xlink:title="EGR2: 0.178||EGR3: 0.012||remove27root">
<path fill="none" stroke="#b7beff" stroke-width="3" d="M112.383,-79.3827C132.802,-99.8017 166.013,-133.013 188.469,-155.469"/>
<polygon fill="#b7beff" stroke="#b7beff" points="186.578,-157.538 194.215,-161.215 190.538,-153.578 186.578,-157.538"/>
</a>
</g>
<!-- NKX2&#45;5 -->
<g id="node11" class="node"><title>NKX2&#45;5</title>
<a xlink:href="NKX2-5.svg" xlink:title="Z&#45;value: 0.410||remove18">
<polygon fill="#bbc2ff" stroke="#bbc2ff" stroke-width="2" points="270.425,-358.449 240.425,-358.449 228.425,-346.449 228.425,-334.449 240.425,-322.449 270.425,-322.449 282.425,-334.449 282.425,-346.449 270.425,-358.449"/>
<path fill="#bbc2ff" stroke="#bbc2ff" stroke-width="2" d="M240.425,-358.449C234.425,-358.449 228.425,-352.449 228.425,-346.449"/>
<path fill="#bbc2ff" stroke="#bbc2ff" stroke-width="2" d="M228.425,-334.449C228.425,-328.449 234.425,-322.449 240.425,-322.449"/>
<path fill="#bbc2ff" stroke="#bbc2ff" stroke-width="2" d="M270.425,-322.449C276.425,-322.449 282.425,-328.449 282.425,-334.449"/>
<path fill="#bbc2ff" stroke="#bbc2ff" stroke-width="2" d="M282.425,-346.449C282.425,-352.449 276.425,-358.449 270.425,-358.449"/>
<polyline fill="none" stroke="white" stroke-width="2" points="270.425,-358.449 240.425,-358.449 "/>
<path fill="none" stroke="white" stroke-width="2" d="M240.425,-358.449C234.425,-358.449 228.425,-352.449 228.425,-346.449"/>
<polyline fill="none" stroke="white" stroke-width="2" points="228.425,-346.449 228.425,-334.449 "/>
<path fill="none" stroke="white" stroke-width="2" d="M228.425,-334.449C228.425,-328.449 234.425,-322.449 240.425,-322.449"/>
<polyline fill="none" stroke="white" stroke-width="2" points="240.425,-322.449 270.425,-322.449 "/>
<path fill="none" stroke="white" stroke-width="2" d="M270.425,-322.449C276.425,-322.449 282.425,-328.449 282.425,-334.449"/>
<polyline fill="none" stroke="white" stroke-width="2" points="282.425,-334.449 282.425,-346.449 "/>
<path fill="none" stroke="white" stroke-width="2" d="M282.425,-346.449C282.425,-352.449 276.425,-358.449 270.425,-358.449"/>
<text text-anchor="middle" x="255.425" y="-337.949" font-family="Helvetica,sans-Serif" font-size="10.00">NKX2&#45;5</text>
</a>
</g>
<!-- PLAGL1&#45;&gt;NKX2&#45;5 -->
<g id="edge12" class="edge"><title>PLAGL1&#45;&gt;NKX2&#45;5</title>
<a xlink:title="NKX2&#45;5: 0.036||remove10root">
<path fill="none" stroke="#edc7ff" stroke-width="3" d="M103.39,-79.3926C117.009,-106.134 143.592,-157.497 168.145,-200.105 191.684,-240.955 220.964,-287.184 238.917,-315.058"/>
<polygon fill="#edc7ff" stroke="#edc7ff" points="236.755,-316.872 243.446,-322.074 241.459,-313.835 236.755,-316.872"/>
</a>
</g>
<!-- TCF3_MYOG -->
<g id="node13" class="node"><title>TCF3_MYOG</title>
<a xlink:href="TCF3_MYOG.svg" xlink:title="Z&#45;value: 0.691||remove22">
<polygon fill="#b0b8ff" stroke="#b0b8ff" stroke-width="2" points="195.275,-358.449 142.775,-358.449 130.775,-346.449 130.775,-334.449 142.775,-322.449 195.275,-322.449 207.275,-334.449 207.275,-346.449 195.275,-358.449"/>
<path fill="#b0b8ff" stroke="#b0b8ff" stroke-width="2" d="M142.775,-358.449C136.775,-358.449 130.775,-352.449 130.775,-346.449"/>
<path fill="#b0b8ff" stroke="#b0b8ff" stroke-width="2" d="M130.775,-334.449C130.775,-328.449 136.775,-322.449 142.775,-322.449"/>
<path fill="#b0b8ff" stroke="#b0b8ff" stroke-width="2" d="M195.275,-322.449C201.275,-322.449 207.275,-328.449 207.275,-334.449"/>
<path fill="#b0b8ff" stroke="#b0b8ff" stroke-width="2" d="M207.275,-346.449C207.275,-352.449 201.275,-358.449 195.275,-358.449"/>
<polyline fill="none" stroke="white" stroke-width="2" points="195.275,-358.449 142.775,-358.449 "/>
<path fill="none" stroke="white" stroke-width="2" d="M142.775,-358.449C136.775,-358.449 130.775,-352.449 130.775,-346.449"/>
<polyline fill="none" stroke="white" stroke-width="2" points="130.775,-346.449 130.775,-334.449 "/>
<path fill="none" stroke="white" stroke-width="2" d="M130.775,-334.449C130.775,-328.449 136.775,-322.449 142.775,-322.449"/>
<polyline fill="none" stroke="white" stroke-width="2" points="142.775,-322.449 195.275,-322.449 "/>
<path fill="none" stroke="white" stroke-width="2" d="M195.275,-322.449C201.275,-322.449 207.275,-328.449 207.275,-334.449"/>
<polyline fill="none" stroke="white" stroke-width="2" points="207.275,-334.449 207.275,-346.449 "/>
<path fill="none" stroke="white" stroke-width="2" d="M207.275,-346.449C207.275,-352.449 201.275,-358.449 195.275,-358.449"/>
<text text-anchor="middle" x="169.025" y="-337.949" font-family="Helvetica,sans-Serif" font-size="10.00">TCF3_MYOG</text>
</a>
</g>
<!-- PLAGL1&#45;&gt;TCF3_MYOG -->
<g id="edge14" class="edge"><title>PLAGL1&#45;&gt;TCF3_MYOG</title>
<a xlink:title="TCF3: 0.185||MYOG: 0.028||remove22">
<path fill="none" stroke="#e7b6ff" stroke-width="3" d="M99.1095,-79.5223C112.036,-127.765 147.047,-258.427 162.048,-314.412"/>
<polygon fill="#e7b6ff" stroke="#e7b6ff" points="159.419,-315.42 164.194,-322.422 164.828,-313.97 159.419,-315.42"/>
</a>
</g>
<!-- PAX5 -->
<g id="node15" class="node"><title>PAX5</title>
<a xlink:href="PAX5.svg" xlink:title="Z&#45;value: 1.037||remove21">
<polygon fill="#a2abff" stroke="#a2abff" stroke-width="2" points="184.025,-36 154.025,-36 142.025,-24 142.025,-12 154.025,-6.39488e-14 184.025,-6.39488e-14 196.025,-12 196.025,-24 184.025,-36"/>
<path fill="#a2abff" stroke="#a2abff" stroke-width="2" d="M154.025,-36C148.025,-36 142.025,-30 142.025,-24"/>
<path fill="#a2abff" stroke="#a2abff" stroke-width="2" d="M142.025,-12C142.025,-6 148.025,-6.39488e-14 154.025,-6.39488e-14"/>
<path fill="#a2abff" stroke="#a2abff" stroke-width="2" d="M184.025,-6.39488e-14C190.025,-6.39488e-14 196.025,-6 196.025,-12"/>
<path fill="#a2abff" stroke="#a2abff" stroke-width="2" d="M196.025,-24C196.025,-30 190.025,-36 184.025,-36"/>
<polyline fill="none" stroke="white" stroke-width="2" points="184.025,-36 154.025,-36 "/>
<path fill="none" stroke="white" stroke-width="2" d="M154.025,-36C148.025,-36 142.025,-30 142.025,-24"/>
<polyline fill="none" stroke="white" stroke-width="2" points="142.025,-24 142.025,-12 "/>
<path fill="none" stroke="white" stroke-width="2" d="M142.025,-12C142.025,-6 148.025,-6.39488e-14 154.025,-6.39488e-14"/>
<polyline fill="none" stroke="white" stroke-width="2" points="154.025,-6.39488e-14 184.025,-6.39488e-14 "/>
<path fill="none" stroke="white" stroke-width="2" d="M184.025,-6.39488e-14C190.025,-6.39488e-14 196.025,-6 196.025,-12"/>
<polyline fill="none" stroke="white" stroke-width="2" points="196.025,-12 196.025,-24 "/>
<path fill="none" stroke="white" stroke-width="2" d="M196.025,-24C196.025,-30 190.025,-36 184.025,-36"/>
<text text-anchor="middle" x="169.025" y="-15.5" font-family="Helvetica,sans-Serif" font-size="10.00">PAX5</text>
</a>
</g>
<!-- PLAGL1&#45;&gt;PAX5 -->
<g id="edge16" class="edge"><title>PLAGL1&#45;&gt;PAX5</title>
<a xlink:title="PAX5: 0.088||remove16root">
<path fill="none" stroke="#ebc1ff" stroke-width="3" d="M121.213,-45.6038C125.609,-43.0661 130.212,-40.4084 134.753,-37.7865"/>
<polygon fill="#ebc1ff" stroke="#ebc1ff" points="136.271,-40.1433 141.8,-33.7184 133.471,-35.2936 136.271,-40.1433"/>
</a>
</g>
<!-- EGR3_EGR2&#45;&gt;ESRRA_ESR2 -->
<g id="edge24" class="edge"><title>EGR3_EGR2&#45;&gt;ESRRA_ESR2</title>
<a xlink:title="ESRRA: 0.192||remove29root">
<path fill="none" stroke="#ffb5b5" stroke-width="3" d="M250.433,-189.462C272.519,-195.38 300.542,-202.889 324.262,-209.245"/>
<polygon fill="#ffb5b5" stroke="#ffb5b5" points="323.674,-211.986 332.126,-211.352 325.123,-206.577 323.674,-211.986"/>
</a>
</g>
<!-- EGR3_EGR2&#45;&gt;PBX2 -->
<g id="edge26" class="edge"><title>EGR3_EGR2&#45;&gt;PBX2</title>
<a xlink:title="PBX2: 0.127||remove20root">
<path fill="none" stroke="#ffbdbd" stroke-width="3" d="M230.407,-197.407C250.826,-217.826 284.037,-251.037 306.494,-273.494"/>
<polygon fill="#ffbdbd" stroke="#ffbdbd" points="304.603,-275.563 312.24,-279.24 308.563,-271.603 304.603,-275.563"/>
</a>
</g>
<!-- EGR3_EGR2&#45;&gt;NKX2&#45;5 -->
<g id="edge32" class="edge"><title>EGR3_EGR2&#45;&gt;NKX2&#45;5</title>
<a xlink:title="NKX2&#45;5: 0.118||remove18root">
<path fill="none" stroke="#ffbebe" stroke-width="3" d="M217.096,-197.406C224.745,-225.951 239.604,-281.407 248.406,-314.254"/>
<polygon fill="#ffbebe" stroke="#ffbebe" points="245.729,-315.084 250.505,-322.087 251.138,-313.635 245.729,-315.084"/>
</a>
</g>
<!-- EGR3_EGR2&#45;&gt;TCF3_MYOG -->
<g id="edge34" class="edge"><title>EGR3_EGR2&#45;&gt;TCF3_MYOG</title>
<a xlink:title="TCF3: 0.147||EGR2: 0.068||remove22root">
<path fill="none" stroke="#ffbaba" stroke-width="3" d="M206.227,-205.471C198.206,-235.408 185.099,-284.322 177.041,-314.395"/>
<path fill="none" stroke="#c4c9ff" stroke-width="3" d="M204.295,-204.954C196.274,-234.89 183.167,-283.804 175.109,-313.877"/>
<polygon fill="#c4c9ff" stroke="#c4c9ff" points="207.987,-205.858 207.353,-197.406 202.578,-204.408 207.987,-205.858"/>
<polygon fill="#ffbaba" stroke="#ffbaba" points="173.311,-313.635 173.945,-322.087 178.72,-315.084 173.311,-313.635"/>
</a>
</g>
<!-- ZNF652 -->
<g id="node23" class="node"><title>ZNF652</title>
<a xlink:href="ZNF652.svg" xlink:title="Z&#45;value: 0.892||remove30">
<polygon fill="#a8b0ff" stroke="#a8b0ff" stroke-width="2" points="109.2,-315.249 79.2,-315.249 67.2,-303.249 67.2,-291.249 79.2,-279.249 109.2,-279.249 121.2,-291.249 121.2,-303.249 109.2,-315.249"/>
<path fill="#a8b0ff" stroke="#a8b0ff" stroke-width="2" d="M79.2,-315.249C73.2,-315.249 67.2,-309.249 67.2,-303.249"/>
<path fill="#a8b0ff" stroke="#a8b0ff" stroke-width="2" d="M67.2,-291.249C67.2,-285.249 73.2,-279.249 79.2,-279.249"/>
<path fill="#a8b0ff" stroke="#a8b0ff" stroke-width="2" d="M109.2,-279.249C115.2,-279.249 121.2,-285.249 121.2,-291.249"/>
<path fill="#a8b0ff" stroke="#a8b0ff" stroke-width="2" d="M121.2,-303.249C121.2,-309.249 115.2,-315.249 109.2,-315.249"/>
<polyline fill="none" stroke="white" stroke-width="2" points="109.2,-315.249 79.2,-315.249 "/>
<path fill="none" stroke="white" stroke-width="2" d="M79.2,-315.249C73.2,-315.249 67.2,-309.249 67.2,-303.249"/>
<polyline fill="none" stroke="white" stroke-width="2" points="67.2,-303.249 67.2,-291.249 "/>
<path fill="none" stroke="white" stroke-width="2" d="M67.2,-291.249C67.2,-285.249 73.2,-279.249 79.2,-279.249"/>
<polyline fill="none" stroke="white" stroke-width="2" points="79.2,-279.249 109.2,-279.249 "/>
<path fill="none" stroke="white" stroke-width="2" d="M109.2,-279.249C115.2,-279.249 121.2,-285.249 121.2,-291.249"/>
<polyline fill="none" stroke="white" stroke-width="2" points="121.2,-291.249 121.2,-303.249 "/>
<path fill="none" stroke="white" stroke-width="2" d="M121.2,-303.249C121.2,-309.249 115.2,-315.249 109.2,-315.249"/>
<text text-anchor="middle" x="94.2" y="-294.749" font-family="Helvetica,sans-Serif" font-size="10.00">ZNF652</text>
</a>
</g>
<!-- EGR3_EGR2&#45;&gt;ZNF652 -->
<g id="edge28" class="edge"><title>EGR3_EGR2&#45;&gt;ZNF652</title>
<a xlink:title="ZNF652: 0.244||remove30root">
<path fill="none" stroke="#ffafaf" stroke-width="3" d="M194.042,-197.407C173.623,-217.826 140.412,-251.037 117.955,-273.494"/>
<polygon fill="#ffafaf" stroke="#ffafaf" points="115.887,-271.603 112.21,-279.24 119.846,-275.563 115.887,-271.603"/>
</a>
</g>
<!-- FOSL2_SMARCC1 -->
<g id="node25" class="node"><title>FOSL2_SMARCC1</title>
<a xlink:href="FOSL2_SMARCC1.svg" xlink:title="Z&#45;value: 0.739||remove24">
<polygon fill="#aeb6ff" stroke="#aeb6ff" stroke-width="2" points="89.5,-240.425 12.5,-240.425 0.5,-228.425 0.5,-216.425 12.5,-204.425 89.5,-204.425 101.5,-216.425 101.5,-228.425 89.5,-240.425"/>
<path fill="#aeb6ff" stroke="#aeb6ff" stroke-width="2" d="M12.5,-240.425C6.5,-240.425 0.5,-234.425 0.5,-228.425"/>
<path fill="#aeb6ff" stroke="#aeb6ff" stroke-width="2" d="M0.5,-216.425C0.5,-210.425 6.5,-204.425 12.5,-204.425"/>
<path fill="#aeb6ff" stroke="#aeb6ff" stroke-width="2" d="M89.5,-204.425C95.5,-204.425 101.5,-210.425 101.5,-216.425"/>
<path fill="#aeb6ff" stroke="#aeb6ff" stroke-width="2" d="M101.5,-228.425C101.5,-234.425 95.5,-240.425 89.5,-240.425"/>
<polyline fill="none" stroke="white" stroke-width="2" points="89.5,-240.425 12.5,-240.425 "/>
<path fill="none" stroke="white" stroke-width="2" d="M12.5,-240.425C6.5,-240.425 0.5,-234.425 0.5,-228.425"/>
<polyline fill="none" stroke="white" stroke-width="2" points="0.5,-228.425 0.5,-216.425 "/>
<path fill="none" stroke="white" stroke-width="2" d="M0.5,-216.425C0.5,-210.425 6.5,-204.425 12.5,-204.425"/>
<polyline fill="none" stroke="white" stroke-width="2" points="12.5,-204.425 89.5,-204.425 "/>
<path fill="none" stroke="white" stroke-width="2" d="M89.5,-204.425C95.5,-204.425 101.5,-210.425 101.5,-216.425"/>
<polyline fill="none" stroke="white" stroke-width="2" points="101.5,-216.425 101.5,-228.425 "/>
<path fill="none" stroke="white" stroke-width="2" d="M101.5,-228.425C101.5,-234.425 95.5,-240.425 89.5,-240.425"/>
<text text-anchor="middle" x="51" y="-219.925" font-family="Helvetica,sans-Serif" font-size="10.00">FOSL2_SMARCC1</text>
</a>
</g>
<!-- EGR3_EGR2&#45;&gt;FOSL2_SMARCC1 -->
<g id="edge30" class="edge"><title>EGR3_EGR2&#45;&gt;FOSL2_SMARCC1</title>
<a xlink:title="SMARCC1: 0.162||remove24root">
<path fill="none" stroke="#ffb9b9" stroke-width="3" d="M174.017,-189.462C154.859,-194.596 131.235,-200.926 109.827,-206.662"/>
<polygon fill="#ffb9b9" stroke="#ffb9b9" points="109.055,-203.97 102.052,-208.745 110.504,-209.379 109.055,-203.97"/>
</a>
</g>
<!-- PAX5&#45;&gt;ESRRA_ESR2 -->
<g id="edge50" class="edge"><title>PAX5&#45;&gt;ESRRA_ESR2</title>
<a xlink:title="ESR2: 0.003||remove1root">
<path fill="none" stroke="#eecbff" stroke-width="3" d="M187.166,-36.1413C224.141,-73.116 308.209,-157.184 349.567,-198.542"/>
<polygon fill="#eecbff" stroke="#eecbff" points="347.712,-200.647 355.349,-204.324 351.672,-196.687 347.712,-200.647"/>
</a>
</g>
<!-- PAX5&#45;&gt;EGR3_EGR2 -->
<g id="edge54" class="edge"><title>PAX5&#45;&gt;EGR3_EGR2</title>
<a xlink:title="EGR2: 0.129||EGR3: 0.018||remove21root">
<path fill="none" stroke="#bdc3ff" stroke-width="3" d="M173.896,-36.1811C181.545,-64.7264 196.404,-120.183 205.206,-153.029"/>
<polygon fill="#bdc3ff" stroke="#bdc3ff" points="202.529,-153.86 207.305,-160.863 207.938,-152.41 202.529,-153.86"/>
</a>
</g>
<!-- PAX5&#45;&gt;NKX2&#45;5 -->
<g id="edge56" class="edge"><title>PAX5&#45;&gt;NKX2&#45;5</title>
<a xlink:title="NKX2&#45;5: 0.075||remove15root">
<path fill="none" stroke="#ebc3ff" stroke-width="3" d="M165.676,-36.0283C160.214,-69.2491 151.562,-142.04 168.145,-200.105 180.929,-244.869 212.567,-289.266 234.026,-315.78"/>
<polygon fill="#ebc3ff" stroke="#ebc3ff" points="232,-317.725 239.244,-322.125 236.325,-314.167 232,-317.725"/>
</a>
</g>
<!-- PAX5&#45;&gt;TCF3_MYOG -->
<g id="edge60" class="edge"><title>PAX5&#45;&gt;TCF3_MYOG</title>
<a xlink:title="MYOG: 0.029||TCF3: 0.001||remove9root">
<path fill="none" stroke="#edc8ff" stroke-width="3" d="M168.874,-36.1671C168.661,-62.9195 168.282,-114.486 168.145,-158.345 167.971,-213.721 168.447,-278.57 168.765,-314.005"/>
<polygon fill="#edc8ff" stroke="#edc8ff" points="165.968,-314.382 168.842,-322.356 171.568,-314.331 165.968,-314.382"/>
</a>
</g>
<!-- PAX5&#45;&gt;FOSL2_SMARCC1 -->
<g id="edge52" class="edge"><title>PAX5&#45;&gt;FOSL2_SMARCC1</title>
<a xlink:title="SMARCC1: 0.042||remove12root">
<path fill="none" stroke="#edc7ff" stroke-width="3" d="M158.551,-36.1413C137.422,-72.7371 89.6583,-155.466 65.53,-197.258"/>
<polygon fill="#edc7ff" stroke="#edc7ff" points="63.0256,-195.996 61.4504,-204.324 67.8753,-198.796 63.0256,-195.996"/>
</a>
</g>
<!-- PATZ1_KLF4 -->
<g id="node29" class="node"><title>PATZ1_KLF4</title>
<a xlink:href="PATZ1_KLF4.svg" xlink:title="Z&#45;value: 1.751||remove25">
<polygon fill="#8591ff" stroke="#8591ff" stroke-width="2" points="356.249,-79.2 304.249,-79.2 292.249,-67.2 292.249,-55.2 304.249,-43.2 356.249,-43.2 368.249,-55.2 368.249,-67.2 356.249,-79.2"/>
<path fill="#8591ff" stroke="#8591ff" stroke-width="2" d="M304.249,-79.2C298.249,-79.2 292.249,-73.2 292.249,-67.2"/>
<path fill="#8591ff" stroke="#8591ff" stroke-width="2" d="M292.249,-55.2C292.249,-49.2 298.249,-43.2 304.249,-43.2"/>
<path fill="#8591ff" stroke="#8591ff" stroke-width="2" d="M356.249,-43.2C362.249,-43.2 368.249,-49.2 368.249,-55.2"/>
<path fill="#8591ff" stroke="#8591ff" stroke-width="2" d="M368.249,-67.2C368.249,-73.2 362.249,-79.2 356.249,-79.2"/>
<polyline fill="none" stroke="white" stroke-width="2" points="356.249,-79.2 304.249,-79.2 "/>
<path fill="none" stroke="white" stroke-width="2" d="M304.249,-79.2C298.249,-79.2 292.249,-73.2 292.249,-67.2"/>
<polyline fill="none" stroke="white" stroke-width="2" points="292.249,-67.2 292.249,-55.2 "/>
<path fill="none" stroke="white" stroke-width="2" d="M292.249,-55.2C292.249,-49.2 298.249,-43.2 304.249,-43.2"/>
<polyline fill="none" stroke="white" stroke-width="2" points="304.249,-43.2 356.249,-43.2 "/>
<path fill="none" stroke="white" stroke-width="2" d="M356.249,-43.2C362.249,-43.2 368.249,-49.2 368.249,-55.2"/>
<polyline fill="none" stroke="white" stroke-width="2" points="368.249,-55.2 368.249,-67.2 "/>
<path fill="none" stroke="white" stroke-width="2" d="M368.249,-67.2C368.249,-73.2 362.249,-79.2 356.249,-79.2"/>
<text text-anchor="middle" x="330.249" y="-58.7" font-family="Helvetica,sans-Serif" font-size="10.00">PATZ1_KLF4</text>
</a>
</g>
<!-- PAX5&#45;&gt;PATZ1_KLF4 -->
<g id="edge58" class="edge"><title>PAX5&#45;&gt;PATZ1_KLF4</title>
<a xlink:title="PATZ1: 0.040||remove11root">
<path fill="none" stroke="#edc7ff" stroke-width="3" d="M196.196,-29.2571C205.002,-32.6464 214.879,-36.1791 224.105,-38.88 243.555,-44.5743 265.412,-49.4257 284.213,-53.1364"/>
<polygon fill="#edc7ff" stroke="#edc7ff" points="283.682,-55.8855 292.068,-54.656 284.746,-50.3874 283.682,-55.8855"/>
</a>
</g>
<!-- GATA3 -->
<g id="node18" class="node"><title>GATA3</title>
<a xlink:href="GATA3.svg" xlink:title="Z&#45;value: 2.023||remove26">
<polygon fill="#7a88ff" stroke="#7a88ff" stroke-width="2" points="270.425,-36 240.425,-36 228.425,-24 228.425,-12 240.425,-0 270.425,-0 282.425,-12 282.425,-24 270.425,-36"/>
<path fill="#7a88ff" stroke="#7a88ff" stroke-width="2" d="M240.425,-36C234.425,-36 228.425,-30 228.425,-24"/>
<path fill="#7a88ff" stroke="#7a88ff" stroke-width="2" d="M228.425,-12C228.425,-6 234.425,-0 240.425,-0"/>
<path fill="#7a88ff" stroke="#7a88ff" stroke-width="2" d="M270.425,-0C276.425,-0 282.425,-6 282.425,-12"/>
<path fill="#7a88ff" stroke="#7a88ff" stroke-width="2" d="M282.425,-24C282.425,-30 276.425,-36 270.425,-36"/>
<polyline fill="none" stroke="white" stroke-width="2" points="270.425,-36 240.425,-36 "/>
<path fill="none" stroke="white" stroke-width="2" d="M240.425,-36C234.425,-36 228.425,-30 228.425,-24"/>
<polyline fill="none" stroke="white" stroke-width="2" points="228.425,-24 228.425,-12 "/>
<path fill="none" stroke="white" stroke-width="2" d="M228.425,-12C228.425,-6 234.425,-0 240.425,-0"/>
<polyline fill="none" stroke="white" stroke-width="2" points="240.425,-0 270.425,-0 "/>
<path fill="none" stroke="white" stroke-width="2" d="M270.425,-0C276.425,-0 282.425,-6 282.425,-12"/>
<polyline fill="none" stroke="white" stroke-width="2" points="282.425,-12 282.425,-24 "/>
<path fill="none" stroke="white" stroke-width="2" d="M282.425,-24C282.425,-30 276.425,-36 270.425,-36"/>
<text text-anchor="middle" x="255.425" y="-15.5" font-family="Helvetica,sans-Serif" font-size="10.00">GATA3</text>
</a>
</g>
<!-- GATA3&#45;&gt;EGR3_EGR2 -->
<g id="edge20" class="edge"><title>GATA3&#45;&gt;EGR3_EGR2</title>
<a xlink:title="EGR3: 0.171||remove26root">
<path fill="none" stroke="#b8bfff" stroke-width="3" d="M250.553,-36.1811C242.904,-64.7264 228.045,-120.183 219.244,-153.029"/>
<polygon fill="#b8bfff" stroke="#b8bfff" points="216.511,-152.41 217.145,-160.863 221.92,-153.86 216.511,-152.41"/>
</a>
</g>
<!-- GATA3&#45;&gt;NKX2&#45;5 -->
<g id="edge22" class="edge"><title>GATA3&#45;&gt;NKX2&#45;5</title>
<a xlink:title="NKX2&#45;5: 0.202||remove18">
<path fill="none" stroke="#e7b4ff" stroke-width="3" d="M255.607,-36.0929C255.917,-68.8203 256.493,-140.035 256.305,-200.105 256.18,-239.851 255.857,-285.929 255.639,-314.13"/>
<polygon fill="#e7b4ff" stroke="#e7b4ff" points="252.838,-314.26 255.575,-322.282 258.438,-314.304 252.838,-314.26"/>
</a>
</g>
<!-- PATZ1_KLF4&#45;&gt;ESRRA_ESR2 -->
<g id="edge36" class="edge"><title>PATZ1_KLF4&#45;&gt;ESRRA_ESR2</title>
<a xlink:title="ESRRA: 1.315||ESR2: 0.103||remove25">
<path fill="none" stroke="#bd32ff" stroke-width="3" d="M330.412,-79.2043C331.012,-98.7194 333.237,-130.598 340.969,-156.905 345.061,-170.825 351.972,-185.374 358.37,-197.216"/>
<polygon fill="#bd32ff" stroke="#bd32ff" points="355.924,-198.578 362.258,-204.21 360.818,-195.857 355.924,-198.578"/>
</a>
</g>
<!-- PATZ1_KLF4&#45;&gt;E4F1 -->
<g id="edge38" class="edge"><title>PATZ1_KLF4&#45;&gt;E4F1</title>
<a xlink:title="E4F1: 0.405||remove19">
<path fill="none" stroke="#df9cff" stroke-width="3" d="M292.006,-71.4472C237.701,-85.9981 139.004,-112.444 86.3367,-126.556"/>
<polygon fill="#df9cff" stroke="#df9cff" points="85.2957,-123.936 78.293,-128.711 86.7451,-129.345 85.2957,-123.936"/>
</a>
</g>
<!-- PATZ1_KLF4&#45;&gt;EGR3_EGR2 -->
<g id="edge42" class="edge"><title>PATZ1_KLF4&#45;&gt;EGR3_EGR2</title>
<a xlink:title="EGR3: 0.167||remove25root">
<path fill="none" stroke="#b8bfff" stroke-width="3" d="M312.067,-79.3827C291.648,-99.8017 258.437,-133.013 235.98,-155.469"/>
<polygon fill="#b8bfff" stroke="#b8bfff" points="233.911,-153.578 230.234,-161.215 237.871,-157.538 233.911,-153.578"/>
</a>
</g>
<!-- PATZ1_KLF4&#45;&gt;TCF3_MYOG -->
<g id="edge48" class="edge"><title>PATZ1_KLF4&#45;&gt;TCF3_MYOG</title>
<a xlink:title="MYOG: 0.234||TCF3: 0.133||remove22">
<path fill="none" stroke="#e5b0ff" stroke-width="3" d="M321.059,-79.3926C307.44,-106.134 280.857,-157.497 256.305,-200.105 232.765,-240.955 203.485,-287.184 185.533,-315.058"/>
<polygon fill="#e5b0ff" stroke="#e5b0ff" points="182.99,-313.835 181.003,-322.074 187.695,-316.872 182.99,-313.835"/>
</a>
</g>
<!-- PATZ1_KLF4&#45;&gt;GATA3 -->
<g id="edge44" class="edge"><title>PATZ1_KLF4&#45;&gt;GATA3</title>
<a xlink:title="GATA3: 0.094||remove17root">
<path fill="none" stroke="#ebc1ff" stroke-width="3" d="M298.95,-43.1296C295.887,-41.3609 292.767,-39.5597 289.676,-37.7752"/>
<polygon fill="#ebc1ff" stroke="#ebc1ff" points="290.885,-35.2401 282.557,-33.6649 288.085,-40.0898 290.885,-35.2401"/>
</a>
</g>
<!-- PATZ1_KLF4&#45;&gt;FOSL2_SMARCC1 -->
<g id="edge40" class="edge"><title>PATZ1_KLF4&#45;&gt;FOSL2_SMARCC1</title>
<a xlink:title="FOSL2: 0.012||remove5root">
<path fill="none" stroke="#eecaff" stroke-width="3" d="M299.029,-79.2252C247.679,-108.872 145.532,-167.846 89.6809,-200.092"/>
<polygon fill="#eecaff" stroke="#eecaff" points="87.975,-197.844 82.4468,-204.269 90.775,-202.694 87.975,-197.844"/>
</a>
</g>
<!-- PATZ1_KLF4&#45;&gt;PATZ1_KLF4 -->
<g id="edge46" class="edge"><title>PATZ1_KLF4&#45;&gt;PATZ1_KLF4</title>
<a xlink:title="PATZ1: 0.441||KLF4: 0.051||remove25">
<path fill="none" stroke="#de98ff" stroke-width="3" d="M368.463,-67.8907C378.584,-67.5084 386.249,-65.2781 386.249,-61.2 386.249,-58.3326 382.46,-56.3787 376.691,-55.3384"/>
<polygon fill="#de98ff" stroke="#de98ff" points="376.704,-52.5256 368.463,-54.5093 376.142,-58.0974 376.704,-52.5256"/>
</a>
</g>
<!-- WRNIP1 -->
<g id="node43" class="node"><title>WRNIP1</title>
<a xlink:href="WRNIP1.svg" xlink:title="Z&#45;value: 1.103||remove28">
<polygon fill="#9fa9ff" stroke="#9fa9ff" stroke-width="2" points="388.949,-154.025 357.949,-154.025 345.949,-142.025 345.949,-130.025 357.949,-118.025 388.949,-118.025 400.949,-130.025 400.949,-142.025 388.949,-154.025"/>
<path fill="#9fa9ff" stroke="#9fa9ff" stroke-width="2" d="M357.949,-154.025C351.949,-154.025 345.949,-148.025 345.949,-142.025"/>
<path fill="#9fa9ff" stroke="#9fa9ff" stroke-width="2" d="M345.949,-130.025C345.949,-124.025 351.949,-118.025 357.949,-118.025"/>
<path fill="#9fa9ff" stroke="#9fa9ff" stroke-width="2" d="M388.949,-118.025C394.949,-118.025 400.949,-124.025 400.949,-130.025"/>
<path fill="#9fa9ff" stroke="#9fa9ff" stroke-width="2" d="M400.949,-142.025C400.949,-148.025 394.949,-154.025 388.949,-154.025"/>
<polyline fill="none" stroke="white" stroke-width="2" points="388.949,-154.025 357.949,-154.025 "/>
<path fill="none" stroke="white" stroke-width="2" d="M357.949,-154.025C351.949,-154.025 345.949,-148.025 345.949,-142.025"/>
<polyline fill="none" stroke="white" stroke-width="2" points="345.949,-142.025 345.949,-130.025 "/>
<path fill="none" stroke="white" stroke-width="2" d="M345.949,-130.025C345.949,-124.025 351.949,-118.025 357.949,-118.025"/>
<polyline fill="none" stroke="white" stroke-width="2" points="357.949,-118.025 388.949,-118.025 "/>
<path fill="none" stroke="white" stroke-width="2" d="M388.949,-118.025C394.949,-118.025 400.949,-124.025 400.949,-130.025"/>
<polyline fill="none" stroke="white" stroke-width="2" points="400.949,-130.025 400.949,-142.025 "/>
<path fill="none" stroke="white" stroke-width="2" d="M400.949,-142.025C400.949,-148.025 394.949,-154.025 388.949,-154.025"/>
<text text-anchor="middle" x="373.449" y="-133.525" font-family="Helvetica,sans-Serif" font-size="10.00">WRNIP1</text>
</a>
</g>
<!-- WRNIP1&#45;&gt;ESRRA_ESR2 -->
<g id="edge62" class="edge"><title>WRNIP1&#45;&gt;ESRRA_ESR2</title>
<a xlink:title="ESRRA: 0.023||remove8root">
<path fill="none" stroke="#edc9ff" stroke-width="3" d="M373.449,-154.348C373.449,-166.572 373.449,-182.828 373.449,-196.389"/>
<polygon fill="#edc9ff" stroke="#edc9ff" points="370.649,-196.424 373.449,-204.424 376.249,-196.424 370.649,-196.424"/>
</a>
</g>
<!-- WRNIP1&#45;&gt;E4F1 -->
<g id="edge66" class="edge"><title>WRNIP1&#45;&gt;E4F1</title>
<a xlink:title="E4F1: 0.007||remove2root">
<path fill="none" stroke="#eecbff" stroke-width="3" d="M345.678,-136.025C287.199,-136.025 151.434,-136.025 86.6455,-136.025"/>
<polygon fill="#eecbff" stroke="#eecbff" points="86.3615,-133.225 78.3614,-136.025 86.3614,-138.825 86.3615,-133.225"/>
</a>
</g>
<!-- WRNIP1&#45;&gt;PLAGL1 -->
<g id="edge70" class="edge"><title>WRNIP1&#45;&gt;PLAGL1</title>
<a xlink:title="PLAGL1: 0.019||remove6root">
<path fill="none" stroke="#edc9ff" stroke-width="3" d="M345.909,-128.645C294.893,-114.975 185.768,-85.7357 129.447,-70.6444"/>
<polygon fill="#edc9ff" stroke="#edc9ff" points="129.986,-67.89 121.533,-68.524 128.536,-73.2992 129.986,-67.89"/>
</a>
</g>
<!-- WRNIP1&#45;&gt;EGR3_EGR2 -->
<g id="edge68" class="edge"><title>WRNIP1&#45;&gt;EGR3_EGR2</title>
<a xlink:title="EGR3: 0.189||remove28root">
<path fill="none" stroke="#b6bdff" stroke-width="3" d="M345.734,-143.451C321.704,-149.89 286.446,-159.337 258.196,-166.907"/>
<polygon fill="#b6bdff" stroke="#b6bdff" points="257.432,-164.212 250.429,-168.988 258.882,-169.622 257.432,-164.212"/>
</a>
</g>
<!-- WRNIP1&#45;&gt;NKX2&#45;5 -->
<g id="edge72" class="edge"><title>WRNIP1&#45;&gt;NKX2&#45;5</title>
<a xlink:title="NKX2&#45;5: 0.010||remove4root">
<path fill="none" stroke="#eecaff" stroke-width="3" d="M358.9,-154.09C348.874,-166.938 335.563,-184.817 325.309,-201.545 301.968,-239.623 279.608,-286.499 266.71,-314.898"/>
<polygon fill="#eecaff" stroke="#eecaff" points="264.065,-313.951 263.33,-322.395 269.17,-316.253 264.065,-313.951"/>
</a>
</g>
<!-- WRNIP1&#45;&gt;TCF3_MYOG -->
<g id="edge78" class="edge"><title>WRNIP1&#45;&gt;TCF3_MYOG</title>
<a xlink:title="MYOG: 0.213||TCF3: 0.140||remove22">
<path fill="none" stroke="#e6b3ff" stroke-width="3" d="M355.308,-154.166C318.333,-191.141 234.265,-275.209 192.907,-316.567"/>
<polygon fill="#e6b3ff" stroke="#e6b3ff" points="190.802,-314.712 187.125,-322.349 194.762,-318.672 190.802,-314.712"/>
</a>
</g>
<!-- WRNIP1&#45;&gt;PAX5 -->
<g id="edge80" class="edge"><title>WRNIP1&#45;&gt;PAX5</title>
<a xlink:title="PAX5: 0.008||remove3root">
<path fill="none" stroke="#eecbff" stroke-width="3" d="M345.88,-120.107C308.945,-98.7829 243.418,-60.9509 203.333,-37.8082"/>
<polygon fill="#eecbff" stroke="#eecbff" points="204.486,-35.2403 196.157,-33.6651 201.686,-40.0901 204.486,-35.2403"/>
</a>
</g>
<!-- WRNIP1&#45;&gt;GATA3 -->
<g id="edge74" class="edge"><title>WRNIP1&#45;&gt;GATA3</title>
<a xlink:title="GATA3: 0.022||remove7root">
<path fill="none" stroke="#edc9ff" stroke-width="3" d="M345.794,-124.059C327.032,-114.815 302.723,-100.493 286.169,-82.08 276.263,-71.0615 268.886,-56.2811 263.845,-43.6922"/>
<polygon fill="#edc9ff" stroke="#edc9ff" points="266.456,-42.6814 261.006,-36.1902 261.219,-44.6634 266.456,-42.6814"/>
</a>
</g>
<!-- WRNIP1&#45;&gt;PATZ1_KLF4 -->
<g id="edge76" class="edge"><title>WRNIP1&#45;&gt;PATZ1_KLF4</title>
<a xlink:title="PATZ1: 0.056||remove13root">
<path fill="none" stroke="#ecc5ff" stroke-width="3" d="M362.992,-117.912C357.566,-108.515 350.85,-96.8808 344.914,-86.6005"/>
<polygon fill="#ecc5ff" stroke="#ecc5ff" points="347.185,-84.9337 340.76,-79.4055 342.335,-87.7337 347.185,-84.9337"/>
</a>
</g>
<!-- WRNIP1&#45;&gt;WRNIP1 -->
<g id="edge64" class="edge"><title>WRNIP1&#45;&gt;WRNIP1</title>
<a xlink:title="WRNIP1: 0.003||remove0root">
<path fill="none" stroke="#eecbff" stroke-width="3" d="M401.133,-142.773C410.713,-142.844 418.449,-140.595 418.449,-136.025 418.449,-132.883 414.793,-130.837 409.394,-129.889"/>
<polygon fill="#eecbff" stroke="#eecbff" points="409.319,-127.076 401.133,-129.276 408.904,-132.661 409.319,-127.076"/>
</a>
</g>
</g>
</svg>
