<?xml version="1.0" encoding="UTF-8" standalone="no"?>
<!DOCTYPE svg PUBLIC "-//W3C//DTD SVG 1.1//EN"
 "http://www.w3.org/Graphics/SVG/1.1/DTD/svg11.dtd">
<!-- Generated by graphviz version 2.28.0 (20110630.0925)
 -->
<!-- Title: _anonymous_0 Pages: 1 -->
<svg width="521pt" height="485pt"
 viewBox="0.00 0.00 521.13 485.13" xmlns="http://www.w3.org/2000/svg" xmlns:xlink="http://www.w3.org/1999/xlink">
<g id="graph1" class="graph" transform="scale(1 1) rotate(0) translate(4 481.128)">
<title>_anonymous_0</title>
<polygon fill="white" stroke="white" points="-4,5 -4,-481.128 518.128,-481.128 518.128,5 -4,5"/>
<!-- ESR1 -->
<g id="node1" class="node"><title>ESR1</title>
<a xlink:href="ESR1.svg" xlink:title="Z&#45;value: 6.597||remove26">
<polygon fill="#3247ff" stroke="#3247ff" stroke-width="2" points="501.128,-315.664 471.128,-315.664 459.128,-303.664 459.128,-291.664 471.128,-279.664 501.128,-279.664 513.128,-291.664 513.128,-303.664 501.128,-315.664"/>
<path fill="#3247ff" stroke="#3247ff" stroke-width="2" d="M471.128,-315.664C465.128,-315.664 459.128,-309.664 459.128,-303.664"/>
<path fill="#3247ff" stroke="#3247ff" stroke-width="2" d="M459.128,-291.664C459.128,-285.664 465.128,-279.664 471.128,-279.664"/>
<path fill="#3247ff" stroke="#3247ff" stroke-width="2" d="M501.128,-279.664C507.128,-279.664 513.128,-285.664 513.128,-291.664"/>
<path fill="#3247ff" stroke="#3247ff" stroke-width="2" d="M513.128,-303.664C513.128,-309.664 507.128,-315.664 501.128,-315.664"/>
<polyline fill="none" stroke="white" stroke-width="2" points="501.128,-315.664 471.128,-315.664 "/>
<path fill="none" stroke="white" stroke-width="2" d="M471.128,-315.664C465.128,-315.664 459.128,-309.664 459.128,-303.664"/>
<polyline fill="none" stroke="white" stroke-width="2" points="459.128,-303.664 459.128,-291.664 "/>
<path fill="none" stroke="white" stroke-width="2" d="M459.128,-291.664C459.128,-285.664 465.128,-279.664 471.128,-279.664"/>
<polyline fill="none" stroke="white" stroke-width="2" points="471.128,-279.664 501.128,-279.664 "/>
<path fill="none" stroke="white" stroke-width="2" d="M501.128,-279.664C507.128,-279.664 513.128,-285.664 513.128,-291.664"/>
<polyline fill="none" stroke="white" stroke-width="2" points="513.128,-291.664 513.128,-303.664 "/>
<path fill="none" stroke="white" stroke-width="2" d="M513.128,-303.664C513.128,-309.664 507.128,-315.664 501.128,-315.664"/>
<text text-anchor="middle" x="486.128" y="-295.164" font-family="Helvetica,sans-Serif" font-size="10.00" fill="white">ESR1</text>
</a>
</g>
<!-- HLF_TEF -->
<g id="node2" class="node"><title>HLF_TEF</title>
<a xlink:href="HLF_TEF.svg" xlink:title="Z&#45;value: 0.505||remove19">
<polygon fill="#c0c6ff" stroke="#c0c6ff" stroke-width="2" points="444.278,-418.028 409.778,-418.028 397.778,-406.028 397.778,-394.028 409.778,-382.028 444.278,-382.028 456.278,-394.028 456.278,-406.028 444.278,-418.028"/>
<path fill="#c0c6ff" stroke="#c0c6ff" stroke-width="2" d="M409.778,-418.028C403.778,-418.028 397.778,-412.028 397.778,-406.028"/>
<path fill="#c0c6ff" stroke="#c0c6ff" stroke-width="2" d="M397.778,-394.028C397.778,-388.028 403.778,-382.028 409.778,-382.028"/>
<path fill="#c0c6ff" stroke="#c0c6ff" stroke-width="2" d="M444.278,-382.028C450.278,-382.028 456.278,-388.028 456.278,-394.028"/>
<path fill="#c0c6ff" stroke="#c0c6ff" stroke-width="2" d="M456.278,-406.028C456.278,-412.028 450.278,-418.028 444.278,-418.028"/>
<polyline fill="none" stroke="white" stroke-width="2" points="444.278,-418.028 409.778,-418.028 "/>
<path fill="none" stroke="white" stroke-width="2" d="M409.778,-418.028C403.778,-418.028 397.778,-412.028 397.778,-406.028"/>
<polyline fill="none" stroke="white" stroke-width="2" points="397.778,-406.028 397.778,-394.028 "/>
<path fill="none" stroke="white" stroke-width="2" d="M397.778,-394.028C397.778,-388.028 403.778,-382.028 409.778,-382.028"/>
<polyline fill="none" stroke="white" stroke-width="2" points="409.778,-382.028 444.278,-382.028 "/>
<path fill="none" stroke="white" stroke-width="2" d="M444.278,-382.028C450.278,-382.028 456.278,-388.028 456.278,-394.028"/>
<polyline fill="none" stroke="white" stroke-width="2" points="456.278,-394.028 456.278,-406.028 "/>
<path fill="none" stroke="white" stroke-width="2" d="M456.278,-406.028C456.278,-412.028 450.278,-418.028 444.278,-418.028"/>
<text text-anchor="middle" x="427.028" y="-397.528" font-family="Helvetica,sans-Serif" font-size="10.00">HLF_TEF</text>
</a>
</g>
<!-- ESR1&#45;&gt;HLF_TEF -->
<g id="edge2" class="edge"><title>ESR1&#45;&gt;HLF_TEF</title>
<a xlink:title="TEF: 2.947||remove19">
<path fill="none" stroke="#d47aff" stroke-width="3" d="M475.563,-315.965C466.15,-332.268 452.281,-356.29 441.776,-374.485"/>
<polygon fill="#d47aff" stroke="#d47aff" points="439.078,-373.558 437.503,-381.886 443.928,-376.358 439.078,-373.558"/>
</a>
</g>
<!-- ESRRA_ESR2 -->
<g id="node4" class="node"><title>ESRRA_ESR2</title>
<a xlink:href="ESRRA_ESR2.svg" xlink:title="Z&#45;value: 3.814||remove29">
<polygon fill="#ff7373" stroke="#ff7373" stroke-width="2" points="294.814,-256.564 236.314,-256.564 224.314,-244.564 224.314,-232.564 236.314,-220.564 294.814,-220.564 306.814,-232.564 306.814,-244.564 294.814,-256.564"/>
<path fill="#ff7373" stroke="#ff7373" stroke-width="2" d="M236.314,-256.564C230.314,-256.564 224.314,-250.564 224.314,-244.564"/>
<path fill="#ff7373" stroke="#ff7373" stroke-width="2" d="M224.314,-232.564C224.314,-226.564 230.314,-220.564 236.314,-220.564"/>
<path fill="#ff7373" stroke="#ff7373" stroke-width="2" d="M294.814,-220.564C300.814,-220.564 306.814,-226.564 306.814,-232.564"/>
<path fill="#ff7373" stroke="#ff7373" stroke-width="2" d="M306.814,-244.564C306.814,-250.564 300.814,-256.564 294.814,-256.564"/>
<polyline fill="none" stroke="white" stroke-width="2" points="294.814,-256.564 236.314,-256.564 "/>
<path fill="none" stroke="white" stroke-width="2" d="M236.314,-256.564C230.314,-256.564 224.314,-250.564 224.314,-244.564"/>
<polyline fill="none" stroke="white" stroke-width="2" points="224.314,-244.564 224.314,-232.564 "/>
<path fill="none" stroke="white" stroke-width="2" d="M224.314,-232.564C224.314,-226.564 230.314,-220.564 236.314,-220.564"/>
<polyline fill="none" stroke="white" stroke-width="2" points="236.314,-220.564 294.814,-220.564 "/>
<path fill="none" stroke="white" stroke-width="2" d="M294.814,-220.564C300.814,-220.564 306.814,-226.564 306.814,-232.564"/>
<polyline fill="none" stroke="white" stroke-width="2" points="306.814,-232.564 306.814,-244.564 "/>
<path fill="none" stroke="white" stroke-width="2" d="M306.814,-244.564C306.814,-250.564 300.814,-256.564 294.814,-256.564"/>
<text text-anchor="middle" x="265.564" y="-236.064" font-family="Helvetica,sans-Serif" font-size="10.00">ESRRA_ESR2</text>
</a>
</g>
<!-- ESRRA_ESR2&#45;&gt;ESR1 -->
<g id="edge16" class="edge"><title>ESRRA_ESR2&#45;&gt;ESR1</title>
<a xlink:title="ESR1: 2.139||remove26root">
<path fill="none" stroke="#ff9090" stroke-width="3" d="M307.31,-249.75C348.818,-260.872 411.788,-277.745 450.866,-288.216"/>
<polygon fill="#ff9090" stroke="#ff9090" points="450.373,-290.982 458.825,-290.348 451.823,-285.573 450.373,-290.982"/>
</a>
</g>
<!-- ESRRA_ESR2&#45;&gt;HLF_TEF -->
<g id="edge18" class="edge"><title>ESRRA_ESR2&#45;&gt;HLF_TEF</title>
<a xlink:title="TEF: 1.345||HLF: 0.034||remove19root">
<path fill="none" stroke="#ffa6a6" stroke-width="3" d="M283.772,-256.772C312.966,-285.966 370.264,-343.264 402.854,-375.854"/>
<polygon fill="#ffa6a6" stroke="#ffa6a6" points="401.002,-377.962 408.639,-381.639 404.962,-374.002 401.002,-377.962"/>
</a>
</g>
<!-- RXRA_NR2F6_NR2C2 -->
<g id="node5" class="node"><title>RXRA_NR2F6_NR2C2</title>
<a xlink:href="RXRA_NR2F6_NR2C2.svg" xlink:title="Z&#45;value: 0.563||remove22">
<polygon fill="#bec5ff" stroke="#bec5ff" stroke-width="2" points="372.164,-477.128 277.164,-477.128 265.164,-465.128 265.164,-453.128 277.164,-441.128 372.164,-441.128 384.164,-453.128 384.164,-465.128 372.164,-477.128"/>
<path fill="#bec5ff" stroke="#bec5ff" stroke-width="2" d="M277.164,-477.128C271.164,-477.128 265.164,-471.128 265.164,-465.128"/>
<path fill="#bec5ff" stroke="#bec5ff" stroke-width="2" d="M265.164,-453.128C265.164,-447.128 271.164,-441.128 277.164,-441.128"/>
<path fill="#bec5ff" stroke="#bec5ff" stroke-width="2" d="M372.164,-441.128C378.164,-441.128 384.164,-447.128 384.164,-453.128"/>
<path fill="#bec5ff" stroke="#bec5ff" stroke-width="2" d="M384.164,-465.128C384.164,-471.128 378.164,-477.128 372.164,-477.128"/>
<polyline fill="none" stroke="white" stroke-width="2" points="372.164,-477.128 277.164,-477.128 "/>
<path fill="none" stroke="white" stroke-width="2" d="M277.164,-477.128C271.164,-477.128 265.164,-471.128 265.164,-465.128"/>
<polyline fill="none" stroke="white" stroke-width="2" points="265.164,-465.128 265.164,-453.128 "/>
<path fill="none" stroke="white" stroke-width="2" d="M265.164,-453.128C265.164,-447.128 271.164,-441.128 277.164,-441.128"/>
<polyline fill="none" stroke="white" stroke-width="2" points="277.164,-441.128 372.164,-441.128 "/>
<path fill="none" stroke="white" stroke-width="2" d="M372.164,-441.128C378.164,-441.128 384.164,-447.128 384.164,-453.128"/>
<polyline fill="none" stroke="white" stroke-width="2" points="384.164,-453.128 384.164,-465.128 "/>
<path fill="none" stroke="white" stroke-width="2" d="M384.164,-465.128C384.164,-471.128 378.164,-477.128 372.164,-477.128"/>
<text text-anchor="middle" x="324.664" y="-456.628" font-family="Helvetica,sans-Serif" font-size="10.00">RXRA_NR2F6_NR2C2</text>
</a>
</g>
<!-- ESRRA_ESR2&#45;&gt;RXRA_NR2F6_NR2C2 -->
<g id="edge4" class="edge"><title>ESRRA_ESR2&#45;&gt;RXRA_NR2F6_NR2C2</title>
<a xlink:title="RXRA: 1.387||NR2F6: 0.896||NR2C2: 0.129||ESRRA: 0.089||remove22root">
<path fill="none" stroke="#ffa5a5" stroke-width="3" d="M273.473,-264.218C284.817,-306.554 307.2,-390.088 318.6,-432.632"/>
<path fill="none" stroke="#c9ceff" stroke-width="3" d="M271.542,-264.736C282.885,-307.071 305.268,-390.605 316.668,-433.15"/>
<polygon fill="#c9ceff" stroke="#c9ceff" points="275.176,-263.617 270.401,-256.614 269.767,-265.066 275.176,-263.617"/>
<polygon fill="#ffa5a5" stroke="#ffa5a5" points="314.986,-433.827 319.761,-440.829 320.395,-432.377 314.986,-433.827"/>
</a>
</g>
<!-- MAFF_MAFG -->
<g id="node7" class="node"><title>MAFF_MAFG</title>
<a xlink:href="MAFF_MAFG.svg" xlink:title="Z&#45;value: 0.422||remove20">
<polygon fill="#c2c8ff" stroke="#c2c8ff" stroke-width="2" points="232.714,-477.128 180.214,-477.128 168.214,-465.128 168.214,-453.128 180.214,-441.128 232.714,-441.128 244.714,-453.128 244.714,-465.128 232.714,-477.128"/>
<path fill="#c2c8ff" stroke="#c2c8ff" stroke-width="2" d="M180.214,-477.128C174.214,-477.128 168.214,-471.128 168.214,-465.128"/>
<path fill="#c2c8ff" stroke="#c2c8ff" stroke-width="2" d="M168.214,-453.128C168.214,-447.128 174.214,-441.128 180.214,-441.128"/>
<path fill="#c2c8ff" stroke="#c2c8ff" stroke-width="2" d="M232.714,-441.128C238.714,-441.128 244.714,-447.128 244.714,-453.128"/>
<path fill="#c2c8ff" stroke="#c2c8ff" stroke-width="2" d="M244.714,-465.128C244.714,-471.128 238.714,-477.128 232.714,-477.128"/>
<polyline fill="none" stroke="white" stroke-width="2" points="232.714,-477.128 180.214,-477.128 "/>
<path fill="none" stroke="white" stroke-width="2" d="M180.214,-477.128C174.214,-477.128 168.214,-471.128 168.214,-465.128"/>
<polyline fill="none" stroke="white" stroke-width="2" points="168.214,-465.128 168.214,-453.128 "/>
<path fill="none" stroke="white" stroke-width="2" d="M168.214,-453.128C168.214,-447.128 174.214,-441.128 180.214,-441.128"/>
<polyline fill="none" stroke="white" stroke-width="2" points="180.214,-441.128 232.714,-441.128 "/>
<path fill="none" stroke="white" stroke-width="2" d="M232.714,-441.128C238.714,-441.128 244.714,-447.128 244.714,-453.128"/>
<polyline fill="none" stroke="white" stroke-width="2" points="244.714,-453.128 244.714,-465.128 "/>
<path fill="none" stroke="white" stroke-width="2" d="M244.714,-465.128C244.714,-471.128 238.714,-477.128 232.714,-477.128"/>
<text text-anchor="middle" x="206.464" y="-456.628" font-family="Helvetica,sans-Serif" font-size="10.00">MAFF_MAFG</text>
</a>
</g>
<!-- ESRRA_ESR2&#45;&gt;MAFF_MAFG -->
<g id="edge6" class="edge"><title>ESRRA_ESR2&#45;&gt;MAFF_MAFG</title>
<a xlink:title="MAFF: 1.347||remove20root">
<path fill="none" stroke="#ffa6a6" stroke-width="3" d="M260.728,-256.614C250.295,-295.55 225.638,-387.57 213.485,-432.927"/>
<polygon fill="#ffa6a6" stroke="#ffa6a6" points="210.733,-432.377 211.367,-440.829 216.143,-433.827 210.733,-432.377"/>
</a>
</g>
<!-- ERG -->
<g id="node9" class="node"><title>ERG</title>
<a xlink:href="ERG.svg" xlink:title="Z&#45;value: 0.660||remove18">
<polygon fill="#bcc3ff" stroke="#bcc3ff" stroke-width="2" points="119.1,-418.028 89.1,-418.028 77.1,-406.028 77.1,-394.028 89.1,-382.028 119.1,-382.028 131.1,-394.028 131.1,-406.028 119.1,-418.028"/>
<path fill="#bcc3ff" stroke="#bcc3ff" stroke-width="2" d="M89.1,-418.028C83.1,-418.028 77.1,-412.028 77.1,-406.028"/>
<path fill="#bcc3ff" stroke="#bcc3ff" stroke-width="2" d="M77.1,-394.028C77.1,-388.028 83.1,-382.028 89.1,-382.028"/>
<path fill="#bcc3ff" stroke="#bcc3ff" stroke-width="2" d="M119.1,-382.028C125.1,-382.028 131.1,-388.028 131.1,-394.028"/>
<path fill="#bcc3ff" stroke="#bcc3ff" stroke-width="2" d="M131.1,-406.028C131.1,-412.028 125.1,-418.028 119.1,-418.028"/>
<polyline fill="none" stroke="white" stroke-width="2" points="119.1,-418.028 89.1,-418.028 "/>
<path fill="none" stroke="white" stroke-width="2" d="M89.1,-418.028C83.1,-418.028 77.1,-412.028 77.1,-406.028"/>
<polyline fill="none" stroke="white" stroke-width="2" points="77.1,-406.028 77.1,-394.028 "/>
<path fill="none" stroke="white" stroke-width="2" d="M77.1,-394.028C77.1,-388.028 83.1,-382.028 89.1,-382.028"/>
<polyline fill="none" stroke="white" stroke-width="2" points="89.1,-382.028 119.1,-382.028 "/>
<path fill="none" stroke="white" stroke-width="2" d="M119.1,-382.028C125.1,-382.028 131.1,-388.028 131.1,-394.028"/>
<polyline fill="none" stroke="white" stroke-width="2" points="131.1,-394.028 131.1,-406.028 "/>
<path fill="none" stroke="white" stroke-width="2" d="M131.1,-406.028C131.1,-412.028 125.1,-418.028 119.1,-418.028"/>
<text text-anchor="middle" x="104.1" y="-397.528" font-family="Helvetica,sans-Serif" font-size="10.00">ERG</text>
</a>
</g>
<!-- ESRRA_ESR2&#45;&gt;ERG -->
<g id="edge8" class="edge"><title>ESRRA_ESR2&#45;&gt;ERG</title>
<a xlink:title="ERG: 1.344||remove18root">
<path fill="none" stroke="#ffa6a6" stroke-width="3" d="M247.356,-256.772C218.163,-285.966 160.864,-343.264 128.275,-375.854"/>
<polygon fill="#ffa6a6" stroke="#ffa6a6" points="126.166,-374.002 122.489,-381.639 130.126,-377.962 126.166,-374.002"/>
</a>
</g>
<!-- HOXC6_HOXA7 -->
<g id="node11" class="node"><title>HOXC6_HOXA7</title>
<a xlink:href="HOXC6_HOXA7.svg" xlink:title="Z&#45;value: 0.413||remove23">
<polygon fill="#c2c8ff" stroke="#c2c8ff" stroke-width="2" points="78,-315.664 12,-315.664 2.84217e-14,-303.664 2.84217e-14,-291.664 12,-279.664 78,-279.664 90,-291.664 90,-303.664 78,-315.664"/>
<path fill="#c2c8ff" stroke="#c2c8ff" stroke-width="2" d="M12,-315.664C6,-315.664 2.84217e-14,-309.664 2.84217e-14,-303.664"/>
<path fill="#c2c8ff" stroke="#c2c8ff" stroke-width="2" d="M2.84217e-14,-291.664C2.84217e-14,-285.664 6,-279.664 12,-279.664"/>
<path fill="#c2c8ff" stroke="#c2c8ff" stroke-width="2" d="M78,-279.664C84,-279.664 90,-285.664 90,-291.664"/>
<path fill="#c2c8ff" stroke="#c2c8ff" stroke-width="2" d="M90,-303.664C90,-309.664 84,-315.664 78,-315.664"/>
<polyline fill="none" stroke="white" stroke-width="2" points="78,-315.664 12,-315.664 "/>
<path fill="none" stroke="white" stroke-width="2" d="M12,-315.664C6,-315.664 2.84217e-14,-309.664 2.84217e-14,-303.664"/>
<polyline fill="none" stroke="white" stroke-width="2" points="2.84217e-14,-303.664 2.84217e-14,-291.664 "/>
<path fill="none" stroke="white" stroke-width="2" d="M2.84217e-14,-291.664C2.84217e-14,-285.664 6,-279.664 12,-279.664"/>
<polyline fill="none" stroke="white" stroke-width="2" points="12,-279.664 78,-279.664 "/>
<path fill="none" stroke="white" stroke-width="2" d="M78,-279.664C84,-279.664 90,-285.664 90,-291.664"/>
<polyline fill="none" stroke="white" stroke-width="2" points="90,-291.664 90,-303.664 "/>
<path fill="none" stroke="white" stroke-width="2" d="M90,-303.664C90,-309.664 84,-315.664 78,-315.664"/>
<text text-anchor="middle" x="45" y="-295.164" font-family="Helvetica,sans-Serif" font-size="10.00">HOXC6_HOXA7</text>
</a>
</g>
<!-- ESRRA_ESR2&#45;&gt;HOXC6_HOXA7 -->
<g id="edge10" class="edge"><title>ESRRA_ESR2&#45;&gt;HOXC6_HOXA7</title>
<a xlink:title="HOXC6: 1.718||remove23root">
<path fill="none" stroke="#ff9c9c" stroke-width="3" d="M224.078,-249.68C188.428,-259.233 136.809,-273.064 98.1404,-283.425"/>
<polygon fill="#ff9c9c" stroke="#ff9c9c" points="97.0986,-280.806 90.0959,-285.581 98.548,-286.215 97.0986,-280.806"/>
</a>
</g>
<!-- SMAD3 -->
<g id="node13" class="node"><title>SMAD3</title>
<a xlink:href="SMAD3.svg" xlink:title="Z&#45;value: 0.374||remove27">
<polygon fill="#c3c9ff" stroke="#c3c9ff" stroke-width="2" points="60,-197.464 30,-197.464 18,-185.464 18,-173.464 30,-161.464 60,-161.464 72,-173.464 72,-185.464 60,-197.464"/>
<path fill="#c3c9ff" stroke="#c3c9ff" stroke-width="2" d="M30,-197.464C24,-197.464 18,-191.464 18,-185.464"/>
<path fill="#c3c9ff" stroke="#c3c9ff" stroke-width="2" d="M18,-173.464C18,-167.464 24,-161.464 30,-161.464"/>
<path fill="#c3c9ff" stroke="#c3c9ff" stroke-width="2" d="M60,-161.464C66,-161.464 72,-167.464 72,-173.464"/>
<path fill="#c3c9ff" stroke="#c3c9ff" stroke-width="2" d="M72,-185.464C72,-191.464 66,-197.464 60,-197.464"/>
<polyline fill="none" stroke="white" stroke-width="2" points="60,-197.464 30,-197.464 "/>
<path fill="none" stroke="white" stroke-width="2" d="M30,-197.464C24,-197.464 18,-191.464 18,-185.464"/>
<polyline fill="none" stroke="white" stroke-width="2" points="18,-185.464 18,-173.464 "/>
<path fill="none" stroke="white" stroke-width="2" d="M18,-173.464C18,-167.464 24,-161.464 30,-161.464"/>
<polyline fill="none" stroke="white" stroke-width="2" points="30,-161.464 60,-161.464 "/>
<path fill="none" stroke="white" stroke-width="2" d="M60,-161.464C66,-161.464 72,-167.464 72,-173.464"/>
<polyline fill="none" stroke="white" stroke-width="2" points="72,-173.464 72,-185.464 "/>
<path fill="none" stroke="white" stroke-width="2" d="M72,-185.464C72,-191.464 66,-197.464 60,-197.464"/>
<text text-anchor="middle" x="45" y="-176.964" font-family="Helvetica,sans-Serif" font-size="10.00">SMAD3</text>
</a>
</g>
<!-- ESRRA_ESR2&#45;&gt;SMAD3 -->
<g id="edge12" class="edge"><title>ESRRA_ESR2&#45;&gt;SMAD3</title>
<a xlink:title="SMAD3: 2.777||remove27root">
<path fill="none" stroke="#ff7f7f" stroke-width="3" d="M224.078,-227.448C182.486,-216.304 119.159,-199.335 80.0191,-188.848"/>
<polygon fill="#ff7f7f" stroke="#ff7f7f" points="80.5028,-186.078 72.0507,-186.712 79.0534,-191.488 80.5028,-186.078"/>
</a>
</g>
<!-- BATF -->
<g id="node15" class="node"><title>BATF</title>
<a xlink:href="BATF.svg" xlink:title="Z&#45;value: 1.213||remove25">
<polygon fill="#afb7ff" stroke="#afb7ff" stroke-width="2" points="119.1,-95.1 89.1,-95.1 77.1,-83.1 77.1,-71.1 89.1,-59.1 119.1,-59.1 131.1,-71.1 131.1,-83.1 119.1,-95.1"/>
<path fill="#afb7ff" stroke="#afb7ff" stroke-width="2" d="M89.1,-95.1C83.1,-95.1 77.1,-89.1 77.1,-83.1"/>
<path fill="#afb7ff" stroke="#afb7ff" stroke-width="2" d="M77.1,-71.1C77.1,-65.1 83.1,-59.1 89.1,-59.1"/>
<path fill="#afb7ff" stroke="#afb7ff" stroke-width="2" d="M119.1,-59.1C125.1,-59.1 131.1,-65.1 131.1,-71.1"/>
<path fill="#afb7ff" stroke="#afb7ff" stroke-width="2" d="M131.1,-83.1C131.1,-89.1 125.1,-95.1 119.1,-95.1"/>
<polyline fill="none" stroke="white" stroke-width="2" points="119.1,-95.1 89.1,-95.1 "/>
<path fill="none" stroke="white" stroke-width="2" d="M89.1,-95.1C83.1,-95.1 77.1,-89.1 77.1,-83.1"/>
<polyline fill="none" stroke="white" stroke-width="2" points="77.1,-83.1 77.1,-71.1 "/>
<path fill="none" stroke="white" stroke-width="2" d="M77.1,-71.1C77.1,-65.1 83.1,-59.1 89.1,-59.1"/>
<polyline fill="none" stroke="white" stroke-width="2" points="89.1,-59.1 119.1,-59.1 "/>
<path fill="none" stroke="white" stroke-width="2" d="M119.1,-59.1C125.1,-59.1 131.1,-65.1 131.1,-71.1"/>
<polyline fill="none" stroke="white" stroke-width="2" points="131.1,-71.1 131.1,-83.1 "/>
<path fill="none" stroke="white" stroke-width="2" d="M131.1,-83.1C131.1,-89.1 125.1,-95.1 119.1,-95.1"/>
<text text-anchor="middle" x="104.1" y="-74.6" font-family="Helvetica,sans-Serif" font-size="10.00">BATF</text>
</a>
</g>
<!-- ESRRA_ESR2&#45;&gt;BATF -->
<g id="edge14" class="edge"><title>ESRRA_ESR2&#45;&gt;BATF</title>
<a xlink:title="BATF: 2.037||remove25root">
<path fill="none" stroke="#ff9393" stroke-width="3" d="M247.356,-220.356C218.163,-191.163 160.864,-133.864 128.275,-101.275"/>
<polygon fill="#ff9393" stroke="#ff9393" points="130.126,-99.1663 122.489,-95.4893 126.166,-103.126 130.126,-99.1663"/>
</a>
</g>
<!-- ARID5B -->
<g id="node19" class="node"><title>ARID5B</title>
<a xlink:href="ARID5B.svg" xlink:title="Z&#45;value: 0.249||remove24">
<polygon fill="#c6cbff" stroke="#c6cbff" stroke-width="2" points="221.464,-36 191.464,-36 179.464,-24 179.464,-12 191.464,-6.39488e-14 221.464,-6.39488e-14 233.464,-12 233.464,-24 221.464,-36"/>
<path fill="#c6cbff" stroke="#c6cbff" stroke-width="2" d="M191.464,-36C185.464,-36 179.464,-30 179.464,-24"/>
<path fill="#c6cbff" stroke="#c6cbff" stroke-width="2" d="M179.464,-12C179.464,-6 185.464,-6.39488e-14 191.464,-6.39488e-14"/>
<path fill="#c6cbff" stroke="#c6cbff" stroke-width="2" d="M221.464,-6.39488e-14C227.464,-6.39488e-14 233.464,-6 233.464,-12"/>
<path fill="#c6cbff" stroke="#c6cbff" stroke-width="2" d="M233.464,-24C233.464,-30 227.464,-36 221.464,-36"/>
<polyline fill="none" stroke="white" stroke-width="2" points="221.464,-36 191.464,-36 "/>
<path fill="none" stroke="white" stroke-width="2" d="M191.464,-36C185.464,-36 179.464,-30 179.464,-24"/>
<polyline fill="none" stroke="white" stroke-width="2" points="179.464,-24 179.464,-12 "/>
<path fill="none" stroke="white" stroke-width="2" d="M179.464,-12C179.464,-6 185.464,-6.39488e-14 191.464,-6.39488e-14"/>
<polyline fill="none" stroke="white" stroke-width="2" points="191.464,-6.39488e-14 221.464,-6.39488e-14 "/>
<path fill="none" stroke="white" stroke-width="2" d="M221.464,-6.39488e-14C227.464,-6.39488e-14 233.464,-6 233.464,-12"/>
<polyline fill="none" stroke="white" stroke-width="2" points="233.464,-12 233.464,-24 "/>
<path fill="none" stroke="white" stroke-width="2" d="M233.464,-24C233.464,-30 227.464,-36 221.464,-36"/>
<text text-anchor="middle" x="206.464" y="-15.5" font-family="Helvetica,sans-Serif" font-size="10.00">ARID5B</text>
</a>
</g>
<!-- ESRRA_ESR2&#45;&gt;ARID5B -->
<g id="edge20" class="edge"><title>ESRRA_ESR2&#45;&gt;ARID5B</title>
<a xlink:title="ARID5B: 1.856||remove24root">
<path fill="none" stroke="#ff9898" stroke-width="3" d="M260.728,-220.515C250.295,-181.578 225.638,-89.5588 213.485,-44.2019"/>
<polygon fill="#ff9898" stroke="#ff9898" points="216.143,-43.3018 211.367,-36.2991 210.733,-44.7512 216.143,-43.3018"/>
</a>
</g>
<!-- EPAS1_BCL3 -->
<g id="node21" class="node"><title>EPAS1_BCL3</title>
<a xlink:href="EPAS1_BCL3.svg" xlink:title="Z&#45;value: 0.784||remove28">
<polygon fill="#b9c0ff" stroke="#b9c0ff" stroke-width="2" points="351.914,-36 297.414,-36 285.414,-24 285.414,-12 297.414,3.19744e-14 351.914,3.19744e-14 363.914,-12 363.914,-24 351.914,-36"/>
<path fill="#b9c0ff" stroke="#b9c0ff" stroke-width="2" d="M297.414,-36C291.414,-36 285.414,-30 285.414,-24"/>
<path fill="#b9c0ff" stroke="#b9c0ff" stroke-width="2" d="M285.414,-12C285.414,-6 291.414,3.19744e-14 297.414,3.19744e-14"/>
<path fill="#b9c0ff" stroke="#b9c0ff" stroke-width="2" d="M351.914,3.19744e-14C357.914,3.19744e-14 363.914,-6 363.914,-12"/>
<path fill="#b9c0ff" stroke="#b9c0ff" stroke-width="2" d="M363.914,-24C363.914,-30 357.914,-36 351.914,-36"/>
<polyline fill="none" stroke="white" stroke-width="2" points="351.914,-36 297.414,-36 "/>
<path fill="none" stroke="white" stroke-width="2" d="M297.414,-36C291.414,-36 285.414,-30 285.414,-24"/>
<polyline fill="none" stroke="white" stroke-width="2" points="285.414,-24 285.414,-12 "/>
<path fill="none" stroke="white" stroke-width="2" d="M285.414,-12C285.414,-6 291.414,3.19744e-14 297.414,3.19744e-14"/>
<polyline fill="none" stroke="white" stroke-width="2" points="297.414,3.19744e-14 351.914,3.19744e-14 "/>
<path fill="none" stroke="white" stroke-width="2" d="M351.914,3.19744e-14C357.914,3.19744e-14 363.914,-6 363.914,-12"/>
<polyline fill="none" stroke="white" stroke-width="2" points="363.914,-12 363.914,-24 "/>
<path fill="none" stroke="white" stroke-width="2" d="M363.914,-24C363.914,-30 357.914,-36 351.914,-36"/>
<text text-anchor="middle" x="324.664" y="-15.5" font-family="Helvetica,sans-Serif" font-size="10.00">EPAS1_BCL3</text>
</a>
</g>
<!-- ESRRA_ESR2&#45;&gt;EPAS1_BCL3 -->
<g id="edge22" class="edge"><title>ESRRA_ESR2&#45;&gt;EPAS1_BCL3</title>
<a xlink:title="BCL3: 5.526||ESRRA: 0.041||remove28root">
<path fill="none" stroke="#ff3232" stroke-width="3" d="M271.542,-212.393C282.885,-170.057 305.268,-86.5232 316.668,-43.9784"/>
<path fill="none" stroke="#cad0ff" stroke-width="3" d="M273.473,-212.91C284.817,-170.575 307.2,-87.0408 318.6,-44.496"/>
<polygon fill="#cad0ff" stroke="#cad0ff" points="269.767,-212.062 270.401,-220.515 275.176,-213.512 269.767,-212.062"/>
<polygon fill="#ff3232" stroke="#ff3232" points="320.395,-44.7512 319.761,-36.2991 314.986,-43.3018 320.395,-44.7512"/>
</a>
</g>
<!-- TWIST1_SNAI1 -->
<g id="node23" class="node"><title>TWIST1_SNAI1</title>
<a xlink:href="TWIST1_SNAI1.svg" xlink:title="Z&#45;value: 0.616||remove17">
<polygon fill="#bdc4ff" stroke="#bdc4ff" stroke-width="2" points="458.528,-95.1 395.528,-95.1 383.528,-83.1 383.528,-71.1 395.528,-59.1 458.528,-59.1 470.528,-71.1 470.528,-83.1 458.528,-95.1"/>
<path fill="#bdc4ff" stroke="#bdc4ff" stroke-width="2" d="M395.528,-95.1C389.528,-95.1 383.528,-89.1 383.528,-83.1"/>
<path fill="#bdc4ff" stroke="#bdc4ff" stroke-width="2" d="M383.528,-71.1C383.528,-65.1 389.528,-59.1 395.528,-59.1"/>
<path fill="#bdc4ff" stroke="#bdc4ff" stroke-width="2" d="M458.528,-59.1C464.528,-59.1 470.528,-65.1 470.528,-71.1"/>
<path fill="#bdc4ff" stroke="#bdc4ff" stroke-width="2" d="M470.528,-83.1C470.528,-89.1 464.528,-95.1 458.528,-95.1"/>
<polyline fill="none" stroke="white" stroke-width="2" points="458.528,-95.1 395.528,-95.1 "/>
<path fill="none" stroke="white" stroke-width="2" d="M395.528,-95.1C389.528,-95.1 383.528,-89.1 383.528,-83.1"/>
<polyline fill="none" stroke="white" stroke-width="2" points="383.528,-83.1 383.528,-71.1 "/>
<path fill="none" stroke="white" stroke-width="2" d="M383.528,-71.1C383.528,-65.1 389.528,-59.1 395.528,-59.1"/>
<polyline fill="none" stroke="white" stroke-width="2" points="395.528,-59.1 458.528,-59.1 "/>
<path fill="none" stroke="white" stroke-width="2" d="M458.528,-59.1C464.528,-59.1 470.528,-65.1 470.528,-71.1"/>
<polyline fill="none" stroke="white" stroke-width="2" points="470.528,-71.1 470.528,-83.1 "/>
<path fill="none" stroke="white" stroke-width="2" d="M470.528,-83.1C470.528,-89.1 464.528,-95.1 458.528,-95.1"/>
<text text-anchor="middle" x="427.028" y="-74.6" font-family="Helvetica,sans-Serif" font-size="10.00">TWIST1_SNAI1</text>
</a>
</g>
<!-- ESRRA_ESR2&#45;&gt;TWIST1_SNAI1 -->
<g id="edge24" class="edge"><title>ESRRA_ESR2&#45;&gt;TWIST1_SNAI1</title>
<a xlink:title="SNAI1: 1.324||remove17root">
<path fill="none" stroke="#ffa7a7" stroke-width="3" d="M283.772,-220.356C312.966,-191.163 370.264,-133.864 402.854,-101.275"/>
<polygon fill="#ffa7a7" stroke="#ffa7a7" points="404.962,-103.126 408.639,-95.4893 401.002,-99.1663 404.962,-103.126"/>
</a>
</g>
<!-- RXRA_NR2F6_NR2C2&#45;&gt;RXRA_NR2F6_NR2C2 -->
<g id="edge42" class="edge"><title>RXRA_NR2F6_NR2C2&#45;&gt;RXRA_NR2F6_NR2C2</title>
<a xlink:title="NR2F6: 0.058||NR2C2: 0.022||remove2root">
<path fill="none" stroke="#eecaff" stroke-width="3" d="M384.392,-465.43C394.595,-464.569 401.664,-462.468 401.664,-459.128 401.664,-456.78 398.169,-455.045 392.547,-453.922"/>
<polygon fill="#eecaff" stroke="#eecaff" points="392.693,-451.116 384.392,-452.827 391.948,-456.666 392.693,-451.116"/>
</a>
</g>
<!-- MAFF_MAFG&#45;&gt;RXRA_NR2F6_NR2C2 -->
<g id="edge44" class="edge"><title>MAFF_MAFG&#45;&gt;RXRA_NR2F6_NR2C2</title>
<a xlink:title="NR2C2: 0.006||remove0root">
<path fill="none" stroke="#eecbff" stroke-width="3" d="M244.84,-459.128C248.784,-459.128 252.868,-459.128 257.01,-459.128"/>
<polygon fill="#eecbff" stroke="#eecbff" points="257.023,-461.929 265.023,-459.128 257.023,-456.329 257.023,-461.929"/>
</a>
</g>
<!-- MAFF_MAFG&#45;&gt;MAFF_MAFG -->
<g id="edge46" class="edge"><title>MAFF_MAFG&#45;&gt;MAFF_MAFG</title>
<a xlink:title="MAFG: 0.159||remove10root">
<path fill="none" stroke="#edc7ff" stroke-width="3" d="M244.939,-465.809C254.93,-465.398 262.464,-463.171 262.464,-459.128 262.464,-456.286 258.74,-454.341 253.055,-453.294"/>
<polygon fill="#edc7ff" stroke="#edc7ff" points="253.187,-450.493 244.939,-452.448 252.606,-456.062 253.187,-450.493"/>
</a>
</g>
<!-- SP3 -->
<g id="node28" class="node"><title>SP3</title>
<a xlink:href="SP3.svg" xlink:title="Z&#45;value: 1.634||remove21">
<polygon fill="#a6aeff" stroke="#a6aeff" stroke-width="2" points="501.128,-197.464 471.128,-197.464 459.128,-185.464 459.128,-173.464 471.128,-161.464 501.128,-161.464 513.128,-173.464 513.128,-185.464 501.128,-197.464"/>
<path fill="#a6aeff" stroke="#a6aeff" stroke-width="2" d="M471.128,-197.464C465.128,-197.464 459.128,-191.464 459.128,-185.464"/>
<path fill="#a6aeff" stroke="#a6aeff" stroke-width="2" d="M459.128,-173.464C459.128,-167.464 465.128,-161.464 471.128,-161.464"/>
<path fill="#a6aeff" stroke="#a6aeff" stroke-width="2" d="M501.128,-161.464C507.128,-161.464 513.128,-167.464 513.128,-173.464"/>
<path fill="#a6aeff" stroke="#a6aeff" stroke-width="2" d="M513.128,-185.464C513.128,-191.464 507.128,-197.464 501.128,-197.464"/>
<polyline fill="none" stroke="white" stroke-width="2" points="501.128,-197.464 471.128,-197.464 "/>
<path fill="none" stroke="white" stroke-width="2" d="M471.128,-197.464C465.128,-197.464 459.128,-191.464 459.128,-185.464"/>
<polyline fill="none" stroke="white" stroke-width="2" points="459.128,-185.464 459.128,-173.464 "/>
<path fill="none" stroke="white" stroke-width="2" d="M459.128,-173.464C459.128,-167.464 465.128,-161.464 471.128,-161.464"/>
<polyline fill="none" stroke="white" stroke-width="2" points="471.128,-161.464 501.128,-161.464 "/>
<path fill="none" stroke="white" stroke-width="2" d="M501.128,-161.464C507.128,-161.464 513.128,-167.464 513.128,-173.464"/>
<polyline fill="none" stroke="white" stroke-width="2" points="513.128,-173.464 513.128,-185.464 "/>
<path fill="none" stroke="white" stroke-width="2" d="M513.128,-185.464C513.128,-191.464 507.128,-197.464 501.128,-197.464"/>
<text text-anchor="middle" x="486.128" y="-176.964" font-family="Helvetica,sans-Serif" font-size="10.00">SP3</text>
</a>
</g>
<!-- MAFF_MAFG&#45;&gt;SP3 -->
<g id="edge48" class="edge"><title>MAFF_MAFG&#45;&gt;SP3</title>
<a xlink:title="SP3: 0.041||MAFF: 0.141||remove9root">
<path fill="none" stroke="#eecaff" stroke-width="3" d="M229.794,-434.384C282.734,-381.444 408.871,-255.307 461.606,-202.572"/>
<path fill="none" stroke="#edc8ff" stroke-width="3" d="M231.208,-435.798C284.149,-382.858 410.285,-256.721 463.02,-203.987"/>
<polygon fill="#edc8ff" stroke="#edc8ff" points="228.491,-433.142 224.814,-440.779 232.451,-437.102 228.491,-433.142"/>
<polygon fill="#eecaff" stroke="#eecaff" points="464.398,-205.155 468.075,-197.518 460.438,-201.195 464.398,-205.155"/>
</a>
</g>
<!-- ERG&#45;&gt;MAFF_MAFG -->
<g id="edge34" class="edge"><title>ERG&#45;&gt;MAFF_MAFG</title>
<a xlink:title="MAFF: 0.102||remove6root">
<path fill="none" stroke="#edc9ff" stroke-width="3" d="M131.263,-415.711C142.552,-422.229 155.857,-429.91 168.113,-436.986"/>
<polygon fill="#edc9ff" stroke="#edc9ff" points="166.856,-439.494 175.184,-441.069 169.656,-434.644 166.856,-439.494"/>
</a>
</g>
<!-- ERG&#45;&gt;HOXC6_HOXA7 -->
<g id="edge36" class="edge"><title>ERG&#45;&gt;HOXC6_HOXA7</title>
<a xlink:title="HOXC6: 0.125||remove8root">
<path fill="none" stroke="#edc8ff" stroke-width="3" d="M93.5341,-381.728C84.1214,-365.425 70.2522,-341.402 59.7476,-323.208"/>
<polygon fill="#edc8ff" stroke="#edc8ff" points="61.8993,-321.335 55.4744,-315.806 57.0496,-324.135 61.8993,-321.335"/>
</a>
</g>
<!-- ERG&#45;&gt;BATF -->
<g id="edge38" class="edge"><title>ERG&#45;&gt;BATF</title>
<a xlink:title="BATF: 0.476||remove12root">
<path fill="none" stroke="#eabeff" stroke-width="3" d="M104.1,-381.741C104.1,-327.456 104.1,-167.073 104.1,-103.494"/>
<polygon fill="#eabeff" stroke="#eabeff" points="106.9,-103.187 104.1,-95.1867 101.3,-103.187 106.9,-103.187"/>
</a>
</g>
<!-- HOXC6_HOXA7&#45;&gt;ESR1 -->
<g id="edge52" class="edge"><title>HOXC6_HOXA7&#45;&gt;ESR1</title>
<a xlink:title="ESR1: 0.049||remove1root">
<path fill="none" stroke="#eecaff" stroke-width="3" d="M90.1354,-297.664C178.166,-297.664 371.117,-297.664 450.714,-297.664"/>
<polygon fill="#eecaff" stroke="#eecaff" points="450.953,-300.464 458.953,-297.664 450.953,-294.864 450.953,-300.464"/>
</a>
</g>
<!-- HOXC6_HOXA7&#45;&gt;SMAD3 -->
<g id="edge50" class="edge"><title>HOXC6_HOXA7&#45;&gt;SMAD3</title>
<a xlink:title="SMAD3: 0.064||remove3root">
<path fill="none" stroke="#eecaff" stroke-width="3" d="M45,-279.455C45,-259.701 45,-227.995 45,-205.588"/>
<polygon fill="#eecaff" stroke="#eecaff" points="47.8001,-205.501 45,-197.501 42.2001,-205.501 47.8001,-205.501"/>
</a>
</g>
<!-- BATF&#45;&gt;MAFF_MAFG -->
<g id="edge26" class="edge"><title>BATF&#45;&gt;MAFF_MAFG</title>
<a xlink:title="MAFF: 0.311||remove11root">
<path fill="none" stroke="#ebc3ff" stroke-width="3" d="M108.968,-95.269C125.572,-157.236 180.022,-360.445 199.477,-433.051"/>
<polygon fill="#ebc3ff" stroke="#ebc3ff" points="196.791,-433.845 201.566,-440.848 202.2,-432.396 196.791,-433.845"/>
</a>
</g>
<!-- BATF&#45;&gt;SMAD3 -->
<g id="edge28" class="edge"><title>BATF&#45;&gt;SMAD3</title>
<a xlink:title="SMAD3: 0.881||remove16root">
<path fill="none" stroke="#e6b3ff" stroke-width="3" d="M93.5341,-95.4007C84.1214,-111.704 70.2522,-135.726 59.7476,-153.921"/>
<polygon fill="#e6b3ff" stroke="#e6b3ff" points="57.0496,-152.994 55.4744,-161.322 61.8993,-155.794 57.0496,-152.994"/>
</a>
</g>
<!-- BATF&#45;&gt;EPAS1_BCL3 -->
<g id="edge30" class="edge"><title>BATF&#45;&gt;EPAS1_BCL3</title>
<a xlink:title="BCL3: 0.071||remove4root">
<path fill="none" stroke="#eecaff" stroke-width="3" d="M131.146,-69.8532C167.499,-60.1123 232.702,-42.6412 277.291,-30.6937"/>
<polygon fill="#eecaff" stroke="#eecaff" points="278.086,-33.3795 285.089,-28.6043 276.636,-27.9703 278.086,-33.3795"/>
</a>
</g>
<!-- ARID5B&#45;&gt;HOXC6_HOXA7 -->
<g id="edge54" class="edge"><title>ARID5B&#45;&gt;HOXC6_HOXA7</title>
<a xlink:title="HOXC6: 0.117||remove7root">
<path fill="none" stroke="#edc8ff" stroke-width="3" d="M195.87,-36.3496C167.804,-84.9619 91.4936,-217.135 59.4616,-272.616"/>
<polygon fill="#edc8ff" stroke="#edc8ff" points="56.9984,-271.282 55.4232,-279.611 61.8481,-274.082 56.9984,-271.282"/>
</a>
</g>
<!-- EPAS1_BCL3&#45;&gt;SP3 -->
<g id="edge32" class="edge"><title>EPAS1_BCL3&#45;&gt;SP3</title>
<a xlink:title="SP3: 0.055||BCL3: 1.407||EPAS1: 0.059||remove21">
<path fill="none" stroke="#eecaff" stroke-width="3" d="M338.66,-42.9022C347.949,-59.4688 361.488,-81.0464 376.719,-97.2968 399.106,-121.25 429.54,-143.15 452.667,-158.138"/>
<path fill="none" stroke="#e2a5ff" stroke-width="3" d="M336.915,-43.8805C346.255,-60.5318 359.794,-82.1094 375.258,-98.6632 397.938,-122.874 428.372,-144.773 451.579,-159.817"/>
<polygon fill="#e2a5ff" stroke="#e2a5ff" points="340.116,-41.8143 333.814,-36.1463 335.206,-44.5071 340.116,-41.8143"/>
<polygon fill="#eecaff" stroke="#eecaff" points="450.813,-161.464 459.062,-163.412 453.828,-156.745 450.813,-161.464"/>
</a>
</g>
<!-- TWIST1_SNAI1&#45;&gt;ERG -->
<g id="edge40" class="edge"><title>TWIST1_SNAI1&#45;&gt;ERG</title>
<a xlink:title="ERG: 0.097||remove5root">
<path fill="none" stroke="#edc9ff" stroke-width="3" d="M419.022,-95.1226C402.914,-129.937 363.809,-207.568 313.704,-259.444 260.757,-314.263 182.997,-359.489 138.584,-382.851"/>
<polygon fill="#edc9ff" stroke="#edc9ff" points="137.025,-380.506 131.222,-386.684 139.611,-385.473 137.025,-380.506"/>
</a>
</g>
<!-- SP3&#45;&gt;ESR1 -->
<g id="edge64" class="edge"><title>SP3&#45;&gt;ESR1</title>
<a xlink:title="ESR1: 0.716||remove14root">
<path fill="none" stroke="#e8b8ff" stroke-width="3" d="M486.128,-197.674C486.128,-217.427 486.128,-249.134 486.128,-271.54"/>
<polygon fill="#e8b8ff" stroke="#e8b8ff" points="483.329,-271.628 486.128,-279.628 488.929,-271.628 483.329,-271.628"/>
</a>
</g>
<!-- SP3&#45;&gt;HLF_TEF -->
<g id="edge66" class="edge"><title>SP3&#45;&gt;HLF_TEF</title>
<a xlink:title="TEF: 1.349||HLF: 0.094||remove19">
<path fill="none" stroke="#e2a6ff" stroke-width="3" d="M479.748,-197.613C473.042,-217.051 462.428,-248.874 454.808,-276.784 445.726,-310.052 437.321,-348.943 432.187,-374.002"/>
<polygon fill="#e2a6ff" stroke="#e2a6ff" points="429.423,-373.545 430.576,-381.942 434.911,-374.659 429.423,-373.545"/>
</a>
</g>
<!-- SP3&#45;&gt;ESRRA_ESR2 -->
<g id="edge62" class="edge"><title>SP3&#45;&gt;ESRRA_ESR2</title>
<a xlink:title="ESRRA: 1.361||ESR2: 0.109||remove21root">
<path fill="none" stroke="#a6afff" stroke-width="3" d="M459.083,-186.711C423.272,-196.307 359.466,-213.403 314.948,-225.332"/>
<polygon fill="#a6afff" stroke="#a6afff" points="314.151,-222.647 307.148,-227.422 315.6,-228.056 314.151,-222.647"/>
</a>
</g>
<!-- SP3&#45;&gt;RXRA_NR2F6_NR2C2 -->
<g id="edge56" class="edge"><title>SP3&#45;&gt;RXRA_NR2F6_NR2C2</title>
<a xlink:title="NR2F6: 1.784||NR2C2: 0.370||remove21">
<path fill="none" stroke="#de9aff" stroke-width="3" d="M475.534,-197.814C447.468,-246.426 371.158,-378.599 339.126,-434.08"/>
<polygon fill="#de9aff" stroke="#de9aff" points="336.663,-432.747 335.087,-441.075 341.512,-435.547 336.663,-432.747"/>
</a>
</g>
<!-- SP3&#45;&gt;ERG -->
<g id="edge58" class="edge"><title>SP3&#45;&gt;ERG</title>
<a xlink:title="ERG: 0.724||remove15root">
<path fill="none" stroke="#e8b7ff" stroke-width="3" d="M458.96,-195.15C390.978,-234.399 213.605,-336.806 138.498,-380.169"/>
<polygon fill="#e8b7ff" stroke="#e8b7ff" points="136.658,-377.998 131.13,-384.423 139.458,-382.848 136.658,-377.998"/>
</a>
</g>
<!-- SP3&#45;&gt;SMAD3 -->
<g id="edge60" class="edge"><title>SP3&#45;&gt;SMAD3</title>
<a xlink:title="SMAD3: 0.591||remove13root">
<path fill="none" stroke="#e9bbff" stroke-width="3" d="M458.867,-179.464C382.333,-179.464 165.526,-179.464 80.1604,-179.464"/>
<polygon fill="#e9bbff" stroke="#e9bbff" points="80.0797,-176.664 72.0797,-179.464 80.0797,-182.264 80.0797,-176.664"/>
</a>
</g>
<!-- SP3&#45;&gt;TWIST1_SNAI1 -->
<g id="edge68" class="edge"><title>SP3&#45;&gt;TWIST1_SNAI1</title>
<a xlink:title="SNAI1: 1.367||remove17">
<path fill="none" stroke="#e2a6ff" stroke-width="3" d="M475.563,-161.164C466.15,-144.86 452.281,-120.838 441.776,-102.644"/>
<polygon fill="#e2a6ff" stroke="#e2a6ff" points="443.928,-100.77 437.503,-95.2422 439.078,-103.57 443.928,-100.77"/>
</a>
</g>
</g>
</svg>
