<?xml version="1.0" ?><!DOCTYPE svg  PUBLIC '-//W3C//DTD SVG 1.1//EN'  'http://www.w3.org/Graphics/SVG/1.1/DTD/svg11.dtd'><!-- Generated by graphviz version 2.28.0 (20110630.0925)
 --><!-- Title: _anonymous_0 Pages: 1 --><svg height="535pt" onload="init(evt)" width="671pt" xmlns="http://www.w3.org/2000/svg" xmlns:ismara="ismara.unibas.ch" xmlns:xlink="http://www.w3.org/1999/xlink">
<g class="graph" id="graph1" transform="scale(1 1) rotate(0) translate(54 481.128)">

<polygon fill="white" points="-4,5 -4,-481.128 518.128,-481.128 518.128,5 -4,5" stroke="white"/>
<!-- ESR1 -->
<g class="node" id="node1">
<a class="remove26" onmousemove="ShowTooltip(evt, 'Z-value: 6.597')" onmouseout="HideTooltip(evt)" xlink:href="ESR1.svg">
<polygon fill="#3247ff" points="501.128,-315.664 471.128,-315.664 459.128,-303.664 459.128,-291.664 471.128,-279.664 501.128,-279.664 513.128,-291.664 513.128,-303.664 501.128,-315.664" stroke="#3247ff" stroke-width="2"/>
<path d="M471.128,-315.664C465.128,-315.664 459.128,-309.664 459.128,-303.664" fill="#3247ff" stroke="#3247ff" stroke-width="2"/>
<path d="M459.128,-291.664C459.128,-285.664 465.128,-279.664 471.128,-279.664" fill="#3247ff" stroke="#3247ff" stroke-width="2"/>
<path d="M501.128,-279.664C507.128,-279.664 513.128,-285.664 513.128,-291.664" fill="#3247ff" stroke="#3247ff" stroke-width="2"/>
<path d="M513.128,-303.664C513.128,-309.664 507.128,-315.664 501.128,-315.664" fill="#3247ff" stroke="#3247ff" stroke-width="2"/>
<polyline fill="none" points="501.128,-315.664 471.128,-315.664 " stroke="white" stroke-width="2"/>
<path d="M471.128,-315.664C465.128,-315.664 459.128,-309.664 459.128,-303.664" fill="none" stroke="white" stroke-width="2"/>
<polyline fill="none" points="459.128,-303.664 459.128,-291.664 " stroke="white" stroke-width="2"/>
<path d="M459.128,-291.664C459.128,-285.664 465.128,-279.664 471.128,-279.664" fill="none" stroke="white" stroke-width="2"/>
<polyline fill="none" points="471.128,-279.664 501.128,-279.664 " stroke="white" stroke-width="2"/>
<path d="M501.128,-279.664C507.128,-279.664 513.128,-285.664 513.128,-291.664" fill="none" stroke="white" stroke-width="2"/>
<polyline fill="none" points="513.128,-291.664 513.128,-303.664 " stroke="white" stroke-width="2"/>
<path d="M513.128,-303.664C513.128,-309.664 507.128,-315.664 501.128,-315.664" fill="none" stroke="white" stroke-width="2"/>
<text fill="white" font-family="Helvetica,sans-Serif" font-size="10.00" text-anchor="middle" x="486.128" y="-295.164">ESR1</text>
</a>
</g>
<!-- HLF_TEF -->
<g class="node" id="node2">
<a class="remove19" onmousemove="ShowTooltip(evt, 'Z-value: 0.505')" onmouseout="HideTooltip(evt)" xlink:href="HLF_TEF.svg">
<polygon fill="#c0c6ff" points="444.278,-418.028 409.778,-418.028 397.778,-406.028 397.778,-394.028 409.778,-382.028 444.278,-382.028 456.278,-394.028 456.278,-406.028 444.278,-418.028" stroke="#c0c6ff" stroke-width="2"/>
<path d="M409.778,-418.028C403.778,-418.028 397.778,-412.028 397.778,-406.028" fill="#c0c6ff" stroke="#c0c6ff" stroke-width="2"/>
<path d="M397.778,-394.028C397.778,-388.028 403.778,-382.028 409.778,-382.028" fill="#c0c6ff" stroke="#c0c6ff" stroke-width="2"/>
<path d="M444.278,-382.028C450.278,-382.028 456.278,-388.028 456.278,-394.028" fill="#c0c6ff" stroke="#c0c6ff" stroke-width="2"/>
<path d="M456.278,-406.028C456.278,-412.028 450.278,-418.028 444.278,-418.028" fill="#c0c6ff" stroke="#c0c6ff" stroke-width="2"/>
<polyline fill="none" points="444.278,-418.028 409.778,-418.028 " stroke="white" stroke-width="2"/>
<path d="M409.778,-418.028C403.778,-418.028 397.778,-412.028 397.778,-406.028" fill="none" stroke="white" stroke-width="2"/>
<polyline fill="none" points="397.778,-406.028 397.778,-394.028 " stroke="white" stroke-width="2"/>
<path d="M397.778,-394.028C397.778,-388.028 403.778,-382.028 409.778,-382.028" fill="none" stroke="white" stroke-width="2"/>
<polyline fill="none" points="409.778,-382.028 444.278,-382.028 " stroke="white" stroke-width="2"/>
<path d="M444.278,-382.028C450.278,-382.028 456.278,-388.028 456.278,-394.028" fill="none" stroke="white" stroke-width="2"/>
<polyline fill="none" points="456.278,-394.028 456.278,-406.028 " stroke="white" stroke-width="2"/>
<path d="M456.278,-406.028C456.278,-412.028 450.278,-418.028 444.278,-418.028" fill="none" stroke="white" stroke-width="2"/>
<text font-family="Helvetica,sans-Serif" font-size="10.00" text-anchor="middle" x="427.028" y="-397.528">HLF_TEF</text>
</a>
</g>
<!-- ESR1&#45;&gt;HLF_TEF -->
<g class="edge" id="edge2">
<a class="remove19" ismara:data="2.947" onmousemove="ShowTooltip(evt, 'TEF: 2.947')" onmouseout="HideTooltip(evt)">
<path d="M475.563,-315.965C466.15,-332.268 452.281,-356.29 441.776,-374.485" fill="none" stroke="#d47aff" stroke-width="3"/>
<polygon fill="#d47aff" points="439.078,-373.558 437.503,-381.886 443.928,-376.358 439.078,-373.558" stroke="#d47aff"/>
</a>
</g>
<!-- ESRRA_ESR2 -->
<g class="node" id="node4">
<a class="remove29" onmousemove="ShowTooltip(evt, 'Z-value: 3.814')" onmouseout="HideTooltip(evt)" xlink:href="ESRRA_ESR2.svg">
<polygon fill="#ff7373" points="294.814,-256.564 236.314,-256.564 224.314,-244.564 224.314,-232.564 236.314,-220.564 294.814,-220.564 306.814,-232.564 306.814,-244.564 294.814,-256.564" stroke="#ff7373" stroke-width="2"/>
<path d="M236.314,-256.564C230.314,-256.564 224.314,-250.564 224.314,-244.564" fill="#ff7373" stroke="#ff7373" stroke-width="2"/>
<path d="M224.314,-232.564C224.314,-226.564 230.314,-220.564 236.314,-220.564" fill="#ff7373" stroke="#ff7373" stroke-width="2"/>
<path d="M294.814,-220.564C300.814,-220.564 306.814,-226.564 306.814,-232.564" fill="#ff7373" stroke="#ff7373" stroke-width="2"/>
<path d="M306.814,-244.564C306.814,-250.564 300.814,-256.564 294.814,-256.564" fill="#ff7373" stroke="#ff7373" stroke-width="2"/>
<polyline fill="none" points="294.814,-256.564 236.314,-256.564 " stroke="white" stroke-width="2"/>
<path d="M236.314,-256.564C230.314,-256.564 224.314,-250.564 224.314,-244.564" fill="none" stroke="white" stroke-width="2"/>
<polyline fill="none" points="224.314,-244.564 224.314,-232.564 " stroke="white" stroke-width="2"/>
<path d="M224.314,-232.564C224.314,-226.564 230.314,-220.564 236.314,-220.564" fill="none" stroke="white" stroke-width="2"/>
<polyline fill="none" points="236.314,-220.564 294.814,-220.564 " stroke="white" stroke-width="2"/>
<path d="M294.814,-220.564C300.814,-220.564 306.814,-226.564 306.814,-232.564" fill="none" stroke="white" stroke-width="2"/>
<polyline fill="none" points="306.814,-232.564 306.814,-244.564 " stroke="white" stroke-width="2"/>
<path d="M306.814,-244.564C306.814,-250.564 300.814,-256.564 294.814,-256.564" fill="none" stroke="white" stroke-width="2"/>
<text font-family="Helvetica,sans-Serif" font-size="10.00" text-anchor="middle" x="265.564" y="-236.064">ESRRA_ESR2</text>
</a>
</g>
<!-- ESRRA_ESR2&#45;&gt;ESR1 -->
<g class="edge" id="edge16">
<a class="remove26 root" ismara:data="2.139" onmousemove="ShowTooltip(evt, 'ESR1: 2.139')" onmouseout="HideTooltip(evt)">
<path d="M307.31,-249.75C348.818,-260.872 411.788,-277.745 450.866,-288.216" fill="none" stroke="#ff9090" stroke-width="3"/>
<polygon fill="#ff9090" points="450.373,-290.982 458.825,-290.348 451.823,-285.573 450.373,-290.982" stroke="#ff9090"/>
</a>
</g>
<!-- ESRRA_ESR2&#45;&gt;HLF_TEF -->
<g class="edge" id="edge18">
<a class="remove19 root" ismara:data="1.345" onmousemove="ShowTooltip(evt, 'TEF: 1.345|HLF: 0.034')" onmouseout="HideTooltip(evt)">
<path d="M283.772,-256.772C312.966,-285.966 370.264,-343.264 402.854,-375.854" fill="none" stroke="#ffa6a6" stroke-width="3"/>
<polygon fill="#ffa6a6" points="401.002,-377.962 408.639,-381.639 404.962,-374.002 401.002,-377.962" stroke="#ffa6a6"/>
</a>
</g>
<!-- RXRA_NR2F6_NR2C2 -->
<g class="node" id="node5">
<a class="remove22" onmousemove="ShowTooltip(evt, 'Z-value: 0.563')" onmouseout="HideTooltip(evt)" xlink:href="RXRA_NR2F6_NR2C2.svg">
<polygon fill="#bec5ff" points="372.164,-477.128 277.164,-477.128 265.164,-465.128 265.164,-453.128 277.164,-441.128 372.164,-441.128 384.164,-453.128 384.164,-465.128 372.164,-477.128" stroke="#bec5ff" stroke-width="2"/>
<path d="M277.164,-477.128C271.164,-477.128 265.164,-471.128 265.164,-465.128" fill="#bec5ff" stroke="#bec5ff" stroke-width="2"/>
<path d="M265.164,-453.128C265.164,-447.128 271.164,-441.128 277.164,-441.128" fill="#bec5ff" stroke="#bec5ff" stroke-width="2"/>
<path d="M372.164,-441.128C378.164,-441.128 384.164,-447.128 384.164,-453.128" fill="#bec5ff" stroke="#bec5ff" stroke-width="2"/>
<path d="M384.164,-465.128C384.164,-471.128 378.164,-477.128 372.164,-477.128" fill="#bec5ff" stroke="#bec5ff" stroke-width="2"/>
<polyline fill="none" points="372.164,-477.128 277.164,-477.128 " stroke="white" stroke-width="2"/>
<path d="M277.164,-477.128C271.164,-477.128 265.164,-471.128 265.164,-465.128" fill="none" stroke="white" stroke-width="2"/>
<polyline fill="none" points="265.164,-465.128 265.164,-453.128 " stroke="white" stroke-width="2"/>
<path d="M265.164,-453.128C265.164,-447.128 271.164,-441.128 277.164,-441.128" fill="none" stroke="white" stroke-width="2"/>
<polyline fill="none" points="277.164,-441.128 372.164,-441.128 " stroke="white" stroke-width="2"/>
<path d="M372.164,-441.128C378.164,-441.128 384.164,-447.128 384.164,-453.128" fill="none" stroke="white" stroke-width="2"/>
<polyline fill="none" points="384.164,-453.128 384.164,-465.128 " stroke="white" stroke-width="2"/>
<path d="M384.164,-465.128C384.164,-471.128 378.164,-477.128 372.164,-477.128" fill="none" stroke="white" stroke-width="2"/>
<text font-family="Helvetica,sans-Serif" font-size="10.00" text-anchor="middle" x="324.664" y="-456.628">RXRA_NR2F6_NR2C2</text>
</a>
</g>
<!-- ESRRA_ESR2&#45;&gt;RXRA_NR2F6_NR2C2 -->
<g class="edge" id="edge4">
<a class="remove22 root" ismara:data="1.387" onmousemove="ShowTooltip(evt, 'RXRA: 1.387|NR2F6: 0.896|NR2C2: 0.129|ESRRA: 0.089')" onmouseout="HideTooltip(evt)">
<path d="M273.473,-264.218C284.817,-306.554 307.2,-390.088 318.6,-432.632" fill="none" stroke="#ffa5a5" stroke-width="3"/>
<path d="M271.542,-264.736C282.885,-307.071 305.268,-390.605 316.668,-433.15" fill="none" stroke="#c9ceff" stroke-width="3"/>
<polygon fill="#c9ceff" points="275.176,-263.617 270.401,-256.614 269.767,-265.066 275.176,-263.617" stroke="#c9ceff"/>
<polygon fill="#ffa5a5" points="314.986,-433.827 319.761,-440.829 320.395,-432.377 314.986,-433.827" stroke="#ffa5a5"/>
</a>
</g>
<!-- MAFF_MAFG -->
<g class="node" id="node7">
<a class="remove20" onmousemove="ShowTooltip(evt, 'Z-value: 0.422')" onmouseout="HideTooltip(evt)" xlink:href="MAFF_MAFG.svg">
<polygon fill="#c2c8ff" points="232.714,-477.128 180.214,-477.128 168.214,-465.128 168.214,-453.128 180.214,-441.128 232.714,-441.128 244.714,-453.128 244.714,-465.128 232.714,-477.128" stroke="#c2c8ff" stroke-width="2"/>
<path d="M180.214,-477.128C174.214,-477.128 168.214,-471.128 168.214,-465.128" fill="#c2c8ff" stroke="#c2c8ff" stroke-width="2"/>
<path d="M168.214,-453.128C168.214,-447.128 174.214,-441.128 180.214,-441.128" fill="#c2c8ff" stroke="#c2c8ff" stroke-width="2"/>
<path d="M232.714,-441.128C238.714,-441.128 244.714,-447.128 244.714,-453.128" fill="#c2c8ff" stroke="#c2c8ff" stroke-width="2"/>
<path d="M244.714,-465.128C244.714,-471.128 238.714,-477.128 232.714,-477.128" fill="#c2c8ff" stroke="#c2c8ff" stroke-width="2"/>
<polyline fill="none" points="232.714,-477.128 180.214,-477.128 " stroke="white" stroke-width="2"/>
<path d="M180.214,-477.128C174.214,-477.128 168.214,-471.128 168.214,-465.128" fill="none" stroke="white" stroke-width="2"/>
<polyline fill="none" points="168.214,-465.128 168.214,-453.128 " stroke="white" stroke-width="2"/>
<path d="M168.214,-453.128C168.214,-447.128 174.214,-441.128 180.214,-441.128" fill="none" stroke="white" stroke-width="2"/>
<polyline fill="none" points="180.214,-441.128 232.714,-441.128 " stroke="white" stroke-width="2"/>
<path d="M232.714,-441.128C238.714,-441.128 244.714,-447.128 244.714,-453.128" fill="none" stroke="white" stroke-width="2"/>
<polyline fill="none" points="244.714,-453.128 244.714,-465.128 " stroke="white" stroke-width="2"/>
<path d="M244.714,-465.128C244.714,-471.128 238.714,-477.128 232.714,-477.128" fill="none" stroke="white" stroke-width="2"/>
<text font-family="Helvetica,sans-Serif" font-size="10.00" text-anchor="middle" x="206.464" y="-456.628">MAFF_MAFG</text>
</a>
</g>
<!-- ESRRA_ESR2&#45;&gt;MAFF_MAFG -->
<g class="edge" id="edge6">
<a class="remove20 root" ismara:data="1.347" onmousemove="ShowTooltip(evt, 'MAFF: 1.347')" onmouseout="HideTooltip(evt)">
<path d="M260.728,-256.614C250.295,-295.55 225.638,-387.57 213.485,-432.927" fill="none" stroke="#ffa6a6" stroke-width="3"/>
<polygon fill="#ffa6a6" points="210.733,-432.377 211.367,-440.829 216.143,-433.827 210.733,-432.377" stroke="#ffa6a6"/>
</a>
</g>
<!-- ERG -->
<g class="node" id="node9">
<a class="remove18" onmousemove="ShowTooltip(evt, 'Z-value: 0.660')" onmouseout="HideTooltip(evt)" xlink:href="ERG.svg">
<polygon fill="#bcc3ff" points="119.1,-418.028 89.1,-418.028 77.1,-406.028 77.1,-394.028 89.1,-382.028 119.1,-382.028 131.1,-394.028 131.1,-406.028 119.1,-418.028" stroke="#bcc3ff" stroke-width="2"/>
<path d="M89.1,-418.028C83.1,-418.028 77.1,-412.028 77.1,-406.028" fill="#bcc3ff" stroke="#bcc3ff" stroke-width="2"/>
<path d="M77.1,-394.028C77.1,-388.028 83.1,-382.028 89.1,-382.028" fill="#bcc3ff" stroke="#bcc3ff" stroke-width="2"/>
<path d="M119.1,-382.028C125.1,-382.028 131.1,-388.028 131.1,-394.028" fill="#bcc3ff" stroke="#bcc3ff" stroke-width="2"/>
<path d="M131.1,-406.028C131.1,-412.028 125.1,-418.028 119.1,-418.028" fill="#bcc3ff" stroke="#bcc3ff" stroke-width="2"/>
<polyline fill="none" points="119.1,-418.028 89.1,-418.028 " stroke="white" stroke-width="2"/>
<path d="M89.1,-418.028C83.1,-418.028 77.1,-412.028 77.1,-406.028" fill="none" stroke="white" stroke-width="2"/>
<polyline fill="none" points="77.1,-406.028 77.1,-394.028 " stroke="white" stroke-width="2"/>
<path d="M77.1,-394.028C77.1,-388.028 83.1,-382.028 89.1,-382.028" fill="none" stroke="white" stroke-width="2"/>
<polyline fill="none" points="89.1,-382.028 119.1,-382.028 " stroke="white" stroke-width="2"/>
<path d="M119.1,-382.028C125.1,-382.028 131.1,-388.028 131.1,-394.028" fill="none" stroke="white" stroke-width="2"/>
<polyline fill="none" points="131.1,-394.028 131.1,-406.028 " stroke="white" stroke-width="2"/>
<path d="M131.1,-406.028C131.1,-412.028 125.1,-418.028 119.1,-418.028" fill="none" stroke="white" stroke-width="2"/>
<text font-family="Helvetica,sans-Serif" font-size="10.00" text-anchor="middle" x="104.1" y="-397.528">ERG</text>
</a>
</g>
<!-- ESRRA_ESR2&#45;&gt;ERG -->
<g class="edge" id="edge8">
<a class="remove18 root" ismara:data="1.344" onmousemove="ShowTooltip(evt, 'ERG: 1.344')" onmouseout="HideTooltip(evt)">
<path d="M247.356,-256.772C218.163,-285.966 160.864,-343.264 128.275,-375.854" fill="none" stroke="#ffa6a6" stroke-width="3"/>
<polygon fill="#ffa6a6" points="126.166,-374.002 122.489,-381.639 130.126,-377.962 126.166,-374.002" stroke="#ffa6a6"/>
</a>
</g>
<!-- HOXC6_HOXA7 -->
<g class="node" id="node11">
<a class="remove23" onmousemove="ShowTooltip(evt, 'Z-value: 0.413')" onmouseout="HideTooltip(evt)" xlink:href="HOXC6_HOXA7.svg">
<polygon fill="#c2c8ff" points="78,-315.664 12,-315.664 2.84217e-14,-303.664 2.84217e-14,-291.664 12,-279.664 78,-279.664 90,-291.664 90,-303.664 78,-315.664" stroke="#c2c8ff" stroke-width="2"/>
<path d="M12,-315.664C6,-315.664 2.84217e-14,-309.664 2.84217e-14,-303.664" fill="#c2c8ff" stroke="#c2c8ff" stroke-width="2"/>
<path d="M2.84217e-14,-291.664C2.84217e-14,-285.664 6,-279.664 12,-279.664" fill="#c2c8ff" stroke="#c2c8ff" stroke-width="2"/>
<path d="M78,-279.664C84,-279.664 90,-285.664 90,-291.664" fill="#c2c8ff" stroke="#c2c8ff" stroke-width="2"/>
<path d="M90,-303.664C90,-309.664 84,-315.664 78,-315.664" fill="#c2c8ff" stroke="#c2c8ff" stroke-width="2"/>
<polyline fill="none" points="78,-315.664 12,-315.664 " stroke="white" stroke-width="2"/>
<path d="M12,-315.664C6,-315.664 2.84217e-14,-309.664 2.84217e-14,-303.664" fill="none" stroke="white" stroke-width="2"/>
<polyline fill="none" points="2.84217e-14,-303.664 2.84217e-14,-291.664 " stroke="white" stroke-width="2"/>
<path d="M2.84217e-14,-291.664C2.84217e-14,-285.664 6,-279.664 12,-279.664" fill="none" stroke="white" stroke-width="2"/>
<polyline fill="none" points="12,-279.664 78,-279.664 " stroke="white" stroke-width="2"/>
<path d="M78,-279.664C84,-279.664 90,-285.664 90,-291.664" fill="none" stroke="white" stroke-width="2"/>
<polyline fill="none" points="90,-291.664 90,-303.664 " stroke="white" stroke-width="2"/>
<path d="M90,-303.664C90,-309.664 84,-315.664 78,-315.664" fill="none" stroke="white" stroke-width="2"/>
<text font-family="Helvetica,sans-Serif" font-size="10.00" text-anchor="middle" x="45" y="-295.164">HOXC6_HOXA7</text>
</a>
</g>
<!-- ESRRA_ESR2&#45;&gt;HOXC6_HOXA7 -->
<g class="edge" id="edge10">
<a class="remove23 root" ismara:data="1.718" onmousemove="ShowTooltip(evt, 'HOXC6: 1.718')" onmouseout="HideTooltip(evt)">
<path d="M224.078,-249.68C188.428,-259.233 136.809,-273.064 98.1404,-283.425" fill="none" stroke="#ff9c9c" stroke-width="3"/>
<polygon fill="#ff9c9c" points="97.0986,-280.806 90.0959,-285.581 98.548,-286.215 97.0986,-280.806" stroke="#ff9c9c"/>
</a>
</g>
<!-- SMAD3 -->
<g class="node" id="node13">
<a class="remove27" onmousemove="ShowTooltip(evt, 'Z-value: 0.374')" onmouseout="HideTooltip(evt)" xlink:href="SMAD3.svg">
<polygon fill="#c3c9ff" points="60,-197.464 30,-197.464 18,-185.464 18,-173.464 30,-161.464 60,-161.464 72,-173.464 72,-185.464 60,-197.464" stroke="#c3c9ff" stroke-width="2"/>
<path d="M30,-197.464C24,-197.464 18,-191.464 18,-185.464" fill="#c3c9ff" stroke="#c3c9ff" stroke-width="2"/>
<path d="M18,-173.464C18,-167.464 24,-161.464 30,-161.464" fill="#c3c9ff" stroke="#c3c9ff" stroke-width="2"/>
<path d="M60,-161.464C66,-161.464 72,-167.464 72,-173.464" fill="#c3c9ff" stroke="#c3c9ff" stroke-width="2"/>
<path d="M72,-185.464C72,-191.464 66,-197.464 60,-197.464" fill="#c3c9ff" stroke="#c3c9ff" stroke-width="2"/>
<polyline fill="none" points="60,-197.464 30,-197.464 " stroke="white" stroke-width="2"/>
<path d="M30,-197.464C24,-197.464 18,-191.464 18,-185.464" fill="none" stroke="white" stroke-width="2"/>
<polyline fill="none" points="18,-185.464 18,-173.464 " stroke="white" stroke-width="2"/>
<path d="M18,-173.464C18,-167.464 24,-161.464 30,-161.464" fill="none" stroke="white" stroke-width="2"/>
<polyline fill="none" points="30,-161.464 60,-161.464 " stroke="white" stroke-width="2"/>
<path d="M60,-161.464C66,-161.464 72,-167.464 72,-173.464" fill="none" stroke="white" stroke-width="2"/>
<polyline fill="none" points="72,-173.464 72,-185.464 " stroke="white" stroke-width="2"/>
<path d="M72,-185.464C72,-191.464 66,-197.464 60,-197.464" fill="none" stroke="white" stroke-width="2"/>
<text font-family="Helvetica,sans-Serif" font-size="10.00" text-anchor="middle" x="45" y="-176.964">SMAD3</text>
</a>
</g>
<!-- ESRRA_ESR2&#45;&gt;SMAD3 -->
<g class="edge" id="edge12">
<a class="remove27 root" ismara:data="2.777" onmousemove="ShowTooltip(evt, 'SMAD3: 2.777')" onmouseout="HideTooltip(evt)">
<path d="M224.078,-227.448C182.486,-216.304 119.159,-199.335 80.0191,-188.848" fill="none" stroke="#ff7f7f" stroke-width="3"/>
<polygon fill="#ff7f7f" points="80.5028,-186.078 72.0507,-186.712 79.0534,-191.488 80.5028,-186.078" stroke="#ff7f7f"/>
</a>
</g>
<!-- BATF -->
<g class="node" id="node15">
<a class="remove25" onmousemove="ShowTooltip(evt, 'Z-value: 1.213')" onmouseout="HideTooltip(evt)" xlink:href="BATF.svg">
<polygon fill="#afb7ff" points="119.1,-95.1 89.1,-95.1 77.1,-83.1 77.1,-71.1 89.1,-59.1 119.1,-59.1 131.1,-71.1 131.1,-83.1 119.1,-95.1" stroke="#afb7ff" stroke-width="2"/>
<path d="M89.1,-95.1C83.1,-95.1 77.1,-89.1 77.1,-83.1" fill="#afb7ff" stroke="#afb7ff" stroke-width="2"/>
<path d="M77.1,-71.1C77.1,-65.1 83.1,-59.1 89.1,-59.1" fill="#afb7ff" stroke="#afb7ff" stroke-width="2"/>
<path d="M119.1,-59.1C125.1,-59.1 131.1,-65.1 131.1,-71.1" fill="#afb7ff" stroke="#afb7ff" stroke-width="2"/>
<path d="M131.1,-83.1C131.1,-89.1 125.1,-95.1 119.1,-95.1" fill="#afb7ff" stroke="#afb7ff" stroke-width="2"/>
<polyline fill="none" points="119.1,-95.1 89.1,-95.1 " stroke="white" stroke-width="2"/>
<path d="M89.1,-95.1C83.1,-95.1 77.1,-89.1 77.1,-83.1" fill="none" stroke="white" stroke-width="2"/>
<polyline fill="none" points="77.1,-83.1 77.1,-71.1 " stroke="white" stroke-width="2"/>
<path d="M77.1,-71.1C77.1,-65.1 83.1,-59.1 89.1,-59.1" fill="none" stroke="white" stroke-width="2"/>
<polyline fill="none" points="89.1,-59.1 119.1,-59.1 " stroke="white" stroke-width="2"/>
<path d="M119.1,-59.1C125.1,-59.1 131.1,-65.1 131.1,-71.1" fill="none" stroke="white" stroke-width="2"/>
<polyline fill="none" points="131.1,-71.1 131.1,-83.1 " stroke="white" stroke-width="2"/>
<path d="M131.1,-83.1C131.1,-89.1 125.1,-95.1 119.1,-95.1" fill="none" stroke="white" stroke-width="2"/>
<text font-family="Helvetica,sans-Serif" font-size="10.00" text-anchor="middle" x="104.1" y="-74.6">BATF</text>
</a>
</g>
<!-- ESRRA_ESR2&#45;&gt;BATF -->
<g class="edge" id="edge14">
<a class="remove25 root" ismara:data="2.037" onmousemove="ShowTooltip(evt, 'BATF: 2.037')" onmouseout="HideTooltip(evt)">
<path d="M247.356,-220.356C218.163,-191.163 160.864,-133.864 128.275,-101.275" fill="none" stroke="#ff9393" stroke-width="3"/>
<polygon fill="#ff9393" points="130.126,-99.1663 122.489,-95.4893 126.166,-103.126 130.126,-99.1663" stroke="#ff9393"/>
</a>
</g>
<!-- ARID5B -->
<g class="node" id="node19">
<a class="remove24" onmousemove="ShowTooltip(evt, 'Z-value: 0.249')" onmouseout="HideTooltip(evt)" xlink:href="ARID5B.svg">
<polygon fill="#c6cbff" points="221.464,-36 191.464,-36 179.464,-24 179.464,-12 191.464,-6.39488e-14 221.464,-6.39488e-14 233.464,-12 233.464,-24 221.464,-36" stroke="#c6cbff" stroke-width="2"/>
<path d="M191.464,-36C185.464,-36 179.464,-30 179.464,-24" fill="#c6cbff" stroke="#c6cbff" stroke-width="2"/>
<path d="M179.464,-12C179.464,-6 185.464,-6.39488e-14 191.464,-6.39488e-14" fill="#c6cbff" stroke="#c6cbff" stroke-width="2"/>
<path d="M221.464,-6.39488e-14C227.464,-6.39488e-14 233.464,-6 233.464,-12" fill="#c6cbff" stroke="#c6cbff" stroke-width="2"/>
<path d="M233.464,-24C233.464,-30 227.464,-36 221.464,-36" fill="#c6cbff" stroke="#c6cbff" stroke-width="2"/>
<polyline fill="none" points="221.464,-36 191.464,-36 " stroke="white" stroke-width="2"/>
<path d="M191.464,-36C185.464,-36 179.464,-30 179.464,-24" fill="none" stroke="white" stroke-width="2"/>
<polyline fill="none" points="179.464,-24 179.464,-12 " stroke="white" stroke-width="2"/>
<path d="M179.464,-12C179.464,-6 185.464,-6.39488e-14 191.464,-6.39488e-14" fill="none" stroke="white" stroke-width="2"/>
<polyline fill="none" points="191.464,-6.39488e-14 221.464,-6.39488e-14 " stroke="white" stroke-width="2"/>
<path d="M221.464,-6.39488e-14C227.464,-6.39488e-14 233.464,-6 233.464,-12" fill="none" stroke="white" stroke-width="2"/>
<polyline fill="none" points="233.464,-12 233.464,-24 " stroke="white" stroke-width="2"/>
<path d="M233.464,-24C233.464,-30 227.464,-36 221.464,-36" fill="none" stroke="white" stroke-width="2"/>
<text font-family="Helvetica,sans-Serif" font-size="10.00" text-anchor="middle" x="206.464" y="-15.5">ARID5B</text>
</a>
</g>
<!-- ESRRA_ESR2&#45;&gt;ARID5B -->
<g class="edge" id="edge20">
<a class="remove24 root" ismara:data="1.856" onmousemove="ShowTooltip(evt, 'ARID5B: 1.856')" onmouseout="HideTooltip(evt)">
<path d="M260.728,-220.515C250.295,-181.578 225.638,-89.5588 213.485,-44.2019" fill="none" stroke="#ff9898" stroke-width="3"/>
<polygon fill="#ff9898" points="216.143,-43.3018 211.367,-36.2991 210.733,-44.7512 216.143,-43.3018" stroke="#ff9898"/>
</a>
</g>
<!-- EPAS1_BCL3 -->
<g class="node" id="node21">
<a class="remove28" onmousemove="ShowTooltip(evt, 'Z-value: 0.784')" onmouseout="HideTooltip(evt)" xlink:href="EPAS1_BCL3.svg">
<polygon fill="#b9c0ff" points="351.914,-36 297.414,-36 285.414,-24 285.414,-12 297.414,3.19744e-14 351.914,3.19744e-14 363.914,-12 363.914,-24 351.914,-36" stroke="#b9c0ff" stroke-width="2"/>
<path d="M297.414,-36C291.414,-36 285.414,-30 285.414,-24" fill="#b9c0ff" stroke="#b9c0ff" stroke-width="2"/>
<path d="M285.414,-12C285.414,-6 291.414,3.19744e-14 297.414,3.19744e-14" fill="#b9c0ff" stroke="#b9c0ff" stroke-width="2"/>
<path d="M351.914,3.19744e-14C357.914,3.19744e-14 363.914,-6 363.914,-12" fill="#b9c0ff" stroke="#b9c0ff" stroke-width="2"/>
<path d="M363.914,-24C363.914,-30 357.914,-36 351.914,-36" fill="#b9c0ff" stroke="#b9c0ff" stroke-width="2"/>
<polyline fill="none" points="351.914,-36 297.414,-36 " stroke="white" stroke-width="2"/>
<path d="M297.414,-36C291.414,-36 285.414,-30 285.414,-24" fill="none" stroke="white" stroke-width="2"/>
<polyline fill="none" points="285.414,-24 285.414,-12 " stroke="white" stroke-width="2"/>
<path d="M285.414,-12C285.414,-6 291.414,3.19744e-14 297.414,3.19744e-14" fill="none" stroke="white" stroke-width="2"/>
<polyline fill="none" points="297.414,3.19744e-14 351.914,3.19744e-14 " stroke="white" stroke-width="2"/>
<path d="M351.914,3.19744e-14C357.914,3.19744e-14 363.914,-6 363.914,-12" fill="none" stroke="white" stroke-width="2"/>
<polyline fill="none" points="363.914,-12 363.914,-24 " stroke="white" stroke-width="2"/>
<path d="M363.914,-24C363.914,-30 357.914,-36 351.914,-36" fill="none" stroke="white" stroke-width="2"/>
<text font-family="Helvetica,sans-Serif" font-size="10.00" text-anchor="middle" x="324.664" y="-15.5">EPAS1_BCL3</text>
</a>
</g>
<!-- ESRRA_ESR2&#45;&gt;EPAS1_BCL3 -->
<g class="edge" id="edge22">
<a class="remove28 root" ismara:data="5.526" onmousemove="ShowTooltip(evt, 'BCL3: 5.526|ESRRA: 0.041')" onmouseout="HideTooltip(evt)">
<path d="M271.542,-212.393C282.885,-170.057 305.268,-86.5232 316.668,-43.9784" fill="none" stroke="#ff3232" stroke-width="3"/>
<path d="M273.473,-212.91C284.817,-170.575 307.2,-87.0408 318.6,-44.496" fill="none" stroke="#cad0ff" stroke-width="3"/>
<polygon fill="#cad0ff" points="269.767,-212.062 270.401,-220.515 275.176,-213.512 269.767,-212.062" stroke="#cad0ff"/>
<polygon fill="#ff3232" points="320.395,-44.7512 319.761,-36.2991 314.986,-43.3018 320.395,-44.7512" stroke="#ff3232"/>
</a>
</g>
<!-- TWIST1_SNAI1 -->
<g class="node" id="node23">
<a class="remove17" onmousemove="ShowTooltip(evt, 'Z-value: 0.616')" onmouseout="HideTooltip(evt)" xlink:href="TWIST1_SNAI1.svg">
<polygon fill="#bdc4ff" points="458.528,-95.1 395.528,-95.1 383.528,-83.1 383.528,-71.1 395.528,-59.1 458.528,-59.1 470.528,-71.1 470.528,-83.1 458.528,-95.1" stroke="#bdc4ff" stroke-width="2"/>
<path d="M395.528,-95.1C389.528,-95.1 383.528,-89.1 383.528,-83.1" fill="#bdc4ff" stroke="#bdc4ff" stroke-width="2"/>
<path d="M383.528,-71.1C383.528,-65.1 389.528,-59.1 395.528,-59.1" fill="#bdc4ff" stroke="#bdc4ff" stroke-width="2"/>
<path d="M458.528,-59.1C464.528,-59.1 470.528,-65.1 470.528,-71.1" fill="#bdc4ff" stroke="#bdc4ff" stroke-width="2"/>
<path d="M470.528,-83.1C470.528,-89.1 464.528,-95.1 458.528,-95.1" fill="#bdc4ff" stroke="#bdc4ff" stroke-width="2"/>
<polyline fill="none" points="458.528,-95.1 395.528,-95.1 " stroke="white" stroke-width="2"/>
<path d="M395.528,-95.1C389.528,-95.1 383.528,-89.1 383.528,-83.1" fill="none" stroke="white" stroke-width="2"/>
<polyline fill="none" points="383.528,-83.1 383.528,-71.1 " stroke="white" stroke-width="2"/>
<path d="M383.528,-71.1C383.528,-65.1 389.528,-59.1 395.528,-59.1" fill="none" stroke="white" stroke-width="2"/>
<polyline fill="none" points="395.528,-59.1 458.528,-59.1 " stroke="white" stroke-width="2"/>
<path d="M458.528,-59.1C464.528,-59.1 470.528,-65.1 470.528,-71.1" fill="none" stroke="white" stroke-width="2"/>
<polyline fill="none" points="470.528,-71.1 470.528,-83.1 " stroke="white" stroke-width="2"/>
<path d="M470.528,-83.1C470.528,-89.1 464.528,-95.1 458.528,-95.1" fill="none" stroke="white" stroke-width="2"/>
<text font-family="Helvetica,sans-Serif" font-size="10.00" text-anchor="middle" x="427.028" y="-74.6">TWIST1_SNAI1</text>
</a>
</g>
<!-- ESRRA_ESR2&#45;&gt;TWIST1_SNAI1 -->
<g class="edge" id="edge24">
<a class="remove17 root" ismara:data="1.324" onmousemove="ShowTooltip(evt, 'SNAI1: 1.324')" onmouseout="HideTooltip(evt)">
<path d="M283.772,-220.356C312.966,-191.163 370.264,-133.864 402.854,-101.275" fill="none" stroke="#ffa7a7" stroke-width="3"/>
<polygon fill="#ffa7a7" points="404.962,-103.126 408.639,-95.4893 401.002,-99.1663 404.962,-103.126" stroke="#ffa7a7"/>
</a>
</g>
<!-- RXRA_NR2F6_NR2C2&#45;&gt;RXRA_NR2F6_NR2C2 -->
<g class="edge" id="edge42">
<a class="remove2 root" ismara:data="0.058" onmousemove="ShowTooltip(evt, 'NR2F6: 0.058|NR2C2: 0.022')" onmouseout="HideTooltip(evt)">
<path d="M384.392,-465.43C394.595,-464.569 401.664,-462.468 401.664,-459.128 401.664,-456.78 398.169,-455.045 392.547,-453.922" fill="none" stroke="#eecaff" stroke-width="3"/>
<polygon fill="#eecaff" points="392.693,-451.116 384.392,-452.827 391.948,-456.666 392.693,-451.116" stroke="#eecaff"/>
</a>
</g>
<!-- MAFF_MAFG&#45;&gt;RXRA_NR2F6_NR2C2 -->
<g class="edge" id="edge44">
<a class="remove0 root" ismara:data="0.006" onmousemove="ShowTooltip(evt, 'NR2C2: 0.006')" onmouseout="HideTooltip(evt)">
<path d="M244.84,-459.128C248.784,-459.128 252.868,-459.128 257.01,-459.128" fill="none" stroke="#eecbff" stroke-width="3"/>
<polygon fill="#eecbff" points="257.023,-461.929 265.023,-459.128 257.023,-456.329 257.023,-461.929" stroke="#eecbff"/>
</a>
</g>
<!-- MAFF_MAFG&#45;&gt;MAFF_MAFG -->
<g class="edge" id="edge46">
<a class="remove10 root" ismara:data="0.159" onmousemove="ShowTooltip(evt, 'MAFG: 0.159')" onmouseout="HideTooltip(evt)">
<path d="M244.939,-465.809C254.93,-465.398 262.464,-463.171 262.464,-459.128 262.464,-456.286 258.74,-454.341 253.055,-453.294" fill="none" stroke="#edc7ff" stroke-width="3"/>
<polygon fill="#edc7ff" points="253.187,-450.493 244.939,-452.448 252.606,-456.062 253.187,-450.493" stroke="#edc7ff"/>
</a>
</g>
<!-- SP3 -->
<g class="node" id="node28">
<a class="remove21" onmousemove="ShowTooltip(evt, 'Z-value: 1.634')" onmouseout="HideTooltip(evt)" xlink:href="SP3.svg">
<polygon fill="#a6aeff" points="501.128,-197.464 471.128,-197.464 459.128,-185.464 459.128,-173.464 471.128,-161.464 501.128,-161.464 513.128,-173.464 513.128,-185.464 501.128,-197.464" stroke="#a6aeff" stroke-width="2"/>
<path d="M471.128,-197.464C465.128,-197.464 459.128,-191.464 459.128,-185.464" fill="#a6aeff" stroke="#a6aeff" stroke-width="2"/>
<path d="M459.128,-173.464C459.128,-167.464 465.128,-161.464 471.128,-161.464" fill="#a6aeff" stroke="#a6aeff" stroke-width="2"/>
<path d="M501.128,-161.464C507.128,-161.464 513.128,-167.464 513.128,-173.464" fill="#a6aeff" stroke="#a6aeff" stroke-width="2"/>
<path d="M513.128,-185.464C513.128,-191.464 507.128,-197.464 501.128,-197.464" fill="#a6aeff" stroke="#a6aeff" stroke-width="2"/>
<polyline fill="none" points="501.128,-197.464 471.128,-197.464 " stroke="white" stroke-width="2"/>
<path d="M471.128,-197.464C465.128,-197.464 459.128,-191.464 459.128,-185.464" fill="none" stroke="white" stroke-width="2"/>
<polyline fill="none" points="459.128,-185.464 459.128,-173.464 " stroke="white" stroke-width="2"/>
<path d="M459.128,-173.464C459.128,-167.464 465.128,-161.464 471.128,-161.464" fill="none" stroke="white" stroke-width="2"/>
<polyline fill="none" points="471.128,-161.464 501.128,-161.464 " stroke="white" stroke-width="2"/>
<path d="M501.128,-161.464C507.128,-161.464 513.128,-167.464 513.128,-173.464" fill="none" stroke="white" stroke-width="2"/>
<polyline fill="none" points="513.128,-173.464 513.128,-185.464 " stroke="white" stroke-width="2"/>
<path d="M513.128,-185.464C513.128,-191.464 507.128,-197.464 501.128,-197.464" fill="none" stroke="white" stroke-width="2"/>
<text font-family="Helvetica,sans-Serif" font-size="10.00" text-anchor="middle" x="486.128" y="-176.964">SP3</text>
</a>
</g>
<!-- MAFF_MAFG&#45;&gt;SP3 -->
<g class="edge" id="edge48">
<a class="remove9 root" ismara:data="0.141" onmousemove="ShowTooltip(evt, 'SP3: 0.041|MAFF: 0.141')" onmouseout="HideTooltip(evt)">
<path d="M229.794,-434.384C282.734,-381.444 408.871,-255.307 461.606,-202.572" fill="none" stroke="#eecaff" stroke-width="3"/>
<path d="M231.208,-435.798C284.149,-382.858 410.285,-256.721 463.02,-203.987" fill="none" stroke="#edc8ff" stroke-width="3"/>
<polygon fill="#edc8ff" points="228.491,-433.142 224.814,-440.779 232.451,-437.102 228.491,-433.142" stroke="#edc8ff"/>
<polygon fill="#eecaff" points="464.398,-205.155 468.075,-197.518 460.438,-201.195 464.398,-205.155" stroke="#eecaff"/>
</a>
</g>
<!-- ERG&#45;&gt;MAFF_MAFG -->
<g class="edge" id="edge34">
<a class="remove6 root" ismara:data="0.102" onmousemove="ShowTooltip(evt, 'MAFF: 0.102')" onmouseout="HideTooltip(evt)">
<path d="M131.263,-415.711C142.552,-422.229 155.857,-429.91 168.113,-436.986" fill="none" stroke="#edc9ff" stroke-width="3"/>
<polygon fill="#edc9ff" points="166.856,-439.494 175.184,-441.069 169.656,-434.644 166.856,-439.494" stroke="#edc9ff"/>
</a>
</g>
<!-- ERG&#45;&gt;HOXC6_HOXA7 -->
<g class="edge" id="edge36">
<a class="remove8 root" ismara:data="0.125" onmousemove="ShowTooltip(evt, 'HOXC6: 0.125')" onmouseout="HideTooltip(evt)">
<path d="M93.5341,-381.728C84.1214,-365.425 70.2522,-341.402 59.7476,-323.208" fill="none" stroke="#edc8ff" stroke-width="3"/>
<polygon fill="#edc8ff" points="61.8993,-321.335 55.4744,-315.806 57.0496,-324.135 61.8993,-321.335" stroke="#edc8ff"/>
</a>
</g>
<!-- ERG&#45;&gt;BATF -->
<g class="edge" id="edge38">
<a class="remove12 root" ismara:data="0.476" onmousemove="ShowTooltip(evt, 'BATF: 0.476')" onmouseout="HideTooltip(evt)">
<path d="M104.1,-381.741C104.1,-327.456 104.1,-167.073 104.1,-103.494" fill="none" stroke="#eabeff" stroke-width="3"/>
<polygon fill="#eabeff" points="106.9,-103.187 104.1,-95.1867 101.3,-103.187 106.9,-103.187" stroke="#eabeff"/>
</a>
</g>
<!-- HOXC6_HOXA7&#45;&gt;ESR1 -->
<g class="edge" id="edge52">
<a class="remove1 root" ismara:data="0.049" onmousemove="ShowTooltip(evt, 'ESR1: 0.049')" onmouseout="HideTooltip(evt)">
<path d="M90.1354,-297.664C178.166,-297.664 371.117,-297.664 450.714,-297.664" fill="none" stroke="#eecaff" stroke-width="3"/>
<polygon fill="#eecaff" points="450.953,-300.464 458.953,-297.664 450.953,-294.864 450.953,-300.464" stroke="#eecaff"/>
</a>
</g>
<!-- HOXC6_HOXA7&#45;&gt;SMAD3 -->
<g class="edge" id="edge50">
<a class="remove3 root" ismara:data="0.064" onmousemove="ShowTooltip(evt, 'SMAD3: 0.064')" onmouseout="HideTooltip(evt)">
<path d="M45,-279.455C45,-259.701 45,-227.995 45,-205.588" fill="none" stroke="#eecaff" stroke-width="3"/>
<polygon fill="#eecaff" points="47.8001,-205.501 45,-197.501 42.2001,-205.501 47.8001,-205.501" stroke="#eecaff"/>
</a>
</g>
<!-- BATF&#45;&gt;MAFF_MAFG -->
<g class="edge" id="edge26">
<a class="remove11 root" ismara:data="0.311" onmousemove="ShowTooltip(evt, 'MAFF: 0.311')" onmouseout="HideTooltip(evt)">
<path d="M108.968,-95.269C125.572,-157.236 180.022,-360.445 199.477,-433.051" fill="none" stroke="#ebc3ff" stroke-width="3"/>
<polygon fill="#ebc3ff" points="196.791,-433.845 201.566,-440.848 202.2,-432.396 196.791,-433.845" stroke="#ebc3ff"/>
</a>
</g>
<!-- BATF&#45;&gt;SMAD3 -->
<g class="edge" id="edge28">
<a class="remove16 root" ismara:data="0.881" onmousemove="ShowTooltip(evt, 'SMAD3: 0.881')" onmouseout="HideTooltip(evt)">
<path d="M93.5341,-95.4007C84.1214,-111.704 70.2522,-135.726 59.7476,-153.921" fill="none" stroke="#e6b3ff" stroke-width="3"/>
<polygon fill="#e6b3ff" points="57.0496,-152.994 55.4744,-161.322 61.8993,-155.794 57.0496,-152.994" stroke="#e6b3ff"/>
</a>
</g>
<!-- BATF&#45;&gt;EPAS1_BCL3 -->
<g class="edge" id="edge30">
<a class="remove4 root" ismara:data="0.071" onmousemove="ShowTooltip(evt, 'BCL3: 0.071')" onmouseout="HideTooltip(evt)">
<path d="M131.146,-69.8532C167.499,-60.1123 232.702,-42.6412 277.291,-30.6937" fill="none" stroke="#eecaff" stroke-width="3"/>
<polygon fill="#eecaff" points="278.086,-33.3795 285.089,-28.6043 276.636,-27.9703 278.086,-33.3795" stroke="#eecaff"/>
</a>
</g>
<!-- ARID5B&#45;&gt;HOXC6_HOXA7 -->
<g class="edge" id="edge54">
<a class="remove7 root" ismara:data="0.117" onmousemove="ShowTooltip(evt, 'HOXC6: 0.117')" onmouseout="HideTooltip(evt)">
<path d="M195.87,-36.3496C167.804,-84.9619 91.4936,-217.135 59.4616,-272.616" fill="none" stroke="#edc8ff" stroke-width="3"/>
<polygon fill="#edc8ff" points="56.9984,-271.282 55.4232,-279.611 61.8481,-274.082 56.9984,-271.282" stroke="#edc8ff"/>
</a>
</g>
<!-- EPAS1_BCL3&#45;&gt;SP3 -->
<g class="edge" id="edge32">
<a class="remove21" ismara:data="1.407" onmousemove="ShowTooltip(evt, 'SP3: 0.055|BCL3: 1.407|EPAS1: 0.059')" onmouseout="HideTooltip(evt)">
<path d="M338.66,-42.9022C347.949,-59.4688 361.488,-81.0464 376.719,-97.2968 399.106,-121.25 429.54,-143.15 452.667,-158.138" fill="none" stroke="#eecaff" stroke-width="3"/>
<path d="M336.915,-43.8805C346.255,-60.5318 359.794,-82.1094 375.258,-98.6632 397.938,-122.874 428.372,-144.773 451.579,-159.817" fill="none" stroke="#e2a5ff" stroke-width="3"/>
<polygon fill="#e2a5ff" points="340.116,-41.8143 333.814,-36.1463 335.206,-44.5071 340.116,-41.8143" stroke="#e2a5ff"/>
<polygon fill="#eecaff" points="450.813,-161.464 459.062,-163.412 453.828,-156.745 450.813,-161.464" stroke="#eecaff"/>
</a>
</g>
<!-- TWIST1_SNAI1&#45;&gt;ERG -->
<g class="edge" id="edge40">
<a class="remove5 root" ismara:data="0.097" onmousemove="ShowTooltip(evt, 'ERG: 0.097')" onmouseout="HideTooltip(evt)">
<path d="M419.022,-95.1226C402.914,-129.937 363.809,-207.568 313.704,-259.444 260.757,-314.263 182.997,-359.489 138.584,-382.851" fill="none" stroke="#edc9ff" stroke-width="3"/>
<polygon fill="#edc9ff" points="137.025,-380.506 131.222,-386.684 139.611,-385.473 137.025,-380.506" stroke="#edc9ff"/>
</a>
</g>
<!-- SP3&#45;&gt;ESR1 -->
<g class="edge" id="edge64">
<a class="remove14 root" ismara:data="0.716" onmousemove="ShowTooltip(evt, 'ESR1: 0.716')" onmouseout="HideTooltip(evt)">
<path d="M486.128,-197.674C486.128,-217.427 486.128,-249.134 486.128,-271.54" fill="none" stroke="#e8b8ff" stroke-width="3"/>
<polygon fill="#e8b8ff" points="483.329,-271.628 486.128,-279.628 488.929,-271.628 483.329,-271.628" stroke="#e8b8ff"/>
</a>
</g>
<!-- SP3&#45;&gt;HLF_TEF -->
<g class="edge" id="edge66">
<a class="remove19" ismara:data="1.349" onmousemove="ShowTooltip(evt, 'TEF: 1.349|HLF: 0.094')" onmouseout="HideTooltip(evt)">
<path d="M479.748,-197.613C473.042,-217.051 462.428,-248.874 454.808,-276.784 445.726,-310.052 437.321,-348.943 432.187,-374.002" fill="none" stroke="#e2a6ff" stroke-width="3"/>
<polygon fill="#e2a6ff" points="429.423,-373.545 430.576,-381.942 434.911,-374.659 429.423,-373.545" stroke="#e2a6ff"/>
</a>
</g>
<!-- SP3&#45;&gt;ESRRA_ESR2 -->
<g class="edge" id="edge62">
<a class="remove21 root" ismara:data="1.361" onmousemove="ShowTooltip(evt, 'ESRRA: 1.361|ESR2: 0.109')" onmouseout="HideTooltip(evt)">
<path d="M459.083,-186.711C423.272,-196.307 359.466,-213.403 314.948,-225.332" fill="none" stroke="#a6afff" stroke-width="3"/>
<polygon fill="#a6afff" points="314.151,-222.647 307.148,-227.422 315.6,-228.056 314.151,-222.647" stroke="#a6afff"/>
</a>
</g>
<!-- SP3&#45;&gt;RXRA_NR2F6_NR2C2 -->
<g class="edge" id="edge56">
<a class="remove21" ismara:data="1.784" onmousemove="ShowTooltip(evt, 'NR2F6: 1.784|NR2C2: 0.370')" onmouseout="HideTooltip(evt)">
<path d="M475.534,-197.814C447.468,-246.426 371.158,-378.599 339.126,-434.08" fill="none" stroke="#de9aff" stroke-width="3"/>
<polygon fill="#de9aff" points="336.663,-432.747 335.087,-441.075 341.512,-435.547 336.663,-432.747" stroke="#de9aff"/>
</a>
</g>
<!-- SP3&#45;&gt;ERG -->
<g class="edge" id="edge58">
<a class="remove15 root" ismara:data="0.724" onmousemove="ShowTooltip(evt, 'ERG: 0.724')" onmouseout="HideTooltip(evt)">
<path d="M458.96,-195.15C390.978,-234.399 213.605,-336.806 138.498,-380.169" fill="none" stroke="#e8b7ff" stroke-width="3"/>
<polygon fill="#e8b7ff" points="136.658,-377.998 131.13,-384.423 139.458,-382.848 136.658,-377.998" stroke="#e8b7ff"/>
</a>
</g>
<!-- SP3&#45;&gt;SMAD3 -->
<g class="edge" id="edge60">
<a class="remove13 root" ismara:data="0.591" onmousemove="ShowTooltip(evt, 'SMAD3: 0.591')" onmouseout="HideTooltip(evt)">
<path d="M458.867,-179.464C382.333,-179.464 165.526,-179.464 80.1604,-179.464" fill="none" stroke="#e9bbff" stroke-width="3"/>
<polygon fill="#e9bbff" points="80.0797,-176.664 72.0797,-179.464 80.0797,-182.264 80.0797,-176.664" stroke="#e9bbff"/>
</a>
</g>
<!-- SP3&#45;&gt;TWIST1_SNAI1 -->
<g class="edge" id="edge68">
<a class="remove17" ismara:data="1.367" onmousemove="ShowTooltip(evt, 'SNAI1: 1.367')" onmouseout="HideTooltip(evt)">
<path d="M475.563,-161.164C466.15,-144.86 452.281,-120.838 441.776,-102.644" fill="none" stroke="#e2a6ff" stroke-width="3"/>
<polygon fill="#e2a6ff" points="443.928,-100.77 437.503,-95.2422 439.078,-103.57 443.928,-100.77" stroke="#e2a6ff"/>
</a>
</g>
</g>
<rect height="14" id="tooltip_bg" style="fill: white; stroke: black; opacity: 0.8;" visibility="hidden"/><text id="tooltip" style="font-size: 10px;font-weight: bold;" visibility="hidden"></text><g id="plus" onclick="showSome();moveSlider();setThreshold();"><circle cx="22" cy="22" r="10" style="fill: #dddddd; opacity: 100%;"/><line stroke="#888888" stroke-width="2" x1="16" x2="28" y1="22" y2="22"/><line stroke="#888888" stroke-width="2" x1="22" x2="22" y1="16" y2="28"/></g><g id="minus" onclick="hideSome();moveSlider();setThreshold();"><circle cx="22" cy="463" r="10" style="fill: #dddddd; opacity: 100%;"/><line stroke="#888888" stroke-width="2" x1="16" x2="28" y1="463" y2="463"/></g><line id="slider_scale" onmousedown="jump_slider(evt)" stroke="#888888" stroke-width="5" x1="22" x2="22" y1="40" y2="445"/><circle cx="22" cy="50" id="slider" onmousedown="grab(evt)" onmouseout="release(evt)" onmouseup="release(evt)" r="15" style="fill:#922"/><script type="text/ecmascript"><![CDATA[
    var svgNS = "http://www.w3.org/2000/svg";
    var edge_num = 29;
    var counter = 0;
    var tooltip, tooltip_bg;

    function init(evt) {
        if ( window.svgDocument == null ) {
            svgDocument = evt.target.ownerDocument;
        }
        tooltip = svgDocument.getElementById('tooltip');
        tooltip_bg = svgDocument.getElementById('tooltip_bg');
        setThreshold();
    }

    function ShowTooltip(evt, txt) {
        var length = 0;
        var height;
        var tooltip_x = evt.pageX + 18;
        var tooltip_y = evt.pageY + 22;
        var bg_x = evt.pageX + 10;
        var bg_y = evt.pageY + 10;

        /* Clean toolip content */
        while (tooltip.lastChild) {
            tooltip.removeChild(tooltip.lastChild)
        }

        /* Populate tooltip with tspan elements and get longest of them */
        var text_elements = txt.split('|');
        for (var i = 0; i  < text_elements.length; i++) {
            var shift_y = 12;
            if (i == 0) {
                shift_y = 0;
            }
            var tspan_element = document.createElementNS(svgNS, "tspan");
            tspan_element.setAttributeNS(null, "dy", shift_y);
            tspan_element.setAttributeNS(null, "x", tooltip_x);
            var text_node = svgDocument.createTextNode(text_elements[i]);
            tspan_element.appendChild(text_node);
            tooltip.appendChild(tspan_element);
            var tspan_length = tspan_element.getComputedTextLength();
            if (tspan_length > length) {
                length = tspan_length
            }
        }
        /* add right margin to tooltip */
        length = length + 15;
        height = 12 * text_elements.length + 5;
        tooltip_bg.setAttributeNS(null,"width",length);
        tooltip_bg.setAttributeNS(null,"height",height);
        tooltip_bg.setAttributeNS(null,"x", bg_x);
        tooltip_bg.setAttributeNS(null,"y", bg_y);
        tooltip_bg.setAttributeNS(null,"visibility","visible");
        tooltip.setAttributeNS(null,"x", tooltip_x);
        tooltip.setAttributeNS(null,"y", tooltip_y);
        tooltip.setAttributeNS(null,"visibility","visible");
    }
    function HideTooltip() {
      tooltip.setAttributeNS(null,"visibility","hidden");
      tooltip_bg.setAttributeNS(null,"visibility","hidden");
    }

    /*** Hide/Show edges functions ***/

    function hideSome() {
      if (counter >= edge_num -1) {
        return 1;
      }
      var elements = svgDocument.getElementsByClassName('remove' + counter);
      for (var i = 0; i < elements.length; i++) {
        elements[i].setAttributeNS(null,"visibility","hidden");
      }
      counter = counter + 1;
    }

    function showSome() {
      if (counter <= 0) {
        return 1;
      }
      counter = counter - 1;
      var elements = svgDocument.getElementsByClassName('remove' + counter);
      for (var i = 0; i < elements.length; i++) {
        elements[i].setAttributeNS(null,"visibility","visible");
      }
    }

    function setThreshold() {
        var elements = svgDocument.getElementsByClassName('remove' + counter);
        var score = 0;
        for (var i = 0; i < elements.length; i++) {
            if (elements[i].classList.contains("root")){
                if (elements[i].hasAttributeNS("ismara.unibas.ch", "data")) {
                    score = elements[i].getAttributeNS("ismara.unibas.ch", "data");
                }
            } 
        }
        svgDocument.getElementById("score_indicator").textContent = "Score threshold: " + score;
    }

    /*** Slider functions ***/

    var slider_maxY = parseInt(document.getElementById("slider_scale").getAttributeNS(null, "y2"));
    var slider_minY = parseInt(document.getElementById("slider_scale").getAttributeNS(null, "y1"));
    var slider_r = parseInt(document.getElementById("slider").getAttributeNS(null, "r"));
    var coef = (edge_num - 1) / (slider_maxY - slider_minY - 2 * slider_r);

    function grab(evt){
        var element = evt.target;
        var Attr = {"onmousemove":"slide(evt,'"+element.id+"')"};
        assignAttr(element, Attr);
    }

    function release(evt){
        var element = evt.target;
        var Attr = {"onmousemove":null};
        assignAttr(element, Attr);
    }

    function assignAttr(obj,attr){
        for (i in attr) obj.setAttributeNS(null,i, attr[i]);
    }

    function slide(evt,id){
        var slider = evt.target;
        var y = evt.pageY;
        var new_counter = Math.floor((evt.pageY - slider_minY - slider_r) * coef);
        if (evt.pageY > (slider_maxY - slider_r)) {
            slider.setAttributeNS(null, "cy", (slider_maxY - slider_r));
            new_counter = edge_num;
        } else if(evt.pageY < (slider_minY + slider_r)) {
            slider.setAttributeNS(null, "cy", (slider_minY + slider_r));
            new_counter = 1;
        } else {
            slider.setAttributeNS(null, "cy", evt.pageY);
        }

        if (new_counter < counter) {
                showSome();
            counter = new_counter;
        }
        if (new_counter > counter) {
                hideSome();
            counter = new_counter;
        }
        setThreshold();
    }

    function moveSlider() {
        circle = document.getElementById("slider");
        circle.setAttributeNS(null, "cy",  slider_minY +  slider_r + (counter) / coef);
    }

    function jump_slider(evt) {
        var slider = document.getElementById("slider");
        var new_counter = Math.floor((evt.pageY - slider_minY - slider_r) * coef);
        if (evt.pageY > (slider_maxY - slider_r)) {
            slider.setAttributeNS(null, "cy", (slider_maxY - slider_r));
            new_counter = edge_num;
        } else if(evt.pageY < (slider_minY + slider_r)) {
             slider.setAttributeNS(null, "cy", (slider_minY + slider_r));
            new_counter = 1;
        } else {
            slider.setAttributeNS(null, "cy", evt.pageY);
        }

        if (new_counter > counter) {
            var d = new_counter - counter;
            for (var i = 0; i < d; i++){
                hideSome();
            }
            counter = new_counter;
        }
        if (new_counter < counter) {
            var d = counter - new_counter;
            for (var i = 0; i < d; i++){
                showSome();
            }
            counter = new_counter;
        }
        setThreshold();
    }
    ]]></script><text id="score_indicator" style="font-size: 10px;font-weight: bold;" x="10" y="495">Score threshold: 0</text><text id="info" style="font-size: 10px;font-weight: bold;" x="10" y="510">Use slider or -/+ buttons to hide/show edges.</text></svg>