<?xml version="1.0" encoding="UTF-8" standalone="no"?>
<!DOCTYPE svg PUBLIC "-//W3C//DTD SVG 1.1//EN"
 "http://www.w3.org/Graphics/SVG/1.1/DTD/svg11.dtd">
<!-- Generated by graphviz version 2.28.0 (20110630.0925)
 -->
<!-- Title: _anonymous_0 Pages: 1 -->
<svg width="452pt" height="434pt"
 viewBox="0.00 0.00 451.63 433.63" xmlns="http://www.w3.org/2000/svg" xmlns:xlink="http://www.w3.org/1999/xlink">
<g id="graph1" class="graph" transform="scale(1 1) rotate(0) translate(4 429.626)">
<title>_anonymous_0</title>
<polygon fill="white" stroke="white" points="-4,5 -4,-429.626 448.626,-429.626 448.626,5 -4,5"/>
<!-- ZEB1 -->
<g id="node1" class="node"><title>ZEB1</title>
<a xlink:href="ZEB1.svg" xlink:title="Z&#45;value: 1.478||remove4">
<polygon fill="#3247ff" stroke="#3247ff" stroke-width="2" points="379.426,-373.426 349.426,-373.426 337.426,-361.426 337.426,-349.426 349.426,-337.426 379.426,-337.426 391.426,-349.426 391.426,-361.426 379.426,-373.426"/>
<path fill="#3247ff" stroke="#3247ff" stroke-width="2" d="M349.426,-373.426C343.426,-373.426 337.426,-367.426 337.426,-361.426"/>
<path fill="#3247ff" stroke="#3247ff" stroke-width="2" d="M337.426,-349.426C337.426,-343.426 343.426,-337.426 349.426,-337.426"/>
<path fill="#3247ff" stroke="#3247ff" stroke-width="2" d="M379.426,-337.426C385.426,-337.426 391.426,-343.426 391.426,-349.426"/>
<path fill="#3247ff" stroke="#3247ff" stroke-width="2" d="M391.426,-361.426C391.426,-367.426 385.426,-373.426 379.426,-373.426"/>
<polyline fill="none" stroke="white" stroke-width="2" points="379.426,-373.426 349.426,-373.426 "/>
<path fill="none" stroke="white" stroke-width="2" d="M349.426,-373.426C343.426,-373.426 337.426,-367.426 337.426,-361.426"/>
<polyline fill="none" stroke="white" stroke-width="2" points="337.426,-361.426 337.426,-349.426 "/>
<path fill="none" stroke="white" stroke-width="2" d="M337.426,-349.426C337.426,-343.426 343.426,-337.426 349.426,-337.426"/>
<polyline fill="none" stroke="white" stroke-width="2" points="349.426,-337.426 379.426,-337.426 "/>
<path fill="none" stroke="white" stroke-width="2" d="M379.426,-337.426C385.426,-337.426 391.426,-343.426 391.426,-349.426"/>
<polyline fill="none" stroke="white" stroke-width="2" points="391.426,-349.426 391.426,-361.426 "/>
<path fill="none" stroke="white" stroke-width="2" d="M391.426,-361.426C391.426,-367.426 385.426,-373.426 379.426,-373.426"/>
<text text-anchor="middle" x="364.426" y="-352.926" font-family="Helvetica,sans-Serif" font-size="10.00" fill="white">ZEB1</text>
</a>
</g>
<!-- ZEB1&#45;&gt;ZEB1 -->
<g id="edge2" class="edge"><title>ZEB1&#45;&gt;ZEB1</title>
<a xlink:title="ZEB1: 0.449||remove4">
<path fill="none" stroke="#bd32ff" stroke-width="3" d="M391.667,-362.17C401.45,-362.315 409.426,-360.067 409.426,-355.426 409.426,-352.163 405.483,-350.083 399.741,-349.186"/>
<polygon fill="#bd32ff" stroke="#bd32ff" points="399.826,-346.386 391.667,-348.683 399.477,-351.975 399.826,-346.386"/>
</a>
</g>
<!-- FOXD3_FOXI1_FOXF1 -->
<g id="node3" class="node"><title>FOXD3_FOXI1_FOXF1</title>
<a xlink:href="FOXD3_FOXI1_FOXF1.svg" xlink:title="Z&#45;value: 0.866||remove15">
<polygon fill="#7280ff" stroke="#7280ff" stroke-width="2" points="321.513,-425.626 226.513,-425.626 214.513,-413.626 214.513,-401.626 226.513,-389.626 321.513,-389.626 333.513,-401.626 333.513,-413.626 321.513,-425.626"/>
<path fill="#7280ff" stroke="#7280ff" stroke-width="2" d="M226.513,-425.626C220.513,-425.626 214.513,-419.626 214.513,-413.626"/>
<path fill="#7280ff" stroke="#7280ff" stroke-width="2" d="M214.513,-401.626C214.513,-395.626 220.513,-389.626 226.513,-389.626"/>
<path fill="#7280ff" stroke="#7280ff" stroke-width="2" d="M321.513,-389.626C327.513,-389.626 333.513,-395.626 333.513,-401.626"/>
<path fill="#7280ff" stroke="#7280ff" stroke-width="2" d="M333.513,-413.626C333.513,-419.626 327.513,-425.626 321.513,-425.626"/>
<polyline fill="none" stroke="white" stroke-width="2" points="321.513,-425.626 226.513,-425.626 "/>
<path fill="none" stroke="white" stroke-width="2" d="M226.513,-425.626C220.513,-425.626 214.513,-419.626 214.513,-413.626"/>
<polyline fill="none" stroke="white" stroke-width="2" points="214.513,-413.626 214.513,-401.626 "/>
<path fill="none" stroke="white" stroke-width="2" d="M214.513,-401.626C214.513,-395.626 220.513,-389.626 226.513,-389.626"/>
<polyline fill="none" stroke="white" stroke-width="2" points="226.513,-389.626 321.513,-389.626 "/>
<path fill="none" stroke="white" stroke-width="2" d="M321.513,-389.626C327.513,-389.626 333.513,-395.626 333.513,-401.626"/>
<polyline fill="none" stroke="white" stroke-width="2" points="333.513,-401.626 333.513,-413.626 "/>
<path fill="none" stroke="white" stroke-width="2" d="M333.513,-413.626C333.513,-419.626 327.513,-425.626 321.513,-425.626"/>
<text text-anchor="middle" x="274.013" y="-405.126" font-family="Helvetica,sans-Serif" font-size="10.00" fill="white">FOXD3_FOXI1_FOXF1</text>
</a>
</g>
<!-- ZEB1&#45;&gt;FOXD3_FOXI1_FOXF1 -->
<g id="edge4" class="edge"><title>ZEB1&#45;&gt;FOXD3_FOXI1_FOXF1</title>
<a xlink:title="FOXI1: 0.146||remove4">
<path fill="none" stroke="#de9aff" stroke-width="3" d="M337.299,-371.088C329.416,-375.639 320.654,-380.698 312.225,-385.565"/>
<polygon fill="#de9aff" stroke="#de9aff" points="310.777,-383.167 305.249,-389.592 313.577,-388.017 310.777,-383.167"/>
</a>
</g>
<!-- TFDP1 -->
<g id="node5" class="node"><title>TFDP1</title>
<a xlink:href="TFDP1.svg" xlink:title="Z&#45;value: 1.163||remove11">
<polygon fill="#5364ff" stroke="#5364ff" stroke-width="2" points="184.613,-425.626 154.613,-425.626 142.613,-413.626 142.613,-401.626 154.613,-389.626 184.613,-389.626 196.613,-401.626 196.613,-413.626 184.613,-425.626"/>
<path fill="#5364ff" stroke="#5364ff" stroke-width="2" d="M154.613,-425.626C148.613,-425.626 142.613,-419.626 142.613,-413.626"/>
<path fill="#5364ff" stroke="#5364ff" stroke-width="2" d="M142.613,-401.626C142.613,-395.626 148.613,-389.626 154.613,-389.626"/>
<path fill="#5364ff" stroke="#5364ff" stroke-width="2" d="M184.613,-389.626C190.613,-389.626 196.613,-395.626 196.613,-401.626"/>
<path fill="#5364ff" stroke="#5364ff" stroke-width="2" d="M196.613,-413.626C196.613,-419.626 190.613,-425.626 184.613,-425.626"/>
<polyline fill="none" stroke="white" stroke-width="2" points="184.613,-425.626 154.613,-425.626 "/>
<path fill="none" stroke="white" stroke-width="2" d="M154.613,-425.626C148.613,-425.626 142.613,-419.626 142.613,-413.626"/>
<polyline fill="none" stroke="white" stroke-width="2" points="142.613,-413.626 142.613,-401.626 "/>
<path fill="none" stroke="white" stroke-width="2" d="M142.613,-401.626C142.613,-395.626 148.613,-389.626 154.613,-389.626"/>
<polyline fill="none" stroke="white" stroke-width="2" points="154.613,-389.626 184.613,-389.626 "/>
<path fill="none" stroke="white" stroke-width="2" d="M184.613,-389.626C190.613,-389.626 196.613,-395.626 196.613,-401.626"/>
<polyline fill="none" stroke="white" stroke-width="2" points="196.613,-401.626 196.613,-413.626 "/>
<path fill="none" stroke="white" stroke-width="2" d="M196.613,-413.626C196.613,-419.626 190.613,-425.626 184.613,-425.626"/>
<text text-anchor="middle" x="169.613" y="-405.126" font-family="Helvetica,sans-Serif" font-size="10.00" fill="white">TFDP1</text>
</a>
</g>
<!-- ZEB1&#45;&gt;TFDP1 -->
<g id="edge6" class="edge"><title>ZEB1&#45;&gt;TFDP1</title>
<a xlink:title="TFDP1: 0.079||remove4">
<path fill="none" stroke="#e6b1ff" stroke-width="3" d="M337.306,-357.843C304.828,-361.386 249.201,-369.536 204.413,-386.746 204.257,-386.806 204.101,-386.867 203.944,-386.928"/>
<polygon fill="#e6b1ff" stroke="#e6b1ff" points="203.062,-384.255 196.903,-390.079 205.349,-389.367 203.062,-384.255"/>
</a>
</g>
<!-- FOXN1 -->
<g id="node7" class="node"><title>FOXN1</title>
<a xlink:href="FOXN1.svg" xlink:title="Z&#45;value: 0.388||remove7">
<polygon fill="#a3acff" stroke="#a3acff" stroke-width="2" points="94.2,-373.426 64.2,-373.426 52.2,-361.426 52.2,-349.426 64.2,-337.426 94.2,-337.426 106.2,-349.426 106.2,-361.426 94.2,-373.426"/>
<path fill="#a3acff" stroke="#a3acff" stroke-width="2" d="M64.2,-373.426C58.2,-373.426 52.2,-367.426 52.2,-361.426"/>
<path fill="#a3acff" stroke="#a3acff" stroke-width="2" d="M52.2,-349.426C52.2,-343.426 58.2,-337.426 64.2,-337.426"/>
<path fill="#a3acff" stroke="#a3acff" stroke-width="2" d="M94.2,-337.426C100.2,-337.426 106.2,-343.426 106.2,-349.426"/>
<path fill="#a3acff" stroke="#a3acff" stroke-width="2" d="M106.2,-361.426C106.2,-367.426 100.2,-373.426 94.2,-373.426"/>
<polyline fill="none" stroke="white" stroke-width="2" points="94.2,-373.426 64.2,-373.426 "/>
<path fill="none" stroke="white" stroke-width="2" d="M64.2,-373.426C58.2,-373.426 52.2,-367.426 52.2,-361.426"/>
<polyline fill="none" stroke="white" stroke-width="2" points="52.2,-361.426 52.2,-349.426 "/>
<path fill="none" stroke="white" stroke-width="2" d="M52.2,-349.426C52.2,-343.426 58.2,-337.426 64.2,-337.426"/>
<polyline fill="none" stroke="white" stroke-width="2" points="64.2,-337.426 94.2,-337.426 "/>
<path fill="none" stroke="white" stroke-width="2" d="M94.2,-337.426C100.2,-337.426 106.2,-343.426 106.2,-349.426"/>
<polyline fill="none" stroke="white" stroke-width="2" points="106.2,-349.426 106.2,-361.426 "/>
<path fill="none" stroke="white" stroke-width="2" d="M106.2,-361.426C106.2,-367.426 100.2,-373.426 94.2,-373.426"/>
<text text-anchor="middle" x="79.2" y="-352.926" font-family="Helvetica,sans-Serif" font-size="10.00">FOXN1</text>
</a>
</g>
<!-- ZEB1&#45;&gt;FOXN1 -->
<g id="edge8" class="edge"><title>ZEB1&#45;&gt;FOXN1</title>
<a xlink:title="FOXN1: 0.136||remove4">
<path fill="none" stroke="#df9dff" stroke-width="3" d="M337.336,-355.426C285.513,-355.426 172.37,-355.426 114.63,-355.426"/>
<polygon fill="#df9dff" stroke="#df9dff" points="114.527,-352.626 106.527,-355.426 114.527,-358.226 114.527,-352.626"/>
</a>
</g>
<!-- OVOL1 -->
<g id="node9" class="node"><title>OVOL1</title>
<a xlink:href="OVOL1.svg" xlink:title="Z&#45;value: 0.157||remove14">
<polygon fill="#bbc2ff" stroke="#bbc2ff" stroke-width="2" points="431.626,-283.013 401.626,-283.013 389.626,-271.013 389.626,-259.013 401.626,-247.013 431.626,-247.013 443.626,-259.013 443.626,-271.013 431.626,-283.013"/>
<path fill="#bbc2ff" stroke="#bbc2ff" stroke-width="2" d="M401.626,-283.013C395.626,-283.013 389.626,-277.013 389.626,-271.013"/>
<path fill="#bbc2ff" stroke="#bbc2ff" stroke-width="2" d="M389.626,-259.013C389.626,-253.013 395.626,-247.013 401.626,-247.013"/>
<path fill="#bbc2ff" stroke="#bbc2ff" stroke-width="2" d="M431.626,-247.013C437.626,-247.013 443.626,-253.013 443.626,-259.013"/>
<path fill="#bbc2ff" stroke="#bbc2ff" stroke-width="2" d="M443.626,-271.013C443.626,-277.013 437.626,-283.013 431.626,-283.013"/>
<polyline fill="none" stroke="white" stroke-width="2" points="431.626,-283.013 401.626,-283.013 "/>
<path fill="none" stroke="white" stroke-width="2" d="M401.626,-283.013C395.626,-283.013 389.626,-277.013 389.626,-271.013"/>
<polyline fill="none" stroke="white" stroke-width="2" points="389.626,-271.013 389.626,-259.013 "/>
<path fill="none" stroke="white" stroke-width="2" d="M389.626,-259.013C389.626,-253.013 395.626,-247.013 401.626,-247.013"/>
<polyline fill="none" stroke="white" stroke-width="2" points="401.626,-247.013 431.626,-247.013 "/>
<path fill="none" stroke="white" stroke-width="2" d="M431.626,-247.013C437.626,-247.013 443.626,-253.013 443.626,-259.013"/>
<polyline fill="none" stroke="white" stroke-width="2" points="443.626,-259.013 443.626,-271.013 "/>
<path fill="none" stroke="white" stroke-width="2" d="M443.626,-271.013C443.626,-277.013 437.626,-283.013 431.626,-283.013"/>
<text text-anchor="middle" x="416.626" y="-262.513" font-family="Helvetica,sans-Serif" font-size="10.00">OVOL1</text>
</a>
</g>
<!-- ZEB1&#45;&gt;OVOL1 -->
<g id="edge10" class="edge"><title>ZEB1&#45;&gt;OVOL1</title>
<a xlink:title="OVOL1: 0.348||remove4">
<path fill="none" stroke="#c855ff" stroke-width="3" d="M374.99,-337.13C382.772,-323.649 393.453,-305.15 402.048,-290.262"/>
<polygon fill="#c855ff" stroke="#c855ff" points="404.503,-291.611 406.078,-283.282 399.653,-288.81 404.503,-291.611"/>
</a>
</g>
<!-- EVX2 -->
<g id="node11" class="node"><title>EVX2</title>
<a xlink:href="EVX2.svg" xlink:title="Z&#45;value: 0.196||remove18">
<polygon fill="#ffb7b7" stroke="#ffb7b7" stroke-width="2" points="236.813,-230.813 206.813,-230.813 194.813,-218.813 194.813,-206.813 206.813,-194.813 236.813,-194.813 248.813,-206.813 248.813,-218.813 236.813,-230.813"/>
<path fill="#ffb7b7" stroke="#ffb7b7" stroke-width="2" d="M206.813,-230.813C200.813,-230.813 194.813,-224.813 194.813,-218.813"/>
<path fill="#ffb7b7" stroke="#ffb7b7" stroke-width="2" d="M194.813,-206.813C194.813,-200.813 200.813,-194.813 206.813,-194.813"/>
<path fill="#ffb7b7" stroke="#ffb7b7" stroke-width="2" d="M236.813,-194.813C242.813,-194.813 248.813,-200.813 248.813,-206.813"/>
<path fill="#ffb7b7" stroke="#ffb7b7" stroke-width="2" d="M248.813,-218.813C248.813,-224.813 242.813,-230.813 236.813,-230.813"/>
<polyline fill="none" stroke="white" stroke-width="2" points="236.813,-230.813 206.813,-230.813 "/>
<path fill="none" stroke="white" stroke-width="2" d="M206.813,-230.813C200.813,-230.813 194.813,-224.813 194.813,-218.813"/>
<polyline fill="none" stroke="white" stroke-width="2" points="194.813,-218.813 194.813,-206.813 "/>
<path fill="none" stroke="white" stroke-width="2" d="M194.813,-206.813C194.813,-200.813 200.813,-194.813 206.813,-194.813"/>
<polyline fill="none" stroke="white" stroke-width="2" points="206.813,-194.813 236.813,-194.813 "/>
<path fill="none" stroke="white" stroke-width="2" d="M236.813,-194.813C242.813,-194.813 248.813,-200.813 248.813,-206.813"/>
<polyline fill="none" stroke="white" stroke-width="2" points="248.813,-206.813 248.813,-218.813 "/>
<path fill="none" stroke="white" stroke-width="2" d="M248.813,-218.813C248.813,-224.813 242.813,-230.813 236.813,-230.813"/>
<text text-anchor="middle" x="221.813" y="-210.313" font-family="Helvetica,sans-Serif" font-size="10.00">EVX2</text>
</a>
</g>
<!-- ZEB1&#45;&gt;EVX2 -->
<g id="edge12" class="edge"><title>ZEB1&#45;&gt;EVX2</title>
<a xlink:title="EVX2: 0.054||remove4root">
<path fill="none" stroke="#b9c0ff" stroke-width="3" d="M346.364,-337.364C320.893,-311.893 274.365,-265.365 245.953,-236.953"/>
<polygon fill="#b9c0ff" stroke="#b9c0ff" points="247.816,-234.856 240.179,-231.179 243.856,-238.816 247.816,-234.856"/>
</a>
</g>
<!-- FOXD3_FOXI1_FOXF1&#45;&gt;EVX2 -->
<g id="edge24" class="edge"><title>FOXD3_FOXI1_FOXF1&#45;&gt;EVX2</title>
<a xlink:title="EVX2: 0.138||remove15root">
<path fill="none" stroke="#9ca6ff" stroke-width="3" d="M269.102,-389.299C259.79,-354.546 239.54,-278.972 228.811,-238.928"/>
<polygon fill="#9ca6ff" stroke="#9ca6ff" points="231.448,-237.953 226.673,-230.95 226.039,-239.402 231.448,-237.953"/>
</a>
</g>
<!-- MEIS2 -->
<g id="node17" class="node"><title>MEIS2</title>
<a xlink:href="MEIS2.svg" xlink:title="Z&#45;value: 1.195||remove17">
<polygon fill="#5061ff" stroke="#5061ff" stroke-width="2" points="42,-283.013 12,-283.013 3.19744e-14,-271.013 3.19744e-14,-259.013 12,-247.013 42,-247.013 54,-259.013 54,-271.013 42,-283.013"/>
<path fill="#5061ff" stroke="#5061ff" stroke-width="2" d="M12,-283.013C6,-283.013 3.19744e-14,-277.013 3.19744e-14,-271.013"/>
<path fill="#5061ff" stroke="#5061ff" stroke-width="2" d="M3.19744e-14,-259.013C3.19744e-14,-253.013 6,-247.013 12,-247.013"/>
<path fill="#5061ff" stroke="#5061ff" stroke-width="2" d="M42,-247.013C48,-247.013 54,-253.013 54,-259.013"/>
<path fill="#5061ff" stroke="#5061ff" stroke-width="2" d="M54,-271.013C54,-277.013 48,-283.013 42,-283.013"/>
<polyline fill="none" stroke="white" stroke-width="2" points="42,-283.013 12,-283.013 "/>
<path fill="none" stroke="white" stroke-width="2" d="M12,-283.013C6,-283.013 3.19744e-14,-277.013 3.19744e-14,-271.013"/>
<polyline fill="none" stroke="white" stroke-width="2" points="3.19744e-14,-271.013 3.19744e-14,-259.013 "/>
<path fill="none" stroke="white" stroke-width="2" d="M3.19744e-14,-259.013C3.19744e-14,-253.013 6,-247.013 12,-247.013"/>
<polyline fill="none" stroke="white" stroke-width="2" points="12,-247.013 42,-247.013 "/>
<path fill="none" stroke="white" stroke-width="2" d="M42,-247.013C48,-247.013 54,-253.013 54,-259.013"/>
<polyline fill="none" stroke="white" stroke-width="2" points="54,-259.013 54,-271.013 "/>
<path fill="none" stroke="white" stroke-width="2" d="M54,-271.013C54,-277.013 48,-283.013 42,-283.013"/>
<text text-anchor="middle" x="27" y="-262.513" font-family="Helvetica,sans-Serif" font-size="10.00" fill="white">MEIS2</text>
</a>
</g>
<!-- FOXD3_FOXI1_FOXF1&#45;&gt;MEIS2 -->
<g id="edge22" class="edge"><title>FOXD3_FOXI1_FOXF1&#45;&gt;MEIS2</title>
<a xlink:title="MEIS2: 0.013||remove0root">
<path fill="none" stroke="#edc7ff" stroke-width="3" d="M242.729,-389.564C196.3,-362.758 109.474,-312.629 61.3411,-284.84"/>
<polygon fill="#edc7ff" stroke="#edc7ff" points="62.5732,-282.318 54.245,-280.743 59.7732,-287.168 62.5732,-282.318"/>
</a>
</g>
<!-- TFDP1&#45;&gt;FOXD3_FOXI1_FOXF1 -->
<g id="edge14" class="edge"><title>TFDP1&#45;&gt;FOXD3_FOXI1_FOXF1</title>
<a xlink:title="FOXD3: 0.052||remove2root">
<path fill="none" stroke="#e9baff" stroke-width="3" d="M196.77,-407.626C199.744,-407.626 202.86,-407.626 206.063,-407.626"/>
<polygon fill="#e9baff" stroke="#e9baff" points="206.173,-410.426 214.173,-407.626 206.173,-404.826 206.173,-410.426"/>
</a>
</g>
<!-- TFDP1&#45;&gt;TFDP1 -->
<g id="edge16" class="edge"><title>TFDP1&#45;&gt;TFDP1</title>
<a xlink:title="TFDP1: 0.077||remove9root">
<path fill="none" stroke="#e6b1ff" stroke-width="3" d="M196.854,-414.37C206.637,-414.515 214.613,-412.267 214.613,-407.626 214.613,-404.363 210.67,-402.283 204.928,-401.386"/>
<polygon fill="#e6b1ff" stroke="#e6b1ff" points="205.013,-398.586 196.854,-400.883 204.664,-404.175 205.013,-398.586"/>
</a>
</g>
<!-- TFDP1&#45;&gt;OVOL1 -->
<g id="edge18" class="edge"><title>TFDP1&#45;&gt;OVOL1</title>
<a xlink:title="OVOL1: 0.157||remove11">
<path fill="none" stroke="#dd96ff" stroke-width="3" d="M196.938,-391.162C199.462,-389.663 201.982,-388.172 204.413,-386.746 266.92,-350.07 340.378,-308.205 382.42,-284.361"/>
<polygon fill="#dd96ff" stroke="#dd96ff" points="383.815,-286.79 389.393,-280.409 381.053,-281.918 383.815,-286.79"/>
</a>
</g>
<!-- TFDP1&#45;&gt;EVX2 -->
<g id="edge20" class="edge"><title>TFDP1&#45;&gt;EVX2</title>
<a xlink:title="EVX2: 0.092||remove11root">
<path fill="none" stroke="#acb4ff" stroke-width="3" d="M174.524,-389.299C183.836,-354.546 204.086,-278.972 214.816,-238.928"/>
<polygon fill="#acb4ff" stroke="#acb4ff" points="217.587,-239.402 216.953,-230.95 212.178,-237.953 217.587,-239.402"/>
</a>
</g>
<!-- FOXN1&#45;&gt;OVOL1 -->
<g id="edge26" class="edge"><title>FOXN1&#45;&gt;OVOL1</title>
<a xlink:title="OVOL1: 0.078||remove7">
<path fill="none" stroke="#e6b1ff" stroke-width="3" d="M106.243,-348.18C166.955,-331.912 314.046,-292.499 381.619,-274.393"/>
<polygon fill="#e6b1ff" stroke="#e6b1ff" points="382.452,-277.069 389.455,-272.294 381.003,-271.66 382.452,-277.069"/>
</a>
</g>
<!-- FOXN1&#45;&gt;EVX2 -->
<g id="edge28" class="edge"><title>FOXN1&#45;&gt;EVX2</title>
<a xlink:title="EVX2: 0.071||remove7root">
<path fill="none" stroke="#b3bbff" stroke-width="3" d="M97.262,-337.364C122.733,-311.893 169.261,-265.365 197.673,-236.953"/>
<polygon fill="#b3bbff" stroke="#b3bbff" points="199.77,-238.816 203.447,-231.179 195.81,-234.856 199.77,-238.816"/>
</a>
</g>
<!-- EVX2&#45;&gt;OVOL1 -->
<g id="edge30" class="edge"><title>EVX2&#45;&gt;OVOL1</title>
<a xlink:title="OVOL1: 0.136||remove14root">
<path fill="none" stroke="#ff9d9d" stroke-width="3" d="M248.901,-220.071C283.551,-229.356 343.622,-245.452 381.684,-255.65"/>
<polygon fill="#ff9d9d" stroke="#ff9d9d" points="381.003,-258.367 389.455,-257.733 382.452,-252.957 381.003,-258.367"/>
</a>
</g>
<!-- MEIS2&#45;&gt;FOXN1 -->
<g id="edge32" class="edge"><title>MEIS2&#45;&gt;FOXN1</title>
<a xlink:title="FOXN1: 0.064||remove6root">
<path fill="none" stroke="#e7b6ff" stroke-width="3" d="M37.5634,-283.309C45.3463,-296.79 56.0272,-315.29 64.6223,-330.177"/>
<polygon fill="#e7b6ff" stroke="#e7b6ff" points="62.2273,-331.629 68.6523,-337.157 67.0771,-328.829 62.2273,-331.629"/>
</a>
</g>
<!-- MEIS2&#45;&gt;EVX2 -->
<g id="edge36" class="edge"><title>MEIS2&#45;&gt;EVX2</title>
<a xlink:title="EVX2: 0.310||remove17root">
<path fill="none" stroke="#6272ff" stroke-width="3" d="M54.0879,-257.755C88.7383,-248.47 148.809,-232.374 186.871,-222.176"/>
<polygon fill="#6272ff" stroke="#6272ff" points="187.639,-224.869 194.642,-220.094 186.19,-219.46 187.639,-224.869"/>
</a>
</g>
<!-- MEIS1 -->
<g id="node24" class="node"><title>MEIS1</title>
<a xlink:href="MEIS1.svg" xlink:title="Z&#45;value: 0.402||remove13">
<polygon fill="#a2abff" stroke="#a2abff" stroke-width="2" points="42,-178.613 12,-178.613 -3.19744e-14,-166.613 -3.19744e-14,-154.613 12,-142.613 42,-142.613 54,-154.613 54,-166.613 42,-178.613"/>
<path fill="#a2abff" stroke="#a2abff" stroke-width="2" d="M12,-178.613C6,-178.613 -3.19744e-14,-172.613 -3.19744e-14,-166.613"/>
<path fill="#a2abff" stroke="#a2abff" stroke-width="2" d="M-3.19744e-14,-154.613C-3.19744e-14,-148.613 6,-142.613 12,-142.613"/>
<path fill="#a2abff" stroke="#a2abff" stroke-width="2" d="M42,-142.613C48,-142.613 54,-148.613 54,-154.613"/>
<path fill="#a2abff" stroke="#a2abff" stroke-width="2" d="M54,-166.613C54,-172.613 48,-178.613 42,-178.613"/>
<polyline fill="none" stroke="white" stroke-width="2" points="42,-178.613 12,-178.613 "/>
<path fill="none" stroke="white" stroke-width="2" d="M12,-178.613C6,-178.613 -3.19744e-14,-172.613 -3.19744e-14,-166.613"/>
<polyline fill="none" stroke="white" stroke-width="2" points="-3.19744e-14,-166.613 -3.19744e-14,-154.613 "/>
<path fill="none" stroke="white" stroke-width="2" d="M-3.19744e-14,-154.613C-3.19744e-14,-148.613 6,-142.613 12,-142.613"/>
<polyline fill="none" stroke="white" stroke-width="2" points="12,-142.613 42,-142.613 "/>
<path fill="none" stroke="white" stroke-width="2" d="M42,-142.613C48,-142.613 54,-148.613 54,-154.613"/>
<polyline fill="none" stroke="white" stroke-width="2" points="54,-154.613 54,-166.613 "/>
<path fill="none" stroke="white" stroke-width="2" d="M54,-166.613C54,-172.613 48,-178.613 42,-178.613"/>
<text text-anchor="middle" x="27" y="-158.113" font-family="Helvetica,sans-Serif" font-size="10.00">MEIS1</text>
</a>
</g>
<!-- MEIS2&#45;&gt;MEIS1 -->
<g id="edge34" class="edge"><title>MEIS2&#45;&gt;MEIS1</title>
<a xlink:title="MEIS1: 0.022||MEIS2: 0.033||remove1root">
<path fill="none" stroke="#ecc4ff" stroke-width="3" d="M26,-238.723C26,-222.984 26,-203.035 26,-187.237"/>
<path fill="none" stroke="#ebc0ff" stroke-width="3" d="M28,-238.723C28,-222.984 28,-203.035 28,-187.237"/>
<polygon fill="#ebc0ff" stroke="#ebc0ff" points="24.1999,-238.828 27,-246.828 29.7999,-238.828 24.1999,-238.828"/>
<polygon fill="#ecc4ff" stroke="#ecc4ff" points="29.8001,-186.94 27,-178.94 24.2001,-186.94 29.8001,-186.94"/>
</a>
</g>
<!-- MEIS1&#45;&gt;EVX2 -->
<g id="edge38" class="edge"><title>MEIS1&#45;&gt;EVX2</title>
<a xlink:title="EVX2: 0.117||remove13root">
<path fill="none" stroke="#a3adff" stroke-width="3" d="M54.0879,-167.871C88.7383,-177.156 148.809,-193.252 186.871,-203.45"/>
<polygon fill="#a3adff" stroke="#a3adff" points="186.19,-206.167 194.642,-205.533 187.639,-200.757 186.19,-206.167"/>
</a>
</g>
<!-- TFCP2 -->
<g id="node28" class="node"><title>TFCP2</title>
<a xlink:href="TFCP2.svg" xlink:title="Z&#45;value: 0.791||remove16">
<polygon fill="#7a87ff" stroke="#7a87ff" stroke-width="2" points="94.2,-88.2 64.2,-88.2 52.2,-76.2 52.2,-64.2 64.2,-52.2 94.2,-52.2 106.2,-64.2 106.2,-76.2 94.2,-88.2"/>
<path fill="#7a87ff" stroke="#7a87ff" stroke-width="2" d="M64.2,-88.2C58.2,-88.2 52.2,-82.2 52.2,-76.2"/>
<path fill="#7a87ff" stroke="#7a87ff" stroke-width="2" d="M52.2,-64.2C52.2,-58.2 58.2,-52.2 64.2,-52.2"/>
<path fill="#7a87ff" stroke="#7a87ff" stroke-width="2" d="M94.2,-52.2C100.2,-52.2 106.2,-58.2 106.2,-64.2"/>
<path fill="#7a87ff" stroke="#7a87ff" stroke-width="2" d="M106.2,-76.2C106.2,-82.2 100.2,-88.2 94.2,-88.2"/>
<polyline fill="none" stroke="white" stroke-width="2" points="94.2,-88.2 64.2,-88.2 "/>
<path fill="none" stroke="white" stroke-width="2" d="M64.2,-88.2C58.2,-88.2 52.2,-82.2 52.2,-76.2"/>
<polyline fill="none" stroke="white" stroke-width="2" points="52.2,-76.2 52.2,-64.2 "/>
<path fill="none" stroke="white" stroke-width="2" d="M52.2,-64.2C52.2,-58.2 58.2,-52.2 64.2,-52.2"/>
<polyline fill="none" stroke="white" stroke-width="2" points="64.2,-52.2 94.2,-52.2 "/>
<path fill="none" stroke="white" stroke-width="2" d="M94.2,-52.2C100.2,-52.2 106.2,-58.2 106.2,-64.2"/>
<polyline fill="none" stroke="white" stroke-width="2" points="106.2,-64.2 106.2,-76.2 "/>
<path fill="none" stroke="white" stroke-width="2" d="M106.2,-76.2C106.2,-82.2 100.2,-88.2 94.2,-88.2"/>
<text text-anchor="middle" x="79.2" y="-67.7" font-family="Helvetica,sans-Serif" font-size="10.00">TFCP2</text>
</a>
</g>
<!-- TFCP2&#45;&gt;OVOL1 -->
<g id="edge40" class="edge"><title>TFCP2&#45;&gt;OVOL1</title>
<a xlink:title="OVOL1: 0.381||remove14">
<path fill="none" stroke="#c54aff" stroke-width="3" d="M106.243,-85.8131C167.202,-121.008 315.244,-206.48 382.44,-245.275"/>
<polygon fill="#c54aff" stroke="#c54aff" points="381.126,-247.75 389.455,-249.326 383.927,-242.901 381.126,-247.75"/>
</a>
</g>
<!-- TFCP2&#45;&gt;EVX2 -->
<g id="edge42" class="edge"><title>TFCP2&#45;&gt;EVX2</title>
<a xlink:title="EVX2: 0.260||remove16root">
<path fill="none" stroke="#7381ff" stroke-width="3" d="M97.262,-88.262C122.733,-113.733 169.261,-160.261 197.673,-188.673"/>
<polygon fill="#7381ff" stroke="#7381ff" points="195.81,-190.77 203.447,-194.447 199.77,-186.81 195.81,-190.77"/>
</a>
</g>
<!-- HSFY2 -->
<g id="node31" class="node"><title>HSFY2</title>
<a xlink:href="HSFY2.svg" xlink:title="Z&#45;value: 0.594||remove5">
<polygon fill="#8e99ff" stroke="#8e99ff" stroke-width="2" points="184.613,-36 154.613,-36 142.613,-24 142.613,-12 154.613,-3.19744e-14 184.613,-3.19744e-14 196.613,-12 196.613,-24 184.613,-36"/>
<path fill="#8e99ff" stroke="#8e99ff" stroke-width="2" d="M154.613,-36C148.613,-36 142.613,-30 142.613,-24"/>
<path fill="#8e99ff" stroke="#8e99ff" stroke-width="2" d="M142.613,-12C142.613,-6 148.613,-3.19744e-14 154.613,-3.19744e-14"/>
<path fill="#8e99ff" stroke="#8e99ff" stroke-width="2" d="M184.613,-3.19744e-14C190.613,-3.19744e-14 196.613,-6 196.613,-12"/>
<path fill="#8e99ff" stroke="#8e99ff" stroke-width="2" d="M196.613,-24C196.613,-30 190.613,-36 184.613,-36"/>
<polyline fill="none" stroke="white" stroke-width="2" points="184.613,-36 154.613,-36 "/>
<path fill="none" stroke="white" stroke-width="2" d="M154.613,-36C148.613,-36 142.613,-30 142.613,-24"/>
<polyline fill="none" stroke="white" stroke-width="2" points="142.613,-24 142.613,-12 "/>
<path fill="none" stroke="white" stroke-width="2" d="M142.613,-12C142.613,-6 148.613,-3.19744e-14 154.613,-3.19744e-14"/>
<polyline fill="none" stroke="white" stroke-width="2" points="154.613,-3.19744e-14 184.613,-3.19744e-14 "/>
<path fill="none" stroke="white" stroke-width="2" d="M184.613,-3.19744e-14C190.613,-3.19744e-14 196.613,-6 196.613,-12"/>
<polyline fill="none" stroke="white" stroke-width="2" points="196.613,-12 196.613,-24 "/>
<path fill="none" stroke="white" stroke-width="2" d="M196.613,-24C196.613,-30 190.613,-36 184.613,-36"/>
<text text-anchor="middle" x="169.613" y="-15.5" font-family="Helvetica,sans-Serif" font-size="10.00">HSFY2</text>
</a>
</g>
<!-- HSFY2&#45;&gt;EVX2 -->
<g id="edge44" class="edge"><title>HSFY2&#45;&gt;EVX2</title>
<a xlink:title="EVX2: 0.062||remove5root">
<path fill="none" stroke="#b6beff" stroke-width="3" d="M174.524,-36.3275C183.836,-71.0801 204.086,-146.654 214.816,-186.698"/>
<polygon fill="#b6beff" stroke="#b6beff" points="212.178,-187.673 216.953,-194.676 217.587,-186.224 212.178,-187.673"/>
</a>
</g>
<!-- FOXC1 -->
<g id="node33" class="node"><title>FOXC1</title>
<a xlink:href="FOXC1.svg" xlink:title="Z&#45;value: 0.561||remove10">
<polygon fill="#919cff" stroke="#919cff" stroke-width="2" points="289.013,-36 259.013,-36 247.013,-24 247.013,-12 259.013,3.19744e-14 289.013,3.19744e-14 301.013,-12 301.013,-24 289.013,-36"/>
<path fill="#919cff" stroke="#919cff" stroke-width="2" d="M259.013,-36C253.013,-36 247.013,-30 247.013,-24"/>
<path fill="#919cff" stroke="#919cff" stroke-width="2" d="M247.013,-12C247.013,-6 253.013,3.19744e-14 259.013,3.19744e-14"/>
<path fill="#919cff" stroke="#919cff" stroke-width="2" d="M289.013,3.19744e-14C295.013,3.19744e-14 301.013,-6 301.013,-12"/>
<path fill="#919cff" stroke="#919cff" stroke-width="2" d="M301.013,-24C301.013,-30 295.013,-36 289.013,-36"/>
<polyline fill="none" stroke="white" stroke-width="2" points="289.013,-36 259.013,-36 "/>
<path fill="none" stroke="white" stroke-width="2" d="M259.013,-36C253.013,-36 247.013,-30 247.013,-24"/>
<polyline fill="none" stroke="white" stroke-width="2" points="247.013,-24 247.013,-12 "/>
<path fill="none" stroke="white" stroke-width="2" d="M247.013,-12C247.013,-6 253.013,3.19744e-14 259.013,3.19744e-14"/>
<polyline fill="none" stroke="white" stroke-width="2" points="259.013,3.19744e-14 289.013,3.19744e-14 "/>
<path fill="none" stroke="white" stroke-width="2" d="M289.013,3.19744e-14C295.013,3.19744e-14 301.013,-6 301.013,-12"/>
<polyline fill="none" stroke="white" stroke-width="2" points="301.013,-12 301.013,-24 "/>
<path fill="none" stroke="white" stroke-width="2" d="M301.013,-24C301.013,-30 295.013,-36 289.013,-36"/>
<text text-anchor="middle" x="274.013" y="-15.5" font-family="Helvetica,sans-Serif" font-size="10.00">FOXC1</text>
</a>
</g>
<!-- FOXC1&#45;&gt;EVX2 -->
<g id="edge46" class="edge"><title>FOXC1&#45;&gt;EVX2</title>
<a xlink:title="EVX2: 0.084||remove10root">
<path fill="none" stroke="#afb7ff" stroke-width="3" d="M269.102,-36.3275C259.79,-71.0801 239.54,-146.654 228.811,-186.698"/>
<polygon fill="#afb7ff" stroke="#afb7ff" points="226.039,-186.224 226.673,-194.676 231.448,-187.673 226.039,-186.224"/>
</a>
</g>
<!-- NFATC1 -->
<g id="node35" class="node"><title>NFATC1</title>
<a xlink:href="NFATC1.svg" xlink:title="Z&#45;value: 0.560||remove8">
<polygon fill="#929cff" stroke="#929cff" stroke-width="2" points="379.926,-88.2 348.926,-88.2 336.926,-76.2 336.926,-64.2 348.926,-52.2 379.926,-52.2 391.926,-64.2 391.926,-76.2 379.926,-88.2"/>
<path fill="#929cff" stroke="#929cff" stroke-width="2" d="M348.926,-88.2C342.926,-88.2 336.926,-82.2 336.926,-76.2"/>
<path fill="#929cff" stroke="#929cff" stroke-width="2" d="M336.926,-64.2C336.926,-58.2 342.926,-52.2 348.926,-52.2"/>
<path fill="#929cff" stroke="#929cff" stroke-width="2" d="M379.926,-52.2C385.926,-52.2 391.926,-58.2 391.926,-64.2"/>
<path fill="#929cff" stroke="#929cff" stroke-width="2" d="M391.926,-76.2C391.926,-82.2 385.926,-88.2 379.926,-88.2"/>
<polyline fill="none" stroke="white" stroke-width="2" points="379.926,-88.2 348.926,-88.2 "/>
<path fill="none" stroke="white" stroke-width="2" d="M348.926,-88.2C342.926,-88.2 336.926,-82.2 336.926,-76.2"/>
<polyline fill="none" stroke="white" stroke-width="2" points="336.926,-76.2 336.926,-64.2 "/>
<path fill="none" stroke="white" stroke-width="2" d="M336.926,-64.2C336.926,-58.2 342.926,-52.2 348.926,-52.2"/>
<polyline fill="none" stroke="white" stroke-width="2" points="348.926,-52.2 379.926,-52.2 "/>
<path fill="none" stroke="white" stroke-width="2" d="M379.926,-52.2C385.926,-52.2 391.926,-58.2 391.926,-64.2"/>
<polyline fill="none" stroke="white" stroke-width="2" points="391.926,-64.2 391.926,-76.2 "/>
<path fill="none" stroke="white" stroke-width="2" d="M391.926,-76.2C391.926,-82.2 385.926,-88.2 379.926,-88.2"/>
<text text-anchor="middle" x="364.426" y="-67.7" font-family="Helvetica,sans-Serif" font-size="10.00">NFATC1</text>
</a>
</g>
<!-- NFATC1&#45;&gt;EVX2 -->
<g id="edge48" class="edge"><title>NFATC1&#45;&gt;EVX2</title>
<a xlink:title="EVX2: 0.075||remove8root">
<path fill="none" stroke="#b2baff" stroke-width="3" d="M346.364,-88.262C320.893,-113.733 274.365,-160.261 245.953,-188.673"/>
<polygon fill="#b2baff" stroke="#b2baff" points="243.856,-186.81 240.179,-194.447 247.816,-190.77 243.856,-186.81"/>
</a>
</g>
<!-- HOXA6 -->
<g id="node37" class="node"><title>HOXA6</title>
<a xlink:href="HOXA6.svg" xlink:title="Z&#45;value: 0.453||remove12">
<polygon fill="#9da6ff" stroke="#9da6ff" stroke-width="2" points="431.626,-178.613 401.626,-178.613 389.626,-166.613 389.626,-154.613 401.626,-142.613 431.626,-142.613 443.626,-154.613 443.626,-166.613 431.626,-178.613"/>
<path fill="#9da6ff" stroke="#9da6ff" stroke-width="2" d="M401.626,-178.613C395.626,-178.613 389.626,-172.613 389.626,-166.613"/>
<path fill="#9da6ff" stroke="#9da6ff" stroke-width="2" d="M389.626,-154.613C389.626,-148.613 395.626,-142.613 401.626,-142.613"/>
<path fill="#9da6ff" stroke="#9da6ff" stroke-width="2" d="M431.626,-142.613C437.626,-142.613 443.626,-148.613 443.626,-154.613"/>
<path fill="#9da6ff" stroke="#9da6ff" stroke-width="2" d="M443.626,-166.613C443.626,-172.613 437.626,-178.613 431.626,-178.613"/>
<polyline fill="none" stroke="white" stroke-width="2" points="431.626,-178.613 401.626,-178.613 "/>
<path fill="none" stroke="white" stroke-width="2" d="M401.626,-178.613C395.626,-178.613 389.626,-172.613 389.626,-166.613"/>
<polyline fill="none" stroke="white" stroke-width="2" points="389.626,-166.613 389.626,-154.613 "/>
<path fill="none" stroke="white" stroke-width="2" d="M389.626,-154.613C389.626,-148.613 395.626,-142.613 401.626,-142.613"/>
<polyline fill="none" stroke="white" stroke-width="2" points="401.626,-142.613 431.626,-142.613 "/>
<path fill="none" stroke="white" stroke-width="2" d="M431.626,-142.613C437.626,-142.613 443.626,-148.613 443.626,-154.613"/>
<polyline fill="none" stroke="white" stroke-width="2" points="443.626,-154.613 443.626,-166.613 "/>
<path fill="none" stroke="white" stroke-width="2" d="M443.626,-166.613C443.626,-172.613 437.626,-178.613 431.626,-178.613"/>
<text text-anchor="middle" x="416.626" y="-158.113" font-family="Helvetica,sans-Serif" font-size="10.00">HOXA6</text>
</a>
</g>
<!-- HOXA6&#45;&gt;EVX2 -->
<g id="edge52" class="edge"><title>HOXA6&#45;&gt;EVX2</title>
<a xlink:title="EVX2: 0.106||remove12root">
<path fill="none" stroke="#a8b0ff" stroke-width="3" d="M389.538,-167.871C354.888,-177.156 294.817,-193.252 256.755,-203.45"/>
<polygon fill="#a8b0ff" stroke="#a8b0ff" points="255.987,-200.757 248.984,-205.533 257.436,-206.167 255.987,-200.757"/>
</a>
</g>
<!-- HOXA6&#45;&gt;MEIS1 -->
<g id="edge50" class="edge"><title>HOXA6&#45;&gt;MEIS1</title>
<a xlink:title="MEIS1: 0.054||remove3root">
<path fill="none" stroke="#e8b9ff" stroke-width="3" d="M389.538,-160.613C320.826,-160.613 139.742,-160.613 62.61,-160.613"/>
<polygon fill="#e8b9ff" stroke="#e8b9ff" points="62.1678,-157.813 54.1677,-160.613 62.1677,-163.413 62.1678,-157.813"/>
</a>
</g>
</g>
</svg>
