<?xml version="1.0" encoding="UTF-8" standalone="no"?>
<!DOCTYPE svg PUBLIC "-//W3C//DTD SVG 1.1//EN"
 "http://www.w3.org/Graphics/SVG/1.1/DTD/svg11.dtd">
<!-- Generated by graphviz version 2.28.0 (20110630.0925)
 -->
<!-- Title: _anonymous_0 Pages: 1 -->
<svg width="439pt" height="366pt"
 viewBox="0.00 0.00 439.25 366.45" xmlns="http://www.w3.org/2000/svg" xmlns:xlink="http://www.w3.org/1999/xlink">
<g id="graph1" class="graph" transform="scale(1 1) rotate(0) translate(4 362.449)">
<title>_anonymous_0</title>
<polygon fill="white" stroke="white" points="-4,5 -4,-362.449 436.249,-362.449 436.249,5 -4,5"/>
<!-- YBX1_FOS_NFYC_NFYA_NFYB_CEBPZ -->
<g id="node1" class="node"><title>YBX1_FOS_NFYC_NFYA_NFYB_CEBPZ</title>
<a xlink:href="YBX1_FOS_NFYC_NFYA_NFYB_CEBPZ.svg" xlink:title="Z&#45;value: 1.883||remove16">
<polygon fill="#3247ff" stroke="#3247ff" stroke-width="2" points="191.5,-79.2 12.5,-79.2 0.5,-67.2 0.5,-55.2 12.5,-43.2 191.5,-43.2 203.5,-55.2 203.5,-67.2 191.5,-79.2"/>
<path fill="#3247ff" stroke="#3247ff" stroke-width="2" d="M12.5,-79.2C6.5,-79.2 0.5,-73.2 0.5,-67.2"/>
<path fill="#3247ff" stroke="#3247ff" stroke-width="2" d="M0.5,-55.2C0.5,-49.2 6.5,-43.2 12.5,-43.2"/>
<path fill="#3247ff" stroke="#3247ff" stroke-width="2" d="M191.5,-43.2C197.5,-43.2 203.5,-49.2 203.5,-55.2"/>
<path fill="#3247ff" stroke="#3247ff" stroke-width="2" d="M203.5,-67.2C203.5,-73.2 197.5,-79.2 191.5,-79.2"/>
<polyline fill="none" stroke="white" stroke-width="2" points="191.5,-79.2 12.5,-79.2 "/>
<path fill="none" stroke="white" stroke-width="2" d="M12.5,-79.2C6.5,-79.2 0.5,-73.2 0.5,-67.2"/>
<polyline fill="none" stroke="white" stroke-width="2" points="0.5,-67.2 0.5,-55.2 "/>
<path fill="none" stroke="white" stroke-width="2" d="M0.5,-55.2C0.5,-49.2 6.5,-43.2 12.5,-43.2"/>
<polyline fill="none" stroke="white" stroke-width="2" points="12.5,-43.2 191.5,-43.2 "/>
<path fill="none" stroke="white" stroke-width="2" d="M191.5,-43.2C197.5,-43.2 203.5,-49.2 203.5,-55.2"/>
<polyline fill="none" stroke="white" stroke-width="2" points="203.5,-55.2 203.5,-67.2 "/>
<path fill="none" stroke="white" stroke-width="2" d="M203.5,-67.2C203.5,-73.2 197.5,-79.2 191.5,-79.2"/>
<text text-anchor="middle" x="102" y="-58.7" font-family="Helvetica,sans-Serif" font-size="10.00" fill="white">YBX1_FOS_NFYC_NFYA_NFYB_CEBPZ</text>
</a>
</g>
<!-- YBX1_FOS_NFYC_NFYA_NFYB_CEBPZ&#45;&gt;YBX1_FOS_NFYC_NFYA_NFYB_CEBPZ -->
<g id="edge10" class="edge"><title>YBX1_FOS_NFYC_NFYA_NFYB_CEBPZ&#45;&gt;YBX1_FOS_NFYC_NFYA_NFYB_CEBPZ</title>
<a xlink:title="NFYC: 1.015||remove16">
<path fill="none" stroke="#c752ff" stroke-width="3" d="M204.418,-66.7927C215.134,-65.701 222,-63.8367 222,-61.2 222,-59.3049 218.453,-57.8088 212.479,-56.7118"/>
<polygon fill="#c752ff" stroke="#c752ff" points="212.724,-53.9193 204.418,-55.6073 211.964,-59.4675 212.724,-53.9193"/>
</a>
</g>
<!-- GATA1_GATA4 -->
<g id="node2" class="node"><title>GATA1_GATA4</title>
<a xlink:href="GATA1_GATA4.svg" xlink:title="Z&#45;value: 1.000||remove29">
<polygon fill="#ff7a7a" stroke="#ff7a7a" stroke-width="2" points="251.025,-197.225 189.025,-197.225 177.025,-185.225 177.025,-173.225 189.025,-161.225 251.025,-161.225 263.025,-173.225 263.025,-185.225 251.025,-197.225"/>
<path fill="#ff7a7a" stroke="#ff7a7a" stroke-width="2" d="M189.025,-197.225C183.025,-197.225 177.025,-191.225 177.025,-185.225"/>
<path fill="#ff7a7a" stroke="#ff7a7a" stroke-width="2" d="M177.025,-173.225C177.025,-167.225 183.025,-161.225 189.025,-161.225"/>
<path fill="#ff7a7a" stroke="#ff7a7a" stroke-width="2" d="M251.025,-161.225C257.025,-161.225 263.025,-167.225 263.025,-173.225"/>
<path fill="#ff7a7a" stroke="#ff7a7a" stroke-width="2" d="M263.025,-185.225C263.025,-191.225 257.025,-197.225 251.025,-197.225"/>
<polyline fill="none" stroke="white" stroke-width="2" points="251.025,-197.225 189.025,-197.225 "/>
<path fill="none" stroke="white" stroke-width="2" d="M189.025,-197.225C183.025,-197.225 177.025,-191.225 177.025,-185.225"/>
<polyline fill="none" stroke="white" stroke-width="2" points="177.025,-185.225 177.025,-173.225 "/>
<path fill="none" stroke="white" stroke-width="2" d="M177.025,-173.225C177.025,-167.225 183.025,-161.225 189.025,-161.225"/>
<polyline fill="none" stroke="white" stroke-width="2" points="189.025,-161.225 251.025,-161.225 "/>
<path fill="none" stroke="white" stroke-width="2" d="M251.025,-161.225C257.025,-161.225 263.025,-167.225 263.025,-173.225"/>
<polyline fill="none" stroke="white" stroke-width="2" points="263.025,-173.225 263.025,-185.225 "/>
<path fill="none" stroke="white" stroke-width="2" d="M263.025,-185.225C263.025,-191.225 257.025,-197.225 251.025,-197.225"/>
<text text-anchor="middle" x="220.025" y="-176.725" font-family="Helvetica,sans-Serif" font-size="10.00">GATA1_GATA4</text>
</a>
</g>
<!-- YBX1_FOS_NFYC_NFYA_NFYB_CEBPZ&#45;&gt;GATA1_GATA4 -->
<g id="edge2" class="edge"><title>YBX1_FOS_NFYC_NFYA_NFYB_CEBPZ&#45;&gt;GATA1_GATA4</title>
<a xlink:title="GATA4: 0.176||remove16root">
<path fill="none" stroke="#b6beff" stroke-width="3" d="M120.183,-79.3827C140.602,-99.8017 173.813,-133.013 196.269,-155.469"/>
<polygon fill="#b6beff" stroke="#b6beff" points="194.378,-157.538 202.015,-161.215 198.338,-153.578 194.378,-157.538"/>
</a>
</g>
<!-- RCOR1_MTA3 -->
<g id="node4" class="node"><title>RCOR1_MTA3</title>
<a xlink:href="RCOR1_MTA3.svg" xlink:title="Z&#45;value: 1.731||remove23">
<polygon fill="#3f52ff" stroke="#3f52ff" stroke-width="2" points="206.075,-36 147.575,-36 135.575,-24 135.575,-12 147.575,-3.19744e-14 206.075,-3.19744e-14 218.075,-12 218.075,-24 206.075,-36"/>
<path fill="#3f52ff" stroke="#3f52ff" stroke-width="2" d="M147.575,-36C141.575,-36 135.575,-30 135.575,-24"/>
<path fill="#3f52ff" stroke="#3f52ff" stroke-width="2" d="M135.575,-12C135.575,-6 141.575,-3.19744e-14 147.575,-3.19744e-14"/>
<path fill="#3f52ff" stroke="#3f52ff" stroke-width="2" d="M206.075,-3.19744e-14C212.075,-3.19744e-14 218.075,-6 218.075,-12"/>
<path fill="#3f52ff" stroke="#3f52ff" stroke-width="2" d="M218.075,-24C218.075,-30 212.075,-36 206.075,-36"/>
<polyline fill="none" stroke="white" stroke-width="2" points="206.075,-36 147.575,-36 "/>
<path fill="none" stroke="white" stroke-width="2" d="M147.575,-36C141.575,-36 135.575,-30 135.575,-24"/>
<polyline fill="none" stroke="white" stroke-width="2" points="135.575,-24 135.575,-12 "/>
<path fill="none" stroke="white" stroke-width="2" d="M135.575,-12C135.575,-6 141.575,-3.19744e-14 147.575,-3.19744e-14"/>
<polyline fill="none" stroke="white" stroke-width="2" points="147.575,-3.19744e-14 206.075,-3.19744e-14 "/>
<path fill="none" stroke="white" stroke-width="2" d="M206.075,-3.19744e-14C212.075,-3.19744e-14 218.075,-6 218.075,-12"/>
<polyline fill="none" stroke="white" stroke-width="2" points="218.075,-12 218.075,-24 "/>
<path fill="none" stroke="white" stroke-width="2" d="M218.075,-24C218.075,-30 212.075,-36 206.075,-36"/>
<text text-anchor="middle" x="176.825" y="-15.5" font-family="Helvetica,sans-Serif" font-size="10.00" fill="white">RCOR1_MTA3</text>
</a>
</g>
<!-- YBX1_FOS_NFYC_NFYA_NFYB_CEBPZ&#45;&gt;RCOR1_MTA3 -->
<g id="edge4" class="edge"><title>YBX1_FOS_NFYC_NFYA_NFYB_CEBPZ&#45;&gt;RCOR1_MTA3</title>
<a xlink:title="RCOR1: 0.148||NFYB: 0.666||NFYC: 0.172||YBX1: 0.144||remove16">
<path fill="none" stroke="#e9baff" stroke-width="3" d="M139.996,-38.1126C140.097,-38.0501 140.2,-37.9907 140.304,-37.9344"/>
<path fill="none" stroke="#d57cff" stroke-width="3" d="M140.992,-39.8385C141.097,-39.7822 141.2,-39.7228 141.301,-39.6604"/>
<polygon fill="#d57cff" stroke="#d57cff" points="138.827,-36.7047 133.299,-43.1296 141.627,-41.5544 138.827,-36.7047"/>
<polygon fill="#e9baff" stroke="#e9baff" points="139.882,-42.5618 145.411,-36.1368 137.082,-37.712 139.882,-42.5618"/>
</a>
</g>
<!-- GTF2I -->
<g id="node6" class="node"><title>GTF2I</title>
<a xlink:href="GTF2I.svg" xlink:title="Z&#45;value: 1.592||remove21">
<polygon fill="#4a5cff" stroke="#4a5cff" stroke-width="2" points="278.225,-36 248.225,-36 236.225,-24 236.225,-12 248.225,3.19744e-14 278.225,3.19744e-14 290.225,-12 290.225,-24 278.225,-36"/>
<path fill="#4a5cff" stroke="#4a5cff" stroke-width="2" d="M248.225,-36C242.225,-36 236.225,-30 236.225,-24"/>
<path fill="#4a5cff" stroke="#4a5cff" stroke-width="2" d="M236.225,-12C236.225,-6 242.225,3.19744e-14 248.225,3.19744e-14"/>
<path fill="#4a5cff" stroke="#4a5cff" stroke-width="2" d="M278.225,3.19744e-14C284.225,3.19744e-14 290.225,-6 290.225,-12"/>
<path fill="#4a5cff" stroke="#4a5cff" stroke-width="2" d="M290.225,-24C290.225,-30 284.225,-36 278.225,-36"/>
<polyline fill="none" stroke="white" stroke-width="2" points="278.225,-36 248.225,-36 "/>
<path fill="none" stroke="white" stroke-width="2" d="M248.225,-36C242.225,-36 236.225,-30 236.225,-24"/>
<polyline fill="none" stroke="white" stroke-width="2" points="236.225,-24 236.225,-12 "/>
<path fill="none" stroke="white" stroke-width="2" d="M236.225,-12C236.225,-6 242.225,3.19744e-14 248.225,3.19744e-14"/>
<polyline fill="none" stroke="white" stroke-width="2" points="248.225,3.19744e-14 278.225,3.19744e-14 "/>
<path fill="none" stroke="white" stroke-width="2" d="M278.225,3.19744e-14C284.225,3.19744e-14 290.225,-6 290.225,-12"/>
<polyline fill="none" stroke="white" stroke-width="2" points="290.225,-12 290.225,-24 "/>
<path fill="none" stroke="white" stroke-width="2" d="M290.225,-24C290.225,-30 284.225,-36 278.225,-36"/>
<text text-anchor="middle" x="263.225" y="-15.5" font-family="Helvetica,sans-Serif" font-size="10.00" fill="white">GTF2I</text>
</a>
</g>
<!-- YBX1_FOS_NFYC_NFYA_NFYB_CEBPZ&#45;&gt;GTF2I -->
<g id="edge6" class="edge"><title>YBX1_FOS_NFYC_NFYA_NFYB_CEBPZ&#45;&gt;GTF2I</title>
<a xlink:title="GTF2I: 0.195||NFYB: 0.236||NFYC: 0.075||remove16">
<path fill="none" stroke="#e7b4ff" stroke-width="3" d="M211.179,-42.2703C215.75,-40.9263 220.269,-39.4786 224.632,-37.9371 225.884,-37.4951 227.168,-37.0057 228.433,-36.4926"/>
<path fill="none" stroke="#e5afff" stroke-width="3" d="M211.743,-44.189C216.361,-42.831 220.879,-41.3832 225.298,-39.8229 226.596,-39.3639 227.88,-38.8745 229.184,-38.3462"/>
<polygon fill="#e5afff" stroke="#e5afff" points="210.615,-40.5587 203.667,-45.413 212.126,-45.9511 210.615,-40.5587"/>
<polygon fill="#e7b4ff" stroke="#e7b4ff" points="229.966,-39.9692 236.127,-34.1487 227.681,-34.8565 229.966,-39.9692"/>
</a>
</g>
<!-- E2F7_E2F1 -->
<g id="node8" class="node"><title>E2F7_E2F1</title>
<a xlink:href="E2F7_E2F1.svg" xlink:title="Z&#45;value: 1.367||remove19">
<polygon fill="#5c6dff" stroke="#5c6dff" stroke-width="2" points="360.049,-79.2 316.049,-79.2 304.049,-67.2 304.049,-55.2 316.049,-43.2 360.049,-43.2 372.049,-55.2 372.049,-67.2 360.049,-79.2"/>
<path fill="#5c6dff" stroke="#5c6dff" stroke-width="2" d="M316.049,-79.2C310.049,-79.2 304.049,-73.2 304.049,-67.2"/>
<path fill="#5c6dff" stroke="#5c6dff" stroke-width="2" d="M304.049,-55.2C304.049,-49.2 310.049,-43.2 316.049,-43.2"/>
<path fill="#5c6dff" stroke="#5c6dff" stroke-width="2" d="M360.049,-43.2C366.049,-43.2 372.049,-49.2 372.049,-55.2"/>
<path fill="#5c6dff" stroke="#5c6dff" stroke-width="2" d="M372.049,-67.2C372.049,-73.2 366.049,-79.2 360.049,-79.2"/>
<polyline fill="none" stroke="white" stroke-width="2" points="360.049,-79.2 316.049,-79.2 "/>
<path fill="none" stroke="white" stroke-width="2" d="M316.049,-79.2C310.049,-79.2 304.049,-73.2 304.049,-67.2"/>
<polyline fill="none" stroke="white" stroke-width="2" points="304.049,-67.2 304.049,-55.2 "/>
<path fill="none" stroke="white" stroke-width="2" d="M304.049,-55.2C304.049,-49.2 310.049,-43.2 316.049,-43.2"/>
<polyline fill="none" stroke="white" stroke-width="2" points="316.049,-43.2 360.049,-43.2 "/>
<path fill="none" stroke="white" stroke-width="2" d="M360.049,-43.2C366.049,-43.2 372.049,-49.2 372.049,-55.2"/>
<polyline fill="none" stroke="white" stroke-width="2" points="372.049,-55.2 372.049,-67.2 "/>
<path fill="none" stroke="white" stroke-width="2" d="M372.049,-67.2C372.049,-73.2 366.049,-79.2 360.049,-79.2"/>
<text text-anchor="middle" x="338.049" y="-58.7" font-family="Helvetica,sans-Serif" font-size="10.00" fill="white">E2F7_E2F1</text>
</a>
</g>
<!-- YBX1_FOS_NFYC_NFYA_NFYB_CEBPZ&#45;&gt;E2F7_E2F1 -->
<g id="edge8" class="edge"><title>YBX1_FOS_NFYC_NFYA_NFYB_CEBPZ&#45;&gt;E2F7_E2F1</title>
<a xlink:title="E2F7: 0.059||NFYC: 0.251||YBX1: 0.081||NFYB: 0.068||remove16">
<path fill="none" stroke="#ecc4ff" stroke-width="3" d="M211.82,-60.2C241.665,-60.2 272.213,-60.2 295.78,-60.2"/>
<path fill="none" stroke="#e5adff" stroke-width="3" d="M211.82,-62.2C241.665,-62.2 272.213,-62.2 295.78,-62.2"/>
<polygon fill="#e5adff" stroke="#e5adff" points="211.819,-58.4001 203.819,-61.2 211.819,-64.0001 211.819,-58.4001"/>
<polygon fill="#ecc4ff" stroke="#ecc4ff" points="295.813,-64.0001 303.813,-61.2 295.813,-58.4001 295.813,-64.0001"/>
</a>
</g>
<!-- ELF3_EHF -->
<g id="node11" class="node"><title>ELF3_EHF</title>
<a xlink:href="ELF3_EHF.svg" xlink:title="Z&#45;value: 1.010||remove27">
<polygon fill="#7987ff" stroke="#7987ff" stroke-width="2" points="401.499,-240.425 360.999,-240.425 348.999,-228.425 348.999,-216.425 360.999,-204.425 401.499,-204.425 413.499,-216.425 413.499,-228.425 401.499,-240.425"/>
<path fill="#7987ff" stroke="#7987ff" stroke-width="2" d="M360.999,-240.425C354.999,-240.425 348.999,-234.425 348.999,-228.425"/>
<path fill="#7987ff" stroke="#7987ff" stroke-width="2" d="M348.999,-216.425C348.999,-210.425 354.999,-204.425 360.999,-204.425"/>
<path fill="#7987ff" stroke="#7987ff" stroke-width="2" d="M401.499,-204.425C407.499,-204.425 413.499,-210.425 413.499,-216.425"/>
<path fill="#7987ff" stroke="#7987ff" stroke-width="2" d="M413.499,-228.425C413.499,-234.425 407.499,-240.425 401.499,-240.425"/>
<polyline fill="none" stroke="white" stroke-width="2" points="401.499,-240.425 360.999,-240.425 "/>
<path fill="none" stroke="white" stroke-width="2" d="M360.999,-240.425C354.999,-240.425 348.999,-234.425 348.999,-228.425"/>
<polyline fill="none" stroke="white" stroke-width="2" points="348.999,-228.425 348.999,-216.425 "/>
<path fill="none" stroke="white" stroke-width="2" d="M348.999,-216.425C348.999,-210.425 354.999,-204.425 360.999,-204.425"/>
<polyline fill="none" stroke="white" stroke-width="2" points="360.999,-204.425 401.499,-204.425 "/>
<path fill="none" stroke="white" stroke-width="2" d="M401.499,-204.425C407.499,-204.425 413.499,-210.425 413.499,-216.425"/>
<polyline fill="none" stroke="white" stroke-width="2" points="413.499,-216.425 413.499,-228.425 "/>
<path fill="none" stroke="white" stroke-width="2" d="M413.499,-228.425C413.499,-234.425 407.499,-240.425 401.499,-240.425"/>
<text text-anchor="middle" x="381.249" y="-219.925" font-family="Helvetica,sans-Serif" font-size="10.00">ELF3_EHF</text>
</a>
</g>
<!-- YBX1_FOS_NFYC_NFYA_NFYB_CEBPZ&#45;&gt;ELF3_EHF -->
<g id="edge12" class="edge"><title>YBX1_FOS_NFYC_NFYA_NFYB_CEBPZ&#45;&gt;ELF3_EHF</title>
<a xlink:title="ELF3: 0.033||CEBPZ: 0.158||NFYC: 0.003||remove14root">
<path fill="none" stroke="#edc8ff" stroke-width="3" d="M140.936,-82.5247C194.148,-113.247 289.72,-168.425 343.064,-199.224"/>
<path fill="none" stroke="#e8b9ff" stroke-width="3" d="M139.936,-84.2568C193.148,-114.979 288.72,-170.157 342.064,-200.956"/>
<polygon fill="#e8b9ff" stroke="#e8b9ff" points="141.549,-80.8004 133.221,-79.2252 138.749,-85.6501 141.549,-80.8004"/>
<polygon fill="#edc8ff" stroke="#edc8ff" points="341.474,-202.694 349.802,-204.269 344.274,-197.844 341.474,-202.694"/>
</a>
</g>
<!-- GATA1_GATA4&#45;&gt;ELF3_EHF -->
<g id="edge26" class="edge"><title>GATA1_GATA4&#45;&gt;ELF3_EHF</title>
<a xlink:title="EHF: 0.411||remove27root">
<path fill="none" stroke="#ff9a9a" stroke-width="3" d="M263.23,-190.801C287.448,-197.291 317.455,-205.331 341.151,-211.68"/>
<polygon fill="#ff9a9a" stroke="#ff9a9a" points="340.475,-214.398 348.927,-213.764 341.925,-208.989 340.475,-214.398"/>
</a>
</g>
<!-- NR5A2 -->
<g id="node13" class="node"><title>NR5A2</title>
<a xlink:href="NR5A2.svg" xlink:title="Z&#45;value: 0.899||remove15">
<polygon fill="#828fff" stroke="#828fff" stroke-width="2" points="353.049,-315.249 323.049,-315.249 311.049,-303.249 311.049,-291.249 323.049,-279.249 353.049,-279.249 365.049,-291.249 365.049,-303.249 353.049,-315.249"/>
<path fill="#828fff" stroke="#828fff" stroke-width="2" d="M323.049,-315.249C317.049,-315.249 311.049,-309.249 311.049,-303.249"/>
<path fill="#828fff" stroke="#828fff" stroke-width="2" d="M311.049,-291.249C311.049,-285.249 317.049,-279.249 323.049,-279.249"/>
<path fill="#828fff" stroke="#828fff" stroke-width="2" d="M353.049,-279.249C359.049,-279.249 365.049,-285.249 365.049,-291.249"/>
<path fill="#828fff" stroke="#828fff" stroke-width="2" d="M365.049,-303.249C365.049,-309.249 359.049,-315.249 353.049,-315.249"/>
<polyline fill="none" stroke="white" stroke-width="2" points="353.049,-315.249 323.049,-315.249 "/>
<path fill="none" stroke="white" stroke-width="2" d="M323.049,-315.249C317.049,-315.249 311.049,-309.249 311.049,-303.249"/>
<polyline fill="none" stroke="white" stroke-width="2" points="311.049,-303.249 311.049,-291.249 "/>
<path fill="none" stroke="white" stroke-width="2" d="M311.049,-291.249C311.049,-285.249 317.049,-279.249 323.049,-279.249"/>
<polyline fill="none" stroke="white" stroke-width="2" points="323.049,-279.249 353.049,-279.249 "/>
<path fill="none" stroke="white" stroke-width="2" d="M353.049,-279.249C359.049,-279.249 365.049,-285.249 365.049,-291.249"/>
<polyline fill="none" stroke="white" stroke-width="2" points="365.049,-291.249 365.049,-303.249 "/>
<path fill="none" stroke="white" stroke-width="2" d="M365.049,-303.249C365.049,-309.249 359.049,-315.249 353.049,-315.249"/>
<text text-anchor="middle" x="338.049" y="-294.749" font-family="Helvetica,sans-Serif" font-size="10.00">NR5A2</text>
</a>
</g>
<!-- GATA1_GATA4&#45;&gt;NR5A2 -->
<g id="edge14" class="edge"><title>GATA1_GATA4&#45;&gt;NR5A2</title>
<a xlink:title="NR5A2: 0.105||GATA1: 0.175||remove15root">
<path fill="none" stroke="#ffbfbf" stroke-width="3" d="M244.678,-202.464C265.172,-222.958 294.52,-252.306 314.968,-272.754"/>
<path fill="none" stroke="#b6beff" stroke-width="3" d="M243.264,-203.878C263.758,-224.372 293.106,-253.72 313.554,-274.168"/>
<polygon fill="#b6beff" stroke="#b6beff" points="245.844,-201.084 238.207,-197.407 241.884,-205.044 245.844,-201.084"/>
<polygon fill="#ffbfbf" stroke="#ffbfbf" points="312.403,-275.563 320.04,-279.24 316.363,-271.603 312.403,-275.563"/>
</a>
</g>
<!-- ARID5B -->
<g id="node15" class="node"><title>ARID5B</title>
<a xlink:href="ARID5B.svg" xlink:title="Z&#45;value: 0.249||remove28">
<polygon fill="#b7beff" stroke="#b7beff" stroke-width="2" points="278.225,-358.449 248.225,-358.449 236.225,-346.449 236.225,-334.449 248.225,-322.449 278.225,-322.449 290.225,-334.449 290.225,-346.449 278.225,-358.449"/>
<path fill="#b7beff" stroke="#b7beff" stroke-width="2" d="M248.225,-358.449C242.225,-358.449 236.225,-352.449 236.225,-346.449"/>
<path fill="#b7beff" stroke="#b7beff" stroke-width="2" d="M236.225,-334.449C236.225,-328.449 242.225,-322.449 248.225,-322.449"/>
<path fill="#b7beff" stroke="#b7beff" stroke-width="2" d="M278.225,-322.449C284.225,-322.449 290.225,-328.449 290.225,-334.449"/>
<path fill="#b7beff" stroke="#b7beff" stroke-width="2" d="M290.225,-346.449C290.225,-352.449 284.225,-358.449 278.225,-358.449"/>
<polyline fill="none" stroke="white" stroke-width="2" points="278.225,-358.449 248.225,-358.449 "/>
<path fill="none" stroke="white" stroke-width="2" d="M248.225,-358.449C242.225,-358.449 236.225,-352.449 236.225,-346.449"/>
<polyline fill="none" stroke="white" stroke-width="2" points="236.225,-346.449 236.225,-334.449 "/>
<path fill="none" stroke="white" stroke-width="2" d="M236.225,-334.449C236.225,-328.449 242.225,-322.449 248.225,-322.449"/>
<polyline fill="none" stroke="white" stroke-width="2" points="248.225,-322.449 278.225,-322.449 "/>
<path fill="none" stroke="white" stroke-width="2" d="M278.225,-322.449C284.225,-322.449 290.225,-328.449 290.225,-334.449"/>
<polyline fill="none" stroke="white" stroke-width="2" points="290.225,-334.449 290.225,-346.449 "/>
<path fill="none" stroke="white" stroke-width="2" d="M290.225,-346.449C290.225,-352.449 284.225,-358.449 278.225,-358.449"/>
<text text-anchor="middle" x="263.225" y="-337.949" font-family="Helvetica,sans-Serif" font-size="10.00">ARID5B</text>
</a>
</g>
<!-- GATA1_GATA4&#45;&gt;ARID5B -->
<g id="edge16" class="edge"><title>GATA1_GATA4&#45;&gt;ARID5B</title>
<a xlink:title="ARID5B: 0.579||remove28root">
<path fill="none" stroke="#ff8686" stroke-width="3" d="M224.896,-197.406C232.545,-225.951 247.404,-281.407 256.206,-314.254"/>
<polygon fill="#ff8686" stroke="#ff8686" points="253.529,-315.084 258.305,-322.087 258.938,-313.635 253.529,-315.084"/>
</a>
</g>
<!-- SMAD3 -->
<g id="node17" class="node"><title>SMAD3</title>
<a xlink:href="SMAD3.svg" xlink:title="Z&#45;value: 0.374||remove26">
<polygon fill="#adb5ff" stroke="#adb5ff" stroke-width="2" points="191.825,-358.449 161.825,-358.449 149.825,-346.449 149.825,-334.449 161.825,-322.449 191.825,-322.449 203.825,-334.449 203.825,-346.449 191.825,-358.449"/>
<path fill="#adb5ff" stroke="#adb5ff" stroke-width="2" d="M161.825,-358.449C155.825,-358.449 149.825,-352.449 149.825,-346.449"/>
<path fill="#adb5ff" stroke="#adb5ff" stroke-width="2" d="M149.825,-334.449C149.825,-328.449 155.825,-322.449 161.825,-322.449"/>
<path fill="#adb5ff" stroke="#adb5ff" stroke-width="2" d="M191.825,-322.449C197.825,-322.449 203.825,-328.449 203.825,-334.449"/>
<path fill="#adb5ff" stroke="#adb5ff" stroke-width="2" d="M203.825,-346.449C203.825,-352.449 197.825,-358.449 191.825,-358.449"/>
<polyline fill="none" stroke="white" stroke-width="2" points="191.825,-358.449 161.825,-358.449 "/>
<path fill="none" stroke="white" stroke-width="2" d="M161.825,-358.449C155.825,-358.449 149.825,-352.449 149.825,-346.449"/>
<polyline fill="none" stroke="white" stroke-width="2" points="149.825,-346.449 149.825,-334.449 "/>
<path fill="none" stroke="white" stroke-width="2" d="M149.825,-334.449C149.825,-328.449 155.825,-322.449 161.825,-322.449"/>
<polyline fill="none" stroke="white" stroke-width="2" points="161.825,-322.449 191.825,-322.449 "/>
<path fill="none" stroke="white" stroke-width="2" d="M191.825,-322.449C197.825,-322.449 203.825,-328.449 203.825,-334.449"/>
<polyline fill="none" stroke="white" stroke-width="2" points="203.825,-334.449 203.825,-346.449 "/>
<path fill="none" stroke="white" stroke-width="2" d="M203.825,-346.449C203.825,-352.449 197.825,-358.449 191.825,-358.449"/>
<text text-anchor="middle" x="176.825" y="-337.949" font-family="Helvetica,sans-Serif" font-size="10.00">SMAD3</text>
</a>
</g>
<!-- GATA1_GATA4&#45;&gt;SMAD3 -->
<g id="edge18" class="edge"><title>GATA1_GATA4&#45;&gt;SMAD3</title>
<a xlink:title="SMAD3: 0.327||remove26root">
<path fill="none" stroke="#ffa4a4" stroke-width="3" d="M215.153,-197.406C207.504,-225.951 192.645,-281.407 183.844,-314.254"/>
<polygon fill="#ffa4a4" stroke="#ffa4a4" points="181.111,-313.635 181.745,-322.087 186.52,-315.084 181.111,-313.635"/>
</a>
</g>
<!-- POU6F2 -->
<g id="node19" class="node"><title>POU6F2</title>
<a xlink:href="POU6F2.svg" xlink:title="Z&#45;value: 0.280||remove17">
<polygon fill="#b5bcff" stroke="#b5bcff" stroke-width="2" points="117.25,-315.249 86.75,-315.249 74.75,-303.249 74.75,-291.249 86.75,-279.249 117.25,-279.249 129.25,-291.249 129.25,-303.249 117.25,-315.249"/>
<path fill="#b5bcff" stroke="#b5bcff" stroke-width="2" d="M86.75,-315.249C80.75,-315.249 74.75,-309.249 74.75,-303.249"/>
<path fill="#b5bcff" stroke="#b5bcff" stroke-width="2" d="M74.75,-291.249C74.75,-285.249 80.75,-279.249 86.75,-279.249"/>
<path fill="#b5bcff" stroke="#b5bcff" stroke-width="2" d="M117.25,-279.249C123.25,-279.249 129.25,-285.249 129.25,-291.249"/>
<path fill="#b5bcff" stroke="#b5bcff" stroke-width="2" d="M129.25,-303.249C129.25,-309.249 123.25,-315.249 117.25,-315.249"/>
<polyline fill="none" stroke="white" stroke-width="2" points="117.25,-315.249 86.75,-315.249 "/>
<path fill="none" stroke="white" stroke-width="2" d="M86.75,-315.249C80.75,-315.249 74.75,-309.249 74.75,-303.249"/>
<polyline fill="none" stroke="white" stroke-width="2" points="74.75,-303.249 74.75,-291.249 "/>
<path fill="none" stroke="white" stroke-width="2" d="M74.75,-291.249C74.75,-285.249 80.75,-279.249 86.75,-279.249"/>
<polyline fill="none" stroke="white" stroke-width="2" points="86.75,-279.249 117.25,-279.249 "/>
<path fill="none" stroke="white" stroke-width="2" d="M117.25,-279.249C123.25,-279.249 129.25,-285.249 129.25,-291.249"/>
<polyline fill="none" stroke="white" stroke-width="2" points="129.25,-291.249 129.25,-303.249 "/>
<path fill="none" stroke="white" stroke-width="2" d="M129.25,-303.249C129.25,-309.249 123.25,-315.249 117.25,-315.249"/>
<text text-anchor="middle" x="102" y="-294.749" font-family="Helvetica,sans-Serif" font-size="10.00">POU6F2</text>
</a>
</g>
<!-- GATA1_GATA4&#45;&gt;POU6F2 -->
<g id="edge20" class="edge"><title>GATA1_GATA4&#45;&gt;POU6F2</title>
<a xlink:title="POU6F2: 0.181||remove17root">
<path fill="none" stroke="#ffb6b6" stroke-width="3" d="M201.842,-197.407C181.423,-217.826 148.212,-251.037 125.755,-273.494"/>
<polygon fill="#ffb6b6" stroke="#ffb6b6" points="123.687,-271.603 120.01,-279.24 127.646,-275.563 123.687,-271.603"/>
</a>
</g>
<!-- GATA6 -->
<g id="node21" class="node"><title>GATA6</title>
<a xlink:href="GATA6.svg" xlink:title="Z&#45;value: 0.379||remove24">
<polygon fill="#adb5ff" stroke="#adb5ff" stroke-width="2" points="73.8,-240.425 43.8,-240.425 31.8,-228.425 31.8,-216.425 43.8,-204.425 73.8,-204.425 85.8,-216.425 85.8,-228.425 73.8,-240.425"/>
<path fill="#adb5ff" stroke="#adb5ff" stroke-width="2" d="M43.8,-240.425C37.8,-240.425 31.8,-234.425 31.8,-228.425"/>
<path fill="#adb5ff" stroke="#adb5ff" stroke-width="2" d="M31.8,-216.425C31.8,-210.425 37.8,-204.425 43.8,-204.425"/>
<path fill="#adb5ff" stroke="#adb5ff" stroke-width="2" d="M73.8,-204.425C79.8,-204.425 85.8,-210.425 85.8,-216.425"/>
<path fill="#adb5ff" stroke="#adb5ff" stroke-width="2" d="M85.8,-228.425C85.8,-234.425 79.8,-240.425 73.8,-240.425"/>
<polyline fill="none" stroke="white" stroke-width="2" points="73.8,-240.425 43.8,-240.425 "/>
<path fill="none" stroke="white" stroke-width="2" d="M43.8,-240.425C37.8,-240.425 31.8,-234.425 31.8,-228.425"/>
<polyline fill="none" stroke="white" stroke-width="2" points="31.8,-228.425 31.8,-216.425 "/>
<path fill="none" stroke="white" stroke-width="2" d="M31.8,-216.425C31.8,-210.425 37.8,-204.425 43.8,-204.425"/>
<polyline fill="none" stroke="white" stroke-width="2" points="43.8,-204.425 73.8,-204.425 "/>
<path fill="none" stroke="white" stroke-width="2" d="M73.8,-204.425C79.8,-204.425 85.8,-210.425 85.8,-216.425"/>
<polyline fill="none" stroke="white" stroke-width="2" points="85.8,-216.425 85.8,-228.425 "/>
<path fill="none" stroke="white" stroke-width="2" d="M85.8,-228.425C85.8,-234.425 79.8,-240.425 73.8,-240.425"/>
<text text-anchor="middle" x="58.8" y="-219.925" font-family="Helvetica,sans-Serif" font-size="10.00">GATA6</text>
</a>
</g>
<!-- GATA1_GATA4&#45;&gt;GATA6 -->
<g id="edge22" class="edge"><title>GATA1_GATA4&#45;&gt;GATA6</title>
<a xlink:title="GATA6: 0.284||remove24root">
<path fill="none" stroke="#ffa9a9" stroke-width="3" d="M176.819,-190.801C150.841,-197.762 118.203,-206.508 93.8375,-213.036"/>
<polygon fill="#ffa9a9" stroke="#ffa9a9" points="92.9159,-210.384 85.9132,-215.16 94.3653,-215.794 92.9159,-210.384"/>
</a>
</g>
<!-- THRA_RXRB -->
<g id="node23" class="node"><title>THRA_RXRB</title>
<a xlink:href="THRA_RXRB.svg" xlink:title="Z&#45;value: 0.556||remove20">
<polygon fill="#9ea8ff" stroke="#9ea8ff" stroke-width="2" points="85.8,-154.025 31.8,-154.025 19.8,-142.025 19.8,-130.025 31.8,-118.025 85.8,-118.025 97.8,-130.025 97.8,-142.025 85.8,-154.025"/>
<path fill="#9ea8ff" stroke="#9ea8ff" stroke-width="2" d="M31.8,-154.025C25.8,-154.025 19.8,-148.025 19.8,-142.025"/>
<path fill="#9ea8ff" stroke="#9ea8ff" stroke-width="2" d="M19.8,-130.025C19.8,-124.025 25.8,-118.025 31.8,-118.025"/>
<path fill="#9ea8ff" stroke="#9ea8ff" stroke-width="2" d="M85.8,-118.025C91.8,-118.025 97.8,-124.025 97.8,-130.025"/>
<path fill="#9ea8ff" stroke="#9ea8ff" stroke-width="2" d="M97.8,-142.025C97.8,-148.025 91.8,-154.025 85.8,-154.025"/>
<polyline fill="none" stroke="white" stroke-width="2" points="85.8,-154.025 31.8,-154.025 "/>
<path fill="none" stroke="white" stroke-width="2" d="M31.8,-154.025C25.8,-154.025 19.8,-148.025 19.8,-142.025"/>
<polyline fill="none" stroke="white" stroke-width="2" points="19.8,-142.025 19.8,-130.025 "/>
<path fill="none" stroke="white" stroke-width="2" d="M19.8,-130.025C19.8,-124.025 25.8,-118.025 31.8,-118.025"/>
<polyline fill="none" stroke="white" stroke-width="2" points="31.8,-118.025 85.8,-118.025 "/>
<path fill="none" stroke="white" stroke-width="2" d="M85.8,-118.025C91.8,-118.025 97.8,-124.025 97.8,-130.025"/>
<polyline fill="none" stroke="white" stroke-width="2" points="97.8,-130.025 97.8,-142.025 "/>
<path fill="none" stroke="white" stroke-width="2" d="M97.8,-142.025C97.8,-148.025 91.8,-154.025 85.8,-154.025"/>
<text text-anchor="middle" x="58.8" y="-133.525" font-family="Helvetica,sans-Serif" font-size="10.00">THRA_RXRB</text>
</a>
</g>
<!-- GATA1_GATA4&#45;&gt;THRA_RXRB -->
<g id="edge24" class="edge"><title>GATA1_GATA4&#45;&gt;THRA_RXRB</title>
<a xlink:title="RXRB: 0.222||remove20root">
<path fill="none" stroke="#ffb1b1" stroke-width="3" d="M176.819,-167.648C154.875,-161.768 128.18,-154.615 105.732,-148.6"/>
<polygon fill="#ffb1b1" stroke="#ffb1b1" points="106.436,-145.89 97.9839,-146.524 104.987,-151.299 106.436,-145.89"/>
</a>
</g>
<!-- RCOR1_MTA3&#45;&gt;GATA1_GATA4 -->
<g id="edge32" class="edge"><title>RCOR1_MTA3&#45;&gt;GATA1_GATA4</title>
<a xlink:title="GATA4: 0.251||GATA1: 0.130||remove23root">
<path fill="none" stroke="#adb6ff" stroke-width="3" d="M217.309,-36.2392C218.423,-37.5129 219.435,-38.8714 220.32,-40.32 241.347,-74.7447 234.77,-123.487 227.684,-153.139"/>
<polygon fill="#adb6ff" stroke="#adb6ff" points="224.951,-152.525 225.695,-160.969 230.379,-153.905 224.951,-152.525"/>
</a>
</g>
<!-- RCOR1_MTA3&#45;&gt;RCOR1_MTA3 -->
<g id="edge36" class="edge"><title>RCOR1_MTA3&#45;&gt;RCOR1_MTA3</title>
<a xlink:title="RCOR1: 1.276||remove23">
<path fill="none" stroke="#bd32ff" stroke-width="3" d="M218.179,-24.6445C228.296,-24.1523 235.825,-21.9375 235.825,-18 235.825,-15.2314 232.103,-13.3145 226.376,-12.2493"/>
<polygon fill="#bd32ff" stroke="#bd32ff" points="226.436,-9.43931 218.179,-11.3555 225.829,-15.0063 226.436,-9.43931"/>
</a>
</g>
<!-- RCOR1_MTA3&#45;&gt;GTF2I -->
<g id="edge40" class="edge"><title>RCOR1_MTA3&#45;&gt;GTF2I</title>
<a xlink:title="GTF2I: 0.468||remove21">
<path fill="none" stroke="#dc93ff" stroke-width="3" d="M218.253,-18C221.474,-18 224.708,-18 227.884,-18"/>
<polygon fill="#dc93ff" stroke="#dc93ff" points="228.104,-20.8001 236.104,-18 228.104,-15.2001 228.104,-20.8001"/>
</a>
</g>
<!-- RCOR1_MTA3&#45;&gt;E2F7_E2F1 -->
<g id="edge44" class="edge"><title>RCOR1_MTA3&#45;&gt;E2F7_E2F1</title>
<a xlink:title="E2F7: 0.198||RCOR1: 0.305||remove19">
<path fill="none" stroke="#e7b4ff" stroke-width="3" d="M226.211,-36.0879C228.218,-36.7295 230.223,-37.3459 232.186,-37.9203 252.925,-43.9946 276.487,-49.1216 296.094,-52.9148"/>
<path fill="none" stroke="#e2a7ff" stroke-width="3" d="M225.602,-37.9929C227.631,-38.6412 229.636,-39.2576 231.624,-39.8397 252.5,-45.9489 276.062,-51.0759 295.714,-54.8784"/>
<polygon fill="#e2a7ff" stroke="#e2a7ff" points="226.57,-34.3099 218.095,-34.4315 224.796,-39.6215 226.57,-34.3099"/>
<polygon fill="#e7b4ff" stroke="#e7b4ff" points="295.394,-56.6498 303.776,-55.3898 296.438,-51.1479 295.394,-56.6498"/>
</a>
</g>
<!-- RCOR1_MTA3&#45;&gt;ELF3_EHF -->
<g id="edge46" class="edge"><title>RCOR1_MTA3&#45;&gt;ELF3_EHF</title>
<a xlink:title="EHF: 0.067||remove7root">
<path fill="none" stroke="#ecc4ff" stroke-width="3" d="M214.407,-36.1075C216.457,-37.4556 218.443,-38.8618 220.32,-40.32 281.166,-87.5996 337.101,-160.102 364.165,-197.776"/>
<polygon fill="#ecc4ff" stroke="#ecc4ff" points="361.955,-199.5 368.877,-204.392 366.516,-196.251 361.955,-199.5"/>
</a>
</g>
<!-- RCOR1_MTA3&#45;&gt;NR5A2 -->
<g id="edge30" class="edge"><title>RCOR1_MTA3&#45;&gt;NR5A2</title>
<a xlink:title="NR5A2: 0.331||remove15">
<path fill="none" stroke="#e1a4ff" stroke-width="3" d="M215.776,-36.1414C217.386,-37.4558 218.912,-38.848 220.32,-40.32 286.019,-109.006 319.7,-220.86 332.201,-271.221"/>
<polygon fill="#e1a4ff" stroke="#e1a4ff" points="329.49,-271.925 334.093,-279.042 334.933,-270.608 329.49,-271.925"/>
</a>
</g>
<!-- RCOR1_MTA3&#45;&gt;SMAD3 -->
<g id="edge34" class="edge"><title>RCOR1_MTA3&#45;&gt;SMAD3</title>
<a xlink:title="SMAD3: 0.247||remove22root">
<path fill="none" stroke="#e5aeff" stroke-width="3" d="M217.309,-36.2392C218.423,-37.5129 219.435,-38.8714 220.32,-40.32 229.995,-56.1589 225.644,-64.3001 220.32,-82.08 208.681,-120.948 181.784,-119.477 170.145,-158.345 154.097,-211.935 163.405,-278.374 170.698,-314.345"/>
<polygon fill="#e5aeff" stroke="#e5aeff" points="168.004,-315.139 172.399,-322.386 173.482,-313.98 168.004,-315.139"/>
</a>
</g>
<!-- RCOR1_MTA3&#45;&gt;POU6F2 -->
<g id="edge38" class="edge"><title>RCOR1_MTA3&#45;&gt;POU6F2</title>
<a xlink:title="POU6F2: 0.030||remove2root">
<path fill="none" stroke="#edc8ff" stroke-width="3" d="M217.309,-36.2392C218.423,-37.5129 219.435,-38.8714 220.32,-40.32 229.995,-56.1589 225.644,-64.3001 220.32,-82.08 208.681,-120.948 190.27,-123.114 170.145,-158.345 148.223,-196.72 126.332,-243.144 113.486,-271.419"/>
<polygon fill="#edc8ff" stroke="#edc8ff" points="110.853,-270.448 110.111,-278.892 115.956,-272.754 110.853,-270.448"/>
</a>
</g>
<!-- RCOR1_MTA3&#45;&gt;THRA_RXRB -->
<g id="edge42" class="edge"><title>RCOR1_MTA3&#45;&gt;THRA_RXRB</title>
<a xlink:title="THRA: 0.312||remove20">
<path fill="none" stroke="#e2a6ff" stroke-width="3" d="M217.309,-36.2392C218.423,-37.5129 219.435,-38.8714 220.32,-40.32 229.995,-56.1589 231.168,-67.0202 220.32,-82.08 194.536,-117.875 143.935,-130.269 106.207,-134.381"/>
<polygon fill="#e2a6ff" stroke="#e2a6ff" points="105.581,-131.628 97.8842,-135.178 106.115,-137.203 105.581,-131.628"/>
</a>
</g>
<!-- SMAD1 -->
<g id="node26" class="node"><title>SMAD1</title>
<a xlink:href="SMAD1.svg" xlink:title="Z&#45;value: 1.536||remove18">
<polygon fill="#4f60ff" stroke="#4f60ff" stroke-width="2" points="396.249,-154.025 366.249,-154.025 354.249,-142.025 354.249,-130.025 366.249,-118.025 396.249,-118.025 408.249,-130.025 408.249,-142.025 396.249,-154.025"/>
<path fill="#4f60ff" stroke="#4f60ff" stroke-width="2" d="M366.249,-154.025C360.249,-154.025 354.249,-148.025 354.249,-142.025"/>
<path fill="#4f60ff" stroke="#4f60ff" stroke-width="2" d="M354.249,-130.025C354.249,-124.025 360.249,-118.025 366.249,-118.025"/>
<path fill="#4f60ff" stroke="#4f60ff" stroke-width="2" d="M396.249,-118.025C402.249,-118.025 408.249,-124.025 408.249,-130.025"/>
<path fill="#4f60ff" stroke="#4f60ff" stroke-width="2" d="M408.249,-142.025C408.249,-148.025 402.249,-154.025 396.249,-154.025"/>
<polyline fill="none" stroke="white" stroke-width="2" points="396.249,-154.025 366.249,-154.025 "/>
<path fill="none" stroke="white" stroke-width="2" d="M366.249,-154.025C360.249,-154.025 354.249,-148.025 354.249,-142.025"/>
<polyline fill="none" stroke="white" stroke-width="2" points="354.249,-142.025 354.249,-130.025 "/>
<path fill="none" stroke="white" stroke-width="2" d="M354.249,-130.025C354.249,-124.025 360.249,-118.025 366.249,-118.025"/>
<polyline fill="none" stroke="white" stroke-width="2" points="366.249,-118.025 396.249,-118.025 "/>
<path fill="none" stroke="white" stroke-width="2" d="M396.249,-118.025C402.249,-118.025 408.249,-124.025 408.249,-130.025"/>
<polyline fill="none" stroke="white" stroke-width="2" points="408.249,-130.025 408.249,-142.025 "/>
<path fill="none" stroke="white" stroke-width="2" d="M408.249,-142.025C408.249,-148.025 402.249,-154.025 396.249,-154.025"/>
<text text-anchor="middle" x="381.249" y="-133.525" font-family="Helvetica,sans-Serif" font-size="10.00" fill="white">SMAD1</text>
</a>
</g>
<!-- RCOR1_MTA3&#45;&gt;SMAD1 -->
<g id="edge28" class="edge"><title>RCOR1_MTA3&#45;&gt;SMAD1</title>
<a xlink:title="SMAD1: 0.020||RCOR1: 0.139||remove13root">
<path fill="none" stroke="#edc9ff" stroke-width="3" d="M220.328,-39.1836C220.488,-39.27 220.646,-39.3574 220.804,-39.445 265.262,-64.0409 315.382,-94.2529 347.717,-114.079"/>
<path fill="none" stroke="#e9bbff" stroke-width="3" d="M219.363,-40.9321C219.52,-41.0206 219.679,-41.108 219.836,-41.195 264.229,-65.7538 314.349,-95.9657 346.672,-115.784"/>
<polygon fill="#e9bbff" stroke="#e9bbff" points="220.893,-37.441 212.525,-36.0919 218.226,-42.3648 220.893,-37.441"/>
<polygon fill="#edc9ff" stroke="#edc9ff" points="345.932,-117.443 354.214,-119.244 348.863,-112.671 345.932,-117.443"/>
</a>
</g>
<!-- GTF2I&#45;&gt;GATA1_GATA4 -->
<g id="edge56" class="edge"><title>GTF2I&#45;&gt;GATA1_GATA4</title>
<a xlink:title="GATA1: 0.235||remove21root">
<path fill="none" stroke="#afb7ff" stroke-width="3" d="M258.353,-36.1811C250.704,-64.7264 235.845,-120.183 227.044,-153.029"/>
<polygon fill="#afb7ff" stroke="#afb7ff" points="224.311,-152.41 224.945,-160.863 229.72,-153.86 224.311,-152.41"/>
</a>
</g>
<!-- GTF2I&#45;&gt;E2F7_E2F1 -->
<g id="edge62" class="edge"><title>GTF2I&#45;&gt;E2F7_E2F1</title>
<a xlink:title="E2F7: 0.087||remove10root">
<path fill="none" stroke="#ebc1ff" stroke-width="3" d="M290.238,-33.5962C293.336,-35.3846 296.537,-37.2327 299.746,-39.0859"/>
<polygon fill="#ebc1ff" stroke="#ebc1ff" points="298.422,-41.5544 306.75,-43.1296 301.222,-36.7047 298.422,-41.5544"/>
</a>
</g>
<!-- GTF2I&#45;&gt;SMAD3 -->
<g id="edge58" class="edge"><title>GTF2I&#45;&gt;SMAD3</title>
<a xlink:title="SMAD3: 0.039||remove4root">
<path fill="none" stroke="#edc7ff" stroke-width="3" d="M267.671,-36.069C275.043,-69.356 287.346,-142.251 269.905,-200.105 256.212,-245.523 222.487,-289.745 199.622,-316.043"/>
<polygon fill="#edc7ff" stroke="#edc7ff" points="197.263,-314.484 194.062,-322.332 201.458,-318.193 197.263,-314.484"/>
</a>
</g>
<!-- GTF2I&#45;&gt;THRA_RXRB -->
<g id="edge60" class="edge"><title>GTF2I&#45;&gt;THRA_RXRB</title>
<a xlink:title="THRA: 0.227||remove20">
<path fill="none" stroke="#e5b0ff" stroke-width="3" d="M255.172,-36.1758C247.954,-50.5238 236.075,-70.0636 220.32,-82.08 186.805,-107.641 140.524,-121.463 106.091,-128.693"/>
<polygon fill="#e5b0ff" stroke="#e5b0ff" points="105.343,-125.987 98.0506,-130.307 106.445,-131.477 105.343,-125.987"/>
</a>
</g>
<!-- E2F7_E2F1&#45;&gt;GATA1_GATA4 -->
<g id="edge48" class="edge"><title>E2F7_E2F1&#45;&gt;GATA1_GATA4</title>
<a xlink:title="GATA4: 0.198||remove19root">
<path fill="none" stroke="#b4bbff" stroke-width="3" d="M319.867,-79.3827C299.448,-99.8017 266.237,-133.013 243.78,-155.469"/>
<polygon fill="#b4bbff" stroke="#b4bbff" points="241.711,-153.578 238.034,-161.215 245.671,-157.538 241.711,-153.578"/>
</a>
</g>
<!-- E2F7_E2F1&#45;&gt;E2F7_E2F1 -->
<g id="edge50" class="edge"><title>E2F7_E2F1&#45;&gt;E2F7_E2F1</title>
<a xlink:title="E2F7: 1.052||remove19">
<path fill="none" stroke="#c64dff" stroke-width="3" d="M372.058,-67.9352C382.176,-67.7341 390.049,-65.4891 390.049,-61.2 390.049,-58.1843 386.157,-56.179 380.328,-55.1843"/>
<polygon fill="#c64dff" stroke="#c64dff" points="380.27,-52.3688 372.058,-54.4648 379.785,-57.9477 380.27,-52.3688"/>
</a>
</g>
<!-- ELF3_EHF&#45;&gt;ELF3_EHF -->
<g id="edge54" class="edge"><title>ELF3_EHF&#45;&gt;ELF3_EHF</title>
<a xlink:title="EHF: 0.082||remove8root">
<path fill="none" stroke="#ebc2ff" stroke-width="3" d="M413.95,-229.16C423.679,-228.959 431.249,-226.714 431.249,-222.425 431.249,-219.476 427.671,-217.493 422.273,-216.477"/>
<polygon fill="#ebc2ff" stroke="#ebc2ff" points="422.178,-213.655 413.95,-215.689 421.65,-219.23 422.178,-213.655"/>
</a>
</g>
<!-- ELF3_EHF&#45;&gt;SMAD3 -->
<g id="edge52" class="edge"><title>ELF3_EHF&#45;&gt;SMAD3</title>
<a xlink:title="SMAD3: 0.290||remove25root">
<path fill="none" stroke="#e3a9ff" stroke-width="3" d="M349.756,-240.607C312.221,-262.278 249.73,-298.357 211.036,-320.697"/>
<polygon fill="#e3a9ff" stroke="#e3a9ff" points="209.628,-318.277 204.099,-324.702 212.428,-323.127 209.628,-318.277"/>
</a>
</g>
<!-- SMAD3&#45;&gt;POU6F2 -->
<g id="edge78" class="edge"><title>SMAD3&#45;&gt;POU6F2</title>
<a xlink:title="POU6F2: 0.054||SMAD3: 0.040||remove6root">
<path fill="none" stroke="#ecc5ff" stroke-width="3" d="M142.361,-321.706C140.26,-320.493 138.145,-319.272 136.042,-318.058"/>
<path fill="none" stroke="#edc7ff" stroke-width="3" d="M143.361,-319.974C141.26,-318.761 139.145,-317.54 137.042,-316.326"/>
<polygon fill="#edc7ff" stroke="#edc7ff" points="141.483,-323.278 149.811,-324.853 144.283,-318.428 141.483,-323.278"/>
<polygon fill="#ecc5ff" stroke="#ecc5ff" points="137.805,-314.688 129.477,-313.113 135.005,-319.538 137.805,-314.688"/>
</a>
</g>
<!-- POU6F2&#45;&gt;NR5A2 -->
<g id="edge80" class="edge"><title>POU6F2&#45;&gt;NR5A2</title>
<a xlink:title="NR5A2: 0.046||remove5root">
<path fill="none" stroke="#ecc6ff" stroke-width="3" d="M129.54,-297.249C172.563,-297.249 255.674,-297.249 302.938,-297.249"/>
<polygon fill="#ecc6ff" stroke="#ecc6ff" points="303.048,-300.049 311.048,-297.249 303.048,-294.449 303.048,-300.049"/>
</a>
</g>
<!-- GATA6&#45;&gt;GATA6 -->
<g id="edge82" class="edge"><title>GATA6&#45;&gt;GATA6</title>
<a xlink:title="GATA6: 0.011||remove0root">
<path fill="none" stroke="#eecaff" stroke-width="3" d="M86.0408,-229.168C95.8239,-229.313 103.8,-227.065 103.8,-222.425 103.8,-219.162 99.8567,-217.082 94.1147,-216.185"/>
<polygon fill="#eecaff" stroke="#eecaff" points="94.1996,-213.385 86.0408,-215.681 93.8509,-218.974 94.1996,-213.385"/>
</a>
</g>
<!-- THRA_RXRB&#45;&gt;ARID5B -->
<g id="edge72" class="edge"><title>THRA_RXRB&#45;&gt;ARID5B</title>
<a xlink:title="ARID5B: 0.305||remove20">
<path fill="none" stroke="#e2a7ff" stroke-width="3" d="M76.9413,-154.166C113.916,-191.141 197.984,-275.209 239.342,-316.567"/>
<polygon fill="#e2a7ff" stroke="#e2a7ff" points="237.487,-318.672 245.124,-322.349 241.447,-314.712 237.487,-318.672"/>
</a>
</g>
<!-- THRA_RXRB&#45;&gt;SMAD3 -->
<g id="edge74" class="edge"><title>THRA_RXRB&#45;&gt;SMAD3</title>
<a xlink:title="SMAD3: 0.091||remove11root">
<path fill="none" stroke="#ebc1ff" stroke-width="3" d="M69.2739,-154.166C90.4025,-190.762 138.166,-273.491 162.295,-315.282"/>
<polygon fill="#ebc1ff" stroke="#ebc1ff" points="159.949,-316.82 166.374,-322.349 164.799,-314.02 159.949,-316.82"/>
</a>
</g>
<!-- THRA_RXRB&#45;&gt;GATA6 -->
<g id="edge76" class="edge"><title>THRA_RXRB&#45;&gt;GATA6</title>
<a xlink:title="GATA6: 0.093||remove12root">
<path fill="none" stroke="#ebc0ff" stroke-width="3" d="M58.8,-154.348C58.8,-166.572 58.8,-182.828 58.8,-196.389"/>
<polygon fill="#ebc0ff" stroke="#ebc0ff" points="56.0001,-196.424 58.8,-204.424 61.6001,-196.424 56.0001,-196.424"/>
</a>
</g>
<!-- SMAD1&#45;&gt;YBX1_FOS_NFYC_NFYA_NFYB_CEBPZ -->
<g id="edge70" class="edge"><title>SMAD1&#45;&gt;YBX1_FOS_NFYC_NFYA_NFYB_CEBPZ</title>
<a xlink:title="NFYB: 0.086||FOS: 0.025||remove9root">
<path fill="none" stroke="#ebc1ff" stroke-width="3" d="M354.22,-128.782C313.677,-117.919 235.63,-97.006 177.041,-81.3073"/>
<polygon fill="#ebc1ff" stroke="#ebc1ff" points="177.725,-78.5917 169.273,-79.2257 176.275,-84.0009 177.725,-78.5917"/>
</a>
</g>
<!-- SMAD1&#45;&gt;GATA1_GATA4 -->
<g id="edge64" class="edge"><title>SMAD1&#45;&gt;GATA1_GATA4</title>
<a xlink:title="GATA1: 0.186||GATA4: 0.023||remove18root">
<path fill="none" stroke="#b5bdff" stroke-width="3" d="M353.9,-143.353C331.332,-149.4 298.682,-158.148 271.277,-165.492"/>
<polygon fill="#b5bdff" stroke="#b5bdff" points="270.332,-162.846 263.329,-167.621 271.781,-168.255 270.332,-162.846"/>
</a>
</g>
<!-- SMAD1&#45;&gt;SMAD3 -->
<g id="edge66" class="edge"><title>SMAD1&#45;&gt;SMAD3</title>
<a xlink:title="SMAD3: 0.019||remove1root">
<path fill="none" stroke="#edc9ff" stroke-width="3" d="M363.108,-154.166C326.133,-191.141 242.065,-275.209 200.707,-316.567"/>
<polygon fill="#edc9ff" stroke="#edc9ff" points="198.602,-314.712 194.925,-322.349 202.562,-318.672 198.602,-314.712"/>
</a>
</g>
<!-- SMAD1&#45;&gt;POU6F2 -->
<g id="edge68" class="edge"><title>SMAD1&#45;&gt;POU6F2</title>
<a xlink:title="POU6F2: 0.031||remove3root">
<path fill="none" stroke="#edc8ff" stroke-width="3" d="M354.22,-151.63C303.263,-181.05 193.06,-244.676 136.71,-277.209"/>
<polygon fill="#edc8ff" stroke="#edc8ff" points="134.984,-274.972 129.456,-281.397 137.784,-279.822 134.984,-274.972"/>
</a>
</g>
</g>
</svg>
