<?xml version="1.0" encoding="UTF-8" standalone="no"?>
<!DOCTYPE svg PUBLIC "-//W3C//DTD SVG 1.1//EN"
 "http://www.w3.org/Graphics/SVG/1.1/DTD/svg11.dtd">
<!-- Generated by graphviz version 2.28.0 (20110630.0925)
 -->
<!-- Title: _anonymous_0 Pages: 1 -->
<svg width="496pt" height="436pt"
 viewBox="0.00 0.00 496.37 435.87" xmlns="http://www.w3.org/2000/svg" xmlns:xlink="http://www.w3.org/1999/xlink">
<g id="graph1" class="graph" transform="scale(1 1) rotate(0) translate(4 431.865)">
<title>_anonymous_0</title>
<polygon fill="white" stroke="white" points="-4,5 -4,-431.865 493.365,-431.865 493.365,5 -4,5"/>
<!-- GATA3 -->
<g id="node1" class="node"><title>GATA3</title>
<a xlink:href="GATA3.svg" xlink:title="Z&#45;value: 2.023||remove19">
<polygon fill="#ff3232" stroke="#ff3232" stroke-width="2" points="273.433,-231.933 243.433,-231.933 231.433,-219.933 231.433,-207.933 243.433,-195.933 273.433,-195.933 285.433,-207.933 285.433,-219.933 273.433,-231.933"/>
<path fill="#ff3232" stroke="#ff3232" stroke-width="2" d="M243.433,-231.933C237.433,-231.933 231.433,-225.933 231.433,-219.933"/>
<path fill="#ff3232" stroke="#ff3232" stroke-width="2" d="M231.433,-207.933C231.433,-201.933 237.433,-195.933 243.433,-195.933"/>
<path fill="#ff3232" stroke="#ff3232" stroke-width="2" d="M273.433,-195.933C279.433,-195.933 285.433,-201.933 285.433,-207.933"/>
<path fill="#ff3232" stroke="#ff3232" stroke-width="2" d="M285.433,-219.933C285.433,-225.933 279.433,-231.933 273.433,-231.933"/>
<polyline fill="none" stroke="white" stroke-width="2" points="273.433,-231.933 243.433,-231.933 "/>
<path fill="none" stroke="white" stroke-width="2" d="M243.433,-231.933C237.433,-231.933 231.433,-225.933 231.433,-219.933"/>
<polyline fill="none" stroke="white" stroke-width="2" points="231.433,-219.933 231.433,-207.933 "/>
<path fill="none" stroke="white" stroke-width="2" d="M231.433,-207.933C231.433,-201.933 237.433,-195.933 243.433,-195.933"/>
<polyline fill="none" stroke="white" stroke-width="2" points="243.433,-195.933 273.433,-195.933 "/>
<path fill="none" stroke="white" stroke-width="2" d="M273.433,-195.933C279.433,-195.933 285.433,-201.933 285.433,-207.933"/>
<polyline fill="none" stroke="white" stroke-width="2" points="285.433,-207.933 285.433,-219.933 "/>
<path fill="none" stroke="white" stroke-width="2" d="M285.433,-219.933C285.433,-225.933 279.433,-231.933 273.433,-231.933"/>
<text text-anchor="middle" x="258.433" y="-211.433" font-family="Helvetica,sans-Serif" font-size="10.00" fill="white">GATA3</text>
</a>
</g>
<!-- SPIB -->
<g id="node2" class="node"><title>SPIB</title>
<a xlink:href="SPIB.svg" xlink:title="Z&#45;value: 0.681||remove12">
<polygon fill="#98a2ff" stroke="#98a2ff" stroke-width="2" points="469.365,-284.433 439.365,-284.433 427.365,-272.433 427.365,-260.433 439.365,-248.433 469.365,-248.433 481.365,-260.433 481.365,-272.433 469.365,-284.433"/>
<path fill="#98a2ff" stroke="#98a2ff" stroke-width="2" d="M439.365,-284.433C433.365,-284.433 427.365,-278.433 427.365,-272.433"/>
<path fill="#98a2ff" stroke="#98a2ff" stroke-width="2" d="M427.365,-260.433C427.365,-254.433 433.365,-248.433 439.365,-248.433"/>
<path fill="#98a2ff" stroke="#98a2ff" stroke-width="2" d="M469.365,-248.433C475.365,-248.433 481.365,-254.433 481.365,-260.433"/>
<path fill="#98a2ff" stroke="#98a2ff" stroke-width="2" d="M481.365,-272.433C481.365,-278.433 475.365,-284.433 469.365,-284.433"/>
<polyline fill="none" stroke="white" stroke-width="2" points="469.365,-284.433 439.365,-284.433 "/>
<path fill="none" stroke="white" stroke-width="2" d="M439.365,-284.433C433.365,-284.433 427.365,-278.433 427.365,-272.433"/>
<polyline fill="none" stroke="white" stroke-width="2" points="427.365,-272.433 427.365,-260.433 "/>
<path fill="none" stroke="white" stroke-width="2" d="M427.365,-260.433C427.365,-254.433 433.365,-248.433 439.365,-248.433"/>
<polyline fill="none" stroke="white" stroke-width="2" points="439.365,-248.433 469.365,-248.433 "/>
<path fill="none" stroke="white" stroke-width="2" d="M469.365,-248.433C475.365,-248.433 481.365,-254.433 481.365,-260.433"/>
<polyline fill="none" stroke="white" stroke-width="2" points="481.365,-260.433 481.365,-272.433 "/>
<path fill="none" stroke="white" stroke-width="2" d="M481.365,-272.433C481.365,-278.433 475.365,-284.433 469.365,-284.433"/>
<text text-anchor="middle" x="454.365" y="-263.933" font-family="Helvetica,sans-Serif" font-size="10.00">SPIB</text>
</a>
</g>
<!-- GATA3&#45;&gt;SPIB -->
<g id="edge2" class="edge"><title>GATA3&#45;&gt;SPIB</title>
<a xlink:title="SPIB: 0.404||remove12root">
<path fill="none" stroke="#ff8b8b" stroke-width="3" d="M285.676,-221.233C320.624,-230.597 381.282,-246.85 419.545,-257.103"/>
<polygon fill="#ff8b8b" stroke="#ff8b8b" points="418.901,-259.829 427.353,-259.195 420.35,-254.42 418.901,-259.829"/>
</a>
</g>
<!-- STAT1_STAT3_BCL6 -->
<g id="node4" class="node"><title>STAT1_STAT3_BCL6</title>
<a xlink:href="STAT1_STAT3_BCL6.svg" xlink:title="Z&#45;value: 0.363||remove7">
<polygon fill="#b0b8ff" stroke="#b0b8ff" stroke-width="2" points="446.115,-375.365 357.615,-375.365 345.615,-363.365 345.615,-351.365 357.615,-339.365 446.115,-339.365 458.115,-351.365 458.115,-363.365 446.115,-375.365"/>
<path fill="#b0b8ff" stroke="#b0b8ff" stroke-width="2" d="M357.615,-375.365C351.615,-375.365 345.615,-369.365 345.615,-363.365"/>
<path fill="#b0b8ff" stroke="#b0b8ff" stroke-width="2" d="M345.615,-351.365C345.615,-345.365 351.615,-339.365 357.615,-339.365"/>
<path fill="#b0b8ff" stroke="#b0b8ff" stroke-width="2" d="M446.115,-339.365C452.115,-339.365 458.115,-345.365 458.115,-351.365"/>
<path fill="#b0b8ff" stroke="#b0b8ff" stroke-width="2" d="M458.115,-363.365C458.115,-369.365 452.115,-375.365 446.115,-375.365"/>
<polyline fill="none" stroke="white" stroke-width="2" points="446.115,-375.365 357.615,-375.365 "/>
<path fill="none" stroke="white" stroke-width="2" d="M357.615,-375.365C351.615,-375.365 345.615,-369.365 345.615,-363.365"/>
<polyline fill="none" stroke="white" stroke-width="2" points="345.615,-363.365 345.615,-351.365 "/>
<path fill="none" stroke="white" stroke-width="2" d="M345.615,-351.365C345.615,-345.365 351.615,-339.365 357.615,-339.365"/>
<polyline fill="none" stroke="white" stroke-width="2" points="357.615,-339.365 446.115,-339.365 "/>
<path fill="none" stroke="white" stroke-width="2" d="M446.115,-339.365C452.115,-339.365 458.115,-345.365 458.115,-351.365"/>
<polyline fill="none" stroke="white" stroke-width="2" points="458.115,-351.365 458.115,-363.365 "/>
<path fill="none" stroke="white" stroke-width="2" d="M458.115,-363.365C458.115,-369.365 452.115,-375.365 446.115,-375.365"/>
<text text-anchor="middle" x="401.865" y="-354.865" font-family="Helvetica,sans-Serif" font-size="10.00">STAT1_STAT3_BCL6</text>
</a>
</g>
<!-- GATA3&#45;&gt;STAT1_STAT3_BCL6 -->
<g id="edge4" class="edge"><title>GATA3&#45;&gt;STAT1_STAT3_BCL6</title>
<a xlink:title="BCL6: 0.333||STAT1: 0.173||remove7root">
<path fill="none" stroke="#ff9696" stroke-width="3" d="M276.599,-232.099C302.356,-257.856 349.526,-305.026 378.056,-333.556"/>
<polygon fill="#ff9696" stroke="#ff9696" points="376.21,-335.67 383.847,-339.347 380.17,-331.71 376.21,-335.67"/>
</a>
</g>
<!-- ZIC3_ZIC4 -->
<g id="node6" class="node"><title>ZIC3_ZIC4</title>
<a xlink:href="ZIC3_ZIC4.svg" xlink:title="Z&#45;value: 1.042||remove13">
<polygon fill="#7d8aff" stroke="#7d8aff" stroke-width="2" points="331.183,-427.865 290.683,-427.865 278.683,-415.865 278.683,-403.865 290.683,-391.865 331.183,-391.865 343.183,-403.865 343.183,-415.865 331.183,-427.865"/>
<path fill="#7d8aff" stroke="#7d8aff" stroke-width="2" d="M290.683,-427.865C284.683,-427.865 278.683,-421.865 278.683,-415.865"/>
<path fill="#7d8aff" stroke="#7d8aff" stroke-width="2" d="M278.683,-403.865C278.683,-397.865 284.683,-391.865 290.683,-391.865"/>
<path fill="#7d8aff" stroke="#7d8aff" stroke-width="2" d="M331.183,-391.865C337.183,-391.865 343.183,-397.865 343.183,-403.865"/>
<path fill="#7d8aff" stroke="#7d8aff" stroke-width="2" d="M343.183,-415.865C343.183,-421.865 337.183,-427.865 331.183,-427.865"/>
<polyline fill="none" stroke="white" stroke-width="2" points="331.183,-427.865 290.683,-427.865 "/>
<path fill="none" stroke="white" stroke-width="2" d="M290.683,-427.865C284.683,-427.865 278.683,-421.865 278.683,-415.865"/>
<polyline fill="none" stroke="white" stroke-width="2" points="278.683,-415.865 278.683,-403.865 "/>
<path fill="none" stroke="white" stroke-width="2" d="M278.683,-403.865C278.683,-397.865 284.683,-391.865 290.683,-391.865"/>
<polyline fill="none" stroke="white" stroke-width="2" points="290.683,-391.865 331.183,-391.865 "/>
<path fill="none" stroke="white" stroke-width="2" d="M331.183,-391.865C337.183,-391.865 343.183,-397.865 343.183,-403.865"/>
<polyline fill="none" stroke="white" stroke-width="2" points="343.183,-403.865 343.183,-415.865 "/>
<path fill="none" stroke="white" stroke-width="2" d="M343.183,-415.865C343.183,-421.865 337.183,-427.865 331.183,-427.865"/>
<text text-anchor="middle" x="310.933" y="-407.365" font-family="Helvetica,sans-Serif" font-size="10.00">ZIC3_ZIC4</text>
</a>
</g>
<!-- GATA3&#45;&gt;ZIC3_ZIC4 -->
<g id="edge6" class="edge"><title>GATA3&#45;&gt;ZIC3_ZIC4</title>
<a xlink:title="ZIC4: 0.455||remove13root">
<path fill="none" stroke="#ff8383" stroke-width="3" d="M263.278,-232.014C272.634,-266.935 293.218,-343.755 304.014,-384.046"/>
<polygon fill="#ff8383" stroke="#ff8383" points="301.324,-384.825 306.099,-391.827 306.733,-383.375 301.324,-384.825"/>
</a>
</g>
<!-- NR2E1 -->
<g id="node8" class="node"><title>NR2E1</title>
<a xlink:href="NR2E1.svg" xlink:title="Z&#45;value: 0.528||remove18">
<polygon fill="#a4adff" stroke="#a4adff" stroke-width="2" points="220.933,-427.865 190.933,-427.865 178.933,-415.865 178.933,-403.865 190.933,-391.865 220.933,-391.865 232.933,-403.865 232.933,-415.865 220.933,-427.865"/>
<path fill="#a4adff" stroke="#a4adff" stroke-width="2" d="M190.933,-427.865C184.933,-427.865 178.933,-421.865 178.933,-415.865"/>
<path fill="#a4adff" stroke="#a4adff" stroke-width="2" d="M178.933,-403.865C178.933,-397.865 184.933,-391.865 190.933,-391.865"/>
<path fill="#a4adff" stroke="#a4adff" stroke-width="2" d="M220.933,-391.865C226.933,-391.865 232.933,-397.865 232.933,-403.865"/>
<path fill="#a4adff" stroke="#a4adff" stroke-width="2" d="M232.933,-415.865C232.933,-421.865 226.933,-427.865 220.933,-427.865"/>
<polyline fill="none" stroke="white" stroke-width="2" points="220.933,-427.865 190.933,-427.865 "/>
<path fill="none" stroke="white" stroke-width="2" d="M190.933,-427.865C184.933,-427.865 178.933,-421.865 178.933,-415.865"/>
<polyline fill="none" stroke="white" stroke-width="2" points="178.933,-415.865 178.933,-403.865 "/>
<path fill="none" stroke="white" stroke-width="2" d="M178.933,-403.865C178.933,-397.865 184.933,-391.865 190.933,-391.865"/>
<polyline fill="none" stroke="white" stroke-width="2" points="190.933,-391.865 220.933,-391.865 "/>
<path fill="none" stroke="white" stroke-width="2" d="M220.933,-391.865C226.933,-391.865 232.933,-397.865 232.933,-403.865"/>
<polyline fill="none" stroke="white" stroke-width="2" points="232.933,-403.865 232.933,-415.865 "/>
<path fill="none" stroke="white" stroke-width="2" d="M232.933,-415.865C232.933,-421.865 226.933,-427.865 220.933,-427.865"/>
<text text-anchor="middle" x="205.933" y="-407.365" font-family="Helvetica,sans-Serif" font-size="10.00">NR2E1</text>
</a>
</g>
<!-- GATA3&#45;&gt;NR2E1 -->
<g id="edge8" class="edge"><title>GATA3&#45;&gt;NR2E1</title>
<a xlink:title="NR2E1: 0.961||remove18root">
<path fill="none" stroke="#ff3232" stroke-width="3" d="M253.588,-232.014C244.231,-266.935 223.647,-343.755 212.851,-384.046"/>
<polygon fill="#ff3232" stroke="#ff3232" points="210.132,-383.375 210.766,-391.827 215.541,-384.825 210.132,-383.375"/>
</a>
</g>
<!-- E2F4 -->
<g id="node10" class="node"><title>E2F4</title>
<a xlink:href="E2F4.svg" xlink:title="Z&#45;value: 0.397||remove14">
<polygon fill="#adb6ff" stroke="#adb6ff" stroke-width="2" points="130,-375.365 100,-375.365 88,-363.365 88,-351.365 100,-339.365 130,-339.365 142,-351.365 142,-363.365 130,-375.365"/>
<path fill="#adb6ff" stroke="#adb6ff" stroke-width="2" d="M100,-375.365C94,-375.365 88,-369.365 88,-363.365"/>
<path fill="#adb6ff" stroke="#adb6ff" stroke-width="2" d="M88,-351.365C88,-345.365 94,-339.365 100,-339.365"/>
<path fill="#adb6ff" stroke="#adb6ff" stroke-width="2" d="M130,-339.365C136,-339.365 142,-345.365 142,-351.365"/>
<path fill="#adb6ff" stroke="#adb6ff" stroke-width="2" d="M142,-363.365C142,-369.365 136,-375.365 130,-375.365"/>
<polyline fill="none" stroke="white" stroke-width="2" points="130,-375.365 100,-375.365 "/>
<path fill="none" stroke="white" stroke-width="2" d="M100,-375.365C94,-375.365 88,-369.365 88,-363.365"/>
<polyline fill="none" stroke="white" stroke-width="2" points="88,-363.365 88,-351.365 "/>
<path fill="none" stroke="white" stroke-width="2" d="M88,-351.365C88,-345.365 94,-339.365 100,-339.365"/>
<polyline fill="none" stroke="white" stroke-width="2" points="100,-339.365 130,-339.365 "/>
<path fill="none" stroke="white" stroke-width="2" d="M130,-339.365C136,-339.365 142,-345.365 142,-351.365"/>
<polyline fill="none" stroke="white" stroke-width="2" points="142,-351.365 142,-363.365 "/>
<path fill="none" stroke="white" stroke-width="2" d="M142,-363.365C142,-369.365 136,-375.365 130,-375.365"/>
<text text-anchor="middle" x="115" y="-354.865" font-family="Helvetica,sans-Serif" font-size="10.00">E2F4</text>
</a>
</g>
<!-- GATA3&#45;&gt;E2F4 -->
<g id="edge10" class="edge"><title>GATA3&#45;&gt;E2F4</title>
<a xlink:title="E2F4: 0.461||remove14root">
<path fill="none" stroke="#ff8282" stroke-width="3" d="M240.267,-232.099C214.509,-257.856 167.339,-305.026 138.809,-333.556"/>
<polygon fill="#ff8282" stroke="#ff8282" points="136.695,-331.71 133.018,-339.347 140.655,-335.67 136.695,-331.71"/>
</a>
</g>
<!-- PAX8 -->
<g id="node12" class="node"><title>PAX8</title>
<a xlink:href="PAX8.svg" xlink:title="Z&#45;value: 0.427||remove17">
<polygon fill="#abb4ff" stroke="#abb4ff" stroke-width="2" points="77.5,-284.433 47.5,-284.433 35.5,-272.433 35.5,-260.433 47.5,-248.433 77.5,-248.433 89.5,-260.433 89.5,-272.433 77.5,-284.433"/>
<path fill="#abb4ff" stroke="#abb4ff" stroke-width="2" d="M47.5,-284.433C41.5,-284.433 35.5,-278.433 35.5,-272.433"/>
<path fill="#abb4ff" stroke="#abb4ff" stroke-width="2" d="M35.5,-260.433C35.5,-254.433 41.5,-248.433 47.5,-248.433"/>
<path fill="#abb4ff" stroke="#abb4ff" stroke-width="2" d="M77.5,-248.433C83.5,-248.433 89.5,-254.433 89.5,-260.433"/>
<path fill="#abb4ff" stroke="#abb4ff" stroke-width="2" d="M89.5,-272.433C89.5,-278.433 83.5,-284.433 77.5,-284.433"/>
<polyline fill="none" stroke="white" stroke-width="2" points="77.5,-284.433 47.5,-284.433 "/>
<path fill="none" stroke="white" stroke-width="2" d="M47.5,-284.433C41.5,-284.433 35.5,-278.433 35.5,-272.433"/>
<polyline fill="none" stroke="white" stroke-width="2" points="35.5,-272.433 35.5,-260.433 "/>
<path fill="none" stroke="white" stroke-width="2" d="M35.5,-260.433C35.5,-254.433 41.5,-248.433 47.5,-248.433"/>
<polyline fill="none" stroke="white" stroke-width="2" points="47.5,-248.433 77.5,-248.433 "/>
<path fill="none" stroke="white" stroke-width="2" d="M77.5,-248.433C83.5,-248.433 89.5,-254.433 89.5,-260.433"/>
<polyline fill="none" stroke="white" stroke-width="2" points="89.5,-260.433 89.5,-272.433 "/>
<path fill="none" stroke="white" stroke-width="2" d="M89.5,-272.433C89.5,-278.433 83.5,-284.433 77.5,-284.433"/>
<text text-anchor="middle" x="62.5" y="-263.933" font-family="Helvetica,sans-Serif" font-size="10.00">PAX8</text>
</a>
</g>
<!-- GATA3&#45;&gt;PAX8 -->
<g id="edge12" class="edge"><title>GATA3&#45;&gt;PAX8</title>
<a xlink:title="PAX8: 0.852||remove17root">
<path fill="none" stroke="#ff4444" stroke-width="3" d="M231.189,-221.233C196.241,-230.597 135.583,-246.85 97.3199,-257.103"/>
<polygon fill="#ff4444" stroke="#ff4444" points="96.5149,-254.42 89.5122,-259.195 97.9643,-259.829 96.5149,-254.42"/>
</a>
</g>
<!-- HOXB2_UNCX_HOXD3 -->
<g id="node14" class="node"><title>HOXB2_UNCX_HOXD3</title>
<a xlink:href="HOXB2_UNCX_HOXD3.svg" xlink:title="Z&#45;value: 0.563||remove11">
<polygon fill="#a1aaff" stroke="#a1aaff" stroke-width="2" points="112.75,-179.433 12.25,-179.433 0.25,-167.433 0.25,-155.433 12.25,-143.433 112.75,-143.433 124.75,-155.433 124.75,-167.433 112.75,-179.433"/>
<path fill="#a1aaff" stroke="#a1aaff" stroke-width="2" d="M12.25,-179.433C6.25,-179.433 0.25,-173.433 0.25,-167.433"/>
<path fill="#a1aaff" stroke="#a1aaff" stroke-width="2" d="M0.25,-155.433C0.25,-149.433 6.25,-143.433 12.25,-143.433"/>
<path fill="#a1aaff" stroke="#a1aaff" stroke-width="2" d="M112.75,-143.433C118.75,-143.433 124.75,-149.433 124.75,-155.433"/>
<path fill="#a1aaff" stroke="#a1aaff" stroke-width="2" d="M124.75,-167.433C124.75,-173.433 118.75,-179.433 112.75,-179.433"/>
<polyline fill="none" stroke="white" stroke-width="2" points="112.75,-179.433 12.25,-179.433 "/>
<path fill="none" stroke="white" stroke-width="2" d="M12.25,-179.433C6.25,-179.433 0.25,-173.433 0.25,-167.433"/>
<polyline fill="none" stroke="white" stroke-width="2" points="0.25,-167.433 0.25,-155.433 "/>
<path fill="none" stroke="white" stroke-width="2" d="M0.25,-155.433C0.25,-149.433 6.25,-143.433 12.25,-143.433"/>
<polyline fill="none" stroke="white" stroke-width="2" points="12.25,-143.433 112.75,-143.433 "/>
<path fill="none" stroke="white" stroke-width="2" d="M112.75,-143.433C118.75,-143.433 124.75,-149.433 124.75,-155.433"/>
<polyline fill="none" stroke="white" stroke-width="2" points="124.75,-155.433 124.75,-167.433 "/>
<path fill="none" stroke="white" stroke-width="2" d="M124.75,-167.433C124.75,-173.433 118.75,-179.433 112.75,-179.433"/>
<text text-anchor="middle" x="62.5" y="-158.933" font-family="Helvetica,sans-Serif" font-size="10.00">HOXB2_UNCX_HOXD3</text>
</a>
</g>
<!-- GATA3&#45;&gt;HOXB2_UNCX_HOXD3 -->
<g id="edge14" class="edge"><title>GATA3&#45;&gt;HOXB2_UNCX_HOXD3</title>
<a xlink:title="HOXB2: 0.401||HOXD3: 0.384||remove11root">
<path fill="none" stroke="#ff8c8c" stroke-width="3" d="M231.189,-206.633C205.976,-199.877 167.382,-189.536 133.469,-180.449"/>
<polygon fill="#ff8c8c" stroke="#ff8c8c" points="133.865,-177.656 125.412,-178.29 132.415,-183.065 133.865,-177.656"/>
</a>
</g>
<!-- ISL2 -->
<g id="node16" class="node"><title>ISL2</title>
<a xlink:href="ISL2.svg" xlink:title="Z&#45;value: 0.301||remove8">
<polygon fill="#b5bcff" stroke="#b5bcff" stroke-width="2" points="130,-88.5 100,-88.5 88,-76.5 88,-64.5 100,-52.5 130,-52.5 142,-64.5 142,-76.5 130,-88.5"/>
<path fill="#b5bcff" stroke="#b5bcff" stroke-width="2" d="M100,-88.5C94,-88.5 88,-82.5 88,-76.5"/>
<path fill="#b5bcff" stroke="#b5bcff" stroke-width="2" d="M88,-64.5C88,-58.5 94,-52.5 100,-52.5"/>
<path fill="#b5bcff" stroke="#b5bcff" stroke-width="2" d="M130,-52.5C136,-52.5 142,-58.5 142,-64.5"/>
<path fill="#b5bcff" stroke="#b5bcff" stroke-width="2" d="M142,-76.5C142,-82.5 136,-88.5 130,-88.5"/>
<polyline fill="none" stroke="white" stroke-width="2" points="130,-88.5 100,-88.5 "/>
<path fill="none" stroke="white" stroke-width="2" d="M100,-88.5C94,-88.5 88,-82.5 88,-76.5"/>
<polyline fill="none" stroke="white" stroke-width="2" points="88,-76.5 88,-64.5 "/>
<path fill="none" stroke="white" stroke-width="2" d="M88,-64.5C88,-58.5 94,-52.5 100,-52.5"/>
<polyline fill="none" stroke="white" stroke-width="2" points="100,-52.5 130,-52.5 "/>
<path fill="none" stroke="white" stroke-width="2" d="M130,-52.5C136,-52.5 142,-58.5 142,-64.5"/>
<polyline fill="none" stroke="white" stroke-width="2" points="142,-64.5 142,-76.5 "/>
<path fill="none" stroke="white" stroke-width="2" d="M142,-76.5C142,-82.5 136,-88.5 130,-88.5"/>
<text text-anchor="middle" x="115" y="-68" font-family="Helvetica,sans-Serif" font-size="10.00">ISL2</text>
</a>
</g>
<!-- GATA3&#45;&gt;ISL2 -->
<g id="edge16" class="edge"><title>GATA3&#45;&gt;ISL2</title>
<a xlink:title="ISL2: 0.340||remove8root">
<path fill="none" stroke="#ff9595" stroke-width="3" d="M240.267,-195.767C214.509,-170.009 167.339,-122.839 138.809,-94.309"/>
<polygon fill="#ff9595" stroke="#ff9595" points="140.655,-92.1953 133.018,-88.5184 136.695,-96.1551 140.655,-92.1953"/>
</a>
</g>
<!-- PAX7_NOBOX -->
<g id="node18" class="node"><title>PAX7_NOBOX</title>
<a xlink:href="PAX7_NOBOX.svg" xlink:title="Z&#45;value: 0.658||remove10">
<polygon fill="#9aa4ff" stroke="#9aa4ff" stroke-width="2" points="235.183,-36 176.683,-36 164.683,-24 164.683,-12 176.683,-6.39488e-14 235.183,-6.39488e-14 247.183,-12 247.183,-24 235.183,-36"/>
<path fill="#9aa4ff" stroke="#9aa4ff" stroke-width="2" d="M176.683,-36C170.683,-36 164.683,-30 164.683,-24"/>
<path fill="#9aa4ff" stroke="#9aa4ff" stroke-width="2" d="M164.683,-12C164.683,-6 170.683,-6.39488e-14 176.683,-6.39488e-14"/>
<path fill="#9aa4ff" stroke="#9aa4ff" stroke-width="2" d="M235.183,-6.39488e-14C241.183,-6.39488e-14 247.183,-6 247.183,-12"/>
<path fill="#9aa4ff" stroke="#9aa4ff" stroke-width="2" d="M247.183,-24C247.183,-30 241.183,-36 235.183,-36"/>
<polyline fill="none" stroke="white" stroke-width="2" points="235.183,-36 176.683,-36 "/>
<path fill="none" stroke="white" stroke-width="2" d="M176.683,-36C170.683,-36 164.683,-30 164.683,-24"/>
<polyline fill="none" stroke="white" stroke-width="2" points="164.683,-24 164.683,-12 "/>
<path fill="none" stroke="white" stroke-width="2" d="M164.683,-12C164.683,-6 170.683,-6.39488e-14 176.683,-6.39488e-14"/>
<polyline fill="none" stroke="white" stroke-width="2" points="176.683,-6.39488e-14 235.183,-6.39488e-14 "/>
<path fill="none" stroke="white" stroke-width="2" d="M235.183,-6.39488e-14C241.183,-6.39488e-14 247.183,-6 247.183,-12"/>
<polyline fill="none" stroke="white" stroke-width="2" points="247.183,-12 247.183,-24 "/>
<path fill="none" stroke="white" stroke-width="2" d="M247.183,-24C247.183,-30 241.183,-36 235.183,-36"/>
<text text-anchor="middle" x="205.933" y="-15.5" font-family="Helvetica,sans-Serif" font-size="10.00">PAX7_NOBOX</text>
</a>
</g>
<!-- GATA3&#45;&gt;PAX7_NOBOX -->
<g id="edge18" class="edge"><title>GATA3&#45;&gt;PAX7_NOBOX</title>
<a xlink:title="NOBOX: 0.370||remove10root">
<path fill="none" stroke="#ff9191" stroke-width="3" d="M253.588,-195.851C244.231,-160.931 223.647,-84.1103 212.851,-43.8195"/>
<polygon fill="#ff9191" stroke="#ff9191" points="215.541,-43.0407 210.766,-36.038 210.132,-44.4901 215.541,-43.0407"/>
</a>
</g>
<!-- SIX1_SIX3_SIX2 -->
<g id="node20" class="node"><title>SIX1_SIX3_SIX2</title>
<a xlink:href="SIX1_SIX3_SIX2.svg" xlink:title="Z&#45;value: 0.540||remove16">
<polygon fill="#a3acff" stroke="#a3acff" stroke-width="2" points="344.933,-36 276.933,-36 264.933,-24 264.933,-12 276.933,-0 344.933,-0 356.933,-12 356.933,-24 344.933,-36"/>
<path fill="#a3acff" stroke="#a3acff" stroke-width="2" d="M276.933,-36C270.933,-36 264.933,-30 264.933,-24"/>
<path fill="#a3acff" stroke="#a3acff" stroke-width="2" d="M264.933,-12C264.933,-6 270.933,-0 276.933,-0"/>
<path fill="#a3acff" stroke="#a3acff" stroke-width="2" d="M344.933,-0C350.933,-0 356.933,-6 356.933,-12"/>
<path fill="#a3acff" stroke="#a3acff" stroke-width="2" d="M356.933,-24C356.933,-30 350.933,-36 344.933,-36"/>
<polyline fill="none" stroke="white" stroke-width="2" points="344.933,-36 276.933,-36 "/>
<path fill="none" stroke="white" stroke-width="2" d="M276.933,-36C270.933,-36 264.933,-30 264.933,-24"/>
<polyline fill="none" stroke="white" stroke-width="2" points="264.933,-24 264.933,-12 "/>
<path fill="none" stroke="white" stroke-width="2" d="M264.933,-12C264.933,-6 270.933,-0 276.933,-0"/>
<polyline fill="none" stroke="white" stroke-width="2" points="276.933,-0 344.933,-0 "/>
<path fill="none" stroke="white" stroke-width="2" d="M344.933,-0C350.933,-0 356.933,-6 356.933,-12"/>
<polyline fill="none" stroke="white" stroke-width="2" points="356.933,-12 356.933,-24 "/>
<path fill="none" stroke="white" stroke-width="2" d="M356.933,-24C356.933,-30 350.933,-36 344.933,-36"/>
<text text-anchor="middle" x="310.933" y="-15.5" font-family="Helvetica,sans-Serif" font-size="10.00">SIX1_SIX3_SIX2</text>
</a>
</g>
<!-- GATA3&#45;&gt;SIX1_SIX3_SIX2 -->
<g id="edge20" class="edge"><title>GATA3&#45;&gt;SIX1_SIX3_SIX2</title>
<a xlink:title="SIX1: 0.658||remove16root">
<path fill="none" stroke="#ff6363" stroke-width="3" d="M263.278,-195.851C272.634,-160.931 293.218,-84.1103 304.014,-43.8195"/>
<polygon fill="#ff6363" stroke="#ff6363" points="306.733,-44.4901 306.099,-36.038 301.324,-43.0407 306.733,-44.4901"/>
</a>
</g>
<!-- NKX2&#45;4 -->
<g id="node22" class="node"><title>NKX2&#45;4</title>
<a xlink:href="NKX2-4.svg" xlink:title="Z&#45;value: 0.505||remove9">
<polygon fill="#a5aeff" stroke="#a5aeff" stroke-width="2" points="416.865,-88.5 386.865,-88.5 374.865,-76.5 374.865,-64.5 386.865,-52.5 416.865,-52.5 428.865,-64.5 428.865,-76.5 416.865,-88.5"/>
<path fill="#a5aeff" stroke="#a5aeff" stroke-width="2" d="M386.865,-88.5C380.865,-88.5 374.865,-82.5 374.865,-76.5"/>
<path fill="#a5aeff" stroke="#a5aeff" stroke-width="2" d="M374.865,-64.5C374.865,-58.5 380.865,-52.5 386.865,-52.5"/>
<path fill="#a5aeff" stroke="#a5aeff" stroke-width="2" d="M416.865,-52.5C422.865,-52.5 428.865,-58.5 428.865,-64.5"/>
<path fill="#a5aeff" stroke="#a5aeff" stroke-width="2" d="M428.865,-76.5C428.865,-82.5 422.865,-88.5 416.865,-88.5"/>
<polyline fill="none" stroke="white" stroke-width="2" points="416.865,-88.5 386.865,-88.5 "/>
<path fill="none" stroke="white" stroke-width="2" d="M386.865,-88.5C380.865,-88.5 374.865,-82.5 374.865,-76.5"/>
<polyline fill="none" stroke="white" stroke-width="2" points="374.865,-76.5 374.865,-64.5 "/>
<path fill="none" stroke="white" stroke-width="2" d="M374.865,-64.5C374.865,-58.5 380.865,-52.5 386.865,-52.5"/>
<polyline fill="none" stroke="white" stroke-width="2" points="386.865,-52.5 416.865,-52.5 "/>
<path fill="none" stroke="white" stroke-width="2" d="M416.865,-52.5C422.865,-52.5 428.865,-58.5 428.865,-64.5"/>
<polyline fill="none" stroke="white" stroke-width="2" points="428.865,-64.5 428.865,-76.5 "/>
<path fill="none" stroke="white" stroke-width="2" d="M428.865,-76.5C428.865,-82.5 422.865,-88.5 416.865,-88.5"/>
<text text-anchor="middle" x="401.865" y="-68" font-family="Helvetica,sans-Serif" font-size="10.00">NKX2&#45;4</text>
</a>
</g>
<!-- GATA3&#45;&gt;NKX2&#45;4 -->
<g id="edge22" class="edge"><title>GATA3&#45;&gt;NKX2&#45;4</title>
<a xlink:title="NKX2&#45;4: 0.347||remove9root">
<path fill="none" stroke="#ff9494" stroke-width="3" d="M276.599,-195.767C302.356,-170.009 349.526,-122.839 378.056,-94.309"/>
<polygon fill="#ff9494" stroke="#ff9494" points="380.17,-96.1551 383.847,-88.5184 376.21,-92.1953 380.17,-96.1551"/>
</a>
</g>
<!-- E2F2_E2F5 -->
<g id="node24" class="node"><title>E2F2_E2F5</title>
<a xlink:href="E2F2_E2F5.svg" xlink:title="Z&#45;value: 0.434||remove15">
<polygon fill="#abb3ff" stroke="#abb3ff" stroke-width="2" points="476.365,-179.433 432.365,-179.433 420.365,-167.433 420.365,-155.433 432.365,-143.433 476.365,-143.433 488.365,-155.433 488.365,-167.433 476.365,-179.433"/>
<path fill="#abb3ff" stroke="#abb3ff" stroke-width="2" d="M432.365,-179.433C426.365,-179.433 420.365,-173.433 420.365,-167.433"/>
<path fill="#abb3ff" stroke="#abb3ff" stroke-width="2" d="M420.365,-155.433C420.365,-149.433 426.365,-143.433 432.365,-143.433"/>
<path fill="#abb3ff" stroke="#abb3ff" stroke-width="2" d="M476.365,-143.433C482.365,-143.433 488.365,-149.433 488.365,-155.433"/>
<path fill="#abb3ff" stroke="#abb3ff" stroke-width="2" d="M488.365,-167.433C488.365,-173.433 482.365,-179.433 476.365,-179.433"/>
<polyline fill="none" stroke="white" stroke-width="2" points="476.365,-179.433 432.365,-179.433 "/>
<path fill="none" stroke="white" stroke-width="2" d="M432.365,-179.433C426.365,-179.433 420.365,-173.433 420.365,-167.433"/>
<polyline fill="none" stroke="white" stroke-width="2" points="420.365,-167.433 420.365,-155.433 "/>
<path fill="none" stroke="white" stroke-width="2" d="M420.365,-155.433C420.365,-149.433 426.365,-143.433 432.365,-143.433"/>
<polyline fill="none" stroke="white" stroke-width="2" points="432.365,-143.433 476.365,-143.433 "/>
<path fill="none" stroke="white" stroke-width="2" d="M476.365,-143.433C482.365,-143.433 488.365,-149.433 488.365,-155.433"/>
<polyline fill="none" stroke="white" stroke-width="2" points="488.365,-155.433 488.365,-167.433 "/>
<path fill="none" stroke="white" stroke-width="2" d="M488.365,-167.433C488.365,-173.433 482.365,-179.433 476.365,-179.433"/>
<text text-anchor="middle" x="454.365" y="-158.933" font-family="Helvetica,sans-Serif" font-size="10.00">E2F2_E2F5</text>
</a>
</g>
<!-- GATA3&#45;&gt;E2F2_E2F5 -->
<g id="edge24" class="edge"><title>GATA3&#45;&gt;E2F2_E2F5</title>
<a xlink:title="E2F5: 0.477||remove15root">
<path fill="none" stroke="#ff8080" stroke-width="3" d="M285.676,-206.633C318.464,-197.847 373.883,-182.998 412.206,-172.729"/>
<polygon fill="#ff8080" stroke="#ff8080" points="413.108,-175.386 420.11,-170.611 411.658,-169.977 413.108,-175.386"/>
</a>
</g>
<!-- SPIB&#45;&gt;PAX8 -->
<g id="edge28" class="edge"><title>SPIB&#45;&gt;PAX8</title>
<a xlink:title="PAX8: 0.059||remove3root">
<path fill="none" stroke="#ebc2ff" stroke-width="3" d="M427.121,-266.433C357.791,-266.433 174.709,-266.433 97.5639,-266.433"/>
<polygon fill="#ebc2ff" stroke="#ebc2ff" points="97.5637,-263.633 89.5637,-266.433 97.5637,-269.233 97.5637,-263.633"/>
</a>
</g>
<!-- STAT1_STAT3_BCL6&#45;&gt;ZIC3_ZIC4 -->
<g id="edge38" class="edge"><title>STAT1_STAT3_BCL6&#45;&gt;ZIC3_ZIC4</title>
<a xlink:title="ZIC4: 0.017||remove0root">
<path fill="none" stroke="#edc9ff" stroke-width="3" d="M370.571,-375.433C363.713,-379.393 356.377,-383.628 349.278,-387.727"/>
<polygon fill="#edc9ff" stroke="#edc9ff" points="347.812,-385.34 342.284,-391.765 350.612,-390.189 347.812,-385.34"/>
</a>
</g>
<!-- ZIC3_ZIC4&#45;&gt;SIX1_SIX3_SIX2 -->
<g id="edge26" class="edge"><title>ZIC3_ZIC4&#45;&gt;SIX1_SIX3_SIX2</title>
<a xlink:title="SIX2: 0.181||remove6root">
<path fill="none" stroke="#e5afff" stroke-width="3" d="M310.933,-391.751C310.933,-328.831 310.933,-119.528 310.933,-44.8014"/>
<polygon fill="#e5afff" stroke="#e5afff" points="313.733,-44.3743 310.933,-36.3744 308.133,-44.3744 313.733,-44.3743"/>
</a>
</g>
<!-- NR2E1&#45;&gt;ZIC3_ZIC4 -->
<g id="edge36" class="edge"><title>NR2E1&#45;&gt;ZIC3_ZIC4</title>
<a xlink:title="ZIC3: 0.070||remove4root">
<path fill="none" stroke="#ebc0ff" stroke-width="3" d="M232.973,-409.865C244.337,-409.865 257.802,-409.865 270.316,-409.865"/>
<polygon fill="#ebc0ff" stroke="#ebc0ff" points="270.371,-412.665 278.371,-409.865 270.371,-407.065 270.371,-412.665"/>
</a>
</g>
<!-- HOXB2_UNCX_HOXD3&#45;&gt;HOXB2_UNCX_HOXD3 -->
<g id="edge30" class="edge"><title>HOXB2_UNCX_HOXD3&#45;&gt;HOXB2_UNCX_HOXD3</title>
<a xlink:title="UNCX: 0.135||remove5root">
<path fill="none" stroke="#e7b6ff" stroke-width="3" d="M124.888,-167.706C135.309,-166.829 142.5,-164.737 142.5,-161.433 142.5,-159.057 138.785,-157.309 132.826,-156.188"/>
<polygon fill="#e7b6ff" stroke="#e7b6ff" points="133.182,-153.41 124.888,-155.159 132.462,-158.964 133.182,-153.41"/>
</a>
</g>
<!-- HOXB2_UNCX_HOXD3&#45;&gt;PAX7_NOBOX -->
<g id="edge32" class="edge"><title>HOXB2_UNCX_HOXD3&#45;&gt;PAX7_NOBOX</title>
<a xlink:title="NOBOX: 0.044||remove2root">
<path fill="none" stroke="#ecc4ff" stroke-width="3" d="M86.68,-143.251C104.023,-129.737 127.543,-110.42 146.32,-91.38 161.412,-76.0768 176.661,-57.23 187.959,-42.4686"/>
<polygon fill="#ecc4ff" stroke="#ecc4ff" points="190.259,-44.0692 192.857,-36.0012 185.795,-40.6883 190.259,-44.0692"/>
</a>
</g>
<!-- SIX1_SIX3_SIX2&#45;&gt;PAX7_NOBOX -->
<g id="edge34" class="edge"><title>SIX1_SIX3_SIX2&#45;&gt;PAX7_NOBOX</title>
<a xlink:title="NOBOX: 0.020||remove1root">
<path fill="none" stroke="#edc8ff" stroke-width="3" d="M264.878,-18C261.775,-18 258.642,-18 255.522,-18"/>
<polygon fill="#edc8ff" stroke="#edc8ff" points="255.327,-15.1999 247.327,-18 255.327,-20.7999 255.327,-15.1999"/>
</a>
</g>
</g>
</svg>
