<?xml version="1.0" ?><!DOCTYPE svg  PUBLIC '-//W3C//DTD SVG 1.1//EN'  'http://www.w3.org/Graphics/SVG/1.1/DTD/svg11.dtd'><!-- Generated by graphviz version 2.28.0 (20110630.0925)
 --><!-- Title: _anonymous_0 Pages: 1 --><svg height="452pt" onload="init(evt)" width="643pt" xmlns="http://www.w3.org/2000/svg" xmlns:ismara="ismara.unibas.ch" xmlns:xlink="http://www.w3.org/1999/xlink">
<g class="graph" id="graph1" transform="scale(1 1) rotate(0) translate(54 398.277)">

<polygon fill="white" points="-4,5 -4,-398.277 489.777,-398.277 489.777,5 -4,5" stroke="white"/>
<!-- ESRRA_ESR2 -->
<g class="node" id="node1">
<a class="remove19" onmousemove="ShowTooltip(evt, 'Z-value: 3.814')" onmouseout="HideTooltip(evt)" xlink:href="ESRRA_ESR2.svg">
<polygon fill="#3247ff" points="206.888,-36 148.388,-36 136.388,-24 136.388,-12 148.388,-3.19744e-14 206.888,-3.19744e-14 218.888,-12 218.888,-24 206.888,-36" stroke="#3247ff" stroke-width="2"/>
<path d="M148.388,-36C142.388,-36 136.388,-30 136.388,-24" fill="#3247ff" stroke="#3247ff" stroke-width="2"/>
<path d="M136.388,-12C136.388,-6 142.388,-3.19744e-14 148.388,-3.19744e-14" fill="#3247ff" stroke="#3247ff" stroke-width="2"/>
<path d="M206.888,-3.19744e-14C212.888,-3.19744e-14 218.888,-6 218.888,-12" fill="#3247ff" stroke="#3247ff" stroke-width="2"/>
<path d="M218.888,-24C218.888,-30 212.888,-36 206.888,-36" fill="#3247ff" stroke="#3247ff" stroke-width="2"/>
<polyline fill="none" points="206.888,-36 148.388,-36 " stroke="white" stroke-width="2"/>
<path d="M148.388,-36C142.388,-36 136.388,-30 136.388,-24" fill="none" stroke="white" stroke-width="2"/>
<polyline fill="none" points="136.388,-24 136.388,-12 " stroke="white" stroke-width="2"/>
<path d="M136.388,-12C136.388,-6 142.388,-3.19744e-14 148.388,-3.19744e-14" fill="none" stroke="white" stroke-width="2"/>
<polyline fill="none" points="148.388,-3.19744e-14 206.888,-3.19744e-14 " stroke="white" stroke-width="2"/>
<path d="M206.888,-3.19744e-14C212.888,-3.19744e-14 218.888,-6 218.888,-12" fill="none" stroke="white" stroke-width="2"/>
<polyline fill="none" points="218.888,-12 218.888,-24 " stroke="white" stroke-width="2"/>
<path d="M218.888,-24C218.888,-30 212.888,-36 206.888,-36" fill="none" stroke="white" stroke-width="2"/>
<text fill="white" font-family="Helvetica,sans-Serif" font-size="10.00" text-anchor="middle" x="177.638" y="-15.5">ESRRA_ESR2</text>
</a>
</g>
<!-- HOXB2_UNCX_HOXD3 -->
<g class="node" id="node2">
<a class="remove16" onmousemove="ShowTooltip(evt, 'Z-value: 0.563')" onmouseout="HideTooltip(evt)" xlink:href="HOXB2_UNCX_HOXD3.svg">
<polygon fill="#b5bcff" points="455.027,-263.138 354.527,-263.138 342.527,-251.138 342.527,-239.138 354.527,-227.138 455.027,-227.138 467.027,-239.138 467.027,-251.138 455.027,-263.138" stroke="#b5bcff" stroke-width="2"/>
<path d="M354.527,-263.138C348.527,-263.138 342.527,-257.138 342.527,-251.138" fill="#b5bcff" stroke="#b5bcff" stroke-width="2"/>
<path d="M342.527,-239.138C342.527,-233.138 348.527,-227.138 354.527,-227.138" fill="#b5bcff" stroke="#b5bcff" stroke-width="2"/>
<path d="M455.027,-227.138C461.027,-227.138 467.027,-233.138 467.027,-239.138" fill="#b5bcff" stroke="#b5bcff" stroke-width="2"/>
<path d="M467.027,-251.138C467.027,-257.138 461.027,-263.138 455.027,-263.138" fill="#b5bcff" stroke="#b5bcff" stroke-width="2"/>
<polyline fill="none" points="455.027,-263.138 354.527,-263.138 " stroke="white" stroke-width="2"/>
<path d="M354.527,-263.138C348.527,-263.138 342.527,-257.138 342.527,-251.138" fill="none" stroke="white" stroke-width="2"/>
<polyline fill="none" points="342.527,-251.138 342.527,-239.138 " stroke="white" stroke-width="2"/>
<path d="M342.527,-239.138C342.527,-233.138 348.527,-227.138 354.527,-227.138" fill="none" stroke="white" stroke-width="2"/>
<polyline fill="none" points="354.527,-227.138 455.027,-227.138 " stroke="white" stroke-width="2"/>
<path d="M455.027,-227.138C461.027,-227.138 467.027,-233.138 467.027,-239.138" fill="none" stroke="white" stroke-width="2"/>
<polyline fill="none" points="467.027,-239.138 467.027,-251.138 " stroke="white" stroke-width="2"/>
<path d="M467.027,-251.138C467.027,-257.138 461.027,-263.138 455.027,-263.138" fill="none" stroke="white" stroke-width="2"/>
<text font-family="Helvetica,sans-Serif" font-size="10.00" text-anchor="middle" x="404.777" y="-242.638">HOXB2_UNCX_HOXD3</text>
</a>
</g>
<!-- ESRRA_ESR2&#45;&gt;HOXB2_UNCX_HOXD3 -->
<g class="edge" id="edge2">
<a class="remove9 root" ismara:data="0.223" onmousemove="ShowTooltip(evt, 'HOXB2: 0.223|HOXD3: 0.098')" onmouseout="HideTooltip(evt)">
<path d="M195.842,-36.2037C236.544,-76.906 334.921,-175.283 380.655,-221.016" fill="none" stroke="#e4abff" stroke-width="3"/>
<polygon fill="#e4abff" points="378.85,-223.171 386.486,-226.848 382.809,-219.211 378.85,-223.171" stroke="#e4abff"/>
</a>
</g>
<!-- AHR_ARNT2 -->
<g class="node" id="node4">
<a class="remove17" onmousemove="ShowTooltip(evt, 'Z-value: 1.019')" onmouseout="HideTooltip(evt)" xlink:href="AHR_ARNT2.svg">
<polygon fill="#a3acff" points="299.888,-36 247.388,-36 235.388,-24 235.388,-12 247.388,3.19744e-14 299.888,3.19744e-14 311.888,-12 311.888,-24 299.888,-36" stroke="#a3acff" stroke-width="2"/>
<path d="M247.388,-36C241.388,-36 235.388,-30 235.388,-24" fill="#a3acff" stroke="#a3acff" stroke-width="2"/>
<path d="M235.388,-12C235.388,-6 241.388,3.19744e-14 247.388,3.19744e-14" fill="#a3acff" stroke="#a3acff" stroke-width="2"/>
<path d="M299.888,3.19744e-14C305.888,3.19744e-14 311.888,-6 311.888,-12" fill="#a3acff" stroke="#a3acff" stroke-width="2"/>
<path d="M311.888,-24C311.888,-30 305.888,-36 299.888,-36" fill="#a3acff" stroke="#a3acff" stroke-width="2"/>
<polyline fill="none" points="299.888,-36 247.388,-36 " stroke="white" stroke-width="2"/>
<path d="M247.388,-36C241.388,-36 235.388,-30 235.388,-24" fill="none" stroke="white" stroke-width="2"/>
<polyline fill="none" points="235.388,-24 235.388,-12 " stroke="white" stroke-width="2"/>
<path d="M235.388,-12C235.388,-6 241.388,3.19744e-14 247.388,3.19744e-14" fill="none" stroke="white" stroke-width="2"/>
<polyline fill="none" points="247.388,3.19744e-14 299.888,3.19744e-14 " stroke="white" stroke-width="2"/>
<path d="M299.888,3.19744e-14C305.888,3.19744e-14 311.888,-6 311.888,-12" fill="none" stroke="white" stroke-width="2"/>
<polyline fill="none" points="311.888,-12 311.888,-24 " stroke="white" stroke-width="2"/>
<path d="M311.888,-24C311.888,-30 305.888,-36 299.888,-36" fill="none" stroke="white" stroke-width="2"/>
<text font-family="Helvetica,sans-Serif" font-size="10.00" text-anchor="middle" x="273.638" y="-15.5">AHR_ARNT2</text>
</a>
</g>
<!-- ESRRA_ESR2&#45;&gt;AHR_ARNT2 -->
<g class="edge" id="edge4">
<a class="remove7 root" ismara:data="0.15" onmousemove="ShowTooltip(evt, 'ARNT2: 0.150|AHR: 0.001|ESR2: 0.120')" onmouseout="HideTooltip(evt)">
<path d="M227.04,-17.0069C227.125,-17 227.21,-17 227.295,-17.0069" fill="none" stroke="#e7b5ff" stroke-width="3"/>
<path d="M227.04,-18.9931C227.125,-19 227.21,-19 227.295,-18.9931" fill="none" stroke="#e9baff" stroke-width="3"/>
<polygon fill="#e9baff" points="226.908,-15.1999 218.908,-18 226.908,-20.7999 226.908,-15.1999" stroke="#e9baff"/>
<polygon fill="#e7b5ff" points="227.136,-20.8001 235.136,-18 227.136,-15.2001 227.136,-20.8001" stroke="#e7b5ff"/>
</a>
</g>
<!-- HES1 -->
<g class="node" id="node6">
<a class="remove22" onmousemove="ShowTooltip(evt, 'Z-value: 1.505')" onmouseout="HideTooltip(evt)" xlink:href="HES1.svg">
<polygon fill="#ff8f8f" points="240.638,-215.138 210.638,-215.138 198.638,-203.138 198.638,-191.138 210.638,-179.138 240.638,-179.138 252.638,-191.138 252.638,-203.138 240.638,-215.138" stroke="#ff8f8f" stroke-width="2"/>
<path d="M210.638,-215.138C204.638,-215.138 198.638,-209.138 198.638,-203.138" fill="#ff8f8f" stroke="#ff8f8f" stroke-width="2"/>
<path d="M198.638,-191.138C198.638,-185.138 204.638,-179.138 210.638,-179.138" fill="#ff8f8f" stroke="#ff8f8f" stroke-width="2"/>
<path d="M240.638,-179.138C246.638,-179.138 252.638,-185.138 252.638,-191.138" fill="#ff8f8f" stroke="#ff8f8f" stroke-width="2"/>
<path d="M252.638,-203.138C252.638,-209.138 246.638,-215.138 240.638,-215.138" fill="#ff8f8f" stroke="#ff8f8f" stroke-width="2"/>
<polyline fill="none" points="240.638,-215.138 210.638,-215.138 " stroke="white" stroke-width="2"/>
<path d="M210.638,-215.138C204.638,-215.138 198.638,-209.138 198.638,-203.138" fill="none" stroke="white" stroke-width="2"/>
<polyline fill="none" points="198.638,-203.138 198.638,-191.138 " stroke="white" stroke-width="2"/>
<path d="M198.638,-191.138C198.638,-185.138 204.638,-179.138 210.638,-179.138" fill="none" stroke="white" stroke-width="2"/>
<polyline fill="none" points="210.638,-179.138 240.638,-179.138 " stroke="white" stroke-width="2"/>
<path d="M240.638,-179.138C246.638,-179.138 252.638,-185.138 252.638,-191.138" fill="none" stroke="white" stroke-width="2"/>
<polyline fill="none" points="252.638,-191.138 252.638,-203.138 " stroke="white" stroke-width="2"/>
<path d="M252.638,-203.138C252.638,-209.138 246.638,-215.138 240.638,-215.138" fill="none" stroke="white" stroke-width="2"/>
<text font-family="Helvetica,sans-Serif" font-size="10.00" text-anchor="middle" x="225.638" y="-194.638">HES1</text>
</a>
</g>
<!-- ESRRA_ESR2&#45;&gt;HES1 -->
<g class="edge" id="edge6">
<a class="remove19 root" ismara:data="0.458" onmousemove="ShowTooltip(evt, 'HES1: 0.458')" onmouseout="HideTooltip(evt)">
<path d="M182.505,-36.1626C191.058,-68.083 208.811,-134.338 218.666,-171.117" fill="none" stroke="#8894ff" stroke-width="3"/>
<polygon fill="#8894ff" points="215.984,-171.925 220.759,-178.928 221.393,-170.476 215.984,-171.925" stroke="#8894ff"/>
</a>
</g>
<!-- RBPJ -->
<g class="node" id="node8">
<a class="remove13" onmousemove="ShowTooltip(evt, 'Z-value: 0.623')" onmouseout="HideTooltip(evt)" xlink:href="RBPJ.svg">
<polygon fill="#b3baff" points="371.777,-346.277 341.777,-346.277 329.777,-334.277 329.777,-322.277 341.777,-310.277 371.777,-310.277 383.777,-322.277 383.777,-334.277 371.777,-346.277" stroke="#b3baff" stroke-width="2"/>
<path d="M341.777,-346.277C335.777,-346.277 329.777,-340.277 329.777,-334.277" fill="#b3baff" stroke="#b3baff" stroke-width="2"/>
<path d="M329.777,-322.277C329.777,-316.277 335.777,-310.277 341.777,-310.277" fill="#b3baff" stroke="#b3baff" stroke-width="2"/>
<path d="M371.777,-310.277C377.777,-310.277 383.777,-316.277 383.777,-322.277" fill="#b3baff" stroke="#b3baff" stroke-width="2"/>
<path d="M383.777,-334.277C383.777,-340.277 377.777,-346.277 371.777,-346.277" fill="#b3baff" stroke="#b3baff" stroke-width="2"/>
<polyline fill="none" points="371.777,-346.277 341.777,-346.277 " stroke="white" stroke-width="2"/>
<path d="M341.777,-346.277C335.777,-346.277 329.777,-340.277 329.777,-334.277" fill="none" stroke="white" stroke-width="2"/>
<polyline fill="none" points="329.777,-334.277 329.777,-322.277 " stroke="white" stroke-width="2"/>
<path d="M329.777,-322.277C329.777,-316.277 335.777,-310.277 341.777,-310.277" fill="none" stroke="white" stroke-width="2"/>
<polyline fill="none" points="341.777,-310.277 371.777,-310.277 " stroke="white" stroke-width="2"/>
<path d="M371.777,-310.277C377.777,-310.277 383.777,-316.277 383.777,-322.277" fill="none" stroke="white" stroke-width="2"/>
<polyline fill="none" points="383.777,-322.277 383.777,-334.277 " stroke="white" stroke-width="2"/>
<path d="M383.777,-334.277C383.777,-340.277 377.777,-346.277 371.777,-346.277" fill="none" stroke="white" stroke-width="2"/>
<text font-family="Helvetica,sans-Serif" font-size="10.00" text-anchor="middle" x="356.777" y="-325.777">RBPJ</text>
</a>
</g>
<!-- ESRRA_ESR2&#45;&gt;RBPJ -->
<g class="edge" id="edge8">
<a class="remove4 root" ismara:data="0.102" onmousemove="ShowTooltip(evt, 'RBPJ: 0.102')" onmouseout="HideTooltip(evt)">
<path d="M188.044,-36.0229C218.407,-88.6127 306.962,-241.994 342.132,-302.911" fill="none" stroke="#e9bcff" stroke-width="3"/>
<polygon fill="#e9bcff" points="339.918,-304.676 346.343,-310.204 344.767,-301.876 339.918,-304.676" stroke="#e9bcff"/>
</a>
</g>
<!-- HOXB2_UNCX_HOXD3&#45;&gt;HOXB2_UNCX_HOXD3 -->
<g class="edge" id="edge32">
<a class="remove6 root" ismara:data="0.135" onmousemove="ShowTooltip(evt, 'UNCX: 0.135')" onmouseout="HideTooltip(evt)">
<path d="M467.165,-251.412C477.586,-250.534 484.777,-248.443 484.777,-245.138 484.777,-242.763 481.062,-241.015 475.103,-239.893" fill="none" stroke="#e8b8ff" stroke-width="3"/>
<polygon fill="#e8b8ff" points="475.459,-237.116 467.165,-238.865 474.739,-242.67 475.459,-237.116" stroke="#e8b8ff"/>
</a>
</g>
<!-- FOSL2_SMARCC1 -->
<g class="node" id="node15">
<a class="remove14" onmousemove="ShowTooltip(evt, 'Z-value: 0.739')" onmouseout="HideTooltip(evt)" xlink:href="FOSL2_SMARCC1.svg">
<polygon fill="#aeb6ff" points="312.138,-394.277 235.138,-394.277 223.138,-382.277 223.138,-370.277 235.138,-358.277 312.138,-358.277 324.138,-370.277 324.138,-382.277 312.138,-394.277" stroke="#aeb6ff" stroke-width="2"/>
<path d="M235.138,-394.277C229.138,-394.277 223.138,-388.277 223.138,-382.277" fill="#aeb6ff" stroke="#aeb6ff" stroke-width="2"/>
<path d="M223.138,-370.277C223.138,-364.277 229.138,-358.277 235.138,-358.277" fill="#aeb6ff" stroke="#aeb6ff" stroke-width="2"/>
<path d="M312.138,-358.277C318.138,-358.277 324.138,-364.277 324.138,-370.277" fill="#aeb6ff" stroke="#aeb6ff" stroke-width="2"/>
<path d="M324.138,-382.277C324.138,-388.277 318.138,-394.277 312.138,-394.277" fill="#aeb6ff" stroke="#aeb6ff" stroke-width="2"/>
<polyline fill="none" points="312.138,-394.277 235.138,-394.277 " stroke="white" stroke-width="2"/>
<path d="M235.138,-394.277C229.138,-394.277 223.138,-388.277 223.138,-382.277" fill="none" stroke="white" stroke-width="2"/>
<polyline fill="none" points="223.138,-382.277 223.138,-370.277 " stroke="white" stroke-width="2"/>
<path d="M223.138,-370.277C223.138,-364.277 229.138,-358.277 235.138,-358.277" fill="none" stroke="white" stroke-width="2"/>
<polyline fill="none" points="235.138,-358.277 312.138,-358.277 " stroke="white" stroke-width="2"/>
<path d="M312.138,-358.277C318.138,-358.277 324.138,-364.277 324.138,-370.277" fill="none" stroke="white" stroke-width="2"/>
<polyline fill="none" points="324.138,-370.277 324.138,-382.277 " stroke="white" stroke-width="2"/>
<path d="M324.138,-382.277C324.138,-388.277 318.138,-394.277 312.138,-394.277" fill="none" stroke="white" stroke-width="2"/>
<text font-family="Helvetica,sans-Serif" font-size="10.00" text-anchor="middle" x="273.638" y="-373.777">FOSL2_SMARCC1</text>
</a>
</g>
<!-- HOXB2_UNCX_HOXD3&#45;&gt;FOSL2_SMARCC1 -->
<g class="edge" id="edge34">
<a class="remove1 root" ismara:data="0.025" onmousemove="ShowTooltip(evt, 'FOSL2: 0.025')" onmouseout="HideTooltip(evt)">
<path d="M378.358,-263.191C362.212,-274.854 341.628,-290.89 325.457,-307.397 312.347,-320.778 299.669,-337.542 290.134,-351.182" fill="none" stroke="#edc8ff" stroke-width="3"/>
<polygon fill="#edc8ff" points="287.674,-349.816 285.449,-357.995 292.289,-352.99 287.674,-349.816" stroke="#edc8ff"/>
</a>
</g>
<!-- AHR_ARNT2&#45;&gt;HES1 -->
<g class="edge" id="edge10">
<a class="remove17 root" ismara:data="0.363" onmousemove="ShowTooltip(evt, 'HES1: 0.363')" onmouseout="HideTooltip(evt)">
<path d="M268.772,-36.1626C260.219,-68.083 242.466,-134.338 232.611,-171.117" fill="none" stroke="#96a0ff" stroke-width="3"/>
<polygon fill="#96a0ff" points="229.884,-170.476 230.518,-178.928 235.293,-171.925 229.884,-170.476" stroke="#96a0ff"/>
</a>
</g>
<!-- AHR_ARNT2&#45;&gt;RBPJ -->
<g class="edge" id="edge14">
<a class="remove3 root" ismara:data="0.09" onmousemove="ShowTooltip(evt, 'RBPJ: 0.090')" onmouseout="HideTooltip(evt)">
<path d="M277.032,-36.2893C284.915,-77.6947 305.827,-181.572 332.277,-266.018 336.104,-278.238 341.179,-291.479 345.716,-302.595" fill="none" stroke="#eabeff" stroke-width="3"/>
<polygon fill="#eabeff" points="343.248,-303.953 348.9,-310.269 348.421,-301.807 343.248,-303.953" stroke="#eabeff"/>
</a>
</g>
<!-- HIC2 -->
<g class="node" id="node11">
<a class="remove10" onmousemove="ShowTooltip(evt, 'Z-value: 1.161')" onmouseout="HideTooltip(evt)" xlink:href="HIC2.svg">
<polygon fill="#9da7ff" points="371.777,-84 341.777,-84 329.777,-72 329.777,-60 341.777,-48 371.777,-48 383.777,-60 383.777,-72 371.777,-84" stroke="#9da7ff" stroke-width="2"/>
<path d="M341.777,-84C335.777,-84 329.777,-78 329.777,-72" fill="#9da7ff" stroke="#9da7ff" stroke-width="2"/>
<path d="M329.777,-60C329.777,-54 335.777,-48 341.777,-48" fill="#9da7ff" stroke="#9da7ff" stroke-width="2"/>
<path d="M371.777,-48C377.777,-48 383.777,-54 383.777,-60" fill="#9da7ff" stroke="#9da7ff" stroke-width="2"/>
<path d="M383.777,-72C383.777,-78 377.777,-84 371.777,-84" fill="#9da7ff" stroke="#9da7ff" stroke-width="2"/>
<polyline fill="none" points="371.777,-84 341.777,-84 " stroke="white" stroke-width="2"/>
<path d="M341.777,-84C335.777,-84 329.777,-78 329.777,-72" fill="none" stroke="white" stroke-width="2"/>
<polyline fill="none" points="329.777,-72 329.777,-60 " stroke="white" stroke-width="2"/>
<path d="M329.777,-60C329.777,-54 335.777,-48 341.777,-48" fill="none" stroke="white" stroke-width="2"/>
<polyline fill="none" points="341.777,-48 371.777,-48 " stroke="white" stroke-width="2"/>
<path d="M371.777,-48C377.777,-48 383.777,-54 383.777,-60" fill="none" stroke="white" stroke-width="2"/>
<polyline fill="none" points="383.777,-60 383.777,-72 " stroke="white" stroke-width="2"/>
<path d="M383.777,-72C383.777,-78 377.777,-84 371.777,-84" fill="none" stroke="white" stroke-width="2"/>
<text font-family="Helvetica,sans-Serif" font-size="10.00" text-anchor="middle" x="356.777" y="-63.5">HIC2</text>
</a>
</g>
<!-- AHR_ARNT2&#45;&gt;HIC2 -->
<g class="edge" id="edge12">
<a class="remove0 root" ismara:data="0.019" onmousemove="ShowTooltip(evt, 'HIC2: 0.019')" onmouseout="HideTooltip(evt)">
<path d="M305.07,-36.1467C310.76,-39.4321 316.72,-42.8733 322.488,-46.2031" fill="none" stroke="#edc9ff" stroke-width="3"/>
<polygon fill="#edc9ff" points="321.327,-48.766 329.655,-50.3411 324.127,-43.9162 321.327,-48.766" stroke="#edc9ff"/>
</a>
</g>
<!-- HES1&#45;&gt;HOXB2_UNCX_HOXD3 -->
<g class="edge" id="edge16">
<a class="remove16 root" ismara:data="0.346" onmousemove="ShowTooltip(evt, 'UNCX: 0.346')" onmouseout="HideTooltip(evt)">
<path d="M252.846,-204.429C274.497,-210.23 305.798,-218.617 334.371,-226.273" fill="none" stroke="#ff9999" stroke-width="3"/>
<polygon fill="#ff9999" points="333.895,-229.044 342.347,-228.41 335.344,-223.635 333.895,-229.044" stroke="#ff9999"/>
</a>
</g>
<!-- HES1&#45;&gt;RBPJ -->
<g class="edge" id="edge30">
<a class="remove13 root" ismara:data="0.281" onmousemove="ShowTooltip(evt, 'RBPJ: 0.281|HES1: 0.180')" onmouseout="HideTooltip(evt)">
<path d="M250.468,-220.554C274.166,-244.252 310.106,-280.192 333.69,-303.776" fill="none" stroke="#ffa2a2" stroke-width="3"/>
<path d="M249.054,-221.968C272.752,-245.666 308.692,-281.606 332.276,-305.19" fill="none" stroke="#b1b9ff" stroke-width="3"/>
<polygon fill="#b1b9ff" points="251.509,-219.05 243.873,-215.373 247.55,-223.009 251.509,-219.05" stroke="#b1b9ff"/>
<polygon fill="#ffa2a2" points="331.061,-306.521 338.698,-310.198 335.021,-302.561 331.061,-306.521" stroke="#ffa2a2"/>
</a>
</g>
<!-- HES1&#45;&gt;FOSL2_SMARCC1 -->
<g class="edge" id="edge18">
<a class="remove14 root" ismara:data="0.316" onmousemove="ShowTooltip(evt, 'SMARCC1: 0.316')" onmouseout="HideTooltip(evt)">
<path d="M230.505,-215.301C239.058,-247.221 256.811,-313.476 266.666,-350.255" fill="none" stroke="#ff9d9d" stroke-width="3"/>
<polygon fill="#ff9d9d" points="263.984,-351.064 268.759,-358.066 269.393,-349.614 263.984,-351.064" stroke="#ff9d9d"/>
</a>
</g>
<!-- REST -->
<g class="node" id="node17">
<a class="remove21" onmousemove="ShowTooltip(evt, 'Z-value: 0.425')" onmouseout="HideTooltip(evt)" xlink:href="REST.svg">
<polygon fill="#bac1ff" points="192.638,-394.277 162.638,-394.277 150.638,-382.277 150.638,-370.277 162.638,-358.277 192.638,-358.277 204.638,-370.277 204.638,-382.277 192.638,-394.277" stroke="#bac1ff" stroke-width="2"/>
<path d="M162.638,-394.277C156.638,-394.277 150.638,-388.277 150.638,-382.277" fill="#bac1ff" stroke="#bac1ff" stroke-width="2"/>
<path d="M150.638,-370.277C150.638,-364.277 156.638,-358.277 162.638,-358.277" fill="#bac1ff" stroke="#bac1ff" stroke-width="2"/>
<path d="M192.638,-358.277C198.638,-358.277 204.638,-364.277 204.638,-370.277" fill="#bac1ff" stroke="#bac1ff" stroke-width="2"/>
<path d="M204.638,-382.277C204.638,-388.277 198.638,-394.277 192.638,-394.277" fill="#bac1ff" stroke="#bac1ff" stroke-width="2"/>
<polyline fill="none" points="192.638,-394.277 162.638,-394.277 " stroke="white" stroke-width="2"/>
<path d="M162.638,-394.277C156.638,-394.277 150.638,-388.277 150.638,-382.277" fill="none" stroke="white" stroke-width="2"/>
<polyline fill="none" points="150.638,-382.277 150.638,-370.277 " stroke="white" stroke-width="2"/>
<path d="M150.638,-370.277C150.638,-364.277 156.638,-358.277 162.638,-358.277" fill="none" stroke="white" stroke-width="2"/>
<polyline fill="none" points="162.638,-358.277 192.638,-358.277 " stroke="white" stroke-width="2"/>
<path d="M192.638,-358.277C198.638,-358.277 204.638,-364.277 204.638,-370.277" fill="none" stroke="white" stroke-width="2"/>
<polyline fill="none" points="204.638,-370.277 204.638,-382.277 " stroke="white" stroke-width="2"/>
<path d="M204.638,-382.277C204.638,-388.277 198.638,-394.277 192.638,-394.277" fill="none" stroke="white" stroke-width="2"/>
<text font-family="Helvetica,sans-Serif" font-size="10.00" text-anchor="middle" x="177.638" y="-373.777">REST</text>
</a>
</g>
<!-- HES1&#45;&gt;REST -->
<g class="edge" id="edge20">
<a class="remove21 root" ismara:data="1.038" onmousemove="ShowTooltip(evt, 'REST: 1.038')" onmouseout="HideTooltip(evt)">
<path d="M220.772,-215.301C212.219,-247.221 194.466,-313.476 184.611,-350.255" fill="none" stroke="#ff3232" stroke-width="3"/>
<polygon fill="#ff3232" points="181.884,-349.614 182.518,-358.066 187.293,-351.064 181.884,-349.614" stroke="#ff3232"/>
</a>
</g>
<!-- CDX1 -->
<g class="node" id="node19">
<a class="remove11" onmousemove="ShowTooltip(evt, 'Z-value: 0.491')" onmouseout="HideTooltip(evt)" xlink:href="CDX1.svg">
<polygon fill="#b8bfff" points="109.5,-346.277 79.5,-346.277 67.5,-334.277 67.5,-322.277 79.5,-310.277 109.5,-310.277 121.5,-322.277 121.5,-334.277 109.5,-346.277" stroke="#b8bfff" stroke-width="2"/>
<path d="M79.5,-346.277C73.5,-346.277 67.5,-340.277 67.5,-334.277" fill="#b8bfff" stroke="#b8bfff" stroke-width="2"/>
<path d="M67.5,-322.277C67.5,-316.277 73.5,-310.277 79.5,-310.277" fill="#b8bfff" stroke="#b8bfff" stroke-width="2"/>
<path d="M109.5,-310.277C115.5,-310.277 121.5,-316.277 121.5,-322.277" fill="#b8bfff" stroke="#b8bfff" stroke-width="2"/>
<path d="M121.5,-334.277C121.5,-340.277 115.5,-346.277 109.5,-346.277" fill="#b8bfff" stroke="#b8bfff" stroke-width="2"/>
<polyline fill="none" points="109.5,-346.277 79.5,-346.277 " stroke="white" stroke-width="2"/>
<path d="M79.5,-346.277C73.5,-346.277 67.5,-340.277 67.5,-334.277" fill="none" stroke="white" stroke-width="2"/>
<polyline fill="none" points="67.5,-334.277 67.5,-322.277 " stroke="white" stroke-width="2"/>
<path d="M67.5,-322.277C67.5,-316.277 73.5,-310.277 79.5,-310.277" fill="none" stroke="white" stroke-width="2"/>
<polyline fill="none" points="79.5,-310.277 109.5,-310.277 " stroke="white" stroke-width="2"/>
<path d="M109.5,-310.277C115.5,-310.277 121.5,-316.277 121.5,-322.277" fill="none" stroke="white" stroke-width="2"/>
<polyline fill="none" points="121.5,-322.277 121.5,-334.277 " stroke="white" stroke-width="2"/>
<path d="M121.5,-334.277C121.5,-340.277 115.5,-346.277 109.5,-346.277" fill="none" stroke="white" stroke-width="2"/>
<text font-family="Helvetica,sans-Serif" font-size="10.00" text-anchor="middle" x="94.5" y="-325.777">CDX1</text>
</a>
</g>
<!-- HES1&#45;&gt;CDX1 -->
<g class="edge" id="edge22">
<a class="remove11 root" ismara:data="0.249" onmousemove="ShowTooltip(evt, 'CDX1: 0.249')" onmouseout="HideTooltip(evt)">
<path d="M207.404,-215.373C184.209,-238.568 144.093,-278.684 118.451,-304.326" fill="none" stroke="#ffa7a7" stroke-width="3"/>
<polygon fill="#ffa7a7" points="116.256,-302.561 112.579,-310.198 120.216,-306.521 116.256,-302.561" stroke="#ffa7a7"/>
</a>
</g>
<!-- NKX2&#45;5 -->
<g class="node" id="node21">
<a class="remove18" onmousemove="ShowTooltip(evt, 'Z-value: 0.410')" onmouseout="HideTooltip(evt)" xlink:href="NKX2-5.svg">
<polygon fill="#bbc2ff" points="61.5,-263.138 31.5,-263.138 19.5,-251.138 19.5,-239.138 31.5,-227.138 61.5,-227.138 73.5,-239.138 73.5,-251.138 61.5,-263.138" stroke="#bbc2ff" stroke-width="2"/>
<path d="M31.5,-263.138C25.5,-263.138 19.5,-257.138 19.5,-251.138" fill="#bbc2ff" stroke="#bbc2ff" stroke-width="2"/>
<path d="M19.5,-239.138C19.5,-233.138 25.5,-227.138 31.5,-227.138" fill="#bbc2ff" stroke="#bbc2ff" stroke-width="2"/>
<path d="M61.5,-227.138C67.5,-227.138 73.5,-233.138 73.5,-239.138" fill="#bbc2ff" stroke="#bbc2ff" stroke-width="2"/>
<path d="M73.5,-251.138C73.5,-257.138 67.5,-263.138 61.5,-263.138" fill="#bbc2ff" stroke="#bbc2ff" stroke-width="2"/>
<polyline fill="none" points="61.5,-263.138 31.5,-263.138 " stroke="white" stroke-width="2"/>
<path d="M31.5,-263.138C25.5,-263.138 19.5,-257.138 19.5,-251.138" fill="none" stroke="white" stroke-width="2"/>
<polyline fill="none" points="19.5,-251.138 19.5,-239.138 " stroke="white" stroke-width="2"/>
<path d="M19.5,-239.138C19.5,-233.138 25.5,-227.138 31.5,-227.138" fill="none" stroke="white" stroke-width="2"/>
<polyline fill="none" points="31.5,-227.138 61.5,-227.138 " stroke="white" stroke-width="2"/>
<path d="M61.5,-227.138C67.5,-227.138 73.5,-233.138 73.5,-239.138" fill="none" stroke="white" stroke-width="2"/>
<polyline fill="none" points="73.5,-239.138 73.5,-251.138 " stroke="white" stroke-width="2"/>
<path d="M73.5,-251.138C73.5,-257.138 67.5,-263.138 61.5,-263.138" fill="none" stroke="white" stroke-width="2"/>
<text font-family="Helvetica,sans-Serif" font-size="10.00" text-anchor="middle" x="46.5" y="-242.638">NKX2-5</text>
</a>
</g>
<!-- HES1&#45;&gt;NKX2&#45;5 -->
<g class="edge" id="edge24">
<a class="remove18 root" ismara:data="0.389" onmousemove="ShowTooltip(evt, 'NKX2-5: 0.389')" onmouseout="HideTooltip(evt)">
<path d="M198.431,-204.429C167.17,-212.805 115.787,-226.573 81.553,-235.746" fill="none" stroke="#ff9292" stroke-width="3"/>
<polygon fill="#ff9292" points="80.6719,-233.083 73.6692,-237.858 82.1214,-238.492 80.6719,-233.083" stroke="#ff9292"/>
</a>
</g>
<!-- RUNX3_BCL11A -->
<g class="node" id="node23">
<a class="remove12" onmousemove="ShowTooltip(evt, 'Z-value: 0.557')" onmouseout="HideTooltip(evt)" xlink:href="RUNX3_BCL11A.svg">
<polygon fill="#b5bcff" points="80.75,-167.138 12.25,-167.138 0.25,-155.138 0.25,-143.138 12.25,-131.138 80.75,-131.138 92.75,-143.138 92.75,-155.138 80.75,-167.138" stroke="#b5bcff" stroke-width="2"/>
<path d="M12.25,-167.138C6.25,-167.138 0.25,-161.138 0.25,-155.138" fill="#b5bcff" stroke="#b5bcff" stroke-width="2"/>
<path d="M0.25,-143.138C0.25,-137.138 6.25,-131.138 12.25,-131.138" fill="#b5bcff" stroke="#b5bcff" stroke-width="2"/>
<path d="M80.75,-131.138C86.75,-131.138 92.75,-137.138 92.75,-143.138" fill="#b5bcff" stroke="#b5bcff" stroke-width="2"/>
<path d="M92.75,-155.138C92.75,-161.138 86.75,-167.138 80.75,-167.138" fill="#b5bcff" stroke="#b5bcff" stroke-width="2"/>
<polyline fill="none" points="80.75,-167.138 12.25,-167.138 " stroke="white" stroke-width="2"/>
<path d="M12.25,-167.138C6.25,-167.138 0.25,-161.138 0.25,-155.138" fill="none" stroke="white" stroke-width="2"/>
<polyline fill="none" points="0.25,-155.138 0.25,-143.138 " stroke="white" stroke-width="2"/>
<path d="M0.25,-143.138C0.25,-137.138 6.25,-131.138 12.25,-131.138" fill="none" stroke="white" stroke-width="2"/>
<polyline fill="none" points="12.25,-131.138 80.75,-131.138 " stroke="white" stroke-width="2"/>
<path d="M80.75,-131.138C86.75,-131.138 92.75,-137.138 92.75,-143.138" fill="none" stroke="white" stroke-width="2"/>
<polyline fill="none" points="92.75,-143.138 92.75,-155.138 " stroke="white" stroke-width="2"/>
<path d="M92.75,-155.138C92.75,-161.138 86.75,-167.138 80.75,-167.138" fill="none" stroke="white" stroke-width="2"/>
<text font-family="Helvetica,sans-Serif" font-size="10.00" text-anchor="middle" x="46.5" y="-146.638">RUNX3_BCL11A</text>
</a>
</g>
<!-- HES1&#45;&gt;RUNX3_BCL11A -->
<g class="edge" id="edge26">
<a class="remove12 root" ismara:data="0.274" onmousemove="ShowTooltip(evt, 'RUNX3: 0.274')" onmouseout="HideTooltip(evt)">
<path d="M198.431,-189.848C172.715,-182.958 133.384,-172.419 101.183,-163.791" fill="none" stroke="#ffa3a3" stroke-width="3"/>
<polygon fill="#ffa3a3" points="101.615,-161.008 93.1627,-161.642 100.165,-166.417 101.615,-161.008" stroke="#ffa3a3"/>
</a>
</g>
<!-- TCF3_MYOG -->
<g class="node" id="node25">
<a class="remove20" onmousemove="ShowTooltip(evt, 'Z-value: 0.691')" onmouseout="HideTooltip(evt)" xlink:href="TCF3_MYOG.svg">
<polygon fill="#b0b8ff" points="120.75,-84 68.25,-84 56.25,-72 56.25,-60 68.25,-48 120.75,-48 132.75,-60 132.75,-72 120.75,-84" stroke="#b0b8ff" stroke-width="2"/>
<path d="M68.25,-84C62.25,-84 56.25,-78 56.25,-72" fill="#b0b8ff" stroke="#b0b8ff" stroke-width="2"/>
<path d="M56.25,-60C56.25,-54 62.25,-48 68.25,-48" fill="#b0b8ff" stroke="#b0b8ff" stroke-width="2"/>
<path d="M120.75,-48C126.75,-48 132.75,-54 132.75,-60" fill="#b0b8ff" stroke="#b0b8ff" stroke-width="2"/>
<path d="M132.75,-72C132.75,-78 126.75,-84 120.75,-84" fill="#b0b8ff" stroke="#b0b8ff" stroke-width="2"/>
<polyline fill="none" points="120.75,-84 68.25,-84 " stroke="white" stroke-width="2"/>
<path d="M68.25,-84C62.25,-84 56.25,-78 56.25,-72" fill="none" stroke="white" stroke-width="2"/>
<polyline fill="none" points="56.25,-72 56.25,-60 " stroke="white" stroke-width="2"/>
<path d="M56.25,-60C56.25,-54 62.25,-48 68.25,-48" fill="none" stroke="white" stroke-width="2"/>
<polyline fill="none" points="68.25,-48 120.75,-48 " stroke="white" stroke-width="2"/>
<path d="M120.75,-48C126.75,-48 132.75,-54 132.75,-60" fill="none" stroke="white" stroke-width="2"/>
<polyline fill="none" points="132.75,-60 132.75,-72 " stroke="white" stroke-width="2"/>
<path d="M132.75,-72C132.75,-78 126.75,-84 120.75,-84" fill="none" stroke="white" stroke-width="2"/>
<text font-family="Helvetica,sans-Serif" font-size="10.00" text-anchor="middle" x="94.5" y="-63.5">TCF3_MYOG</text>
</a>
</g>
<!-- HES1&#45;&gt;TCF3_MYOG -->
<g class="edge" id="edge28">
<a class="remove20 root" ismara:data="0.554" onmousemove="ShowTooltip(evt, 'TCF3: 0.554')" onmouseout="HideTooltip(evt)">
<path d="M207.404,-178.904C184.209,-155.709 144.093,-115.593 118.451,-89.9511" fill="none" stroke="#ff7a7a" stroke-width="3"/>
<polygon fill="#ff7a7a" points="120.216,-87.7563 112.579,-84.0794 116.256,-91.7162 120.216,-87.7563" stroke="#ff7a7a"/>
</a>
</g>
<!-- HIC2&#45;&gt;HES1 -->
<g class="edge" id="edge40">
<a class="remove10 root" ismara:data="0.249" onmousemove="ShowTooltip(evt, 'HES1: 0.249')" onmouseout="HideTooltip(evt)">
<path d="M338.543,-84.2342C315.348,-107.429 275.231,-147.545 249.59,-173.187" fill="none" stroke="#a7b0ff" stroke-width="3"/>
<polygon fill="#a7b0ff" points="247.395,-171.422 243.718,-179.059 251.355,-175.382 247.395,-171.422" stroke="#a7b0ff"/>
</a>
</g>
<!-- HIC2&#45;&gt;TCF3_MYOG -->
<g class="edge" id="edge42">
<a class="remove8 root" ismara:data="0.205" onmousemove="ShowTooltip(evt, 'TCF3: 0.205')" onmouseout="HideTooltip(evt)">
<path d="M329.697,-66C285.129,-66 195.809,-66 140.978,-66" fill="none" stroke="#e5adff" stroke-width="3"/>
<polygon fill="#e5adff" points="140.817,-63.2001 132.817,-66 140.817,-68.8001 140.817,-63.2001" stroke="#e5adff"/>
</a>
</g>
<!-- CDX1&#45;&gt;RBPJ -->
<g class="edge" id="edge38">
<a class="remove2 root" ismara:data="0.065" onmousemove="ShowTooltip(evt, 'RBPJ: 0.065')" onmouseout="HideTooltip(evt)">
<path d="M121.58,-328.277C169.287,-328.277 268.27,-328.277 321.342,-328.277" fill="none" stroke="#ebc2ff" stroke-width="3"/>
<polygon fill="#ebc2ff" points="321.451,-331.077 329.451,-328.277 321.451,-325.477 321.451,-331.077" stroke="#ebc2ff"/>
</a>
</g>
<!-- TCF3_MYOG&#45;&gt;RBPJ -->
<g class="edge" id="edge36">
<a class="remove5 root" ismara:data="0.121" onmousemove="ShowTooltip(evt, 'RBPJ: 0.121')" onmouseout="HideTooltip(evt)">
<path d="M103.316,-84.0099C118.724,-114.227 152.89,-175.952 194.318,-218.018 232.95,-257.244 287.501,-290.862 322.507,-310.334" fill="none" stroke="#e8baff" stroke-width="3"/>
<polygon fill="#e8baff" points="321.308,-312.87 329.668,-314.272 324.007,-307.963 321.308,-312.87" stroke="#e8baff"/>
</a>
</g>
<!-- ZNF652 -->
<g class="node" id="node34">
<a class="remove15" onmousemove="ShowTooltip(evt, 'Z-value: 0.892')" onmouseout="HideTooltip(evt)" xlink:href="ZNF652.svg">
<polygon fill="#a8b0ff" points="419.777,-167.138 389.777,-167.138 377.777,-155.138 377.777,-143.138 389.777,-131.138 419.777,-131.138 431.777,-143.138 431.777,-155.138 419.777,-167.138" stroke="#a8b0ff" stroke-width="2"/>
<path d="M389.777,-167.138C383.777,-167.138 377.777,-161.138 377.777,-155.138" fill="#a8b0ff" stroke="#a8b0ff" stroke-width="2"/>
<path d="M377.777,-143.138C377.777,-137.138 383.777,-131.138 389.777,-131.138" fill="#a8b0ff" stroke="#a8b0ff" stroke-width="2"/>
<path d="M419.777,-131.138C425.777,-131.138 431.777,-137.138 431.777,-143.138" fill="#a8b0ff" stroke="#a8b0ff" stroke-width="2"/>
<path d="M431.777,-155.138C431.777,-161.138 425.777,-167.138 419.777,-167.138" fill="#a8b0ff" stroke="#a8b0ff" stroke-width="2"/>
<polyline fill="none" points="419.777,-167.138 389.777,-167.138 " stroke="white" stroke-width="2"/>
<path d="M389.777,-167.138C383.777,-167.138 377.777,-161.138 377.777,-155.138" fill="none" stroke="white" stroke-width="2"/>
<polyline fill="none" points="377.777,-155.138 377.777,-143.138 " stroke="white" stroke-width="2"/>
<path d="M377.777,-143.138C377.777,-137.138 383.777,-131.138 389.777,-131.138" fill="none" stroke="white" stroke-width="2"/>
<polyline fill="none" points="389.777,-131.138 419.777,-131.138 " stroke="white" stroke-width="2"/>
<path d="M419.777,-131.138C425.777,-131.138 431.777,-137.138 431.777,-143.138" fill="none" stroke="white" stroke-width="2"/>
<polyline fill="none" points="431.777,-143.138 431.777,-155.138 " stroke="white" stroke-width="2"/>
<path d="M431.777,-155.138C431.777,-161.138 425.777,-167.138 419.777,-167.138" fill="none" stroke="white" stroke-width="2"/>
<text font-family="Helvetica,sans-Serif" font-size="10.00" text-anchor="middle" x="404.777" y="-146.638">ZNF652</text>
</a>
</g>
<!-- ZNF652&#45;&gt;HES1 -->
<g class="edge" id="edge44">
<a class="remove15 root" ismara:data="0.321" onmousemove="ShowTooltip(evt, 'HES1: 0.321')" onmouseout="HideTooltip(evt)">
<path d="M377.57,-156.429C346.308,-164.805 294.926,-178.573 260.691,-187.746" fill="none" stroke="#9ca6ff" stroke-width="3"/>
<polygon fill="#9ca6ff" points="259.81,-185.083 252.808,-189.858 261.26,-190.492 259.81,-185.083" stroke="#9ca6ff"/>
</a>
</g>
</g>
<rect height="14" id="tooltip_bg" style="fill: white; stroke: black; opacity: 0.8;" visibility="hidden"/><text id="tooltip" style="font-size: 10px;font-weight: bold;" visibility="hidden"></text><g id="plus" onclick="showSome();moveSlider();setThreshold();"><circle cx="22" cy="22" r="10" style="fill: #dddddd; opacity: 100%;"/><line stroke="#888888" stroke-width="2" x1="16" x2="28" y1="22" y2="22"/><line stroke="#888888" stroke-width="2" x1="22" x2="22" y1="16" y2="28"/></g><g id="minus" onclick="hideSome();moveSlider();setThreshold();"><circle cx="22" cy="380" r="10" style="fill: #dddddd; opacity: 100%;"/><line stroke="#888888" stroke-width="2" x1="16" x2="28" y1="380" y2="380"/></g><line id="slider_scale" onmousedown="jump_slider(evt)" stroke="#888888" stroke-width="5" x1="22" x2="22" y1="40" y2="362"/><circle cx="22" cy="50" id="slider" onmousedown="grab(evt)" onmouseout="release(evt)" onmouseup="release(evt)" r="15" style="fill:#922"/><script type="text/ecmascript"><![CDATA[
    var svgNS = "http://www.w3.org/2000/svg";
    var edge_num = 22;
    var counter = 0;
    var tooltip, tooltip_bg;

    function init(evt) {
        if ( window.svgDocument == null ) {
            svgDocument = evt.target.ownerDocument;
        }
        tooltip = svgDocument.getElementById('tooltip');
        tooltip_bg = svgDocument.getElementById('tooltip_bg');
        setThreshold();
    }

    function ShowTooltip(evt, txt) {
        var length = 0;
        var height;
        var tooltip_x = evt.pageX + 18;
        var tooltip_y = evt.pageY + 22;
        var bg_x = evt.pageX + 10;
        var bg_y = evt.pageY + 10;

        /* Clean toolip content */
        while (tooltip.lastChild) {
            tooltip.removeChild(tooltip.lastChild)
        }

        /* Populate tooltip with tspan elements and get longest of them */
        var text_elements = txt.split('|');
        for (var i = 0; i  < text_elements.length; i++) {
            var shift_y = 12;
            if (i == 0) {
                shift_y = 0;
            }
            var tspan_element = document.createElementNS(svgNS, "tspan");
            tspan_element.setAttributeNS(null, "dy", shift_y);
            tspan_element.setAttributeNS(null, "x", tooltip_x);
            var text_node = svgDocument.createTextNode(text_elements[i]);
            tspan_element.appendChild(text_node);
            tooltip.appendChild(tspan_element);
            var tspan_length = tspan_element.getComputedTextLength();
            if (tspan_length > length) {
                length = tspan_length
            }
        }
        /* add right margin to tooltip */
        length = length + 15;
        height = 12 * text_elements.length + 5;
        tooltip_bg.setAttributeNS(null,"width",length);
        tooltip_bg.setAttributeNS(null,"height",height);
        tooltip_bg.setAttributeNS(null,"x", bg_x);
        tooltip_bg.setAttributeNS(null,"y", bg_y);
        tooltip_bg.setAttributeNS(null,"visibility","visible");
        tooltip.setAttributeNS(null,"x", tooltip_x);
        tooltip.setAttributeNS(null,"y", tooltip_y);
        tooltip.setAttributeNS(null,"visibility","visible");
    }
    function HideTooltip() {
      tooltip.setAttributeNS(null,"visibility","hidden");
      tooltip_bg.setAttributeNS(null,"visibility","hidden");
    }

    /*** Hide/Show edges functions ***/

    function hideSome() {
      if (counter >= edge_num -1) {
        return 1;
      }
      var elements = svgDocument.getElementsByClassName('remove' + counter);
      for (var i = 0; i < elements.length; i++) {
        elements[i].setAttributeNS(null,"visibility","hidden");
      }
      counter = counter + 1;
    }

    function showSome() {
      if (counter <= 0) {
        return 1;
      }
      counter = counter - 1;
      var elements = svgDocument.getElementsByClassName('remove' + counter);
      for (var i = 0; i < elements.length; i++) {
        elements[i].setAttributeNS(null,"visibility","visible");
      }
    }

    function setThreshold() {
        var elements = svgDocument.getElementsByClassName('remove' + counter);
        var score = 0;
        for (var i = 0; i < elements.length; i++) {
            if (elements[i].classList.contains("root")){
                if (elements[i].hasAttributeNS("ismara.unibas.ch", "data")) {
                    score = elements[i].getAttributeNS("ismara.unibas.ch", "data");
                }
            } 
        }
        svgDocument.getElementById("score_indicator").textContent = "Score threshold: " + score;
    }

    /*** Slider functions ***/

    var slider_maxY = parseInt(document.getElementById("slider_scale").getAttributeNS(null, "y2"));
    var slider_minY = parseInt(document.getElementById("slider_scale").getAttributeNS(null, "y1"));
    var slider_r = parseInt(document.getElementById("slider").getAttributeNS(null, "r"));
    var coef = (edge_num - 1) / (slider_maxY - slider_minY - 2 * slider_r);

    function grab(evt){
        var element = evt.target;
        var Attr = {"onmousemove":"slide(evt,'"+element.id+"')"};
        assignAttr(element, Attr);
    }

    function release(evt){
        var element = evt.target;
        var Attr = {"onmousemove":null};
        assignAttr(element, Attr);
    }

    function assignAttr(obj,attr){
        for (i in attr) obj.setAttributeNS(null,i, attr[i]);
    }

    function slide(evt,id){
        var slider = evt.target;
        var y = evt.pageY;
        var new_counter = Math.floor((evt.pageY - slider_minY - slider_r) * coef);
        if (evt.pageY > (slider_maxY - slider_r)) {
            slider.setAttributeNS(null, "cy", (slider_maxY - slider_r));
            new_counter = edge_num;
        } else if(evt.pageY < (slider_minY + slider_r)) {
            slider.setAttributeNS(null, "cy", (slider_minY + slider_r));
            new_counter = 1;
        } else {
            slider.setAttributeNS(null, "cy", evt.pageY);
        }

        if (new_counter < counter) {
                showSome();
            counter = new_counter;
        }
        if (new_counter > counter) {
                hideSome();
            counter = new_counter;
        }
        setThreshold();
    }

    function moveSlider() {
        circle = document.getElementById("slider");
        circle.setAttributeNS(null, "cy",  slider_minY +  slider_r + (counter) / coef);
    }

    function jump_slider(evt) {
        var slider = document.getElementById("slider");
        var new_counter = Math.floor((evt.pageY - slider_minY - slider_r) * coef);
        if (evt.pageY > (slider_maxY - slider_r)) {
            slider.setAttributeNS(null, "cy", (slider_maxY - slider_r));
            new_counter = edge_num;
        } else if(evt.pageY < (slider_minY + slider_r)) {
             slider.setAttributeNS(null, "cy", (slider_minY + slider_r));
            new_counter = 1;
        } else {
            slider.setAttributeNS(null, "cy", evt.pageY);
        }

        if (new_counter > counter) {
            var d = new_counter - counter;
            for (var i = 0; i < d; i++){
                hideSome();
            }
            counter = new_counter;
        }
        if (new_counter < counter) {
            var d = counter - new_counter;
            for (var i = 0; i < d; i++){
                showSome();
            }
            counter = new_counter;
        }
        setThreshold();
    }
    ]]></script><text id="score_indicator" style="font-size: 10px;font-weight: bold;" x="10" y="412">Score threshold: 0</text><text id="info" style="font-size: 10px;font-weight: bold;" x="10" y="427">Use slider or -/+ buttons to hide/show edges.</text></svg>