<?xml version="1.0" encoding="UTF-8" standalone="no"?>
<!DOCTYPE svg PUBLIC "-//W3C//DTD SVG 1.1//EN"
 "http://www.w3.org/Graphics/SVG/1.1/DTD/svg11.dtd">
<!-- Generated by graphviz version 2.28.0 (20110630.0925)
 -->
<!-- Title: _anonymous_0 Pages: 1 -->
<svg width="493pt" height="402pt"
 viewBox="0.00 0.00 492.78 402.28" xmlns="http://www.w3.org/2000/svg" xmlns:xlink="http://www.w3.org/1999/xlink">
<g id="graph1" class="graph" transform="scale(1 1) rotate(0) translate(4 398.277)">
<title>_anonymous_0</title>
<polygon fill="white" stroke="white" points="-4,5 -4,-398.277 489.777,-398.277 489.777,5 -4,5"/>
<!-- ESRRA_ESR2 -->
<g id="node1" class="node"><title>ESRRA_ESR2</title>
<a xlink:href="ESRRA_ESR2.svg" xlink:title="Z&#45;value: 3.814||remove19">
<polygon fill="#3247ff" stroke="#3247ff" stroke-width="2" points="206.888,-36 148.388,-36 136.388,-24 136.388,-12 148.388,-3.19744e-14 206.888,-3.19744e-14 218.888,-12 218.888,-24 206.888,-36"/>
<path fill="#3247ff" stroke="#3247ff" stroke-width="2" d="M148.388,-36C142.388,-36 136.388,-30 136.388,-24"/>
<path fill="#3247ff" stroke="#3247ff" stroke-width="2" d="M136.388,-12C136.388,-6 142.388,-3.19744e-14 148.388,-3.19744e-14"/>
<path fill="#3247ff" stroke="#3247ff" stroke-width="2" d="M206.888,-3.19744e-14C212.888,-3.19744e-14 218.888,-6 218.888,-12"/>
<path fill="#3247ff" stroke="#3247ff" stroke-width="2" d="M218.888,-24C218.888,-30 212.888,-36 206.888,-36"/>
<polyline fill="none" stroke="white" stroke-width="2" points="206.888,-36 148.388,-36 "/>
<path fill="none" stroke="white" stroke-width="2" d="M148.388,-36C142.388,-36 136.388,-30 136.388,-24"/>
<polyline fill="none" stroke="white" stroke-width="2" points="136.388,-24 136.388,-12 "/>
<path fill="none" stroke="white" stroke-width="2" d="M136.388,-12C136.388,-6 142.388,-3.19744e-14 148.388,-3.19744e-14"/>
<polyline fill="none" stroke="white" stroke-width="2" points="148.388,-3.19744e-14 206.888,-3.19744e-14 "/>
<path fill="none" stroke="white" stroke-width="2" d="M206.888,-3.19744e-14C212.888,-3.19744e-14 218.888,-6 218.888,-12"/>
<polyline fill="none" stroke="white" stroke-width="2" points="218.888,-12 218.888,-24 "/>
<path fill="none" stroke="white" stroke-width="2" d="M218.888,-24C218.888,-30 212.888,-36 206.888,-36"/>
<text text-anchor="middle" x="177.638" y="-15.5" font-family="Helvetica,sans-Serif" font-size="10.00" fill="white">ESRRA_ESR2</text>
</a>
</g>
<!-- HOXB2_UNCX_HOXD3 -->
<g id="node2" class="node"><title>HOXB2_UNCX_HOXD3</title>
<a xlink:href="HOXB2_UNCX_HOXD3.svg" xlink:title="Z&#45;value: 0.563||remove16">
<polygon fill="#b5bcff" stroke="#b5bcff" stroke-width="2" points="455.027,-263.138 354.527,-263.138 342.527,-251.138 342.527,-239.138 354.527,-227.138 455.027,-227.138 467.027,-239.138 467.027,-251.138 455.027,-263.138"/>
<path fill="#b5bcff" stroke="#b5bcff" stroke-width="2" d="M354.527,-263.138C348.527,-263.138 342.527,-257.138 342.527,-251.138"/>
<path fill="#b5bcff" stroke="#b5bcff" stroke-width="2" d="M342.527,-239.138C342.527,-233.138 348.527,-227.138 354.527,-227.138"/>
<path fill="#b5bcff" stroke="#b5bcff" stroke-width="2" d="M455.027,-227.138C461.027,-227.138 467.027,-233.138 467.027,-239.138"/>
<path fill="#b5bcff" stroke="#b5bcff" stroke-width="2" d="M467.027,-251.138C467.027,-257.138 461.027,-263.138 455.027,-263.138"/>
<polyline fill="none" stroke="white" stroke-width="2" points="455.027,-263.138 354.527,-263.138 "/>
<path fill="none" stroke="white" stroke-width="2" d="M354.527,-263.138C348.527,-263.138 342.527,-257.138 342.527,-251.138"/>
<polyline fill="none" stroke="white" stroke-width="2" points="342.527,-251.138 342.527,-239.138 "/>
<path fill="none" stroke="white" stroke-width="2" d="M342.527,-239.138C342.527,-233.138 348.527,-227.138 354.527,-227.138"/>
<polyline fill="none" stroke="white" stroke-width="2" points="354.527,-227.138 455.027,-227.138 "/>
<path fill="none" stroke="white" stroke-width="2" d="M455.027,-227.138C461.027,-227.138 467.027,-233.138 467.027,-239.138"/>
<polyline fill="none" stroke="white" stroke-width="2" points="467.027,-239.138 467.027,-251.138 "/>
<path fill="none" stroke="white" stroke-width="2" d="M467.027,-251.138C467.027,-257.138 461.027,-263.138 455.027,-263.138"/>
<text text-anchor="middle" x="404.777" y="-242.638" font-family="Helvetica,sans-Serif" font-size="10.00">HOXB2_UNCX_HOXD3</text>
</a>
</g>
<!-- ESRRA_ESR2&#45;&gt;HOXB2_UNCX_HOXD3 -->
<g id="edge2" class="edge"><title>ESRRA_ESR2&#45;&gt;HOXB2_UNCX_HOXD3</title>
<a xlink:title="HOXB2: 0.223||HOXD3: 0.098||remove9root">
<path fill="none" stroke="#e4abff" stroke-width="3" d="M195.842,-36.2037C236.544,-76.906 334.921,-175.283 380.655,-221.016"/>
<polygon fill="#e4abff" stroke="#e4abff" points="378.85,-223.171 386.486,-226.848 382.809,-219.211 378.85,-223.171"/>
</a>
</g>
<!-- AHR_ARNT2 -->
<g id="node4" class="node"><title>AHR_ARNT2</title>
<a xlink:href="AHR_ARNT2.svg" xlink:title="Z&#45;value: 1.019||remove17">
<polygon fill="#a3acff" stroke="#a3acff" stroke-width="2" points="299.888,-36 247.388,-36 235.388,-24 235.388,-12 247.388,3.19744e-14 299.888,3.19744e-14 311.888,-12 311.888,-24 299.888,-36"/>
<path fill="#a3acff" stroke="#a3acff" stroke-width="2" d="M247.388,-36C241.388,-36 235.388,-30 235.388,-24"/>
<path fill="#a3acff" stroke="#a3acff" stroke-width="2" d="M235.388,-12C235.388,-6 241.388,3.19744e-14 247.388,3.19744e-14"/>
<path fill="#a3acff" stroke="#a3acff" stroke-width="2" d="M299.888,3.19744e-14C305.888,3.19744e-14 311.888,-6 311.888,-12"/>
<path fill="#a3acff" stroke="#a3acff" stroke-width="2" d="M311.888,-24C311.888,-30 305.888,-36 299.888,-36"/>
<polyline fill="none" stroke="white" stroke-width="2" points="299.888,-36 247.388,-36 "/>
<path fill="none" stroke="white" stroke-width="2" d="M247.388,-36C241.388,-36 235.388,-30 235.388,-24"/>
<polyline fill="none" stroke="white" stroke-width="2" points="235.388,-24 235.388,-12 "/>
<path fill="none" stroke="white" stroke-width="2" d="M235.388,-12C235.388,-6 241.388,3.19744e-14 247.388,3.19744e-14"/>
<polyline fill="none" stroke="white" stroke-width="2" points="247.388,3.19744e-14 299.888,3.19744e-14 "/>
<path fill="none" stroke="white" stroke-width="2" d="M299.888,3.19744e-14C305.888,3.19744e-14 311.888,-6 311.888,-12"/>
<polyline fill="none" stroke="white" stroke-width="2" points="311.888,-12 311.888,-24 "/>
<path fill="none" stroke="white" stroke-width="2" d="M311.888,-24C311.888,-30 305.888,-36 299.888,-36"/>
<text text-anchor="middle" x="273.638" y="-15.5" font-family="Helvetica,sans-Serif" font-size="10.00">AHR_ARNT2</text>
</a>
</g>
<!-- ESRRA_ESR2&#45;&gt;AHR_ARNT2 -->
<g id="edge4" class="edge"><title>ESRRA_ESR2&#45;&gt;AHR_ARNT2</title>
<a xlink:title="ARNT2: 0.150||AHR: 0.001||ESR2: 0.120||remove7root">
<path fill="none" stroke="#e7b5ff" stroke-width="3" d="M227.04,-17.0069C227.125,-17 227.21,-17 227.295,-17.0069"/>
<path fill="none" stroke="#e9baff" stroke-width="3" d="M227.04,-18.9931C227.125,-19 227.21,-19 227.295,-18.9931"/>
<polygon fill="#e9baff" stroke="#e9baff" points="226.908,-15.1999 218.908,-18 226.908,-20.7999 226.908,-15.1999"/>
<polygon fill="#e7b5ff" stroke="#e7b5ff" points="227.136,-20.8001 235.136,-18 227.136,-15.2001 227.136,-20.8001"/>
</a>
</g>
<!-- HES1 -->
<g id="node6" class="node"><title>HES1</title>
<a xlink:href="HES1.svg" xlink:title="Z&#45;value: 1.505||remove22">
<polygon fill="#ff8f8f" stroke="#ff8f8f" stroke-width="2" points="240.638,-215.138 210.638,-215.138 198.638,-203.138 198.638,-191.138 210.638,-179.138 240.638,-179.138 252.638,-191.138 252.638,-203.138 240.638,-215.138"/>
<path fill="#ff8f8f" stroke="#ff8f8f" stroke-width="2" d="M210.638,-215.138C204.638,-215.138 198.638,-209.138 198.638,-203.138"/>
<path fill="#ff8f8f" stroke="#ff8f8f" stroke-width="2" d="M198.638,-191.138C198.638,-185.138 204.638,-179.138 210.638,-179.138"/>
<path fill="#ff8f8f" stroke="#ff8f8f" stroke-width="2" d="M240.638,-179.138C246.638,-179.138 252.638,-185.138 252.638,-191.138"/>
<path fill="#ff8f8f" stroke="#ff8f8f" stroke-width="2" d="M252.638,-203.138C252.638,-209.138 246.638,-215.138 240.638,-215.138"/>
<polyline fill="none" stroke="white" stroke-width="2" points="240.638,-215.138 210.638,-215.138 "/>
<path fill="none" stroke="white" stroke-width="2" d="M210.638,-215.138C204.638,-215.138 198.638,-209.138 198.638,-203.138"/>
<polyline fill="none" stroke="white" stroke-width="2" points="198.638,-203.138 198.638,-191.138 "/>
<path fill="none" stroke="white" stroke-width="2" d="M198.638,-191.138C198.638,-185.138 204.638,-179.138 210.638,-179.138"/>
<polyline fill="none" stroke="white" stroke-width="2" points="210.638,-179.138 240.638,-179.138 "/>
<path fill="none" stroke="white" stroke-width="2" d="M240.638,-179.138C246.638,-179.138 252.638,-185.138 252.638,-191.138"/>
<polyline fill="none" stroke="white" stroke-width="2" points="252.638,-191.138 252.638,-203.138 "/>
<path fill="none" stroke="white" stroke-width="2" d="M252.638,-203.138C252.638,-209.138 246.638,-215.138 240.638,-215.138"/>
<text text-anchor="middle" x="225.638" y="-194.638" font-family="Helvetica,sans-Serif" font-size="10.00">HES1</text>
</a>
</g>
<!-- ESRRA_ESR2&#45;&gt;HES1 -->
<g id="edge6" class="edge"><title>ESRRA_ESR2&#45;&gt;HES1</title>
<a xlink:title="HES1: 0.458||remove19root">
<path fill="none" stroke="#8894ff" stroke-width="3" d="M182.505,-36.1626C191.058,-68.083 208.811,-134.338 218.666,-171.117"/>
<polygon fill="#8894ff" stroke="#8894ff" points="215.984,-171.925 220.759,-178.928 221.393,-170.476 215.984,-171.925"/>
</a>
</g>
<!-- RBPJ -->
<g id="node8" class="node"><title>RBPJ</title>
<a xlink:href="RBPJ.svg" xlink:title="Z&#45;value: 0.623||remove13">
<polygon fill="#b3baff" stroke="#b3baff" stroke-width="2" points="371.777,-346.277 341.777,-346.277 329.777,-334.277 329.777,-322.277 341.777,-310.277 371.777,-310.277 383.777,-322.277 383.777,-334.277 371.777,-346.277"/>
<path fill="#b3baff" stroke="#b3baff" stroke-width="2" d="M341.777,-346.277C335.777,-346.277 329.777,-340.277 329.777,-334.277"/>
<path fill="#b3baff" stroke="#b3baff" stroke-width="2" d="M329.777,-322.277C329.777,-316.277 335.777,-310.277 341.777,-310.277"/>
<path fill="#b3baff" stroke="#b3baff" stroke-width="2" d="M371.777,-310.277C377.777,-310.277 383.777,-316.277 383.777,-322.277"/>
<path fill="#b3baff" stroke="#b3baff" stroke-width="2" d="M383.777,-334.277C383.777,-340.277 377.777,-346.277 371.777,-346.277"/>
<polyline fill="none" stroke="white" stroke-width="2" points="371.777,-346.277 341.777,-346.277 "/>
<path fill="none" stroke="white" stroke-width="2" d="M341.777,-346.277C335.777,-346.277 329.777,-340.277 329.777,-334.277"/>
<polyline fill="none" stroke="white" stroke-width="2" points="329.777,-334.277 329.777,-322.277 "/>
<path fill="none" stroke="white" stroke-width="2" d="M329.777,-322.277C329.777,-316.277 335.777,-310.277 341.777,-310.277"/>
<polyline fill="none" stroke="white" stroke-width="2" points="341.777,-310.277 371.777,-310.277 "/>
<path fill="none" stroke="white" stroke-width="2" d="M371.777,-310.277C377.777,-310.277 383.777,-316.277 383.777,-322.277"/>
<polyline fill="none" stroke="white" stroke-width="2" points="383.777,-322.277 383.777,-334.277 "/>
<path fill="none" stroke="white" stroke-width="2" d="M383.777,-334.277C383.777,-340.277 377.777,-346.277 371.777,-346.277"/>
<text text-anchor="middle" x="356.777" y="-325.777" font-family="Helvetica,sans-Serif" font-size="10.00">RBPJ</text>
</a>
</g>
<!-- ESRRA_ESR2&#45;&gt;RBPJ -->
<g id="edge8" class="edge"><title>ESRRA_ESR2&#45;&gt;RBPJ</title>
<a xlink:title="RBPJ: 0.102||remove4root">
<path fill="none" stroke="#e9bcff" stroke-width="3" d="M188.044,-36.0229C218.407,-88.6127 306.962,-241.994 342.132,-302.911"/>
<polygon fill="#e9bcff" stroke="#e9bcff" points="339.918,-304.676 346.343,-310.204 344.767,-301.876 339.918,-304.676"/>
</a>
</g>
<!-- HOXB2_UNCX_HOXD3&#45;&gt;HOXB2_UNCX_HOXD3 -->
<g id="edge32" class="edge"><title>HOXB2_UNCX_HOXD3&#45;&gt;HOXB2_UNCX_HOXD3</title>
<a xlink:title="UNCX: 0.135||remove6root">
<path fill="none" stroke="#e8b8ff" stroke-width="3" d="M467.165,-251.412C477.586,-250.534 484.777,-248.443 484.777,-245.138 484.777,-242.763 481.062,-241.015 475.103,-239.893"/>
<polygon fill="#e8b8ff" stroke="#e8b8ff" points="475.459,-237.116 467.165,-238.865 474.739,-242.67 475.459,-237.116"/>
</a>
</g>
<!-- FOSL2_SMARCC1 -->
<g id="node15" class="node"><title>FOSL2_SMARCC1</title>
<a xlink:href="FOSL2_SMARCC1.svg" xlink:title="Z&#45;value: 0.739||remove14">
<polygon fill="#aeb6ff" stroke="#aeb6ff" stroke-width="2" points="312.138,-394.277 235.138,-394.277 223.138,-382.277 223.138,-370.277 235.138,-358.277 312.138,-358.277 324.138,-370.277 324.138,-382.277 312.138,-394.277"/>
<path fill="#aeb6ff" stroke="#aeb6ff" stroke-width="2" d="M235.138,-394.277C229.138,-394.277 223.138,-388.277 223.138,-382.277"/>
<path fill="#aeb6ff" stroke="#aeb6ff" stroke-width="2" d="M223.138,-370.277C223.138,-364.277 229.138,-358.277 235.138,-358.277"/>
<path fill="#aeb6ff" stroke="#aeb6ff" stroke-width="2" d="M312.138,-358.277C318.138,-358.277 324.138,-364.277 324.138,-370.277"/>
<path fill="#aeb6ff" stroke="#aeb6ff" stroke-width="2" d="M324.138,-382.277C324.138,-388.277 318.138,-394.277 312.138,-394.277"/>
<polyline fill="none" stroke="white" stroke-width="2" points="312.138,-394.277 235.138,-394.277 "/>
<path fill="none" stroke="white" stroke-width="2" d="M235.138,-394.277C229.138,-394.277 223.138,-388.277 223.138,-382.277"/>
<polyline fill="none" stroke="white" stroke-width="2" points="223.138,-382.277 223.138,-370.277 "/>
<path fill="none" stroke="white" stroke-width="2" d="M223.138,-370.277C223.138,-364.277 229.138,-358.277 235.138,-358.277"/>
<polyline fill="none" stroke="white" stroke-width="2" points="235.138,-358.277 312.138,-358.277 "/>
<path fill="none" stroke="white" stroke-width="2" d="M312.138,-358.277C318.138,-358.277 324.138,-364.277 324.138,-370.277"/>
<polyline fill="none" stroke="white" stroke-width="2" points="324.138,-370.277 324.138,-382.277 "/>
<path fill="none" stroke="white" stroke-width="2" d="M324.138,-382.277C324.138,-388.277 318.138,-394.277 312.138,-394.277"/>
<text text-anchor="middle" x="273.638" y="-373.777" font-family="Helvetica,sans-Serif" font-size="10.00">FOSL2_SMARCC1</text>
</a>
</g>
<!-- HOXB2_UNCX_HOXD3&#45;&gt;FOSL2_SMARCC1 -->
<g id="edge34" class="edge"><title>HOXB2_UNCX_HOXD3&#45;&gt;FOSL2_SMARCC1</title>
<a xlink:title="FOSL2: 0.025||remove1root">
<path fill="none" stroke="#edc8ff" stroke-width="3" d="M378.358,-263.191C362.212,-274.854 341.628,-290.89 325.457,-307.397 312.347,-320.778 299.669,-337.542 290.134,-351.182"/>
<polygon fill="#edc8ff" stroke="#edc8ff" points="287.674,-349.816 285.449,-357.995 292.289,-352.99 287.674,-349.816"/>
</a>
</g>
<!-- AHR_ARNT2&#45;&gt;HES1 -->
<g id="edge10" class="edge"><title>AHR_ARNT2&#45;&gt;HES1</title>
<a xlink:title="HES1: 0.363||remove17root">
<path fill="none" stroke="#96a0ff" stroke-width="3" d="M268.772,-36.1626C260.219,-68.083 242.466,-134.338 232.611,-171.117"/>
<polygon fill="#96a0ff" stroke="#96a0ff" points="229.884,-170.476 230.518,-178.928 235.293,-171.925 229.884,-170.476"/>
</a>
</g>
<!-- AHR_ARNT2&#45;&gt;RBPJ -->
<g id="edge14" class="edge"><title>AHR_ARNT2&#45;&gt;RBPJ</title>
<a xlink:title="RBPJ: 0.090||remove3root">
<path fill="none" stroke="#eabeff" stroke-width="3" d="M277.032,-36.2893C284.915,-77.6947 305.827,-181.572 332.277,-266.018 336.104,-278.238 341.179,-291.479 345.716,-302.595"/>
<polygon fill="#eabeff" stroke="#eabeff" points="343.248,-303.953 348.9,-310.269 348.421,-301.807 343.248,-303.953"/>
</a>
</g>
<!-- HIC2 -->
<g id="node11" class="node"><title>HIC2</title>
<a xlink:href="HIC2.svg" xlink:title="Z&#45;value: 1.161||remove10">
<polygon fill="#9da7ff" stroke="#9da7ff" stroke-width="2" points="371.777,-84 341.777,-84 329.777,-72 329.777,-60 341.777,-48 371.777,-48 383.777,-60 383.777,-72 371.777,-84"/>
<path fill="#9da7ff" stroke="#9da7ff" stroke-width="2" d="M341.777,-84C335.777,-84 329.777,-78 329.777,-72"/>
<path fill="#9da7ff" stroke="#9da7ff" stroke-width="2" d="M329.777,-60C329.777,-54 335.777,-48 341.777,-48"/>
<path fill="#9da7ff" stroke="#9da7ff" stroke-width="2" d="M371.777,-48C377.777,-48 383.777,-54 383.777,-60"/>
<path fill="#9da7ff" stroke="#9da7ff" stroke-width="2" d="M383.777,-72C383.777,-78 377.777,-84 371.777,-84"/>
<polyline fill="none" stroke="white" stroke-width="2" points="371.777,-84 341.777,-84 "/>
<path fill="none" stroke="white" stroke-width="2" d="M341.777,-84C335.777,-84 329.777,-78 329.777,-72"/>
<polyline fill="none" stroke="white" stroke-width="2" points="329.777,-72 329.777,-60 "/>
<path fill="none" stroke="white" stroke-width="2" d="M329.777,-60C329.777,-54 335.777,-48 341.777,-48"/>
<polyline fill="none" stroke="white" stroke-width="2" points="341.777,-48 371.777,-48 "/>
<path fill="none" stroke="white" stroke-width="2" d="M371.777,-48C377.777,-48 383.777,-54 383.777,-60"/>
<polyline fill="none" stroke="white" stroke-width="2" points="383.777,-60 383.777,-72 "/>
<path fill="none" stroke="white" stroke-width="2" d="M383.777,-72C383.777,-78 377.777,-84 371.777,-84"/>
<text text-anchor="middle" x="356.777" y="-63.5" font-family="Helvetica,sans-Serif" font-size="10.00">HIC2</text>
</a>
</g>
<!-- AHR_ARNT2&#45;&gt;HIC2 -->
<g id="edge12" class="edge"><title>AHR_ARNT2&#45;&gt;HIC2</title>
<a xlink:title="HIC2: 0.019||remove0root">
<path fill="none" stroke="#edc9ff" stroke-width="3" d="M305.07,-36.1467C310.76,-39.4321 316.72,-42.8733 322.488,-46.2031"/>
<polygon fill="#edc9ff" stroke="#edc9ff" points="321.327,-48.766 329.655,-50.3411 324.127,-43.9162 321.327,-48.766"/>
</a>
</g>
<!-- HES1&#45;&gt;HOXB2_UNCX_HOXD3 -->
<g id="edge16" class="edge"><title>HES1&#45;&gt;HOXB2_UNCX_HOXD3</title>
<a xlink:title="UNCX: 0.346||remove16root">
<path fill="none" stroke="#ff9999" stroke-width="3" d="M252.846,-204.429C274.497,-210.23 305.798,-218.617 334.371,-226.273"/>
<polygon fill="#ff9999" stroke="#ff9999" points="333.895,-229.044 342.347,-228.41 335.344,-223.635 333.895,-229.044"/>
</a>
</g>
<!-- HES1&#45;&gt;RBPJ -->
<g id="edge30" class="edge"><title>HES1&#45;&gt;RBPJ</title>
<a xlink:title="RBPJ: 0.281||HES1: 0.180||remove13root">
<path fill="none" stroke="#ffa2a2" stroke-width="3" d="M250.468,-220.554C274.166,-244.252 310.106,-280.192 333.69,-303.776"/>
<path fill="none" stroke="#b1b9ff" stroke-width="3" d="M249.054,-221.968C272.752,-245.666 308.692,-281.606 332.276,-305.19"/>
<polygon fill="#b1b9ff" stroke="#b1b9ff" points="251.509,-219.05 243.873,-215.373 247.55,-223.009 251.509,-219.05"/>
<polygon fill="#ffa2a2" stroke="#ffa2a2" points="331.061,-306.521 338.698,-310.198 335.021,-302.561 331.061,-306.521"/>
</a>
</g>
<!-- HES1&#45;&gt;FOSL2_SMARCC1 -->
<g id="edge18" class="edge"><title>HES1&#45;&gt;FOSL2_SMARCC1</title>
<a xlink:title="SMARCC1: 0.316||remove14root">
<path fill="none" stroke="#ff9d9d" stroke-width="3" d="M230.505,-215.301C239.058,-247.221 256.811,-313.476 266.666,-350.255"/>
<polygon fill="#ff9d9d" stroke="#ff9d9d" points="263.984,-351.064 268.759,-358.066 269.393,-349.614 263.984,-351.064"/>
</a>
</g>
<!-- REST -->
<g id="node17" class="node"><title>REST</title>
<a xlink:href="REST.svg" xlink:title="Z&#45;value: 0.425||remove21">
<polygon fill="#bac1ff" stroke="#bac1ff" stroke-width="2" points="192.638,-394.277 162.638,-394.277 150.638,-382.277 150.638,-370.277 162.638,-358.277 192.638,-358.277 204.638,-370.277 204.638,-382.277 192.638,-394.277"/>
<path fill="#bac1ff" stroke="#bac1ff" stroke-width="2" d="M162.638,-394.277C156.638,-394.277 150.638,-388.277 150.638,-382.277"/>
<path fill="#bac1ff" stroke="#bac1ff" stroke-width="2" d="M150.638,-370.277C150.638,-364.277 156.638,-358.277 162.638,-358.277"/>
<path fill="#bac1ff" stroke="#bac1ff" stroke-width="2" d="M192.638,-358.277C198.638,-358.277 204.638,-364.277 204.638,-370.277"/>
<path fill="#bac1ff" stroke="#bac1ff" stroke-width="2" d="M204.638,-382.277C204.638,-388.277 198.638,-394.277 192.638,-394.277"/>
<polyline fill="none" stroke="white" stroke-width="2" points="192.638,-394.277 162.638,-394.277 "/>
<path fill="none" stroke="white" stroke-width="2" d="M162.638,-394.277C156.638,-394.277 150.638,-388.277 150.638,-382.277"/>
<polyline fill="none" stroke="white" stroke-width="2" points="150.638,-382.277 150.638,-370.277 "/>
<path fill="none" stroke="white" stroke-width="2" d="M150.638,-370.277C150.638,-364.277 156.638,-358.277 162.638,-358.277"/>
<polyline fill="none" stroke="white" stroke-width="2" points="162.638,-358.277 192.638,-358.277 "/>
<path fill="none" stroke="white" stroke-width="2" d="M192.638,-358.277C198.638,-358.277 204.638,-364.277 204.638,-370.277"/>
<polyline fill="none" stroke="white" stroke-width="2" points="204.638,-370.277 204.638,-382.277 "/>
<path fill="none" stroke="white" stroke-width="2" d="M204.638,-382.277C204.638,-388.277 198.638,-394.277 192.638,-394.277"/>
<text text-anchor="middle" x="177.638" y="-373.777" font-family="Helvetica,sans-Serif" font-size="10.00">REST</text>
</a>
</g>
<!-- HES1&#45;&gt;REST -->
<g id="edge20" class="edge"><title>HES1&#45;&gt;REST</title>
<a xlink:title="REST: 1.038||remove21root">
<path fill="none" stroke="#ff3232" stroke-width="3" d="M220.772,-215.301C212.219,-247.221 194.466,-313.476 184.611,-350.255"/>
<polygon fill="#ff3232" stroke="#ff3232" points="181.884,-349.614 182.518,-358.066 187.293,-351.064 181.884,-349.614"/>
</a>
</g>
<!-- CDX1 -->
<g id="node19" class="node"><title>CDX1</title>
<a xlink:href="CDX1.svg" xlink:title="Z&#45;value: 0.491||remove11">
<polygon fill="#b8bfff" stroke="#b8bfff" stroke-width="2" points="109.5,-346.277 79.5,-346.277 67.5,-334.277 67.5,-322.277 79.5,-310.277 109.5,-310.277 121.5,-322.277 121.5,-334.277 109.5,-346.277"/>
<path fill="#b8bfff" stroke="#b8bfff" stroke-width="2" d="M79.5,-346.277C73.5,-346.277 67.5,-340.277 67.5,-334.277"/>
<path fill="#b8bfff" stroke="#b8bfff" stroke-width="2" d="M67.5,-322.277C67.5,-316.277 73.5,-310.277 79.5,-310.277"/>
<path fill="#b8bfff" stroke="#b8bfff" stroke-width="2" d="M109.5,-310.277C115.5,-310.277 121.5,-316.277 121.5,-322.277"/>
<path fill="#b8bfff" stroke="#b8bfff" stroke-width="2" d="M121.5,-334.277C121.5,-340.277 115.5,-346.277 109.5,-346.277"/>
<polyline fill="none" stroke="white" stroke-width="2" points="109.5,-346.277 79.5,-346.277 "/>
<path fill="none" stroke="white" stroke-width="2" d="M79.5,-346.277C73.5,-346.277 67.5,-340.277 67.5,-334.277"/>
<polyline fill="none" stroke="white" stroke-width="2" points="67.5,-334.277 67.5,-322.277 "/>
<path fill="none" stroke="white" stroke-width="2" d="M67.5,-322.277C67.5,-316.277 73.5,-310.277 79.5,-310.277"/>
<polyline fill="none" stroke="white" stroke-width="2" points="79.5,-310.277 109.5,-310.277 "/>
<path fill="none" stroke="white" stroke-width="2" d="M109.5,-310.277C115.5,-310.277 121.5,-316.277 121.5,-322.277"/>
<polyline fill="none" stroke="white" stroke-width="2" points="121.5,-322.277 121.5,-334.277 "/>
<path fill="none" stroke="white" stroke-width="2" d="M121.5,-334.277C121.5,-340.277 115.5,-346.277 109.5,-346.277"/>
<text text-anchor="middle" x="94.5" y="-325.777" font-family="Helvetica,sans-Serif" font-size="10.00">CDX1</text>
</a>
</g>
<!-- HES1&#45;&gt;CDX1 -->
<g id="edge22" class="edge"><title>HES1&#45;&gt;CDX1</title>
<a xlink:title="CDX1: 0.249||remove11root">
<path fill="none" stroke="#ffa7a7" stroke-width="3" d="M207.404,-215.373C184.209,-238.568 144.093,-278.684 118.451,-304.326"/>
<polygon fill="#ffa7a7" stroke="#ffa7a7" points="116.256,-302.561 112.579,-310.198 120.216,-306.521 116.256,-302.561"/>
</a>
</g>
<!-- NKX2&#45;5 -->
<g id="node21" class="node"><title>NKX2&#45;5</title>
<a xlink:href="NKX2-5.svg" xlink:title="Z&#45;value: 0.410||remove18">
<polygon fill="#bbc2ff" stroke="#bbc2ff" stroke-width="2" points="61.5,-263.138 31.5,-263.138 19.5,-251.138 19.5,-239.138 31.5,-227.138 61.5,-227.138 73.5,-239.138 73.5,-251.138 61.5,-263.138"/>
<path fill="#bbc2ff" stroke="#bbc2ff" stroke-width="2" d="M31.5,-263.138C25.5,-263.138 19.5,-257.138 19.5,-251.138"/>
<path fill="#bbc2ff" stroke="#bbc2ff" stroke-width="2" d="M19.5,-239.138C19.5,-233.138 25.5,-227.138 31.5,-227.138"/>
<path fill="#bbc2ff" stroke="#bbc2ff" stroke-width="2" d="M61.5,-227.138C67.5,-227.138 73.5,-233.138 73.5,-239.138"/>
<path fill="#bbc2ff" stroke="#bbc2ff" stroke-width="2" d="M73.5,-251.138C73.5,-257.138 67.5,-263.138 61.5,-263.138"/>
<polyline fill="none" stroke="white" stroke-width="2" points="61.5,-263.138 31.5,-263.138 "/>
<path fill="none" stroke="white" stroke-width="2" d="M31.5,-263.138C25.5,-263.138 19.5,-257.138 19.5,-251.138"/>
<polyline fill="none" stroke="white" stroke-width="2" points="19.5,-251.138 19.5,-239.138 "/>
<path fill="none" stroke="white" stroke-width="2" d="M19.5,-239.138C19.5,-233.138 25.5,-227.138 31.5,-227.138"/>
<polyline fill="none" stroke="white" stroke-width="2" points="31.5,-227.138 61.5,-227.138 "/>
<path fill="none" stroke="white" stroke-width="2" d="M61.5,-227.138C67.5,-227.138 73.5,-233.138 73.5,-239.138"/>
<polyline fill="none" stroke="white" stroke-width="2" points="73.5,-239.138 73.5,-251.138 "/>
<path fill="none" stroke="white" stroke-width="2" d="M73.5,-251.138C73.5,-257.138 67.5,-263.138 61.5,-263.138"/>
<text text-anchor="middle" x="46.5" y="-242.638" font-family="Helvetica,sans-Serif" font-size="10.00">NKX2&#45;5</text>
</a>
</g>
<!-- HES1&#45;&gt;NKX2&#45;5 -->
<g id="edge24" class="edge"><title>HES1&#45;&gt;NKX2&#45;5</title>
<a xlink:title="NKX2&#45;5: 0.389||remove18root">
<path fill="none" stroke="#ff9292" stroke-width="3" d="M198.431,-204.429C167.17,-212.805 115.787,-226.573 81.553,-235.746"/>
<polygon fill="#ff9292" stroke="#ff9292" points="80.6719,-233.083 73.6692,-237.858 82.1214,-238.492 80.6719,-233.083"/>
</a>
</g>
<!-- RUNX3_BCL11A -->
<g id="node23" class="node"><title>RUNX3_BCL11A</title>
<a xlink:href="RUNX3_BCL11A.svg" xlink:title="Z&#45;value: 0.557||remove12">
<polygon fill="#b5bcff" stroke="#b5bcff" stroke-width="2" points="80.75,-167.138 12.25,-167.138 0.25,-155.138 0.25,-143.138 12.25,-131.138 80.75,-131.138 92.75,-143.138 92.75,-155.138 80.75,-167.138"/>
<path fill="#b5bcff" stroke="#b5bcff" stroke-width="2" d="M12.25,-167.138C6.25,-167.138 0.25,-161.138 0.25,-155.138"/>
<path fill="#b5bcff" stroke="#b5bcff" stroke-width="2" d="M0.25,-143.138C0.25,-137.138 6.25,-131.138 12.25,-131.138"/>
<path fill="#b5bcff" stroke="#b5bcff" stroke-width="2" d="M80.75,-131.138C86.75,-131.138 92.75,-137.138 92.75,-143.138"/>
<path fill="#b5bcff" stroke="#b5bcff" stroke-width="2" d="M92.75,-155.138C92.75,-161.138 86.75,-167.138 80.75,-167.138"/>
<polyline fill="none" stroke="white" stroke-width="2" points="80.75,-167.138 12.25,-167.138 "/>
<path fill="none" stroke="white" stroke-width="2" d="M12.25,-167.138C6.25,-167.138 0.25,-161.138 0.25,-155.138"/>
<polyline fill="none" stroke="white" stroke-width="2" points="0.25,-155.138 0.25,-143.138 "/>
<path fill="none" stroke="white" stroke-width="2" d="M0.25,-143.138C0.25,-137.138 6.25,-131.138 12.25,-131.138"/>
<polyline fill="none" stroke="white" stroke-width="2" points="12.25,-131.138 80.75,-131.138 "/>
<path fill="none" stroke="white" stroke-width="2" d="M80.75,-131.138C86.75,-131.138 92.75,-137.138 92.75,-143.138"/>
<polyline fill="none" stroke="white" stroke-width="2" points="92.75,-143.138 92.75,-155.138 "/>
<path fill="none" stroke="white" stroke-width="2" d="M92.75,-155.138C92.75,-161.138 86.75,-167.138 80.75,-167.138"/>
<text text-anchor="middle" x="46.5" y="-146.638" font-family="Helvetica,sans-Serif" font-size="10.00">RUNX3_BCL11A</text>
</a>
</g>
<!-- HES1&#45;&gt;RUNX3_BCL11A -->
<g id="edge26" class="edge"><title>HES1&#45;&gt;RUNX3_BCL11A</title>
<a xlink:title="RUNX3: 0.274||remove12root">
<path fill="none" stroke="#ffa3a3" stroke-width="3" d="M198.431,-189.848C172.715,-182.958 133.384,-172.419 101.183,-163.791"/>
<polygon fill="#ffa3a3" stroke="#ffa3a3" points="101.615,-161.008 93.1627,-161.642 100.165,-166.417 101.615,-161.008"/>
</a>
</g>
<!-- TCF3_MYOG -->
<g id="node25" class="node"><title>TCF3_MYOG</title>
<a xlink:href="TCF3_MYOG.svg" xlink:title="Z&#45;value: 0.691||remove20">
<polygon fill="#b0b8ff" stroke="#b0b8ff" stroke-width="2" points="120.75,-84 68.25,-84 56.25,-72 56.25,-60 68.25,-48 120.75,-48 132.75,-60 132.75,-72 120.75,-84"/>
<path fill="#b0b8ff" stroke="#b0b8ff" stroke-width="2" d="M68.25,-84C62.25,-84 56.25,-78 56.25,-72"/>
<path fill="#b0b8ff" stroke="#b0b8ff" stroke-width="2" d="M56.25,-60C56.25,-54 62.25,-48 68.25,-48"/>
<path fill="#b0b8ff" stroke="#b0b8ff" stroke-width="2" d="M120.75,-48C126.75,-48 132.75,-54 132.75,-60"/>
<path fill="#b0b8ff" stroke="#b0b8ff" stroke-width="2" d="M132.75,-72C132.75,-78 126.75,-84 120.75,-84"/>
<polyline fill="none" stroke="white" stroke-width="2" points="120.75,-84 68.25,-84 "/>
<path fill="none" stroke="white" stroke-width="2" d="M68.25,-84C62.25,-84 56.25,-78 56.25,-72"/>
<polyline fill="none" stroke="white" stroke-width="2" points="56.25,-72 56.25,-60 "/>
<path fill="none" stroke="white" stroke-width="2" d="M56.25,-60C56.25,-54 62.25,-48 68.25,-48"/>
<polyline fill="none" stroke="white" stroke-width="2" points="68.25,-48 120.75,-48 "/>
<path fill="none" stroke="white" stroke-width="2" d="M120.75,-48C126.75,-48 132.75,-54 132.75,-60"/>
<polyline fill="none" stroke="white" stroke-width="2" points="132.75,-60 132.75,-72 "/>
<path fill="none" stroke="white" stroke-width="2" d="M132.75,-72C132.75,-78 126.75,-84 120.75,-84"/>
<text text-anchor="middle" x="94.5" y="-63.5" font-family="Helvetica,sans-Serif" font-size="10.00">TCF3_MYOG</text>
</a>
</g>
<!-- HES1&#45;&gt;TCF3_MYOG -->
<g id="edge28" class="edge"><title>HES1&#45;&gt;TCF3_MYOG</title>
<a xlink:title="TCF3: 0.554||remove20root">
<path fill="none" stroke="#ff7a7a" stroke-width="3" d="M207.404,-178.904C184.209,-155.709 144.093,-115.593 118.451,-89.9511"/>
<polygon fill="#ff7a7a" stroke="#ff7a7a" points="120.216,-87.7563 112.579,-84.0794 116.256,-91.7162 120.216,-87.7563"/>
</a>
</g>
<!-- HIC2&#45;&gt;HES1 -->
<g id="edge40" class="edge"><title>HIC2&#45;&gt;HES1</title>
<a xlink:title="HES1: 0.249||remove10root">
<path fill="none" stroke="#a7b0ff" stroke-width="3" d="M338.543,-84.2342C315.348,-107.429 275.231,-147.545 249.59,-173.187"/>
<polygon fill="#a7b0ff" stroke="#a7b0ff" points="247.395,-171.422 243.718,-179.059 251.355,-175.382 247.395,-171.422"/>
</a>
</g>
<!-- HIC2&#45;&gt;TCF3_MYOG -->
<g id="edge42" class="edge"><title>HIC2&#45;&gt;TCF3_MYOG</title>
<a xlink:title="TCF3: 0.205||remove8root">
<path fill="none" stroke="#e5adff" stroke-width="3" d="M329.697,-66C285.129,-66 195.809,-66 140.978,-66"/>
<polygon fill="#e5adff" stroke="#e5adff" points="140.817,-63.2001 132.817,-66 140.817,-68.8001 140.817,-63.2001"/>
</a>
</g>
<!-- CDX1&#45;&gt;RBPJ -->
<g id="edge38" class="edge"><title>CDX1&#45;&gt;RBPJ</title>
<a xlink:title="RBPJ: 0.065||remove2root">
<path fill="none" stroke="#ebc2ff" stroke-width="3" d="M121.58,-328.277C169.287,-328.277 268.27,-328.277 321.342,-328.277"/>
<polygon fill="#ebc2ff" stroke="#ebc2ff" points="321.451,-331.077 329.451,-328.277 321.451,-325.477 321.451,-331.077"/>
</a>
</g>
<!-- TCF3_MYOG&#45;&gt;RBPJ -->
<g id="edge36" class="edge"><title>TCF3_MYOG&#45;&gt;RBPJ</title>
<a xlink:title="RBPJ: 0.121||remove5root">
<path fill="none" stroke="#e8baff" stroke-width="3" d="M103.316,-84.0099C118.724,-114.227 152.89,-175.952 194.318,-218.018 232.95,-257.244 287.501,-290.862 322.507,-310.334"/>
<polygon fill="#e8baff" stroke="#e8baff" points="321.308,-312.87 329.668,-314.272 324.007,-307.963 321.308,-312.87"/>
</a>
</g>
<!-- ZNF652 -->
<g id="node34" class="node"><title>ZNF652</title>
<a xlink:href="ZNF652.svg" xlink:title="Z&#45;value: 0.892||remove15">
<polygon fill="#a8b0ff" stroke="#a8b0ff" stroke-width="2" points="419.777,-167.138 389.777,-167.138 377.777,-155.138 377.777,-143.138 389.777,-131.138 419.777,-131.138 431.777,-143.138 431.777,-155.138 419.777,-167.138"/>
<path fill="#a8b0ff" stroke="#a8b0ff" stroke-width="2" d="M389.777,-167.138C383.777,-167.138 377.777,-161.138 377.777,-155.138"/>
<path fill="#a8b0ff" stroke="#a8b0ff" stroke-width="2" d="M377.777,-143.138C377.777,-137.138 383.777,-131.138 389.777,-131.138"/>
<path fill="#a8b0ff" stroke="#a8b0ff" stroke-width="2" d="M419.777,-131.138C425.777,-131.138 431.777,-137.138 431.777,-143.138"/>
<path fill="#a8b0ff" stroke="#a8b0ff" stroke-width="2" d="M431.777,-155.138C431.777,-161.138 425.777,-167.138 419.777,-167.138"/>
<polyline fill="none" stroke="white" stroke-width="2" points="419.777,-167.138 389.777,-167.138 "/>
<path fill="none" stroke="white" stroke-width="2" d="M389.777,-167.138C383.777,-167.138 377.777,-161.138 377.777,-155.138"/>
<polyline fill="none" stroke="white" stroke-width="2" points="377.777,-155.138 377.777,-143.138 "/>
<path fill="none" stroke="white" stroke-width="2" d="M377.777,-143.138C377.777,-137.138 383.777,-131.138 389.777,-131.138"/>
<polyline fill="none" stroke="white" stroke-width="2" points="389.777,-131.138 419.777,-131.138 "/>
<path fill="none" stroke="white" stroke-width="2" d="M419.777,-131.138C425.777,-131.138 431.777,-137.138 431.777,-143.138"/>
<polyline fill="none" stroke="white" stroke-width="2" points="431.777,-143.138 431.777,-155.138 "/>
<path fill="none" stroke="white" stroke-width="2" d="M431.777,-155.138C431.777,-161.138 425.777,-167.138 419.777,-167.138"/>
<text text-anchor="middle" x="404.777" y="-146.638" font-family="Helvetica,sans-Serif" font-size="10.00">ZNF652</text>
</a>
</g>
<!-- ZNF652&#45;&gt;HES1 -->
<g id="edge44" class="edge"><title>ZNF652&#45;&gt;HES1</title>
<a xlink:title="HES1: 0.321||remove15root">
<path fill="none" stroke="#9ca6ff" stroke-width="3" d="M377.57,-156.429C346.308,-164.805 294.926,-178.573 260.691,-187.746"/>
<polygon fill="#9ca6ff" stroke="#9ca6ff" points="259.81,-185.083 252.808,-189.858 261.26,-190.492 259.81,-185.083"/>
</a>
</g>
</g>
</svg>
