<?xml version="1.0" encoding="UTF-8" standalone="no"?>
<!DOCTYPE svg PUBLIC "-//W3C//DTD SVG 1.1//EN"
 "http://www.w3.org/Graphics/SVG/1.1/DTD/svg11.dtd">
<!-- Generated by graphviz version 2.28.0 (20110630.0925)
 -->
<!-- Title: _anonymous_0 Pages: 1 -->
<svg width="424pt" height="366pt"
 viewBox="0.00 0.00 423.95 366.45" xmlns="http://www.w3.org/2000/svg" xmlns:xlink="http://www.w3.org/1999/xlink">
<g id="graph1" class="graph" transform="scale(1 1) rotate(0) translate(4 362.449)">
<title>_anonymous_0</title>
<polygon fill="white" stroke="white" points="-4,5 -4,-362.449 420.949,-362.449 420.949,5 -4,5"/>
<!-- GATA3 -->
<g id="node1" class="node"><title>GATA3</title>
<a xlink:href="GATA3.svg" xlink:title="Z&#45;value: 2.023||remove28">
<polygon fill="#3247ff" stroke="#3247ff" stroke-width="2" points="174.525,-358.449 144.525,-358.449 132.525,-346.449 132.525,-334.449 144.525,-322.449 174.525,-322.449 186.525,-334.449 186.525,-346.449 174.525,-358.449"/>
<path fill="#3247ff" stroke="#3247ff" stroke-width="2" d="M144.525,-358.449C138.525,-358.449 132.525,-352.449 132.525,-346.449"/>
<path fill="#3247ff" stroke="#3247ff" stroke-width="2" d="M132.525,-334.449C132.525,-328.449 138.525,-322.449 144.525,-322.449"/>
<path fill="#3247ff" stroke="#3247ff" stroke-width="2" d="M174.525,-322.449C180.525,-322.449 186.525,-328.449 186.525,-334.449"/>
<path fill="#3247ff" stroke="#3247ff" stroke-width="2" d="M186.525,-346.449C186.525,-352.449 180.525,-358.449 174.525,-358.449"/>
<polyline fill="none" stroke="white" stroke-width="2" points="174.525,-358.449 144.525,-358.449 "/>
<path fill="none" stroke="white" stroke-width="2" d="M144.525,-358.449C138.525,-358.449 132.525,-352.449 132.525,-346.449"/>
<polyline fill="none" stroke="white" stroke-width="2" points="132.525,-346.449 132.525,-334.449 "/>
<path fill="none" stroke="white" stroke-width="2" d="M132.525,-334.449C132.525,-328.449 138.525,-322.449 144.525,-322.449"/>
<polyline fill="none" stroke="white" stroke-width="2" points="144.525,-322.449 174.525,-322.449 "/>
<path fill="none" stroke="white" stroke-width="2" d="M174.525,-322.449C180.525,-322.449 186.525,-328.449 186.525,-334.449"/>
<polyline fill="none" stroke="white" stroke-width="2" points="186.525,-334.449 186.525,-346.449 "/>
<path fill="none" stroke="white" stroke-width="2" d="M186.525,-346.449C186.525,-352.449 180.525,-358.449 174.525,-358.449"/>
<text text-anchor="middle" x="159.525" y="-337.949" font-family="Helvetica,sans-Serif" font-size="10.00" fill="white">GATA3</text>
</a>
</g>
<!-- ZNF263 -->
<g id="node2" class="node"><title>ZNF263</title>
<a xlink:href="ZNF263.svg" xlink:title="Z&#45;value: 0.864||remove27">
<polygon fill="#8a96ff" stroke="#8a96ff" stroke-width="2" points="99.7,-315.249 69.7,-315.249 57.7,-303.249 57.7,-291.249 69.7,-279.249 99.7,-279.249 111.7,-291.249 111.7,-303.249 99.7,-315.249"/>
<path fill="#8a96ff" stroke="#8a96ff" stroke-width="2" d="M69.7,-315.249C63.7,-315.249 57.7,-309.249 57.7,-303.249"/>
<path fill="#8a96ff" stroke="#8a96ff" stroke-width="2" d="M57.7,-291.249C57.7,-285.249 63.7,-279.249 69.7,-279.249"/>
<path fill="#8a96ff" stroke="#8a96ff" stroke-width="2" d="M99.7,-279.249C105.7,-279.249 111.7,-285.249 111.7,-291.249"/>
<path fill="#8a96ff" stroke="#8a96ff" stroke-width="2" d="M111.7,-303.249C111.7,-309.249 105.7,-315.249 99.7,-315.249"/>
<polyline fill="none" stroke="white" stroke-width="2" points="99.7,-315.249 69.7,-315.249 "/>
<path fill="none" stroke="white" stroke-width="2" d="M69.7,-315.249C63.7,-315.249 57.7,-309.249 57.7,-303.249"/>
<polyline fill="none" stroke="white" stroke-width="2" points="57.7,-303.249 57.7,-291.249 "/>
<path fill="none" stroke="white" stroke-width="2" d="M57.7,-291.249C57.7,-285.249 63.7,-279.249 69.7,-279.249"/>
<polyline fill="none" stroke="white" stroke-width="2" points="69.7,-279.249 99.7,-279.249 "/>
<path fill="none" stroke="white" stroke-width="2" d="M99.7,-279.249C105.7,-279.249 111.7,-285.249 111.7,-291.249"/>
<polyline fill="none" stroke="white" stroke-width="2" points="111.7,-291.249 111.7,-303.249 "/>
<path fill="none" stroke="white" stroke-width="2" d="M111.7,-303.249C111.7,-309.249 105.7,-315.249 99.7,-315.249"/>
<text text-anchor="middle" x="84.7" y="-294.749" font-family="Helvetica,sans-Serif" font-size="10.00">ZNF263</text>
</a>
</g>
<!-- GATA3&#45;&gt;ZNF263 -->
<g id="edge2" class="edge"><title>GATA3&#45;&gt;ZNF263</title>
<a xlink:title="ZNF263: 0.037||GATA3: 0.158||remove23root">
<path fill="none" stroke="#edc9ff" stroke-width="3" d="M124.972,-321.655C122.844,-320.426 120.702,-319.19 118.573,-317.96"/>
<path fill="none" stroke="#ebc2ff" stroke-width="3" d="M125.972,-319.923C123.844,-318.694 121.702,-317.457 119.573,-316.228"/>
<polygon fill="#ebc2ff" stroke="#ebc2ff" points="124.183,-323.278 132.511,-324.853 126.983,-318.428 124.183,-323.278"/>
<polygon fill="#edc9ff" stroke="#edc9ff" points="120.253,-314.543 111.925,-312.968 117.453,-319.393 120.253,-314.543"/>
</a>
</g>
<!-- HES7_HES5 -->
<g id="node4" class="node"><title>HES7_HES5</title>
<a xlink:href="HES7_HES5.svg" xlink:title="Z&#45;value: 0.610||remove32">
<polygon fill="#ff9d9d" stroke="#ff9d9d" stroke-width="2" points="227.725,-197.225 177.725,-197.225 165.725,-185.225 165.725,-173.225 177.725,-161.225 227.725,-161.225 239.725,-173.225 239.725,-185.225 227.725,-197.225"/>
<path fill="#ff9d9d" stroke="#ff9d9d" stroke-width="2" d="M177.725,-197.225C171.725,-197.225 165.725,-191.225 165.725,-185.225"/>
<path fill="#ff9d9d" stroke="#ff9d9d" stroke-width="2" d="M165.725,-173.225C165.725,-167.225 171.725,-161.225 177.725,-161.225"/>
<path fill="#ff9d9d" stroke="#ff9d9d" stroke-width="2" d="M227.725,-161.225C233.725,-161.225 239.725,-167.225 239.725,-173.225"/>
<path fill="#ff9d9d" stroke="#ff9d9d" stroke-width="2" d="M239.725,-185.225C239.725,-191.225 233.725,-197.225 227.725,-197.225"/>
<polyline fill="none" stroke="white" stroke-width="2" points="227.725,-197.225 177.725,-197.225 "/>
<path fill="none" stroke="white" stroke-width="2" d="M177.725,-197.225C171.725,-197.225 165.725,-191.225 165.725,-185.225"/>
<polyline fill="none" stroke="white" stroke-width="2" points="165.725,-185.225 165.725,-173.225 "/>
<path fill="none" stroke="white" stroke-width="2" d="M165.725,-173.225C165.725,-167.225 171.725,-161.225 177.725,-161.225"/>
<polyline fill="none" stroke="white" stroke-width="2" points="177.725,-161.225 227.725,-161.225 "/>
<path fill="none" stroke="white" stroke-width="2" d="M227.725,-161.225C233.725,-161.225 239.725,-167.225 239.725,-173.225"/>
<polyline fill="none" stroke="white" stroke-width="2" points="239.725,-173.225 239.725,-185.225 "/>
<path fill="none" stroke="white" stroke-width="2" d="M239.725,-185.225C239.725,-191.225 233.725,-197.225 227.725,-197.225"/>
<text text-anchor="middle" x="202.725" y="-176.725" font-family="Helvetica,sans-Serif" font-size="10.00">HES7_HES5</text>
</a>
</g>
<!-- GATA3&#45;&gt;HES7_HES5 -->
<g id="edge4" class="edge"><title>GATA3&#45;&gt;HES7_HES5</title>
<a xlink:title="HES5: 0.310||remove28root">
<path fill="none" stroke="#b8bfff" stroke-width="3" d="M164.396,-322.268C172.045,-293.723 186.904,-238.267 195.706,-205.42"/>
<polygon fill="#b8bfff" stroke="#b8bfff" points="198.438,-206.039 197.805,-197.587 193.029,-204.589 198.438,-206.039"/>
</a>
</g>
<!-- NFIX_NFIB -->
<g id="node6" class="node"><title>NFIX_NFIB</title>
<a xlink:href="NFIX_NFIB.svg" xlink:title="Z&#45;value: 1.099||remove31">
<polygon fill="#7886ff" stroke="#7886ff" stroke-width="2" points="385.949,-240.425 341.949,-240.425 329.949,-228.425 329.949,-216.425 341.949,-204.425 385.949,-204.425 397.949,-216.425 397.949,-228.425 385.949,-240.425"/>
<path fill="#7886ff" stroke="#7886ff" stroke-width="2" d="M341.949,-240.425C335.949,-240.425 329.949,-234.425 329.949,-228.425"/>
<path fill="#7886ff" stroke="#7886ff" stroke-width="2" d="M329.949,-216.425C329.949,-210.425 335.949,-204.425 341.949,-204.425"/>
<path fill="#7886ff" stroke="#7886ff" stroke-width="2" d="M385.949,-204.425C391.949,-204.425 397.949,-210.425 397.949,-216.425"/>
<path fill="#7886ff" stroke="#7886ff" stroke-width="2" d="M397.949,-228.425C397.949,-234.425 391.949,-240.425 385.949,-240.425"/>
<polyline fill="none" stroke="white" stroke-width="2" points="385.949,-240.425 341.949,-240.425 "/>
<path fill="none" stroke="white" stroke-width="2" d="M341.949,-240.425C335.949,-240.425 329.949,-234.425 329.949,-228.425"/>
<polyline fill="none" stroke="white" stroke-width="2" points="329.949,-228.425 329.949,-216.425 "/>
<path fill="none" stroke="white" stroke-width="2" d="M329.949,-216.425C329.949,-210.425 335.949,-204.425 341.949,-204.425"/>
<polyline fill="none" stroke="white" stroke-width="2" points="341.949,-204.425 385.949,-204.425 "/>
<path fill="none" stroke="white" stroke-width="2" d="M385.949,-204.425C391.949,-204.425 397.949,-210.425 397.949,-216.425"/>
<polyline fill="none" stroke="white" stroke-width="2" points="397.949,-216.425 397.949,-228.425 "/>
<path fill="none" stroke="white" stroke-width="2" d="M397.949,-228.425C397.949,-234.425 391.949,-240.425 385.949,-240.425"/>
<text text-anchor="middle" x="363.949" y="-219.925" font-family="Helvetica,sans-Serif" font-size="10.00">NFIX_NFIB</text>
</a>
</g>
<!-- GATA3&#45;&gt;NFIX_NFIB -->
<g id="edge6" class="edge"><title>GATA3&#45;&gt;NFIX_NFIB</title>
<a xlink:title="NFIB: 0.249||remove26root">
<path fill="none" stroke="#e9bcff" stroke-width="3" d="M186.671,-324.776C222.326,-304.191 285.141,-267.925 325.628,-244.549"/>
<polygon fill="#e9bcff" stroke="#e9bcff" points="327.14,-246.909 332.669,-240.485 324.34,-242.06 327.14,-246.909"/>
</a>
</g>
<!-- MAFB -->
<g id="node8" class="node"><title>MAFB</title>
<a xlink:href="MAFB.svg" xlink:title="Z&#45;value: 0.960||remove16">
<polygon fill="#838fff" stroke="#838fff" stroke-width="2" points="56.5,-240.425 26.5,-240.425 14.5,-228.425 14.5,-216.425 26.5,-204.425 56.5,-204.425 68.5,-216.425 68.5,-228.425 56.5,-240.425"/>
<path fill="#838fff" stroke="#838fff" stroke-width="2" d="M26.5,-240.425C20.5,-240.425 14.5,-234.425 14.5,-228.425"/>
<path fill="#838fff" stroke="#838fff" stroke-width="2" d="M14.5,-216.425C14.5,-210.425 20.5,-204.425 26.5,-204.425"/>
<path fill="#838fff" stroke="#838fff" stroke-width="2" d="M56.5,-204.425C62.5,-204.425 68.5,-210.425 68.5,-216.425"/>
<path fill="#838fff" stroke="#838fff" stroke-width="2" d="M68.5,-228.425C68.5,-234.425 62.5,-240.425 56.5,-240.425"/>
<polyline fill="none" stroke="white" stroke-width="2" points="56.5,-240.425 26.5,-240.425 "/>
<path fill="none" stroke="white" stroke-width="2" d="M26.5,-240.425C20.5,-240.425 14.5,-234.425 14.5,-228.425"/>
<polyline fill="none" stroke="white" stroke-width="2" points="14.5,-228.425 14.5,-216.425 "/>
<path fill="none" stroke="white" stroke-width="2" d="M14.5,-216.425C14.5,-210.425 20.5,-204.425 26.5,-204.425"/>
<polyline fill="none" stroke="white" stroke-width="2" points="26.5,-204.425 56.5,-204.425 "/>
<path fill="none" stroke="white" stroke-width="2" d="M56.5,-204.425C62.5,-204.425 68.5,-210.425 68.5,-216.425"/>
<polyline fill="none" stroke="white" stroke-width="2" points="68.5,-216.425 68.5,-228.425 "/>
<path fill="none" stroke="white" stroke-width="2" d="M68.5,-228.425C68.5,-234.425 62.5,-240.425 56.5,-240.425"/>
<text text-anchor="middle" x="41.5" y="-219.925" font-family="Helvetica,sans-Serif" font-size="10.00">MAFB</text>
</a>
</g>
<!-- GATA3&#45;&gt;MAFB -->
<g id="edge8" class="edge"><title>GATA3&#45;&gt;MAFB</title>
<a xlink:title="MAFB: 0.149||remove16">
<path fill="none" stroke="#ebc2ff" stroke-width="3" d="M149.572,-322.365C141.583,-308.804 129.504,-290.266 116.02,-276.369 104.086,-264.07 89.0654,-252.605 75.6414,-243.434"/>
<polygon fill="#ebc2ff" stroke="#ebc2ff" points="76.9989,-240.974 68.7919,-238.856 73.8868,-245.629 76.9989,-240.974"/>
</a>
</g>
<!-- RCOR1_MTA3 -->
<g id="node10" class="node"><title>RCOR1_MTA3</title>
<a xlink:href="RCOR1_MTA3.svg" xlink:title="Z&#45;value: 1.731||remove30">
<polygon fill="#495bff" stroke="#495bff" stroke-width="2" points="70.75,-154.025 12.25,-154.025 0.25,-142.025 0.25,-130.025 12.25,-118.025 70.75,-118.025 82.75,-130.025 82.75,-142.025 70.75,-154.025"/>
<path fill="#495bff" stroke="#495bff" stroke-width="2" d="M12.25,-154.025C6.25,-154.025 0.25,-148.025 0.25,-142.025"/>
<path fill="#495bff" stroke="#495bff" stroke-width="2" d="M0.25,-130.025C0.25,-124.025 6.25,-118.025 12.25,-118.025"/>
<path fill="#495bff" stroke="#495bff" stroke-width="2" d="M70.75,-118.025C76.75,-118.025 82.75,-124.025 82.75,-130.025"/>
<path fill="#495bff" stroke="#495bff" stroke-width="2" d="M82.75,-142.025C82.75,-148.025 76.75,-154.025 70.75,-154.025"/>
<polyline fill="none" stroke="white" stroke-width="2" points="70.75,-154.025 12.25,-154.025 "/>
<path fill="none" stroke="white" stroke-width="2" d="M12.25,-154.025C6.25,-154.025 0.25,-148.025 0.25,-142.025"/>
<polyline fill="none" stroke="white" stroke-width="2" points="0.25,-142.025 0.25,-130.025 "/>
<path fill="none" stroke="white" stroke-width="2" d="M0.25,-130.025C0.25,-124.025 6.25,-118.025 12.25,-118.025"/>
<polyline fill="none" stroke="white" stroke-width="2" points="12.25,-118.025 70.75,-118.025 "/>
<path fill="none" stroke="white" stroke-width="2" d="M70.75,-118.025C76.75,-118.025 82.75,-124.025 82.75,-130.025"/>
<polyline fill="none" stroke="white" stroke-width="2" points="82.75,-130.025 82.75,-142.025 "/>
<path fill="none" stroke="white" stroke-width="2" d="M82.75,-142.025C82.75,-148.025 76.75,-154.025 70.75,-154.025"/>
<text text-anchor="middle" x="41.5" y="-133.525" font-family="Helvetica,sans-Serif" font-size="10.00" fill="white">RCOR1_MTA3</text>
</a>
</g>
<!-- GATA3&#45;&gt;RCOR1_MTA3 -->
<g id="edge10" class="edge"><title>GATA3&#45;&gt;RCOR1_MTA3</title>
<a xlink:title="RCOR1: 0.161||remove24root">
<path fill="none" stroke="#ebc1ff" stroke-width="3" d="M149.051,-322.308C127.922,-285.712 80.1583,-202.983 56.03,-161.191"/>
<polygon fill="#ebc1ff" stroke="#ebc1ff" points="58.3753,-159.653 51.9504,-154.125 53.5256,-162.453 58.3753,-159.653"/>
</a>
</g>
<!-- ZNF263&#45;&gt;HES7_HES5 -->
<g id="edge56" class="edge"><title>ZNF263&#45;&gt;HES7_HES5</title>
<a xlink:title="HES7: 0.252||remove27root">
<path fill="none" stroke="#bcc2ff" stroke-width="3" d="M102.883,-279.067C123.302,-258.648 156.513,-225.437 178.969,-202.98"/>
<polygon fill="#bcc2ff" stroke="#bcc2ff" points="181.038,-204.871 184.715,-197.234 177.078,-200.911 181.038,-204.871"/>
</a>
</g>
<!-- HES7_HES5&#45;&gt;NFIX_NFIB -->
<g id="edge62" class="edge"><title>HES7_HES5&#45;&gt;NFIX_NFIB</title>
<a xlink:title="NFIX: 0.621||remove31root">
<path fill="none" stroke="#ffa4a4" stroke-width="3" d="M240.118,-189.244C264.544,-195.789 296.486,-204.348 321.811,-211.134"/>
<polygon fill="#ffa4a4" stroke="#ffa4a4" points="321.33,-213.904 329.782,-213.27 322.78,-208.494 321.33,-213.904"/>
</a>
</g>
<!-- HOXA9 -->
<g id="node14" class="node"><title>HOXA9</title>
<a xlink:href="HOXA9.svg" xlink:title="Z&#45;value: 0.527||remove22">
<polygon fill="#a4adff" stroke="#a4adff" stroke-width="2" points="335.749,-315.249 305.749,-315.249 293.749,-303.249 293.749,-291.249 305.749,-279.249 335.749,-279.249 347.749,-291.249 347.749,-303.249 335.749,-315.249"/>
<path fill="#a4adff" stroke="#a4adff" stroke-width="2" d="M305.749,-315.249C299.749,-315.249 293.749,-309.249 293.749,-303.249"/>
<path fill="#a4adff" stroke="#a4adff" stroke-width="2" d="M293.749,-291.249C293.749,-285.249 299.749,-279.249 305.749,-279.249"/>
<path fill="#a4adff" stroke="#a4adff" stroke-width="2" d="M335.749,-279.249C341.749,-279.249 347.749,-285.249 347.749,-291.249"/>
<path fill="#a4adff" stroke="#a4adff" stroke-width="2" d="M347.749,-303.249C347.749,-309.249 341.749,-315.249 335.749,-315.249"/>
<polyline fill="none" stroke="white" stroke-width="2" points="335.749,-315.249 305.749,-315.249 "/>
<path fill="none" stroke="white" stroke-width="2" d="M305.749,-315.249C299.749,-315.249 293.749,-309.249 293.749,-303.249"/>
<polyline fill="none" stroke="white" stroke-width="2" points="293.749,-303.249 293.749,-291.249 "/>
<path fill="none" stroke="white" stroke-width="2" d="M293.749,-291.249C293.749,-285.249 299.749,-279.249 305.749,-279.249"/>
<polyline fill="none" stroke="white" stroke-width="2" points="305.749,-279.249 335.749,-279.249 "/>
<path fill="none" stroke="white" stroke-width="2" d="M335.749,-279.249C341.749,-279.249 347.749,-285.249 347.749,-291.249"/>
<polyline fill="none" stroke="white" stroke-width="2" points="347.749,-291.249 347.749,-303.249 "/>
<path fill="none" stroke="white" stroke-width="2" d="M347.749,-303.249C347.749,-309.249 341.749,-315.249 335.749,-315.249"/>
<text text-anchor="middle" x="320.749" y="-294.749" font-family="Helvetica,sans-Serif" font-size="10.00">HOXA9</text>
</a>
</g>
<!-- HES7_HES5&#45;&gt;HOXA9 -->
<g id="edge58" class="edge"><title>HES7_HES5&#45;&gt;HOXA9</title>
<a xlink:title="HOXA9: 0.154||remove22root">
<path fill="none" stroke="#ffc2c2" stroke-width="3" d="M220.907,-197.407C241.326,-217.826 274.537,-251.037 296.994,-273.494"/>
<polygon fill="#ffc2c2" stroke="#ffc2c2" points="295.103,-275.563 302.74,-279.24 299.063,-271.603 295.103,-275.563"/>
</a>
</g>
<!-- CUX1 -->
<g id="node25" class="node"><title>CUX1</title>
<a xlink:href="CUX1.svg" xlink:title="Z&#45;value: 0.796||remove25">
<polygon fill="#8f9aff" stroke="#8f9aff" stroke-width="2" points="260.925,-358.449 230.925,-358.449 218.925,-346.449 218.925,-334.449 230.925,-322.449 260.925,-322.449 272.925,-334.449 272.925,-346.449 260.925,-358.449"/>
<path fill="#8f9aff" stroke="#8f9aff" stroke-width="2" d="M230.925,-358.449C224.925,-358.449 218.925,-352.449 218.925,-346.449"/>
<path fill="#8f9aff" stroke="#8f9aff" stroke-width="2" d="M218.925,-334.449C218.925,-328.449 224.925,-322.449 230.925,-322.449"/>
<path fill="#8f9aff" stroke="#8f9aff" stroke-width="2" d="M260.925,-322.449C266.925,-322.449 272.925,-328.449 272.925,-334.449"/>
<path fill="#8f9aff" stroke="#8f9aff" stroke-width="2" d="M272.925,-346.449C272.925,-352.449 266.925,-358.449 260.925,-358.449"/>
<polyline fill="none" stroke="white" stroke-width="2" points="260.925,-358.449 230.925,-358.449 "/>
<path fill="none" stroke="white" stroke-width="2" d="M230.925,-358.449C224.925,-358.449 218.925,-352.449 218.925,-346.449"/>
<polyline fill="none" stroke="white" stroke-width="2" points="218.925,-346.449 218.925,-334.449 "/>
<path fill="none" stroke="white" stroke-width="2" d="M218.925,-334.449C218.925,-328.449 224.925,-322.449 230.925,-322.449"/>
<polyline fill="none" stroke="white" stroke-width="2" points="230.925,-322.449 260.925,-322.449 "/>
<path fill="none" stroke="white" stroke-width="2" d="M260.925,-322.449C266.925,-322.449 272.925,-328.449 272.925,-334.449"/>
<polyline fill="none" stroke="white" stroke-width="2" points="272.925,-334.449 272.925,-346.449 "/>
<path fill="none" stroke="white" stroke-width="2" d="M272.925,-346.449C272.925,-352.449 266.925,-358.449 260.925,-358.449"/>
<text text-anchor="middle" x="245.925" y="-337.949" font-family="Helvetica,sans-Serif" font-size="10.00">CUX1</text>
</a>
</g>
<!-- HES7_HES5&#45;&gt;CUX1 -->
<g id="edge60" class="edge"><title>HES7_HES5&#45;&gt;CUX1</title>
<a xlink:title="CUX1: 0.218||HES7: 0.078||remove25root">
<path fill="none" stroke="#ffbebe" stroke-width="3" d="M210.654,-204.954C218.675,-234.89 231.782,-283.804 239.84,-313.877"/>
<path fill="none" stroke="#c7ccff" stroke-width="3" d="M208.722,-205.471C216.744,-235.408 229.85,-284.322 237.908,-314.395"/>
<polygon fill="#c7ccff" stroke="#c7ccff" points="212.371,-204.408 207.596,-197.406 206.962,-205.858 212.371,-204.408"/>
<polygon fill="#ffbebe" stroke="#ffbebe" points="236.229,-315.084 241.005,-322.087 241.638,-313.635 236.229,-315.084"/>
</a>
</g>
<!-- NFIX_NFIB&#45;&gt;ZNF263 -->
<g id="edge46" class="edge"><title>NFIX_NFIB&#45;&gt;ZNF263</title>
<a xlink:title="ZNF263: 0.029||remove6root">
<path fill="none" stroke="#eecaff" stroke-width="3" d="M329.708,-231.6C276.374,-245.89 173.996,-273.322 120.014,-287.787"/>
<polygon fill="#eecaff" stroke="#eecaff" points="119.098,-285.133 112.096,-289.909 120.548,-290.542 119.098,-285.133"/>
</a>
</g>
<!-- NFIX_NFIB&#45;&gt;NFIX_NFIB -->
<g id="edge52" class="edge"><title>NFIX_NFIB&#45;&gt;NFIX_NFIB</title>
<a xlink:title="NFIX: 0.048||NFIB: 0.022||remove11root">
<path fill="none" stroke="#edc8ff" stroke-width="3" d="M397.958,-229.16C408.076,-228.959 415.949,-226.714 415.949,-222.425 415.949,-219.409 412.057,-217.404 406.228,-216.409"/>
<polygon fill="#edc8ff" stroke="#edc8ff" points="406.17,-213.593 397.958,-215.689 405.685,-219.172 406.17,-213.593"/>
</a>
</g>
<!-- SIN3A_CHD1 -->
<g id="node19" class="node"><title>SIN3A_CHD1</title>
<a xlink:href="SIN3A_CHD1.svg" xlink:title="Z&#45;value: 1.751||remove20">
<polygon fill="#4759ff" stroke="#4759ff" stroke-width="2" points="186.775,-36 132.275,-36 120.275,-24 120.275,-12 132.275,-3.19744e-14 186.775,-3.19744e-14 198.775,-12 198.775,-24 186.775,-36"/>
<path fill="#4759ff" stroke="#4759ff" stroke-width="2" d="M132.275,-36C126.275,-36 120.275,-30 120.275,-24"/>
<path fill="#4759ff" stroke="#4759ff" stroke-width="2" d="M120.275,-12C120.275,-6 126.275,-3.19744e-14 132.275,-3.19744e-14"/>
<path fill="#4759ff" stroke="#4759ff" stroke-width="2" d="M186.775,-3.19744e-14C192.775,-3.19744e-14 198.775,-6 198.775,-12"/>
<path fill="#4759ff" stroke="#4759ff" stroke-width="2" d="M198.775,-24C198.775,-30 192.775,-36 186.775,-36"/>
<polyline fill="none" stroke="white" stroke-width="2" points="186.775,-36 132.275,-36 "/>
<path fill="none" stroke="white" stroke-width="2" d="M132.275,-36C126.275,-36 120.275,-30 120.275,-24"/>
<polyline fill="none" stroke="white" stroke-width="2" points="120.275,-24 120.275,-12 "/>
<path fill="none" stroke="white" stroke-width="2" d="M120.275,-12C120.275,-6 126.275,-3.19744e-14 132.275,-3.19744e-14"/>
<polyline fill="none" stroke="white" stroke-width="2" points="132.275,-3.19744e-14 186.775,-3.19744e-14 "/>
<path fill="none" stroke="white" stroke-width="2" d="M186.775,-3.19744e-14C192.775,-3.19744e-14 198.775,-6 198.775,-12"/>
<polyline fill="none" stroke="white" stroke-width="2" points="198.775,-12 198.775,-24 "/>
<path fill="none" stroke="white" stroke-width="2" d="M198.775,-24C198.775,-30 192.775,-36 186.775,-36"/>
<text text-anchor="middle" x="159.525" y="-15.5" font-family="Helvetica,sans-Serif" font-size="10.00" fill="white">SIN3A_CHD1</text>
</a>
</g>
<!-- NFIX_NFIB&#45;&gt;SIN3A_CHD1 -->
<g id="edge54" class="edge"><title>NFIX_NFIB&#45;&gt;SIN3A_CHD1</title>
<a xlink:title="SIN3A: 0.086||NFIX: 2.434||NFIB: 0.223||remove20">
<path fill="none" stroke="#ecc6ff" stroke-width="3" d="M339.314,-199.204C300.027,-159.916 222.286,-82.1758 182.899,-42.7882"/>
<path fill="none" stroke="#bd32ff" stroke-width="3" d="M340.729,-197.79C301.441,-158.502 223.7,-80.7616 184.313,-41.374"/>
<polygon fill="#bd32ff" stroke="#bd32ff" points="338.171,-200.606 345.808,-204.283 342.131,-196.646 338.171,-200.606"/>
<polygon fill="#ecc6ff" stroke="#ecc6ff" points="185.262,-39.7776 177.625,-36.1007 181.302,-43.7375 185.262,-39.7776"/>
</a>
</g>
<!-- NFIX_NFIB&#45;&gt;CUX1 -->
<g id="edge48" class="edge"><title>NFIX_NFIB&#45;&gt;CUX1</title>
<a xlink:title="CUX1: 0.042||remove10root">
<path fill="none" stroke="#edc9ff" stroke-width="3" d="M334.137,-240.517C319.697,-250.113 302.664,-262.729 289.429,-276.369 278.158,-287.986 267.867,-302.846 260.127,-315.331"/>
<polygon fill="#edc9ff" stroke="#edc9ff" points="257.618,-314.07 255.877,-322.365 262.411,-316.966 257.618,-314.07"/>
</a>
</g>
<!-- MYOD1 -->
<g id="node37" class="node"><title>MYOD1</title>
<a xlink:href="MYOD1.svg" xlink:title="Z&#45;value: 0.425||remove17">
<polygon fill="#abb4ff" stroke="#abb4ff" stroke-width="2" points="378.949,-154.025 348.949,-154.025 336.949,-142.025 336.949,-130.025 348.949,-118.025 378.949,-118.025 390.949,-130.025 390.949,-142.025 378.949,-154.025"/>
<path fill="#abb4ff" stroke="#abb4ff" stroke-width="2" d="M348.949,-154.025C342.949,-154.025 336.949,-148.025 336.949,-142.025"/>
<path fill="#abb4ff" stroke="#abb4ff" stroke-width="2" d="M336.949,-130.025C336.949,-124.025 342.949,-118.025 348.949,-118.025"/>
<path fill="#abb4ff" stroke="#abb4ff" stroke-width="2" d="M378.949,-118.025C384.949,-118.025 390.949,-124.025 390.949,-130.025"/>
<path fill="#abb4ff" stroke="#abb4ff" stroke-width="2" d="M390.949,-142.025C390.949,-148.025 384.949,-154.025 378.949,-154.025"/>
<polyline fill="none" stroke="white" stroke-width="2" points="378.949,-154.025 348.949,-154.025 "/>
<path fill="none" stroke="white" stroke-width="2" d="M348.949,-154.025C342.949,-154.025 336.949,-148.025 336.949,-142.025"/>
<polyline fill="none" stroke="white" stroke-width="2" points="336.949,-142.025 336.949,-130.025 "/>
<path fill="none" stroke="white" stroke-width="2" d="M336.949,-130.025C336.949,-124.025 342.949,-118.025 348.949,-118.025"/>
<polyline fill="none" stroke="white" stroke-width="2" points="348.949,-118.025 378.949,-118.025 "/>
<path fill="none" stroke="white" stroke-width="2" d="M378.949,-118.025C384.949,-118.025 390.949,-124.025 390.949,-130.025"/>
<polyline fill="none" stroke="white" stroke-width="2" points="390.949,-130.025 390.949,-142.025 "/>
<path fill="none" stroke="white" stroke-width="2" d="M390.949,-142.025C390.949,-148.025 384.949,-154.025 378.949,-154.025"/>
<text text-anchor="middle" x="363.949" y="-133.525" font-family="Helvetica,sans-Serif" font-size="10.00">MYOD1</text>
</a>
</g>
<!-- NFIX_NFIB&#45;&gt;MYOD1 -->
<g id="edge50" class="edge"><title>NFIX_NFIB&#45;&gt;MYOD1</title>
<a xlink:title="MYOD1: 0.001||remove0root">
<path fill="none" stroke="#eecbff" stroke-width="3" d="M363.949,-204.101C363.949,-191.877 363.949,-175.621 363.949,-162.06"/>
<polygon fill="#eecbff" stroke="#eecbff" points="366.749,-162.025 363.949,-154.025 361.149,-162.025 366.749,-162.025"/>
</a>
</g>
<!-- MAFB&#45;&gt;HES7_HES5 -->
<g id="edge16" class="edge"><title>MAFB&#45;&gt;HES7_HES5</title>
<a xlink:title="HES7: 0.095||HES5: 0.082||remove16root">
<path fill="none" stroke="#c6cbff" stroke-width="3" d="M68.8496,-215.096C93.1569,-208.583 129.159,-198.936 157.708,-191.287"/>
<polygon fill="#c6cbff" stroke="#c6cbff" points="158.544,-193.962 165.547,-189.186 157.095,-188.552 158.544,-193.962"/>
</a>
</g>
<!-- MAFB&#45;&gt;NFIX_NFIB -->
<g id="edge18" class="edge"><title>MAFB&#45;&gt;NFIX_NFIB</title>
<a xlink:title="NFIB: 0.114||remove16">
<path fill="none" stroke="#ecc4ff" stroke-width="3" d="M68.7139,-222.425C124.917,-222.425 254.174,-222.425 321.473,-222.425"/>
<polygon fill="#ecc4ff" stroke="#ecc4ff" points="321.758,-225.225 329.757,-222.425 321.757,-219.625 321.758,-225.225"/>
</a>
</g>
<!-- MAFB&#45;&gt;MAFB -->
<g id="edge20" class="edge"><title>MAFB&#45;&gt;MAFB</title>
<a xlink:title="MAFB: 0.024||remove4root">
<path fill="none" stroke="#eecaff" stroke-width="3" d="M68.7408,-229.168C78.5239,-229.313 86.5,-227.065 86.5,-222.425 86.5,-219.162 82.5568,-217.082 76.8147,-216.185"/>
<polygon fill="#eecaff" stroke="#eecaff" points="76.8996,-213.385 68.7408,-215.681 76.551,-218.974 76.8996,-213.385"/>
</a>
</g>
<!-- MAFB&#45;&gt;RCOR1_MTA3 -->
<g id="edge24" class="edge"><title>MAFB&#45;&gt;RCOR1_MTA3</title>
<a xlink:title="RCOR1: 0.120||MTA3: 0.034||remove16">
<path fill="none" stroke="#ecc4ff" stroke-width="3" d="M41.5,-204.101C41.5,-191.877 41.5,-175.621 41.5,-162.06"/>
<polygon fill="#ecc4ff" stroke="#ecc4ff" points="44.3001,-162.025 41.5,-154.025 38.7001,-162.025 44.3001,-162.025"/>
</a>
</g>
<!-- TBX2 -->
<g id="node12" class="node"><title>TBX2</title>
<a xlink:href="TBX2.svg" xlink:title="Z&#45;value: 0.814||remove19">
<polygon fill="#8e99ff" stroke="#8e99ff" stroke-width="2" points="99.7,-79.2 69.7,-79.2 57.7,-67.2 57.7,-55.2 69.7,-43.2 99.7,-43.2 111.7,-55.2 111.7,-67.2 99.7,-79.2"/>
<path fill="#8e99ff" stroke="#8e99ff" stroke-width="2" d="M69.7,-79.2C63.7,-79.2 57.7,-73.2 57.7,-67.2"/>
<path fill="#8e99ff" stroke="#8e99ff" stroke-width="2" d="M57.7,-55.2C57.7,-49.2 63.7,-43.2 69.7,-43.2"/>
<path fill="#8e99ff" stroke="#8e99ff" stroke-width="2" d="M99.7,-43.2C105.7,-43.2 111.7,-49.2 111.7,-55.2"/>
<path fill="#8e99ff" stroke="#8e99ff" stroke-width="2" d="M111.7,-67.2C111.7,-73.2 105.7,-79.2 99.7,-79.2"/>
<polyline fill="none" stroke="white" stroke-width="2" points="99.7,-79.2 69.7,-79.2 "/>
<path fill="none" stroke="white" stroke-width="2" d="M69.7,-79.2C63.7,-79.2 57.7,-73.2 57.7,-67.2"/>
<polyline fill="none" stroke="white" stroke-width="2" points="57.7,-67.2 57.7,-55.2 "/>
<path fill="none" stroke="white" stroke-width="2" d="M57.7,-55.2C57.7,-49.2 63.7,-43.2 69.7,-43.2"/>
<polyline fill="none" stroke="white" stroke-width="2" points="69.7,-43.2 99.7,-43.2 "/>
<path fill="none" stroke="white" stroke-width="2" d="M99.7,-43.2C105.7,-43.2 111.7,-49.2 111.7,-55.2"/>
<polyline fill="none" stroke="white" stroke-width="2" points="111.7,-55.2 111.7,-67.2 "/>
<path fill="none" stroke="white" stroke-width="2" d="M111.7,-67.2C111.7,-73.2 105.7,-79.2 99.7,-79.2"/>
<text text-anchor="middle" x="84.7" y="-58.7" font-family="Helvetica,sans-Serif" font-size="10.00">TBX2</text>
</a>
</g>
<!-- MAFB&#45;&gt;TBX2 -->
<g id="edge12" class="edge"><title>MAFB&#45;&gt;TBX2</title>
<a xlink:title="TBX2: 0.380||remove16">
<path fill="none" stroke="#e7b4ff" stroke-width="3" d="M59.8638,-204.212C70.8336,-191.987 83.7471,-174.878 89.64,-156.905 97.0784,-134.218 94.6254,-106.894 91.033,-87.2593"/>
<polygon fill="#e7b4ff" stroke="#e7b4ff" points="93.7658,-86.6456 89.4492,-79.3513 88.2748,-87.7454 93.7658,-86.6456"/>
</a>
</g>
<!-- MAFB&#45;&gt;HOXA9 -->
<g id="edge14" class="edge"><title>MAFB&#45;&gt;HOXA9</title>
<a xlink:title="HOXA9: 0.029||remove5root">
<path fill="none" stroke="#eecaff" stroke-width="3" d="M68.5293,-229.667C119.409,-243.3 229.354,-272.76 285.781,-287.88"/>
<polygon fill="#eecaff" stroke="#eecaff" points="285.253,-290.637 293.705,-290.003 286.702,-285.228 285.253,-290.637"/>
</a>
</g>
<!-- MAFB&#45;&gt;SIN3A_CHD1 -->
<g id="edge22" class="edge"><title>MAFB&#45;&gt;SIN3A_CHD1</title>
<a xlink:title="SIN3A: 0.019||MAFB: 0.111||remove16">
<path fill="none" stroke="#eecaff" stroke-width="3" d="M60.1709,-197.385C69.3508,-185.365 80.179,-170.432 88.7874,-156.382 112.078,-118.396 134.438,-71.5194 147.329,-43.138"/>
<path fill="none" stroke="#ecc5ff" stroke-width="3" d="M61.7603,-198.599C70.9699,-186.539 81.7982,-171.606 90.4926,-157.427 113.883,-119.257 136.244,-72.3805 149.15,-43.9651"/>
<polygon fill="#ecc5ff" stroke="#ecc5ff" points="58.7222,-196.316 56.0497,-204.359 63.1549,-199.738 58.7222,-196.316"/>
<polygon fill="#eecaff" stroke="#eecaff" points="150.884,-44.4983 151.62,-36.0544 145.779,-42.1966 150.884,-44.4983"/>
</a>
</g>
<!-- RCOR1_MTA3&#45;&gt;ZNF263 -->
<g id="edge28" class="edge"><title>RCOR1_MTA3&#45;&gt;ZNF263</title>
<a xlink:title="ZNF263: 0.023||remove3root">
<path fill="none" stroke="#eecaff" stroke-width="3" d="M52.0618,-154.032C59.0871,-166.854 67.8977,-184.725 72.82,-201.545 79.4972,-224.361 82.4221,-251.309 83.703,-270.786"/>
<polygon fill="#eecaff" stroke="#eecaff" points="80.9151,-271.079 84.1705,-278.905 86.5059,-270.757 80.9151,-271.079"/>
</a>
</g>
<!-- RCOR1_MTA3&#45;&gt;HES7_HES5 -->
<g id="edge34" class="edge"><title>RCOR1_MTA3&#45;&gt;HES7_HES5</title>
<a xlink:title="HES7: 0.442||HES5: 0.029||remove30root">
<path fill="none" stroke="#b0b8ff" stroke-width="3" d="M83.0193,-147.15C105.903,-153.281 134.333,-160.899 157.744,-167.172"/>
<polygon fill="#b0b8ff" stroke="#b0b8ff" points="157.023,-169.878 165.475,-169.244 158.473,-164.468 157.023,-169.878"/>
</a>
</g>
<!-- RCOR1_MTA3&#45;&gt;NFIX_NFIB -->
<g id="edge36" class="edge"><title>RCOR1_MTA3&#45;&gt;NFIX_NFIB</title>
<a xlink:title="NFIX: 0.363||NFIB: 0.033||MTA3: 0.087||remove29root">
<path fill="none" stroke="#e7b5ff" stroke-width="3" d="M75.2324,-157.71C98.0833,-172.052 129.779,-189.704 160.103,-199.15 214.112,-216.043 279.939,-220.543 321.859,-221.524"/>
<path fill="none" stroke="#ecc6ff" stroke-width="3" d="M74.1693,-159.404C97.1102,-173.799 128.806,-191.451 159.507,-201.059 213.976,-218.038 279.803,-222.538 321.812,-223.524"/>
<polygon fill="#ecc6ff" stroke="#ecc6ff" points="76.1401,-156.154 67.8887,-154.216 73.1305,-160.877 76.1401,-156.154"/>
<polygon fill="#e7b5ff" stroke="#e7b5ff" points="321.849,-225.325 329.9,-222.676 321.955,-219.726 321.849,-225.325"/>
</a>
</g>
<!-- RCOR1_MTA3&#45;&gt;RCOR1_MTA3 -->
<g id="edge44" class="edge"><title>RCOR1_MTA3&#45;&gt;RCOR1_MTA3</title>
<a xlink:title="RCOR1: 1.276||remove30">
<path fill="none" stroke="#d57bff" stroke-width="3" d="M82.8547,-142.669C92.9714,-142.177 100.5,-139.962 100.5,-136.025 100.5,-133.256 96.778,-131.339 91.0513,-130.274"/>
<polygon fill="#d57bff" stroke="#d57bff" points="91.1112,-127.464 82.8547,-129.38 90.504,-133.031 91.1112,-127.464"/>
</a>
</g>
<!-- RCOR1_MTA3&#45;&gt;TBX2 -->
<g id="edge26" class="edge"><title>RCOR1_MTA3&#45;&gt;TBX2</title>
<a xlink:title="TBX2: 0.530||RCOR1: 0.270||remove19">
<path fill="none" stroke="#e4aaff" stroke-width="3" d="M55.2406,-110.225C59.7809,-102.361 64.7833,-93.6968 69.3174,-85.8435"/>
<path fill="none" stroke="#e9bbff" stroke-width="3" d="M56.9726,-111.225C61.5129,-103.361 66.5153,-94.6968 71.0494,-86.8435"/>
<polygon fill="#e9bbff" stroke="#e9bbff" points="53.5327,-109.583 51.9575,-117.912 58.3824,-112.383 53.5327,-109.583"/>
<polygon fill="#e4aaff" stroke="#e4aaff" points="72.6139,-87.7337 74.1891,-79.4055 67.7641,-84.9337 72.6139,-87.7337"/>
</a>
</g>
<!-- RCOR1_MTA3&#45;&gt;HOXA9 -->
<g id="edge30" class="edge"><title>RCOR1_MTA3&#45;&gt;HOXA9</title>
<a xlink:title="HOXA9: 0.010||remove1root">
<path fill="none" stroke="#eecbff" stroke-width="3" d="M72.7206,-154.05C125.433,-184.483 231.671,-245.82 286.413,-277.425"/>
<polygon fill="#eecbff" stroke="#eecbff" points="285.137,-279.922 293.466,-281.497 287.937,-275.072 285.137,-279.922"/>
</a>
</g>
<!-- RCOR1_MTA3&#45;&gt;SIN3A_CHD1 -->
<g id="edge42" class="edge"><title>RCOR1_MTA3&#45;&gt;SIN3A_CHD1</title>
<a xlink:title="SIN3A: 0.229||RCOR1: 1.779||remove20">
<path fill="none" stroke="#eabdff" stroke-width="3" d="M77.6755,-112.399C90.3684,-103.579 104.239,-92.7995 115.302,-81.3836 126.47,-69.894 136.76,-55.0337 144.472,-42.5912"/>
<path fill="none" stroke="#ca5cff" stroke-width="3" d="M78.8169,-114.041C91.5956,-105.158 105.466,-94.3787 116.738,-82.7764 128.114,-71.0326 138.404,-56.1723 146.172,-43.645"/>
<polygon fill="#ca5cff" stroke="#ca5cff" points="76.3553,-111.12 71.3119,-117.932 79.5026,-115.752 76.3553,-111.12"/>
<polygon fill="#eabdff" stroke="#eabdff" points="147.831,-44.3792 149.572,-36.0841 143.038,-41.483 147.831,-44.3792"/>
</a>
</g>
<!-- RCOR1_MTA3&#45;&gt;CUX1 -->
<g id="edge32" class="edge"><title>RCOR1_MTA3&#45;&gt;CUX1</title>
<a xlink:title="CUX1: 0.938||remove25">
<path fill="none" stroke="#db91ff" stroke-width="3" d="M59.6413,-154.166C96.616,-191.141 180.684,-275.209 222.042,-316.567"/>
<polygon fill="#db91ff" stroke="#db91ff" points="220.187,-318.672 227.824,-322.349 224.147,-314.712 220.187,-318.672"/>
</a>
</g>
<!-- PAX5 -->
<g id="node29" class="node"><title>PAX5</title>
<a xlink:href="PAX5.svg" xlink:title="Z&#45;value: 1.037||remove21">
<polygon fill="#7d8aff" stroke="#7d8aff" stroke-width="2" points="260.925,-36 230.925,-36 218.925,-24 218.925,-12 230.925,3.19744e-14 260.925,3.19744e-14 272.925,-12 272.925,-24 260.925,-36"/>
<path fill="#7d8aff" stroke="#7d8aff" stroke-width="2" d="M230.925,-36C224.925,-36 218.925,-30 218.925,-24"/>
<path fill="#7d8aff" stroke="#7d8aff" stroke-width="2" d="M218.925,-12C218.925,-6 224.925,3.19744e-14 230.925,3.19744e-14"/>
<path fill="#7d8aff" stroke="#7d8aff" stroke-width="2" d="M260.925,3.19744e-14C266.925,3.19744e-14 272.925,-6 272.925,-12"/>
<path fill="#7d8aff" stroke="#7d8aff" stroke-width="2" d="M272.925,-24C272.925,-30 266.925,-36 260.925,-36"/>
<polyline fill="none" stroke="white" stroke-width="2" points="260.925,-36 230.925,-36 "/>
<path fill="none" stroke="white" stroke-width="2" d="M230.925,-36C224.925,-36 218.925,-30 218.925,-24"/>
<polyline fill="none" stroke="white" stroke-width="2" points="218.925,-24 218.925,-12 "/>
<path fill="none" stroke="white" stroke-width="2" d="M218.925,-12C218.925,-6 224.925,3.19744e-14 230.925,3.19744e-14"/>
<polyline fill="none" stroke="white" stroke-width="2" points="230.925,3.19744e-14 260.925,3.19744e-14 "/>
<path fill="none" stroke="white" stroke-width="2" d="M260.925,3.19744e-14C266.925,3.19744e-14 272.925,-6 272.925,-12"/>
<polyline fill="none" stroke="white" stroke-width="2" points="272.925,-12 272.925,-24 "/>
<path fill="none" stroke="white" stroke-width="2" d="M272.925,-24C272.925,-30 266.925,-36 260.925,-36"/>
<text text-anchor="middle" x="245.925" y="-15.5" font-family="Helvetica,sans-Serif" font-size="10.00">PAX5</text>
</a>
</g>
<!-- RCOR1_MTA3&#45;&gt;PAX5 -->
<g id="edge38" class="edge"><title>RCOR1_MTA3&#45;&gt;PAX5</title>
<a xlink:title="PAX5: 0.228||MTA3: 0.033||remove21">
<path fill="none" stroke="#eabdff" stroke-width="3" d="M79.5287,-112.914C117.446,-91.0224 174.8,-57.9091 211.168,-36.912"/>
<path fill="none" stroke="#eec9ff" stroke-width="3" d="M80.5287,-114.646C118.446,-92.7544 175.8,-59.6412 212.168,-38.6441"/>
<polygon fill="#eec9ff" stroke="#eec9ff" points="78.5215,-111.417 72.9933,-117.842 81.3216,-116.267 78.5215,-111.417"/>
<polygon fill="#eabdff" stroke="#eabdff" points="213.122,-40.172 218.65,-33.7471 210.322,-35.3223 213.122,-40.172"/>
</a>
</g>
<!-- SOX9 -->
<g id="node31" class="node"><title>SOX9</title>
<a xlink:href="SOX9.svg" xlink:title="Z&#45;value: 0.680||remove18">
<polygon fill="#98a2ff" stroke="#98a2ff" stroke-width="2" points="335.749,-79.2 305.749,-79.2 293.749,-67.2 293.749,-55.2 305.749,-43.2 335.749,-43.2 347.749,-55.2 347.749,-67.2 335.749,-79.2"/>
<path fill="#98a2ff" stroke="#98a2ff" stroke-width="2" d="M305.749,-79.2C299.749,-79.2 293.749,-73.2 293.749,-67.2"/>
<path fill="#98a2ff" stroke="#98a2ff" stroke-width="2" d="M293.749,-55.2C293.749,-49.2 299.749,-43.2 305.749,-43.2"/>
<path fill="#98a2ff" stroke="#98a2ff" stroke-width="2" d="M335.749,-43.2C341.749,-43.2 347.749,-49.2 347.749,-55.2"/>
<path fill="#98a2ff" stroke="#98a2ff" stroke-width="2" d="M347.749,-67.2C347.749,-73.2 341.749,-79.2 335.749,-79.2"/>
<polyline fill="none" stroke="white" stroke-width="2" points="335.749,-79.2 305.749,-79.2 "/>
<path fill="none" stroke="white" stroke-width="2" d="M305.749,-79.2C299.749,-79.2 293.749,-73.2 293.749,-67.2"/>
<polyline fill="none" stroke="white" stroke-width="2" points="293.749,-67.2 293.749,-55.2 "/>
<path fill="none" stroke="white" stroke-width="2" d="M293.749,-55.2C293.749,-49.2 299.749,-43.2 305.749,-43.2"/>
<polyline fill="none" stroke="white" stroke-width="2" points="305.749,-43.2 335.749,-43.2 "/>
<path fill="none" stroke="white" stroke-width="2" d="M335.749,-43.2C341.749,-43.2 347.749,-49.2 347.749,-55.2"/>
<polyline fill="none" stroke="white" stroke-width="2" points="347.749,-55.2 347.749,-67.2 "/>
<path fill="none" stroke="white" stroke-width="2" d="M347.749,-67.2C347.749,-73.2 341.749,-79.2 335.749,-79.2"/>
<text text-anchor="middle" x="320.749" y="-58.7" font-family="Helvetica,sans-Serif" font-size="10.00">SOX9</text>
</a>
</g>
<!-- RCOR1_MTA3&#45;&gt;SOX9 -->
<g id="edge40" class="edge"><title>RCOR1_MTA3&#45;&gt;SOX9</title>
<a xlink:title="SOX9: 0.163||remove18">
<path fill="none" stroke="#ebc1ff" stroke-width="3" d="M83.0049,-124.903C137.952,-110.18 233.894,-84.4728 285.502,-70.6445"/>
<polygon fill="#ebc1ff" stroke="#ebc1ff" points="286.388,-73.3059 293.391,-68.5306 284.939,-67.8967 286.388,-73.3059"/>
</a>
</g>
<!-- TBX2&#45;&gt;HES7_HES5 -->
<g id="edge76" class="edge"><title>TBX2&#45;&gt;HES7_HES5</title>
<a xlink:title="HES7: 0.112||remove19root">
<path fill="none" stroke="#c4caff" stroke-width="3" d="M102.883,-79.3827C123.302,-99.8017 156.513,-133.013 178.969,-155.469"/>
<polygon fill="#c4caff" stroke="#c4caff" points="177.078,-157.538 184.715,-161.215 181.038,-153.578 177.078,-157.538"/>
</a>
</g>
<!-- SIN3A_CHD1&#45;&gt;HES7_HES5 -->
<g id="edge70" class="edge"><title>SIN3A_CHD1&#45;&gt;HES7_HES5</title>
<a xlink:title="HES7: 0.122||HES5: 0.057||remove20root">
<path fill="none" stroke="#c4caff" stroke-width="3" d="M164.396,-36.1811C172.045,-64.7264 186.904,-120.183 195.706,-153.029"/>
<polygon fill="#c4caff" stroke="#c4caff" points="193.029,-153.86 197.805,-160.863 198.438,-152.41 193.029,-153.86"/>
</a>
</g>
<!-- SIN3A_CHD1&#45;&gt;TBX2 -->
<g id="edge64" class="edge"><title>SIN3A_CHD1&#45;&gt;TBX2</title>
<a xlink:title="TBX2: 1.375||remove19">
<path fill="none" stroke="#d375ff" stroke-width="3" d="M128.226,-36.0704C125.162,-37.8391 122.042,-39.6403 118.952,-41.4248"/>
<polygon fill="#d375ff" stroke="#d375ff" points="117.361,-39.1102 111.832,-45.5351 120.161,-43.9599 117.361,-39.1102"/>
</a>
</g>
<!-- SIN3A_CHD1&#45;&gt;HOXA9 -->
<g id="edge66" class="edge"><title>SIN3A_CHD1&#45;&gt;HOXA9</title>
<a xlink:title="HOXA9: 0.051||remove12root">
<path fill="none" stroke="#edc8ff" stroke-width="3" d="M171.274,-36.4212C188.164,-63.062 220.085,-114.015 245.645,-158.345 268.175,-197.42 292.768,-243.644 307.466,-271.688"/>
<polygon fill="#edc8ff" stroke="#edc8ff" points="305.15,-273.303 311.339,-279.094 310.113,-270.708 305.15,-273.303"/>
</a>
</g>
<!-- SIN3A_CHD1&#45;&gt;SIN3A_CHD1 -->
<g id="edge74" class="edge"><title>SIN3A_CHD1&#45;&gt;SIN3A_CHD1</title>
<a xlink:title="CHD1: 0.054||remove13root">
<path fill="none" stroke="#edc8ff" stroke-width="3" d="M198.952,-24.6693C208.989,-24.2309 216.525,-22.0078 216.525,-18 216.525,-15.182 212.799,-13.2464 207.098,-12.193"/>
<polygon fill="#edc8ff" stroke="#edc8ff" points="207.202,-9.38849 198.952,-11.3307 206.612,-14.9574 207.202,-9.38849"/>
</a>
</g>
<!-- SIN3A_CHD1&#45;&gt;CUX1 -->
<g id="edge68" class="edge"><title>SIN3A_CHD1&#45;&gt;CUX1</title>
<a xlink:title="CUX1: 0.245||remove20">
<path fill="none" stroke="#e9bcff" stroke-width="3" d="M175.482,-36.3682C196.371,-61.7539 231.936,-109.935 245.645,-158.345 260.877,-212.133 255.2,-278.497 250.232,-314.402"/>
<polygon fill="#e9bcff" stroke="#e9bcff" points="247.445,-314.108 249.062,-322.428 252.987,-314.916 247.445,-314.108"/>
</a>
</g>
<!-- SIN3A_CHD1&#45;&gt;SOX9 -->
<g id="edge72" class="edge"><title>SIN3A_CHD1&#45;&gt;SOX9</title>
<a xlink:title="SOX9: 0.092||remove15root">
<path fill="none" stroke="#ecc6ff" stroke-width="3" d="M198.988,-33.7991C204.198,-35.6372 209.501,-37.3859 214.605,-38.88 237.898,-45.6995 264.643,-51.3099 285.459,-55.2001"/>
<polygon fill="#ecc6ff" stroke="#ecc6ff" points="285.039,-57.9698 293.413,-56.6572 286.048,-52.4615 285.039,-57.9698"/>
</a>
</g>
<!-- PAX5&#45;&gt;ZNF263 -->
<g id="edge84" class="edge"><title>PAX5&#45;&gt;ZNF263</title>
<a xlink:title="ZNF263: 0.041||remove9root">
<path fill="none" stroke="#edc9ff" stroke-width="3" d="M234.175,-36.4212C217.285,-63.062 185.365,-114.015 159.805,-158.345 137.274,-197.42 112.681,-243.644 97.9837,-271.688"/>
<polygon fill="#edc9ff" stroke="#edc9ff" points="95.3366,-270.708 94.1105,-279.094 100.299,-273.303 95.3366,-270.708"/>
</a>
</g>
<!-- PAX5&#45;&gt;HES7_HES5 -->
<g id="edge86" class="edge"><title>PAX5&#45;&gt;HES7_HES5</title>
<a xlink:title="HES5: 0.140||remove21root">
<path fill="none" stroke="#c3c9ff" stroke-width="3" d="M241.053,-36.1811C233.404,-64.7264 218.545,-120.183 209.744,-153.029"/>
<polygon fill="#c3c9ff" stroke="#c3c9ff" points="207.011,-152.41 207.645,-160.863 212.42,-153.86 207.011,-152.41"/>
</a>
</g>
<!-- PAX5&#45;&gt;MAFB -->
<g id="edge88" class="edge"><title>PAX5&#45;&gt;MAFB</title>
<a xlink:title="MAFB: 0.020||remove2root">
<path fill="none" stroke="#eecaff" stroke-width="3" d="M227.783,-36.1413C190.809,-73.116 106.74,-157.184 65.3821,-198.542"/>
<polygon fill="#eecaff" stroke="#eecaff" points="63.2776,-196.687 59.6007,-204.324 67.2375,-200.647 63.2776,-196.687"/>
</a>
</g>
<!-- PAX5&#45;&gt;TBX2 -->
<g id="edge82" class="edge"><title>PAX5&#45;&gt;TBX2</title>
<a xlink:title="TBX2: 0.078||remove14root">
<path fill="none" stroke="#edc7ff" stroke-width="3" d="M218.898,-33.2751C214.462,-35.3806 209.843,-37.3437 205.345,-38.88 177.455,-48.4042 144.471,-54.1532 120.046,-57.4256"/>
<polygon fill="#edc7ff" stroke="#edc7ff" points="119.69,-54.6482 112.111,-58.4423 120.402,-60.2028 119.69,-54.6482"/>
</a>
</g>
<!-- SOX9&#45;&gt;HES7_HES5 -->
<g id="edge78" class="edge"><title>SOX9&#45;&gt;HES7_HES5</title>
<a xlink:title="HES5: 0.101||remove18root">
<path fill="none" stroke="#c5cbff" stroke-width="3" d="M302.567,-79.3827C282.148,-99.8017 248.937,-133.013 226.48,-155.469"/>
<polygon fill="#c5cbff" stroke="#c5cbff" points="224.411,-153.578 220.734,-161.215 228.371,-157.538 224.411,-153.578"/>
</a>
</g>
<!-- SOX9&#45;&gt;MAFB -->
<g id="edge80" class="edge"><title>SOX9&#45;&gt;MAFB</title>
<a xlink:title="MAFB: 0.031||remove7root">
<path fill="none" stroke="#eecaff" stroke-width="3" d="M293.72,-76.8054C242.632,-106.301 131.993,-170.178 75.7768,-202.635"/>
<polygon fill="#eecaff" stroke="#eecaff" points="74.0724,-200.386 68.5442,-206.811 76.8724,-205.235 74.0724,-200.386"/>
</a>
</g>
<!-- MYOD1&#45;&gt;HES7_HES5 -->
<g id="edge90" class="edge"><title>MYOD1&#45;&gt;HES7_HES5</title>
<a xlink:title="HES5: 0.097||remove17root">
<path fill="none" stroke="#c5cbff" stroke-width="3" d="M336.6,-143.353C312.292,-149.866 276.29,-159.513 247.741,-167.162"/>
<polygon fill="#c5cbff" stroke="#c5cbff" points="246.905,-164.488 239.903,-169.263 248.355,-169.897 246.905,-164.488"/>
</a>
</g>
<!-- MYOD1&#45;&gt;SIN3A_CHD1 -->
<g id="edge92" class="edge"><title>MYOD1&#45;&gt;SIN3A_CHD1</title>
<a xlink:title="SIN3A: 0.039||remove8root">
<path fill="none" stroke="#edc9ff" stroke-width="3" d="M336.803,-120.352C301.148,-99.7665 238.333,-63.5 197.846,-40.1248"/>
<polygon fill="#edc9ff" stroke="#edc9ff" points="199.134,-37.6351 190.805,-36.0599 196.333,-42.4848 199.134,-37.6351"/>
</a>
</g>
</g>
</svg>
