<?xml version="1.0" encoding="UTF-8" standalone="no"?>
<!DOCTYPE svg PUBLIC "-//W3C//DTD SVG 1.1//EN"
 "http://www.w3.org/Graphics/SVG/1.1/DTD/svg11.dtd">
<!-- Generated by graphviz version 2.28.0 (20110630.0925)
 -->
<!-- Title: _anonymous_0 Pages: 1 -->
<svg width="449pt" height="373pt"
 viewBox="0.00 0.00 448.67 373.17" xmlns="http://www.w3.org/2000/svg" xmlns:xlink="http://www.w3.org/1999/xlink">
<g id="graph1" class="graph" transform="scale(1 1) rotate(0) translate(4 369.167)">
<title>_anonymous_0</title>
<polygon fill="white" stroke="white" points="-4,5 -4,-369.167 445.667,-369.167 445.667,5 -4,5"/>
<!-- YBX1_FOS_NFYC_NFYA_NFYB_CEBPZ -->
<g id="node1" class="node"><title>YBX1_FOS_NFYC_NFYA_NFYB_CEBPZ</title>
<a xlink:href="YBX1_FOS_NFYC_NFYA_NFYB_CEBPZ.svg" xlink:title="Z&#45;value: 1.883||remove22">
<polygon fill="#3247ff" stroke="#3247ff" stroke-width="2" points="196.1,-321.067 17.1,-321.067 5.1,-309.067 5.1,-297.067 17.1,-285.067 196.1,-285.067 208.1,-297.067 208.1,-309.067 196.1,-321.067"/>
<path fill="#3247ff" stroke="#3247ff" stroke-width="2" d="M17.1,-321.067C11.1,-321.067 5.1,-315.067 5.1,-309.067"/>
<path fill="#3247ff" stroke="#3247ff" stroke-width="2" d="M5.1,-297.067C5.1,-291.067 11.1,-285.067 17.1,-285.067"/>
<path fill="#3247ff" stroke="#3247ff" stroke-width="2" d="M196.1,-285.067C202.1,-285.067 208.1,-291.067 208.1,-297.067"/>
<path fill="#3247ff" stroke="#3247ff" stroke-width="2" d="M208.1,-309.067C208.1,-315.067 202.1,-321.067 196.1,-321.067"/>
<polyline fill="none" stroke="white" stroke-width="2" points="196.1,-321.067 17.1,-321.067 "/>
<path fill="none" stroke="white" stroke-width="2" d="M17.1,-321.067C11.1,-321.067 5.1,-315.067 5.1,-309.067"/>
<polyline fill="none" stroke="white" stroke-width="2" points="5.1,-309.067 5.1,-297.067 "/>
<path fill="none" stroke="white" stroke-width="2" d="M5.1,-297.067C5.1,-291.067 11.1,-285.067 17.1,-285.067"/>
<polyline fill="none" stroke="white" stroke-width="2" points="17.1,-285.067 196.1,-285.067 "/>
<path fill="none" stroke="white" stroke-width="2" d="M196.1,-285.067C202.1,-285.067 208.1,-291.067 208.1,-297.067"/>
<polyline fill="none" stroke="white" stroke-width="2" points="208.1,-297.067 208.1,-309.067 "/>
<path fill="none" stroke="white" stroke-width="2" d="M208.1,-309.067C208.1,-315.067 202.1,-321.067 196.1,-321.067"/>
<text text-anchor="middle" x="106.6" y="-300.567" font-family="Helvetica,sans-Serif" font-size="10.00" fill="white">YBX1_FOS_NFYC_NFYA_NFYB_CEBPZ</text>
</a>
</g>
<!-- YBX1_FOS_NFYC_NFYA_NFYB_CEBPZ&#45;&gt;YBX1_FOS_NFYC_NFYA_NFYB_CEBPZ -->
<g id="edge4" class="edge"><title>YBX1_FOS_NFYC_NFYA_NFYB_CEBPZ&#45;&gt;YBX1_FOS_NFYC_NFYA_NFYB_CEBPZ</title>
<a xlink:title="NFYC: 1.015||remove22">
<path fill="none" stroke="#cb5dff" stroke-width="3" d="M209.018,-308.66C219.734,-307.568 226.6,-305.704 226.6,-303.067 226.6,-301.172 223.053,-299.676 217.079,-298.579"/>
<polygon fill="#cb5dff" stroke="#cb5dff" points="217.324,-295.786 209.018,-297.474 216.564,-301.334 217.324,-295.786"/>
</a>
</g>
<!-- ZBTB7A_ZBTB7C -->
<g id="node2" class="node"><title>ZBTB7A_ZBTB7C</title>
<a xlink:href="ZBTB7A_ZBTB7C.svg" xlink:title="Z&#45;value: 0.322||remove17">
<polygon fill="#b1b9ff" stroke="#b1b9ff" stroke-width="2" points="428.167,-244.683 355.167,-244.683 343.167,-232.683 343.167,-220.683 355.167,-208.683 428.167,-208.683 440.167,-220.683 440.167,-232.683 428.167,-244.683"/>
<path fill="#b1b9ff" stroke="#b1b9ff" stroke-width="2" d="M355.167,-244.683C349.167,-244.683 343.167,-238.683 343.167,-232.683"/>
<path fill="#b1b9ff" stroke="#b1b9ff" stroke-width="2" d="M343.167,-220.683C343.167,-214.683 349.167,-208.683 355.167,-208.683"/>
<path fill="#b1b9ff" stroke="#b1b9ff" stroke-width="2" d="M428.167,-208.683C434.167,-208.683 440.167,-214.683 440.167,-220.683"/>
<path fill="#b1b9ff" stroke="#b1b9ff" stroke-width="2" d="M440.167,-232.683C440.167,-238.683 434.167,-244.683 428.167,-244.683"/>
<polyline fill="none" stroke="white" stroke-width="2" points="428.167,-244.683 355.167,-244.683 "/>
<path fill="none" stroke="white" stroke-width="2" d="M355.167,-244.683C349.167,-244.683 343.167,-238.683 343.167,-232.683"/>
<polyline fill="none" stroke="white" stroke-width="2" points="343.167,-232.683 343.167,-220.683 "/>
<path fill="none" stroke="white" stroke-width="2" d="M343.167,-220.683C343.167,-214.683 349.167,-208.683 355.167,-208.683"/>
<polyline fill="none" stroke="white" stroke-width="2" points="355.167,-208.683 428.167,-208.683 "/>
<path fill="none" stroke="white" stroke-width="2" d="M428.167,-208.683C434.167,-208.683 440.167,-214.683 440.167,-220.683"/>
<polyline fill="none" stroke="white" stroke-width="2" points="440.167,-220.683 440.167,-232.683 "/>
<path fill="none" stroke="white" stroke-width="2" d="M440.167,-232.683C440.167,-238.683 434.167,-244.683 428.167,-244.683"/>
<text text-anchor="middle" x="391.667" y="-224.183" font-family="Helvetica,sans-Serif" font-size="10.00">ZBTB7A_ZBTB7C</text>
</a>
</g>
<!-- YBX1_FOS_NFYC_NFYA_NFYB_CEBPZ&#45;&gt;ZBTB7A_ZBTB7C -->
<g id="edge2" class="edge"><title>YBX1_FOS_NFYC_NFYA_NFYB_CEBPZ&#45;&gt;ZBTB7A_ZBTB7C</title>
<a xlink:title="ZBTB7A: 0.012||YBX1: 0.005||remove3root">
<path fill="none" stroke="#eecaff" stroke-width="3" d="M181.549,-281.949C229.322,-269.148 290.195,-252.837 334.063,-241.083"/>
<path fill="none" stroke="#eecbff" stroke-width="3" d="M182.067,-283.881C229.84,-271.08 290.713,-254.769 334.581,-243.015"/>
<polygon fill="#eecbff" stroke="#eecbff" points="180.799,-280.287 173.796,-285.062 182.248,-285.696 180.799,-280.287"/>
<polygon fill="#eecaff" stroke="#eecaff" points="335.306,-244.684 342.308,-239.909 333.856,-239.275 335.306,-244.684"/>
</a>
</g>
<!-- ETS1 -->
<g id="node5" class="node"><title>ETS1</title>
<a xlink:href="ETS1.svg" xlink:title="Z&#45;value: 0.924||remove15">
<polygon fill="#808dff" stroke="#808dff" stroke-width="2" points="362.567,-321.067 332.567,-321.067 320.567,-309.067 320.567,-297.067 332.567,-285.067 362.567,-285.067 374.567,-297.067 374.567,-309.067 362.567,-321.067"/>
<path fill="#808dff" stroke="#808dff" stroke-width="2" d="M332.567,-321.067C326.567,-321.067 320.567,-315.067 320.567,-309.067"/>
<path fill="#808dff" stroke="#808dff" stroke-width="2" d="M320.567,-297.067C320.567,-291.067 326.567,-285.067 332.567,-285.067"/>
<path fill="#808dff" stroke="#808dff" stroke-width="2" d="M362.567,-285.067C368.567,-285.067 374.567,-291.067 374.567,-297.067"/>
<path fill="#808dff" stroke="#808dff" stroke-width="2" d="M374.567,-309.067C374.567,-315.067 368.567,-321.067 362.567,-321.067"/>
<polyline fill="none" stroke="white" stroke-width="2" points="362.567,-321.067 332.567,-321.067 "/>
<path fill="none" stroke="white" stroke-width="2" d="M332.567,-321.067C326.567,-321.067 320.567,-315.067 320.567,-309.067"/>
<polyline fill="none" stroke="white" stroke-width="2" points="320.567,-309.067 320.567,-297.067 "/>
<path fill="none" stroke="white" stroke-width="2" d="M320.567,-297.067C320.567,-291.067 326.567,-285.067 332.567,-285.067"/>
<polyline fill="none" stroke="white" stroke-width="2" points="332.567,-285.067 362.567,-285.067 "/>
<path fill="none" stroke="white" stroke-width="2" d="M362.567,-285.067C368.567,-285.067 374.567,-291.067 374.567,-297.067"/>
<polyline fill="none" stroke="white" stroke-width="2" points="374.567,-297.067 374.567,-309.067 "/>
<path fill="none" stroke="white" stroke-width="2" d="M374.567,-309.067C374.567,-315.067 368.567,-321.067 362.567,-321.067"/>
<text text-anchor="middle" x="347.567" y="-300.567" font-family="Helvetica,sans-Serif" font-size="10.00">ETS1</text>
</a>
</g>
<!-- YBX1_FOS_NFYC_NFYA_NFYB_CEBPZ&#45;&gt;ETS1 -->
<g id="edge6" class="edge"><title>YBX1_FOS_NFYC_NFYA_NFYB_CEBPZ&#45;&gt;ETS1</title>
<a xlink:title="ETS1: 0.070||remove13root">
<path fill="none" stroke="#ecc4ff" stroke-width="3" d="M208.442,-303.067C245.459,-303.067 284.882,-303.067 312.275,-303.067"/>
<polygon fill="#ecc4ff" stroke="#ecc4ff" points="312.374,-305.867 320.374,-303.067 312.374,-300.267 312.374,-305.867"/>
</a>
</g>
<!-- SP3 -->
<g id="node7" class="node"><title>SP3</title>
<a xlink:href="SP3.svg" xlink:title="Z&#45;value: 1.634||remove7">
<polygon fill="#4759ff" stroke="#4759ff" stroke-width="2" points="77.5,-244.683 47.5,-244.683 35.5,-232.683 35.5,-220.683 47.5,-208.683 77.5,-208.683 89.5,-220.683 89.5,-232.683 77.5,-244.683"/>
<path fill="#4759ff" stroke="#4759ff" stroke-width="2" d="M47.5,-244.683C41.5,-244.683 35.5,-238.683 35.5,-232.683"/>
<path fill="#4759ff" stroke="#4759ff" stroke-width="2" d="M35.5,-220.683C35.5,-214.683 41.5,-208.683 47.5,-208.683"/>
<path fill="#4759ff" stroke="#4759ff" stroke-width="2" d="M77.5,-208.683C83.5,-208.683 89.5,-214.683 89.5,-220.683"/>
<path fill="#4759ff" stroke="#4759ff" stroke-width="2" d="M89.5,-232.683C89.5,-238.683 83.5,-244.683 77.5,-244.683"/>
<polyline fill="none" stroke="white" stroke-width="2" points="77.5,-244.683 47.5,-244.683 "/>
<path fill="none" stroke="white" stroke-width="2" d="M47.5,-244.683C41.5,-244.683 35.5,-238.683 35.5,-232.683"/>
<polyline fill="none" stroke="white" stroke-width="2" points="35.5,-232.683 35.5,-220.683 "/>
<path fill="none" stroke="white" stroke-width="2" d="M35.5,-220.683C35.5,-214.683 41.5,-208.683 47.5,-208.683"/>
<polyline fill="none" stroke="white" stroke-width="2" points="47.5,-208.683 77.5,-208.683 "/>
<path fill="none" stroke="white" stroke-width="2" d="M77.5,-208.683C83.5,-208.683 89.5,-214.683 89.5,-220.683"/>
<polyline fill="none" stroke="white" stroke-width="2" points="89.5,-220.683 89.5,-232.683 "/>
<path fill="none" stroke="white" stroke-width="2" d="M89.5,-232.683C89.5,-238.683 83.5,-244.683 77.5,-244.683"/>
<text text-anchor="middle" x="62.5" y="-224.183" font-family="Helvetica,sans-Serif" font-size="10.00" fill="white">SP3</text>
</a>
</g>
<!-- YBX1_FOS_NFYC_NFYA_NFYB_CEBPZ&#45;&gt;SP3 -->
<g id="edge8" class="edge"><title>YBX1_FOS_NFYC_NFYA_NFYB_CEBPZ&#45;&gt;SP3</title>
<a xlink:title="SP3: 0.034||NFYC: 0.107||NFYA: 0.095||CEBPZ: 0.071||FOS: 0.018||remove7">
<path fill="none" stroke="#edc8ff" stroke-width="3" d="M91.1571,-278.319C86.3561,-270.003 81.0191,-260.759 76.2176,-252.443"/>
<path fill="none" stroke="#eac0ff" stroke-width="3" d="M92.8892,-277.319C88.0882,-269.003 82.7511,-259.759 77.9496,-251.443"/>
<polygon fill="#eac0ff" stroke="#eac0ff" points="89.724,-279.437 96.1489,-284.965 94.5737,-276.637 89.724,-279.437"/>
<polygon fill="#edc8ff" stroke="#edc8ff" points="79.4538,-250.448 73.0289,-244.92 74.6041,-253.248 79.4538,-250.448"/>
</a>
</g>
<!-- HOXB2_UNCX_HOXD3 -->
<g id="node9" class="node"><title>HOXB2_UNCX_HOXD3</title>
<a xlink:href="HOXB2_UNCX_HOXD3.svg" xlink:title="Z&#45;value: 0.563||remove21">
<polygon fill="#9ea7ff" stroke="#9ea7ff" stroke-width="2" points="112.75,-156.483 12.25,-156.483 0.25,-144.483 0.25,-132.483 12.25,-120.483 112.75,-120.483 124.75,-132.483 124.75,-144.483 112.75,-156.483"/>
<path fill="#9ea7ff" stroke="#9ea7ff" stroke-width="2" d="M12.25,-156.483C6.25,-156.483 0.25,-150.483 0.25,-144.483"/>
<path fill="#9ea7ff" stroke="#9ea7ff" stroke-width="2" d="M0.25,-132.483C0.25,-126.483 6.25,-120.483 12.25,-120.483"/>
<path fill="#9ea7ff" stroke="#9ea7ff" stroke-width="2" d="M112.75,-120.483C118.75,-120.483 124.75,-126.483 124.75,-132.483"/>
<path fill="#9ea7ff" stroke="#9ea7ff" stroke-width="2" d="M124.75,-144.483C124.75,-150.483 118.75,-156.483 112.75,-156.483"/>
<polyline fill="none" stroke="white" stroke-width="2" points="112.75,-156.483 12.25,-156.483 "/>
<path fill="none" stroke="white" stroke-width="2" d="M12.25,-156.483C6.25,-156.483 0.25,-150.483 0.25,-144.483"/>
<polyline fill="none" stroke="white" stroke-width="2" points="0.25,-144.483 0.25,-132.483 "/>
<path fill="none" stroke="white" stroke-width="2" d="M0.25,-132.483C0.25,-126.483 6.25,-120.483 12.25,-120.483"/>
<polyline fill="none" stroke="white" stroke-width="2" points="12.25,-120.483 112.75,-120.483 "/>
<path fill="none" stroke="white" stroke-width="2" d="M112.75,-120.483C118.75,-120.483 124.75,-126.483 124.75,-132.483"/>
<polyline fill="none" stroke="white" stroke-width="2" points="124.75,-132.483 124.75,-144.483 "/>
<path fill="none" stroke="white" stroke-width="2" d="M124.75,-144.483C124.75,-150.483 118.75,-156.483 112.75,-156.483"/>
<text text-anchor="middle" x="62.5" y="-135.983" font-family="Helvetica,sans-Serif" font-size="10.00">HOXB2_UNCX_HOXD3</text>
</a>
</g>
<!-- YBX1_FOS_NFYC_NFYA_NFYB_CEBPZ&#45;&gt;HOXB2_UNCX_HOXD3 -->
<g id="edge10" class="edge"><title>YBX1_FOS_NFYC_NFYA_NFYB_CEBPZ&#45;&gt;HOXB2_UNCX_HOXD3</title>
<a xlink:title="UNCX: 0.120||remove20root">
<path fill="none" stroke="#eabeff" stroke-width="3" d="M105.857,-284.802C104.672,-264.997 101.621,-232.623 93.82,-205.803 89.6461,-191.453 82.829,-176.294 76.6189,-164.001"/>
<polygon fill="#eabeff" stroke="#eabeff" points="79.0277,-162.563 72.8597,-156.75 74.0562,-165.141 79.0277,-162.563"/>
</a>
</g>
<!-- EPAS1_BCL3 -->
<g id="node11" class="node"><title>EPAS1_BCL3</title>
<a xlink:href="EPAS1_BCL3.svg" xlink:title="Z&#45;value: 0.784||remove18">
<polygon fill="#8c97ff" stroke="#8c97ff" stroke-width="2" points="133.85,-80.1 79.35,-80.1 67.35,-68.1 67.35,-56.1 79.35,-44.1 133.85,-44.1 145.85,-56.1 145.85,-68.1 133.85,-80.1"/>
<path fill="#8c97ff" stroke="#8c97ff" stroke-width="2" d="M79.35,-80.1C73.35,-80.1 67.35,-74.1 67.35,-68.1"/>
<path fill="#8c97ff" stroke="#8c97ff" stroke-width="2" d="M67.35,-56.1C67.35,-50.1 73.35,-44.1 79.35,-44.1"/>
<path fill="#8c97ff" stroke="#8c97ff" stroke-width="2" d="M133.85,-44.1C139.85,-44.1 145.85,-50.1 145.85,-56.1"/>
<path fill="#8c97ff" stroke="#8c97ff" stroke-width="2" d="M145.85,-68.1C145.85,-74.1 139.85,-80.1 133.85,-80.1"/>
<polyline fill="none" stroke="white" stroke-width="2" points="133.85,-80.1 79.35,-80.1 "/>
<path fill="none" stroke="white" stroke-width="2" d="M79.35,-80.1C73.35,-80.1 67.35,-74.1 67.35,-68.1"/>
<polyline fill="none" stroke="white" stroke-width="2" points="67.35,-68.1 67.35,-56.1 "/>
<path fill="none" stroke="white" stroke-width="2" d="M67.35,-56.1C67.35,-50.1 73.35,-44.1 79.35,-44.1"/>
<polyline fill="none" stroke="white" stroke-width="2" points="79.35,-44.1 133.85,-44.1 "/>
<path fill="none" stroke="white" stroke-width="2" d="M133.85,-44.1C139.85,-44.1 145.85,-50.1 145.85,-56.1"/>
<polyline fill="none" stroke="white" stroke-width="2" points="145.85,-56.1 145.85,-68.1 "/>
<path fill="none" stroke="white" stroke-width="2" d="M145.85,-68.1C145.85,-74.1 139.85,-80.1 133.85,-80.1"/>
<text text-anchor="middle" x="106.6" y="-59.6" font-family="Helvetica,sans-Serif" font-size="10.00">EPAS1_BCL3</text>
</a>
</g>
<!-- YBX1_FOS_NFYC_NFYA_NFYB_CEBPZ&#45;&gt;EPAS1_BCL3 -->
<g id="edge12" class="edge"><title>YBX1_FOS_NFYC_NFYA_NFYB_CEBPZ&#45;&gt;EPAS1_BCL3</title>
<a xlink:title="EPAS1: 0.035||YBX1: 0.026||remove6root">
<path fill="none" stroke="#edc8ff" stroke-width="3" d="M115.837,-277.008C128.676,-241.02 147.588,-173.565 134.028,-117.838 131.568,-107.554 126.721,-96.8463 121.768,-87.7269"/>
<path fill="none" stroke="#edc9ff" stroke-width="3" d="M117.721,-277.68C130.602,-241.56 149.514,-174.105 135.972,-117.369 133.39,-106.729 128.543,-96.0216 123.526,-86.7728"/>
<polygon fill="#edc9ff" stroke="#edc9ff" points="114.109,-276.492 113.982,-284.967 119.367,-278.421 114.109,-276.492"/>
<polygon fill="#edc8ff" stroke="#edc8ff" points="125.051,-85.8131 118.661,-80.2447 120.184,-88.5827 125.051,-85.8131"/>
</a>
</g>
<!-- HMX1 -->
<g id="node13" class="node"><title>HMX1</title>
<a xlink:href="HMX1.svg" xlink:title="Z&#45;value: 0.349||remove24">
<polygon fill="#ffafaf" stroke="#ffafaf" stroke-width="2" points="242.083,-200.583 212.083,-200.583 200.083,-188.583 200.083,-176.583 212.083,-164.583 242.083,-164.583 254.083,-176.583 254.083,-188.583 242.083,-200.583"/>
<path fill="#ffafaf" stroke="#ffafaf" stroke-width="2" d="M212.083,-200.583C206.083,-200.583 200.083,-194.583 200.083,-188.583"/>
<path fill="#ffafaf" stroke="#ffafaf" stroke-width="2" d="M200.083,-176.583C200.083,-170.583 206.083,-164.583 212.083,-164.583"/>
<path fill="#ffafaf" stroke="#ffafaf" stroke-width="2" d="M242.083,-164.583C248.083,-164.583 254.083,-170.583 254.083,-176.583"/>
<path fill="#ffafaf" stroke="#ffafaf" stroke-width="2" d="M254.083,-188.583C254.083,-194.583 248.083,-200.583 242.083,-200.583"/>
<polyline fill="none" stroke="white" stroke-width="2" points="242.083,-200.583 212.083,-200.583 "/>
<path fill="none" stroke="white" stroke-width="2" d="M212.083,-200.583C206.083,-200.583 200.083,-194.583 200.083,-188.583"/>
<polyline fill="none" stroke="white" stroke-width="2" points="200.083,-188.583 200.083,-176.583 "/>
<path fill="none" stroke="white" stroke-width="2" d="M200.083,-176.583C200.083,-170.583 206.083,-164.583 212.083,-164.583"/>
<polyline fill="none" stroke="white" stroke-width="2" points="212.083,-164.583 242.083,-164.583 "/>
<path fill="none" stroke="white" stroke-width="2" d="M242.083,-164.583C248.083,-164.583 254.083,-170.583 254.083,-176.583"/>
<polyline fill="none" stroke="white" stroke-width="2" points="254.083,-176.583 254.083,-188.583 "/>
<path fill="none" stroke="white" stroke-width="2" d="M254.083,-188.583C254.083,-194.583 248.083,-200.583 242.083,-200.583"/>
<text text-anchor="middle" x="227.083" y="-180.083" font-family="Helvetica,sans-Serif" font-size="10.00">HMX1</text>
</a>
</g>
<!-- YBX1_FOS_NFYC_NFYA_NFYB_CEBPZ&#45;&gt;HMX1 -->
<g id="edge14" class="edge"><title>YBX1_FOS_NFYC_NFYA_NFYB_CEBPZ&#45;&gt;HMX1</title>
<a xlink:title="HMX1: 0.215||YBX1: 0.048||remove22root">
<path fill="none" stroke="#b4bcff" stroke-width="3" d="M129.827,-278.426C150.919,-257.334 181.481,-226.771 202.543,-205.71"/>
<path fill="none" stroke="#ffc6c6" stroke-width="3" d="M131.241,-279.84C152.333,-258.748 182.896,-228.186 203.957,-207.124"/>
<polygon fill="#ffc6c6" stroke="#ffc6c6" points="128.315,-277.393 124.638,-285.029 132.274,-281.352 128.315,-277.393"/>
<polygon fill="#b4bcff" stroke="#b4bcff" points="205.246,-208.381 208.923,-200.744 201.286,-204.421 205.246,-208.381"/>
</a>
</g>
<!-- RCOR1_MTA3 -->
<g id="node15" class="node"><title>RCOR1_MTA3</title>
<a xlink:href="RCOR1_MTA3.svg" xlink:title="Z&#45;value: 1.731||remove23">
<polygon fill="#3f52ff" stroke="#3f52ff" stroke-width="2" points="212.233,-36 153.733,-36 141.733,-24 141.733,-12 153.733,-3.19744e-14 212.233,-3.19744e-14 224.233,-12 224.233,-24 212.233,-36"/>
<path fill="#3f52ff" stroke="#3f52ff" stroke-width="2" d="M153.733,-36C147.733,-36 141.733,-30 141.733,-24"/>
<path fill="#3f52ff" stroke="#3f52ff" stroke-width="2" d="M141.733,-12C141.733,-6 147.733,-3.19744e-14 153.733,-3.19744e-14"/>
<path fill="#3f52ff" stroke="#3f52ff" stroke-width="2" d="M212.233,-3.19744e-14C218.233,-3.19744e-14 224.233,-6 224.233,-12"/>
<path fill="#3f52ff" stroke="#3f52ff" stroke-width="2" d="M224.233,-24C224.233,-30 218.233,-36 212.233,-36"/>
<polyline fill="none" stroke="white" stroke-width="2" points="212.233,-36 153.733,-36 "/>
<path fill="none" stroke="white" stroke-width="2" d="M153.733,-36C147.733,-36 141.733,-30 141.733,-24"/>
<polyline fill="none" stroke="white" stroke-width="2" points="141.733,-24 141.733,-12 "/>
<path fill="none" stroke="white" stroke-width="2" d="M141.733,-12C141.733,-6 147.733,-3.19744e-14 153.733,-3.19744e-14"/>
<polyline fill="none" stroke="white" stroke-width="2" points="153.733,-3.19744e-14 212.233,-3.19744e-14 "/>
<path fill="none" stroke="white" stroke-width="2" d="M212.233,-3.19744e-14C218.233,-3.19744e-14 224.233,-6 224.233,-12"/>
<polyline fill="none" stroke="white" stroke-width="2" points="224.233,-12 224.233,-24 "/>
<path fill="none" stroke="white" stroke-width="2" d="M224.233,-24C224.233,-30 218.233,-36 212.233,-36"/>
<text text-anchor="middle" x="182.983" y="-15.5" font-family="Helvetica,sans-Serif" font-size="10.00" fill="white">RCOR1_MTA3</text>
</a>
</g>
<!-- YBX1_FOS_NFYC_NFYA_NFYB_CEBPZ&#45;&gt;RCOR1_MTA3 -->
<g id="edge16" class="edge"><title>YBX1_FOS_NFYC_NFYA_NFYB_CEBPZ&#45;&gt;RCOR1_MTA3</title>
<a xlink:title="RCOR1: 0.148||NFYB: 0.666||NFYC: 0.172||YBX1: 0.144||remove22">
<path fill="none" stroke="#e9bbff" stroke-width="3" d="M112.63,-276.699C127.187,-222.372 160.583,-97.7344 175.085,-43.6133"/>
<path fill="none" stroke="#d783ff" stroke-width="3" d="M114.562,-277.216C129.119,-222.89 162.515,-98.252 177.017,-44.1309"/>
<polygon fill="#d783ff" stroke="#d783ff" points="110.86,-276.349 111.494,-284.801 116.27,-277.798 110.86,-276.349"/>
<polygon fill="#e9bbff" stroke="#e9bbff" points="178.764,-44.5659 178.13,-36.1137 173.355,-43.1164 178.764,-44.5659"/>
</a>
</g>
<!-- ETS1&#45;&gt;SP3 -->
<g id="edge54" class="edge"><title>ETS1&#45;&gt;SP3</title>
<a xlink:title="SP3: 0.320||remove7">
<path fill="none" stroke="#e3a9ff" stroke-width="3" d="M320.491,-295.812C268.592,-281.906 155.155,-251.51 97.5563,-236.077"/>
<polygon fill="#e3a9ff" stroke="#e3a9ff" points="98.2638,-233.368 89.8117,-234.002 96.8144,-238.777 98.2638,-233.368"/>
</a>
</g>
<!-- E2F4 -->
<g id="node18" class="node"><title>E2F4</title>
<a xlink:href="E2F4.svg" xlink:title="Z&#45;value: 0.397||remove14">
<polygon fill="#abb4ff" stroke="#abb4ff" stroke-width="2" points="286.183,-365.167 256.183,-365.167 244.183,-353.167 244.183,-341.167 256.183,-329.167 286.183,-329.167 298.183,-341.167 298.183,-353.167 286.183,-365.167"/>
<path fill="#abb4ff" stroke="#abb4ff" stroke-width="2" d="M256.183,-365.167C250.183,-365.167 244.183,-359.167 244.183,-353.167"/>
<path fill="#abb4ff" stroke="#abb4ff" stroke-width="2" d="M244.183,-341.167C244.183,-335.167 250.183,-329.167 256.183,-329.167"/>
<path fill="#abb4ff" stroke="#abb4ff" stroke-width="2" d="M286.183,-329.167C292.183,-329.167 298.183,-335.167 298.183,-341.167"/>
<path fill="#abb4ff" stroke="#abb4ff" stroke-width="2" d="M298.183,-353.167C298.183,-359.167 292.183,-365.167 286.183,-365.167"/>
<polyline fill="none" stroke="white" stroke-width="2" points="286.183,-365.167 256.183,-365.167 "/>
<path fill="none" stroke="white" stroke-width="2" d="M256.183,-365.167C250.183,-365.167 244.183,-359.167 244.183,-353.167"/>
<polyline fill="none" stroke="white" stroke-width="2" points="244.183,-353.167 244.183,-341.167 "/>
<path fill="none" stroke="white" stroke-width="2" d="M244.183,-341.167C244.183,-335.167 250.183,-329.167 256.183,-329.167"/>
<polyline fill="none" stroke="white" stroke-width="2" points="256.183,-329.167 286.183,-329.167 "/>
<path fill="none" stroke="white" stroke-width="2" d="M286.183,-329.167C292.183,-329.167 298.183,-335.167 298.183,-341.167"/>
<polyline fill="none" stroke="white" stroke-width="2" points="298.183,-341.167 298.183,-353.167 "/>
<path fill="none" stroke="white" stroke-width="2" d="M298.183,-353.167C298.183,-359.167 292.183,-365.167 286.183,-365.167"/>
<text text-anchor="middle" x="271.183" y="-344.667" font-family="Helvetica,sans-Serif" font-size="10.00">E2F4</text>
</a>
</g>
<!-- ETS1&#45;&gt;E2F4 -->
<g id="edge52" class="edge"><title>ETS1&#45;&gt;E2F4</title>
<a xlink:title="E2F4: 0.127||remove14">
<path fill="none" stroke="#eabeff" stroke-width="3" d="M320.422,-318.739C315.582,-321.534 310.483,-324.478 305.474,-327.369"/>
<polygon fill="#eabeff" stroke="#eabeff" points="303.769,-325.12 298.241,-331.545 306.569,-329.97 303.769,-325.12"/>
</a>
</g>
<!-- SP3&#45;&gt;ZBTB7A_ZBTB7C -->
<g id="edge40" class="edge"><title>SP3&#45;&gt;ZBTB7A_ZBTB7C</title>
<a xlink:title="ZBTB7C: 0.011||remove2root">
<path fill="none" stroke="#eecaff" stroke-width="3" d="M89.7172,-226.683C143.259,-226.683 263.276,-226.683 334.828,-226.683"/>
<polygon fill="#eecaff" stroke="#eecaff" points="334.878,-229.484 342.878,-226.683 334.878,-223.884 334.878,-229.484"/>
</a>
</g>
<!-- SP3&#45;&gt;HOXB2_UNCX_HOXD3 -->
<g id="edge44" class="edge"><title>SP3&#45;&gt;HOXB2_UNCX_HOXD3</title>
<a xlink:title="HOXD3: 0.060||remove7">
<path fill="none" stroke="#ecc5ff" stroke-width="3" d="M62.5,-208.408C62.5,-195.873 62.5,-179.039 62.5,-165.029"/>
<polygon fill="#ecc5ff" stroke="#ecc5ff" points="65.3001,-164.735 62.5,-156.735 59.7001,-164.735 65.3001,-164.735"/>
</a>
</g>
<!-- SP3&#45;&gt;EPAS1_BCL3 -->
<g id="edge46" class="edge"><title>SP3&#45;&gt;EPAS1_BCL3</title>
<a xlink:title="BCL3: 1.407||EPAS1: 0.059||SP3: 0.055||remove7">
<path fill="none" stroke="#bd32ff" stroke-width="3" d="M95.6652,-204.22C110.411,-192.736 126.26,-177.084 134.083,-158.964 144.399,-136.024 133.51,-107.483 122.42,-87.5975"/>
<path fill="none" stroke="#ecc6ff" stroke-width="3" d="M96.8946,-205.797C111.817,-194.159 127.665,-178.507 135.917,-159.763 146.267,-135.311 135.379,-106.77 124.167,-86.6241"/>
<polygon fill="#ecc6ff" stroke="#ecc6ff" points="94.2978,-202.994 89.5673,-210.027 97.6511,-207.479 94.2978,-202.994"/>
<polygon fill="#bd32ff" stroke="#bd32ff" points="125.673,-85.6332 119.213,-80.1471 120.842,-88.4649 125.673,-85.6332"/>
</a>
</g>
<!-- SP3&#45;&gt;HMX1 -->
<g id="edge48" class="edge"><title>SP3&#45;&gt;HMX1</title>
<a xlink:title="HMX1: 0.049||remove7root">
<path fill="none" stroke="#c6ccff" stroke-width="3" d="M89.6776,-219.401C117.671,-211.9 161.411,-200.18 192.001,-191.984"/>
<polygon fill="#c6ccff" stroke="#c6ccff" points="192.863,-194.652 199.865,-189.876 191.413,-189.243 192.863,-194.652"/>
</a>
</g>
<!-- DLX5 -->
<g id="node20" class="node"><title>DLX5</title>
<a xlink:href="DLX5.svg" xlink:title="Z&#45;value: 0.229||remove9">
<polygon fill="#b9c0ff" stroke="#b9c0ff" stroke-width="2" points="286.183,-36 256.183,-36 244.183,-24 244.183,-12 256.183,3.19744e-14 286.183,3.19744e-14 298.183,-12 298.183,-24 286.183,-36"/>
<path fill="#b9c0ff" stroke="#b9c0ff" stroke-width="2" d="M256.183,-36C250.183,-36 244.183,-30 244.183,-24"/>
<path fill="#b9c0ff" stroke="#b9c0ff" stroke-width="2" d="M244.183,-12C244.183,-6 250.183,3.19744e-14 256.183,3.19744e-14"/>
<path fill="#b9c0ff" stroke="#b9c0ff" stroke-width="2" d="M286.183,3.19744e-14C292.183,3.19744e-14 298.183,-6 298.183,-12"/>
<path fill="#b9c0ff" stroke="#b9c0ff" stroke-width="2" d="M298.183,-24C298.183,-30 292.183,-36 286.183,-36"/>
<polyline fill="none" stroke="white" stroke-width="2" points="286.183,-36 256.183,-36 "/>
<path fill="none" stroke="white" stroke-width="2" d="M256.183,-36C250.183,-36 244.183,-30 244.183,-24"/>
<polyline fill="none" stroke="white" stroke-width="2" points="244.183,-24 244.183,-12 "/>
<path fill="none" stroke="white" stroke-width="2" d="M244.183,-12C244.183,-6 250.183,3.19744e-14 256.183,3.19744e-14"/>
<polyline fill="none" stroke="white" stroke-width="2" points="256.183,3.19744e-14 286.183,3.19744e-14 "/>
<path fill="none" stroke="white" stroke-width="2" d="M286.183,3.19744e-14C292.183,3.19744e-14 298.183,-6 298.183,-12"/>
<polyline fill="none" stroke="white" stroke-width="2" points="298.183,-12 298.183,-24 "/>
<path fill="none" stroke="white" stroke-width="2" d="M298.183,-24C298.183,-30 292.183,-36 286.183,-36"/>
<text text-anchor="middle" x="271.183" y="-15.5" font-family="Helvetica,sans-Serif" font-size="10.00">DLX5</text>
</a>
</g>
<!-- SP3&#45;&gt;DLX5 -->
<g id="edge42" class="edge"><title>SP3&#45;&gt;DLX5</title>
<a xlink:title="DLX5: 0.220||remove7">
<path fill="none" stroke="#e7b4ff" stroke-width="3" d="M82.7843,-208.405C97.4799,-195.03 117.718,-176.331 135,-159.363 175.919,-119.189 221.885,-70.7509 248.583,-42.2708"/>
<polygon fill="#e7b4ff" stroke="#e7b4ff" points="250.877,-43.9177 254.299,-36.1636 246.788,-40.0909 250.877,-43.9177"/>
</a>
</g>
<!-- ESRRB_ESRRG -->
<g id="node27" class="node"><title>ESRRB_ESRRG</title>
<a xlink:href="ESRRB_ESRRG.svg" xlink:title="Z&#45;value: 0.825||remove16">
<polygon fill="#8894ff" stroke="#8894ff" stroke-width="2" points="217.233,-365.167 148.733,-365.167 136.733,-353.167 136.733,-341.167 148.733,-329.167 217.233,-329.167 229.233,-341.167 229.233,-353.167 217.233,-365.167"/>
<path fill="#8894ff" stroke="#8894ff" stroke-width="2" d="M148.733,-365.167C142.733,-365.167 136.733,-359.167 136.733,-353.167"/>
<path fill="#8894ff" stroke="#8894ff" stroke-width="2" d="M136.733,-341.167C136.733,-335.167 142.733,-329.167 148.733,-329.167"/>
<path fill="#8894ff" stroke="#8894ff" stroke-width="2" d="M217.233,-329.167C223.233,-329.167 229.233,-335.167 229.233,-341.167"/>
<path fill="#8894ff" stroke="#8894ff" stroke-width="2" d="M229.233,-353.167C229.233,-359.167 223.233,-365.167 217.233,-365.167"/>
<polyline fill="none" stroke="white" stroke-width="2" points="217.233,-365.167 148.733,-365.167 "/>
<path fill="none" stroke="white" stroke-width="2" d="M148.733,-365.167C142.733,-365.167 136.733,-359.167 136.733,-353.167"/>
<polyline fill="none" stroke="white" stroke-width="2" points="136.733,-353.167 136.733,-341.167 "/>
<path fill="none" stroke="white" stroke-width="2" d="M136.733,-341.167C136.733,-335.167 142.733,-329.167 148.733,-329.167"/>
<polyline fill="none" stroke="white" stroke-width="2" points="148.733,-329.167 217.233,-329.167 "/>
<path fill="none" stroke="white" stroke-width="2" d="M217.233,-329.167C223.233,-329.167 229.233,-335.167 229.233,-341.167"/>
<polyline fill="none" stroke="white" stroke-width="2" points="229.233,-341.167 229.233,-353.167 "/>
<path fill="none" stroke="white" stroke-width="2" d="M229.233,-353.167C229.233,-359.167 223.233,-365.167 217.233,-365.167"/>
<text text-anchor="middle" x="182.983" y="-344.667" font-family="Helvetica,sans-Serif" font-size="10.00">ESRRB_ESRRG</text>
</a>
</g>
<!-- SP3&#45;&gt;ESRRB_ESRRG -->
<g id="edge50" class="edge"><title>SP3&#45;&gt;ESRRB_ESRRG</title>
<a xlink:title="ESRRG: 0.098||remove7">
<path fill="none" stroke="#ebc1ff" stroke-width="3" d="M89.6374,-226.968C127.222,-229.005 193.981,-238.919 224.92,-282.187 234.45,-295.515 234.498,-305.395 225.232,-322.096"/>
<polygon fill="#ebc1ff" stroke="#ebc1ff" points="222.731,-320.823 221.05,-329.131 227.544,-323.685 222.731,-320.823"/>
</a>
</g>
<!-- HOXB2_UNCX_HOXD3&#45;&gt;HOXB2_UNCX_HOXD3 -->
<g id="edge62" class="edge"><title>HOXB2_UNCX_HOXD3&#45;&gt;HOXB2_UNCX_HOXD3</title>
<a xlink:title="UNCX: 0.135||remove21">
<path fill="none" stroke="#e9bdff" stroke-width="3" d="M124.888,-144.757C135.309,-143.879 142.5,-141.788 142.5,-138.483 142.5,-136.108 138.785,-134.36 132.826,-133.238"/>
<polygon fill="#e9bdff" stroke="#e9bdff" points="133.182,-130.461 124.888,-132.21 132.462,-136.015 133.182,-130.461"/>
</a>
</g>
<!-- HOXB2_UNCX_HOXD3&#45;&gt;HMX1 -->
<g id="edge64" class="edge"><title>HOXB2_UNCX_HOXD3&#45;&gt;HMX1</title>
<a xlink:title="HMX1: 0.123||remove21root">
<path fill="none" stroke="#bec5ff" stroke-width="3" d="M125.191,-155.282C147.766,-161.33 172.429,-167.939 191.837,-173.139"/>
<polygon fill="#bec5ff" stroke="#bec5ff" points="191.359,-175.91 199.811,-175.276 192.808,-170.501 191.359,-175.91"/>
</a>
</g>
<!-- HOXB2_UNCX_HOXD3&#45;&gt;ESRRB_ESRRG -->
<g id="edge66" class="edge"><title>HOXB2_UNCX_HOXD3&#45;&gt;ESRRB_ESRRG</title>
<a xlink:title="ESRRG: 0.002||remove0root">
<path fill="none" stroke="#eecbff" stroke-width="3" d="M96.6218,-156.687C136.004,-179.868 198.71,-224 224.92,-282.187 231.649,-297.126 233.842,-305.773 225.116,-322.162"/>
<polygon fill="#eecbff" stroke="#eecbff" points="222.664,-320.81 221.05,-329.131 227.5,-323.633 222.664,-320.81"/>
</a>
</g>
<!-- EPAS1_BCL3&#45;&gt;HMX1 -->
<g id="edge56" class="edge"><title>EPAS1_BCL3&#45;&gt;HMX1</title>
<a xlink:title="HMX1: 0.104||remove18root">
<path fill="none" stroke="#c0c6ff" stroke-width="3" d="M124.638,-80.1376C145.488,-100.988 179.894,-135.394 203.013,-158.513"/>
<polygon fill="#c0c6ff" stroke="#c0c6ff" points="201.286,-160.746 208.923,-164.423 205.246,-156.786 201.286,-160.746"/>
</a>
</g>
<!-- EPAS1_BCL3&#45;&gt;ESRRB_ESRRG -->
<g id="edge58" class="edge"><title>EPAS1_BCL3&#45;&gt;ESRRB_ESRRG</title>
<a xlink:title="ESRRG: 0.041||BCL3: 0.904||remove16">
<path fill="none" stroke="#edc7ff" stroke-width="3" d="M126.229,-86.4526C154.45,-125.587 206.413,-204.808 225.89,-281.943 229.766,-297.463 234.008,-305.382 226.114,-322.218"/>
<path fill="none" stroke="#cf69ff" stroke-width="3" d="M124.607,-87.6224C152.777,-126.684 204.741,-205.905 223.95,-282.431 228.003,-298.408 232.245,-306.327 224.323,-321.328"/>
<polygon fill="#cf69ff" stroke="#cf69ff" points="127.418,-85.0286 120.443,-80.2136 122.893,-88.3276 127.418,-85.0286"/>
<polygon fill="#edc7ff" stroke="#edc7ff" points="222.557,-320.79 221.05,-329.131 227.43,-323.551 222.557,-320.79"/>
</a>
</g>
<!-- TFDP1 -->
<g id="node29" class="node"><title>TFDP1</title>
<a xlink:href="TFDP1.svg" xlink:title="Z&#45;value: 1.163||remove11">
<polygon fill="#6d7cff" stroke="#6d7cff" stroke-width="2" points="362.567,-80.1 332.567,-80.1 320.567,-68.1 320.567,-56.1 332.567,-44.1 362.567,-44.1 374.567,-56.1 374.567,-68.1 362.567,-80.1"/>
<path fill="#6d7cff" stroke="#6d7cff" stroke-width="2" d="M332.567,-80.1C326.567,-80.1 320.567,-74.1 320.567,-68.1"/>
<path fill="#6d7cff" stroke="#6d7cff" stroke-width="2" d="M320.567,-56.1C320.567,-50.1 326.567,-44.1 332.567,-44.1"/>
<path fill="#6d7cff" stroke="#6d7cff" stroke-width="2" d="M362.567,-44.1C368.567,-44.1 374.567,-50.1 374.567,-56.1"/>
<path fill="#6d7cff" stroke="#6d7cff" stroke-width="2" d="M374.567,-68.1C374.567,-74.1 368.567,-80.1 362.567,-80.1"/>
<polyline fill="none" stroke="white" stroke-width="2" points="362.567,-80.1 332.567,-80.1 "/>
<path fill="none" stroke="white" stroke-width="2" d="M332.567,-80.1C326.567,-80.1 320.567,-74.1 320.567,-68.1"/>
<polyline fill="none" stroke="white" stroke-width="2" points="320.567,-68.1 320.567,-56.1 "/>
<path fill="none" stroke="white" stroke-width="2" d="M320.567,-56.1C320.567,-50.1 326.567,-44.1 332.567,-44.1"/>
<polyline fill="none" stroke="white" stroke-width="2" points="332.567,-44.1 362.567,-44.1 "/>
<path fill="none" stroke="white" stroke-width="2" d="M362.567,-44.1C368.567,-44.1 374.567,-50.1 374.567,-56.1"/>
<polyline fill="none" stroke="white" stroke-width="2" points="374.567,-56.1 374.567,-68.1 "/>
<path fill="none" stroke="white" stroke-width="2" d="M374.567,-68.1C374.567,-74.1 368.567,-80.1 362.567,-80.1"/>
<text text-anchor="middle" x="347.567" y="-59.6" font-family="Helvetica,sans-Serif" font-size="10.00" fill="white">TFDP1</text>
</a>
</g>
<!-- EPAS1_BCL3&#45;&gt;TFDP1 -->
<g id="edge60" class="edge"><title>EPAS1_BCL3&#45;&gt;TFDP1</title>
<a xlink:title="TFDP1: 0.255||BCL3: 0.220||remove11">
<path fill="none" stroke="#e5b0ff" stroke-width="3" d="M153.886,-61.1C200.343,-61.1 270.18,-61.1 312.076,-61.1"/>
<path fill="none" stroke="#e7b4ff" stroke-width="3" d="M153.886,-63.1C200.343,-63.1 270.18,-63.1 312.076,-63.1"/>
<polygon fill="#e7b4ff" stroke="#e7b4ff" points="153.852,-59.3001 145.852,-62.1 153.852,-64.9001 153.852,-59.3001"/>
<polygon fill="#e5b0ff" stroke="#e5b0ff" points="312.32,-64.9001 320.32,-62.1 312.32,-59.3001 312.32,-64.9001"/>
</a>
</g>
<!-- HMX1&#45;&gt;ZBTB7A_ZBTB7C -->
<g id="edge68" class="edge"><title>HMX1&#45;&gt;ZBTB7A_ZBTB7C</title>
<a xlink:title="ZBTB7C: 0.093||remove17root">
<path fill="none" stroke="#ffc1c1" stroke-width="3" d="M254.261,-189.866C276.199,-195.744 307.809,-204.214 335.18,-211.548"/>
<polygon fill="#ffc1c1" stroke="#ffc1c1" points="334.697,-214.317 343.149,-213.683 336.146,-208.908 334.697,-214.317"/>
</a>
</g>
<!-- HMX1&#45;&gt;ETS1 -->
<g id="edge72" class="edge"><title>HMX1&#45;&gt;ETS1</title>
<a xlink:title="ETS1: 0.074||remove15root">
<path fill="none" stroke="#ffc3c3" stroke-width="3" d="M245.121,-200.621C265.971,-221.471 300.377,-255.877 323.496,-278.996"/>
<polygon fill="#ffc3c3" stroke="#ffc3c3" points="321.769,-281.229 329.406,-284.906 325.729,-277.269 321.769,-281.229"/>
</a>
</g>
<!-- HMX1&#45;&gt;E2F4 -->
<g id="edge70" class="edge"><title>HMX1&#45;&gt;E2F4</title>
<a xlink:title="E2F4: 0.073||remove14root">
<path fill="none" stroke="#ffc4c4" stroke-width="3" d="M231.971,-200.826C239.807,-230.067 255.208,-287.547 264.201,-321.108"/>
<polygon fill="#ffc4c4" stroke="#ffc4c4" points="261.566,-322.091 266.341,-329.094 266.975,-320.642 261.566,-322.091"/>
</a>
</g>
<!-- HMX1&#45;&gt;ESRRB_ESRRG -->
<g id="edge74" class="edge"><title>HMX1&#45;&gt;ESRRB_ESRRG</title>
<a xlink:title="ESRRG: 0.092||remove16root">
<path fill="none" stroke="#ffc1c1" stroke-width="3" d="M232.178,-200.649C238.738,-227.63 247.2,-279.377 225.012,-322.07"/>
<polygon fill="#ffc1c1" stroke="#ffc1c1" points="222.529,-320.771 221.015,-329.11 227.4,-323.535 222.529,-320.771"/>
</a>
</g>
<!-- RCOR1_MTA3&#45;&gt;ZBTB7A_ZBTB7C -->
<g id="edge18" class="edge"><title>RCOR1_MTA3&#45;&gt;ZBTB7A_ZBTB7C</title>
<a xlink:title="ZBTB7A: 0.245||ZBTB7C: 0.045||RCOR1: 0.019||remove17">
<path fill="none" stroke="#e6b1ff" stroke-width="3" d="M207.738,-41.3405C247.792,-81.3943 327.736,-161.339 368.003,-201.606"/>
<path fill="none" stroke="#eec9ff" stroke-width="3" d="M206.324,-42.7547C246.378,-82.8085 326.322,-162.753 366.589,-203.02"/>
<polygon fill="#eec9ff" stroke="#eec9ff" points="208.774,-39.8312 201.138,-36.1542 204.815,-43.791 208.774,-39.8312"/>
<polygon fill="#e6b1ff" stroke="#e6b1ff" points="365.769,-204.746 373.406,-208.423 369.729,-200.786 365.769,-204.746"/>
</a>
</g>
<!-- RCOR1_MTA3&#45;&gt;ETS1 -->
<g id="edge24" class="edge"><title>RCOR1_MTA3&#45;&gt;ETS1</title>
<a xlink:title="ETS1: 0.066||remove12root">
<path fill="none" stroke="#ecc4ff" stroke-width="3" d="M193.529,-36.2659C221.979,-85.5424 300.351,-221.287 332.997,-277.831"/>
<polygon fill="#ecc4ff" stroke="#ecc4ff" points="330.684,-279.425 337.109,-284.953 335.534,-276.625 330.684,-279.425"/>
</a>
</g>
<!-- RCOR1_MTA3&#45;&gt;SP3 -->
<g id="edge26" class="edge"><title>RCOR1_MTA3&#45;&gt;SP3</title>
<a xlink:title="SP3: 0.797||MTA3: 1.158||remove7">
<path fill="none" stroke="#d275ff" stroke-width="3" d="M179.159,-44.2691C172.791,-74.0472 159.536,-123.238 135.839,-159.907 124.843,-176.834 108.905,-192.249 94.6802,-204.137"/>
<path fill="none" stroke="#c64eff" stroke-width="3" d="M177.203,-43.8509C170.86,-73.5269 157.605,-122.718 134.161,-158.82 123.453,-175.396 107.515,-190.811 93.3979,-202.602"/>
<polygon fill="#c64eff" stroke="#c64eff" points="180.925,-44.6184 179.794,-36.2184 175.44,-43.4903 180.925,-44.6184"/>
<polygon fill="#d275ff" stroke="#d275ff" points="92.1126,-201.327 87.677,-208.55 95.6485,-205.67 92.1126,-201.327"/>
</a>
</g>
<!-- RCOR1_MTA3&#45;&gt;HOXB2_UNCX_HOXD3 -->
<g id="edge28" class="edge"><title>RCOR1_MTA3&#45;&gt;HOXB2_UNCX_HOXD3</title>
<a xlink:title="UNCX: 0.144||HOXD3: 0.144||HOXB2: 0.102||remove21">
<path fill="none" stroke="#e9bcff" stroke-width="3" d="M177.618,-36.1605C172.777,-50.1755 164.541,-69.4011 152.42,-82.98 140.557,-96.2707 124.755,-107.465 109.709,-116.24"/>
<polygon fill="#e9bcff" stroke="#e9bcff" points="108.002,-113.988 102.405,-120.353 110.749,-118.868 108.002,-113.988"/>
</a>
</g>
<!-- RCOR1_MTA3&#45;&gt;EPAS1_BCL3 -->
<g id="edge30" class="edge"><title>RCOR1_MTA3&#45;&gt;EPAS1_BCL3</title>
<a xlink:title="EPAS1: 0.167||remove18">
<path fill="none" stroke="#e8b9ff" stroke-width="3" d="M151.474,-36.1918C149.394,-37.3929 147.286,-38.6098 145.177,-39.8276"/>
<polygon fill="#e8b9ff" stroke="#e8b9ff" points="143.565,-37.5251 138.037,-43.95 146.365,-42.3749 143.565,-37.5251"/>
</a>
</g>
<!-- RCOR1_MTA3&#45;&gt;HMX1 -->
<g id="edge32" class="edge"><title>RCOR1_MTA3&#45;&gt;HMX1</title>
<a xlink:title="HMX1: 0.283||remove23root">
<path fill="none" stroke="#adb5ff" stroke-width="3" d="M187.871,-36.2421C195.707,-65.484 211.108,-122.964 220.101,-156.525"/>
<polygon fill="#adb5ff" stroke="#adb5ff" points="217.466,-157.508 222.241,-164.51 222.875,-156.058 217.466,-157.508"/>
</a>
</g>
<!-- RCOR1_MTA3&#45;&gt;RCOR1_MTA3 -->
<g id="edge38" class="edge"><title>RCOR1_MTA3&#45;&gt;RCOR1_MTA3</title>
<a xlink:title="RCOR1: 1.276||remove23">
<path fill="none" stroke="#c241ff" stroke-width="3" d="M224.338,-24.6445C234.455,-24.1523 241.983,-21.9375 241.983,-18 241.983,-15.2314 238.261,-13.3145 232.535,-12.2493"/>
<polygon fill="#c241ff" stroke="#c241ff" points="232.595,-9.43931 224.338,-11.3555 231.987,-15.0063 232.595,-9.43931"/>
</a>
</g>
<!-- RCOR1_MTA3&#45;&gt;E2F4 -->
<g id="edge20" class="edge"><title>RCOR1_MTA3&#45;&gt;E2F4</title>
<a xlink:title="E2F4: 0.128||remove14">
<path fill="none" stroke="#eabeff" stroke-width="3" d="M181.8,-36.0624C180.123,-69.7175 178.917,-143.997 195.763,-203.463 208.382,-248.008 235.874,-294.573 253.947,-322.214"/>
<polygon fill="#eabeff" stroke="#eabeff" points="251.795,-324.035 258.549,-329.155 256.463,-320.941 251.795,-324.035"/>
</a>
</g>
<!-- RCOR1_MTA3&#45;&gt;DLX5 -->
<g id="edge22" class="edge"><title>RCOR1_MTA3&#45;&gt;DLX5</title>
<a xlink:title="DLX5: 0.004||remove1root">
<path fill="none" stroke="#eecbff" stroke-width="3" d="M224.243,-18C228.131,-18 232.048,-18 235.874,-18"/>
<polygon fill="#eecbff" stroke="#eecbff" points="236.054,-20.8001 244.054,-18 236.054,-15.2001 236.054,-20.8001"/>
</a>
</g>
<!-- RCOR1_MTA3&#45;&gt;ESRRB_ESRRG -->
<g id="edge34" class="edge"><title>RCOR1_MTA3&#45;&gt;ESRRB_ESRRG</title>
<a xlink:title="ESRRG: 0.332||ESRRB: 0.291||remove16">
<path fill="none" stroke="#e3a7ff" stroke-width="3" d="M182.531,-36.1417C182.07,-69.6192 182.807,-143.195 195.763,-203.463 203.605,-239.941 218.338,-245.461 224.92,-282.187 227.785,-298.172 232.851,-305.914 225.167,-321.784"/>
<polygon fill="#e3a7ff" stroke="#e3a7ff" points="222.518,-320.783 221.05,-329.131 227.403,-323.521 222.518,-320.783"/>
</a>
</g>
<!-- RCOR1_MTA3&#45;&gt;TFDP1 -->
<g id="edge36" class="edge"><title>RCOR1_MTA3&#45;&gt;TFDP1</title>
<a xlink:title="TFDP1: 0.093||remove11">
<path fill="none" stroke="#ebc1ff" stroke-width="3" d="M224.388,-33.9576C229.563,-35.7273 234.812,-37.416 239.863,-38.88 263.706,-45.7896 291.052,-51.6609 312.224,-55.7709"/>
<polygon fill="#ebc1ff" stroke="#ebc1ff" points="311.923,-58.5639 320.306,-57.3128 312.972,-53.0631 311.923,-58.5639"/>
</a>
</g>
<!-- DLX5&#45;&gt;HMX1 -->
<g id="edge84" class="edge"><title>DLX5&#45;&gt;HMX1</title>
<a xlink:title="HMX1: 0.061||remove9root">
<path fill="none" stroke="#c5cbff" stroke-width="3" d="M266.295,-36.2421C258.46,-65.484 243.058,-122.964 234.066,-156.525"/>
<polygon fill="#c5cbff" stroke="#c5cbff" points="231.292,-156.058 231.926,-164.51 236.701,-157.508 231.292,-156.058"/>
</a>
</g>
<!-- ESRRB_ESRRG&#45;&gt;ESRRB_ESRRG -->
<g id="edge82" class="edge"><title>ESRRB_ESRRG&#45;&gt;ESRRB_ESRRG</title>
<a xlink:title="ESRRG: 0.023||remove4root">
<path fill="none" stroke="#edc9ff" stroke-width="3" d="M229.295,-353.735C239.53,-353.118 246.983,-350.929 246.983,-347.167 246.983,-344.522 243.298,-342.654 237.553,-341.564"/>
<polygon fill="#edc9ff" stroke="#edc9ff" points="237.566,-338.747 229.295,-340.599 236.916,-344.309 237.566,-338.747"/>
</a>
</g>
<!-- TFDP1&#45;&gt;YBX1_FOS_NFYC_NFYA_NFYB_CEBPZ -->
<g id="edge76" class="edge"><title>TFDP1&#45;&gt;YBX1_FOS_NFYC_NFYA_NFYB_CEBPZ</title>
<a xlink:title="NFYC: 0.024||remove5root">
<path fill="none" stroke="#edc9ff" stroke-width="3" d="M339.253,-80.3174C325.51,-109.009 295.815,-165.374 258.403,-203.463 226.574,-235.869 182.479,-263.352 150.012,-281.187"/>
<polygon fill="#edc9ff" stroke="#edc9ff" points="148.554,-278.792 142.855,-285.066 151.223,-283.715 148.554,-278.792"/>
</a>
</g>
<!-- TFDP1&#45;&gt;HMX1 -->
<g id="edge78" class="edge"><title>TFDP1&#45;&gt;HMX1</title>
<a xlink:title="HMX1: 0.066||remove11root">
<path fill="none" stroke="#c4caff" stroke-width="3" d="M329.529,-80.1376C308.679,-100.988 274.273,-135.394 251.154,-158.513"/>
<polygon fill="#c4caff" stroke="#c4caff" points="248.921,-156.786 245.244,-164.423 252.881,-160.746 248.921,-156.786"/>
</a>
</g>
<!-- TFDP1&#45;&gt;TFDP1 -->
<g id="edge80" class="edge"><title>TFDP1&#45;&gt;TFDP1</title>
<a xlink:title="TFDP1: 0.077||remove11">
<path fill="none" stroke="#ecc3ff" stroke-width="3" d="M374.808,-68.8434C384.591,-68.9884 392.567,-66.7406 392.567,-62.1 392.567,-58.8371 388.624,-56.7571 382.882,-55.8601"/>
<polygon fill="#ecc3ff" stroke="#ecc3ff" points="382.966,-53.0601 374.808,-55.3566 382.618,-58.6492 382.966,-53.0601"/>
</a>
</g>
<!-- NRF1 -->
<g id="node55" class="node"><title>NRF1</title>
<a xlink:href="NRF1.svg" xlink:title="Z&#45;value: 1.442||remove19">
<polygon fill="#5667ff" stroke="#5667ff" stroke-width="2" points="406.667,-156.483 376.667,-156.483 364.667,-144.483 364.667,-132.483 376.667,-120.483 406.667,-120.483 418.667,-132.483 418.667,-144.483 406.667,-156.483"/>
<path fill="#5667ff" stroke="#5667ff" stroke-width="2" d="M376.667,-156.483C370.667,-156.483 364.667,-150.483 364.667,-144.483"/>
<path fill="#5667ff" stroke="#5667ff" stroke-width="2" d="M364.667,-132.483C364.667,-126.483 370.667,-120.483 376.667,-120.483"/>
<path fill="#5667ff" stroke="#5667ff" stroke-width="2" d="M406.667,-120.483C412.667,-120.483 418.667,-126.483 418.667,-132.483"/>
<path fill="#5667ff" stroke="#5667ff" stroke-width="2" d="M418.667,-144.483C418.667,-150.483 412.667,-156.483 406.667,-156.483"/>
<polyline fill="none" stroke="white" stroke-width="2" points="406.667,-156.483 376.667,-156.483 "/>
<path fill="none" stroke="white" stroke-width="2" d="M376.667,-156.483C370.667,-156.483 364.667,-150.483 364.667,-144.483"/>
<polyline fill="none" stroke="white" stroke-width="2" points="364.667,-144.483 364.667,-132.483 "/>
<path fill="none" stroke="white" stroke-width="2" d="M364.667,-132.483C364.667,-126.483 370.667,-120.483 376.667,-120.483"/>
<polyline fill="none" stroke="white" stroke-width="2" points="376.667,-120.483 406.667,-120.483 "/>
<path fill="none" stroke="white" stroke-width="2" d="M406.667,-120.483C412.667,-120.483 418.667,-126.483 418.667,-132.483"/>
<polyline fill="none" stroke="white" stroke-width="2" points="418.667,-132.483 418.667,-144.483 "/>
<path fill="none" stroke="white" stroke-width="2" d="M418.667,-144.483C418.667,-150.483 412.667,-156.483 406.667,-156.483"/>
<text text-anchor="middle" x="391.667" y="-135.983" font-family="Helvetica,sans-Serif" font-size="10.00" fill="white">NRF1</text>
</a>
</g>
<!-- NRF1&#45;&gt;ZBTB7A_ZBTB7C -->
<g id="edge86" class="edge"><title>NRF1&#45;&gt;ZBTB7A_ZBTB7C</title>
<a xlink:title="ZBTB7C: 0.114||remove17">
<path fill="none" stroke="#eabfff" stroke-width="3" d="M391.667,-156.759C391.667,-169.294 391.667,-186.128 391.667,-200.138"/>
<polygon fill="#eabfff" stroke="#eabfff" points="388.867,-200.432 391.667,-208.432 394.467,-200.432 388.867,-200.432"/>
</a>
</g>
<!-- NRF1&#45;&gt;HMX1 -->
<g id="edge90" class="edge"><title>NRF1&#45;&gt;HMX1</title>
<a xlink:title="HMX1: 0.117||remove19root">
<path fill="none" stroke="#bfc5ff" stroke-width="3" d="M364.489,-145.766C336.496,-153.266 292.756,-164.987 262.166,-173.183"/>
<polygon fill="#bfc5ff" stroke="#bfc5ff" points="261.304,-170.515 254.301,-175.29 262.754,-175.924 261.304,-170.515"/>
</a>
</g>
<!-- NRF1&#45;&gt;TFDP1 -->
<g id="edge92" class="edge"><title>NRF1&#45;&gt;TFDP1</title>
<a xlink:title="TFDP1: 0.051||remove8root">
<path fill="none" stroke="#ecc6ff" stroke-width="3" d="M381.216,-120.382C375.545,-110.56 368.444,-98.2608 362.229,-87.4953"/>
<polygon fill="#ecc6ff" stroke="#ecc6ff" points="364.521,-85.8648 358.096,-80.3366 359.671,-88.6648 364.521,-85.8648"/>
</a>
</g>
<!-- NRF1&#45;&gt;NRF1 -->
<g id="edge88" class="edge"><title>NRF1&#45;&gt;NRF1</title>
<a xlink:title="NRF1: 0.063||remove10root">
<path fill="none" stroke="#ecc5ff" stroke-width="3" d="M418.908,-145.227C428.691,-145.372 436.667,-143.124 436.667,-138.483 436.667,-135.221 432.724,-133.141 426.982,-132.244"/>
<polygon fill="#ecc5ff" stroke="#ecc5ff" points="427.066,-129.443 418.908,-131.74 426.718,-135.033 427.066,-129.443"/>
</a>
</g>
</g>
</svg>
