<?xml version="1.0" encoding="UTF-8" standalone="no"?>
<!DOCTYPE svg PUBLIC "-//W3C//DTD SVG 1.1//EN"
 "http://www.w3.org/Graphics/SVG/1.1/DTD/svg11.dtd">
<!-- Generated by graphviz version 2.28.0 (20110630.0925)
 -->
<!-- Title: _anonymous_0 Pages: 1 -->
<svg width="402pt" height="366pt"
 viewBox="0.00 0.00 402.45 366.45" xmlns="http://www.w3.org/2000/svg" xmlns:xlink="http://www.w3.org/1999/xlink">
<g id="graph1" class="graph" transform="scale(1 1) rotate(0) translate(4 362.449)">
<title>_anonymous_0</title>
<polygon fill="white" stroke="white" points="-4,5 -4,-362.449 399.449,-362.449 399.449,5 -4,5"/>
<!-- SIN3A_CHD1 -->
<g id="node1" class="node"><title>SIN3A_CHD1</title>
<a xlink:href="SIN3A_CHD1.svg" xlink:title="Z&#45;value: 1.751||remove9">
<polygon fill="#3247ff" stroke="#3247ff" stroke-width="2" points="273.175,-358.449 218.675,-358.449 206.675,-346.449 206.675,-334.449 218.675,-322.449 273.175,-322.449 285.175,-334.449 285.175,-346.449 273.175,-358.449"/>
<path fill="#3247ff" stroke="#3247ff" stroke-width="2" d="M218.675,-358.449C212.675,-358.449 206.675,-352.449 206.675,-346.449"/>
<path fill="#3247ff" stroke="#3247ff" stroke-width="2" d="M206.675,-334.449C206.675,-328.449 212.675,-322.449 218.675,-322.449"/>
<path fill="#3247ff" stroke="#3247ff" stroke-width="2" d="M273.175,-322.449C279.175,-322.449 285.175,-328.449 285.175,-334.449"/>
<path fill="#3247ff" stroke="#3247ff" stroke-width="2" d="M285.175,-346.449C285.175,-352.449 279.175,-358.449 273.175,-358.449"/>
<polyline fill="none" stroke="white" stroke-width="2" points="273.175,-358.449 218.675,-358.449 "/>
<path fill="none" stroke="white" stroke-width="2" d="M218.675,-358.449C212.675,-358.449 206.675,-352.449 206.675,-346.449"/>
<polyline fill="none" stroke="white" stroke-width="2" points="206.675,-346.449 206.675,-334.449 "/>
<path fill="none" stroke="white" stroke-width="2" d="M206.675,-334.449C206.675,-328.449 212.675,-322.449 218.675,-322.449"/>
<polyline fill="none" stroke="white" stroke-width="2" points="218.675,-322.449 273.175,-322.449 "/>
<path fill="none" stroke="white" stroke-width="2" d="M273.175,-322.449C279.175,-322.449 285.175,-328.449 285.175,-334.449"/>
<polyline fill="none" stroke="white" stroke-width="2" points="285.175,-334.449 285.175,-346.449 "/>
<path fill="none" stroke="white" stroke-width="2" d="M285.175,-346.449C285.175,-352.449 279.175,-358.449 273.175,-358.449"/>
<text text-anchor="middle" x="245.925" y="-337.949" font-family="Helvetica,sans-Serif" font-size="10.00" fill="white">SIN3A_CHD1</text>
</a>
</g>
<!-- SIN3A_CHD1&#45;&gt;SIN3A_CHD1 -->
<g id="edge12" class="edge"><title>SIN3A_CHD1&#45;&gt;SIN3A_CHD1</title>
<a xlink:title="CHD1: 0.054||remove4root">
<path fill="none" stroke="#edc7ff" stroke-width="3" d="M285.43,-347.13C295.689,-346.719 303.425,-344.492 303.425,-340.449 303.425,-337.606 299.6,-335.662 293.763,-334.615"/>
<polygon fill="#edc7ff" stroke="#edc7ff" points="293.672,-331.791 285.43,-333.769 293.107,-337.363 293.672,-331.791"/>
</a>
</g>
<!-- MECP2 -->
<g id="node2" class="node"><title>MECP2</title>
<a xlink:href="MECP2.svg" xlink:title="Z&#45;value: 1.015||remove10">
<polygon fill="#7381ff" stroke="#7381ff" stroke-width="2" points="174.525,-358.449 144.525,-358.449 132.525,-346.449 132.525,-334.449 144.525,-322.449 174.525,-322.449 186.525,-334.449 186.525,-346.449 174.525,-358.449"/>
<path fill="#7381ff" stroke="#7381ff" stroke-width="2" d="M144.525,-358.449C138.525,-358.449 132.525,-352.449 132.525,-346.449"/>
<path fill="#7381ff" stroke="#7381ff" stroke-width="2" d="M132.525,-334.449C132.525,-328.449 138.525,-322.449 144.525,-322.449"/>
<path fill="#7381ff" stroke="#7381ff" stroke-width="2" d="M174.525,-322.449C180.525,-322.449 186.525,-328.449 186.525,-334.449"/>
<path fill="#7381ff" stroke="#7381ff" stroke-width="2" d="M186.525,-346.449C186.525,-352.449 180.525,-358.449 174.525,-358.449"/>
<polyline fill="none" stroke="white" stroke-width="2" points="174.525,-358.449 144.525,-358.449 "/>
<path fill="none" stroke="white" stroke-width="2" d="M144.525,-358.449C138.525,-358.449 132.525,-352.449 132.525,-346.449"/>
<polyline fill="none" stroke="white" stroke-width="2" points="132.525,-346.449 132.525,-334.449 "/>
<path fill="none" stroke="white" stroke-width="2" d="M132.525,-334.449C132.525,-328.449 138.525,-322.449 144.525,-322.449"/>
<polyline fill="none" stroke="white" stroke-width="2" points="144.525,-322.449 174.525,-322.449 "/>
<path fill="none" stroke="white" stroke-width="2" d="M174.525,-322.449C180.525,-322.449 186.525,-328.449 186.525,-334.449"/>
<polyline fill="none" stroke="white" stroke-width="2" points="186.525,-334.449 186.525,-346.449 "/>
<path fill="none" stroke="white" stroke-width="2" d="M186.525,-346.449C186.525,-352.449 180.525,-358.449 174.525,-358.449"/>
<text text-anchor="middle" x="159.525" y="-337.949" font-family="Helvetica,sans-Serif" font-size="10.00">MECP2</text>
</a>
</g>
<!-- SIN3A_CHD1&#45;&gt;MECP2 -->
<g id="edge2" class="edge"><title>SIN3A_CHD1&#45;&gt;MECP2</title>
<a xlink:title="MECP2: 0.379||SIN3A: 0.042||remove9">
<path fill="none" stroke="#e4abff" stroke-width="3" d="M198.25,-341.449C197.155,-341.449 196.065,-341.449 194.981,-341.449"/>
<path fill="none" stroke="#edc8ff" stroke-width="3" d="M198.25,-339.449C197.155,-339.449 196.065,-339.449 194.981,-339.449"/>
<polygon fill="#edc8ff" stroke="#edc8ff" points="198.265,-343.249 206.265,-340.449 198.265,-337.649 198.265,-343.249"/>
<polygon fill="#e4abff" stroke="#e4abff" points="194.851,-337.649 186.851,-340.449 194.851,-343.249 194.851,-337.649"/>
</a>
</g>
<!-- POU2F2_POU3F1 -->
<g id="node4" class="node"><title>POU2F2_POU3F1</title>
<a xlink:href="POU2F2_POU3F1.svg" xlink:title="Z&#45;value: 0.519||remove15">
<polygon fill="#9ea8ff" stroke="#9ea8ff" stroke-width="2" points="121.2,-315.249 48.2,-315.249 36.2,-303.249 36.2,-291.249 48.2,-279.249 121.2,-279.249 133.2,-291.249 133.2,-303.249 121.2,-315.249"/>
<path fill="#9ea8ff" stroke="#9ea8ff" stroke-width="2" d="M48.2,-315.249C42.2,-315.249 36.2,-309.249 36.2,-303.249"/>
<path fill="#9ea8ff" stroke="#9ea8ff" stroke-width="2" d="M36.2,-291.249C36.2,-285.249 42.2,-279.249 48.2,-279.249"/>
<path fill="#9ea8ff" stroke="#9ea8ff" stroke-width="2" d="M121.2,-279.249C127.2,-279.249 133.2,-285.249 133.2,-291.249"/>
<path fill="#9ea8ff" stroke="#9ea8ff" stroke-width="2" d="M133.2,-303.249C133.2,-309.249 127.2,-315.249 121.2,-315.249"/>
<polyline fill="none" stroke="white" stroke-width="2" points="121.2,-315.249 48.2,-315.249 "/>
<path fill="none" stroke="white" stroke-width="2" d="M48.2,-315.249C42.2,-315.249 36.2,-309.249 36.2,-303.249"/>
<polyline fill="none" stroke="white" stroke-width="2" points="36.2,-303.249 36.2,-291.249 "/>
<path fill="none" stroke="white" stroke-width="2" d="M36.2,-291.249C36.2,-285.249 42.2,-279.249 48.2,-279.249"/>
<polyline fill="none" stroke="white" stroke-width="2" points="48.2,-279.249 121.2,-279.249 "/>
<path fill="none" stroke="white" stroke-width="2" d="M121.2,-279.249C127.2,-279.249 133.2,-285.249 133.2,-291.249"/>
<polyline fill="none" stroke="white" stroke-width="2" points="133.2,-291.249 133.2,-303.249 "/>
<path fill="none" stroke="white" stroke-width="2" d="M133.2,-303.249C133.2,-309.249 127.2,-315.249 121.2,-315.249"/>
<text text-anchor="middle" x="84.7" y="-294.749" font-family="Helvetica,sans-Serif" font-size="10.00">POU2F2_POU3F1</text>
</a>
</g>
<!-- SIN3A_CHD1&#45;&gt;POU2F2_POU3F1 -->
<g id="edge4" class="edge"><title>SIN3A_CHD1&#45;&gt;POU2F2_POU3F1</title>
<a xlink:title="POU3F1: 0.189||remove9">
<path fill="none" stroke="#e9bbff" stroke-width="3" d="M206.462,-324.65C201.251,-322.812 195.948,-321.063 190.845,-319.569 175.147,-314.974 157.882,-310.927 141.921,-307.586"/>
<polygon fill="#e9bbff" stroke="#e9bbff" points="142.107,-304.766 133.708,-305.904 140.984,-310.252 142.107,-304.766"/>
</a>
</g>
<!-- HNF4A -->
<g id="node6" class="node"><title>HNF4A</title>
<a xlink:href="HNF4A.svg" xlink:title="Z&#45;value: 0.514||remove12">
<polygon fill="#9fa8ff" stroke="#9fa8ff" stroke-width="2" points="378.949,-240.425 348.949,-240.425 336.949,-228.425 336.949,-216.425 348.949,-204.425 378.949,-204.425 390.949,-216.425 390.949,-228.425 378.949,-240.425"/>
<path fill="#9fa8ff" stroke="#9fa8ff" stroke-width="2" d="M348.949,-240.425C342.949,-240.425 336.949,-234.425 336.949,-228.425"/>
<path fill="#9fa8ff" stroke="#9fa8ff" stroke-width="2" d="M336.949,-216.425C336.949,-210.425 342.949,-204.425 348.949,-204.425"/>
<path fill="#9fa8ff" stroke="#9fa8ff" stroke-width="2" d="M378.949,-204.425C384.949,-204.425 390.949,-210.425 390.949,-216.425"/>
<path fill="#9fa8ff" stroke="#9fa8ff" stroke-width="2" d="M390.949,-228.425C390.949,-234.425 384.949,-240.425 378.949,-240.425"/>
<polyline fill="none" stroke="white" stroke-width="2" points="378.949,-240.425 348.949,-240.425 "/>
<path fill="none" stroke="white" stroke-width="2" d="M348.949,-240.425C342.949,-240.425 336.949,-234.425 336.949,-228.425"/>
<polyline fill="none" stroke="white" stroke-width="2" points="336.949,-228.425 336.949,-216.425 "/>
<path fill="none" stroke="white" stroke-width="2" d="M336.949,-216.425C336.949,-210.425 342.949,-204.425 348.949,-204.425"/>
<polyline fill="none" stroke="white" stroke-width="2" points="348.949,-204.425 378.949,-204.425 "/>
<path fill="none" stroke="white" stroke-width="2" d="M378.949,-204.425C384.949,-204.425 390.949,-210.425 390.949,-216.425"/>
<polyline fill="none" stroke="white" stroke-width="2" points="390.949,-216.425 390.949,-228.425 "/>
<path fill="none" stroke="white" stroke-width="2" d="M390.949,-228.425C390.949,-234.425 384.949,-240.425 378.949,-240.425"/>
<text text-anchor="middle" x="363.949" y="-219.925" font-family="Helvetica,sans-Serif" font-size="10.00">HNF4A</text>
</a>
</g>
<!-- SIN3A_CHD1&#45;&gt;HNF4A -->
<g id="edge6" class="edge"><title>SIN3A_CHD1&#45;&gt;HNF4A</title>
<a xlink:title="HNF4A: 0.191||remove9">
<path fill="none" stroke="#e9bbff" stroke-width="3" d="M255.877,-322.365C263.866,-308.804 275.945,-290.266 289.429,-276.369 301.363,-264.07 316.384,-252.605 329.808,-243.434"/>
<polygon fill="#e9bbff" stroke="#e9bbff" points="331.562,-245.629 336.657,-238.856 328.45,-240.974 331.562,-245.629"/>
</a>
</g>
<!-- RCOR1_MTA3 -->
<g id="node8" class="node"><title>RCOR1_MTA3</title>
<a xlink:href="RCOR1_MTA3.svg" xlink:title="Z&#45;value: 1.731||remove17">
<polygon fill="#3448ff" stroke="#3448ff" stroke-width="2" points="70.75,-240.425 12.25,-240.425 0.25,-228.425 0.25,-216.425 12.25,-204.425 70.75,-204.425 82.75,-216.425 82.75,-228.425 70.75,-240.425"/>
<path fill="#3448ff" stroke="#3448ff" stroke-width="2" d="M12.25,-240.425C6.25,-240.425 0.25,-234.425 0.25,-228.425"/>
<path fill="#3448ff" stroke="#3448ff" stroke-width="2" d="M0.25,-216.425C0.25,-210.425 6.25,-204.425 12.25,-204.425"/>
<path fill="#3448ff" stroke="#3448ff" stroke-width="2" d="M70.75,-204.425C76.75,-204.425 82.75,-210.425 82.75,-216.425"/>
<path fill="#3448ff" stroke="#3448ff" stroke-width="2" d="M82.75,-228.425C82.75,-234.425 76.75,-240.425 70.75,-240.425"/>
<polyline fill="none" stroke="white" stroke-width="2" points="70.75,-240.425 12.25,-240.425 "/>
<path fill="none" stroke="white" stroke-width="2" d="M12.25,-240.425C6.25,-240.425 0.25,-234.425 0.25,-228.425"/>
<polyline fill="none" stroke="white" stroke-width="2" points="0.25,-228.425 0.25,-216.425 "/>
<path fill="none" stroke="white" stroke-width="2" d="M0.25,-216.425C0.25,-210.425 6.25,-204.425 12.25,-204.425"/>
<polyline fill="none" stroke="white" stroke-width="2" points="12.25,-204.425 70.75,-204.425 "/>
<path fill="none" stroke="white" stroke-width="2" d="M70.75,-204.425C76.75,-204.425 82.75,-210.425 82.75,-216.425"/>
<polyline fill="none" stroke="white" stroke-width="2" points="82.75,-216.425 82.75,-228.425 "/>
<path fill="none" stroke="white" stroke-width="2" d="M82.75,-228.425C82.75,-234.425 76.75,-240.425 70.75,-240.425"/>
<text text-anchor="middle" x="41.5" y="-219.925" font-family="Helvetica,sans-Serif" font-size="10.00" fill="white">RCOR1_MTA3</text>
</a>
</g>
<!-- SIN3A_CHD1&#45;&gt;RCOR1_MTA3 -->
<g id="edge8" class="edge"><title>SIN3A_CHD1&#45;&gt;RCOR1_MTA3</title>
<a xlink:title="RCOR1: 1.779||SIN3A: 0.229||remove9">
<path fill="none" stroke="#bd32ff" stroke-width="3" d="M210.003,-318.89C189.937,-306.358 164.259,-290.608 141.041,-277.236 122.211,-266.39 101.042,-254.879 83.0558,-245.296"/>
<path fill="none" stroke="#e8b8ff" stroke-width="3" d="M211.062,-317.194C190.983,-304.654 165.304,-288.903 142.039,-275.503 123.166,-264.633 101.997,-253.122 83.9963,-243.531"/>
<polygon fill="#e8b8ff" stroke="#e8b8ff" points="209.119,-320.46 217.385,-322.333 212.091,-315.714 209.119,-320.46"/>
<polygon fill="#bd32ff" stroke="#bd32ff" points="84.4036,-241.709 76.0249,-240.429 81.777,-246.655 84.4036,-241.709"/>
</a>
</g>
<!-- HNF1A_HNF1B -->
<g id="node10" class="node"><title>HNF1A_HNF1B</title>
<a xlink:href="HNF1A_HNF1B.svg" xlink:title="Z&#45;value: 0.567||remove19">
<polygon fill="#ff9a9a" stroke="#ff9a9a" stroke-width="2" points="234.225,-197.225 171.225,-197.225 159.225,-185.225 159.225,-173.225 171.225,-161.225 234.225,-161.225 246.225,-173.225 246.225,-185.225 234.225,-197.225"/>
<path fill="#ff9a9a" stroke="#ff9a9a" stroke-width="2" d="M171.225,-197.225C165.225,-197.225 159.225,-191.225 159.225,-185.225"/>
<path fill="#ff9a9a" stroke="#ff9a9a" stroke-width="2" d="M159.225,-173.225C159.225,-167.225 165.225,-161.225 171.225,-161.225"/>
<path fill="#ff9a9a" stroke="#ff9a9a" stroke-width="2" d="M234.225,-161.225C240.225,-161.225 246.225,-167.225 246.225,-173.225"/>
<path fill="#ff9a9a" stroke="#ff9a9a" stroke-width="2" d="M246.225,-185.225C246.225,-191.225 240.225,-197.225 234.225,-197.225"/>
<polyline fill="none" stroke="white" stroke-width="2" points="234.225,-197.225 171.225,-197.225 "/>
<path fill="none" stroke="white" stroke-width="2" d="M171.225,-197.225C165.225,-197.225 159.225,-191.225 159.225,-185.225"/>
<polyline fill="none" stroke="white" stroke-width="2" points="159.225,-185.225 159.225,-173.225 "/>
<path fill="none" stroke="white" stroke-width="2" d="M159.225,-173.225C159.225,-167.225 165.225,-161.225 171.225,-161.225"/>
<polyline fill="none" stroke="white" stroke-width="2" points="171.225,-161.225 234.225,-161.225 "/>
<path fill="none" stroke="white" stroke-width="2" d="M234.225,-161.225C240.225,-161.225 246.225,-167.225 246.225,-173.225"/>
<polyline fill="none" stroke="white" stroke-width="2" points="246.225,-173.225 246.225,-185.225 "/>
<path fill="none" stroke="white" stroke-width="2" d="M246.225,-185.225C246.225,-191.225 240.225,-197.225 234.225,-197.225"/>
<text text-anchor="middle" x="202.725" y="-176.725" font-family="Helvetica,sans-Serif" font-size="10.00">HNF1A_HNF1B</text>
</a>
</g>
<!-- SIN3A_CHD1&#45;&gt;HNF1A_HNF1B -->
<g id="edge10" class="edge"><title>SIN3A_CHD1&#45;&gt;HNF1A_HNF1B</title>
<a xlink:title="HNF1A: 0.074||HNF1B: 0.007||remove9root">
<path fill="none" stroke="#c5cbff" stroke-width="3" d="M241.053,-322.268C233.404,-293.723 218.545,-238.267 209.744,-205.42"/>
<polygon fill="#c5cbff" stroke="#c5cbff" points="212.42,-204.589 207.645,-197.587 207.011,-206.039 212.42,-204.589"/>
</a>
</g>
<!-- NR2F1 -->
<g id="node13" class="node"><title>NR2F1</title>
<a xlink:href="NR2F1.svg" xlink:title="Z&#45;value: 0.504||remove8">
<polygon fill="#9fa9ff" stroke="#9fa9ff" stroke-width="2" points="56.5,-154.025 26.5,-154.025 14.5,-142.025 14.5,-130.025 26.5,-118.025 56.5,-118.025 68.5,-130.025 68.5,-142.025 56.5,-154.025"/>
<path fill="#9fa9ff" stroke="#9fa9ff" stroke-width="2" d="M26.5,-154.025C20.5,-154.025 14.5,-148.025 14.5,-142.025"/>
<path fill="#9fa9ff" stroke="#9fa9ff" stroke-width="2" d="M14.5,-130.025C14.5,-124.025 20.5,-118.025 26.5,-118.025"/>
<path fill="#9fa9ff" stroke="#9fa9ff" stroke-width="2" d="M56.5,-118.025C62.5,-118.025 68.5,-124.025 68.5,-130.025"/>
<path fill="#9fa9ff" stroke="#9fa9ff" stroke-width="2" d="M68.5,-142.025C68.5,-148.025 62.5,-154.025 56.5,-154.025"/>
<polyline fill="none" stroke="white" stroke-width="2" points="56.5,-154.025 26.5,-154.025 "/>
<path fill="none" stroke="white" stroke-width="2" d="M26.5,-154.025C20.5,-154.025 14.5,-148.025 14.5,-142.025"/>
<polyline fill="none" stroke="white" stroke-width="2" points="14.5,-142.025 14.5,-130.025 "/>
<path fill="none" stroke="white" stroke-width="2" d="M14.5,-130.025C14.5,-124.025 20.5,-118.025 26.5,-118.025"/>
<polyline fill="none" stroke="white" stroke-width="2" points="26.5,-118.025 56.5,-118.025 "/>
<path fill="none" stroke="white" stroke-width="2" d="M56.5,-118.025C62.5,-118.025 68.5,-124.025 68.5,-130.025"/>
<polyline fill="none" stroke="white" stroke-width="2" points="68.5,-130.025 68.5,-142.025 "/>
<path fill="none" stroke="white" stroke-width="2" d="M68.5,-142.025C68.5,-148.025 62.5,-154.025 56.5,-154.025"/>
<text text-anchor="middle" x="41.5" y="-133.525" font-family="Helvetica,sans-Serif" font-size="10.00">NR2F1</text>
</a>
</g>
<!-- SIN3A_CHD1&#45;&gt;NR2F1 -->
<g id="edge14" class="edge"><title>SIN3A_CHD1&#45;&gt;NR2F1</title>
<a xlink:title="NR2F1: 0.327||remove8">
<path fill="none" stroke="#e5afff" stroke-width="3" d="M227.783,-322.308C190.809,-285.333 106.74,-201.265 65.3821,-159.907"/>
<polygon fill="#e5afff" stroke="#e5afff" points="67.2375,-157.802 59.6007,-154.125 63.2776,-161.762 67.2375,-157.802"/>
</a>
</g>
<!-- ZEB1 -->
<g id="node15" class="node"><title>ZEB1</title>
<a xlink:href="ZEB1.svg" xlink:title="Z&#45;value: 1.478||remove18">
<polygon fill="#4a5cff" stroke="#4a5cff" stroke-width="2" points="99.7,-79.2 69.7,-79.2 57.7,-67.2 57.7,-55.2 69.7,-43.2 99.7,-43.2 111.7,-55.2 111.7,-67.2 99.7,-79.2"/>
<path fill="#4a5cff" stroke="#4a5cff" stroke-width="2" d="M69.7,-79.2C63.7,-79.2 57.7,-73.2 57.7,-67.2"/>
<path fill="#4a5cff" stroke="#4a5cff" stroke-width="2" d="M57.7,-55.2C57.7,-49.2 63.7,-43.2 69.7,-43.2"/>
<path fill="#4a5cff" stroke="#4a5cff" stroke-width="2" d="M99.7,-43.2C105.7,-43.2 111.7,-49.2 111.7,-55.2"/>
<path fill="#4a5cff" stroke="#4a5cff" stroke-width="2" d="M111.7,-67.2C111.7,-73.2 105.7,-79.2 99.7,-79.2"/>
<polyline fill="none" stroke="white" stroke-width="2" points="99.7,-79.2 69.7,-79.2 "/>
<path fill="none" stroke="white" stroke-width="2" d="M69.7,-79.2C63.7,-79.2 57.7,-73.2 57.7,-67.2"/>
<polyline fill="none" stroke="white" stroke-width="2" points="57.7,-67.2 57.7,-55.2 "/>
<path fill="none" stroke="white" stroke-width="2" d="M57.7,-55.2C57.7,-49.2 63.7,-43.2 69.7,-43.2"/>
<polyline fill="none" stroke="white" stroke-width="2" points="69.7,-43.2 99.7,-43.2 "/>
<path fill="none" stroke="white" stroke-width="2" d="M99.7,-43.2C105.7,-43.2 111.7,-49.2 111.7,-55.2"/>
<polyline fill="none" stroke="white" stroke-width="2" points="111.7,-55.2 111.7,-67.2 "/>
<path fill="none" stroke="white" stroke-width="2" d="M111.7,-67.2C111.7,-73.2 105.7,-79.2 99.7,-79.2"/>
<text text-anchor="middle" x="84.7" y="-58.7" font-family="Helvetica,sans-Serif" font-size="10.00" fill="white">ZEB1</text>
</a>
</g>
<!-- SIN3A_CHD1&#45;&gt;ZEB1 -->
<g id="edge16" class="edge"><title>SIN3A_CHD1&#45;&gt;ZEB1</title>
<a xlink:title="ZEB1: 0.066||remove5root">
<path fill="none" stroke="#ecc6ff" stroke-width="3" d="M232.565,-322.368C213.471,-296.14 177.803,-245.686 151.685,-200.105 129.784,-161.885 108.366,-115.416 95.8559,-87.0891"/>
<polygon fill="#ecc6ff" stroke="#ecc6ff" points="98.3494,-85.8031 92.5708,-79.6025 93.2214,-88.0533 98.3494,-85.8031"/>
</a>
</g>
<!-- MECP2&#45;&gt;POU2F2_POU3F1 -->
<g id="edge34" class="edge"><title>MECP2&#45;&gt;POU2F2_POU3F1</title>
<a xlink:title="POU3F1: 0.004||remove0root">
<path fill="none" stroke="#eecbff" stroke-width="3" d="M132.511,-324.853C129.414,-323.065 126.213,-321.216 123.003,-319.363"/>
<polygon fill="#eecbff" stroke="#eecbff" points="124.327,-316.895 115.999,-315.32 121.527,-321.745 124.327,-316.895"/>
</a>
</g>
<!-- MECP2&#45;&gt;HNF1A_HNF1B -->
<g id="edge36" class="edge"><title>MECP2&#45;&gt;HNF1A_HNF1B</title>
<a xlink:title="HNF1B: 0.080||remove10root">
<path fill="none" stroke="#c5caff" stroke-width="3" d="M164.396,-322.268C172.045,-293.723 186.904,-238.267 195.706,-205.42"/>
<polygon fill="#c5caff" stroke="#c5caff" points="198.438,-206.039 197.805,-197.587 193.029,-204.589 198.438,-206.039"/>
</a>
</g>
<!-- SMAD3 -->
<g id="node22" class="node"><title>SMAD3</title>
<a xlink:href="SMAD3.svg" xlink:title="Z&#45;value: 0.374||remove11">
<polygon fill="#abb3ff" stroke="#abb3ff" stroke-width="2" points="335.749,-315.249 305.749,-315.249 293.749,-303.249 293.749,-291.249 305.749,-279.249 335.749,-279.249 347.749,-291.249 347.749,-303.249 335.749,-315.249"/>
<path fill="#abb3ff" stroke="#abb3ff" stroke-width="2" d="M305.749,-315.249C299.749,-315.249 293.749,-309.249 293.749,-303.249"/>
<path fill="#abb3ff" stroke="#abb3ff" stroke-width="2" d="M293.749,-291.249C293.749,-285.249 299.749,-279.249 305.749,-279.249"/>
<path fill="#abb3ff" stroke="#abb3ff" stroke-width="2" d="M335.749,-279.249C341.749,-279.249 347.749,-285.249 347.749,-291.249"/>
<path fill="#abb3ff" stroke="#abb3ff" stroke-width="2" d="M347.749,-303.249C347.749,-309.249 341.749,-315.249 335.749,-315.249"/>
<polyline fill="none" stroke="white" stroke-width="2" points="335.749,-315.249 305.749,-315.249 "/>
<path fill="none" stroke="white" stroke-width="2" d="M305.749,-315.249C299.749,-315.249 293.749,-309.249 293.749,-303.249"/>
<polyline fill="none" stroke="white" stroke-width="2" points="293.749,-303.249 293.749,-291.249 "/>
<path fill="none" stroke="white" stroke-width="2" d="M293.749,-291.249C293.749,-285.249 299.749,-279.249 305.749,-279.249"/>
<polyline fill="none" stroke="white" stroke-width="2" points="305.749,-279.249 335.749,-279.249 "/>
<path fill="none" stroke="white" stroke-width="2" d="M335.749,-279.249C341.749,-279.249 347.749,-285.249 347.749,-291.249"/>
<polyline fill="none" stroke="white" stroke-width="2" points="347.749,-291.249 347.749,-303.249 "/>
<path fill="none" stroke="white" stroke-width="2" d="M347.749,-303.249C347.749,-309.249 341.749,-315.249 335.749,-315.249"/>
<text text-anchor="middle" x="320.749" y="-294.749" font-family="Helvetica,sans-Serif" font-size="10.00">SMAD3</text>
</a>
</g>
<!-- MECP2&#45;&gt;SMAD3 -->
<g id="edge38" class="edge"><title>MECP2&#45;&gt;SMAD3</title>
<a xlink:title="SMAD3: 0.098||remove10">
<path fill="none" stroke="#ebc3ff" stroke-width="3" d="M186.551,-325.174C190.987,-323.069 195.606,-321.105 200.105,-319.569 227.995,-310.045 260.978,-304.296 285.403,-301.024"/>
<polygon fill="#ebc3ff" stroke="#ebc3ff" points="285.759,-303.801 293.338,-300.007 285.047,-298.246 285.759,-303.801"/>
</a>
</g>
<!-- RARG -->
<g id="node25" class="node"><title>RARG</title>
<a xlink:href="RARG.svg" xlink:title="Z&#45;value: 1.340||remove14">
<polygon fill="#5667ff" stroke="#5667ff" stroke-width="2" points="174.525,-36 144.525,-36 132.525,-24 132.525,-12 144.525,-6.39488e-14 174.525,-6.39488e-14 186.525,-12 186.525,-24 174.525,-36"/>
<path fill="#5667ff" stroke="#5667ff" stroke-width="2" d="M144.525,-36C138.525,-36 132.525,-30 132.525,-24"/>
<path fill="#5667ff" stroke="#5667ff" stroke-width="2" d="M132.525,-12C132.525,-6 138.525,-6.39488e-14 144.525,-6.39488e-14"/>
<path fill="#5667ff" stroke="#5667ff" stroke-width="2" d="M174.525,-6.39488e-14C180.525,-6.39488e-14 186.525,-6 186.525,-12"/>
<path fill="#5667ff" stroke="#5667ff" stroke-width="2" d="M186.525,-24C186.525,-30 180.525,-36 174.525,-36"/>
<polyline fill="none" stroke="white" stroke-width="2" points="174.525,-36 144.525,-36 "/>
<path fill="none" stroke="white" stroke-width="2" d="M144.525,-36C138.525,-36 132.525,-30 132.525,-24"/>
<polyline fill="none" stroke="white" stroke-width="2" points="132.525,-24 132.525,-12 "/>
<path fill="none" stroke="white" stroke-width="2" d="M132.525,-12C132.525,-6 138.525,-6.39488e-14 144.525,-6.39488e-14"/>
<polyline fill="none" stroke="white" stroke-width="2" points="144.525,-6.39488e-14 174.525,-6.39488e-14 "/>
<path fill="none" stroke="white" stroke-width="2" d="M174.525,-6.39488e-14C180.525,-6.39488e-14 186.525,-6 186.525,-12"/>
<polyline fill="none" stroke="white" stroke-width="2" points="186.525,-12 186.525,-24 "/>
<path fill="none" stroke="white" stroke-width="2" d="M186.525,-24C186.525,-30 180.525,-36 174.525,-36"/>
<text text-anchor="middle" x="159.525" y="-15.5" font-family="Helvetica,sans-Serif" font-size="10.00" fill="white">RARG</text>
</a>
</g>
<!-- MECP2&#45;&gt;RARG -->
<g id="edge42" class="edge"><title>MECP2&#45;&gt;RARG</title>
<a xlink:title="RARG: 0.084||remove10">
<path fill="none" stroke="#ecc4ff" stroke-width="3" d="M158.186,-322.295C156.288,-295.56 152.91,-244.014 151.685,-200.105 150.138,-144.699 154.378,-79.861 157.21,-44.4356"/>
<polygon fill="#ecc4ff" stroke="#ecc4ff" points="160.032,-44.2888 157.896,-36.0865 154.45,-43.8306 160.032,-44.2888"/>
</a>
</g>
<!-- HES1 -->
<g id="node30" class="node"><title>HES1</title>
<a xlink:href="HES1.svg" xlink:title="Z&#45;value: 1.505||remove13">
<polygon fill="#485aff" stroke="#485aff" stroke-width="2" points="260.925,-36 230.925,-36 218.925,-24 218.925,-12 230.925,-0 260.925,-0 272.925,-12 272.925,-24 260.925,-36"/>
<path fill="#485aff" stroke="#485aff" stroke-width="2" d="M230.925,-36C224.925,-36 218.925,-30 218.925,-24"/>
<path fill="#485aff" stroke="#485aff" stroke-width="2" d="M218.925,-12C218.925,-6 224.925,-0 230.925,-0"/>
<path fill="#485aff" stroke="#485aff" stroke-width="2" d="M260.925,-0C266.925,-0 272.925,-6 272.925,-12"/>
<path fill="#485aff" stroke="#485aff" stroke-width="2" d="M272.925,-24C272.925,-30 266.925,-36 260.925,-36"/>
<polyline fill="none" stroke="white" stroke-width="2" points="260.925,-36 230.925,-36 "/>
<path fill="none" stroke="white" stroke-width="2" d="M230.925,-36C224.925,-36 218.925,-30 218.925,-24"/>
<polyline fill="none" stroke="white" stroke-width="2" points="218.925,-24 218.925,-12 "/>
<path fill="none" stroke="white" stroke-width="2" d="M218.925,-12C218.925,-6 224.925,-0 230.925,-0"/>
<polyline fill="none" stroke="white" stroke-width="2" points="230.925,-0 260.925,-0 "/>
<path fill="none" stroke="white" stroke-width="2" d="M260.925,-0C266.925,-0 272.925,-6 272.925,-12"/>
<polyline fill="none" stroke="white" stroke-width="2" points="272.925,-12 272.925,-24 "/>
<path fill="none" stroke="white" stroke-width="2" d="M272.925,-24C272.925,-30 266.925,-36 260.925,-36"/>
<text text-anchor="middle" x="245.925" y="-15.5" font-family="Helvetica,sans-Serif" font-size="10.00" fill="white">HES1</text>
</a>
</g>
<!-- MECP2&#45;&gt;HES1 -->
<g id="edge40" class="edge"><title>MECP2&#45;&gt;HES1</title>
<a xlink:title="HES1: 0.046||remove3root">
<path fill="none" stroke="#edc8ff" stroke-width="3" d="M154.859,-322.373C147.106,-289.075 134.073,-216.163 151.685,-158.345 165.56,-112.792 199.702,-68.6063 222.848,-42.3525"/>
<polygon fill="#edc8ff" stroke="#edc8ff" points="225.221,-43.9 228.477,-36.0743 221.051,-40.1618 225.221,-43.9"/>
</a>
</g>
<!-- POU2F2_POU3F1&#45;&gt;HNF1A_HNF1B -->
<g id="edge54" class="edge"><title>POU2F2_POU3F1&#45;&gt;HNF1A_HNF1B</title>
<a xlink:title="HNF1B: 0.167||remove15root">
<path fill="none" stroke="#bdc4ff" stroke-width="3" d="M102.883,-279.067C123.302,-258.648 156.513,-225.437 178.969,-202.98"/>
<polygon fill="#bdc4ff" stroke="#bdc4ff" points="181.038,-204.871 184.715,-197.234 177.078,-200.911 181.038,-204.871"/>
</a>
</g>
<!-- POU2F2_POU3F1&#45;&gt;SMAD3 -->
<g id="edge56" class="edge"><title>POU2F2_POU3F1&#45;&gt;SMAD3</title>
<a xlink:title="SMAD3: 0.097||remove11">
<path fill="none" stroke="#ecc3ff" stroke-width="3" d="M133.323,-297.249C178.557,-297.249 244.884,-297.249 285.306,-297.249"/>
<polygon fill="#ecc3ff" stroke="#ecc3ff" points="285.522,-300.049 293.521,-297.249 285.521,-294.449 285.522,-300.049"/>
</a>
</g>
<!-- RCOR1_MTA3&#45;&gt;MECP2 -->
<g id="edge18" class="edge"><title>RCOR1_MTA3&#45;&gt;MECP2</title>
<a xlink:title="MECP2: 0.307||MTA3: 0.189||remove10">
<path fill="none" stroke="#e6b1ff" stroke-width="3" d="M91.0888,-238.481C109.485,-247.063 128.959,-259.141 142.321,-275.744 151.144,-286.882 155.636,-301.602 157.996,-314.319"/>
<path fill="none" stroke="#e9bbff" stroke-width="3" d="M90.2439,-240.294C108.431,-248.762 127.905,-260.841 140.759,-276.994 149.231,-287.466 153.723,-302.186 156.029,-314.683"/>
<polygon fill="#e9bbff" stroke="#e9bbff" points="91.3694,-236.636 82.9214,-235.949 89.0971,-241.754 91.3694,-236.636"/>
<polygon fill="#e6b1ff" stroke="#e6b1ff" points="154.248,-314.95 158.255,-322.419 159.781,-314.081 154.248,-314.95"/>
</a>
</g>
<!-- RCOR1_MTA3&#45;&gt;POU2F2_POU3F1 -->
<g id="edge20" class="edge"><title>RCOR1_MTA3&#45;&gt;POU2F2_POU3F1</title>
<a xlink:title="POU3F1: 0.024||remove1root">
<path fill="none" stroke="#eec9ff" stroke-width="3" d="M51.9575,-240.538C57.3829,-249.935 64.0997,-261.568 70.035,-271.849"/>
<polygon fill="#eec9ff" stroke="#eec9ff" points="67.7641,-273.516 74.1891,-279.044 72.6139,-270.715 67.7641,-273.516"/>
</a>
</g>
<!-- RCOR1_MTA3&#45;&gt;HNF4A -->
<g id="edge22" class="edge"><title>RCOR1_MTA3&#45;&gt;HNF4A</title>
<a xlink:title="HNF4A: 0.335||remove12">
<path fill="none" stroke="#e5afff" stroke-width="3" d="M82.9945,-222.425C147.001,-222.425 268.686,-222.425 328.692,-222.425"/>
<polygon fill="#e5afff" stroke="#e5afff" points="328.737,-225.225 336.737,-222.425 328.737,-219.625 328.737,-225.225"/>
</a>
</g>
<!-- RCOR1_MTA3&#45;&gt;RCOR1_MTA3 -->
<g id="edge24" class="edge"><title>RCOR1_MTA3&#45;&gt;RCOR1_MTA3</title>
<a xlink:title="RCOR1: 1.276||remove17">
<path fill="none" stroke="#cb5eff" stroke-width="3" d="M82.8547,-229.069C92.9714,-228.577 100.5,-226.362 100.5,-222.425 100.5,-219.656 96.778,-217.739 91.0513,-216.674"/>
<polygon fill="#cb5eff" stroke="#cb5eff" points="91.1112,-213.864 82.8547,-215.78 90.504,-219.431 91.1112,-213.864"/>
</a>
</g>
<!-- RCOR1_MTA3&#45;&gt;HNF1A_HNF1B -->
<g id="edge26" class="edge"><title>RCOR1_MTA3&#45;&gt;HNF1A_HNF1B</title>
<a xlink:title="HNF1A: 0.222||HNF1B: 0.113||remove17root">
<path fill="none" stroke="#b8bfff" stroke-width="3" d="M83.0193,-211.3C103.793,-205.733 129.137,-198.942 151.148,-193.045"/>
<polygon fill="#b8bfff" stroke="#b8bfff" points="152.089,-195.691 159.092,-190.916 150.639,-190.282 152.089,-195.691"/>
</a>
</g>
<!-- RCOR1_MTA3&#45;&gt;ZEB1 -->
<g id="edge30" class="edge"><title>RCOR1_MTA3&#45;&gt;ZEB1</title>
<a xlink:title="ZEB1: 1.445||MTA3: 0.121||remove17">
<path fill="none" stroke="#c64fff" stroke-width="3" d="M55.1011,-196.591C61.219,-184.789 67.8733,-170.285 71.8603,-156.624 78.5031,-133.981 81.428,-107.033 82.7052,-87.5975"/>
<path fill="none" stroke="#ebc1ff" stroke-width="3" d="M56.8767,-197.511C63.0368,-185.623 69.6911,-171.119 73.7797,-157.185 80.4914,-134.197 83.4163,-107.249 84.7008,-87.7287"/>
<polygon fill="#ebc1ff" stroke="#ebc1ff" points="53.355,-196.04 52.0618,-204.417 58.2965,-198.675 53.355,-196.04"/>
<polygon fill="#c64fff" stroke="#c64fff" points="86.5059,-87.6922 84.1705,-79.5445 80.9151,-87.3703 86.5059,-87.6922"/>
</a>
</g>
<!-- RCOR1_MTA3&#45;&gt;SMAD3 -->
<g id="edge28" class="edge"><title>RCOR1_MTA3&#45;&gt;SMAD3</title>
<a xlink:title="SMAD3: 0.247||remove11">
<path fill="none" stroke="#e7b6ff" stroke-width="3" d="M83.0049,-233.546C137.952,-248.269 233.894,-273.976 285.502,-287.805"/>
<polygon fill="#e7b6ff" stroke="#e7b6ff" points="284.939,-290.553 293.391,-289.919 286.388,-285.143 284.939,-290.553"/>
</a>
</g>
<!-- RCOR1_MTA3&#45;&gt;RARG -->
<g id="edge32" class="edge"><title>RCOR1_MTA3&#45;&gt;RARG</title>
<a xlink:title="RARG: 0.067||remove6root">
<path fill="none" stroke="#ecc6ff" stroke-width="3" d="M51.9739,-204.283C73.1025,-167.687 120.866,-84.9582 144.995,-43.1667"/>
<polygon fill="#ecc6ff" stroke="#ecc6ff" points="147.499,-44.4289 149.074,-36.1007 142.649,-41.6289 147.499,-44.4289"/>
</a>
</g>
<!-- HNF1A_HNF1B&#45;&gt;HNF4A -->
<g id="edge50" class="edge"><title>HNF1A_HNF1B&#45;&gt;HNF4A</title>
<a xlink:title="HNF4A: 0.119||HNF1A: 0.040||remove12root">
<path fill="none" stroke="#ffc1c1" stroke-width="3" d="M254.534,-192.072C278.744,-198.559 306.993,-206.128 328.757,-211.96"/>
<path fill="none" stroke="#c8cdff" stroke-width="3" d="M254.016,-194.003C278.227,-200.491 306.475,-208.06 328.239,-213.891"/>
<polygon fill="#c8cdff" stroke="#c8cdff" points="254.806,-190.281 246.354,-190.915 253.357,-195.69 254.806,-190.281"/>
<polygon fill="#ffc1c1" stroke="#ffc1c1" points="328.048,-215.704 336.5,-215.07 329.497,-210.294 328.048,-215.704"/>
</a>
</g>
<!-- HNF1A_HNF1B&#45;&gt;SMAD3 -->
<g id="edge52" class="edge"><title>HNF1A_HNF1B&#45;&gt;SMAD3</title>
<a xlink:title="SMAD3: 0.090||remove11root">
<path fill="none" stroke="#ffc4c4" stroke-width="3" d="M220.907,-197.407C241.326,-217.826 274.537,-251.037 296.994,-273.494"/>
<polygon fill="#ffc4c4" stroke="#ffc4c4" points="295.103,-275.563 302.74,-279.24 299.063,-271.603 295.103,-275.563"/>
</a>
</g>
<!-- NR2F1&#45;&gt;HNF1A_HNF1B -->
<g id="edge58" class="edge"><title>NR2F1&#45;&gt;HNF1A_HNF1B</title>
<a xlink:title="HNF1A: 0.071||remove8root">
<path fill="none" stroke="#c5cbff" stroke-width="3" d="M68.8496,-143.353C91.3359,-149.378 123.83,-158.085 151.174,-165.412"/>
<polygon fill="#c5cbff" stroke="#c5cbff" points="150.654,-168.171 159.107,-167.537 152.104,-162.762 150.654,-168.171"/>
</a>
</g>
<!-- ZEB1&#45;&gt;POU2F2_POU3F1 -->
<g id="edge44" class="edge"><title>ZEB1&#45;&gt;POU2F2_POU3F1</title>
<a xlink:title="POU2F2: 0.037||remove2root">
<path fill="none" stroke="#edc8ff" stroke-width="3" d="M86.0627,-79.301C88.3331,-112.041 92.3828,-183.276 89.64,-243.305 89.2301,-252.275 88.4387,-262.059 87.6075,-270.801"/>
<polygon fill="#edc8ff" stroke="#edc8ff" points="84.8173,-270.564 86.8095,-278.802 90.3896,-271.12 84.8173,-270.564"/>
</a>
</g>
<!-- ZEB1&#45;&gt;HNF1A_HNF1B -->
<g id="edge46" class="edge"><title>ZEB1&#45;&gt;HNF1A_HNF1B</title>
<a xlink:title="HNF1B: 0.436||remove18root">
<path fill="none" stroke="#a6afff" stroke-width="3" d="M102.883,-79.3827C123.302,-99.8017 156.513,-133.013 178.969,-155.469"/>
<polygon fill="#a6afff" stroke="#a6afff" points="177.078,-157.538 184.715,-161.215 181.038,-153.578 177.078,-157.538"/>
</a>
</g>
<!-- ZEB1&#45;&gt;ZEB1 -->
<g id="edge48" class="edge"><title>ZEB1&#45;&gt;ZEB1</title>
<a xlink:title="ZEB1: 0.449||remove18">
<path fill="none" stroke="#e2a5ff" stroke-width="3" d="M111.941,-67.9434C121.724,-68.0884 129.7,-65.8406 129.7,-61.2 129.7,-57.9371 125.757,-55.8571 120.015,-54.9601"/>
<polygon fill="#e2a5ff" stroke="#e2a5ff" points="120.1,-52.1601 111.941,-54.4566 119.751,-57.7492 120.1,-52.1601"/>
</a>
</g>
<!-- RARG&#45;&gt;HNF1A_HNF1B -->
<g id="edge60" class="edge"><title>RARG&#45;&gt;HNF1A_HNF1B</title>
<a xlink:title="HNF1B: 0.150||remove14root">
<path fill="none" stroke="#bfc5ff" stroke-width="3" d="M164.396,-36.1811C172.045,-64.7264 186.904,-120.183 195.706,-153.029"/>
<polygon fill="#bfc5ff" stroke="#bfc5ff" points="193.029,-153.86 197.805,-160.863 198.438,-152.41 193.029,-153.86"/>
</a>
</g>
<!-- RARG&#45;&gt;SMAD3 -->
<g id="edge62" class="edge"><title>RARG&#45;&gt;SMAD3</title>
<a xlink:title="SMAD3: 0.226||remove11">
<path fill="none" stroke="#e8b8ff" stroke-width="3" d="M172.884,-36.0814C191.978,-62.3089 227.646,-112.763 253.765,-158.345 275.665,-196.565 297.083,-243.033 309.593,-271.36"/>
<polygon fill="#e8b8ff" stroke="#e8b8ff" points="307.1,-272.646 312.878,-278.847 312.228,-270.396 307.1,-272.646"/>
</a>
</g>
<!-- RARG&#45;&gt;HES1 -->
<g id="edge64" class="edge"><title>RARG&#45;&gt;HES1</title>
<a xlink:title="HES1: 0.155||RARG: 0.012||remove13">
<path fill="none" stroke="#eabeff" stroke-width="3" d="M194.964,-17C200.179,-17 205.549,-17 210.758,-17"/>
<path fill="none" stroke="#eecaff" stroke-width="3" d="M194.964,-19C200.179,-19 205.549,-19 210.758,-19"/>
<polygon fill="#eecaff" stroke="#eecaff" points="194.862,-15.2001 186.862,-18 194.862,-20.8001 194.862,-15.2001"/>
<polygon fill="#eabeff" stroke="#eabeff" points="210.765,-20.8001 218.765,-18 210.765,-15.2001 210.765,-20.8001"/>
</a>
</g>
<!-- HES1&#45;&gt;HNF1A_HNF1B -->
<g id="edge66" class="edge"><title>HES1&#45;&gt;HNF1A_HNF1B</title>
<a xlink:title="HNF1A: 0.132||remove13root">
<path fill="none" stroke="#c0c6ff" stroke-width="3" d="M241.053,-36.1811C233.404,-64.7264 218.545,-120.183 209.744,-153.029"/>
<polygon fill="#c0c6ff" stroke="#c0c6ff" points="207.011,-152.41 207.645,-160.863 212.42,-153.86 207.011,-152.41"/>
</a>
</g>
<!-- HNF4G -->
<g id="node45" class="node"><title>HNF4G</title>
<a xlink:href="HNF4G.svg" xlink:title="Z&#45;value: 0.704||remove16">
<polygon fill="#8e99ff" stroke="#8e99ff" stroke-width="2" points="335.749,-79.2 305.749,-79.2 293.749,-67.2 293.749,-55.2 305.749,-43.2 335.749,-43.2 347.749,-55.2 347.749,-67.2 335.749,-79.2"/>
<path fill="#8e99ff" stroke="#8e99ff" stroke-width="2" d="M305.749,-79.2C299.749,-79.2 293.749,-73.2 293.749,-67.2"/>
<path fill="#8e99ff" stroke="#8e99ff" stroke-width="2" d="M293.749,-55.2C293.749,-49.2 299.749,-43.2 305.749,-43.2"/>
<path fill="#8e99ff" stroke="#8e99ff" stroke-width="2" d="M335.749,-43.2C341.749,-43.2 347.749,-49.2 347.749,-55.2"/>
<path fill="#8e99ff" stroke="#8e99ff" stroke-width="2" d="M347.749,-67.2C347.749,-73.2 341.749,-79.2 335.749,-79.2"/>
<polyline fill="none" stroke="white" stroke-width="2" points="335.749,-79.2 305.749,-79.2 "/>
<path fill="none" stroke="white" stroke-width="2" d="M305.749,-79.2C299.749,-79.2 293.749,-73.2 293.749,-67.2"/>
<polyline fill="none" stroke="white" stroke-width="2" points="293.749,-67.2 293.749,-55.2 "/>
<path fill="none" stroke="white" stroke-width="2" d="M293.749,-55.2C293.749,-49.2 299.749,-43.2 305.749,-43.2"/>
<polyline fill="none" stroke="white" stroke-width="2" points="305.749,-43.2 335.749,-43.2 "/>
<path fill="none" stroke="white" stroke-width="2" d="M335.749,-43.2C341.749,-43.2 347.749,-49.2 347.749,-55.2"/>
<polyline fill="none" stroke="white" stroke-width="2" points="347.749,-55.2 347.749,-67.2 "/>
<path fill="none" stroke="white" stroke-width="2" d="M347.749,-67.2C347.749,-73.2 341.749,-79.2 335.749,-79.2"/>
<text text-anchor="middle" x="320.749" y="-58.7" font-family="Helvetica,sans-Serif" font-size="10.00">HNF4G</text>
</a>
</g>
<!-- HNF4G&#45;&gt;HNF1A_HNF1B -->
<g id="edge68" class="edge"><title>HNF4G&#45;&gt;HNF1A_HNF1B</title>
<a xlink:title="HNF1A: 0.217||HNF1B: 0.133||remove16root">
<path fill="none" stroke="#b9c0ff" stroke-width="3" d="M302.567,-79.3827C282.148,-99.8017 248.937,-133.013 226.48,-155.469"/>
<polygon fill="#b9c0ff" stroke="#b9c0ff" points="224.411,-153.578 220.734,-161.215 228.371,-157.538 224.411,-153.578"/>
</a>
</g>
<!-- CREB3L2 -->
<g id="node47" class="node"><title>CREB3L2</title>
<a xlink:href="CREB3L2.svg" xlink:title="Z&#45;value: 0.581||remove7">
<polygon fill="#99a3ff" stroke="#99a3ff" stroke-width="2" points="382.199,-154.025 345.699,-154.025 333.699,-142.025 333.699,-130.025 345.699,-118.025 382.199,-118.025 394.199,-130.025 394.199,-142.025 382.199,-154.025"/>
<path fill="#99a3ff" stroke="#99a3ff" stroke-width="2" d="M345.699,-154.025C339.699,-154.025 333.699,-148.025 333.699,-142.025"/>
<path fill="#99a3ff" stroke="#99a3ff" stroke-width="2" d="M333.699,-130.025C333.699,-124.025 339.699,-118.025 345.699,-118.025"/>
<path fill="#99a3ff" stroke="#99a3ff" stroke-width="2" d="M382.199,-118.025C388.199,-118.025 394.199,-124.025 394.199,-130.025"/>
<path fill="#99a3ff" stroke="#99a3ff" stroke-width="2" d="M394.199,-142.025C394.199,-148.025 388.199,-154.025 382.199,-154.025"/>
<polyline fill="none" stroke="white" stroke-width="2" points="382.199,-154.025 345.699,-154.025 "/>
<path fill="none" stroke="white" stroke-width="2" d="M345.699,-154.025C339.699,-154.025 333.699,-148.025 333.699,-142.025"/>
<polyline fill="none" stroke="white" stroke-width="2" points="333.699,-142.025 333.699,-130.025 "/>
<path fill="none" stroke="white" stroke-width="2" d="M333.699,-130.025C333.699,-124.025 339.699,-118.025 345.699,-118.025"/>
<polyline fill="none" stroke="white" stroke-width="2" points="345.699,-118.025 382.199,-118.025 "/>
<path fill="none" stroke="white" stroke-width="2" d="M382.199,-118.025C388.199,-118.025 394.199,-124.025 394.199,-130.025"/>
<polyline fill="none" stroke="white" stroke-width="2" points="394.199,-130.025 394.199,-142.025 "/>
<path fill="none" stroke="white" stroke-width="2" d="M394.199,-142.025C394.199,-148.025 388.199,-154.025 382.199,-154.025"/>
<text text-anchor="middle" x="363.949" y="-133.525" font-family="Helvetica,sans-Serif" font-size="10.00">CREB3L2</text>
</a>
</g>
<!-- CREB3L2&#45;&gt;HNF1A_HNF1B -->
<g id="edge70" class="edge"><title>CREB3L2&#45;&gt;HNF1A_HNF1B</title>
<a xlink:title="HNF1A: 0.068||remove7root">
<path fill="none" stroke="#c6cbff" stroke-width="3" d="M333.245,-144.252C310.972,-150.22 280.319,-158.433 254.316,-165.401"/>
<polygon fill="#c6cbff" stroke="#c6cbff" points="253.413,-162.744 246.41,-167.519 254.862,-168.153 253.413,-162.744"/>
</a>
</g>
</g>
</svg>
