<?xml version="1.0" encoding="UTF-8" standalone="no"?>
<!DOCTYPE svg PUBLIC "-//W3C//DTD SVG 1.1//EN"
 "http://www.w3.org/Graphics/SVG/1.1/DTD/svg11.dtd">
<!-- Generated by graphviz version 2.28.0 (20110630.0925)
 -->
<!-- Title: _anonymous_0 Pages: 1 -->
<svg width="727pt" height="694pt"
 viewBox="0.00 0.00 726.94 693.55" xmlns="http://www.w3.org/2000/svg" xmlns:xlink="http://www.w3.org/1999/xlink">
<g id="graph1" class="graph" transform="scale(1 1) rotate(0) translate(4 689.552)">
<title>_anonymous_0</title>
<polygon fill="white" stroke="white" points="-4,5 -4,-689.552 723.941,-689.552 723.941,5 -4,5"/>
<!-- FOXM1_TBL1XR1 -->
<g id="node1" class="node"><title>FOXM1_TBL1XR1</title>
<a xlink:href="FOXM1_TBL1XR1.svg" xlink:title="Z&#45;value: 2.140||remove26">
<polygon fill="#3247ff" stroke="#3247ff" stroke-width="2" points="706.441,-453.217 633.441,-453.217 621.441,-441.217 621.441,-429.217 633.441,-417.217 706.441,-417.217 718.441,-429.217 718.441,-441.217 706.441,-453.217"/>
<path fill="#3247ff" stroke="#3247ff" stroke-width="2" d="M633.441,-453.217C627.441,-453.217 621.441,-447.217 621.441,-441.217"/>
<path fill="#3247ff" stroke="#3247ff" stroke-width="2" d="M621.441,-429.217C621.441,-423.217 627.441,-417.217 633.441,-417.217"/>
<path fill="#3247ff" stroke="#3247ff" stroke-width="2" d="M706.441,-417.217C712.441,-417.217 718.441,-423.217 718.441,-429.217"/>
<path fill="#3247ff" stroke="#3247ff" stroke-width="2" d="M718.441,-441.217C718.441,-447.217 712.441,-453.217 706.441,-453.217"/>
<polyline fill="none" stroke="white" stroke-width="2" points="706.441,-453.217 633.441,-453.217 "/>
<path fill="none" stroke="white" stroke-width="2" d="M633.441,-453.217C627.441,-453.217 621.441,-447.217 621.441,-441.217"/>
<polyline fill="none" stroke="white" stroke-width="2" points="621.441,-441.217 621.441,-429.217 "/>
<path fill="none" stroke="white" stroke-width="2" d="M621.441,-429.217C621.441,-423.217 627.441,-417.217 633.441,-417.217"/>
<polyline fill="none" stroke="white" stroke-width="2" points="633.441,-417.217 706.441,-417.217 "/>
<path fill="none" stroke="white" stroke-width="2" d="M706.441,-417.217C712.441,-417.217 718.441,-423.217 718.441,-429.217"/>
<polyline fill="none" stroke="white" stroke-width="2" points="718.441,-429.217 718.441,-441.217 "/>
<path fill="none" stroke="white" stroke-width="2" d="M718.441,-441.217C718.441,-447.217 712.441,-453.217 706.441,-453.217"/>
<text text-anchor="middle" x="669.941" y="-432.717" font-family="Helvetica,sans-Serif" font-size="10.00" fill="white">FOXM1_TBL1XR1</text>
</a>
</g>
<!-- HOXA10_HOXB9 -->
<g id="node2" class="node"><title>HOXA10_HOXB9</title>
<a xlink:href="HOXA10_HOXB9.svg" xlink:title="Z&#45;value: 0.533||remove25">
<polygon fill="#a5aeff" stroke="#a5aeff" stroke-width="2" points="605.236,-608.75 534.736,-608.75 522.736,-596.75 522.736,-584.75 534.736,-572.75 605.236,-572.75 617.236,-584.75 617.236,-596.75 605.236,-608.75"/>
<path fill="#a5aeff" stroke="#a5aeff" stroke-width="2" d="M534.736,-608.75C528.736,-608.75 522.736,-602.75 522.736,-596.75"/>
<path fill="#a5aeff" stroke="#a5aeff" stroke-width="2" d="M522.736,-584.75C522.736,-578.75 528.736,-572.75 534.736,-572.75"/>
<path fill="#a5aeff" stroke="#a5aeff" stroke-width="2" d="M605.236,-572.75C611.236,-572.75 617.236,-578.75 617.236,-584.75"/>
<path fill="#a5aeff" stroke="#a5aeff" stroke-width="2" d="M617.236,-596.75C617.236,-602.75 611.236,-608.75 605.236,-608.75"/>
<polyline fill="none" stroke="white" stroke-width="2" points="605.236,-608.75 534.736,-608.75 "/>
<path fill="none" stroke="white" stroke-width="2" d="M534.736,-608.75C528.736,-608.75 522.736,-602.75 522.736,-596.75"/>
<polyline fill="none" stroke="white" stroke-width="2" points="522.736,-596.75 522.736,-584.75 "/>
<path fill="none" stroke="white" stroke-width="2" d="M522.736,-584.75C522.736,-578.75 528.736,-572.75 534.736,-572.75"/>
<polyline fill="none" stroke="white" stroke-width="2" points="534.736,-572.75 605.236,-572.75 "/>
<path fill="none" stroke="white" stroke-width="2" d="M605.236,-572.75C611.236,-572.75 617.236,-578.75 617.236,-584.75"/>
<polyline fill="none" stroke="white" stroke-width="2" points="617.236,-584.75 617.236,-596.75 "/>
<path fill="none" stroke="white" stroke-width="2" d="M617.236,-596.75C617.236,-602.75 611.236,-608.75 605.236,-608.75"/>
<text text-anchor="middle" x="569.986" y="-588.25" font-family="Helvetica,sans-Serif" font-size="10.00">HOXA10_HOXB9</text>
</a>
</g>
<!-- FOXM1_TBL1XR1&#45;&gt;HOXA10_HOXB9 -->
<g id="edge2" class="edge"><title>FOXM1_TBL1XR1&#45;&gt;HOXA10_HOXB9</title>
<a xlink:title="HOXB9: 0.112||remove25">
<path fill="none" stroke="#e9bbff" stroke-width="3" d="M658.279,-453.363C640.448,-481.108 606.356,-534.157 586.15,-565.598"/>
<polygon fill="#e9bbff" stroke="#e9bbff" points="583.543,-564.475 581.573,-572.719 588.254,-567.503 583.543,-564.475"/>
</a>
</g>
<!-- SIN3A_CHD1 -->
<g id="node4" class="node"><title>SIN3A_CHD1</title>
<a xlink:href="SIN3A_CHD1.svg" xlink:title="Z&#45;value: 1.751||remove24">
<polygon fill="#4e60ff" stroke="#4e60ff" stroke-width="2" points="429.062,-685.552 374.562,-685.552 362.562,-673.552 362.562,-661.552 374.562,-649.552 429.062,-649.552 441.062,-661.552 441.062,-673.552 429.062,-685.552"/>
<path fill="#4e60ff" stroke="#4e60ff" stroke-width="2" d="M374.562,-685.552C368.562,-685.552 362.562,-679.552 362.562,-673.552"/>
<path fill="#4e60ff" stroke="#4e60ff" stroke-width="2" d="M362.562,-661.552C362.562,-655.552 368.562,-649.552 374.562,-649.552"/>
<path fill="#4e60ff" stroke="#4e60ff" stroke-width="2" d="M429.062,-649.552C435.062,-649.552 441.062,-655.552 441.062,-661.552"/>
<path fill="#4e60ff" stroke="#4e60ff" stroke-width="2" d="M441.062,-673.552C441.062,-679.552 435.062,-685.552 429.062,-685.552"/>
<polyline fill="none" stroke="white" stroke-width="2" points="429.062,-685.552 374.562,-685.552 "/>
<path fill="none" stroke="white" stroke-width="2" d="M374.562,-685.552C368.562,-685.552 362.562,-679.552 362.562,-673.552"/>
<polyline fill="none" stroke="white" stroke-width="2" points="362.562,-673.552 362.562,-661.552 "/>
<path fill="none" stroke="white" stroke-width="2" d="M362.562,-661.552C362.562,-655.552 368.562,-649.552 374.562,-649.552"/>
<polyline fill="none" stroke="white" stroke-width="2" points="374.562,-649.552 429.062,-649.552 "/>
<path fill="none" stroke="white" stroke-width="2" d="M429.062,-649.552C435.062,-649.552 441.062,-655.552 441.062,-661.552"/>
<polyline fill="none" stroke="white" stroke-width="2" points="441.062,-661.552 441.062,-673.552 "/>
<path fill="none" stroke="white" stroke-width="2" d="M441.062,-673.552C441.062,-679.552 435.062,-685.552 429.062,-685.552"/>
<text text-anchor="middle" x="401.812" y="-665.052" font-family="Helvetica,sans-Serif" font-size="10.00" fill="white">SIN3A_CHD1</text>
</a>
</g>
<!-- FOXM1_TBL1XR1&#45;&gt;SIN3A_CHD1 -->
<g id="edge4" class="edge"><title>FOXM1_TBL1XR1&#45;&gt;SIN3A_CHD1</title>
<a xlink:title="CHD1: 0.041||remove12root">
<path fill="none" stroke="#ecc5ff" stroke-width="3" d="M648.901,-453.448C600.736,-495.183 482.505,-597.631 428.954,-644.033"/>
<polygon fill="#ecc5ff" stroke="#ecc5ff" points="426.966,-642.051 422.754,-649.406 430.633,-646.283 426.966,-642.051"/>
</a>
</g>
<!-- HOXB13 -->
<g id="node6" class="node"><title>HOXB13</title>
<a xlink:href="HOXB13.svg" xlink:title="Z&#45;value: 0.197||remove29">
<polygon fill="#ffbdbd" stroke="#ffbdbd" stroke-width="2" points="370.616,-360.776 339.616,-360.776 327.616,-348.776 327.616,-336.776 339.616,-324.776 370.616,-324.776 382.616,-336.776 382.616,-348.776 370.616,-360.776"/>
<path fill="#ffbdbd" stroke="#ffbdbd" stroke-width="2" d="M339.616,-360.776C333.616,-360.776 327.616,-354.776 327.616,-348.776"/>
<path fill="#ffbdbd" stroke="#ffbdbd" stroke-width="2" d="M327.616,-336.776C327.616,-330.776 333.616,-324.776 339.616,-324.776"/>
<path fill="#ffbdbd" stroke="#ffbdbd" stroke-width="2" d="M370.616,-324.776C376.616,-324.776 382.616,-330.776 382.616,-336.776"/>
<path fill="#ffbdbd" stroke="#ffbdbd" stroke-width="2" d="M382.616,-348.776C382.616,-354.776 376.616,-360.776 370.616,-360.776"/>
<polyline fill="none" stroke="white" stroke-width="2" points="370.616,-360.776 339.616,-360.776 "/>
<path fill="none" stroke="white" stroke-width="2" d="M339.616,-360.776C333.616,-360.776 327.616,-354.776 327.616,-348.776"/>
<polyline fill="none" stroke="white" stroke-width="2" points="327.616,-348.776 327.616,-336.776 "/>
<path fill="none" stroke="white" stroke-width="2" d="M327.616,-336.776C327.616,-330.776 333.616,-324.776 339.616,-324.776"/>
<polyline fill="none" stroke="white" stroke-width="2" points="339.616,-324.776 370.616,-324.776 "/>
<path fill="none" stroke="white" stroke-width="2" d="M370.616,-324.776C376.616,-324.776 382.616,-330.776 382.616,-336.776"/>
<polyline fill="none" stroke="white" stroke-width="2" points="382.616,-336.776 382.616,-348.776 "/>
<path fill="none" stroke="white" stroke-width="2" d="M382.616,-348.776C382.616,-354.776 376.616,-360.776 370.616,-360.776"/>
<text text-anchor="middle" x="355.116" y="-340.276" font-family="Helvetica,sans-Serif" font-size="10.00">HOXB13</text>
</a>
</g>
<!-- FOXM1_TBL1XR1&#45;&gt;HOXB13 -->
<g id="edge6" class="edge"><title>FOXM1_TBL1XR1&#45;&gt;HOXB13</title>
<a xlink:title="HOXB13: 0.156||remove26root">
<path fill="none" stroke="#b4bbff" stroke-width="3" d="M621.439,-420.976C557.982,-402.343 448.208,-370.111 391.447,-353.444"/>
<polygon fill="#b4bbff" stroke="#b4bbff" points="391.933,-350.668 383.468,-351.101 390.355,-356.042 391.933,-350.668"/>
</a>
</g>
<!-- ELK4_ETV5_ELK1_ELK3_ELF4 -->
<g id="node8" class="node"><title>ELK4_ETV5_ELK1_ELK3_ELF4</title>
<a xlink:href="ELK4_ETV5_ELK1_ELK3_ELF4.svg" xlink:title="Z&#45;value: 1.430||remove18">
<polygon fill="#6575ff" stroke="#6575ff" stroke-width="2" points="285.312,-659.241 152.312,-659.241 140.312,-647.241 140.312,-635.241 152.312,-623.241 285.312,-623.241 297.312,-635.241 297.312,-647.241 285.312,-659.241"/>
<path fill="#6575ff" stroke="#6575ff" stroke-width="2" d="M152.312,-659.241C146.312,-659.241 140.312,-653.241 140.312,-647.241"/>
<path fill="#6575ff" stroke="#6575ff" stroke-width="2" d="M140.312,-635.241C140.312,-629.241 146.312,-623.241 152.312,-623.241"/>
<path fill="#6575ff" stroke="#6575ff" stroke-width="2" d="M285.312,-623.241C291.312,-623.241 297.312,-629.241 297.312,-635.241"/>
<path fill="#6575ff" stroke="#6575ff" stroke-width="2" d="M297.312,-647.241C297.312,-653.241 291.312,-659.241 285.312,-659.241"/>
<polyline fill="none" stroke="white" stroke-width="2" points="285.312,-659.241 152.312,-659.241 "/>
<path fill="none" stroke="white" stroke-width="2" d="M152.312,-659.241C146.312,-659.241 140.312,-653.241 140.312,-647.241"/>
<polyline fill="none" stroke="white" stroke-width="2" points="140.312,-647.241 140.312,-635.241 "/>
<path fill="none" stroke="white" stroke-width="2" d="M140.312,-635.241C140.312,-629.241 146.312,-623.241 152.312,-623.241"/>
<polyline fill="none" stroke="white" stroke-width="2" points="152.312,-623.241 285.312,-623.241 "/>
<path fill="none" stroke="white" stroke-width="2" d="M285.312,-623.241C291.312,-623.241 297.312,-629.241 297.312,-635.241"/>
<polyline fill="none" stroke="white" stroke-width="2" points="297.312,-635.241 297.312,-647.241 "/>
<path fill="none" stroke="white" stroke-width="2" d="M297.312,-647.241C297.312,-653.241 291.312,-659.241 285.312,-659.241"/>
<text text-anchor="middle" x="218.812" y="-638.741" font-family="Helvetica,sans-Serif" font-size="10.00" fill="white">ELK4_ETV5_ELK1_ELK3_ELF4</text>
</a>
</g>
<!-- FOXM1_TBL1XR1&#45;&gt;ELK4_ETV5_ELK1_ELK3_ELF4 -->
<g id="edge8" class="edge"><title>FOXM1_TBL1XR1&#45;&gt;ELK4_ETV5_ELK1_ELK3_ELF4</title>
<a xlink:title="ELK4: 0.042||ETV5: 0.010||remove14root">
<path fill="none" stroke="#ecc5ff" stroke-width="3" d="M630.301,-453.32C547.256,-491.245 355.332,-578.894 266.061,-619.663"/>
<polygon fill="#ecc5ff" stroke="#ecc5ff" points="264.636,-617.235 258.522,-623.106 266.962,-622.329 264.636,-617.235"/>
</a>
</g>
<!-- HOXC13 -->
<g id="node10" class="node"><title>HOXC13</title>
<a xlink:href="HOXC13.svg" xlink:title="Z&#45;value: 0.478||remove19">
<polygon fill="#a9b2ff" stroke="#a9b2ff" stroke-width="2" points="94.5872,-538.169 63.5872,-538.169 51.5872,-526.169 51.5872,-514.169 63.5872,-502.169 94.5872,-502.169 106.587,-514.169 106.587,-526.169 94.5872,-538.169"/>
<path fill="#a9b2ff" stroke="#a9b2ff" stroke-width="2" d="M63.5872,-538.169C57.5872,-538.169 51.5872,-532.169 51.5872,-526.169"/>
<path fill="#a9b2ff" stroke="#a9b2ff" stroke-width="2" d="M51.5872,-514.169C51.5872,-508.169 57.5872,-502.169 63.5872,-502.169"/>
<path fill="#a9b2ff" stroke="#a9b2ff" stroke-width="2" d="M94.5872,-502.169C100.587,-502.169 106.587,-508.169 106.587,-514.169"/>
<path fill="#a9b2ff" stroke="#a9b2ff" stroke-width="2" d="M106.587,-526.169C106.587,-532.169 100.587,-538.169 94.5872,-538.169"/>
<polyline fill="none" stroke="white" stroke-width="2" points="94.5872,-538.169 63.5872,-538.169 "/>
<path fill="none" stroke="white" stroke-width="2" d="M63.5872,-538.169C57.5872,-538.169 51.5872,-532.169 51.5872,-526.169"/>
<polyline fill="none" stroke="white" stroke-width="2" points="51.5872,-526.169 51.5872,-514.169 "/>
<path fill="none" stroke="white" stroke-width="2" d="M51.5872,-514.169C51.5872,-508.169 57.5872,-502.169 63.5872,-502.169"/>
<polyline fill="none" stroke="white" stroke-width="2" points="63.5872,-502.169 94.5872,-502.169 "/>
<path fill="none" stroke="white" stroke-width="2" d="M94.5872,-502.169C100.587,-502.169 106.587,-508.169 106.587,-514.169"/>
<polyline fill="none" stroke="white" stroke-width="2" points="106.587,-514.169 106.587,-526.169 "/>
<path fill="none" stroke="white" stroke-width="2" d="M106.587,-526.169C106.587,-532.169 100.587,-538.169 94.5872,-538.169"/>
<text text-anchor="middle" x="79.0872" y="-517.669" font-family="Helvetica,sans-Serif" font-size="10.00">HOXC13</text>
</a>
</g>
<!-- FOXM1_TBL1XR1&#45;&gt;HOXC13 -->
<g id="edge10" class="edge"><title>FOXM1_TBL1XR1&#45;&gt;HOXC13</title>
<a xlink:title="HOXC13: 0.025||remove4root">
<path fill="none" stroke="#edc8ff" stroke-width="3" d="M621.338,-442.205C505.882,-458.805 217.214,-500.309 115.363,-514.953"/>
<polygon fill="#edc8ff" stroke="#edc8ff" points="114.744,-512.213 107.224,-516.123 115.541,-517.756 114.744,-512.213"/>
</a>
</g>
<!-- IKZF1 -->
<g id="node12" class="node"><title>IKZF1</title>
<a xlink:href="IKZF1.svg" xlink:title="Z&#45;value: 1.300||remove13">
<polygon fill="#6f7dff" stroke="#6f7dff" stroke-width="2" points="42,-360.776 12,-360.776 0,-348.776 0,-336.776 12,-324.776 42,-324.776 54,-336.776 54,-348.776 42,-360.776"/>
<path fill="#6f7dff" stroke="#6f7dff" stroke-width="2" d="M12,-360.776C6,-360.776 0,-354.776 0,-348.776"/>
<path fill="#6f7dff" stroke="#6f7dff" stroke-width="2" d="M0,-336.776C0,-330.776 6,-324.776 12,-324.776"/>
<path fill="#6f7dff" stroke="#6f7dff" stroke-width="2" d="M42,-324.776C48,-324.776 54,-330.776 54,-336.776"/>
<path fill="#6f7dff" stroke="#6f7dff" stroke-width="2" d="M54,-348.776C54,-354.776 48,-360.776 42,-360.776"/>
<polyline fill="none" stroke="white" stroke-width="2" points="42,-360.776 12,-360.776 "/>
<path fill="none" stroke="white" stroke-width="2" d="M12,-360.776C6,-360.776 0,-354.776 0,-348.776"/>
<polyline fill="none" stroke="white" stroke-width="2" points="0,-348.776 0,-336.776 "/>
<path fill="none" stroke="white" stroke-width="2" d="M0,-336.776C0,-330.776 6,-324.776 12,-324.776"/>
<polyline fill="none" stroke="white" stroke-width="2" points="12,-324.776 42,-324.776 "/>
<path fill="none" stroke="white" stroke-width="2" d="M42,-324.776C48,-324.776 54,-330.776 54,-336.776"/>
<polyline fill="none" stroke="white" stroke-width="2" points="54,-336.776 54,-348.776 "/>
<path fill="none" stroke="white" stroke-width="2" d="M54,-348.776C54,-354.776 48,-360.776 42,-360.776"/>
<text text-anchor="middle" x="27" y="-340.276" font-family="Helvetica,sans-Serif" font-size="10.00" fill="white">IKZF1</text>
</a>
</g>
<!-- FOXM1_TBL1XR1&#45;&gt;IKZF1 -->
<g id="edge12" class="edge"><title>FOXM1_TBL1XR1&#45;&gt;IKZF1</title>
<a xlink:title="IKZF1: 0.008||remove2root">
<path fill="none" stroke="#eecaff" stroke-width="3" d="M621.352,-428.231C497.185,-410.378 170.432,-363.398 62.3064,-347.852"/>
<polygon fill="#eecaff" stroke="#eecaff" points="62.6254,-345.07 54.3083,-346.702 61.8284,-350.613 62.6254,-345.07"/>
</a>
</g>
<!-- MAZ_ZNF281_GTF2F1 -->
<g id="node14" class="node"><title>MAZ_ZNF281_GTF2F1</title>
<a xlink:href="MAZ_ZNF281_GTF2F1.svg" xlink:title="Z&#45;value: 1.186||remove27">
<polygon fill="#7784ff" stroke="#7784ff" stroke-width="2" points="126.337,-183.383 31.8372,-183.383 19.8372,-171.383 19.8372,-159.383 31.8372,-147.383 126.337,-147.383 138.337,-159.383 138.337,-171.383 126.337,-183.383"/>
<path fill="#7784ff" stroke="#7784ff" stroke-width="2" d="M31.8372,-183.383C25.8372,-183.383 19.8372,-177.383 19.8372,-171.383"/>
<path fill="#7784ff" stroke="#7784ff" stroke-width="2" d="M19.8372,-159.383C19.8372,-153.383 25.8372,-147.383 31.8372,-147.383"/>
<path fill="#7784ff" stroke="#7784ff" stroke-width="2" d="M126.337,-147.383C132.337,-147.383 138.337,-153.383 138.337,-159.383"/>
<path fill="#7784ff" stroke="#7784ff" stroke-width="2" d="M138.337,-171.383C138.337,-177.383 132.337,-183.383 126.337,-183.383"/>
<polyline fill="none" stroke="white" stroke-width="2" points="126.337,-183.383 31.8372,-183.383 "/>
<path fill="none" stroke="white" stroke-width="2" d="M31.8372,-183.383C25.8372,-183.383 19.8372,-177.383 19.8372,-171.383"/>
<polyline fill="none" stroke="white" stroke-width="2" points="19.8372,-171.383 19.8372,-159.383 "/>
<path fill="none" stroke="white" stroke-width="2" d="M19.8372,-159.383C19.8372,-153.383 25.8372,-147.383 31.8372,-147.383"/>
<polyline fill="none" stroke="white" stroke-width="2" points="31.8372,-147.383 126.337,-147.383 "/>
<path fill="none" stroke="white" stroke-width="2" d="M126.337,-147.383C132.337,-147.383 138.337,-153.383 138.337,-159.383"/>
<polyline fill="none" stroke="white" stroke-width="2" points="138.337,-159.383 138.337,-171.383 "/>
<path fill="none" stroke="white" stroke-width="2" d="M138.337,-171.383C138.337,-177.383 132.337,-183.383 126.337,-183.383"/>
<text text-anchor="middle" x="79.0872" y="-162.883" font-family="Helvetica,sans-Serif" font-size="10.00">MAZ_ZNF281_GTF2F1</text>
</a>
</g>
<!-- FOXM1_TBL1XR1&#45;&gt;MAZ_ZNF281_GTF2F1 -->
<g id="edge14" class="edge"><title>FOXM1_TBL1XR1&#45;&gt;MAZ_ZNF281_GTF2F1</title>
<a xlink:title="ZNF281: 0.039||MAZ: 0.015||TBL1XR1: 0.025||remove11root">
<path fill="none" stroke="#ecc6ff" stroke-width="3" d="M622.306,-414.562C511.521,-363.968 235.956,-238.122 125.53,-187.692"/>
<path fill="none" stroke="#edc8ff" stroke-width="3" d="M623.137,-412.743C512.352,-362.149 236.787,-236.303 126.361,-185.873"/>
<polygon fill="#edc8ff" stroke="#edc8ff" points="621.815,-416.317 630.256,-417.093 624.142,-411.223 621.815,-416.317"/>
<polygon fill="#ecc6ff" stroke="#ecc6ff" points="127.04,-184.204 118.6,-183.428 124.713,-189.298 127.04,-184.204"/>
</a>
</g>
<!-- HOXA10_HOXB9&#45;&gt;HOXB13 -->
<g id="edge74" class="edge"><title>HOXA10_HOXB9&#45;&gt;HOXB13</title>
<a xlink:title="HOXB13: 0.108||remove25root">
<path fill="none" stroke="#bbc2ff" stroke-width="3" d="M554.186,-572.515C516.157,-528.628 419.498,-417.077 376.409,-367.349"/>
<polygon fill="#bbc2ff" stroke="#bbc2ff" points="378.294,-365.249 370.939,-361.037 374.062,-368.917 378.294,-365.249"/>
</a>
</g>
<!-- SIN3A_CHD1&#45;&gt;SIN3A_CHD1 -->
<g id="edge48" class="edge"><title>SIN3A_CHD1&#45;&gt;SIN3A_CHD1</title>
<a xlink:title="CHD1: 0.054||remove17root">
<path fill="none" stroke="#ecc3ff" stroke-width="3" d="M441.239,-674.221C451.276,-673.783 458.812,-671.56 458.812,-667.552 458.812,-664.734 455.086,-662.799 449.385,-661.745"/>
<polygon fill="#ecc3ff" stroke="#ecc3ff" points="449.489,-658.941 441.239,-660.883 448.899,-664.51 449.489,-658.941"/>
</a>
</g>
<!-- SIN3A_CHD1&#45;&gt;HOXB13 -->
<g id="edge50" class="edge"><title>SIN3A_CHD1&#45;&gt;HOXB13</title>
<a xlink:title="HOXB13: 0.095||remove24root">
<path fill="none" stroke="#bdc4ff" stroke-width="3" d="M399.167,-649.16C391.301,-594.452 368.031,-432.604 358.876,-368.93"/>
<polygon fill="#bdc4ff" stroke="#bdc4ff" points="361.641,-368.486 357.731,-360.966 356.098,-369.283 361.641,-368.486"/>
</a>
</g>
<!-- SIN3A_CHD1&#45;&gt;ELK4_ETV5_ELK1_ELK3_ELF4 -->
<g id="edge52" class="edge"><title>SIN3A_CHD1&#45;&gt;ELK4_ETV5_ELK1_ELK3_ELF4</title>
<a xlink:title="ELK4: 0.423||ELK3: 0.080||ETV5: 0.034||remove18">
<path fill="none" stroke="#da8cff" stroke-width="3" d="M362.554,-661.908C345.772,-659.495 325.465,-656.575 305.467,-653.7"/>
<polygon fill="#da8cff" stroke="#da8cff" points="305.846,-650.926 297.529,-652.559 305.049,-656.469 305.846,-650.926"/>
</a>
</g>
<!-- SIN3A_CHD1&#45;&gt;HOXC13 -->
<g id="edge56" class="edge"><title>SIN3A_CHD1&#45;&gt;HOXC13</title>
<a xlink:title="HOXC13: 0.127||remove19">
<path fill="none" stroke="#e8b8ff" stroke-width="3" d="M368.244,-649.518C351.093,-640.481 329.809,-629.538 310.452,-620.361 241.843,-587.832 159.984,-553.384 114.333,-534.553"/>
<polygon fill="#e8b8ff" stroke="#e8b8ff" points="115.246,-531.901 106.783,-531.445 113.115,-537.08 115.246,-531.901"/>
</a>
</g>
<!-- SIN3A_CHD1&#45;&gt;MAZ_ZNF281_GTF2F1 -->
<g id="edge58" class="edge"><title>SIN3A_CHD1&#45;&gt;MAZ_ZNF281_GTF2F1</title>
<a xlink:title="MAZ: 0.257||ZNF281: 0.124||remove24">
<path fill="none" stroke="#e2a5ff" stroke-width="3" d="M390.135,-649.383C341.114,-573.104 151.868,-278.633 95.2064,-190.465"/>
<polygon fill="#e2a5ff" stroke="#e2a5ff" points="97.4288,-188.744 90.7481,-183.528 92.7178,-191.772 97.4288,-188.744"/>
</a>
</g>
<!-- YBX1_FOS_NFYC_NFYA_NFYB_CEBPZ -->
<g id="node21" class="node"><title>YBX1_FOS_NFYC_NFYA_NFYB_CEBPZ</title>
<a xlink:href="YBX1_FOS_NFYC_NFYA_NFYB_CEBPZ.svg" xlink:title="Z&#45;value: 1.883||remove28">
<polygon fill="#4557ff" stroke="#4557ff" stroke-width="2" points="491.312,-36 312.312,-36 300.312,-24 300.312,-12 312.312,6.39488e-14 491.312,6.39488e-14 503.312,-12 503.312,-24 491.312,-36"/>
<path fill="#4557ff" stroke="#4557ff" stroke-width="2" d="M312.312,-36C306.312,-36 300.312,-30 300.312,-24"/>
<path fill="#4557ff" stroke="#4557ff" stroke-width="2" d="M300.312,-12C300.312,-6 306.312,6.39488e-14 312.312,6.39488e-14"/>
<path fill="#4557ff" stroke="#4557ff" stroke-width="2" d="M491.312,6.39488e-14C497.312,6.39488e-14 503.312,-6 503.312,-12"/>
<path fill="#4557ff" stroke="#4557ff" stroke-width="2" d="M503.312,-24C503.312,-30 497.312,-36 491.312,-36"/>
<polyline fill="none" stroke="white" stroke-width="2" points="491.312,-36 312.312,-36 "/>
<path fill="none" stroke="white" stroke-width="2" d="M312.312,-36C306.312,-36 300.312,-30 300.312,-24"/>
<polyline fill="none" stroke="white" stroke-width="2" points="300.312,-24 300.312,-12 "/>
<path fill="none" stroke="white" stroke-width="2" d="M300.312,-12C300.312,-6 306.312,6.39488e-14 312.312,6.39488e-14"/>
<polyline fill="none" stroke="white" stroke-width="2" points="312.312,6.39488e-14 491.312,6.39488e-14 "/>
<path fill="none" stroke="white" stroke-width="2" d="M491.312,6.39488e-14C497.312,6.39488e-14 503.312,-6 503.312,-12"/>
<polyline fill="none" stroke="white" stroke-width="2" points="503.312,-12 503.312,-24 "/>
<path fill="none" stroke="white" stroke-width="2" d="M503.312,-24C503.312,-30 497.312,-36 491.312,-36"/>
<text text-anchor="middle" x="401.812" y="-15.5" font-family="Helvetica,sans-Serif" font-size="10.00" fill="white">YBX1_FOS_NFYC_NFYA_NFYB_CEBPZ</text>
</a>
</g>
<!-- SIN3A_CHD1&#45;&gt;YBX1_FOS_NFYC_NFYA_NFYB_CEBPZ -->
<g id="edge54" class="edge"><title>SIN3A_CHD1&#45;&gt;YBX1_FOS_NFYC_NFYA_NFYB_CEBPZ</title>
<a xlink:title="YBX1: 0.686||NFYB: 0.126||NFYC: 0.065||SIN3A: 0.085||remove24">
<path fill="none" stroke="#cd64ff" stroke-width="3" d="M400.812,-641.445C400.812,-536.964 400.812,-149.557 400.812,-44.4535"/>
<path fill="none" stroke="#eabfff" stroke-width="3" d="M402.812,-641.445C402.812,-536.964 402.812,-149.557 402.812,-44.4535"/>
<polygon fill="#eabfff" stroke="#eabfff" points="399.012,-641.501 401.812,-649.502 404.612,-641.502 399.012,-641.501"/>
<polygon fill="#cd64ff" stroke="#cd64ff" points="404.612,-44.2713 401.812,-36.2713 399.012,-44.2713 404.612,-44.2713"/>
</a>
</g>
<!-- ZNF524 -->
<g id="node34" class="node"><title>ZNF524</title>
<a xlink:href="ZNF524.svg" xlink:title="Z&#45;value: 0.848||remove20">
<polygon fill="#8f9aff" stroke="#8f9aff" stroke-width="2" points="684.941,-268.335 654.941,-268.335 642.941,-256.335 642.941,-244.335 654.941,-232.335 684.941,-232.335 696.941,-244.335 696.941,-256.335 684.941,-268.335"/>
<path fill="#8f9aff" stroke="#8f9aff" stroke-width="2" d="M654.941,-268.335C648.941,-268.335 642.941,-262.335 642.941,-256.335"/>
<path fill="#8f9aff" stroke="#8f9aff" stroke-width="2" d="M642.941,-244.335C642.941,-238.335 648.941,-232.335 654.941,-232.335"/>
<path fill="#8f9aff" stroke="#8f9aff" stroke-width="2" d="M684.941,-232.335C690.941,-232.335 696.941,-238.335 696.941,-244.335"/>
<path fill="#8f9aff" stroke="#8f9aff" stroke-width="2" d="M696.941,-256.335C696.941,-262.335 690.941,-268.335 684.941,-268.335"/>
<polyline fill="none" stroke="white" stroke-width="2" points="684.941,-268.335 654.941,-268.335 "/>
<path fill="none" stroke="white" stroke-width="2" d="M654.941,-268.335C648.941,-268.335 642.941,-262.335 642.941,-256.335"/>
<polyline fill="none" stroke="white" stroke-width="2" points="642.941,-256.335 642.941,-244.335 "/>
<path fill="none" stroke="white" stroke-width="2" d="M642.941,-244.335C642.941,-238.335 648.941,-232.335 654.941,-232.335"/>
<polyline fill="none" stroke="white" stroke-width="2" points="654.941,-232.335 684.941,-232.335 "/>
<path fill="none" stroke="white" stroke-width="2" d="M684.941,-232.335C690.941,-232.335 696.941,-238.335 696.941,-244.335"/>
<polyline fill="none" stroke="white" stroke-width="2" points="696.941,-244.335 696.941,-256.335 "/>
<path fill="none" stroke="white" stroke-width="2" d="M696.941,-256.335C696.941,-262.335 690.941,-268.335 684.941,-268.335"/>
<text text-anchor="middle" x="669.941" y="-247.835" font-family="Helvetica,sans-Serif" font-size="10.00">ZNF524</text>
</a>
</g>
<!-- SIN3A_CHD1&#45;&gt;ZNF524 -->
<g id="edge60" class="edge"><title>SIN3A_CHD1&#45;&gt;ZNF524</title>
<a xlink:title="ZNF524: 0.108||remove20">
<path fill="none" stroke="#e9bbff" stroke-width="3" d="M413.505,-649.357C456.274,-582.807 604.275,-352.513 653.716,-275.582"/>
<polygon fill="#e9bbff" stroke="#e9bbff" points="656.216,-276.87 658.186,-268.627 651.505,-273.843 656.216,-276.87"/>
</a>
</g>
<!-- HOXB13&#45;&gt;HOXB13 -->
<g id="edge78" class="edge"><title>HOXB13&#45;&gt;HOXB13</title>
<a xlink:title="HOXB13: 0.039||remove10root">
<path fill="none" stroke="#ffc6c6" stroke-width="3" d="M382.8,-349.524C392.38,-349.596 400.116,-347.346 400.116,-342.776 400.116,-339.634 396.459,-337.589 391.061,-336.641"/>
<polygon fill="#ffc6c6" stroke="#ffc6c6" points="390.985,-333.828 382.8,-336.028 390.571,-339.412 390.985,-333.828"/>
</a>
</g>
<!-- ELK4_ETV5_ELK1_ELK3_ELF4&#45;&gt;HOXA10_HOXB9 -->
<g id="edge32" class="edge"><title>ELK4_ETV5_ELK1_ELK3_ELF4&#45;&gt;HOXA10_HOXB9</title>
<a xlink:title="HOXA10: 0.110||remove18">
<path fill="none" stroke="#e9bbff" stroke-width="3" d="M297.622,-629.91C363.675,-620.413 456.301,-607.095 514.711,-598.697"/>
<polygon fill="#e9bbff" stroke="#e9bbff" points="515.199,-601.456 522.719,-597.545 514.402,-595.913 515.199,-601.456"/>
</a>
</g>
<!-- ELK4_ETV5_ELK1_ELK3_ELF4&#45;&gt;HOXB13 -->
<g id="edge34" class="edge"><title>ELK4_ETV5_ELK1_ELK3_ELF4&#45;&gt;HOXB13</title>
<a xlink:title="HOXB13: 0.055||remove18root">
<path fill="none" stroke="#c3c9ff" stroke-width="3" d="M227.133,-623.02C250.421,-572.026 316.312,-427.744 343.333,-368.577"/>
<polygon fill="#c3c9ff" stroke="#c3c9ff" points="345.954,-369.578 346.73,-361.138 340.86,-367.252 345.954,-369.578"/>
</a>
</g>
<!-- ELK4_ETV5_ELK1_ELK3_ELF4&#45;&gt;ELK4_ETV5_ELK1_ELK3_ELF4 -->
<g id="edge36" class="edge"><title>ELK4_ETV5_ELK1_ELK3_ELF4&#45;&gt;ELK4_ETV5_ELK1_ELK3_ELF4</title>
<a xlink:title="ELK4: 0.168||ELK3: 0.113||remove18">
<path fill="none" stroke="#e6b2ff" stroke-width="3" d="M297.531,-647.193C307.921,-646.178 314.812,-644.194 314.812,-641.241 314.812,-639.164 311.405,-637.567 305.771,-636.449"/>
<polygon fill="#e6b2ff" stroke="#e6b2ff" points="305.844,-633.631 297.531,-635.288 305.063,-639.177 305.844,-633.631"/>
</a>
</g>
<!-- ELK4_ETV5_ELK1_ELK3_ELF4&#45;&gt;HOXC13 -->
<g id="edge40" class="edge"><title>ELK4_ETV5_ELK1_ELK3_ELF4&#45;&gt;HOXC13</title>
<a xlink:title="HOXC13: 0.038||remove8root">
<path fill="none" stroke="#ecc6ff" stroke-width="3" d="M197.893,-623.115C173.508,-601.985 133.133,-567 106.32,-543.766"/>
<polygon fill="#ecc6ff" stroke="#ecc6ff" points="108.028,-541.541 100.148,-538.419 104.361,-545.774 108.028,-541.541"/>
</a>
</g>
<!-- ELK4_ETV5_ELK1_ELK3_ELF4&#45;&gt;IKZF1 -->
<g id="edge42" class="edge"><title>ELK4_ETV5_ELK1_ELK3_ELF4&#45;&gt;IKZF1</title>
<a xlink:title="IKZF1: 0.054||ELK4: 0.120||ELK3: 0.040||remove13">
<path fill="none" stroke="#ecc3ff" stroke-width="3" d="M201.726,-616.504C165.498,-560.133 78.4475,-424.68 42.3087,-368.447"/>
<path fill="none" stroke="#e8b9ff" stroke-width="3" d="M203.408,-615.423C167.18,-559.051 80.13,-423.598 43.9913,-367.365"/>
<polygon fill="#e8b9ff" stroke="#e8b9ff" points="200.421,-617.804 207.102,-623.02 205.132,-614.776 200.421,-617.804"/>
<polygon fill="#ecc3ff" stroke="#ecc3ff" points="45.4811,-366.354 38.8004,-361.138 40.7701,-369.382 45.4811,-366.354"/>
</a>
</g>
<!-- ELK4_ETV5_ELK1_ELK3_ELF4&#45;&gt;YBX1_FOS_NFYC_NFYA_NFYB_CEBPZ -->
<g id="edge38" class="edge"><title>ELK4_ETV5_ELK1_ELK3_ELF4&#45;&gt;YBX1_FOS_NFYC_NFYA_NFYB_CEBPZ</title>
<a xlink:title="YBX1: 0.163||NFYB: 0.125||NFYC: 0.065||ETV5: 0.845||ELK1: 0.000||remove18">
<path fill="none" stroke="#e6b3ff" stroke-width="3" d="M225.539,-614.781C255.401,-513.079 363.522,-144.853 393.245,-43.626"/>
<path fill="none" stroke="#c54cff" stroke-width="3" d="M227.458,-615.344C257.32,-513.643 365.441,-145.416 395.164,-44.1895"/>
<polygon fill="#c54cff" stroke="#c54cff" points="223.757,-614.461 224.189,-622.926 229.13,-616.039 223.757,-614.461"/>
<polygon fill="#e6b3ff" stroke="#e6b3ff" points="396.954,-44.4802 396.522,-36.0154 391.581,-42.9025 396.954,-44.4802"/>
</a>
</g>
<!-- FOXO4 -->
<g id="node32" class="node"><title>FOXO4</title>
<a xlink:href="FOXO4.svg" xlink:title="Z&#45;value: 0.515||remove21">
<polygon fill="#a7afff" stroke="#a7afff" stroke-width="2" points="584.986,-112.803 554.986,-112.803 542.986,-100.803 542.986,-88.8027 554.986,-76.8027 584.986,-76.8027 596.986,-88.8027 596.986,-100.803 584.986,-112.803"/>
<path fill="#a7afff" stroke="#a7afff" stroke-width="2" d="M554.986,-112.803C548.986,-112.803 542.986,-106.803 542.986,-100.803"/>
<path fill="#a7afff" stroke="#a7afff" stroke-width="2" d="M542.986,-88.8027C542.986,-82.8027 548.986,-76.8027 554.986,-76.8027"/>
<path fill="#a7afff" stroke="#a7afff" stroke-width="2" d="M584.986,-76.8027C590.986,-76.8027 596.986,-82.8027 596.986,-88.8027"/>
<path fill="#a7afff" stroke="#a7afff" stroke-width="2" d="M596.986,-100.803C596.986,-106.803 590.986,-112.803 584.986,-112.803"/>
<polyline fill="none" stroke="white" stroke-width="2" points="584.986,-112.803 554.986,-112.803 "/>
<path fill="none" stroke="white" stroke-width="2" d="M554.986,-112.803C548.986,-112.803 542.986,-106.803 542.986,-100.803"/>
<polyline fill="none" stroke="white" stroke-width="2" points="542.986,-100.803 542.986,-88.8027 "/>
<path fill="none" stroke="white" stroke-width="2" d="M542.986,-88.8027C542.986,-82.8027 548.986,-76.8027 554.986,-76.8027"/>
<polyline fill="none" stroke="white" stroke-width="2" points="554.986,-76.8027 584.986,-76.8027 "/>
<path fill="none" stroke="white" stroke-width="2" d="M584.986,-76.8027C590.986,-76.8027 596.986,-82.8027 596.986,-88.8027"/>
<polyline fill="none" stroke="white" stroke-width="2" points="596.986,-88.8027 596.986,-100.803 "/>
<path fill="none" stroke="white" stroke-width="2" d="M596.986,-100.803C596.986,-106.803 590.986,-112.803 584.986,-112.803"/>
<text text-anchor="middle" x="569.986" y="-92.3027" font-family="Helvetica,sans-Serif" font-size="10.00">FOXO4</text>
</a>
</g>
<!-- ELK4_ETV5_ELK1_ELK3_ELF4&#45;&gt;FOXO4 -->
<g id="edge44" class="edge"><title>ELK4_ETV5_ELK1_ELK3_ELF4&#45;&gt;FOXO4</title>
<a xlink:title="FOXO4: 0.006||ETV5: 0.092||ELK3: 0.016||remove18">
<path fill="none" stroke="#eecbff" stroke-width="3" d="M234.043,-615.69C292.609,-524.559 494.223,-210.842 552.964,-119.439"/>
<path fill="none" stroke="#eabeff" stroke-width="3" d="M235.726,-616.772C294.292,-525.641 495.906,-211.924 554.647,-120.521"/>
<polygon fill="#eabeff" stroke="#eabeff" points="232.465,-614.816 230.496,-623.06 237.176,-617.844 232.465,-614.816"/>
<polygon fill="#eecbff" stroke="#eecbff" points="556.288,-121.296 558.258,-113.052 551.577,-118.268 556.288,-121.296"/>
</a>
</g>
<!-- ELK4_ETV5_ELK1_ELK3_ELF4&#45;&gt;ZNF524 -->
<g id="edge46" class="edge"><title>ELK4_ETV5_ELK1_ELK3_ELF4&#45;&gt;ZNF524</title>
<a xlink:title="ZNF524: 0.100||remove18">
<path fill="none" stroke="#e9bcff" stroke-width="3" d="M239.666,-623.171C313.216,-559.439 560.516,-345.152 642.948,-273.725"/>
<polygon fill="#e9bcff" stroke="#e9bcff" points="644.836,-275.794 649.048,-268.439 641.169,-271.561 644.836,-275.794"/>
</a>
</g>
<!-- HOXC13&#45;&gt;HOXB13 -->
<g id="edge76" class="edge"><title>HOXC13&#45;&gt;HOXB13</title>
<a xlink:title="HOXB13: 0.059||remove19root">
<path fill="none" stroke="#c3c9ff" stroke-width="3" d="M106.818,-502.348C157.556,-469.74 265.198,-400.563 320.592,-364.964"/>
<polygon fill="#c3c9ff" stroke="#c3c9ff" points="322.188,-367.266 327.404,-360.586 319.16,-362.555 322.188,-367.266"/>
</a>
</g>
<!-- IKZF1&#45;&gt;HOXA10_HOXB9 -->
<g id="edge62" class="edge"><title>IKZF1&#45;&gt;HOXA10_HOXB9</title>
<a xlink:title="HOXA10: 0.060||HOXB9: 0.002||remove13">
<path fill="none" stroke="#ebc2ff" stroke-width="3" d="M54.2989,-355.243C141.332,-394.99 412.97,-519.043 523.001,-569.292"/>
<polygon fill="#ebc2ff" stroke="#ebc2ff" points="521.885,-571.861 530.325,-572.637 524.211,-566.767 521.885,-571.861"/>
</a>
</g>
<!-- IKZF1&#45;&gt;SIN3A_CHD1 -->
<g id="edge64" class="edge"><title>IKZF1&#45;&gt;SIN3A_CHD1</title>
<a xlink:title="SIN3A: 0.037||remove7root">
<path fill="none" stroke="#ecc6ff" stroke-width="3" d="M47.9546,-360.933C111.705,-416.174 303.302,-582.193 374.649,-644.016"/>
<polygon fill="#ecc6ff" stroke="#ecc6ff" points="372.894,-646.2 380.774,-649.323 376.561,-641.968 372.894,-646.2"/>
</a>
</g>
<!-- IKZF1&#45;&gt;HOXB13 -->
<g id="edge66" class="edge"><title>IKZF1&#45;&gt;HOXB13</title>
<a xlink:title="HOXB13: 0.042||remove13root">
<path fill="none" stroke="#c5cbff" stroke-width="3" d="M54.1302,-342.776C113.174,-342.776 253.317,-342.776 319.427,-342.776"/>
<polygon fill="#c5cbff" stroke="#c5cbff" points="319.491,-345.576 327.491,-342.776 319.491,-339.976 319.491,-345.576"/>
</a>
</g>
<!-- IKZF1&#45;&gt;YBX1_FOS_NFYC_NFYA_NFYB_CEBPZ -->
<g id="edge68" class="edge"><title>IKZF1&#45;&gt;YBX1_FOS_NFYC_NFYA_NFYB_CEBPZ</title>
<a xlink:title="NFYB: 0.030||FOS: 0.025||CEBPZ: 0.016||YBX1: 0.013||IKZF1: 0.059||remove13">
<path fill="none" stroke="#edc7ff" stroke-width="3" d="M53.4145,-318.565C122.43,-258.762 304.399,-101.085 373.765,-40.9794"/>
<path fill="none" stroke="#ebc3ff" stroke-width="3" d="M54.7242,-320.076C123.74,-260.274 305.709,-102.597 375.075,-42.4909"/>
<polygon fill="#ebc3ff" stroke="#ebc3ff" points="52.167,-317.264 47.9546,-324.619 55.8343,-321.496 52.167,-317.264"/>
<polygon fill="#edc7ff" stroke="#edc7ff" points="376.561,-43.5846 380.774,-36.2296 372.894,-39.3524 376.561,-43.5846"/>
</a>
</g>
<!-- IKZF1&#45;&gt;FOXO4 -->
<g id="edge70" class="edge"><title>IKZF1&#45;&gt;FOXO4</title>
<a xlink:title="FOXO4: 0.038||remove9root">
<path fill="none" stroke="#ecc6ff" stroke-width="3" d="M54.2989,-330.309C144.844,-288.959 435.192,-156.361 535.508,-110.548"/>
<polygon fill="#ecc6ff" stroke="#ecc6ff" points="536.841,-113.018 542.955,-107.147 534.515,-107.924 536.841,-113.018"/>
</a>
</g>
<!-- IKZF1&#45;&gt;ZNF524 -->
<g id="edge72" class="edge"><title>IKZF1&#45;&gt;ZNF524</title>
<a xlink:title="ZNF524: 0.132||remove13">
<path fill="none" stroke="#e8b8ff" stroke-width="3" d="M54.2157,-338.863C156.697,-324.129 519.347,-271.987 634.543,-255.425"/>
<polygon fill="#e8b8ff" stroke="#e8b8ff" points="635.198,-258.159 642.718,-254.249 634.401,-252.616 635.198,-258.159"/>
</a>
</g>
<!-- MAZ_ZNF281_GTF2F1&#45;&gt;HOXA10_HOXB9 -->
<g id="edge16" class="edge"><title>MAZ_ZNF281_GTF2F1&#45;&gt;HOXA10_HOXB9</title>
<a xlink:title="HOXB9: 0.089||HOXA10: 0.044||remove23root">
<path fill="none" stroke="#eabeff" stroke-width="3" d="M99.867,-183.389C178.114,-251.19 455.005,-491.118 542.959,-567.33"/>
<polygon fill="#eabeff" stroke="#eabeff" points="541.321,-569.616 549.201,-572.739 544.989,-565.384 541.321,-569.616"/>
</a>
</g>
<!-- MAZ_ZNF281_GTF2F1&#45;&gt;HOXB13 -->
<g id="edge18" class="edge"><title>MAZ_ZNF281_GTF2F1&#45;&gt;HOXB13</title>
<a xlink:title="HOXB13: 0.166||remove27root">
<path fill="none" stroke="#b2baff" stroke-width="3" d="M107.33,-183.534C158.324,-216.306 265.582,-285.236 320.745,-320.687"/>
<polygon fill="#b2baff" stroke="#b2baff" points="319.284,-323.077 327.528,-325.047 322.312,-318.366 319.284,-323.077"/>
</a>
</g>
<!-- MAZ_ZNF281_GTF2F1&#45;&gt;ELK4_ETV5_ELK1_ELK3_ELF4 -->
<g id="edge20" class="edge"><title>MAZ_ZNF281_GTF2F1&#45;&gt;ELK4_ETV5_ELK1_ELK3_ELF4</title>
<a xlink:title="ETV5: 0.031||ELK3: 0.026||GTF2F1: 0.160||ZNF281: 0.034||MAZ: 0.021||remove18">
<path fill="none" stroke="#edc7ff" stroke-width="3" d="M87.6083,-190.854C111.893,-273.559 187.738,-531.864 212.132,-614.943"/>
<path fill="none" stroke="#e6b3ff" stroke-width="3" d="M85.6893,-191.417C109.974,-274.123 185.819,-532.428 210.213,-615.506"/>
<polygon fill="#e6b3ff" stroke="#e6b3ff" points="89.3345,-190.343 84.394,-183.456 83.9613,-191.921 89.3345,-190.343"/>
<polygon fill="#edc7ff" stroke="#edc7ff" points="208.559,-616.263 213.5,-623.15 213.932,-614.685 208.559,-616.263"/>
</a>
</g>
<!-- MAZ_ZNF281_GTF2F1&#45;&gt;HOXC13 -->
<g id="edge26" class="edge"><title>MAZ_ZNF281_GTF2F1&#45;&gt;HOXC13</title>
<a xlink:title="HOXC13: 0.004||remove0root">
<path fill="none" stroke="#eecbff" stroke-width="3" d="M79.0872,-183.465C79.0872,-241.829 79.0872,-425.387 79.0872,-493.973"/>
<polygon fill="#eecbff" stroke="#eecbff" points="76.2873,-494.124 79.0872,-502.124 81.8873,-494.124 76.2873,-494.124"/>
</a>
</g>
<!-- MAZ_ZNF281_GTF2F1&#45;&gt;IKZF1 -->
<g id="edge28" class="edge"><title>MAZ_ZNF281_GTF2F1&#45;&gt;IKZF1</title>
<a xlink:title="IKZF1: 0.001||MAZ: 0.119||ZNF281: 0.033||remove13">
<path fill="none" stroke="#eecbff" stroke-width="3" d="M72.3972,-191.717C62.5476,-225.262 45.5275,-283.227 35.6554,-316.848"/>
<path fill="none" stroke="#e8baff" stroke-width="3" d="M70.4782,-191.154C60.6286,-224.698 43.6085,-282.663 33.7364,-316.284"/>
<polygon fill="#e8baff" stroke="#e8baff" points="74.1418,-192.164 73.7092,-183.699 68.7687,-190.586 74.1418,-192.164"/>
<polygon fill="#eecbff" stroke="#eecbff" points="31.9162,-316.095 32.3488,-324.56 37.2893,-317.673 31.9162,-316.095"/>
</a>
</g>
<!-- MAZ_ZNF281_GTF2F1&#45;&gt;MAZ_ZNF281_GTF2F1 -->
<g id="edge30" class="edge"><title>MAZ_ZNF281_GTF2F1&#45;&gt;MAZ_ZNF281_GTF2F1</title>
<a xlink:title="MAZ: 0.032||remove6root">
<path fill="none" stroke="#edc7ff" stroke-width="3" d="M138.492,-171.711C148.868,-170.868 156.087,-168.758 156.087,-165.383 156.087,-163.01 152.518,-161.263 146.792,-160.141"/>
<polygon fill="#edc7ff" stroke="#edc7ff" points="146.787,-157.317 138.492,-159.055 146.061,-162.869 146.787,-157.317"/>
</a>
</g>
<!-- HOXD11_HOXA11 -->
<g id="node19" class="node"><title>HOXD11_HOXA11</title>
<a xlink:href="HOXD11_HOXA11.svg" xlink:title="Z&#45;value: 0.598||remove16">
<polygon fill="#a1aaff" stroke="#a1aaff" stroke-width="2" points="257.062,-62.3114 180.562,-62.3114 168.562,-50.3114 168.562,-38.3114 180.562,-26.3114 257.062,-26.3114 269.062,-38.3114 269.062,-50.3114 257.062,-62.3114"/>
<path fill="#a1aaff" stroke="#a1aaff" stroke-width="2" d="M180.562,-62.3114C174.562,-62.3114 168.562,-56.3114 168.562,-50.3114"/>
<path fill="#a1aaff" stroke="#a1aaff" stroke-width="2" d="M168.562,-38.3114C168.562,-32.3114 174.562,-26.3114 180.562,-26.3114"/>
<path fill="#a1aaff" stroke="#a1aaff" stroke-width="2" d="M257.062,-26.3114C263.062,-26.3114 269.062,-32.3114 269.062,-38.3114"/>
<path fill="#a1aaff" stroke="#a1aaff" stroke-width="2" d="M269.062,-50.3114C269.062,-56.3114 263.062,-62.3114 257.062,-62.3114"/>
<polyline fill="none" stroke="white" stroke-width="2" points="257.062,-62.3114 180.562,-62.3114 "/>
<path fill="none" stroke="white" stroke-width="2" d="M180.562,-62.3114C174.562,-62.3114 168.562,-56.3114 168.562,-50.3114"/>
<polyline fill="none" stroke="white" stroke-width="2" points="168.562,-50.3114 168.562,-38.3114 "/>
<path fill="none" stroke="white" stroke-width="2" d="M168.562,-38.3114C168.562,-32.3114 174.562,-26.3114 180.562,-26.3114"/>
<polyline fill="none" stroke="white" stroke-width="2" points="180.562,-26.3114 257.062,-26.3114 "/>
<path fill="none" stroke="white" stroke-width="2" d="M257.062,-26.3114C263.062,-26.3114 269.062,-32.3114 269.062,-38.3114"/>
<polyline fill="none" stroke="white" stroke-width="2" points="269.062,-38.3114 269.062,-50.3114 "/>
<path fill="none" stroke="white" stroke-width="2" d="M269.062,-50.3114C269.062,-56.3114 263.062,-62.3114 257.062,-62.3114"/>
<text text-anchor="middle" x="218.812" y="-41.8114" font-family="Helvetica,sans-Serif" font-size="10.00">HOXD11_HOXA11</text>
</a>
</g>
<!-- MAZ_ZNF281_GTF2F1&#45;&gt;HOXD11_HOXA11 -->
<g id="edge22" class="edge"><title>MAZ_ZNF281_GTF2F1&#45;&gt;HOXD11_HOXA11</title>
<a xlink:title="HOXD11: 0.061||remove16">
<path fill="none" stroke="#ebc2ff" stroke-width="3" d="M100.005,-147.258C124.391,-126.127 164.766,-91.1423 191.579,-67.909"/>
<polygon fill="#ebc2ff" stroke="#ebc2ff" points="193.538,-69.916 197.75,-62.561 189.871,-65.6838 193.538,-69.916"/>
</a>
</g>
<!-- MAZ_ZNF281_GTF2F1&#45;&gt;YBX1_FOS_NFYC_NFYA_NFYB_CEBPZ -->
<g id="edge24" class="edge"><title>MAZ_ZNF281_GTF2F1&#45;&gt;YBX1_FOS_NFYC_NFYA_NFYB_CEBPZ</title>
<a xlink:title="YBX1: 0.087||NFYB: 0.047||FOS: 0.027||NFYC: 0.013||ZNF281: 0.017||remove22root">
<path fill="none" stroke="#eabeff" stroke-width="3" d="M125.768,-142.965C186.895,-115.05 292.956,-66.6134 354.154,-38.6651"/>
<path fill="none" stroke="#edc9ff" stroke-width="3" d="M126.599,-144.785C187.726,-116.869 293.787,-68.4327 354.985,-40.4844"/>
<polygon fill="#edc9ff" stroke="#edc9ff" points="124.773,-141.441 118.66,-147.311 127.1,-146.535 124.773,-141.441"/>
<polygon fill="#eabeff" stroke="#eabeff" points="356.055,-41.9747 362.169,-36.1044 353.728,-36.8808 356.055,-41.9747"/>
</a>
</g>
<!-- HOXD11_HOXA11&#45;&gt;HOXB13 -->
<g id="edge98" class="edge"><title>HOXD11_HOXA11&#45;&gt;HOXB13</title>
<a xlink:title="HOXB13: 0.054||remove16root">
<path fill="none" stroke="#c3c9ff" stroke-width="3" d="M227.133,-62.5324C250.421,-113.527 316.312,-257.808 343.333,-316.976"/>
<polygon fill="#c3c9ff" stroke="#c3c9ff" points="340.86,-318.3 346.73,-324.414 345.954,-315.974 340.86,-318.3"/>
</a>
</g>
<!-- YBX1_FOS_NFYC_NFYA_NFYB_CEBPZ&#45;&gt;HOXB13 -->
<g id="edge80" class="edge"><title>YBX1_FOS_NFYC_NFYA_NFYB_CEBPZ&#45;&gt;HOXB13</title>
<a xlink:title="HOXB13: 0.180||remove28root">
<path fill="none" stroke="#b0b8ff" stroke-width="3" d="M399.167,-36.3919C391.301,-91.0998 368.031,-252.949 358.876,-316.622"/>
<polygon fill="#b0b8ff" stroke="#b0b8ff" points="356.098,-316.269 357.731,-324.586 361.641,-317.066 356.098,-316.269"/>
</a>
</g>
<!-- YBX1_FOS_NFYC_NFYA_NFYB_CEBPZ&#45;&gt;HOXC13 -->
<g id="edge84" class="edge"><title>YBX1_FOS_NFYC_NFYA_NFYB_CEBPZ&#45;&gt;HOXC13</title>
<a xlink:title="HOXC13: 0.254||remove19">
<path fill="none" stroke="#e2a5ff" stroke-width="3" d="M390.135,-36.1691C341.114,-112.448 151.868,-406.92 95.2064,-495.087"/>
<polygon fill="#e2a5ff" stroke="#e2a5ff" points="92.7178,-493.78 90.7481,-502.024 97.4288,-496.808 92.7178,-493.78"/>
</a>
</g>
<!-- YBX1_FOS_NFYC_NFYA_NFYB_CEBPZ&#45;&gt;YBX1_FOS_NFYC_NFYA_NFYB_CEBPZ -->
<g id="edge82" class="edge"><title>YBX1_FOS_NFYC_NFYA_NFYB_CEBPZ&#45;&gt;YBX1_FOS_NFYC_NFYA_NFYB_CEBPZ</title>
<a xlink:title="NFYC: 1.015||remove28">
<path fill="none" stroke="#bd32ff" stroke-width="3" d="M503.376,-23.5927C514.002,-22.501 520.812,-20.6367 520.812,-18 520.812,-16.1049 517.294,-14.6088 511.37,-13.5118"/>
<polygon fill="#bd32ff" stroke="#bd32ff" points="511.684,-10.7287 503.376,-12.4073 510.918,-16.276 511.684,-10.7287"/>
</a>
</g>
<!-- YBX1_FOS_NFYC_NFYA_NFYB_CEBPZ&#45;&gt;ZNF524 -->
<g id="edge86" class="edge"><title>YBX1_FOS_NFYC_NFYA_NFYB_CEBPZ&#45;&gt;ZNF524</title>
<a xlink:title="ZNF524: 0.022||remove3root">
<path fill="none" stroke="#edc8ff" stroke-width="3" d="M422.851,-36.231C471.016,-77.966 589.247,-180.414 642.798,-226.816"/>
<polygon fill="#edc8ff" stroke="#edc8ff" points="641.119,-229.066 648.999,-232.189 644.786,-224.834 641.119,-229.066"/>
</a>
</g>
<!-- FOXO4&#45;&gt;HOXB13 -->
<g id="edge96" class="edge"><title>FOXO4&#45;&gt;HOXB13</title>
<a xlink:title="HOXB13: 0.085||remove21root">
<path fill="none" stroke="#bfc5ff" stroke-width="3" d="M554.186,-113.037C516.157,-156.924 419.498,-268.476 376.409,-318.203"/>
<polygon fill="#bfc5ff" stroke="#bfc5ff" points="374.062,-316.636 370.939,-324.515 378.294,-320.303 374.062,-316.636"/>
</a>
</g>
<!-- ZNF524&#45;&gt;FOXM1_TBL1XR1 -->
<g id="edge90" class="edge"><title>ZNF524&#45;&gt;FOXM1_TBL1XR1</title>
<a xlink:title="FOXM1: 0.006||remove1root">
<path fill="none" stroke="#eecbff" stroke-width="3" d="M669.941,-268.399C669.941,-301.259 669.941,-370.927 669.941,-409.011"/>
<polygon fill="#eecbff" stroke="#eecbff" points="667.141,-409.08 669.941,-417.08 672.741,-409.08 667.141,-409.08"/>
</a>
</g>
<!-- ZNF524&#45;&gt;HOXB13 -->
<g id="edge88" class="edge"><title>ZNF524&#45;&gt;HOXB13</title>
<a xlink:title="HOXB13: 0.066||remove20root">
<path fill="none" stroke="#c2c8ff" stroke-width="3" d="M642.826,-258.297C585.899,-275.012 453.962,-313.752 390.484,-332.391"/>
<polygon fill="#c2c8ff" stroke="#c2c8ff" points="389.613,-329.729 382.726,-334.669 391.191,-335.102 389.613,-329.729"/>
</a>
</g>
<!-- ZNF524&#45;&gt;MAZ_ZNF281_GTF2F1 -->
<g id="edge92" class="edge"><title>ZNF524&#45;&gt;MAZ_ZNF281_GTF2F1</title>
<a xlink:title="GTF2F1: 0.046||MAZ: 0.013||remove15root">
<path fill="none" stroke="#ecc5ff" stroke-width="3" d="M642.628,-246.408C554.484,-233.735 275.815,-193.668 146.375,-175.058"/>
<polygon fill="#ecc5ff" stroke="#ecc5ff" points="146.761,-172.285 138.444,-173.918 145.964,-177.828 146.761,-172.285"/>
</a>
</g>
<!-- ZNF524&#45;&gt;FOXO4 -->
<g id="edge94" class="edge"><title>ZNF524&#45;&gt;FOXO4</title>
<a xlink:title="FOXO4: 0.028||remove5root">
<path fill="none" stroke="#edc7ff" stroke-width="3" d="M658.279,-232.189C640.448,-204.444 606.356,-151.395 586.15,-119.954"/>
<polygon fill="#edc7ff" stroke="#edc7ff" points="588.254,-118.049 581.573,-112.833 583.543,-121.077 588.254,-118.049"/>
</a>
</g>
</g>
</svg>
