<?xml version="1.0" encoding="UTF-8" standalone="no"?>
<!DOCTYPE svg PUBLIC "-//W3C//DTD SVG 1.1//EN"
 "http://www.w3.org/Graphics/SVG/1.1/DTD/svg11.dtd">
<!-- Generated by graphviz version 2.28.0 (20110630.0925)
 -->
<!-- Title: _anonymous_0 Pages: 1 -->
<svg width="524pt" height="487pt"
 viewBox="0.00 0.00 524.37 487.37" xmlns="http://www.w3.org/2000/svg" xmlns:xlink="http://www.w3.org/1999/xlink">
<g id="graph1" class="graph" transform="scale(1 1) rotate(0) translate(4 483.368)">
<title>_anonymous_0</title>
<polygon fill="white" stroke="white" points="-4,5 -4,-483.368 521.368,-483.368 521.368,5 -4,5"/>
<!-- GATA3 -->
<g id="node1" class="node"><title>GATA3</title>
<a xlink:href="GATA3.svg" xlink:title="Z&#45;value: 2.023||remove27">
<polygon fill="#3247ff" stroke="#3247ff" stroke-width="2" points="42,-198.284 12,-198.284 0,-186.284 0,-174.284 12,-162.284 42,-162.284 54,-174.284 54,-186.284 42,-198.284"/>
<path fill="#3247ff" stroke="#3247ff" stroke-width="2" d="M12,-198.284C6,-198.284 0,-192.284 0,-186.284"/>
<path fill="#3247ff" stroke="#3247ff" stroke-width="2" d="M0,-174.284C0,-168.284 6,-162.284 12,-162.284"/>
<path fill="#3247ff" stroke="#3247ff" stroke-width="2" d="M42,-162.284C48,-162.284 54,-168.284 54,-174.284"/>
<path fill="#3247ff" stroke="#3247ff" stroke-width="2" d="M54,-186.284C54,-192.284 48,-198.284 42,-198.284"/>
<polyline fill="none" stroke="white" stroke-width="2" points="42,-198.284 12,-198.284 "/>
<path fill="none" stroke="white" stroke-width="2" d="M12,-198.284C6,-198.284 0,-192.284 0,-186.284"/>
<polyline fill="none" stroke="white" stroke-width="2" points="0,-186.284 0,-174.284 "/>
<path fill="none" stroke="white" stroke-width="2" d="M0,-174.284C0,-168.284 6,-162.284 12,-162.284"/>
<polyline fill="none" stroke="white" stroke-width="2" points="12,-162.284 42,-162.284 "/>
<path fill="none" stroke="white" stroke-width="2" d="M42,-162.284C48,-162.284 54,-168.284 54,-174.284"/>
<polyline fill="none" stroke="white" stroke-width="2" points="54,-174.284 54,-186.284 "/>
<path fill="none" stroke="white" stroke-width="2" d="M54,-186.284C54,-192.284 48,-198.284 42,-198.284"/>
<text text-anchor="middle" x="27" y="-177.784" font-family="Helvetica,sans-Serif" font-size="10.00" fill="white">GATA3</text>
</a>
</g>
<!-- HOXC8 -->
<g id="node2" class="node"><title>HOXC8</title>
<a xlink:href="HOXC8.svg" xlink:title="Z&#45;value: 0.905||remove37">
<polygon fill="#ff8787" stroke="#ff8787" stroke-width="2" points="263.684,-257.684 233.684,-257.684 221.684,-245.684 221.684,-233.684 233.684,-221.684 263.684,-221.684 275.684,-233.684 275.684,-245.684 263.684,-257.684"/>
<path fill="#ff8787" stroke="#ff8787" stroke-width="2" d="M233.684,-257.684C227.684,-257.684 221.684,-251.684 221.684,-245.684"/>
<path fill="#ff8787" stroke="#ff8787" stroke-width="2" d="M221.684,-233.684C221.684,-227.684 227.684,-221.684 233.684,-221.684"/>
<path fill="#ff8787" stroke="#ff8787" stroke-width="2" d="M263.684,-221.684C269.684,-221.684 275.684,-227.684 275.684,-233.684"/>
<path fill="#ff8787" stroke="#ff8787" stroke-width="2" d="M275.684,-245.684C275.684,-251.684 269.684,-257.684 263.684,-257.684"/>
<polyline fill="none" stroke="white" stroke-width="2" points="263.684,-257.684 233.684,-257.684 "/>
<path fill="none" stroke="white" stroke-width="2" d="M233.684,-257.684C227.684,-257.684 221.684,-251.684 221.684,-245.684"/>
<polyline fill="none" stroke="white" stroke-width="2" points="221.684,-245.684 221.684,-233.684 "/>
<path fill="none" stroke="white" stroke-width="2" d="M221.684,-233.684C221.684,-227.684 227.684,-221.684 233.684,-221.684"/>
<polyline fill="none" stroke="white" stroke-width="2" points="233.684,-221.684 263.684,-221.684 "/>
<path fill="none" stroke="white" stroke-width="2" d="M263.684,-221.684C269.684,-221.684 275.684,-227.684 275.684,-233.684"/>
<polyline fill="none" stroke="white" stroke-width="2" points="275.684,-233.684 275.684,-245.684 "/>
<path fill="none" stroke="white" stroke-width="2" d="M275.684,-245.684C275.684,-251.684 269.684,-257.684 263.684,-257.684"/>
<text text-anchor="middle" x="248.684" y="-237.184" font-family="Helvetica,sans-Serif" font-size="10.00">HOXC8</text>
</a>
</g>
<!-- GATA3&#45;&gt;HOXC8 -->
<g id="edge2" class="edge"><title>GATA3&#45;&gt;HOXC8</title>
<a xlink:title="HOXC8: 0.146||remove27root">
<path fill="none" stroke="#a9b2ff" stroke-width="3" d="M54.1828,-187.567C94.3457,-198.329 169.544,-218.478 213.748,-230.323"/>
<polygon fill="#a9b2ff" stroke="#a9b2ff" points="213.174,-233.068 221.626,-232.434 214.623,-227.658 213.174,-233.068"/>
</a>
</g>
<!-- SMAD1 -->
<g id="node4" class="node"><title>SMAD1</title>
<a xlink:href="SMAD1.svg" xlink:title="Z&#45;value: 1.536||remove32">
<polygon fill="#5768ff" stroke="#5768ff" stroke-width="2" points="101.4,-95.4 71.4,-95.4 59.4,-83.4 59.4,-71.4 71.4,-59.4 101.4,-59.4 113.4,-71.4 113.4,-83.4 101.4,-95.4"/>
<path fill="#5768ff" stroke="#5768ff" stroke-width="2" d="M71.4,-95.4C65.4,-95.4 59.4,-89.4 59.4,-83.4"/>
<path fill="#5768ff" stroke="#5768ff" stroke-width="2" d="M59.4,-71.4C59.4,-65.4 65.4,-59.4 71.4,-59.4"/>
<path fill="#5768ff" stroke="#5768ff" stroke-width="2" d="M101.4,-59.4C107.4,-59.4 113.4,-65.4 113.4,-71.4"/>
<path fill="#5768ff" stroke="#5768ff" stroke-width="2" d="M113.4,-83.4C113.4,-89.4 107.4,-95.4 101.4,-95.4"/>
<polyline fill="none" stroke="white" stroke-width="2" points="101.4,-95.4 71.4,-95.4 "/>
<path fill="none" stroke="white" stroke-width="2" d="M71.4,-95.4C65.4,-95.4 59.4,-89.4 59.4,-83.4"/>
<polyline fill="none" stroke="white" stroke-width="2" points="59.4,-83.4 59.4,-71.4 "/>
<path fill="none" stroke="white" stroke-width="2" d="M59.4,-71.4C59.4,-65.4 65.4,-59.4 71.4,-59.4"/>
<polyline fill="none" stroke="white" stroke-width="2" points="71.4,-59.4 101.4,-59.4 "/>
<path fill="none" stroke="white" stroke-width="2" d="M101.4,-59.4C107.4,-59.4 113.4,-65.4 113.4,-71.4"/>
<polyline fill="none" stroke="white" stroke-width="2" points="113.4,-71.4 113.4,-83.4 "/>
<path fill="none" stroke="white" stroke-width="2" d="M113.4,-83.4C113.4,-89.4 107.4,-95.4 101.4,-95.4"/>
<text text-anchor="middle" x="86.4" y="-74.9" font-family="Helvetica,sans-Serif" font-size="10.00" fill="white">SMAD1</text>
</a>
</g>
<!-- GATA3&#45;&gt;SMAD1 -->
<g id="edge4" class="edge"><title>GATA3&#45;&gt;SMAD1</title>
<a xlink:title="SMAD1: 0.235||remove27">
<path fill="none" stroke="#dd95ff" stroke-width="3" d="M37.6195,-161.89C47.1645,-145.358 61.2689,-120.928 71.8595,-102.585"/>
<polygon fill="#dd95ff" stroke="#dd95ff" points="74.2972,-103.963 75.8724,-95.6343 69.4475,-101.163 74.2972,-103.963"/>
</a>
</g>
<!-- SIX1_SIX3_SIX2 -->
<g id="node6" class="node"><title>SIX1_SIX3_SIX2</title>
<a xlink:href="SIX1_SIX3_SIX2.svg" xlink:title="Z&#45;value: 0.540||remove23">
<polygon fill="#a3acff" stroke="#a3acff" stroke-width="2" points="504.368,-317.084 436.368,-317.084 424.368,-305.084 424.368,-293.084 436.368,-281.084 504.368,-281.084 516.368,-293.084 516.368,-305.084 504.368,-317.084"/>
<path fill="#a3acff" stroke="#a3acff" stroke-width="2" d="M436.368,-317.084C430.368,-317.084 424.368,-311.084 424.368,-305.084"/>
<path fill="#a3acff" stroke="#a3acff" stroke-width="2" d="M424.368,-293.084C424.368,-287.084 430.368,-281.084 436.368,-281.084"/>
<path fill="#a3acff" stroke="#a3acff" stroke-width="2" d="M504.368,-281.084C510.368,-281.084 516.368,-287.084 516.368,-293.084"/>
<path fill="#a3acff" stroke="#a3acff" stroke-width="2" d="M516.368,-305.084C516.368,-311.084 510.368,-317.084 504.368,-317.084"/>
<polyline fill="none" stroke="white" stroke-width="2" points="504.368,-317.084 436.368,-317.084 "/>
<path fill="none" stroke="white" stroke-width="2" d="M436.368,-317.084C430.368,-317.084 424.368,-311.084 424.368,-305.084"/>
<polyline fill="none" stroke="white" stroke-width="2" points="424.368,-305.084 424.368,-293.084 "/>
<path fill="none" stroke="white" stroke-width="2" d="M424.368,-293.084C424.368,-287.084 430.368,-281.084 436.368,-281.084"/>
<polyline fill="none" stroke="white" stroke-width="2" points="436.368,-281.084 504.368,-281.084 "/>
<path fill="none" stroke="white" stroke-width="2" d="M504.368,-281.084C510.368,-281.084 516.368,-287.084 516.368,-293.084"/>
<polyline fill="none" stroke="white" stroke-width="2" points="516.368,-293.084 516.368,-305.084 "/>
<path fill="none" stroke="white" stroke-width="2" d="M516.368,-305.084C516.368,-311.084 510.368,-317.084 504.368,-317.084"/>
<text text-anchor="middle" x="470.368" y="-296.584" font-family="Helvetica,sans-Serif" font-size="10.00">SIX1_SIX3_SIX2</text>
</a>
</g>
<!-- GATA3&#45;&gt;SIX1_SIX3_SIX2 -->
<g id="edge6" class="edge"><title>GATA3&#45;&gt;SIX1_SIX3_SIX2</title>
<a xlink:title="SIX1: 0.658||remove23">
<path fill="none" stroke="#bd32ff" stroke-width="3" d="M54.2816,-194.343C90.5608,-212.438 157.128,-243.562 217.364,-260.564 284.335,-279.466 364.059,-289.658 415.865,-294.722"/>
<polygon fill="#bd32ff" stroke="#bd32ff" points="415.704,-297.519 423.934,-295.491 416.236,-291.944 415.704,-297.519"/>
</a>
</g>
<!-- CREB5_CREM_JUNB -->
<g id="node8" class="node"><title>CREB5_CREM_JUNB</title>
<a xlink:href="CREB5_CREM_JUNB.svg" xlink:title="Z&#45;value: 0.521||remove26">
<polygon fill="#a4adff" stroke="#a4adff" stroke-width="2" points="457.968,-419.968 363.968,-419.968 351.968,-407.968 351.968,-395.968 363.968,-383.968 457.968,-383.968 469.968,-395.968 469.968,-407.968 457.968,-419.968"/>
<path fill="#a4adff" stroke="#a4adff" stroke-width="2" d="M363.968,-419.968C357.968,-419.968 351.968,-413.968 351.968,-407.968"/>
<path fill="#a4adff" stroke="#a4adff" stroke-width="2" d="M351.968,-395.968C351.968,-389.968 357.968,-383.968 363.968,-383.968"/>
<path fill="#a4adff" stroke="#a4adff" stroke-width="2" d="M457.968,-383.968C463.968,-383.968 469.968,-389.968 469.968,-395.968"/>
<path fill="#a4adff" stroke="#a4adff" stroke-width="2" d="M469.968,-407.968C469.968,-413.968 463.968,-419.968 457.968,-419.968"/>
<polyline fill="none" stroke="white" stroke-width="2" points="457.968,-419.968 363.968,-419.968 "/>
<path fill="none" stroke="white" stroke-width="2" d="M363.968,-419.968C357.968,-419.968 351.968,-413.968 351.968,-407.968"/>
<polyline fill="none" stroke="white" stroke-width="2" points="351.968,-407.968 351.968,-395.968 "/>
<path fill="none" stroke="white" stroke-width="2" d="M351.968,-395.968C351.968,-389.968 357.968,-383.968 363.968,-383.968"/>
<polyline fill="none" stroke="white" stroke-width="2" points="363.968,-383.968 457.968,-383.968 "/>
<path fill="none" stroke="white" stroke-width="2" d="M457.968,-383.968C463.968,-383.968 469.968,-389.968 469.968,-395.968"/>
<polyline fill="none" stroke="white" stroke-width="2" points="469.968,-395.968 469.968,-407.968 "/>
<path fill="none" stroke="white" stroke-width="2" d="M469.968,-407.968C469.968,-413.968 463.968,-419.968 457.968,-419.968"/>
<text text-anchor="middle" x="410.968" y="-399.468" font-family="Helvetica,sans-Serif" font-size="10.00">CREB5_CREM_JUNB</text>
</a>
</g>
<!-- GATA3&#45;&gt;CREB5_CREM_JUNB -->
<g id="edge8" class="edge"><title>GATA3&#45;&gt;CREB5_CREM_JUNB</title>
<a xlink:title="CREM: 0.159||remove26">
<path fill="none" stroke="#e2a7ff" stroke-width="3" d="M54.3062,-196.049C121.443,-234.811 294.732,-334.859 372.36,-379.677"/>
<polygon fill="#e2a7ff" stroke="#e2a7ff" points="371.238,-382.263 379.567,-383.838 374.038,-377.413 371.238,-382.263"/>
</a>
</g>
<!-- HOXC8&#45;&gt;HOXC8 -->
<g id="edge20" class="edge"><title>HOXC8&#45;&gt;HOXC8</title>
<a xlink:title="HOXC8: 0.061||remove11root">
<path fill="none" stroke="#ffbdbd" stroke-width="3" d="M275.925,-246.427C285.708,-246.572 293.684,-244.324 293.684,-239.684 293.684,-236.421 289.741,-234.341 283.999,-233.444"/>
<polygon fill="#ffbdbd" stroke="#ffbdbd" points="284.083,-230.644 275.925,-232.94 283.735,-236.233 284.083,-230.644"/>
</a>
</g>
<!-- HOXC8&#45;&gt;SIX1_SIX3_SIX2 -->
<g id="edge24" class="edge"><title>HOXC8&#45;&gt;SIX1_SIX3_SIX2</title>
<a xlink:title="SIX1: 0.133||remove23root">
<path fill="none" stroke="#ffacac" stroke-width="3" d="M275.867,-246.967C310.659,-256.29 371.745,-272.658 416.196,-284.569"/>
<polygon fill="#ffacac" stroke="#ffacac" points="415.561,-287.297 424.014,-286.663 417.011,-281.888 415.561,-287.297"/>
</a>
</g>
<!-- HOXC8&#45;&gt;CREB5_CREM_JUNB -->
<g id="edge28" class="edge"><title>HOXC8&#45;&gt;CREB5_CREM_JUNB</title>
<a xlink:title="CREM: 0.143||remove26root">
<path fill="none" stroke="#ffaaaa" stroke-width="3" d="M266.984,-257.984C296.326,-287.326 353.915,-344.915 386.67,-377.67"/>
<polygon fill="#ffaaaa" stroke="#ffaaaa" points="384.848,-379.808 392.485,-383.485 388.808,-375.848 384.848,-379.808"/>
</a>
</g>
<!-- RORC -->
<g id="node14" class="node"><title>RORC</title>
<a xlink:href="RORC.svg" xlink:title="Z&#45;value: 0.191||remove30">
<polygon fill="#bdc4ff" stroke="#bdc4ff" stroke-width="2" points="323.084,-479.368 293.084,-479.368 281.084,-467.368 281.084,-455.368 293.084,-443.368 323.084,-443.368 335.084,-455.368 335.084,-467.368 323.084,-479.368"/>
<path fill="#bdc4ff" stroke="#bdc4ff" stroke-width="2" d="M293.084,-479.368C287.084,-479.368 281.084,-473.368 281.084,-467.368"/>
<path fill="#bdc4ff" stroke="#bdc4ff" stroke-width="2" d="M281.084,-455.368C281.084,-449.368 287.084,-443.368 293.084,-443.368"/>
<path fill="#bdc4ff" stroke="#bdc4ff" stroke-width="2" d="M323.084,-443.368C329.084,-443.368 335.084,-449.368 335.084,-455.368"/>
<path fill="#bdc4ff" stroke="#bdc4ff" stroke-width="2" d="M335.084,-467.368C335.084,-473.368 329.084,-479.368 323.084,-479.368"/>
<polyline fill="none" stroke="white" stroke-width="2" points="323.084,-479.368 293.084,-479.368 "/>
<path fill="none" stroke="white" stroke-width="2" d="M293.084,-479.368C287.084,-479.368 281.084,-473.368 281.084,-467.368"/>
<polyline fill="none" stroke="white" stroke-width="2" points="281.084,-467.368 281.084,-455.368 "/>
<path fill="none" stroke="white" stroke-width="2" d="M281.084,-455.368C281.084,-449.368 287.084,-443.368 293.084,-443.368"/>
<polyline fill="none" stroke="white" stroke-width="2" points="293.084,-443.368 323.084,-443.368 "/>
<path fill="none" stroke="white" stroke-width="2" d="M323.084,-443.368C329.084,-443.368 335.084,-449.368 335.084,-455.368"/>
<polyline fill="none" stroke="white" stroke-width="2" points="335.084,-455.368 335.084,-467.368 "/>
<path fill="none" stroke="white" stroke-width="2" d="M335.084,-467.368C335.084,-473.368 329.084,-479.368 323.084,-479.368"/>
<text text-anchor="middle" x="308.084" y="-458.868" font-family="Helvetica,sans-Serif" font-size="10.00">RORC</text>
</a>
</g>
<!-- HOXC8&#45;&gt;RORC -->
<g id="edge30" class="edge"><title>HOXC8&#45;&gt;RORC</title>
<a xlink:title="RORC: 0.185||remove30root">
<path fill="none" stroke="#ffa0a0" stroke-width="3" d="M253.545,-257.825C264.057,-297.057 288.936,-389.906 301.118,-435.372"/>
<polygon fill="#ffa0a0" stroke="#ffa0a0" points="298.464,-436.284 303.239,-443.287 303.873,-434.834 298.464,-436.284"/>
</a>
</g>
<!-- MLX_USF2_USF1_PAX2 -->
<g id="node16" class="node"><title>MLX_USF2_USF1_PAX2</title>
<a xlink:href="MLX_USF2_USF1_PAX2.svg" xlink:title="Z&#45;value: 0.581||remove25">
<polygon fill="#a0a9ff" stroke="#a0a9ff" stroke-width="2" points="241.534,-479.368 137.034,-479.368 125.034,-467.368 125.034,-455.368 137.034,-443.368 241.534,-443.368 253.534,-455.368 253.534,-467.368 241.534,-479.368"/>
<path fill="#a0a9ff" stroke="#a0a9ff" stroke-width="2" d="M137.034,-479.368C131.034,-479.368 125.034,-473.368 125.034,-467.368"/>
<path fill="#a0a9ff" stroke="#a0a9ff" stroke-width="2" d="M125.034,-455.368C125.034,-449.368 131.034,-443.368 137.034,-443.368"/>
<path fill="#a0a9ff" stroke="#a0a9ff" stroke-width="2" d="M241.534,-443.368C247.534,-443.368 253.534,-449.368 253.534,-455.368"/>
<path fill="#a0a9ff" stroke="#a0a9ff" stroke-width="2" d="M253.534,-467.368C253.534,-473.368 247.534,-479.368 241.534,-479.368"/>
<polyline fill="none" stroke="white" stroke-width="2" points="241.534,-479.368 137.034,-479.368 "/>
<path fill="none" stroke="white" stroke-width="2" d="M137.034,-479.368C131.034,-479.368 125.034,-473.368 125.034,-467.368"/>
<polyline fill="none" stroke="white" stroke-width="2" points="125.034,-467.368 125.034,-455.368 "/>
<path fill="none" stroke="white" stroke-width="2" d="M125.034,-455.368C125.034,-449.368 131.034,-443.368 137.034,-443.368"/>
<polyline fill="none" stroke="white" stroke-width="2" points="137.034,-443.368 241.534,-443.368 "/>
<path fill="none" stroke="white" stroke-width="2" d="M241.534,-443.368C247.534,-443.368 253.534,-449.368 253.534,-455.368"/>
<polyline fill="none" stroke="white" stroke-width="2" points="253.534,-455.368 253.534,-467.368 "/>
<path fill="none" stroke="white" stroke-width="2" d="M253.534,-467.368C253.534,-473.368 247.534,-479.368 241.534,-479.368"/>
<text text-anchor="middle" x="189.284" y="-458.868" font-family="Helvetica,sans-Serif" font-size="10.00">MLX_USF2_USF1_PAX2</text>
</a>
</g>
<!-- HOXC8&#45;&gt;MLX_USF2_USF1_PAX2 -->
<g id="edge32" class="edge"><title>HOXC8&#45;&gt;MLX_USF2_USF1_PAX2</title>
<a xlink:title="USF1: 0.141||remove25root">
<path fill="none" stroke="#ffabab" stroke-width="3" d="M243.823,-257.825C233.311,-297.057 208.432,-389.906 196.249,-435.372"/>
<polygon fill="#ffabab" stroke="#ffabab" points="193.495,-434.834 194.129,-443.287 198.904,-436.284 193.495,-434.834"/>
</a>
</g>
<!-- ETV6 -->
<g id="node19" class="node"><title>ETV6</title>
<a xlink:href="ETV6.svg" xlink:title="Z&#45;value: 0.798||remove31">
<polygon fill="#8f9aff" stroke="#8f9aff" stroke-width="2" points="101.4,-419.968 71.4,-419.968 59.4,-407.968 59.4,-395.968 71.4,-383.968 101.4,-383.968 113.4,-395.968 113.4,-407.968 101.4,-419.968"/>
<path fill="#8f9aff" stroke="#8f9aff" stroke-width="2" d="M71.4,-419.968C65.4,-419.968 59.4,-413.968 59.4,-407.968"/>
<path fill="#8f9aff" stroke="#8f9aff" stroke-width="2" d="M59.4,-395.968C59.4,-389.968 65.4,-383.968 71.4,-383.968"/>
<path fill="#8f9aff" stroke="#8f9aff" stroke-width="2" d="M101.4,-383.968C107.4,-383.968 113.4,-389.968 113.4,-395.968"/>
<path fill="#8f9aff" stroke="#8f9aff" stroke-width="2" d="M113.4,-407.968C113.4,-413.968 107.4,-419.968 101.4,-419.968"/>
<polyline fill="none" stroke="white" stroke-width="2" points="101.4,-419.968 71.4,-419.968 "/>
<path fill="none" stroke="white" stroke-width="2" d="M71.4,-419.968C65.4,-419.968 59.4,-413.968 59.4,-407.968"/>
<polyline fill="none" stroke="white" stroke-width="2" points="59.4,-407.968 59.4,-395.968 "/>
<path fill="none" stroke="white" stroke-width="2" d="M59.4,-395.968C59.4,-389.968 65.4,-383.968 71.4,-383.968"/>
<polyline fill="none" stroke="white" stroke-width="2" points="71.4,-383.968 101.4,-383.968 "/>
<path fill="none" stroke="white" stroke-width="2" d="M101.4,-383.968C107.4,-383.968 113.4,-389.968 113.4,-395.968"/>
<polyline fill="none" stroke="white" stroke-width="2" points="113.4,-395.968 113.4,-407.968 "/>
<path fill="none" stroke="white" stroke-width="2" d="M113.4,-407.968C113.4,-413.968 107.4,-419.968 101.4,-419.968"/>
<text text-anchor="middle" x="86.4" y="-399.468" font-family="Helvetica,sans-Serif" font-size="10.00">ETV6</text>
</a>
</g>
<!-- HOXC8&#45;&gt;ETV6 -->
<g id="edge22" class="edge"><title>HOXC8&#45;&gt;ETV6</title>
<a xlink:title="ETV6: 0.119||HOXC8: 0.186||remove31root">
<path fill="none" stroke="#ffb0b0" stroke-width="3" d="M225.296,-264.486C194.685,-295.097 142.15,-347.632 111.43,-378.352"/>
<path fill="none" stroke="#a0aaff" stroke-width="3" d="M223.882,-263.071C193.27,-293.683 140.736,-346.218 110.016,-376.938"/>
<polygon fill="#a0aaff" stroke="#a0aaff" points="226.706,-265.621 230.383,-257.984 222.746,-261.661 226.706,-265.621"/>
<polygon fill="#ffb0b0" stroke="#ffb0b0" points="108.56,-375.848 104.883,-383.485 112.519,-379.808 108.56,-375.848"/>
</a>
</g>
<!-- CUX1 -->
<g id="node22" class="node"><title>CUX1</title>
<a xlink:href="CUX1.svg" xlink:title="Z&#45;value: 0.796||remove35">
<polygon fill="#8f9aff" stroke="#8f9aff" stroke-width="2" points="42,-317.084 12,-317.084 6.39488e-14,-305.084 6.39488e-14,-293.084 12,-281.084 42,-281.084 54,-293.084 54,-305.084 42,-317.084"/>
<path fill="#8f9aff" stroke="#8f9aff" stroke-width="2" d="M12,-317.084C6,-317.084 6.39488e-14,-311.084 6.39488e-14,-305.084"/>
<path fill="#8f9aff" stroke="#8f9aff" stroke-width="2" d="M6.39488e-14,-293.084C6.39488e-14,-287.084 6,-281.084 12,-281.084"/>
<path fill="#8f9aff" stroke="#8f9aff" stroke-width="2" d="M42,-281.084C48,-281.084 54,-287.084 54,-293.084"/>
<path fill="#8f9aff" stroke="#8f9aff" stroke-width="2" d="M54,-305.084C54,-311.084 48,-317.084 42,-317.084"/>
<polyline fill="none" stroke="white" stroke-width="2" points="42,-317.084 12,-317.084 "/>
<path fill="none" stroke="white" stroke-width="2" d="M12,-317.084C6,-317.084 6.39488e-14,-311.084 6.39488e-14,-305.084"/>
<polyline fill="none" stroke="white" stroke-width="2" points="6.39488e-14,-305.084 6.39488e-14,-293.084 "/>
<path fill="none" stroke="white" stroke-width="2" d="M6.39488e-14,-293.084C6.39488e-14,-287.084 6,-281.084 12,-281.084"/>
<polyline fill="none" stroke="white" stroke-width="2" points="12,-281.084 42,-281.084 "/>
<path fill="none" stroke="white" stroke-width="2" d="M42,-281.084C48,-281.084 54,-287.084 54,-293.084"/>
<polyline fill="none" stroke="white" stroke-width="2" points="54,-293.084 54,-305.084 "/>
<path fill="none" stroke="white" stroke-width="2" d="M54,-305.084C54,-311.084 48,-317.084 42,-317.084"/>
<text text-anchor="middle" x="27" y="-296.584" font-family="Helvetica,sans-Serif" font-size="10.00">CUX1</text>
</a>
</g>
<!-- HOXC8&#45;&gt;CUX1 -->
<g id="edge26" class="edge"><title>HOXC8&#45;&gt;CUX1</title>
<a xlink:title="CUX1: 0.343||remove35root">
<path fill="none" stroke="#ff7c7c" stroke-width="3" d="M221.501,-246.967C181.338,-257.729 106.14,-277.878 61.9358,-289.723"/>
<polygon fill="#ff7c7c" stroke="#ff7c7c" points="61.0607,-287.058 54.058,-291.834 62.5102,-292.468 61.0607,-287.058"/>
</a>
</g>
<!-- SMAD1&#45;&gt;HOXC8 -->
<g id="edge10" class="edge"><title>SMAD1&#45;&gt;HOXC8</title>
<a xlink:title="HOXC8: 0.205||remove32root">
<path fill="none" stroke="#9ca6ff" stroke-width="3" d="M104.701,-95.7006C134.042,-125.042 191.631,-182.631 224.386,-215.386"/>
<polygon fill="#9ca6ff" stroke="#9ca6ff" points="222.564,-217.524 230.201,-221.201 226.524,-213.564 222.564,-217.524"/>
</a>
</g>
<!-- SMAD1&#45;&gt;CREB5_CREM_JUNB -->
<g id="edge14" class="edge"><title>SMAD1&#45;&gt;CREB5_CREM_JUNB</title>
<a xlink:title="CREM: 0.348||remove26">
<path fill="none" stroke="#d47bff" stroke-width="3" d="M96.6469,-95.4771C116.802,-130.068 164.285,-206.946 217.364,-260.564 265.667,-309.357 332.106,-353.981 373.253,-379.549"/>
<polygon fill="#d47bff" stroke="#d47bff" points="371.853,-381.975 380.131,-383.792 374.793,-377.209 371.853,-381.975"/>
</a>
</g>
<!-- MAZ_ZNF281_GTF2F1 -->
<g id="node11" class="node"><title>MAZ_ZNF281_GTF2F1</title>
<a xlink:href="MAZ_ZNF281_GTF2F1.svg" xlink:title="Z&#45;value: 1.186||remove29">
<polygon fill="#7280ff" stroke="#7280ff" stroke-width="2" points="236.534,-36 142.034,-36 130.034,-24 130.034,-12 142.034,-9.59233e-14 236.534,-9.59233e-14 248.534,-12 248.534,-24 236.534,-36"/>
<path fill="#7280ff" stroke="#7280ff" stroke-width="2" d="M142.034,-36C136.034,-36 130.034,-30 130.034,-24"/>
<path fill="#7280ff" stroke="#7280ff" stroke-width="2" d="M130.034,-12C130.034,-6 136.034,-9.59233e-14 142.034,-9.59233e-14"/>
<path fill="#7280ff" stroke="#7280ff" stroke-width="2" d="M236.534,-9.59233e-14C242.534,-9.59233e-14 248.534,-6 248.534,-12"/>
<path fill="#7280ff" stroke="#7280ff" stroke-width="2" d="M248.534,-24C248.534,-30 242.534,-36 236.534,-36"/>
<polyline fill="none" stroke="white" stroke-width="2" points="236.534,-36 142.034,-36 "/>
<path fill="none" stroke="white" stroke-width="2" d="M142.034,-36C136.034,-36 130.034,-30 130.034,-24"/>
<polyline fill="none" stroke="white" stroke-width="2" points="130.034,-24 130.034,-12 "/>
<path fill="none" stroke="white" stroke-width="2" d="M130.034,-12C130.034,-6 136.034,-9.59233e-14 142.034,-9.59233e-14"/>
<polyline fill="none" stroke="white" stroke-width="2" points="142.034,-9.59233e-14 236.534,-9.59233e-14 "/>
<path fill="none" stroke="white" stroke-width="2" d="M236.534,-9.59233e-14C242.534,-9.59233e-14 248.534,-6 248.534,-12"/>
<polyline fill="none" stroke="white" stroke-width="2" points="248.534,-12 248.534,-24 "/>
<path fill="none" stroke="white" stroke-width="2" d="M248.534,-24C248.534,-30 242.534,-36 236.534,-36"/>
<text text-anchor="middle" x="189.284" y="-15.5" font-family="Helvetica,sans-Serif" font-size="10.00" fill="white">MAZ_ZNF281_GTF2F1</text>
</a>
</g>
<!-- SMAD1&#45;&gt;MAZ_ZNF281_GTF2F1 -->
<g id="edge12" class="edge"><title>SMAD1&#45;&gt;MAZ_ZNF281_GTF2F1</title>
<a xlink:title="MAZ: 0.103||ZNF281: 0.035||SMAD1: 0.030||remove18root">
<path fill="none" stroke="#e7b4ff" stroke-width="3" d="M119.89,-56.91C129.665,-51.2663 140.394,-45.0718 150.414,-39.2865"/>
<path fill="none" stroke="#ecc4ff" stroke-width="3" d="M120.89,-58.6421C130.665,-52.9983 141.394,-46.8038 151.414,-41.0186"/>
<polygon fill="#ecc4ff" stroke="#ecc4ff" points="118.96,-55.3684 113.432,-61.7934 121.76,-60.2182 118.96,-55.3684"/>
<polygon fill="#e7b4ff" stroke="#e7b4ff" points="152.534,-42.451 158.062,-36.026 149.734,-37.6012 152.534,-42.451"/>
</a>
</g>
<!-- SMAD1&#45;&gt;RORC -->
<g id="edge16" class="edge"><title>SMAD1&#45;&gt;RORC</title>
<a xlink:title="RORC: 0.100||remove17root">
<path fill="none" stroke="#e7b4ff" stroke-width="3" d="M96.7949,-95.4046C132.712,-157.615 251.662,-363.642 293.43,-435.986"/>
<polygon fill="#e7b4ff" stroke="#e7b4ff" points="291.028,-437.427 297.453,-442.955 295.878,-434.627 291.028,-437.427"/>
</a>
</g>
<!-- SMAD1&#45;&gt;MLX_USF2_USF1_PAX2 -->
<g id="edge18" class="edge"><title>SMAD1&#45;&gt;MLX_USF2_USF1_PAX2</title>
<a xlink:title="USF1: 0.067||remove13root">
<path fill="none" stroke="#e9bcff" stroke-width="3" d="M91.2243,-95.4046C107.826,-157.364 162.653,-361.979 182.246,-435.102"/>
<polygon fill="#e9bcff" stroke="#e9bcff" points="179.575,-435.953 184.35,-442.955 184.984,-434.503 179.575,-435.953"/>
</a>
</g>
<!-- CREB5_CREM_JUNB&#45;&gt;CREB5_CREM_JUNB -->
<g id="edge36" class="edge"><title>CREB5_CREM_JUNB&#45;&gt;CREB5_CREM_JUNB</title>
<a xlink:title="CREM: 0.108||remove19root">
<path fill="none" stroke="#e6b2ff" stroke-width="3" d="M470.047,-408.322C480.598,-407.496 487.968,-405.378 487.968,-401.968 487.968,-399.517 484.16,-397.733 478.101,-396.617"/>
<polygon fill="#e6b2ff" stroke="#e6b2ff" points="478.331,-393.824 470.047,-395.614 477.639,-399.381 478.331,-393.824"/>
</a>
</g>
<!-- CREB5_CREM_JUNB&#45;&gt;MAZ_ZNF281_GTF2F1 -->
<g id="edge34" class="edge"><title>CREB5_CREM_JUNB&#45;&gt;MAZ_ZNF281_GTF2F1</title>
<a xlink:title="MAZ: 0.009||CREB5: 0.157||CREM: 0.126||remove26">
<path fill="none" stroke="#eec9ff" stroke-width="3" d="M395.467,-377.119C355.272,-307.499 243.493,-113.894 203.165,-44.043"/>
<path fill="none" stroke="#e3a7ff" stroke-width="3" d="M397.199,-376.119C357.004,-306.499 245.225,-112.894 204.897,-43.043"/>
<polygon fill="#e3a7ff" stroke="#e3a7ff" points="394.148,-378.435 400.573,-383.963 398.998,-375.635 394.148,-378.435"/>
<polygon fill="#eec9ff" stroke="#eec9ff" points="206.339,-41.9406 199.914,-36.4124 201.489,-44.7406 206.339,-41.9406"/>
</a>
</g>
<!-- MAZ_ZNF281_GTF2F1&#45;&gt;HOXC8 -->
<g id="edge60" class="edge"><title>MAZ_ZNF281_GTF2F1&#45;&gt;HOXC8</title>
<a xlink:title="HOXC8: 0.156||remove29root">
<path fill="none" stroke="#a7b0ff" stroke-width="3" d="M194.145,-36.1413C204.657,-75.3727 229.536,-168.222 241.718,-213.688"/>
<polygon fill="#a7b0ff" stroke="#a7b0ff" points="239.064,-214.6 243.839,-221.603 244.473,-213.151 239.064,-214.6"/>
</a>
</g>
<!-- MAZ_ZNF281_GTF2F1&#45;&gt;SIX1_SIX3_SIX2 -->
<g id="edge68" class="edge"><title>MAZ_ZNF281_GTF2F1&#45;&gt;SIX1_SIX3_SIX2</title>
<a xlink:title="SIX3: 0.077||SIX1: 0.042||remove15root">
<path fill="none" stroke="#e8baff" stroke-width="3" d="M207.294,-36.0106C256.162,-84.8784 391.274,-219.991 446.44,-275.156"/>
<polygon fill="#e8baff" stroke="#e8baff" points="444.506,-277.182 452.143,-280.859 448.466,-273.223 444.506,-277.182"/>
</a>
</g>
<!-- MAZ_ZNF281_GTF2F1&#45;&gt;MAZ_ZNF281_GTF2F1 -->
<g id="edge62" class="edge"><title>MAZ_ZNF281_GTF2F1&#45;&gt;MAZ_ZNF281_GTF2F1</title>
<a xlink:title="MAZ: 0.032||remove4root">
<path fill="none" stroke="#ecc4ff" stroke-width="3" d="M248.688,-24.3281C259.065,-23.4844 266.284,-21.375 266.284,-18 266.284,-15.627 262.715,-13.8796 256.989,-12.758"/>
<polygon fill="#ecc4ff" stroke="#ecc4ff" points="256.984,-9.93353 248.688,-11.6719 256.257,-15.4862 256.984,-9.93353"/>
</a>
</g>
<!-- MAZ_ZNF281_GTF2F1&#45;&gt;MLX_USF2_USF1_PAX2 -->
<g id="edge72" class="edge"><title>MAZ_ZNF281_GTF2F1&#45;&gt;MLX_USF2_USF1_PAX2</title>
<a xlink:title="USF2: 0.266||PAX2: 0.219||remove25">
<path fill="none" stroke="#da8eff" stroke-width="3" d="M189.284,-36.2071C189.284,-105.542 189.284,-353.268 189.284,-434.997"/>
<polygon fill="#da8eff" stroke="#da8eff" points="186.484,-435.253 189.284,-443.253 192.084,-435.253 186.484,-435.253"/>
</a>
</g>
<!-- MAZ_ZNF281_GTF2F1&#45;&gt;ETV6 -->
<g id="edge64" class="edge"><title>MAZ_ZNF281_GTF2F1&#45;&gt;ETV6</title>
<a xlink:title="ETV6: 0.015||GTF2F1: 0.044||remove9root">
<path fill="none" stroke="#edc8ff" stroke-width="3" d="M183.34,-44.047C164.66,-113.761 113.298,-305.447 94.4344,-375.846"/>
<path fill="none" stroke="#ebc1ff" stroke-width="3" d="M181.408,-43.5293C162.728,-113.243 111.366,-304.93 92.5026,-375.329"/>
<polygon fill="#ebc1ff" stroke="#ebc1ff" points="185.093,-44.4567 184.46,-36.0046 179.684,-43.0072 185.093,-44.4567"/>
<polygon fill="#edc8ff" stroke="#edc8ff" points="90.6996,-375.103 91.3336,-383.555 96.1088,-376.553 90.6996,-375.103"/>
</a>
</g>
<!-- MAZ_ZNF281_GTF2F1&#45;&gt;CUX1 -->
<g id="edge70" class="edge"><title>MAZ_ZNF281_GTF2F1&#45;&gt;CUX1</title>
<a xlink:title="CUX1: 0.134||remove24root">
<path fill="none" stroke="#e4acff" stroke-width="3" d="M178.885,-36.0106C150.9,-84.4827 73.9245,-217.808 41.5976,-273.8"/>
<polygon fill="#e4acff" stroke="#e4acff" points="39.0971,-272.531 37.5219,-280.859 43.9468,-275.331 39.0971,-272.531"/>
</a>
</g>
<!-- HOXA1 -->
<g id="node36" class="node"><title>HOXA1</title>
<a xlink:href="HOXA1.svg" xlink:title="Z&#45;value: 0.713||remove28">
<polygon fill="#96a0ff" stroke="#96a0ff" stroke-width="2" points="485.368,-198.284 455.368,-198.284 443.368,-186.284 443.368,-174.284 455.368,-162.284 485.368,-162.284 497.368,-174.284 497.368,-186.284 485.368,-198.284"/>
<path fill="#96a0ff" stroke="#96a0ff" stroke-width="2" d="M455.368,-198.284C449.368,-198.284 443.368,-192.284 443.368,-186.284"/>
<path fill="#96a0ff" stroke="#96a0ff" stroke-width="2" d="M443.368,-174.284C443.368,-168.284 449.368,-162.284 455.368,-162.284"/>
<path fill="#96a0ff" stroke="#96a0ff" stroke-width="2" d="M485.368,-162.284C491.368,-162.284 497.368,-168.284 497.368,-174.284"/>
<path fill="#96a0ff" stroke="#96a0ff" stroke-width="2" d="M497.368,-186.284C497.368,-192.284 491.368,-198.284 485.368,-198.284"/>
<polyline fill="none" stroke="white" stroke-width="2" points="485.368,-198.284 455.368,-198.284 "/>
<path fill="none" stroke="white" stroke-width="2" d="M455.368,-198.284C449.368,-198.284 443.368,-192.284 443.368,-186.284"/>
<polyline fill="none" stroke="white" stroke-width="2" points="443.368,-186.284 443.368,-174.284 "/>
<path fill="none" stroke="white" stroke-width="2" d="M443.368,-174.284C443.368,-168.284 449.368,-162.284 455.368,-162.284"/>
<polyline fill="none" stroke="white" stroke-width="2" points="455.368,-162.284 485.368,-162.284 "/>
<path fill="none" stroke="white" stroke-width="2" d="M485.368,-162.284C491.368,-162.284 497.368,-168.284 497.368,-174.284"/>
<polyline fill="none" stroke="white" stroke-width="2" points="497.368,-174.284 497.368,-186.284 "/>
<path fill="none" stroke="white" stroke-width="2" d="M497.368,-186.284C497.368,-192.284 491.368,-198.284 485.368,-198.284"/>
<text text-anchor="middle" x="470.368" y="-177.784" font-family="Helvetica,sans-Serif" font-size="10.00">HOXA1</text>
</a>
</g>
<!-- MAZ_ZNF281_GTF2F1&#45;&gt;HOXA1 -->
<g id="edge66" class="edge"><title>MAZ_ZNF281_GTF2F1&#45;&gt;HOXA1</title>
<a xlink:title="HOXA1: 0.044||remove7root">
<path fill="none" stroke="#ebc1ff" stroke-width="3" d="M220.71,-36.1436C273.905,-66.8561 381.258,-128.836 436.232,-160.576"/>
<polygon fill="#ebc1ff" stroke="#ebc1ff" points="434.982,-163.087 443.311,-164.662 437.782,-158.237 434.982,-163.087"/>
</a>
</g>
<!-- MLX_USF2_USF1_PAX2&#45;&gt;CREB5_CREM_JUNB -->
<g id="edge96" class="edge"><title>MLX_USF2_USF1_PAX2&#45;&gt;CREB5_CREM_JUNB</title>
<a xlink:title="CREB5: 0.043||remove6root">
<path fill="none" stroke="#ebc1ff" stroke-width="3" d="M253.702,-444.107C281.98,-436.53 315.178,-427.634 343.767,-419.974"/>
<polygon fill="#ebc1ff" stroke="#ebc1ff" points="344.698,-422.623 351.7,-417.848 343.248,-417.214 344.698,-422.623"/>
</a>
</g>
<!-- SIN3A_CHD1 -->
<g id="node29" class="node"><title>SIN3A_CHD1</title>
<a xlink:href="SIN3A_CHD1.svg" xlink:title="Z&#45;value: 1.751||remove36">
<polygon fill="#4759ff" stroke="#4759ff" stroke-width="2" points="335.334,-36 280.834,-36 268.834,-24 268.834,-12 280.834,-0 335.334,-0 347.334,-12 347.334,-24 335.334,-36"/>
<path fill="#4759ff" stroke="#4759ff" stroke-width="2" d="M280.834,-36C274.834,-36 268.834,-30 268.834,-24"/>
<path fill="#4759ff" stroke="#4759ff" stroke-width="2" d="M268.834,-12C268.834,-6 274.834,-0 280.834,-0"/>
<path fill="#4759ff" stroke="#4759ff" stroke-width="2" d="M335.334,-0C341.334,-0 347.334,-6 347.334,-12"/>
<path fill="#4759ff" stroke="#4759ff" stroke-width="2" d="M347.334,-24C347.334,-30 341.334,-36 335.334,-36"/>
<polyline fill="none" stroke="white" stroke-width="2" points="335.334,-36 280.834,-36 "/>
<path fill="none" stroke="white" stroke-width="2" d="M280.834,-36C274.834,-36 268.834,-30 268.834,-24"/>
<polyline fill="none" stroke="white" stroke-width="2" points="268.834,-24 268.834,-12 "/>
<path fill="none" stroke="white" stroke-width="2" d="M268.834,-12C268.834,-6 274.834,-0 280.834,-0"/>
<polyline fill="none" stroke="white" stroke-width="2" points="280.834,-0 335.334,-0 "/>
<path fill="none" stroke="white" stroke-width="2" d="M335.334,-0C341.334,-0 347.334,-6 347.334,-12"/>
<polyline fill="none" stroke="white" stroke-width="2" points="347.334,-12 347.334,-24 "/>
<path fill="none" stroke="white" stroke-width="2" d="M347.334,-24C347.334,-30 341.334,-36 335.334,-36"/>
<text text-anchor="middle" x="308.084" y="-15.5" font-family="Helvetica,sans-Serif" font-size="10.00" fill="white">SIN3A_CHD1</text>
</a>
</g>
<!-- SIN3A_CHD1&#45;&gt;HOXC8 -->
<g id="edge38" class="edge"><title>SIN3A_CHD1&#45;&gt;HOXC8</title>
<a xlink:title="HOXC8: 0.349||remove36root">
<path fill="none" stroke="#7a88ff" stroke-width="3" d="M303.223,-36.1413C292.711,-75.3727 267.832,-168.222 255.649,-213.688"/>
<polygon fill="#7a88ff" stroke="#7a88ff" points="252.895,-213.151 253.529,-221.603 258.304,-214.6 252.895,-213.151"/>
</a>
</g>
<!-- SIN3A_CHD1&#45;&gt;SMAD1 -->
<g id="edge40" class="edge"><title>SIN3A_CHD1&#45;&gt;SMAD1</title>
<a xlink:title="SMAD1: 0.078||remove16root">
<path fill="none" stroke="#e8b9ff" stroke-width="3" d="M268.65,-35.2818C265.179,-36.5766 261.697,-37.7977 258.304,-38.88 211.906,-53.6809 156.719,-64.9724 121.628,-71.3939"/>
<polygon fill="#e8b9ff" stroke="#e8b9ff" points="120.967,-68.6679 113.591,-72.8437 121.961,-74.179 120.967,-68.6679"/>
</a>
</g>
<!-- SIN3A_CHD1&#45;&gt;SIX1_SIX3_SIX2 -->
<g id="edge50" class="edge"><title>SIN3A_CHD1&#45;&gt;SIX1_SIX3_SIX2</title>
<a xlink:title="SIX3: 0.571||remove23">
<path fill="none" stroke="#c447ff" stroke-width="3" d="M318.482,-36.0106C346.468,-84.4827 423.443,-217.808 455.77,-273.8"/>
<polygon fill="#c447ff" stroke="#c447ff" points="453.421,-275.331 459.846,-280.859 458.271,-272.531 453.421,-275.331"/>
</a>
</g>
<!-- SIN3A_CHD1&#45;&gt;MAZ_ZNF281_GTF2F1 -->
<g id="edge44" class="edge"><title>SIN3A_CHD1&#45;&gt;MAZ_ZNF281_GTF2F1</title>
<a xlink:title="MAZ: 0.257||ZNF281: 0.124||remove29">
<path fill="none" stroke="#db90ff" stroke-width="3" d="M268.525,-18C264.758,-18 260.87,-18 256.934,-18"/>
<polygon fill="#db90ff" stroke="#db90ff" points="256.806,-15.1999 248.806,-18 256.806,-20.7999 256.806,-15.1999"/>
</a>
</g>
<!-- SIN3A_CHD1&#45;&gt;RORC -->
<g id="edge56" class="edge"><title>SIN3A_CHD1&#45;&gt;RORC</title>
<a xlink:title="RORC: 0.076||remove14root">
<path fill="none" stroke="#e8baff" stroke-width="3" d="M308.084,-36.2071C308.084,-105.542 308.084,-353.268 308.084,-434.997"/>
<polygon fill="#e8baff" stroke="#e8baff" points="305.284,-435.253 308.084,-443.253 310.884,-435.253 305.284,-435.253"/>
</a>
</g>
<!-- SIN3A_CHD1&#45;&gt;MLX_USF2_USF1_PAX2 -->
<g id="edge58" class="edge"><title>SIN3A_CHD1&#45;&gt;MLX_USF2_USF1_PAX2</title>
<a xlink:title="PAX2: 0.128||remove22root">
<path fill="none" stroke="#e5aeff" stroke-width="3" d="M297.579,-36.1022C278.182,-70.4558 236.94,-148.012 217.364,-218.804 196.134,-295.575 190.941,-390.318 189.681,-435.297"/>
<polygon fill="#e5aeff" stroke="#e5aeff" points="186.88,-435.289 189.483,-443.356 192.479,-435.427 186.88,-435.289"/>
</a>
</g>
<!-- SIN3A_CHD1&#45;&gt;ETV6 -->
<g id="edge46" class="edge"><title>SIN3A_CHD1&#45;&gt;ETV6</title>
<a xlink:title="ETV6: 0.123||remove21root">
<path fill="none" stroke="#e5afff" stroke-width="3" d="M297.689,-36.0046C261.772,-98.2152 142.822,-304.242 101.054,-376.586"/>
<polygon fill="#e5afff" stroke="#e5afff" points="98.6056,-375.227 97.0304,-383.555 103.455,-378.027 98.6056,-375.227"/>
</a>
</g>
<!-- SIN3A_CHD1&#45;&gt;CUX1 -->
<g id="edge52" class="edge"><title>SIN3A_CHD1&#45;&gt;CUX1</title>
<a xlink:title="CUX1: 0.245||remove33root">
<path fill="none" stroke="#dc92ff" stroke-width="3" d="M290.073,-36.0106C241.205,-84.8784 106.093,-219.991 50.9281,-275.156"/>
<polygon fill="#dc92ff" stroke="#dc92ff" points="48.9014,-273.223 45.2244,-280.859 52.8612,-277.182 48.9014,-273.223"/>
</a>
</g>
<!-- SIN3A_CHD1&#45;&gt;SIN3A_CHD1 -->
<g id="edge54" class="edge"><title>SIN3A_CHD1&#45;&gt;SIN3A_CHD1</title>
<a xlink:title="CHD1: 0.054||remove10root">
<path fill="none" stroke="#eabfff" stroke-width="3" d="M347.511,-24.6693C357.548,-24.2309 365.084,-22.0078 365.084,-18 365.084,-15.182 361.358,-13.2464 355.657,-12.193"/>
<polygon fill="#eabfff" stroke="#eabfff" points="355.761,-9.38849 347.511,-11.3307 355.172,-14.9574 355.761,-9.38849"/>
</a>
</g>
<!-- WRNIP1 -->
<g id="node32" class="node"><title>WRNIP1</title>
<a xlink:href="WRNIP1.svg" xlink:title="Z&#45;value: 1.103||remove34">
<polygon fill="#7885ff" stroke="#7885ff" stroke-width="2" points="426.468,-95.4 395.468,-95.4 383.468,-83.4 383.468,-71.4 395.468,-59.4 426.468,-59.4 438.468,-71.4 438.468,-83.4 426.468,-95.4"/>
<path fill="#7885ff" stroke="#7885ff" stroke-width="2" d="M395.468,-95.4C389.468,-95.4 383.468,-89.4 383.468,-83.4"/>
<path fill="#7885ff" stroke="#7885ff" stroke-width="2" d="M383.468,-71.4C383.468,-65.4 389.468,-59.4 395.468,-59.4"/>
<path fill="#7885ff" stroke="#7885ff" stroke-width="2" d="M426.468,-59.4C432.468,-59.4 438.468,-65.4 438.468,-71.4"/>
<path fill="#7885ff" stroke="#7885ff" stroke-width="2" d="M438.468,-83.4C438.468,-89.4 432.468,-95.4 426.468,-95.4"/>
<polyline fill="none" stroke="white" stroke-width="2" points="426.468,-95.4 395.468,-95.4 "/>
<path fill="none" stroke="white" stroke-width="2" d="M395.468,-95.4C389.468,-95.4 383.468,-89.4 383.468,-83.4"/>
<polyline fill="none" stroke="white" stroke-width="2" points="383.468,-83.4 383.468,-71.4 "/>
<path fill="none" stroke="white" stroke-width="2" d="M383.468,-71.4C383.468,-65.4 389.468,-59.4 395.468,-59.4"/>
<polyline fill="none" stroke="white" stroke-width="2" points="395.468,-59.4 426.468,-59.4 "/>
<path fill="none" stroke="white" stroke-width="2" d="M426.468,-59.4C432.468,-59.4 438.468,-65.4 438.468,-71.4"/>
<polyline fill="none" stroke="white" stroke-width="2" points="438.468,-71.4 438.468,-83.4 "/>
<path fill="none" stroke="white" stroke-width="2" d="M438.468,-83.4C438.468,-89.4 432.468,-95.4 426.468,-95.4"/>
<text text-anchor="middle" x="410.968" y="-74.9" font-family="Helvetica,sans-Serif" font-size="10.00">WRNIP1</text>
</a>
</g>
<!-- SIN3A_CHD1&#45;&gt;WRNIP1 -->
<g id="edge42" class="edge"><title>SIN3A_CHD1&#45;&gt;WRNIP1</title>
<a xlink:title="WRNIP1: 0.001||SIN3A: 0.007||remove1root">
<path fill="none" stroke="#eecbff" stroke-width="3" d="M346.98,-39.302C356.602,-44.8572 366.876,-50.7887 376.33,-56.2471"/>
<path fill="none" stroke="#eecaff" stroke-width="3" d="M345.98,-41.0341C355.602,-46.5892 365.876,-52.5207 375.33,-57.9792"/>
<polygon fill="#eecaff" stroke="#eecaff" points="347.84,-37.7199 339.511,-36.1447 345.04,-42.5696 347.84,-37.7199"/>
<polygon fill="#eecbff" stroke="#eecbff" points="374.547,-59.6058 382.875,-61.181 377.347,-54.756 374.547,-59.6058"/>
</a>
</g>
<!-- SIN3A_CHD1&#45;&gt;HOXA1 -->
<g id="edge48" class="edge"><title>SIN3A_CHD1&#45;&gt;HOXA1</title>
<a xlink:title="HOXA1: 0.196||remove28">
<path fill="none" stroke="#e09eff" stroke-width="3" d="M322.867,-36.0989C336.716,-52.7483 358.259,-77.8739 378.488,-98.28 398.865,-118.836 423.384,-140.583 441.966,-156.513"/>
<polygon fill="#e09eff" stroke="#e09eff" points="440.621,-159.045 448.525,-162.106 444.254,-154.784 440.621,-159.045"/>
</a>
</g>
<!-- WRNIP1&#45;&gt;GATA3 -->
<g id="edge82" class="edge"><title>WRNIP1&#45;&gt;GATA3</title>
<a xlink:title="GATA3: 0.022||remove2root">
<path fill="none" stroke="#edc6ff" stroke-width="3" d="M383.354,-84.7992C314.916,-103.137 137.548,-150.663 61.955,-170.918"/>
<polygon fill="#edc6ff" stroke="#edc6ff" points="61.1101,-168.245 54.1074,-173.02 62.5595,-173.654 61.1101,-168.245"/>
</a>
</g>
<!-- WRNIP1&#45;&gt;HOXC8 -->
<g id="edge74" class="edge"><title>WRNIP1&#45;&gt;HOXC8</title>
<a xlink:title="HOXC8: 0.290||remove34root">
<path fill="none" stroke="#8894ff" stroke-width="3" d="M392.667,-95.7006C363.325,-125.042 305.736,-182.631 272.981,-215.386"/>
<polygon fill="#8894ff" stroke="#8894ff" points="270.843,-213.564 267.166,-221.201 274.803,-217.524 270.843,-213.564"/>
</a>
</g>
<!-- WRNIP1&#45;&gt;SMAD1 -->
<g id="edge76" class="edge"><title>WRNIP1&#45;&gt;SMAD1</title>
<a xlink:title="SMAD1: 0.023||remove3root">
<path fill="none" stroke="#ecc6ff" stroke-width="3" d="M383.295,-77.4C324.463,-77.4 187.023,-77.4 121.87,-77.4"/>
<polygon fill="#ecc6ff" stroke="#ecc6ff" points="121.545,-74.6001 113.545,-77.4 121.545,-80.2001 121.545,-74.6001"/>
</a>
</g>
<!-- WRNIP1&#45;&gt;SIX1_SIX3_SIX2 -->
<g id="edge86" class="edge"><title>WRNIP1&#45;&gt;SIX1_SIX3_SIX2</title>
<a xlink:title="SIX1: 0.214||SIX2: 0.074||remove23">
<path fill="none" stroke="#de9aff" stroke-width="3" d="M414.574,-95.5583C419.504,-119.79 428.899,-163.966 439.048,-201.164 445.778,-225.832 454.784,-253.557 461.411,-273.191"/>
<polygon fill="#de9aff" stroke="#de9aff" points="458.777,-274.143 464.002,-280.817 464.079,-272.341 458.777,-274.143"/>
</a>
</g>
<!-- WRNIP1&#45;&gt;CREB5_CREM_JUNB -->
<g id="edge90" class="edge"><title>WRNIP1&#45;&gt;CREB5_CREM_JUNB</title>
<a xlink:title="CREM: 0.067||remove12root">
<path fill="none" stroke="#e9bcff" stroke-width="3" d="M410.968,-95.7801C410.968,-150.341 410.968,-311.538 410.968,-375.439"/>
<polygon fill="#e9bcff" stroke="#e9bcff" points="408.168,-375.789 410.968,-383.789 413.768,-375.789 408.168,-375.789"/>
</a>
</g>
<!-- WRNIP1&#45;&gt;MAZ_ZNF281_GTF2F1 -->
<g id="edge80" class="edge"><title>WRNIP1&#45;&gt;MAZ_ZNF281_GTF2F1</title>
<a xlink:title="MAZ: 0.109||remove20root">
<path fill="none" stroke="#e6b2ff" stroke-width="3" d="M383.232,-70.4375C353.322,-62.8776 304.333,-50.3449 262.264,-38.88 260.317,-38.3494 258.342,-37.8076 256.349,-37.2578"/>
<polygon fill="#e6b2ff" stroke="#e6b2ff" points="257.052,-34.5473 248.595,-35.1043 255.554,-39.9431 257.052,-34.5473"/>
</a>
</g>
<!-- WRNIP1&#45;&gt;MLX_USF2_USF1_PAX2 -->
<g id="edge92" class="edge"><title>WRNIP1&#45;&gt;MLX_USF2_USF1_PAX2</title>
<a xlink:title="USF2: 0.222||USF1: 0.110||PAX2: 0.057||MLX: 0.008||remove25">
<path fill="none" stroke="#de98ff" stroke-width="3" d="M400.573,-95.4046C364.655,-157.615 245.706,-363.642 203.938,-435.986"/>
<polygon fill="#de98ff" stroke="#de98ff" points="201.489,-434.627 199.914,-442.955 206.339,-437.427 201.489,-434.627"/>
</a>
</g>
<!-- WRNIP1&#45;&gt;CUX1 -->
<g id="edge88" class="edge"><title>WRNIP1&#45;&gt;CUX1</title>
<a xlink:title="CUX1: 0.044||remove8root">
<path fill="none" stroke="#ebc1ff" stroke-width="3" d="M383.354,-93.343C314.639,-133.015 136.11,-236.089 61.0419,-279.43"/>
<polygon fill="#ebc1ff" stroke="#ebc1ff" points="59.6356,-277.008 54.1074,-283.433 62.4356,-281.858 59.6356,-277.008"/>
</a>
</g>
<!-- WRNIP1&#45;&gt;WRNIP1 -->
<g id="edge78" class="edge"><title>WRNIP1&#45;&gt;WRNIP1</title>
<a xlink:title="WRNIP1: 0.003||remove0root">
<path fill="none" stroke="#eecbff" stroke-width="3" d="M438.652,-84.1484C448.231,-84.2198 455.968,-81.9703 455.968,-77.4 455.968,-74.2579 452.311,-72.2128 446.913,-71.2646"/>
<polygon fill="#eecbff" stroke="#eecbff" points="446.837,-68.4514 438.652,-70.6517 446.423,-74.0361 446.837,-68.4514"/>
</a>
</g>
<!-- WRNIP1&#45;&gt;HOXA1 -->
<g id="edge84" class="edge"><title>WRNIP1&#45;&gt;HOXA1</title>
<a xlink:title="HOXA1: 0.042||remove5root">
<path fill="none" stroke="#ebc2ff" stroke-width="3" d="M421.587,-95.7936C431.132,-112.326 445.237,-136.755 455.827,-155.099"/>
<polygon fill="#ebc2ff" stroke="#ebc2ff" points="453.415,-156.521 459.84,-162.05 458.265,-153.721 453.415,-156.521"/>
</a>
</g>
<!-- HOXA1&#45;&gt;HOXC8 -->
<g id="edge94" class="edge"><title>HOXA1&#45;&gt;HOXC8</title>
<a xlink:title="HOXC8: 0.155||remove28root">
<path fill="none" stroke="#a7b0ff" stroke-width="3" d="M443.185,-187.567C403.022,-198.329 327.824,-218.478 283.62,-230.323"/>
<polygon fill="#a7b0ff" stroke="#a7b0ff" points="282.745,-227.658 275.742,-232.434 284.194,-233.068 282.745,-227.658"/>
</a>
</g>
</g>
</svg>
