<?xml version="1.0" encoding="UTF-8" standalone="no"?>
<!DOCTYPE svg PUBLIC "-//W3C//DTD SVG 1.1//EN"
 "http://www.w3.org/Graphics/SVG/1.1/DTD/svg11.dtd">
<!-- Generated by graphviz version 2.28.0 (20110630.0925)
 -->
<!-- Title: _anonymous_0 Pages: 1 -->
<svg width="435pt" height="391pt"
 viewBox="0.00 0.00 434.58 391.08" xmlns="http://www.w3.org/2000/svg" xmlns:xlink="http://www.w3.org/1999/xlink">
<g id="graph1" class="graph" transform="scale(1 1) rotate(0) translate(4 387.081)">
<title>_anonymous_0</title>
<polygon fill="white" stroke="white" points="-4,5 -4,-387.081 431.581,-387.081 431.581,5 -4,5"/>
<!-- ESRRA_ESR2 -->
<g id="node1" class="node"><title>ESRRA_ESR2</title>
<a xlink:href="ESRRA_ESR2.svg" xlink:title="Z&#45;value: 3.814||remove37">
<polygon fill="#3247ff" stroke="#3247ff" stroke-width="2" points="414.331,-256.04 355.831,-256.04 343.831,-244.04 343.831,-232.04 355.831,-220.04 414.331,-220.04 426.331,-232.04 426.331,-244.04 414.331,-256.04"/>
<path fill="#3247ff" stroke="#3247ff" stroke-width="2" d="M355.831,-256.04C349.831,-256.04 343.831,-250.04 343.831,-244.04"/>
<path fill="#3247ff" stroke="#3247ff" stroke-width="2" d="M343.831,-232.04C343.831,-226.04 349.831,-220.04 355.831,-220.04"/>
<path fill="#3247ff" stroke="#3247ff" stroke-width="2" d="M414.331,-220.04C420.331,-220.04 426.331,-226.04 426.331,-232.04"/>
<path fill="#3247ff" stroke="#3247ff" stroke-width="2" d="M426.331,-244.04C426.331,-250.04 420.331,-256.04 414.331,-256.04"/>
<polyline fill="none" stroke="white" stroke-width="2" points="414.331,-256.04 355.831,-256.04 "/>
<path fill="none" stroke="white" stroke-width="2" d="M355.831,-256.04C349.831,-256.04 343.831,-250.04 343.831,-244.04"/>
<polyline fill="none" stroke="white" stroke-width="2" points="343.831,-244.04 343.831,-232.04 "/>
<path fill="none" stroke="white" stroke-width="2" d="M343.831,-232.04C343.831,-226.04 349.831,-220.04 355.831,-220.04"/>
<polyline fill="none" stroke="white" stroke-width="2" points="355.831,-220.04 414.331,-220.04 "/>
<path fill="none" stroke="white" stroke-width="2" d="M414.331,-220.04C420.331,-220.04 426.331,-226.04 426.331,-232.04"/>
<polyline fill="none" stroke="white" stroke-width="2" points="426.331,-232.04 426.331,-244.04 "/>
<path fill="none" stroke="white" stroke-width="2" d="M426.331,-244.04C426.331,-250.04 420.331,-256.04 414.331,-256.04"/>
<text text-anchor="middle" x="385.081" y="-235.54" font-family="Helvetica,sans-Serif" font-size="10.00" fill="white">ESRRA_ESR2</text>
</a>
</g>
<!-- ESRRB_ESRRG -->
<g id="node2" class="node"><title>ESRRB_ESRRG</title>
<a xlink:href="ESRRB_ESRRG.svg" xlink:title="Z&#45;value: 0.825||remove34">
<polygon fill="#aab3ff" stroke="#aab3ff" stroke-width="2" points="372.831,-336.581 304.331,-336.581 292.331,-324.581 292.331,-312.581 304.331,-300.581 372.831,-300.581 384.831,-312.581 384.831,-324.581 372.831,-336.581"/>
<path fill="#aab3ff" stroke="#aab3ff" stroke-width="2" d="M304.331,-336.581C298.331,-336.581 292.331,-330.581 292.331,-324.581"/>
<path fill="#aab3ff" stroke="#aab3ff" stroke-width="2" d="M292.331,-312.581C292.331,-306.581 298.331,-300.581 304.331,-300.581"/>
<path fill="#aab3ff" stroke="#aab3ff" stroke-width="2" d="M372.831,-300.581C378.831,-300.581 384.831,-306.581 384.831,-312.581"/>
<path fill="#aab3ff" stroke="#aab3ff" stroke-width="2" d="M384.831,-324.581C384.831,-330.581 378.831,-336.581 372.831,-336.581"/>
<polyline fill="none" stroke="white" stroke-width="2" points="372.831,-336.581 304.331,-336.581 "/>
<path fill="none" stroke="white" stroke-width="2" d="M304.331,-336.581C298.331,-336.581 292.331,-330.581 292.331,-324.581"/>
<polyline fill="none" stroke="white" stroke-width="2" points="292.331,-324.581 292.331,-312.581 "/>
<path fill="none" stroke="white" stroke-width="2" d="M292.331,-312.581C292.331,-306.581 298.331,-300.581 304.331,-300.581"/>
<polyline fill="none" stroke="white" stroke-width="2" points="304.331,-300.581 372.831,-300.581 "/>
<path fill="none" stroke="white" stroke-width="2" d="M372.831,-300.581C378.831,-300.581 384.831,-306.581 384.831,-312.581"/>
<polyline fill="none" stroke="white" stroke-width="2" points="384.831,-312.581 384.831,-324.581 "/>
<path fill="none" stroke="white" stroke-width="2" d="M384.831,-324.581C384.831,-330.581 378.831,-336.581 372.831,-336.581"/>
<text text-anchor="middle" x="338.581" y="-316.081" font-family="Helvetica,sans-Serif" font-size="10.00">ESRRB_ESRRG</text>
</a>
</g>
<!-- ESRRA_ESR2&#45;&gt;ESRRB_ESRRG -->
<g id="edge2" class="edge"><title>ESRRA_ESR2&#45;&gt;ESRRB_ESRRG</title>
<a xlink:title="ESRRG: 0.134||remove17root">
<path fill="none" stroke="#eac0ff" stroke-width="3" d="M374.529,-256.316C368.227,-267.232 360.13,-281.257 353.216,-293.232"/>
<polygon fill="#eac0ff" stroke="#eac0ff" points="350.666,-292.049 349.091,-300.377 355.515,-294.849 350.666,-292.049"/>
</a>
</g>
<!-- RARG -->
<g id="node4" class="node"><title>RARG</title>
<a xlink:href="RARG.svg" xlink:title="Z&#45;value: 1.340||remove35">
<polygon fill="#96a0ff" stroke="#96a0ff" stroke-width="2" points="273.04,-383.081 243.04,-383.081 231.04,-371.081 231.04,-359.081 243.04,-347.081 273.04,-347.081 285.04,-359.081 285.04,-371.081 273.04,-383.081"/>
<path fill="#96a0ff" stroke="#96a0ff" stroke-width="2" d="M243.04,-383.081C237.04,-383.081 231.04,-377.081 231.04,-371.081"/>
<path fill="#96a0ff" stroke="#96a0ff" stroke-width="2" d="M231.04,-359.081C231.04,-353.081 237.04,-347.081 243.04,-347.081"/>
<path fill="#96a0ff" stroke="#96a0ff" stroke-width="2" d="M273.04,-347.081C279.04,-347.081 285.04,-353.081 285.04,-359.081"/>
<path fill="#96a0ff" stroke="#96a0ff" stroke-width="2" d="M285.04,-371.081C285.04,-377.081 279.04,-383.081 273.04,-383.081"/>
<polyline fill="none" stroke="white" stroke-width="2" points="273.04,-383.081 243.04,-383.081 "/>
<path fill="none" stroke="white" stroke-width="2" d="M243.04,-383.081C237.04,-383.081 231.04,-377.081 231.04,-371.081"/>
<polyline fill="none" stroke="white" stroke-width="2" points="231.04,-371.081 231.04,-359.081 "/>
<path fill="none" stroke="white" stroke-width="2" d="M231.04,-359.081C231.04,-353.081 237.04,-347.081 243.04,-347.081"/>
<polyline fill="none" stroke="white" stroke-width="2" points="243.04,-347.081 273.04,-347.081 "/>
<path fill="none" stroke="white" stroke-width="2" d="M273.04,-347.081C279.04,-347.081 285.04,-353.081 285.04,-359.081"/>
<polyline fill="none" stroke="white" stroke-width="2" points="285.04,-359.081 285.04,-371.081 "/>
<path fill="none" stroke="white" stroke-width="2" d="M285.04,-371.081C285.04,-377.081 279.04,-383.081 273.04,-383.081"/>
<text text-anchor="middle" x="258.04" y="-362.581" font-family="Helvetica,sans-Serif" font-size="10.00">RARG</text>
</a>
</g>
<!-- ESRRA_ESR2&#45;&gt;RARG -->
<g id="edge4" class="edge"><title>ESRRA_ESR2&#45;&gt;RARG</title>
<a xlink:title="RARG: 0.130||remove16root">
<path fill="none" stroke="#eac0ff" stroke-width="3" d="M343.519,-254.975C323.476,-264.904 300.42,-279.171 284.641,-297.701 274.647,-309.436 268.126,-325.379 264.042,-338.811"/>
<polygon fill="#eac0ff" stroke="#eac0ff" points="261.269,-338.33 261.805,-346.789 266.661,-339.842 261.269,-338.33"/>
</a>
</g>
<!-- ID4_TCF4_SNAI2 -->
<g id="node6" class="node"><title>ID4_TCF4_SNAI2</title>
<a xlink:href="ID4_TCF4_SNAI2.svg" xlink:title="Z&#45;value: 1.966||remove36">
<polygon fill="#7d8aff" stroke="#7d8aff" stroke-width="2" points="201.29,-383.081 128.79,-383.081 116.79,-371.081 116.79,-359.081 128.79,-347.081 201.29,-347.081 213.29,-359.081 213.29,-371.081 201.29,-383.081"/>
<path fill="#7d8aff" stroke="#7d8aff" stroke-width="2" d="M128.79,-383.081C122.79,-383.081 116.79,-377.081 116.79,-371.081"/>
<path fill="#7d8aff" stroke="#7d8aff" stroke-width="2" d="M116.79,-359.081C116.79,-353.081 122.79,-347.081 128.79,-347.081"/>
<path fill="#7d8aff" stroke="#7d8aff" stroke-width="2" d="M201.29,-347.081C207.29,-347.081 213.29,-353.081 213.29,-359.081"/>
<path fill="#7d8aff" stroke="#7d8aff" stroke-width="2" d="M213.29,-371.081C213.29,-377.081 207.29,-383.081 201.29,-383.081"/>
<polyline fill="none" stroke="white" stroke-width="2" points="201.29,-383.081 128.79,-383.081 "/>
<path fill="none" stroke="white" stroke-width="2" d="M128.79,-383.081C122.79,-383.081 116.79,-377.081 116.79,-371.081"/>
<polyline fill="none" stroke="white" stroke-width="2" points="116.79,-371.081 116.79,-359.081 "/>
<path fill="none" stroke="white" stroke-width="2" d="M116.79,-359.081C116.79,-353.081 122.79,-347.081 128.79,-347.081"/>
<polyline fill="none" stroke="white" stroke-width="2" points="128.79,-347.081 201.29,-347.081 "/>
<path fill="none" stroke="white" stroke-width="2" d="M201.29,-347.081C207.29,-347.081 213.29,-353.081 213.29,-359.081"/>
<polyline fill="none" stroke="white" stroke-width="2" points="213.29,-359.081 213.29,-371.081 "/>
<path fill="none" stroke="white" stroke-width="2" d="M213.29,-371.081C213.29,-377.081 207.29,-383.081 201.29,-383.081"/>
<text text-anchor="middle" x="165.04" y="-362.581" font-family="Helvetica,sans-Serif" font-size="10.00">ID4_TCF4_SNAI2</text>
</a>
</g>
<!-- ESRRA_ESR2&#45;&gt;ID4_TCF4_SNAI2 -->
<g id="edge6" class="edge"><title>ESRRA_ESR2&#45;&gt;ID4_TCF4_SNAI2</title>
<a xlink:title="SNAI2: 0.628||TCF4: 0.188||ESRRA: 0.115||remove32root">
<path fill="none" stroke="#dc94ff" stroke-width="3" d="M346.919,-261.228C306.787,-284.398 244.378,-320.43 204.234,-343.607"/>
<path fill="none" stroke="#ebc1ff" stroke-width="3" d="M345.919,-259.496C305.787,-282.666 243.378,-318.698 203.234,-341.875"/>
<polygon fill="#ebc1ff" stroke="#ebc1ff" points="348.026,-262.667 353.554,-256.242 345.226,-257.817 348.026,-262.667"/>
<polygon fill="#dc94ff" stroke="#dc94ff" points="202.037,-340.488 196.508,-346.913 204.837,-345.338 202.037,-340.488"/>
</a>
</g>
<!-- HOXC6_HOXA7 -->
<g id="node8" class="node"><title>HOXC6_HOXA7</title>
<a xlink:href="HOXC6_HOXA7.svg" xlink:title="Z&#45;value: 0.413||remove38">
<polygon fill="#ffbbbb" stroke="#ffbbbb" stroke-width="2" points="244.54,-209.54 178.54,-209.54 166.54,-197.54 166.54,-185.54 178.54,-173.54 244.54,-173.54 256.54,-185.54 256.54,-197.54 244.54,-209.54"/>
<path fill="#ffbbbb" stroke="#ffbbbb" stroke-width="2" d="M178.54,-209.54C172.54,-209.54 166.54,-203.54 166.54,-197.54"/>
<path fill="#ffbbbb" stroke="#ffbbbb" stroke-width="2" d="M166.54,-185.54C166.54,-179.54 172.54,-173.54 178.54,-173.54"/>
<path fill="#ffbbbb" stroke="#ffbbbb" stroke-width="2" d="M244.54,-173.54C250.54,-173.54 256.54,-179.54 256.54,-185.54"/>
<path fill="#ffbbbb" stroke="#ffbbbb" stroke-width="2" d="M256.54,-197.54C256.54,-203.54 250.54,-209.54 244.54,-209.54"/>
<polyline fill="none" stroke="white" stroke-width="2" points="244.54,-209.54 178.54,-209.54 "/>
<path fill="none" stroke="white" stroke-width="2" d="M178.54,-209.54C172.54,-209.54 166.54,-203.54 166.54,-197.54"/>
<polyline fill="none" stroke="white" stroke-width="2" points="166.54,-197.54 166.54,-185.54 "/>
<path fill="none" stroke="white" stroke-width="2" d="M166.54,-185.54C166.54,-179.54 172.54,-173.54 178.54,-173.54"/>
<polyline fill="none" stroke="white" stroke-width="2" points="178.54,-173.54 244.54,-173.54 "/>
<path fill="none" stroke="white" stroke-width="2" d="M244.54,-173.54C250.54,-173.54 256.54,-179.54 256.54,-185.54"/>
<polyline fill="none" stroke="white" stroke-width="2" points="256.54,-185.54 256.54,-197.54 "/>
<path fill="none" stroke="white" stroke-width="2" d="M256.54,-197.54C256.54,-203.54 250.54,-209.54 244.54,-209.54"/>
<text text-anchor="middle" x="211.54" y="-189.04" font-family="Helvetica,sans-Serif" font-size="10.00">HOXC6_HOXA7</text>
</a>
</g>
<!-- ESRRA_ESR2&#45;&gt;HOXC6_HOXA7 -->
<g id="edge8" class="edge"><title>ESRRA_ESR2&#45;&gt;HOXC6_HOXA7</title>
<a xlink:title="HOXC6: 1.718||remove37root">
<path fill="none" stroke="#3247ff" stroke-width="3" d="M343.513,-226.902C319.898,-220.575 290.084,-212.586 264.771,-205.804"/>
<polygon fill="#3247ff" stroke="#3247ff" points="265.177,-203.013 256.725,-203.647 263.727,-208.423 265.177,-203.013"/>
</a>
</g>
<!-- NR6A1 -->
<g id="node10" class="node"><title>NR6A1</title>
<a xlink:href="NR6A1.svg" xlink:title="Z&#45;value: 0.722||remove33">
<polygon fill="#afb7ff" stroke="#afb7ff" stroke-width="2" points="99.5,-336.581 69.5,-336.581 57.5,-324.581 57.5,-312.581 69.5,-300.581 99.5,-300.581 111.5,-312.581 111.5,-324.581 99.5,-336.581"/>
<path fill="#afb7ff" stroke="#afb7ff" stroke-width="2" d="M69.5,-336.581C63.5,-336.581 57.5,-330.581 57.5,-324.581"/>
<path fill="#afb7ff" stroke="#afb7ff" stroke-width="2" d="M57.5,-312.581C57.5,-306.581 63.5,-300.581 69.5,-300.581"/>
<path fill="#afb7ff" stroke="#afb7ff" stroke-width="2" d="M99.5,-300.581C105.5,-300.581 111.5,-306.581 111.5,-312.581"/>
<path fill="#afb7ff" stroke="#afb7ff" stroke-width="2" d="M111.5,-324.581C111.5,-330.581 105.5,-336.581 99.5,-336.581"/>
<polyline fill="none" stroke="white" stroke-width="2" points="99.5,-336.581 69.5,-336.581 "/>
<path fill="none" stroke="white" stroke-width="2" d="M69.5,-336.581C63.5,-336.581 57.5,-330.581 57.5,-324.581"/>
<polyline fill="none" stroke="white" stroke-width="2" points="57.5,-324.581 57.5,-312.581 "/>
<path fill="none" stroke="white" stroke-width="2" d="M57.5,-312.581C57.5,-306.581 63.5,-300.581 69.5,-300.581"/>
<polyline fill="none" stroke="white" stroke-width="2" points="69.5,-300.581 99.5,-300.581 "/>
<path fill="none" stroke="white" stroke-width="2" d="M99.5,-300.581C105.5,-300.581 111.5,-306.581 111.5,-312.581"/>
<polyline fill="none" stroke="white" stroke-width="2" points="111.5,-312.581 111.5,-324.581 "/>
<path fill="none" stroke="white" stroke-width="2" d="M111.5,-324.581C111.5,-330.581 105.5,-336.581 99.5,-336.581"/>
<text text-anchor="middle" x="84.5" y="-316.081" font-family="Helvetica,sans-Serif" font-size="10.00">NR6A1</text>
</a>
</g>
<!-- ESRRA_ESR2&#45;&gt;NR6A1 -->
<g id="edge10" class="edge"><title>ESRRA_ESR2&#45;&gt;NR6A1</title>
<a xlink:title="NR6A1: 0.120||remove14root">
<path fill="none" stroke="#ebc1ff" stroke-width="3" d="M343.602,-249.155C284.044,-265.113 175.348,-294.238 119.569,-309.184"/>
<polygon fill="#ebc1ff" stroke="#ebc1ff" points="118.739,-306.508 111.736,-311.283 120.188,-311.917 118.739,-306.508"/>
</a>
</g>
<!-- ESRRB_ESRRG&#45;&gt;ESRRB_ESRRG -->
<g id="edge24" class="edge"><title>ESRRB_ESRRG&#45;&gt;ESRRB_ESRRG</title>
<a xlink:title="ESRRG: 0.023||remove4root">
<path fill="none" stroke="#eec9ff" stroke-width="3" d="M384.893,-325.149C395.127,-324.532 402.581,-322.342 402.581,-318.581 402.581,-315.936 398.896,-314.068 393.15,-312.978"/>
<polygon fill="#eec9ff" stroke="#eec9ff" points="393.164,-310.16 384.893,-312.012 392.513,-315.723 393.164,-310.16"/>
</a>
</g>
<!-- ESRRB_ESRRG&#45;&gt;HOXC6_HOXA7 -->
<g id="edge28" class="edge"><title>ESRRB_ESRRG&#45;&gt;HOXC6_HOXA7</title>
<a xlink:title="HOXC6: 0.963||remove34root">
<path fill="none" stroke="#7683ff" stroke-width="3" d="M320.379,-300.379C298.021,-278.021 260.033,-240.033 235.369,-215.369"/>
<polygon fill="#7683ff" stroke="#7683ff" points="237.345,-213.385 229.708,-209.708 233.385,-217.345 237.345,-213.385"/>
</a>
</g>
<!-- HOXD11_HOXA11 -->
<g id="node22" class="node"><title>HOXD11_HOXA11</title>
<a xlink:href="HOXD11_HOXA11.svg" xlink:title="Z&#45;value: 0.598||remove27">
<polygon fill="#b4bbff" stroke="#b4bbff" stroke-width="2" points="203.29,-36 126.79,-36 114.79,-24 114.79,-12 126.79,-6.39488e-14 203.29,-6.39488e-14 215.29,-12 215.29,-24 203.29,-36"/>
<path fill="#b4bbff" stroke="#b4bbff" stroke-width="2" d="M126.79,-36C120.79,-36 114.79,-30 114.79,-24"/>
<path fill="#b4bbff" stroke="#b4bbff" stroke-width="2" d="M114.79,-12C114.79,-6 120.79,-6.39488e-14 126.79,-6.39488e-14"/>
<path fill="#b4bbff" stroke="#b4bbff" stroke-width="2" d="M203.29,-6.39488e-14C209.29,-6.39488e-14 215.29,-6 215.29,-12"/>
<path fill="#b4bbff" stroke="#b4bbff" stroke-width="2" d="M215.29,-24C215.29,-30 209.29,-36 203.29,-36"/>
<polyline fill="none" stroke="white" stroke-width="2" points="203.29,-36 126.79,-36 "/>
<path fill="none" stroke="white" stroke-width="2" d="M126.79,-36C120.79,-36 114.79,-30 114.79,-24"/>
<polyline fill="none" stroke="white" stroke-width="2" points="114.79,-24 114.79,-12 "/>
<path fill="none" stroke="white" stroke-width="2" d="M114.79,-12C114.79,-6 120.79,-6.39488e-14 126.79,-6.39488e-14"/>
<polyline fill="none" stroke="white" stroke-width="2" points="126.79,-6.39488e-14 203.29,-6.39488e-14 "/>
<path fill="none" stroke="white" stroke-width="2" d="M203.29,-6.39488e-14C209.29,-6.39488e-14 215.29,-6 215.29,-12"/>
<polyline fill="none" stroke="white" stroke-width="2" points="215.29,-12 215.29,-24 "/>
<path fill="none" stroke="white" stroke-width="2" d="M215.29,-24C215.29,-30 209.29,-36 203.29,-36"/>
<text text-anchor="middle" x="165.04" y="-15.5" font-family="Helvetica,sans-Serif" font-size="10.00">HOXD11_HOXA11</text>
</a>
</g>
<!-- ESRRB_ESRRG&#45;&gt;HOXD11_HOXA11 -->
<g id="edge26" class="edge"><title>ESRRB_ESRRG&#45;&gt;HOXD11_HOXA11</title>
<a xlink:title="HOXA11: 0.001||ESRRG: 0.036||remove7root">
<path fill="none" stroke="#eecbff" stroke-width="3" d="M325.758,-293.448C311.62,-263.624 286.914,-213.028 262.873,-171.158 236.432,-125.098 202.052,-73.556 181.648,-43.7171"/>
<path fill="none" stroke="#edc8ff" stroke-width="3" d="M327.565,-292.591C313.417,-262.747 288.711,-212.151 264.608,-170.162 238.096,-123.988 203.716,-72.4462 183.299,-42.5882"/>
<polygon fill="#edc8ff" stroke="#edc8ff" points="324.245,-294.459 330.192,-300.499 329.309,-292.069 324.245,-294.459"/>
<polygon fill="#eecbff" stroke="#eecbff" points="184.679,-41.419 177.845,-36.4061 180.062,-44.587 184.679,-41.419"/>
</a>
</g>
<!-- RARG&#45;&gt;HOXC6_HOXA7 -->
<g id="edge22" class="edge"><title>RARG&#45;&gt;HOXC6_HOXA7</title>
<a xlink:title="HOXC6: 0.994||remove35root">
<path fill="none" stroke="#7381ff" stroke-width="3" d="M253.152,-346.837C244.884,-315.981 228.111,-253.383 218.578,-217.805"/>
<polygon fill="#7381ff" stroke="#7381ff" points="221.208,-216.803 216.433,-209.8 215.799,-218.252 221.208,-216.803"/>
</a>
</g>
<!-- HOXC10_HOXD13 -->
<g id="node18" class="node"><title>HOXC10_HOXD13</title>
<a xlink:href="HOXC10_HOXD13.svg" xlink:title="Z&#45;value: 0.435||remove29">
<polygon fill="#bac1ff" stroke="#bac1ff" stroke-width="2" points="122.75,-82.5 46.25,-82.5 34.25,-70.5 34.25,-58.5 46.25,-46.5 122.75,-46.5 134.75,-58.5 134.75,-70.5 122.75,-82.5"/>
<path fill="#bac1ff" stroke="#bac1ff" stroke-width="2" d="M46.25,-82.5C40.25,-82.5 34.25,-76.5 34.25,-70.5"/>
<path fill="#bac1ff" stroke="#bac1ff" stroke-width="2" d="M34.25,-58.5C34.25,-52.5 40.25,-46.5 46.25,-46.5"/>
<path fill="#bac1ff" stroke="#bac1ff" stroke-width="2" d="M122.75,-46.5C128.75,-46.5 134.75,-52.5 134.75,-58.5"/>
<path fill="#bac1ff" stroke="#bac1ff" stroke-width="2" d="M134.75,-70.5C134.75,-76.5 128.75,-82.5 122.75,-82.5"/>
<polyline fill="none" stroke="white" stroke-width="2" points="122.75,-82.5 46.25,-82.5 "/>
<path fill="none" stroke="white" stroke-width="2" d="M46.25,-82.5C40.25,-82.5 34.25,-76.5 34.25,-70.5"/>
<polyline fill="none" stroke="white" stroke-width="2" points="34.25,-70.5 34.25,-58.5 "/>
<path fill="none" stroke="white" stroke-width="2" d="M34.25,-58.5C34.25,-52.5 40.25,-46.5 46.25,-46.5"/>
<polyline fill="none" stroke="white" stroke-width="2" points="46.25,-46.5 122.75,-46.5 "/>
<path fill="none" stroke="white" stroke-width="2" d="M122.75,-46.5C128.75,-46.5 134.75,-52.5 134.75,-58.5"/>
<polyline fill="none" stroke="white" stroke-width="2" points="134.75,-58.5 134.75,-70.5 "/>
<path fill="none" stroke="white" stroke-width="2" d="M134.75,-70.5C134.75,-76.5 128.75,-82.5 122.75,-82.5"/>
<text text-anchor="middle" x="84.5" y="-62" font-family="Helvetica,sans-Serif" font-size="10.00">HOXC10_HOXD13</text>
</a>
</g>
<!-- RARG&#45;&gt;HOXC10_HOXD13 -->
<g id="edge20" class="edge"><title>RARG&#45;&gt;HOXC10_HOXD13</title>
<a xlink:title="HOXC10: 0.139||remove18root">
<path fill="none" stroke="#eabfff" stroke-width="3" d="M245.236,-346.675C225.76,-318.379 187.939,-262.235 159.34,-212.42 135.268,-170.491 110.562,-119.895 96.4195,-90.0615"/>
<polygon fill="#eabfff" stroke="#eabfff" points="98.8361,-88.6214 92.8891,-82.582 93.7718,-91.0118 98.8361,-88.6214"/>
</a>
</g>
<!-- ID4_TCF4_SNAI2&#45;&gt;ID4_TCF4_SNAI2 -->
<g id="edge14" class="edge"><title>ID4_TCF4_SNAI2&#45;&gt;ID4_TCF4_SNAI2</title>
<a xlink:title="SNAI2: 0.300||TCF4: 0.041||remove24root">
<path fill="none" stroke="#e6b1ff" stroke-width="3" d="M213.388,-371.613C223.638,-370.949 231.04,-368.772 231.04,-365.081 231.04,-362.485 227.381,-360.638 221.645,-359.54"/>
<polygon fill="#e6b1ff" stroke="#e6b1ff" points="221.665,-356.722 213.388,-358.549 220.998,-362.282 221.665,-356.722"/>
</a>
</g>
<!-- ID4_TCF4_SNAI2&#45;&gt;HOXC6_HOXA7 -->
<g id="edge16" class="edge"><title>ID4_TCF4_SNAI2&#45;&gt;HOXC6_HOXA7</title>
<a xlink:title="HOXC6: 1.197||remove36root">
<path fill="none" stroke="#6171ff" stroke-width="3" d="M169.929,-346.837C178.197,-315.981 194.97,-253.383 204.503,-217.805"/>
<polygon fill="#6171ff" stroke="#6171ff" points="207.282,-218.252 206.648,-209.8 201.872,-216.803 207.282,-218.252"/>
</a>
</g>
<!-- PATZ1_KLF4 -->
<g id="node12" class="node"><title>PATZ1_KLF4</title>
<a xlink:href="PATZ1_KLF4.svg" xlink:title="Z&#45;value: 1.751||remove26">
<polygon fill="#8591ff" stroke="#8591ff" stroke-width="2" points="64,-256.04 12,-256.04 -7.10543e-15,-244.04 -7.10543e-15,-232.04 12,-220.04 64,-220.04 76,-232.04 76,-244.04 64,-256.04"/>
<path fill="#8591ff" stroke="#8591ff" stroke-width="2" d="M12,-256.04C6,-256.04 -7.10543e-15,-250.04 -7.10543e-15,-244.04"/>
<path fill="#8591ff" stroke="#8591ff" stroke-width="2" d="M-7.10543e-15,-232.04C-7.10543e-15,-226.04 6,-220.04 12,-220.04"/>
<path fill="#8591ff" stroke="#8591ff" stroke-width="2" d="M64,-220.04C70,-220.04 76,-226.04 76,-232.04"/>
<path fill="#8591ff" stroke="#8591ff" stroke-width="2" d="M76,-244.04C76,-250.04 70,-256.04 64,-256.04"/>
<polyline fill="none" stroke="white" stroke-width="2" points="64,-256.04 12,-256.04 "/>
<path fill="none" stroke="white" stroke-width="2" d="M12,-256.04C6,-256.04 -7.10543e-15,-250.04 -7.10543e-15,-244.04"/>
<polyline fill="none" stroke="white" stroke-width="2" points="-7.10543e-15,-244.04 -7.10543e-15,-232.04 "/>
<path fill="none" stroke="white" stroke-width="2" d="M-7.10543e-15,-232.04C-7.10543e-15,-226.04 6,-220.04 12,-220.04"/>
<polyline fill="none" stroke="white" stroke-width="2" points="12,-220.04 64,-220.04 "/>
<path fill="none" stroke="white" stroke-width="2" d="M64,-220.04C70,-220.04 76,-226.04 76,-232.04"/>
<polyline fill="none" stroke="white" stroke-width="2" points="76,-232.04 76,-244.04 "/>
<path fill="none" stroke="white" stroke-width="2" d="M76,-244.04C76,-250.04 70,-256.04 64,-256.04"/>
<text text-anchor="middle" x="38" y="-235.54" font-family="Helvetica,sans-Serif" font-size="10.00">PATZ1_KLF4</text>
</a>
</g>
<!-- ID4_TCF4_SNAI2&#45;&gt;PATZ1_KLF4 -->
<g id="edge12" class="edge"><title>ID4_TCF4_SNAI2&#45;&gt;PATZ1_KLF4</title>
<a xlink:title="PATZ1: 0.067||SNAI2: 0.109||TCF4: 0.089||remove13root">
<path fill="none" stroke="#ecc6ff" stroke-width="3" d="M148.285,-340.358C139.353,-327.141 127.487,-311.059 115.105,-298.4 102.11,-285.089 85.9017,-272.19 71.705,-261.86"/>
<path fill="none" stroke="#ebc2ff" stroke-width="3" d="M149.942,-339.238C140.963,-325.953 129.096,-309.871 116.535,-297.002 103.356,-283.524 87.1471,-270.626 72.8818,-260.243"/>
<polygon fill="#ebc2ff" stroke="#ebc2ff" points="147.02,-341.709 153.774,-346.83 151.688,-338.615 147.02,-341.709"/>
<polygon fill="#ecc6ff" stroke="#ecc6ff" points="73.6235,-258.561 65.4885,-256.181 70.3641,-263.114 73.6235,-258.561"/>
</a>
</g>
<!-- ATF6 -->
<g id="node16" class="node"><title>ATF6</title>
<a xlink:href="ATF6.svg" xlink:title="Z&#45;value: 0.539||remove25">
<polygon fill="#b6bdff" stroke="#b6bdff" stroke-width="2" points="53,-163.04 23,-163.04 11,-151.04 11,-139.04 23,-127.04 53,-127.04 65,-139.04 65,-151.04 53,-163.04"/>
<path fill="#b6bdff" stroke="#b6bdff" stroke-width="2" d="M23,-163.04C17,-163.04 11,-157.04 11,-151.04"/>
<path fill="#b6bdff" stroke="#b6bdff" stroke-width="2" d="M11,-139.04C11,-133.04 17,-127.04 23,-127.04"/>
<path fill="#b6bdff" stroke="#b6bdff" stroke-width="2" d="M53,-127.04C59,-127.04 65,-133.04 65,-139.04"/>
<path fill="#b6bdff" stroke="#b6bdff" stroke-width="2" d="M65,-151.04C65,-157.04 59,-163.04 53,-163.04"/>
<polyline fill="none" stroke="white" stroke-width="2" points="53,-163.04 23,-163.04 "/>
<path fill="none" stroke="white" stroke-width="2" d="M23,-163.04C17,-163.04 11,-157.04 11,-151.04"/>
<polyline fill="none" stroke="white" stroke-width="2" points="11,-151.04 11,-139.04 "/>
<path fill="none" stroke="white" stroke-width="2" d="M11,-139.04C11,-133.04 17,-127.04 23,-127.04"/>
<polyline fill="none" stroke="white" stroke-width="2" points="23,-127.04 53,-127.04 "/>
<path fill="none" stroke="white" stroke-width="2" d="M53,-127.04C59,-127.04 65,-133.04 65,-139.04"/>
<polyline fill="none" stroke="white" stroke-width="2" points="65,-139.04 65,-151.04 "/>
<path fill="none" stroke="white" stroke-width="2" d="M65,-151.04C65,-157.04 59,-163.04 53,-163.04"/>
<text text-anchor="middle" x="38" y="-142.54" font-family="Helvetica,sans-Serif" font-size="10.00">ATF6</text>
</a>
</g>
<!-- ID4_TCF4_SNAI2&#45;&gt;ATF6 -->
<g id="edge18" class="edge"><title>ID4_TCF4_SNAI2&#45;&gt;ATF6</title>
<a xlink:title="ATF6: 0.580||remove25">
<path fill="none" stroke="#de98ff" stroke-width="3" d="M155.041,-346.738C139.669,-318.656 109.165,-263.4 82.08,-217.16 72.8589,-201.418 62.1975,-183.956 53.6698,-170.158"/>
<polygon fill="#de98ff" stroke="#de98ff" points="56.0174,-168.63 49.4237,-163.304 51.2571,-171.58 56.0174,-168.63"/>
</a>
</g>
<!-- NR6A1&#45;&gt;HOXC6_HOXA7 -->
<g id="edge30" class="edge"><title>NR6A1&#45;&gt;HOXC6_HOXA7</title>
<a xlink:title="HOXC6: 0.668||remove33root">
<path fill="none" stroke="#909bff" stroke-width="3" d="M102.702,-300.379C125.06,-278.021 163.048,-240.033 187.712,-215.369"/>
<polygon fill="#909bff" stroke="#909bff" points="189.695,-217.345 193.372,-209.708 185.736,-213.385 189.695,-217.345"/>
</a>
</g>
<!-- PATZ1_KLF4&#45;&gt;ESRRA_ESR2 -->
<g id="edge50" class="edge"><title>PATZ1_KLF4&#45;&gt;ESRRA_ESR2</title>
<a xlink:title="ESRRA: 1.315||ESR2: 0.103||remove26">
<path fill="none" stroke="#c956ff" stroke-width="3" d="M76.1366,-238.04C139.255,-238.04 265.408,-238.04 335.407,-238.04"/>
<polygon fill="#c956ff" stroke="#c956ff" points="335.657,-240.84 343.657,-238.04 335.657,-235.24 335.657,-240.84"/>
</a>
</g>
<!-- PATZ1_KLF4&#45;&gt;ESRRB_ESRRG -->
<g id="edge36" class="edge"><title>PATZ1_KLF4&#45;&gt;ESRRB_ESRRG</title>
<a xlink:title="ESRRG: 0.040||remove10root">
<path fill="none" stroke="#edc8ff" stroke-width="3" d="M76.0688,-248.241C128.757,-262.359 224.196,-287.932 284.332,-304.045"/>
<polygon fill="#edc8ff" stroke="#edc8ff" points="283.759,-306.79 292.211,-306.156 285.208,-301.381 283.759,-306.79"/>
</a>
</g>
<!-- PATZ1_KLF4&#45;&gt;RARG -->
<g id="edge38" class="edge"><title>PATZ1_KLF4&#45;&gt;RARG</title>
<a xlink:title="RARG: 0.012||remove1root">
<path fill="none" stroke="#eecaff" stroke-width="3" d="M69.5264,-256.242C110.417,-279.85 181.49,-320.884 223.709,-345.259"/>
<polygon fill="#eecaff" stroke="#eecaff" points="222.406,-347.741 230.735,-349.316 225.207,-342.891 222.406,-347.741"/>
</a>
</g>
<!-- PATZ1_KLF4&#45;&gt;HOXC6_HOXA7 -->
<g id="edge42" class="edge"><title>PATZ1_KLF4&#45;&gt;HOXC6_HOXA7</title>
<a xlink:title="HOXC6: 0.421||remove26root">
<path fill="none" stroke="#a6afff" stroke-width="3" d="M76.0842,-227.836C100.331,-221.339 132.076,-212.833 158.739,-205.688"/>
<polygon fill="#a6afff" stroke="#a6afff" points="159.472,-208.391 166.475,-203.616 158.022,-202.982 159.472,-208.391"/>
</a>
</g>
<!-- PATZ1_KLF4&#45;&gt;NR6A1 -->
<g id="edge44" class="edge"><title>PATZ1_KLF4&#45;&gt;NR6A1</title>
<a xlink:title="NR6A1: 0.254||remove22root">
<path fill="none" stroke="#e7b5ff" stroke-width="3" d="M48.5516,-256.316C54.8536,-267.232 62.9512,-281.257 69.865,-293.232"/>
<polygon fill="#e7b5ff" stroke="#e7b5ff" points="67.5653,-294.849 73.9902,-300.377 72.415,-292.049 67.5653,-294.849"/>
</a>
</g>
<!-- PATZ1_KLF4&#45;&gt;PATZ1_KLF4 -->
<g id="edge34" class="edge"><title>PATZ1_KLF4&#45;&gt;PATZ1_KLF4</title>
<a xlink:title="PATZ1: 0.441||KLF4: 0.051||remove26">
<path fill="none" stroke="#e2a4ff" stroke-width="3" d="M76.214,-244.731C86.3346,-244.349 94,-242.118 94,-238.04 94,-235.173 90.2104,-233.219 84.4422,-232.179"/>
<polygon fill="#e2a4ff" stroke="#e2a4ff" points="84.4544,-229.366 76.214,-231.35 83.8929,-234.938 84.4544,-229.366"/>
</a>
</g>
<!-- PATZ1_KLF4&#45;&gt;HOXC10_HOXD13 -->
<g id="edge32" class="edge"><title>PATZ1_KLF4&#45;&gt;HOXC10_HOXD13</title>
<a xlink:title="HOXC10: 0.039||remove9root">
<path fill="none" stroke="#edc8ff" stroke-width="3" d="M47.4827,-219.853C54.5428,-205.558 63.8664,-184.948 69.32,-165.92 76.4769,-140.95 80.4067,-111.5 82.4631,-90.7868"/>
<polygon fill="#edc8ff" stroke="#edc8ff" points="85.2569,-90.9824 83.21,-82.7575 79.681,-90.4637 85.2569,-90.9824"/>
</a>
</g>
<!-- PATZ1_KLF4&#45;&gt;HOXD11_HOXA11 -->
<g id="edge40" class="edge"><title>PATZ1_KLF4&#45;&gt;HOXD11_HOXA11</title>
<a xlink:title="HOXD11: 0.125||remove15root">
<path fill="none" stroke="#ebc0ff" stroke-width="3" d="M53.1294,-219.853C75.4342,-192.286 117.28,-137.591 143.08,-85.38 149.519,-72.3504 154.691,-56.9991 158.395,-44.2428"/>
<polygon fill="#ebc0ff" stroke="#ebc0ff" points="161.162,-44.7436 160.615,-36.2853 155.768,-43.2384 161.162,-44.7436"/>
</a>
</g>
<!-- PPARA -->
<g id="node33" class="node"><title>PPARA</title>
<a xlink:href="PPARA.svg" xlink:title="Z&#45;value: 0.768||remove31">
<polygon fill="#adb5ff" stroke="#adb5ff" stroke-width="2" points="273.04,-36 243.04,-36 231.04,-24 231.04,-12 243.04,-0 273.04,-0 285.04,-12 285.04,-24 273.04,-36"/>
<path fill="#adb5ff" stroke="#adb5ff" stroke-width="2" d="M243.04,-36C237.04,-36 231.04,-30 231.04,-24"/>
<path fill="#adb5ff" stroke="#adb5ff" stroke-width="2" d="M231.04,-12C231.04,-6 237.04,-0 243.04,-0"/>
<path fill="#adb5ff" stroke="#adb5ff" stroke-width="2" d="M273.04,-0C279.04,-0 285.04,-6 285.04,-12"/>
<path fill="#adb5ff" stroke="#adb5ff" stroke-width="2" d="M285.04,-24C285.04,-30 279.04,-36 273.04,-36"/>
<polyline fill="none" stroke="white" stroke-width="2" points="273.04,-36 243.04,-36 "/>
<path fill="none" stroke="white" stroke-width="2" d="M243.04,-36C237.04,-36 231.04,-30 231.04,-24"/>
<polyline fill="none" stroke="white" stroke-width="2" points="231.04,-24 231.04,-12 "/>
<path fill="none" stroke="white" stroke-width="2" d="M231.04,-12C231.04,-6 237.04,-0 243.04,-0"/>
<polyline fill="none" stroke="white" stroke-width="2" points="243.04,-0 273.04,-0 "/>
<path fill="none" stroke="white" stroke-width="2" d="M273.04,-0C279.04,-0 285.04,-6 285.04,-12"/>
<polyline fill="none" stroke="white" stroke-width="2" points="285.04,-12 285.04,-24 "/>
<path fill="none" stroke="white" stroke-width="2" d="M285.04,-24C285.04,-30 279.04,-36 273.04,-36"/>
<text text-anchor="middle" x="258.04" y="-15.5" font-family="Helvetica,sans-Serif" font-size="10.00">PPARA</text>
</a>
</g>
<!-- PATZ1_KLF4&#45;&gt;PPARA -->
<g id="edge46" class="edge"><title>PATZ1_KLF4&#45;&gt;PPARA</title>
<a xlink:title="PPARA: 0.175||remove19root">
<path fill="none" stroke="#e9bcff" stroke-width="3" d="M56.0068,-220.034C95.4955,-180.545 189.713,-86.327 234.115,-41.9255"/>
<polygon fill="#e9bcff" stroke="#e9bcff" points="236.108,-43.8924 239.785,-36.2556 232.148,-39.9326 236.108,-43.8924"/>
</a>
</g>
<!-- ZEB1 -->
<g id="node35" class="node"><title>ZEB1</title>
<a xlink:href="ZEB1.svg" xlink:title="Z&#45;value: 1.478||remove28">
<polygon fill="#909bff" stroke="#909bff" stroke-width="2" points="353.581,-82.5 323.581,-82.5 311.581,-70.5 311.581,-58.5 323.581,-46.5 353.581,-46.5 365.581,-58.5 365.581,-70.5 353.581,-82.5"/>
<path fill="#909bff" stroke="#909bff" stroke-width="2" d="M323.581,-82.5C317.581,-82.5 311.581,-76.5 311.581,-70.5"/>
<path fill="#909bff" stroke="#909bff" stroke-width="2" d="M311.581,-58.5C311.581,-52.5 317.581,-46.5 323.581,-46.5"/>
<path fill="#909bff" stroke="#909bff" stroke-width="2" d="M353.581,-46.5C359.581,-46.5 365.581,-52.5 365.581,-58.5"/>
<path fill="#909bff" stroke="#909bff" stroke-width="2" d="M365.581,-70.5C365.581,-76.5 359.581,-82.5 353.581,-82.5"/>
<polyline fill="none" stroke="white" stroke-width="2" points="353.581,-82.5 323.581,-82.5 "/>
<path fill="none" stroke="white" stroke-width="2" d="M323.581,-82.5C317.581,-82.5 311.581,-76.5 311.581,-70.5"/>
<polyline fill="none" stroke="white" stroke-width="2" points="311.581,-70.5 311.581,-58.5 "/>
<path fill="none" stroke="white" stroke-width="2" d="M311.581,-58.5C311.581,-52.5 317.581,-46.5 323.581,-46.5"/>
<polyline fill="none" stroke="white" stroke-width="2" points="323.581,-46.5 353.581,-46.5 "/>
<path fill="none" stroke="white" stroke-width="2" d="M353.581,-46.5C359.581,-46.5 365.581,-52.5 365.581,-58.5"/>
<polyline fill="none" stroke="white" stroke-width="2" points="365.581,-58.5 365.581,-70.5 "/>
<path fill="none" stroke="white" stroke-width="2" d="M365.581,-70.5C365.581,-76.5 359.581,-82.5 353.581,-82.5"/>
<text text-anchor="middle" x="338.581" y="-62" font-family="Helvetica,sans-Serif" font-size="10.00">ZEB1</text>
</a>
</g>
<!-- PATZ1_KLF4&#45;&gt;ZEB1 -->
<g id="edge48" class="edge"><title>PATZ1_KLF4&#45;&gt;ZEB1</title>
<a xlink:title="ZEB1: 0.088||remove12root">
<path fill="none" stroke="#ecc4ff" stroke-width="3" d="M69.3168,-219.96C125.986,-187.242 245.124,-118.457 304.06,-84.4306"/>
<polygon fill="#ecc4ff" stroke="#ecc4ff" points="305.754,-86.6859 311.282,-80.261 302.954,-81.8362 305.754,-86.6859"/>
</a>
</g>
<!-- FUBP1 -->
<g id="node38" class="node"><title>FUBP1</title>
<a xlink:href="FUBP1.svg" xlink:title="Z&#45;value: 0.535||remove30">
<polygon fill="#b6bdff" stroke="#b6bdff" stroke-width="2" points="400.081,-163.04 370.081,-163.04 358.081,-151.04 358.081,-139.04 370.081,-127.04 400.081,-127.04 412.081,-139.04 412.081,-151.04 400.081,-163.04"/>
<path fill="#b6bdff" stroke="#b6bdff" stroke-width="2" d="M370.081,-163.04C364.081,-163.04 358.081,-157.04 358.081,-151.04"/>
<path fill="#b6bdff" stroke="#b6bdff" stroke-width="2" d="M358.081,-139.04C358.081,-133.04 364.081,-127.04 370.081,-127.04"/>
<path fill="#b6bdff" stroke="#b6bdff" stroke-width="2" d="M400.081,-127.04C406.081,-127.04 412.081,-133.04 412.081,-139.04"/>
<path fill="#b6bdff" stroke="#b6bdff" stroke-width="2" d="M412.081,-151.04C412.081,-157.04 406.081,-163.04 400.081,-163.04"/>
<polyline fill="none" stroke="white" stroke-width="2" points="400.081,-163.04 370.081,-163.04 "/>
<path fill="none" stroke="white" stroke-width="2" d="M370.081,-163.04C364.081,-163.04 358.081,-157.04 358.081,-151.04"/>
<polyline fill="none" stroke="white" stroke-width="2" points="358.081,-151.04 358.081,-139.04 "/>
<path fill="none" stroke="white" stroke-width="2" d="M358.081,-139.04C358.081,-133.04 364.081,-127.04 370.081,-127.04"/>
<polyline fill="none" stroke="white" stroke-width="2" points="370.081,-127.04 400.081,-127.04 "/>
<path fill="none" stroke="white" stroke-width="2" d="M400.081,-127.04C406.081,-127.04 412.081,-133.04 412.081,-139.04"/>
<polyline fill="none" stroke="white" stroke-width="2" points="412.081,-139.04 412.081,-151.04 "/>
<path fill="none" stroke="white" stroke-width="2" d="M412.081,-151.04C412.081,-157.04 406.081,-163.04 400.081,-163.04"/>
<text text-anchor="middle" x="385.081" y="-142.54" font-family="Helvetica,sans-Serif" font-size="10.00">FUBP1</text>
</a>
</g>
<!-- PATZ1_KLF4&#45;&gt;FUBP1 -->
<g id="edge52" class="edge"><title>PATZ1_KLF4&#45;&gt;FUBP1</title>
<a xlink:title="FUBP1: 0.006||remove0root">
<path fill="none" stroke="#eecbff" stroke-width="3" d="M63.6082,-219.865C87.2688,-204.063 124.001,-181.979 159.34,-170.66 224.407,-149.821 304.773,-145.453 349.944,-144.807"/>
<polygon fill="#eecbff" stroke="#eecbff" points="349.986,-147.607 357.957,-144.727 349.93,-142.008 349.986,-147.607"/>
</a>
</g>
<!-- ATF6&#45;&gt;RARG -->
<g id="edge54" class="edge"><title>ATF6&#45;&gt;RARG</title>
<a xlink:title="RARG: 0.037||remove8root">
<path fill="none" stroke="#edc8ff" stroke-width="3" d="M56.0068,-163.047C95.4955,-202.536 189.713,-296.754 234.115,-341.155"/>
<polygon fill="#edc8ff" stroke="#edc8ff" points="232.148,-343.148 239.785,-346.825 236.108,-339.188 232.148,-343.148"/>
</a>
</g>
<!-- ATF6&#45;&gt;HOXC6_HOXA7 -->
<g id="edge56" class="edge"><title>ATF6&#45;&gt;HOXC6_HOXA7</title>
<a xlink:title="HOXC6: 0.354||remove25root">
<path fill="none" stroke="#acb4ff" stroke-width="3" d="M65.1157,-152.306C89.9681,-158.965 127.475,-169.015 158.306,-177.276"/>
<polygon fill="#acb4ff" stroke="#acb4ff" points="157.946,-180.078 166.398,-179.444 159.395,-174.669 157.946,-180.078"/>
</a>
</g>
<!-- HOXC10_HOXD13&#45;&gt;ID4_TCF4_SNAI2 -->
<g id="edge82" class="edge"><title>HOXC10_HOXD13&#45;&gt;ID4_TCF4_SNAI2</title>
<a xlink:title="SNAI2: 0.294||TCF4: 0.108||remove23root">
<path fill="none" stroke="#e6b1ff" stroke-width="3" d="M89.4169,-82.8502C103.182,-134.223 142.137,-279.606 158.094,-339.156"/>
<polygon fill="#e6b1ff" stroke="#e6b1ff" points="155.413,-339.968 160.188,-346.971 160.822,-338.519 155.413,-339.968"/>
</a>
</g>
<!-- HOXC10_HOXD13&#45;&gt;HOXC6_HOXA7 -->
<g id="edge84" class="edge"><title>HOXC10_HOXD13&#45;&gt;HOXC6_HOXA7</title>
<a xlink:title="HOXC6: 0.450||remove29root">
<path fill="none" stroke="#a3adff" stroke-width="3" d="M102.702,-82.7018C125.06,-105.06 163.048,-143.048 187.712,-167.712"/>
<polygon fill="#a3adff" stroke="#a3adff" points="185.736,-169.695 193.372,-173.372 189.695,-165.736 185.736,-169.695"/>
</a>
</g>
<!-- HOXD11_HOXA11&#45;&gt;ID4_TCF4_SNAI2 -->
<g id="edge76" class="edge"><title>HOXD11_HOXA11&#45;&gt;ID4_TCF4_SNAI2</title>
<a xlink:title="TCF4: 0.079||SNAI2: 0.003||remove11root">
<path fill="none" stroke="#ecc5ff" stroke-width="3" d="M164.135,-36.323C162.77,-64.9752 160.246,-122.134 159.34,-170.66 158.22,-230.673 161.404,-301.078 163.454,-338.512"/>
<polygon fill="#ecc5ff" stroke="#ecc5ff" points="160.679,-339.027 163.923,-346.857 166.27,-338.713 160.679,-339.027"/>
</a>
</g>
<!-- HOXD11_HOXA11&#45;&gt;HOXC6_HOXA7 -->
<g id="edge78" class="edge"><title>HOXD11_HOXA11&#45;&gt;HOXC6_HOXA7</title>
<a xlink:title="HOXC6: 0.433||remove27root">
<path fill="none" stroke="#a5aeff" stroke-width="3" d="M169.929,-36.2439C178.197,-67.1 194.97,-129.698 204.503,-165.275"/>
<polygon fill="#a5aeff" stroke="#a5aeff" points="201.872,-166.278 206.648,-173.281 207.282,-164.828 201.872,-166.278"/>
</a>
</g>
<!-- PPARA&#45;&gt;ID4_TCF4_SNAI2 -->
<g id="edge72" class="edge"><title>PPARA&#45;&gt;ID4_TCF4_SNAI2</title>
<a xlink:title="TCF4: 0.022||remove3root">
<path fill="none" stroke="#eecaff" stroke-width="3" d="M262.258,-36.1716C269.58,-71.1515 282.187,-149.913 263.74,-212.42 248.875,-262.794 211.628,-312.186 187.38,-340.586"/>
<polygon fill="#eecaff" stroke="#eecaff" points="185.239,-338.782 182.117,-346.661 189.472,-342.449 185.239,-338.782"/>
</a>
</g>
<!-- PPARA&#45;&gt;HOXC6_HOXA7 -->
<g id="edge74" class="edge"><title>PPARA&#45;&gt;HOXC6_HOXA7</title>
<a xlink:title="HOXC6: 0.519||remove31root">
<path fill="none" stroke="#9da7ff" stroke-width="3" d="M253.152,-36.2439C244.884,-67.1 228.111,-129.698 218.578,-165.275"/>
<polygon fill="#9da7ff" stroke="#9da7ff" points="215.799,-164.828 216.433,-173.281 221.208,-166.278 215.799,-164.828"/>
</a>
</g>
<!-- PPARA&#45;&gt;HOXC10_HOXD13 -->
<g id="edge70" class="edge"><title>PPARA&#45;&gt;HOXC10_HOXD13</title>
<a xlink:title="HOXC10: 0.021||remove2root">
<path fill="none" stroke="#eecaff" stroke-width="3" d="M230.681,-35.7743C228.343,-36.9287 225.972,-37.9849 223.62,-38.88 198.042,-48.6158 168.37,-54.7303 143.016,-58.5313"/>
<polygon fill="#eecaff" stroke="#eecaff" points="142.469,-55.781 134.946,-59.6858 143.262,-61.3245 142.469,-55.781"/>
</a>
</g>
<!-- ZEB1&#45;&gt;ESRRB_ESRRG -->
<g id="edge58" class="edge"><title>ZEB1&#45;&gt;ESRRB_ESRRG</title>
<a xlink:title="ESRRG: 0.024||remove5root">
<path fill="none" stroke="#edc9ff" stroke-width="3" d="M338.158,-82.7276C337.418,-117.157 336.05,-194.117 336.941,-258.92 337.091,-269.848 337.396,-281.897 337.702,-292.29"/>
<polygon fill="#edc9ff" stroke="#edc9ff" points="334.912,-292.659 337.957,-300.569 340.51,-292.487 334.912,-292.659"/>
</a>
</g>
<!-- ZEB1&#45;&gt;ID4_TCF4_SNAI2 -->
<g id="edge60" class="edge"><title>ZEB1&#45;&gt;ID4_TCF4_SNAI2</title>
<a xlink:title="TCF4: 0.228||SNAI2: 0.103||remove21root">
<path fill="none" stroke="#e8b7ff" stroke-width="3" d="M330.192,-82.582C316.939,-110.783 289.963,-166.744 263.74,-212.42 237.264,-258.537 202.884,-310.08 182.473,-339.928"/>
<polygon fill="#e8b7ff" stroke="#e8b7ff" points="180.062,-338.494 177.845,-346.675 184.679,-341.662 180.062,-338.494"/>
</a>
</g>
<!-- ZEB1&#45;&gt;HOXC6_HOXA7 -->
<g id="edge62" class="edge"><title>ZEB1&#45;&gt;HOXC6_HOXA7</title>
<a xlink:title="HOXC6: 0.436||remove28root">
<path fill="none" stroke="#a5aeff" stroke-width="3" d="M320.379,-82.7018C298.021,-105.06 260.033,-143.048 235.369,-167.712"/>
<polygon fill="#a5aeff" stroke="#a5aeff" points="233.385,-165.736 229.708,-173.372 237.345,-169.695 233.385,-165.736"/>
</a>
</g>
<!-- ZEB1&#45;&gt;ATF6 -->
<g id="edge68" class="edge"><title>ZEB1&#45;&gt;ATF6</title>
<a xlink:title="ATF6: 0.199||remove20root">
<path fill="none" stroke="#e9baff" stroke-width="3" d="M311.376,-71.7895C256.746,-86.4275 133.759,-119.382 73.1363,-135.626"/>
<polygon fill="#e9baff" stroke="#e9baff" points="72.3625,-132.934 65.3598,-137.709 73.8119,-138.343 72.3625,-132.934"/>
</a>
</g>
<!-- ZEB1&#45;&gt;ZEB1 -->
<g id="edge64" class="edge"><title>ZEB1&#45;&gt;ZEB1</title>
<a xlink:title="ZEB1: 0.449||remove28">
<path fill="none" stroke="#e1a4ff" stroke-width="3" d="M365.822,-71.2434C375.605,-71.3884 383.581,-69.1406 383.581,-64.5 383.581,-61.2371 379.637,-59.1571 373.895,-58.2601"/>
<polygon fill="#e1a4ff" stroke="#e1a4ff" points="373.98,-55.4601 365.822,-57.7566 373.632,-61.0492 373.98,-55.4601"/>
</a>
</g>
<!-- ZEB1&#45;&gt;FUBP1 -->
<g id="edge66" class="edge"><title>ZEB1&#45;&gt;FUBP1</title>
<a xlink:title="FUBP1: 0.035||remove6root">
<path fill="none" stroke="#edc8ff" stroke-width="3" d="M349.132,-82.7759C355.434,-93.6913 363.532,-107.717 370.446,-119.692"/>
<polygon fill="#edc8ff" stroke="#edc8ff" points="368.146,-121.309 374.571,-126.837 372.996,-118.509 368.146,-121.309"/>
</a>
</g>
<!-- FUBP1&#45;&gt;HOXC6_HOXA7 -->
<g id="edge80" class="edge"><title>FUBP1&#45;&gt;HOXC6_HOXA7</title>
<a xlink:title="HOXC6: 0.453||remove30root">
<path fill="none" stroke="#a3acff" stroke-width="3" d="M357.965,-152.306C333.113,-158.965 295.606,-169.015 264.775,-177.276"/>
<polygon fill="#a3acff" stroke="#a3acff" points="263.686,-174.669 256.683,-179.444 265.135,-180.078 263.686,-174.669"/>
</a>
</g>
</g>
</svg>
