<?xml version="1.0" encoding="UTF-8" standalone="no"?>
<!DOCTYPE svg PUBLIC "-//W3C//DTD SVG 1.1//EN"
 "http://www.w3.org/Graphics/SVG/1.1/DTD/svg11.dtd">
<!-- Generated by graphviz version 2.28.0 (20110630.0925)
 -->
<!-- Title: _anonymous_0 Pages: 1 -->
<svg width="422pt" height="380pt"
 viewBox="0.00 0.00 422.06 380.49" xmlns="http://www.w3.org/2000/svg" xmlns:xlink="http://www.w3.org/1999/xlink">
<g id="graph1" class="graph" transform="scale(1 1) rotate(0) translate(4 376.489)">
<title>_anonymous_0</title>
<polygon fill="white" stroke="white" points="-4,5 -4,-376.489 419.064,-376.489 419.064,5 -4,5"/>
<!-- ESRRA_ESR2 -->
<g id="node1" class="node"><title>ESRRA_ESR2</title>
<a xlink:href="ESRRA_ESR2.svg" xlink:title="Z&#45;value: 3.814||remove33">
<polygon fill="#3247ff" stroke="#3247ff" stroke-width="2" points="337.535,-332.703 279.035,-332.703 267.035,-320.703 267.035,-308.703 279.035,-296.703 337.535,-296.703 349.535,-308.703 349.535,-320.703 337.535,-332.703"/>
<path fill="#3247ff" stroke="#3247ff" stroke-width="2" d="M279.035,-332.703C273.035,-332.703 267.035,-326.703 267.035,-320.703"/>
<path fill="#3247ff" stroke="#3247ff" stroke-width="2" d="M267.035,-308.703C267.035,-302.703 273.035,-296.703 279.035,-296.703"/>
<path fill="#3247ff" stroke="#3247ff" stroke-width="2" d="M337.535,-296.703C343.535,-296.703 349.535,-302.703 349.535,-308.703"/>
<path fill="#3247ff" stroke="#3247ff" stroke-width="2" d="M349.535,-320.703C349.535,-326.703 343.535,-332.703 337.535,-332.703"/>
<polyline fill="none" stroke="white" stroke-width="2" points="337.535,-332.703 279.035,-332.703 "/>
<path fill="none" stroke="white" stroke-width="2" d="M279.035,-332.703C273.035,-332.703 267.035,-326.703 267.035,-320.703"/>
<polyline fill="none" stroke="white" stroke-width="2" points="267.035,-320.703 267.035,-308.703 "/>
<path fill="none" stroke="white" stroke-width="2" d="M267.035,-308.703C267.035,-302.703 273.035,-296.703 279.035,-296.703"/>
<polyline fill="none" stroke="white" stroke-width="2" points="279.035,-296.703 337.535,-296.703 "/>
<path fill="none" stroke="white" stroke-width="2" d="M337.535,-296.703C343.535,-296.703 349.535,-302.703 349.535,-308.703"/>
<polyline fill="none" stroke="white" stroke-width="2" points="349.535,-308.703 349.535,-320.703 "/>
<path fill="none" stroke="white" stroke-width="2" d="M349.535,-320.703C349.535,-326.703 343.535,-332.703 337.535,-332.703"/>
<text text-anchor="middle" x="308.285" y="-312.203" font-family="Helvetica,sans-Serif" font-size="10.00" fill="white">ESRRA_ESR2</text>
</a>
</g>
<!-- MEIS2 -->
<g id="node2" class="node"><title>MEIS2</title>
<a xlink:href="MEIS2.svg" xlink:title="Z&#45;value: 1.195||remove30">
<polygon fill="#9ca5ff" stroke="#9ca5ff" stroke-width="2" points="236.165,-372.489 206.165,-372.489 194.165,-360.489 194.165,-348.489 206.165,-336.489 236.165,-336.489 248.165,-348.489 248.165,-360.489 236.165,-372.489"/>
<path fill="#9ca5ff" stroke="#9ca5ff" stroke-width="2" d="M206.165,-372.489C200.165,-372.489 194.165,-366.489 194.165,-360.489"/>
<path fill="#9ca5ff" stroke="#9ca5ff" stroke-width="2" d="M194.165,-348.489C194.165,-342.489 200.165,-336.489 206.165,-336.489"/>
<path fill="#9ca5ff" stroke="#9ca5ff" stroke-width="2" d="M236.165,-336.489C242.165,-336.489 248.165,-342.489 248.165,-348.489"/>
<path fill="#9ca5ff" stroke="#9ca5ff" stroke-width="2" d="M248.165,-360.489C248.165,-366.489 242.165,-372.489 236.165,-372.489"/>
<polyline fill="none" stroke="white" stroke-width="2" points="236.165,-372.489 206.165,-372.489 "/>
<path fill="none" stroke="white" stroke-width="2" d="M206.165,-372.489C200.165,-372.489 194.165,-366.489 194.165,-360.489"/>
<polyline fill="none" stroke="white" stroke-width="2" points="194.165,-360.489 194.165,-348.489 "/>
<path fill="none" stroke="white" stroke-width="2" d="M194.165,-348.489C194.165,-342.489 200.165,-336.489 206.165,-336.489"/>
<polyline fill="none" stroke="white" stroke-width="2" points="206.165,-336.489 236.165,-336.489 "/>
<path fill="none" stroke="white" stroke-width="2" d="M236.165,-336.489C242.165,-336.489 248.165,-342.489 248.165,-348.489"/>
<polyline fill="none" stroke="white" stroke-width="2" points="248.165,-348.489 248.165,-360.489 "/>
<path fill="none" stroke="white" stroke-width="2" d="M248.165,-360.489C248.165,-366.489 242.165,-372.489 236.165,-372.489"/>
<text text-anchor="middle" x="221.165" y="-351.989" font-family="Helvetica,sans-Serif" font-size="10.00">MEIS2</text>
</a>
</g>
<!-- ESRRA_ESR2&#45;&gt;MEIS2 -->
<g id="edge2" class="edge"><title>ESRRA_ESR2&#45;&gt;MEIS2</title>
<a xlink:title="MEIS2: 0.018||remove8root">
<path fill="none" stroke="#eec9ff" stroke-width="3" d="M268.803,-332.734C264.47,-334.713 260.082,-336.716 255.814,-338.666"/>
<polygon fill="#eec9ff" stroke="#eec9ff" points="254.411,-336.228 248.297,-342.098 256.737,-341.322 254.411,-336.228"/>
</a>
</g>
<!-- GATA6 -->
<g id="node4" class="node"><title>GATA6</title>
<a xlink:href="GATA6.svg" xlink:title="Z&#45;value: 0.379||remove29">
<polygon fill="#bcc3ff" stroke="#bcc3ff" stroke-width="2" points="375.064,-252.132 345.064,-252.132 333.064,-240.132 333.064,-228.132 345.064,-216.132 375.064,-216.132 387.064,-228.132 387.064,-240.132 375.064,-252.132"/>
<path fill="#bcc3ff" stroke="#bcc3ff" stroke-width="2" d="M345.064,-252.132C339.064,-252.132 333.064,-246.132 333.064,-240.132"/>
<path fill="#bcc3ff" stroke="#bcc3ff" stroke-width="2" d="M333.064,-228.132C333.064,-222.132 339.064,-216.132 345.064,-216.132"/>
<path fill="#bcc3ff" stroke="#bcc3ff" stroke-width="2" d="M375.064,-216.132C381.064,-216.132 387.064,-222.132 387.064,-228.132"/>
<path fill="#bcc3ff" stroke="#bcc3ff" stroke-width="2" d="M387.064,-240.132C387.064,-246.132 381.064,-252.132 375.064,-252.132"/>
<polyline fill="none" stroke="white" stroke-width="2" points="375.064,-252.132 345.064,-252.132 "/>
<path fill="none" stroke="white" stroke-width="2" d="M345.064,-252.132C339.064,-252.132 333.064,-246.132 333.064,-240.132"/>
<polyline fill="none" stroke="white" stroke-width="2" points="333.064,-240.132 333.064,-228.132 "/>
<path fill="none" stroke="white" stroke-width="2" d="M333.064,-228.132C333.064,-222.132 339.064,-216.132 345.064,-216.132"/>
<polyline fill="none" stroke="white" stroke-width="2" points="345.064,-216.132 375.064,-216.132 "/>
<path fill="none" stroke="white" stroke-width="2" d="M375.064,-216.132C381.064,-216.132 387.064,-222.132 387.064,-228.132"/>
<polyline fill="none" stroke="white" stroke-width="2" points="387.064,-228.132 387.064,-240.132 "/>
<path fill="none" stroke="white" stroke-width="2" d="M387.064,-240.132C387.064,-246.132 381.064,-252.132 375.064,-252.132"/>
<text text-anchor="middle" x="360.064" y="-231.632" font-family="Helvetica,sans-Serif" font-size="10.00">GATA6</text>
</a>
</g>
<!-- ESRRA_ESR2&#45;&gt;GATA6 -->
<g id="edge4" class="edge"><title>ESRRA_ESR2&#45;&gt;GATA6</title>
<a xlink:title="GATA6: 0.330||remove29">
<path fill="none" stroke="#e2a5ff" stroke-width="3" d="M320.034,-296.42C327.118,-285.398 336.239,-271.205 343.985,-259.152"/>
<polygon fill="#e2a5ff" stroke="#e2a5ff" points="346.392,-260.586 348.361,-252.343 341.681,-257.559 346.392,-260.586"/>
</a>
</g>
<!-- ZIC3_ZIC4 -->
<g id="node6" class="node"><title>ZIC3_ZIC4</title>
<a xlink:href="ZIC3_ZIC4.svg" xlink:title="Z&#45;value: 1.042||remove31">
<polygon fill="#a2abff" stroke="#a2abff" stroke-width="2" points="146.615,-358.859 106.115,-358.859 94.1147,-346.859 94.1147,-334.859 106.115,-322.859 146.615,-322.859 158.615,-334.859 158.615,-346.859 146.615,-358.859"/>
<path fill="#a2abff" stroke="#a2abff" stroke-width="2" d="M106.115,-358.859C100.115,-358.859 94.1147,-352.859 94.1147,-346.859"/>
<path fill="#a2abff" stroke="#a2abff" stroke-width="2" d="M94.1147,-334.859C94.1147,-328.859 100.115,-322.859 106.115,-322.859"/>
<path fill="#a2abff" stroke="#a2abff" stroke-width="2" d="M146.615,-322.859C152.615,-322.859 158.615,-328.859 158.615,-334.859"/>
<path fill="#a2abff" stroke="#a2abff" stroke-width="2" d="M158.615,-346.859C158.615,-352.859 152.615,-358.859 146.615,-358.859"/>
<polyline fill="none" stroke="white" stroke-width="2" points="146.615,-358.859 106.115,-358.859 "/>
<path fill="none" stroke="white" stroke-width="2" d="M106.115,-358.859C100.115,-358.859 94.1147,-352.859 94.1147,-346.859"/>
<polyline fill="none" stroke="white" stroke-width="2" points="94.1147,-346.859 94.1147,-334.859 "/>
<path fill="none" stroke="white" stroke-width="2" d="M94.1147,-334.859C94.1147,-328.859 100.115,-322.859 106.115,-322.859"/>
<polyline fill="none" stroke="white" stroke-width="2" points="106.115,-322.859 146.615,-322.859 "/>
<path fill="none" stroke="white" stroke-width="2" d="M146.615,-322.859C152.615,-322.859 158.615,-328.859 158.615,-334.859"/>
<polyline fill="none" stroke="white" stroke-width="2" points="158.615,-334.859 158.615,-346.859 "/>
<path fill="none" stroke="white" stroke-width="2" d="M158.615,-346.859C158.615,-352.859 152.615,-358.859 146.615,-358.859"/>
<text text-anchor="middle" x="126.365" y="-338.359" font-family="Helvetica,sans-Serif" font-size="10.00">ZIC3_ZIC4</text>
</a>
</g>
<!-- ESRRA_ESR2&#45;&gt;ZIC3_ZIC4 -->
<g id="edge6" class="edge"><title>ESRRA_ESR2&#45;&gt;ZIC3_ZIC4</title>
<a xlink:title="ZIC3: 0.043||remove14root">
<path fill="none" stroke="#edc6ff" stroke-width="3" d="M267.004,-320.638C237.107,-324.937 196.882,-330.72 167.109,-335.001"/>
<polygon fill="#edc6ff" stroke="#edc6ff" points="166.527,-332.256 159.006,-336.166 167.324,-337.799 166.527,-332.256"/>
</a>
</g>
<!-- IRF9 -->
<g id="node8" class="node"><title>IRF9</title>
<a xlink:href="IRF9.svg" xlink:title="Z&#45;value: 0.428||remove34">
<polygon fill="#ffbaba" stroke="#ffbaba" stroke-width="2" points="211.975,-204.245 181.975,-204.245 169.975,-192.245 169.975,-180.245 181.975,-168.245 211.975,-168.245 223.975,-180.245 223.975,-192.245 211.975,-204.245"/>
<path fill="#ffbaba" stroke="#ffbaba" stroke-width="2" d="M181.975,-204.245C175.975,-204.245 169.975,-198.245 169.975,-192.245"/>
<path fill="#ffbaba" stroke="#ffbaba" stroke-width="2" d="M169.975,-180.245C169.975,-174.245 175.975,-168.245 181.975,-168.245"/>
<path fill="#ffbaba" stroke="#ffbaba" stroke-width="2" d="M211.975,-168.245C217.975,-168.245 223.975,-174.245 223.975,-180.245"/>
<path fill="#ffbaba" stroke="#ffbaba" stroke-width="2" d="M223.975,-192.245C223.975,-198.245 217.975,-204.245 211.975,-204.245"/>
<polyline fill="none" stroke="white" stroke-width="2" points="211.975,-204.245 181.975,-204.245 "/>
<path fill="none" stroke="white" stroke-width="2" d="M181.975,-204.245C175.975,-204.245 169.975,-198.245 169.975,-192.245"/>
<polyline fill="none" stroke="white" stroke-width="2" points="169.975,-192.245 169.975,-180.245 "/>
<path fill="none" stroke="white" stroke-width="2" d="M169.975,-180.245C169.975,-174.245 175.975,-168.245 181.975,-168.245"/>
<polyline fill="none" stroke="white" stroke-width="2" points="181.975,-168.245 211.975,-168.245 "/>
<path fill="none" stroke="white" stroke-width="2" d="M211.975,-168.245C217.975,-168.245 223.975,-174.245 223.975,-180.245"/>
<polyline fill="none" stroke="white" stroke-width="2" points="223.975,-180.245 223.975,-192.245 "/>
<path fill="none" stroke="white" stroke-width="2" d="M223.975,-192.245C223.975,-198.245 217.975,-204.245 211.975,-204.245"/>
<text text-anchor="middle" x="196.975" y="-183.745" font-family="Helvetica,sans-Serif" font-size="10.00">IRF9</text>
</a>
</g>
<!-- ESRRA_ESR2&#45;&gt;IRF9 -->
<g id="edge8" class="edge"><title>ESRRA_ESR2&#45;&gt;IRF9</title>
<a xlink:title="IRF9: 1.129||remove33root">
<path fill="none" stroke="#485aff" stroke-width="3" d="M292.573,-296.571C273.016,-274.001 239.552,-235.381 217.854,-210.341"/>
<polygon fill="#485aff" stroke="#485aff" points="219.962,-208.497 212.607,-204.285 215.73,-212.165 219.962,-208.497"/>
</a>
</g>
<!-- EBF3 -->
<g id="node10" class="node"><title>EBF3</title>
<a xlink:href="EBF3.svg" xlink:title="Z&#45;value: 0.693||remove28">
<polygon fill="#b0b8ff" stroke="#b0b8ff" stroke-width="2" points="68.9829,-296.14 38.9829,-296.14 26.9829,-284.14 26.9829,-272.14 38.9829,-260.14 68.9829,-260.14 80.9829,-272.14 80.9829,-284.14 68.9829,-296.14"/>
<path fill="#b0b8ff" stroke="#b0b8ff" stroke-width="2" d="M38.9829,-296.14C32.9829,-296.14 26.9829,-290.14 26.9829,-284.14"/>
<path fill="#b0b8ff" stroke="#b0b8ff" stroke-width="2" d="M26.9829,-272.14C26.9829,-266.14 32.9829,-260.14 38.9829,-260.14"/>
<path fill="#b0b8ff" stroke="#b0b8ff" stroke-width="2" d="M68.9829,-260.14C74.9829,-260.14 80.9829,-266.14 80.9829,-272.14"/>
<path fill="#b0b8ff" stroke="#b0b8ff" stroke-width="2" d="M80.9829,-284.14C80.9829,-290.14 74.9829,-296.14 68.9829,-296.14"/>
<polyline fill="none" stroke="white" stroke-width="2" points="68.9829,-296.14 38.9829,-296.14 "/>
<path fill="none" stroke="white" stroke-width="2" d="M38.9829,-296.14C32.9829,-296.14 26.9829,-290.14 26.9829,-284.14"/>
<polyline fill="none" stroke="white" stroke-width="2" points="26.9829,-284.14 26.9829,-272.14 "/>
<path fill="none" stroke="white" stroke-width="2" d="M26.9829,-272.14C26.9829,-266.14 32.9829,-260.14 38.9829,-260.14"/>
<polyline fill="none" stroke="white" stroke-width="2" points="38.9829,-260.14 68.9829,-260.14 "/>
<path fill="none" stroke="white" stroke-width="2" d="M68.9829,-260.14C74.9829,-260.14 80.9829,-266.14 80.9829,-272.14"/>
<polyline fill="none" stroke="white" stroke-width="2" points="80.9829,-272.14 80.9829,-284.14 "/>
<path fill="none" stroke="white" stroke-width="2" d="M80.9829,-284.14C80.9829,-290.14 74.9829,-296.14 68.9829,-296.14"/>
<text text-anchor="middle" x="53.9829" y="-275.64" font-family="Helvetica,sans-Serif" font-size="10.00">EBF3</text>
</a>
</g>
<!-- ESRRA_ESR2&#45;&gt;EBF3 -->
<g id="edge10" class="edge"><title>ESRRA_ESR2&#45;&gt;EBF3</title>
<a xlink:title="EBF3: 0.122||remove26root">
<path fill="none" stroke="#eabdff" stroke-width="3" d="M266.861,-308.747C217.47,-301.646 135.778,-289.9 89.2671,-283.213"/>
<polygon fill="#eabdff" stroke="#eabdff" points="89.6014,-280.432 81.2844,-282.065 88.8044,-285.975 89.6014,-280.432"/>
</a>
</g>
<!-- PLAGL1 -->
<g id="node12" class="node"><title>PLAGL1</title>
<a xlink:href="PLAGL1.svg" xlink:title="Z&#45;value: 1.203||remove32">
<polygon fill="#9ba5ff" stroke="#9ba5ff" stroke-width="2" points="42,-204.245 12,-204.245 0,-192.245 0,-180.245 12,-168.245 42,-168.245 54,-180.245 54,-192.245 42,-204.245"/>
<path fill="#9ba5ff" stroke="#9ba5ff" stroke-width="2" d="M12,-204.245C6,-204.245 0,-198.245 0,-192.245"/>
<path fill="#9ba5ff" stroke="#9ba5ff" stroke-width="2" d="M0,-180.245C0,-174.245 6,-168.245 12,-168.245"/>
<path fill="#9ba5ff" stroke="#9ba5ff" stroke-width="2" d="M42,-168.245C48,-168.245 54,-174.245 54,-180.245"/>
<path fill="#9ba5ff" stroke="#9ba5ff" stroke-width="2" d="M54,-192.245C54,-198.245 48,-204.245 42,-204.245"/>
<polyline fill="none" stroke="white" stroke-width="2" points="42,-204.245 12,-204.245 "/>
<path fill="none" stroke="white" stroke-width="2" d="M12,-204.245C6,-204.245 0,-198.245 0,-192.245"/>
<polyline fill="none" stroke="white" stroke-width="2" points="0,-192.245 0,-180.245 "/>
<path fill="none" stroke="white" stroke-width="2" d="M0,-180.245C0,-174.245 6,-168.245 12,-168.245"/>
<polyline fill="none" stroke="white" stroke-width="2" points="12,-168.245 42,-168.245 "/>
<path fill="none" stroke="white" stroke-width="2" d="M42,-168.245C48,-168.245 54,-174.245 54,-180.245"/>
<polyline fill="none" stroke="white" stroke-width="2" points="54,-180.245 54,-192.245 "/>
<path fill="none" stroke="white" stroke-width="2" d="M54,-192.245C54,-198.245 48,-204.245 42,-204.245"/>
<text text-anchor="middle" x="27" y="-183.745" font-family="Helvetica,sans-Serif" font-size="10.00">PLAGL1</text>
</a>
</g>
<!-- ESRRA_ESR2&#45;&gt;PLAGL1 -->
<g id="edge12" class="edge"><title>ESRRA_ESR2&#45;&gt;PLAGL1</title>
<a xlink:title="PLAGL1: 0.182||ESRRA: 0.170||remove32">
<path fill="none" stroke="#e7b6ff" stroke-width="3" d="M260.791,-294.113C204.424,-268.371 111.359,-225.87 61.1937,-202.96"/>
<path fill="none" stroke="#e8b8ff" stroke-width="3" d="M261.621,-292.293C205.254,-266.551 112.19,-224.05 62.0245,-201.14"/>
<polygon fill="#e8b8ff" stroke="#e8b8ff" points="260.14,-295.794 268.58,-296.571 262.466,-290.7 260.14,-295.794"/>
<polygon fill="#e7b6ff" stroke="#e7b6ff" points="62.6736,-199.458 54.2333,-198.682 60.3472,-204.552 62.6736,-199.458"/>
</a>
</g>
<!-- MXI1_MYC_MYCN -->
<g id="node14" class="node"><title>MXI1_MYC_MYCN</title>
<a xlink:href="MXI1_MYC_MYCN.svg" xlink:title="Z&#45;value: 1.090||remove24">
<polygon fill="#a0a9ff" stroke="#a0a9ff" stroke-width="2" points="93.2329,-112.349 14.7329,-112.349 2.73289,-100.349 2.73289,-88.3494 14.7329,-76.3494 93.2329,-76.3494 105.233,-88.3494 105.233,-100.349 93.2329,-112.349"/>
<path fill="#a0a9ff" stroke="#a0a9ff" stroke-width="2" d="M14.7329,-112.349C8.73289,-112.349 2.73289,-106.349 2.73289,-100.349"/>
<path fill="#a0a9ff" stroke="#a0a9ff" stroke-width="2" d="M2.73289,-88.3494C2.73289,-82.3494 8.73289,-76.3494 14.7329,-76.3494"/>
<path fill="#a0a9ff" stroke="#a0a9ff" stroke-width="2" d="M93.2329,-76.3494C99.2329,-76.3494 105.233,-82.3494 105.233,-88.3494"/>
<path fill="#a0a9ff" stroke="#a0a9ff" stroke-width="2" d="M105.233,-100.349C105.233,-106.349 99.2329,-112.349 93.2329,-112.349"/>
<polyline fill="none" stroke="white" stroke-width="2" points="93.2329,-112.349 14.7329,-112.349 "/>
<path fill="none" stroke="white" stroke-width="2" d="M14.7329,-112.349C8.73289,-112.349 2.73289,-106.349 2.73289,-100.349"/>
<polyline fill="none" stroke="white" stroke-width="2" points="2.73289,-100.349 2.73289,-88.3494 "/>
<path fill="none" stroke="white" stroke-width="2" d="M2.73289,-88.3494C2.73289,-82.3494 8.73289,-76.3494 14.7329,-76.3494"/>
<polyline fill="none" stroke="white" stroke-width="2" points="14.7329,-76.3494 93.2329,-76.3494 "/>
<path fill="none" stroke="white" stroke-width="2" d="M93.2329,-76.3494C99.2329,-76.3494 105.233,-82.3494 105.233,-88.3494"/>
<polyline fill="none" stroke="white" stroke-width="2" points="105.233,-88.3494 105.233,-100.349 "/>
<path fill="none" stroke="white" stroke-width="2" d="M105.233,-100.349C105.233,-106.349 99.2329,-112.349 93.2329,-112.349"/>
<text text-anchor="middle" x="53.9829" y="-91.8494" font-family="Helvetica,sans-Serif" font-size="10.00">MXI1_MYC_MYCN</text>
</a>
</g>
<!-- ESRRA_ESR2&#45;&gt;MXI1_MYC_MYCN -->
<g id="edge14" class="edge"><title>ESRRA_ESR2&#45;&gt;MXI1_MYC_MYCN</title>
<a xlink:title="MYCN: 0.141||ESRRA: 0.216||remove24">
<path fill="none" stroke="#e9bbff" stroke-width="3" d="M274.497,-292.543C244.886,-271.578 200.844,-239.203 164.997,-207.878 132.177,-179.188 97.3473,-142.975 75.4502,-119.411"/>
<path fill="none" stroke="#e6b2ff" stroke-width="3" d="M275.653,-290.911C246.07,-269.966 202.028,-237.592 166.313,-206.372 133.619,-177.802 98.7887,-141.588 76.9153,-118.049"/>
<polygon fill="#e6b2ff" stroke="#e6b2ff" points="273.751,-294.22 281.903,-296.54 276.978,-289.642 273.751,-294.22"/>
<polygon fill="#e9bbff" stroke="#e9bbff" points="78.1243,-116.705 70.6365,-112.734 74.0133,-120.508 78.1243,-116.705"/>
</a>
</g>
<!-- MEIS2&#45;&gt;IRF9 -->
<g id="edge32" class="edge"><title>MEIS2&#45;&gt;IRF9</title>
<a xlink:title="IRF9: 0.168||remove30root">
<path fill="none" stroke="#b8bfff" stroke-width="3" d="M218.576,-336.484C214.295,-306.71 205.722,-247.083 200.76,-212.574"/>
<polygon fill="#b8bfff" stroke="#b8bfff" points="203.492,-211.895 199.581,-204.375 197.949,-212.692 203.492,-211.895"/>
</a>
</g>
<!-- MEIS2&#45;&gt;EBF3 -->
<g id="edge34" class="edge"><title>MEIS2&#45;&gt;EBF3</title>
<a xlink:title="EBF3: 0.098||remove21root">
<path fill="none" stroke="#ebc0ff" stroke-width="3" d="M194.135,-336.784C184.809,-331.047 174.165,-324.901 164.065,-319.979 139.675,-308.094 110.991,-297.288 89.0187,-289.636"/>
<polygon fill="#ebc0ff" stroke="#ebc0ff" points="89.7235,-286.918 81.2477,-286.964 87.9022,-292.214 89.7235,-286.918"/>
</a>
</g>
<!-- MEIS2&#45;&gt;MXI1_MYC_MYCN -->
<g id="edge36" class="edge"><title>MEIS2&#45;&gt;MXI1_MYC_MYCN</title>
<a xlink:title="MYCN: 0.122||remove24">
<path fill="none" stroke="#eabdff" stroke-width="3" d="M209.409,-336.197C180.092,-290.579 103.698,-171.707 70.1638,-119.527"/>
<polygon fill="#eabdff" stroke="#eabdff" points="72.4065,-117.838 65.7258,-112.622 67.6955,-120.866 72.4065,-117.838"/>
</a>
</g>
<!-- GATA6&#45;&gt;GATA6 -->
<g id="edge50" class="edge"><title>GATA6&#45;&gt;GATA6</title>
<a xlink:title="GATA6: 0.011||remove4root">
<path fill="none" stroke="#eecaff" stroke-width="3" d="M387.305,-240.876C397.088,-241.021 405.064,-238.773 405.064,-234.132 405.064,-230.869 401.121,-228.789 395.379,-227.892"/>
<polygon fill="#eecaff" stroke="#eecaff" points="395.464,-225.092 387.305,-227.389 395.115,-230.681 395.464,-225.092"/>
</a>
</g>
<!-- ZIC3_ZIC4&#45;&gt;IRF9 -->
<g id="edge16" class="edge"><title>ZIC3_ZIC4&#45;&gt;IRF9</title>
<a xlink:title="IRF9: 0.170||remove31root">
<path fill="none" stroke="#b8bfff" stroke-width="3" d="M134.603,-322.82C147.079,-295.502 170.824,-243.507 185.145,-212.148"/>
<polygon fill="#b8bfff" stroke="#b8bfff" points="187.794,-213.088 188.57,-204.648 182.7,-210.762 187.794,-213.088"/>
</a>
</g>
<!-- ZIC3_ZIC4&#45;&gt;EBF3 -->
<g id="edge18" class="edge"><title>ZIC3_ZIC4&#45;&gt;EBF3</title>
<a xlink:title="EBF3: 0.155||ZIC4: 0.061||remove28">
<path fill="none" stroke="#e8b9ff" stroke-width="3" d="M98.257,-317.827C92.4037,-312.755 86.226,-307.402 80.3876,-302.343"/>
<path fill="none" stroke="#ecc4ff" stroke-width="3" d="M99.5668,-316.315C93.7134,-311.243 87.5358,-305.891 81.6973,-300.831"/>
<polygon fill="#ecc4ff" stroke="#ecc4ff" points="97.5492,-319.595 105.429,-322.718 101.216,-315.363 97.5492,-319.595"/>
<polygon fill="#e8b9ff" stroke="#e8b9ff" points="82.7513,-299.363 74.8717,-296.24 79.0841,-303.595 82.7513,-299.363"/>
</a>
</g>
<!-- IRF9&#45;&gt;GATA6 -->
<g id="edge46" class="edge"><title>IRF9&#45;&gt;GATA6</title>
<a xlink:title="GATA6: 0.167||remove29root">
<path fill="none" stroke="#ffb8b8" stroke-width="3" d="M224.272,-194.26C251.991,-202.399 295.015,-215.032 325.189,-223.892"/>
<polygon fill="#ffb8b8" stroke="#ffb8b8" points="324.485,-226.603 332.95,-226.17 326.063,-221.23 324.485,-226.603"/>
</a>
</g>
<!-- IRF9&#45;&gt;IRF9 -->
<g id="edge48" class="edge"><title>IRF9&#45;&gt;IRF9</title>
<a xlink:title="IRF9: 0.092||remove19root">
<path fill="none" stroke="#ffc1c1" stroke-width="3" d="M224.216,-192.988C233.999,-193.133 241.975,-190.885 241.975,-186.245 241.975,-182.982 238.032,-180.902 232.289,-180.005"/>
<polygon fill="#ffc1c1" stroke="#ffc1c1" points="232.374,-177.205 224.216,-179.501 232.026,-182.794 232.374,-177.205"/>
</a>
</g>
<!-- EBF3&#45;&gt;IRF9 -->
<g id="edge44" class="edge"><title>EBF3&#45;&gt;IRF9</title>
<a xlink:title="IRF9: 0.155||remove28root">
<path fill="none" stroke="#b9c0ff" stroke-width="3" d="M81.2151,-260.639C104.472,-245.692 138.032,-224.125 163.034,-208.057"/>
<polygon fill="#b9c0ff" stroke="#b9c0ff" points="164.628,-210.361 169.844,-203.681 161.6,-205.65 164.628,-210.361"/>
</a>
</g>
<!-- PLAGL1&#45;&gt;GATA6 -->
<g id="edge20" class="edge"><title>PLAGL1&#45;&gt;GATA6</title>
<a xlink:title="GATA6: 0.025||remove10root">
<path fill="none" stroke="#edc9ff" stroke-width="3" d="M54.0864,-190.417C82.0252,-194.699 126.866,-201.51 165.655,-207.125 221.15,-215.158 285.628,-224.022 324.611,-229.331"/>
<polygon fill="#edc9ff" stroke="#edc9ff" points="324.699,-232.168 333.003,-230.472 325.454,-226.619 324.699,-232.168"/>
</a>
</g>
<!-- PLAGL1&#45;&gt;ZIC3_ZIC4 -->
<g id="edge22" class="edge"><title>PLAGL1&#45;&gt;ZIC3_ZIC4</title>
<a xlink:title="ZIC3: 0.078||ZIC4: 0.045||remove17root">
<path fill="none" stroke="#ebc2ff" stroke-width="3" d="M43.8332,-204.328C56.2101,-218.169 72.9552,-238.08 85.3029,-257.26 97.2198,-275.771 108.075,-298.238 115.628,-315.217"/>
<polygon fill="#ebc2ff" stroke="#ebc2ff" points="113.085,-316.392 118.857,-322.599 118.216,-314.147 113.085,-316.392"/>
</a>
</g>
<!-- PLAGL1&#45;&gt;IRF9 -->
<g id="edge24" class="edge"><title>PLAGL1&#45;&gt;IRF9</title>
<a xlink:title="IRF9: 0.175||remove32root">
<path fill="none" stroke="#b7beff" stroke-width="3" d="M54.3094,-186.245C83.4266,-186.245 129.646,-186.245 161.547,-186.245"/>
<polygon fill="#b7beff" stroke="#b7beff" points="161.733,-189.045 169.733,-186.245 161.733,-183.445 161.733,-189.045"/>
</a>
</g>
<!-- PLAGL1&#45;&gt;PLAGL1 -->
<g id="edge26" class="edge"><title>PLAGL1&#45;&gt;PLAGL1</title>
<a xlink:title="PLAGL1: 0.151||remove27root">
<path fill="none" stroke="#e9baff" stroke-width="3" d="M54.2408,-192.988C64.0239,-193.133 72,-190.885 72,-186.245 72,-182.982 68.0568,-180.902 62.3147,-180.005"/>
<polygon fill="#e9baff" stroke="#e9baff" points="62.3996,-177.205 54.2408,-179.501 62.051,-182.794 62.3996,-177.205"/>
</a>
</g>
<!-- PLAGL1&#45;&gt;MXI1_MYC_MYCN -->
<g id="edge28" class="edge"><title>PLAGL1&#45;&gt;MXI1_MYC_MYCN</title>
<a xlink:title="MXI1: 0.057||PLAGL1: 0.022||remove16root">
<path fill="none" stroke="#ecc5ff" stroke-width="3" d="M33.7295,-159.777C37.3949,-147.293 41.7661,-132.406 45.4203,-119.961"/>
<path fill="none" stroke="#edc9ff" stroke-width="3" d="M35.6485,-160.34C39.3139,-147.857 43.6851,-132.97 47.3393,-120.525"/>
<polygon fill="#edc9ff" stroke="#edc9ff" points="31.8983,-159.624 32.331,-168.089 37.2715,-161.202 31.8983,-159.624"/>
<polygon fill="#ecc5ff" stroke="#ecc5ff" points="49.0957,-120.932 48.663,-112.467 43.7225,-119.354 49.0957,-120.932"/>
</a>
</g>
<!-- RAD21_SMC3 -->
<g id="node23" class="node"><title>RAD21_SMC3</title>
<a xlink:href="RAD21_SMC3.svg" xlink:title="Z&#45;value: 0.383||remove20">
<polygon fill="#bcc3ff" stroke="#bcc3ff" stroke-width="2" points="155.365,-49.6302 97.3647,-49.6302 85.3647,-37.6302 85.3647,-25.6302 97.3647,-13.6302 155.365,-13.6302 167.365,-25.6302 167.365,-37.6302 155.365,-49.6302"/>
<path fill="#bcc3ff" stroke="#bcc3ff" stroke-width="2" d="M97.3647,-49.6302C91.3647,-49.6302 85.3647,-43.6302 85.3647,-37.6302"/>
<path fill="#bcc3ff" stroke="#bcc3ff" stroke-width="2" d="M85.3647,-25.6302C85.3647,-19.6302 91.3647,-13.6302 97.3647,-13.6302"/>
<path fill="#bcc3ff" stroke="#bcc3ff" stroke-width="2" d="M155.365,-13.6302C161.365,-13.6302 167.365,-19.6302 167.365,-25.6302"/>
<path fill="#bcc3ff" stroke="#bcc3ff" stroke-width="2" d="M167.365,-37.6302C167.365,-43.6302 161.365,-49.6302 155.365,-49.6302"/>
<polyline fill="none" stroke="white" stroke-width="2" points="155.365,-49.6302 97.3647,-49.6302 "/>
<path fill="none" stroke="white" stroke-width="2" d="M97.3647,-49.6302C91.3647,-49.6302 85.3647,-43.6302 85.3647,-37.6302"/>
<polyline fill="none" stroke="white" stroke-width="2" points="85.3647,-37.6302 85.3647,-25.6302 "/>
<path fill="none" stroke="white" stroke-width="2" d="M85.3647,-25.6302C85.3647,-19.6302 91.3647,-13.6302 97.3647,-13.6302"/>
<polyline fill="none" stroke="white" stroke-width="2" points="97.3647,-13.6302 155.365,-13.6302 "/>
<path fill="none" stroke="white" stroke-width="2" d="M155.365,-13.6302C161.365,-13.6302 167.365,-19.6302 167.365,-25.6302"/>
<polyline fill="none" stroke="white" stroke-width="2" points="167.365,-25.6302 167.365,-37.6302 "/>
<path fill="none" stroke="white" stroke-width="2" d="M167.365,-37.6302C167.365,-43.6302 161.365,-49.6302 155.365,-49.6302"/>
<text text-anchor="middle" x="126.365" y="-29.1302" font-family="Helvetica,sans-Serif" font-size="10.00">RAD21_SMC3</text>
</a>
</g>
<!-- PLAGL1&#45;&gt;RAD21_SMC3 -->
<g id="edge30" class="edge"><title>PLAGL1&#45;&gt;RAD21_SMC3</title>
<a xlink:title="SMC3: 0.026||RAD21: 0.013||remove11root">
<path fill="none" stroke="#edc9ff" stroke-width="3" d="M54.315,-171.345C74.156,-159.01 99.8632,-139.584 113.723,-115.229 123.643,-97.7972 126.575,-75.1573 127.152,-57.8351"/>
<polygon fill="#edc9ff" stroke="#edc9ff" points="129.952,-57.844 127.267,-49.8048 124.353,-57.764 129.952,-57.844"/>
</a>
</g>
<!-- MXI1_MYC_MYCN&#45;&gt;IRF9 -->
<g id="edge40" class="edge"><title>MXI1_MYC_MYCN&#45;&gt;IRF9</title>
<a xlink:title="IRF9: 0.108||remove24root">
<path fill="none" stroke="#bfc5ff" stroke-width="3" d="M82.2335,-112.505C105.346,-127.358 138.117,-148.419 162.722,-164.232"/>
<polygon fill="#bfc5ff" stroke="#bfc5ff" points="161.509,-166.781 169.753,-168.75 164.537,-162.07 161.509,-166.781"/>
</a>
</g>
<!-- MXI1_MYC_MYCN&#45;&gt;EBF3 -->
<g id="edge42" class="edge"><title>MXI1_MYC_MYCN&#45;&gt;EBF3</title>
<a xlink:title="EBF3: 0.007||remove1root">
<path fill="none" stroke="#eecbff" stroke-width="3" d="M55.3924,-112.432C56.4367,-126.776 57.7701,-147.339 58.32,-165.365 58.886,-183.916 58.886,-188.573 58.32,-207.125 57.8689,-221.911 56.8906,-238.406 55.9772,-251.773"/>
<polygon fill="#eecbff" stroke="#eecbff" points="53.1628,-251.88 55.3924,-260.057 58.7489,-252.274 53.1628,-251.88"/>
</a>
</g>
<!-- PATZ1_KLF4 -->
<g id="node28" class="node"><title>PATZ1_KLF4</title>
<a xlink:href="PATZ1_KLF4.svg" xlink:title="Z&#45;value: 1.751||remove25">
<polygon fill="#8591ff" stroke="#8591ff" stroke-width="2" points="247.165,-36 195.165,-36 183.165,-24 183.165,-12 195.165,3.19744e-14 247.165,3.19744e-14 259.165,-12 259.165,-24 247.165,-36"/>
<path fill="#8591ff" stroke="#8591ff" stroke-width="2" d="M195.165,-36C189.165,-36 183.165,-30 183.165,-24"/>
<path fill="#8591ff" stroke="#8591ff" stroke-width="2" d="M183.165,-12C183.165,-6 189.165,3.19744e-14 195.165,3.19744e-14"/>
<path fill="#8591ff" stroke="#8591ff" stroke-width="2" d="M247.165,3.19744e-14C253.165,3.19744e-14 259.165,-6 259.165,-12"/>
<path fill="#8591ff" stroke="#8591ff" stroke-width="2" d="M259.165,-24C259.165,-30 253.165,-36 247.165,-36"/>
<polyline fill="none" stroke="white" stroke-width="2" points="247.165,-36 195.165,-36 "/>
<path fill="none" stroke="white" stroke-width="2" d="M195.165,-36C189.165,-36 183.165,-30 183.165,-24"/>
<polyline fill="none" stroke="white" stroke-width="2" points="183.165,-24 183.165,-12 "/>
<path fill="none" stroke="white" stroke-width="2" d="M183.165,-12C183.165,-6 189.165,3.19744e-14 195.165,3.19744e-14"/>
<polyline fill="none" stroke="white" stroke-width="2" points="195.165,3.19744e-14 247.165,3.19744e-14 "/>
<path fill="none" stroke="white" stroke-width="2" d="M247.165,3.19744e-14C253.165,3.19744e-14 259.165,-6 259.165,-12"/>
<polyline fill="none" stroke="white" stroke-width="2" points="259.165,-12 259.165,-24 "/>
<path fill="none" stroke="white" stroke-width="2" d="M259.165,-24C259.165,-30 253.165,-36 247.165,-36"/>
<text text-anchor="middle" x="221.165" y="-15.5" font-family="Helvetica,sans-Serif" font-size="10.00">PATZ1_KLF4</text>
</a>
</g>
<!-- MXI1_MYC_MYCN&#45;&gt;PATZ1_KLF4 -->
<g id="edge38" class="edge"><title>MXI1_MYC_MYCN&#45;&gt;PATZ1_KLF4</title>
<a xlink:title="PATZ1: 0.041||MYCN: 0.388||MXI1: 0.051||remove24">
<path fill="none" stroke="#edc7ff" stroke-width="3" d="M112.739,-76.6467C132.568,-70.0274 154.515,-61.574 173.46,-51.6247 179.593,-48.4102 185.885,-44.4021 191.73,-40.3083"/>
<path fill="none" stroke="#e09eff" stroke-width="3" d="M113.373,-78.5437C133.286,-71.8938 155.234,-63.4404 174.389,-53.3957 180.668,-50.097 186.96,-46.0889 192.877,-41.9467"/>
<polygon fill="#e09eff" stroke="#e09eff" points="111.999,-74.9947 105.264,-80.1405 113.738,-80.3179 111.999,-74.9947"/>
<polygon fill="#edc7ff" stroke="#edc7ff" points="194.155,-43.2436 198.989,-36.2813 190.869,-38.7094 194.155,-43.2436"/>
</a>
</g>
<!-- RAD21_SMC3&#45;&gt;IRF9 -->
<g id="edge68" class="edge"><title>RAD21_SMC3&#45;&gt;IRF9</title>
<a xlink:title="IRF9: 0.092||remove20root">
<path fill="none" stroke="#c1c7ff" stroke-width="3" d="M134.603,-49.669C147.079,-76.9872 170.824,-128.982 185.145,-160.341"/>
<polygon fill="#c1c7ff" stroke="#c1c7ff" points="182.7,-161.728 188.57,-167.841 187.794,-159.401 182.7,-161.728"/>
</a>
</g>
<!-- RAD21_SMC3&#45;&gt;MXI1_MYC_MYCN -->
<g id="edge70" class="edge"><title>RAD21_SMC3&#45;&gt;MXI1_MYC_MYCN</title>
<a xlink:title="MXI1: 0.007||remove2root">
<path fill="none" stroke="#eecbff" stroke-width="3" d="M105.429,-49.7712C97.9265,-56.272 89.3537,-63.7004 81.3857,-70.6047"/>
<polygon fill="#eecbff" stroke="#eecbff" points="79.0841,-68.8941 74.8717,-76.2492 82.7513,-73.1263 79.0841,-68.8941"/>
</a>
</g>
<!-- PATZ1_KLF4&#45;&gt;ESRRA_ESR2 -->
<g id="edge56" class="edge"><title>PATZ1_KLF4&#45;&gt;ESRRA_ESR2</title>
<a xlink:title="ESRRA: 1.315||ESR2: 0.103||remove25">
<path fill="none" stroke="#bd32ff" stroke-width="3" d="M226.483,-36.1135C241.338,-86.7032 283.311,-229.651 300.648,-288.694"/>
<polygon fill="#bd32ff" stroke="#bd32ff" points="297.984,-289.563 302.925,-296.45 303.358,-287.985 297.984,-289.563"/>
</a>
</g>
<!-- PATZ1_KLF4&#45;&gt;MEIS2 -->
<g id="edge54" class="edge"><title>PATZ1_KLF4&#45;&gt;MEIS2</title>
<a xlink:title="MEIS2: 0.043||remove15root">
<path fill="none" stroke="#edc6ff" stroke-width="3" d="M222.325,-36.1392C224.04,-63.9389 227.168,-118.761 228.295,-165.365 229.699,-223.448 225.762,-291.523 223.192,-328.075"/>
<polygon fill="#edc6ff" stroke="#edc6ff" points="220.386,-328.057 222.604,-336.237 225.972,-328.459 220.386,-328.057"/>
</a>
</g>
<!-- PATZ1_KLF4&#45;&gt;GATA6 -->
<g id="edge58" class="edge"><title>PATZ1_KLF4&#45;&gt;GATA6</title>
<a xlink:title="GATA6: 0.634||remove25">
<path fill="none" stroke="#d782ff" stroke-width="3" d="M229.463,-36.0588C242.426,-63.5829 268.963,-117.259 297.424,-159.237 309.468,-177.001 324.92,-195.513 337.464,-209.688"/>
<polygon fill="#d782ff" stroke="#d782ff" points="335.58,-211.781 343,-215.878 339.754,-208.048 335.58,-211.781"/>
</a>
</g>
<!-- PATZ1_KLF4&#45;&gt;ZIC3_ZIC4 -->
<g id="edge60" class="edge"><title>PATZ1_KLF4&#45;&gt;ZIC3_ZIC4</title>
<a xlink:title="ZIC3: 0.010||remove3root">
<path fill="none" stroke="#eecaff" stroke-width="3" d="M213.31,-36.3254C201.702,-63.9165 179.817,-117.951 165.655,-165.365 150.086,-217.489 137.51,-279.954 131.064,-314.539"/>
<polygon fill="#eecaff" stroke="#eecaff" points="128.255,-314.333 129.559,-322.708 133.762,-315.347 128.255,-314.333"/>
</a>
</g>
<!-- PATZ1_KLF4&#45;&gt;IRF9 -->
<g id="edge62" class="edge"><title>PATZ1_KLF4&#45;&gt;IRF9</title>
<a xlink:title="IRF9: 0.114||remove25root">
<path fill="none" stroke="#bec5ff" stroke-width="3" d="M218.576,-36.0051C214.295,-65.7795 205.722,-125.406 200.76,-159.916"/>
<polygon fill="#bec5ff" stroke="#bec5ff" points="197.949,-159.798 199.581,-168.115 203.492,-160.595 197.949,-159.798"/>
</a>
</g>
<!-- PATZ1_KLF4&#45;&gt;EBF3 -->
<g id="edge64" class="edge"><title>PATZ1_KLF4&#45;&gt;EBF3</title>
<a xlink:title="EBF3: 0.103||remove23root">
<path fill="none" stroke="#eac0ff" stroke-width="3" d="M209.409,-36.2925C180.092,-81.9108 103.698,-200.782 70.1638,-252.962"/>
<polygon fill="#eac0ff" stroke="#eac0ff" points="67.6955,-251.624 65.7258,-259.868 72.4065,-254.651 67.6955,-251.624"/>
</a>
</g>
<!-- PATZ1_KLF4&#45;&gt;RAD21_SMC3 -->
<g id="edge66" class="edge"><title>PATZ1_KLF4&#45;&gt;RAD21_SMC3</title>
<a xlink:title="SMC3: 0.154||RAD21: 0.039||remove20">
<path fill="none" stroke="#e8baff" stroke-width="3" d="M183.152,-23.4654C180.738,-23.8126 178.289,-24.1646 175.833,-24.5177"/>
<polygon fill="#e8baff" stroke="#e8baff" points="175.013,-21.8067 167.493,-25.7168 175.81,-27.3497 175.013,-21.8067"/>
</a>
</g>
<!-- PATZ1_KLF4&#45;&gt;PATZ1_KLF4 -->
<g id="edge52" class="edge"><title>PATZ1_KLF4&#45;&gt;PATZ1_KLF4</title>
<a xlink:title="PATZ1: 0.441||KLF4: 0.051||remove25">
<path fill="none" stroke="#de98ff" stroke-width="3" d="M259.379,-24.6907C269.499,-24.3083 277.165,-22.0781 277.165,-18 277.165,-15.1326 273.375,-13.1787 267.607,-12.1384"/>
<polygon fill="#de98ff" stroke="#de98ff" points="267.619,-9.32556 259.379,-11.3093 267.058,-14.8973 267.619,-9.32556"/>
</a>
</g>
<!-- ZNF384 -->
<g id="node46" class="node"><title>ZNF384</title>
<a xlink:href="ZNF384.svg" xlink:title="Z&#45;value: 1.127||remove18">
<polygon fill="#9ea8ff" stroke="#9ea8ff" stroke-width="2" points="323.285,-75.7863 293.285,-75.7863 281.285,-63.7863 281.285,-51.7863 293.285,-39.7863 323.285,-39.7863 335.285,-51.7863 335.285,-63.7863 323.285,-75.7863"/>
<path fill="#9ea8ff" stroke="#9ea8ff" stroke-width="2" d="M293.285,-75.7863C287.285,-75.7863 281.285,-69.7863 281.285,-63.7863"/>
<path fill="#9ea8ff" stroke="#9ea8ff" stroke-width="2" d="M281.285,-51.7863C281.285,-45.7863 287.285,-39.7863 293.285,-39.7863"/>
<path fill="#9ea8ff" stroke="#9ea8ff" stroke-width="2" d="M323.285,-39.7863C329.285,-39.7863 335.285,-45.7863 335.285,-51.7863"/>
<path fill="#9ea8ff" stroke="#9ea8ff" stroke-width="2" d="M335.285,-63.7863C335.285,-69.7863 329.285,-75.7863 323.285,-75.7863"/>
<polyline fill="none" stroke="white" stroke-width="2" points="323.285,-75.7863 293.285,-75.7863 "/>
<path fill="none" stroke="white" stroke-width="2" d="M293.285,-75.7863C287.285,-75.7863 281.285,-69.7863 281.285,-63.7863"/>
<polyline fill="none" stroke="white" stroke-width="2" points="281.285,-63.7863 281.285,-51.7863 "/>
<path fill="none" stroke="white" stroke-width="2" d="M281.285,-51.7863C281.285,-45.7863 287.285,-39.7863 293.285,-39.7863"/>
<polyline fill="none" stroke="white" stroke-width="2" points="293.285,-39.7863 323.285,-39.7863 "/>
<path fill="none" stroke="white" stroke-width="2" d="M323.285,-39.7863C329.285,-39.7863 335.285,-45.7863 335.285,-51.7863"/>
<polyline fill="none" stroke="white" stroke-width="2" points="335.285,-51.7863 335.285,-63.7863 "/>
<path fill="none" stroke="white" stroke-width="2" d="M335.285,-63.7863C335.285,-69.7863 329.285,-75.7863 323.285,-75.7863"/>
<text text-anchor="middle" x="308.285" y="-55.2863" font-family="Helvetica,sans-Serif" font-size="10.00">ZNF384</text>
</a>
</g>
<!-- ZNF384&#45;&gt;IRF9 -->
<g id="edge72" class="edge"><title>ZNF384&#45;&gt;IRF9</title>
<a xlink:title="IRF9: 0.086||remove18root">
<path fill="none" stroke="#c2c8ff" stroke-width="3" d="M292.573,-75.9188C273.016,-98.4886 239.552,-137.109 217.854,-162.149"/>
<polygon fill="#c2c8ff" stroke="#c2c8ff" points="215.73,-160.325 212.607,-168.204 219.962,-163.992 215.73,-160.325"/>
</a>
</g>
<!-- ZNF384&#45;&gt;PLAGL1 -->
<g id="edge74" class="edge"><title>ZNF384&#45;&gt;PLAGL1</title>
<a xlink:title="PLAGL1: 0.034||remove13root">
<path fill="none" stroke="#edc8ff" stroke-width="3" d="M281.058,-70.2202C229.598,-93.7214 118.153,-144.617 61.5266,-170.477"/>
<polygon fill="#edc8ff" stroke="#edc8ff" points="60.3552,-167.934 54.2413,-173.804 62.6816,-173.028 60.3552,-167.934"/>
</a>
</g>
<!-- ZNF384&#45;&gt;RAD21_SMC3 -->
<g id="edge76" class="edge"><title>ZNF384&#45;&gt;RAD21_SMC3</title>
<a xlink:title="RAD21: 0.014||remove7root">
<path fill="none" stroke="#eecaff" stroke-width="3" d="M281.049,-53.8705C253.245,-49.8728 209.476,-43.5798 175.582,-38.7065"/>
<polygon fill="#eecaff" stroke="#eecaff" points="175.951,-35.9309 167.634,-37.5638 175.154,-41.4739 175.951,-35.9309"/>
</a>
</g>
<!-- ELF2_GABPA_ELF5 -->
<g id="node50" class="node"><title>ELF2_GABPA_ELF5</title>
<a xlink:href="ELF2_GABPA_ELF5.svg" xlink:title="Z&#45;value: 1.088||remove22">
<polygon fill="#a0a9ff" stroke="#a0a9ff" stroke-width="2" points="402.064,-156.357 318.064,-156.357 306.064,-144.357 306.064,-132.357 318.064,-120.357 402.064,-120.357 414.064,-132.357 414.064,-144.357 402.064,-156.357"/>
<path fill="#a0a9ff" stroke="#a0a9ff" stroke-width="2" d="M318.064,-156.357C312.064,-156.357 306.064,-150.357 306.064,-144.357"/>
<path fill="#a0a9ff" stroke="#a0a9ff" stroke-width="2" d="M306.064,-132.357C306.064,-126.357 312.064,-120.357 318.064,-120.357"/>
<path fill="#a0a9ff" stroke="#a0a9ff" stroke-width="2" d="M402.064,-120.357C408.064,-120.357 414.064,-126.357 414.064,-132.357"/>
<path fill="#a0a9ff" stroke="#a0a9ff" stroke-width="2" d="M414.064,-144.357C414.064,-150.357 408.064,-156.357 402.064,-156.357"/>
<polyline fill="none" stroke="white" stroke-width="2" points="402.064,-156.357 318.064,-156.357 "/>
<path fill="none" stroke="white" stroke-width="2" d="M318.064,-156.357C312.064,-156.357 306.064,-150.357 306.064,-144.357"/>
<polyline fill="none" stroke="white" stroke-width="2" points="306.064,-144.357 306.064,-132.357 "/>
<path fill="none" stroke="white" stroke-width="2" d="M306.064,-132.357C306.064,-126.357 312.064,-120.357 318.064,-120.357"/>
<polyline fill="none" stroke="white" stroke-width="2" points="318.064,-120.357 402.064,-120.357 "/>
<path fill="none" stroke="white" stroke-width="2" d="M402.064,-120.357C408.064,-120.357 414.064,-126.357 414.064,-132.357"/>
<polyline fill="none" stroke="white" stroke-width="2" points="414.064,-132.357 414.064,-144.357 "/>
<path fill="none" stroke="white" stroke-width="2" d="M414.064,-144.357C414.064,-150.357 408.064,-156.357 402.064,-156.357"/>
<text text-anchor="middle" x="360.064" y="-135.857" font-family="Helvetica,sans-Serif" font-size="10.00">ELF2_GABPA_ELF5</text>
</a>
</g>
<!-- ELF2_GABPA_ELF5&#45;&gt;MEIS2 -->
<g id="edge82" class="edge"><title>ELF2_GABPA_ELF5&#45;&gt;MEIS2</title>
<a xlink:title="MEIS2: 0.002||remove0root">
<path fill="none" stroke="#eecbff" stroke-width="3" d="M348.461,-156.413C323.694,-194.951 265.61,-285.331 237.277,-329.418"/>
<polygon fill="#eecbff" stroke="#eecbff" points="234.803,-328.089 232.833,-336.333 239.514,-331.117 234.803,-328.089"/>
</a>
</g>
<!-- ELF2_GABPA_ELF5&#45;&gt;GATA6 -->
<g id="edge84" class="edge"><title>ELF2_GABPA_ELF5&#45;&gt;GATA6</title>
<a xlink:title="GATA6: 0.029||remove12root">
<path fill="none" stroke="#edc8ff" stroke-width="3" d="M360.064,-156.372C360.064,-170.861 360.064,-191.425 360.064,-207.766"/>
<polygon fill="#edc8ff" stroke="#edc8ff" points="357.264,-207.873 360.064,-215.873 362.864,-207.873 357.264,-207.873"/>
</a>
</g>
<!-- ELF2_GABPA_ELF5&#45;&gt;ZIC3_ZIC4 -->
<g id="edge86" class="edge"><title>ELF2_GABPA_ELF5&#45;&gt;ZIC3_ZIC4</title>
<a xlink:title="ZIC4: 0.021||remove9root">
<path fill="none" stroke="#edc9ff" stroke-width="3" d="M338.913,-156.685C296.418,-193.507 200.724,-276.427 153.614,-317.247"/>
<polygon fill="#edc9ff" stroke="#edc9ff" points="151.512,-315.364 147.3,-322.719 155.18,-319.596 151.512,-315.364"/>
</a>
</g>
<!-- ELF2_GABPA_ELF5&#45;&gt;IRF9 -->
<g id="edge88" class="edge"><title>ELF2_GABPA_ELF5&#45;&gt;IRF9</title>
<a xlink:title="IRF9: 0.101||remove22root">
<path fill="none" stroke="#c0c6ff" stroke-width="3" d="M305.758,-154.303C281.437,-161.444 253.464,-169.658 231.975,-175.968"/>
<polygon fill="#c0c6ff" stroke="#c0c6ff" points="230.964,-173.346 224.077,-178.287 232.542,-178.719 230.964,-173.346"/>
</a>
</g>
<!-- ELF2_GABPA_ELF5&#45;&gt;RAD21_SMC3 -->
<g id="edge90" class="edge"><title>ELF2_GABPA_ELF5&#45;&gt;RAD21_SMC3</title>
<a xlink:title="RAD21: 0.013||remove6root">
<path fill="none" stroke="#eecaff" stroke-width="3" d="M320.42,-120.252C279.673,-101.644 216.254,-72.6811 173.092,-52.9697"/>
<polygon fill="#eecaff" stroke="#eecaff" points="174.253,-50.4218 165.812,-49.6454 171.926,-55.5157 174.253,-50.4218"/>
</a>
</g>
<!-- ELF2_GABPA_ELF5&#45;&gt;PATZ1_KLF4 -->
<g id="edge80" class="edge"><title>ELF2_GABPA_ELF5&#45;&gt;PATZ1_KLF4</title>
<a xlink:title="PATZ1: 0.012||remove5root">
<path fill="none" stroke="#eecaff" stroke-width="3" d="M332.049,-120.34C315.408,-109.134 294.249,-93.9801 276.965,-78.6663 264.403,-67.5365 251.639,-53.8717 241.496,-42.3305"/>
<polygon fill="#eecaff" stroke="#eecaff" points="243.506,-40.3744 236.148,-36.1668 239.276,-44.0444 243.506,-40.3744"/>
</a>
</g>
<!-- ELF2_GABPA_ELF5&#45;&gt;ZNF384 -->
<g id="edge78" class="edge"><title>ELF2_GABPA_ELF5&#45;&gt;ZNF384</title>
<a xlink:title="ZNF384: 0.372||remove18">
<path fill="none" stroke="#e0a0ff" stroke-width="3" d="M348.315,-120.074C341.231,-109.052 332.11,-94.8591 324.364,-82.806"/>
<polygon fill="#e0a0ff" stroke="#e0a0ff" points="326.668,-81.213 319.988,-75.9968 321.957,-84.2406 326.668,-81.213"/>
</a>
</g>
</g>
</svg>
