<?xml version="1.0" encoding="UTF-8" standalone="no"?>
<!DOCTYPE svg PUBLIC "-//W3C//DTD SVG 1.1//EN"
 "http://www.w3.org/Graphics/SVG/1.1/DTD/svg11.dtd">
<!-- Generated by graphviz version 2.28.0 (20110630.0925)
 -->
<!-- Title: _anonymous_0 Pages: 1 -->
<svg width="406pt" height="366pt"
 viewBox="0.00 0.00 406.45 366.45" xmlns="http://www.w3.org/2000/svg" xmlns:xlink="http://www.w3.org/1999/xlink">
<g id="graph1" class="graph" transform="scale(1 1) rotate(0) translate(4 362.449)">
<title>_anonymous_0</title>
<polygon fill="white" stroke="white" points="-4,5 -4,-362.449 403.449,-362.449 403.449,5 -4,5"/>
<!-- GATA3 -->
<g id="node1" class="node"><title>GATA3</title>
<a xlink:href="GATA3.svg" xlink:title="Z&#45;value: 2.023||remove29">
<polygon fill="#3247ff" stroke="#3247ff" stroke-width="2" points="343.249,-315.249 313.249,-315.249 301.249,-303.249 301.249,-291.249 313.249,-279.249 343.249,-279.249 355.249,-291.249 355.249,-303.249 343.249,-315.249"/>
<path fill="#3247ff" stroke="#3247ff" stroke-width="2" d="M313.249,-315.249C307.249,-315.249 301.249,-309.249 301.249,-303.249"/>
<path fill="#3247ff" stroke="#3247ff" stroke-width="2" d="M301.249,-291.249C301.249,-285.249 307.249,-279.249 313.249,-279.249"/>
<path fill="#3247ff" stroke="#3247ff" stroke-width="2" d="M343.249,-279.249C349.249,-279.249 355.249,-285.249 355.249,-291.249"/>
<path fill="#3247ff" stroke="#3247ff" stroke-width="2" d="M355.249,-303.249C355.249,-309.249 349.249,-315.249 343.249,-315.249"/>
<polyline fill="none" stroke="white" stroke-width="2" points="343.249,-315.249 313.249,-315.249 "/>
<path fill="none" stroke="white" stroke-width="2" d="M313.249,-315.249C307.249,-315.249 301.249,-309.249 301.249,-303.249"/>
<polyline fill="none" stroke="white" stroke-width="2" points="301.249,-303.249 301.249,-291.249 "/>
<path fill="none" stroke="white" stroke-width="2" d="M301.249,-291.249C301.249,-285.249 307.249,-279.249 313.249,-279.249"/>
<polyline fill="none" stroke="white" stroke-width="2" points="313.249,-279.249 343.249,-279.249 "/>
<path fill="none" stroke="white" stroke-width="2" d="M343.249,-279.249C349.249,-279.249 355.249,-285.249 355.249,-291.249"/>
<polyline fill="none" stroke="white" stroke-width="2" points="355.249,-291.249 355.249,-303.249 "/>
<path fill="none" stroke="white" stroke-width="2" d="M355.249,-303.249C355.249,-309.249 349.249,-315.249 343.249,-315.249"/>
<text text-anchor="middle" x="328.249" y="-294.749" font-family="Helvetica,sans-Serif" font-size="10.00" fill="white">GATA3</text>
</a>
</g>
<!-- IRX2 -->
<g id="node2" class="node"><title>IRX2</title>
<a xlink:href="IRX2.svg" xlink:title="Z&#45;value: 0.387||remove31">
<polygon fill="#ffaeae" stroke="#ffaeae" stroke-width="2" points="225.225,-197.225 195.225,-197.225 183.225,-185.225 183.225,-173.225 195.225,-161.225 225.225,-161.225 237.225,-173.225 237.225,-185.225 225.225,-197.225"/>
<path fill="#ffaeae" stroke="#ffaeae" stroke-width="2" d="M195.225,-197.225C189.225,-197.225 183.225,-191.225 183.225,-185.225"/>
<path fill="#ffaeae" stroke="#ffaeae" stroke-width="2" d="M183.225,-173.225C183.225,-167.225 189.225,-161.225 195.225,-161.225"/>
<path fill="#ffaeae" stroke="#ffaeae" stroke-width="2" d="M225.225,-161.225C231.225,-161.225 237.225,-167.225 237.225,-173.225"/>
<path fill="#ffaeae" stroke="#ffaeae" stroke-width="2" d="M237.225,-185.225C237.225,-191.225 231.225,-197.225 225.225,-197.225"/>
<polyline fill="none" stroke="white" stroke-width="2" points="225.225,-197.225 195.225,-197.225 "/>
<path fill="none" stroke="white" stroke-width="2" d="M195.225,-197.225C189.225,-197.225 183.225,-191.225 183.225,-185.225"/>
<polyline fill="none" stroke="white" stroke-width="2" points="183.225,-185.225 183.225,-173.225 "/>
<path fill="none" stroke="white" stroke-width="2" d="M183.225,-173.225C183.225,-167.225 189.225,-161.225 195.225,-161.225"/>
<polyline fill="none" stroke="white" stroke-width="2" points="195.225,-161.225 225.225,-161.225 "/>
<path fill="none" stroke="white" stroke-width="2" d="M225.225,-161.225C231.225,-161.225 237.225,-167.225 237.225,-173.225"/>
<polyline fill="none" stroke="white" stroke-width="2" points="237.225,-173.225 237.225,-185.225 "/>
<path fill="none" stroke="white" stroke-width="2" d="M237.225,-185.225C237.225,-191.225 231.225,-197.225 225.225,-197.225"/>
<text text-anchor="middle" x="210.225" y="-176.725" font-family="Helvetica,sans-Serif" font-size="10.00">IRX2</text>
</a>
</g>
<!-- GATA3&#45;&gt;IRX2 -->
<g id="edge2" class="edge"><title>GATA3&#45;&gt;IRX2</title>
<a xlink:title="IRX2: 0.323||remove29root">
<path fill="none" stroke="#b0b8ff" stroke-width="3" d="M310.067,-279.067C289.648,-258.648 256.437,-225.437 233.98,-202.98"/>
<polygon fill="#b0b8ff" stroke="#b0b8ff" points="235.871,-200.911 228.234,-197.234 231.911,-204.871 235.871,-200.911"/>
</a>
</g>
<!-- RCOR1_MTA3 -->
<g id="node4" class="node"><title>RCOR1_MTA3</title>
<a xlink:href="RCOR1_MTA3.svg" xlink:title="Z&#45;value: 1.731||remove30">
<polygon fill="#495bff" stroke="#495bff" stroke-width="2" points="282.675,-358.449 224.175,-358.449 212.175,-346.449 212.175,-334.449 224.175,-322.449 282.675,-322.449 294.675,-334.449 294.675,-346.449 282.675,-358.449"/>
<path fill="#495bff" stroke="#495bff" stroke-width="2" d="M224.175,-358.449C218.175,-358.449 212.175,-352.449 212.175,-346.449"/>
<path fill="#495bff" stroke="#495bff" stroke-width="2" d="M212.175,-334.449C212.175,-328.449 218.175,-322.449 224.175,-322.449"/>
<path fill="#495bff" stroke="#495bff" stroke-width="2" d="M282.675,-322.449C288.675,-322.449 294.675,-328.449 294.675,-334.449"/>
<path fill="#495bff" stroke="#495bff" stroke-width="2" d="M294.675,-346.449C294.675,-352.449 288.675,-358.449 282.675,-358.449"/>
<polyline fill="none" stroke="white" stroke-width="2" points="282.675,-358.449 224.175,-358.449 "/>
<path fill="none" stroke="white" stroke-width="2" d="M224.175,-358.449C218.175,-358.449 212.175,-352.449 212.175,-346.449"/>
<polyline fill="none" stroke="white" stroke-width="2" points="212.175,-346.449 212.175,-334.449 "/>
<path fill="none" stroke="white" stroke-width="2" d="M212.175,-334.449C212.175,-328.449 218.175,-322.449 224.175,-322.449"/>
<polyline fill="none" stroke="white" stroke-width="2" points="224.175,-322.449 282.675,-322.449 "/>
<path fill="none" stroke="white" stroke-width="2" d="M282.675,-322.449C288.675,-322.449 294.675,-328.449 294.675,-334.449"/>
<polyline fill="none" stroke="white" stroke-width="2" points="294.675,-334.449 294.675,-346.449 "/>
<path fill="none" stroke="white" stroke-width="2" d="M294.675,-346.449C294.675,-352.449 288.675,-358.449 282.675,-358.449"/>
<text text-anchor="middle" x="253.425" y="-337.949" font-family="Helvetica,sans-Serif" font-size="10.00" fill="white">RCOR1_MTA3</text>
</a>
</g>
<!-- GATA3&#45;&gt;RCOR1_MTA3 -->
<g id="edge4" class="edge"><title>GATA3&#45;&gt;RCOR1_MTA3</title>
<a xlink:title="RCOR1: 0.161||remove28root">
<path fill="none" stroke="#eabeff" stroke-width="3" d="M301.236,-312.845C298.138,-314.634 294.937,-316.482 291.727,-318.335"/>
<polygon fill="#eabeff" stroke="#eabeff" points="290.252,-315.954 284.723,-322.379 293.052,-320.804 290.252,-315.954"/>
</a>
</g>
<!-- MAFB -->
<g id="node6" class="node"><title>MAFB</title>
<a xlink:href="MAFB.svg" xlink:title="Z&#45;value: 0.960||remove16">
<polygon fill="#838fff" stroke="#838fff" stroke-width="2" points="182.025,-358.449 152.025,-358.449 140.025,-346.449 140.025,-334.449 152.025,-322.449 182.025,-322.449 194.025,-334.449 194.025,-346.449 182.025,-358.449"/>
<path fill="#838fff" stroke="#838fff" stroke-width="2" d="M152.025,-358.449C146.025,-358.449 140.025,-352.449 140.025,-346.449"/>
<path fill="#838fff" stroke="#838fff" stroke-width="2" d="M140.025,-334.449C140.025,-328.449 146.025,-322.449 152.025,-322.449"/>
<path fill="#838fff" stroke="#838fff" stroke-width="2" d="M182.025,-322.449C188.025,-322.449 194.025,-328.449 194.025,-334.449"/>
<path fill="#838fff" stroke="#838fff" stroke-width="2" d="M194.025,-346.449C194.025,-352.449 188.025,-358.449 182.025,-358.449"/>
<polyline fill="none" stroke="white" stroke-width="2" points="182.025,-358.449 152.025,-358.449 "/>
<path fill="none" stroke="white" stroke-width="2" d="M152.025,-358.449C146.025,-358.449 140.025,-352.449 140.025,-346.449"/>
<polyline fill="none" stroke="white" stroke-width="2" points="140.025,-346.449 140.025,-334.449 "/>
<path fill="none" stroke="white" stroke-width="2" d="M140.025,-334.449C140.025,-328.449 146.025,-322.449 152.025,-322.449"/>
<polyline fill="none" stroke="white" stroke-width="2" points="152.025,-322.449 182.025,-322.449 "/>
<path fill="none" stroke="white" stroke-width="2" d="M182.025,-322.449C188.025,-322.449 194.025,-328.449 194.025,-334.449"/>
<polyline fill="none" stroke="white" stroke-width="2" points="194.025,-334.449 194.025,-346.449 "/>
<path fill="none" stroke="white" stroke-width="2" d="M194.025,-346.449C194.025,-352.449 188.025,-358.449 182.025,-358.449"/>
<text text-anchor="middle" x="167.025" y="-337.949" font-family="Helvetica,sans-Serif" font-size="10.00">MAFB</text>
</a>
</g>
<!-- GATA3&#45;&gt;MAFB -->
<g id="edge6" class="edge"><title>GATA3&#45;&gt;MAFB</title>
<a xlink:title="MAFB: 0.149||remove16">
<path fill="none" stroke="#eabfff" stroke-width="3" d="M301.228,-299.645C275.879,-302.473 237.199,-308.296 205.285,-319.569 204.009,-320.02 202.725,-320.509 201.441,-321.03"/>
<polygon fill="#eabfff" stroke="#eabfff" points="200.283,-318.48 194.122,-324.301 202.568,-323.593 200.283,-318.48"/>
</a>
</g>
<!-- RBPJ -->
<g id="node27" class="node"><title>RBPJ</title>
<a xlink:href="RBPJ.svg" xlink:title="Z&#45;value: 0.623||remove18">
<polygon fill="#9ca6ff" stroke="#9ca6ff" stroke-width="2" points="386.449,-240.425 356.449,-240.425 344.449,-228.425 344.449,-216.425 356.449,-204.425 386.449,-204.425 398.449,-216.425 398.449,-228.425 386.449,-240.425"/>
<path fill="#9ca6ff" stroke="#9ca6ff" stroke-width="2" d="M356.449,-240.425C350.449,-240.425 344.449,-234.425 344.449,-228.425"/>
<path fill="#9ca6ff" stroke="#9ca6ff" stroke-width="2" d="M344.449,-216.425C344.449,-210.425 350.449,-204.425 356.449,-204.425"/>
<path fill="#9ca6ff" stroke="#9ca6ff" stroke-width="2" d="M386.449,-204.425C392.449,-204.425 398.449,-210.425 398.449,-216.425"/>
<path fill="#9ca6ff" stroke="#9ca6ff" stroke-width="2" d="M398.449,-228.425C398.449,-234.425 392.449,-240.425 386.449,-240.425"/>
<polyline fill="none" stroke="white" stroke-width="2" points="386.449,-240.425 356.449,-240.425 "/>
<path fill="none" stroke="white" stroke-width="2" d="M356.449,-240.425C350.449,-240.425 344.449,-234.425 344.449,-228.425"/>
<polyline fill="none" stroke="white" stroke-width="2" points="344.449,-228.425 344.449,-216.425 "/>
<path fill="none" stroke="white" stroke-width="2" d="M344.449,-216.425C344.449,-210.425 350.449,-204.425 356.449,-204.425"/>
<polyline fill="none" stroke="white" stroke-width="2" points="356.449,-204.425 386.449,-204.425 "/>
<path fill="none" stroke="white" stroke-width="2" d="M386.449,-204.425C392.449,-204.425 398.449,-210.425 398.449,-216.425"/>
<polyline fill="none" stroke="white" stroke-width="2" points="398.449,-216.425 398.449,-228.425 "/>
<path fill="none" stroke="white" stroke-width="2" d="M398.449,-228.425C398.449,-234.425 392.449,-240.425 386.449,-240.425"/>
<text text-anchor="middle" x="371.449" y="-219.925" font-family="Helvetica,sans-Serif" font-size="10.00">RBPJ</text>
</a>
</g>
<!-- IRX2&#45;&gt;RBPJ -->
<g id="edge38" class="edge"><title>IRX2&#45;&gt;RBPJ</title>
<a xlink:title="RBPJ: 0.069||remove18root">
<path fill="none" stroke="#ffc6c6" stroke-width="3" d="M237.574,-186.553C264.756,-193.836 306.561,-205.038 336.215,-212.984"/>
<polygon fill="#ffc6c6" stroke="#ffc6c6" points="335.783,-215.767 344.235,-215.133 337.232,-210.357 335.783,-215.767"/>
</a>
</g>
<!-- RCOR1_MTA3&#45;&gt;IRX2 -->
<g id="edge26" class="edge"><title>RCOR1_MTA3&#45;&gt;IRX2</title>
<a xlink:title="IRX2: 0.350||remove30root">
<path fill="none" stroke="#adb5ff" stroke-width="3" d="M248.553,-322.268C240.904,-293.723 226.045,-238.267 217.244,-205.42"/>
<polygon fill="#adb5ff" stroke="#adb5ff" points="219.92,-204.589 215.145,-197.587 214.511,-206.039 219.92,-204.589"/>
</a>
</g>
<!-- RCOR1_MTA3&#45;&gt;RCOR1_MTA3 -->
<g id="edge28" class="edge"><title>RCOR1_MTA3&#45;&gt;RCOR1_MTA3</title>
<a xlink:title="RCOR1: 1.276||remove30">
<path fill="none" stroke="#cb5eff" stroke-width="3" d="M294.779,-347.094C304.896,-346.602 312.425,-344.387 312.425,-340.449 312.425,-337.681 308.703,-335.764 302.976,-334.699"/>
<polygon fill="#cb5eff" stroke="#cb5eff" points="303.036,-331.889 294.779,-333.805 302.429,-337.456 303.036,-331.889"/>
</a>
</g>
<!-- HIC1 -->
<g id="node8" class="node"><title>HIC1</title>
<a xlink:href="HIC1.svg" xlink:title="Z&#45;value: 0.670||remove19">
<polygon fill="#99a3ff" stroke="#99a3ff" stroke-width="2" points="107.2,-315.249 77.2,-315.249 65.2,-303.249 65.2,-291.249 77.2,-279.249 107.2,-279.249 119.2,-291.249 119.2,-303.249 107.2,-315.249"/>
<path fill="#99a3ff" stroke="#99a3ff" stroke-width="2" d="M77.2,-315.249C71.2,-315.249 65.2,-309.249 65.2,-303.249"/>
<path fill="#99a3ff" stroke="#99a3ff" stroke-width="2" d="M65.2,-291.249C65.2,-285.249 71.2,-279.249 77.2,-279.249"/>
<path fill="#99a3ff" stroke="#99a3ff" stroke-width="2" d="M107.2,-279.249C113.2,-279.249 119.2,-285.249 119.2,-291.249"/>
<path fill="#99a3ff" stroke="#99a3ff" stroke-width="2" d="M119.2,-303.249C119.2,-309.249 113.2,-315.249 107.2,-315.249"/>
<polyline fill="none" stroke="white" stroke-width="2" points="107.2,-315.249 77.2,-315.249 "/>
<path fill="none" stroke="white" stroke-width="2" d="M77.2,-315.249C71.2,-315.249 65.2,-309.249 65.2,-303.249"/>
<polyline fill="none" stroke="white" stroke-width="2" points="65.2,-303.249 65.2,-291.249 "/>
<path fill="none" stroke="white" stroke-width="2" d="M65.2,-291.249C65.2,-285.249 71.2,-279.249 77.2,-279.249"/>
<polyline fill="none" stroke="white" stroke-width="2" points="77.2,-279.249 107.2,-279.249 "/>
<path fill="none" stroke="white" stroke-width="2" d="M107.2,-279.249C113.2,-279.249 119.2,-285.249 119.2,-291.249"/>
<polyline fill="none" stroke="white" stroke-width="2" points="119.2,-291.249 119.2,-303.249 "/>
<path fill="none" stroke="white" stroke-width="2" d="M119.2,-303.249C119.2,-309.249 113.2,-315.249 107.2,-315.249"/>
<text text-anchor="middle" x="92.2" y="-294.749" font-family="Helvetica,sans-Serif" font-size="10.00">HIC1</text>
</a>
</g>
<!-- RCOR1_MTA3&#45;&gt;HIC1 -->
<g id="edge22" class="edge"><title>RCOR1_MTA3&#45;&gt;HIC1</title>
<a xlink:title="HIC1: 0.403||remove19">
<path fill="none" stroke="#e3a9ff" stroke-width="3" d="M212.155,-324.018C207.53,-322.412 202.859,-320.891 198.345,-319.569 175.051,-312.75 148.306,-307.139 127.491,-303.249"/>
<polygon fill="#e3a9ff" stroke="#e3a9ff" points="127.91,-300.479 119.536,-301.792 126.901,-305.988 127.91,-300.479"/>
</a>
</g>
<!-- SIN3A_CHD1 -->
<g id="node10" class="node"><title>SIN3A_CHD1</title>
<a xlink:href="SIN3A_CHD1.svg" xlink:title="Z&#45;value: 1.751||remove26">
<polygon fill="#4759ff" stroke="#4759ff" stroke-width="2" points="76.25,-240.425 21.75,-240.425 9.75,-228.425 9.75,-216.425 21.75,-204.425 76.25,-204.425 88.25,-216.425 88.25,-228.425 76.25,-240.425"/>
<path fill="#4759ff" stroke="#4759ff" stroke-width="2" d="M21.75,-240.425C15.75,-240.425 9.75,-234.425 9.75,-228.425"/>
<path fill="#4759ff" stroke="#4759ff" stroke-width="2" d="M9.75,-216.425C9.75,-210.425 15.75,-204.425 21.75,-204.425"/>
<path fill="#4759ff" stroke="#4759ff" stroke-width="2" d="M76.25,-204.425C82.25,-204.425 88.25,-210.425 88.25,-216.425"/>
<path fill="#4759ff" stroke="#4759ff" stroke-width="2" d="M88.25,-228.425C88.25,-234.425 82.25,-240.425 76.25,-240.425"/>
<polyline fill="none" stroke="white" stroke-width="2" points="76.25,-240.425 21.75,-240.425 "/>
<path fill="none" stroke="white" stroke-width="2" d="M21.75,-240.425C15.75,-240.425 9.75,-234.425 9.75,-228.425"/>
<polyline fill="none" stroke="white" stroke-width="2" points="9.75,-228.425 9.75,-216.425 "/>
<path fill="none" stroke="white" stroke-width="2" d="M9.75,-216.425C9.75,-210.425 15.75,-204.425 21.75,-204.425"/>
<polyline fill="none" stroke="white" stroke-width="2" points="21.75,-204.425 76.25,-204.425 "/>
<path fill="none" stroke="white" stroke-width="2" d="M76.25,-204.425C82.25,-204.425 88.25,-210.425 88.25,-216.425"/>
<polyline fill="none" stroke="white" stroke-width="2" points="88.25,-216.425 88.25,-228.425 "/>
<path fill="none" stroke="white" stroke-width="2" d="M88.25,-228.425C88.25,-234.425 82.25,-240.425 76.25,-240.425"/>
<text text-anchor="middle" x="49" y="-219.925" font-family="Helvetica,sans-Serif" font-size="10.00" fill="white">SIN3A_CHD1</text>
</a>
</g>
<!-- RCOR1_MTA3&#45;&gt;SIN3A_CHD1 -->
<g id="edge24" class="edge"><title>RCOR1_MTA3&#45;&gt;SIN3A_CHD1</title>
<a xlink:title="SIN3A: 0.229||RCOR1: 1.779||remove26">
<path fill="none" stroke="#e8b8ff" stroke-width="3" d="M214.399,-319.072C177.836,-297.963 123.2,-266.418 86.7338,-245.365"/>
<path fill="none" stroke="#bd32ff" stroke-width="3" d="M215.399,-317.34C178.836,-296.231 124.2,-264.686 87.7338,-243.633"/>
<polygon fill="#bd32ff" stroke="#bd32ff" points="213.603,-320.691 221.931,-322.267 216.403,-315.842 213.603,-320.691"/>
<polygon fill="#e8b8ff" stroke="#e8b8ff" points="88.5219,-242.009 80.1937,-240.434 85.7219,-246.859 88.5219,-242.009"/>
</a>
</g>
<!-- POU5F1_POU2F3 -->
<g id="node15" class="node"><title>POU5F1_POU2F3</title>
<a xlink:href="POU5F1_POU2F3.svg" xlink:title="Z&#45;value: 0.774||remove17">
<polygon fill="#919cff" stroke="#919cff" stroke-width="2" points="85.5,-154.025 12.5,-154.025 0.5,-142.025 0.5,-130.025 12.5,-118.025 85.5,-118.025 97.5,-130.025 97.5,-142.025 85.5,-154.025"/>
<path fill="#919cff" stroke="#919cff" stroke-width="2" d="M12.5,-154.025C6.5,-154.025 0.5,-148.025 0.5,-142.025"/>
<path fill="#919cff" stroke="#919cff" stroke-width="2" d="M0.5,-130.025C0.5,-124.025 6.5,-118.025 12.5,-118.025"/>
<path fill="#919cff" stroke="#919cff" stroke-width="2" d="M85.5,-118.025C91.5,-118.025 97.5,-124.025 97.5,-130.025"/>
<path fill="#919cff" stroke="#919cff" stroke-width="2" d="M97.5,-142.025C97.5,-148.025 91.5,-154.025 85.5,-154.025"/>
<polyline fill="none" stroke="white" stroke-width="2" points="85.5,-154.025 12.5,-154.025 "/>
<path fill="none" stroke="white" stroke-width="2" d="M12.5,-154.025C6.5,-154.025 0.5,-148.025 0.5,-142.025"/>
<polyline fill="none" stroke="white" stroke-width="2" points="0.5,-142.025 0.5,-130.025 "/>
<path fill="none" stroke="white" stroke-width="2" d="M0.5,-130.025C0.5,-124.025 6.5,-118.025 12.5,-118.025"/>
<polyline fill="none" stroke="white" stroke-width="2" points="12.5,-118.025 85.5,-118.025 "/>
<path fill="none" stroke="white" stroke-width="2" d="M85.5,-118.025C91.5,-118.025 97.5,-124.025 97.5,-130.025"/>
<polyline fill="none" stroke="white" stroke-width="2" points="97.5,-130.025 97.5,-142.025 "/>
<path fill="none" stroke="white" stroke-width="2" d="M97.5,-142.025C97.5,-148.025 91.5,-154.025 85.5,-154.025"/>
<text text-anchor="middle" x="49" y="-133.525" font-family="Helvetica,sans-Serif" font-size="10.00">POU5F1_POU2F3</text>
</a>
</g>
<!-- RCOR1_MTA3&#45;&gt;POU5F1_POU2F3 -->
<g id="edge36" class="edge"><title>RCOR1_MTA3&#45;&gt;POU5F1_POU2F3</title>
<a xlink:title="POU2F3: 0.653||remove17">
<path fill="none" stroke="#dc93ff" stroke-width="3" d="M235.283,-322.308C198.309,-285.333 114.24,-201.265 72.8821,-159.907"/>
<polygon fill="#dc93ff" stroke="#dc93ff" points="74.7375,-157.802 67.1007,-154.125 70.7776,-161.762 74.7375,-157.802"/>
</a>
</g>
<!-- PAX5 -->
<g id="node17" class="node"><title>PAX5</title>
<a xlink:href="PAX5.svg" xlink:title="Z&#45;value: 1.037||remove23">
<polygon fill="#7d8aff" stroke="#7d8aff" stroke-width="2" points="107.2,-79.2 77.2,-79.2 65.2,-67.2 65.2,-55.2 77.2,-43.2 107.2,-43.2 119.2,-55.2 119.2,-67.2 107.2,-79.2"/>
<path fill="#7d8aff" stroke="#7d8aff" stroke-width="2" d="M77.2,-79.2C71.2,-79.2 65.2,-73.2 65.2,-67.2"/>
<path fill="#7d8aff" stroke="#7d8aff" stroke-width="2" d="M65.2,-55.2C65.2,-49.2 71.2,-43.2 77.2,-43.2"/>
<path fill="#7d8aff" stroke="#7d8aff" stroke-width="2" d="M107.2,-43.2C113.2,-43.2 119.2,-49.2 119.2,-55.2"/>
<path fill="#7d8aff" stroke="#7d8aff" stroke-width="2" d="M119.2,-67.2C119.2,-73.2 113.2,-79.2 107.2,-79.2"/>
<polyline fill="none" stroke="white" stroke-width="2" points="107.2,-79.2 77.2,-79.2 "/>
<path fill="none" stroke="white" stroke-width="2" d="M77.2,-79.2C71.2,-79.2 65.2,-73.2 65.2,-67.2"/>
<polyline fill="none" stroke="white" stroke-width="2" points="65.2,-67.2 65.2,-55.2 "/>
<path fill="none" stroke="white" stroke-width="2" d="M65.2,-55.2C65.2,-49.2 71.2,-43.2 77.2,-43.2"/>
<polyline fill="none" stroke="white" stroke-width="2" points="77.2,-43.2 107.2,-43.2 "/>
<path fill="none" stroke="white" stroke-width="2" d="M107.2,-43.2C113.2,-43.2 119.2,-49.2 119.2,-55.2"/>
<polyline fill="none" stroke="white" stroke-width="2" points="119.2,-55.2 119.2,-67.2 "/>
<path fill="none" stroke="white" stroke-width="2" d="M119.2,-67.2C119.2,-73.2 113.2,-79.2 107.2,-79.2"/>
<text text-anchor="middle" x="92.2" y="-58.7" font-family="Helvetica,sans-Serif" font-size="10.00">PAX5</text>
</a>
</g>
<!-- RCOR1_MTA3&#45;&gt;PAX5 -->
<g id="edge20" class="edge"><title>RCOR1_MTA3&#45;&gt;PAX5</title>
<a xlink:title="PAX5: 0.228||MTA3: 0.033||remove23">
<path fill="none" stroke="#e8b8ff" stroke-width="3" d="M237.922,-315.599C207.203,-262.391 136.326,-139.629 105.776,-86.715"/>
<path fill="none" stroke="#edc9ff" stroke-width="3" d="M239.655,-314.599C208.935,-261.391 138.058,-138.629 107.508,-85.715"/>
<polygon fill="#edc9ff" stroke="#edc9ff" points="236.421,-316.599 242.846,-322.127 241.271,-313.799 236.421,-316.599"/>
<polygon fill="#e8b8ff" stroke="#e8b8ff" points="109.033,-84.755 102.608,-79.2268 104.183,-87.555 109.033,-84.755"/>
</a>
</g>
<!-- TFDP1 -->
<g id="node23" class="node"><title>TFDP1</title>
<a xlink:href="TFDP1.svg" xlink:title="Z&#45;value: 1.163||remove25">
<polygon fill="#7481ff" stroke="#7481ff" stroke-width="2" points="182.025,-36 152.025,-36 140.025,-24 140.025,-12 152.025,-6.39488e-14 182.025,-6.39488e-14 194.025,-12 194.025,-24 182.025,-36"/>
<path fill="#7481ff" stroke="#7481ff" stroke-width="2" d="M152.025,-36C146.025,-36 140.025,-30 140.025,-24"/>
<path fill="#7481ff" stroke="#7481ff" stroke-width="2" d="M140.025,-12C140.025,-6 146.025,-6.39488e-14 152.025,-6.39488e-14"/>
<path fill="#7481ff" stroke="#7481ff" stroke-width="2" d="M182.025,-6.39488e-14C188.025,-6.39488e-14 194.025,-6 194.025,-12"/>
<path fill="#7481ff" stroke="#7481ff" stroke-width="2" d="M194.025,-24C194.025,-30 188.025,-36 182.025,-36"/>
<polyline fill="none" stroke="white" stroke-width="2" points="182.025,-36 152.025,-36 "/>
<path fill="none" stroke="white" stroke-width="2" d="M152.025,-36C146.025,-36 140.025,-30 140.025,-24"/>
<polyline fill="none" stroke="white" stroke-width="2" points="140.025,-24 140.025,-12 "/>
<path fill="none" stroke="white" stroke-width="2" d="M140.025,-12C140.025,-6 146.025,-6.39488e-14 152.025,-6.39488e-14"/>
<polyline fill="none" stroke="white" stroke-width="2" points="152.025,-6.39488e-14 182.025,-6.39488e-14 "/>
<path fill="none" stroke="white" stroke-width="2" d="M182.025,-6.39488e-14C188.025,-6.39488e-14 194.025,-6 194.025,-12"/>
<polyline fill="none" stroke="white" stroke-width="2" points="194.025,-12 194.025,-24 "/>
<path fill="none" stroke="white" stroke-width="2" d="M194.025,-24C194.025,-30 188.025,-36 182.025,-36"/>
<text text-anchor="middle" x="167.025" y="-15.5" font-family="Helvetica,sans-Serif" font-size="10.00">TFDP1</text>
</a>
</g>
<!-- RCOR1_MTA3&#45;&gt;TFDP1 -->
<g id="edge30" class="edge"><title>RCOR1_MTA3&#45;&gt;TFDP1</title>
<a xlink:title="TFDP1: 0.093||remove24root">
<path fill="none" stroke="#ecc3ff" stroke-width="3" d="M240.325,-322.023C222.759,-296.186 192.241,-247.077 178.905,-200.105 163.644,-146.353 163.771,-80.235 165.328,-44.2997"/>
<polygon fill="#ecc3ff" stroke="#ecc3ff" points="168.127,-44.3886 165.722,-36.2609 162.533,-44.1139 168.127,-44.3886"/>
</a>
</g>
<!-- PLAGL1 -->
<g id="node25" class="node"><title>PLAGL1</title>
<a xlink:href="PLAGL1.svg" xlink:title="Z&#45;value: 1.203||remove22">
<polygon fill="#707fff" stroke="#707fff" stroke-width="2" points="268.425,-36 238.425,-36 226.425,-24 226.425,-12 238.425,-0 268.425,-0 280.425,-12 280.425,-24 268.425,-36"/>
<path fill="#707fff" stroke="#707fff" stroke-width="2" d="M238.425,-36C232.425,-36 226.425,-30 226.425,-24"/>
<path fill="#707fff" stroke="#707fff" stroke-width="2" d="M226.425,-12C226.425,-6 232.425,-0 238.425,-0"/>
<path fill="#707fff" stroke="#707fff" stroke-width="2" d="M268.425,-0C274.425,-0 280.425,-6 280.425,-12"/>
<path fill="#707fff" stroke="#707fff" stroke-width="2" d="M280.425,-24C280.425,-30 274.425,-36 268.425,-36"/>
<polyline fill="none" stroke="white" stroke-width="2" points="268.425,-36 238.425,-36 "/>
<path fill="none" stroke="white" stroke-width="2" d="M238.425,-36C232.425,-36 226.425,-30 226.425,-24"/>
<polyline fill="none" stroke="white" stroke-width="2" points="226.425,-24 226.425,-12 "/>
<path fill="none" stroke="white" stroke-width="2" d="M226.425,-12C226.425,-6 232.425,-0 238.425,-0"/>
<polyline fill="none" stroke="white" stroke-width="2" points="238.425,-0 268.425,-0 "/>
<path fill="none" stroke="white" stroke-width="2" d="M268.425,-0C274.425,-0 280.425,-6 280.425,-12"/>
<polyline fill="none" stroke="white" stroke-width="2" points="280.425,-12 280.425,-24 "/>
<path fill="none" stroke="white" stroke-width="2" d="M280.425,-24C280.425,-30 274.425,-36 268.425,-36"/>
<text text-anchor="middle" x="253.425" y="-15.5" font-family="Helvetica,sans-Serif" font-size="10.00" fill="white">PLAGL1</text>
</a>
</g>
<!-- RCOR1_MTA3&#45;&gt;PLAGL1 -->
<g id="edge32" class="edge"><title>RCOR1_MTA3&#45;&gt;PLAGL1</title>
<a xlink:title="PLAGL1: 0.282||RCOR1: 0.068||remove22">
<path fill="none" stroke="#e6b3ff" stroke-width="3" d="M252.425,-313.858C252.425,-253.123 252.425,-104.804 252.425,-44.3248"/>
<path fill="none" stroke="#ecc6ff" stroke-width="3" d="M254.425,-313.858C254.425,-253.123 254.425,-104.804 254.425,-44.3248"/>
<polygon fill="#ecc6ff" stroke="#ecc6ff" points="250.625,-314.189 253.425,-322.189 256.225,-314.189 250.625,-314.189"/>
<polygon fill="#e6b3ff" stroke="#e6b3ff" points="256.225,-44.0598 253.425,-36.0599 250.625,-44.0599 256.225,-44.0598"/>
</a>
</g>
<!-- RCOR1_MTA3&#45;&gt;RBPJ -->
<g id="edge34" class="edge"><title>RCOR1_MTA3&#45;&gt;RBPJ</title>
<a xlink:title="RBPJ: 0.569||remove18">
<path fill="none" stroke="#df9bff" stroke-width="3" d="M263.377,-322.365C271.366,-308.804 283.445,-290.266 296.929,-276.369 308.863,-264.07 323.884,-252.605 337.308,-243.434"/>
<polygon fill="#df9bff" stroke="#df9bff" points="339.062,-245.629 344.157,-238.856 335.95,-240.974 339.062,-245.629"/>
</a>
</g>
<!-- MAFB&#45;&gt;IRX2 -->
<g id="edge12" class="edge"><title>MAFB&#45;&gt;IRX2</title>
<a xlink:title="IRX2: 0.059||remove16root">
<path fill="none" stroke="#c6ccff" stroke-width="3" d="M171.896,-322.268C179.545,-293.723 194.404,-238.267 203.206,-205.42"/>
<polygon fill="#c6ccff" stroke="#c6ccff" points="205.938,-206.039 205.305,-197.587 200.529,-204.589 205.938,-206.039"/>
</a>
</g>
<!-- MAFB&#45;&gt;RCOR1_MTA3 -->
<g id="edge14" class="edge"><title>MAFB&#45;&gt;RCOR1_MTA3</title>
<a xlink:title="RCOR1: 0.120||MTA3: 0.034||remove16">
<path fill="none" stroke="#ebc1ff" stroke-width="3" d="M194.362,-340.449C197.444,-340.449 200.652,-340.449 203.908,-340.449"/>
<polygon fill="#ebc1ff" stroke="#ebc1ff" points="204.059,-343.249 212.059,-340.449 204.059,-337.649 204.059,-343.249"/>
</a>
</g>
<!-- MAFB&#45;&gt;MAFB -->
<g id="edge16" class="edge"><title>MAFB&#45;&gt;MAFB</title>
<a xlink:title="MAFB: 0.024||remove7root">
<path fill="none" stroke="#eec9ff" stroke-width="3" d="M194.265,-347.193C204.049,-347.338 212.025,-345.09 212.025,-340.449 212.025,-337.186 208.081,-335.106 202.339,-334.209"/>
<polygon fill="#eec9ff" stroke="#eec9ff" points="202.424,-331.409 194.265,-333.706 202.076,-336.998 202.424,-331.409"/>
</a>
</g>
<!-- MAFB&#45;&gt;HIC1 -->
<g id="edge8" class="edge"><title>MAFB&#45;&gt;HIC1</title>
<a xlink:title="HIC1: 0.064||remove16">
<path fill="none" stroke="#ecc6ff" stroke-width="3" d="M140.011,-324.853C135.616,-322.315 131.012,-319.658 126.471,-317.036"/>
<polygon fill="#ecc6ff" stroke="#ecc6ff" points="127.753,-314.543 119.425,-312.968 124.953,-319.393 127.753,-314.543"/>
</a>
</g>
<!-- MAFB&#45;&gt;SIN3A_CHD1 -->
<g id="edge10" class="edge"><title>MAFB&#45;&gt;SIN3A_CHD1</title>
<a xlink:title="SIN3A: 0.019||MAFB: 0.111||remove16">
<path fill="none" stroke="#eecaff" stroke-width="3" d="M151.972,-315.858C144.26,-303.415 133.97,-288.555 122.802,-277.066 111.739,-265.65 97.8684,-254.87 85.1755,-246.05"/>
<path fill="none" stroke="#ebc2ff" stroke-width="3" d="M153.672,-314.804C145.904,-302.277 135.614,-287.417 124.238,-275.673 112.966,-264.07 99.0956,-253.291 86.3169,-244.408"/>
<polygon fill="#ebc2ff" stroke="#ebc2ff" points="150.538,-316.966 157.072,-322.365 155.331,-314.07 150.538,-316.966"/>
<polygon fill="#eecaff" stroke="#eecaff" points="87.0026,-242.698 78.8119,-240.517 83.8553,-247.33 87.0026,-242.698"/>
</a>
</g>
<!-- MAFB&#45;&gt;POU5F1_POU2F3 -->
<g id="edge18" class="edge"><title>MAFB&#45;&gt;POU5F1_POU2F3</title>
<a xlink:title="POU2F3: 0.037||remove11root">
<path fill="none" stroke="#edc8ff" stroke-width="3" d="M158.416,-322.054C145.571,-295.059 120.175,-243.384 94.82,-201.545 86.4611,-187.751 76.2506,-172.981 67.5914,-160.962"/>
<polygon fill="#edc8ff" stroke="#edc8ff" points="69.6673,-159.056 62.698,-154.232 65.138,-162.349 69.6673,-159.056"/>
</a>
</g>
<!-- HIC1&#45;&gt;IRX2 -->
<g id="edge60" class="edge"><title>HIC1&#45;&gt;IRX2</title>
<a xlink:title="IRX2: 0.073||remove19root">
<path fill="none" stroke="#c5cbff" stroke-width="3" d="M110.383,-279.067C130.802,-258.648 164.013,-225.437 186.469,-202.98"/>
<polygon fill="#c5cbff" stroke="#c5cbff" points="188.538,-204.871 192.215,-197.234 184.578,-200.911 188.538,-204.871"/>
</a>
</g>
<!-- HIC1&#45;&gt;TFDP1 -->
<g id="edge62" class="edge"><title>HIC1&#45;&gt;TFDP1</title>
<a xlink:title="TFDP1: 0.030||remove8root">
<path fill="none" stroke="#edc9ff" stroke-width="3" d="M97.1095,-278.927C110.036,-230.684 145.047,-100.023 160.048,-44.0371"/>
<polygon fill="#edc9ff" stroke="#edc9ff" points="162.828,-44.4789 162.194,-36.0268 157.419,-43.0294 162.828,-44.4789"/>
</a>
</g>
<!-- SIN3A_CHD1&#45;&gt;IRX2 -->
<g id="edge44" class="edge"><title>SIN3A_CHD1&#45;&gt;IRX2</title>
<a xlink:title="IRX2: 0.122||remove26root">
<path fill="none" stroke="#c1c7ff" stroke-width="3" d="M88.44,-211.857C114.853,-204.779 149.328,-195.542 174.854,-188.702"/>
<polygon fill="#c1c7ff" stroke="#c1c7ff" points="175.802,-191.347 182.805,-186.572 174.353,-185.938 175.802,-191.347"/>
</a>
</g>
<!-- SIN3A_CHD1&#45;&gt;HIC1 -->
<g id="edge40" class="edge"><title>SIN3A_CHD1&#45;&gt;HIC1</title>
<a xlink:title="HIC1: 0.035||remove10root">
<path fill="none" stroke="#edc8ff" stroke-width="3" d="M59.4575,-240.538C64.8829,-249.935 71.5997,-261.568 77.535,-271.849"/>
<polygon fill="#edc8ff" stroke="#edc8ff" points="75.2641,-273.516 81.6891,-279.044 80.1139,-270.715 75.2641,-273.516"/>
</a>
</g>
<!-- SIN3A_CHD1&#45;&gt;SIN3A_CHD1 -->
<g id="edge42" class="edge"><title>SIN3A_CHD1&#45;&gt;SIN3A_CHD1</title>
<a xlink:title="CHD1: 0.054||remove14root">
<path fill="none" stroke="#edc7ff" stroke-width="3" d="M88.4269,-229.094C98.4645,-228.655 106,-226.432 106,-222.425 106,-219.607 102.275,-217.671 96.5734,-216.618"/>
<polygon fill="#edc7ff" stroke="#edc7ff" points="96.6772,-213.813 88.4269,-215.755 96.0877,-219.382 96.6772,-213.813"/>
</a>
</g>
<!-- SIN3A_CHD1&#45;&gt;POU5F1_POU2F3 -->
<g id="edge50" class="edge"><title>SIN3A_CHD1&#45;&gt;POU5F1_POU2F3</title>
<a xlink:title="POU2F3: 0.086||SIN3A: 0.034||CHD1: 0.009||remove17">
<path fill="none" stroke="#ecc4ff" stroke-width="3" d="M48,-196.029C48,-185.292 48,-172.913 48,-162.198"/>
<path fill="none" stroke="#edc9ff" stroke-width="3" d="M50,-196.029C50,-185.292 50,-172.913 50,-162.198"/>
<polygon fill="#edc9ff" stroke="#edc9ff" points="46.2001,-196.101 49,-204.101 51.8001,-196.101 46.2001,-196.101"/>
<polygon fill="#ecc4ff" stroke="#ecc4ff" points="51.8001,-162.025 49,-154.025 46.2001,-162.025 51.8001,-162.025"/>
</a>
</g>
<!-- SIN3A_CHD1&#45;&gt;RBPJ -->
<g id="edge46" class="edge"><title>SIN3A_CHD1&#45;&gt;RBPJ</title>
<a xlink:title="RBPJ: 0.043||remove13root">
<path fill="none" stroke="#edc8ff" stroke-width="3" d="M88.5386,-222.425C151.982,-222.425 275.528,-222.425 336.162,-222.425"/>
<polygon fill="#edc8ff" stroke="#edc8ff" points="336.287,-225.225 344.287,-222.425 336.287,-219.625 336.287,-225.225"/>
</a>
</g>
<!-- HOXA1 -->
<g id="node35" class="node"><title>HOXA1</title>
<a xlink:href="HOXA1.svg" xlink:title="Z&#45;value: 0.713||remove27">
<polygon fill="#96a0ff" stroke="#96a0ff" stroke-width="2" points="343.249,-79.2 313.249,-79.2 301.249,-67.2 301.249,-55.2 313.249,-43.2 343.249,-43.2 355.249,-55.2 355.249,-67.2 343.249,-79.2"/>
<path fill="#96a0ff" stroke="#96a0ff" stroke-width="2" d="M313.249,-79.2C307.249,-79.2 301.249,-73.2 301.249,-67.2"/>
<path fill="#96a0ff" stroke="#96a0ff" stroke-width="2" d="M301.249,-55.2C301.249,-49.2 307.249,-43.2 313.249,-43.2"/>
<path fill="#96a0ff" stroke="#96a0ff" stroke-width="2" d="M343.249,-43.2C349.249,-43.2 355.249,-49.2 355.249,-55.2"/>
<path fill="#96a0ff" stroke="#96a0ff" stroke-width="2" d="M355.249,-67.2C355.249,-73.2 349.249,-79.2 343.249,-79.2"/>
<polyline fill="none" stroke="white" stroke-width="2" points="343.249,-79.2 313.249,-79.2 "/>
<path fill="none" stroke="white" stroke-width="2" d="M313.249,-79.2C307.249,-79.2 301.249,-73.2 301.249,-67.2"/>
<polyline fill="none" stroke="white" stroke-width="2" points="301.249,-67.2 301.249,-55.2 "/>
<path fill="none" stroke="white" stroke-width="2" d="M301.249,-55.2C301.249,-49.2 307.249,-43.2 313.249,-43.2"/>
<polyline fill="none" stroke="white" stroke-width="2" points="313.249,-43.2 343.249,-43.2 "/>
<path fill="none" stroke="white" stroke-width="2" d="M343.249,-43.2C349.249,-43.2 355.249,-49.2 355.249,-55.2"/>
<polyline fill="none" stroke="white" stroke-width="2" points="355.249,-55.2 355.249,-67.2 "/>
<path fill="none" stroke="white" stroke-width="2" d="M355.249,-67.2C355.249,-73.2 349.249,-79.2 343.249,-79.2"/>
<text text-anchor="middle" x="328.249" y="-58.7" font-family="Helvetica,sans-Serif" font-size="10.00">HOXA1</text>
</a>
</g>
<!-- SIN3A_CHD1&#45;&gt;HOXA1 -->
<g id="edge48" class="edge"><title>SIN3A_CHD1&#45;&gt;HOXA1</title>
<a xlink:title="HOXA1: 0.196||remove26">
<path fill="none" stroke="#e9bbff" stroke-width="3" d="M80.2206,-204.399C132.933,-173.966 239.171,-112.629 293.913,-81.0239"/>
<polygon fill="#e9bbff" stroke="#e9bbff" points="295.437,-83.3771 300.966,-76.9522 292.637,-78.5273 295.437,-83.3771"/>
</a>
</g>
<!-- POU5F1_POU2F3&#45;&gt;IRX2 -->
<g id="edge52" class="edge"><title>POU5F1_POU2F3&#45;&gt;IRX2</title>
<a xlink:title="IRX2: 0.066||remove17root">
<path fill="none" stroke="#c6cbff" stroke-width="3" d="M97.8102,-149.103C122.738,-155.783 152.499,-163.757 175.135,-169.822"/>
<polygon fill="#c6cbff" stroke="#c6cbff" points="174.678,-172.599 183.13,-171.965 176.127,-167.189 174.678,-172.599"/>
</a>
</g>
<!-- POU5F1_POU2F3&#45;&gt;POU5F1_POU2F3 -->
<g id="edge56" class="edge"><title>POU5F1_POU2F3&#45;&gt;POU5F1_POU2F3</title>
<a xlink:title="POU2F3: 0.236||remove17">
<path fill="none" stroke="#e8b7ff" stroke-width="3" d="M97.64,-142.537C107.738,-141.852 115,-139.681 115,-136.025 115,-133.454 111.41,-131.617 105.768,-130.515"/>
<polygon fill="#e8b7ff" stroke="#e8b7ff" points="105.923,-127.713 97.64,-129.512 105.237,-133.271 105.923,-127.713"/>
</a>
</g>
<!-- POU5F1_POU2F3&#45;&gt;RBPJ -->
<g id="edge54" class="edge"><title>POU5F1_POU2F3&#45;&gt;RBPJ</title>
<a xlink:title="RBPJ: 0.023||remove6root">
<path fill="none" stroke="#eec9ff" stroke-width="3" d="M78.2527,-154.1C103.832,-168.997 142.483,-189.361 178.905,-200.105 232.168,-215.816 296.769,-220.546 335.96,-221.924"/>
<polygon fill="#eec9ff" stroke="#eec9ff" points="336.318,-224.736 344.4,-222.183 336.489,-219.139 336.318,-224.736"/>
</a>
</g>
<!-- PAX5&#45;&gt;IRX2 -->
<g id="edge80" class="edge"><title>PAX5&#45;&gt;IRX2</title>
<a xlink:title="IRX2: 0.091||remove23root">
<path fill="none" stroke="#c4caff" stroke-width="3" d="M110.383,-79.3827C130.802,-99.8017 164.013,-133.013 186.469,-155.469"/>
<polygon fill="#c4caff" stroke="#c4caff" points="184.578,-157.538 192.215,-161.215 188.538,-153.578 184.578,-157.538"/>
</a>
</g>
<!-- PAX5&#45;&gt;MAFB -->
<g id="edge84" class="edge"><title>PAX5&#45;&gt;MAFB</title>
<a xlink:title="MAFB: 0.020||remove5root">
<path fill="none" stroke="#eecaff" stroke-width="3" d="M97.1095,-79.5223C110.036,-127.765 145.047,-258.427 160.048,-314.412"/>
<polygon fill="#eecaff" stroke="#eecaff" points="157.419,-315.42 162.194,-322.422 162.828,-313.97 157.419,-315.42"/>
</a>
</g>
<!-- PAX5&#45;&gt;HIC1 -->
<g id="edge78" class="edge"><title>PAX5&#45;&gt;HIC1</title>
<a xlink:title="HIC1: 0.042||remove12root">
<path fill="none" stroke="#edc8ff" stroke-width="3" d="M98.0168,-79.4602C101.009,-89.8093 104.337,-103.066 105.84,-115.145 112.728,-170.484 103.711,-235.749 97.3936,-271.174"/>
<polygon fill="#edc8ff" stroke="#edc8ff" points="94.6296,-270.723 95.936,-279.098 100.137,-271.736 94.6296,-270.723"/>
</a>
</g>
<!-- PAX5&#45;&gt;RBPJ -->
<g id="edge82" class="edge"><title>PAX5&#45;&gt;RBPJ</title>
<a xlink:title="RBPJ: 0.006||remove0root">
<path fill="none" stroke="#eecbff" stroke-width="3" d="M119.229,-76.8054C170.317,-106.301 280.956,-170.178 337.172,-202.635"/>
<polygon fill="#eecbff" stroke="#eecbff" points="336.077,-205.235 344.405,-206.811 338.877,-200.386 336.077,-205.235"/>
</a>
</g>
<!-- TFDP1&#45;&gt;GATA3 -->
<g id="edge90" class="edge"><title>TFDP1&#45;&gt;GATA3</title>
<a xlink:title="GATA3: 0.121||remove25">
<path fill="none" stroke="#ebc1ff" stroke-width="3" d="M177.603,-36.3223C205.628,-84.8626 281.825,-216.84 313.809,-272.238"/>
<polygon fill="#ebc1ff" stroke="#ebc1ff" points="311.417,-273.694 317.841,-279.222 316.266,-270.894 311.417,-273.694"/>
</a>
</g>
<!-- TFDP1&#45;&gt;IRX2 -->
<g id="edge88" class="edge"><title>TFDP1&#45;&gt;IRX2</title>
<a xlink:title="IRX2: 0.107||remove25root">
<path fill="none" stroke="#c2c8ff" stroke-width="3" d="M171.896,-36.1811C179.545,-64.7264 194.404,-120.183 203.206,-153.029"/>
<polygon fill="#c2c8ff" stroke="#c2c8ff" points="200.529,-153.86 205.305,-160.863 205.938,-152.41 200.529,-153.86"/>
</a>
</g>
<!-- TFDP1&#45;&gt;SIN3A_CHD1 -->
<g id="edge86" class="edge"><title>TFDP1&#45;&gt;SIN3A_CHD1</title>
<a xlink:title="SIN3A: 0.009||remove1root">
<path fill="none" stroke="#eecbff" stroke-width="3" d="M160.92,-36.4068C151.383,-63.8599 131.367,-116.615 105.84,-156.905 96.4375,-171.745 83.8002,-186.666 72.8293,-198.513"/>
<polygon fill="#eecbff" stroke="#eecbff" points="70.7197,-196.669 67.27,-204.411 74.7948,-200.51 70.7197,-196.669"/>
</a>
</g>
<!-- TFDP1&#45;&gt;TFDP1 -->
<g id="edge92" class="edge"><title>TFDP1&#45;&gt;TFDP1</title>
<a xlink:title="TFDP1: 0.077||remove20root">
<path fill="none" stroke="#ecc5ff" stroke-width="3" d="M194.265,-24.7434C204.049,-24.8884 212.025,-22.6406 212.025,-18 212.025,-14.7371 208.081,-12.6571 202.339,-11.7601"/>
<polygon fill="#ecc5ff" stroke="#ecc5ff" points="202.424,-8.96005 194.265,-11.2566 202.076,-14.5492 202.424,-8.96005"/>
</a>
</g>
<!-- TFDP1&#45;&gt;RBPJ -->
<g id="edge94" class="edge"><title>TFDP1&#45;&gt;RBPJ</title>
<a xlink:title="RBPJ: 0.016||remove4root">
<path fill="none" stroke="#eecaff" stroke-width="3" d="M185.166,-36.1413C222.141,-73.116 306.209,-157.184 347.567,-198.542"/>
<polygon fill="#eecaff" stroke="#eecaff" points="345.712,-200.647 353.349,-204.324 349.672,-196.687 345.712,-200.647"/>
</a>
</g>
<!-- KLF12 -->
<g id="node44" class="node"><title>KLF12</title>
<a xlink:href="KLF12.svg" xlink:title="Z&#45;value: 0.683||remove15">
<polygon fill="#98a2ff" stroke="#98a2ff" stroke-width="2" points="386.449,-154.025 356.449,-154.025 344.449,-142.025 344.449,-130.025 356.449,-118.025 386.449,-118.025 398.449,-130.025 398.449,-142.025 386.449,-154.025"/>
<path fill="#98a2ff" stroke="#98a2ff" stroke-width="2" d="M356.449,-154.025C350.449,-154.025 344.449,-148.025 344.449,-142.025"/>
<path fill="#98a2ff" stroke="#98a2ff" stroke-width="2" d="M344.449,-130.025C344.449,-124.025 350.449,-118.025 356.449,-118.025"/>
<path fill="#98a2ff" stroke="#98a2ff" stroke-width="2" d="M386.449,-118.025C392.449,-118.025 398.449,-124.025 398.449,-130.025"/>
<path fill="#98a2ff" stroke="#98a2ff" stroke-width="2" d="M398.449,-142.025C398.449,-148.025 392.449,-154.025 386.449,-154.025"/>
<polyline fill="none" stroke="white" stroke-width="2" points="386.449,-154.025 356.449,-154.025 "/>
<path fill="none" stroke="white" stroke-width="2" d="M356.449,-154.025C350.449,-154.025 344.449,-148.025 344.449,-142.025"/>
<polyline fill="none" stroke="white" stroke-width="2" points="344.449,-142.025 344.449,-130.025 "/>
<path fill="none" stroke="white" stroke-width="2" d="M344.449,-130.025C344.449,-124.025 350.449,-118.025 356.449,-118.025"/>
<polyline fill="none" stroke="white" stroke-width="2" points="356.449,-118.025 386.449,-118.025 "/>
<path fill="none" stroke="white" stroke-width="2" d="M386.449,-118.025C392.449,-118.025 398.449,-124.025 398.449,-130.025"/>
<polyline fill="none" stroke="white" stroke-width="2" points="398.449,-130.025 398.449,-142.025 "/>
<path fill="none" stroke="white" stroke-width="2" d="M398.449,-142.025C398.449,-148.025 392.449,-154.025 386.449,-154.025"/>
<text text-anchor="middle" x="371.449" y="-133.525" font-family="Helvetica,sans-Serif" font-size="10.00">KLF12</text>
</a>
</g>
<!-- TFDP1&#45;&gt;KLF12 -->
<g id="edge96" class="edge"><title>TFDP1&#45;&gt;KLF12</title>
<a xlink:title="KLF12: 0.010||remove2root">
<path fill="none" stroke="#eecbff" stroke-width="3" d="M194.171,-33.6728C230.979,-54.9239 296.732,-92.8868 336.984,-116.126"/>
<polygon fill="#eecbff" stroke="#eecbff" points="335.863,-118.712 344.191,-120.287 338.663,-113.862 335.863,-118.712"/>
</a>
</g>
<!-- PLAGL1&#45;&gt;IRX2 -->
<g id="edge70" class="edge"><title>PLAGL1&#45;&gt;IRX2</title>
<a xlink:title="IRX2: 0.090||remove22root">
<path fill="none" stroke="#c4caff" stroke-width="3" d="M248.553,-36.1811C240.904,-64.7264 226.045,-120.183 217.244,-153.029"/>
<polygon fill="#c4caff" stroke="#c4caff" points="214.511,-152.41 215.145,-160.863 219.92,-153.86 214.511,-152.41"/>
</a>
</g>
<!-- PLAGL1&#45;&gt;MAFB -->
<g id="edge76" class="edge"><title>PLAGL1&#45;&gt;MAFB</title>
<a xlink:title="MAFB: 0.320||remove16">
<path fill="none" stroke="#e5b0ff" stroke-width="3" d="M240.325,-36.4267C222.759,-62.2629 192.241,-111.372 178.905,-158.345 163.644,-212.096 163.771,-278.214 165.328,-314.15"/>
<polygon fill="#e5b0ff" stroke="#e5b0ff" points="162.533,-314.335 165.722,-322.188 168.127,-314.061 162.533,-314.335"/>
</a>
</g>
<!-- PLAGL1&#45;&gt;SIN3A_CHD1 -->
<g id="edge68" class="edge"><title>PLAGL1&#45;&gt;SIN3A_CHD1</title>
<a xlink:title="SIN3A: 0.010||remove3root">
<path fill="none" stroke="#eecbff" stroke-width="3" d="M235.283,-36.1413C198.309,-73.116 114.24,-157.184 72.8821,-198.542"/>
<polygon fill="#eecbff" stroke="#eecbff" points="70.7776,-196.687 67.1007,-204.324 74.7375,-200.647 70.7776,-196.687"/>
</a>
</g>
<!-- PLAGL1&#45;&gt;PAX5 -->
<g id="edge66" class="edge"><title>PLAGL1&#45;&gt;PAX5</title>
<a xlink:title="PAX5: 0.088||remove21root">
<path fill="none" stroke="#ecc4ff" stroke-width="3" d="M226.253,-29.2571C217.447,-32.6464 207.57,-36.1791 198.345,-38.88 175.051,-45.6995 148.306,-51.3099 127.491,-55.2001"/>
<polygon fill="#ecc4ff" stroke="#ecc4ff" points="126.901,-52.4615 119.536,-56.6572 127.91,-57.9698 126.901,-52.4615"/>
</a>
</g>
<!-- PLAGL1&#45;&gt;TFDP1 -->
<g id="edge72" class="edge"><title>PLAGL1&#45;&gt;TFDP1</title>
<a xlink:title="TFDP1: 0.035||remove9root">
<path fill="none" stroke="#edc9ff" stroke-width="3" d="M226.087,-18C218.528,-18 210.217,-18 202.277,-18"/>
<polygon fill="#edc9ff" stroke="#edc9ff" points="202.184,-15.2001 194.184,-18 202.184,-20.8001 202.184,-15.2001"/>
</a>
</g>
<!-- PLAGL1&#45;&gt;PLAGL1 -->
<g id="edge74" class="edge"><title>PLAGL1&#45;&gt;PLAGL1</title>
<a xlink:title="PLAGL1: 0.151||remove22">
<path fill="none" stroke="#eabfff" stroke-width="3" d="M280.665,-24.7434C290.449,-24.8884 298.425,-22.6406 298.425,-18 298.425,-14.7371 294.481,-12.6571 288.739,-11.7601"/>
<polygon fill="#eabfff" stroke="#eabfff" points="288.824,-8.96005 280.665,-11.2566 288.476,-14.5492 288.824,-8.96005"/>
</a>
</g>
<!-- RBPJ&#45;&gt;KLF12 -->
<g id="edge64" class="edge"><title>RBPJ&#45;&gt;KLF12</title>
<a xlink:title="KLF12: 0.134||RBPJ: 0.038||remove15">
<path fill="none" stroke="#eac0ff" stroke-width="3" d="M370.449,-196.029C370.449,-185.292 370.449,-172.913 370.449,-162.198"/>
<path fill="none" stroke="#edc8ff" stroke-width="3" d="M372.449,-196.029C372.449,-185.292 372.449,-172.913 372.449,-162.198"/>
<polygon fill="#edc8ff" stroke="#edc8ff" points="368.649,-196.101 371.449,-204.101 374.249,-196.101 368.649,-196.101"/>
<polygon fill="#eac0ff" stroke="#eac0ff" points="374.249,-162.025 371.449,-154.025 368.649,-162.025 374.249,-162.025"/>
</a>
</g>
<!-- HOXA1&#45;&gt;IRX2 -->
<g id="edge58" class="edge"><title>HOXA1&#45;&gt;IRX2</title>
<a xlink:title="IRX2: 0.127||remove27root">
<path fill="none" stroke="#c1c7ff" stroke-width="3" d="M310.067,-79.3827C289.648,-99.8017 256.437,-133.013 233.98,-155.469"/>
<polygon fill="#c1c7ff" stroke="#c1c7ff" points="231.911,-153.578 228.234,-161.215 235.871,-157.538 231.911,-153.578"/>
</a>
</g>
<!-- KLF12&#45;&gt;IRX2 -->
<g id="edge98" class="edge"><title>KLF12&#45;&gt;IRX2</title>
<a xlink:title="IRX2: 0.057||remove15root">
<path fill="none" stroke="#c7ccff" stroke-width="3" d="M344.1,-143.353C316.918,-150.636 275.113,-161.838 245.458,-169.784"/>
<polygon fill="#c7ccff" stroke="#c7ccff" points="244.441,-167.157 237.439,-171.933 245.891,-172.567 244.441,-167.157"/>
</a>
</g>
</g>
</svg>
