<?xml version="1.0" encoding="UTF-8" standalone="no"?>
<!DOCTYPE svg PUBLIC "-//W3C//DTD SVG 1.1//EN"
 "http://www.w3.org/Graphics/SVG/1.1/DTD/svg11.dtd">
<!-- Generated by graphviz version 2.28.0 (20110630.0925)
 -->
<!-- Title: _anonymous_0 Pages: 1 -->
<svg width="434pt" height="366pt"
 viewBox="0.00 0.00 434.25 366.45" xmlns="http://www.w3.org/2000/svg" xmlns:xlink="http://www.w3.org/1999/xlink">
<g id="graph1" class="graph" transform="scale(1 1) rotate(0) translate(4 362.449)">
<title>_anonymous_0</title>
<polygon fill="white" stroke="white" points="-4,5 -4,-362.449 431.249,-362.449 431.249,5 -4,5"/>
<!-- GATA3 -->
<g id="node1" class="node"><title>GATA3</title>
<a xlink:href="GATA3.svg" xlink:title="Z&#45;value: 2.023||remove36">
<polygon fill="#3247ff" stroke="#3247ff" stroke-width="2" points="365.449,-240.425 335.449,-240.425 323.449,-228.425 323.449,-216.425 335.449,-204.425 365.449,-204.425 377.449,-216.425 377.449,-228.425 365.449,-240.425"/>
<path fill="#3247ff" stroke="#3247ff" stroke-width="2" d="M335.449,-240.425C329.449,-240.425 323.449,-234.425 323.449,-228.425"/>
<path fill="#3247ff" stroke="#3247ff" stroke-width="2" d="M323.449,-216.425C323.449,-210.425 329.449,-204.425 335.449,-204.425"/>
<path fill="#3247ff" stroke="#3247ff" stroke-width="2" d="M365.449,-204.425C371.449,-204.425 377.449,-210.425 377.449,-216.425"/>
<path fill="#3247ff" stroke="#3247ff" stroke-width="2" d="M377.449,-228.425C377.449,-234.425 371.449,-240.425 365.449,-240.425"/>
<polyline fill="none" stroke="white" stroke-width="2" points="365.449,-240.425 335.449,-240.425 "/>
<path fill="none" stroke="white" stroke-width="2" d="M335.449,-240.425C329.449,-240.425 323.449,-234.425 323.449,-228.425"/>
<polyline fill="none" stroke="white" stroke-width="2" points="323.449,-228.425 323.449,-216.425 "/>
<path fill="none" stroke="white" stroke-width="2" d="M323.449,-216.425C323.449,-210.425 329.449,-204.425 335.449,-204.425"/>
<polyline fill="none" stroke="white" stroke-width="2" points="335.449,-204.425 365.449,-204.425 "/>
<path fill="none" stroke="white" stroke-width="2" d="M365.449,-204.425C371.449,-204.425 377.449,-210.425 377.449,-216.425"/>
<polyline fill="none" stroke="white" stroke-width="2" points="377.449,-216.425 377.449,-228.425 "/>
<path fill="none" stroke="white" stroke-width="2" d="M377.449,-228.425C377.449,-234.425 371.449,-240.425 365.449,-240.425"/>
<text text-anchor="middle" x="350.449" y="-219.925" font-family="Helvetica,sans-Serif" font-size="10.00" fill="white">GATA3</text>
</a>
</g>
<!-- YBX1_FOS_NFYC_NFYA_NFYB_CEBPZ -->
<g id="node2" class="node"><title>YBX1_FOS_NFYC_NFYA_NFYB_CEBPZ</title>
<a xlink:href="YBX1_FOS_NFYC_NFYA_NFYB_CEBPZ.svg" xlink:title="Z&#45;value: 1.883||remove29">
<polygon fill="#3d50ff" stroke="#3d50ff" stroke-width="2" points="396.749,-315.249 217.749,-315.249 205.749,-303.249 205.749,-291.249 217.749,-279.249 396.749,-279.249 408.749,-291.249 408.749,-303.249 396.749,-315.249"/>
<path fill="#3d50ff" stroke="#3d50ff" stroke-width="2" d="M217.749,-315.249C211.749,-315.249 205.749,-309.249 205.749,-303.249"/>
<path fill="#3d50ff" stroke="#3d50ff" stroke-width="2" d="M205.749,-291.249C205.749,-285.249 211.749,-279.249 217.749,-279.249"/>
<path fill="#3d50ff" stroke="#3d50ff" stroke-width="2" d="M396.749,-279.249C402.749,-279.249 408.749,-285.249 408.749,-291.249"/>
<path fill="#3d50ff" stroke="#3d50ff" stroke-width="2" d="M408.749,-303.249C408.749,-309.249 402.749,-315.249 396.749,-315.249"/>
<polyline fill="none" stroke="white" stroke-width="2" points="396.749,-315.249 217.749,-315.249 "/>
<path fill="none" stroke="white" stroke-width="2" d="M217.749,-315.249C211.749,-315.249 205.749,-309.249 205.749,-303.249"/>
<polyline fill="none" stroke="white" stroke-width="2" points="205.749,-303.249 205.749,-291.249 "/>
<path fill="none" stroke="white" stroke-width="2" d="M205.749,-291.249C205.749,-285.249 211.749,-279.249 217.749,-279.249"/>
<polyline fill="none" stroke="white" stroke-width="2" points="217.749,-279.249 396.749,-279.249 "/>
<path fill="none" stroke="white" stroke-width="2" d="M396.749,-279.249C402.749,-279.249 408.749,-285.249 408.749,-291.249"/>
<polyline fill="none" stroke="white" stroke-width="2" points="408.749,-291.249 408.749,-303.249 "/>
<path fill="none" stroke="white" stroke-width="2" d="M408.749,-303.249C408.749,-309.249 402.749,-315.249 396.749,-315.249"/>
<text text-anchor="middle" x="307.249" y="-294.749" font-family="Helvetica,sans-Serif" font-size="10.00" fill="white">YBX1_FOS_NFYC_NFYA_NFYB_CEBPZ</text>
</a>
</g>
<!-- GATA3&#45;&gt;YBX1_FOS_NFYC_NFYA_NFYB_CEBPZ -->
<g id="edge2" class="edge"><title>GATA3&#45;&gt;YBX1_FOS_NFYC_NFYA_NFYB_CEBPZ</title>
<a xlink:title="YBX1: 0.229||FOS: 0.161||NFYC: 0.063||remove29">
<path fill="none" stroke="#e5b0ff" stroke-width="3" d="M339.992,-240.538C334.566,-249.935 327.85,-261.568 321.914,-271.849"/>
<polygon fill="#e5b0ff" stroke="#e5b0ff" points="319.335,-270.715 317.76,-279.044 324.185,-273.516 319.335,-270.715"/>
</a>
</g>
<!-- MAFB -->
<g id="node4" class="node"><title>MAFB</title>
<a xlink:href="MAFB.svg" xlink:title="Z&#45;value: 0.960||remove35">
<polygon fill="#838fff" stroke="#838fff" stroke-width="2" points="247.425,-358.449 217.425,-358.449 205.425,-346.449 205.425,-334.449 217.425,-322.449 247.425,-322.449 259.425,-334.449 259.425,-346.449 247.425,-358.449"/>
<path fill="#838fff" stroke="#838fff" stroke-width="2" d="M217.425,-358.449C211.425,-358.449 205.425,-352.449 205.425,-346.449"/>
<path fill="#838fff" stroke="#838fff" stroke-width="2" d="M205.425,-334.449C205.425,-328.449 211.425,-322.449 217.425,-322.449"/>
<path fill="#838fff" stroke="#838fff" stroke-width="2" d="M247.425,-322.449C253.425,-322.449 259.425,-328.449 259.425,-334.449"/>
<path fill="#838fff" stroke="#838fff" stroke-width="2" d="M259.425,-346.449C259.425,-352.449 253.425,-358.449 247.425,-358.449"/>
<polyline fill="none" stroke="white" stroke-width="2" points="247.425,-358.449 217.425,-358.449 "/>
<path fill="none" stroke="white" stroke-width="2" d="M217.425,-358.449C211.425,-358.449 205.425,-352.449 205.425,-346.449"/>
<polyline fill="none" stroke="white" stroke-width="2" points="205.425,-346.449 205.425,-334.449 "/>
<path fill="none" stroke="white" stroke-width="2" d="M205.425,-334.449C205.425,-328.449 211.425,-322.449 217.425,-322.449"/>
<polyline fill="none" stroke="white" stroke-width="2" points="217.425,-322.449 247.425,-322.449 "/>
<path fill="none" stroke="white" stroke-width="2" d="M247.425,-322.449C253.425,-322.449 259.425,-328.449 259.425,-334.449"/>
<polyline fill="none" stroke="white" stroke-width="2" points="259.425,-334.449 259.425,-346.449 "/>
<path fill="none" stroke="white" stroke-width="2" d="M259.425,-346.449C259.425,-352.449 253.425,-358.449 247.425,-358.449"/>
<text text-anchor="middle" x="232.425" y="-337.949" font-family="Helvetica,sans-Serif" font-size="10.00">MAFB</text>
</a>
</g>
<!-- GATA3&#45;&gt;MAFB -->
<g id="edge4" class="edge"><title>GATA3&#45;&gt;MAFB</title>
<a xlink:title="MAFB: 0.149||remove28root">
<path fill="none" stroke="#e8baff" stroke-width="3" d="M323.169,-222.505C285.76,-224.269 219.687,-233.669 188.929,-276.369 178.081,-291.429 177.679,-303.367 188.929,-318.129 190.392,-320.049 191.927,-318.665 194.165,-319.569 195.419,-320.076 196.684,-320.614 197.953,-321.176"/>
<polygon fill="#e8baff" stroke="#e8baff" points="196.781,-323.718 205.209,-324.612 199.178,-318.657 196.781,-323.718"/>
</a>
</g>
<!-- ISL2 -->
<g id="node6" class="node"><title>ISL2</title>
<a xlink:href="ISL2.svg" xlink:title="Z&#45;value: 0.301||remove37">
<polygon fill="#ffb5b5" stroke="#ffb5b5" stroke-width="2" points="204.225,-197.225 174.225,-197.225 162.225,-185.225 162.225,-173.225 174.225,-161.225 204.225,-161.225 216.225,-173.225 216.225,-185.225 204.225,-197.225"/>
<path fill="#ffb5b5" stroke="#ffb5b5" stroke-width="2" d="M174.225,-197.225C168.225,-197.225 162.225,-191.225 162.225,-185.225"/>
<path fill="#ffb5b5" stroke="#ffb5b5" stroke-width="2" d="M162.225,-173.225C162.225,-167.225 168.225,-161.225 174.225,-161.225"/>
<path fill="#ffb5b5" stroke="#ffb5b5" stroke-width="2" d="M204.225,-161.225C210.225,-161.225 216.225,-167.225 216.225,-173.225"/>
<path fill="#ffb5b5" stroke="#ffb5b5" stroke-width="2" d="M216.225,-185.225C216.225,-191.225 210.225,-197.225 204.225,-197.225"/>
<polyline fill="none" stroke="white" stroke-width="2" points="204.225,-197.225 174.225,-197.225 "/>
<path fill="none" stroke="white" stroke-width="2" d="M174.225,-197.225C168.225,-197.225 162.225,-191.225 162.225,-185.225"/>
<polyline fill="none" stroke="white" stroke-width="2" points="162.225,-185.225 162.225,-173.225 "/>
<path fill="none" stroke="white" stroke-width="2" d="M162.225,-173.225C162.225,-167.225 168.225,-161.225 174.225,-161.225"/>
<polyline fill="none" stroke="white" stroke-width="2" points="174.225,-161.225 204.225,-161.225 "/>
<path fill="none" stroke="white" stroke-width="2" d="M204.225,-161.225C210.225,-161.225 216.225,-167.225 216.225,-173.225"/>
<polyline fill="none" stroke="white" stroke-width="2" points="216.225,-173.225 216.225,-185.225 "/>
<path fill="none" stroke="white" stroke-width="2" d="M216.225,-185.225C216.225,-191.225 210.225,-197.225 204.225,-197.225"/>
<text text-anchor="middle" x="189.225" y="-176.725" font-family="Helvetica,sans-Serif" font-size="10.00">ISL2</text>
</a>
</g>
<!-- GATA3&#45;&gt;ISL2 -->
<g id="edge6" class="edge"><title>GATA3&#45;&gt;ISL2</title>
<a xlink:title="ISL2: 0.340||remove36root">
<path fill="none" stroke="#a3acff" stroke-width="3" d="M323.1,-215.096C295.918,-207.813 254.113,-196.611 224.458,-188.665"/>
<polygon fill="#a3acff" stroke="#a3acff" points="224.891,-185.883 216.439,-186.517 223.441,-191.292 224.891,-185.883"/>
</a>
</g>
<!-- RCOR1_MTA3 -->
<g id="node8" class="node"><title>RCOR1_MTA3</title>
<a xlink:href="RCOR1_MTA3.svg" xlink:title="Z&#45;value: 1.731||remove32">
<polygon fill="#495bff" stroke="#495bff" stroke-width="2" points="175.275,-358.449 116.775,-358.449 104.775,-346.449 104.775,-334.449 116.775,-322.449 175.275,-322.449 187.275,-334.449 187.275,-346.449 175.275,-358.449"/>
<path fill="#495bff" stroke="#495bff" stroke-width="2" d="M116.775,-358.449C110.775,-358.449 104.775,-352.449 104.775,-346.449"/>
<path fill="#495bff" stroke="#495bff" stroke-width="2" d="M104.775,-334.449C104.775,-328.449 110.775,-322.449 116.775,-322.449"/>
<path fill="#495bff" stroke="#495bff" stroke-width="2" d="M175.275,-322.449C181.275,-322.449 187.275,-328.449 187.275,-334.449"/>
<path fill="#495bff" stroke="#495bff" stroke-width="2" d="M187.275,-346.449C187.275,-352.449 181.275,-358.449 175.275,-358.449"/>
<polyline fill="none" stroke="white" stroke-width="2" points="175.275,-358.449 116.775,-358.449 "/>
<path fill="none" stroke="white" stroke-width="2" d="M116.775,-358.449C110.775,-358.449 104.775,-352.449 104.775,-346.449"/>
<polyline fill="none" stroke="white" stroke-width="2" points="104.775,-346.449 104.775,-334.449 "/>
<path fill="none" stroke="white" stroke-width="2" d="M104.775,-334.449C104.775,-328.449 110.775,-322.449 116.775,-322.449"/>
<polyline fill="none" stroke="white" stroke-width="2" points="116.775,-322.449 175.275,-322.449 "/>
<path fill="none" stroke="white" stroke-width="2" d="M175.275,-322.449C181.275,-322.449 187.275,-328.449 187.275,-334.449"/>
<polyline fill="none" stroke="white" stroke-width="2" points="187.275,-334.449 187.275,-346.449 "/>
<path fill="none" stroke="white" stroke-width="2" d="M187.275,-346.449C187.275,-352.449 181.275,-358.449 175.275,-358.449"/>
<text text-anchor="middle" x="146.025" y="-337.949" font-family="Helvetica,sans-Serif" font-size="10.00" fill="white">RCOR1_MTA3</text>
</a>
</g>
<!-- GATA3&#45;&gt;RCOR1_MTA3 -->
<g id="edge8" class="edge"><title>GATA3&#45;&gt;RCOR1_MTA3</title>
<a xlink:title="RCOR1: 0.161||remove30root">
<path fill="none" stroke="#e8b8ff" stroke-width="3" d="M323.348,-225.978C289.063,-231.621 229.597,-245.352 188.929,-276.369 175.759,-286.414 165.297,-301.716 158.003,-314.848"/>
<polygon fill="#e8b8ff" stroke="#e8b8ff" points="155.341,-313.892 154.078,-322.273 160.292,-316.51 155.341,-313.892"/>
</a>
</g>
<!-- EN1_ESX1_GBX1 -->
<g id="node10" class="node"><title>EN1_ESX1_GBX1</title>
<a xlink:href="EN1_ESX1_GBX1.svg" xlink:title="Z&#45;value: 0.484||remove26">
<polygon fill="#a7b0ff" stroke="#a7b0ff" stroke-width="2" points="107.7,-315.249 34.7,-315.249 22.7,-303.249 22.7,-291.249 34.7,-279.249 107.7,-279.249 119.7,-291.249 119.7,-303.249 107.7,-315.249"/>
<path fill="#a7b0ff" stroke="#a7b0ff" stroke-width="2" d="M34.7,-315.249C28.7,-315.249 22.7,-309.249 22.7,-303.249"/>
<path fill="#a7b0ff" stroke="#a7b0ff" stroke-width="2" d="M22.7,-291.249C22.7,-285.249 28.7,-279.249 34.7,-279.249"/>
<path fill="#a7b0ff" stroke="#a7b0ff" stroke-width="2" d="M107.7,-279.249C113.7,-279.249 119.7,-285.249 119.7,-291.249"/>
<path fill="#a7b0ff" stroke="#a7b0ff" stroke-width="2" d="M119.7,-303.249C119.7,-309.249 113.7,-315.249 107.7,-315.249"/>
<polyline fill="none" stroke="white" stroke-width="2" points="107.7,-315.249 34.7,-315.249 "/>
<path fill="none" stroke="white" stroke-width="2" d="M34.7,-315.249C28.7,-315.249 22.7,-309.249 22.7,-303.249"/>
<polyline fill="none" stroke="white" stroke-width="2" points="22.7,-303.249 22.7,-291.249 "/>
<path fill="none" stroke="white" stroke-width="2" d="M22.7,-291.249C22.7,-285.249 28.7,-279.249 34.7,-279.249"/>
<polyline fill="none" stroke="white" stroke-width="2" points="34.7,-279.249 107.7,-279.249 "/>
<path fill="none" stroke="white" stroke-width="2" d="M107.7,-279.249C113.7,-279.249 119.7,-285.249 119.7,-291.249"/>
<polyline fill="none" stroke="white" stroke-width="2" points="119.7,-291.249 119.7,-303.249 "/>
<path fill="none" stroke="white" stroke-width="2" d="M119.7,-303.249C119.7,-309.249 113.7,-315.249 107.7,-315.249"/>
<text text-anchor="middle" x="71.2" y="-294.749" font-family="Helvetica,sans-Serif" font-size="10.00">EN1_ESX1_GBX1</text>
</a>
</g>
<!-- GATA3&#45;&gt;EN1_ESX1_GBX1 -->
<g id="edge10" class="edge"><title>GATA3&#45;&gt;EN1_ESX1_GBX1</title>
<a xlink:title="GBX1: 0.055||remove14root">
<path fill="none" stroke="#ecc5ff" stroke-width="3" d="M323.42,-229.667C278.554,-241.689 187.76,-266.017 128.233,-281.967"/>
<polygon fill="#ecc5ff" stroke="#ecc5ff" points="127.414,-279.288 120.412,-284.063 128.864,-284.697 127.414,-279.288"/>
</a>
</g>
<!-- RREB1 -->
<g id="node12" class="node"><title>RREB1</title>
<a xlink:href="RREB1.svg" xlink:title="Z&#45;value: 0.513||remove24">
<polygon fill="#a5aeff" stroke="#a5aeff" stroke-width="2" points="43,-240.425 13,-240.425 1,-228.425 1,-216.425 13,-204.425 43,-204.425 55,-216.425 55,-228.425 43,-240.425"/>
<path fill="#a5aeff" stroke="#a5aeff" stroke-width="2" d="M13,-240.425C7,-240.425 1,-234.425 1,-228.425"/>
<path fill="#a5aeff" stroke="#a5aeff" stroke-width="2" d="M1,-216.425C1,-210.425 7,-204.425 13,-204.425"/>
<path fill="#a5aeff" stroke="#a5aeff" stroke-width="2" d="M43,-204.425C49,-204.425 55,-210.425 55,-216.425"/>
<path fill="#a5aeff" stroke="#a5aeff" stroke-width="2" d="M55,-228.425C55,-234.425 49,-240.425 43,-240.425"/>
<polyline fill="none" stroke="white" stroke-width="2" points="43,-240.425 13,-240.425 "/>
<path fill="none" stroke="white" stroke-width="2" d="M13,-240.425C7,-240.425 1,-234.425 1,-228.425"/>
<polyline fill="none" stroke="white" stroke-width="2" points="1,-228.425 1,-216.425 "/>
<path fill="none" stroke="white" stroke-width="2" d="M1,-216.425C1,-210.425 7,-204.425 13,-204.425"/>
<polyline fill="none" stroke="white" stroke-width="2" points="13,-204.425 43,-204.425 "/>
<path fill="none" stroke="white" stroke-width="2" d="M43,-204.425C49,-204.425 55,-210.425 55,-216.425"/>
<polyline fill="none" stroke="white" stroke-width="2" points="55,-216.425 55,-228.425 "/>
<path fill="none" stroke="white" stroke-width="2" d="M55,-228.425C55,-234.425 49,-240.425 43,-240.425"/>
<text text-anchor="middle" x="28" y="-219.925" font-family="Helvetica,sans-Serif" font-size="10.00">RREB1</text>
</a>
</g>
<!-- GATA3&#45;&gt;RREB1 -->
<g id="edge12" class="edge"><title>GATA3&#45;&gt;RREB1</title>
<a xlink:title="RREB1: 0.208||remove24">
<path fill="none" stroke="#e6b3ff" stroke-width="3" d="M323.235,-222.425C264.967,-222.425 128.178,-222.425 63.3154,-222.425"/>
<polygon fill="#e6b3ff" stroke="#e6b3ff" points="63.0274,-219.625 55.0274,-222.425 63.0273,-225.225 63.0274,-219.625"/>
</a>
</g>
<!-- YBX1_FOS_NFYC_NFYA_NFYB_CEBPZ&#45;&gt;YBX1_FOS_NFYC_NFYA_NFYB_CEBPZ -->
<g id="edge14" class="edge"><title>YBX1_FOS_NFYC_NFYA_NFYB_CEBPZ&#45;&gt;YBX1_FOS_NFYC_NFYA_NFYB_CEBPZ</title>
<a xlink:title="NFYC: 1.015||remove29">
<path fill="none" stroke="#c752ff" stroke-width="3" d="M408.814,-302.842C419.44,-301.75 426.249,-299.886 426.249,-297.249 426.249,-295.354 422.732,-293.858 416.807,-292.761"/>
<polygon fill="#c752ff" stroke="#c752ff" points="417.122,-289.978 408.814,-291.656 416.355,-295.525 417.122,-289.978"/>
</a>
</g>
<!-- YBX1_FOS_NFYC_NFYA_NFYB_CEBPZ&#45;&gt;ISL2 -->
<g id="edge16" class="edge"><title>YBX1_FOS_NFYC_NFYA_NFYB_CEBPZ&#45;&gt;ISL2</title>
<a xlink:title="ISL2: 0.161||remove29root">
<path fill="none" stroke="#b8bfff" stroke-width="3" d="M289.067,-279.067C268.648,-258.648 235.437,-225.437 212.98,-202.98"/>
<polygon fill="#b8bfff" stroke="#b8bfff" points="214.871,-200.911 207.234,-197.234 210.911,-204.871 214.871,-200.911"/>
</a>
</g>
<!-- YBX1_FOS_NFYC_NFYA_NFYB_CEBPZ&#45;&gt;RCOR1_MTA3 -->
<g id="edge18" class="edge"><title>YBX1_FOS_NFYC_NFYA_NFYB_CEBPZ&#45;&gt;RCOR1_MTA3</title>
<a xlink:title="RCOR1: 0.148||NFYB: 0.666||NFYC: 0.172||YBX1: 0.144||remove29">
<path fill="none" stroke="#e9baff" stroke-width="3" d="M209.069,-318.355C206.478,-319.064 203.907,-319.791 201.386,-320.529 199.423,-321.103 197.418,-321.72 195.411,-322.361"/>
<path fill="none" stroke="#d57cff" stroke-width="3" d="M208.541,-316.426C205.934,-317.14 203.363,-317.866 200.824,-318.609 198.836,-319.192 196.831,-319.808 194.802,-320.456"/>
<polygon fill="#d57cff" stroke="#d57cff" points="209.664,-320.06 216.678,-315.301 208.227,-314.647 209.664,-320.06"/>
<polygon fill="#e9baff" stroke="#e9baff" points="193.996,-318.828 187.295,-324.018 195.77,-324.139 193.996,-318.828"/>
</a>
</g>
<!-- YBX1_FOS_NFYC_NFYA_NFYB_CEBPZ&#45;&gt;EN1_ESX1_GBX1 -->
<g id="edge22" class="edge"><title>YBX1_FOS_NFYC_NFYA_NFYB_CEBPZ&#45;&gt;EN1_ESX1_GBX1</title>
<a xlink:title="EN1: 0.146||remove26">
<path fill="none" stroke="#e9baff" stroke-width="3" d="M205.43,-297.249C178.865,-297.249 151.184,-297.249 127.907,-297.249"/>
<polygon fill="#e9baff" stroke="#e9baff" points="127.867,-294.449 119.867,-297.249 127.867,-300.049 127.867,-294.449"/>
</a>
</g>
<!-- BARHL1 -->
<g id="node17" class="node"><title>BARHL1</title>
<a xlink:href="BARHL1.svg" xlink:title="Z&#45;value: 1.014||remove20">
<polygon fill="#7f8cff" stroke="#7f8cff" stroke-width="2" points="43.5,-154.025 12.5,-154.025 0.5,-142.025 0.5,-130.025 12.5,-118.025 43.5,-118.025 55.5,-130.025 55.5,-142.025 43.5,-154.025"/>
<path fill="#7f8cff" stroke="#7f8cff" stroke-width="2" d="M12.5,-154.025C6.5,-154.025 0.5,-148.025 0.5,-142.025"/>
<path fill="#7f8cff" stroke="#7f8cff" stroke-width="2" d="M0.5,-130.025C0.5,-124.025 6.5,-118.025 12.5,-118.025"/>
<path fill="#7f8cff" stroke="#7f8cff" stroke-width="2" d="M43.5,-118.025C49.5,-118.025 55.5,-124.025 55.5,-130.025"/>
<path fill="#7f8cff" stroke="#7f8cff" stroke-width="2" d="M55.5,-142.025C55.5,-148.025 49.5,-154.025 43.5,-154.025"/>
<polyline fill="none" stroke="white" stroke-width="2" points="43.5,-154.025 12.5,-154.025 "/>
<path fill="none" stroke="white" stroke-width="2" d="M12.5,-154.025C6.5,-154.025 0.5,-148.025 0.5,-142.025"/>
<polyline fill="none" stroke="white" stroke-width="2" points="0.5,-142.025 0.5,-130.025 "/>
<path fill="none" stroke="white" stroke-width="2" d="M0.5,-130.025C0.5,-124.025 6.5,-118.025 12.5,-118.025"/>
<polyline fill="none" stroke="white" stroke-width="2" points="12.5,-118.025 43.5,-118.025 "/>
<path fill="none" stroke="white" stroke-width="2" d="M43.5,-118.025C49.5,-118.025 55.5,-124.025 55.5,-130.025"/>
<polyline fill="none" stroke="white" stroke-width="2" points="55.5,-130.025 55.5,-142.025 "/>
<path fill="none" stroke="white" stroke-width="2" d="M55.5,-142.025C55.5,-148.025 49.5,-154.025 43.5,-154.025"/>
<text text-anchor="middle" x="28" y="-133.525" font-family="Helvetica,sans-Serif" font-size="10.00">BARHL1</text>
</a>
</g>
<!-- YBX1_FOS_NFYC_NFYA_NFYB_CEBPZ&#45;&gt;BARHL1 -->
<g id="edge20" class="edge"><title>YBX1_FOS_NFYC_NFYA_NFYB_CEBPZ&#45;&gt;BARHL1</title>
<a xlink:title="BARHL1: 0.151||NFYC: 0.032||remove20">
<path fill="none" stroke="#e8b9ff" stroke-width="3" d="M268.503,-276.034C214.153,-244.655 115.342,-187.606 62.7079,-157.218"/>
<path fill="none" stroke="#edc8ff" stroke-width="3" d="M269.503,-274.301C215.153,-242.922 116.342,-185.874 63.7079,-155.486"/>
<polygon fill="#edc8ff" stroke="#edc8ff" points="267.7,-277.649 276.029,-279.224 270.5,-272.799 267.7,-277.649"/>
<polygon fill="#e8b9ff" stroke="#e8b9ff" points="64.4251,-153.822 56.0969,-152.246 61.6251,-158.671 64.4251,-153.822"/>
</a>
</g>
<!-- MAZ_ZNF281_GTF2F1 -->
<g id="node20" class="node"><title>MAZ_ZNF281_GTF2F1</title>
<a xlink:href="MAZ_ZNF281_GTF2F1.svg" xlink:title="Z&#45;value: 1.186||remove13">
<polygon fill="#7280ff" stroke="#7280ff" stroke-width="2" points="118.45,-79.2 23.95,-79.2 11.95,-67.2 11.95,-55.2 23.95,-43.2 118.45,-43.2 130.45,-55.2 130.45,-67.2 118.45,-79.2"/>
<path fill="#7280ff" stroke="#7280ff" stroke-width="2" d="M23.95,-79.2C17.95,-79.2 11.95,-73.2 11.95,-67.2"/>
<path fill="#7280ff" stroke="#7280ff" stroke-width="2" d="M11.95,-55.2C11.95,-49.2 17.95,-43.2 23.95,-43.2"/>
<path fill="#7280ff" stroke="#7280ff" stroke-width="2" d="M118.45,-43.2C124.45,-43.2 130.45,-49.2 130.45,-55.2"/>
<path fill="#7280ff" stroke="#7280ff" stroke-width="2" d="M130.45,-67.2C130.45,-73.2 124.45,-79.2 118.45,-79.2"/>
<polyline fill="none" stroke="white" stroke-width="2" points="118.45,-79.2 23.95,-79.2 "/>
<path fill="none" stroke="white" stroke-width="2" d="M23.95,-79.2C17.95,-79.2 11.95,-73.2 11.95,-67.2"/>
<polyline fill="none" stroke="white" stroke-width="2" points="11.95,-67.2 11.95,-55.2 "/>
<path fill="none" stroke="white" stroke-width="2" d="M11.95,-55.2C11.95,-49.2 17.95,-43.2 23.95,-43.2"/>
<polyline fill="none" stroke="white" stroke-width="2" points="23.95,-43.2 118.45,-43.2 "/>
<path fill="none" stroke="white" stroke-width="2" d="M118.45,-43.2C124.45,-43.2 130.45,-49.2 130.45,-55.2"/>
<polyline fill="none" stroke="white" stroke-width="2" points="130.45,-55.2 130.45,-67.2 "/>
<path fill="none" stroke="white" stroke-width="2" d="M130.45,-67.2C130.45,-73.2 124.45,-79.2 118.45,-79.2"/>
<text text-anchor="middle" x="71.2" y="-58.7" font-family="Helvetica,sans-Serif" font-size="10.00" fill="white">MAZ_ZNF281_GTF2F1</text>
</a>
</g>
<!-- YBX1_FOS_NFYC_NFYA_NFYB_CEBPZ&#45;&gt;MAZ_ZNF281_GTF2F1 -->
<g id="edge24" class="edge"><title>YBX1_FOS_NFYC_NFYA_NFYB_CEBPZ&#45;&gt;MAZ_ZNF281_GTF2F1</title>
<a xlink:title="ZNF281: 0.017||YBX1: 0.087||NFYB: 0.047||FOS: 0.027||NFYC: 0.013||remove13">
<path fill="none" stroke="#eec9ff" stroke-width="3" d="M262.364,-276.009C230.514,-258.628 188.065,-232.221 157.191,-200.805 123.576,-166.502 96.6911,-117.337 82.1377,-87.5184"/>
<path fill="none" stroke="#ebc1ff" stroke-width="3" d="M263.322,-274.254C231.57,-256.93 189.121,-230.523 158.618,-199.404 125.331,-165.543 98.4458,-116.377 83.9351,-86.6413"/>
<polygon fill="#ebc1ff" stroke="#ebc1ff" points="261.902,-277.805 270.274,-279.128 264.554,-272.873 261.902,-277.805"/>
<polygon fill="#eec9ff" stroke="#eec9ff" points="85.426,-85.5874 79.4407,-79.5861 80.3771,-88.01 85.426,-85.5874"/>
</a>
</g>
<!-- TBP -->
<g id="node22" class="node"><title>TBP</title>
<a xlink:href="TBP.svg" xlink:title="Z&#45;value: 0.658||remove27">
<polygon fill="#9aa4ff" stroke="#9aa4ff" stroke-width="2" points="161.025,-36 131.025,-36 119.025,-24 119.025,-12 131.025,-6.39488e-14 161.025,-6.39488e-14 173.025,-12 173.025,-24 161.025,-36"/>
<path fill="#9aa4ff" stroke="#9aa4ff" stroke-width="2" d="M131.025,-36C125.025,-36 119.025,-30 119.025,-24"/>
<path fill="#9aa4ff" stroke="#9aa4ff" stroke-width="2" d="M119.025,-12C119.025,-6 125.025,-6.39488e-14 131.025,-6.39488e-14"/>
<path fill="#9aa4ff" stroke="#9aa4ff" stroke-width="2" d="M161.025,-6.39488e-14C167.025,-6.39488e-14 173.025,-6 173.025,-12"/>
<path fill="#9aa4ff" stroke="#9aa4ff" stroke-width="2" d="M173.025,-24C173.025,-30 167.025,-36 161.025,-36"/>
<polyline fill="none" stroke="white" stroke-width="2" points="161.025,-36 131.025,-36 "/>
<path fill="none" stroke="white" stroke-width="2" d="M131.025,-36C125.025,-36 119.025,-30 119.025,-24"/>
<polyline fill="none" stroke="white" stroke-width="2" points="119.025,-24 119.025,-12 "/>
<path fill="none" stroke="white" stroke-width="2" d="M119.025,-12C119.025,-6 125.025,-6.39488e-14 131.025,-6.39488e-14"/>
<polyline fill="none" stroke="white" stroke-width="2" points="131.025,-6.39488e-14 161.025,-6.39488e-14 "/>
<path fill="none" stroke="white" stroke-width="2" d="M161.025,-6.39488e-14C167.025,-6.39488e-14 173.025,-6 173.025,-12"/>
<polyline fill="none" stroke="white" stroke-width="2" points="173.025,-12 173.025,-24 "/>
<path fill="none" stroke="white" stroke-width="2" d="M173.025,-24C173.025,-30 167.025,-36 161.025,-36"/>
<text text-anchor="middle" x="146.025" y="-15.5" font-family="Helvetica,sans-Serif" font-size="10.00">TBP</text>
</a>
</g>
<!-- YBX1_FOS_NFYC_NFYA_NFYB_CEBPZ&#45;&gt;TBP -->
<g id="edge26" class="edge"><title>YBX1_FOS_NFYC_NFYA_NFYB_CEBPZ&#45;&gt;TBP</title>
<a xlink:title="TBP: 0.021||FOS: 0.002||remove6root">
<path fill="none" stroke="#edc9ff" stroke-width="3" d="M291.747,-272.399C261.028,-219.191 190.151,-96.4286 159.601,-43.515"/>
<path fill="none" stroke="#eecbff" stroke-width="3" d="M293.479,-271.399C262.76,-218.191 191.883,-95.4286 161.333,-42.515"/>
<polygon fill="#eecbff" stroke="#eecbff" points="290.246,-273.399 296.671,-278.927 295.096,-270.599 290.246,-273.399"/>
<polygon fill="#edc9ff" stroke="#edc9ff" points="162.857,-41.555 156.432,-36.0268 158.008,-44.355 162.857,-41.555"/>
</a>
</g>
<!-- MAFB&#45;&gt;YBX1_FOS_NFYC_NFYA_NFYB_CEBPZ -->
<g id="edge28" class="edge"><title>MAFB&#45;&gt;YBX1_FOS_NFYC_NFYA_NFYB_CEBPZ</title>
<a xlink:title="YBX1: 0.108||remove21root">
<path fill="none" stroke="#eabfff" stroke-width="3" d="M259.438,-324.853C262.536,-323.065 265.737,-321.216 268.946,-319.363"/>
<polygon fill="#eabfff" stroke="#eabfff" points="270.422,-321.745 275.95,-315.32 267.622,-316.895 270.422,-321.745"/>
</a>
</g>
<!-- MAFB&#45;&gt;MAFB -->
<g id="edge30" class="edge"><title>MAFB&#45;&gt;MAFB</title>
<a xlink:title="MAFB: 0.024||remove7root">
<path fill="none" stroke="#edc9ff" stroke-width="3" d="M259.665,-347.193C269.449,-347.338 277.425,-345.09 277.425,-340.449 277.425,-337.186 273.481,-335.106 267.739,-334.209"/>
<polygon fill="#edc9ff" stroke="#edc9ff" points="267.824,-331.409 259.665,-333.706 267.476,-336.998 267.824,-331.409"/>
</a>
</g>
<!-- MAFB&#45;&gt;ISL2 -->
<g id="edge32" class="edge"><title>MAFB&#45;&gt;ISL2</title>
<a xlink:title="ISL2: 0.247||remove35root">
<path fill="none" stroke="#aeb6ff" stroke-width="3" d="M205.209,-324.612C201.558,-322.78 197.813,-321.043 194.165,-319.569 191.927,-318.665 190.392,-320.049 188.929,-318.129 164.345,-285.87 172.191,-236.043 180.466,-205.656"/>
<polygon fill="#aeb6ff" stroke="#aeb6ff" points="183.254,-206.095 182.785,-197.632 177.874,-204.54 183.254,-206.095"/>
</a>
</g>
<!-- MAFB&#45;&gt;RCOR1_MTA3 -->
<g id="edge34" class="edge"><title>MAFB&#45;&gt;RCOR1_MTA3</title>
<a xlink:title="RCOR1: 0.120||MTA3: 0.034||remove23root">
<path fill="none" stroke="#eabdff" stroke-width="3" d="M205.087,-340.449C202.005,-340.449 198.798,-340.449 195.541,-340.449"/>
<polygon fill="#eabdff" stroke="#eabdff" points="195.39,-337.649 187.39,-340.449 195.39,-343.249 195.39,-337.649"/>
</a>
</g>
<!-- MAFB&#45;&gt;EN1_ESX1_GBX1 -->
<g id="edge36" class="edge"><title>MAFB&#45;&gt;EN1_ESX1_GBX1</title>
<a xlink:title="EN1: 0.035||remove12root">
<path fill="none" stroke="#edc7ff" stroke-width="3" d="M205.327,-324.301C201.656,-322.52 197.875,-320.88 194.165,-319.569 187.643,-317.265 157.111,-311.719 128.106,-306.732"/>
<polygon fill="#edc7ff" stroke="#edc7ff" points="128.344,-303.932 119.986,-305.343 127.4,-309.452 128.344,-303.932"/>
</a>
</g>
<!-- MAFB&#45;&gt;RREB1 -->
<g id="edge38" class="edge"><title>MAFB&#45;&gt;RREB1</title>
<a xlink:title="RREB1: 0.067||remove17root">
<path fill="none" stroke="#ecc3ff" stroke-width="3" d="M205.209,-324.612C201.558,-322.78 197.813,-321.043 194.165,-319.569 191.927,-318.665 191.118,-319.146 188.929,-318.129 159.167,-304.307 156.052,-293.461 128.04,-276.369 106.681,-263.337 81.9376,-249.98 62.4023,-239.818"/>
<polygon fill="#ecc3ff" stroke="#ecc3ff" points="63.5803,-237.275 55.1881,-236.087 61.0077,-242.249 63.5803,-237.275"/>
</a>
</g>
<!-- RCOR1_MTA3&#45;&gt;ISL2 -->
<g id="edge44" class="edge"><title>RCOR1_MTA3&#45;&gt;ISL2</title>
<a xlink:title="ISL2: 0.178||remove32root">
<path fill="none" stroke="#b6bdff" stroke-width="3" d="M150.896,-322.268C158.545,-293.723 173.404,-238.267 182.206,-205.42"/>
<polygon fill="#b6bdff" stroke="#b6bdff" points="184.938,-206.039 184.305,-197.587 179.529,-204.589 184.938,-206.039"/>
</a>
</g>
<!-- RCOR1_MTA3&#45;&gt;RCOR1_MTA3 -->
<g id="edge46" class="edge"><title>RCOR1_MTA3&#45;&gt;RCOR1_MTA3</title>
<a xlink:title="RCOR1: 1.276||remove32">
<path fill="none" stroke="#bd32ff" stroke-width="3" d="M187.379,-347.094C197.496,-346.602 205.025,-344.387 205.025,-340.449 205.025,-337.681 201.303,-335.764 195.576,-334.699"/>
<polygon fill="#bd32ff" stroke="#bd32ff" points="195.636,-331.889 187.379,-333.805 195.029,-337.456 195.636,-331.889"/>
</a>
</g>
<!-- RCOR1_MTA3&#45;&gt;EN1_ESX1_GBX1 -->
<g id="edge50" class="edge"><title>RCOR1_MTA3&#45;&gt;EN1_ESX1_GBX1</title>
<a xlink:title="EN1: 0.281||ESX1: 0.144||GBX1: 0.044||remove26">
<path fill="none" stroke="#e3aaff" stroke-width="3" d="M114.726,-322.379C113.099,-321.44 111.456,-320.491 109.81,-319.541"/>
<polygon fill="#e3aaff" stroke="#e3aaff" points="110.942,-316.961 102.614,-315.386 108.142,-321.811 110.942,-316.961"/>
</a>
</g>
<!-- RCOR1_MTA3&#45;&gt;BARHL1 -->
<g id="edge48" class="edge"><title>RCOR1_MTA3&#45;&gt;BARHL1</title>
<a xlink:title="BARHL1: 0.060||remove15root">
<path fill="none" stroke="#ecc4ff" stroke-width="3" d="M142.656,-322.17C139.816,-309.011 135.074,-291.065 128.04,-276.369 106.959,-232.33 72.1091,-187.414 49.6067,-160.63"/>
<polygon fill="#ecc4ff" stroke="#ecc4ff" points="51.4796,-158.51 44.1677,-154.223 47.2104,-162.134 51.4796,-158.51"/>
</a>
</g>
<!-- RCOR1_MTA3&#45;&gt;MAZ_ZNF281_GTF2F1 -->
<g id="edge52" class="edge"><title>RCOR1_MTA3&#45;&gt;MAZ_ZNF281_GTF2F1</title>
<a xlink:title="MAZ: 0.067||RCOR1: 0.132||MTA3: 0.104||remove13">
<path fill="none" stroke="#ecc4ff" stroke-width="3" d="M137.99,-314.326C123.672,-260.893 91.4043,-140.467 77.1858,-87.4031"/>
<path fill="none" stroke="#e9bcff" stroke-width="3" d="M139.921,-313.808C125.604,-260.376 93.3361,-139.949 79.1177,-86.8854"/>
<polygon fill="#e9bcff" stroke="#e9bcff" points="136.34,-315.124 141.115,-322.127 141.749,-313.675 136.34,-315.124"/>
<polygon fill="#ecc4ff" stroke="#ecc4ff" points="80.8055,-86.2294 76.0303,-79.2268 75.3963,-87.6789 80.8055,-86.2294"/>
</a>
</g>
<!-- PAX5 -->
<g id="node30" class="node"><title>PAX5</title>
<a xlink:href="PAX5.svg" xlink:title="Z&#45;value: 1.037||remove19">
<polygon fill="#7d8aff" stroke="#7d8aff" stroke-width="2" points="247.425,-36 217.425,-36 205.425,-24 205.425,-12 217.425,-0 247.425,-0 259.425,-12 259.425,-24 247.425,-36"/>
<path fill="#7d8aff" stroke="#7d8aff" stroke-width="2" d="M217.425,-36C211.425,-36 205.425,-30 205.425,-24"/>
<path fill="#7d8aff" stroke="#7d8aff" stroke-width="2" d="M205.425,-12C205.425,-6 211.425,-0 217.425,-0"/>
<path fill="#7d8aff" stroke="#7d8aff" stroke-width="2" d="M247.425,-0C253.425,-0 259.425,-6 259.425,-12"/>
<path fill="#7d8aff" stroke="#7d8aff" stroke-width="2" d="M259.425,-24C259.425,-30 253.425,-36 247.425,-36"/>
<polyline fill="none" stroke="white" stroke-width="2" points="247.425,-36 217.425,-36 "/>
<path fill="none" stroke="white" stroke-width="2" d="M217.425,-36C211.425,-36 205.425,-30 205.425,-24"/>
<polyline fill="none" stroke="white" stroke-width="2" points="205.425,-24 205.425,-12 "/>
<path fill="none" stroke="white" stroke-width="2" d="M205.425,-12C205.425,-6 211.425,-0 217.425,-0"/>
<polyline fill="none" stroke="white" stroke-width="2" points="217.425,-0 247.425,-0 "/>
<path fill="none" stroke="white" stroke-width="2" d="M247.425,-0C253.425,-0 259.425,-6 259.425,-12"/>
<polyline fill="none" stroke="white" stroke-width="2" points="259.425,-12 259.425,-24 "/>
<path fill="none" stroke="white" stroke-width="2" d="M259.425,-24C259.425,-30 253.425,-36 247.425,-36"/>
<text text-anchor="middle" x="232.425" y="-15.5" font-family="Helvetica,sans-Serif" font-size="10.00">PAX5</text>
</a>
</g>
<!-- RCOR1_MTA3&#45;&gt;PAX5 -->
<g id="edge40" class="edge"><title>RCOR1_MTA3&#45;&gt;PAX5</title>
<a xlink:title="PAX5: 0.228||MTA3: 0.033||remove19">
<path fill="none" stroke="#e5b0ff" stroke-width="3" d="M162.858,-314.657C180.722,-287.633 207.443,-242.713 219.583,-199.831 234.805,-146.355 234.678,-80.237 233.122,-44.343"/>
<path fill="none" stroke="#edc8ff" stroke-width="3" d="M164.526,-315.76C182.441,-288.655 209.162,-243.735 221.507,-200.378 236.805,-146.351 236.678,-80.2331 235.121,-44.2564"/>
<polygon fill="#edc8ff" stroke="#edc8ff" points="161.253,-313.818 159.124,-322.023 165.905,-316.936 161.253,-313.818"/>
<polygon fill="#e5b0ff" stroke="#e5b0ff" points="236.916,-44.1139 233.727,-36.2609 231.323,-44.3886 236.916,-44.1139"/>
</a>
</g>
<!-- BARHL2 -->
<g id="node32" class="node"><title>BARHL2</title>
<a xlink:href="BARHL2.svg" xlink:title="Z&#45;value: 0.750||remove34">
<polygon fill="#939eff" stroke="#939eff" stroke-width="2" points="322.749,-79.2 291.749,-79.2 279.749,-67.2 279.749,-55.2 291.749,-43.2 322.749,-43.2 334.749,-55.2 334.749,-67.2 322.749,-79.2"/>
<path fill="#939eff" stroke="#939eff" stroke-width="2" d="M291.749,-79.2C285.749,-79.2 279.749,-73.2 279.749,-67.2"/>
<path fill="#939eff" stroke="#939eff" stroke-width="2" d="M279.749,-55.2C279.749,-49.2 285.749,-43.2 291.749,-43.2"/>
<path fill="#939eff" stroke="#939eff" stroke-width="2" d="M322.749,-43.2C328.749,-43.2 334.749,-49.2 334.749,-55.2"/>
<path fill="#939eff" stroke="#939eff" stroke-width="2" d="M334.749,-67.2C334.749,-73.2 328.749,-79.2 322.749,-79.2"/>
<polyline fill="none" stroke="white" stroke-width="2" points="322.749,-79.2 291.749,-79.2 "/>
<path fill="none" stroke="white" stroke-width="2" d="M291.749,-79.2C285.749,-79.2 279.749,-73.2 279.749,-67.2"/>
<polyline fill="none" stroke="white" stroke-width="2" points="279.749,-67.2 279.749,-55.2 "/>
<path fill="none" stroke="white" stroke-width="2" d="M279.749,-55.2C279.749,-49.2 285.749,-43.2 291.749,-43.2"/>
<polyline fill="none" stroke="white" stroke-width="2" points="291.749,-43.2 322.749,-43.2 "/>
<path fill="none" stroke="white" stroke-width="2" d="M322.749,-43.2C328.749,-43.2 334.749,-49.2 334.749,-55.2"/>
<polyline fill="none" stroke="white" stroke-width="2" points="334.749,-55.2 334.749,-67.2 "/>
<path fill="none" stroke="white" stroke-width="2" d="M334.749,-67.2C334.749,-73.2 328.749,-79.2 322.749,-79.2"/>
<text text-anchor="middle" x="307.249" y="-58.7" font-family="Helvetica,sans-Serif" font-size="10.00">BARHL2</text>
</a>
</g>
<!-- RCOR1_MTA3&#45;&gt;BARHL2 -->
<g id="edge42" class="edge"><title>RCOR1_MTA3&#45;&gt;BARHL2</title>
<a xlink:title="BARHL2: 0.112||remove22root">
<path fill="none" stroke="#eabeff" stroke-width="3" d="M156.603,-322.127C184.628,-273.587 260.825,-141.61 292.809,-86.211"/>
<polygon fill="#eabeff" stroke="#eabeff" points="295.266,-87.555 296.841,-79.2268 290.417,-84.755 295.266,-87.555"/>
</a>
</g>
<!-- SOX9 -->
<g id="node39" class="node"><title>SOX9</title>
<a xlink:href="SOX9.svg" xlink:title="Z&#45;value: 0.680||remove33">
<polygon fill="#98a2ff" stroke="#98a2ff" stroke-width="2" points="365.449,-154.025 335.449,-154.025 323.449,-142.025 323.449,-130.025 335.449,-118.025 365.449,-118.025 377.449,-130.025 377.449,-142.025 365.449,-154.025"/>
<path fill="#98a2ff" stroke="#98a2ff" stroke-width="2" d="M335.449,-154.025C329.449,-154.025 323.449,-148.025 323.449,-142.025"/>
<path fill="#98a2ff" stroke="#98a2ff" stroke-width="2" d="M323.449,-130.025C323.449,-124.025 329.449,-118.025 335.449,-118.025"/>
<path fill="#98a2ff" stroke="#98a2ff" stroke-width="2" d="M365.449,-118.025C371.449,-118.025 377.449,-124.025 377.449,-130.025"/>
<path fill="#98a2ff" stroke="#98a2ff" stroke-width="2" d="M377.449,-142.025C377.449,-148.025 371.449,-154.025 365.449,-154.025"/>
<polyline fill="none" stroke="white" stroke-width="2" points="365.449,-154.025 335.449,-154.025 "/>
<path fill="none" stroke="white" stroke-width="2" d="M335.449,-154.025C329.449,-154.025 323.449,-148.025 323.449,-142.025"/>
<polyline fill="none" stroke="white" stroke-width="2" points="323.449,-142.025 323.449,-130.025 "/>
<path fill="none" stroke="white" stroke-width="2" d="M323.449,-130.025C323.449,-124.025 329.449,-118.025 335.449,-118.025"/>
<polyline fill="none" stroke="white" stroke-width="2" points="335.449,-118.025 365.449,-118.025 "/>
<path fill="none" stroke="white" stroke-width="2" d="M365.449,-118.025C371.449,-118.025 377.449,-124.025 377.449,-130.025"/>
<polyline fill="none" stroke="white" stroke-width="2" points="377.449,-130.025 377.449,-142.025 "/>
<path fill="none" stroke="white" stroke-width="2" d="M377.449,-142.025C377.449,-148.025 371.449,-154.025 365.449,-154.025"/>
<text text-anchor="middle" x="350.449" y="-133.525" font-family="Helvetica,sans-Serif" font-size="10.00">SOX9</text>
</a>
</g>
<!-- RCOR1_MTA3&#45;&gt;SOX9 -->
<g id="edge54" class="edge"><title>RCOR1_MTA3&#45;&gt;SOX9</title>
<a xlink:title="SOX9: 0.163||remove31root">
<path fill="none" stroke="#e8b8ff" stroke-width="3" d="M156.321,-322.409C164.363,-309.04 176.266,-290.729 188.929,-276.369 229.471,-230.397 284.851,-185.384 319.099,-159.191"/>
<polygon fill="#e8b8ff" stroke="#e8b8ff" points="320.981,-161.278 325.657,-154.209 317.593,-156.819 320.981,-161.278"/>
</a>
</g>
<!-- EN1_ESX1_GBX1&#45;&gt;ISL2 -->
<g id="edge60" class="edge"><title>EN1_ESX1_GBX1&#45;&gt;ISL2</title>
<a xlink:title="ISL2: 0.135||remove26root">
<path fill="none" stroke="#bbc2ff" stroke-width="3" d="M89.3827,-279.067C109.802,-258.648 143.013,-225.437 165.469,-202.98"/>
<polygon fill="#bbc2ff" stroke="#bbc2ff" points="167.538,-204.871 171.215,-197.234 163.578,-200.911 167.538,-204.871"/>
</a>
</g>
<!-- EN1_ESX1_GBX1&#45;&gt;TBP -->
<g id="edge62" class="edge"><title>EN1_ESX1_GBX1&#45;&gt;TBP</title>
<a xlink:title="TBP: 0.008||ESX1: 0.002||remove1root">
<path fill="none" stroke="#eecbff" stroke-width="3" d="M80.5627,-271.168C96.043,-231.319 125.036,-151.874 139.24,-81.881 141.73,-69.6454 143.154,-55.7576 143.961,-44.1045"/>
<path fill="none" stroke="#eecbff" stroke-width="3" d="M82.427,-271.892C97.9218,-232.004 126.915,-152.56 141.2,-82.279 143.719,-69.8495 145.144,-55.9617 145.956,-44.2428"/>
<polygon fill="#eecbff" stroke="#eecbff" points="78.8049,-270.72 78.4954,-279.19 84.0195,-272.762 78.8049,-270.72"/>
<polygon fill="#eecbff" stroke="#eecbff" points="147.758,-44.2618 145.447,-36.1073 142.169,-43.9237 147.758,-44.2618"/>
</a>
</g>
<!-- RREB1&#45;&gt;YBX1_FOS_NFYC_NFYA_NFYB_CEBPZ -->
<g id="edge56" class="edge"><title>RREB1&#45;&gt;YBX1_FOS_NFYC_NFYA_NFYB_CEBPZ</title>
<a xlink:title="YBX1: 0.002||remove0root">
<path fill="none" stroke="#eecbff" stroke-width="3" d="M55.0293,-229.667C95.5723,-240.531 173.619,-261.443 232.208,-277.142"/>
<polygon fill="#eecbff" stroke="#eecbff" points="231.524,-279.857 239.976,-279.224 232.974,-274.448 231.524,-279.857"/>
</a>
</g>
<!-- RREB1&#45;&gt;ISL2 -->
<g id="edge58" class="edge"><title>RREB1&#45;&gt;ISL2</title>
<a xlink:title="ISL2: 0.123||remove24root">
<path fill="none" stroke="#bdc3ff" stroke-width="3" d="M55.3496,-215.096C82.5311,-207.813 124.336,-196.611 153.991,-188.665"/>
<polygon fill="#bdc3ff" stroke="#bdc3ff" points="155.008,-191.292 162.01,-186.517 153.558,-185.883 155.008,-191.292"/>
</a>
</g>
<!-- BARHL1&#45;&gt;ISL2 -->
<g id="edge76" class="edge"><title>BARHL1&#45;&gt;ISL2</title>
<a xlink:title="ISL2: 0.100||remove20root">
<path fill="none" stroke="#c0c6ff" stroke-width="3" d="M55.7155,-143.451C82.9552,-150.75 124.622,-161.914 154.154,-169.827"/>
<polygon fill="#c0c6ff" stroke="#c0c6ff" points="153.687,-172.601 162.139,-171.967 155.136,-167.192 153.687,-172.601"/>
</a>
</g>
<!-- BARHL1&#45;&gt;EN1_ESX1_GBX1 -->
<g id="edge78" class="edge"><title>BARHL1&#45;&gt;EN1_ESX1_GBX1</title>
<a xlink:title="ESX1: 0.160||remove20">
<path fill="none" stroke="#e8b8ff" stroke-width="3" d="M38.5618,-154.032C45.5871,-166.854 54.3977,-184.725 59.32,-201.545 65.9972,-224.361 68.9221,-251.309 70.203,-270.786"/>
<polygon fill="#e8b8ff" stroke="#e8b8ff" points="67.4151,-271.079 70.6705,-278.905 73.0059,-270.757 67.4151,-271.079"/>
</a>
</g>
<!-- BARHL1&#45;&gt;TBP -->
<g id="edge80" class="edge"><title>BARHL1&#45;&gt;TBP</title>
<a xlink:title="TBP: 0.064||remove16root">
<path fill="none" stroke="#ecc4ff" stroke-width="3" d="M55.6865,-130.823C82.0835,-124.29 120.628,-110.32 140.22,-82.08 147.722,-71.267 149.548,-56.835 149.334,-44.405"/>
<polygon fill="#ecc4ff" stroke="#ecc4ff" points="152.118,-44.0314 148.904,-36.1885 146.526,-44.3238 152.118,-44.0314"/>
</a>
</g>
<!-- MAZ_ZNF281_GTF2F1&#45;&gt;MAFB -->
<g id="edge66" class="edge"><title>MAZ_ZNF281_GTF2F1&#45;&gt;MAFB</title>
<a xlink:title="MAFB: 0.013||remove3root">
<path fill="none" stroke="#eecaff" stroke-width="3" d="M74.1074,-79.2808C82.6208,-126.183 111.934,-252.647 188.929,-318.129 190.768,-319.693 191.927,-318.665 194.165,-319.569 195.419,-320.076 196.684,-320.614 197.953,-321.176"/>
<polygon fill="#eecaff" stroke="#eecaff" points="196.781,-323.718 205.209,-324.612 199.178,-318.657 196.781,-323.718"/>
</a>
</g>
<!-- MAZ_ZNF281_GTF2F1&#45;&gt;ISL2 -->
<g id="edge68" class="edge"><title>MAZ_ZNF281_GTF2F1&#45;&gt;ISL2</title>
<a xlink:title="ISL2: 0.047||remove13root">
<path fill="none" stroke="#c6ccff" stroke-width="3" d="M89.3827,-79.3827C109.802,-99.8017 143.013,-133.013 165.469,-155.469"/>
<polygon fill="#c6ccff" stroke="#c6ccff" points="163.578,-157.538 171.215,-161.215 167.538,-153.578 163.578,-157.538"/>
</a>
</g>
<!-- MAZ_ZNF281_GTF2F1&#45;&gt;EN1_ESX1_GBX1 -->
<g id="edge70" class="edge"><title>MAZ_ZNF281_GTF2F1&#45;&gt;EN1_ESX1_GBX1</title>
<a xlink:title="EN1: 0.248||GBX1: 0.014||remove13">
<path fill="none" stroke="#e5aeff" stroke-width="3" d="M71.2,-79.3304C71.2,-120.78 71.2,-222.609 71.2,-270.952"/>
<polygon fill="#e5aeff" stroke="#e5aeff" points="68.4001,-271.057 71.2,-279.057 74.0001,-271.057 68.4001,-271.057"/>
</a>
</g>
<!-- MAZ_ZNF281_GTF2F1&#45;&gt;MAZ_ZNF281_GTF2F1 -->
<g id="edge72" class="edge"><title>MAZ_ZNF281_GTF2F1&#45;&gt;MAZ_ZNF281_GTF2F1</title>
<a xlink:title="MAZ: 0.032||remove11root">
<path fill="none" stroke="#edc8ff" stroke-width="3" d="M130.604,-67.5281C140.981,-66.6844 148.2,-64.575 148.2,-61.2 148.2,-58.827 144.631,-57.0796 138.905,-55.958"/>
<polygon fill="#edc8ff" stroke="#edc8ff" points="138.9,-53.1335 130.604,-54.8719 138.173,-58.6862 138.9,-53.1335"/>
</a>
</g>
<!-- MAZ_ZNF281_GTF2F1&#45;&gt;PAX5 -->
<g id="edge64" class="edge"><title>MAZ_ZNF281_GTF2F1&#45;&gt;PAX5</title>
<a xlink:title="PAX5: 0.004||ZNF281: 0.014||remove4root">
<path fill="none" stroke="#eecbff" stroke-width="3" d="M138.341,-47.7047C151.281,-44.8384 164.684,-41.5455 177.064,-37.9203 183.653,-35.992 190.621,-33.6211 197.264,-31.1901"/>
<path fill="none" stroke="#eecaff" stroke-width="3" d="M138.773,-49.6573C151.758,-46.7806 165.161,-43.4878 177.626,-39.8397 184.298,-37.8854 191.265,-35.5144 197.951,-33.0683"/>
<polygon fill="#eecaff" stroke="#eecaff" points="137.782,-45.9839 130.556,-50.4138 138.967,-51.457 137.782,-45.9839"/>
<polygon fill="#eecbff" stroke="#eecbff" points="198.749,-34.6915 205.253,-29.2571 196.779,-29.4492 198.749,-34.6915"/>
</a>
</g>
<!-- MAZ_ZNF281_GTF2F1&#45;&gt;SOX9 -->
<g id="edge74" class="edge"><title>MAZ_ZNF281_GTF2F1&#45;&gt;SOX9</title>
<a xlink:title="SOX9: 0.174||remove13">
<path fill="none" stroke="#e8b7ff" stroke-width="3" d="M130.763,-77.16C186.824,-92.1815 268.894,-114.172 315.219,-126.585"/>
<polygon fill="#e8b7ff" stroke="#e8b7ff" points="314.712,-129.347 323.164,-128.713 316.161,-123.938 314.712,-129.347"/>
</a>
</g>
<!-- TBP&#45;&gt;MAFB -->
<g id="edge82" class="edge"><title>TBP&#45;&gt;MAFB</title>
<a xlink:title="MAFB: 0.024||remove8root">
<path fill="none" stroke="#edc9ff" stroke-width="3" d="M145.913,-36.3505C145.955,-95.2601 149.332,-278.079 188.929,-318.129 190.626,-319.845 191.927,-318.665 194.165,-319.569 195.419,-320.076 196.684,-320.614 197.953,-321.176"/>
<polygon fill="#edc9ff" stroke="#edc9ff" points="196.781,-323.718 205.209,-324.612 199.178,-318.657 196.781,-323.718"/>
</a>
</g>
<!-- TBP&#45;&gt;ISL2 -->
<g id="edge84" class="edge"><title>TBP&#45;&gt;ISL2</title>
<a xlink:title="ISL2: 0.138||remove27root">
<path fill="none" stroke="#bbc2ff" stroke-width="3" d="M150.896,-36.1811C158.545,-64.7264 173.404,-120.183 182.206,-153.029"/>
<polygon fill="#bbc2ff" stroke="#bbc2ff" points="179.529,-153.86 184.305,-160.863 184.938,-152.41 179.529,-153.86"/>
</a>
</g>
<!-- PAX5&#45;&gt;YBX1_FOS_NFYC_NFYA_NFYB_CEBPZ -->
<g id="edge86" class="edge"><title>PAX5&#45;&gt;YBX1_FOS_NFYC_NFYA_NFYB_CEBPZ</title>
<a xlink:title="NFYB: 0.076||YBX1: 0.002||remove18root">
<path fill="none" stroke="#ebc2ff" stroke-width="3" d="M237.334,-36.3223C250.261,-84.5654 285.271,-215.227 300.273,-271.212"/>
<polygon fill="#ebc2ff" stroke="#ebc2ff" points="297.644,-272.22 302.419,-279.222 303.053,-270.77 297.644,-272.22"/>
</a>
</g>
<!-- PAX5&#45;&gt;MAFB -->
<g id="edge88" class="edge"><title>PAX5&#45;&gt;MAFB</title>
<a xlink:title="MAFB: 0.020||remove5root">
<path fill="none" stroke="#edc9ff" stroke-width="3" d="M233.181,-36.1199C234.136,-69.1868 234.249,-141.326 220.545,-200.105 212.213,-235.839 196.093,-240.383 188.929,-276.369 185.306,-294.572 177.679,-303.367 188.929,-318.129 190.392,-320.049 191.927,-318.665 194.165,-319.569 195.419,-320.076 196.684,-320.614 197.953,-321.176"/>
<polygon fill="#edc9ff" stroke="#edc9ff" points="196.781,-323.718 205.209,-324.612 199.178,-318.657 196.781,-323.718"/>
</a>
</g>
<!-- PAX5&#45;&gt;ISL2 -->
<g id="edge90" class="edge"><title>PAX5&#45;&gt;ISL2</title>
<a xlink:title="ISL2: 0.095||remove19root">
<path fill="none" stroke="#c0c6ff" stroke-width="3" d="M227.553,-36.1811C219.904,-64.7264 205.045,-120.183 196.244,-153.029"/>
<polygon fill="#c0c6ff" stroke="#c0c6ff" points="193.511,-152.41 194.145,-160.863 198.92,-153.86 193.511,-152.41"/>
</a>
</g>
<!-- PAX5&#45;&gt;EN1_ESX1_GBX1 -->
<g id="edge92" class="edge"><title>PAX5&#45;&gt;EN1_ESX1_GBX1</title>
<a xlink:title="GBX1: 0.027||remove9root">
<path fill="none" stroke="#edc8ff" stroke-width="3" d="M221.846,-36.3223C193.821,-84.8626 117.625,-216.84 85.6401,-272.238"/>
<polygon fill="#edc8ff" stroke="#edc8ff" points="83.1829,-270.894 81.6078,-279.222 88.0327,-273.694 83.1829,-270.894"/>
</a>
</g>
<!-- BARHL2&#45;&gt;ISL2 -->
<g id="edge94" class="edge"><title>BARHL2&#45;&gt;ISL2</title>
<a xlink:title="ISL2: 0.222||remove34root">
<path fill="none" stroke="#b1b9ff" stroke-width="3" d="M289.067,-79.3827C268.648,-99.8017 235.437,-133.013 212.98,-155.469"/>
<polygon fill="#b1b9ff" stroke="#b1b9ff" points="210.911,-153.578 207.234,-161.215 214.871,-157.538 210.911,-153.578"/>
</a>
</g>
<!-- BARHL2&#45;&gt;TBP -->
<g id="edge98" class="edge"><title>BARHL2&#45;&gt;TBP</title>
<a xlink:title="TBP: 0.008||remove2root">
<path fill="none" stroke="#eecaff" stroke-width="3" d="M279.468,-56.5772C257.882,-52.6935 227.309,-46.5518 201.105,-38.88 194.474,-36.9387 187.506,-34.5678 180.842,-32.1292"/>
<polygon fill="#eecaff" stroke="#eecaff" points="181.67,-29.4492 173.196,-29.2571 179.701,-34.6915 181.67,-29.4492"/>
</a>
</g>
<!-- BARHL2&#45;&gt;SOX9 -->
<g id="edge96" class="edge"><title>BARHL2&#45;&gt;SOX9</title>
<a xlink:title="SOX9: 0.131||remove25root">
<path fill="none" stroke="#e9bcff" stroke-width="3" d="M317.707,-79.3129C323.132,-88.7099 329.849,-100.344 335.784,-110.624"/>
<polygon fill="#e9bcff" stroke="#e9bcff" points="333.513,-112.291 339.938,-117.819 338.363,-109.491 333.513,-112.291"/>
</a>
</g>
<!-- SOX9&#45;&gt;MAFB -->
<g id="edge100" class="edge"><title>SOX9&#45;&gt;MAFB</title>
<a xlink:title="MAFB: 0.031||remove10root">
<path fill="none" stroke="#edc8ff" stroke-width="3" d="M323.209,-149.878C284.87,-171.107 216.588,-215.695 188.929,-276.369 181.231,-293.257 177.679,-303.367 188.929,-318.129 190.392,-320.049 191.927,-318.665 194.165,-319.569 195.419,-320.076 196.684,-320.614 197.953,-321.176"/>
<polygon fill="#edc8ff" stroke="#edc8ff" points="196.781,-323.718 205.209,-324.612 199.178,-318.657 196.781,-323.718"/>
</a>
</g>
<!-- SOX9&#45;&gt;ISL2 -->
<g id="edge102" class="edge"><title>SOX9&#45;&gt;ISL2</title>
<a xlink:title="ISL2: 0.180||remove33root">
<path fill="none" stroke="#b6bdff" stroke-width="3" d="M323.1,-143.353C295.918,-150.636 254.113,-161.838 224.458,-169.784"/>
<polygon fill="#b6bdff" stroke="#b6bdff" points="223.441,-167.157 216.439,-171.933 224.891,-172.567 223.441,-167.157"/>
</a>
</g>
</g>
</svg>
