<?xml version="1.0" encoding="UTF-8" standalone="no"?>
<!DOCTYPE svg PUBLIC "-//W3C//DTD SVG 1.1//EN"
 "http://www.w3.org/Graphics/SVG/1.1/DTD/svg11.dtd">
<!-- Generated by graphviz version 2.28.0 (20110630.0925)
 -->
<!-- Title: _anonymous_0 Pages: 1 -->
<svg width="422pt" height="366pt"
 viewBox="0.00 0.00 421.95 366.45" xmlns="http://www.w3.org/2000/svg" xmlns:xlink="http://www.w3.org/1999/xlink">
<g id="graph1" class="graph" transform="scale(1 1) rotate(0) translate(4 362.449)">
<title>_anonymous_0</title>
<polygon fill="white" stroke="white" points="-4,5 -4,-362.449 418.949,-362.449 418.949,5 -4,5"/>
<!-- ZNF711_TFAP2A_TFAP2D -->
<g id="node1" class="node"><title>ZNF711_TFAP2A_TFAP2D</title>
<a xlink:href="ZNF711_TFAP2A_TFAP2D.svg" xlink:title="Z&#45;value: 2.387||remove37">
<polygon fill="#3247ff" stroke="#3247ff" stroke-width="2" points="130.7,-315.249 16.7,-315.249 4.7,-303.249 4.7,-291.249 16.7,-279.249 130.7,-279.249 142.7,-291.249 142.7,-303.249 130.7,-315.249"/>
<path fill="#3247ff" stroke="#3247ff" stroke-width="2" d="M16.7,-315.249C10.7,-315.249 4.7,-309.249 4.7,-303.249"/>
<path fill="#3247ff" stroke="#3247ff" stroke-width="2" d="M4.7,-291.249C4.7,-285.249 10.7,-279.249 16.7,-279.249"/>
<path fill="#3247ff" stroke="#3247ff" stroke-width="2" d="M130.7,-279.249C136.7,-279.249 142.7,-285.249 142.7,-291.249"/>
<path fill="#3247ff" stroke="#3247ff" stroke-width="2" d="M142.7,-303.249C142.7,-309.249 136.7,-315.249 130.7,-315.249"/>
<polyline fill="none" stroke="white" stroke-width="2" points="130.7,-315.249 16.7,-315.249 "/>
<path fill="none" stroke="white" stroke-width="2" d="M16.7,-315.249C10.7,-315.249 4.7,-309.249 4.7,-303.249"/>
<polyline fill="none" stroke="white" stroke-width="2" points="4.7,-303.249 4.7,-291.249 "/>
<path fill="none" stroke="white" stroke-width="2" d="M4.7,-291.249C4.7,-285.249 10.7,-279.249 16.7,-279.249"/>
<polyline fill="none" stroke="white" stroke-width="2" points="16.7,-279.249 130.7,-279.249 "/>
<path fill="none" stroke="white" stroke-width="2" d="M130.7,-279.249C136.7,-279.249 142.7,-285.249 142.7,-291.249"/>
<polyline fill="none" stroke="white" stroke-width="2" points="142.7,-291.249 142.7,-303.249 "/>
<path fill="none" stroke="white" stroke-width="2" d="M142.7,-303.249C142.7,-309.249 136.7,-315.249 130.7,-315.249"/>
<text text-anchor="middle" x="73.7" y="-294.749" font-family="Helvetica,sans-Serif" font-size="10.00" fill="white">ZNF711_TFAP2A_TFAP2D</text>
</a>
</g>
<!-- ZNF711_TFAP2A_TFAP2D&#45;&gt;ZNF711_TFAP2A_TFAP2D -->
<g id="edge6" class="edge"><title>ZNF711_TFAP2A_TFAP2D&#45;&gt;ZNF711_TFAP2A_TFAP2D</title>
<a xlink:title="TFAP2A: 0.506||ZNF711: 0.089||remove37">
<path fill="none" stroke="#c957ff" stroke-width="3" d="M142.975,-303.404C153.531,-302.465 160.7,-300.413 160.7,-297.249 160.7,-294.975 156.997,-293.276 150.994,-292.151"/>
<polygon fill="#c957ff" stroke="#c957ff" points="151.272,-289.363 142.975,-291.094 150.54,-294.915 151.272,-289.363"/>
</a>
</g>
<!-- BACH1_NFE2_NFE2L2 -->
<g id="node2" class="node"><title>BACH1_NFE2_NFE2L2</title>
<a xlink:href="BACH1_NFE2_NFE2L2.svg" xlink:title="Z&#45;value: 1.802||remove29">
<polygon fill="#5869ff" stroke="#5869ff" stroke-width="2" points="401.949,-240.425 303.949,-240.425 291.949,-228.425 291.949,-216.425 303.949,-204.425 401.949,-204.425 413.949,-216.425 413.949,-228.425 401.949,-240.425"/>
<path fill="#5869ff" stroke="#5869ff" stroke-width="2" d="M303.949,-240.425C297.949,-240.425 291.949,-234.425 291.949,-228.425"/>
<path fill="#5869ff" stroke="#5869ff" stroke-width="2" d="M291.949,-216.425C291.949,-210.425 297.949,-204.425 303.949,-204.425"/>
<path fill="#5869ff" stroke="#5869ff" stroke-width="2" d="M401.949,-204.425C407.949,-204.425 413.949,-210.425 413.949,-216.425"/>
<path fill="#5869ff" stroke="#5869ff" stroke-width="2" d="M413.949,-228.425C413.949,-234.425 407.949,-240.425 401.949,-240.425"/>
<polyline fill="none" stroke="white" stroke-width="2" points="401.949,-240.425 303.949,-240.425 "/>
<path fill="none" stroke="white" stroke-width="2" d="M303.949,-240.425C297.949,-240.425 291.949,-234.425 291.949,-228.425"/>
<polyline fill="none" stroke="white" stroke-width="2" points="291.949,-228.425 291.949,-216.425 "/>
<path fill="none" stroke="white" stroke-width="2" d="M291.949,-216.425C291.949,-210.425 297.949,-204.425 303.949,-204.425"/>
<polyline fill="none" stroke="white" stroke-width="2" points="303.949,-204.425 401.949,-204.425 "/>
<path fill="none" stroke="white" stroke-width="2" d="M401.949,-204.425C407.949,-204.425 413.949,-210.425 413.949,-216.425"/>
<polyline fill="none" stroke="white" stroke-width="2" points="413.949,-216.425 413.949,-228.425 "/>
<path fill="none" stroke="white" stroke-width="2" d="M413.949,-228.425C413.949,-234.425 407.949,-240.425 401.949,-240.425"/>
<text text-anchor="middle" x="352.949" y="-219.925" font-family="Helvetica,sans-Serif" font-size="10.00" fill="white">BACH1_NFE2_NFE2L2</text>
</a>
</g>
<!-- ZNF711_TFAP2A_TFAP2D&#45;&gt;BACH1_NFE2_NFE2L2 -->
<g id="edge2" class="edge"><title>ZNF711_TFAP2A_TFAP2D&#45;&gt;BACH1_NFE2_NFE2L2</title>
<a xlink:title="NFE2L2: 0.403||BACH1: 0.094||NFE2: 0.004||remove29">
<path fill="none" stroke="#d16fff" stroke-width="3" d="M140.943,-279.232C184.091,-267.67 239.986,-252.693 283.55,-241.02"/>
<polygon fill="#d16fff" stroke="#d16fff" points="284.532,-243.656 291.535,-238.881 283.082,-238.247 284.532,-243.656"/>
</a>
</g>
<!-- SP4_PML -->
<g id="node4" class="node"><title>SP4_PML</title>
<a xlink:href="SP4_PML.svg" xlink:title="Z&#45;value: 1.603||remove35">
<polygon fill="#6574ff" stroke="#6574ff" stroke-width="2" points="48.75,-240.425 12.25,-240.425 0.25,-228.425 0.25,-216.425 12.25,-204.425 48.75,-204.425 60.75,-216.425 60.75,-228.425 48.75,-240.425"/>
<path fill="#6574ff" stroke="#6574ff" stroke-width="2" d="M12.25,-240.425C6.25,-240.425 0.25,-234.425 0.25,-228.425"/>
<path fill="#6574ff" stroke="#6574ff" stroke-width="2" d="M0.25,-216.425C0.25,-210.425 6.25,-204.425 12.25,-204.425"/>
<path fill="#6574ff" stroke="#6574ff" stroke-width="2" d="M48.75,-204.425C54.75,-204.425 60.75,-210.425 60.75,-216.425"/>
<path fill="#6574ff" stroke="#6574ff" stroke-width="2" d="M60.75,-228.425C60.75,-234.425 54.75,-240.425 48.75,-240.425"/>
<polyline fill="none" stroke="white" stroke-width="2" points="48.75,-240.425 12.25,-240.425 "/>
<path fill="none" stroke="white" stroke-width="2" d="M12.25,-240.425C6.25,-240.425 0.25,-234.425 0.25,-228.425"/>
<polyline fill="none" stroke="white" stroke-width="2" points="0.25,-228.425 0.25,-216.425 "/>
<path fill="none" stroke="white" stroke-width="2" d="M0.25,-216.425C0.25,-210.425 6.25,-204.425 12.25,-204.425"/>
<polyline fill="none" stroke="white" stroke-width="2" points="12.25,-204.425 48.75,-204.425 "/>
<path fill="none" stroke="white" stroke-width="2" d="M48.75,-204.425C54.75,-204.425 60.75,-210.425 60.75,-216.425"/>
<polyline fill="none" stroke="white" stroke-width="2" points="60.75,-216.425 60.75,-228.425 "/>
<path fill="none" stroke="white" stroke-width="2" d="M60.75,-228.425C60.75,-234.425 54.75,-240.425 48.75,-240.425"/>
<text text-anchor="middle" x="30.5" y="-219.925" font-family="Helvetica,sans-Serif" font-size="10.00" fill="white">SP4_PML</text>
</a>
</g>
<!-- ZNF711_TFAP2A_TFAP2D&#45;&gt;SP4_PML -->
<g id="edge4" class="edge"><title>ZNF711_TFAP2A_TFAP2D&#45;&gt;SP4_PML</title>
<a xlink:title="SP4: 0.046||TFAP2A: 0.217||ZNF711: 0.116||remove31root">
<path fill="none" stroke="#ebc1ff" stroke-width="3" d="M58.2274,-272.45C53.6871,-264.586 48.6847,-255.921 44.1506,-248.068"/>
<path fill="none" stroke="#de9aff" stroke-width="3" d="M59.9594,-271.45C55.4191,-263.586 50.4167,-254.921 45.8826,-247.068"/>
<polygon fill="#de9aff" stroke="#de9aff" points="56.8176,-273.608 63.2425,-279.136 61.6673,-270.808 56.8176,-273.608"/>
<polygon fill="#ebc1ff" stroke="#ebc1ff" points="47.4359,-246.158 41.0109,-240.63 42.5861,-248.958 47.4359,-246.158"/>
</a>
</g>
<!-- SP1 -->
<g id="node7" class="node"><title>SP1</title>
<a xlink:href="SP1.svg" xlink:title="Z&#45;value: 0.981||remove36">
<polygon fill="#8d98ff" stroke="#8d98ff" stroke-width="2" points="45.5,-154.025 15.5,-154.025 3.5,-142.025 3.5,-130.025 15.5,-118.025 45.5,-118.025 57.5,-130.025 57.5,-142.025 45.5,-154.025"/>
<path fill="#8d98ff" stroke="#8d98ff" stroke-width="2" d="M15.5,-154.025C9.5,-154.025 3.5,-148.025 3.5,-142.025"/>
<path fill="#8d98ff" stroke="#8d98ff" stroke-width="2" d="M3.5,-130.025C3.5,-124.025 9.5,-118.025 15.5,-118.025"/>
<path fill="#8d98ff" stroke="#8d98ff" stroke-width="2" d="M45.5,-118.025C51.5,-118.025 57.5,-124.025 57.5,-130.025"/>
<path fill="#8d98ff" stroke="#8d98ff" stroke-width="2" d="M57.5,-142.025C57.5,-148.025 51.5,-154.025 45.5,-154.025"/>
<polyline fill="none" stroke="white" stroke-width="2" points="45.5,-154.025 15.5,-154.025 "/>
<path fill="none" stroke="white" stroke-width="2" d="M15.5,-154.025C9.5,-154.025 3.5,-148.025 3.5,-142.025"/>
<polyline fill="none" stroke="white" stroke-width="2" points="3.5,-142.025 3.5,-130.025 "/>
<path fill="none" stroke="white" stroke-width="2" d="M3.5,-130.025C3.5,-124.025 9.5,-118.025 15.5,-118.025"/>
<polyline fill="none" stroke="white" stroke-width="2" points="15.5,-118.025 45.5,-118.025 "/>
<path fill="none" stroke="white" stroke-width="2" d="M45.5,-118.025C51.5,-118.025 57.5,-124.025 57.5,-130.025"/>
<polyline fill="none" stroke="white" stroke-width="2" points="57.5,-130.025 57.5,-142.025 "/>
<path fill="none" stroke="white" stroke-width="2" d="M57.5,-142.025C57.5,-148.025 51.5,-154.025 45.5,-154.025"/>
<text text-anchor="middle" x="30.5" y="-133.525" font-family="Helvetica,sans-Serif" font-size="10.00">SP1</text>
</a>
</g>
<!-- ZNF711_TFAP2A_TFAP2D&#45;&gt;SP1 -->
<g id="edge8" class="edge"><title>ZNF711_TFAP2A_TFAP2D&#45;&gt;SP1</title>
<a xlink:title="SP1: 0.434||TFAP2A: 0.205||remove36">
<path fill="none" stroke="#ce68ff" stroke-width="3" d="M73.436,-271.078C73.3029,-251.591 71.6538,-224.438 64.9213,-201.829 60.79,-187.838 53.2891,-173.263 46.3014,-161.52"/>
<path fill="none" stroke="#df9cff" stroke-width="3" d="M75.436,-271.065C75.2992,-251.47 73.6501,-224.317 66.8387,-201.26 62.5683,-186.923 55.0674,-172.348 48.0203,-160.498"/>
<polygon fill="#df9cff" stroke="#df9cff" points="71.6356,-271.198 74.4081,-279.208 77.2356,-271.218 71.6356,-271.198"/>
<polygon fill="#ce68ff" stroke="#ce68ff" points="49.4606,-159.403 42.8879,-154.052 44.6887,-162.334 49.4606,-159.403"/>
</a>
</g>
<!-- ZNF148 -->
<g id="node9" class="node"><title>ZNF148</title>
<a xlink:href="ZNF148.svg" xlink:title="Z&#45;value: 1.025||remove32">
<polygon fill="#8a95ff" stroke="#8a95ff" stroke-width="2" points="88.7,-79.2 58.7,-79.2 46.7,-67.2 46.7,-55.2 58.7,-43.2 88.7,-43.2 100.7,-55.2 100.7,-67.2 88.7,-79.2"/>
<path fill="#8a95ff" stroke="#8a95ff" stroke-width="2" d="M58.7,-79.2C52.7,-79.2 46.7,-73.2 46.7,-67.2"/>
<path fill="#8a95ff" stroke="#8a95ff" stroke-width="2" d="M46.7,-55.2C46.7,-49.2 52.7,-43.2 58.7,-43.2"/>
<path fill="#8a95ff" stroke="#8a95ff" stroke-width="2" d="M88.7,-43.2C94.7,-43.2 100.7,-49.2 100.7,-55.2"/>
<path fill="#8a95ff" stroke="#8a95ff" stroke-width="2" d="M100.7,-67.2C100.7,-73.2 94.7,-79.2 88.7,-79.2"/>
<polyline fill="none" stroke="white" stroke-width="2" points="88.7,-79.2 58.7,-79.2 "/>
<path fill="none" stroke="white" stroke-width="2" d="M58.7,-79.2C52.7,-79.2 46.7,-73.2 46.7,-67.2"/>
<polyline fill="none" stroke="white" stroke-width="2" points="46.7,-67.2 46.7,-55.2 "/>
<path fill="none" stroke="white" stroke-width="2" d="M46.7,-55.2C46.7,-49.2 52.7,-43.2 58.7,-43.2"/>
<polyline fill="none" stroke="white" stroke-width="2" points="58.7,-43.2 88.7,-43.2 "/>
<path fill="none" stroke="white" stroke-width="2" d="M88.7,-43.2C94.7,-43.2 100.7,-49.2 100.7,-55.2"/>
<polyline fill="none" stroke="white" stroke-width="2" points="100.7,-55.2 100.7,-67.2 "/>
<path fill="none" stroke="white" stroke-width="2" d="M100.7,-67.2C100.7,-73.2 94.7,-79.2 88.7,-79.2"/>
<text text-anchor="middle" x="73.7" y="-58.7" font-family="Helvetica,sans-Serif" font-size="10.00">ZNF148</text>
</a>
</g>
<!-- ZNF711_TFAP2A_TFAP2D&#45;&gt;ZNF148 -->
<g id="edge10" class="edge"><title>ZNF711_TFAP2A_TFAP2D&#45;&gt;ZNF148</title>
<a xlink:title="ZNF148: 0.122||remove25root">
<path fill="none" stroke="#e5afff" stroke-width="3" d="M73.7,-279.119C73.7,-237.669 73.7,-135.84 73.7,-87.4968"/>
<polygon fill="#e5afff" stroke="#e5afff" points="76.5001,-87.3922 73.7,-79.3922 70.9001,-87.3922 76.5001,-87.3922"/>
</a>
</g>
<!-- KLF12 -->
<g id="node11" class="node"><title>KLF12</title>
<a xlink:href="KLF12.svg" xlink:title="Z&#45;value: 0.683||remove39">
<polygon fill="#ffa0a0" stroke="#ffa0a0" stroke-width="2" points="206.725,-197.225 176.725,-197.225 164.725,-185.225 164.725,-173.225 176.725,-161.225 206.725,-161.225 218.725,-173.225 218.725,-185.225 206.725,-197.225"/>
<path fill="#ffa0a0" stroke="#ffa0a0" stroke-width="2" d="M176.725,-197.225C170.725,-197.225 164.725,-191.225 164.725,-185.225"/>
<path fill="#ffa0a0" stroke="#ffa0a0" stroke-width="2" d="M164.725,-173.225C164.725,-167.225 170.725,-161.225 176.725,-161.225"/>
<path fill="#ffa0a0" stroke="#ffa0a0" stroke-width="2" d="M206.725,-161.225C212.725,-161.225 218.725,-167.225 218.725,-173.225"/>
<path fill="#ffa0a0" stroke="#ffa0a0" stroke-width="2" d="M218.725,-185.225C218.725,-191.225 212.725,-197.225 206.725,-197.225"/>
<polyline fill="none" stroke="white" stroke-width="2" points="206.725,-197.225 176.725,-197.225 "/>
<path fill="none" stroke="white" stroke-width="2" d="M176.725,-197.225C170.725,-197.225 164.725,-191.225 164.725,-185.225"/>
<polyline fill="none" stroke="white" stroke-width="2" points="164.725,-185.225 164.725,-173.225 "/>
<path fill="none" stroke="white" stroke-width="2" d="M164.725,-173.225C164.725,-167.225 170.725,-161.225 176.725,-161.225"/>
<polyline fill="none" stroke="white" stroke-width="2" points="176.725,-161.225 206.725,-161.225 "/>
<path fill="none" stroke="white" stroke-width="2" d="M206.725,-161.225C212.725,-161.225 218.725,-167.225 218.725,-173.225"/>
<polyline fill="none" stroke="white" stroke-width="2" points="218.725,-173.225 218.725,-185.225 "/>
<path fill="none" stroke="white" stroke-width="2" d="M218.725,-185.225C218.725,-191.225 212.725,-197.225 206.725,-197.225"/>
<text text-anchor="middle" x="191.725" y="-176.725" font-family="Helvetica,sans-Serif" font-size="10.00">KLF12</text>
</a>
</g>
<!-- ZNF711_TFAP2A_TFAP2D&#45;&gt;KLF12 -->
<g id="edge12" class="edge"><title>ZNF711_TFAP2A_TFAP2D&#45;&gt;KLF12</title>
<a xlink:title="KLF12: 0.464||remove37root">
<path fill="none" stroke="#6171ff" stroke-width="3" d="M91.8827,-279.067C112.302,-258.648 145.513,-225.437 167.969,-202.98"/>
<polygon fill="#6171ff" stroke="#6171ff" points="170.038,-204.871 173.715,-197.234 166.078,-200.911 170.038,-204.871"/>
</a>
</g>
<!-- RBPJ -->
<g id="node13" class="node"><title>RBPJ</title>
<a xlink:href="RBPJ.svg" xlink:title="Z&#45;value: 0.623||remove27">
<polygon fill="#a4adff" stroke="#a4adff" stroke-width="2" points="324.749,-315.249 294.749,-315.249 282.749,-303.249 282.749,-291.249 294.749,-279.249 324.749,-279.249 336.749,-291.249 336.749,-303.249 324.749,-315.249"/>
<path fill="#a4adff" stroke="#a4adff" stroke-width="2" d="M294.749,-315.249C288.749,-315.249 282.749,-309.249 282.749,-303.249"/>
<path fill="#a4adff" stroke="#a4adff" stroke-width="2" d="M282.749,-291.249C282.749,-285.249 288.749,-279.249 294.749,-279.249"/>
<path fill="#a4adff" stroke="#a4adff" stroke-width="2" d="M324.749,-279.249C330.749,-279.249 336.749,-285.249 336.749,-291.249"/>
<path fill="#a4adff" stroke="#a4adff" stroke-width="2" d="M336.749,-303.249C336.749,-309.249 330.749,-315.249 324.749,-315.249"/>
<polyline fill="none" stroke="white" stroke-width="2" points="324.749,-315.249 294.749,-315.249 "/>
<path fill="none" stroke="white" stroke-width="2" d="M294.749,-315.249C288.749,-315.249 282.749,-309.249 282.749,-303.249"/>
<polyline fill="none" stroke="white" stroke-width="2" points="282.749,-303.249 282.749,-291.249 "/>
<path fill="none" stroke="white" stroke-width="2" d="M282.749,-291.249C282.749,-285.249 288.749,-279.249 294.749,-279.249"/>
<polyline fill="none" stroke="white" stroke-width="2" points="294.749,-279.249 324.749,-279.249 "/>
<path fill="none" stroke="white" stroke-width="2" d="M324.749,-279.249C330.749,-279.249 336.749,-285.249 336.749,-291.249"/>
<polyline fill="none" stroke="white" stroke-width="2" points="336.749,-291.249 336.749,-303.249 "/>
<path fill="none" stroke="white" stroke-width="2" d="M336.749,-303.249C336.749,-309.249 330.749,-315.249 324.749,-315.249"/>
<text text-anchor="middle" x="309.749" y="-294.749" font-family="Helvetica,sans-Serif" font-size="10.00">RBPJ</text>
</a>
</g>
<!-- ZNF711_TFAP2A_TFAP2D&#45;&gt;RBPJ -->
<g id="edge14" class="edge"><title>ZNF711_TFAP2A_TFAP2D&#45;&gt;RBPJ</title>
<a xlink:title="RBPJ: 0.659||remove27">
<path fill="none" stroke="#be34ff" stroke-width="3" d="M142.928,-297.249C185.943,-297.249 239.455,-297.249 274.091,-297.249"/>
<polygon fill="#be34ff" stroke="#be34ff" points="274.473,-300.049 282.473,-297.249 274.473,-294.449 274.473,-300.049"/>
</a>
</g>
<!-- KLF16_SP2 -->
<g id="node15" class="node"><title>KLF16_SP2</title>
<a xlink:href="KLF16_SP2.svg" xlink:title="Z&#45;value: 0.850||remove22">
<polygon fill="#95a0ff" stroke="#95a0ff" stroke-width="2" points="170.775,-36 126.275,-36 114.275,-24 114.275,-12 126.275,-6.39488e-14 170.775,-6.39488e-14 182.775,-12 182.775,-24 170.775,-36"/>
<path fill="#95a0ff" stroke="#95a0ff" stroke-width="2" d="M126.275,-36C120.275,-36 114.275,-30 114.275,-24"/>
<path fill="#95a0ff" stroke="#95a0ff" stroke-width="2" d="M114.275,-12C114.275,-6 120.275,-6.39488e-14 126.275,-6.39488e-14"/>
<path fill="#95a0ff" stroke="#95a0ff" stroke-width="2" d="M170.775,-6.39488e-14C176.775,-6.39488e-14 182.775,-6 182.775,-12"/>
<path fill="#95a0ff" stroke="#95a0ff" stroke-width="2" d="M182.775,-24C182.775,-30 176.775,-36 170.775,-36"/>
<polyline fill="none" stroke="white" stroke-width="2" points="170.775,-36 126.275,-36 "/>
<path fill="none" stroke="white" stroke-width="2" d="M126.275,-36C120.275,-36 114.275,-30 114.275,-24"/>
<polyline fill="none" stroke="white" stroke-width="2" points="114.275,-24 114.275,-12 "/>
<path fill="none" stroke="white" stroke-width="2" d="M114.275,-12C114.275,-6 120.275,-6.39488e-14 126.275,-6.39488e-14"/>
<polyline fill="none" stroke="white" stroke-width="2" points="126.275,-6.39488e-14 170.775,-6.39488e-14 "/>
<path fill="none" stroke="white" stroke-width="2" d="M170.775,-6.39488e-14C176.775,-6.39488e-14 182.775,-6 182.775,-12"/>
<polyline fill="none" stroke="white" stroke-width="2" points="182.775,-12 182.775,-24 "/>
<path fill="none" stroke="white" stroke-width="2" d="M182.775,-24C182.775,-30 176.775,-36 170.775,-36"/>
<text text-anchor="middle" x="148.525" y="-15.5" font-family="Helvetica,sans-Serif" font-size="10.00">KLF16_SP2</text>
</a>
</g>
<!-- ZNF711_TFAP2A_TFAP2D&#45;&gt;KLF16_SP2 -->
<g id="edge16" class="edge"><title>ZNF711_TFAP2A_TFAP2D&#45;&gt;KLF16_SP2</title>
<a xlink:title="SP2: 0.109||TFAP2A: 0.037||remove19root">
<path fill="none" stroke="#e6b2ff" stroke-width="3" d="M79.8032,-270.608C94.1203,-217.176 126.388,-96.7494 140.607,-43.6854"/>
<path fill="none" stroke="#ebc3ff" stroke-width="3" d="M81.735,-271.126C96.0522,-217.693 128.32,-97.267 142.539,-44.2031"/>
<polygon fill="#ebc3ff" stroke="#ebc3ff" points="77.9755,-270.475 78.6095,-278.927 83.3847,-271.924 77.9755,-270.475"/>
<polygon fill="#e6b2ff" stroke="#e6b2ff" points="144.328,-44.4789 143.694,-36.0268 138.919,-43.0294 144.328,-44.4789"/>
</a>
</g>
<!-- BACH1_NFE2_NFE2L2&#45;&gt;RBPJ -->
<g id="edge18" class="edge"><title>BACH1_NFE2_NFE2L2&#45;&gt;RBPJ</title>
<a xlink:title="RBPJ: 0.048||remove8root">
<path fill="none" stroke="#ebc0ff" stroke-width="3" d="M342.492,-240.538C337.066,-249.935 330.35,-261.568 324.414,-271.849"/>
<polygon fill="#ebc0ff" stroke="#ebc0ff" points="321.835,-270.715 320.26,-279.044 326.685,-273.516 321.835,-270.715"/>
</a>
</g>
<!-- SP4_PML&#45;&gt;BACH1_NFE2_NFE2L2 -->
<g id="edge40" class="edge"><title>SP4_PML&#45;&gt;BACH1_NFE2_NFE2L2</title>
<a xlink:title="BACH1: 0.206||NFE2L2: 0.097||NFE2: 0.005||remove29">
<path fill="none" stroke="#df9cff" stroke-width="3" d="M60.8352,-222.425C111.454,-222.425 214.398,-222.425 283.542,-222.425"/>
<polygon fill="#df9cff" stroke="#df9cff" points="283.801,-225.225 291.801,-222.425 283.801,-219.625 283.801,-225.225"/>
</a>
</g>
<!-- SP4_PML&#45;&gt;SP4_PML -->
<g id="edge42" class="edge"><title>SP4_PML&#45;&gt;SP4_PML</title>
<a xlink:title="SP4: 0.061||remove12root">
<path fill="none" stroke="#eabeff" stroke-width="3" d="M60.9673,-229.173C70.748,-229.104 78.5,-226.854 78.5,-222.425 78.5,-219.31 74.6676,-217.273 68.9921,-216.314"/>
<polygon fill="#eabeff" stroke="#eabeff" points="69.1641,-213.519 60.9673,-215.676 68.7201,-219.102 69.1641,-213.519"/>
</a>
</g>
<!-- SP4_PML&#45;&gt;KLF12 -->
<g id="edge46" class="edge"><title>SP4_PML&#45;&gt;KLF12</title>
<a xlink:title="KLF12: 0.356||remove35root">
<path fill="none" stroke="#7a87ff" stroke-width="3" d="M60.8251,-214.299C88.0896,-206.994 128.132,-196.264 156.742,-188.598"/>
<polygon fill="#7a87ff" stroke="#7a87ff" points="157.485,-191.298 164.488,-186.523 156.035,-185.889 157.485,-191.298"/>
</a>
</g>
<!-- SP4_PML&#45;&gt;RBPJ -->
<g id="edge50" class="edge"><title>SP4_PML&#45;&gt;RBPJ</title>
<a xlink:title="RBPJ: 0.196||remove27">
<path fill="none" stroke="#e09fff" stroke-width="3" d="M60.9161,-230.575C113.192,-244.582 219.768,-273.139 274.931,-287.92"/>
<polygon fill="#e09fff" stroke="#e09fff" points="274.232,-290.631 282.684,-289.997 275.681,-285.222 274.232,-290.631"/>
</a>
</g>
<!-- SP4_PML&#45;&gt;KLF16_SP2 -->
<g id="edge52" class="edge"><title>SP4_PML&#45;&gt;KLF16_SP2</title>
<a xlink:title="SP2: 0.038||SP4: 0.102||PML: 0.004||remove17root">
<path fill="none" stroke="#ebc3ff" stroke-width="3" d="M44.1908,-196.711C66.8275,-157.504 110.221,-82.3434 132.95,-42.9757"/>
<path fill="none" stroke="#e7b4ff" stroke-width="3" d="M45.9229,-197.711C68.5596,-158.504 111.953,-83.3434 134.682,-43.9757"/>
<polygon fill="#e7b4ff" stroke="#e7b4ff" points="42.5491,-195.955 40.9739,-204.283 47.3988,-198.755 42.5491,-195.955"/>
<polygon fill="#ebc3ff" stroke="#ebc3ff" points="136.499,-44.4289 138.074,-36.1007 131.649,-41.6289 136.499,-44.4289"/>
</a>
</g>
<!-- CDX1 -->
<g id="node31" class="node"><title>CDX1</title>
<a xlink:href="CDX1.svg" xlink:title="Z&#45;value: 0.491||remove30">
<polygon fill="#acb4ff" stroke="#acb4ff" stroke-width="2" points="249.925,-358.449 219.925,-358.449 207.925,-346.449 207.925,-334.449 219.925,-322.449 249.925,-322.449 261.925,-334.449 261.925,-346.449 249.925,-358.449"/>
<path fill="#acb4ff" stroke="#acb4ff" stroke-width="2" d="M219.925,-358.449C213.925,-358.449 207.925,-352.449 207.925,-346.449"/>
<path fill="#acb4ff" stroke="#acb4ff" stroke-width="2" d="M207.925,-334.449C207.925,-328.449 213.925,-322.449 219.925,-322.449"/>
<path fill="#acb4ff" stroke="#acb4ff" stroke-width="2" d="M249.925,-322.449C255.925,-322.449 261.925,-328.449 261.925,-334.449"/>
<path fill="#acb4ff" stroke="#acb4ff" stroke-width="2" d="M261.925,-346.449C261.925,-352.449 255.925,-358.449 249.925,-358.449"/>
<polyline fill="none" stroke="white" stroke-width="2" points="249.925,-358.449 219.925,-358.449 "/>
<path fill="none" stroke="white" stroke-width="2" d="M219.925,-358.449C213.925,-358.449 207.925,-352.449 207.925,-346.449"/>
<polyline fill="none" stroke="white" stroke-width="2" points="207.925,-346.449 207.925,-334.449 "/>
<path fill="none" stroke="white" stroke-width="2" d="M207.925,-334.449C207.925,-328.449 213.925,-322.449 219.925,-322.449"/>
<polyline fill="none" stroke="white" stroke-width="2" points="219.925,-322.449 249.925,-322.449 "/>
<path fill="none" stroke="white" stroke-width="2" d="M249.925,-322.449C255.925,-322.449 261.925,-328.449 261.925,-334.449"/>
<polyline fill="none" stroke="white" stroke-width="2" points="261.925,-334.449 261.925,-346.449 "/>
<path fill="none" stroke="white" stroke-width="2" d="M261.925,-346.449C261.925,-352.449 255.925,-358.449 249.925,-358.449"/>
<text text-anchor="middle" x="234.925" y="-337.949" font-family="Helvetica,sans-Serif" font-size="10.00">CDX1</text>
</a>
</g>
<!-- SP4_PML&#45;&gt;CDX1 -->
<g id="edge44" class="edge"><title>SP4_PML&#45;&gt;CDX1</title>
<a xlink:title="CDX1: 0.110||remove21root">
<path fill="none" stroke="#e6b2ff" stroke-width="3" d="M60.9383,-233.241C86.5507,-242.923 123.698,-258.345 153.74,-276.369 173.276,-288.09 193.388,-303.932 208.708,-316.932"/>
<polygon fill="#e6b2ff" stroke="#e6b2ff" points="207.072,-319.219 214.964,-322.31 210.722,-314.972 207.072,-319.219"/>
</a>
</g>
<!-- JDP2 -->
<g id="node34" class="node"><title>JDP2</title>
<a xlink:href="JDP2.svg" xlink:title="Z&#45;value: 0.436||remove24">
<polygon fill="#b0b7ff" stroke="#b0b7ff" stroke-width="2" points="163.525,-358.449 133.525,-358.449 121.525,-346.449 121.525,-334.449 133.525,-322.449 163.525,-322.449 175.525,-334.449 175.525,-346.449 163.525,-358.449"/>
<path fill="#b0b7ff" stroke="#b0b7ff" stroke-width="2" d="M133.525,-358.449C127.525,-358.449 121.525,-352.449 121.525,-346.449"/>
<path fill="#b0b7ff" stroke="#b0b7ff" stroke-width="2" d="M121.525,-334.449C121.525,-328.449 127.525,-322.449 133.525,-322.449"/>
<path fill="#b0b7ff" stroke="#b0b7ff" stroke-width="2" d="M163.525,-322.449C169.525,-322.449 175.525,-328.449 175.525,-334.449"/>
<path fill="#b0b7ff" stroke="#b0b7ff" stroke-width="2" d="M175.525,-346.449C175.525,-352.449 169.525,-358.449 163.525,-358.449"/>
<polyline fill="none" stroke="white" stroke-width="2" points="163.525,-358.449 133.525,-358.449 "/>
<path fill="none" stroke="white" stroke-width="2" d="M133.525,-358.449C127.525,-358.449 121.525,-352.449 121.525,-346.449"/>
<polyline fill="none" stroke="white" stroke-width="2" points="121.525,-346.449 121.525,-334.449 "/>
<path fill="none" stroke="white" stroke-width="2" d="M121.525,-334.449C121.525,-328.449 127.525,-322.449 133.525,-322.449"/>
<polyline fill="none" stroke="white" stroke-width="2" points="133.525,-322.449 163.525,-322.449 "/>
<path fill="none" stroke="white" stroke-width="2" d="M163.525,-322.449C169.525,-322.449 175.525,-328.449 175.525,-334.449"/>
<polyline fill="none" stroke="white" stroke-width="2" points="175.525,-334.449 175.525,-346.449 "/>
<path fill="none" stroke="white" stroke-width="2" d="M175.525,-346.449C175.525,-352.449 169.525,-358.449 163.525,-358.449"/>
<text text-anchor="middle" x="148.525" y="-337.949" font-family="Helvetica,sans-Serif" font-size="10.00">JDP2</text>
</a>
</g>
<!-- SP4_PML&#45;&gt;JDP2 -->
<g id="edge48" class="edge"><title>SP4_PML&#45;&gt;JDP2</title>
<a xlink:title="JDP2: 0.043||remove6root">
<path fill="none" stroke="#ebc2ff" stroke-width="3" d="M60.8661,-226.298C90.261,-231.84 133.289,-245.093 153.74,-276.369 161.006,-287.481 160.394,-302.101 157.656,-314.57"/>
<polygon fill="#ebc2ff" stroke="#ebc2ff" points="154.925,-313.947 155.611,-322.395 160.343,-315.362 154.925,-313.947"/>
</a>
</g>
<!-- SP1&#45;&gt;BACH1_NFE2_NFE2L2 -->
<g id="edge20" class="edge"><title>SP1&#45;&gt;BACH1_NFE2_NFE2L2</title>
<a xlink:title="NFE2: 0.103||NFE2L2: 0.055||BACH1: 0.003||remove18root">
<path fill="none" stroke="#e7b4ff" stroke-width="3" d="M57.7478,-152.928C83.2825,-167.912 123.018,-189.077 160.405,-200.105 200.164,-211.832 246.242,-217.442 283.352,-220.105"/>
<polygon fill="#e7b4ff" stroke="#e7b4ff" points="283.441,-222.918 291.611,-220.66 283.817,-217.33 283.441,-222.918"/>
</a>
</g>
<!-- SP1&#45;&gt;SP4_PML -->
<g id="edge22" class="edge"><title>SP1&#45;&gt;SP4_PML</title>
<a xlink:title="SP4: 0.122||SP1: 0.317||remove34root">
<path fill="none" stroke="#e5b0ff" stroke-width="3" d="M31.5,-162.42C31.5,-173.158 31.5,-185.536 31.5,-196.251"/>
<path fill="none" stroke="#d783ff" stroke-width="3" d="M29.5,-162.42C29.5,-173.158 29.5,-185.536 29.5,-196.251"/>
<polygon fill="#d783ff" stroke="#d783ff" points="33.3001,-162.348 30.5,-154.348 27.7001,-162.348 33.3001,-162.348"/>
<polygon fill="#e5b0ff" stroke="#e5b0ff" points="27.6999,-196.424 30.5,-204.424 33.2999,-196.424 27.6999,-196.424"/>
</a>
</g>
<!-- SP1&#45;&gt;SP1 -->
<g id="edge24" class="edge"><title>SP1&#45;&gt;SP1</title>
<a xlink:title="SP1: 0.288||remove33root">
<path fill="none" stroke="#d989ff" stroke-width="3" d="M57.7408,-142.768C67.5239,-142.913 75.5,-140.665 75.5,-136.025 75.5,-132.762 71.5568,-130.682 65.8147,-129.785"/>
<polygon fill="#d989ff" stroke="#d989ff" points="65.8996,-126.985 57.7408,-129.281 65.551,-132.574 65.8996,-126.985"/>
</a>
</g>
<!-- SP1&#45;&gt;ZNF148 -->
<g id="edge26" class="edge"><title>SP1&#45;&gt;ZNF148</title>
<a xlink:title="ZNF148: 0.058||remove11root">
<path fill="none" stroke="#eabeff" stroke-width="3" d="M40.9575,-117.912C46.3829,-108.515 53.0997,-96.8808 59.035,-86.6005"/>
<polygon fill="#eabeff" stroke="#eabeff" points="61.6139,-87.7337 63.1891,-79.4055 56.7641,-84.9337 61.6139,-87.7337"/>
</a>
</g>
<!-- SP1&#45;&gt;KLF12 -->
<g id="edge30" class="edge"><title>SP1&#45;&gt;KLF12</title>
<a xlink:title="KLF12: 0.388||remove36root">
<path fill="none" stroke="#7280ff" stroke-width="3" d="M57.8496,-143.353C85.0311,-150.636 126.836,-161.838 156.491,-169.784"/>
<polygon fill="#7280ff" stroke="#7280ff" points="156.058,-172.567 164.51,-171.933 157.508,-167.157 156.058,-172.567"/>
</a>
</g>
<!-- SP1&#45;&gt;RBPJ -->
<g id="edge32" class="edge"><title>SP1&#45;&gt;RBPJ</title>
<a xlink:title="RBPJ: 0.169||remove27">
<path fill="none" stroke="#e2a5ff" stroke-width="3" d="M57.5293,-151.63C108.617,-181.126 219.256,-245.003 275.472,-277.459"/>
<polygon fill="#e2a5ff" stroke="#e2a5ff" points="274.377,-280.06 282.705,-281.635 277.177,-275.21 274.377,-280.06"/>
</a>
</g>
<!-- SP1&#45;&gt;KLF16_SP2 -->
<g id="edge34" class="edge"><title>SP1&#45;&gt;KLF16_SP2</title>
<a xlink:title="SP2: 0.058||SP1: 0.170||remove22">
<path fill="none" stroke="#eabeff" stroke-width="3" d="M64.0773,-114.189C77.4587,-105.05 92.4797,-93.5841 104.302,-81.3836 115.47,-69.894 125.76,-55.0337 133.472,-42.5912"/>
<path fill="none" stroke="#e2a4ff" stroke-width="3" d="M65.2055,-115.841C78.6722,-106.639 93.6932,-95.1738 105.738,-82.7764 117.114,-71.0326 127.404,-56.1723 135.172,-43.645"/>
<polygon fill="#e2a4ff" stroke="#e2a4ff" points="62.8868,-112.82 57.7919,-119.593 65.9989,-117.475 62.8868,-112.82"/>
<polygon fill="#eabeff" stroke="#eabeff" points="136.831,-44.3792 138.572,-36.0841 132.038,-41.483 136.831,-44.3792"/>
</a>
</g>
<!-- SP3 -->
<g id="node22" class="node"><title>SP3</title>
<a xlink:href="SP3.svg" xlink:title="Z&#45;value: 1.634||remove38">
<polygon fill="#6372ff" stroke="#6372ff" stroke-width="2" points="249.925,-36 219.925,-36 207.925,-24 207.925,-12 219.925,-0 249.925,-0 261.925,-12 261.925,-24 249.925,-36"/>
<path fill="#6372ff" stroke="#6372ff" stroke-width="2" d="M219.925,-36C213.925,-36 207.925,-30 207.925,-24"/>
<path fill="#6372ff" stroke="#6372ff" stroke-width="2" d="M207.925,-12C207.925,-6 213.925,-0 219.925,-0"/>
<path fill="#6372ff" stroke="#6372ff" stroke-width="2" d="M249.925,-0C255.925,-0 261.925,-6 261.925,-12"/>
<path fill="#6372ff" stroke="#6372ff" stroke-width="2" d="M261.925,-24C261.925,-30 255.925,-36 249.925,-36"/>
<polyline fill="none" stroke="white" stroke-width="2" points="249.925,-36 219.925,-36 "/>
<path fill="none" stroke="white" stroke-width="2" d="M219.925,-36C213.925,-36 207.925,-30 207.925,-24"/>
<polyline fill="none" stroke="white" stroke-width="2" points="207.925,-24 207.925,-12 "/>
<path fill="none" stroke="white" stroke-width="2" d="M207.925,-12C207.925,-6 213.925,-0 219.925,-0"/>
<polyline fill="none" stroke="white" stroke-width="2" points="219.925,-0 249.925,-0 "/>
<path fill="none" stroke="white" stroke-width="2" d="M249.925,-0C255.925,-0 261.925,-6 261.925,-12"/>
<polyline fill="none" stroke="white" stroke-width="2" points="261.925,-12 261.925,-24 "/>
<path fill="none" stroke="white" stroke-width="2" d="M261.925,-24C261.925,-30 255.925,-36 249.925,-36"/>
<text text-anchor="middle" x="234.925" y="-15.5" font-family="Helvetica,sans-Serif" font-size="10.00" fill="white">SP3</text>
</a>
</g>
<!-- SP1&#45;&gt;SP3 -->
<g id="edge28" class="edge"><title>SP1&#45;&gt;SP3</title>
<a xlink:title="SP3: 0.256||SP1: 0.424||remove36">
<path fill="none" stroke="#db91ff" stroke-width="3" d="M64.3422,-115.331C102.03,-93.5721 162.18,-58.8446 199.929,-37.0503"/>
<path fill="none" stroke="#cf6aff" stroke-width="3" d="M65.3422,-117.063C103.03,-95.3041 163.18,-60.5766 200.929,-38.7823"/>
<polygon fill="#cf6aff" stroke="#cf6aff" points="63.1742,-113.927 57.646,-120.352 65.9742,-118.777 63.1742,-113.927"/>
<polygon fill="#db91ff" stroke="#db91ff" points="202.138,-40.1625 207.666,-33.7376 199.338,-35.3127 202.138,-40.1625"/>
</a>
</g>
<!-- ZNF148&#45;&gt;BACH1_NFE2_NFE2L2 -->
<g id="edge36" class="edge"><title>ZNF148&#45;&gt;BACH1_NFE2_NFE2L2</title>
<a xlink:title="NFE2: 0.028||remove4root">
<path fill="none" stroke="#ecc5ff" stroke-width="3" d="M100.729,-76.8054C150.609,-105.603 257.256,-167.176 314.594,-200.28"/>
<polygon fill="#ecc5ff" stroke="#ecc5ff" points="313.343,-202.791 321.672,-204.367 316.144,-197.942 313.343,-202.791"/>
</a>
</g>
<!-- ZNF148&#45;&gt;KLF12 -->
<g id="edge38" class="edge"><title>ZNF148&#45;&gt;KLF12</title>
<a xlink:title="KLF12: 0.273||remove32root">
<path fill="none" stroke="#8d98ff" stroke-width="3" d="M91.8827,-79.3827C112.302,-99.8017 145.513,-133.013 167.969,-155.469"/>
<polygon fill="#8d98ff" stroke="#8d98ff" points="166.078,-157.538 173.715,-161.215 170.038,-153.578 166.078,-157.538"/>
</a>
</g>
<!-- KLF12&#45;&gt;BACH1_NFE2_NFE2L2 -->
<g id="edge68" class="edge"><title>KLF12&#45;&gt;BACH1_NFE2_NFE2L2</title>
<a xlink:title="NFE2: 0.146||remove29root">
<path fill="none" stroke="#ffaaaa" stroke-width="3" d="M219.074,-186.553C236.835,-191.312 260.839,-197.744 283.617,-203.847"/>
<polygon fill="#ffaaaa" stroke="#ffaaaa" points="283.159,-206.623 291.611,-205.989 284.608,-201.214 283.159,-206.623"/>
</a>
</g>
<!-- KLF12&#45;&gt;RBPJ -->
<g id="edge74" class="edge"><title>KLF12&#45;&gt;RBPJ</title>
<a xlink:title="RBPJ: 0.038||KLF12: 0.134||remove27root">
<path fill="none" stroke="#ffc3c3" stroke-width="3" d="M216.378,-202.464C236.872,-222.958 266.22,-252.306 286.668,-272.754"/>
<path fill="none" stroke="#adb5ff" stroke-width="3" d="M214.964,-203.878C235.458,-224.372 264.806,-253.72 285.254,-274.168"/>
<polygon fill="#adb5ff" stroke="#adb5ff" points="217.544,-201.084 209.907,-197.407 213.584,-205.044 217.544,-201.084"/>
<polygon fill="#ffc3c3" stroke="#ffc3c3" points="284.103,-275.563 291.74,-279.24 288.063,-271.603 284.103,-275.563"/>
</a>
</g>
<!-- KLF12&#45;&gt;CDX1 -->
<g id="edge70" class="edge"><title>KLF12&#45;&gt;CDX1</title>
<a xlink:title="CDX1: 0.193||remove30root">
<path fill="none" stroke="#ff9f9f" stroke-width="3" d="M196.596,-197.406C204.245,-225.951 219.104,-281.407 227.906,-314.254"/>
<polygon fill="#ff9f9f" stroke="#ff9f9f" points="225.229,-315.084 230.005,-322.087 230.638,-313.635 225.229,-315.084"/>
</a>
</g>
<!-- KLF12&#45;&gt;JDP2 -->
<g id="edge72" class="edge"><title>KLF12&#45;&gt;JDP2</title>
<a xlink:title="JDP2: 0.114||remove24root">
<path fill="none" stroke="#ffb1b1" stroke-width="3" d="M186.853,-197.406C179.204,-225.951 164.345,-281.407 155.544,-314.254"/>
<polygon fill="#ffb1b1" stroke="#ffb1b1" points="152.811,-313.635 153.445,-322.087 158.22,-315.084 152.811,-313.635"/>
</a>
</g>
<!-- KLF16_SP2&#45;&gt;BACH1_NFE2_NFE2L2 -->
<g id="edge54" class="edge"><title>KLF16_SP2&#45;&gt;BACH1_NFE2_NFE2L2</title>
<a xlink:title="NFE2: 0.073||NFE2L2: 0.069||remove15root">
<path fill="none" stroke="#e9bbff" stroke-width="3" d="M166.666,-36.1413C203.641,-73.116 287.709,-157.184 329.067,-198.542"/>
<polygon fill="#e9bbff" stroke="#e9bbff" points="327.212,-200.647 334.849,-204.324 331.172,-196.687 327.212,-200.647"/>
</a>
</g>
<!-- KLF16_SP2&#45;&gt;ZNF148 -->
<g id="edge56" class="edge"><title>KLF16_SP2&#45;&gt;ZNF148</title>
<a xlink:title="ZNF148: 0.056||remove10root">
<path fill="none" stroke="#eabfff" stroke-width="3" d="M117.226,-36.0704C114.162,-37.8391 111.042,-39.6403 107.952,-41.4248"/>
<polygon fill="#eabfff" stroke="#eabfff" points="106.361,-39.1102 100.832,-45.5351 109.161,-43.9599 106.361,-39.1102"/>
</a>
</g>
<!-- KLF16_SP2&#45;&gt;KLF12 -->
<g id="edge60" class="edge"><title>KLF16_SP2&#45;&gt;KLF12</title>
<a xlink:title="KLF12: 0.114||remove22root">
<path fill="none" stroke="#b1b9ff" stroke-width="3" d="M153.396,-36.1811C161.045,-64.7264 175.904,-120.183 184.706,-153.029"/>
<polygon fill="#b1b9ff" stroke="#b1b9ff" points="182.029,-153.86 186.805,-160.863 187.438,-152.41 182.029,-153.86"/>
</a>
</g>
<!-- KLF16_SP2&#45;&gt;RBPJ -->
<g id="edge64" class="edge"><title>KLF16_SP2&#45;&gt;RBPJ</title>
<a xlink:title="RBPJ: 0.110||remove20root">
<path fill="none" stroke="#e6b2ff" stroke-width="3" d="M159.103,-36.3223C187.128,-84.8626 263.325,-216.84 295.309,-272.238"/>
<polygon fill="#e6b2ff" stroke="#e6b2ff" points="292.917,-273.694 299.341,-279.222 297.766,-270.894 292.917,-273.694"/>
</a>
</g>
<!-- KLF16_SP2&#45;&gt;SP3 -->
<g id="edge58" class="edge"><title>KLF16_SP2&#45;&gt;SP3</title>
<a xlink:title="SP3: 0.230||SP2: 0.088||remove22">
<path fill="none" stroke="#dd97ff" stroke-width="3" d="M191.304,-17C194.097,-17 196.893,-17 199.644,-17"/>
<path fill="none" stroke="#e8b7ff" stroke-width="3" d="M191.304,-19C194.097,-19 196.893,-19 199.644,-19"/>
<polygon fill="#e8b7ff" stroke="#e8b7ff" points="191.169,-15.1999 183.169,-18 191.169,-20.7999 191.169,-15.1999"/>
<polygon fill="#dd97ff" stroke="#dd97ff" points="199.719,-20.8001 207.719,-18 199.719,-15.2001 199.719,-20.8001"/>
</a>
</g>
<!-- KLF16_SP2&#45;&gt;JDP2 -->
<g id="edge62" class="edge"><title>KLF16_SP2&#45;&gt;JDP2</title>
<a xlink:title="JDP2: 0.055||remove9root">
<path fill="none" stroke="#eabfff" stroke-width="3" d="M149.017,-36.1662C150.134,-78.3457 152.83,-186.195 153.74,-276.369 153.902,-292.463 155.382,-298.183 154.021,-313.962"/>
<polygon fill="#eabfff" stroke="#eabfff" points="151.228,-313.746 153.181,-321.994 156.798,-314.329 151.228,-313.746"/>
</a>
</g>
<!-- MECP2 -->
<g id="node44" class="node"><title>MECP2</title>
<a xlink:href="MECP2.svg" xlink:title="Z&#45;value: 1.015||remove28">
<polygon fill="#8a96ff" stroke="#8a96ff" stroke-width="2" points="324.749,-79.2 294.749,-79.2 282.749,-67.2 282.749,-55.2 294.749,-43.2 324.749,-43.2 336.749,-55.2 336.749,-67.2 324.749,-79.2"/>
<path fill="#8a96ff" stroke="#8a96ff" stroke-width="2" d="M294.749,-79.2C288.749,-79.2 282.749,-73.2 282.749,-67.2"/>
<path fill="#8a96ff" stroke="#8a96ff" stroke-width="2" d="M282.749,-55.2C282.749,-49.2 288.749,-43.2 294.749,-43.2"/>
<path fill="#8a96ff" stroke="#8a96ff" stroke-width="2" d="M324.749,-43.2C330.749,-43.2 336.749,-49.2 336.749,-55.2"/>
<path fill="#8a96ff" stroke="#8a96ff" stroke-width="2" d="M336.749,-67.2C336.749,-73.2 330.749,-79.2 324.749,-79.2"/>
<polyline fill="none" stroke="white" stroke-width="2" points="324.749,-79.2 294.749,-79.2 "/>
<path fill="none" stroke="white" stroke-width="2" d="M294.749,-79.2C288.749,-79.2 282.749,-73.2 282.749,-67.2"/>
<polyline fill="none" stroke="white" stroke-width="2" points="282.749,-67.2 282.749,-55.2 "/>
<path fill="none" stroke="white" stroke-width="2" d="M282.749,-55.2C282.749,-49.2 288.749,-43.2 294.749,-43.2"/>
<polyline fill="none" stroke="white" stroke-width="2" points="294.749,-43.2 324.749,-43.2 "/>
<path fill="none" stroke="white" stroke-width="2" d="M324.749,-43.2C330.749,-43.2 336.749,-49.2 336.749,-55.2"/>
<polyline fill="none" stroke="white" stroke-width="2" points="336.749,-55.2 336.749,-67.2 "/>
<path fill="none" stroke="white" stroke-width="2" d="M336.749,-67.2C336.749,-73.2 330.749,-79.2 324.749,-79.2"/>
<text text-anchor="middle" x="309.749" y="-58.7" font-family="Helvetica,sans-Serif" font-size="10.00">MECP2</text>
</a>
</g>
<!-- KLF16_SP2&#45;&gt;MECP2 -->
<g id="edge66" class="edge"><title>KLF16_SP2&#45;&gt;MECP2</title>
<a xlink:title="MECP2: 0.073||SP2: 0.055||remove14root">
<path fill="none" stroke="#e9bbff" stroke-width="3" d="M190.988,-33.7861C195.31,-35.2753 199.68,-36.6895 203.886,-37.9203 227.103,-44.7208 253.848,-50.3312 274.642,-54.2172"/>
<path fill="none" stroke="#eabfff" stroke-width="3" d="M190.336,-35.6771C194.695,-37.1781 199.064,-38.5923 203.324,-39.8397 226.693,-46.6782 253.437,-52.2886 274.275,-56.1831"/>
<polygon fill="#eabfff" stroke="#eabfff" points="191.393,-32.0196 182.917,-31.9734 189.514,-37.2951 191.393,-32.0196"/>
<polygon fill="#e9bbff" stroke="#e9bbff" points="274.039,-57.9698 282.413,-56.6572 275.048,-52.4615 274.039,-57.9698"/>
</a>
</g>
<!-- SP3&#45;&gt;ZNF711_TFAP2A_TFAP2D -->
<g id="edge80" class="edge"><title>SP3&#45;&gt;ZNF711_TFAP2A_TFAP2D</title>
<a xlink:title="TFAP2A: 0.666||ZNF711: 0.060||remove37">
<path fill="none" stroke="#bd32ff" stroke-width="3" d="M224.346,-36.3223C196.321,-84.8626 120.125,-216.84 88.1401,-272.238"/>
<polygon fill="#bd32ff" stroke="#bd32ff" points="85.6829,-270.894 84.1078,-279.222 90.5327,-273.694 85.6829,-270.894"/>
</a>
</g>
<!-- SP3&#45;&gt;BACH1_NFE2_NFE2L2 -->
<g id="edge76" class="edge"><title>SP3&#45;&gt;BACH1_NFE2_NFE2L2</title>
<a xlink:title="BACH1: 0.333||NFE2L2: 0.212||NFE2: 0.038||remove29">
<path fill="none" stroke="#d67fff" stroke-width="3" d="M245.398,-36.1413C266.527,-72.7371 314.291,-155.466 338.419,-197.258"/>
<polygon fill="#d67fff" stroke="#d67fff" points="336.074,-198.796 342.499,-204.324 340.924,-195.996 336.074,-198.796"/>
</a>
</g>
<!-- SP3&#45;&gt;SP4_PML -->
<g id="edge78" class="edge"><title>SP3&#45;&gt;SP4_PML</title>
<a xlink:title="SP4: 0.099||remove16root">
<path fill="none" stroke="#e7b5ff" stroke-width="3" d="M216.783,-36.1413C179.809,-73.116 95.7404,-157.184 54.3821,-198.542"/>
<polygon fill="#e7b5ff" stroke="#e7b5ff" points="52.2776,-196.687 48.6007,-204.324 56.2375,-200.647 52.2776,-196.687"/>
</a>
</g>
<!-- SP3&#45;&gt;ZNF148 -->
<g id="edge82" class="edge"><title>SP3&#45;&gt;ZNF148</title>
<a xlink:title="ZNF148: 0.013||remove0root">
<path fill="none" stroke="#edc9ff" stroke-width="3" d="M207.867,-31.4393C201.627,-34.1833 194.941,-36.8488 188.545,-38.88 162.51,-47.1474 132.135,-52.8883 109.165,-56.4756"/>
<polygon fill="#edc9ff" stroke="#edc9ff" points="108.551,-53.7365 101.059,-57.7004 109.388,-59.2736 108.551,-53.7365"/>
</a>
</g>
<!-- SP3&#45;&gt;KLF12 -->
<g id="edge84" class="edge"><title>SP3&#45;&gt;KLF12</title>
<a xlink:title="KLF12: 0.610||remove38root">
<path fill="none" stroke="#3f52ff" stroke-width="3" d="M230.053,-36.1811C222.404,-64.7264 207.545,-120.183 198.744,-153.029"/>
<polygon fill="#3f52ff" stroke="#3f52ff" points="196.011,-152.41 196.645,-160.863 201.42,-153.86 196.011,-152.41"/>
</a>
</g>
<!-- SP3&#45;&gt;RBPJ -->
<g id="edge86" class="edge"><title>SP3&#45;&gt;RBPJ</title>
<a xlink:title="RBPJ: 0.263||remove27">
<path fill="none" stroke="#db8fff" stroke-width="3" d="M237.082,-36.259C242.042,-75.1903 255.899,-168.877 282.189,-243.305 285.583,-252.911 290.354,-262.972 294.975,-271.768"/>
<polygon fill="#db8fff" stroke="#db8fff" points="292.52,-273.115 298.788,-278.821 297.447,-270.451 292.52,-273.115"/>
</a>
</g>
<!-- CDX1&#45;&gt;RBPJ -->
<g id="edge88" class="edge"><title>CDX1&#45;&gt;RBPJ</title>
<a xlink:title="RBPJ: 0.065||remove13root">
<path fill="none" stroke="#e9bdff" stroke-width="3" d="M261.938,-324.853C266.333,-322.315 270.937,-319.658 275.478,-317.036"/>
<polygon fill="#e9bdff" stroke="#e9bdff" points="276.996,-319.393 282.524,-312.968 274.196,-314.543 276.996,-319.393"/>
</a>
</g>
<!-- MECP2&#45;&gt;ZNF711_TFAP2A_TFAP2D -->
<g id="edge94" class="edge"><title>MECP2&#45;&gt;ZNF711_TFAP2A_TFAP2D</title>
<a xlink:title="TFAP2A: 0.162||remove28">
<path fill="none" stroke="#e2a6ff" stroke-width="3" d="M301.509,-79.5861C288.133,-107.95 259.485,-162.977 223.045,-200.105 192.356,-231.372 149.907,-257.779 118.107,-275.131"/>
<polygon fill="#e2a6ff" stroke="#e2a6ff" points="116.395,-272.873 110.675,-279.128 119.047,-277.805 116.395,-272.873"/>
</a>
</g>
<!-- MECP2&#45;&gt;BACH1_NFE2_NFE2L2 -->
<g id="edge90" class="edge"><title>MECP2&#45;&gt;BACH1_NFE2_NFE2L2</title>
<a xlink:title="BACH1: 0.048||NFE2L2: 0.017||remove7root">
<path fill="none" stroke="#ebc0ff" stroke-width="3" d="M310.279,-79.5445C311.244,-99.0746 313.964,-130.712 321.629,-156.905 325.667,-170.702 332.321,-185.206 338.46,-197.051"/>
<polygon fill="#ebc0ff" stroke="#ebc0ff" points="336.153,-198.675 342.387,-204.417 341.094,-196.04 336.153,-198.675"/>
</a>
</g>
<!-- MECP2&#45;&gt;SP4_PML -->
<g id="edge92" class="edge"><title>MECP2&#45;&gt;SP4_PML</title>
<a xlink:title="SP4: 0.037||remove5root">
<path fill="none" stroke="#ebc3ff" stroke-width="3" d="M282.72,-76.8054C232.578,-105.755 125.069,-167.825 67.9544,-200.8"/>
<polygon fill="#ebc3ff" stroke="#ebc3ff" points="66.4391,-198.442 60.9109,-204.867 69.2392,-203.292 66.4391,-198.442"/>
</a>
</g>
<!-- MECP2&#45;&gt;SP1 -->
<g id="edge96" class="edge"><title>MECP2&#45;&gt;SP1</title>
<a xlink:title="SP1: 0.133||remove26root">
<path fill="none" stroke="#e4adff" stroke-width="3" d="M282.72,-68.4425C231.84,-82.0756 121.895,-111.535 65.4679,-126.655"/>
<polygon fill="#e4adff" stroke="#e4adff" points="64.5469,-124.003 57.5442,-128.778 65.9963,-129.412 64.5469,-124.003"/>
</a>
</g>
<!-- MECP2&#45;&gt;ZNF148 -->
<g id="edge98" class="edge"><title>MECP2&#45;&gt;ZNF148</title>
<a xlink:title="ZNF148: 0.023||remove3root">
<path fill="none" stroke="#ecc6ff" stroke-width="3" d="M282.671,-61.2C239.832,-61.2 156.429,-61.2 108.968,-61.2"/>
<polygon fill="#ecc6ff" stroke="#ecc6ff" points="108.825,-58.3999 100.825,-61.2 108.825,-63.9999 108.825,-58.3999"/>
</a>
</g>
<!-- MECP2&#45;&gt;KLF12 -->
<g id="edge100" class="edge"><title>MECP2&#45;&gt;KLF12</title>
<a xlink:title="KLF12: 0.146||remove28root">
<path fill="none" stroke="#aab2ff" stroke-width="3" d="M291.567,-79.3827C271.148,-99.8017 237.937,-133.013 215.48,-155.469"/>
<polygon fill="#aab2ff" stroke="#aab2ff" points="213.411,-153.578 209.734,-161.215 217.371,-157.538 213.411,-153.578"/>
</a>
</g>
<!-- MECP2&#45;&gt;RBPJ -->
<g id="edge102" class="edge"><title>MECP2&#45;&gt;RBPJ</title>
<a xlink:title="RBPJ: 0.022||remove2root">
<path fill="none" stroke="#edc7ff" stroke-width="3" d="M302.461,-79.2327C290.157,-112.16 267.937,-184.082 282.189,-243.305 284.573,-253.21 289.099,-263.344 293.805,-272.114"/>
<polygon fill="#edc7ff" stroke="#edc7ff" points="291.39,-273.531 297.757,-279.126 296.268,-270.782 291.39,-273.531"/>
</a>
</g>
<!-- SRY -->
<g id="node64" class="node"><title>SRY</title>
<a xlink:href="SRY.svg" xlink:title="Z&#45;value: 0.364||remove23">
<polygon fill="#b4bcff" stroke="#b4bcff" stroke-width="2" points="367.949,-154.025 337.949,-154.025 325.949,-142.025 325.949,-130.025 337.949,-118.025 367.949,-118.025 379.949,-130.025 379.949,-142.025 367.949,-154.025"/>
<path fill="#b4bcff" stroke="#b4bcff" stroke-width="2" d="M337.949,-154.025C331.949,-154.025 325.949,-148.025 325.949,-142.025"/>
<path fill="#b4bcff" stroke="#b4bcff" stroke-width="2" d="M325.949,-130.025C325.949,-124.025 331.949,-118.025 337.949,-118.025"/>
<path fill="#b4bcff" stroke="#b4bcff" stroke-width="2" d="M367.949,-118.025C373.949,-118.025 379.949,-124.025 379.949,-130.025"/>
<path fill="#b4bcff" stroke="#b4bcff" stroke-width="2" d="M379.949,-142.025C379.949,-148.025 373.949,-154.025 367.949,-154.025"/>
<polyline fill="none" stroke="white" stroke-width="2" points="367.949,-154.025 337.949,-154.025 "/>
<path fill="none" stroke="white" stroke-width="2" d="M337.949,-154.025C331.949,-154.025 325.949,-148.025 325.949,-142.025"/>
<polyline fill="none" stroke="white" stroke-width="2" points="325.949,-142.025 325.949,-130.025 "/>
<path fill="none" stroke="white" stroke-width="2" d="M325.949,-130.025C325.949,-124.025 331.949,-118.025 337.949,-118.025"/>
<polyline fill="none" stroke="white" stroke-width="2" points="337.949,-118.025 367.949,-118.025 "/>
<path fill="none" stroke="white" stroke-width="2" d="M367.949,-118.025C373.949,-118.025 379.949,-124.025 379.949,-130.025"/>
<polyline fill="none" stroke="white" stroke-width="2" points="379.949,-130.025 379.949,-142.025 "/>
<path fill="none" stroke="white" stroke-width="2" d="M379.949,-142.025C379.949,-148.025 373.949,-154.025 367.949,-154.025"/>
<text text-anchor="middle" x="352.949" y="-133.525" font-family="Helvetica,sans-Serif" font-size="10.00">SRY</text>
</a>
</g>
<!-- SRY&#45;&gt;ZNF711_TFAP2A_TFAP2D -->
<g id="edge104" class="edge"><title>SRY&#45;&gt;ZNF711_TFAP2A_TFAP2D</title>
<a xlink:title="ZNF711: 0.016||remove1root">
<path fill="none" stroke="#edc8ff" stroke-width="3" d="M325.92,-151.63C276.04,-180.428 169.394,-242 112.056,-275.105"/>
<polygon fill="#edc8ff" stroke="#edc8ff" points="110.506,-272.766 104.977,-279.191 113.306,-277.616 110.506,-272.766"/>
</a>
</g>
<!-- SRY&#45;&gt;KLF12 -->
<g id="edge106" class="edge"><title>SRY&#45;&gt;KLF12</title>
<a xlink:title="KLF12: 0.114||remove23root">
<path fill="none" stroke="#b1b9ff" stroke-width="3" d="M325.6,-143.353C298.418,-150.636 256.613,-161.838 226.958,-169.784"/>
<polygon fill="#b1b9ff" stroke="#b1b9ff" points="225.941,-167.157 218.939,-171.933 227.391,-172.567 225.941,-167.157"/>
</a>
</g>
</g>
</svg>
