<?xml version="1.0" encoding="UTF-8" standalone="no"?>
<!DOCTYPE svg PUBLIC "-//W3C//DTD SVG 1.1//EN"
 "http://www.w3.org/Graphics/SVG/1.1/DTD/svg11.dtd">
<!-- Generated by graphviz version 2.28.0 (20110630.0925)
 -->
<!-- Title: _anonymous_0 Pages: 1 -->
<svg width="504pt" height="463pt"
 viewBox="0.00 0.00 503.74 462.74" xmlns="http://www.w3.org/2000/svg" xmlns:xlink="http://www.w3.org/1999/xlink">
<g id="graph1" class="graph" transform="scale(1 1) rotate(0) translate(4 458.736)">
<title>_anonymous_0</title>
<polygon fill="white" stroke="white" points="-4,5 -4,-458.736 500.736,-458.736 500.736,5 -4,5"/>
<!-- SIN3A_CHD1 -->
<g id="node1" class="node"><title>SIN3A_CHD1</title>
<a xlink:href="SIN3A_CHD1.svg" xlink:title="Z&#45;value: 1.751||remove21">
<polygon fill="#3247ff" stroke="#3247ff" stroke-width="2" points="416.886,-92.1 362.386,-92.1 350.386,-80.1 350.386,-68.1 362.386,-56.1 416.886,-56.1 428.886,-68.1 428.886,-80.1 416.886,-92.1"/>
<path fill="#3247ff" stroke="#3247ff" stroke-width="2" d="M362.386,-92.1C356.386,-92.1 350.386,-86.1 350.386,-80.1"/>
<path fill="#3247ff" stroke="#3247ff" stroke-width="2" d="M350.386,-68.1C350.386,-62.1 356.386,-56.1 362.386,-56.1"/>
<path fill="#3247ff" stroke="#3247ff" stroke-width="2" d="M416.886,-56.1C422.886,-56.1 428.886,-62.1 428.886,-68.1"/>
<path fill="#3247ff" stroke="#3247ff" stroke-width="2" d="M428.886,-80.1C428.886,-86.1 422.886,-92.1 416.886,-92.1"/>
<polyline fill="none" stroke="white" stroke-width="2" points="416.886,-92.1 362.386,-92.1 "/>
<path fill="none" stroke="white" stroke-width="2" d="M362.386,-92.1C356.386,-92.1 350.386,-86.1 350.386,-80.1"/>
<polyline fill="none" stroke="white" stroke-width="2" points="350.386,-80.1 350.386,-68.1 "/>
<path fill="none" stroke="white" stroke-width="2" d="M350.386,-68.1C350.386,-62.1 356.386,-56.1 362.386,-56.1"/>
<polyline fill="none" stroke="white" stroke-width="2" points="362.386,-56.1 416.886,-56.1 "/>
<path fill="none" stroke="white" stroke-width="2" d="M416.886,-56.1C422.886,-56.1 428.886,-62.1 428.886,-68.1"/>
<polyline fill="none" stroke="white" stroke-width="2" points="428.886,-68.1 428.886,-80.1 "/>
<path fill="none" stroke="white" stroke-width="2" d="M428.886,-80.1C428.886,-86.1 422.886,-92.1 416.886,-92.1"/>
<text text-anchor="middle" x="389.636" y="-71.6" font-family="Helvetica,sans-Serif" font-size="10.00" fill="white">SIN3A_CHD1</text>
</a>
</g>
<!-- SIN3A_CHD1&#45;&gt;SIN3A_CHD1 -->
<g id="edge16" class="edge"><title>SIN3A_CHD1&#45;&gt;SIN3A_CHD1</title>
<a xlink:title="CHD1: 0.054||remove3root">
<path fill="none" stroke="#ecc6ff" stroke-width="3" d="M429.142,-80.7804C439.401,-80.3698 447.136,-78.143 447.136,-74.1 447.136,-71.2573 443.312,-69.3125 437.475,-68.2655"/>
<polygon fill="#ecc6ff" stroke="#ecc6ff" points="437.384,-65.442 429.142,-67.4196 436.818,-71.0133 437.384,-65.442"/>
</a>
</g>
<!-- CREB3L1_CREB3 -->
<g id="node2" class="node"><title>CREB3L1_CREB3</title>
<a xlink:href="CREB3L1_CREB3.svg" xlink:title="Z&#45;value: 0.467||remove16">
<polygon fill="#a3acff" stroke="#a3acff" stroke-width="2" points="483.736,-301.468 407.736,-301.468 395.736,-289.468 395.736,-277.468 407.736,-265.468 483.736,-265.468 495.736,-277.468 495.736,-289.468 483.736,-301.468"/>
<path fill="#a3acff" stroke="#a3acff" stroke-width="2" d="M407.736,-301.468C401.736,-301.468 395.736,-295.468 395.736,-289.468"/>
<path fill="#a3acff" stroke="#a3acff" stroke-width="2" d="M395.736,-277.468C395.736,-271.468 401.736,-265.468 407.736,-265.468"/>
<path fill="#a3acff" stroke="#a3acff" stroke-width="2" d="M483.736,-265.468C489.736,-265.468 495.736,-271.468 495.736,-277.468"/>
<path fill="#a3acff" stroke="#a3acff" stroke-width="2" d="M495.736,-289.468C495.736,-295.468 489.736,-301.468 483.736,-301.468"/>
<polyline fill="none" stroke="white" stroke-width="2" points="483.736,-301.468 407.736,-301.468 "/>
<path fill="none" stroke="white" stroke-width="2" d="M407.736,-301.468C401.736,-301.468 395.736,-295.468 395.736,-289.468"/>
<polyline fill="none" stroke="white" stroke-width="2" points="395.736,-289.468 395.736,-277.468 "/>
<path fill="none" stroke="white" stroke-width="2" d="M395.736,-277.468C395.736,-271.468 401.736,-265.468 407.736,-265.468"/>
<polyline fill="none" stroke="white" stroke-width="2" points="407.736,-265.468 483.736,-265.468 "/>
<path fill="none" stroke="white" stroke-width="2" d="M483.736,-265.468C489.736,-265.468 495.736,-271.468 495.736,-277.468"/>
<polyline fill="none" stroke="white" stroke-width="2" points="495.736,-277.468 495.736,-289.468 "/>
<path fill="none" stroke="white" stroke-width="2" d="M495.736,-289.468C495.736,-295.468 489.736,-301.468 483.736,-301.468"/>
<text text-anchor="middle" x="445.736" y="-280.968" font-family="Helvetica,sans-Serif" font-size="10.00">CREB3L1_CREB3</text>
</a>
</g>
<!-- SIN3A_CHD1&#45;&gt;CREB3L1_CREB3 -->
<g id="edge2" class="edge"><title>SIN3A_CHD1&#45;&gt;CREB3L1_CREB3</title>
<a xlink:title="CREB3L1: 0.047||remove2root">
<path fill="none" stroke="#edc6ff" stroke-width="3" d="M392.729,-92.2656C396.864,-115.589 404.8,-157.219 414.416,-192.148 420.55,-214.429 429.162,-239.2 435.804,-257.316"/>
<polygon fill="#edc6ff" stroke="#edc6ff" points="433.297,-258.608 438.701,-265.138 438.548,-256.663 433.297,-258.608"/>
</a>
</g>
<!-- REST -->
<g id="node4" class="node"><title>REST</title>
<a xlink:href="REST.svg" xlink:title="Z&#45;value: 0.425||remove25">
<polygon fill="#a6afff" stroke="#a6afff" stroke-width="2" points="404.636,-398.636 374.636,-398.636 362.636,-386.636 362.636,-374.636 374.636,-362.636 404.636,-362.636 416.636,-374.636 416.636,-386.636 404.636,-398.636"/>
<path fill="#a6afff" stroke="#a6afff" stroke-width="2" d="M374.636,-398.636C368.636,-398.636 362.636,-392.636 362.636,-386.636"/>
<path fill="#a6afff" stroke="#a6afff" stroke-width="2" d="M362.636,-374.636C362.636,-368.636 368.636,-362.636 374.636,-362.636"/>
<path fill="#a6afff" stroke="#a6afff" stroke-width="2" d="M404.636,-362.636C410.636,-362.636 416.636,-368.636 416.636,-374.636"/>
<path fill="#a6afff" stroke="#a6afff" stroke-width="2" d="M416.636,-386.636C416.636,-392.636 410.636,-398.636 404.636,-398.636"/>
<polyline fill="none" stroke="white" stroke-width="2" points="404.636,-398.636 374.636,-398.636 "/>
<path fill="none" stroke="white" stroke-width="2" d="M374.636,-398.636C368.636,-398.636 362.636,-392.636 362.636,-386.636"/>
<polyline fill="none" stroke="white" stroke-width="2" points="362.636,-386.636 362.636,-374.636 "/>
<path fill="none" stroke="white" stroke-width="2" d="M362.636,-374.636C362.636,-368.636 368.636,-362.636 374.636,-362.636"/>
<polyline fill="none" stroke="white" stroke-width="2" points="374.636,-362.636 404.636,-362.636 "/>
<path fill="none" stroke="white" stroke-width="2" d="M404.636,-362.636C410.636,-362.636 416.636,-368.636 416.636,-374.636"/>
<polyline fill="none" stroke="white" stroke-width="2" points="416.636,-374.636 416.636,-386.636 "/>
<path fill="none" stroke="white" stroke-width="2" d="M416.636,-386.636C416.636,-392.636 410.636,-398.636 404.636,-398.636"/>
<text text-anchor="middle" x="389.636" y="-378.136" font-family="Helvetica,sans-Serif" font-size="10.00">REST</text>
</a>
</g>
<!-- SIN3A_CHD1&#45;&gt;REST -->
<g id="edge4" class="edge"><title>SIN3A_CHD1&#45;&gt;REST</title>
<a xlink:title="REST: 0.365||remove21">
<path fill="none" stroke="#e1a4ff" stroke-width="3" d="M389.23,-92.3079C388.418,-131.227 386.753,-225.404 387.736,-304.348 387.943,-320.959 388.403,-339.6 388.819,-354.297"/>
<polygon fill="#e1a4ff" stroke="#e1a4ff" points="386.024,-354.535 389.056,-362.45 391.622,-354.372 386.024,-354.535"/>
</a>
</g>
<!-- YY1_YY2 -->
<g id="node6" class="node"><title>YY1_YY2</title>
<a xlink:href="YY1_YY2.svg" xlink:title="Z&#45;value: 1.199||remove19">
<polygon fill="#6372ff" stroke="#6372ff" stroke-width="2" points="309.718,-454.736 275.218,-454.736 263.218,-442.736 263.218,-430.736 275.218,-418.736 309.718,-418.736 321.718,-430.736 321.718,-442.736 309.718,-454.736"/>
<path fill="#6372ff" stroke="#6372ff" stroke-width="2" d="M275.218,-454.736C269.218,-454.736 263.218,-448.736 263.218,-442.736"/>
<path fill="#6372ff" stroke="#6372ff" stroke-width="2" d="M263.218,-430.736C263.218,-424.736 269.218,-418.736 275.218,-418.736"/>
<path fill="#6372ff" stroke="#6372ff" stroke-width="2" d="M309.718,-418.736C315.718,-418.736 321.718,-424.736 321.718,-430.736"/>
<path fill="#6372ff" stroke="#6372ff" stroke-width="2" d="M321.718,-442.736C321.718,-448.736 315.718,-454.736 309.718,-454.736"/>
<polyline fill="none" stroke="white" stroke-width="2" points="309.718,-454.736 275.218,-454.736 "/>
<path fill="none" stroke="white" stroke-width="2" d="M275.218,-454.736C269.218,-454.736 263.218,-448.736 263.218,-442.736"/>
<polyline fill="none" stroke="white" stroke-width="2" points="263.218,-442.736 263.218,-430.736 "/>
<path fill="none" stroke="white" stroke-width="2" d="M263.218,-430.736C263.218,-424.736 269.218,-418.736 275.218,-418.736"/>
<polyline fill="none" stroke="white" stroke-width="2" points="275.218,-418.736 309.718,-418.736 "/>
<path fill="none" stroke="white" stroke-width="2" d="M309.718,-418.736C315.718,-418.736 321.718,-424.736 321.718,-430.736"/>
<polyline fill="none" stroke="white" stroke-width="2" points="321.718,-430.736 321.718,-442.736 "/>
<path fill="none" stroke="white" stroke-width="2" d="M321.718,-442.736C321.718,-448.736 315.718,-454.736 309.718,-454.736"/>
<text text-anchor="middle" x="292.468" y="-434.236" font-family="Helvetica,sans-Serif" font-size="10.00" fill="white">YY1_YY2</text>
</a>
</g>
<!-- SIN3A_CHD1&#45;&gt;YY1_YY2 -->
<g id="edge6" class="edge"><title>SIN3A_CHD1&#45;&gt;YY1_YY2</title>
<a xlink:title="YY1: 1.406||remove19">
<path fill="none" stroke="#bd32ff" stroke-width="3" d="M384.684,-92.5817C368.63,-152.498 317.988,-341.496 299.399,-410.871"/>
<polygon fill="#bd32ff" stroke="#bd32ff" points="296.661,-410.27 297.295,-418.722 302.07,-411.719 296.661,-410.27"/>
</a>
</g>
<!-- IRF2_STAT2_IRF8_IRF1 -->
<g id="node8" class="node"><title>IRF2_STAT2_IRF8_IRF1</title>
<a xlink:href="IRF2_STAT2_IRF8_IRF1.svg" xlink:title="Z&#45;value: 0.544||remove17">
<polygon fill="#9ca6ff" stroke="#9ca6ff" stroke-width="2" points="232.268,-454.736 128.268,-454.736 116.268,-442.736 116.268,-430.736 128.268,-418.736 232.268,-418.736 244.268,-430.736 244.268,-442.736 232.268,-454.736"/>
<path fill="#9ca6ff" stroke="#9ca6ff" stroke-width="2" d="M128.268,-454.736C122.268,-454.736 116.268,-448.736 116.268,-442.736"/>
<path fill="#9ca6ff" stroke="#9ca6ff" stroke-width="2" d="M116.268,-430.736C116.268,-424.736 122.268,-418.736 128.268,-418.736"/>
<path fill="#9ca6ff" stroke="#9ca6ff" stroke-width="2" d="M232.268,-418.736C238.268,-418.736 244.268,-424.736 244.268,-430.736"/>
<path fill="#9ca6ff" stroke="#9ca6ff" stroke-width="2" d="M244.268,-442.736C244.268,-448.736 238.268,-454.736 232.268,-454.736"/>
<polyline fill="none" stroke="white" stroke-width="2" points="232.268,-454.736 128.268,-454.736 "/>
<path fill="none" stroke="white" stroke-width="2" d="M128.268,-454.736C122.268,-454.736 116.268,-448.736 116.268,-442.736"/>
<polyline fill="none" stroke="white" stroke-width="2" points="116.268,-442.736 116.268,-430.736 "/>
<path fill="none" stroke="white" stroke-width="2" d="M116.268,-430.736C116.268,-424.736 122.268,-418.736 128.268,-418.736"/>
<polyline fill="none" stroke="white" stroke-width="2" points="128.268,-418.736 232.268,-418.736 "/>
<path fill="none" stroke="white" stroke-width="2" d="M232.268,-418.736C238.268,-418.736 244.268,-424.736 244.268,-430.736"/>
<polyline fill="none" stroke="white" stroke-width="2" points="244.268,-430.736 244.268,-442.736 "/>
<path fill="none" stroke="white" stroke-width="2" d="M244.268,-442.736C244.268,-448.736 238.268,-454.736 232.268,-454.736"/>
<text text-anchor="middle" x="180.268" y="-434.236" font-family="Helvetica,sans-Serif" font-size="10.00">IRF2_STAT2_IRF8_IRF1</text>
</a>
</g>
<!-- SIN3A_CHD1&#45;&gt;IRF2_STAT2_IRF8_IRF1 -->
<g id="edge8" class="edge"><title>SIN3A_CHD1&#45;&gt;IRF2_STAT2_IRF8_IRF1</title>
<a xlink:title="STAT2: 0.202||remove12root">
<path fill="none" stroke="#e7b6ff" stroke-width="3" d="M378.966,-92.5817C344.233,-152.741 234.367,-343.035 194.716,-411.711"/>
<polygon fill="#e7b6ff" stroke="#e7b6ff" points="192.244,-410.394 190.669,-418.722 197.093,-413.194 192.244,-410.394"/>
</a>
</g>
<!-- POU5F1_POU2F3 -->
<g id="node10" class="node"><title>POU5F1_POU2F3</title>
<a xlink:href="POU5F1_POU2F3.svg" xlink:title="Z&#45;value: 0.774||remove18">
<polygon fill="#8894ff" stroke="#8894ff" stroke-width="2" points="119.6,-398.636 46.6,-398.636 34.6,-386.636 34.6,-374.636 46.6,-362.636 119.6,-362.636 131.6,-374.636 131.6,-386.636 119.6,-398.636"/>
<path fill="#8894ff" stroke="#8894ff" stroke-width="2" d="M46.6,-398.636C40.6,-398.636 34.6,-392.636 34.6,-386.636"/>
<path fill="#8894ff" stroke="#8894ff" stroke-width="2" d="M34.6,-374.636C34.6,-368.636 40.6,-362.636 46.6,-362.636"/>
<path fill="#8894ff" stroke="#8894ff" stroke-width="2" d="M119.6,-362.636C125.6,-362.636 131.6,-368.636 131.6,-374.636"/>
<path fill="#8894ff" stroke="#8894ff" stroke-width="2" d="M131.6,-386.636C131.6,-392.636 125.6,-398.636 119.6,-398.636"/>
<polyline fill="none" stroke="white" stroke-width="2" points="119.6,-398.636 46.6,-398.636 "/>
<path fill="none" stroke="white" stroke-width="2" d="M46.6,-398.636C40.6,-398.636 34.6,-392.636 34.6,-386.636"/>
<polyline fill="none" stroke="white" stroke-width="2" points="34.6,-386.636 34.6,-374.636 "/>
<path fill="none" stroke="white" stroke-width="2" d="M34.6,-374.636C34.6,-368.636 40.6,-362.636 46.6,-362.636"/>
<polyline fill="none" stroke="white" stroke-width="2" points="46.6,-362.636 119.6,-362.636 "/>
<path fill="none" stroke="white" stroke-width="2" d="M119.6,-362.636C125.6,-362.636 131.6,-368.636 131.6,-374.636"/>
<polyline fill="none" stroke="white" stroke-width="2" points="131.6,-374.636 131.6,-386.636 "/>
<path fill="none" stroke="white" stroke-width="2" d="M131.6,-386.636C131.6,-392.636 125.6,-398.636 119.6,-398.636"/>
<text text-anchor="middle" x="83.1" y="-378.136" font-family="Helvetica,sans-Serif" font-size="10.00">POU5F1_POU2F3</text>
</a>
</g>
<!-- SIN3A_CHD1&#45;&gt;POU5F1_POU2F3 -->
<g id="edge10" class="edge"><title>SIN3A_CHD1&#45;&gt;POU5F1_POU2F3</title>
<a xlink:title="POU2F3: 0.086||SIN3A: 0.034||CHD1: 0.009||remove7root">
<path fill="none" stroke="#ebc2ff" stroke-width="3" d="M348.697,-96.9065C307.041,-120.347 242.539,-160.567 197.064,-207.187 152.177,-253.112 114.814,-319.745 96.3903,-355.71"/>
<path fill="none" stroke="#edc8ff" stroke-width="3" d="M347.716,-95.1635C305.983,-118.65 241.481,-158.87 195.633,-205.789 150.433,-252.134 113.07,-318.766 94.6102,-354.798"/>
<polygon fill="#edc8ff" stroke="#edc8ff" points="349.582,-98.4742 355.206,-92.1331 346.855,-93.5829 349.582,-98.4742"/>
<polygon fill="#ebc2ff" stroke="#ebc2ff" points="92.9713,-354.051 91.8563,-362.453 97.9677,-356.58 92.9713,-354.051"/>
</a>
</g>
<!-- VDR -->
<g id="node12" class="node"><title>VDR</title>
<a xlink:href="VDR.svg" xlink:title="Z&#45;value: 0.992||remove14">
<polygon fill="#7583ff" stroke="#7583ff" stroke-width="2" points="42,-301.468 12,-301.468 6.39488e-14,-289.468 6.39488e-14,-277.468 12,-265.468 42,-265.468 54,-277.468 54,-289.468 42,-301.468"/>
<path fill="#7583ff" stroke="#7583ff" stroke-width="2" d="M12,-301.468C6,-301.468 6.39488e-14,-295.468 6.39488e-14,-289.468"/>
<path fill="#7583ff" stroke="#7583ff" stroke-width="2" d="M6.39488e-14,-277.468C6.39488e-14,-271.468 6,-265.468 12,-265.468"/>
<path fill="#7583ff" stroke="#7583ff" stroke-width="2" d="M42,-265.468C48,-265.468 54,-271.468 54,-277.468"/>
<path fill="#7583ff" stroke="#7583ff" stroke-width="2" d="M54,-289.468C54,-295.468 48,-301.468 42,-301.468"/>
<polyline fill="none" stroke="white" stroke-width="2" points="42,-301.468 12,-301.468 "/>
<path fill="none" stroke="white" stroke-width="2" d="M12,-301.468C6,-301.468 6.39488e-14,-295.468 6.39488e-14,-289.468"/>
<polyline fill="none" stroke="white" stroke-width="2" points="6.39488e-14,-289.468 6.39488e-14,-277.468 "/>
<path fill="none" stroke="white" stroke-width="2" d="M6.39488e-14,-277.468C6.39488e-14,-271.468 6,-265.468 12,-265.468"/>
<polyline fill="none" stroke="white" stroke-width="2" points="12,-265.468 42,-265.468 "/>
<path fill="none" stroke="white" stroke-width="2" d="M42,-265.468C48,-265.468 54,-271.468 54,-277.468"/>
<polyline fill="none" stroke="white" stroke-width="2" points="54,-277.468 54,-289.468 "/>
<path fill="none" stroke="white" stroke-width="2" d="M54,-289.468C54,-295.468 48,-301.468 42,-301.468"/>
<text text-anchor="middle" x="27" y="-280.968" font-family="Helvetica,sans-Serif" font-size="10.00">VDR</text>
</a>
</g>
<!-- SIN3A_CHD1&#45;&gt;VDR -->
<g id="edge12" class="edge"><title>SIN3A_CHD1&#45;&gt;VDR</title>
<a xlink:title="VDR: 0.328||remove14">
<path fill="none" stroke="#e3a8ff" stroke-width="3" d="M358.404,-92.1318C290.939,-131.083 132.013,-222.839 61.6093,-263.486"/>
<polygon fill="#e3a8ff" stroke="#e3a8ff" points="59.8028,-261.296 54.2746,-267.721 62.6029,-266.146 59.8028,-261.296"/>
</a>
</g>
<!-- MAFK -->
<g id="node14" class="node"><title>MAFK</title>
<a xlink:href="MAFK.svg" xlink:title="Z&#45;value: 0.822||remove24">
<polygon fill="#8490ff" stroke="#8490ff" stroke-width="2" points="42,-189.268 12,-189.268 0,-177.268 0,-165.268 12,-153.268 42,-153.268 54,-165.268 54,-177.268 42,-189.268"/>
<path fill="#8490ff" stroke="#8490ff" stroke-width="2" d="M12,-189.268C6,-189.268 0,-183.268 0,-177.268"/>
<path fill="#8490ff" stroke="#8490ff" stroke-width="2" d="M0,-165.268C0,-159.268 6,-153.268 12,-153.268"/>
<path fill="#8490ff" stroke="#8490ff" stroke-width="2" d="M42,-153.268C48,-153.268 54,-159.268 54,-165.268"/>
<path fill="#8490ff" stroke="#8490ff" stroke-width="2" d="M54,-177.268C54,-183.268 48,-189.268 42,-189.268"/>
<polyline fill="none" stroke="white" stroke-width="2" points="42,-189.268 12,-189.268 "/>
<path fill="none" stroke="white" stroke-width="2" d="M12,-189.268C6,-189.268 0,-183.268 0,-177.268"/>
<polyline fill="none" stroke="white" stroke-width="2" points="0,-177.268 0,-165.268 "/>
<path fill="none" stroke="white" stroke-width="2" d="M0,-165.268C0,-159.268 6,-153.268 12,-153.268"/>
<polyline fill="none" stroke="white" stroke-width="2" points="12,-153.268 42,-153.268 "/>
<path fill="none" stroke="white" stroke-width="2" d="M42,-153.268C48,-153.268 54,-159.268 54,-165.268"/>
<polyline fill="none" stroke="white" stroke-width="2" points="54,-165.268 54,-177.268 "/>
<path fill="none" stroke="white" stroke-width="2" d="M54,-177.268C54,-183.268 48,-189.268 42,-189.268"/>
<text text-anchor="middle" x="27" y="-168.768" font-family="Helvetica,sans-Serif" font-size="10.00">MAFK</text>
</a>
</g>
<!-- SIN3A_CHD1&#45;&gt;MAFK -->
<g id="edge14" class="edge"><title>SIN3A_CHD1&#45;&gt;MAFK</title>
<a xlink:title="MAFK: 0.122||remove10root">
<path fill="none" stroke="#eabeff" stroke-width="3" d="M350.137,-84.6837C278.872,-103.779 129.899,-143.696 62.0322,-161.881"/>
<polygon fill="#eabeff" stroke="#eabeff" points="61.1712,-159.213 54.1686,-163.988 62.6207,-164.622 61.1712,-159.213"/>
</a>
</g>
<!-- KLF14_SP8 -->
<g id="node17" class="node"><title>KLF14_SP8</title>
<a xlink:href="KLF14_SP8.svg" xlink:title="Z&#45;value: 1.011||remove26">
<polygon fill="#ff7373" stroke="#ff7373" stroke-width="2" points="258.618,-245.368 214.118,-245.368 202.118,-233.368 202.118,-221.368 214.118,-209.368 258.618,-209.368 270.618,-221.368 270.618,-233.368 258.618,-245.368"/>
<path fill="#ff7373" stroke="#ff7373" stroke-width="2" d="M214.118,-245.368C208.118,-245.368 202.118,-239.368 202.118,-233.368"/>
<path fill="#ff7373" stroke="#ff7373" stroke-width="2" d="M202.118,-221.368C202.118,-215.368 208.118,-209.368 214.118,-209.368"/>
<path fill="#ff7373" stroke="#ff7373" stroke-width="2" d="M258.618,-209.368C264.618,-209.368 270.618,-215.368 270.618,-221.368"/>
<path fill="#ff7373" stroke="#ff7373" stroke-width="2" d="M270.618,-233.368C270.618,-239.368 264.618,-245.368 258.618,-245.368"/>
<polyline fill="none" stroke="white" stroke-width="2" points="258.618,-245.368 214.118,-245.368 "/>
<path fill="none" stroke="white" stroke-width="2" d="M214.118,-245.368C208.118,-245.368 202.118,-239.368 202.118,-233.368"/>
<polyline fill="none" stroke="white" stroke-width="2" points="202.118,-233.368 202.118,-221.368 "/>
<path fill="none" stroke="white" stroke-width="2" d="M202.118,-221.368C202.118,-215.368 208.118,-209.368 214.118,-209.368"/>
<polyline fill="none" stroke="white" stroke-width="2" points="214.118,-209.368 258.618,-209.368 "/>
<path fill="none" stroke="white" stroke-width="2" d="M258.618,-209.368C264.618,-209.368 270.618,-215.368 270.618,-221.368"/>
<polyline fill="none" stroke="white" stroke-width="2" points="270.618,-221.368 270.618,-233.368 "/>
<path fill="none" stroke="white" stroke-width="2" d="M270.618,-233.368C270.618,-239.368 264.618,-245.368 258.618,-245.368"/>
<text text-anchor="middle" x="236.368" y="-224.868" font-family="Helvetica,sans-Serif" font-size="10.00">KLF14_SP8</text>
</a>
</g>
<!-- SIN3A_CHD1&#45;&gt;KLF14_SP8 -->
<g id="edge18" class="edge"><title>SIN3A_CHD1&#45;&gt;KLF14_SP8</title>
<a xlink:title="KLF14: 0.343||SP8: 0.094||SIN3A: 0.009||remove21root">
<path fill="none" stroke="#a6afff" stroke-width="3" d="M366.309,-98.8411C337.574,-127.577 289.772,-175.378 261.059,-204.092"/>
<path fill="none" stroke="#ffcbcb" stroke-width="3" d="M364.895,-97.4269C336.16,-126.162 288.358,-173.964 259.645,-202.677"/>
<polygon fill="#ffcbcb" stroke="#ffcbcb" points="367.775,-99.9205 371.452,-92.2837 363.816,-95.9607 367.775,-99.9205"/>
<polygon fill="#a6afff" stroke="#a6afff" points="258.205,-201.571 254.528,-209.208 262.165,-205.531 258.205,-201.571"/>
</a>
</g>
<!-- HIC2 -->
<g id="node19" class="node"><title>HIC2</title>
<a xlink:href="HIC2.svg" xlink:title="Z&#45;value: 1.161||remove22">
<polygon fill="#6675ff" stroke="#6675ff" stroke-width="2" points="98.1,-92.1 68.1,-92.1 56.1,-80.1 56.1,-68.1 68.1,-56.1 98.1,-56.1 110.1,-68.1 110.1,-80.1 98.1,-92.1"/>
<path fill="#6675ff" stroke="#6675ff" stroke-width="2" d="M68.1,-92.1C62.1,-92.1 56.1,-86.1 56.1,-80.1"/>
<path fill="#6675ff" stroke="#6675ff" stroke-width="2" d="M56.1,-68.1C56.1,-62.1 62.1,-56.1 68.1,-56.1"/>
<path fill="#6675ff" stroke="#6675ff" stroke-width="2" d="M98.1,-56.1C104.1,-56.1 110.1,-62.1 110.1,-68.1"/>
<path fill="#6675ff" stroke="#6675ff" stroke-width="2" d="M110.1,-80.1C110.1,-86.1 104.1,-92.1 98.1,-92.1"/>
<polyline fill="none" stroke="white" stroke-width="2" points="98.1,-92.1 68.1,-92.1 "/>
<path fill="none" stroke="white" stroke-width="2" d="M68.1,-92.1C62.1,-92.1 56.1,-86.1 56.1,-80.1"/>
<polyline fill="none" stroke="white" stroke-width="2" points="56.1,-80.1 56.1,-68.1 "/>
<path fill="none" stroke="white" stroke-width="2" d="M56.1,-68.1C56.1,-62.1 62.1,-56.1 68.1,-56.1"/>
<polyline fill="none" stroke="white" stroke-width="2" points="68.1,-56.1 98.1,-56.1 "/>
<path fill="none" stroke="white" stroke-width="2" d="M98.1,-56.1C104.1,-56.1 110.1,-62.1 110.1,-68.1"/>
<polyline fill="none" stroke="white" stroke-width="2" points="110.1,-68.1 110.1,-80.1 "/>
<path fill="none" stroke="white" stroke-width="2" d="M110.1,-80.1C110.1,-86.1 104.1,-92.1 98.1,-92.1"/>
<text text-anchor="middle" x="83.1" y="-71.6" font-family="Helvetica,sans-Serif" font-size="10.00" fill="white">HIC2</text>
</a>
</g>
<!-- SIN3A_CHD1&#45;&gt;HIC2 -->
<g id="edge20" class="edge"><title>SIN3A_CHD1&#45;&gt;HIC2</title>
<a xlink:title="HIC2: 0.088||remove8root">
<path fill="none" stroke="#ebc2ff" stroke-width="3" d="M350.189,-74.1C289.928,-74.1 175.888,-74.1 118.284,-74.1"/>
<polygon fill="#ebc2ff" stroke="#ebc2ff" points="118.207,-71.3001 110.207,-74.1 118.207,-76.9001 118.207,-71.3001"/>
</a>
</g>
<!-- CREB3L1_CREB3&#45;&gt;VDR -->
<g id="edge50" class="edge"><title>CREB3L1_CREB3&#45;&gt;VDR</title>
<a xlink:title="VDR: 0.081||remove6root">
<path fill="none" stroke="#ebc3ff" stroke-width="3" d="M395.643,-283.468C309.837,-283.468 136.808,-283.468 62.3691,-283.468"/>
<polygon fill="#ebc3ff" stroke="#ebc3ff" points="62.2125,-280.668 54.2125,-283.468 62.2125,-286.268 62.2125,-280.668"/>
</a>
</g>
<!-- IRF2_STAT2_IRF8_IRF1&#45;&gt;IRF2_STAT2_IRF8_IRF1 -->
<g id="edge46" class="edge"><title>IRF2_STAT2_IRF8_IRF1&#45;&gt;IRF2_STAT2_IRF8_IRF1</title>
<a xlink:title="IRF2: 0.013||remove1root">
<path fill="none" stroke="#eecaff" stroke-width="3" d="M244.556,-442.981C255.054,-442.087 262.268,-440.006 262.268,-436.736 262.268,-434.386 258.541,-432.65 252.547,-431.527"/>
<polygon fill="#eecaff" stroke="#eecaff" points="252.849,-428.743 244.556,-430.491 252.129,-434.296 252.849,-428.743"/>
</a>
</g>
<!-- ATF5 -->
<g id="node30" class="node"><title>ATF5</title>
<a xlink:href="ATF5.svg" xlink:title="Z&#45;value: 0.314||remove23">
<polygon fill="#b0b8ff" stroke="#b0b8ff" stroke-width="2" points="307.468,-36 277.468,-36 265.468,-24 265.468,-12 277.468,-0 307.468,-0 319.468,-12 319.468,-24 307.468,-36"/>
<path fill="#b0b8ff" stroke="#b0b8ff" stroke-width="2" d="M277.468,-36C271.468,-36 265.468,-30 265.468,-24"/>
<path fill="#b0b8ff" stroke="#b0b8ff" stroke-width="2" d="M265.468,-12C265.468,-6 271.468,-0 277.468,-0"/>
<path fill="#b0b8ff" stroke="#b0b8ff" stroke-width="2" d="M307.468,-0C313.468,-0 319.468,-6 319.468,-12"/>
<path fill="#b0b8ff" stroke="#b0b8ff" stroke-width="2" d="M319.468,-24C319.468,-30 313.468,-36 307.468,-36"/>
<polyline fill="none" stroke="white" stroke-width="2" points="307.468,-36 277.468,-36 "/>
<path fill="none" stroke="white" stroke-width="2" d="M277.468,-36C271.468,-36 265.468,-30 265.468,-24"/>
<polyline fill="none" stroke="white" stroke-width="2" points="265.468,-24 265.468,-12 "/>
<path fill="none" stroke="white" stroke-width="2" d="M265.468,-12C265.468,-6 271.468,-0 277.468,-0"/>
<polyline fill="none" stroke="white" stroke-width="2" points="277.468,-0 307.468,-0 "/>
<path fill="none" stroke="white" stroke-width="2" d="M307.468,-0C313.468,-0 319.468,-6 319.468,-12"/>
<polyline fill="none" stroke="white" stroke-width="2" points="319.468,-12 319.468,-24 "/>
<path fill="none" stroke="white" stroke-width="2" d="M319.468,-24C319.468,-30 313.468,-36 307.468,-36"/>
<text text-anchor="middle" x="292.468" y="-15.5" font-family="Helvetica,sans-Serif" font-size="10.00">ATF5</text>
</a>
</g>
<!-- IRF2_STAT2_IRF8_IRF1&#45;&gt;ATF5 -->
<g id="edge48" class="edge"><title>IRF2_STAT2_IRF8_IRF1&#45;&gt;ATF5</title>
<a xlink:title="ATF5: 0.080||remove5root">
<path fill="none" stroke="#ebc3ff" stroke-width="3" d="M192.759,-418.509C214.281,-386.002 257.827,-315.146 276.388,-248.248 296.325,-176.393 295.774,-87.3361 293.986,-44.0563"/>
<polygon fill="#ebc3ff" stroke="#ebc3ff" points="296.781,-43.8926 293.617,-36.0294 291.187,-44.1494 296.781,-43.8926"/>
</a>
</g>
<!-- POU5F1_POU2F3&#45;&gt;POU5F1_POU2F3 -->
<g id="edge44" class="edge"><title>POU5F1_POU2F3&#45;&gt;POU5F1_POU2F3</title>
<a xlink:title="POU2F3: 0.236||remove15root">
<path fill="none" stroke="#e6b2ff" stroke-width="3" d="M131.74,-387.149C141.838,-386.463 149.1,-384.292 149.1,-380.636 149.1,-378.065 145.51,-376.229 139.868,-375.127"/>
<polygon fill="#e6b2ff" stroke="#e6b2ff" points="140.023,-372.325 131.74,-374.123 139.337,-377.882 140.023,-372.325"/>
</a>
</g>
<!-- KLF14_SP8&#45;&gt;CREB3L1_CREB3 -->
<g id="edge22" class="edge"><title>KLF14_SP8&#45;&gt;CREB3L1_CREB3</title>
<a xlink:title="CREB3L1: 0.267||remove16root">
<path fill="none" stroke="#ffaeae" stroke-width="3" d="M270.941,-236.632C302.603,-245.116 350.102,-257.843 387.597,-267.89"/>
<polygon fill="#ffaeae" stroke="#ffaeae" points="386.985,-270.625 395.437,-269.991 388.435,-265.215 386.985,-270.625"/>
</a>
</g>
<!-- KLF14_SP8&#45;&gt;REST -->
<g id="edge24" class="edge"><title>KLF14_SP8&#45;&gt;REST</title>
<a xlink:title="REST: 0.854||remove25root">
<path fill="none" stroke="#ff6f6f" stroke-width="3" d="M254.552,-245.552C282.206,-273.206 334.862,-325.862 365.628,-356.628"/>
<polygon fill="#ff6f6f" stroke="#ff6f6f" points="363.839,-358.799 371.476,-362.476 367.799,-354.839 363.839,-358.799"/>
</a>
</g>
<!-- KLF14_SP8&#45;&gt;YY1_YY2 -->
<g id="edge26" class="edge"><title>KLF14_SP8&#45;&gt;YY1_YY2</title>
<a xlink:title="YY1: 0.303||SP8: 0.013||remove19root">
<path fill="none" stroke="#ffabab" stroke-width="3" d="M244.3,-253.106C255.101,-293.415 275.763,-370.527 286.527,-410.701"/>
<path fill="none" stroke="#cacfff" stroke-width="3" d="M242.368,-253.623C253.169,-293.933 273.831,-371.044 284.596,-411.219"/>
<polygon fill="#cacfff" stroke="#cacfff" points="246.024,-252.585 241.248,-245.582 240.614,-254.034 246.024,-252.585"/>
<polygon fill="#ffabab" stroke="#ffabab" points="282.864,-411.711 287.639,-418.714 288.273,-410.261 282.864,-411.711"/>
</a>
</g>
<!-- KLF14_SP8&#45;&gt;IRF2_STAT2_IRF8_IRF1 -->
<g id="edge28" class="edge"><title>KLF14_SP8&#45;&gt;IRF2_STAT2_IRF8_IRF1</title>
<a xlink:title="STAT2: 0.270||remove17root">
<path fill="none" stroke="#ffaeae" stroke-width="3" d="M231.488,-245.582C221.495,-282.874 198.681,-368.019 187.175,-410.961"/>
<polygon fill="#ffaeae" stroke="#ffaeae" points="184.463,-410.261 185.097,-418.714 189.872,-411.711 184.463,-410.261"/>
</a>
</g>
<!-- KLF14_SP8&#45;&gt;POU5F1_POU2F3 -->
<g id="edge30" class="edge"><title>KLF14_SP8&#45;&gt;POU5F1_POU2F3</title>
<a xlink:title="POU2F3: 0.276||remove18root">
<path fill="none" stroke="#ffadad" stroke-width="3" d="M218.184,-245.552C190.53,-273.206 137.875,-325.862 107.108,-356.628"/>
<polygon fill="#ffadad" stroke="#ffadad" points="104.937,-354.839 101.26,-362.476 108.897,-358.799 104.937,-354.839"/>
</a>
</g>
<!-- KLF14_SP8&#45;&gt;VDR -->
<g id="edge32" class="edge"><title>KLF14_SP8&#45;&gt;VDR</title>
<a xlink:title="VDR: 0.235||remove14root">
<path fill="none" stroke="#ffb2b2" stroke-width="3" d="M201.795,-236.632C163.193,-246.975 101.052,-263.626 62.1979,-274.037"/>
<polygon fill="#ffb2b2" stroke="#ffb2b2" points="61.2799,-271.384 54.2772,-276.159 62.7294,-276.793 61.2799,-271.384"/>
</a>
</g>
<!-- KLF14_SP8&#45;&gt;MAFK -->
<g id="edge34" class="edge"><title>KLF14_SP8&#45;&gt;MAFK</title>
<a xlink:title="MAFK: 0.545||remove24root">
<path fill="none" stroke="#ff9090" stroke-width="3" d="M201.795,-218.104C163.193,-207.761 101.052,-191.11 62.1979,-180.699"/>
<polygon fill="#ff9090" stroke="#ff9090" points="62.7294,-177.943 54.2772,-178.577 61.2799,-183.352 62.7294,-177.943"/>
</a>
</g>
<!-- KLF14_SP8&#45;&gt;HIC2 -->
<g id="edge40" class="edge"><title>KLF14_SP8&#45;&gt;HIC2</title>
<a xlink:title="HIC2: 0.427||remove22root">
<path fill="none" stroke="#ff9d9d" stroke-width="3" d="M218.184,-209.184C190.53,-181.53 137.875,-128.875 107.108,-98.1077"/>
<polygon fill="#ff9d9d" stroke="#ff9d9d" points="108.897,-95.937 101.26,-92.2601 104.937,-99.8969 108.897,-95.937"/>
</a>
</g>
<!-- FOSB -->
<g id="node28" class="node"><title>FOSB</title>
<a xlink:href="FOSB.svg" xlink:title="Z&#45;value: 0.605||remove13">
<polygon fill="#97a1ff" stroke="#97a1ff" stroke-width="2" points="195.268,-36 165.268,-36 153.268,-24 153.268,-12 165.268,-9.59233e-14 195.268,-9.59233e-14 207.268,-12 207.268,-24 195.268,-36"/>
<path fill="#97a1ff" stroke="#97a1ff" stroke-width="2" d="M165.268,-36C159.268,-36 153.268,-30 153.268,-24"/>
<path fill="#97a1ff" stroke="#97a1ff" stroke-width="2" d="M153.268,-12C153.268,-6 159.268,-9.59233e-14 165.268,-9.59233e-14"/>
<path fill="#97a1ff" stroke="#97a1ff" stroke-width="2" d="M195.268,-9.59233e-14C201.268,-9.59233e-14 207.268,-6 207.268,-12"/>
<path fill="#97a1ff" stroke="#97a1ff" stroke-width="2" d="M207.268,-24C207.268,-30 201.268,-36 195.268,-36"/>
<polyline fill="none" stroke="white" stroke-width="2" points="195.268,-36 165.268,-36 "/>
<path fill="none" stroke="white" stroke-width="2" d="M165.268,-36C159.268,-36 153.268,-30 153.268,-24"/>
<polyline fill="none" stroke="white" stroke-width="2" points="153.268,-24 153.268,-12 "/>
<path fill="none" stroke="white" stroke-width="2" d="M153.268,-12C153.268,-6 159.268,-9.59233e-14 165.268,-9.59233e-14"/>
<polyline fill="none" stroke="white" stroke-width="2" points="165.268,-9.59233e-14 195.268,-9.59233e-14 "/>
<path fill="none" stroke="white" stroke-width="2" d="M195.268,-9.59233e-14C201.268,-9.59233e-14 207.268,-6 207.268,-12"/>
<polyline fill="none" stroke="white" stroke-width="2" points="207.268,-12 207.268,-24 "/>
<path fill="none" stroke="white" stroke-width="2" d="M207.268,-24C207.268,-30 201.268,-36 195.268,-36"/>
<text text-anchor="middle" x="180.268" y="-15.5" font-family="Helvetica,sans-Serif" font-size="10.00">FOSB</text>
</a>
</g>
<!-- KLF14_SP8&#45;&gt;FOSB -->
<g id="edge36" class="edge"><title>KLF14_SP8&#45;&gt;FOSB</title>
<a xlink:title="FOSB: 0.218||remove13root">
<path fill="none" stroke="#ffb4b4" stroke-width="3" d="M231.488,-209.154C221.495,-171.862 198.681,-86.7174 187.175,-43.7753"/>
<polygon fill="#ffb4b4" stroke="#ffb4b4" points="189.872,-43.0253 185.097,-36.0226 184.463,-44.4747 189.872,-43.0253"/>
</a>
</g>
<!-- KLF14_SP8&#45;&gt;ATF5 -->
<g id="edge38" class="edge"><title>KLF14_SP8&#45;&gt;ATF5</title>
<a xlink:title="ATF5: 0.478||remove23root">
<path fill="none" stroke="#ff9797" stroke-width="3" d="M241.248,-209.154C251.241,-171.862 274.055,-86.7174 285.562,-43.7753"/>
<polygon fill="#ff9797" stroke="#ff9797" points="288.273,-44.4747 287.639,-36.0226 282.864,-43.0253 288.273,-44.4747"/>
</a>
</g>
<!-- HIC2&#45;&gt;POU5F1_POU2F3 -->
<g id="edge42" class="edge"><title>HIC2&#45;&gt;POU5F1_POU2F3</title>
<a xlink:title="POU5F1: 0.609||remove18">
<path fill="none" stroke="#d989ff" stroke-width="3" d="M83.1,-92.3572C83.1,-144.322 83.1,-293.201 83.1,-354.143"/>
<polygon fill="#d989ff" stroke="#d989ff" points="80.3001,-354.475 83.1,-362.475 85.9001,-354.475 80.3001,-354.475"/>
</a>
</g>
<!-- TFDP1 -->
<g id="node38" class="node"><title>TFDP1</title>
<a xlink:href="TFDP1.svg" xlink:title="Z&#45;value: 1.163||remove20">
<polygon fill="#6675ff" stroke="#6675ff" stroke-width="2" points="460.736,-189.268 430.736,-189.268 418.736,-177.268 418.736,-165.268 430.736,-153.268 460.736,-153.268 472.736,-165.268 472.736,-177.268 460.736,-189.268"/>
<path fill="#6675ff" stroke="#6675ff" stroke-width="2" d="M430.736,-189.268C424.736,-189.268 418.736,-183.268 418.736,-177.268"/>
<path fill="#6675ff" stroke="#6675ff" stroke-width="2" d="M418.736,-165.268C418.736,-159.268 424.736,-153.268 430.736,-153.268"/>
<path fill="#6675ff" stroke="#6675ff" stroke-width="2" d="M460.736,-153.268C466.736,-153.268 472.736,-159.268 472.736,-165.268"/>
<path fill="#6675ff" stroke="#6675ff" stroke-width="2" d="M472.736,-177.268C472.736,-183.268 466.736,-189.268 460.736,-189.268"/>
<polyline fill="none" stroke="white" stroke-width="2" points="460.736,-189.268 430.736,-189.268 "/>
<path fill="none" stroke="white" stroke-width="2" d="M430.736,-189.268C424.736,-189.268 418.736,-183.268 418.736,-177.268"/>
<polyline fill="none" stroke="white" stroke-width="2" points="418.736,-177.268 418.736,-165.268 "/>
<path fill="none" stroke="white" stroke-width="2" d="M418.736,-165.268C418.736,-159.268 424.736,-153.268 430.736,-153.268"/>
<polyline fill="none" stroke="white" stroke-width="2" points="430.736,-153.268 460.736,-153.268 "/>
<path fill="none" stroke="white" stroke-width="2" d="M460.736,-153.268C466.736,-153.268 472.736,-159.268 472.736,-165.268"/>
<polyline fill="none" stroke="white" stroke-width="2" points="472.736,-165.268 472.736,-177.268 "/>
<path fill="none" stroke="white" stroke-width="2" d="M472.736,-177.268C472.736,-183.268 466.736,-189.268 460.736,-189.268"/>
<text text-anchor="middle" x="445.736" y="-168.768" font-family="Helvetica,sans-Serif" font-size="10.00" fill="white">TFDP1</text>
</a>
</g>
<!-- TFDP1&#45;&gt;SIN3A_CHD1 -->
<g id="edge58" class="edge"><title>TFDP1&#45;&gt;SIN3A_CHD1</title>
<a xlink:title="SIN3A: 0.009||remove0root">
<path fill="none" stroke="#eecaff" stroke-width="3" d="M435.184,-152.991C426.486,-137.927 414.051,-116.389 404.371,-99.622"/>
<polygon fill="#eecaff" stroke="#eecaff" points="406.566,-97.8228 400.141,-92.2946 401.716,-100.623 406.566,-97.8228"/>
</a>
</g>
<!-- TFDP1&#45;&gt;CREB3L1_CREB3 -->
<g id="edge52" class="edge"><title>TFDP1&#45;&gt;CREB3L1_CREB3</title>
<a xlink:title="CREB3: 0.120||remove9root">
<path fill="none" stroke="#eabeff" stroke-width="3" d="M445.736,-189.295C445.736,-207.588 445.736,-236.108 445.736,-256.972"/>
<polygon fill="#eabeff" stroke="#eabeff" points="442.936,-257.113 445.736,-265.113 448.536,-257.113 442.936,-257.113"/>
</a>
</g>
<!-- TFDP1&#45;&gt;KLF14_SP8 -->
<g id="edge60" class="edge"><title>TFDP1&#45;&gt;KLF14_SP8</title>
<a xlink:title="SP8: 0.317||KLF14: 0.204||remove20root">
<path fill="none" stroke="#a9b2ff" stroke-width="3" d="M418.365,-178.602C382.752,-188.145 320.167,-204.914 278.485,-216.083"/>
<polygon fill="#a9b2ff" stroke="#a9b2ff" points="277.702,-213.394 270.699,-218.169 279.151,-218.803 277.702,-213.394"/>
</a>
</g>
<!-- TFDP1&#45;&gt;FOSB -->
<g id="edge56" class="edge"><title>TFDP1&#45;&gt;FOSB</title>
<a xlink:title="FOSB: 0.181||remove11root">
<path fill="none" stroke="#e8b8ff" stroke-width="3" d="M418.326,-155.443C369.615,-127.319 268.086,-68.7016 214.728,-37.8953"/>
<polygon fill="#e8b8ff" stroke="#e8b8ff" points="215.857,-35.3142 207.529,-33.739 213.057,-40.1639 215.857,-35.3142"/>
</a>
</g>
<!-- TFDP1&#45;&gt;TFDP1 -->
<g id="edge54" class="edge"><title>TFDP1&#45;&gt;TFDP1</title>
<a xlink:title="TFDP1: 0.077||remove4root">
<path fill="none" stroke="#ecc3ff" stroke-width="3" d="M472.977,-178.011C482.76,-178.156 490.736,-175.909 490.736,-171.268 490.736,-168.005 486.793,-165.925 481.051,-165.028"/>
<polygon fill="#ecc3ff" stroke="#ecc3ff" points="481.136,-162.228 472.977,-164.525 480.787,-167.817 481.136,-162.228"/>
</a>
</g>
</g>
</svg>
