<?xml version="1.0" encoding="UTF-8" standalone="no"?>
<!DOCTYPE svg PUBLIC "-//W3C//DTD SVG 1.1//EN"
 "http://www.w3.org/Graphics/SVG/1.1/DTD/svg11.dtd">
<!-- Generated by graphviz version 2.28.0 (20110630.0925)
 -->
<!-- Title: _anonymous_0 Pages: 1 -->
<svg width="544pt" height="500pt"
 viewBox="0.00 0.00 544.11 499.75" xmlns="http://www.w3.org/2000/svg" xmlns:xlink="http://www.w3.org/1999/xlink">
<g id="graph1" class="graph" transform="scale(1 1) rotate(0) translate(4 495.751)">
<title>_anonymous_0</title>
<polygon fill="white" stroke="white" points="-4,5 -4,-495.751 541.113,-495.751 541.113,5 -4,5"/>
<!-- ZNF711_TFAP2A_TFAP2D -->
<g id="node1" class="node"><title>ZNF711_TFAP2A_TFAP2D</title>
<a xlink:href="ZNF711_TFAP2A_TFAP2D.svg" xlink:title="Z&#45;value: 2.387||remove20">
<polygon fill="#3247ff" stroke="#3247ff" stroke-width="2" points="218.583,-54.4611 104.583,-54.4611 92.5826,-42.4611 92.5826,-30.4611 104.583,-18.4611 218.583,-18.4611 230.583,-30.4611 230.583,-42.4611 218.583,-54.4611"/>
<path fill="#3247ff" stroke="#3247ff" stroke-width="2" d="M104.583,-54.4611C98.5826,-54.4611 92.5826,-48.4611 92.5826,-42.4611"/>
<path fill="#3247ff" stroke="#3247ff" stroke-width="2" d="M92.5826,-30.4611C92.5826,-24.4611 98.5826,-18.4611 104.583,-18.4611"/>
<path fill="#3247ff" stroke="#3247ff" stroke-width="2" d="M218.583,-18.4611C224.583,-18.4611 230.583,-24.4611 230.583,-30.4611"/>
<path fill="#3247ff" stroke="#3247ff" stroke-width="2" d="M230.583,-42.4611C230.583,-48.4611 224.583,-54.4611 218.583,-54.4611"/>
<polyline fill="none" stroke="white" stroke-width="2" points="218.583,-54.4611 104.583,-54.4611 "/>
<path fill="none" stroke="white" stroke-width="2" d="M104.583,-54.4611C98.5826,-54.4611 92.5826,-48.4611 92.5826,-42.4611"/>
<polyline fill="none" stroke="white" stroke-width="2" points="92.5826,-42.4611 92.5826,-30.4611 "/>
<path fill="none" stroke="white" stroke-width="2" d="M92.5826,-30.4611C92.5826,-24.4611 98.5826,-18.4611 104.583,-18.4611"/>
<polyline fill="none" stroke="white" stroke-width="2" points="104.583,-18.4611 218.583,-18.4611 "/>
<path fill="none" stroke="white" stroke-width="2" d="M218.583,-18.4611C224.583,-18.4611 230.583,-24.4611 230.583,-30.4611"/>
<polyline fill="none" stroke="white" stroke-width="2" points="230.583,-30.4611 230.583,-42.4611 "/>
<path fill="none" stroke="white" stroke-width="2" d="M230.583,-42.4611C230.583,-48.4611 224.583,-54.4611 218.583,-54.4611"/>
<text text-anchor="middle" x="161.583" y="-33.9611" font-family="Helvetica,sans-Serif" font-size="10.00" fill="white">ZNF711_TFAP2A_TFAP2D</text>
</a>
</g>
<!-- ZNF711_TFAP2A_TFAP2D&#45;&gt;ZNF711_TFAP2A_TFAP2D -->
<g id="edge16" class="edge"><title>ZNF711_TFAP2A_TFAP2D&#45;&gt;ZNF711_TFAP2A_TFAP2D</title>
<a xlink:title="TFAP2A: 0.506||ZNF711: 0.089||remove20">
<path fill="none" stroke="#d171ff" stroke-width="3" d="M230.857,-42.6162C241.414,-41.6769 248.583,-39.6252 248.583,-36.4611 248.583,-34.187 244.879,-32.4874 238.876,-31.3626"/>
<polygon fill="#d171ff" stroke="#d171ff" points="239.154,-28.5751 230.857,-30.306 238.423,-34.1271 239.154,-28.5751"/>
</a>
</g>
<!-- DLX4_HOXD8 -->
<g id="node2" class="node"><title>DLX4_HOXD8</title>
<a xlink:href="DLX4_HOXD8.svg" xlink:title="Z&#45;value: 0.786||remove22">
<polygon fill="#99a3ff" stroke="#99a3ff" stroke-width="2" points="506.363,-328.736 449.863,-328.736 437.863,-316.736 437.863,-304.736 449.863,-292.736 506.363,-292.736 518.363,-304.736 518.363,-316.736 506.363,-328.736"/>
<path fill="#99a3ff" stroke="#99a3ff" stroke-width="2" d="M449.863,-328.736C443.863,-328.736 437.863,-322.736 437.863,-316.736"/>
<path fill="#99a3ff" stroke="#99a3ff" stroke-width="2" d="M437.863,-304.736C437.863,-298.736 443.863,-292.736 449.863,-292.736"/>
<path fill="#99a3ff" stroke="#99a3ff" stroke-width="2" d="M506.363,-292.736C512.363,-292.736 518.363,-298.736 518.363,-304.736"/>
<path fill="#99a3ff" stroke="#99a3ff" stroke-width="2" d="M518.363,-316.736C518.363,-322.736 512.363,-328.736 506.363,-328.736"/>
<polyline fill="none" stroke="white" stroke-width="2" points="506.363,-328.736 449.863,-328.736 "/>
<path fill="none" stroke="white" stroke-width="2" d="M449.863,-328.736C443.863,-328.736 437.863,-322.736 437.863,-316.736"/>
<polyline fill="none" stroke="white" stroke-width="2" points="437.863,-316.736 437.863,-304.736 "/>
<path fill="none" stroke="white" stroke-width="2" d="M437.863,-304.736C437.863,-298.736 443.863,-292.736 449.863,-292.736"/>
<polyline fill="none" stroke="white" stroke-width="2" points="449.863,-292.736 506.363,-292.736 "/>
<path fill="none" stroke="white" stroke-width="2" d="M506.363,-292.736C512.363,-292.736 518.363,-298.736 518.363,-304.736"/>
<polyline fill="none" stroke="white" stroke-width="2" points="518.363,-304.736 518.363,-316.736 "/>
<path fill="none" stroke="white" stroke-width="2" d="M518.363,-316.736C518.363,-322.736 512.363,-328.736 506.363,-328.736"/>
<text text-anchor="middle" x="478.113" y="-308.236" font-family="Helvetica,sans-Serif" font-size="10.00">DLX4_HOXD8</text>
</a>
</g>
<!-- ZNF711_TFAP2A_TFAP2D&#45;&gt;DLX4_HOXD8 -->
<g id="edge2" class="edge"><title>ZNF711_TFAP2A_TFAP2D&#45;&gt;DLX4_HOXD8</title>
<a xlink:title="DLX4: 0.225||HOXD8: 0.150||ZNF711: 0.036||remove20">
<path fill="none" stroke="#e1a3ff" stroke-width="3" d="M189.568,-59.3879C249.419,-111.249 391.494,-234.357 451.388,-286.256"/>
<path fill="none" stroke="#ecc5ff" stroke-width="3" d="M188.259,-60.8994C248.109,-112.76 390.184,-235.868 450.078,-287.767"/>
<polygon fill="#ecc5ff" stroke="#ecc5ff" points="190.722,-58.0058 182.842,-54.883 187.055,-62.238 190.722,-58.0058"/>
<polygon fill="#e1a3ff" stroke="#e1a3ff" points="449.065,-289.271 456.945,-292.394 452.733,-285.039 449.065,-289.271"/>
</a>
</g>
<!-- PATZ1_KLF4 -->
<g id="node4" class="node"><title>PATZ1_KLF4</title>
<a xlink:href="PATZ1_KLF4.svg" xlink:title="Z&#45;value: 1.751||remove23">
<polygon fill="#5b6cff" stroke="#5b6cff" stroke-width="2" points="315.983,-36 263.983,-36 251.983,-24 251.983,-12 263.983,-0 315.983,-0 327.983,-12 327.983,-24 315.983,-36"/>
<path fill="#5b6cff" stroke="#5b6cff" stroke-width="2" d="M263.983,-36C257.983,-36 251.983,-30 251.983,-24"/>
<path fill="#5b6cff" stroke="#5b6cff" stroke-width="2" d="M251.983,-12C251.983,-6 257.983,-0 263.983,-0"/>
<path fill="#5b6cff" stroke="#5b6cff" stroke-width="2" d="M315.983,-0C321.983,-0 327.983,-6 327.983,-12"/>
<path fill="#5b6cff" stroke="#5b6cff" stroke-width="2" d="M327.983,-24C327.983,-30 321.983,-36 315.983,-36"/>
<polyline fill="none" stroke="white" stroke-width="2" points="315.983,-36 263.983,-36 "/>
<path fill="none" stroke="white" stroke-width="2" d="M263.983,-36C257.983,-36 251.983,-30 251.983,-24"/>
<polyline fill="none" stroke="white" stroke-width="2" points="251.983,-24 251.983,-12 "/>
<path fill="none" stroke="white" stroke-width="2" d="M251.983,-12C251.983,-6 257.983,-0 263.983,-0"/>
<polyline fill="none" stroke="white" stroke-width="2" points="263.983,-0 315.983,-0 "/>
<path fill="none" stroke="white" stroke-width="2" d="M315.983,-0C321.983,-0 327.983,-6 327.983,-12"/>
<polyline fill="none" stroke="white" stroke-width="2" points="327.983,-12 327.983,-24 "/>
<path fill="none" stroke="white" stroke-width="2" d="M327.983,-24C327.983,-30 321.983,-36 315.983,-36"/>
<text text-anchor="middle" x="289.983" y="-15.5" font-family="Helvetica,sans-Serif" font-size="10.00" fill="white">PATZ1_KLF4</text>
</a>
</g>
<!-- ZNF711_TFAP2A_TFAP2D&#45;&gt;PATZ1_KLF4 -->
<g id="edge4" class="edge"><title>ZNF711_TFAP2A_TFAP2D&#45;&gt;PATZ1_KLF4</title>
<a xlink:title="PATZ1: 0.083||TFAP2A: 0.544||remove20">
<path fill="none" stroke="#e9bdff" stroke-width="3" d="M238.618,-24.3748C240.289,-24.1346 241.947,-23.8962 243.588,-23.6603"/>
<path fill="none" stroke="#cf6aff" stroke-width="3" d="M238.903,-26.3544C240.573,-26.1142 242.232,-25.8758 243.873,-25.6399"/>
<polygon fill="#cf6aff" stroke="#cf6aff" points="238.189,-22.618 230.669,-26.5281 238.986,-28.161 238.189,-22.618"/>
<polygon fill="#e9bdff" stroke="#e9bdff" points="244.252,-27.4039 251.772,-23.4938 243.455,-21.8609 244.252,-27.4039"/>
</a>
</g>
<!-- LEF1 -->
<g id="node6" class="node"><title>LEF1</title>
<a xlink:href="LEF1.svg" xlink:title="Z&#45;value: 0.550||remove31">
<polygon fill="#ffa8a8" stroke="#ffa8a8" stroke-width="2" points="272.219,-263.876 242.219,-263.876 230.219,-251.876 230.219,-239.876 242.219,-227.876 272.219,-227.876 284.219,-239.876 284.219,-251.876 272.219,-263.876"/>
<path fill="#ffa8a8" stroke="#ffa8a8" stroke-width="2" d="M242.219,-263.876C236.219,-263.876 230.219,-257.876 230.219,-251.876"/>
<path fill="#ffa8a8" stroke="#ffa8a8" stroke-width="2" d="M230.219,-239.876C230.219,-233.876 236.219,-227.876 242.219,-227.876"/>
<path fill="#ffa8a8" stroke="#ffa8a8" stroke-width="2" d="M272.219,-227.876C278.219,-227.876 284.219,-233.876 284.219,-239.876"/>
<path fill="#ffa8a8" stroke="#ffa8a8" stroke-width="2" d="M284.219,-251.876C284.219,-257.876 278.219,-263.876 272.219,-263.876"/>
<polyline fill="none" stroke="white" stroke-width="2" points="272.219,-263.876 242.219,-263.876 "/>
<path fill="none" stroke="white" stroke-width="2" d="M242.219,-263.876C236.219,-263.876 230.219,-257.876 230.219,-251.876"/>
<polyline fill="none" stroke="white" stroke-width="2" points="230.219,-251.876 230.219,-239.876 "/>
<path fill="none" stroke="white" stroke-width="2" d="M230.219,-239.876C230.219,-233.876 236.219,-227.876 242.219,-227.876"/>
<polyline fill="none" stroke="white" stroke-width="2" points="242.219,-227.876 272.219,-227.876 "/>
<path fill="none" stroke="white" stroke-width="2" d="M272.219,-227.876C278.219,-227.876 284.219,-233.876 284.219,-239.876"/>
<polyline fill="none" stroke="white" stroke-width="2" points="284.219,-239.876 284.219,-251.876 "/>
<path fill="none" stroke="white" stroke-width="2" d="M284.219,-251.876C284.219,-257.876 278.219,-263.876 272.219,-263.876"/>
<text text-anchor="middle" x="257.219" y="-243.376" font-family="Helvetica,sans-Serif" font-size="10.00">LEF1</text>
</a>
</g>
<!-- ZNF711_TFAP2A_TFAP2D&#45;&gt;LEF1 -->
<g id="edge6" class="edge"><title>ZNF711_TFAP2A_TFAP2D&#45;&gt;LEF1</title>
<a xlink:title="LEF1: 0.134||remove20root">
<path fill="none" stroke="#b3bbff" stroke-width="3" d="M169.902,-54.679C186.972,-92.0571 225.992,-177.497 245.567,-220.362"/>
<polygon fill="#b3bbff" stroke="#b3bbff" points="243.116,-221.735 248.987,-227.849 248.21,-219.409 243.116,-221.735"/>
</a>
</g>
<!-- POU2F1 -->
<g id="node8" class="node"><title>POU2F1</title>
<a xlink:href="POU2F1.svg" xlink:title="Z&#45;value: 0.649||remove24">
<polygon fill="#a2abff" stroke="#a2abff" stroke-width="2" points="423.23,-437.864 392.73,-437.864 380.73,-425.864 380.73,-413.864 392.73,-401.864 423.23,-401.864 435.23,-413.864 435.23,-425.864 423.23,-437.864"/>
<path fill="#a2abff" stroke="#a2abff" stroke-width="2" d="M392.73,-437.864C386.73,-437.864 380.73,-431.864 380.73,-425.864"/>
<path fill="#a2abff" stroke="#a2abff" stroke-width="2" d="M380.73,-413.864C380.73,-407.864 386.73,-401.864 392.73,-401.864"/>
<path fill="#a2abff" stroke="#a2abff" stroke-width="2" d="M423.23,-401.864C429.23,-401.864 435.23,-407.864 435.23,-413.864"/>
<path fill="#a2abff" stroke="#a2abff" stroke-width="2" d="M435.23,-425.864C435.23,-431.864 429.23,-437.864 423.23,-437.864"/>
<polyline fill="none" stroke="white" stroke-width="2" points="423.23,-437.864 392.73,-437.864 "/>
<path fill="none" stroke="white" stroke-width="2" d="M392.73,-437.864C386.73,-437.864 380.73,-431.864 380.73,-425.864"/>
<polyline fill="none" stroke="white" stroke-width="2" points="380.73,-425.864 380.73,-413.864 "/>
<path fill="none" stroke="white" stroke-width="2" d="M380.73,-413.864C380.73,-407.864 386.73,-401.864 392.73,-401.864"/>
<polyline fill="none" stroke="white" stroke-width="2" points="392.73,-401.864 423.23,-401.864 "/>
<path fill="none" stroke="white" stroke-width="2" d="M423.23,-401.864C429.23,-401.864 435.23,-407.864 435.23,-413.864"/>
<polyline fill="none" stroke="white" stroke-width="2" points="435.23,-413.864 435.23,-425.864 "/>
<path fill="none" stroke="white" stroke-width="2" d="M435.23,-425.864C435.23,-431.864 429.23,-437.864 423.23,-437.864"/>
<text text-anchor="middle" x="407.98" y="-417.364" font-family="Helvetica,sans-Serif" font-size="10.00">POU2F1</text>
</a>
</g>
<!-- ZNF711_TFAP2A_TFAP2D&#45;&gt;POU2F1 -->
<g id="edge8" class="edge"><title>ZNF711_TFAP2A_TFAP2D&#45;&gt;POU2F1</title>
<a xlink:title="POU2F1: 0.085||remove14root">
<path fill="none" stroke="#e9bcff" stroke-width="3" d="M174.099,-54.4899C197.174,-87.8498 247.787,-161.592 288.539,-224.996 327.258,-285.236 370.745,-357.385 393.035,-394.715"/>
<polygon fill="#e9bcff" stroke="#e9bcff" points="390.7,-396.267 397.203,-401.703 395.51,-393.398 390.7,-396.267"/>
</a>
</g>
<!-- ZBTB33_CHD2 -->
<g id="node10" class="node"><title>ZBTB33_CHD2</title>
<a xlink:href="ZBTB33_CHD2.svg" xlink:title="Z&#45;value: 1.181||remove25">
<polygon fill="#808cff" stroke="#808cff" stroke-width="2" points="320.983,-491.751 258.983,-491.751 246.983,-479.751 246.983,-467.751 258.983,-455.751 320.983,-455.751 332.983,-467.751 332.983,-479.751 320.983,-491.751"/>
<path fill="#808cff" stroke="#808cff" stroke-width="2" d="M258.983,-491.751C252.983,-491.751 246.983,-485.751 246.983,-479.751"/>
<path fill="#808cff" stroke="#808cff" stroke-width="2" d="M246.983,-467.751C246.983,-461.751 252.983,-455.751 258.983,-455.751"/>
<path fill="#808cff" stroke="#808cff" stroke-width="2" d="M320.983,-455.751C326.983,-455.751 332.983,-461.751 332.983,-467.751"/>
<path fill="#808cff" stroke="#808cff" stroke-width="2" d="M332.983,-479.751C332.983,-485.751 326.983,-491.751 320.983,-491.751"/>
<polyline fill="none" stroke="white" stroke-width="2" points="320.983,-491.751 258.983,-491.751 "/>
<path fill="none" stroke="white" stroke-width="2" d="M258.983,-491.751C252.983,-491.751 246.983,-485.751 246.983,-479.751"/>
<polyline fill="none" stroke="white" stroke-width="2" points="246.983,-479.751 246.983,-467.751 "/>
<path fill="none" stroke="white" stroke-width="2" d="M246.983,-467.751C246.983,-461.751 252.983,-455.751 258.983,-455.751"/>
<polyline fill="none" stroke="white" stroke-width="2" points="258.983,-455.751 320.983,-455.751 "/>
<path fill="none" stroke="white" stroke-width="2" d="M320.983,-455.751C326.983,-455.751 332.983,-461.751 332.983,-467.751"/>
<polyline fill="none" stroke="white" stroke-width="2" points="332.983,-467.751 332.983,-479.751 "/>
<path fill="none" stroke="white" stroke-width="2" d="M332.983,-479.751C332.983,-485.751 326.983,-491.751 320.983,-491.751"/>
<text text-anchor="middle" x="289.983" y="-471.251" font-family="Helvetica,sans-Serif" font-size="10.00">ZBTB33_CHD2</text>
</a>
</g>
<!-- ZNF711_TFAP2A_TFAP2D&#45;&gt;ZBTB33_CHD2 -->
<g id="edge10" class="edge"><title>ZNF711_TFAP2A_TFAP2D&#45;&gt;ZBTB33_CHD2</title>
<a xlink:title="ZBTB33: 0.146||CHD2: 0.054||remove20">
<path fill="none" stroke="#e6b1ff" stroke-width="3" d="M166.496,-54.7215C177.037,-93.7422 202.747,-188.107 225.899,-266.756 245.14,-332.118 269.232,-408.604 281.68,-447.757"/>
<polygon fill="#e6b1ff" stroke="#e6b1ff" points="279.059,-448.754 284.153,-455.528 284.395,-447.056 279.059,-448.754"/>
</a>
</g>
<!-- HOXB6_PRRX2 -->
<g id="node12" class="node"><title>HOXB6_PRRX2</title>
<a xlink:href="HOXB6_PRRX2.svg" xlink:title="Z&#45;value: 0.695||remove17">
<polygon fill="#9fa8ff" stroke="#9fa8ff" stroke-width="2" points="193.833,-473.29 129.333,-473.29 117.333,-461.29 117.333,-449.29 129.333,-437.29 193.833,-437.29 205.833,-449.29 205.833,-461.29 193.833,-473.29"/>
<path fill="#9fa8ff" stroke="#9fa8ff" stroke-width="2" d="M129.333,-473.29C123.333,-473.29 117.333,-467.29 117.333,-461.29"/>
<path fill="#9fa8ff" stroke="#9fa8ff" stroke-width="2" d="M117.333,-449.29C117.333,-443.29 123.333,-437.29 129.333,-437.29"/>
<path fill="#9fa8ff" stroke="#9fa8ff" stroke-width="2" d="M193.833,-437.29C199.833,-437.29 205.833,-443.29 205.833,-449.29"/>
<path fill="#9fa8ff" stroke="#9fa8ff" stroke-width="2" d="M205.833,-461.29C205.833,-467.29 199.833,-473.29 193.833,-473.29"/>
<polyline fill="none" stroke="white" stroke-width="2" points="193.833,-473.29 129.333,-473.29 "/>
<path fill="none" stroke="white" stroke-width="2" d="M129.333,-473.29C123.333,-473.29 117.333,-467.29 117.333,-461.29"/>
<polyline fill="none" stroke="white" stroke-width="2" points="117.333,-461.29 117.333,-449.29 "/>
<path fill="none" stroke="white" stroke-width="2" d="M117.333,-449.29C117.333,-443.29 123.333,-437.29 129.333,-437.29"/>
<polyline fill="none" stroke="white" stroke-width="2" points="129.333,-437.29 193.833,-437.29 "/>
<path fill="none" stroke="white" stroke-width="2" d="M193.833,-437.29C199.833,-437.29 205.833,-443.29 205.833,-449.29"/>
<polyline fill="none" stroke="white" stroke-width="2" points="205.833,-449.29 205.833,-461.29 "/>
<path fill="none" stroke="white" stroke-width="2" d="M205.833,-461.29C205.833,-467.29 199.833,-473.29 193.833,-473.29"/>
<text text-anchor="middle" x="161.583" y="-452.79" font-family="Helvetica,sans-Serif" font-size="10.00">HOXB6_PRRX2</text>
</a>
</g>
<!-- ZNF711_TFAP2A_TFAP2D&#45;&gt;HOXB6_PRRX2 -->
<g id="edge12" class="edge"><title>ZNF711_TFAP2A_TFAP2D&#45;&gt;HOXB6_PRRX2</title>
<a xlink:title="PRRX2: 0.229||TFAP2D: 0.455||TFAP2A: 0.041||remove17">
<path fill="none" stroke="#e1a3ff" stroke-width="3" d="M162.583,-63.1101C162.583,-138.654 162.583,-353.595 162.583,-428.864"/>
<path fill="none" stroke="#d47aff" stroke-width="3" d="M160.583,-63.1101C160.583,-138.654 160.583,-353.595 160.583,-428.864"/>
<polygon fill="#d47aff" stroke="#d47aff" points="164.383,-62.727 161.583,-54.727 158.783,-62.727 164.383,-62.727"/>
<polygon fill="#e1a3ff" stroke="#e1a3ff" points="158.783,-428.928 161.583,-436.928 164.383,-428.928 158.783,-428.928"/>
</a>
</g>
<!-- SIN3A_CHD1 -->
<g id="node14" class="node"><title>SIN3A_CHD1</title>
<a xlink:href="SIN3A_CHD1.svg" xlink:title="Z&#45;value: 1.751||remove29">
<polygon fill="#5b6cff" stroke="#5b6cff" stroke-width="2" points="435.23,-89.8878 380.73,-89.8878 368.73,-77.8878 368.73,-65.8878 380.73,-53.8878 435.23,-53.8878 447.23,-65.8878 447.23,-77.8878 435.23,-89.8878"/>
<path fill="#5b6cff" stroke="#5b6cff" stroke-width="2" d="M380.73,-89.8878C374.73,-89.8878 368.73,-83.8878 368.73,-77.8878"/>
<path fill="#5b6cff" stroke="#5b6cff" stroke-width="2" d="M368.73,-65.8878C368.73,-59.8878 374.73,-53.8878 380.73,-53.8878"/>
<path fill="#5b6cff" stroke="#5b6cff" stroke-width="2" d="M435.23,-53.8878C441.23,-53.8878 447.23,-59.8878 447.23,-65.8878"/>
<path fill="#5b6cff" stroke="#5b6cff" stroke-width="2" d="M447.23,-77.8878C447.23,-83.8878 441.23,-89.8878 435.23,-89.8878"/>
<polyline fill="none" stroke="white" stroke-width="2" points="435.23,-89.8878 380.73,-89.8878 "/>
<path fill="none" stroke="white" stroke-width="2" d="M380.73,-89.8878C374.73,-89.8878 368.73,-83.8878 368.73,-77.8878"/>
<polyline fill="none" stroke="white" stroke-width="2" points="368.73,-77.8878 368.73,-65.8878 "/>
<path fill="none" stroke="white" stroke-width="2" d="M368.73,-65.8878C368.73,-59.8878 374.73,-53.8878 380.73,-53.8878"/>
<polyline fill="none" stroke="white" stroke-width="2" points="380.73,-53.8878 435.23,-53.8878 "/>
<path fill="none" stroke="white" stroke-width="2" d="M435.23,-53.8878C441.23,-53.8878 447.23,-59.8878 447.23,-65.8878"/>
<polyline fill="none" stroke="white" stroke-width="2" points="447.23,-65.8878 447.23,-77.8878 "/>
<path fill="none" stroke="white" stroke-width="2" d="M447.23,-77.8878C447.23,-83.8878 441.23,-89.8878 435.23,-89.8878"/>
<text text-anchor="middle" x="407.98" y="-69.3878" font-family="Helvetica,sans-Serif" font-size="10.00" fill="white">SIN3A_CHD1</text>
</a>
</g>
<!-- ZNF711_TFAP2A_TFAP2D&#45;&gt;SIN3A_CHD1 -->
<g id="edge14" class="edge"><title>ZNF711_TFAP2A_TFAP2D&#45;&gt;SIN3A_CHD1</title>
<a xlink:title="SIN3A: 0.087||TFAP2A: 0.071||remove15root">
<path fill="none" stroke="#e9bcff" stroke-width="3" d="M238.936,-46.5726C278.739,-52.2954 326.018,-59.0931 360.465,-64.0458"/>
<path fill="none" stroke="#eabfff" stroke-width="3" d="M238.652,-48.5523C278.454,-54.275 325.733,-61.0727 360.18,-66.0255"/>
<polygon fill="#eabfff" stroke="#eabfff" points="239.191,-44.7908 230.874,-46.4237 238.394,-50.3338 239.191,-44.7908"/>
<polygon fill="#e9bcff" stroke="#e9bcff" points="360.032,-67.8226 368.35,-66.1897 360.829,-62.2796 360.032,-67.8226"/>
</a>
</g>
<!-- DLX4_HOXD8&#45;&gt;DLX4_HOXD8 -->
<g id="edge50" class="edge"><title>DLX4_HOXD8&#45;&gt;DLX4_HOXD8</title>
<a xlink:title="DLX4: 0.016||remove5root">
<path fill="none" stroke="#edc9ff" stroke-width="3" d="M518.499,-317.393C528.579,-316.928 536.113,-314.709 536.113,-310.736 536.113,-307.943 532.388,-306.016 526.673,-304.957"/>
<polygon fill="#edc9ff" stroke="#edc9ff" points="526.753,-302.149 518.499,-304.079 526.154,-307.717 526.753,-302.149"/>
</a>
</g>
<!-- PATZ1_KLF4&#45;&gt;DLX4_HOXD8 -->
<g id="edge34" class="edge"><title>PATZ1_KLF4&#45;&gt;DLX4_HOXD8</title>
<a xlink:title="DLX4: 0.155||HOXD8: 0.001||remove22">
<path fill="none" stroke="#e5b0ff" stroke-width="3" d="M301.751,-36.3119C334.151,-86.7271 424.715,-227.648 461.882,-285.48"/>
<polygon fill="#e5b0ff" stroke="#e5b0ff" points="459.668,-287.215 466.349,-292.431 464.379,-284.187 459.668,-287.215"/>
</a>
</g>
<!-- PATZ1_KLF4&#45;&gt;PATZ1_KLF4 -->
<g id="edge38" class="edge"><title>PATZ1_KLF4&#45;&gt;PATZ1_KLF4</title>
<a xlink:title="PATZ1: 0.441||KLF4: 0.051||remove23">
<path fill="none" stroke="#d57cff" stroke-width="3" d="M328.197,-24.6907C338.317,-24.3083 345.983,-22.0781 345.983,-18 345.983,-15.1326 342.193,-13.1787 336.425,-12.1384"/>
<polygon fill="#d57cff" stroke="#d57cff" points="336.437,-9.32556 328.197,-11.3093 335.875,-14.8973 336.437,-9.32556"/>
</a>
</g>
<!-- PATZ1_KLF4&#45;&gt;LEF1 -->
<g id="edge40" class="edge"><title>PATZ1_KLF4&#45;&gt;LEF1</title>
<a xlink:title="LEF1: 0.144||remove23root">
<path fill="none" stroke="#b2b9ff" stroke-width="3" d="M287.357,-36.2628C281.567,-76.53 267.688,-173.062 260.978,-219.733"/>
<polygon fill="#b2b9ff" stroke="#b2b9ff" points="258.179,-219.525 259.812,-227.842 263.722,-220.322 258.179,-219.525"/>
</a>
</g>
<!-- PATZ1_KLF4&#45;&gt;POU2F1 -->
<g id="edge42" class="edge"><title>PATZ1_KLF4&#45;&gt;POU2F1</title>
<a xlink:title="POU2F1: 0.274||remove23">
<path fill="none" stroke="#de9aff" stroke-width="3" d="M295.282,-36.0479C314.147,-100.295 378.091,-318.07 400.303,-393.716"/>
<polygon fill="#de9aff" stroke="#de9aff" points="397.62,-394.518 402.56,-401.405 402.993,-392.94 397.62,-394.518"/>
</a>
</g>
<!-- PATZ1_KLF4&#45;&gt;ZBTB33_CHD2 -->
<g id="edge46" class="edge"><title>PATZ1_KLF4&#45;&gt;ZBTB33_CHD2</title>
<a xlink:title="CHD2: 0.136||ZBTB33: 0.007||remove21root">
<path fill="none" stroke="#e6b3ff" stroke-width="3" d="M289.983,-36.1472C289.983,-106.822 289.983,-363.857 289.983,-447.355"/>
<polygon fill="#e6b3ff" stroke="#e6b3ff" points="287.183,-447.552 289.983,-455.552 292.783,-447.552 287.183,-447.552"/>
</a>
</g>
<!-- PATZ1_KLF4&#45;&gt;HOXB6_PRRX2 -->
<g id="edge48" class="edge"><title>PATZ1_KLF4&#45;&gt;HOXB6_PRRX2</title>
<a xlink:title="PRRX2: 0.338||remove17">
<path fill="none" stroke="#db8fff" stroke-width="3" d="M284.153,-36.2234C272.684,-72.2104 246.508,-154.984 225.899,-224.996 204.194,-298.729 180.241,-386.275 168.646,-429.082"/>
<polygon fill="#db8fff" stroke="#db8fff" points="165.883,-428.576 166.496,-437.03 171.288,-430.039 165.883,-428.576"/>
</a>
</g>
<!-- KLF14_SP8 -->
<g id="node18" class="node"><title>KLF14_SP8</title>
<a xlink:href="KLF14_SP8.svg" xlink:title="Z&#45;value: 1.011||remove30">
<polygon fill="#8b96ff" stroke="#8b96ff" stroke-width="2" points="85.7965,-388.341 41.2965,-388.341 29.2965,-376.341 29.2965,-364.341 41.2965,-352.341 85.7965,-352.341 97.7965,-364.341 97.7965,-376.341 85.7965,-388.341"/>
<path fill="#8b96ff" stroke="#8b96ff" stroke-width="2" d="M41.2965,-388.341C35.2965,-388.341 29.2965,-382.341 29.2965,-376.341"/>
<path fill="#8b96ff" stroke="#8b96ff" stroke-width="2" d="M29.2965,-364.341C29.2965,-358.341 35.2965,-352.341 41.2965,-352.341"/>
<path fill="#8b96ff" stroke="#8b96ff" stroke-width="2" d="M85.7965,-352.341C91.7965,-352.341 97.7965,-358.341 97.7965,-364.341"/>
<path fill="#8b96ff" stroke="#8b96ff" stroke-width="2" d="M97.7965,-376.341C97.7965,-382.341 91.7965,-388.341 85.7965,-388.341"/>
<polyline fill="none" stroke="white" stroke-width="2" points="85.7965,-388.341 41.2965,-388.341 "/>
<path fill="none" stroke="white" stroke-width="2" d="M41.2965,-388.341C35.2965,-388.341 29.2965,-382.341 29.2965,-376.341"/>
<polyline fill="none" stroke="white" stroke-width="2" points="29.2965,-376.341 29.2965,-364.341 "/>
<path fill="none" stroke="white" stroke-width="2" d="M29.2965,-364.341C29.2965,-358.341 35.2965,-352.341 41.2965,-352.341"/>
<polyline fill="none" stroke="white" stroke-width="2" points="41.2965,-352.341 85.7965,-352.341 "/>
<path fill="none" stroke="white" stroke-width="2" d="M85.7965,-352.341C91.7965,-352.341 97.7965,-358.341 97.7965,-364.341"/>
<polyline fill="none" stroke="white" stroke-width="2" points="97.7965,-364.341 97.7965,-376.341 "/>
<path fill="none" stroke="white" stroke-width="2" d="M97.7965,-376.341C97.7965,-382.341 91.7965,-388.341 85.7965,-388.341"/>
<text text-anchor="middle" x="63.5465" y="-367.841" font-family="Helvetica,sans-Serif" font-size="10.00">KLF14_SP8</text>
</a>
</g>
<!-- PATZ1_KLF4&#45;&gt;KLF14_SP8 -->
<g id="edge36" class="edge"><title>PATZ1_KLF4&#45;&gt;KLF14_SP8</title>
<a xlink:title="SP8: 0.069||remove12root">
<path fill="none" stroke="#eabfff" stroke-width="3" d="M278.127,-36.4473C240.374,-95.1929 122.908,-277.973 79.7039,-345.2"/>
<polygon fill="#eabfff" stroke="#eabfff" points="77.2541,-343.833 75.2845,-352.077 81.9652,-346.861 77.2541,-343.833"/>
</a>
</g>
<!-- HOXB4_LHX9 -->
<g id="node33" class="node"><title>HOXB4_LHX9</title>
<a xlink:href="HOXB4_LHX9.svg" xlink:title="Z&#45;value: 0.396||remove26">
<polygon fill="#b2baff" stroke="#b2baff" stroke-width="2" points="91.5465,-139.41 35.5465,-139.41 23.5465,-127.41 23.5465,-115.41 35.5465,-103.41 91.5465,-103.41 103.546,-115.41 103.546,-127.41 91.5465,-139.41"/>
<path fill="#b2baff" stroke="#b2baff" stroke-width="2" d="M35.5465,-139.41C29.5465,-139.41 23.5465,-133.41 23.5465,-127.41"/>
<path fill="#b2baff" stroke="#b2baff" stroke-width="2" d="M23.5465,-115.41C23.5465,-109.41 29.5465,-103.41 35.5465,-103.41"/>
<path fill="#b2baff" stroke="#b2baff" stroke-width="2" d="M91.5465,-103.41C97.5465,-103.41 103.546,-109.41 103.546,-115.41"/>
<path fill="#b2baff" stroke="#b2baff" stroke-width="2" d="M103.546,-127.41C103.546,-133.41 97.5465,-139.41 91.5465,-139.41"/>
<polyline fill="none" stroke="white" stroke-width="2" points="91.5465,-139.41 35.5465,-139.41 "/>
<path fill="none" stroke="white" stroke-width="2" d="M35.5465,-139.41C29.5465,-139.41 23.5465,-133.41 23.5465,-127.41"/>
<polyline fill="none" stroke="white" stroke-width="2" points="23.5465,-127.41 23.5465,-115.41 "/>
<path fill="none" stroke="white" stroke-width="2" d="M23.5465,-115.41C23.5465,-109.41 29.5465,-103.41 35.5465,-103.41"/>
<polyline fill="none" stroke="white" stroke-width="2" points="35.5465,-103.41 91.5465,-103.41 "/>
<path fill="none" stroke="white" stroke-width="2" d="M91.5465,-103.41C97.5465,-103.41 103.546,-109.41 103.546,-115.41"/>
<polyline fill="none" stroke="white" stroke-width="2" points="103.546,-115.41 103.546,-127.41 "/>
<path fill="none" stroke="white" stroke-width="2" d="M103.546,-127.41C103.546,-133.41 97.5465,-139.41 91.5465,-139.41"/>
<text text-anchor="middle" x="63.5465" y="-118.91" font-family="Helvetica,sans-Serif" font-size="10.00">HOXB4_LHX9</text>
</a>
</g>
<!-- PATZ1_KLF4&#45;&gt;HOXB4_LHX9 -->
<g id="edge44" class="edge"><title>PATZ1_KLF4&#45;&gt;HOXB4_LHX9</title>
<a xlink:title="HOXB4: 0.273||remove23">
<path fill="none" stroke="#df9bff" stroke-width="3" d="M270.851,-36.0794C262.375,-43.3992 251.989,-51.4862 241.623,-57.3411 200.265,-80.7005 148.829,-98.1088 111.886,-108.838"/>
<polygon fill="#df9bff" stroke="#df9bff" points="110.688,-106.268 103.764,-111.157 112.225,-111.653 110.688,-106.268"/>
</a>
</g>
<!-- LEF1&#45;&gt;DLX4_HOXD8 -->
<g id="edge60" class="edge"><title>LEF1&#45;&gt;DLX4_HOXD8</title>
<a xlink:title="HOXD8: 0.141||remove22root">
<path fill="none" stroke="#ffb2b2" stroke-width="3" d="M284.305,-253.829C320.495,-264.455 385.234,-283.464 429.866,-296.57"/>
<polygon fill="#ffb2b2" stroke="#ffb2b2" points="429.213,-299.296 437.678,-298.863 430.79,-293.923 429.213,-299.296"/>
</a>
</g>
<!-- LEF1&#45;&gt;LEF1 -->
<g id="edge64" class="edge"><title>LEF1&#45;&gt;LEF1</title>
<a xlink:title="LEF1: 0.158||remove28root">
<path fill="none" stroke="#ffafaf" stroke-width="3" d="M284.46,-252.619C294.243,-252.764 302.219,-250.516 302.219,-245.876 302.219,-242.613 298.276,-240.533 292.534,-239.636"/>
<polygon fill="#ffafaf" stroke="#ffafaf" points="292.619,-236.836 284.46,-239.132 292.27,-242.425 292.619,-236.836"/>
</a>
</g>
<!-- LEF1&#45;&gt;POU2F1 -->
<g id="edge68" class="edge"><title>LEF1&#45;&gt;POU2F1</title>
<a xlink:title="POU2F1: 0.148||remove24root">
<path fill="none" stroke="#ffb1b1" stroke-width="3" d="M273.068,-264.167C300.398,-295.707 356.39,-360.326 386.947,-395.589"/>
<polygon fill="#ffb1b1" stroke="#ffb1b1" points="384.989,-397.605 392.344,-401.818 389.221,-393.938 384.989,-397.605"/>
</a>
</g>
<!-- LEF1&#45;&gt;ZBTB33_CHD2 -->
<g id="edge72" class="edge"><title>LEF1&#45;&gt;ZBTB33_CHD2</title>
<a xlink:title="CHD2: 0.150||ZBTB33: 0.059||remove25root">
<path fill="none" stroke="#ffb1b1" stroke-width="3" d="M259.845,-264.139C265.634,-304.406 279.514,-400.938 286.224,-447.609"/>
<polygon fill="#ffb1b1" stroke="#ffb1b1" points="283.48,-448.198 287.39,-455.718 289.023,-447.401 283.48,-448.198"/>
</a>
</g>
<!-- LEF1&#45;&gt;HOXB6_PRRX2 -->
<g id="edge74" class="edge"><title>LEF1&#45;&gt;HOXB6_PRRX2</title>
<a xlink:title="HOXB6: 0.128||remove17root">
<path fill="none" stroke="#ffb5b5" stroke-width="3" d="M248.899,-264.094C231.829,-301.472 192.81,-386.912 173.234,-429.777"/>
<polygon fill="#ffb5b5" stroke="#ffb5b5" points="170.591,-428.823 169.815,-437.264 175.685,-431.15 170.591,-428.823"/>
</a>
</g>
<!-- LEF1&#45;&gt;KLF14_SP8 -->
<g id="edge62" class="edge"><title>LEF1&#45;&gt;KLF14_SP8</title>
<a xlink:title="SP8: 0.191||remove30root">
<path fill="none" stroke="#ffa9a9" stroke-width="3" d="M229.881,-263.445C195.427,-285.587 136.164,-323.673 98.4653,-347.9"/>
<polygon fill="#ffa9a9" stroke="#ffa9a9" points="96.9041,-345.575 91.6879,-352.256 99.9317,-350.286 96.9041,-345.575"/>
</a>
</g>
<!-- REST -->
<g id="node22" class="node"><title>REST</title>
<a xlink:href="REST.svg" xlink:title="Z&#45;value: 0.425||remove16">
<polygon fill="#b0b8ff" stroke="#b0b8ff" stroke-width="2" points="42,-263.876 12,-263.876 -3.19744e-14,-251.876 -3.19744e-14,-239.876 12,-227.876 42,-227.876 54,-239.876 54,-251.876 42,-263.876"/>
<path fill="#b0b8ff" stroke="#b0b8ff" stroke-width="2" d="M12,-263.876C6,-263.876 -3.19744e-14,-257.876 -3.19744e-14,-251.876"/>
<path fill="#b0b8ff" stroke="#b0b8ff" stroke-width="2" d="M-3.19744e-14,-239.876C-3.19744e-14,-233.876 6,-227.876 12,-227.876"/>
<path fill="#b0b8ff" stroke="#b0b8ff" stroke-width="2" d="M42,-227.876C48,-227.876 54,-233.876 54,-239.876"/>
<path fill="#b0b8ff" stroke="#b0b8ff" stroke-width="2" d="M54,-251.876C54,-257.876 48,-263.876 42,-263.876"/>
<polyline fill="none" stroke="white" stroke-width="2" points="42,-263.876 12,-263.876 "/>
<path fill="none" stroke="white" stroke-width="2" d="M12,-263.876C6,-263.876 -3.19744e-14,-257.876 -3.19744e-14,-251.876"/>
<polyline fill="none" stroke="white" stroke-width="2" points="-3.19744e-14,-251.876 -3.19744e-14,-239.876 "/>
<path fill="none" stroke="white" stroke-width="2" d="M-3.19744e-14,-239.876C-3.19744e-14,-233.876 6,-227.876 12,-227.876"/>
<polyline fill="none" stroke="white" stroke-width="2" points="12,-227.876 42,-227.876 "/>
<path fill="none" stroke="white" stroke-width="2" d="M42,-227.876C48,-227.876 54,-233.876 54,-239.876"/>
<polyline fill="none" stroke="white" stroke-width="2" points="54,-239.876 54,-251.876 "/>
<path fill="none" stroke="white" stroke-width="2" d="M54,-251.876C54,-257.876 48,-263.876 42,-263.876"/>
<text text-anchor="middle" x="27" y="-243.376" font-family="Helvetica,sans-Serif" font-size="10.00">REST</text>
</a>
</g>
<!-- LEF1&#45;&gt;REST -->
<g id="edge66" class="edge"><title>LEF1&#45;&gt;REST</title>
<a xlink:title="REST: 0.127||remove16root">
<path fill="none" stroke="#ffb5b5" stroke-width="3" d="M229.906,-245.876C188.194,-245.876 108.615,-245.876 62.4852,-245.876"/>
<polygon fill="#ffb5b5" stroke="#ffb5b5" points="62.2777,-243.076 54.2777,-245.876 62.2776,-248.676 62.2777,-243.076"/>
</a>
</g>
<!-- LEF1&#45;&gt;HOXB4_LHX9 -->
<g id="edge70" class="edge"><title>LEF1&#45;&gt;HOXB4_LHX9</title>
<a xlink:title="LHX9: 0.154||remove26root">
<path fill="none" stroke="#ffb0b0" stroke-width="3" d="M229.881,-228.307C195.427,-206.164 136.164,-168.079 98.4653,-143.851"/>
<polygon fill="#ffb0b0" stroke="#ffb0b0" points="99.9317,-141.465 91.6879,-139.495 96.9041,-146.176 99.9317,-141.465"/>
</a>
</g>
<!-- HOXB6_PRRX2&#45;&gt;POU2F1 -->
<g id="edge52" class="edge"><title>HOXB6_PRRX2&#45;&gt;POU2F1</title>
<a xlink:title="POU2F1: 0.069||remove11root">
<path fill="none" stroke="#eabfff" stroke-width="3" d="M205.918,-448.916C253.558,-442.066 328.341,-431.314 372.325,-424.99"/>
<polygon fill="#eabfff" stroke="#eabfff" points="372.91,-427.735 380.43,-423.825 372.113,-422.192 372.91,-427.735"/>
</a>
</g>
<!-- HOXB6_PRRX2&#45;&gt;ZBTB33_CHD2 -->
<g id="edge56" class="edge"><title>HOXB6_PRRX2&#45;&gt;ZBTB33_CHD2</title>
<a xlink:title="CHD2: 0.032||remove6root">
<path fill="none" stroke="#ecc6ff" stroke-width="3" d="M206.13,-461.695C216.635,-463.206 227.917,-464.828 238.693,-466.377"/>
<polygon fill="#ecc6ff" stroke="#ecc6ff" points="238.496,-469.177 246.813,-467.545 239.293,-463.634 238.496,-469.177"/>
</a>
</g>
<!-- HOXB6_PRRX2&#45;&gt;HOXB6_PRRX2 -->
<g id="edge58" class="edge"><title>HOXB6_PRRX2&#45;&gt;HOXB6_PRRX2</title>
<a xlink:title="HOXB6: 0.279||remove17">
<path fill="none" stroke="#de9aff" stroke-width="3" d="M205.888,-461.892C216.089,-461.323 223.583,-459.122 223.583,-455.29 223.583,-452.596 219.878,-450.708 214.132,-449.627"/>
<polygon fill="#de9aff" stroke="#de9aff" points="214.154,-446.811 205.888,-448.689 213.521,-452.376 214.154,-446.811"/>
</a>
</g>
<!-- HOXB6_PRRX2&#45;&gt;HOXB4_LHX9 -->
<g id="edge54" class="edge"><title>HOXB6_PRRX2&#45;&gt;HOXB4_LHX9</title>
<a xlink:title="LHX9: 0.080||remove13root">
<path fill="none" stroke="#eabdff" stroke-width="3" d="M156.172,-436.864C139.735,-380.884 90.3424,-212.669 71.2224,-147.552"/>
<polygon fill="#eabdff" stroke="#eabdff" points="73.8807,-146.666 68.9402,-139.779 68.5076,-148.244 73.8807,-146.666"/>
</a>
</g>
<!-- SIN3A_CHD1&#45;&gt;DLX4_HOXD8 -->
<g id="edge18" class="edge"><title>SIN3A_CHD1&#45;&gt;DLX4_HOXD8</title>
<a xlink:title="HOXD8: 0.420||DLX4: 0.020||remove22">
<path fill="none" stroke="#d680ff" stroke-width="3" d="M413.173,-89.9886C420.392,-115.119 433.901,-161.992 445.633,-201.896 453.968,-230.246 463.674,-262.701 470.29,-284.74"/>
<polygon fill="#d680ff" stroke="#d680ff" points="467.682,-285.79 472.665,-292.647 473.045,-284.179 467.682,-285.79"/>
</a>
</g>
<!-- SIN3A_CHD1&#45;&gt;PATZ1_KLF4 -->
<g id="edge22" class="edge"><title>SIN3A_CHD1&#45;&gt;PATZ1_KLF4</title>
<a xlink:title="KLF4: 0.185||PATZ1: 0.181||remove23">
<path fill="none" stroke="#e4aaff" stroke-width="3" d="M368.689,-53.9439C358.121,-49.1179 346.601,-43.8567 335.716,-38.8856"/>
<polygon fill="#e4aaff" stroke="#e4aaff" points="336.741,-36.2757 328.301,-35.4993 334.415,-41.3697 336.741,-36.2757"/>
</a>
</g>
<!-- SIN3A_CHD1&#45;&gt;LEF1 -->
<g id="edge24" class="edge"><title>SIN3A_CHD1&#45;&gt;LEF1</title>
<a xlink:title="LEF1: 0.163||remove29root">
<path fill="none" stroke="#aeb6ff" stroke-width="3" d="M392.131,-90.1787C364.802,-121.719 308.809,-186.338 278.253,-221.602"/>
<polygon fill="#aeb6ff" stroke="#aeb6ff" points="275.979,-219.95 272.856,-227.83 280.211,-223.617 275.979,-219.95"/>
</a>
</g>
<!-- SIN3A_CHD1&#45;&gt;ZBTB33_CHD2 -->
<g id="edge30" class="edge"><title>SIN3A_CHD1&#45;&gt;ZBTB33_CHD2</title>
<a xlink:title="ZBTB33: 0.044||remove7root">
<path fill="none" stroke="#ecc4ff" stroke-width="3" d="M402.681,-89.9357C383.816,-154.183 319.872,-371.957 297.66,-447.604"/>
<polygon fill="#ecc4ff" stroke="#ecc4ff" points="294.97,-446.828 295.402,-455.293 300.343,-448.406 294.97,-446.828"/>
</a>
</g>
<!-- SIN3A_CHD1&#45;&gt;SIN3A_CHD1 -->
<g id="edge32" class="edge"><title>SIN3A_CHD1&#45;&gt;SIN3A_CHD1</title>
<a xlink:title="CHD1: 0.054||remove8root">
<path fill="none" stroke="#ebc2ff" stroke-width="3" d="M447.407,-78.557C457.445,-78.1187 464.98,-75.8956 464.98,-71.8878 464.98,-69.0698 461.255,-67.1341 455.554,-66.0808"/>
<polygon fill="#ebc2ff" stroke="#ebc2ff" points="455.658,-63.2763 447.407,-65.2185 455.068,-68.8452 455.658,-63.2763"/>
</a>
</g>
<!-- SIN3A_CHD1&#45;&gt;KLF14_SP8 -->
<g id="edge20" class="edge"><title>SIN3A_CHD1&#45;&gt;KLF14_SP8</title>
<a xlink:title="KLF14: 0.343||SP8: 0.094||SIN3A: 0.009||remove29">
<path fill="none" stroke="#db8eff" stroke-width="3" d="M380.176,-96.1117C344.151,-125.924 280.282,-179.132 226.554,-225.751 177.815,-268.042 121.929,-318.521 90.0785,-347.483"/>
<path fill="none" stroke="#eecaff" stroke-width="3" d="M378.901,-94.5709C342.871,-124.388 279.002,-177.595 225.244,-224.24 176.474,-266.558 120.588,-317.037 88.733,-346.003"/>
<polygon fill="#eecaff" stroke="#eecaff" points="381.552,-97.3094 385.933,-90.0534 377.984,-92.9939 381.552,-97.3094"/>
<polygon fill="#db8eff" stroke="#db8eff" points="87.3972,-344.785 83.3648,-352.24 91.1662,-348.927 87.3972,-344.785"/>
</a>
</g>
<!-- SIN3A_CHD1&#45;&gt;REST -->
<g id="edge26" class="edge"><title>SIN3A_CHD1&#45;&gt;REST</title>
<a xlink:title="REST: 0.365||remove16">
<path fill="none" stroke="#d98aff" stroke-width="3" d="M368.644,-89.8522C293.986,-123.947 132.877,-197.523 61.8466,-229.962"/>
<polygon fill="#d98aff" stroke="#d98aff" points="60.5633,-227.47 54.4494,-233.34 62.8897,-232.564 60.5633,-227.47"/>
</a>
</g>
<!-- WRNIP1 -->
<g id="node24" class="node"><title>WRNIP1</title>
<a xlink:href="WRNIP1.svg" xlink:title="Z&#45;value: 1.103||remove27">
<polygon fill="#8591ff" stroke="#8591ff" stroke-width="2" points="493.613,-199.016 462.613,-199.016 450.613,-187.016 450.613,-175.016 462.613,-163.016 493.613,-163.016 505.613,-175.016 505.613,-187.016 493.613,-199.016"/>
<path fill="#8591ff" stroke="#8591ff" stroke-width="2" d="M462.613,-199.016C456.613,-199.016 450.613,-193.016 450.613,-187.016"/>
<path fill="#8591ff" stroke="#8591ff" stroke-width="2" d="M450.613,-175.016C450.613,-169.016 456.613,-163.016 462.613,-163.016"/>
<path fill="#8591ff" stroke="#8591ff" stroke-width="2" d="M493.613,-163.016C499.613,-163.016 505.613,-169.016 505.613,-175.016"/>
<path fill="#8591ff" stroke="#8591ff" stroke-width="2" d="M505.613,-187.016C505.613,-193.016 499.613,-199.016 493.613,-199.016"/>
<polyline fill="none" stroke="white" stroke-width="2" points="493.613,-199.016 462.613,-199.016 "/>
<path fill="none" stroke="white" stroke-width="2" d="M462.613,-199.016C456.613,-199.016 450.613,-193.016 450.613,-187.016"/>
<polyline fill="none" stroke="white" stroke-width="2" points="450.613,-187.016 450.613,-175.016 "/>
<path fill="none" stroke="white" stroke-width="2" d="M450.613,-175.016C450.613,-169.016 456.613,-163.016 462.613,-163.016"/>
<polyline fill="none" stroke="white" stroke-width="2" points="462.613,-163.016 493.613,-163.016 "/>
<path fill="none" stroke="white" stroke-width="2" d="M493.613,-163.016C499.613,-163.016 505.613,-169.016 505.613,-175.016"/>
<polyline fill="none" stroke="white" stroke-width="2" points="505.613,-175.016 505.613,-187.016 "/>
<path fill="none" stroke="white" stroke-width="2" d="M505.613,-187.016C505.613,-193.016 499.613,-199.016 493.613,-199.016"/>
<text text-anchor="middle" x="478.113" y="-178.516" font-family="Helvetica,sans-Serif" font-size="10.00">WRNIP1</text>
</a>
</g>
<!-- SIN3A_CHD1&#45;&gt;WRNIP1 -->
<g id="edge28" class="edge"><title>SIN3A_CHD1&#45;&gt;WRNIP1</title>
<a xlink:title="WRNIP1: 0.001||SIN3A: 0.007||remove3root">
<path fill="none" stroke="#eecbff" stroke-width="3" d="M424.761,-96.1494C436.209,-113.963 451.577,-137.875 463.023,-155.686"/>
<path fill="none" stroke="#eecaff" stroke-width="3" d="M423.079,-97.2307C434.527,-115.045 449.894,-138.957 461.34,-156.767"/>
<polygon fill="#eecaff" stroke="#eecaff" points="426.242,-95.1242 419.561,-89.908 421.531,-98.1519 426.242,-95.1242"/>
<polygon fill="#eecbff" stroke="#eecbff" points="459.834,-157.752 466.514,-162.969 464.545,-154.725 459.834,-157.752"/>
</a>
</g>
<!-- KLF14_SP8&#45;&gt;REST -->
<g id="edge96" class="edge"><title>KLF14_SP8&#45;&gt;REST</title>
<a xlink:title="REST: 0.854||remove16">
<path fill="none" stroke="#bd32ff" stroke-width="3" d="M58.2323,-352.243C52.0071,-331.042 41.6477,-295.761 34.5804,-271.692"/>
<polygon fill="#bd32ff" stroke="#bd32ff" points="37.2611,-270.883 32.3206,-263.996 31.8879,-272.461 37.2611,-270.883"/>
</a>
</g>
<!-- WRNIP1&#45;&gt;ZNF711_TFAP2A_TFAP2D -->
<g id="edge94" class="edge"><title>WRNIP1&#45;&gt;ZNF711_TFAP2A_TFAP2D</title>
<a xlink:title="TFAP2A: 0.066||remove10root">
<path fill="none" stroke="#eac0ff" stroke-width="3" d="M450.576,-168.44C396.483,-143.737 275.794,-88.6198 208.755,-58.0042"/>
<polygon fill="#eac0ff" stroke="#eac0ff" points="209.69,-55.3531 201.25,-54.5767 207.364,-60.4471 209.69,-55.3531"/>
</a>
</g>
<!-- WRNIP1&#45;&gt;DLX4_HOXD8 -->
<g id="edge76" class="edge"><title>WRNIP1&#45;&gt;DLX4_HOXD8</title>
<a xlink:title="DLX4: 0.000||remove0root">
<path fill="none" stroke="#eecbff" stroke-width="3" d="M478.113,-199.053C478.113,-221.194 478.113,-258.923 478.113,-284.33"/>
<polygon fill="#eecbff" stroke="#eecbff" points="475.313,-284.434 478.113,-292.434 480.913,-284.434 475.313,-284.434"/>
</a>
</g>
<!-- WRNIP1&#45;&gt;PATZ1_KLF4 -->
<g id="edge80" class="edge"><title>WRNIP1&#45;&gt;PATZ1_KLF4</title>
<a xlink:title="PATZ1: 0.056||remove9root">
<path fill="none" stroke="#ebc1ff" stroke-width="3" d="M451.892,-162.812C427.79,-145.678 391.463,-118.822 362.16,-92.7678 344.346,-76.9281 325.694,-57.5224 311.814,-42.451"/>
<polygon fill="#ebc1ff" stroke="#ebc1ff" points="313.638,-40.2963 306.174,-36.2801 309.504,-44.0743 313.638,-40.2963"/>
</a>
</g>
<!-- WRNIP1&#45;&gt;LEF1 -->
<g id="edge82" class="edge"><title>WRNIP1&#45;&gt;LEF1</title>
<a xlink:title="LEF1: 0.155||remove27root">
<path fill="none" stroke="#b0b8ff" stroke-width="3" d="M450.583,-189.099C410.516,-200.864 336.142,-222.702 292.231,-235.595"/>
<polygon fill="#b0b8ff" stroke="#b0b8ff" points="291.289,-232.954 284.402,-237.894 292.867,-238.327 291.289,-232.954"/>
</a>
</g>
<!-- WRNIP1&#45;&gt;POU2F1 -->
<g id="edge86" class="edge"><title>WRNIP1&#45;&gt;POU2F1</title>
<a xlink:title="POU2F1: 0.149||remove24">
<path fill="none" stroke="#e6b1ff" stroke-width="3" d="M468.802,-199.018C458.205,-220.216 441.081,-256.742 431.133,-289.856 420.597,-324.923 414.196,-366.838 410.871,-393.407"/>
<polygon fill="#e6b1ff" stroke="#e6b1ff" points="408.077,-393.188 409.898,-401.466 413.637,-393.859 408.077,-393.188"/>
</a>
</g>
<!-- WRNIP1&#45;&gt;HOXB6_PRRX2 -->
<g id="edge92" class="edge"><title>WRNIP1&#45;&gt;HOXB6_PRRX2</title>
<a xlink:title="PRRX2: 0.011||remove4root">
<path fill="none" stroke="#eec9ff" stroke-width="3" d="M456.853,-199.437C401.104,-247.744 250.744,-378.031 188.811,-431.697"/>
<polygon fill="#eec9ff" stroke="#eec9ff" points="186.962,-429.594 182.75,-436.949 190.63,-433.826 186.962,-429.594"/>
</a>
</g>
<!-- WRNIP1&#45;&gt;KLF14_SP8 -->
<g id="edge78" class="edge"><title>WRNIP1&#45;&gt;KLF14_SP8</title>
<a xlink:title="SP8: 0.129||remove18root">
<path fill="none" stroke="#e7b4ff" stroke-width="3" d="M450.591,-193.584C379.583,-226.013 189.855,-312.658 105.26,-351.291"/>
<polygon fill="#e7b4ff" stroke="#e7b4ff" points="104.008,-348.785 97.8942,-354.655 106.334,-353.879 104.008,-348.785"/>
</a>
</g>
<!-- WRNIP1&#45;&gt;REST -->
<g id="edge84" class="edge"><title>WRNIP1&#45;&gt;REST</title>
<a xlink:title="REST: 0.002||remove1root">
<path fill="none" stroke="#eecbff" stroke-width="3" d="M450.572,-184.975C372.369,-196.219 149.005,-228.334 62.1494,-240.822"/>
<polygon fill="#eecbff" stroke="#eecbff" points="61.6996,-238.058 54.1796,-241.968 62.4967,-243.601 61.6996,-238.058"/>
</a>
</g>
<!-- WRNIP1&#45;&gt;WRNIP1 -->
<g id="edge88" class="edge"><title>WRNIP1&#45;&gt;WRNIP1</title>
<a xlink:title="WRNIP1: 0.003||remove2root">
<path fill="none" stroke="#eecbff" stroke-width="3" d="M505.797,-187.764C515.376,-187.835 523.113,-185.586 523.113,-181.016 523.113,-177.873 519.456,-175.828 514.058,-174.88"/>
<polygon fill="#eecbff" stroke="#eecbff" points="513.982,-172.067 505.797,-174.267 513.568,-177.652 513.982,-172.067"/>
</a>
</g>
<!-- WRNIP1&#45;&gt;HOXB4_LHX9 -->
<g id="edge90" class="edge"><title>WRNIP1&#45;&gt;HOXB4_LHX9</title>
<a xlink:title="LHX9: 0.134||HOXB4: 0.133||remove19root">
<path fill="none" stroke="#e7b4ff" stroke-width="3" d="M450.591,-177.058C381.39,-167.109 199.436,-140.948 111.92,-128.365"/>
<polygon fill="#e7b4ff" stroke="#e7b4ff" points="112.069,-125.558 103.752,-127.191 111.272,-131.101 112.069,-125.558"/>
</a>
</g>
</g>
</svg>
