<?xml version="1.0" encoding="UTF-8" standalone="no"?>
<!DOCTYPE svg PUBLIC "-//W3C//DTD SVG 1.1//EN"
 "http://www.w3.org/Graphics/SVG/1.1/DTD/svg11.dtd">
<!-- Generated by graphviz version 2.28.0 (20110630.0925)
 -->
<!-- Title: _anonymous_0 Pages: 1 -->
<svg width="576pt" height="474pt"
 viewBox="0.00 0.00 576.43 473.93" xmlns="http://www.w3.org/2000/svg" xmlns:xlink="http://www.w3.org/1999/xlink">
<g id="graph1" class="graph" transform="scale(1 1) rotate(0) translate(4 469.932)">
<title>_anonymous_0</title>
<polygon fill="white" stroke="white" points="-4,5 -4,-469.932 573.432,-469.932 573.432,5 -4,5"/>
<!-- ZNF711_TFAP2A_TFAP2D -->
<g id="node1" class="node"><title>ZNF711_TFAP2A_TFAP2D</title>
<a xlink:href="ZNF711_TFAP2A_TFAP2D.svg" xlink:title="Z&#45;value: 2.387||remove31">
<polygon fill="#3247ff" stroke="#3247ff" stroke-width="2" points="254.866,-465.932 140.866,-465.932 128.866,-453.932 128.866,-441.932 140.866,-429.932 254.866,-429.932 266.866,-441.932 266.866,-453.932 254.866,-465.932"/>
<path fill="#3247ff" stroke="#3247ff" stroke-width="2" d="M140.866,-465.932C134.866,-465.932 128.866,-459.932 128.866,-453.932"/>
<path fill="#3247ff" stroke="#3247ff" stroke-width="2" d="M128.866,-441.932C128.866,-435.932 134.866,-429.932 140.866,-429.932"/>
<path fill="#3247ff" stroke="#3247ff" stroke-width="2" d="M254.866,-429.932C260.866,-429.932 266.866,-435.932 266.866,-441.932"/>
<path fill="#3247ff" stroke="#3247ff" stroke-width="2" d="M266.866,-453.932C266.866,-459.932 260.866,-465.932 254.866,-465.932"/>
<polyline fill="none" stroke="white" stroke-width="2" points="254.866,-465.932 140.866,-465.932 "/>
<path fill="none" stroke="white" stroke-width="2" d="M140.866,-465.932C134.866,-465.932 128.866,-459.932 128.866,-453.932"/>
<polyline fill="none" stroke="white" stroke-width="2" points="128.866,-453.932 128.866,-441.932 "/>
<path fill="none" stroke="white" stroke-width="2" d="M128.866,-441.932C128.866,-435.932 134.866,-429.932 140.866,-429.932"/>
<polyline fill="none" stroke="white" stroke-width="2" points="140.866,-429.932 254.866,-429.932 "/>
<path fill="none" stroke="white" stroke-width="2" d="M254.866,-429.932C260.866,-429.932 266.866,-435.932 266.866,-441.932"/>
<polyline fill="none" stroke="white" stroke-width="2" points="266.866,-441.932 266.866,-453.932 "/>
<path fill="none" stroke="white" stroke-width="2" d="M266.866,-453.932C266.866,-459.932 260.866,-465.932 254.866,-465.932"/>
<text text-anchor="middle" x="197.866" y="-445.432" font-family="Helvetica,sans-Serif" font-size="10.00" fill="white">ZNF711_TFAP2A_TFAP2D</text>
</a>
</g>
<!-- ZNF711_TFAP2A_TFAP2D&#45;&gt;ZNF711_TFAP2A_TFAP2D -->
<g id="edge18" class="edge"><title>ZNF711_TFAP2A_TFAP2D&#45;&gt;ZNF711_TFAP2A_TFAP2D</title>
<a xlink:title="TFAP2A: 0.506||ZNF711: 0.089||remove31">
<path fill="none" stroke="#d273ff" stroke-width="3" d="M267.141,-454.087C277.698,-453.148 284.866,-451.096 284.866,-447.932 284.866,-445.658 281.163,-443.959 275.16,-442.834"/>
<polygon fill="#d273ff" stroke="#d273ff" points="275.438,-440.046 267.141,-441.777 274.706,-445.598 275.438,-440.046"/>
</a>
</g>
<!-- AHR_ARNT2 -->
<g id="node2" class="node"><title>AHR_ARNT2</title>
<a xlink:href="AHR_ARNT2.svg" xlink:title="Z&#45;value: 1.019||remove20">
<polygon fill="#8a96ff" stroke="#8a96ff" stroke-width="2" points="124.35,-408.332 71.85,-408.332 59.85,-396.332 59.85,-384.332 71.85,-372.332 124.35,-372.332 136.35,-384.332 136.35,-396.332 124.35,-408.332"/>
<path fill="#8a96ff" stroke="#8a96ff" stroke-width="2" d="M71.85,-408.332C65.85,-408.332 59.85,-402.332 59.85,-396.332"/>
<path fill="#8a96ff" stroke="#8a96ff" stroke-width="2" d="M59.85,-384.332C59.85,-378.332 65.85,-372.332 71.85,-372.332"/>
<path fill="#8a96ff" stroke="#8a96ff" stroke-width="2" d="M124.35,-372.332C130.35,-372.332 136.35,-378.332 136.35,-384.332"/>
<path fill="#8a96ff" stroke="#8a96ff" stroke-width="2" d="M136.35,-396.332C136.35,-402.332 130.35,-408.332 124.35,-408.332"/>
<polyline fill="none" stroke="white" stroke-width="2" points="124.35,-408.332 71.85,-408.332 "/>
<path fill="none" stroke="white" stroke-width="2" d="M71.85,-408.332C65.85,-408.332 59.85,-402.332 59.85,-396.332"/>
<polyline fill="none" stroke="white" stroke-width="2" points="59.85,-396.332 59.85,-384.332 "/>
<path fill="none" stroke="white" stroke-width="2" d="M59.85,-384.332C59.85,-378.332 65.85,-372.332 71.85,-372.332"/>
<polyline fill="none" stroke="white" stroke-width="2" points="71.85,-372.332 124.35,-372.332 "/>
<path fill="none" stroke="white" stroke-width="2" d="M124.35,-372.332C130.35,-372.332 136.35,-378.332 136.35,-384.332"/>
<polyline fill="none" stroke="white" stroke-width="2" points="136.35,-384.332 136.35,-396.332 "/>
<path fill="none" stroke="white" stroke-width="2" d="M136.35,-396.332C136.35,-402.332 130.35,-408.332 124.35,-408.332"/>
<text text-anchor="middle" x="98.1" y="-387.832" font-family="Helvetica,sans-Serif" font-size="10.00">AHR_ARNT2</text>
</a>
</g>
<!-- ZNF711_TFAP2A_TFAP2D&#45;&gt;AHR_ARNT2 -->
<g id="edge2" class="edge"><title>ZNF711_TFAP2A_TFAP2D&#45;&gt;AHR_ARNT2</title>
<a xlink:title="ARNT2: 0.875||TFAP2A: 0.376||remove20">
<path fill="none" stroke="#bd32ff" stroke-width="3" d="M158.945,-426.616C151.46,-422.295 143.611,-417.763 136.123,-413.44"/>
<path fill="none" stroke="#d98aff" stroke-width="3" d="M159.945,-424.884C152.46,-420.562 144.611,-416.031 137.123,-411.708"/>
<polygon fill="#d98aff" stroke="#d98aff" points="158.245,-428.29 166.573,-429.865 161.045,-423.44 158.245,-428.29"/>
<polygon fill="#bd32ff" stroke="#bd32ff" points="137.61,-409.91 129.282,-408.335 134.81,-414.76 137.61,-409.91"/>
</a>
</g>
<!-- DLX4_HOXD8 -->
<g id="node4" class="node"><title>DLX4_HOXD8</title>
<a xlink:href="DLX4_HOXD8.svg" xlink:title="Z&#45;value: 0.786||remove29">
<polygon fill="#99a3ff" stroke="#99a3ff" stroke-width="2" points="68.75,-308.566 12.25,-308.566 0.25,-296.566 0.25,-284.566 12.25,-272.566 68.75,-272.566 80.75,-284.566 80.75,-296.566 68.75,-308.566"/>
<path fill="#99a3ff" stroke="#99a3ff" stroke-width="2" d="M12.25,-308.566C6.25,-308.566 0.25,-302.566 0.25,-296.566"/>
<path fill="#99a3ff" stroke="#99a3ff" stroke-width="2" d="M0.25,-284.566C0.25,-278.566 6.25,-272.566 12.25,-272.566"/>
<path fill="#99a3ff" stroke="#99a3ff" stroke-width="2" d="M68.75,-272.566C74.75,-272.566 80.75,-278.566 80.75,-284.566"/>
<path fill="#99a3ff" stroke="#99a3ff" stroke-width="2" d="M80.75,-296.566C80.75,-302.566 74.75,-308.566 68.75,-308.566"/>
<polyline fill="none" stroke="white" stroke-width="2" points="68.75,-308.566 12.25,-308.566 "/>
<path fill="none" stroke="white" stroke-width="2" d="M12.25,-308.566C6.25,-308.566 0.25,-302.566 0.25,-296.566"/>
<polyline fill="none" stroke="white" stroke-width="2" points="0.25,-296.566 0.25,-284.566 "/>
<path fill="none" stroke="white" stroke-width="2" d="M0.25,-284.566C0.25,-278.566 6.25,-272.566 12.25,-272.566"/>
<polyline fill="none" stroke="white" stroke-width="2" points="12.25,-272.566 68.75,-272.566 "/>
<path fill="none" stroke="white" stroke-width="2" d="M68.75,-272.566C74.75,-272.566 80.75,-278.566 80.75,-284.566"/>
<polyline fill="none" stroke="white" stroke-width="2" points="80.75,-284.566 80.75,-296.566 "/>
<path fill="none" stroke="white" stroke-width="2" d="M80.75,-296.566C80.75,-302.566 74.75,-308.566 68.75,-308.566"/>
<text text-anchor="middle" x="40.5" y="-288.066" font-family="Helvetica,sans-Serif" font-size="10.00">DLX4_HOXD8</text>
</a>
</g>
<!-- ZNF711_TFAP2A_TFAP2D&#45;&gt;DLX4_HOXD8 -->
<g id="edge4" class="edge"><title>ZNF711_TFAP2A_TFAP2D&#45;&gt;DLX4_HOXD8</title>
<a xlink:title="DLX4: 0.225||HOXD8: 0.150||ZNF711: 0.036||remove29">
<path fill="none" stroke="#e2a4ff" stroke-width="3" d="M182.002,-423.12C171.819,-407.021 157.402,-386.196 142.037,-370.143 121.827,-348.987 95.4827,-328.803 74.658,-314.198"/>
<path fill="none" stroke="#ecc5ff" stroke-width="3" d="M183.692,-422.05C173.463,-405.883 159.047,-385.058 143.483,-368.761 123.043,-347.4 96.6991,-327.216 75.8064,-312.561"/>
<polygon fill="#ecc5ff" stroke="#ecc5ff" points="180.627,-424.318 187.229,-429.634 185.383,-421.361 180.627,-424.318"/>
<polygon fill="#e2a4ff" stroke="#e2a4ff" points="76.5563,-310.891 68.3853,-308.638 73.3679,-315.495 76.5563,-310.891"/>
</a>
</g>
<!-- LHX8 -->
<g id="node6" class="node"><title>LHX8</title>
<a xlink:href="LHX8.svg" xlink:title="Z&#45;value: 0.404||remove32">
<polygon fill="#ffb2b2" stroke="#ffb2b2" stroke-width="2" points="270.466,-250.966 240.466,-250.966 228.466,-238.966 228.466,-226.966 240.466,-214.966 270.466,-214.966 282.466,-226.966 282.466,-238.966 270.466,-250.966"/>
<path fill="#ffb2b2" stroke="#ffb2b2" stroke-width="2" d="M240.466,-250.966C234.466,-250.966 228.466,-244.966 228.466,-238.966"/>
<path fill="#ffb2b2" stroke="#ffb2b2" stroke-width="2" d="M228.466,-226.966C228.466,-220.966 234.466,-214.966 240.466,-214.966"/>
<path fill="#ffb2b2" stroke="#ffb2b2" stroke-width="2" d="M270.466,-214.966C276.466,-214.966 282.466,-220.966 282.466,-226.966"/>
<path fill="#ffb2b2" stroke="#ffb2b2" stroke-width="2" d="M282.466,-238.966C282.466,-244.966 276.466,-250.966 270.466,-250.966"/>
<polyline fill="none" stroke="white" stroke-width="2" points="270.466,-250.966 240.466,-250.966 "/>
<path fill="none" stroke="white" stroke-width="2" d="M240.466,-250.966C234.466,-250.966 228.466,-244.966 228.466,-238.966"/>
<polyline fill="none" stroke="white" stroke-width="2" points="228.466,-238.966 228.466,-226.966 "/>
<path fill="none" stroke="white" stroke-width="2" d="M228.466,-226.966C228.466,-220.966 234.466,-214.966 240.466,-214.966"/>
<polyline fill="none" stroke="white" stroke-width="2" points="240.466,-214.966 270.466,-214.966 "/>
<path fill="none" stroke="white" stroke-width="2" d="M270.466,-214.966C276.466,-214.966 282.466,-220.966 282.466,-226.966"/>
<polyline fill="none" stroke="white" stroke-width="2" points="282.466,-226.966 282.466,-238.966 "/>
<path fill="none" stroke="white" stroke-width="2" d="M282.466,-238.966C282.466,-244.966 276.466,-250.966 270.466,-250.966"/>
<text text-anchor="middle" x="255.466" y="-230.466" font-family="Helvetica,sans-Serif" font-size="10.00">LHX8</text>
</a>
</g>
<!-- ZNF711_TFAP2A_TFAP2D&#45;&gt;LHX8 -->
<g id="edge6" class="edge"><title>ZNF711_TFAP2A_TFAP2D&#45;&gt;LHX8</title>
<a xlink:title="LHX8: 0.349||remove31root">
<path fill="none" stroke="#8e9aff" stroke-width="3" d="M202.777,-429.604C213,-391.45 236.599,-303.377 248.433,-259.214"/>
<polygon fill="#8e9aff" stroke="#8e9aff" points="251.202,-259.7 250.568,-251.248 245.792,-258.25 251.202,-259.7"/>
</a>
</g>
<!-- FOXK1_FOXP2_FOXB1_FOXP3 -->
<g id="node8" class="node"><title>FOXK1_FOXP2_FOXB1_FOXP3</title>
<a xlink:href="FOXK1_FOXP2_FOXB1_FOXP3.svg" xlink:title="Z&#45;value: 0.694||remove17">
<polygon fill="#9fa9ff" stroke="#9fa9ff" stroke-width="2" points="538.682,-308.566 402.182,-308.566 390.182,-296.566 390.182,-284.566 402.182,-272.566 538.682,-272.566 550.682,-284.566 550.682,-296.566 538.682,-308.566"/>
<path fill="#9fa9ff" stroke="#9fa9ff" stroke-width="2" d="M402.182,-308.566C396.182,-308.566 390.182,-302.566 390.182,-296.566"/>
<path fill="#9fa9ff" stroke="#9fa9ff" stroke-width="2" d="M390.182,-284.566C390.182,-278.566 396.182,-272.566 402.182,-272.566"/>
<path fill="#9fa9ff" stroke="#9fa9ff" stroke-width="2" d="M538.682,-272.566C544.682,-272.566 550.682,-278.566 550.682,-284.566"/>
<path fill="#9fa9ff" stroke="#9fa9ff" stroke-width="2" d="M550.682,-296.566C550.682,-302.566 544.682,-308.566 538.682,-308.566"/>
<polyline fill="none" stroke="white" stroke-width="2" points="538.682,-308.566 402.182,-308.566 "/>
<path fill="none" stroke="white" stroke-width="2" d="M402.182,-308.566C396.182,-308.566 390.182,-302.566 390.182,-296.566"/>
<polyline fill="none" stroke="white" stroke-width="2" points="390.182,-296.566 390.182,-284.566 "/>
<path fill="none" stroke="white" stroke-width="2" d="M390.182,-284.566C390.182,-278.566 396.182,-272.566 402.182,-272.566"/>
<polyline fill="none" stroke="white" stroke-width="2" points="402.182,-272.566 538.682,-272.566 "/>
<path fill="none" stroke="white" stroke-width="2" d="M538.682,-272.566C544.682,-272.566 550.682,-278.566 550.682,-284.566"/>
<polyline fill="none" stroke="white" stroke-width="2" points="550.682,-284.566 550.682,-296.566 "/>
<path fill="none" stroke="white" stroke-width="2" d="M550.682,-296.566C550.682,-302.566 544.682,-308.566 538.682,-308.566"/>
<text text-anchor="middle" x="470.432" y="-288.066" font-family="Helvetica,sans-Serif" font-size="10.00">FOXK1_FOXP2_FOXB1_FOXP3</text>
</a>
</g>
<!-- ZNF711_TFAP2A_TFAP2D&#45;&gt;FOXK1_FOXP2_FOXB1_FOXP3 -->
<g id="edge8" class="edge"><title>ZNF711_TFAP2A_TFAP2D&#45;&gt;FOXK1_FOXP2_FOXB1_FOXP3</title>
<a xlink:title="FOXK1: 0.546||remove17">
<path fill="none" stroke="#d06cff" stroke-width="3" d="M229.133,-429.88C279.317,-400.907 377.706,-344.102 432.064,-312.718"/>
<polygon fill="#d06cff" stroke="#d06cff" points="433.583,-315.074 439.111,-308.649 430.783,-310.224 433.583,-315.074"/>
</a>
</g>
<!-- SP1 -->
<g id="node10" class="node"><title>SP1</title>
<a xlink:href="SP1.svg" xlink:title="Z&#45;value: 0.981||remove28">
<polygon fill="#8d98ff" stroke="#8d98ff" stroke-width="2" points="55.5,-193.366 25.5,-193.366 13.5,-181.366 13.5,-169.366 25.5,-157.366 55.5,-157.366 67.5,-169.366 67.5,-181.366 55.5,-193.366"/>
<path fill="#8d98ff" stroke="#8d98ff" stroke-width="2" d="M25.5,-193.366C19.5,-193.366 13.5,-187.366 13.5,-181.366"/>
<path fill="#8d98ff" stroke="#8d98ff" stroke-width="2" d="M13.5,-169.366C13.5,-163.366 19.5,-157.366 25.5,-157.366"/>
<path fill="#8d98ff" stroke="#8d98ff" stroke-width="2" d="M55.5,-157.366C61.5,-157.366 67.5,-163.366 67.5,-169.366"/>
<path fill="#8d98ff" stroke="#8d98ff" stroke-width="2" d="M67.5,-181.366C67.5,-187.366 61.5,-193.366 55.5,-193.366"/>
<polyline fill="none" stroke="white" stroke-width="2" points="55.5,-193.366 25.5,-193.366 "/>
<path fill="none" stroke="white" stroke-width="2" d="M25.5,-193.366C19.5,-193.366 13.5,-187.366 13.5,-181.366"/>
<polyline fill="none" stroke="white" stroke-width="2" points="13.5,-181.366 13.5,-169.366 "/>
<path fill="none" stroke="white" stroke-width="2" d="M13.5,-169.366C13.5,-163.366 19.5,-157.366 25.5,-157.366"/>
<polyline fill="none" stroke="white" stroke-width="2" points="25.5,-157.366 55.5,-157.366 "/>
<path fill="none" stroke="white" stroke-width="2" d="M55.5,-157.366C61.5,-157.366 67.5,-163.366 67.5,-169.366"/>
<polyline fill="none" stroke="white" stroke-width="2" points="67.5,-169.366 67.5,-181.366 "/>
<path fill="none" stroke="white" stroke-width="2" d="M67.5,-181.366C67.5,-187.366 61.5,-193.366 55.5,-193.366"/>
<text text-anchor="middle" x="40.5" y="-172.866" font-family="Helvetica,sans-Serif" font-size="10.00">SP1</text>
</a>
</g>
<!-- ZNF711_TFAP2A_TFAP2D&#45;&gt;SP1 -->
<g id="edge10" class="edge"><title>ZNF711_TFAP2A_TFAP2D&#45;&gt;SP1</title>
<a xlink:title="SP1: 0.434||TFAP2A: 0.205||remove28">
<path fill="none" stroke="#d680ff" stroke-width="3" d="M182.272,-422.922C152.244,-370.913 84.2644,-253.168 54.2945,-201.259"/>
<path fill="none" stroke="#e3a8ff" stroke-width="3" d="M184.004,-421.922C153.976,-369.913 85.9964,-252.168 56.0266,-200.259"/>
<polygon fill="#e3a8ff" stroke="#e3a8ff" points="180.872,-424.097 187.297,-429.625 185.721,-421.297 180.872,-424.097"/>
<polygon fill="#d680ff" stroke="#d680ff" points="57.4485,-199.122 51.0236,-193.594 52.5988,-201.922 57.4485,-199.122"/>
</a>
</g>
<!-- RARG -->
<g id="node12" class="node"><title>RARG</title>
<a xlink:href="RARG.svg" xlink:title="Z&#45;value: 1.340||remove27">
<polygon fill="#7683ff" stroke="#7683ff" stroke-width="2" points="113.1,-93.6 83.1,-93.6 71.1,-81.6 71.1,-69.6 83.1,-57.6 113.1,-57.6 125.1,-69.6 125.1,-81.6 113.1,-93.6"/>
<path fill="#7683ff" stroke="#7683ff" stroke-width="2" d="M83.1,-93.6C77.1,-93.6 71.1,-87.6 71.1,-81.6"/>
<path fill="#7683ff" stroke="#7683ff" stroke-width="2" d="M71.1,-69.6C71.1,-63.6 77.1,-57.6 83.1,-57.6"/>
<path fill="#7683ff" stroke="#7683ff" stroke-width="2" d="M113.1,-57.6C119.1,-57.6 125.1,-63.6 125.1,-69.6"/>
<path fill="#7683ff" stroke="#7683ff" stroke-width="2" d="M125.1,-81.6C125.1,-87.6 119.1,-93.6 113.1,-93.6"/>
<polyline fill="none" stroke="white" stroke-width="2" points="113.1,-93.6 83.1,-93.6 "/>
<path fill="none" stroke="white" stroke-width="2" d="M83.1,-93.6C77.1,-93.6 71.1,-87.6 71.1,-81.6"/>
<polyline fill="none" stroke="white" stroke-width="2" points="71.1,-81.6 71.1,-69.6 "/>
<path fill="none" stroke="white" stroke-width="2" d="M71.1,-69.6C71.1,-63.6 77.1,-57.6 83.1,-57.6"/>
<polyline fill="none" stroke="white" stroke-width="2" points="83.1,-57.6 113.1,-57.6 "/>
<path fill="none" stroke="white" stroke-width="2" d="M113.1,-57.6C119.1,-57.6 125.1,-63.6 125.1,-69.6"/>
<polyline fill="none" stroke="white" stroke-width="2" points="125.1,-69.6 125.1,-81.6 "/>
<path fill="none" stroke="white" stroke-width="2" d="M125.1,-81.6C125.1,-87.6 119.1,-93.6 113.1,-93.6"/>
<text text-anchor="middle" x="98.1" y="-73.1" font-family="Helvetica,sans-Serif" font-size="10.00">RARG</text>
</a>
</g>
<!-- ZNF711_TFAP2A_TFAP2D&#45;&gt;RARG -->
<g id="edge12" class="edge"><title>ZNF711_TFAP2A_TFAP2D&#45;&gt;RARG</title>
<a xlink:title="RARG: 0.032||remove10root">
<path fill="none" stroke="#ecc6ff" stroke-width="3" d="M192.987,-429.722C176.709,-368.973 124.222,-173.089 105.128,-101.83"/>
<polygon fill="#ecc6ff" stroke="#ecc6ff" points="107.745,-100.778 102.97,-93.7754 102.336,-102.227 107.745,-100.778"/>
</a>
</g>
<!-- RARB -->
<g id="node14" class="node"><title>RARB</title>
<a xlink:href="RARB.svg" xlink:title="Z&#45;value: 0.398||remove23">
<polygon fill="#b2baff" stroke="#b2baff" stroke-width="2" points="212.866,-36 182.866,-36 170.866,-24 170.866,-12 182.866,-9.59233e-14 212.866,-9.59233e-14 224.866,-12 224.866,-24 212.866,-36"/>
<path fill="#b2baff" stroke="#b2baff" stroke-width="2" d="M182.866,-36C176.866,-36 170.866,-30 170.866,-24"/>
<path fill="#b2baff" stroke="#b2baff" stroke-width="2" d="M170.866,-12C170.866,-6 176.866,-9.59233e-14 182.866,-9.59233e-14"/>
<path fill="#b2baff" stroke="#b2baff" stroke-width="2" d="M212.866,-9.59233e-14C218.866,-9.59233e-14 224.866,-6 224.866,-12"/>
<path fill="#b2baff" stroke="#b2baff" stroke-width="2" d="M224.866,-24C224.866,-30 218.866,-36 212.866,-36"/>
<polyline fill="none" stroke="white" stroke-width="2" points="212.866,-36 182.866,-36 "/>
<path fill="none" stroke="white" stroke-width="2" d="M182.866,-36C176.866,-36 170.866,-30 170.866,-24"/>
<polyline fill="none" stroke="white" stroke-width="2" points="170.866,-24 170.866,-12 "/>
<path fill="none" stroke="white" stroke-width="2" d="M170.866,-12C170.866,-6 176.866,-9.59233e-14 182.866,-9.59233e-14"/>
<polyline fill="none" stroke="white" stroke-width="2" points="182.866,-9.59233e-14 212.866,-9.59233e-14 "/>
<path fill="none" stroke="white" stroke-width="2" d="M212.866,-9.59233e-14C218.866,-9.59233e-14 224.866,-6 224.866,-12"/>
<polyline fill="none" stroke="white" stroke-width="2" points="224.866,-12 224.866,-24 "/>
<path fill="none" stroke="white" stroke-width="2" d="M224.866,-24C224.866,-30 218.866,-36 212.866,-36"/>
<text text-anchor="middle" x="197.866" y="-15.5" font-family="Helvetica,sans-Serif" font-size="10.00">RARB</text>
</a>
</g>
<!-- ZNF711_TFAP2A_TFAP2D&#45;&gt;RARB -->
<g id="edge14" class="edge"><title>ZNF711_TFAP2A_TFAP2D&#45;&gt;RARB</title>
<a xlink:title="RARB: 0.093||remove23">
<path fill="none" stroke="#e9bbff" stroke-width="3" d="M197.866,-429.733C197.866,-362.036 197.866,-124.562 197.866,-44.5476"/>
<polygon fill="#e9bbff" stroke="#e9bbff" points="200.666,-44.444 197.866,-36.4441 195.066,-44.4441 200.666,-44.444"/>
</a>
</g>
<!-- KLF8 -->
<g id="node16" class="node"><title>KLF8</title>
<a xlink:href="KLF8.svg" xlink:title="Z&#45;value: 0.759||remove25">
<polygon fill="#9ba5ff" stroke="#9ba5ff" stroke-width="2" points="427.832,-408.332 397.832,-408.332 385.832,-396.332 385.832,-384.332 397.832,-372.332 427.832,-372.332 439.832,-384.332 439.832,-396.332 427.832,-408.332"/>
<path fill="#9ba5ff" stroke="#9ba5ff" stroke-width="2" d="M397.832,-408.332C391.832,-408.332 385.832,-402.332 385.832,-396.332"/>
<path fill="#9ba5ff" stroke="#9ba5ff" stroke-width="2" d="M385.832,-384.332C385.832,-378.332 391.832,-372.332 397.832,-372.332"/>
<path fill="#9ba5ff" stroke="#9ba5ff" stroke-width="2" d="M427.832,-372.332C433.832,-372.332 439.832,-378.332 439.832,-384.332"/>
<path fill="#9ba5ff" stroke="#9ba5ff" stroke-width="2" d="M439.832,-396.332C439.832,-402.332 433.832,-408.332 427.832,-408.332"/>
<polyline fill="none" stroke="white" stroke-width="2" points="427.832,-408.332 397.832,-408.332 "/>
<path fill="none" stroke="white" stroke-width="2" d="M397.832,-408.332C391.832,-408.332 385.832,-402.332 385.832,-396.332"/>
<polyline fill="none" stroke="white" stroke-width="2" points="385.832,-396.332 385.832,-384.332 "/>
<path fill="none" stroke="white" stroke-width="2" d="M385.832,-384.332C385.832,-378.332 391.832,-372.332 397.832,-372.332"/>
<polyline fill="none" stroke="white" stroke-width="2" points="397.832,-372.332 427.832,-372.332 "/>
<path fill="none" stroke="white" stroke-width="2" d="M427.832,-372.332C433.832,-372.332 439.832,-378.332 439.832,-384.332"/>
<polyline fill="none" stroke="white" stroke-width="2" points="439.832,-384.332 439.832,-396.332 "/>
<path fill="none" stroke="white" stroke-width="2" d="M439.832,-396.332C439.832,-402.332 433.832,-408.332 427.832,-408.332"/>
<text text-anchor="middle" x="412.832" y="-387.832" font-family="Helvetica,sans-Serif" font-size="10.00">KLF8</text>
</a>
</g>
<!-- ZNF711_TFAP2A_TFAP2D&#45;&gt;KLF8 -->
<g id="edge16" class="edge"><title>ZNF711_TFAP2A_TFAP2D&#45;&gt;KLF8</title>
<a xlink:title="KLF8: 0.331||TFAP2A: 0.088||remove25">
<path fill="none" stroke="#dc92ff" stroke-width="3" d="M273.239,-426.701C308.664,-417.209 349.165,-406.357 377.336,-398.808"/>
<path fill="none" stroke="#e9bcff" stroke-width="3" d="M273.756,-428.633C309.182,-419.141 349.683,-408.288 377.854,-400.74"/>
<polygon fill="#e9bcff" stroke="#e9bcff" points="272.296,-425.09 265.293,-429.865 273.745,-430.499 272.296,-425.09"/>
<polygon fill="#dc92ff" stroke="#dc92ff" points="378.558,-402.415 385.561,-397.64 377.109,-397.006 378.558,-402.415"/>
</a>
</g>
<!-- AHR_ARNT2&#45;&gt;DLX4_HOXD8 -->
<g id="edge20" class="edge"><title>AHR_ARNT2&#45;&gt;DLX4_HOXD8</title>
<a xlink:title="HOXD8: 0.030||remove9root">
<path fill="none" stroke="#edc6ff" stroke-width="3" d="M87.5353,-372.034C78.4415,-356.283 65.2271,-333.395 55.1187,-315.886"/>
<polygon fill="#edc6ff" stroke="#edc6ff" points="57.4227,-314.277 50.9978,-308.749 52.5729,-317.077 57.4227,-314.277"/>
</a>
</g>
<!-- AHR_ARNT2&#45;&gt;LHX8 -->
<g id="edge22" class="edge"><title>AHR_ARNT2&#45;&gt;LHX8</title>
<a xlink:title="LHX8: 0.061||remove20root">
<path fill="none" stroke="#c1c7ff" stroke-width="3" d="M116.152,-372.28C144.459,-343.974 199.33,-289.102 231.107,-257.325"/>
<polygon fill="#c1c7ff" stroke="#c1c7ff" points="233.463,-258.929 237.14,-251.292 229.503,-254.969 233.463,-258.929"/>
</a>
</g>
<!-- AHR_ARNT2&#45;&gt;RARG -->
<g id="edge28" class="edge"><title>AHR_ARNT2&#45;&gt;RARG</title>
<a xlink:title="RARG: 0.194||remove20">
<path fill="none" stroke="#e3aaff" stroke-width="3" d="M98.1,-372.051C98.1,-318.923 98.1,-164.387 98.1,-102.09"/>
<polygon fill="#e3aaff" stroke="#e3aaff" points="100.9,-101.932 98.1,-93.9322 95.3001,-101.932 100.9,-101.932"/>
</a>
</g>
<!-- AHR_ARNT2&#45;&gt;KLF8 -->
<g id="edge30" class="edge"><title>AHR_ARNT2&#45;&gt;KLF8</title>
<a xlink:title="KLF8: 0.025||ARNT2: 0.121||remove20">
<path fill="none" stroke="#edc7ff" stroke-width="3" d="M144.614,-389.332C208.053,-389.332 320.33,-389.332 377.399,-389.332"/>
<path fill="none" stroke="#e7b6ff" stroke-width="3" d="M144.614,-391.332C208.053,-391.332 320.33,-391.332 377.399,-391.332"/>
<polygon fill="#e7b6ff" stroke="#e7b6ff" points="144.378,-387.532 136.378,-390.332 144.378,-393.132 144.378,-387.532"/>
<polygon fill="#edc7ff" stroke="#edc7ff" points="377.406,-393.132 385.406,-390.332 377.406,-387.532 377.406,-393.132"/>
</a>
</g>
<!-- HIC2 -->
<g id="node21" class="node"><title>HIC2</title>
<a xlink:href="HIC2.svg" xlink:title="Z&#45;value: 1.161||remove26">
<polygon fill="#818eff" stroke="#818eff" stroke-width="2" points="328.066,-36 298.066,-36 286.066,-24 286.066,-12 298.066,-0 328.066,-0 340.066,-12 340.066,-24 328.066,-36"/>
<path fill="#818eff" stroke="#818eff" stroke-width="2" d="M298.066,-36C292.066,-36 286.066,-30 286.066,-24"/>
<path fill="#818eff" stroke="#818eff" stroke-width="2" d="M286.066,-12C286.066,-6 292.066,-0 298.066,-0"/>
<path fill="#818eff" stroke="#818eff" stroke-width="2" d="M328.066,-0C334.066,-0 340.066,-6 340.066,-12"/>
<path fill="#818eff" stroke="#818eff" stroke-width="2" d="M340.066,-24C340.066,-30 334.066,-36 328.066,-36"/>
<polyline fill="none" stroke="white" stroke-width="2" points="328.066,-36 298.066,-36 "/>
<path fill="none" stroke="white" stroke-width="2" d="M298.066,-36C292.066,-36 286.066,-30 286.066,-24"/>
<polyline fill="none" stroke="white" stroke-width="2" points="286.066,-24 286.066,-12 "/>
<path fill="none" stroke="white" stroke-width="2" d="M286.066,-12C286.066,-6 292.066,-0 298.066,-0"/>
<polyline fill="none" stroke="white" stroke-width="2" points="298.066,-0 328.066,-0 "/>
<path fill="none" stroke="white" stroke-width="2" d="M328.066,-0C334.066,-0 340.066,-6 340.066,-12"/>
<polyline fill="none" stroke="white" stroke-width="2" points="340.066,-12 340.066,-24 "/>
<path fill="none" stroke="white" stroke-width="2" d="M340.066,-24C340.066,-30 334.066,-36 328.066,-36"/>
<text text-anchor="middle" x="313.066" y="-15.5" font-family="Helvetica,sans-Serif" font-size="10.00">HIC2</text>
</a>
</g>
<!-- AHR_ARNT2&#45;&gt;HIC2 -->
<g id="edge24" class="edge"><title>AHR_ARNT2&#45;&gt;HIC2</title>
<a xlink:title="HIC2: 0.019||remove4root">
<path fill="none" stroke="#edc8ff" stroke-width="3" d="M108.614,-372.122C143.83,-311.126 257.702,-113.894 298.42,-43.3674"/>
<polygon fill="#edc8ff" stroke="#edc8ff" points="300.997,-44.5036 302.573,-36.1754 296.148,-41.7036 300.997,-44.5036"/>
</a>
</g>
<!-- NKX2&#45;1 -->
<g id="node23" class="node"><title>NKX2&#45;1</title>
<a xlink:href="NKX2-1.svg" xlink:title="Z&#45;value: 0.341||remove22">
<polygon fill="#b6bdff" stroke="#b6bdff" stroke-width="2" points="328.066,-465.932 298.066,-465.932 286.066,-453.932 286.066,-441.932 298.066,-429.932 328.066,-429.932 340.066,-441.932 340.066,-453.932 328.066,-465.932"/>
<path fill="#b6bdff" stroke="#b6bdff" stroke-width="2" d="M298.066,-465.932C292.066,-465.932 286.066,-459.932 286.066,-453.932"/>
<path fill="#b6bdff" stroke="#b6bdff" stroke-width="2" d="M286.066,-441.932C286.066,-435.932 292.066,-429.932 298.066,-429.932"/>
<path fill="#b6bdff" stroke="#b6bdff" stroke-width="2" d="M328.066,-429.932C334.066,-429.932 340.066,-435.932 340.066,-441.932"/>
<path fill="#b6bdff" stroke="#b6bdff" stroke-width="2" d="M340.066,-453.932C340.066,-459.932 334.066,-465.932 328.066,-465.932"/>
<polyline fill="none" stroke="white" stroke-width="2" points="328.066,-465.932 298.066,-465.932 "/>
<path fill="none" stroke="white" stroke-width="2" d="M298.066,-465.932C292.066,-465.932 286.066,-459.932 286.066,-453.932"/>
<polyline fill="none" stroke="white" stroke-width="2" points="286.066,-453.932 286.066,-441.932 "/>
<path fill="none" stroke="white" stroke-width="2" d="M286.066,-441.932C286.066,-435.932 292.066,-429.932 298.066,-429.932"/>
<polyline fill="none" stroke="white" stroke-width="2" points="298.066,-429.932 328.066,-429.932 "/>
<path fill="none" stroke="white" stroke-width="2" d="M328.066,-429.932C334.066,-429.932 340.066,-435.932 340.066,-441.932"/>
<polyline fill="none" stroke="white" stroke-width="2" points="340.066,-441.932 340.066,-453.932 "/>
<path fill="none" stroke="white" stroke-width="2" d="M340.066,-453.932C340.066,-459.932 334.066,-465.932 328.066,-465.932"/>
<text text-anchor="middle" x="313.066" y="-445.432" font-family="Helvetica,sans-Serif" font-size="10.00">NKX2&#45;1</text>
</a>
</g>
<!-- AHR_ARNT2&#45;&gt;NKX2&#45;1 -->
<g id="edge26" class="edge"><title>AHR_ARNT2&#45;&gt;NKX2&#45;1</title>
<a xlink:title="NKX2&#45;1: 0.001||remove0root">
<path fill="none" stroke="#eecbff" stroke-width="3" d="M136.684,-394.426C173.826,-399.237 231.097,-408.968 277.906,-427.052 278.072,-427.116 278.237,-427.181 278.403,-427.246"/>
<polygon fill="#eecbff" stroke="#eecbff" points="277.426,-429.877 285.871,-430.608 279.725,-424.771 277.426,-429.877"/>
</a>
</g>
<!-- DLX4_HOXD8&#45;&gt;DLX4_HOXD8 -->
<g id="edge58" class="edge"><title>DLX4_HOXD8&#45;&gt;DLX4_HOXD8</title>
<a xlink:title="DLX4: 0.016||remove3root">
<path fill="none" stroke="#edc9ff" stroke-width="3" d="M80.8868,-297.223C90.9662,-296.758 98.5,-294.539 98.5,-290.566 98.5,-287.773 94.7754,-285.847 89.0602,-284.787"/>
<polygon fill="#edc9ff" stroke="#edc9ff" points="89.1402,-281.98 80.8868,-283.909 88.5418,-287.548 89.1402,-281.98"/>
</a>
</g>
<!-- DLX4_HOXD8&#45;&gt;LHX8 -->
<g id="edge60" class="edge"><title>DLX4_HOXD8&#45;&gt;LHX8</title>
<a xlink:title="LHX8: 0.202||remove29root">
<path fill="none" stroke="#a8b1ff" stroke-width="3" d="M80.9335,-279.732C121.129,-268.962 182.153,-252.61 220.369,-242.37"/>
<polygon fill="#a8b1ff" stroke="#a8b1ff" points="221.159,-245.057 228.162,-240.282 219.71,-239.648 221.159,-245.057"/>
</a>
</g>
<!-- LHX8&#45;&gt;FOXK1_FOXP2_FOXB1_FOXP3 -->
<g id="edge76" class="edge"><title>LHX8&#45;&gt;FOXK1_FOXP2_FOXB1_FOXP3</title>
<a xlink:title="FOXP2: 0.055||remove17root">
<path fill="none" stroke="#ffc2c2" stroke-width="3" d="M282.692,-240.261C310.748,-247.779 355.755,-259.838 394.669,-270.265"/>
<polygon fill="#ffc2c2" stroke="#ffc2c2" points="394.42,-273.097 402.872,-272.463 395.869,-267.688 394.42,-273.097"/>
</a>
</g>
<!-- LHX8&#45;&gt;KLF8 -->
<g id="edge80" class="edge"><title>LHX8&#45;&gt;KLF8</title>
<a xlink:title="KLF8: 0.082||remove25root">
<path fill="none" stroke="#ffbdbd" stroke-width="3" d="M273.518,-251.018C301.825,-279.325 356.696,-334.196 388.473,-365.973"/>
<polygon fill="#ffbdbd" stroke="#ffbdbd" points="386.869,-368.329 394.506,-372.006 390.829,-364.369 386.869,-368.329"/>
</a>
</g>
<!-- LHX8&#45;&gt;NKX2&#45;1 -->
<g id="edge78" class="edge"><title>LHX8&#45;&gt;NKX2&#45;1</title>
<a xlink:title="NKX2&#45;1: 0.067||remove22root">
<path fill="none" stroke="#ffc0c0" stroke-width="3" d="M260.377,-251.294C270.6,-289.448 294.199,-377.521 306.033,-421.684"/>
<polygon fill="#ffc0c0" stroke="#ffc0c0" points="303.392,-422.648 308.168,-429.651 308.802,-421.199 303.392,-422.648"/>
</a>
</g>
<!-- FOXK1_FOXP2_FOXB1_FOXP3&#45;&gt;AHR_ARNT2 -->
<g id="edge68" class="edge"><title>FOXK1_FOXP2_FOXB1_FOXP3&#45;&gt;AHR_ARNT2</title>
<a xlink:title="ARNT2: 0.036||remove11root">
<path fill="none" stroke="#ecc5ff" stroke-width="3" d="M403.006,-308.633C328.246,-328.665 209.641,-360.445 144.584,-377.877"/>
<polygon fill="#ecc5ff" stroke="#ecc5ff" points="143.541,-375.258 136.538,-380.033 144.99,-380.667 143.541,-375.258"/>
</a>
</g>
<!-- FOXK1_FOXP2_FOXB1_FOXP3&#45;&gt;DLX4_HOXD8 -->
<g id="edge70" class="edge"><title>FOXK1_FOXP2_FOXB1_FOXP3&#45;&gt;DLX4_HOXD8</title>
<a xlink:title="DLX4: 0.029||remove8root">
<path fill="none" stroke="#edc6ff" stroke-width="3" d="M390.07,-290.566C301.609,-290.566 162.261,-290.566 89.0808,-290.566"/>
<polygon fill="#edc6ff" stroke="#edc6ff" points="88.9213,-287.766 80.9213,-290.566 88.9213,-293.366 88.9213,-287.766"/>
</a>
</g>
<!-- FOXK1_FOXP2_FOXB1_FOXP3&#45;&gt;FOXK1_FOXP2_FOXB1_FOXP3 -->
<g id="edge72" class="edge"><title>FOXK1_FOXP2_FOXB1_FOXP3&#45;&gt;FOXK1_FOXP2_FOXB1_FOXP3</title>
<a xlink:title="FOXP2: 0.236||remove17">
<path fill="none" stroke="#e1a2ff" stroke-width="3" d="M550.792,-296.519C561.398,-295.503 568.432,-293.519 568.432,-290.566 568.432,-288.444 564.798,-286.822 558.816,-285.7"/>
<polygon fill="#e1a2ff" stroke="#e1a2ff" points="559.095,-282.913 550.792,-284.614 558.344,-288.462 559.095,-282.913"/>
</a>
</g>
<!-- FOXK1_FOXP2_FOXB1_FOXP3&#45;&gt;NKX2&#45;1 -->
<g id="edge74" class="edge"><title>FOXK1_FOXP2_FOXB1_FOXP3&#45;&gt;NKX2&#45;1</title>
<a xlink:title="NKX2&#45;1: 0.026||remove7root">
<path fill="none" stroke="#edc7ff" stroke-width="3" d="M448.532,-308.635C430.09,-324.166 403.308,-347.471 381.512,-369.452 364.359,-386.751 346.3,-407.583 333.041,-423.435"/>
<polygon fill="#edc7ff" stroke="#edc7ff" points="330.629,-421.957 327.669,-429.899 334.936,-425.536 330.629,-421.957"/>
</a>
</g>
<!-- SP1&#45;&gt;AHR_ARNT2 -->
<g id="edge32" class="edge"><title>SP1&#45;&gt;AHR_ARNT2</title>
<a xlink:title="ARNT2: 0.013||remove2root">
<path fill="none" stroke="#edc9ff" stroke-width="3" d="M52.2219,-193.671C63.3724,-212.087 79.5826,-241.692 87.48,-269.686 96.3658,-301.184 98.3723,-338.979 98.5799,-363.77"/>
<polygon fill="#edc9ff" stroke="#edc9ff" points="95.78,-363.968 98.5867,-371.965 101.38,-363.963 95.78,-363.968"/>
</a>
</g>
<!-- SP1&#45;&gt;DLX4_HOXD8 -->
<g id="edge34" class="edge"><title>SP1&#45;&gt;DLX4_HOXD8</title>
<a xlink:title="DLX4: 0.061||HOXD8: 0.045||remove19root">
<path fill="none" stroke="#ebc1ff" stroke-width="3" d="M40.5,-193.366C40.5,-212.36 40.5,-242.49 40.5,-264.171"/>
<polygon fill="#ebc1ff" stroke="#ebc1ff" points="37.6999,-264.312 40.5,-272.312 43.2999,-264.312 37.6999,-264.312"/>
</a>
</g>
<!-- SP1&#45;&gt;LHX8 -->
<g id="edge36" class="edge"><title>SP1&#45;&gt;LHX8</title>
<a xlink:title="LHX8: 0.120||remove28root">
<path fill="none" stroke="#b7beff" stroke-width="3" d="M67.7256,-182.661C106.572,-193.07 177.913,-212.186 220.585,-223.62"/>
<polygon fill="#b7beff" stroke="#b7beff" points="220.009,-226.364 228.462,-225.73 221.459,-220.955 220.009,-226.364"/>
</a>
</g>
<!-- SP1&#45;&gt;SP1 -->
<g id="edge42" class="edge"><title>SP1&#45;&gt;SP1</title>
<a xlink:title="SP1: 0.288||remove28">
<path fill="none" stroke="#de99ff" stroke-width="3" d="M67.7408,-182.11C77.5239,-182.255 85.5,-180.007 85.5,-175.366 85.5,-172.103 81.5568,-170.023 75.8147,-169.126"/>
<polygon fill="#de99ff" stroke="#de99ff" points="75.8996,-166.326 67.7408,-168.623 75.551,-171.915 75.8996,-166.326"/>
</a>
</g>
<!-- SP1&#45;&gt;RARG -->
<g id="edge46" class="edge"><title>SP1&#45;&gt;RARG</title>
<a xlink:title="RARG: 0.250||remove27">
<path fill="none" stroke="#e0a0ff" stroke-width="3" d="M51.0647,-157.067C60.1585,-141.317 73.3729,-118.429 83.4813,-100.92"/>
<polygon fill="#e0a0ff" stroke="#e0a0ff" points="86.0271,-102.111 87.6023,-93.7826 81.1773,-99.3108 86.0271,-102.111"/>
</a>
</g>
<!-- SP1&#45;&gt;RARB -->
<g id="edge48" class="edge"><title>SP1&#45;&gt;RARB</title>
<a xlink:title="RARB: 0.075||remove23">
<path fill="none" stroke="#eabeff" stroke-width="3" d="M62.3999,-157.298C80.842,-141.767 107.624,-118.461 129.42,-96.48 146.573,-79.1812 164.632,-58.3496 177.891,-42.4971"/>
<polygon fill="#eabeff" stroke="#eabeff" points="180.304,-43.9752 183.263,-36.0329 175.997,-40.3961 180.304,-43.9752"/>
</a>
</g>
<!-- SP1&#45;&gt;KLF8 -->
<g id="edge50" class="edge"><title>SP1&#45;&gt;KLF8</title>
<a xlink:title="KLF8: 0.078||remove24root">
<path fill="none" stroke="#eabeff" stroke-width="3" d="M67.5771,-190.999C133.991,-229.343 304.887,-328.01 378.386,-370.445"/>
<polygon fill="#eabeff" stroke="#eabeff" points="377.277,-373.038 385.606,-374.613 380.077,-368.188 377.277,-373.038"/>
</a>
</g>
<!-- SP1&#45;&gt;HIC2 -->
<g id="edge38" class="edge"><title>SP1&#45;&gt;HIC2</title>
<a xlink:title="HIC2: 0.022||remove5root">
<path fill="none" stroke="#edc8ff" stroke-width="3" d="M67.6312,-159.702C117.632,-130.834 224.202,-69.3056 278.988,-37.6748"/>
<polygon fill="#edc8ff" stroke="#edc8ff" points="280.516,-40.0258 286.045,-33.6008 277.716,-35.176 280.516,-40.0258"/>
</a>
</g>
<!-- SP1&#45;&gt;NKX2&#45;1 -->
<g id="edge40" class="edge"><title>SP1&#45;&gt;NKX2&#45;1</title>
<a xlink:title="NKX2&#45;1: 0.076||remove22">
<path fill="none" stroke="#eabeff" stroke-width="3" d="M58.8071,-193.673C106.619,-241.485 235.244,-370.11 288.97,-423.836"/>
<polygon fill="#eabeff" stroke="#eabeff" points="287.202,-426.028 294.839,-429.705 291.162,-422.068 287.202,-426.028"/>
</a>
</g>
<!-- SP3 -->
<g id="node33" class="node"><title>SP3</title>
<a xlink:href="SP3.svg" xlink:title="Z&#45;value: 1.634||remove30">
<polygon fill="#6372ff" stroke="#6372ff" stroke-width="2" points="427.832,-93.6 397.832,-93.6 385.832,-81.6 385.832,-69.6 397.832,-57.6 427.832,-57.6 439.832,-69.6 439.832,-81.6 427.832,-93.6"/>
<path fill="#6372ff" stroke="#6372ff" stroke-width="2" d="M397.832,-93.6C391.832,-93.6 385.832,-87.6 385.832,-81.6"/>
<path fill="#6372ff" stroke="#6372ff" stroke-width="2" d="M385.832,-69.6C385.832,-63.6 391.832,-57.6 397.832,-57.6"/>
<path fill="#6372ff" stroke="#6372ff" stroke-width="2" d="M427.832,-57.6C433.832,-57.6 439.832,-63.6 439.832,-69.6"/>
<path fill="#6372ff" stroke="#6372ff" stroke-width="2" d="M439.832,-81.6C439.832,-87.6 433.832,-93.6 427.832,-93.6"/>
<polyline fill="none" stroke="white" stroke-width="2" points="427.832,-93.6 397.832,-93.6 "/>
<path fill="none" stroke="white" stroke-width="2" d="M397.832,-93.6C391.832,-93.6 385.832,-87.6 385.832,-81.6"/>
<polyline fill="none" stroke="white" stroke-width="2" points="385.832,-81.6 385.832,-69.6 "/>
<path fill="none" stroke="white" stroke-width="2" d="M385.832,-69.6C385.832,-63.6 391.832,-57.6 397.832,-57.6"/>
<polyline fill="none" stroke="white" stroke-width="2" points="397.832,-57.6 427.832,-57.6 "/>
<path fill="none" stroke="white" stroke-width="2" d="M427.832,-57.6C433.832,-57.6 439.832,-63.6 439.832,-69.6"/>
<polyline fill="none" stroke="white" stroke-width="2" points="439.832,-69.6 439.832,-81.6 "/>
<path fill="none" stroke="white" stroke-width="2" d="M439.832,-81.6C439.832,-87.6 433.832,-93.6 427.832,-93.6"/>
<text text-anchor="middle" x="412.832" y="-73.1" font-family="Helvetica,sans-Serif" font-size="10.00" fill="white">SP3</text>
</a>
</g>
<!-- SP1&#45;&gt;SP3 -->
<g id="edge44" class="edge"><title>SP1&#45;&gt;SP3</title>
<a xlink:title="SP3: 0.256||SP1: 0.424||remove28">
<path fill="none" stroke="#e09fff" stroke-width="3" d="M75.4164,-164.975C146.514,-145.924 306.576,-103.036 377.548,-84.0191"/>
<path fill="none" stroke="#d681ff" stroke-width="3" d="M75.934,-166.907C147.032,-147.856 307.093,-104.968 378.066,-85.9509"/>
<polygon fill="#d681ff" stroke="#d681ff" points="74.5798,-163.336 67.5771,-168.111 76.0293,-168.745 74.5798,-163.336"/>
<polygon fill="#e09fff" stroke="#e09fff" points="378.603,-87.6706 385.606,-82.8954 377.153,-82.2614 378.603,-87.6706"/>
</a>
</g>
<!-- RARG&#45;&gt;DLX4_HOXD8 -->
<g id="edge52" class="edge"><title>RARG&#45;&gt;DLX4_HOXD8</title>
<a xlink:title="DLX4: 0.264||remove27">
<path fill="none" stroke="#df9dff" stroke-width="3" d="M94.7734,-93.7326C90.2777,-117.466 81.6806,-160.273 71.82,-196.246 65.3942,-219.688 56.5562,-245.892 49.9066,-264.72"/>
<polygon fill="#df9dff" stroke="#df9dff" points="47.2506,-263.832 47.2042,-272.308 52.5261,-265.711 47.2506,-263.832"/>
</a>
</g>
<!-- RARG&#45;&gt;LHX8 -->
<g id="edge54" class="edge"><title>RARG&#45;&gt;LHX8</title>
<a xlink:title="LHX8: 0.102||remove27root">
<path fill="none" stroke="#bac1ff" stroke-width="3" d="M116.152,-93.6519C144.459,-121.959 199.33,-176.83 231.107,-208.607"/>
<polygon fill="#bac1ff" stroke="#bac1ff" points="229.503,-210.963 237.14,-214.64 233.463,-207.003 229.503,-210.963"/>
</a>
</g>
<!-- RARG&#45;&gt;FOXK1_FOXP2_FOXB1_FOXP3 -->
<g id="edge56" class="edge"><title>RARG&#45;&gt;FOXK1_FOXP2_FOXB1_FOXP3</title>
<a xlink:title="FOXK1: 0.283||RARG: 0.023||remove17">
<path fill="none" stroke="#de9aff" stroke-width="3" d="M132.734,-94.4413C202.145,-134.516 359.337,-225.271 432.338,-267.418"/>
<path fill="none" stroke="#edc7ff" stroke-width="3" d="M131.734,-96.1734C201.145,-136.248 358.337,-227.003 431.338,-269.15"/>
<polygon fill="#edc7ff" stroke="#edc7ff" points="133.505,-92.8082 125.177,-91.233 130.705,-97.6579 133.505,-92.8082"/>
<polygon fill="#de9aff" stroke="#de9aff" points="430.726,-270.875 439.054,-272.45 433.526,-266.025 430.726,-270.875"/>
</a>
</g>
<!-- RARB&#45;&gt;DLX4_HOXD8 -->
<g id="edge82" class="edge"><title>RARB&#45;&gt;DLX4_HOXD8</title>
<a xlink:title="DLX4: 0.038||remove13root">
<path fill="none" stroke="#ecc5ff" stroke-width="3" d="M187.297,-36.3071C159.917,-83.7306 86.6328,-210.662 55.1756,-265.147"/>
<polygon fill="#ecc5ff" stroke="#ecc5ff" points="52.5988,-264.011 51.0236,-272.339 57.4485,-266.811 52.5988,-264.011"/>
</a>
</g>
<!-- RARB&#45;&gt;LHX8 -->
<g id="edge84" class="edge"><title>RARB&#45;&gt;LHX8</title>
<a xlink:title="LHX8: 0.074||remove23root">
<path fill="none" stroke="#bfc5ff" stroke-width="3" d="M202.777,-36.3279C213,-74.482 236.599,-162.555 248.433,-206.718"/>
<polygon fill="#bfc5ff" stroke="#bfc5ff" points="245.792,-207.682 250.568,-214.685 251.202,-206.233 245.792,-207.682"/>
</a>
</g>
<!-- KLF8&#45;&gt;DLX4_HOXD8 -->
<g id="edge62" class="edge"><title>KLF8&#45;&gt;DLX4_HOXD8</title>
<a xlink:title="DLX4: 0.041||remove16root">
<path fill="none" stroke="#ecc4ff" stroke-width="3" d="M385.755,-383.077C323.224,-366.322 168.071,-324.749 88.7963,-303.507"/>
<polygon fill="#ecc4ff" stroke="#ecc4ff" points="89.356,-300.758 80.9039,-301.392 87.9066,-306.168 89.356,-300.758"/>
</a>
</g>
<!-- KLF8&#45;&gt;KLF8 -->
<g id="edge66" class="edge"><title>KLF8&#45;&gt;KLF8</title>
<a xlink:title="KLF8: 0.024||remove6root">
<path fill="none" stroke="#edc7ff" stroke-width="3" d="M440.073,-397.076C449.856,-397.221 457.832,-394.973 457.832,-390.332 457.832,-387.069 453.889,-384.989 448.147,-384.092"/>
<polygon fill="#edc7ff" stroke="#edc7ff" points="448.232,-381.292 440.073,-383.589 447.883,-386.881 448.232,-381.292"/>
</a>
</g>
<!-- KLF8&#45;&gt;NKX2&#45;1 -->
<g id="edge64" class="edge"><title>KLF8&#45;&gt;NKX2&#45;1</title>
<a xlink:title="NKX2&#45;1: 0.056||remove18root">
<path fill="none" stroke="#ebc2ff" stroke-width="3" d="M385.571,-406.072C373.803,-412.866 359.905,-420.89 347.441,-428.086"/>
<polygon fill="#ebc2ff" stroke="#ebc2ff" points="345.823,-425.787 340.295,-432.212 348.623,-430.637 345.823,-425.787"/>
</a>
</g>
<!-- HIC2&#45;&gt;LHX8 -->
<g id="edge108" class="edge"><title>HIC2&#45;&gt;LHX8</title>
<a xlink:title="LHX8: 0.086||remove26root">
<path fill="none" stroke="#bdc3ff" stroke-width="3" d="M308.155,-36.3279C297.932,-74.482 274.333,-162.555 262.499,-206.718"/>
<polygon fill="#bdc3ff" stroke="#bdc3ff" points="259.731,-206.233 260.365,-214.685 265.14,-207.682 259.731,-206.233"/>
</a>
</g>
<!-- HIC2&#45;&gt;RARG -->
<g id="edge110" class="edge"><title>HIC2&#45;&gt;RARG</title>
<a xlink:title="RARG: 0.041||remove15root">
<path fill="none" stroke="#ecc4ff" stroke-width="3" d="M285.841,-25.2951C246.994,-35.7039 175.653,-54.8197 132.981,-66.2536"/>
<polygon fill="#ecc4ff" stroke="#ecc4ff" points="132.107,-63.5889 125.105,-68.3642 133.557,-68.9981 132.107,-63.5889"/>
</a>
</g>
<!-- SP3&#45;&gt;ZNF711_TFAP2A_TFAP2D -->
<g id="edge104" class="edge"><title>SP3&#45;&gt;ZNF711_TFAP2A_TFAP2D</title>
<a xlink:title="TFAP2A: 0.666||ZNF711: 0.060||remove30">
<path fill="none" stroke="#c957ff" stroke-width="3" d="M402.318,-93.8104C367.102,-154.807 253.231,-352.038 212.512,-422.565"/>
<polygon fill="#c957ff" stroke="#c957ff" points="209.935,-421.429 208.36,-429.757 214.785,-424.229 209.935,-421.429"/>
</a>
</g>
<!-- SP3&#45;&gt;AHR_ARNT2 -->
<g id="edge86" class="edge"><title>SP3&#45;&gt;AHR_ARNT2</title>
<a xlink:title="ARNT2: 0.817||remove20">
<path fill="none" stroke="#c03dff" stroke-width="3" d="M385.704,-91.2525C347.014,-114.409 275.044,-160.64 224.146,-212.086 176.365,-260.382 133.699,-328.434 112.411,-364.898"/>
<polygon fill="#c03dff" stroke="#c03dff" points="109.78,-363.854 108.199,-372.181 114.628,-366.658 109.78,-363.854"/>
</a>
</g>
<!-- SP3&#45;&gt;DLX4_HOXD8 -->
<g id="edge88" class="edge"><title>SP3&#45;&gt;DLX4_HOXD8</title>
<a xlink:title="DLX4: 0.291||remove29">
<path fill="none" stroke="#de99ff" stroke-width="3" d="M385.755,-91.233C320.504,-128.906 154.397,-224.808 78.8953,-268.399"/>
<polygon fill="#de99ff" stroke="#de99ff" points="77.4062,-266.025 71.878,-272.45 80.2062,-270.875 77.4062,-266.025"/>
</a>
</g>
<!-- SP3&#45;&gt;LHX8 -->
<g id="edge90" class="edge"><title>SP3&#45;&gt;LHX8</title>
<a xlink:title="LHX8: 0.289||remove30root">
<path fill="none" stroke="#99a3ff" stroke-width="3" d="M394.78,-93.6519C366.474,-121.959 311.602,-176.83 279.825,-208.607"/>
<polygon fill="#99a3ff" stroke="#99a3ff" points="277.469,-207.003 273.792,-214.64 281.429,-210.963 277.469,-207.003"/>
</a>
</g>
<!-- SP3&#45;&gt;FOXK1_FOXP2_FOXB1_FOXP3 -->
<g id="edge92" class="edge"><title>SP3&#45;&gt;FOXK1_FOXP2_FOXB1_FOXP3</title>
<a xlink:title="FOXK1: 0.792||remove17">
<path fill="none" stroke="#c241ff" stroke-width="3" d="M416.159,-93.7326C420.655,-117.466 429.252,-160.273 439.112,-196.246 445.538,-219.688 454.376,-245.892 461.026,-264.72"/>
<polygon fill="#c241ff" stroke="#c241ff" points="458.406,-265.711 463.728,-272.308 463.682,-263.832 458.406,-265.711"/>
</a>
</g>
<!-- SP3&#45;&gt;RARG -->
<g id="edge96" class="edge"><title>SP3&#45;&gt;RARG</title>
<a xlink:title="RARG: 0.104||remove27">
<path fill="none" stroke="#e8b9ff" stroke-width="3" d="M385.726,-75.6C328.789,-75.6 196.793,-75.6 133.368,-75.6"/>
<polygon fill="#e8b9ff" stroke="#e8b9ff" points="133.253,-72.8001 125.253,-75.6 133.253,-78.4001 133.253,-72.8001"/>
</a>
</g>
<!-- SP3&#45;&gt;RARB -->
<g id="edge100" class="edge"><title>SP3&#45;&gt;RARB</title>
<a xlink:title="RARB: 0.039||remove14root">
<path fill="none" stroke="#ecc5ff" stroke-width="3" d="M385.607,-68.3049C346.761,-57.8961 275.419,-38.7803 232.748,-27.3464"/>
<polygon fill="#ecc5ff" stroke="#ecc5ff" points="233.323,-24.6019 224.871,-25.2358 231.873,-30.0111 233.323,-24.6019"/>
</a>
</g>
<!-- SP3&#45;&gt;KLF8 -->
<g id="edge102" class="edge"><title>SP3&#45;&gt;KLF8</title>
<a xlink:title="KLF8: 0.265||remove25">
<path fill="none" stroke="#df9dff" stroke-width="3" d="M405.599,-93.789C390.761,-133.553 359.682,-231.095 377.052,-311.446 381.111,-330.222 390.028,-349.9 397.943,-364.907"/>
<polygon fill="#df9dff" stroke="#df9dff" points="395.68,-366.606 401.961,-372.298 400.601,-363.932 395.68,-366.606"/>
</a>
</g>
<!-- SP3&#45;&gt;NKX2&#45;1 -->
<g id="edge94" class="edge"><title>SP3&#45;&gt;NKX2&#45;1</title>
<a xlink:title="NKX2&#45;1: 0.036||remove12root">
<path fill="none" stroke="#ecc5ff" stroke-width="3" d="M407.953,-93.8104C391.675,-154.56 339.188,-350.443 320.094,-421.702"/>
<polygon fill="#ecc5ff" stroke="#ecc5ff" points="317.302,-421.305 317.936,-429.757 322.711,-422.754 317.302,-421.305"/>
</a>
</g>
<!-- HOXB7 -->
<g id="node61" class="node"><title>HOXB7</title>
<a xlink:href="HOXB7.svg" xlink:title="Z&#45;value: 0.421||remove21">
<polygon fill="#b1b8ff" stroke="#b1b8ff" stroke-width="2" points="485.432,-193.366 455.432,-193.366 443.432,-181.366 443.432,-169.366 455.432,-157.366 485.432,-157.366 497.432,-169.366 497.432,-181.366 485.432,-193.366"/>
<path fill="#b1b8ff" stroke="#b1b8ff" stroke-width="2" d="M455.432,-193.366C449.432,-193.366 443.432,-187.366 443.432,-181.366"/>
<path fill="#b1b8ff" stroke="#b1b8ff" stroke-width="2" d="M443.432,-169.366C443.432,-163.366 449.432,-157.366 455.432,-157.366"/>
<path fill="#b1b8ff" stroke="#b1b8ff" stroke-width="2" d="M485.432,-157.366C491.432,-157.366 497.432,-163.366 497.432,-169.366"/>
<path fill="#b1b8ff" stroke="#b1b8ff" stroke-width="2" d="M497.432,-181.366C497.432,-187.366 491.432,-193.366 485.432,-193.366"/>
<polyline fill="none" stroke="white" stroke-width="2" points="485.432,-193.366 455.432,-193.366 "/>
<path fill="none" stroke="white" stroke-width="2" d="M455.432,-193.366C449.432,-193.366 443.432,-187.366 443.432,-181.366"/>
<polyline fill="none" stroke="white" stroke-width="2" points="443.432,-181.366 443.432,-169.366 "/>
<path fill="none" stroke="white" stroke-width="2" d="M443.432,-169.366C443.432,-163.366 449.432,-157.366 455.432,-157.366"/>
<polyline fill="none" stroke="white" stroke-width="2" points="455.432,-157.366 485.432,-157.366 "/>
<path fill="none" stroke="white" stroke-width="2" d="M485.432,-157.366C491.432,-157.366 497.432,-163.366 497.432,-169.366"/>
<polyline fill="none" stroke="white" stroke-width="2" points="497.432,-169.366 497.432,-181.366 "/>
<path fill="none" stroke="white" stroke-width="2" d="M497.432,-181.366C497.432,-187.366 491.432,-193.366 485.432,-193.366"/>
<text text-anchor="middle" x="470.432" y="-172.866" font-family="Helvetica,sans-Serif" font-size="10.00">HOXB7</text>
</a>
</g>
<!-- SP3&#45;&gt;HOXB7 -->
<g id="edge98" class="edge"><title>SP3&#45;&gt;HOXB7</title>
<a xlink:title="HOXB7: 0.010||remove1root">
<path fill="none" stroke="#eecaff" stroke-width="3" d="M423.397,-93.8986C432.491,-109.65 445.705,-132.538 455.814,-150.046"/>
<polygon fill="#eecaff" stroke="#eecaff" points="453.51,-151.655 459.935,-157.183 458.359,-148.855 453.51,-151.655"/>
</a>
</g>
<!-- HOXB7&#45;&gt;LHX8 -->
<g id="edge106" class="edge"><title>HOXB7&#45;&gt;LHX8</title>
<a xlink:title="LHX8: 0.065||remove21root">
<path fill="none" stroke="#c0c6ff" stroke-width="3" d="M443.207,-182.661C404.361,-193.07 333.019,-212.186 290.348,-223.62"/>
<polygon fill="#c0c6ff" stroke="#c0c6ff" points="289.473,-220.955 282.471,-225.73 290.923,-226.364 289.473,-220.955"/>
</a>
</g>
</g>
</svg>
