<?xml version="1.0" encoding="UTF-8" standalone="no"?>
<!DOCTYPE svg PUBLIC "-//W3C//DTD SVG 1.1//EN"
 "http://www.w3.org/Graphics/SVG/1.1/DTD/svg11.dtd">
<!-- Generated by graphviz version 2.28.0 (20110630.0925)
 -->
<!-- Title: _anonymous_0 Pages: 1 -->
<svg width="500pt" height="407pt"
 viewBox="0.00 0.00 499.76 406.76" xmlns="http://www.w3.org/2000/svg" xmlns:xlink="http://www.w3.org/1999/xlink">
<g id="graph1" class="graph" transform="scale(1 1) rotate(0) translate(4 402.755)">
<title>_anonymous_0</title>
<polygon fill="white" stroke="white" points="-4,5 -4,-402.755 496.755,-402.755 496.755,5 -4,5"/>
<!-- ESRRA_ESR2 -->
<g id="node1" class="node"><title>ESRRA_ESR2</title>
<a xlink:href="ESRRA_ESR2.svg" xlink:title="Z&#45;value: 3.814||remove29">
<polygon fill="#3247ff" stroke="#3247ff" stroke-width="2" points="445.405,-350.155 386.905,-350.155 374.905,-338.155 374.905,-326.155 386.905,-314.155 445.405,-314.155 457.405,-326.155 457.405,-338.155 445.405,-350.155"/>
<path fill="#3247ff" stroke="#3247ff" stroke-width="2" d="M386.905,-350.155C380.905,-350.155 374.905,-344.155 374.905,-338.155"/>
<path fill="#3247ff" stroke="#3247ff" stroke-width="2" d="M374.905,-326.155C374.905,-320.155 380.905,-314.155 386.905,-314.155"/>
<path fill="#3247ff" stroke="#3247ff" stroke-width="2" d="M445.405,-314.155C451.405,-314.155 457.405,-320.155 457.405,-326.155"/>
<path fill="#3247ff" stroke="#3247ff" stroke-width="2" d="M457.405,-338.155C457.405,-344.155 451.405,-350.155 445.405,-350.155"/>
<polyline fill="none" stroke="white" stroke-width="2" points="445.405,-350.155 386.905,-350.155 "/>
<path fill="none" stroke="white" stroke-width="2" d="M386.905,-350.155C380.905,-350.155 374.905,-344.155 374.905,-338.155"/>
<polyline fill="none" stroke="white" stroke-width="2" points="374.905,-338.155 374.905,-326.155 "/>
<path fill="none" stroke="white" stroke-width="2" d="M374.905,-326.155C374.905,-320.155 380.905,-314.155 386.905,-314.155"/>
<polyline fill="none" stroke="white" stroke-width="2" points="386.905,-314.155 445.405,-314.155 "/>
<path fill="none" stroke="white" stroke-width="2" d="M445.405,-314.155C451.405,-314.155 457.405,-320.155 457.405,-326.155"/>
<polyline fill="none" stroke="white" stroke-width="2" points="457.405,-326.155 457.405,-338.155 "/>
<path fill="none" stroke="white" stroke-width="2" d="M457.405,-338.155C457.405,-344.155 451.405,-350.155 445.405,-350.155"/>
<text text-anchor="middle" x="416.155" y="-329.655" font-family="Helvetica,sans-Serif" font-size="10.00" fill="white">ESRRA_ESR2</text>
</a>
</g>
<!-- RCOR1_MTA3 -->
<g id="node2" class="node"><title>RCOR1_MTA3</title>
<a xlink:href="RCOR1_MTA3.svg" xlink:title="Z&#45;value: 1.731||remove43">
<polygon fill="#8692ff" stroke="#8692ff" stroke-width="2" points="361.228,-398.755 302.728,-398.755 290.728,-386.755 290.728,-374.755 302.728,-362.755 361.228,-362.755 373.228,-374.755 373.228,-386.755 361.228,-398.755"/>
<path fill="#8692ff" stroke="#8692ff" stroke-width="2" d="M302.728,-398.755C296.728,-398.755 290.728,-392.755 290.728,-386.755"/>
<path fill="#8692ff" stroke="#8692ff" stroke-width="2" d="M290.728,-374.755C290.728,-368.755 296.728,-362.755 302.728,-362.755"/>
<path fill="#8692ff" stroke="#8692ff" stroke-width="2" d="M361.228,-362.755C367.228,-362.755 373.228,-368.755 373.228,-374.755"/>
<path fill="#8692ff" stroke="#8692ff" stroke-width="2" d="M373.228,-386.755C373.228,-392.755 367.228,-398.755 361.228,-398.755"/>
<polyline fill="none" stroke="white" stroke-width="2" points="361.228,-398.755 302.728,-398.755 "/>
<path fill="none" stroke="white" stroke-width="2" d="M302.728,-398.755C296.728,-398.755 290.728,-392.755 290.728,-386.755"/>
<polyline fill="none" stroke="white" stroke-width="2" points="290.728,-386.755 290.728,-374.755 "/>
<path fill="none" stroke="white" stroke-width="2" d="M290.728,-374.755C290.728,-368.755 296.728,-362.755 302.728,-362.755"/>
<polyline fill="none" stroke="white" stroke-width="2" points="302.728,-362.755 361.228,-362.755 "/>
<path fill="none" stroke="white" stroke-width="2" d="M361.228,-362.755C367.228,-362.755 373.228,-368.755 373.228,-374.755"/>
<polyline fill="none" stroke="white" stroke-width="2" points="373.228,-374.755 373.228,-386.755 "/>
<path fill="none" stroke="white" stroke-width="2" d="M373.228,-386.755C373.228,-392.755 367.228,-398.755 361.228,-398.755"/>
<text text-anchor="middle" x="331.978" y="-378.255" font-family="Helvetica,sans-Serif" font-size="10.00">RCOR1_MTA3</text>
</a>
</g>
<!-- ESRRA_ESR2&#45;&gt;RCOR1_MTA3 -->
<g id="edge2" class="edge"><title>ESRRA_ESR2&#45;&gt;RCOR1_MTA3</title>
<a xlink:title="MTA3: 0.083||ESRRA: 0.308||ESR2: 0.004||remove29">
<path fill="none" stroke="#ecc4ff" stroke-width="3" d="M378.301,-355.165C375.882,-356.562 373.447,-357.968 371.028,-359.365"/>
<path fill="none" stroke="#e6b1ff" stroke-width="3" d="M377.301,-353.433C374.882,-354.83 372.447,-356.236 370.028,-357.632"/>
<polygon fill="#e6b1ff" stroke="#e6b1ff" points="379.282,-356.677 384.811,-350.252 376.482,-351.827 379.282,-356.677"/>
<polygon fill="#ecc4ff" stroke="#ecc4ff" points="368.877,-356.218 363.349,-362.643 371.677,-361.068 368.877,-356.218"/>
</a>
</g>
<!-- SIN3A_CHD1 -->
<g id="node4" class="node"><title>SIN3A_CHD1</title>
<a xlink:href="SIN3A_CHD1.svg" xlink:title="Z&#45;value: 1.751||remove38">
<polygon fill="#8591ff" stroke="#8591ff" stroke-width="2" points="262.028,-398.755 207.528,-398.755 195.528,-386.755 195.528,-374.755 207.528,-362.755 262.028,-362.755 274.028,-374.755 274.028,-386.755 262.028,-398.755"/>
<path fill="#8591ff" stroke="#8591ff" stroke-width="2" d="M207.528,-398.755C201.528,-398.755 195.528,-392.755 195.528,-386.755"/>
<path fill="#8591ff" stroke="#8591ff" stroke-width="2" d="M195.528,-374.755C195.528,-368.755 201.528,-362.755 207.528,-362.755"/>
<path fill="#8591ff" stroke="#8591ff" stroke-width="2" d="M262.028,-362.755C268.028,-362.755 274.028,-368.755 274.028,-374.755"/>
<path fill="#8591ff" stroke="#8591ff" stroke-width="2" d="M274.028,-386.755C274.028,-392.755 268.028,-398.755 262.028,-398.755"/>
<polyline fill="none" stroke="white" stroke-width="2" points="262.028,-398.755 207.528,-398.755 "/>
<path fill="none" stroke="white" stroke-width="2" d="M207.528,-398.755C201.528,-398.755 195.528,-392.755 195.528,-386.755"/>
<polyline fill="none" stroke="white" stroke-width="2" points="195.528,-386.755 195.528,-374.755 "/>
<path fill="none" stroke="white" stroke-width="2" d="M195.528,-374.755C195.528,-368.755 201.528,-362.755 207.528,-362.755"/>
<polyline fill="none" stroke="white" stroke-width="2" points="207.528,-362.755 262.028,-362.755 "/>
<path fill="none" stroke="white" stroke-width="2" d="M262.028,-362.755C268.028,-362.755 274.028,-368.755 274.028,-374.755"/>
<polyline fill="none" stroke="white" stroke-width="2" points="274.028,-374.755 274.028,-386.755 "/>
<path fill="none" stroke="white" stroke-width="2" d="M274.028,-386.755C274.028,-392.755 268.028,-398.755 262.028,-398.755"/>
<text text-anchor="middle" x="234.778" y="-378.255" font-family="Helvetica,sans-Serif" font-size="10.00">SIN3A_CHD1</text>
</a>
</g>
<!-- ESRRA_ESR2&#45;&gt;SIN3A_CHD1 -->
<g id="edge4" class="edge"><title>ESRRA_ESR2&#45;&gt;SIN3A_CHD1</title>
<a xlink:title="SIN3A: 0.074||ESRRA: 0.089||remove17root">
<path fill="none" stroke="#ecc5ff" stroke-width="3" d="M367.024,-341.094C341.908,-345.741 311.021,-352.378 284.137,-360.829 283.563,-361.01 282.981,-361.196 282.402,-361.385"/>
<path fill="none" stroke="#ecc4ff" stroke-width="3" d="M366.66,-339.128C341.487,-343.785 310.601,-350.422 283.538,-358.921 282.953,-359.105 282.371,-359.292 281.782,-359.484"/>
<polygon fill="#ecc4ff" stroke="#ecc4ff" points="367.419,-342.852 374.792,-338.671 366.421,-337.342 367.419,-342.852"/>
<polygon fill="#ecc5ff" stroke="#ecc5ff" points="281.057,-357.83 274.427,-363.111 282.903,-363.117 281.057,-357.83"/>
</a>
</g>
<!-- IKZF1 -->
<g id="node6" class="node"><title>IKZF1</title>
<a xlink:href="IKZF1.svg" xlink:title="Z&#45;value: 1.300||remove36">
<polygon fill="#97a2ff" stroke="#97a2ff" stroke-width="2" points="165.6,-350.155 135.6,-350.155 123.6,-338.155 123.6,-326.155 135.6,-314.155 165.6,-314.155 177.6,-326.155 177.6,-338.155 165.6,-350.155"/>
<path fill="#97a2ff" stroke="#97a2ff" stroke-width="2" d="M135.6,-350.155C129.6,-350.155 123.6,-344.155 123.6,-338.155"/>
<path fill="#97a2ff" stroke="#97a2ff" stroke-width="2" d="M123.6,-326.155C123.6,-320.155 129.6,-314.155 135.6,-314.155"/>
<path fill="#97a2ff" stroke="#97a2ff" stroke-width="2" d="M165.6,-314.155C171.6,-314.155 177.6,-320.155 177.6,-326.155"/>
<path fill="#97a2ff" stroke="#97a2ff" stroke-width="2" d="M177.6,-338.155C177.6,-344.155 171.6,-350.155 165.6,-350.155"/>
<polyline fill="none" stroke="white" stroke-width="2" points="165.6,-350.155 135.6,-350.155 "/>
<path fill="none" stroke="white" stroke-width="2" d="M135.6,-350.155C129.6,-350.155 123.6,-344.155 123.6,-338.155"/>
<polyline fill="none" stroke="white" stroke-width="2" points="123.6,-338.155 123.6,-326.155 "/>
<path fill="none" stroke="white" stroke-width="2" d="M123.6,-326.155C123.6,-320.155 129.6,-314.155 135.6,-314.155"/>
<polyline fill="none" stroke="white" stroke-width="2" points="135.6,-314.155 165.6,-314.155 "/>
<path fill="none" stroke="white" stroke-width="2" d="M165.6,-314.155C171.6,-314.155 177.6,-320.155 177.6,-326.155"/>
<polyline fill="none" stroke="white" stroke-width="2" points="177.6,-326.155 177.6,-338.155 "/>
<path fill="none" stroke="white" stroke-width="2" d="M177.6,-338.155C177.6,-344.155 171.6,-350.155 165.6,-350.155"/>
<text text-anchor="middle" x="150.6" y="-329.655" font-family="Helvetica,sans-Serif" font-size="10.00">IKZF1</text>
</a>
</g>
<!-- ESRRA_ESR2&#45;&gt;IKZF1 -->
<g id="edge6" class="edge"><title>ESRRA_ESR2&#45;&gt;IKZF1</title>
<a xlink:title="IKZF1: 0.004||ESRRA: 0.009||remove2root">
<path fill="none" stroke="#eecbff" stroke-width="3" d="M366.327,-333.155C313.733,-333.155 232.172,-333.155 185.868,-333.155"/>
<path fill="none" stroke="#eecbff" stroke-width="3" d="M366.327,-331.155C313.733,-331.155 232.172,-331.155 185.868,-331.155"/>
<polygon fill="#eecbff" stroke="#eecbff" points="366.662,-334.955 374.662,-332.155 366.662,-329.355 366.662,-334.955"/>
<polygon fill="#eecbff" stroke="#eecbff" points="185.648,-329.355 177.648,-332.155 185.648,-334.955 185.648,-329.355"/>
</a>
</g>
<!-- YBX1_FOS_NFYC_NFYA_NFYB_CEBPZ -->
<g id="node8" class="node"><title>YBX1_FOS_NFYC_NFYA_NFYB_CEBPZ</title>
<a xlink:href="YBX1_FOS_NFYC_NFYA_NFYB_CEBPZ.svg" xlink:title="Z&#45;value: 1.883||remove40">
<polygon fill="#808dff" stroke="#808dff" stroke-width="2" points="191.5,-265.978 12.5,-265.978 0.5,-253.978 0.5,-241.978 12.5,-229.978 191.5,-229.978 203.5,-241.978 203.5,-253.978 191.5,-265.978"/>
<path fill="#808dff" stroke="#808dff" stroke-width="2" d="M12.5,-265.978C6.5,-265.978 0.5,-259.978 0.5,-253.978"/>
<path fill="#808dff" stroke="#808dff" stroke-width="2" d="M0.5,-241.978C0.5,-235.978 6.5,-229.978 12.5,-229.978"/>
<path fill="#808dff" stroke="#808dff" stroke-width="2" d="M191.5,-229.978C197.5,-229.978 203.5,-235.978 203.5,-241.978"/>
<path fill="#808dff" stroke="#808dff" stroke-width="2" d="M203.5,-253.978C203.5,-259.978 197.5,-265.978 191.5,-265.978"/>
<polyline fill="none" stroke="white" stroke-width="2" points="191.5,-265.978 12.5,-265.978 "/>
<path fill="none" stroke="white" stroke-width="2" d="M12.5,-265.978C6.5,-265.978 0.5,-259.978 0.5,-253.978"/>
<polyline fill="none" stroke="white" stroke-width="2" points="0.5,-253.978 0.5,-241.978 "/>
<path fill="none" stroke="white" stroke-width="2" d="M0.5,-241.978C0.5,-235.978 6.5,-229.978 12.5,-229.978"/>
<polyline fill="none" stroke="white" stroke-width="2" points="12.5,-229.978 191.5,-229.978 "/>
<path fill="none" stroke="white" stroke-width="2" d="M191.5,-229.978C197.5,-229.978 203.5,-235.978 203.5,-241.978"/>
<polyline fill="none" stroke="white" stroke-width="2" points="203.5,-241.978 203.5,-253.978 "/>
<path fill="none" stroke="white" stroke-width="2" d="M203.5,-253.978C203.5,-259.978 197.5,-265.978 191.5,-265.978"/>
<text text-anchor="middle" x="102" y="-245.478" font-family="Helvetica,sans-Serif" font-size="10.00">YBX1_FOS_NFYC_NFYA_NFYB_CEBPZ</text>
</a>
</g>
<!-- ESRRA_ESR2&#45;&gt;YBX1_FOS_NFYC_NFYA_NFYB_CEBPZ -->
<g id="edge8" class="edge"><title>ESRRA_ESR2&#45;&gt;YBX1_FOS_NFYC_NFYA_NFYB_CEBPZ</title>
<a xlink:title="NFYC: 0.144||remove26root">
<path fill="none" stroke="#eabfff" stroke-width="3" d="M374.762,-321.064C324.591,-307.621 239.087,-284.71 177.165,-268.118"/>
<polygon fill="#eabfff" stroke="#eabfff" points="177.806,-265.391 169.354,-266.025 176.356,-270.8 177.806,-265.391"/>
</a>
</g>
<!-- LMX1B_MNX1_RAX2 -->
<g id="node10" class="node"><title>LMX1B_MNX1_RAX2</title>
<a xlink:href="LMX1B_MNX1_RAX2.svg" xlink:title="Z&#45;value: 0.411||remove44">
<polygon fill="#ffbbbb" stroke="#ffbbbb" stroke-width="2" points="327.628,-217.378 239.128,-217.378 227.128,-205.378 227.128,-193.378 239.128,-181.378 327.628,-181.378 339.628,-193.378 339.628,-205.378 327.628,-217.378"/>
<path fill="#ffbbbb" stroke="#ffbbbb" stroke-width="2" d="M239.128,-217.378C233.128,-217.378 227.128,-211.378 227.128,-205.378"/>
<path fill="#ffbbbb" stroke="#ffbbbb" stroke-width="2" d="M227.128,-193.378C227.128,-187.378 233.128,-181.378 239.128,-181.378"/>
<path fill="#ffbbbb" stroke="#ffbbbb" stroke-width="2" d="M327.628,-181.378C333.628,-181.378 339.628,-187.378 339.628,-193.378"/>
<path fill="#ffbbbb" stroke="#ffbbbb" stroke-width="2" d="M339.628,-205.378C339.628,-211.378 333.628,-217.378 327.628,-217.378"/>
<polyline fill="none" stroke="white" stroke-width="2" points="327.628,-217.378 239.128,-217.378 "/>
<path fill="none" stroke="white" stroke-width="2" d="M239.128,-217.378C233.128,-217.378 227.128,-211.378 227.128,-205.378"/>
<polyline fill="none" stroke="white" stroke-width="2" points="227.128,-205.378 227.128,-193.378 "/>
<path fill="none" stroke="white" stroke-width="2" d="M227.128,-193.378C227.128,-187.378 233.128,-181.378 239.128,-181.378"/>
<polyline fill="none" stroke="white" stroke-width="2" points="239.128,-181.378 327.628,-181.378 "/>
<path fill="none" stroke="white" stroke-width="2" d="M327.628,-181.378C333.628,-181.378 339.628,-187.378 339.628,-193.378"/>
<polyline fill="none" stroke="white" stroke-width="2" points="339.628,-193.378 339.628,-205.378 "/>
<path fill="none" stroke="white" stroke-width="2" d="M339.628,-205.378C339.628,-211.378 333.628,-217.378 327.628,-217.378"/>
<text text-anchor="middle" x="283.378" y="-196.878" font-family="Helvetica,sans-Serif" font-size="10.00">LMX1B_MNX1_RAX2</text>
</a>
</g>
<!-- ESRRA_ESR2&#45;&gt;LMX1B_MNX1_RAX2 -->
<g id="edge10" class="edge"><title>ESRRA_ESR2&#45;&gt;LMX1B_MNX1_RAX2</title>
<a xlink:title="LMX1B: 0.185||remove29root">
<path fill="none" stroke="#bcc2ff" stroke-width="3" d="M397.972,-313.972C374.564,-290.564 333.808,-249.808 307.738,-223.738"/>
<polygon fill="#bcc2ff" stroke="#bcc2ff" points="309.405,-221.445 301.768,-217.768 305.445,-225.405 309.405,-221.445"/>
</a>
</g>
<!-- RCOR1_MTA3&#45;&gt;RCOR1_MTA3 -->
<g id="edge38" class="edge"><title>RCOR1_MTA3&#45;&gt;RCOR1_MTA3</title>
<a xlink:title="RCOR1: 1.276||remove43">
<path fill="none" stroke="#cb5eff" stroke-width="3" d="M373.332,-387.4C383.449,-386.908 390.978,-384.693 390.978,-380.755 390.978,-377.987 387.256,-376.07 381.529,-375.005"/>
<polygon fill="#cb5eff" stroke="#cb5eff" points="381.589,-372.195 373.332,-374.111 380.982,-377.762 381.589,-372.195"/>
</a>
</g>
<!-- RCOR1_MTA3&#45;&gt;IKZF1 -->
<g id="edge40" class="edge"><title>RCOR1_MTA3&#45;&gt;IKZF1</title>
<a xlink:title="IKZF1: 0.518||RCOR1: 0.141||MTA3: 0.016||remove36">
<path fill="none" stroke="#e09fff" stroke-width="3" d="M282.791,-361.614C281.959,-361.346 281.126,-361.084 280.304,-360.831 248.948,-351.194 212.209,-343.696 185.848,-338.953"/>
<path fill="none" stroke="#eabfff" stroke-width="3" d="M283.403,-359.71C282.56,-359.438 281.726,-359.176 280.891,-358.919 249.348,-349.234 212.609,-341.737 186.203,-336.985"/>
<polygon fill="#eabfff" stroke="#eabfff" points="282.226,-363.323 290.701,-363.253 284.032,-358.022 282.226,-363.323"/>
<polygon fill="#e09fff" stroke="#e09fff" points="186.208,-335.158 177.843,-336.525 185.235,-340.673 186.208,-335.158"/>
</a>
</g>
<!-- RCOR1_MTA3&#45;&gt;LMX1B_MNX1_RAX2 -->
<g id="edge46" class="edge"><title>RCOR1_MTA3&#45;&gt;LMX1B_MNX1_RAX2</title>
<a xlink:title="RAX2: 0.554||MNX1: 0.372||remove43root">
<path fill="none" stroke="#9ca6ff" stroke-width="3" d="M327.14,-362.701C318.502,-330.462 300.394,-262.883 290.391,-225.551"/>
<polygon fill="#9ca6ff" stroke="#9ca6ff" points="293.043,-224.631 288.268,-217.628 287.634,-226.08 293.043,-224.631"/>
</a>
</g>
<!-- PBX2 -->
<g id="node19" class="node"><title>PBX2</title>
<a xlink:href="PBX2.svg" xlink:title="Z&#45;value: 0.216||remove42">
<polygon fill="#c3c9ff" stroke="#c3c9ff" stroke-width="2" points="479.755,-265.978 449.755,-265.978 437.755,-253.978 437.755,-241.978 449.755,-229.978 479.755,-229.978 491.755,-241.978 491.755,-253.978 479.755,-265.978"/>
<path fill="#c3c9ff" stroke="#c3c9ff" stroke-width="2" d="M449.755,-265.978C443.755,-265.978 437.755,-259.978 437.755,-253.978"/>
<path fill="#c3c9ff" stroke="#c3c9ff" stroke-width="2" d="M437.755,-241.978C437.755,-235.978 443.755,-229.978 449.755,-229.978"/>
<path fill="#c3c9ff" stroke="#c3c9ff" stroke-width="2" d="M479.755,-229.978C485.755,-229.978 491.755,-235.978 491.755,-241.978"/>
<path fill="#c3c9ff" stroke="#c3c9ff" stroke-width="2" d="M491.755,-253.978C491.755,-259.978 485.755,-265.978 479.755,-265.978"/>
<polyline fill="none" stroke="white" stroke-width="2" points="479.755,-265.978 449.755,-265.978 "/>
<path fill="none" stroke="white" stroke-width="2" d="M449.755,-265.978C443.755,-265.978 437.755,-259.978 437.755,-253.978"/>
<polyline fill="none" stroke="white" stroke-width="2" points="437.755,-253.978 437.755,-241.978 "/>
<path fill="none" stroke="white" stroke-width="2" d="M437.755,-241.978C437.755,-235.978 443.755,-229.978 449.755,-229.978"/>
<polyline fill="none" stroke="white" stroke-width="2" points="449.755,-229.978 479.755,-229.978 "/>
<path fill="none" stroke="white" stroke-width="2" d="M479.755,-229.978C485.755,-229.978 491.755,-235.978 491.755,-241.978"/>
<polyline fill="none" stroke="white" stroke-width="2" points="491.755,-241.978 491.755,-253.978 "/>
<path fill="none" stroke="white" stroke-width="2" d="M491.755,-253.978C491.755,-259.978 485.755,-265.978 479.755,-265.978"/>
<text text-anchor="middle" x="464.755" y="-245.478" font-family="Helvetica,sans-Serif" font-size="10.00">PBX2</text>
</a>
</g>
<!-- RCOR1_MTA3&#45;&gt;PBX2 -->
<g id="edge36" class="edge"><title>RCOR1_MTA3&#45;&gt;PBX2</title>
<a xlink:title="PBX2: 0.090||remove18root">
<path fill="none" stroke="#ecc4ff" stroke-width="3" d="M338.367,-362.661C344.324,-347.652 354.348,-326.397 368.015,-311.275 385.515,-291.914 410.196,-275.89 430.248,-264.809"/>
<polygon fill="#ecc4ff" stroke="#ecc4ff" points="431.69,-267.213 437.405,-260.953 429.034,-262.283 431.69,-267.213"/>
</a>
</g>
<!-- PATZ1_KLF4 -->
<g id="node23" class="node"><title>PATZ1_KLF4</title>
<a xlink:href="PATZ1_KLF4.svg" xlink:title="Z&#45;value: 1.751||remove39">
<polygon fill="#8591ff" stroke="#8591ff" stroke-width="2" points="176.6,-84.6 124.6,-84.6 112.6,-72.6 112.6,-60.6 124.6,-48.6 176.6,-48.6 188.6,-60.6 188.6,-72.6 176.6,-84.6"/>
<path fill="#8591ff" stroke="#8591ff" stroke-width="2" d="M124.6,-84.6C118.6,-84.6 112.6,-78.6 112.6,-72.6"/>
<path fill="#8591ff" stroke="#8591ff" stroke-width="2" d="M112.6,-60.6C112.6,-54.6 118.6,-48.6 124.6,-48.6"/>
<path fill="#8591ff" stroke="#8591ff" stroke-width="2" d="M176.6,-48.6C182.6,-48.6 188.6,-54.6 188.6,-60.6"/>
<path fill="#8591ff" stroke="#8591ff" stroke-width="2" d="M188.6,-72.6C188.6,-78.6 182.6,-84.6 176.6,-84.6"/>
<polyline fill="none" stroke="white" stroke-width="2" points="176.6,-84.6 124.6,-84.6 "/>
<path fill="none" stroke="white" stroke-width="2" d="M124.6,-84.6C118.6,-84.6 112.6,-78.6 112.6,-72.6"/>
<polyline fill="none" stroke="white" stroke-width="2" points="112.6,-72.6 112.6,-60.6 "/>
<path fill="none" stroke="white" stroke-width="2" d="M112.6,-60.6C112.6,-54.6 118.6,-48.6 124.6,-48.6"/>
<polyline fill="none" stroke="white" stroke-width="2" points="124.6,-48.6 176.6,-48.6 "/>
<path fill="none" stroke="white" stroke-width="2" d="M176.6,-48.6C182.6,-48.6 188.6,-54.6 188.6,-60.6"/>
<polyline fill="none" stroke="white" stroke-width="2" points="188.6,-60.6 188.6,-72.6 "/>
<path fill="none" stroke="white" stroke-width="2" d="M188.6,-72.6C188.6,-78.6 182.6,-84.6 176.6,-84.6"/>
<text text-anchor="middle" x="150.6" y="-64.1" font-family="Helvetica,sans-Serif" font-size="10.00">PATZ1_KLF4</text>
</a>
</g>
<!-- RCOR1_MTA3&#45;&gt;PATZ1_KLF4 -->
<g id="edge42" class="edge"><title>RCOR1_MTA3&#45;&gt;PATZ1_KLF4</title>
<a xlink:title="KLF4: 0.403||PATZ1: 0.041||MTA3: 1.111||remove39">
<path fill="none" stroke="#e3a9ff" stroke-width="3" d="M310.96,-356.402C286.684,-325.703 245.708,-271.477 216.968,-220.75 192.54,-177.603 170.914,-124.043 159.108,-92.8394"/>
<path fill="none" stroke="#d06cff" stroke-width="3" d="M312.528,-355.162C288.279,-324.497 247.304,-270.272 218.708,-219.765 194.395,-176.855 172.768,-123.294 160.978,-92.1317"/>
<polygon fill="#d06cff" stroke="#d06cff" points="309.779,-357.809 316.95,-362.328 314.162,-354.323 309.779,-357.809"/>
<polygon fill="#e3a9ff" stroke="#e3a9ff" points="162.549,-91.1944 157.121,-84.6853 157.305,-93.1591 162.549,-91.1944"/>
</a>
</g>
<!-- WRNIP1 -->
<g id="node25" class="node"><title>WRNIP1</title>
<a xlink:href="WRNIP1.svg" xlink:title="Z&#45;value: 1.103||remove41">
<polygon fill="#9fa9ff" stroke="#9fa9ff" stroke-width="2" points="250.278,-36 219.278,-36 207.278,-24 207.278,-12 219.278,-3.19744e-14 250.278,-3.19744e-14 262.278,-12 262.278,-24 250.278,-36"/>
<path fill="#9fa9ff" stroke="#9fa9ff" stroke-width="2" d="M219.278,-36C213.278,-36 207.278,-30 207.278,-24"/>
<path fill="#9fa9ff" stroke="#9fa9ff" stroke-width="2" d="M207.278,-12C207.278,-6 213.278,-3.19744e-14 219.278,-3.19744e-14"/>
<path fill="#9fa9ff" stroke="#9fa9ff" stroke-width="2" d="M250.278,-3.19744e-14C256.278,-3.19744e-14 262.278,-6 262.278,-12"/>
<path fill="#9fa9ff" stroke="#9fa9ff" stroke-width="2" d="M262.278,-24C262.278,-30 256.278,-36 250.278,-36"/>
<polyline fill="none" stroke="white" stroke-width="2" points="250.278,-36 219.278,-36 "/>
<path fill="none" stroke="white" stroke-width="2" d="M219.278,-36C213.278,-36 207.278,-30 207.278,-24"/>
<polyline fill="none" stroke="white" stroke-width="2" points="207.278,-24 207.278,-12 "/>
<path fill="none" stroke="white" stroke-width="2" d="M207.278,-12C207.278,-6 213.278,-3.19744e-14 219.278,-3.19744e-14"/>
<polyline fill="none" stroke="white" stroke-width="2" points="219.278,-3.19744e-14 250.278,-3.19744e-14 "/>
<path fill="none" stroke="white" stroke-width="2" d="M250.278,-3.19744e-14C256.278,-3.19744e-14 262.278,-6 262.278,-12"/>
<polyline fill="none" stroke="white" stroke-width="2" points="262.278,-12 262.278,-24 "/>
<path fill="none" stroke="white" stroke-width="2" d="M262.278,-24C262.278,-30 256.278,-36 250.278,-36"/>
<text text-anchor="middle" x="234.778" y="-15.5" font-family="Helvetica,sans-Serif" font-size="10.00">WRNIP1</text>
</a>
</g>
<!-- RCOR1_MTA3&#45;&gt;WRNIP1 -->
<g id="edge44" class="edge"><title>RCOR1_MTA3&#45;&gt;WRNIP1</title>
<a xlink:title="WRNIP1: 0.243||MTA3: 0.177||remove35root">
<path fill="none" stroke="#e7b7ff" stroke-width="3" d="M310.791,-356.724C280.586,-319.608 226.548,-250.617 216.885,-220.562 197.397,-159.091 214.068,-82.8469 225.421,-43.6064"/>
<path fill="none" stroke="#e9bcff" stroke-width="3" d="M312.343,-355.462C282.161,-318.375 228.123,-249.384 218.79,-219.953 199.351,-159.518 216.022,-83.2741 227.342,-44.1624"/>
<polygon fill="#e9bcff" stroke="#e9bcff" points="309.681,-358.21 316.911,-362.633 314.017,-354.666 309.681,-358.21"/>
<polygon fill="#e7b7ff" stroke="#e7b7ff" points="229.098,-44.5729 228.705,-36.1061 223.732,-42.9702 229.098,-44.5729"/>
</a>
</g>
<!-- SP4_PML -->
<g id="node34" class="node"><title>SP4_PML</title>
<a xlink:href="SP4_PML.svg" xlink:title="Z&#45;value: 1.603||remove31">
<polygon fill="#8b97ff" stroke="#8b97ff" stroke-width="2" points="350.228,-36 313.728,-36 301.728,-24 301.728,-12 313.728,3.19744e-14 350.228,3.19744e-14 362.228,-12 362.228,-24 350.228,-36"/>
<path fill="#8b97ff" stroke="#8b97ff" stroke-width="2" d="M313.728,-36C307.728,-36 301.728,-30 301.728,-24"/>
<path fill="#8b97ff" stroke="#8b97ff" stroke-width="2" d="M301.728,-12C301.728,-6 307.728,3.19744e-14 313.728,3.19744e-14"/>
<path fill="#8b97ff" stroke="#8b97ff" stroke-width="2" d="M350.228,3.19744e-14C356.228,3.19744e-14 362.228,-6 362.228,-12"/>
<path fill="#8b97ff" stroke="#8b97ff" stroke-width="2" d="M362.228,-24C362.228,-30 356.228,-36 350.228,-36"/>
<polyline fill="none" stroke="white" stroke-width="2" points="350.228,-36 313.728,-36 "/>
<path fill="none" stroke="white" stroke-width="2" d="M313.728,-36C307.728,-36 301.728,-30 301.728,-24"/>
<polyline fill="none" stroke="white" stroke-width="2" points="301.728,-24 301.728,-12 "/>
<path fill="none" stroke="white" stroke-width="2" d="M301.728,-12C301.728,-6 307.728,3.19744e-14 313.728,3.19744e-14"/>
<polyline fill="none" stroke="white" stroke-width="2" points="313.728,3.19744e-14 350.228,3.19744e-14 "/>
<path fill="none" stroke="white" stroke-width="2" d="M350.228,3.19744e-14C356.228,3.19744e-14 362.228,-6 362.228,-12"/>
<polyline fill="none" stroke="white" stroke-width="2" points="362.228,-12 362.228,-24 "/>
<path fill="none" stroke="white" stroke-width="2" d="M362.228,-24C362.228,-30 356.228,-36 350.228,-36"/>
<text text-anchor="middle" x="331.978" y="-15.5" font-family="Helvetica,sans-Serif" font-size="10.00">SP4_PML</text>
</a>
</g>
<!-- RCOR1_MTA3&#45;&gt;SP4_PML -->
<g id="edge48" class="edge"><title>RCOR1_MTA3&#45;&gt;SP4_PML</title>
<a xlink:title="PML: 0.283||MTA3: 0.757||remove31">
<path fill="none" stroke="#e6b3ff" stroke-width="3" d="M334.656,-354.055C338.843,-322.29 345.435,-267.453 347.919,-220.205 351.258,-157.085 341.542,-82.8738 335.474,-44.3699"/>
<path fill="none" stroke="#d98aff" stroke-width="3" d="M336.639,-354.317C340.829,-322.529 347.42,-267.692 349.916,-220.31 353.241,-156.826 343.525,-82.6141 337.45,-44.0586"/>
<polygon fill="#d98aff" stroke="#d98aff" points="332.819,-354.211 334.535,-362.512 338.37,-354.953 332.819,-354.211"/>
<polygon fill="#e6b3ff" stroke="#e6b3ff" points="339.192,-43.5568 335.155,-36.1046 333.664,-44.4484 339.192,-43.5568"/>
</a>
</g>
<!-- SIN3A_CHD1&#45;&gt;RCOR1_MTA3 -->
<g id="edge26" class="edge"><title>SIN3A_CHD1&#45;&gt;RCOR1_MTA3</title>
<a xlink:title="RCOR1: 1.779||SIN3A: 0.229||remove38">
<path fill="none" stroke="#bd32ff" stroke-width="3" d="M282.078,-379.757C282.257,-379.755 282.437,-379.755 282.616,-379.757"/>
<path fill="none" stroke="#e8b8ff" stroke-width="3" d="M282.078,-381.754C282.257,-381.755 282.437,-381.755 282.616,-381.754"/>
<polygon fill="#e8b8ff" stroke="#e8b8ff" points="282.032,-377.955 274.032,-380.755 282.032,-383.555 282.032,-377.955"/>
<polygon fill="#bd32ff" stroke="#bd32ff" points="282.672,-383.555 290.672,-380.755 282.672,-377.955 282.672,-383.555"/>
</a>
</g>
<!-- SIN3A_CHD1&#45;&gt;SIN3A_CHD1 -->
<g id="edge28" class="edge"><title>SIN3A_CHD1&#45;&gt;SIN3A_CHD1</title>
<a xlink:title="CHD1: 0.054||remove9root">
<path fill="none" stroke="#edc7ff" stroke-width="3" d="M274.205,-387.425C284.242,-386.986 291.778,-384.763 291.778,-380.755 291.778,-377.937 288.052,-376.002 282.351,-374.948"/>
<polygon fill="#edc7ff" stroke="#edc7ff" points="282.455,-372.144 274.205,-374.086 281.865,-377.713 282.455,-372.144"/>
</a>
</g>
<!-- SIN3A_CHD1&#45;&gt;LMX1B_MNX1_RAX2 -->
<g id="edge34" class="edge"><title>SIN3A_CHD1&#45;&gt;LMX1B_MNX1_RAX2</title>
<a xlink:title="MNX1: 0.309||remove38root">
<path fill="none" stroke="#b1b9ff" stroke-width="3" d="M239.615,-362.701C248.254,-330.462 266.362,-262.883 276.365,-225.551"/>
<polygon fill="#b1b9ff" stroke="#b1b9ff" points="279.121,-226.08 278.487,-217.628 273.712,-224.631 279.121,-226.08"/>
</a>
</g>
<!-- SMAD4 -->
<g id="node17" class="node"><title>SMAD4</title>
<a xlink:href="SMAD4.svg" xlink:title="Z&#45;value: 1.601||remove32">
<polygon fill="#8b97ff" stroke="#8b97ff" stroke-width="2" points="117,-168.778 87,-168.778 75,-156.778 75,-144.778 87,-132.778 117,-132.778 129,-144.778 129,-156.778 117,-168.778"/>
<path fill="#8b97ff" stroke="#8b97ff" stroke-width="2" d="M87,-168.778C81,-168.778 75,-162.778 75,-156.778"/>
<path fill="#8b97ff" stroke="#8b97ff" stroke-width="2" d="M75,-144.778C75,-138.778 81,-132.778 87,-132.778"/>
<path fill="#8b97ff" stroke="#8b97ff" stroke-width="2" d="M117,-132.778C123,-132.778 129,-138.778 129,-144.778"/>
<path fill="#8b97ff" stroke="#8b97ff" stroke-width="2" d="M129,-156.778C129,-162.778 123,-168.778 117,-168.778"/>
<polyline fill="none" stroke="white" stroke-width="2" points="117,-168.778 87,-168.778 "/>
<path fill="none" stroke="white" stroke-width="2" d="M87,-168.778C81,-168.778 75,-162.778 75,-156.778"/>
<polyline fill="none" stroke="white" stroke-width="2" points="75,-156.778 75,-144.778 "/>
<path fill="none" stroke="white" stroke-width="2" d="M75,-144.778C75,-138.778 81,-132.778 87,-132.778"/>
<polyline fill="none" stroke="white" stroke-width="2" points="87,-132.778 117,-132.778 "/>
<path fill="none" stroke="white" stroke-width="2" d="M117,-132.778C123,-132.778 129,-138.778 129,-144.778"/>
<polyline fill="none" stroke="white" stroke-width="2" points="129,-144.778 129,-156.778 "/>
<path fill="none" stroke="white" stroke-width="2" d="M129,-156.778C129,-162.778 123,-168.778 117,-168.778"/>
<text text-anchor="middle" x="102" y="-148.278" font-family="Helvetica,sans-Serif" font-size="10.00">SMAD4</text>
</a>
</g>
<!-- SIN3A_CHD1&#45;&gt;SMAD4 -->
<g id="edge22" class="edge"><title>SIN3A_CHD1&#45;&gt;SMAD4</title>
<a xlink:title="SMAD4: 0.163||remove28root">
<path fill="none" stroke="#eabdff" stroke-width="3" d="M237.862,-362.618C242.057,-332.172 246.333,-269.922 220.32,-227.098 201.354,-195.875 164.208,-175.097 136.572,-163.209"/>
<polygon fill="#eabdff" stroke="#eabdff" points="137.515,-160.569 129.053,-160.091 135.37,-165.742 137.515,-160.569"/>
</a>
</g>
<!-- SIN3A_CHD1&#45;&gt;PBX2 -->
<g id="edge24" class="edge"><title>SIN3A_CHD1&#45;&gt;PBX2</title>
<a xlink:title="PBX2: 0.401||remove38">
<path fill="none" stroke="#e3a9ff" stroke-width="3" d="M266.273,-362.572C309.273,-337.746 386.069,-293.407 430.474,-267.77"/>
<polygon fill="#e3a9ff" stroke="#e3a9ff" points="432.05,-270.093 437.578,-263.668 429.25,-265.244 432.05,-270.093"/>
</a>
</g>
<!-- SIN3A_CHD1&#45;&gt;PATZ1_KLF4 -->
<g id="edge30" class="edge"><title>SIN3A_CHD1&#45;&gt;PATZ1_KLF4</title>
<a xlink:title="KLF4: 0.185||PATZ1: 0.181||remove30root">
<path fill="none" stroke="#e9bcff" stroke-width="3" d="M234.905,-362.459C234.699,-333.335 232.604,-274.845 220.32,-227.098 218.526,-220.124 181.14,-135.43 161.871,-91.9736"/>
<polygon fill="#e9bcff" stroke="#e9bcff" points="164.412,-90.7951 158.608,-84.6178 159.293,-93.066 164.412,-90.7951"/>
</a>
</g>
<!-- SIN3A_CHD1&#45;&gt;WRNIP1 -->
<g id="edge32" class="edge"><title>SIN3A_CHD1&#45;&gt;WRNIP1</title>
<a xlink:title="WRNIP1: 0.001||SIN3A: 0.007||remove1root">
<path fill="none" stroke="#eecbff" stroke-width="3" d="M233.328,-354.472C232.338,-323.644 229.199,-271.127 219.344,-227.317 219.231,-224.867 218.017,-224.368 216.853,-220.431 213.712,-201.566 215.951,-196.62 216.839,-178.445 219.335,-131.063 225.927,-76.2265 230.116,-44.4386"/>
<path fill="none" stroke="#eecbff" stroke-width="3" d="M235.327,-354.408C234.335,-323.525 231.195,-271.007 221.296,-226.879 219.992,-223.018 218.778,-222.518 218.823,-220.084 215.534,-202.391 217.773,-197.444 218.836,-178.55 221.321,-131.302 227.912,-76.4652 232.099,-44.6999"/>
<polygon fill="#eecbff" stroke="#eecbff" points="231.532,-354.625 234.554,-362.544 237.13,-354.469 231.532,-354.625"/>
<polygon fill="#eecbff" stroke="#eecbff" points="233.936,-44.5439 232.22,-36.2435 228.385,-43.8023 233.936,-44.5439"/>
</a>
</g>
<!-- IKZF1&#45;&gt;SIN3A_CHD1 -->
<g id="edge50" class="edge"><title>IKZF1&#45;&gt;SIN3A_CHD1</title>
<a xlink:title="SIN3A: 0.037||remove7root">
<path fill="none" stroke="#edc8ff" stroke-width="3" d="M177.698,-347.8C183.57,-351.191 189.891,-354.84 196.111,-358.431"/>
<polygon fill="#edc8ff" stroke="#edc8ff" points="195.006,-361.026 203.334,-362.601 197.806,-356.176 195.006,-361.026"/>
</a>
</g>
<!-- IKZF1&#45;&gt;LMX1B_MNX1_RAX2 -->
<g id="edge54" class="edge"><title>IKZF1&#45;&gt;LMX1B_MNX1_RAX2</title>
<a xlink:title="LMX1B: 0.251||RAX2: 0.086||remove36root">
<path fill="none" stroke="#b6bdff" stroke-width="3" d="M171.524,-314.106C185.63,-301.711 204.484,-284.696 220.32,-268.858 234.771,-254.404 250.204,-237.429 262.185,-223.875"/>
<polygon fill="#b6bdff" stroke="#b6bdff" points="264.59,-225.379 267.77,-217.522 260.385,-221.682 264.59,-225.379"/>
</a>
</g>
<!-- IKZF1&#45;&gt;PATZ1_KLF4 -->
<g id="edge52" class="edge"><title>IKZF1&#45;&gt;PATZ1_KLF4</title>
<a xlink:title="PATZ1: 0.034||remove6root">
<path fill="none" stroke="#edc9ff" stroke-width="3" d="M177.677,-315.878C193.32,-304.802 211.583,-288.59 220.32,-268.858 227.834,-251.887 224.096,-245.269 220.32,-227.098 219.586,-223.564 181.502,-136.788 161.94,-92.3376"/>
<polygon fill="#edc9ff" stroke="#edc9ff" points="164.414,-91.0097 158.628,-84.8159 159.289,-93.266 164.414,-91.0097"/>
</a>
</g>
<!-- MYF6 -->
<g id="node39" class="node"><title>MYF6</title>
<a xlink:href="MYF6.svg" xlink:title="Z&#45;value: 0.894||remove33">
<polygon fill="#a8b0ff" stroke="#a8b0ff" stroke-width="2" points="431.155,-84.6 401.155,-84.6 389.155,-72.6 389.155,-60.6 401.155,-48.6 431.155,-48.6 443.155,-60.6 443.155,-72.6 431.155,-84.6"/>
<path fill="#a8b0ff" stroke="#a8b0ff" stroke-width="2" d="M401.155,-84.6C395.155,-84.6 389.155,-78.6 389.155,-72.6"/>
<path fill="#a8b0ff" stroke="#a8b0ff" stroke-width="2" d="M389.155,-60.6C389.155,-54.6 395.155,-48.6 401.155,-48.6"/>
<path fill="#a8b0ff" stroke="#a8b0ff" stroke-width="2" d="M431.155,-48.6C437.155,-48.6 443.155,-54.6 443.155,-60.6"/>
<path fill="#a8b0ff" stroke="#a8b0ff" stroke-width="2" d="M443.155,-72.6C443.155,-78.6 437.155,-84.6 431.155,-84.6"/>
<polyline fill="none" stroke="white" stroke-width="2" points="431.155,-84.6 401.155,-84.6 "/>
<path fill="none" stroke="white" stroke-width="2" d="M401.155,-84.6C395.155,-84.6 389.155,-78.6 389.155,-72.6"/>
<polyline fill="none" stroke="white" stroke-width="2" points="389.155,-72.6 389.155,-60.6 "/>
<path fill="none" stroke="white" stroke-width="2" d="M389.155,-60.6C389.155,-54.6 395.155,-48.6 401.155,-48.6"/>
<polyline fill="none" stroke="white" stroke-width="2" points="401.155,-48.6 431.155,-48.6 "/>
<path fill="none" stroke="white" stroke-width="2" d="M431.155,-48.6C437.155,-48.6 443.155,-54.6 443.155,-60.6"/>
<polyline fill="none" stroke="white" stroke-width="2" points="443.155,-60.6 443.155,-72.6 "/>
<path fill="none" stroke="white" stroke-width="2" d="M443.155,-72.6C443.155,-78.6 437.155,-84.6 431.155,-84.6"/>
<text text-anchor="middle" x="416.155" y="-64.1" font-family="Helvetica,sans-Serif" font-size="10.00">MYF6</text>
</a>
</g>
<!-- IKZF1&#45;&gt;MYF6 -->
<g id="edge56" class="edge"><title>IKZF1&#45;&gt;MYF6</title>
<a xlink:title="MYF6: 0.017||IKZF1: 0.143||remove25root">
<path fill="none" stroke="#eecaff" stroke-width="3" d="M185.003,-319.49C228.426,-303.254 302.725,-270.016 348.176,-219.587 381.802,-182.5 400.642,-125.329 409.265,-92.3637"/>
<path fill="none" stroke="#eabfff" stroke-width="3" d="M185.703,-321.363C229.243,-305.08 303.541,-271.841 349.66,-220.928 383.702,-183.126 402.541,-125.955 411.2,-92.8699"/>
<polygon fill="#eabfff" stroke="#eabfff" points="184.154,-317.884 177.606,-323.266 186.081,-323.142 184.154,-317.884"/>
<polygon fill="#eecaff" stroke="#eecaff" points="412.97,-93.2093 412.212,-84.7674 407.54,-91.8396 412.97,-93.2093"/>
</a>
</g>
<!-- YBX1_FOS_NFYC_NFYA_NFYB_CEBPZ&#45;&gt;RCOR1_MTA3 -->
<g id="edge12" class="edge"><title>YBX1_FOS_NFYC_NFYA_NFYB_CEBPZ&#45;&gt;RCOR1_MTA3</title>
<a xlink:title="RCOR1: 0.148||NFYB: 0.666||NFYC: 0.172||YBX1: 0.144||remove40">
<path fill="none" stroke="#eabfff" stroke-width="3" d="M140.949,-269.31C183.406,-293.823 251.365,-333.059 293.881,-357.606"/>
<path fill="none" stroke="#dc92ff" stroke-width="3" d="M139.949,-271.042C182.406,-295.555 250.365,-334.791 292.881,-359.338"/>
<polygon fill="#dc92ff" stroke="#dc92ff" points="141.823,-267.737 133.495,-266.161 139.023,-272.586 141.823,-267.737"/>
<polygon fill="#eabfff" stroke="#eabfff" points="292.166,-361.003 300.495,-362.579 294.966,-356.154 292.166,-361.003"/>
</a>
</g>
<!-- YBX1_FOS_NFYC_NFYA_NFYB_CEBPZ&#45;&gt;SIN3A_CHD1 -->
<g id="edge14" class="edge"><title>YBX1_FOS_NFYC_NFYA_NFYB_CEBPZ&#45;&gt;SIN3A_CHD1</title>
<a xlink:title="SIN3A: 0.085||YBX1: 0.686||NFYB: 0.126||NFYC: 0.065||remove38">
<path fill="none" stroke="#ecc4ff" stroke-width="3" d="M135.525,-270.307C150.62,-281.633 168.256,-295.923 182.634,-310.575 196.089,-324.307 209.106,-341.356 218.897,-355.182"/>
<path fill="none" stroke="#db91ff" stroke-width="3" d="M134.325,-271.907C149.361,-283.187 166.997,-297.477 181.206,-311.976 194.5,-325.52 207.517,-342.57 217.265,-356.337"/>
<polygon fill="#db91ff" stroke="#db91ff" points="136.301,-268.642 128.205,-266.133 132.969,-273.143 136.301,-268.642"/>
<polygon fill="#ecc4ff" stroke="#ecc4ff" points="216.007,-357.681 222.879,-362.642 220.601,-354.478 216.007,-357.681"/>
</a>
</g>
<!-- YBX1_FOS_NFYC_NFYA_NFYB_CEBPZ&#45;&gt;IKZF1 -->
<g id="edge16" class="edge"><title>YBX1_FOS_NFYC_NFYA_NFYB_CEBPZ&#45;&gt;IKZF1</title>
<a xlink:title="IKZF1: 0.059||NFYB: 0.030||FOS: 0.025||CEBPZ: 0.016||YBX1: 0.013||remove12root">
<path fill="none" stroke="#edc6ff" stroke-width="3" d="M117.435,-272.711C123.58,-283.355 130.719,-295.721 136.867,-306.37"/>
<path fill="none" stroke="#edc9ff" stroke-width="3" d="M115.703,-273.711C121.848,-284.355 128.987,-296.721 135.135,-307.37"/>
<polygon fill="#edc9ff" stroke="#edc9ff" points="118.97,-271.771 112.545,-266.243 114.121,-274.571 118.97,-271.771"/>
<polygon fill="#edc6ff" stroke="#edc6ff" points="133.65,-308.397 140.075,-313.926 138.5,-305.597 133.65,-308.397"/>
</a>
</g>
<!-- YBX1_FOS_NFYC_NFYA_NFYB_CEBPZ&#45;&gt;YBX1_FOS_NFYC_NFYA_NFYB_CEBPZ -->
<g id="edge18" class="edge"><title>YBX1_FOS_NFYC_NFYA_NFYB_CEBPZ&#45;&gt;YBX1_FOS_NFYC_NFYA_NFYB_CEBPZ</title>
<a xlink:title="NFYC: 1.015||remove40">
<path fill="none" stroke="#d274ff" stroke-width="3" d="M203.565,-253.57C214.191,-252.479 221,-250.614 221,-247.978 221,-246.083 217.482,-244.586 211.558,-243.489"/>
<polygon fill="#d274ff" stroke="#d274ff" points="211.873,-240.706 203.565,-242.385 211.106,-246.254 211.873,-240.706"/>
</a>
</g>
<!-- YBX1_FOS_NFYC_NFYA_NFYB_CEBPZ&#45;&gt;LMX1B_MNX1_RAX2 -->
<g id="edge20" class="edge"><title>YBX1_FOS_NFYC_NFYA_NFYB_CEBPZ&#45;&gt;LMX1B_MNX1_RAX2</title>
<a xlink:title="MNX1: 0.348||remove40root">
<path fill="none" stroke="#aeb6ff" stroke-width="3" d="M169.281,-229.95C185.569,-225.585 202.938,-220.931 219.085,-216.605"/>
<polygon fill="#aeb6ff" stroke="#aeb6ff" points="219.901,-219.285 226.903,-214.51 218.451,-213.876 219.901,-219.285"/>
</a>
</g>
<!-- LMX1B_MNX1_RAX2&#45;&gt;PBX2 -->
<g id="edge58" class="edge"><title>LMX1B_MNX1_RAX2&#45;&gt;PBX2</title>
<a xlink:title="PBX2: 0.495||remove42root">
<path fill="none" stroke="#ffa1a1" stroke-width="3" d="M339.772,-214.489C369.049,-222.333 403.918,-231.676 429.378,-238.498"/>
<polygon fill="#ffa1a1" stroke="#ffa1a1" points="428.842,-241.253 437.294,-240.619 430.292,-235.844 428.842,-241.253"/>
</a>
</g>
<!-- SMAD4&#45;&gt;YBX1_FOS_NFYC_NFYA_NFYB_CEBPZ -->
<g id="edge70" class="edge"><title>SMAD4&#45;&gt;YBX1_FOS_NFYC_NFYA_NFYB_CEBPZ</title>
<a xlink:title="NFYB: 0.129||remove24root">
<path fill="none" stroke="#ebc0ff" stroke-width="3" d="M102,-169.06C102,-183.859 102,-204.901 102,-221.536"/>
<polygon fill="#ebc0ff" stroke="#ebc0ff" points="99.2001,-221.777 102,-229.777 104.8,-221.777 99.2001,-221.777"/>
</a>
</g>
<!-- SMAD4&#45;&gt;LMX1B_MNX1_RAX2 -->
<g id="edge72" class="edge"><title>SMAD4&#45;&gt;LMX1B_MNX1_RAX2</title>
<a xlink:title="LMX1B: 0.197||MNX1: 0.066||remove32root">
<path fill="none" stroke="#bbc1ff" stroke-width="3" d="M129.154,-158.054C152.932,-164.425 188.421,-173.934 219.363,-182.225"/>
<polygon fill="#bbc1ff" stroke="#bbc1ff" points="218.669,-184.938 227.121,-184.304 220.119,-179.529 218.669,-184.938"/>
</a>
</g>
<!-- PATZ1_KLF4&#45;&gt;ESRRA_ESR2 -->
<g id="edge98" class="edge"><title>PATZ1_KLF4&#45;&gt;ESRRA_ESR2</title>
<a xlink:title="ESRRA: 1.315||ESR2: 0.103||remove29">
<path fill="none" stroke="#ca5aff" stroke-width="3" d="M154.543,-84.7674C162.078,-115.811 181.136,-179.639 217.838,-220.258 258.927,-265.732 322.981,-297.166 367.116,-314.888"/>
<polygon fill="#ca5aff" stroke="#ca5aff" points="366.098,-317.496 374.567,-317.826 368.152,-312.287 366.098,-317.496"/>
</a>
</g>
<!-- PATZ1_KLF4&#45;&gt;YBX1_FOS_NFYC_NFYA_NFYB_CEBPZ -->
<g id="edge96" class="edge"><title>PATZ1_KLF4&#45;&gt;YBX1_FOS_NFYC_NFYA_NFYB_CEBPZ</title>
<a xlink:title="NFYA: 0.273||NFYC: 0.152||NFYB: 0.049||CEBPZ: 0.025||remove37root">
<path fill="none" stroke="#e7b4ff" stroke-width="3" d="M148.88,-84.7165C146.584,-105.873 141.789,-141.781 133.32,-171.658 128.409,-188.981 120.769,-207.696 114.263,-222.257"/>
<polygon fill="#e7b4ff" stroke="#e7b4ff" points="111.557,-221.444 110.791,-229.885 116.654,-223.764 111.557,-221.444"/>
</a>
</g>
<!-- PATZ1_KLF4&#45;&gt;LMX1B_MNX1_RAX2 -->
<g id="edge102" class="edge"><title>PATZ1_KLF4&#45;&gt;LMX1B_MNX1_RAX2</title>
<a xlink:title="LMX1B: 0.310||remove39root">
<path fill="none" stroke="#b1b9ff" stroke-width="3" d="M168.784,-84.7838C192.192,-108.192 232.947,-148.947 259.017,-175.017"/>
<polygon fill="#b1b9ff" stroke="#b1b9ff" points="257.351,-177.31 264.987,-180.987 261.31,-173.351 257.351,-177.31"/>
</a>
</g>
<!-- PATZ1_KLF4&#45;&gt;SMAD4 -->
<g id="edge92" class="edge"><title>PATZ1_KLF4&#45;&gt;SMAD4</title>
<a xlink:title="SMAD4: 0.086||remove16root">
<path fill="none" stroke="#ecc4ff" stroke-width="3" d="M140.055,-84.8653C133.176,-96.7786 124.106,-112.489 116.546,-125.583"/>
<polygon fill="#ecc4ff" stroke="#ecc4ff" points="114.1,-124.22 112.525,-132.548 118.95,-127.02 114.1,-124.22"/>
</a>
</g>
<!-- PATZ1_KLF4&#45;&gt;PATZ1_KLF4 -->
<g id="edge94" class="edge"><title>PATZ1_KLF4&#45;&gt;PATZ1_KLF4</title>
<a xlink:title="PATZ1: 0.441||KLF4: 0.051||remove39">
<path fill="none" stroke="#e2a6ff" stroke-width="3" d="M188.814,-73.2907C198.935,-72.9084 206.6,-70.6781 206.6,-66.6 206.6,-63.7326 202.81,-61.7787 197.042,-60.7384"/>
<polygon fill="#e2a6ff" stroke="#e2a6ff" points="197.054,-57.9256 188.814,-59.9093 196.493,-63.4974 197.054,-57.9256"/>
</a>
</g>
<!-- PATZ1_KLF4&#45;&gt;MYF6 -->
<g id="edge104" class="edge"><title>PATZ1_KLF4&#45;&gt;MYF6</title>
<a xlink:title="MYF6: 0.095||remove20root">
<path fill="none" stroke="#ecc3ff" stroke-width="3" d="M188.648,-66.6C240.029,-66.6 330.902,-66.6 380.839,-66.6"/>
<polygon fill="#ecc3ff" stroke="#ecc3ff" points="381.079,-69.4001 389.079,-66.6 381.079,-63.8001 381.079,-69.4001"/>
</a>
</g>
<!-- GATA3 -->
<g id="node42" class="node"><title>GATA3</title>
<a xlink:href="GATA3.svg" xlink:title="Z&#45;value: 2.023||remove34">
<polygon fill="#7a88ff" stroke="#7a88ff" stroke-width="2" points="479.755,-168.778 449.755,-168.778 437.755,-156.778 437.755,-144.778 449.755,-132.778 479.755,-132.778 491.755,-144.778 491.755,-156.778 479.755,-168.778"/>
<path fill="#7a88ff" stroke="#7a88ff" stroke-width="2" d="M449.755,-168.778C443.755,-168.778 437.755,-162.778 437.755,-156.778"/>
<path fill="#7a88ff" stroke="#7a88ff" stroke-width="2" d="M437.755,-144.778C437.755,-138.778 443.755,-132.778 449.755,-132.778"/>
<path fill="#7a88ff" stroke="#7a88ff" stroke-width="2" d="M479.755,-132.778C485.755,-132.778 491.755,-138.778 491.755,-144.778"/>
<path fill="#7a88ff" stroke="#7a88ff" stroke-width="2" d="M491.755,-156.778C491.755,-162.778 485.755,-168.778 479.755,-168.778"/>
<polyline fill="none" stroke="white" stroke-width="2" points="479.755,-168.778 449.755,-168.778 "/>
<path fill="none" stroke="white" stroke-width="2" d="M449.755,-168.778C443.755,-168.778 437.755,-162.778 437.755,-156.778"/>
<polyline fill="none" stroke="white" stroke-width="2" points="437.755,-156.778 437.755,-144.778 "/>
<path fill="none" stroke="white" stroke-width="2" d="M437.755,-144.778C437.755,-138.778 443.755,-132.778 449.755,-132.778"/>
<polyline fill="none" stroke="white" stroke-width="2" points="449.755,-132.778 479.755,-132.778 "/>
<path fill="none" stroke="white" stroke-width="2" d="M479.755,-132.778C485.755,-132.778 491.755,-138.778 491.755,-144.778"/>
<polyline fill="none" stroke="white" stroke-width="2" points="491.755,-144.778 491.755,-156.778 "/>
<path fill="none" stroke="white" stroke-width="2" d="M491.755,-156.778C491.755,-162.778 485.755,-168.778 479.755,-168.778"/>
<text text-anchor="middle" x="464.755" y="-148.278" font-family="Helvetica,sans-Serif" font-size="10.00">GATA3</text>
</a>
</g>
<!-- PATZ1_KLF4&#45;&gt;GATA3 -->
<g id="edge100" class="edge"><title>PATZ1_KLF4&#45;&gt;GATA3</title>
<a xlink:title="GATA3: 0.094||remove19root">
<path fill="none" stroke="#ecc3ff" stroke-width="3" d="M188.808,-76.8377C250.185,-93.2836 369.874,-125.354 429.393,-141.302"/>
<polygon fill="#ecc3ff" stroke="#ecc3ff" points="428.927,-144.076 437.379,-143.442 430.376,-138.667 428.927,-144.076"/>
</a>
</g>
<!-- WRNIP1&#45;&gt;ESRRA_ESR2 -->
<g id="edge82" class="edge"><title>WRNIP1&#45;&gt;ESRRA_ESR2</title>
<a xlink:title="ESRRA: 0.023||remove4root">
<path fill="none" stroke="#eecaff" stroke-width="3" d="M249.806,-36.4277C273.006,-65.4324 318.081,-124.053 348.918,-178.498 373.288,-221.526 394.914,-275.086 406.712,-306.27"/>
<polygon fill="#eecaff" stroke="#eecaff" points="404.206,-307.561 409.635,-314.07 409.45,-305.596 404.206,-307.561"/>
</a>
</g>
<!-- WRNIP1&#45;&gt;YBX1_FOS_NFYC_NFYA_NFYB_CEBPZ -->
<g id="edge78" class="edge"><title>WRNIP1&#45;&gt;YBX1_FOS_NFYC_NFYA_NFYB_CEBPZ</title>
<a xlink:title="YBX1: 0.079||NFYC: 0.054||NFYB: 0.039||FOS: 0.038||CEBPZ: 0.007||remove15root">
<path fill="none" stroke="#ecc5ff" stroke-width="3" d="M224.359,-36.046C200.857,-76.7532 143.665,-175.812 116.625,-222.646"/>
<polygon fill="#ecc5ff" stroke="#ecc5ff" points="114.129,-221.369 112.554,-229.697 118.979,-224.169 114.129,-221.369"/>
</a>
</g>
<!-- WRNIP1&#45;&gt;LMX1B_MNX1_RAX2 -->
<g id="edge86" class="edge"><title>WRNIP1&#45;&gt;LMX1B_MNX1_RAX2</title>
<a xlink:title="LMX1B: 0.372||remove41root">
<path fill="none" stroke="#abb4ff" stroke-width="3" d="M239.615,-36.0543C248.254,-68.2929 266.362,-135.873 276.365,-173.204"/>
<polygon fill="#abb4ff" stroke="#abb4ff" points="273.712,-174.125 278.487,-181.127 279.121,-172.675 273.712,-174.125"/>
</a>
</g>
<!-- WRNIP1&#45;&gt;SMAD4 -->
<g id="edge74" class="edge"><title>WRNIP1&#45;&gt;SMAD4</title>
<a xlink:title="SMAD4: 0.103||remove21root">
<path fill="none" stroke="#ebc3ff" stroke-width="3" d="M227.012,-36.2913C220.056,-51.2209 208.787,-72.2612 194.68,-87.48 177.958,-105.52 155.19,-121.16 136.406,-132.381"/>
<polygon fill="#ebc3ff" stroke="#ebc3ff" points="134.657,-130.16 129.16,-136.611 137.48,-134.996 134.657,-130.16"/>
</a>
</g>
<!-- WRNIP1&#45;&gt;PATZ1_KLF4 -->
<g id="edge76" class="edge"><title>WRNIP1&#45;&gt;PATZ1_KLF4</title>
<a xlink:title="PATZ1: 0.056||remove10root">
<path fill="none" stroke="#edc7ff" stroke-width="3" d="M207.215,-33.9135C201.425,-37.2562 195.217,-40.8403 189.111,-44.3659"/>
<polygon fill="#edc7ff" stroke="#edc7ff" points="187.548,-42.035 182.019,-48.46 190.348,-46.8848 187.548,-42.035"/>
</a>
</g>
<!-- WRNIP1&#45;&gt;WRNIP1 -->
<g id="edge80" class="edge"><title>WRNIP1&#45;&gt;WRNIP1</title>
<a xlink:title="WRNIP1: 0.003||remove0root">
<path fill="none" stroke="#eecbff" stroke-width="3" d="M262.462,-24.7484C272.041,-24.8198 279.778,-22.5703 279.778,-18 279.778,-14.8579 276.121,-12.8128 270.723,-11.8646"/>
<polygon fill="#eecbff" stroke="#eecbff" points="270.647,-9.05141 262.462,-11.2516 270.233,-14.6361 270.647,-9.05141"/>
</a>
</g>
<!-- WRNIP1&#45;&gt;SP4_PML -->
<g id="edge88" class="edge"><title>WRNIP1&#45;&gt;SP4_PML</title>
<a xlink:title="PML: 0.023||remove5root">
<path fill="none" stroke="#eecaff" stroke-width="3" d="M262.371,-18C272.026,-18 283.05,-18 293.434,-18"/>
<polygon fill="#eecaff" stroke="#eecaff" points="293.585,-20.8001 301.585,-18 293.585,-15.2001 293.585,-20.8001"/>
</a>
</g>
<!-- WRNIP1&#45;&gt;MYF6 -->
<g id="edge90" class="edge"><title>WRNIP1&#45;&gt;MYF6</title>
<a xlink:title="MYF6: 0.053||remove8root">
<path fill="none" stroke="#edc7ff" stroke-width="3" d="M262.293,-27.937C272.937,-31.611 285.265,-35.6606 296.598,-38.88 324.649,-46.8486 356.879,-54.2198 380.802,-59.3547"/>
<polygon fill="#edc7ff" stroke="#edc7ff" points="380.489,-62.1508 388.896,-61.0751 381.653,-56.6731 380.489,-62.1508"/>
</a>
</g>
<!-- WRNIP1&#45;&gt;GATA3 -->
<g id="edge84" class="edge"><title>WRNIP1&#45;&gt;GATA3</title>
<a xlink:title="GATA3: 0.022||remove3root">
<path fill="none" stroke="#eecaff" stroke-width="3" d="M262.518,-34.0161C304.703,-58.3715 384.893,-104.669 430.602,-131.059"/>
<polygon fill="#eecaff" stroke="#eecaff" points="429.302,-133.542 437.63,-135.117 432.102,-128.692 429.302,-133.542"/>
</a>
</g>
<!-- SP4_PML&#45;&gt;ESRRA_ESR2 -->
<g id="edge112" class="edge"><title>SP4_PML&#45;&gt;ESRRA_ESR2</title>
<a xlink:title="ESRRA: 0.411||remove29">
<path fill="none" stroke="#e3a8ff" stroke-width="3" d="M336.867,-36.2482C351.106,-89.3869 392.578,-244.162 409.172,-306.094"/>
<polygon fill="#e3a8ff" stroke="#e3a8ff" points="406.477,-306.854 411.252,-313.857 411.886,-305.405 406.477,-306.854"/>
</a>
</g>
<!-- SP4_PML&#45;&gt;SIN3A_CHD1 -->
<g id="edge106" class="edge"><title>SP4_PML&#45;&gt;SIN3A_CHD1</title>
<a xlink:title="SIN3A: 0.124||remove23root">
<path fill="none" stroke="#ebc1ff" stroke-width="3" d="M338.05,-36.1061C349.156,-72.1367 369.766,-154.969 348.918,-220.258 331.342,-275.297 287.238,-327.606 259.285,-356.807"/>
<polygon fill="#ebc1ff" stroke="#ebc1ff" points="257.145,-354.991 253.58,-362.68 261.162,-358.893 257.145,-354.991"/>
</a>
</g>
<!-- SP4_PML&#45;&gt;YBX1_FOS_NFYC_NFYA_NFYB_CEBPZ -->
<g id="edge110" class="edge"><title>SP4_PML&#45;&gt;YBX1_FOS_NFYC_NFYA_NFYB_CEBPZ</title>
<a xlink:title="FOS: 0.340||NFYC: 0.024||NFYA: 0.022||remove31">
<path fill="none" stroke="#e5aeff" stroke-width="3" d="M313.932,-36.046C272.889,-77.0882 172.532,-177.446 126.186,-223.792"/>
<polygon fill="#e5aeff" stroke="#e5aeff" points="123.957,-222.061 120.28,-229.697 127.917,-226.02 123.957,-222.061"/>
</a>
</g>
<!-- SP4_PML&#45;&gt;LMX1B_MNX1_RAX2 -->
<g id="edge116" class="edge"><title>SP4_PML&#45;&gt;LMX1B_MNX1_RAX2</title>
<a xlink:title="LMX1B: 0.193||RAX2: 0.001||remove31root">
<path fill="none" stroke="#bbc2ff" stroke-width="3" d="M327.14,-36.0543C318.502,-68.2929 300.394,-135.873 290.391,-173.204"/>
<polygon fill="#bbc2ff" stroke="#bbc2ff" points="287.634,-172.675 288.268,-181.127 293.043,-174.125 287.634,-172.675"/>
</a>
</g>
<!-- SP4_PML&#45;&gt;PATZ1_KLF4 -->
<g id="edge108" class="edge"><title>SP4_PML&#45;&gt;PATZ1_KLF4</title>
<a xlink:title="PATZ1: 0.058||remove11root">
<path fill="none" stroke="#edc7ff" stroke-width="3" d="M301.51,-28.3754C290.743,-31.8963 278.514,-35.7321 267.258,-38.88 244.148,-45.3427 218.197,-51.6057 196.649,-56.5385"/>
<polygon fill="#edc7ff" stroke="#edc7ff" points="195.803,-53.8594 188.621,-58.3616 197.043,-59.3203 195.803,-53.8594"/>
</a>
</g>
<!-- SP4_PML&#45;&gt;SP4_PML -->
<g id="edge118" class="edge"><title>SP4_PML&#45;&gt;SP4_PML</title>
<a xlink:title="SP4: 0.061||remove13root">
<path fill="none" stroke="#edc6ff" stroke-width="3" d="M362.445,-24.7484C372.226,-24.6791 379.978,-22.4297 379.978,-18 379.978,-14.8854 376.145,-12.8486 370.47,-11.8898"/>
<polygon fill="#edc6ff" stroke="#edc6ff" points="370.642,-9.09468 362.445,-11.2516 370.198,-14.6771 370.642,-9.09468"/>
</a>
</g>
<!-- SP4_PML&#45;&gt;GATA3 -->
<g id="edge114" class="edge"><title>SP4_PML&#45;&gt;GATA3</title>
<a xlink:title="GATA3: 0.109||remove22root">
<path fill="none" stroke="#ebc2ff" stroke-width="3" d="M343.877,-36.1129C353.917,-50.7449 369.129,-71.4647 384.835,-87.48 399.129,-102.055 416.765,-116.345 431.831,-127.649"/>
<polygon fill="#ebc2ff" stroke="#ebc2ff" points="430.454,-130.113 438.551,-132.622 433.786,-125.612 430.454,-130.113"/>
</a>
</g>
<!-- MYF6&#45;&gt;LMX1B_MNX1_RAX2 -->
<g id="edge68" class="edge"><title>MYF6&#45;&gt;LMX1B_MNX1_RAX2</title>
<a xlink:title="MNX1: 0.210||remove33root">
<path fill="none" stroke="#b9c0ff" stroke-width="3" d="M397.972,-84.7838C374.564,-108.192 333.808,-148.947 307.738,-175.017"/>
<polygon fill="#b9c0ff" stroke="#b9c0ff" points="305.445,-173.351 301.768,-180.987 309.405,-177.31 305.445,-173.351"/>
</a>
</g>
<!-- GATA3&#45;&gt;RCOR1_MTA3 -->
<g id="edge60" class="edge"><title>GATA3&#45;&gt;RCOR1_MTA3</title>
<a xlink:title="RCOR1: 0.161||remove27root">
<path fill="none" stroke="#eabeff" stroke-width="3" d="M453.345,-168.848C434.848,-198.328 397.422,-258.759 368.015,-311.275 359.968,-325.646 351.462,-341.985 344.736,-355.206"/>
<polygon fill="#eabeff" stroke="#eabeff" points="342.112,-354.189 340.998,-362.592 347.109,-356.718 342.112,-354.189"/>
</a>
</g>
<!-- GATA3&#45;&gt;YBX1_FOS_NFYC_NFYA_NFYB_CEBPZ -->
<g id="edge62" class="edge"><title>GATA3&#45;&gt;YBX1_FOS_NFYC_NFYA_NFYB_CEBPZ</title>
<a xlink:title="YBX1: 0.229||FOS: 0.161||NFYC: 0.063||remove34">
<path fill="none" stroke="#e8b8ff" stroke-width="3" d="M441.402,-168.937C419.008,-185.303 383.574,-208.54 348.918,-220.258 305.35,-234.988 255.246,-242.257 211.605,-245.724"/>
<polygon fill="#e8b8ff" stroke="#e8b8ff" points="211.304,-242.939 203.535,-246.328 211.722,-248.523 211.304,-242.939"/>
</a>
</g>
<!-- GATA3&#45;&gt;LMX1B_MNX1_RAX2 -->
<g id="edge64" class="edge"><title>GATA3&#45;&gt;LMX1B_MNX1_RAX2</title>
<a xlink:title="LMX1B: 0.220||remove34root">
<path fill="none" stroke="#b9c0ff" stroke-width="3" d="M437.601,-158.054C413.823,-164.425 378.334,-173.934 347.393,-182.225"/>
<polygon fill="#b9c0ff" stroke="#b9c0ff" points="346.637,-179.529 339.634,-184.304 348.086,-184.938 346.637,-179.529"/>
</a>
</g>
<!-- GATA3&#45;&gt;MYF6 -->
<g id="edge66" class="edge"><title>GATA3&#45;&gt;MYF6</title>
<a xlink:title="MYF6: 0.071||remove14root">
<path fill="none" stroke="#ecc5ff" stroke-width="3" d="M454.21,-132.512C447.332,-120.599 438.261,-104.889 430.701,-91.7945"/>
<polygon fill="#ecc5ff" stroke="#ecc5ff" points="433.105,-90.3579 426.68,-84.8297 428.255,-93.1579 433.105,-90.3579"/>
</a>
</g>
</g>
</svg>
