<?xml version="1.0" encoding="UTF-8" standalone="no"?>
<!DOCTYPE svg PUBLIC "-//W3C//DTD SVG 1.1//EN"
 "http://www.w3.org/Graphics/SVG/1.1/DTD/svg11.dtd">
<!-- Generated by graphviz version 2.28.0 (20110630.0925)
 -->
<!-- Title: _anonymous_0 Pages: 1 -->
<svg width="476pt" height="366pt"
 viewBox="0.00 0.00 476.45 366.45" xmlns="http://www.w3.org/2000/svg" xmlns:xlink="http://www.w3.org/1999/xlink">
<g id="graph1" class="graph" transform="scale(1 1) rotate(0) translate(4 362.449)">
<title>_anonymous_0</title>
<polygon fill="white" stroke="white" points="-4,5 -4,-362.449 473.449,-362.449 473.449,5 -4,5"/>
<!-- SIN3A_CHD1 -->
<g id="node1" class="node"><title>SIN3A_CHD1</title>
<a xlink:href="SIN3A_CHD1.svg" xlink:title="Z&#45;value: 1.751||remove20">
<polygon fill="#3247ff" stroke="#3247ff" stroke-width="2" points="376.699,-154.025 322.199,-154.025 310.199,-142.025 310.199,-130.025 322.199,-118.025 376.699,-118.025 388.699,-130.025 388.699,-142.025 376.699,-154.025"/>
<path fill="#3247ff" stroke="#3247ff" stroke-width="2" d="M322.199,-154.025C316.199,-154.025 310.199,-148.025 310.199,-142.025"/>
<path fill="#3247ff" stroke="#3247ff" stroke-width="2" d="M310.199,-130.025C310.199,-124.025 316.199,-118.025 322.199,-118.025"/>
<path fill="#3247ff" stroke="#3247ff" stroke-width="2" d="M376.699,-118.025C382.699,-118.025 388.699,-124.025 388.699,-130.025"/>
<path fill="#3247ff" stroke="#3247ff" stroke-width="2" d="M388.699,-142.025C388.699,-148.025 382.699,-154.025 376.699,-154.025"/>
<polyline fill="none" stroke="white" stroke-width="2" points="376.699,-154.025 322.199,-154.025 "/>
<path fill="none" stroke="white" stroke-width="2" d="M322.199,-154.025C316.199,-154.025 310.199,-148.025 310.199,-142.025"/>
<polyline fill="none" stroke="white" stroke-width="2" points="310.199,-142.025 310.199,-130.025 "/>
<path fill="none" stroke="white" stroke-width="2" d="M310.199,-130.025C310.199,-124.025 316.199,-118.025 322.199,-118.025"/>
<polyline fill="none" stroke="white" stroke-width="2" points="322.199,-118.025 376.699,-118.025 "/>
<path fill="none" stroke="white" stroke-width="2" d="M376.699,-118.025C382.699,-118.025 388.699,-124.025 388.699,-130.025"/>
<polyline fill="none" stroke="white" stroke-width="2" points="388.699,-130.025 388.699,-142.025 "/>
<path fill="none" stroke="white" stroke-width="2" d="M388.699,-142.025C388.699,-148.025 382.699,-154.025 376.699,-154.025"/>
<text text-anchor="middle" x="349.449" y="-133.525" font-family="Helvetica,sans-Serif" font-size="10.00" fill="white">SIN3A_CHD1</text>
</a>
</g>
<!-- SIN3A_CHD1&#45;&gt;SIN3A_CHD1 -->
<g id="edge8" class="edge"><title>SIN3A_CHD1&#45;&gt;SIN3A_CHD1</title>
<a xlink:title="CHD1: 0.054||remove5root">
<path fill="none" stroke="#ecc5ff" stroke-width="3" d="M388.955,-142.705C399.214,-142.294 406.949,-140.068 406.949,-136.025 406.949,-133.182 403.125,-131.237 397.288,-130.19"/>
<polygon fill="#ecc5ff" stroke="#ecc5ff" points="397.197,-127.367 388.955,-129.344 396.631,-132.938 397.197,-127.367"/>
</a>
</g>
<!-- FOXD1_FOXO1_FOXO6_FOXG1_FOXP1 -->
<g id="node2" class="node"><title>FOXD1_FOXO1_FOXO6_FOXG1_FOXP1</title>
<a xlink:href="FOXD1_FOXO1_FOXO6_FOXG1_FOXP1.svg" xlink:title="Z&#45;value: 0.656||remove21">
<polygon fill="#929dff" stroke="#929dff" stroke-width="2" points="438.449,-240.425 260.449,-240.425 248.449,-228.425 248.449,-216.425 260.449,-204.425 438.449,-204.425 450.449,-216.425 450.449,-228.425 438.449,-240.425"/>
<path fill="#929dff" stroke="#929dff" stroke-width="2" d="M260.449,-240.425C254.449,-240.425 248.449,-234.425 248.449,-228.425"/>
<path fill="#929dff" stroke="#929dff" stroke-width="2" d="M248.449,-216.425C248.449,-210.425 254.449,-204.425 260.449,-204.425"/>
<path fill="#929dff" stroke="#929dff" stroke-width="2" d="M438.449,-204.425C444.449,-204.425 450.449,-210.425 450.449,-216.425"/>
<path fill="#929dff" stroke="#929dff" stroke-width="2" d="M450.449,-228.425C450.449,-234.425 444.449,-240.425 438.449,-240.425"/>
<polyline fill="none" stroke="white" stroke-width="2" points="438.449,-240.425 260.449,-240.425 "/>
<path fill="none" stroke="white" stroke-width="2" d="M260.449,-240.425C254.449,-240.425 248.449,-234.425 248.449,-228.425"/>
<polyline fill="none" stroke="white" stroke-width="2" points="248.449,-228.425 248.449,-216.425 "/>
<path fill="none" stroke="white" stroke-width="2" d="M248.449,-216.425C248.449,-210.425 254.449,-204.425 260.449,-204.425"/>
<polyline fill="none" stroke="white" stroke-width="2" points="260.449,-204.425 438.449,-204.425 "/>
<path fill="none" stroke="white" stroke-width="2" d="M438.449,-204.425C444.449,-204.425 450.449,-210.425 450.449,-216.425"/>
<polyline fill="none" stroke="white" stroke-width="2" points="450.449,-216.425 450.449,-228.425 "/>
<path fill="none" stroke="white" stroke-width="2" d="M450.449,-228.425C450.449,-234.425 444.449,-240.425 438.449,-240.425"/>
<text text-anchor="middle" x="349.449" y="-219.925" font-family="Helvetica,sans-Serif" font-size="10.00">FOXD1_FOXO1_FOXO6_FOXG1_FOXP1</text>
</a>
</g>
<!-- SIN3A_CHD1&#45;&gt;FOXD1_FOXO1_FOXO6_FOXG1_FOXP1 -->
<g id="edge2" class="edge"><title>SIN3A_CHD1&#45;&gt;FOXD1_FOXO1_FOXO6_FOXG1_FOXP1</title>
<a xlink:title="FOXG1: 0.205||FOXD1: 0.122||FOXP1: 0.057||CHD1: 0.008||remove13root">
<path fill="none" stroke="#e6b3ff" stroke-width="3" d="M350.449,-162.42C350.449,-173.158 350.449,-185.536 350.449,-196.251"/>
<path fill="none" stroke="#eecaff" stroke-width="3" d="M348.449,-162.42C348.449,-173.158 348.449,-185.536 348.449,-196.251"/>
<polygon fill="#eecaff" stroke="#eecaff" points="352.249,-162.348 349.449,-154.348 346.649,-162.348 352.249,-162.348"/>
<polygon fill="#e6b3ff" stroke="#e6b3ff" points="346.649,-196.424 349.449,-204.424 352.249,-196.424 346.649,-196.424"/>
</a>
</g>
<!-- E2F2_E2F5 -->
<g id="node4" class="node"><title>E2F2_E2F5</title>
<a xlink:href="E2F2_E2F5.svg" xlink:title="Z&#45;value: 0.434||remove22">
<polygon fill="#a6aeff" stroke="#a6aeff" stroke-width="2" points="328.249,-315.249 284.249,-315.249 272.249,-303.249 272.249,-291.249 284.249,-279.249 328.249,-279.249 340.249,-291.249 340.249,-303.249 328.249,-315.249"/>
<path fill="#a6aeff" stroke="#a6aeff" stroke-width="2" d="M284.249,-315.249C278.249,-315.249 272.249,-309.249 272.249,-303.249"/>
<path fill="#a6aeff" stroke="#a6aeff" stroke-width="2" d="M272.249,-291.249C272.249,-285.249 278.249,-279.249 284.249,-279.249"/>
<path fill="#a6aeff" stroke="#a6aeff" stroke-width="2" d="M328.249,-279.249C334.249,-279.249 340.249,-285.249 340.249,-291.249"/>
<path fill="#a6aeff" stroke="#a6aeff" stroke-width="2" d="M340.249,-303.249C340.249,-309.249 334.249,-315.249 328.249,-315.249"/>
<polyline fill="none" stroke="white" stroke-width="2" points="328.249,-315.249 284.249,-315.249 "/>
<path fill="none" stroke="white" stroke-width="2" d="M284.249,-315.249C278.249,-315.249 272.249,-309.249 272.249,-303.249"/>
<polyline fill="none" stroke="white" stroke-width="2" points="272.249,-303.249 272.249,-291.249 "/>
<path fill="none" stroke="white" stroke-width="2" d="M272.249,-291.249C272.249,-285.249 278.249,-279.249 284.249,-279.249"/>
<polyline fill="none" stroke="white" stroke-width="2" points="284.249,-279.249 328.249,-279.249 "/>
<path fill="none" stroke="white" stroke-width="2" d="M328.249,-279.249C334.249,-279.249 340.249,-285.249 340.249,-291.249"/>
<polyline fill="none" stroke="white" stroke-width="2" points="340.249,-291.249 340.249,-303.249 "/>
<path fill="none" stroke="white" stroke-width="2" d="M340.249,-303.249C340.249,-309.249 334.249,-315.249 328.249,-315.249"/>
<text text-anchor="middle" x="306.249" y="-294.749" font-family="Helvetica,sans-Serif" font-size="10.00">E2F2_E2F5</text>
</a>
</g>
<!-- SIN3A_CHD1&#45;&gt;E2F2_E2F5 -->
<g id="edge4" class="edge"><title>SIN3A_CHD1&#45;&gt;E2F2_E2F5</title>
<a xlink:title="E2F5: 0.303||remove16root">
<path fill="none" stroke="#e2a7ff" stroke-width="3" d="M310.115,-146.55C283.007,-156.082 248.973,-173.1 232.289,-201.545 222.899,-217.554 223.878,-226.76 232.289,-243.305 239.399,-257.29 252.024,-268.512 264.852,-277.02"/>
<polygon fill="#e2a7ff" stroke="#e2a7ff" points="263.699,-279.602 271.967,-281.469 266.668,-274.853 263.699,-279.602"/>
</a>
</g>
<!-- GTF2I -->
<g id="node6" class="node"><title>GTF2I</title>
<a xlink:href="GTF2I.svg" xlink:title="Z&#45;value: 1.592||remove23">
<polygon fill="#4053ff" stroke="#4053ff" stroke-width="2" points="246.425,-358.449 216.425,-358.449 204.425,-346.449 204.425,-334.449 216.425,-322.449 246.425,-322.449 258.425,-334.449 258.425,-346.449 246.425,-358.449"/>
<path fill="#4053ff" stroke="#4053ff" stroke-width="2" d="M216.425,-358.449C210.425,-358.449 204.425,-352.449 204.425,-346.449"/>
<path fill="#4053ff" stroke="#4053ff" stroke-width="2" d="M204.425,-334.449C204.425,-328.449 210.425,-322.449 216.425,-322.449"/>
<path fill="#4053ff" stroke="#4053ff" stroke-width="2" d="M246.425,-322.449C252.425,-322.449 258.425,-328.449 258.425,-334.449"/>
<path fill="#4053ff" stroke="#4053ff" stroke-width="2" d="M258.425,-346.449C258.425,-352.449 252.425,-358.449 246.425,-358.449"/>
<polyline fill="none" stroke="white" stroke-width="2" points="246.425,-358.449 216.425,-358.449 "/>
<path fill="none" stroke="white" stroke-width="2" d="M216.425,-358.449C210.425,-358.449 204.425,-352.449 204.425,-346.449"/>
<polyline fill="none" stroke="white" stroke-width="2" points="204.425,-346.449 204.425,-334.449 "/>
<path fill="none" stroke="white" stroke-width="2" d="M204.425,-334.449C204.425,-328.449 210.425,-322.449 216.425,-322.449"/>
<polyline fill="none" stroke="white" stroke-width="2" points="216.425,-322.449 246.425,-322.449 "/>
<path fill="none" stroke="white" stroke-width="2" d="M246.425,-322.449C252.425,-322.449 258.425,-328.449 258.425,-334.449"/>
<polyline fill="none" stroke="white" stroke-width="2" points="258.425,-334.449 258.425,-346.449 "/>
<path fill="none" stroke="white" stroke-width="2" d="M258.425,-346.449C258.425,-352.449 252.425,-358.449 246.425,-358.449"/>
<text text-anchor="middle" x="231.425" y="-337.949" font-family="Helvetica,sans-Serif" font-size="10.00" fill="white">GTF2I</text>
</a>
</g>
<!-- SIN3A_CHD1&#45;&gt;GTF2I -->
<g id="edge6" class="edge"><title>SIN3A_CHD1&#45;&gt;GTF2I</title>
<a xlink:title="GTF2I: 0.061||SIN3A: 0.139||remove11root">
<path fill="none" stroke="#ecc4ff" stroke-width="3" d="M302.751,-150.399C277.346,-160.294 247.976,-176.687 233.15,-202.053 212.765,-236.156 218.691,-284.804 225.247,-314.258"/>
<path fill="none" stroke="#e9bbff" stroke-width="3" d="M302.025,-148.535C276.371,-158.548 247.001,-174.94 231.428,-201.036 210.78,-236.398 216.706,-285.046 223.294,-314.692"/>
<polygon fill="#e9bbff" stroke="#e9bbff" points="303.641,-151.989 310.168,-146.581 301.693,-146.738 303.641,-151.989"/>
<polygon fill="#ecc4ff" stroke="#ecc4ff" points="221.55,-315.137 226.12,-322.275 226.999,-313.845 221.55,-315.137"/>
</a>
</g>
<!-- MECP2 -->
<g id="node9" class="node"><title>MECP2</title>
<a xlink:href="MECP2.svg" xlink:title="Z&#45;value: 1.015||remove29">
<polygon fill="#ff7373" stroke="#ff7373" stroke-width="2" points="203.225,-197.225 173.225,-197.225 161.225,-185.225 161.225,-173.225 173.225,-161.225 203.225,-161.225 215.225,-173.225 215.225,-185.225 203.225,-197.225"/>
<path fill="#ff7373" stroke="#ff7373" stroke-width="2" d="M173.225,-197.225C167.225,-197.225 161.225,-191.225 161.225,-185.225"/>
<path fill="#ff7373" stroke="#ff7373" stroke-width="2" d="M161.225,-173.225C161.225,-167.225 167.225,-161.225 173.225,-161.225"/>
<path fill="#ff7373" stroke="#ff7373" stroke-width="2" d="M203.225,-161.225C209.225,-161.225 215.225,-167.225 215.225,-173.225"/>
<path fill="#ff7373" stroke="#ff7373" stroke-width="2" d="M215.225,-185.225C215.225,-191.225 209.225,-197.225 203.225,-197.225"/>
<polyline fill="none" stroke="white" stroke-width="2" points="203.225,-197.225 173.225,-197.225 "/>
<path fill="none" stroke="white" stroke-width="2" d="M173.225,-197.225C167.225,-197.225 161.225,-191.225 161.225,-185.225"/>
<polyline fill="none" stroke="white" stroke-width="2" points="161.225,-185.225 161.225,-173.225 "/>
<path fill="none" stroke="white" stroke-width="2" d="M161.225,-173.225C161.225,-167.225 167.225,-161.225 173.225,-161.225"/>
<polyline fill="none" stroke="white" stroke-width="2" points="173.225,-161.225 203.225,-161.225 "/>
<path fill="none" stroke="white" stroke-width="2" d="M203.225,-161.225C209.225,-161.225 215.225,-167.225 215.225,-173.225"/>
<polyline fill="none" stroke="white" stroke-width="2" points="215.225,-173.225 215.225,-185.225 "/>
<path fill="none" stroke="white" stroke-width="2" d="M215.225,-185.225C215.225,-191.225 209.225,-197.225 203.225,-197.225"/>
<text text-anchor="middle" x="188.225" y="-176.725" font-family="Helvetica,sans-Serif" font-size="10.00">MECP2</text>
</a>
</g>
<!-- SIN3A_CHD1&#45;&gt;MECP2 -->
<g id="edge10" class="edge"><title>SIN3A_CHD1&#45;&gt;MECP2</title>
<a xlink:title="MECP2: 0.379||SIN3A: 0.042||remove20root">
<path fill="none" stroke="#9ea7ff" stroke-width="3" d="M302.517,-149.635C277.331,-156.384 246.855,-164.55 223.748,-170.741"/>
<path fill="none" stroke="#ffc6c6" stroke-width="3" d="M301.999,-147.704C276.813,-154.452 246.338,-162.618 223.231,-168.81"/>
<polygon fill="#ffc6c6" stroke="#ffc6c6" points="303.007,-151.368 310.009,-146.593 301.557,-145.959 303.007,-151.368"/>
<polygon fill="#9ea7ff" stroke="#9ea7ff" points="222.647,-167.102 215.644,-171.878 224.096,-172.512 222.647,-167.102"/>
</a>
</g>
<!-- FOXA2_FOXJ3 -->
<g id="node11" class="node"><title>FOXA2_FOXJ3</title>
<a xlink:href="FOXA2_FOXJ3.svg" xlink:title="Z&#45;value: 0.626||remove25">
<polygon fill="#959fff" stroke="#959fff" stroke-width="2" points="175.275,-358.449 114.775,-358.449 102.775,-346.449 102.775,-334.449 114.775,-322.449 175.275,-322.449 187.275,-334.449 187.275,-346.449 175.275,-358.449"/>
<path fill="#959fff" stroke="#959fff" stroke-width="2" d="M114.775,-358.449C108.775,-358.449 102.775,-352.449 102.775,-346.449"/>
<path fill="#959fff" stroke="#959fff" stroke-width="2" d="M102.775,-334.449C102.775,-328.449 108.775,-322.449 114.775,-322.449"/>
<path fill="#959fff" stroke="#959fff" stroke-width="2" d="M175.275,-322.449C181.275,-322.449 187.275,-328.449 187.275,-334.449"/>
<path fill="#959fff" stroke="#959fff" stroke-width="2" d="M187.275,-346.449C187.275,-352.449 181.275,-358.449 175.275,-358.449"/>
<polyline fill="none" stroke="white" stroke-width="2" points="175.275,-358.449 114.775,-358.449 "/>
<path fill="none" stroke="white" stroke-width="2" d="M114.775,-358.449C108.775,-358.449 102.775,-352.449 102.775,-346.449"/>
<polyline fill="none" stroke="white" stroke-width="2" points="102.775,-346.449 102.775,-334.449 "/>
<path fill="none" stroke="white" stroke-width="2" d="M102.775,-334.449C102.775,-328.449 108.775,-322.449 114.775,-322.449"/>
<polyline fill="none" stroke="white" stroke-width="2" points="114.775,-322.449 175.275,-322.449 "/>
<path fill="none" stroke="white" stroke-width="2" d="M175.275,-322.449C181.275,-322.449 187.275,-328.449 187.275,-334.449"/>
<polyline fill="none" stroke="white" stroke-width="2" points="187.275,-334.449 187.275,-346.449 "/>
<path fill="none" stroke="white" stroke-width="2" d="M187.275,-346.449C187.275,-352.449 181.275,-358.449 175.275,-358.449"/>
<text text-anchor="middle" x="145.025" y="-337.949" font-family="Helvetica,sans-Serif" font-size="10.00">FOXA2_FOXJ3</text>
</a>
</g>
<!-- SIN3A_CHD1&#45;&gt;FOXA2_FOXJ3 -->
<g id="edge12" class="edge"><title>SIN3A_CHD1&#45;&gt;FOXA2_FOXJ3</title>
<a xlink:title="FOXA2: 0.607||remove20">
<path fill="none" stroke="#d782ff" stroke-width="3" d="M310.135,-151.953C285.735,-163.216 254.843,-180.113 232.289,-201.545 197.418,-234.68 170.574,-284.559 156.345,-314.662"/>
<polygon fill="#d782ff" stroke="#d782ff" points="153.66,-313.797 152.836,-322.233 158.74,-316.152 153.66,-313.797"/>
</a>
</g>
<!-- RXRA_NR2F6_NR2C2 -->
<g id="node13" class="node"><title>RXRA_NR2F6_NR2C2</title>
<a xlink:href="RXRA_NR2F6_NR2C2.svg" xlink:title="Z&#45;value: 0.563||remove19">
<polygon fill="#9aa4ff" stroke="#9aa4ff" stroke-width="2" points="117.7,-315.249 22.7,-315.249 10.7,-303.249 10.7,-291.249 22.7,-279.249 117.7,-279.249 129.7,-291.249 129.7,-303.249 117.7,-315.249"/>
<path fill="#9aa4ff" stroke="#9aa4ff" stroke-width="2" d="M22.7,-315.249C16.7,-315.249 10.7,-309.249 10.7,-303.249"/>
<path fill="#9aa4ff" stroke="#9aa4ff" stroke-width="2" d="M10.7,-291.249C10.7,-285.249 16.7,-279.249 22.7,-279.249"/>
<path fill="#9aa4ff" stroke="#9aa4ff" stroke-width="2" d="M117.7,-279.249C123.7,-279.249 129.7,-285.249 129.7,-291.249"/>
<path fill="#9aa4ff" stroke="#9aa4ff" stroke-width="2" d="M129.7,-303.249C129.7,-309.249 123.7,-315.249 117.7,-315.249"/>
<polyline fill="none" stroke="white" stroke-width="2" points="117.7,-315.249 22.7,-315.249 "/>
<path fill="none" stroke="white" stroke-width="2" d="M22.7,-315.249C16.7,-315.249 10.7,-309.249 10.7,-303.249"/>
<polyline fill="none" stroke="white" stroke-width="2" points="10.7,-303.249 10.7,-291.249 "/>
<path fill="none" stroke="white" stroke-width="2" d="M10.7,-291.249C10.7,-285.249 16.7,-279.249 22.7,-279.249"/>
<polyline fill="none" stroke="white" stroke-width="2" points="22.7,-279.249 117.7,-279.249 "/>
<path fill="none" stroke="white" stroke-width="2" d="M117.7,-279.249C123.7,-279.249 129.7,-285.249 129.7,-291.249"/>
<polyline fill="none" stroke="white" stroke-width="2" points="129.7,-291.249 129.7,-303.249 "/>
<path fill="none" stroke="white" stroke-width="2" d="M129.7,-303.249C129.7,-309.249 123.7,-315.249 117.7,-315.249"/>
<text text-anchor="middle" x="70.2" y="-294.749" font-family="Helvetica,sans-Serif" font-size="10.00">RXRA_NR2F6_NR2C2</text>
</a>
</g>
<!-- SIN3A_CHD1&#45;&gt;RXRA_NR2F6_NR2C2 -->
<g id="edge14" class="edge"><title>SIN3A_CHD1&#45;&gt;RXRA_NR2F6_NR2C2</title>
<a xlink:title="RXRA: 1.263||NR2C2: 0.352||remove19">
<path fill="none" stroke="#bd32ff" stroke-width="3" d="M316.759,-154.037C293.196,-167.087 260.678,-185.229 232.289,-201.545 189.221,-226.297 140.152,-255.397 107.392,-274.954"/>
<polygon fill="#bd32ff" stroke="#bd32ff" points="105.681,-272.715 100.249,-279.222 108.553,-277.523 105.681,-272.715"/>
</a>
</g>
<!-- FOXD1_FOXO1_FOXO6_FOXG1_FOXP1&#45;&gt;FOXD1_FOXO1_FOXO6_FOXG1_FOXP1 -->
<g id="edge40" class="edge"><title>FOXD1_FOXO1_FOXO6_FOXG1_FOXP1&#45;&gt;FOXD1_FOXO1_FOXO6_FOXG1_FOXP1</title>
<a xlink:title="FOXP1: 0.292||FOXO1: 0.176||remove15root">
<path fill="none" stroke="#e3a8ff" stroke-width="3" d="M450.587,-228.061C461.457,-226.975 468.449,-225.096 468.449,-222.425 468.449,-220.504 464.837,-218.994 458.769,-217.893"/>
<polygon fill="#e3a8ff" stroke="#e3a8ff" points="458.889,-215.084 450.587,-216.789 458.14,-220.633 458.889,-215.084"/>
</a>
</g>
<!-- FOXD1_FOXO1_FOXO6_FOXG1_FOXP1&#45;&gt;FOXA2_FOXJ3 -->
<g id="edge44" class="edge"><title>FOXD1_FOXO1_FOXO6_FOXG1_FOXP1&#45;&gt;FOXA2_FOXJ3</title>
<a xlink:title="FOXA2: 0.003||remove1root">
<path fill="none" stroke="#eecbff" stroke-width="3" d="M317.956,-240.607C281.686,-261.548 222.114,-295.941 183.228,-318.392"/>
<polygon fill="#eecbff" stroke="#eecbff" points="181.746,-316.015 176.218,-322.44 184.546,-320.864 181.746,-316.015"/>
</a>
</g>
<!-- JUND -->
<g id="node23" class="node"><title>JUND</title>
<a xlink:href="JUND.svg" xlink:title="Z&#45;value: 0.652||remove17">
<polygon fill="#939dff" stroke="#939dff" stroke-width="2" points="160.025,-36 130.025,-36 118.025,-24 118.025,-12 130.025,-6.39488e-14 160.025,-6.39488e-14 172.025,-12 172.025,-24 160.025,-36"/>
<path fill="#939dff" stroke="#939dff" stroke-width="2" d="M130.025,-36C124.025,-36 118.025,-30 118.025,-24"/>
<path fill="#939dff" stroke="#939dff" stroke-width="2" d="M118.025,-12C118.025,-6 124.025,-6.39488e-14 130.025,-6.39488e-14"/>
<path fill="#939dff" stroke="#939dff" stroke-width="2" d="M160.025,-6.39488e-14C166.025,-6.39488e-14 172.025,-6 172.025,-12"/>
<path fill="#939dff" stroke="#939dff" stroke-width="2" d="M172.025,-24C172.025,-30 166.025,-36 160.025,-36"/>
<polyline fill="none" stroke="white" stroke-width="2" points="160.025,-36 130.025,-36 "/>
<path fill="none" stroke="white" stroke-width="2" d="M130.025,-36C124.025,-36 118.025,-30 118.025,-24"/>
<polyline fill="none" stroke="white" stroke-width="2" points="118.025,-24 118.025,-12 "/>
<path fill="none" stroke="white" stroke-width="2" d="M118.025,-12C118.025,-6 124.025,-6.39488e-14 130.025,-6.39488e-14"/>
<polyline fill="none" stroke="white" stroke-width="2" points="130.025,-6.39488e-14 160.025,-6.39488e-14 "/>
<path fill="none" stroke="white" stroke-width="2" d="M160.025,-6.39488e-14C166.025,-6.39488e-14 172.025,-6 172.025,-12"/>
<polyline fill="none" stroke="white" stroke-width="2" points="172.025,-12 172.025,-24 "/>
<path fill="none" stroke="white" stroke-width="2" d="M172.025,-24C172.025,-30 166.025,-36 160.025,-36"/>
<text text-anchor="middle" x="145.025" y="-15.5" font-family="Helvetica,sans-Serif" font-size="10.00">JUND</text>
</a>
</g>
<!-- FOXD1_FOXO1_FOXO6_FOXG1_FOXP1&#45;&gt;JUND -->
<g id="edge42" class="edge"><title>FOXD1_FOXO1_FOXO6_FOXG1_FOXP1&#45;&gt;JUND</title>
<a xlink:title="JUND: 0.081||remove7root">
<path fill="none" stroke="#ebc2ff" stroke-width="3" d="M331.308,-204.283C294.333,-167.309 210.265,-83.2404 168.907,-41.8821"/>
<polygon fill="#ebc2ff" stroke="#ebc2ff" points="170.762,-39.7776 163.125,-36.1007 166.802,-43.7375 170.762,-39.7776"/>
</a>
</g>
<!-- E2F2_E2F5&#45;&gt;FOXA2_FOXJ3 -->
<g id="edge48" class="edge"><title>E2F2_E2F5&#45;&gt;FOXA2_FOXJ3</title>
<a xlink:title="FOXJ3: 0.019||remove2root">
<path fill="none" stroke="#edc9ff" stroke-width="3" d="M271.976,-303.059C251.019,-306.956 223.779,-312.638 200.105,-319.569 198.559,-320.022 196.995,-320.498 195.42,-320.992"/>
<polygon fill="#edc9ff" stroke="#edc9ff" points="194.224,-318.438 187.502,-323.601 195.976,-323.757 194.224,-318.438"/>
</a>
</g>
<!-- GTF2I&#45;&gt;FOXD1_FOXO1_FOXO6_FOXG1_FOXP1 -->
<g id="edge38" class="edge"><title>GTF2I&#45;&gt;FOXD1_FOXO1_FOXO6_FOXG1_FOXP1</title>
<a xlink:title="FOXP1: 0.123||remove9root">
<path fill="none" stroke="#e9bdff" stroke-width="3" d="M238.54,-322.37C244.582,-308.636 254.269,-289.871 266.809,-276.369 278.129,-264.182 292.747,-253.481 306.534,-244.891"/>
<polygon fill="#e9bdff" stroke="#e9bdff" points="308.247,-247.128 313.647,-240.595 305.351,-242.334 308.247,-247.128"/>
</a>
</g>
<!-- MECP2&#45;&gt;FOXD1_FOXO1_FOXO6_FOXG1_FOXP1 -->
<g id="edge16" class="edge"><title>MECP2&#45;&gt;FOXD1_FOXO1_FOXO6_FOXG1_FOXP1</title>
<a xlink:title="FOXO6: 0.392||FOXO1: 0.090||FOXD1: 0.060||FOXP1: 0.053||FOXG1: 0.028||remove21root">
<path fill="none" stroke="#ff9c9c" stroke-width="3" d="M215.574,-186.553C231.746,-190.886 253.094,-196.606 273.979,-202.202"/>
<polygon fill="#ff9c9c" stroke="#ff9c9c" points="273.497,-204.972 281.949,-204.338 274.947,-199.563 273.497,-204.972"/>
</a>
</g>
<!-- MECP2&#45;&gt;E2F2_E2F5 -->
<g id="edge22" class="edge"><title>MECP2&#45;&gt;E2F2_E2F5</title>
<a xlink:title="E2F2: 0.405||remove22root">
<path fill="none" stroke="#ff9a9a" stroke-width="3" d="M198.364,-197.285C206.486,-210.834 218.734,-229.367 232.289,-243.305 243.415,-254.744 257.191,-265.508 269.826,-274.367"/>
<polygon fill="#ff9a9a" stroke="#ff9a9a" points="268.524,-276.869 276.705,-279.085 271.691,-272.251 268.524,-276.869"/>
</a>
</g>
<!-- MECP2&#45;&gt;GTF2I -->
<g id="edge28" class="edge"><title>MECP2&#45;&gt;GTF2I</title>
<a xlink:title="GTF2I: 0.025||MECP2: 0.417||remove23root">
<path fill="none" stroke="#ffc8c8" stroke-width="3" d="M196.154,-204.954C204.175,-234.89 217.282,-283.804 225.34,-313.877"/>
<path fill="none" stroke="#99a3ff" stroke-width="3" d="M194.222,-205.471C202.244,-235.408 215.35,-284.322 223.408,-314.395"/>
<polygon fill="#99a3ff" stroke="#99a3ff" points="197.871,-204.408 193.096,-197.406 192.462,-205.858 197.871,-204.408"/>
<polygon fill="#ffc8c8" stroke="#ffc8c8" points="221.729,-315.084 226.505,-322.087 227.138,-313.635 221.729,-315.084"/>
</a>
</g>
<!-- MECP2&#45;&gt;FOXA2_FOXJ3 -->
<g id="edge32" class="edge"><title>MECP2&#45;&gt;FOXA2_FOXJ3</title>
<a xlink:title="FOXJ3: 0.564||remove25root">
<path fill="none" stroke="#ff8787" stroke-width="3" d="M183.353,-197.406C175.704,-225.951 160.845,-281.407 152.044,-314.254"/>
<polygon fill="#ff8787" stroke="#ff8787" points="149.311,-313.635 149.945,-322.087 154.72,-315.084 149.311,-313.635"/>
</a>
</g>
<!-- MECP2&#45;&gt;RXRA_NR2F6_NR2C2 -->
<g id="edge34" class="edge"><title>MECP2&#45;&gt;RXRA_NR2F6_NR2C2</title>
<a xlink:title="NR2F6: 0.356||NR2C2: 0.158||RXRA: 0.060||remove19root">
<path fill="none" stroke="#ffa0a0" stroke-width="3" d="M170.042,-197.407C149.623,-217.826 116.412,-251.037 93.9555,-273.494"/>
<polygon fill="#ffa0a0" stroke="#ffa0a0" points="91.8866,-271.603 88.2097,-279.24 95.8465,-275.563 91.8866,-271.603"/>
</a>
</g>
<!-- TCF7L1 -->
<g id="node16" class="node"><title>TCF7L1</title>
<a xlink:href="TCF7L1.svg" xlink:title="Z&#45;value: 0.609||remove27">
<polygon fill="#96a1ff" stroke="#96a1ff" stroke-width="2" points="42,-240.425 12,-240.425 3.19744e-14,-228.425 3.19744e-14,-216.425 12,-204.425 42,-204.425 54,-216.425 54,-228.425 42,-240.425"/>
<path fill="#96a1ff" stroke="#96a1ff" stroke-width="2" d="M12,-240.425C6,-240.425 3.19744e-14,-234.425 3.19744e-14,-228.425"/>
<path fill="#96a1ff" stroke="#96a1ff" stroke-width="2" d="M3.19744e-14,-216.425C3.19744e-14,-210.425 6,-204.425 12,-204.425"/>
<path fill="#96a1ff" stroke="#96a1ff" stroke-width="2" d="M42,-204.425C48,-204.425 54,-210.425 54,-216.425"/>
<path fill="#96a1ff" stroke="#96a1ff" stroke-width="2" d="M54,-228.425C54,-234.425 48,-240.425 42,-240.425"/>
<polyline fill="none" stroke="white" stroke-width="2" points="42,-240.425 12,-240.425 "/>
<path fill="none" stroke="white" stroke-width="2" d="M12,-240.425C6,-240.425 3.19744e-14,-234.425 3.19744e-14,-228.425"/>
<polyline fill="none" stroke="white" stroke-width="2" points="3.19744e-14,-228.425 3.19744e-14,-216.425 "/>
<path fill="none" stroke="white" stroke-width="2" d="M3.19744e-14,-216.425C3.19744e-14,-210.425 6,-204.425 12,-204.425"/>
<polyline fill="none" stroke="white" stroke-width="2" points="12,-204.425 42,-204.425 "/>
<path fill="none" stroke="white" stroke-width="2" d="M42,-204.425C48,-204.425 54,-210.425 54,-216.425"/>
<polyline fill="none" stroke="white" stroke-width="2" points="54,-216.425 54,-228.425 "/>
<path fill="none" stroke="white" stroke-width="2" d="M54,-228.425C54,-234.425 48,-240.425 42,-240.425"/>
<text text-anchor="middle" x="27" y="-219.925" font-family="Helvetica,sans-Serif" font-size="10.00">TCF7L1</text>
</a>
</g>
<!-- MECP2&#45;&gt;TCF7L1 -->
<g id="edge18" class="edge"><title>MECP2&#45;&gt;TCF7L1</title>
<a xlink:title="TCF7L1: 0.739||remove27root">
<path fill="none" stroke="#ff7272" stroke-width="3" d="M160.875,-186.553C133.694,-193.836 91.8881,-205.038 62.2338,-212.984"/>
<polygon fill="#ff7272" stroke="#ff7272" points="61.2169,-210.357 54.2142,-215.133 62.6663,-215.767 61.2169,-210.357"/>
</a>
</g>
<!-- GRHL1 -->
<g id="node18" class="node"><title>GRHL1</title>
<a xlink:href="GRHL1.svg" xlink:title="Z&#45;value: 0.930||remove24">
<polygon fill="#7a87ff" stroke="#7a87ff" stroke-width="2" points="42,-154.025 12,-154.025 0,-142.025 0,-130.025 12,-118.025 42,-118.025 54,-130.025 54,-142.025 42,-154.025"/>
<path fill="#7a87ff" stroke="#7a87ff" stroke-width="2" d="M12,-154.025C6,-154.025 0,-148.025 0,-142.025"/>
<path fill="#7a87ff" stroke="#7a87ff" stroke-width="2" d="M0,-130.025C0,-124.025 6,-118.025 12,-118.025"/>
<path fill="#7a87ff" stroke="#7a87ff" stroke-width="2" d="M42,-118.025C48,-118.025 54,-124.025 54,-130.025"/>
<path fill="#7a87ff" stroke="#7a87ff" stroke-width="2" d="M54,-142.025C54,-148.025 48,-154.025 42,-154.025"/>
<polyline fill="none" stroke="white" stroke-width="2" points="42,-154.025 12,-154.025 "/>
<path fill="none" stroke="white" stroke-width="2" d="M12,-154.025C6,-154.025 0,-148.025 0,-142.025"/>
<polyline fill="none" stroke="white" stroke-width="2" points="0,-142.025 0,-130.025 "/>
<path fill="none" stroke="white" stroke-width="2" d="M0,-130.025C0,-124.025 6,-118.025 12,-118.025"/>
<polyline fill="none" stroke="white" stroke-width="2" points="12,-118.025 42,-118.025 "/>
<path fill="none" stroke="white" stroke-width="2" d="M42,-118.025C48,-118.025 54,-124.025 54,-130.025"/>
<polyline fill="none" stroke="white" stroke-width="2" points="54,-130.025 54,-142.025 "/>
<path fill="none" stroke="white" stroke-width="2" d="M54,-142.025C54,-148.025 48,-154.025 42,-154.025"/>
<text text-anchor="middle" x="27" y="-133.525" font-family="Helvetica,sans-Serif" font-size="10.00">GRHL1</text>
</a>
</g>
<!-- MECP2&#45;&gt;GRHL1 -->
<g id="edge20" class="edge"><title>MECP2&#45;&gt;GRHL1</title>
<a xlink:title="GRHL1: 0.552||remove24root">
<path fill="none" stroke="#ff8989" stroke-width="3" d="M160.875,-171.896C133.694,-164.613 91.8881,-153.411 62.2338,-145.465"/>
<polygon fill="#ff8989" stroke="#ff8989" points="62.6663,-142.683 54.2142,-143.317 61.2169,-148.092 62.6663,-142.683"/>
</a>
</g>
<!-- MBD2 -->
<g id="node21" class="node"><title>MBD2</title>
<a xlink:href="MBD2.svg" xlink:title="Z&#45;value: 0.615||remove26">
<polygon fill="#96a0ff" stroke="#96a0ff" stroke-width="2" points="85.2,-79.2 55.2,-79.2 43.2,-67.2 43.2,-55.2 55.2,-43.2 85.2,-43.2 97.2,-55.2 97.2,-67.2 85.2,-79.2"/>
<path fill="#96a0ff" stroke="#96a0ff" stroke-width="2" d="M55.2,-79.2C49.2,-79.2 43.2,-73.2 43.2,-67.2"/>
<path fill="#96a0ff" stroke="#96a0ff" stroke-width="2" d="M43.2,-55.2C43.2,-49.2 49.2,-43.2 55.2,-43.2"/>
<path fill="#96a0ff" stroke="#96a0ff" stroke-width="2" d="M85.2,-43.2C91.2,-43.2 97.2,-49.2 97.2,-55.2"/>
<path fill="#96a0ff" stroke="#96a0ff" stroke-width="2" d="M97.2,-67.2C97.2,-73.2 91.2,-79.2 85.2,-79.2"/>
<polyline fill="none" stroke="white" stroke-width="2" points="85.2,-79.2 55.2,-79.2 "/>
<path fill="none" stroke="white" stroke-width="2" d="M55.2,-79.2C49.2,-79.2 43.2,-73.2 43.2,-67.2"/>
<polyline fill="none" stroke="white" stroke-width="2" points="43.2,-67.2 43.2,-55.2 "/>
<path fill="none" stroke="white" stroke-width="2" d="M43.2,-55.2C43.2,-49.2 49.2,-43.2 55.2,-43.2"/>
<polyline fill="none" stroke="white" stroke-width="2" points="55.2,-43.2 85.2,-43.2 "/>
<path fill="none" stroke="white" stroke-width="2" d="M85.2,-43.2C91.2,-43.2 97.2,-49.2 97.2,-55.2"/>
<polyline fill="none" stroke="white" stroke-width="2" points="97.2,-55.2 97.2,-67.2 "/>
<path fill="none" stroke="white" stroke-width="2" d="M97.2,-67.2C97.2,-73.2 91.2,-79.2 85.2,-79.2"/>
<text text-anchor="middle" x="70.2" y="-58.7" font-family="Helvetica,sans-Serif" font-size="10.00">MBD2</text>
</a>
</g>
<!-- MECP2&#45;&gt;MBD2 -->
<g id="edge24" class="edge"><title>MECP2&#45;&gt;MBD2</title>
<a xlink:title="MBD2: 0.626||remove26root">
<path fill="none" stroke="#ff8080" stroke-width="3" d="M170.042,-161.042C149.623,-140.623 116.412,-107.412 93.9555,-84.9555"/>
<polygon fill="#ff8080" stroke="#ff8080" points="95.8465,-82.8866 88.2097,-79.2097 91.8866,-86.8465 95.8465,-82.8866"/>
</a>
</g>
<!-- MECP2&#45;&gt;JUND -->
<g id="edge26" class="edge"><title>MECP2&#45;&gt;JUND</title>
<a xlink:title="JUND: 0.333||remove17root">
<path fill="none" stroke="#ffa3a3" stroke-width="3" d="M183.353,-161.043C175.704,-132.498 160.845,-77.042 152.044,-44.1955"/>
<polygon fill="#ffa3a3" stroke="#ffa3a3" points="154.72,-43.3647 149.945,-36.362 149.311,-44.8142 154.72,-43.3647"/>
</a>
</g>
<!-- AHR_ARNT2 -->
<g id="node26" class="node"><title>AHR_ARNT2</title>
<a xlink:href="AHR_ARNT2.svg" xlink:title="Z&#45;value: 1.019||remove18">
<polygon fill="#7280ff" stroke="#7280ff" stroke-width="2" points="257.675,-36 205.175,-36 193.175,-24 193.175,-12 205.175,-0 257.675,-0 269.675,-12 269.675,-24 257.675,-36"/>
<path fill="#7280ff" stroke="#7280ff" stroke-width="2" d="M205.175,-36C199.175,-36 193.175,-30 193.175,-24"/>
<path fill="#7280ff" stroke="#7280ff" stroke-width="2" d="M193.175,-12C193.175,-6 199.175,-0 205.175,-0"/>
<path fill="#7280ff" stroke="#7280ff" stroke-width="2" d="M257.675,-0C263.675,-0 269.675,-6 269.675,-12"/>
<path fill="#7280ff" stroke="#7280ff" stroke-width="2" d="M269.675,-24C269.675,-30 263.675,-36 257.675,-36"/>
<polyline fill="none" stroke="white" stroke-width="2" points="257.675,-36 205.175,-36 "/>
<path fill="none" stroke="white" stroke-width="2" d="M205.175,-36C199.175,-36 193.175,-30 193.175,-24"/>
<polyline fill="none" stroke="white" stroke-width="2" points="193.175,-24 193.175,-12 "/>
<path fill="none" stroke="white" stroke-width="2" d="M193.175,-12C193.175,-6 199.175,-0 205.175,-0"/>
<polyline fill="none" stroke="white" stroke-width="2" points="205.175,-0 257.675,-0 "/>
<path fill="none" stroke="white" stroke-width="2" d="M257.675,-0C263.675,-0 269.675,-6 269.675,-12"/>
<polyline fill="none" stroke="white" stroke-width="2" points="269.675,-12 269.675,-24 "/>
<path fill="none" stroke="white" stroke-width="2" d="M269.675,-24C269.675,-30 263.675,-36 257.675,-36"/>
<text text-anchor="middle" x="231.425" y="-15.5" font-family="Helvetica,sans-Serif" font-size="10.00">AHR_ARNT2</text>
</a>
</g>
<!-- MECP2&#45;&gt;AHR_ARNT2 -->
<g id="edge30" class="edge"><title>MECP2&#45;&gt;AHR_ARNT2</title>
<a xlink:title="ARNT2: 0.349||remove18root">
<path fill="none" stroke="#ffa1a1" stroke-width="3" d="M193.096,-161.043C200.745,-132.498 215.604,-77.042 224.406,-44.1955"/>
<polygon fill="#ffa1a1" stroke="#ffa1a1" points="227.138,-44.8142 226.505,-36.362 221.729,-43.3647 227.138,-44.8142"/>
</a>
</g>
<!-- EPAS1_BCL3 -->
<g id="node30" class="node"><title>EPAS1_BCL3</title>
<a xlink:href="EPAS1_BCL3.svg" xlink:title="Z&#45;value: 0.784||remove28">
<polygon fill="#8793ff" stroke="#8793ff" stroke-width="2" points="333.499,-79.2 278.999,-79.2 266.999,-67.2 266.999,-55.2 278.999,-43.2 333.499,-43.2 345.499,-55.2 345.499,-67.2 333.499,-79.2"/>
<path fill="#8793ff" stroke="#8793ff" stroke-width="2" d="M278.999,-79.2C272.999,-79.2 266.999,-73.2 266.999,-67.2"/>
<path fill="#8793ff" stroke="#8793ff" stroke-width="2" d="M266.999,-55.2C266.999,-49.2 272.999,-43.2 278.999,-43.2"/>
<path fill="#8793ff" stroke="#8793ff" stroke-width="2" d="M333.499,-43.2C339.499,-43.2 345.499,-49.2 345.499,-55.2"/>
<path fill="#8793ff" stroke="#8793ff" stroke-width="2" d="M345.499,-67.2C345.499,-73.2 339.499,-79.2 333.499,-79.2"/>
<polyline fill="none" stroke="white" stroke-width="2" points="333.499,-79.2 278.999,-79.2 "/>
<path fill="none" stroke="white" stroke-width="2" d="M278.999,-79.2C272.999,-79.2 266.999,-73.2 266.999,-67.2"/>
<polyline fill="none" stroke="white" stroke-width="2" points="266.999,-67.2 266.999,-55.2 "/>
<path fill="none" stroke="white" stroke-width="2" d="M266.999,-55.2C266.999,-49.2 272.999,-43.2 278.999,-43.2"/>
<polyline fill="none" stroke="white" stroke-width="2" points="278.999,-43.2 333.499,-43.2 "/>
<path fill="none" stroke="white" stroke-width="2" d="M333.499,-43.2C339.499,-43.2 345.499,-49.2 345.499,-55.2"/>
<polyline fill="none" stroke="white" stroke-width="2" points="345.499,-55.2 345.499,-67.2 "/>
<path fill="none" stroke="white" stroke-width="2" d="M345.499,-67.2C345.499,-73.2 339.499,-79.2 333.499,-79.2"/>
<text text-anchor="middle" x="306.249" y="-58.7" font-family="Helvetica,sans-Serif" font-size="10.00">EPAS1_BCL3</text>
</a>
</g>
<!-- MECP2&#45;&gt;EPAS1_BCL3 -->
<g id="edge36" class="edge"><title>MECP2&#45;&gt;EPAS1_BCL3</title>
<a xlink:title="BCL3: 0.781||EPAS1: 0.037||remove28root">
<path fill="none" stroke="#ff6d6d" stroke-width="3" d="M206.407,-161.042C226.826,-140.623 260.037,-107.412 282.494,-84.9555"/>
<polygon fill="#ff6d6d" stroke="#ff6d6d" points="284.563,-86.8465 288.24,-79.2097 280.603,-82.8866 284.563,-86.8465"/>
</a>
</g>
<!-- RXRA_NR2F6_NR2C2&#45;&gt;RXRA_NR2F6_NR2C2 -->
<g id="edge46" class="edge"><title>RXRA_NR2F6_NR2C2&#45;&gt;RXRA_NR2F6_NR2C2</title>
<a xlink:title="NR2F6: 0.058||NR2C2: 0.022||remove6root">
<path fill="none" stroke="#ecc5ff" stroke-width="3" d="M129.928,-303.551C140.131,-302.689 147.2,-300.589 147.2,-297.249 147.2,-294.901 143.705,-293.165 138.083,-292.042"/>
<polygon fill="#ecc5ff" stroke="#ecc5ff" points="138.229,-289.237 129.928,-290.948 137.484,-294.787 138.229,-289.237"/>
</a>
</g>
<!-- TCF7L1&#45;&gt;AHR_ARNT2 -->
<g id="edge66" class="edge"><title>TCF7L1&#45;&gt;AHR_ARNT2</title>
<a xlink:title="ARNT2: 0.175||remove12root">
<path fill="none" stroke="#e7b6ff" stroke-width="3" d="M45.1413,-204.283C82.116,-167.309 166.184,-83.2404 207.542,-41.8821"/>
<polygon fill="#e7b6ff" stroke="#e7b6ff" points="209.647,-43.7375 213.324,-36.1007 205.687,-39.7776 209.647,-43.7375"/>
</a>
</g>
<!-- GRHL1&#45;&gt;RXRA_NR2F6_NR2C2 -->
<g id="edge64" class="edge"><title>GRHL1&#45;&gt;RXRA_NR2F6_NR2C2</title>
<a xlink:title="NR2F6: 0.939||remove19">
<path fill="none" stroke="#ca5aff" stroke-width="3" d="M37.5618,-154.032C44.5871,-166.854 53.3977,-184.725 58.32,-201.545 64.9972,-224.361 67.9221,-251.309 69.203,-270.786"/>
<polygon fill="#ca5aff" stroke="#ca5aff" points="66.4151,-271.079 69.6705,-278.905 72.0059,-270.757 66.4151,-271.079"/>
</a>
</g>
<!-- MBD2&#45;&gt;RXRA_NR2F6_NR2C2 -->
<g id="edge62" class="edge"><title>MBD2&#45;&gt;RXRA_NR2F6_NR2C2</title>
<a xlink:title="NR2C2: 0.034||remove3root">
<path fill="none" stroke="#edc7ff" stroke-width="3" d="M70.2,-79.3304C70.2,-120.78 70.2,-222.609 70.2,-270.952"/>
<polygon fill="#edc7ff" stroke="#edc7ff" points="67.4001,-271.057 70.2,-279.057 73.0001,-271.057 67.4001,-271.057"/>
</a>
</g>
<!-- MBD2&#45;&gt;GRHL1 -->
<g id="edge60" class="edge"><title>MBD2&#45;&gt;GRHL1</title>
<a xlink:title="GRHL1: 0.000||remove0root">
<path fill="none" stroke="#eecbff" stroke-width="3" d="M59.7425,-79.3129C54.3171,-88.7099 47.6003,-100.344 41.665,-110.624"/>
<polygon fill="#eecbff" stroke="#eecbff" points="39.0861,-109.491 37.5109,-117.819 43.9359,-112.291 39.0861,-109.491"/>
</a>
</g>
<!-- AHR_ARNT2&#45;&gt;SIN3A_CHD1 -->
<g id="edge56" class="edge"><title>AHR_ARNT2&#45;&gt;SIN3A_CHD1</title>
<a xlink:title="SIN3A: 0.085||remove8root">
<path fill="none" stroke="#ebc1ff" stroke-width="3" d="M236.428,-36.2229C240.936,-50.0341 248.68,-68.8325 260.429,-82.08 272.073,-95.2092 287.693,-106.14 302.596,-114.651"/>
<polygon fill="#ebc1ff" stroke="#ebc1ff" points="301.475,-117.23 309.834,-118.634 304.175,-112.324 301.475,-117.23"/>
</a>
</g>
<!-- AHR_ARNT2&#45;&gt;FOXD1_FOXO1_FOXO6_FOXG1_FOXP1 -->
<g id="edge50" class="edge"><title>AHR_ARNT2&#45;&gt;FOXD1_FOXO1_FOXO6_FOXG1_FOXP1</title>
<a xlink:title="FOXP1: 0.463||remove18">
<path fill="none" stroke="#dc93ff" stroke-width="3" d="M239.084,-36.1794C244.678,-49.1325 252.621,-66.8712 260.429,-82.08 277.968,-116.241 283.006,-124.512 303.629,-156.905 312.353,-170.608 322.677,-185.475 331.314,-197.578"/>
<polygon fill="#dc93ff" stroke="#dc93ff" points="329.24,-199.49 336.18,-204.355 333.789,-196.224 329.24,-199.49"/>
</a>
</g>
<!-- AHR_ARNT2&#45;&gt;GTF2I -->
<g id="edge54" class="edge"><title>AHR_ARNT2&#45;&gt;GTF2I</title>
<a xlink:title="GTF2I: 0.035||remove4root">
<path fill="none" stroke="#edc7ff" stroke-width="3" d="M231.425,-36.2601C231.425,-90.4652 231.425,-250.61 231.425,-314.094"/>
<polygon fill="#edc7ff" stroke="#edc7ff" points="228.625,-314.389 231.425,-322.389 234.225,-314.389 228.625,-314.389"/>
</a>
</g>
<!-- AHR_ARNT2&#45;&gt;RXRA_NR2F6_NR2C2 -->
<g id="edge58" class="edge"><title>AHR_ARNT2&#45;&gt;RXRA_NR2F6_NR2C2</title>
<a xlink:title="NR2F6: 0.233||remove14root">
<path fill="none" stroke="#e5afff" stroke-width="3" d="M220.846,-36.3223C192.821,-84.8626 116.625,-216.84 84.6401,-272.238"/>
<polygon fill="#e5afff" stroke="#e5afff" points="82.1829,-270.894 80.6078,-279.222 87.0327,-273.694 82.1829,-270.894"/>
</a>
</g>
<!-- AHR_ARNT2&#45;&gt;MBD2 -->
<g id="edge52" class="edge"><title>AHR_ARNT2&#45;&gt;MBD2</title>
<a xlink:title="MBD2: 0.128||remove10root">
<path fill="none" stroke="#e9bcff" stroke-width="3" d="M193.162,-33.3734C187.568,-35.3667 181.841,-37.2709 176.345,-38.88 153.051,-45.6995 126.306,-51.3099 105.491,-55.2001"/>
<polygon fill="#e9bcff" stroke="#e9bcff" points="104.901,-52.4615 97.5363,-56.6572 105.91,-57.9698 104.901,-52.4615"/>
</a>
</g>
</g>
</svg>
