<?xml version="1.0" encoding="UTF-8" standalone="no"?>
<!DOCTYPE svg PUBLIC "-//W3C//DTD SVG 1.1//EN"
 "http://www.w3.org/Graphics/SVG/1.1/DTD/svg11.dtd">
<!-- Generated by graphviz version 2.28.0 (20110630.0925)
 -->
<!-- Title: _anonymous_0 Pages: 1 -->
<svg width="627pt" height="564pt"
 viewBox="0.00 0.00 626.50 563.50" xmlns="http://www.w3.org/2000/svg" xmlns:xlink="http://www.w3.org/1999/xlink">
<g id="graph1" class="graph" transform="scale(1 1) rotate(0) translate(4 559.501)">
<title>_anonymous_0</title>
<polygon fill="white" stroke="white" points="-4,5 -4,-559.501 623.501,-559.501 623.501,5 -4,5"/>
<!-- ESRRA_ESR2 -->
<g id="node1" class="node"><title>ESRRA_ESR2</title>
<a xlink:href="ESRRA_ESR2.svg" xlink:title="Z&#45;value: 3.814||remove29">
<polygon fill="#3247ff" stroke="#3247ff" stroke-width="2" points="401.601,-555.501 343.101,-555.501 331.101,-543.501 331.101,-531.501 343.101,-519.501 401.601,-519.501 413.601,-531.501 413.601,-543.501 401.601,-555.501"/>
<path fill="#3247ff" stroke="#3247ff" stroke-width="2" d="M343.101,-555.501C337.101,-555.501 331.101,-549.501 331.101,-543.501"/>
<path fill="#3247ff" stroke="#3247ff" stroke-width="2" d="M331.101,-531.501C331.101,-525.501 337.101,-519.501 343.101,-519.501"/>
<path fill="#3247ff" stroke="#3247ff" stroke-width="2" d="M401.601,-519.501C407.601,-519.501 413.601,-525.501 413.601,-531.501"/>
<path fill="#3247ff" stroke="#3247ff" stroke-width="2" d="M413.601,-543.501C413.601,-549.501 407.601,-555.501 401.601,-555.501"/>
<polyline fill="none" stroke="white" stroke-width="2" points="401.601,-555.501 343.101,-555.501 "/>
<path fill="none" stroke="white" stroke-width="2" d="M343.101,-555.501C337.101,-555.501 331.101,-549.501 331.101,-543.501"/>
<polyline fill="none" stroke="white" stroke-width="2" points="331.101,-543.501 331.101,-531.501 "/>
<path fill="none" stroke="white" stroke-width="2" d="M331.101,-531.501C331.101,-525.501 337.101,-519.501 343.101,-519.501"/>
<polyline fill="none" stroke="white" stroke-width="2" points="343.101,-519.501 401.601,-519.501 "/>
<path fill="none" stroke="white" stroke-width="2" d="M401.601,-519.501C407.601,-519.501 413.601,-525.501 413.601,-531.501"/>
<polyline fill="none" stroke="white" stroke-width="2" points="413.601,-531.501 413.601,-543.501 "/>
<path fill="none" stroke="white" stroke-width="2" d="M413.601,-543.501C413.601,-549.501 407.601,-555.501 401.601,-555.501"/>
<text text-anchor="middle" x="372.351" y="-535.001" font-family="Helvetica,sans-Serif" font-size="10.00" fill="white">ESRRA_ESR2</text>
</a>
</g>
<!-- AHR_ARNT2 -->
<g id="node2" class="node"><title>AHR_ARNT2</title>
<a xlink:href="AHR_ARNT2.svg" xlink:title="Z&#45;value: 1.019||remove26">
<polygon fill="#a3acff" stroke="#a3acff" stroke-width="2" points="259.401,-555.501 206.901,-555.501 194.901,-543.501 194.901,-531.501 206.901,-519.501 259.401,-519.501 271.401,-531.501 271.401,-543.501 259.401,-555.501"/>
<path fill="#a3acff" stroke="#a3acff" stroke-width="2" d="M206.901,-555.501C200.901,-555.501 194.901,-549.501 194.901,-543.501"/>
<path fill="#a3acff" stroke="#a3acff" stroke-width="2" d="M194.901,-531.501C194.901,-525.501 200.901,-519.501 206.901,-519.501"/>
<path fill="#a3acff" stroke="#a3acff" stroke-width="2" d="M259.401,-519.501C265.401,-519.501 271.401,-525.501 271.401,-531.501"/>
<path fill="#a3acff" stroke="#a3acff" stroke-width="2" d="M271.401,-543.501C271.401,-549.501 265.401,-555.501 259.401,-555.501"/>
<polyline fill="none" stroke="white" stroke-width="2" points="259.401,-555.501 206.901,-555.501 "/>
<path fill="none" stroke="white" stroke-width="2" d="M206.901,-555.501C200.901,-555.501 194.901,-549.501 194.901,-543.501"/>
<polyline fill="none" stroke="white" stroke-width="2" points="194.901,-543.501 194.901,-531.501 "/>
<path fill="none" stroke="white" stroke-width="2" d="M194.901,-531.501C194.901,-525.501 200.901,-519.501 206.901,-519.501"/>
<polyline fill="none" stroke="white" stroke-width="2" points="206.901,-519.501 259.401,-519.501 "/>
<path fill="none" stroke="white" stroke-width="2" d="M259.401,-519.501C265.401,-519.501 271.401,-525.501 271.401,-531.501"/>
<polyline fill="none" stroke="white" stroke-width="2" points="271.401,-531.501 271.401,-543.501 "/>
<path fill="none" stroke="white" stroke-width="2" d="M271.401,-543.501C271.401,-549.501 265.401,-555.501 259.401,-555.501"/>
<text text-anchor="middle" x="233.151" y="-535.001" font-family="Helvetica,sans-Serif" font-size="10.00">AHR_ARNT2</text>
</a>
</g>
<!-- ESRRA_ESR2&#45;&gt;AHR_ARNT2 -->
<g id="edge2" class="edge"><title>ESRRA_ESR2&#45;&gt;AHR_ARNT2</title>
<a xlink:title="ARNT2: 0.150||AHR: 0.001||ESR2: 0.120||remove25root">
<path fill="none" stroke="#e9baff" stroke-width="3" d="M322.579,-538.501C308.816,-538.501 293.926,-538.501 280.316,-538.501"/>
<path fill="none" stroke="#eabeff" stroke-width="3" d="M322.579,-536.501C308.816,-536.501 293.926,-536.501 280.316,-536.501"/>
<polygon fill="#eabeff" stroke="#eabeff" points="322.586,-540.302 330.586,-537.501 322.586,-534.702 322.586,-540.302"/>
<polygon fill="#e9baff" stroke="#e9baff" points="280.03,-534.702 272.03,-537.501 280.03,-540.302 280.03,-534.702"/>
</a>
</g>
<!-- RBPJ -->
<g id="node4" class="node"><title>RBPJ</title>
<a xlink:href="RBPJ.svg" xlink:title="Z&#45;value: 0.623||remove21">
<polygon fill="#b3baff" stroke="#b3baff" stroke-width="2" points="127.6,-485.901 97.6,-485.901 85.6,-473.901 85.6,-461.901 97.6,-449.901 127.6,-449.901 139.6,-461.901 139.6,-473.901 127.6,-485.901"/>
<path fill="#b3baff" stroke="#b3baff" stroke-width="2" d="M97.6,-485.901C91.6,-485.901 85.6,-479.901 85.6,-473.901"/>
<path fill="#b3baff" stroke="#b3baff" stroke-width="2" d="M85.6,-461.901C85.6,-455.901 91.6,-449.901 97.6,-449.901"/>
<path fill="#b3baff" stroke="#b3baff" stroke-width="2" d="M127.6,-449.901C133.6,-449.901 139.6,-455.901 139.6,-461.901"/>
<path fill="#b3baff" stroke="#b3baff" stroke-width="2" d="M139.6,-473.901C139.6,-479.901 133.6,-485.901 127.6,-485.901"/>
<polyline fill="none" stroke="white" stroke-width="2" points="127.6,-485.901 97.6,-485.901 "/>
<path fill="none" stroke="white" stroke-width="2" d="M97.6,-485.901C91.6,-485.901 85.6,-479.901 85.6,-473.901"/>
<polyline fill="none" stroke="white" stroke-width="2" points="85.6,-473.901 85.6,-461.901 "/>
<path fill="none" stroke="white" stroke-width="2" d="M85.6,-461.901C85.6,-455.901 91.6,-449.901 97.6,-449.901"/>
<polyline fill="none" stroke="white" stroke-width="2" points="97.6,-449.901 127.6,-449.901 "/>
<path fill="none" stroke="white" stroke-width="2" d="M127.6,-449.901C133.6,-449.901 139.6,-455.901 139.6,-461.901"/>
<polyline fill="none" stroke="white" stroke-width="2" points="139.6,-461.901 139.6,-473.901 "/>
<path fill="none" stroke="white" stroke-width="2" d="M139.6,-473.901C139.6,-479.901 133.6,-485.901 127.6,-485.901"/>
<text text-anchor="middle" x="112.6" y="-465.401" font-family="Helvetica,sans-Serif" font-size="10.00">RBPJ</text>
</a>
</g>
<!-- ESRRA_ESR2&#45;&gt;RBPJ -->
<g id="edge4" class="edge"><title>ESRRA_ESR2&#45;&gt;RBPJ</title>
<a xlink:title="RBPJ: 0.102||remove17root">
<path fill="none" stroke="#eac0ff" stroke-width="3" d="M330.905,-526.396C280.266,-512.827 195.47,-490.106 147.834,-477.342"/>
<polygon fill="#eac0ff" stroke="#eac0ff" points="148.406,-474.597 139.954,-475.231 146.956,-480.006 148.406,-474.597"/>
</a>
</g>
<!-- MEF2C -->
<g id="node6" class="node"><title>MEF2C</title>
<a xlink:href="MEF2C.svg" xlink:title="Z&#45;value: 0.467||remove30">
<polygon fill="#ffb9b9" stroke="#ffb9b9" stroke-width="2" points="317.751,-295.751 287.751,-295.751 275.751,-283.751 275.751,-271.751 287.751,-259.751 317.751,-259.751 329.751,-271.751 329.751,-283.751 317.751,-295.751"/>
<path fill="#ffb9b9" stroke="#ffb9b9" stroke-width="2" d="M287.751,-295.751C281.751,-295.751 275.751,-289.751 275.751,-283.751"/>
<path fill="#ffb9b9" stroke="#ffb9b9" stroke-width="2" d="M275.751,-271.751C275.751,-265.751 281.751,-259.751 287.751,-259.751"/>
<path fill="#ffb9b9" stroke="#ffb9b9" stroke-width="2" d="M317.751,-259.751C323.751,-259.751 329.751,-265.751 329.751,-271.751"/>
<path fill="#ffb9b9" stroke="#ffb9b9" stroke-width="2" d="M329.751,-283.751C329.751,-289.751 323.751,-295.751 317.751,-295.751"/>
<polyline fill="none" stroke="white" stroke-width="2" points="317.751,-295.751 287.751,-295.751 "/>
<path fill="none" stroke="white" stroke-width="2" d="M287.751,-295.751C281.751,-295.751 275.751,-289.751 275.751,-283.751"/>
<polyline fill="none" stroke="white" stroke-width="2" points="275.751,-283.751 275.751,-271.751 "/>
<path fill="none" stroke="white" stroke-width="2" d="M275.751,-271.751C275.751,-265.751 281.751,-259.751 287.751,-259.751"/>
<polyline fill="none" stroke="white" stroke-width="2" points="287.751,-259.751 317.751,-259.751 "/>
<path fill="none" stroke="white" stroke-width="2" d="M317.751,-259.751C323.751,-259.751 329.751,-265.751 329.751,-271.751"/>
<polyline fill="none" stroke="white" stroke-width="2" points="329.751,-271.751 329.751,-283.751 "/>
<path fill="none" stroke="white" stroke-width="2" d="M329.751,-283.751C329.751,-289.751 323.751,-295.751 317.751,-295.751"/>
<text text-anchor="middle" x="302.751" y="-275.251" font-family="Helvetica,sans-Serif" font-size="10.00">MEF2C</text>
</a>
</g>
<!-- ESRRA_ESR2&#45;&gt;MEF2C -->
<g id="edge6" class="edge"><title>ESRRA_ESR2&#45;&gt;MEF2C</title>
<a xlink:title="MEF2C: 0.197||remove29root">
<path fill="none" stroke="#b5bcff" stroke-width="3" d="M367.457,-519.236C355.326,-473.966 323.837,-356.446 309.746,-303.857"/>
<polygon fill="#b5bcff" stroke="#b5bcff" points="312.415,-302.998 307.639,-295.996 307.006,-304.448 312.415,-302.998"/>
</a>
</g>
<!-- MAFF_MAFG -->
<g id="node8" class="node"><title>MAFF_MAFG</title>
<a xlink:href="MAFF_MAFG.svg" xlink:title="Z&#45;value: 0.422||remove22">
<polygon fill="#bbc1ff" stroke="#bbc1ff" stroke-width="2" points="588.751,-365.351 536.251,-365.351 524.251,-353.351 524.251,-341.351 536.251,-329.351 588.751,-329.351 600.751,-341.351 600.751,-353.351 588.751,-365.351"/>
<path fill="#bbc1ff" stroke="#bbc1ff" stroke-width="2" d="M536.251,-365.351C530.251,-365.351 524.251,-359.351 524.251,-353.351"/>
<path fill="#bbc1ff" stroke="#bbc1ff" stroke-width="2" d="M524.251,-341.351C524.251,-335.351 530.251,-329.351 536.251,-329.351"/>
<path fill="#bbc1ff" stroke="#bbc1ff" stroke-width="2" d="M588.751,-329.351C594.751,-329.351 600.751,-335.351 600.751,-341.351"/>
<path fill="#bbc1ff" stroke="#bbc1ff" stroke-width="2" d="M600.751,-353.351C600.751,-359.351 594.751,-365.351 588.751,-365.351"/>
<polyline fill="none" stroke="white" stroke-width="2" points="588.751,-365.351 536.251,-365.351 "/>
<path fill="none" stroke="white" stroke-width="2" d="M536.251,-365.351C530.251,-365.351 524.251,-359.351 524.251,-353.351"/>
<polyline fill="none" stroke="white" stroke-width="2" points="524.251,-353.351 524.251,-341.351 "/>
<path fill="none" stroke="white" stroke-width="2" d="M524.251,-341.351C524.251,-335.351 530.251,-329.351 536.251,-329.351"/>
<polyline fill="none" stroke="white" stroke-width="2" points="536.251,-329.351 588.751,-329.351 "/>
<path fill="none" stroke="white" stroke-width="2" d="M588.751,-329.351C594.751,-329.351 600.751,-335.351 600.751,-341.351"/>
<polyline fill="none" stroke="white" stroke-width="2" points="600.751,-341.351 600.751,-353.351 "/>
<path fill="none" stroke="white" stroke-width="2" d="M600.751,-353.351C600.751,-359.351 594.751,-365.351 588.751,-365.351"/>
<text text-anchor="middle" x="562.501" y="-344.851" font-family="Helvetica,sans-Serif" font-size="10.00">MAFF_MAFG</text>
</a>
</g>
<!-- ESRRA_ESR2&#45;&gt;MAFF_MAFG -->
<g id="edge8" class="edge"><title>ESRRA_ESR2&#45;&gt;MAFF_MAFG</title>
<a xlink:title="MAFF: 1.347||remove22">
<path fill="none" stroke="#bd32ff" stroke-width="3" d="M383.078,-519.374C394.865,-500.254 415.016,-469.802 436.641,-447.021 464.738,-417.424 501.866,-389.079 528.504,-370.235"/>
<polygon fill="#bd32ff" stroke="#bd32ff" points="530.435,-372.301 535.38,-365.417 527.221,-367.715 530.435,-372.301"/>
</a>
</g>
<!-- ID4_TCF4_SNAI2 -->
<g id="node10" class="node"><title>ID4_TCF4_SNAI2</title>
<a xlink:href="ID4_TCF4_SNAI2.svg" xlink:title="Z&#45;value: 1.966||remove16">
<polygon fill="#7d8aff" stroke="#7d8aff" stroke-width="2" points="529.151,-485.901 456.651,-485.901 444.651,-473.901 444.651,-461.901 456.651,-449.901 529.151,-449.901 541.151,-461.901 541.151,-473.901 529.151,-485.901"/>
<path fill="#7d8aff" stroke="#7d8aff" stroke-width="2" d="M456.651,-485.901C450.651,-485.901 444.651,-479.901 444.651,-473.901"/>
<path fill="#7d8aff" stroke="#7d8aff" stroke-width="2" d="M444.651,-461.901C444.651,-455.901 450.651,-449.901 456.651,-449.901"/>
<path fill="#7d8aff" stroke="#7d8aff" stroke-width="2" d="M529.151,-449.901C535.151,-449.901 541.151,-455.901 541.151,-461.901"/>
<path fill="#7d8aff" stroke="#7d8aff" stroke-width="2" d="M541.151,-473.901C541.151,-479.901 535.151,-485.901 529.151,-485.901"/>
<polyline fill="none" stroke="white" stroke-width="2" points="529.151,-485.901 456.651,-485.901 "/>
<path fill="none" stroke="white" stroke-width="2" d="M456.651,-485.901C450.651,-485.901 444.651,-479.901 444.651,-473.901"/>
<polyline fill="none" stroke="white" stroke-width="2" points="444.651,-473.901 444.651,-461.901 "/>
<path fill="none" stroke="white" stroke-width="2" d="M444.651,-461.901C444.651,-455.901 450.651,-449.901 456.651,-449.901"/>
<polyline fill="none" stroke="white" stroke-width="2" points="456.651,-449.901 529.151,-449.901 "/>
<path fill="none" stroke="white" stroke-width="2" d="M529.151,-449.901C535.151,-449.901 541.151,-455.901 541.151,-461.901"/>
<polyline fill="none" stroke="white" stroke-width="2" points="541.151,-461.901 541.151,-473.901 "/>
<path fill="none" stroke="white" stroke-width="2" d="M541.151,-473.901C541.151,-479.901 535.151,-485.901 529.151,-485.901"/>
<text text-anchor="middle" x="492.901" y="-465.401" font-family="Helvetica,sans-Serif" font-size="10.00">ID4_TCF4_SNAI2</text>
</a>
</g>
<!-- ESRRA_ESR2&#45;&gt;ID4_TCF4_SNAI2 -->
<g id="edge10" class="edge"><title>ESRRA_ESR2&#45;&gt;ID4_TCF4_SNAI2</title>
<a xlink:title="SNAI2: 0.628||TCF4: 0.188||ESRRA: 0.115||remove16">
<path fill="none" stroke="#d784ff" stroke-width="3" d="M410.539,-514.299C424.482,-506.249 440.201,-497.173 454.11,-489.143"/>
<path fill="none" stroke="#eabeff" stroke-width="3" d="M411.539,-516.031C425.482,-507.981 441.201,-498.905 455.11,-490.875"/>
<polygon fill="#eabeff" stroke="#eabeff" points="409.238,-512.972 403.709,-519.397 412.038,-517.821 409.238,-512.972"/>
<polygon fill="#d784ff" stroke="#d784ff" points="456.172,-492.341 461.7,-485.916 453.372,-487.491 456.172,-492.341"/>
</a>
</g>
<!-- GATA1_GATA4 -->
<g id="node12" class="node"><title>GATA1_GATA4</title>
<a xlink:href="GATA1_GATA4.svg" xlink:title="Z&#45;value: 1.000||remove28">
<polygon fill="#a3acff" stroke="#a3acff" stroke-width="2" points="74,-365.351 12,-365.351 -5.68434e-14,-353.351 -5.68434e-14,-341.351 12,-329.351 74,-329.351 86,-341.351 86,-353.351 74,-365.351"/>
<path fill="#a3acff" stroke="#a3acff" stroke-width="2" d="M12,-365.351C6,-365.351 -5.68434e-14,-359.351 -5.68434e-14,-353.351"/>
<path fill="#a3acff" stroke="#a3acff" stroke-width="2" d="M-5.68434e-14,-341.351C-5.68434e-14,-335.351 6,-329.351 12,-329.351"/>
<path fill="#a3acff" stroke="#a3acff" stroke-width="2" d="M74,-329.351C80,-329.351 86,-335.351 86,-341.351"/>
<path fill="#a3acff" stroke="#a3acff" stroke-width="2" d="M86,-353.351C86,-359.351 80,-365.351 74,-365.351"/>
<polyline fill="none" stroke="white" stroke-width="2" points="74,-365.351 12,-365.351 "/>
<path fill="none" stroke="white" stroke-width="2" d="M12,-365.351C6,-365.351 -5.68434e-14,-359.351 -5.68434e-14,-353.351"/>
<polyline fill="none" stroke="white" stroke-width="2" points="-5.68434e-14,-353.351 -5.68434e-14,-341.351 "/>
<path fill="none" stroke="white" stroke-width="2" d="M-5.68434e-14,-341.351C-5.68434e-14,-335.351 6,-329.351 12,-329.351"/>
<polyline fill="none" stroke="white" stroke-width="2" points="12,-329.351 74,-329.351 "/>
<path fill="none" stroke="white" stroke-width="2" d="M74,-329.351C80,-329.351 86,-335.351 86,-341.351"/>
<polyline fill="none" stroke="white" stroke-width="2" points="86,-341.351 86,-353.351 "/>
<path fill="none" stroke="white" stroke-width="2" d="M86,-353.351C86,-359.351 80,-365.351 74,-365.351"/>
<text text-anchor="middle" x="43" y="-344.851" font-family="Helvetica,sans-Serif" font-size="10.00">GATA1_GATA4</text>
</a>
</g>
<!-- ESRRA_ESR2&#45;&gt;GATA1_GATA4 -->
<g id="edge12" class="edge"><title>ESRRA_ESR2&#45;&gt;GATA1_GATA4</title>
<a xlink:title="GATA4: 0.064||remove8root">
<path fill="none" stroke="#ecc4ff" stroke-width="3" d="M341.069,-519.441C280.617,-484.539 147.899,-407.914 81.8821,-369.799"/>
<polygon fill="#ecc4ff" stroke="#ecc4ff" points="82.8827,-367.144 74.5545,-365.569 80.0827,-371.994 82.8827,-367.144"/>
</a>
</g>
<!-- AHR_ARNT2&#45;&gt;RBPJ -->
<g id="edge16" class="edge"><title>AHR_ARNT2&#45;&gt;RBPJ</title>
<a xlink:title="RBPJ: 0.090||remove13root">
<path fill="none" stroke="#ebc1ff" stroke-width="3" d="M201.792,-519.397C184.944,-509.67 164.147,-497.662 146.873,-487.689"/>
<polygon fill="#ebc1ff" stroke="#ebc1ff" points="148.036,-485.127 139.708,-483.552 145.236,-489.977 148.036,-485.127"/>
</a>
</g>
<!-- AHR_ARNT2&#45;&gt;MEF2C -->
<g id="edge18" class="edge"><title>AHR_ARNT2&#45;&gt;MEF2C</title>
<a xlink:title="MEF2C: 0.152||remove26root">
<path fill="none" stroke="#bac1ff" stroke-width="3" d="M238.045,-519.236C250.175,-473.966 281.664,-356.446 295.755,-303.857"/>
<polygon fill="#bac1ff" stroke="#bac1ff" points="298.496,-304.448 297.862,-295.996 293.087,-302.998 298.496,-304.448"/>
</a>
</g>
<!-- ETV4_ETS2 -->
<g id="node14" class="node"><title>ETV4_ETS2</title>
<a xlink:href="ETV4_ETS2.svg" xlink:title="Z&#45;value: 0.872||remove20">
<polygon fill="#a9b1ff" stroke="#a9b1ff" stroke-width="2" points="66.25,-226.151 19.75,-226.151 7.75,-214.151 7.75,-202.151 19.75,-190.151 66.25,-190.151 78.25,-202.151 78.25,-214.151 66.25,-226.151"/>
<path fill="#a9b1ff" stroke="#a9b1ff" stroke-width="2" d="M19.75,-226.151C13.75,-226.151 7.75,-220.151 7.75,-214.151"/>
<path fill="#a9b1ff" stroke="#a9b1ff" stroke-width="2" d="M7.75,-202.151C7.75,-196.151 13.75,-190.151 19.75,-190.151"/>
<path fill="#a9b1ff" stroke="#a9b1ff" stroke-width="2" d="M66.25,-190.151C72.25,-190.151 78.25,-196.151 78.25,-202.151"/>
<path fill="#a9b1ff" stroke="#a9b1ff" stroke-width="2" d="M78.25,-214.151C78.25,-220.151 72.25,-226.151 66.25,-226.151"/>
<polyline fill="none" stroke="white" stroke-width="2" points="66.25,-226.151 19.75,-226.151 "/>
<path fill="none" stroke="white" stroke-width="2" d="M19.75,-226.151C13.75,-226.151 7.75,-220.151 7.75,-214.151"/>
<polyline fill="none" stroke="white" stroke-width="2" points="7.75,-214.151 7.75,-202.151 "/>
<path fill="none" stroke="white" stroke-width="2" d="M7.75,-202.151C7.75,-196.151 13.75,-190.151 19.75,-190.151"/>
<polyline fill="none" stroke="white" stroke-width="2" points="19.75,-190.151 66.25,-190.151 "/>
<path fill="none" stroke="white" stroke-width="2" d="M66.25,-190.151C72.25,-190.151 78.25,-196.151 78.25,-202.151"/>
<polyline fill="none" stroke="white" stroke-width="2" points="78.25,-202.151 78.25,-214.151 "/>
<path fill="none" stroke="white" stroke-width="2" d="M78.25,-214.151C78.25,-220.151 72.25,-226.151 66.25,-226.151"/>
<text text-anchor="middle" x="43" y="-205.651" font-family="Helvetica,sans-Serif" font-size="10.00">ETV4_ETS2</text>
</a>
</g>
<!-- AHR_ARNT2&#45;&gt;ETV4_ETS2 -->
<g id="edge14" class="edge"><title>AHR_ARNT2&#45;&gt;ETV4_ETS2</title>
<a xlink:title="ETV4: 0.106||ETS2: 0.013||remove19root">
<path fill="none" stroke="#eabfff" stroke-width="3" d="M222.657,-519.325C190.71,-463.992 94.5829,-297.495 57.6624,-233.547"/>
<polygon fill="#eabfff" stroke="#eabfff" points="59.8867,-231.799 53.4618,-226.271 55.0369,-234.599 59.8867,-231.799"/>
</a>
</g>
<!-- RBPJ&#45;&gt;MEF2C -->
<g id="edge30" class="edge"><title>RBPJ&#45;&gt;MEF2C</title>
<a xlink:title="MEF2C: 0.108||remove21root">
<path fill="none" stroke="#bfc6ff" stroke-width="3" d="M130.832,-449.669C165.332,-415.169 240.152,-340.349 278.709,-301.793"/>
<polygon fill="#bfc6ff" stroke="#bfc6ff" points="280.897,-303.565 284.573,-295.928 276.937,-299.605 280.897,-303.565"/>
</a>
</g>
<!-- MEF2C&#45;&gt;MAFF_MAFG -->
<g id="edge32" class="edge"><title>MEF2C&#45;&gt;MAFF_MAFG</title>
<a xlink:title="MAFG: 0.110||remove22root">
<path fill="none" stroke="#ffbfbf" stroke-width="3" d="M330.058,-285.068C374.254,-296.91 461.96,-320.411 516.095,-334.916"/>
<polygon fill="#ffbfbf" stroke="#ffbfbf" points="515.377,-337.622 523.829,-336.988 516.826,-332.213 515.377,-337.622"/>
</a>
</g>
<!-- MEF2C&#45;&gt;ID4_TCF4_SNAI2 -->
<g id="edge34" class="edge"><title>MEF2C&#45;&gt;ID4_TCF4_SNAI2</title>
<a xlink:title="SNAI2: 0.101||remove16root">
<path fill="none" stroke="#ffc0c0" stroke-width="3" d="M320.983,-295.983C355.483,-330.483 430.303,-405.303 468.859,-443.859"/>
<polygon fill="#ffc0c0" stroke="#ffc0c0" points="467.087,-446.047 474.724,-449.724 471.047,-442.087 467.087,-446.047"/>
</a>
</g>
<!-- MAFF_MAFG&#45;&gt;MAFF_MAFG -->
<g id="edge36" class="edge"><title>MAFF_MAFG&#45;&gt;MAFF_MAFG</title>
<a xlink:title="MAFG: 0.159||remove22">
<path fill="none" stroke="#e8b9ff" stroke-width="3" d="M600.977,-354.031C610.968,-353.621 618.501,-351.394 618.501,-347.351 618.501,-344.508 614.777,-342.563 609.092,-341.516"/>
<polygon fill="#e8b9ff" stroke="#e8b9ff" points="609.224,-338.715 600.977,-340.67 608.643,-344.285 609.224,-338.715"/>
</a>
</g>
<!-- ID4_TCF4_SNAI2&#45;&gt;MAFF_MAFG -->
<g id="edge24" class="edge"><title>ID4_TCF4_SNAI2&#45;&gt;MAFF_MAFG</title>
<a xlink:title="MAFF: 0.577||TCF4: 0.038||remove16">
<path fill="none" stroke="#d98aff" stroke-width="3" d="M506.548,-442.265C518.409,-421.721 535.102,-392.809 546.997,-372.206"/>
<path fill="none" stroke="#edc7ff" stroke-width="3" d="M508.28,-443.265C520.141,-422.721 536.834,-393.809 548.729,-373.206"/>
<polygon fill="#edc7ff" stroke="#edc7ff" points="504.896,-441.526 503.321,-449.854 509.746,-444.326 504.896,-441.526"/>
<polygon fill="#d98aff" stroke="#d98aff" points="550.435,-373.85 552.01,-365.522 545.586,-371.05 550.435,-373.85"/>
</a>
</g>
<!-- ID4_TCF4_SNAI2&#45;&gt;ID4_TCF4_SNAI2 -->
<g id="edge26" class="edge"><title>ID4_TCF4_SNAI2&#45;&gt;ID4_TCF4_SNAI2</title>
<a xlink:title="SNAI2: 0.300||TCF4: 0.041||remove16">
<path fill="none" stroke="#e3a9ff" stroke-width="3" d="M541.249,-474.434C551.499,-473.77 558.901,-471.593 558.901,-467.901 558.901,-465.306 555.242,-463.459 549.506,-462.361"/>
<polygon fill="#e3a9ff" stroke="#e3a9ff" points="549.526,-459.543 541.249,-461.369 548.859,-465.103 549.526,-459.543"/>
</a>
</g>
<!-- ID4_TCF4_SNAI2&#45;&gt;GATA1_GATA4 -->
<g id="edge28" class="edge"><title>ID4_TCF4_SNAI2&#45;&gt;GATA1_GATA4</title>
<a xlink:title="GATA1: 0.023||remove3root">
<path fill="none" stroke="#edc9ff" stroke-width="3" d="M444.327,-454.886C358.615,-431.92 181.353,-384.422 93.9689,-361.008"/>
<polygon fill="#edc9ff" stroke="#edc9ff" points="94.5053,-358.253 86.0532,-358.887 93.0559,-363.662 94.5053,-358.253"/>
</a>
</g>
<!-- ID4_TCF4_SNAI2&#45;&gt;ETV4_ETS2 -->
<g id="edge22" class="edge"><title>ID4_TCF4_SNAI2&#45;&gt;ETV4_ETS2</title>
<a xlink:title="ETV4: 0.044||ETS2: 0.040||TCF4: 0.133||SNAI2: 0.105||remove16">
<path fill="none" stroke="#edc6ff" stroke-width="3" d="M454.055,-446.628C369.143,-397.604 166.056,-280.352 81.0009,-231.245"/>
<path fill="none" stroke="#e9bcff" stroke-width="3" d="M455.055,-444.896C370.143,-395.872 167.056,-278.62 82.0009,-229.513"/>
<polygon fill="#e9bcff" stroke="#e9bcff" points="453.294,-448.267 461.622,-449.843 456.094,-443.418 453.294,-448.267"/>
<polygon fill="#edc6ff" stroke="#edc6ff" points="82.6988,-227.838 74.3706,-226.263 79.8988,-232.687 82.6988,-227.838"/>
</a>
</g>
<!-- GATA1_GATA4&#45;&gt;MEF2C -->
<g id="edge20" class="edge"><title>GATA1_GATA4&#45;&gt;MEF2C</title>
<a xlink:title="MEF2C: 0.157||remove28root">
<path fill="none" stroke="#bac1ff" stroke-width="3" d="M86.1841,-335.78C137.05,-322.15 220.568,-299.772 267.64,-287.159"/>
<polygon fill="#bac1ff" stroke="#bac1ff" points="268.427,-289.847 275.43,-285.071 266.978,-284.437 268.427,-289.847"/>
</a>
</g>
<!-- ETV4_ETS2&#45;&gt;MEF2C -->
<g id="edge38" class="edge"><title>ETV4_ETS2&#45;&gt;MEF2C</title>
<a xlink:title="MEF2C: 0.107||remove20root">
<path fill="none" stroke="#bfc6ff" stroke-width="3" d="M78.3015,-217.61C127.97,-230.918 217.943,-255.026 267.554,-268.32"/>
<polygon fill="#bfc6ff" stroke="#bfc6ff" points="266.998,-271.07 275.45,-270.436 268.448,-265.66 266.998,-271.07"/>
</a>
</g>
<!-- ETV4_ETS2&#45;&gt;GATA1_GATA4 -->
<g id="edge40" class="edge"><title>ETV4_ETS2&#45;&gt;GATA1_GATA4</title>
<a xlink:title="GATA4: 0.001||remove0root">
<path fill="none" stroke="#eecbff" stroke-width="3" d="M43,-226.349C43,-250.525 43,-293.398 43,-321.082"/>
<polygon fill="#eecbff" stroke="#eecbff" points="40.2001,-321.148 43,-329.148 45.8001,-321.148 40.2001,-321.148"/>
</a>
</g>
<!-- ZEB1 -->
<g id="node29" class="node"><title>ZEB1</title>
<a xlink:href="ZEB1.svg" xlink:title="Z&#45;value: 1.478||remove24">
<polygon fill="#909bff" stroke="#909bff" stroke-width="2" points="127.6,-105.6 97.6,-105.6 85.6,-93.6 85.6,-81.6 97.6,-69.6 127.6,-69.6 139.6,-81.6 139.6,-93.6 127.6,-105.6"/>
<path fill="#909bff" stroke="#909bff" stroke-width="2" d="M97.6,-105.6C91.6,-105.6 85.6,-99.6 85.6,-93.6"/>
<path fill="#909bff" stroke="#909bff" stroke-width="2" d="M85.6,-81.6C85.6,-75.6 91.6,-69.6 97.6,-69.6"/>
<path fill="#909bff" stroke="#909bff" stroke-width="2" d="M127.6,-69.6C133.6,-69.6 139.6,-75.6 139.6,-81.6"/>
<path fill="#909bff" stroke="#909bff" stroke-width="2" d="M139.6,-93.6C139.6,-99.6 133.6,-105.6 127.6,-105.6"/>
<polyline fill="none" stroke="white" stroke-width="2" points="127.6,-105.6 97.6,-105.6 "/>
<path fill="none" stroke="white" stroke-width="2" d="M97.6,-105.6C91.6,-105.6 85.6,-99.6 85.6,-93.6"/>
<polyline fill="none" stroke="white" stroke-width="2" points="85.6,-93.6 85.6,-81.6 "/>
<path fill="none" stroke="white" stroke-width="2" d="M85.6,-81.6C85.6,-75.6 91.6,-69.6 97.6,-69.6"/>
<polyline fill="none" stroke="white" stroke-width="2" points="97.6,-69.6 127.6,-69.6 "/>
<path fill="none" stroke="white" stroke-width="2" d="M127.6,-69.6C133.6,-69.6 139.6,-75.6 139.6,-81.6"/>
<polyline fill="none" stroke="white" stroke-width="2" points="139.6,-81.6 139.6,-93.6 "/>
<path fill="none" stroke="white" stroke-width="2" d="M139.6,-93.6C139.6,-99.6 133.6,-105.6 127.6,-105.6"/>
<text text-anchor="middle" x="112.6" y="-85.1" font-family="Helvetica,sans-Serif" font-size="10.00">ZEB1</text>
</a>
</g>
<!-- ZEB1&#45;&gt;MEF2C -->
<g id="edge50" class="edge"><title>ZEB1&#45;&gt;MEF2C</title>
<a xlink:title="MEF2C: 0.112||remove24root">
<path fill="none" stroke="#bfc5ff" stroke-width="3" d="M130.832,-105.832C165.332,-140.332 240.152,-215.152 278.709,-253.709"/>
<polygon fill="#bfc5ff" stroke="#bfc5ff" points="276.937,-255.897 284.573,-259.573 280.897,-251.937 276.937,-255.897"/>
</a>
</g>
<!-- ZEB1&#45;&gt;ID4_TCF4_SNAI2 -->
<g id="edge52" class="edge"><title>ZEB1&#45;&gt;ID4_TCF4_SNAI2</title>
<a xlink:title="TCF4: 0.228||SNAI2: 0.103||remove16">
<path fill="none" stroke="#e6b2ff" stroke-width="3" d="M123.88,-105.845C148.041,-144.111 207.792,-234.519 271.431,-298.631 330.775,-358.415 411.808,-415.157 457.6,-445.354"/>
<polygon fill="#e6b2ff" stroke="#e6b2ff" points="456.14,-447.746 464.366,-449.792 459.212,-443.063 456.14,-447.746"/>
</a>
</g>
<!-- ZEB1&#45;&gt;ETV4_ETS2 -->
<g id="edge44" class="edge"><title>ZEB1&#45;&gt;ETV4_ETS2</title>
<a xlink:title="ETV4: 0.119||ETS2: 0.058||remove20">
<path fill="none" stroke="#eabeff" stroke-width="3" d="M102.18,-105.648C90.3405,-126.155 70.9346,-159.767 57.5926,-182.876"/>
<polygon fill="#eabeff" stroke="#eabeff" points="55.0662,-181.651 53.4911,-189.98 59.916,-184.452 55.0662,-181.651"/>
</a>
</g>
<!-- ZEB1&#45;&gt;ZEB1 -->
<g id="edge42" class="edge"><title>ZEB1&#45;&gt;ZEB1</title>
<a xlink:title="ZEB1: 0.449||remove24">
<path fill="none" stroke="#de99ff" stroke-width="3" d="M139.841,-94.3434C149.624,-94.4884 157.6,-92.2406 157.6,-87.6 157.6,-84.3371 153.657,-82.2571 147.915,-81.3601"/>
<polygon fill="#de99ff" stroke="#de99ff" points="148,-78.5601 139.841,-80.8566 147.651,-84.1492 148,-78.5601"/>
</a>
</g>
<!-- NOTO_VSX2_DLX2_DLX6_NKX6&#45;1 -->
<g id="node32" class="node"><title>NOTO_VSX2_DLX2_DLX6_NKX6&#45;1</title>
<a xlink:href="NOTO_VSX2_DLX2_DLX6_NKX6-1.svg" xlink:title="Z&#45;value: 0.431||remove23">
<polygon fill="#bac1ff" stroke="#bac1ff" stroke-width="2" points="308.651,-36 157.651,-36 145.651,-24 145.651,-12 157.651,-9.59233e-14 308.651,-9.59233e-14 320.651,-12 320.651,-24 308.651,-36"/>
<path fill="#bac1ff" stroke="#bac1ff" stroke-width="2" d="M157.651,-36C151.651,-36 145.651,-30 145.651,-24"/>
<path fill="#bac1ff" stroke="#bac1ff" stroke-width="2" d="M145.651,-12C145.651,-6 151.651,-9.59233e-14 157.651,-9.59233e-14"/>
<path fill="#bac1ff" stroke="#bac1ff" stroke-width="2" d="M308.651,-9.59233e-14C314.651,-9.59233e-14 320.651,-6 320.651,-12"/>
<path fill="#bac1ff" stroke="#bac1ff" stroke-width="2" d="M320.651,-24C320.651,-30 314.651,-36 308.651,-36"/>
<polyline fill="none" stroke="white" stroke-width="2" points="308.651,-36 157.651,-36 "/>
<path fill="none" stroke="white" stroke-width="2" d="M157.651,-36C151.651,-36 145.651,-30 145.651,-24"/>
<polyline fill="none" stroke="white" stroke-width="2" points="145.651,-24 145.651,-12 "/>
<path fill="none" stroke="white" stroke-width="2" d="M145.651,-12C145.651,-6 151.651,-9.59233e-14 157.651,-9.59233e-14"/>
<polyline fill="none" stroke="white" stroke-width="2" points="157.651,-9.59233e-14 308.651,-9.59233e-14 "/>
<path fill="none" stroke="white" stroke-width="2" d="M308.651,-9.59233e-14C314.651,-9.59233e-14 320.651,-6 320.651,-12"/>
<polyline fill="none" stroke="white" stroke-width="2" points="320.651,-12 320.651,-24 "/>
<path fill="none" stroke="white" stroke-width="2" d="M320.651,-24C320.651,-30 314.651,-36 308.651,-36"/>
<text text-anchor="middle" x="233.151" y="-15.5" font-family="Helvetica,sans-Serif" font-size="10.00">NOTO_VSX2_DLX2_DLX6_NKX6&#45;1</text>
</a>
</g>
<!-- ZEB1&#45;&gt;NOTO_VSX2_DLX2_DLX6_NKX6&#45;1 -->
<g id="edge46" class="edge"><title>ZEB1&#45;&gt;NOTO_VSX2_DLX2_DLX6_NKX6&#45;1</title>
<a xlink:title="DLX2: 0.124||DLX6: 0.089||remove23">
<path fill="none" stroke="#eabdff" stroke-width="3" d="M139.654,-71.9804C155.955,-62.5688 176.971,-50.4351 194.948,-40.0562"/>
<polygon fill="#eabdff" stroke="#eabdff" points="196.4,-42.4512 201.928,-36.0263 193.6,-37.6014 196.4,-42.4512"/>
</a>
</g>
<!-- BARHL1 -->
<g id="node34" class="node"><title>BARHL1</title>
<a xlink:href="BARHL1.svg" xlink:title="Z&#45;value: 1.014||remove14">
<polygon fill="#a3acff" stroke="#a3acff" stroke-width="2" points="387.851,-36 356.851,-36 344.851,-24 344.851,-12 356.851,-0 387.851,-0 399.851,-12 399.851,-24 387.851,-36"/>
<path fill="#a3acff" stroke="#a3acff" stroke-width="2" d="M356.851,-36C350.851,-36 344.851,-30 344.851,-24"/>
<path fill="#a3acff" stroke="#a3acff" stroke-width="2" d="M344.851,-12C344.851,-6 350.851,-0 356.851,-0"/>
<path fill="#a3acff" stroke="#a3acff" stroke-width="2" d="M387.851,-0C393.851,-0 399.851,-6 399.851,-12"/>
<path fill="#a3acff" stroke="#a3acff" stroke-width="2" d="M399.851,-24C399.851,-30 393.851,-36 387.851,-36"/>
<polyline fill="none" stroke="white" stroke-width="2" points="387.851,-36 356.851,-36 "/>
<path fill="none" stroke="white" stroke-width="2" d="M356.851,-36C350.851,-36 344.851,-30 344.851,-24"/>
<polyline fill="none" stroke="white" stroke-width="2" points="344.851,-24 344.851,-12 "/>
<path fill="none" stroke="white" stroke-width="2" d="M344.851,-12C344.851,-6 350.851,-0 356.851,-0"/>
<polyline fill="none" stroke="white" stroke-width="2" points="356.851,-0 387.851,-0 "/>
<path fill="none" stroke="white" stroke-width="2" d="M387.851,-0C393.851,-0 399.851,-6 399.851,-12"/>
<polyline fill="none" stroke="white" stroke-width="2" points="399.851,-12 399.851,-24 "/>
<path fill="none" stroke="white" stroke-width="2" d="M399.851,-24C399.851,-30 393.851,-36 387.851,-36"/>
<text text-anchor="middle" x="372.351" y="-15.5" font-family="Helvetica,sans-Serif" font-size="10.00">BARHL1</text>
</a>
</g>
<!-- ZEB1&#45;&gt;BARHL1 -->
<g id="edge48" class="edge"><title>ZEB1&#45;&gt;BARHL1</title>
<a xlink:title="BARHL1: 0.005||remove1root">
<path fill="none" stroke="#eecbff" stroke-width="3" d="M139.729,-84.3086C182.414,-78.5494 267.382,-64.7221 335.231,-38.88 335.684,-38.7073 336.139,-38.5297 336.594,-38.3476"/>
<polygon fill="#eecbff" stroke="#eecbff" points="337.812,-40.8704 343.984,-35.0611 335.537,-35.7536 337.812,-40.8704"/>
</a>
</g>
<!-- NOTO_VSX2_DLX2_DLX6_NKX6&#45;1&#45;&gt;RBPJ -->
<g id="edge58" class="edge"><title>NOTO_VSX2_DLX2_DLX6_NKX6&#45;1&#45;&gt;RBPJ</title>
<a xlink:title="RBPJ: 0.105||remove18root">
<path fill="none" stroke="#eac0ff" stroke-width="3" d="M228.276,-36.1939C209.495,-106.284 141.779,-359.005 119.65,-441.589"/>
<polygon fill="#eac0ff" stroke="#eac0ff" points="116.902,-441.029 117.536,-449.481 122.311,-442.479 116.902,-441.029"/>
</a>
</g>
<!-- NOTO_VSX2_DLX2_DLX6_NKX6&#45;1&#45;&gt;MEF2C -->
<g id="edge60" class="edge"><title>NOTO_VSX2_DLX2_DLX6_NKX6&#45;1&#45;&gt;MEF2C</title>
<a xlink:title="MEF2C: 0.110||remove23root">
<path fill="none" stroke="#bfc5ff" stroke-width="3" d="M238.045,-36.2652C250.175,-81.5357 281.664,-199.055 295.755,-251.644"/>
<polygon fill="#bfc5ff" stroke="#bfc5ff" points="293.087,-252.503 297.862,-259.506 298.496,-251.054 293.087,-252.503"/>
</a>
</g>
<!-- NOTO_VSX2_DLX2_DLX6_NKX6&#45;1&#45;&gt;ID4_TCF4_SNAI2 -->
<g id="edge62" class="edge"><title>NOTO_VSX2_DLX2_DLX6_NKX6&#45;1&#45;&gt;ID4_TCF4_SNAI2</title>
<a xlink:title="SNAI2: 0.077||TCF4: 0.016||remove10root">
<path fill="none" stroke="#ebc3ff" stroke-width="3" d="M243.655,-36.1939C284.203,-106.426 430.62,-360.026 477.998,-442.087"/>
<polygon fill="#ebc3ff" stroke="#ebc3ff" points="475.842,-443.953 482.267,-449.481 480.691,-441.153 475.842,-443.953"/>
</a>
</g>
<!-- BARHL1&#45;&gt;MEF2C -->
<g id="edge54" class="edge"><title>BARHL1&#45;&gt;MEF2C</title>
<a xlink:title="MEF2C: 0.099||remove14root">
<path fill="none" stroke="#c0c7ff" stroke-width="3" d="M367.457,-36.2652C355.326,-81.5357 323.837,-199.055 309.746,-251.644"/>
<polygon fill="#c0c7ff" stroke="#c0c7ff" points="307.006,-251.054 307.639,-259.506 312.415,-252.503 307.006,-251.054"/>
</a>
</g>
<!-- BARHL1&#45;&gt;ID4_TCF4_SNAI2 -->
<g id="edge56" class="edge"><title>BARHL1&#45;&gt;ID4_TCF4_SNAI2</title>
<a xlink:title="TCF4: 0.029||remove6root">
<path fill="none" stroke="#edc8ff" stroke-width="3" d="M377.226,-36.1939C396.006,-106.284 463.723,-359.005 485.851,-441.589"/>
<polygon fill="#edc8ff" stroke="#edc8ff" points="483.191,-442.479 487.966,-449.481 488.6,-441.029 483.191,-442.479"/>
</a>
</g>
<!-- ELF2_GABPA_ELF5 -->
<g id="node43" class="node"><title>ELF2_GABPA_ELF5</title>
<a xlink:href="ELF2_GABPA_ELF5.svg" xlink:title="Z&#45;value: 1.088||remove27">
<polygon fill="#a0a9ff" stroke="#a0a9ff" stroke-width="2" points="534.901,-105.6 450.901,-105.6 438.901,-93.6 438.901,-81.6 450.901,-69.6 534.901,-69.6 546.901,-81.6 546.901,-93.6 534.901,-105.6"/>
<path fill="#a0a9ff" stroke="#a0a9ff" stroke-width="2" d="M450.901,-105.6C444.901,-105.6 438.901,-99.6 438.901,-93.6"/>
<path fill="#a0a9ff" stroke="#a0a9ff" stroke-width="2" d="M438.901,-81.6C438.901,-75.6 444.901,-69.6 450.901,-69.6"/>
<path fill="#a0a9ff" stroke="#a0a9ff" stroke-width="2" d="M534.901,-69.6C540.901,-69.6 546.901,-75.6 546.901,-81.6"/>
<path fill="#a0a9ff" stroke="#a0a9ff" stroke-width="2" d="M546.901,-93.6C546.901,-99.6 540.901,-105.6 534.901,-105.6"/>
<polyline fill="none" stroke="white" stroke-width="2" points="534.901,-105.6 450.901,-105.6 "/>
<path fill="none" stroke="white" stroke-width="2" d="M450.901,-105.6C444.901,-105.6 438.901,-99.6 438.901,-93.6"/>
<polyline fill="none" stroke="white" stroke-width="2" points="438.901,-93.6 438.901,-81.6 "/>
<path fill="none" stroke="white" stroke-width="2" d="M438.901,-81.6C438.901,-75.6 444.901,-69.6 450.901,-69.6"/>
<polyline fill="none" stroke="white" stroke-width="2" points="450.901,-69.6 534.901,-69.6 "/>
<path fill="none" stroke="white" stroke-width="2" d="M534.901,-69.6C540.901,-69.6 546.901,-75.6 546.901,-81.6"/>
<polyline fill="none" stroke="white" stroke-width="2" points="546.901,-81.6 546.901,-93.6 "/>
<path fill="none" stroke="white" stroke-width="2" d="M546.901,-93.6C546.901,-99.6 540.901,-105.6 534.901,-105.6"/>
<text text-anchor="middle" x="492.901" y="-85.1" font-family="Helvetica,sans-Serif" font-size="10.00">ELF2_GABPA_ELF5</text>
</a>
</g>
<!-- ELF2_GABPA_ELF5&#45;&gt;MEF2C -->
<g id="edge70" class="edge"><title>ELF2_GABPA_ELF5&#45;&gt;MEF2C</title>
<a xlink:title="MEF2C: 0.155||remove27root">
<path fill="none" stroke="#bac1ff" stroke-width="3" d="M474.669,-105.832C440.169,-140.332 365.349,-215.152 326.793,-253.709"/>
<polygon fill="#bac1ff" stroke="#bac1ff" points="324.605,-251.937 320.928,-259.573 328.565,-255.897 324.605,-251.937"/>
</a>
</g>
<!-- ELF2_GABPA_ELF5&#45;&gt;MAFF_MAFG -->
<g id="edge72" class="edge"><title>ELF2_GABPA_ELF5&#45;&gt;MAFF_MAFG</title>
<a xlink:title="MAFF: 0.073||remove9root">
<path fill="none" stroke="#ecc3ff" stroke-width="3" d="M497.796,-105.865C509.926,-151.136 541.415,-268.655 555.506,-321.244"/>
<polygon fill="#ecc3ff" stroke="#ecc3ff" points="552.838,-322.103 557.613,-329.106 558.247,-320.654 552.838,-322.103"/>
</a>
</g>
<!-- ELF2_GABPA_ELF5&#45;&gt;ID4_TCF4_SNAI2 -->
<g id="edge74" class="edge"><title>ELF2_GABPA_ELF5&#45;&gt;ID4_TCF4_SNAI2</title>
<a xlink:title="SNAI2: 0.029||TCF4: 0.017||remove5root">
<path fill="none" stroke="#edc8ff" stroke-width="3" d="M492.901,-105.687C492.901,-167.249 492.901,-368.844 492.901,-441.501"/>
<polygon fill="#edc8ff" stroke="#edc8ff" points="490.102,-441.704 492.901,-449.704 495.702,-441.704 490.102,-441.704"/>
</a>
</g>
<!-- ELF2_GABPA_ELF5&#45;&gt;GATA1_GATA4 -->
<g id="edge76" class="edge"><title>ELF2_GABPA_ELF5&#45;&gt;GATA1_GATA4</title>
<a xlink:title="GATA4: 0.086||remove12root">
<path fill="none" stroke="#ebc2ff" stroke-width="3" d="M461.622,-105.659C381.476,-151.931 168.929,-274.646 81.4464,-325.154"/>
<polygon fill="#ebc2ff" stroke="#ebc2ff" points="79.8988,-322.814 74.3706,-329.239 82.6988,-327.664 79.8988,-322.814"/>
</a>
</g>
<!-- ELF2_GABPA_ELF5&#45;&gt;ETV4_ETS2 -->
<g id="edge66" class="edge"><title>ELF2_GABPA_ELF5&#45;&gt;ETV4_ETS2</title>
<a xlink:title="ETV4: 0.026||ETS2: 0.015||remove4root">
<path fill="none" stroke="#edc9ff" stroke-width="3" d="M438.633,-102.141C348.274,-126.353 168.783,-174.447 86.2966,-196.549"/>
<polygon fill="#edc9ff" stroke="#edc9ff" points="85.3886,-193.894 78.3859,-198.669 86.838,-199.303 85.3886,-193.894"/>
</a>
</g>
<!-- ELF2_GABPA_ELF5&#45;&gt;ZEB1 -->
<g id="edge64" class="edge"><title>ELF2_GABPA_ELF5&#45;&gt;ZEB1</title>
<a xlink:title="ZEB1: 0.020||remove2root">
<path fill="none" stroke="#edc9ff" stroke-width="3" d="M438.817,-87.6C359.762,-87.6 214.811,-87.6 148.017,-87.6"/>
<polygon fill="#edc9ff" stroke="#edc9ff" points="147.887,-84.8001 139.887,-87.6 147.887,-90.4001 147.887,-84.8001"/>
</a>
</g>
<!-- ELF2_GABPA_ELF5&#45;&gt;NOTO_VSX2_DLX2_DLX6_NKX6&#45;1 -->
<g id="edge68" class="edge"><title>ELF2_GABPA_ELF5&#45;&gt;NOTO_VSX2_DLX2_DLX6_NKX6&#45;1</title>
<a xlink:title="NOTO: 0.059||remove7root">
<path fill="none" stroke="#ecc5ff" stroke-width="3" d="M438.765,-73.0943C401.052,-62.9889 350.241,-49.3742 308.566,-38.2074"/>
<polygon fill="#ecc5ff" stroke="#ecc5ff" points="309.08,-35.4465 300.628,-36.0804 307.631,-40.8557 309.08,-35.4465"/>
</a>
</g>
<!-- NKX2&#45;5 -->
<g id="node51" class="node"><title>NKX2&#45;5</title>
<a xlink:href="NKX2-5.svg" xlink:title="Z&#45;value: 0.410||remove15">
<polygon fill="#bbc2ff" stroke="#bbc2ff" stroke-width="2" points="577.501,-226.151 547.501,-226.151 535.501,-214.151 535.501,-202.151 547.501,-190.151 577.501,-190.151 589.501,-202.151 589.501,-214.151 577.501,-226.151"/>
<path fill="#bbc2ff" stroke="#bbc2ff" stroke-width="2" d="M547.501,-226.151C541.501,-226.151 535.501,-220.151 535.501,-214.151"/>
<path fill="#bbc2ff" stroke="#bbc2ff" stroke-width="2" d="M535.501,-202.151C535.501,-196.151 541.501,-190.151 547.501,-190.151"/>
<path fill="#bbc2ff" stroke="#bbc2ff" stroke-width="2" d="M577.501,-190.151C583.501,-190.151 589.501,-196.151 589.501,-202.151"/>
<path fill="#bbc2ff" stroke="#bbc2ff" stroke-width="2" d="M589.501,-214.151C589.501,-220.151 583.501,-226.151 577.501,-226.151"/>
<polyline fill="none" stroke="white" stroke-width="2" points="577.501,-226.151 547.501,-226.151 "/>
<path fill="none" stroke="white" stroke-width="2" d="M547.501,-226.151C541.501,-226.151 535.501,-220.151 535.501,-214.151"/>
<polyline fill="none" stroke="white" stroke-width="2" points="535.501,-214.151 535.501,-202.151 "/>
<path fill="none" stroke="white" stroke-width="2" d="M535.501,-202.151C535.501,-196.151 541.501,-190.151 547.501,-190.151"/>
<polyline fill="none" stroke="white" stroke-width="2" points="547.501,-190.151 577.501,-190.151 "/>
<path fill="none" stroke="white" stroke-width="2" d="M577.501,-190.151C583.501,-190.151 589.501,-196.151 589.501,-202.151"/>
<polyline fill="none" stroke="white" stroke-width="2" points="589.501,-202.151 589.501,-214.151 "/>
<path fill="none" stroke="white" stroke-width="2" d="M589.501,-214.151C589.501,-220.151 583.501,-226.151 577.501,-226.151"/>
<text text-anchor="middle" x="562.501" y="-205.651" font-family="Helvetica,sans-Serif" font-size="10.00">NKX2&#45;5</text>
</a>
</g>
<!-- NKX2&#45;5&#45;&gt;MEF2C -->
<g id="edge78" class="edge"><title>NKX2&#45;5&#45;&gt;MEF2C</title>
<a xlink:title="MEF2C: 0.100||remove15root">
<path fill="none" stroke="#c0c6ff" stroke-width="3" d="M535.195,-215.468C487.841,-228.156 390.54,-254.228 338.098,-268.279"/>
<polygon fill="#c0c6ff" stroke="#c0c6ff" points="337.084,-265.652 330.082,-270.427 338.534,-271.061 337.084,-265.652"/>
</a>
</g>
<!-- NKX2&#45;5&#45;&gt;ID4_TCF4_SNAI2 -->
<g id="edge80" class="edge"><title>NKX2&#45;5&#45;&gt;ID4_TCF4_SNAI2</title>
<a xlink:title="SNAI2: 0.078||remove11root">
<path fill="none" stroke="#ebc3ff" stroke-width="3" d="M554.459,-226.245C544.558,-249.159 527.832,-290.051 517.841,-326.471 507.022,-365.911 499.829,-412.874 496.056,-441.527"/>
<polygon fill="#ebc3ff" stroke="#ebc3ff" points="493.235,-441.512 494.995,-449.803 498.79,-442.224 493.235,-441.512"/>
</a>
</g>
</g>
</svg>
