<?xml version="1.0" ?><!DOCTYPE svg  PUBLIC '-//W3C//DTD SVG 1.1//EN'  'http://www.w3.org/Graphics/SVG/1.1/DTD/svg11.dtd'><!-- Generated by graphviz version 2.28.0 (20110630.0925)
 --><!-- Title: _anonymous_0 Pages: 1 --><svg height="667pt" onload="init(evt)" width="798pt" xmlns="http://www.w3.org/2000/svg" xmlns:ismara="ismara.unibas.ch" xmlns:xlink="http://www.w3.org/1999/xlink">
<g class="graph" id="graph1" transform="scale(1 1) rotate(0) translate(54 613.243)">

<polygon fill="white" points="-4,5 -4,-613.243 644.743,-613.243 644.743,5 -4,5" stroke="white"/>
<!-- ESR1 -->
<g class="node" id="node1">
<a class="remove14" onmousemove="ShowTooltip(evt, 'Z-value: 6.597')" onmouseout="HideTooltip(evt)" xlink:href="ESR1.svg">
<polygon fill="#3247ff" points="615.243,-399.422 585.243,-399.422 573.243,-387.422 573.243,-375.422 585.243,-363.422 615.243,-363.422 627.243,-375.422 627.243,-387.422 615.243,-399.422" stroke="#3247ff" stroke-width="2"/>
<path d="M585.243,-399.422C579.243,-399.422 573.243,-393.422 573.243,-387.422" fill="#3247ff" stroke="#3247ff" stroke-width="2"/>
<path d="M573.243,-375.422C573.243,-369.422 579.243,-363.422 585.243,-363.422" fill="#3247ff" stroke="#3247ff" stroke-width="2"/>
<path d="M615.243,-363.422C621.243,-363.422 627.243,-369.422 627.243,-375.422" fill="#3247ff" stroke="#3247ff" stroke-width="2"/>
<path d="M627.243,-387.422C627.243,-393.422 621.243,-399.422 615.243,-399.422" fill="#3247ff" stroke="#3247ff" stroke-width="2"/>
<polyline fill="none" points="615.243,-399.422 585.243,-399.422 " stroke="white" stroke-width="2"/>
<path d="M585.243,-399.422C579.243,-399.422 573.243,-393.422 573.243,-387.422" fill="none" stroke="white" stroke-width="2"/>
<polyline fill="none" points="573.243,-387.422 573.243,-375.422 " stroke="white" stroke-width="2"/>
<path d="M573.243,-375.422C573.243,-369.422 579.243,-363.422 585.243,-363.422" fill="none" stroke="white" stroke-width="2"/>
<polyline fill="none" points="585.243,-363.422 615.243,-363.422 " stroke="white" stroke-width="2"/>
<path d="M615.243,-363.422C621.243,-363.422 627.243,-369.422 627.243,-375.422" fill="none" stroke="white" stroke-width="2"/>
<polyline fill="none" points="627.243,-375.422 627.243,-387.422 " stroke="white" stroke-width="2"/>
<path d="M627.243,-387.422C627.243,-393.422 621.243,-399.422 615.243,-399.422" fill="none" stroke="white" stroke-width="2"/>
<text fill="white" font-family="Helvetica,sans-Serif" font-size="10.00" text-anchor="middle" x="600.243" y="-378.922">ESR1</text>
</a>
</g>
<!-- TFAP2C -->
<g class="node" id="node2">
<a class="remove15" onmousemove="ShowTooltip(evt, 'Z-value: 0.810')" onmouseout="HideTooltip(evt)" xlink:href="TFAP2C.svg">
<polygon fill="#b9c0ff" points="538.693,-532.443 508.193,-532.443 496.193,-520.443 496.193,-508.443 508.193,-496.443 538.693,-496.443 550.693,-508.443 550.693,-520.443 538.693,-532.443" stroke="#b9c0ff" stroke-width="2"/>
<path d="M508.193,-532.443C502.193,-532.443 496.193,-526.443 496.193,-520.443" fill="#b9c0ff" stroke="#b9c0ff" stroke-width="2"/>
<path d="M496.193,-508.443C496.193,-502.443 502.193,-496.443 508.193,-496.443" fill="#b9c0ff" stroke="#b9c0ff" stroke-width="2"/>
<path d="M538.693,-496.443C544.693,-496.443 550.693,-502.443 550.693,-508.443" fill="#b9c0ff" stroke="#b9c0ff" stroke-width="2"/>
<path d="M550.693,-520.443C550.693,-526.443 544.693,-532.443 538.693,-532.443" fill="#b9c0ff" stroke="#b9c0ff" stroke-width="2"/>
<polyline fill="none" points="538.693,-532.443 508.193,-532.443 " stroke="white" stroke-width="2"/>
<path d="M508.193,-532.443C502.193,-532.443 496.193,-526.443 496.193,-520.443" fill="none" stroke="white" stroke-width="2"/>
<polyline fill="none" points="496.193,-520.443 496.193,-508.443 " stroke="white" stroke-width="2"/>
<path d="M496.193,-508.443C496.193,-502.443 502.193,-496.443 508.193,-496.443" fill="none" stroke="white" stroke-width="2"/>
<polyline fill="none" points="508.193,-496.443 538.693,-496.443 " stroke="white" stroke-width="2"/>
<path d="M538.693,-496.443C544.693,-496.443 550.693,-502.443 550.693,-508.443" fill="none" stroke="white" stroke-width="2"/>
<polyline fill="none" points="550.693,-508.443 550.693,-520.443 " stroke="white" stroke-width="2"/>
<path d="M550.693,-520.443C550.693,-526.443 544.693,-532.443 538.693,-532.443" fill="none" stroke="white" stroke-width="2"/>
<text font-family="Helvetica,sans-Serif" font-size="10.00" text-anchor="middle" x="523.443" y="-511.943">TFAP2C</text>
</a>
</g>
<!-- ESR1&#45;&gt;TFAP2C -->
<g class="edge" id="edge2">
<a class="remove14" ismara:data="5.979" onmousemove="ShowTooltip(evt, 'TFAP2C: 5.979')" onmouseout="HideTooltip(evt)">
<path d="M589.725,-399.639C576.357,-422.793 553.208,-462.889 538.11,-489.039" fill="none" stroke="#bd32ff" stroke-width="3"/>
<polygon fill="#bd32ff" points="535.655,-487.691 534.08,-496.019 540.505,-490.491 535.655,-487.691" stroke="#bd32ff"/>
</a>
</g>
<!-- TFAP2C&#45;&gt;TFAP2C -->
<g class="edge" id="edge10">
<a class="remove2 root" ismara:data="0.059" onmousemove="ShowTooltip(evt, 'TFAP2C: 0.059')" onmouseout="HideTooltip(evt)">
<path d="M551.127,-521.191C560.707,-521.263 568.443,-519.013 568.443,-514.443 568.443,-511.301 564.786,-509.256 559.388,-508.308" fill="none" stroke="#eecaff" stroke-width="3"/>
<polygon fill="#eecaff" points="559.313,-505.494 551.127,-507.695 558.898,-511.079 559.313,-505.494" stroke="#eecaff"/>
</a>
</g>
<!-- FOXD1_FOXO1_FOXO6_FOXG1_FOXP1 -->
<g class="node" id="node4">
<a class="remove16" onmousemove="ShowTooltip(evt, 'Z-value: 0.656')" onmouseout="HideTooltip(evt)" xlink:href="FOXD1_FOXO1_FOXO6_FOXG1_FOXP1.svg">
<polygon fill="#bcc3ff" points="479.422,-609.243 301.422,-609.243 289.422,-597.243 289.422,-585.243 301.422,-573.243 479.422,-573.243 491.422,-585.243 491.422,-597.243 479.422,-609.243" stroke="#bcc3ff" stroke-width="2"/>
<path d="M301.422,-609.243C295.422,-609.243 289.422,-603.243 289.422,-597.243" fill="#bcc3ff" stroke="#bcc3ff" stroke-width="2"/>
<path d="M289.422,-585.243C289.422,-579.243 295.422,-573.243 301.422,-573.243" fill="#bcc3ff" stroke="#bcc3ff" stroke-width="2"/>
<path d="M479.422,-573.243C485.422,-573.243 491.422,-579.243 491.422,-585.243" fill="#bcc3ff" stroke="#bcc3ff" stroke-width="2"/>
<path d="M491.422,-597.243C491.422,-603.243 485.422,-609.243 479.422,-609.243" fill="#bcc3ff" stroke="#bcc3ff" stroke-width="2"/>
<polyline fill="none" points="479.422,-609.243 301.422,-609.243 " stroke="white" stroke-width="2"/>
<path d="M301.422,-609.243C295.422,-609.243 289.422,-603.243 289.422,-597.243" fill="none" stroke="white" stroke-width="2"/>
<polyline fill="none" points="289.422,-597.243 289.422,-585.243 " stroke="white" stroke-width="2"/>
<path d="M289.422,-585.243C289.422,-579.243 295.422,-573.243 301.422,-573.243" fill="none" stroke="white" stroke-width="2"/>
<polyline fill="none" points="301.422,-573.243 479.422,-573.243 " stroke="white" stroke-width="2"/>
<path d="M479.422,-573.243C485.422,-573.243 491.422,-579.243 491.422,-585.243" fill="none" stroke="white" stroke-width="2"/>
<polyline fill="none" points="491.422,-585.243 491.422,-597.243 " stroke="white" stroke-width="2"/>
<path d="M491.422,-597.243C491.422,-603.243 485.422,-609.243 479.422,-609.243" fill="none" stroke="white" stroke-width="2"/>
<text font-family="Helvetica,sans-Serif" font-size="10.00" text-anchor="middle" x="390.422" y="-588.743">FOXD1_FOXO1_FOXO6_FOXG1_FOXP1</text>
</a>
</g>
<!-- TFAP2C&#45;&gt;FOXD1_FOXO1_FOXO6_FOXG1_FOXP1 -->
<g class="edge" id="edge4">
<a class="remove1 root" ismara:data="0.058" onmousemove="ShowTooltip(evt, 'FOXP1: 0.058|FOXO6: 0.029')" onmouseout="HideTooltip(evt)">
<path d="M495.881,-530.356C476.464,-541.567 450.208,-556.725 428.753,-569.112" fill="none" stroke="#eecaff" stroke-width="3"/>
<polygon fill="#eecaff" points="427.206,-566.772 421.677,-573.197 430.006,-571.622 427.206,-566.772" stroke="#eecaff"/>
</a>
</g>
<!-- EPAS1_BCL3 -->
<g class="node" id="node6">
<a class="remove13" onmousemove="ShowTooltip(evt, 'Z-value: 0.784')" onmouseout="HideTooltip(evt)" xlink:href="EPAS1_BCL3.svg">
<polygon fill="#b9c0ff" points="627.493,-245.822 572.993,-245.822 560.993,-233.822 560.993,-221.822 572.993,-209.822 627.493,-209.822 639.493,-221.822 639.493,-233.822 627.493,-245.822" stroke="#b9c0ff" stroke-width="2"/>
<path d="M572.993,-245.822C566.993,-245.822 560.993,-239.822 560.993,-233.822" fill="#b9c0ff" stroke="#b9c0ff" stroke-width="2"/>
<path d="M560.993,-221.822C560.993,-215.822 566.993,-209.822 572.993,-209.822" fill="#b9c0ff" stroke="#b9c0ff" stroke-width="2"/>
<path d="M627.493,-209.822C633.493,-209.822 639.493,-215.822 639.493,-221.822" fill="#b9c0ff" stroke="#b9c0ff" stroke-width="2"/>
<path d="M639.493,-233.822C639.493,-239.822 633.493,-245.822 627.493,-245.822" fill="#b9c0ff" stroke="#b9c0ff" stroke-width="2"/>
<polyline fill="none" points="627.493,-245.822 572.993,-245.822 " stroke="white" stroke-width="2"/>
<path d="M572.993,-245.822C566.993,-245.822 560.993,-239.822 560.993,-233.822" fill="none" stroke="white" stroke-width="2"/>
<polyline fill="none" points="560.993,-233.822 560.993,-221.822 " stroke="white" stroke-width="2"/>
<path d="M560.993,-221.822C560.993,-215.822 566.993,-209.822 572.993,-209.822" fill="none" stroke="white" stroke-width="2"/>
<polyline fill="none" points="572.993,-209.822 627.493,-209.822 " stroke="white" stroke-width="2"/>
<path d="M627.493,-209.822C633.493,-209.822 639.493,-215.822 639.493,-221.822" fill="none" stroke="white" stroke-width="2"/>
<polyline fill="none" points="639.493,-221.822 639.493,-233.822 " stroke="white" stroke-width="2"/>
<path d="M639.493,-233.822C639.493,-239.822 633.493,-245.822 627.493,-245.822" fill="none" stroke="white" stroke-width="2"/>
<text font-family="Helvetica,sans-Serif" font-size="10.00" text-anchor="middle" x="600.243" y="-225.322">EPAS1_BCL3</text>
</a>
</g>
<!-- TFAP2C&#45;&gt;EPAS1_BCL3 -->
<g class="edge" id="edge6">
<a class="remove7 root" ismara:data="0.272" onmousemove="ShowTooltip(evt, 'BCL3: 0.272')" onmouseout="HideTooltip(evt)">
<path d="M528.364,-496.078C541.585,-446.735 577.913,-311.16 593.257,-253.895" fill="none" stroke="#ecc5ff" stroke-width="3"/>
<polygon fill="#ecc5ff" points="595.997,-254.486 595.363,-246.034 590.588,-253.037 595.997,-254.486" stroke="#ecc5ff"/>
</a>
</g>
<!-- BATF -->
<g class="node" id="node8">
<a class="remove22" onmousemove="ShowTooltip(evt, 'Z-value: 1.213')" onmouseout="HideTooltip(evt)" xlink:href="BATF.svg">
<polygon fill="#afb7ff" points="251.822,-609.243 221.822,-609.243 209.822,-597.243 209.822,-585.243 221.822,-573.243 251.822,-573.243 263.822,-585.243 263.822,-597.243 251.822,-609.243" stroke="#afb7ff" stroke-width="2"/>
<path d="M221.822,-609.243C215.822,-609.243 209.822,-603.243 209.822,-597.243" fill="#afb7ff" stroke="#afb7ff" stroke-width="2"/>
<path d="M209.822,-585.243C209.822,-579.243 215.822,-573.243 221.822,-573.243" fill="#afb7ff" stroke="#afb7ff" stroke-width="2"/>
<path d="M251.822,-573.243C257.822,-573.243 263.822,-579.243 263.822,-585.243" fill="#afb7ff" stroke="#afb7ff" stroke-width="2"/>
<path d="M263.822,-597.243C263.822,-603.243 257.822,-609.243 251.822,-609.243" fill="#afb7ff" stroke="#afb7ff" stroke-width="2"/>
<polyline fill="none" points="251.822,-609.243 221.822,-609.243 " stroke="white" stroke-width="2"/>
<path d="M221.822,-609.243C215.822,-609.243 209.822,-603.243 209.822,-597.243" fill="none" stroke="white" stroke-width="2"/>
<polyline fill="none" points="209.822,-597.243 209.822,-585.243 " stroke="white" stroke-width="2"/>
<path d="M209.822,-585.243C209.822,-579.243 215.822,-573.243 221.822,-573.243" fill="none" stroke="white" stroke-width="2"/>
<polyline fill="none" points="221.822,-573.243 251.822,-573.243 " stroke="white" stroke-width="2"/>
<path d="M251.822,-573.243C257.822,-573.243 263.822,-579.243 263.822,-585.243" fill="none" stroke="white" stroke-width="2"/>
<polyline fill="none" points="263.822,-585.243 263.822,-597.243 " stroke="white" stroke-width="2"/>
<path d="M263.822,-597.243C263.822,-603.243 257.822,-609.243 251.822,-609.243" fill="none" stroke="white" stroke-width="2"/>
<text font-family="Helvetica,sans-Serif" font-size="10.00" text-anchor="middle" x="236.822" y="-588.743">BATF</text>
</a>
</g>
<!-- TFAP2C&#45;&gt;BATF -->
<g class="edge" id="edge8">
<a class="remove6 root" ismara:data="0.193" onmousemove="ShowTooltip(evt, 'BATF: 0.193')" onmouseout="HideTooltip(evt)">
<path d="M496.002,-517.828C449.104,-524.211 351.06,-540.178 273.262,-570.363 272.578,-570.628 271.891,-570.905 271.203,-571.192" fill="none" stroke="#edc7ff" stroke-width="3"/>
<polygon fill="#edc7ff" points="269.931,-568.696 263.842,-574.592 272.279,-573.779 269.931,-568.696" stroke="#edc7ff"/>
</a>
</g>
<!-- FOXD1_FOXO1_FOXO6_FOXG1_FOXP1&#45;&gt;FOXD1_FOXO1_FOXO6_FOXG1_FOXP1 -->
<g class="edge" id="edge48">
<a class="remove9 root" ismara:data="0.292" onmousemove="ShowTooltip(evt, 'FOXP1: 0.292|FOXO1: 0.176')" onmouseout="HideTooltip(evt)">
<path d="M491.559,-596.879C502.429,-595.794 509.422,-593.915 509.422,-591.243 509.422,-589.323 505.809,-587.812 499.741,-586.711" fill="none" stroke="#ecc4ff" stroke-width="3"/>
<polygon fill="#ecc4ff" points="499.862,-583.902 491.559,-585.607 499.113,-589.452 499.862,-583.902" stroke="#ecc4ff"/>
</a>
</g>
<!-- ARID5B -->
<g class="node" id="node22">
<a class="remove21" onmousemove="ShowTooltip(evt, 'Z-value: 0.249')" onmouseout="HideTooltip(evt)" xlink:href="ARID5B.svg">
<polygon fill="#c6cbff" points="118.8,-112.8 88.8,-112.8 76.8,-100.8 76.8,-88.8 88.8,-76.8 118.8,-76.8 130.8,-88.8 130.8,-100.8 118.8,-112.8" stroke="#c6cbff" stroke-width="2"/>
<path d="M88.8,-112.8C82.8,-112.8 76.8,-106.8 76.8,-100.8" fill="#c6cbff" stroke="#c6cbff" stroke-width="2"/>
<path d="M76.8,-88.8C76.8,-82.8 82.8,-76.8 88.8,-76.8" fill="#c6cbff" stroke="#c6cbff" stroke-width="2"/>
<path d="M118.8,-76.8C124.8,-76.8 130.8,-82.8 130.8,-88.8" fill="#c6cbff" stroke="#c6cbff" stroke-width="2"/>
<path d="M130.8,-100.8C130.8,-106.8 124.8,-112.8 118.8,-112.8" fill="#c6cbff" stroke="#c6cbff" stroke-width="2"/>
<polyline fill="none" points="118.8,-112.8 88.8,-112.8 " stroke="white" stroke-width="2"/>
<path d="M88.8,-112.8C82.8,-112.8 76.8,-106.8 76.8,-100.8" fill="none" stroke="white" stroke-width="2"/>
<polyline fill="none" points="76.8,-100.8 76.8,-88.8 " stroke="white" stroke-width="2"/>
<path d="M76.8,-88.8C76.8,-82.8 82.8,-76.8 88.8,-76.8" fill="none" stroke="white" stroke-width="2"/>
<polyline fill="none" points="88.8,-76.8 118.8,-76.8 " stroke="white" stroke-width="2"/>
<path d="M118.8,-76.8C124.8,-76.8 130.8,-82.8 130.8,-88.8" fill="none" stroke="white" stroke-width="2"/>
<polyline fill="none" points="130.8,-88.8 130.8,-100.8 " stroke="white" stroke-width="2"/>
<path d="M130.8,-100.8C130.8,-106.8 124.8,-112.8 118.8,-112.8" fill="none" stroke="white" stroke-width="2"/>
<text font-family="Helvetica,sans-Serif" font-size="10.00" text-anchor="middle" x="103.8" y="-92.3">ARID5B</text>
</a>
</g>
<!-- FOXD1_FOXO1_FOXO6_FOXG1_FOXP1&#45;&gt;ARID5B -->
<g class="edge" id="edge46">
<a class="remove4 root" ismara:data="0.102" onmousemove="ShowTooltip(evt, 'ARID5B: 0.102')" onmouseout="HideTooltip(evt)">
<path d="M379.881,-572.986C336.161,-497.261 169.019,-207.762 118.408,-120.101" fill="none" stroke="#edc9ff" stroke-width="3"/>
<polygon fill="#edc9ff" points="120.71,-118.489 114.285,-112.961 115.86,-121.289 120.71,-118.489" stroke="#edc9ff"/>
</a>
</g>
<!-- NFIA -->
<g class="node" id="node16">
<a class="remove19" onmousemove="ShowTooltip(evt, 'Z-value: 0.607')" onmouseout="HideTooltip(evt)" xlink:href="NFIA.svg">
<polygon fill="#bdc4ff" points="42,-245.822 12,-245.822 0,-233.822 0,-221.822 12,-209.822 42,-209.822 54,-221.822 54,-233.822 42,-245.822" stroke="#bdc4ff" stroke-width="2"/>
<path d="M12,-245.822C6,-245.822 0,-239.822 0,-233.822" fill="#bdc4ff" stroke="#bdc4ff" stroke-width="2"/>
<path d="M0,-221.822C0,-215.822 6,-209.822 12,-209.822" fill="#bdc4ff" stroke="#bdc4ff" stroke-width="2"/>
<path d="M42,-209.822C48,-209.822 54,-215.822 54,-221.822" fill="#bdc4ff" stroke="#bdc4ff" stroke-width="2"/>
<path d="M54,-233.822C54,-239.822 48,-245.822 42,-245.822" fill="#bdc4ff" stroke="#bdc4ff" stroke-width="2"/>
<polyline fill="none" points="42,-245.822 12,-245.822 " stroke="white" stroke-width="2"/>
<path d="M12,-245.822C6,-245.822 0,-239.822 0,-233.822" fill="none" stroke="white" stroke-width="2"/>
<polyline fill="none" points="0,-233.822 0,-221.822 " stroke="white" stroke-width="2"/>
<path d="M0,-221.822C0,-215.822 6,-209.822 12,-209.822" fill="none" stroke="white" stroke-width="2"/>
<polyline fill="none" points="12,-209.822 42,-209.822 " stroke="white" stroke-width="2"/>
<path d="M42,-209.822C48,-209.822 54,-215.822 54,-221.822" fill="none" stroke="white" stroke-width="2"/>
<polyline fill="none" points="54,-221.822 54,-233.822 " stroke="white" stroke-width="2"/>
<path d="M54,-233.822C54,-239.822 48,-245.822 42,-245.822" fill="none" stroke="white" stroke-width="2"/>
<text font-family="Helvetica,sans-Serif" font-size="10.00" text-anchor="middle" x="27" y="-225.322">NFIA</text>
</a>
</g>
<!-- EPAS1_BCL3&#45;&gt;NFIA -->
<g class="edge" id="edge18">
<a class="remove0 root" ismara:data="0.046" onmousemove="ShowTooltip(evt, 'NFIA: 0.046')" onmouseout="HideTooltip(evt)">
<path d="M560.842,-227.822C454.554,-227.822 163.173,-227.822 62.0889,-227.822" fill="none" stroke="#eecaff" stroke-width="3"/>
<polygon fill="#eecaff" points="62.0233,-225.022 54.0233,-227.822 62.0232,-230.622 62.0233,-225.022" stroke="#eecaff"/>
</a>
</g>
<!-- MEIS2 -->
<g class="node" id="node18">
<a class="remove23" onmousemove="ShowTooltip(evt, 'Z-value: 1.195')" onmouseout="HideTooltip(evt)" xlink:href="MEIS2.svg">
<polygon fill="#ffb0b0" points="328.622,-322.622 298.622,-322.622 286.622,-310.622 286.622,-298.622 298.622,-286.622 328.622,-286.622 340.622,-298.622 340.622,-310.622 328.622,-322.622" stroke="#ffb0b0" stroke-width="2"/>
<path d="M298.622,-322.622C292.622,-322.622 286.622,-316.622 286.622,-310.622" fill="#ffb0b0" stroke="#ffb0b0" stroke-width="2"/>
<path d="M286.622,-298.622C286.622,-292.622 292.622,-286.622 298.622,-286.622" fill="#ffb0b0" stroke="#ffb0b0" stroke-width="2"/>
<path d="M328.622,-286.622C334.622,-286.622 340.622,-292.622 340.622,-298.622" fill="#ffb0b0" stroke="#ffb0b0" stroke-width="2"/>
<path d="M340.622,-310.622C340.622,-316.622 334.622,-322.622 328.622,-322.622" fill="#ffb0b0" stroke="#ffb0b0" stroke-width="2"/>
<polyline fill="none" points="328.622,-322.622 298.622,-322.622 " stroke="white" stroke-width="2"/>
<path d="M298.622,-322.622C292.622,-322.622 286.622,-316.622 286.622,-310.622" fill="none" stroke="white" stroke-width="2"/>
<polyline fill="none" points="286.622,-310.622 286.622,-298.622 " stroke="white" stroke-width="2"/>
<path d="M286.622,-298.622C286.622,-292.622 292.622,-286.622 298.622,-286.622" fill="none" stroke="white" stroke-width="2"/>
<polyline fill="none" points="298.622,-286.622 328.622,-286.622 " stroke="white" stroke-width="2"/>
<path d="M328.622,-286.622C334.622,-286.622 340.622,-292.622 340.622,-298.622" fill="none" stroke="white" stroke-width="2"/>
<polyline fill="none" points="340.622,-298.622 340.622,-310.622 " stroke="white" stroke-width="2"/>
<path d="M340.622,-310.622C340.622,-316.622 334.622,-322.622 328.622,-322.622" fill="none" stroke="white" stroke-width="2"/>
<text font-family="Helvetica,sans-Serif" font-size="10.00" text-anchor="middle" x="313.622" y="-302.122">MEIS2</text>
</a>
</g>
<!-- EPAS1_BCL3&#45;&gt;MEIS2 -->
<g class="edge" id="edge20">
<a class="remove13 root" ismara:data="0.317" onmousemove="ShowTooltip(evt, 'MEIS2: 0.030|BCL3: 0.317')" onmouseout="HideTooltip(evt)">
<path d="M553.366,-241.417C495.94,-256.805 400.252,-282.444 348.936,-296.194" fill="none" stroke="#cbd0ff" stroke-width="3"/>
<path d="M552.848,-239.486C495.422,-254.873 399.734,-280.512 348.419,-294.262" fill="none" stroke="#ffc3c3" stroke-width="3"/>
<polygon fill="#ffc3c3" points="553.988,-243.114 560.991,-238.339 552.538,-237.705 553.988,-243.114" stroke="#ffc3c3"/>
<polygon fill="#cbd0ff" points="347.838,-292.554 340.835,-297.33 349.288,-297.964 347.838,-292.554" stroke="#cbd0ff"/>
</a>
</g>
<!-- BATF&#45;&gt;EPAS1_BCL3 -->
<g class="edge" id="edge14">
<a class="remove3 root" ismara:data="0.071" onmousemove="ShowTooltip(evt, 'BCL3: 0.071')" onmouseout="HideTooltip(evt)">
<path d="M254.844,-573.221C314.904,-513.161 508.28,-319.785 576.303,-251.762" fill="none" stroke="#eecaff" stroke-width="3"/>
<polygon fill="#eecaff" points="578.435,-253.589 582.112,-245.952 574.475,-249.629 578.435,-253.589" stroke="#eecaff"/>
</a>
</g>
<!-- MAFF_MAFG -->
<g class="node" id="node11">
<a class="remove20" onmousemove="ShowTooltip(evt, 'Z-value: 0.422')" onmouseout="HideTooltip(evt)" xlink:href="MAFF_MAFG.svg">
<polygon fill="#c2c8ff" points="130.05,-532.443 77.55,-532.443 65.55,-520.443 65.55,-508.443 77.55,-496.443 130.05,-496.443 142.05,-508.443 142.05,-520.443 130.05,-532.443" stroke="#c2c8ff" stroke-width="2"/>
<path d="M77.55,-532.443C71.55,-532.443 65.55,-526.443 65.55,-520.443" fill="#c2c8ff" stroke="#c2c8ff" stroke-width="2"/>
<path d="M65.55,-508.443C65.55,-502.443 71.55,-496.443 77.55,-496.443" fill="#c2c8ff" stroke="#c2c8ff" stroke-width="2"/>
<path d="M130.05,-496.443C136.05,-496.443 142.05,-502.443 142.05,-508.443" fill="#c2c8ff" stroke="#c2c8ff" stroke-width="2"/>
<path d="M142.05,-520.443C142.05,-526.443 136.05,-532.443 130.05,-532.443" fill="#c2c8ff" stroke="#c2c8ff" stroke-width="2"/>
<polyline fill="none" points="130.05,-532.443 77.55,-532.443 " stroke="white" stroke-width="2"/>
<path d="M77.55,-532.443C71.55,-532.443 65.55,-526.443 65.55,-520.443" fill="none" stroke="white" stroke-width="2"/>
<polyline fill="none" points="65.55,-520.443 65.55,-508.443 " stroke="white" stroke-width="2"/>
<path d="M65.55,-508.443C65.55,-502.443 71.55,-496.443 77.55,-496.443" fill="none" stroke="white" stroke-width="2"/>
<polyline fill="none" points="77.55,-496.443 130.05,-496.443 " stroke="white" stroke-width="2"/>
<path d="M130.05,-496.443C136.05,-496.443 142.05,-502.443 142.05,-508.443" fill="none" stroke="white" stroke-width="2"/>
<polyline fill="none" points="142.05,-508.443 142.05,-520.443 " stroke="white" stroke-width="2"/>
<path d="M142.05,-520.443C142.05,-526.443 136.05,-532.443 130.05,-532.443" fill="none" stroke="white" stroke-width="2"/>
<text font-family="Helvetica,sans-Serif" font-size="10.00" text-anchor="middle" x="103.8" y="-511.943">MAFF_MAFG</text>
</a>
</g>
<!-- BATF&#45;&gt;MAFF_MAFG -->
<g class="edge" id="edge12">
<a class="remove12 root" ismara:data="0.311" onmousemove="ShowTooltip(evt, 'MAFF: 0.311')" onmouseout="HideTooltip(evt)">
<path d="M209.582,-575.516C190.187,-564.319 163.852,-549.114 142.31,-536.677" fill="none" stroke="#ecc4ff" stroke-width="3"/>
<polygon fill="#ecc4ff" points="143.534,-534.15 135.206,-532.575 140.734,-539 143.534,-534.15" stroke="#ecc4ff"/>
</a>
</g>
<!-- SMAD3 -->
<g class="node" id="node14">
<a class="remove18" onmousemove="ShowTooltip(evt, 'Z-value: 0.374')" onmouseout="HideTooltip(evt)" xlink:href="SMAD3.svg">
<polygon fill="#c3c9ff" points="42,-399.422 12,-399.422 6.39488e-14,-387.422 6.39488e-14,-375.422 12,-363.422 42,-363.422 54,-375.422 54,-387.422 42,-399.422" stroke="#c3c9ff" stroke-width="2"/>
<path d="M12,-399.422C6,-399.422 6.39488e-14,-393.422 6.39488e-14,-387.422" fill="#c3c9ff" stroke="#c3c9ff" stroke-width="2"/>
<path d="M6.39488e-14,-375.422C6.39488e-14,-369.422 6,-363.422 12,-363.422" fill="#c3c9ff" stroke="#c3c9ff" stroke-width="2"/>
<path d="M42,-363.422C48,-363.422 54,-369.422 54,-375.422" fill="#c3c9ff" stroke="#c3c9ff" stroke-width="2"/>
<path d="M54,-387.422C54,-393.422 48,-399.422 42,-399.422" fill="#c3c9ff" stroke="#c3c9ff" stroke-width="2"/>
<polyline fill="none" points="42,-399.422 12,-399.422 " stroke="white" stroke-width="2"/>
<path d="M12,-399.422C6,-399.422 6.39488e-14,-393.422 6.39488e-14,-387.422" fill="none" stroke="white" stroke-width="2"/>
<polyline fill="none" points="6.39488e-14,-387.422 6.39488e-14,-375.422 " stroke="white" stroke-width="2"/>
<path d="M6.39488e-14,-375.422C6.39488e-14,-369.422 6,-363.422 12,-363.422" fill="none" stroke="white" stroke-width="2"/>
<polyline fill="none" points="12,-363.422 42,-363.422 " stroke="white" stroke-width="2"/>
<path d="M42,-363.422C48,-363.422 54,-369.422 54,-375.422" fill="none" stroke="white" stroke-width="2"/>
<polyline fill="none" points="54,-375.422 54,-387.422 " stroke="white" stroke-width="2"/>
<path d="M54,-387.422C54,-393.422 48,-399.422 42,-399.422" fill="none" stroke="white" stroke-width="2"/>
<text font-family="Helvetica,sans-Serif" font-size="10.00" text-anchor="middle" x="27" y="-378.922">SMAD3</text>
</a>
</g>
<!-- BATF&#45;&gt;SMAD3 -->
<g class="edge" id="edge16">
<a class="remove18" ismara:data="0.881" onmousemove="ShowTooltip(evt, 'SMAD3: 0.881')" onmouseout="HideTooltip(evt)">
<path d="M221.326,-573.155C204.038,-553.205 175.004,-520.378 148.46,-493.563 117.004,-461.785 78.8496,-427.152 53.8005,-404.909" fill="none" stroke="#e7b5ff" stroke-width="3"/>
<polygon fill="#e7b5ff" points="55.572,-402.737 47.7264,-399.53 51.8593,-406.93 55.572,-402.737" stroke="#e7b5ff"/>
</a>
</g>
<!-- MAFF_MAFG&#45;&gt;MAFF_MAFG -->
<g class="edge" id="edge22">
<a class="remove5 root" ismara:data="0.159" onmousemove="ShowTooltip(evt, 'MAFG: 0.159')" onmouseout="HideTooltip(evt)">
<path d="M142.275,-521.123C152.266,-520.713 159.8,-518.486 159.8,-514.443 159.8,-511.6 156.075,-509.655 150.391,-508.609" fill="none" stroke="#edc7ff" stroke-width="3"/>
<polygon fill="#edc7ff" points="150.522,-505.807 142.275,-507.763 149.942,-511.377 150.522,-505.807" stroke="#edc7ff"/>
</a>
</g>
<!-- NFIA&#45;&gt;SMAD3 -->
<g class="edge" id="edge50">
<a class="remove8 root" ismara:data="0.29" onmousemove="ShowTooltip(evt, 'SMAD3: 0.290')" onmouseout="HideTooltip(evt)">
<path d="M27,-246.045C27,-273.066 27,-323.906 27,-355.009" fill="none" stroke="#ecc4ff" stroke-width="3"/>
<polygon fill="#ecc4ff" points="24.2001,-355.222 27,-363.222 29.8001,-355.222 24.2001,-355.222" stroke="#ecc4ff"/>
</a>
</g>
<!-- MEIS2&#45;&gt;ESR1 -->
<g class="edge" id="edge38">
<a class="remove14 root" ismara:data="0.356" onmousemove="ShowTooltip(evt, 'ESR1: 0.356')" onmouseout="HideTooltip(evt)">
<path d="M340.845,-311.916C393.161,-325.934 507.667,-356.616 565.439,-372.096" fill="none" stroke="#ffc2c2" stroke-width="3"/>
<polygon fill="#ffc2c2" points="564.75,-374.81 573.202,-374.176 566.199,-369.401 564.75,-374.81" stroke="#ffc2c2"/>
</a>
</g>
<!-- MEIS2&#45;&gt;TFAP2C -->
<g class="edge" id="edge42">
<a class="remove15 root" ismara:data="0.383" onmousemove="ShowTooltip(evt, 'TFAP2C: 0.383')" onmouseout="HideTooltip(evt)">
<path d="M331.875,-322.875C369.869,-360.869 457.428,-448.428 499.724,-490.724" fill="none" stroke="#ffc2c2" stroke-width="3"/>
<polygon fill="#ffc2c2" points="497.745,-492.704 505.381,-496.381 501.704,-488.745 497.745,-492.704" stroke="#ffc2c2"/>
</a>
</g>
<!-- MEIS2&#45;&gt;FOXD1_FOXO1_FOXO6_FOXG1_FOXP1 -->
<g class="edge" id="edge34">
<a class="remove16 root" ismara:data="0.398" onmousemove="ShowTooltip(evt, 'FOXP1: 0.398|FOXG1: 0.120')" onmouseout="HideTooltip(evt)">
<path d="M318.543,-322.987C331.764,-372.33 368.091,-507.905 383.435,-565.169" fill="none" stroke="#ffc1c1" stroke-width="3"/>
<polygon fill="#ffc1c1" points="380.766,-566.028 385.541,-573.031 386.175,-564.578 380.766,-566.028" stroke="#ffc1c1"/>
</a>
</g>
<!-- MEIS2&#45;&gt;BATF -->
<g class="edge" id="edge40">
<a class="remove22 root" ismara:data="1.415" onmousemove="ShowTooltip(evt, 'BATF: 1.415')" onmouseout="HideTooltip(evt)">
<path d="M308.7,-322.987C295.479,-372.33 259.152,-507.905 243.808,-565.169" fill="none" stroke="#ffa7a7" stroke-width="3"/>
<polygon fill="#ffa7a7" points="241.068,-564.578 241.702,-573.031 246.477,-566.028 241.068,-564.578" stroke="#ffa7a7"/>
</a>
</g>
<!-- MEIS2&#45;&gt;MAFF_MAFG -->
<g class="edge" id="edge24">
<a class="remove20 root" ismara:data="0.553" onmousemove="ShowTooltip(evt, 'MAFF: 0.553')" onmouseout="HideTooltip(evt)">
<path d="M295.368,-322.875C257.374,-360.869 169.815,-448.428 127.519,-490.724" fill="none" stroke="#ffbdbd" stroke-width="3"/>
<polygon fill="#ffbdbd" points="125.539,-488.745 121.862,-496.381 129.498,-492.704 125.539,-488.745" stroke="#ffbdbd"/>
</a>
</g>
<!-- MEIS2&#45;&gt;SMAD3 -->
<g class="edge" id="edge44">
<a class="remove18 root" ismara:data="0.486" onmousemove="ShowTooltip(evt, 'SMAD3: 0.486')" onmouseout="HideTooltip(evt)">
<path d="M286.398,-311.916C234.082,-325.934 119.576,-356.616 61.8042,-372.096" fill="none" stroke="#ffbfbf" stroke-width="3"/>
<polygon fill="#ffbfbf" points="61.044,-369.401 54.0413,-374.176 62.4934,-374.81 61.044,-369.401" stroke="#ffbfbf"/>
</a>
</g>
<!-- MEIS2&#45;&gt;NFIA -->
<g class="edge" id="edge28">
<a class="remove19 root" ismara:data="0.51" onmousemove="ShowTooltip(evt, 'NFIA: 0.510')" onmouseout="HideTooltip(evt)">
<path d="M286.398,-297.327C234.082,-283.309 119.576,-252.627 61.8042,-237.147" fill="none" stroke="#ffbebe" stroke-width="3"/>
<polygon fill="#ffbebe" points="62.4934,-234.433 54.0413,-235.067 61.044,-239.842 62.4934,-234.433" stroke="#ffbebe"/>
</a>
</g>
<!-- MEIS2&#45;&gt;ARID5B -->
<g class="edge" id="edge26">
<a class="remove21 root" ismara:data="0.678" onmousemove="ShowTooltip(evt, 'ARID5B: 0.678')" onmouseout="HideTooltip(evt)">
<path d="M295.368,-286.368C257.374,-248.374 169.815,-160.815 127.519,-118.519" fill="none" stroke="#ffbaba" stroke-width="3"/>
<polygon fill="#ffbaba" points="129.498,-116.539 121.862,-112.862 125.539,-120.498 129.498,-116.539" stroke="#ffbaba"/>
</a>
</g>
<!-- TCF7L1 -->
<g class="node" id="node25">
<a class="remove17" onmousemove="ShowTooltip(evt, 'Z-value: 0.609')" onmouseout="HideTooltip(evt)" xlink:href="TCF7L1.svg">
<polygon fill="#bdc4ff" points="251.822,-36 221.822,-36 209.822,-24 209.822,-12 221.822,-1.27898e-13 251.822,-1.27898e-13 263.822,-12 263.822,-24 251.822,-36" stroke="#bdc4ff" stroke-width="2"/>
<path d="M221.822,-36C215.822,-36 209.822,-30 209.822,-24" fill="#bdc4ff" stroke="#bdc4ff" stroke-width="2"/>
<path d="M209.822,-12C209.822,-6 215.822,-1.27898e-13 221.822,-1.27898e-13" fill="#bdc4ff" stroke="#bdc4ff" stroke-width="2"/>
<path d="M251.822,-1.27898e-13C257.822,-1.27898e-13 263.822,-6 263.822,-12" fill="#bdc4ff" stroke="#bdc4ff" stroke-width="2"/>
<path d="M263.822,-24C263.822,-30 257.822,-36 251.822,-36" fill="#bdc4ff" stroke="#bdc4ff" stroke-width="2"/>
<polyline fill="none" points="251.822,-36 221.822,-36 " stroke="white" stroke-width="2"/>
<path d="M221.822,-36C215.822,-36 209.822,-30 209.822,-24" fill="none" stroke="white" stroke-width="2"/>
<polyline fill="none" points="209.822,-24 209.822,-12 " stroke="white" stroke-width="2"/>
<path d="M209.822,-12C209.822,-6 215.822,-1.27898e-13 221.822,-1.27898e-13" fill="none" stroke="white" stroke-width="2"/>
<polyline fill="none" points="221.822,-1.27898e-13 251.822,-1.27898e-13 " stroke="white" stroke-width="2"/>
<path d="M251.822,-1.27898e-13C257.822,-1.27898e-13 263.822,-6 263.822,-12" fill="none" stroke="white" stroke-width="2"/>
<polyline fill="none" points="263.822,-12 263.822,-24 " stroke="white" stroke-width="2"/>
<path d="M263.822,-24C263.822,-30 257.822,-36 251.822,-36" fill="none" stroke="white" stroke-width="2"/>
<text font-family="Helvetica,sans-Serif" font-size="10.00" text-anchor="middle" x="236.822" y="-15.5">TCF7L1</text>
</a>
</g>
<!-- MEIS2&#45;&gt;TCF7L1 -->
<g class="edge" id="edge30">
<a class="remove17 root" ismara:data="0.404" onmousemove="ShowTooltip(evt, 'TCF7L1: 0.404')" onmouseout="HideTooltip(evt)">
<path d="M308.7,-286.256C295.479,-236.913 259.152,-101.339 243.808,-44.0736" fill="none" stroke="#ffc1c1" stroke-width="3"/>
<polygon fill="#ffc1c1" points="246.477,-43.2152 241.702,-36.2125 241.068,-44.6647 246.477,-43.2152" stroke="#ffc1c1"/>
</a>
</g>
<!-- TWIST1_SNAI1 -->
<g class="node" id="node27">
<a class="remove10" onmousemove="ShowTooltip(evt, 'Z-value: 0.616')" onmouseout="HideTooltip(evt)" xlink:href="TWIST1_SNAI1.svg">
<polygon fill="#bdc4ff" points="421.922,-36 358.922,-36 346.922,-24 346.922,-12 358.922,-0 421.922,-0 433.922,-12 433.922,-24 421.922,-36" stroke="#bdc4ff" stroke-width="2"/>
<path d="M358.922,-36C352.922,-36 346.922,-30 346.922,-24" fill="#bdc4ff" stroke="#bdc4ff" stroke-width="2"/>
<path d="M346.922,-12C346.922,-6 352.922,-0 358.922,-0" fill="#bdc4ff" stroke="#bdc4ff" stroke-width="2"/>
<path d="M421.922,-0C427.922,-0 433.922,-6 433.922,-12" fill="#bdc4ff" stroke="#bdc4ff" stroke-width="2"/>
<path d="M433.922,-24C433.922,-30 427.922,-36 421.922,-36" fill="#bdc4ff" stroke="#bdc4ff" stroke-width="2"/>
<polyline fill="none" points="421.922,-36 358.922,-36 " stroke="white" stroke-width="2"/>
<path d="M358.922,-36C352.922,-36 346.922,-30 346.922,-24" fill="none" stroke="white" stroke-width="2"/>
<polyline fill="none" points="346.922,-24 346.922,-12 " stroke="white" stroke-width="2"/>
<path d="M346.922,-12C346.922,-6 352.922,-0 358.922,-0" fill="none" stroke="white" stroke-width="2"/>
<polyline fill="none" points="358.922,-0 421.922,-0 " stroke="white" stroke-width="2"/>
<path d="M421.922,-0C427.922,-0 433.922,-6 433.922,-12" fill="none" stroke="white" stroke-width="2"/>
<polyline fill="none" points="433.922,-12 433.922,-24 " stroke="white" stroke-width="2"/>
<path d="M433.922,-24C433.922,-30 427.922,-36 421.922,-36" fill="none" stroke="white" stroke-width="2"/>
<text font-family="Helvetica,sans-Serif" font-size="10.00" text-anchor="middle" x="390.422" y="-15.5">TWIST1_SNAI1</text>
</a>
</g>
<!-- MEIS2&#45;&gt;TWIST1_SNAI1 -->
<g class="edge" id="edge32">
<a class="remove10 root" ismara:data="0.302" onmousemove="ShowTooltip(evt, 'SNAI1: 0.302')" onmouseout="HideTooltip(evt)">
<path d="M318.543,-286.256C331.764,-236.913 368.091,-101.339 383.435,-44.0736" fill="none" stroke="#ffc4c4" stroke-width="3"/>
<polygon fill="#ffc4c4" points="386.175,-44.6647 385.541,-36.2125 380.766,-43.2152 386.175,-44.6647" stroke="#ffc4c4"/>
</a>
</g>
<!-- EVX2 -->
<g class="node" id="node30">
<a class="remove11" onmousemove="ShowTooltip(evt, 'Z-value: 0.196')" onmouseout="HideTooltip(evt)" xlink:href="EVX2.svg">
<polygon fill="#c7cdff" points="538.443,-112.8 508.443,-112.8 496.443,-100.8 496.443,-88.8 508.443,-76.8 538.443,-76.8 550.443,-88.8 550.443,-100.8 538.443,-112.8" stroke="#c7cdff" stroke-width="2"/>
<path d="M508.443,-112.8C502.443,-112.8 496.443,-106.8 496.443,-100.8" fill="#c7cdff" stroke="#c7cdff" stroke-width="2"/>
<path d="M496.443,-88.8C496.443,-82.8 502.443,-76.8 508.443,-76.8" fill="#c7cdff" stroke="#c7cdff" stroke-width="2"/>
<path d="M538.443,-76.8C544.443,-76.8 550.443,-82.8 550.443,-88.8" fill="#c7cdff" stroke="#c7cdff" stroke-width="2"/>
<path d="M550.443,-100.8C550.443,-106.8 544.443,-112.8 538.443,-112.8" fill="#c7cdff" stroke="#c7cdff" stroke-width="2"/>
<polyline fill="none" points="538.443,-112.8 508.443,-112.8 " stroke="white" stroke-width="2"/>
<path d="M508.443,-112.8C502.443,-112.8 496.443,-106.8 496.443,-100.8" fill="none" stroke="white" stroke-width="2"/>
<polyline fill="none" points="496.443,-100.8 496.443,-88.8 " stroke="white" stroke-width="2"/>
<path d="M496.443,-88.8C496.443,-82.8 502.443,-76.8 508.443,-76.8" fill="none" stroke="white" stroke-width="2"/>
<polyline fill="none" points="508.443,-76.8 538.443,-76.8 " stroke="white" stroke-width="2"/>
<path d="M538.443,-76.8C544.443,-76.8 550.443,-82.8 550.443,-88.8" fill="none" stroke="white" stroke-width="2"/>
<polyline fill="none" points="550.443,-88.8 550.443,-100.8 " stroke="white" stroke-width="2"/>
<path d="M550.443,-100.8C550.443,-106.8 544.443,-112.8 538.443,-112.8" fill="none" stroke="white" stroke-width="2"/>
<text font-family="Helvetica,sans-Serif" font-size="10.00" text-anchor="middle" x="523.443" y="-92.3">EVX2</text>
</a>
</g>
<!-- MEIS2&#45;&gt;EVX2 -->
<g class="edge" id="edge36">
<a class="remove11 root" ismara:data="0.31" onmousemove="ShowTooltip(evt, 'EVX2: 0.310')" onmouseout="HideTooltip(evt)">
<path d="M331.875,-286.368C369.869,-248.374 457.428,-160.815 499.724,-118.519" fill="none" stroke="#ffc4c4" stroke-width="3"/>
<polygon fill="#ffc4c4" points="501.704,-120.498 505.381,-112.862 497.745,-116.539 501.704,-120.498" stroke="#ffc4c4"/>
</a>
</g>
</g>
<rect height="14" id="tooltip_bg" style="fill: white; stroke: black; opacity: 0.8;" visibility="hidden"/><text id="tooltip" style="font-size: 10px;font-weight: bold;" visibility="hidden"></text><g id="plus" onclick="showSome();moveSlider();setThreshold();"><circle cx="22" cy="22" r="10" style="fill: #dddddd; opacity: 100%;"/><line stroke="#888888" stroke-width="2" x1="16" x2="28" y1="22" y2="22"/><line stroke="#888888" stroke-width="2" x1="22" x2="22" y1="16" y2="28"/></g><g id="minus" onclick="hideSome();moveSlider();setThreshold();"><circle cx="22" cy="595" r="10" style="fill: #dddddd; opacity: 100%;"/><line stroke="#888888" stroke-width="2" x1="16" x2="28" y1="595" y2="595"/></g><line id="slider_scale" onmousedown="jump_slider(evt)" stroke="#888888" stroke-width="5" x1="22" x2="22" y1="40" y2="577"/><circle cx="22" cy="50" id="slider" onmousedown="grab(evt)" onmouseout="release(evt)" onmouseup="release(evt)" r="15" style="fill:#922"/><script type="text/ecmascript"><![CDATA[
    var svgNS = "http://www.w3.org/2000/svg";
    var edge_num = 23;
    var counter = 0;
    var tooltip, tooltip_bg;

    function init(evt) {
        if ( window.svgDocument == null ) {
            svgDocument = evt.target.ownerDocument;
        }
        tooltip = svgDocument.getElementById('tooltip');
        tooltip_bg = svgDocument.getElementById('tooltip_bg');
        setThreshold();
    }

    function ShowTooltip(evt, txt) {
        var length = 0;
        var height;
        var tooltip_x = evt.pageX + 18;
        var tooltip_y = evt.pageY + 22;
        var bg_x = evt.pageX + 10;
        var bg_y = evt.pageY + 10;

        /* Clean toolip content */
        while (tooltip.lastChild) {
            tooltip.removeChild(tooltip.lastChild)
        }

        /* Populate tooltip with tspan elements and get longest of them */
        var text_elements = txt.split('|');
        for (var i = 0; i  < text_elements.length; i++) {
            var shift_y = 12;
            if (i == 0) {
                shift_y = 0;
            }
            var tspan_element = document.createElementNS(svgNS, "tspan");
            tspan_element.setAttributeNS(null, "dy", shift_y);
            tspan_element.setAttributeNS(null, "x", tooltip_x);
            var text_node = svgDocument.createTextNode(text_elements[i]);
            tspan_element.appendChild(text_node);
            tooltip.appendChild(tspan_element);
            var tspan_length = tspan_element.getComputedTextLength();
            if (tspan_length > length) {
                length = tspan_length
            }
        }
        /* add right margin to tooltip */
        length = length + 15;
        height = 12 * text_elements.length + 5;
        tooltip_bg.setAttributeNS(null,"width",length);
        tooltip_bg.setAttributeNS(null,"height",height);
        tooltip_bg.setAttributeNS(null,"x", bg_x);
        tooltip_bg.setAttributeNS(null,"y", bg_y);
        tooltip_bg.setAttributeNS(null,"visibility","visible");
        tooltip.setAttributeNS(null,"x", tooltip_x);
        tooltip.setAttributeNS(null,"y", tooltip_y);
        tooltip.setAttributeNS(null,"visibility","visible");
    }
    function HideTooltip() {
      tooltip.setAttributeNS(null,"visibility","hidden");
      tooltip_bg.setAttributeNS(null,"visibility","hidden");
    }

    /*** Hide/Show edges functions ***/

    function hideSome() {
      if (counter >= edge_num -1) {
        return 1;
      }
      var elements = svgDocument.getElementsByClassName('remove' + counter);
      for (var i = 0; i < elements.length; i++) {
        elements[i].setAttributeNS(null,"visibility","hidden");
      }
      counter = counter + 1;
    }

    function showSome() {
      if (counter <= 0) {
        return 1;
      }
      counter = counter - 1;
      var elements = svgDocument.getElementsByClassName('remove' + counter);
      for (var i = 0; i < elements.length; i++) {
        elements[i].setAttributeNS(null,"visibility","visible");
      }
    }

    function setThreshold() {
        var elements = svgDocument.getElementsByClassName('remove' + counter);
        var score = 0;
        for (var i = 0; i < elements.length; i++) {
            if (elements[i].classList.contains("root")){
                if (elements[i].hasAttributeNS("ismara.unibas.ch", "data")) {
                    score = elements[i].getAttributeNS("ismara.unibas.ch", "data");
                }
            } 
        }
        svgDocument.getElementById("score_indicator").textContent = "Score threshold: " + score;
    }

    /*** Slider functions ***/

    var slider_maxY = parseInt(document.getElementById("slider_scale").getAttributeNS(null, "y2"));
    var slider_minY = parseInt(document.getElementById("slider_scale").getAttributeNS(null, "y1"));
    var slider_r = parseInt(document.getElementById("slider").getAttributeNS(null, "r"));
    var coef = (edge_num - 1) / (slider_maxY - slider_minY - 2 * slider_r);

    function grab(evt){
        var element = evt.target;
        var Attr = {"onmousemove":"slide(evt,'"+element.id+"')"};
        assignAttr(element, Attr);
    }

    function release(evt){
        var element = evt.target;
        var Attr = {"onmousemove":null};
        assignAttr(element, Attr);
    }

    function assignAttr(obj,attr){
        for (i in attr) obj.setAttributeNS(null,i, attr[i]);
    }

    function slide(evt,id){
        var slider = evt.target;
        var y = evt.pageY;
        var new_counter = Math.floor((evt.pageY - slider_minY - slider_r) * coef);
        if (evt.pageY > (slider_maxY - slider_r)) {
            slider.setAttributeNS(null, "cy", (slider_maxY - slider_r));
            new_counter = edge_num;
        } else if(evt.pageY < (slider_minY + slider_r)) {
            slider.setAttributeNS(null, "cy", (slider_minY + slider_r));
            new_counter = 1;
        } else {
            slider.setAttributeNS(null, "cy", evt.pageY);
        }

        if (new_counter < counter) {
                showSome();
            counter = new_counter;
        }
        if (new_counter > counter) {
                hideSome();
            counter = new_counter;
        }
        setThreshold();
    }

    function moveSlider() {
        circle = document.getElementById("slider");
        circle.setAttributeNS(null, "cy",  slider_minY +  slider_r + (counter) / coef);
    }

    function jump_slider(evt) {
        var slider = document.getElementById("slider");
        var new_counter = Math.floor((evt.pageY - slider_minY - slider_r) * coef);
        if (evt.pageY > (slider_maxY - slider_r)) {
            slider.setAttributeNS(null, "cy", (slider_maxY - slider_r));
            new_counter = edge_num;
        } else if(evt.pageY < (slider_minY + slider_r)) {
             slider.setAttributeNS(null, "cy", (slider_minY + slider_r));
            new_counter = 1;
        } else {
            slider.setAttributeNS(null, "cy", evt.pageY);
        }

        if (new_counter > counter) {
            var d = new_counter - counter;
            for (var i = 0; i < d; i++){
                hideSome();
            }
            counter = new_counter;
        }
        if (new_counter < counter) {
            var d = counter - new_counter;
            for (var i = 0; i < d; i++){
                showSome();
            }
            counter = new_counter;
        }
        setThreshold();
    }
    ]]></script><text id="score_indicator" style="font-size: 10px;font-weight: bold;" x="10" y="627">Score threshold: 0</text><text id="info" style="font-size: 10px;font-weight: bold;" x="10" y="642">Use slider or -/+ buttons to hide/show edges.</text></svg>