<?xml version="1.0" encoding="UTF-8" standalone="no"?>
<!DOCTYPE svg PUBLIC "-//W3C//DTD SVG 1.1//EN"
 "http://www.w3.org/Graphics/SVG/1.1/DTD/svg11.dtd">
<!-- Generated by graphviz version 2.28.0 (20110630.0925)
 -->
<!-- Title: _anonymous_0 Pages: 1 -->
<svg width="739pt" height="687pt"
 viewBox="0.00 0.00 738.66 686.66" xmlns="http://www.w3.org/2000/svg" xmlns:xlink="http://www.w3.org/1999/xlink">
<g id="graph1" class="graph" transform="scale(1 1) rotate(0) translate(4 682.659)">
<title>_anonymous_0</title>
<polygon fill="white" stroke="white" points="-4,5 -4,-682.659 735.659,-682.659 735.659,5 -4,5"/>
<!-- FOXM1_TBL1XR1 -->
<g id="node1" class="node"><title>FOXM1_TBL1XR1</title>
<a xlink:href="FOXM1_TBL1XR1.svg" xlink:title="Z&#45;value: 2.140||remove10">
<polygon fill="#3247ff" stroke="#3247ff" stroke-width="2" points="470.93,-36 397.93,-36 385.93,-24 385.93,-12 397.93,-0 470.93,-0 482.93,-12 482.93,-24 470.93,-36"/>
<path fill="#3247ff" stroke="#3247ff" stroke-width="2" d="M397.93,-36C391.93,-36 385.93,-30 385.93,-24"/>
<path fill="#3247ff" stroke="#3247ff" stroke-width="2" d="M385.93,-12C385.93,-6 391.93,-0 397.93,-0"/>
<path fill="#3247ff" stroke="#3247ff" stroke-width="2" d="M470.93,-0C476.93,-0 482.93,-6 482.93,-12"/>
<path fill="#3247ff" stroke="#3247ff" stroke-width="2" d="M482.93,-24C482.93,-30 476.93,-36 470.93,-36"/>
<polyline fill="none" stroke="white" stroke-width="2" points="470.93,-36 397.93,-36 "/>
<path fill="none" stroke="white" stroke-width="2" d="M397.93,-36C391.93,-36 385.93,-30 385.93,-24"/>
<polyline fill="none" stroke="white" stroke-width="2" points="385.93,-24 385.93,-12 "/>
<path fill="none" stroke="white" stroke-width="2" d="M385.93,-12C385.93,-6 391.93,-0 397.93,-0"/>
<polyline fill="none" stroke="white" stroke-width="2" points="397.93,-0 470.93,-0 "/>
<path fill="none" stroke="white" stroke-width="2" d="M470.93,-0C476.93,-0 482.93,-6 482.93,-12"/>
<polyline fill="none" stroke="white" stroke-width="2" points="482.93,-12 482.93,-24 "/>
<path fill="none" stroke="white" stroke-width="2" d="M482.93,-24C482.93,-30 476.93,-36 470.93,-36"/>
<text text-anchor="middle" x="434.43" y="-15.5" font-family="Helvetica,sans-Serif" font-size="10.00" fill="white">FOXM1_TBL1XR1</text>
</a>
</g>
<!-- FOXO3_FOXD2 -->
<g id="node2" class="node"><title>FOXO3_FOXD2</title>
<a xlink:href="FOXO3_FOXD2.svg" xlink:title="Z&#45;value: 0.855||remove16">
<polygon fill="#8e9aff" stroke="#8e9aff" stroke-width="2" points="701.159,-443.43 638.159,-443.43 626.159,-431.43 626.159,-419.43 638.159,-407.43 701.159,-407.43 713.159,-419.43 713.159,-431.43 701.159,-443.43"/>
<path fill="#8e9aff" stroke="#8e9aff" stroke-width="2" d="M638.159,-443.43C632.159,-443.43 626.159,-437.43 626.159,-431.43"/>
<path fill="#8e9aff" stroke="#8e9aff" stroke-width="2" d="M626.159,-419.43C626.159,-413.43 632.159,-407.43 638.159,-407.43"/>
<path fill="#8e9aff" stroke="#8e9aff" stroke-width="2" d="M701.159,-407.43C707.159,-407.43 713.159,-413.43 713.159,-419.43"/>
<path fill="#8e9aff" stroke="#8e9aff" stroke-width="2" d="M713.159,-431.43C713.159,-437.43 707.159,-443.43 701.159,-443.43"/>
<polyline fill="none" stroke="white" stroke-width="2" points="701.159,-443.43 638.159,-443.43 "/>
<path fill="none" stroke="white" stroke-width="2" d="M638.159,-443.43C632.159,-443.43 626.159,-437.43 626.159,-431.43"/>
<polyline fill="none" stroke="white" stroke-width="2" points="626.159,-431.43 626.159,-419.43 "/>
<path fill="none" stroke="white" stroke-width="2" d="M626.159,-419.43C626.159,-413.43 632.159,-407.43 638.159,-407.43"/>
<polyline fill="none" stroke="white" stroke-width="2" points="638.159,-407.43 701.159,-407.43 "/>
<path fill="none" stroke="white" stroke-width="2" d="M701.159,-407.43C707.159,-407.43 713.159,-413.43 713.159,-419.43"/>
<polyline fill="none" stroke="white" stroke-width="2" points="713.159,-419.43 713.159,-431.43 "/>
<path fill="none" stroke="white" stroke-width="2" d="M713.159,-431.43C713.159,-437.43 707.159,-443.43 701.159,-443.43"/>
<text text-anchor="middle" x="669.659" y="-422.93" font-family="Helvetica,sans-Serif" font-size="10.00">FOXO3_FOXD2</text>
</a>
</g>
<!-- FOXM1_TBL1XR1&#45;&gt;FOXO3_FOXD2 -->
<g id="edge2" class="edge"><title>FOXM1_TBL1XR1&#45;&gt;FOXO3_FOXD2</title>
<a xlink:title="FOXO3: 0.128||remove10">
<path fill="none" stroke="#ebc2ff" stroke-width="3" d="M444.841,-36.0324C482.406,-101.098 611.058,-323.929 654.892,-399.853"/>
<polygon fill="#ebc2ff" stroke="#ebc2ff" points="652.677,-401.615 659.101,-407.143 657.526,-398.815 652.677,-401.615"/>
</a>
</g>
<!-- NFIA -->
<g id="node4" class="node"><title>NFIA</title>
<a xlink:href="NFIA.svg" xlink:title="Z&#45;value: 0.607||remove19">
<polygon fill="#a0aaff" stroke="#a0aaff" stroke-width="2" points="598.559,-592.559 568.559,-592.559 556.559,-580.559 556.559,-568.559 568.559,-556.559 598.559,-556.559 610.559,-568.559 610.559,-580.559 598.559,-592.559"/>
<path fill="#a0aaff" stroke="#a0aaff" stroke-width="2" d="M568.559,-592.559C562.559,-592.559 556.559,-586.559 556.559,-580.559"/>
<path fill="#a0aaff" stroke="#a0aaff" stroke-width="2" d="M556.559,-568.559C556.559,-562.559 562.559,-556.559 568.559,-556.559"/>
<path fill="#a0aaff" stroke="#a0aaff" stroke-width="2" d="M598.559,-556.559C604.559,-556.559 610.559,-562.559 610.559,-568.559"/>
<path fill="#a0aaff" stroke="#a0aaff" stroke-width="2" d="M610.559,-580.559C610.559,-586.559 604.559,-592.559 598.559,-592.559"/>
<polyline fill="none" stroke="white" stroke-width="2" points="598.559,-592.559 568.559,-592.559 "/>
<path fill="none" stroke="white" stroke-width="2" d="M568.559,-592.559C562.559,-592.559 556.559,-586.559 556.559,-580.559"/>
<polyline fill="none" stroke="white" stroke-width="2" points="556.559,-580.559 556.559,-568.559 "/>
<path fill="none" stroke="white" stroke-width="2" d="M556.559,-568.559C556.559,-562.559 562.559,-556.559 568.559,-556.559"/>
<polyline fill="none" stroke="white" stroke-width="2" points="568.559,-556.559 598.559,-556.559 "/>
<path fill="none" stroke="white" stroke-width="2" d="M598.559,-556.559C604.559,-556.559 610.559,-562.559 610.559,-568.559"/>
<polyline fill="none" stroke="white" stroke-width="2" points="610.559,-568.559 610.559,-580.559 "/>
<path fill="none" stroke="white" stroke-width="2" d="M610.559,-580.559C610.559,-586.559 604.559,-592.559 598.559,-592.559"/>
<text text-anchor="middle" x="583.559" y="-572.059" font-family="Helvetica,sans-Serif" font-size="10.00">NFIA</text>
</a>
</g>
<!-- FOXM1_TBL1XR1&#45;&gt;NFIA -->
<g id="edge4" class="edge"><title>FOXM1_TBL1XR1&#45;&gt;NFIA</title>
<a xlink:title="NFIA: 0.175||remove10">
<path fill="none" stroke="#eabeff" stroke-width="3" d="M439.307,-36.2013C461.256,-118.118 550.925,-452.766 576.637,-548.727"/>
<polygon fill="#eabeff" stroke="#eabeff" points="573.944,-549.494 578.719,-556.497 579.353,-548.045 573.944,-549.494"/>
</a>
</g>
<!-- PBX3 -->
<g id="node6" class="node"><title>PBX3</title>
<a xlink:href="PBX3.svg" xlink:title="Z&#45;value: 0.642||remove7">
<polygon fill="#9ea7ff" stroke="#9ea7ff" stroke-width="2" points="598.559,-122.1 568.559,-122.1 556.559,-110.1 556.559,-98.1 568.559,-86.1 598.559,-86.1 610.559,-98.1 610.559,-110.1 598.559,-122.1"/>
<path fill="#9ea7ff" stroke="#9ea7ff" stroke-width="2" d="M568.559,-122.1C562.559,-122.1 556.559,-116.1 556.559,-110.1"/>
<path fill="#9ea7ff" stroke="#9ea7ff" stroke-width="2" d="M556.559,-98.1C556.559,-92.1 562.559,-86.1 568.559,-86.1"/>
<path fill="#9ea7ff" stroke="#9ea7ff" stroke-width="2" d="M598.559,-86.1C604.559,-86.1 610.559,-92.1 610.559,-98.1"/>
<path fill="#9ea7ff" stroke="#9ea7ff" stroke-width="2" d="M610.559,-110.1C610.559,-116.1 604.559,-122.1 598.559,-122.1"/>
<polyline fill="none" stroke="white" stroke-width="2" points="598.559,-122.1 568.559,-122.1 "/>
<path fill="none" stroke="white" stroke-width="2" d="M568.559,-122.1C562.559,-122.1 556.559,-116.1 556.559,-110.1"/>
<polyline fill="none" stroke="white" stroke-width="2" points="556.559,-110.1 556.559,-98.1 "/>
<path fill="none" stroke="white" stroke-width="2" d="M556.559,-98.1C556.559,-92.1 562.559,-86.1 568.559,-86.1"/>
<polyline fill="none" stroke="white" stroke-width="2" points="568.559,-86.1 598.559,-86.1 "/>
<path fill="none" stroke="white" stroke-width="2" d="M598.559,-86.1C604.559,-86.1 610.559,-92.1 610.559,-98.1"/>
<polyline fill="none" stroke="white" stroke-width="2" points="610.559,-98.1 610.559,-110.1 "/>
<path fill="none" stroke="white" stroke-width="2" d="M610.559,-110.1C610.559,-116.1 604.559,-122.1 598.559,-122.1"/>
<text text-anchor="middle" x="583.559" y="-101.6" font-family="Helvetica,sans-Serif" font-size="10.00">PBX3</text>
</a>
</g>
<!-- FOXM1_TBL1XR1&#45;&gt;PBX3 -->
<g id="edge6" class="edge"><title>FOXM1_TBL1XR1&#45;&gt;PBX3</title>
<a xlink:title="PBX3: 0.004||remove0root">
<path fill="none" stroke="#eecbff" stroke-width="3" d="M465.692,-36.0494C490.101,-50.142 523.984,-69.7044 549.16,-84.2396"/>
<polygon fill="#eecbff" stroke="#eecbff" points="548.015,-86.8118 556.343,-88.387 550.815,-81.962 548.015,-86.8118"/>
</a>
</g>
<!-- FOXD1_FOXO1_FOXO6_FOXG1_FOXP1 -->
<g id="node8" class="node"><title>FOXD1_FOXO1_FOXO6_FOXG1_FOXP1</title>
<a xlink:href="FOXD1_FOXO1_FOXO6_FOXG1_FOXP1.svg" xlink:title="Z&#45;value: 0.656||remove15">
<polygon fill="#9da6ff" stroke="#9da6ff" stroke-width="2" points="523.43,-678.659 345.43,-678.659 333.43,-666.659 333.43,-654.659 345.43,-642.659 523.43,-642.659 535.43,-654.659 535.43,-666.659 523.43,-678.659"/>
<path fill="#9da6ff" stroke="#9da6ff" stroke-width="2" d="M345.43,-678.659C339.43,-678.659 333.43,-672.659 333.43,-666.659"/>
<path fill="#9da6ff" stroke="#9da6ff" stroke-width="2" d="M333.43,-654.659C333.43,-648.659 339.43,-642.659 345.43,-642.659"/>
<path fill="#9da6ff" stroke="#9da6ff" stroke-width="2" d="M523.43,-642.659C529.43,-642.659 535.43,-648.659 535.43,-654.659"/>
<path fill="#9da6ff" stroke="#9da6ff" stroke-width="2" d="M535.43,-666.659C535.43,-672.659 529.43,-678.659 523.43,-678.659"/>
<polyline fill="none" stroke="white" stroke-width="2" points="523.43,-678.659 345.43,-678.659 "/>
<path fill="none" stroke="white" stroke-width="2" d="M345.43,-678.659C339.43,-678.659 333.43,-672.659 333.43,-666.659"/>
<polyline fill="none" stroke="white" stroke-width="2" points="333.43,-666.659 333.43,-654.659 "/>
<path fill="none" stroke="white" stroke-width="2" d="M333.43,-654.659C333.43,-648.659 339.43,-642.659 345.43,-642.659"/>
<polyline fill="none" stroke="white" stroke-width="2" points="345.43,-642.659 523.43,-642.659 "/>
<path fill="none" stroke="white" stroke-width="2" d="M523.43,-642.659C529.43,-642.659 535.43,-648.659 535.43,-654.659"/>
<polyline fill="none" stroke="white" stroke-width="2" points="535.43,-654.659 535.43,-666.659 "/>
<path fill="none" stroke="white" stroke-width="2" d="M535.43,-666.659C535.43,-672.659 529.43,-678.659 523.43,-678.659"/>
<text text-anchor="middle" x="434.43" y="-658.159" font-family="Helvetica,sans-Serif" font-size="10.00">FOXD1_FOXO1_FOXO6_FOXG1_FOXP1</text>
</a>
</g>
<!-- FOXM1_TBL1XR1&#45;&gt;FOXD1_FOXO1_FOXO6_FOXG1_FOXP1 -->
<g id="edge8" class="edge"><title>FOXM1_TBL1XR1&#45;&gt;FOXD1_FOXO1_FOXO6_FOXG1_FOXP1</title>
<a xlink:title="FOXG1: 0.285||FOXP1: 0.254||remove10">
<path fill="none" stroke="#e7b5ff" stroke-width="3" d="M434.43,-36.1983C434.43,-126.598 434.43,-527.279 434.43,-634.303"/>
<polygon fill="#e7b5ff" stroke="#e7b5ff" points="431.63,-634.62 434.43,-642.62 437.23,-634.62 431.63,-634.62"/>
</a>
</g>
<!-- MEIS1 -->
<g id="node10" class="node"><title>MEIS1</title>
<a xlink:href="MEIS1.svg" xlink:title="Z&#45;value: 0.402||remove21">
<polygon fill="#ffafaf" stroke="#ffafaf" stroke-width="2" points="363.33,-357.33 333.33,-357.33 321.33,-345.33 321.33,-333.33 333.33,-321.33 363.33,-321.33 375.33,-333.33 375.33,-345.33 363.33,-357.33"/>
<path fill="#ffafaf" stroke="#ffafaf" stroke-width="2" d="M333.33,-357.33C327.33,-357.33 321.33,-351.33 321.33,-345.33"/>
<path fill="#ffafaf" stroke="#ffafaf" stroke-width="2" d="M321.33,-333.33C321.33,-327.33 327.33,-321.33 333.33,-321.33"/>
<path fill="#ffafaf" stroke="#ffafaf" stroke-width="2" d="M363.33,-321.33C369.33,-321.33 375.33,-327.33 375.33,-333.33"/>
<path fill="#ffafaf" stroke="#ffafaf" stroke-width="2" d="M375.33,-345.33C375.33,-351.33 369.33,-357.33 363.33,-357.33"/>
<polyline fill="none" stroke="white" stroke-width="2" points="363.33,-357.33 333.33,-357.33 "/>
<path fill="none" stroke="white" stroke-width="2" d="M333.33,-357.33C327.33,-357.33 321.33,-351.33 321.33,-345.33"/>
<polyline fill="none" stroke="white" stroke-width="2" points="321.33,-345.33 321.33,-333.33 "/>
<path fill="none" stroke="white" stroke-width="2" d="M321.33,-333.33C321.33,-327.33 327.33,-321.33 333.33,-321.33"/>
<polyline fill="none" stroke="white" stroke-width="2" points="333.33,-321.33 363.33,-321.33 "/>
<path fill="none" stroke="white" stroke-width="2" d="M363.33,-321.33C369.33,-321.33 375.33,-327.33 375.33,-333.33"/>
<polyline fill="none" stroke="white" stroke-width="2" points="375.33,-333.33 375.33,-345.33 "/>
<path fill="none" stroke="white" stroke-width="2" d="M375.33,-345.33C375.33,-351.33 369.33,-357.33 363.33,-357.33"/>
<text text-anchor="middle" x="348.33" y="-336.83" font-family="Helvetica,sans-Serif" font-size="10.00">MEIS1</text>
</a>
</g>
<!-- FOXM1_TBL1XR1&#45;&gt;MEIS1 -->
<g id="edge10" class="edge"><title>FOXM1_TBL1XR1&#45;&gt;MEIS1</title>
<a xlink:title="MEIS1: 0.103||remove10root">
<path fill="none" stroke="#c3c9ff" stroke-width="3" d="M429.554,-36.1967C415.084,-90.197 372.345,-249.704 355.383,-313.008"/>
<polygon fill="#c3c9ff" stroke="#c3c9ff" points="352.625,-312.482 353.259,-320.934 358.034,-313.931 352.625,-312.482"/>
</a>
</g>
<!-- MECP2 -->
<g id="node12" class="node"><title>MECP2</title>
<a xlink:href="MECP2.svg" xlink:title="Z&#45;value: 1.015||remove6">
<polygon fill="#838fff" stroke="#838fff" stroke-width="2" points="684.659,-271.23 654.659,-271.23 642.659,-259.23 642.659,-247.23 654.659,-235.23 684.659,-235.23 696.659,-247.23 696.659,-259.23 684.659,-271.23"/>
<path fill="#838fff" stroke="#838fff" stroke-width="2" d="M654.659,-271.23C648.659,-271.23 642.659,-265.23 642.659,-259.23"/>
<path fill="#838fff" stroke="#838fff" stroke-width="2" d="M642.659,-247.23C642.659,-241.23 648.659,-235.23 654.659,-235.23"/>
<path fill="#838fff" stroke="#838fff" stroke-width="2" d="M684.659,-235.23C690.659,-235.23 696.659,-241.23 696.659,-247.23"/>
<path fill="#838fff" stroke="#838fff" stroke-width="2" d="M696.659,-259.23C696.659,-265.23 690.659,-271.23 684.659,-271.23"/>
<polyline fill="none" stroke="white" stroke-width="2" points="684.659,-271.23 654.659,-271.23 "/>
<path fill="none" stroke="white" stroke-width="2" d="M654.659,-271.23C648.659,-271.23 642.659,-265.23 642.659,-259.23"/>
<polyline fill="none" stroke="white" stroke-width="2" points="642.659,-259.23 642.659,-247.23 "/>
<path fill="none" stroke="white" stroke-width="2" d="M642.659,-247.23C642.659,-241.23 648.659,-235.23 654.659,-235.23"/>
<polyline fill="none" stroke="white" stroke-width="2" points="654.659,-235.23 684.659,-235.23 "/>
<path fill="none" stroke="white" stroke-width="2" d="M684.659,-235.23C690.659,-235.23 696.659,-241.23 696.659,-247.23"/>
<polyline fill="none" stroke="white" stroke-width="2" points="696.659,-247.23 696.659,-259.23 "/>
<path fill="none" stroke="white" stroke-width="2" d="M696.659,-259.23C696.659,-265.23 690.659,-271.23 684.659,-271.23"/>
<text text-anchor="middle" x="669.659" y="-250.73" font-family="Helvetica,sans-Serif" font-size="10.00">MECP2</text>
</a>
</g>
<!-- FOXM1_TBL1XR1&#45;&gt;MECP2 -->
<g id="edge12" class="edge"><title>FOXM1_TBL1XR1&#45;&gt;MECP2</title>
<a xlink:title="MECP2: 0.113||TBL1XR1: 0.030||remove6">
<path fill="none" stroke="#ebc3ff" stroke-width="3" d="M458.924,-41.08C503.991,-86.1473 601.34,-183.496 646.482,-228.638"/>
<path fill="none" stroke="#edc9ff" stroke-width="3" d="M457.51,-42.4942C502.577,-87.5615 599.926,-184.91 645.068,-230.052"/>
<polygon fill="#edc9ff" stroke="#edc9ff" points="460.134,-39.7445 452.497,-36.0675 456.174,-43.7043 460.134,-39.7445"/>
<polygon fill="#ebc3ff" stroke="#ebc3ff" points="643.893,-231.424 651.53,-235.101 647.853,-227.464 643.893,-231.424"/>
</a>
</g>
<!-- FOXO3_FOXD2&#45;&gt;FOXO3_FOXD2 -->
<g id="edge30" class="edge"><title>FOXO3_FOXD2&#45;&gt;FOXO3_FOXD2</title>
<a xlink:title="FOXO3: 0.021||remove4root">
<path fill="none" stroke="#eecaff" stroke-width="3" d="M713.25,-432.031C723.287,-431.462 730.659,-429.262 730.659,-425.43 730.659,-422.735 727.014,-420.847 721.361,-419.766"/>
<polygon fill="#eecaff" stroke="#eecaff" points="721.519,-416.966 713.25,-418.828 720.876,-422.529 721.519,-416.966"/>
</a>
</g>
<!-- FOXO3_FOXD2&#45;&gt;FOXD1_FOXO1_FOXO6_FOXG1_FOXP1 -->
<g id="edge32" class="edge"><title>FOXO3_FOXD2&#45;&gt;FOXD1_FOXO1_FOXO6_FOXG1_FOXP1</title>
<a xlink:title="FOXP1: 0.996||FOXO1: 0.162||FOXG1: 0.041||FOXO3: 0.030||remove15">
<path fill="none" stroke="#d57eff" stroke-width="3" d="M646.579,-449.924C601.512,-494.991 504.163,-592.34 459.021,-637.482"/>
<path fill="none" stroke="#edc9ff" stroke-width="3" d="M645.165,-448.51C600.098,-493.577 502.749,-590.926 457.607,-636.068"/>
<polygon fill="#edc9ff" stroke="#edc9ff" points="647.915,-451.134 651.592,-443.497 643.955,-447.174 647.915,-451.134"/>
<polygon fill="#d57eff" stroke="#d57eff" points="456.236,-634.893 452.559,-642.53 460.195,-638.853 456.236,-634.893"/>
</a>
</g>
<!-- ARID5B -->
<g id="node21" class="node"><title>ARID5B</title>
<a xlink:href="ARID5B.svg" xlink:title="Z&#45;value: 0.249||remove20">
<polygon fill="#bac1ff" stroke="#bac1ff" stroke-width="2" points="42,-443.43 12,-443.43 6.39488e-14,-431.43 6.39488e-14,-419.43 12,-407.43 42,-407.43 54,-419.43 54,-431.43 42,-443.43"/>
<path fill="#bac1ff" stroke="#bac1ff" stroke-width="2" d="M12,-443.43C6,-443.43 6.39488e-14,-437.43 6.39488e-14,-431.43"/>
<path fill="#bac1ff" stroke="#bac1ff" stroke-width="2" d="M6.39488e-14,-419.43C6.39488e-14,-413.43 6,-407.43 12,-407.43"/>
<path fill="#bac1ff" stroke="#bac1ff" stroke-width="2" d="M42,-407.43C48,-407.43 54,-413.43 54,-419.43"/>
<path fill="#bac1ff" stroke="#bac1ff" stroke-width="2" d="M54,-431.43C54,-437.43 48,-443.43 42,-443.43"/>
<polyline fill="none" stroke="white" stroke-width="2" points="42,-443.43 12,-443.43 "/>
<path fill="none" stroke="white" stroke-width="2" d="M12,-443.43C6,-443.43 6.39488e-14,-437.43 6.39488e-14,-431.43"/>
<polyline fill="none" stroke="white" stroke-width="2" points="6.39488e-14,-431.43 6.39488e-14,-419.43 "/>
<path fill="none" stroke="white" stroke-width="2" d="M6.39488e-14,-419.43C6.39488e-14,-413.43 6,-407.43 12,-407.43"/>
<polyline fill="none" stroke="white" stroke-width="2" points="12,-407.43 42,-407.43 "/>
<path fill="none" stroke="white" stroke-width="2" d="M42,-407.43C48,-407.43 54,-413.43 54,-419.43"/>
<polyline fill="none" stroke="white" stroke-width="2" points="54,-419.43 54,-431.43 "/>
<path fill="none" stroke="white" stroke-width="2" d="M54,-431.43C54,-437.43 48,-443.43 42,-443.43"/>
<text text-anchor="middle" x="27" y="-422.93" font-family="Helvetica,sans-Serif" font-size="10.00">ARID5B</text>
</a>
</g>
<!-- FOXO3_FOXD2&#45;&gt;ARID5B -->
<g id="edge34" class="edge"><title>FOXO3_FOXD2&#45;&gt;ARID5B</title>
<a xlink:title="ARID5B: 1.973||remove16">
<path fill="none" stroke="#bd32ff" stroke-width="3" d="M625.992,-425.43C505.807,-425.43 171.81,-425.43 62.2843,-425.43"/>
<polygon fill="#bd32ff" stroke="#bd32ff" points="62.189,-422.63 54.189,-425.43 62.189,-428.23 62.189,-422.63"/>
</a>
</g>
<!-- NFIA&#45;&gt;FOXO3_FOXD2 -->
<g id="edge46" class="edge"><title>NFIA&#45;&gt;FOXO3_FOXD2</title>
<a xlink:title="FOXO3: 0.105||remove11root">
<path fill="none" stroke="#ecc3ff" stroke-width="3" d="M594.117,-556.273C609.351,-529.887 637.562,-481.023 654.866,-451.053"/>
<polygon fill="#ecc3ff" stroke="#ecc3ff" points="657.44,-452.194 659.015,-443.865 652.59,-449.394 657.44,-452.194"/>
</a>
</g>
<!-- PBX3&#45;&gt;FOXD1_FOXO1_FOXO6_FOXG1_FOXP1 -->
<g id="edge42" class="edge"><title>PBX3&#45;&gt;FOXD1_FOXO1_FOXO6_FOXG1_FOXP1</title>
<a xlink:title="FOXO1: 0.144||remove7">
<path fill="none" stroke="#ebc0ff" stroke-width="3" d="M578.682,-122.301C556.733,-204.218 467.064,-538.866 441.351,-634.827"/>
<polygon fill="#ebc0ff" stroke="#ebc0ff" points="438.635,-634.145 439.269,-642.597 444.045,-635.594 438.635,-634.145"/>
</a>
</g>
<!-- PBX3&#45;&gt;MEIS1 -->
<g id="edge44" class="edge"><title>PBX3&#45;&gt;MEIS1</title>
<a xlink:title="MEIS1: 0.086||remove7root">
<path fill="none" stroke="#c5cbff" stroke-width="3" d="M565.492,-122.167C523.502,-164.157 419.332,-268.327 372.186,-315.473"/>
<polygon fill="#c5cbff" stroke="#c5cbff" points="370.136,-313.564 366.459,-321.201 374.095,-317.524 370.136,-313.564"/>
</a>
</g>
<!-- FOXD1_FOXO1_FOXO6_FOXG1_FOXP1&#45;&gt;FOXD1_FOXO1_FOXO6_FOXG1_FOXP1 -->
<g id="edge38" class="edge"><title>FOXD1_FOXO1_FOXO6_FOXG1_FOXP1&#45;&gt;FOXD1_FOXO1_FOXO6_FOXG1_FOXP1</title>
<a xlink:title="FOXP1: 0.292||FOXO1: 0.176||remove15">
<path fill="none" stroke="#e7b5ff" stroke-width="3" d="M535.567,-666.295C546.438,-665.21 553.43,-663.331 553.43,-660.659 553.43,-658.739 549.817,-657.228 543.749,-656.127"/>
<polygon fill="#e7b5ff" stroke="#e7b5ff" points="543.87,-653.318 535.567,-655.023 543.121,-658.868 543.87,-653.318"/>
</a>
</g>
<!-- SOX13_SOX12 -->
<g id="node15" class="node"><title>SOX13_SOX12</title>
<a xlink:href="SOX13_SOX12.svg" xlink:title="Z&#45;value: 0.872||remove8">
<polygon fill="#8d98ff" stroke="#8d98ff" stroke-width="2" points="292.48,-678.659 231.98,-678.659 219.98,-666.659 219.98,-654.659 231.98,-642.659 292.48,-642.659 304.48,-654.659 304.48,-666.659 292.48,-678.659"/>
<path fill="#8d98ff" stroke="#8d98ff" stroke-width="2" d="M231.98,-678.659C225.98,-678.659 219.98,-672.659 219.98,-666.659"/>
<path fill="#8d98ff" stroke="#8d98ff" stroke-width="2" d="M219.98,-654.659C219.98,-648.659 225.98,-642.659 231.98,-642.659"/>
<path fill="#8d98ff" stroke="#8d98ff" stroke-width="2" d="M292.48,-642.659C298.48,-642.659 304.48,-648.659 304.48,-654.659"/>
<path fill="#8d98ff" stroke="#8d98ff" stroke-width="2" d="M304.48,-666.659C304.48,-672.659 298.48,-678.659 292.48,-678.659"/>
<polyline fill="none" stroke="white" stroke-width="2" points="292.48,-678.659 231.98,-678.659 "/>
<path fill="none" stroke="white" stroke-width="2" d="M231.98,-678.659C225.98,-678.659 219.98,-672.659 219.98,-666.659"/>
<polyline fill="none" stroke="white" stroke-width="2" points="219.98,-666.659 219.98,-654.659 "/>
<path fill="none" stroke="white" stroke-width="2" d="M219.98,-654.659C219.98,-648.659 225.98,-642.659 231.98,-642.659"/>
<polyline fill="none" stroke="white" stroke-width="2" points="231.98,-642.659 292.48,-642.659 "/>
<path fill="none" stroke="white" stroke-width="2" d="M292.48,-642.659C298.48,-642.659 304.48,-648.659 304.48,-654.659"/>
<polyline fill="none" stroke="white" stroke-width="2" points="304.48,-654.659 304.48,-666.659 "/>
<path fill="none" stroke="white" stroke-width="2" d="M304.48,-666.659C304.48,-672.659 298.48,-678.659 292.48,-678.659"/>
<text text-anchor="middle" x="262.23" y="-658.159" font-family="Helvetica,sans-Serif" font-size="10.00">SOX13_SOX12</text>
</a>
</g>
<!-- FOXD1_FOXO1_FOXO6_FOXG1_FOXP1&#45;&gt;SOX13_SOX12 -->
<g id="edge36" class="edge"><title>FOXD1_FOXO1_FOXO6_FOXG1_FOXP1&#45;&gt;SOX13_SOX12</title>
<a xlink:title="SOX12: 0.048||remove5root">
<path fill="none" stroke="#edc8ff" stroke-width="3" d="M333.264,-660.659C326.263,-660.659 319.4,-660.659 312.867,-660.659"/>
<polygon fill="#edc8ff" stroke="#edc8ff" points="312.782,-657.859 304.782,-660.659 312.782,-663.459 312.782,-657.859"/>
</a>
</g>
<!-- FOXD1_FOXO1_FOXO6_FOXG1_FOXP1&#45;&gt;ARID5B -->
<g id="edge40" class="edge"><title>FOXD1_FOXO1_FOXO6_FOXG1_FOXP1&#45;&gt;ARID5B</title>
<a xlink:title="ARID5B: 0.102||remove9root">
<path fill="none" stroke="#ecc4ff" stroke-width="3" d="M403.136,-642.592C328.222,-599.34 139.043,-490.118 61.2339,-445.195"/>
<polygon fill="#ecc4ff" stroke="#ecc4ff" points="62.3875,-442.627 54.0592,-441.052 59.5874,-447.477 62.3875,-442.627"/>
</a>
</g>
<!-- MEIS1&#45;&gt;FOXO3_FOXD2 -->
<g id="edge48" class="edge"><title>MEIS1&#45;&gt;FOXO3_FOXD2</title>
<a xlink:title="FOXO3: 0.125||remove16root">
<path fill="none" stroke="#ffc2c2" stroke-width="3" d="M375.449,-346.596C429.063,-360.962 549.385,-393.202 618.402,-411.695"/>
<polygon fill="#ffc2c2" stroke="#ffc2c2" points="617.694,-414.404 626.146,-413.77 619.143,-408.995 617.694,-414.404"/>
</a>
</g>
<!-- MEIS1&#45;&gt;NFIA -->
<g id="edge58" class="edge"><title>MEIS1&#45;&gt;NFIA</title>
<a xlink:title="NFIA: 0.222||remove19root">
<path fill="none" stroke="#ffbaba" stroke-width="3" d="M366.397,-357.397C408.387,-399.387 512.557,-503.557 559.703,-550.703"/>
<polygon fill="#ffbaba" stroke="#ffbaba" points="557.793,-552.753 565.43,-556.43 561.753,-548.793 557.793,-552.753"/>
</a>
</g>
<!-- MEIS1&#45;&gt;FOXD1_FOXO1_FOXO6_FOXG1_FOXP1 -->
<g id="edge60" class="edge"><title>MEIS1&#45;&gt;FOXD1_FOXO1_FOXO6_FOXG1_FOXP1</title>
<a xlink:title="FOXP1: 0.119||FOXG1: 0.013||remove15root">
<path fill="none" stroke="#ffc2c2" stroke-width="3" d="M353.205,-357.526C367.675,-411.527 410.415,-571.034 427.377,-634.337"/>
<polygon fill="#ffc2c2" stroke="#ffc2c2" points="424.725,-635.261 429.501,-642.264 430.135,-633.812 424.725,-635.261"/>
</a>
</g>
<!-- MEIS1&#45;&gt;SOX13_SOX12 -->
<g id="edge50" class="edge"><title>MEIS1&#45;&gt;SOX13_SOX12</title>
<a xlink:title="SOX13: 0.094||remove8root">
<path fill="none" stroke="#ffc4c4" stroke-width="3" d="M343.454,-357.526C328.984,-411.527 286.245,-571.034 269.283,-634.337"/>
<polygon fill="#ffc4c4" stroke="#ffc4c4" points="266.525,-633.812 267.159,-642.264 271.934,-635.261 266.525,-633.812"/>
</a>
</g>
<!-- EBF3 -->
<g id="node17" class="node"><title>EBF3</title>
<a xlink:href="EBF3.svg" xlink:title="Z&#45;value: 0.693||remove12">
<polygon fill="#9aa4ff" stroke="#9aa4ff" stroke-width="2" points="128.1,-592.559 98.1,-592.559 86.1,-580.559 86.1,-568.559 98.1,-556.559 128.1,-556.559 140.1,-568.559 140.1,-580.559 128.1,-592.559"/>
<path fill="#9aa4ff" stroke="#9aa4ff" stroke-width="2" d="M98.1,-592.559C92.1,-592.559 86.1,-586.559 86.1,-580.559"/>
<path fill="#9aa4ff" stroke="#9aa4ff" stroke-width="2" d="M86.1,-568.559C86.1,-562.559 92.1,-556.559 98.1,-556.559"/>
<path fill="#9aa4ff" stroke="#9aa4ff" stroke-width="2" d="M128.1,-556.559C134.1,-556.559 140.1,-562.559 140.1,-568.559"/>
<path fill="#9aa4ff" stroke="#9aa4ff" stroke-width="2" d="M140.1,-580.559C140.1,-586.559 134.1,-592.559 128.1,-592.559"/>
<polyline fill="none" stroke="white" stroke-width="2" points="128.1,-592.559 98.1,-592.559 "/>
<path fill="none" stroke="white" stroke-width="2" d="M98.1,-592.559C92.1,-592.559 86.1,-586.559 86.1,-580.559"/>
<polyline fill="none" stroke="white" stroke-width="2" points="86.1,-580.559 86.1,-568.559 "/>
<path fill="none" stroke="white" stroke-width="2" d="M86.1,-568.559C86.1,-562.559 92.1,-556.559 98.1,-556.559"/>
<polyline fill="none" stroke="white" stroke-width="2" points="98.1,-556.559 128.1,-556.559 "/>
<path fill="none" stroke="white" stroke-width="2" d="M128.1,-556.559C134.1,-556.559 140.1,-562.559 140.1,-568.559"/>
<polyline fill="none" stroke="white" stroke-width="2" points="140.1,-568.559 140.1,-580.559 "/>
<path fill="none" stroke="white" stroke-width="2" d="M140.1,-580.559C140.1,-586.559 134.1,-592.559 128.1,-592.559"/>
<text text-anchor="middle" x="113.1" y="-572.059" font-family="Helvetica,sans-Serif" font-size="10.00">EBF3</text>
</a>
</g>
<!-- MEIS1&#45;&gt;EBF3 -->
<g id="edge52" class="edge"><title>MEIS1&#45;&gt;EBF3</title>
<a xlink:title="EBF3: 0.107||remove12root">
<path fill="none" stroke="#ffc3c3" stroke-width="3" d="M330.262,-357.397C288.272,-399.387 184.103,-503.557 136.956,-550.703"/>
<polygon fill="#ffc3c3" stroke="#ffc3c3" points="134.906,-548.793 131.229,-556.43 138.866,-552.753 134.906,-548.793"/>
</a>
</g>
<!-- MEIS1&#45;&gt;ARID5B -->
<g id="edge62" class="edge"><title>MEIS1&#45;&gt;ARID5B</title>
<a xlink:title="ARID5B: 0.254||remove20root">
<path fill="none" stroke="#ffb8b8" stroke-width="3" d="M321.21,-346.596C263.17,-362.148 126.955,-398.647 62.2816,-415.976"/>
<polygon fill="#ffb8b8" stroke="#ffb8b8" points="61.3904,-413.316 54.3877,-418.091 62.8398,-418.725 61.3904,-413.316"/>
</a>
</g>
<!-- TCF7L1 -->
<g id="node23" class="node"><title>TCF7L1</title>
<a xlink:href="TCF7L1.svg" xlink:title="Z&#45;value: 0.609||remove17">
<polygon fill="#a0a9ff" stroke="#a0a9ff" stroke-width="2" points="42,-271.23 12,-271.23 0,-259.23 0,-247.23 12,-235.23 42,-235.23 54,-247.23 54,-259.23 42,-271.23"/>
<path fill="#a0a9ff" stroke="#a0a9ff" stroke-width="2" d="M12,-271.23C6,-271.23 0,-265.23 0,-259.23"/>
<path fill="#a0a9ff" stroke="#a0a9ff" stroke-width="2" d="M0,-247.23C0,-241.23 6,-235.23 12,-235.23"/>
<path fill="#a0a9ff" stroke="#a0a9ff" stroke-width="2" d="M42,-235.23C48,-235.23 54,-241.23 54,-247.23"/>
<path fill="#a0a9ff" stroke="#a0a9ff" stroke-width="2" d="M54,-259.23C54,-265.23 48,-271.23 42,-271.23"/>
<polyline fill="none" stroke="white" stroke-width="2" points="42,-271.23 12,-271.23 "/>
<path fill="none" stroke="white" stroke-width="2" d="M12,-271.23C6,-271.23 0,-265.23 0,-259.23"/>
<polyline fill="none" stroke="white" stroke-width="2" points="0,-259.23 0,-247.23 "/>
<path fill="none" stroke="white" stroke-width="2" d="M0,-247.23C0,-241.23 6,-235.23 12,-235.23"/>
<polyline fill="none" stroke="white" stroke-width="2" points="12,-235.23 42,-235.23 "/>
<path fill="none" stroke="white" stroke-width="2" d="M42,-235.23C48,-235.23 54,-241.23 54,-247.23"/>
<polyline fill="none" stroke="white" stroke-width="2" points="54,-247.23 54,-259.23 "/>
<path fill="none" stroke="white" stroke-width="2" d="M54,-259.23C54,-265.23 48,-271.23 42,-271.23"/>
<text text-anchor="middle" x="27" y="-250.73" font-family="Helvetica,sans-Serif" font-size="10.00">TCF7L1</text>
</a>
</g>
<!-- MEIS1&#45;&gt;TCF7L1 -->
<g id="edge64" class="edge"><title>MEIS1&#45;&gt;TCF7L1</title>
<a xlink:title="TCF7L1: 0.127||remove17root">
<path fill="none" stroke="#ffc2c2" stroke-width="3" d="M321.21,-332.063C263.17,-316.511 126.955,-280.012 62.2816,-262.683"/>
<polygon fill="#ffc2c2" stroke="#ffc2c2" points="62.8398,-259.934 54.3877,-260.568 61.3904,-265.343 62.8398,-259.934"/>
</a>
</g>
<!-- EVX2 -->
<g id="node38" class="node"><title>EVX2</title>
<a xlink:href="EVX2.svg" xlink:title="Z&#45;value: 0.196||remove14">
<polygon fill="#bec4ff" stroke="#bec4ff" stroke-width="2" points="128.1,-122.1 98.1,-122.1 86.1,-110.1 86.1,-98.1 98.1,-86.1 128.1,-86.1 140.1,-98.1 140.1,-110.1 128.1,-122.1"/>
<path fill="#bec4ff" stroke="#bec4ff" stroke-width="2" d="M98.1,-122.1C92.1,-122.1 86.1,-116.1 86.1,-110.1"/>
<path fill="#bec4ff" stroke="#bec4ff" stroke-width="2" d="M86.1,-98.1C86.1,-92.1 92.1,-86.1 98.1,-86.1"/>
<path fill="#bec4ff" stroke="#bec4ff" stroke-width="2" d="M128.1,-86.1C134.1,-86.1 140.1,-92.1 140.1,-98.1"/>
<path fill="#bec4ff" stroke="#bec4ff" stroke-width="2" d="M140.1,-110.1C140.1,-116.1 134.1,-122.1 128.1,-122.1"/>
<polyline fill="none" stroke="white" stroke-width="2" points="128.1,-122.1 98.1,-122.1 "/>
<path fill="none" stroke="white" stroke-width="2" d="M98.1,-122.1C92.1,-122.1 86.1,-116.1 86.1,-110.1"/>
<polyline fill="none" stroke="white" stroke-width="2" points="86.1,-110.1 86.1,-98.1 "/>
<path fill="none" stroke="white" stroke-width="2" d="M86.1,-98.1C86.1,-92.1 92.1,-86.1 98.1,-86.1"/>
<polyline fill="none" stroke="white" stroke-width="2" points="98.1,-86.1 128.1,-86.1 "/>
<path fill="none" stroke="white" stroke-width="2" d="M128.1,-86.1C134.1,-86.1 140.1,-92.1 140.1,-98.1"/>
<polyline fill="none" stroke="white" stroke-width="2" points="140.1,-98.1 140.1,-110.1 "/>
<path fill="none" stroke="white" stroke-width="2" d="M140.1,-110.1C140.1,-116.1 134.1,-122.1 128.1,-122.1"/>
<text text-anchor="middle" x="113.1" y="-101.6" font-family="Helvetica,sans-Serif" font-size="10.00">EVX2</text>
</a>
</g>
<!-- MEIS1&#45;&gt;EVX2 -->
<g id="edge54" class="edge"><title>MEIS1&#45;&gt;EVX2</title>
<a xlink:title="EVX2: 0.117||remove14root">
<path fill="none" stroke="#ffc2c2" stroke-width="3" d="M330.262,-321.262C288.272,-279.272 184.103,-175.103 136.956,-127.956"/>
<polygon fill="#ffc2c2" stroke="#ffc2c2" points="138.866,-125.906 131.229,-122.229 134.906,-129.866 138.866,-125.906"/>
</a>
</g>
<!-- TWIST1_SNAI1 -->
<g id="node40" class="node"><title>TWIST1_SNAI1</title>
<a xlink:href="TWIST1_SNAI1.svg" xlink:title="Z&#45;value: 0.616||remove18">
<polygon fill="#9fa9ff" stroke="#9fa9ff" stroke-width="2" points="293.73,-36 230.73,-36 218.73,-24 218.73,-12 230.73,-1.27898e-13 293.73,-1.27898e-13 305.73,-12 305.73,-24 293.73,-36"/>
<path fill="#9fa9ff" stroke="#9fa9ff" stroke-width="2" d="M230.73,-36C224.73,-36 218.73,-30 218.73,-24"/>
<path fill="#9fa9ff" stroke="#9fa9ff" stroke-width="2" d="M218.73,-12C218.73,-6 224.73,-1.27898e-13 230.73,-1.27898e-13"/>
<path fill="#9fa9ff" stroke="#9fa9ff" stroke-width="2" d="M293.73,-1.27898e-13C299.73,-1.27898e-13 305.73,-6 305.73,-12"/>
<path fill="#9fa9ff" stroke="#9fa9ff" stroke-width="2" d="M305.73,-24C305.73,-30 299.73,-36 293.73,-36"/>
<polyline fill="none" stroke="white" stroke-width="2" points="293.73,-36 230.73,-36 "/>
<path fill="none" stroke="white" stroke-width="2" d="M230.73,-36C224.73,-36 218.73,-30 218.73,-24"/>
<polyline fill="none" stroke="white" stroke-width="2" points="218.73,-24 218.73,-12 "/>
<path fill="none" stroke="white" stroke-width="2" d="M218.73,-12C218.73,-6 224.73,-1.27898e-13 230.73,-1.27898e-13"/>
<polyline fill="none" stroke="white" stroke-width="2" points="230.73,-1.27898e-13 293.73,-1.27898e-13 "/>
<path fill="none" stroke="white" stroke-width="2" d="M293.73,-1.27898e-13C299.73,-1.27898e-13 305.73,-6 305.73,-12"/>
<polyline fill="none" stroke="white" stroke-width="2" points="305.73,-12 305.73,-24 "/>
<path fill="none" stroke="white" stroke-width="2" d="M305.73,-24C305.73,-30 299.73,-36 293.73,-36"/>
<text text-anchor="middle" x="262.23" y="-15.5" font-family="Helvetica,sans-Serif" font-size="10.00">TWIST1_SNAI1</text>
</a>
</g>
<!-- MEIS1&#45;&gt;TWIST1_SNAI1 -->
<g id="edge56" class="edge"><title>MEIS1&#45;&gt;TWIST1_SNAI1</title>
<a xlink:title="SNAI1: 0.072||MEIS1: 0.174||remove18root">
<path fill="none" stroke="#ffc6c6" stroke-width="3" d="M340.373,-313.498C324.233,-253.264 284.519,-105.05 268.318,-44.5854"/>
<path fill="none" stroke="#bec4ff" stroke-width="3" d="M342.305,-312.981C326.165,-252.746 286.451,-104.532 270.25,-44.0677"/>
<polygon fill="#bec4ff" stroke="#bec4ff" points="338.679,-314.13 343.454,-321.133 344.088,-312.681 338.679,-314.13"/>
<polygon fill="#ffc6c6" stroke="#ffc6c6" points="271.934,-43.3981 267.159,-36.3955 266.525,-44.8476 271.934,-43.3981"/>
</a>
</g>
<!-- MECP2&#45;&gt;FOXO3_FOXD2 -->
<g id="edge14" class="edge"><title>MECP2&#45;&gt;FOXO3_FOXD2</title>
<a xlink:title="FOXO3: 0.147||remove6">
<path fill="none" stroke="#ebc0ff" stroke-width="3" d="M669.659,-271.333C669.659,-301.821 669.659,-363.541 669.659,-398.919"/>
<polygon fill="#ebc0ff" stroke="#ebc0ff" points="666.859,-399.311 669.659,-407.311 672.459,-399.311 666.859,-399.311"/>
</a>
</g>
<!-- MECP2&#45;&gt;NFIA -->
<g id="edge20" class="edge"><title>MECP2&#45;&gt;NFIA</title>
<a xlink:title="NFIA: 0.018||remove3root">
<path fill="none" stroke="#eecaff" stroke-width="3" d="M662.635,-271.642C652.038,-299.909 631.803,-355.843 618.619,-404.55 604.973,-454.966 593.734,-515.039 587.898,-548.586"/>
<polygon fill="#eecaff" stroke="#eecaff" points="585.13,-548.163 586.533,-556.522 590.649,-549.113 585.13,-548.163"/>
</a>
</g>
<!-- MECP2&#45;&gt;FOXD1_FOXO1_FOXO6_FOXG1_FOXP1 -->
<g id="edge22" class="edge"><title>MECP2&#45;&gt;FOXD1_FOXO1_FOXO6_FOXG1_FOXP1</title>
<a xlink:title="FOXO6: 0.392||FOXO1: 0.090||FOXD1: 0.060||FOXP1: 0.053||FOXG1: 0.028||remove6">
<path fill="none" stroke="#e4adff" stroke-width="3" d="M659.248,-271.262C621.683,-336.327 493.031,-559.159 449.196,-635.082"/>
<polygon fill="#e4adff" stroke="#e4adff" points="446.562,-634.044 444.987,-642.373 451.412,-636.845 446.562,-634.044"/>
</a>
</g>
<!-- MECP2&#45;&gt;MEIS1 -->
<g id="edge28" class="edge"><title>MECP2&#45;&gt;MEIS1</title>
<a xlink:title="MEIS1: 0.085||remove6root">
<path fill="none" stroke="#c5cbff" stroke-width="3" d="M642.54,-260.496C584.5,-276.048 448.285,-312.547 383.611,-329.876"/>
<polygon fill="#c5cbff" stroke="#c5cbff" points="382.72,-327.216 375.717,-331.991 384.169,-332.625 382.72,-327.216"/>
</a>
</g>
<!-- MECP2&#45;&gt;SOX13_SOX12 -->
<g id="edge16" class="edge"><title>MECP2&#45;&gt;SOX13_SOX12</title>
<a xlink:title="SOX12: 0.013||remove2root">
<path fill="none" stroke="#eecaff" stroke-width="3" d="M651.627,-271.262C586.167,-336.721 361.023,-561.865 286.442,-636.447"/>
<polygon fill="#eecaff" stroke="#eecaff" points="284.193,-634.736 280.516,-642.373 288.153,-638.696 284.193,-634.736"/>
</a>
</g>
<!-- MECP2&#45;&gt;EBF3 -->
<g id="edge18" class="edge"><title>MECP2&#45;&gt;EBF3</title>
<a xlink:title="EBF3: 0.242||remove6">
<path fill="none" stroke="#e8b9ff" stroke-width="3" d="M642.438,-268.945C550.154,-322.226 249.25,-495.953 147.262,-554.836"/>
<polygon fill="#e8b9ff" stroke="#e8b9ff" points="145.797,-552.449 140.268,-558.874 148.597,-557.298 145.797,-552.449"/>
</a>
</g>
<!-- MECP2&#45;&gt;ARID5B -->
<g id="edge24" class="edge"><title>MECP2&#45;&gt;ARID5B</title>
<a xlink:title="ARID5B: 0.120||remove6">
<path fill="none" stroke="#ebc2ff" stroke-width="3" d="M642.578,-264.996C591.867,-286.626 478.746,-332.982 379.65,-360.21 265.596,-391.546 126.62,-412.29 62.5166,-420.905"/>
<polygon fill="#ebc2ff" stroke="#ebc2ff" points="61.905,-418.162 54.3441,-421.992 62.6434,-423.713 61.905,-418.162"/>
</a>
</g>
<!-- MECP2&#45;&gt;TCF7L1 -->
<g id="edge26" class="edge"><title>MECP2&#45;&gt;TCF7L1</title>
<a xlink:title="TCF7L1: 0.739||remove6">
<path fill="none" stroke="#dc92ff" stroke-width="3" d="M642.455,-253.23C540.019,-253.23 177.528,-253.23 62.3825,-253.23"/>
<polygon fill="#dc92ff" stroke="#dc92ff" points="62.2106,-250.43 54.2106,-253.23 62.2105,-256.03 62.2106,-250.43"/>
</a>
</g>
<!-- TCF7L1&#45;&gt;FOXO3_FOXD2 -->
<g id="edge66" class="edge"><title>TCF7L1&#45;&gt;FOXO3_FOXD2</title>
<a xlink:title="FOXO3: 0.113||remove13root">
<path fill="none" stroke="#ebc3ff" stroke-width="3" d="M54.0808,-264.996C104.792,-286.626 217.913,-332.982 317.01,-360.21 422.153,-389.098 548.478,-408.984 617.797,-418.665"/>
<polygon fill="#ebc3ff" stroke="#ebc3ff" points="617.654,-421.472 625.962,-419.795 618.422,-415.925 617.654,-421.472"/>
</a>
</g>
<!-- TWIST1_SNAI1&#45;&gt;SOX13_SOX12 -->
<g id="edge68" class="edge"><title>TWIST1_SNAI1&#45;&gt;SOX13_SOX12</title>
<a xlink:title="SOX12: 0.012||remove1root">
<path fill="none" stroke="#eecbff" stroke-width="3" d="M262.23,-36.1983C262.23,-126.598 262.23,-527.279 262.23,-634.303"/>
<polygon fill="#eecbff" stroke="#eecbff" points="259.43,-634.62 262.23,-642.62 265.03,-634.62 259.43,-634.62"/>
</a>
</g>
</g>
</svg>
