<?xml version="1.0" encoding="UTF-8" standalone="no"?>
<!DOCTYPE svg PUBLIC "-//W3C//DTD SVG 1.1//EN"
 "http://www.w3.org/Graphics/SVG/1.1/DTD/svg11.dtd">
<!-- Generated by graphviz version 2.28.0 (20110630.0925)
 -->
<!-- Title: _anonymous_0 Pages: 1 -->
<svg width="452pt" height="416pt"
 viewBox="0.00 0.00 451.71 415.71" xmlns="http://www.w3.org/2000/svg" xmlns:xlink="http://www.w3.org/1999/xlink">
<g id="graph1" class="graph" transform="scale(1 1) rotate(0) translate(4 411.712)">
<title>_anonymous_0</title>
<polygon fill="white" stroke="white" points="-4,5 -4,-411.712 448.712,-411.712 448.712,5 -4,5"/>
<!-- ESRRA_ESR2 -->
<g id="node1" class="node"><title>ESRRA_ESR2</title>
<a xlink:href="ESRRA_ESR2.svg" xlink:title="Z&#45;value: 3.814||remove31">
<polygon fill="#3247ff" stroke="#3247ff" stroke-width="2" points="291.906,-407.712 233.406,-407.712 221.406,-395.712 221.406,-383.712 233.406,-371.712 291.906,-371.712 303.906,-383.712 303.906,-395.712 291.906,-407.712"/>
<path fill="#3247ff" stroke="#3247ff" stroke-width="2" d="M233.406,-407.712C227.406,-407.712 221.406,-401.712 221.406,-395.712"/>
<path fill="#3247ff" stroke="#3247ff" stroke-width="2" d="M221.406,-383.712C221.406,-377.712 227.406,-371.712 233.406,-371.712"/>
<path fill="#3247ff" stroke="#3247ff" stroke-width="2" d="M291.906,-371.712C297.906,-371.712 303.906,-377.712 303.906,-383.712"/>
<path fill="#3247ff" stroke="#3247ff" stroke-width="2" d="M303.906,-395.712C303.906,-401.712 297.906,-407.712 291.906,-407.712"/>
<polyline fill="none" stroke="white" stroke-width="2" points="291.906,-407.712 233.406,-407.712 "/>
<path fill="none" stroke="white" stroke-width="2" d="M233.406,-407.712C227.406,-407.712 221.406,-401.712 221.406,-395.712"/>
<polyline fill="none" stroke="white" stroke-width="2" points="221.406,-395.712 221.406,-383.712 "/>
<path fill="none" stroke="white" stroke-width="2" d="M221.406,-383.712C221.406,-377.712 227.406,-371.712 233.406,-371.712"/>
<polyline fill="none" stroke="white" stroke-width="2" points="233.406,-371.712 291.906,-371.712 "/>
<path fill="none" stroke="white" stroke-width="2" d="M291.906,-371.712C297.906,-371.712 303.906,-377.712 303.906,-383.712"/>
<polyline fill="none" stroke="white" stroke-width="2" points="303.906,-383.712 303.906,-395.712 "/>
<path fill="none" stroke="white" stroke-width="2" d="M303.906,-395.712C303.906,-401.712 297.906,-407.712 291.906,-407.712"/>
<text text-anchor="middle" x="262.656" y="-387.212" font-family="Helvetica,sans-Serif" font-size="10.00" fill="white">ESRRA_ESR2</text>
</a>
</g>
<!-- NFE2L1 -->
<g id="node2" class="node"><title>NFE2L1</title>
<a xlink:href="NFE2L1.svg" xlink:title="Z&#45;value: 0.797||remove32">
<polygon fill="#ffacac" stroke="#ffacac" stroke-width="2" points="227.856,-221.856 197.856,-221.856 185.856,-209.856 185.856,-197.856 197.856,-185.856 227.856,-185.856 239.856,-197.856 239.856,-209.856 227.856,-221.856"/>
<path fill="#ffacac" stroke="#ffacac" stroke-width="2" d="M197.856,-221.856C191.856,-221.856 185.856,-215.856 185.856,-209.856"/>
<path fill="#ffacac" stroke="#ffacac" stroke-width="2" d="M185.856,-197.856C185.856,-191.856 191.856,-185.856 197.856,-185.856"/>
<path fill="#ffacac" stroke="#ffacac" stroke-width="2" d="M227.856,-185.856C233.856,-185.856 239.856,-191.856 239.856,-197.856"/>
<path fill="#ffacac" stroke="#ffacac" stroke-width="2" d="M239.856,-209.856C239.856,-215.856 233.856,-221.856 227.856,-221.856"/>
<polyline fill="none" stroke="white" stroke-width="2" points="227.856,-221.856 197.856,-221.856 "/>
<path fill="none" stroke="white" stroke-width="2" d="M197.856,-221.856C191.856,-221.856 185.856,-215.856 185.856,-209.856"/>
<polyline fill="none" stroke="white" stroke-width="2" points="185.856,-209.856 185.856,-197.856 "/>
<path fill="none" stroke="white" stroke-width="2" d="M185.856,-197.856C185.856,-191.856 191.856,-185.856 197.856,-185.856"/>
<polyline fill="none" stroke="white" stroke-width="2" points="197.856,-185.856 227.856,-185.856 "/>
<path fill="none" stroke="white" stroke-width="2" d="M227.856,-185.856C233.856,-185.856 239.856,-191.856 239.856,-197.856"/>
<polyline fill="none" stroke="white" stroke-width="2" points="239.856,-197.856 239.856,-209.856 "/>
<path fill="none" stroke="white" stroke-width="2" d="M239.856,-209.856C239.856,-215.856 233.856,-221.856 227.856,-221.856"/>
<text text-anchor="middle" x="212.856" y="-201.356" font-family="Helvetica,sans-Serif" font-size="10.00">NFE2L1</text>
</a>
</g>
<!-- ESRRA_ESR2&#45;&gt;NFE2L1 -->
<g id="edge2" class="edge"><title>ESRRA_ESR2&#45;&gt;NFE2L1</title>
<a xlink:title="NFE2L1: 0.785||remove31root">
<path fill="none" stroke="#7381ff" stroke-width="3" d="M257.79,-371.553C248.939,-338.52 230.173,-268.485 219.915,-230.201"/>
<polygon fill="#7381ff" stroke="#7381ff" points="222.517,-229.092 217.742,-222.089 217.108,-230.541 222.517,-229.092"/>
</a>
</g>
<!-- RCOR1_MTA3 -->
<g id="node4" class="node"><title>RCOR1_MTA3</title>
<a xlink:href="RCOR1_MTA3.svg" xlink:title="Z&#45;value: 1.731||remove20">
<polygon fill="#8692ff" stroke="#8692ff" stroke-width="2" points="192.306,-407.712 133.806,-407.712 121.806,-395.712 121.806,-383.712 133.806,-371.712 192.306,-371.712 204.306,-383.712 204.306,-395.712 192.306,-407.712"/>
<path fill="#8692ff" stroke="#8692ff" stroke-width="2" d="M133.806,-407.712C127.806,-407.712 121.806,-401.712 121.806,-395.712"/>
<path fill="#8692ff" stroke="#8692ff" stroke-width="2" d="M121.806,-383.712C121.806,-377.712 127.806,-371.712 133.806,-371.712"/>
<path fill="#8692ff" stroke="#8692ff" stroke-width="2" d="M192.306,-371.712C198.306,-371.712 204.306,-377.712 204.306,-383.712"/>
<path fill="#8692ff" stroke="#8692ff" stroke-width="2" d="M204.306,-395.712C204.306,-401.712 198.306,-407.712 192.306,-407.712"/>
<polyline fill="none" stroke="white" stroke-width="2" points="192.306,-407.712 133.806,-407.712 "/>
<path fill="none" stroke="white" stroke-width="2" d="M133.806,-407.712C127.806,-407.712 121.806,-401.712 121.806,-395.712"/>
<polyline fill="none" stroke="white" stroke-width="2" points="121.806,-395.712 121.806,-383.712 "/>
<path fill="none" stroke="white" stroke-width="2" d="M121.806,-383.712C121.806,-377.712 127.806,-371.712 133.806,-371.712"/>
<polyline fill="none" stroke="white" stroke-width="2" points="133.806,-371.712 192.306,-371.712 "/>
<path fill="none" stroke="white" stroke-width="2" d="M192.306,-371.712C198.306,-371.712 204.306,-377.712 204.306,-383.712"/>
<polyline fill="none" stroke="white" stroke-width="2" points="204.306,-383.712 204.306,-395.712 "/>
<path fill="none" stroke="white" stroke-width="2" d="M204.306,-395.712C204.306,-401.712 198.306,-407.712 192.306,-407.712"/>
<text text-anchor="middle" x="163.056" y="-387.212" font-family="Helvetica,sans-Serif" font-size="10.00">RCOR1_MTA3</text>
</a>
</g>
<!-- ESRRA_ESR2&#45;&gt;RCOR1_MTA3 -->
<g id="edge4" class="edge"><title>ESRRA_ESR2&#45;&gt;RCOR1_MTA3</title>
<a xlink:title="MTA3: 0.083||ESRRA: 0.308||ESR2: 0.004||remove20">
<path fill="none" stroke="#ebc2ff" stroke-width="3" d="M213.035,-390.706C212.948,-390.712 212.862,-390.712 212.776,-390.706"/>
<path fill="none" stroke="#e3a9ff" stroke-width="3" d="M213.035,-388.719C212.948,-388.712 212.862,-388.712 212.776,-388.719"/>
<polygon fill="#e3a9ff" stroke="#e3a9ff" points="213.282,-392.512 221.282,-389.712 213.282,-386.912 213.282,-392.512"/>
<polygon fill="#ebc2ff" stroke="#ebc2ff" points="212.783,-386.912 204.783,-389.712 212.783,-392.512 212.783,-386.912"/>
</a>
</g>
<!-- POU5F1_POU2F3 -->
<g id="node6" class="node"><title>POU5F1_POU2F3</title>
<a xlink:href="POU5F1_POU2F3.svg" xlink:title="Z&#45;value: 0.774||remove28">
<polygon fill="#acb5ff" stroke="#acb5ff" stroke-width="2" points="113.3,-357.912 40.3,-357.912 28.3,-345.912 28.3,-333.912 40.3,-321.912 113.3,-321.912 125.3,-333.912 125.3,-345.912 113.3,-357.912"/>
<path fill="#acb5ff" stroke="#acb5ff" stroke-width="2" d="M40.3,-357.912C34.3,-357.912 28.3,-351.912 28.3,-345.912"/>
<path fill="#acb5ff" stroke="#acb5ff" stroke-width="2" d="M28.3,-333.912C28.3,-327.912 34.3,-321.912 40.3,-321.912"/>
<path fill="#acb5ff" stroke="#acb5ff" stroke-width="2" d="M113.3,-321.912C119.3,-321.912 125.3,-327.912 125.3,-333.912"/>
<path fill="#acb5ff" stroke="#acb5ff" stroke-width="2" d="M125.3,-345.912C125.3,-351.912 119.3,-357.912 113.3,-357.912"/>
<polyline fill="none" stroke="white" stroke-width="2" points="113.3,-357.912 40.3,-357.912 "/>
<path fill="none" stroke="white" stroke-width="2" d="M40.3,-357.912C34.3,-357.912 28.3,-351.912 28.3,-345.912"/>
<polyline fill="none" stroke="white" stroke-width="2" points="28.3,-345.912 28.3,-333.912 "/>
<path fill="none" stroke="white" stroke-width="2" d="M28.3,-333.912C28.3,-327.912 34.3,-321.912 40.3,-321.912"/>
<polyline fill="none" stroke="white" stroke-width="2" points="40.3,-321.912 113.3,-321.912 "/>
<path fill="none" stroke="white" stroke-width="2" d="M113.3,-321.912C119.3,-321.912 125.3,-327.912 125.3,-333.912"/>
<polyline fill="none" stroke="white" stroke-width="2" points="125.3,-333.912 125.3,-345.912 "/>
<path fill="none" stroke="white" stroke-width="2" d="M125.3,-345.912C125.3,-351.912 119.3,-357.912 113.3,-357.912"/>
<text text-anchor="middle" x="76.8" y="-337.412" font-family="Helvetica,sans-Serif" font-size="10.00">POU5F1_POU2F3</text>
</a>
</g>
<!-- ESRRA_ESR2&#45;&gt;POU5F1_POU2F3 -->
<g id="edge6" class="edge"><title>ESRRA_ESR2&#45;&gt;POU5F1_POU2F3</title>
<a xlink:title="POU5F1: 0.884||POU2F3: 0.692||remove28">
<path fill="none" stroke="#ce68ff" stroke-width="3" d="M221.312,-372.218C217.915,-371.001 214.513,-369.854 211.196,-368.832 186.194,-361.134 157.964,-354.726 133.854,-349.915"/>
<polygon fill="#ce68ff" stroke="#ce68ff" points="134.235,-347.137 125.846,-348.345 133.158,-352.632 134.235,-347.137"/>
</a>
</g>
<!-- NKX2&#45;1 -->
<g id="node15" class="node"><title>NKX2&#45;1</title>
<a xlink:href="NKX2-1.svg" xlink:title="Z&#45;value: 0.341||remove22">
<polygon fill="#bec4ff" stroke="#bec4ff" stroke-width="2" points="413.712,-271.656 383.712,-271.656 371.712,-259.656 371.712,-247.656 383.712,-235.656 413.712,-235.656 425.712,-247.656 425.712,-259.656 413.712,-271.656"/>
<path fill="#bec4ff" stroke="#bec4ff" stroke-width="2" d="M383.712,-271.656C377.712,-271.656 371.712,-265.656 371.712,-259.656"/>
<path fill="#bec4ff" stroke="#bec4ff" stroke-width="2" d="M371.712,-247.656C371.712,-241.656 377.712,-235.656 383.712,-235.656"/>
<path fill="#bec4ff" stroke="#bec4ff" stroke-width="2" d="M413.712,-235.656C419.712,-235.656 425.712,-241.656 425.712,-247.656"/>
<path fill="#bec4ff" stroke="#bec4ff" stroke-width="2" d="M425.712,-259.656C425.712,-265.656 419.712,-271.656 413.712,-271.656"/>
<polyline fill="none" stroke="white" stroke-width="2" points="413.712,-271.656 383.712,-271.656 "/>
<path fill="none" stroke="white" stroke-width="2" d="M383.712,-271.656C377.712,-271.656 371.712,-265.656 371.712,-259.656"/>
<polyline fill="none" stroke="white" stroke-width="2" points="371.712,-259.656 371.712,-247.656 "/>
<path fill="none" stroke="white" stroke-width="2" d="M371.712,-247.656C371.712,-241.656 377.712,-235.656 383.712,-235.656"/>
<polyline fill="none" stroke="white" stroke-width="2" points="383.712,-235.656 413.712,-235.656 "/>
<path fill="none" stroke="white" stroke-width="2" d="M413.712,-235.656C419.712,-235.656 425.712,-241.656 425.712,-247.656"/>
<polyline fill="none" stroke="white" stroke-width="2" points="425.712,-247.656 425.712,-259.656 "/>
<path fill="none" stroke="white" stroke-width="2" d="M425.712,-259.656C425.712,-265.656 419.712,-271.656 413.712,-271.656"/>
<text text-anchor="middle" x="398.712" y="-251.156" font-family="Helvetica,sans-Serif" font-size="10.00">NKX2&#45;1</text>
</a>
</g>
<!-- NFE2L1&#45;&gt;NKX2&#45;1 -->
<g id="edge28" class="edge"><title>NFE2L1&#45;&gt;NKX2&#45;1</title>
<a xlink:title="NKX2&#45;1: 0.186||remove22root">
<path fill="none" stroke="#ffb7b7" stroke-width="3" d="M239.881,-211.097C272.641,-219.875 327.912,-234.685 363.85,-244.315"/>
<polygon fill="#ffb7b7" stroke="#ffb7b7" points="363.202,-247.04 371.655,-246.406 364.652,-241.631 363.202,-247.04"/>
</a>
</g>
<!-- HNF4G -->
<g id="node23" class="node"><title>HNF4G</title>
<a xlink:href="HNF4G.svg" xlink:title="Z&#45;value: 0.704||remove23">
<polygon fill="#afb7ff" stroke="#afb7ff" stroke-width="2" points="363.912,-357.912 333.912,-357.912 321.912,-345.912 321.912,-333.912 333.912,-321.912 363.912,-321.912 375.912,-333.912 375.912,-345.912 363.912,-357.912"/>
<path fill="#afb7ff" stroke="#afb7ff" stroke-width="2" d="M333.912,-357.912C327.912,-357.912 321.912,-351.912 321.912,-345.912"/>
<path fill="#afb7ff" stroke="#afb7ff" stroke-width="2" d="M321.912,-333.912C321.912,-327.912 327.912,-321.912 333.912,-321.912"/>
<path fill="#afb7ff" stroke="#afb7ff" stroke-width="2" d="M363.912,-321.912C369.912,-321.912 375.912,-327.912 375.912,-333.912"/>
<path fill="#afb7ff" stroke="#afb7ff" stroke-width="2" d="M375.912,-345.912C375.912,-351.912 369.912,-357.912 363.912,-357.912"/>
<polyline fill="none" stroke="white" stroke-width="2" points="363.912,-357.912 333.912,-357.912 "/>
<path fill="none" stroke="white" stroke-width="2" d="M333.912,-357.912C327.912,-357.912 321.912,-351.912 321.912,-345.912"/>
<polyline fill="none" stroke="white" stroke-width="2" points="321.912,-345.912 321.912,-333.912 "/>
<path fill="none" stroke="white" stroke-width="2" d="M321.912,-333.912C321.912,-327.912 327.912,-321.912 333.912,-321.912"/>
<polyline fill="none" stroke="white" stroke-width="2" points="333.912,-321.912 363.912,-321.912 "/>
<path fill="none" stroke="white" stroke-width="2" d="M363.912,-321.912C369.912,-321.912 375.912,-327.912 375.912,-333.912"/>
<polyline fill="none" stroke="white" stroke-width="2" points="375.912,-333.912 375.912,-345.912 "/>
<path fill="none" stroke="white" stroke-width="2" d="M375.912,-345.912C375.912,-351.912 369.912,-357.912 363.912,-357.912"/>
<text text-anchor="middle" x="348.912" y="-337.412" font-family="Helvetica,sans-Serif" font-size="10.00">HNF4G</text>
</a>
</g>
<!-- NFE2L1&#45;&gt;HNF4G -->
<g id="edge26" class="edge"><title>NFE2L1&#45;&gt;HNF4G</title>
<a xlink:title="HNF4G: 0.195||remove23root">
<path fill="none" stroke="#ffb6b6" stroke-width="3" d="M230.923,-221.923C255.116,-246.116 298.097,-289.097 324.966,-315.966"/>
<polygon fill="#ffb6b6" stroke="#ffb6b6" points="323.134,-318.093 330.77,-321.77 327.093,-314.134 323.134,-318.093"/>
</a>
</g>
<!-- RCOR1_MTA3&#45;&gt;NFE2L1 -->
<g id="edge12" class="edge"><title>RCOR1_MTA3&#45;&gt;NFE2L1</title>
<a xlink:title="NFE2L1: 0.174||remove20root">
<path fill="none" stroke="#b8bfff" stroke-width="3" d="M167.922,-371.553C176.773,-338.52 195.539,-268.485 205.797,-230.201"/>
<polygon fill="#b8bfff" stroke="#b8bfff" points="208.605,-230.541 207.971,-222.089 203.195,-229.092 208.605,-230.541"/>
</a>
</g>
<!-- RCOR1_MTA3&#45;&gt;RCOR1_MTA3 -->
<g id="edge22" class="edge"><title>RCOR1_MTA3&#45;&gt;RCOR1_MTA3</title>
<a xlink:title="RCOR1: 1.276||remove20">
<path fill="none" stroke="#c03cff" stroke-width="3" d="M204.411,-396.357C214.527,-395.865 222.056,-393.65 222.056,-389.712 222.056,-386.944 218.334,-385.027 212.607,-383.962"/>
<polygon fill="#c03cff" stroke="#c03cff" points="212.667,-381.152 204.411,-383.068 212.06,-386.719 212.667,-381.152"/>
</a>
</g>
<!-- RCOR1_MTA3&#45;&gt;POU5F1_POU2F3 -->
<g id="edge24" class="edge"><title>RCOR1_MTA3&#45;&gt;POU5F1_POU2F3</title>
<a xlink:title="POU2F3: 0.653||remove20">
<path fill="none" stroke="#d782ff" stroke-width="3" d="M131.427,-371.451C126.205,-368.436 120.739,-365.28 115.369,-362.18"/>
<polygon fill="#d782ff" stroke="#d782ff" points="116.465,-359.58 108.137,-358.005 113.665,-364.429 116.465,-359.58"/>
</a>
</g>
<!-- KLF1 -->
<g id="node8" class="node"><title>KLF1</title>
<a xlink:href="KLF1.svg" xlink:title="Z&#45;value: 0.684||remove30">
<polygon fill="#b0b8ff" stroke="#b0b8ff" stroke-width="2" points="42,-271.656 12,-271.656 6.39488e-14,-259.656 6.39488e-14,-247.656 12,-235.656 42,-235.656 54,-247.656 54,-259.656 42,-271.656"/>
<path fill="#b0b8ff" stroke="#b0b8ff" stroke-width="2" d="M12,-271.656C6,-271.656 6.39488e-14,-265.656 6.39488e-14,-259.656"/>
<path fill="#b0b8ff" stroke="#b0b8ff" stroke-width="2" d="M6.39488e-14,-247.656C6.39488e-14,-241.656 6,-235.656 12,-235.656"/>
<path fill="#b0b8ff" stroke="#b0b8ff" stroke-width="2" d="M42,-235.656C48,-235.656 54,-241.656 54,-247.656"/>
<path fill="#b0b8ff" stroke="#b0b8ff" stroke-width="2" d="M54,-259.656C54,-265.656 48,-271.656 42,-271.656"/>
<polyline fill="none" stroke="white" stroke-width="2" points="42,-271.656 12,-271.656 "/>
<path fill="none" stroke="white" stroke-width="2" d="M12,-271.656C6,-271.656 6.39488e-14,-265.656 6.39488e-14,-259.656"/>
<polyline fill="none" stroke="white" stroke-width="2" points="6.39488e-14,-259.656 6.39488e-14,-247.656 "/>
<path fill="none" stroke="white" stroke-width="2" d="M6.39488e-14,-247.656C6.39488e-14,-241.656 6,-235.656 12,-235.656"/>
<polyline fill="none" stroke="white" stroke-width="2" points="12,-235.656 42,-235.656 "/>
<path fill="none" stroke="white" stroke-width="2" d="M42,-235.656C48,-235.656 54,-241.656 54,-247.656"/>
<polyline fill="none" stroke="white" stroke-width="2" points="54,-247.656 54,-259.656 "/>
<path fill="none" stroke="white" stroke-width="2" d="M54,-259.656C54,-265.656 48,-271.656 42,-271.656"/>
<text text-anchor="middle" x="27" y="-251.156" font-family="Helvetica,sans-Serif" font-size="10.00">KLF1</text>
</a>
</g>
<!-- RCOR1_MTA3&#45;&gt;KLF1 -->
<g id="edge8" class="edge"><title>RCOR1_MTA3&#45;&gt;KLF1</title>
<a xlink:title="KLF1: 0.126||remove14root">
<path fill="none" stroke="#eabdff" stroke-width="3" d="M158.854,-371.492C154.576,-356.134 146.686,-334.284 133.64,-319.032 114.236,-296.348 84.9237,-279.175 61.9381,-268.135"/>
<polygon fill="#eabdff" stroke="#eabdff" points="62.8431,-265.468 54.409,-264.628 60.4781,-270.544 62.8431,-265.468"/>
</a>
</g>
<!-- ZNF148 -->
<g id="node10" class="node"><title>ZNF148</title>
<a xlink:href="ZNF148.svg" xlink:title="Z&#45;value: 1.025||remove24">
<polygon fill="#a2acff" stroke="#a2acff" stroke-width="2" points="42,-172.056 12,-172.056 0,-160.056 0,-148.056 12,-136.056 42,-136.056 54,-148.056 54,-160.056 42,-172.056"/>
<path fill="#a2acff" stroke="#a2acff" stroke-width="2" d="M12,-172.056C6,-172.056 0,-166.056 0,-160.056"/>
<path fill="#a2acff" stroke="#a2acff" stroke-width="2" d="M0,-148.056C0,-142.056 6,-136.056 12,-136.056"/>
<path fill="#a2acff" stroke="#a2acff" stroke-width="2" d="M42,-136.056C48,-136.056 54,-142.056 54,-148.056"/>
<path fill="#a2acff" stroke="#a2acff" stroke-width="2" d="M54,-160.056C54,-166.056 48,-172.056 42,-172.056"/>
<polyline fill="none" stroke="white" stroke-width="2" points="42,-172.056 12,-172.056 "/>
<path fill="none" stroke="white" stroke-width="2" d="M12,-172.056C6,-172.056 0,-166.056 0,-160.056"/>
<polyline fill="none" stroke="white" stroke-width="2" points="0,-160.056 0,-148.056 "/>
<path fill="none" stroke="white" stroke-width="2" d="M0,-148.056C0,-142.056 6,-136.056 12,-136.056"/>
<polyline fill="none" stroke="white" stroke-width="2" points="12,-136.056 42,-136.056 "/>
<path fill="none" stroke="white" stroke-width="2" d="M42,-136.056C48,-136.056 54,-142.056 54,-148.056"/>
<polyline fill="none" stroke="white" stroke-width="2" points="54,-148.056 54,-160.056 "/>
<path fill="none" stroke="white" stroke-width="2" d="M54,-160.056C54,-166.056 48,-172.056 42,-172.056"/>
<text text-anchor="middle" x="27" y="-151.556" font-family="Helvetica,sans-Serif" font-size="10.00">ZNF148</text>
</a>
</g>
<!-- RCOR1_MTA3&#45;&gt;ZNF148 -->
<g id="edge10" class="edge"><title>RCOR1_MTA3&#45;&gt;ZNF148</title>
<a xlink:title="ZNF148: 0.202||remove20">
<path fill="none" stroke="#e7b5ff" stroke-width="3" d="M156.544,-371.588C151.083,-357.063 142.733,-336.325 133.64,-319.032 106.34,-267.116 67.588,-210.493 45.0945,-178.921"/>
<polygon fill="#e7b5ff" stroke="#e7b5ff" points="47.2162,-177.075 40.282,-172.201 42.6632,-180.335 47.2162,-177.075"/>
</a>
</g>
<!-- SP3 -->
<g id="node13" class="node"><title>SP3</title>
<a xlink:href="SP3.svg" xlink:title="Z&#45;value: 1.634||remove27">
<polygon fill="#8a96ff" stroke="#8a96ff" stroke-width="2" points="91.8,-85.8 61.8,-85.8 49.8,-73.8 49.8,-61.8 61.8,-49.8 91.8,-49.8 103.8,-61.8 103.8,-73.8 91.8,-85.8"/>
<path fill="#8a96ff" stroke="#8a96ff" stroke-width="2" d="M61.8,-85.8C55.8,-85.8 49.8,-79.8 49.8,-73.8"/>
<path fill="#8a96ff" stroke="#8a96ff" stroke-width="2" d="M49.8,-61.8C49.8,-55.8 55.8,-49.8 61.8,-49.8"/>
<path fill="#8a96ff" stroke="#8a96ff" stroke-width="2" d="M91.8,-49.8C97.8,-49.8 103.8,-55.8 103.8,-61.8"/>
<path fill="#8a96ff" stroke="#8a96ff" stroke-width="2" d="M103.8,-73.8C103.8,-79.8 97.8,-85.8 91.8,-85.8"/>
<polyline fill="none" stroke="white" stroke-width="2" points="91.8,-85.8 61.8,-85.8 "/>
<path fill="none" stroke="white" stroke-width="2" d="M61.8,-85.8C55.8,-85.8 49.8,-79.8 49.8,-73.8"/>
<polyline fill="none" stroke="white" stroke-width="2" points="49.8,-73.8 49.8,-61.8 "/>
<path fill="none" stroke="white" stroke-width="2" d="M49.8,-61.8C49.8,-55.8 55.8,-49.8 61.8,-49.8"/>
<polyline fill="none" stroke="white" stroke-width="2" points="61.8,-49.8 91.8,-49.8 "/>
<path fill="none" stroke="white" stroke-width="2" d="M91.8,-49.8C97.8,-49.8 103.8,-55.8 103.8,-61.8"/>
<polyline fill="none" stroke="white" stroke-width="2" points="103.8,-61.8 103.8,-73.8 "/>
<path fill="none" stroke="white" stroke-width="2" d="M103.8,-73.8C103.8,-79.8 97.8,-85.8 91.8,-85.8"/>
<text text-anchor="middle" x="76.8" y="-65.3" font-family="Helvetica,sans-Serif" font-size="10.00">SP3</text>
</a>
</g>
<!-- RCOR1_MTA3&#45;&gt;SP3 -->
<g id="edge14" class="edge"><title>RCOR1_MTA3&#45;&gt;SP3</title>
<a xlink:title="SP3: 0.797||MTA3: 1.158||remove20">
<path fill="none" stroke="#d272ff" stroke-width="3" d="M155.081,-363.814C138.869,-303.308 98.9338,-154.268 82.7815,-93.987"/>
<path fill="none" stroke="#c549ff" stroke-width="3" d="M157.013,-363.296C140.801,-302.791 100.866,-153.75 84.7134,-93.4694"/>
<polygon fill="#c549ff" stroke="#c549ff" points="153.396,-364.48 158.171,-371.483 158.805,-363.03 153.396,-364.48"/>
<polygon fill="#d272ff" stroke="#d272ff" points="86.4063,-92.8325 81.6311,-85.8298 80.9971,-94.2819 86.4063,-92.8325"/>
</a>
</g>
<!-- RCOR1_MTA3&#45;&gt;NKX2&#45;1 -->
<g id="edge16" class="edge"><title>RCOR1_MTA3&#45;&gt;NKX2&#45;1</title>
<a xlink:title="NKX2&#45;1: 0.187||remove20">
<path fill="none" stroke="#e7b7ff" stroke-width="3" d="M194.349,-371.645C238.559,-346.121 318.992,-299.683 364.656,-273.318"/>
<polygon fill="#e7b7ff" stroke="#e7b7ff" points="366.148,-275.691 371.676,-269.266 363.348,-270.841 366.148,-275.691"/>
</a>
</g>
<!-- PATZ1_KLF4 -->
<g id="node17" class="node"><title>PATZ1_KLF4</title>
<a xlink:href="PATZ1_KLF4.svg" xlink:title="Z&#45;value: 1.751||remove29">
<polygon fill="#8591ff" stroke="#8591ff" stroke-width="2" points="189.056,-36 137.056,-36 125.056,-24 125.056,-12 137.056,-6.39488e-14 189.056,-6.39488e-14 201.056,-12 201.056,-24 189.056,-36"/>
<path fill="#8591ff" stroke="#8591ff" stroke-width="2" d="M137.056,-36C131.056,-36 125.056,-30 125.056,-24"/>
<path fill="#8591ff" stroke="#8591ff" stroke-width="2" d="M125.056,-12C125.056,-6 131.056,-6.39488e-14 137.056,-6.39488e-14"/>
<path fill="#8591ff" stroke="#8591ff" stroke-width="2" d="M189.056,-6.39488e-14C195.056,-6.39488e-14 201.056,-6 201.056,-12"/>
<path fill="#8591ff" stroke="#8591ff" stroke-width="2" d="M201.056,-24C201.056,-30 195.056,-36 189.056,-36"/>
<polyline fill="none" stroke="white" stroke-width="2" points="189.056,-36 137.056,-36 "/>
<path fill="none" stroke="white" stroke-width="2" d="M137.056,-36C131.056,-36 125.056,-30 125.056,-24"/>
<polyline fill="none" stroke="white" stroke-width="2" points="125.056,-24 125.056,-12 "/>
<path fill="none" stroke="white" stroke-width="2" d="M125.056,-12C125.056,-6 131.056,-6.39488e-14 137.056,-6.39488e-14"/>
<polyline fill="none" stroke="white" stroke-width="2" points="137.056,-6.39488e-14 189.056,-6.39488e-14 "/>
<path fill="none" stroke="white" stroke-width="2" d="M189.056,-6.39488e-14C195.056,-6.39488e-14 201.056,-6 201.056,-12"/>
<polyline fill="none" stroke="white" stroke-width="2" points="201.056,-12 201.056,-24 "/>
<path fill="none" stroke="white" stroke-width="2" d="M201.056,-24C201.056,-30 195.056,-36 189.056,-36"/>
<text text-anchor="middle" x="163.056" y="-15.5" font-family="Helvetica,sans-Serif" font-size="10.00">PATZ1_KLF4</text>
</a>
</g>
<!-- RCOR1_MTA3&#45;&gt;PATZ1_KLF4 -->
<g id="edge18" class="edge"><title>RCOR1_MTA3&#45;&gt;PATZ1_KLF4</title>
<a xlink:title="KLF4: 0.403||PATZ1: 0.041||MTA3: 1.111||remove20">
<path fill="none" stroke="#e09eff" stroke-width="3" d="M162.056,-363.485C162.056,-295.217 162.056,-112.574 162.056,-44.2645"/>
<path fill="none" stroke="#c64fff" stroke-width="3" d="M164.056,-363.485C164.056,-295.217 164.056,-112.574 164.056,-44.2645"/>
<polygon fill="#c64fff" stroke="#c64fff" points="160.256,-363.532 163.056,-371.532 165.856,-363.532 160.256,-363.532"/>
<polygon fill="#e09eff" stroke="#e09eff" points="165.856,-44.1451 163.056,-36.1451 160.256,-44.1451 165.856,-44.1451"/>
</a>
</g>
<!-- ETS1 -->
<g id="node19" class="node"><title>ETS1</title>
<a xlink:href="ETS1.svg" xlink:title="Z&#45;value: 0.924||remove19">
<polygon fill="#a6afff" stroke="#a6afff" stroke-width="2" points="277.656,-36 247.656,-36 235.656,-24 235.656,-12 247.656,-0 277.656,-0 289.656,-12 289.656,-24 277.656,-36"/>
<path fill="#a6afff" stroke="#a6afff" stroke-width="2" d="M247.656,-36C241.656,-36 235.656,-30 235.656,-24"/>
<path fill="#a6afff" stroke="#a6afff" stroke-width="2" d="M235.656,-12C235.656,-6 241.656,-0 247.656,-0"/>
<path fill="#a6afff" stroke="#a6afff" stroke-width="2" d="M277.656,-0C283.656,-0 289.656,-6 289.656,-12"/>
<path fill="#a6afff" stroke="#a6afff" stroke-width="2" d="M289.656,-24C289.656,-30 283.656,-36 277.656,-36"/>
<polyline fill="none" stroke="white" stroke-width="2" points="277.656,-36 247.656,-36 "/>
<path fill="none" stroke="white" stroke-width="2" d="M247.656,-36C241.656,-36 235.656,-30 235.656,-24"/>
<polyline fill="none" stroke="white" stroke-width="2" points="235.656,-24 235.656,-12 "/>
<path fill="none" stroke="white" stroke-width="2" d="M235.656,-12C235.656,-6 241.656,-0 247.656,-0"/>
<polyline fill="none" stroke="white" stroke-width="2" points="247.656,-0 277.656,-0 "/>
<path fill="none" stroke="white" stroke-width="2" d="M277.656,-0C283.656,-0 289.656,-6 289.656,-12"/>
<polyline fill="none" stroke="white" stroke-width="2" points="289.656,-12 289.656,-24 "/>
<path fill="none" stroke="white" stroke-width="2" d="M289.656,-24C289.656,-30 283.656,-36 277.656,-36"/>
<text text-anchor="middle" x="262.656" y="-15.5" font-family="Helvetica,sans-Serif" font-size="10.00">ETS1</text>
</a>
</g>
<!-- RCOR1_MTA3&#45;&gt;ETS1 -->
<g id="edge20" class="edge"><title>RCOR1_MTA3&#45;&gt;ETS1</title>
<a xlink:title="ETS1: 0.066||remove7root">
<path fill="none" stroke="#ecc4ff" stroke-width="3" d="M174.938,-371.323C193.36,-341.773 228.338,-281.287 244.176,-224.736 261.831,-161.697 263.735,-84.0169 263.352,-44.222"/>
<polygon fill="#ecc4ff" stroke="#ecc4ff" points="266.15,-44.054 263.236,-36.0947 260.551,-44.1339 266.15,-44.054"/>
</a>
</g>
<!-- POU5F1_POU2F3&#45;&gt;NFE2L1 -->
<g id="edge30" class="edge"><title>POU5F1_POU2F3&#45;&gt;NFE2L1</title>
<a xlink:title="NFE2L1: 0.290||remove28root">
<path fill="none" stroke="#abb3ff" stroke-width="3" d="M94.8672,-321.845C119.06,-297.652 162.041,-254.671 188.91,-227.803"/>
<polygon fill="#abb3ff" stroke="#abb3ff" points="191.037,-229.635 194.714,-221.998 187.077,-225.675 191.037,-229.635"/>
</a>
</g>
<!-- POU5F1_POU2F3&#45;&gt;POU5F1_POU2F3 -->
<g id="edge34" class="edge"><title>POU5F1_POU2F3&#45;&gt;POU5F1_POU2F3</title>
<a xlink:title="POU2F3: 0.236||remove25root">
<path fill="none" stroke="#e6b1ff" stroke-width="3" d="M125.44,-346.425C135.538,-345.739 142.8,-343.569 142.8,-339.912 142.8,-337.341 139.21,-335.505 133.568,-334.403"/>
<polygon fill="#e6b1ff" stroke="#e6b1ff" points="133.723,-331.601 125.44,-333.4 133.037,-337.159 133.723,-331.601"/>
</a>
</g>
<!-- POU5F1_POU2F3&#45;&gt;PATZ1_KLF4 -->
<g id="edge32" class="edge"><title>POU5F1_POU2F3&#45;&gt;PATZ1_KLF4</title>
<a xlink:title="KLF4: 0.061||POU5F1: 1.218||POU2F3: 0.065||remove28">
<path fill="none" stroke="#ecc5ff" stroke-width="3" d="M82.8429,-313.496C99.0553,-252.991 138.99,-103.95 155.143,-43.6694"/>
<path fill="none" stroke="#c243ff" stroke-width="3" d="M84.7748,-314.014C100.987,-253.508 140.922,-104.468 157.075,-44.187"/>
<polygon fill="#c243ff" stroke="#c243ff" points="81.0507,-313.23 81.6846,-321.683 86.4599,-314.68 81.0507,-313.23"/>
<polygon fill="#ecc5ff" stroke="#ecc5ff" points="158.859,-44.4819 158.225,-36.0298 153.45,-43.0325 158.859,-44.4819"/>
</a>
</g>
<!-- KLF1&#45;&gt;NFE2L1 -->
<g id="edge98" class="edge"><title>KLF1&#45;&gt;NFE2L1</title>
<a xlink:title="NFE2L1: 0.570||remove30root">
<path fill="none" stroke="#8b97ff" stroke-width="3" d="M54.0251,-246.415C86.7845,-237.637 142.056,-222.827 177.994,-213.197"/>
<polygon fill="#8b97ff" stroke="#8b97ff" points="178.796,-215.881 185.798,-211.106 177.346,-210.472 178.796,-215.881"/>
</a>
</g>
<!-- ZNF148&#45;&gt;NFE2L1 -->
<g id="edge94" class="edge"><title>ZNF148&#45;&gt;NFE2L1</title>
<a xlink:title="NFE2L1: 0.208||remove24root">
<path fill="none" stroke="#b4bcff" stroke-width="3" d="M54.0251,-161.297C86.7845,-170.075 142.056,-184.885 177.994,-194.515"/>
<polygon fill="#b4bcff" stroke="#b4bcff" points="177.346,-197.24 185.798,-196.606 178.796,-191.831 177.346,-197.24"/>
</a>
</g>
<!-- ZNF148&#45;&gt;POU5F1_POU2F3 -->
<g id="edge96" class="edge"><title>ZNF148&#45;&gt;POU5F1_POU2F3</title>
<a xlink:title="POU5F1: 1.068||remove24">
<path fill="none" stroke="#c853ff" stroke-width="3" d="M35.4436,-172.133C42.4805,-187.852 52.2945,-211.399 58.32,-232.776 65.9597,-259.88 70.9714,-291.781 73.8234,-313.681"/>
<polygon fill="#c853ff" stroke="#c853ff" points="71.0727,-314.25 74.8461,-321.839 76.6292,-313.553 71.0727,-314.25"/>
</a>
</g>
<!-- SP3&#45;&gt;ESRRA_ESR2 -->
<g id="edge92" class="edge"><title>SP3&#45;&gt;ESRRA_ESR2</title>
<a xlink:title="ESRRA: 1.361||ESR2: 0.109||remove27">
<path fill="none" stroke="#bd32ff" stroke-width="3" d="M87.3249,-86.0297C118.76,-140.477 212.009,-301.988 248.132,-364.557"/>
<polygon fill="#bd32ff" stroke="#bd32ff" points="245.822,-366.154 252.247,-371.682 250.671,-363.354 245.822,-366.154"/>
</a>
</g>
<!-- SP3&#45;&gt;NFE2L1 -->
<g id="edge82" class="edge"><title>SP3&#45;&gt;NFE2L1</title>
<a xlink:title="NFE2L1: 0.251||remove27root">
<path fill="none" stroke="#afb7ff" stroke-width="3" d="M94.8672,-85.8672C119.06,-110.06 162.041,-153.041 188.91,-179.91"/>
<polygon fill="#afb7ff" stroke="#afb7ff" points="187.077,-182.037 194.714,-185.714 191.037,-178.077 187.077,-182.037"/>
</a>
</g>
<!-- SP3&#45;&gt;POU5F1_POU2F3 -->
<g id="edge90" class="edge"><title>SP3&#45;&gt;POU5F1_POU2F3</title>
<a xlink:title="POU5F1: 1.040||remove27">
<path fill="none" stroke="#c957ff" stroke-width="3" d="M76.8,-86.0766C76.8,-133.131 76.8,-258.589 76.8,-313.526"/>
<polygon fill="#c957ff" stroke="#c957ff" points="74.0001,-313.715 76.8,-321.715 79.6001,-313.715 74.0001,-313.715"/>
</a>
</g>
<!-- SP3&#45;&gt;ZNF148 -->
<g id="edge80" class="edge"><title>SP3&#45;&gt;ZNF148</title>
<a xlink:title="ZNF148: 0.013||remove1root">
<path fill="none" stroke="#eecaff" stroke-width="3" d="M66.2387,-86.0927C59.108,-98.4435 49.5974,-114.916 41.7253,-128.551"/>
<polygon fill="#eecaff" stroke="#eecaff" points="39.1212,-127.462 37.5461,-135.79 43.971,-130.262 39.1212,-127.462"/>
</a>
</g>
<!-- SP3&#45;&gt;NKX2&#45;1 -->
<g id="edge84" class="edge"><title>SP3&#45;&gt;NKX2&#45;1</title>
<a xlink:title="NKX2&#45;1: 0.036||remove4root">
<path fill="none" stroke="#edc7ff" stroke-width="3" d="M103.969,-83.4858C162.35,-117.193 299.689,-196.485 364.155,-233.704"/>
<polygon fill="#edc7ff" stroke="#edc7ff" points="362.947,-236.24 371.275,-237.815 365.747,-231.39 362.947,-236.24"/>
</a>
</g>
<!-- SP3&#45;&gt;PATZ1_KLF4 -->
<g id="edge86" class="edge"><title>SP3&#45;&gt;PATZ1_KLF4</title>
<a xlink:title="PATZ1: 0.077||KLF4: 0.020||remove9root">
<path fill="none" stroke="#ebc3ff" stroke-width="3" d="M104.092,-52.043C110.544,-48.318 117.545,-44.2761 124.394,-40.3218"/>
<polygon fill="#ebc3ff" stroke="#ebc3ff" points="126.205,-42.5095 131.733,-36.0846 123.404,-37.6598 126.205,-42.5095"/>
</a>
</g>
<!-- GATA3 -->
<g id="node29" class="node"><title>GATA3</title>
<a xlink:href="GATA3.svg" xlink:title="Z&#45;value: 2.023||remove21">
<polygon fill="#7a88ff" stroke="#7a88ff" stroke-width="2" points="363.912,-85.8 333.912,-85.8 321.912,-73.8 321.912,-61.8 333.912,-49.8 363.912,-49.8 375.912,-61.8 375.912,-73.8 363.912,-85.8"/>
<path fill="#7a88ff" stroke="#7a88ff" stroke-width="2" d="M333.912,-85.8C327.912,-85.8 321.912,-79.8 321.912,-73.8"/>
<path fill="#7a88ff" stroke="#7a88ff" stroke-width="2" d="M321.912,-61.8C321.912,-55.8 327.912,-49.8 333.912,-49.8"/>
<path fill="#7a88ff" stroke="#7a88ff" stroke-width="2" d="M363.912,-49.8C369.912,-49.8 375.912,-55.8 375.912,-61.8"/>
<path fill="#7a88ff" stroke="#7a88ff" stroke-width="2" d="M375.912,-73.8C375.912,-79.8 369.912,-85.8 363.912,-85.8"/>
<polyline fill="none" stroke="white" stroke-width="2" points="363.912,-85.8 333.912,-85.8 "/>
<path fill="none" stroke="white" stroke-width="2" d="M333.912,-85.8C327.912,-85.8 321.912,-79.8 321.912,-73.8"/>
<polyline fill="none" stroke="white" stroke-width="2" points="321.912,-73.8 321.912,-61.8 "/>
<path fill="none" stroke="white" stroke-width="2" d="M321.912,-61.8C321.912,-55.8 327.912,-49.8 333.912,-49.8"/>
<polyline fill="none" stroke="white" stroke-width="2" points="333.912,-49.8 363.912,-49.8 "/>
<path fill="none" stroke="white" stroke-width="2" d="M363.912,-49.8C369.912,-49.8 375.912,-55.8 375.912,-61.8"/>
<polyline fill="none" stroke="white" stroke-width="2" points="375.912,-61.8 375.912,-73.8 "/>
<path fill="none" stroke="white" stroke-width="2" d="M375.912,-73.8C375.912,-79.8 369.912,-85.8 363.912,-85.8"/>
<text text-anchor="middle" x="348.912" y="-65.3" font-family="Helvetica,sans-Serif" font-size="10.00">GATA3</text>
</a>
</g>
<!-- SP3&#45;&gt;GATA3 -->
<g id="edge88" class="edge"><title>SP3&#45;&gt;GATA3</title>
<a xlink:title="GATA3: 0.150||remove17root">
<path fill="none" stroke="#e9bbff" stroke-width="3" d="M103.886,-67.8C153.37,-67.8 258.353,-67.8 313.455,-67.8"/>
<polygon fill="#e9bbff" stroke="#e9bbff" points="313.532,-70.6001 321.532,-67.8 313.532,-65.0001 313.532,-70.6001"/>
</a>
</g>
<!-- PATZ1_KLF4&#45;&gt;ESRRA_ESR2 -->
<g id="edge54" class="edge"><title>PATZ1_KLF4&#45;&gt;ESRRA_ESR2</title>
<a xlink:title="ESRRA: 1.315||ESR2: 0.103||remove29">
<path fill="none" stroke="#bf38ff" stroke-width="3" d="M174.938,-36.3892C193.36,-65.9393 228.338,-126.425 244.176,-182.976 261.831,-246.015 263.735,-323.695 263.352,-363.49"/>
<polygon fill="#bf38ff" stroke="#bf38ff" points="260.551,-363.578 263.236,-371.618 266.15,-363.658 260.551,-363.578"/>
</a>
</g>
<!-- PATZ1_KLF4&#45;&gt;NFE2L1 -->
<g id="edge42" class="edge"><title>PATZ1_KLF4&#45;&gt;NFE2L1</title>
<a xlink:title="NFE2L1: 0.360||remove29root">
<path fill="none" stroke="#a3acff" stroke-width="3" d="M167.922,-36.1591C176.773,-69.1921 195.539,-139.228 205.797,-177.512"/>
<polygon fill="#a3acff" stroke="#a3acff" points="203.195,-178.621 207.971,-185.623 208.605,-177.171 203.195,-178.621"/>
</a>
</g>
<!-- PATZ1_KLF4&#45;&gt;NKX2&#45;1 -->
<g id="edge44" class="edge"><title>PATZ1_KLF4&#45;&gt;NKX2&#45;1</title>
<a xlink:title="NKX2&#45;1: 0.145||remove15root">
<path fill="none" stroke="#e9bbff" stroke-width="3" d="M181.156,-36.1002C223.222,-78.1663 327.581,-182.525 374.813,-229.757"/>
<polygon fill="#e9bbff" stroke="#e9bbff" points="372.914,-231.817 380.55,-235.494 376.873,-227.857 372.914,-231.817"/>
</a>
</g>
<!-- PATZ1_KLF4&#45;&gt;PATZ1_KLF4 -->
<g id="edge46" class="edge"><title>PATZ1_KLF4&#45;&gt;PATZ1_KLF4</title>
<a xlink:title="PATZ1: 0.441||KLF4: 0.051||remove29">
<path fill="none" stroke="#de9aff" stroke-width="3" d="M201.27,-24.6907C211.391,-24.3083 219.056,-22.0781 219.056,-18 219.056,-15.1326 215.266,-13.1787 209.498,-12.1384"/>
<polygon fill="#de9aff" stroke="#de9aff" points="209.511,-9.32556 201.27,-11.3093 208.949,-14.8973 209.511,-9.32556"/>
</a>
</g>
<!-- PATZ1_KLF4&#45;&gt;ETS1 -->
<g id="edge52" class="edge"><title>PATZ1_KLF4&#45;&gt;ETS1</title>
<a xlink:title="ETS1: 0.053||remove5root">
<path fill="none" stroke="#ecc6ff" stroke-width="3" d="M201.279,-18C209.837,-18 218.878,-18 227.313,-18"/>
<polygon fill="#ecc6ff" stroke="#ecc6ff" points="227.506,-20.8001 235.506,-18 227.506,-15.2001 227.506,-20.8001"/>
</a>
</g>
<!-- PATZ1_KLF4&#45;&gt;GATA3 -->
<g id="edge50" class="edge"><title>PATZ1_KLF4&#45;&gt;GATA3</title>
<a xlink:title="GATA3: 0.094||remove11root">
<path fill="none" stroke="#ebc1ff" stroke-width="3" d="M201.226,-30.0819C211.01,-33.0657 221.537,-36.1788 231.336,-38.88 258.89,-46.4754 290.343,-54.1608 313.78,-59.698"/>
<polygon fill="#ebc1ff" stroke="#ebc1ff" points="313.287,-62.4585 321.716,-61.5632 314.569,-57.007 313.287,-62.4585"/>
</a>
</g>
<!-- SP1 -->
<g id="node36" class="node"><title>SP1</title>
<a xlink:href="SP1.svg" xlink:title="Z&#45;value: 0.981||remove26">
<polygon fill="#a4adff" stroke="#a4adff" stroke-width="2" points="413.712,-172.056 383.712,-172.056 371.712,-160.056 371.712,-148.056 383.712,-136.056 413.712,-136.056 425.712,-148.056 425.712,-160.056 413.712,-172.056"/>
<path fill="#a4adff" stroke="#a4adff" stroke-width="2" d="M383.712,-172.056C377.712,-172.056 371.712,-166.056 371.712,-160.056"/>
<path fill="#a4adff" stroke="#a4adff" stroke-width="2" d="M371.712,-148.056C371.712,-142.056 377.712,-136.056 383.712,-136.056"/>
<path fill="#a4adff" stroke="#a4adff" stroke-width="2" d="M413.712,-136.056C419.712,-136.056 425.712,-142.056 425.712,-148.056"/>
<path fill="#a4adff" stroke="#a4adff" stroke-width="2" d="M425.712,-160.056C425.712,-166.056 419.712,-172.056 413.712,-172.056"/>
<polyline fill="none" stroke="white" stroke-width="2" points="413.712,-172.056 383.712,-172.056 "/>
<path fill="none" stroke="white" stroke-width="2" d="M383.712,-172.056C377.712,-172.056 371.712,-166.056 371.712,-160.056"/>
<polyline fill="none" stroke="white" stroke-width="2" points="371.712,-160.056 371.712,-148.056 "/>
<path fill="none" stroke="white" stroke-width="2" d="M371.712,-148.056C371.712,-142.056 377.712,-136.056 383.712,-136.056"/>
<polyline fill="none" stroke="white" stroke-width="2" points="383.712,-136.056 413.712,-136.056 "/>
<path fill="none" stroke="white" stroke-width="2" d="M413.712,-136.056C419.712,-136.056 425.712,-142.056 425.712,-148.056"/>
<polyline fill="none" stroke="white" stroke-width="2" points="425.712,-148.056 425.712,-160.056 "/>
<path fill="none" stroke="white" stroke-width="2" d="M425.712,-160.056C425.712,-166.056 419.712,-172.056 413.712,-172.056"/>
<text text-anchor="middle" x="398.712" y="-151.556" font-family="Helvetica,sans-Serif" font-size="10.00">SP1</text>
</a>
</g>
<!-- PATZ1_KLF4&#45;&gt;SP1 -->
<g id="edge48" class="edge"><title>PATZ1_KLF4&#45;&gt;SP1</title>
<a xlink:title="SP1: 0.098||KLF4: 0.019||remove12root">
<path fill="none" stroke="#ebc0ff" stroke-width="3" d="M201.95,-39.3006C247.273,-65.4682 321.944,-108.579 365.246,-133.58"/>
<path fill="none" stroke="#edc9ff" stroke-width="3" d="M200.95,-41.0326C246.273,-67.2003 320.944,-110.311 364.246,-135.312"/>
<polygon fill="#edc9ff" stroke="#edc9ff" points="202.678,-37.6424 194.349,-36.0672 199.878,-42.4921 202.678,-37.6424"/>
<polygon fill="#ebc0ff" stroke="#ebc0ff" points="363.348,-136.872 371.676,-138.447 366.148,-132.022 363.348,-136.872"/>
</a>
</g>
<!-- ETS1&#45;&gt;NFE2L1 -->
<g id="edge76" class="edge"><title>ETS1&#45;&gt;NFE2L1</title>
<a xlink:title="NFE2L1: 0.173||remove19root">
<path fill="none" stroke="#b8bfff" stroke-width="3" d="M257.79,-36.1591C248.939,-69.1921 230.173,-139.228 219.915,-177.512"/>
<polygon fill="#b8bfff" stroke="#b8bfff" points="217.108,-177.171 217.742,-185.623 222.517,-178.621 217.108,-177.171"/>
</a>
</g>
<!-- ETS1&#45;&gt;SP3 -->
<g id="edge78" class="edge"><title>ETS1&#45;&gt;SP3</title>
<a xlink:title="SP3: 0.320||remove19">
<path fill="none" stroke="#e3a8ff" stroke-width="3" d="M235.525,-29.0792C226.577,-32.4973 216.513,-36.0916 207.136,-38.88 175.462,-48.2987 138.643,-56.1963 112.234,-61.3457"/>
<polygon fill="#e3a8ff" stroke="#e3a8ff" points="111.372,-58.6599 104.045,-62.9195 112.429,-64.1592 111.372,-58.6599"/>
</a>
</g>
<!-- HNF4G&#45;&gt;ESRRA_ESR2 -->
<g id="edge100" class="edge"><title>HNF4G&#45;&gt;ESRRA_ESR2</title>
<a xlink:title="ESRRA: 0.024||remove3root">
<path fill="none" stroke="#edc9ff" stroke-width="3" d="M321.62,-355.669C315.169,-359.394 308.168,-363.436 301.319,-367.39"/>
<polygon fill="#edc9ff" stroke="#edc9ff" points="299.508,-365.203 293.98,-371.628 302.308,-370.053 299.508,-365.203"/>
</a>
</g>
<!-- GATA3&#45;&gt;NFE2L1 -->
<g id="edge36" class="edge"><title>GATA3&#45;&gt;NFE2L1</title>
<a xlink:title="NFE2L1: 0.185||remove21root">
<path fill="none" stroke="#b7beff" stroke-width="3" d="M330.845,-85.8672C306.652,-110.06 263.671,-153.041 236.803,-179.91"/>
<polygon fill="#b7beff" stroke="#b7beff" points="234.675,-178.077 230.998,-185.714 238.635,-182.037 234.675,-178.077"/>
</a>
</g>
<!-- GATA3&#45;&gt;RCOR1_MTA3 -->
<g id="edge40" class="edge"><title>GATA3&#45;&gt;RCOR1_MTA3</title>
<a xlink:title="RCOR1: 0.161||remove18root">
<path fill="none" stroke="#e8b9ff" stroke-width="3" d="M338.387,-86.0297C306.952,-140.477 213.704,-301.988 177.58,-364.557"/>
<polygon fill="#e8b9ff" stroke="#e8b9ff" points="175.041,-363.354 173.466,-371.682 179.891,-366.154 175.041,-363.354"/>
</a>
</g>
<!-- GATA3&#45;&gt;NKX2&#45;1 -->
<g id="edge38" class="edge"><title>GATA3&#45;&gt;NKX2&#45;1</title>
<a xlink:title="NKX2&#45;1: 0.082||remove10root">
<path fill="none" stroke="#ebc2ff" stroke-width="3" d="M350.866,-85.8729C353.457,-107.378 358.738,-144.234 367.392,-174.936 372.523,-193.14 380.402,-212.917 386.973,-228.095"/>
<polygon fill="#ebc2ff" stroke="#ebc2ff" points="384.482,-229.386 390.269,-235.579 389.607,-227.129 384.482,-229.386"/>
</a>
</g>
<!-- SP1&#45;&gt;ESRRA_ESR2 -->
<g id="edge74" class="edge"><title>SP1&#45;&gt;ESRRA_ESR2</title>
<a xlink:title="ESRRA: 0.012||remove0root">
<path fill="none" stroke="#eecaff" stroke-width="3" d="M388.262,-172.156C364.223,-213.794 304.947,-316.462 277.298,-364.352"/>
<polygon fill="#eecaff" stroke="#eecaff" points="274.717,-363.222 273.142,-371.55 279.567,-366.022 274.717,-363.222"/>
</a>
</g>
<!-- SP1&#45;&gt;NFE2L1 -->
<g id="edge58" class="edge"><title>SP1&#45;&gt;NFE2L1</title>
<a xlink:title="NFE2L1: 0.250||remove26root">
<path fill="none" stroke="#afb7ff" stroke-width="3" d="M371.687,-161.297C338.928,-170.075 283.656,-184.885 247.718,-194.515"/>
<polygon fill="#afb7ff" stroke="#afb7ff" points="246.917,-191.831 239.914,-196.606 248.366,-197.24 246.917,-191.831"/>
</a>
</g>
<!-- SP1&#45;&gt;RCOR1_MTA3 -->
<g id="edge70" class="edge"><title>SP1&#45;&gt;RCOR1_MTA3</title>
<a xlink:title="MTA3: 0.146||remove16root">
<path fill="none" stroke="#e9bbff" stroke-width="3" d="M380.612,-172.156C338.546,-214.222 234.187,-318.581 186.956,-365.813"/>
<polygon fill="#e9bbff" stroke="#e9bbff" points="184.895,-363.914 181.218,-371.55 188.855,-367.873 184.895,-363.914"/>
</a>
</g>
<!-- SP1&#45;&gt;POU5F1_POU2F3 -->
<g id="edge72" class="edge"><title>SP1&#45;&gt;POU5F1_POU2F3</title>
<a xlink:title="POU5F1: 0.294||remove26">
<path fill="none" stroke="#e4aaff" stroke-width="3" d="M371.544,-169.742C314.329,-202.775 181.285,-279.588 115.312,-317.678"/>
<polygon fill="#e4aaff" stroke="#e4aaff" points="113.519,-315.479 107.991,-321.904 116.319,-320.329 113.519,-315.479"/>
</a>
</g>
<!-- SP1&#45;&gt;ZNF148 -->
<g id="edge56" class="edge"><title>SP1&#45;&gt;ZNF148</title>
<a xlink:title="ZNF148: 0.058||remove6root">
<path fill="none" stroke="#ecc5ff" stroke-width="3" d="M371.68,-154.056C305.645,-154.056 136.142,-154.056 62.2833,-154.056"/>
<polygon fill="#ecc5ff" stroke="#ecc5ff" points="62.1814,-151.256 54.1814,-154.056 62.1814,-156.856 62.1814,-151.256"/>
</a>
</g>
<!-- SP1&#45;&gt;SP3 -->
<g id="edge60" class="edge"><title>SP1&#45;&gt;SP3</title>
<a xlink:title="SP3: 0.256||SP1: 0.424||remove26">
<path fill="none" stroke="#e5afff" stroke-width="3" d="M363.406,-145.631C301.611,-129.073 173.959,-94.869 111.925,-78.2471"/>
<path fill="none" stroke="#df9cff" stroke-width="3" d="M363.924,-143.699C302.128,-127.141 174.477,-92.9372 112.443,-76.3153"/>
<polygon fill="#df9cff" stroke="#df9cff" points="363.092,-147.41 371.544,-146.776 364.541,-142.001 363.092,-147.41"/>
<polygon fill="#e5afff" stroke="#e5afff" points="112.69,-74.5179 104.237,-75.1518 111.24,-79.927 112.69,-74.5179"/>
</a>
</g>
<!-- SP1&#45;&gt;NKX2&#45;1 -->
<g id="edge62" class="edge"><title>SP1&#45;&gt;NKX2&#45;1</title>
<a xlink:title="NKX2&#45;1: 0.076||remove8root">
<path fill="none" stroke="#ebc3ff" stroke-width="3" d="M398.712,-172.324C398.712,-187.768 398.712,-210.085 398.712,-227.437"/>
<polygon fill="#ebc3ff" stroke="#ebc3ff" points="395.912,-227.504 398.712,-235.504 401.512,-227.504 395.912,-227.504"/>
</a>
</g>
<!-- SP1&#45;&gt;ETS1 -->
<g id="edge68" class="edge"><title>SP1&#45;&gt;ETS1</title>
<a xlink:title="ETS1: 0.015||remove2root">
<path fill="none" stroke="#eecaff" stroke-width="3" d="M373.314,-135.995C356.649,-123.581 334.833,-106.227 317.592,-88.68 303.645,-74.4849 289.906,-56.8071 279.656,-42.682"/>
<polygon fill="#eecaff" stroke="#eecaff" points="281.853,-40.9396 274.919,-36.0641 277.299,-44.1991 281.853,-40.9396"/>
</a>
</g>
<!-- SP1&#45;&gt;GATA3 -->
<g id="edge66" class="edge"><title>SP1&#45;&gt;GATA3</title>
<a xlink:title="GATA3: 0.123||remove13root">
<path fill="none" stroke="#eabeff" stroke-width="3" d="M388.151,-135.763C381.02,-123.413 371.51,-106.94 363.638,-93.305"/>
<polygon fill="#eabeff" stroke="#eabeff" points="365.883,-91.5945 359.458,-86.0663 361.034,-94.3946 365.883,-91.5945"/>
</a>
</g>
<!-- SP1&#45;&gt;SP1 -->
<g id="edge64" class="edge"><title>SP1&#45;&gt;SP1</title>
<a xlink:title="SP1: 0.288||remove26">
<path fill="none" stroke="#e4abff" stroke-width="3" d="M425.953,-160.8C435.736,-160.945 443.712,-158.697 443.712,-154.056 443.712,-150.793 439.769,-148.713 434.027,-147.816"/>
<polygon fill="#e4abff" stroke="#e4abff" points="434.112,-145.016 425.953,-147.313 433.763,-150.605 434.112,-145.016"/>
</a>
</g>
</g>
</svg>
