<?xml version="1.0" encoding="UTF-8" standalone="no"?>
<!DOCTYPE svg PUBLIC "-//W3C//DTD SVG 1.1//EN"
 "http://www.w3.org/Graphics/SVG/1.1/DTD/svg11.dtd">
<!-- Generated by graphviz version 2.28.0 (20110630.0925)
 -->
<!-- Title: _anonymous_0 Pages: 1 -->
<svg width="497pt" height="449pt"
 viewBox="0.00 0.00 497.30 449.30" xmlns="http://www.w3.org/2000/svg" xmlns:xlink="http://www.w3.org/1999/xlink">
<g id="graph1" class="graph" transform="scale(1 1) rotate(0) translate(4 445.301)">
<title>_anonymous_0</title>
<polygon fill="white" stroke="white" points="-4,5 -4,-445.301 494.301,-445.301 494.301,5 -4,5"/>
<!-- ESRRA_ESR2 -->
<g id="node1" class="node"><title>ESRRA_ESR2</title>
<a xlink:href="ESRRA_ESR2.svg" xlink:title="Z&#45;value: 3.814||remove24">
<polygon fill="#3247ff" stroke="#3247ff" stroke-width="2" points="224.1,-441.301 165.6,-441.301 153.6,-429.301 153.6,-417.301 165.6,-405.301 224.1,-405.301 236.1,-417.301 236.1,-429.301 224.1,-441.301"/>
<path fill="#3247ff" stroke="#3247ff" stroke-width="2" d="M165.6,-441.301C159.6,-441.301 153.6,-435.301 153.6,-429.301"/>
<path fill="#3247ff" stroke="#3247ff" stroke-width="2" d="M153.6,-417.301C153.6,-411.301 159.6,-405.301 165.6,-405.301"/>
<path fill="#3247ff" stroke="#3247ff" stroke-width="2" d="M224.1,-405.301C230.1,-405.301 236.1,-411.301 236.1,-417.301"/>
<path fill="#3247ff" stroke="#3247ff" stroke-width="2" d="M236.1,-429.301C236.1,-435.301 230.1,-441.301 224.1,-441.301"/>
<polyline fill="none" stroke="white" stroke-width="2" points="224.1,-441.301 165.6,-441.301 "/>
<path fill="none" stroke="white" stroke-width="2" d="M165.6,-441.301C159.6,-441.301 153.6,-435.301 153.6,-429.301"/>
<polyline fill="none" stroke="white" stroke-width="2" points="153.6,-429.301 153.6,-417.301 "/>
<path fill="none" stroke="white" stroke-width="2" d="M153.6,-417.301C153.6,-411.301 159.6,-405.301 165.6,-405.301"/>
<polyline fill="none" stroke="white" stroke-width="2" points="165.6,-405.301 224.1,-405.301 "/>
<path fill="none" stroke="white" stroke-width="2" d="M224.1,-405.301C230.1,-405.301 236.1,-411.301 236.1,-417.301"/>
<polyline fill="none" stroke="white" stroke-width="2" points="236.1,-417.301 236.1,-429.301 "/>
<path fill="none" stroke="white" stroke-width="2" d="M236.1,-429.301C236.1,-435.301 230.1,-441.301 224.1,-441.301"/>
<text text-anchor="middle" x="194.85" y="-420.801" font-family="Helvetica,sans-Serif" font-size="10.00" fill="white">ESRRA_ESR2</text>
</a>
</g>
<!-- MXI1_MYC_MYCN -->
<g id="node2" class="node"><title>MXI1_MYC_MYCN</title>
<a xlink:href="MXI1_MYC_MYCN.svg" xlink:title="Z&#45;value: 1.090||remove25">
<polygon fill="#a0a9ff" stroke="#a0a9ff" stroke-width="2" points="140.05,-387.001 61.55,-387.001 49.55,-375.001 49.55,-363.001 61.55,-351.001 140.05,-351.001 152.05,-363.001 152.05,-375.001 140.05,-387.001"/>
<path fill="#a0a9ff" stroke="#a0a9ff" stroke-width="2" d="M61.55,-387.001C55.55,-387.001 49.55,-381.001 49.55,-375.001"/>
<path fill="#a0a9ff" stroke="#a0a9ff" stroke-width="2" d="M49.55,-363.001C49.55,-357.001 55.55,-351.001 61.55,-351.001"/>
<path fill="#a0a9ff" stroke="#a0a9ff" stroke-width="2" d="M140.05,-351.001C146.05,-351.001 152.05,-357.001 152.05,-363.001"/>
<path fill="#a0a9ff" stroke="#a0a9ff" stroke-width="2" d="M152.05,-375.001C152.05,-381.001 146.05,-387.001 140.05,-387.001"/>
<polyline fill="none" stroke="white" stroke-width="2" points="140.05,-387.001 61.55,-387.001 "/>
<path fill="none" stroke="white" stroke-width="2" d="M61.55,-387.001C55.55,-387.001 49.55,-381.001 49.55,-375.001"/>
<polyline fill="none" stroke="white" stroke-width="2" points="49.55,-375.001 49.55,-363.001 "/>
<path fill="none" stroke="white" stroke-width="2" d="M49.55,-363.001C49.55,-357.001 55.55,-351.001 61.55,-351.001"/>
<polyline fill="none" stroke="white" stroke-width="2" points="61.55,-351.001 140.05,-351.001 "/>
<path fill="none" stroke="white" stroke-width="2" d="M140.05,-351.001C146.05,-351.001 152.05,-357.001 152.05,-363.001"/>
<polyline fill="none" stroke="white" stroke-width="2" points="152.05,-363.001 152.05,-375.001 "/>
<path fill="none" stroke="white" stroke-width="2" d="M152.05,-375.001C152.05,-381.001 146.05,-387.001 140.05,-387.001"/>
<text text-anchor="middle" x="100.8" y="-366.501" font-family="Helvetica,sans-Serif" font-size="10.00">MXI1_MYC_MYCN</text>
</a>
</g>
<!-- ESRRA_ESR2&#45;&gt;MXI1_MYC_MYCN -->
<g id="edge2" class="edge"><title>ESRRA_ESR2&#45;&gt;MXI1_MYC_MYCN</title>
<a xlink:title="MYCN: 0.141||ESRRA: 0.216||remove24">
<path fill="none" stroke="#e9bcff" stroke-width="3" d="M155.741,-401.876C150.062,-398.597 144.215,-395.221 138.544,-391.947"/>
<path fill="none" stroke="#e6b3ff" stroke-width="3" d="M156.741,-400.144C151.062,-396.865 145.215,-393.489 139.544,-390.215"/>
<polygon fill="#e6b3ff" stroke="#e6b3ff" points="155.205,-403.644 163.533,-405.22 158.005,-398.795 155.205,-403.644"/>
<polygon fill="#e9bcff" stroke="#e9bcff" points="140.309,-388.578 131.981,-387.003 137.509,-393.428 140.309,-388.578"/>
</a>
</g>
<!-- ESRRB_ESRRG -->
<g id="node4" class="node"><title>ESRRB_ESRRG</title>
<a xlink:href="ESRRB_ESRRG.svg" xlink:title="Z&#45;value: 0.825||remove17">
<polygon fill="#aab3ff" stroke="#aab3ff" stroke-width="2" points="80.75,-292.95 12.25,-292.95 0.25,-280.95 0.25,-268.95 12.25,-256.95 80.75,-256.95 92.75,-268.95 92.75,-280.95 80.75,-292.95"/>
<path fill="#aab3ff" stroke="#aab3ff" stroke-width="2" d="M12.25,-292.95C6.25,-292.95 0.25,-286.95 0.25,-280.95"/>
<path fill="#aab3ff" stroke="#aab3ff" stroke-width="2" d="M0.25,-268.95C0.25,-262.95 6.25,-256.95 12.25,-256.95"/>
<path fill="#aab3ff" stroke="#aab3ff" stroke-width="2" d="M80.75,-256.95C86.75,-256.95 92.75,-262.95 92.75,-268.95"/>
<path fill="#aab3ff" stroke="#aab3ff" stroke-width="2" d="M92.75,-280.95C92.75,-286.95 86.75,-292.95 80.75,-292.95"/>
<polyline fill="none" stroke="white" stroke-width="2" points="80.75,-292.95 12.25,-292.95 "/>
<path fill="none" stroke="white" stroke-width="2" d="M12.25,-292.95C6.25,-292.95 0.25,-286.95 0.25,-280.95"/>
<polyline fill="none" stroke="white" stroke-width="2" points="0.25,-280.95 0.25,-268.95 "/>
<path fill="none" stroke="white" stroke-width="2" d="M0.25,-268.95C0.25,-262.95 6.25,-256.95 12.25,-256.95"/>
<polyline fill="none" stroke="white" stroke-width="2" points="12.25,-256.95 80.75,-256.95 "/>
<path fill="none" stroke="white" stroke-width="2" d="M80.75,-256.95C86.75,-256.95 92.75,-262.95 92.75,-268.95"/>
<polyline fill="none" stroke="white" stroke-width="2" points="92.75,-268.95 92.75,-280.95 "/>
<path fill="none" stroke="white" stroke-width="2" d="M92.75,-280.95C92.75,-286.95 86.75,-292.95 80.75,-292.95"/>
<text text-anchor="middle" x="46.5" y="-272.45" font-family="Helvetica,sans-Serif" font-size="10.00">ESRRB_ESRRG</text>
</a>
</g>
<!-- ESRRA_ESR2&#45;&gt;ESRRB_ESRRG -->
<g id="edge4" class="edge"><title>ESRRA_ESR2&#45;&gt;ESRRB_ESRRG</title>
<a xlink:title="ESRRG: 0.134||remove17">
<path fill="none" stroke="#e9bcff" stroke-width="3" d="M189.845,-405.274C184.612,-388.94 175.107,-364.924 160.54,-348.121 142.048,-326.79 115.831,-309.378 93.1963,-296.898"/>
<polygon fill="#e9bcff" stroke="#e9bcff" points="94.3596,-294.345 85.9877,-293.021 91.7069,-299.277 94.3596,-294.345"/>
</a>
</g>
<!-- PLAGL1 -->
<g id="node6" class="node"><title>PLAGL1</title>
<a xlink:href="PLAGL1.svg" xlink:title="Z&#45;value: 1.203||remove23">
<polygon fill="#9ba5ff" stroke="#9ba5ff" stroke-width="2" points="61.5,-184.35 31.5,-184.35 19.5,-172.35 19.5,-160.35 31.5,-148.35 61.5,-148.35 73.5,-160.35 73.5,-172.35 61.5,-184.35"/>
<path fill="#9ba5ff" stroke="#9ba5ff" stroke-width="2" d="M31.5,-184.35C25.5,-184.35 19.5,-178.35 19.5,-172.35"/>
<path fill="#9ba5ff" stroke="#9ba5ff" stroke-width="2" d="M19.5,-160.35C19.5,-154.35 25.5,-148.35 31.5,-148.35"/>
<path fill="#9ba5ff" stroke="#9ba5ff" stroke-width="2" d="M61.5,-148.35C67.5,-148.35 73.5,-154.35 73.5,-160.35"/>
<path fill="#9ba5ff" stroke="#9ba5ff" stroke-width="2" d="M73.5,-172.35C73.5,-178.35 67.5,-184.35 61.5,-184.35"/>
<polyline fill="none" stroke="white" stroke-width="2" points="61.5,-184.35 31.5,-184.35 "/>
<path fill="none" stroke="white" stroke-width="2" d="M31.5,-184.35C25.5,-184.35 19.5,-178.35 19.5,-172.35"/>
<polyline fill="none" stroke="white" stroke-width="2" points="19.5,-172.35 19.5,-160.35 "/>
<path fill="none" stroke="white" stroke-width="2" d="M19.5,-160.35C19.5,-154.35 25.5,-148.35 31.5,-148.35"/>
<polyline fill="none" stroke="white" stroke-width="2" points="31.5,-148.35 61.5,-148.35 "/>
<path fill="none" stroke="white" stroke-width="2" d="M61.5,-148.35C67.5,-148.35 73.5,-154.35 73.5,-160.35"/>
<polyline fill="none" stroke="white" stroke-width="2" points="73.5,-160.35 73.5,-172.35 "/>
<path fill="none" stroke="white" stroke-width="2" d="M73.5,-172.35C73.5,-178.35 67.5,-184.35 61.5,-184.35"/>
<text text-anchor="middle" x="46.5" y="-163.85" font-family="Helvetica,sans-Serif" font-size="10.00">PLAGL1</text>
</a>
</g>
<!-- ESRRA_ESR2&#45;&gt;PLAGL1 -->
<g id="edge6" class="edge"><title>ESRRA_ESR2&#45;&gt;PLAGL1</title>
<a xlink:title="PLAGL1: 0.182||ESRRA: 0.170||remove23">
<path fill="none" stroke="#e8b7ff" stroke-width="3" d="M183.095,-397.736C176.727,-383.076 168.244,-364.522 159.66,-348.595 128.523,-290.802 86.1484,-226.352 62.8312,-191.895"/>
<path fill="none" stroke="#e8b8ff" stroke-width="3" d="M184.929,-396.939C178.546,-382.245 170.063,-363.69 161.42,-347.646 130.194,-289.703 87.8196,-225.253 64.4875,-190.774"/>
<polygon fill="#e8b8ff" stroke="#e8b8ff" points="181.595,-398.805 187.325,-405.051 186.741,-396.595 181.595,-398.805"/>
<polygon fill="#e8b7ff" stroke="#e8b7ff" points="65.7932,-189.493 58.9822,-184.448 61.1606,-192.639 65.7932,-189.493"/>
</a>
</g>
<!-- POU3F2 -->
<g id="node8" class="node"><title>POU3F2</title>
<a xlink:href="POU3F2.svg" xlink:title="Z&#45;value: 0.954||remove18">
<polygon fill="#a5aeff" stroke="#a5aeff" stroke-width="2" points="467.051,-292.95 436.551,-292.95 424.551,-280.95 424.551,-268.95 436.551,-256.95 467.051,-256.95 479.051,-268.95 479.051,-280.95 467.051,-292.95"/>
<path fill="#a5aeff" stroke="#a5aeff" stroke-width="2" d="M436.551,-292.95C430.551,-292.95 424.551,-286.95 424.551,-280.95"/>
<path fill="#a5aeff" stroke="#a5aeff" stroke-width="2" d="M424.551,-268.95C424.551,-262.95 430.551,-256.95 436.551,-256.95"/>
<path fill="#a5aeff" stroke="#a5aeff" stroke-width="2" d="M467.051,-256.95C473.051,-256.95 479.051,-262.95 479.051,-268.95"/>
<path fill="#a5aeff" stroke="#a5aeff" stroke-width="2" d="M479.051,-280.95C479.051,-286.95 473.051,-292.95 467.051,-292.95"/>
<polyline fill="none" stroke="white" stroke-width="2" points="467.051,-292.95 436.551,-292.95 "/>
<path fill="none" stroke="white" stroke-width="2" d="M436.551,-292.95C430.551,-292.95 424.551,-286.95 424.551,-280.95"/>
<polyline fill="none" stroke="white" stroke-width="2" points="424.551,-280.95 424.551,-268.95 "/>
<path fill="none" stroke="white" stroke-width="2" d="M424.551,-268.95C424.551,-262.95 430.551,-256.95 436.551,-256.95"/>
<polyline fill="none" stroke="white" stroke-width="2" points="436.551,-256.95 467.051,-256.95 "/>
<path fill="none" stroke="white" stroke-width="2" d="M467.051,-256.95C473.051,-256.95 479.051,-262.95 479.051,-268.95"/>
<polyline fill="none" stroke="white" stroke-width="2" points="479.051,-268.95 479.051,-280.95 "/>
<path fill="none" stroke="white" stroke-width="2" d="M479.051,-280.95C479.051,-286.95 473.051,-292.95 467.051,-292.95"/>
<text text-anchor="middle" x="451.801" y="-272.45" font-family="Helvetica,sans-Serif" font-size="10.00">POU3F2</text>
</a>
</g>
<!-- ESRRA_ESR2&#45;&gt;POU3F2 -->
<g id="edge8" class="edge"><title>ESRRA_ESR2&#45;&gt;POU3F2</title>
<a xlink:title="POU3F2: 0.530||remove18">
<path fill="none" stroke="#db90ff" stroke-width="3" d="M226.101,-405.258C274.414,-377.365 366.903,-323.966 417.183,-294.937"/>
<polygon fill="#db90ff" stroke="#db90ff" points="418.757,-297.262 424.285,-290.837 415.957,-292.412 418.757,-297.262"/>
</a>
</g>
<!-- NR0B1 -->
<g id="node10" class="node"><title>NR0B1</title>
<a xlink:href="NR0B1.svg" xlink:title="Z&#45;value: 0.448||remove29">
<polygon fill="#ffbaba" stroke="#ffbaba" stroke-width="2" points="264.15,-238.65 234.15,-238.65 222.15,-226.65 222.15,-214.65 234.15,-202.65 264.15,-202.65 276.15,-214.65 276.15,-226.65 264.15,-238.65"/>
<path fill="#ffbaba" stroke="#ffbaba" stroke-width="2" d="M234.15,-238.65C228.15,-238.65 222.15,-232.65 222.15,-226.65"/>
<path fill="#ffbaba" stroke="#ffbaba" stroke-width="2" d="M222.15,-214.65C222.15,-208.65 228.15,-202.65 234.15,-202.65"/>
<path fill="#ffbaba" stroke="#ffbaba" stroke-width="2" d="M264.15,-202.65C270.15,-202.65 276.15,-208.65 276.15,-214.65"/>
<path fill="#ffbaba" stroke="#ffbaba" stroke-width="2" d="M276.15,-226.65C276.15,-232.65 270.15,-238.65 264.15,-238.65"/>
<polyline fill="none" stroke="white" stroke-width="2" points="264.15,-238.65 234.15,-238.65 "/>
<path fill="none" stroke="white" stroke-width="2" d="M234.15,-238.65C228.15,-238.65 222.15,-232.65 222.15,-226.65"/>
<polyline fill="none" stroke="white" stroke-width="2" points="222.15,-226.65 222.15,-214.65 "/>
<path fill="none" stroke="white" stroke-width="2" d="M222.15,-214.65C222.15,-208.65 228.15,-202.65 234.15,-202.65"/>
<polyline fill="none" stroke="white" stroke-width="2" points="234.15,-202.65 264.15,-202.65 "/>
<path fill="none" stroke="white" stroke-width="2" d="M264.15,-202.65C270.15,-202.65 276.15,-208.65 276.15,-214.65"/>
<polyline fill="none" stroke="white" stroke-width="2" points="276.15,-214.65 276.15,-226.65 "/>
<path fill="none" stroke="white" stroke-width="2" d="M276.15,-226.65C276.15,-232.65 270.15,-238.65 264.15,-238.65"/>
<text text-anchor="middle" x="249.15" y="-218.15" font-family="Helvetica,sans-Serif" font-size="10.00">NR0B1</text>
</a>
</g>
<!-- ESRRA_ESR2&#45;&gt;NR0B1 -->
<g id="edge10" class="edge"><title>ESRRA_ESR2&#45;&gt;NR0B1</title>
<a xlink:title="NR0B1: 0.165||remove24root">
<path fill="none" stroke="#b9c0ff" stroke-width="3" d="M199.765,-404.959C209.457,-368.789 231.059,-288.169 242.203,-246.577"/>
<polygon fill="#b9c0ff" stroke="#b9c0ff" points="244.92,-247.256 244.286,-238.804 239.511,-245.807 244.92,-247.256"/>
</a>
</g>
<!-- RUNX1_RUNX2 -->
<g id="node12" class="node"><title>RUNX1_RUNX2</title>
<a xlink:href="RUNX1_RUNX2.svg" xlink:title="Z&#45;value: 0.708||remove20">
<polygon fill="#afb7ff" stroke="#afb7ff" stroke-width="2" points="430.751,-387.001 364.251,-387.001 352.251,-375.001 352.251,-363.001 364.251,-351.001 430.751,-351.001 442.751,-363.001 442.751,-375.001 430.751,-387.001"/>
<path fill="#afb7ff" stroke="#afb7ff" stroke-width="2" d="M364.251,-387.001C358.251,-387.001 352.251,-381.001 352.251,-375.001"/>
<path fill="#afb7ff" stroke="#afb7ff" stroke-width="2" d="M352.251,-363.001C352.251,-357.001 358.251,-351.001 364.251,-351.001"/>
<path fill="#afb7ff" stroke="#afb7ff" stroke-width="2" d="M430.751,-351.001C436.751,-351.001 442.751,-357.001 442.751,-363.001"/>
<path fill="#afb7ff" stroke="#afb7ff" stroke-width="2" d="M442.751,-375.001C442.751,-381.001 436.751,-387.001 430.751,-387.001"/>
<polyline fill="none" stroke="white" stroke-width="2" points="430.751,-387.001 364.251,-387.001 "/>
<path fill="none" stroke="white" stroke-width="2" d="M364.251,-387.001C358.251,-387.001 352.251,-381.001 352.251,-375.001"/>
<polyline fill="none" stroke="white" stroke-width="2" points="352.251,-375.001 352.251,-363.001 "/>
<path fill="none" stroke="white" stroke-width="2" d="M352.251,-363.001C352.251,-357.001 358.251,-351.001 364.251,-351.001"/>
<polyline fill="none" stroke="white" stroke-width="2" points="364.251,-351.001 430.751,-351.001 "/>
<path fill="none" stroke="white" stroke-width="2" d="M430.751,-351.001C436.751,-351.001 442.751,-357.001 442.751,-363.001"/>
<polyline fill="none" stroke="white" stroke-width="2" points="442.751,-363.001 442.751,-375.001 "/>
<path fill="none" stroke="white" stroke-width="2" d="M442.751,-375.001C442.751,-381.001 436.751,-387.001 430.751,-387.001"/>
<text text-anchor="middle" x="397.501" y="-366.501" font-family="Helvetica,sans-Serif" font-size="10.00">RUNX1_RUNX2</text>
</a>
</g>
<!-- ESRRA_ESR2&#45;&gt;RUNX1_RUNX2 -->
<g id="edge12" class="edge"><title>ESRRA_ESR2&#45;&gt;RUNX1_RUNX2</title>
<a xlink:title="RUNX2: 0.207||remove20">
<path fill="none" stroke="#e7b4ff" stroke-width="3" d="M236.161,-405.935C239.67,-404.674 243.186,-403.483 246.61,-402.421 278.351,-392.578 314.698,-384.436 343.765,-378.654"/>
<polygon fill="#e7b4ff" stroke="#e7b4ff" points="344.448,-381.373 351.76,-377.086 343.371,-375.878 344.448,-381.373"/>
</a>
</g>
<!-- GLIS2 -->
<g id="node14" class="node"><title>GLIS2</title>
<a xlink:href="GLIS2.svg" xlink:title="Z&#45;value: 0.867||remove27">
<polygon fill="#a9b1ff" stroke="#a9b1ff" stroke-width="2" points="115.8,-90.3 85.8,-90.3 73.8,-78.3 73.8,-66.3 85.8,-54.3 115.8,-54.3 127.8,-66.3 127.8,-78.3 115.8,-90.3"/>
<path fill="#a9b1ff" stroke="#a9b1ff" stroke-width="2" d="M85.8,-90.3C79.8,-90.3 73.8,-84.3 73.8,-78.3"/>
<path fill="#a9b1ff" stroke="#a9b1ff" stroke-width="2" d="M73.8,-66.3C73.8,-60.3 79.8,-54.3 85.8,-54.3"/>
<path fill="#a9b1ff" stroke="#a9b1ff" stroke-width="2" d="M115.8,-54.3C121.8,-54.3 127.8,-60.3 127.8,-66.3"/>
<path fill="#a9b1ff" stroke="#a9b1ff" stroke-width="2" d="M127.8,-78.3C127.8,-84.3 121.8,-90.3 115.8,-90.3"/>
<polyline fill="none" stroke="white" stroke-width="2" points="115.8,-90.3 85.8,-90.3 "/>
<path fill="none" stroke="white" stroke-width="2" d="M85.8,-90.3C79.8,-90.3 73.8,-84.3 73.8,-78.3"/>
<polyline fill="none" stroke="white" stroke-width="2" points="73.8,-78.3 73.8,-66.3 "/>
<path fill="none" stroke="white" stroke-width="2" d="M73.8,-66.3C73.8,-60.3 79.8,-54.3 85.8,-54.3"/>
<polyline fill="none" stroke="white" stroke-width="2" points="85.8,-54.3 115.8,-54.3 "/>
<path fill="none" stroke="white" stroke-width="2" d="M115.8,-54.3C121.8,-54.3 127.8,-60.3 127.8,-66.3"/>
<polyline fill="none" stroke="white" stroke-width="2" points="127.8,-66.3 127.8,-78.3 "/>
<path fill="none" stroke="white" stroke-width="2" d="M127.8,-78.3C127.8,-84.3 121.8,-90.3 115.8,-90.3"/>
<text text-anchor="middle" x="100.8" y="-69.8" font-family="Helvetica,sans-Serif" font-size="10.00">GLIS2</text>
</a>
</g>
<!-- ESRRA_ESR2&#45;&gt;GLIS2 -->
<g id="edge14" class="edge"><title>ESRRA_ESR2&#45;&gt;GLIS2</title>
<a xlink:title="GLIS2: 0.020||remove2root">
<path fill="none" stroke="#edc9ff" stroke-width="3" d="M189.926,-404.924C174.341,-346.757 126.047,-166.524 107.841,-98.5787"/>
<polygon fill="#edc9ff" stroke="#edc9ff" points="110.451,-97.4979 105.675,-90.4952 105.041,-98.9473 110.451,-97.4979"/>
</a>
</g>
<!-- MXI1_MYC_MYCN&#45;&gt;NR0B1 -->
<g id="edge38" class="edge"><title>MXI1_MYC_MYCN&#45;&gt;NR0B1</title>
<a xlink:title="NR0B1: 0.194||remove25root">
<path fill="none" stroke="#b6bdff" stroke-width="3" d="M118.991,-350.81C145.572,-324.228 195.087,-274.714 224.789,-245.012"/>
<polygon fill="#b6bdff" stroke="#b6bdff" points="227.134,-246.627 230.811,-238.99 223.174,-242.667 227.134,-246.627"/>
</a>
</g>
<!-- MXI1_MYC_MYCN&#45;&gt;GLIS2 -->
<g id="edge42" class="edge"><title>MXI1_MYC_MYCN&#45;&gt;GLIS2</title>
<a xlink:title="GLIS2: 0.099||remove14root">
<path fill="none" stroke="#ebc0ff" stroke-width="3" d="M100.8,-350.887C100.8,-300.402 100.8,-157.935 100.8,-98.6724"/>
<polygon fill="#ebc0ff" stroke="#ebc0ff" points="103.6,-98.5532 100.8,-90.5533 98.0001,-98.5533 103.6,-98.5532"/>
</a>
</g>
<!-- PATZ1_KLF4 -->
<g id="node31" class="node"><title>PATZ1_KLF4</title>
<a xlink:href="PATZ1_KLF4.svg" xlink:title="Z&#45;value: 1.751||remove22">
<polygon fill="#8591ff" stroke="#8591ff" stroke-width="2" points="423.501,-90.3 371.501,-90.3 359.501,-78.3 359.501,-66.3 371.501,-54.3 423.501,-54.3 435.501,-66.3 435.501,-78.3 423.501,-90.3"/>
<path fill="#8591ff" stroke="#8591ff" stroke-width="2" d="M371.501,-90.3C365.501,-90.3 359.501,-84.3 359.501,-78.3"/>
<path fill="#8591ff" stroke="#8591ff" stroke-width="2" d="M359.501,-66.3C359.501,-60.3 365.501,-54.3 371.501,-54.3"/>
<path fill="#8591ff" stroke="#8591ff" stroke-width="2" d="M423.501,-54.3C429.501,-54.3 435.501,-60.3 435.501,-66.3"/>
<path fill="#8591ff" stroke="#8591ff" stroke-width="2" d="M435.501,-78.3C435.501,-84.3 429.501,-90.3 423.501,-90.3"/>
<polyline fill="none" stroke="white" stroke-width="2" points="423.501,-90.3 371.501,-90.3 "/>
<path fill="none" stroke="white" stroke-width="2" d="M371.501,-90.3C365.501,-90.3 359.501,-84.3 359.501,-78.3"/>
<polyline fill="none" stroke="white" stroke-width="2" points="359.501,-78.3 359.501,-66.3 "/>
<path fill="none" stroke="white" stroke-width="2" d="M359.501,-66.3C359.501,-60.3 365.501,-54.3 371.501,-54.3"/>
<polyline fill="none" stroke="white" stroke-width="2" points="371.501,-54.3 423.501,-54.3 "/>
<path fill="none" stroke="white" stroke-width="2" d="M423.501,-54.3C429.501,-54.3 435.501,-60.3 435.501,-66.3"/>
<polyline fill="none" stroke="white" stroke-width="2" points="435.501,-66.3 435.501,-78.3 "/>
<path fill="none" stroke="white" stroke-width="2" d="M435.501,-78.3C435.501,-84.3 429.501,-90.3 423.501,-90.3"/>
<text text-anchor="middle" x="397.501" y="-69.8" font-family="Helvetica,sans-Serif" font-size="10.00">PATZ1_KLF4</text>
</a>
</g>
<!-- MXI1_MYC_MYCN&#45;&gt;PATZ1_KLF4 -->
<g id="edge40" class="edge"><title>MXI1_MYC_MYCN&#45;&gt;PATZ1_KLF4</title>
<a xlink:title="PATZ1: 0.041||MYCN: 0.388||MXI1: 0.051||remove22">
<path fill="none" stroke="#edc7ff" stroke-width="3" d="M113.506,-343.46C133.231,-308.519 172.325,-244.441 217.119,-199.068 260.175,-155.522 319.402,-116.704 357.97,-93.5976"/>
<path fill="none" stroke="#e0a0ff" stroke-width="3" d="M115.247,-344.443C134.938,-309.561 174.032,-245.483 218.542,-200.473 261.272,-157.195 320.499,-118.376 358.998,-95.3133"/>
<polygon fill="#e0a0ff" stroke="#e0a0ff" points="111.929,-342.591 110.47,-350.941 116.817,-345.323 111.929,-342.591"/>
<polygon fill="#edc7ff" stroke="#edc7ff" points="359.981,-96.823 365.43,-90.3305 357.122,-92.0081 359.981,-96.823"/>
</a>
</g>
<!-- ESRRB_ESRRG&#45;&gt;ESRRB_ESRRG -->
<g id="edge46" class="edge"><title>ESRRB_ESRRG&#45;&gt;ESRRB_ESRRG</title>
<a xlink:title="ESRRG: 0.023||remove3root">
<path fill="none" stroke="#edc9ff" stroke-width="3" d="M92.8118,-281.519C103.046,-280.902 110.5,-278.712 110.5,-274.95 110.5,-272.305 106.815,-270.438 101.069,-269.347"/>
<polygon fill="#edc9ff" stroke="#edc9ff" points="101.083,-266.53 92.8118,-268.382 100.433,-272.092 101.083,-266.53"/>
</a>
</g>
<!-- ESRRB_ESRRG&#45;&gt;NR0B1 -->
<g id="edge48" class="edge"><title>ESRRB_ESRRG&#45;&gt;NR0B1</title>
<a xlink:title="NR0B1: 0.120||remove17root">
<path fill="none" stroke="#bec4ff" stroke-width="3" d="M92.9921,-262.493C129.726,-252.65 180.22,-239.12 213.729,-230.141"/>
<polygon fill="#bec4ff" stroke="#bec4ff" points="214.861,-232.737 221.864,-227.962 213.411,-227.328 214.861,-232.737"/>
</a>
</g>
<!-- PLAGL1&#45;&gt;MXI1_MYC_MYCN -->
<g id="edge16" class="edge"><title>PLAGL1&#45;&gt;MXI1_MYC_MYCN</title>
<a xlink:title="MXI1: 0.057||PLAGL1: 0.022||remove8root">
<path fill="none" stroke="#ecc5ff" stroke-width="3" d="M67.705,-190.555C80.0949,-207.283 94.6919,-230.365 101.402,-253.797 109.805,-283.512 108.287,-318.88 105.714,-342.612"/>
<path fill="none" stroke="#edc9ff" stroke-width="3" d="M66.098,-191.746C78.4045,-208.352 93.0016,-231.434 99.4782,-254.344 107.806,-283.426 106.289,-318.794 103.726,-342.396"/>
<polygon fill="#edc9ff" stroke="#edc9ff" points="68.8506,-189.088 61.7769,-184.419 64.3947,-192.48 68.8506,-189.088"/>
<polygon fill="#ecc5ff" stroke="#ecc5ff" points="101.915,-342.385 103.743,-350.661 107.475,-343.051 101.915,-342.385"/>
</a>
</g>
<!-- PLAGL1&#45;&gt;ESRRB_ESRRG -->
<g id="edge18" class="edge"><title>PLAGL1&#45;&gt;ESRRB_ESRRG</title>
<a xlink:title="ESRRG: 0.052||remove7root">
<path fill="none" stroke="#ecc6ff" stroke-width="3" d="M46.5,-184.773C46.5,-202.353 46.5,-229.014 46.5,-248.792"/>
<polygon fill="#ecc6ff" stroke="#ecc6ff" points="43.7001,-248.8 46.5,-256.8 49.3001,-248.8 43.7001,-248.8"/>
</a>
</g>
<!-- PLAGL1&#45;&gt;PLAGL1 -->
<g id="edge20" class="edge"><title>PLAGL1&#45;&gt;PLAGL1</title>
<a xlink:title="PLAGL1: 0.151||remove23">
<path fill="none" stroke="#e9bbff" stroke-width="3" d="M73.7408,-173.094C83.5239,-173.239 91.5,-170.991 91.5,-166.35 91.5,-163.087 87.5568,-161.007 81.8147,-160.11"/>
<polygon fill="#e9bbff" stroke="#e9bbff" points="81.8996,-157.31 73.7408,-159.607 81.551,-162.9 81.8996,-157.31"/>
</a>
</g>
<!-- PLAGL1&#45;&gt;POU3F2 -->
<g id="edge22" class="edge"><title>PLAGL1&#45;&gt;POU3F2</title>
<a xlink:title="POU3F2: 0.112||remove16root">
<path fill="none" stroke="#eabfff" stroke-width="3" d="M73.5358,-180.978C106.597,-198.207 164.726,-226.393 217.83,-241.53 286.369,-261.068 369.607,-269.478 416.048,-272.867"/>
<polygon fill="#eabfff" stroke="#eabfff" points="416.104,-275.677 424.28,-273.442 416.495,-270.091 416.104,-275.677"/>
</a>
</g>
<!-- PLAGL1&#45;&gt;NR0B1 -->
<g id="edge30" class="edge"><title>PLAGL1&#45;&gt;NR0B1</title>
<a xlink:title="NR0B1: 0.144||remove23root">
<path fill="none" stroke="#bbc2ff" stroke-width="3" d="M73.8303,-173.674C110.116,-183.396 174.238,-200.578 214.062,-211.249"/>
<polygon fill="#bbc2ff" stroke="#bbc2ff" points="213.478,-213.991 221.93,-213.357 214.927,-208.582 213.478,-213.991"/>
</a>
</g>
<!-- PLAGL1&#45;&gt;RUNX1_RUNX2 -->
<g id="edge32" class="edge"><title>PLAGL1&#45;&gt;RUNX1_RUNX2</title>
<a xlink:title="RUNX1: 0.060||RUNX2: 0.051||remove10root">
<path fill="none" stroke="#ecc5ff" stroke-width="3" d="M73.7504,-182.083C135.807,-217.912 287.786,-305.657 359.22,-346.899"/>
<polygon fill="#ecc5ff" stroke="#ecc5ff" points="357.96,-349.405 366.288,-350.98 360.76,-344.555 357.96,-349.405"/>
</a>
</g>
<!-- PLAGL1&#45;&gt;GLIS2 -->
<g id="edge34" class="edge"><title>PLAGL1&#45;&gt;GLIS2</title>
<a xlink:title="GLIS2: 0.037||remove4root">
<path fill="none" stroke="#edc7ff" stroke-width="3" d="M56.9696,-148.217C65.3079,-133.774 77.0732,-113.396 86.3152,-97.3884"/>
<polygon fill="#edc7ff" stroke="#edc7ff" points="88.7874,-98.7064 90.3626,-90.3782 83.9376,-95.9064 88.7874,-98.7064"/>
</a>
</g>
<!-- NR2F2 -->
<g id="node20" class="node"><title>NR2F2</title>
<a xlink:href="NR2F2.svg" xlink:title="Z&#45;value: 1.741||remove26">
<polygon fill="#8692ff" stroke="#8692ff" stroke-width="2" points="209.85,-36 179.85,-36 167.85,-24 167.85,-12 179.85,-6.39488e-14 209.85,-6.39488e-14 221.85,-12 221.85,-24 209.85,-36"/>
<path fill="#8692ff" stroke="#8692ff" stroke-width="2" d="M179.85,-36C173.85,-36 167.85,-30 167.85,-24"/>
<path fill="#8692ff" stroke="#8692ff" stroke-width="2" d="M167.85,-12C167.85,-6 173.85,-6.39488e-14 179.85,-6.39488e-14"/>
<path fill="#8692ff" stroke="#8692ff" stroke-width="2" d="M209.85,-6.39488e-14C215.85,-6.39488e-14 221.85,-6 221.85,-12"/>
<path fill="#8692ff" stroke="#8692ff" stroke-width="2" d="M221.85,-24C221.85,-30 215.85,-36 209.85,-36"/>
<polyline fill="none" stroke="white" stroke-width="2" points="209.85,-36 179.85,-36 "/>
<path fill="none" stroke="white" stroke-width="2" d="M179.85,-36C173.85,-36 167.85,-30 167.85,-24"/>
<polyline fill="none" stroke="white" stroke-width="2" points="167.85,-24 167.85,-12 "/>
<path fill="none" stroke="white" stroke-width="2" d="M167.85,-12C167.85,-6 173.85,-6.39488e-14 179.85,-6.39488e-14"/>
<polyline fill="none" stroke="white" stroke-width="2" points="179.85,-6.39488e-14 209.85,-6.39488e-14 "/>
<path fill="none" stroke="white" stroke-width="2" d="M209.85,-6.39488e-14C215.85,-6.39488e-14 221.85,-6 221.85,-12"/>
<polyline fill="none" stroke="white" stroke-width="2" points="221.85,-12 221.85,-24 "/>
<path fill="none" stroke="white" stroke-width="2" d="M221.85,-24C221.85,-30 215.85,-36 209.85,-36"/>
<text text-anchor="middle" x="194.85" y="-15.5" font-family="Helvetica,sans-Serif" font-size="10.00">NR2F2</text>
</a>
</g>
<!-- PLAGL1&#45;&gt;NR2F2 -->
<g id="edge24" class="edge"><title>PLAGL1&#45;&gt;NR2F2</title>
<a xlink:title="NR2F2: 0.172||remove23">
<path fill="none" stroke="#e8b8ff" stroke-width="3" d="M69.96,-148.089C87.7113,-133.855 112.328,-113.207 132.12,-93.18 147.87,-77.243 164.032,-57.7863 176.006,-42.6597"/>
<polygon fill="#e8b8ff" stroke="#e8b8ff" points="178.462,-44.0653 181.196,-36.0425 174.055,-40.6092 178.462,-44.0653"/>
</a>
</g>
<!-- POU3F3_POU3F4 -->
<g id="node22" class="node"><title>POU3F3_POU3F4</title>
<a xlink:href="POU3F3_POU3F4.svg" xlink:title="Z&#45;value: 0.515||remove28">
<polygon fill="#b7beff" stroke="#b7beff" stroke-width="2" points="339.95,-441.301 266.95,-441.301 254.95,-429.301 254.95,-417.301 266.95,-405.301 339.95,-405.301 351.95,-417.301 351.95,-429.301 339.95,-441.301"/>
<path fill="#b7beff" stroke="#b7beff" stroke-width="2" d="M266.95,-441.301C260.95,-441.301 254.95,-435.301 254.95,-429.301"/>
<path fill="#b7beff" stroke="#b7beff" stroke-width="2" d="M254.95,-417.301C254.95,-411.301 260.95,-405.301 266.95,-405.301"/>
<path fill="#b7beff" stroke="#b7beff" stroke-width="2" d="M339.95,-405.301C345.95,-405.301 351.95,-411.301 351.95,-417.301"/>
<path fill="#b7beff" stroke="#b7beff" stroke-width="2" d="M351.95,-429.301C351.95,-435.301 345.95,-441.301 339.95,-441.301"/>
<polyline fill="none" stroke="white" stroke-width="2" points="339.95,-441.301 266.95,-441.301 "/>
<path fill="none" stroke="white" stroke-width="2" d="M266.95,-441.301C260.95,-441.301 254.95,-435.301 254.95,-429.301"/>
<polyline fill="none" stroke="white" stroke-width="2" points="254.95,-429.301 254.95,-417.301 "/>
<path fill="none" stroke="white" stroke-width="2" d="M254.95,-417.301C254.95,-411.301 260.95,-405.301 266.95,-405.301"/>
<polyline fill="none" stroke="white" stroke-width="2" points="266.95,-405.301 339.95,-405.301 "/>
<path fill="none" stroke="white" stroke-width="2" d="M339.95,-405.301C345.95,-405.301 351.95,-411.301 351.95,-417.301"/>
<polyline fill="none" stroke="white" stroke-width="2" points="351.95,-417.301 351.95,-429.301 "/>
<path fill="none" stroke="white" stroke-width="2" d="M351.95,-429.301C351.95,-435.301 345.95,-441.301 339.95,-441.301"/>
<text text-anchor="middle" x="303.45" y="-420.801" font-family="Helvetica,sans-Serif" font-size="10.00">POU3F3_POU3F4</text>
</a>
</g>
<!-- PLAGL1&#45;&gt;POU3F3_POU3F4 -->
<g id="edge26" class="edge"><title>PLAGL1&#45;&gt;POU3F3_POU3F4</title>
<a xlink:title="POU3F3: 0.459||POU3F4: 0.040||remove23">
<path fill="none" stroke="#de98ff" stroke-width="3" d="M64.5683,-184.419C109.904,-229.754 228.484,-348.335 279.522,-399.373"/>
<polygon fill="#de98ff" stroke="#de98ff" points="277.765,-401.575 285.402,-405.252 281.725,-397.616 277.765,-401.575"/>
</a>
</g>
<!-- SP3 -->
<g id="node24" class="node"><title>SP3</title>
<a xlink:href="SP3.svg" xlink:title="Z&#45;value: 1.634||remove21">
<polygon fill="#8a96ff" stroke="#8a96ff" stroke-width="2" points="318.45,-36 288.45,-36 276.45,-24 276.45,-12 288.45,-0 318.45,-0 330.45,-12 330.45,-24 318.45,-36"/>
<path fill="#8a96ff" stroke="#8a96ff" stroke-width="2" d="M288.45,-36C282.45,-36 276.45,-30 276.45,-24"/>
<path fill="#8a96ff" stroke="#8a96ff" stroke-width="2" d="M276.45,-12C276.45,-6 282.45,-0 288.45,-0"/>
<path fill="#8a96ff" stroke="#8a96ff" stroke-width="2" d="M318.45,-0C324.45,-0 330.45,-6 330.45,-12"/>
<path fill="#8a96ff" stroke="#8a96ff" stroke-width="2" d="M330.45,-24C330.45,-30 324.45,-36 318.45,-36"/>
<polyline fill="none" stroke="white" stroke-width="2" points="318.45,-36 288.45,-36 "/>
<path fill="none" stroke="white" stroke-width="2" d="M288.45,-36C282.45,-36 276.45,-30 276.45,-24"/>
<polyline fill="none" stroke="white" stroke-width="2" points="276.45,-24 276.45,-12 "/>
<path fill="none" stroke="white" stroke-width="2" d="M276.45,-12C276.45,-6 282.45,-0 288.45,-0"/>
<polyline fill="none" stroke="white" stroke-width="2" points="288.45,-0 318.45,-0 "/>
<path fill="none" stroke="white" stroke-width="2" d="M318.45,-0C324.45,-0 330.45,-6 330.45,-12"/>
<polyline fill="none" stroke="white" stroke-width="2" points="330.45,-12 330.45,-24 "/>
<path fill="none" stroke="white" stroke-width="2" d="M330.45,-24C330.45,-30 324.45,-36 318.45,-36"/>
<text text-anchor="middle" x="303.45" y="-15.5" font-family="Helvetica,sans-Serif" font-size="10.00">SP3</text>
</a>
</g>
<!-- PLAGL1&#45;&gt;SP3 -->
<g id="edge28" class="edge"><title>PLAGL1&#45;&gt;SP3</title>
<a xlink:title="SP3: 0.106||PLAGL1: 0.059||remove15root">
<path fill="none" stroke="#eac0ff" stroke-width="3" d="M79.9852,-145.863C129.192,-117.454 219.757,-65.1658 268.964,-36.756"/>
<path fill="none" stroke="#ecc5ff" stroke-width="3" d="M80.9852,-147.595C130.192,-119.186 220.757,-66.8978 269.964,-38.488"/>
<polygon fill="#ecc5ff" stroke="#ecc5ff" points="79.0407,-144.33 73.5125,-150.755 81.8408,-149.179 79.0407,-144.33"/>
<polygon fill="#eac0ff" stroke="#eac0ff" points="270.886,-40.0343 276.414,-33.6093 268.086,-35.1845 270.886,-40.0343"/>
</a>
</g>
<!-- POU3F2&#45;&gt;ESRRB_ESRRG -->
<g id="edge36" class="edge"><title>POU3F2&#45;&gt;ESRRB_ESRRG</title>
<a xlink:title="ESRRG: 0.019||remove0root">
<path fill="none" stroke="#edc9ff" stroke-width="3" d="M424.261,-274.95C358.069,-274.95 189.039,-274.95 101.264,-274.95"/>
<polygon fill="#edc9ff" stroke="#edc9ff" points="101.029,-272.15 93.0291,-274.95 101.029,-277.75 101.029,-272.15"/>
</a>
</g>
<!-- NR0B1&#45;&gt;POU3F2 -->
<g id="edge56" class="edge"><title>NR0B1&#45;&gt;POU3F2</title>
<a xlink:title="POU3F2: 0.123||remove18root">
<path fill="none" stroke="#ffbebe" stroke-width="3" d="M276.481,-227.974C312.665,-237.669 376.531,-254.782 416.379,-265.459"/>
<polygon fill="#ffbebe" stroke="#ffbebe" points="415.804,-268.204 424.256,-267.57 417.254,-262.795 415.804,-268.204"/>
</a>
</g>
<!-- NR0B1&#45;&gt;RUNX1_RUNX2 -->
<g id="edge60" class="edge"><title>NR0B1&#45;&gt;RUNX1_RUNX2</title>
<a xlink:title="RUNX2: 0.125||remove20root">
<path fill="none" stroke="#ffbdbd" stroke-width="3" d="M267.341,-238.841C293.923,-265.423 343.438,-314.938 373.139,-344.639"/>
<polygon fill="#ffbdbd" stroke="#ffbdbd" points="371.524,-346.984 379.161,-350.661 375.484,-343.024 371.524,-346.984"/>
</a>
</g>
<!-- NR0B1&#45;&gt;POU3F3_POU3F4 -->
<g id="edge58" class="edge"><title>NR0B1&#45;&gt;POU3F3_POU3F4</title>
<a xlink:title="POU3F3: 0.296||remove28root">
<path fill="none" stroke="#ffaaaa" stroke-width="3" d="M254.065,-238.992C263.757,-275.163 285.359,-355.782 296.503,-397.374"/>
<polygon fill="#ffaaaa" stroke="#ffaaaa" points="293.811,-398.144 298.586,-405.147 299.22,-396.695 293.811,-398.144"/>
</a>
</g>
<!-- RUNX1_RUNX2&#45;&gt;POU3F2 -->
<g id="edge50" class="edge"><title>RUNX1_RUNX2&#45;&gt;POU3F2</title>
<a xlink:title="POU3F2: 0.044||remove6root">
<path fill="none" stroke="#edc7ff" stroke-width="3" d="M407.97,-350.867C416.309,-336.425 428.074,-316.046 437.316,-300.039"/>
<polygon fill="#edc7ff" stroke="#edc7ff" points="439.788,-301.357 441.363,-293.029 434.938,-298.557 439.788,-301.357"/>
</a>
</g>
<!-- RUNX1_RUNX2&#45;&gt;RUNX1_RUNX2 -->
<g id="edge52" class="edge"><title>RUNX1_RUNX2&#45;&gt;RUNX1_RUNX2</title>
<a xlink:title="RUNX2: 0.161||remove20">
<path fill="none" stroke="#e8b9ff" stroke-width="3" d="M442.806,-375.586C453.026,-374.993 460.501,-372.798 460.501,-369.001 460.501,-366.331 456.805,-364.453 451.058,-363.367"/>
<polygon fill="#e8b9ff" stroke="#e8b9ff" points="451.074,-360.551 442.806,-362.416 450.432,-366.114 451.074,-360.551"/>
</a>
</g>
<!-- RUNX1_RUNX2&#45;&gt;PATZ1_KLF4 -->
<g id="edge54" class="edge"><title>RUNX1_RUNX2&#45;&gt;PATZ1_KLF4</title>
<a xlink:title="KLF4: 0.013||RUNX1: 0.246||RUNX2: 0.150||remove20">
<path fill="none" stroke="#eecaff" stroke-width="3" d="M396.501,-342.792C396.501,-286.569 396.501,-154.923 396.501,-98.6098"/>
<path fill="none" stroke="#e5b0ff" stroke-width="3" d="M398.501,-342.792C398.501,-286.569 398.501,-154.923 398.501,-98.6098"/>
<polygon fill="#e5b0ff" stroke="#e5b0ff" points="394.701,-342.887 397.501,-350.887 400.301,-342.887 394.701,-342.887"/>
<polygon fill="#eecaff" stroke="#eecaff" points="400.301,-98.5532 397.501,-90.5533 394.701,-98.5533 400.301,-98.5532"/>
</a>
</g>
<!-- GLIS2&#45;&gt;NR0B1 -->
<g id="edge44" class="edge"><title>GLIS2&#45;&gt;NR0B1</title>
<a xlink:title="NR0B1: 0.244||remove27root">
<path fill="none" stroke="#b0b8ff" stroke-width="3" d="M118.991,-90.4907C145.572,-117.072 195.087,-166.587 224.789,-196.289"/>
<polygon fill="#b0b8ff" stroke="#b0b8ff" points="223.174,-198.634 230.811,-202.311 227.134,-194.674 223.174,-198.634"/>
</a>
</g>
<!-- NR2F2&#45;&gt;ESRRA_ESR2 -->
<g id="edge80" class="edge"><title>NR2F2&#45;&gt;ESRRA_ESR2</title>
<a xlink:title="ESRRA: 0.380||remove24">
<path fill="none" stroke="#e0a1ff" stroke-width="3" d="M194.85,-36.2023C194.85,-101.017 194.85,-320.752 194.85,-396.991"/>
<polygon fill="#e0a1ff" stroke="#e0a1ff" points="192.05,-397.149 194.85,-405.149 197.65,-397.149 192.05,-397.149"/>
</a>
</g>
<!-- NR2F2&#45;&gt;NR0B1 -->
<g id="edge78" class="edge"><title>NR2F2&#45;&gt;NR0B1</title>
<a xlink:title="NR0B1: 0.196||remove26root">
<path fill="none" stroke="#b5bdff" stroke-width="3" d="M199.765,-36.3413C209.457,-72.5122 231.059,-153.132 242.203,-194.723"/>
<polygon fill="#b5bdff" stroke="#b5bdff" points="239.511,-195.494 244.286,-202.497 244.92,-194.044 239.511,-195.494"/>
</a>
</g>
<!-- POU3F3_POU3F4&#45;&gt;ESRRB_ESRRG -->
<g id="edge86" class="edge"><title>POU3F3_POU3F4&#45;&gt;ESRRB_ESRRG</title>
<a xlink:title="ESRRG: 0.059||remove9root">
<path fill="none" stroke="#ecc5ff" stroke-width="3" d="M272.2,-405.258C225.065,-378.045 135.883,-326.556 84.8707,-297.104"/>
<polygon fill="#ecc5ff" stroke="#ecc5ff" points="86.2626,-294.674 77.9343,-293.099 83.4625,-299.524 86.2626,-294.674"/>
</a>
</g>
<!-- SP3&#45;&gt;ESRRA_ESR2 -->
<g id="edge96" class="edge"><title>SP3&#45;&gt;ESRRA_ESR2</title>
<a xlink:title="ESRRA: 1.361||ESR2: 0.109||remove21">
<path fill="none" stroke="#bd32ff" stroke-width="3" d="M292.257,-36.2885C273.343,-68.1756 235.406,-136.59 217.83,-199.77 198.512,-269.216 195.109,-354.861 194.711,-397.144"/>
<polygon fill="#bd32ff" stroke="#bd32ff" points="191.91,-397.231 194.667,-405.246 197.51,-397.262 191.91,-397.231"/>
</a>
</g>
<!-- SP3&#45;&gt;MXI1_MYC_MYCN -->
<g id="edge88" class="edge"><title>SP3&#45;&gt;MXI1_MYC_MYCN</title>
<a xlink:title="MYCN: 0.237||MXI1: 0.146||remove21">
<path fill="none" stroke="#e6b1ff" stroke-width="3" d="M292.84,-36.3771C259.121,-94.7807 154.351,-276.247 115.496,-343.547"/>
<polygon fill="#e6b1ff" stroke="#e6b1ff" points="112.88,-342.477 111.305,-350.806 117.73,-345.277 112.88,-342.477"/>
</a>
</g>
<!-- SP3&#45;&gt;ESRRB_ESRRG -->
<g id="edge90" class="edge"><title>SP3&#45;&gt;ESRRB_ESRRG</title>
<a xlink:title="ESRRG: 0.098||remove13root">
<path fill="none" stroke="#ebc0ff" stroke-width="3" d="M285.382,-36.0683C240.047,-81.4036 121.466,-199.984 70.4281,-251.022"/>
<polygon fill="#ebc0ff" stroke="#ebc0ff" points="68.2253,-249.265 64.5483,-256.902 72.1851,-253.225 68.2253,-249.265"/>
</a>
</g>
<!-- SP3&#45;&gt;POU3F2 -->
<g id="edge92" class="edge"><title>SP3&#45;&gt;POU3F2</title>
<a xlink:title="POU3F2: 0.020||remove1root">
<path fill="none" stroke="#edc9ff" stroke-width="3" d="M313.882,-36.0683C339.844,-81.0351 407.409,-198.061 437.259,-249.764"/>
<polygon fill="#edc9ff" stroke="#edc9ff" points="434.956,-251.374 441.381,-256.902 439.805,-248.574 434.956,-251.374"/>
</a>
</g>
<!-- SP3&#45;&gt;NR0B1 -->
<g id="edge94" class="edge"><title>SP3&#45;&gt;NR0B1</title>
<a xlink:title="NR0B1: 0.126||remove21root">
<path fill="none" stroke="#bdc4ff" stroke-width="3" d="M298.536,-36.3413C288.844,-72.5122 267.242,-153.132 256.097,-194.723"/>
<polygon fill="#bdc4ff" stroke="#bdc4ff" points="253.381,-194.044 254.015,-202.497 258.79,-195.494 253.381,-194.044"/>
</a>
</g>
<!-- SP3&#45;&gt;RUNX1_RUNX2 -->
<g id="edge100" class="edge"><title>SP3&#45;&gt;RUNX1_RUNX2</title>
<a xlink:title="RUNX1: 0.300||RUNX2: 0.224||remove20">
<path fill="none" stroke="#e3aaff" stroke-width="3" d="M308.375,-36.3771C323.96,-94.5437 372.254,-274.777 390.459,-342.722"/>
<polygon fill="#e3aaff" stroke="#e3aaff" points="387.85,-343.803 392.625,-350.806 393.259,-342.353 387.85,-343.803"/>
</a>
</g>
<!-- SP3&#45;&gt;PATZ1_KLF4 -->
<g id="edge102" class="edge"><title>SP3&#45;&gt;PATZ1_KLF4</title>
<a xlink:title="PATZ1: 0.077||KLF4: 0.020||remove12root">
<path fill="none" stroke="#ebc3ff" stroke-width="3" d="M330.654,-33.7058C339.473,-38.7976 349.431,-44.5467 358.915,-50.0224"/>
<polygon fill="#ebc3ff" stroke="#ebc3ff" points="357.72,-52.5659 366.048,-54.141 360.52,-47.7161 357.72,-52.5659"/>
</a>
</g>
<!-- TFAP4_MSC -->
<g id="node49" class="node"><title>TFAP4_MSC</title>
<a xlink:href="TFAP4_MSC.svg" xlink:title="Z&#45;value: 0.552||remove19">
<polygon fill="#b5bdff" stroke="#b5bdff" stroke-width="2" points="477.051,-184.35 426.551,-184.35 414.551,-172.35 414.551,-160.35 426.551,-148.35 477.051,-148.35 489.051,-160.35 489.051,-172.35 477.051,-184.35"/>
<path fill="#b5bdff" stroke="#b5bdff" stroke-width="2" d="M426.551,-184.35C420.551,-184.35 414.551,-178.35 414.551,-172.35"/>
<path fill="#b5bdff" stroke="#b5bdff" stroke-width="2" d="M414.551,-160.35C414.551,-154.35 420.551,-148.35 426.551,-148.35"/>
<path fill="#b5bdff" stroke="#b5bdff" stroke-width="2" d="M477.051,-148.35C483.051,-148.35 489.051,-154.35 489.051,-160.35"/>
<path fill="#b5bdff" stroke="#b5bdff" stroke-width="2" d="M489.051,-172.35C489.051,-178.35 483.051,-184.35 477.051,-184.35"/>
<polyline fill="none" stroke="white" stroke-width="2" points="477.051,-184.35 426.551,-184.35 "/>
<path fill="none" stroke="white" stroke-width="2" d="M426.551,-184.35C420.551,-184.35 414.551,-178.35 414.551,-172.35"/>
<polyline fill="none" stroke="white" stroke-width="2" points="414.551,-172.35 414.551,-160.35 "/>
<path fill="none" stroke="white" stroke-width="2" d="M414.551,-160.35C414.551,-154.35 420.551,-148.35 426.551,-148.35"/>
<polyline fill="none" stroke="white" stroke-width="2" points="426.551,-148.35 477.051,-148.35 "/>
<path fill="none" stroke="white" stroke-width="2" d="M477.051,-148.35C483.051,-148.35 489.051,-154.35 489.051,-160.35"/>
<polyline fill="none" stroke="white" stroke-width="2" points="489.051,-160.35 489.051,-172.35 "/>
<path fill="none" stroke="white" stroke-width="2" d="M489.051,-172.35C489.051,-178.35 483.051,-184.35 477.051,-184.35"/>
<text text-anchor="middle" x="451.801" y="-163.85" font-family="Helvetica,sans-Serif" font-size="10.00">TFAP4_MSC</text>
</a>
</g>
<!-- SP3&#45;&gt;TFAP4_MSC -->
<g id="edge98" class="edge"><title>SP3&#45;&gt;TFAP4_MSC</title>
<a xlink:title="MSC: 0.128||TFAP4: 0.031||remove19">
<path fill="none" stroke="#eabdff" stroke-width="3" d="M313.195,-36.2683C322.293,-52.3266 336.919,-75.7824 353.421,-93.18 371.766,-112.521 395.706,-130.45 415.376,-143.719"/>
<polygon fill="#eabdff" stroke="#eabdff" points="413.927,-146.118 422.14,-148.213 417.026,-141.454 413.927,-146.118"/>
</a>
</g>
<!-- PATZ1_KLF4&#45;&gt;ESRRA_ESR2 -->
<g id="edge72" class="edge"><title>PATZ1_KLF4&#45;&gt;ESRRA_ESR2</title>
<a xlink:title="ESRRA: 1.315||ESR2: 0.103||remove22">
<path fill="none" stroke="#bf38ff" stroke-width="3" d="M386.891,-90.6771C353.171,-149.081 248.402,-330.547 209.546,-397.847"/>
<polygon fill="#bf38ff" stroke="#bf38ff" points="206.931,-396.777 205.355,-405.106 211.78,-399.577 206.931,-396.777"/>
</a>
</g>
<!-- PATZ1_KLF4&#45;&gt;ESRRB_ESRRG -->
<g id="edge62" class="edge"><title>PATZ1_KLF4&#45;&gt;ESRRB_ESRRG</title>
<a xlink:title="ESRRG: 0.040||remove5root">
<path fill="none" stroke="#edc7ff" stroke-width="3" d="M366.043,-90.4622C301.67,-127.628 155.097,-212.252 85.1001,-252.665"/>
<polygon fill="#edc7ff" stroke="#edc7ff" points="83.2895,-250.477 77.7613,-256.902 86.0896,-255.326 83.2895,-250.477"/>
</a>
</g>
<!-- PATZ1_KLF4&#45;&gt;POU3F2 -->
<g id="edge64" class="edge"><title>PATZ1_KLF4&#45;&gt;POU3F2</title>
<a xlink:title="POU3F2: 0.341||remove18">
<path fill="none" stroke="#e2a5ff" stroke-width="3" d="M397.181,-90.5923C397.239,-113.59 398.873,-154.074 408.301,-187.23 414.59,-209.35 426.38,-232.588 436.1,-249.585"/>
<polygon fill="#e2a5ff" stroke="#e2a5ff" points="433.939,-251.435 440.394,-256.929 438.773,-248.609 433.939,-251.435"/>
</a>
</g>
<!-- PATZ1_KLF4&#45;&gt;NR0B1 -->
<g id="edge70" class="edge"><title>PATZ1_KLF4&#45;&gt;NR0B1</title>
<a xlink:title="NR0B1: 0.131||remove22root">
<path fill="none" stroke="#bdc3ff" stroke-width="3" d="M379.31,-90.4907C352.728,-117.072 303.214,-166.587 273.512,-196.289"/>
<polygon fill="#bdc3ff" stroke="#bdc3ff" points="271.167,-194.674 267.49,-202.311 275.127,-198.634 271.167,-194.674"/>
</a>
</g>
<!-- PATZ1_KLF4&#45;&gt;NR2F2 -->
<g id="edge66" class="edge"><title>PATZ1_KLF4&#45;&gt;NR2F2</title>
<a xlink:title="NR2F2: 0.142||remove22">
<path fill="none" stroke="#e9bcff" stroke-width="3" d="M359.36,-62.1686C334.513,-55.5595 301.392,-46.7332 272.13,-38.88 258.347,-35.1808 243.187,-31.0897 229.972,-27.5163"/>
<polygon fill="#e9bcff" stroke="#e9bcff" points="230.479,-24.7528 222.025,-25.3664 229.017,-30.1585 230.479,-24.7528"/>
</a>
</g>
<!-- PATZ1_KLF4&#45;&gt;POU3F3_POU3F4 -->
<g id="edge68" class="edge"><title>PATZ1_KLF4&#45;&gt;POU3F3_POU3F4</title>
<a xlink:title="POU3F3: 0.287||remove22">
<path fill="none" stroke="#e4abff" stroke-width="3" d="M392.577,-90.6771C376.991,-148.844 328.698,-329.077 310.492,-397.022"/>
<polygon fill="#e4abff" stroke="#e4abff" points="307.692,-396.653 308.326,-405.106 313.101,-398.103 307.692,-396.653"/>
</a>
</g>
<!-- PATZ1_KLF4&#45;&gt;PATZ1_KLF4 -->
<g id="edge76" class="edge"><title>PATZ1_KLF4&#45;&gt;PATZ1_KLF4</title>
<a xlink:title="PATZ1: 0.441||KLF4: 0.051||remove22">
<path fill="none" stroke="#de9aff" stroke-width="3" d="M435.715,-78.9907C445.835,-78.6084 453.501,-76.3781 453.501,-72.3 453.501,-69.4326 449.711,-67.4787 443.943,-66.4384"/>
<polygon fill="#de9aff" stroke="#de9aff" points="443.955,-63.6256 435.715,-65.6093 443.394,-69.1974 443.955,-63.6256"/>
</a>
</g>
<!-- PATZ1_KLF4&#45;&gt;TFAP4_MSC -->
<g id="edge74" class="edge"><title>PATZ1_KLF4&#45;&gt;TFAP4_MSC</title>
<a xlink:title="TFAP4: 0.225||remove19">
<path fill="none" stroke="#e6b2ff" stroke-width="3" d="M407.97,-90.4339C416.309,-104.876 428.074,-125.254 437.316,-141.262"/>
<polygon fill="#e6b2ff" stroke="#e6b2ff" points="434.938,-142.744 441.363,-148.272 439.788,-139.944 434.938,-142.744"/>
</a>
</g>
<!-- TFAP4_MSC&#45;&gt;ESRRB_ESRRG -->
<g id="edge82" class="edge"><title>TFAP4_MSC&#45;&gt;ESRRB_ESRRG</title>
<a xlink:title="ESRRB: 0.067||ESRRG: 0.033||remove11root">
<path fill="none" stroke="#ecc4ff" stroke-width="3" d="M418.04,-184.453C384.202,-201.8 330.139,-227.372 280.47,-241.53 220.414,-258.65 149.07,-267.226 101.087,-271.366"/>
<polygon fill="#ecc4ff" stroke="#ecc4ff" points="100.74,-268.585 93.0005,-272.041 101.206,-274.166 100.74,-268.585"/>
</a>
</g>
<!-- TFAP4_MSC&#45;&gt;NR0B1 -->
<g id="edge84" class="edge"><title>TFAP4_MSC&#45;&gt;NR0B1</title>
<a xlink:title="NR0B1: 0.124||remove19root">
<path fill="none" stroke="#bec4ff" stroke-width="3" d="M414.159,-176.437C376.914,-186.416 320.363,-201.569 284.088,-211.289"/>
<polygon fill="#bec4ff" stroke="#bec4ff" points="283.226,-208.621 276.223,-213.396 284.675,-214.03 283.226,-208.621"/>
</a>
</g>
</g>
</svg>
