<?xml version="1.0" encoding="UTF-8" standalone="no"?>
<!DOCTYPE svg PUBLIC "-//W3C//DTD SVG 1.1//EN"
 "http://www.w3.org/Graphics/SVG/1.1/DTD/svg11.dtd">
<!-- Generated by graphviz version 2.28.0 (20110630.0925)
 -->
<!-- Title: _anonymous_0 Pages: 1 -->
<svg width="466pt" height="447pt"
 viewBox="0.00 0.00 466.06 447.06" xmlns="http://www.w3.org/2000/svg" xmlns:xlink="http://www.w3.org/1999/xlink">
<g id="graph1" class="graph" transform="scale(1 1) rotate(0) translate(4 443.062)">
<title>_anonymous_0</title>
<polygon fill="white" stroke="white" points="-4,5 -4,-443.062 463.062,-443.062 463.062,5 -4,5"/>
<!-- ESR1 -->
<g id="node1" class="node"><title>ESR1</title>
<a xlink:href="ESR1.svg" xlink:title="Z&#45;value: 6.597||remove27">
<polygon fill="#3247ff" stroke="#3247ff" stroke-width="2" points="446.062,-291.531 416.062,-291.531 404.062,-279.531 404.062,-267.531 416.062,-255.531 446.062,-255.531 458.062,-267.531 458.062,-279.531 446.062,-291.531"/>
<path fill="#3247ff" stroke="#3247ff" stroke-width="2" d="M416.062,-291.531C410.062,-291.531 404.062,-285.531 404.062,-279.531"/>
<path fill="#3247ff" stroke="#3247ff" stroke-width="2" d="M404.062,-267.531C404.062,-261.531 410.062,-255.531 416.062,-255.531"/>
<path fill="#3247ff" stroke="#3247ff" stroke-width="2" d="M446.062,-255.531C452.062,-255.531 458.062,-261.531 458.062,-267.531"/>
<path fill="#3247ff" stroke="#3247ff" stroke-width="2" d="M458.062,-279.531C458.062,-285.531 452.062,-291.531 446.062,-291.531"/>
<polyline fill="none" stroke="white" stroke-width="2" points="446.062,-291.531 416.062,-291.531 "/>
<path fill="none" stroke="white" stroke-width="2" d="M416.062,-291.531C410.062,-291.531 404.062,-285.531 404.062,-279.531"/>
<polyline fill="none" stroke="white" stroke-width="2" points="404.062,-279.531 404.062,-267.531 "/>
<path fill="none" stroke="white" stroke-width="2" d="M404.062,-267.531C404.062,-261.531 410.062,-255.531 416.062,-255.531"/>
<polyline fill="none" stroke="white" stroke-width="2" points="416.062,-255.531 446.062,-255.531 "/>
<path fill="none" stroke="white" stroke-width="2" d="M446.062,-255.531C452.062,-255.531 458.062,-261.531 458.062,-267.531"/>
<polyline fill="none" stroke="white" stroke-width="2" points="458.062,-267.531 458.062,-279.531 "/>
<path fill="none" stroke="white" stroke-width="2" d="M458.062,-279.531C458.062,-285.531 452.062,-291.531 446.062,-291.531"/>
<text text-anchor="middle" x="431.062" y="-271.031" font-family="Helvetica,sans-Serif" font-size="10.00" fill="white">ESR1</text>
</a>
</g>
<!-- ESRRA_ESR2 -->
<g id="node2" class="node"><title>ESRRA_ESR2</title>
<a xlink:href="ESRRA_ESR2.svg" xlink:title="Z&#45;value: 3.814||remove26">
<polygon fill="#7381ff" stroke="#7381ff" stroke-width="2" points="111.25,-90 52.75,-90 40.75,-78 40.75,-66 52.75,-54 111.25,-54 123.25,-66 123.25,-78 111.25,-90"/>
<path fill="#7381ff" stroke="#7381ff" stroke-width="2" d="M52.75,-90C46.75,-90 40.75,-84 40.75,-78"/>
<path fill="#7381ff" stroke="#7381ff" stroke-width="2" d="M40.75,-66C40.75,-60 46.75,-54 52.75,-54"/>
<path fill="#7381ff" stroke="#7381ff" stroke-width="2" d="M111.25,-54C117.25,-54 123.25,-60 123.25,-66"/>
<path fill="#7381ff" stroke="#7381ff" stroke-width="2" d="M123.25,-78C123.25,-84 117.25,-90 111.25,-90"/>
<polyline fill="none" stroke="white" stroke-width="2" points="111.25,-90 52.75,-90 "/>
<path fill="none" stroke="white" stroke-width="2" d="M52.75,-90C46.75,-90 40.75,-84 40.75,-78"/>
<polyline fill="none" stroke="white" stroke-width="2" points="40.75,-78 40.75,-66 "/>
<path fill="none" stroke="white" stroke-width="2" d="M40.75,-66C40.75,-60 46.75,-54 52.75,-54"/>
<polyline fill="none" stroke="white" stroke-width="2" points="52.75,-54 111.25,-54 "/>
<path fill="none" stroke="white" stroke-width="2" d="M111.25,-54C117.25,-54 123.25,-60 123.25,-66"/>
<polyline fill="none" stroke="white" stroke-width="2" points="123.25,-66 123.25,-78 "/>
<path fill="none" stroke="white" stroke-width="2" d="M123.25,-78C123.25,-84 117.25,-90 111.25,-90"/>
<text text-anchor="middle" x="82" y="-69.5" font-family="Helvetica,sans-Serif" font-size="10.00">ESRRA_ESR2</text>
</a>
</g>
<!-- ESRRA_ESR2&#45;&gt;ESR1 -->
<g id="edge12" class="edge"><title>ESRRA_ESR2&#45;&gt;ESR1</title>
<a xlink:title="ESR1: 2.139||remove26">
<path fill="none" stroke="#bd32ff" stroke-width="3" d="M113.284,-90.0619C178.512,-127.721 328.608,-214.379 396.542,-253.601"/>
<polygon fill="#bd32ff" stroke="#bd32ff" points="395.304,-256.119 403.633,-257.695 398.104,-251.27 395.304,-256.119"/>
</a>
</g>
<!-- ID4_TCF4_SNAI2 -->
<g id="node3" class="node"><title>ID4_TCF4_SNAI2</title>
<a xlink:href="ID4_TCF4_SNAI2.svg" xlink:title="Z&#45;value: 1.966||remove29">
<polygon fill="#9ea8ff" stroke="#9ea8ff" stroke-width="2" points="211.781,-36 139.281,-36 127.281,-24 127.281,-12 139.281,-6.39488e-14 211.781,-6.39488e-14 223.781,-12 223.781,-24 211.781,-36"/>
<path fill="#9ea8ff" stroke="#9ea8ff" stroke-width="2" d="M139.281,-36C133.281,-36 127.281,-30 127.281,-24"/>
<path fill="#9ea8ff" stroke="#9ea8ff" stroke-width="2" d="M127.281,-12C127.281,-6 133.281,-6.39488e-14 139.281,-6.39488e-14"/>
<path fill="#9ea8ff" stroke="#9ea8ff" stroke-width="2" d="M211.781,-6.39488e-14C217.781,-6.39488e-14 223.781,-6 223.781,-12"/>
<path fill="#9ea8ff" stroke="#9ea8ff" stroke-width="2" d="M223.781,-24C223.781,-30 217.781,-36 211.781,-36"/>
<polyline fill="none" stroke="white" stroke-width="2" points="211.781,-36 139.281,-36 "/>
<path fill="none" stroke="white" stroke-width="2" d="M139.281,-36C133.281,-36 127.281,-30 127.281,-24"/>
<polyline fill="none" stroke="white" stroke-width="2" points="127.281,-24 127.281,-12 "/>
<path fill="none" stroke="white" stroke-width="2" d="M127.281,-12C127.281,-6 133.281,-6.39488e-14 139.281,-6.39488e-14"/>
<polyline fill="none" stroke="white" stroke-width="2" points="139.281,-6.39488e-14 211.781,-6.39488e-14 "/>
<path fill="none" stroke="white" stroke-width="2" d="M211.781,-6.39488e-14C217.781,-6.39488e-14 223.781,-6 223.781,-12"/>
<polyline fill="none" stroke="white" stroke-width="2" points="223.781,-12 223.781,-24 "/>
<path fill="none" stroke="white" stroke-width="2" d="M223.781,-24C223.781,-30 217.781,-36 211.781,-36"/>
<text text-anchor="middle" x="175.531" y="-15.5" font-family="Helvetica,sans-Serif" font-size="10.00">ID4_TCF4_SNAI2</text>
</a>
</g>
<!-- ESRRA_ESR2&#45;&gt;ID4_TCF4_SNAI2 -->
<g id="edge2" class="edge"><title>ESRRA_ESR2&#45;&gt;ID4_TCF4_SNAI2</title>
<a xlink:title="SNAI2: 0.628||TCF4: 0.188||ESRRA: 0.115||remove26">
<path fill="none" stroke="#e09fff" stroke-width="3" d="M119.988,-48.9129C125.378,-45.8011 130.919,-42.6017 136.314,-39.4874"/>
<path fill="none" stroke="#ecc3ff" stroke-width="3" d="M120.988,-50.645C126.378,-47.5331 131.919,-44.3337 137.314,-41.2194"/>
<polygon fill="#ecc3ff" stroke="#ecc3ff" points="118.933,-47.4436 113.405,-53.8686 121.733,-52.2934 118.933,-47.4436"/>
<polygon fill="#e09fff" stroke="#e09fff" points="138.522,-42.6004 144.05,-36.1755 135.722,-37.7507 138.522,-42.6004"/>
</a>
</g>
<!-- RARA -->
<g id="node5" class="node"><title>RARA</title>
<a xlink:href="RARA.svg" xlink:title="Z&#45;value: 0.623||remove24">
<polygon fill="#bdc4ff" stroke="#bdc4ff" stroke-width="2" points="392.062,-385.062 362.062,-385.062 350.062,-373.062 350.062,-361.062 362.062,-349.062 392.062,-349.062 404.062,-361.062 404.062,-373.062 392.062,-385.062"/>
<path fill="#bdc4ff" stroke="#bdc4ff" stroke-width="2" d="M362.062,-385.062C356.062,-385.062 350.062,-379.062 350.062,-373.062"/>
<path fill="#bdc4ff" stroke="#bdc4ff" stroke-width="2" d="M350.062,-361.062C350.062,-355.062 356.062,-349.062 362.062,-349.062"/>
<path fill="#bdc4ff" stroke="#bdc4ff" stroke-width="2" d="M392.062,-349.062C398.062,-349.062 404.062,-355.062 404.062,-361.062"/>
<path fill="#bdc4ff" stroke="#bdc4ff" stroke-width="2" d="M404.062,-373.062C404.062,-379.062 398.062,-385.062 392.062,-385.062"/>
<polyline fill="none" stroke="white" stroke-width="2" points="392.062,-385.062 362.062,-385.062 "/>
<path fill="none" stroke="white" stroke-width="2" d="M362.062,-385.062C356.062,-385.062 350.062,-379.062 350.062,-373.062"/>
<polyline fill="none" stroke="white" stroke-width="2" points="350.062,-373.062 350.062,-361.062 "/>
<path fill="none" stroke="white" stroke-width="2" d="M350.062,-361.062C350.062,-355.062 356.062,-349.062 362.062,-349.062"/>
<polyline fill="none" stroke="white" stroke-width="2" points="362.062,-349.062 392.062,-349.062 "/>
<path fill="none" stroke="white" stroke-width="2" d="M392.062,-349.062C398.062,-349.062 404.062,-355.062 404.062,-361.062"/>
<polyline fill="none" stroke="white" stroke-width="2" points="404.062,-361.062 404.062,-373.062 "/>
<path fill="none" stroke="white" stroke-width="2" d="M404.062,-373.062C404.062,-379.062 398.062,-385.062 392.062,-385.062"/>
<text text-anchor="middle" x="377.062" y="-364.562" font-family="Helvetica,sans-Serif" font-size="10.00">RARA</text>
</a>
</g>
<!-- ESRRA_ESR2&#45;&gt;RARA -->
<g id="edge4" class="edge"><title>ESRRA_ESR2&#45;&gt;RARA</title>
<a xlink:title="RARA: 0.341||remove24">
<path fill="none" stroke="#e6b3ff" stroke-width="3" d="M91.7312,-90.2354C109.738,-122.885 150.776,-192.396 198.211,-240.411 242.582,-285.324 304.576,-325.225 342.704,-347.742"/>
<polygon fill="#e6b3ff" stroke="#e6b3ff" points="341.68,-350.386 349.999,-352.009 344.508,-345.553 341.68,-350.386"/>
</a>
</g>
<!-- ELF3_EHF -->
<g id="node7" class="node"><title>ELF3_EHF</title>
<a xlink:href="ELF3_EHF.svg" xlink:title="Z&#45;value: 1.010||remove20">
<polygon fill="#b4bcff" stroke="#b4bcff" stroke-width="2" points="303.781,-439.062 263.281,-439.062 251.281,-427.062 251.281,-415.062 263.281,-403.062 303.781,-403.062 315.781,-415.062 315.781,-427.062 303.781,-439.062"/>
<path fill="#b4bcff" stroke="#b4bcff" stroke-width="2" d="M263.281,-439.062C257.281,-439.062 251.281,-433.062 251.281,-427.062"/>
<path fill="#b4bcff" stroke="#b4bcff" stroke-width="2" d="M251.281,-415.062C251.281,-409.062 257.281,-403.062 263.281,-403.062"/>
<path fill="#b4bcff" stroke="#b4bcff" stroke-width="2" d="M303.781,-403.062C309.781,-403.062 315.781,-409.062 315.781,-415.062"/>
<path fill="#b4bcff" stroke="#b4bcff" stroke-width="2" d="M315.781,-427.062C315.781,-433.062 309.781,-439.062 303.781,-439.062"/>
<polyline fill="none" stroke="white" stroke-width="2" points="303.781,-439.062 263.281,-439.062 "/>
<path fill="none" stroke="white" stroke-width="2" d="M263.281,-439.062C257.281,-439.062 251.281,-433.062 251.281,-427.062"/>
<polyline fill="none" stroke="white" stroke-width="2" points="251.281,-427.062 251.281,-415.062 "/>
<path fill="none" stroke="white" stroke-width="2" d="M251.281,-415.062C251.281,-409.062 257.281,-403.062 263.281,-403.062"/>
<polyline fill="none" stroke="white" stroke-width="2" points="263.281,-403.062 303.781,-403.062 "/>
<path fill="none" stroke="white" stroke-width="2" d="M303.781,-403.062C309.781,-403.062 315.781,-409.062 315.781,-415.062"/>
<polyline fill="none" stroke="white" stroke-width="2" points="315.781,-415.062 315.781,-427.062 "/>
<path fill="none" stroke="white" stroke-width="2" d="M315.781,-427.062C315.781,-433.062 309.781,-439.062 303.781,-439.062"/>
<text text-anchor="middle" x="283.531" y="-418.562" font-family="Helvetica,sans-Serif" font-size="10.00">ELF3_EHF</text>
</a>
</g>
<!-- ESRRA_ESR2&#45;&gt;ELF3_EHF -->
<g id="edge6" class="edge"><title>ESRRA_ESR2&#45;&gt;ELF3_EHF</title>
<a xlink:title="EHF: 0.812||ELF3: 0.469||remove20">
<path fill="none" stroke="#dc91ff" stroke-width="3" d="M92.5514,-90.2756C126.084,-148.356 230.275,-328.821 268.916,-395.748"/>
<polygon fill="#dc91ff" stroke="#dc91ff" points="266.659,-397.439 273.084,-402.967 271.509,-394.639 266.659,-397.439"/>
</a>
</g>
<!-- NFIA -->
<g id="node9" class="node"><title>NFIA</title>
<a xlink:href="NFIA.svg" xlink:title="Z&#45;value: 0.607||remove23">
<polygon fill="#bdc4ff" stroke="#bdc4ff" stroke-width="2" points="190.531,-439.062 160.531,-439.062 148.531,-427.062 148.531,-415.062 160.531,-403.062 190.531,-403.062 202.531,-415.062 202.531,-427.062 190.531,-439.062"/>
<path fill="#bdc4ff" stroke="#bdc4ff" stroke-width="2" d="M160.531,-439.062C154.531,-439.062 148.531,-433.062 148.531,-427.062"/>
<path fill="#bdc4ff" stroke="#bdc4ff" stroke-width="2" d="M148.531,-415.062C148.531,-409.062 154.531,-403.062 160.531,-403.062"/>
<path fill="#bdc4ff" stroke="#bdc4ff" stroke-width="2" d="M190.531,-403.062C196.531,-403.062 202.531,-409.062 202.531,-415.062"/>
<path fill="#bdc4ff" stroke="#bdc4ff" stroke-width="2" d="M202.531,-427.062C202.531,-433.062 196.531,-439.062 190.531,-439.062"/>
<polyline fill="none" stroke="white" stroke-width="2" points="190.531,-439.062 160.531,-439.062 "/>
<path fill="none" stroke="white" stroke-width="2" d="M160.531,-439.062C154.531,-439.062 148.531,-433.062 148.531,-427.062"/>
<polyline fill="none" stroke="white" stroke-width="2" points="148.531,-427.062 148.531,-415.062 "/>
<path fill="none" stroke="white" stroke-width="2" d="M148.531,-415.062C148.531,-409.062 154.531,-403.062 160.531,-403.062"/>
<polyline fill="none" stroke="white" stroke-width="2" points="160.531,-403.062 190.531,-403.062 "/>
<path fill="none" stroke="white" stroke-width="2" d="M190.531,-403.062C196.531,-403.062 202.531,-409.062 202.531,-415.062"/>
<polyline fill="none" stroke="white" stroke-width="2" points="202.531,-415.062 202.531,-427.062 "/>
<path fill="none" stroke="white" stroke-width="2" d="M202.531,-427.062C202.531,-433.062 196.531,-439.062 190.531,-439.062"/>
<text text-anchor="middle" x="175.531" y="-418.562" font-family="Helvetica,sans-Serif" font-size="10.00">NFIA</text>
</a>
</g>
<!-- ESRRA_ESR2&#45;&gt;NFIA -->
<g id="edge8" class="edge"><title>ESRRA_ESR2&#45;&gt;NFIA</title>
<a xlink:title="NFIA: 0.613||remove23">
<path fill="none" stroke="#e0a0ff" stroke-width="3" d="M86.8969,-90.2756C102.397,-148.121 150.423,-327.358 168.528,-394.928"/>
<polygon fill="#e0a0ff" stroke="#e0a0ff" points="165.907,-395.964 170.682,-402.967 171.316,-394.515 165.907,-395.964"/>
</a>
</g>
<!-- NR1I2 -->
<g id="node11" class="node"><title>NR1I2</title>
<a xlink:href="NR1I2.svg" xlink:title="Z&#45;value: 0.712||remove30">
<polygon fill="#ffbbbb" stroke="#ffbbbb" stroke-width="2" points="244.531,-237.531 214.531,-237.531 202.531,-225.531 202.531,-213.531 214.531,-201.531 244.531,-201.531 256.531,-213.531 256.531,-225.531 244.531,-237.531"/>
<path fill="#ffbbbb" stroke="#ffbbbb" stroke-width="2" d="M214.531,-237.531C208.531,-237.531 202.531,-231.531 202.531,-225.531"/>
<path fill="#ffbbbb" stroke="#ffbbbb" stroke-width="2" d="M202.531,-213.531C202.531,-207.531 208.531,-201.531 214.531,-201.531"/>
<path fill="#ffbbbb" stroke="#ffbbbb" stroke-width="2" d="M244.531,-201.531C250.531,-201.531 256.531,-207.531 256.531,-213.531"/>
<path fill="#ffbbbb" stroke="#ffbbbb" stroke-width="2" d="M256.531,-225.531C256.531,-231.531 250.531,-237.531 244.531,-237.531"/>
<polyline fill="none" stroke="white" stroke-width="2" points="244.531,-237.531 214.531,-237.531 "/>
<path fill="none" stroke="white" stroke-width="2" d="M214.531,-237.531C208.531,-237.531 202.531,-231.531 202.531,-225.531"/>
<polyline fill="none" stroke="white" stroke-width="2" points="202.531,-225.531 202.531,-213.531 "/>
<path fill="none" stroke="white" stroke-width="2" d="M202.531,-213.531C202.531,-207.531 208.531,-201.531 214.531,-201.531"/>
<polyline fill="none" stroke="white" stroke-width="2" points="214.531,-201.531 244.531,-201.531 "/>
<path fill="none" stroke="white" stroke-width="2" d="M244.531,-201.531C250.531,-201.531 256.531,-207.531 256.531,-213.531"/>
<polyline fill="none" stroke="white" stroke-width="2" points="256.531,-213.531 256.531,-225.531 "/>
<path fill="none" stroke="white" stroke-width="2" d="M256.531,-225.531C256.531,-231.531 250.531,-237.531 244.531,-237.531"/>
<text text-anchor="middle" x="229.531" y="-217.031" font-family="Helvetica,sans-Serif" font-size="10.00">NR1I2</text>
</a>
</g>
<!-- ESRRA_ESR2&#45;&gt;NR1I2 -->
<g id="edge10" class="edge"><title>ESRRA_ESR2&#45;&gt;NR1I2</title>
<a xlink:title="NR1I2: 0.228||remove26root">
<path fill="none" stroke="#bbc2ff" stroke-width="3" d="M100.09,-90.0902C126.525,-116.525 175.766,-165.766 205.304,-195.304"/>
<polygon fill="#bbc2ff" stroke="#bbc2ff" points="203.656,-197.616 211.293,-201.293 207.616,-193.656 203.656,-197.616"/>
</a>
</g>
<!-- RCOR1_MTA3 -->
<g id="node14" class="node"><title>RCOR1_MTA3</title>
<a xlink:href="RCOR1_MTA3.svg" xlink:title="Z&#45;value: 1.731||remove25">
<polygon fill="#a3acff" stroke="#a3acff" stroke-width="2" points="312.781,-36 254.281,-36 242.281,-24 242.281,-12 254.281,-0 312.781,-0 324.781,-12 324.781,-24 312.781,-36"/>
<path fill="#a3acff" stroke="#a3acff" stroke-width="2" d="M254.281,-36C248.281,-36 242.281,-30 242.281,-24"/>
<path fill="#a3acff" stroke="#a3acff" stroke-width="2" d="M242.281,-12C242.281,-6 248.281,-0 254.281,-0"/>
<path fill="#a3acff" stroke="#a3acff" stroke-width="2" d="M312.781,-0C318.781,-0 324.781,-6 324.781,-12"/>
<path fill="#a3acff" stroke="#a3acff" stroke-width="2" d="M324.781,-24C324.781,-30 318.781,-36 312.781,-36"/>
<polyline fill="none" stroke="white" stroke-width="2" points="312.781,-36 254.281,-36 "/>
<path fill="none" stroke="white" stroke-width="2" d="M254.281,-36C248.281,-36 242.281,-30 242.281,-24"/>
<polyline fill="none" stroke="white" stroke-width="2" points="242.281,-24 242.281,-12 "/>
<path fill="none" stroke="white" stroke-width="2" d="M242.281,-12C242.281,-6 248.281,-0 254.281,-0"/>
<polyline fill="none" stroke="white" stroke-width="2" points="254.281,-0 312.781,-0 "/>
<path fill="none" stroke="white" stroke-width="2" d="M312.781,-0C318.781,-0 324.781,-6 324.781,-12"/>
<polyline fill="none" stroke="white" stroke-width="2" points="324.781,-12 324.781,-24 "/>
<path fill="none" stroke="white" stroke-width="2" d="M324.781,-24C324.781,-30 318.781,-36 312.781,-36"/>
<text text-anchor="middle" x="283.531" y="-15.5" font-family="Helvetica,sans-Serif" font-size="10.00">RCOR1_MTA3</text>
</a>
</g>
<!-- ESRRA_ESR2&#45;&gt;RCOR1_MTA3 -->
<g id="edge14" class="edge"><title>ESRRA_ESR2&#45;&gt;RCOR1_MTA3</title>
<a xlink:title="MTA3: 0.083||ESRRA: 0.308||ESR2: 0.004||remove25">
<path fill="none" stroke="#ecc6ff" stroke-width="3" d="M131.364,-62.2088C160.781,-56.4502 198.672,-48.1027 231.495,-37.9248 232.321,-37.6687 233.159,-37.4029 233.996,-37.1322"/>
<path fill="none" stroke="#e7b5ff" stroke-width="3" d="M131.748,-64.1716C161.211,-58.4034 199.103,-50.0559 232.087,-39.8352 232.926,-39.5751 233.764,-39.3093 234.612,-39.0349"/>
<polygon fill="#e7b5ff" stroke="#e7b5ff" points="130.812,-60.4819 123.488,-64.7466 131.873,-65.9806 130.812,-60.4819"/>
<polygon fill="#ecc6ff" stroke="#ecc6ff" points="235.287,-40.7064 241.952,-35.4699 233.476,-35.4073 235.287,-40.7064"/>
</a>
</g>
<!-- THRB -->
<g id="node16" class="node"><title>THRB</title>
<a xlink:href="THRB.svg" xlink:title="Z&#45;value: 0.144||remove16">
<polygon fill="#c8ceff" stroke="#c8ceff" stroke-width="2" points="97,-385.062 67,-385.062 55,-373.062 55,-361.062 67,-349.062 97,-349.062 109,-361.062 109,-373.062 97,-385.062"/>
<path fill="#c8ceff" stroke="#c8ceff" stroke-width="2" d="M67,-385.062C61,-385.062 55,-379.062 55,-373.062"/>
<path fill="#c8ceff" stroke="#c8ceff" stroke-width="2" d="M55,-361.062C55,-355.062 61,-349.062 67,-349.062"/>
<path fill="#c8ceff" stroke="#c8ceff" stroke-width="2" d="M97,-349.062C103,-349.062 109,-355.062 109,-361.062"/>
<path fill="#c8ceff" stroke="#c8ceff" stroke-width="2" d="M109,-373.062C109,-379.062 103,-385.062 97,-385.062"/>
<polyline fill="none" stroke="white" stroke-width="2" points="97,-385.062 67,-385.062 "/>
<path fill="none" stroke="white" stroke-width="2" d="M67,-385.062C61,-385.062 55,-379.062 55,-373.062"/>
<polyline fill="none" stroke="white" stroke-width="2" points="55,-373.062 55,-361.062 "/>
<path fill="none" stroke="white" stroke-width="2" d="M55,-361.062C55,-355.062 61,-349.062 67,-349.062"/>
<polyline fill="none" stroke="white" stroke-width="2" points="67,-349.062 97,-349.062 "/>
<path fill="none" stroke="white" stroke-width="2" d="M97,-349.062C103,-349.062 109,-355.062 109,-361.062"/>
<polyline fill="none" stroke="white" stroke-width="2" points="109,-361.062 109,-373.062 "/>
<path fill="none" stroke="white" stroke-width="2" d="M109,-373.062C109,-379.062 103,-385.062 97,-385.062"/>
<text text-anchor="middle" x="82" y="-364.562" font-family="Helvetica,sans-Serif" font-size="10.00">THRB</text>
</a>
</g>
<!-- ESRRA_ESR2&#45;&gt;THRB -->
<g id="edge16" class="edge"><title>ESRRA_ESR2&#45;&gt;THRB</title>
<a xlink:title="THRB: 0.111||remove14root">
<path fill="none" stroke="#ecc4ff" stroke-width="3" d="M82,-90.0133C82,-140.22 82,-281.899 82,-340.835"/>
<polygon fill="#ecc4ff" stroke="#ecc4ff" points="79.2001,-340.909 82,-348.909 84.8001,-340.909 79.2001,-340.909"/>
</a>
</g>
<!-- EBF3 -->
<g id="node18" class="node"><title>EBF3</title>
<a xlink:href="EBF3.svg" xlink:title="Z&#45;value: 0.693||remove17">
<polygon fill="#bbc2ff" stroke="#bbc2ff" stroke-width="2" points="43,-291.531 13,-291.531 1,-279.531 1,-267.531 13,-255.531 43,-255.531 55,-267.531 55,-279.531 43,-291.531"/>
<path fill="#bbc2ff" stroke="#bbc2ff" stroke-width="2" d="M13,-291.531C7,-291.531 1,-285.531 1,-279.531"/>
<path fill="#bbc2ff" stroke="#bbc2ff" stroke-width="2" d="M1,-267.531C1,-261.531 7,-255.531 13,-255.531"/>
<path fill="#bbc2ff" stroke="#bbc2ff" stroke-width="2" d="M43,-255.531C49,-255.531 55,-261.531 55,-267.531"/>
<path fill="#bbc2ff" stroke="#bbc2ff" stroke-width="2" d="M55,-279.531C55,-285.531 49,-291.531 43,-291.531"/>
<polyline fill="none" stroke="white" stroke-width="2" points="43,-291.531 13,-291.531 "/>
<path fill="none" stroke="white" stroke-width="2" d="M13,-291.531C7,-291.531 1,-285.531 1,-279.531"/>
<polyline fill="none" stroke="white" stroke-width="2" points="1,-279.531 1,-267.531 "/>
<path fill="none" stroke="white" stroke-width="2" d="M1,-267.531C1,-261.531 7,-255.531 13,-255.531"/>
<polyline fill="none" stroke="white" stroke-width="2" points="13,-255.531 43,-255.531 "/>
<path fill="none" stroke="white" stroke-width="2" d="M43,-255.531C49,-255.531 55,-261.531 55,-267.531"/>
<polyline fill="none" stroke="white" stroke-width="2" points="55,-267.531 55,-279.531 "/>
<path fill="none" stroke="white" stroke-width="2" d="M55,-279.531C55,-285.531 49,-291.531 43,-291.531"/>
<text text-anchor="middle" x="28" y="-271.031" font-family="Helvetica,sans-Serif" font-size="10.00">EBF3</text>
</a>
</g>
<!-- ESRRA_ESR2&#45;&gt;EBF3 -->
<g id="edge18" class="edge"><title>ESRRA_ESR2&#45;&gt;EBF3</title>
<a xlink:title="EBF3: 0.122||remove17">
<path fill="none" stroke="#ebc3ff" stroke-width="3" d="M79.5796,-90.0531C76.3101,-112.785 69.799,-152.92 60.48,-186.411 54.5886,-207.583 45.7769,-230.877 38.8175,-248.047"/>
<polygon fill="#ebc3ff" stroke="#ebc3ff" points="36.2159,-247.011 35.7674,-255.475 41.3962,-249.138 36.2159,-247.011"/>
</a>
</g>
<!-- ID4_TCF4_SNAI2&#45;&gt;ESR1 -->
<g id="edge52" class="edge"><title>ID4_TCF4_SNAI2&#45;&gt;ESR1</title>
<a xlink:title="ESR1: 0.631||remove27">
<path fill="none" stroke="#e09eff" stroke-width="3" d="M193.908,-36.3771C239.214,-81.6828 356.253,-198.722 407,-249.469"/>
<polygon fill="#e09eff" stroke="#e09eff" points="405.214,-251.643 412.851,-255.32 409.174,-247.683 405.214,-251.643"/>
</a>
</g>
<!-- ID4_TCF4_SNAI2&#45;&gt;ID4_TCF4_SNAI2 -->
<g id="edge44" class="edge"><title>ID4_TCF4_SNAI2&#45;&gt;ID4_TCF4_SNAI2</title>
<a xlink:title="SNAI2: 0.300||TCF4: 0.041||remove28root">
<path fill="none" stroke="#e7b6ff" stroke-width="3" d="M223.879,-24.5321C234.129,-23.8688 241.531,-21.6914 241.531,-18 241.531,-15.4045 237.871,-13.5575 232.135,-12.459"/>
<polygon fill="#e7b6ff" stroke="#e7b6ff" points="232.155,-9.64139 223.879,-11.4679 231.488,-15.2015 232.155,-9.64139"/>
</a>
</g>
<!-- ID4_TCF4_SNAI2&#45;&gt;ELF3_EHF -->
<g id="edge46" class="edge"><title>ID4_TCF4_SNAI2&#45;&gt;ELF3_EHF</title>
<a xlink:title="EHF: 0.822||ELF3: 0.083||TCF4: 0.100||SNAI2: 0.078||remove20">
<path fill="none" stroke="#db91ff" stroke-width="3" d="M191.801,-42.8728C211.648,-76.9114 245.478,-139.774 261.814,-198.383 281.029,-267.527 284.348,-352.489 284.703,-394.705"/>
<path fill="none" stroke="#ecc4ff" stroke-width="3" d="M190.073,-43.8802C209.887,-77.8592 243.717,-140.721 259.887,-198.919 279.03,-267.605 282.349,-352.568 282.703,-394.722"/>
<polygon fill="#ecc4ff" stroke="#ecc4ff" points="193.165,-41.6415 186.692,-36.1698 188.34,-44.4839 193.165,-41.6415"/>
<polygon fill="#db91ff" stroke="#db91ff" points="280.904,-394.816 283.739,-402.804 286.504,-394.792 280.904,-394.816"/>
</a>
</g>
<!-- ID4_TCF4_SNAI2&#45;&gt;NFIA -->
<g id="edge48" class="edge"><title>ID4_TCF4_SNAI2&#45;&gt;NFIA</title>
<a xlink:title="NFIA: 0.159||TCF4: 0.164||remove22root">
<path fill="none" stroke="#ebc0ff" stroke-width="3" d="M176.531,-44.2236C176.531,-117.15 176.531,-321.779 176.531,-394.778"/>
<path fill="none" stroke="#eac0ff" stroke-width="3" d="M174.531,-44.2236C174.531,-117.15 174.531,-321.779 174.531,-394.778"/>
<polygon fill="#eac0ff" stroke="#eac0ff" points="178.331,-44.1017 175.531,-36.1017 172.731,-44.1018 178.331,-44.1017"/>
<polygon fill="#ebc0ff" stroke="#ebc0ff" points="172.731,-395.01 175.531,-403.01 178.331,-395.01 172.731,-395.01"/>
</a>
</g>
<!-- ID4_TCF4_SNAI2&#45;&gt;NR1I2 -->
<g id="edge50" class="edge"><title>ID4_TCF4_SNAI2&#45;&gt;NR1I2</title>
<a xlink:title="NR1I2: 0.344||TCF4: 0.113||remove29root">
<path fill="none" stroke="#b3baff" stroke-width="3" d="M183.463,-43.7401C193.8,-82.3183 213.092,-154.319 223.466,-193.034"/>
<path fill="none" stroke="#ffc3c3" stroke-width="3" d="M181.531,-44.2578C191.868,-82.836 211.161,-154.836 221.534,-193.552"/>
<polygon fill="#ffc3c3" stroke="#ffc3c3" points="185.193,-43.2426 180.418,-36.24 179.784,-44.6921 185.193,-43.2426"/>
<polygon fill="#b3baff" stroke="#b3baff" points="219.918,-194.475 224.693,-201.477 225.327,-193.025 219.918,-194.475"/>
</a>
</g>
<!-- ID4_TCF4_SNAI2&#45;&gt;THRB -->
<g id="edge54" class="edge"><title>ID4_TCF4_SNAI2&#45;&gt;THRB</title>
<a xlink:title="THRB: 0.091||remove12root">
<path fill="none" stroke="#ecc5ff" stroke-width="3" d="M170.634,-36.2756C155.134,-94.1208 107.108,-273.358 89.0024,-340.928"/>
<polygon fill="#ecc5ff" stroke="#ecc5ff" points="86.2145,-340.515 86.8485,-348.967 91.6237,-341.964 86.2145,-340.515"/>
</a>
</g>
<!-- ID4_TCF4_SNAI2&#45;&gt;EBF3 -->
<g id="edge56" class="edge"><title>ID4_TCF4_SNAI2&#45;&gt;EBF3</title>
<a xlink:title="EBF3: 0.087||remove11root">
<path fill="none" stroke="#ecc5ff" stroke-width="3" d="M164.921,-36.3771C138.976,-81.3145 72.2867,-196.824 42.614,-248.219"/>
<polygon fill="#ecc5ff" stroke="#ecc5ff" points="40.0891,-246.992 38.5139,-255.32 44.9388,-249.792 40.0891,-246.992"/>
</a>
</g>
<!-- ELF3_EHF&#45;&gt;ELF3_EHF -->
<g id="edge58" class="edge"><title>ELF3_EHF&#45;&gt;ELF3_EHF</title>
<a xlink:title="EHF: 0.082||remove10root">
<path fill="none" stroke="#ecc6ff" stroke-width="3" d="M316.231,-427.797C325.96,-427.596 333.531,-425.351 333.531,-421.062 333.531,-418.113 329.953,-416.13 324.555,-415.114"/>
<polygon fill="#ecc6ff" stroke="#ecc6ff" points="324.459,-412.292 316.231,-414.326 323.932,-417.867 324.459,-412.292"/>
</a>
</g>
<!-- NFIA&#45;&gt;ELF3_EHF -->
<g id="edge78" class="edge"><title>NFIA&#45;&gt;ELF3_EHF</title>
<a xlink:title="EHF: 0.356||remove20">
<path fill="none" stroke="#e6b2ff" stroke-width="3" d="M202.784,-421.062C214.893,-421.062 229.403,-421.062 242.761,-421.062"/>
<polygon fill="#e6b2ff" stroke="#e6b2ff" points="242.898,-423.862 250.898,-421.062 242.898,-418.262 242.898,-423.862"/>
</a>
</g>
<!-- NR1I2&#45;&gt;ESR1 -->
<g id="edge66" class="edge"><title>NR1I2&#45;&gt;ESR1</title>
<a xlink:title="ESR1: 0.243||remove27root">
<path fill="none" stroke="#ffbaba" stroke-width="3" d="M256.71,-226.813C292.72,-236.462 356.297,-253.498 395.919,-264.114"/>
<polygon fill="#ffbaba" stroke="#ffbaba" points="395.54,-266.911 403.992,-266.277 396.989,-261.502 395.54,-266.911"/>
</a>
</g>
<!-- NR1I2&#45;&gt;RARA -->
<g id="edge60" class="edge"><title>NR1I2&#45;&gt;RARA</title>
<a xlink:title="RARA: 0.191||remove24root">
<path fill="none" stroke="#ffbebe" stroke-width="3" d="M247.621,-237.621C274.056,-264.056 323.297,-313.297 352.835,-342.835"/>
<polygon fill="#ffbebe" stroke="#ffbebe" points="351.187,-345.146 358.823,-348.823 355.146,-341.187 351.187,-345.146"/>
</a>
</g>
<!-- NR1I2&#45;&gt;ELF3_EHF -->
<g id="edge62" class="edge"><title>NR1I2&#45;&gt;ELF3_EHF</title>
<a xlink:title="ELF3: 0.131||remove20root">
<path fill="none" stroke="#ffc2c2" stroke-width="3" d="M234.418,-237.771C244.057,-273.742 265.539,-353.916 276.622,-395.278"/>
<polygon fill="#ffc2c2" stroke="#ffc2c2" points="273.918,-396.005 278.693,-403.008 279.327,-394.556 273.918,-396.005"/>
</a>
</g>
<!-- NR1I2&#45;&gt;NFIA -->
<g id="edge64" class="edge"><title>NR1I2&#45;&gt;NFIA</title>
<a xlink:title="NFIA: 0.169||remove23root">
<path fill="none" stroke="#ffbfbf" stroke-width="3" d="M224.643,-237.771C215.005,-273.742 193.522,-353.916 182.439,-395.278"/>
<polygon fill="#ffbfbf" stroke="#ffbfbf" points="179.734,-394.556 180.368,-403.008 185.143,-396.005 179.734,-394.556"/>
</a>
</g>
<!-- NR1I2&#45;&gt;THRB -->
<g id="edge68" class="edge"><title>NR1I2&#45;&gt;THRB</title>
<a xlink:title="THRB: 0.119||remove16root">
<path fill="none" stroke="#ffc3c3" stroke-width="3" d="M211.441,-237.621C185.006,-264.056 135.765,-313.297 106.227,-342.835"/>
<polygon fill="#ffc3c3" stroke="#ffc3c3" points="103.915,-341.187 100.238,-348.823 107.875,-345.146 103.915,-341.187"/>
</a>
</g>
<!-- NR1I2&#45;&gt;EBF3 -->
<g id="edge70" class="edge"><title>NR1I2&#45;&gt;EBF3</title>
<a xlink:title="EBF3: 0.121||remove17root">
<path fill="none" stroke="#ffc3c3" stroke-width="3" d="M202.351,-226.813C166.342,-236.462 102.765,-253.498 63.1426,-264.114"/>
<polygon fill="#ffc3c3" stroke="#ffc3c3" points="62.0725,-261.502 55.0698,-266.277 63.5219,-266.911 62.0725,-261.502"/>
</a>
</g>
<!-- BARHL1 -->
<g id="node33" class="node"><title>BARHL1</title>
<a xlink:href="BARHL1.svg" xlink:title="Z&#45;value: 1.014||remove19">
<polygon fill="#b4bbff" stroke="#b4bbff" stroke-width="2" points="43.5,-183.531 12.5,-183.531 0.5,-171.531 0.5,-159.531 12.5,-147.531 43.5,-147.531 55.5,-159.531 55.5,-171.531 43.5,-183.531"/>
<path fill="#b4bbff" stroke="#b4bbff" stroke-width="2" d="M12.5,-183.531C6.5,-183.531 0.5,-177.531 0.5,-171.531"/>
<path fill="#b4bbff" stroke="#b4bbff" stroke-width="2" d="M0.5,-159.531C0.5,-153.531 6.5,-147.531 12.5,-147.531"/>
<path fill="#b4bbff" stroke="#b4bbff" stroke-width="2" d="M43.5,-147.531C49.5,-147.531 55.5,-153.531 55.5,-159.531"/>
<path fill="#b4bbff" stroke="#b4bbff" stroke-width="2" d="M55.5,-171.531C55.5,-177.531 49.5,-183.531 43.5,-183.531"/>
<polyline fill="none" stroke="white" stroke-width="2" points="43.5,-183.531 12.5,-183.531 "/>
<path fill="none" stroke="white" stroke-width="2" d="M12.5,-183.531C6.5,-183.531 0.5,-177.531 0.5,-171.531"/>
<polyline fill="none" stroke="white" stroke-width="2" points="0.5,-171.531 0.5,-159.531 "/>
<path fill="none" stroke="white" stroke-width="2" d="M0.5,-159.531C0.5,-153.531 6.5,-147.531 12.5,-147.531"/>
<polyline fill="none" stroke="white" stroke-width="2" points="12.5,-147.531 43.5,-147.531 "/>
<path fill="none" stroke="white" stroke-width="2" d="M43.5,-147.531C49.5,-147.531 55.5,-153.531 55.5,-159.531"/>
<polyline fill="none" stroke="white" stroke-width="2" points="55.5,-159.531 55.5,-171.531 "/>
<path fill="none" stroke="white" stroke-width="2" d="M55.5,-171.531C55.5,-177.531 49.5,-183.531 43.5,-183.531"/>
<text text-anchor="middle" x="28" y="-163.031" font-family="Helvetica,sans-Serif" font-size="10.00">BARHL1</text>
</a>
</g>
<!-- NR1I2&#45;&gt;BARHL1 -->
<g id="edge72" class="edge"><title>NR1I2&#45;&gt;BARHL1</title>
<a xlink:title="BARHL1: 0.128||remove19root">
<path fill="none" stroke="#ffc2c2" stroke-width="3" d="M202.351,-212.248C166.643,-202.68 103.825,-185.848 64.1409,-175.215"/>
<polygon fill="#ffc2c2" stroke="#ffc2c2" points="64.494,-172.411 56.0419,-173.045 63.0445,-177.82 64.494,-172.411"/>
</a>
</g>
<!-- RCOR1_MTA3&#45;&gt;ESR1 -->
<g id="edge34" class="edge"><title>RCOR1_MTA3&#45;&gt;ESR1</title>
<a xlink:title="ESR1: 0.008||remove1root">
<path fill="none" stroke="#eecbff" stroke-width="3" d="M294.141,-36.3771C320.085,-81.3145 386.775,-196.824 416.448,-248.219"/>
<polygon fill="#eecbff" stroke="#eecbff" points="414.123,-249.792 420.548,-255.32 418.972,-246.992 414.123,-249.792"/>
</a>
</g>
<!-- RCOR1_MTA3&#45;&gt;ID4_TCF4_SNAI2 -->
<g id="edge20" class="edge"><title>RCOR1_MTA3&#45;&gt;ID4_TCF4_SNAI2</title>
<a xlink:title="ID4: 0.327||TCF4: 0.204||MTA3: 0.119||remove25">
<path fill="none" stroke="#e7b4ff" stroke-width="3" d="M233.894,-18.9999C233.271,-19 232.647,-19 232.022,-18.9999"/>
<path fill="none" stroke="#ebc3ff" stroke-width="3" d="M233.894,-17.0001C233.271,-17 232.647,-17 232.022,-17.0001"/>
<polygon fill="#ebc3ff" stroke="#ebc3ff" points="234.084,-20.8001 242.084,-18 234.084,-15.2001 234.084,-20.8001"/>
<polygon fill="#e7b4ff" stroke="#e7b4ff" points="231.904,-15.1999 223.904,-18 231.904,-20.7999 231.904,-15.1999"/>
</a>
</g>
<!-- RCOR1_MTA3&#45;&gt;RARA -->
<g id="edge24" class="edge"><title>RCOR1_MTA3&#45;&gt;RARA</title>
<a xlink:title="RARA: 0.478||remove24">
<path fill="none" stroke="#e3a9ff" stroke-width="3" d="M288.428,-36.2756C303.927,-94.1208 351.954,-273.358 370.059,-340.928"/>
<polygon fill="#e3a9ff" stroke="#e3a9ff" points="367.438,-341.964 372.213,-348.967 372.847,-340.515 367.438,-341.964"/>
</a>
</g>
<!-- RCOR1_MTA3&#45;&gt;ELF3_EHF -->
<g id="edge28" class="edge"><title>RCOR1_MTA3&#45;&gt;ELF3_EHF</title>
<a xlink:title="EHF: 0.067||remove7root">
<path fill="none" stroke="#edc7ff" stroke-width="3" d="M283.531,-36.1017C283.531,-100.558 283.531,-319.08 283.531,-394.897"/>
<polygon fill="#edc7ff" stroke="#edc7ff" points="280.731,-395.01 283.531,-403.01 286.331,-395.01 280.731,-395.01"/>
</a>
</g>
<!-- RCOR1_MTA3&#45;&gt;NFIA -->
<g id="edge30" class="edge"><title>RCOR1_MTA3&#45;&gt;NFIA</title>
<a xlink:title="NFIA: 0.096||remove13root">
<path fill="none" stroke="#ecc5ff" stroke-width="3" d="M272.37,-36.1698C253.512,-67.8513 215.694,-135.83 198.211,-198.651 179.032,-267.566 175.713,-352.529 175.358,-394.714"/>
<polygon fill="#ecc5ff" stroke="#ecc5ff" points="172.558,-394.792 175.323,-402.804 178.158,-394.816 172.558,-394.792"/>
</a>
</g>
<!-- RCOR1_MTA3&#45;&gt;NR1I2 -->
<g id="edge32" class="edge"><title>RCOR1_MTA3&#45;&gt;NR1I2</title>
<a xlink:title="NR1I2: 0.223||remove25root">
<path fill="none" stroke="#bcc2ff" stroke-width="3" d="M278.643,-36.24C269.005,-72.211 247.522,-152.385 236.439,-193.747"/>
<polygon fill="#bcc2ff" stroke="#bcc2ff" points="233.734,-193.025 234.368,-201.477 239.143,-194.475 233.734,-193.025"/>
</a>
</g>
<!-- RCOR1_MTA3&#45;&gt;RCOR1_MTA3 -->
<g id="edge36" class="edge"><title>RCOR1_MTA3&#45;&gt;RCOR1_MTA3</title>
<a xlink:title="RCOR1: 1.276||remove25">
<path fill="none" stroke="#d170ff" stroke-width="3" d="M324.885,-24.6445C335.002,-24.1523 342.531,-21.9375 342.531,-18 342.531,-15.2314 338.809,-13.3145 333.082,-12.2493"/>
<polygon fill="#d170ff" stroke="#d170ff" points="333.142,-9.43931 324.885,-11.3555 332.535,-15.0063 333.142,-9.43931"/>
</a>
</g>
<!-- RCOR1_MTA3&#45;&gt;THRB -->
<g id="edge38" class="edge"><title>RCOR1_MTA3&#45;&gt;THRB</title>
<a xlink:title="THRB: 0.140||remove16">
<path fill="none" stroke="#ebc1ff" stroke-width="3" d="M272.979,-36.2756C239.446,-94.3565 135.255,-274.821 96.6147,-341.748"/>
<polygon fill="#ebc1ff" stroke="#ebc1ff" points="94.0221,-340.639 92.447,-348.967 98.8719,-343.439 94.0221,-340.639"/>
</a>
</g>
<!-- RCOR1_MTA3&#45;&gt;EBF3 -->
<g id="edge40" class="edge"><title>RCOR1_MTA3&#45;&gt;EBF3</title>
<a xlink:title="EBF3: 0.063||MTA3: 0.017||remove6root">
<path fill="none" stroke="#edc7ff" stroke-width="3" d="M259.989,-42.9557C211.168,-91.7772 101.536,-201.409 52.8241,-250.121"/>
<path fill="none" stroke="#eecaff" stroke-width="3" d="M258.575,-41.5415C209.754,-90.363 100.122,-199.995 51.4099,-248.707"/>
<polygon fill="#eecaff" stroke="#eecaff" points="261.477,-44.0139 265.154,-36.3771 257.517,-40.0541 261.477,-44.0139"/>
<polygon fill="#edc7ff" stroke="#edc7ff" points="49.8876,-247.683 46.2106,-255.32 53.8474,-251.643 49.8876,-247.683"/>
</a>
</g>
<!-- PAX5 -->
<g id="node21" class="node"><title>PAX5</title>
<a xlink:href="PAX5.svg" xlink:title="Z&#45;value: 1.037||remove21">
<polygon fill="#b3bbff" stroke="#b3bbff" stroke-width="2" points="392.062,-90 362.062,-90 350.062,-78 350.062,-66 362.062,-54 392.062,-54 404.062,-66 404.062,-78 392.062,-90"/>
<path fill="#b3bbff" stroke="#b3bbff" stroke-width="2" d="M362.062,-90C356.062,-90 350.062,-84 350.062,-78"/>
<path fill="#b3bbff" stroke="#b3bbff" stroke-width="2" d="M350.062,-66C350.062,-60 356.062,-54 362.062,-54"/>
<path fill="#b3bbff" stroke="#b3bbff" stroke-width="2" d="M392.062,-54C398.062,-54 404.062,-60 404.062,-66"/>
<path fill="#b3bbff" stroke="#b3bbff" stroke-width="2" d="M404.062,-78C404.062,-84 398.062,-90 392.062,-90"/>
<polyline fill="none" stroke="white" stroke-width="2" points="392.062,-90 362.062,-90 "/>
<path fill="none" stroke="white" stroke-width="2" d="M362.062,-90C356.062,-90 350.062,-84 350.062,-78"/>
<polyline fill="none" stroke="white" stroke-width="2" points="350.062,-78 350.062,-66 "/>
<path fill="none" stroke="white" stroke-width="2" d="M350.062,-66C350.062,-60 356.062,-54 362.062,-54"/>
<polyline fill="none" stroke="white" stroke-width="2" points="362.062,-54 392.062,-54 "/>
<path fill="none" stroke="white" stroke-width="2" d="M392.062,-54C398.062,-54 404.062,-60 404.062,-66"/>
<polyline fill="none" stroke="white" stroke-width="2" points="404.062,-66 404.062,-78 "/>
<path fill="none" stroke="white" stroke-width="2" d="M404.062,-78C404.062,-84 398.062,-90 392.062,-90"/>
<text text-anchor="middle" x="377.062" y="-69.5" font-family="Helvetica,sans-Serif" font-size="10.00">PAX5</text>
</a>
</g>
<!-- RCOR1_MTA3&#45;&gt;PAX5 -->
<g id="edge22" class="edge"><title>RCOR1_MTA3&#45;&gt;PAX5</title>
<a xlink:title="PAX5: 0.228||MTA3: 0.033||remove21">
<path fill="none" stroke="#e9bbff" stroke-width="3" d="M322.498,-39.3431C329.392,-43.3234 336.535,-47.4471 343.3,-51.3533"/>
<path fill="none" stroke="#edc9ff" stroke-width="3" d="M321.498,-41.0752C328.392,-45.0554 335.535,-49.1792 342.3,-53.0854"/>
<polygon fill="#edc9ff" stroke="#edc9ff" points="323.264,-37.7066 314.935,-36.1314 320.464,-42.5564 323.264,-37.7066"/>
<polygon fill="#e9bbff" stroke="#e9bbff" points="341.636,-54.7803 349.964,-56.3555 344.436,-49.9305 341.636,-54.7803"/>
</a>
</g>
<!-- CUX1 -->
<g id="node24" class="node"><title>CUX1</title>
<a xlink:href="CUX1.svg" xlink:title="Z&#45;value: 0.796||remove18">
<polygon fill="#b9c0ff" stroke="#b9c0ff" stroke-width="2" points="446.062,-183.531 416.062,-183.531 404.062,-171.531 404.062,-159.531 416.062,-147.531 446.062,-147.531 458.062,-159.531 458.062,-171.531 446.062,-183.531"/>
<path fill="#b9c0ff" stroke="#b9c0ff" stroke-width="2" d="M416.062,-183.531C410.062,-183.531 404.062,-177.531 404.062,-171.531"/>
<path fill="#b9c0ff" stroke="#b9c0ff" stroke-width="2" d="M404.062,-159.531C404.062,-153.531 410.062,-147.531 416.062,-147.531"/>
<path fill="#b9c0ff" stroke="#b9c0ff" stroke-width="2" d="M446.062,-147.531C452.062,-147.531 458.062,-153.531 458.062,-159.531"/>
<path fill="#b9c0ff" stroke="#b9c0ff" stroke-width="2" d="M458.062,-171.531C458.062,-177.531 452.062,-183.531 446.062,-183.531"/>
<polyline fill="none" stroke="white" stroke-width="2" points="446.062,-183.531 416.062,-183.531 "/>
<path fill="none" stroke="white" stroke-width="2" d="M416.062,-183.531C410.062,-183.531 404.062,-177.531 404.062,-171.531"/>
<polyline fill="none" stroke="white" stroke-width="2" points="404.062,-171.531 404.062,-159.531 "/>
<path fill="none" stroke="white" stroke-width="2" d="M404.062,-159.531C404.062,-153.531 410.062,-147.531 416.062,-147.531"/>
<polyline fill="none" stroke="white" stroke-width="2" points="416.062,-147.531 446.062,-147.531 "/>
<path fill="none" stroke="white" stroke-width="2" d="M446.062,-147.531C452.062,-147.531 458.062,-153.531 458.062,-159.531"/>
<polyline fill="none" stroke="white" stroke-width="2" points="458.062,-159.531 458.062,-171.531 "/>
<path fill="none" stroke="white" stroke-width="2" d="M458.062,-171.531C458.062,-177.531 452.062,-183.531 446.062,-183.531"/>
<text text-anchor="middle" x="431.062" y="-163.031" font-family="Helvetica,sans-Serif" font-size="10.00">CUX1</text>
</a>
</g>
<!-- RCOR1_MTA3&#45;&gt;CUX1 -->
<g id="edge26" class="edge"><title>RCOR1_MTA3&#45;&gt;CUX1</title>
<a xlink:title="CUX1: 0.938||remove18">
<path fill="none" stroke="#d988ff" stroke-width="3" d="M297.29,-36.2948C309.384,-51.9353 327.805,-74.725 345.742,-92.88 363.123,-110.474 384.282,-128.509 401.179,-142.209"/>
<polygon fill="#d988ff" stroke="#d988ff" points="399.676,-144.593 407.665,-147.425 403.185,-140.229 399.676,-144.593"/>
</a>
</g>
<!-- RCOR1_MTA3&#45;&gt;BARHL1 -->
<g id="edge42" class="edge"><title>RCOR1_MTA3&#45;&gt;BARHL1</title>
<a xlink:title="BARHL1: 0.060||remove5root">
<path fill="none" stroke="#edc7ff" stroke-width="3" d="M252.198,-36.0902C204.183,-63.8114 112.729,-116.613 62.7441,-145.471"/>
<polygon fill="#edc7ff" stroke="#edc7ff" points="61.2085,-143.125 55.6803,-149.55 64.0086,-147.974 61.2085,-143.125"/>
</a>
</g>
<!-- EBF3&#45;&gt;RARA -->
<g id="edge74" class="edge"><title>EBF3&#45;&gt;RARA</title>
<a xlink:title="RARA: 0.157||EBF3: 0.138||remove17">
<path fill="none" stroke="#ebc0ff" stroke-width="3" d="M63.4226,-281.987C130.36,-299.923 275.367,-338.777 342.24,-356.696"/>
<path fill="none" stroke="#ebc2ff" stroke-width="3" d="M62.905,-283.919C129.842,-301.855 274.85,-340.709 341.722,-358.628"/>
<polygon fill="#ebc2ff" stroke="#ebc2ff" points="63.5519,-280.158 55.0998,-280.792 62.1025,-285.567 63.5519,-280.158"/>
<polygon fill="#ebc0ff" stroke="#ebc0ff" points="341.286,-360.374 349.738,-359.74 342.736,-354.965 341.286,-360.374"/>
</a>
</g>
<!-- EBF3&#45;&gt;BARHL1 -->
<g id="edge76" class="edge"><title>EBF3&#45;&gt;BARHL1</title>
<a xlink:title="BARHL1: 0.080||remove9root">
<path fill="none" stroke="#ecc6ff" stroke-width="3" d="M28,-255.21C28,-237.805 28,-211.45 28,-191.809"/>
<polygon fill="#ecc6ff" stroke="#ecc6ff" points="30.8001,-191.581 28,-183.581 25.2001,-191.581 30.8001,-191.581"/>
</a>
</g>
<!-- PAX5&#45;&gt;ESRRA_ESR2 -->
<g id="edge82" class="edge"><title>PAX5&#45;&gt;ESRRA_ESR2</title>
<a xlink:title="ESR2: 0.003||remove0root">
<path fill="none" stroke="#eecbff" stroke-width="3" d="M349.832,-72C300.201,-72 194.367,-72 131.617,-72"/>
<polygon fill="#eecbff" stroke="#eecbff" points="131.435,-69.2001 123.435,-72 131.435,-74.8001 131.435,-69.2001"/>
</a>
</g>
<!-- PAX5&#45;&gt;ID4_TCF4_SNAI2 -->
<g id="edge80" class="edge"><title>PAX5&#45;&gt;ID4_TCF4_SNAI2</title>
<a xlink:title="ID4: 0.076||TCF4: 0.027||SNAI2: 0.012||remove8root">
<path fill="none" stroke="#ecc6ff" stroke-width="3" d="M349.945,-66.5541C321.267,-60.5868 274.808,-50.3272 235.391,-38.88 234.235,-38.5443 233.068,-38.1991 231.894,-37.8459"/>
<polygon fill="#ecc6ff" stroke="#ecc6ff" points="232.54,-35.1145 224.069,-35.4139 230.877,-40.4621 232.54,-35.1145"/>
</a>
</g>
<!-- PAX5&#45;&gt;NR1I2 -->
<g id="edge84" class="edge"><title>PAX5&#45;&gt;NR1I2</title>
<a xlink:title="NR1I2: 0.142||remove21root">
<path fill="none" stroke="#c1c7ff" stroke-width="3" d="M358.971,-90.0902C332.537,-116.525 283.295,-165.766 253.758,-195.304"/>
<polygon fill="#c1c7ff" stroke="#c1c7ff" points="251.446,-193.656 247.769,-201.293 255.406,-197.616 251.446,-193.656"/>
</a>
</g>
<!-- PAX5&#45;&gt;EBF3 -->
<g id="edge86" class="edge"><title>PAX5&#45;&gt;EBF3</title>
<a xlink:title="EBF3: 0.116||remove15root">
<path fill="none" stroke="#ecc3ff" stroke-width="3" d="M349.962,-87.6461C287.214,-123.874 132.017,-213.477 62.565,-253.575"/>
<polygon fill="#ecc3ff" stroke="#ecc3ff" points="60.8514,-251.331 55.3232,-257.756 63.6514,-256.181 60.8514,-251.331"/>
</a>
</g>
<!-- CUX1&#45;&gt;ID4_TCF4_SNAI2 -->
<g id="edge92" class="edge"><title>CUX1&#45;&gt;ID4_TCF4_SNAI2</title>
<a xlink:title="TCF4: 0.017||remove3root">
<path fill="none" stroke="#eecaff" stroke-width="3" d="M403.715,-149.742C358.095,-123.403 266.331,-70.4233 214.141,-40.2914"/>
<polygon fill="#eecaff" stroke="#eecaff" points="215.376,-37.7716 207.048,-36.1965 212.576,-42.6214 215.376,-37.7716"/>
</a>
</g>
<!-- CUX1&#45;&gt;NR1I2 -->
<g id="edge94" class="edge"><title>CUX1&#45;&gt;NR1I2</title>
<a xlink:title="NR1I2: 0.126||remove18root">
<path fill="none" stroke="#c2c8ff" stroke-width="3" d="M403.882,-172.813C367.873,-182.462 304.295,-199.498 264.673,-210.114"/>
<polygon fill="#c2c8ff" stroke="#c2c8ff" points="263.603,-207.502 256.601,-212.277 265.053,-212.911 263.603,-207.502"/>
</a>
</g>
<!-- BARHL1&#45;&gt;ESR1 -->
<g id="edge90" class="edge"><title>BARHL1&#45;&gt;ESR1</title>
<a xlink:title="ESR1: 0.013||remove2root">
<path fill="none" stroke="#eecbff" stroke-width="3" d="M55.7277,-180.565C88.7104,-197.77 145.899,-225.489 198.211,-240.411 266.597,-259.918 349.704,-268.212 395.852,-271.521"/>
<polygon fill="#eecbff" stroke="#eecbff" points="395.854,-274.328 404.027,-272.083 396.238,-268.741 395.854,-274.328"/>
</a>
</g>
<!-- BARHL1&#45;&gt;ID4_TCF4_SNAI2 -->
<g id="edge88" class="edge"><title>BARHL1&#45;&gt;ID4_TCF4_SNAI2</title>
<a xlink:title="TCF4: 0.029||remove4root">
<path fill="none" stroke="#eec9ff" stroke-width="3" d="M55.9396,-149.978C77.9188,-136.79 108.365,-116.313 130.14,-92.88 143.835,-78.142 155.501,-58.6301 163.576,-43.2189"/>
<polygon fill="#eec9ff" stroke="#eec9ff" points="166.106,-44.4208 167.245,-36.0218 161.117,-41.8776 166.106,-44.4208"/>
</a>
</g>
</g>
</svg>
