<?xml version="1.0" encoding="UTF-8" standalone="no"?>
<!DOCTYPE svg PUBLIC "-//W3C//DTD SVG 1.1//EN"
 "http://www.w3.org/Graphics/SVG/1.1/DTD/svg11.dtd">
<!-- Generated by graphviz version 2.28.0 (20110630.0925)
 -->
<!-- Title: _anonymous_0 Pages: 1 -->
<svg width="546pt" height="438pt"
 viewBox="0.00 0.00 546.30 438.10" xmlns="http://www.w3.org/2000/svg" xmlns:xlink="http://www.w3.org/1999/xlink">
<g id="graph1" class="graph" transform="scale(1 1) rotate(0) translate(4 434.105)">
<title>_anonymous_0</title>
<polygon fill="white" stroke="white" points="-4,5 -4,-434.105 543.305,-434.105 543.305,5 -4,5"/>
<!-- ZNF711_TFAP2A_TFAP2D -->
<g id="node1" class="node"><title>ZNF711_TFAP2A_TFAP2D</title>
<a xlink:href="ZNF711_TFAP2A_TFAP2D.svg" xlink:title="Z&#45;value: 2.387||remove15">
<polygon fill="#3247ff" stroke="#3247ff" stroke-width="2" points="508.305,-285.852 394.305,-285.852 382.305,-273.852 382.305,-261.852 394.305,-249.852 508.305,-249.852 520.305,-261.852 520.305,-273.852 508.305,-285.852"/>
<path fill="#3247ff" stroke="#3247ff" stroke-width="2" d="M394.305,-285.852C388.305,-285.852 382.305,-279.852 382.305,-273.852"/>
<path fill="#3247ff" stroke="#3247ff" stroke-width="2" d="M382.305,-261.852C382.305,-255.852 388.305,-249.852 394.305,-249.852"/>
<path fill="#3247ff" stroke="#3247ff" stroke-width="2" d="M508.305,-249.852C514.305,-249.852 520.305,-255.852 520.305,-261.852"/>
<path fill="#3247ff" stroke="#3247ff" stroke-width="2" d="M520.305,-273.852C520.305,-279.852 514.305,-285.852 508.305,-285.852"/>
<polyline fill="none" stroke="white" stroke-width="2" points="508.305,-285.852 394.305,-285.852 "/>
<path fill="none" stroke="white" stroke-width="2" d="M394.305,-285.852C388.305,-285.852 382.305,-279.852 382.305,-273.852"/>
<polyline fill="none" stroke="white" stroke-width="2" points="382.305,-273.852 382.305,-261.852 "/>
<path fill="none" stroke="white" stroke-width="2" d="M382.305,-261.852C382.305,-255.852 388.305,-249.852 394.305,-249.852"/>
<polyline fill="none" stroke="white" stroke-width="2" points="394.305,-249.852 508.305,-249.852 "/>
<path fill="none" stroke="white" stroke-width="2" d="M508.305,-249.852C514.305,-249.852 520.305,-255.852 520.305,-261.852"/>
<polyline fill="none" stroke="white" stroke-width="2" points="520.305,-261.852 520.305,-273.852 "/>
<path fill="none" stroke="white" stroke-width="2" d="M520.305,-273.852C520.305,-279.852 514.305,-285.852 508.305,-285.852"/>
<text text-anchor="middle" x="451.305" y="-265.352" font-family="Helvetica,sans-Serif" font-size="10.00" fill="white">ZNF711_TFAP2A_TFAP2D</text>
</a>
</g>
<!-- ZNF711_TFAP2A_TFAP2D&#45;&gt;ZNF711_TFAP2A_TFAP2D -->
<g id="edge2" class="edge"><title>ZNF711_TFAP2A_TFAP2D&#45;&gt;ZNF711_TFAP2A_TFAP2D</title>
<a xlink:title="TFAP2A: 0.506||ZNF711: 0.089||remove15">
<path fill="none" stroke="#d57cff" stroke-width="3" d="M520.579,-274.007C531.136,-273.068 538.305,-271.016 538.305,-267.852 538.305,-265.578 534.601,-263.879 528.598,-262.754"/>
<polygon fill="#d57cff" stroke="#d57cff" points="528.876,-259.966 520.579,-261.697 528.145,-265.518 528.876,-259.966"/>
</a>
</g>
<!-- TFEC_MITF_ARNTL_BHLHE41 -->
<g id="node3" class="node"><title>TFEC_MITF_ARNTL_BHLHE41</title>
<a xlink:href="TFEC_MITF_ARNTL_BHLHE41.svg" xlink:title="Z&#45;value: 0.735||remove13">
<polygon fill="#9ca6ff" stroke="#9ca6ff" stroke-width="2" points="465.755,-377.305 331.255,-377.305 319.255,-365.305 319.255,-353.305 331.255,-341.305 465.755,-341.305 477.755,-353.305 477.755,-365.305 465.755,-377.305"/>
<path fill="#9ca6ff" stroke="#9ca6ff" stroke-width="2" d="M331.255,-377.305C325.255,-377.305 319.255,-371.305 319.255,-365.305"/>
<path fill="#9ca6ff" stroke="#9ca6ff" stroke-width="2" d="M319.255,-353.305C319.255,-347.305 325.255,-341.305 331.255,-341.305"/>
<path fill="#9ca6ff" stroke="#9ca6ff" stroke-width="2" d="M465.755,-341.305C471.755,-341.305 477.755,-347.305 477.755,-353.305"/>
<path fill="#9ca6ff" stroke="#9ca6ff" stroke-width="2" d="M477.755,-365.305C477.755,-371.305 471.755,-377.305 465.755,-377.305"/>
<polyline fill="none" stroke="white" stroke-width="2" points="465.755,-377.305 331.255,-377.305 "/>
<path fill="none" stroke="white" stroke-width="2" d="M331.255,-377.305C325.255,-377.305 319.255,-371.305 319.255,-365.305"/>
<polyline fill="none" stroke="white" stroke-width="2" points="319.255,-365.305 319.255,-353.305 "/>
<path fill="none" stroke="white" stroke-width="2" d="M319.255,-353.305C319.255,-347.305 325.255,-341.305 331.255,-341.305"/>
<polyline fill="none" stroke="white" stroke-width="2" points="331.255,-341.305 465.755,-341.305 "/>
<path fill="none" stroke="white" stroke-width="2" d="M465.755,-341.305C471.755,-341.305 477.755,-347.305 477.755,-353.305"/>
<polyline fill="none" stroke="white" stroke-width="2" points="477.755,-353.305 477.755,-365.305 "/>
<path fill="none" stroke="white" stroke-width="2" d="M477.755,-365.305C477.755,-371.305 471.755,-377.305 465.755,-377.305"/>
<text text-anchor="middle" x="398.505" y="-356.805" font-family="Helvetica,sans-Serif" font-size="10.00">TFEC_MITF_ARNTL_BHLHE41</text>
</a>
</g>
<!-- ZNF711_TFAP2A_TFAP2D&#45;&gt;TFEC_MITF_ARNTL_BHLHE41 -->
<g id="edge4" class="edge"><title>ZNF711_TFAP2A_TFAP2D&#45;&gt;TFEC_MITF_ARNTL_BHLHE41</title>
<a xlink:title="MITF: 0.978||BHLHE41: 0.026||remove13">
<path fill="none" stroke="#bd32ff" stroke-width="3" d="M440.873,-285.92C432.918,-299.699 421.865,-318.843 413.043,-334.124"/>
<polygon fill="#bd32ff" stroke="#bd32ff" points="410.49,-332.946 408.914,-341.274 415.339,-335.746 410.49,-332.946"/>
</a>
</g>
<!-- HIVEP1 -->
<g id="node5" class="node"><title>HIVEP1</title>
<a xlink:href="HIVEP1.svg" xlink:title="Z&#45;value: 0.599||remove11">
<polygon fill="#a5aeff" stroke="#a5aeff" stroke-width="2" points="322.052,-430.105 292.052,-430.105 280.052,-418.105 280.052,-406.105 292.052,-394.105 322.052,-394.105 334.052,-406.105 334.052,-418.105 322.052,-430.105"/>
<path fill="#a5aeff" stroke="#a5aeff" stroke-width="2" d="M292.052,-430.105C286.052,-430.105 280.052,-424.105 280.052,-418.105"/>
<path fill="#a5aeff" stroke="#a5aeff" stroke-width="2" d="M280.052,-406.105C280.052,-400.105 286.052,-394.105 292.052,-394.105"/>
<path fill="#a5aeff" stroke="#a5aeff" stroke-width="2" d="M322.052,-394.105C328.052,-394.105 334.052,-400.105 334.052,-406.105"/>
<path fill="#a5aeff" stroke="#a5aeff" stroke-width="2" d="M334.052,-418.105C334.052,-424.105 328.052,-430.105 322.052,-430.105"/>
<polyline fill="none" stroke="white" stroke-width="2" points="322.052,-430.105 292.052,-430.105 "/>
<path fill="none" stroke="white" stroke-width="2" d="M292.052,-430.105C286.052,-430.105 280.052,-424.105 280.052,-418.105"/>
<polyline fill="none" stroke="white" stroke-width="2" points="280.052,-418.105 280.052,-406.105 "/>
<path fill="none" stroke="white" stroke-width="2" d="M280.052,-406.105C280.052,-400.105 286.052,-394.105 292.052,-394.105"/>
<polyline fill="none" stroke="white" stroke-width="2" points="292.052,-394.105 322.052,-394.105 "/>
<path fill="none" stroke="white" stroke-width="2" d="M322.052,-394.105C328.052,-394.105 334.052,-400.105 334.052,-406.105"/>
<polyline fill="none" stroke="white" stroke-width="2" points="334.052,-406.105 334.052,-418.105 "/>
<path fill="none" stroke="white" stroke-width="2" d="M334.052,-418.105C334.052,-424.105 328.052,-430.105 322.052,-430.105"/>
<text text-anchor="middle" x="307.052" y="-409.605" font-family="Helvetica,sans-Serif" font-size="10.00">HIVEP1</text>
</a>
</g>
<!-- ZNF711_TFAP2A_TFAP2D&#45;&gt;HIVEP1 -->
<g id="edge6" class="edge"><title>ZNF711_TFAP2A_TFAP2D&#45;&gt;HIVEP1</title>
<a xlink:title="HIVEP1: 0.171||remove11">
<path fill="none" stroke="#e6b1ff" stroke-width="3" d="M382.192,-284.063C353.553,-294.557 323.137,-311.481 306.285,-338.425 297.527,-352.425 297.797,-371.042 300.217,-386.059"/>
<polygon fill="#e6b1ff" stroke="#e6b1ff" points="297.48,-386.651 301.739,-393.979 302.979,-385.594 297.48,-386.651"/>
</a>
</g>
<!-- WT1_MTF1_ZBTB7B -->
<g id="node7" class="node"><title>WT1_MTF1_ZBTB7B</title>
<a xlink:href="WT1_MTF1_ZBTB7B.svg" xlink:title="Z&#45;value: 0.561||remove21">
<polygon fill="#a8b0ff" stroke="#a8b0ff" stroke-width="2" points="244.702,-430.105 158.202,-430.105 146.202,-418.105 146.202,-406.105 158.202,-394.105 244.702,-394.105 256.702,-406.105 256.702,-418.105 244.702,-430.105"/>
<path fill="#a8b0ff" stroke="#a8b0ff" stroke-width="2" d="M158.202,-430.105C152.202,-430.105 146.202,-424.105 146.202,-418.105"/>
<path fill="#a8b0ff" stroke="#a8b0ff" stroke-width="2" d="M146.202,-406.105C146.202,-400.105 152.202,-394.105 158.202,-394.105"/>
<path fill="#a8b0ff" stroke="#a8b0ff" stroke-width="2" d="M244.702,-394.105C250.702,-394.105 256.702,-400.105 256.702,-406.105"/>
<path fill="#a8b0ff" stroke="#a8b0ff" stroke-width="2" d="M256.702,-418.105C256.702,-424.105 250.702,-430.105 244.702,-430.105"/>
<polyline fill="none" stroke="white" stroke-width="2" points="244.702,-430.105 158.202,-430.105 "/>
<path fill="none" stroke="white" stroke-width="2" d="M158.202,-430.105C152.202,-430.105 146.202,-424.105 146.202,-418.105"/>
<polyline fill="none" stroke="white" stroke-width="2" points="146.202,-418.105 146.202,-406.105 "/>
<path fill="none" stroke="white" stroke-width="2" d="M146.202,-406.105C146.202,-400.105 152.202,-394.105 158.202,-394.105"/>
<polyline fill="none" stroke="white" stroke-width="2" points="158.202,-394.105 244.702,-394.105 "/>
<path fill="none" stroke="white" stroke-width="2" d="M244.702,-394.105C250.702,-394.105 256.702,-400.105 256.702,-406.105"/>
<polyline fill="none" stroke="white" stroke-width="2" points="256.702,-406.105 256.702,-418.105 "/>
<path fill="none" stroke="white" stroke-width="2" d="M256.702,-418.105C256.702,-424.105 250.702,-430.105 244.702,-430.105"/>
<text text-anchor="middle" x="201.452" y="-409.605" font-family="Helvetica,sans-Serif" font-size="10.00">WT1_MTF1_ZBTB7B</text>
</a>
</g>
<!-- ZNF711_TFAP2A_TFAP2D&#45;&gt;WT1_MTF1_ZBTB7B -->
<g id="edge8" class="edge"><title>ZNF711_TFAP2A_TFAP2D&#45;&gt;WT1_MTF1_ZBTB7B</title>
<a xlink:title="ZBTB7B: 0.183||WT1: 0.019||TFAP2A: 0.032||remove15">
<path fill="none" stroke="#e5afff" stroke-width="3" d="M402.71,-290.237C374.142,-303.335 337.719,-321.047 306.792,-339.286 280.695,-354.67 252.613,-374.605 232.125,-389.834"/>
<path fill="none" stroke="#edc7ff" stroke-width="3" d="M401.877,-288.419C373.267,-301.536 336.844,-319.248 305.777,-337.563 279.537,-353.039 251.456,-372.974 230.932,-388.229"/>
<polygon fill="#edc7ff" stroke="#edc7ff" points="403.641,-291.791 409.761,-285.927 401.32,-286.694 403.641,-291.791"/>
<polygon fill="#e5afff" stroke="#e5afff" points="229.606,-386.973 224.878,-394.008 232.961,-391.457 229.606,-386.973"/>
</a>
</g>
<!-- KLF7 -->
<g id="node9" class="node"><title>KLF7</title>
<a xlink:href="KLF7.svg" xlink:title="Z&#45;value: 0.294||remove14">
<polygon fill="#b9c0ff" stroke="#b9c0ff" stroke-width="2" points="125,-377.305 95,-377.305 83,-365.305 83,-353.305 95,-341.305 125,-341.305 137,-353.305 137,-365.305 125,-377.305"/>
<path fill="#b9c0ff" stroke="#b9c0ff" stroke-width="2" d="M95,-377.305C89,-377.305 83,-371.305 83,-365.305"/>
<path fill="#b9c0ff" stroke="#b9c0ff" stroke-width="2" d="M83,-353.305C83,-347.305 89,-341.305 95,-341.305"/>
<path fill="#b9c0ff" stroke="#b9c0ff" stroke-width="2" d="M125,-341.305C131,-341.305 137,-347.305 137,-353.305"/>
<path fill="#b9c0ff" stroke="#b9c0ff" stroke-width="2" d="M137,-365.305C137,-371.305 131,-377.305 125,-377.305"/>
<polyline fill="none" stroke="white" stroke-width="2" points="125,-377.305 95,-377.305 "/>
<path fill="none" stroke="white" stroke-width="2" d="M95,-377.305C89,-377.305 83,-371.305 83,-365.305"/>
<polyline fill="none" stroke="white" stroke-width="2" points="83,-365.305 83,-353.305 "/>
<path fill="none" stroke="white" stroke-width="2" d="M83,-353.305C83,-347.305 89,-341.305 95,-341.305"/>
<polyline fill="none" stroke="white" stroke-width="2" points="95,-341.305 125,-341.305 "/>
<path fill="none" stroke="white" stroke-width="2" d="M125,-341.305C131,-341.305 137,-347.305 137,-353.305"/>
<polyline fill="none" stroke="white" stroke-width="2" points="137,-353.305 137,-365.305 "/>
<path fill="none" stroke="white" stroke-width="2" d="M137,-365.305C137,-371.305 131,-377.305 125,-377.305"/>
<text text-anchor="middle" x="110" y="-356.805" font-family="Helvetica,sans-Serif" font-size="10.00">KLF7</text>
</a>
</g>
<!-- ZNF711_TFAP2A_TFAP2D&#45;&gt;KLF7 -->
<g id="edge10" class="edge"><title>ZNF711_TFAP2A_TFAP2D&#45;&gt;KLF7</title>
<a xlink:title="KLF7: 0.204||remove14">
<path fill="none" stroke="#e4acff" stroke-width="3" d="M383.874,-285.92C312.03,-305.171 201.09,-334.897 145.012,-349.923"/>
<polygon fill="#e4acff" stroke="#e4acff" points="144.15,-347.255 137.147,-352.03 145.599,-352.664 144.15,-347.255"/>
</a>
</g>
<!-- PBX1 -->
<g id="node11" class="node"><title>PBX1</title>
<a xlink:href="PBX1.svg" xlink:title="Z&#45;value: 0.480||remove22">
<polygon fill="#adb5ff" stroke="#adb5ff" stroke-width="2" points="72.2,-285.852 42.2,-285.852 30.2,-273.852 30.2,-261.852 42.2,-249.852 72.2,-249.852 84.2,-261.852 84.2,-273.852 72.2,-285.852"/>
<path fill="#adb5ff" stroke="#adb5ff" stroke-width="2" d="M42.2,-285.852C36.2,-285.852 30.2,-279.852 30.2,-273.852"/>
<path fill="#adb5ff" stroke="#adb5ff" stroke-width="2" d="M30.2,-261.852C30.2,-255.852 36.2,-249.852 42.2,-249.852"/>
<path fill="#adb5ff" stroke="#adb5ff" stroke-width="2" d="M72.2,-249.852C78.2,-249.852 84.2,-255.852 84.2,-261.852"/>
<path fill="#adb5ff" stroke="#adb5ff" stroke-width="2" d="M84.2,-273.852C84.2,-279.852 78.2,-285.852 72.2,-285.852"/>
<polyline fill="none" stroke="white" stroke-width="2" points="72.2,-285.852 42.2,-285.852 "/>
<path fill="none" stroke="white" stroke-width="2" d="M42.2,-285.852C36.2,-285.852 30.2,-279.852 30.2,-273.852"/>
<polyline fill="none" stroke="white" stroke-width="2" points="30.2,-273.852 30.2,-261.852 "/>
<path fill="none" stroke="white" stroke-width="2" d="M30.2,-261.852C30.2,-255.852 36.2,-249.852 42.2,-249.852"/>
<polyline fill="none" stroke="white" stroke-width="2" points="42.2,-249.852 72.2,-249.852 "/>
<path fill="none" stroke="white" stroke-width="2" d="M72.2,-249.852C78.2,-249.852 84.2,-255.852 84.2,-261.852"/>
<polyline fill="none" stroke="white" stroke-width="2" points="84.2,-261.852 84.2,-273.852 "/>
<path fill="none" stroke="white" stroke-width="2" d="M84.2,-273.852C84.2,-279.852 78.2,-285.852 72.2,-285.852"/>
<text text-anchor="middle" x="57.2" y="-265.352" font-family="Helvetica,sans-Serif" font-size="10.00">PBX1</text>
</a>
</g>
<!-- ZNF711_TFAP2A_TFAP2D&#45;&gt;PBX1 -->
<g id="edge12" class="edge"><title>ZNF711_TFAP2A_TFAP2D&#45;&gt;PBX1</title>
<a xlink:title="PBX1: 0.067||remove15">
<path fill="none" stroke="#ebc1ff" stroke-width="3" d="M382.206,-267.852C297.697,-267.852 157.873,-267.852 92.6921,-267.852"/>
<polygon fill="#ebc1ff" stroke="#ebc1ff" points="92.3759,-265.052 84.3758,-267.852 92.3758,-270.652 92.3759,-265.052"/>
</a>
</g>
<!-- ELF3_EHF -->
<g id="node13" class="node"><title>ELF3_EHF</title>
<a xlink:href="ELF3_EHF.svg" xlink:title="Z&#45;value: 1.010||remove18">
<polygon fill="#8b96ff" stroke="#8b96ff" stroke-width="2" points="77.45,-180.252 36.95,-180.252 24.95,-168.252 24.95,-156.252 36.95,-144.252 77.45,-144.252 89.45,-156.252 89.45,-168.252 77.45,-180.252"/>
<path fill="#8b96ff" stroke="#8b96ff" stroke-width="2" d="M36.95,-180.252C30.95,-180.252 24.95,-174.252 24.95,-168.252"/>
<path fill="#8b96ff" stroke="#8b96ff" stroke-width="2" d="M24.95,-156.252C24.95,-150.252 30.95,-144.252 36.95,-144.252"/>
<path fill="#8b96ff" stroke="#8b96ff" stroke-width="2" d="M77.45,-144.252C83.45,-144.252 89.45,-150.252 89.45,-156.252"/>
<path fill="#8b96ff" stroke="#8b96ff" stroke-width="2" d="M89.45,-168.252C89.45,-174.252 83.45,-180.252 77.45,-180.252"/>
<polyline fill="none" stroke="white" stroke-width="2" points="77.45,-180.252 36.95,-180.252 "/>
<path fill="none" stroke="white" stroke-width="2" d="M36.95,-180.252C30.95,-180.252 24.95,-174.252 24.95,-168.252"/>
<polyline fill="none" stroke="white" stroke-width="2" points="24.95,-168.252 24.95,-156.252 "/>
<path fill="none" stroke="white" stroke-width="2" d="M24.95,-156.252C24.95,-150.252 30.95,-144.252 36.95,-144.252"/>
<polyline fill="none" stroke="white" stroke-width="2" points="36.95,-144.252 77.45,-144.252 "/>
<path fill="none" stroke="white" stroke-width="2" d="M77.45,-144.252C83.45,-144.252 89.45,-150.252 89.45,-156.252"/>
<polyline fill="none" stroke="white" stroke-width="2" points="89.45,-156.252 89.45,-168.252 "/>
<path fill="none" stroke="white" stroke-width="2" d="M89.45,-168.252C89.45,-174.252 83.45,-180.252 77.45,-180.252"/>
<text text-anchor="middle" x="57.2" y="-159.752" font-family="Helvetica,sans-Serif" font-size="10.00">ELF3_EHF</text>
</a>
</g>
<!-- ZNF711_TFAP2A_TFAP2D&#45;&gt;ELF3_EHF -->
<g id="edge14" class="edge"><title>ZNF711_TFAP2A_TFAP2D&#45;&gt;ELF3_EHF</title>
<a xlink:title="ELF3: 0.289||EHF: 0.162||remove15">
<path fill="none" stroke="#e09eff" stroke-width="3" d="M382.062,-263.233C336.235,-258.949 275.182,-250.878 222.932,-235.932 178.181,-223.132 129.853,-200.548 96.9988,-183.746"/>
<polygon fill="#e09eff" stroke="#e09eff" points="98.2116,-181.221 89.8184,-180.04 95.6432,-186.198 98.2116,-181.221"/>
</a>
</g>
<!-- OTP_PHOX2B_LHX1_LMX1A_LHX5_HOXC4 -->
<g id="node15" class="node"><title>OTP_PHOX2B_LHX1_LMX1A_LHX5_HOXC4</title>
<a xlink:href="OTP_PHOX2B_LHX1_LMX1A_LHX5_HOXC4.svg" xlink:title="Z&#45;value: 0.402||remove16">
<polygon fill="#b2b9ff" stroke="#b2b9ff" stroke-width="2" points="208,-88.8 12,-88.8 0,-76.8 0,-64.8 12,-52.8 208,-52.8 220,-64.8 220,-76.8 208,-88.8"/>
<path fill="#b2b9ff" stroke="#b2b9ff" stroke-width="2" d="M12,-88.8C6,-88.8 0,-82.8 0,-76.8"/>
<path fill="#b2b9ff" stroke="#b2b9ff" stroke-width="2" d="M0,-64.8C0,-58.8 6,-52.8 12,-52.8"/>
<path fill="#b2b9ff" stroke="#b2b9ff" stroke-width="2" d="M208,-52.8C214,-52.8 220,-58.8 220,-64.8"/>
<path fill="#b2b9ff" stroke="#b2b9ff" stroke-width="2" d="M220,-76.8C220,-82.8 214,-88.8 208,-88.8"/>
<polyline fill="none" stroke="white" stroke-width="2" points="208,-88.8 12,-88.8 "/>
<path fill="none" stroke="white" stroke-width="2" d="M12,-88.8C6,-88.8 0,-82.8 0,-76.8"/>
<polyline fill="none" stroke="white" stroke-width="2" points="0,-76.8 0,-64.8 "/>
<path fill="none" stroke="white" stroke-width="2" d="M0,-64.8C0,-58.8 6,-52.8 12,-52.8"/>
<polyline fill="none" stroke="white" stroke-width="2" points="12,-52.8 208,-52.8 "/>
<path fill="none" stroke="white" stroke-width="2" d="M208,-52.8C214,-52.8 220,-58.8 220,-64.8"/>
<polyline fill="none" stroke="white" stroke-width="2" points="220,-64.8 220,-76.8 "/>
<path fill="none" stroke="white" stroke-width="2" d="M220,-76.8C220,-82.8 214,-88.8 208,-88.8"/>
<text text-anchor="middle" x="110" y="-68.3" font-family="Helvetica,sans-Serif" font-size="10.00">OTP_PHOX2B_LHX1_LMX1A_LHX5_HOXC4</text>
</a>
</g>
<!-- ZNF711_TFAP2A_TFAP2D&#45;&gt;OTP_PHOX2B_LHX1_LMX1A_LHX5_HOXC4 -->
<g id="edge16" class="edge"><title>ZNF711_TFAP2A_TFAP2D&#45;&gt;OTP_PHOX2B_LHX1_LMX1A_LHX5_HOXC4</title>
<a xlink:title="HOXC4: 0.293||PHOX2B: 0.277||OTP: 0.072||LMX1A: 0.021||TFAP2D: 0.034||remove15">
<path fill="none" stroke="#df9eff" stroke-width="3" d="M412.469,-246.585C346.948,-208.757 214.133,-132.076 148.297,-94.0656"/>
<path fill="none" stroke="#ecc6ff" stroke-width="3" d="M413.469,-244.853C347.948,-207.025 215.133,-130.344 149.297,-92.3335"/>
<polygon fill="#ecc6ff" stroke="#ecc6ff" points="411.783,-248.268 420.111,-249.843 414.583,-243.418 411.783,-248.268"/>
<polygon fill="#df9eff" stroke="#df9eff" points="149.82,-90.5567 141.491,-88.9816 147.02,-95.4065 149.82,-90.5567"/>
</a>
</g>
<!-- BACH1_NFE2_NFE2L2 -->
<g id="node17" class="node"><title>BACH1_NFE2_NFE2L2</title>
<a xlink:href="BACH1_NFE2_NFE2L2.svg" xlink:title="Z&#45;value: 1.802||remove23">
<polygon fill="#5869ff" stroke="#5869ff" stroke-width="2" points="250.452,-36 152.452,-36 140.452,-24 140.452,-12 152.452,-6.39488e-14 250.452,-6.39488e-14 262.452,-12 262.452,-24 250.452,-36"/>
<path fill="#5869ff" stroke="#5869ff" stroke-width="2" d="M152.452,-36C146.452,-36 140.452,-30 140.452,-24"/>
<path fill="#5869ff" stroke="#5869ff" stroke-width="2" d="M140.452,-12C140.452,-6 146.452,-6.39488e-14 152.452,-6.39488e-14"/>
<path fill="#5869ff" stroke="#5869ff" stroke-width="2" d="M250.452,-6.39488e-14C256.452,-6.39488e-14 262.452,-6 262.452,-12"/>
<path fill="#5869ff" stroke="#5869ff" stroke-width="2" d="M262.452,-24C262.452,-30 256.452,-36 250.452,-36"/>
<polyline fill="none" stroke="white" stroke-width="2" points="250.452,-36 152.452,-36 "/>
<path fill="none" stroke="white" stroke-width="2" d="M152.452,-36C146.452,-36 140.452,-30 140.452,-24"/>
<polyline fill="none" stroke="white" stroke-width="2" points="140.452,-24 140.452,-12 "/>
<path fill="none" stroke="white" stroke-width="2" d="M140.452,-12C140.452,-6 146.452,-6.39488e-14 152.452,-6.39488e-14"/>
<polyline fill="none" stroke="white" stroke-width="2" points="152.452,-6.39488e-14 250.452,-6.39488e-14 "/>
<path fill="none" stroke="white" stroke-width="2" d="M250.452,-6.39488e-14C256.452,-6.39488e-14 262.452,-6 262.452,-12"/>
<polyline fill="none" stroke="white" stroke-width="2" points="262.452,-12 262.452,-24 "/>
<path fill="none" stroke="white" stroke-width="2" d="M262.452,-24C262.452,-30 256.452,-36 250.452,-36"/>
<text text-anchor="middle" x="201.452" y="-15.5" font-family="Helvetica,sans-Serif" font-size="10.00" fill="white">BACH1_NFE2_NFE2L2</text>
</a>
</g>
<!-- ZNF711_TFAP2A_TFAP2D&#45;&gt;BACH1_NFE2_NFE2L2 -->
<g id="edge18" class="edge"><title>ZNF711_TFAP2A_TFAP2D&#45;&gt;BACH1_NFE2_NFE2L2</title>
<a xlink:title="NFE2L2: 0.403||BACH1: 0.094||NFE2: 0.004||remove15">
<path fill="none" stroke="#da8cff" stroke-width="3" d="M434.278,-249.623C398.618,-211.641 313.127,-121.601 237.6,-49.92 234.788,-47.2508 231.81,-44.5027 228.818,-41.7916"/>
<polygon fill="#da8cff" stroke="#da8cff" points="230.534,-39.5695 222.708,-36.3158 226.797,-43.74 230.534,-39.5695"/>
</a>
</g>
<!-- TGIF1 -->
<g id="node19" class="node"><title>TGIF1</title>
<a xlink:href="TGIF1.svg" xlink:title="Z&#45;value: 0.677||remove19">
<polygon fill="#a0aaff" stroke="#a0aaff" stroke-width="2" points="322.052,-36 292.052,-36 280.052,-24 280.052,-12 292.052,-0 322.052,-0 334.052,-12 334.052,-24 322.052,-36"/>
<path fill="#a0aaff" stroke="#a0aaff" stroke-width="2" d="M292.052,-36C286.052,-36 280.052,-30 280.052,-24"/>
<path fill="#a0aaff" stroke="#a0aaff" stroke-width="2" d="M280.052,-12C280.052,-6 286.052,-0 292.052,-0"/>
<path fill="#a0aaff" stroke="#a0aaff" stroke-width="2" d="M322.052,-0C328.052,-0 334.052,-6 334.052,-12"/>
<path fill="#a0aaff" stroke="#a0aaff" stroke-width="2" d="M334.052,-24C334.052,-30 328.052,-36 322.052,-36"/>
<polyline fill="none" stroke="white" stroke-width="2" points="322.052,-36 292.052,-36 "/>
<path fill="none" stroke="white" stroke-width="2" d="M292.052,-36C286.052,-36 280.052,-30 280.052,-24"/>
<polyline fill="none" stroke="white" stroke-width="2" points="280.052,-24 280.052,-12 "/>
<path fill="none" stroke="white" stroke-width="2" d="M280.052,-12C280.052,-6 286.052,-0 292.052,-0"/>
<polyline fill="none" stroke="white" stroke-width="2" points="292.052,-0 322.052,-0 "/>
<path fill="none" stroke="white" stroke-width="2" d="M322.052,-0C328.052,-0 334.052,-6 334.052,-12"/>
<polyline fill="none" stroke="white" stroke-width="2" points="334.052,-12 334.052,-24 "/>
<path fill="none" stroke="white" stroke-width="2" d="M334.052,-24C334.052,-30 328.052,-36 322.052,-36"/>
<text text-anchor="middle" x="307.052" y="-15.5" font-family="Helvetica,sans-Serif" font-size="10.00">TGIF1</text>
</a>
</g>
<!-- ZNF711_TFAP2A_TFAP2D&#45;&gt;TGIF1 -->
<g id="edge20" class="edge"><title>ZNF711_TFAP2A_TFAP2D&#45;&gt;TGIF1</title>
<a xlink:title="TGIF1: 0.339||TFAP2A: 0.090||remove15">
<path fill="none" stroke="#dd97ff" stroke-width="3" d="M421.43,-245.071C385.824,-214.3 327.662,-156.795 304.184,-92.0194 298.679,-76.568 299.03,-58.5837 300.814,-44.0586"/>
<path fill="none" stroke="#eabdff" stroke-width="3" d="M422.737,-243.557C387.23,-212.878 329.068,-155.373 306.065,-91.3406 300.678,-76.6071 301.03,-58.6228 302.799,-44.303"/>
<polygon fill="#eabdff" stroke="#eabdff" points="420.541,-246.678 428.446,-249.735 424.173,-242.415 420.541,-246.678"/>
<polygon fill="#dd97ff" stroke="#dd97ff" points="304.593,-44.4711 302.984,-36.1495 299.053,-43.6587 304.593,-44.4711"/>
</a>
</g>
<!-- FOXK1_FOXP2_FOXB1_FOXP3 -->
<g id="node21" class="node"><title>FOXK1_FOXP2_FOXB1_FOXP3</title>
<a xlink:href="FOXK1_FOXP2_FOXB1_FOXP3.svg" xlink:title="Z&#45;value: 0.694||remove24">
<polygon fill="#9fa9ff" stroke="#9fa9ff" stroke-width="2" points="466.755,-88.8 330.255,-88.8 318.255,-76.8 318.255,-64.8 330.255,-52.8 466.755,-52.8 478.755,-64.8 478.755,-76.8 466.755,-88.8"/>
<path fill="#9fa9ff" stroke="#9fa9ff" stroke-width="2" d="M330.255,-88.8C324.255,-88.8 318.255,-82.8 318.255,-76.8"/>
<path fill="#9fa9ff" stroke="#9fa9ff" stroke-width="2" d="M318.255,-64.8C318.255,-58.8 324.255,-52.8 330.255,-52.8"/>
<path fill="#9fa9ff" stroke="#9fa9ff" stroke-width="2" d="M466.755,-52.8C472.755,-52.8 478.755,-58.8 478.755,-64.8"/>
<path fill="#9fa9ff" stroke="#9fa9ff" stroke-width="2" d="M478.755,-76.8C478.755,-82.8 472.755,-88.8 466.755,-88.8"/>
<polyline fill="none" stroke="white" stroke-width="2" points="466.755,-88.8 330.255,-88.8 "/>
<path fill="none" stroke="white" stroke-width="2" d="M330.255,-88.8C324.255,-88.8 318.255,-82.8 318.255,-76.8"/>
<polyline fill="none" stroke="white" stroke-width="2" points="318.255,-76.8 318.255,-64.8 "/>
<path fill="none" stroke="white" stroke-width="2" d="M318.255,-64.8C318.255,-58.8 324.255,-52.8 330.255,-52.8"/>
<polyline fill="none" stroke="white" stroke-width="2" points="330.255,-52.8 466.755,-52.8 "/>
<path fill="none" stroke="white" stroke-width="2" d="M466.755,-52.8C472.755,-52.8 478.755,-58.8 478.755,-64.8"/>
<polyline fill="none" stroke="white" stroke-width="2" points="478.755,-64.8 478.755,-76.8 "/>
<path fill="none" stroke="white" stroke-width="2" d="M478.755,-76.8C478.755,-82.8 472.755,-88.8 466.755,-88.8"/>
<text text-anchor="middle" x="398.505" y="-68.3" font-family="Helvetica,sans-Serif" font-size="10.00">FOXK1_FOXP2_FOXB1_FOXP3</text>
</a>
</g>
<!-- ZNF711_TFAP2A_TFAP2D&#45;&gt;FOXK1_FOXP2_FOXB1_FOXP3 -->
<g id="edge22" class="edge"><title>ZNF711_TFAP2A_TFAP2D&#45;&gt;FOXK1_FOXP2_FOXB1_FOXP3</title>
<a xlink:title="FOXK1: 0.546||remove15">
<path fill="none" stroke="#d376ff" stroke-width="3" d="M443.57,-249.631C436.61,-232.666 426.503,-206.548 419.985,-183.132 411.874,-154.001 405.812,-119.774 402.231,-96.8248"/>
<polygon fill="#d376ff" stroke="#d376ff" points="404.998,-96.3972 401.025,-88.9104 399.462,-97.241 404.998,-96.3972"/>
</a>
</g>
<!-- HIVEP1&#45;&gt;OTP_PHOX2B_LHX1_LMX1A_LHX5_HOXC4 -->
<g id="edge52" class="edge"><title>HIVEP1&#45;&gt;OTP_PHOX2B_LHX1_LMX1A_LHX5_HOXC4</title>
<a xlink:title="LHX5: 0.057||remove11">
<path fill="none" stroke="#ebc3ff" stroke-width="3" d="M296.458,-393.755C263.436,-336.559 162.329,-161.436 124.493,-95.9021"/>
<polygon fill="#ebc3ff" stroke="#ebc3ff" points="126.833,-94.3547 120.408,-88.8265 121.983,-97.1548 126.833,-94.3547"/>
</a>
</g>
<!-- WT1_MTF1_ZBTB7B&#45;&gt;TFEC_MITF_ARNTL_BHLHE41 -->
<g id="edge54" class="edge"><title>WT1_MTF1_ZBTB7B&#45;&gt;TFEC_MITF_ARNTL_BHLHE41</title>
<a xlink:title="MITF: 0.023||remove6root">
<path fill="none" stroke="#edc8ff" stroke-width="3" d="M256.988,-396.365C263.305,-394.613 269.655,-392.869 275.732,-391.225 289.993,-387.367 305.209,-383.339 319.901,-379.496"/>
<polygon fill="#edc8ff" stroke="#edc8ff" points="320.967,-382.111 328,-377.382 319.552,-376.693 320.967,-382.111"/>
</a>
</g>
<!-- WT1_MTF1_ZBTB7B&#45;&gt;HIVEP1 -->
<g id="edge56" class="edge"><title>WT1_MTF1_ZBTB7B&#45;&gt;HIVEP1</title>
<a xlink:title="HIVEP1: 0.227||remove11">
<path fill="none" stroke="#e3a8ff" stroke-width="3" d="M256.726,-412.105C261.905,-412.105 267.053,-412.105 271.968,-412.105"/>
<polygon fill="#e3a8ff" stroke="#e3a8ff" points="271.986,-414.905 279.986,-412.105 271.986,-409.305 271.986,-414.905"/>
</a>
</g>
<!-- WT1_MTF1_ZBTB7B&#45;&gt;WT1_MTF1_ZBTB7B -->
<g id="edge58" class="edge"><title>WT1_MTF1_ZBTB7B&#45;&gt;WT1_MTF1_ZBTB7B</title>
<a xlink:title="ZBTB7B: 0.057||WT1: 0.024||remove20root">
<path fill="none" stroke="#ebc3ff" stroke-width="3" d="M256.84,-418.508C267.174,-417.72 274.452,-415.585 274.452,-412.105 274.452,-409.657 270.854,-407.876 265.125,-406.759"/>
<polygon fill="#ebc3ff" stroke="#ebc3ff" points="265.13,-403.937 256.84,-405.701 264.42,-409.492 265.13,-403.937"/>
</a>
</g>
<!-- WT1_MTF1_ZBTB7B&#45;&gt;KLF7 -->
<g id="edge60" class="edge"><title>WT1_MTF1_ZBTB7B&#45;&gt;KLF7</title>
<a xlink:title="KLF7: 0.063||remove14">
<path fill="none" stroke="#ebc2ff" stroke-width="3" d="M170.235,-394.081C161.827,-389.227 152.688,-383.951 144.13,-379.009"/>
<polygon fill="#ebc2ff" stroke="#ebc2ff" points="145.434,-376.529 137.106,-374.954 142.634,-381.379 145.434,-376.529"/>
</a>
</g>
<!-- WT1_MTF1_ZBTB7B&#45;&gt;OTP_PHOX2B_LHX1_LMX1A_LHX5_HOXC4 -->
<g id="edge62" class="edge"><title>WT1_MTF1_ZBTB7B&#45;&gt;OTP_PHOX2B_LHX1_LMX1A_LHX5_HOXC4</title>
<a xlink:title="OTP: 0.040||LMX1A: 0.038||LHX1: 0.034||HOXC4: 0.033||remove10root">
<path fill="none" stroke="#ecc5ff" stroke-width="3" d="M196.535,-393.755C181.272,-336.791 134.666,-162.855 116.941,-96.7051"/>
<polygon fill="#ecc5ff" stroke="#ecc5ff" points="119.605,-95.8292 114.83,-88.8265 114.196,-97.2787 119.605,-95.8292"/>
</a>
</g>
<!-- WT1_MTF1_ZBTB7B&#45;&gt;BACH1_NFE2_NFE2L2 -->
<g id="edge64" class="edge"><title>WT1_MTF1_ZBTB7B&#45;&gt;BACH1_NFE2_NFE2L2</title>
<a xlink:title="NFE2L2: 0.008||NFE2: 0.001||remove1root">
<path fill="none" stroke="#eecaff" stroke-width="3" d="M202.967,-393.993C206.153,-356.598 213.997,-268.152 222.932,-194.172 228.45,-148.488 234.332,-137.58 237.6,-91.68 238.918,-73.1669 245.231,-66.8387 237.6,-49.92 236.464,-47.4015 235.02,-45.0019 233.367,-42.7324"/>
<polygon fill="#eecaff" stroke="#eecaff" points="235.208,-40.578 227.877,-36.3253 230.956,-44.222 235.208,-40.578"/>
</a>
</g>
<!-- WT1_MTF1_ZBTB7B&#45;&gt;TGIF1 -->
<g id="edge66" class="edge"><title>WT1_MTF1_ZBTB7B&#45;&gt;TGIF1</title>
<a xlink:title="TGIF1: 0.008||remove2root">
<path fill="none" stroke="#eecaff" stroke-width="3" d="M201.143,-393.921C200.952,-356.024 202.872,-266.135 222.932,-194.172 238.755,-137.412 271.882,-76.4963 291.513,-43.2459"/>
<polygon fill="#eecaff" stroke="#eecaff" points="294.028,-44.4951 295.722,-36.1902 289.219,-41.626 294.028,-44.4951"/>
</a>
</g>
<!-- WT1_MTF1_ZBTB7B&#45;&gt;FOXK1_FOXP2_FOXB1_FOXP3 -->
<g id="edge68" class="edge"><title>WT1_MTF1_ZBTB7B&#45;&gt;FOXK1_FOXP2_FOXB1_FOXP3</title>
<a xlink:title="FOXB1: 0.027||remove7root">
<path fill="none" stroke="#edc7ff" stroke-width="3" d="M212.047,-393.755C245.069,-336.559 346.176,-161.436 384.012,-95.9021"/>
<polygon fill="#edc7ff" stroke="#edc7ff" points="386.522,-97.1548 388.097,-88.8265 381.672,-94.3547 386.522,-97.1548"/>
</a>
</g>
<!-- ELF3_EHF&#45;&gt;ELF3_EHF -->
<g id="edge28" class="edge"><title>ELF3_EHF&#45;&gt;ELF3_EHF</title>
<a xlink:title="EHF: 0.082||remove18">
<path fill="none" stroke="#eabfff" stroke-width="3" d="M89.9005,-168.987C99.6296,-168.786 107.2,-166.541 107.2,-162.252 107.2,-159.304 103.622,-157.321 98.2239,-156.304"/>
<polygon fill="#eabfff" stroke="#eabfff" points="98.1286,-153.483 89.9005,-155.517 97.6012,-159.058 98.1286,-153.483"/>
</a>
</g>
<!-- ELF3_EHF&#45;&gt;BACH1_NFE2_NFE2L2 -->
<g id="edge30" class="edge"><title>ELF3_EHF&#45;&gt;BACH1_NFE2_NFE2L2</title>
<a xlink:title="NFE2L2: 0.019||remove3root">
<path fill="none" stroke="#edc9ff" stroke-width="3" d="M89.625,-160.167C131.89,-155.505 204.325,-140.428 237.6,-91.68 248.064,-76.3508 245.231,-66.8387 237.6,-49.92 236.464,-47.4015 235.02,-45.0019 233.367,-42.7324"/>
<polygon fill="#edc9ff" stroke="#edc9ff" points="235.208,-40.578 227.877,-36.3253 230.956,-44.222 235.208,-40.578"/>
</a>
</g>
<!-- OTP_PHOX2B_LHX1_LMX1A_LHX5_HOXC4&#45;&gt;TFEC_MITF_ARNTL_BHLHE41 -->
<g id="edge70" class="edge"><title>OTP_PHOX2B_LHX1_LMX1A_LHX5_HOXC4&#45;&gt;TFEC_MITF_ARNTL_BHLHE41</title>
<a xlink:title="MITF: 0.001||remove0root">
<path fill="none" stroke="#eecbff" stroke-width="3" d="M119.541,-88.9586C137.027,-121.117 176.689,-189.098 222.932,-235.932 264.035,-277.56 320.774,-314.539 358.501,-336.91"/>
<polygon fill="#eecbff" stroke="#eecbff" points="357.467,-339.549 365.783,-341.186 360.303,-334.72 357.467,-339.549"/>
</a>
</g>
<!-- BACH1_NFE2_NFE2L2&#45;&gt;TFEC_MITF_ARNTL_BHLHE41 -->
<g id="edge24" class="edge"><title>BACH1_NFE2_NFE2L2&#45;&gt;TFEC_MITF_ARNTL_BHLHE41</title>
<a xlink:title="MITF: 0.297||BACH1: 0.044||remove13">
<path fill="none" stroke="#df9dff" stroke-width="3" d="M231.245,-41.1894C233.796,-43.8124 236.2,-46.509 238.388,-49.3041 312.444,-144.095 368.371,-277.74 389.852,-333.251"/>
<path fill="none" stroke="#ecc5ff" stroke-width="3" d="M229.812,-42.5842C232.303,-45.1433 234.707,-47.8399 236.812,-50.5359 310.599,-144.867 366.526,-278.512 387.987,-333.972"/>
<polygon fill="#ecc5ff" stroke="#ecc5ff" points="232.198,-39.6059 224.499,-36.0595 228.306,-43.6326 232.198,-39.6059"/>
<polygon fill="#df9dff" stroke="#df9dff" points="386.357,-334.749 391.835,-341.217 391.586,-332.744 386.357,-334.749"/>
</a>
</g>
<!-- BACH1_NFE2_NFE2L2&#45;&gt;TGIF1 -->
<g id="edge26" class="edge"><title>BACH1_NFE2_NFE2L2&#45;&gt;TGIF1</title>
<a xlink:title="TGIF1: 0.098||remove19">
<path fill="none" stroke="#e9bcff" stroke-width="3" d="M262.574,-18C265.679,-18 268.744,-18 271.725,-18"/>
<polygon fill="#e9bcff" stroke="#e9bcff" points="271.868,-20.8001 279.868,-18 271.868,-15.2001 271.868,-20.8001"/>
</a>
</g>
<!-- TGIF1&#45;&gt;TFEC_MITF_ARNTL_BHLHE41 -->
<g id="edge48" class="edge"><title>TGIF1&#45;&gt;TFEC_MITF_ARNTL_BHLHE41</title>
<a xlink:title="MITF: 0.112||remove13">
<path fill="none" stroke="#e9baff" stroke-width="3" d="M304.682,-36.2964C303.193,-51.284 302.072,-72.9896 305.125,-91.68 320.229,-184.15 364.52,-287.111 386.228,-333.807"/>
<polygon fill="#e9baff" stroke="#e9baff" points="383.702,-335.017 389.634,-341.071 388.772,-332.639 383.702,-335.017"/>
</a>
</g>
<!-- TGIF1&#45;&gt;TGIF1 -->
<g id="edge50" class="edge"><title>TGIF1&#45;&gt;TGIF1</title>
<a xlink:title="TGIF1: 0.068||remove19">
<path fill="none" stroke="#ebc1ff" stroke-width="3" d="M334.293,-24.7434C344.076,-24.8884 352.052,-22.6406 352.052,-18 352.052,-14.7371 348.109,-12.6571 342.367,-11.7601"/>
<polygon fill="#ebc1ff" stroke="#ebc1ff" points="342.452,-8.96005 334.293,-11.2566 342.103,-14.5492 342.452,-8.96005"/>
</a>
</g>
<!-- FOXK1_FOXP2_FOXB1_FOXP3&#45;&gt;TFEC_MITF_ARNTL_BHLHE41 -->
<g id="edge32" class="edge"><title>FOXK1_FOXP2_FOXB1_FOXP3&#45;&gt;TFEC_MITF_ARNTL_BHLHE41</title>
<a xlink:title="MITF: 0.248||remove13">
<path fill="none" stroke="#e2a5ff" stroke-width="3" d="M392.461,-88.995C380.816,-126.545 357.577,-215.262 371.265,-288.732 374.16,-304.274 380.355,-320.803 386.107,-333.955"/>
<polygon fill="#e2a5ff" stroke="#e2a5ff" points="383.569,-335.138 389.414,-341.276 388.672,-332.833 383.569,-335.138"/>
</a>
</g>
<!-- FOXK1_FOXP2_FOXB1_FOXP3&#45;&gt;KLF7 -->
<g id="edge34" class="edge"><title>FOXK1_FOXP2_FOXB1_FOXP3&#45;&gt;KLF7</title>
<a xlink:title="KLF7: 0.031||remove8root">
<path fill="none" stroke="#edc7ff" stroke-width="3" d="M365.783,-88.9186C328.409,-110.655 266.775,-149.769 222.932,-194.172 179.94,-237.713 142.637,-299.532 123.553,-333.851"/>
<polygon fill="#edc7ff" stroke="#edc7ff" points="120.943,-332.787 119.541,-341.146 125.85,-335.485 120.943,-332.787"/>
</a>
</g>
<!-- FOXK1_FOXP2_FOXB1_FOXP3&#45;&gt;PBX1 -->
<g id="edge36" class="edge"><title>FOXK1_FOXP2_FOXB1_FOXP3&#45;&gt;PBX1</title>
<a xlink:title="PBX1: 0.021||remove4root">
<path fill="none" stroke="#edc8ff" stroke-width="3" d="M367.311,-88.8095C303.325,-125.752 157.671,-209.846 91.2956,-248.167"/>
<polygon fill="#edc8ff" stroke="#edc8ff" points="89.8918,-245.744 84.3636,-252.169 92.6918,-250.594 89.8918,-245.744"/>
</a>
</g>
<!-- FOXK1_FOXP2_FOXB1_FOXP3&#45;&gt;ELF3_EHF -->
<g id="edge38" class="edge"><title>FOXK1_FOXP2_FOXB1_FOXP3&#45;&gt;ELF3_EHF</title>
<a xlink:title="EHF: 0.262||remove18">
<path fill="none" stroke="#e1a2ff" stroke-width="3" d="M331.074,-88.868C261.495,-107.512 155.245,-135.981 97.676,-151.407"/>
<polygon fill="#e1a2ff" stroke="#e1a2ff" points="96.8873,-148.719 89.8846,-153.494 98.3367,-154.128 96.8873,-148.719"/>
</a>
</g>
<!-- FOXK1_FOXP2_FOXB1_FOXP3&#45;&gt;OTP_PHOX2B_LHX1_LMX1A_LHX5_HOXC4 -->
<g id="edge40" class="edge"><title>FOXK1_FOXP2_FOXB1_FOXP3&#45;&gt;OTP_PHOX2B_LHX1_LMX1A_LHX5_HOXC4</title>
<a xlink:title="OTP: 0.021||remove5root">
<path fill="none" stroke="#edc8ff" stroke-width="3" d="M318.14,-70.8C290.284,-70.8 258.445,-70.8 228.189,-70.8"/>
<polygon fill="#edc8ff" stroke="#edc8ff" points="228.119,-68.0001 220.119,-70.8 228.119,-73.6001 228.119,-68.0001"/>
</a>
</g>
<!-- FOXK1_FOXP2_FOXB1_FOXP3&#45;&gt;BACH1_NFE2_NFE2L2 -->
<g id="edge42" class="edge"><title>FOXK1_FOXP2_FOXB1_FOXP3&#45;&gt;BACH1_NFE2_NFE2L2</title>
<a xlink:title="NFE2: 0.037||NFE2L2: 0.036||BACH1: 0.006||remove9root">
<path fill="none" stroke="#ecc6ff" stroke-width="3" d="M328,-52.723C310.877,-48.2627 292.633,-43.452 275.732,-38.88 273.999,-38.411 272.243,-37.9339 270.472,-37.4508"/>
<polygon fill="#ecc6ff" stroke="#ecc6ff" points="271.089,-34.7168 262.634,-35.3008 269.608,-40.1173 271.089,-34.7168"/>
</a>
</g>
<!-- FOXK1_FOXP2_FOXB1_FOXP3&#45;&gt;TGIF1 -->
<g id="edge44" class="edge"><title>FOXK1_FOXP2_FOXB1_FOXP3&#45;&gt;TGIF1</title>
<a xlink:title="TGIF1: 0.110||remove19">
<path fill="none" stroke="#e9baff" stroke-width="3" d="M367.288,-52.7769C358.879,-47.9223 349.741,-42.6461 341.182,-37.7049"/>
<polygon fill="#e9baff" stroke="#e9baff" points="342.487,-35.2249 334.158,-33.6497 339.687,-40.0746 342.487,-35.2249"/>
</a>
</g>
<!-- FOXK1_FOXP2_FOXB1_FOXP3&#45;&gt;FOXK1_FOXP2_FOXB1_FOXP3 -->
<g id="edge46" class="edge"><title>FOXK1_FOXP2_FOXB1_FOXP3&#45;&gt;FOXK1_FOXP2_FOXB1_FOXP3</title>
<a xlink:title="FOXP2: 0.236||remove24">
<path fill="none" stroke="#e2a7ff" stroke-width="3" d="M478.864,-76.7524C489.47,-75.7373 496.505,-73.7531 496.505,-70.8 496.505,-68.6774 492.871,-67.0555 486.888,-65.9341"/>
<polygon fill="#e2a7ff" stroke="#e2a7ff" points="487.168,-63.1464 478.864,-64.8476 486.416,-68.6958 487.168,-63.1464"/>
</a>
</g>
<!-- NR2E3 -->
<g id="node47" class="node"><title>NR2E3</title>
<a xlink:href="NR2E3.svg" xlink:title="Z&#45;value: 0.465||remove25">
<polygon fill="#ffaeae" stroke="#ffaeae" stroke-width="2" points="269.252,-233.052 239.252,-233.052 227.252,-221.052 227.252,-209.052 239.252,-197.052 269.252,-197.052 281.252,-209.052 281.252,-221.052 269.252,-233.052"/>
<path fill="#ffaeae" stroke="#ffaeae" stroke-width="2" d="M239.252,-233.052C233.252,-233.052 227.252,-227.052 227.252,-221.052"/>
<path fill="#ffaeae" stroke="#ffaeae" stroke-width="2" d="M227.252,-209.052C227.252,-203.052 233.252,-197.052 239.252,-197.052"/>
<path fill="#ffaeae" stroke="#ffaeae" stroke-width="2" d="M269.252,-197.052C275.252,-197.052 281.252,-203.052 281.252,-209.052"/>
<path fill="#ffaeae" stroke="#ffaeae" stroke-width="2" d="M281.252,-221.052C281.252,-227.052 275.252,-233.052 269.252,-233.052"/>
<polyline fill="none" stroke="white" stroke-width="2" points="269.252,-233.052 239.252,-233.052 "/>
<path fill="none" stroke="white" stroke-width="2" d="M239.252,-233.052C233.252,-233.052 227.252,-227.052 227.252,-221.052"/>
<polyline fill="none" stroke="white" stroke-width="2" points="227.252,-221.052 227.252,-209.052 "/>
<path fill="none" stroke="white" stroke-width="2" d="M227.252,-209.052C227.252,-203.052 233.252,-197.052 239.252,-197.052"/>
<polyline fill="none" stroke="white" stroke-width="2" points="239.252,-197.052 269.252,-197.052 "/>
<path fill="none" stroke="white" stroke-width="2" d="M269.252,-197.052C275.252,-197.052 281.252,-203.052 281.252,-209.052"/>
<polyline fill="none" stroke="white" stroke-width="2" points="281.252,-209.052 281.252,-221.052 "/>
<path fill="none" stroke="white" stroke-width="2" d="M281.252,-221.052C281.252,-227.052 275.252,-233.052 269.252,-233.052"/>
<text text-anchor="middle" x="254.252" y="-212.552" font-family="Helvetica,sans-Serif" font-size="10.00">NR2E3</text>
</a>
</g>
<!-- NR2E3&#45;&gt;ZNF711_TFAP2A_TFAP2D -->
<g id="edge72" class="edge"><title>NR2E3&#45;&gt;ZNF711_TFAP2A_TFAP2D</title>
<a xlink:title="TFAP2D: 0.053||remove15root">
<path fill="none" stroke="#ffc3c3" stroke-width="3" d="M281.652,-222.394C306.029,-228.926 342.846,-238.791 375.959,-247.664"/>
<polygon fill="#ffc3c3" stroke="#ffc3c3" points="375.391,-250.41 383.844,-249.776 376.841,-245.001 375.391,-250.41"/>
</a>
</g>
<!-- NR2E3&#45;&gt;TFEC_MITF_ARNTL_BHLHE41 -->
<g id="edge74" class="edge"><title>NR2E3&#45;&gt;TFEC_MITF_ARNTL_BHLHE41</title>
<a xlink:title="MITF: 0.052||remove13root">
<path fill="none" stroke="#ffc3c3" stroke-width="3" d="M272.522,-233.322C298.427,-259.227 345.866,-306.666 374.56,-335.36"/>
<polygon fill="#ffc3c3" stroke="#ffc3c3" points="372.746,-337.506 380.383,-341.183 376.706,-333.546 372.746,-337.506"/>
</a>
</g>
<!-- NR2E3&#45;&gt;HIVEP1 -->
<g id="edge76" class="edge"><title>NR2E3&#45;&gt;HIVEP1</title>
<a xlink:title="HIVEP1: 0.043||remove11root">
<path fill="none" stroke="#ffc5c5" stroke-width="3" d="M259.125,-233.237C268.535,-268.357 289.237,-345.617 300.094,-386.138"/>
<polygon fill="#ffc5c5" stroke="#ffc5c5" points="297.416,-386.961 302.191,-393.964 302.825,-385.511 297.416,-386.961"/>
</a>
</g>
<!-- NR2E3&#45;&gt;WT1_MTF1_ZBTB7B -->
<g id="edge78" class="edge"><title>NR2E3&#45;&gt;WT1_MTF1_ZBTB7B</title>
<a xlink:title="WT1: 0.062||remove21root">
<path fill="none" stroke="#ffc2c2" stroke-width="3" d="M249.38,-233.237C239.969,-268.357 219.268,-345.617 208.41,-386.138"/>
<polygon fill="#ffc2c2" stroke="#ffc2c2" points="205.679,-385.511 206.313,-393.964 211.088,-386.961 205.679,-385.511"/>
</a>
</g>
<!-- NR2E3&#45;&gt;KLF7 -->
<g id="edge80" class="edge"><title>NR2E3&#45;&gt;KLF7</title>
<a xlink:title="KLF7: 0.052||remove14root">
<path fill="none" stroke="#ffc3c3" stroke-width="3" d="M235.983,-233.322C210.078,-259.227 162.638,-306.666 133.945,-335.36"/>
<polygon fill="#ffc3c3" stroke="#ffc3c3" points="131.798,-333.546 128.121,-341.183 135.758,-337.506 131.798,-333.546"/>
</a>
</g>
<!-- NR2E3&#45;&gt;PBX1 -->
<g id="edge82" class="edge"><title>NR2E3&#45;&gt;PBX1</title>
<a xlink:title="PBX1: 0.089||remove22root">
<path fill="none" stroke="#ffbebe" stroke-width="3" d="M226.853,-222.394C191.706,-231.812 130.701,-248.158 92.2189,-258.469"/>
<polygon fill="#ffbebe" stroke="#ffbebe" points="91.3693,-255.798 84.3666,-260.573 92.8187,-261.207 91.3693,-255.798"/>
</a>
</g>
<!-- NR2E3&#45;&gt;ELF3_EHF -->
<g id="edge84" class="edge"><title>NR2E3&#45;&gt;ELF3_EHF</title>
<a xlink:title="EHF: 0.056||remove18root">
<path fill="none" stroke="#ffc3c3" stroke-width="3" d="M226.853,-207.711C193.285,-198.716 136.132,-183.402 97.5395,-173.061"/>
<polygon fill="#ffc3c3" stroke="#ffc3c3" points="98.0533,-170.3 89.6012,-170.934 96.6039,-175.709 98.0533,-170.3"/>
</a>
</g>
<!-- NR2E3&#45;&gt;OTP_PHOX2B_LHX1_LMX1A_LHX5_HOXC4 -->
<g id="edge86" class="edge"><title>NR2E3&#45;&gt;OTP_PHOX2B_LHX1_LMX1A_LHX5_HOXC4</title>
<a xlink:title="PHOX2B: 0.053||remove16root">
<path fill="none" stroke="#ffc3c3" stroke-width="3" d="M235.983,-196.783C210.078,-170.878 162.638,-123.438 133.945,-94.7451"/>
<polygon fill="#ffc3c3" stroke="#ffc3c3" points="135.758,-92.5983 128.121,-88.9213 131.798,-96.5581 135.758,-92.5983"/>
</a>
</g>
<!-- NR2E3&#45;&gt;BACH1_NFE2_NFE2L2 -->
<g id="edge88" class="edge"><title>NR2E3&#45;&gt;BACH1_NFE2_NFE2L2</title>
<a xlink:title="NFE2L2: 0.092||remove23root">
<path fill="none" stroke="#ffbdbd" stroke-width="3" d="M256.535,-196.997C259.687,-165.29 262.456,-98.3756 237.6,-49.92 236.22,-47.2289 234.509,-44.6618 232.589,-42.2371"/>
<polygon fill="#ffbdbd" stroke="#ffbdbd" points="234.541,-40.2215 227.099,-36.1644 230.387,-43.9767 234.541,-40.2215"/>
</a>
</g>
<!-- NR2E3&#45;&gt;TGIF1 -->
<g id="edge92" class="edge"><title>NR2E3&#45;&gt;TGIF1</title>
<a xlink:title="TGIF1: 0.056||remove19root">
<path fill="none" stroke="#ffc3c3" stroke-width="3" d="M259.125,-196.867C268.535,-161.748 289.237,-84.4881 300.094,-43.967"/>
<polygon fill="#ffc3c3" stroke="#ffc3c3" points="302.825,-44.5932 302.191,-36.141 297.416,-43.1437 302.825,-44.5932"/>
</a>
</g>
<!-- NR2E3&#45;&gt;FOXK1_FOXP2_FOXB1_FOXP3 -->
<g id="edge94" class="edge"><title>NR2E3&#45;&gt;FOXK1_FOXP2_FOXB1_FOXP3</title>
<a xlink:title="FOXP2: 0.218||remove24root">
<path fill="none" stroke="#ffa9a9" stroke-width="3" d="M272.522,-196.783C298.427,-170.878 345.866,-123.438 374.56,-94.7451"/>
<polygon fill="#ffa9a9" stroke="#ffa9a9" points="376.706,-96.5581 380.383,-88.9213 372.746,-92.5983 376.706,-96.5581"/>
</a>
</g>
<!-- TP63 -->
<g id="node57" class="node"><title>TP63</title>
<a xlink:href="TP63.svg" xlink:title="Z&#45;value: 0.463||remove17">
<polygon fill="#aeb6ff" stroke="#aeb6ff" stroke-width="2" points="466.305,-180.252 436.305,-180.252 424.305,-168.252 424.305,-156.252 436.305,-144.252 466.305,-144.252 478.305,-156.252 478.305,-168.252 466.305,-180.252"/>
<path fill="#aeb6ff" stroke="#aeb6ff" stroke-width="2" d="M436.305,-180.252C430.305,-180.252 424.305,-174.252 424.305,-168.252"/>
<path fill="#aeb6ff" stroke="#aeb6ff" stroke-width="2" d="M424.305,-156.252C424.305,-150.252 430.305,-144.252 436.305,-144.252"/>
<path fill="#aeb6ff" stroke="#aeb6ff" stroke-width="2" d="M466.305,-144.252C472.305,-144.252 478.305,-150.252 478.305,-156.252"/>
<path fill="#aeb6ff" stroke="#aeb6ff" stroke-width="2" d="M478.305,-168.252C478.305,-174.252 472.305,-180.252 466.305,-180.252"/>
<polyline fill="none" stroke="white" stroke-width="2" points="466.305,-180.252 436.305,-180.252 "/>
<path fill="none" stroke="white" stroke-width="2" d="M436.305,-180.252C430.305,-180.252 424.305,-174.252 424.305,-168.252"/>
<polyline fill="none" stroke="white" stroke-width="2" points="424.305,-168.252 424.305,-156.252 "/>
<path fill="none" stroke="white" stroke-width="2" d="M424.305,-156.252C424.305,-150.252 430.305,-144.252 436.305,-144.252"/>
<polyline fill="none" stroke="white" stroke-width="2" points="436.305,-144.252 466.305,-144.252 "/>
<path fill="none" stroke="white" stroke-width="2" d="M466.305,-144.252C472.305,-144.252 478.305,-150.252 478.305,-156.252"/>
<polyline fill="none" stroke="white" stroke-width="2" points="478.305,-156.252 478.305,-168.252 "/>
<path fill="none" stroke="white" stroke-width="2" d="M478.305,-168.252C478.305,-174.252 472.305,-180.252 466.305,-180.252"/>
<text text-anchor="middle" x="451.305" y="-159.752" font-family="Helvetica,sans-Serif" font-size="10.00">TP63</text>
</a>
</g>
<!-- NR2E3&#45;&gt;TP63 -->
<g id="edge90" class="edge"><title>NR2E3&#45;&gt;TP63</title>
<a xlink:title="TP63: 0.054||remove17root">
<path fill="none" stroke="#ffc3c3" stroke-width="3" d="M281.652,-207.711C316.799,-198.293 377.804,-181.947 416.286,-171.636"/>
<polygon fill="#ffc3c3" stroke="#ffc3c3" points="417.135,-174.307 424.138,-169.532 415.686,-168.898 417.135,-174.307"/>
</a>
</g>
<!-- TP63&#45;&gt;TFEC_MITF_ARNTL_BHLHE41 -->
<g id="edge96" class="edge"><title>TP63&#45;&gt;TFEC_MITF_ARNTL_BHLHE41</title>
<a xlink:title="MITF: 0.050||remove12root">
<path fill="none" stroke="#ecc4ff" stroke-width="3" d="M425.717,-180.531C406.68,-195.826 382.181,-219.521 371.265,-246.972 359.872,-275.62 371.964,-310.34 383.456,-333.527"/>
<polygon fill="#ecc4ff" stroke="#ecc4ff" points="381.124,-335.112 387.296,-340.922 386.095,-332.532 381.124,-335.112"/>
</a>
</g>
</g>
</svg>
