<?xml version="1.0" ?><!DOCTYPE svg  PUBLIC '-//W3C//DTD SVG 1.1//EN'  'http://www.w3.org/Graphics/SVG/1.1/DTD/svg11.dtd'><!-- Generated by graphviz version 2.28.0 (20110630.0925)
 --><!-- Title: _anonymous_0 Pages: 1 --><svg height="416pt" onload="init(evt)" width="599pt" xmlns="http://www.w3.org/2000/svg" xmlns:ismara="ismara.unibas.ch" xmlns:xlink="http://www.w3.org/1999/xlink">
<g class="graph" id="graph1" transform="scale(1 1) rotate(0) translate(54 362.449)">

<polygon fill="white" points="-4,5 -4,-362.449 446.449,-362.449 446.449,5 -4,5" stroke="white"/>
<!-- RCOR1_MTA3 -->
<g class="node" id="node1">
<a class="remove14" onmousemove="ShowTooltip(evt, 'Z-value: 1.731')" onmouseout="HideTooltip(evt)" xlink:href="RCOR1_MTA3.svg">
<polygon fill="#3247ff" points="345.499,-79.2 286.999,-79.2 274.999,-67.2 274.999,-55.2 286.999,-43.2 345.499,-43.2 357.499,-55.2 357.499,-67.2 345.499,-79.2" stroke="#3247ff" stroke-width="2"/>
<path d="M286.999,-79.2C280.999,-79.2 274.999,-73.2 274.999,-67.2" fill="#3247ff" stroke="#3247ff" stroke-width="2"/>
<path d="M274.999,-55.2C274.999,-49.2 280.999,-43.2 286.999,-43.2" fill="#3247ff" stroke="#3247ff" stroke-width="2"/>
<path d="M345.499,-43.2C351.499,-43.2 357.499,-49.2 357.499,-55.2" fill="#3247ff" stroke="#3247ff" stroke-width="2"/>
<path d="M357.499,-67.2C357.499,-73.2 351.499,-79.2 345.499,-79.2" fill="#3247ff" stroke="#3247ff" stroke-width="2"/>
<polyline fill="none" points="345.499,-79.2 286.999,-79.2 " stroke="white" stroke-width="2"/>
<path d="M286.999,-79.2C280.999,-79.2 274.999,-73.2 274.999,-67.2" fill="none" stroke="white" stroke-width="2"/>
<polyline fill="none" points="274.999,-67.2 274.999,-55.2 " stroke="white" stroke-width="2"/>
<path d="M274.999,-55.2C274.999,-49.2 280.999,-43.2 286.999,-43.2" fill="none" stroke="white" stroke-width="2"/>
<polyline fill="none" points="286.999,-43.2 345.499,-43.2 " stroke="white" stroke-width="2"/>
<path d="M345.499,-43.2C351.499,-43.2 357.499,-49.2 357.499,-55.2" fill="none" stroke="white" stroke-width="2"/>
<polyline fill="none" points="357.499,-55.2 357.499,-67.2 " stroke="white" stroke-width="2"/>
<path d="M357.499,-67.2C357.499,-73.2 351.499,-79.2 345.499,-79.2" fill="none" stroke="white" stroke-width="2"/>
<text fill="white" font-family="Helvetica,sans-Serif" font-size="10.00" text-anchor="middle" x="316.249" y="-58.7">RCOR1_MTA3</text>
</a>
</g>
<!-- RCOR1_MTA3&#45;&gt;RCOR1_MTA3 -->
<g class="edge" id="edge2">
<a class="remove14" ismara:data="1.276" onmousemove="ShowTooltip(evt, 'RCOR1: 1.276')" onmouseout="HideTooltip(evt)">
<path d="M357.954,-67.8445C368.157,-67.3523 375.749,-65.1375 375.749,-61.2 375.749,-58.4314 371.996,-56.5145 366.22,-55.4493" fill="none" stroke="#bd32ff" stroke-width="3"/>
<polygon fill="#bd32ff" points="366.209,-52.6318 357.954,-54.5555 365.607,-58.1994 366.209,-52.6318" stroke="#bd32ff"/>
</a>
</g>
<!-- IRF2_STAT2_IRF8_IRF1 -->
<g class="node" id="node3">
<a class="remove20" onmousemove="ShowTooltip(evt, 'Z-value: 0.544')" onmouseout="HideTooltip(evt)" xlink:href="IRF2_STAT2_IRF8_IRF1.svg">
<polygon fill="#9ba5ff" points="411.449,-240.425 307.449,-240.425 295.449,-228.425 295.449,-216.425 307.449,-204.425 411.449,-204.425 423.449,-216.425 423.449,-228.425 411.449,-240.425" stroke="#9ba5ff" stroke-width="2"/>
<path d="M307.449,-240.425C301.449,-240.425 295.449,-234.425 295.449,-228.425" fill="#9ba5ff" stroke="#9ba5ff" stroke-width="2"/>
<path d="M295.449,-216.425C295.449,-210.425 301.449,-204.425 307.449,-204.425" fill="#9ba5ff" stroke="#9ba5ff" stroke-width="2"/>
<path d="M411.449,-204.425C417.449,-204.425 423.449,-210.425 423.449,-216.425" fill="#9ba5ff" stroke="#9ba5ff" stroke-width="2"/>
<path d="M423.449,-228.425C423.449,-234.425 417.449,-240.425 411.449,-240.425" fill="#9ba5ff" stroke="#9ba5ff" stroke-width="2"/>
<polyline fill="none" points="411.449,-240.425 307.449,-240.425 " stroke="white" stroke-width="2"/>
<path d="M307.449,-240.425C301.449,-240.425 295.449,-234.425 295.449,-228.425" fill="none" stroke="white" stroke-width="2"/>
<polyline fill="none" points="295.449,-228.425 295.449,-216.425 " stroke="white" stroke-width="2"/>
<path d="M295.449,-216.425C295.449,-210.425 301.449,-204.425 307.449,-204.425" fill="none" stroke="white" stroke-width="2"/>
<polyline fill="none" points="307.449,-204.425 411.449,-204.425 " stroke="white" stroke-width="2"/>
<path d="M411.449,-204.425C417.449,-204.425 423.449,-210.425 423.449,-216.425" fill="none" stroke="white" stroke-width="2"/>
<polyline fill="none" points="423.449,-216.425 423.449,-228.425 " stroke="white" stroke-width="2"/>
<path d="M423.449,-228.425C423.449,-234.425 417.449,-240.425 411.449,-240.425" fill="none" stroke="white" stroke-width="2"/>
<text font-family="Helvetica,sans-Serif" font-size="10.00" text-anchor="middle" x="359.449" y="-219.925">IRF2_STAT2_IRF8_IRF1</text>
</a>
</g>
<!-- RCOR1_MTA3&#45;&gt;IRF2_STAT2_IRF8_IRF1 -->
<g class="edge" id="edge4">
<a class="remove14" ismara:data="0.889" onmousemove="ShowTooltip(evt, 'STAT2: 0.889|IRF8: 0.554|IRF1: 0.436')" onmouseout="HideTooltip(evt)">
<path d="M316.779,-79.5445C317.744,-99.0746 320.464,-130.712 328.129,-156.905 332.167,-170.702 338.821,-185.206 344.96,-197.051" fill="none" stroke="#cc61ff" stroke-width="3"/>
<polygon fill="#cc61ff" points="342.653,-198.675 348.887,-204.417 347.594,-196.04 342.653,-198.675" stroke="#cc61ff"/>
</a>
</g>
<!-- OLIG3_NEUROD2_NEUROG2 -->
<g class="node" id="node5">
<a class="remove22" onmousemove="ShowTooltip(evt, 'Z-value: 0.743')" onmouseout="HideTooltip(evt)" xlink:href="OLIG3_NEUROD2_NEUROG2.svg">
<polygon fill="#8a95ff" points="381.499,-315.249 250.999,-315.249 238.999,-303.249 238.999,-291.249 250.999,-279.249 381.499,-279.249 393.499,-291.249 393.499,-303.249 381.499,-315.249" stroke="#8a95ff" stroke-width="2"/>
<path d="M250.999,-315.249C244.999,-315.249 238.999,-309.249 238.999,-303.249" fill="#8a95ff" stroke="#8a95ff" stroke-width="2"/>
<path d="M238.999,-291.249C238.999,-285.249 244.999,-279.249 250.999,-279.249" fill="#8a95ff" stroke="#8a95ff" stroke-width="2"/>
<path d="M381.499,-279.249C387.499,-279.249 393.499,-285.249 393.499,-291.249" fill="#8a95ff" stroke="#8a95ff" stroke-width="2"/>
<path d="M393.499,-303.249C393.499,-309.249 387.499,-315.249 381.499,-315.249" fill="#8a95ff" stroke="#8a95ff" stroke-width="2"/>
<polyline fill="none" points="381.499,-315.249 250.999,-315.249 " stroke="white" stroke-width="2"/>
<path d="M250.999,-315.249C244.999,-315.249 238.999,-309.249 238.999,-303.249" fill="none" stroke="white" stroke-width="2"/>
<polyline fill="none" points="238.999,-303.249 238.999,-291.249 " stroke="white" stroke-width="2"/>
<path d="M238.999,-291.249C238.999,-285.249 244.999,-279.249 250.999,-279.249" fill="none" stroke="white" stroke-width="2"/>
<polyline fill="none" points="250.999,-279.249 381.499,-279.249 " stroke="white" stroke-width="2"/>
<path d="M381.499,-279.249C387.499,-279.249 393.499,-285.249 393.499,-291.249" fill="none" stroke="white" stroke-width="2"/>
<polyline fill="none" points="393.499,-291.249 393.499,-303.249 " stroke="white" stroke-width="2"/>
<path d="M393.499,-303.249C393.499,-309.249 387.499,-315.249 381.499,-315.249" fill="none" stroke="white" stroke-width="2"/>
<text font-family="Helvetica,sans-Serif" font-size="10.00" text-anchor="middle" x="316.249" y="-294.749">OLIG3_NEUROD2_NEUROG2</text>
</a>
</g>
<!-- RCOR1_MTA3&#45;&gt;OLIG3_NEUROD2_NEUROG2 -->
<g class="edge" id="edge6">
<a class="remove14" ismara:data="0.545" onmousemove="ShowTooltip(evt, 'OLIG3: 0.545|NEUROG2: 0.459')" onmouseout="HideTooltip(evt)">
<path d="M308.096,-79.2714C294.328,-112.26 269.439,-184.279 285.209,-243.305 287.867,-253.254 292.849,-263.273 298.055,-271.93" fill="none" stroke="#d98aff" stroke-width="3"/>
<polygon fill="#d98aff" points="295.791,-273.588 302.435,-278.85 300.523,-270.593 295.791,-273.588" stroke="#d98aff"/>
</a>
</g>
<!-- PAX8 -->
<g class="node" id="node7">
<a class="remove18" onmousemove="ShowTooltip(evt, 'Z-value: 0.427')" onmouseout="HideTooltip(evt)" xlink:href="PAX8.svg">
<polygon fill="#a6afff" points="256.425,-358.449 226.425,-358.449 214.425,-346.449 214.425,-334.449 226.425,-322.449 256.425,-322.449 268.425,-334.449 268.425,-346.449 256.425,-358.449" stroke="#a6afff" stroke-width="2"/>
<path d="M226.425,-358.449C220.425,-358.449 214.425,-352.449 214.425,-346.449" fill="#a6afff" stroke="#a6afff" stroke-width="2"/>
<path d="M214.425,-334.449C214.425,-328.449 220.425,-322.449 226.425,-322.449" fill="#a6afff" stroke="#a6afff" stroke-width="2"/>
<path d="M256.425,-322.449C262.425,-322.449 268.425,-328.449 268.425,-334.449" fill="#a6afff" stroke="#a6afff" stroke-width="2"/>
<path d="M268.425,-346.449C268.425,-352.449 262.425,-358.449 256.425,-358.449" fill="#a6afff" stroke="#a6afff" stroke-width="2"/>
<polyline fill="none" points="256.425,-358.449 226.425,-358.449 " stroke="white" stroke-width="2"/>
<path d="M226.425,-358.449C220.425,-358.449 214.425,-352.449 214.425,-346.449" fill="none" stroke="white" stroke-width="2"/>
<polyline fill="none" points="214.425,-346.449 214.425,-334.449 " stroke="white" stroke-width="2"/>
<path d="M214.425,-334.449C214.425,-328.449 220.425,-322.449 226.425,-322.449" fill="none" stroke="white" stroke-width="2"/>
<polyline fill="none" points="226.425,-322.449 256.425,-322.449 " stroke="white" stroke-width="2"/>
<path d="M256.425,-322.449C262.425,-322.449 268.425,-328.449 268.425,-334.449" fill="none" stroke="white" stroke-width="2"/>
<polyline fill="none" points="268.425,-334.449 268.425,-346.449 " stroke="white" stroke-width="2"/>
<path d="M268.425,-346.449C268.425,-352.449 262.425,-358.449 256.425,-358.449" fill="none" stroke="white" stroke-width="2"/>
<text font-family="Helvetica,sans-Serif" font-size="10.00" text-anchor="middle" x="241.425" y="-337.949">PAX8</text>
</a>
</g>
<!-- RCOR1_MTA3&#45;&gt;PAX8 -->
<g class="edge" id="edge8">
<a class="remove8 root" ismara:data="0.122" onmousemove="ShowTooltip(evt, 'PAX8: 0.122')" onmouseout="HideTooltip(evt)">
<path d="M305.701,-79.3982C285.456,-115.501 241.79,-199.361 226.349,-276.369 223.185,-292.15 221.424,-298.619 225.633,-314.401" fill="none" stroke="#e9bdff" stroke-width="3"/>
<polygon fill="#e9bdff" points="223.039,-315.504 228.003,-322.375 228.407,-313.908 223.039,-315.504" stroke="#e9bdff"/>
</a>
</g>
<!-- SPDEF -->
<g class="node" id="node9">
<a class="remove12" onmousemove="ShowTooltip(evt, 'Z-value: 0.814')" onmouseout="HideTooltip(evt)" xlink:href="SPDEF.svg">
<polygon fill="#8490ff" points="170.025,-358.449 140.025,-358.449 128.025,-346.449 128.025,-334.449 140.025,-322.449 170.025,-322.449 182.025,-334.449 182.025,-346.449 170.025,-358.449" stroke="#8490ff" stroke-width="2"/>
<path d="M140.025,-358.449C134.025,-358.449 128.025,-352.449 128.025,-346.449" fill="#8490ff" stroke="#8490ff" stroke-width="2"/>
<path d="M128.025,-334.449C128.025,-328.449 134.025,-322.449 140.025,-322.449" fill="#8490ff" stroke="#8490ff" stroke-width="2"/>
<path d="M170.025,-322.449C176.025,-322.449 182.025,-328.449 182.025,-334.449" fill="#8490ff" stroke="#8490ff" stroke-width="2"/>
<path d="M182.025,-346.449C182.025,-352.449 176.025,-358.449 170.025,-358.449" fill="#8490ff" stroke="#8490ff" stroke-width="2"/>
<polyline fill="none" points="170.025,-358.449 140.025,-358.449 " stroke="white" stroke-width="2"/>
<path d="M140.025,-358.449C134.025,-358.449 128.025,-352.449 128.025,-346.449" fill="none" stroke="white" stroke-width="2"/>
<polyline fill="none" points="128.025,-346.449 128.025,-334.449 " stroke="white" stroke-width="2"/>
<path d="M128.025,-334.449C128.025,-328.449 134.025,-322.449 140.025,-322.449" fill="none" stroke="white" stroke-width="2"/>
<polyline fill="none" points="140.025,-322.449 170.025,-322.449 " stroke="white" stroke-width="2"/>
<path d="M170.025,-322.449C176.025,-322.449 182.025,-328.449 182.025,-334.449" fill="none" stroke="white" stroke-width="2"/>
<polyline fill="none" points="182.025,-334.449 182.025,-346.449 " stroke="white" stroke-width="2"/>
<path d="M182.025,-346.449C182.025,-352.449 176.025,-358.449 170.025,-358.449" fill="none" stroke="white" stroke-width="2"/>
<text font-family="Helvetica,sans-Serif" font-size="10.00" text-anchor="middle" x="155.025" y="-337.949">SPDEF</text>
</a>
</g>
<!-- RCOR1_MTA3&#45;&gt;SPDEF -->
<g class="edge" id="edge10">
<a class="remove5 root" ismara:data="0.072" onmousemove="ShowTooltip(evt, 'SPDEF: 0.072')" onmouseout="HideTooltip(evt)">
<path d="M305.671,-79.5223C277.646,-128.063 201.449,-260.04 169.465,-315.438" fill="none" stroke="#ebc3ff" stroke-width="3"/>
<polygon fill="#ebc3ff" points="167.008,-314.094 165.432,-322.422 171.857,-316.894 167.008,-314.094" stroke="#ebc3ff"/>
</a>
</g>
<!-- YY1_YY2 -->
<g class="node" id="node11">
<a class="remove21" onmousemove="ShowTooltip(evt, 'Z-value: 1.199')" onmouseout="HideTooltip(evt)" xlink:href="YY1_YY2.svg">
<polygon fill="#6171ff" points="97.45,-315.249 62.95,-315.249 50.95,-303.249 50.95,-291.249 62.95,-279.249 97.45,-279.249 109.45,-291.249 109.45,-303.249 97.45,-315.249" stroke="#6171ff" stroke-width="2"/>
<path d="M62.95,-315.249C56.95,-315.249 50.95,-309.249 50.95,-303.249" fill="#6171ff" stroke="#6171ff" stroke-width="2"/>
<path d="M50.95,-291.249C50.95,-285.249 56.95,-279.249 62.95,-279.249" fill="#6171ff" stroke="#6171ff" stroke-width="2"/>
<path d="M97.45,-279.249C103.45,-279.249 109.45,-285.249 109.45,-291.249" fill="#6171ff" stroke="#6171ff" stroke-width="2"/>
<path d="M109.45,-303.249C109.45,-309.249 103.45,-315.249 97.45,-315.249" fill="#6171ff" stroke="#6171ff" stroke-width="2"/>
<polyline fill="none" points="97.45,-315.249 62.95,-315.249 " stroke="white" stroke-width="2"/>
<path d="M62.95,-315.249C56.95,-315.249 50.95,-309.249 50.95,-303.249" fill="none" stroke="white" stroke-width="2"/>
<polyline fill="none" points="50.95,-303.249 50.95,-291.249 " stroke="white" stroke-width="2"/>
<path d="M50.95,-291.249C50.95,-285.249 56.95,-279.249 62.95,-279.249" fill="none" stroke="white" stroke-width="2"/>
<polyline fill="none" points="62.95,-279.249 97.45,-279.249 " stroke="white" stroke-width="2"/>
<path d="M97.45,-279.249C103.45,-279.249 109.45,-285.249 109.45,-291.249" fill="none" stroke="white" stroke-width="2"/>
<polyline fill="none" points="109.45,-291.249 109.45,-303.249 " stroke="white" stroke-width="2"/>
<path d="M109.45,-303.249C109.45,-309.249 103.45,-315.249 97.45,-315.249" fill="none" stroke="white" stroke-width="2"/>
<text fill="white" font-family="Helvetica,sans-Serif" font-size="10.00" text-anchor="middle" x="80.2" y="-294.749">YY1_YY2</text>
</a>
</g>
<!-- RCOR1_MTA3&#45;&gt;YY1_YY2 -->
<g class="edge" id="edge12">
<a class="remove14" ismara:data="1.21" onmousemove="ShowTooltip(evt, 'YY1: 1.210|YY2: 0.159|MTA3: 0.039')" onmouseout="HideTooltip(evt)">
<path d="M272.322,-84.1956C240.57,-101.52 198.121,-127.926 167.618,-159.045 134.331,-192.907 107.446,-242.072 92.9351,-271.808" fill="none" stroke="#c03aff" stroke-width="3"/>
<path d="M271.364,-82.4399C239.514,-99.8214 197.065,-126.228 166.191,-157.644 132.576,-191.947 105.691,-241.112 91.1377,-270.931" fill="none" stroke="#edc7ff" stroke-width="3"/>
<polygon fill="#edc7ff" points="273.554,-85.5764 279.274,-79.321 270.902,-80.6444 273.554,-85.5764" stroke="#edc7ff"/>
<polygon fill="#c03aff" points="89.3771,-270.439 88.4407,-278.863 94.426,-272.862 89.3771,-270.439" stroke="#c03aff"/>
</a>
</g>
<!-- HBP1 -->
<g class="node" id="node13">
<a class="remove11" onmousemove="ShowTooltip(evt, 'Z-value: 0.641')" onmouseout="HideTooltip(evt)" xlink:href="HBP1.svg">
<polygon fill="#939eff" points="52,-240.425 22,-240.425 10,-228.425 10,-216.425 22,-204.425 52,-204.425 64,-216.425 64,-228.425 52,-240.425" stroke="#939eff" stroke-width="2"/>
<path d="M22,-240.425C16,-240.425 10,-234.425 10,-228.425" fill="#939eff" stroke="#939eff" stroke-width="2"/>
<path d="M10,-216.425C10,-210.425 16,-204.425 22,-204.425" fill="#939eff" stroke="#939eff" stroke-width="2"/>
<path d="M52,-204.425C58,-204.425 64,-210.425 64,-216.425" fill="#939eff" stroke="#939eff" stroke-width="2"/>
<path d="M64,-228.425C64,-234.425 58,-240.425 52,-240.425" fill="#939eff" stroke="#939eff" stroke-width="2"/>
<polyline fill="none" points="52,-240.425 22,-240.425 " stroke="white" stroke-width="2"/>
<path d="M22,-240.425C16,-240.425 10,-234.425 10,-228.425" fill="none" stroke="white" stroke-width="2"/>
<polyline fill="none" points="10,-228.425 10,-216.425 " stroke="white" stroke-width="2"/>
<path d="M10,-216.425C10,-210.425 16,-204.425 22,-204.425" fill="none" stroke="white" stroke-width="2"/>
<polyline fill="none" points="22,-204.425 52,-204.425 " stroke="white" stroke-width="2"/>
<path d="M52,-204.425C58,-204.425 64,-210.425 64,-216.425" fill="none" stroke="white" stroke-width="2"/>
<polyline fill="none" points="64,-216.425 64,-228.425 " stroke="white" stroke-width="2"/>
<path d="M64,-228.425C64,-234.425 58,-240.425 52,-240.425" fill="none" stroke="white" stroke-width="2"/>
<text font-family="Helvetica,sans-Serif" font-size="10.00" text-anchor="middle" x="37" y="-219.925">HBP1</text>
</a>
</g>
<!-- RCOR1_MTA3&#45;&gt;HBP1 -->
<g class="edge" id="edge14">
<a class="remove11" ismara:data="0.667" onmousemove="ShowTooltip(evt, 'HBP1: 0.667')" onmouseout="HideTooltip(evt)">
<path d="M285.029,-79.2252C232.316,-109.659 126.078,-170.995 71.336,-202.601" fill="none" stroke="#d57bff" stroke-width="3"/>
<polygon fill="#d57bff" points="69.8117,-200.248 64.2835,-206.672 72.6118,-205.097 69.8117,-200.248" stroke="#d57bff"/>
</a>
</g>
<!-- TBX15_MGA -->
<g class="node" id="node15">
<a class="remove19" onmousemove="ShowTooltip(evt, 'Z-value: 0.701')" onmouseout="HideTooltip(evt)" xlink:href="TBX15_MGA.svg">
<polygon fill="#8e99ff" points="62,-154.025 12,-154.025 0,-142.025 0,-130.025 12,-118.025 62,-118.025 74,-130.025 74,-142.025 62,-154.025" stroke="#8e99ff" stroke-width="2"/>
<path d="M12,-154.025C6,-154.025 0,-148.025 0,-142.025" fill="#8e99ff" stroke="#8e99ff" stroke-width="2"/>
<path d="M0,-130.025C0,-124.025 6,-118.025 12,-118.025" fill="#8e99ff" stroke="#8e99ff" stroke-width="2"/>
<path d="M62,-118.025C68,-118.025 74,-124.025 74,-130.025" fill="#8e99ff" stroke="#8e99ff" stroke-width="2"/>
<path d="M74,-142.025C74,-148.025 68,-154.025 62,-154.025" fill="#8e99ff" stroke="#8e99ff" stroke-width="2"/>
<polyline fill="none" points="62,-154.025 12,-154.025 " stroke="white" stroke-width="2"/>
<path d="M12,-154.025C6,-154.025 0,-148.025 0,-142.025" fill="none" stroke="white" stroke-width="2"/>
<polyline fill="none" points="0,-142.025 0,-130.025 " stroke="white" stroke-width="2"/>
<path d="M0,-130.025C0,-124.025 6,-118.025 12,-118.025" fill="none" stroke="white" stroke-width="2"/>
<polyline fill="none" points="12,-118.025 62,-118.025 " stroke="white" stroke-width="2"/>
<path d="M62,-118.025C68,-118.025 74,-124.025 74,-130.025" fill="none" stroke="white" stroke-width="2"/>
<polyline fill="none" points="74,-130.025 74,-142.025 " stroke="white" stroke-width="2"/>
<path d="M74,-142.025C74,-148.025 68,-154.025 62,-154.025" fill="none" stroke="white" stroke-width="2"/>
<text font-family="Helvetica,sans-Serif" font-size="10.00" text-anchor="middle" x="37" y="-133.525">TBX15_MGA</text>
</a>
</g>
<!-- RCOR1_MTA3&#45;&gt;TBX15_MGA -->
<g class="edge" id="edge16">
<a class="remove14" ismara:data="0.443" onmousemove="ShowTooltip(evt, 'TBX15: 0.443')" onmouseout="HideTooltip(evt)">
<path d="M274.744,-72.3212C223.152,-86.1452 135.42,-109.653 82.1781,-123.919" fill="none" stroke="#dd96ff" stroke-width="3"/>
<polygon fill="#dd96ff" points="81.2636,-121.265 74.2609,-126.041 82.713,-126.675 81.2636,-121.265" stroke="#dd96ff"/>
</a>
</g>
<!-- MAX_TFEB -->
<g class="node" id="node17">
<a class="remove17" onmousemove="ShowTooltip(evt, 'Z-value: 0.715')" onmouseout="HideTooltip(evt)" xlink:href="MAX_TFEB.svg">
<polygon fill="#8c98ff" points="102.45,-79.2 57.95,-79.2 45.95,-67.2 45.95,-55.2 57.95,-43.2 102.45,-43.2 114.45,-55.2 114.45,-67.2 102.45,-79.2" stroke="#8c98ff" stroke-width="2"/>
<path d="M57.95,-79.2C51.95,-79.2 45.95,-73.2 45.95,-67.2" fill="#8c98ff" stroke="#8c98ff" stroke-width="2"/>
<path d="M45.95,-55.2C45.95,-49.2 51.95,-43.2 57.95,-43.2" fill="#8c98ff" stroke="#8c98ff" stroke-width="2"/>
<path d="M102.45,-43.2C108.45,-43.2 114.45,-49.2 114.45,-55.2" fill="#8c98ff" stroke="#8c98ff" stroke-width="2"/>
<path d="M114.45,-67.2C114.45,-73.2 108.45,-79.2 102.45,-79.2" fill="#8c98ff" stroke="#8c98ff" stroke-width="2"/>
<polyline fill="none" points="102.45,-79.2 57.95,-79.2 " stroke="white" stroke-width="2"/>
<path d="M57.95,-79.2C51.95,-79.2 45.95,-73.2 45.95,-67.2" fill="none" stroke="white" stroke-width="2"/>
<polyline fill="none" points="45.95,-67.2 45.95,-55.2 " stroke="white" stroke-width="2"/>
<path d="M45.95,-55.2C45.95,-49.2 51.95,-43.2 57.95,-43.2" fill="none" stroke="white" stroke-width="2"/>
<polyline fill="none" points="57.95,-43.2 102.45,-43.2 " stroke="white" stroke-width="2"/>
<path d="M102.45,-43.2C108.45,-43.2 114.45,-49.2 114.45,-55.2" fill="none" stroke="white" stroke-width="2"/>
<polyline fill="none" points="114.45,-55.2 114.45,-67.2 " stroke="white" stroke-width="2"/>
<path d="M114.45,-67.2C114.45,-73.2 108.45,-79.2 102.45,-79.2" fill="none" stroke="white" stroke-width="2"/>
<text font-family="Helvetica,sans-Serif" font-size="10.00" text-anchor="middle" x="80.2" y="-58.7">MAX_TFEB</text>
</a>
</g>
<!-- RCOR1_MTA3&#45;&gt;MAX_TFEB -->
<g class="edge" id="edge18">
<a class="remove9 root" ismara:data="0.137" onmousemove="ShowTooltip(evt, 'TFEB: 0.137|MAX: 0.058')" onmouseout="HideTooltip(evt)">
<path d="M274.862,-61.2C232.256,-61.2 166.175,-61.2 123.043,-61.2" fill="none" stroke="#e9bbff" stroke-width="3"/>
<polygon fill="#e9bbff" points="123.002,-58.4001 115.002,-61.2 123.002,-64.0001 123.002,-58.4001" stroke="#e9bbff"/>
</a>
</g>
<!-- NR2E1 -->
<g class="node" id="node19">
<a class="remove13" onmousemove="ShowTooltip(evt, 'Z-value: 0.528')" onmouseout="HideTooltip(evt)" xlink:href="NR2E1.svg">
<polygon fill="#9da7ff" points="170.025,-36 140.025,-36 128.025,-24 128.025,-12 140.025,-6.39488e-14 170.025,-6.39488e-14 182.025,-12 182.025,-24 170.025,-36" stroke="#9da7ff" stroke-width="2"/>
<path d="M140.025,-36C134.025,-36 128.025,-30 128.025,-24" fill="#9da7ff" stroke="#9da7ff" stroke-width="2"/>
<path d="M128.025,-12C128.025,-6 134.025,-6.39488e-14 140.025,-6.39488e-14" fill="#9da7ff" stroke="#9da7ff" stroke-width="2"/>
<path d="M170.025,-6.39488e-14C176.025,-6.39488e-14 182.025,-6 182.025,-12" fill="#9da7ff" stroke="#9da7ff" stroke-width="2"/>
<path d="M182.025,-24C182.025,-30 176.025,-36 170.025,-36" fill="#9da7ff" stroke="#9da7ff" stroke-width="2"/>
<polyline fill="none" points="170.025,-36 140.025,-36 " stroke="white" stroke-width="2"/>
<path d="M140.025,-36C134.025,-36 128.025,-30 128.025,-24" fill="none" stroke="white" stroke-width="2"/>
<polyline fill="none" points="128.025,-24 128.025,-12 " stroke="white" stroke-width="2"/>
<path d="M128.025,-12C128.025,-6 134.025,-6.39488e-14 140.025,-6.39488e-14" fill="none" stroke="white" stroke-width="2"/>
<polyline fill="none" points="140.025,-6.39488e-14 170.025,-6.39488e-14 " stroke="white" stroke-width="2"/>
<path d="M170.025,-6.39488e-14C176.025,-6.39488e-14 182.025,-6 182.025,-12" fill="none" stroke="white" stroke-width="2"/>
<polyline fill="none" points="182.025,-12 182.025,-24 " stroke="white" stroke-width="2"/>
<path d="M182.025,-24C182.025,-30 176.025,-36 170.025,-36" fill="none" stroke="white" stroke-width="2"/>
<text font-family="Helvetica,sans-Serif" font-size="10.00" text-anchor="middle" x="155.025" y="-15.5">NR2E1</text>
</a>
</g>
<!-- RCOR1_MTA3&#45;&gt;NR2E1 -->
<g class="edge" id="edge20">
<a class="remove13" ismara:data="0.478" onmousemove="ShowTooltip(evt, 'NR2E1: 0.478')" onmouseout="HideTooltip(evt)">
<path d="M274.799,-54.031C255.033,-50.2201 231.159,-45.0439 210.105,-38.88 203.474,-36.9387 196.506,-34.5678 189.842,-32.1292" fill="none" stroke="#dc92ff" stroke-width="3"/>
<polygon fill="#dc92ff" points="190.67,-29.4492 182.196,-29.2571 188.701,-34.6915 190.67,-29.4492" stroke="#dc92ff"/>
</a>
</g>
<!-- PAX5 -->
<g class="node" id="node21">
<a class="remove23" onmousemove="ShowTooltip(evt, 'Z-value: 1.037')" onmouseout="HideTooltip(evt)" xlink:href="PAX5.svg">
<polygon fill="#ff7070" points="213.225,-197.225 183.225,-197.225 171.225,-185.225 171.225,-173.225 183.225,-161.225 213.225,-161.225 225.225,-173.225 225.225,-185.225 213.225,-197.225" stroke="#ff7070" stroke-width="2"/>
<path d="M183.225,-197.225C177.225,-197.225 171.225,-191.225 171.225,-185.225" fill="#ff7070" stroke="#ff7070" stroke-width="2"/>
<path d="M171.225,-173.225C171.225,-167.225 177.225,-161.225 183.225,-161.225" fill="#ff7070" stroke="#ff7070" stroke-width="2"/>
<path d="M213.225,-161.225C219.225,-161.225 225.225,-167.225 225.225,-173.225" fill="#ff7070" stroke="#ff7070" stroke-width="2"/>
<path d="M225.225,-185.225C225.225,-191.225 219.225,-197.225 213.225,-197.225" fill="#ff7070" stroke="#ff7070" stroke-width="2"/>
<polyline fill="none" points="213.225,-197.225 183.225,-197.225 " stroke="white" stroke-width="2"/>
<path d="M183.225,-197.225C177.225,-197.225 171.225,-191.225 171.225,-185.225" fill="none" stroke="white" stroke-width="2"/>
<polyline fill="none" points="171.225,-185.225 171.225,-173.225 " stroke="white" stroke-width="2"/>
<path d="M171.225,-173.225C171.225,-167.225 177.225,-161.225 183.225,-161.225" fill="none" stroke="white" stroke-width="2"/>
<polyline fill="none" points="183.225,-161.225 213.225,-161.225 " stroke="white" stroke-width="2"/>
<path d="M213.225,-161.225C219.225,-161.225 225.225,-167.225 225.225,-173.225" fill="none" stroke="white" stroke-width="2"/>
<polyline fill="none" points="225.225,-173.225 225.225,-185.225 " stroke="white" stroke-width="2"/>
<path d="M225.225,-185.225C225.225,-191.225 219.225,-197.225 213.225,-197.225" fill="none" stroke="white" stroke-width="2"/>
<text fill="white" font-family="Helvetica,sans-Serif" font-size="10.00" text-anchor="middle" x="198.225" y="-176.725">PAX5</text>
</a>
</g>
<!-- RCOR1_MTA3&#45;&gt;PAX5 -->
<g class="edge" id="edge22">
<a class="remove14 root" ismara:data="0.228" onmousemove="ShowTooltip(evt, 'PAX5: 0.228|MTA3: 0.033')" onmouseout="HideTooltip(evt)">
<path d="M293.01,-85.8535C272.516,-106.348 243.168,-135.695 222.72,-156.144" fill="none" stroke="#b0b8ff" stroke-width="3"/>
<path d="M291.596,-84.4393C271.102,-104.933 241.754,-134.281 221.305,-154.73" fill="none" stroke="#ffc8c8" stroke-width="3"/>
<polygon fill="#ffc8c8" points="294.39,-87.0195 298.067,-79.3827 290.43,-83.0597 294.39,-87.0195" stroke="#ffc8c8"/>
<polygon fill="#b0b8ff" points="219.911,-153.578 216.234,-161.215 223.871,-157.538 219.911,-153.578" stroke="#b0b8ff"/>
</a>
</g>
<!-- IRF2_STAT2_IRF8_IRF1&#45;&gt;IRF2_STAT2_IRF8_IRF1 -->
<g class="edge" id="edge56">
<a class="remove1 root" ismara:data="0.013" onmousemove="ShowTooltip(evt, 'IRF2: 0.013')" onmouseout="HideTooltip(evt)">
<path d="M423.737,-228.67C434.235,-227.776 441.449,-225.694 441.449,-222.425 441.449,-220.075 437.722,-218.338 431.728,-217.215" fill="none" stroke="#eecaff" stroke-width="3"/>
<polygon fill="#eecaff" points="432.031,-214.431 423.737,-216.179 431.31,-219.985 432.031,-214.431" stroke="#eecaff"/>
</a>
</g>
<!-- OLIG3_NEUROD2_NEUROG2&#45;&gt;OLIG3_NEUROD2_NEUROG2 -->
<g class="edge" id="edge46">
<a class="remove0 root" ismara:data="0.004" onmousemove="ShowTooltip(evt, 'NEUROD2: 0.004')" onmouseout="HideTooltip(evt)">
<path d="M393.78,-303.237C404.267,-302.234 411.249,-300.237 411.249,-297.249 411.249,-295.101 407.642,-293.466 401.719,-292.343" fill="none" stroke="#eecbff" stroke-width="3"/>
<polygon fill="#eecbff" points="402.085,-289.567 393.78,-291.261 401.329,-295.116 402.085,-289.567" stroke="#eecbff"/>
</a>
</g>
<!-- OLIG3_NEUROD2_NEUROG2&#45;&gt;PAX8 -->
<g class="edge" id="edge48">
<a class="remove2 root" ismara:data="0.025" onmousemove="ShowTooltip(evt, 'PAX8: 0.025')" onmouseout="HideTooltip(evt)">
<path d="M284.95,-315.32C281.887,-317.088 278.767,-318.89 275.676,-320.674" fill="none" stroke="#edc9ff" stroke-width="3"/>
<polygon fill="#edc9ff" points="274.085,-318.359 268.557,-324.784 276.885,-323.209 274.085,-318.359" stroke="#edc9ff"/>
</a>
</g>
<!-- YY1_YY2&#45;&gt;OLIG3_NEUROD2_NEUROG2 -->
<g class="edge" id="edge44">
<a class="remove10 root" ismara:data="0.195" onmousemove="ShowTooltip(evt, 'NEUROG2: 0.195|OLIG3: 0.134')" onmouseout="HideTooltip(evt)">
<path d="M109.619,-297.249C139.864,-297.249 188.404,-297.249 230.84,-297.249" fill="none" stroke="#e7b4ff" stroke-width="3"/>
<polygon fill="#e7b4ff" points="230.962,-300.049 238.962,-297.249 230.962,-294.449 230.962,-300.049" stroke="#e7b4ff"/>
</a>
</g>
<!-- TBX15_MGA&#45;&gt;TBX15_MGA -->
<g class="edge" id="edge52">
<a class="remove7 root" ismara:data="0.096" onmousemove="ShowTooltip(evt, 'MGA: 0.096')" onmouseout="HideTooltip(evt)">
<path d="M74.0153,-142.733C84.2097,-142.409 92,-140.173 92,-136.025 92,-133.108 88.1486,-131.136 82.3181,-130.11" fill="none" stroke="#ebc0ff" stroke-width="3"/>
<polygon fill="#ebc0ff" points="82.2456,-127.29 74.0153,-129.316 81.7123,-132.865 82.2456,-127.29" stroke="#ebc0ff"/>
</a>
</g>
<!-- TBX15_MGA&#45;&gt;MAX_TFEB -->
<g class="edge" id="edge54">
<a class="remove6 root" ismara:data="0.095" onmousemove="ShowTooltip(evt, 'MAX: 0.095')" onmouseout="HideTooltip(evt)">
<path d="M47.4575,-117.912C52.8829,-108.515 59.5997,-96.8808 65.535,-86.6005" fill="none" stroke="#ebc0ff" stroke-width="3"/>
<polygon fill="#ebc0ff" points="68.1139,-87.7337 69.6891,-79.4055 63.2641,-84.9337 68.1139,-87.7337" stroke="#ebc0ff"/>
</a>
</g>
<!-- MAX_TFEB&#45;&gt;MAX_TFEB -->
<g class="edge" id="edge50">
<a class="remove4 root" ismara:data="0.07" onmousemove="ShowTooltip(evt, 'MAX: 0.070')" onmouseout="HideTooltip(evt)">
<path d="M114.704,-67.9236C124.583,-67.66 132.2,-65.4188 132.2,-61.2 132.2,-58.2337 128.434,-56.245 122.764,-55.2341" fill="none" stroke="#ecc3ff" stroke-width="3"/>
<polygon fill="#ecc3ff" points="122.931,-52.4375 114.704,-54.4764 122.407,-58.0129 122.931,-52.4375" stroke="#ecc3ff"/>
</a>
</g>
<!-- PAX5&#45;&gt;IRF2_STAT2_IRF8_IRF1 -->
<g class="edge" id="edge24">
<a class="remove20 root" ismara:data="0.29" onmousemove="ShowTooltip(evt, 'IRF8: 0.290|STAT2: 0.088')" onmouseout="HideTooltip(evt)">
<path d="M225.574,-186.553C242.692,-191.14 265.609,-197.28 287.639,-203.183" fill="none" stroke="#ffa9a9" stroke-width="3"/>
<polygon fill="#ffa9a9" points="286.931,-205.892 295.383,-205.258 288.381,-200.483 286.931,-205.892" stroke="#ffa9a9"/>
</a>
</g>
<!-- PAX5&#45;&gt;OLIG3_NEUROD2_NEUROG2 -->
<g class="edge" id="edge26">
<a class="remove22 root" ismara:data="0.36" onmousemove="ShowTooltip(evt, 'OLIG3: 0.360')" onmouseout="HideTooltip(evt)">
<path d="M216.407,-197.407C236.826,-217.826 270.037,-251.037 292.494,-273.494" fill="none" stroke="#ffa0a0" stroke-width="3"/>
<polygon fill="#ffa0a0" points="290.603,-275.563 298.24,-279.24 294.563,-271.603 290.603,-275.563" stroke="#ffa0a0"/>
</a>
</g>
<!-- PAX5&#45;&gt;PAX8 -->
<g class="edge" id="edge28">
<a class="remove18 root" ismara:data="0.267" onmousemove="ShowTooltip(evt, 'PAX8: 0.267')" onmouseout="HideTooltip(evt)">
<path d="M199.619,-197.43C202.061,-223.139 208.389,-271.398 225.286,-314.783" fill="none" stroke="#ffabab" stroke-width="3"/>
<polygon fill="#ffabab" points="222.718,-315.902 228.326,-322.258 227.906,-313.793 222.718,-315.902" stroke="#ffabab"/>
</a>
</g>
<!-- PAX5&#45;&gt;SPDEF -->
<g class="edge" id="edge30">
<a class="remove12 root" ismara:data="0.214" onmousemove="ShowTooltip(evt, 'SPDEF: 0.214')" onmouseout="HideTooltip(evt)">
<path d="M193.353,-197.406C185.704,-225.951 170.845,-281.407 162.044,-314.254" fill="none" stroke="#ffb2b2" stroke-width="3"/>
<polygon fill="#ffb2b2" points="159.311,-313.635 159.945,-322.087 164.72,-315.084 159.311,-313.635" stroke="#ffb2b2"/>
</a>
</g>
<!-- PAX5&#45;&gt;YY1_YY2 -->
<g class="edge" id="edge32">
<a class="remove21 root" ismara:data="0.294" onmousemove="ShowTooltip(evt, 'YY1: 0.294')" onmouseout="HideTooltip(evt)">
<path d="M180.042,-197.407C159.623,-217.826 126.412,-251.037 103.955,-273.494" fill="none" stroke="#ffa8a8" stroke-width="3"/>
<polygon fill="#ffa8a8" points="101.887,-271.603 98.2097,-279.24 105.846,-275.563 101.887,-271.603" stroke="#ffa8a8"/>
</a>
</g>
<!-- PAX5&#45;&gt;HBP1 -->
<g class="edge" id="edge34">
<a class="remove11 root" ismara:data="0.211" onmousemove="ShowTooltip(evt, 'HBP1: 0.211')" onmouseout="HideTooltip(evt)">
<path d="M170.875,-186.553C143.694,-193.836 101.888,-205.038 72.2338,-212.984" fill="none" stroke="#ffb2b2" stroke-width="3"/>
<polygon fill="#ffb2b2" points="71.2169,-210.357 64.2142,-215.133 72.6663,-215.767 71.2169,-210.357" stroke="#ffb2b2"/>
</a>
</g>
<!-- PAX5&#45;&gt;TBX15_MGA -->
<g class="edge" id="edge36">
<a class="remove19 root" ismara:data="0.286" onmousemove="ShowTooltip(evt, 'TBX15: 0.286|MGA: 0.197')" onmouseout="HideTooltip(evt)">
<path d="M170.875,-171.896C146.568,-165.383 110.566,-155.736 82.0167,-148.087" fill="none" stroke="#ffa9a9" stroke-width="3"/>
<polygon fill="#ffa9a9" points="82.6301,-145.352 74.178,-145.986 81.1806,-150.762 82.6301,-145.352" stroke="#ffa9a9"/>
</a>
</g>
<!-- PAX5&#45;&gt;MAX_TFEB -->
<g class="edge" id="edge38">
<a class="remove17 root" ismara:data="0.266" onmousemove="ShowTooltip(evt, 'TFEB: 0.266')" onmouseout="HideTooltip(evt)">
<path d="M180.042,-161.042C159.623,-140.623 126.412,-107.412 103.955,-84.9555" fill="none" stroke="#ffacac" stroke-width="3"/>
<polygon fill="#ffacac" points="105.846,-82.8866 98.2097,-79.2097 101.887,-86.8465 105.846,-82.8866" stroke="#ffacac"/>
</a>
</g>
<!-- PAX5&#45;&gt;NR2E1 -->
<g class="edge" id="edge40">
<a class="remove13 root" ismara:data="0.217" onmousemove="ShowTooltip(evt, 'NR2E1: 0.217')" onmouseout="HideTooltip(evt)">
<path d="M193.353,-161.043C185.704,-132.498 170.845,-77.042 162.044,-44.1955" fill="none" stroke="#ffb1b1" stroke-width="3"/>
<polygon fill="#ffb1b1" points="164.72,-43.3647 159.945,-36.362 159.311,-44.8142 164.72,-43.3647" stroke="#ffb1b1"/>
</a>
</g>
<!-- TBX3 -->
<g class="node" id="node32">
<a class="remove16" onmousemove="ShowTooltip(evt, 'Z-value: 0.558')" onmouseout="HideTooltip(evt)" xlink:href="TBX3.svg">
<polygon fill="#9aa4ff" points="256.425,-36 226.425,-36 214.425,-24 214.425,-12 226.425,-0 256.425,-0 268.425,-12 268.425,-24 256.425,-36" stroke="#9aa4ff" stroke-width="2"/>
<path d="M226.425,-36C220.425,-36 214.425,-30 214.425,-24" fill="#9aa4ff" stroke="#9aa4ff" stroke-width="2"/>
<path d="M214.425,-12C214.425,-6 220.425,-0 226.425,-0" fill="#9aa4ff" stroke="#9aa4ff" stroke-width="2"/>
<path d="M256.425,-0C262.425,-0 268.425,-6 268.425,-12" fill="#9aa4ff" stroke="#9aa4ff" stroke-width="2"/>
<path d="M268.425,-24C268.425,-30 262.425,-36 256.425,-36" fill="#9aa4ff" stroke="#9aa4ff" stroke-width="2"/>
<polyline fill="none" points="256.425,-36 226.425,-36 " stroke="white" stroke-width="2"/>
<path d="M226.425,-36C220.425,-36 214.425,-30 214.425,-24" fill="none" stroke="white" stroke-width="2"/>
<polyline fill="none" points="214.425,-24 214.425,-12 " stroke="white" stroke-width="2"/>
<path d="M214.425,-12C214.425,-6 220.425,-0 226.425,-0" fill="none" stroke="white" stroke-width="2"/>
<polyline fill="none" points="226.425,-0 256.425,-0 " stroke="white" stroke-width="2"/>
<path d="M256.425,-0C262.425,-0 268.425,-6 268.425,-12" fill="none" stroke="white" stroke-width="2"/>
<polyline fill="none" points="268.425,-12 268.425,-24 " stroke="white" stroke-width="2"/>
<path d="M268.425,-24C268.425,-30 262.425,-36 256.425,-36" fill="none" stroke="white" stroke-width="2"/>
<text font-family="Helvetica,sans-Serif" font-size="10.00" text-anchor="middle" x="241.425" y="-15.5">TBX3</text>
</a>
</g>
<!-- PAX5&#45;&gt;TBX3 -->
<g class="edge" id="edge42">
<a class="remove16 root" ismara:data="0.259" onmousemove="ShowTooltip(evt, 'TBX3: 0.259')" onmouseout="HideTooltip(evt)">
<path d="M203.096,-161.043C210.745,-132.498 225.604,-77.042 234.406,-44.1955" fill="none" stroke="#ffacac" stroke-width="3"/>
<polygon fill="#ffacac" points="237.138,-44.8142 236.505,-36.362 231.729,-43.3647 237.138,-44.8142" stroke="#ffacac"/>
</a>
</g>
<!-- PGR -->
<g class="node" id="node41">
<a class="remove15" onmousemove="ShowTooltip(evt, 'Z-value: 0.628')" onmouseout="HideTooltip(evt)" xlink:href="PGR.svg">
<polygon fill="#949fff" points="374.449,-154.025 344.449,-154.025 332.449,-142.025 332.449,-130.025 344.449,-118.025 374.449,-118.025 386.449,-130.025 386.449,-142.025 374.449,-154.025" stroke="#949fff" stroke-width="2"/>
<path d="M344.449,-154.025C338.449,-154.025 332.449,-148.025 332.449,-142.025" fill="#949fff" stroke="#949fff" stroke-width="2"/>
<path d="M332.449,-130.025C332.449,-124.025 338.449,-118.025 344.449,-118.025" fill="#949fff" stroke="#949fff" stroke-width="2"/>
<path d="M374.449,-118.025C380.449,-118.025 386.449,-124.025 386.449,-130.025" fill="#949fff" stroke="#949fff" stroke-width="2"/>
<path d="M386.449,-142.025C386.449,-148.025 380.449,-154.025 374.449,-154.025" fill="#949fff" stroke="#949fff" stroke-width="2"/>
<polyline fill="none" points="374.449,-154.025 344.449,-154.025 " stroke="white" stroke-width="2"/>
<path d="M344.449,-154.025C338.449,-154.025 332.449,-148.025 332.449,-142.025" fill="none" stroke="white" stroke-width="2"/>
<polyline fill="none" points="332.449,-142.025 332.449,-130.025 " stroke="white" stroke-width="2"/>
<path d="M332.449,-130.025C332.449,-124.025 338.449,-118.025 344.449,-118.025" fill="none" stroke="white" stroke-width="2"/>
<polyline fill="none" points="344.449,-118.025 374.449,-118.025 " stroke="white" stroke-width="2"/>
<path d="M374.449,-118.025C380.449,-118.025 386.449,-124.025 386.449,-130.025" fill="none" stroke="white" stroke-width="2"/>
<polyline fill="none" points="386.449,-130.025 386.449,-142.025 " stroke="white" stroke-width="2"/>
<path d="M386.449,-142.025C386.449,-148.025 380.449,-154.025 374.449,-154.025" fill="none" stroke="white" stroke-width="2"/>
<text font-family="Helvetica,sans-Serif" font-size="10.00" text-anchor="middle" x="359.449" y="-133.525">PGR</text>
</a>
</g>
<!-- PGR&#45;&gt;IRF2_STAT2_IRF8_IRF1 -->
<g class="edge" id="edge58">
<a class="remove3 root" ismara:data="0.066" onmousemove="ShowTooltip(evt, 'IRF8: 0.066')" onmouseout="HideTooltip(evt)">
<path d="M359.449,-154.348C359.449,-166.572 359.449,-182.828 359.449,-196.389" fill="none" stroke="#ecc4ff" stroke-width="3"/>
<polygon fill="#ecc4ff" points="356.649,-196.424 359.449,-204.424 362.249,-196.424 356.649,-196.424" stroke="#ecc4ff"/>
</a>
</g>
<!-- PGR&#45;&gt;NR2E1 -->
<g class="edge" id="edge60">
<a class="remove13" ismara:data="0.352" onmousemove="ShowTooltip(evt, 'NR2E1: 0.352')" onmouseout="HideTooltip(evt)">
<path d="M332.303,-120.352C295.495,-99.1007 229.742,-61.1378 189.489,-37.8982" fill="none" stroke="#e1a1ff" stroke-width="3"/>
<polygon fill="#e1a1ff" points="190.611,-35.3127 182.283,-33.7376 187.811,-40.1625 190.611,-35.3127" stroke="#e1a1ff"/>
</a>
</g>
<!-- PGR&#45;&gt;PAX5 -->
<g class="edge" id="edge62">
<a class="remove15 root" ismara:data="0.241" onmousemove="ShowTooltip(evt, 'PAX5: 0.241')" onmouseout="HideTooltip(evt)">
<path d="M332.1,-143.353C304.918,-150.636 263.113,-161.838 233.458,-169.784" fill="none" stroke="#afb7ff" stroke-width="3"/>
<polygon fill="#afb7ff" points="232.441,-167.157 225.439,-171.933 233.891,-172.567 232.441,-167.157" stroke="#afb7ff"/>
</a>
</g>
</g>
<rect height="14" id="tooltip_bg" style="fill: white; stroke: black; opacity: 0.8;" visibility="hidden"/><text id="tooltip" style="font-size: 10px;font-weight: bold;" visibility="hidden"></text><g id="plus" onclick="showSome();moveSlider();setThreshold();"><circle cx="22" cy="22" r="10" style="fill: #dddddd; opacity: 100%;"/><line stroke="#888888" stroke-width="2" x1="16" x2="28" y1="22" y2="22"/><line stroke="#888888" stroke-width="2" x1="22" x2="22" y1="16" y2="28"/></g><g id="minus" onclick="hideSome();moveSlider();setThreshold();"><circle cx="22" cy="344" r="10" style="fill: #dddddd; opacity: 100%;"/><line stroke="#888888" stroke-width="2" x1="16" x2="28" y1="344" y2="344"/></g><line id="slider_scale" onmousedown="jump_slider(evt)" stroke="#888888" stroke-width="5" x1="22" x2="22" y1="40" y2="326"/><circle cx="22" cy="50" id="slider" onmousedown="grab(evt)" onmouseout="release(evt)" onmouseup="release(evt)" r="15" style="fill:#922"/><script type="text/ecmascript"><![CDATA[
    var svgNS = "http://www.w3.org/2000/svg";
    var edge_num = 23;
    var counter = 0;
    var tooltip, tooltip_bg;

    function init(evt) {
        if ( window.svgDocument == null ) {
            svgDocument = evt.target.ownerDocument;
        }
        tooltip = svgDocument.getElementById('tooltip');
        tooltip_bg = svgDocument.getElementById('tooltip_bg');
        setThreshold();
    }

    function ShowTooltip(evt, txt) {
        var length = 0;
        var height;
        var tooltip_x = evt.pageX + 18;
        var tooltip_y = evt.pageY + 22;
        var bg_x = evt.pageX + 10;
        var bg_y = evt.pageY + 10;

        /* Clean toolip content */
        while (tooltip.lastChild) {
            tooltip.removeChild(tooltip.lastChild)
        }

        /* Populate tooltip with tspan elements and get longest of them */
        var text_elements = txt.split('|');
        for (var i = 0; i  < text_elements.length; i++) {
            var shift_y = 12;
            if (i == 0) {
                shift_y = 0;
            }
            var tspan_element = document.createElementNS(svgNS, "tspan");
            tspan_element.setAttributeNS(null, "dy", shift_y);
            tspan_element.setAttributeNS(null, "x", tooltip_x);
            var text_node = svgDocument.createTextNode(text_elements[i]);
            tspan_element.appendChild(text_node);
            tooltip.appendChild(tspan_element);
            var tspan_length = tspan_element.getComputedTextLength();
            if (tspan_length > length) {
                length = tspan_length
            }
        }
        /* add right margin to tooltip */
        length = length + 15;
        height = 12 * text_elements.length + 5;
        tooltip_bg.setAttributeNS(null,"width",length);
        tooltip_bg.setAttributeNS(null,"height",height);
        tooltip_bg.setAttributeNS(null,"x", bg_x);
        tooltip_bg.setAttributeNS(null,"y", bg_y);
        tooltip_bg.setAttributeNS(null,"visibility","visible");
        tooltip.setAttributeNS(null,"x", tooltip_x);
        tooltip.setAttributeNS(null,"y", tooltip_y);
        tooltip.setAttributeNS(null,"visibility","visible");
    }
    function HideTooltip() {
      tooltip.setAttributeNS(null,"visibility","hidden");
      tooltip_bg.setAttributeNS(null,"visibility","hidden");
    }

    /*** Hide/Show edges functions ***/

    function hideSome() {
      if (counter >= edge_num -1) {
        return 1;
      }
      var elements = svgDocument.getElementsByClassName('remove' + counter);
      for (var i = 0; i < elements.length; i++) {
        elements[i].setAttributeNS(null,"visibility","hidden");
      }
      counter = counter + 1;
    }

    function showSome() {
      if (counter <= 0) {
        return 1;
      }
      counter = counter - 1;
      var elements = svgDocument.getElementsByClassName('remove' + counter);
      for (var i = 0; i < elements.length; i++) {
        elements[i].setAttributeNS(null,"visibility","visible");
      }
    }

    function setThreshold() {
        var elements = svgDocument.getElementsByClassName('remove' + counter);
        var score = 0;
        for (var i = 0; i < elements.length; i++) {
            if (elements[i].classList.contains("root")){
                if (elements[i].hasAttributeNS("ismara.unibas.ch", "data")) {
                    score = elements[i].getAttributeNS("ismara.unibas.ch", "data");
                }
            } 
        }
        svgDocument.getElementById("score_indicator").textContent = "Score threshold: " + score;
    }

    /*** Slider functions ***/

    var slider_maxY = parseInt(document.getElementById("slider_scale").getAttributeNS(null, "y2"));
    var slider_minY = parseInt(document.getElementById("slider_scale").getAttributeNS(null, "y1"));
    var slider_r = parseInt(document.getElementById("slider").getAttributeNS(null, "r"));
    var coef = (edge_num - 1) / (slider_maxY - slider_minY - 2 * slider_r);

    function grab(evt){
        var element = evt.target;
        var Attr = {"onmousemove":"slide(evt,'"+element.id+"')"};
        assignAttr(element, Attr);
    }

    function release(evt){
        var element = evt.target;
        var Attr = {"onmousemove":null};
        assignAttr(element, Attr);
    }

    function assignAttr(obj,attr){
        for (i in attr) obj.setAttributeNS(null,i, attr[i]);
    }

    function slide(evt,id){
        var slider = evt.target;
        var y = evt.pageY;
        var new_counter = Math.floor((evt.pageY - slider_minY - slider_r) * coef);
        if (evt.pageY > (slider_maxY - slider_r)) {
            slider.setAttributeNS(null, "cy", (slider_maxY - slider_r));
            new_counter = edge_num;
        } else if(evt.pageY < (slider_minY + slider_r)) {
            slider.setAttributeNS(null, "cy", (slider_minY + slider_r));
            new_counter = 1;
        } else {
            slider.setAttributeNS(null, "cy", evt.pageY);
        }

        if (new_counter < counter) {
                showSome();
            counter = new_counter;
        }
        if (new_counter > counter) {
                hideSome();
            counter = new_counter;
        }
        setThreshold();
    }

    function moveSlider() {
        circle = document.getElementById("slider");
        circle.setAttributeNS(null, "cy",  slider_minY +  slider_r + (counter) / coef);
    }

    function jump_slider(evt) {
        var slider = document.getElementById("slider");
        var new_counter = Math.floor((evt.pageY - slider_minY - slider_r) * coef);
        if (evt.pageY > (slider_maxY - slider_r)) {
            slider.setAttributeNS(null, "cy", (slider_maxY - slider_r));
            new_counter = edge_num;
        } else if(evt.pageY < (slider_minY + slider_r)) {
             slider.setAttributeNS(null, "cy", (slider_minY + slider_r));
            new_counter = 1;
        } else {
            slider.setAttributeNS(null, "cy", evt.pageY);
        }

        if (new_counter > counter) {
            var d = new_counter - counter;
            for (var i = 0; i < d; i++){
                hideSome();
            }
            counter = new_counter;
        }
        if (new_counter < counter) {
            var d = counter - new_counter;
            for (var i = 0; i < d; i++){
                showSome();
            }
            counter = new_counter;
        }
        setThreshold();
    }
    ]]></script><text id="score_indicator" style="font-size: 10px;font-weight: bold;" x="10" y="376">Score threshold: 0</text><text id="info" style="font-size: 10px;font-weight: bold;" x="10" y="391">Use slider or -/+ buttons to hide/show edges.</text></svg>