<?xml version="1.0" encoding="UTF-8" standalone="no"?>
<!DOCTYPE svg PUBLIC "-//W3C//DTD SVG 1.1//EN"
 "http://www.w3.org/Graphics/SVG/1.1/DTD/svg11.dtd">
<!-- Generated by graphviz version 2.28.0 (20110630.0925)
 -->
<!-- Title: _anonymous_0 Pages: 1 -->
<svg width="454pt" height="436pt"
 viewBox="0.00 0.00 453.87 435.87" xmlns="http://www.w3.org/2000/svg" xmlns:xlink="http://www.w3.org/1999/xlink">
<g id="graph1" class="graph" transform="scale(1 1) rotate(0) translate(4 431.865)">
<title>_anonymous_0</title>
<polygon fill="white" stroke="white" points="-4,5 -4,-431.865 450.865,-431.865 450.865,5 -4,5"/>
<!-- ESRRA_ESR2 -->
<g id="node1" class="node"><title>ESRRA_ESR2</title>
<a xlink:href="ESRRA_ESR2.svg" xlink:title="Z&#45;value: 3.814||remove15">
<polygon fill="#3247ff" stroke="#3247ff" stroke-width="2" points="304.683,-427.865 246.183,-427.865 234.183,-415.865 234.183,-403.865 246.183,-391.865 304.683,-391.865 316.683,-403.865 316.683,-415.865 304.683,-427.865"/>
<path fill="#3247ff" stroke="#3247ff" stroke-width="2" d="M246.183,-427.865C240.183,-427.865 234.183,-421.865 234.183,-415.865"/>
<path fill="#3247ff" stroke="#3247ff" stroke-width="2" d="M234.183,-403.865C234.183,-397.865 240.183,-391.865 246.183,-391.865"/>
<path fill="#3247ff" stroke="#3247ff" stroke-width="2" d="M304.683,-391.865C310.683,-391.865 316.683,-397.865 316.683,-403.865"/>
<path fill="#3247ff" stroke="#3247ff" stroke-width="2" d="M316.683,-415.865C316.683,-421.865 310.683,-427.865 304.683,-427.865"/>
<polyline fill="none" stroke="white" stroke-width="2" points="304.683,-427.865 246.183,-427.865 "/>
<path fill="none" stroke="white" stroke-width="2" d="M246.183,-427.865C240.183,-427.865 234.183,-421.865 234.183,-415.865"/>
<polyline fill="none" stroke="white" stroke-width="2" points="234.183,-415.865 234.183,-403.865 "/>
<path fill="none" stroke="white" stroke-width="2" d="M234.183,-403.865C234.183,-397.865 240.183,-391.865 246.183,-391.865"/>
<polyline fill="none" stroke="white" stroke-width="2" points="246.183,-391.865 304.683,-391.865 "/>
<path fill="none" stroke="white" stroke-width="2" d="M304.683,-391.865C310.683,-391.865 316.683,-397.865 316.683,-403.865"/>
<polyline fill="none" stroke="white" stroke-width="2" points="316.683,-403.865 316.683,-415.865 "/>
<path fill="none" stroke="white" stroke-width="2" d="M316.683,-415.865C316.683,-421.865 310.683,-427.865 304.683,-427.865"/>
<text text-anchor="middle" x="275.433" y="-407.365" font-family="Helvetica,sans-Serif" font-size="10.00" fill="white">ESRRA_ESR2</text>
</a>
</g>
<!-- PBX3 -->
<g id="node2" class="node"><title>PBX3</title>
<a xlink:href="PBX3.svg" xlink:title="Z&#45;value: 0.642||remove13">
<polygon fill="#b2b9ff" stroke="#b2b9ff" stroke-width="2" points="433.865,-284.433 403.865,-284.433 391.865,-272.433 391.865,-260.433 403.865,-248.433 433.865,-248.433 445.865,-260.433 445.865,-272.433 433.865,-284.433"/>
<path fill="#b2b9ff" stroke="#b2b9ff" stroke-width="2" d="M403.865,-284.433C397.865,-284.433 391.865,-278.433 391.865,-272.433"/>
<path fill="#b2b9ff" stroke="#b2b9ff" stroke-width="2" d="M391.865,-260.433C391.865,-254.433 397.865,-248.433 403.865,-248.433"/>
<path fill="#b2b9ff" stroke="#b2b9ff" stroke-width="2" d="M433.865,-248.433C439.865,-248.433 445.865,-254.433 445.865,-260.433"/>
<path fill="#b2b9ff" stroke="#b2b9ff" stroke-width="2" d="M445.865,-272.433C445.865,-278.433 439.865,-284.433 433.865,-284.433"/>
<polyline fill="none" stroke="white" stroke-width="2" points="433.865,-284.433 403.865,-284.433 "/>
<path fill="none" stroke="white" stroke-width="2" d="M403.865,-284.433C397.865,-284.433 391.865,-278.433 391.865,-272.433"/>
<polyline fill="none" stroke="white" stroke-width="2" points="391.865,-272.433 391.865,-260.433 "/>
<path fill="none" stroke="white" stroke-width="2" d="M391.865,-260.433C391.865,-254.433 397.865,-248.433 403.865,-248.433"/>
<polyline fill="none" stroke="white" stroke-width="2" points="403.865,-248.433 433.865,-248.433 "/>
<path fill="none" stroke="white" stroke-width="2" d="M433.865,-248.433C439.865,-248.433 445.865,-254.433 445.865,-260.433"/>
<polyline fill="none" stroke="white" stroke-width="2" points="445.865,-260.433 445.865,-272.433 "/>
<path fill="none" stroke="white" stroke-width="2" d="M445.865,-272.433C445.865,-278.433 439.865,-284.433 433.865,-284.433"/>
<text text-anchor="middle" x="418.865" y="-263.933" font-family="Helvetica,sans-Serif" font-size="10.00">PBX3</text>
</a>
</g>
<!-- ESRRA_ESR2&#45;&gt;PBX3 -->
<g id="edge2" class="edge"><title>ESRRA_ESR2&#45;&gt;PBX3</title>
<a xlink:title="PBX3: 0.015||remove2root">
<path fill="none" stroke="#eecaff" stroke-width="3" d="M288.509,-391.864C300.029,-376.491 317.642,-354.132 335.045,-336.485 351.622,-319.677 371.895,-302.652 388.351,-289.595"/>
<polygon fill="#eecaff" stroke="#eecaff" points="390.127,-291.761 394.685,-284.615 386.666,-287.358 390.127,-291.761"/>
</a>
</g>
<!-- ZNF740_ZNF219 -->
<g id="node4" class="node"><title>ZNF740_ZNF219</title>
<a xlink:href="ZNF740_ZNF219.svg" xlink:title="Z&#45;value: 0.639||remove23">
<polygon fill="#b2baff" stroke="#b2baff" stroke-width="2" points="204.433,-427.865 136.433,-427.865 124.433,-415.865 124.433,-403.865 136.433,-391.865 204.433,-391.865 216.433,-403.865 216.433,-415.865 204.433,-427.865"/>
<path fill="#b2baff" stroke="#b2baff" stroke-width="2" d="M136.433,-427.865C130.433,-427.865 124.433,-421.865 124.433,-415.865"/>
<path fill="#b2baff" stroke="#b2baff" stroke-width="2" d="M124.433,-403.865C124.433,-397.865 130.433,-391.865 136.433,-391.865"/>
<path fill="#b2baff" stroke="#b2baff" stroke-width="2" d="M204.433,-391.865C210.433,-391.865 216.433,-397.865 216.433,-403.865"/>
<path fill="#b2baff" stroke="#b2baff" stroke-width="2" d="M216.433,-415.865C216.433,-421.865 210.433,-427.865 204.433,-427.865"/>
<polyline fill="none" stroke="white" stroke-width="2" points="204.433,-427.865 136.433,-427.865 "/>
<path fill="none" stroke="white" stroke-width="2" d="M136.433,-427.865C130.433,-427.865 124.433,-421.865 124.433,-415.865"/>
<polyline fill="none" stroke="white" stroke-width="2" points="124.433,-415.865 124.433,-403.865 "/>
<path fill="none" stroke="white" stroke-width="2" d="M124.433,-403.865C124.433,-397.865 130.433,-391.865 136.433,-391.865"/>
<polyline fill="none" stroke="white" stroke-width="2" points="136.433,-391.865 204.433,-391.865 "/>
<path fill="none" stroke="white" stroke-width="2" d="M204.433,-391.865C210.433,-391.865 216.433,-397.865 216.433,-403.865"/>
<polyline fill="none" stroke="white" stroke-width="2" points="216.433,-403.865 216.433,-415.865 "/>
<path fill="none" stroke="white" stroke-width="2" d="M216.433,-415.865C216.433,-421.865 210.433,-427.865 204.433,-427.865"/>
<text text-anchor="middle" x="170.433" y="-407.365" font-family="Helvetica,sans-Serif" font-size="10.00">ZNF740_ZNF219</text>
</a>
</g>
<!-- ESRRA_ESR2&#45;&gt;ZNF740_ZNF219 -->
<g id="edge4" class="edge"><title>ESRRA_ESR2&#45;&gt;ZNF740_ZNF219</title>
<a xlink:title="ZNF219: 0.299||ZNF740: 0.006||remove15">
<path fill="none" stroke="#e3aaff" stroke-width="3" d="M233.934,-409.865C230.889,-409.865 227.792,-409.865 224.686,-409.865"/>
<polygon fill="#e3aaff" stroke="#e3aaff" points="224.478,-407.065 216.478,-409.865 224.478,-412.665 224.478,-407.065"/>
</a>
</g>
<!-- POU6F1 -->
<g id="node6" class="node"><title>POU6F1</title>
<a xlink:href="POU6F1.svg" xlink:title="Z&#45;value: 0.283||remove28">
<polygon fill="#ffc0c0" stroke="#ffc0c0" stroke-width="2" points="238.183,-231.933 207.683,-231.933 195.683,-219.933 195.683,-207.933 207.683,-195.933 238.183,-195.933 250.183,-207.933 250.183,-219.933 238.183,-231.933"/>
<path fill="#ffc0c0" stroke="#ffc0c0" stroke-width="2" d="M207.683,-231.933C201.683,-231.933 195.683,-225.933 195.683,-219.933"/>
<path fill="#ffc0c0" stroke="#ffc0c0" stroke-width="2" d="M195.683,-207.933C195.683,-201.933 201.683,-195.933 207.683,-195.933"/>
<path fill="#ffc0c0" stroke="#ffc0c0" stroke-width="2" d="M238.183,-195.933C244.183,-195.933 250.183,-201.933 250.183,-207.933"/>
<path fill="#ffc0c0" stroke="#ffc0c0" stroke-width="2" d="M250.183,-219.933C250.183,-225.933 244.183,-231.933 238.183,-231.933"/>
<polyline fill="none" stroke="white" stroke-width="2" points="238.183,-231.933 207.683,-231.933 "/>
<path fill="none" stroke="white" stroke-width="2" d="M207.683,-231.933C201.683,-231.933 195.683,-225.933 195.683,-219.933"/>
<polyline fill="none" stroke="white" stroke-width="2" points="195.683,-219.933 195.683,-207.933 "/>
<path fill="none" stroke="white" stroke-width="2" d="M195.683,-207.933C195.683,-201.933 201.683,-195.933 207.683,-195.933"/>
<polyline fill="none" stroke="white" stroke-width="2" points="207.683,-195.933 238.183,-195.933 "/>
<path fill="none" stroke="white" stroke-width="2" d="M238.183,-195.933C244.183,-195.933 250.183,-201.933 250.183,-207.933"/>
<polyline fill="none" stroke="white" stroke-width="2" points="250.183,-207.933 250.183,-219.933 "/>
<path fill="none" stroke="white" stroke-width="2" d="M250.183,-219.933C250.183,-225.933 244.183,-231.933 238.183,-231.933"/>
<text text-anchor="middle" x="222.933" y="-211.433" font-family="Helvetica,sans-Serif" font-size="10.00">POU6F1</text>
</a>
</g>
<!-- ESRRA_ESR2&#45;&gt;POU6F1 -->
<g id="edge6" class="edge"><title>ESRRA_ESR2&#45;&gt;POU6F1</title>
<a xlink:title="POU6F1: 0.073||remove15root">
<path fill="none" stroke="#c3c9ff" stroke-width="3" d="M270.588,-391.784C261.231,-356.863 240.647,-280.043 229.851,-239.752"/>
<polygon fill="#c3c9ff" stroke="#c3c9ff" points="232.541,-238.973 227.766,-231.971 227.132,-240.423 232.541,-238.973"/>
</a>
</g>
<!-- BACH1_NFE2_NFE2L2 -->
<g id="node8" class="node"><title>BACH1_NFE2_NFE2L2</title>
<a xlink:href="BACH1_NFE2_NFE2L2.svg" xlink:title="Z&#45;value: 1.802||remove22">
<polygon fill="#8390ff" stroke="#8390ff" stroke-width="2" points="128.5,-375.365 30.5,-375.365 18.5,-363.365 18.5,-351.365 30.5,-339.365 128.5,-339.365 140.5,-351.365 140.5,-363.365 128.5,-375.365"/>
<path fill="#8390ff" stroke="#8390ff" stroke-width="2" d="M30.5,-375.365C24.5,-375.365 18.5,-369.365 18.5,-363.365"/>
<path fill="#8390ff" stroke="#8390ff" stroke-width="2" d="M18.5,-351.365C18.5,-345.365 24.5,-339.365 30.5,-339.365"/>
<path fill="#8390ff" stroke="#8390ff" stroke-width="2" d="M128.5,-339.365C134.5,-339.365 140.5,-345.365 140.5,-351.365"/>
<path fill="#8390ff" stroke="#8390ff" stroke-width="2" d="M140.5,-363.365C140.5,-369.365 134.5,-375.365 128.5,-375.365"/>
<polyline fill="none" stroke="white" stroke-width="2" points="128.5,-375.365 30.5,-375.365 "/>
<path fill="none" stroke="white" stroke-width="2" d="M30.5,-375.365C24.5,-375.365 18.5,-369.365 18.5,-363.365"/>
<polyline fill="none" stroke="white" stroke-width="2" points="18.5,-363.365 18.5,-351.365 "/>
<path fill="none" stroke="white" stroke-width="2" d="M18.5,-351.365C18.5,-345.365 24.5,-339.365 30.5,-339.365"/>
<polyline fill="none" stroke="white" stroke-width="2" points="30.5,-339.365 128.5,-339.365 "/>
<path fill="none" stroke="white" stroke-width="2" d="M128.5,-339.365C134.5,-339.365 140.5,-345.365 140.5,-351.365"/>
<polyline fill="none" stroke="white" stroke-width="2" points="140.5,-351.365 140.5,-363.365 "/>
<path fill="none" stroke="white" stroke-width="2" d="M140.5,-363.365C140.5,-369.365 134.5,-375.365 128.5,-375.365"/>
<text text-anchor="middle" x="79.5" y="-354.865" font-family="Helvetica,sans-Serif" font-size="10.00">BACH1_NFE2_NFE2L2</text>
</a>
</g>
<!-- ESRRA_ESR2&#45;&gt;BACH1_NFE2_NFE2L2 -->
<g id="edge8" class="edge"><title>ESRRA_ESR2&#45;&gt;BACH1_NFE2_NFE2L2</title>
<a xlink:title="NFE2: 0.285||NFE2L2: 0.253||BACH1: 0.107||remove15">
<path fill="none" stroke="#e4abff" stroke-width="3" d="M233.938,-392.387C230.53,-391.166 227.119,-390.014 223.793,-388.985 199.69,-381.53 172.803,-375.135 148.831,-370.086"/>
<polygon fill="#e4abff" stroke="#e4abff" points="149.223,-367.308 140.822,-368.426 148.087,-372.792 149.223,-367.308"/>
</a>
</g>
<!-- NR3C1 -->
<g id="node10" class="node"><title>NR3C1</title>
<a xlink:href="NR3C1.svg" xlink:title="Z&#45;value: 1.426||remove26">
<polygon fill="#929dff" stroke="#929dff" stroke-width="2" points="42,-284.433 12,-284.433 6.39488e-14,-272.433 6.39488e-14,-260.433 12,-248.433 42,-248.433 54,-260.433 54,-272.433 42,-284.433"/>
<path fill="#929dff" stroke="#929dff" stroke-width="2" d="M12,-284.433C6,-284.433 6.39488e-14,-278.433 6.39488e-14,-272.433"/>
<path fill="#929dff" stroke="#929dff" stroke-width="2" d="M6.39488e-14,-260.433C6.39488e-14,-254.433 6,-248.433 12,-248.433"/>
<path fill="#929dff" stroke="#929dff" stroke-width="2" d="M42,-248.433C48,-248.433 54,-254.433 54,-260.433"/>
<path fill="#929dff" stroke="#929dff" stroke-width="2" d="M54,-272.433C54,-278.433 48,-284.433 42,-284.433"/>
<polyline fill="none" stroke="white" stroke-width="2" points="42,-284.433 12,-284.433 "/>
<path fill="none" stroke="white" stroke-width="2" d="M12,-284.433C6,-284.433 6.39488e-14,-278.433 6.39488e-14,-272.433"/>
<polyline fill="none" stroke="white" stroke-width="2" points="6.39488e-14,-272.433 6.39488e-14,-260.433 "/>
<path fill="none" stroke="white" stroke-width="2" d="M6.39488e-14,-260.433C6.39488e-14,-254.433 6,-248.433 12,-248.433"/>
<polyline fill="none" stroke="white" stroke-width="2" points="12,-248.433 42,-248.433 "/>
<path fill="none" stroke="white" stroke-width="2" d="M42,-248.433C48,-248.433 54,-254.433 54,-260.433"/>
<polyline fill="none" stroke="white" stroke-width="2" points="54,-260.433 54,-272.433 "/>
<path fill="none" stroke="white" stroke-width="2" d="M54,-272.433C54,-278.433 48,-284.433 42,-284.433"/>
<text text-anchor="middle" x="27" y="-263.933" font-family="Helvetica,sans-Serif" font-size="10.00">NR3C1</text>
</a>
</g>
<!-- ESRRA_ESR2&#45;&gt;NR3C1 -->
<g id="edge10" class="edge"><title>ESRRA_ESR2&#45;&gt;NR3C1</title>
<a xlink:title="NR3C1: 0.109||remove15">
<path fill="none" stroke="#eabfff" stroke-width="3" d="M244.891,-391.807C219.588,-376.883 182.657,-355.187 150.26,-336.485 120.381,-319.238 86.2703,-299.877 61.5188,-285.887"/>
<polygon fill="#eabfff" stroke="#eabfff" points="62.8182,-283.405 54.4756,-281.909 60.0639,-288.281 62.8182,-283.405"/>
</a>
</g>
<!-- KLF8 -->
<g id="node12" class="node"><title>KLF8</title>
<a xlink:href="KLF8.svg" xlink:title="Z&#45;value: 0.759||remove19">
<polygon fill="#adb5ff" stroke="#adb5ff" stroke-width="2" points="42,-179.433 12,-179.433 0,-167.433 0,-155.433 12,-143.433 42,-143.433 54,-155.433 54,-167.433 42,-179.433"/>
<path fill="#adb5ff" stroke="#adb5ff" stroke-width="2" d="M12,-179.433C6,-179.433 0,-173.433 0,-167.433"/>
<path fill="#adb5ff" stroke="#adb5ff" stroke-width="2" d="M0,-155.433C0,-149.433 6,-143.433 12,-143.433"/>
<path fill="#adb5ff" stroke="#adb5ff" stroke-width="2" d="M42,-143.433C48,-143.433 54,-149.433 54,-155.433"/>
<path fill="#adb5ff" stroke="#adb5ff" stroke-width="2" d="M54,-167.433C54,-173.433 48,-179.433 42,-179.433"/>
<polyline fill="none" stroke="white" stroke-width="2" points="42,-179.433 12,-179.433 "/>
<path fill="none" stroke="white" stroke-width="2" d="M12,-179.433C6,-179.433 0,-173.433 0,-167.433"/>
<polyline fill="none" stroke="white" stroke-width="2" points="0,-167.433 0,-155.433 "/>
<path fill="none" stroke="white" stroke-width="2" d="M0,-155.433C0,-149.433 6,-143.433 12,-143.433"/>
<polyline fill="none" stroke="white" stroke-width="2" points="12,-143.433 42,-143.433 "/>
<path fill="none" stroke="white" stroke-width="2" d="M42,-143.433C48,-143.433 54,-149.433 54,-155.433"/>
<polyline fill="none" stroke="white" stroke-width="2" points="54,-155.433 54,-167.433 "/>
<path fill="none" stroke="white" stroke-width="2" d="M54,-167.433C54,-173.433 48,-179.433 42,-179.433"/>
<text text-anchor="middle" x="27" y="-158.933" font-family="Helvetica,sans-Serif" font-size="10.00">KLF8</text>
</a>
</g>
<!-- ESRRA_ESR2&#45;&gt;KLF8 -->
<g id="edge12" class="edge"><title>ESRRA_ESR2&#45;&gt;KLF8</title>
<a xlink:title="KLF8: 0.162||ESRRA: 0.044||remove15">
<path fill="none" stroke="#e8b9ff" stroke-width="3" d="M250.744,-386.591C203.286,-339.133 97.8852,-233.732 50.3589,-186.206"/>
<path fill="none" stroke="#edc7ff" stroke-width="3" d="M252.158,-385.176C204.7,-337.719 99.2995,-232.318 51.7731,-184.792"/>
<polygon fill="#edc7ff" stroke="#edc7ff" points="249.528,-387.921 257.165,-391.598 253.488,-383.961 249.528,-387.921"/>
<polygon fill="#e8b9ff" stroke="#e8b9ff" points="52.9314,-183.404 45.2946,-179.727 48.9716,-187.364 52.9314,-183.404"/>
</a>
</g>
<!-- POU3F3_POU3F4 -->
<g id="node23" class="node"><title>POU3F3_POU3F4</title>
<a xlink:href="POU3F3_POU3F4.svg" xlink:title="Z&#45;value: 0.515||remove25">
<polygon fill="#b7beff" stroke="#b7beff" stroke-width="2" points="116,-88.5 43,-88.5 31,-76.5 31,-64.5 43,-52.5 116,-52.5 128,-64.5 128,-76.5 116,-88.5"/>
<path fill="#b7beff" stroke="#b7beff" stroke-width="2" d="M43,-88.5C37,-88.5 31,-82.5 31,-76.5"/>
<path fill="#b7beff" stroke="#b7beff" stroke-width="2" d="M31,-64.5C31,-58.5 37,-52.5 43,-52.5"/>
<path fill="#b7beff" stroke="#b7beff" stroke-width="2" d="M116,-52.5C122,-52.5 128,-58.5 128,-64.5"/>
<path fill="#b7beff" stroke="#b7beff" stroke-width="2" d="M128,-76.5C128,-82.5 122,-88.5 116,-88.5"/>
<polyline fill="none" stroke="white" stroke-width="2" points="116,-88.5 43,-88.5 "/>
<path fill="none" stroke="white" stroke-width="2" d="M43,-88.5C37,-88.5 31,-82.5 31,-76.5"/>
<polyline fill="none" stroke="white" stroke-width="2" points="31,-76.5 31,-64.5 "/>
<path fill="none" stroke="white" stroke-width="2" d="M31,-64.5C31,-58.5 37,-52.5 43,-52.5"/>
<polyline fill="none" stroke="white" stroke-width="2" points="43,-52.5 116,-52.5 "/>
<path fill="none" stroke="white" stroke-width="2" d="M116,-52.5C122,-52.5 128,-58.5 128,-64.5"/>
<polyline fill="none" stroke="white" stroke-width="2" points="128,-64.5 128,-76.5 "/>
<path fill="none" stroke="white" stroke-width="2" d="M128,-76.5C128,-82.5 122,-88.5 116,-88.5"/>
<text text-anchor="middle" x="79.5" y="-68" font-family="Helvetica,sans-Serif" font-size="10.00">POU3F3_POU3F4</text>
</a>
</g>
<!-- PBX3&#45;&gt;POU3F3_POU3F4 -->
<g id="edge32" class="edge"><title>PBX3&#45;&gt;POU3F3_POU3F4</title>
<a xlink:title="POU3F4: 0.024||remove3root">
<path fill="none" stroke="#edc9ff" stroke-width="3" d="M391.667,-250.73C331.572,-216.034 187.328,-132.754 117.992,-92.7235"/>
<polygon fill="#edc9ff" stroke="#edc9ff" points="119.047,-90.0995 110.719,-88.5243 116.247,-94.9493 119.047,-90.0995"/>
</a>
</g>
<!-- ZNF740_ZNF219&#45;&gt;POU6F1 -->
<g id="edge34" class="edge"><title>ZNF740_ZNF219&#45;&gt;POU6F1</title>
<a xlink:title="POU6F1: 0.168||remove23root">
<path fill="none" stroke="#b9c0ff" stroke-width="3" d="M175.278,-391.784C184.634,-356.863 205.218,-280.043 216.014,-239.752"/>
<polygon fill="#b9c0ff" stroke="#b9c0ff" points="218.733,-240.423 218.099,-231.971 213.324,-238.973 218.733,-240.423"/>
</a>
</g>
<!-- ZNF740_ZNF219&#45;&gt;NR3C1 -->
<g id="edge36" class="edge"><title>ZNF740_ZNF219&#45;&gt;NR3C1</title>
<a xlink:title="NR3C1: 0.012||remove1root">
<path fill="none" stroke="#eecaff" stroke-width="3" d="M169.327,-391.849C167.516,-375.837 162.753,-352.545 150.26,-336.485 127.742,-307.54 89.6842,-288.558 61.8018,-277.747"/>
<polygon fill="#eecaff" stroke="#eecaff" points="62.7027,-275.095 54.2288,-274.913 60.7399,-280.34 62.7027,-275.095"/>
</a>
</g>
<!-- PATZ1_KLF4 -->
<g id="node27" class="node"><title>PATZ1_KLF4</title>
<a xlink:href="PATZ1_KLF4.svg" xlink:title="Z&#45;value: 1.751||remove24">
<polygon fill="#8591ff" stroke="#8591ff" stroke-width="2" points="196.433,-36 144.433,-36 132.433,-24 132.433,-12 144.433,-6.39488e-14 196.433,-6.39488e-14 208.433,-12 208.433,-24 196.433,-36"/>
<path fill="#8591ff" stroke="#8591ff" stroke-width="2" d="M144.433,-36C138.433,-36 132.433,-30 132.433,-24"/>
<path fill="#8591ff" stroke="#8591ff" stroke-width="2" d="M132.433,-12C132.433,-6 138.433,-6.39488e-14 144.433,-6.39488e-14"/>
<path fill="#8591ff" stroke="#8591ff" stroke-width="2" d="M196.433,-6.39488e-14C202.433,-6.39488e-14 208.433,-6 208.433,-12"/>
<path fill="#8591ff" stroke="#8591ff" stroke-width="2" d="M208.433,-24C208.433,-30 202.433,-36 196.433,-36"/>
<polyline fill="none" stroke="white" stroke-width="2" points="196.433,-36 144.433,-36 "/>
<path fill="none" stroke="white" stroke-width="2" d="M144.433,-36C138.433,-36 132.433,-30 132.433,-24"/>
<polyline fill="none" stroke="white" stroke-width="2" points="132.433,-24 132.433,-12 "/>
<path fill="none" stroke="white" stroke-width="2" d="M132.433,-12C132.433,-6 138.433,-6.39488e-14 144.433,-6.39488e-14"/>
<polyline fill="none" stroke="white" stroke-width="2" points="144.433,-6.39488e-14 196.433,-6.39488e-14 "/>
<path fill="none" stroke="white" stroke-width="2" d="M196.433,-6.39488e-14C202.433,-6.39488e-14 208.433,-6 208.433,-12"/>
<polyline fill="none" stroke="white" stroke-width="2" points="208.433,-12 208.433,-24 "/>
<path fill="none" stroke="white" stroke-width="2" d="M208.433,-24C208.433,-30 202.433,-36 196.433,-36"/>
<text text-anchor="middle" x="170.433" y="-15.5" font-family="Helvetica,sans-Serif" font-size="10.00">PATZ1_KLF4</text>
</a>
</g>
<!-- ZNF740_ZNF219&#45;&gt;PATZ1_KLF4 -->
<g id="edge38" class="edge"><title>ZNF740_ZNF219&#45;&gt;PATZ1_KLF4</title>
<a xlink:title="PATZ1: 0.024||ZNF219: 0.985||remove23">
<path fill="none" stroke="#edc9ff" stroke-width="3" d="M169.433,-383.371C169.433,-311.919 169.433,-115.843 169.433,-44.4464"/>
<path fill="none" stroke="#cb5dff" stroke-width="3" d="M171.433,-383.371C171.433,-311.919 171.433,-115.843 171.433,-44.4464"/>
<polygon fill="#cb5dff" stroke="#cb5dff" points="167.633,-383.751 170.433,-391.751 173.233,-383.751 167.633,-383.751"/>
<polygon fill="#edc9ff" stroke="#edc9ff" points="173.233,-44.3743 170.433,-36.3744 167.633,-44.3744 173.233,-44.3743"/>
</a>
</g>
<!-- POU6F1&#45;&gt;PBX3 -->
<g id="edge40" class="edge"><title>POU6F1&#45;&gt;PBX3</title>
<a xlink:title="PBX3: 0.048||remove13root">
<path fill="none" stroke="#ffc6c6" stroke-width="3" d="M250.589,-221.343C285.55,-230.711 345.76,-246.844 383.882,-257.059"/>
<polygon fill="#ffc6c6" stroke="#ffc6c6" points="383.212,-259.778 391.664,-259.144 384.662,-254.369 383.212,-259.778"/>
</a>
</g>
<!-- TFAP2B -->
<g id="node30" class="node"><title>TFAP2B</title>
<a xlink:href="TFAP2B.svg" xlink:title="Z&#45;value: 0.813||remove11">
<polygon fill="#abb3ff" stroke="#abb3ff" stroke-width="2" points="381.365,-375.365 351.365,-375.365 339.365,-363.365 339.365,-351.365 351.365,-339.365 381.365,-339.365 393.365,-351.365 393.365,-363.365 381.365,-375.365"/>
<path fill="#abb3ff" stroke="#abb3ff" stroke-width="2" d="M351.365,-375.365C345.365,-375.365 339.365,-369.365 339.365,-363.365"/>
<path fill="#abb3ff" stroke="#abb3ff" stroke-width="2" d="M339.365,-351.365C339.365,-345.365 345.365,-339.365 351.365,-339.365"/>
<path fill="#abb3ff" stroke="#abb3ff" stroke-width="2" d="M381.365,-339.365C387.365,-339.365 393.365,-345.365 393.365,-351.365"/>
<path fill="#abb3ff" stroke="#abb3ff" stroke-width="2" d="M393.365,-363.365C393.365,-369.365 387.365,-375.365 381.365,-375.365"/>
<polyline fill="none" stroke="white" stroke-width="2" points="381.365,-375.365 351.365,-375.365 "/>
<path fill="none" stroke="white" stroke-width="2" d="M351.365,-375.365C345.365,-375.365 339.365,-369.365 339.365,-363.365"/>
<polyline fill="none" stroke="white" stroke-width="2" points="339.365,-363.365 339.365,-351.365 "/>
<path fill="none" stroke="white" stroke-width="2" d="M339.365,-351.365C339.365,-345.365 345.365,-339.365 351.365,-339.365"/>
<polyline fill="none" stroke="white" stroke-width="2" points="351.365,-339.365 381.365,-339.365 "/>
<path fill="none" stroke="white" stroke-width="2" d="M381.365,-339.365C387.365,-339.365 393.365,-345.365 393.365,-351.365"/>
<polyline fill="none" stroke="white" stroke-width="2" points="393.365,-351.365 393.365,-363.365 "/>
<path fill="none" stroke="white" stroke-width="2" d="M393.365,-363.365C393.365,-369.365 387.365,-375.365 381.365,-375.365"/>
<text text-anchor="middle" x="366.365" y="-354.865" font-family="Helvetica,sans-Serif" font-size="10.00">TFAP2B</text>
</a>
</g>
<!-- POU6F1&#45;&gt;TFAP2B -->
<g id="edge42" class="edge"><title>POU6F1&#45;&gt;TFAP2B</title>
<a xlink:title="TFAP2B: 0.044||remove11root">
<path fill="none" stroke="#ffc7c7" stroke-width="3" d="M241.099,-232.099C266.856,-257.856 314.026,-305.026 342.556,-333.556"/>
<polygon fill="#ffc7c7" stroke="#ffc7c7" points="340.71,-335.67 348.347,-339.347 344.67,-331.71 340.71,-335.67"/>
</a>
</g>
<!-- BACH1_NFE2_NFE2L2&#45;&gt;POU6F1 -->
<g id="edge14" class="edge"><title>BACH1_NFE2_NFE2L2&#45;&gt;POU6F1</title>
<a xlink:title="POU6F1: 0.147||remove22root">
<path fill="none" stroke="#bbc2ff" stroke-width="3" d="M97.6658,-339.2C123.424,-313.442 170.594,-266.272 199.124,-237.742"/>
<polygon fill="#bbc2ff" stroke="#bbc2ff" points="201.237,-239.588 204.914,-231.951 197.278,-235.628 201.237,-239.588"/>
</a>
</g>
<!-- NR3C1&#45;&gt;POU6F1 -->
<g id="edge16" class="edge"><title>NR3C1&#45;&gt;POU6F1</title>
<a xlink:title="POU6F1: 0.257||remove26root">
<path fill="none" stroke="#afb7ff" stroke-width="3" d="M54.2436,-259.133C89.0931,-249.795 149.509,-233.606 187.79,-223.349"/>
<polygon fill="#afb7ff" stroke="#afb7ff" points="188.603,-226.03 195.605,-221.255 187.153,-220.621 188.603,-226.03"/>
</a>
</g>
<!-- NR3C1&#45;&gt;BACH1_NFE2_NFE2L2 -->
<g id="edge18" class="edge"><title>NR3C1&#45;&gt;BACH1_NFE2_NFE2L2</title>
<a xlink:title="NFE2L2: 0.041||remove8root">
<path fill="none" stroke="#edc7ff" stroke-width="3" d="M37.6242,-284.834C45.5033,-298.481 56.3355,-317.243 65.0088,-332.266"/>
<polygon fill="#edc7ff" stroke="#edc7ff" points="62.6459,-333.773 69.0708,-339.301 67.4956,-330.973 62.6459,-333.773"/>
</a>
</g>
<!-- NR3C1&#45;&gt;KLF8 -->
<g id="edge20" class="edge"><title>NR3C1&#45;&gt;KLF8</title>
<a xlink:title="KLF8: 0.009||NR3C1: 0.043||remove10root">
<path fill="none" stroke="#eecaff" stroke-width="3" d="M26,-239.939C26,-224.003 26,-203.789 26,-187.864"/>
<path fill="none" stroke="#edc7ff" stroke-width="3" d="M28,-239.939C28,-224.003 28,-203.789 28,-187.864"/>
<polygon fill="#edc7ff" stroke="#edc7ff" points="24.1999,-240.143 27,-248.143 29.7999,-240.143 24.1999,-240.143"/>
<polygon fill="#eecaff" stroke="#eecaff" points="29.8001,-187.513 27,-179.513 24.2001,-187.513 29.8001,-187.513"/>
</a>
</g>
<!-- KLF8&#45;&gt;PBX3 -->
<g id="edge22" class="edge"><title>KLF8&#45;&gt;PBX3</title>
<a xlink:title="PBX3: 0.037||remove7root">
<path fill="none" stroke="#edc7ff" stroke-width="3" d="M54.2474,-176.514C86.0794,-193.439 140.801,-220.408 191.033,-234.813 257.525,-253.881 338.345,-261.621 383.661,-264.633"/>
<polygon fill="#edc7ff" stroke="#edc7ff" points="383.537,-267.431 391.698,-265.143 383.891,-261.842 383.537,-267.431"/>
</a>
</g>
<!-- KLF8&#45;&gt;ZNF740_ZNF219 -->
<g id="edge24" class="edge"><title>KLF8&#45;&gt;ZNF740_ZNF219</title>
<a xlink:title="ZNF219: 0.203||ZNF740: 0.052||remove19">
<path fill="none" stroke="#e7b5ff" stroke-width="3" d="M42.9902,-179.516C69.0577,-209.884 120.757,-273.962 150.26,-336.485 157.33,-351.468 162.314,-369.378 165.559,-383.753"/>
<polygon fill="#e7b5ff" stroke="#e7b5ff" points="162.86,-384.523 167.271,-391.76 168.336,-383.351 162.86,-384.523"/>
</a>
</g>
<!-- KLF8&#45;&gt;POU6F1 -->
<g id="edge26" class="edge"><title>KLF8&#45;&gt;POU6F1</title>
<a xlink:title="POU6F1: 0.105||remove19root">
<path fill="none" stroke="#c0c6ff" stroke-width="3" d="M54.2436,-168.733C89.0931,-178.07 149.509,-194.259 187.79,-204.516"/>
<polygon fill="#c0c6ff" stroke="#c0c6ff" points="187.153,-207.244 195.605,-206.61 188.603,-201.835 187.153,-207.244"/>
</a>
</g>
<!-- KLF8&#45;&gt;BACH1_NFE2_NFE2L2 -->
<g id="edge28" class="edge"><title>KLF8&#45;&gt;BACH1_NFE2_NFE2L2</title>
<a xlink:title="NFE2: 0.104||remove18root">
<path fill="none" stroke="#eac0ff" stroke-width="3" d="M34.7503,-179.517C41.7212,-196.355 51.835,-222.285 58.32,-245.553 66.363,-274.41 72.3086,-308.309 75.8198,-331.154"/>
<polygon fill="#eac0ff" stroke="#eac0ff" points="73.0909,-331.838 77.0456,-339.334 78.6291,-331.008 73.0909,-331.838"/>
</a>
</g>
<!-- KLF8&#45;&gt;KLF8 -->
<g id="edge30" class="edge"><title>KLF8&#45;&gt;KLF8</title>
<a xlink:title="KLF8: 0.024||remove5root">
<path fill="none" stroke="#edc9ff" stroke-width="3" d="M54.2408,-168.176C64.0239,-168.321 72,-166.073 72,-161.433 72,-158.17 68.0568,-156.09 62.3147,-155.193"/>
<polygon fill="#edc9ff" stroke="#edc9ff" points="62.3996,-152.393 54.2408,-154.689 62.051,-157.982 62.3996,-152.393"/>
</a>
</g>
<!-- POU3F3_POU3F4&#45;&gt;POU6F1 -->
<g id="edge70" class="edge"><title>POU3F3_POU3F4&#45;&gt;POU6F1</title>
<a xlink:title="POU6F1: 0.231||remove25root">
<path fill="none" stroke="#b2b9ff" stroke-width="3" d="M97.6658,-88.6658C123.424,-114.424 170.594,-161.594 199.124,-190.124"/>
<polygon fill="#b2b9ff" stroke="#b2b9ff" points="197.278,-192.237 204.914,-195.914 201.237,-188.278 197.278,-192.237"/>
</a>
</g>
<!-- PATZ1_KLF4&#45;&gt;ESRRA_ESR2 -->
<g id="edge54" class="edge"><title>PATZ1_KLF4&#45;&gt;ESRRA_ESR2</title>
<a xlink:title="ESRRA: 1.315||ESR2: 0.103||remove15">
<path fill="none" stroke="#bf38ff" stroke-width="3" d="M170.019,-36.0942C169.617,-73.8046 171.072,-163.246 191.033,-234.813 206.791,-291.312 240.07,-351.805 259.806,-384.811"/>
<polygon fill="#bf38ff" stroke="#bf38ff" points="257.504,-386.415 264.038,-391.814 262.297,-383.519 257.504,-386.415"/>
</a>
</g>
<!-- PATZ1_KLF4&#45;&gt;PBX3 -->
<g id="edge44" class="edge"><title>PATZ1_KLF4&#45;&gt;PBX3</title>
<a xlink:title="PBX3: 0.026||remove6root">
<path fill="none" stroke="#edc9ff" stroke-width="3" d="M188.701,-36.2678C232.849,-80.416 345.341,-192.908 394.854,-242.421"/>
<polygon fill="#edc9ff" stroke="#edc9ff" points="392.934,-244.461 400.571,-248.138 396.894,-240.501 392.934,-244.461"/>
</a>
</g>
<!-- PATZ1_KLF4&#45;&gt;POU6F1 -->
<g id="edge48" class="edge"><title>PATZ1_KLF4&#45;&gt;POU6F1</title>
<a xlink:title="POU6F1: 0.211||remove24root">
<path fill="none" stroke="#b4bbff" stroke-width="3" d="M175.278,-36.0817C184.634,-71.0019 205.218,-147.822 216.014,-188.113"/>
<polygon fill="#b4bbff" stroke="#b4bbff" points="213.324,-188.892 218.099,-195.895 218.733,-187.443 213.324,-188.892"/>
</a>
</g>
<!-- PATZ1_KLF4&#45;&gt;BACH1_NFE2_NFE2L2 -->
<g id="edge50" class="edge"><title>PATZ1_KLF4&#45;&gt;BACH1_NFE2_NFE2L2</title>
<a xlink:title="NFE2L2: 0.232||BACH1: 0.215||NFE2: 0.146||remove22">
<path fill="none" stroke="#e6b1ff" stroke-width="3" d="M165.544,-36.2458C150.402,-92.7539 104.242,-265.028 86.5255,-331.146"/>
<polygon fill="#e6b1ff" stroke="#e6b1ff" points="83.7791,-330.577 84.4131,-339.029 89.1883,-332.027 83.7791,-330.577"/>
</a>
</g>
<!-- PATZ1_KLF4&#45;&gt;NR3C1 -->
<g id="edge52" class="edge"><title>PATZ1_KLF4&#45;&gt;NR3C1</title>
<a xlink:title="NR3C1: 0.105||remove20root">
<path fill="none" stroke="#eac0ff" stroke-width="3" d="M162.77,-36.0974C156.226,-51.1387 146.313,-72.9779 136.34,-91.38 106.454,-146.527 66.3162,-208.104 43.92,-241.534"/>
<polygon fill="#eac0ff" stroke="#eac0ff" points="41.5597,-240.026 39.4202,-248.227 46.2072,-243.15 41.5597,-240.026"/>
</a>
</g>
<!-- PATZ1_KLF4&#45;&gt;KLF8 -->
<g id="edge56" class="edge"><title>PATZ1_KLF4&#45;&gt;KLF8</title>
<a xlink:title="KLF8: 0.115||remove19">
<path fill="none" stroke="#eabfff" stroke-width="3" d="M165.183,-36.2166C159.895,-52.1437 150.479,-75.193 136.34,-91.38 115.731,-114.975 85.2786,-133.595 61.7419,-145.689"/>
<polygon fill="#eabfff" stroke="#eabfff" points="60.2631,-143.298 54.3643,-149.385 62.7711,-148.305 60.2631,-143.298"/>
</a>
</g>
<!-- PATZ1_KLF4&#45;&gt;POU3F3_POU3F4 -->
<g id="edge60" class="edge"><title>PATZ1_KLF4&#45;&gt;POU3F3_POU3F4</title>
<a xlink:title="POU3F3: 0.287||remove24">
<path fill="none" stroke="#e4abff" stroke-width="3" d="M139.139,-36.0675C132.28,-40.0273 124.944,-44.263 117.845,-48.3616"/>
<polygon fill="#e4abff" stroke="#e4abff" points="116.38,-45.9743 110.852,-52.3992 119.18,-50.824 116.38,-45.9743"/>
</a>
</g>
<!-- PATZ1_KLF4&#45;&gt;PATZ1_KLF4 -->
<g id="edge58" class="edge"><title>PATZ1_KLF4&#45;&gt;PATZ1_KLF4</title>
<a xlink:title="PATZ1: 0.441||KLF4: 0.051||remove24">
<path fill="none" stroke="#de9aff" stroke-width="3" d="M208.647,-24.6907C218.767,-24.3083 226.433,-22.0781 226.433,-18 226.433,-15.1326 222.643,-13.1787 216.875,-12.1384"/>
<polygon fill="#de9aff" stroke="#de9aff" points="216.887,-9.32556 208.647,-11.3093 216.326,-14.8973 216.887,-9.32556"/>
</a>
</g>
<!-- ZEB1 -->
<g id="node33" class="node"><title>ZEB1</title>
<a xlink:href="ZEB1.svg" xlink:title="Z&#45;value: 1.478||remove12">
<polygon fill="#909bff" stroke="#909bff" stroke-width="2" points="290.433,-36 260.433,-36 248.433,-24 248.433,-12 260.433,-0 290.433,-0 302.433,-12 302.433,-24 290.433,-36"/>
<path fill="#909bff" stroke="#909bff" stroke-width="2" d="M260.433,-36C254.433,-36 248.433,-30 248.433,-24"/>
<path fill="#909bff" stroke="#909bff" stroke-width="2" d="M248.433,-12C248.433,-6 254.433,-0 260.433,-0"/>
<path fill="#909bff" stroke="#909bff" stroke-width="2" d="M290.433,-0C296.433,-0 302.433,-6 302.433,-12"/>
<path fill="#909bff" stroke="#909bff" stroke-width="2" d="M302.433,-24C302.433,-30 296.433,-36 290.433,-36"/>
<polyline fill="none" stroke="white" stroke-width="2" points="290.433,-36 260.433,-36 "/>
<path fill="none" stroke="white" stroke-width="2" d="M260.433,-36C254.433,-36 248.433,-30 248.433,-24"/>
<polyline fill="none" stroke="white" stroke-width="2" points="248.433,-24 248.433,-12 "/>
<path fill="none" stroke="white" stroke-width="2" d="M248.433,-12C248.433,-6 254.433,-0 260.433,-0"/>
<polyline fill="none" stroke="white" stroke-width="2" points="260.433,-0 290.433,-0 "/>
<path fill="none" stroke="white" stroke-width="2" d="M290.433,-0C296.433,-0 302.433,-6 302.433,-12"/>
<polyline fill="none" stroke="white" stroke-width="2" points="302.433,-12 302.433,-24 "/>
<path fill="none" stroke="white" stroke-width="2" d="M302.433,-24C302.433,-30 296.433,-36 290.433,-36"/>
<text text-anchor="middle" x="275.433" y="-15.5" font-family="Helvetica,sans-Serif" font-size="10.00">ZEB1</text>
</a>
</g>
<!-- PATZ1_KLF4&#45;&gt;ZEB1 -->
<g id="edge46" class="edge"><title>PATZ1_KLF4&#45;&gt;ZEB1</title>
<a xlink:title="ZEB1: 0.088||remove12">
<path fill="none" stroke="#ebc2ff" stroke-width="3" d="M208.637,-18C218.899,-18 229.949,-18 240.05,-18"/>
<polygon fill="#ebc2ff" stroke="#ebc2ff" points="240.273,-20.8001 248.273,-18 240.273,-15.2001 240.273,-20.8001"/>
</a>
</g>
<!-- TFAP2B&#45;&gt;PATZ1_KLF4 -->
<g id="edge90" class="edge"><title>TFAP2B&#45;&gt;PATZ1_KLF4</title>
<a xlink:title="PATZ1: 0.042||remove9root">
<path fill="none" stroke="#edc7ff" stroke-width="3" d="M355.831,-339.12C323.073,-282.381 222.932,-108.932 185.107,-43.4169"/>
<polygon fill="#edc7ff" stroke="#edc7ff" points="187.444,-41.8642 181.019,-36.336 182.594,-44.6642 187.444,-41.8642"/>
</a>
</g>
<!-- ZEB1&#45;&gt;ZNF740_ZNF219 -->
<g id="edge64" class="edge"><title>ZEB1&#45;&gt;ZNF740_ZNF219</title>
<a xlink:title="ZNF740: 0.010||remove0root">
<path fill="none" stroke="#eecaff" stroke-width="3" d="M264.038,-36.0511C245.204,-66.8871 207.982,-132.28 191.033,-193.053 172.398,-259.867 169.892,-342.261 169.968,-383.595"/>
<polygon fill="#eecaff" stroke="#eecaff" points="167.17,-383.789 170.019,-391.771 172.769,-383.754 167.17,-383.789"/>
</a>
</g>
<!-- ZEB1&#45;&gt;POU6F1 -->
<g id="edge66" class="edge"><title>ZEB1&#45;&gt;POU6F1</title>
<a xlink:title="POU6F1: 0.045||remove12root">
<path fill="none" stroke="#c6ccff" stroke-width="3" d="M270.588,-36.0817C261.231,-71.0019 240.647,-147.822 229.851,-188.113"/>
<polygon fill="#c6ccff" stroke="#c6ccff" points="227.132,-187.443 227.766,-195.895 232.541,-188.892 227.132,-187.443"/>
</a>
</g>
<!-- ZEB1&#45;&gt;KLF8 -->
<g id="edge68" class="edge"><title>ZEB1&#45;&gt;KLF8</title>
<a xlink:title="KLF8: 0.087||remove12">
<path fill="none" stroke="#ebc2ff" stroke-width="3" d="M248.373,-33.6229C202.825,-59.9201 110.941,-112.97 61.069,-141.763"/>
<polygon fill="#ebc2ff" stroke="#ebc2ff" points="59.5544,-139.404 54.0262,-145.829 62.3544,-144.254 59.5544,-139.404"/>
</a>
</g>
<!-- ZEB1&#45;&gt;ZEB1 -->
<g id="edge62" class="edge"><title>ZEB1&#45;&gt;ZEB1</title>
<a xlink:title="ZEB1: 0.449||remove12">
<path fill="none" stroke="#de99ff" stroke-width="3" d="M302.673,-24.7434C312.457,-24.8884 320.433,-22.6406 320.433,-18 320.433,-14.7371 316.489,-12.6571 310.747,-11.7601"/>
<polygon fill="#de99ff" stroke="#de99ff" points="310.832,-8.96005 302.673,-11.2566 310.484,-14.5492 310.832,-8.96005"/>
</a>
</g>
<!-- SP3 -->
<g id="node47" class="node"><title>SP3</title>
<a xlink:href="SP3.svg" xlink:title="Z&#45;value: 1.634||remove27">
<polygon fill="#8a96ff" stroke="#8a96ff" stroke-width="2" points="381.365,-88.5 351.365,-88.5 339.365,-76.5 339.365,-64.5 351.365,-52.5 381.365,-52.5 393.365,-64.5 393.365,-76.5 381.365,-88.5"/>
<path fill="#8a96ff" stroke="#8a96ff" stroke-width="2" d="M351.365,-88.5C345.365,-88.5 339.365,-82.5 339.365,-76.5"/>
<path fill="#8a96ff" stroke="#8a96ff" stroke-width="2" d="M339.365,-64.5C339.365,-58.5 345.365,-52.5 351.365,-52.5"/>
<path fill="#8a96ff" stroke="#8a96ff" stroke-width="2" d="M381.365,-52.5C387.365,-52.5 393.365,-58.5 393.365,-64.5"/>
<path fill="#8a96ff" stroke="#8a96ff" stroke-width="2" d="M393.365,-76.5C393.365,-82.5 387.365,-88.5 381.365,-88.5"/>
<polyline fill="none" stroke="white" stroke-width="2" points="381.365,-88.5 351.365,-88.5 "/>
<path fill="none" stroke="white" stroke-width="2" d="M351.365,-88.5C345.365,-88.5 339.365,-82.5 339.365,-76.5"/>
<polyline fill="none" stroke="white" stroke-width="2" points="339.365,-76.5 339.365,-64.5 "/>
<path fill="none" stroke="white" stroke-width="2" d="M339.365,-64.5C339.365,-58.5 345.365,-52.5 351.365,-52.5"/>
<polyline fill="none" stroke="white" stroke-width="2" points="351.365,-52.5 381.365,-52.5 "/>
<path fill="none" stroke="white" stroke-width="2" d="M381.365,-52.5C387.365,-52.5 393.365,-58.5 393.365,-64.5"/>
<polyline fill="none" stroke="white" stroke-width="2" points="393.365,-64.5 393.365,-76.5 "/>
<path fill="none" stroke="white" stroke-width="2" d="M393.365,-76.5C393.365,-82.5 387.365,-88.5 381.365,-88.5"/>
<text text-anchor="middle" x="366.365" y="-68" font-family="Helvetica,sans-Serif" font-size="10.00">SP3</text>
</a>
</g>
<!-- SP3&#45;&gt;ESRRA_ESR2 -->
<g id="edge84" class="edge"><title>SP3&#45;&gt;ESRRA_ESR2</title>
<a xlink:title="ESRRA: 1.361||ESR2: 0.109||remove15">
<path fill="none" stroke="#bd32ff" stroke-width="3" d="M361.476,-88.7458C346.335,-145.254 300.174,-317.528 282.458,-383.646"/>
<polygon fill="#bd32ff" stroke="#bd32ff" points="279.712,-383.077 280.346,-391.529 285.121,-384.527 279.712,-383.077"/>
</a>
</g>
<!-- SP3&#45;&gt;PBX3 -->
<g id="edge72" class="edge"><title>SP3&#45;&gt;PBX3</title>
<a xlink:title="PBX3: 0.072||remove13">
<path fill="none" stroke="#ecc3ff" stroke-width="3" d="M368.82,-88.531C372.072,-110.812 378.475,-149.768 387.545,-182.313 393.118,-202.308 401.371,-224.27 408.007,-240.738"/>
<polygon fill="#ecc3ff" stroke="#ecc3ff" points="405.498,-242.001 411.115,-248.349 410.682,-239.884 405.498,-242.001"/>
</a>
</g>
<!-- SP3&#45;&gt;ZNF740_ZNF219 -->
<g id="edge76" class="edge"><title>SP3&#45;&gt;ZNF740_ZNF219</title>
<a xlink:title="ZNF219: 0.423||ZNF740: 0.173||remove23">
<path fill="none" stroke="#df9cff" stroke-width="3" d="M355.831,-88.7458C323.073,-145.484 222.932,-318.933 185.107,-384.448"/>
<polygon fill="#df9cff" stroke="#df9cff" points="182.594,-383.201 181.019,-391.529 187.444,-386.001 182.594,-383.201"/>
</a>
</g>
<!-- SP3&#45;&gt;POU6F1 -->
<g id="edge78" class="edge"><title>SP3&#45;&gt;POU6F1</title>
<a xlink:title="POU6F1: 0.360||remove27root">
<path fill="none" stroke="#a3acff" stroke-width="3" d="M348.2,-88.6658C322.442,-114.424 275.272,-161.594 246.742,-190.124"/>
<polygon fill="#a3acff" stroke="#a3acff" points="244.628,-188.278 240.951,-195.914 248.588,-192.237 244.628,-188.278"/>
</a>
</g>
<!-- SP3&#45;&gt;BACH1_NFE2_NFE2L2 -->
<g id="edge80" class="edge"><title>SP3&#45;&gt;BACH1_NFE2_NFE2L2</title>
<a xlink:title="BACH1: 0.333||NFE2L2: 0.212||NFE2: 0.038||remove22">
<path fill="none" stroke="#e2a6ff" stroke-width="3" d="M356.985,-88.5862C339.783,-120.613 300.714,-188.299 254.833,-234.813 214,-276.208 157.534,-312.808 119.828,-334.995"/>
<polygon fill="#e2a6ff" stroke="#e2a6ff" points="118.05,-332.791 112.547,-339.238 120.869,-337.629 118.05,-332.791"/>
</a>
</g>
<!-- SP3&#45;&gt;NR3C1 -->
<g id="edge82" class="edge"><title>SP3&#45;&gt;NR3C1</title>
<a xlink:title="NR3C1: 0.115||remove21root">
<path fill="none" stroke="#eabfff" stroke-width="3" d="M339.167,-86.2028C277.858,-121.6 128.965,-207.563 61.3831,-246.582"/>
<polygon fill="#eabfff" stroke="#eabfff" points="59.8558,-244.23 54.3276,-250.655 62.6558,-249.08 59.8558,-244.23"/>
</a>
</g>
<!-- SP3&#45;&gt;KLF8 -->
<g id="edge86" class="edge"><title>SP3&#45;&gt;KLF8</title>
<a xlink:title="KLF8: 0.265||remove19">
<path fill="none" stroke="#e5aeff" stroke-width="3" d="M339.167,-77.7877C278.106,-94.149 130.169,-133.789 62.2079,-151.999"/>
<polygon fill="#e5aeff" stroke="#e5aeff" points="61.3302,-149.335 54.3276,-154.11 62.7797,-154.744 61.3302,-149.335"/>
</a>
</g>
<!-- SP3&#45;&gt;PATZ1_KLF4 -->
<g id="edge88" class="edge"><title>SP3&#45;&gt;PATZ1_KLF4</title>
<a xlink:title="PATZ1: 0.077||KLF4: 0.020||remove17root">
<path fill="none" stroke="#ebc3ff" stroke-width="3" d="M339.127,-63.6462C314.32,-57.359 276.699,-47.7101 244.113,-38.88 235.18,-36.4594 225.658,-33.8115 216.526,-31.2387"/>
<polygon fill="#ebc3ff" stroke="#ebc3ff" points="217.088,-28.4876 208.628,-29.0047 215.564,-33.8763 217.088,-28.4876"/>
</a>
</g>
<!-- SP3&#45;&gt;ZEB1 -->
<g id="edge74" class="edge"><title>SP3&#45;&gt;ZEB1</title>
<a xlink:title="ZEB1: 0.073||remove12">
<path fill="none" stroke="#ecc3ff" stroke-width="3" d="M339.083,-54.7483C329.911,-49.4532 319.558,-43.4758 309.908,-37.9042"/>
<polygon fill="#ecc3ff" stroke="#ecc3ff" points="311.024,-35.3158 302.696,-33.7406 308.224,-40.1655 311.024,-35.3158"/>
</a>
</g>
<!-- HNF4G -->
<g id="node58" class="node"><title>HNF4G</title>
<a xlink:href="HNF4G.svg" xlink:title="Z&#45;value: 0.704||remove16">
<polygon fill="#afb7ff" stroke="#afb7ff" stroke-width="2" points="433.865,-179.433 403.865,-179.433 391.865,-167.433 391.865,-155.433 403.865,-143.433 433.865,-143.433 445.865,-155.433 445.865,-167.433 433.865,-179.433"/>
<path fill="#afb7ff" stroke="#afb7ff" stroke-width="2" d="M403.865,-179.433C397.865,-179.433 391.865,-173.433 391.865,-167.433"/>
<path fill="#afb7ff" stroke="#afb7ff" stroke-width="2" d="M391.865,-155.433C391.865,-149.433 397.865,-143.433 403.865,-143.433"/>
<path fill="#afb7ff" stroke="#afb7ff" stroke-width="2" d="M433.865,-143.433C439.865,-143.433 445.865,-149.433 445.865,-155.433"/>
<path fill="#afb7ff" stroke="#afb7ff" stroke-width="2" d="M445.865,-167.433C445.865,-173.433 439.865,-179.433 433.865,-179.433"/>
<polyline fill="none" stroke="white" stroke-width="2" points="433.865,-179.433 403.865,-179.433 "/>
<path fill="none" stroke="white" stroke-width="2" d="M403.865,-179.433C397.865,-179.433 391.865,-173.433 391.865,-167.433"/>
<polyline fill="none" stroke="white" stroke-width="2" points="391.865,-167.433 391.865,-155.433 "/>
<path fill="none" stroke="white" stroke-width="2" d="M391.865,-155.433C391.865,-149.433 397.865,-143.433 403.865,-143.433"/>
<polyline fill="none" stroke="white" stroke-width="2" points="403.865,-143.433 433.865,-143.433 "/>
<path fill="none" stroke="white" stroke-width="2" d="M433.865,-143.433C439.865,-143.433 445.865,-149.433 445.865,-155.433"/>
<polyline fill="none" stroke="white" stroke-width="2" points="445.865,-155.433 445.865,-167.433 "/>
<path fill="none" stroke="white" stroke-width="2" d="M445.865,-167.433C445.865,-173.433 439.865,-179.433 433.865,-179.433"/>
<text text-anchor="middle" x="418.865" y="-158.933" font-family="Helvetica,sans-Serif" font-size="10.00">HNF4G</text>
</a>
</g>
<!-- HNF4G&#45;&gt;ESRRA_ESR2 -->
<g id="edge98" class="edge"><title>HNF4G&#45;&gt;ESRRA_ESR2</title>
<a xlink:title="ESRRA: 0.024||remove4root">
<path fill="none" stroke="#edc9ff" stroke-width="3" d="M408.318,-179.701C383.037,-223.49 318.936,-334.516 290,-384.634"/>
<polygon fill="#edc9ff" stroke="#edc9ff" points="287.57,-383.242 285.995,-391.571 292.42,-386.043 287.57,-383.242"/>
</a>
</g>
<!-- HNF4G&#45;&gt;PBX3 -->
<g id="edge92" class="edge"><title>HNF4G&#45;&gt;PBX3</title>
<a xlink:title="PBX3: 0.087||remove13">
<path fill="none" stroke="#ebc2ff" stroke-width="3" d="M418.865,-179.722C418.865,-196.435 418.865,-221.339 418.865,-240.176"/>
<polygon fill="#ebc2ff" stroke="#ebc2ff" points="416.065,-240.353 418.865,-248.353 421.665,-240.353 416.065,-240.353"/>
</a>
</g>
<!-- HNF4G&#45;&gt;ZNF740_ZNF219 -->
<g id="edge94" class="edge"><title>HNF4G&#45;&gt;ZNF740_ZNF219</title>
<a xlink:title="ZNF219: 0.072||remove14root">
<path fill="none" stroke="#ecc3ff" stroke-width="3" d="M400.598,-179.701C356.449,-223.849 243.957,-336.341 194.444,-385.854"/>
<polygon fill="#ecc3ff" stroke="#ecc3ff" points="192.404,-383.934 188.727,-391.571 196.364,-387.894 192.404,-383.934"/>
</a>
</g>
<!-- HNF4G&#45;&gt;POU6F1 -->
<g id="edge96" class="edge"><title>HNF4G&#45;&gt;POU6F1</title>
<a xlink:title="POU6F1: 0.076||remove16root">
<path fill="none" stroke="#c3c9ff" stroke-width="3" d="M391.622,-168.733C356.772,-178.07 296.356,-194.259 258.076,-204.516"/>
<polygon fill="#c3c9ff" stroke="#c3c9ff" points="257.263,-201.835 250.26,-206.61 258.712,-207.244 257.263,-201.835"/>
</a>
</g>
</g>
</svg>
