<?xml version="1.0" ?><!DOCTYPE svg  PUBLIC '-//W3C//DTD SVG 1.1//EN'  'http://www.w3.org/Graphics/SVG/1.1/DTD/svg11.dtd'><!-- Generated by graphviz version 2.28.0 (20110630.0925)
 --><!-- Title: _anonymous_0 Pages: 1 --><svg height="416pt" onload="init(evt)" width="585pt" xmlns="http://www.w3.org/2000/svg" xmlns:ismara="ismara.unibas.ch" xmlns:xlink="http://www.w3.org/1999/xlink">
<g class="graph" id="graph1" transform="scale(1 1) rotate(0) translate(54 362.449)">

<polygon fill="white" points="-4,5 -4,-362.449 432.449,-362.449 432.449,5 -4,5" stroke="white"/>
<!-- ESR1 -->
<g class="node" id="node1">
<a class="remove11" onmousemove="ShowTooltip(evt, 'Z-value: 6.597')" onmouseout="HideTooltip(evt)" xlink:href="ESR1.svg">
<polygon fill="#3247ff" points="262.425,-358.449 232.425,-358.449 220.425,-346.449 220.425,-334.449 232.425,-322.449 262.425,-322.449 274.425,-334.449 274.425,-346.449 262.425,-358.449" stroke="#3247ff" stroke-width="2"/>
<path d="M232.425,-358.449C226.425,-358.449 220.425,-352.449 220.425,-346.449" fill="#3247ff" stroke="#3247ff" stroke-width="2"/>
<path d="M220.425,-334.449C220.425,-328.449 226.425,-322.449 232.425,-322.449" fill="#3247ff" stroke="#3247ff" stroke-width="2"/>
<path d="M262.425,-322.449C268.425,-322.449 274.425,-328.449 274.425,-334.449" fill="#3247ff" stroke="#3247ff" stroke-width="2"/>
<path d="M274.425,-346.449C274.425,-352.449 268.425,-358.449 262.425,-358.449" fill="#3247ff" stroke="#3247ff" stroke-width="2"/>
<polyline fill="none" points="262.425,-358.449 232.425,-358.449 " stroke="white" stroke-width="2"/>
<path d="M232.425,-358.449C226.425,-358.449 220.425,-352.449 220.425,-346.449" fill="none" stroke="white" stroke-width="2"/>
<polyline fill="none" points="220.425,-346.449 220.425,-334.449 " stroke="white" stroke-width="2"/>
<path d="M220.425,-334.449C220.425,-328.449 226.425,-322.449 232.425,-322.449" fill="none" stroke="white" stroke-width="2"/>
<polyline fill="none" points="232.425,-322.449 262.425,-322.449 " stroke="white" stroke-width="2"/>
<path d="M262.425,-322.449C268.425,-322.449 274.425,-328.449 274.425,-334.449" fill="none" stroke="white" stroke-width="2"/>
<polyline fill="none" points="274.425,-334.449 274.425,-346.449 " stroke="white" stroke-width="2"/>
<path d="M274.425,-346.449C274.425,-352.449 268.425,-358.449 262.425,-358.449" fill="none" stroke="white" stroke-width="2"/>
<text fill="white" font-family="Helvetica,sans-Serif" font-size="10.00" text-anchor="middle" x="247.425" y="-337.949">ESR1</text>
</a>
</g>
<!-- POU6F2 -->
<g class="node" id="node2">
<a class="remove19" onmousemove="ShowTooltip(evt, 'Z-value: 0.280')" onmouseout="HideTooltip(evt)" xlink:href="POU6F2.svg">
<polygon fill="#ffc5c5" points="219.475,-197.225 188.975,-197.225 176.975,-185.225 176.975,-173.225 188.975,-161.225 219.475,-161.225 231.475,-173.225 231.475,-185.225 219.475,-197.225" stroke="#ffc5c5" stroke-width="2"/>
<path d="M188.975,-197.225C182.975,-197.225 176.975,-191.225 176.975,-185.225" fill="#ffc5c5" stroke="#ffc5c5" stroke-width="2"/>
<path d="M176.975,-173.225C176.975,-167.225 182.975,-161.225 188.975,-161.225" fill="#ffc5c5" stroke="#ffc5c5" stroke-width="2"/>
<path d="M219.475,-161.225C225.475,-161.225 231.475,-167.225 231.475,-173.225" fill="#ffc5c5" stroke="#ffc5c5" stroke-width="2"/>
<path d="M231.475,-185.225C231.475,-191.225 225.475,-197.225 219.475,-197.225" fill="#ffc5c5" stroke="#ffc5c5" stroke-width="2"/>
<polyline fill="none" points="219.475,-197.225 188.975,-197.225 " stroke="white" stroke-width="2"/>
<path d="M188.975,-197.225C182.975,-197.225 176.975,-191.225 176.975,-185.225" fill="none" stroke="white" stroke-width="2"/>
<polyline fill="none" points="176.975,-185.225 176.975,-173.225 " stroke="white" stroke-width="2"/>
<path d="M176.975,-173.225C176.975,-167.225 182.975,-161.225 188.975,-161.225" fill="none" stroke="white" stroke-width="2"/>
<polyline fill="none" points="188.975,-161.225 219.475,-161.225 " stroke="white" stroke-width="2"/>
<path d="M219.475,-161.225C225.475,-161.225 231.475,-167.225 231.475,-173.225" fill="none" stroke="white" stroke-width="2"/>
<polyline fill="none" points="231.475,-173.225 231.475,-185.225 " stroke="white" stroke-width="2"/>
<path d="M231.475,-185.225C231.475,-191.225 225.475,-197.225 219.475,-197.225" fill="none" stroke="white" stroke-width="2"/>
<text font-family="Helvetica,sans-Serif" font-size="10.00" text-anchor="middle" x="204.225" y="-176.725">POU6F2</text>
</a>
</g>
<!-- ESR1&#45;&gt;POU6F2 -->
<g class="edge" id="edge2">
<a class="remove11 root" ismara:data="0.074" onmousemove="ShowTooltip(evt, 'POU6F2: 0.074')" onmouseout="HideTooltip(evt)">
<path d="M242.553,-322.268C234.904,-293.723 220.045,-238.267 211.244,-205.42" fill="none" stroke="#9ba5ff" stroke-width="3"/>
<polygon fill="#9ba5ff" points="213.92,-204.589 209.145,-197.587 208.511,-206.039 213.92,-204.589" stroke="#9ba5ff"/>
</a>
</g>
<!-- PBX2 -->
<g class="node" id="node4">
<a class="remove13" onmousemove="ShowTooltip(evt, 'Z-value: 0.216')" onmouseout="HideTooltip(evt)" xlink:href="PBX2.svg">
<polygon fill="#c6ccff" points="380.449,-240.425 350.449,-240.425 338.449,-228.425 338.449,-216.425 350.449,-204.425 380.449,-204.425 392.449,-216.425 392.449,-228.425 380.449,-240.425" stroke="#c6ccff" stroke-width="2"/>
<path d="M350.449,-240.425C344.449,-240.425 338.449,-234.425 338.449,-228.425" fill="#c6ccff" stroke="#c6ccff" stroke-width="2"/>
<path d="M338.449,-216.425C338.449,-210.425 344.449,-204.425 350.449,-204.425" fill="#c6ccff" stroke="#c6ccff" stroke-width="2"/>
<path d="M380.449,-204.425C386.449,-204.425 392.449,-210.425 392.449,-216.425" fill="#c6ccff" stroke="#c6ccff" stroke-width="2"/>
<path d="M392.449,-228.425C392.449,-234.425 386.449,-240.425 380.449,-240.425" fill="#c6ccff" stroke="#c6ccff" stroke-width="2"/>
<polyline fill="none" points="380.449,-240.425 350.449,-240.425 " stroke="white" stroke-width="2"/>
<path d="M350.449,-240.425C344.449,-240.425 338.449,-234.425 338.449,-228.425" fill="none" stroke="white" stroke-width="2"/>
<polyline fill="none" points="338.449,-228.425 338.449,-216.425 " stroke="white" stroke-width="2"/>
<path d="M338.449,-216.425C338.449,-210.425 344.449,-204.425 350.449,-204.425" fill="none" stroke="white" stroke-width="2"/>
<polyline fill="none" points="350.449,-204.425 380.449,-204.425 " stroke="white" stroke-width="2"/>
<path d="M380.449,-204.425C386.449,-204.425 392.449,-210.425 392.449,-216.425" fill="none" stroke="white" stroke-width="2"/>
<polyline fill="none" points="392.449,-216.425 392.449,-228.425 " stroke="white" stroke-width="2"/>
<path d="M392.449,-228.425C392.449,-234.425 386.449,-240.425 380.449,-240.425" fill="none" stroke="white" stroke-width="2"/>
<text font-family="Helvetica,sans-Serif" font-size="10.00" text-anchor="middle" x="365.449" y="-219.925">PBX2</text>
</a>
</g>
<!-- POU6F2&#45;&gt;PBX2 -->
<g class="edge" id="edge4">
<a class="remove13 root" ismara:data="0.103" onmousemove="ShowTooltip(evt, 'PBX2: 0.103')" onmouseout="HideTooltip(evt)">
<path d="M231.94,-186.651C259.18,-193.95 300.847,-205.114 330.378,-213.027" fill="none" stroke="#ff8888" stroke-width="3"/>
<polygon fill="#ff8888" points="329.912,-215.801 338.364,-215.167 331.361,-210.392 329.912,-215.801" stroke="#ff8888"/>
</a>
</g>
<!-- OVOL1 -->
<g class="node" id="node6">
<a class="remove12" onmousemove="ShowTooltip(evt, 'Z-value: 0.157')" onmouseout="HideTooltip(evt)" xlink:href="OVOL1.svg">
<polygon fill="#c8cdff" points="337.249,-315.249 307.249,-315.249 295.249,-303.249 295.249,-291.249 307.249,-279.249 337.249,-279.249 349.249,-291.249 349.249,-303.249 337.249,-315.249" stroke="#c8cdff" stroke-width="2"/>
<path d="M307.249,-315.249C301.249,-315.249 295.249,-309.249 295.249,-303.249" fill="#c8cdff" stroke="#c8cdff" stroke-width="2"/>
<path d="M295.249,-291.249C295.249,-285.249 301.249,-279.249 307.249,-279.249" fill="#c8cdff" stroke="#c8cdff" stroke-width="2"/>
<path d="M337.249,-279.249C343.249,-279.249 349.249,-285.249 349.249,-291.249" fill="#c8cdff" stroke="#c8cdff" stroke-width="2"/>
<path d="M349.249,-303.249C349.249,-309.249 343.249,-315.249 337.249,-315.249" fill="#c8cdff" stroke="#c8cdff" stroke-width="2"/>
<polyline fill="none" points="337.249,-315.249 307.249,-315.249 " stroke="white" stroke-width="2"/>
<path d="M307.249,-315.249C301.249,-315.249 295.249,-309.249 295.249,-303.249" fill="none" stroke="white" stroke-width="2"/>
<polyline fill="none" points="295.249,-303.249 295.249,-291.249 " stroke="white" stroke-width="2"/>
<path d="M295.249,-291.249C295.249,-285.249 301.249,-279.249 307.249,-279.249" fill="none" stroke="white" stroke-width="2"/>
<polyline fill="none" points="307.249,-279.249 337.249,-279.249 " stroke="white" stroke-width="2"/>
<path d="M337.249,-279.249C343.249,-279.249 349.249,-285.249 349.249,-291.249" fill="none" stroke="white" stroke-width="2"/>
<polyline fill="none" points="349.249,-291.249 349.249,-303.249 " stroke="white" stroke-width="2"/>
<path d="M349.249,-303.249C349.249,-309.249 343.249,-315.249 337.249,-315.249" fill="none" stroke="white" stroke-width="2"/>
<text font-family="Helvetica,sans-Serif" font-size="10.00" text-anchor="middle" x="322.249" y="-294.749">OVOL1</text>
</a>
</g>
<!-- POU6F2&#45;&gt;OVOL1 -->
<g class="edge" id="edge6">
<a class="remove12 root" ismara:data="0.084" onmousemove="ShowTooltip(evt, 'OVOL1: 0.084')" onmouseout="HideTooltip(evt)">
<path d="M222.407,-197.407C242.826,-217.826 276.037,-251.037 298.494,-273.494" fill="none" stroke="#ff9494" stroke-width="3"/>
<polygon fill="#ff9494" points="296.603,-275.563 304.24,-279.24 300.563,-271.603 296.603,-275.563" stroke="#ff9494"/>
</a>
</g>
<!-- YY1_YY2 -->
<g class="node" id="node8">
<a class="remove15" onmousemove="ShowTooltip(evt, 'Z-value: 1.199')" onmouseout="HideTooltip(evt)" xlink:href="YY1_YY2.svg">
<polygon fill="#b0b8ff" points="178.275,-358.449 143.775,-358.449 131.775,-346.449 131.775,-334.449 143.775,-322.449 178.275,-322.449 190.275,-334.449 190.275,-346.449 178.275,-358.449" stroke="#b0b8ff" stroke-width="2"/>
<path d="M143.775,-358.449C137.775,-358.449 131.775,-352.449 131.775,-346.449" fill="#b0b8ff" stroke="#b0b8ff" stroke-width="2"/>
<path d="M131.775,-334.449C131.775,-328.449 137.775,-322.449 143.775,-322.449" fill="#b0b8ff" stroke="#b0b8ff" stroke-width="2"/>
<path d="M178.275,-322.449C184.275,-322.449 190.275,-328.449 190.275,-334.449" fill="#b0b8ff" stroke="#b0b8ff" stroke-width="2"/>
<path d="M190.275,-346.449C190.275,-352.449 184.275,-358.449 178.275,-358.449" fill="#b0b8ff" stroke="#b0b8ff" stroke-width="2"/>
<polyline fill="none" points="178.275,-358.449 143.775,-358.449 " stroke="white" stroke-width="2"/>
<path d="M143.775,-358.449C137.775,-358.449 131.775,-352.449 131.775,-346.449" fill="none" stroke="white" stroke-width="2"/>
<polyline fill="none" points="131.775,-346.449 131.775,-334.449 " stroke="white" stroke-width="2"/>
<path d="M131.775,-334.449C131.775,-328.449 137.775,-322.449 143.775,-322.449" fill="none" stroke="white" stroke-width="2"/>
<polyline fill="none" points="143.775,-322.449 178.275,-322.449 " stroke="white" stroke-width="2"/>
<path d="M178.275,-322.449C184.275,-322.449 190.275,-328.449 190.275,-334.449" fill="none" stroke="white" stroke-width="2"/>
<polyline fill="none" points="190.275,-334.449 190.275,-346.449 " stroke="white" stroke-width="2"/>
<path d="M190.275,-346.449C190.275,-352.449 184.275,-358.449 178.275,-358.449" fill="none" stroke="white" stroke-width="2"/>
<text font-family="Helvetica,sans-Serif" font-size="10.00" text-anchor="middle" x="161.025" y="-337.949">YY1_YY2</text>
</a>
</g>
<!-- YY1_YY2&#45;&gt;POU6F2 -->
<g class="edge" id="edge10">
<a class="remove15 root" ismara:data="0.145" onmousemove="ShowTooltip(evt, 'POU6F2: 0.145')" onmouseout="HideTooltip(evt)">
<path d="M165.896,-322.268C173.545,-293.723 188.404,-238.267 197.206,-205.42" fill="none" stroke="#6c7aff" stroke-width="3"/>
<polygon fill="#6c7aff" points="199.938,-206.039 199.305,-197.587 194.529,-204.589 199.938,-206.039" stroke="#6c7aff"/>
</a>
</g>
<!-- BPTF -->
<g class="node" id="node9">
<a class="remove8" onmousemove="ShowTooltip(evt, 'Z-value: 0.790')" onmouseout="HideTooltip(evt)" xlink:href="BPTF.svg">
<polygon fill="#b9c0ff" points="101.2,-315.249 71.2,-315.249 59.2,-303.249 59.2,-291.249 71.2,-279.249 101.2,-279.249 113.2,-291.249 113.2,-303.249 101.2,-315.249" stroke="#b9c0ff" stroke-width="2"/>
<path d="M71.2,-315.249C65.2,-315.249 59.2,-309.249 59.2,-303.249" fill="#b9c0ff" stroke="#b9c0ff" stroke-width="2"/>
<path d="M59.2,-291.249C59.2,-285.249 65.2,-279.249 71.2,-279.249" fill="#b9c0ff" stroke="#b9c0ff" stroke-width="2"/>
<path d="M101.2,-279.249C107.2,-279.249 113.2,-285.249 113.2,-291.249" fill="#b9c0ff" stroke="#b9c0ff" stroke-width="2"/>
<path d="M113.2,-303.249C113.2,-309.249 107.2,-315.249 101.2,-315.249" fill="#b9c0ff" stroke="#b9c0ff" stroke-width="2"/>
<polyline fill="none" points="101.2,-315.249 71.2,-315.249 " stroke="white" stroke-width="2"/>
<path d="M71.2,-315.249C65.2,-315.249 59.2,-309.249 59.2,-303.249" fill="none" stroke="white" stroke-width="2"/>
<polyline fill="none" points="59.2,-303.249 59.2,-291.249 " stroke="white" stroke-width="2"/>
<path d="M59.2,-291.249C59.2,-285.249 65.2,-279.249 71.2,-279.249" fill="none" stroke="white" stroke-width="2"/>
<polyline fill="none" points="71.2,-279.249 101.2,-279.249 " stroke="white" stroke-width="2"/>
<path d="M101.2,-279.249C107.2,-279.249 113.2,-285.249 113.2,-291.249" fill="none" stroke="white" stroke-width="2"/>
<polyline fill="none" points="113.2,-291.249 113.2,-303.249 " stroke="white" stroke-width="2"/>
<path d="M113.2,-303.249C113.2,-309.249 107.2,-315.249 101.2,-315.249" fill="none" stroke="white" stroke-width="2"/>
<text font-family="Helvetica,sans-Serif" font-size="10.00" text-anchor="middle" x="86.2" y="-294.749">BPTF</text>
</a>
</g>
<!-- YY1_YY2&#45;&gt;BPTF -->
<g class="edge" id="edge8">
<a class="remove8" ismara:data="0.122" onmousemove="ShowTooltip(evt, 'BPTF: 0.122|YY2: 0.008')" onmouseout="HideTooltip(evt)">
<path d="M123.972,-320.211C122.715,-319.486 121.457,-318.759 120.203,-318.036" fill="none" stroke="#d47bff" stroke-width="3"/>
<path d="M124.972,-318.479C123.715,-317.754 122.457,-317.027 121.203,-316.304" fill="none" stroke="#edc6ff" stroke-width="3"/>
<polygon fill="#edc6ff" points="123.124,-321.8 131.452,-323.375 125.924,-316.95 123.124,-321.8" stroke="#edc6ff"/>
<polygon fill="#d47bff" points="121.939,-314.65 113.611,-313.075 119.139,-319.5 121.939,-314.65" stroke="#d47bff"/>
</a>
</g>
<!-- BPTF&#45;&gt;ESR1 -->
<g class="edge" id="edge16">
<a class="remove4 root" ismara:data="0.057" onmousemove="ShowTooltip(evt, 'ESR1: 0.057')" onmouseout="HideTooltip(evt)">
<path d="M113.421,-301.43C135.684,-305.18 167.85,-311.356 195.245,-319.569 200.963,-321.284 206.929,-323.371 212.698,-325.556" fill="none" stroke="#e2a6ff" stroke-width="3"/>
<polygon fill="#e2a6ff" points="211.929,-328.262 220.399,-328.569 213.969,-323.047 211.929,-328.262" stroke="#e2a6ff"/>
</a>
</g>
<!-- BPTF&#45;&gt;POU6F2 -->
<g class="edge" id="edge18">
<a class="remove8 root" ismara:data="0.068" onmousemove="ShowTooltip(evt, 'POU6F2: 0.068')" onmouseout="HideTooltip(evt)">
<path d="M104.383,-279.067C124.802,-258.648 158.013,-225.437 180.469,-202.98" fill="none" stroke="#9fa8ff" stroke-width="3"/>
<polygon fill="#9fa8ff" points="182.538,-204.871 186.215,-197.234 178.578,-200.911 182.538,-204.871" stroke="#9fa8ff"/>
</a>
</g>
<!-- GATA1_GATA4 -->
<g class="node" id="node12">
<a class="remove17" onmousemove="ShowTooltip(evt, 'Z-value: 1.000')" onmouseout="HideTooltip(evt)" xlink:href="GATA1_GATA4.svg">
<polygon fill="#b4bcff" points="74,-240.425 12,-240.425 7.10543e-15,-228.425 7.10543e-15,-216.425 12,-204.425 74,-204.425 86,-216.425 86,-228.425 74,-240.425" stroke="#b4bcff" stroke-width="2"/>
<path d="M12,-240.425C6,-240.425 7.10543e-15,-234.425 7.10543e-15,-228.425" fill="#b4bcff" stroke="#b4bcff" stroke-width="2"/>
<path d="M7.10543e-15,-216.425C7.10543e-15,-210.425 6,-204.425 12,-204.425" fill="#b4bcff" stroke="#b4bcff" stroke-width="2"/>
<path d="M74,-204.425C80,-204.425 86,-210.425 86,-216.425" fill="#b4bcff" stroke="#b4bcff" stroke-width="2"/>
<path d="M86,-228.425C86,-234.425 80,-240.425 74,-240.425" fill="#b4bcff" stroke="#b4bcff" stroke-width="2"/>
<polyline fill="none" points="74,-240.425 12,-240.425 " stroke="white" stroke-width="2"/>
<path d="M12,-240.425C6,-240.425 7.10543e-15,-234.425 7.10543e-15,-228.425" fill="none" stroke="white" stroke-width="2"/>
<polyline fill="none" points="7.10543e-15,-228.425 7.10543e-15,-216.425 " stroke="white" stroke-width="2"/>
<path d="M7.10543e-15,-216.425C7.10543e-15,-210.425 6,-204.425 12,-204.425" fill="none" stroke="white" stroke-width="2"/>
<polyline fill="none" points="12,-204.425 74,-204.425 " stroke="white" stroke-width="2"/>
<path d="M74,-204.425C80,-204.425 86,-210.425 86,-216.425" fill="none" stroke="white" stroke-width="2"/>
<polyline fill="none" points="86,-216.425 86,-228.425 " stroke="white" stroke-width="2"/>
<path d="M86,-228.425C86,-234.425 80,-240.425 74,-240.425" fill="none" stroke="white" stroke-width="2"/>
<text font-family="Helvetica,sans-Serif" font-size="10.00" text-anchor="middle" x="43" y="-219.925">GATA1_GATA4</text>
</a>
</g>
<!-- BPTF&#45;&gt;GATA1_GATA4 -->
<g class="edge" id="edge12">
<a class="remove3 root" ismara:data="0.05" onmousemove="ShowTooltip(evt, 'GATA4: 0.050')" onmouseout="HideTooltip(evt)">
<path d="M75.7425,-279.136C70.3171,-269.739 63.6003,-258.105 57.665,-247.825" fill="none" stroke="#e4abff" stroke-width="3"/>
<polygon fill="#e4abff" points="59.9359,-246.158 53.5109,-240.63 55.0861,-248.958 59.9359,-246.158" stroke="#e4abff"/>
</a>
</g>
<!-- LEF1 -->
<g class="node" id="node14">
<a class="remove14" onmousemove="ShowTooltip(evt, 'Z-value: 0.550')" onmouseout="HideTooltip(evt)" xlink:href="LEF1.svg">
<polygon fill="#bfc5ff" points="58,-154.025 28,-154.025 16,-142.025 16,-130.025 28,-118.025 58,-118.025 70,-130.025 70,-142.025 58,-154.025" stroke="#bfc5ff" stroke-width="2"/>
<path d="M28,-154.025C22,-154.025 16,-148.025 16,-142.025" fill="#bfc5ff" stroke="#bfc5ff" stroke-width="2"/>
<path d="M16,-130.025C16,-124.025 22,-118.025 28,-118.025" fill="#bfc5ff" stroke="#bfc5ff" stroke-width="2"/>
<path d="M58,-118.025C64,-118.025 70,-124.025 70,-130.025" fill="#bfc5ff" stroke="#bfc5ff" stroke-width="2"/>
<path d="M70,-142.025C70,-148.025 64,-154.025 58,-154.025" fill="#bfc5ff" stroke="#bfc5ff" stroke-width="2"/>
<polyline fill="none" points="58,-154.025 28,-154.025 " stroke="white" stroke-width="2"/>
<path d="M28,-154.025C22,-154.025 16,-148.025 16,-142.025" fill="none" stroke="white" stroke-width="2"/>
<polyline fill="none" points="16,-142.025 16,-130.025 " stroke="white" stroke-width="2"/>
<path d="M16,-130.025C16,-124.025 22,-118.025 28,-118.025" fill="none" stroke="white" stroke-width="2"/>
<polyline fill="none" points="28,-118.025 58,-118.025 " stroke="white" stroke-width="2"/>
<path d="M58,-118.025C64,-118.025 70,-124.025 70,-130.025" fill="none" stroke="white" stroke-width="2"/>
<polyline fill="none" points="70,-130.025 70,-142.025 " stroke="white" stroke-width="2"/>
<path d="M70,-142.025C70,-148.025 64,-154.025 58,-154.025" fill="none" stroke="white" stroke-width="2"/>
<text font-family="Helvetica,sans-Serif" font-size="10.00" text-anchor="middle" x="43" y="-133.525">LEF1</text>
</a>
</g>
<!-- BPTF&#45;&gt;LEF1 -->
<g class="edge" id="edge14">
<a class="remove1 root" ismara:data="0.006" onmousemove="ShowTooltip(evt, 'LEF1: 0.006')" onmouseout="HideTooltip(evt)">
<path d="M91.5509,-279.081C96.4139,-259.425 101.611,-227.427 92.88,-201.545 87.7135,-186.229 77.3812,-171.662 67.4539,-160.169" fill="none" stroke="#edc7ff" stroke-width="3"/>
<polygon fill="#edc7ff" points="69.4449,-158.195 62.0157,-154.115 65.279,-161.938 69.4449,-158.195" stroke="#edc7ff"/>
</a>
</g>
<!-- GATA1_GATA4&#45;&gt;ESR1 -->
<g class="edge" id="edge22">
<a class="remove11" ismara:data="0.109" onmousemove="ShowTooltip(evt, 'ESR1: 0.109')" onmouseout="HideTooltip(evt)">
<path d="M74.4933,-240.607C112.028,-262.278 174.519,-298.357 213.213,-320.697" fill="none" stroke="#d784ff" stroke-width="3"/>
<polygon fill="#d784ff" points="211.822,-323.127 220.15,-324.702 214.622,-318.277 211.822,-323.127" stroke="#d784ff"/>
</a>
</g>
<!-- GATA1_GATA4&#45;&gt;POU6F2 -->
<g class="edge" id="edge24">
<a class="remove17 root" ismara:data="0.181" onmousemove="ShowTooltip(evt, 'POU6F2: 0.181')" onmouseout="HideTooltip(evt)">
<path d="M86.2052,-210.848C112.016,-203.932 144.401,-195.254 168.715,-188.739" fill="none" stroke="#5566ff" stroke-width="3"/>
<polygon fill="#5566ff" points="169.627,-191.394 176.629,-186.619 168.177,-185.985 169.627,-191.394" stroke="#5566ff"/>
</a>
</g>
<!-- LEF1&#45;&gt;POU6F2 -->
<g class="edge" id="edge28">
<a class="remove14 root" ismara:data="0.119" onmousemove="ShowTooltip(evt, 'POU6F2: 0.119')" onmouseout="HideTooltip(evt)">
<path d="M70.3496,-143.353C97.449,-150.614 139.084,-161.77 168.722,-169.712" fill="none" stroke="#7d8aff" stroke-width="3"/>
<polygon fill="#7d8aff" points="168.289,-172.494 176.741,-171.86 169.738,-167.085 168.289,-172.494" stroke="#7d8aff"/>
</a>
</g>
<!-- LEF1&#45;&gt;LEF1 -->
<g class="edge" id="edge26">
<a class="remove14" ismara:data="0.158" onmousemove="ShowTooltip(evt, 'LEF1: 0.158')" onmouseout="HideTooltip(evt)">
<path d="M70.2408,-142.768C80.0239,-142.913 88,-140.665 88,-136.025 88,-132.762 84.0568,-130.682 78.3147,-129.785" fill="none" stroke="#cd63ff" stroke-width="3"/>
<polygon fill="#cd63ff" points="78.3996,-126.985 70.2408,-129.281 78.051,-132.574 78.3996,-126.985" stroke="#cd63ff"/>
</a>
</g>
<!-- RHOXF1 -->
<g class="node" id="node18">
<a class="remove5" onmousemove="ShowTooltip(evt, 'Z-value: 1.007')" onmouseout="HideTooltip(evt)" xlink:href="RHOXF1.svg">
<polygon fill="#b4bcff" points="102.45,-79.2 69.95,-79.2 57.95,-67.2 57.95,-55.2 69.95,-43.2 102.45,-43.2 114.45,-55.2 114.45,-67.2 102.45,-79.2" stroke="#b4bcff" stroke-width="2"/>
<path d="M69.95,-79.2C63.95,-79.2 57.95,-73.2 57.95,-67.2" fill="#b4bcff" stroke="#b4bcff" stroke-width="2"/>
<path d="M57.95,-55.2C57.95,-49.2 63.95,-43.2 69.95,-43.2" fill="#b4bcff" stroke="#b4bcff" stroke-width="2"/>
<path d="M102.45,-43.2C108.45,-43.2 114.45,-49.2 114.45,-55.2" fill="#b4bcff" stroke="#b4bcff" stroke-width="2"/>
<path d="M114.45,-67.2C114.45,-73.2 108.45,-79.2 102.45,-79.2" fill="#b4bcff" stroke="#b4bcff" stroke-width="2"/>
<polyline fill="none" points="102.45,-79.2 69.95,-79.2 " stroke="white" stroke-width="2"/>
<path d="M69.95,-79.2C63.95,-79.2 57.95,-73.2 57.95,-67.2" fill="none" stroke="white" stroke-width="2"/>
<polyline fill="none" points="57.95,-67.2 57.95,-55.2 " stroke="white" stroke-width="2"/>
<path d="M57.95,-55.2C57.95,-49.2 63.95,-43.2 69.95,-43.2" fill="none" stroke="white" stroke-width="2"/>
<polyline fill="none" points="69.95,-43.2 102.45,-43.2 " stroke="white" stroke-width="2"/>
<path d="M102.45,-43.2C108.45,-43.2 114.45,-49.2 114.45,-55.2" fill="none" stroke="white" stroke-width="2"/>
<polyline fill="none" points="114.45,-55.2 114.45,-67.2 " stroke="white" stroke-width="2"/>
<path d="M114.45,-67.2C114.45,-73.2 108.45,-79.2 102.45,-79.2" fill="none" stroke="white" stroke-width="2"/>
<text font-family="Helvetica,sans-Serif" font-size="10.00" text-anchor="middle" x="86.2" y="-58.7">RHOXF1</text>
</a>
</g>
<!-- RHOXF1&#45;&gt;POU6F2 -->
<g class="edge" id="edge20">
<a class="remove5 root" ismara:data="0.059" onmousemove="ShowTooltip(evt, 'POU6F2: 0.059')" onmouseout="HideTooltip(evt)">
<path d="M104.383,-79.3827C124.802,-99.8017 158.013,-133.013 180.469,-155.469" fill="none" stroke="#a5aeff" stroke-width="3"/>
<polygon fill="#a5aeff" points="178.578,-157.538 186.215,-161.215 182.538,-153.578 178.578,-157.538" stroke="#a5aeff"/>
</a>
</g>
<!-- BARHL2 -->
<g class="node" id="node24">
<a class="remove10" onmousemove="ShowTooltip(evt, 'Z-value: 0.750')" onmouseout="HideTooltip(evt)" xlink:href="BARHL2.svg">
<polygon fill="#bac1ff" points="176.525,-36 145.525,-36 133.525,-24 133.525,-12 145.525,-6.39488e-14 176.525,-6.39488e-14 188.525,-12 188.525,-24 176.525,-36" stroke="#bac1ff" stroke-width="2"/>
<path d="M145.525,-36C139.525,-36 133.525,-30 133.525,-24" fill="#bac1ff" stroke="#bac1ff" stroke-width="2"/>
<path d="M133.525,-12C133.525,-6 139.525,-6.39488e-14 145.525,-6.39488e-14" fill="#bac1ff" stroke="#bac1ff" stroke-width="2"/>
<path d="M176.525,-6.39488e-14C182.525,-6.39488e-14 188.525,-6 188.525,-12" fill="#bac1ff" stroke="#bac1ff" stroke-width="2"/>
<path d="M188.525,-24C188.525,-30 182.525,-36 176.525,-36" fill="#bac1ff" stroke="#bac1ff" stroke-width="2"/>
<polyline fill="none" points="176.525,-36 145.525,-36 " stroke="white" stroke-width="2"/>
<path d="M145.525,-36C139.525,-36 133.525,-30 133.525,-24" fill="none" stroke="white" stroke-width="2"/>
<polyline fill="none" points="133.525,-24 133.525,-12 " stroke="white" stroke-width="2"/>
<path d="M133.525,-12C133.525,-6 139.525,-6.39488e-14 145.525,-6.39488e-14" fill="none" stroke="white" stroke-width="2"/>
<polyline fill="none" points="145.525,-6.39488e-14 176.525,-6.39488e-14 " stroke="white" stroke-width="2"/>
<path d="M176.525,-6.39488e-14C182.525,-6.39488e-14 188.525,-6 188.525,-12" fill="none" stroke="white" stroke-width="2"/>
<polyline fill="none" points="188.525,-12 188.525,-24 " stroke="white" stroke-width="2"/>
<path d="M188.525,-24C188.525,-30 182.525,-36 176.525,-36" fill="none" stroke="white" stroke-width="2"/>
<text font-family="Helvetica,sans-Serif" font-size="10.00" text-anchor="middle" x="161.025" y="-15.5">BARHL2</text>
</a>
</g>
<!-- BARHL2&#45;&gt;POU6F2 -->
<g class="edge" id="edge32">
<a class="remove10 root" ismara:data="0.071" onmousemove="ShowTooltip(evt, 'POU6F2: 0.071')" onmouseout="HideTooltip(evt)">
<path d="M165.896,-36.1811C173.545,-64.7264 188.404,-120.183 197.206,-153.029" fill="none" stroke="#9da6ff" stroke-width="3"/>
<polygon fill="#9da6ff" points="194.529,-153.86 199.305,-160.863 199.938,-152.41 194.529,-153.86" stroke="#9da6ff"/>
</a>
</g>
<!-- BARHL2&#45;&gt;PBX2 -->
<g class="edge" id="edge30">
<a class="remove7 root" ismara:data="0.066" onmousemove="ShowTooltip(evt, 'PBX2: 0.066')" onmouseout="HideTooltip(evt)">
<path d="M179.166,-36.1413C216.141,-73.116 300.209,-157.184 341.567,-198.542" fill="none" stroke="#e0a0ff" stroke-width="3"/>
<polygon fill="#e0a0ff" points="339.712,-200.647 347.349,-204.324 343.672,-196.687 339.712,-200.647" stroke="#e0a0ff"/>
</a>
</g>
<!-- TBX21_TBR1 -->
<g class="node" id="node27">
<a class="remove6" onmousemove="ShowTooltip(evt, 'Z-value: 0.653')" onmouseout="HideTooltip(evt)" xlink:href="TBX21_TBR1.svg">
<polygon fill="#bcc3ff" points="273.675,-36 221.175,-36 209.175,-24 209.175,-12 221.175,-0 273.675,-0 285.675,-12 285.675,-24 273.675,-36" stroke="#bcc3ff" stroke-width="2"/>
<path d="M221.175,-36C215.175,-36 209.175,-30 209.175,-24" fill="#bcc3ff" stroke="#bcc3ff" stroke-width="2"/>
<path d="M209.175,-12C209.175,-6 215.175,-0 221.175,-0" fill="#bcc3ff" stroke="#bcc3ff" stroke-width="2"/>
<path d="M273.675,-0C279.675,-0 285.675,-6 285.675,-12" fill="#bcc3ff" stroke="#bcc3ff" stroke-width="2"/>
<path d="M285.675,-24C285.675,-30 279.675,-36 273.675,-36" fill="#bcc3ff" stroke="#bcc3ff" stroke-width="2"/>
<polyline fill="none" points="273.675,-36 221.175,-36 " stroke="white" stroke-width="2"/>
<path d="M221.175,-36C215.175,-36 209.175,-30 209.175,-24" fill="none" stroke="white" stroke-width="2"/>
<polyline fill="none" points="209.175,-24 209.175,-12 " stroke="white" stroke-width="2"/>
<path d="M209.175,-12C209.175,-6 215.175,-0 221.175,-0" fill="none" stroke="white" stroke-width="2"/>
<polyline fill="none" points="221.175,-0 273.675,-0 " stroke="white" stroke-width="2"/>
<path d="M273.675,-0C279.675,-0 285.675,-6 285.675,-12" fill="none" stroke="white" stroke-width="2"/>
<polyline fill="none" points="285.675,-12 285.675,-24 " stroke="white" stroke-width="2"/>
<path d="M285.675,-24C285.675,-30 279.675,-36 273.675,-36" fill="none" stroke="white" stroke-width="2"/>
<text font-family="Helvetica,sans-Serif" font-size="10.00" text-anchor="middle" x="247.425" y="-15.5">TBX21_TBR1</text>
</a>
</g>
<!-- TBX21_TBR1&#45;&gt;POU6F2 -->
<g class="edge" id="edge34">
<a class="remove6 root" ismara:data="0.063" onmousemove="ShowTooltip(evt, 'POU6F2: 0.063')" onmouseout="HideTooltip(evt)">
<path d="M242.553,-36.1811C234.904,-64.7264 220.045,-120.183 211.244,-153.029" fill="none" stroke="#a2abff" stroke-width="3"/>
<polygon fill="#a2abff" points="208.511,-152.41 209.145,-160.863 213.92,-153.86 208.511,-152.41" stroke="#a2abff"/>
</a>
</g>
<!-- CXXC1 -->
<g class="node" id="node29">
<a class="remove9" onmousemove="ShowTooltip(evt, 'Z-value: 0.644')" onmouseout="HideTooltip(evt)" xlink:href="CXXC1.svg">
<polygon fill="#bdc3ff" points="337.249,-79.2 307.249,-79.2 295.249,-67.2 295.249,-55.2 307.249,-43.2 337.249,-43.2 349.249,-55.2 349.249,-67.2 337.249,-79.2" stroke="#bdc3ff" stroke-width="2"/>
<path d="M307.249,-79.2C301.249,-79.2 295.249,-73.2 295.249,-67.2" fill="#bdc3ff" stroke="#bdc3ff" stroke-width="2"/>
<path d="M295.249,-55.2C295.249,-49.2 301.249,-43.2 307.249,-43.2" fill="#bdc3ff" stroke="#bdc3ff" stroke-width="2"/>
<path d="M337.249,-43.2C343.249,-43.2 349.249,-49.2 349.249,-55.2" fill="#bdc3ff" stroke="#bdc3ff" stroke-width="2"/>
<path d="M349.249,-67.2C349.249,-73.2 343.249,-79.2 337.249,-79.2" fill="#bdc3ff" stroke="#bdc3ff" stroke-width="2"/>
<polyline fill="none" points="337.249,-79.2 307.249,-79.2 " stroke="white" stroke-width="2"/>
<path d="M307.249,-79.2C301.249,-79.2 295.249,-73.2 295.249,-67.2" fill="none" stroke="white" stroke-width="2"/>
<polyline fill="none" points="295.249,-67.2 295.249,-55.2 " stroke="white" stroke-width="2"/>
<path d="M295.249,-55.2C295.249,-49.2 301.249,-43.2 307.249,-43.2" fill="none" stroke="white" stroke-width="2"/>
<polyline fill="none" points="307.249,-43.2 337.249,-43.2 " stroke="white" stroke-width="2"/>
<path d="M337.249,-43.2C343.249,-43.2 349.249,-49.2 349.249,-55.2" fill="none" stroke="white" stroke-width="2"/>
<polyline fill="none" points="349.249,-55.2 349.249,-67.2 " stroke="white" stroke-width="2"/>
<path d="M349.249,-67.2C349.249,-73.2 343.249,-79.2 337.249,-79.2" fill="none" stroke="white" stroke-width="2"/>
<text font-family="Helvetica,sans-Serif" font-size="10.00" text-anchor="middle" x="322.249" y="-58.7">CXXC1</text>
</a>
</g>
<!-- CXXC1&#45;&gt;ESR1 -->
<g class="edge" id="edge38">
<a class="remove9" ismara:data="0.171" onmousemove="ShowTooltip(evt, 'ESR1: 0.171')" onmouseout="HideTooltip(evt)">
<path d="M317.34,-79.5223C304.413,-127.765 269.402,-258.427 254.401,-314.412" fill="none" stroke="#ca5bff" stroke-width="3"/>
<polygon fill="#ca5bff" points="251.621,-313.97 252.255,-322.422 257.03,-315.42 251.621,-313.97" stroke="#ca5bff"/>
</a>
</g>
<!-- CXXC1&#45;&gt;POU6F2 -->
<g class="edge" id="edge42">
<a class="remove9 root" ismara:data="0.07" onmousemove="ShowTooltip(evt, 'POU6F2: 0.070')" onmouseout="HideTooltip(evt)">
<path d="M304.067,-79.3827C283.648,-99.8017 250.437,-133.013 227.98,-155.469" fill="none" stroke="#9ea7ff" stroke-width="3"/>
<polygon fill="#9ea7ff" points="225.911,-153.578 222.234,-161.215 229.871,-157.538 225.911,-153.578" stroke="#9ea7ff"/>
</a>
</g>
<!-- CXXC1&#45;&gt;BPTF -->
<g class="edge" id="edge40">
<a class="remove2 root" ismara:data="0.025" onmousemove="ShowTooltip(evt, 'BPTF: 0.025')" onmouseout="HideTooltip(evt)">
<path d="M314.101,-79.5975C300.865,-107.976 272.474,-163.024 236.125,-200.105 202.055,-234.86 153.421,-263.507 120.879,-280.476" fill="none" stroke="#e9bbff" stroke-width="3"/>
<polygon fill="#e9bbff" points="119.215,-278.183 113.379,-284.33 121.774,-283.165 119.215,-278.183" stroke="#e9bbff"/>
</a>
</g>
<!-- CXXC1&#45;&gt;BARHL2 -->
<g class="edge" id="edge36">
<a class="remove0 root" ismara:data="0.004" onmousemove="ShowTooltip(evt, 'BARHL2: 0.004')" onmouseout="HideTooltip(evt)">
<path d="M295.13,-58.3247C270.551,-55.208 233.569,-49.234 202.765,-38.88 200.604,-38.1539 198.415,-37.3354 196.229,-36.4535" fill="none" stroke="#edc9ff" stroke-width="3"/>
<polygon fill="#edc9ff" points="197.31,-33.8704 188.857,-33.2529 195.08,-39.0072 197.31,-33.8704" stroke="#edc9ff"/>
</a>
</g>
<!-- HOXA2_HOXB1 -->
<g class="node" id="node34">
<a class="remove18" onmousemove="ShowTooltip(evt, 'Z-value: 0.451')" onmouseout="HideTooltip(evt)" xlink:href="HOXA2_HOXB1.svg">
<polygon fill="#c1c7ff" points="397.699,-154.025 333.199,-154.025 321.199,-142.025 321.199,-130.025 333.199,-118.025 397.699,-118.025 409.699,-130.025 409.699,-142.025 397.699,-154.025" stroke="#c1c7ff" stroke-width="2"/>
<path d="M333.199,-154.025C327.199,-154.025 321.199,-148.025 321.199,-142.025" fill="#c1c7ff" stroke="#c1c7ff" stroke-width="2"/>
<path d="M321.199,-130.025C321.199,-124.025 327.199,-118.025 333.199,-118.025" fill="#c1c7ff" stroke="#c1c7ff" stroke-width="2"/>
<path d="M397.699,-118.025C403.699,-118.025 409.699,-124.025 409.699,-130.025" fill="#c1c7ff" stroke="#c1c7ff" stroke-width="2"/>
<path d="M409.699,-142.025C409.699,-148.025 403.699,-154.025 397.699,-154.025" fill="#c1c7ff" stroke="#c1c7ff" stroke-width="2"/>
<polyline fill="none" points="397.699,-154.025 333.199,-154.025 " stroke="white" stroke-width="2"/>
<path d="M333.199,-154.025C327.199,-154.025 321.199,-148.025 321.199,-142.025" fill="none" stroke="white" stroke-width="2"/>
<polyline fill="none" points="321.199,-142.025 321.199,-130.025 " stroke="white" stroke-width="2"/>
<path d="M321.199,-130.025C321.199,-124.025 327.199,-118.025 333.199,-118.025" fill="none" stroke="white" stroke-width="2"/>
<polyline fill="none" points="333.199,-118.025 397.699,-118.025 " stroke="white" stroke-width="2"/>
<path d="M397.699,-118.025C403.699,-118.025 409.699,-124.025 409.699,-130.025" fill="none" stroke="white" stroke-width="2"/>
<polyline fill="none" points="409.699,-130.025 409.699,-142.025 " stroke="white" stroke-width="2"/>
<path d="M409.699,-142.025C409.699,-148.025 403.699,-154.025 397.699,-154.025" fill="none" stroke="white" stroke-width="2"/>
<text font-family="Helvetica,sans-Serif" font-size="10.00" text-anchor="middle" x="365.449" y="-133.525">HOXA2_HOXB1</text>
</a>
</g>
<!-- HOXA2_HOXB1&#45;&gt;POU6F2 -->
<g class="edge" id="edge46">
<a class="remove18 root" ismara:data="0.232" onmousemove="ShowTooltip(evt, 'POU6F2: 0.232')" onmouseout="HideTooltip(evt)">
<path d="M320.539,-148.058C294.924,-154.922 263.281,-163.401 239.469,-169.781" fill="none" stroke="#3247ff" stroke-width="3"/>
<polygon fill="#3247ff" points="238.717,-167.084 231.714,-171.859 240.166,-172.493 238.717,-167.084" stroke="#3247ff"/>
</a>
</g>
<!-- HOXA2_HOXB1&#45;&gt;HOXA2_HOXB1 -->
<g class="edge" id="edge44">
<a class="remove16 root" ismara:data="0.171" onmousemove="ShowTooltip(evt, 'HOXB1: 0.171')" onmouseout="HideTooltip(evt)">
<path d="M409.755,-142.626C419.956,-142.057 427.449,-139.857 427.449,-136.025 427.449,-133.33 423.745,-131.442 417.999,-130.361" fill="none" stroke="#ca5bff" stroke-width="3"/>
<polygon fill="#ca5bff" points="418.02,-127.546 409.755,-129.423 417.387,-133.11 418.02,-127.546" stroke="#ca5bff"/>
</a>
</g>
</g>
<rect height="14" id="tooltip_bg" style="fill: white; stroke: black; opacity: 0.8;" visibility="hidden"/><text id="tooltip" style="font-size: 10px;font-weight: bold;" visibility="hidden"></text><g id="plus" onclick="showSome();moveSlider();setThreshold();"><circle cx="22" cy="22" r="10" style="fill: #dddddd; opacity: 100%;"/><line stroke="#888888" stroke-width="2" x1="16" x2="28" y1="22" y2="22"/><line stroke="#888888" stroke-width="2" x1="22" x2="22" y1="16" y2="28"/></g><g id="minus" onclick="hideSome();moveSlider();setThreshold();"><circle cx="22" cy="344" r="10" style="fill: #dddddd; opacity: 100%;"/><line stroke="#888888" stroke-width="2" x1="16" x2="28" y1="344" y2="344"/></g><line id="slider_scale" onmousedown="jump_slider(evt)" stroke="#888888" stroke-width="5" x1="22" x2="22" y1="40" y2="326"/><circle cx="22" cy="50" id="slider" onmousedown="grab(evt)" onmouseout="release(evt)" onmouseup="release(evt)" r="15" style="fill:#922"/><script type="text/ecmascript"><![CDATA[
    var svgNS = "http://www.w3.org/2000/svg";
    var edge_num = 19;
    var counter = 0;
    var tooltip, tooltip_bg;

    function init(evt) {
        if ( window.svgDocument == null ) {
            svgDocument = evt.target.ownerDocument;
        }
        tooltip = svgDocument.getElementById('tooltip');
        tooltip_bg = svgDocument.getElementById('tooltip_bg');
        setThreshold();
    }

    function ShowTooltip(evt, txt) {
        var length = 0;
        var height;
        var tooltip_x = evt.pageX + 18;
        var tooltip_y = evt.pageY + 22;
        var bg_x = evt.pageX + 10;
        var bg_y = evt.pageY + 10;

        /* Clean toolip content */
        while (tooltip.lastChild) {
            tooltip.removeChild(tooltip.lastChild)
        }

        /* Populate tooltip with tspan elements and get longest of them */
        var text_elements = txt.split('|');
        for (var i = 0; i  < text_elements.length; i++) {
            var shift_y = 12;
            if (i == 0) {
                shift_y = 0;
            }
            var tspan_element = document.createElementNS(svgNS, "tspan");
            tspan_element.setAttributeNS(null, "dy", shift_y);
            tspan_element.setAttributeNS(null, "x", tooltip_x);
            var text_node = svgDocument.createTextNode(text_elements[i]);
            tspan_element.appendChild(text_node);
            tooltip.appendChild(tspan_element);
            var tspan_length = tspan_element.getComputedTextLength();
            if (tspan_length > length) {
                length = tspan_length
            }
        }
        /* add right margin to tooltip */
        length = length + 15;
        height = 12 * text_elements.length + 5;
        tooltip_bg.setAttributeNS(null,"width",length);
        tooltip_bg.setAttributeNS(null,"height",height);
        tooltip_bg.setAttributeNS(null,"x", bg_x);
        tooltip_bg.setAttributeNS(null,"y", bg_y);
        tooltip_bg.setAttributeNS(null,"visibility","visible");
        tooltip.setAttributeNS(null,"x", tooltip_x);
        tooltip.setAttributeNS(null,"y", tooltip_y);
        tooltip.setAttributeNS(null,"visibility","visible");
    }
    function HideTooltip() {
      tooltip.setAttributeNS(null,"visibility","hidden");
      tooltip_bg.setAttributeNS(null,"visibility","hidden");
    }

    /*** Hide/Show edges functions ***/

    function hideSome() {
      if (counter >= edge_num -1) {
        return 1;
      }
      var elements = svgDocument.getElementsByClassName('remove' + counter);
      for (var i = 0; i < elements.length; i++) {
        elements[i].setAttributeNS(null,"visibility","hidden");
      }
      counter = counter + 1;
    }

    function showSome() {
      if (counter <= 0) {
        return 1;
      }
      counter = counter - 1;
      var elements = svgDocument.getElementsByClassName('remove' + counter);
      for (var i = 0; i < elements.length; i++) {
        elements[i].setAttributeNS(null,"visibility","visible");
      }
    }

    function setThreshold() {
        var elements = svgDocument.getElementsByClassName('remove' + counter);
        var score = 0;
        for (var i = 0; i < elements.length; i++) {
            if (elements[i].classList.contains("root")){
                if (elements[i].hasAttributeNS("ismara.unibas.ch", "data")) {
                    score = elements[i].getAttributeNS("ismara.unibas.ch", "data");
                }
            } 
        }
        svgDocument.getElementById("score_indicator").textContent = "Score threshold: " + score;
    }

    /*** Slider functions ***/

    var slider_maxY = parseInt(document.getElementById("slider_scale").getAttributeNS(null, "y2"));
    var slider_minY = parseInt(document.getElementById("slider_scale").getAttributeNS(null, "y1"));
    var slider_r = parseInt(document.getElementById("slider").getAttributeNS(null, "r"));
    var coef = (edge_num - 1) / (slider_maxY - slider_minY - 2 * slider_r);

    function grab(evt){
        var element = evt.target;
        var Attr = {"onmousemove":"slide(evt,'"+element.id+"')"};
        assignAttr(element, Attr);
    }

    function release(evt){
        var element = evt.target;
        var Attr = {"onmousemove":null};
        assignAttr(element, Attr);
    }

    function assignAttr(obj,attr){
        for (i in attr) obj.setAttributeNS(null,i, attr[i]);
    }

    function slide(evt,id){
        var slider = evt.target;
        var y = evt.pageY;
        var new_counter = Math.floor((evt.pageY - slider_minY - slider_r) * coef);
        if (evt.pageY > (slider_maxY - slider_r)) {
            slider.setAttributeNS(null, "cy", (slider_maxY - slider_r));
            new_counter = edge_num;
        } else if(evt.pageY < (slider_minY + slider_r)) {
            slider.setAttributeNS(null, "cy", (slider_minY + slider_r));
            new_counter = 1;
        } else {
            slider.setAttributeNS(null, "cy", evt.pageY);
        }

        if (new_counter < counter) {
                showSome();
            counter = new_counter;
        }
        if (new_counter > counter) {
                hideSome();
            counter = new_counter;
        }
        setThreshold();
    }

    function moveSlider() {
        circle = document.getElementById("slider");
        circle.setAttributeNS(null, "cy",  slider_minY +  slider_r + (counter) / coef);
    }

    function jump_slider(evt) {
        var slider = document.getElementById("slider");
        var new_counter = Math.floor((evt.pageY - slider_minY - slider_r) * coef);
        if (evt.pageY > (slider_maxY - slider_r)) {
            slider.setAttributeNS(null, "cy", (slider_maxY - slider_r));
            new_counter = edge_num;
        } else if(evt.pageY < (slider_minY + slider_r)) {
             slider.setAttributeNS(null, "cy", (slider_minY + slider_r));
            new_counter = 1;
        } else {
            slider.setAttributeNS(null, "cy", evt.pageY);
        }

        if (new_counter > counter) {
            var d = new_counter - counter;
            for (var i = 0; i < d; i++){
                hideSome();
            }
            counter = new_counter;
        }
        if (new_counter < counter) {
            var d = counter - new_counter;
            for (var i = 0; i < d; i++){
                showSome();
            }
            counter = new_counter;
        }
        setThreshold();
    }
    ]]></script><text id="score_indicator" style="font-size: 10px;font-weight: bold;" x="10" y="376">Score threshold: 0</text><text id="info" style="font-size: 10px;font-weight: bold;" x="10" y="391">Use slider or -/+ buttons to hide/show edges.</text></svg>