<?xml version="1.0" encoding="UTF-8" standalone="no"?>
<!DOCTYPE svg PUBLIC "-//W3C//DTD SVG 1.1//EN"
 "http://www.w3.org/Graphics/SVG/1.1/DTD/svg11.dtd">
<!-- Generated by graphviz version 2.28.0 (20110630.0925)
 -->
<!-- Title: _anonymous_0 Pages: 1 -->
<svg width="429pt" height="366pt"
 viewBox="0.00 0.00 428.95 366.45" xmlns="http://www.w3.org/2000/svg" xmlns:xlink="http://www.w3.org/1999/xlink">
<g id="graph1" class="graph" transform="scale(1 1) rotate(0) translate(4 362.449)">
<title>_anonymous_0</title>
<polygon fill="white" stroke="white" points="-4,5 -4,-362.449 425.949,-362.449 425.949,5 -4,5"/>
<!-- SIX5_SMARCC2_HCFC1 -->
<g id="node1" class="node"><title>SIX5_SMARCC2_HCFC1</title>
<a xlink:href="SIX5_SMARCC2_HCFC1.svg" xlink:title="Z&#45;value: 4.255||remove34">
<polygon fill="#3247ff" stroke="#3247ff" stroke-width="2" points="408.949,-240.425 300.949,-240.425 288.949,-228.425 288.949,-216.425 300.949,-204.425 408.949,-204.425 420.949,-216.425 420.949,-228.425 408.949,-240.425"/>
<path fill="#3247ff" stroke="#3247ff" stroke-width="2" d="M300.949,-240.425C294.949,-240.425 288.949,-234.425 288.949,-228.425"/>
<path fill="#3247ff" stroke="#3247ff" stroke-width="2" d="M288.949,-216.425C288.949,-210.425 294.949,-204.425 300.949,-204.425"/>
<path fill="#3247ff" stroke="#3247ff" stroke-width="2" d="M408.949,-204.425C414.949,-204.425 420.949,-210.425 420.949,-216.425"/>
<path fill="#3247ff" stroke="#3247ff" stroke-width="2" d="M420.949,-228.425C420.949,-234.425 414.949,-240.425 408.949,-240.425"/>
<polyline fill="none" stroke="white" stroke-width="2" points="408.949,-240.425 300.949,-240.425 "/>
<path fill="none" stroke="white" stroke-width="2" d="M300.949,-240.425C294.949,-240.425 288.949,-234.425 288.949,-228.425"/>
<polyline fill="none" stroke="white" stroke-width="2" points="288.949,-228.425 288.949,-216.425 "/>
<path fill="none" stroke="white" stroke-width="2" d="M288.949,-216.425C288.949,-210.425 294.949,-204.425 300.949,-204.425"/>
<polyline fill="none" stroke="white" stroke-width="2" points="300.949,-204.425 408.949,-204.425 "/>
<path fill="none" stroke="white" stroke-width="2" d="M408.949,-204.425C414.949,-204.425 420.949,-210.425 420.949,-216.425"/>
<polyline fill="none" stroke="white" stroke-width="2" points="420.949,-216.425 420.949,-228.425 "/>
<path fill="none" stroke="white" stroke-width="2" d="M420.949,-228.425C420.949,-234.425 414.949,-240.425 408.949,-240.425"/>
<text text-anchor="middle" x="354.949" y="-219.925" font-family="Helvetica,sans-Serif" font-size="10.00" fill="white">SIX5_SMARCC2_HCFC1</text>
</a>
</g>
<!-- EPAS1_BCL3 -->
<g id="node2" class="node"><title>EPAS1_BCL3</title>
<a xlink:href="EPAS1_BCL3.svg" xlink:title="Z&#45;value: 0.784||remove39">
<polygon fill="#afb7ff" stroke="#afb7ff" stroke-width="2" points="338.999,-315.249 284.499,-315.249 272.499,-303.249 272.499,-291.249 284.499,-279.249 338.999,-279.249 350.999,-291.249 350.999,-303.249 338.999,-315.249"/>
<path fill="#afb7ff" stroke="#afb7ff" stroke-width="2" d="M284.499,-315.249C278.499,-315.249 272.499,-309.249 272.499,-303.249"/>
<path fill="#afb7ff" stroke="#afb7ff" stroke-width="2" d="M272.499,-291.249C272.499,-285.249 278.499,-279.249 284.499,-279.249"/>
<path fill="#afb7ff" stroke="#afb7ff" stroke-width="2" d="M338.999,-279.249C344.999,-279.249 350.999,-285.249 350.999,-291.249"/>
<path fill="#afb7ff" stroke="#afb7ff" stroke-width="2" d="M350.999,-303.249C350.999,-309.249 344.999,-315.249 338.999,-315.249"/>
<polyline fill="none" stroke="white" stroke-width="2" points="338.999,-315.249 284.499,-315.249 "/>
<path fill="none" stroke="white" stroke-width="2" d="M284.499,-315.249C278.499,-315.249 272.499,-309.249 272.499,-303.249"/>
<polyline fill="none" stroke="white" stroke-width="2" points="272.499,-303.249 272.499,-291.249 "/>
<path fill="none" stroke="white" stroke-width="2" d="M272.499,-291.249C272.499,-285.249 278.499,-279.249 284.499,-279.249"/>
<polyline fill="none" stroke="white" stroke-width="2" points="284.499,-279.249 338.999,-279.249 "/>
<path fill="none" stroke="white" stroke-width="2" d="M338.999,-279.249C344.999,-279.249 350.999,-285.249 350.999,-291.249"/>
<polyline fill="none" stroke="white" stroke-width="2" points="350.999,-291.249 350.999,-303.249 "/>
<path fill="none" stroke="white" stroke-width="2" d="M350.999,-303.249C350.999,-309.249 344.999,-315.249 338.999,-315.249"/>
<text text-anchor="middle" x="311.749" y="-294.749" font-family="Helvetica,sans-Serif" font-size="10.00">EPAS1_BCL3</text>
</a>
</g>
<!-- SIX5_SMARCC2_HCFC1&#45;&gt;EPAS1_BCL3 -->
<g id="edge2" class="edge"><title>SIX5_SMARCC2_HCFC1&#45;&gt;EPAS1_BCL3</title>
<a xlink:title="EPAS1: 0.073||remove17root">
<path fill="none" stroke="#ebc3ff" stroke-width="3" d="M344.492,-240.538C339.066,-249.935 332.35,-261.568 326.414,-271.849"/>
<polygon fill="#ebc3ff" stroke="#ebc3ff" points="323.835,-270.715 322.26,-279.044 328.685,-273.516 323.835,-270.715"/>
</a>
</g>
<!-- ARID5A -->
<g id="node4" class="node"><title>ARID5A</title>
<a xlink:href="ARID5A.svg" xlink:title="Z&#45;value: 0.722||remove26">
<polygon fill="#b2b9ff" stroke="#b2b9ff" stroke-width="2" points="251.925,-358.449 221.925,-358.449 209.925,-346.449 209.925,-334.449 221.925,-322.449 251.925,-322.449 263.925,-334.449 263.925,-346.449 251.925,-358.449"/>
<path fill="#b2b9ff" stroke="#b2b9ff" stroke-width="2" d="M221.925,-358.449C215.925,-358.449 209.925,-352.449 209.925,-346.449"/>
<path fill="#b2b9ff" stroke="#b2b9ff" stroke-width="2" d="M209.925,-334.449C209.925,-328.449 215.925,-322.449 221.925,-322.449"/>
<path fill="#b2b9ff" stroke="#b2b9ff" stroke-width="2" d="M251.925,-322.449C257.925,-322.449 263.925,-328.449 263.925,-334.449"/>
<path fill="#b2b9ff" stroke="#b2b9ff" stroke-width="2" d="M263.925,-346.449C263.925,-352.449 257.925,-358.449 251.925,-358.449"/>
<polyline fill="none" stroke="white" stroke-width="2" points="251.925,-358.449 221.925,-358.449 "/>
<path fill="none" stroke="white" stroke-width="2" d="M221.925,-358.449C215.925,-358.449 209.925,-352.449 209.925,-346.449"/>
<polyline fill="none" stroke="white" stroke-width="2" points="209.925,-346.449 209.925,-334.449 "/>
<path fill="none" stroke="white" stroke-width="2" d="M209.925,-334.449C209.925,-328.449 215.925,-322.449 221.925,-322.449"/>
<polyline fill="none" stroke="white" stroke-width="2" points="221.925,-322.449 251.925,-322.449 "/>
<path fill="none" stroke="white" stroke-width="2" d="M251.925,-322.449C257.925,-322.449 263.925,-328.449 263.925,-334.449"/>
<polyline fill="none" stroke="white" stroke-width="2" points="263.925,-334.449 263.925,-346.449 "/>
<path fill="none" stroke="white" stroke-width="2" d="M263.925,-346.449C263.925,-352.449 257.925,-358.449 251.925,-358.449"/>
<text text-anchor="middle" x="236.925" y="-337.949" font-family="Helvetica,sans-Serif" font-size="10.00">ARID5A</text>
</a>
</g>
<!-- SIX5_SMARCC2_HCFC1&#45;&gt;ARID5A -->
<g id="edge4" class="edge"><title>SIX5_SMARCC2_HCFC1&#45;&gt;ARID5A</title>
<a xlink:title="ARID5A: 0.171||remove26">
<path fill="none" stroke="#e8b7ff" stroke-width="3" d="M313.982,-240.537C297.409,-249.446 279.119,-261.497 265.929,-276.369 256.292,-287.236 249.348,-301.839 244.676,-314.359"/>
<polygon fill="#e8b7ff" stroke="#e8b7ff" points="241.923,-313.75 241.928,-322.226 247.21,-315.597 241.923,-313.75"/>
</a>
</g>
<!-- NFKB1 -->
<g id="node6" class="node"><title>NFKB1</title>
<a xlink:href="NFKB1.svg" xlink:title="Z&#45;value: 0.679||remove31">
<polygon fill="#b3bbff" stroke="#b3bbff" stroke-width="2" points="165.525,-358.449 135.525,-358.449 123.525,-346.449 123.525,-334.449 135.525,-322.449 165.525,-322.449 177.525,-334.449 177.525,-346.449 165.525,-358.449"/>
<path fill="#b3bbff" stroke="#b3bbff" stroke-width="2" d="M135.525,-358.449C129.525,-358.449 123.525,-352.449 123.525,-346.449"/>
<path fill="#b3bbff" stroke="#b3bbff" stroke-width="2" d="M123.525,-334.449C123.525,-328.449 129.525,-322.449 135.525,-322.449"/>
<path fill="#b3bbff" stroke="#b3bbff" stroke-width="2" d="M165.525,-322.449C171.525,-322.449 177.525,-328.449 177.525,-334.449"/>
<path fill="#b3bbff" stroke="#b3bbff" stroke-width="2" d="M177.525,-346.449C177.525,-352.449 171.525,-358.449 165.525,-358.449"/>
<polyline fill="none" stroke="white" stroke-width="2" points="165.525,-358.449 135.525,-358.449 "/>
<path fill="none" stroke="white" stroke-width="2" d="M135.525,-358.449C129.525,-358.449 123.525,-352.449 123.525,-346.449"/>
<polyline fill="none" stroke="white" stroke-width="2" points="123.525,-346.449 123.525,-334.449 "/>
<path fill="none" stroke="white" stroke-width="2" d="M123.525,-334.449C123.525,-328.449 129.525,-322.449 135.525,-322.449"/>
<polyline fill="none" stroke="white" stroke-width="2" points="135.525,-322.449 165.525,-322.449 "/>
<path fill="none" stroke="white" stroke-width="2" d="M165.525,-322.449C171.525,-322.449 177.525,-328.449 177.525,-334.449"/>
<polyline fill="none" stroke="white" stroke-width="2" points="177.525,-334.449 177.525,-346.449 "/>
<path fill="none" stroke="white" stroke-width="2" d="M177.525,-346.449C177.525,-352.449 171.525,-358.449 165.525,-358.449"/>
<text text-anchor="middle" x="150.525" y="-337.949" font-family="Helvetica,sans-Serif" font-size="10.00">NFKB1</text>
</a>
</g>
<!-- EPAS1_BCL3&#45;&gt;NFKB1 -->
<g id="edge6" class="edge"><title>EPAS1_BCL3&#45;&gt;NFKB1</title>
<a xlink:title="NFKB1: 0.019||BCL3: 0.623||remove31">
<path fill="none" stroke="#edc9ff" stroke-width="3" d="M264.032,-306.666C245.686,-310.321 224.63,-315.039 205.886,-320.529 199.296,-322.457 192.328,-324.828 185.686,-327.259"/>
<path fill="none" stroke="#d782ff" stroke-width="3" d="M263.641,-304.704C245.249,-308.37 224.192,-313.088 205.324,-318.609 198.651,-320.564 191.684,-322.935 184.998,-325.381"/>
<polygon fill="#d782ff" stroke="#d782ff" points="264.754,-308.359 272.07,-304.078 263.681,-302.863 264.754,-308.359"/>
<polygon fill="#edc9ff" stroke="#edc9ff" points="184.201,-323.758 177.696,-329.192 186.17,-329 184.201,-323.758"/>
</a>
</g>
<!-- MYB -->
<g id="node8" class="node"><title>MYB</title>
<a xlink:href="MYB.svg" xlink:title="Z&#45;value: 1.052||remove33">
<polygon fill="#a6afff" stroke="#a6afff" stroke-width="2" points="90.7,-315.249 60.7,-315.249 48.7,-303.249 48.7,-291.249 60.7,-279.249 90.7,-279.249 102.7,-291.249 102.7,-303.249 90.7,-315.249"/>
<path fill="#a6afff" stroke="#a6afff" stroke-width="2" d="M60.7,-315.249C54.7,-315.249 48.7,-309.249 48.7,-303.249"/>
<path fill="#a6afff" stroke="#a6afff" stroke-width="2" d="M48.7,-291.249C48.7,-285.249 54.7,-279.249 60.7,-279.249"/>
<path fill="#a6afff" stroke="#a6afff" stroke-width="2" d="M90.7,-279.249C96.7,-279.249 102.7,-285.249 102.7,-291.249"/>
<path fill="#a6afff" stroke="#a6afff" stroke-width="2" d="M102.7,-303.249C102.7,-309.249 96.7,-315.249 90.7,-315.249"/>
<polyline fill="none" stroke="white" stroke-width="2" points="90.7,-315.249 60.7,-315.249 "/>
<path fill="none" stroke="white" stroke-width="2" d="M60.7,-315.249C54.7,-315.249 48.7,-309.249 48.7,-303.249"/>
<polyline fill="none" stroke="white" stroke-width="2" points="48.7,-303.249 48.7,-291.249 "/>
<path fill="none" stroke="white" stroke-width="2" d="M48.7,-291.249C48.7,-285.249 54.7,-279.249 60.7,-279.249"/>
<polyline fill="none" stroke="white" stroke-width="2" points="60.7,-279.249 90.7,-279.249 "/>
<path fill="none" stroke="white" stroke-width="2" d="M90.7,-279.249C96.7,-279.249 102.7,-285.249 102.7,-291.249"/>
<polyline fill="none" stroke="white" stroke-width="2" points="102.7,-291.249 102.7,-303.249 "/>
<path fill="none" stroke="white" stroke-width="2" d="M102.7,-303.249C102.7,-309.249 96.7,-315.249 90.7,-315.249"/>
<text text-anchor="middle" x="75.7" y="-294.749" font-family="Helvetica,sans-Serif" font-size="10.00">MYB</text>
</a>
</g>
<!-- EPAS1_BCL3&#45;&gt;MYB -->
<g id="edge8" class="edge"><title>EPAS1_BCL3&#45;&gt;MYB</title>
<a xlink:title="MYB: 0.001||remove0root">
<path fill="none" stroke="#eecbff" stroke-width="3" d="M272.24,-297.249C227.206,-297.249 154.262,-297.249 111.043,-297.249"/>
<polygon fill="#eecbff" stroke="#eecbff" points="110.812,-294.449 102.812,-297.249 110.812,-300.049 110.812,-294.449"/>
</a>
</g>
<!-- ELF3_EHF -->
<g id="node10" class="node"><title>ELF3_EHF</title>
<a xlink:href="ELF3_EHF.svg" xlink:title="Z&#45;value: 1.010||remove35">
<polygon fill="#a7b0ff" stroke="#a7b0ff" stroke-width="2" points="52.75,-240.425 12.25,-240.425 0.25,-228.425 0.25,-216.425 12.25,-204.425 52.75,-204.425 64.75,-216.425 64.75,-228.425 52.75,-240.425"/>
<path fill="#a7b0ff" stroke="#a7b0ff" stroke-width="2" d="M12.25,-240.425C6.25,-240.425 0.25,-234.425 0.25,-228.425"/>
<path fill="#a7b0ff" stroke="#a7b0ff" stroke-width="2" d="M0.25,-216.425C0.25,-210.425 6.25,-204.425 12.25,-204.425"/>
<path fill="#a7b0ff" stroke="#a7b0ff" stroke-width="2" d="M52.75,-204.425C58.75,-204.425 64.75,-210.425 64.75,-216.425"/>
<path fill="#a7b0ff" stroke="#a7b0ff" stroke-width="2" d="M64.75,-228.425C64.75,-234.425 58.75,-240.425 52.75,-240.425"/>
<polyline fill="none" stroke="white" stroke-width="2" points="52.75,-240.425 12.25,-240.425 "/>
<path fill="none" stroke="white" stroke-width="2" d="M12.25,-240.425C6.25,-240.425 0.25,-234.425 0.25,-228.425"/>
<polyline fill="none" stroke="white" stroke-width="2" points="0.25,-228.425 0.25,-216.425 "/>
<path fill="none" stroke="white" stroke-width="2" d="M0.25,-216.425C0.25,-210.425 6.25,-204.425 12.25,-204.425"/>
<polyline fill="none" stroke="white" stroke-width="2" points="12.25,-204.425 52.75,-204.425 "/>
<path fill="none" stroke="white" stroke-width="2" d="M52.75,-204.425C58.75,-204.425 64.75,-210.425 64.75,-216.425"/>
<polyline fill="none" stroke="white" stroke-width="2" points="64.75,-216.425 64.75,-228.425 "/>
<path fill="none" stroke="white" stroke-width="2" d="M64.75,-228.425C64.75,-234.425 58.75,-240.425 52.75,-240.425"/>
<text text-anchor="middle" x="32.5" y="-219.925" font-family="Helvetica,sans-Serif" font-size="10.00">ELF3_EHF</text>
</a>
</g>
<!-- ARID5A&#45;&gt;ELF3_EHF -->
<g id="edge10" class="edge"><title>ARID5A&#45;&gt;ELF3_EHF</title>
<a xlink:title="EHF: 0.048||remove10root">
<path fill="none" stroke="#ecc6ff" stroke-width="3" d="M209.779,-324.776C174.124,-304.191 111.308,-267.925 70.8212,-244.549"/>
<polygon fill="#ecc6ff" stroke="#ecc6ff" points="72.1089,-242.06 63.7807,-240.485 69.3089,-246.909 72.1089,-242.06"/>
</a>
</g>
<!-- NFKB1&#45;&gt;SIX5_SMARCC2_HCFC1 -->
<g id="edge84" class="edge"><title>NFKB1&#45;&gt;SIX5_SMARCC2_HCFC1</title>
<a xlink:title="SIX5: 0.061||remove12root">
<path fill="none" stroke="#ecc4ff" stroke-width="3" d="M177.671,-324.776C213.326,-304.191 276.141,-267.925 316.628,-244.549"/>
<polygon fill="#ecc4ff" stroke="#ecc4ff" points="318.14,-246.909 323.669,-240.485 315.34,-242.06 318.14,-246.909"/>
</a>
</g>
<!-- NFKB1&#45;&gt;ARID5A -->
<g id="edge90" class="edge"><title>NFKB1&#45;&gt;ARID5A</title>
<a xlink:title="ARID5A: 0.138||remove26">
<path fill="none" stroke="#e9bbff" stroke-width="3" d="M177.862,-340.449C185.421,-340.449 193.732,-340.449 201.672,-340.449"/>
<polygon fill="#e9bbff" stroke="#e9bbff" points="201.765,-343.249 209.765,-340.449 201.765,-337.649 201.765,-343.249"/>
</a>
</g>
<!-- NFKB1&#45;&gt;NFKB1 -->
<g id="edge86" class="edge"><title>NFKB1&#45;&gt;NFKB1</title>
<a xlink:title="NFKB1: 0.158||remove28root">
<path fill="none" stroke="#e8b9ff" stroke-width="3" d="M177.765,-347.193C187.549,-347.338 195.525,-345.09 195.525,-340.449 195.525,-337.186 191.581,-335.106 185.839,-334.209"/>
<polygon fill="#e8b9ff" stroke="#e8b9ff" points="185.924,-331.409 177.765,-333.706 185.576,-336.998 185.924,-331.409"/>
</a>
</g>
<!-- NFKB1&#45;&gt;MYB -->
<g id="edge88" class="edge"><title>NFKB1&#45;&gt;MYB</title>
<a xlink:title="MYB: 0.199||remove31">
<path fill="none" stroke="#e7b4ff" stroke-width="3" d="M123.511,-324.853C119.116,-322.315 114.512,-319.658 109.971,-317.036"/>
<polygon fill="#e7b4ff" stroke="#e7b4ff" points="111.253,-314.543 102.925,-312.968 108.453,-319.393 111.253,-314.543"/>
</a>
</g>
<!-- RCOR1_MTA3 -->
<g id="node12" class="node"><title>RCOR1_MTA3</title>
<a xlink:href="RCOR1_MTA3.svg" xlink:title="Z&#45;value: 1.731||remove38">
<polygon fill="#8d99ff" stroke="#8d99ff" stroke-width="2" points="179.775,-36 121.275,-36 109.275,-24 109.275,-12 121.275,-6.39488e-14 179.775,-6.39488e-14 191.775,-12 191.775,-24 179.775,-36"/>
<path fill="#8d99ff" stroke="#8d99ff" stroke-width="2" d="M121.275,-36C115.275,-36 109.275,-30 109.275,-24"/>
<path fill="#8d99ff" stroke="#8d99ff" stroke-width="2" d="M109.275,-12C109.275,-6 115.275,-6.39488e-14 121.275,-6.39488e-14"/>
<path fill="#8d99ff" stroke="#8d99ff" stroke-width="2" d="M179.775,-6.39488e-14C185.775,-6.39488e-14 191.775,-6 191.775,-12"/>
<path fill="#8d99ff" stroke="#8d99ff" stroke-width="2" d="M191.775,-24C191.775,-30 185.775,-36 179.775,-36"/>
<polyline fill="none" stroke="white" stroke-width="2" points="179.775,-36 121.275,-36 "/>
<path fill="none" stroke="white" stroke-width="2" d="M121.275,-36C115.275,-36 109.275,-30 109.275,-24"/>
<polyline fill="none" stroke="white" stroke-width="2" points="109.275,-24 109.275,-12 "/>
<path fill="none" stroke="white" stroke-width="2" d="M109.275,-12C109.275,-6 115.275,-6.39488e-14 121.275,-6.39488e-14"/>
<polyline fill="none" stroke="white" stroke-width="2" points="121.275,-6.39488e-14 179.775,-6.39488e-14 "/>
<path fill="none" stroke="white" stroke-width="2" d="M179.775,-6.39488e-14C185.775,-6.39488e-14 191.775,-6 191.775,-12"/>
<polyline fill="none" stroke="white" stroke-width="2" points="191.775,-12 191.775,-24 "/>
<path fill="none" stroke="white" stroke-width="2" d="M191.775,-24C191.775,-30 185.775,-36 179.775,-36"/>
<text text-anchor="middle" x="150.525" y="-15.5" font-family="Helvetica,sans-Serif" font-size="10.00">RCOR1_MTA3</text>
</a>
</g>
<!-- NFKB1&#45;&gt;RCOR1_MTA3 -->
<g id="edge92" class="edge"><title>NFKB1&#45;&gt;RCOR1_MTA3</title>
<a xlink:title="MTA3: 0.630||remove31">
<path fill="none" stroke="#d681ff" stroke-width="3" d="M150.525,-322.189C150.525,-267.984 150.525,-107.839 150.525,-44.3552"/>
<polygon fill="#d681ff" stroke="#d681ff" points="153.325,-44.0598 150.525,-36.0599 147.725,-44.0599 153.325,-44.0598"/>
</a>
</g>
<!-- BATF -->
<g id="node45" class="node"><title>BATF</title>
<a xlink:href="BATF.svg" xlink:title="Z&#45;value: 1.213||remove40">
<polygon fill="#a0a9ff" stroke="#a0a9ff" stroke-width="2" points="90.7,-79.2 60.7,-79.2 48.7,-67.2 48.7,-55.2 60.7,-43.2 90.7,-43.2 102.7,-55.2 102.7,-67.2 90.7,-79.2"/>
<path fill="#a0a9ff" stroke="#a0a9ff" stroke-width="2" d="M60.7,-79.2C54.7,-79.2 48.7,-73.2 48.7,-67.2"/>
<path fill="#a0a9ff" stroke="#a0a9ff" stroke-width="2" d="M48.7,-55.2C48.7,-49.2 54.7,-43.2 60.7,-43.2"/>
<path fill="#a0a9ff" stroke="#a0a9ff" stroke-width="2" d="M90.7,-43.2C96.7,-43.2 102.7,-49.2 102.7,-55.2"/>
<path fill="#a0a9ff" stroke="#a0a9ff" stroke-width="2" d="M102.7,-67.2C102.7,-73.2 96.7,-79.2 90.7,-79.2"/>
<polyline fill="none" stroke="white" stroke-width="2" points="90.7,-79.2 60.7,-79.2 "/>
<path fill="none" stroke="white" stroke-width="2" d="M60.7,-79.2C54.7,-79.2 48.7,-73.2 48.7,-67.2"/>
<polyline fill="none" stroke="white" stroke-width="2" points="48.7,-67.2 48.7,-55.2 "/>
<path fill="none" stroke="white" stroke-width="2" d="M48.7,-55.2C48.7,-49.2 54.7,-43.2 60.7,-43.2"/>
<polyline fill="none" stroke="white" stroke-width="2" points="60.7,-43.2 90.7,-43.2 "/>
<path fill="none" stroke="white" stroke-width="2" d="M90.7,-43.2C96.7,-43.2 102.7,-49.2 102.7,-55.2"/>
<polyline fill="none" stroke="white" stroke-width="2" points="102.7,-55.2 102.7,-67.2 "/>
<path fill="none" stroke="white" stroke-width="2" d="M102.7,-67.2C102.7,-73.2 96.7,-79.2 90.7,-79.2"/>
<text text-anchor="middle" x="75.7" y="-58.7" font-family="Helvetica,sans-Serif" font-size="10.00">BATF</text>
</a>
</g>
<!-- NFKB1&#45;&gt;BATF -->
<g id="edge94" class="edge"><title>NFKB1&#45;&gt;BATF</title>
<a xlink:title="BATF: 1.066||remove31">
<path fill="none" stroke="#c64eff" stroke-width="3" d="M145.615,-322.127C132.688,-273.884 97.6779,-143.223 82.6766,-87.2371"/>
<polygon fill="#c64eff" stroke="#c64eff" points="85.3055,-86.2294 80.5303,-79.2268 79.8963,-87.6789 85.3055,-86.2294"/>
</a>
</g>
<!-- ELF3_EHF&#45;&gt;NFKB1 -->
<g id="edge52" class="edge"><title>ELF3_EHF&#45;&gt;NFKB1</title>
<a xlink:title="NFKB1: 0.123||ELF3: 0.099||remove24root">
<path fill="none" stroke="#eabdff" stroke-width="3" d="M69.8169,-244.408C82.5956,-253.291 96.4664,-264.07 107.738,-275.673 119.114,-287.417 129.404,-302.277 137.172,-314.804"/>
<path fill="none" stroke="#eac0ff" stroke-width="3" d="M68.6755,-246.05C81.3684,-254.87 95.2392,-265.65 106.302,-277.066 117.47,-288.555 127.76,-303.415 135.472,-315.858"/>
<polygon fill="#eac0ff" stroke="#eac0ff" points="70.5026,-242.698 62.3119,-240.517 67.3553,-247.33 70.5026,-242.698"/>
<polygon fill="#eabdff" stroke="#eabdff" points="134.038,-316.966 140.572,-322.365 138.831,-314.07 134.038,-316.966"/>
</a>
</g>
<!-- ELF3_EHF&#45;&gt;ELF3_EHF -->
<g id="edge50" class="edge"><title>ELF3_EHF&#45;&gt;ELF3_EHF</title>
<a xlink:title="EHF: 0.082||remove20root">
<path fill="none" stroke="#ebc2ff" stroke-width="3" d="M65.2005,-229.16C74.9296,-228.959 82.5,-226.714 82.5,-222.425 82.5,-219.476 78.9218,-217.493 73.5239,-216.477"/>
<polygon fill="#ebc2ff" stroke="#ebc2ff" points="73.4286,-213.655 65.2005,-215.689 72.9012,-219.23 73.4286,-213.655"/>
</a>
</g>
<!-- RCOR1_MTA3&#45;&gt;SIX5_SMARCC2_HCFC1 -->
<g id="edge16" class="edge"><title>RCOR1_MTA3&#45;&gt;SIX5_SMARCC2_HCFC1</title>
<a xlink:title="SIX5: 0.418||remove34">
<path fill="none" stroke="#de9aff" stroke-width="3" d="M168.666,-36.1413C205.641,-73.116 289.709,-157.184 331.067,-198.542"/>
<polygon fill="#de9aff" stroke="#de9aff" points="329.212,-200.647 336.849,-204.324 333.172,-196.687 329.212,-200.647"/>
</a>
</g>
<!-- RCOR1_MTA3&#45;&gt;EPAS1_BCL3 -->
<g id="edge14" class="edge"><title>RCOR1_MTA3&#45;&gt;EPAS1_BCL3</title>
<a xlink:title="EPAS1: 0.167||remove29root">
<path fill="none" stroke="#e8b8ff" stroke-width="3" d="M160.571,-36.2401C181.848,-74.7513 233.215,-167.084 278.389,-243.305 283.971,-252.723 290.249,-262.962 295.84,-271.964"/>
<polygon fill="#e8b8ff" stroke="#e8b8ff" points="293.543,-273.571 300.151,-278.878 298.295,-270.608 293.543,-273.571"/>
</a>
</g>
<!-- RCOR1_MTA3&#45;&gt;ARID5A -->
<g id="edge26" class="edge"><title>RCOR1_MTA3&#45;&gt;ARID5A</title>
<a xlink:title="ARID5A: 0.068||remove14root">
<path fill="none" stroke="#ecc3ff" stroke-width="3" d="M163.624,-36.4267C181.19,-62.2629 211.708,-111.372 225.045,-158.345 240.305,-212.096 240.178,-278.214 238.621,-314.15"/>
<polygon fill="#ecc3ff" stroke="#ecc3ff" points="235.823,-314.061 238.227,-322.188 241.416,-314.335 235.823,-314.061"/>
</a>
</g>
<!-- RCOR1_MTA3&#45;&gt;ELF3_EHF -->
<g id="edge20" class="edge"><title>RCOR1_MTA3&#45;&gt;ELF3_EHF</title>
<a xlink:title="EHF: 0.067||remove13root">
<path fill="none" stroke="#ecc4ff" stroke-width="3" d="M140.051,-36.1413C118.922,-72.7371 71.1583,-155.466 47.03,-197.258"/>
<polygon fill="#ecc4ff" stroke="#ecc4ff" points="44.5256,-195.996 42.9504,-204.324 49.3753,-198.796 44.5256,-195.996"/>
</a>
</g>
<!-- RCOR1_MTA3&#45;&gt;RCOR1_MTA3 -->
<g id="edge28" class="edge"><title>RCOR1_MTA3&#45;&gt;RCOR1_MTA3</title>
<a xlink:title="RCOR1: 1.276||remove38">
<path fill="none" stroke="#be35ff" stroke-width="3" d="M191.879,-24.6445C201.996,-24.1523 209.525,-21.9375 209.525,-18 209.525,-15.2314 205.803,-13.3145 200.076,-12.2493"/>
<polygon fill="#be35ff" stroke="#be35ff" points="200.136,-9.43931 191.879,-11.3555 199.529,-15.0063 200.136,-9.43931"/>
</a>
</g>
<!-- RELB -->
<g id="node13" class="node"><title>RELB</title>
<a xlink:href="RELB.svg" xlink:title="Z&#45;value: 0.440||remove37">
<polygon fill="#bcc2ff" stroke="#bcc2ff" stroke-width="2" points="47.5,-154.025 17.5,-154.025 5.5,-142.025 5.5,-130.025 17.5,-118.025 47.5,-118.025 59.5,-130.025 59.5,-142.025 47.5,-154.025"/>
<path fill="#bcc2ff" stroke="#bcc2ff" stroke-width="2" d="M17.5,-154.025C11.5,-154.025 5.5,-148.025 5.5,-142.025"/>
<path fill="#bcc2ff" stroke="#bcc2ff" stroke-width="2" d="M5.5,-130.025C5.5,-124.025 11.5,-118.025 17.5,-118.025"/>
<path fill="#bcc2ff" stroke="#bcc2ff" stroke-width="2" d="M47.5,-118.025C53.5,-118.025 59.5,-124.025 59.5,-130.025"/>
<path fill="#bcc2ff" stroke="#bcc2ff" stroke-width="2" d="M59.5,-142.025C59.5,-148.025 53.5,-154.025 47.5,-154.025"/>
<polyline fill="none" stroke="white" stroke-width="2" points="47.5,-154.025 17.5,-154.025 "/>
<path fill="none" stroke="white" stroke-width="2" d="M17.5,-154.025C11.5,-154.025 5.5,-148.025 5.5,-142.025"/>
<polyline fill="none" stroke="white" stroke-width="2" points="5.5,-142.025 5.5,-130.025 "/>
<path fill="none" stroke="white" stroke-width="2" d="M5.5,-130.025C5.5,-124.025 11.5,-118.025 17.5,-118.025"/>
<polyline fill="none" stroke="white" stroke-width="2" points="17.5,-118.025 47.5,-118.025 "/>
<path fill="none" stroke="white" stroke-width="2" d="M47.5,-118.025C53.5,-118.025 59.5,-124.025 59.5,-130.025"/>
<polyline fill="none" stroke="white" stroke-width="2" points="59.5,-130.025 59.5,-142.025 "/>
<path fill="none" stroke="white" stroke-width="2" d="M59.5,-142.025C59.5,-148.025 53.5,-154.025 47.5,-154.025"/>
<text text-anchor="middle" x="32.5" y="-133.525" font-family="Helvetica,sans-Serif" font-size="10.00">RELB</text>
</a>
</g>
<!-- RCOR1_MTA3&#45;&gt;RELB -->
<g id="edge12" class="edge"><title>RCOR1_MTA3&#45;&gt;RELB</title>
<a xlink:title="RELB: 0.086||remove21root">
<path fill="none" stroke="#ebc1ff" stroke-width="3" d="M140.572,-36.0841C132.583,-49.6451 120.504,-68.1833 107.02,-82.08 95.0864,-94.3789 80.0654,-105.845 66.6414,-115.015"/>
<polygon fill="#ebc1ff" stroke="#ebc1ff" points="64.8868,-112.82 59.7919,-119.593 67.9989,-117.475 64.8868,-112.82"/>
</a>
</g>
<!-- PLAGL1 -->
<g id="node17" class="node"><title>PLAGL1</title>
<a xlink:href="PLAGL1.svg" xlink:title="Z&#45;value: 1.203||remove36">
<polygon fill="#a0aaff" stroke="#a0aaff" stroke-width="2" points="251.925,-36 221.925,-36 209.925,-24 209.925,-12 221.925,-0 251.925,-0 263.925,-12 263.925,-24 251.925,-36"/>
<path fill="#a0aaff" stroke="#a0aaff" stroke-width="2" d="M221.925,-36C215.925,-36 209.925,-30 209.925,-24"/>
<path fill="#a0aaff" stroke="#a0aaff" stroke-width="2" d="M209.925,-12C209.925,-6 215.925,-0 221.925,-0"/>
<path fill="#a0aaff" stroke="#a0aaff" stroke-width="2" d="M251.925,-0C257.925,-0 263.925,-6 263.925,-12"/>
<path fill="#a0aaff" stroke="#a0aaff" stroke-width="2" d="M263.925,-24C263.925,-30 257.925,-36 251.925,-36"/>
<polyline fill="none" stroke="white" stroke-width="2" points="251.925,-36 221.925,-36 "/>
<path fill="none" stroke="white" stroke-width="2" d="M221.925,-36C215.925,-36 209.925,-30 209.925,-24"/>
<polyline fill="none" stroke="white" stroke-width="2" points="209.925,-24 209.925,-12 "/>
<path fill="none" stroke="white" stroke-width="2" d="M209.925,-12C209.925,-6 215.925,-0 221.925,-0"/>
<polyline fill="none" stroke="white" stroke-width="2" points="221.925,-0 251.925,-0 "/>
<path fill="none" stroke="white" stroke-width="2" d="M251.925,-0C257.925,-0 263.925,-6 263.925,-12"/>
<polyline fill="none" stroke="white" stroke-width="2" points="263.925,-12 263.925,-24 "/>
<path fill="none" stroke="white" stroke-width="2" d="M263.925,-24C263.925,-30 257.925,-36 251.925,-36"/>
<text text-anchor="middle" x="236.925" y="-15.5" font-family="Helvetica,sans-Serif" font-size="10.00">PLAGL1</text>
</a>
</g>
<!-- RCOR1_MTA3&#45;&gt;PLAGL1 -->
<g id="edge18" class="edge"><title>RCOR1_MTA3&#45;&gt;PLAGL1</title>
<a xlink:title="PLAGL1: 0.282||RCOR1: 0.068||remove36">
<path fill="none" stroke="#e4aaff" stroke-width="3" d="M200.18,-17.0002C200.693,-17 201.205,-17 201.715,-17.0002"/>
<path fill="none" stroke="#ecc3ff" stroke-width="3" d="M200.18,-18.9998C200.693,-19 201.205,-19 201.715,-18.9998"/>
<polygon fill="#ecc3ff" stroke="#ecc3ff" points="199.953,-15.1999 191.953,-18 199.953,-20.7999 199.953,-15.1999"/>
<polygon fill="#e4aaff" stroke="#e4aaff" points="201.804,-20.8001 209.804,-18 201.804,-15.2001 201.804,-20.8001"/>
</a>
</g>
<!-- ELK4_ETV5_ELK1_ELK3_ELF4 -->
<g id="node20" class="node"><title>ELK4_ETV5_ELK1_ELK3_ELF4</title>
<a xlink:href="ELK4_ETV5_ELK1_ELK3_ELF4.svg" xlink:title="Z&#45;value: 1.430||remove32">
<polygon fill="#98a2ff" stroke="#98a2ff" stroke-width="2" points="378.249,-79.2 245.249,-79.2 233.249,-67.2 233.249,-55.2 245.249,-43.2 378.249,-43.2 390.249,-55.2 390.249,-67.2 378.249,-79.2"/>
<path fill="#98a2ff" stroke="#98a2ff" stroke-width="2" d="M245.249,-79.2C239.249,-79.2 233.249,-73.2 233.249,-67.2"/>
<path fill="#98a2ff" stroke="#98a2ff" stroke-width="2" d="M233.249,-55.2C233.249,-49.2 239.249,-43.2 245.249,-43.2"/>
<path fill="#98a2ff" stroke="#98a2ff" stroke-width="2" d="M378.249,-43.2C384.249,-43.2 390.249,-49.2 390.249,-55.2"/>
<path fill="#98a2ff" stroke="#98a2ff" stroke-width="2" d="M390.249,-67.2C390.249,-73.2 384.249,-79.2 378.249,-79.2"/>
<polyline fill="none" stroke="white" stroke-width="2" points="378.249,-79.2 245.249,-79.2 "/>
<path fill="none" stroke="white" stroke-width="2" d="M245.249,-79.2C239.249,-79.2 233.249,-73.2 233.249,-67.2"/>
<polyline fill="none" stroke="white" stroke-width="2" points="233.249,-67.2 233.249,-55.2 "/>
<path fill="none" stroke="white" stroke-width="2" d="M233.249,-55.2C233.249,-49.2 239.249,-43.2 245.249,-43.2"/>
<polyline fill="none" stroke="white" stroke-width="2" points="245.249,-43.2 378.249,-43.2 "/>
<path fill="none" stroke="white" stroke-width="2" d="M378.249,-43.2C384.249,-43.2 390.249,-49.2 390.249,-55.2"/>
<polyline fill="none" stroke="white" stroke-width="2" points="390.249,-55.2 390.249,-67.2 "/>
<path fill="none" stroke="white" stroke-width="2" d="M390.249,-67.2C390.249,-73.2 384.249,-79.2 378.249,-79.2"/>
<text text-anchor="middle" x="311.749" y="-58.7" font-family="Helvetica,sans-Serif" font-size="10.00">ELK4_ETV5_ELK1_ELK3_ELF4</text>
</a>
</g>
<!-- RCOR1_MTA3&#45;&gt;ELK4_ETV5_ELK1_ELK3_ELF4 -->
<g id="edge22" class="edge"><title>RCOR1_MTA3&#45;&gt;ELK4_ETV5_ELK1_ELK3_ELF4</title>
<a xlink:title="ELK3: 0.260||ETV5: 0.138||remove32">
<path fill="none" stroke="#e4adff" stroke-width="3" d="M191.795,-34.4315C196.419,-36.0374 201.09,-37.5583 205.605,-38.88 211.704,-40.6657 218.04,-42.3685 224.444,-43.9792"/>
<polygon fill="#e4adff" stroke="#e4adff" points="224.144,-46.7882 232.58,-45.9695 225.475,-41.3486 224.144,-46.7882"/>
</a>
</g>
<!-- RELA -->
<g id="node22" class="node"><title>RELA</title>
<a xlink:href="RELA.svg" xlink:title="Z&#45;value: 0.637||remove41">
<polygon fill="#ffb5b5" stroke="#ffb5b5" stroke-width="2" points="208.725,-197.225 178.725,-197.225 166.725,-185.225 166.725,-173.225 178.725,-161.225 208.725,-161.225 220.725,-173.225 220.725,-185.225 208.725,-197.225"/>
<path fill="#ffb5b5" stroke="#ffb5b5" stroke-width="2" d="M178.725,-197.225C172.725,-197.225 166.725,-191.225 166.725,-185.225"/>
<path fill="#ffb5b5" stroke="#ffb5b5" stroke-width="2" d="M166.725,-173.225C166.725,-167.225 172.725,-161.225 178.725,-161.225"/>
<path fill="#ffb5b5" stroke="#ffb5b5" stroke-width="2" d="M208.725,-161.225C214.725,-161.225 220.725,-167.225 220.725,-173.225"/>
<path fill="#ffb5b5" stroke="#ffb5b5" stroke-width="2" d="M220.725,-185.225C220.725,-191.225 214.725,-197.225 208.725,-197.225"/>
<polyline fill="none" stroke="white" stroke-width="2" points="208.725,-197.225 178.725,-197.225 "/>
<path fill="none" stroke="white" stroke-width="2" d="M178.725,-197.225C172.725,-197.225 166.725,-191.225 166.725,-185.225"/>
<polyline fill="none" stroke="white" stroke-width="2" points="166.725,-185.225 166.725,-173.225 "/>
<path fill="none" stroke="white" stroke-width="2" d="M166.725,-173.225C166.725,-167.225 172.725,-161.225 178.725,-161.225"/>
<polyline fill="none" stroke="white" stroke-width="2" points="178.725,-161.225 208.725,-161.225 "/>
<path fill="none" stroke="white" stroke-width="2" d="M208.725,-161.225C214.725,-161.225 220.725,-167.225 220.725,-173.225"/>
<polyline fill="none" stroke="white" stroke-width="2" points="220.725,-173.225 220.725,-185.225 "/>
<path fill="none" stroke="white" stroke-width="2" d="M220.725,-185.225C220.725,-191.225 214.725,-197.225 208.725,-197.225"/>
<text text-anchor="middle" x="193.725" y="-176.725" font-family="Helvetica,sans-Serif" font-size="10.00">RELA</text>
</a>
</g>
<!-- RCOR1_MTA3&#45;&gt;RELA -->
<g id="edge24" class="edge"><title>RCOR1_MTA3&#45;&gt;RELA</title>
<a xlink:title="RELA: 0.351||MTA3: 0.401||remove38root">
<path fill="none" stroke="#a2abff" stroke-width="3" d="M158.454,-43.7293C166.475,-73.6656 179.582,-122.58 187.64,-152.653"/>
<path fill="none" stroke="#ff9c9c" stroke-width="3" d="M156.522,-44.2469C164.544,-74.1832 177.65,-123.097 185.708,-153.17"/>
<polygon fill="#ff9c9c" stroke="#ff9c9c" points="160.171,-43.1838 155.396,-36.1811 154.762,-44.6332 160.171,-43.1838"/>
<polygon fill="#a2abff" stroke="#a2abff" points="184.029,-153.86 188.805,-160.863 189.438,-152.41 184.029,-153.86"/>
</a>
</g>
<!-- RELB&#45;&gt;NFKB1 -->
<g id="edge74" class="edge"><title>RELB&#45;&gt;NFKB1</title>
<a xlink:title="NFKB1: 0.003||RELB: 0.217||remove31">
<path fill="none" stroke="#eecbff" stroke-width="3" d="M47.9229,-160.738C70.5596,-199.946 113.953,-275.106 136.682,-314.473"/>
<path fill="none" stroke="#e6b2ff" stroke-width="3" d="M46.1908,-161.738C68.8275,-200.946 112.221,-276.106 134.95,-315.473"/>
<polygon fill="#e6b2ff" stroke="#e6b2ff" points="49.3988,-159.694 42.9739,-154.166 44.5491,-162.494 49.3988,-159.694"/>
<polygon fill="#eecbff" stroke="#eecbff" points="133.649,-316.82 140.074,-322.349 138.499,-314.02 133.649,-316.82"/>
</a>
</g>
<!-- RELB&#45;&gt;ELF3_EHF -->
<g id="edge72" class="edge"><title>RELB&#45;&gt;ELF3_EHF</title>
<a xlink:title="ELF3: 0.098||EHF: 0.090||remove22root">
<path fill="none" stroke="#eac0ff" stroke-width="3" d="M32.5,-154.348C32.5,-166.572 32.5,-182.828 32.5,-196.389"/>
<polygon fill="#eac0ff" stroke="#eac0ff" points="29.7001,-196.424 32.5,-204.424 35.3001,-196.424 29.7001,-196.424"/>
</a>
</g>
<!-- RELB&#45;&gt;RELB -->
<g id="edge70" class="edge"><title>RELB&#45;&gt;RELB</title>
<a xlink:title="RELB: 0.047||remove9root">
<path fill="none" stroke="#ecc6ff" stroke-width="3" d="M59.7408,-142.768C69.5239,-142.913 77.5,-140.665 77.5,-136.025 77.5,-132.762 73.5568,-130.682 67.8147,-129.785"/>
<polygon fill="#ecc6ff" stroke="#ecc6ff" points="67.8996,-126.985 59.7408,-129.281 67.551,-132.574 67.8996,-126.985"/>
</a>
</g>
<!-- RELB&#45;&gt;BATF -->
<g id="edge76" class="edge"><title>RELB&#45;&gt;BATF</title>
<a xlink:title="BATF: 0.080||remove19root">
<path fill="none" stroke="#ebc2ff" stroke-width="3" d="M42.9575,-117.912C48.3829,-108.515 55.0997,-96.8808 61.035,-86.6005"/>
<polygon fill="#ebc2ff" stroke="#ebc2ff" points="63.6139,-87.7337 65.1891,-79.4055 58.7641,-84.9337 63.6139,-87.7337"/>
</a>
</g>
<!-- PLAGL1&#45;&gt;SIX5_SMARCC2_HCFC1 -->
<g id="edge38" class="edge"><title>PLAGL1&#45;&gt;SIX5_SMARCC2_HCFC1</title>
<a xlink:title="SIX5: 0.295||SMARCC2: 0.103||remove34">
<path fill="none" stroke="#e3a9ff" stroke-width="3" d="M221.827,-36.2451C221.155,-37.5764 220.571,-38.9397 220.109,-40.32 214.221,-57.9212 213.178,-64.8626 220.109,-82.08 240.37,-132.413 288.267,-174.821 321.158,-199.443"/>
<polygon fill="#e3a9ff" stroke="#e3a9ff" points="319.829,-201.941 327.933,-204.423 323.146,-197.429 319.829,-201.941"/>
</a>
</g>
<!-- PLAGL1&#45;&gt;ARID5A -->
<g id="edge48" class="edge"><title>PLAGL1&#45;&gt;ARID5A</title>
<a xlink:title="ARID5A: 0.027||remove5root">
<path fill="none" stroke="#edc8ff" stroke-width="3" d="M221.827,-36.2451C221.155,-37.5764 220.571,-38.9397 220.109,-40.32 214.221,-57.9212 219.506,-63.5298 220.109,-82.08 220.156,-83.5211 230.94,-248.788 235.212,-314.215"/>
<polygon fill="#edc8ff" stroke="#edc8ff" points="232.431,-314.599 235.746,-322.4 238.019,-314.234 232.431,-314.599"/>
</a>
</g>
<!-- PLAGL1&#45;&gt;NFKB1 -->
<g id="edge46" class="edge"><title>PLAGL1&#45;&gt;NFKB1</title>
<a xlink:title="NFKB1: 0.069||remove15root">
<path fill="none" stroke="#ecc3ff" stroke-width="3" d="M222.696,-36.3213C221.793,-37.6553 220.921,-38.9966 220.109,-40.32 189.58,-90.0921 177.412,-101.917 162.405,-158.345 148.043,-212.343 147.831,-278.368 149.089,-314.221"/>
<polygon fill="#ecc3ff" stroke="#ecc3ff" points="146.292,-314.36 149.413,-322.241 151.887,-314.134 146.292,-314.36"/>
</a>
</g>
<!-- PLAGL1&#45;&gt;RELB -->
<g id="edge36" class="edge"><title>PLAGL1&#45;&gt;RELB</title>
<a xlink:title="RELB: 0.026||remove4root">
<path fill="none" stroke="#edc8ff" stroke-width="3" d="M209.779,-33.6728C172.971,-54.9239 107.217,-92.8868 66.9648,-116.126"/>
<polygon fill="#edc8ff" stroke="#edc8ff" points="65.2865,-113.862 59.7583,-120.287 68.0865,-118.712 65.2865,-113.862"/>
</a>
</g>
<!-- PLAGL1&#45;&gt;PLAGL1 -->
<g id="edge40" class="edge"><title>PLAGL1&#45;&gt;PLAGL1</title>
<a xlink:title="PLAGL1: 0.151||remove27root">
<path fill="none" stroke="#e8baff" stroke-width="3" d="M264.165,-24.7434C273.949,-24.8884 281.925,-22.6406 281.925,-18 281.925,-14.7371 277.981,-12.6571 272.239,-11.7601"/>
<polygon fill="#e8baff" stroke="#e8baff" points="272.324,-8.96005 264.165,-11.2566 271.976,-14.5492 272.324,-8.96005"/>
</a>
</g>
<!-- PLAGL1&#45;&gt;ELK4_ETV5_ELK1_ELK3_ELF4 -->
<g id="edge42" class="edge"><title>PLAGL1&#45;&gt;ELK4_ETV5_ELK1_ELK3_ELF4</title>
<a xlink:title="ELK3: 0.042||ELF4: 0.036||remove8root">
<path fill="none" stroke="#edc7ff" stroke-width="3" d="M263.938,-33.5962C267.036,-35.3846 270.237,-37.2327 273.446,-39.0859"/>
<polygon fill="#edc7ff" stroke="#edc7ff" points="272.122,-41.5544 280.45,-43.1296 274.922,-36.7047 272.122,-41.5544"/>
</a>
</g>
<!-- PLAGL1&#45;&gt;RELA -->
<g id="edge44" class="edge"><title>PLAGL1&#45;&gt;RELA</title>
<a xlink:title="RELA: 0.206||remove36root">
<path fill="none" stroke="#b3bbff" stroke-width="3" d="M222.275,-36.1001C221.472,-37.4868 220.738,-38.9003 220.109,-40.32 203.813,-77.1389 197.568,-123.803 195.184,-152.579"/>
<polygon fill="#b3bbff" stroke="#b3bbff" points="192.366,-152.718 194.561,-160.905 197.95,-153.136 192.366,-152.718"/>
</a>
</g>
<!-- ELK4_ETV5_ELK1_ELK3_ELF4&#45;&gt;SIX5_SMARCC2_HCFC1 -->
<g id="edge30" class="edge"><title>ELK4_ETV5_ELK1_ELK3_ELF4&#45;&gt;SIX5_SMARCC2_HCFC1</title>
<a xlink:title="SIX5: 0.218||remove32">
<path fill="none" stroke="#e6b2ff" stroke-width="3" d="M312.279,-79.5445C313.244,-99.0746 315.964,-130.712 323.629,-156.905 327.667,-170.702 334.321,-185.206 340.46,-197.051"/>
<polygon fill="#e6b2ff" stroke="#e6b2ff" points="338.153,-198.675 344.387,-204.417 343.094,-196.04 338.153,-198.675"/>
</a>
</g>
<!-- ELK4_ETV5_ELK1_ELK3_ELF4&#45;&gt;ELK4_ETV5_ELK1_ELK3_ELF4 -->
<g id="edge32" class="edge"><title>ELK4_ETV5_ELK1_ELK3_ELF4&#45;&gt;ELK4_ETV5_ELK1_ELK3_ELF4</title>
<a xlink:title="ELK4: 0.168||ELK3: 0.113||remove30root">
<path fill="none" stroke="#e8b8ff" stroke-width="3" d="M390.469,-67.1524C400.859,-66.1373 407.749,-64.1531 407.749,-61.2 407.749,-59.1236 404.343,-57.5262 398.708,-56.4079"/>
<polygon fill="#e8b8ff" stroke="#e8b8ff" points="398.781,-53.5906 390.469,-55.2476 398,-59.1359 398.781,-53.5906"/>
</a>
</g>
<!-- ELK4_ETV5_ELK1_ELK3_ELF4&#45;&gt;RELA -->
<g id="edge34" class="edge"><title>ELK4_ETV5_ELK1_ELK3_ELF4&#45;&gt;RELA</title>
<a xlink:title="RELA: 0.175||remove32root">
<path fill="none" stroke="#b7beff" stroke-width="3" d="M293.567,-79.3827C273.148,-99.8017 239.937,-133.013 217.48,-155.469"/>
<polygon fill="#b7beff" stroke="#b7beff" points="215.411,-153.578 211.734,-161.215 219.371,-157.538 215.411,-153.578"/>
</a>
</g>
<!-- RELA&#45;&gt;SIX5_SMARCC2_HCFC1 -->
<g id="edge58" class="edge"><title>RELA&#45;&gt;SIX5_SMARCC2_HCFC1</title>
<a xlink:title="SIX5: 0.188||remove34root">
<path fill="none" stroke="#ffb5b5" stroke-width="3" d="M221.074,-186.553C237.637,-190.991 259.63,-196.884 280.994,-202.608"/>
<polygon fill="#ffb5b5" stroke="#ffb5b5" points="280.374,-205.341 288.826,-204.707 281.823,-199.932 280.374,-205.341"/>
</a>
</g>
<!-- RELA&#45;&gt;EPAS1_BCL3 -->
<g id="edge56" class="edge"><title>RELA&#45;&gt;EPAS1_BCL3</title>
<a xlink:title="BCL3: 0.636||remove39root">
<path fill="none" stroke="#ff8080" stroke-width="3" d="M211.907,-197.407C232.326,-217.826 265.537,-251.037 287.994,-273.494"/>
<polygon fill="#ff8080" stroke="#ff8080" points="286.103,-275.563 293.74,-279.24 290.063,-271.603 286.103,-275.563"/>
</a>
</g>
<!-- RELA&#45;&gt;ARID5A -->
<g id="edge66" class="edge"><title>RELA&#45;&gt;ARID5A</title>
<a xlink:title="ARID5A: 0.137||remove26root">
<path fill="none" stroke="#ffbbbb" stroke-width="3" d="M198.596,-197.406C206.245,-225.951 221.104,-281.407 229.906,-314.254"/>
<polygon fill="#ffbbbb" stroke="#ffbbbb" points="227.229,-315.084 232.005,-322.087 232.638,-313.635 227.229,-315.084"/>
</a>
</g>
<!-- RELA&#45;&gt;NFKB1 -->
<g id="edge62" class="edge"><title>RELA&#45;&gt;NFKB1</title>
<a xlink:title="NFKB1: 0.171||remove31root">
<path fill="none" stroke="#ffb7b7" stroke-width="3" d="M188.853,-197.406C181.204,-225.951 166.345,-281.407 157.544,-314.254"/>
<polygon fill="#ffb7b7" stroke="#ffb7b7" points="154.811,-313.635 155.445,-322.087 160.22,-315.084 154.811,-313.635"/>
</a>
</g>
<!-- RELA&#45;&gt;MYB -->
<g id="edge64" class="edge"><title>RELA&#45;&gt;MYB</title>
<a xlink:title="MYB: 0.176||remove33root">
<path fill="none" stroke="#ffb7b7" stroke-width="3" d="M175.542,-197.407C155.123,-217.826 121.912,-251.037 99.4555,-273.494"/>
<polygon fill="#ffb7b7" stroke="#ffb7b7" points="97.3866,-271.603 93.7097,-279.24 101.346,-275.563 97.3866,-271.603"/>
</a>
</g>
<!-- RELA&#45;&gt;ELF3_EHF -->
<g id="edge60" class="edge"><title>RELA&#45;&gt;ELF3_EHF</title>
<a xlink:title="ELF3: 0.203||remove35root">
<path fill="none" stroke="#ffb3b3" stroke-width="3" d="M166.375,-186.553C140.754,-193.418 102.139,-203.765 72.9555,-211.585"/>
<polygon fill="#ffb3b3" stroke="#ffb3b3" points="71.9955,-208.943 64.9928,-213.718 73.445,-214.352 71.9955,-208.943"/>
</a>
</g>
<!-- RELA&#45;&gt;RELB -->
<g id="edge54" class="edge"><title>RELA&#45;&gt;RELB</title>
<a xlink:title="RELB: 0.214||remove37root">
<path fill="none" stroke="#ffb2b2" stroke-width="3" d="M166.375,-171.896C139.194,-164.613 97.3881,-153.411 67.7338,-145.465"/>
<polygon fill="#ffb2b2" stroke="#ffb2b2" points="68.1663,-142.683 59.7142,-143.317 66.7169,-148.092 68.1663,-142.683"/>
</a>
</g>
<!-- RELA&#45;&gt;BATF -->
<g id="edge68" class="edge"><title>RELA&#45;&gt;BATF</title>
<a xlink:title="BATF: 1.295||remove40root">
<path fill="none" stroke="#ff3232" stroke-width="3" d="M175.542,-161.042C155.123,-140.623 121.912,-107.412 99.4555,-84.9555"/>
<polygon fill="#ff3232" stroke="#ff3232" points="101.346,-82.8866 93.7097,-79.2097 97.3866,-86.8465 101.346,-82.8866"/>
</a>
</g>
<!-- BATF&#45;&gt;EPAS1_BCL3 -->
<g id="edge78" class="edge"><title>BATF&#45;&gt;EPAS1_BCL3</title>
<a xlink:title="BCL3: 0.071||remove16root">
<path fill="none" stroke="#ebc3ff" stroke-width="3" d="M83.9407,-79.5861C97.3159,-107.95 125.964,-162.977 162.405,-200.105 193.093,-231.372 235.542,-257.779 267.343,-275.131"/>
<polygon fill="#ebc3ff" stroke="#ebc3ff" points="266.402,-277.805 274.774,-279.128 269.054,-272.873 266.402,-277.805"/>
</a>
</g>
<!-- BATF&#45;&gt;ELF3_EHF -->
<g id="edge82" class="edge"><title>BATF&#45;&gt;ELF3_EHF</title>
<a xlink:title="EHF: 0.013||remove3root">
<path fill="none" stroke="#eecaff" stroke-width="3" d="M75.1705,-79.5445C74.2056,-99.0746 71.4853,-130.712 63.82,-156.905 59.7822,-170.702 53.1279,-185.206 46.9889,-197.051"/>
<polygon fill="#eecaff" stroke="#eecaff" points="44.355,-196.04 43.0618,-204.417 49.2965,-198.675 44.355,-196.04"/>
</a>
</g>
<!-- BATF&#45;&gt;PLAGL1 -->
<g id="edge80" class="edge"><title>BATF&#45;&gt;PLAGL1</title>
<a xlink:title="PLAGL1: 0.105||remove23root">
<path fill="none" stroke="#eabfff" stroke-width="3" d="M102.721,-58.8041C128.07,-55.9758 166.75,-50.1536 198.665,-38.88 199.94,-38.4295 201.224,-37.9401 202.509,-37.4194"/>
<polygon fill="#eabfff" stroke="#eabfff" points="203.666,-39.9692 209.827,-34.1487 201.381,-34.8565 203.666,-39.9692"/>
</a>
</g>
<!-- TAL1 -->
<g id="node60" class="node"><title>TAL1</title>
<a xlink:href="TAL1.svg" xlink:title="Z&#45;value: 0.928||remove25">
<polygon fill="#aab3ff" stroke="#aab3ff" stroke-width="2" points="369.949,-154.025 339.949,-154.025 327.949,-142.025 327.949,-130.025 339.949,-118.025 369.949,-118.025 381.949,-130.025 381.949,-142.025 369.949,-154.025"/>
<path fill="#aab3ff" stroke="#aab3ff" stroke-width="2" d="M339.949,-154.025C333.949,-154.025 327.949,-148.025 327.949,-142.025"/>
<path fill="#aab3ff" stroke="#aab3ff" stroke-width="2" d="M327.949,-130.025C327.949,-124.025 333.949,-118.025 339.949,-118.025"/>
<path fill="#aab3ff" stroke="#aab3ff" stroke-width="2" d="M369.949,-118.025C375.949,-118.025 381.949,-124.025 381.949,-130.025"/>
<path fill="#aab3ff" stroke="#aab3ff" stroke-width="2" d="M381.949,-142.025C381.949,-148.025 375.949,-154.025 369.949,-154.025"/>
<polyline fill="none" stroke="white" stroke-width="2" points="369.949,-154.025 339.949,-154.025 "/>
<path fill="none" stroke="white" stroke-width="2" d="M339.949,-154.025C333.949,-154.025 327.949,-148.025 327.949,-142.025"/>
<polyline fill="none" stroke="white" stroke-width="2" points="327.949,-142.025 327.949,-130.025 "/>
<path fill="none" stroke="white" stroke-width="2" d="M327.949,-130.025C327.949,-124.025 333.949,-118.025 339.949,-118.025"/>
<polyline fill="none" stroke="white" stroke-width="2" points="339.949,-118.025 369.949,-118.025 "/>
<path fill="none" stroke="white" stroke-width="2" d="M369.949,-118.025C375.949,-118.025 381.949,-124.025 381.949,-130.025"/>
<polyline fill="none" stroke="white" stroke-width="2" points="381.949,-130.025 381.949,-142.025 "/>
<path fill="none" stroke="white" stroke-width="2" d="M381.949,-142.025C381.949,-148.025 375.949,-154.025 369.949,-154.025"/>
<text text-anchor="middle" x="354.949" y="-133.525" font-family="Helvetica,sans-Serif" font-size="10.00">TAL1</text>
</a>
</g>
<!-- TAL1&#45;&gt;SIX5_SMARCC2_HCFC1 -->
<g id="edge98" class="edge"><title>TAL1&#45;&gt;SIX5_SMARCC2_HCFC1</title>
<a xlink:title="SIX5: 0.079||remove18root">
<path fill="none" stroke="#ebc2ff" stroke-width="3" d="M354.949,-154.348C354.949,-166.572 354.949,-182.828 354.949,-196.389"/>
<polygon fill="#ebc2ff" stroke="#ebc2ff" points="352.149,-196.424 354.949,-204.424 357.749,-196.424 352.149,-196.424"/>
</a>
</g>
<!-- TAL1&#45;&gt;EPAS1_BCL3 -->
<g id="edge96" class="edge"><title>TAL1&#45;&gt;EPAS1_BCL3</title>
<a xlink:title="BCL3: 0.007||remove1root">
<path fill="none" stroke="#eecbff" stroke-width="3" d="M327.581,-150.975C309.944,-162.289 288.486,-179.615 278.389,-201.545 267.641,-224.89 280.017,-252.751 292.63,-272.375"/>
<polygon fill="#eecbff" stroke="#eecbff" points="290.447,-274.146 297.245,-279.208 295.088,-271.011 290.447,-274.146"/>
</a>
</g>
<!-- TAL1&#45;&gt;ARID5A -->
<g id="edge108" class="edge"><title>TAL1&#45;&gt;ARID5A</title>
<a xlink:title="ARID5A: 0.029||remove6root">
<path fill="none" stroke="#edc8ff" stroke-width="3" d="M327.695,-153.357C311.242,-165.115 291.073,-182.038 278.389,-201.545 255.54,-236.687 244.871,-284.9 240.205,-314.299"/>
<polygon fill="#edc8ff" stroke="#edc8ff" points="237.404,-314.099 238.992,-322.425 242.942,-314.926 237.404,-314.099"/>
</a>
</g>
<!-- TAL1&#45;&gt;NFKB1 -->
<g id="edge104" class="edge"><title>TAL1&#45;&gt;NFKB1</title>
<a xlink:title="NFKB1: 0.060||remove11root">
<path fill="none" stroke="#ecc4ff" stroke-width="3" d="M332.222,-154.271C316.656,-167.055 295.767,-184.785 278.389,-201.545 238.689,-239.833 195.934,-287.802 171.294,-316.182"/>
<polygon fill="#ecc4ff" stroke="#ecc4ff" points="169.141,-314.391 166.023,-322.273 173.375,-318.056 169.141,-314.391"/>
</a>
</g>
<!-- TAL1&#45;&gt;MYB -->
<g id="edge106" class="edge"><title>TAL1&#45;&gt;MYB</title>
<a xlink:title="MYB: 0.032||remove7root">
<path fill="none" stroke="#edc8ff" stroke-width="3" d="M327.92,-151.63C276.832,-181.126 166.193,-245.003 109.977,-277.459"/>
<polygon fill="#edc8ff" stroke="#edc8ff" points="108.272,-275.21 102.744,-281.635 111.072,-280.06 108.272,-275.21"/>
</a>
</g>
<!-- TAL1&#45;&gt;PLAGL1 -->
<g id="edge100" class="edge"><title>TAL1&#45;&gt;PLAGL1</title>
<a xlink:title="PLAGL1: 0.008||remove2root">
<path fill="none" stroke="#eecbff" stroke-width="3" d="M327.938,-133.905C296.019,-129.787 244.209,-117.679 220.109,-82.08 211.005,-68.6319 213.325,-60.2214 219.143,-43.8076"/>
<polygon fill="#eecbff" stroke="#eecbff" points="221.79,-44.7208 221.827,-36.2451 216.513,-42.8475 221.79,-44.7208"/>
</a>
</g>
<!-- TAL1&#45;&gt;RELA -->
<g id="edge102" class="edge"><title>TAL1&#45;&gt;RELA</title>
<a xlink:title="RELA: 0.131||remove25root">
<path fill="none" stroke="#bcc3ff" stroke-width="3" d="M327.6,-143.353C300.418,-150.636 258.613,-161.838 228.958,-169.784"/>
<polygon fill="#bcc3ff" stroke="#bcc3ff" points="227.941,-167.157 220.939,-171.933 229.391,-172.567 227.941,-167.157"/>
</a>
</g>
</g>
</svg>
