<?xml version="1.0" ?><!DOCTYPE svg  PUBLIC '-//W3C//DTD SVG 1.1//EN'  'http://www.w3.org/Graphics/SVG/1.1/DTD/svg11.dtd'><!-- Generated by graphviz version 2.28.0 (20110630.0925)
 --><!-- Title: _anonymous_0 Pages: 1 --><svg height="434pt" onload="init(evt)" width="570pt" xmlns="http://www.w3.org/2000/svg" xmlns:ismara="ismara.unibas.ch" xmlns:xlink="http://www.w3.org/1999/xlink">
<g class="graph" id="graph1" transform="scale(1 1) rotate(0) translate(54 380.363)">

<polygon fill="white" points="-4,5 -4,-380.363 416.863,-380.363 416.863,5 -4,5" stroke="white"/>
<!-- SMAD1 -->
<g class="node" id="node1">
<a class="remove25" onmousemove="ShowTooltip(evt, 'Z-value: 1.536')" onmouseout="HideTooltip(evt)" xlink:href="SMAD1.svg">
<polygon fill="#3247ff" points="59.5,-251.782 29.5,-251.782 17.5,-239.782 17.5,-227.782 29.5,-215.782 59.5,-215.782 71.5,-227.782 71.5,-239.782 59.5,-251.782" stroke="#3247ff" stroke-width="2"/>
<path d="M29.5,-251.782C23.5,-251.782 17.5,-245.782 17.5,-239.782" fill="#3247ff" stroke="#3247ff" stroke-width="2"/>
<path d="M17.5,-227.782C17.5,-221.782 23.5,-215.782 29.5,-215.782" fill="#3247ff" stroke="#3247ff" stroke-width="2"/>
<path d="M59.5,-215.782C65.5,-215.782 71.5,-221.782 71.5,-227.782" fill="#3247ff" stroke="#3247ff" stroke-width="2"/>
<path d="M71.5,-239.782C71.5,-245.782 65.5,-251.782 59.5,-251.782" fill="#3247ff" stroke="#3247ff" stroke-width="2"/>
<polyline fill="none" points="59.5,-251.782 29.5,-251.782 " stroke="white" stroke-width="2"/>
<path d="M29.5,-251.782C23.5,-251.782 17.5,-245.782 17.5,-239.782" fill="none" stroke="white" stroke-width="2"/>
<polyline fill="none" points="17.5,-239.782 17.5,-227.782 " stroke="white" stroke-width="2"/>
<path d="M17.5,-227.782C17.5,-221.782 23.5,-215.782 29.5,-215.782" fill="none" stroke="white" stroke-width="2"/>
<polyline fill="none" points="29.5,-215.782 59.5,-215.782 " stroke="white" stroke-width="2"/>
<path d="M59.5,-215.782C65.5,-215.782 71.5,-221.782 71.5,-227.782" fill="none" stroke="white" stroke-width="2"/>
<polyline fill="none" points="71.5,-227.782 71.5,-239.782 " stroke="white" stroke-width="2"/>
<path d="M71.5,-239.782C71.5,-245.782 65.5,-251.782 59.5,-251.782" fill="none" stroke="white" stroke-width="2"/>
<text fill="white" font-family="Helvetica,sans-Serif" font-size="10.00" text-anchor="middle" x="44.5" y="-231.282">SMAD1</text>
</a>
</g>
<!-- SHOX -->
<g class="node" id="node2">
<a class="remove30" onmousemove="ShowTooltip(evt, 'Z-value: 0.339')" onmouseout="HideTooltip(evt)" xlink:href="SHOX.svg">
<polygon fill="#ffaaaa" points="229.682,-206.182 199.682,-206.182 187.682,-194.182 187.682,-182.182 199.682,-170.182 229.682,-170.182 241.682,-182.182 241.682,-194.182 229.682,-206.182" stroke="#ffaaaa" stroke-width="2"/>
<path d="M199.682,-206.182C193.682,-206.182 187.682,-200.182 187.682,-194.182" fill="#ffaaaa" stroke="#ffaaaa" stroke-width="2"/>
<path d="M187.682,-182.182C187.682,-176.182 193.682,-170.182 199.682,-170.182" fill="#ffaaaa" stroke="#ffaaaa" stroke-width="2"/>
<path d="M229.682,-170.182C235.682,-170.182 241.682,-176.182 241.682,-182.182" fill="#ffaaaa" stroke="#ffaaaa" stroke-width="2"/>
<path d="M241.682,-194.182C241.682,-200.182 235.682,-206.182 229.682,-206.182" fill="#ffaaaa" stroke="#ffaaaa" stroke-width="2"/>
<polyline fill="none" points="229.682,-206.182 199.682,-206.182 " stroke="white" stroke-width="2"/>
<path d="M199.682,-206.182C193.682,-206.182 187.682,-200.182 187.682,-194.182" fill="none" stroke="white" stroke-width="2"/>
<polyline fill="none" points="187.682,-194.182 187.682,-182.182 " stroke="white" stroke-width="2"/>
<path d="M187.682,-182.182C187.682,-176.182 193.682,-170.182 199.682,-170.182" fill="none" stroke="white" stroke-width="2"/>
<polyline fill="none" points="199.682,-170.182 229.682,-170.182 " stroke="white" stroke-width="2"/>
<path d="M229.682,-170.182C235.682,-170.182 241.682,-176.182 241.682,-182.182" fill="none" stroke="white" stroke-width="2"/>
<polyline fill="none" points="241.682,-182.182 241.682,-194.182 " stroke="white" stroke-width="2"/>
<path d="M241.682,-194.182C241.682,-200.182 235.682,-206.182 229.682,-206.182" fill="none" stroke="white" stroke-width="2"/>
<text font-family="Helvetica,sans-Serif" font-size="10.00" text-anchor="middle" x="214.682" y="-185.682">SHOX</text>
</a>
</g>
<!-- SMAD1&#45;&gt;SHOX -->
<g class="edge" id="edge2">
<a class="remove25 root" ismara:data="0.132" onmousemove="ShowTooltip(evt, 'SHOX: 0.132')" onmouseout="HideTooltip(evt)">
<path d="M71.8426,-226.455C101.119,-218.61 147.665,-206.139 179.617,-197.577" fill="none" stroke="#8f9aff" stroke-width="3"/>
<polygon fill="#8f9aff" points="180.404,-200.265 187.407,-195.49 178.955,-194.856 180.404,-200.265" stroke="#8f9aff"/>
</a>
</g>
<!-- MEF2D_MEF2A -->
<g class="node" id="node4">
<a class="remove29" onmousemove="ShowTooltip(evt, 'Z-value: 0.591')" onmouseout="HideTooltip(evt)" xlink:href="MEF2D_MEF2A.svg">
<polygon fill="#919cff" points="76.75,-160.582 12.25,-160.582 0.25,-148.582 0.25,-136.582 12.25,-124.582 76.75,-124.582 88.75,-136.582 88.75,-148.582 76.75,-160.582" stroke="#919cff" stroke-width="2"/>
<path d="M12.25,-160.582C6.25,-160.582 0.25,-154.582 0.25,-148.582" fill="#919cff" stroke="#919cff" stroke-width="2"/>
<path d="M0.25,-136.582C0.25,-130.582 6.25,-124.582 12.25,-124.582" fill="#919cff" stroke="#919cff" stroke-width="2"/>
<path d="M76.75,-124.582C82.75,-124.582 88.75,-130.582 88.75,-136.582" fill="#919cff" stroke="#919cff" stroke-width="2"/>
<path d="M88.75,-148.582C88.75,-154.582 82.75,-160.582 76.75,-160.582" fill="#919cff" stroke="#919cff" stroke-width="2"/>
<polyline fill="none" points="76.75,-160.582 12.25,-160.582 " stroke="white" stroke-width="2"/>
<path d="M12.25,-160.582C6.25,-160.582 0.25,-154.582 0.25,-148.582" fill="none" stroke="white" stroke-width="2"/>
<polyline fill="none" points="0.25,-148.582 0.25,-136.582 " stroke="white" stroke-width="2"/>
<path d="M0.25,-136.582C0.25,-130.582 6.25,-124.582 12.25,-124.582" fill="none" stroke="white" stroke-width="2"/>
<polyline fill="none" points="12.25,-124.582 76.75,-124.582 " stroke="white" stroke-width="2"/>
<path d="M76.75,-124.582C82.75,-124.582 88.75,-130.582 88.75,-136.582" fill="none" stroke="white" stroke-width="2"/>
<polyline fill="none" points="88.75,-136.582 88.75,-148.582 " stroke="white" stroke-width="2"/>
<path d="M88.75,-148.582C88.75,-154.582 82.75,-160.582 76.75,-160.582" fill="none" stroke="white" stroke-width="2"/>
<text font-family="Helvetica,sans-Serif" font-size="10.00" text-anchor="middle" x="44.5" y="-140.082">MEF2D_MEF2A</text>
</a>
</g>
<!-- SMAD1&#45;&gt;MEF2D_MEF2A -->
<g class="edge" id="edge4">
<a class="remove2 root" ismara:data="0.034" onmousemove="ShowTooltip(evt, 'MEF2D: 0.034')" onmouseout="HideTooltip(evt)">
<path d="M44.5,-215.763C44.5,-202.485 44.5,-184.208 44.5,-169.241" fill="none" stroke="#e9bcff" stroke-width="3"/>
<polygon fill="#e9bcff" points="47.3001,-168.874 44.5,-160.874 41.7001,-168.874 47.3001,-168.874" stroke="#e9bcff"/>
</a>
</g>
<!-- HOXB2_UNCX_HOXD3 -->
<g class="node" id="node6">
<a class="remove28" onmousemove="ShowTooltip(evt, 'Z-value: 0.563')" onmouseout="HideTooltip(evt)" xlink:href="HOXB2_UNCX_HOXD3.svg">
<polygon fill="#939eff" points="140.35,-81.6 39.85,-81.6 27.85,-69.6 27.85,-57.6 39.85,-45.6 140.35,-45.6 152.35,-57.6 152.35,-69.6 140.35,-81.6" stroke="#939eff" stroke-width="2"/>
<path d="M39.85,-81.6C33.85,-81.6 27.85,-75.6 27.85,-69.6" fill="#939eff" stroke="#939eff" stroke-width="2"/>
<path d="M27.85,-57.6C27.85,-51.6 33.85,-45.6 39.85,-45.6" fill="#939eff" stroke="#939eff" stroke-width="2"/>
<path d="M140.35,-45.6C146.35,-45.6 152.35,-51.6 152.35,-57.6" fill="#939eff" stroke="#939eff" stroke-width="2"/>
<path d="M152.35,-69.6C152.35,-75.6 146.35,-81.6 140.35,-81.6" fill="#939eff" stroke="#939eff" stroke-width="2"/>
<polyline fill="none" points="140.35,-81.6 39.85,-81.6 " stroke="white" stroke-width="2"/>
<path d="M39.85,-81.6C33.85,-81.6 27.85,-75.6 27.85,-69.6" fill="none" stroke="white" stroke-width="2"/>
<polyline fill="none" points="27.85,-69.6 27.85,-57.6 " stroke="white" stroke-width="2"/>
<path d="M27.85,-57.6C27.85,-51.6 33.85,-45.6 39.85,-45.6" fill="none" stroke="white" stroke-width="2"/>
<polyline fill="none" points="39.85,-45.6 140.35,-45.6 " stroke="white" stroke-width="2"/>
<path d="M140.35,-45.6C146.35,-45.6 152.35,-51.6 152.35,-57.6" fill="none" stroke="white" stroke-width="2"/>
<polyline fill="none" points="152.35,-57.6 152.35,-69.6 " stroke="white" stroke-width="2"/>
<path d="M152.35,-69.6C152.35,-75.6 146.35,-81.6 140.35,-81.6" fill="none" stroke="white" stroke-width="2"/>
<text font-family="Helvetica,sans-Serif" font-size="10.00" text-anchor="middle" x="90.1" y="-61.1">HOXB2_UNCX_HOXD3</text>
</a>
</g>
<!-- SMAD1&#45;&gt;HOXB2_UNCX_HOXD3 -->
<g class="edge" id="edge6">
<a class="remove19 root" ismara:data="0.088" onmousemove="ShowTooltip(evt, 'HOXB2: 0.054|SMAD1: 0.088')" onmouseout="HideTooltip(evt)">
<path d="M67.6157,-208.785C78.2645,-196.238 89.7202,-179.922 95.1697,-163.15 103.015,-139.485 99.9567,-110.417 95.8802,-89.9585" fill="none" stroke="#e6b3ff" stroke-width="3"/>
<path d="M69.1409,-210.079C79.9013,-197.387 91.3571,-181.071 97.0703,-163.773 105.004,-139.276 101.946,-110.208 97.8417,-89.5681" fill="none" stroke="#e1a3ff" stroke-width="3"/>
<polygon fill="#e1a3ff" points="66.0652,-207.822 62.884,-215.678 70.2701,-211.52 66.0652,-207.822" stroke="#e1a3ff"/>
<polygon fill="#e6b3ff" points="99.5646,-89.0179 95.1375,-81.7901 94.091,-90.2011 99.5646,-89.0179" stroke="#e6b3ff"/>
</a>
</g>
<!-- ERG -->
<g class="node" id="node9">
<a class="remove21" onmousemove="ShowTooltip(evt, 'Z-value: 0.660')" onmouseout="HideTooltip(evt)" xlink:href="ERG.svg">
<polygon fill="#8a95ff" points="399.863,-251.782 369.863,-251.782 357.863,-239.782 357.863,-227.782 369.863,-215.782 399.863,-215.782 411.863,-227.782 411.863,-239.782 399.863,-251.782" stroke="#8a95ff" stroke-width="2"/>
<path d="M369.863,-251.782C363.863,-251.782 357.863,-245.782 357.863,-239.782" fill="#8a95ff" stroke="#8a95ff" stroke-width="2"/>
<path d="M357.863,-227.782C357.863,-221.782 363.863,-215.782 369.863,-215.782" fill="#8a95ff" stroke="#8a95ff" stroke-width="2"/>
<path d="M399.863,-215.782C405.863,-215.782 411.863,-221.782 411.863,-227.782" fill="#8a95ff" stroke="#8a95ff" stroke-width="2"/>
<path d="M411.863,-239.782C411.863,-245.782 405.863,-251.782 399.863,-251.782" fill="#8a95ff" stroke="#8a95ff" stroke-width="2"/>
<polyline fill="none" points="399.863,-251.782 369.863,-251.782 " stroke="white" stroke-width="2"/>
<path d="M369.863,-251.782C363.863,-251.782 357.863,-245.782 357.863,-239.782" fill="none" stroke="white" stroke-width="2"/>
<polyline fill="none" points="357.863,-239.782 357.863,-227.782 " stroke="white" stroke-width="2"/>
<path d="M357.863,-227.782C357.863,-221.782 363.863,-215.782 369.863,-215.782" fill="none" stroke="white" stroke-width="2"/>
<polyline fill="none" points="369.863,-215.782 399.863,-215.782 " stroke="white" stroke-width="2"/>
<path d="M399.863,-215.782C405.863,-215.782 411.863,-221.782 411.863,-227.782" fill="none" stroke="white" stroke-width="2"/>
<polyline fill="none" points="411.863,-227.782 411.863,-239.782 " stroke="white" stroke-width="2"/>
<path d="M411.863,-239.782C411.863,-245.782 405.863,-251.782 399.863,-251.782" fill="none" stroke="white" stroke-width="2"/>
<text font-family="Helvetica,sans-Serif" font-size="10.00" text-anchor="middle" x="384.863" y="-231.282">ERG</text>
</a>
</g>
<!-- SHOX&#45;&gt;ERG -->
<g class="edge" id="edge18">
<a class="remove21 root" ismara:data="0.097" onmousemove="ShowTooltip(evt, 'ERG: 0.097')" onmouseout="HideTooltip(evt)">
<path d="M242.024,-195.508C271.301,-203.353 317.846,-215.824 349.799,-224.386" fill="none" stroke="#ff9f9f" stroke-width="3"/>
<polygon fill="#ff9f9f" points="349.136,-227.107 357.588,-226.473 350.586,-221.698 349.136,-227.107" stroke="#ff9f9f"/>
</a>
</g>
<!-- ETV1_ERF_FEV_ELF1 -->
<g class="node" id="node12">
<a class="remove13" onmousemove="ShowTooltip(evt, 'Z-value: 0.994')" onmouseout="HideTooltip(evt)" xlink:href="ETV1_ERF_FEV_ELF1.svg">
<polygon fill="#6877ff" points="386.763,-330.763 291.763,-330.763 279.763,-318.763 279.763,-306.763 291.763,-294.763 386.763,-294.763 398.763,-306.763 398.763,-318.763 386.763,-330.763" stroke="#6877ff" stroke-width="2"/>
<path d="M291.763,-330.763C285.763,-330.763 279.763,-324.763 279.763,-318.763" fill="#6877ff" stroke="#6877ff" stroke-width="2"/>
<path d="M279.763,-306.763C279.763,-300.763 285.763,-294.763 291.763,-294.763" fill="#6877ff" stroke="#6877ff" stroke-width="2"/>
<path d="M386.763,-294.763C392.763,-294.763 398.763,-300.763 398.763,-306.763" fill="#6877ff" stroke="#6877ff" stroke-width="2"/>
<path d="M398.763,-318.763C398.763,-324.763 392.763,-330.763 386.763,-330.763" fill="#6877ff" stroke="#6877ff" stroke-width="2"/>
<polyline fill="none" points="386.763,-330.763 291.763,-330.763 " stroke="white" stroke-width="2"/>
<path d="M291.763,-330.763C285.763,-330.763 279.763,-324.763 279.763,-318.763" fill="none" stroke="white" stroke-width="2"/>
<polyline fill="none" points="279.763,-318.763 279.763,-306.763 " stroke="white" stroke-width="2"/>
<path d="M279.763,-306.763C279.763,-300.763 285.763,-294.763 291.763,-294.763" fill="none" stroke="white" stroke-width="2"/>
<polyline fill="none" points="291.763,-294.763 386.763,-294.763 " stroke="white" stroke-width="2"/>
<path d="M386.763,-294.763C392.763,-294.763 398.763,-300.763 398.763,-306.763" fill="none" stroke="white" stroke-width="2"/>
<polyline fill="none" points="398.763,-306.763 398.763,-318.763 " stroke="white" stroke-width="2"/>
<path d="M398.763,-318.763C398.763,-324.763 392.763,-330.763 386.763,-330.763" fill="none" stroke="white" stroke-width="2"/>
<text fill="white" font-family="Helvetica,sans-Serif" font-size="10.00" text-anchor="middle" x="339.263" y="-310.263">ETV1_ERF_FEV_ELF1</text>
</a>
</g>
<!-- SHOX&#45;&gt;ETV1_ERF_FEV_ELF1 -->
<g class="edge" id="edge22">
<a class="remove13 root" ismara:data="0.066" onmousemove="ShowTooltip(evt, 'ELF1: 0.066|ETV1: 0.039')" onmouseout="HideTooltip(evt)">
<path d="M232.797,-206.297C254.571,-228.071 291.183,-264.683 315.285,-288.785" fill="none" stroke="#ffadad" stroke-width="3"/>
<polygon fill="#ffadad" points="313.489,-290.949 321.126,-294.626 317.449,-286.989 313.489,-290.949" stroke="#ffadad"/>
</a>
</g>
<!-- TBX19 -->
<g class="node" id="node16">
<a class="remove15" onmousemove="ShowTooltip(evt, 'Z-value: 0.331')" onmouseout="HideTooltip(evt)" xlink:href="TBX19.svg">
<polygon fill="#abb3ff" points="275.282,-376.363 245.282,-376.363 233.282,-364.363 233.282,-352.363 245.282,-340.363 275.282,-340.363 287.282,-352.363 287.282,-364.363 275.282,-376.363" stroke="#abb3ff" stroke-width="2"/>
<path d="M245.282,-376.363C239.282,-376.363 233.282,-370.363 233.282,-364.363" fill="#abb3ff" stroke="#abb3ff" stroke-width="2"/>
<path d="M233.282,-352.363C233.282,-346.363 239.282,-340.363 245.282,-340.363" fill="#abb3ff" stroke="#abb3ff" stroke-width="2"/>
<path d="M275.282,-340.363C281.282,-340.363 287.282,-346.363 287.282,-352.363" fill="#abb3ff" stroke="#abb3ff" stroke-width="2"/>
<path d="M287.282,-364.363C287.282,-370.363 281.282,-376.363 275.282,-376.363" fill="#abb3ff" stroke="#abb3ff" stroke-width="2"/>
<polyline fill="none" points="275.282,-376.363 245.282,-376.363 " stroke="white" stroke-width="2"/>
<path d="M245.282,-376.363C239.282,-376.363 233.282,-370.363 233.282,-364.363" fill="none" stroke="white" stroke-width="2"/>
<polyline fill="none" points="233.282,-364.363 233.282,-352.363 " stroke="white" stroke-width="2"/>
<path d="M233.282,-352.363C233.282,-346.363 239.282,-340.363 245.282,-340.363" fill="none" stroke="white" stroke-width="2"/>
<polyline fill="none" points="245.282,-340.363 275.282,-340.363 " stroke="white" stroke-width="2"/>
<path d="M275.282,-340.363C281.282,-340.363 287.282,-346.363 287.282,-352.363" fill="none" stroke="white" stroke-width="2"/>
<polyline fill="none" points="287.282,-352.363 287.282,-364.363 " stroke="white" stroke-width="2"/>
<path d="M287.282,-364.363C287.282,-370.363 281.282,-376.363 275.282,-376.363" fill="none" stroke="white" stroke-width="2"/>
<text font-family="Helvetica,sans-Serif" font-size="10.00" text-anchor="middle" x="260.282" y="-355.863">TBX19</text>
</a>
</g>
<!-- SHOX&#45;&gt;TBX19 -->
<g class="edge" id="edge20">
<a class="remove15 root" ismara:data="0.07" onmousemove="ShowTooltip(evt, 'TBX19: 0.070')" onmouseout="HideTooltip(evt)">
<path d="M219.562,-206.394C227.687,-236.718 244.015,-297.655 253.337,-332.447" fill="none" stroke="#ffabab" stroke-width="3"/>
<polygon fill="#ffabab" points="250.661,-333.279 255.437,-340.282 256.071,-331.829 250.661,-333.279" stroke="#ffabab"/>
</a>
</g>
<!-- PBX2 -->
<g class="node" id="node19">
<a class="remove16" onmousemove="ShowTooltip(evt, 'Z-value: 0.216')" onmouseout="HideTooltip(evt)" xlink:href="PBX2.svg">
<polygon fill="#b6bdff" points="184.082,-376.363 154.082,-376.363 142.082,-364.363 142.082,-352.363 154.082,-340.363 184.082,-340.363 196.082,-352.363 196.082,-364.363 184.082,-376.363" stroke="#b6bdff" stroke-width="2"/>
<path d="M154.082,-376.363C148.082,-376.363 142.082,-370.363 142.082,-364.363" fill="#b6bdff" stroke="#b6bdff" stroke-width="2"/>
<path d="M142.082,-352.363C142.082,-346.363 148.082,-340.363 154.082,-340.363" fill="#b6bdff" stroke="#b6bdff" stroke-width="2"/>
<path d="M184.082,-340.363C190.082,-340.363 196.082,-346.363 196.082,-352.363" fill="#b6bdff" stroke="#b6bdff" stroke-width="2"/>
<path d="M196.082,-364.363C196.082,-370.363 190.082,-376.363 184.082,-376.363" fill="#b6bdff" stroke="#b6bdff" stroke-width="2"/>
<polyline fill="none" points="184.082,-376.363 154.082,-376.363 " stroke="white" stroke-width="2"/>
<path d="M154.082,-376.363C148.082,-376.363 142.082,-370.363 142.082,-364.363" fill="none" stroke="white" stroke-width="2"/>
<polyline fill="none" points="142.082,-364.363 142.082,-352.363 " stroke="white" stroke-width="2"/>
<path d="M142.082,-352.363C142.082,-346.363 148.082,-340.363 154.082,-340.363" fill="none" stroke="white" stroke-width="2"/>
<polyline fill="none" points="154.082,-340.363 184.082,-340.363 " stroke="white" stroke-width="2"/>
<path d="M184.082,-340.363C190.082,-340.363 196.082,-346.363 196.082,-352.363" fill="none" stroke="white" stroke-width="2"/>
<polyline fill="none" points="196.082,-352.363 196.082,-364.363 " stroke="white" stroke-width="2"/>
<path d="M196.082,-364.363C196.082,-370.363 190.082,-376.363 184.082,-376.363" fill="none" stroke="white" stroke-width="2"/>
<text font-family="Helvetica,sans-Serif" font-size="10.00" text-anchor="middle" x="169.082" y="-355.863">PBX2</text>
</a>
</g>
<!-- SHOX&#45;&gt;PBX2 -->
<g class="edge" id="edge24">
<a class="remove16 root" ismara:data="0.076" onmousemove="ShowTooltip(evt, 'PBX2: 0.076')" onmouseout="HideTooltip(evt)">
<path d="M209.802,-206.394C201.676,-236.718 185.348,-297.655 176.026,-332.447" fill="none" stroke="#ffa9a9" stroke-width="3"/>
<polygon fill="#ffa9a9" points="173.292,-331.829 173.926,-340.282 178.702,-333.279 173.292,-331.829" stroke="#ffa9a9"/>
</a>
</g>
<!-- ATF7 -->
<g class="node" id="node21">
<a class="remove20" onmousemove="ShowTooltip(evt, 'Z-value: 0.428')" onmouseout="HideTooltip(evt)" xlink:href="ATF7.svg">
<polygon fill="#a1aaff" points="105.1,-330.763 75.1,-330.763 63.1,-318.763 63.1,-306.763 75.1,-294.763 105.1,-294.763 117.1,-306.763 117.1,-318.763 105.1,-330.763" stroke="#a1aaff" stroke-width="2"/>
<path d="M75.1,-330.763C69.1,-330.763 63.1,-324.763 63.1,-318.763" fill="#a1aaff" stroke="#a1aaff" stroke-width="2"/>
<path d="M63.1,-306.763C63.1,-300.763 69.1,-294.763 75.1,-294.763" fill="#a1aaff" stroke="#a1aaff" stroke-width="2"/>
<path d="M105.1,-294.763C111.1,-294.763 117.1,-300.763 117.1,-306.763" fill="#a1aaff" stroke="#a1aaff" stroke-width="2"/>
<path d="M117.1,-318.763C117.1,-324.763 111.1,-330.763 105.1,-330.763" fill="#a1aaff" stroke="#a1aaff" stroke-width="2"/>
<polyline fill="none" points="105.1,-330.763 75.1,-330.763 " stroke="white" stroke-width="2"/>
<path d="M75.1,-330.763C69.1,-330.763 63.1,-324.763 63.1,-318.763" fill="none" stroke="white" stroke-width="2"/>
<polyline fill="none" points="63.1,-318.763 63.1,-306.763 " stroke="white" stroke-width="2"/>
<path d="M63.1,-306.763C63.1,-300.763 69.1,-294.763 75.1,-294.763" fill="none" stroke="white" stroke-width="2"/>
<polyline fill="none" points="75.1,-294.763 105.1,-294.763 " stroke="white" stroke-width="2"/>
<path d="M105.1,-294.763C111.1,-294.763 117.1,-300.763 117.1,-306.763" fill="none" stroke="white" stroke-width="2"/>
<polyline fill="none" points="117.1,-306.763 117.1,-318.763 " stroke="white" stroke-width="2"/>
<path d="M117.1,-318.763C117.1,-324.763 111.1,-330.763 105.1,-330.763" fill="none" stroke="white" stroke-width="2"/>
<text font-family="Helvetica,sans-Serif" font-size="10.00" text-anchor="middle" x="90.1" y="-310.263">ATF7</text>
</a>
</g>
<!-- SHOX&#45;&gt;ATF7 -->
<g class="edge" id="edge26">
<a class="remove20 root" ismara:data="0.09" onmousemove="ShowTooltip(evt, 'ATF7: 0.090')" onmouseout="HideTooltip(evt)">
<path d="M196.566,-206.297C174.792,-228.071 138.18,-264.683 114.078,-288.785" fill="none" stroke="#ffa2a2" stroke-width="3"/>
<polygon fill="#ffa2a2" points="111.914,-286.989 108.237,-294.626 115.874,-290.949 111.914,-286.989" stroke="#ffa2a2"/>
</a>
</g>
<!-- MEF2D_MEF2A&#45;&gt;SHOX -->
<g class="edge" id="edge8">
<a class="remove29 root" ismara:data="0.156" onmousemove="ShowTooltip(evt, 'SHOX: 0.156')" onmouseout="HideTooltip(evt)">
<path d="M88.7689,-154.443C117.151,-162.048 153.474,-171.781 179.806,-178.837" fill="none" stroke="#8490ff" stroke-width="3"/>
<polygon fill="#8490ff" points="179.186,-181.569 187.638,-180.935 180.635,-176.16 179.186,-181.569" stroke="#8490ff"/>
</a>
</g>
<!-- HOXB2_UNCX_HOXD3&#45;&gt;SHOX -->
<g class="edge" id="edge12">
<a class="remove28 root" ismara:data="0.137" onmousemove="ShowTooltip(evt, 'SHOX: 0.137')" onmouseout="HideTooltip(evt)">
<path d="M108.215,-81.7152C129.99,-103.49 166.602,-140.102 190.703,-164.203" fill="none" stroke="#8c98ff" stroke-width="3"/>
<polygon fill="#8c98ff" points="188.908,-166.367 196.544,-170.044 192.867,-162.408 188.908,-166.367" stroke="#8c98ff"/>
</a>
</g>
<!-- HOXB2_UNCX_HOXD3&#45;&gt;HOXB2_UNCX_HOXD3 -->
<g class="edge" id="edge16">
<a class="remove27 root" ismara:data="0.135" onmousemove="ShowTooltip(evt, 'UNCX: 0.135')" onmouseout="HideTooltip(evt)">
<path d="M152.488,-69.8737C162.909,-68.9959 170.1,-66.9047 170.1,-63.6 170.1,-61.2248 166.385,-59.4764 160.426,-58.3549" fill="none" stroke="#da8dff" stroke-width="3"/>
<polygon fill="#da8dff" points="160.782,-55.5776 152.488,-57.3263 160.062,-61.1312 160.782,-55.5776" stroke="#da8dff"/>
</a>
</g>
<!-- HOXB2_UNCX_HOXD3&#45;&gt;ERG -->
<g class="edge" id="edge10">
<a class="remove7 root" ismara:data="0.043" onmousemove="ShowTooltip(evt, 'ERG: 0.043')" onmouseout="HideTooltip(evt)">
<path d="M121.366,-81.6513C177.064,-113.809 293.019,-180.756 350.722,-214.07" fill="none" stroke="#e8b8ff" stroke-width="3"/>
<polygon fill="#e8b8ff" points="349.468,-216.579 357.796,-218.155 352.268,-211.73 349.468,-216.579" stroke="#e8b8ff"/>
</a>
</g>
<!-- HOXB2_UNCX_HOXD3&#45;&gt;ETV1_ERF_FEV_ELF1 -->
<g class="edge" id="edge14">
<a class="remove1 root" ismara:data="0.033" onmousemove="ShowTooltip(evt, 'ETV1: 0.033')" onmouseout="HideTooltip(evt)">
<path d="M98.6628,-81.8287C113.074,-111.147 144.451,-169.49 183.362,-209.062 216.734,-243.001 262.934,-272.042 296.37,-290.685" fill="none" stroke="#e9bdff" stroke-width="3"/>
<polygon fill="#e9bdff" points="295.367,-293.329 303.726,-294.734 298.068,-288.423 295.367,-293.329" stroke="#e9bdff"/>
</a>
</g>
<!-- ERG&#45;&gt;ETV1_ERF_FEV_ELF1 -->
<g class="edge" id="edge66">
<a class="remove8 root" ismara:data="0.051" onmousemove="ShowTooltip(evt, 'ETV1: 0.051')" onmouseout="HideTooltip(evt)">
<path d="M374.287,-252.1C368.244,-262.567 360.574,-275.851 353.953,-287.318" fill="none" stroke="#e7b4ff" stroke-width="3"/>
<polygon fill="#e7b4ff" points="351.357,-286.216 349.782,-294.544 356.207,-289.016 351.357,-286.216" stroke="#e7b4ff"/>
</a>
</g>
<!-- EN1_ESX1_GBX1 -->
<g class="node" id="node25">
<a class="remove22" onmousemove="ShowTooltip(evt, 'Z-value: 0.484')" onmouseout="HideTooltip(evt)" xlink:href="EN1_ESX1_GBX1.svg">
<polygon fill="#9ba5ff" points="296.782,-36 223.782,-36 211.782,-24 211.782,-12 223.782,-0 296.782,-0 308.782,-12 308.782,-24 296.782,-36" stroke="#9ba5ff" stroke-width="2"/>
<path d="M223.782,-36C217.782,-36 211.782,-30 211.782,-24" fill="#9ba5ff" stroke="#9ba5ff" stroke-width="2"/>
<path d="M211.782,-12C211.782,-6 217.782,-0 223.782,-0" fill="#9ba5ff" stroke="#9ba5ff" stroke-width="2"/>
<path d="M296.782,-0C302.782,-0 308.782,-6 308.782,-12" fill="#9ba5ff" stroke="#9ba5ff" stroke-width="2"/>
<path d="M308.782,-24C308.782,-30 302.782,-36 296.782,-36" fill="#9ba5ff" stroke="#9ba5ff" stroke-width="2"/>
<polyline fill="none" points="296.782,-36 223.782,-36 " stroke="white" stroke-width="2"/>
<path d="M223.782,-36C217.782,-36 211.782,-30 211.782,-24" fill="none" stroke="white" stroke-width="2"/>
<polyline fill="none" points="211.782,-24 211.782,-12 " stroke="white" stroke-width="2"/>
<path d="M211.782,-12C211.782,-6 217.782,-0 223.782,-0" fill="none" stroke="white" stroke-width="2"/>
<polyline fill="none" points="223.782,-0 296.782,-0 " stroke="white" stroke-width="2"/>
<path d="M296.782,-0C302.782,-0 308.782,-6 308.782,-12" fill="none" stroke="white" stroke-width="2"/>
<polyline fill="none" points="308.782,-12 308.782,-24 " stroke="white" stroke-width="2"/>
<path d="M308.782,-24C308.782,-30 302.782,-36 296.782,-36" fill="none" stroke="white" stroke-width="2"/>
<text font-family="Helvetica,sans-Serif" font-size="10.00" text-anchor="middle" x="260.282" y="-15.5">EN1_ESX1_GBX1</text>
</a>
</g>
<!-- ETV1_ERF_FEV_ELF1&#45;&gt;EN1_ESX1_GBX1 -->
<g class="edge" id="edge46">
<a class="remove13" ismara:data="0.333" onmousemove="ShowTooltip(evt, 'EN1: 0.333|ETV1: 0.044')" onmouseout="HideTooltip(evt)">
<path d="M331.284,-286.848C316.288,-230.884 281.258,-100.15 266.294,-44.3027" fill="none" stroke="#bd32ff" stroke-width="3"/>
<path d="M333.216,-286.33C318.22,-230.366 283.19,-99.6326 268.226,-43.7851" fill="none" stroke="#e8b7ff" stroke-width="3"/>
<polygon fill="#e8b7ff" points="329.547,-287.322 334.322,-294.324 334.956,-285.872 329.547,-287.322" stroke="#e8b7ff"/>
<polygon fill="#bd32ff" points="269.895,-43.0581 265.119,-36.0554 264.485,-44.5075 269.895,-43.0581" stroke="#bd32ff"/>
</a>
</g>
<!-- TBX19&#45;&gt;TBX19 -->
<g class="edge" id="edge68">
<a class="remove12 root" ismara:data="0.065" onmousemove="ShowTooltip(evt, 'TBX19: 0.065')" onmouseout="HideTooltip(evt)">
<path d="M287.522,-365.106C297.305,-365.251 305.282,-363.004 305.282,-358.363 305.282,-355.1 301.338,-353.02 295.596,-352.123" fill="none" stroke="#e5aeff" stroke-width="3"/>
<polygon fill="#e5aeff" points="295.681,-349.323 287.522,-351.62 295.332,-354.912 295.681,-349.323" stroke="#e5aeff"/>
</a>
</g>
<!-- PLAGL1 -->
<g class="node" id="node23">
<a class="remove24" onmousemove="ShowTooltip(evt, 'Z-value: 1.203')" onmouseout="HideTooltip(evt)" xlink:href="PLAGL1.svg">
<polygon fill="#5465ff" points="184.082,-36 154.082,-36 142.082,-24 142.082,-12 154.082,-6.39488e-14 184.082,-6.39488e-14 196.082,-12 196.082,-24 184.082,-36" stroke="#5465ff" stroke-width="2"/>
<path d="M154.082,-36C148.082,-36 142.082,-30 142.082,-24" fill="#5465ff" stroke="#5465ff" stroke-width="2"/>
<path d="M142.082,-12C142.082,-6 148.082,-6.39488e-14 154.082,-6.39488e-14" fill="#5465ff" stroke="#5465ff" stroke-width="2"/>
<path d="M184.082,-6.39488e-14C190.082,-6.39488e-14 196.082,-6 196.082,-12" fill="#5465ff" stroke="#5465ff" stroke-width="2"/>
<path d="M196.082,-24C196.082,-30 190.082,-36 184.082,-36" fill="#5465ff" stroke="#5465ff" stroke-width="2"/>
<polyline fill="none" points="184.082,-36 154.082,-36 " stroke="white" stroke-width="2"/>
<path d="M154.082,-36C148.082,-36 142.082,-30 142.082,-24" fill="none" stroke="white" stroke-width="2"/>
<polyline fill="none" points="142.082,-24 142.082,-12 " stroke="white" stroke-width="2"/>
<path d="M142.082,-12C142.082,-6 148.082,-6.39488e-14 154.082,-6.39488e-14" fill="none" stroke="white" stroke-width="2"/>
<polyline fill="none" points="154.082,-6.39488e-14 184.082,-6.39488e-14 " stroke="white" stroke-width="2"/>
<path d="M184.082,-6.39488e-14C190.082,-6.39488e-14 196.082,-6 196.082,-12" fill="none" stroke="white" stroke-width="2"/>
<polyline fill="none" points="196.082,-12 196.082,-24 " stroke="white" stroke-width="2"/>
<path d="M196.082,-24C196.082,-30 190.082,-36 184.082,-36" fill="none" stroke="white" stroke-width="2"/>
<text fill="white" font-family="Helvetica,sans-Serif" font-size="10.00" text-anchor="middle" x="169.082" y="-15.5">PLAGL1</text>
</a>
</g>
<!-- PLAGL1&#45;&gt;SMAD1 -->
<g class="edge" id="edge38">
<a class="remove4 root" ismara:data="0.038" onmousemove="ShowTooltip(evt, 'SMAD1: 0.038')" onmouseout="HideTooltip(evt)">
<path d="M170.031,-36.1467C170.114,-49.8937 168.844,-68.9924 162.6,-84.48 142.266,-134.92 99.276,-182.204 71.1582,-209.548" fill="none" stroke="#e9baff" stroke-width="3"/>
<polygon fill="#e9baff" points="68.8879,-207.845 65.05,-215.403 72.763,-211.888 68.8879,-207.845" stroke="#e9baff"/>
</a>
</g>
<!-- PLAGL1&#45;&gt;SHOX -->
<g class="edge" id="edge32">
<a class="remove24 root" ismara:data="0.12" onmousemove="ShowTooltip(evt, 'SHOX: 0.120')" onmouseout="HideTooltip(evt)">
<path d="M173.962,-36.2124C182.087,-66.5365 198.415,-127.473 207.737,-162.266" fill="none" stroke="#949fff" stroke-width="3"/>
<polygon fill="#949fff" points="205.061,-163.097 209.837,-170.1 210.471,-161.648 205.061,-163.097" stroke="#949fff"/>
</a>
</g>
<!-- PLAGL1&#45;&gt;MEF2D_MEF2A -->
<g class="edge" id="edge34">
<a class="remove24" ismara:data="0.157" onmousemove="ShowTooltip(evt, 'MEF2D: 0.157')" onmouseout="HideTooltip(evt)">
<path d="M171.833,-36.2698C172.998,-50.6233 172.301,-70.4629 162.6,-84.48 147.17,-106.775 120.671,-120.885 96.6796,-129.607" fill="none" stroke="#d783ff" stroke-width="3"/>
<polygon fill="#d783ff" points="95.6477,-127.001 88.9954,-132.254 97.4712,-132.296 95.6477,-127.001" stroke="#d783ff"/>
</a>
</g>
<!-- PLAGL1&#45;&gt;HOXB2_UNCX_HOXD3 -->
<g class="edge" id="edge44">
<a class="remove17 root" ismara:data="0.083" onmousemove="ShowTooltip(evt, 'HOXD3: 0.083|UNCX: 0.066')" onmouseout="HideTooltip(evt)">
<path d="M141.901,-33.6929C137.567,-36.1951 133.013,-38.8242 128.479,-41.442" fill="none" stroke="#e2a5ff" stroke-width="3"/>
<polygon fill="#e2a5ff" points="126.932,-39.1016 121.404,-45.5265 129.732,-43.9513 126.932,-39.1016" stroke="#e2a5ff"/>
</a>
</g>
<!-- PLAGL1&#45;&gt;ETV1_ERF_FEV_ELF1 -->
<g class="edge" id="edge36">
<a class="remove5 root" ismara:data="0.039" onmousemove="ShowTooltip(evt, 'ERF: 0.039')" onmouseout="HideTooltip(evt)">
<path d="M179.727,-36.4387C209.106,-87.3239 291.351,-229.776 324.82,-287.747" fill="none" stroke="#e8baff" stroke-width="3"/>
<polygon fill="#e8baff" points="322.414,-289.179 328.839,-294.708 327.264,-286.379 322.414,-289.179" stroke="#e8baff"/>
</a>
</g>
<!-- PLAGL1&#45;&gt;PBX2 -->
<g class="edge" id="edge40">
<a class="remove14 root" ismara:data="0.07" onmousemove="ShowTooltip(evt, 'PBX2: 0.070')" onmouseout="HideTooltip(evt)">
<path d="M169.082,-36.2994C169.082,-92.8582 169.082,-265.051 169.082,-331.66" fill="none" stroke="#e4abff" stroke-width="3"/>
<polygon fill="#e4abff" points="166.282,-331.973 169.082,-339.973 171.882,-331.973 166.282,-331.973" stroke="#e4abff"/>
</a>
</g>
<!-- PLAGL1&#45;&gt;ATF7 -->
<g class="edge" id="edge42">
<a class="remove0 root" ismara:data="0.031" onmousemove="ShowTooltip(evt, 'ATF7: 0.031')" onmouseout="HideTooltip(evt)">
<path d="M168.339,-36.2119C167.542,-49.659 165.909,-68.3491 162.6,-84.48 147.133,-159.869 116.138,-245.564 100.15,-287.263" fill="none" stroke="#eabdff" stroke-width="3"/>
<polygon fill="#eabdff" points="97.5242,-286.291 97.2543,-294.763 102.748,-288.309 97.5242,-286.291" stroke="#eabdff"/>
</a>
</g>
<!-- PLAGL1&#45;&gt;PLAGL1 -->
<g class="edge" id="edge28">
<a class="remove24" ismara:data="0.151" onmousemove="ShowTooltip(evt, 'PLAGL1: 0.151')" onmouseout="HideTooltip(evt)">
<path d="M196.322,-24.7434C206.105,-24.8884 214.082,-22.6406 214.082,-18 214.082,-14.7371 210.138,-12.6571 204.396,-11.7601" fill="none" stroke="#d886ff" stroke-width="3"/>
<polygon fill="#d886ff" points="204.481,-8.96005 196.322,-11.2566 204.132,-14.5492 204.481,-8.96005" stroke="#d886ff"/>
</a>
</g>
<!-- PLAGL1&#45;&gt;EN1_ESX1_GBX1 -->
<g class="edge" id="edge30">
<a class="remove18 root" ismara:data="0.088" onmousemove="ShowTooltip(evt, 'ESX1: 0.088')" onmouseout="HideTooltip(evt)">
<path d="M196.445,-18C198.707,-18 201.042,-18 203.42,-18" fill="none" stroke="#e1a3ff" stroke-width="3"/>
<polygon fill="#e1a3ff" points="203.632,-20.8001 211.632,-18 203.632,-15.2001 203.632,-20.8001" stroke="#e1a3ff"/>
</a>
</g>
<!-- EN1_ESX1_GBX1&#45;&gt;SMAD1 -->
<g class="edge" id="edge52">
<a class="remove11 root" ismara:data="0.061" onmousemove="ShowTooltip(evt, 'SMAD1: 0.061')" onmouseout="HideTooltip(evt)">
<path d="M242.255,-36.0263C203.462,-74.8193 112.054,-166.227 68.4515,-209.83" fill="none" stroke="#e5afff" stroke-width="3"/>
<polygon fill="#e5afff" points="66.3037,-208.018 62.6267,-215.655 70.2635,-211.978 66.3037,-208.018" stroke="#e5afff"/>
</a>
</g>
<!-- EN1_ESX1_GBX1&#45;&gt;SHOX -->
<g class="edge" id="edge50">
<a class="remove22 root" ismara:data="0.118" onmousemove="ShowTooltip(evt, 'SHOX: 0.118')" onmouseout="HideTooltip(evt)">
<path d="M255.402,-36.2124C247.276,-66.5365 230.948,-127.473 221.626,-162.266" fill="none" stroke="#95a0ff" stroke-width="3"/>
<polygon fill="#95a0ff" points="218.892,-161.648 219.526,-170.1 224.302,-163.097 218.892,-161.648" stroke="#95a0ff"/>
</a>
</g>
<!-- EN1_ESX1_GBX1&#45;&gt;HOXB2_UNCX_HOXD3 -->
<g class="edge" id="edge54">
<a class="remove10 root" ismara:data="0.058" onmousemove="ShowTooltip(evt, 'HOXD3: 0.058')" onmouseout="HideTooltip(evt)">
<path d="M211.738,-35.4516C207.919,-36.6639 204.107,-37.8225 200.402,-38.88 187.545,-42.5491 173.719,-46.016 160.351,-49.1286" fill="none" stroke="#e6b1ff" stroke-width="3"/>
<polygon fill="#e6b1ff" points="159.715,-46.4016 152.543,-50.9191 160.967,-51.8599 159.715,-46.4016" stroke="#e6b1ff"/>
</a>
</g>
<!-- EN1_ESX1_GBX1&#45;&gt;ERG -->
<g class="edge" id="edge48">
<a class="remove9 root" ismara:data="0.057" onmousemove="ShowTooltip(evt, 'ERG: 0.057')" onmouseout="HideTooltip(evt)">
<path d="M270.689,-36.0263C292.857,-74.4226 344.784,-164.363 370.254,-208.478" fill="none" stroke="#e6b1ff" stroke-width="3"/>
<polygon fill="#e6b1ff" points="367.973,-210.127 374.398,-215.655 372.822,-207.327 367.973,-210.127" stroke="#e6b1ff"/>
</a>
</g>
<!-- BARHL1 -->
<g class="node" id="node39">
<a class="remove23" onmousemove="ShowTooltip(evt, 'Z-value: 1.014')" onmouseout="HideTooltip(evt)" xlink:href="BARHL1.svg">
<polygon fill="#6676ff" points="354.763,-81.6 323.763,-81.6 311.763,-69.6 311.763,-57.6 323.763,-45.6 354.763,-45.6 366.763,-57.6 366.763,-69.6 354.763,-81.6" stroke="#6676ff" stroke-width="2"/>
<path d="M323.763,-81.6C317.763,-81.6 311.763,-75.6 311.763,-69.6" fill="#6676ff" stroke="#6676ff" stroke-width="2"/>
<path d="M311.763,-57.6C311.763,-51.6 317.763,-45.6 323.763,-45.6" fill="#6676ff" stroke="#6676ff" stroke-width="2"/>
<path d="M354.763,-45.6C360.763,-45.6 366.763,-51.6 366.763,-57.6" fill="#6676ff" stroke="#6676ff" stroke-width="2"/>
<path d="M366.763,-69.6C366.763,-75.6 360.763,-81.6 354.763,-81.6" fill="#6676ff" stroke="#6676ff" stroke-width="2"/>
<polyline fill="none" points="354.763,-81.6 323.763,-81.6 " stroke="white" stroke-width="2"/>
<path d="M323.763,-81.6C317.763,-81.6 311.763,-75.6 311.763,-69.6" fill="none" stroke="white" stroke-width="2"/>
<polyline fill="none" points="311.763,-69.6 311.763,-57.6 " stroke="white" stroke-width="2"/>
<path d="M311.763,-57.6C311.763,-51.6 317.763,-45.6 323.763,-45.6" fill="none" stroke="white" stroke-width="2"/>
<polyline fill="none" points="323.763,-45.6 354.763,-45.6 " stroke="white" stroke-width="2"/>
<path d="M354.763,-45.6C360.763,-45.6 366.763,-51.6 366.763,-57.6" fill="none" stroke="white" stroke-width="2"/>
<polyline fill="none" points="366.763,-57.6 366.763,-69.6 " stroke="white" stroke-width="2"/>
<path d="M366.763,-69.6C366.763,-75.6 360.763,-81.6 354.763,-81.6" fill="none" stroke="white" stroke-width="2"/>
<text fill="white" font-family="Helvetica,sans-Serif" font-size="10.00" text-anchor="middle" x="339.263" y="-61.1">BARHL1</text>
</a>
</g>
<!-- BARHL1&#45;&gt;SMAD1 -->
<g class="edge" id="edge62">
<a class="remove3 root" ismara:data="0.038" onmousemove="ShowTooltip(evt, 'SMAD1: 0.038')" onmouseout="HideTooltip(evt)">
<path d="M311,-79.9177C256.693,-111.272 137.937,-179.836 79.0385,-213.841" fill="none" stroke="#e9baff" stroke-width="3"/>
<polygon fill="#e9baff" points="77.3477,-211.584 71.8195,-218.009 80.1478,-216.433 77.3477,-211.584" stroke="#e9baff"/>
</a>
</g>
<!-- BARHL1&#45;&gt;SHOX -->
<g class="edge" id="edge58">
<a class="remove23 root" ismara:data="0.119" onmousemove="ShowTooltip(evt, 'SHOX: 0.119')" onmouseout="HideTooltip(evt)">
<path d="M321.148,-81.7152C299.373,-103.49 262.761,-140.102 238.66,-164.203" fill="none" stroke="#959fff" stroke-width="3"/>
<polygon fill="#959fff" points="236.496,-162.408 232.819,-170.044 240.455,-166.367 236.496,-162.408" stroke="#959fff"/>
</a>
</g>
<!-- BARHL1&#45;&gt;ETV1_ERF_FEV_ELF1 -->
<g class="edge" id="edge60">
<a class="remove6 root" ismara:data="0.042" onmousemove="ShowTooltip(evt, 'ETV1: 0.042|ELF1: 0.025')" onmouseout="HideTooltip(evt)">
<path d="M339.263,-81.9216C339.263,-125.586 339.263,-235.908 339.263,-286.58" fill="none" stroke="#e8b8ff" stroke-width="3"/>
<polygon fill="#e8b8ff" points="336.463,-286.751 339.263,-294.751 342.063,-286.751 336.463,-286.751" stroke="#e8b8ff"/>
</a>
</g>
<!-- BARHL1&#45;&gt;EN1_ESX1_GBX1 -->
<g class="edge" id="edge56">
<a class="remove22" ismara:data="0.16" onmousemove="ShowTooltip(evt, 'ESX1: 0.160')" onmouseout="HideTooltip(evt)">
<path d="M311.639,-47.6513C307.377,-45.1906 302.912,-42.6124 298.468,-40.047" fill="none" stroke="#d782ff" stroke-width="3"/>
<polygon fill="#d782ff" points="299.864,-37.62 291.536,-36.0448 297.064,-42.4698 299.864,-37.62" stroke="#d782ff"/>
</a>
</g>
<!-- CEBPA -->
<g class="node" id="node44">
<a class="remove26" onmousemove="ShowTooltip(evt, 'Z-value: 0.889')" onmouseout="HideTooltip(evt)" xlink:href="CEBPA.svg">
<polygon fill="#7381ff" points="399.863,-160.582 369.863,-160.582 357.863,-148.582 357.863,-136.582 369.863,-124.582 399.863,-124.582 411.863,-136.582 411.863,-148.582 399.863,-160.582" stroke="#7381ff" stroke-width="2"/>
<path d="M369.863,-160.582C363.863,-160.582 357.863,-154.582 357.863,-148.582" fill="#7381ff" stroke="#7381ff" stroke-width="2"/>
<path d="M357.863,-136.582C357.863,-130.582 363.863,-124.582 369.863,-124.582" fill="#7381ff" stroke="#7381ff" stroke-width="2"/>
<path d="M399.863,-124.582C405.863,-124.582 411.863,-130.582 411.863,-136.582" fill="#7381ff" stroke="#7381ff" stroke-width="2"/>
<path d="M411.863,-148.582C411.863,-154.582 405.863,-160.582 399.863,-160.582" fill="#7381ff" stroke="#7381ff" stroke-width="2"/>
<polyline fill="none" points="399.863,-160.582 369.863,-160.582 " stroke="white" stroke-width="2"/>
<path d="M369.863,-160.582C363.863,-160.582 357.863,-154.582 357.863,-148.582" fill="none" stroke="white" stroke-width="2"/>
<polyline fill="none" points="357.863,-148.582 357.863,-136.582 " stroke="white" stroke-width="2"/>
<path d="M357.863,-136.582C357.863,-130.582 363.863,-124.582 369.863,-124.582" fill="none" stroke="white" stroke-width="2"/>
<polyline fill="none" points="369.863,-124.582 399.863,-124.582 " stroke="white" stroke-width="2"/>
<path d="M399.863,-124.582C405.863,-124.582 411.863,-130.582 411.863,-136.582" fill="none" stroke="white" stroke-width="2"/>
<polyline fill="none" points="411.863,-136.582 411.863,-148.582 " stroke="white" stroke-width="2"/>
<path d="M411.863,-148.582C411.863,-154.582 405.863,-160.582 399.863,-160.582" fill="none" stroke="white" stroke-width="2"/>
<text font-family="Helvetica,sans-Serif" font-size="10.00" text-anchor="middle" x="384.863" y="-140.082">CEBPA</text>
</a>
</g>
<!-- CEBPA&#45;&gt;SHOX -->
<g class="edge" id="edge64">
<a class="remove26 root" ismara:data="0.135" onmousemove="ShowTooltip(evt, 'SHOX: 0.135')" onmouseout="HideTooltip(evt)">
<path d="M357.52,-149.908C328.244,-157.753 281.698,-170.224 249.746,-178.786" fill="none" stroke="#8e99ff" stroke-width="3"/>
<polygon fill="#8e99ff" points="248.959,-176.098 241.956,-180.873 250.408,-181.507 248.959,-176.098" stroke="#8e99ff"/>
</a>
</g>
</g>
<rect height="14" id="tooltip_bg" style="fill: white; stroke: black; opacity: 0.8;" visibility="hidden"/><text id="tooltip" style="font-size: 10px;font-weight: bold;" visibility="hidden"></text><g id="plus" onclick="showSome();moveSlider();setThreshold();"><circle cx="22" cy="22" r="10" style="fill: #dddddd; opacity: 100%;"/><line stroke="#888888" stroke-width="2" x1="16" x2="28" y1="22" y2="22"/><line stroke="#888888" stroke-width="2" x1="22" x2="22" y1="16" y2="28"/></g><g id="minus" onclick="hideSome();moveSlider();setThreshold();"><circle cx="22" cy="362" r="10" style="fill: #dddddd; opacity: 100%;"/><line stroke="#888888" stroke-width="2" x1="16" x2="28" y1="362" y2="362"/></g><line id="slider_scale" onmousedown="jump_slider(evt)" stroke="#888888" stroke-width="5" x1="22" x2="22" y1="40" y2="344"/><circle cx="22" cy="50" id="slider" onmousedown="grab(evt)" onmouseout="release(evt)" onmouseup="release(evt)" r="15" style="fill:#922"/><script type="text/ecmascript"><![CDATA[
    var svgNS = "http://www.w3.org/2000/svg";
    var edge_num = 30;
    var counter = 0;
    var tooltip, tooltip_bg;

    function init(evt) {
        if ( window.svgDocument == null ) {
            svgDocument = evt.target.ownerDocument;
        }
        tooltip = svgDocument.getElementById('tooltip');
        tooltip_bg = svgDocument.getElementById('tooltip_bg');
        setThreshold();
    }

    function ShowTooltip(evt, txt) {
        var length = 0;
        var height;
        var tooltip_x = evt.pageX + 18;
        var tooltip_y = evt.pageY + 22;
        var bg_x = evt.pageX + 10;
        var bg_y = evt.pageY + 10;

        /* Clean toolip content */
        while (tooltip.lastChild) {
            tooltip.removeChild(tooltip.lastChild)
        }

        /* Populate tooltip with tspan elements and get longest of them */
        var text_elements = txt.split('|');
        for (var i = 0; i  < text_elements.length; i++) {
            var shift_y = 12;
            if (i == 0) {
                shift_y = 0;
            }
            var tspan_element = document.createElementNS(svgNS, "tspan");
            tspan_element.setAttributeNS(null, "dy", shift_y);
            tspan_element.setAttributeNS(null, "x", tooltip_x);
            var text_node = svgDocument.createTextNode(text_elements[i]);
            tspan_element.appendChild(text_node);
            tooltip.appendChild(tspan_element);
            var tspan_length = tspan_element.getComputedTextLength();
            if (tspan_length > length) {
                length = tspan_length
            }
        }
        /* add right margin to tooltip */
        length = length + 15;
        height = 12 * text_elements.length + 5;
        tooltip_bg.setAttributeNS(null,"width",length);
        tooltip_bg.setAttributeNS(null,"height",height);
        tooltip_bg.setAttributeNS(null,"x", bg_x);
        tooltip_bg.setAttributeNS(null,"y", bg_y);
        tooltip_bg.setAttributeNS(null,"visibility","visible");
        tooltip.setAttributeNS(null,"x", tooltip_x);
        tooltip.setAttributeNS(null,"y", tooltip_y);
        tooltip.setAttributeNS(null,"visibility","visible");
    }
    function HideTooltip() {
      tooltip.setAttributeNS(null,"visibility","hidden");
      tooltip_bg.setAttributeNS(null,"visibility","hidden");
    }

    /*** Hide/Show edges functions ***/

    function hideSome() {
      if (counter >= edge_num -1) {
        return 1;
      }
      var elements = svgDocument.getElementsByClassName('remove' + counter);
      for (var i = 0; i < elements.length; i++) {
        elements[i].setAttributeNS(null,"visibility","hidden");
      }
      counter = counter + 1;
    }

    function showSome() {
      if (counter <= 0) {
        return 1;
      }
      counter = counter - 1;
      var elements = svgDocument.getElementsByClassName('remove' + counter);
      for (var i = 0; i < elements.length; i++) {
        elements[i].setAttributeNS(null,"visibility","visible");
      }
    }

    function setThreshold() {
        var elements = svgDocument.getElementsByClassName('remove' + counter);
        var score = 0;
        for (var i = 0; i < elements.length; i++) {
            if (elements[i].classList.contains("root")){
                if (elements[i].hasAttributeNS("ismara.unibas.ch", "data")) {
                    score = elements[i].getAttributeNS("ismara.unibas.ch", "data");
                }
            } 
        }
        svgDocument.getElementById("score_indicator").textContent = "Score threshold: " + score;
    }

    /*** Slider functions ***/

    var slider_maxY = parseInt(document.getElementById("slider_scale").getAttributeNS(null, "y2"));
    var slider_minY = parseInt(document.getElementById("slider_scale").getAttributeNS(null, "y1"));
    var slider_r = parseInt(document.getElementById("slider").getAttributeNS(null, "r"));
    var coef = (edge_num - 1) / (slider_maxY - slider_minY - 2 * slider_r);

    function grab(evt){
        var element = evt.target;
        var Attr = {"onmousemove":"slide(evt,'"+element.id+"')"};
        assignAttr(element, Attr);
    }

    function release(evt){
        var element = evt.target;
        var Attr = {"onmousemove":null};
        assignAttr(element, Attr);
    }

    function assignAttr(obj,attr){
        for (i in attr) obj.setAttributeNS(null,i, attr[i]);
    }

    function slide(evt,id){
        var slider = evt.target;
        var y = evt.pageY;
        var new_counter = Math.floor((evt.pageY - slider_minY - slider_r) * coef);
        if (evt.pageY > (slider_maxY - slider_r)) {
            slider.setAttributeNS(null, "cy", (slider_maxY - slider_r));
            new_counter = edge_num;
        } else if(evt.pageY < (slider_minY + slider_r)) {
            slider.setAttributeNS(null, "cy", (slider_minY + slider_r));
            new_counter = 1;
        } else {
            slider.setAttributeNS(null, "cy", evt.pageY);
        }

        if (new_counter < counter) {
                showSome();
            counter = new_counter;
        }
        if (new_counter > counter) {
                hideSome();
            counter = new_counter;
        }
        setThreshold();
    }

    function moveSlider() {
        circle = document.getElementById("slider");
        circle.setAttributeNS(null, "cy",  slider_minY +  slider_r + (counter) / coef);
    }

    function jump_slider(evt) {
        var slider = document.getElementById("slider");
        var new_counter = Math.floor((evt.pageY - slider_minY - slider_r) * coef);
        if (evt.pageY > (slider_maxY - slider_r)) {
            slider.setAttributeNS(null, "cy", (slider_maxY - slider_r));
            new_counter = edge_num;
        } else if(evt.pageY < (slider_minY + slider_r)) {
             slider.setAttributeNS(null, "cy", (slider_minY + slider_r));
            new_counter = 1;
        } else {
            slider.setAttributeNS(null, "cy", evt.pageY);
        }

        if (new_counter > counter) {
            var d = new_counter - counter;
            for (var i = 0; i < d; i++){
                hideSome();
            }
            counter = new_counter;
        }
        if (new_counter < counter) {
            var d = counter - new_counter;
            for (var i = 0; i < d; i++){
                showSome();
            }
            counter = new_counter;
        }
        setThreshold();
    }
    ]]></script><text id="score_indicator" style="font-size: 10px;font-weight: bold;" x="10" y="394">Score threshold: 0</text><text id="info" style="font-size: 10px;font-weight: bold;" x="10" y="409">Use slider or -/+ buttons to hide/show edges.</text></svg>