<?xml version="1.0" encoding="UTF-8" standalone="no"?>
<!DOCTYPE svg PUBLIC "-//W3C//DTD SVG 1.1//EN"
 "http://www.w3.org/Graphics/SVG/1.1/DTD/svg11.dtd">
<!-- Generated by graphviz version 2.28.0 (20110630.0925)
 -->
<!-- Title: _anonymous_0 Pages: 1 -->
<svg width="420pt" height="384pt"
 viewBox="0.00 0.00 419.86 384.36" xmlns="http://www.w3.org/2000/svg" xmlns:xlink="http://www.w3.org/1999/xlink">
<g id="graph1" class="graph" transform="scale(1 1) rotate(0) translate(4 380.363)">
<title>_anonymous_0</title>
<polygon fill="white" stroke="white" points="-4,5 -4,-380.363 416.863,-380.363 416.863,5 -4,5"/>
<!-- SMAD1 -->
<g id="node1" class="node"><title>SMAD1</title>
<a xlink:href="SMAD1.svg" xlink:title="Z&#45;value: 1.536||remove25">
<polygon fill="#3247ff" stroke="#3247ff" stroke-width="2" points="59.5,-251.782 29.5,-251.782 17.5,-239.782 17.5,-227.782 29.5,-215.782 59.5,-215.782 71.5,-227.782 71.5,-239.782 59.5,-251.782"/>
<path fill="#3247ff" stroke="#3247ff" stroke-width="2" d="M29.5,-251.782C23.5,-251.782 17.5,-245.782 17.5,-239.782"/>
<path fill="#3247ff" stroke="#3247ff" stroke-width="2" d="M17.5,-227.782C17.5,-221.782 23.5,-215.782 29.5,-215.782"/>
<path fill="#3247ff" stroke="#3247ff" stroke-width="2" d="M59.5,-215.782C65.5,-215.782 71.5,-221.782 71.5,-227.782"/>
<path fill="#3247ff" stroke="#3247ff" stroke-width="2" d="M71.5,-239.782C71.5,-245.782 65.5,-251.782 59.5,-251.782"/>
<polyline fill="none" stroke="white" stroke-width="2" points="59.5,-251.782 29.5,-251.782 "/>
<path fill="none" stroke="white" stroke-width="2" d="M29.5,-251.782C23.5,-251.782 17.5,-245.782 17.5,-239.782"/>
<polyline fill="none" stroke="white" stroke-width="2" points="17.5,-239.782 17.5,-227.782 "/>
<path fill="none" stroke="white" stroke-width="2" d="M17.5,-227.782C17.5,-221.782 23.5,-215.782 29.5,-215.782"/>
<polyline fill="none" stroke="white" stroke-width="2" points="29.5,-215.782 59.5,-215.782 "/>
<path fill="none" stroke="white" stroke-width="2" d="M59.5,-215.782C65.5,-215.782 71.5,-221.782 71.5,-227.782"/>
<polyline fill="none" stroke="white" stroke-width="2" points="71.5,-227.782 71.5,-239.782 "/>
<path fill="none" stroke="white" stroke-width="2" d="M71.5,-239.782C71.5,-245.782 65.5,-251.782 59.5,-251.782"/>
<text text-anchor="middle" x="44.5" y="-231.282" font-family="Helvetica,sans-Serif" font-size="10.00" fill="white">SMAD1</text>
</a>
</g>
<!-- SHOX -->
<g id="node2" class="node"><title>SHOX</title>
<a xlink:href="SHOX.svg" xlink:title="Z&#45;value: 0.339||remove30">
<polygon fill="#ffaaaa" stroke="#ffaaaa" stroke-width="2" points="229.682,-206.182 199.682,-206.182 187.682,-194.182 187.682,-182.182 199.682,-170.182 229.682,-170.182 241.682,-182.182 241.682,-194.182 229.682,-206.182"/>
<path fill="#ffaaaa" stroke="#ffaaaa" stroke-width="2" d="M199.682,-206.182C193.682,-206.182 187.682,-200.182 187.682,-194.182"/>
<path fill="#ffaaaa" stroke="#ffaaaa" stroke-width="2" d="M187.682,-182.182C187.682,-176.182 193.682,-170.182 199.682,-170.182"/>
<path fill="#ffaaaa" stroke="#ffaaaa" stroke-width="2" d="M229.682,-170.182C235.682,-170.182 241.682,-176.182 241.682,-182.182"/>
<path fill="#ffaaaa" stroke="#ffaaaa" stroke-width="2" d="M241.682,-194.182C241.682,-200.182 235.682,-206.182 229.682,-206.182"/>
<polyline fill="none" stroke="white" stroke-width="2" points="229.682,-206.182 199.682,-206.182 "/>
<path fill="none" stroke="white" stroke-width="2" d="M199.682,-206.182C193.682,-206.182 187.682,-200.182 187.682,-194.182"/>
<polyline fill="none" stroke="white" stroke-width="2" points="187.682,-194.182 187.682,-182.182 "/>
<path fill="none" stroke="white" stroke-width="2" d="M187.682,-182.182C187.682,-176.182 193.682,-170.182 199.682,-170.182"/>
<polyline fill="none" stroke="white" stroke-width="2" points="199.682,-170.182 229.682,-170.182 "/>
<path fill="none" stroke="white" stroke-width="2" d="M229.682,-170.182C235.682,-170.182 241.682,-176.182 241.682,-182.182"/>
<polyline fill="none" stroke="white" stroke-width="2" points="241.682,-182.182 241.682,-194.182 "/>
<path fill="none" stroke="white" stroke-width="2" d="M241.682,-194.182C241.682,-200.182 235.682,-206.182 229.682,-206.182"/>
<text text-anchor="middle" x="214.682" y="-185.682" font-family="Helvetica,sans-Serif" font-size="10.00">SHOX</text>
</a>
</g>
<!-- SMAD1&#45;&gt;SHOX -->
<g id="edge2" class="edge"><title>SMAD1&#45;&gt;SHOX</title>
<a xlink:title="SHOX: 0.132||remove25root">
<path fill="none" stroke="#8f9aff" stroke-width="3" d="M71.8426,-226.455C101.119,-218.61 147.665,-206.139 179.617,-197.577"/>
<polygon fill="#8f9aff" stroke="#8f9aff" points="180.404,-200.265 187.407,-195.49 178.955,-194.856 180.404,-200.265"/>
</a>
</g>
<!-- MEF2D_MEF2A -->
<g id="node4" class="node"><title>MEF2D_MEF2A</title>
<a xlink:href="MEF2D_MEF2A.svg" xlink:title="Z&#45;value: 0.591||remove29">
<polygon fill="#919cff" stroke="#919cff" stroke-width="2" points="76.75,-160.582 12.25,-160.582 0.25,-148.582 0.25,-136.582 12.25,-124.582 76.75,-124.582 88.75,-136.582 88.75,-148.582 76.75,-160.582"/>
<path fill="#919cff" stroke="#919cff" stroke-width="2" d="M12.25,-160.582C6.25,-160.582 0.25,-154.582 0.25,-148.582"/>
<path fill="#919cff" stroke="#919cff" stroke-width="2" d="M0.25,-136.582C0.25,-130.582 6.25,-124.582 12.25,-124.582"/>
<path fill="#919cff" stroke="#919cff" stroke-width="2" d="M76.75,-124.582C82.75,-124.582 88.75,-130.582 88.75,-136.582"/>
<path fill="#919cff" stroke="#919cff" stroke-width="2" d="M88.75,-148.582C88.75,-154.582 82.75,-160.582 76.75,-160.582"/>
<polyline fill="none" stroke="white" stroke-width="2" points="76.75,-160.582 12.25,-160.582 "/>
<path fill="none" stroke="white" stroke-width="2" d="M12.25,-160.582C6.25,-160.582 0.25,-154.582 0.25,-148.582"/>
<polyline fill="none" stroke="white" stroke-width="2" points="0.25,-148.582 0.25,-136.582 "/>
<path fill="none" stroke="white" stroke-width="2" d="M0.25,-136.582C0.25,-130.582 6.25,-124.582 12.25,-124.582"/>
<polyline fill="none" stroke="white" stroke-width="2" points="12.25,-124.582 76.75,-124.582 "/>
<path fill="none" stroke="white" stroke-width="2" d="M76.75,-124.582C82.75,-124.582 88.75,-130.582 88.75,-136.582"/>
<polyline fill="none" stroke="white" stroke-width="2" points="88.75,-136.582 88.75,-148.582 "/>
<path fill="none" stroke="white" stroke-width="2" d="M88.75,-148.582C88.75,-154.582 82.75,-160.582 76.75,-160.582"/>
<text text-anchor="middle" x="44.5" y="-140.082" font-family="Helvetica,sans-Serif" font-size="10.00">MEF2D_MEF2A</text>
</a>
</g>
<!-- SMAD1&#45;&gt;MEF2D_MEF2A -->
<g id="edge4" class="edge"><title>SMAD1&#45;&gt;MEF2D_MEF2A</title>
<a xlink:title="MEF2D: 0.034||remove2root">
<path fill="none" stroke="#e9bcff" stroke-width="3" d="M44.5,-215.763C44.5,-202.485 44.5,-184.208 44.5,-169.241"/>
<polygon fill="#e9bcff" stroke="#e9bcff" points="47.3001,-168.874 44.5,-160.874 41.7001,-168.874 47.3001,-168.874"/>
</a>
</g>
<!-- HOXB2_UNCX_HOXD3 -->
<g id="node6" class="node"><title>HOXB2_UNCX_HOXD3</title>
<a xlink:href="HOXB2_UNCX_HOXD3.svg" xlink:title="Z&#45;value: 0.563||remove28">
<polygon fill="#939eff" stroke="#939eff" stroke-width="2" points="140.35,-81.6 39.85,-81.6 27.85,-69.6 27.85,-57.6 39.85,-45.6 140.35,-45.6 152.35,-57.6 152.35,-69.6 140.35,-81.6"/>
<path fill="#939eff" stroke="#939eff" stroke-width="2" d="M39.85,-81.6C33.85,-81.6 27.85,-75.6 27.85,-69.6"/>
<path fill="#939eff" stroke="#939eff" stroke-width="2" d="M27.85,-57.6C27.85,-51.6 33.85,-45.6 39.85,-45.6"/>
<path fill="#939eff" stroke="#939eff" stroke-width="2" d="M140.35,-45.6C146.35,-45.6 152.35,-51.6 152.35,-57.6"/>
<path fill="#939eff" stroke="#939eff" stroke-width="2" d="M152.35,-69.6C152.35,-75.6 146.35,-81.6 140.35,-81.6"/>
<polyline fill="none" stroke="white" stroke-width="2" points="140.35,-81.6 39.85,-81.6 "/>
<path fill="none" stroke="white" stroke-width="2" d="M39.85,-81.6C33.85,-81.6 27.85,-75.6 27.85,-69.6"/>
<polyline fill="none" stroke="white" stroke-width="2" points="27.85,-69.6 27.85,-57.6 "/>
<path fill="none" stroke="white" stroke-width="2" d="M27.85,-57.6C27.85,-51.6 33.85,-45.6 39.85,-45.6"/>
<polyline fill="none" stroke="white" stroke-width="2" points="39.85,-45.6 140.35,-45.6 "/>
<path fill="none" stroke="white" stroke-width="2" d="M140.35,-45.6C146.35,-45.6 152.35,-51.6 152.35,-57.6"/>
<polyline fill="none" stroke="white" stroke-width="2" points="152.35,-57.6 152.35,-69.6 "/>
<path fill="none" stroke="white" stroke-width="2" d="M152.35,-69.6C152.35,-75.6 146.35,-81.6 140.35,-81.6"/>
<text text-anchor="middle" x="90.1" y="-61.1" font-family="Helvetica,sans-Serif" font-size="10.00">HOXB2_UNCX_HOXD3</text>
</a>
</g>
<!-- SMAD1&#45;&gt;HOXB2_UNCX_HOXD3 -->
<g id="edge6" class="edge"><title>SMAD1&#45;&gt;HOXB2_UNCX_HOXD3</title>
<a xlink:title="HOXB2: 0.054||SMAD1: 0.088||remove19root">
<path fill="none" stroke="#e6b3ff" stroke-width="3" d="M67.6157,-208.785C78.2645,-196.238 89.7202,-179.922 95.1697,-163.15 103.015,-139.485 99.9567,-110.417 95.8802,-89.9585"/>
<path fill="none" stroke="#e1a3ff" stroke-width="3" d="M69.1409,-210.079C79.9013,-197.387 91.3571,-181.071 97.0703,-163.773 105.004,-139.276 101.946,-110.208 97.8417,-89.5681"/>
<polygon fill="#e1a3ff" stroke="#e1a3ff" points="66.0652,-207.822 62.884,-215.678 70.2701,-211.52 66.0652,-207.822"/>
<polygon fill="#e6b3ff" stroke="#e6b3ff" points="99.5646,-89.0179 95.1375,-81.7901 94.091,-90.2011 99.5646,-89.0179"/>
</a>
</g>
<!-- ERG -->
<g id="node9" class="node"><title>ERG</title>
<a xlink:href="ERG.svg" xlink:title="Z&#45;value: 0.660||remove21">
<polygon fill="#8a95ff" stroke="#8a95ff" stroke-width="2" points="399.863,-251.782 369.863,-251.782 357.863,-239.782 357.863,-227.782 369.863,-215.782 399.863,-215.782 411.863,-227.782 411.863,-239.782 399.863,-251.782"/>
<path fill="#8a95ff" stroke="#8a95ff" stroke-width="2" d="M369.863,-251.782C363.863,-251.782 357.863,-245.782 357.863,-239.782"/>
<path fill="#8a95ff" stroke="#8a95ff" stroke-width="2" d="M357.863,-227.782C357.863,-221.782 363.863,-215.782 369.863,-215.782"/>
<path fill="#8a95ff" stroke="#8a95ff" stroke-width="2" d="M399.863,-215.782C405.863,-215.782 411.863,-221.782 411.863,-227.782"/>
<path fill="#8a95ff" stroke="#8a95ff" stroke-width="2" d="M411.863,-239.782C411.863,-245.782 405.863,-251.782 399.863,-251.782"/>
<polyline fill="none" stroke="white" stroke-width="2" points="399.863,-251.782 369.863,-251.782 "/>
<path fill="none" stroke="white" stroke-width="2" d="M369.863,-251.782C363.863,-251.782 357.863,-245.782 357.863,-239.782"/>
<polyline fill="none" stroke="white" stroke-width="2" points="357.863,-239.782 357.863,-227.782 "/>
<path fill="none" stroke="white" stroke-width="2" d="M357.863,-227.782C357.863,-221.782 363.863,-215.782 369.863,-215.782"/>
<polyline fill="none" stroke="white" stroke-width="2" points="369.863,-215.782 399.863,-215.782 "/>
<path fill="none" stroke="white" stroke-width="2" d="M399.863,-215.782C405.863,-215.782 411.863,-221.782 411.863,-227.782"/>
<polyline fill="none" stroke="white" stroke-width="2" points="411.863,-227.782 411.863,-239.782 "/>
<path fill="none" stroke="white" stroke-width="2" d="M411.863,-239.782C411.863,-245.782 405.863,-251.782 399.863,-251.782"/>
<text text-anchor="middle" x="384.863" y="-231.282" font-family="Helvetica,sans-Serif" font-size="10.00">ERG</text>
</a>
</g>
<!-- SHOX&#45;&gt;ERG -->
<g id="edge18" class="edge"><title>SHOX&#45;&gt;ERG</title>
<a xlink:title="ERG: 0.097||remove21root">
<path fill="none" stroke="#ff9f9f" stroke-width="3" d="M242.024,-195.508C271.301,-203.353 317.846,-215.824 349.799,-224.386"/>
<polygon fill="#ff9f9f" stroke="#ff9f9f" points="349.136,-227.107 357.588,-226.473 350.586,-221.698 349.136,-227.107"/>
</a>
</g>
<!-- ETV1_ERF_FEV_ELF1 -->
<g id="node12" class="node"><title>ETV1_ERF_FEV_ELF1</title>
<a xlink:href="ETV1_ERF_FEV_ELF1.svg" xlink:title="Z&#45;value: 0.994||remove13">
<polygon fill="#6877ff" stroke="#6877ff" stroke-width="2" points="386.763,-330.763 291.763,-330.763 279.763,-318.763 279.763,-306.763 291.763,-294.763 386.763,-294.763 398.763,-306.763 398.763,-318.763 386.763,-330.763"/>
<path fill="#6877ff" stroke="#6877ff" stroke-width="2" d="M291.763,-330.763C285.763,-330.763 279.763,-324.763 279.763,-318.763"/>
<path fill="#6877ff" stroke="#6877ff" stroke-width="2" d="M279.763,-306.763C279.763,-300.763 285.763,-294.763 291.763,-294.763"/>
<path fill="#6877ff" stroke="#6877ff" stroke-width="2" d="M386.763,-294.763C392.763,-294.763 398.763,-300.763 398.763,-306.763"/>
<path fill="#6877ff" stroke="#6877ff" stroke-width="2" d="M398.763,-318.763C398.763,-324.763 392.763,-330.763 386.763,-330.763"/>
<polyline fill="none" stroke="white" stroke-width="2" points="386.763,-330.763 291.763,-330.763 "/>
<path fill="none" stroke="white" stroke-width="2" d="M291.763,-330.763C285.763,-330.763 279.763,-324.763 279.763,-318.763"/>
<polyline fill="none" stroke="white" stroke-width="2" points="279.763,-318.763 279.763,-306.763 "/>
<path fill="none" stroke="white" stroke-width="2" d="M279.763,-306.763C279.763,-300.763 285.763,-294.763 291.763,-294.763"/>
<polyline fill="none" stroke="white" stroke-width="2" points="291.763,-294.763 386.763,-294.763 "/>
<path fill="none" stroke="white" stroke-width="2" d="M386.763,-294.763C392.763,-294.763 398.763,-300.763 398.763,-306.763"/>
<polyline fill="none" stroke="white" stroke-width="2" points="398.763,-306.763 398.763,-318.763 "/>
<path fill="none" stroke="white" stroke-width="2" d="M398.763,-318.763C398.763,-324.763 392.763,-330.763 386.763,-330.763"/>
<text text-anchor="middle" x="339.263" y="-310.263" font-family="Helvetica,sans-Serif" font-size="10.00" fill="white">ETV1_ERF_FEV_ELF1</text>
</a>
</g>
<!-- SHOX&#45;&gt;ETV1_ERF_FEV_ELF1 -->
<g id="edge22" class="edge"><title>SHOX&#45;&gt;ETV1_ERF_FEV_ELF1</title>
<a xlink:title="ELF1: 0.066||ETV1: 0.039||remove13root">
<path fill="none" stroke="#ffadad" stroke-width="3" d="M232.797,-206.297C254.571,-228.071 291.183,-264.683 315.285,-288.785"/>
<polygon fill="#ffadad" stroke="#ffadad" points="313.489,-290.949 321.126,-294.626 317.449,-286.989 313.489,-290.949"/>
</a>
</g>
<!-- TBX19 -->
<g id="node16" class="node"><title>TBX19</title>
<a xlink:href="TBX19.svg" xlink:title="Z&#45;value: 0.331||remove15">
<polygon fill="#abb3ff" stroke="#abb3ff" stroke-width="2" points="275.282,-376.363 245.282,-376.363 233.282,-364.363 233.282,-352.363 245.282,-340.363 275.282,-340.363 287.282,-352.363 287.282,-364.363 275.282,-376.363"/>
<path fill="#abb3ff" stroke="#abb3ff" stroke-width="2" d="M245.282,-376.363C239.282,-376.363 233.282,-370.363 233.282,-364.363"/>
<path fill="#abb3ff" stroke="#abb3ff" stroke-width="2" d="M233.282,-352.363C233.282,-346.363 239.282,-340.363 245.282,-340.363"/>
<path fill="#abb3ff" stroke="#abb3ff" stroke-width="2" d="M275.282,-340.363C281.282,-340.363 287.282,-346.363 287.282,-352.363"/>
<path fill="#abb3ff" stroke="#abb3ff" stroke-width="2" d="M287.282,-364.363C287.282,-370.363 281.282,-376.363 275.282,-376.363"/>
<polyline fill="none" stroke="white" stroke-width="2" points="275.282,-376.363 245.282,-376.363 "/>
<path fill="none" stroke="white" stroke-width="2" d="M245.282,-376.363C239.282,-376.363 233.282,-370.363 233.282,-364.363"/>
<polyline fill="none" stroke="white" stroke-width="2" points="233.282,-364.363 233.282,-352.363 "/>
<path fill="none" stroke="white" stroke-width="2" d="M233.282,-352.363C233.282,-346.363 239.282,-340.363 245.282,-340.363"/>
<polyline fill="none" stroke="white" stroke-width="2" points="245.282,-340.363 275.282,-340.363 "/>
<path fill="none" stroke="white" stroke-width="2" d="M275.282,-340.363C281.282,-340.363 287.282,-346.363 287.282,-352.363"/>
<polyline fill="none" stroke="white" stroke-width="2" points="287.282,-352.363 287.282,-364.363 "/>
<path fill="none" stroke="white" stroke-width="2" d="M287.282,-364.363C287.282,-370.363 281.282,-376.363 275.282,-376.363"/>
<text text-anchor="middle" x="260.282" y="-355.863" font-family="Helvetica,sans-Serif" font-size="10.00">TBX19</text>
</a>
</g>
<!-- SHOX&#45;&gt;TBX19 -->
<g id="edge20" class="edge"><title>SHOX&#45;&gt;TBX19</title>
<a xlink:title="TBX19: 0.070||remove15root">
<path fill="none" stroke="#ffabab" stroke-width="3" d="M219.562,-206.394C227.687,-236.718 244.015,-297.655 253.337,-332.447"/>
<polygon fill="#ffabab" stroke="#ffabab" points="250.661,-333.279 255.437,-340.282 256.071,-331.829 250.661,-333.279"/>
</a>
</g>
<!-- PBX2 -->
<g id="node19" class="node"><title>PBX2</title>
<a xlink:href="PBX2.svg" xlink:title="Z&#45;value: 0.216||remove16">
<polygon fill="#b6bdff" stroke="#b6bdff" stroke-width="2" points="184.082,-376.363 154.082,-376.363 142.082,-364.363 142.082,-352.363 154.082,-340.363 184.082,-340.363 196.082,-352.363 196.082,-364.363 184.082,-376.363"/>
<path fill="#b6bdff" stroke="#b6bdff" stroke-width="2" d="M154.082,-376.363C148.082,-376.363 142.082,-370.363 142.082,-364.363"/>
<path fill="#b6bdff" stroke="#b6bdff" stroke-width="2" d="M142.082,-352.363C142.082,-346.363 148.082,-340.363 154.082,-340.363"/>
<path fill="#b6bdff" stroke="#b6bdff" stroke-width="2" d="M184.082,-340.363C190.082,-340.363 196.082,-346.363 196.082,-352.363"/>
<path fill="#b6bdff" stroke="#b6bdff" stroke-width="2" d="M196.082,-364.363C196.082,-370.363 190.082,-376.363 184.082,-376.363"/>
<polyline fill="none" stroke="white" stroke-width="2" points="184.082,-376.363 154.082,-376.363 "/>
<path fill="none" stroke="white" stroke-width="2" d="M154.082,-376.363C148.082,-376.363 142.082,-370.363 142.082,-364.363"/>
<polyline fill="none" stroke="white" stroke-width="2" points="142.082,-364.363 142.082,-352.363 "/>
<path fill="none" stroke="white" stroke-width="2" d="M142.082,-352.363C142.082,-346.363 148.082,-340.363 154.082,-340.363"/>
<polyline fill="none" stroke="white" stroke-width="2" points="154.082,-340.363 184.082,-340.363 "/>
<path fill="none" stroke="white" stroke-width="2" d="M184.082,-340.363C190.082,-340.363 196.082,-346.363 196.082,-352.363"/>
<polyline fill="none" stroke="white" stroke-width="2" points="196.082,-352.363 196.082,-364.363 "/>
<path fill="none" stroke="white" stroke-width="2" d="M196.082,-364.363C196.082,-370.363 190.082,-376.363 184.082,-376.363"/>
<text text-anchor="middle" x="169.082" y="-355.863" font-family="Helvetica,sans-Serif" font-size="10.00">PBX2</text>
</a>
</g>
<!-- SHOX&#45;&gt;PBX2 -->
<g id="edge24" class="edge"><title>SHOX&#45;&gt;PBX2</title>
<a xlink:title="PBX2: 0.076||remove16root">
<path fill="none" stroke="#ffa9a9" stroke-width="3" d="M209.802,-206.394C201.676,-236.718 185.348,-297.655 176.026,-332.447"/>
<polygon fill="#ffa9a9" stroke="#ffa9a9" points="173.292,-331.829 173.926,-340.282 178.702,-333.279 173.292,-331.829"/>
</a>
</g>
<!-- ATF7 -->
<g id="node21" class="node"><title>ATF7</title>
<a xlink:href="ATF7.svg" xlink:title="Z&#45;value: 0.428||remove20">
<polygon fill="#a1aaff" stroke="#a1aaff" stroke-width="2" points="105.1,-330.763 75.1,-330.763 63.1,-318.763 63.1,-306.763 75.1,-294.763 105.1,-294.763 117.1,-306.763 117.1,-318.763 105.1,-330.763"/>
<path fill="#a1aaff" stroke="#a1aaff" stroke-width="2" d="M75.1,-330.763C69.1,-330.763 63.1,-324.763 63.1,-318.763"/>
<path fill="#a1aaff" stroke="#a1aaff" stroke-width="2" d="M63.1,-306.763C63.1,-300.763 69.1,-294.763 75.1,-294.763"/>
<path fill="#a1aaff" stroke="#a1aaff" stroke-width="2" d="M105.1,-294.763C111.1,-294.763 117.1,-300.763 117.1,-306.763"/>
<path fill="#a1aaff" stroke="#a1aaff" stroke-width="2" d="M117.1,-318.763C117.1,-324.763 111.1,-330.763 105.1,-330.763"/>
<polyline fill="none" stroke="white" stroke-width="2" points="105.1,-330.763 75.1,-330.763 "/>
<path fill="none" stroke="white" stroke-width="2" d="M75.1,-330.763C69.1,-330.763 63.1,-324.763 63.1,-318.763"/>
<polyline fill="none" stroke="white" stroke-width="2" points="63.1,-318.763 63.1,-306.763 "/>
<path fill="none" stroke="white" stroke-width="2" d="M63.1,-306.763C63.1,-300.763 69.1,-294.763 75.1,-294.763"/>
<polyline fill="none" stroke="white" stroke-width="2" points="75.1,-294.763 105.1,-294.763 "/>
<path fill="none" stroke="white" stroke-width="2" d="M105.1,-294.763C111.1,-294.763 117.1,-300.763 117.1,-306.763"/>
<polyline fill="none" stroke="white" stroke-width="2" points="117.1,-306.763 117.1,-318.763 "/>
<path fill="none" stroke="white" stroke-width="2" d="M117.1,-318.763C117.1,-324.763 111.1,-330.763 105.1,-330.763"/>
<text text-anchor="middle" x="90.1" y="-310.263" font-family="Helvetica,sans-Serif" font-size="10.00">ATF7</text>
</a>
</g>
<!-- SHOX&#45;&gt;ATF7 -->
<g id="edge26" class="edge"><title>SHOX&#45;&gt;ATF7</title>
<a xlink:title="ATF7: 0.090||remove20root">
<path fill="none" stroke="#ffa2a2" stroke-width="3" d="M196.566,-206.297C174.792,-228.071 138.18,-264.683 114.078,-288.785"/>
<polygon fill="#ffa2a2" stroke="#ffa2a2" points="111.914,-286.989 108.237,-294.626 115.874,-290.949 111.914,-286.989"/>
</a>
</g>
<!-- MEF2D_MEF2A&#45;&gt;SHOX -->
<g id="edge8" class="edge"><title>MEF2D_MEF2A&#45;&gt;SHOX</title>
<a xlink:title="SHOX: 0.156||remove29root">
<path fill="none" stroke="#8490ff" stroke-width="3" d="M88.7689,-154.443C117.151,-162.048 153.474,-171.781 179.806,-178.837"/>
<polygon fill="#8490ff" stroke="#8490ff" points="179.186,-181.569 187.638,-180.935 180.635,-176.16 179.186,-181.569"/>
</a>
</g>
<!-- HOXB2_UNCX_HOXD3&#45;&gt;SHOX -->
<g id="edge12" class="edge"><title>HOXB2_UNCX_HOXD3&#45;&gt;SHOX</title>
<a xlink:title="SHOX: 0.137||remove28root">
<path fill="none" stroke="#8c98ff" stroke-width="3" d="M108.215,-81.7152C129.99,-103.49 166.602,-140.102 190.703,-164.203"/>
<polygon fill="#8c98ff" stroke="#8c98ff" points="188.908,-166.367 196.544,-170.044 192.867,-162.408 188.908,-166.367"/>
</a>
</g>
<!-- HOXB2_UNCX_HOXD3&#45;&gt;HOXB2_UNCX_HOXD3 -->
<g id="edge16" class="edge"><title>HOXB2_UNCX_HOXD3&#45;&gt;HOXB2_UNCX_HOXD3</title>
<a xlink:title="UNCX: 0.135||remove27root">
<path fill="none" stroke="#da8dff" stroke-width="3" d="M152.488,-69.8737C162.909,-68.9959 170.1,-66.9047 170.1,-63.6 170.1,-61.2248 166.385,-59.4764 160.426,-58.3549"/>
<polygon fill="#da8dff" stroke="#da8dff" points="160.782,-55.5776 152.488,-57.3263 160.062,-61.1312 160.782,-55.5776"/>
</a>
</g>
<!-- HOXB2_UNCX_HOXD3&#45;&gt;ERG -->
<g id="edge10" class="edge"><title>HOXB2_UNCX_HOXD3&#45;&gt;ERG</title>
<a xlink:title="ERG: 0.043||remove7root">
<path fill="none" stroke="#e8b8ff" stroke-width="3" d="M121.366,-81.6513C177.064,-113.809 293.019,-180.756 350.722,-214.07"/>
<polygon fill="#e8b8ff" stroke="#e8b8ff" points="349.468,-216.579 357.796,-218.155 352.268,-211.73 349.468,-216.579"/>
</a>
</g>
<!-- HOXB2_UNCX_HOXD3&#45;&gt;ETV1_ERF_FEV_ELF1 -->
<g id="edge14" class="edge"><title>HOXB2_UNCX_HOXD3&#45;&gt;ETV1_ERF_FEV_ELF1</title>
<a xlink:title="ETV1: 0.033||remove1root">
<path fill="none" stroke="#e9bdff" stroke-width="3" d="M98.6628,-81.8287C113.074,-111.147 144.451,-169.49 183.362,-209.062 216.734,-243.001 262.934,-272.042 296.37,-290.685"/>
<polygon fill="#e9bdff" stroke="#e9bdff" points="295.367,-293.329 303.726,-294.734 298.068,-288.423 295.367,-293.329"/>
</a>
</g>
<!-- ERG&#45;&gt;ETV1_ERF_FEV_ELF1 -->
<g id="edge66" class="edge"><title>ERG&#45;&gt;ETV1_ERF_FEV_ELF1</title>
<a xlink:title="ETV1: 0.051||remove8root">
<path fill="none" stroke="#e7b4ff" stroke-width="3" d="M374.287,-252.1C368.244,-262.567 360.574,-275.851 353.953,-287.318"/>
<polygon fill="#e7b4ff" stroke="#e7b4ff" points="351.357,-286.216 349.782,-294.544 356.207,-289.016 351.357,-286.216"/>
</a>
</g>
<!-- EN1_ESX1_GBX1 -->
<g id="node25" class="node"><title>EN1_ESX1_GBX1</title>
<a xlink:href="EN1_ESX1_GBX1.svg" xlink:title="Z&#45;value: 0.484||remove22">
<polygon fill="#9ba5ff" stroke="#9ba5ff" stroke-width="2" points="296.782,-36 223.782,-36 211.782,-24 211.782,-12 223.782,-0 296.782,-0 308.782,-12 308.782,-24 296.782,-36"/>
<path fill="#9ba5ff" stroke="#9ba5ff" stroke-width="2" d="M223.782,-36C217.782,-36 211.782,-30 211.782,-24"/>
<path fill="#9ba5ff" stroke="#9ba5ff" stroke-width="2" d="M211.782,-12C211.782,-6 217.782,-0 223.782,-0"/>
<path fill="#9ba5ff" stroke="#9ba5ff" stroke-width="2" d="M296.782,-0C302.782,-0 308.782,-6 308.782,-12"/>
<path fill="#9ba5ff" stroke="#9ba5ff" stroke-width="2" d="M308.782,-24C308.782,-30 302.782,-36 296.782,-36"/>
<polyline fill="none" stroke="white" stroke-width="2" points="296.782,-36 223.782,-36 "/>
<path fill="none" stroke="white" stroke-width="2" d="M223.782,-36C217.782,-36 211.782,-30 211.782,-24"/>
<polyline fill="none" stroke="white" stroke-width="2" points="211.782,-24 211.782,-12 "/>
<path fill="none" stroke="white" stroke-width="2" d="M211.782,-12C211.782,-6 217.782,-0 223.782,-0"/>
<polyline fill="none" stroke="white" stroke-width="2" points="223.782,-0 296.782,-0 "/>
<path fill="none" stroke="white" stroke-width="2" d="M296.782,-0C302.782,-0 308.782,-6 308.782,-12"/>
<polyline fill="none" stroke="white" stroke-width="2" points="308.782,-12 308.782,-24 "/>
<path fill="none" stroke="white" stroke-width="2" d="M308.782,-24C308.782,-30 302.782,-36 296.782,-36"/>
<text text-anchor="middle" x="260.282" y="-15.5" font-family="Helvetica,sans-Serif" font-size="10.00">EN1_ESX1_GBX1</text>
</a>
</g>
<!-- ETV1_ERF_FEV_ELF1&#45;&gt;EN1_ESX1_GBX1 -->
<g id="edge46" class="edge"><title>ETV1_ERF_FEV_ELF1&#45;&gt;EN1_ESX1_GBX1</title>
<a xlink:title="EN1: 0.333||ETV1: 0.044||remove13">
<path fill="none" stroke="#bd32ff" stroke-width="3" d="M331.284,-286.848C316.288,-230.884 281.258,-100.15 266.294,-44.3027"/>
<path fill="none" stroke="#e8b7ff" stroke-width="3" d="M333.216,-286.33C318.22,-230.366 283.19,-99.6326 268.226,-43.7851"/>
<polygon fill="#e8b7ff" stroke="#e8b7ff" points="329.547,-287.322 334.322,-294.324 334.956,-285.872 329.547,-287.322"/>
<polygon fill="#bd32ff" stroke="#bd32ff" points="269.895,-43.0581 265.119,-36.0554 264.485,-44.5075 269.895,-43.0581"/>
</a>
</g>
<!-- TBX19&#45;&gt;TBX19 -->
<g id="edge68" class="edge"><title>TBX19&#45;&gt;TBX19</title>
<a xlink:title="TBX19: 0.065||remove12root">
<path fill="none" stroke="#e5aeff" stroke-width="3" d="M287.522,-365.106C297.305,-365.251 305.282,-363.004 305.282,-358.363 305.282,-355.1 301.338,-353.02 295.596,-352.123"/>
<polygon fill="#e5aeff" stroke="#e5aeff" points="295.681,-349.323 287.522,-351.62 295.332,-354.912 295.681,-349.323"/>
</a>
</g>
<!-- PLAGL1 -->
<g id="node23" class="node"><title>PLAGL1</title>
<a xlink:href="PLAGL1.svg" xlink:title="Z&#45;value: 1.203||remove24">
<polygon fill="#5465ff" stroke="#5465ff" stroke-width="2" points="184.082,-36 154.082,-36 142.082,-24 142.082,-12 154.082,-6.39488e-14 184.082,-6.39488e-14 196.082,-12 196.082,-24 184.082,-36"/>
<path fill="#5465ff" stroke="#5465ff" stroke-width="2" d="M154.082,-36C148.082,-36 142.082,-30 142.082,-24"/>
<path fill="#5465ff" stroke="#5465ff" stroke-width="2" d="M142.082,-12C142.082,-6 148.082,-6.39488e-14 154.082,-6.39488e-14"/>
<path fill="#5465ff" stroke="#5465ff" stroke-width="2" d="M184.082,-6.39488e-14C190.082,-6.39488e-14 196.082,-6 196.082,-12"/>
<path fill="#5465ff" stroke="#5465ff" stroke-width="2" d="M196.082,-24C196.082,-30 190.082,-36 184.082,-36"/>
<polyline fill="none" stroke="white" stroke-width="2" points="184.082,-36 154.082,-36 "/>
<path fill="none" stroke="white" stroke-width="2" d="M154.082,-36C148.082,-36 142.082,-30 142.082,-24"/>
<polyline fill="none" stroke="white" stroke-width="2" points="142.082,-24 142.082,-12 "/>
<path fill="none" stroke="white" stroke-width="2" d="M142.082,-12C142.082,-6 148.082,-6.39488e-14 154.082,-6.39488e-14"/>
<polyline fill="none" stroke="white" stroke-width="2" points="154.082,-6.39488e-14 184.082,-6.39488e-14 "/>
<path fill="none" stroke="white" stroke-width="2" d="M184.082,-6.39488e-14C190.082,-6.39488e-14 196.082,-6 196.082,-12"/>
<polyline fill="none" stroke="white" stroke-width="2" points="196.082,-12 196.082,-24 "/>
<path fill="none" stroke="white" stroke-width="2" d="M196.082,-24C196.082,-30 190.082,-36 184.082,-36"/>
<text text-anchor="middle" x="169.082" y="-15.5" font-family="Helvetica,sans-Serif" font-size="10.00" fill="white">PLAGL1</text>
</a>
</g>
<!-- PLAGL1&#45;&gt;SMAD1 -->
<g id="edge38" class="edge"><title>PLAGL1&#45;&gt;SMAD1</title>
<a xlink:title="SMAD1: 0.038||remove4root">
<path fill="none" stroke="#e9baff" stroke-width="3" d="M170.031,-36.1467C170.114,-49.8937 168.844,-68.9924 162.6,-84.48 142.266,-134.92 99.276,-182.204 71.1582,-209.548"/>
<polygon fill="#e9baff" stroke="#e9baff" points="68.8879,-207.845 65.05,-215.403 72.763,-211.888 68.8879,-207.845"/>
</a>
</g>
<!-- PLAGL1&#45;&gt;SHOX -->
<g id="edge32" class="edge"><title>PLAGL1&#45;&gt;SHOX</title>
<a xlink:title="SHOX: 0.120||remove24root">
<path fill="none" stroke="#949fff" stroke-width="3" d="M173.962,-36.2124C182.087,-66.5365 198.415,-127.473 207.737,-162.266"/>
<polygon fill="#949fff" stroke="#949fff" points="205.061,-163.097 209.837,-170.1 210.471,-161.648 205.061,-163.097"/>
</a>
</g>
<!-- PLAGL1&#45;&gt;MEF2D_MEF2A -->
<g id="edge34" class="edge"><title>PLAGL1&#45;&gt;MEF2D_MEF2A</title>
<a xlink:title="MEF2D: 0.157||remove24">
<path fill="none" stroke="#d783ff" stroke-width="3" d="M171.833,-36.2698C172.998,-50.6233 172.301,-70.4629 162.6,-84.48 147.17,-106.775 120.671,-120.885 96.6796,-129.607"/>
<polygon fill="#d783ff" stroke="#d783ff" points="95.6477,-127.001 88.9954,-132.254 97.4712,-132.296 95.6477,-127.001"/>
</a>
</g>
<!-- PLAGL1&#45;&gt;HOXB2_UNCX_HOXD3 -->
<g id="edge44" class="edge"><title>PLAGL1&#45;&gt;HOXB2_UNCX_HOXD3</title>
<a xlink:title="HOXD3: 0.083||UNCX: 0.066||remove17root">
<path fill="none" stroke="#e2a5ff" stroke-width="3" d="M141.901,-33.6929C137.567,-36.1951 133.013,-38.8242 128.479,-41.442"/>
<polygon fill="#e2a5ff" stroke="#e2a5ff" points="126.932,-39.1016 121.404,-45.5265 129.732,-43.9513 126.932,-39.1016"/>
</a>
</g>
<!-- PLAGL1&#45;&gt;ETV1_ERF_FEV_ELF1 -->
<g id="edge36" class="edge"><title>PLAGL1&#45;&gt;ETV1_ERF_FEV_ELF1</title>
<a xlink:title="ERF: 0.039||remove5root">
<path fill="none" stroke="#e8baff" stroke-width="3" d="M179.727,-36.4387C209.106,-87.3239 291.351,-229.776 324.82,-287.747"/>
<polygon fill="#e8baff" stroke="#e8baff" points="322.414,-289.179 328.839,-294.708 327.264,-286.379 322.414,-289.179"/>
</a>
</g>
<!-- PLAGL1&#45;&gt;PBX2 -->
<g id="edge40" class="edge"><title>PLAGL1&#45;&gt;PBX2</title>
<a xlink:title="PBX2: 0.070||remove14root">
<path fill="none" stroke="#e4abff" stroke-width="3" d="M169.082,-36.2994C169.082,-92.8582 169.082,-265.051 169.082,-331.66"/>
<polygon fill="#e4abff" stroke="#e4abff" points="166.282,-331.973 169.082,-339.973 171.882,-331.973 166.282,-331.973"/>
</a>
</g>
<!-- PLAGL1&#45;&gt;ATF7 -->
<g id="edge42" class="edge"><title>PLAGL1&#45;&gt;ATF7</title>
<a xlink:title="ATF7: 0.031||remove0root">
<path fill="none" stroke="#eabdff" stroke-width="3" d="M168.339,-36.2119C167.542,-49.659 165.909,-68.3491 162.6,-84.48 147.133,-159.869 116.138,-245.564 100.15,-287.263"/>
<polygon fill="#eabdff" stroke="#eabdff" points="97.5242,-286.291 97.2543,-294.763 102.748,-288.309 97.5242,-286.291"/>
</a>
</g>
<!-- PLAGL1&#45;&gt;PLAGL1 -->
<g id="edge28" class="edge"><title>PLAGL1&#45;&gt;PLAGL1</title>
<a xlink:title="PLAGL1: 0.151||remove24">
<path fill="none" stroke="#d886ff" stroke-width="3" d="M196.322,-24.7434C206.105,-24.8884 214.082,-22.6406 214.082,-18 214.082,-14.7371 210.138,-12.6571 204.396,-11.7601"/>
<polygon fill="#d886ff" stroke="#d886ff" points="204.481,-8.96005 196.322,-11.2566 204.132,-14.5492 204.481,-8.96005"/>
</a>
</g>
<!-- PLAGL1&#45;&gt;EN1_ESX1_GBX1 -->
<g id="edge30" class="edge"><title>PLAGL1&#45;&gt;EN1_ESX1_GBX1</title>
<a xlink:title="ESX1: 0.088||remove18root">
<path fill="none" stroke="#e1a3ff" stroke-width="3" d="M196.445,-18C198.707,-18 201.042,-18 203.42,-18"/>
<polygon fill="#e1a3ff" stroke="#e1a3ff" points="203.632,-20.8001 211.632,-18 203.632,-15.2001 203.632,-20.8001"/>
</a>
</g>
<!-- EN1_ESX1_GBX1&#45;&gt;SMAD1 -->
<g id="edge52" class="edge"><title>EN1_ESX1_GBX1&#45;&gt;SMAD1</title>
<a xlink:title="SMAD1: 0.061||remove11root">
<path fill="none" stroke="#e5afff" stroke-width="3" d="M242.255,-36.0263C203.462,-74.8193 112.054,-166.227 68.4515,-209.83"/>
<polygon fill="#e5afff" stroke="#e5afff" points="66.3037,-208.018 62.6267,-215.655 70.2635,-211.978 66.3037,-208.018"/>
</a>
</g>
<!-- EN1_ESX1_GBX1&#45;&gt;SHOX -->
<g id="edge50" class="edge"><title>EN1_ESX1_GBX1&#45;&gt;SHOX</title>
<a xlink:title="SHOX: 0.118||remove22root">
<path fill="none" stroke="#95a0ff" stroke-width="3" d="M255.402,-36.2124C247.276,-66.5365 230.948,-127.473 221.626,-162.266"/>
<polygon fill="#95a0ff" stroke="#95a0ff" points="218.892,-161.648 219.526,-170.1 224.302,-163.097 218.892,-161.648"/>
</a>
</g>
<!-- EN1_ESX1_GBX1&#45;&gt;HOXB2_UNCX_HOXD3 -->
<g id="edge54" class="edge"><title>EN1_ESX1_GBX1&#45;&gt;HOXB2_UNCX_HOXD3</title>
<a xlink:title="HOXD3: 0.058||remove10root">
<path fill="none" stroke="#e6b1ff" stroke-width="3" d="M211.738,-35.4516C207.919,-36.6639 204.107,-37.8225 200.402,-38.88 187.545,-42.5491 173.719,-46.016 160.351,-49.1286"/>
<polygon fill="#e6b1ff" stroke="#e6b1ff" points="159.715,-46.4016 152.543,-50.9191 160.967,-51.8599 159.715,-46.4016"/>
</a>
</g>
<!-- EN1_ESX1_GBX1&#45;&gt;ERG -->
<g id="edge48" class="edge"><title>EN1_ESX1_GBX1&#45;&gt;ERG</title>
<a xlink:title="ERG: 0.057||remove9root">
<path fill="none" stroke="#e6b1ff" stroke-width="3" d="M270.689,-36.0263C292.857,-74.4226 344.784,-164.363 370.254,-208.478"/>
<polygon fill="#e6b1ff" stroke="#e6b1ff" points="367.973,-210.127 374.398,-215.655 372.822,-207.327 367.973,-210.127"/>
</a>
</g>
<!-- BARHL1 -->
<g id="node39" class="node"><title>BARHL1</title>
<a xlink:href="BARHL1.svg" xlink:title="Z&#45;value: 1.014||remove23">
<polygon fill="#6676ff" stroke="#6676ff" stroke-width="2" points="354.763,-81.6 323.763,-81.6 311.763,-69.6 311.763,-57.6 323.763,-45.6 354.763,-45.6 366.763,-57.6 366.763,-69.6 354.763,-81.6"/>
<path fill="#6676ff" stroke="#6676ff" stroke-width="2" d="M323.763,-81.6C317.763,-81.6 311.763,-75.6 311.763,-69.6"/>
<path fill="#6676ff" stroke="#6676ff" stroke-width="2" d="M311.763,-57.6C311.763,-51.6 317.763,-45.6 323.763,-45.6"/>
<path fill="#6676ff" stroke="#6676ff" stroke-width="2" d="M354.763,-45.6C360.763,-45.6 366.763,-51.6 366.763,-57.6"/>
<path fill="#6676ff" stroke="#6676ff" stroke-width="2" d="M366.763,-69.6C366.763,-75.6 360.763,-81.6 354.763,-81.6"/>
<polyline fill="none" stroke="white" stroke-width="2" points="354.763,-81.6 323.763,-81.6 "/>
<path fill="none" stroke="white" stroke-width="2" d="M323.763,-81.6C317.763,-81.6 311.763,-75.6 311.763,-69.6"/>
<polyline fill="none" stroke="white" stroke-width="2" points="311.763,-69.6 311.763,-57.6 "/>
<path fill="none" stroke="white" stroke-width="2" d="M311.763,-57.6C311.763,-51.6 317.763,-45.6 323.763,-45.6"/>
<polyline fill="none" stroke="white" stroke-width="2" points="323.763,-45.6 354.763,-45.6 "/>
<path fill="none" stroke="white" stroke-width="2" d="M354.763,-45.6C360.763,-45.6 366.763,-51.6 366.763,-57.6"/>
<polyline fill="none" stroke="white" stroke-width="2" points="366.763,-57.6 366.763,-69.6 "/>
<path fill="none" stroke="white" stroke-width="2" d="M366.763,-69.6C366.763,-75.6 360.763,-81.6 354.763,-81.6"/>
<text text-anchor="middle" x="339.263" y="-61.1" font-family="Helvetica,sans-Serif" font-size="10.00" fill="white">BARHL1</text>
</a>
</g>
<!-- BARHL1&#45;&gt;SMAD1 -->
<g id="edge62" class="edge"><title>BARHL1&#45;&gt;SMAD1</title>
<a xlink:title="SMAD1: 0.038||remove3root">
<path fill="none" stroke="#e9baff" stroke-width="3" d="M311,-79.9177C256.693,-111.272 137.937,-179.836 79.0385,-213.841"/>
<polygon fill="#e9baff" stroke="#e9baff" points="77.3477,-211.584 71.8195,-218.009 80.1478,-216.433 77.3477,-211.584"/>
</a>
</g>
<!-- BARHL1&#45;&gt;SHOX -->
<g id="edge58" class="edge"><title>BARHL1&#45;&gt;SHOX</title>
<a xlink:title="SHOX: 0.119||remove23root">
<path fill="none" stroke="#959fff" stroke-width="3" d="M321.148,-81.7152C299.373,-103.49 262.761,-140.102 238.66,-164.203"/>
<polygon fill="#959fff" stroke="#959fff" points="236.496,-162.408 232.819,-170.044 240.455,-166.367 236.496,-162.408"/>
</a>
</g>
<!-- BARHL1&#45;&gt;ETV1_ERF_FEV_ELF1 -->
<g id="edge60" class="edge"><title>BARHL1&#45;&gt;ETV1_ERF_FEV_ELF1</title>
<a xlink:title="ETV1: 0.042||ELF1: 0.025||remove6root">
<path fill="none" stroke="#e8b8ff" stroke-width="3" d="M339.263,-81.9216C339.263,-125.586 339.263,-235.908 339.263,-286.58"/>
<polygon fill="#e8b8ff" stroke="#e8b8ff" points="336.463,-286.751 339.263,-294.751 342.063,-286.751 336.463,-286.751"/>
</a>
</g>
<!-- BARHL1&#45;&gt;EN1_ESX1_GBX1 -->
<g id="edge56" class="edge"><title>BARHL1&#45;&gt;EN1_ESX1_GBX1</title>
<a xlink:title="ESX1: 0.160||remove22">
<path fill="none" stroke="#d782ff" stroke-width="3" d="M311.639,-47.6513C307.377,-45.1906 302.912,-42.6124 298.468,-40.047"/>
<polygon fill="#d782ff" stroke="#d782ff" points="299.864,-37.62 291.536,-36.0448 297.064,-42.4698 299.864,-37.62"/>
</a>
</g>
<!-- CEBPA -->
<g id="node44" class="node"><title>CEBPA</title>
<a xlink:href="CEBPA.svg" xlink:title="Z&#45;value: 0.889||remove26">
<polygon fill="#7381ff" stroke="#7381ff" stroke-width="2" points="399.863,-160.582 369.863,-160.582 357.863,-148.582 357.863,-136.582 369.863,-124.582 399.863,-124.582 411.863,-136.582 411.863,-148.582 399.863,-160.582"/>
<path fill="#7381ff" stroke="#7381ff" stroke-width="2" d="M369.863,-160.582C363.863,-160.582 357.863,-154.582 357.863,-148.582"/>
<path fill="#7381ff" stroke="#7381ff" stroke-width="2" d="M357.863,-136.582C357.863,-130.582 363.863,-124.582 369.863,-124.582"/>
<path fill="#7381ff" stroke="#7381ff" stroke-width="2" d="M399.863,-124.582C405.863,-124.582 411.863,-130.582 411.863,-136.582"/>
<path fill="#7381ff" stroke="#7381ff" stroke-width="2" d="M411.863,-148.582C411.863,-154.582 405.863,-160.582 399.863,-160.582"/>
<polyline fill="none" stroke="white" stroke-width="2" points="399.863,-160.582 369.863,-160.582 "/>
<path fill="none" stroke="white" stroke-width="2" d="M369.863,-160.582C363.863,-160.582 357.863,-154.582 357.863,-148.582"/>
<polyline fill="none" stroke="white" stroke-width="2" points="357.863,-148.582 357.863,-136.582 "/>
<path fill="none" stroke="white" stroke-width="2" d="M357.863,-136.582C357.863,-130.582 363.863,-124.582 369.863,-124.582"/>
<polyline fill="none" stroke="white" stroke-width="2" points="369.863,-124.582 399.863,-124.582 "/>
<path fill="none" stroke="white" stroke-width="2" d="M399.863,-124.582C405.863,-124.582 411.863,-130.582 411.863,-136.582"/>
<polyline fill="none" stroke="white" stroke-width="2" points="411.863,-136.582 411.863,-148.582 "/>
<path fill="none" stroke="white" stroke-width="2" d="M411.863,-148.582C411.863,-154.582 405.863,-160.582 399.863,-160.582"/>
<text text-anchor="middle" x="384.863" y="-140.082" font-family="Helvetica,sans-Serif" font-size="10.00">CEBPA</text>
</a>
</g>
<!-- CEBPA&#45;&gt;SHOX -->
<g id="edge64" class="edge"><title>CEBPA&#45;&gt;SHOX</title>
<a xlink:title="SHOX: 0.135||remove26root">
<path fill="none" stroke="#8e99ff" stroke-width="3" d="M357.52,-149.908C328.244,-157.753 281.698,-170.224 249.746,-178.786"/>
<polygon fill="#8e99ff" stroke="#8e99ff" points="248.959,-176.098 241.956,-180.873 250.408,-181.507 248.959,-176.098"/>
</a>
</g>
</g>
</svg>
