<?xml version="1.0" encoding="UTF-8" standalone="no"?>
<!DOCTYPE svg PUBLIC "-//W3C//DTD SVG 1.1//EN"
 "http://www.w3.org/Graphics/SVG/1.1/DTD/svg11.dtd">
<!-- Generated by graphviz version 2.28.0 (20110630.0925)
 -->
<!-- Title: _anonymous_0 Pages: 1 -->
<svg width="457pt" height="366pt"
 viewBox="0.00 0.00 456.95 366.45" xmlns="http://www.w3.org/2000/svg" xmlns:xlink="http://www.w3.org/1999/xlink">
<g id="graph1" class="graph" transform="scale(1 1) rotate(0) translate(4 362.449)">
<title>_anonymous_0</title>
<polygon fill="white" stroke="white" points="-4,5 -4,-362.449 453.949,-362.449 453.949,5 -4,5"/>
<!-- ZNF711_TFAP2A_TFAP2D -->
<g id="node1" class="node"><title>ZNF711_TFAP2A_TFAP2D</title>
<a xlink:href="ZNF711_TFAP2A_TFAP2D.svg" xlink:title="Z&#45;value: 2.387||remove58">
<polygon fill="#3247ff" stroke="#3247ff" stroke-width="2" points="418.949,-240.425 304.949,-240.425 292.949,-228.425 292.949,-216.425 304.949,-204.425 418.949,-204.425 430.949,-216.425 430.949,-228.425 418.949,-240.425"/>
<path fill="#3247ff" stroke="#3247ff" stroke-width="2" d="M304.949,-240.425C298.949,-240.425 292.949,-234.425 292.949,-228.425"/>
<path fill="#3247ff" stroke="#3247ff" stroke-width="2" d="M292.949,-216.425C292.949,-210.425 298.949,-204.425 304.949,-204.425"/>
<path fill="#3247ff" stroke="#3247ff" stroke-width="2" d="M418.949,-204.425C424.949,-204.425 430.949,-210.425 430.949,-216.425"/>
<path fill="#3247ff" stroke="#3247ff" stroke-width="2" d="M430.949,-228.425C430.949,-234.425 424.949,-240.425 418.949,-240.425"/>
<polyline fill="none" stroke="white" stroke-width="2" points="418.949,-240.425 304.949,-240.425 "/>
<path fill="none" stroke="white" stroke-width="2" d="M304.949,-240.425C298.949,-240.425 292.949,-234.425 292.949,-228.425"/>
<polyline fill="none" stroke="white" stroke-width="2" points="292.949,-228.425 292.949,-216.425 "/>
<path fill="none" stroke="white" stroke-width="2" d="M292.949,-216.425C292.949,-210.425 298.949,-204.425 304.949,-204.425"/>
<polyline fill="none" stroke="white" stroke-width="2" points="304.949,-204.425 418.949,-204.425 "/>
<path fill="none" stroke="white" stroke-width="2" d="M418.949,-204.425C424.949,-204.425 430.949,-210.425 430.949,-216.425"/>
<polyline fill="none" stroke="white" stroke-width="2" points="430.949,-216.425 430.949,-228.425 "/>
<path fill="none" stroke="white" stroke-width="2" d="M430.949,-228.425C430.949,-234.425 424.949,-240.425 418.949,-240.425"/>
<text text-anchor="middle" x="361.949" y="-219.925" font-family="Helvetica,sans-Serif" font-size="10.00" fill="white">ZNF711_TFAP2A_TFAP2D</text>
</a>
</g>
<!-- ZNF711_TFAP2A_TFAP2D&#45;&gt;ZNF711_TFAP2A_TFAP2D -->
<g id="edge12" class="edge"><title>ZNF711_TFAP2A_TFAP2D&#45;&gt;ZNF711_TFAP2A_TFAP2D</title>
<a xlink:title="TFAP2A: 0.506||ZNF711: 0.089||remove51root">
<path fill="none" stroke="#dc92ff" stroke-width="3" d="M431.224,-228.58C441.781,-227.64 448.949,-225.589 448.949,-222.425 448.949,-220.15 445.246,-218.451 439.243,-217.326"/>
<polygon fill="#dc92ff" stroke="#dc92ff" points="439.521,-214.539 431.224,-216.27 438.789,-220.091 439.521,-214.539"/>
</a>
</g>
<!-- WT1_MTF1_ZBTB7B -->
<g id="node2" class="node"><title>WT1_MTF1_ZBTB7B</title>
<a xlink:href="WT1_MTF1_ZBTB7B.svg" xlink:title="Z&#45;value: 0.561||remove44">
<polygon fill="#a8b0ff" stroke="#a8b0ff" stroke-width="2" points="361.999,-315.249 275.499,-315.249 263.499,-303.249 263.499,-291.249 275.499,-279.249 361.999,-279.249 373.999,-291.249 373.999,-303.249 361.999,-315.249"/>
<path fill="#a8b0ff" stroke="#a8b0ff" stroke-width="2" d="M275.499,-315.249C269.499,-315.249 263.499,-309.249 263.499,-303.249"/>
<path fill="#a8b0ff" stroke="#a8b0ff" stroke-width="2" d="M263.499,-291.249C263.499,-285.249 269.499,-279.249 275.499,-279.249"/>
<path fill="#a8b0ff" stroke="#a8b0ff" stroke-width="2" d="M361.999,-279.249C367.999,-279.249 373.999,-285.249 373.999,-291.249"/>
<path fill="#a8b0ff" stroke="#a8b0ff" stroke-width="2" d="M373.999,-303.249C373.999,-309.249 367.999,-315.249 361.999,-315.249"/>
<polyline fill="none" stroke="white" stroke-width="2" points="361.999,-315.249 275.499,-315.249 "/>
<path fill="none" stroke="white" stroke-width="2" d="M275.499,-315.249C269.499,-315.249 263.499,-309.249 263.499,-303.249"/>
<polyline fill="none" stroke="white" stroke-width="2" points="263.499,-303.249 263.499,-291.249 "/>
<path fill="none" stroke="white" stroke-width="2" d="M263.499,-291.249C263.499,-285.249 269.499,-279.249 275.499,-279.249"/>
<polyline fill="none" stroke="white" stroke-width="2" points="275.499,-279.249 361.999,-279.249 "/>
<path fill="none" stroke="white" stroke-width="2" d="M361.999,-279.249C367.999,-279.249 373.999,-285.249 373.999,-291.249"/>
<polyline fill="none" stroke="white" stroke-width="2" points="373.999,-291.249 373.999,-303.249 "/>
<path fill="none" stroke="white" stroke-width="2" d="M373.999,-303.249C373.999,-309.249 367.999,-315.249 361.999,-315.249"/>
<text text-anchor="middle" x="318.749" y="-294.749" font-family="Helvetica,sans-Serif" font-size="10.00">WT1_MTF1_ZBTB7B</text>
</a>
</g>
<!-- ZNF711_TFAP2A_TFAP2D&#45;&gt;WT1_MTF1_ZBTB7B -->
<g id="edge2" class="edge"><title>ZNF711_TFAP2A_TFAP2D&#45;&gt;WT1_MTF1_ZBTB7B</title>
<a xlink:title="ZBTB7B: 0.183||WT1: 0.019||TFAP2A: 0.032||remove39root">
<path fill="none" stroke="#e7b7ff" stroke-width="3" d="M348.209,-248.224C343.668,-256.088 338.666,-264.752 334.132,-272.606"/>
<path fill="none" stroke="#edc8ff" stroke-width="3" d="M346.477,-247.224C341.936,-255.088 336.934,-263.752 332.4,-271.606"/>
<polygon fill="#edc8ff" stroke="#edc8ff" points="349.917,-248.866 351.492,-240.538 345.067,-246.066 349.917,-248.866"/>
<polygon fill="#e7b7ff" stroke="#e7b7ff" points="330.835,-270.715 329.26,-279.044 335.685,-273.516 330.835,-270.715"/>
</a>
</g>
<!-- GTF2I -->
<g id="node4" class="node"><title>GTF2I</title>
<a xlink:href="GTF2I.svg" xlink:title="Z&#45;value: 1.592||remove56">
<polygon fill="#6575ff" stroke="#6575ff" stroke-width="2" points="258.925,-358.449 228.925,-358.449 216.925,-346.449 216.925,-334.449 228.925,-322.449 258.925,-322.449 270.925,-334.449 270.925,-346.449 258.925,-358.449"/>
<path fill="#6575ff" stroke="#6575ff" stroke-width="2" d="M228.925,-358.449C222.925,-358.449 216.925,-352.449 216.925,-346.449"/>
<path fill="#6575ff" stroke="#6575ff" stroke-width="2" d="M216.925,-334.449C216.925,-328.449 222.925,-322.449 228.925,-322.449"/>
<path fill="#6575ff" stroke="#6575ff" stroke-width="2" d="M258.925,-322.449C264.925,-322.449 270.925,-328.449 270.925,-334.449"/>
<path fill="#6575ff" stroke="#6575ff" stroke-width="2" d="M270.925,-346.449C270.925,-352.449 264.925,-358.449 258.925,-358.449"/>
<polyline fill="none" stroke="white" stroke-width="2" points="258.925,-358.449 228.925,-358.449 "/>
<path fill="none" stroke="white" stroke-width="2" d="M228.925,-358.449C222.925,-358.449 216.925,-352.449 216.925,-346.449"/>
<polyline fill="none" stroke="white" stroke-width="2" points="216.925,-346.449 216.925,-334.449 "/>
<path fill="none" stroke="white" stroke-width="2" d="M216.925,-334.449C216.925,-328.449 222.925,-322.449 228.925,-322.449"/>
<polyline fill="none" stroke="white" stroke-width="2" points="228.925,-322.449 258.925,-322.449 "/>
<path fill="none" stroke="white" stroke-width="2" d="M258.925,-322.449C264.925,-322.449 270.925,-328.449 270.925,-334.449"/>
<polyline fill="none" stroke="white" stroke-width="2" points="270.925,-334.449 270.925,-346.449 "/>
<path fill="none" stroke="white" stroke-width="2" d="M270.925,-346.449C270.925,-352.449 264.925,-358.449 258.925,-358.449"/>
<text text-anchor="middle" x="243.925" y="-337.949" font-family="Helvetica,sans-Serif" font-size="10.00" fill="white">GTF2I</text>
</a>
</g>
<!-- ZNF711_TFAP2A_TFAP2D&#45;&gt;GTF2I -->
<g id="edge4" class="edge"><title>ZNF711_TFAP2A_TFAP2D&#45;&gt;GTF2I</title>
<a xlink:title="GTF2I: 0.063||remove12root">
<path fill="none" stroke="#ecc4ff" stroke-width="3" d="M302.047,-240.489C284.157,-248.701 266.186,-260.291 254.369,-276.369 246.505,-287.07 243.667,-301.493 242.895,-313.946"/>
<polygon fill="#ecc4ff" stroke="#ecc4ff" points="240.089,-314.104 242.654,-322.183 245.687,-314.268 240.089,-314.104"/>
</a>
</g>
<!-- E2F7_E2F1 -->
<g id="node6" class="node"><title>E2F7_E2F1</title>
<a xlink:href="E2F7_E2F1.svg" xlink:title="Z&#45;value: 1.367||remove48">
<polygon fill="#7482ff" stroke="#7482ff" stroke-width="2" points="179.525,-358.449 135.525,-358.449 123.525,-346.449 123.525,-334.449 135.525,-322.449 179.525,-322.449 191.525,-334.449 191.525,-346.449 179.525,-358.449"/>
<path fill="#7482ff" stroke="#7482ff" stroke-width="2" d="M135.525,-358.449C129.525,-358.449 123.525,-352.449 123.525,-346.449"/>
<path fill="#7482ff" stroke="#7482ff" stroke-width="2" d="M123.525,-334.449C123.525,-328.449 129.525,-322.449 135.525,-322.449"/>
<path fill="#7482ff" stroke="#7482ff" stroke-width="2" d="M179.525,-322.449C185.525,-322.449 191.525,-328.449 191.525,-334.449"/>
<path fill="#7482ff" stroke="#7482ff" stroke-width="2" d="M191.525,-346.449C191.525,-352.449 185.525,-358.449 179.525,-358.449"/>
<polyline fill="none" stroke="white" stroke-width="2" points="179.525,-358.449 135.525,-358.449 "/>
<path fill="none" stroke="white" stroke-width="2" d="M135.525,-358.449C129.525,-358.449 123.525,-352.449 123.525,-346.449"/>
<polyline fill="none" stroke="white" stroke-width="2" points="123.525,-346.449 123.525,-334.449 "/>
<path fill="none" stroke="white" stroke-width="2" d="M123.525,-334.449C123.525,-328.449 129.525,-322.449 135.525,-322.449"/>
<polyline fill="none" stroke="white" stroke-width="2" points="135.525,-322.449 179.525,-322.449 "/>
<path fill="none" stroke="white" stroke-width="2" d="M179.525,-322.449C185.525,-322.449 191.525,-328.449 191.525,-334.449"/>
<polyline fill="none" stroke="white" stroke-width="2" points="191.525,-334.449 191.525,-346.449 "/>
<path fill="none" stroke="white" stroke-width="2" d="M191.525,-346.449C191.525,-352.449 185.525,-358.449 179.525,-358.449"/>
<text text-anchor="middle" x="157.525" y="-337.949" font-family="Helvetica,sans-Serif" font-size="10.00">E2F7_E2F1</text>
</a>
</g>
<!-- ZNF711_TFAP2A_TFAP2D&#45;&gt;E2F7_E2F1 -->
<g id="edge6" class="edge"><title>ZNF711_TFAP2A_TFAP2D&#45;&gt;E2F7_E2F1</title>
<a xlink:title="E2F1: 0.169||ZNF711: 0.018||remove38root">
<path fill="none" stroke="#e8b8ff" stroke-width="3" d="M316.477,-244.84C297.174,-254.271 274.627,-265.798 254.87,-277.235 233.046,-289.864 209.373,-305.491 190.921,-318.134"/>
<path fill="none" stroke="#eec9ff" stroke-width="3" d="M315.599,-243.043C296.264,-252.49 273.717,-264.017 253.868,-275.504 231.945,-288.195 208.271,-303.822 189.791,-316.484"/>
<polygon fill="#eec9ff" stroke="#eec9ff" points="317.297,-246.443 323.272,-240.431 314.852,-241.405 317.297,-246.443"/>
<polygon fill="#e8b8ff" stroke="#e8b8ff" points="188.292,-315.331 183.294,-322.176 191.47,-319.941 188.292,-315.331"/>
</a>
</g>
<!-- AHR_ARNT2 -->
<g id="node8" class="node"><title>AHR_ARNT2</title>
<a xlink:href="AHR_ARNT2.svg" xlink:title="Z&#45;value: 1.019||remove43">
<polygon fill="#8a96ff" stroke="#8a96ff" stroke-width="2" points="108.95,-315.249 56.45,-315.249 44.45,-303.249 44.45,-291.249 56.45,-279.249 108.95,-279.249 120.95,-291.249 120.95,-303.249 108.95,-315.249"/>
<path fill="#8a96ff" stroke="#8a96ff" stroke-width="2" d="M56.45,-315.249C50.45,-315.249 44.45,-309.249 44.45,-303.249"/>
<path fill="#8a96ff" stroke="#8a96ff" stroke-width="2" d="M44.45,-291.249C44.45,-285.249 50.45,-279.249 56.45,-279.249"/>
<path fill="#8a96ff" stroke="#8a96ff" stroke-width="2" d="M108.95,-279.249C114.95,-279.249 120.95,-285.249 120.95,-291.249"/>
<path fill="#8a96ff" stroke="#8a96ff" stroke-width="2" d="M120.95,-303.249C120.95,-309.249 114.95,-315.249 108.95,-315.249"/>
<polyline fill="none" stroke="white" stroke-width="2" points="108.95,-315.249 56.45,-315.249 "/>
<path fill="none" stroke="white" stroke-width="2" d="M56.45,-315.249C50.45,-315.249 44.45,-309.249 44.45,-303.249"/>
<polyline fill="none" stroke="white" stroke-width="2" points="44.45,-303.249 44.45,-291.249 "/>
<path fill="none" stroke="white" stroke-width="2" d="M44.45,-291.249C44.45,-285.249 50.45,-279.249 56.45,-279.249"/>
<polyline fill="none" stroke="white" stroke-width="2" points="56.45,-279.249 108.95,-279.249 "/>
<path fill="none" stroke="white" stroke-width="2" d="M108.95,-279.249C114.95,-279.249 120.95,-285.249 120.95,-291.249"/>
<polyline fill="none" stroke="white" stroke-width="2" points="120.95,-291.249 120.95,-303.249 "/>
<path fill="none" stroke="white" stroke-width="2" d="M120.95,-303.249C120.95,-309.249 114.95,-315.249 108.95,-315.249"/>
<text text-anchor="middle" x="82.7" y="-294.749" font-family="Helvetica,sans-Serif" font-size="10.00">AHR_ARNT2</text>
</a>
</g>
<!-- ZNF711_TFAP2A_TFAP2D&#45;&gt;AHR_ARNT2 -->
<g id="edge8" class="edge"><title>ZNF711_TFAP2A_TFAP2D&#45;&gt;AHR_ARNT2</title>
<a xlink:title="ARNT2: 0.875||TFAP2A: 0.376||remove43">
<path fill="none" stroke="#ce67ff" stroke-width="3" d="M287.212,-243.486C236.962,-256.95 172.38,-274.255 129.428,-285.764"/>
<path fill="none" stroke="#e0a0ff" stroke-width="3" d="M286.695,-241.554C236.444,-255.018 171.863,-272.323 128.91,-283.832"/>
<polygon fill="#e0a0ff" stroke="#e0a0ff" points="287.704,-245.217 294.707,-240.442 286.255,-239.808 287.704,-245.217"/>
<polygon fill="#ce67ff" stroke="#ce67ff" points="128.412,-282.102 121.409,-286.877 129.861,-287.511 128.412,-282.102"/>
</a>
</g>
<!-- SIX1_SIX3_SIX2 -->
<g id="node10" class="node"><title>SIX1_SIX3_SIX2</title>
<a xlink:href="SIX1_SIX3_SIX2.svg" xlink:title="Z&#45;value: 0.540||remove60">
<polygon fill="#ffa9a9" stroke="#ffa9a9" stroke-width="2" points="234.725,-197.225 166.725,-197.225 154.725,-185.225 154.725,-173.225 166.725,-161.225 234.725,-161.225 246.725,-173.225 246.725,-185.225 234.725,-197.225"/>
<path fill="#ffa9a9" stroke="#ffa9a9" stroke-width="2" d="M166.725,-197.225C160.725,-197.225 154.725,-191.225 154.725,-185.225"/>
<path fill="#ffa9a9" stroke="#ffa9a9" stroke-width="2" d="M154.725,-173.225C154.725,-167.225 160.725,-161.225 166.725,-161.225"/>
<path fill="#ffa9a9" stroke="#ffa9a9" stroke-width="2" d="M234.725,-161.225C240.725,-161.225 246.725,-167.225 246.725,-173.225"/>
<path fill="#ffa9a9" stroke="#ffa9a9" stroke-width="2" d="M246.725,-185.225C246.725,-191.225 240.725,-197.225 234.725,-197.225"/>
<polyline fill="none" stroke="white" stroke-width="2" points="234.725,-197.225 166.725,-197.225 "/>
<path fill="none" stroke="white" stroke-width="2" d="M166.725,-197.225C160.725,-197.225 154.725,-191.225 154.725,-185.225"/>
<polyline fill="none" stroke="white" stroke-width="2" points="154.725,-185.225 154.725,-173.225 "/>
<path fill="none" stroke="white" stroke-width="2" d="M154.725,-173.225C154.725,-167.225 160.725,-161.225 166.725,-161.225"/>
<polyline fill="none" stroke="white" stroke-width="2" points="166.725,-161.225 234.725,-161.225 "/>
<path fill="none" stroke="white" stroke-width="2" d="M234.725,-161.225C240.725,-161.225 246.725,-167.225 246.725,-173.225"/>
<polyline fill="none" stroke="white" stroke-width="2" points="246.725,-173.225 246.725,-185.225 "/>
<path fill="none" stroke="white" stroke-width="2" d="M246.725,-185.225C246.725,-191.225 240.725,-197.225 234.725,-197.225"/>
<text text-anchor="middle" x="200.725" y="-176.725" font-family="Helvetica,sans-Serif" font-size="10.00">SIX1_SIX3_SIX2</text>
</a>
</g>
<!-- ZNF711_TFAP2A_TFAP2D&#45;&gt;SIX1_SIX3_SIX2 -->
<g id="edge10" class="edge"><title>ZNF711_TFAP2A_TFAP2D&#45;&gt;SIX1_SIX3_SIX2</title>
<a xlink:title="SIX2: 0.868||remove58root">
<path fill="none" stroke="#6877ff" stroke-width="3" d="M294.51,-204.354C281.218,-200.793 267.436,-197.1 254.661,-193.677"/>
<polygon fill="#6877ff" stroke="#6877ff" points="255.303,-190.95 246.851,-191.584 253.854,-196.359 255.303,-190.95"/>
</a>
</g>
<!-- SIN3A_CHD1 -->
<g id="node13" class="node"><title>SIN3A_CHD1</title>
<a xlink:href="SIN3A_CHD1.svg" xlink:title="Z&#45;value: 1.751||remove52">
<polygon fill="#5b6cff" stroke="#5b6cff" stroke-width="2" points="66.75,-240.425 12.25,-240.425 0.25,-228.425 0.25,-216.425 12.25,-204.425 66.75,-204.425 78.75,-216.425 78.75,-228.425 66.75,-240.425"/>
<path fill="#5b6cff" stroke="#5b6cff" stroke-width="2" d="M12.25,-240.425C6.25,-240.425 0.25,-234.425 0.25,-228.425"/>
<path fill="#5b6cff" stroke="#5b6cff" stroke-width="2" d="M0.25,-216.425C0.25,-210.425 6.25,-204.425 12.25,-204.425"/>
<path fill="#5b6cff" stroke="#5b6cff" stroke-width="2" d="M66.75,-204.425C72.75,-204.425 78.75,-210.425 78.75,-216.425"/>
<path fill="#5b6cff" stroke="#5b6cff" stroke-width="2" d="M78.75,-228.425C78.75,-234.425 72.75,-240.425 66.75,-240.425"/>
<polyline fill="none" stroke="white" stroke-width="2" points="66.75,-240.425 12.25,-240.425 "/>
<path fill="none" stroke="white" stroke-width="2" d="M12.25,-240.425C6.25,-240.425 0.25,-234.425 0.25,-228.425"/>
<polyline fill="none" stroke="white" stroke-width="2" points="0.25,-228.425 0.25,-216.425 "/>
<path fill="none" stroke="white" stroke-width="2" d="M0.25,-216.425C0.25,-210.425 6.25,-204.425 12.25,-204.425"/>
<polyline fill="none" stroke="white" stroke-width="2" points="12.25,-204.425 66.75,-204.425 "/>
<path fill="none" stroke="white" stroke-width="2" d="M66.75,-204.425C72.75,-204.425 78.75,-210.425 78.75,-216.425"/>
<polyline fill="none" stroke="white" stroke-width="2" points="78.75,-216.425 78.75,-228.425 "/>
<path fill="none" stroke="white" stroke-width="2" d="M78.75,-228.425C78.75,-234.425 72.75,-240.425 66.75,-240.425"/>
<text text-anchor="middle" x="39.5" y="-219.925" font-family="Helvetica,sans-Serif" font-size="10.00" fill="white">SIN3A_CHD1</text>
</a>
</g>
<!-- ZNF711_TFAP2A_TFAP2D&#45;&gt;SIN3A_CHD1 -->
<g id="edge14" class="edge"><title>ZNF711_TFAP2A_TFAP2D&#45;&gt;SIN3A_CHD1</title>
<a xlink:title="SIN3A: 0.087||TFAP2A: 0.071||remove26root">
<path fill="none" stroke="#ebc2ff" stroke-width="3" d="M284.614,-223.425C223.179,-223.425 139.218,-223.425 87.222,-223.425"/>
<path fill="none" stroke="#ecc3ff" stroke-width="3" d="M284.614,-221.425C223.179,-221.425 139.218,-221.425 87.222,-221.425"/>
<polygon fill="#ecc3ff" stroke="#ecc3ff" points="284.776,-225.225 292.776,-222.425 284.776,-219.625 284.776,-225.225"/>
<polygon fill="#ebc2ff" stroke="#ebc2ff" points="87.1598,-219.625 79.1598,-222.425 87.1597,-225.225 87.1598,-219.625"/>
</a>
</g>
<!-- SP4_PML -->
<g id="node15" class="node"><title>SP4_PML</title>
<a xlink:href="SP4_PML.svg" xlink:title="Z&#45;value: 1.603||remove57">
<polygon fill="#6574ff" stroke="#6574ff" stroke-width="2" points="57.75,-154.025 21.25,-154.025 9.25,-142.025 9.25,-130.025 21.25,-118.025 57.75,-118.025 69.75,-130.025 69.75,-142.025 57.75,-154.025"/>
<path fill="#6574ff" stroke="#6574ff" stroke-width="2" d="M21.25,-154.025C15.25,-154.025 9.25,-148.025 9.25,-142.025"/>
<path fill="#6574ff" stroke="#6574ff" stroke-width="2" d="M9.25,-130.025C9.25,-124.025 15.25,-118.025 21.25,-118.025"/>
<path fill="#6574ff" stroke="#6574ff" stroke-width="2" d="M57.75,-118.025C63.75,-118.025 69.75,-124.025 69.75,-130.025"/>
<path fill="#6574ff" stroke="#6574ff" stroke-width="2" d="M69.75,-142.025C69.75,-148.025 63.75,-154.025 57.75,-154.025"/>
<polyline fill="none" stroke="white" stroke-width="2" points="57.75,-154.025 21.25,-154.025 "/>
<path fill="none" stroke="white" stroke-width="2" d="M21.25,-154.025C15.25,-154.025 9.25,-148.025 9.25,-142.025"/>
<polyline fill="none" stroke="white" stroke-width="2" points="9.25,-142.025 9.25,-130.025 "/>
<path fill="none" stroke="white" stroke-width="2" d="M9.25,-130.025C9.25,-124.025 15.25,-118.025 21.25,-118.025"/>
<polyline fill="none" stroke="white" stroke-width="2" points="21.25,-118.025 57.75,-118.025 "/>
<path fill="none" stroke="white" stroke-width="2" d="M57.75,-118.025C63.75,-118.025 69.75,-124.025 69.75,-130.025"/>
<polyline fill="none" stroke="white" stroke-width="2" points="69.75,-130.025 69.75,-142.025 "/>
<path fill="none" stroke="white" stroke-width="2" d="M69.75,-142.025C69.75,-148.025 63.75,-154.025 57.75,-154.025"/>
<text text-anchor="middle" x="39.5" y="-133.525" font-family="Helvetica,sans-Serif" font-size="10.00" fill="white">SP4_PML</text>
</a>
</g>
<!-- ZNF711_TFAP2A_TFAP2D&#45;&gt;SP4_PML -->
<g id="edge16" class="edge"><title>ZNF711_TFAP2A_TFAP2D&#45;&gt;SP4_PML</title>
<a xlink:title="SP4: 0.046||TFAP2A: 0.217||ZNF711: 0.116||remove41root">
<path fill="none" stroke="#ecc6ff" stroke-width="3" d="M330.88,-200.24C310.228,-185.929 281.616,-168.49 253.77,-159.294 194.913,-139.761 122.061,-136.201 78.3064,-136.112"/>
<path fill="none" stroke="#e6b3ff" stroke-width="3" d="M332.019,-198.596C311.269,-184.221 282.656,-166.782 254.399,-157.395 195.01,-137.763 122.159,-134.203 78.3105,-134.112"/>
<polygon fill="#e6b3ff" stroke="#e6b3ff" points="330.003,-201.824 338.154,-204.147 333.231,-197.248 330.003,-201.824"/>
<polygon fill="#ecc6ff" stroke="#ecc6ff" points="78.2052,-132.312 70.2131,-135.134 78.2208,-137.912 78.2052,-132.312"/>
</a>
</g>
<!-- PBX3 -->
<g id="node17" class="node"><title>PBX3</title>
<a xlink:href="PBX3.svg" xlink:title="Z&#45;value: 0.642||remove55">
<polygon fill="#a2acff" stroke="#a2acff" stroke-width="2" points="97.7,-79.2 67.7,-79.2 55.7,-67.2 55.7,-55.2 67.7,-43.2 97.7,-43.2 109.7,-55.2 109.7,-67.2 97.7,-79.2"/>
<path fill="#a2acff" stroke="#a2acff" stroke-width="2" d="M67.7,-79.2C61.7,-79.2 55.7,-73.2 55.7,-67.2"/>
<path fill="#a2acff" stroke="#a2acff" stroke-width="2" d="M55.7,-55.2C55.7,-49.2 61.7,-43.2 67.7,-43.2"/>
<path fill="#a2acff" stroke="#a2acff" stroke-width="2" d="M97.7,-43.2C103.7,-43.2 109.7,-49.2 109.7,-55.2"/>
<path fill="#a2acff" stroke="#a2acff" stroke-width="2" d="M109.7,-67.2C109.7,-73.2 103.7,-79.2 97.7,-79.2"/>
<polyline fill="none" stroke="white" stroke-width="2" points="97.7,-79.2 67.7,-79.2 "/>
<path fill="none" stroke="white" stroke-width="2" d="M67.7,-79.2C61.7,-79.2 55.7,-73.2 55.7,-67.2"/>
<polyline fill="none" stroke="white" stroke-width="2" points="55.7,-67.2 55.7,-55.2 "/>
<path fill="none" stroke="white" stroke-width="2" d="M55.7,-55.2C55.7,-49.2 61.7,-43.2 67.7,-43.2"/>
<polyline fill="none" stroke="white" stroke-width="2" points="67.7,-43.2 97.7,-43.2 "/>
<path fill="none" stroke="white" stroke-width="2" d="M97.7,-43.2C103.7,-43.2 109.7,-49.2 109.7,-55.2"/>
<polyline fill="none" stroke="white" stroke-width="2" points="109.7,-55.2 109.7,-67.2 "/>
<path fill="none" stroke="white" stroke-width="2" d="M109.7,-67.2C109.7,-73.2 103.7,-79.2 97.7,-79.2"/>
<text text-anchor="middle" x="82.7" y="-58.7" font-family="Helvetica,sans-Serif" font-size="10.00">PBX3</text>
</a>
</g>
<!-- ZNF711_TFAP2A_TFAP2D&#45;&gt;PBX3 -->
<g id="edge18" class="edge"><title>ZNF711_TFAP2A_TFAP2D&#45;&gt;PBX3</title>
<a xlink:title="PBX3: 0.255||remove42root">
<path fill="none" stroke="#e5aeff" stroke-width="3" d="M331.825,-204.306C310.246,-191.381 280.459,-173.652 254.085,-158.345 206.722,-130.857 151.564,-99.7529 116.888,-80.3083"/>
<polygon fill="#e5aeff" stroke="#e5aeff" points="118.157,-77.81 109.809,-76.3415 115.419,-82.6952 118.157,-77.81"/>
</a>
</g>
<!-- TFDP1 -->
<g id="node19" class="node"><title>TFDP1</title>
<a xlink:href="TFDP1.svg" xlink:title="Z&#45;value: 1.163||remove50">
<polygon fill="#818dff" stroke="#818dff" stroke-width="2" points="172.525,-36 142.525,-36 130.525,-24 130.525,-12 142.525,-6.39488e-14 172.525,-6.39488e-14 184.525,-12 184.525,-24 172.525,-36"/>
<path fill="#818dff" stroke="#818dff" stroke-width="2" d="M142.525,-36C136.525,-36 130.525,-30 130.525,-24"/>
<path fill="#818dff" stroke="#818dff" stroke-width="2" d="M130.525,-12C130.525,-6 136.525,-6.39488e-14 142.525,-6.39488e-14"/>
<path fill="#818dff" stroke="#818dff" stroke-width="2" d="M172.525,-6.39488e-14C178.525,-6.39488e-14 184.525,-6 184.525,-12"/>
<path fill="#818dff" stroke="#818dff" stroke-width="2" d="M184.525,-24C184.525,-30 178.525,-36 172.525,-36"/>
<polyline fill="none" stroke="white" stroke-width="2" points="172.525,-36 142.525,-36 "/>
<path fill="none" stroke="white" stroke-width="2" d="M142.525,-36C136.525,-36 130.525,-30 130.525,-24"/>
<polyline fill="none" stroke="white" stroke-width="2" points="130.525,-24 130.525,-12 "/>
<path fill="none" stroke="white" stroke-width="2" d="M130.525,-12C130.525,-6 136.525,-6.39488e-14 142.525,-6.39488e-14"/>
<polyline fill="none" stroke="white" stroke-width="2" points="142.525,-6.39488e-14 172.525,-6.39488e-14 "/>
<path fill="none" stroke="white" stroke-width="2" d="M172.525,-6.39488e-14C178.525,-6.39488e-14 184.525,-6 184.525,-12"/>
<polyline fill="none" stroke="white" stroke-width="2" points="184.525,-12 184.525,-24 "/>
<path fill="none" stroke="white" stroke-width="2" d="M184.525,-24C184.525,-30 178.525,-36 172.525,-36"/>
<text text-anchor="middle" x="157.525" y="-15.5" font-family="Helvetica,sans-Serif" font-size="10.00">TFDP1</text>
</a>
</g>
<!-- ZNF711_TFAP2A_TFAP2D&#45;&gt;TFDP1 -->
<g id="edge20" class="edge"><title>ZNF711_TFAP2A_TFAP2D&#45;&gt;TFDP1</title>
<a xlink:title="TFDP1: 0.084||ZNF711: 0.041||TFAP2A: 0.032||remove22root">
<path fill="none" stroke="#ebc2ff" stroke-width="3" d="M337.314,-199.204C298.027,-159.916 220.286,-82.1758 180.899,-42.7882"/>
<path fill="none" stroke="#edc7ff" stroke-width="3" d="M338.729,-197.79C299.441,-158.502 221.7,-80.7616 182.313,-41.374"/>
<polygon fill="#edc7ff" stroke="#edc7ff" points="336.171,-200.606 343.808,-204.283 340.131,-196.646 336.171,-200.606"/>
<polygon fill="#ebc2ff" stroke="#ebc2ff" points="183.262,-39.7776 175.625,-36.1007 179.302,-43.7375 183.262,-39.7776"/>
</a>
</g>
<!-- GATA3 -->
<g id="node21" class="node"><title>GATA3</title>
<a xlink:href="GATA3.svg" xlink:title="Z&#45;value: 2.023||remove53">
<polygon fill="#4a5cff" stroke="#4a5cff" stroke-width="2" points="258.925,-36 228.925,-36 216.925,-24 216.925,-12 228.925,-0 258.925,-0 270.925,-12 270.925,-24 258.925,-36"/>
<path fill="#4a5cff" stroke="#4a5cff" stroke-width="2" d="M228.925,-36C222.925,-36 216.925,-30 216.925,-24"/>
<path fill="#4a5cff" stroke="#4a5cff" stroke-width="2" d="M216.925,-12C216.925,-6 222.925,-0 228.925,-0"/>
<path fill="#4a5cff" stroke="#4a5cff" stroke-width="2" d="M258.925,-0C264.925,-0 270.925,-6 270.925,-12"/>
<path fill="#4a5cff" stroke="#4a5cff" stroke-width="2" d="M270.925,-24C270.925,-30 264.925,-36 258.925,-36"/>
<polyline fill="none" stroke="white" stroke-width="2" points="258.925,-36 228.925,-36 "/>
<path fill="none" stroke="white" stroke-width="2" d="M228.925,-36C222.925,-36 216.925,-30 216.925,-24"/>
<polyline fill="none" stroke="white" stroke-width="2" points="216.925,-24 216.925,-12 "/>
<path fill="none" stroke="white" stroke-width="2" d="M216.925,-12C216.925,-6 222.925,-0 228.925,-0"/>
<polyline fill="none" stroke="white" stroke-width="2" points="228.925,-0 258.925,-0 "/>
<path fill="none" stroke="white" stroke-width="2" d="M258.925,-0C264.925,-0 270.925,-6 270.925,-12"/>
<polyline fill="none" stroke="white" stroke-width="2" points="270.925,-12 270.925,-24 "/>
<path fill="none" stroke="white" stroke-width="2" d="M270.925,-24C270.925,-30 264.925,-36 258.925,-36"/>
<text text-anchor="middle" x="243.925" y="-15.5" font-family="Helvetica,sans-Serif" font-size="10.00" fill="white">GATA3</text>
</a>
</g>
<!-- ZNF711_TFAP2A_TFAP2D&#45;&gt;GATA3 -->
<g id="edge22" class="edge"><title>ZNF711_TFAP2A_TFAP2D&#45;&gt;GATA3</title>
<a xlink:title="GATA3: 0.105||remove28root">
<path fill="none" stroke="#eabfff" stroke-width="3" d="M345.781,-204.226C323.846,-178.654 284.776,-129.851 261.909,-82.08 256.194,-70.1399 251.992,-56.0535 249.094,-44.1329"/>
<polygon fill="#eabfff" stroke="#eabfff" points="251.81,-43.451 247.293,-36.2792 246.352,-44.7026 251.81,-43.451"/>
</a>
</g>
<!-- FOXM1_TBL1XR1 -->
<g id="node23" class="node"><title>FOXM1_TBL1XR1</title>
<a xlink:href="FOXM1_TBL1XR1.svg" xlink:title="Z&#45;value: 2.140||remove45">
<polygon fill="#4255ff" stroke="#4255ff" stroke-width="2" points="355.249,-79.2 282.249,-79.2 270.249,-67.2 270.249,-55.2 282.249,-43.2 355.249,-43.2 367.249,-55.2 367.249,-67.2 355.249,-79.2"/>
<path fill="#4255ff" stroke="#4255ff" stroke-width="2" d="M282.249,-79.2C276.249,-79.2 270.249,-73.2 270.249,-67.2"/>
<path fill="#4255ff" stroke="#4255ff" stroke-width="2" d="M270.249,-55.2C270.249,-49.2 276.249,-43.2 282.249,-43.2"/>
<path fill="#4255ff" stroke="#4255ff" stroke-width="2" d="M355.249,-43.2C361.249,-43.2 367.249,-49.2 367.249,-55.2"/>
<path fill="#4255ff" stroke="#4255ff" stroke-width="2" d="M367.249,-67.2C367.249,-73.2 361.249,-79.2 355.249,-79.2"/>
<polyline fill="none" stroke="white" stroke-width="2" points="355.249,-79.2 282.249,-79.2 "/>
<path fill="none" stroke="white" stroke-width="2" d="M282.249,-79.2C276.249,-79.2 270.249,-73.2 270.249,-67.2"/>
<polyline fill="none" stroke="white" stroke-width="2" points="270.249,-67.2 270.249,-55.2 "/>
<path fill="none" stroke="white" stroke-width="2" d="M270.249,-55.2C270.249,-49.2 276.249,-43.2 282.249,-43.2"/>
<polyline fill="none" stroke="white" stroke-width="2" points="282.249,-43.2 355.249,-43.2 "/>
<path fill="none" stroke="white" stroke-width="2" d="M355.249,-43.2C361.249,-43.2 367.249,-49.2 367.249,-55.2"/>
<polyline fill="none" stroke="white" stroke-width="2" points="367.249,-55.2 367.249,-67.2 "/>
<path fill="none" stroke="white" stroke-width="2" d="M367.249,-67.2C367.249,-73.2 361.249,-79.2 355.249,-79.2"/>
<text text-anchor="middle" x="318.749" y="-58.7" font-family="Helvetica,sans-Serif" font-size="10.00" fill="white">FOXM1_TBL1XR1</text>
</a>
</g>
<!-- ZNF711_TFAP2A_TFAP2D&#45;&gt;FOXM1_TBL1XR1 -->
<g id="edge24" class="edge"><title>ZNF711_TFAP2A_TFAP2D&#45;&gt;FOXM1_TBL1XR1</title>
<a xlink:title="TBL1XR1: 0.276||FOXM1: 0.007||TFAP2A: 0.004||remove45">
<path fill="none" stroke="#e4acff" stroke-width="3" d="M346.572,-197.511C340.412,-185.623 333.758,-171.119 329.669,-157.185 322.958,-134.197 320.033,-107.249 318.748,-87.7287"/>
<path fill="none" stroke="#eecbff" stroke-width="3" d="M348.348,-196.591C342.23,-184.789 335.576,-170.285 331.589,-156.624 324.946,-133.981 322.021,-107.033 320.744,-87.5975"/>
<polygon fill="#eecbff" stroke="#eecbff" points="345.153,-198.675 351.387,-204.417 350.094,-196.04 345.153,-198.675"/>
<polygon fill="#e4acff" stroke="#e4acff" points="322.534,-87.3703 319.279,-79.5445 316.943,-87.6922 322.534,-87.3703"/>
</a>
</g>
<!-- WT1_MTF1_ZBTB7B&#45;&gt;WT1_MTF1_ZBTB7B -->
<g id="edge120" class="edge"><title>WT1_MTF1_ZBTB7B&#45;&gt;WT1_MTF1_ZBTB7B</title>
<a xlink:title="ZBTB7B: 0.057||WT1: 0.024||remove10root">
<path fill="none" stroke="#ecc5ff" stroke-width="3" d="M374.137,-303.653C384.471,-302.864 391.749,-300.73 391.749,-297.249 391.749,-294.802 388.151,-293.02 382.422,-291.904"/>
<polygon fill="#ecc5ff" stroke="#ecc5ff" points="382.427,-289.082 374.137,-290.846 381.717,-294.637 382.427,-289.082"/>
</a>
</g>
<!-- WT1_MTF1_ZBTB7B&#45;&gt;SIX1_SIX3_SIX2 -->
<g id="edge122" class="edge"><title>WT1_MTF1_ZBTB7B&#45;&gt;SIX1_SIX3_SIX2</title>
<a xlink:title="SIX2: 0.010||SIX1: 0.005||WT1: 0.265||remove44root">
<path fill="none" stroke="#cad0ff" stroke-width="3" d="M294.096,-274.01C273.602,-253.516 244.254,-224.168 223.805,-203.72"/>
<path fill="none" stroke="#ffadad" stroke-width="3" d="M295.51,-272.596C275.016,-252.102 245.668,-222.754 225.22,-202.305"/>
<polygon fill="#ffadad" stroke="#ffadad" points="292.93,-275.39 300.567,-279.067 296.89,-271.43 292.93,-275.39"/>
<polygon fill="#cad0ff" stroke="#cad0ff" points="226.371,-200.911 218.734,-197.234 222.411,-204.871 226.371,-200.911"/>
</a>
</g>
<!-- WT1_MTF1_ZBTB7B&#45;&gt;PBX3 -->
<g id="edge126" class="edge"><title>WT1_MTF1_ZBTB7B&#45;&gt;PBX3</title>
<a xlink:title="PBX3: 0.187||remove40root">
<path fill="none" stroke="#e7b6ff" stroke-width="3" d="M269.773,-279.179C232.215,-263.234 181.234,-236.797 147.365,-200.105 117.019,-167.23 98.6359,-117.597 89.5945,-87.4146"/>
<polygon fill="#e7b6ff" stroke="#e7b6ff" points="92.2027,-86.3544 87.2899,-79.4475 86.8232,-87.9105 92.2027,-86.3544"/>
</a>
</g>
<!-- WT1_MTF1_ZBTB7B&#45;&gt;GATA3 -->
<g id="edge128" class="edge"><title>WT1_MTF1_ZBTB7B&#45;&gt;GATA3</title>
<a xlink:title="GATA3: 0.021||remove3root">
<path fill="none" stroke="#edc9ff" stroke-width="3" d="M303.286,-278.93C295.69,-268.991 287.081,-256.138 281.909,-243.305 254.386,-175.01 246.806,-87.298 244.718,-44.235"/>
<polygon fill="#edc9ff" stroke="#edc9ff" points="247.515,-44.1071 244.369,-36.2366 241.921,-44.351 247.515,-44.1071"/>
</a>
</g>
<!-- SP3 -->
<g id="node36" class="node"><title>SP3</title>
<a xlink:href="SP3.svg" xlink:title="Z&#45;value: 1.634||remove59">
<polygon fill="#6372ff" stroke="#6372ff" stroke-width="2" points="376.949,-154.025 346.949,-154.025 334.949,-142.025 334.949,-130.025 346.949,-118.025 376.949,-118.025 388.949,-130.025 388.949,-142.025 376.949,-154.025"/>
<path fill="#6372ff" stroke="#6372ff" stroke-width="2" d="M346.949,-154.025C340.949,-154.025 334.949,-148.025 334.949,-142.025"/>
<path fill="#6372ff" stroke="#6372ff" stroke-width="2" d="M334.949,-130.025C334.949,-124.025 340.949,-118.025 346.949,-118.025"/>
<path fill="#6372ff" stroke="#6372ff" stroke-width="2" d="M376.949,-118.025C382.949,-118.025 388.949,-124.025 388.949,-130.025"/>
<path fill="#6372ff" stroke="#6372ff" stroke-width="2" d="M388.949,-142.025C388.949,-148.025 382.949,-154.025 376.949,-154.025"/>
<polyline fill="none" stroke="white" stroke-width="2" points="376.949,-154.025 346.949,-154.025 "/>
<path fill="none" stroke="white" stroke-width="2" d="M346.949,-154.025C340.949,-154.025 334.949,-148.025 334.949,-142.025"/>
<polyline fill="none" stroke="white" stroke-width="2" points="334.949,-142.025 334.949,-130.025 "/>
<path fill="none" stroke="white" stroke-width="2" d="M334.949,-130.025C334.949,-124.025 340.949,-118.025 346.949,-118.025"/>
<polyline fill="none" stroke="white" stroke-width="2" points="346.949,-118.025 376.949,-118.025 "/>
<path fill="none" stroke="white" stroke-width="2" d="M376.949,-118.025C382.949,-118.025 388.949,-124.025 388.949,-130.025"/>
<polyline fill="none" stroke="white" stroke-width="2" points="388.949,-130.025 388.949,-142.025 "/>
<path fill="none" stroke="white" stroke-width="2" d="M388.949,-142.025C388.949,-148.025 382.949,-154.025 376.949,-154.025"/>
<text text-anchor="middle" x="361.949" y="-133.525" font-family="Helvetica,sans-Serif" font-size="10.00" fill="white">SP3</text>
</a>
</g>
<!-- WT1_MTF1_ZBTB7B&#45;&gt;SP3 -->
<g id="edge124" class="edge"><title>WT1_MTF1_ZBTB7B&#45;&gt;SP3</title>
<a xlink:title="SP3: 0.292||ZBTB7B: 0.237||WT1: 0.077||remove44">
<path fill="none" stroke="#e3aaff" stroke-width="3" d="M296.571,-273.219C290.277,-264.457 284.269,-254.243 280.954,-243.6 275.485,-225.893 273.017,-218.64 281.005,-201.116 290.75,-180.757 309.683,-164.816 326.852,-153.6"/>
<path fill="none" stroke="#e5b0ff" stroke-width="3" d="M298.195,-272.052C292.001,-263.443 285.993,-253.229 282.865,-243.009 277.378,-225.249 274.91,-217.996 282.813,-201.973 292.038,-182.287 310.971,-166.346 327.945,-155.275"/>
<polygon fill="#e5b0ff" stroke="#e5b0ff" points="295.329,-274.561 302.391,-279.248 299.793,-271.18 295.329,-274.561"/>
<polygon fill="#e3aaff" stroke="#e3aaff" points="329.267,-156.572 334.568,-149.958 326.299,-151.823 329.267,-156.572"/>
</a>
</g>
<!-- GTF2I&#45;&gt;WT1_MTF1_ZBTB7B -->
<g id="edge106" class="edge"><title>GTF2I&#45;&gt;WT1_MTF1_ZBTB7B</title>
<a xlink:title="ZBTB7B: 0.303||remove44">
<path fill="none" stroke="#e3a9ff" stroke-width="3" d="M270.938,-324.853C274.036,-323.065 277.237,-321.216 280.446,-319.363"/>
<polygon fill="#e3a9ff" stroke="#e3a9ff" points="281.922,-321.745 287.45,-315.32 279.122,-316.895 281.922,-321.745"/>
</a>
</g>
<!-- GTF2I&#45;&gt;E2F7_E2F1 -->
<g id="edge108" class="edge"><title>GTF2I&#45;&gt;E2F7_E2F1</title>
<a xlink:title="E2F7: 0.087||remove25root">
<path fill="none" stroke="#ebc2ff" stroke-width="3" d="M216.587,-340.449C211.272,-340.449 205.586,-340.449 199.918,-340.449"/>
<polygon fill="#ebc2ff" stroke="#ebc2ff" points="199.672,-337.649 191.672,-340.449 199.672,-343.249 199.672,-337.649"/>
</a>
</g>
<!-- GTF2I&#45;&gt;SIX1_SIX3_SIX2 -->
<g id="edge110" class="edge"><title>GTF2I&#45;&gt;SIX1_SIX3_SIX2</title>
<a xlink:title="SIX3: 0.710||remove56root">
<path fill="none" stroke="#7a87ff" stroke-width="3" d="M239.053,-322.268C231.404,-293.723 216.545,-238.267 207.744,-205.42"/>
<polygon fill="#7a87ff" stroke="#7a87ff" points="210.42,-204.589 205.645,-197.587 205.011,-206.039 210.42,-204.589"/>
</a>
</g>
<!-- GTF2I&#45;&gt;PBX3 -->
<g id="edge114" class="edge"><title>GTF2I&#45;&gt;PBX3</title>
<a xlink:title="PBX3: 0.040||remove5root">
<path fill="none" stroke="#edc7ff" stroke-width="3" d="M229.769,-322.032C209.964,-295.808 173.484,-245.812 147.365,-200.105 125.529,-161.894 104.909,-115.057 93.0527,-86.7021"/>
<polygon fill="#edc7ff" stroke="#edc7ff" points="95.5994,-85.5336 89.9475,-79.2173 90.4269,-87.6796 95.5994,-85.5336"/>
</a>
</g>
<!-- GTF2I&#45;&gt;SP3 -->
<g id="edge112" class="edge"><title>GTF2I&#45;&gt;SP3</title>
<a xlink:title="SP3: 0.404||GTF2I: 0.022||remove49root">
<path fill="none" stroke="#df9dff" stroke-width="3" d="M244.756,-313.745C247.969,-283.868 256.773,-235.287 281.095,-200.965 293.565,-183.502 311.556,-168.219 327.427,-156.721"/>
<path fill="none" stroke="#edc9ff" stroke-width="3" d="M246.744,-313.959C249.937,-284.225 258.741,-235.644 282.724,-202.125 294.86,-185.027 312.851,-169.743 328.6,-158.341"/>
<polygon fill="#edc9ff" stroke="#edc9ff" points="242.936,-313.866 244.956,-322.098 248.51,-314.403 242.936,-313.866"/>
<polygon fill="#df9dff" stroke="#df9dff" points="329.708,-159.763 334.633,-152.864 326.481,-155.186 329.708,-159.763"/>
</a>
</g>
<!-- E2F7_E2F1&#45;&gt;WT1_MTF1_ZBTB7B -->
<g id="edge70" class="edge"><title>E2F7_E2F1&#45;&gt;WT1_MTF1_ZBTB7B</title>
<a xlink:title="ZBTB7B: 0.080||E2F1: 0.063||remove20root">
<path fill="none" stroke="#ebc2ff" stroke-width="3" d="M199.147,-322.837C203.568,-321.312 208.002,-319.875 212.324,-318.609 225.966,-314.617 240.739,-311.048 254.844,-307.988"/>
<path fill="none" stroke="#ecc4ff" stroke-width="3" d="M199.8,-324.728C204.184,-323.215 208.619,-321.778 212.886,-320.529 226.436,-316.561 241.208,-312.992 255.268,-309.942"/>
<polygon fill="#ecc4ff" stroke="#ecc4ff" points="198.216,-321.258 191.622,-326.584 200.098,-326.533 198.216,-321.258"/>
<polygon fill="#ebc2ff" stroke="#ebc2ff" points="256.009,-311.625 263.254,-307.226 254.848,-306.147 256.009,-311.625"/>
</a>
</g>
<!-- E2F7_E2F1&#45;&gt;E2F7_E2F1 -->
<g id="edge72" class="edge"><title>E2F7_E2F1&#45;&gt;E2F7_E2F1</title>
<a xlink:title="E2F7: 1.052||remove48">
<path fill="none" stroke="#c853ff" stroke-width="3" d="M191.533,-347.184C201.651,-346.983 209.525,-344.738 209.525,-340.449 209.525,-337.433 205.632,-335.428 199.804,-334.434"/>
<polygon fill="#c853ff" stroke="#c853ff" points="199.746,-331.618 191.533,-333.714 199.26,-337.197 199.746,-331.618"/>
</a>
</g>
<!-- E2F7_E2F1&#45;&gt;SIX1_SIX3_SIX2 -->
<g id="edge74" class="edge"><title>E2F7_E2F1&#45;&gt;SIX1_SIX3_SIX2</title>
<a xlink:title="SIX3: 0.382||remove48root">
<path fill="none" stroke="#a0a9ff" stroke-width="3" d="M162.396,-322.268C170.045,-293.723 184.904,-238.267 193.706,-205.42"/>
<polygon fill="#a0a9ff" stroke="#a0a9ff" points="196.438,-206.039 195.805,-197.587 191.029,-204.589 196.438,-206.039"/>
</a>
</g>
<!-- E2F7_E2F1&#45;&gt;SP4_PML -->
<g id="edge76" class="edge"><title>E2F7_E2F1&#45;&gt;SP4_PML</title>
<a xlink:title="PML: 0.082||E2F1: 0.131||remove33root">
<path fill="none" stroke="#ebc2ff" stroke-width="3" d="M145.118,-315.355C139.662,-303.536 132.926,-289.35 126.471,-276.827 108.987,-242.907 104.721,-234.285 84.4733,-202.077 75.8545,-188.361 65.5379,-173.489 56.8928,-161.408"/>
<path fill="none" stroke="#e9bcff" stroke-width="3" d="M146.934,-314.516C141.469,-302.678 134.733,-288.492 128.249,-275.911 110.78,-242.02 106.513,-233.398 86.1667,-201.012 77.4978,-187.221 67.1812,-172.349 58.5193,-160.244"/>
<polygon fill="#e9bcff" stroke="#e9bcff" points="143.536,-316.222 149.415,-322.327 148.626,-313.888 143.536,-316.222"/>
<polygon fill="#ebc2ff" stroke="#ebc2ff" points="59.7769,-158.91 52.8284,-154.057 55.2334,-162.184 59.7769,-158.91"/>
</a>
</g>
<!-- E2F7_E2F1&#45;&gt;PBX3 -->
<g id="edge78" class="edge"><title>E2F7_E2F1&#45;&gt;PBX3</title>
<a xlink:title="PBX3: 0.078||remove19root">
<path fill="none" stroke="#ebc3ff" stroke-width="3" d="M152.615,-322.127C139.688,-273.884 104.678,-143.223 89.6766,-87.2371"/>
<polygon fill="#ebc3ff" stroke="#ebc3ff" points="92.3055,-86.2294 87.5303,-79.2268 86.8963,-87.6789 92.3055,-86.2294"/>
</a>
</g>
<!-- E2F7_E2F1&#45;&gt;TFDP1 -->
<g id="edge80" class="edge"><title>E2F7_E2F1&#45;&gt;TFDP1</title>
<a xlink:title="TFDP1: 0.003||E2F1: 0.066||remove14root">
<path fill="none" stroke="#eecbff" stroke-width="3" d="M153.531,-314.123C149.859,-278.685 144.365,-213.855 146.365,-158.308 147.807,-118.44 151.538,-72.3836 154.056,-44.1992"/>
<path fill="none" stroke="#ecc4ff" stroke-width="3" d="M155.52,-313.917C151.852,-278.516 146.357,-213.686 148.364,-158.381 149.801,-118.601 153.531,-72.5451 156.048,-44.3771"/>
<polygon fill="#ecc4ff" stroke="#ecc4ff" points="151.783,-314.708 155.413,-322.367 157.351,-314.116 151.783,-314.708"/>
<polygon fill="#eecbff" stroke="#eecbff" points="157.856,-44.3647 155.79,-36.1446 152.279,-43.859 157.856,-44.3647"/>
</a>
</g>
<!-- AHR_ARNT2&#45;&gt;WT1_MTF1_ZBTB7B -->
<g id="edge26" class="edge"><title>AHR_ARNT2&#45;&gt;WT1_MTF1_ZBTB7B</title>
<a xlink:title="WT1: 0.026||ARNT2: 0.051||AHR: 0.011||remove7root">
<path fill="none" stroke="#edc9ff" stroke-width="3" d="M129.581,-296.249C165.457,-296.249 215.324,-296.249 254.852,-296.249"/>
<path fill="none" stroke="#ecc6ff" stroke-width="3" d="M129.581,-298.249C165.457,-298.249 215.324,-298.249 254.852,-298.249"/>
<polygon fill="#ecc6ff" stroke="#ecc6ff" points="129.151,-294.449 121.151,-297.249 129.151,-300.049 129.151,-294.449"/>
<polygon fill="#edc9ff" stroke="#edc9ff" points="255.121,-300.049 263.121,-297.249 255.121,-294.449 255.121,-300.049"/>
</a>
</g>
<!-- AHR_ARNT2&#45;&gt;GTF2I -->
<g id="edge28" class="edge"><title>AHR_ARNT2&#45;&gt;GTF2I</title>
<a xlink:title="GTF2I: 0.035||remove4root">
<path fill="none" stroke="#edc7ff" stroke-width="3" d="M121.065,-302.528C143.502,-306.161 172.195,-311.754 196.965,-319.569 200.905,-320.813 204.957,-322.289 208.951,-323.875"/>
<polygon fill="#edc7ff" stroke="#edc7ff" points="208.053,-326.534 216.515,-327.024 210.205,-321.364 208.053,-326.534"/>
</a>
</g>
<!-- AHR_ARNT2&#45;&gt;SIX1_SIX3_SIX2 -->
<g id="edge30" class="edge"><title>AHR_ARNT2&#45;&gt;SIX1_SIX3_SIX2</title>
<a xlink:title="SIX2: 0.263||ARNT2: 0.052||remove43root">
<path fill="none" stroke="#adb5ff" stroke-width="3" d="M105.939,-272.596C126.433,-252.102 155.781,-222.754 176.23,-202.305"/>
<path fill="none" stroke="#ffc6c6" stroke-width="3" d="M107.353,-274.01C127.848,-253.516 157.195,-224.168 177.644,-203.72"/>
<polygon fill="#ffc6c6" stroke="#ffc6c6" points="104.56,-271.43 100.883,-279.067 108.519,-275.39 104.56,-271.43"/>
<polygon fill="#adb5ff" stroke="#adb5ff" points="179.038,-204.871 182.715,-197.234 175.078,-200.911 179.038,-204.871"/>
</a>
</g>
<!-- AHR_ARNT2&#45;&gt;SIN3A_CHD1 -->
<g id="edge32" class="edge"><title>AHR_ARNT2&#45;&gt;SIN3A_CHD1</title>
<a xlink:title="SIN3A: 0.085||remove23root">
<path fill="none" stroke="#ebc2ff" stroke-width="3" d="M72.2425,-279.136C66.8171,-269.739 60.1003,-258.105 54.165,-247.825"/>
<polygon fill="#ebc2ff" stroke="#ebc2ff" points="56.4359,-246.158 50.0109,-240.63 51.5861,-248.958 56.4359,-246.158"/>
</a>
</g>
<!-- AHR_ARNT2&#45;&gt;TFDP1 -->
<g id="edge34" class="edge"><title>AHR_ARNT2&#45;&gt;TFDP1</title>
<a xlink:title="TFDP1: 0.012||AHR: 0.009||remove2root">
<path fill="none" stroke="#eecaff" stroke-width="3" d="M88.8032,-270.608C103.12,-217.176 135.388,-96.7494 149.607,-43.6854"/>
<path fill="none" stroke="#eecaff" stroke-width="3" d="M90.735,-271.126C105.052,-217.693 137.32,-97.267 151.539,-44.2031"/>
<polygon fill="#eecaff" stroke="#eecaff" points="86.9755,-270.475 87.6095,-278.927 92.3847,-271.924 86.9755,-270.475"/>
<polygon fill="#eecaff" stroke="#eecaff" points="153.328,-44.4789 152.694,-36.0268 147.919,-43.0294 153.328,-44.4789"/>
</a>
</g>
<!-- AHR_ARNT2&#45;&gt;FOXM1_TBL1XR1 -->
<g id="edge36" class="edge"><title>AHR_ARNT2&#45;&gt;FOXM1_TBL1XR1</title>
<a xlink:title="TBL1XR1: 0.054||ARNT2: 0.022||remove9root">
<path fill="none" stroke="#ecc5ff" stroke-width="3" d="M88.6366,-270.748C97.6981,-240.505 116.082,-190.872 146.63,-157.666 178.616,-123.093 225.361,-97.7195 262.094,-81.5049"/>
<path fill="none" stroke="#edc9ff" stroke-width="3" d="M90.5524,-271.322C99.5736,-241.2 117.957,-191.566 148.099,-159.023 179.57,-124.85 226.315,-99.4772 262.902,-83.3346"/>
<polygon fill="#edc9ff" stroke="#edc9ff" points="86.8232,-270.539 87.2899,-279.002 92.2027,-272.095 86.8232,-270.539"/>
<polygon fill="#ecc5ff" stroke="#ecc5ff" points="263.927,-84.8524 270.159,-79.107 261.705,-79.7124 263.927,-84.8524"/>
</a>
</g>
<!-- SIN3A_CHD1&#45;&gt;WT1_MTF1_ZBTB7B -->
<g id="edge38" class="edge"><title>SIN3A_CHD1&#45;&gt;WT1_MTF1_ZBTB7B</title>
<a xlink:title="ZBTB7B: 0.162||WT1: 0.011||remove37root">
<path fill="none" stroke="#e8b9ff" stroke-width="3" d="M78.9173,-232.986C124.843,-245.292 201.341,-265.79 255.581,-280.323"/>
<polygon fill="#e8b9ff" stroke="#e8b9ff" points="254.964,-283.057 263.416,-282.423 256.414,-277.648 254.964,-283.057"/>
</a>
</g>
<!-- SIN3A_CHD1&#45;&gt;GTF2I -->
<g id="edge40" class="edge"><title>SIN3A_CHD1&#45;&gt;GTF2I</title>
<a xlink:title="GTF2I: 0.061||SIN3A: 0.139||remove34root">
<path fill="none" stroke="#ecc4ff" stroke-width="3" d="M78.5287,-243.803C116.446,-265.695 173.8,-298.808 210.168,-319.805"/>
<path fill="none" stroke="#e9bcff" stroke-width="3" d="M77.5287,-245.535C115.446,-267.427 172.8,-300.54 209.168,-321.537"/>
<polygon fill="#e9bcff" stroke="#e9bcff" points="79.3216,-242.182 70.9933,-240.607 76.5215,-247.032 79.3216,-242.182"/>
<polygon fill="#ecc4ff" stroke="#ecc4ff" points="208.322,-323.127 216.65,-324.702 211.122,-318.277 208.322,-323.127"/>
</a>
</g>
<!-- SIN3A_CHD1&#45;&gt;E2F7_E2F1 -->
<g id="edge42" class="edge"><title>SIN3A_CHD1&#45;&gt;E2F7_E2F1</title>
<a xlink:title="E2F7: 0.074||SIN3A: 0.033||remove17root">
<path fill="none" stroke="#ebc3ff" stroke-width="3" d="M86.5208,-243.366C101.179,-251.906 116.448,-262.716 128.105,-275.702 138.011,-286.825 145.213,-301.429 150.162,-314.02"/>
<path fill="none" stroke="#edc8ff" stroke-width="3" d="M85.5143,-245.094C100.023,-253.539 115.293,-264.348 126.615,-277.036 136.217,-287.709 143.419,-302.314 148.301,-314.751"/>
<polygon fill="#edc8ff" stroke="#edc8ff" points="87.2792,-241.727 78.9333,-240.249 84.5355,-246.609 87.2792,-241.727"/>
<polygon fill="#ebc3ff" stroke="#ebc3ff" points="146.737,-315.713 152.136,-322.248 151.99,-313.773 146.737,-315.713"/>
</a>
</g>
<!-- SIN3A_CHD1&#45;&gt;SIX1_SIX3_SIX2 -->
<g id="edge44" class="edge"><title>SIN3A_CHD1&#45;&gt;SIX1_SIX3_SIX2</title>
<a xlink:title="SIX3: 0.571||remove52root">
<path fill="none" stroke="#8a96ff" stroke-width="3" d="M78.94,-211.857C99.2816,-206.406 124.404,-199.675 146.538,-193.744"/>
<polygon fill="#8a96ff" stroke="#8a96ff" points="147.541,-196.374 154.543,-191.599 146.091,-190.965 147.541,-196.374"/>
</a>
</g>
<!-- SIN3A_CHD1&#45;&gt;SIN3A_CHD1 -->
<g id="edge46" class="edge"><title>SIN3A_CHD1&#45;&gt;SIN3A_CHD1</title>
<a xlink:title="CHD1: 0.054||remove8root">
<path fill="none" stroke="#ecc5ff" stroke-width="3" d="M78.9269,-229.094C88.9645,-228.655 96.5,-226.432 96.5,-222.425 96.5,-219.607 92.7746,-217.671 87.0734,-216.618"/>
<polygon fill="#ecc5ff" stroke="#ecc5ff" points="87.1772,-213.813 78.9269,-215.755 86.5877,-219.382 87.1772,-213.813"/>
</a>
</g>
<!-- SIN3A_CHD1&#45;&gt;PBX3 -->
<g id="edge50" class="edge"><title>SIN3A_CHD1&#45;&gt;PBX3</title>
<a xlink:title="PBX3: 0.664||remove52">
<path fill="none" stroke="#d67fff" stroke-width="3" d="M51.8879,-204.397C59.9226,-191.711 69.8073,-174.008 74.88,-156.905 81.652,-134.072 83.3011,-106.919 83.436,-87.3777"/>
<polygon fill="#d67fff" stroke="#d67fff" points="86.2356,-87.2316 83.4081,-79.2412 80.6356,-87.2508 86.2356,-87.2316"/>
</a>
</g>
<!-- SIN3A_CHD1&#45;&gt;SP3 -->
<g id="edge48" class="edge"><title>SIN3A_CHD1&#45;&gt;SP3</title>
<a xlink:title="SP3: 1.334||SIN3A: 0.230||remove52">
<path fill="none" stroke="#bd32ff" stroke-width="3" d="M87.1896,-222.273C131.455,-221.719 198.739,-217.417 253.77,-199.155 281.616,-189.96 310.228,-172.52 330.88,-158.21"/>
<path fill="none" stroke="#e6b1ff" stroke-width="3" d="M87.2147,-224.272C131.582,-223.715 198.867,-219.413 254.399,-201.054 282.656,-191.667 311.269,-174.228 332.019,-159.854"/>
<polygon fill="#e6b1ff" stroke="#e6b1ff" points="86.9076,-220.475 78.9293,-223.336 86.9506,-226.074 86.9076,-220.475"/>
<polygon fill="#bd32ff" stroke="#bd32ff" points="333.231,-161.202 338.154,-154.303 330.003,-156.625 333.231,-161.202"/>
</a>
</g>
<!-- SP4_PML&#45;&gt;WT1_MTF1_ZBTB7B -->
<g id="edge82" class="edge"><title>SP4_PML&#45;&gt;WT1_MTF1_ZBTB7B</title>
<a xlink:title="ZBTB7B: 0.123||MTF1: 0.012||remove31root">
<path fill="none" stroke="#eabdff" stroke-width="3" d="M69.6245,-154.144C91.2034,-167.068 120.99,-184.798 147.365,-200.105 192.379,-226.23 244.437,-255.622 279.258,-275.166"/>
<polygon fill="#eabdff" stroke="#eabdff" points="278.071,-277.71 286.418,-279.182 280.811,-272.826 278.071,-277.71"/>
</a>
</g>
<!-- SP4_PML&#45;&gt;GTF2I -->
<g id="edge84" class="edge"><title>SP4_PML&#45;&gt;GTF2I</title>
<a xlink:title="GTF2I: 0.142||SP4: 0.120||remove35root">
<path fill="none" stroke="#e9bbff" stroke-width="3" d="M64.1347,-159.245C103.423,-198.533 181.163,-276.273 220.551,-315.661"/>
<path fill="none" stroke="#eabeff" stroke-width="3" d="M62.7205,-160.659C102.008,-199.947 179.749,-277.688 219.136,-317.075"/>
<polygon fill="#eabeff" stroke="#eabeff" points="65.2781,-157.843 57.6413,-154.166 61.3183,-161.803 65.2781,-157.843"/>
<polygon fill="#e9bbff" stroke="#e9bbff" points="218.187,-318.672 225.824,-322.349 222.147,-314.712 218.187,-318.672"/>
</a>
</g>
<!-- SP4_PML&#45;&gt;AHR_ARNT2 -->
<g id="edge86" class="edge"><title>SP4_PML&#45;&gt;AHR_ARNT2</title>
<a xlink:title="ARNT2: 0.798||remove43">
<path fill="none" stroke="#d170ff" stroke-width="3" d="M56.7595,-154.121C67.2561,-166.428 79.6904,-183.671 85.32,-201.545 92.4857,-224.295 90.7948,-251.611 87.9247,-271.227"/>
<polygon fill="#d170ff" stroke="#d170ff" points="85.1605,-270.781 86.6449,-279.126 90.6884,-271.677 85.1605,-270.781"/>
</a>
</g>
<!-- SP4_PML&#45;&gt;SIX1_SIX3_SIX2 -->
<g id="edge88" class="edge"><title>SP4_PML&#45;&gt;SIX1_SIX3_SIX2</title>
<a xlink:title="SIX2: 0.761||SIX1: 0.029||remove57root">
<path fill="none" stroke="#7482ff" stroke-width="3" d="M69.8251,-144.15C91.4833,-149.953 121.205,-157.917 146.853,-164.79"/>
<polygon fill="#7482ff" stroke="#7482ff" points="146.217,-167.518 154.669,-166.884 147.666,-162.109 146.217,-167.518"/>
</a>
</g>
<!-- SP4_PML&#45;&gt;SIN3A_CHD1 -->
<g id="edge90" class="edge"><title>SP4_PML&#45;&gt;SIN3A_CHD1</title>
<a xlink:title="SIN3A: 0.124||remove32root">
<path fill="none" stroke="#eabdff" stroke-width="3" d="M39.5,-154.348C39.5,-166.572 39.5,-182.828 39.5,-196.389"/>
<polygon fill="#eabdff" stroke="#eabdff" points="36.7001,-196.424 39.5,-204.424 42.3001,-196.424 36.7001,-196.424"/>
</a>
</g>
<!-- SP4_PML&#45;&gt;SP4_PML -->
<g id="edge92" class="edge"><title>SP4_PML&#45;&gt;SP4_PML</title>
<a xlink:title="SP4: 0.061||remove11root">
<path fill="none" stroke="#ecc5ff" stroke-width="3" d="M69.9673,-142.773C79.748,-142.704 87.5,-140.454 87.5,-136.025 87.5,-132.91 83.6676,-130.873 77.9921,-129.914"/>
<polygon fill="#ecc5ff" stroke="#ecc5ff" points="78.1641,-127.119 69.9673,-129.276 77.7201,-132.702 78.1641,-127.119"/>
</a>
</g>
<!-- SP4_PML&#45;&gt;TFDP1 -->
<g id="edge94" class="edge"><title>SP4_PML&#45;&gt;TFDP1</title>
<a xlink:title="TFDP1: 0.310||remove46root">
<path fill="none" stroke="#e3a8ff" stroke-width="3" d="M69.3119,-117.932C83.7519,-108.336 100.785,-95.7204 114.02,-82.08 125.292,-70.4633 135.582,-55.603 143.322,-43.1181"/>
<polygon fill="#e3a8ff" stroke="#e3a8ff" points="145.831,-44.3792 147.572,-36.0841 141.038,-41.483 145.831,-44.3792"/>
</a>
</g>
<!-- SP4_PML&#45;&gt;GATA3 -->
<g id="edge96" class="edge"><title>SP4_PML&#45;&gt;GATA3</title>
<a xlink:title="GATA3: 0.109||remove29root">
<path fill="none" stroke="#eabfff" stroke-width="3" d="M70.1044,-118.355C107.538,-96.7429 170.723,-60.2632 209.723,-37.7465"/>
<polygon fill="#eabfff" stroke="#eabfff" points="211.184,-40.1363 216.712,-33.7113 208.384,-35.2865 211.184,-40.1363"/>
</a>
</g>
<!-- PBX3&#45;&gt;SIX1_SIX3_SIX2 -->
<g id="edge116" class="edge"><title>PBX3&#45;&gt;SIX1_SIX3_SIX2</title>
<a xlink:title="SIX2: 0.707||remove55root">
<path fill="none" stroke="#7a88ff" stroke-width="3" d="M100.883,-79.3827C121.302,-99.8017 154.513,-133.013 176.969,-155.469"/>
<polygon fill="#7a88ff" stroke="#7a88ff" points="175.078,-157.538 182.715,-161.215 179.038,-153.578 175.078,-157.538"/>
</a>
</g>
<!-- PBX3&#45;&gt;SP4_PML -->
<g id="edge118" class="edge"><title>PBX3&#45;&gt;SP4_PML</title>
<a xlink:title="SP4: 0.065||remove13root">
<path fill="none" stroke="#ecc4ff" stroke-width="3" d="M72.2425,-79.3129C66.8171,-88.7099 60.1003,-100.344 54.165,-110.624"/>
<polygon fill="#ecc4ff" stroke="#ecc4ff" points="51.5861,-109.491 50.0109,-117.819 56.4359,-112.291 51.5861,-109.491"/>
</a>
</g>
<!-- TFDP1&#45;&gt;SIX1_SIX3_SIX2 -->
<g id="edge98" class="edge"><title>TFDP1&#45;&gt;SIX1_SIX3_SIX2</title>
<a xlink:title="SIX2: 0.435||remove50root">
<path fill="none" stroke="#9aa4ff" stroke-width="3" d="M162.396,-36.1811C170.045,-64.7264 184.904,-120.183 193.706,-153.029"/>
<polygon fill="#9aa4ff" stroke="#9aa4ff" points="191.029,-153.86 195.805,-160.863 196.438,-152.41 191.029,-153.86"/>
</a>
</g>
<!-- TFDP1&#45;&gt;SIN3A_CHD1 -->
<g id="edge100" class="edge"><title>TFDP1&#45;&gt;SIN3A_CHD1</title>
<a xlink:title="SIN3A: 0.009||remove1root">
<path fill="none" stroke="#eecaff" stroke-width="3" d="M147.051,-36.1413C125.922,-72.7371 78.1583,-155.466 54.03,-197.258"/>
<polygon fill="#eecaff" stroke="#eecaff" points="51.5256,-195.996 49.9504,-204.324 56.3753,-198.796 51.5256,-195.996"/>
</a>
</g>
<!-- TFDP1&#45;&gt;TFDP1 -->
<g id="edge102" class="edge"><title>TFDP1&#45;&gt;TFDP1</title>
<a xlink:title="TFDP1: 0.077||remove18root">
<path fill="none" stroke="#ebc3ff" stroke-width="3" d="M184.765,-24.7434C194.549,-24.8884 202.525,-22.6406 202.525,-18 202.525,-14.7371 198.581,-12.6571 192.839,-11.7601"/>
<polygon fill="#ebc3ff" stroke="#ebc3ff" points="192.924,-8.96005 184.765,-11.2566 192.576,-14.5492 192.924,-8.96005"/>
</a>
</g>
<!-- TFDP1&#45;&gt;GATA3 -->
<g id="edge104" class="edge"><title>TFDP1&#45;&gt;GATA3</title>
<a xlink:title="GATA3: 0.121||remove30root">
<path fill="none" stroke="#eabeff" stroke-width="3" d="M184.862,-18C192.421,-18 200.732,-18 208.672,-18"/>
<polygon fill="#eabeff" stroke="#eabeff" points="208.765,-20.8001 216.765,-18 208.765,-15.2001 208.765,-20.8001"/>
</a>
</g>
<!-- GATA3&#45;&gt;SIX1_SIX3_SIX2 -->
<g id="edge68" class="edge"><title>GATA3&#45;&gt;SIX1_SIX3_SIX2</title>
<a xlink:title="SIX1: 0.658||remove53root">
<path fill="none" stroke="#808dff" stroke-width="3" d="M239.053,-36.1811C231.404,-64.7264 216.545,-120.183 207.744,-153.029"/>
<polygon fill="#808dff" stroke="#808dff" points="205.011,-152.41 205.645,-160.863 210.42,-153.86 205.011,-152.41"/>
</a>
</g>
<!-- FOXM1_TBL1XR1&#45;&gt;WT1_MTF1_ZBTB7B -->
<g id="edge52" class="edge"><title>FOXM1_TBL1XR1&#45;&gt;WT1_MTF1_ZBTB7B</title>
<a xlink:title="ZBTB7B: 0.029||TBL1XR1: 0.087||remove24root">
<path fill="none" stroke="#edc8ff" stroke-width="3" d="M306.513,-87.2936C290.089,-122.847 265.989,-189.064 282.865,-243.009 285.993,-253.229 292.001,-263.443 298.195,-272.052"/>
<path fill="none" stroke="#ebc2ff" stroke-width="3" d="M304.697,-86.455C288.21,-122.162 264.11,-188.38 280.954,-243.6 284.269,-254.243 290.277,-264.457 296.571,-273.219"/>
<polygon fill="#ebc2ff" stroke="#ebc2ff" points="308.284,-87.7609 309.187,-79.3333 303.225,-85.3585 308.284,-87.7609"/>
<polygon fill="#edc8ff" stroke="#edc8ff" points="295.329,-274.561 302.391,-279.248 299.793,-271.18 295.329,-274.561"/>
</a>
</g>
<!-- FOXM1_TBL1XR1&#45;&gt;GTF2I -->
<g id="edge54" class="edge"><title>FOXM1_TBL1XR1&#45;&gt;GTF2I</title>
<a xlink:title="GTF2I: 0.068||remove15root">
<path fill="none" stroke="#ecc4ff" stroke-width="3" d="M312.429,-79.407C299.848,-116.212 271.418,-202.271 254.369,-276.369 251.522,-288.744 249.158,-302.637 247.403,-314.316"/>
<polygon fill="#ecc4ff" stroke="#ecc4ff" points="244.612,-314.055 246.235,-322.374 250.154,-314.859 244.612,-314.055"/>
</a>
</g>
<!-- FOXM1_TBL1XR1&#45;&gt;SIX1_SIX3_SIX2 -->
<g id="edge56" class="edge"><title>FOXM1_TBL1XR1&#45;&gt;SIX1_SIX3_SIX2</title>
<a xlink:title="SIX3: 0.267||SIX1: 0.076||remove45root">
<path fill="none" stroke="#adb5ff" stroke-width="3" d="M300.567,-79.3827C280.148,-99.8017 246.937,-133.013 224.48,-155.469"/>
<polygon fill="#adb5ff" stroke="#adb5ff" points="222.411,-153.578 218.734,-161.215 226.371,-157.538 222.411,-153.578"/>
</a>
</g>
<!-- FOXM1_TBL1XR1&#45;&gt;SIN3A_CHD1 -->
<g id="edge58" class="edge"><title>FOXM1_TBL1XR1&#45;&gt;SIN3A_CHD1</title>
<a xlink:title="CHD1: 0.041||remove6root">
<path fill="none" stroke="#edc7ff" stroke-width="3" d="M286.418,-79.2674C251.878,-98.6294 195.581,-130.361 147.365,-158.345 123.772,-172.037 97.4486,-187.668 76.7125,-200.064"/>
<polygon fill="#edc7ff" stroke="#edc7ff" points="75.0516,-197.795 69.6245,-204.306 77.9271,-202.6 75.0516,-197.795"/>
</a>
</g>
<!-- FOXM1_TBL1XR1&#45;&gt;SP4_PML -->
<g id="edge60" class="edge"><title>FOXM1_TBL1XR1&#45;&gt;SP4_PML</title>
<a xlink:title="PML: 0.279||TBL1XR1: 0.555||FOXM1: 0.102||remove45">
<path fill="none" stroke="#e4acff" stroke-width="3" d="M262.381,-77.339C207.499,-92.0448 125.759,-113.947 78.1006,-126.717"/>
<path fill="none" stroke="#da8cff" stroke-width="3" d="M261.864,-75.4072C206.981,-90.1129 125.242,-112.015 77.583,-124.785"/>
<polygon fill="#da8cff" stroke="#da8cff" points="263.105,-79.0087 270.108,-74.2335 261.656,-73.5995 263.105,-79.0087"/>
<polygon fill="#e4acff" stroke="#e4acff" points="76.9272,-123.097 69.9245,-127.872 78.3766,-128.506 76.9272,-123.097"/>
</a>
</g>
<!-- FOXM1_TBL1XR1&#45;&gt;PBX3 -->
<g id="edge64" class="edge"><title>FOXM1_TBL1XR1&#45;&gt;PBX3</title>
<a xlink:title="PBX3: 0.004||remove0root">
<path fill="none" stroke="#eecbff" stroke-width="3" d="M270.126,-61.2C224.892,-61.2 158.565,-61.2 118.143,-61.2"/>
<polygon fill="#eecbff" stroke="#eecbff" points="117.928,-58.4001 109.928,-61.2 117.928,-64.0001 117.928,-58.4001"/>
</a>
</g>
<!-- FOXM1_TBL1XR1&#45;&gt;TFDP1 -->
<g id="edge66" class="edge"><title>FOXM1_TBL1XR1&#45;&gt;TFDP1</title>
<a xlink:title="TFDP1: 0.081||remove21root">
<path fill="none" stroke="#ebc2ff" stroke-width="3" d="M270.007,-52.5986C251.835,-48.9617 231.129,-44.3032 212.605,-38.88 205.974,-36.9387 199.006,-34.5678 192.342,-32.1292"/>
<polygon fill="#ebc2ff" stroke="#ebc2ff" points="193.17,-29.4492 184.696,-29.2571 191.201,-34.6915 193.17,-29.4492"/>
</a>
</g>
<!-- FOXM1_TBL1XR1&#45;&gt;SP3 -->
<g id="edge62" class="edge"><title>FOXM1_TBL1XR1&#45;&gt;SP3</title>
<a xlink:title="SP3: 0.266||TBL1XR1: 0.644||remove45">
<path fill="none" stroke="#e4adff" stroke-width="3" d="M334.222,-85.9994C338.762,-93.8634 343.765,-102.528 348.299,-110.381"/>
<path fill="none" stroke="#d782ff" stroke-width="3" d="M332.49,-86.9994C337.03,-94.8634 342.032,-103.528 346.567,-111.381"/>
<polygon fill="#d782ff" stroke="#d782ff" points="335.632,-84.8411 329.207,-79.3129 330.782,-87.6412 335.632,-84.8411"/>
<polygon fill="#e4adff" stroke="#e4adff" points="345.013,-112.291 351.438,-117.819 349.863,-109.491 345.013,-112.291"/>
</a>
</g>
<!-- SP3&#45;&gt;ZNF711_TFAP2A_TFAP2D -->
<g id="edge136" class="edge"><title>SP3&#45;&gt;ZNF711_TFAP2A_TFAP2D</title>
<a xlink:title="TFAP2A: 0.666||ZNF711: 0.060||remove54root">
<path fill="none" stroke="#d67fff" stroke-width="3" d="M361.949,-154.348C361.949,-166.572 361.949,-182.828 361.949,-196.389"/>
<polygon fill="#d67fff" stroke="#d67fff" points="359.149,-196.424 361.949,-204.424 364.749,-196.424 359.149,-196.424"/>
</a>
</g>
<!-- SP3&#45;&gt;E2F7_E2F1 -->
<g id="edge130" class="edge"><title>SP3&#45;&gt;E2F7_E2F1</title>
<a xlink:title="E2F1: 0.360||E2F7: 0.213||remove47root">
<path fill="none" stroke="#e1a2ff" stroke-width="3" d="M338.024,-154.034C321.676,-166.713 299.817,-184.414 281.909,-201.545 242.713,-239.041 201.537,-286.963 177.767,-315.597"/>
<polygon fill="#e1a2ff" stroke="#e1a2ff" points="175.333,-314.147 172.395,-322.097 179.65,-317.714 175.333,-314.147"/>
</a>
</g>
<!-- SP3&#45;&gt;AHR_ARNT2 -->
<g id="edge132" class="edge"><title>SP3&#45;&gt;AHR_ARNT2</title>
<a xlink:title="ARNT2: 0.817||remove43">
<path fill="none" stroke="#d06eff" stroke-width="3" d="M334.553,-152.509C312.805,-165.544 281.589,-184.142 254.085,-200.105 209.07,-226.23 157.012,-255.622 122.191,-275.166"/>
<polygon fill="#d06eff" stroke="#d06eff" points="120.639,-272.826 115.031,-279.182 123.378,-277.71 120.639,-272.826"/>
</a>
</g>
<!-- SP3&#45;&gt;SIX1_SIX3_SIX2 -->
<g id="edge134" class="edge"><title>SP3&#45;&gt;SIX1_SIX3_SIX2</title>
<a xlink:title="SIX2: 1.019||remove59root">
<path fill="none" stroke="#5767ff" stroke-width="3" d="M334.6,-143.353C312.767,-149.203 281.501,-157.581 254.674,-164.769"/>
<polygon fill="#5767ff" stroke="#5767ff" points="253.876,-162.084 246.873,-166.859 255.325,-167.493 253.876,-162.084"/>
</a>
</g>
<!-- SP3&#45;&gt;SP4_PML -->
<g id="edge138" class="edge"><title>SP3&#45;&gt;SP4_PML</title>
<a xlink:title="SP4: 0.099||remove27root">
<path fill="none" stroke="#ebc0ff" stroke-width="3" d="M334.735,-136.025C277.367,-136.025 143.886,-136.025 77.8729,-136.025"/>
<polygon fill="#ebc0ff" stroke="#ebc0ff" points="77.7843,-133.225 69.7843,-136.025 77.7842,-138.825 77.7843,-133.225"/>
</a>
</g>
<!-- SP3&#45;&gt;PBX3 -->
<g id="edge140" class="edge"><title>SP3&#45;&gt;PBX3</title>
<a xlink:title="PBX3: 0.072||remove16root">
<path fill="none" stroke="#ecc3ff" stroke-width="3" d="M334.92,-128.782C284.04,-115.149 174.095,-85.6893 117.668,-70.5696"/>
<polygon fill="#ecc3ff" stroke="#ecc3ff" points="118.196,-67.8125 109.744,-68.4465 116.747,-73.2217 118.196,-67.8125"/>
</a>
</g>
<!-- SP3&#45;&gt;GATA3 -->
<g id="edge142" class="edge"><title>SP3&#45;&gt;GATA3</title>
<a xlink:title="GATA3: 0.150||remove36root">
<path fill="none" stroke="#e9baff" stroke-width="3" d="M334.662,-127.984C311.987,-119.931 280.527,-105.343 261.909,-82.08 253.262,-71.2755 248.77,-56.5553 246.437,-43.948"/>
<polygon fill="#e9baff" stroke="#e9baff" points="249.201,-43.4995 245.194,-36.0306 243.669,-44.3681 249.201,-43.4995"/>
</a>
</g>
</g>
</svg>
