<?xml version="1.0" encoding="UTF-8" standalone="no"?>
<!DOCTYPE svg PUBLIC "-//W3C//DTD SVG 1.1//EN"
 "http://www.w3.org/Graphics/SVG/1.1/DTD/svg11.dtd">
<!-- Generated by graphviz version 2.28.0 (20110630.0925)
 -->
<!-- Title: _anonymous_0 Pages: 1 -->
<svg width="402pt" height="366pt"
 viewBox="0.00 0.00 402.45 366.45" xmlns="http://www.w3.org/2000/svg" xmlns:xlink="http://www.w3.org/1999/xlink">
<g id="graph1" class="graph" transform="scale(1 1) rotate(0) translate(4 362.449)">
<title>_anonymous_0</title>
<polygon fill="white" stroke="white" points="-4,5 -4,-362.449 399.449,-362.449 399.449,5 -4,5"/>
<!-- ESRRA_ESR2 -->
<g id="node1" class="node"><title>ESRRA_ESR2</title>
<a xlink:href="ESRRA_ESR2.svg" xlink:title="Z&#45;value: 3.814||remove42">
<polygon fill="#3247ff" stroke="#3247ff" stroke-width="2" points="382.199,-240.425 323.699,-240.425 311.699,-228.425 311.699,-216.425 323.699,-204.425 382.199,-204.425 394.199,-216.425 394.199,-228.425 382.199,-240.425"/>
<path fill="#3247ff" stroke="#3247ff" stroke-width="2" d="M323.699,-240.425C317.699,-240.425 311.699,-234.425 311.699,-228.425"/>
<path fill="#3247ff" stroke="#3247ff" stroke-width="2" d="M311.699,-216.425C311.699,-210.425 317.699,-204.425 323.699,-204.425"/>
<path fill="#3247ff" stroke="#3247ff" stroke-width="2" d="M382.199,-204.425C388.199,-204.425 394.199,-210.425 394.199,-216.425"/>
<path fill="#3247ff" stroke="#3247ff" stroke-width="2" d="M394.199,-228.425C394.199,-234.425 388.199,-240.425 382.199,-240.425"/>
<polyline fill="none" stroke="white" stroke-width="2" points="382.199,-240.425 323.699,-240.425 "/>
<path fill="none" stroke="white" stroke-width="2" d="M323.699,-240.425C317.699,-240.425 311.699,-234.425 311.699,-228.425"/>
<polyline fill="none" stroke="white" stroke-width="2" points="311.699,-228.425 311.699,-216.425 "/>
<path fill="none" stroke="white" stroke-width="2" d="M311.699,-216.425C311.699,-210.425 317.699,-204.425 323.699,-204.425"/>
<polyline fill="none" stroke="white" stroke-width="2" points="323.699,-204.425 382.199,-204.425 "/>
<path fill="none" stroke="white" stroke-width="2" d="M382.199,-204.425C388.199,-204.425 394.199,-210.425 394.199,-216.425"/>
<polyline fill="none" stroke="white" stroke-width="2" points="394.199,-216.425 394.199,-228.425 "/>
<path fill="none" stroke="white" stroke-width="2" d="M394.199,-228.425C394.199,-234.425 388.199,-240.425 382.199,-240.425"/>
<text text-anchor="middle" x="352.949" y="-219.925" font-family="Helvetica,sans-Serif" font-size="10.00" fill="white">ESRRA_ESR2</text>
</a>
</g>
<!-- MXI1_MYC_MYCN -->
<g id="node2" class="node"><title>MXI1_MYC_MYCN</title>
<a xlink:href="MXI1_MYC_MYCN.svg" xlink:title="Z&#45;value: 1.090||remove32">
<polygon fill="#a0a9ff" stroke="#a0a9ff" stroke-width="2" points="348.999,-315.249 270.499,-315.249 258.499,-303.249 258.499,-291.249 270.499,-279.249 348.999,-279.249 360.999,-291.249 360.999,-303.249 348.999,-315.249"/>
<path fill="#a0a9ff" stroke="#a0a9ff" stroke-width="2" d="M270.499,-315.249C264.499,-315.249 258.499,-309.249 258.499,-303.249"/>
<path fill="#a0a9ff" stroke="#a0a9ff" stroke-width="2" d="M258.499,-291.249C258.499,-285.249 264.499,-279.249 270.499,-279.249"/>
<path fill="#a0a9ff" stroke="#a0a9ff" stroke-width="2" d="M348.999,-279.249C354.999,-279.249 360.999,-285.249 360.999,-291.249"/>
<path fill="#a0a9ff" stroke="#a0a9ff" stroke-width="2" d="M360.999,-303.249C360.999,-309.249 354.999,-315.249 348.999,-315.249"/>
<polyline fill="none" stroke="white" stroke-width="2" points="348.999,-315.249 270.499,-315.249 "/>
<path fill="none" stroke="white" stroke-width="2" d="M270.499,-315.249C264.499,-315.249 258.499,-309.249 258.499,-303.249"/>
<polyline fill="none" stroke="white" stroke-width="2" points="258.499,-303.249 258.499,-291.249 "/>
<path fill="none" stroke="white" stroke-width="2" d="M258.499,-291.249C258.499,-285.249 264.499,-279.249 270.499,-279.249"/>
<polyline fill="none" stroke="white" stroke-width="2" points="270.499,-279.249 348.999,-279.249 "/>
<path fill="none" stroke="white" stroke-width="2" d="M348.999,-279.249C354.999,-279.249 360.999,-285.249 360.999,-291.249"/>
<polyline fill="none" stroke="white" stroke-width="2" points="360.999,-291.249 360.999,-303.249 "/>
<path fill="none" stroke="white" stroke-width="2" d="M360.999,-303.249C360.999,-309.249 354.999,-315.249 348.999,-315.249"/>
<text text-anchor="middle" x="309.749" y="-294.749" font-family="Helvetica,sans-Serif" font-size="10.00">MXI1_MYC_MYCN</text>
</a>
</g>
<!-- ESRRA_ESR2&#45;&gt;MXI1_MYC_MYCN -->
<g id="edge2" class="edge"><title>ESRRA_ESR2&#45;&gt;MXI1_MYC_MYCN</title>
<a xlink:title="MYCN: 0.141||ESRRA: 0.216||remove23root">
<path fill="none" stroke="#ecc4ff" stroke-width="3" d="M339.209,-248.224C334.668,-256.088 329.666,-264.752 325.132,-272.606"/>
<path fill="none" stroke="#eac0ff" stroke-width="3" d="M337.477,-247.224C332.936,-255.088 327.934,-263.752 323.4,-271.606"/>
<polygon fill="#eac0ff" stroke="#eac0ff" points="340.917,-248.866 342.492,-240.538 336.067,-246.066 340.917,-248.866"/>
<polygon fill="#ecc4ff" stroke="#ecc4ff" points="321.835,-270.715 320.26,-279.044 326.685,-273.516 321.835,-270.715"/>
</a>
</g>
<!-- FOSB -->
<g id="node4" class="node"><title>FOSB</title>
<a xlink:href="FOSB.svg" xlink:title="Z&#45;value: 0.605||remove33">
<polygon fill="#b3bbff" stroke="#b3bbff" stroke-width="2" points="249.925,-358.449 219.925,-358.449 207.925,-346.449 207.925,-334.449 219.925,-322.449 249.925,-322.449 261.925,-334.449 261.925,-346.449 249.925,-358.449"/>
<path fill="#b3bbff" stroke="#b3bbff" stroke-width="2" d="M219.925,-358.449C213.925,-358.449 207.925,-352.449 207.925,-346.449"/>
<path fill="#b3bbff" stroke="#b3bbff" stroke-width="2" d="M207.925,-334.449C207.925,-328.449 213.925,-322.449 219.925,-322.449"/>
<path fill="#b3bbff" stroke="#b3bbff" stroke-width="2" d="M249.925,-322.449C255.925,-322.449 261.925,-328.449 261.925,-334.449"/>
<path fill="#b3bbff" stroke="#b3bbff" stroke-width="2" d="M261.925,-346.449C261.925,-352.449 255.925,-358.449 249.925,-358.449"/>
<polyline fill="none" stroke="white" stroke-width="2" points="249.925,-358.449 219.925,-358.449 "/>
<path fill="none" stroke="white" stroke-width="2" d="M219.925,-358.449C213.925,-358.449 207.925,-352.449 207.925,-346.449"/>
<polyline fill="none" stroke="white" stroke-width="2" points="207.925,-346.449 207.925,-334.449 "/>
<path fill="none" stroke="white" stroke-width="2" d="M207.925,-334.449C207.925,-328.449 213.925,-322.449 219.925,-322.449"/>
<polyline fill="none" stroke="white" stroke-width="2" points="219.925,-322.449 249.925,-322.449 "/>
<path fill="none" stroke="white" stroke-width="2" d="M249.925,-322.449C255.925,-322.449 261.925,-328.449 261.925,-334.449"/>
<polyline fill="none" stroke="white" stroke-width="2" points="261.925,-334.449 261.925,-346.449 "/>
<path fill="none" stroke="white" stroke-width="2" d="M261.925,-346.449C261.925,-352.449 255.925,-358.449 249.925,-358.449"/>
<text text-anchor="middle" x="234.925" y="-337.949" font-family="Helvetica,sans-Serif" font-size="10.00">FOSB</text>
</a>
</g>
<!-- ESRRA_ESR2&#45;&gt;FOSB -->
<g id="edge4" class="edge"><title>ESRRA_ESR2&#45;&gt;FOSB</title>
<a xlink:title="FOSB: 0.034||remove7root">
<path fill="none" stroke="#eecaff" stroke-width="3" d="M311.555,-234.79C290.172,-243.218 265.404,-256.519 250.009,-276.369 241.7,-287.083 237.853,-301.627 236.116,-314.151"/>
<polygon fill="#eecaff" stroke="#eecaff" points="233.298,-314.172 235.222,-322.427 238.865,-314.774 233.298,-314.172"/>
</a>
</g>
<!-- BATF -->
<g id="node6" class="node"><title>BATF</title>
<a xlink:href="BATF.svg" xlink:title="Z&#45;value: 1.213||remove41">
<polygon fill="#9ba5ff" stroke="#9ba5ff" stroke-width="2" points="163.525,-358.449 133.525,-358.449 121.525,-346.449 121.525,-334.449 133.525,-322.449 163.525,-322.449 175.525,-334.449 175.525,-346.449 163.525,-358.449"/>
<path fill="#9ba5ff" stroke="#9ba5ff" stroke-width="2" d="M133.525,-358.449C127.525,-358.449 121.525,-352.449 121.525,-346.449"/>
<path fill="#9ba5ff" stroke="#9ba5ff" stroke-width="2" d="M121.525,-334.449C121.525,-328.449 127.525,-322.449 133.525,-322.449"/>
<path fill="#9ba5ff" stroke="#9ba5ff" stroke-width="2" d="M163.525,-322.449C169.525,-322.449 175.525,-328.449 175.525,-334.449"/>
<path fill="#9ba5ff" stroke="#9ba5ff" stroke-width="2" d="M175.525,-346.449C175.525,-352.449 169.525,-358.449 163.525,-358.449"/>
<polyline fill="none" stroke="white" stroke-width="2" points="163.525,-358.449 133.525,-358.449 "/>
<path fill="none" stroke="white" stroke-width="2" d="M133.525,-358.449C127.525,-358.449 121.525,-352.449 121.525,-346.449"/>
<polyline fill="none" stroke="white" stroke-width="2" points="121.525,-346.449 121.525,-334.449 "/>
<path fill="none" stroke="white" stroke-width="2" d="M121.525,-334.449C121.525,-328.449 127.525,-322.449 133.525,-322.449"/>
<polyline fill="none" stroke="white" stroke-width="2" points="133.525,-322.449 163.525,-322.449 "/>
<path fill="none" stroke="white" stroke-width="2" d="M163.525,-322.449C169.525,-322.449 175.525,-328.449 175.525,-334.449"/>
<polyline fill="none" stroke="white" stroke-width="2" points="175.525,-334.449 175.525,-346.449 "/>
<path fill="none" stroke="white" stroke-width="2" d="M175.525,-346.449C175.525,-352.449 169.525,-358.449 163.525,-358.449"/>
<text text-anchor="middle" x="148.525" y="-337.949" font-family="Helvetica,sans-Serif" font-size="10.00">BATF</text>
</a>
</g>
<!-- ESRRA_ESR2&#45;&gt;BATF -->
<g id="edge6" class="edge"><title>ESRRA_ESR2&#45;&gt;BATF</title>
<a xlink:title="BATF: 2.037||remove41">
<path fill="none" stroke="#ca5bff" stroke-width="3" d="M316.835,-240.45C296.914,-250.616 271.859,-263.773 250.009,-276.369 227.179,-289.531 202.138,-305.327 182.642,-317.943"/>
<polygon fill="#ca5bff" stroke="#ca5bff" points="180.909,-315.73 175.725,-322.436 183.959,-320.426 180.909,-315.73"/>
</a>
</g>
<!-- ZNF711_TFAP2A_TFAP2D -->
<g id="node8" class="node"><title>ZNF711_TFAP2A_TFAP2D</title>
<a xlink:href="ZNF711_TFAP2A_TFAP2D.svg" xlink:title="Z&#45;value: 2.387||remove39">
<polygon fill="#6c7aff" stroke="#6c7aff" stroke-width="2" points="130.7,-315.249 16.7,-315.249 4.7,-303.249 4.7,-291.249 16.7,-279.249 130.7,-279.249 142.7,-291.249 142.7,-303.249 130.7,-315.249"/>
<path fill="#6c7aff" stroke="#6c7aff" stroke-width="2" d="M16.7,-315.249C10.7,-315.249 4.7,-309.249 4.7,-303.249"/>
<path fill="#6c7aff" stroke="#6c7aff" stroke-width="2" d="M4.7,-291.249C4.7,-285.249 10.7,-279.249 16.7,-279.249"/>
<path fill="#6c7aff" stroke="#6c7aff" stroke-width="2" d="M130.7,-279.249C136.7,-279.249 142.7,-285.249 142.7,-291.249"/>
<path fill="#6c7aff" stroke="#6c7aff" stroke-width="2" d="M142.7,-303.249C142.7,-309.249 136.7,-315.249 130.7,-315.249"/>
<polyline fill="none" stroke="white" stroke-width="2" points="130.7,-315.249 16.7,-315.249 "/>
<path fill="none" stroke="white" stroke-width="2" d="M16.7,-315.249C10.7,-315.249 4.7,-309.249 4.7,-303.249"/>
<polyline fill="none" stroke="white" stroke-width="2" points="4.7,-303.249 4.7,-291.249 "/>
<path fill="none" stroke="white" stroke-width="2" d="M4.7,-291.249C4.7,-285.249 10.7,-279.249 16.7,-279.249"/>
<polyline fill="none" stroke="white" stroke-width="2" points="16.7,-279.249 130.7,-279.249 "/>
<path fill="none" stroke="white" stroke-width="2" d="M130.7,-279.249C136.7,-279.249 142.7,-285.249 142.7,-291.249"/>
<polyline fill="none" stroke="white" stroke-width="2" points="142.7,-291.249 142.7,-303.249 "/>
<path fill="none" stroke="white" stroke-width="2" d="M142.7,-303.249C142.7,-309.249 136.7,-315.249 130.7,-315.249"/>
<text text-anchor="middle" x="73.7" y="-294.749" font-family="Helvetica,sans-Serif" font-size="10.00" fill="white">ZNF711_TFAP2A_TFAP2D</text>
</a>
</g>
<!-- ESRRA_ESR2&#45;&gt;ZNF711_TFAP2A_TFAP2D -->
<g id="edge8" class="edge"><title>ESRRA_ESR2&#45;&gt;ZNF711_TFAP2A_TFAP2D</title>
<a xlink:title="TFAP2A: 0.583||ZNF711: 0.025||ESRRA: 0.732||ESR2: 0.005||remove38root">
<path fill="none" stroke="#e4abff" stroke-width="3" d="M303.806,-236.628C260.883,-248.129 198.066,-264.961 148.946,-278.122"/>
<path fill="none" stroke="#e1a3ff" stroke-width="3" d="M303.288,-234.696C260.366,-246.197 197.549,-263.029 148.428,-276.191"/>
<polygon fill="#e1a3ff" stroke="#e1a3ff" points="304.442,-238.321 311.444,-233.546 302.992,-232.912 304.442,-238.321"/>
<polygon fill="#e4abff" stroke="#e4abff" points="147.929,-274.461 140.926,-279.236 149.378,-279.87 147.929,-274.461"/>
</a>
</g>
<!-- MEIS2 -->
<g id="node10" class="node"><title>MEIS2</title>
<a xlink:href="MEIS2.svg" xlink:title="Z&#45;value: 1.195||remove28">
<polygon fill="#9ca5ff" stroke="#9ca5ff" stroke-width="2" points="45.5,-240.425 15.5,-240.425 3.5,-228.425 3.5,-216.425 15.5,-204.425 45.5,-204.425 57.5,-216.425 57.5,-228.425 45.5,-240.425"/>
<path fill="#9ca5ff" stroke="#9ca5ff" stroke-width="2" d="M15.5,-240.425C9.5,-240.425 3.5,-234.425 3.5,-228.425"/>
<path fill="#9ca5ff" stroke="#9ca5ff" stroke-width="2" d="M3.5,-216.425C3.5,-210.425 9.5,-204.425 15.5,-204.425"/>
<path fill="#9ca5ff" stroke="#9ca5ff" stroke-width="2" d="M45.5,-204.425C51.5,-204.425 57.5,-210.425 57.5,-216.425"/>
<path fill="#9ca5ff" stroke="#9ca5ff" stroke-width="2" d="M57.5,-228.425C57.5,-234.425 51.5,-240.425 45.5,-240.425"/>
<polyline fill="none" stroke="white" stroke-width="2" points="45.5,-240.425 15.5,-240.425 "/>
<path fill="none" stroke="white" stroke-width="2" d="M15.5,-240.425C9.5,-240.425 3.5,-234.425 3.5,-228.425"/>
<polyline fill="none" stroke="white" stroke-width="2" points="3.5,-228.425 3.5,-216.425 "/>
<path fill="none" stroke="white" stroke-width="2" d="M3.5,-216.425C3.5,-210.425 9.5,-204.425 15.5,-204.425"/>
<polyline fill="none" stroke="white" stroke-width="2" points="15.5,-204.425 45.5,-204.425 "/>
<path fill="none" stroke="white" stroke-width="2" d="M45.5,-204.425C51.5,-204.425 57.5,-210.425 57.5,-216.425"/>
<polyline fill="none" stroke="white" stroke-width="2" points="57.5,-216.425 57.5,-228.425 "/>
<path fill="none" stroke="white" stroke-width="2" d="M57.5,-228.425C57.5,-234.425 51.5,-240.425 45.5,-240.425"/>
<text text-anchor="middle" x="30.5" y="-219.925" font-family="Helvetica,sans-Serif" font-size="10.00">MEIS2</text>
</a>
</g>
<!-- ESRRA_ESR2&#45;&gt;MEIS2 -->
<g id="edge10" class="edge"><title>ESRRA_ESR2&#45;&gt;MEIS2</title>
<a xlink:title="MEIS2: 0.018||remove3root">
<path fill="none" stroke="#eecbff" stroke-width="3" d="M311.455,-222.425C247.448,-222.425 125.763,-222.425 65.7571,-222.425"/>
<polygon fill="#eecbff" stroke="#eecbff" points="65.7118,-219.625 57.7118,-222.425 65.7117,-225.225 65.7118,-219.625"/>
</a>
</g>
<!-- SMAD3 -->
<g id="node12" class="node"><title>SMAD3</title>
<a xlink:href="SMAD3.svg" xlink:title="Z&#45;value: 0.374||remove43">
<polygon fill="#ffbdbd" stroke="#ffbdbd" stroke-width="2" points="206.725,-197.225 176.725,-197.225 164.725,-185.225 164.725,-173.225 176.725,-161.225 206.725,-161.225 218.725,-173.225 218.725,-185.225 206.725,-197.225"/>
<path fill="#ffbdbd" stroke="#ffbdbd" stroke-width="2" d="M176.725,-197.225C170.725,-197.225 164.725,-191.225 164.725,-185.225"/>
<path fill="#ffbdbd" stroke="#ffbdbd" stroke-width="2" d="M164.725,-173.225C164.725,-167.225 170.725,-161.225 176.725,-161.225"/>
<path fill="#ffbdbd" stroke="#ffbdbd" stroke-width="2" d="M206.725,-161.225C212.725,-161.225 218.725,-167.225 218.725,-173.225"/>
<path fill="#ffbdbd" stroke="#ffbdbd" stroke-width="2" d="M218.725,-185.225C218.725,-191.225 212.725,-197.225 206.725,-197.225"/>
<polyline fill="none" stroke="white" stroke-width="2" points="206.725,-197.225 176.725,-197.225 "/>
<path fill="none" stroke="white" stroke-width="2" d="M176.725,-197.225C170.725,-197.225 164.725,-191.225 164.725,-185.225"/>
<polyline fill="none" stroke="white" stroke-width="2" points="164.725,-185.225 164.725,-173.225 "/>
<path fill="none" stroke="white" stroke-width="2" d="M164.725,-173.225C164.725,-167.225 170.725,-161.225 176.725,-161.225"/>
<polyline fill="none" stroke="white" stroke-width="2" points="176.725,-161.225 206.725,-161.225 "/>
<path fill="none" stroke="white" stroke-width="2" d="M206.725,-161.225C212.725,-161.225 218.725,-167.225 218.725,-173.225"/>
<polyline fill="none" stroke="white" stroke-width="2" points="218.725,-173.225 218.725,-185.225 "/>
<path fill="none" stroke="white" stroke-width="2" d="M218.725,-185.225C218.725,-191.225 212.725,-197.225 206.725,-197.225"/>
<text text-anchor="middle" x="191.725" y="-176.725" font-family="Helvetica,sans-Serif" font-size="10.00">SMAD3</text>
</a>
</g>
<!-- ESRRA_ESR2&#45;&gt;SMAD3 -->
<g id="edge12" class="edge"><title>ESRRA_ESR2&#45;&gt;SMAD3</title>
<a xlink:title="SMAD3: 2.777||remove42root">
<path fill="none" stroke="#3247ff" stroke-width="3" d="M311.43,-211.3C285.163,-204.261 251.589,-195.265 226.686,-188.593"/>
<polygon fill="#3247ff" stroke="#3247ff" points="227.378,-185.879 218.926,-186.513 225.929,-191.288 227.378,-185.879"/>
</a>
</g>
<!-- MXI1_MYC_MYCN&#45;&gt;SMAD3 -->
<g id="edge50" class="edge"><title>MXI1_MYC_MYCN&#45;&gt;SMAD3</title>
<a xlink:title="SMAD3: 0.533||MYC: 0.048||remove32root">
<path fill="none" stroke="#aeb6ff" stroke-width="3" d="M285.096,-274.01C264.602,-253.516 235.254,-224.168 214.805,-203.72"/>
<path fill="none" stroke="#ffc9c9" stroke-width="3" d="M286.51,-272.596C266.016,-252.102 236.668,-222.754 216.22,-202.305"/>
<polygon fill="#ffc9c9" stroke="#ffc9c9" points="283.93,-275.39 291.567,-279.067 287.89,-271.43 283.93,-275.39"/>
<polygon fill="#aeb6ff" stroke="#aeb6ff" points="217.371,-200.911 209.734,-197.234 213.411,-204.871 217.371,-200.911"/>
</a>
</g>
<!-- FOSB&#45;&gt;MXI1_MYC_MYCN -->
<g id="edge52" class="edge"><title>FOSB&#45;&gt;MXI1_MYC_MYCN</title>
<a xlink:title="MYCN: 0.047||remove11root">
<path fill="none" stroke="#edc9ff" stroke-width="3" d="M261.938,-324.853C265.036,-323.065 268.237,-321.216 271.446,-319.363"/>
<polygon fill="#edc9ff" stroke="#edc9ff" points="272.922,-321.745 278.45,-315.32 270.122,-316.895 272.922,-321.745"/>
</a>
</g>
<!-- FOSB&#45;&gt;SMAD3 -->
<g id="edge56" class="edge"><title>FOSB&#45;&gt;SMAD3</title>
<a xlink:title="SMAD3: 0.541||remove33root">
<path fill="none" stroke="#aeb6ff" stroke-width="3" d="M230.053,-322.268C222.404,-293.723 207.545,-238.267 198.744,-205.42"/>
<polygon fill="#aeb6ff" stroke="#aeb6ff" points="201.42,-204.589 196.645,-197.587 196.011,-206.039 201.42,-204.589"/>
</a>
</g>
<!-- FOSL2_SMARCC1 -->
<g id="node20" class="node"><title>FOSL2_SMARCC1</title>
<a xlink:href="FOSL2_SMARCC1.svg" xlink:title="Z&#45;value: 0.739||remove37">
<polygon fill="#aeb6ff" stroke="#aeb6ff" stroke-width="2" points="112.2,-79.2 35.2,-79.2 23.2,-67.2 23.2,-55.2 35.2,-43.2 112.2,-43.2 124.2,-55.2 124.2,-67.2 112.2,-79.2"/>
<path fill="#aeb6ff" stroke="#aeb6ff" stroke-width="2" d="M35.2,-79.2C29.2,-79.2 23.2,-73.2 23.2,-67.2"/>
<path fill="#aeb6ff" stroke="#aeb6ff" stroke-width="2" d="M23.2,-55.2C23.2,-49.2 29.2,-43.2 35.2,-43.2"/>
<path fill="#aeb6ff" stroke="#aeb6ff" stroke-width="2" d="M112.2,-43.2C118.2,-43.2 124.2,-49.2 124.2,-55.2"/>
<path fill="#aeb6ff" stroke="#aeb6ff" stroke-width="2" d="M124.2,-67.2C124.2,-73.2 118.2,-79.2 112.2,-79.2"/>
<polyline fill="none" stroke="white" stroke-width="2" points="112.2,-79.2 35.2,-79.2 "/>
<path fill="none" stroke="white" stroke-width="2" d="M35.2,-79.2C29.2,-79.2 23.2,-73.2 23.2,-67.2"/>
<polyline fill="none" stroke="white" stroke-width="2" points="23.2,-67.2 23.2,-55.2 "/>
<path fill="none" stroke="white" stroke-width="2" d="M23.2,-55.2C23.2,-49.2 29.2,-43.2 35.2,-43.2"/>
<polyline fill="none" stroke="white" stroke-width="2" points="35.2,-43.2 112.2,-43.2 "/>
<path fill="none" stroke="white" stroke-width="2" d="M112.2,-43.2C118.2,-43.2 124.2,-49.2 124.2,-55.2"/>
<polyline fill="none" stroke="white" stroke-width="2" points="124.2,-55.2 124.2,-67.2 "/>
<path fill="none" stroke="white" stroke-width="2" d="M124.2,-67.2C124.2,-73.2 118.2,-79.2 112.2,-79.2"/>
<text text-anchor="middle" x="73.7" y="-58.7" font-family="Helvetica,sans-Serif" font-size="10.00">FOSL2_SMARCC1</text>
</a>
</g>
<!-- FOSB&#45;&gt;FOSL2_SMARCC1 -->
<g id="edge54" class="edge"><title>FOSB&#45;&gt;FOSL2_SMARCC1</title>
<a xlink:title="FOSL2: 0.008||remove0root">
<path fill="none" stroke="#eecbff" stroke-width="3" d="M224.346,-322.127C196.321,-273.587 120.125,-141.61 88.1401,-86.211"/>
<polygon fill="#eecbff" stroke="#eecbff" points="90.5327,-84.755 84.1078,-79.2268 85.6829,-87.555 90.5327,-84.755"/>
</a>
</g>
<!-- BATF&#45;&gt;MXI1_MYC_MYCN -->
<g id="edge44" class="edge"><title>BATF&#45;&gt;MXI1_MYC_MYCN</title>
<a xlink:title="MYCN: 0.140||remove18root">
<path fill="none" stroke="#ecc4ff" stroke-width="3" d="M175.696,-329.192C184.502,-325.803 194.379,-322.27 203.605,-319.569 218.61,-315.176 235.047,-311.285 250.408,-308.032"/>
<polygon fill="#ecc4ff" stroke="#ecc4ff" points="251.065,-310.756 258.33,-306.39 249.929,-305.272 251.065,-310.756"/>
</a>
</g>
<!-- BATF&#45;&gt;SMAD3 -->
<g id="edge48" class="edge"><title>BATF&#45;&gt;SMAD3</title>
<a xlink:title="SMAD3: 0.881||remove41root">
<path fill="none" stroke="#9ba5ff" stroke-width="3" d="M153.396,-322.268C161.045,-293.723 175.904,-238.267 184.706,-205.42"/>
<polygon fill="#9ba5ff" stroke="#9ba5ff" points="187.438,-206.039 186.805,-197.587 182.029,-204.589 187.438,-206.039"/>
</a>
</g>
<!-- POU1F1 -->
<g id="node29" class="node"><title>POU1F1</title>
<a xlink:href="POU1F1.svg" xlink:title="Z&#45;value: 0.573||remove30">
<polygon fill="#b5bcff" stroke="#b5bcff" stroke-width="2" points="250.175,-36 219.675,-36 207.675,-24 207.675,-12 219.675,-0 250.175,-0 262.175,-12 262.175,-24 250.175,-36"/>
<path fill="#b5bcff" stroke="#b5bcff" stroke-width="2" d="M219.675,-36C213.675,-36 207.675,-30 207.675,-24"/>
<path fill="#b5bcff" stroke="#b5bcff" stroke-width="2" d="M207.675,-12C207.675,-6 213.675,-0 219.675,-0"/>
<path fill="#b5bcff" stroke="#b5bcff" stroke-width="2" d="M250.175,-0C256.175,-0 262.175,-6 262.175,-12"/>
<path fill="#b5bcff" stroke="#b5bcff" stroke-width="2" d="M262.175,-24C262.175,-30 256.175,-36 250.175,-36"/>
<polyline fill="none" stroke="white" stroke-width="2" points="250.175,-36 219.675,-36 "/>
<path fill="none" stroke="white" stroke-width="2" d="M219.675,-36C213.675,-36 207.675,-30 207.675,-24"/>
<polyline fill="none" stroke="white" stroke-width="2" points="207.675,-24 207.675,-12 "/>
<path fill="none" stroke="white" stroke-width="2" d="M207.675,-12C207.675,-6 213.675,-0 219.675,-0"/>
<polyline fill="none" stroke="white" stroke-width="2" points="219.675,-0 250.175,-0 "/>
<path fill="none" stroke="white" stroke-width="2" d="M250.175,-0C256.175,-0 262.175,-6 262.175,-12"/>
<polyline fill="none" stroke="white" stroke-width="2" points="262.175,-12 262.175,-24 "/>
<path fill="none" stroke="white" stroke-width="2" d="M262.175,-24C262.175,-30 256.175,-36 250.175,-36"/>
<text text-anchor="middle" x="234.925" y="-15.5" font-family="Helvetica,sans-Serif" font-size="10.00">POU1F1</text>
</a>
</g>
<!-- BATF&#45;&gt;POU1F1 -->
<g id="edge46" class="edge"><title>BATF&#45;&gt;POU1F1</title>
<a xlink:title="POU1F1: 0.012||remove1root">
<path fill="none" stroke="#eecbff" stroke-width="3" d="M161.624,-322.023C179.19,-296.186 209.708,-247.077 223.045,-200.105 238.305,-146.353 238.178,-80.235 236.621,-44.2997"/>
<polygon fill="#eecbff" stroke="#eecbff" points="239.416,-44.1139 236.227,-36.2609 233.823,-44.3886 239.416,-44.1139"/>
</a>
</g>
<!-- ZNF711_TFAP2A_TFAP2D&#45;&gt;MXI1_MYC_MYCN -->
<g id="edge14" class="edge"><title>ZNF711_TFAP2A_TFAP2D&#45;&gt;MXI1_MYC_MYCN</title>
<a xlink:title="MYCN: 0.343||MYC: 0.055||remove26root">
<path fill="none" stroke="#e8b9ff" stroke-width="3" d="M142.928,-297.249C176.914,-297.249 217.452,-297.249 250.056,-297.249"/>
<polygon fill="#e8b9ff" stroke="#e8b9ff" points="250.165,-300.049 258.165,-297.249 250.165,-294.449 250.165,-300.049"/>
</a>
</g>
<!-- ZNF711_TFAP2A_TFAP2D&#45;&gt;FOSB -->
<g id="edge16" class="edge"><title>ZNF711_TFAP2A_TFAP2D&#45;&gt;FOSB</title>
<a xlink:title="FOSB: 0.084||remove14root">
<path fill="none" stroke="#edc7ff" stroke-width="3" d="M142.89,-310.176C155.279,-312.95 168.007,-316.104 179.845,-319.569 186.476,-321.511 193.443,-323.881 200.107,-326.32"/>
<polygon fill="#edc7ff" stroke="#edc7ff" points="199.279,-329 207.753,-329.192 201.249,-323.758 199.279,-329"/>
</a>
</g>
<!-- ZNF711_TFAP2A_TFAP2D&#45;&gt;BATF -->
<g id="edge18" class="edge"><title>ZNF711_TFAP2A_TFAP2D&#45;&gt;BATF</title>
<a xlink:title="BATF: 0.956||remove39">
<path fill="none" stroke="#dd97ff" stroke-width="3" d="M104.999,-315.32C108.062,-317.088 111.182,-318.89 114.273,-320.674"/>
<polygon fill="#dd97ff" stroke="#dd97ff" points="113.064,-323.209 121.392,-324.784 115.864,-318.359 113.064,-323.209"/>
</a>
</g>
<!-- ZNF711_TFAP2A_TFAP2D&#45;&gt;ZNF711_TFAP2A_TFAP2D -->
<g id="edge20" class="edge"><title>ZNF711_TFAP2A_TFAP2D&#45;&gt;ZNF711_TFAP2A_TFAP2D</title>
<a xlink:title="TFAP2A: 0.506||ZNF711: 0.089||remove29root">
<path fill="none" stroke="#e5b0ff" stroke-width="3" d="M142.975,-303.404C153.531,-302.465 160.7,-300.413 160.7,-297.249 160.7,-294.975 156.997,-293.276 150.994,-292.151"/>
<polygon fill="#e5b0ff" stroke="#e5b0ff" points="151.272,-289.363 142.975,-291.094 150.54,-294.915 151.272,-289.363"/>
</a>
</g>
<!-- ZNF711_TFAP2A_TFAP2D&#45;&gt;SMAD3 -->
<g id="edge28" class="edge"><title>ZNF711_TFAP2A_TFAP2D&#45;&gt;SMAD3</title>
<a xlink:title="SMAD3: 0.744||remove39root">
<path fill="none" stroke="#a2acff" stroke-width="3" d="M91.8827,-279.067C112.302,-258.648 145.513,-225.437 167.969,-202.98"/>
<polygon fill="#a2acff" stroke="#a2acff" points="170.038,-204.871 173.715,-197.234 166.078,-200.911 170.038,-204.871"/>
</a>
</g>
<!-- SP4_PML -->
<g id="node18" class="node"><title>SP4_PML</title>
<a xlink:href="SP4_PML.svg" xlink:title="Z&#45;value: 1.603||remove40">
<polygon fill="#8b97ff" stroke="#8b97ff" stroke-width="2" points="48.75,-154.025 12.25,-154.025 0.25,-142.025 0.25,-130.025 12.25,-118.025 48.75,-118.025 60.75,-130.025 60.75,-142.025 48.75,-154.025"/>
<path fill="#8b97ff" stroke="#8b97ff" stroke-width="2" d="M12.25,-154.025C6.25,-154.025 0.25,-148.025 0.25,-142.025"/>
<path fill="#8b97ff" stroke="#8b97ff" stroke-width="2" d="M0.25,-130.025C0.25,-124.025 6.25,-118.025 12.25,-118.025"/>
<path fill="#8b97ff" stroke="#8b97ff" stroke-width="2" d="M48.75,-118.025C54.75,-118.025 60.75,-124.025 60.75,-130.025"/>
<path fill="#8b97ff" stroke="#8b97ff" stroke-width="2" d="M60.75,-142.025C60.75,-148.025 54.75,-154.025 48.75,-154.025"/>
<polyline fill="none" stroke="white" stroke-width="2" points="48.75,-154.025 12.25,-154.025 "/>
<path fill="none" stroke="white" stroke-width="2" d="M12.25,-154.025C6.25,-154.025 0.25,-148.025 0.25,-142.025"/>
<polyline fill="none" stroke="white" stroke-width="2" points="0.25,-142.025 0.25,-130.025 "/>
<path fill="none" stroke="white" stroke-width="2" d="M0.25,-130.025C0.25,-124.025 6.25,-118.025 12.25,-118.025"/>
<polyline fill="none" stroke="white" stroke-width="2" points="12.25,-118.025 48.75,-118.025 "/>
<path fill="none" stroke="white" stroke-width="2" d="M48.75,-118.025C54.75,-118.025 60.75,-124.025 60.75,-130.025"/>
<polyline fill="none" stroke="white" stroke-width="2" points="60.75,-130.025 60.75,-142.025 "/>
<path fill="none" stroke="white" stroke-width="2" d="M60.75,-142.025C60.75,-148.025 54.75,-154.025 48.75,-154.025"/>
<text text-anchor="middle" x="30.5" y="-133.525" font-family="Helvetica,sans-Serif" font-size="10.00">SP4_PML</text>
</a>
</g>
<!-- ZNF711_TFAP2A_TFAP2D&#45;&gt;SP4_PML -->
<g id="edge22" class="edge"><title>ZNF711_TFAP2A_TFAP2D&#45;&gt;SP4_PML</title>
<a xlink:title="SP4: 0.046||TFAP2A: 0.217||ZNF711: 0.116||remove24root">
<path fill="none" stroke="#edc9ff" stroke-width="3" d="M71.7052,-270.852C70.428,-251.416 67.5031,-224.468 60.8603,-201.825 56.8733,-188.164 50.219,-173.66 44.1011,-161.858"/>
<path fill="none" stroke="#eac0ff" stroke-width="3" d="M73.7008,-270.72C72.4163,-251.201 69.4914,-224.253 62.7797,-201.264 58.6911,-187.33 52.0368,-172.826 45.8767,-160.938"/>
<polygon fill="#eac0ff" stroke="#eac0ff" points="69.9151,-271.079 73.1705,-278.905 75.5059,-270.757 69.9151,-271.079"/>
<polygon fill="#edc9ff" stroke="#edc9ff" points="47.2965,-159.774 41.0618,-154.032 42.355,-162.409 47.2965,-159.774"/>
</a>
</g>
<!-- ZNF711_TFAP2A_TFAP2D&#45;&gt;FOSL2_SMARCC1 -->
<g id="edge24" class="edge"><title>ZNF711_TFAP2A_TFAP2D&#45;&gt;FOSL2_SMARCC1</title>
<a xlink:title="FOSL2: 0.211||remove22root">
<path fill="none" stroke="#eac0ff" stroke-width="3" d="M73.7,-279.119C73.7,-237.669 73.7,-135.84 73.7,-87.4968"/>
<polygon fill="#eac0ff" stroke="#eac0ff" points="76.5001,-87.3922 73.7,-79.3922 70.9001,-87.3922 76.5001,-87.3922"/>
</a>
</g>
<!-- DBX2_HLX -->
<g id="node22" class="node"><title>DBX2_HLX</title>
<a xlink:href="DBX2_HLX.svg" xlink:title="Z&#45;value: 0.615||remove34">
<polygon fill="#b3baff" stroke="#b3baff" stroke-width="2" points="170.525,-36 126.525,-36 114.525,-24 114.525,-12 126.525,-6.39488e-14 170.525,-6.39488e-14 182.525,-12 182.525,-24 170.525,-36"/>
<path fill="#b3baff" stroke="#b3baff" stroke-width="2" d="M126.525,-36C120.525,-36 114.525,-30 114.525,-24"/>
<path fill="#b3baff" stroke="#b3baff" stroke-width="2" d="M114.525,-12C114.525,-6 120.525,-6.39488e-14 126.525,-6.39488e-14"/>
<path fill="#b3baff" stroke="#b3baff" stroke-width="2" d="M170.525,-6.39488e-14C176.525,-6.39488e-14 182.525,-6 182.525,-12"/>
<path fill="#b3baff" stroke="#b3baff" stroke-width="2" d="M182.525,-24C182.525,-30 176.525,-36 170.525,-36"/>
<polyline fill="none" stroke="white" stroke-width="2" points="170.525,-36 126.525,-36 "/>
<path fill="none" stroke="white" stroke-width="2" d="M126.525,-36C120.525,-36 114.525,-30 114.525,-24"/>
<polyline fill="none" stroke="white" stroke-width="2" points="114.525,-24 114.525,-12 "/>
<path fill="none" stroke="white" stroke-width="2" d="M114.525,-12C114.525,-6 120.525,-6.39488e-14 126.525,-6.39488e-14"/>
<polyline fill="none" stroke="white" stroke-width="2" points="126.525,-6.39488e-14 170.525,-6.39488e-14 "/>
<path fill="none" stroke="white" stroke-width="2" d="M170.525,-6.39488e-14C176.525,-6.39488e-14 182.525,-6 182.525,-12"/>
<polyline fill="none" stroke="white" stroke-width="2" points="182.525,-12 182.525,-24 "/>
<path fill="none" stroke="white" stroke-width="2" d="M182.525,-24C182.525,-30 176.525,-36 170.525,-36"/>
<text text-anchor="middle" x="148.525" y="-15.5" font-family="Helvetica,sans-Serif" font-size="10.00">DBX2_HLX</text>
</a>
</g>
<!-- ZNF711_TFAP2A_TFAP2D&#45;&gt;DBX2_HLX -->
<g id="edge26" class="edge"><title>ZNF711_TFAP2A_TFAP2D&#45;&gt;DBX2_HLX</title>
<a xlink:title="HLX: 0.167||remove19root">
<path fill="none" stroke="#ebc2ff" stroke-width="3" d="M78.8614,-279.16C89.3615,-242.216 113.826,-155.39 132.86,-82.08 136.079,-69.6812 139.476,-55.8842 142.28,-44.2776"/>
<polygon fill="#ebc2ff" stroke="#ebc2ff" points="145.059,-44.6976 144.206,-36.2647 139.614,-43.3886 145.059,-44.6976"/>
</a>
</g>
<!-- MEIS2&#45;&gt;MXI1_MYC_MYCN -->
<g id="edge30" class="edge"><title>MEIS2&#45;&gt;MXI1_MYC_MYCN</title>
<a xlink:title="MYCN: 0.122||remove16root">
<path fill="none" stroke="#ecc5ff" stroke-width="3" d="M57.5293,-229.667C101.871,-241.548 191.075,-265.45 250.618,-281.405"/>
<polygon fill="#ecc5ff" stroke="#ecc5ff" points="249.999,-284.138 258.452,-283.504 251.449,-278.729 249.999,-284.138"/>
</a>
</g>
<!-- MEIS2&#45;&gt;FOSB -->
<g id="edge32" class="edge"><title>MEIS2&#45;&gt;FOSB</title>
<a xlink:title="FOSB: 0.049||remove12root">
<path fill="none" stroke="#edc9ff" stroke-width="3" d="M57.9214,-232.107C83.5675,-241.693 122.497,-257.624 153.74,-276.369 173.276,-288.09 193.388,-303.932 208.708,-316.932"/>
<polygon fill="#edc9ff" stroke="#edc9ff" points="207.072,-319.219 214.964,-322.31 210.722,-314.972 207.072,-319.219"/>
</a>
</g>
<!-- MEIS2&#45;&gt;BATF -->
<g id="edge34" class="edge"><title>MEIS2&#45;&gt;BATF</title>
<a xlink:title="BATF: 1.415||remove28">
<path fill="none" stroke="#d57eff" stroke-width="3" d="M57.6186,-225.707C87.0022,-230.871 132.522,-243.92 153.74,-276.369 161.006,-287.481 160.394,-302.101 157.656,-314.57"/>
<polygon fill="#d57eff" stroke="#d57eff" points="154.925,-313.947 155.611,-322.395 160.343,-315.362 154.925,-313.947"/>
</a>
</g>
<!-- MEIS2&#45;&gt;ZNF711_TFAP2A_TFAP2D -->
<g id="edge36" class="edge"><title>MEIS2&#45;&gt;ZNF711_TFAP2A_TFAP2D</title>
<a xlink:title="TFAP2A: 0.184||remove20root">
<path fill="none" stroke="#ebc1ff" stroke-width="3" d="M40.9575,-240.538C46.3829,-249.935 53.0997,-261.568 59.035,-271.849"/>
<polygon fill="#ebc1ff" stroke="#ebc1ff" points="56.7641,-273.516 63.1891,-279.044 61.6139,-270.715 56.7641,-273.516"/>
</a>
</g>
<!-- MEIS2&#45;&gt;SMAD3 -->
<g id="edge42" class="edge"><title>MEIS2&#45;&gt;SMAD3</title>
<a xlink:title="SMAD3: 0.486||remove28root">
<path fill="none" stroke="#b1b9ff" stroke-width="3" d="M57.8496,-215.096C85.0311,-207.813 126.836,-196.611 156.491,-188.665"/>
<polygon fill="#b1b9ff" stroke="#b1b9ff" points="157.508,-191.292 164.51,-186.517 156.058,-185.883 157.508,-191.292"/>
</a>
</g>
<!-- MEIS2&#45;&gt;SP4_PML -->
<g id="edge40" class="edge"><title>MEIS2&#45;&gt;SP4_PML</title>
<a xlink:title="SP4: 0.014||MEIS2: 0.038||remove9root">
<path fill="none" stroke="#eecbff" stroke-width="3" d="M29.5,-196.029C29.5,-185.292 29.5,-172.913 29.5,-162.198"/>
<path fill="none" stroke="#eec9ff" stroke-width="3" d="M31.5,-196.029C31.5,-185.292 31.5,-172.913 31.5,-162.198"/>
<polygon fill="#eec9ff" stroke="#eec9ff" points="27.7001,-196.101 30.5,-204.101 33.3001,-196.101 27.7001,-196.101"/>
<polygon fill="#eecbff" stroke="#eecbff" points="33.3001,-162.025 30.5,-154.025 27.7001,-162.025 33.3001,-162.025"/>
</a>
</g>
<!-- MEIS2&#45;&gt;POU1F1 -->
<g id="edge38" class="edge"><title>MEIS2&#45;&gt;POU1F1</title>
<a xlink:title="POU1F1: 0.019||remove4root">
<path fill="none" stroke="#eecaff" stroke-width="3" d="M48.6413,-204.283C85.616,-167.309 169.684,-83.2404 211.042,-41.8821"/>
<polygon fill="#eecaff" stroke="#eecaff" points="213.147,-43.7375 216.824,-36.1007 209.187,-39.7776 213.147,-43.7375"/>
</a>
</g>
<!-- SP4_PML&#45;&gt;ESRRA_ESR2 -->
<g id="edge66" class="edge"><title>SP4_PML&#45;&gt;ESRRA_ESR2</title>
<a xlink:title="ESRRA: 0.411||remove27root">
<path fill="none" stroke="#e7b5ff" stroke-width="3" d="M59.7527,-154.1C85.3319,-168.997 123.983,-189.361 160.405,-200.105 207.714,-214.059 263.969,-219.351 303.417,-221.326"/>
<polygon fill="#e7b5ff" stroke="#e7b5ff" points="303.45,-224.13 311.57,-221.699 303.706,-218.536 303.45,-224.13"/>
</a>
</g>
<!-- SP4_PML&#45;&gt;MXI1_MYC_MYCN -->
<g id="edge58" class="edge"><title>SP4_PML&#45;&gt;MXI1_MYC_MYCN</title>
<a xlink:title="MXI1: 0.135||MYC: 0.079||remove17root">
<path fill="none" stroke="#ecc4ff" stroke-width="3" d="M60.9161,-153.585C112.053,-183.11 215.151,-242.633 271.254,-275.024"/>
<polygon fill="#ecc4ff" stroke="#ecc4ff" points="270.19,-277.643 278.518,-279.218 272.99,-272.793 270.19,-277.643"/>
</a>
</g>
<!-- SP4_PML&#45;&gt;FOSB -->
<g id="edge60" class="edge"><title>SP4_PML&#45;&gt;FOSB</title>
<a xlink:title="FOSB: 0.017||remove2root">
<path fill="none" stroke="#eecbff" stroke-width="3" d="M48.6413,-154.166C85.616,-191.141 169.684,-275.209 211.042,-316.567"/>
<polygon fill="#eecbff" stroke="#eecbff" points="209.187,-318.672 216.824,-322.349 213.147,-314.712 209.187,-318.672"/>
</a>
</g>
<!-- SP4_PML&#45;&gt;SMAD3 -->
<g id="edge72" class="edge"><title>SP4_PML&#45;&gt;SMAD3</title>
<a xlink:title="SMAD3: 0.745||remove40root">
<path fill="none" stroke="#a2acff" stroke-width="3" d="M60.8251,-144.15C88.0896,-151.456 128.132,-162.185 156.742,-169.851"/>
<polygon fill="#a2acff" stroke="#a2acff" points="156.035,-172.56 164.488,-171.926 157.485,-167.151 156.035,-172.56"/>
</a>
</g>
<!-- SP4_PML&#45;&gt;SP4_PML -->
<g id="edge64" class="edge"><title>SP4_PML&#45;&gt;SP4_PML</title>
<a xlink:title="SP4: 0.061||remove13root">
<path fill="none" stroke="#edc8ff" stroke-width="3" d="M60.9673,-142.773C70.748,-142.704 78.5,-140.454 78.5,-136.025 78.5,-132.91 74.6676,-130.873 68.9921,-129.914"/>
<polygon fill="#edc8ff" stroke="#edc8ff" points="69.1641,-127.119 60.9673,-129.276 68.7201,-132.702 69.1641,-127.119"/>
</a>
</g>
<!-- SP4_PML&#45;&gt;FOSL2_SMARCC1 -->
<g id="edge68" class="edge"><title>SP4_PML&#45;&gt;FOSL2_SMARCC1</title>
<a xlink:title="FOSL2: 0.664||SMARCC1: 0.073||remove36root">
<path fill="none" stroke="#e2a7ff" stroke-width="3" d="M40.9575,-117.912C46.3829,-108.515 53.0997,-96.8808 59.035,-86.6005"/>
<polygon fill="#e2a7ff" stroke="#e2a7ff" points="61.6139,-87.7337 63.1891,-79.4055 56.7641,-84.9337 61.6139,-87.7337"/>
</a>
</g>
<!-- SP4_PML&#45;&gt;DBX2_HLX -->
<g id="edge70" class="edge"><title>SP4_PML&#45;&gt;DBX2_HLX</title>
<a xlink:title="HLX: 0.023||remove6root">
<path fill="none" stroke="#eecaff" stroke-width="3" d="M60.9601,-127.51C84.059,-119.494 114.815,-105.199 132.86,-82.08 141.219,-71.3705 145.195,-56.8269 147.055,-44.302"/>
<polygon fill="#eecaff" stroke="#eecaff" points="149.875,-44.2985 148.032,-36.0253 144.313,-43.6417 149.875,-44.2985"/>
</a>
</g>
<!-- HOXA10_HOXB9 -->
<g id="node42" class="node"><title>HOXA10_HOXB9</title>
<a xlink:href="HOXA10_HOXB9.svg" xlink:title="Z&#45;value: 0.533||remove31">
<polygon fill="#b6bdff" stroke="#b6bdff" stroke-width="2" points="344.999,-79.2 274.499,-79.2 262.499,-67.2 262.499,-55.2 274.499,-43.2 344.999,-43.2 356.999,-55.2 356.999,-67.2 344.999,-79.2"/>
<path fill="#b6bdff" stroke="#b6bdff" stroke-width="2" d="M274.499,-79.2C268.499,-79.2 262.499,-73.2 262.499,-67.2"/>
<path fill="#b6bdff" stroke="#b6bdff" stroke-width="2" d="M262.499,-55.2C262.499,-49.2 268.499,-43.2 274.499,-43.2"/>
<path fill="#b6bdff" stroke="#b6bdff" stroke-width="2" d="M344.999,-43.2C350.999,-43.2 356.999,-49.2 356.999,-55.2"/>
<path fill="#b6bdff" stroke="#b6bdff" stroke-width="2" d="M356.999,-67.2C356.999,-73.2 350.999,-79.2 344.999,-79.2"/>
<polyline fill="none" stroke="white" stroke-width="2" points="344.999,-79.2 274.499,-79.2 "/>
<path fill="none" stroke="white" stroke-width="2" d="M274.499,-79.2C268.499,-79.2 262.499,-73.2 262.499,-67.2"/>
<polyline fill="none" stroke="white" stroke-width="2" points="262.499,-67.2 262.499,-55.2 "/>
<path fill="none" stroke="white" stroke-width="2" d="M262.499,-55.2C262.499,-49.2 268.499,-43.2 274.499,-43.2"/>
<polyline fill="none" stroke="white" stroke-width="2" points="274.499,-43.2 344.999,-43.2 "/>
<path fill="none" stroke="white" stroke-width="2" d="M344.999,-43.2C350.999,-43.2 356.999,-49.2 356.999,-55.2"/>
<polyline fill="none" stroke="white" stroke-width="2" points="356.999,-55.2 356.999,-67.2 "/>
<path fill="none" stroke="white" stroke-width="2" d="M356.999,-67.2C356.999,-73.2 350.999,-79.2 344.999,-79.2"/>
<text text-anchor="middle" x="309.749" y="-58.7" font-family="Helvetica,sans-Serif" font-size="10.00">HOXA10_HOXB9</text>
</a>
</g>
<!-- SP4_PML&#45;&gt;HOXA10_HOXB9 -->
<g id="edge62" class="edge"><title>SP4_PML&#45;&gt;HOXA10_HOXB9</title>
<a xlink:title="HOXA10: 0.203||remove21root">
<path fill="none" stroke="#ebc0ff" stroke-width="3" d="M60.9161,-127.875C107.224,-115.467 196.141,-91.6413 254.184,-76.0885"/>
<polygon fill="#ebc0ff" stroke="#ebc0ff" points="255.159,-78.7261 262.162,-73.9509 253.71,-73.317 255.159,-78.7261"/>
</a>
</g>
<!-- FOSL2_SMARCC1&#45;&gt;SMAD3 -->
<g id="edge74" class="edge"><title>FOSL2_SMARCC1&#45;&gt;SMAD3</title>
<a xlink:title="SMAD3: 0.722||remove37root">
<path fill="none" stroke="#a4adff" stroke-width="3" d="M91.8827,-79.3827C112.302,-99.8017 145.513,-133.013 167.969,-155.469"/>
<polygon fill="#a4adff" stroke="#a4adff" points="166.078,-157.538 173.715,-161.215 170.038,-153.578 166.078,-157.538"/>
</a>
</g>
<!-- DBX2_HLX&#45;&gt;SMAD3 -->
<g id="edge78" class="edge"><title>DBX2_HLX&#45;&gt;SMAD3</title>
<a xlink:title="SMAD3: 0.551||remove34root">
<path fill="none" stroke="#adb5ff" stroke-width="3" d="M153.396,-36.1811C161.045,-64.7264 175.904,-120.183 184.706,-153.029"/>
<polygon fill="#adb5ff" stroke="#adb5ff" points="182.029,-153.86 186.805,-160.863 187.438,-152.41 182.029,-153.86"/>
</a>
</g>
<!-- DBX2_HLX&#45;&gt;POU1F1 -->
<g id="edge76" class="edge"><title>DBX2_HLX&#45;&gt;POU1F1</title>
<a xlink:title="POU1F1: 0.042||remove10root">
<path fill="none" stroke="#edc9ff" stroke-width="3" d="M182.672,-18C188.058,-18 193.641,-18 199.064,-18"/>
<polygon fill="#edc9ff" stroke="#edc9ff" points="199.405,-20.8001 207.405,-18 199.405,-15.2001 199.405,-20.8001"/>
</a>
</g>
<!-- POU1F1&#45;&gt;SMAD3 -->
<g id="edge98" class="edge"><title>POU1F1&#45;&gt;SMAD3</title>
<a xlink:title="SMAD3: 0.513||remove30root">
<path fill="none" stroke="#afb7ff" stroke-width="3" d="M230.053,-36.1811C222.404,-64.7264 207.545,-120.183 198.744,-153.029"/>
<polygon fill="#afb7ff" stroke="#afb7ff" points="196.011,-152.41 196.645,-160.863 201.42,-153.86 196.011,-152.41"/>
</a>
</g>
<!-- HOXA10_HOXB9&#45;&gt;SMAD3 -->
<g id="edge96" class="edge"><title>HOXA10_HOXB9&#45;&gt;SMAD3</title>
<a xlink:title="SMAD3: 0.516||remove31root">
<path fill="none" stroke="#afb7ff" stroke-width="3" d="M291.567,-79.3827C271.148,-99.8017 237.937,-133.013 215.48,-155.469"/>
<polygon fill="#afb7ff" stroke="#afb7ff" points="213.411,-153.578 209.734,-161.215 217.371,-157.538 213.411,-153.578"/>
</a>
</g>
<!-- SP3 -->
<g id="node52" class="node"><title>SP3</title>
<a xlink:href="SP3.svg" xlink:title="Z&#45;value: 1.634||remove35">
<polygon fill="#8a96ff" stroke="#8a96ff" stroke-width="2" points="367.949,-154.025 337.949,-154.025 325.949,-142.025 325.949,-130.025 337.949,-118.025 367.949,-118.025 379.949,-130.025 379.949,-142.025 367.949,-154.025"/>
<path fill="#8a96ff" stroke="#8a96ff" stroke-width="2" d="M337.949,-154.025C331.949,-154.025 325.949,-148.025 325.949,-142.025"/>
<path fill="#8a96ff" stroke="#8a96ff" stroke-width="2" d="M325.949,-130.025C325.949,-124.025 331.949,-118.025 337.949,-118.025"/>
<path fill="#8a96ff" stroke="#8a96ff" stroke-width="2" d="M367.949,-118.025C373.949,-118.025 379.949,-124.025 379.949,-130.025"/>
<path fill="#8a96ff" stroke="#8a96ff" stroke-width="2" d="M379.949,-142.025C379.949,-148.025 373.949,-154.025 367.949,-154.025"/>
<polyline fill="none" stroke="white" stroke-width="2" points="367.949,-154.025 337.949,-154.025 "/>
<path fill="none" stroke="white" stroke-width="2" d="M337.949,-154.025C331.949,-154.025 325.949,-148.025 325.949,-142.025"/>
<polyline fill="none" stroke="white" stroke-width="2" points="325.949,-142.025 325.949,-130.025 "/>
<path fill="none" stroke="white" stroke-width="2" d="M325.949,-130.025C325.949,-124.025 331.949,-118.025 337.949,-118.025"/>
<polyline fill="none" stroke="white" stroke-width="2" points="337.949,-118.025 367.949,-118.025 "/>
<path fill="none" stroke="white" stroke-width="2" d="M367.949,-118.025C373.949,-118.025 379.949,-124.025 379.949,-130.025"/>
<polyline fill="none" stroke="white" stroke-width="2" points="379.949,-130.025 379.949,-142.025 "/>
<path fill="none" stroke="white" stroke-width="2" d="M379.949,-142.025C379.949,-148.025 373.949,-154.025 367.949,-154.025"/>
<text text-anchor="middle" x="352.949" y="-133.525" font-family="Helvetica,sans-Serif" font-size="10.00">SP3</text>
</a>
</g>
<!-- SP3&#45;&gt;ESRRA_ESR2 -->
<g id="edge88" class="edge"><title>SP3&#45;&gt;ESRRA_ESR2</title>
<a xlink:title="ESRRA: 1.361||ESR2: 0.109||remove35">
<path fill="none" stroke="#d681ff" stroke-width="3" d="M352.949,-154.348C352.949,-166.572 352.949,-182.828 352.949,-196.389"/>
<polygon fill="#d681ff" stroke="#d681ff" points="350.149,-196.424 352.949,-204.424 355.749,-196.424 350.149,-196.424"/>
</a>
</g>
<!-- SP3&#45;&gt;MXI1_MYC_MYCN -->
<g id="edge80" class="edge"><title>SP3&#45;&gt;MXI1_MYC_MYCN</title>
<a xlink:title="MYCN: 0.237||MXI1: 0.146||remove25root">
<path fill="none" stroke="#eabeff" stroke-width="3" d="M334.585,-154.237C323.616,-166.462 310.702,-183.572 304.809,-201.545 297.371,-224.231 299.824,-251.556 303.416,-271.19"/>
<polygon fill="#eabeff" stroke="#eabeff" points="300.683,-271.804 305,-279.098 306.174,-270.704 300.683,-271.804"/>
</a>
</g>
<!-- SP3&#45;&gt;FOSB -->
<g id="edge82" class="edge"><title>SP3&#45;&gt;FOSB</title>
<a xlink:title="FOSB: 0.037||remove8root">
<path fill="none" stroke="#eec9ff" stroke-width="3" d="M335.593,-154.424C312.571,-179.845 272.259,-228.066 250.009,-276.369 244.492,-288.346 240.884,-302.543 238.585,-314.526"/>
<polygon fill="#eec9ff" stroke="#eec9ff" points="235.826,-314.05 237.195,-322.414 241.341,-315.022 235.826,-314.05"/>
</a>
</g>
<!-- SP3&#45;&gt;ZNF711_TFAP2A_TFAP2D -->
<g id="edge84" class="edge"><title>SP3&#45;&gt;ZNF711_TFAP2A_TFAP2D</title>
<a xlink:title="TFAP2A: 0.666||ZNF711: 0.060||remove35">
<path fill="none" stroke="#e2a7ff" stroke-width="3" d="M325.92,-151.63C276.04,-180.428 169.394,-242 112.056,-275.105"/>
<polygon fill="#e2a7ff" stroke="#e2a7ff" points="110.506,-272.766 104.977,-279.191 113.306,-277.616 110.506,-272.766"/>
</a>
</g>
<!-- SP3&#45;&gt;MEIS2 -->
<g id="edge92" class="edge"><title>SP3&#45;&gt;MEIS2</title>
<a xlink:title="MEIS2: 0.022||remove5root">
<path fill="none" stroke="#eecaff" stroke-width="3" d="M325.701,-152.928C300.167,-167.912 260.431,-189.077 223.045,-200.105 169.781,-215.816 105.18,-220.546 65.9897,-221.924"/>
<polygon fill="#eecaff" stroke="#eecaff" points="65.4602,-219.139 57.5497,-222.183 65.6317,-224.736 65.4602,-219.139"/>
</a>
</g>
<!-- SP3&#45;&gt;SMAD3 -->
<g id="edge94" class="edge"><title>SP3&#45;&gt;SMAD3</title>
<a xlink:title="SMAD3: 0.591||remove35root">
<path fill="none" stroke="#abb3ff" stroke-width="3" d="M325.6,-143.353C298.418,-150.636 256.613,-161.838 226.958,-169.784"/>
<polygon fill="#abb3ff" stroke="#abb3ff" points="225.941,-167.157 218.939,-171.933 227.391,-172.567 225.941,-167.157"/>
</a>
</g>
<!-- SP3&#45;&gt;SP4_PML -->
<g id="edge86" class="edge"><title>SP3&#45;&gt;SP4_PML</title>
<a xlink:title="SP4: 0.099||remove15root">
<path fill="none" stroke="#ecc6ff" stroke-width="3" d="M325.735,-136.025C268.367,-136.025 134.886,-136.025 68.8729,-136.025"/>
<polygon fill="#ecc6ff" stroke="#ecc6ff" points="68.7843,-133.225 60.7843,-136.025 68.7842,-138.825 68.7843,-133.225"/>
</a>
</g>
<!-- SP3&#45;&gt;FOSL2_SMARCC1 -->
<g id="edge90" class="edge"><title>SP3&#45;&gt;FOSL2_SMARCC1</title>
<a xlink:title="FOSL2: 0.685||SMARCC1: 0.174||remove35">
<path fill="none" stroke="#e2a6ff" stroke-width="3" d="M325.92,-128.782C281.382,-116.848 191.583,-92.7867 132.042,-76.8326"/>
<polygon fill="#e2a6ff" stroke="#e2a6ff" points="132.664,-74.1006 124.212,-74.7346 131.214,-79.5098 132.664,-74.1006"/>
</a>
</g>
</g>
</svg>
