<?xml version="1.0" encoding="UTF-8" standalone="no"?>
<!DOCTYPE svg PUBLIC "-//W3C//DTD SVG 1.1//EN"
 "http://www.w3.org/Graphics/SVG/1.1/DTD/svg11.dtd">
<!-- Generated by graphviz version 2.28.0 (20110630.0925)
 -->
<!-- Title: _anonymous_0 Pages: 1 -->
<svg width="448pt" height="366pt"
 viewBox="0.00 0.00 447.95 366.45" xmlns="http://www.w3.org/2000/svg" xmlns:xlink="http://www.w3.org/1999/xlink">
<g id="graph1" class="graph" transform="scale(1 1) rotate(0) translate(4 362.449)">
<title>_anonymous_0</title>
<polygon fill="white" stroke="white" points="-4,5 -4,-362.449 444.949,-362.449 444.949,5 -4,5"/>
<!-- PATZ1_KLF4 -->
<g id="node1" class="node"><title>PATZ1_KLF4</title>
<a xlink:href="PATZ1_KLF4.svg" xlink:title="Z&#45;value: 1.751||remove24">
<polygon fill="#3247ff" stroke="#3247ff" stroke-width="2" points="64,-240.425 12,-240.425 -7.10543e-15,-228.425 -7.10543e-15,-216.425 12,-204.425 64,-204.425 76,-216.425 76,-228.425 64,-240.425"/>
<path fill="#3247ff" stroke="#3247ff" stroke-width="2" d="M12,-240.425C6,-240.425 -7.10543e-15,-234.425 -7.10543e-15,-228.425"/>
<path fill="#3247ff" stroke="#3247ff" stroke-width="2" d="M-7.10543e-15,-216.425C-7.10543e-15,-210.425 6,-204.425 12,-204.425"/>
<path fill="#3247ff" stroke="#3247ff" stroke-width="2" d="M64,-204.425C70,-204.425 76,-210.425 76,-216.425"/>
<path fill="#3247ff" stroke="#3247ff" stroke-width="2" d="M76,-228.425C76,-234.425 70,-240.425 64,-240.425"/>
<polyline fill="none" stroke="white" stroke-width="2" points="64,-240.425 12,-240.425 "/>
<path fill="none" stroke="white" stroke-width="2" d="M12,-240.425C6,-240.425 -7.10543e-15,-234.425 -7.10543e-15,-228.425"/>
<polyline fill="none" stroke="white" stroke-width="2" points="-7.10543e-15,-228.425 -7.10543e-15,-216.425 "/>
<path fill="none" stroke="white" stroke-width="2" d="M-7.10543e-15,-216.425C-7.10543e-15,-210.425 6,-204.425 12,-204.425"/>
<polyline fill="none" stroke="white" stroke-width="2" points="12,-204.425 64,-204.425 "/>
<path fill="none" stroke="white" stroke-width="2" d="M64,-204.425C70,-204.425 76,-210.425 76,-216.425"/>
<polyline fill="none" stroke="white" stroke-width="2" points="76,-216.425 76,-228.425 "/>
<path fill="none" stroke="white" stroke-width="2" d="M76,-228.425C76,-234.425 70,-240.425 64,-240.425"/>
<text text-anchor="middle" x="38" y="-219.925" font-family="Helvetica,sans-Serif" font-size="10.00" fill="white">PATZ1_KLF4</text>
</a>
</g>
<!-- PATZ1_KLF4&#45;&gt;PATZ1_KLF4 -->
<g id="edge2" class="edge"><title>PATZ1_KLF4&#45;&gt;PATZ1_KLF4</title>
<a xlink:title="PATZ1: 0.441||KLF4: 0.051||remove24">
<path fill="none" stroke="#d275ff" stroke-width="3" d="M76.214,-229.115C86.3346,-228.733 94,-226.503 94,-222.425 94,-219.557 90.2104,-217.603 84.4422,-216.563"/>
<polygon fill="#d275ff" stroke="#d275ff" points="84.4544,-213.75 76.214,-215.734 83.8929,-219.322 84.4544,-213.75"/>
</a>
</g>
<!-- TFEC_MITF_ARNTL_BHLHE41 -->
<g id="node3" class="node"><title>TFEC_MITF_ARNTL_BHLHE41</title>
<a xlink:href="TFEC_MITF_ARNTL_BHLHE41.svg" xlink:title="Z&#45;value: 0.735||remove22">
<polygon fill="#8b97ff" stroke="#8b97ff" stroke-width="2" points="427.699,-240.425 293.199,-240.425 281.199,-228.425 281.199,-216.425 293.199,-204.425 427.699,-204.425 439.699,-216.425 439.699,-228.425 427.699,-240.425"/>
<path fill="#8b97ff" stroke="#8b97ff" stroke-width="2" d="M293.199,-240.425C287.199,-240.425 281.199,-234.425 281.199,-228.425"/>
<path fill="#8b97ff" stroke="#8b97ff" stroke-width="2" d="M281.199,-216.425C281.199,-210.425 287.199,-204.425 293.199,-204.425"/>
<path fill="#8b97ff" stroke="#8b97ff" stroke-width="2" d="M427.699,-204.425C433.699,-204.425 439.699,-210.425 439.699,-216.425"/>
<path fill="#8b97ff" stroke="#8b97ff" stroke-width="2" d="M439.699,-228.425C439.699,-234.425 433.699,-240.425 427.699,-240.425"/>
<polyline fill="none" stroke="white" stroke-width="2" points="427.699,-240.425 293.199,-240.425 "/>
<path fill="none" stroke="white" stroke-width="2" d="M293.199,-240.425C287.199,-240.425 281.199,-234.425 281.199,-228.425"/>
<polyline fill="none" stroke="white" stroke-width="2" points="281.199,-228.425 281.199,-216.425 "/>
<path fill="none" stroke="white" stroke-width="2" d="M281.199,-216.425C281.199,-210.425 287.199,-204.425 293.199,-204.425"/>
<polyline fill="none" stroke="white" stroke-width="2" points="293.199,-204.425 427.699,-204.425 "/>
<path fill="none" stroke="white" stroke-width="2" d="M427.699,-204.425C433.699,-204.425 439.699,-210.425 439.699,-216.425"/>
<polyline fill="none" stroke="white" stroke-width="2" points="439.699,-216.425 439.699,-228.425 "/>
<path fill="none" stroke="white" stroke-width="2" d="M439.699,-228.425C439.699,-234.425 433.699,-240.425 427.699,-240.425"/>
<text text-anchor="middle" x="360.449" y="-219.925" font-family="Helvetica,sans-Serif" font-size="10.00">TFEC_MITF_ARNTL_BHLHE41</text>
</a>
</g>
<!-- PATZ1_KLF4&#45;&gt;TFEC_MITF_ARNTL_BHLHE41 -->
<g id="edge4" class="edge"><title>PATZ1_KLF4&#45;&gt;TFEC_MITF_ARNTL_BHLHE41</title>
<a xlink:title="MITF: 0.531||remove22">
<path fill="none" stroke="#cd63ff" stroke-width="3" d="M76.2554,-222.425C124.33,-222.425 208.317,-222.425 272.562,-222.425"/>
<polygon fill="#cd63ff" stroke="#cd63ff" points="272.693,-225.225 280.693,-222.425 272.692,-219.625 272.693,-225.225"/>
</a>
</g>
<!-- SMAD1 -->
<g id="node5" class="node"><title>SMAD1</title>
<a xlink:href="SMAD1.svg" xlink:title="Z&#45;value: 1.536||remove12">
<polygon fill="#4558ff" stroke="#4558ff" stroke-width="2" points="332.249,-315.249 302.249,-315.249 290.249,-303.249 290.249,-291.249 302.249,-279.249 332.249,-279.249 344.249,-291.249 344.249,-303.249 332.249,-315.249"/>
<path fill="#4558ff" stroke="#4558ff" stroke-width="2" d="M302.249,-315.249C296.249,-315.249 290.249,-309.249 290.249,-303.249"/>
<path fill="#4558ff" stroke="#4558ff" stroke-width="2" d="M290.249,-291.249C290.249,-285.249 296.249,-279.249 302.249,-279.249"/>
<path fill="#4558ff" stroke="#4558ff" stroke-width="2" d="M332.249,-279.249C338.249,-279.249 344.249,-285.249 344.249,-291.249"/>
<path fill="#4558ff" stroke="#4558ff" stroke-width="2" d="M344.249,-303.249C344.249,-309.249 338.249,-315.249 332.249,-315.249"/>
<polyline fill="none" stroke="white" stroke-width="2" points="332.249,-315.249 302.249,-315.249 "/>
<path fill="none" stroke="white" stroke-width="2" d="M302.249,-315.249C296.249,-315.249 290.249,-309.249 290.249,-303.249"/>
<polyline fill="none" stroke="white" stroke-width="2" points="290.249,-303.249 290.249,-291.249 "/>
<path fill="none" stroke="white" stroke-width="2" d="M290.249,-291.249C290.249,-285.249 296.249,-279.249 302.249,-279.249"/>
<polyline fill="none" stroke="white" stroke-width="2" points="302.249,-279.249 332.249,-279.249 "/>
<path fill="none" stroke="white" stroke-width="2" d="M332.249,-279.249C338.249,-279.249 344.249,-285.249 344.249,-291.249"/>
<polyline fill="none" stroke="white" stroke-width="2" points="344.249,-291.249 344.249,-303.249 "/>
<path fill="none" stroke="white" stroke-width="2" d="M344.249,-303.249C344.249,-309.249 338.249,-315.249 332.249,-315.249"/>
<text text-anchor="middle" x="317.249" y="-294.749" font-family="Helvetica,sans-Serif" font-size="10.00" fill="white">SMAD1</text>
</a>
</g>
<!-- PATZ1_KLF4&#45;&gt;SMAD1 -->
<g id="edge6" class="edge"><title>PATZ1_KLF4&#45;&gt;SMAD1</title>
<a xlink:title="SMAD1: 0.087||KLF4: 0.044||remove12">
<path fill="none" stroke="#e9baff" stroke-width="3" d="M84.5004,-233.849C140.071,-248.739 232.081,-273.393 282.24,-286.833"/>
<path fill="none" stroke="#ebc3ff" stroke-width="3" d="M83.9827,-235.781C139.553,-250.671 231.563,-275.325 281.723,-288.765"/>
<polygon fill="#ebc3ff" stroke="#ebc3ff" points="84.695,-232.038 76.2429,-232.672 83.2456,-237.447 84.695,-232.038"/>
<polygon fill="#e9baff" stroke="#e9baff" points="281.504,-290.57 289.956,-289.936 282.954,-285.161 281.504,-290.57"/>
</a>
</g>
<!-- HOXB4_LHX9 -->
<g id="node7" class="node"><title>HOXB4_LHX9</title>
<a xlink:href="HOXB4_LHX9.svg" xlink:title="Z&#45;value: 0.396||remove18">
<polygon fill="#a9b1ff" stroke="#a9b1ff" stroke-width="2" points="270.425,-358.449 214.425,-358.449 202.425,-346.449 202.425,-334.449 214.425,-322.449 270.425,-322.449 282.425,-334.449 282.425,-346.449 270.425,-358.449"/>
<path fill="#a9b1ff" stroke="#a9b1ff" stroke-width="2" d="M214.425,-358.449C208.425,-358.449 202.425,-352.449 202.425,-346.449"/>
<path fill="#a9b1ff" stroke="#a9b1ff" stroke-width="2" d="M202.425,-334.449C202.425,-328.449 208.425,-322.449 214.425,-322.449"/>
<path fill="#a9b1ff" stroke="#a9b1ff" stroke-width="2" d="M270.425,-322.449C276.425,-322.449 282.425,-328.449 282.425,-334.449"/>
<path fill="#a9b1ff" stroke="#a9b1ff" stroke-width="2" d="M282.425,-346.449C282.425,-352.449 276.425,-358.449 270.425,-358.449"/>
<polyline fill="none" stroke="white" stroke-width="2" points="270.425,-358.449 214.425,-358.449 "/>
<path fill="none" stroke="white" stroke-width="2" d="M214.425,-358.449C208.425,-358.449 202.425,-352.449 202.425,-346.449"/>
<polyline fill="none" stroke="white" stroke-width="2" points="202.425,-346.449 202.425,-334.449 "/>
<path fill="none" stroke="white" stroke-width="2" d="M202.425,-334.449C202.425,-328.449 208.425,-322.449 214.425,-322.449"/>
<polyline fill="none" stroke="white" stroke-width="2" points="214.425,-322.449 270.425,-322.449 "/>
<path fill="none" stroke="white" stroke-width="2" d="M270.425,-322.449C276.425,-322.449 282.425,-328.449 282.425,-334.449"/>
<polyline fill="none" stroke="white" stroke-width="2" points="282.425,-334.449 282.425,-346.449 "/>
<path fill="none" stroke="white" stroke-width="2" d="M282.425,-346.449C282.425,-352.449 276.425,-358.449 270.425,-358.449"/>
<text text-anchor="middle" x="242.425" y="-337.949" font-family="Helvetica,sans-Serif" font-size="10.00">HOXB4_LHX9</text>
</a>
</g>
<!-- PATZ1_KLF4&#45;&gt;HOXB4_LHX9 -->
<g id="edge8" class="edge"><title>PATZ1_KLF4&#45;&gt;HOXB4_LHX9</title>
<a xlink:title="HOXB4: 0.273||remove18">
<path fill="none" stroke="#dd96ff" stroke-width="3" d="M69.4933,-240.607C105.763,-261.548 165.335,-295.941 204.221,-318.392"/>
<polygon fill="#dd96ff" stroke="#dd96ff" points="202.903,-320.864 211.231,-322.44 205.703,-316.015 202.903,-320.864"/>
</a>
</g>
<!-- SOX17 -->
<g id="node9" class="node"><title>SOX17</title>
<a xlink:href="SOX17.svg" xlink:title="Z&#45;value: 0.489||remove25">
<polygon fill="#ffa1a1" stroke="#ffa1a1" stroke-width="2" points="214.225,-197.225 184.225,-197.225 172.225,-185.225 172.225,-173.225 184.225,-161.225 214.225,-161.225 226.225,-173.225 226.225,-185.225 214.225,-197.225"/>
<path fill="#ffa1a1" stroke="#ffa1a1" stroke-width="2" d="M184.225,-197.225C178.225,-197.225 172.225,-191.225 172.225,-185.225"/>
<path fill="#ffa1a1" stroke="#ffa1a1" stroke-width="2" d="M172.225,-173.225C172.225,-167.225 178.225,-161.225 184.225,-161.225"/>
<path fill="#ffa1a1" stroke="#ffa1a1" stroke-width="2" d="M214.225,-161.225C220.225,-161.225 226.225,-167.225 226.225,-173.225"/>
<path fill="#ffa1a1" stroke="#ffa1a1" stroke-width="2" d="M226.225,-185.225C226.225,-191.225 220.225,-197.225 214.225,-197.225"/>
<polyline fill="none" stroke="white" stroke-width="2" points="214.225,-197.225 184.225,-197.225 "/>
<path fill="none" stroke="white" stroke-width="2" d="M184.225,-197.225C178.225,-197.225 172.225,-191.225 172.225,-185.225"/>
<polyline fill="none" stroke="white" stroke-width="2" points="172.225,-185.225 172.225,-173.225 "/>
<path fill="none" stroke="white" stroke-width="2" d="M172.225,-173.225C172.225,-167.225 178.225,-161.225 184.225,-161.225"/>
<polyline fill="none" stroke="white" stroke-width="2" points="184.225,-161.225 214.225,-161.225 "/>
<path fill="none" stroke="white" stroke-width="2" d="M214.225,-161.225C220.225,-161.225 226.225,-167.225 226.225,-173.225"/>
<polyline fill="none" stroke="white" stroke-width="2" points="226.225,-173.225 226.225,-185.225 "/>
<path fill="none" stroke="white" stroke-width="2" d="M226.225,-185.225C226.225,-191.225 220.225,-197.225 214.225,-197.225"/>
<text text-anchor="middle" x="199.225" y="-176.725" font-family="Helvetica,sans-Serif" font-size="10.00">SOX17</text>
</a>
</g>
<!-- PATZ1_KLF4&#45;&gt;SOX17 -->
<g id="edge10" class="edge"><title>PATZ1_KLF4&#45;&gt;SOX17</title>
<a xlink:title="SOX17: 0.252||remove24root">
<path fill="none" stroke="#9aa4ff" stroke-width="3" d="M76.208,-212.187C102.875,-205.042 138.196,-195.577 164.148,-188.623"/>
<polygon fill="#9aa4ff" stroke="#9aa4ff" points="164.878,-191.327 171.881,-186.551 163.429,-185.917 164.878,-191.327"/>
</a>
</g>
<!-- KLF8 -->
<g id="node11" class="node"><title>KLF8</title>
<a xlink:href="KLF8.svg" xlink:title="Z&#45;value: 0.759||remove14">
<polygon fill="#8995ff" stroke="#8995ff" stroke-width="2" points="53,-154.025 23,-154.025 11,-142.025 11,-130.025 23,-118.025 53,-118.025 65,-130.025 65,-142.025 53,-154.025"/>
<path fill="#8995ff" stroke="#8995ff" stroke-width="2" d="M23,-154.025C17,-154.025 11,-148.025 11,-142.025"/>
<path fill="#8995ff" stroke="#8995ff" stroke-width="2" d="M11,-130.025C11,-124.025 17,-118.025 23,-118.025"/>
<path fill="#8995ff" stroke="#8995ff" stroke-width="2" d="M53,-118.025C59,-118.025 65,-124.025 65,-130.025"/>
<path fill="#8995ff" stroke="#8995ff" stroke-width="2" d="M65,-142.025C65,-148.025 59,-154.025 53,-154.025"/>
<polyline fill="none" stroke="white" stroke-width="2" points="53,-154.025 23,-154.025 "/>
<path fill="none" stroke="white" stroke-width="2" d="M23,-154.025C17,-154.025 11,-148.025 11,-142.025"/>
<polyline fill="none" stroke="white" stroke-width="2" points="11,-142.025 11,-130.025 "/>
<path fill="none" stroke="white" stroke-width="2" d="M11,-130.025C11,-124.025 17,-118.025 23,-118.025"/>
<polyline fill="none" stroke="white" stroke-width="2" points="23,-118.025 53,-118.025 "/>
<path fill="none" stroke="white" stroke-width="2" d="M53,-118.025C59,-118.025 65,-124.025 65,-130.025"/>
<polyline fill="none" stroke="white" stroke-width="2" points="65,-130.025 65,-142.025 "/>
<path fill="none" stroke="white" stroke-width="2" d="M65,-142.025C65,-148.025 59,-154.025 53,-154.025"/>
<text text-anchor="middle" x="38" y="-133.525" font-family="Helvetica,sans-Serif" font-size="10.00">KLF8</text>
</a>
</g>
<!-- PATZ1_KLF4&#45;&gt;KLF8 -->
<g id="edge12" class="edge"><title>PATZ1_KLF4&#45;&gt;KLF8</title>
<a xlink:title="KLF8: 0.115||remove14">
<path fill="none" stroke="#e7b5ff" stroke-width="3" d="M38,-204.101C38,-191.877 38,-175.621 38,-162.06"/>
<polygon fill="#e7b5ff" stroke="#e7b5ff" points="40.8001,-162.025 38,-154.025 35.2001,-162.025 40.8001,-162.025"/>
</a>
</g>
<!-- ZBTB6 -->
<g id="node13" class="node"><title>ZBTB6</title>
<a xlink:href="ZBTB6.svg" xlink:title="Z&#45;value: 0.776||remove20">
<polygon fill="#8894ff" stroke="#8894ff" stroke-width="2" points="171.025,-358.449 141.025,-358.449 129.025,-346.449 129.025,-334.449 141.025,-322.449 171.025,-322.449 183.025,-334.449 183.025,-346.449 171.025,-358.449"/>
<path fill="#8894ff" stroke="#8894ff" stroke-width="2" d="M141.025,-358.449C135.025,-358.449 129.025,-352.449 129.025,-346.449"/>
<path fill="#8894ff" stroke="#8894ff" stroke-width="2" d="M129.025,-334.449C129.025,-328.449 135.025,-322.449 141.025,-322.449"/>
<path fill="#8894ff" stroke="#8894ff" stroke-width="2" d="M171.025,-322.449C177.025,-322.449 183.025,-328.449 183.025,-334.449"/>
<path fill="#8894ff" stroke="#8894ff" stroke-width="2" d="M183.025,-346.449C183.025,-352.449 177.025,-358.449 171.025,-358.449"/>
<polyline fill="none" stroke="white" stroke-width="2" points="171.025,-358.449 141.025,-358.449 "/>
<path fill="none" stroke="white" stroke-width="2" d="M141.025,-358.449C135.025,-358.449 129.025,-352.449 129.025,-346.449"/>
<polyline fill="none" stroke="white" stroke-width="2" points="129.025,-346.449 129.025,-334.449 "/>
<path fill="none" stroke="white" stroke-width="2" d="M129.025,-334.449C129.025,-328.449 135.025,-322.449 141.025,-322.449"/>
<polyline fill="none" stroke="white" stroke-width="2" points="141.025,-322.449 171.025,-322.449 "/>
<path fill="none" stroke="white" stroke-width="2" d="M171.025,-322.449C177.025,-322.449 183.025,-328.449 183.025,-334.449"/>
<polyline fill="none" stroke="white" stroke-width="2" points="183.025,-334.449 183.025,-346.449 "/>
<path fill="none" stroke="white" stroke-width="2" d="M183.025,-346.449C183.025,-352.449 177.025,-358.449 171.025,-358.449"/>
<text text-anchor="middle" x="156.025" y="-337.949" font-family="Helvetica,sans-Serif" font-size="10.00">ZBTB6</text>
</a>
</g>
<!-- PATZ1_KLF4&#45;&gt;ZBTB6 -->
<g id="edge14" class="edge"><title>PATZ1_KLF4&#45;&gt;ZBTB6</title>
<a xlink:title="ZBTB6: 0.020||PATZ1: 0.059||remove13root">
<path fill="none" stroke="#edc8ff" stroke-width="3" d="M75.3169,-244.408C88.0956,-253.291 101.966,-264.07 113.238,-275.673 124.614,-287.417 134.904,-302.277 142.672,-314.804"/>
<path fill="none" stroke="#eac0ff" stroke-width="3" d="M74.1755,-246.05C86.8684,-254.87 100.739,-265.65 111.802,-277.066 122.97,-288.555 133.26,-303.415 140.972,-315.858"/>
<polygon fill="#eac0ff" stroke="#eac0ff" points="76.0026,-242.698 67.8119,-240.517 72.8553,-247.33 76.0026,-242.698"/>
<polygon fill="#edc8ff" stroke="#edc8ff" points="139.538,-316.966 146.072,-322.365 144.331,-314.07 139.538,-316.966"/>
</a>
</g>
<!-- KLF15 -->
<g id="node19" class="node"><title>KLF15</title>
<a xlink:href="KLF15.svg" xlink:title="Z&#45;value: 0.597||remove16">
<polygon fill="#97a2ff" stroke="#97a2ff" stroke-width="2" points="96.2,-79.2 66.2,-79.2 54.2,-67.2 54.2,-55.2 66.2,-43.2 96.2,-43.2 108.2,-55.2 108.2,-67.2 96.2,-79.2"/>
<path fill="#97a2ff" stroke="#97a2ff" stroke-width="2" d="M66.2,-79.2C60.2,-79.2 54.2,-73.2 54.2,-67.2"/>
<path fill="#97a2ff" stroke="#97a2ff" stroke-width="2" d="M54.2,-55.2C54.2,-49.2 60.2,-43.2 66.2,-43.2"/>
<path fill="#97a2ff" stroke="#97a2ff" stroke-width="2" d="M96.2,-43.2C102.2,-43.2 108.2,-49.2 108.2,-55.2"/>
<path fill="#97a2ff" stroke="#97a2ff" stroke-width="2" d="M108.2,-67.2C108.2,-73.2 102.2,-79.2 96.2,-79.2"/>
<polyline fill="none" stroke="white" stroke-width="2" points="96.2,-79.2 66.2,-79.2 "/>
<path fill="none" stroke="white" stroke-width="2" d="M66.2,-79.2C60.2,-79.2 54.2,-73.2 54.2,-67.2"/>
<polyline fill="none" stroke="white" stroke-width="2" points="54.2,-67.2 54.2,-55.2 "/>
<path fill="none" stroke="white" stroke-width="2" d="M54.2,-55.2C54.2,-49.2 60.2,-43.2 66.2,-43.2"/>
<polyline fill="none" stroke="white" stroke-width="2" points="66.2,-43.2 96.2,-43.2 "/>
<path fill="none" stroke="white" stroke-width="2" d="M96.2,-43.2C102.2,-43.2 108.2,-49.2 108.2,-55.2"/>
<polyline fill="none" stroke="white" stroke-width="2" points="108.2,-55.2 108.2,-67.2 "/>
<path fill="none" stroke="white" stroke-width="2" d="M108.2,-67.2C108.2,-73.2 102.2,-79.2 96.2,-79.2"/>
<text text-anchor="middle" x="81.2" y="-58.7" font-family="Helvetica,sans-Serif" font-size="10.00">KLF15</text>
</a>
</g>
<!-- TFEC_MITF_ARNTL_BHLHE41&#45;&gt;KLF15 -->
<g id="edge34" class="edge"><title>TFEC_MITF_ARNTL_BHLHE41&#45;&gt;KLF15</title>
<a xlink:title="KLF15: 0.044||remove10root">
<path fill="none" stroke="#ebc3ff" stroke-width="3" d="M329.229,-204.399C276.516,-173.966 170.278,-112.629 115.536,-81.0239"/>
<polygon fill="#ebc3ff" stroke="#ebc3ff" points="116.812,-78.5273 108.484,-76.9522 114.012,-83.3771 116.812,-78.5273"/>
</a>
</g>
<!-- SMAD1&#45;&gt;HOXB4_LHX9 -->
<g id="edge16" class="edge"><title>SMAD1&#45;&gt;HOXB4_LHX9</title>
<a xlink:title="LHX9: 0.109||remove12">
<path fill="none" stroke="#e7b6ff" stroke-width="3" d="M290.236,-312.845C287.138,-314.634 283.937,-316.482 280.727,-318.335"/>
<polygon fill="#e7b6ff" stroke="#e7b6ff" points="279.252,-315.954 273.723,-322.379 282.052,-320.804 279.252,-315.954"/>
</a>
</g>
<!-- SMAD1&#45;&gt;ZBTB6 -->
<g id="edge20" class="edge"><title>SMAD1&#45;&gt;ZBTB6</title>
<a xlink:title="ZBTB6: 0.156||remove12">
<path fill="none" stroke="#e4adff" stroke-width="3" d="M290.176,-299.888C265.212,-302.866 227.387,-308.771 196.025,-319.569 194.279,-320.17 192.517,-320.837 190.754,-321.553"/>
<polygon fill="#e4adff" stroke="#e4adff" points="189.264,-319.151 183.086,-324.953 191.534,-324.27 189.264,-319.151"/>
</a>
</g>
<!-- ZNF691 -->
<g id="node16" class="node"><title>ZNF691</title>
<a xlink:href="ZNF691.svg" xlink:title="Z&#45;value: 0.410||remove11">
<polygon fill="#a8b0ff" stroke="#a8b0ff" stroke-width="2" points="96.2,-315.249 66.2,-315.249 54.2,-303.249 54.2,-291.249 66.2,-279.249 96.2,-279.249 108.2,-291.249 108.2,-303.249 96.2,-315.249"/>
<path fill="#a8b0ff" stroke="#a8b0ff" stroke-width="2" d="M66.2,-315.249C60.2,-315.249 54.2,-309.249 54.2,-303.249"/>
<path fill="#a8b0ff" stroke="#a8b0ff" stroke-width="2" d="M54.2,-291.249C54.2,-285.249 60.2,-279.249 66.2,-279.249"/>
<path fill="#a8b0ff" stroke="#a8b0ff" stroke-width="2" d="M96.2,-279.249C102.2,-279.249 108.2,-285.249 108.2,-291.249"/>
<path fill="#a8b0ff" stroke="#a8b0ff" stroke-width="2" d="M108.2,-303.249C108.2,-309.249 102.2,-315.249 96.2,-315.249"/>
<polyline fill="none" stroke="white" stroke-width="2" points="96.2,-315.249 66.2,-315.249 "/>
<path fill="none" stroke="white" stroke-width="2" d="M66.2,-315.249C60.2,-315.249 54.2,-309.249 54.2,-303.249"/>
<polyline fill="none" stroke="white" stroke-width="2" points="54.2,-303.249 54.2,-291.249 "/>
<path fill="none" stroke="white" stroke-width="2" d="M54.2,-291.249C54.2,-285.249 60.2,-279.249 66.2,-279.249"/>
<polyline fill="none" stroke="white" stroke-width="2" points="66.2,-279.249 96.2,-279.249 "/>
<path fill="none" stroke="white" stroke-width="2" d="M96.2,-279.249C102.2,-279.249 108.2,-285.249 108.2,-291.249"/>
<polyline fill="none" stroke="white" stroke-width="2" points="108.2,-291.249 108.2,-303.249 "/>
<path fill="none" stroke="white" stroke-width="2" d="M108.2,-303.249C108.2,-309.249 102.2,-315.249 96.2,-315.249"/>
<text text-anchor="middle" x="81.2" y="-294.749" font-family="Helvetica,sans-Serif" font-size="10.00">ZNF691</text>
</a>
</g>
<!-- SMAD1&#45;&gt;ZNF691 -->
<g id="edge18" class="edge"><title>SMAD1&#45;&gt;ZNF691</title>
<a xlink:title="ZNF691: 0.105||remove11">
<path fill="none" stroke="#e8b7ff" stroke-width="3" d="M290.171,-297.249C247.332,-297.249 163.929,-297.249 116.468,-297.249"/>
<polygon fill="#e8b7ff" stroke="#e8b7ff" points="116.325,-294.449 108.325,-297.249 116.325,-300.049 116.325,-294.449"/>
</a>
</g>
<!-- SMAD1&#45;&gt;KLF15 -->
<g id="edge22" class="edge"><title>SMAD1&#45;&gt;KLF15</title>
<a xlink:title="KLF15: 0.037||remove8root">
<path fill="none" stroke="#ecc4ff" stroke-width="3" d="M290.198,-284.287C258.193,-267.977 204.628,-237.521 167.905,-200.105 134.453,-166.022 107.568,-116.857 93.0364,-87.0798"/>
<polygon fill="#ecc4ff" stroke="#ecc4ff" points="95.426,-85.5874 89.4407,-79.5861 90.3771,-88.01 95.426,-85.5874"/>
</a>
</g>
<!-- TFCP2L1 -->
<g id="node21" class="node"><title>TFCP2L1</title>
<a xlink:href="TFCP2L1.svg" xlink:title="Z&#45;value: 0.586||remove19">
<polygon fill="#98a3ff" stroke="#98a3ff" stroke-width="2" points="173.275,-36 138.775,-36 126.775,-24 126.775,-12 138.775,-6.39488e-14 173.275,-6.39488e-14 185.275,-12 185.275,-24 173.275,-36"/>
<path fill="#98a3ff" stroke="#98a3ff" stroke-width="2" d="M138.775,-36C132.775,-36 126.775,-30 126.775,-24"/>
<path fill="#98a3ff" stroke="#98a3ff" stroke-width="2" d="M126.775,-12C126.775,-6 132.775,-6.39488e-14 138.775,-6.39488e-14"/>
<path fill="#98a3ff" stroke="#98a3ff" stroke-width="2" d="M173.275,-6.39488e-14C179.275,-6.39488e-14 185.275,-6 185.275,-12"/>
<path fill="#98a3ff" stroke="#98a3ff" stroke-width="2" d="M185.275,-24C185.275,-30 179.275,-36 173.275,-36"/>
<polyline fill="none" stroke="white" stroke-width="2" points="173.275,-36 138.775,-36 "/>
<path fill="none" stroke="white" stroke-width="2" d="M138.775,-36C132.775,-36 126.775,-30 126.775,-24"/>
<polyline fill="none" stroke="white" stroke-width="2" points="126.775,-24 126.775,-12 "/>
<path fill="none" stroke="white" stroke-width="2" d="M126.775,-12C126.775,-6 132.775,-6.39488e-14 138.775,-6.39488e-14"/>
<polyline fill="none" stroke="white" stroke-width="2" points="138.775,-6.39488e-14 173.275,-6.39488e-14 "/>
<path fill="none" stroke="white" stroke-width="2" d="M173.275,-6.39488e-14C179.275,-6.39488e-14 185.275,-6 185.275,-12"/>
<polyline fill="none" stroke="white" stroke-width="2" points="185.275,-12 185.275,-24 "/>
<path fill="none" stroke="white" stroke-width="2" d="M185.275,-24C185.275,-30 179.275,-36 173.275,-36"/>
<text text-anchor="middle" x="156.025" y="-15.5" font-family="Helvetica,sans-Serif" font-size="10.00">TFCP2L1</text>
</a>
</g>
<!-- SMAD1&#45;&gt;TFCP2L1 -->
<g id="edge24" class="edge"><title>SMAD1&#45;&gt;TFCP2L1</title>
<a xlink:title="TFCP2L1: 0.019||remove2root">
<path fill="none" stroke="#edc8ff" stroke-width="3" d="M297.945,-279.013C288.186,-269.097 276.658,-256.239 268.229,-243.305 245.676,-208.697 248.616,-195.49 230.545,-158.345 210.713,-117.583 185.639,-71.3277 170.222,-43.4247"/>
<polygon fill="#edc8ff" stroke="#edc8ff" points="172.657,-42.042 166.331,-36.4009 167.758,-44.7557 172.657,-42.042"/>
</a>
</g>
<!-- SOX17&#45;&gt;TFEC_MITF_ARNTL_BHLHE41 -->
<g id="edge36" class="edge"><title>SOX17&#45;&gt;TFEC_MITF_ARNTL_BHLHE41</title>
<a xlink:title="TFEC: 0.158||MITF: 0.022||remove22root">
<path fill="none" stroke="#ffacac" stroke-width="3" d="M226.574,-186.553C242.746,-190.886 264.094,-196.606 284.979,-202.202"/>
<polygon fill="#ffacac" stroke="#ffacac" points="284.497,-204.972 292.949,-204.338 285.947,-199.563 284.497,-204.972"/>
</a>
</g>
<!-- SOX17&#45;&gt;SMAD1 -->
<g id="edge38" class="edge"><title>SOX17&#45;&gt;SMAD1</title>
<a xlink:title="SMAD1: 0.056||remove12root">
<path fill="none" stroke="#ffc1c1" stroke-width="3" d="M217.407,-197.407C237.826,-217.826 271.037,-251.037 293.494,-273.494"/>
<polygon fill="#ffc1c1" stroke="#ffc1c1" points="291.603,-275.563 299.24,-279.24 295.563,-271.603 291.603,-275.563"/>
</a>
</g>
<!-- SOX17&#45;&gt;HOXB4_LHX9 -->
<g id="edge40" class="edge"><title>SOX17&#45;&gt;HOXB4_LHX9</title>
<a xlink:title="LHX9: 0.095||remove18root">
<path fill="none" stroke="#ffb9b9" stroke-width="3" d="M204.096,-197.406C211.745,-225.951 226.604,-281.407 235.406,-314.254"/>
<polygon fill="#ffb9b9" stroke="#ffb9b9" points="232.729,-315.084 237.505,-322.087 238.138,-313.635 232.729,-315.084"/>
</a>
</g>
<!-- SOX17&#45;&gt;ZBTB6 -->
<g id="edge44" class="edge"><title>SOX17&#45;&gt;ZBTB6</title>
<a xlink:title="ZBTB6: 0.127||remove20root">
<path fill="none" stroke="#ffb3b3" stroke-width="3" d="M194.353,-197.406C186.704,-225.951 171.845,-281.407 163.044,-314.254"/>
<polygon fill="#ffb3b3" stroke="#ffb3b3" points="160.311,-313.635 160.945,-322.087 165.72,-315.084 160.311,-313.635"/>
</a>
</g>
<!-- SOX17&#45;&gt;ZNF691 -->
<g id="edge42" class="edge"><title>SOX17&#45;&gt;ZNF691</title>
<a xlink:title="ZNF691: 0.053||remove11root">
<path fill="none" stroke="#ffc1c1" stroke-width="3" d="M181.042,-197.407C160.623,-217.826 127.412,-251.037 104.955,-273.494"/>
<polygon fill="#ffc1c1" stroke="#ffc1c1" points="102.887,-271.603 99.2097,-279.24 106.846,-275.563 102.887,-271.603"/>
</a>
</g>
<!-- KLF8&#45;&gt;TFEC_MITF_ARNTL_BHLHE41 -->
<g id="edge26" class="edge"><title>KLF8&#45;&gt;TFEC_MITF_ARNTL_BHLHE41</title>
<a xlink:title="MITF: 0.023||BHLHE41: 0.021||remove5root">
<path fill="none" stroke="#edc7ff" stroke-width="3" d="M65.2478,-152.928C90.7825,-167.912 130.518,-189.077 167.905,-200.105 201.379,-209.979 239.332,-215.515 272.641,-218.609"/>
<polygon fill="#edc7ff" stroke="#edc7ff" points="272.79,-221.433 281.004,-219.344 273.28,-215.854 272.79,-221.433"/>
</a>
</g>
<!-- KLF8&#45;&gt;SOX17 -->
<g id="edge28" class="edge"><title>KLF8&#45;&gt;SOX17</title>
<a xlink:title="SOX17: 0.061||remove14root">
<path fill="none" stroke="#c0c6ff" stroke-width="3" d="M65.3496,-143.353C92.5311,-150.636 134.336,-161.838 163.991,-169.784"/>
<polygon fill="#c0c6ff" stroke="#c0c6ff" points="163.558,-172.567 172.01,-171.933 165.008,-167.157 163.558,-172.567"/>
</a>
</g>
<!-- KLF8&#45;&gt;KLF8 -->
<g id="edge32" class="edge"><title>KLF8&#45;&gt;KLF8</title>
<a xlink:title="KLF8: 0.024||remove7root">
<path fill="none" stroke="#edc7ff" stroke-width="3" d="M65.2408,-142.768C75.0239,-142.913 83,-140.665 83,-136.025 83,-132.762 79.0568,-130.682 73.3147,-129.785"/>
<polygon fill="#edc7ff" stroke="#edc7ff" points="73.3996,-126.985 65.2408,-129.281 73.051,-132.574 73.3996,-126.985"/>
</a>
</g>
<!-- TEAD4 -->
<g id="node25" class="node"><title>TEAD4</title>
<a xlink:href="TEAD4.svg" xlink:title="Z&#45;value: 0.609||remove15">
<polygon fill="#96a1ff" stroke="#96a1ff" stroke-width="2" points="257.425,-36 227.425,-36 215.425,-24 215.425,-12 227.425,-0 257.425,-0 269.425,-12 269.425,-24 257.425,-36"/>
<path fill="#96a1ff" stroke="#96a1ff" stroke-width="2" d="M227.425,-36C221.425,-36 215.425,-30 215.425,-24"/>
<path fill="#96a1ff" stroke="#96a1ff" stroke-width="2" d="M215.425,-12C215.425,-6 221.425,-0 227.425,-0"/>
<path fill="#96a1ff" stroke="#96a1ff" stroke-width="2" d="M257.425,-0C263.425,-0 269.425,-6 269.425,-12"/>
<path fill="#96a1ff" stroke="#96a1ff" stroke-width="2" d="M269.425,-24C269.425,-30 263.425,-36 257.425,-36"/>
<polyline fill="none" stroke="white" stroke-width="2" points="257.425,-36 227.425,-36 "/>
<path fill="none" stroke="white" stroke-width="2" d="M227.425,-36C221.425,-36 215.425,-30 215.425,-24"/>
<polyline fill="none" stroke="white" stroke-width="2" points="215.425,-24 215.425,-12 "/>
<path fill="none" stroke="white" stroke-width="2" d="M215.425,-12C215.425,-6 221.425,-0 227.425,-0"/>
<polyline fill="none" stroke="white" stroke-width="2" points="227.425,-0 257.425,-0 "/>
<path fill="none" stroke="white" stroke-width="2" d="M257.425,-0C263.425,-0 269.425,-6 269.425,-12"/>
<polyline fill="none" stroke="white" stroke-width="2" points="269.425,-12 269.425,-24 "/>
<path fill="none" stroke="white" stroke-width="2" d="M269.425,-24C269.425,-30 263.425,-36 257.425,-36"/>
<text text-anchor="middle" x="242.425" y="-15.5" font-family="Helvetica,sans-Serif" font-size="10.00">TEAD4</text>
</a>
</g>
<!-- KLF8&#45;&gt;TEAD4 -->
<g id="edge30" class="edge"><title>KLF8&#45;&gt;TEAD4</title>
<a xlink:title="TEAD4: 0.024||remove6root">
<path fill="none" stroke="#edc7ff" stroke-width="3" d="M65.146,-120.352C101.954,-99.1007 167.708,-61.1378 207.96,-37.8982"/>
<polygon fill="#edc7ff" stroke="#edc7ff" points="209.638,-40.1625 215.166,-33.7376 206.838,-35.3127 209.638,-40.1625"/>
</a>
</g>
<!-- KLF15&#45;&gt;PATZ1_KLF4 -->
<g id="edge72" class="edge"><title>KLF15&#45;&gt;PATZ1_KLF4</title>
<a xlink:title="PATZ1: 0.002||remove1root">
<path fill="none" stroke="#eecbff" stroke-width="3" d="M80.6705,-79.5445C79.7056,-99.0746 76.9853,-130.712 69.32,-156.905 65.2822,-170.702 58.6279,-185.206 52.4889,-197.051"/>
<polygon fill="#eecbff" stroke="#eecbff" points="49.855,-196.04 48.5618,-204.417 54.7965,-198.675 49.855,-196.04"/>
</a>
</g>
<!-- KLF15&#45;&gt;SOX17 -->
<g id="edge74" class="edge"><title>KLF15&#45;&gt;SOX17</title>
<a xlink:title="SOX17: 0.074||remove16root">
<path fill="none" stroke="#bdc3ff" stroke-width="3" d="M99.3827,-79.3827C119.802,-99.8017 153.013,-133.013 175.469,-155.469"/>
<polygon fill="#bdc3ff" stroke="#bdc3ff" points="173.578,-157.538 181.215,-161.215 177.538,-153.578 173.578,-157.538"/>
</a>
</g>
<!-- TFCP2L1&#45;&gt;TFEC_MITF_ARNTL_BHLHE41 -->
<g id="edge76" class="edge"><title>TFCP2L1&#45;&gt;TFEC_MITF_ARNTL_BHLHE41</title>
<a xlink:title="MITF: 0.039||remove9root">
<path fill="none" stroke="#ecc4ff" stroke-width="3" d="M174.166,-36.1413C211.141,-73.116 295.209,-157.184 336.567,-198.542"/>
<polygon fill="#ecc4ff" stroke="#ecc4ff" points="334.712,-200.647 342.349,-204.324 338.672,-196.687 334.712,-200.647"/>
</a>
</g>
<!-- TFCP2L1&#45;&gt;SOX17 -->
<g id="edge78" class="edge"><title>TFCP2L1&#45;&gt;SOX17</title>
<a xlink:title="SOX17: 0.108||remove19root">
<path fill="none" stroke="#b6beff" stroke-width="3" d="M160.896,-36.1811C168.545,-64.7264 183.404,-120.183 192.206,-153.029"/>
<polygon fill="#b6beff" stroke="#b6beff" points="189.529,-153.86 194.305,-160.863 194.938,-152.41 189.529,-153.86"/>
</a>
</g>
<!-- TEAD4&#45;&gt;SOX17 -->
<g id="edge70" class="edge"><title>TEAD4&#45;&gt;SOX17</title>
<a xlink:title="SOX17: 0.072||remove15root">
<path fill="none" stroke="#bdc4ff" stroke-width="3" d="M237.553,-36.1811C229.904,-64.7264 215.045,-120.183 206.244,-153.029"/>
<polygon fill="#bdc4ff" stroke="#bdc4ff" points="203.511,-152.41 204.145,-160.863 208.92,-153.86 203.511,-152.41"/>
</a>
</g>
<!-- SP3 -->
<g id="node34" class="node"><title>SP3</title>
<a xlink:href="SP3.svg" xlink:title="Z&#45;value: 1.634||remove23">
<polygon fill="#3d50ff" stroke="#3d50ff" stroke-width="2" points="332.249,-79.2 302.249,-79.2 290.249,-67.2 290.249,-55.2 302.249,-43.2 332.249,-43.2 344.249,-55.2 344.249,-67.2 332.249,-79.2"/>
<path fill="#3d50ff" stroke="#3d50ff" stroke-width="2" d="M302.249,-79.2C296.249,-79.2 290.249,-73.2 290.249,-67.2"/>
<path fill="#3d50ff" stroke="#3d50ff" stroke-width="2" d="M290.249,-55.2C290.249,-49.2 296.249,-43.2 302.249,-43.2"/>
<path fill="#3d50ff" stroke="#3d50ff" stroke-width="2" d="M332.249,-43.2C338.249,-43.2 344.249,-49.2 344.249,-55.2"/>
<path fill="#3d50ff" stroke="#3d50ff" stroke-width="2" d="M344.249,-67.2C344.249,-73.2 338.249,-79.2 332.249,-79.2"/>
<polyline fill="none" stroke="white" stroke-width="2" points="332.249,-79.2 302.249,-79.2 "/>
<path fill="none" stroke="white" stroke-width="2" d="M302.249,-79.2C296.249,-79.2 290.249,-73.2 290.249,-67.2"/>
<polyline fill="none" stroke="white" stroke-width="2" points="290.249,-67.2 290.249,-55.2 "/>
<path fill="none" stroke="white" stroke-width="2" d="M290.249,-55.2C290.249,-49.2 296.249,-43.2 302.249,-43.2"/>
<polyline fill="none" stroke="white" stroke-width="2" points="302.249,-43.2 332.249,-43.2 "/>
<path fill="none" stroke="white" stroke-width="2" d="M332.249,-43.2C338.249,-43.2 344.249,-49.2 344.249,-55.2"/>
<polyline fill="none" stroke="white" stroke-width="2" points="344.249,-55.2 344.249,-67.2 "/>
<path fill="none" stroke="white" stroke-width="2" d="M344.249,-67.2C344.249,-73.2 338.249,-79.2 332.249,-79.2"/>
<text text-anchor="middle" x="317.249" y="-58.7" font-family="Helvetica,sans-Serif" font-size="10.00" fill="white">SP3</text>
</a>
</g>
<!-- SP3&#45;&gt;PATZ1_KLF4 -->
<g id="edge46" class="edge"><title>SP3&#45;&gt;PATZ1_KLF4</title>
<a xlink:title="PATZ1: 0.077||KLF4: 0.020||remove17root">
<path fill="none" stroke="#e9bcff" stroke-width="3" d="M290.22,-76.8054C240.34,-105.603 133.694,-167.176 76.3556,-200.28"/>
<polygon fill="#e9bcff" stroke="#e9bcff" points="74.8057,-197.942 69.2775,-204.367 77.6057,-202.791 74.8057,-197.942"/>
</a>
</g>
<!-- SP3&#45;&gt;TFEC_MITF_ARNTL_BHLHE41 -->
<g id="edge48" class="edge"><title>SP3&#45;&gt;TFEC_MITF_ARNTL_BHLHE41</title>
<a xlink:title="MITF: 0.779||BHLHE41: 0.101||ARNTL: 0.007||remove22">
<path fill="none" stroke="#bd32ff" stroke-width="3" d="M317.779,-79.5445C318.744,-99.0746 321.464,-130.712 329.129,-156.905 333.167,-170.702 339.821,-185.206 345.96,-197.051"/>
<polygon fill="#bd32ff" stroke="#bd32ff" points="343.653,-198.675 349.887,-204.417 348.594,-196.04 343.653,-198.675"/>
</a>
</g>
<!-- SP3&#45;&gt;SMAD1 -->
<g id="edge50" class="edge"><title>SP3&#45;&gt;SMAD1</title>
<a xlink:title="SMAD1: 0.020||remove3root">
<path fill="none" stroke="#edc8ff" stroke-width="3" d="M304.848,-79.438C283.868,-112.695 245.744,-185.127 268.229,-243.305 272.483,-254.31 280.14,-264.454 288.157,-272.905"/>
<polygon fill="#edc8ff" stroke="#edc8ff" points="286.662,-275.366 294.308,-279.023 290.611,-271.396 286.662,-275.366"/>
</a>
</g>
<!-- SP3&#45;&gt;SOX17 -->
<g id="edge52" class="edge"><title>SP3&#45;&gt;SOX17</title>
<a xlink:title="SOX17: 0.168||remove23root">
<path fill="none" stroke="#abb3ff" stroke-width="3" d="M299.067,-79.3827C278.648,-99.8017 245.437,-133.013 222.98,-155.469"/>
<polygon fill="#abb3ff" stroke="#abb3ff" points="220.911,-153.578 217.234,-161.215 224.871,-157.538 220.911,-153.578"/>
</a>
</g>
<!-- SP3&#45;&gt;KLF8 -->
<g id="edge56" class="edge"><title>SP3&#45;&gt;KLF8</title>
<a xlink:title="KLF8: 0.265||remove14">
<path fill="none" stroke="#de97ff" stroke-width="3" d="M290.22,-68.4425C239.34,-82.0756 129.395,-111.535 72.9679,-126.655"/>
<polygon fill="#de97ff" stroke="#de97ff" points="72.0469,-124.003 65.0442,-128.778 73.4963,-129.412 72.0469,-124.003"/>
</a>
</g>
<!-- SP3&#45;&gt;KLF15 -->
<g id="edge58" class="edge"><title>SP3&#45;&gt;KLF15</title>
<a xlink:title="KLF15: 0.262||remove16">
<path fill="none" stroke="#de98ff" stroke-width="3" d="M290.171,-61.2C247.332,-61.2 163.929,-61.2 116.468,-61.2"/>
<polygon fill="#de98ff" stroke="#de98ff" points="116.325,-58.3999 108.325,-61.2 116.325,-63.9999 116.325,-58.3999"/>
</a>
</g>
<!-- SP3&#45;&gt;TFCP2L1 -->
<g id="edge62" class="edge"><title>SP3&#45;&gt;TFCP2L1</title>
<a xlink:title="TFCP2L1: 0.023||remove4root">
<path fill="none" stroke="#edc7ff" stroke-width="3" d="M289.913,-56.6572C268.304,-52.7781 237.49,-46.6047 211.105,-38.88 205.302,-37.1811 199.241,-35.1532 193.352,-33.0389"/>
<polygon fill="#edc7ff" stroke="#edc7ff" points="193.941,-30.2718 185.467,-30.125 192,-35.5246 193.941,-30.2718"/>
</a>
</g>
<!-- SP3&#45;&gt;TEAD4 -->
<g id="edge54" class="edge"><title>SP3&#45;&gt;TEAD4</title>
<a xlink:title="TEAD4: 0.187||remove15">
<path fill="none" stroke="#e2a7ff" stroke-width="3" d="M290.236,-45.6038C285.84,-43.0661 281.237,-40.4084 276.696,-37.7865"/>
<polygon fill="#e2a7ff" stroke="#e2a7ff" points="277.978,-35.2936 269.65,-33.7184 275.178,-40.1433 277.978,-35.2936"/>
</a>
</g>
<!-- E2F3 -->
<g id="node42" class="node"><title>E2F3</title>
<a xlink:href="E2F3.svg" xlink:title="Z&#45;value: 0.771||remove21">
<polygon fill="#8894ff" stroke="#8894ff" stroke-width="2" points="375.449,-154.025 345.449,-154.025 333.449,-142.025 333.449,-130.025 345.449,-118.025 375.449,-118.025 387.449,-130.025 387.449,-142.025 375.449,-154.025"/>
<path fill="#8894ff" stroke="#8894ff" stroke-width="2" d="M345.449,-154.025C339.449,-154.025 333.449,-148.025 333.449,-142.025"/>
<path fill="#8894ff" stroke="#8894ff" stroke-width="2" d="M333.449,-130.025C333.449,-124.025 339.449,-118.025 345.449,-118.025"/>
<path fill="#8894ff" stroke="#8894ff" stroke-width="2" d="M375.449,-118.025C381.449,-118.025 387.449,-124.025 387.449,-130.025"/>
<path fill="#8894ff" stroke="#8894ff" stroke-width="2" d="M387.449,-142.025C387.449,-148.025 381.449,-154.025 375.449,-154.025"/>
<polyline fill="none" stroke="white" stroke-width="2" points="375.449,-154.025 345.449,-154.025 "/>
<path fill="none" stroke="white" stroke-width="2" d="M345.449,-154.025C339.449,-154.025 333.449,-148.025 333.449,-142.025"/>
<polyline fill="none" stroke="white" stroke-width="2" points="333.449,-142.025 333.449,-130.025 "/>
<path fill="none" stroke="white" stroke-width="2" d="M333.449,-130.025C333.449,-124.025 339.449,-118.025 345.449,-118.025"/>
<polyline fill="none" stroke="white" stroke-width="2" points="345.449,-118.025 375.449,-118.025 "/>
<path fill="none" stroke="white" stroke-width="2" d="M375.449,-118.025C381.449,-118.025 387.449,-124.025 387.449,-130.025"/>
<polyline fill="none" stroke="white" stroke-width="2" points="387.449,-130.025 387.449,-142.025 "/>
<path fill="none" stroke="white" stroke-width="2" d="M387.449,-142.025C387.449,-148.025 381.449,-154.025 375.449,-154.025"/>
<text text-anchor="middle" x="360.449" y="-133.525" font-family="Helvetica,sans-Serif" font-size="10.00">E2F3</text>
</a>
</g>
<!-- SP3&#45;&gt;E2F3 -->
<g id="edge60" class="edge"><title>SP3&#45;&gt;E2F3</title>
<a xlink:title="E2F3: 0.331||SP3: 0.058||remove21">
<path fill="none" stroke="#d98bff" stroke-width="3" d="M332.722,-85.9994C337.262,-93.8634 342.265,-102.528 346.799,-110.381"/>
<path fill="none" stroke="#ebc0ff" stroke-width="3" d="M330.99,-86.9994C335.53,-94.8634 340.532,-103.528 345.067,-111.381"/>
<polygon fill="#ebc0ff" stroke="#ebc0ff" points="334.132,-84.8411 327.707,-79.3129 329.282,-87.6412 334.132,-84.8411"/>
<polygon fill="#d98bff" stroke="#d98bff" points="343.513,-112.291 349.938,-117.819 348.363,-109.491 343.513,-112.291"/>
</a>
</g>
<!-- E2F3&#45;&gt;PATZ1_KLF4 -->
<g id="edge64" class="edge"><title>E2F3&#45;&gt;PATZ1_KLF4</title>
<a xlink:title="KLF4: 0.001||remove0root">
<path fill="none" stroke="#eecbff" stroke-width="3" d="M333.201,-152.928C307.667,-167.912 267.931,-189.077 230.545,-200.105 181.879,-214.459 123.748,-219.648 84.1825,-221.487"/>
<polygon fill="#eecbff" stroke="#eecbff" points="83.9064,-218.696 76.0315,-221.831 84.1425,-224.292 83.9064,-218.696"/>
</a>
</g>
<!-- E2F3&#45;&gt;SOX17 -->
<g id="edge66" class="edge"><title>E2F3&#45;&gt;SOX17</title>
<a xlink:title="SOX17: 0.142||remove21root">
<path fill="none" stroke="#b0b8ff" stroke-width="3" d="M333.1,-143.353C305.918,-150.636 264.113,-161.838 234.458,-169.784"/>
<polygon fill="#b0b8ff" stroke="#b0b8ff" points="233.441,-167.157 226.439,-171.933 234.891,-172.567 233.441,-167.157"/>
</a>
</g>
<!-- E2F3&#45;&gt;ZBTB6 -->
<g id="edge68" class="edge"><title>E2F3&#45;&gt;ZBTB6</title>
<a xlink:title="ZBTB6: 0.220||remove20">
<path fill="none" stroke="#e0a0ff" stroke-width="3" d="M333.144,-152.591C313.965,-164.882 288.263,-182.712 268.229,-201.545 230.172,-237.321 193.605,-286.176 173.053,-315.395"/>
<polygon fill="#e0a0ff" stroke="#e0a0ff" points="170.707,-313.864 168.426,-322.027 175.3,-317.068 170.707,-313.864"/>
</a>
</g>
</g>
</svg>
