<?xml version="1.0" encoding="UTF-8" standalone="no"?>
<!DOCTYPE svg PUBLIC "-//W3C//DTD SVG 1.1//EN"
 "http://www.w3.org/Graphics/SVG/1.1/DTD/svg11.dtd">
<!-- Generated by graphviz version 2.28.0 (20110630.0925)
 -->
<!-- Title: _anonymous_0 Pages: 1 -->
<svg width="468pt" height="407pt"
 viewBox="0.00 0.00 468.16 406.76" xmlns="http://www.w3.org/2000/svg" xmlns:xlink="http://www.w3.org/1999/xlink">
<g id="graph1" class="graph" transform="scale(1 1) rotate(0) translate(4 402.755)">
<title>_anonymous_0</title>
<polygon fill="white" stroke="white" points="-4,5 -4,-402.755 465.155,-402.755 465.155,5 -4,5"/>
<!-- FOXM1_TBL1XR1 -->
<g id="node1" class="node"><title>FOXM1_TBL1XR1</title>
<a xlink:href="FOXM1_TBL1XR1.svg" xlink:title="Z&#45;value: 2.140||remove29">
<polygon fill="#3247ff" stroke="#3247ff" stroke-width="2" points="196.278,-398.755 123.278,-398.755 111.278,-386.755 111.278,-374.755 123.278,-362.755 196.278,-362.755 208.278,-374.755 208.278,-386.755 196.278,-398.755"/>
<path fill="#3247ff" stroke="#3247ff" stroke-width="2" d="M123.278,-398.755C117.278,-398.755 111.278,-392.755 111.278,-386.755"/>
<path fill="#3247ff" stroke="#3247ff" stroke-width="2" d="M111.278,-374.755C111.278,-368.755 117.278,-362.755 123.278,-362.755"/>
<path fill="#3247ff" stroke="#3247ff" stroke-width="2" d="M196.278,-362.755C202.278,-362.755 208.278,-368.755 208.278,-374.755"/>
<path fill="#3247ff" stroke="#3247ff" stroke-width="2" d="M208.278,-386.755C208.278,-392.755 202.278,-398.755 196.278,-398.755"/>
<polyline fill="none" stroke="white" stroke-width="2" points="196.278,-398.755 123.278,-398.755 "/>
<path fill="none" stroke="white" stroke-width="2" d="M123.278,-398.755C117.278,-398.755 111.278,-392.755 111.278,-386.755"/>
<polyline fill="none" stroke="white" stroke-width="2" points="111.278,-386.755 111.278,-374.755 "/>
<path fill="none" stroke="white" stroke-width="2" d="M111.278,-374.755C111.278,-368.755 117.278,-362.755 123.278,-362.755"/>
<polyline fill="none" stroke="white" stroke-width="2" points="123.278,-362.755 196.278,-362.755 "/>
<path fill="none" stroke="white" stroke-width="2" d="M196.278,-362.755C202.278,-362.755 208.278,-368.755 208.278,-374.755"/>
<polyline fill="none" stroke="white" stroke-width="2" points="208.278,-374.755 208.278,-386.755 "/>
<path fill="none" stroke="white" stroke-width="2" d="M208.278,-386.755C208.278,-392.755 202.278,-398.755 196.278,-398.755"/>
<text text-anchor="middle" x="159.778" y="-378.255" font-family="Helvetica,sans-Serif" font-size="10.00" fill="white">FOXM1_TBL1XR1</text>
</a>
</g>
<!-- SOX4 -->
<g id="node2" class="node"><title>SOX4</title>
<a xlink:href="SOX4.svg" xlink:title="Z&#45;value: 0.496||remove30">
<polygon fill="#ffa8a8" stroke="#ffa8a8" stroke-width="2" points="223.378,-217.378 193.378,-217.378 181.378,-205.378 181.378,-193.378 193.378,-181.378 223.378,-181.378 235.378,-193.378 235.378,-205.378 223.378,-217.378"/>
<path fill="#ffa8a8" stroke="#ffa8a8" stroke-width="2" d="M193.378,-217.378C187.378,-217.378 181.378,-211.378 181.378,-205.378"/>
<path fill="#ffa8a8" stroke="#ffa8a8" stroke-width="2" d="M181.378,-193.378C181.378,-187.378 187.378,-181.378 193.378,-181.378"/>
<path fill="#ffa8a8" stroke="#ffa8a8" stroke-width="2" d="M223.378,-181.378C229.378,-181.378 235.378,-187.378 235.378,-193.378"/>
<path fill="#ffa8a8" stroke="#ffa8a8" stroke-width="2" d="M235.378,-205.378C235.378,-211.378 229.378,-217.378 223.378,-217.378"/>
<polyline fill="none" stroke="white" stroke-width="2" points="223.378,-217.378 193.378,-217.378 "/>
<path fill="none" stroke="white" stroke-width="2" d="M193.378,-217.378C187.378,-217.378 181.378,-211.378 181.378,-205.378"/>
<polyline fill="none" stroke="white" stroke-width="2" points="181.378,-205.378 181.378,-193.378 "/>
<path fill="none" stroke="white" stroke-width="2" d="M181.378,-193.378C181.378,-187.378 187.378,-181.378 193.378,-181.378"/>
<polyline fill="none" stroke="white" stroke-width="2" points="193.378,-181.378 223.378,-181.378 "/>
<path fill="none" stroke="white" stroke-width="2" d="M223.378,-181.378C229.378,-181.378 235.378,-187.378 235.378,-193.378"/>
<polyline fill="none" stroke="white" stroke-width="2" points="235.378,-193.378 235.378,-205.378 "/>
<path fill="none" stroke="white" stroke-width="2" d="M235.378,-205.378C235.378,-211.378 229.378,-217.378 223.378,-217.378"/>
<text text-anchor="middle" x="208.378" y="-196.878" font-family="Helvetica,sans-Serif" font-size="10.00">SOX4</text>
</a>
</g>
<!-- FOXM1_TBL1XR1&#45;&gt;SOX4 -->
<g id="edge2" class="edge"><title>FOXM1_TBL1XR1&#45;&gt;SOX4</title>
<a xlink:title="SOX4: 0.334||remove29root">
<path fill="none" stroke="#a3adff" stroke-width="3" d="M164.615,-362.701C173.254,-330.462 191.362,-262.883 201.365,-225.551"/>
<polygon fill="#a3adff" stroke="#a3adff" points="204.121,-226.08 203.487,-217.628 198.712,-224.631 204.121,-226.08"/>
</a>
</g>
<!-- DBP -->
<g id="node4" class="node"><title>DBP</title>
<a xlink:href="DBP.svg" xlink:title="Z&#45;value: 0.499||remove21">
<polygon fill="#a8b0ff" stroke="#a8b0ff" stroke-width="2" points="90.6,-350.155 60.6,-350.155 48.6,-338.155 48.6,-326.155 60.6,-314.155 90.6,-314.155 102.6,-326.155 102.6,-338.155 90.6,-350.155"/>
<path fill="#a8b0ff" stroke="#a8b0ff" stroke-width="2" d="M60.6,-350.155C54.6,-350.155 48.6,-344.155 48.6,-338.155"/>
<path fill="#a8b0ff" stroke="#a8b0ff" stroke-width="2" d="M48.6,-326.155C48.6,-320.155 54.6,-314.155 60.6,-314.155"/>
<path fill="#a8b0ff" stroke="#a8b0ff" stroke-width="2" d="M90.6,-314.155C96.6,-314.155 102.6,-320.155 102.6,-326.155"/>
<path fill="#a8b0ff" stroke="#a8b0ff" stroke-width="2" d="M102.6,-338.155C102.6,-344.155 96.6,-350.155 90.6,-350.155"/>
<polyline fill="none" stroke="white" stroke-width="2" points="90.6,-350.155 60.6,-350.155 "/>
<path fill="none" stroke="white" stroke-width="2" d="M60.6,-350.155C54.6,-350.155 48.6,-344.155 48.6,-338.155"/>
<polyline fill="none" stroke="white" stroke-width="2" points="48.6,-338.155 48.6,-326.155 "/>
<path fill="none" stroke="white" stroke-width="2" d="M48.6,-326.155C48.6,-320.155 54.6,-314.155 60.6,-314.155"/>
<polyline fill="none" stroke="white" stroke-width="2" points="60.6,-314.155 90.6,-314.155 "/>
<path fill="none" stroke="white" stroke-width="2" d="M90.6,-314.155C96.6,-314.155 102.6,-320.155 102.6,-326.155"/>
<polyline fill="none" stroke="white" stroke-width="2" points="102.6,-326.155 102.6,-338.155 "/>
<path fill="none" stroke="white" stroke-width="2" d="M102.6,-338.155C102.6,-344.155 96.6,-350.155 90.6,-350.155"/>
<text text-anchor="middle" x="75.6" y="-329.655" font-family="Helvetica,sans-Serif" font-size="10.00">DBP</text>
</a>
</g>
<!-- FOXM1_TBL1XR1&#45;&gt;DBP -->
<g id="edge4" class="edge"><title>FOXM1_TBL1XR1&#45;&gt;DBP</title>
<a xlink:title="DBP: 0.100||remove16root">
<path fill="none" stroke="#eac0ff" stroke-width="3" d="M128.433,-362.659C122.386,-359.167 116.021,-355.492 109.885,-351.95"/>
<polygon fill="#eac0ff" stroke="#eac0ff" points="111.149,-349.447 102.821,-347.871 108.349,-354.296 111.149,-349.447"/>
</a>
</g>
<!-- GFI1 -->
<g id="node6" class="node"><title>GFI1</title>
<a xlink:href="GFI1.svg" xlink:title="Z&#45;value: 0.612||remove25">
<polygon fill="#a0a9ff" stroke="#a0a9ff" stroke-width="2" points="42,-265.978 12,-265.978 3.19744e-14,-253.978 3.19744e-14,-241.978 12,-229.978 42,-229.978 54,-241.978 54,-253.978 42,-265.978"/>
<path fill="#a0a9ff" stroke="#a0a9ff" stroke-width="2" d="M12,-265.978C6,-265.978 3.19744e-14,-259.978 3.19744e-14,-253.978"/>
<path fill="#a0a9ff" stroke="#a0a9ff" stroke-width="2" d="M3.19744e-14,-241.978C3.19744e-14,-235.978 6,-229.978 12,-229.978"/>
<path fill="#a0a9ff" stroke="#a0a9ff" stroke-width="2" d="M42,-229.978C48,-229.978 54,-235.978 54,-241.978"/>
<path fill="#a0a9ff" stroke="#a0a9ff" stroke-width="2" d="M54,-253.978C54,-259.978 48,-265.978 42,-265.978"/>
<polyline fill="none" stroke="white" stroke-width="2" points="42,-265.978 12,-265.978 "/>
<path fill="none" stroke="white" stroke-width="2" d="M12,-265.978C6,-265.978 3.19744e-14,-259.978 3.19744e-14,-253.978"/>
<polyline fill="none" stroke="white" stroke-width="2" points="3.19744e-14,-253.978 3.19744e-14,-241.978 "/>
<path fill="none" stroke="white" stroke-width="2" d="M3.19744e-14,-241.978C3.19744e-14,-235.978 6,-229.978 12,-229.978"/>
<polyline fill="none" stroke="white" stroke-width="2" points="12,-229.978 42,-229.978 "/>
<path fill="none" stroke="white" stroke-width="2" d="M42,-229.978C48,-229.978 54,-235.978 54,-241.978"/>
<polyline fill="none" stroke="white" stroke-width="2" points="54,-241.978 54,-253.978 "/>
<path fill="none" stroke="white" stroke-width="2" d="M54,-253.978C54,-259.978 48,-265.978 42,-265.978"/>
<text text-anchor="middle" x="27" y="-245.478" font-family="Helvetica,sans-Serif" font-size="10.00">GFI1</text>
</a>
</g>
<!-- FOXM1_TBL1XR1&#45;&gt;GFI1 -->
<g id="edge6" class="edge"><title>FOXM1_TBL1XR1&#45;&gt;GFI1</title>
<a xlink:title="GFI1: 0.179||remove22root">
<path fill="none" stroke="#e7b6ff" stroke-width="3" d="M147.879,-362.642C137.838,-348.01 122.626,-327.291 106.92,-311.275 92.6265,-296.7 74.9903,-282.41 59.9247,-271.107"/>
<polygon fill="#e7b6ff" stroke="#e7b6ff" points="61.3009,-268.642 53.2048,-266.133 57.9693,-273.143 61.3009,-268.642"/>
</a>
</g>
<!-- CPEB1 -->
<g id="node8" class="node"><title>CPEB1</title>
<a xlink:href="CPEB1.svg" xlink:title="Z&#45;value: 0.827||remove26">
<polygon fill="#909bff" stroke="#909bff" stroke-width="2" points="42,-168.778 12,-168.778 0,-156.778 0,-144.778 12,-132.778 42,-132.778 54,-144.778 54,-156.778 42,-168.778"/>
<path fill="#909bff" stroke="#909bff" stroke-width="2" d="M12,-168.778C6,-168.778 0,-162.778 0,-156.778"/>
<path fill="#909bff" stroke="#909bff" stroke-width="2" d="M0,-144.778C0,-138.778 6,-132.778 12,-132.778"/>
<path fill="#909bff" stroke="#909bff" stroke-width="2" d="M42,-132.778C48,-132.778 54,-138.778 54,-144.778"/>
<path fill="#909bff" stroke="#909bff" stroke-width="2" d="M54,-156.778C54,-162.778 48,-168.778 42,-168.778"/>
<polyline fill="none" stroke="white" stroke-width="2" points="42,-168.778 12,-168.778 "/>
<path fill="none" stroke="white" stroke-width="2" d="M12,-168.778C6,-168.778 0,-162.778 0,-156.778"/>
<polyline fill="none" stroke="white" stroke-width="2" points="0,-156.778 0,-144.778 "/>
<path fill="none" stroke="white" stroke-width="2" d="M0,-144.778C0,-138.778 6,-132.778 12,-132.778"/>
<polyline fill="none" stroke="white" stroke-width="2" points="12,-132.778 42,-132.778 "/>
<path fill="none" stroke="white" stroke-width="2" d="M42,-132.778C48,-132.778 54,-138.778 54,-144.778"/>
<polyline fill="none" stroke="white" stroke-width="2" points="54,-144.778 54,-156.778 "/>
<path fill="none" stroke="white" stroke-width="2" d="M54,-156.778C54,-162.778 48,-168.778 42,-168.778"/>
<text text-anchor="middle" x="27" y="-148.278" font-family="Helvetica,sans-Serif" font-size="10.00">CPEB1</text>
</a>
</g>
<!-- FOXM1_TBL1XR1&#45;&gt;CPEB1 -->
<g id="edge8" class="edge"><title>FOXM1_TBL1XR1&#45;&gt;CPEB1</title>
<a xlink:title="CPEB1: 0.193||remove23root">
<path fill="none" stroke="#e7b4ff" stroke-width="3" d="M149.359,-362.709C125.857,-322.002 68.6651,-222.944 41.6252,-176.109"/>
<polygon fill="#e7b4ff" stroke="#e7b4ff" points="43.9791,-174.586 37.5542,-169.058 39.1293,-177.386 43.9791,-174.586"/>
</a>
</g>
<!-- GTF2I -->
<g id="node10" class="node"><title>GTF2I</title>
<a xlink:href="GTF2I.svg" xlink:title="Z&#45;value: 1.592||remove19">
<polygon fill="#5a6aff" stroke="#5a6aff" stroke-width="2" points="90.6,-84.6 60.6,-84.6 48.6,-72.6 48.6,-60.6 60.6,-48.6 90.6,-48.6 102.6,-60.6 102.6,-72.6 90.6,-84.6"/>
<path fill="#5a6aff" stroke="#5a6aff" stroke-width="2" d="M60.6,-84.6C54.6,-84.6 48.6,-78.6 48.6,-72.6"/>
<path fill="#5a6aff" stroke="#5a6aff" stroke-width="2" d="M48.6,-60.6C48.6,-54.6 54.6,-48.6 60.6,-48.6"/>
<path fill="#5a6aff" stroke="#5a6aff" stroke-width="2" d="M90.6,-48.6C96.6,-48.6 102.6,-54.6 102.6,-60.6"/>
<path fill="#5a6aff" stroke="#5a6aff" stroke-width="2" d="M102.6,-72.6C102.6,-78.6 96.6,-84.6 90.6,-84.6"/>
<polyline fill="none" stroke="white" stroke-width="2" points="90.6,-84.6 60.6,-84.6 "/>
<path fill="none" stroke="white" stroke-width="2" d="M60.6,-84.6C54.6,-84.6 48.6,-78.6 48.6,-72.6"/>
<polyline fill="none" stroke="white" stroke-width="2" points="48.6,-72.6 48.6,-60.6 "/>
<path fill="none" stroke="white" stroke-width="2" d="M48.6,-60.6C48.6,-54.6 54.6,-48.6 60.6,-48.6"/>
<polyline fill="none" stroke="white" stroke-width="2" points="60.6,-48.6 90.6,-48.6 "/>
<path fill="none" stroke="white" stroke-width="2" d="M90.6,-48.6C96.6,-48.6 102.6,-54.6 102.6,-60.6"/>
<polyline fill="none" stroke="white" stroke-width="2" points="102.6,-60.6 102.6,-72.6 "/>
<path fill="none" stroke="white" stroke-width="2" d="M102.6,-72.6C102.6,-78.6 96.6,-84.6 90.6,-84.6"/>
<text text-anchor="middle" x="75.6" y="-64.1" font-family="Helvetica,sans-Serif" font-size="10.00" fill="white">GTF2I</text>
</a>
</g>
<!-- FOXM1_TBL1XR1&#45;&gt;GTF2I -->
<g id="edge10" class="edge"><title>FOXM1_TBL1XR1&#45;&gt;GTF2I</title>
<a xlink:title="GTF2I: 0.068||remove13root">
<path fill="none" stroke="#ecc3ff" stroke-width="3" d="M154.888,-362.507C140.65,-309.368 99.1777,-154.593 82.5831,-92.6614"/>
<polygon fill="#ecc3ff" stroke="#ecc3ff" points="85.2783,-91.9013 80.5031,-84.8986 79.8691,-93.3507 85.2783,-91.9013"/>
</a>
</g>
<!-- ZBTB33_CHD2 -->
<g id="node12" class="node"><title>ZBTB33_CHD2</title>
<a xlink:href="ZBTB33_CHD2.svg" xlink:title="Z&#45;value: 1.181||remove18">
<polygon fill="#7785ff" stroke="#7785ff" stroke-width="2" points="420.755,-265.978 358.755,-265.978 346.755,-253.978 346.755,-241.978 358.755,-229.978 420.755,-229.978 432.755,-241.978 432.755,-253.978 420.755,-265.978"/>
<path fill="#7785ff" stroke="#7785ff" stroke-width="2" d="M358.755,-265.978C352.755,-265.978 346.755,-259.978 346.755,-253.978"/>
<path fill="#7785ff" stroke="#7785ff" stroke-width="2" d="M346.755,-241.978C346.755,-235.978 352.755,-229.978 358.755,-229.978"/>
<path fill="#7785ff" stroke="#7785ff" stroke-width="2" d="M420.755,-229.978C426.755,-229.978 432.755,-235.978 432.755,-241.978"/>
<path fill="#7785ff" stroke="#7785ff" stroke-width="2" d="M432.755,-253.978C432.755,-259.978 426.755,-265.978 420.755,-265.978"/>
<polyline fill="none" stroke="white" stroke-width="2" points="420.755,-265.978 358.755,-265.978 "/>
<path fill="none" stroke="white" stroke-width="2" d="M358.755,-265.978C352.755,-265.978 346.755,-259.978 346.755,-253.978"/>
<polyline fill="none" stroke="white" stroke-width="2" points="346.755,-253.978 346.755,-241.978 "/>
<path fill="none" stroke="white" stroke-width="2" d="M346.755,-241.978C346.755,-235.978 352.755,-229.978 358.755,-229.978"/>
<polyline fill="none" stroke="white" stroke-width="2" points="358.755,-229.978 420.755,-229.978 "/>
<path fill="none" stroke="white" stroke-width="2" d="M420.755,-229.978C426.755,-229.978 432.755,-235.978 432.755,-241.978"/>
<polyline fill="none" stroke="white" stroke-width="2" points="432.755,-241.978 432.755,-253.978 "/>
<path fill="none" stroke="white" stroke-width="2" d="M432.755,-253.978C432.755,-259.978 426.755,-265.978 420.755,-265.978"/>
<text text-anchor="middle" x="389.755" y="-245.478" font-family="Helvetica,sans-Serif" font-size="10.00">ZBTB33_CHD2</text>
</a>
</g>
<!-- FOXM1_TBL1XR1&#45;&gt;ZBTB33_CHD2 -->
<g id="edge12" class="edge"><title>FOXM1_TBL1XR1&#45;&gt;ZBTB33_CHD2</title>
<a xlink:title="CHD2: 0.045||remove5root">
<path fill="none" stroke="#ecc6ff" stroke-width="3" d="M172.412,-362.575C183.98,-347.098 202.374,-325.218 222.835,-311.275 258.165,-287.202 303.885,-270.693 338.54,-260.587"/>
<polygon fill="#ecc6ff" stroke="#ecc6ff" points="339.722,-263.162 346.65,-258.279 338.19,-257.776 339.722,-263.162"/>
</a>
</g>
<!-- SOX4&#45;&gt;ZBTB33_CHD2 -->
<g id="edge46" class="edge"><title>SOX4&#45;&gt;ZBTB33_CHD2</title>
<a xlink:title="CHD2: 0.101||remove18root">
<path fill="none" stroke="#ffbfbf" stroke-width="3" d="M235.532,-206.654C262.704,-213.934 305.17,-225.313 338.666,-234.288"/>
<polygon fill="#ffbfbf" stroke="#ffbfbf" points="338.085,-237.031 346.537,-236.397 339.534,-231.622 338.085,-237.031"/>
</a>
</g>
<!-- YBX1_FOS_NFYC_NFYA_NFYB_CEBPZ -->
<g id="node16" class="node"><title>YBX1_FOS_NFYC_NFYA_NFYB_CEBPZ</title>
<a xlink:href="YBX1_FOS_NFYC_NFYA_NFYB_CEBPZ.svg" xlink:title="Z&#45;value: 1.883||remove20">
<polygon fill="#4557ff" stroke="#4557ff" stroke-width="2" points="430.655,-350.155 251.655,-350.155 239.655,-338.155 239.655,-326.155 251.655,-314.155 430.655,-314.155 442.655,-326.155 442.655,-338.155 430.655,-350.155"/>
<path fill="#4557ff" stroke="#4557ff" stroke-width="2" d="M251.655,-350.155C245.655,-350.155 239.655,-344.155 239.655,-338.155"/>
<path fill="#4557ff" stroke="#4557ff" stroke-width="2" d="M239.655,-326.155C239.655,-320.155 245.655,-314.155 251.655,-314.155"/>
<path fill="#4557ff" stroke="#4557ff" stroke-width="2" d="M430.655,-314.155C436.655,-314.155 442.655,-320.155 442.655,-326.155"/>
<path fill="#4557ff" stroke="#4557ff" stroke-width="2" d="M442.655,-338.155C442.655,-344.155 436.655,-350.155 430.655,-350.155"/>
<polyline fill="none" stroke="white" stroke-width="2" points="430.655,-350.155 251.655,-350.155 "/>
<path fill="none" stroke="white" stroke-width="2" d="M251.655,-350.155C245.655,-350.155 239.655,-344.155 239.655,-338.155"/>
<polyline fill="none" stroke="white" stroke-width="2" points="239.655,-338.155 239.655,-326.155 "/>
<path fill="none" stroke="white" stroke-width="2" d="M239.655,-326.155C239.655,-320.155 245.655,-314.155 251.655,-314.155"/>
<polyline fill="none" stroke="white" stroke-width="2" points="251.655,-314.155 430.655,-314.155 "/>
<path fill="none" stroke="white" stroke-width="2" d="M430.655,-314.155C436.655,-314.155 442.655,-320.155 442.655,-326.155"/>
<polyline fill="none" stroke="white" stroke-width="2" points="442.655,-326.155 442.655,-338.155 "/>
<path fill="none" stroke="white" stroke-width="2" d="M442.655,-338.155C442.655,-344.155 436.655,-350.155 430.655,-350.155"/>
<text text-anchor="middle" x="341.155" y="-329.655" font-family="Helvetica,sans-Serif" font-size="10.00" fill="white">YBX1_FOS_NFYC_NFYA_NFYB_CEBPZ</text>
</a>
</g>
<!-- SOX4&#45;&gt;YBX1_FOS_NFYC_NFYA_NFYB_CEBPZ -->
<g id="edge42" class="edge"><title>SOX4&#45;&gt;YBX1_FOS_NFYC_NFYA_NFYB_CEBPZ</title>
<a xlink:title="FOS: 0.088||SOX4: 0.138||remove20root">
<path fill="none" stroke="#ffc1c1" stroke-width="3" d="M233.216,-222.802C257.17,-246.756 293.684,-283.269 317.662,-307.247"/>
<path fill="none" stroke="#bbc2ff" stroke-width="3" d="M231.802,-224.216C255.756,-248.17 292.269,-284.684 316.247,-308.662"/>
<polygon fill="#bbc2ff" stroke="#bbc2ff" points="234.198,-221.238 226.561,-217.561 230.238,-225.198 234.198,-221.238"/>
<polygon fill="#ffc1c1" stroke="#ffc1c1" points="315.128,-310.088 322.765,-313.765 319.088,-306.128 315.128,-310.088"/>
</a>
</g>
<!-- CREB1 -->
<g id="node31" class="node"><title>CREB1</title>
<a xlink:href="CREB1.svg" xlink:title="Z&#45;value: 0.561||remove10">
<polygon fill="#a3adff" stroke="#a3adff" stroke-width="2" points="271.978,-398.755 241.978,-398.755 229.978,-386.755 229.978,-374.755 241.978,-362.755 271.978,-362.755 283.978,-374.755 283.978,-386.755 271.978,-398.755"/>
<path fill="#a3adff" stroke="#a3adff" stroke-width="2" d="M241.978,-398.755C235.978,-398.755 229.978,-392.755 229.978,-386.755"/>
<path fill="#a3adff" stroke="#a3adff" stroke-width="2" d="M229.978,-374.755C229.978,-368.755 235.978,-362.755 241.978,-362.755"/>
<path fill="#a3adff" stroke="#a3adff" stroke-width="2" d="M271.978,-362.755C277.978,-362.755 283.978,-368.755 283.978,-374.755"/>
<path fill="#a3adff" stroke="#a3adff" stroke-width="2" d="M283.978,-386.755C283.978,-392.755 277.978,-398.755 271.978,-398.755"/>
<polyline fill="none" stroke="white" stroke-width="2" points="271.978,-398.755 241.978,-398.755 "/>
<path fill="none" stroke="white" stroke-width="2" d="M241.978,-398.755C235.978,-398.755 229.978,-392.755 229.978,-386.755"/>
<polyline fill="none" stroke="white" stroke-width="2" points="229.978,-386.755 229.978,-374.755 "/>
<path fill="none" stroke="white" stroke-width="2" d="M229.978,-374.755C229.978,-368.755 235.978,-362.755 241.978,-362.755"/>
<polyline fill="none" stroke="white" stroke-width="2" points="241.978,-362.755 271.978,-362.755 "/>
<path fill="none" stroke="white" stroke-width="2" d="M271.978,-362.755C277.978,-362.755 283.978,-368.755 283.978,-374.755"/>
<polyline fill="none" stroke="white" stroke-width="2" points="283.978,-374.755 283.978,-386.755 "/>
<path fill="none" stroke="white" stroke-width="2" d="M283.978,-386.755C283.978,-392.755 277.978,-398.755 271.978,-398.755"/>
<text text-anchor="middle" x="256.978" y="-378.255" font-family="Helvetica,sans-Serif" font-size="10.00">CREB1</text>
</a>
</g>
<!-- SOX4&#45;&gt;CREB1 -->
<g id="edge44" class="edge"><title>SOX4&#45;&gt;CREB1</title>
<a xlink:title="CREB1: 0.055||remove10root">
<path fill="none" stroke="#ffc5c5" stroke-width="3" d="M205.755,-217.704C202.344,-247.89 199.322,-309.093 222.835,-353.035 223.421,-354.129 224.069,-355.196 224.771,-356.235"/>
<polygon fill="#ffc5c5" stroke="#ffc5c5" points="222.816,-358.266 230.058,-362.671 227.143,-354.712 222.816,-358.266"/>
</a>
</g>
<!-- DBP&#45;&gt;SOX4 -->
<g id="edge40" class="edge"><title>DBP&#45;&gt;SOX4</title>
<a xlink:title="SOX4: 0.176||remove21root">
<path fill="none" stroke="#b6beff" stroke-width="3" d="M93.7838,-313.972C117.192,-290.564 157.947,-249.808 184.017,-223.738"/>
<polygon fill="#b6beff" stroke="#b6beff" points="186.31,-225.405 189.987,-217.768 182.351,-221.445 186.31,-225.405"/>
</a>
</g>
<!-- GFI1&#45;&gt;SOX4 -->
<g id="edge34" class="edge"><title>GFI1&#45;&gt;SOX4</title>
<a xlink:title="SOX4: 0.259||remove25root">
<path fill="none" stroke="#acb5ff" stroke-width="3" d="M54.1541,-240.702C85.9012,-232.195 138.524,-218.095 173.328,-208.769"/>
<polygon fill="#acb5ff" stroke="#acb5ff" points="174.332,-211.399 181.335,-206.624 172.882,-205.99 174.332,-211.399"/>
</a>
</g>
<!-- GFI1&#45;&gt;DBP -->
<g id="edge38" class="edge"><title>GFI1&#45;&gt;DBP</title>
<a xlink:title="DBP: 0.046||GFI1: 0.084||remove15root">
<path fill="none" stroke="#ecc6ff" stroke-width="3" d="M42.4347,-272.711C48.5797,-283.355 55.7192,-295.721 61.8675,-306.37"/>
<path fill="none" stroke="#ebc1ff" stroke-width="3" d="M40.7027,-273.711C46.8476,-284.355 53.9872,-296.721 60.1354,-307.37"/>
<polygon fill="#ebc1ff" stroke="#ebc1ff" points="43.9704,-271.771 37.5455,-266.243 39.1207,-274.571 43.9704,-271.771"/>
<polygon fill="#ecc6ff" stroke="#ecc6ff" points="58.6502,-308.397 65.0751,-313.926 63.4999,-305.597 58.6502,-308.397"/>
</a>
</g>
<!-- GFI1&#45;&gt;YBX1_FOS_NFYC_NFYA_NFYB_CEBPZ -->
<g id="edge36" class="edge"><title>GFI1&#45;&gt;YBX1_FOS_NFYC_NFYA_NFYB_CEBPZ</title>
<a xlink:title="NFYA: 0.015||remove1root">
<path fill="none" stroke="#eecaff" stroke-width="3" d="M54.0566,-255.227C100.704,-267.727 197.825,-293.75 266.144,-312.056"/>
<polygon fill="#eecaff" stroke="#eecaff" points="265.458,-314.771 273.911,-314.137 266.908,-309.362 265.458,-314.771"/>
</a>
</g>
<!-- CPEB1&#45;&gt;SOX4 -->
<g id="edge28" class="edge"><title>CPEB1&#45;&gt;SOX4</title>
<a xlink:title="SOX4: 0.270||remove26root">
<path fill="none" stroke="#abb3ff" stroke-width="3" d="M54.1541,-158.054C85.9012,-166.56 138.524,-180.66 173.328,-189.986"/>
<polygon fill="#abb3ff" stroke="#abb3ff" points="172.882,-192.765 181.335,-192.132 174.332,-187.356 172.882,-192.765"/>
</a>
</g>
<!-- CPEB1&#45;&gt;ZBTB33_CHD2 -->
<g id="edge32" class="edge"><title>CPEB1&#45;&gt;ZBTB33_CHD2</title>
<a xlink:title="CHD2: 0.149||remove18">
<path fill="none" stroke="#e8baff" stroke-width="3" d="M54.2249,-166.475C83.5623,-182.641 132.106,-207.253 177.058,-220.258 230.828,-235.813 294.783,-242.658 338.426,-245.659"/>
<polygon fill="#e8baff" stroke="#e8baff" points="338.437,-248.465 346.603,-246.192 338.802,-242.877 338.437,-248.465"/>
</a>
</g>
<!-- RCOR1_MTA3 -->
<g id="node14" class="node"><title>RCOR1_MTA3</title>
<a xlink:href="RCOR1_MTA3.svg" xlink:title="Z&#45;value: 1.731||remove14">
<polygon fill="#5061ff" stroke="#5061ff" stroke-width="2" points="189.028,-36 130.528,-36 118.528,-24 118.528,-12 130.528,-6.39488e-14 189.028,-6.39488e-14 201.028,-12 201.028,-24 189.028,-36"/>
<path fill="#5061ff" stroke="#5061ff" stroke-width="2" d="M130.528,-36C124.528,-36 118.528,-30 118.528,-24"/>
<path fill="#5061ff" stroke="#5061ff" stroke-width="2" d="M118.528,-12C118.528,-6 124.528,-6.39488e-14 130.528,-6.39488e-14"/>
<path fill="#5061ff" stroke="#5061ff" stroke-width="2" d="M189.028,-6.39488e-14C195.028,-6.39488e-14 201.028,-6 201.028,-12"/>
<path fill="#5061ff" stroke="#5061ff" stroke-width="2" d="M201.028,-24C201.028,-30 195.028,-36 189.028,-36"/>
<polyline fill="none" stroke="white" stroke-width="2" points="189.028,-36 130.528,-36 "/>
<path fill="none" stroke="white" stroke-width="2" d="M130.528,-36C124.528,-36 118.528,-30 118.528,-24"/>
<polyline fill="none" stroke="white" stroke-width="2" points="118.528,-24 118.528,-12 "/>
<path fill="none" stroke="white" stroke-width="2" d="M118.528,-12C118.528,-6 124.528,-6.39488e-14 130.528,-6.39488e-14"/>
<polyline fill="none" stroke="white" stroke-width="2" points="130.528,-6.39488e-14 189.028,-6.39488e-14 "/>
<path fill="none" stroke="white" stroke-width="2" d="M189.028,-6.39488e-14C195.028,-6.39488e-14 201.028,-6 201.028,-12"/>
<polyline fill="none" stroke="white" stroke-width="2" points="201.028,-12 201.028,-24 "/>
<path fill="none" stroke="white" stroke-width="2" d="M201.028,-24C201.028,-30 195.028,-36 189.028,-36"/>
<text text-anchor="middle" x="159.778" y="-15.5" font-family="Helvetica,sans-Serif" font-size="10.00" fill="white">RCOR1_MTA3</text>
</a>
</g>
<!-- CPEB1&#45;&gt;RCOR1_MTA3 -->
<g id="edge30" class="edge"><title>CPEB1&#45;&gt;RCOR1_MTA3</title>
<a xlink:title="RCOR1: 0.220||CPEB1: 0.565||remove14">
<path fill="none" stroke="#e6b1ff" stroke-width="3" d="M59.3245,-126.849C74.3608,-115.568 91.997,-101.278 106.206,-86.7798 119.5,-73.2351 132.517,-56.1856 142.265,-42.4179"/>
<path fill="none" stroke="#d988ff" stroke-width="3" d="M60.5248,-128.448C75.6199,-117.122 93.256,-102.832 107.634,-88.1802 121.089,-74.4488 134.106,-57.3993 143.897,-43.5738"/>
<polygon fill="#d988ff" stroke="#d988ff" points="57.9693,-125.612 53.2048,-132.622 61.3009,-130.113 57.9693,-125.612"/>
<polygon fill="#e6b1ff" stroke="#e6b1ff" points="145.601,-44.2771 147.879,-36.1129 141.007,-41.0748 145.601,-44.2771"/>
</a>
</g>
<!-- GTF2I&#45;&gt;SOX4 -->
<g id="edge20" class="edge"><title>GTF2I&#45;&gt;SOX4</title>
<a xlink:title="SOX4: 0.103||remove19root">
<path fill="none" stroke="#bfc5ff" stroke-width="3" d="M93.7838,-84.7838C117.192,-108.192 157.947,-148.947 184.017,-175.017"/>
<polygon fill="#bfc5ff" stroke="#bfc5ff" points="182.351,-177.31 189.987,-180.987 186.31,-173.351 182.351,-177.31"/>
</a>
</g>
<!-- GTF2I&#45;&gt;DBP -->
<g id="edge24" class="edge"><title>GTF2I&#45;&gt;DBP</title>
<a xlink:title="DBP: 0.111||remove19">
<path fill="none" stroke="#eabeff" stroke-width="3" d="M75.6,-84.8527C75.6,-130.918 75.6,-252.036 75.6,-305.798"/>
<polygon fill="#eabeff" stroke="#eabeff" points="72.8001,-306.126 75.6,-314.126 78.4001,-306.126 72.8001,-306.126"/>
</a>
</g>
<!-- GTF2I&#45;&gt;CPEB1 -->
<g id="edge26" class="edge"><title>GTF2I&#45;&gt;CPEB1</title>
<a xlink:title="CPEB1: 0.059||remove12root">
<path fill="none" stroke="#ecc4ff" stroke-width="3" d="M65.0545,-84.8653C58.1764,-96.7786 49.1061,-112.489 41.546,-125.583"/>
<polygon fill="#ecc4ff" stroke="#ecc4ff" points="39.1001,-124.22 37.5249,-132.548 43.9498,-127.02 39.1001,-124.22"/>
</a>
</g>
<!-- GTF2I&#45;&gt;YBX1_FOS_NFYC_NFYA_NFYB_CEBPZ -->
<g id="edge22" class="edge"><title>GTF2I&#45;&gt;YBX1_FOS_NFYC_NFYA_NFYB_CEBPZ</title>
<a xlink:title="NFYB: 0.236||NFYC: 0.075||GTF2I: 0.195||remove19">
<path fill="none" stroke="#e5afff" stroke-width="3" d="M89.2879,-91.6241C106.375,-123.959 139.083,-180.333 177.77,-219.556 214.197,-256.565 264.826,-288.875 300.092,-309.073"/>
<path fill="none" stroke="#e7b4ff" stroke-width="3" d="M87.5196,-92.5585C104.645,-124.963 137.353,-181.336 176.345,-220.959 213.121,-258.251 263.75,-290.561 299.098,-310.808"/>
<polygon fill="#e7b4ff" stroke="#e7b4ff" points="90.7777,-90.5881 84.5951,-84.7902 85.8126,-93.1781 90.7777,-90.5881"/>
<polygon fill="#e5afff" stroke="#e5afff" points="298.545,-312.564 306.886,-314.07 301.305,-307.691 298.545,-312.564"/>
</a>
</g>
<!-- ZBTB33_CHD2&#45;&gt;GTF2I -->
<g id="edge18" class="edge"><title>ZBTB33_CHD2&#45;&gt;GTF2I</title>
<a xlink:title="GTF2I: 0.003||CHD2: 0.051||remove7root">
<path fill="none" stroke="#eecbff" stroke-width="3" d="M350.825,-226.656C289.017,-190.971 168.491,-121.385 109.412,-87.2759"/>
<path fill="none" stroke="#ecc5ff" stroke-width="3" d="M351.825,-224.924C290.017,-189.239 169.491,-119.653 110.412,-85.5438"/>
<polygon fill="#ecc5ff" stroke="#ecc5ff" points="350.156,-228.348 358.484,-229.923 352.956,-223.498 350.156,-228.348"/>
<polygon fill="#eecbff" stroke="#eecbff" points="111.006,-83.8086 102.678,-82.2334 108.206,-88.6584 111.006,-83.8086"/>
</a>
</g>
<!-- ZBTB33_CHD2&#45;&gt;RCOR1_MTA3 -->
<g id="edge14" class="edge"><title>ZBTB33_CHD2&#45;&gt;RCOR1_MTA3</title>
<a xlink:title="MTA3: 0.089||remove14">
<path fill="none" stroke="#ebc1ff" stroke-width="3" d="M371.709,-229.932C330.667,-188.889 230.309,-88.5315 183.964,-42.1859"/>
<polygon fill="#ebc1ff" stroke="#ebc1ff" points="185.695,-39.9573 178.058,-36.2804 181.735,-43.9171 185.695,-39.9573"/>
</a>
</g>
<!-- ZBTB33_CHD2&#45;&gt;YBX1_FOS_NFYC_NFYA_NFYB_CEBPZ -->
<g id="edge16" class="edge"><title>ZBTB33_CHD2&#45;&gt;YBX1_FOS_NFYC_NFYA_NFYB_CEBPZ</title>
<a xlink:title="FOS: 0.098||NFYC: 0.086||CHD2: 0.102||remove18">
<path fill="none" stroke="#eac0ff" stroke-width="3" d="M376.053,-273.711C369.908,-284.355 362.768,-296.721 356.62,-307.37"/>
<path fill="none" stroke="#eabfff" stroke-width="3" d="M374.321,-272.711C368.176,-283.355 361.036,-295.721 354.888,-306.37"/>
<polygon fill="#eabfff" stroke="#eabfff" points="377.635,-274.571 379.21,-266.243 372.785,-271.771 377.635,-274.571"/>
<polygon fill="#eac0ff" stroke="#eac0ff" points="353.255,-305.597 351.68,-313.926 358.105,-308.397 353.255,-305.597"/>
</a>
</g>
<!-- RCOR1_MTA3&#45;&gt;FOXM1_TBL1XR1 -->
<g id="edge70" class="edge"><title>RCOR1_MTA3&#45;&gt;FOXM1_TBL1XR1</title>
<a xlink:title="FOXM1: 0.174||TBL1XR1: 0.055||remove14">
<path fill="none" stroke="#e8b7ff" stroke-width="3" d="M159.778,-36.4878C159.778,-96.3017 159.778,-284.716 159.778,-354.457"/>
<polygon fill="#e8b7ff" stroke="#e8b7ff" points="156.978,-354.735 159.778,-362.735 162.578,-354.735 156.978,-354.735"/>
</a>
</g>
<!-- RCOR1_MTA3&#45;&gt;SOX4 -->
<g id="edge58" class="edge"><title>RCOR1_MTA3&#45;&gt;SOX4</title>
<a xlink:title="SOX4: 0.075||remove14root">
<path fill="none" stroke="#c3c9ff" stroke-width="3" d="M164.615,-36.0543C173.254,-68.2929 191.362,-135.873 201.365,-173.204"/>
<polygon fill="#c3c9ff" stroke="#c3c9ff" points="198.712,-174.125 203.487,-181.127 204.121,-172.675 198.712,-174.125"/>
</a>
</g>
<!-- RCOR1_MTA3&#45;&gt;DBP -->
<g id="edge62" class="edge"><title>RCOR1_MTA3&#45;&gt;DBP</title>
<a xlink:title="DBP: 0.148||remove14">
<path fill="none" stroke="#e9baff" stroke-width="3" d="M154.888,-36.2482C140.65,-89.3869 99.1777,-244.162 82.5831,-306.094"/>
<polygon fill="#e9baff" stroke="#e9baff" points="79.8691,-305.405 80.5031,-313.857 85.2783,-306.854 79.8691,-305.405"/>
</a>
</g>
<!-- RCOR1_MTA3&#45;&gt;GFI1 -->
<g id="edge64" class="edge"><title>RCOR1_MTA3&#45;&gt;GFI1</title>
<a xlink:title="GFI1: 0.394||remove14">
<path fill="none" stroke="#df9cff" stroke-width="3" d="M149.359,-36.046C125.857,-76.7532 68.6651,-175.812 41.6252,-222.646"/>
<polygon fill="#df9cff" stroke="#df9cff" points="39.1293,-221.369 37.5542,-229.697 43.9791,-224.169 39.1293,-221.369"/>
</a>
</g>
<!-- RCOR1_MTA3&#45;&gt;GTF2I -->
<g id="edge68" class="edge"><title>RCOR1_MTA3&#45;&gt;GTF2I</title>
<a xlink:title="GTF2I: 0.468||remove14">
<path fill="none" stroke="#dc93ff" stroke-width="3" d="M128.433,-36.0968C122.386,-39.5884 116.021,-43.263 109.885,-46.8053"/>
<polygon fill="#dc93ff" stroke="#dc93ff" points="108.349,-44.459 102.821,-50.8839 111.149,-49.3087 108.349,-44.459"/>
</a>
</g>
<!-- RCOR1_MTA3&#45;&gt;RCOR1_MTA3 -->
<g id="edge60" class="edge"><title>RCOR1_MTA3&#45;&gt;RCOR1_MTA3</title>
<a xlink:title="RCOR1: 1.276||remove14">
<path fill="none" stroke="#bd32ff" stroke-width="3" d="M201.132,-24.6445C211.249,-24.1523 218.778,-21.9375 218.778,-18 218.778,-15.2314 215.056,-13.3145 209.329,-12.2493"/>
<polygon fill="#bd32ff" stroke="#bd32ff" points="209.389,-9.43931 201.132,-11.3555 208.782,-15.0063 209.389,-9.43931"/>
</a>
</g>
<!-- RCOR1_MTA3&#45;&gt;CREB1 -->
<g id="edge66" class="edge"><title>RCOR1_MTA3&#45;&gt;CREB1</title>
<a xlink:title="CREB1: 0.379||remove10">
<path fill="none" stroke="#e09eff" stroke-width="3" d="M159.836,-36.074C160.275,-71.7067 162.898,-153.37 177.058,-220.258 189.986,-281.325 187.055,-301.887 222.835,-353.035 223.648,-354.197 224.522,-355.335 225.444,-356.448"/>
<polygon fill="#e09eff" stroke="#e09eff" points="223.644,-358.62 231.166,-362.526 227.721,-354.782 223.644,-358.62"/>
</a>
</g>
<!-- EPAS1_BCL3 -->
<g id="node34" class="node"><title>EPAS1_BCL3</title>
<a xlink:href="EPAS1_BCL3.svg" xlink:title="Z&#45;value: 0.784||remove28">
<polygon fill="#939eff" stroke="#939eff" stroke-width="2" points="284.228,-36 229.728,-36 217.728,-24 217.728,-12 229.728,-0 284.228,-0 296.228,-12 296.228,-24 284.228,-36"/>
<path fill="#939eff" stroke="#939eff" stroke-width="2" d="M229.728,-36C223.728,-36 217.728,-30 217.728,-24"/>
<path fill="#939eff" stroke="#939eff" stroke-width="2" d="M217.728,-12C217.728,-6 223.728,-0 229.728,-0"/>
<path fill="#939eff" stroke="#939eff" stroke-width="2" d="M284.228,-0C290.228,-0 296.228,-6 296.228,-12"/>
<path fill="#939eff" stroke="#939eff" stroke-width="2" d="M296.228,-24C296.228,-30 290.228,-36 284.228,-36"/>
<polyline fill="none" stroke="white" stroke-width="2" points="284.228,-36 229.728,-36 "/>
<path fill="none" stroke="white" stroke-width="2" d="M229.728,-36C223.728,-36 217.728,-30 217.728,-24"/>
<polyline fill="none" stroke="white" stroke-width="2" points="217.728,-24 217.728,-12 "/>
<path fill="none" stroke="white" stroke-width="2" d="M217.728,-12C217.728,-6 223.728,-0 229.728,-0"/>
<polyline fill="none" stroke="white" stroke-width="2" points="229.728,-0 284.228,-0 "/>
<path fill="none" stroke="white" stroke-width="2" d="M284.228,-0C290.228,-0 296.228,-6 296.228,-12"/>
<polyline fill="none" stroke="white" stroke-width="2" points="296.228,-12 296.228,-24 "/>
<path fill="none" stroke="white" stroke-width="2" d="M296.228,-24C296.228,-30 290.228,-36 284.228,-36"/>
<text text-anchor="middle" x="256.978" y="-15.5" font-family="Helvetica,sans-Serif" font-size="10.00">EPAS1_BCL3</text>
</a>
</g>
<!-- RCOR1_MTA3&#45;&gt;EPAS1_BCL3 -->
<g id="edge56" class="edge"><title>RCOR1_MTA3&#45;&gt;EPAS1_BCL3</title>
<a xlink:title="EPAS1: 0.167||remove14">
<path fill="none" stroke="#e8b7ff" stroke-width="3" d="M201.281,-18C203.964,-18 206.677,-18 209.385,-18"/>
<polygon fill="#e8b7ff" stroke="#e8b7ff" points="209.465,-20.8001 217.465,-18 209.465,-15.2001 209.465,-20.8001"/>
</a>
</g>
<!-- POU5F1_POU2F3 -->
<g id="node47" class="node"><title>POU5F1_POU2F3</title>
<a xlink:href="POU5F1_POU2F3.svg" xlink:title="Z&#45;value: 0.774||remove27">
<polygon fill="#949fff" stroke="#949fff" stroke-width="2" points="377.655,-84.6 304.655,-84.6 292.655,-72.6 292.655,-60.6 304.655,-48.6 377.655,-48.6 389.655,-60.6 389.655,-72.6 377.655,-84.6"/>
<path fill="#949fff" stroke="#949fff" stroke-width="2" d="M304.655,-84.6C298.655,-84.6 292.655,-78.6 292.655,-72.6"/>
<path fill="#949fff" stroke="#949fff" stroke-width="2" d="M292.655,-60.6C292.655,-54.6 298.655,-48.6 304.655,-48.6"/>
<path fill="#949fff" stroke="#949fff" stroke-width="2" d="M377.655,-48.6C383.655,-48.6 389.655,-54.6 389.655,-60.6"/>
<path fill="#949fff" stroke="#949fff" stroke-width="2" d="M389.655,-72.6C389.655,-78.6 383.655,-84.6 377.655,-84.6"/>
<polyline fill="none" stroke="white" stroke-width="2" points="377.655,-84.6 304.655,-84.6 "/>
<path fill="none" stroke="white" stroke-width="2" d="M304.655,-84.6C298.655,-84.6 292.655,-78.6 292.655,-72.6"/>
<polyline fill="none" stroke="white" stroke-width="2" points="292.655,-72.6 292.655,-60.6 "/>
<path fill="none" stroke="white" stroke-width="2" d="M292.655,-60.6C292.655,-54.6 298.655,-48.6 304.655,-48.6"/>
<polyline fill="none" stroke="white" stroke-width="2" points="304.655,-48.6 377.655,-48.6 "/>
<path fill="none" stroke="white" stroke-width="2" d="M377.655,-48.6C383.655,-48.6 389.655,-54.6 389.655,-60.6"/>
<polyline fill="none" stroke="white" stroke-width="2" points="389.655,-60.6 389.655,-72.6 "/>
<path fill="none" stroke="white" stroke-width="2" d="M389.655,-72.6C389.655,-78.6 383.655,-84.6 377.655,-84.6"/>
<text text-anchor="middle" x="341.155" y="-64.1" font-family="Helvetica,sans-Serif" font-size="10.00">POU5F1_POU2F3</text>
</a>
</g>
<!-- RCOR1_MTA3&#45;&gt;POU5F1_POU2F3 -->
<g id="edge72" class="edge"><title>RCOR1_MTA3&#45;&gt;POU5F1_POU2F3</title>
<a xlink:title="POU2F3: 0.653||remove14">
<path fill="none" stroke="#d57dff" stroke-width="3" d="M201.054,-35.5022C204.447,-36.7176 207.844,-37.8621 211.158,-38.88 234.639,-46.0934 261.07,-52.1008 283.937,-56.6579"/>
<polygon fill="#d57dff" stroke="#d57dff" points="283.477,-59.421 291.866,-58.2089 284.552,-53.9251 283.477,-59.421"/>
</a>
</g>
<!-- YBX1_FOS_NFYC_NFYA_NFYB_CEBPZ&#45;&gt;DBP -->
<g id="edge54" class="edge"><title>YBX1_FOS_NFYC_NFYA_NFYB_CEBPZ&#45;&gt;DBP</title>
<a xlink:title="DBP: 0.044||remove4root">
<path fill="none" stroke="#ecc6ff" stroke-width="3" d="M239.624,-332.155C194.328,-332.155 143.888,-332.155 111.057,-332.155"/>
<polygon fill="#ecc6ff" stroke="#ecc6ff" points="110.693,-329.355 102.693,-332.155 110.693,-334.955 110.693,-329.355"/>
</a>
</g>
<!-- YBX1_FOS_NFYC_NFYA_NFYB_CEBPZ&#45;&gt;RCOR1_MTA3 -->
<g id="edge50" class="edge"><title>YBX1_FOS_NFYC_NFYA_NFYB_CEBPZ&#45;&gt;RCOR1_MTA3</title>
<a xlink:title="RCOR1: 0.148||NFYB: 0.666||NFYC: 0.172||YBX1: 0.144||remove14">
<path fill="none" stroke="#e9baff" stroke-width="3" d="M325.711,-307.406C291.738,-248.561 207.607,-102.842 173.562,-43.875"/>
<path fill="none" stroke="#d57cff" stroke-width="3" d="M327.443,-306.406C293.47,-247.561 209.339,-101.842 175.294,-42.875"/>
<polygon fill="#d57cff" stroke="#d57cff" points="324.195,-308.379 330.62,-313.907 329.045,-305.579 324.195,-308.379"/>
<polygon fill="#e9baff" stroke="#e9baff" points="176.767,-41.8268 170.342,-36.2986 171.918,-44.6268 176.767,-41.8268"/>
</a>
</g>
<!-- YBX1_FOS_NFYC_NFYA_NFYB_CEBPZ&#45;&gt;YBX1_FOS_NFYC_NFYA_NFYB_CEBPZ -->
<g id="edge52" class="edge"><title>YBX1_FOS_NFYC_NFYA_NFYB_CEBPZ&#45;&gt;YBX1_FOS_NFYC_NFYA_NFYB_CEBPZ</title>
<a xlink:title="NFYC: 1.015||remove20">
<path fill="none" stroke="#c752ff" stroke-width="3" d="M442.72,-337.748C453.346,-336.656 460.155,-334.792 460.155,-332.155 460.155,-330.26 456.638,-328.764 450.713,-327.667"/>
<polygon fill="#c752ff" stroke="#c752ff" points="451.028,-324.884 442.72,-326.563 450.261,-330.431 451.028,-324.884"/>
</a>
</g>
<!-- YBX1_FOS_NFYC_NFYA_NFYB_CEBPZ&#45;&gt;EPAS1_BCL3 -->
<g id="edge48" class="edge"><title>YBX1_FOS_NFYC_NFYA_NFYB_CEBPZ&#45;&gt;EPAS1_BCL3</title>
<a xlink:title="EPAS1: 0.035||YBX1: 0.026||remove2root">
<path fill="none" stroke="#edc7ff" stroke-width="3" d="M333.222,-306.411C317.388,-247.318 278.846,-103.479 262.996,-44.3246"/>
<path fill="none" stroke="#edc8ff" stroke-width="3" d="M335.154,-305.894C319.32,-246.8 280.778,-102.961 264.928,-43.807"/>
<polygon fill="#edc8ff" stroke="#edc8ff" points="331.491,-306.904 336.266,-313.907 336.9,-305.455 331.491,-306.904"/>
<polygon fill="#edc7ff" stroke="#edc7ff" points="266.656,-43.3013 261.881,-36.2986 261.247,-44.7507 266.656,-43.3013"/>
</a>
</g>
<!-- CREB1&#45;&gt;GFI1 -->
<g id="edge86" class="edge"><title>CREB1&#45;&gt;GFI1</title>
<a xlink:title="GFI1: 0.059||remove10">
<path fill="none" stroke="#ecc4ff" stroke-width="3" d="M229.693,-365.003C187.68,-340.746 107.208,-294.286 61.3077,-267.785"/>
<polygon fill="#ecc4ff" stroke="#ecc4ff" points="62.5773,-265.285 54.2491,-263.71 59.7773,-270.135 62.5773,-265.285"/>
</a>
</g>
<!-- CREB1&#45;&gt;YBX1_FOS_NFYC_NFYA_NFYB_CEBPZ -->
<g id="edge84" class="edge"><title>CREB1&#45;&gt;YBX1_FOS_NFYC_NFYA_NFYB_CEBPZ</title>
<a xlink:title="NFYB: 0.001||remove0root">
<path fill="none" stroke="#eecbff" stroke-width="3" d="M284.075,-365.11C289.948,-361.72 296.268,-358.071 302.489,-354.48"/>
<polygon fill="#eecbff" stroke="#eecbff" points="304.183,-356.734 309.712,-350.309 301.383,-351.885 304.183,-356.734"/>
</a>
</g>
<!-- EPAS1_BCL3&#45;&gt;SOX4 -->
<g id="edge74" class="edge"><title>EPAS1_BCL3&#45;&gt;SOX4</title>
<a xlink:title="SOX4: 0.298||remove28root">
<path fill="none" stroke="#a8b0ff" stroke-width="3" d="M252.14,-36.0543C243.502,-68.2929 225.394,-135.873 215.391,-173.204"/>
<polygon fill="#a8b0ff" stroke="#a8b0ff" points="212.634,-172.675 213.268,-181.127 218.043,-174.125 212.634,-172.675"/>
</a>
</g>
<!-- POU5F1_POU2F3&#45;&gt;FOXM1_TBL1XR1 -->
<g id="edge80" class="edge"><title>POU5F1_POU2F3&#45;&gt;FOXM1_TBL1XR1</title>
<a xlink:title="TBL1XR1: 0.054||remove9root">
<path fill="none" stroke="#ecc5ff" stroke-width="3" d="M330.62,-84.8482C299.815,-138.204 209.85,-294.027 174.389,-355.448"/>
<polygon fill="#ecc5ff" stroke="#ecc5ff" points="171.918,-354.129 170.342,-362.457 176.767,-356.929 171.918,-354.129"/>
</a>
</g>
<!-- POU5F1_POU2F3&#45;&gt;SOX4 -->
<g id="edge76" class="edge"><title>POU5F1_POU2F3&#45;&gt;SOX4</title>
<a xlink:title="SOX4: 0.279||remove27root">
<path fill="none" stroke="#aab2ff" stroke-width="3" d="M322.972,-84.7838C299.564,-108.192 258.808,-148.947 232.738,-175.017"/>
<polygon fill="#aab2ff" stroke="#aab2ff" points="230.445,-173.351 226.768,-180.987 234.405,-177.31 230.445,-173.351"/>
</a>
</g>
<!-- POU5F1_POU2F3&#45;&gt;CPEB1 -->
<g id="edge78" class="edge"><title>POU5F1_POU2F3&#45;&gt;CPEB1</title>
<a xlink:title="CPEB1: 0.047||remove6root">
<path fill="none" stroke="#ecc6ff" stroke-width="3" d="M292.413,-79.6604C228.678,-96.7382 118.547,-126.248 62.2928,-141.321"/>
<polygon fill="#ecc6ff" stroke="#ecc6ff" points="61.3987,-138.662 54.396,-143.437 62.8481,-144.071 61.3987,-138.662"/>
</a>
</g>
<!-- POU5F1_POU2F3&#45;&gt;POU5F1_POU2F3 -->
<g id="edge82" class="edge"><title>POU5F1_POU2F3&#45;&gt;POU5F1_POU2F3</title>
<a xlink:title="POU2F3: 0.236||remove24root">
<path fill="none" stroke="#e5afff" stroke-width="3" d="M389.795,-73.1127C399.894,-72.4272 407.155,-70.2563 407.155,-66.6 407.155,-64.0292 403.565,-62.1927 397.923,-61.0906"/>
<polygon fill="#e5afff" stroke="#e5afff" points="398.078,-58.2885 389.795,-60.0873 397.392,-63.8464 398.078,-58.2885"/>
</a>
</g>
<!-- KLF6 -->
<g id="node56" class="node"><title>KLF6</title>
<a xlink:href="KLF6.svg" xlink:title="Z&#45;value: 0.591||remove17">
<polygon fill="#a1abff" stroke="#a1abff" stroke-width="2" points="404.755,-168.778 374.755,-168.778 362.755,-156.778 362.755,-144.778 374.755,-132.778 404.755,-132.778 416.755,-144.778 416.755,-156.778 404.755,-168.778"/>
<path fill="#a1abff" stroke="#a1abff" stroke-width="2" d="M374.755,-168.778C368.755,-168.778 362.755,-162.778 362.755,-156.778"/>
<path fill="#a1abff" stroke="#a1abff" stroke-width="2" d="M362.755,-144.778C362.755,-138.778 368.755,-132.778 374.755,-132.778"/>
<path fill="#a1abff" stroke="#a1abff" stroke-width="2" d="M404.755,-132.778C410.755,-132.778 416.755,-138.778 416.755,-144.778"/>
<path fill="#a1abff" stroke="#a1abff" stroke-width="2" d="M416.755,-156.778C416.755,-162.778 410.755,-168.778 404.755,-168.778"/>
<polyline fill="none" stroke="white" stroke-width="2" points="404.755,-168.778 374.755,-168.778 "/>
<path fill="none" stroke="white" stroke-width="2" d="M374.755,-168.778C368.755,-168.778 362.755,-162.778 362.755,-156.778"/>
<polyline fill="none" stroke="white" stroke-width="2" points="362.755,-156.778 362.755,-144.778 "/>
<path fill="none" stroke="white" stroke-width="2" d="M362.755,-144.778C362.755,-138.778 368.755,-132.778 374.755,-132.778"/>
<polyline fill="none" stroke="white" stroke-width="2" points="374.755,-132.778 404.755,-132.778 "/>
<path fill="none" stroke="white" stroke-width="2" d="M404.755,-132.778C410.755,-132.778 416.755,-138.778 416.755,-144.778"/>
<polyline fill="none" stroke="white" stroke-width="2" points="416.755,-144.778 416.755,-156.778 "/>
<path fill="none" stroke="white" stroke-width="2" d="M416.755,-156.778C416.755,-162.778 410.755,-168.778 404.755,-168.778"/>
<text text-anchor="middle" x="389.755" y="-148.278" font-family="Helvetica,sans-Serif" font-size="10.00">KLF6</text>
</a>
</g>
<!-- KLF6&#45;&gt;SOX4 -->
<g id="edge88" class="edge"><title>KLF6&#45;&gt;SOX4</title>
<a xlink:title="SOX4: 0.100||remove17root">
<path fill="none" stroke="#c0c6ff" stroke-width="3" d="M362.601,-158.054C330.854,-166.56 278.232,-180.66 243.428,-189.986"/>
<polygon fill="#c0c6ff" stroke="#c0c6ff" points="242.423,-187.356 235.421,-192.132 243.873,-192.765 242.423,-187.356"/>
</a>
</g>
<!-- KLF6&#45;&gt;CPEB1 -->
<g id="edge94" class="edge"><title>KLF6&#45;&gt;CPEB1</title>
<a xlink:title="CPEB1: 0.057||remove11root">
<path fill="none" stroke="#ecc5ff" stroke-width="3" d="M362.49,-150.778C297.731,-150.778 134.707,-150.778 62.4378,-150.778"/>
<polygon fill="#ecc5ff" stroke="#ecc5ff" points="62.0872,-147.978 54.0872,-150.778 62.0871,-153.578 62.0872,-147.978"/>
</a>
</g>
<!-- KLF6&#45;&gt;RCOR1_MTA3 -->
<g id="edge90" class="edge"><title>KLF6&#45;&gt;RCOR1_MTA3</title>
<a xlink:title="MTA3: 0.039||remove3root">
<path fill="none" stroke="#edc7ff" stroke-width="3" d="M362.471,-135.025C321.7,-111.486 244.711,-67.0362 198.246,-40.2097"/>
<polygon fill="#edc7ff" stroke="#edc7ff" points="199.389,-37.6366 191.061,-36.0614 196.589,-42.4863 199.389,-37.6366"/>
</a>
</g>
<!-- KLF6&#45;&gt;YBX1_FOS_NFYC_NFYA_NFYB_CEBPZ -->
<g id="edge92" class="edge"><title>KLF6&#45;&gt;YBX1_FOS_NFYC_NFYA_NFYB_CEBPZ</title>
<a xlink:title="NFYC: 0.052||YBX1: 0.042||remove8root">
<path fill="none" stroke="#ecc5ff" stroke-width="3" d="M373.449,-168.974C361.558,-183.537 346.426,-205.101 339.875,-227.098 332.154,-253.025 333.809,-284.173 336.568,-305.789"/>
<polygon fill="#ecc5ff" stroke="#ecc5ff" points="333.816,-306.328 337.705,-313.859 339.361,-305.547 333.816,-306.328"/>
</a>
</g>
</g>
</svg>
