<?xml version="1.0" encoding="UTF-8" standalone="no"?>
<!DOCTYPE svg PUBLIC "-//W3C//DTD SVG 1.1//EN"
 "http://www.w3.org/Graphics/SVG/1.1/DTD/svg11.dtd">
<!-- Generated by graphviz version 2.28.0 (20110630.0925)
 -->
<!-- Title: _anonymous_0 Pages: 1 -->
<svg width="481pt" height="434pt"
 viewBox="0.00 0.00 481.13 433.63" xmlns="http://www.w3.org/2000/svg" xmlns:xlink="http://www.w3.org/1999/xlink">
<g id="graph1" class="graph" transform="scale(1 1) rotate(0) translate(4 429.626)">
<title>_anonymous_0</title>
<polygon fill="white" stroke="white" points="-4,5 -4,-429.626 478.126,-429.626 478.126,5 -4,5"/>
<!-- ID4_TCF4_SNAI2 -->
<g id="node1" class="node"><title>ID4_TCF4_SNAI2</title>
<a xlink:href="ID4_TCF4_SNAI2.svg" xlink:title="Z&#45;value: 1.966||remove17">
<polygon fill="#3247ff" stroke="#3247ff" stroke-width="2" points="127.95,-373.426 55.45,-373.426 43.45,-361.426 43.45,-349.426 55.45,-337.426 127.95,-337.426 139.95,-349.426 139.95,-361.426 127.95,-373.426"/>
<path fill="#3247ff" stroke="#3247ff" stroke-width="2" d="M55.45,-373.426C49.45,-373.426 43.45,-367.426 43.45,-361.426"/>
<path fill="#3247ff" stroke="#3247ff" stroke-width="2" d="M43.45,-349.426C43.45,-343.426 49.45,-337.426 55.45,-337.426"/>
<path fill="#3247ff" stroke="#3247ff" stroke-width="2" d="M127.95,-337.426C133.95,-337.426 139.95,-343.426 139.95,-349.426"/>
<path fill="#3247ff" stroke="#3247ff" stroke-width="2" d="M139.95,-361.426C139.95,-367.426 133.95,-373.426 127.95,-373.426"/>
<polyline fill="none" stroke="white" stroke-width="2" points="127.95,-373.426 55.45,-373.426 "/>
<path fill="none" stroke="white" stroke-width="2" d="M55.45,-373.426C49.45,-373.426 43.45,-367.426 43.45,-361.426"/>
<polyline fill="none" stroke="white" stroke-width="2" points="43.45,-361.426 43.45,-349.426 "/>
<path fill="none" stroke="white" stroke-width="2" d="M43.45,-349.426C43.45,-343.426 49.45,-337.426 55.45,-337.426"/>
<polyline fill="none" stroke="white" stroke-width="2" points="55.45,-337.426 127.95,-337.426 "/>
<path fill="none" stroke="white" stroke-width="2" d="M127.95,-337.426C133.95,-337.426 139.95,-343.426 139.95,-349.426"/>
<polyline fill="none" stroke="white" stroke-width="2" points="139.95,-349.426 139.95,-361.426 "/>
<path fill="none" stroke="white" stroke-width="2" d="M139.95,-361.426C139.95,-367.426 133.95,-373.426 127.95,-373.426"/>
<text text-anchor="middle" x="91.7" y="-352.926" font-family="Helvetica,sans-Serif" font-size="10.00" fill="white">ID4_TCF4_SNAI2</text>
</a>
</g>
<!-- ID4_TCF4_SNAI2&#45;&gt;ID4_TCF4_SNAI2 -->
<g id="edge8" class="edge"><title>ID4_TCF4_SNAI2&#45;&gt;ID4_TCF4_SNAI2</title>
<a xlink:title="SNAI2: 0.300||TCF4: 0.041||remove17">
<path fill="none" stroke="#e6b2ff" stroke-width="3" d="M140.414,-361.958C150.742,-361.295 158.2,-359.118 158.2,-355.426 158.2,-352.831 154.513,-350.984 148.733,-349.885"/>
<polygon fill="#e6b2ff" stroke="#e6b2ff" points="148.689,-347.06 140.414,-348.894 148.027,-352.621 148.689,-347.06"/>
</a>
</g>
<!-- ATF6 -->
<g id="node2" class="node"><title>ATF6</title>
<a xlink:href="ATF6.svg" xlink:title="Z&#45;value: 0.539||remove19">
<polygon fill="#a2abff" stroke="#a2abff" stroke-width="2" points="444.126,-283.013 414.126,-283.013 402.126,-271.013 402.126,-259.013 414.126,-247.013 444.126,-247.013 456.126,-259.013 456.126,-271.013 444.126,-283.013"/>
<path fill="#a2abff" stroke="#a2abff" stroke-width="2" d="M414.126,-283.013C408.126,-283.013 402.126,-277.013 402.126,-271.013"/>
<path fill="#a2abff" stroke="#a2abff" stroke-width="2" d="M402.126,-259.013C402.126,-253.013 408.126,-247.013 414.126,-247.013"/>
<path fill="#a2abff" stroke="#a2abff" stroke-width="2" d="M444.126,-247.013C450.126,-247.013 456.126,-253.013 456.126,-259.013"/>
<path fill="#a2abff" stroke="#a2abff" stroke-width="2" d="M456.126,-271.013C456.126,-277.013 450.126,-283.013 444.126,-283.013"/>
<polyline fill="none" stroke="white" stroke-width="2" points="444.126,-283.013 414.126,-283.013 "/>
<path fill="none" stroke="white" stroke-width="2" d="M414.126,-283.013C408.126,-283.013 402.126,-277.013 402.126,-271.013"/>
<polyline fill="none" stroke="white" stroke-width="2" points="402.126,-271.013 402.126,-259.013 "/>
<path fill="none" stroke="white" stroke-width="2" d="M402.126,-259.013C402.126,-253.013 408.126,-247.013 414.126,-247.013"/>
<polyline fill="none" stroke="white" stroke-width="2" points="414.126,-247.013 444.126,-247.013 "/>
<path fill="none" stroke="white" stroke-width="2" d="M444.126,-247.013C450.126,-247.013 456.126,-253.013 456.126,-259.013"/>
<polyline fill="none" stroke="white" stroke-width="2" points="456.126,-259.013 456.126,-271.013 "/>
<path fill="none" stroke="white" stroke-width="2" d="M456.126,-271.013C456.126,-277.013 450.126,-283.013 444.126,-283.013"/>
<text text-anchor="middle" x="429.126" y="-262.513" font-family="Helvetica,sans-Serif" font-size="10.00">ATF6</text>
</a>
</g>
<!-- ID4_TCF4_SNAI2&#45;&gt;ATF6 -->
<g id="edge2" class="edge"><title>ID4_TCF4_SNAI2&#45;&gt;ATF6</title>
<a xlink:title="ATF6: 0.580||remove17">
<path fill="none" stroke="#de9aff" stroke-width="3" d="M140.404,-342.376C209.397,-323.889 333.904,-290.528 394.338,-274.335"/>
<polygon fill="#de9aff" stroke="#de9aff" points="395.077,-277.035 402.08,-272.26 393.627,-271.626 395.077,-277.035"/>
</a>
</g>
<!-- PATZ1_KLF4 -->
<g id="node4" class="node"><title>PATZ1_KLF4</title>
<a xlink:href="PATZ1_KLF4.svg" xlink:title="Z&#45;value: 1.751||remove15">
<polygon fill="#4356ff" stroke="#4356ff" stroke-width="2" points="65.5,-283.013 13.5,-283.013 1.5,-271.013 1.5,-259.013 13.5,-247.013 65.5,-247.013 77.5,-259.013 77.5,-271.013 65.5,-283.013"/>
<path fill="#4356ff" stroke="#4356ff" stroke-width="2" d="M13.5,-283.013C7.5,-283.013 1.5,-277.013 1.5,-271.013"/>
<path fill="#4356ff" stroke="#4356ff" stroke-width="2" d="M1.5,-259.013C1.5,-253.013 7.5,-247.013 13.5,-247.013"/>
<path fill="#4356ff" stroke="#4356ff" stroke-width="2" d="M65.5,-247.013C71.5,-247.013 77.5,-253.013 77.5,-259.013"/>
<path fill="#4356ff" stroke="#4356ff" stroke-width="2" d="M77.5,-271.013C77.5,-277.013 71.5,-283.013 65.5,-283.013"/>
<polyline fill="none" stroke="white" stroke-width="2" points="65.5,-283.013 13.5,-283.013 "/>
<path fill="none" stroke="white" stroke-width="2" d="M13.5,-283.013C7.5,-283.013 1.5,-277.013 1.5,-271.013"/>
<polyline fill="none" stroke="white" stroke-width="2" points="1.5,-271.013 1.5,-259.013 "/>
<path fill="none" stroke="white" stroke-width="2" d="M1.5,-259.013C1.5,-253.013 7.5,-247.013 13.5,-247.013"/>
<polyline fill="none" stroke="white" stroke-width="2" points="13.5,-247.013 65.5,-247.013 "/>
<path fill="none" stroke="white" stroke-width="2" d="M65.5,-247.013C71.5,-247.013 77.5,-253.013 77.5,-259.013"/>
<polyline fill="none" stroke="white" stroke-width="2" points="77.5,-259.013 77.5,-271.013 "/>
<path fill="none" stroke="white" stroke-width="2" d="M77.5,-271.013C77.5,-277.013 71.5,-283.013 65.5,-283.013"/>
<text text-anchor="middle" x="39.5" y="-262.513" font-family="Helvetica,sans-Serif" font-size="10.00" fill="white">PATZ1_KLF4</text>
</a>
</g>
<!-- ID4_TCF4_SNAI2&#45;&gt;PATZ1_KLF4 -->
<g id="edge4" class="edge"><title>ID4_TCF4_SNAI2&#45;&gt;PATZ1_KLF4</title>
<a xlink:title="PATZ1: 0.067||SNAI2: 0.109||TCF4: 0.089||remove15">
<path fill="none" stroke="#ecc6ff" stroke-width="3" d="M76.2389,-330.647C69.0516,-318.198 60.4091,-303.229 53.2227,-290.781"/>
<path fill="none" stroke="#ebc2ff" stroke-width="3" d="M77.9709,-329.647C70.7836,-317.198 62.1412,-302.229 54.9548,-289.781"/>
<polygon fill="#ebc2ff" stroke="#ebc2ff" points="74.7116,-331.601 81.1366,-337.13 79.5614,-328.801 74.7116,-331.601"/>
<polygon fill="#ecc6ff" stroke="#ecc6ff" points="56.4727,-288.81 50.0477,-283.282 51.6229,-291.611 56.4727,-288.81"/>
</a>
</g>
<!-- SOX8 -->
<g id="node6" class="node"><title>SOX8</title>
<a xlink:href="SOX8.svg" xlink:title="Z&#45;value: 0.465||remove21">
<polygon fill="#ffa7a7" stroke="#ffa7a7" stroke-width="2" points="249.313,-230.813 219.313,-230.813 207.313,-218.813 207.313,-206.813 219.313,-194.813 249.313,-194.813 261.313,-206.813 261.313,-218.813 249.313,-230.813"/>
<path fill="#ffa7a7" stroke="#ffa7a7" stroke-width="2" d="M219.313,-230.813C213.313,-230.813 207.313,-224.813 207.313,-218.813"/>
<path fill="#ffa7a7" stroke="#ffa7a7" stroke-width="2" d="M207.313,-206.813C207.313,-200.813 213.313,-194.813 219.313,-194.813"/>
<path fill="#ffa7a7" stroke="#ffa7a7" stroke-width="2" d="M249.313,-194.813C255.313,-194.813 261.313,-200.813 261.313,-206.813"/>
<path fill="#ffa7a7" stroke="#ffa7a7" stroke-width="2" d="M261.313,-218.813C261.313,-224.813 255.313,-230.813 249.313,-230.813"/>
<polyline fill="none" stroke="white" stroke-width="2" points="249.313,-230.813 219.313,-230.813 "/>
<path fill="none" stroke="white" stroke-width="2" d="M219.313,-230.813C213.313,-230.813 207.313,-224.813 207.313,-218.813"/>
<polyline fill="none" stroke="white" stroke-width="2" points="207.313,-218.813 207.313,-206.813 "/>
<path fill="none" stroke="white" stroke-width="2" d="M207.313,-206.813C207.313,-200.813 213.313,-194.813 219.313,-194.813"/>
<polyline fill="none" stroke="white" stroke-width="2" points="219.313,-194.813 249.313,-194.813 "/>
<path fill="none" stroke="white" stroke-width="2" d="M249.313,-194.813C255.313,-194.813 261.313,-200.813 261.313,-206.813"/>
<polyline fill="none" stroke="white" stroke-width="2" points="261.313,-206.813 261.313,-218.813 "/>
<path fill="none" stroke="white" stroke-width="2" d="M261.313,-218.813C261.313,-224.813 255.313,-230.813 249.313,-230.813"/>
<text text-anchor="middle" x="234.313" y="-210.313" font-family="Helvetica,sans-Serif" font-size="10.00">SOX8</text>
</a>
</g>
<!-- ID4_TCF4_SNAI2&#45;&gt;SOX8 -->
<g id="edge6" class="edge"><title>ID4_TCF4_SNAI2&#45;&gt;SOX8</title>
<a xlink:title="SOX8: 0.067||TCF4: 0.090||remove17root">
<path fill="none" stroke="#c6cbff" stroke-width="3" d="M114.796,-330.916C141.076,-304.636 183.149,-262.563 209.536,-236.176"/>
<path fill="none" stroke="#ffc4c4" stroke-width="3" d="M116.21,-332.331C142.49,-306.05 184.563,-263.977 210.95,-237.59"/>
<polygon fill="#ffc4c4" stroke="#ffc4c4" points="113.439,-329.727 109.762,-337.364 117.399,-333.687 113.439,-329.727"/>
<polygon fill="#c6cbff" stroke="#c6cbff" points="212.27,-238.816 215.947,-231.179 208.31,-234.856 212.27,-238.816"/>
</a>
</g>
<!-- EPAS1_BCL3 -->
<g id="node9" class="node"><title>EPAS1_BCL3</title>
<a xlink:href="EPAS1_BCL3.svg" xlink:title="Z&#45;value: 0.784||remove16">
<polygon fill="#8f9aff" stroke="#8f9aff" stroke-width="2" points="66.75,-178.613 12.25,-178.613 0.25,-166.613 0.25,-154.613 12.25,-142.613 66.75,-142.613 78.75,-154.613 78.75,-166.613 66.75,-178.613"/>
<path fill="#8f9aff" stroke="#8f9aff" stroke-width="2" d="M12.25,-178.613C6.25,-178.613 0.25,-172.613 0.25,-166.613"/>
<path fill="#8f9aff" stroke="#8f9aff" stroke-width="2" d="M0.25,-154.613C0.25,-148.613 6.25,-142.613 12.25,-142.613"/>
<path fill="#8f9aff" stroke="#8f9aff" stroke-width="2" d="M66.75,-142.613C72.75,-142.613 78.75,-148.613 78.75,-154.613"/>
<path fill="#8f9aff" stroke="#8f9aff" stroke-width="2" d="M78.75,-166.613C78.75,-172.613 72.75,-178.613 66.75,-178.613"/>
<polyline fill="none" stroke="white" stroke-width="2" points="66.75,-178.613 12.25,-178.613 "/>
<path fill="none" stroke="white" stroke-width="2" d="M12.25,-178.613C6.25,-178.613 0.25,-172.613 0.25,-166.613"/>
<polyline fill="none" stroke="white" stroke-width="2" points="0.25,-166.613 0.25,-154.613 "/>
<path fill="none" stroke="white" stroke-width="2" d="M0.25,-154.613C0.25,-148.613 6.25,-142.613 12.25,-142.613"/>
<polyline fill="none" stroke="white" stroke-width="2" points="12.25,-142.613 66.75,-142.613 "/>
<path fill="none" stroke="white" stroke-width="2" d="M66.75,-142.613C72.75,-142.613 78.75,-148.613 78.75,-154.613"/>
<polyline fill="none" stroke="white" stroke-width="2" points="78.75,-154.613 78.75,-166.613 "/>
<path fill="none" stroke="white" stroke-width="2" d="M78.75,-166.613C78.75,-172.613 72.75,-178.613 66.75,-178.613"/>
<text text-anchor="middle" x="39.5" y="-158.113" font-family="Helvetica,sans-Serif" font-size="10.00">EPAS1_BCL3</text>
</a>
</g>
<!-- ID4_TCF4_SNAI2&#45;&gt;EPAS1_BCL3 -->
<g id="edge10" class="edge"><title>ID4_TCF4_SNAI2&#45;&gt;EPAS1_BCL3</title>
<a xlink:title="BCL3: 0.064||remove14root">
<path fill="none" stroke="#ecc6ff" stroke-width="3" d="M92.6287,-337.298C93.2662,-314.937 92.7105,-275.978 83.58,-244.133 77.6236,-223.359 66.1148,-201.835 56.3505,-185.841"/>
<polygon fill="#ecc6ff" stroke="#ecc6ff" points="58.6286,-184.203 52.0131,-178.905 53.8804,-187.172 58.6286,-184.203"/>
</a>
</g>
<!-- RCOR1_MTA3 -->
<g id="node11" class="node"><title>RCOR1_MTA3</title>
<a xlink:href="RCOR1_MTA3.svg" xlink:title="Z&#45;value: 1.731||remove18">
<polygon fill="#4557ff" stroke="#4557ff" stroke-width="2" points="120.95,-88.2 62.45,-88.2 50.45,-76.2 50.45,-64.2 62.45,-52.2 120.95,-52.2 132.95,-64.2 132.95,-76.2 120.95,-88.2"/>
<path fill="#4557ff" stroke="#4557ff" stroke-width="2" d="M62.45,-88.2C56.45,-88.2 50.45,-82.2 50.45,-76.2"/>
<path fill="#4557ff" stroke="#4557ff" stroke-width="2" d="M50.45,-64.2C50.45,-58.2 56.45,-52.2 62.45,-52.2"/>
<path fill="#4557ff" stroke="#4557ff" stroke-width="2" d="M120.95,-52.2C126.95,-52.2 132.95,-58.2 132.95,-64.2"/>
<path fill="#4557ff" stroke="#4557ff" stroke-width="2" d="M132.95,-76.2C132.95,-82.2 126.95,-88.2 120.95,-88.2"/>
<polyline fill="none" stroke="white" stroke-width="2" points="120.95,-88.2 62.45,-88.2 "/>
<path fill="none" stroke="white" stroke-width="2" d="M62.45,-88.2C56.45,-88.2 50.45,-82.2 50.45,-76.2"/>
<polyline fill="none" stroke="white" stroke-width="2" points="50.45,-76.2 50.45,-64.2 "/>
<path fill="none" stroke="white" stroke-width="2" d="M50.45,-64.2C50.45,-58.2 56.45,-52.2 62.45,-52.2"/>
<polyline fill="none" stroke="white" stroke-width="2" points="62.45,-52.2 120.95,-52.2 "/>
<path fill="none" stroke="white" stroke-width="2" d="M120.95,-52.2C126.95,-52.2 132.95,-58.2 132.95,-64.2"/>
<polyline fill="none" stroke="white" stroke-width="2" points="132.95,-64.2 132.95,-76.2 "/>
<path fill="none" stroke="white" stroke-width="2" d="M132.95,-76.2C132.95,-82.2 126.95,-88.2 120.95,-88.2"/>
<text text-anchor="middle" x="91.7" y="-67.7" font-family="Helvetica,sans-Serif" font-size="10.00" fill="white">RCOR1_MTA3</text>
</a>
</g>
<!-- ID4_TCF4_SNAI2&#45;&gt;RCOR1_MTA3 -->
<g id="edge12" class="edge"><title>ID4_TCF4_SNAI2&#45;&gt;RCOR1_MTA3</title>
<a xlink:title="MTA3: 0.119||ID4: 0.327||TCF4: 0.204||remove17">
<path fill="none" stroke="#ebc1ff" stroke-width="3" d="M90.7,-328.95C90.7,-274.515 90.7,-150.605 90.7,-96.4031"/>
<path fill="none" stroke="#e5afff" stroke-width="3" d="M92.7,-328.95C92.7,-274.515 92.7,-150.605 92.7,-96.4031"/>
<polygon fill="#e5afff" stroke="#e5afff" points="88.9001,-329.15 91.7,-337.15 94.5001,-329.15 88.9001,-329.15"/>
<polygon fill="#ebc1ff" stroke="#ebc1ff" points="94.5001,-96.3238 91.7,-88.3239 88.9001,-96.3239 94.5001,-96.3238"/>
</a>
</g>
<!-- ETV1_ERF_FEV_ELF1 -->
<g id="node24" class="node"><title>ETV1_ERF_FEV_ELF1</title>
<a xlink:href="ETV1_ERF_FEV_ELF1.svg" xlink:title="Z&#45;value: 0.994||remove12">
<polygon fill="#7e8bff" stroke="#7e8bff" stroke-width="2" points="334.013,-425.626 239.013,-425.626 227.013,-413.626 227.013,-401.626 239.013,-389.626 334.013,-389.626 346.013,-401.626 346.013,-413.626 334.013,-425.626"/>
<path fill="#7e8bff" stroke="#7e8bff" stroke-width="2" d="M239.013,-425.626C233.013,-425.626 227.013,-419.626 227.013,-413.626"/>
<path fill="#7e8bff" stroke="#7e8bff" stroke-width="2" d="M227.013,-401.626C227.013,-395.626 233.013,-389.626 239.013,-389.626"/>
<path fill="#7e8bff" stroke="#7e8bff" stroke-width="2" d="M334.013,-389.626C340.013,-389.626 346.013,-395.626 346.013,-401.626"/>
<path fill="#7e8bff" stroke="#7e8bff" stroke-width="2" d="M346.013,-413.626C346.013,-419.626 340.013,-425.626 334.013,-425.626"/>
<polyline fill="none" stroke="white" stroke-width="2" points="334.013,-425.626 239.013,-425.626 "/>
<path fill="none" stroke="white" stroke-width="2" d="M239.013,-425.626C233.013,-425.626 227.013,-419.626 227.013,-413.626"/>
<polyline fill="none" stroke="white" stroke-width="2" points="227.013,-413.626 227.013,-401.626 "/>
<path fill="none" stroke="white" stroke-width="2" d="M227.013,-401.626C227.013,-395.626 233.013,-389.626 239.013,-389.626"/>
<polyline fill="none" stroke="white" stroke-width="2" points="239.013,-389.626 334.013,-389.626 "/>
<path fill="none" stroke="white" stroke-width="2" d="M334.013,-389.626C340.013,-389.626 346.013,-395.626 346.013,-401.626"/>
<polyline fill="none" stroke="white" stroke-width="2" points="346.013,-401.626 346.013,-413.626 "/>
<path fill="none" stroke="white" stroke-width="2" d="M346.013,-413.626C346.013,-419.626 340.013,-425.626 334.013,-425.626"/>
<text text-anchor="middle" x="286.513" y="-405.126" font-family="Helvetica,sans-Serif" font-size="10.00">ETV1_ERF_FEV_ELF1</text>
</a>
</g>
<!-- ATF6&#45;&gt;ETV1_ERF_FEV_ELF1 -->
<g id="edge54" class="edge"><title>ATF6&#45;&gt;ETV1_ERF_FEV_ELF1</title>
<a xlink:title="ERF: 0.042||remove9root">
<path fill="none" stroke="#edc8ff" stroke-width="3" d="M405.013,-283.032C387.722,-296.432 364.282,-315.601 345.606,-334.546 330.706,-349.661 315.691,-368.283 304.525,-382.947"/>
<polygon fill="#edc8ff" stroke="#edc8ff" points="302.257,-381.304 299.68,-389.379 306.73,-384.674 302.257,-381.304"/>
</a>
</g>
<!-- PATZ1_KLF4&#45;&gt;PATZ1_KLF4 -->
<g id="edge36" class="edge"><title>PATZ1_KLF4&#45;&gt;PATZ1_KLF4</title>
<a xlink:title="PATZ1: 0.441||KLF4: 0.051||remove15">
<path fill="none" stroke="#e2a6ff" stroke-width="3" d="M77.714,-271.704C87.8346,-271.321 95.5,-269.091 95.5,-265.013 95.5,-262.146 91.7104,-260.192 85.9422,-259.151"/>
<polygon fill="#e2a6ff" stroke="#e2a6ff" points="85.9544,-256.339 77.714,-258.322 85.3929,-261.91 85.9544,-256.339"/>
</a>
</g>
<!-- PATZ1_KLF4&#45;&gt;SOX8 -->
<g id="edge38" class="edge"><title>PATZ1_KLF4&#45;&gt;SOX8</title>
<a xlink:title="SOX8: 0.085||remove15root">
<path fill="none" stroke="#c4caff" stroke-width="3" d="M77.5244,-254.824C112.789,-245.375 164.844,-231.427 199.159,-222.233"/>
<polygon fill="#c4caff" stroke="#c4caff" points="200.049,-224.893 207.052,-220.118 198.6,-219.484 200.049,-224.893"/>
</a>
</g>
<!-- PATZ1_KLF4&#45;&gt;EPAS1_BCL3 -->
<g id="edge42" class="edge"><title>PATZ1_KLF4&#45;&gt;EPAS1_BCL3</title>
<a xlink:title="BCL3: 1.759||remove15">
<path fill="none" stroke="#be34ff" stroke-width="3" d="M39.5,-246.828C39.5,-230.312 39.5,-205.75 39.5,-187.063"/>
<polygon fill="#be34ff" stroke="#be34ff" points="42.3001,-186.94 39.5,-178.94 36.7001,-186.94 42.3001,-186.94"/>
</a>
</g>
<!-- MBD2 -->
<g id="node15" class="node"><title>MBD2</title>
<a xlink:href="MBD2.svg" xlink:title="Z&#45;value: 0.615||remove7">
<polygon fill="#9ca6ff" stroke="#9ca6ff" stroke-width="2" points="391.926,-373.426 361.926,-373.426 349.926,-361.426 349.926,-349.426 361.926,-337.426 391.926,-337.426 403.926,-349.426 403.926,-361.426 391.926,-373.426"/>
<path fill="#9ca6ff" stroke="#9ca6ff" stroke-width="2" d="M361.926,-373.426C355.926,-373.426 349.926,-367.426 349.926,-361.426"/>
<path fill="#9ca6ff" stroke="#9ca6ff" stroke-width="2" d="M349.926,-349.426C349.926,-343.426 355.926,-337.426 361.926,-337.426"/>
<path fill="#9ca6ff" stroke="#9ca6ff" stroke-width="2" d="M391.926,-337.426C397.926,-337.426 403.926,-343.426 403.926,-349.426"/>
<path fill="#9ca6ff" stroke="#9ca6ff" stroke-width="2" d="M403.926,-361.426C403.926,-367.426 397.926,-373.426 391.926,-373.426"/>
<polyline fill="none" stroke="white" stroke-width="2" points="391.926,-373.426 361.926,-373.426 "/>
<path fill="none" stroke="white" stroke-width="2" d="M361.926,-373.426C355.926,-373.426 349.926,-367.426 349.926,-361.426"/>
<polyline fill="none" stroke="white" stroke-width="2" points="349.926,-361.426 349.926,-349.426 "/>
<path fill="none" stroke="white" stroke-width="2" d="M349.926,-349.426C349.926,-343.426 355.926,-337.426 361.926,-337.426"/>
<polyline fill="none" stroke="white" stroke-width="2" points="361.926,-337.426 391.926,-337.426 "/>
<path fill="none" stroke="white" stroke-width="2" d="M391.926,-337.426C397.926,-337.426 403.926,-343.426 403.926,-349.426"/>
<polyline fill="none" stroke="white" stroke-width="2" points="403.926,-349.426 403.926,-361.426 "/>
<path fill="none" stroke="white" stroke-width="2" d="M403.926,-361.426C403.926,-367.426 397.926,-373.426 391.926,-373.426"/>
<text text-anchor="middle" x="376.926" y="-352.926" font-family="Helvetica,sans-Serif" font-size="10.00">MBD2</text>
</a>
</g>
<!-- PATZ1_KLF4&#45;&gt;MBD2 -->
<g id="edge34" class="edge"><title>PATZ1_KLF4&#45;&gt;MBD2</title>
<a xlink:title="MBD2: 0.457||remove7">
<path fill="none" stroke="#e2a4ff" stroke-width="3" d="M77.5512,-275.209C143.5,-292.88 278.08,-328.94 341.878,-346.035"/>
<polygon fill="#e2a4ff" stroke="#e2a4ff" points="341.213,-348.755 349.665,-348.121 342.662,-343.346 341.213,-348.755"/>
</a>
</g>
<!-- GCM2 -->
<g id="node21" class="node"><title>GCM2</title>
<a xlink:href="GCM2.svg" xlink:title="Z&#45;value: 0.496||remove10">
<polygon fill="#a5aeff" stroke="#a5aeff" stroke-width="2" points="391.926,-88.2 361.926,-88.2 349.926,-76.2 349.926,-64.2 361.926,-52.2 391.926,-52.2 403.926,-64.2 403.926,-76.2 391.926,-88.2"/>
<path fill="#a5aeff" stroke="#a5aeff" stroke-width="2" d="M361.926,-88.2C355.926,-88.2 349.926,-82.2 349.926,-76.2"/>
<path fill="#a5aeff" stroke="#a5aeff" stroke-width="2" d="M349.926,-64.2C349.926,-58.2 355.926,-52.2 361.926,-52.2"/>
<path fill="#a5aeff" stroke="#a5aeff" stroke-width="2" d="M391.926,-52.2C397.926,-52.2 403.926,-58.2 403.926,-64.2"/>
<path fill="#a5aeff" stroke="#a5aeff" stroke-width="2" d="M403.926,-76.2C403.926,-82.2 397.926,-88.2 391.926,-88.2"/>
<polyline fill="none" stroke="white" stroke-width="2" points="391.926,-88.2 361.926,-88.2 "/>
<path fill="none" stroke="white" stroke-width="2" d="M361.926,-88.2C355.926,-88.2 349.926,-82.2 349.926,-76.2"/>
<polyline fill="none" stroke="white" stroke-width="2" points="349.926,-76.2 349.926,-64.2 "/>
<path fill="none" stroke="white" stroke-width="2" d="M349.926,-64.2C349.926,-58.2 355.926,-52.2 361.926,-52.2"/>
<polyline fill="none" stroke="white" stroke-width="2" points="361.926,-52.2 391.926,-52.2 "/>
<path fill="none" stroke="white" stroke-width="2" d="M391.926,-52.2C397.926,-52.2 403.926,-58.2 403.926,-64.2"/>
<polyline fill="none" stroke="white" stroke-width="2" points="403.926,-64.2 403.926,-76.2 "/>
<path fill="none" stroke="white" stroke-width="2" d="M403.926,-76.2C403.926,-82.2 397.926,-88.2 391.926,-88.2"/>
<text text-anchor="middle" x="376.926" y="-67.7" font-family="Helvetica,sans-Serif" font-size="10.00">GCM2</text>
</a>
</g>
<!-- PATZ1_KLF4&#45;&gt;GCM2 -->
<g id="edge40" class="edge"><title>PATZ1_KLF4&#45;&gt;GCM2</title>
<a xlink:title="GCM2: 0.052||PATZ1: 0.025||remove10">
<path fill="none" stroke="#edc7ff" stroke-width="3" d="M77.6867,-241.811C144.164,-203.43 279.013,-125.576 342.247,-89.0671"/>
<path fill="none" stroke="#edc9ff" stroke-width="3" d="M78.6867,-243.543C145.164,-205.163 280.013,-127.308 343.247,-90.7991"/>
<polygon fill="#edc9ff" stroke="#edc9ff" points="76.4694,-240.436 70.9412,-246.86 79.2695,-245.285 76.4694,-240.436"/>
<polygon fill="#edc7ff" stroke="#edc7ff" points="344.203,-92.3258 349.731,-85.9009 341.403,-87.4761 344.203,-92.3258"/>
</a>
</g>
<!-- PATZ1_KLF4&#45;&gt;ETV1_ERF_FEV_ELF1 -->
<g id="edge46" class="edge"><title>PATZ1_KLF4&#45;&gt;ETV1_ERF_FEV_ELF1</title>
<a xlink:title="ERF: 0.658||ELF1: 0.371||ETV1: 0.050||remove12">
<path fill="none" stroke="#dc93ff" stroke-width="3" d="M70.7844,-283.075C115.947,-309.15 199.335,-357.294 248.151,-385.478"/>
<polygon fill="#dc93ff" stroke="#dc93ff" points="246.765,-387.911 255.094,-389.486 249.565,-383.061 246.765,-387.911"/>
</a>
</g>
<!-- SCRT1_SCRT2 -->
<g id="node27" class="node"><title>SCRT1_SCRT2</title>
<a xlink:href="SCRT1_SCRT2.svg" xlink:title="Z&#45;value: 0.368||remove6">
<polygon fill="#afb7ff" stroke="#afb7ff" stroke-width="2" points="460.626,-178.613 397.626,-178.613 385.626,-166.613 385.626,-154.613 397.626,-142.613 460.626,-142.613 472.626,-154.613 472.626,-166.613 460.626,-178.613"/>
<path fill="#afb7ff" stroke="#afb7ff" stroke-width="2" d="M397.626,-178.613C391.626,-178.613 385.626,-172.613 385.626,-166.613"/>
<path fill="#afb7ff" stroke="#afb7ff" stroke-width="2" d="M385.626,-154.613C385.626,-148.613 391.626,-142.613 397.626,-142.613"/>
<path fill="#afb7ff" stroke="#afb7ff" stroke-width="2" d="M460.626,-142.613C466.626,-142.613 472.626,-148.613 472.626,-154.613"/>
<path fill="#afb7ff" stroke="#afb7ff" stroke-width="2" d="M472.626,-166.613C472.626,-172.613 466.626,-178.613 460.626,-178.613"/>
<polyline fill="none" stroke="white" stroke-width="2" points="460.626,-178.613 397.626,-178.613 "/>
<path fill="none" stroke="white" stroke-width="2" d="M397.626,-178.613C391.626,-178.613 385.626,-172.613 385.626,-166.613"/>
<polyline fill="none" stroke="white" stroke-width="2" points="385.626,-166.613 385.626,-154.613 "/>
<path fill="none" stroke="white" stroke-width="2" d="M385.626,-154.613C385.626,-148.613 391.626,-142.613 397.626,-142.613"/>
<polyline fill="none" stroke="white" stroke-width="2" points="397.626,-142.613 460.626,-142.613 "/>
<path fill="none" stroke="white" stroke-width="2" d="M460.626,-142.613C466.626,-142.613 472.626,-148.613 472.626,-154.613"/>
<polyline fill="none" stroke="white" stroke-width="2" points="472.626,-154.613 472.626,-166.613 "/>
<path fill="none" stroke="white" stroke-width="2" d="M472.626,-166.613C472.626,-172.613 466.626,-178.613 460.626,-178.613"/>
<text text-anchor="middle" x="429.126" y="-158.113" font-family="Helvetica,sans-Serif" font-size="10.00">SCRT1_SCRT2</text>
</a>
</g>
<!-- PATZ1_KLF4&#45;&gt;SCRT1_SCRT2 -->
<g id="edge32" class="edge"><title>PATZ1_KLF4&#45;&gt;SCRT1_SCRT2</title>
<a xlink:title="SCRT1: 0.199||SCRT2: 0.077||remove6">
<path fill="none" stroke="#e9baff" stroke-width="3" d="M72.5794,-246.871C104.883,-229.972 155.918,-205.418 202.993,-191.933 261.221,-175.253 330.516,-167.326 376.914,-163.646"/>
<polygon fill="#e9baff" stroke="#e9baff" points="377.252,-166.429 385.016,-163.028 376.827,-160.845 377.252,-166.429"/>
</a>
</g>
<!-- ZBTB4 -->
<g id="node34" class="node"><title>ZBTB4</title>
<a xlink:href="ZBTB4.svg" xlink:title="Z&#45;value: 0.225||remove8">
<polygon fill="#bac1ff" stroke="#bac1ff" stroke-width="2" points="197.113,-425.626 167.113,-425.626 155.113,-413.626 155.113,-401.626 167.113,-389.626 197.113,-389.626 209.113,-401.626 209.113,-413.626 197.113,-425.626"/>
<path fill="#bac1ff" stroke="#bac1ff" stroke-width="2" d="M167.113,-425.626C161.113,-425.626 155.113,-419.626 155.113,-413.626"/>
<path fill="#bac1ff" stroke="#bac1ff" stroke-width="2" d="M155.113,-401.626C155.113,-395.626 161.113,-389.626 167.113,-389.626"/>
<path fill="#bac1ff" stroke="#bac1ff" stroke-width="2" d="M197.113,-389.626C203.113,-389.626 209.113,-395.626 209.113,-401.626"/>
<path fill="#bac1ff" stroke="#bac1ff" stroke-width="2" d="M209.113,-413.626C209.113,-419.626 203.113,-425.626 197.113,-425.626"/>
<polyline fill="none" stroke="white" stroke-width="2" points="197.113,-425.626 167.113,-425.626 "/>
<path fill="none" stroke="white" stroke-width="2" d="M167.113,-425.626C161.113,-425.626 155.113,-419.626 155.113,-413.626"/>
<polyline fill="none" stroke="white" stroke-width="2" points="155.113,-413.626 155.113,-401.626 "/>
<path fill="none" stroke="white" stroke-width="2" d="M155.113,-401.626C155.113,-395.626 161.113,-389.626 167.113,-389.626"/>
<polyline fill="none" stroke="white" stroke-width="2" points="167.113,-389.626 197.113,-389.626 "/>
<path fill="none" stroke="white" stroke-width="2" d="M197.113,-389.626C203.113,-389.626 209.113,-395.626 209.113,-401.626"/>
<polyline fill="none" stroke="white" stroke-width="2" points="209.113,-401.626 209.113,-413.626 "/>
<path fill="none" stroke="white" stroke-width="2" d="M209.113,-413.626C209.113,-419.626 203.113,-425.626 197.113,-425.626"/>
<text text-anchor="middle" x="182.113" y="-405.126" font-family="Helvetica,sans-Serif" font-size="10.00">ZBTB4</text>
</a>
</g>
<!-- PATZ1_KLF4&#45;&gt;ZBTB4 -->
<g id="edge44" class="edge"><title>PATZ1_KLF4&#45;&gt;ZBTB4</title>
<a xlink:title="ZBTB4: 0.263||remove8">
<path fill="none" stroke="#e7b5ff" stroke-width="3" d="M77.5026,-282.513C100.287,-294.536 128.515,-312.329 147.96,-334.546 159.867,-348.151 168.45,-366.618 174.033,-381.584"/>
<polygon fill="#e7b5ff" stroke="#e7b5ff" points="171.521,-382.878 176.829,-389.486 176.8,-381.01 171.521,-382.878"/>
</a>
</g>
<!-- SOX8&#45;&gt;ATF6 -->
<g id="edge56" class="edge"><title>SOX8&#45;&gt;ATF6</title>
<a xlink:title="ATF6: 0.124||remove19root">
<path fill="none" stroke="#ffc1c1" stroke-width="3" d="M261.401,-220.071C296.051,-229.356 356.122,-245.452 394.184,-255.65"/>
<polygon fill="#ffc1c1" stroke="#ffc1c1" points="393.503,-258.367 401.955,-257.733 394.952,-252.957 393.503,-258.367"/>
</a>
</g>
<!-- SOX8&#45;&gt;MBD2 -->
<g id="edge58" class="edge"><title>SOX8&#45;&gt;MBD2</title>
<a xlink:title="MBD2: 0.035||remove7root">
<path fill="none" stroke="#ffc8c8" stroke-width="3" d="M252.375,-230.875C277.846,-256.346 324.374,-302.874 352.786,-331.286"/>
<polygon fill="#ffc8c8" stroke="#ffc8c8" points="350.923,-333.383 358.56,-337.06 354.883,-329.423 350.923,-333.383"/>
</a>
</g>
<!-- SOX8&#45;&gt;ETV1_ERF_FEV_ELF1 -->
<g id="edge62" class="edge"><title>SOX8&#45;&gt;ETV1_ERF_FEV_ELF1</title>
<a xlink:title="ETV1: 0.044||remove12root">
<path fill="none" stroke="#ffc8c8" stroke-width="3" d="M239.224,-231.141C248.536,-265.893 268.786,-341.468 279.516,-381.511"/>
<polygon fill="#ffc8c8" stroke="#ffc8c8" points="276.878,-382.487 281.653,-389.489 282.287,-381.037 276.878,-382.487"/>
</a>
</g>
<!-- SOX8&#45;&gt;ZBTB4 -->
<g id="edge60" class="edge"><title>SOX8&#45;&gt;ZBTB4</title>
<a xlink:title="ZBTB4: 0.036||remove8root">
<path fill="none" stroke="#ffc8c8" stroke-width="3" d="M229.402,-231.141C220.09,-265.893 199.84,-341.468 189.111,-381.511"/>
<polygon fill="#ffc8c8" stroke="#ffc8c8" points="186.339,-381.037 186.973,-389.489 191.748,-382.487 186.339,-381.037"/>
</a>
</g>
<!-- EPAS1_BCL3&#45;&gt;SOX8 -->
<g id="edge48" class="edge"><title>EPAS1_BCL3&#45;&gt;SOX8</title>
<a xlink:title="SOX8: 0.087||remove16root">
<path fill="none" stroke="#c4caff" stroke-width="3" d="M78.9233,-171.177C114.228,-180.636 165.511,-194.378 199.373,-203.451"/>
<polygon fill="#c4caff" stroke="#c4caff" points="198.712,-206.173 207.164,-205.539 200.162,-200.763 198.712,-206.173"/>
</a>
</g>
<!-- EPAS1_BCL3&#45;&gt;GCM2 -->
<g id="edge50" class="edge"><title>EPAS1_BCL3&#45;&gt;GCM2</title>
<a xlink:title="GCM2: 0.144||remove10">
<path fill="none" stroke="#eabfff" stroke-width="3" d="M78.8674,-150.065C145.252,-132.277 278.406,-96.5983 341.81,-79.6094"/>
<polygon fill="#eabfff" stroke="#eabfff" points="342.913,-82.2126 349.916,-77.4374 341.464,-76.8035 342.913,-82.2126"/>
</a>
</g>
<!-- EPAS1_BCL3&#45;&gt;ETV1_ERF_FEV_ELF1 -->
<g id="edge52" class="edge"><title>EPAS1_BCL3&#45;&gt;ETV1_ERF_FEV_ELF1</title>
<a xlink:title="ERF: 0.019||remove2root">
<path fill="none" stroke="#eecaff" stroke-width="3" d="M57.6635,-178.777C101.559,-222.672 213.408,-334.521 262.639,-383.752"/>
<polygon fill="#eecaff" stroke="#eecaff" points="260.686,-385.759 268.323,-389.436 264.646,-381.799 260.686,-385.759"/>
</a>
</g>
<!-- RCOR1_MTA3&#45;&gt;PATZ1_KLF4 -->
<g id="edge20" class="edge"><title>RCOR1_MTA3&#45;&gt;PATZ1_KLF4</title>
<a xlink:title="KLF4: 0.403||PATZ1: 0.041||MTA3: 1.111||remove15">
<path fill="none" stroke="#e3a9ff" stroke-width="3" d="M94.42,-96.5154C95.1596,-119.472 94.416,-153.309 86.2812,-181.769 80.1794,-202.933 68.211,-224.451 57.983,-240.45"/>
<path fill="none" stroke="#d06cff" stroke-width="3" d="M92.421,-96.5799C93.1601,-119.428 92.4165,-153.265 84.3588,-181.217 78.4316,-201.961 66.4632,-223.479 56.2981,-239.373"/>
<polygon fill="#d06cff" stroke="#d06cff" points="96.2092,-96.2159 93.0768,-88.3401 90.6141,-96.4503 96.2092,-96.2159"/>
<polygon fill="#e3a9ff" stroke="#e3a9ff" points="54.6532,-238.599 52.6081,-246.824 59.3363,-241.669 54.6532,-238.599"/>
</a>
</g>
<!-- RCOR1_MTA3&#45;&gt;SOX8 -->
<g id="edge22" class="edge"><title>RCOR1_MTA3&#45;&gt;SOX8</title>
<a xlink:title="SOX8: 0.108||remove18root">
<path fill="none" stroke="#c2c8ff" stroke-width="3" d="M109.762,-88.262C135.233,-113.733 181.761,-160.261 210.173,-188.673"/>
<polygon fill="#c2c8ff" stroke="#c2c8ff" points="208.31,-190.77 215.947,-194.447 212.27,-186.81 208.31,-190.77"/>
</a>
</g>
<!-- RCOR1_MTA3&#45;&gt;EPAS1_BCL3 -->
<g id="edge26" class="edge"><title>RCOR1_MTA3&#45;&gt;EPAS1_BCL3</title>
<a xlink:title="EPAS1: 0.167||remove16">
<path fill="none" stroke="#eabdff" stroke-width="3" d="M81.1366,-88.4964C73.3537,-101.977 62.6728,-120.477 54.0777,-135.364"/>
<polygon fill="#eabdff" stroke="#eabdff" points="51.6229,-134.016 50.0477,-142.344 56.4727,-136.816 51.6229,-134.016"/>
</a>
</g>
<!-- RCOR1_MTA3&#45;&gt;RCOR1_MTA3 -->
<g id="edge30" class="edge"><title>RCOR1_MTA3&#45;&gt;RCOR1_MTA3</title>
<a xlink:title="RCOR1: 1.276||remove18">
<path fill="none" stroke="#cb5eff" stroke-width="3" d="M133.055,-76.8445C143.171,-76.3523 150.7,-74.1375 150.7,-70.2 150.7,-67.4314 146.978,-65.5145 141.251,-64.4493"/>
<polygon fill="#cb5eff" stroke="#cb5eff" points="141.311,-61.6393 133.055,-63.5555 140.704,-67.2063 141.311,-61.6393"/>
</a>
</g>
<!-- SIN3A_CHD1 -->
<g id="node13" class="node"><title>SIN3A_CHD1</title>
<a xlink:href="SIN3A_CHD1.svg" xlink:title="Z&#45;value: 1.751||remove20">
<polygon fill="#4356ff" stroke="#4356ff" stroke-width="2" points="209.363,-36 154.863,-36 142.863,-24 142.863,-12 154.863,-3.19744e-14 209.363,-3.19744e-14 221.363,-12 221.363,-24 209.363,-36"/>
<path fill="#4356ff" stroke="#4356ff" stroke-width="2" d="M154.863,-36C148.863,-36 142.863,-30 142.863,-24"/>
<path fill="#4356ff" stroke="#4356ff" stroke-width="2" d="M142.863,-12C142.863,-6 148.863,-3.19744e-14 154.863,-3.19744e-14"/>
<path fill="#4356ff" stroke="#4356ff" stroke-width="2" d="M209.363,-3.19744e-14C215.363,-3.19744e-14 221.363,-6 221.363,-12"/>
<path fill="#4356ff" stroke="#4356ff" stroke-width="2" d="M221.363,-24C221.363,-30 215.363,-36 209.363,-36"/>
<polyline fill="none" stroke="white" stroke-width="2" points="209.363,-36 154.863,-36 "/>
<path fill="none" stroke="white" stroke-width="2" d="M154.863,-36C148.863,-36 142.863,-30 142.863,-24"/>
<polyline fill="none" stroke="white" stroke-width="2" points="142.863,-24 142.863,-12 "/>
<path fill="none" stroke="white" stroke-width="2" d="M142.863,-12C142.863,-6 148.863,-3.19744e-14 154.863,-3.19744e-14"/>
<polyline fill="none" stroke="white" stroke-width="2" points="154.863,-3.19744e-14 209.363,-3.19744e-14 "/>
<path fill="none" stroke="white" stroke-width="2" d="M209.363,-3.19744e-14C215.363,-3.19744e-14 221.363,-6 221.363,-12"/>
<polyline fill="none" stroke="white" stroke-width="2" points="221.363,-12 221.363,-24 "/>
<path fill="none" stroke="white" stroke-width="2" d="M221.363,-24C221.363,-30 215.363,-36 209.363,-36"/>
<text text-anchor="middle" x="182.113" y="-15.5" font-family="Helvetica,sans-Serif" font-size="10.00" fill="white">SIN3A_CHD1</text>
</a>
</g>
<!-- RCOR1_MTA3&#45;&gt;SIN3A_CHD1 -->
<g id="edge14" class="edge"><title>RCOR1_MTA3&#45;&gt;SIN3A_CHD1</title>
<a xlink:title="SIN3A: 0.229||RCOR1: 1.779||remove18">
<path fill="none" stroke="#e8b8ff" stroke-width="3" d="M129.862,-47.0126C134.233,-44.4891 138.687,-41.9174 143.056,-39.3947"/>
<path fill="none" stroke="#bd32ff" stroke-width="3" d="M130.862,-48.7446C135.233,-46.2211 139.687,-43.6495 144.056,-41.1268"/>
<polygon fill="#bd32ff" stroke="#bd32ff" points="128.597,-45.6645 123.068,-52.0895 131.397,-50.5143 128.597,-45.6645"/>
<polygon fill="#e8b8ff" stroke="#e8b8ff" points="145.272,-42.5034 150.8,-36.0785 142.472,-37.6537 145.272,-42.5034"/>
</a>
</g>
<!-- RCOR1_MTA3&#45;&gt;MBD2 -->
<g id="edge16" class="edge"><title>RCOR1_MTA3&#45;&gt;MBD2</title>
<a xlink:title="MBD2: 0.024||remove3root">
<path fill="none" stroke="#eec9ff" stroke-width="3" d="M101.211,-88.4438C118.468,-120.405 157.403,-187.508 202.993,-233.693 245.595,-276.851 305.282,-314.817 342.495,-336.438"/>
<polygon fill="#eec9ff" stroke="#eec9ff" points="341.296,-338.979 349.626,-340.541 344.089,-334.125 341.296,-338.979"/>
</a>
</g>
<!-- NR5A2 -->
<g id="node17" class="node"><title>NR5A2</title>
<a xlink:href="NR5A2.svg" xlink:title="Z&#45;value: 0.899||remove11">
<polygon fill="#8692ff" stroke="#8692ff" stroke-width="2" points="301.513,-36 271.513,-36 259.513,-24 259.513,-12 271.513,3.19744e-14 301.513,3.19744e-14 313.513,-12 313.513,-24 301.513,-36"/>
<path fill="#8692ff" stroke="#8692ff" stroke-width="2" d="M271.513,-36C265.513,-36 259.513,-30 259.513,-24"/>
<path fill="#8692ff" stroke="#8692ff" stroke-width="2" d="M259.513,-12C259.513,-6 265.513,3.19744e-14 271.513,3.19744e-14"/>
<path fill="#8692ff" stroke="#8692ff" stroke-width="2" d="M301.513,3.19744e-14C307.513,3.19744e-14 313.513,-6 313.513,-12"/>
<path fill="#8692ff" stroke="#8692ff" stroke-width="2" d="M313.513,-24C313.513,-30 307.513,-36 301.513,-36"/>
<polyline fill="none" stroke="white" stroke-width="2" points="301.513,-36 271.513,-36 "/>
<path fill="none" stroke="white" stroke-width="2" d="M271.513,-36C265.513,-36 259.513,-30 259.513,-24"/>
<polyline fill="none" stroke="white" stroke-width="2" points="259.513,-24 259.513,-12 "/>
<path fill="none" stroke="white" stroke-width="2" d="M259.513,-12C259.513,-6 265.513,3.19744e-14 271.513,3.19744e-14"/>
<polyline fill="none" stroke="white" stroke-width="2" points="271.513,3.19744e-14 301.513,3.19744e-14 "/>
<path fill="none" stroke="white" stroke-width="2" d="M301.513,3.19744e-14C307.513,3.19744e-14 313.513,-6 313.513,-12"/>
<polyline fill="none" stroke="white" stroke-width="2" points="313.513,-12 313.513,-24 "/>
<path fill="none" stroke="white" stroke-width="2" d="M313.513,-24C313.513,-30 307.513,-36 301.513,-36"/>
<text text-anchor="middle" x="286.513" y="-15.5" font-family="Helvetica,sans-Serif" font-size="10.00">NR5A2</text>
</a>
</g>
<!-- RCOR1_MTA3&#45;&gt;NR5A2 -->
<g id="edge18" class="edge"><title>RCOR1_MTA3&#45;&gt;NR5A2</title>
<a xlink:title="NR5A2: 0.331||remove11">
<path fill="none" stroke="#e5afff" stroke-width="3" d="M133.157,-61.9798C160.319,-56.2733 196.485,-48.0658 227.933,-38.88 235.706,-36.6096 243.952,-33.8774 251.728,-31.1488"/>
<polygon fill="#e5afff" stroke="#e5afff" points="252.72,-33.7677 259.311,-28.4387 250.835,-28.4943 252.72,-33.7677"/>
</a>
</g>
<!-- RCOR1_MTA3&#45;&gt;GCM2 -->
<g id="edge24" class="edge"><title>RCOR1_MTA3&#45;&gt;GCM2</title>
<a xlink:title="GCM2: 0.257||remove10">
<path fill="none" stroke="#e7b5ff" stroke-width="3" d="M133.174,-70.2C189.345,-70.2 288.643,-70.2 341.501,-70.2"/>
<polygon fill="#e7b5ff" stroke="#e7b5ff" points="341.572,-73.0001 349.572,-70.2 341.572,-67.4001 341.572,-73.0001"/>
</a>
</g>
<!-- RCOR1_MTA3&#45;&gt;ETV1_ERF_FEV_ELF1 -->
<g id="edge28" class="edge"><title>RCOR1_MTA3&#45;&gt;ETV1_ERF_FEV_ELF1</title>
<a xlink:title="ERF: 0.033||remove4root">
<path fill="none" stroke="#edc9ff" stroke-width="3" d="M102.174,-88.3415C134.745,-144.756 234.314,-317.214 271.922,-382.354"/>
<polygon fill="#edc9ff" stroke="#edc9ff" points="269.562,-383.867 275.987,-389.395 274.412,-381.067 269.562,-383.867"/>
</a>
</g>
<!-- SIN3A_CHD1&#45;&gt;ID4_TCF4_SNAI2 -->
<g id="edge74" class="edge"><title>SIN3A_CHD1&#45;&gt;ID4_TCF4_SNAI2</title>
<a xlink:title="ID4: 0.165||TCF4: 0.130||remove17">
<path fill="none" stroke="#eabdff" stroke-width="3" d="M177.252,-36.1415C162.197,-92.3267 116.3,-263.617 98.6854,-329.356"/>
<polygon fill="#eabdff" stroke="#eabdff" points="95.9511,-328.743 96.585,-337.195 101.36,-330.192 95.9511,-328.743"/>
</a>
</g>
<!-- SIN3A_CHD1&#45;&gt;PATZ1_KLF4 -->
<g id="edge68" class="edge"><title>SIN3A_CHD1&#45;&gt;PATZ1_KLF4</title>
<a xlink:title="KLF4: 0.185||PATZ1: 0.181||remove15">
<path fill="none" stroke="#e9bcff" stroke-width="3" d="M171.626,-36.1635C146.541,-79.6132 83.0155,-189.642 54.1617,-239.618"/>
<polygon fill="#e9bcff" stroke="#e9bcff" points="51.5772,-238.495 50.002,-246.823 56.427,-241.295 51.5772,-238.495"/>
</a>
</g>
<!-- SIN3A_CHD1&#45;&gt;SOX8 -->
<g id="edge70" class="edge"><title>SIN3A_CHD1&#45;&gt;SOX8</title>
<a xlink:title="SOX8: 0.150||remove20root">
<path fill="none" stroke="#bfc5ff" stroke-width="3" d="M187.024,-36.3275C196.336,-71.0801 216.586,-146.654 227.316,-186.698"/>
<polygon fill="#bfc5ff" stroke="#bfc5ff" points="224.678,-187.673 229.453,-194.676 230.087,-186.224 224.678,-187.673"/>
</a>
</g>
<!-- SIN3A_CHD1&#45;&gt;SIN3A_CHD1 -->
<g id="edge66" class="edge"><title>SIN3A_CHD1&#45;&gt;SIN3A_CHD1</title>
<a xlink:title="CHD1: 0.054||remove13root">
<path fill="none" stroke="#edc7ff" stroke-width="3" d="M221.54,-24.6693C231.578,-24.2309 239.113,-22.0078 239.113,-18 239.113,-15.182 235.388,-13.2464 229.686,-12.193"/>
<polygon fill="#edc7ff" stroke="#edc7ff" points="229.79,-9.38849 221.54,-11.3307 229.201,-14.9574 229.79,-9.38849"/>
</a>
</g>
<!-- SIN3A_CHD1&#45;&gt;GCM2 -->
<g id="edge72" class="edge"><title>SIN3A_CHD1&#45;&gt;GCM2</title>
<a xlink:title="GCM2: 0.080||remove10">
<path fill="none" stroke="#ecc5ff" stroke-width="3" d="M221.504,-29.4612C232.401,-32.5754 244.241,-35.9072 255.193,-38.88 284.332,-46.7897 317.532,-55.2983 341.893,-61.4479"/>
<polygon fill="#ecc5ff" stroke="#ecc5ff" points="341.355,-64.1998 349.796,-63.4387 342.722,-58.7694 341.355,-64.1998"/>
</a>
</g>
<!-- SIN3A_CHD1&#45;&gt;ETV1_ERF_FEV_ELF1 -->
<g id="edge76" class="edge"><title>SIN3A_CHD1&#45;&gt;ETV1_ERF_FEV_ELF1</title>
<a xlink:title="ERF: 0.034||remove5root">
<path fill="none" stroke="#edc9ff" stroke-width="3" d="M181.751,-36.2865C181.465,-73.9643 183.176,-162.667 202.993,-233.693 218.56,-289.487 251.204,-349.266 270.752,-382.19"/>
<polygon fill="#edc9ff" stroke="#edc9ff" points="268.433,-383.766 274.95,-389.185 273.235,-380.885 268.433,-383.766"/>
</a>
</g>
<!-- SIN3A_CHD1&#45;&gt;SCRT1_SCRT2 -->
<g id="edge64" class="edge"><title>SIN3A_CHD1&#45;&gt;SCRT1_SCRT2</title>
<a xlink:title="SCRT1: 0.359||remove6">
<path fill="none" stroke="#e4adff" stroke-width="3" d="M213.397,-36.062C258.561,-62.137 341.948,-110.281 390.764,-138.465"/>
<polygon fill="#e4adff" stroke="#e4adff" points="389.378,-140.898 397.707,-142.473 392.178,-136.048 389.378,-140.898"/>
</a>
</g>
<!-- MBD2&#45;&gt;ID4_TCF4_SNAI2 -->
<g id="edge88" class="edge"><title>MBD2&#45;&gt;ID4_TCF4_SNAI2</title>
<a xlink:title="TCF4: 0.100||remove7">
<path fill="none" stroke="#ebc3ff" stroke-width="3" d="M349.836,-355.426C303.723,-355.426 209.058,-355.426 148.077,-355.426"/>
<polygon fill="#ebc3ff" stroke="#ebc3ff" points="148.074,-352.626 140.074,-355.426 148.074,-358.226 148.074,-352.626"/>
</a>
</g>
<!-- MBD2&#45;&gt;ETV1_ERF_FEV_ELF1 -->
<g id="edge90" class="edge"><title>MBD2&#45;&gt;ETV1_ERF_FEV_ELF1</title>
<a xlink:title="ERF: 0.078||FEV: 0.013||remove7">
<path fill="none" stroke="#ecc5ff" stroke-width="3" d="M349.799,-371.088C341.916,-375.639 333.154,-380.698 324.725,-385.565"/>
<polygon fill="#ecc5ff" stroke="#ecc5ff" points="323.277,-383.167 317.749,-389.592 326.077,-388.017 323.277,-383.167"/>
</a>
</g>
<!-- NR5A2&#45;&gt;SOX8 -->
<g id="edge92" class="edge"><title>NR5A2&#45;&gt;SOX8</title>
<a xlink:title="SOX8: 0.043||remove11root">
<path fill="none" stroke="#c8cdff" stroke-width="3" d="M281.602,-36.3275C272.29,-71.0801 252.04,-146.654 241.311,-186.698"/>
<polygon fill="#c8cdff" stroke="#c8cdff" points="238.539,-186.224 239.173,-194.676 243.948,-187.673 238.539,-186.224"/>
</a>
</g>
<!-- GCM2&#45;&gt;SOX8 -->
<g id="edge80" class="edge"><title>GCM2&#45;&gt;SOX8</title>
<a xlink:title="SOX8: 0.042||remove10root">
<path fill="none" stroke="#c8cdff" stroke-width="3" d="M358.864,-88.262C333.393,-113.733 286.865,-160.261 258.453,-188.673"/>
<polygon fill="#c8cdff" stroke="#c8cdff" points="256.356,-186.81 252.679,-194.447 260.316,-190.77 256.356,-186.81"/>
</a>
</g>
<!-- GCM2&#45;&gt;ETV1_ERF_FEV_ELF1 -->
<g id="edge82" class="edge"><title>GCM2&#45;&gt;ETV1_ERF_FEV_ELF1</title>
<a xlink:title="ERF: 0.006||remove0root">
<path fill="none" stroke="#eecbff" stroke-width="3" d="M372.065,-88.3415C357.01,-144.527 311.113,-315.817 293.498,-381.556"/>
<polygon fill="#eecbff" stroke="#eecbff" points="290.764,-380.943 291.398,-389.395 296.173,-382.392 290.764,-380.943"/>
</a>
</g>
<!-- ETV1_ERF_FEV_ELF1&#45;&gt;ID4_TCF4_SNAI2 -->
<g id="edge78" class="edge"><title>ETV1_ERF_FEV_ELF1&#45;&gt;ID4_TCF4_SNAI2</title>
<a xlink:title="TCF4: 0.014||remove1root">
<path fill="none" stroke="#eecaff" stroke-width="3" d="M226.726,-390.405C222.231,-389.153 217.763,-387.921 213.433,-386.746 192.051,-380.942 168.481,-374.815 147.823,-369.535"/>
<polygon fill="#eecaff" stroke="#eecaff" points="148.502,-366.819 140.058,-367.555 147.118,-372.245 148.502,-366.819"/>
</a>
</g>
<!-- SCRT1_SCRT2&#45;&gt;SOX8 -->
<g id="edge84" class="edge"><title>SCRT1_SCRT2&#45;&gt;SOX8</title>
<a xlink:title="SOX8: 0.034||remove6root">
<path fill="none" stroke="#c9ceff" stroke-width="3" d="M385.406,-172.328C350.348,-181.722 301.795,-194.731 269.283,-203.443"/>
<polygon fill="#c9ceff" stroke="#c9ceff" points="268.384,-200.785 261.381,-205.56 269.833,-206.194 268.384,-200.785"/>
</a>
</g>
<!-- SCRT1_SCRT2&#45;&gt;ETV1_ERF_FEV_ELF1 -->
<g id="edge86" class="edge"><title>SCRT1_SCRT2&#45;&gt;ETV1_ERF_FEV_ELF1</title>
<a xlink:title="ERF: 0.051||remove6">
<path fill="none" stroke="#edc7ff" stroke-width="3" d="M418.639,-178.777C393.554,-222.226 330.029,-332.255 301.175,-382.231"/>
<polygon fill="#edc7ff" stroke="#edc7ff" points="298.59,-381.108 297.015,-389.436 303.44,-383.908 298.59,-381.108"/>
</a>
</g>
</g>
</svg>
