<?xml version="1.0" ?><!DOCTYPE svg  PUBLIC '-//W3C//DTD SVG 1.1//EN'  'http://www.w3.org/Graphics/SVG/1.1/DTD/svg11.dtd'><!-- Generated by graphviz version 2.28.0 (20110630.0925)
 --><!-- Title: _anonymous_0 Pages: 1 --><svg height="618pt" onload="init(evt)" width="795pt" xmlns="http://www.w3.org/2000/svg" xmlns:ismara="ismara.unibas.ch" xmlns:xlink="http://www.w3.org/1999/xlink">
<g class="graph" id="graph1" transform="scale(1 1) rotate(0) translate(54 563.98)">

<polygon fill="white" points="-4,5 -4,-563.98 641.98,-563.98 641.98,5 -4,5" stroke="white"/>
<!-- ID4_TCF4_SNAI2 -->
<g class="node" id="node1">
<a class="remove9" onmousemove="ShowTooltip(evt, 'Z-value: 1.966')" onmouseout="HideTooltip(evt)" xlink:href="ID4_TCF4_SNAI2.svg">
<polygon fill="#3247ff" points="606.73,-368.19 534.23,-368.19 522.23,-356.19 522.23,-344.19 534.23,-332.19 606.73,-332.19 618.73,-344.19 618.73,-356.19 606.73,-368.19" stroke="#3247ff" stroke-width="2"/>
<path d="M534.23,-368.19C528.23,-368.19 522.23,-362.19 522.23,-356.19" fill="#3247ff" stroke="#3247ff" stroke-width="2"/>
<path d="M522.23,-344.19C522.23,-338.19 528.23,-332.19 534.23,-332.19" fill="#3247ff" stroke="#3247ff" stroke-width="2"/>
<path d="M606.73,-332.19C612.73,-332.19 618.73,-338.19 618.73,-344.19" fill="#3247ff" stroke="#3247ff" stroke-width="2"/>
<path d="M618.73,-356.19C618.73,-362.19 612.73,-368.19 606.73,-368.19" fill="#3247ff" stroke="#3247ff" stroke-width="2"/>
<polyline fill="none" points="606.73,-368.19 534.23,-368.19 " stroke="white" stroke-width="2"/>
<path d="M534.23,-368.19C528.23,-368.19 522.23,-362.19 522.23,-356.19" fill="none" stroke="white" stroke-width="2"/>
<polyline fill="none" points="522.23,-356.19 522.23,-344.19 " stroke="white" stroke-width="2"/>
<path d="M522.23,-344.19C522.23,-338.19 528.23,-332.19 534.23,-332.19" fill="none" stroke="white" stroke-width="2"/>
<polyline fill="none" points="534.23,-332.19 606.73,-332.19 " stroke="white" stroke-width="2"/>
<path d="M606.73,-332.19C612.73,-332.19 618.73,-338.19 618.73,-344.19" fill="none" stroke="white" stroke-width="2"/>
<polyline fill="none" points="618.73,-344.19 618.73,-356.19 " stroke="white" stroke-width="2"/>
<path d="M618.73,-356.19C618.73,-362.19 612.73,-368.19 606.73,-368.19" fill="none" stroke="white" stroke-width="2"/>
<text fill="white" font-family="Helvetica,sans-Serif" font-size="10.00" text-anchor="middle" x="570.48" y="-347.69">ID4_TCF4_SNAI2</text>
</a>
</g>
<!-- ID4_TCF4_SNAI2&#45;&gt;ID4_TCF4_SNAI2 -->
<g class="edge" id="edge10">
<a class="remove9" ismara:data="0.3" onmousemove="ShowTooltip(evt, 'SNAI2: 0.300|TCF4: 0.041')" onmouseout="HideTooltip(evt)">
<path d="M619.194,-356.722C629.522,-356.059 636.98,-353.881 636.98,-350.19 636.98,-347.594 633.293,-345.747 627.513,-344.649" fill="none" stroke="#de99ff" stroke-width="3"/>
<polygon fill="#de99ff" points="627.469,-341.824 619.194,-343.658 626.807,-347.385 627.469,-341.824" stroke="#de99ff"/>
</a>
</g>
<!-- FOXD1_FOXO1_FOXO6_FOXG1_FOXP1 -->
<g class="node" id="node2">
<a class="remove19" onmousemove="ShowTooltip(evt, 'Z-value: 0.656')" onmouseout="HideTooltip(evt)" xlink:href="FOXD1_FOXO1_FOXO6_FOXG1_FOXP1.svg">
<polygon fill="#98a3ff" points="589.28,-489.78 411.28,-489.78 399.28,-477.78 399.28,-465.78 411.28,-453.78 589.28,-453.78 601.28,-465.78 601.28,-477.78 589.28,-489.78" stroke="#98a3ff" stroke-width="2"/>
<path d="M411.28,-489.78C405.28,-489.78 399.28,-483.78 399.28,-477.78" fill="#98a3ff" stroke="#98a3ff" stroke-width="2"/>
<path d="M399.28,-465.78C399.28,-459.78 405.28,-453.78 411.28,-453.78" fill="#98a3ff" stroke="#98a3ff" stroke-width="2"/>
<path d="M589.28,-453.78C595.28,-453.78 601.28,-459.78 601.28,-465.78" fill="#98a3ff" stroke="#98a3ff" stroke-width="2"/>
<path d="M601.28,-477.78C601.28,-483.78 595.28,-489.78 589.28,-489.78" fill="#98a3ff" stroke="#98a3ff" stroke-width="2"/>
<polyline fill="none" points="589.28,-489.78 411.28,-489.78 " stroke="white" stroke-width="2"/>
<path d="M411.28,-489.78C405.28,-489.78 399.28,-483.78 399.28,-477.78" fill="none" stroke="white" stroke-width="2"/>
<polyline fill="none" points="399.28,-477.78 399.28,-465.78 " stroke="white" stroke-width="2"/>
<path d="M399.28,-465.78C399.28,-459.78 405.28,-453.78 411.28,-453.78" fill="none" stroke="white" stroke-width="2"/>
<polyline fill="none" points="411.28,-453.78 589.28,-453.78 " stroke="white" stroke-width="2"/>
<path d="M589.28,-453.78C595.28,-453.78 601.28,-459.78 601.28,-465.78" fill="none" stroke="white" stroke-width="2"/>
<polyline fill="none" points="601.28,-465.78 601.28,-477.78 " stroke="white" stroke-width="2"/>
<path d="M601.28,-477.78C601.28,-483.78 595.28,-489.78 589.28,-489.78" fill="none" stroke="white" stroke-width="2"/>
<text font-family="Helvetica,sans-Serif" font-size="10.00" text-anchor="middle" x="500.28" y="-469.28">FOXD1_FOXO1_FOXO6_FOXG1_FOXP1</text>
</a>
</g>
<!-- ID4_TCF4_SNAI2&#45;&gt;FOXD1_FOXO1_FOXO6_FOXG1_FOXP1 -->
<g class="edge" id="edge2">
<a class="remove9" ismara:data="0.431" onmousemove="ShowTooltip(evt, 'FOXO6: 0.431|FOXP1: 0.054|TCF4: 0.017')" onmouseout="HideTooltip(evt)">
<path d="M556.708,-376.043C544.693,-396.855 527.761,-426.182 515.753,-446.98" fill="none" stroke="#d783ff" stroke-width="3"/>
<path d="M554.976,-375.043C542.961,-395.855 526.029,-425.182 514.021,-445.98" fill="none" stroke="#edc9ff" stroke-width="3"/>
<polygon fill="#edc9ff" points="558.395,-376.721 559.97,-368.393 553.545,-373.921 558.395,-376.721" stroke="#edc9ff"/>
<polygon fill="#d783ff" points="512.437,-445.124 510.861,-453.452 517.286,-447.924 512.437,-445.124" stroke="#d783ff"/>
</a>
</g>
<!-- NFIA -->
<g class="node" id="node4">
<a class="remove7" onmousemove="ShowTooltip(evt, 'Z-value: 0.607')" onmouseout="HideTooltip(evt)" xlink:href="NFIA.svg">
<polygon fill="#9ca6ff" points="393.69,-559.98 363.69,-559.98 351.69,-547.98 351.69,-535.98 363.69,-523.98 393.69,-523.98 405.69,-535.98 405.69,-547.98 393.69,-559.98" stroke="#9ca6ff" stroke-width="2"/>
<path d="M363.69,-559.98C357.69,-559.98 351.69,-553.98 351.69,-547.98" fill="#9ca6ff" stroke="#9ca6ff" stroke-width="2"/>
<path d="M351.69,-535.98C351.69,-529.98 357.69,-523.98 363.69,-523.98" fill="#9ca6ff" stroke="#9ca6ff" stroke-width="2"/>
<path d="M393.69,-523.98C399.69,-523.98 405.69,-529.98 405.69,-535.98" fill="#9ca6ff" stroke="#9ca6ff" stroke-width="2"/>
<path d="M405.69,-547.98C405.69,-553.98 399.69,-559.98 393.69,-559.98" fill="#9ca6ff" stroke="#9ca6ff" stroke-width="2"/>
<polyline fill="none" points="393.69,-559.98 363.69,-559.98 " stroke="white" stroke-width="2"/>
<path d="M363.69,-559.98C357.69,-559.98 351.69,-553.98 351.69,-547.98" fill="none" stroke="white" stroke-width="2"/>
<polyline fill="none" points="351.69,-547.98 351.69,-535.98 " stroke="white" stroke-width="2"/>
<path d="M351.69,-535.98C351.69,-529.98 357.69,-523.98 363.69,-523.98" fill="none" stroke="white" stroke-width="2"/>
<polyline fill="none" points="363.69,-523.98 393.69,-523.98 " stroke="white" stroke-width="2"/>
<path d="M393.69,-523.98C399.69,-523.98 405.69,-529.98 405.69,-535.98" fill="none" stroke="white" stroke-width="2"/>
<polyline fill="none" points="405.69,-535.98 405.69,-547.98 " stroke="white" stroke-width="2"/>
<path d="M405.69,-547.98C405.69,-553.98 399.69,-559.98 393.69,-559.98" fill="none" stroke="white" stroke-width="2"/>
<text font-family="Helvetica,sans-Serif" font-size="10.00" text-anchor="middle" x="378.69" y="-539.48">NFIA</text>
</a>
</g>
<!-- ID4_TCF4_SNAI2&#45;&gt;NFIA -->
<g class="edge" id="edge4">
<a class="remove7" ismara:data="0.164" onmousemove="ShowTooltip(evt, 'NFIA: 0.159|TCF4: 0.164')" onmouseout="HideTooltip(evt)">
<path d="M514.556,-365.084C470.856,-379.116 412.73,-405.56 383.966,-451.434 372.047,-470.024 372.069,-496.167 374.439,-515.419" fill="none" stroke="#e6b1ff" stroke-width="3"/>
<path d="M513.945,-363.18C470.028,-377.296 411.902,-403.739 382.274,-450.366 370.047,-470.025 370.069,-496.169 372.454,-515.663" fill="none" stroke="#e5b0ff" stroke-width="3"/>
<polygon fill="#e5b0ff" points="515.17,-366.778 521.977,-361.729 513.507,-361.431 515.17,-366.778" stroke="#e5b0ff"/>
<polygon fill="#e6b1ff" points="370.704,-516.138 374.625,-523.652 376.246,-515.332 370.704,-516.138" stroke="#e6b1ff"/>
</a>
</g>
<!-- TGIF1 -->
<g class="node" id="node6">
<a class="remove17" onmousemove="ShowTooltip(evt, 'Z-value: 0.677')" onmouseout="HideTooltip(evt)" xlink:href="TGIF1.svg">
<polygon fill="#97a1ff" points="253.29,-559.98 223.29,-559.98 211.29,-547.98 211.29,-535.98 223.29,-523.98 253.29,-523.98 265.29,-535.98 265.29,-547.98 253.29,-559.98" stroke="#97a1ff" stroke-width="2"/>
<path d="M223.29,-559.98C217.29,-559.98 211.29,-553.98 211.29,-547.98" fill="#97a1ff" stroke="#97a1ff" stroke-width="2"/>
<path d="M211.29,-535.98C211.29,-529.98 217.29,-523.98 223.29,-523.98" fill="#97a1ff" stroke="#97a1ff" stroke-width="2"/>
<path d="M253.29,-523.98C259.29,-523.98 265.29,-529.98 265.29,-535.98" fill="#97a1ff" stroke="#97a1ff" stroke-width="2"/>
<path d="M265.29,-547.98C265.29,-553.98 259.29,-559.98 253.29,-559.98" fill="#97a1ff" stroke="#97a1ff" stroke-width="2"/>
<polyline fill="none" points="253.29,-559.98 223.29,-559.98 " stroke="white" stroke-width="2"/>
<path d="M223.29,-559.98C217.29,-559.98 211.29,-553.98 211.29,-547.98" fill="none" stroke="white" stroke-width="2"/>
<polyline fill="none" points="211.29,-547.98 211.29,-535.98 " stroke="white" stroke-width="2"/>
<path d="M211.29,-535.98C211.29,-529.98 217.29,-523.98 223.29,-523.98" fill="none" stroke="white" stroke-width="2"/>
<polyline fill="none" points="223.29,-523.98 253.29,-523.98 " stroke="white" stroke-width="2"/>
<path d="M253.29,-523.98C259.29,-523.98 265.29,-529.98 265.29,-535.98" fill="none" stroke="white" stroke-width="2"/>
<polyline fill="none" points="265.29,-535.98 265.29,-547.98 " stroke="white" stroke-width="2"/>
<path d="M265.29,-547.98C265.29,-553.98 259.29,-559.98 253.29,-559.98" fill="none" stroke="white" stroke-width="2"/>
<text font-family="Helvetica,sans-Serif" font-size="10.00" text-anchor="middle" x="238.29" y="-539.48">TGIF1</text>
</a>
</g>
<!-- ID4_TCF4_SNAI2&#45;&gt;TGIF1 -->
<g class="edge" id="edge6">
<a class="remove9" ismara:data="0.409" onmousemove="ShowTooltip(evt, 'TGIF1: 0.409|TCF4: 0.086|SNAI2: 0.043')" onmouseout="HideTooltip(evt)">
<path d="M528.28,-372.951C490.013,-392.82 432.505,-423.3 383.623,-451.764 345.041,-474.229 301.796,-501.741 272.704,-520.601" fill="none" stroke="#d887ff" stroke-width="3"/>
<path d="M527.359,-371.176C489.077,-391.053 431.568,-421.533 382.617,-450.036 343.968,-472.542 300.722,-500.053 271.616,-518.923" fill="none" stroke="#eabdff" stroke-width="3"/>
<polygon fill="#eabdff" points="529.395,-374.4 535.21,-368.234 526.819,-369.428 529.395,-374.4" stroke="#eabdff"/>
<polygon fill="#d887ff" points="270.627,-517.419 265.444,-524.126 273.678,-522.115 270.627,-517.419" stroke="#d887ff"/>
</a>
</g>
<!-- DRGX_PROP1 -->
<g class="node" id="node8">
<a class="remove13" onmousemove="ShowTooltip(evt, 'Z-value: 0.337')" onmouseout="HideTooltip(evt)" xlink:href="DRGX_PROP1.svg">
<polygon fill="#b1b9ff" points="146.95,-489.78 86.45,-489.78 74.45,-477.78 74.45,-465.78 86.45,-453.78 146.95,-453.78 158.95,-465.78 158.95,-477.78 146.95,-489.78" stroke="#b1b9ff" stroke-width="2"/>
<path d="M86.45,-489.78C80.45,-489.78 74.45,-483.78 74.45,-477.78" fill="#b1b9ff" stroke="#b1b9ff" stroke-width="2"/>
<path d="M74.45,-465.78C74.45,-459.78 80.45,-453.78 86.45,-453.78" fill="#b1b9ff" stroke="#b1b9ff" stroke-width="2"/>
<path d="M146.95,-453.78C152.95,-453.78 158.95,-459.78 158.95,-465.78" fill="#b1b9ff" stroke="#b1b9ff" stroke-width="2"/>
<path d="M158.95,-477.78C158.95,-483.78 152.95,-489.78 146.95,-489.78" fill="#b1b9ff" stroke="#b1b9ff" stroke-width="2"/>
<polyline fill="none" points="146.95,-489.78 86.45,-489.78 " stroke="white" stroke-width="2"/>
<path d="M86.45,-489.78C80.45,-489.78 74.45,-483.78 74.45,-477.78" fill="none" stroke="white" stroke-width="2"/>
<polyline fill="none" points="74.45,-477.78 74.45,-465.78 " stroke="white" stroke-width="2"/>
<path d="M74.45,-465.78C74.45,-459.78 80.45,-453.78 86.45,-453.78" fill="none" stroke="white" stroke-width="2"/>
<polyline fill="none" points="86.45,-453.78 146.95,-453.78 " stroke="white" stroke-width="2"/>
<path d="M146.95,-453.78C152.95,-453.78 158.95,-459.78 158.95,-465.78" fill="none" stroke="white" stroke-width="2"/>
<polyline fill="none" points="158.95,-465.78 158.95,-477.78 " stroke="white" stroke-width="2"/>
<path d="M158.95,-477.78C158.95,-483.78 152.95,-489.78 146.95,-489.78" fill="none" stroke="white" stroke-width="2"/>
<text font-family="Helvetica,sans-Serif" font-size="10.00" text-anchor="middle" x="116.7" y="-469.28">DRGX_PROP1</text>
</a>
</g>
<!-- ID4_TCF4_SNAI2&#45;&gt;DRGX_PROP1 -->
<g class="edge" id="edge8">
<a class="remove9" ismara:data="0.911" onmousemove="ShowTooltip(evt, 'PROP1: 0.911|TCF4: 0.038')" onmouseout="HideTooltip(evt)">
<path d="M514.356,-366.264C425.07,-390.188 252.543,-436.416 167.232,-459.275" fill="none" stroke="#bd32ff" stroke-width="3"/>
<path d="M513.838,-364.332C424.552,-388.256 252.025,-434.484 166.715,-457.343" fill="none" stroke="#ecc5ff" stroke-width="3"/>
<polygon fill="#ecc5ff" points="514.915,-367.977 521.918,-363.202 513.465,-362.568 514.915,-367.977" stroke="#ecc5ff"/>
<polygon fill="#bd32ff" points="166.247,-455.605 159.244,-460.38 167.696,-461.014 166.247,-455.605" stroke="#bd32ff"/>
</a>
</g>
<!-- CREB1 -->
<g class="node" id="node11">
<a class="remove8" onmousemove="ShowTooltip(evt, 'Z-value: 0.561')" onmouseout="HideTooltip(evt)" xlink:href="CREB1.svg">
<polygon fill="#a0a9ff" points="61.5,-368.19 31.5,-368.19 19.5,-356.19 19.5,-344.19 31.5,-332.19 61.5,-332.19 73.5,-344.19 73.5,-356.19 61.5,-368.19" stroke="#a0a9ff" stroke-width="2"/>
<path d="M31.5,-368.19C25.5,-368.19 19.5,-362.19 19.5,-356.19" fill="#a0a9ff" stroke="#a0a9ff" stroke-width="2"/>
<path d="M19.5,-344.19C19.5,-338.19 25.5,-332.19 31.5,-332.19" fill="#a0a9ff" stroke="#a0a9ff" stroke-width="2"/>
<path d="M61.5,-332.19C67.5,-332.19 73.5,-338.19 73.5,-344.19" fill="#a0a9ff" stroke="#a0a9ff" stroke-width="2"/>
<path d="M73.5,-356.19C73.5,-362.19 67.5,-368.19 61.5,-368.19" fill="#a0a9ff" stroke="#a0a9ff" stroke-width="2"/>
<polyline fill="none" points="61.5,-368.19 31.5,-368.19 " stroke="white" stroke-width="2"/>
<path d="M31.5,-368.19C25.5,-368.19 19.5,-362.19 19.5,-356.19" fill="none" stroke="white" stroke-width="2"/>
<polyline fill="none" points="19.5,-356.19 19.5,-344.19 " stroke="white" stroke-width="2"/>
<path d="M19.5,-344.19C19.5,-338.19 25.5,-332.19 31.5,-332.19" fill="none" stroke="white" stroke-width="2"/>
<polyline fill="none" points="31.5,-332.19 61.5,-332.19 " stroke="white" stroke-width="2"/>
<path d="M61.5,-332.19C67.5,-332.19 73.5,-338.19 73.5,-344.19" fill="none" stroke="white" stroke-width="2"/>
<polyline fill="none" points="73.5,-344.19 73.5,-356.19 " stroke="white" stroke-width="2"/>
<path d="M73.5,-356.19C73.5,-362.19 67.5,-368.19 61.5,-368.19" fill="none" stroke="white" stroke-width="2"/>
<text font-family="Helvetica,sans-Serif" font-size="10.00" text-anchor="middle" x="46.5" y="-347.69">CREB1</text>
</a>
</g>
<!-- ID4_TCF4_SNAI2&#45;&gt;CREB1 -->
<g class="edge" id="edge12">
<a class="remove8" ismara:data="0.101" onmousemove="ShowTooltip(evt, 'CREB1: 0.101')" onmouseout="HideTooltip(evt)">
<path d="M522.124,-350.19C417.71,-350.19 173.215,-350.19 81.8091,-350.19" fill="none" stroke="#e9bbff" stroke-width="3"/>
<polygon fill="#e9bbff" points="81.705,-347.39 73.7049,-350.19 81.7049,-352.99 81.705,-347.39" stroke="#e9bbff"/>
</a>
</g>
<!-- FOXD1_FOXO1_FOXO6_FOXG1_FOXP1&#45;&gt;FOXD1_FOXO1_FOXO6_FOXG1_FOXP1 -->
<g class="edge" id="edge20">
<a class="remove19" ismara:data="0.292" onmousemove="ShowTooltip(evt, 'FOXP1: 0.292|FOXO1: 0.176')" onmouseout="HideTooltip(evt)">
<path d="M601.418,-477.416C612.288,-476.33 619.28,-474.452 619.28,-471.78 619.28,-469.86 615.668,-468.349 609.6,-467.248" fill="none" stroke="#de9aff" stroke-width="3"/>
<polygon fill="#de9aff" points="609.72,-464.439 601.418,-466.144 608.971,-469.989 609.72,-464.439" stroke="#de9aff"/>
</a>
</g>
<!-- ESRRB_ESRRG -->
<g class="node" id="node14">
<a class="remove15" onmousemove="ShowTooltip(evt, 'Z-value: 0.825')" onmouseout="HideTooltip(evt)" xlink:href="ESRRB_ESRRG.svg">
<polygon fill="#8b97ff" points="80.75,-227.79 12.25,-227.79 0.25,-215.79 0.25,-203.79 12.25,-191.79 80.75,-191.79 92.75,-203.79 92.75,-215.79 80.75,-227.79" stroke="#8b97ff" stroke-width="2"/>
<path d="M12.25,-227.79C6.25,-227.79 0.25,-221.79 0.25,-215.79" fill="#8b97ff" stroke="#8b97ff" stroke-width="2"/>
<path d="M0.25,-203.79C0.25,-197.79 6.25,-191.79 12.25,-191.79" fill="#8b97ff" stroke="#8b97ff" stroke-width="2"/>
<path d="M80.75,-191.79C86.75,-191.79 92.75,-197.79 92.75,-203.79" fill="#8b97ff" stroke="#8b97ff" stroke-width="2"/>
<path d="M92.75,-215.79C92.75,-221.79 86.75,-227.79 80.75,-227.79" fill="#8b97ff" stroke="#8b97ff" stroke-width="2"/>
<polyline fill="none" points="80.75,-227.79 12.25,-227.79 " stroke="white" stroke-width="2"/>
<path d="M12.25,-227.79C6.25,-227.79 0.25,-221.79 0.25,-215.79" fill="none" stroke="white" stroke-width="2"/>
<polyline fill="none" points="0.25,-215.79 0.25,-203.79 " stroke="white" stroke-width="2"/>
<path d="M0.25,-203.79C0.25,-197.79 6.25,-191.79 12.25,-191.79" fill="none" stroke="white" stroke-width="2"/>
<polyline fill="none" points="12.25,-191.79 80.75,-191.79 " stroke="white" stroke-width="2"/>
<path d="M80.75,-191.79C86.75,-191.79 92.75,-197.79 92.75,-203.79" fill="none" stroke="white" stroke-width="2"/>
<polyline fill="none" points="92.75,-203.79 92.75,-215.79 " stroke="white" stroke-width="2"/>
<path d="M92.75,-215.79C92.75,-221.79 86.75,-227.79 80.75,-227.79" fill="none" stroke="white" stroke-width="2"/>
<text font-family="Helvetica,sans-Serif" font-size="10.00" text-anchor="middle" x="46.5" y="-207.29">ESRRB_ESRRG</text>
</a>
</g>
<!-- FOXD1_FOXO1_FOXO6_FOXG1_FOXP1&#45;&gt;ESRRB_ESRRG -->
<g class="edge" id="edge22">
<a class="remove1 root" ismara:data="0.011" onmousemove="ShowTooltip(evt, 'ESRRG: 0.011')" onmouseout="HideTooltip(evt)">
<path d="M469.09,-453.772C388.458,-407.22 173.262,-282.976 85.0418,-232.042" fill="none" stroke="#eecaff" stroke-width="3"/>
<polygon fill="#eecaff" points="86.2366,-229.499 77.9084,-227.924 83.4366,-234.349 86.2366,-229.499" stroke="#eecaff"/>
</a>
</g>
<!-- NFIA&#45;&gt;ESRRB_ESRRG -->
<g class="edge" id="edge26">
<a class="remove7" ismara:data="0.081" onmousemove="ShowTooltip(evt, 'ESRRG: 0.081')" onmouseout="HideTooltip(evt)">
<path d="M360.357,-523.647C304.093,-467.383 133.876,-297.166 70.5625,-233.852" fill="none" stroke="#eabeff" stroke-width="3"/>
<polygon fill="#eabeff" points="72.4133,-231.743 64.7765,-228.066 68.4535,-235.703 72.4133,-231.743" stroke="#eabeff"/>
</a>
</g>
<!-- NKX2&#45;2 -->
<g class="node" id="node19">
<a class="remove10" onmousemove="ShowTooltip(evt, 'Z-value: 0.341')" onmouseout="HideTooltip(evt)" xlink:href="NKX2-2.svg">
<polygon fill="#b1b9ff" points="131.7,-106.2 101.7,-106.2 89.7,-94.2 89.7,-82.2 101.7,-70.2 131.7,-70.2 143.7,-82.2 143.7,-94.2 131.7,-106.2" stroke="#b1b9ff" stroke-width="2"/>
<path d="M101.7,-106.2C95.7,-106.2 89.7,-100.2 89.7,-94.2" fill="#b1b9ff" stroke="#b1b9ff" stroke-width="2"/>
<path d="M89.7,-82.2C89.7,-76.2 95.7,-70.2 101.7,-70.2" fill="#b1b9ff" stroke="#b1b9ff" stroke-width="2"/>
<path d="M131.7,-70.2C137.7,-70.2 143.7,-76.2 143.7,-82.2" fill="#b1b9ff" stroke="#b1b9ff" stroke-width="2"/>
<path d="M143.7,-94.2C143.7,-100.2 137.7,-106.2 131.7,-106.2" fill="#b1b9ff" stroke="#b1b9ff" stroke-width="2"/>
<polyline fill="none" points="131.7,-106.2 101.7,-106.2 " stroke="white" stroke-width="2"/>
<path d="M101.7,-106.2C95.7,-106.2 89.7,-100.2 89.7,-94.2" fill="none" stroke="white" stroke-width="2"/>
<polyline fill="none" points="89.7,-94.2 89.7,-82.2 " stroke="white" stroke-width="2"/>
<path d="M89.7,-82.2C89.7,-76.2 95.7,-70.2 101.7,-70.2" fill="none" stroke="white" stroke-width="2"/>
<polyline fill="none" points="101.7,-70.2 131.7,-70.2 " stroke="white" stroke-width="2"/>
<path d="M131.7,-70.2C137.7,-70.2 143.7,-76.2 143.7,-82.2" fill="none" stroke="white" stroke-width="2"/>
<polyline fill="none" points="143.7,-82.2 143.7,-94.2 " stroke="white" stroke-width="2"/>
<path d="M143.7,-94.2C143.7,-100.2 137.7,-106.2 131.7,-106.2" fill="none" stroke="white" stroke-width="2"/>
<text font-family="Helvetica,sans-Serif" font-size="10.00" text-anchor="middle" x="116.7" y="-85.7">NKX2-2</text>
</a>
</g>
<!-- NFIA&#45;&gt;NKX2&#45;2 -->
<g class="edge" id="edge24">
<a class="remove7" ismara:data="0.106" onmousemove="ShowTooltip(evt, 'NKX2-2: 0.106')" onmouseout="HideTooltip(evt)">
<path d="M368.258,-523.911C327.507,-453.329 178.976,-196.065 131.44,-113.73" fill="none" stroke="#e8baff" stroke-width="3"/>
<polygon fill="#e8baff" points="133.587,-111.849 127.162,-106.32 128.737,-114.649 133.587,-111.849" stroke="#e8baff"/>
</a>
</g>
<!-- PAX1_PAX9 -->
<g class="node" id="node22">
<a class="remove14" onmousemove="ShowTooltip(evt, 'Z-value: 0.243')" onmouseout="HideTooltip(evt)" xlink:href="PAX1_PAX9.svg">
<polygon fill="#b9c0ff" points="262.54,-36 214.04,-36 202.04,-24 202.04,-12 214.04,-6.39488e-14 262.54,-6.39488e-14 274.54,-12 274.54,-24 262.54,-36" stroke="#b9c0ff" stroke-width="2"/>
<path d="M214.04,-36C208.04,-36 202.04,-30 202.04,-24" fill="#b9c0ff" stroke="#b9c0ff" stroke-width="2"/>
<path d="M202.04,-12C202.04,-6 208.04,-6.39488e-14 214.04,-6.39488e-14" fill="#b9c0ff" stroke="#b9c0ff" stroke-width="2"/>
<path d="M262.54,-6.39488e-14C268.54,-6.39488e-14 274.54,-6 274.54,-12" fill="#b9c0ff" stroke="#b9c0ff" stroke-width="2"/>
<path d="M274.54,-24C274.54,-30 268.54,-36 262.54,-36" fill="#b9c0ff" stroke="#b9c0ff" stroke-width="2"/>
<polyline fill="none" points="262.54,-36 214.04,-36 " stroke="white" stroke-width="2"/>
<path d="M214.04,-36C208.04,-36 202.04,-30 202.04,-24" fill="none" stroke="white" stroke-width="2"/>
<polyline fill="none" points="202.04,-24 202.04,-12 " stroke="white" stroke-width="2"/>
<path d="M202.04,-12C202.04,-6 208.04,-6.39488e-14 214.04,-6.39488e-14" fill="none" stroke="white" stroke-width="2"/>
<polyline fill="none" points="214.04,-6.39488e-14 262.54,-6.39488e-14 " stroke="white" stroke-width="2"/>
<path d="M262.54,-6.39488e-14C268.54,-6.39488e-14 274.54,-6 274.54,-12" fill="none" stroke="white" stroke-width="2"/>
<polyline fill="none" points="274.54,-12 274.54,-24 " stroke="white" stroke-width="2"/>
<path d="M274.54,-24C274.54,-30 268.54,-36 262.54,-36" fill="none" stroke="white" stroke-width="2"/>
<text font-family="Helvetica,sans-Serif" font-size="10.00" text-anchor="middle" x="238.29" y="-15.5">PAX1_PAX9</text>
</a>
</g>
<!-- NFIA&#45;&gt;PAX1_PAX9 -->
<g class="edge" id="edge28">
<a class="remove4 root" ismara:data="0.022" onmousemove="ShowTooltip(evt, 'PAX1: 0.022')" onmouseout="HideTooltip(evt)">
<path d="M369.079,-523.815C348.673,-484.402 300.945,-387.599 277.17,-300.87 251.897,-208.677 242.637,-94.8651 239.607,-44.3207" fill="none" stroke="#edc8ff" stroke-width="3"/>
<polygon fill="#edc8ff" points="242.395,-44.0269 239.142,-36.2002 236.804,-44.3473 242.395,-44.0269" stroke="#edc8ff"/>
</a>
</g>
<!-- TGIF1&#45;&gt;FOXD1_FOXO1_FOXO6_FOXG1_FOXP1 -->
<g class="edge" id="edge14">
<a class="remove6 root" ismara:data="0.024" onmousemove="ShowTooltip(evt, 'FOXP1: 0.024')" onmouseout="HideTooltip(evt)">
<path d="M265.341,-534.732C302.724,-524.715 371.627,-506.252 425.185,-491.901" fill="none" stroke="#edc8ff" stroke-width="3"/>
<polygon fill="#edc8ff" points="425.968,-494.591 432.971,-489.815 424.518,-489.181 425.968,-494.591" stroke="#edc8ff"/>
</a>
</g>
<!-- TGIF1&#45;&gt;TGIF1 -->
<g class="edge" id="edge18">
<a class="remove16 root" ismara:data="0.068" onmousemove="ShowTooltip(evt, 'TGIF1: 0.068')" onmouseout="HideTooltip(evt)">
<path d="M265.531,-548.723C275.314,-548.868 283.29,-546.621 283.29,-541.98 283.29,-538.717 279.347,-536.637 273.605,-535.74" fill="none" stroke="#ebc0ff" stroke-width="3"/>
<polygon fill="#ebc0ff" points="273.69,-532.94 265.531,-535.237 273.341,-538.529 273.69,-532.94" stroke="#ebc0ff"/>
</a>
</g>
<!-- TGIF1&#45;&gt;ESRRB_ESRRG -->
<g class="edge" id="edge16">
<a class="remove3 root" ismara:data="0.015" onmousemove="ShowTooltip(evt, 'ESRRG: 0.015')" onmouseout="HideTooltip(evt)">
<path d="M227.705,-523.647C195.418,-467.723 98.1332,-299.221 61.0625,-235.013" fill="none" stroke="#edc9ff" stroke-width="3"/>
<polygon fill="#edc9ff" points="63.4769,-233.595 57.0519,-228.066 58.6271,-236.395 63.4769,-233.595" stroke="#edc9ff"/>
</a>
</g>
<!-- ESRRB_ESRRG&#45;&gt;ESRRB_ESRRG -->
<g class="edge" id="edge30">
<a class="remove5 root" ismara:data="0.023" onmousemove="ShowTooltip(evt, 'ESRRG: 0.023')" onmouseout="HideTooltip(evt)">
<path d="M92.8118,-216.358C103.046,-215.741 110.5,-213.552 110.5,-209.79 110.5,-207.145 106.815,-205.277 101.069,-204.187" fill="none" stroke="#edc8ff" stroke-width="3"/>
<polygon fill="#edc8ff" points="101.083,-201.37 92.8118,-203.222 100.433,-206.932 101.083,-201.37" stroke="#edc8ff"/>
</a>
</g>
<!-- FOXK1_FOXP2_FOXB1_FOXP3 -->
<g class="node" id="node25">
<a class="remove12" onmousemove="ShowTooltip(evt, 'Z-value: 0.694')" onmouseout="HideTooltip(evt)" xlink:href="FOXK1_FOXP2_FOXB1_FOXP3.svg">
<polygon fill="#96a0ff" points="446.94,-36 310.44,-36 298.44,-24 298.44,-12 310.44,3.19744e-14 446.94,3.19744e-14 458.94,-12 458.94,-24 446.94,-36" stroke="#96a0ff" stroke-width="2"/>
<path d="M310.44,-36C304.44,-36 298.44,-30 298.44,-24" fill="#96a0ff" stroke="#96a0ff" stroke-width="2"/>
<path d="M298.44,-12C298.44,-6 304.44,3.19744e-14 310.44,3.19744e-14" fill="#96a0ff" stroke="#96a0ff" stroke-width="2"/>
<path d="M446.94,3.19744e-14C452.94,3.19744e-14 458.94,-6 458.94,-12" fill="#96a0ff" stroke="#96a0ff" stroke-width="2"/>
<path d="M458.94,-24C458.94,-30 452.94,-36 446.94,-36" fill="#96a0ff" stroke="#96a0ff" stroke-width="2"/>
<polyline fill="none" points="446.94,-36 310.44,-36 " stroke="white" stroke-width="2"/>
<path d="M310.44,-36C304.44,-36 298.44,-30 298.44,-24" fill="none" stroke="white" stroke-width="2"/>
<polyline fill="none" points="298.44,-24 298.44,-12 " stroke="white" stroke-width="2"/>
<path d="M298.44,-12C298.44,-6 304.44,3.19744e-14 310.44,3.19744e-14" fill="none" stroke="white" stroke-width="2"/>
<polyline fill="none" points="310.44,3.19744e-14 446.94,3.19744e-14 " stroke="white" stroke-width="2"/>
<path d="M446.94,3.19744e-14C452.94,3.19744e-14 458.94,-6 458.94,-12" fill="none" stroke="white" stroke-width="2"/>
<polyline fill="none" points="458.94,-12 458.94,-24 " stroke="white" stroke-width="2"/>
<path d="M458.94,-24C458.94,-30 452.94,-36 446.94,-36" fill="none" stroke="white" stroke-width="2"/>
<text font-family="Helvetica,sans-Serif" font-size="10.00" text-anchor="middle" x="378.69" y="-15.5">FOXK1_FOXP2_FOXB1_FOXP3</text>
</a>
</g>
<!-- FOXK1_FOXP2_FOXB1_FOXP3&#45;&gt;ID4_TCF4_SNAI2 -->
<g class="edge" id="edge44">
<a class="remove9" ismara:data="0.328" onmousemove="ShowTooltip(evt, 'TCF4: 0.328|SNAI2: 0.047')" onmouseout="HideTooltip(evt)">
<path d="M389.275,-36.3332C421.562,-92.2565 518.847,-260.759 555.917,-324.967" fill="none" stroke="#dd95ff" stroke-width="3"/>
<polygon fill="#dd95ff" points="553.503,-326.385 559.928,-331.913 558.353,-323.585 553.503,-326.385" stroke="#dd95ff"/>
</a>
</g>
<!-- FOXK1_FOXP2_FOXB1_FOXP3&#45;&gt;FOXD1_FOXO1_FOXO6_FOXG1_FOXP1 -->
<g class="edge" id="edge32">
<a class="remove12" ismara:data="0.631" onmousemove="ShowTooltip(evt, 'FOXP1: 0.631|FOXO1: 0.181|FOXG1: 0.028')" onmouseout="HideTooltip(evt)">
<path d="M383.531,-36.0687C402.406,-106.508 471.1,-362.878 493.305,-445.75" fill="none" stroke="#cc62ff" stroke-width="3"/>
<polygon fill="#cc62ff" points="490.649,-446.657 495.425,-453.66 496.059,-445.207 490.649,-446.657" stroke="#cc62ff"/>
</a>
</g>
<!-- FOXK1_FOXP2_FOXB1_FOXP3&#45;&gt;NFIA -->
<g class="edge" id="edge36">
<a class="remove2 root" ismara:data="0.015" onmousemove="ShowTooltip(evt, 'NFIA: 0.015')" onmouseout="HideTooltip(evt)">
<path d="M378.69,-36.0366C378.69,-114.128 378.69,-423.296 378.69,-515.738" fill="none" stroke="#edc9ff" stroke-width="3"/>
<polygon fill="#edc9ff" points="375.89,-515.749 378.69,-523.749 381.49,-515.749 375.89,-515.749" stroke="#edc9ff"/>
</a>
</g>
<!-- FOXK1_FOXP2_FOXB1_FOXP3&#45;&gt;TGIF1 -->
<g class="edge" id="edge42">
<a class="remove12" ismara:data="0.11" onmousemove="ShowTooltip(evt, 'TGIF1: 0.110')" onmouseout="HideTooltip(evt)">
<path d="M369.079,-36.1654C348.673,-75.5775 300.945,-172.381 277.17,-259.11 251.897,-351.303 242.637,-465.115 239.607,-515.659" fill="none" stroke="#e8b9ff" stroke-width="3"/>
<polygon fill="#e8b9ff" points="236.804,-515.633 239.142,-523.78 242.395,-515.953 236.804,-515.633" stroke="#e8b9ff"/>
</a>
</g>
<!-- FOXK1_FOXP2_FOXB1_FOXP3&#45;&gt;ESRRB_ESRRG -->
<g class="edge" id="edge40">
<a class="remove0 root" ismara:data="0.004" onmousemove="ShowTooltip(evt, 'ESRRG: 0.004')" onmouseout="HideTooltip(evt)">
<path d="M347.438,-36.0431C286.352,-71.3116 151.296,-149.286 84.8893,-187.626" fill="none" stroke="#eecbff" stroke-width="3"/>
<polygon fill="#eecbff" points="83.4388,-185.23 77.9106,-191.655 86.2388,-190.08 83.4388,-185.23" stroke="#eecbff"/>
</a>
</g>
<!-- FOXK1_FOXP2_FOXB1_FOXP3&#45;&gt;NKX2&#45;2 -->
<g class="edge" id="edge34">
<a class="remove10" ismara:data="0.107" onmousemove="ShowTooltip(evt, 'NKX2-2: 0.003|FOXP3: 0.107')" onmouseout="HideTooltip(evt)">
<path d="M303.704,-39.1277C253.766,-52.5085 190.539,-69.4501 151.953,-79.7892" fill="none" stroke="#eecbff" stroke-width="3"/>
<path d="M303.186,-37.1958C253.248,-50.5767 190.022,-67.5183 151.436,-77.8573" fill="none" stroke="#e8baff" stroke-width="3"/>
<polygon fill="#e8baff" points="304.218,-40.8535 311.221,-36.0782 302.769,-35.4443 304.218,-40.8535" stroke="#e8baff"/>
<polygon fill="#eecbff" points="150.851,-76.1504 143.848,-80.9256 152.301,-81.5596 150.851,-76.1504" stroke="#eecbff"/>
</a>
</g>
<!-- FOXK1_FOXP2_FOXB1_FOXP3&#45;&gt;FOXK1_FOXP2_FOXB1_FOXP3 -->
<g class="edge" id="edge38">
<a class="remove12" ismara:data="0.236" onmousemove="ShowTooltip(evt, 'FOXP2: 0.236')" onmouseout="HideTooltip(evt)">
<path d="M459.05,-23.9524C469.656,-22.9373 476.69,-20.9531 476.69,-18 476.69,-15.8774 473.056,-14.2555 467.074,-13.1341" fill="none" stroke="#e2a4ff" stroke-width="3"/>
<polygon fill="#e2a4ff" points="467.353,-10.3464 459.05,-12.0476 466.602,-15.8958 467.353,-10.3464" stroke="#e2a4ff"/>
</a>
</g>
<!-- KLF12 -->
<g class="node" id="node33">
<a class="remove18" onmousemove="ShowTooltip(evt, 'Z-value: 0.683')" onmouseout="HideTooltip(evt)" xlink:href="KLF12.svg">
<polygon fill="#96a1ff" points="515.28,-106.2 485.28,-106.2 473.28,-94.2 473.28,-82.2 485.28,-70.2 515.28,-70.2 527.28,-82.2 527.28,-94.2 515.28,-106.2" stroke="#96a1ff" stroke-width="2"/>
<path d="M485.28,-106.2C479.28,-106.2 473.28,-100.2 473.28,-94.2" fill="#96a1ff" stroke="#96a1ff" stroke-width="2"/>
<path d="M473.28,-82.2C473.28,-76.2 479.28,-70.2 485.28,-70.2" fill="#96a1ff" stroke="#96a1ff" stroke-width="2"/>
<path d="M515.28,-70.2C521.28,-70.2 527.28,-76.2 527.28,-82.2" fill="#96a1ff" stroke="#96a1ff" stroke-width="2"/>
<path d="M527.28,-94.2C527.28,-100.2 521.28,-106.2 515.28,-106.2" fill="#96a1ff" stroke="#96a1ff" stroke-width="2"/>
<polyline fill="none" points="515.28,-106.2 485.28,-106.2 " stroke="white" stroke-width="2"/>
<path d="M485.28,-106.2C479.28,-106.2 473.28,-100.2 473.28,-94.2" fill="none" stroke="white" stroke-width="2"/>
<polyline fill="none" points="473.28,-94.2 473.28,-82.2 " stroke="white" stroke-width="2"/>
<path d="M473.28,-82.2C473.28,-76.2 479.28,-70.2 485.28,-70.2" fill="none" stroke="white" stroke-width="2"/>
<polyline fill="none" points="485.28,-70.2 515.28,-70.2 " stroke="white" stroke-width="2"/>
<path d="M515.28,-70.2C521.28,-70.2 527.28,-76.2 527.28,-82.2" fill="none" stroke="white" stroke-width="2"/>
<polyline fill="none" points="527.28,-82.2 527.28,-94.2 " stroke="white" stroke-width="2"/>
<path d="M527.28,-94.2C527.28,-100.2 521.28,-106.2 515.28,-106.2" fill="none" stroke="white" stroke-width="2"/>
<text font-family="Helvetica,sans-Serif" font-size="10.00" text-anchor="middle" x="500.28" y="-85.7">KLF12</text>
</a>
</g>
<!-- TP63 -->
<g class="node" id="node34">
<a class="remove11" onmousemove="ShowTooltip(evt, 'Z-value: 0.463')" onmouseout="HideTooltip(evt)" xlink:href="TP63.svg">
<polygon fill="#a7b0ff" points="585.48,-227.79 555.48,-227.79 543.48,-215.79 543.48,-203.79 555.48,-191.79 585.48,-191.79 597.48,-203.79 597.48,-215.79 585.48,-227.79" stroke="#a7b0ff" stroke-width="2"/>
<path d="M555.48,-227.79C549.48,-227.79 543.48,-221.79 543.48,-215.79" fill="#a7b0ff" stroke="#a7b0ff" stroke-width="2"/>
<path d="M543.48,-203.79C543.48,-197.79 549.48,-191.79 555.48,-191.79" fill="#a7b0ff" stroke="#a7b0ff" stroke-width="2"/>
<path d="M585.48,-191.79C591.48,-191.79 597.48,-197.79 597.48,-203.79" fill="#a7b0ff" stroke="#a7b0ff" stroke-width="2"/>
<path d="M597.48,-215.79C597.48,-221.79 591.48,-227.79 585.48,-227.79" fill="#a7b0ff" stroke="#a7b0ff" stroke-width="2"/>
<polyline fill="none" points="585.48,-227.79 555.48,-227.79 " stroke="white" stroke-width="2"/>
<path d="M555.48,-227.79C549.48,-227.79 543.48,-221.79 543.48,-215.79" fill="none" stroke="white" stroke-width="2"/>
<polyline fill="none" points="543.48,-215.79 543.48,-203.79 " stroke="white" stroke-width="2"/>
<path d="M543.48,-203.79C543.48,-197.79 549.48,-191.79 555.48,-191.79" fill="none" stroke="white" stroke-width="2"/>
<polyline fill="none" points="555.48,-191.79 585.48,-191.79 " stroke="white" stroke-width="2"/>
<path d="M585.48,-191.79C591.48,-191.79 597.48,-197.79 597.48,-203.79" fill="none" stroke="white" stroke-width="2"/>
<polyline fill="none" points="597.48,-203.79 597.48,-215.79 " stroke="white" stroke-width="2"/>
<path d="M597.48,-215.79C597.48,-221.79 591.48,-227.79 585.48,-227.79" fill="none" stroke="white" stroke-width="2"/>
<text font-family="Helvetica,sans-Serif" font-size="10.00" text-anchor="middle" x="570.48" y="-207.29">TP63</text>
</a>
</g>
<!-- TP63&#45;&gt;ID4_TCF4_SNAI2 -->
<g class="edge" id="edge46">
<a class="remove9" ismara:data="0.112" onmousemove="ShowTooltip(evt, 'SNAI2: 0.112')" onmouseout="HideTooltip(evt)">
<path d="M570.48,-227.857C570.48,-252.154 570.48,-295.539 570.48,-323.576" fill="none" stroke="#e8b9ff" stroke-width="3"/>
<polygon fill="#e8b9ff" points="567.68,-323.746 570.48,-331.746 573.28,-323.746 567.68,-323.746" stroke="#e8b9ff"/>
</a>
</g>
<!-- SRY -->
<g class="node" id="node36">
<a class="remove20" onmousemove="ShowTooltip(evt, 'Z-value: 0.364')" onmouseout="HideTooltip(evt)" xlink:href="SRY.svg">
<polygon fill="#ffafaf" points="323.49,-297.99 293.49,-297.99 281.49,-285.99 281.49,-273.99 293.49,-261.99 323.49,-261.99 335.49,-273.99 335.49,-285.99 323.49,-297.99" stroke="#ffafaf" stroke-width="2"/>
<path d="M293.49,-297.99C287.49,-297.99 281.49,-291.99 281.49,-285.99" fill="#ffafaf" stroke="#ffafaf" stroke-width="2"/>
<path d="M281.49,-273.99C281.49,-267.99 287.49,-261.99 293.49,-261.99" fill="#ffafaf" stroke="#ffafaf" stroke-width="2"/>
<path d="M323.49,-261.99C329.49,-261.99 335.49,-267.99 335.49,-273.99" fill="#ffafaf" stroke="#ffafaf" stroke-width="2"/>
<path d="M335.49,-285.99C335.49,-291.99 329.49,-297.99 323.49,-297.99" fill="#ffafaf" stroke="#ffafaf" stroke-width="2"/>
<polyline fill="none" points="323.49,-297.99 293.49,-297.99 " stroke="white" stroke-width="2"/>
<path d="M293.49,-297.99C287.49,-297.99 281.49,-291.99 281.49,-285.99" fill="none" stroke="white" stroke-width="2"/>
<polyline fill="none" points="281.49,-285.99 281.49,-273.99 " stroke="white" stroke-width="2"/>
<path d="M281.49,-273.99C281.49,-267.99 287.49,-261.99 293.49,-261.99" fill="none" stroke="white" stroke-width="2"/>
<polyline fill="none" points="293.49,-261.99 323.49,-261.99 " stroke="white" stroke-width="2"/>
<path d="M323.49,-261.99C329.49,-261.99 335.49,-267.99 335.49,-273.99" fill="none" stroke="white" stroke-width="2"/>
<polyline fill="none" points="335.49,-273.99 335.49,-285.99 " stroke="white" stroke-width="2"/>
<path d="M335.49,-285.99C335.49,-291.99 329.49,-297.99 323.49,-297.99" fill="none" stroke="white" stroke-width="2"/>
<text font-family="Helvetica,sans-Serif" font-size="10.00" text-anchor="middle" x="308.49" y="-277.49">SRY</text>
</a>
</g>
<!-- SRY&#45;&gt;ID4_TCF4_SNAI2 -->
<g class="edge" id="edge62">
<a class="remove9 root" ismara:data="0.047" onmousemove="ShowTooltip(evt, 'TCF4: 0.047')" onmouseout="HideTooltip(evt)">
<path d="M335.541,-287.238C377.41,-298.457 458.818,-320.27 513.922,-335.035" fill="none" stroke="#ffc4c4" stroke-width="3"/>
<polygon fill="#ffc4c4" points="513.402,-337.795 521.854,-337.161 514.851,-332.385 513.402,-337.795" stroke="#ffc4c4"/>
</a>
</g>
<!-- SRY&#45;&gt;FOXD1_FOXO1_FOXO6_FOXG1_FOXP1 -->
<g class="edge" id="edge48">
<a class="remove19 root" ismara:data="0.217" onmousemove="ShowTooltip(evt, 'FOXP1: 0.217|FOXO1: 0.034')" onmouseout="HideTooltip(evt)">
<path d="M326.533,-298.033C361.23,-332.73 437.262,-408.762 476.222,-447.722" fill="none" stroke="#ffa7a7" stroke-width="3"/>
<polygon fill="#ffa7a7" points="474.508,-449.968 482.145,-453.645 478.468,-446.008 474.508,-449.968" stroke="#ffa7a7"/>
</a>
</g>
<!-- SRY&#45;&gt;NFIA -->
<g class="edge" id="edge52">
<a class="remove7 root" ismara:data="0.044" onmousemove="ShowTooltip(evt, 'NFIA: 0.044')" onmouseout="HideTooltip(evt)">
<path d="M313.315,-297.998C325.488,-343.429 357.488,-462.852 371.707,-515.92" fill="none" stroke="#ffc4c4" stroke-width="3"/>
<polygon fill="#ffc4c4" points="369.056,-516.844 373.831,-523.846 374.465,-515.394 369.056,-516.844" stroke="#ffc4c4"/>
</a>
</g>
<!-- SRY&#45;&gt;TGIF1 -->
<g class="edge" id="edge58">
<a class="remove17 root" ismara:data="0.093" onmousemove="ShowTooltip(evt, 'TGIF1: 0.093')" onmouseout="HideTooltip(evt)">
<path d="M303.665,-297.998C291.492,-343.429 259.492,-462.852 245.273,-515.92" fill="none" stroke="#ffbcbc" stroke-width="3"/>
<polygon fill="#ffbcbc" points="242.515,-515.394 243.149,-523.846 247.924,-516.844 242.515,-515.394" stroke="#ffbcbc"/>
</a>
</g>
<!-- SRY&#45;&gt;DRGX_PROP1 -->
<g class="edge" id="edge60">
<a class="remove13 root" ismara:data="0.054" onmousemove="ShowTooltip(evt, 'DRGX: 0.054')" onmouseout="HideTooltip(evt)">
<path d="M290.447,-298.033C255.749,-332.73 179.718,-408.762 140.758,-447.722" fill="none" stroke="#ffc2c2" stroke-width="3"/>
<polygon fill="#ffc2c2" points="138.512,-446.008 134.835,-453.645 142.472,-449.968 138.512,-446.008" stroke="#ffc2c2"/>
</a>
</g>
<!-- SRY&#45;&gt;CREB1 -->
<g class="edge" id="edge64">
<a class="remove8 root" ismara:data="0.045" onmousemove="ShowTooltip(evt, 'CREB1: 0.045')" onmouseout="HideTooltip(evt)">
<path d="M281.439,-287.238C233.687,-300.033 134.503,-326.61 81.5692,-340.793" fill="none" stroke="#ffc4c4" stroke-width="3"/>
<polygon fill="#ffc4c4" points="80.7988,-338.101 73.7961,-342.876 82.2482,-343.51 80.7988,-338.101" stroke="#ffc4c4"/>
</a>
</g>
<!-- SRY&#45;&gt;ESRRB_ESRRG -->
<g class="edge" id="edge56">
<a class="remove15 root" ismara:data="0.062" onmousemove="ShowTooltip(evt, 'ESRRG: 0.062')" onmouseout="HideTooltip(evt)">
<path d="M281.439,-272.742C239.072,-261.389 156.218,-239.189 101.101,-224.42" fill="none" stroke="#ffc1c1" stroke-width="3"/>
<polygon fill="#ffc1c1" points="101.63,-221.663 93.1781,-222.297 100.181,-227.073 101.63,-221.663" stroke="#ffc1c1"/>
</a>
</g>
<!-- SRY&#45;&gt;NKX2&#45;2 -->
<g class="edge" id="edge50">
<a class="remove10 root" ismara:data="0.053" onmousemove="ShowTooltip(evt, 'NKX2-2: 0.053')" onmouseout="HideTooltip(evt)">
<path d="M290.447,-261.947C255.749,-227.249 179.718,-151.218 140.758,-112.258" fill="none" stroke="#ffc3c3" stroke-width="3"/>
<polygon fill="#ffc3c3" points="142.472,-110.012 134.835,-106.335 138.512,-113.972 142.472,-110.012" stroke="#ffc3c3"/>
</a>
</g>
<!-- SRY&#45;&gt;PAX1_PAX9 -->
<g class="edge" id="edge68">
<a class="remove14 root" ismara:data="0.061" onmousemove="ShowTooltip(evt, 'PAX9: 0.061')" onmouseout="HideTooltip(evt)">
<path d="M303.665,-261.982C291.492,-216.551 259.492,-97.1284 245.273,-44.0596" fill="none" stroke="#ffc1c1" stroke-width="3"/>
<polygon fill="#ffc1c1" points="247.924,-43.1363 243.149,-36.1336 242.515,-44.5858 247.924,-43.1363" stroke="#ffc1c1"/>
</a>
</g>
<!-- SRY&#45;&gt;FOXK1_FOXP2_FOXB1_FOXP3 -->
<g class="edge" id="edge54">
<a class="remove12 root" ismara:data="0.054" onmousemove="ShowTooltip(evt, 'FOXP2: 0.054')" onmouseout="HideTooltip(evt)">
<path d="M313.315,-261.982C325.488,-216.551 357.488,-97.1284 371.707,-44.0596" fill="none" stroke="#ffc2c2" stroke-width="3"/>
<polygon fill="#ffc2c2" points="374.465,-44.5858 373.831,-36.1336 369.056,-43.1363 374.465,-44.5858" stroke="#ffc2c2"/>
</a>
</g>
<!-- SRY&#45;&gt;KLF12 -->
<g class="edge" id="edge70">
<a class="remove18 root" ismara:data="0.114" onmousemove="ShowTooltip(evt, 'KLF12: 0.114')" onmouseout="HideTooltip(evt)">
<path d="M326.533,-261.947C361.23,-227.249 437.262,-151.218 476.222,-112.258" fill="none" stroke="#ffb8b8" stroke-width="3"/>
<polygon fill="#ffb8b8" points="478.468,-113.972 482.145,-106.335 474.508,-110.012 478.468,-113.972" stroke="#ffb8b8"/>
</a>
</g>
<!-- SRY&#45;&gt;TP63 -->
<g class="edge" id="edge66">
<a class="remove11 root" ismara:data="0.053" onmousemove="ShowTooltip(evt, 'TP63: 0.053')" onmouseout="HideTooltip(evt)">
<path d="M335.541,-272.742C383.293,-259.947 482.477,-233.37 535.411,-219.187" fill="none" stroke="#ffc3c3" stroke-width="3"/>
<polygon fill="#ffc3c3" points="536.181,-221.879 543.184,-217.104 534.732,-216.47 536.181,-221.879" stroke="#ffc3c3"/>
</a>
</g>
</g>
<rect height="14" id="tooltip_bg" style="fill: white; stroke: black; opacity: 0.8;" visibility="hidden"/><text id="tooltip" style="font-size: 10px;font-weight: bold;" visibility="hidden"></text><g id="plus" onclick="showSome();moveSlider();setThreshold();"><circle cx="22" cy="22" r="10" style="fill: #dddddd; opacity: 100%;"/><line stroke="#888888" stroke-width="2" x1="16" x2="28" y1="22" y2="22"/><line stroke="#888888" stroke-width="2" x1="22" x2="22" y1="16" y2="28"/></g><g id="minus" onclick="hideSome();moveSlider();setThreshold();"><circle cx="22" cy="546" r="10" style="fill: #dddddd; opacity: 100%;"/><line stroke="#888888" stroke-width="2" x1="16" x2="28" y1="546" y2="546"/></g><line id="slider_scale" onmousedown="jump_slider(evt)" stroke="#888888" stroke-width="5" x1="22" x2="22" y1="40" y2="528"/><circle cx="22" cy="50" id="slider" onmousedown="grab(evt)" onmouseout="release(evt)" onmouseup="release(evt)" r="15" style="fill:#922"/><script type="text/ecmascript"><![CDATA[
    var svgNS = "http://www.w3.org/2000/svg";
    var edge_num = 20;
    var counter = 0;
    var tooltip, tooltip_bg;

    function init(evt) {
        if ( window.svgDocument == null ) {
            svgDocument = evt.target.ownerDocument;
        }
        tooltip = svgDocument.getElementById('tooltip');
        tooltip_bg = svgDocument.getElementById('tooltip_bg');
        setThreshold();
    }

    function ShowTooltip(evt, txt) {
        var length = 0;
        var height;
        var tooltip_x = evt.pageX + 18;
        var tooltip_y = evt.pageY + 22;
        var bg_x = evt.pageX + 10;
        var bg_y = evt.pageY + 10;

        /* Clean toolip content */
        while (tooltip.lastChild) {
            tooltip.removeChild(tooltip.lastChild)
        }

        /* Populate tooltip with tspan elements and get longest of them */
        var text_elements = txt.split('|');
        for (var i = 0; i  < text_elements.length; i++) {
            var shift_y = 12;
            if (i == 0) {
                shift_y = 0;
            }
            var tspan_element = document.createElementNS(svgNS, "tspan");
            tspan_element.setAttributeNS(null, "dy", shift_y);
            tspan_element.setAttributeNS(null, "x", tooltip_x);
            var text_node = svgDocument.createTextNode(text_elements[i]);
            tspan_element.appendChild(text_node);
            tooltip.appendChild(tspan_element);
            var tspan_length = tspan_element.getComputedTextLength();
            if (tspan_length > length) {
                length = tspan_length
            }
        }
        /* add right margin to tooltip */
        length = length + 15;
        height = 12 * text_elements.length + 5;
        tooltip_bg.setAttributeNS(null,"width",length);
        tooltip_bg.setAttributeNS(null,"height",height);
        tooltip_bg.setAttributeNS(null,"x", bg_x);
        tooltip_bg.setAttributeNS(null,"y", bg_y);
        tooltip_bg.setAttributeNS(null,"visibility","visible");
        tooltip.setAttributeNS(null,"x", tooltip_x);
        tooltip.setAttributeNS(null,"y", tooltip_y);
        tooltip.setAttributeNS(null,"visibility","visible");
    }
    function HideTooltip() {
      tooltip.setAttributeNS(null,"visibility","hidden");
      tooltip_bg.setAttributeNS(null,"visibility","hidden");
    }

    /*** Hide/Show edges functions ***/

    function hideSome() {
      if (counter >= edge_num -1) {
        return 1;
      }
      var elements = svgDocument.getElementsByClassName('remove' + counter);
      for (var i = 0; i < elements.length; i++) {
        elements[i].setAttributeNS(null,"visibility","hidden");
      }
      counter = counter + 1;
    }

    function showSome() {
      if (counter <= 0) {
        return 1;
      }
      counter = counter - 1;
      var elements = svgDocument.getElementsByClassName('remove' + counter);
      for (var i = 0; i < elements.length; i++) {
        elements[i].setAttributeNS(null,"visibility","visible");
      }
    }

    function setThreshold() {
        var elements = svgDocument.getElementsByClassName('remove' + counter);
        var score = 0;
        for (var i = 0; i < elements.length; i++) {
            if (elements[i].classList.contains("root")){
                if (elements[i].hasAttributeNS("ismara.unibas.ch", "data")) {
                    score = elements[i].getAttributeNS("ismara.unibas.ch", "data");
                }
            } 
        }
        svgDocument.getElementById("score_indicator").textContent = "Score threshold: " + score;
    }

    /*** Slider functions ***/

    var slider_maxY = parseInt(document.getElementById("slider_scale").getAttributeNS(null, "y2"));
    var slider_minY = parseInt(document.getElementById("slider_scale").getAttributeNS(null, "y1"));
    var slider_r = parseInt(document.getElementById("slider").getAttributeNS(null, "r"));
    var coef = (edge_num - 1) / (slider_maxY - slider_minY - 2 * slider_r);

    function grab(evt){
        var element = evt.target;
        var Attr = {"onmousemove":"slide(evt,'"+element.id+"')"};
        assignAttr(element, Attr);
    }

    function release(evt){
        var element = evt.target;
        var Attr = {"onmousemove":null};
        assignAttr(element, Attr);
    }

    function assignAttr(obj,attr){
        for (i in attr) obj.setAttributeNS(null,i, attr[i]);
    }

    function slide(evt,id){
        var slider = evt.target;
        var y = evt.pageY;
        var new_counter = Math.floor((evt.pageY - slider_minY - slider_r) * coef);
        if (evt.pageY > (slider_maxY - slider_r)) {
            slider.setAttributeNS(null, "cy", (slider_maxY - slider_r));
            new_counter = edge_num;
        } else if(evt.pageY < (slider_minY + slider_r)) {
            slider.setAttributeNS(null, "cy", (slider_minY + slider_r));
            new_counter = 1;
        } else {
            slider.setAttributeNS(null, "cy", evt.pageY);
        }

        if (new_counter < counter) {
                showSome();
            counter = new_counter;
        }
        if (new_counter > counter) {
                hideSome();
            counter = new_counter;
        }
        setThreshold();
    }

    function moveSlider() {
        circle = document.getElementById("slider");
        circle.setAttributeNS(null, "cy",  slider_minY +  slider_r + (counter) / coef);
    }

    function jump_slider(evt) {
        var slider = document.getElementById("slider");
        var new_counter = Math.floor((evt.pageY - slider_minY - slider_r) * coef);
        if (evt.pageY > (slider_maxY - slider_r)) {
            slider.setAttributeNS(null, "cy", (slider_maxY - slider_r));
            new_counter = edge_num;
        } else if(evt.pageY < (slider_minY + slider_r)) {
             slider.setAttributeNS(null, "cy", (slider_minY + slider_r));
            new_counter = 1;
        } else {
            slider.setAttributeNS(null, "cy", evt.pageY);
        }

        if (new_counter > counter) {
            var d = new_counter - counter;
            for (var i = 0; i < d; i++){
                hideSome();
            }
            counter = new_counter;
        }
        if (new_counter < counter) {
            var d = counter - new_counter;
            for (var i = 0; i < d; i++){
                showSome();
            }
            counter = new_counter;
        }
        setThreshold();
    }
    ]]></script><text id="score_indicator" style="font-size: 10px;font-weight: bold;" x="10" y="578">Score threshold: 0</text><text id="info" style="font-size: 10px;font-weight: bold;" x="10" y="593">Use slider or -/+ buttons to hide/show edges.</text></svg>