<?xml version="1.0" ?><!DOCTYPE svg  PUBLIC '-//W3C//DTD SVG 1.1//EN'  'http://www.w3.org/Graphics/SVG/1.1/DTD/svg11.dtd'><!-- Generated by graphviz version 2.28.0 (20110630.0925)
 --><!-- Title: _anonymous_0 Pages: 1 --><svg height="588pt" onload="init(evt)" width="721pt" xmlns="http://www.w3.org/2000/svg" xmlns:ismara="ismara.unibas.ch" xmlns:xlink="http://www.w3.org/1999/xlink">
<g class="graph" id="graph1" transform="scale(1 1) rotate(0) translate(54 534.086)">

<polygon fill="white" points="-4,5 -4,-534.086 568.436,-534.086 568.436,5 -4,5" stroke="white"/>
<!-- ID4_TCF4_SNAI2 -->
<g class="node" id="node1">
<a class="remove12" onmousemove="ShowTooltip(evt, 'Z-value: 1.966')" onmouseout="HideTooltip(evt)" xlink:href="ID4_TCF4_SNAI2.svg">
<polygon fill="#3247ff" points="478.655,-471.665 406.155,-471.665 394.155,-459.665 394.155,-447.665 406.155,-435.665 478.655,-435.665 490.655,-447.665 490.655,-459.665 478.655,-471.665" stroke="#3247ff" stroke-width="2"/>
<path d="M406.155,-471.665C400.155,-471.665 394.155,-465.665 394.155,-459.665" fill="#3247ff" stroke="#3247ff" stroke-width="2"/>
<path d="M394.155,-447.665C394.155,-441.665 400.155,-435.665 406.155,-435.665" fill="#3247ff" stroke="#3247ff" stroke-width="2"/>
<path d="M478.655,-435.665C484.655,-435.665 490.655,-441.665 490.655,-447.665" fill="#3247ff" stroke="#3247ff" stroke-width="2"/>
<path d="M490.655,-459.665C490.655,-465.665 484.655,-471.665 478.655,-471.665" fill="#3247ff" stroke="#3247ff" stroke-width="2"/>
<polyline fill="none" points="478.655,-471.665 406.155,-471.665 " stroke="white" stroke-width="2"/>
<path d="M406.155,-471.665C400.155,-471.665 394.155,-465.665 394.155,-459.665" fill="none" stroke="white" stroke-width="2"/>
<polyline fill="none" points="394.155,-459.665 394.155,-447.665 " stroke="white" stroke-width="2"/>
<path d="M394.155,-447.665C394.155,-441.665 400.155,-435.665 406.155,-435.665" fill="none" stroke="white" stroke-width="2"/>
<polyline fill="none" points="406.155,-435.665 478.655,-435.665 " stroke="white" stroke-width="2"/>
<path d="M478.655,-435.665C484.655,-435.665 490.655,-441.665 490.655,-447.665" fill="none" stroke="white" stroke-width="2"/>
<polyline fill="none" points="490.655,-447.665 490.655,-459.665 " stroke="white" stroke-width="2"/>
<path d="M490.655,-459.665C490.655,-465.665 484.655,-471.665 478.655,-471.665" fill="none" stroke="white" stroke-width="2"/>
<text fill="white" font-family="Helvetica,sans-Serif" font-size="10.00" text-anchor="middle" x="442.405" y="-451.165">ID4_TCF4_SNAI2</text>
</a>
</g>
<!-- ID4_TCF4_SNAI2&#45;&gt;ID4_TCF4_SNAI2 -->
<g class="edge" id="edge2">
<a class="remove12" ismara:data="0.3" onmousemove="ShowTooltip(evt, 'SNAI2: 0.300|TCF4: 0.041')" onmouseout="HideTooltip(evt)">
<path d="M491.119,-460.197C501.447,-459.534 508.905,-457.357 508.905,-453.665 508.905,-451.07 505.218,-449.223 499.438,-448.124" fill="none" stroke="#bd32ff" stroke-width="3"/>
<polygon fill="#bd32ff" points="499.394,-445.299 491.119,-447.133 498.732,-450.86 499.394,-445.299" stroke="#bd32ff"/>
</a>
</g>
<!-- NFIA -->
<g class="node" id="node3">
<a class="remove21" onmousemove="ShowTooltip(evt, 'Z-value: 0.607')" onmouseout="HideTooltip(evt)" xlink:href="NFIA.svg">
<polygon fill="#9ca6ff" points="329.482,-530.086 299.482,-530.086 287.482,-518.086 287.482,-506.086 299.482,-494.086 329.482,-494.086 341.482,-506.086 341.482,-518.086 329.482,-530.086" stroke="#9ca6ff" stroke-width="2"/>
<path d="M299.482,-530.086C293.482,-530.086 287.482,-524.086 287.482,-518.086" fill="#9ca6ff" stroke="#9ca6ff" stroke-width="2"/>
<path d="M287.482,-506.086C287.482,-500.086 293.482,-494.086 299.482,-494.086" fill="#9ca6ff" stroke="#9ca6ff" stroke-width="2"/>
<path d="M329.482,-494.086C335.482,-494.086 341.482,-500.086 341.482,-506.086" fill="#9ca6ff" stroke="#9ca6ff" stroke-width="2"/>
<path d="M341.482,-518.086C341.482,-524.086 335.482,-530.086 329.482,-530.086" fill="#9ca6ff" stroke="#9ca6ff" stroke-width="2"/>
<polyline fill="none" points="329.482,-530.086 299.482,-530.086 " stroke="white" stroke-width="2"/>
<path d="M299.482,-530.086C293.482,-530.086 287.482,-524.086 287.482,-518.086" fill="none" stroke="white" stroke-width="2"/>
<polyline fill="none" points="287.482,-518.086 287.482,-506.086 " stroke="white" stroke-width="2"/>
<path d="M287.482,-506.086C287.482,-500.086 293.482,-494.086 299.482,-494.086" fill="none" stroke="white" stroke-width="2"/>
<polyline fill="none" points="299.482,-494.086 329.482,-494.086 " stroke="white" stroke-width="2"/>
<path d="M329.482,-494.086C335.482,-494.086 341.482,-500.086 341.482,-506.086" fill="none" stroke="white" stroke-width="2"/>
<polyline fill="none" points="341.482,-506.086 341.482,-518.086 " stroke="white" stroke-width="2"/>
<path d="M341.482,-518.086C341.482,-524.086 335.482,-530.086 329.482,-530.086" fill="none" stroke="white" stroke-width="2"/>
<text font-family="Helvetica,sans-Serif" font-size="10.00" text-anchor="middle" x="314.482" y="-509.586">NFIA</text>
</a>
</g>
<!-- ID4_TCF4_SNAI2&#45;&gt;NFIA -->
<g class="edge" id="edge4">
<a class="remove12" ismara:data="0.164" onmousemove="ShowTooltip(evt, 'NFIA: 0.159|TCF4: 0.164')" onmouseout="HideTooltip(evt)">
<path d="M395.807,-476.045C380.598,-482.991 364.012,-490.566 349.838,-497.038" fill="none" stroke="#d47bff" stroke-width="3"/>
<path d="M394.976,-474.226C379.768,-481.171 363.181,-488.746 349.007,-495.219" fill="none" stroke="#d378ff" stroke-width="3"/>
<polygon fill="#d378ff" points="396.866,-477.54 402.98,-471.67 394.54,-472.446 396.866,-477.54" stroke="#d378ff"/>
<polygon fill="#d47bff" points="347.934,-493.73 341.821,-499.601 350.261,-498.824 347.934,-493.73" stroke="#d47bff"/>
</a>
</g>
<!-- TBX19 -->
<g class="node" id="node5">
<a class="remove22" onmousemove="ShowTooltip(evt, 'Z-value: 0.331')" onmouseout="HideTooltip(evt)" xlink:href="TBX19.svg">
<polygon fill="#ffb2b2" points="293.963,-283.043 263.963,-283.043 251.963,-271.043 251.963,-259.043 263.963,-247.043 293.963,-247.043 305.963,-259.043 305.963,-271.043 293.963,-283.043" stroke="#ffb2b2" stroke-width="2"/>
<path d="M263.963,-283.043C257.963,-283.043 251.963,-277.043 251.963,-271.043" fill="#ffb2b2" stroke="#ffb2b2" stroke-width="2"/>
<path d="M251.963,-259.043C251.963,-253.043 257.963,-247.043 263.963,-247.043" fill="#ffb2b2" stroke="#ffb2b2" stroke-width="2"/>
<path d="M293.963,-247.043C299.963,-247.043 305.963,-253.043 305.963,-259.043" fill="#ffb2b2" stroke="#ffb2b2" stroke-width="2"/>
<path d="M305.963,-271.043C305.963,-277.043 299.963,-283.043 293.963,-283.043" fill="#ffb2b2" stroke="#ffb2b2" stroke-width="2"/>
<polyline fill="none" points="293.963,-283.043 263.963,-283.043 " stroke="white" stroke-width="2"/>
<path d="M263.963,-283.043C257.963,-283.043 251.963,-277.043 251.963,-271.043" fill="none" stroke="white" stroke-width="2"/>
<polyline fill="none" points="251.963,-271.043 251.963,-259.043 " stroke="white" stroke-width="2"/>
<path d="M251.963,-259.043C251.963,-253.043 257.963,-247.043 263.963,-247.043" fill="none" stroke="white" stroke-width="2"/>
<polyline fill="none" points="263.963,-247.043 293.963,-247.043 " stroke="white" stroke-width="2"/>
<path d="M293.963,-247.043C299.963,-247.043 305.963,-253.043 305.963,-259.043" fill="none" stroke="white" stroke-width="2"/>
<polyline fill="none" points="305.963,-259.043 305.963,-271.043 " stroke="white" stroke-width="2"/>
<path d="M305.963,-271.043C305.963,-277.043 299.963,-283.043 293.963,-283.043" fill="none" stroke="white" stroke-width="2"/>
<text font-family="Helvetica,sans-Serif" font-size="10.00" text-anchor="middle" x="278.963" y="-262.543">TBX19</text>
</a>
</g>
<!-- ID4_TCF4_SNAI2&#45;&gt;TBX19 -->
<g class="edge" id="edge6">
<a class="remove12 root" ismara:data="0.045" onmousemove="ShowTooltip(evt, 'TBX19: 0.045')" onmouseout="HideTooltip(evt)">
<path d="M426.733,-435.579C397.201,-401.498 333.297,-327.748 300.039,-289.366" fill="none" stroke="#b5bcff" stroke-width="3"/>
<polygon fill="#b5bcff" points="301.942,-287.286 294.587,-283.074 297.71,-290.954 301.942,-287.286" stroke="#b5bcff"/>
</a>
</g>
<!-- NFIA&#45;&gt;TBX19 -->
<g class="edge" id="edge8">
<a class="remove21 root" ismara:data="0.185" onmousemove="ShowTooltip(evt, 'TBX19: 0.185')" onmouseout="HideTooltip(evt)">
<path d="M311.87,-493.92C305.661,-450.733 289.995,-341.776 282.748,-291.371" fill="none" stroke="#6d7cff" stroke-width="3"/>
<polygon fill="#6d7cff" points="285.489,-290.755 281.578,-283.235 279.946,-291.552 285.489,-290.755" stroke="#6d7cff"/>
</a>
</g>
<!-- TBX19&#45;&gt;TBX19 -->
<g class="edge" id="edge12">
<a class="remove16 root" ismara:data="0.065" onmousemove="ShowTooltip(evt, 'TBX19: 0.065')" onmouseout="HideTooltip(evt)">
<path d="M306.204,-271.786C315.987,-271.931 323.963,-269.683 323.963,-265.043 323.963,-261.78 320.02,-259.7 314.277,-258.803" fill="none" stroke="#ffabab" stroke-width="3"/>
<polygon fill="#ffabab" points="314.362,-256.003 306.204,-258.299 314.014,-261.592 314.362,-256.003" stroke="#ffabab"/>
</a>
</g>
<!-- E2F8 -->
<g class="node" id="node8">
<a class="remove10" onmousemove="ShowTooltip(evt, 'Z-value: 0.543')" onmouseout="HideTooltip(evt)" xlink:href="E2F8.svg">
<polygon fill="#a1abff" points="533.436,-353.359 503.436,-353.359 491.436,-341.359 491.436,-329.359 503.436,-317.359 533.436,-317.359 545.436,-329.359 545.436,-341.359 533.436,-353.359" stroke="#a1abff" stroke-width="2"/>
<path d="M503.436,-353.359C497.436,-353.359 491.436,-347.359 491.436,-341.359" fill="#a1abff" stroke="#a1abff" stroke-width="2"/>
<path d="M491.436,-329.359C491.436,-323.359 497.436,-317.359 503.436,-317.359" fill="#a1abff" stroke="#a1abff" stroke-width="2"/>
<path d="M533.436,-317.359C539.436,-317.359 545.436,-323.359 545.436,-329.359" fill="#a1abff" stroke="#a1abff" stroke-width="2"/>
<path d="M545.436,-341.359C545.436,-347.359 539.436,-353.359 533.436,-353.359" fill="#a1abff" stroke="#a1abff" stroke-width="2"/>
<polyline fill="none" points="533.436,-353.359 503.436,-353.359 " stroke="white" stroke-width="2"/>
<path d="M503.436,-353.359C497.436,-353.359 491.436,-347.359 491.436,-341.359" fill="none" stroke="white" stroke-width="2"/>
<polyline fill="none" points="491.436,-341.359 491.436,-329.359 " stroke="white" stroke-width="2"/>
<path d="M491.436,-329.359C491.436,-323.359 497.436,-317.359 503.436,-317.359" fill="none" stroke="white" stroke-width="2"/>
<polyline fill="none" points="503.436,-317.359 533.436,-317.359 " stroke="white" stroke-width="2"/>
<path d="M533.436,-317.359C539.436,-317.359 545.436,-323.359 545.436,-329.359" fill="none" stroke="white" stroke-width="2"/>
<polyline fill="none" points="545.436,-329.359 545.436,-341.359 " stroke="white" stroke-width="2"/>
<path d="M545.436,-341.359C545.436,-347.359 539.436,-353.359 533.436,-353.359" fill="none" stroke="white" stroke-width="2"/>
<text font-family="Helvetica,sans-Serif" font-size="10.00" text-anchor="middle" x="518.436" y="-332.859">E2F8</text>
</a>
</g>
<!-- TBX19&#45;&gt;E2F8 -->
<g class="edge" id="edge10">
<a class="remove10 root" ismara:data="0.04" onmousemove="ShowTooltip(evt, 'E2F8: 0.040')" onmouseout="HideTooltip(evt)">
<path d="M305.968,-272.972C349.535,-285.765 435.306,-310.949 483.48,-325.095" fill="none" stroke="#ffb7b7" stroke-width="3"/>
<polygon fill="#ffb7b7" points="482.697,-327.783 491.162,-327.35 484.275,-322.41 482.697,-327.783" stroke="#ffb7b7"/>
</a>
</g>
<!-- E2F8&#45;&gt;E2F8 -->
<g class="edge" id="edge66">
<a class="remove2 root" ismara:data="0.025" onmousemove="ShowTooltip(evt, 'E2F8: 0.025')" onmouseout="HideTooltip(evt)">
<path d="M545.677,-342.102C555.46,-342.247 563.436,-339.999 563.436,-335.359 563.436,-332.096 559.493,-330.016 553.751,-329.119" fill="none" stroke="#eabfff" stroke-width="3"/>
<polygon fill="#eabfff" points="553.836,-326.319 545.677,-328.615 553.487,-331.908 553.836,-326.319" stroke="#eabfff"/>
</a>
</g>
<!-- IKZF1 -->
<g class="node" id="node11">
<a class="remove17" onmousemove="ShowTooltip(evt, 'Z-value: 1.300')" onmouseout="HideTooltip(evt)" xlink:href="IKZF1.svg">
<polygon fill="#6676ff" points="190.282,-510.072 160.282,-510.072 148.282,-498.072 148.282,-486.072 160.282,-474.072 190.282,-474.072 202.282,-486.072 202.282,-498.072 190.282,-510.072" stroke="#6676ff" stroke-width="2"/>
<path d="M160.282,-510.072C154.282,-510.072 148.282,-504.072 148.282,-498.072" fill="#6676ff" stroke="#6676ff" stroke-width="2"/>
<path d="M148.282,-486.072C148.282,-480.072 154.282,-474.072 160.282,-474.072" fill="#6676ff" stroke="#6676ff" stroke-width="2"/>
<path d="M190.282,-474.072C196.282,-474.072 202.282,-480.072 202.282,-486.072" fill="#6676ff" stroke="#6676ff" stroke-width="2"/>
<path d="M202.282,-498.072C202.282,-504.072 196.282,-510.072 190.282,-510.072" fill="#6676ff" stroke="#6676ff" stroke-width="2"/>
<polyline fill="none" points="190.282,-510.072 160.282,-510.072 " stroke="white" stroke-width="2"/>
<path d="M160.282,-510.072C154.282,-510.072 148.282,-504.072 148.282,-498.072" fill="none" stroke="white" stroke-width="2"/>
<polyline fill="none" points="148.282,-498.072 148.282,-486.072 " stroke="white" stroke-width="2"/>
<path d="M148.282,-486.072C148.282,-480.072 154.282,-474.072 160.282,-474.072" fill="none" stroke="white" stroke-width="2"/>
<polyline fill="none" points="160.282,-474.072 190.282,-474.072 " stroke="white" stroke-width="2"/>
<path d="M190.282,-474.072C196.282,-474.072 202.282,-480.072 202.282,-486.072" fill="none" stroke="white" stroke-width="2"/>
<polyline fill="none" points="202.282,-486.072 202.282,-498.072 " stroke="white" stroke-width="2"/>
<path d="M202.282,-498.072C202.282,-504.072 196.282,-510.072 190.282,-510.072" fill="none" stroke="white" stroke-width="2"/>
<text fill="white" font-family="Helvetica,sans-Serif" font-size="10.00" text-anchor="middle" x="175.282" y="-489.572">IKZF1</text>
</a>
</g>
<!-- IKZF1&#45;&gt;ID4_TCF4_SNAI2 -->
<g class="edge" id="edge18">
<a class="remove11 root" ismara:data="0.042" onmousemove="ShowTooltip(evt, 'ID4: 0.042|TCF4: 0.015')" onmouseout="HideTooltip(evt)">
<path d="M202.365,-488.178C245.222,-482.016 329.584,-469.886 385.997,-461.775" fill="none" stroke="#e7b6ff" stroke-width="3"/>
<polygon fill="#e7b6ff" points="386.59,-464.519 394.11,-460.609 385.793,-458.976 386.59,-464.519" stroke="#e7b6ff"/>
</a>
</g>
<!-- IKZF1&#45;&gt;TBX19 -->
<g class="edge" id="edge22">
<a class="remove17 root" ismara:data="0.069" onmousemove="ShowTooltip(evt, 'TBX19: 0.069')" onmouseout="HideTooltip(evt)">
<path d="M183.592,-473.877C201.943,-433.692 245.98,-337.264 267.174,-290.856" fill="none" stroke="#a8b1ff" stroke-width="3"/>
<polygon fill="#a8b1ff" points="269.837,-291.765 270.614,-283.324 264.743,-289.438 269.837,-291.765" stroke="#a8b1ff"/>
</a>
</g>
<!-- TLX1_NFIC -->
<g class="node" id="node12">
<a class="remove13" onmousemove="ShowTooltip(evt, 'Z-value: 0.858')" onmouseout="HideTooltip(evt)" xlink:href="TLX1_NFIC.svg">
<polygon fill="#8994ff" points="91.25,-417.978 46.75,-417.978 34.75,-405.978 34.75,-393.978 46.75,-381.978 91.25,-381.978 103.25,-393.978 103.25,-405.978 91.25,-417.978" stroke="#8994ff" stroke-width="2"/>
<path d="M46.75,-417.978C40.75,-417.978 34.75,-411.978 34.75,-405.978" fill="#8994ff" stroke="#8994ff" stroke-width="2"/>
<path d="M34.75,-393.978C34.75,-387.978 40.75,-381.978 46.75,-381.978" fill="#8994ff" stroke="#8994ff" stroke-width="2"/>
<path d="M91.25,-381.978C97.25,-381.978 103.25,-387.978 103.25,-393.978" fill="#8994ff" stroke="#8994ff" stroke-width="2"/>
<path d="M103.25,-405.978C103.25,-411.978 97.25,-417.978 91.25,-417.978" fill="#8994ff" stroke="#8994ff" stroke-width="2"/>
<polyline fill="none" points="91.25,-417.978 46.75,-417.978 " stroke="white" stroke-width="2"/>
<path d="M46.75,-417.978C40.75,-417.978 34.75,-411.978 34.75,-405.978" fill="none" stroke="white" stroke-width="2"/>
<polyline fill="none" points="34.75,-405.978 34.75,-393.978 " stroke="white" stroke-width="2"/>
<path d="M34.75,-393.978C34.75,-387.978 40.75,-381.978 46.75,-381.978" fill="none" stroke="white" stroke-width="2"/>
<polyline fill="none" points="46.75,-381.978 91.25,-381.978 " stroke="white" stroke-width="2"/>
<path d="M91.25,-381.978C97.25,-381.978 103.25,-387.978 103.25,-393.978" fill="none" stroke="white" stroke-width="2"/>
<polyline fill="none" points="103.25,-393.978 103.25,-405.978 " stroke="white" stroke-width="2"/>
<path d="M103.25,-405.978C103.25,-411.978 97.25,-417.978 91.25,-417.978" fill="none" stroke="white" stroke-width="2"/>
<text font-family="Helvetica,sans-Serif" font-size="10.00" text-anchor="middle" x="69" y="-397.478">TLX1_NFIC</text>
</a>
</g>
<!-- IKZF1&#45;&gt;TLX1_NFIC -->
<g class="edge" id="edge14">
<a class="remove7 root" ismara:data="0.036" onmousemove="ShowTooltip(evt, 'TLX1: 0.036|IKZF1: 0.011')" onmouseout="HideTooltip(evt)">
<path d="M147.235,-469.091C131.291,-455.276 111.27,-437.928 95.3866,-424.165" fill="none" stroke="#e8b9ff" stroke-width="3"/>
<path d="M148.544,-467.58C132.601,-453.765 112.579,-436.416 96.6963,-422.653" fill="none" stroke="#ecc6ff" stroke-width="3"/>
<polygon fill="#ecc6ff" points="146.405,-470.754 154.284,-473.877 150.072,-466.522 146.405,-470.754" stroke="#ecc6ff"/>
<polygon fill="#e8b9ff" points="97.834,-421.258 89.9543,-418.135 94.1667,-425.49 97.834,-421.258" stroke="#e8b9ff"/>
</a>
</g>
<!-- MAFK -->
<g class="node" id="node14">
<a class="remove20" onmousemove="ShowTooltip(evt, 'Z-value: 0.822')" onmouseout="HideTooltip(evt)" xlink:href="MAFK.svg">
<polygon fill="#8c97ff" points="44.3795,-283.043 14.3795,-283.043 2.37955,-271.043 2.37955,-259.043 14.3795,-247.043 44.3795,-247.043 56.3795,-259.043 56.3795,-271.043 44.3795,-283.043" stroke="#8c97ff" stroke-width="2"/>
<path d="M14.3795,-283.043C8.37955,-283.043 2.37955,-277.043 2.37955,-271.043" fill="#8c97ff" stroke="#8c97ff" stroke-width="2"/>
<path d="M2.37955,-259.043C2.37955,-253.043 8.37955,-247.043 14.3795,-247.043" fill="#8c97ff" stroke="#8c97ff" stroke-width="2"/>
<path d="M44.3795,-247.043C50.3795,-247.043 56.3795,-253.043 56.3795,-259.043" fill="#8c97ff" stroke="#8c97ff" stroke-width="2"/>
<path d="M56.3795,-271.043C56.3795,-277.043 50.3795,-283.043 44.3795,-283.043" fill="#8c97ff" stroke="#8c97ff" stroke-width="2"/>
<polyline fill="none" points="44.3795,-283.043 14.3795,-283.043 " stroke="white" stroke-width="2"/>
<path d="M14.3795,-283.043C8.37955,-283.043 2.37955,-277.043 2.37955,-271.043" fill="none" stroke="white" stroke-width="2"/>
<polyline fill="none" points="2.37955,-271.043 2.37955,-259.043 " stroke="white" stroke-width="2"/>
<path d="M2.37955,-259.043C2.37955,-253.043 8.37955,-247.043 14.3795,-247.043" fill="none" stroke="white" stroke-width="2"/>
<polyline fill="none" points="14.3795,-247.043 44.3795,-247.043 " stroke="white" stroke-width="2"/>
<path d="M44.3795,-247.043C50.3795,-247.043 56.3795,-253.043 56.3795,-259.043" fill="none" stroke="white" stroke-width="2"/>
<polyline fill="none" points="56.3795,-259.043 56.3795,-271.043 " stroke="white" stroke-width="2"/>
<path d="M56.3795,-271.043C56.3795,-277.043 50.3795,-283.043 44.3795,-283.043" fill="none" stroke="white" stroke-width="2"/>
<text font-family="Helvetica,sans-Serif" font-size="10.00" text-anchor="middle" x="29.3795" y="-262.543">MAFK</text>
</a>
</g>
<!-- IKZF1&#45;&gt;MAFK -->
<g class="edge" id="edge16">
<a class="remove17" ismara:data="0.071" onmousemove="ShowTooltip(evt, 'MAFK: 0.071')" onmouseout="HideTooltip(evt)">
<path d="M165.158,-473.805C152.519,-451.243 130.002,-411.833 109.02,-379.098 88.9416,-347.773 64.1863,-312.844 47.6552,-289.993" fill="none" stroke="#e3a7ff" stroke-width="3"/>
<polygon fill="#e3a7ff" points="49.7679,-288.137 42.8031,-283.307 45.2355,-291.426 49.7679,-288.137" stroke="#e3a7ff"/>
</a>
</g>
<!-- OLIG2_NEUROD1_ATOH1 -->
<g class="node" id="node17">
<a class="remove14" onmousemove="ShowTooltip(evt, 'Z-value: 0.564')" onmouseout="HideTooltip(evt)" xlink:href="OLIG2_NEUROD1_ATOH1.svg">
<polygon fill="#a0a9ff" points="126,-148.108 12,-148.108 1.42109e-14,-136.108 1.42109e-14,-124.108 12,-112.108 126,-112.108 138,-124.108 138,-136.108 126,-148.108" stroke="#a0a9ff" stroke-width="2"/>
<path d="M12,-148.108C6,-148.108 1.42109e-14,-142.108 1.42109e-14,-136.108" fill="#a0a9ff" stroke="#a0a9ff" stroke-width="2"/>
<path d="M1.42109e-14,-124.108C1.42109e-14,-118.108 6,-112.108 12,-112.108" fill="#a0a9ff" stroke="#a0a9ff" stroke-width="2"/>
<path d="M126,-112.108C132,-112.108 138,-118.108 138,-124.108" fill="#a0a9ff" stroke="#a0a9ff" stroke-width="2"/>
<path d="M138,-136.108C138,-142.108 132,-148.108 126,-148.108" fill="#a0a9ff" stroke="#a0a9ff" stroke-width="2"/>
<polyline fill="none" points="126,-148.108 12,-148.108 " stroke="white" stroke-width="2"/>
<path d="M12,-148.108C6,-148.108 1.42109e-14,-142.108 1.42109e-14,-136.108" fill="none" stroke="white" stroke-width="2"/>
<polyline fill="none" points="1.42109e-14,-136.108 1.42109e-14,-124.108 " stroke="white" stroke-width="2"/>
<path d="M1.42109e-14,-124.108C1.42109e-14,-118.108 6,-112.108 12,-112.108" fill="none" stroke="white" stroke-width="2"/>
<polyline fill="none" points="12,-112.108 126,-112.108 " stroke="white" stroke-width="2"/>
<path d="M126,-112.108C132,-112.108 138,-118.108 138,-124.108" fill="none" stroke="white" stroke-width="2"/>
<polyline fill="none" points="138,-124.108 138,-136.108 " stroke="white" stroke-width="2"/>
<path d="M138,-136.108C138,-142.108 132,-148.108 126,-148.108" fill="none" stroke="white" stroke-width="2"/>
<text font-family="Helvetica,sans-Serif" font-size="10.00" text-anchor="middle" x="69" y="-127.608">OLIG2_NEUROD1_ATOH1</text>
</a>
</g>
<!-- IKZF1&#45;&gt;OLIG2_NEUROD1_ATOH1 -->
<g class="edge" id="edge20">
<a class="remove8 root" ismara:data="0.037" onmousemove="ShowTooltip(evt, 'OLIG2: 0.037')" onmouseout="HideTooltip(evt)">
<path d="M169.865,-473.624C152.346,-413.958 97.1694,-226.044 76.7223,-156.408" fill="none" stroke="#e8b9ff" stroke-width="3"/>
<polygon fill="#e8b9ff" points="79.3463,-155.405 74.4058,-148.518 73.9731,-156.983 79.3463,-155.405" stroke="#e8b9ff"/>
</a>
</g>
<!-- TLX1_NFIC&#45;&gt;ID4_TCF4_SNAI2 -->
<g class="edge" id="edge24">
<a class="remove12" ismara:data="0.116" onmousemove="ShowTooltip(evt, 'TCF4: 0.116')" onmouseout="HideTooltip(evt)">
<path d="M103.46,-404.932C167.913,-414.199 307.267,-434.235 385.738,-445.518" fill="none" stroke="#db90ff" stroke-width="3"/>
<polygon fill="#db90ff" points="385.75,-448.348 394.067,-446.715 386.547,-442.805 385.75,-448.348" stroke="#db90ff"/>
</a>
</g>
<!-- TLX1_NFIC&#45;&gt;NFIA -->
<g class="edge" id="edge26">
<a class="remove13" ismara:data="0.117" onmousemove="ShowTooltip(evt, 'NFIA: 0.117')" onmouseout="HideTooltip(evt)">
<path d="M103.392,-415.684C150.015,-436.976 232.818,-474.791 279.661,-496.184" fill="none" stroke="#db90ff" stroke-width="3"/>
<polygon fill="#db90ff" points="278.698,-498.822 287.138,-499.598 281.024,-493.728 278.698,-498.822" stroke="#db90ff"/>
</a>
</g>
<!-- TLX1_NFIC&#45;&gt;TBX19 -->
<g class="edge" id="edge28">
<a class="remove13 root" ismara:data="0.053" onmousemove="ShowTooltip(evt, 'TBX19: 0.053')" onmouseout="HideTooltip(evt)">
<path d="M97.3165,-381.78C135.621,-357.163 203.866,-313.304 244.919,-286.922" fill="none" stroke="#b0b8ff" stroke-width="3"/>
<polygon fill="#b0b8ff" points="246.543,-289.206 251.759,-282.525 243.515,-284.495 246.543,-289.206" stroke="#b0b8ff"/>
</a>
</g>
<!-- MAFK&#45;&gt;ID4_TCF4_SNAI2 -->
<g class="edge" id="edge30">
<a class="remove12" ismara:data="0.068" onmousemove="ShowTooltip(evt, 'SNAI2: 0.068|TCF4: 0.065')" onmouseout="HideTooltip(evt)">
<path d="M56.4793,-277.419C125.536,-308.956 308.767,-392.635 395.558,-432.271" fill="none" stroke="#e3a9ff" stroke-width="3"/>
<polygon fill="#e3a9ff" points="394.456,-434.846 402.896,-435.622 396.782,-429.752 394.456,-434.846" stroke="#e3a9ff"/>
</a>
</g>
<!-- MAFK&#45;&gt;TBX19 -->
<g class="edge" id="edge32">
<a class="remove20 root" ismara:data="0.078" onmousemove="ShowTooltip(evt, 'TBX19: 0.078')" onmouseout="HideTooltip(evt)">
<path d="M56.5644,-265.043C102.042,-265.043 193.5,-265.043 243.807,-265.043" fill="none" stroke="#a4adff" stroke-width="3"/>
<polygon fill="#a4adff" points="243.811,-267.843 251.811,-265.043 243.811,-262.243 243.811,-267.843" stroke="#a4adff"/>
</a>
</g>
<!-- OLIG2_NEUROD1_ATOH1&#45;&gt;ID4_TCF4_SNAI2 -->
<g class="edge" id="edge34">
<a class="remove12" ismara:data="0.045" onmousemove="ShowTooltip(evt, 'SNAI2: 0.045|TCF4: 0.025')" onmouseout="HideTooltip(evt)">
<path d="M89.5944,-148.144C122.803,-177.211 190.266,-236.192 247.643,-285.923 307.254,-337.589 377.406,-397.885 415.118,-430.257" fill="none" stroke="#e7b4ff" stroke-width="3"/>
<polygon fill="#e7b4ff" points="413.434,-432.502 421.329,-435.588 417.082,-428.253 413.434,-432.502" stroke="#e7b4ff"/>
</a>
</g>
<!-- OLIG2_NEUROD1_ATOH1&#45;&gt;TBX19 -->
<g class="edge" id="edge36">
<a class="remove14 root" ismara:data="0.053" onmousemove="ShowTooltip(evt, 'TBX19: 0.053')" onmouseout="HideTooltip(evt)">
<path d="M97.3165,-148.306C135.621,-172.923 203.866,-216.781 244.919,-243.164" fill="none" stroke="#b0b8ff" stroke-width="3"/>
<polygon fill="#b0b8ff" points="243.515,-245.591 251.759,-247.56 246.543,-240.879 243.515,-245.591" stroke="#b0b8ff"/>
</a>
</g>
<!-- WRNIP1 -->
<g class="node" id="node27">
<a class="remove19" onmousemove="ShowTooltip(evt, 'Z-value: 1.103')" onmouseout="HideTooltip(evt)" xlink:href="WRNIP1.svg">
<polygon fill="#7683ff" points="190.782,-56.0139 159.782,-56.0139 147.782,-44.0139 147.782,-32.0139 159.782,-20.0139 190.782,-20.0139 202.782,-32.0139 202.782,-44.0139 190.782,-56.0139" stroke="#7683ff" stroke-width="2"/>
<path d="M159.782,-56.0139C153.782,-56.0139 147.782,-50.0139 147.782,-44.0139" fill="#7683ff" stroke="#7683ff" stroke-width="2"/>
<path d="M147.782,-32.0139C147.782,-26.0139 153.782,-20.0139 159.782,-20.0139" fill="#7683ff" stroke="#7683ff" stroke-width="2"/>
<path d="M190.782,-20.0139C196.782,-20.0139 202.782,-26.0139 202.782,-32.0139" fill="#7683ff" stroke="#7683ff" stroke-width="2"/>
<path d="M202.782,-44.0139C202.782,-50.0139 196.782,-56.0139 190.782,-56.0139" fill="#7683ff" stroke="#7683ff" stroke-width="2"/>
<polyline fill="none" points="190.782,-56.0139 159.782,-56.0139 " stroke="white" stroke-width="2"/>
<path d="M159.782,-56.0139C153.782,-56.0139 147.782,-50.0139 147.782,-44.0139" fill="none" stroke="white" stroke-width="2"/>
<polyline fill="none" points="147.782,-44.0139 147.782,-32.0139 " stroke="white" stroke-width="2"/>
<path d="M147.782,-32.0139C147.782,-26.0139 153.782,-20.0139 159.782,-20.0139" fill="none" stroke="white" stroke-width="2"/>
<polyline fill="none" points="159.782,-20.0139 190.782,-20.0139 " stroke="white" stroke-width="2"/>
<path d="M190.782,-20.0139C196.782,-20.0139 202.782,-26.0139 202.782,-32.0139" fill="none" stroke="white" stroke-width="2"/>
<polyline fill="none" points="202.782,-32.0139 202.782,-44.0139 " stroke="white" stroke-width="2"/>
<path d="M202.782,-44.0139C202.782,-50.0139 196.782,-56.0139 190.782,-56.0139" fill="none" stroke="white" stroke-width="2"/>
<text font-family="Helvetica,sans-Serif" font-size="10.00" text-anchor="middle" x="175.282" y="-35.5139">WRNIP1</text>
</a>
</g>
<!-- WRNIP1&#45;&gt;ID4_TCF4_SNAI2 -->
<g class="edge" id="edge44">
<a class="remove12" ismara:data="0.069" onmousemove="ShowTooltip(evt, 'ID4: 0.069|SNAI2: 0.057|TCF4: 0.048')" onmouseout="HideTooltip(evt)">
<path d="M187.306,-56.1462C211.02,-91.957 265.411,-174.344 310.283,-244.163 352.961,-310.569 402.371,-389.466 426.911,-428.793" fill="none" stroke="#e3a9ff" stroke-width="3"/>
<polygon fill="#e3a9ff" points="424.587,-430.358 431.197,-435.664 429.339,-427.394 424.587,-430.358" stroke="#e3a9ff"/>
</a>
</g>
<!-- WRNIP1&#45;&gt;NFIA -->
<g class="edge" id="edge46">
<a class="remove3 root" ismara:data="0.027" onmousemove="ShowTooltip(evt, 'NFIA: 0.027')" onmouseout="HideTooltip(evt)">
<path d="M180.527,-56.0614C192.422,-96.97 222.373,-199.886 247.643,-285.923 268.952,-358.475 294.303,-444.055 306.773,-486.103" fill="none" stroke="#eabeff" stroke-width="3"/>
<polygon fill="#eabeff" points="304.13,-487.043 309.09,-493.916 309.499,-485.45 304.13,-487.043" stroke="#eabeff"/>
</a>
</g>
<!-- WRNIP1&#45;&gt;TBX19 -->
<g class="edge" id="edge50">
<a class="remove19 root" ismara:data="0.075" onmousemove="ShowTooltip(evt, 'TBX19: 0.075')" onmouseout="HideTooltip(evt)">
<path d="M183.592,-56.2089C201.943,-96.3934 245.98,-192.821 267.174,-239.23" fill="none" stroke="#a5aeff" stroke-width="3"/>
<polygon fill="#a5aeff" points="264.743,-240.647 270.614,-246.761 269.837,-238.321 264.743,-240.647" stroke="#a5aeff"/>
</a>
</g>
<!-- WRNIP1&#45;&gt;TLX1_NFIC -->
<g class="edge" id="edge42">
<a class="remove13" ismara:data="0.095" onmousemove="ShowTooltip(evt, 'TLX1: 0.095|NFIC: 0.003')" onmouseout="HideTooltip(evt)">
<path d="M171.558,-56.1311C166.839,-78.542 158.212,-117.8 149.04,-150.988 126.324,-233.184 93.8594,-328.788 78.1762,-373.887" fill="none" stroke="#df9bff" stroke-width="3"/>
<polygon fill="#df9bff" points="75.4401,-373.229 75.4492,-381.705 80.7277,-375.074 75.4401,-373.229" stroke="#df9bff"/>
</a>
</g>
<!-- WRNIP1&#45;&gt;OLIG2_NEUROD1_ATOH1 -->
<g class="edge" id="edge48">
<a class="remove14" ismara:data="0.218" onmousemove="ShowTooltip(evt, 'OLIG2: 0.218')" onmouseout="HideTooltip(evt)">
<path d="M154.284,-56.2088C137.689,-70.5882 114.396,-90.772 96.3453,-106.413" fill="none" stroke="#cb5cff" stroke-width="3"/>
<polygon fill="#cb5cff" points="94.1667,-104.596 89.9543,-111.951 97.834,-108.828 94.1667,-104.596" stroke="#cb5cff"/>
</a>
</g>
<!-- WRNIP1&#45;&gt;WRNIP1 -->
<g class="edge" id="edge52">
<a class="remove0 root" ismara:data="0.003" onmousemove="ShowTooltip(evt, 'WRNIP1: 0.003')" onmouseout="HideTooltip(evt)">
<path d="M202.966,-44.7623C212.546,-44.8337 220.282,-42.5843 220.282,-38.0139 220.282,-34.8718 216.626,-32.8267 211.227,-31.8786" fill="none" stroke="#eecaff" stroke-width="3"/>
<polygon fill="#eecaff" points="211.152,-29.0654 202.966,-31.2656 210.737,-34.65 211.152,-29.0654" stroke="#eecaff"/>
</a>
</g>
<!-- NOTO_VSX2_DLX2_DLX6_NKX6&#45;1 -->
<g class="node" id="node28">
<a class="remove9" onmousemove="ShowTooltip(evt, 'Z-value: 0.431')" onmouseout="HideTooltip(evt)" xlink:href="NOTO_VSX2_DLX2_DLX6_NKX6-1.svg">
<polygon fill="#aab2ff" points="389.982,-36 238.982,-36 226.982,-24 226.982,-12 238.982,3.19744e-14 389.982,3.19744e-14 401.982,-12 401.982,-24 389.982,-36" stroke="#aab2ff" stroke-width="2"/>
<path d="M238.982,-36C232.982,-36 226.982,-30 226.982,-24" fill="#aab2ff" stroke="#aab2ff" stroke-width="2"/>
<path d="M226.982,-12C226.982,-6 232.982,3.19744e-14 238.982,3.19744e-14" fill="#aab2ff" stroke="#aab2ff" stroke-width="2"/>
<path d="M389.982,3.19744e-14C395.982,3.19744e-14 401.982,-6 401.982,-12" fill="#aab2ff" stroke="#aab2ff" stroke-width="2"/>
<path d="M401.982,-24C401.982,-30 395.982,-36 389.982,-36" fill="#aab2ff" stroke="#aab2ff" stroke-width="2"/>
<polyline fill="none" points="389.982,-36 238.982,-36 " stroke="white" stroke-width="2"/>
<path d="M238.982,-36C232.982,-36 226.982,-30 226.982,-24" fill="none" stroke="white" stroke-width="2"/>
<polyline fill="none" points="226.982,-24 226.982,-12 " stroke="white" stroke-width="2"/>
<path d="M226.982,-12C226.982,-6 232.982,3.19744e-14 238.982,3.19744e-14" fill="none" stroke="white" stroke-width="2"/>
<polyline fill="none" points="238.982,3.19744e-14 389.982,3.19744e-14 " stroke="white" stroke-width="2"/>
<path d="M389.982,3.19744e-14C395.982,3.19744e-14 401.982,-6 401.982,-12" fill="none" stroke="white" stroke-width="2"/>
<polyline fill="none" points="401.982,-12 401.982,-24 " stroke="white" stroke-width="2"/>
<path d="M401.982,-24C401.982,-30 395.982,-36 389.982,-36" fill="none" stroke="white" stroke-width="2"/>
<text font-family="Helvetica,sans-Serif" font-size="10.00" text-anchor="middle" x="314.482" y="-15.5">NOTO_VSX2_DLX2_DLX6_NKX6-1</text>
</a>
</g>
<!-- WRNIP1&#45;&gt;NOTO_VSX2_DLX2_DLX6_NKX6&#45;1 -->
<g class="edge" id="edge38">
<a class="remove9" ismara:data="0.155" onmousemove="ShowTooltip(evt, 'NKX6-1: 0.155')" onmouseout="HideTooltip(evt)">
<path d="M202.784,-34.0598C207.575,-33.371 212.792,-32.6208 218.268,-31.8335" fill="none" stroke="#d57dff" stroke-width="3"/>
<polygon fill="#d57dff" points="218.937,-34.5662 226.457,-30.6561 218.14,-29.0232 218.937,-34.5662" stroke="#d57dff"/>
</a>
</g>
<!-- LHX3 -->
<g class="node" id="node30">
<a class="remove15" onmousemove="ShowTooltip(evt, 'Z-value: 0.342')" onmouseout="HideTooltip(evt)" xlink:href="LHX3.svg">
<polygon fill="#b1b9ff" points="457.405,-94.4204 427.405,-94.4204 415.405,-82.4204 415.405,-70.4204 427.405,-58.4204 457.405,-58.4204 469.405,-70.4204 469.405,-82.4204 457.405,-94.4204" stroke="#b1b9ff" stroke-width="2"/>
<path d="M427.405,-94.4204C421.405,-94.4204 415.405,-88.4204 415.405,-82.4204" fill="#b1b9ff" stroke="#b1b9ff" stroke-width="2"/>
<path d="M415.405,-70.4204C415.405,-64.4204 421.405,-58.4204 427.405,-58.4204" fill="#b1b9ff" stroke="#b1b9ff" stroke-width="2"/>
<path d="M457.405,-58.4204C463.405,-58.4204 469.405,-64.4204 469.405,-70.4204" fill="#b1b9ff" stroke="#b1b9ff" stroke-width="2"/>
<path d="M469.405,-82.4204C469.405,-88.4204 463.405,-94.4204 457.405,-94.4204" fill="#b1b9ff" stroke="#b1b9ff" stroke-width="2"/>
<polyline fill="none" points="457.405,-94.4204 427.405,-94.4204 " stroke="white" stroke-width="2"/>
<path d="M427.405,-94.4204C421.405,-94.4204 415.405,-88.4204 415.405,-82.4204" fill="none" stroke="white" stroke-width="2"/>
<polyline fill="none" points="415.405,-82.4204 415.405,-70.4204 " stroke="white" stroke-width="2"/>
<path d="M415.405,-70.4204C415.405,-64.4204 421.405,-58.4204 427.405,-58.4204" fill="none" stroke="white" stroke-width="2"/>
<polyline fill="none" points="427.405,-58.4204 457.405,-58.4204 " stroke="white" stroke-width="2"/>
<path d="M457.405,-58.4204C463.405,-58.4204 469.405,-64.4204 469.405,-70.4204" fill="none" stroke="white" stroke-width="2"/>
<polyline fill="none" points="469.405,-70.4204 469.405,-82.4204 " stroke="white" stroke-width="2"/>
<path d="M469.405,-82.4204C469.405,-88.4204 463.405,-94.4204 457.405,-94.4204" fill="none" stroke="white" stroke-width="2"/>
<text font-family="Helvetica,sans-Serif" font-size="10.00" text-anchor="middle" x="442.405" y="-73.9204">LHX3</text>
</a>
</g>
<!-- WRNIP1&#45;&gt;LHX3 -->
<g class="edge" id="edge40">
<a class="remove15" ismara:data="0.079" onmousemove="ShowTooltip(evt, 'LHX3: 0.079')" onmouseout="HideTooltip(evt)">
<path d="M202.863,-41.9794C251.704,-49.0017 353.314,-63.6111 407.156,-71.3524" fill="none" stroke="#e1a3ff" stroke-width="3"/>
<polygon fill="#e1a3ff" points="407.055,-74.1666 415.372,-72.5337 407.852,-68.6236 407.055,-74.1666" stroke="#e1a3ff"/>
</a>
</g>
<!-- NOTO_VSX2_DLX2_DLX6_NKX6&#45;1&#45;&gt;ID4_TCF4_SNAI2 -->
<g class="edge" id="edge54">
<a class="remove9" ismara:data="0.077" onmousemove="ShowTooltip(evt, 'SNAI2: 0.077|TCF4: 0.016')" onmouseout="HideTooltip(evt)">
<path d="M319.816,-36.1653C339.89,-104.532 410.956,-346.56 434.652,-427.26" fill="none" stroke="#e2a4ff" stroke-width="3"/>
<polygon fill="#e2a4ff" points="432.108,-428.535 437.048,-435.422 437.481,-426.958 432.108,-428.535" stroke="#e2a4ff"/>
</a>
</g>
<!-- NOTO_VSX2_DLX2_DLX6_NKX6&#45;1&#45;&gt;NFIA -->
<g class="edge" id="edge56">
<a class="remove4 root" ismara:data="0.028" onmousemove="ShowTooltip(evt, 'NFIA: 0.028')" onmouseout="HideTooltip(evt)">
<path d="M314.482,-36.1707C314.482,-111.233 314.482,-397.347 314.482,-485.843" fill="none" stroke="#eabdff" stroke-width="3"/>
<polygon fill="#eabdff" points="311.682,-486.011 314.482,-494.011 317.282,-486.011 311.682,-486.011" stroke="#eabdff"/>
</a>
</g>
<!-- NOTO_VSX2_DLX2_DLX6_NKX6&#45;1&#45;&gt;TBX19 -->
<g class="edge" id="edge60">
<a class="remove9 root" ismara:data="0.038" onmousemove="ShowTooltip(evt, 'TBX19: 0.038')" onmouseout="HideTooltip(evt)">
<path d="M311.87,-36.1656C305.661,-79.353 289.995,-188.31 282.748,-238.715" fill="none" stroke="#b8bfff" stroke-width="3"/>
<polygon fill="#b8bfff" points="279.946,-238.533 281.578,-246.851 285.489,-239.33 279.946,-238.533" stroke="#b8bfff"/>
</a>
</g>
<!-- NOTO_VSX2_DLX2_DLX6_NKX6&#45;1&#45;&gt;OLIG2_NEUROD1_ATOH1 -->
<g class="edge" id="edge58">
<a class="remove9" ismara:data="0.063" onmousemove="ShowTooltip(evt, 'NEUROD1: 0.063|ATOH1: 0.018')" onmouseout="HideTooltip(evt)">
<path d="M275.041,-36.0121C231.776,-55.7708 162.364,-87.4698 116.23,-108.539" fill="none" stroke="#e4abff" stroke-width="3"/>
<polygon fill="#e4abff" points="114.864,-106.084 108.75,-111.955 117.19,-111.178 114.864,-106.084" stroke="#e4abff"/>
</a>
</g>
<!-- LHX3&#45;&gt;ID4_TCF4_SNAI2 -->
<g class="edge" id="edge62">
<a class="remove5 root" ismara:data="0.031" onmousemove="ShowTooltip(evt, 'TCF4: 0.031')" onmouseout="HideTooltip(evt)">
<path d="M442.405,-94.6157C442.405,-155.997 442.405,-355.606 442.405,-427.532" fill="none" stroke="#e9bcff" stroke-width="3"/>
<polygon fill="#e9bcff" points="439.605,-427.652 442.405,-435.652 445.205,-427.653 439.605,-427.652" stroke="#e9bcff"/>
</a>
</g>
<!-- LHX3&#45;&gt;TBX19 -->
<g class="edge" id="edge64">
<a class="remove15 root" ismara:data="0.058" onmousemove="ShowTooltip(evt, 'TBX19: 0.058')" onmouseout="HideTooltip(evt)">
<path d="M426.733,-94.5063C397.201,-128.588 333.297,-202.337 300.039,-240.72" fill="none" stroke="#aeb6ff" stroke-width="3"/>
<polygon fill="#aeb6ff" points="297.71,-239.132 294.587,-247.012 301.942,-242.799 297.71,-239.132" stroke="#aeb6ff"/>
</a>
</g>
<!-- SHOX -->
<g class="node" id="node45">
<a class="remove18" onmousemove="ShowTooltip(evt, 'Z-value: 0.339')" onmouseout="HideTooltip(evt)" xlink:href="SHOX.svg">
<polygon fill="#b1b9ff" points="533.436,-212.727 503.436,-212.727 491.436,-200.727 491.436,-188.727 503.436,-176.727 533.436,-176.727 545.436,-188.727 545.436,-200.727 533.436,-212.727" stroke="#b1b9ff" stroke-width="2"/>
<path d="M503.436,-212.727C497.436,-212.727 491.436,-206.727 491.436,-200.727" fill="#b1b9ff" stroke="#b1b9ff" stroke-width="2"/>
<path d="M491.436,-188.727C491.436,-182.727 497.436,-176.727 503.436,-176.727" fill="#b1b9ff" stroke="#b1b9ff" stroke-width="2"/>
<path d="M533.436,-176.727C539.436,-176.727 545.436,-182.727 545.436,-188.727" fill="#b1b9ff" stroke="#b1b9ff" stroke-width="2"/>
<path d="M545.436,-200.727C545.436,-206.727 539.436,-212.727 533.436,-212.727" fill="#b1b9ff" stroke="#b1b9ff" stroke-width="2"/>
<polyline fill="none" points="533.436,-212.727 503.436,-212.727 " stroke="white" stroke-width="2"/>
<path d="M503.436,-212.727C497.436,-212.727 491.436,-206.727 491.436,-200.727" fill="none" stroke="white" stroke-width="2"/>
<polyline fill="none" points="491.436,-200.727 491.436,-188.727 " stroke="white" stroke-width="2"/>
<path d="M491.436,-188.727C491.436,-182.727 497.436,-176.727 503.436,-176.727" fill="none" stroke="white" stroke-width="2"/>
<polyline fill="none" points="503.436,-176.727 533.436,-176.727 " stroke="white" stroke-width="2"/>
<path d="M533.436,-176.727C539.436,-176.727 545.436,-182.727 545.436,-188.727" fill="none" stroke="white" stroke-width="2"/>
<polyline fill="none" points="545.436,-188.727 545.436,-200.727 " stroke="white" stroke-width="2"/>
<path d="M545.436,-200.727C545.436,-206.727 539.436,-212.727 533.436,-212.727" fill="none" stroke="white" stroke-width="2"/>
<text font-family="Helvetica,sans-Serif" font-size="10.00" text-anchor="middle" x="518.436" y="-192.227">SHOX</text>
</a>
</g>
<!-- SHOX&#45;&gt;ID4_TCF4_SNAI2 -->
<g class="edge" id="edge68">
<a class="remove6 root" ismara:data="0.036" onmousemove="ShowTooltip(evt, 'TCF4: 0.036')" onmouseout="HideTooltip(evt)">
<path d="M513.09,-212.935C499.839,-258.064 465.44,-375.216 450.047,-427.64" fill="none" stroke="#e8b9ff" stroke-width="3"/>
<polygon fill="#e8b9ff" points="447.313,-427.012 447.745,-435.477 452.686,-428.59 447.313,-427.012" stroke="#e8b9ff"/>
</a>
</g>
<!-- SHOX&#45;&gt;NFIA -->
<g class="edge" id="edge70">
<a class="remove1 root" ismara:data="0.007" onmousemove="ShowTooltip(evt, 'NFIA: 0.007')" onmouseout="HideTooltip(evt)">
<path d="M506.589,-213.161C471.868,-267.188 370.31,-425.216 330.631,-486.957" fill="none" stroke="#edc8ff" stroke-width="3"/>
<polygon fill="#edc8ff" points="328.077,-485.752 326.108,-493.996 332.788,-488.78 328.077,-485.752" stroke="#edc8ff"/>
</a>
</g>
<!-- SHOX&#45;&gt;TBX19 -->
<g class="edge" id="edge72">
<a class="remove18 root" ismara:data="0.07" onmousemove="ShowTooltip(evt, 'TBX19: 0.070')" onmouseout="HideTooltip(evt)">
<path d="M491.431,-202.657C447.864,-215.449 362.092,-240.634 313.919,-254.779" fill="none" stroke="#a8b0ff" stroke-width="3"/>
<polygon fill="#a8b0ff" points="313.124,-252.094 306.237,-257.034 314.701,-257.467 313.124,-252.094" stroke="#a8b0ff"/>
</a>
</g>
</g>
<rect height="14" id="tooltip_bg" style="fill: white; stroke: black; opacity: 0.8;" visibility="hidden"/><text id="tooltip" style="font-size: 10px;font-weight: bold;" visibility="hidden"></text><g id="plus" onclick="showSome();moveSlider();setThreshold();"><circle cx="22" cy="22" r="10" style="fill: #dddddd; opacity: 100%;"/><line stroke="#888888" stroke-width="2" x1="16" x2="28" y1="22" y2="22"/><line stroke="#888888" stroke-width="2" x1="22" x2="22" y1="16" y2="28"/></g><g id="minus" onclick="hideSome();moveSlider();setThreshold();"><circle cx="22" cy="516" r="10" style="fill: #dddddd; opacity: 100%;"/><line stroke="#888888" stroke-width="2" x1="16" x2="28" y1="516" y2="516"/></g><line id="slider_scale" onmousedown="jump_slider(evt)" stroke="#888888" stroke-width="5" x1="22" x2="22" y1="40" y2="498"/><circle cx="22" cy="50" id="slider" onmousedown="grab(evt)" onmouseout="release(evt)" onmouseup="release(evt)" r="15" style="fill:#922"/><script type="text/ecmascript"><![CDATA[
    var svgNS = "http://www.w3.org/2000/svg";
    var edge_num = 22;
    var counter = 0;
    var tooltip, tooltip_bg;

    function init(evt) {
        if ( window.svgDocument == null ) {
            svgDocument = evt.target.ownerDocument;
        }
        tooltip = svgDocument.getElementById('tooltip');
        tooltip_bg = svgDocument.getElementById('tooltip_bg');
        setThreshold();
    }

    function ShowTooltip(evt, txt) {
        var length = 0;
        var height;
        var tooltip_x = evt.pageX + 18;
        var tooltip_y = evt.pageY + 22;
        var bg_x = evt.pageX + 10;
        var bg_y = evt.pageY + 10;

        /* Clean toolip content */
        while (tooltip.lastChild) {
            tooltip.removeChild(tooltip.lastChild)
        }

        /* Populate tooltip with tspan elements and get longest of them */
        var text_elements = txt.split('|');
        for (var i = 0; i  < text_elements.length; i++) {
            var shift_y = 12;
            if (i == 0) {
                shift_y = 0;
            }
            var tspan_element = document.createElementNS(svgNS, "tspan");
            tspan_element.setAttributeNS(null, "dy", shift_y);
            tspan_element.setAttributeNS(null, "x", tooltip_x);
            var text_node = svgDocument.createTextNode(text_elements[i]);
            tspan_element.appendChild(text_node);
            tooltip.appendChild(tspan_element);
            var tspan_length = tspan_element.getComputedTextLength();
            if (tspan_length > length) {
                length = tspan_length
            }
        }
        /* add right margin to tooltip */
        length = length + 15;
        height = 12 * text_elements.length + 5;
        tooltip_bg.setAttributeNS(null,"width",length);
        tooltip_bg.setAttributeNS(null,"height",height);
        tooltip_bg.setAttributeNS(null,"x", bg_x);
        tooltip_bg.setAttributeNS(null,"y", bg_y);
        tooltip_bg.setAttributeNS(null,"visibility","visible");
        tooltip.setAttributeNS(null,"x", tooltip_x);
        tooltip.setAttributeNS(null,"y", tooltip_y);
        tooltip.setAttributeNS(null,"visibility","visible");
    }
    function HideTooltip() {
      tooltip.setAttributeNS(null,"visibility","hidden");
      tooltip_bg.setAttributeNS(null,"visibility","hidden");
    }

    /*** Hide/Show edges functions ***/

    function hideSome() {
      if (counter >= edge_num -1) {
        return 1;
      }
      var elements = svgDocument.getElementsByClassName('remove' + counter);
      for (var i = 0; i < elements.length; i++) {
        elements[i].setAttributeNS(null,"visibility","hidden");
      }
      counter = counter + 1;
    }

    function showSome() {
      if (counter <= 0) {
        return 1;
      }
      counter = counter - 1;
      var elements = svgDocument.getElementsByClassName('remove' + counter);
      for (var i = 0; i < elements.length; i++) {
        elements[i].setAttributeNS(null,"visibility","visible");
      }
    }

    function setThreshold() {
        var elements = svgDocument.getElementsByClassName('remove' + counter);
        var score = 0;
        for (var i = 0; i < elements.length; i++) {
            if (elements[i].classList.contains("root")){
                if (elements[i].hasAttributeNS("ismara.unibas.ch", "data")) {
                    score = elements[i].getAttributeNS("ismara.unibas.ch", "data");
                }
            } 
        }
        svgDocument.getElementById("score_indicator").textContent = "Score threshold: " + score;
    }

    /*** Slider functions ***/

    var slider_maxY = parseInt(document.getElementById("slider_scale").getAttributeNS(null, "y2"));
    var slider_minY = parseInt(document.getElementById("slider_scale").getAttributeNS(null, "y1"));
    var slider_r = parseInt(document.getElementById("slider").getAttributeNS(null, "r"));
    var coef = (edge_num - 1) / (slider_maxY - slider_minY - 2 * slider_r);

    function grab(evt){
        var element = evt.target;
        var Attr = {"onmousemove":"slide(evt,'"+element.id+"')"};
        assignAttr(element, Attr);
    }

    function release(evt){
        var element = evt.target;
        var Attr = {"onmousemove":null};
        assignAttr(element, Attr);
    }

    function assignAttr(obj,attr){
        for (i in attr) obj.setAttributeNS(null,i, attr[i]);
    }

    function slide(evt,id){
        var slider = evt.target;
        var y = evt.pageY;
        var new_counter = Math.floor((evt.pageY - slider_minY - slider_r) * coef);
        if (evt.pageY > (slider_maxY - slider_r)) {
            slider.setAttributeNS(null, "cy", (slider_maxY - slider_r));
            new_counter = edge_num;
        } else if(evt.pageY < (slider_minY + slider_r)) {
            slider.setAttributeNS(null, "cy", (slider_minY + slider_r));
            new_counter = 1;
        } else {
            slider.setAttributeNS(null, "cy", evt.pageY);
        }

        if (new_counter < counter) {
                showSome();
            counter = new_counter;
        }
        if (new_counter > counter) {
                hideSome();
            counter = new_counter;
        }
        setThreshold();
    }

    function moveSlider() {
        circle = document.getElementById("slider");
        circle.setAttributeNS(null, "cy",  slider_minY +  slider_r + (counter) / coef);
    }

    function jump_slider(evt) {
        var slider = document.getElementById("slider");
        var new_counter = Math.floor((evt.pageY - slider_minY - slider_r) * coef);
        if (evt.pageY > (slider_maxY - slider_r)) {
            slider.setAttributeNS(null, "cy", (slider_maxY - slider_r));
            new_counter = edge_num;
        } else if(evt.pageY < (slider_minY + slider_r)) {
             slider.setAttributeNS(null, "cy", (slider_minY + slider_r));
            new_counter = 1;
        } else {
            slider.setAttributeNS(null, "cy", evt.pageY);
        }

        if (new_counter > counter) {
            var d = new_counter - counter;
            for (var i = 0; i < d; i++){
                hideSome();
            }
            counter = new_counter;
        }
        if (new_counter < counter) {
            var d = counter - new_counter;
            for (var i = 0; i < d; i++){
                showSome();
            }
            counter = new_counter;
        }
        setThreshold();
    }
    ]]></script><text id="score_indicator" style="font-size: 10px;font-weight: bold;" x="10" y="548">Score threshold: 0</text><text id="info" style="font-size: 10px;font-weight: bold;" x="10" y="563">Use slider or -/+ buttons to hide/show edges.</text></svg>