<?xml version="1.0" encoding="UTF-8" standalone="no"?>
<!DOCTYPE svg PUBLIC "-//W3C//DTD SVG 1.1//EN"
 "http://www.w3.org/Graphics/SVG/1.1/DTD/svg11.dtd">
<!-- Generated by graphviz version 2.28.0 (20110630.0925)
 -->
<!-- Title: _anonymous_0 Pages: 1 -->
<svg width="540pt" height="460pt"
 viewBox="0.00 0.00 540.50 460.50" xmlns="http://www.w3.org/2000/svg" xmlns:xlink="http://www.w3.org/1999/xlink">
<g id="graph1" class="graph" transform="scale(1 1) rotate(0) translate(4 456.497)">
<title>_anonymous_0</title>
<polygon fill="white" stroke="white" points="-4,5 -4,-456.497 537.497,-456.497 537.497,5 -4,5"/>
<!-- SIX5_SMARCC2_HCFC1 -->
<g id="node1" class="node"><title>SIX5_SMARCC2_HCFC1</title>
<a xlink:href="SIX5_SMARCC2_HCFC1.svg" xlink:title="Z&#45;value: 4.255||remove19">
<polygon fill="#3247ff" stroke="#3247ff" stroke-width="2" points="382.048,-36 274.048,-36 262.048,-24 262.048,-12 274.048,-0 382.048,-0 394.048,-12 394.048,-24 382.048,-36"/>
<path fill="#3247ff" stroke="#3247ff" stroke-width="2" d="M274.048,-36C268.048,-36 262.048,-30 262.048,-24"/>
<path fill="#3247ff" stroke="#3247ff" stroke-width="2" d="M262.048,-12C262.048,-6 268.048,-0 274.048,-0"/>
<path fill="#3247ff" stroke="#3247ff" stroke-width="2" d="M382.048,-0C388.048,-0 394.048,-6 394.048,-12"/>
<path fill="#3247ff" stroke="#3247ff" stroke-width="2" d="M394.048,-24C394.048,-30 388.048,-36 382.048,-36"/>
<polyline fill="none" stroke="white" stroke-width="2" points="382.048,-36 274.048,-36 "/>
<path fill="none" stroke="white" stroke-width="2" d="M274.048,-36C268.048,-36 262.048,-30 262.048,-24"/>
<polyline fill="none" stroke="white" stroke-width="2" points="262.048,-24 262.048,-12 "/>
<path fill="none" stroke="white" stroke-width="2" d="M262.048,-12C262.048,-6 268.048,-0 274.048,-0"/>
<polyline fill="none" stroke="white" stroke-width="2" points="274.048,-0 382.048,-0 "/>
<path fill="none" stroke="white" stroke-width="2" d="M382.048,-0C388.048,-0 394.048,-6 394.048,-12"/>
<polyline fill="none" stroke="white" stroke-width="2" points="394.048,-12 394.048,-24 "/>
<path fill="none" stroke="white" stroke-width="2" d="M394.048,-24C394.048,-30 388.048,-36 382.048,-36"/>
<text text-anchor="middle" x="328.048" y="-15.5" font-family="Helvetica,sans-Serif" font-size="10.00" fill="white">SIX5_SMARCC2_HCFC1</text>
</a>
</g>
<!-- TCF21 -->
<g id="node2" class="node"><title>TCF21</title>
<a xlink:href="TCF21.svg" xlink:title="Z&#45;value: 0.911||remove21">
<polygon fill="#ffabab" stroke="#ffabab" stroke-width="2" points="287.248,-244.248 257.248,-244.248 245.248,-232.248 245.248,-220.248 257.248,-208.248 287.248,-208.248 299.248,-220.248 299.248,-232.248 287.248,-244.248"/>
<path fill="#ffabab" stroke="#ffabab" stroke-width="2" d="M257.248,-244.248C251.248,-244.248 245.248,-238.248 245.248,-232.248"/>
<path fill="#ffabab" stroke="#ffabab" stroke-width="2" d="M245.248,-220.248C245.248,-214.248 251.248,-208.248 257.248,-208.248"/>
<path fill="#ffabab" stroke="#ffabab" stroke-width="2" d="M287.248,-208.248C293.248,-208.248 299.248,-214.248 299.248,-220.248"/>
<path fill="#ffabab" stroke="#ffabab" stroke-width="2" d="M299.248,-232.248C299.248,-238.248 293.248,-244.248 287.248,-244.248"/>
<polyline fill="none" stroke="white" stroke-width="2" points="287.248,-244.248 257.248,-244.248 "/>
<path fill="none" stroke="white" stroke-width="2" d="M257.248,-244.248C251.248,-244.248 245.248,-238.248 245.248,-232.248"/>
<polyline fill="none" stroke="white" stroke-width="2" points="245.248,-232.248 245.248,-220.248 "/>
<path fill="none" stroke="white" stroke-width="2" d="M245.248,-220.248C245.248,-214.248 251.248,-208.248 257.248,-208.248"/>
<polyline fill="none" stroke="white" stroke-width="2" points="257.248,-208.248 287.248,-208.248 "/>
<path fill="none" stroke="white" stroke-width="2" d="M287.248,-208.248C293.248,-208.248 299.248,-214.248 299.248,-220.248"/>
<polyline fill="none" stroke="white" stroke-width="2" points="299.248,-220.248 299.248,-232.248 "/>
<path fill="none" stroke="white" stroke-width="2" d="M299.248,-232.248C299.248,-238.248 293.248,-244.248 287.248,-244.248"/>
<text text-anchor="middle" x="272.248" y="-223.748" font-family="Helvetica,sans-Serif" font-size="10.00">TCF21</text>
</a>
</g>
<!-- SIX5_SMARCC2_HCFC1&#45;&gt;TCF21 -->
<g id="edge2" class="edge"><title>SIX5_SMARCC2_HCFC1&#45;&gt;TCF21</title>
<a xlink:title="TCF21: 0.304||remove19root">
<path fill="none" stroke="#bdc4ff" stroke-width="3" d="M323.194,-36.1164C313.28,-73.1163 290.676,-157.474 279.204,-200.289"/>
<polygon fill="#bdc4ff" stroke="#bdc4ff" points="276.497,-199.574 277.131,-208.026 281.906,-201.023 276.497,-199.574"/>
</a>
</g>
<!-- MAX_TFEB -->
<g id="node4" class="node"><title>MAX_TFEB</title>
<a xlink:href="MAX_TFEB.svg" xlink:title="Z&#45;value: 0.715||remove18">
<polygon fill="#b2b9ff" stroke="#b2b9ff" stroke-width="2" points="502.747,-300.048 458.247,-300.048 446.247,-288.048 446.247,-276.048 458.247,-264.048 502.747,-264.048 514.747,-276.048 514.747,-288.048 502.747,-300.048"/>
<path fill="#b2b9ff" stroke="#b2b9ff" stroke-width="2" d="M458.247,-300.048C452.247,-300.048 446.247,-294.048 446.247,-288.048"/>
<path fill="#b2b9ff" stroke="#b2b9ff" stroke-width="2" d="M446.247,-276.048C446.247,-270.048 452.247,-264.048 458.247,-264.048"/>
<path fill="#b2b9ff" stroke="#b2b9ff" stroke-width="2" d="M502.747,-264.048C508.747,-264.048 514.747,-270.048 514.747,-276.048"/>
<path fill="#b2b9ff" stroke="#b2b9ff" stroke-width="2" d="M514.747,-288.048C514.747,-294.048 508.747,-300.048 502.747,-300.048"/>
<polyline fill="none" stroke="white" stroke-width="2" points="502.747,-300.048 458.247,-300.048 "/>
<path fill="none" stroke="white" stroke-width="2" d="M458.247,-300.048C452.247,-300.048 446.247,-294.048 446.247,-288.048"/>
<polyline fill="none" stroke="white" stroke-width="2" points="446.247,-288.048 446.247,-276.048 "/>
<path fill="none" stroke="white" stroke-width="2" d="M446.247,-276.048C446.247,-270.048 452.247,-264.048 458.247,-264.048"/>
<polyline fill="none" stroke="white" stroke-width="2" points="458.247,-264.048 502.747,-264.048 "/>
<path fill="none" stroke="white" stroke-width="2" d="M502.747,-264.048C508.747,-264.048 514.747,-270.048 514.747,-276.048"/>
<polyline fill="none" stroke="white" stroke-width="2" points="514.747,-276.048 514.747,-288.048 "/>
<path fill="none" stroke="white" stroke-width="2" d="M514.747,-288.048C514.747,-294.048 508.747,-300.048 502.747,-300.048"/>
<text text-anchor="middle" x="480.497" y="-279.548" font-family="Helvetica,sans-Serif" font-size="10.00">MAX_TFEB</text>
</a>
</g>
<!-- SIX5_SMARCC2_HCFC1&#45;&gt;MAX_TFEB -->
<g id="edge4" class="edge"><title>SIX5_SMARCC2_HCFC1&#45;&gt;MAX_TFEB</title>
<a xlink:title="MAX: 3.206||TFEB: 0.064||remove18">
<path fill="none" stroke="#bd32ff" stroke-width="3" d="M338.527,-36.1491C365.126,-82.2197 435.313,-203.787 465.901,-256.767"/>
<polygon fill="#bd32ff" stroke="#bd32ff" points="463.52,-258.244 469.945,-263.772 468.37,-255.444 463.52,-258.244"/>
</a>
</g>
<!-- BACH1_NFE2_NFE2L2 -->
<g id="node6" class="node"><title>BACH1_NFE2_NFE2L2</title>
<a xlink:href="BACH1_NFE2_NFE2L2.svg" xlink:title="Z&#45;value: 1.802||remove15">
<polygon fill="#8b96ff" stroke="#8b96ff" stroke-width="2" points="473.697,-396.697 375.697,-396.697 363.697,-384.697 363.697,-372.697 375.697,-360.697 473.697,-360.697 485.697,-372.697 485.697,-384.697 473.697,-396.697"/>
<path fill="#8b96ff" stroke="#8b96ff" stroke-width="2" d="M375.697,-396.697C369.697,-396.697 363.697,-390.697 363.697,-384.697"/>
<path fill="#8b96ff" stroke="#8b96ff" stroke-width="2" d="M363.697,-372.697C363.697,-366.697 369.697,-360.697 375.697,-360.697"/>
<path fill="#8b96ff" stroke="#8b96ff" stroke-width="2" d="M473.697,-360.697C479.697,-360.697 485.697,-366.697 485.697,-372.697"/>
<path fill="#8b96ff" stroke="#8b96ff" stroke-width="2" d="M485.697,-384.697C485.697,-390.697 479.697,-396.697 473.697,-396.697"/>
<polyline fill="none" stroke="white" stroke-width="2" points="473.697,-396.697 375.697,-396.697 "/>
<path fill="none" stroke="white" stroke-width="2" d="M375.697,-396.697C369.697,-396.697 363.697,-390.697 363.697,-384.697"/>
<polyline fill="none" stroke="white" stroke-width="2" points="363.697,-384.697 363.697,-372.697 "/>
<path fill="none" stroke="white" stroke-width="2" d="M363.697,-372.697C363.697,-366.697 369.697,-360.697 375.697,-360.697"/>
<polyline fill="none" stroke="white" stroke-width="2" points="375.697,-360.697 473.697,-360.697 "/>
<path fill="none" stroke="white" stroke-width="2" d="M473.697,-360.697C479.697,-360.697 485.697,-366.697 485.697,-372.697"/>
<polyline fill="none" stroke="white" stroke-width="2" points="485.697,-372.697 485.697,-384.697 "/>
<path fill="none" stroke="white" stroke-width="2" d="M485.697,-384.697C485.697,-390.697 479.697,-396.697 473.697,-396.697"/>
<text text-anchor="middle" x="424.697" y="-376.197" font-family="Helvetica,sans-Serif" font-size="10.00">BACH1_NFE2_NFE2L2</text>
</a>
</g>
<!-- SIX5_SMARCC2_HCFC1&#45;&gt;BACH1_NFE2_NFE2L2 -->
<g id="edge6" class="edge"><title>SIX5_SMARCC2_HCFC1&#45;&gt;BACH1_NFE2_NFE2L2</title>
<a xlink:title="NFE2L2: 0.069||remove9root">
<path fill="none" stroke="#edc8ff" stroke-width="3" d="M332.974,-36.3829C348.906,-95.8405 399.081,-283.096 417.675,-352.489"/>
<polygon fill="#edc8ff" stroke="#edc8ff" points="415.006,-353.348 419.781,-360.351 420.415,-351.899 415.006,-353.348"/>
</a>
</g>
<!-- TCF21&#45;&gt;MAX_TFEB -->
<g id="edge14" class="edge"><title>TCF21&#45;&gt;MAX_TFEB</title>
<a xlink:title="TFEB: 0.267||remove18root">
<path fill="none" stroke="#ffbfbf" stroke-width="3" d="M299.473,-233.543C334.792,-243.007 396.783,-259.617 438.241,-270.726"/>
<polygon fill="#ffbfbf" stroke="#ffbfbf" points="437.536,-273.436 445.988,-272.802 438.986,-268.027 437.536,-273.436"/>
</a>
</g>
<!-- TCF21&#45;&gt;BACH1_NFE2_NFE2L2 -->
<g id="edge24" class="edge"><title>TCF21&#45;&gt;BACH1_NFE2_NFE2L2</title>
<a xlink:title="BACH1: 0.143||remove15root">
<path fill="none" stroke="#ffc5c5" stroke-width="3" d="M290.335,-244.335C317.841,-271.841 370.215,-324.215 400.818,-354.818"/>
<polygon fill="#ffc5c5" stroke="#ffc5c5" points="398.997,-356.957 406.634,-360.634 402.957,-352.997 398.997,-356.957"/>
</a>
</g>
<!-- CDC5L -->
<g id="node8" class="node"><title>CDC5L</title>
<a xlink:href="CDC5L.svg" xlink:title="Z&#45;value: 0.755||remove14">
<polygon fill="#b0b8ff" stroke="#b0b8ff" stroke-width="2" points="343.048,-452.497 313.048,-452.497 301.048,-440.497 301.048,-428.497 313.048,-416.497 343.048,-416.497 355.048,-428.497 355.048,-440.497 343.048,-452.497"/>
<path fill="#b0b8ff" stroke="#b0b8ff" stroke-width="2" d="M313.048,-452.497C307.048,-452.497 301.048,-446.497 301.048,-440.497"/>
<path fill="#b0b8ff" stroke="#b0b8ff" stroke-width="2" d="M301.048,-428.497C301.048,-422.497 307.048,-416.497 313.048,-416.497"/>
<path fill="#b0b8ff" stroke="#b0b8ff" stroke-width="2" d="M343.048,-416.497C349.048,-416.497 355.048,-422.497 355.048,-428.497"/>
<path fill="#b0b8ff" stroke="#b0b8ff" stroke-width="2" d="M355.048,-440.497C355.048,-446.497 349.048,-452.497 343.048,-452.497"/>
<polyline fill="none" stroke="white" stroke-width="2" points="343.048,-452.497 313.048,-452.497 "/>
<path fill="none" stroke="white" stroke-width="2" d="M313.048,-452.497C307.048,-452.497 301.048,-446.497 301.048,-440.497"/>
<polyline fill="none" stroke="white" stroke-width="2" points="301.048,-440.497 301.048,-428.497 "/>
<path fill="none" stroke="white" stroke-width="2" d="M301.048,-428.497C301.048,-422.497 307.048,-416.497 313.048,-416.497"/>
<polyline fill="none" stroke="white" stroke-width="2" points="313.048,-416.497 343.048,-416.497 "/>
<path fill="none" stroke="white" stroke-width="2" d="M343.048,-416.497C349.048,-416.497 355.048,-422.497 355.048,-428.497"/>
<polyline fill="none" stroke="white" stroke-width="2" points="355.048,-428.497 355.048,-440.497 "/>
<path fill="none" stroke="white" stroke-width="2" d="M355.048,-440.497C355.048,-446.497 349.048,-452.497 343.048,-452.497"/>
<text text-anchor="middle" x="328.048" y="-431.997" font-family="Helvetica,sans-Serif" font-size="10.00">CDC5L</text>
</a>
</g>
<!-- TCF21&#45;&gt;CDC5L -->
<g id="edge8" class="edge"><title>TCF21&#45;&gt;CDC5L</title>
<a xlink:title="CDC5L: 0.128||remove14root">
<path fill="none" stroke="#ffc5c5" stroke-width="3" d="M277.103,-244.365C287.017,-281.365 309.62,-365.723 321.093,-408.537"/>
<polygon fill="#ffc5c5" stroke="#ffc5c5" points="318.39,-409.271 323.166,-416.274 323.8,-407.822 318.39,-409.271"/>
</a>
</g>
<!-- CPEB1 -->
<g id="node10" class="node"><title>CPEB1</title>
<a xlink:href="CPEB1.svg" xlink:title="Z&#45;value: 0.827||remove12">
<polygon fill="#aeb6ff" stroke="#aeb6ff" stroke-width="2" points="231.448,-452.497 201.448,-452.497 189.448,-440.497 189.448,-428.497 201.448,-416.497 231.448,-416.497 243.448,-428.497 243.448,-440.497 231.448,-452.497"/>
<path fill="#aeb6ff" stroke="#aeb6ff" stroke-width="2" d="M201.448,-452.497C195.448,-452.497 189.448,-446.497 189.448,-440.497"/>
<path fill="#aeb6ff" stroke="#aeb6ff" stroke-width="2" d="M189.448,-428.497C189.448,-422.497 195.448,-416.497 201.448,-416.497"/>
<path fill="#aeb6ff" stroke="#aeb6ff" stroke-width="2" d="M231.448,-416.497C237.448,-416.497 243.448,-422.497 243.448,-428.497"/>
<path fill="#aeb6ff" stroke="#aeb6ff" stroke-width="2" d="M243.448,-440.497C243.448,-446.497 237.448,-452.497 231.448,-452.497"/>
<polyline fill="none" stroke="white" stroke-width="2" points="231.448,-452.497 201.448,-452.497 "/>
<path fill="none" stroke="white" stroke-width="2" d="M201.448,-452.497C195.448,-452.497 189.448,-446.497 189.448,-440.497"/>
<polyline fill="none" stroke="white" stroke-width="2" points="189.448,-440.497 189.448,-428.497 "/>
<path fill="none" stroke="white" stroke-width="2" d="M189.448,-428.497C189.448,-422.497 195.448,-416.497 201.448,-416.497"/>
<polyline fill="none" stroke="white" stroke-width="2" points="201.448,-416.497 231.448,-416.497 "/>
<path fill="none" stroke="white" stroke-width="2" d="M231.448,-416.497C237.448,-416.497 243.448,-422.497 243.448,-428.497"/>
<polyline fill="none" stroke="white" stroke-width="2" points="243.448,-428.497 243.448,-440.497 "/>
<path fill="none" stroke="white" stroke-width="2" d="M243.448,-440.497C243.448,-446.497 237.448,-452.497 231.448,-452.497"/>
<text text-anchor="middle" x="216.448" y="-431.997" font-family="Helvetica,sans-Serif" font-size="10.00">CPEB1</text>
</a>
</g>
<!-- TCF21&#45;&gt;CPEB1 -->
<g id="edge10" class="edge"><title>TCF21&#45;&gt;CPEB1</title>
<a xlink:title="CPEB1: 0.093||remove12root">
<path fill="none" stroke="#ffc7c7" stroke-width="3" d="M267.394,-244.365C257.48,-281.365 234.876,-365.723 223.404,-408.537"/>
<polygon fill="#ffc7c7" stroke="#ffc7c7" points="220.697,-407.822 221.331,-416.274 226.106,-409.271 220.697,-407.822"/>
</a>
</g>
<!-- RXRG -->
<g id="node12" class="node"><title>RXRG</title>
<a xlink:href="RXRG.svg" xlink:title="Z&#45;value: 0.838||remove16">
<polygon fill="#adb5ff" stroke="#adb5ff" stroke-width="2" points="134.8,-396.697 104.8,-396.697 92.8,-384.697 92.8,-372.697 104.8,-360.697 134.8,-360.697 146.8,-372.697 146.8,-384.697 134.8,-396.697"/>
<path fill="#adb5ff" stroke="#adb5ff" stroke-width="2" d="M104.8,-396.697C98.8,-396.697 92.8,-390.697 92.8,-384.697"/>
<path fill="#adb5ff" stroke="#adb5ff" stroke-width="2" d="M92.8,-372.697C92.8,-366.697 98.8,-360.697 104.8,-360.697"/>
<path fill="#adb5ff" stroke="#adb5ff" stroke-width="2" d="M134.8,-360.697C140.8,-360.697 146.8,-366.697 146.8,-372.697"/>
<path fill="#adb5ff" stroke="#adb5ff" stroke-width="2" d="M146.8,-384.697C146.8,-390.697 140.8,-396.697 134.8,-396.697"/>
<polyline fill="none" stroke="white" stroke-width="2" points="134.8,-396.697 104.8,-396.697 "/>
<path fill="none" stroke="white" stroke-width="2" d="M104.8,-396.697C98.8,-396.697 92.8,-390.697 92.8,-384.697"/>
<polyline fill="none" stroke="white" stroke-width="2" points="92.8,-384.697 92.8,-372.697 "/>
<path fill="none" stroke="white" stroke-width="2" d="M92.8,-372.697C92.8,-366.697 98.8,-360.697 104.8,-360.697"/>
<polyline fill="none" stroke="white" stroke-width="2" points="104.8,-360.697 134.8,-360.697 "/>
<path fill="none" stroke="white" stroke-width="2" d="M134.8,-360.697C140.8,-360.697 146.8,-366.697 146.8,-372.697"/>
<polyline fill="none" stroke="white" stroke-width="2" points="146.8,-372.697 146.8,-384.697 "/>
<path fill="none" stroke="white" stroke-width="2" d="M146.8,-384.697C146.8,-390.697 140.8,-396.697 134.8,-396.697"/>
<text text-anchor="middle" x="119.8" y="-376.197" font-family="Helvetica,sans-Serif" font-size="10.00">RXRG</text>
</a>
</g>
<!-- TCF21&#45;&gt;RXRG -->
<g id="edge12" class="edge"><title>TCF21&#45;&gt;RXRG</title>
<a xlink:title="RXRG: 0.188||remove16root">
<path fill="none" stroke="#ffc3c3" stroke-width="3" d="M254.162,-244.335C226.656,-271.841 174.282,-324.215 143.679,-354.818"/>
<polygon fill="#ffc3c3" stroke="#ffc3c3" points="141.54,-352.997 137.863,-360.634 145.5,-356.957 141.54,-352.997"/>
</a>
</g>
<!-- SOX6 -->
<g id="node15" class="node"><title>SOX6</title>
<a xlink:href="SOX6.svg" xlink:title="Z&#45;value: 0.520||remove13">
<polygon fill="#b9c0ff" stroke="#b9c0ff" stroke-width="2" points="79,-300.048 49,-300.048 37,-288.048 37,-276.048 49,-264.048 79,-264.048 91,-276.048 91,-288.048 79,-300.048"/>
<path fill="#b9c0ff" stroke="#b9c0ff" stroke-width="2" d="M49,-300.048C43,-300.048 37,-294.048 37,-288.048"/>
<path fill="#b9c0ff" stroke="#b9c0ff" stroke-width="2" d="M37,-276.048C37,-270.048 43,-264.048 49,-264.048"/>
<path fill="#b9c0ff" stroke="#b9c0ff" stroke-width="2" d="M79,-264.048C85,-264.048 91,-270.048 91,-276.048"/>
<path fill="#b9c0ff" stroke="#b9c0ff" stroke-width="2" d="M91,-288.048C91,-294.048 85,-300.048 79,-300.048"/>
<polyline fill="none" stroke="white" stroke-width="2" points="79,-300.048 49,-300.048 "/>
<path fill="none" stroke="white" stroke-width="2" d="M49,-300.048C43,-300.048 37,-294.048 37,-288.048"/>
<polyline fill="none" stroke="white" stroke-width="2" points="37,-288.048 37,-276.048 "/>
<path fill="none" stroke="white" stroke-width="2" d="M37,-276.048C37,-270.048 43,-264.048 49,-264.048"/>
<polyline fill="none" stroke="white" stroke-width="2" points="49,-264.048 79,-264.048 "/>
<path fill="none" stroke="white" stroke-width="2" d="M79,-264.048C85,-264.048 91,-270.048 91,-276.048"/>
<polyline fill="none" stroke="white" stroke-width="2" points="91,-276.048 91,-288.048 "/>
<path fill="none" stroke="white" stroke-width="2" d="M91,-288.048C91,-294.048 85,-300.048 79,-300.048"/>
<text text-anchor="middle" x="64" y="-279.548" font-family="Helvetica,sans-Serif" font-size="10.00">SOX6</text>
</a>
</g>
<!-- TCF21&#45;&gt;SOX6 -->
<g id="edge16" class="edge"><title>TCF21&#45;&gt;SOX6</title>
<a xlink:title="SOX6: 0.102||remove13root">
<path fill="none" stroke="#ffc7c7" stroke-width="3" d="M245.024,-233.543C207.607,-243.569 140.259,-261.615 99.0979,-272.644"/>
<polygon fill="#ffc7c7" stroke="#ffc7c7" points="98.2342,-269.977 91.2315,-274.752 99.6837,-275.386 98.2342,-269.977"/>
</a>
</g>
<!-- IRF2_STAT2_IRF8_IRF1 -->
<g id="node17" class="node"><title>IRF2_STAT2_IRF8_IRF1</title>
<a xlink:href="IRF2_STAT2_IRF8_IRF1.svg" xlink:title="Z&#45;value: 0.544||remove17">
<polygon fill="#b8bfff" stroke="#b8bfff" stroke-width="2" points="116,-188.448 12,-188.448 0,-176.448 0,-164.448 12,-152.448 116,-152.448 128,-164.448 128,-176.448 116,-188.448"/>
<path fill="#b8bfff" stroke="#b8bfff" stroke-width="2" d="M12,-188.448C6,-188.448 0,-182.448 0,-176.448"/>
<path fill="#b8bfff" stroke="#b8bfff" stroke-width="2" d="M0,-164.448C0,-158.448 6,-152.448 12,-152.448"/>
<path fill="#b8bfff" stroke="#b8bfff" stroke-width="2" d="M116,-152.448C122,-152.448 128,-158.448 128,-164.448"/>
<path fill="#b8bfff" stroke="#b8bfff" stroke-width="2" d="M128,-176.448C128,-182.448 122,-188.448 116,-188.448"/>
<polyline fill="none" stroke="white" stroke-width="2" points="116,-188.448 12,-188.448 "/>
<path fill="none" stroke="white" stroke-width="2" d="M12,-188.448C6,-188.448 0,-182.448 0,-176.448"/>
<polyline fill="none" stroke="white" stroke-width="2" points="0,-176.448 0,-164.448 "/>
<path fill="none" stroke="white" stroke-width="2" d="M0,-164.448C0,-158.448 6,-152.448 12,-152.448"/>
<polyline fill="none" stroke="white" stroke-width="2" points="12,-152.448 116,-152.448 "/>
<path fill="none" stroke="white" stroke-width="2" d="M116,-152.448C122,-152.448 128,-158.448 128,-164.448"/>
<polyline fill="none" stroke="white" stroke-width="2" points="128,-164.448 128,-176.448 "/>
<path fill="none" stroke="white" stroke-width="2" d="M128,-176.448C128,-182.448 122,-188.448 116,-188.448"/>
<text text-anchor="middle" x="64" y="-167.948" font-family="Helvetica,sans-Serif" font-size="10.00">IRF2_STAT2_IRF8_IRF1</text>
</a>
</g>
<!-- TCF21&#45;&gt;IRF2_STAT2_IRF8_IRF1 -->
<g id="edge18" class="edge"><title>TCF21&#45;&gt;IRF2_STAT2_IRF8_IRF1</title>
<a xlink:title="IRF8: 0.218||remove17root">
<path fill="none" stroke="#ffc1c1" stroke-width="3" d="M245.024,-218.954C217.439,-211.562 173.584,-199.811 135.949,-189.727"/>
<polygon fill="#ffc1c1" stroke="#ffc1c1" points="136.473,-186.969 128.021,-187.603 135.024,-192.378 136.473,-186.969"/>
</a>
</g>
<!-- SOX10_SOX15 -->
<g id="node19" class="node"><title>SOX10_SOX15</title>
<a xlink:href="SOX10_SOX15.svg" xlink:title="Z&#45;value: 0.413||remove20">
<polygon fill="#bdc3ff" stroke="#bdc3ff" stroke-width="2" points="150.05,-91.8 89.55,-91.8 77.55,-79.8 77.55,-67.8 89.55,-55.8 150.05,-55.8 162.05,-67.8 162.05,-79.8 150.05,-91.8"/>
<path fill="#bdc3ff" stroke="#bdc3ff" stroke-width="2" d="M89.55,-91.8C83.55,-91.8 77.55,-85.8 77.55,-79.8"/>
<path fill="#bdc3ff" stroke="#bdc3ff" stroke-width="2" d="M77.55,-67.8C77.55,-61.8 83.55,-55.8 89.55,-55.8"/>
<path fill="#bdc3ff" stroke="#bdc3ff" stroke-width="2" d="M150.05,-55.8C156.05,-55.8 162.05,-61.8 162.05,-67.8"/>
<path fill="#bdc3ff" stroke="#bdc3ff" stroke-width="2" d="M162.05,-79.8C162.05,-85.8 156.05,-91.8 150.05,-91.8"/>
<polyline fill="none" stroke="white" stroke-width="2" points="150.05,-91.8 89.55,-91.8 "/>
<path fill="none" stroke="white" stroke-width="2" d="M89.55,-91.8C83.55,-91.8 77.55,-85.8 77.55,-79.8"/>
<polyline fill="none" stroke="white" stroke-width="2" points="77.55,-79.8 77.55,-67.8 "/>
<path fill="none" stroke="white" stroke-width="2" d="M77.55,-67.8C77.55,-61.8 83.55,-55.8 89.55,-55.8"/>
<polyline fill="none" stroke="white" stroke-width="2" points="89.55,-55.8 150.05,-55.8 "/>
<path fill="none" stroke="white" stroke-width="2" d="M150.05,-55.8C156.05,-55.8 162.05,-61.8 162.05,-67.8"/>
<polyline fill="none" stroke="white" stroke-width="2" points="162.05,-67.8 162.05,-79.8 "/>
<path fill="none" stroke="white" stroke-width="2" d="M162.05,-79.8C162.05,-85.8 156.05,-91.8 150.05,-91.8"/>
<text text-anchor="middle" x="119.8" y="-71.3" font-family="Helvetica,sans-Serif" font-size="10.00">SOX10_SOX15</text>
</a>
</g>
<!-- TCF21&#45;&gt;SOX10_SOX15 -->
<g id="edge20" class="edge"><title>TCF21&#45;&gt;SOX10_SOX15</title>
<a xlink:title="SOX15: 0.384||remove20root">
<path fill="none" stroke="#ffb9b9" stroke-width="3" d="M254.162,-208.162C226.656,-180.656 174.282,-128.282 143.679,-97.6793"/>
<polygon fill="#ffb9b9" stroke="#ffb9b9" points="145.5,-95.5399 137.863,-91.863 141.54,-99.4997 145.5,-95.5399"/>
</a>
</g>
<!-- HOXD1 -->
<g id="node21" class="node"><title>HOXD1</title>
<a xlink:href="HOXD1.svg" xlink:title="Z&#45;value: 0.254||remove8">
<polygon fill="#c2c8ff" stroke="#c2c8ff" stroke-width="2" points="231.448,-36 201.448,-36 189.448,-24 189.448,-12 201.448,-6.39488e-14 231.448,-6.39488e-14 243.448,-12 243.448,-24 231.448,-36"/>
<path fill="#c2c8ff" stroke="#c2c8ff" stroke-width="2" d="M201.448,-36C195.448,-36 189.448,-30 189.448,-24"/>
<path fill="#c2c8ff" stroke="#c2c8ff" stroke-width="2" d="M189.448,-12C189.448,-6 195.448,-6.39488e-14 201.448,-6.39488e-14"/>
<path fill="#c2c8ff" stroke="#c2c8ff" stroke-width="2" d="M231.448,-6.39488e-14C237.448,-6.39488e-14 243.448,-6 243.448,-12"/>
<path fill="#c2c8ff" stroke="#c2c8ff" stroke-width="2" d="M243.448,-24C243.448,-30 237.448,-36 231.448,-36"/>
<polyline fill="none" stroke="white" stroke-width="2" points="231.448,-36 201.448,-36 "/>
<path fill="none" stroke="white" stroke-width="2" d="M201.448,-36C195.448,-36 189.448,-30 189.448,-24"/>
<polyline fill="none" stroke="white" stroke-width="2" points="189.448,-24 189.448,-12 "/>
<path fill="none" stroke="white" stroke-width="2" d="M189.448,-12C189.448,-6 195.448,-6.39488e-14 201.448,-6.39488e-14"/>
<polyline fill="none" stroke="white" stroke-width="2" points="201.448,-6.39488e-14 231.448,-6.39488e-14 "/>
<path fill="none" stroke="white" stroke-width="2" d="M231.448,-6.39488e-14C237.448,-6.39488e-14 243.448,-6 243.448,-12"/>
<polyline fill="none" stroke="white" stroke-width="2" points="243.448,-12 243.448,-24 "/>
<path fill="none" stroke="white" stroke-width="2" d="M243.448,-24C243.448,-30 237.448,-36 231.448,-36"/>
<text text-anchor="middle" x="216.448" y="-15.5" font-family="Helvetica,sans-Serif" font-size="10.00">HOXD1</text>
</a>
</g>
<!-- TCF21&#45;&gt;HOXD1 -->
<g id="edge22" class="edge"><title>TCF21&#45;&gt;HOXD1</title>
<a xlink:title="HOXD1: 0.069||remove8root">
<path fill="none" stroke="#ffc8c8" stroke-width="3" d="M267.394,-208.132C257.48,-171.132 234.876,-86.7741 223.404,-43.9594"/>
<polygon fill="#ffc8c8" stroke="#ffc8c8" points="226.106,-43.2255 221.331,-36.2228 220.697,-44.6749 226.106,-43.2255"/>
</a>
</g>
<!-- MAX_TFEB&#45;&gt;MAX_TFEB -->
<g id="edge28" class="edge"><title>MAX_TFEB&#45;&gt;MAX_TFEB</title>
<a xlink:title="MAX: 0.070||remove10root">
<path fill="none" stroke="#edc8ff" stroke-width="3" d="M515.001,-288.772C524.88,-288.508 532.497,-286.267 532.497,-282.048 532.497,-279.082 528.731,-277.093 523.061,-276.083"/>
<polygon fill="#edc8ff" stroke="#edc8ff" points="523.228,-273.286 515.001,-275.325 522.704,-278.861 523.228,-273.286"/>
</a>
</g>
<!-- MAX_TFEB&#45;&gt;CPEB1 -->
<g id="edge26" class="edge"><title>MAX_TFEB&#45;&gt;CPEB1</title>
<a xlink:title="CPEB1: 0.142||remove12">
<path fill="none" stroke="#ecc5ff" stroke-width="3" d="M449.17,-300.135C399.33,-328.91 302.351,-384.901 250.721,-414.71"/>
<polygon fill="#ecc5ff" stroke="#ecc5ff" points="249.275,-412.311 243.746,-418.736 252.075,-417.161 249.275,-412.311"/>
</a>
</g>
<!-- CDC5L&#45;&gt;IRF2_STAT2_IRF8_IRF1 -->
<g id="edge36" class="edge"><title>CDC5L&#45;&gt;IRF2_STAT2_IRF8_IRF1</title>
<a xlink:title="IRF2: 0.160||remove14">
<path fill="none" stroke="#ecc4ff" stroke-width="3" d="M309.899,-416.348C263.452,-369.9 140.267,-246.716 87.9953,-194.444"/>
<polygon fill="#ecc4ff" stroke="#ecc4ff" points="89.9129,-192.402 82.2761,-188.725 85.9531,-196.361 89.9129,-192.402"/>
</a>
</g>
<!-- CPEB1&#45;&gt;SIX5_SMARCC2_HCFC1 -->
<g id="edge32" class="edge"><title>CPEB1&#45;&gt;SIX5_SMARCC2_HCFC1</title>
<a xlink:title="SIX5: 0.022||remove1root">
<path fill="none" stroke="#eecaff" stroke-width="3" d="M216.385,-416.296C216.682,-377.019 219.737,-281.692 240.928,-205.368 257.908,-144.216 293.027,-78.1005 313.104,-43.0876"/>
<polygon fill="#eecaff" stroke="#eecaff" points="315.564,-44.4277 317.148,-36.1013 310.717,-41.6222 315.564,-44.4277"/>
</a>
</g>
<!-- CPEB1&#45;&gt;RXRG -->
<g id="edge30" class="edge"><title>CPEB1&#45;&gt;RXRG</title>
<a xlink:title="RXRG: 0.029||remove3root">
<path fill="none" stroke="#eecaff" stroke-width="3" d="M189.269,-418.805C178.358,-412.505 165.654,-405.171 154.117,-398.51"/>
<polygon fill="#eecaff" stroke="#eecaff" points="155.438,-396.04 147.11,-394.464 152.638,-400.889 155.438,-396.04"/>
</a>
</g>
<!-- CPEB1&#45;&gt;SOX6 -->
<g id="edge34" class="edge"><title>CPEB1&#45;&gt;SOX6</title>
<a xlink:title="SOX6: 0.129||remove12">
<path fill="none" stroke="#ecc5ff" stroke-width="3" d="M202.374,-416.482C189.602,-400.509 169.944,-376.834 151.12,-357.817 132.658,-339.166 110.294,-319.775 92.8472,-305.279"/>
<polygon fill="#ecc5ff" stroke="#ecc5ff" points="94.6104,-303.104 86.6583,-300.17 91.0454,-307.422 94.6104,-303.104"/>
</a>
</g>
<!-- SOX6&#45;&gt;BACH1_NFE2_NFE2L2 -->
<g id="edge40" class="edge"><title>SOX6&#45;&gt;BACH1_NFE2_NFE2L2</title>
<a xlink:title="BACH1: 0.042||remove5root">
<path fill="none" stroke="#eecaff" stroke-width="3" d="M91.1109,-289.313C146.708,-304.21 275.146,-338.625 355.447,-360.141"/>
<polygon fill="#eecaff" stroke="#eecaff" points="355.093,-362.945 363.545,-362.311 356.542,-357.536 355.093,-362.945"/>
</a>
</g>
<!-- IRF2_STAT2_IRF8_IRF1&#45;&gt;IRF2_STAT2_IRF8_IRF1 -->
<g id="edge38" class="edge"><title>IRF2_STAT2_IRF8_IRF1&#45;&gt;IRF2_STAT2_IRF8_IRF1</title>
<a xlink:title="IRF2: 0.013||remove0root">
<path fill="none" stroke="#eecbff" stroke-width="3" d="M128.288,-176.694C138.785,-175.8 146,-173.718 146,-170.448 146,-168.098 142.273,-166.362 136.279,-165.239"/>
<polygon fill="#eecbff" stroke="#eecbff" points="136.581,-162.455 128.288,-164.203 135.861,-168.009 136.581,-162.455"/>
</a>
</g>
<!-- SOX10_SOX15&#45;&gt;BACH1_NFE2_NFE2L2 -->
<g id="edge42" class="edge"><title>SOX10_SOX15&#45;&gt;BACH1_NFE2_NFE2L2</title>
<a xlink:title="BACH1: 0.030||remove4root">
<path fill="none" stroke="#eecaff" stroke-width="3" d="M129.727,-92.0043C148.467,-125.323 191.63,-197.265 240.928,-247.128 285.338,-292.047 346.562,-332.499 385.894,-356.34"/>
<polygon fill="#eecaff" stroke="#eecaff" points="384.675,-358.874 392.974,-360.596 387.56,-354.074 384.675,-358.874"/>
</a>
</g>
<!-- MZF1 -->
<g id="node33" class="node"><title>MZF1</title>
<a xlink:href="MZF1.svg" xlink:title="Z&#45;value: 0.821||remove11">
<polygon fill="#aeb6ff" stroke="#aeb6ff" stroke-width="2" points="439.697,-91.8 409.697,-91.8 397.697,-79.8 397.697,-67.8 409.697,-55.8 439.697,-55.8 451.697,-67.8 451.697,-79.8 439.697,-91.8"/>
<path fill="#aeb6ff" stroke="#aeb6ff" stroke-width="2" d="M409.697,-91.8C403.697,-91.8 397.697,-85.8 397.697,-79.8"/>
<path fill="#aeb6ff" stroke="#aeb6ff" stroke-width="2" d="M397.697,-67.8C397.697,-61.8 403.697,-55.8 409.697,-55.8"/>
<path fill="#aeb6ff" stroke="#aeb6ff" stroke-width="2" d="M439.697,-55.8C445.697,-55.8 451.697,-61.8 451.697,-67.8"/>
<path fill="#aeb6ff" stroke="#aeb6ff" stroke-width="2" d="M451.697,-79.8C451.697,-85.8 445.697,-91.8 439.697,-91.8"/>
<polyline fill="none" stroke="white" stroke-width="2" points="439.697,-91.8 409.697,-91.8 "/>
<path fill="none" stroke="white" stroke-width="2" d="M409.697,-91.8C403.697,-91.8 397.697,-85.8 397.697,-79.8"/>
<polyline fill="none" stroke="white" stroke-width="2" points="397.697,-79.8 397.697,-67.8 "/>
<path fill="none" stroke="white" stroke-width="2" d="M397.697,-67.8C397.697,-61.8 403.697,-55.8 409.697,-55.8"/>
<polyline fill="none" stroke="white" stroke-width="2" points="409.697,-55.8 439.697,-55.8 "/>
<path fill="none" stroke="white" stroke-width="2" d="M439.697,-55.8C445.697,-55.8 451.697,-61.8 451.697,-67.8"/>
<polyline fill="none" stroke="white" stroke-width="2" points="451.697,-67.8 451.697,-79.8 "/>
<path fill="none" stroke="white" stroke-width="2" d="M451.697,-79.8C451.697,-85.8 445.697,-91.8 439.697,-91.8"/>
<text text-anchor="middle" x="424.697" y="-71.3" font-family="Helvetica,sans-Serif" font-size="10.00">MZF1</text>
</a>
</g>
<!-- MZF1&#45;&gt;TCF21 -->
<g id="edge44" class="edge"><title>MZF1&#45;&gt;TCF21</title>
<a xlink:title="TCF21: 0.078||remove11root">
<path fill="none" stroke="#c8cdff" stroke-width="3" d="M406.61,-91.8865C379.104,-119.393 326.73,-171.767 296.128,-202.369"/>
<polygon fill="#c8cdff" stroke="#c8cdff" points="293.988,-200.549 290.311,-208.185 297.948,-204.509 293.988,-200.549"/>
</a>
</g>
<!-- MZF1&#45;&gt;MAX_TFEB -->
<g id="edge48" class="edge"><title>MZF1&#45;&gt;MAX_TFEB</title>
<a xlink:title="MAX: 0.092||TFEB: 0.007||remove11">
<path fill="none" stroke="#edc7ff" stroke-width="3" d="M427.727,-91.8899C431.786,-115.115 439.598,-156.567 449.177,-191.328 455.28,-213.477 463.895,-238.085 470.545,-256.077"/>
<polygon fill="#edc7ff" stroke="#edc7ff" points="468.024,-257.331 473.446,-263.845 473.27,-255.371 468.024,-257.331"/>
</a>
</g>
<!-- MZF1&#45;&gt;IRF2_STAT2_IRF8_IRF1 -->
<g id="edge50" class="edge"><title>MZF1&#45;&gt;IRF2_STAT2_IRF8_IRF1</title>
<a xlink:title="IRF1: 0.026||remove2root">
<path fill="none" stroke="#eecaff" stroke-width="3" d="M397.586,-81.0643C342.702,-95.7706 216.832,-129.497 136.362,-151.059"/>
<polygon fill="#eecaff" stroke="#eecaff" points="135.24,-148.461 128.237,-153.236 136.689,-153.87 135.24,-148.461"/>
</a>
</g>
<!-- MZF1&#45;&gt;SOX10_SOX15 -->
<g id="edge52" class="edge"><title>MZF1&#45;&gt;SOX10_SOX15</title>
<a xlink:title="SOX10: 0.145||remove11">
<path fill="none" stroke="#ecc5ff" stroke-width="3" d="M397.639,-73.8C346.625,-73.8 235.507,-73.8 170.308,-73.8"/>
<polygon fill="#ecc5ff" stroke="#ecc5ff" points="170.202,-71.0001 162.202,-73.8 170.202,-76.6001 170.202,-71.0001"/>
</a>
</g>
<!-- MZF1&#45;&gt;MZF1 -->
<g id="edge46" class="edge"><title>MZF1&#45;&gt;MZF1</title>
<a xlink:title="MZF1: 0.056||remove6root">
<path fill="none" stroke="#edc9ff" stroke-width="3" d="M451.938,-80.5434C461.721,-80.6884 469.697,-78.4406 469.697,-73.8 469.697,-70.5371 465.754,-68.4571 460.012,-67.5601"/>
<polygon fill="#edc9ff" stroke="#edc9ff" points="460.096,-64.7601 451.938,-67.0566 459.748,-70.3492 460.096,-64.7601"/>
</a>
</g>
<!-- HAND1 -->
<g id="node39" class="node"><title>HAND1</title>
<a xlink:href="HAND1.svg" xlink:title="Z&#45;value: 0.587||remove7">
<polygon fill="#b6beff" stroke="#b6beff" stroke-width="2" points="495.497,-188.448 465.497,-188.448 453.497,-176.448 453.497,-164.448 465.497,-152.448 495.497,-152.448 507.497,-164.448 507.497,-176.448 495.497,-188.448"/>
<path fill="#b6beff" stroke="#b6beff" stroke-width="2" d="M465.497,-188.448C459.497,-188.448 453.497,-182.448 453.497,-176.448"/>
<path fill="#b6beff" stroke="#b6beff" stroke-width="2" d="M453.497,-164.448C453.497,-158.448 459.497,-152.448 465.497,-152.448"/>
<path fill="#b6beff" stroke="#b6beff" stroke-width="2" d="M495.497,-152.448C501.497,-152.448 507.497,-158.448 507.497,-164.448"/>
<path fill="#b6beff" stroke="#b6beff" stroke-width="2" d="M507.497,-176.448C507.497,-182.448 501.497,-188.448 495.497,-188.448"/>
<polyline fill="none" stroke="white" stroke-width="2" points="495.497,-188.448 465.497,-188.448 "/>
<path fill="none" stroke="white" stroke-width="2" d="M465.497,-188.448C459.497,-188.448 453.497,-182.448 453.497,-176.448"/>
<polyline fill="none" stroke="white" stroke-width="2" points="453.497,-176.448 453.497,-164.448 "/>
<path fill="none" stroke="white" stroke-width="2" d="M453.497,-164.448C453.497,-158.448 459.497,-152.448 465.497,-152.448"/>
<polyline fill="none" stroke="white" stroke-width="2" points="465.497,-152.448 495.497,-152.448 "/>
<path fill="none" stroke="white" stroke-width="2" d="M495.497,-152.448C501.497,-152.448 507.497,-158.448 507.497,-164.448"/>
<polyline fill="none" stroke="white" stroke-width="2" points="507.497,-164.448 507.497,-176.448 "/>
<path fill="none" stroke="white" stroke-width="2" d="M507.497,-176.448C507.497,-182.448 501.497,-188.448 495.497,-188.448"/>
<text text-anchor="middle" x="480.497" y="-167.948" font-family="Helvetica,sans-Serif" font-size="10.00">HAND1</text>
</a>
</g>
<!-- HAND1&#45;&gt;TCF21 -->
<g id="edge54" class="edge"><title>HAND1&#45;&gt;TCF21</title>
<a xlink:title="TCF21: 0.062||remove7root">
<path fill="none" stroke="#c9ceff" stroke-width="3" d="M453.272,-177.743C415.856,-187.769 348.507,-205.815 307.346,-216.844"/>
<polygon fill="#c9ceff" stroke="#c9ceff" points="306.483,-214.177 299.48,-218.952 307.932,-219.586 306.483,-214.177"/>
</a>
</g>
</g>
</svg>
