<?xml version="1.0" encoding="UTF-8" standalone="no"?>
<!DOCTYPE svg PUBLIC "-//W3C//DTD SVG 1.1//EN"
 "http://www.w3.org/Graphics/SVG/1.1/DTD/svg11.dtd">
<!-- Generated by graphviz version 2.28.0 (20110630.0925)
 -->
<!-- Title: _anonymous_0 Pages: 1 -->
<svg width="605pt" height="557pt"
 viewBox="0.00 0.00 605.28 556.78" xmlns="http://www.w3.org/2000/svg" xmlns:xlink="http://www.w3.org/1999/xlink">
<g id="graph1" class="graph" transform="scale(1 1) rotate(0) translate(4 552.784)">
<title>_anonymous_0</title>
<polygon fill="white" stroke="white" points="-4,5 -4,-552.784 602.284,-552.784 602.284,5 -4,5"/>
<!-- ESR1 -->
<g id="node1" class="node"><title>ESR1</title>
<a xlink:href="ESR1.svg" xlink:title="Z&#45;value: 6.597||remove23">
<polygon fill="#3247ff" stroke="#3247ff" stroke-width="2" points="572.784,-361.092 542.784,-361.092 530.784,-349.092 530.784,-337.092 542.784,-325.092 572.784,-325.092 584.784,-337.092 584.784,-349.092 572.784,-361.092"/>
<path fill="#3247ff" stroke="#3247ff" stroke-width="2" d="M542.784,-361.092C536.784,-361.092 530.784,-355.092 530.784,-349.092"/>
<path fill="#3247ff" stroke="#3247ff" stroke-width="2" d="M530.784,-337.092C530.784,-331.092 536.784,-325.092 542.784,-325.092"/>
<path fill="#3247ff" stroke="#3247ff" stroke-width="2" d="M572.784,-325.092C578.784,-325.092 584.784,-331.092 584.784,-337.092"/>
<path fill="#3247ff" stroke="#3247ff" stroke-width="2" d="M584.784,-349.092C584.784,-355.092 578.784,-361.092 572.784,-361.092"/>
<polyline fill="none" stroke="white" stroke-width="2" points="572.784,-361.092 542.784,-361.092 "/>
<path fill="none" stroke="white" stroke-width="2" d="M542.784,-361.092C536.784,-361.092 530.784,-355.092 530.784,-349.092"/>
<polyline fill="none" stroke="white" stroke-width="2" points="530.784,-349.092 530.784,-337.092 "/>
<path fill="none" stroke="white" stroke-width="2" d="M530.784,-337.092C530.784,-331.092 536.784,-325.092 542.784,-325.092"/>
<polyline fill="none" stroke="white" stroke-width="2" points="542.784,-325.092 572.784,-325.092 "/>
<path fill="none" stroke="white" stroke-width="2" d="M572.784,-325.092C578.784,-325.092 584.784,-331.092 584.784,-337.092"/>
<polyline fill="none" stroke="white" stroke-width="2" points="584.784,-337.092 584.784,-349.092 "/>
<path fill="none" stroke="white" stroke-width="2" d="M584.784,-349.092C584.784,-355.092 578.784,-361.092 572.784,-361.092"/>
<text text-anchor="middle" x="557.784" y="-340.592" font-family="Helvetica,sans-Serif" font-size="10.00" fill="white">ESR1</text>
</a>
</g>
<!-- MEF2D_MEF2A -->
<g id="node2" class="node"><title>MEF2D_MEF2A</title>
<a xlink:href="MEF2D_MEF2A.svg" xlink:title="Z&#45;value: 0.591||remove25">
<polygon fill="#bec4ff" stroke="#bec4ff" stroke-width="2" points="521.334,-480.084 456.834,-480.084 444.834,-468.084 444.834,-456.084 456.834,-444.084 521.334,-444.084 533.334,-456.084 533.334,-468.084 521.334,-480.084"/>
<path fill="#bec4ff" stroke="#bec4ff" stroke-width="2" d="M456.834,-480.084C450.834,-480.084 444.834,-474.084 444.834,-468.084"/>
<path fill="#bec4ff" stroke="#bec4ff" stroke-width="2" d="M444.834,-456.084C444.834,-450.084 450.834,-444.084 456.834,-444.084"/>
<path fill="#bec4ff" stroke="#bec4ff" stroke-width="2" d="M521.334,-444.084C527.334,-444.084 533.334,-450.084 533.334,-456.084"/>
<path fill="#bec4ff" stroke="#bec4ff" stroke-width="2" d="M533.334,-468.084C533.334,-474.084 527.334,-480.084 521.334,-480.084"/>
<polyline fill="none" stroke="white" stroke-width="2" points="521.334,-480.084 456.834,-480.084 "/>
<path fill="none" stroke="white" stroke-width="2" d="M456.834,-480.084C450.834,-480.084 444.834,-474.084 444.834,-468.084"/>
<polyline fill="none" stroke="white" stroke-width="2" points="444.834,-468.084 444.834,-456.084 "/>
<path fill="none" stroke="white" stroke-width="2" d="M444.834,-456.084C444.834,-450.084 450.834,-444.084 456.834,-444.084"/>
<polyline fill="none" stroke="white" stroke-width="2" points="456.834,-444.084 521.334,-444.084 "/>
<path fill="none" stroke="white" stroke-width="2" d="M521.334,-444.084C527.334,-444.084 533.334,-450.084 533.334,-456.084"/>
<polyline fill="none" stroke="white" stroke-width="2" points="533.334,-456.084 533.334,-468.084 "/>
<path fill="none" stroke="white" stroke-width="2" d="M533.334,-468.084C533.334,-474.084 527.334,-480.084 521.334,-480.084"/>
<text text-anchor="middle" x="489.084" y="-459.584" font-family="Helvetica,sans-Serif" font-size="10.00">MEF2D_MEF2A</text>
</a>
</g>
<!-- ESR1&#45;&gt;MEF2D_MEF2A -->
<g id="edge2" class="edge"><title>ESR1&#45;&gt;MEF2D_MEF2A</title>
<a xlink:title="MEF2A: 7.040||remove23">
<path fill="none" stroke="#bd32ff" stroke-width="3" d="M547.35,-361.164C535.698,-381.345 516.759,-414.15 503.65,-436.854"/>
<polygon fill="#bd32ff" stroke="#bd32ff" points="501.191,-435.513 499.616,-443.841 506.041,-438.313 501.191,-435.513"/>
</a>
</g>
<!-- MNT_HEY1_HEY2 -->
<g id="node4" class="node"><title>MNT_HEY1_HEY2</title>
<a xlink:href="MNT_HEY1_HEY2.svg" xlink:title="Z&#45;value: 0.774||remove21">
<polygon fill="#bac0ff" stroke="#bac0ff" stroke-width="2" points="408.342,-548.784 331.842,-548.784 319.842,-536.784 319.842,-524.784 331.842,-512.784 408.342,-512.784 420.342,-524.784 420.342,-536.784 408.342,-548.784"/>
<path fill="#bac0ff" stroke="#bac0ff" stroke-width="2" d="M331.842,-548.784C325.842,-548.784 319.842,-542.784 319.842,-536.784"/>
<path fill="#bac0ff" stroke="#bac0ff" stroke-width="2" d="M319.842,-524.784C319.842,-518.784 325.842,-512.784 331.842,-512.784"/>
<path fill="#bac0ff" stroke="#bac0ff" stroke-width="2" d="M408.342,-512.784C414.342,-512.784 420.342,-518.784 420.342,-524.784"/>
<path fill="#bac0ff" stroke="#bac0ff" stroke-width="2" d="M420.342,-536.784C420.342,-542.784 414.342,-548.784 408.342,-548.784"/>
<polyline fill="none" stroke="white" stroke-width="2" points="408.342,-548.784 331.842,-548.784 "/>
<path fill="none" stroke="white" stroke-width="2" d="M331.842,-548.784C325.842,-548.784 319.842,-542.784 319.842,-536.784"/>
<polyline fill="none" stroke="white" stroke-width="2" points="319.842,-536.784 319.842,-524.784 "/>
<path fill="none" stroke="white" stroke-width="2" d="M319.842,-524.784C319.842,-518.784 325.842,-512.784 331.842,-512.784"/>
<polyline fill="none" stroke="white" stroke-width="2" points="331.842,-512.784 408.342,-512.784 "/>
<path fill="none" stroke="white" stroke-width="2" d="M408.342,-512.784C414.342,-512.784 420.342,-518.784 420.342,-524.784"/>
<polyline fill="none" stroke="white" stroke-width="2" points="420.342,-524.784 420.342,-536.784 "/>
<path fill="none" stroke="white" stroke-width="2" d="M420.342,-536.784C420.342,-542.784 414.342,-548.784 408.342,-548.784"/>
<text text-anchor="middle" x="370.092" y="-528.284" font-family="Helvetica,sans-Serif" font-size="10.00">MNT_HEY1_HEY2</text>
</a>
</g>
<!-- ESR1&#45;&gt;MNT_HEY1_HEY2 -->
<g id="edge4" class="edge"><title>ESR1&#45;&gt;MNT_HEY1_HEY2</title>
<a xlink:title="MNT: 3.579||remove21">
<path fill="none" stroke="#d57eff" stroke-width="3" d="M531.845,-361.37C506.388,-379.946 467.167,-410.312 437.464,-441.204 418.175,-461.265 399.411,-486.869 386.606,-505.562"/>
<polygon fill="#d57eff" stroke="#d57eff" points="384,-504.417 381.834,-512.612 388.637,-507.556 384,-504.417"/>
</a>
</g>
<!-- IRF2_STAT2_IRF8_IRF1 -->
<g id="node6" class="node"><title>IRF2_STAT2_IRF8_IRF1</title>
<a xlink:href="IRF2_STAT2_IRF8_IRF1.svg" xlink:title="Z&#45;value: 0.544||remove20">
<polygon fill="#bfc5ff" stroke="#bfc5ff" stroke-width="2" points="284.692,-548.784 180.692,-548.784 168.692,-536.784 168.692,-524.784 180.692,-512.784 284.692,-512.784 296.692,-524.784 296.692,-536.784 284.692,-548.784"/>
<path fill="#bfc5ff" stroke="#bfc5ff" stroke-width="2" d="M180.692,-548.784C174.692,-548.784 168.692,-542.784 168.692,-536.784"/>
<path fill="#bfc5ff" stroke="#bfc5ff" stroke-width="2" d="M168.692,-524.784C168.692,-518.784 174.692,-512.784 180.692,-512.784"/>
<path fill="#bfc5ff" stroke="#bfc5ff" stroke-width="2" d="M284.692,-512.784C290.692,-512.784 296.692,-518.784 296.692,-524.784"/>
<path fill="#bfc5ff" stroke="#bfc5ff" stroke-width="2" d="M296.692,-536.784C296.692,-542.784 290.692,-548.784 284.692,-548.784"/>
<polyline fill="none" stroke="white" stroke-width="2" points="284.692,-548.784 180.692,-548.784 "/>
<path fill="none" stroke="white" stroke-width="2" d="M180.692,-548.784C174.692,-548.784 168.692,-542.784 168.692,-536.784"/>
<polyline fill="none" stroke="white" stroke-width="2" points="168.692,-536.784 168.692,-524.784 "/>
<path fill="none" stroke="white" stroke-width="2" d="M168.692,-524.784C168.692,-518.784 174.692,-512.784 180.692,-512.784"/>
<polyline fill="none" stroke="white" stroke-width="2" points="180.692,-512.784 284.692,-512.784 "/>
<path fill="none" stroke="white" stroke-width="2" d="M284.692,-512.784C290.692,-512.784 296.692,-518.784 296.692,-524.784"/>
<polyline fill="none" stroke="white" stroke-width="2" points="296.692,-524.784 296.692,-536.784 "/>
<path fill="none" stroke="white" stroke-width="2" d="M296.692,-536.784C296.692,-542.784 290.692,-548.784 284.692,-548.784"/>
<text text-anchor="middle" x="232.692" y="-528.284" font-family="Helvetica,sans-Serif" font-size="10.00">IRF2_STAT2_IRF8_IRF1</text>
</a>
</g>
<!-- MNT_HEY1_HEY2&#45;&gt;IRF2_STAT2_IRF8_IRF1 -->
<g id="edge6" class="edge"><title>MNT_HEY1_HEY2&#45;&gt;IRF2_STAT2_IRF8_IRF1</title>
<a xlink:title="IRF2: 0.001||remove0root">
<path fill="none" stroke="#eecbff" stroke-width="3" d="M319.32,-530.784C314.618,-530.784 309.796,-530.784 304.951,-530.784"/>
<polygon fill="#eecbff" stroke="#eecbff" points="304.791,-527.984 296.791,-530.784 304.791,-533.584 304.791,-527.984"/>
</a>
</g>
<!-- LHX6 -->
<g id="node8" class="node"><title>LHX6</title>
<a xlink:href="LHX6.svg" xlink:title="Z&#45;value: 0.402||remove14">
<polygon fill="#c2c8ff" stroke="#c2c8ff" stroke-width="2" points="128.7,-480.084 98.7,-480.084 86.7,-468.084 86.7,-456.084 98.7,-444.084 128.7,-444.084 140.7,-456.084 140.7,-468.084 128.7,-480.084"/>
<path fill="#c2c8ff" stroke="#c2c8ff" stroke-width="2" d="M98.7,-480.084C92.7,-480.084 86.7,-474.084 86.7,-468.084"/>
<path fill="#c2c8ff" stroke="#c2c8ff" stroke-width="2" d="M86.7,-456.084C86.7,-450.084 92.7,-444.084 98.7,-444.084"/>
<path fill="#c2c8ff" stroke="#c2c8ff" stroke-width="2" d="M128.7,-444.084C134.7,-444.084 140.7,-450.084 140.7,-456.084"/>
<path fill="#c2c8ff" stroke="#c2c8ff" stroke-width="2" d="M140.7,-468.084C140.7,-474.084 134.7,-480.084 128.7,-480.084"/>
<polyline fill="none" stroke="white" stroke-width="2" points="128.7,-480.084 98.7,-480.084 "/>
<path fill="none" stroke="white" stroke-width="2" d="M98.7,-480.084C92.7,-480.084 86.7,-474.084 86.7,-468.084"/>
<polyline fill="none" stroke="white" stroke-width="2" points="86.7,-468.084 86.7,-456.084 "/>
<path fill="none" stroke="white" stroke-width="2" d="M86.7,-456.084C86.7,-450.084 92.7,-444.084 98.7,-444.084"/>
<polyline fill="none" stroke="white" stroke-width="2" points="98.7,-444.084 128.7,-444.084 "/>
<path fill="none" stroke="white" stroke-width="2" d="M128.7,-444.084C134.7,-444.084 140.7,-450.084 140.7,-456.084"/>
<polyline fill="none" stroke="white" stroke-width="2" points="140.7,-456.084 140.7,-468.084 "/>
<path fill="none" stroke="white" stroke-width="2" d="M140.7,-468.084C140.7,-474.084 134.7,-480.084 128.7,-480.084"/>
<text text-anchor="middle" x="113.7" y="-459.584" font-family="Helvetica,sans-Serif" font-size="10.00">LHX6</text>
</a>
</g>
<!-- MNT_HEY1_HEY2&#45;&gt;LHX6 -->
<g id="edge8" class="edge"><title>MNT_HEY1_HEY2&#45;&gt;LHX6</title>
<a xlink:title="LHX6: 0.044||remove10root">
<path fill="none" stroke="#eecbff" stroke-width="3" d="M319.522,-513.687C315.276,-512.367 311.037,-511.089 306.932,-509.904 252.063,-494.07 187.517,-478.753 148.648,-469.882"/>
<polygon fill="#eecbff" stroke="#eecbff" points="149.178,-467.132 140.757,-468.09 147.938,-472.592 149.178,-467.132"/>
</a>
</g>
<!-- DBX2_HLX -->
<g id="node10" class="node"><title>DBX2_HLX</title>
<a xlink:href="DBX2_HLX.svg" xlink:title="Z&#45;value: 0.615||remove17">
<polygon fill="#bdc4ff" stroke="#bdc4ff" stroke-width="2" points="67,-361.092 23,-361.092 11,-349.092 11,-337.092 23,-325.092 67,-325.092 79,-337.092 79,-349.092 67,-361.092"/>
<path fill="#bdc4ff" stroke="#bdc4ff" stroke-width="2" d="M23,-361.092C17,-361.092 11,-355.092 11,-349.092"/>
<path fill="#bdc4ff" stroke="#bdc4ff" stroke-width="2" d="M11,-337.092C11,-331.092 17,-325.092 23,-325.092"/>
<path fill="#bdc4ff" stroke="#bdc4ff" stroke-width="2" d="M67,-325.092C73,-325.092 79,-331.092 79,-337.092"/>
<path fill="#bdc4ff" stroke="#bdc4ff" stroke-width="2" d="M79,-349.092C79,-355.092 73,-361.092 67,-361.092"/>
<polyline fill="none" stroke="white" stroke-width="2" points="67,-361.092 23,-361.092 "/>
<path fill="none" stroke="white" stroke-width="2" d="M23,-361.092C17,-361.092 11,-355.092 11,-349.092"/>
<polyline fill="none" stroke="white" stroke-width="2" points="11,-349.092 11,-337.092 "/>
<path fill="none" stroke="white" stroke-width="2" d="M11,-337.092C11,-331.092 17,-325.092 23,-325.092"/>
<polyline fill="none" stroke="white" stroke-width="2" points="23,-325.092 67,-325.092 "/>
<path fill="none" stroke="white" stroke-width="2" d="M67,-325.092C73,-325.092 79,-331.092 79,-337.092"/>
<polyline fill="none" stroke="white" stroke-width="2" points="79,-337.092 79,-349.092 "/>
<path fill="none" stroke="white" stroke-width="2" d="M79,-349.092C79,-355.092 73,-361.092 67,-361.092"/>
<text text-anchor="middle" x="45" y="-340.592" font-family="Helvetica,sans-Serif" font-size="10.00">DBX2_HLX</text>
</a>
</g>
<!-- MNT_HEY1_HEY2&#45;&gt;DBX2_HLX -->
<g id="edge10" class="edge"><title>MNT_HEY1_HEY2&#45;&gt;DBX2_HLX</title>
<a xlink:title="HLX: 0.022||remove7root">
<path fill="none" stroke="#eecbff" stroke-width="3" d="M338.625,-512.617C278.786,-478.068 148.769,-403.003 83.7089,-365.44"/>
<polygon fill="#eecbff" stroke="#eecbff" points="84.8121,-362.844 76.4839,-361.269 82.0121,-367.694 84.8121,-362.844"/>
</a>
</g>
<!-- PKNOX1_TGIF2 -->
<g id="node12" class="node"><title>PKNOX1_TGIF2</title>
<a xlink:href="PKNOX1_TGIF2.svg" xlink:title="Z&#45;value: 0.465||remove22">
<polygon fill="#c1c7ff" stroke="#c1c7ff" stroke-width="2" points="78,-223.692 12,-223.692 0,-211.692 0,-199.692 12,-187.692 78,-187.692 90,-199.692 90,-211.692 78,-223.692"/>
<path fill="#c1c7ff" stroke="#c1c7ff" stroke-width="2" d="M12,-223.692C6,-223.692 0,-217.692 0,-211.692"/>
<path fill="#c1c7ff" stroke="#c1c7ff" stroke-width="2" d="M0,-199.692C0,-193.692 6,-187.692 12,-187.692"/>
<path fill="#c1c7ff" stroke="#c1c7ff" stroke-width="2" d="M78,-187.692C84,-187.692 90,-193.692 90,-199.692"/>
<path fill="#c1c7ff" stroke="#c1c7ff" stroke-width="2" d="M90,-211.692C90,-217.692 84,-223.692 78,-223.692"/>
<polyline fill="none" stroke="white" stroke-width="2" points="78,-223.692 12,-223.692 "/>
<path fill="none" stroke="white" stroke-width="2" d="M12,-223.692C6,-223.692 0,-217.692 0,-211.692"/>
<polyline fill="none" stroke="white" stroke-width="2" points="0,-211.692 0,-199.692 "/>
<path fill="none" stroke="white" stroke-width="2" d="M0,-199.692C0,-193.692 6,-187.692 12,-187.692"/>
<polyline fill="none" stroke="white" stroke-width="2" points="12,-187.692 78,-187.692 "/>
<path fill="none" stroke="white" stroke-width="2" d="M78,-187.692C84,-187.692 90,-193.692 90,-199.692"/>
<polyline fill="none" stroke="white" stroke-width="2" points="90,-199.692 90,-211.692 "/>
<path fill="none" stroke="white" stroke-width="2" d="M90,-211.692C90,-217.692 84,-223.692 78,-223.692"/>
<text text-anchor="middle" x="45" y="-203.192" font-family="Helvetica,sans-Serif" font-size="10.00">PKNOX1_TGIF2</text>
</a>
</g>
<!-- MNT_HEY1_HEY2&#45;&gt;PKNOX1_TGIF2 -->
<g id="edge12" class="edge"><title>MNT_HEY1_HEY2&#45;&gt;PKNOX1_TGIF2</title>
<a xlink:title="TGIF2: 0.003||remove1root">
<path fill="none" stroke="#eecbff" stroke-width="3" d="M351.682,-512.374C296.25,-456.942 130.931,-291.623 68.883,-229.575"/>
<polygon fill="#eecbff" stroke="#eecbff" points="70.8447,-227.577 63.2079,-223.9 66.8849,-231.537 70.8447,-227.577"/>
</a>
</g>
<!-- IRF2_STAT2_IRF8_IRF1&#45;&gt;IRF2_STAT2_IRF8_IRF1 -->
<g id="edge44" class="edge"><title>IRF2_STAT2_IRF8_IRF1&#45;&gt;IRF2_STAT2_IRF8_IRF1</title>
<a xlink:title="IRF2: 0.013||remove5root">
<path fill="none" stroke="#eecbff" stroke-width="3" d="M296.98,-537.029C307.477,-536.135 314.692,-534.053 314.692,-530.784 314.692,-528.434 310.965,-526.697 304.971,-525.575"/>
<polygon fill="#eecbff" stroke="#eecbff" points="305.273,-522.791 296.98,-524.538 304.553,-528.344 305.273,-522.791"/>
</a>
</g>
<!-- IRF2_STAT2_IRF8_IRF1&#45;&gt;DBX2_HLX -->
<g id="edge46" class="edge"><title>IRF2_STAT2_IRF8_IRF1&#45;&gt;DBX2_HLX</title>
<a xlink:title="HLX: 0.011||remove3root">
<path fill="none" stroke="#eecbff" stroke-width="3" d="M215.001,-512.491C197.37,-494.311 169.472,-465.684 145.02,-441.204 119.518,-415.673 89.983,-386.783 69.6541,-367.002"/>
<polygon fill="#eecbff" stroke="#eecbff" points="71.6033,-364.992 63.9158,-361.423 67.6994,-369.007 71.6033,-364.992"/>
</a>
</g>
<!-- IRF2_STAT2_IRF8_IRF1&#45;&gt;PKNOX1_TGIF2 -->
<g id="edge50" class="edge"><title>IRF2_STAT2_IRF8_IRF1&#45;&gt;PKNOX1_TGIF2</title>
<a xlink:title="TGIF2: 0.034||remove8root">
<path fill="none" stroke="#eecbff" stroke-width="3" d="M222.063,-512.374C190.318,-457.389 96.1478,-294.282 59.6671,-231.096"/>
<polygon fill="#eecbff" stroke="#eecbff" points="61.9373,-229.428 55.5123,-223.9 57.0875,-232.228 61.9373,-229.428"/>
</a>
</g>
<!-- EPAS1_BCL3 -->
<g id="node29" class="node"><title>EPAS1_BCL3</title>
<a xlink:href="EPAS1_BCL3.svg" xlink:title="Z&#45;value: 0.784||remove24">
<polygon fill="#b9c0ff" stroke="#b9c0ff" stroke-width="2" points="585.034,-223.692 530.534,-223.692 518.534,-211.692 518.534,-199.692 530.534,-187.692 585.034,-187.692 597.034,-199.692 597.034,-211.692 585.034,-223.692"/>
<path fill="#b9c0ff" stroke="#b9c0ff" stroke-width="2" d="M530.534,-223.692C524.534,-223.692 518.534,-217.692 518.534,-211.692"/>
<path fill="#b9c0ff" stroke="#b9c0ff" stroke-width="2" d="M518.534,-199.692C518.534,-193.692 524.534,-187.692 530.534,-187.692"/>
<path fill="#b9c0ff" stroke="#b9c0ff" stroke-width="2" d="M585.034,-187.692C591.034,-187.692 597.034,-193.692 597.034,-199.692"/>
<path fill="#b9c0ff" stroke="#b9c0ff" stroke-width="2" d="M597.034,-211.692C597.034,-217.692 591.034,-223.692 585.034,-223.692"/>
<polyline fill="none" stroke="white" stroke-width="2" points="585.034,-223.692 530.534,-223.692 "/>
<path fill="none" stroke="white" stroke-width="2" d="M530.534,-223.692C524.534,-223.692 518.534,-217.692 518.534,-211.692"/>
<polyline fill="none" stroke="white" stroke-width="2" points="518.534,-211.692 518.534,-199.692 "/>
<path fill="none" stroke="white" stroke-width="2" d="M518.534,-199.692C518.534,-193.692 524.534,-187.692 530.534,-187.692"/>
<polyline fill="none" stroke="white" stroke-width="2" points="530.534,-187.692 585.034,-187.692 "/>
<path fill="none" stroke="white" stroke-width="2" d="M585.034,-187.692C591.034,-187.692 597.034,-193.692 597.034,-199.692"/>
<polyline fill="none" stroke="white" stroke-width="2" points="597.034,-199.692 597.034,-211.692 "/>
<path fill="none" stroke="white" stroke-width="2" d="M597.034,-211.692C597.034,-217.692 591.034,-223.692 585.034,-223.692"/>
<text text-anchor="middle" x="557.784" y="-203.192" font-family="Helvetica,sans-Serif" font-size="10.00">EPAS1_BCL3</text>
</a>
</g>
<!-- IRF2_STAT2_IRF8_IRF1&#45;&gt;EPAS1_BCL3 -->
<g id="edge48" class="edge"><title>IRF2_STAT2_IRF8_IRF1&#45;&gt;EPAS1_BCL3</title>
<a xlink:title="EPAS1: 0.007||remove2root">
<path fill="none" stroke="#eecbff" stroke-width="3" d="M251.102,-512.374C306.533,-456.942 471.853,-291.623 533.901,-229.575"/>
<polygon fill="#eecbff" stroke="#eecbff" points="535.899,-231.537 539.576,-223.9 531.939,-227.577 535.899,-231.537"/>
</a>
</g>
<!-- DBX2_HLX&#45;&gt;ESR1 -->
<g id="edge42" class="edge"><title>DBX2_HLX&#45;&gt;ESR1</title>
<a xlink:title="ESR1: 0.082||remove13root">
<path fill="none" stroke="#eecaff" stroke-width="3" d="M79.0423,-343.092C171.867,-343.092 428.713,-343.092 522.724,-343.092"/>
<polygon fill="#eecaff" stroke="#eecaff" points="522.782,-345.892 530.782,-343.092 522.782,-340.292 522.782,-345.892"/>
</a>
</g>
<!-- FOXN1 -->
<g id="node25" class="node"><title>FOXN1</title>
<a xlink:href="FOXN1.svg" xlink:title="Z&#45;value: 0.388||remove16">
<polygon fill="#c3c9ff" stroke="#c3c9ff" stroke-width="2" points="504.084,-104.7 474.084,-104.7 462.084,-92.7 462.084,-80.7 474.084,-68.7 504.084,-68.7 516.084,-80.7 516.084,-92.7 504.084,-104.7"/>
<path fill="#c3c9ff" stroke="#c3c9ff" stroke-width="2" d="M474.084,-104.7C468.084,-104.7 462.084,-98.7 462.084,-92.7"/>
<path fill="#c3c9ff" stroke="#c3c9ff" stroke-width="2" d="M462.084,-80.7C462.084,-74.7 468.084,-68.7 474.084,-68.7"/>
<path fill="#c3c9ff" stroke="#c3c9ff" stroke-width="2" d="M504.084,-68.7C510.084,-68.7 516.084,-74.7 516.084,-80.7"/>
<path fill="#c3c9ff" stroke="#c3c9ff" stroke-width="2" d="M516.084,-92.7C516.084,-98.7 510.084,-104.7 504.084,-104.7"/>
<polyline fill="none" stroke="white" stroke-width="2" points="504.084,-104.7 474.084,-104.7 "/>
<path fill="none" stroke="white" stroke-width="2" d="M474.084,-104.7C468.084,-104.7 462.084,-98.7 462.084,-92.7"/>
<polyline fill="none" stroke="white" stroke-width="2" points="462.084,-92.7 462.084,-80.7 "/>
<path fill="none" stroke="white" stroke-width="2" d="M462.084,-80.7C462.084,-74.7 468.084,-68.7 474.084,-68.7"/>
<polyline fill="none" stroke="white" stroke-width="2" points="474.084,-68.7 504.084,-68.7 "/>
<path fill="none" stroke="white" stroke-width="2" d="M504.084,-68.7C510.084,-68.7 516.084,-74.7 516.084,-80.7"/>
<polyline fill="none" stroke="white" stroke-width="2" points="516.084,-80.7 516.084,-92.7 "/>
<path fill="none" stroke="white" stroke-width="2" d="M516.084,-92.7C516.084,-98.7 510.084,-104.7 504.084,-104.7"/>
<text text-anchor="middle" x="489.084" y="-84.2" font-family="Helvetica,sans-Serif" font-size="10.00">FOXN1</text>
</a>
</g>
<!-- PKNOX1_TGIF2&#45;&gt;FOXN1 -->
<g id="edge52" class="edge"><title>PKNOX1_TGIF2&#45;&gt;FOXN1</title>
<a xlink:title="FOXN1: 0.049||remove11root">
<path fill="none" stroke="#eecaff" stroke-width="3" d="M90.025,-193.627C178.71,-169.864 374.304,-117.455 454.126,-96.0669"/>
<polygon fill="#eecaff" stroke="#eecaff" points="454.929,-98.7507 461.931,-93.9755 453.479,-93.3415 454.929,-98.7507"/>
</a>
</g>
<!-- TFAP2B -->
<g id="node14" class="node"><title>TFAP2B</title>
<a xlink:href="TFAP2B.svg" xlink:title="Z&#45;value: 0.813||remove26">
<polygon fill="#ffb9b9" stroke="#ffb9b9" stroke-width="2" points="316.392,-292.392 286.392,-292.392 274.392,-280.392 274.392,-268.392 286.392,-256.392 316.392,-256.392 328.392,-268.392 328.392,-280.392 316.392,-292.392"/>
<path fill="#ffb9b9" stroke="#ffb9b9" stroke-width="2" d="M286.392,-292.392C280.392,-292.392 274.392,-286.392 274.392,-280.392"/>
<path fill="#ffb9b9" stroke="#ffb9b9" stroke-width="2" d="M274.392,-268.392C274.392,-262.392 280.392,-256.392 286.392,-256.392"/>
<path fill="#ffb9b9" stroke="#ffb9b9" stroke-width="2" d="M316.392,-256.392C322.392,-256.392 328.392,-262.392 328.392,-268.392"/>
<path fill="#ffb9b9" stroke="#ffb9b9" stroke-width="2" d="M328.392,-280.392C328.392,-286.392 322.392,-292.392 316.392,-292.392"/>
<polyline fill="none" stroke="white" stroke-width="2" points="316.392,-292.392 286.392,-292.392 "/>
<path fill="none" stroke="white" stroke-width="2" d="M286.392,-292.392C280.392,-292.392 274.392,-286.392 274.392,-280.392"/>
<polyline fill="none" stroke="white" stroke-width="2" points="274.392,-280.392 274.392,-268.392 "/>
<path fill="none" stroke="white" stroke-width="2" d="M274.392,-268.392C274.392,-262.392 280.392,-256.392 286.392,-256.392"/>
<polyline fill="none" stroke="white" stroke-width="2" points="286.392,-256.392 316.392,-256.392 "/>
<path fill="none" stroke="white" stroke-width="2" d="M316.392,-256.392C322.392,-256.392 328.392,-262.392 328.392,-268.392"/>
<polyline fill="none" stroke="white" stroke-width="2" points="328.392,-268.392 328.392,-280.392 "/>
<path fill="none" stroke="white" stroke-width="2" d="M328.392,-280.392C328.392,-286.392 322.392,-292.392 316.392,-292.392"/>
<text text-anchor="middle" x="301.392" y="-271.892" font-family="Helvetica,sans-Serif" font-size="10.00">TFAP2B</text>
</a>
</g>
<!-- TFAP2B&#45;&gt;ESR1 -->
<g id="edge24" class="edge"><title>TFAP2B&#45;&gt;ESR1</title>
<a xlink:title="ESR1: 0.448||remove23root">
<path fill="none" stroke="#ffc2c2" stroke-width="3" d="M328.83,-281.744C375.673,-294.295 471,-319.838 522.643,-333.676"/>
<polygon fill="#ffc2c2" stroke="#ffc2c2" points="522.091,-336.427 530.543,-335.793 523.54,-331.017 522.091,-336.427"/>
</a>
</g>
<!-- TFAP2B&#45;&gt;MEF2D_MEF2A -->
<g id="edge18" class="edge"><title>TFAP2B&#45;&gt;MEF2D_MEF2A</title>
<a xlink:title="MEF2A: 0.844||remove25root">
<path fill="none" stroke="#ffb9b9" stroke-width="3" d="M319.73,-292.73C353.878,-326.878 427.181,-400.181 465.166,-438.166"/>
<polygon fill="#ffb9b9" stroke="#ffb9b9" points="463.31,-440.27 470.947,-443.947 467.27,-436.31 463.31,-440.27"/>
</a>
</g>
<!-- TFAP2B&#45;&gt;MNT_HEY1_HEY2 -->
<g id="edge20" class="edge"><title>TFAP2B&#45;&gt;MNT_HEY1_HEY2</title>
<a xlink:title="MNT: 0.217||remove21root">
<path fill="none" stroke="#ffc7c7" stroke-width="3" d="M306.223,-292.421C318.196,-337.106 349.278,-453.106 363.187,-505.015"/>
<polygon fill="#ffc7c7" stroke="#ffc7c7" points="360.491,-505.772 365.266,-512.775 365.9,-504.323 360.491,-505.772"/>
</a>
</g>
<!-- TFAP2B&#45;&gt;IRF2_STAT2_IRF8_IRF1 -->
<g id="edge14" class="edge"><title>TFAP2B&#45;&gt;IRF2_STAT2_IRF8_IRF1</title>
<a xlink:title="IRF2: 0.173||remove20root">
<path fill="none" stroke="#ffc8c8" stroke-width="3" d="M296.561,-292.421C284.588,-337.106 253.506,-453.106 239.597,-505.015"/>
<polygon fill="#ffc8c8" stroke="#ffc8c8" points="236.883,-504.323 237.517,-512.775 242.293,-505.772 236.883,-504.323"/>
</a>
</g>
<!-- TFAP2B&#45;&gt;LHX6 -->
<g id="edge30" class="edge"><title>TFAP2B&#45;&gt;LHX6</title>
<a xlink:title="LHX6: 0.088||remove14root">
<path fill="none" stroke="#ffcaca" stroke-width="3" d="M283.053,-292.73C248.906,-326.878 175.603,-400.181 137.618,-438.166"/>
<polygon fill="#ffcaca" stroke="#ffcaca" points="135.514,-436.31 131.837,-443.947 139.473,-440.27 135.514,-436.31"/>
</a>
</g>
<!-- TFAP2B&#45;&gt;DBX2_HLX -->
<g id="edge32" class="edge"><title>TFAP2B&#45;&gt;DBX2_HLX</title>
<a xlink:title="HLX: 0.105||remove17root">
<path fill="none" stroke="#ffc9c9" stroke-width="3" d="M273.953,-281.744C229.104,-293.761 139.806,-317.689 86.9607,-331.849"/>
<polygon fill="#ffc9c9" stroke="#ffc9c9" points="86.1241,-329.174 79.1214,-333.949 87.5735,-334.583 86.1241,-329.174"/>
</a>
</g>
<!-- TFAP2B&#45;&gt;PKNOX1_TGIF2 -->
<g id="edge36" class="edge"><title>TFAP2B&#45;&gt;PKNOX1_TGIF2</title>
<a xlink:title="PKNOX1: 0.276||remove22root">
<path fill="none" stroke="#ffc5c5" stroke-width="3" d="M273.953,-267.04C232.176,-255.845 151.83,-234.317 98.3063,-219.975"/>
<polygon fill="#ffc5c5" stroke="#ffc5c5" points="98.7365,-217.192 90.2843,-217.826 97.287,-222.601 98.7365,-217.192"/>
</a>
</g>
<!-- FOSB -->
<g id="node16" class="node"><title>FOSB</title>
<a xlink:href="FOSB.svg" xlink:title="Z&#45;value: 0.605||remove15">
<polygon fill="#bdc4ff" stroke="#bdc4ff" stroke-width="2" points="128.7,-104.7 98.7,-104.7 86.7,-92.7 86.7,-80.7 98.7,-68.7 128.7,-68.7 140.7,-80.7 140.7,-92.7 128.7,-104.7"/>
<path fill="#bdc4ff" stroke="#bdc4ff" stroke-width="2" d="M98.7,-104.7C92.7,-104.7 86.7,-98.7 86.7,-92.7"/>
<path fill="#bdc4ff" stroke="#bdc4ff" stroke-width="2" d="M86.7,-80.7C86.7,-74.7 92.7,-68.7 98.7,-68.7"/>
<path fill="#bdc4ff" stroke="#bdc4ff" stroke-width="2" d="M128.7,-68.7C134.7,-68.7 140.7,-74.7 140.7,-80.7"/>
<path fill="#bdc4ff" stroke="#bdc4ff" stroke-width="2" d="M140.7,-92.7C140.7,-98.7 134.7,-104.7 128.7,-104.7"/>
<polyline fill="none" stroke="white" stroke-width="2" points="128.7,-104.7 98.7,-104.7 "/>
<path fill="none" stroke="white" stroke-width="2" d="M98.7,-104.7C92.7,-104.7 86.7,-98.7 86.7,-92.7"/>
<polyline fill="none" stroke="white" stroke-width="2" points="86.7,-92.7 86.7,-80.7 "/>
<path fill="none" stroke="white" stroke-width="2" d="M86.7,-80.7C86.7,-74.7 92.7,-68.7 98.7,-68.7"/>
<polyline fill="none" stroke="white" stroke-width="2" points="98.7,-68.7 128.7,-68.7 "/>
<path fill="none" stroke="white" stroke-width="2" d="M128.7,-68.7C134.7,-68.7 140.7,-74.7 140.7,-80.7"/>
<polyline fill="none" stroke="white" stroke-width="2" points="140.7,-80.7 140.7,-92.7 "/>
<path fill="none" stroke="white" stroke-width="2" d="M140.7,-92.7C140.7,-98.7 134.7,-104.7 128.7,-104.7"/>
<text text-anchor="middle" x="113.7" y="-84.2" font-family="Helvetica,sans-Serif" font-size="10.00">FOSB</text>
</a>
</g>
<!-- TFAP2B&#45;&gt;FOSB -->
<g id="edge16" class="edge"><title>TFAP2B&#45;&gt;FOSB</title>
<a xlink:title="FOSB: 0.097||remove15root">
<path fill="none" stroke="#ffc9c9" stroke-width="3" d="M283.053,-256.053C248.906,-221.906 175.603,-148.603 137.618,-110.618"/>
<polygon fill="#ffc9c9" stroke="#ffc9c9" points="139.473,-108.514 131.837,-104.837 135.514,-112.473 139.473,-108.514"/>
</a>
</g>
<!-- HOXA2_HOXB1 -->
<g id="node20" class="node"><title>HOXA2_HOXB1</title>
<a xlink:href="HOXA2_HOXB1.svg" xlink:title="Z&#45;value: 0.451||remove19">
<polygon fill="#c1c7ff" stroke="#c1c7ff" stroke-width="2" points="264.942,-36 200.442,-36 188.442,-24 188.442,-12 200.442,-6.39488e-14 264.942,-6.39488e-14 276.942,-12 276.942,-24 264.942,-36"/>
<path fill="#c1c7ff" stroke="#c1c7ff" stroke-width="2" d="M200.442,-36C194.442,-36 188.442,-30 188.442,-24"/>
<path fill="#c1c7ff" stroke="#c1c7ff" stroke-width="2" d="M188.442,-12C188.442,-6 194.442,-6.39488e-14 200.442,-6.39488e-14"/>
<path fill="#c1c7ff" stroke="#c1c7ff" stroke-width="2" d="M264.942,-6.39488e-14C270.942,-6.39488e-14 276.942,-6 276.942,-12"/>
<path fill="#c1c7ff" stroke="#c1c7ff" stroke-width="2" d="M276.942,-24C276.942,-30 270.942,-36 264.942,-36"/>
<polyline fill="none" stroke="white" stroke-width="2" points="264.942,-36 200.442,-36 "/>
<path fill="none" stroke="white" stroke-width="2" d="M200.442,-36C194.442,-36 188.442,-30 188.442,-24"/>
<polyline fill="none" stroke="white" stroke-width="2" points="188.442,-24 188.442,-12 "/>
<path fill="none" stroke="white" stroke-width="2" d="M188.442,-12C188.442,-6 194.442,-6.39488e-14 200.442,-6.39488e-14"/>
<polyline fill="none" stroke="white" stroke-width="2" points="200.442,-6.39488e-14 264.942,-6.39488e-14 "/>
<path fill="none" stroke="white" stroke-width="2" d="M264.942,-6.39488e-14C270.942,-6.39488e-14 276.942,-6 276.942,-12"/>
<polyline fill="none" stroke="white" stroke-width="2" points="276.942,-12 276.942,-24 "/>
<path fill="none" stroke="white" stroke-width="2" d="M276.942,-24C276.942,-30 270.942,-36 264.942,-36"/>
<text text-anchor="middle" x="232.692" y="-15.5" font-family="Helvetica,sans-Serif" font-size="10.00">HOXA2_HOXB1</text>
</a>
</g>
<!-- TFAP2B&#45;&gt;HOXA2_HOXB1 -->
<g id="edge22" class="edge"><title>TFAP2B&#45;&gt;HOXA2_HOXB1</title>
<a xlink:title="HOXA2: 0.163||remove19root">
<path fill="none" stroke="#ffc8c8" stroke-width="3" d="M296.561,-256.363C284.588,-211.678 253.506,-95.6781 239.597,-43.7691"/>
<polygon fill="#ffc8c8" stroke="#ffc8c8" points="242.293,-43.0117 237.517,-36.0091 236.883,-44.4612 242.293,-43.0117"/>
</a>
</g>
<!-- SREBF2 -->
<g id="node23" class="node"><title>SREBF2</title>
<a xlink:href="SREBF2.svg" xlink:title="Z&#45;value: 0.432||remove18">
<polygon fill="#c1c8ff" stroke="#c1c8ff" stroke-width="2" points="385.592,-36 354.592,-36 342.592,-24 342.592,-12 354.592,3.19744e-14 385.592,3.19744e-14 397.592,-12 397.592,-24 385.592,-36"/>
<path fill="#c1c8ff" stroke="#c1c8ff" stroke-width="2" d="M354.592,-36C348.592,-36 342.592,-30 342.592,-24"/>
<path fill="#c1c8ff" stroke="#c1c8ff" stroke-width="2" d="M342.592,-12C342.592,-6 348.592,3.19744e-14 354.592,3.19744e-14"/>
<path fill="#c1c8ff" stroke="#c1c8ff" stroke-width="2" d="M385.592,3.19744e-14C391.592,3.19744e-14 397.592,-6 397.592,-12"/>
<path fill="#c1c8ff" stroke="#c1c8ff" stroke-width="2" d="M397.592,-24C397.592,-30 391.592,-36 385.592,-36"/>
<polyline fill="none" stroke="white" stroke-width="2" points="385.592,-36 354.592,-36 "/>
<path fill="none" stroke="white" stroke-width="2" d="M354.592,-36C348.592,-36 342.592,-30 342.592,-24"/>
<polyline fill="none" stroke="white" stroke-width="2" points="342.592,-24 342.592,-12 "/>
<path fill="none" stroke="white" stroke-width="2" d="M342.592,-12C342.592,-6 348.592,3.19744e-14 354.592,3.19744e-14"/>
<polyline fill="none" stroke="white" stroke-width="2" points="354.592,3.19744e-14 385.592,3.19744e-14 "/>
<path fill="none" stroke="white" stroke-width="2" d="M385.592,3.19744e-14C391.592,3.19744e-14 397.592,-6 397.592,-12"/>
<polyline fill="none" stroke="white" stroke-width="2" points="397.592,-12 397.592,-24 "/>
<path fill="none" stroke="white" stroke-width="2" d="M397.592,-24C397.592,-30 391.592,-36 385.592,-36"/>
<text text-anchor="middle" x="370.092" y="-15.5" font-family="Helvetica,sans-Serif" font-size="10.00">SREBF2</text>
</a>
</g>
<!-- TFAP2B&#45;&gt;SREBF2 -->
<g id="edge26" class="edge"><title>TFAP2B&#45;&gt;SREBF2</title>
<a xlink:title="SREBF2: 0.147||remove18root">
<path fill="none" stroke="#ffc8c8" stroke-width="3" d="M306.223,-256.363C318.196,-211.678 349.278,-95.6781 363.187,-43.7691"/>
<polygon fill="#ffc8c8" stroke="#ffc8c8" points="365.9,-44.4612 365.266,-36.0091 360.491,-43.0117 365.9,-44.4612"/>
</a>
</g>
<!-- TFAP2B&#45;&gt;FOXN1 -->
<g id="edge28" class="edge"><title>TFAP2B&#45;&gt;FOXN1</title>
<a xlink:title="FOXN1: 0.103||remove16root">
<path fill="none" stroke="#ffc9c9" stroke-width="3" d="M319.73,-256.053C353.878,-221.906 427.181,-148.603 465.166,-110.618"/>
<polygon fill="#ffc9c9" stroke="#ffc9c9" points="467.27,-112.473 470.947,-104.837 463.31,-108.514 467.27,-112.473"/>
</a>
</g>
<!-- TFAP2B&#45;&gt;EPAS1_BCL3 -->
<g id="edge34" class="edge"><title>TFAP2B&#45;&gt;EPAS1_BCL3</title>
<a xlink:title="BCL3: 0.762||remove24root">
<path fill="none" stroke="#ffbbbb" stroke-width="3" d="M328.83,-267.04C372.206,-255.417 457.154,-232.656 510.496,-218.363"/>
<polygon fill="#ffbbbb" stroke="#ffbbbb" points="511.448,-221.006 518.451,-216.231 509.999,-215.597 511.448,-221.006"/>
</a>
</g>
<!-- HOXA2_HOXB1&#45;&gt;IRF2_STAT2_IRF8_IRF1 -->
<g id="edge54" class="edge"><title>HOXA2_HOXB1&#45;&gt;IRF2_STAT2_IRF8_IRF1</title>
<a xlink:title="IRF8: 0.011||remove4root">
<path fill="none" stroke="#eecbff" stroke-width="3" d="M232.692,-36.2502C232.692,-113.508 232.692,-413.83 232.692,-504.633"/>
<polygon fill="#eecbff" stroke="#eecbff" points="229.892,-504.752 232.692,-512.752 235.492,-504.752 229.892,-504.752"/>
</a>
</g>
<!-- HOXA2_HOXB1&#45;&gt;HOXA2_HOXB1 -->
<g id="edge56" class="edge"><title>HOXA2_HOXB1&#45;&gt;HOXA2_HOXB1</title>
<a xlink:title="HOXB1: 0.171||remove19">
<path fill="none" stroke="#edc8ff" stroke-width="3" d="M276.998,-24.6013C287.199,-24.0325 294.692,-21.832 294.692,-18 294.692,-15.3056 290.987,-13.4178 285.242,-12.3367"/>
<polygon fill="#edc8ff" stroke="#edc8ff" points="285.263,-9.52117 276.998,-11.3987 284.63,-15.0853 285.263,-9.52117"/>
</a>
</g>
<!-- SREBF2&#45;&gt;SREBF2 -->
<g id="edge58" class="edge"><title>SREBF2&#45;&gt;SREBF2</title>
<a xlink:title="SREBF2: 0.063||remove12root">
<path fill="none" stroke="#eecaff" stroke-width="3" d="M397.776,-24.7484C407.356,-24.8198 415.092,-22.5703 415.092,-18 415.092,-14.8579 411.435,-12.8128 406.037,-11.8646"/>
<polygon fill="#eecaff" stroke="#eecaff" points="405.961,-9.05141 397.776,-11.2516 405.547,-14.6361 405.961,-9.05141"/>
</a>
</g>
<!-- FOXN1&#45;&gt;DBX2_HLX -->
<g id="edge60" class="edge"><title>FOXN1&#45;&gt;DBX2_HLX</title>
<a xlink:title="HLX: 0.019||remove6root">
<path fill="none" stroke="#eecbff" stroke-width="3" d="M461.973,-102.353C386.142,-146.133 171.669,-269.959 83.5395,-320.841"/>
<polygon fill="#eecbff" stroke="#eecbff" points="81.9405,-318.531 76.4123,-324.956 84.7406,-323.381 81.9405,-318.531"/>
</a>
</g>
<!-- EPAS1_BCL3&#45;&gt;MNT_HEY1_HEY2 -->
<g id="edge40" class="edge"><title>EPAS1_BCL3&#45;&gt;MNT_HEY1_HEY2</title>
<a xlink:title="HEY2: 0.043||remove9root">
<path fill="none" stroke="#eecbff" stroke-width="3" d="M547.155,-224.102C515.41,-279.086 421.24,-442.193 384.759,-505.38"/>
<polygon fill="#eecbff" stroke="#eecbff" points="382.179,-504.248 380.604,-512.576 387.029,-507.048 382.179,-504.248"/>
</a>
</g>
<!-- EPAS1_BCL3&#45;&gt;FOSB -->
<g id="edge38" class="edge"><title>EPAS1_BCL3&#45;&gt;FOSB</title>
<a xlink:title="FOSB: 0.110||remove15">
<path fill="none" stroke="#edc9ff" stroke-width="3" d="M518.374,-195.132C432.693,-172.174 230.6,-118.023 148.894,-96.1301"/>
<polygon fill="#edc9ff" stroke="#edc9ff" points="149.363,-93.3572 140.911,-93.9912 147.914,-98.7664 149.363,-93.3572"/>
</a>
</g>
</g>
</svg>
