<?xml version="1.0" encoding="UTF-8" standalone="no"?>
<!DOCTYPE svg PUBLIC "-//W3C//DTD SVG 1.1//EN"
 "http://www.w3.org/Graphics/SVG/1.1/DTD/svg11.dtd">
<!-- Generated by graphviz version 2.28.0 (20110630.0925)
 -->
<!-- Title: _anonymous_0 Pages: 1 -->
<svg width="483pt" height="422pt"
 viewBox="0.00 0.00 483.43 422.43" xmlns="http://www.w3.org/2000/svg" xmlns:xlink="http://www.w3.org/1999/xlink">
<g id="graph1" class="graph" transform="scale(1 1) rotate(0) translate(4 418.43)">
<title>_anonymous_0</title>
<polygon fill="white" stroke="white" points="-4,5 -4,-418.43 480.43,-418.43 480.43,5 -4,5"/>
<!-- SIX5_SMARCC2_HCFC1 -->
<g id="node1" class="node"><title>SIX5_SMARCC2_HCFC1</title>
<a xlink:href="SIX5_SMARCC2_HCFC1.svg" xlink:title="Z&#45;value: 4.255||remove43">
<polygon fill="#3247ff" stroke="#3247ff" stroke-width="2" points="123,-275.915 15,-275.915 3,-263.915 3,-251.915 15,-239.915 123,-239.915 135,-251.915 135,-263.915 123,-275.915"/>
<path fill="#3247ff" stroke="#3247ff" stroke-width="2" d="M15,-275.915C9,-275.915 3,-269.915 3,-263.915"/>
<path fill="#3247ff" stroke="#3247ff" stroke-width="2" d="M3,-251.915C3,-245.915 9,-239.915 15,-239.915"/>
<path fill="#3247ff" stroke="#3247ff" stroke-width="2" d="M123,-239.915C129,-239.915 135,-245.915 135,-251.915"/>
<path fill="#3247ff" stroke="#3247ff" stroke-width="2" d="M135,-263.915C135,-269.915 129,-275.915 123,-275.915"/>
<polyline fill="none" stroke="white" stroke-width="2" points="123,-275.915 15,-275.915 "/>
<path fill="none" stroke="white" stroke-width="2" d="M15,-275.915C9,-275.915 3,-269.915 3,-263.915"/>
<polyline fill="none" stroke="white" stroke-width="2" points="3,-263.915 3,-251.915 "/>
<path fill="none" stroke="white" stroke-width="2" d="M3,-251.915C3,-245.915 9,-239.915 15,-239.915"/>
<polyline fill="none" stroke="white" stroke-width="2" points="15,-239.915 123,-239.915 "/>
<path fill="none" stroke="white" stroke-width="2" d="M123,-239.915C129,-239.915 135,-245.915 135,-251.915"/>
<polyline fill="none" stroke="white" stroke-width="2" points="135,-251.915 135,-263.915 "/>
<path fill="none" stroke="white" stroke-width="2" d="M135,-263.915C135,-269.915 129,-275.915 123,-275.915"/>
<text text-anchor="middle" x="69" y="-255.415" font-family="Helvetica,sans-Serif" font-size="10.00" fill="white">SIX5_SMARCC2_HCFC1</text>
</a>
</g>
<!-- TFEC_MITF_ARNTL_BHLHE41 -->
<g id="node2" class="node"><title>TFEC_MITF_ARNTL_BHLHE41</title>
<a xlink:href="TFEC_MITF_ARNTL_BHLHE41.svg" xlink:title="Z&#45;value: 0.735||remove46">
<polygon fill="#ffb1b1" stroke="#ffb1b1" stroke-width="2" points="325.465,-225.215 190.965,-225.215 178.965,-213.215 178.965,-201.215 190.965,-189.215 325.465,-189.215 337.465,-201.215 337.465,-213.215 325.465,-225.215"/>
<path fill="#ffb1b1" stroke="#ffb1b1" stroke-width="2" d="M190.965,-225.215C184.965,-225.215 178.965,-219.215 178.965,-213.215"/>
<path fill="#ffb1b1" stroke="#ffb1b1" stroke-width="2" d="M178.965,-201.215C178.965,-195.215 184.965,-189.215 190.965,-189.215"/>
<path fill="#ffb1b1" stroke="#ffb1b1" stroke-width="2" d="M325.465,-189.215C331.465,-189.215 337.465,-195.215 337.465,-201.215"/>
<path fill="#ffb1b1" stroke="#ffb1b1" stroke-width="2" d="M337.465,-213.215C337.465,-219.215 331.465,-225.215 325.465,-225.215"/>
<polyline fill="none" stroke="white" stroke-width="2" points="325.465,-225.215 190.965,-225.215 "/>
<path fill="none" stroke="white" stroke-width="2" d="M190.965,-225.215C184.965,-225.215 178.965,-219.215 178.965,-213.215"/>
<polyline fill="none" stroke="white" stroke-width="2" points="178.965,-213.215 178.965,-201.215 "/>
<path fill="none" stroke="white" stroke-width="2" d="M178.965,-201.215C178.965,-195.215 184.965,-189.215 190.965,-189.215"/>
<polyline fill="none" stroke="white" stroke-width="2" points="190.965,-189.215 325.465,-189.215 "/>
<path fill="none" stroke="white" stroke-width="2" d="M325.465,-189.215C331.465,-189.215 337.465,-195.215 337.465,-201.215"/>
<polyline fill="none" stroke="white" stroke-width="2" points="337.465,-201.215 337.465,-213.215 "/>
<path fill="none" stroke="white" stroke-width="2" d="M337.465,-213.215C337.465,-219.215 331.465,-225.215 325.465,-225.215"/>
<text text-anchor="middle" x="258.215" y="-204.715" font-family="Helvetica,sans-Serif" font-size="10.00">TFEC_MITF_ARNTL_BHLHE41</text>
</a>
</g>
<!-- SIX5_SMARCC2_HCFC1&#45;&gt;TFEC_MITF_ARNTL_BHLHE41 -->
<g id="edge2" class="edge"><title>SIX5_SMARCC2_HCFC1&#45;&gt;TFEC_MITF_ARNTL_BHLHE41</title>
<a xlink:title="MITF: 0.792||remove43root">
<path fill="none" stroke="#717fff" stroke-width="3" d="M135.178,-240.183C150.515,-236.073 166.951,-231.669 182.656,-227.461"/>
<polygon fill="#717fff" stroke="#717fff" points="183.79,-230.056 190.793,-225.281 182.341,-224.647 183.79,-230.056"/>
</a>
</g>
<!-- HOXC11 -->
<g id="node4" class="node"><title>HOXC11</title>
<a xlink:href="HOXC11.svg" xlink:title="Z&#45;value: 0.433||remove44">
<polygon fill="#bcc3ff" stroke="#bcc3ff" stroke-width="2" points="462.93,-275.915 431.93,-275.915 419.93,-263.915 419.93,-251.915 431.93,-239.915 462.93,-239.915 474.93,-251.915 474.93,-263.915 462.93,-275.915"/>
<path fill="#bcc3ff" stroke="#bcc3ff" stroke-width="2" d="M431.93,-275.915C425.93,-275.915 419.93,-269.915 419.93,-263.915"/>
<path fill="#bcc3ff" stroke="#bcc3ff" stroke-width="2" d="M419.93,-251.915C419.93,-245.915 425.93,-239.915 431.93,-239.915"/>
<path fill="#bcc3ff" stroke="#bcc3ff" stroke-width="2" d="M462.93,-239.915C468.93,-239.915 474.93,-245.915 474.93,-251.915"/>
<path fill="#bcc3ff" stroke="#bcc3ff" stroke-width="2" d="M474.93,-263.915C474.93,-269.915 468.93,-275.915 462.93,-275.915"/>
<polyline fill="none" stroke="white" stroke-width="2" points="462.93,-275.915 431.93,-275.915 "/>
<path fill="none" stroke="white" stroke-width="2" d="M431.93,-275.915C425.93,-275.915 419.93,-269.915 419.93,-263.915"/>
<polyline fill="none" stroke="white" stroke-width="2" points="419.93,-263.915 419.93,-251.915 "/>
<path fill="none" stroke="white" stroke-width="2" d="M419.93,-251.915C419.93,-245.915 425.93,-239.915 431.93,-239.915"/>
<polyline fill="none" stroke="white" stroke-width="2" points="431.93,-239.915 462.93,-239.915 "/>
<path fill="none" stroke="white" stroke-width="2" d="M462.93,-239.915C468.93,-239.915 474.93,-245.915 474.93,-251.915"/>
<polyline fill="none" stroke="white" stroke-width="2" points="474.93,-251.915 474.93,-263.915 "/>
<path fill="none" stroke="white" stroke-width="2" d="M474.93,-263.915C474.93,-269.915 468.93,-275.915 462.93,-275.915"/>
<text text-anchor="middle" x="447.43" y="-255.415" font-family="Helvetica,sans-Serif" font-size="10.00">HOXC11</text>
</a>
</g>
<!-- TFEC_MITF_ARNTL_BHLHE41&#45;&gt;HOXC11 -->
<g id="edge4" class="edge"><title>TFEC_MITF_ARNTL_BHLHE41&#45;&gt;HOXC11</title>
<a xlink:title="HOXC11: 0.885||remove44root">
<path fill="none" stroke="#ff6666" stroke-width="3" d="M325.458,-225.233C354.47,-233.006 387.238,-241.787 411.499,-248.287"/>
<polygon fill="#ff6666" stroke="#ff6666" points="410.931,-251.034 419.383,-250.4 412.381,-245.625 410.931,-251.034"/>
</a>
</g>
<!-- HOXD10 -->
<g id="node6" class="node"><title>HOXD10</title>
<a xlink:href="HOXD10.svg" xlink:title="Z&#45;value: 0.803||remove34">
<polygon fill="#afb7ff" stroke="#afb7ff" stroke-width="2" points="412.23,-363.73 381.23,-363.73 369.23,-351.73 369.23,-339.73 381.23,-327.73 412.23,-327.73 424.23,-339.73 424.23,-351.73 412.23,-363.73"/>
<path fill="#afb7ff" stroke="#afb7ff" stroke-width="2" d="M381.23,-363.73C375.23,-363.73 369.23,-357.73 369.23,-351.73"/>
<path fill="#afb7ff" stroke="#afb7ff" stroke-width="2" d="M369.23,-339.73C369.23,-333.73 375.23,-327.73 381.23,-327.73"/>
<path fill="#afb7ff" stroke="#afb7ff" stroke-width="2" d="M412.23,-327.73C418.23,-327.73 424.23,-333.73 424.23,-339.73"/>
<path fill="#afb7ff" stroke="#afb7ff" stroke-width="2" d="M424.23,-351.73C424.23,-357.73 418.23,-363.73 412.23,-363.73"/>
<polyline fill="none" stroke="white" stroke-width="2" points="412.23,-363.73 381.23,-363.73 "/>
<path fill="none" stroke="white" stroke-width="2" d="M381.23,-363.73C375.23,-363.73 369.23,-357.73 369.23,-351.73"/>
<polyline fill="none" stroke="white" stroke-width="2" points="369.23,-351.73 369.23,-339.73 "/>
<path fill="none" stroke="white" stroke-width="2" d="M369.23,-339.73C369.23,-333.73 375.23,-327.73 381.23,-327.73"/>
<polyline fill="none" stroke="white" stroke-width="2" points="381.23,-327.73 412.23,-327.73 "/>
<path fill="none" stroke="white" stroke-width="2" d="M412.23,-327.73C418.23,-327.73 424.23,-333.73 424.23,-339.73"/>
<polyline fill="none" stroke="white" stroke-width="2" points="424.23,-339.73 424.23,-351.73 "/>
<path fill="none" stroke="white" stroke-width="2" d="M424.23,-351.73C424.23,-357.73 418.23,-363.73 412.23,-363.73"/>
<text text-anchor="middle" x="396.73" y="-343.23" font-family="Helvetica,sans-Serif" font-size="10.00">HOXD10</text>
</a>
</g>
<!-- TFEC_MITF_ARNTL_BHLHE41&#45;&gt;HOXD10 -->
<g id="edge6" class="edge"><title>TFEC_MITF_ARNTL_BHLHE41&#45;&gt;HOXD10</title>
<a xlink:title="HOXD10: 0.192||MITF: 0.379||remove34root">
<path fill="none" stroke="#ffb5b5" stroke-width="3" d="M282.95,-230.536C308.347,-255.933 348.165,-295.751 373.52,-321.106"/>
<path fill="none" stroke="#a0aaff" stroke-width="3" d="M281.536,-231.95C306.933,-257.347 346.751,-297.165 372.106,-322.52"/>
<polygon fill="#a0aaff" stroke="#a0aaff" points="283.96,-229 276.323,-225.323 280,-232.96 283.96,-229"/>
<polygon fill="#ffb5b5" stroke="#ffb5b5" points="370.98,-323.94 378.617,-327.617 374.94,-319.98 370.98,-323.94"/>
</a>
</g>
<!-- HOXD11_HOXA11 -->
<g id="node8" class="node"><title>HOXD11_HOXA11</title>
<a xlink:href="HOXD11_HOXA11.svg" xlink:title="Z&#45;value: 0.598||remove32">
<polygon fill="#b6bdff" stroke="#b6bdff" stroke-width="2" points="347.165,-414.43 270.665,-414.43 258.665,-402.43 258.665,-390.43 270.665,-378.43 347.165,-378.43 359.165,-390.43 359.165,-402.43 347.165,-414.43"/>
<path fill="#b6bdff" stroke="#b6bdff" stroke-width="2" d="M270.665,-414.43C264.665,-414.43 258.665,-408.43 258.665,-402.43"/>
<path fill="#b6bdff" stroke="#b6bdff" stroke-width="2" d="M258.665,-390.43C258.665,-384.43 264.665,-378.43 270.665,-378.43"/>
<path fill="#b6bdff" stroke="#b6bdff" stroke-width="2" d="M347.165,-378.43C353.165,-378.43 359.165,-384.43 359.165,-390.43"/>
<path fill="#b6bdff" stroke="#b6bdff" stroke-width="2" d="M359.165,-402.43C359.165,-408.43 353.165,-414.43 347.165,-414.43"/>
<polyline fill="none" stroke="white" stroke-width="2" points="347.165,-414.43 270.665,-414.43 "/>
<path fill="none" stroke="white" stroke-width="2" d="M270.665,-414.43C264.665,-414.43 258.665,-408.43 258.665,-402.43"/>
<polyline fill="none" stroke="white" stroke-width="2" points="258.665,-402.43 258.665,-390.43 "/>
<path fill="none" stroke="white" stroke-width="2" d="M258.665,-390.43C258.665,-384.43 264.665,-378.43 270.665,-378.43"/>
<polyline fill="none" stroke="white" stroke-width="2" points="270.665,-378.43 347.165,-378.43 "/>
<path fill="none" stroke="white" stroke-width="2" d="M347.165,-378.43C353.165,-378.43 359.165,-384.43 359.165,-390.43"/>
<polyline fill="none" stroke="white" stroke-width="2" points="359.165,-390.43 359.165,-402.43 "/>
<path fill="none" stroke="white" stroke-width="2" d="M359.165,-402.43C359.165,-408.43 353.165,-414.43 347.165,-414.43"/>
<text text-anchor="middle" x="308.915" y="-393.93" font-family="Helvetica,sans-Serif" font-size="10.00">HOXD11_HOXA11</text>
</a>
</g>
<!-- TFEC_MITF_ARNTL_BHLHE41&#45;&gt;HOXD11_HOXA11 -->
<g id="edge8" class="edge"><title>TFEC_MITF_ARNTL_BHLHE41&#45;&gt;HOXD11_HOXA11</title>
<a xlink:title="HOXD11: 0.365||remove32root">
<path fill="none" stroke="#ffa2a2" stroke-width="3" d="M263.076,-225.358C272.124,-259.123 291.571,-331.699 301.989,-370.582"/>
<polygon fill="#ffa2a2" stroke="#ffa2a2" points="299.293,-371.339 304.068,-378.342 304.702,-369.89 299.293,-371.339"/>
</a>
</g>
<!-- DBX2_HLX -->
<g id="node10" class="node"><title>DBX2_HLX</title>
<a xlink:href="DBX2_HLX.svg" xlink:title="Z&#45;value: 0.615||remove29">
<polygon fill="#b5bdff" stroke="#b5bdff" stroke-width="2" points="229.515,-414.43 185.515,-414.43 173.515,-402.43 173.515,-390.43 185.515,-378.43 229.515,-378.43 241.515,-390.43 241.515,-402.43 229.515,-414.43"/>
<path fill="#b5bdff" stroke="#b5bdff" stroke-width="2" d="M185.515,-414.43C179.515,-414.43 173.515,-408.43 173.515,-402.43"/>
<path fill="#b5bdff" stroke="#b5bdff" stroke-width="2" d="M173.515,-390.43C173.515,-384.43 179.515,-378.43 185.515,-378.43"/>
<path fill="#b5bdff" stroke="#b5bdff" stroke-width="2" d="M229.515,-378.43C235.515,-378.43 241.515,-384.43 241.515,-390.43"/>
<path fill="#b5bdff" stroke="#b5bdff" stroke-width="2" d="M241.515,-402.43C241.515,-408.43 235.515,-414.43 229.515,-414.43"/>
<polyline fill="none" stroke="white" stroke-width="2" points="229.515,-414.43 185.515,-414.43 "/>
<path fill="none" stroke="white" stroke-width="2" d="M185.515,-414.43C179.515,-414.43 173.515,-408.43 173.515,-402.43"/>
<polyline fill="none" stroke="white" stroke-width="2" points="173.515,-402.43 173.515,-390.43 "/>
<path fill="none" stroke="white" stroke-width="2" d="M173.515,-390.43C173.515,-384.43 179.515,-378.43 185.515,-378.43"/>
<polyline fill="none" stroke="white" stroke-width="2" points="185.515,-378.43 229.515,-378.43 "/>
<path fill="none" stroke="white" stroke-width="2" d="M229.515,-378.43C235.515,-378.43 241.515,-384.43 241.515,-390.43"/>
<polyline fill="none" stroke="white" stroke-width="2" points="241.515,-390.43 241.515,-402.43 "/>
<path fill="none" stroke="white" stroke-width="2" d="M241.515,-402.43C241.515,-408.43 235.515,-414.43 229.515,-414.43"/>
<text text-anchor="middle" x="207.515" y="-393.93" font-family="Helvetica,sans-Serif" font-size="10.00">DBX2_HLX</text>
</a>
</g>
<!-- TFEC_MITF_ARNTL_BHLHE41&#45;&gt;DBX2_HLX -->
<g id="edge10" class="edge"><title>TFEC_MITF_ARNTL_BHLHE41&#45;&gt;DBX2_HLX</title>
<a xlink:title="HLX: 0.311||remove29root">
<path fill="none" stroke="#ffa8a8" stroke-width="3" d="M253.354,-225.358C244.306,-259.123 224.859,-331.699 214.441,-370.582"/>
<polygon fill="#ffa8a8" stroke="#ffa8a8" points="211.728,-369.89 212.362,-378.342 217.137,-371.339 211.728,-369.89"/>
</a>
</g>
<!-- TBX15_MGA -->
<g id="node12" class="node"><title>TBX15_MGA</title>
<a xlink:href="TBX15_MGA.svg" xlink:title="Z&#45;value: 0.701||remove41">
<polygon fill="#b2baff" stroke="#b2baff" stroke-width="2" points="144.7,-363.73 94.7,-363.73 82.7,-351.73 82.7,-339.73 94.7,-327.73 144.7,-327.73 156.7,-339.73 156.7,-351.73 144.7,-363.73"/>
<path fill="#b2baff" stroke="#b2baff" stroke-width="2" d="M94.7,-363.73C88.7,-363.73 82.7,-357.73 82.7,-351.73"/>
<path fill="#b2baff" stroke="#b2baff" stroke-width="2" d="M82.7,-339.73C82.7,-333.73 88.7,-327.73 94.7,-327.73"/>
<path fill="#b2baff" stroke="#b2baff" stroke-width="2" d="M144.7,-327.73C150.7,-327.73 156.7,-333.73 156.7,-339.73"/>
<path fill="#b2baff" stroke="#b2baff" stroke-width="2" d="M156.7,-351.73C156.7,-357.73 150.7,-363.73 144.7,-363.73"/>
<polyline fill="none" stroke="white" stroke-width="2" points="144.7,-363.73 94.7,-363.73 "/>
<path fill="none" stroke="white" stroke-width="2" d="M94.7,-363.73C88.7,-363.73 82.7,-357.73 82.7,-351.73"/>
<polyline fill="none" stroke="white" stroke-width="2" points="82.7,-351.73 82.7,-339.73 "/>
<path fill="none" stroke="white" stroke-width="2" d="M82.7,-339.73C82.7,-333.73 88.7,-327.73 94.7,-327.73"/>
<polyline fill="none" stroke="white" stroke-width="2" points="94.7,-327.73 144.7,-327.73 "/>
<path fill="none" stroke="white" stroke-width="2" d="M144.7,-327.73C150.7,-327.73 156.7,-333.73 156.7,-339.73"/>
<polyline fill="none" stroke="white" stroke-width="2" points="156.7,-339.73 156.7,-351.73 "/>
<path fill="none" stroke="white" stroke-width="2" d="M156.7,-351.73C156.7,-357.73 150.7,-363.73 144.7,-363.73"/>
<text text-anchor="middle" x="119.7" y="-343.23" font-family="Helvetica,sans-Serif" font-size="10.00">TBX15_MGA</text>
</a>
</g>
<!-- TFEC_MITF_ARNTL_BHLHE41&#45;&gt;TBX15_MGA -->
<g id="edge12" class="edge"><title>TFEC_MITF_ARNTL_BHLHE41&#45;&gt;TBX15_MGA</title>
<a xlink:title="MGA: 0.669||BHLHE41: 0.038||remove41root">
<path fill="none" stroke="#ff7f7f" stroke-width="3" d="M234.894,-231.95C209.497,-257.347 169.679,-297.165 144.324,-322.52"/>
<path fill="none" stroke="#c7cdff" stroke-width="3" d="M233.48,-230.536C208.083,-255.933 168.265,-295.751 142.91,-321.106"/>
<polygon fill="#c7cdff" stroke="#c7cdff" points="236.43,-232.96 240.107,-225.323 232.47,-229 236.43,-232.96"/>
<polygon fill="#ff7f7f" stroke="#ff7f7f" points="141.49,-319.98 137.813,-327.617 145.45,-323.94 141.49,-319.98"/>
</a>
</g>
<!-- TBX15_MGA&#45;&gt;TBX15_MGA -->
<g id="edge98" class="edge"><title>TBX15_MGA&#45;&gt;TBX15_MGA</title>
<a xlink:title="MGA: 0.096||remove10root">
<path fill="none" stroke="#ebc1ff" stroke-width="3" d="M156.715,-352.439C166.91,-352.115 174.7,-349.878 174.7,-345.73 174.7,-342.813 170.849,-340.842 165.018,-339.815"/>
<polygon fill="#ebc1ff" stroke="#ebc1ff" points="164.946,-336.996 156.715,-339.021 164.412,-342.57 164.946,-336.996"/>
</a>
</g>
<!-- ZNF711_TFAP2A_TFAP2D -->
<g id="node14" class="node"><title>ZNF711_TFAP2A_TFAP2D</title>
<a xlink:href="ZNF711_TFAP2A_TFAP2D.svg" xlink:title="Z&#45;value: 2.387||remove45">
<polygon fill="#7683ff" stroke="#7683ff" stroke-width="2" points="126,-174.515 12,-174.515 1.42109e-14,-162.515 1.42109e-14,-150.515 12,-138.515 126,-138.515 138,-150.515 138,-162.515 126,-174.515"/>
<path fill="#7683ff" stroke="#7683ff" stroke-width="2" d="M12,-174.515C6,-174.515 1.42109e-14,-168.515 1.42109e-14,-162.515"/>
<path fill="#7683ff" stroke="#7683ff" stroke-width="2" d="M1.42109e-14,-150.515C1.42109e-14,-144.515 6,-138.515 12,-138.515"/>
<path fill="#7683ff" stroke="#7683ff" stroke-width="2" d="M126,-138.515C132,-138.515 138,-144.515 138,-150.515"/>
<path fill="#7683ff" stroke="#7683ff" stroke-width="2" d="M138,-162.515C138,-168.515 132,-174.515 126,-174.515"/>
<polyline fill="none" stroke="white" stroke-width="2" points="126,-174.515 12,-174.515 "/>
<path fill="none" stroke="white" stroke-width="2" d="M12,-174.515C6,-174.515 1.42109e-14,-168.515 1.42109e-14,-162.515"/>
<polyline fill="none" stroke="white" stroke-width="2" points="1.42109e-14,-162.515 1.42109e-14,-150.515 "/>
<path fill="none" stroke="white" stroke-width="2" d="M1.42109e-14,-150.515C1.42109e-14,-144.515 6,-138.515 12,-138.515"/>
<polyline fill="none" stroke="white" stroke-width="2" points="12,-138.515 126,-138.515 "/>
<path fill="none" stroke="white" stroke-width="2" d="M126,-138.515C132,-138.515 138,-144.515 138,-150.515"/>
<polyline fill="none" stroke="white" stroke-width="2" points="138,-150.515 138,-162.515 "/>
<path fill="none" stroke="white" stroke-width="2" d="M138,-162.515C138,-168.515 132,-174.515 126,-174.515"/>
<text text-anchor="middle" x="69" y="-154.015" font-family="Helvetica,sans-Serif" font-size="10.00">ZNF711_TFAP2A_TFAP2D</text>
</a>
</g>
<!-- TBX15_MGA&#45;&gt;ZNF711_TFAP2A_TFAP2D -->
<g id="edge96" class="edge"><title>TBX15_MGA&#45;&gt;ZNF711_TFAP2A_TFAP2D</title>
<a xlink:title="TFAP2A: 0.115||remove15root">
<path fill="none" stroke="#eabeff" stroke-width="3" d="M130.636,-327.539C142.376,-305.541 157.794,-267.657 145.56,-237.035 136.525,-214.421 117.783,-194.53 101.105,-180.175"/>
<polygon fill="#eabeff" stroke="#eabeff" points="102.539,-177.726 94.6,-174.758 98.9556,-182.029 102.539,-177.726"/>
</a>
</g>
<!-- ZNF711_TFAP2A_TFAP2D&#45;&gt;SIX5_SMARCC2_HCFC1 -->
<g id="edge28" class="edge"><title>ZNF711_TFAP2A_TFAP2D&#45;&gt;SIX5_SMARCC2_HCFC1</title>
<a xlink:title="SMARCC2: 0.313||SIX5: 0.231||HCFC1: 0.064||remove30root">
<path fill="none" stroke="#e3a8ff" stroke-width="3" d="M69,-174.643C69,-190.407 69,-213.455 69,-231.309"/>
<polygon fill="#e3a8ff" stroke="#e3a8ff" points="66.2001,-231.602 69,-239.602 71.8001,-231.602 66.2001,-231.602"/>
</a>
</g>
<!-- ZNF711_TFAP2A_TFAP2D&#45;&gt;TFEC_MITF_ARNTL_BHLHE41 -->
<g id="edge16" class="edge"><title>ZNF711_TFAP2A_TFAP2D&#45;&gt;TFEC_MITF_ARNTL_BHLHE41</title>
<a xlink:title="MITF: 0.978||BHLHE41: 0.026||remove45root">
<path fill="none" stroke="#5b6cff" stroke-width="3" d="M136.243,-174.533C151.349,-178.58 167.473,-182.901 182.885,-187.03"/>
<polygon fill="#5b6cff" stroke="#5b6cff" points="182.418,-189.804 190.87,-189.17 183.867,-184.395 182.418,-189.804"/>
</a>
</g>
<!-- ZNF711_TFAP2A_TFAP2D&#45;&gt;HOXD10 -->
<g id="edge20" class="edge"><title>ZNF711_TFAP2A_TFAP2D&#45;&gt;HOXD10</title>
<a xlink:title="HOXD10: 0.108||remove12root">
<path fill="none" stroke="#eabfff" stroke-width="3" d="M91.3826,-174.679C110.581,-189.851 139.292,-211.59 165.995,-228.095 232.659,-269.3 315.505,-308.926 361.596,-330.023"/>
<polygon fill="#eabfff" stroke="#eabfff" points="360.501,-332.601 368.942,-333.371 362.824,-327.506 360.501,-332.601"/>
</a>
</g>
<!-- ZNF711_TFAP2A_TFAP2D&#45;&gt;HOXD11_HOXA11 -->
<g id="edge30" class="edge"><title>ZNF711_TFAP2A_TFAP2D&#45;&gt;HOXD11_HOXA11</title>
<a xlink:title="HOXA11: 0.015||remove2root">
<path fill="none" stroke="#eecaff" stroke-width="3" d="M87.0326,-174.548C129.671,-217.186 236.718,-324.233 284.833,-372.348"/>
<polygon fill="#eecaff" stroke="#eecaff" points="283.036,-374.511 290.673,-378.188 286.996,-370.551 283.036,-374.511"/>
</a>
</g>
<!-- ZNF711_TFAP2A_TFAP2D&#45;&gt;DBX2_HLX -->
<g id="edge32" class="edge"><title>ZNF711_TFAP2A_TFAP2D&#45;&gt;DBX2_HLX</title>
<a xlink:title="HLX: 0.167||remove20root">
<path fill="none" stroke="#e8b8ff" stroke-width="3" d="M90.2139,-174.545C107.065,-189.785 130.264,-212.93 145.56,-237.035 172.983,-280.25 191.568,-337.544 200.782,-370.358"/>
<polygon fill="#e8b8ff" stroke="#e8b8ff" points="198.103,-371.177 202.922,-378.15 203.503,-369.694 198.103,-371.177"/>
</a>
</g>
<!-- ZNF711_TFAP2A_TFAP2D&#45;&gt;ZNF711_TFAP2A_TFAP2D -->
<g id="edge22" class="edge"><title>ZNF711_TFAP2A_TFAP2D&#45;&gt;ZNF711_TFAP2A_TFAP2D</title>
<a xlink:title="TFAP2A: 0.506||ZNF711: 0.089||remove38root">
<path fill="none" stroke="#dc92ff" stroke-width="3" d="M138.275,-162.67C148.831,-161.731 156,-159.679 156,-156.515 156,-154.241 152.297,-152.541 146.294,-151.416"/>
<polygon fill="#dc92ff" stroke="#dc92ff" points="146.572,-148.629 138.275,-150.36 145.84,-154.181 146.572,-148.629"/>
</a>
</g>
<!-- SIN3A_CHD1 -->
<g id="node15" class="node"><title>SIN3A_CHD1</title>
<a xlink:href="SIN3A_CHD1.svg" xlink:title="Z&#45;value: 1.751||remove31">
<polygon fill="#8d98ff" stroke="#8d98ff" stroke-width="2" points="146.95,-86.7 92.45,-86.7 80.45,-74.7 80.45,-62.7 92.45,-50.7 146.95,-50.7 158.95,-62.7 158.95,-74.7 146.95,-86.7"/>
<path fill="#8d98ff" stroke="#8d98ff" stroke-width="2" d="M92.45,-86.7C86.45,-86.7 80.45,-80.7 80.45,-74.7"/>
<path fill="#8d98ff" stroke="#8d98ff" stroke-width="2" d="M80.45,-62.7C80.45,-56.7 86.45,-50.7 92.45,-50.7"/>
<path fill="#8d98ff" stroke="#8d98ff" stroke-width="2" d="M146.95,-50.7C152.95,-50.7 158.95,-56.7 158.95,-62.7"/>
<path fill="#8d98ff" stroke="#8d98ff" stroke-width="2" d="M158.95,-74.7C158.95,-80.7 152.95,-86.7 146.95,-86.7"/>
<polyline fill="none" stroke="white" stroke-width="2" points="146.95,-86.7 92.45,-86.7 "/>
<path fill="none" stroke="white" stroke-width="2" d="M92.45,-86.7C86.45,-86.7 80.45,-80.7 80.45,-74.7"/>
<polyline fill="none" stroke="white" stroke-width="2" points="80.45,-74.7 80.45,-62.7 "/>
<path fill="none" stroke="white" stroke-width="2" d="M80.45,-62.7C80.45,-56.7 86.45,-50.7 92.45,-50.7"/>
<polyline fill="none" stroke="white" stroke-width="2" points="92.45,-50.7 146.95,-50.7 "/>
<path fill="none" stroke="white" stroke-width="2" d="M146.95,-50.7C152.95,-50.7 158.95,-56.7 158.95,-62.7"/>
<polyline fill="none" stroke="white" stroke-width="2" points="158.95,-62.7 158.95,-74.7 "/>
<path fill="none" stroke="white" stroke-width="2" d="M158.95,-74.7C158.95,-80.7 152.95,-86.7 146.95,-86.7"/>
<text text-anchor="middle" x="119.7" y="-66.2" font-family="Helvetica,sans-Serif" font-size="10.00">SIN3A_CHD1</text>
</a>
</g>
<!-- ZNF711_TFAP2A_TFAP2D&#45;&gt;SIN3A_CHD1 -->
<g id="edge14" class="edge"><title>ZNF711_TFAP2A_TFAP2D&#45;&gt;SIN3A_CHD1</title>
<a xlink:title="SIN3A: 0.087||TFAP2A: 0.071||remove9root">
<path fill="none" stroke="#ebc2ff" stroke-width="3" d="M82.7285,-130.737C89.5069,-118.996 97.545,-105.074 104.314,-93.3491"/>
<path fill="none" stroke="#ecc3ff" stroke-width="3" d="M84.4605,-131.737C91.239,-119.996 99.277,-106.074 106.046,-94.3491"/>
<polygon fill="#ecc3ff" stroke="#ecc3ff" points="81.0802,-129.991 79.5051,-138.32 85.93,-132.791 81.0802,-129.991"/>
<polygon fill="#ebc2ff" stroke="#ebc2ff" points="107.633,-95.2002 109.208,-86.872 102.783,-92.4002 107.633,-95.2002"/>
</a>
</g>
<!-- PATZ1_KLF4 -->
<g id="node18" class="node"><title>PATZ1_KLF4</title>
<a xlink:href="PATZ1_KLF4.svg" xlink:title="Z&#45;value: 1.751||remove39">
<polygon fill="#8d98ff" stroke="#8d98ff" stroke-width="2" points="233.515,-36 181.515,-36 169.515,-24 169.515,-12 181.515,-3.19744e-14 233.515,-3.19744e-14 245.515,-12 245.515,-24 233.515,-36"/>
<path fill="#8d98ff" stroke="#8d98ff" stroke-width="2" d="M181.515,-36C175.515,-36 169.515,-30 169.515,-24"/>
<path fill="#8d98ff" stroke="#8d98ff" stroke-width="2" d="M169.515,-12C169.515,-6 175.515,-3.19744e-14 181.515,-3.19744e-14"/>
<path fill="#8d98ff" stroke="#8d98ff" stroke-width="2" d="M233.515,-3.19744e-14C239.515,-3.19744e-14 245.515,-6 245.515,-12"/>
<path fill="#8d98ff" stroke="#8d98ff" stroke-width="2" d="M245.515,-24C245.515,-30 239.515,-36 233.515,-36"/>
<polyline fill="none" stroke="white" stroke-width="2" points="233.515,-36 181.515,-36 "/>
<path fill="none" stroke="white" stroke-width="2" d="M181.515,-36C175.515,-36 169.515,-30 169.515,-24"/>
<polyline fill="none" stroke="white" stroke-width="2" points="169.515,-24 169.515,-12 "/>
<path fill="none" stroke="white" stroke-width="2" d="M169.515,-12C169.515,-6 175.515,-3.19744e-14 181.515,-3.19744e-14"/>
<polyline fill="none" stroke="white" stroke-width="2" points="181.515,-3.19744e-14 233.515,-3.19744e-14 "/>
<path fill="none" stroke="white" stroke-width="2" d="M233.515,-3.19744e-14C239.515,-3.19744e-14 245.515,-6 245.515,-12"/>
<polyline fill="none" stroke="white" stroke-width="2" points="245.515,-12 245.515,-24 "/>
<path fill="none" stroke="white" stroke-width="2" d="M245.515,-24C245.515,-30 239.515,-36 233.515,-36"/>
<text text-anchor="middle" x="207.515" y="-15.5" font-family="Helvetica,sans-Serif" font-size="10.00">PATZ1_KLF4</text>
</a>
</g>
<!-- ZNF711_TFAP2A_TFAP2D&#45;&gt;PATZ1_KLF4 -->
<g id="edge18" class="edge"><title>ZNF711_TFAP2A_TFAP2D&#45;&gt;PATZ1_KLF4</title>
<a xlink:title="PATZ1: 0.083||TFAP2A: 0.544||remove39">
<path fill="none" stroke="#ebc2ff" stroke-width="3" d="M108.813,-133.232C127.334,-121.627 148.781,-106.196 164.787,-88.9002 177.252,-75.4877 187.789,-57.4907 195.129,-42.9952"/>
<path fill="none" stroke="#da8dff" stroke-width="3" d="M109.875,-134.927C128.502,-123.25 149.949,-107.819 166.253,-90.2598 178.978,-76.4983 189.515,-58.5012 196.913,-43.8989"/>
<polygon fill="#da8dff" stroke="#da8dff" points="107.475,-131.941 102.119,-138.51 110.402,-136.715 107.475,-131.941"/>
<polygon fill="#ebc2ff" stroke="#ebc2ff" points="198.57,-44.6102 199.58,-36.1949 193.542,-42.1431 198.57,-44.6102"/>
</a>
</g>
<!-- SP4_PML -->
<g id="node22" class="node"><title>SP4_PML</title>
<a xlink:href="SP4_PML.svg" xlink:title="Z&#45;value: 1.603||remove33">
<polygon fill="#929dff" stroke="#929dff" stroke-width="2" points="327.165,-36 290.665,-36 278.665,-24 278.665,-12 290.665,3.19744e-14 327.165,3.19744e-14 339.165,-12 339.165,-24 327.165,-36"/>
<path fill="#929dff" stroke="#929dff" stroke-width="2" d="M290.665,-36C284.665,-36 278.665,-30 278.665,-24"/>
<path fill="#929dff" stroke="#929dff" stroke-width="2" d="M278.665,-12C278.665,-6 284.665,3.19744e-14 290.665,3.19744e-14"/>
<path fill="#929dff" stroke="#929dff" stroke-width="2" d="M327.165,3.19744e-14C333.165,3.19744e-14 339.165,-6 339.165,-12"/>
<path fill="#929dff" stroke="#929dff" stroke-width="2" d="M339.165,-24C339.165,-30 333.165,-36 327.165,-36"/>
<polyline fill="none" stroke="white" stroke-width="2" points="327.165,-36 290.665,-36 "/>
<path fill="none" stroke="white" stroke-width="2" d="M290.665,-36C284.665,-36 278.665,-30 278.665,-24"/>
<polyline fill="none" stroke="white" stroke-width="2" points="278.665,-24 278.665,-12 "/>
<path fill="none" stroke="white" stroke-width="2" d="M278.665,-12C278.665,-6 284.665,3.19744e-14 290.665,3.19744e-14"/>
<polyline fill="none" stroke="white" stroke-width="2" points="290.665,3.19744e-14 327.165,3.19744e-14 "/>
<path fill="none" stroke="white" stroke-width="2" d="M327.165,3.19744e-14C333.165,3.19744e-14 339.165,-6 339.165,-12"/>
<polyline fill="none" stroke="white" stroke-width="2" points="339.165,-12 339.165,-24 "/>
<path fill="none" stroke="white" stroke-width="2" d="M339.165,-24C339.165,-30 333.165,-36 327.165,-36"/>
<text text-anchor="middle" x="308.915" y="-15.5" font-family="Helvetica,sans-Serif" font-size="10.00">SP4_PML</text>
</a>
</g>
<!-- ZNF711_TFAP2A_TFAP2D&#45;&gt;SP4_PML -->
<g id="edge24" class="edge"><title>ZNF711_TFAP2A_TFAP2D&#45;&gt;SP4_PML</title>
<a xlink:title="SP4: 0.046||TFAP2A: 0.217||ZNF711: 0.116||remove23root">
<path fill="none" stroke="#ecc6ff" stroke-width="3" d="M106.912,-133.472C151.888,-107.505 225.907,-64.7703 270.617,-38.9568"/>
<path fill="none" stroke="#e6b3ff" stroke-width="3" d="M107.912,-135.204C152.888,-109.237 226.907,-66.5023 271.617,-40.6889"/>
<polygon fill="#e6b3ff" stroke="#e6b3ff" points="105.893,-131.982 100.365,-138.407 108.693,-136.831 105.893,-131.982"/>
<polygon fill="#ecc6ff" stroke="#ecc6ff" points="272.773,-42.0998 278.301,-35.6749 269.973,-37.2501 272.773,-42.0998"/>
</a>
</g>
<!-- TCF3_MYOG -->
<g id="node24" class="node"><title>TCF3_MYOG</title>
<a xlink:href="TCF3_MYOG.svg" xlink:title="Z&#45;value: 0.691||remove36">
<polygon fill="#b3baff" stroke="#b3baff" stroke-width="2" points="422.98,-86.7 370.48,-86.7 358.48,-74.7 358.48,-62.7 370.48,-50.7 422.98,-50.7 434.98,-62.7 434.98,-74.7 422.98,-86.7"/>
<path fill="#b3baff" stroke="#b3baff" stroke-width="2" d="M370.48,-86.7C364.48,-86.7 358.48,-80.7 358.48,-74.7"/>
<path fill="#b3baff" stroke="#b3baff" stroke-width="2" d="M358.48,-62.7C358.48,-56.7 364.48,-50.7 370.48,-50.7"/>
<path fill="#b3baff" stroke="#b3baff" stroke-width="2" d="M422.98,-50.7C428.98,-50.7 434.98,-56.7 434.98,-62.7"/>
<path fill="#b3baff" stroke="#b3baff" stroke-width="2" d="M434.98,-74.7C434.98,-80.7 428.98,-86.7 422.98,-86.7"/>
<polyline fill="none" stroke="white" stroke-width="2" points="422.98,-86.7 370.48,-86.7 "/>
<path fill="none" stroke="white" stroke-width="2" d="M370.48,-86.7C364.48,-86.7 358.48,-80.7 358.48,-74.7"/>
<polyline fill="none" stroke="white" stroke-width="2" points="358.48,-74.7 358.48,-62.7 "/>
<path fill="none" stroke="white" stroke-width="2" d="M358.48,-62.7C358.48,-56.7 364.48,-50.7 370.48,-50.7"/>
<polyline fill="none" stroke="white" stroke-width="2" points="370.48,-50.7 422.98,-50.7 "/>
<path fill="none" stroke="white" stroke-width="2" d="M422.98,-50.7C428.98,-50.7 434.98,-56.7 434.98,-62.7"/>
<polyline fill="none" stroke="white" stroke-width="2" points="434.98,-62.7 434.98,-74.7 "/>
<path fill="none" stroke="white" stroke-width="2" d="M434.98,-74.7C434.98,-80.7 428.98,-86.7 422.98,-86.7"/>
<text text-anchor="middle" x="396.73" y="-66.2" font-family="Helvetica,sans-Serif" font-size="10.00">TCF3_MYOG</text>
</a>
</g>
<!-- ZNF711_TFAP2A_TFAP2D&#45;&gt;TCF3_MYOG -->
<g id="edge26" class="edge"><title>ZNF711_TFAP2A_TFAP2D&#45;&gt;TCF3_MYOG</title>
<a xlink:title="MYOG: 0.297||TFAP2A: 0.074||remove28root">
<path fill="none" stroke="#e3a9ff" stroke-width="3" d="M144.236,-135.32C207.642,-118.331 296.233,-94.5928 349.793,-80.2414"/>
<path fill="none" stroke="#ebc3ff" stroke-width="3" d="M144.754,-137.252C208.16,-120.263 296.751,-96.5246 350.311,-82.1732"/>
<polygon fill="#ebc3ff" stroke="#ebc3ff" points="143.511,-133.651 136.508,-138.426 144.961,-139.06 143.511,-133.651"/>
<polygon fill="#e3a9ff" stroke="#e3a9ff" points="351.013,-83.8487 358.016,-79.0735 349.563,-78.4395 351.013,-83.8487"/>
</a>
</g>
<!-- SIN3A_CHD1&#45;&gt;SIX5_SMARCC2_HCFC1 -->
<g id="edge44" class="edge"><title>SIN3A_CHD1&#45;&gt;SIX5_SMARCC2_HCFC1</title>
<a xlink:title="SIX5: 0.378||remove31">
<path fill="none" stroke="#e0a0ff" stroke-width="3" d="M131.698,-86.8584C144.614,-108.824 161.71,-146.677 149.04,-177.395 139.535,-200.44 119.887,-220.366 102.438,-234.632"/>
<polygon fill="#e0a0ff" stroke="#e0a0ff" points="100.664,-232.465 96.1313,-239.627 104.141,-236.855 100.664,-232.465"/>
</a>
</g>
<!-- SIN3A_CHD1&#45;&gt;TFEC_MITF_ARNTL_BHLHE41 -->
<g id="edge36" class="edge"><title>SIN3A_CHD1&#45;&gt;TFEC_MITF_ARNTL_BHLHE41</title>
<a xlink:title="ARNTL: 0.364||remove31root">
<path fill="none" stroke="#a2abff" stroke-width="3" d="M137.808,-86.8084C162.488,-111.488 206.747,-155.747 234.182,-183.182"/>
<polygon fill="#a2abff" stroke="#a2abff" points="232.465,-185.425 240.102,-189.102 236.425,-181.465 232.465,-185.425"/>
</a>
</g>
<!-- SIN3A_CHD1&#45;&gt;TBX15_MGA -->
<g id="edge46" class="edge"><title>SIN3A_CHD1&#45;&gt;TBX15_MGA</title>
<a xlink:title="TBX15: 0.117||MGA: 0.027||remove16root">
<path fill="none" stroke="#eabeff" stroke-width="3" d="M130.069,-86.7659C136.964,-99.8608 145.397,-118.249 149.04,-135.635 154.018,-159.39 152.377,-245.421 145.56,-278.795 142.697,-292.813 137.198,-307.724 132.005,-319.906"/>
<polygon fill="#eabeff" stroke="#eabeff" points="129.331,-319.031 128.667,-327.481 134.455,-321.289 129.331,-319.031"/>
</a>
</g>
<!-- SIN3A_CHD1&#45;&gt;SIN3A_CHD1 -->
<g id="edge34" class="edge"><title>SIN3A_CHD1&#45;&gt;SIN3A_CHD1</title>
<a xlink:title="CHD1: 0.054||remove5root">
<path fill="none" stroke="#ecc5ff" stroke-width="3" d="M159.127,-75.3693C169.164,-74.9309 176.7,-72.7078 176.7,-68.7 176.7,-65.882 172.975,-63.9464 167.273,-62.8931"/>
<polygon fill="#ecc5ff" stroke="#ecc5ff" points="167.377,-60.0885 159.127,-62.0308 166.788,-65.6574 167.377,-60.0885"/>
</a>
</g>
<!-- SIN3A_CHD1&#45;&gt;PATZ1_KLF4 -->
<g id="edge38" class="edge"><title>SIN3A_CHD1&#45;&gt;PATZ1_KLF4</title>
<a xlink:title="KLF4: 0.185||PATZ1: 0.181||remove21root">
<path fill="none" stroke="#e7b6ff" stroke-width="3" d="M150.908,-50.6823C156.789,-47.2864 163.004,-43.6985 169.077,-40.1923"/>
<polygon fill="#e7b6ff" stroke="#e7b6ff" points="170.584,-42.5554 176.112,-36.1305 167.784,-37.7057 170.584,-42.5554"/>
</a>
</g>
<!-- SIN3A_CHD1&#45;&gt;TCF3_MYOG -->
<g id="edge40" class="edge"><title>SIN3A_CHD1&#45;&gt;TCF3_MYOG</title>
<a xlink:title="TCF3: 0.190||remove22root">
<path fill="none" stroke="#e7b6ff" stroke-width="3" d="M159.097,-68.7C209.435,-68.7 296.446,-68.7 350.054,-68.7"/>
<polygon fill="#e7b6ff" stroke="#e7b6ff" points="350.36,-71.5001 358.36,-68.7 350.36,-65.9001 350.36,-71.5001"/>
</a>
</g>
<!-- SP3 -->
<g id="node33" class="node"><title>SP3</title>
<a xlink:href="SP3.svg" xlink:title="Z&#45;value: 1.634||remove42">
<polygon fill="#919cff" stroke="#919cff" stroke-width="2" points="462.43,-174.515 432.43,-174.515 420.43,-162.515 420.43,-150.515 432.43,-138.515 462.43,-138.515 474.43,-150.515 474.43,-162.515 462.43,-174.515"/>
<path fill="#919cff" stroke="#919cff" stroke-width="2" d="M432.43,-174.515C426.43,-174.515 420.43,-168.515 420.43,-162.515"/>
<path fill="#919cff" stroke="#919cff" stroke-width="2" d="M420.43,-150.515C420.43,-144.515 426.43,-138.515 432.43,-138.515"/>
<path fill="#919cff" stroke="#919cff" stroke-width="2" d="M462.43,-138.515C468.43,-138.515 474.43,-144.515 474.43,-150.515"/>
<path fill="#919cff" stroke="#919cff" stroke-width="2" d="M474.43,-162.515C474.43,-168.515 468.43,-174.515 462.43,-174.515"/>
<polyline fill="none" stroke="white" stroke-width="2" points="462.43,-174.515 432.43,-174.515 "/>
<path fill="none" stroke="white" stroke-width="2" d="M432.43,-174.515C426.43,-174.515 420.43,-168.515 420.43,-162.515"/>
<polyline fill="none" stroke="white" stroke-width="2" points="420.43,-162.515 420.43,-150.515 "/>
<path fill="none" stroke="white" stroke-width="2" d="M420.43,-150.515C420.43,-144.515 426.43,-138.515 432.43,-138.515"/>
<polyline fill="none" stroke="white" stroke-width="2" points="432.43,-138.515 462.43,-138.515 "/>
<path fill="none" stroke="white" stroke-width="2" d="M462.43,-138.515C468.43,-138.515 474.43,-144.515 474.43,-150.515"/>
<polyline fill="none" stroke="white" stroke-width="2" points="474.43,-150.515 474.43,-162.515 "/>
<path fill="none" stroke="white" stroke-width="2" d="M474.43,-162.515C474.43,-168.515 468.43,-174.515 462.43,-174.515"/>
<text text-anchor="middle" x="447.43" y="-154.015" font-family="Helvetica,sans-Serif" font-size="10.00">SP3</text>
</a>
</g>
<!-- SIN3A_CHD1&#45;&gt;SP3 -->
<g id="edge42" class="edge"><title>SIN3A_CHD1&#45;&gt;SP3</title>
<a xlink:title="SP3: 1.334||SIN3A: 0.230||remove31">
<path fill="none" stroke="#bd32ff" stroke-width="3" d="M167.27,-80.4111C233.734,-98.2202 353.233,-130.24 412.45,-146.107"/>
<path fill="none" stroke="#e6b1ff" stroke-width="3" d="M166.753,-82.343C233.217,-100.152 352.715,-132.172 411.932,-148.039"/>
<polygon fill="#e6b1ff" stroke="#e6b1ff" points="167.684,-78.6586 159.232,-79.2925 166.235,-84.0678 167.684,-78.6586"/>
<polygon fill="#bd32ff" stroke="#bd32ff" points="411.683,-149.835 420.135,-149.201 413.132,-144.426 411.683,-149.835"/>
</a>
</g>
<!-- PATZ1_KLF4&#45;&gt;SIX5_SMARCC2_HCFC1 -->
<g id="edge70" class="edge"><title>PATZ1_KLF4&#45;&gt;SIX5_SMARCC2_HCFC1</title>
<a xlink:title="SMARCC2: 0.271||HCFC1: 0.048||SIX5: 0.008||remove27root">
<path fill="none" stroke="#e4acff" stroke-width="3" d="M203.513,-36.3635C196.201,-67.2808 178.646,-130.9 149.04,-177.395 135.301,-198.971 114.923,-219.364 98.1677,-234.229"/>
<polygon fill="#e4acff" stroke="#e4acff" points="95.9087,-232.482 91.7107,-239.846 99.5842,-236.708 95.9087,-232.482"/>
</a>
</g>
<!-- PATZ1_KLF4&#45;&gt;TFEC_MITF_ARNTL_BHLHE41 -->
<g id="edge64" class="edge"><title>PATZ1_KLF4&#45;&gt;TFEC_MITF_ARNTL_BHLHE41</title>
<a xlink:title="MITF: 0.531||remove39root">
<path fill="none" stroke="#8f9aff" stroke-width="3" d="M212.376,-36.1427C221.424,-69.9078 240.871,-142.485 251.289,-181.367"/>
<polygon fill="#8f9aff" stroke="#8f9aff" points="248.593,-182.124 253.368,-189.127 254.002,-180.675 248.593,-182.124"/>
</a>
</g>
<!-- PATZ1_KLF4&#45;&gt;HOXD11_HOXA11 -->
<g id="edge72" class="edge"><title>PATZ1_KLF4&#45;&gt;HOXD11_HOXA11</title>
<a xlink:title="HOXD11: 0.125||remove18root">
<path fill="none" stroke="#eabdff" stroke-width="3" d="M197.456,-36.2235C178.365,-73.3186 140.937,-159.863 165.995,-228.095 188.515,-289.415 244.374,-343.683 279.214,-373.119"/>
<polygon fill="#eabdff" stroke="#eabdff" points="277.522,-375.355 285.462,-378.323 281.106,-371.052 277.522,-375.355"/>
</a>
</g>
<!-- PATZ1_KLF4&#45;&gt;TBX15_MGA -->
<g id="edge74" class="edge"><title>PATZ1_KLF4&#45;&gt;TBX15_MGA</title>
<a xlink:title="MGA: 0.148||TBX15: 0.030||remove19root">
<path fill="none" stroke="#e9bbff" stroke-width="3" d="M202.885,-36.1495C195.057,-66.9679 178.809,-131.525 165.995,-186.335 156.414,-227.315 157.719,-238.505 145.56,-278.795 141.397,-292.59 135.717,-307.583 130.74,-319.876"/>
<polygon fill="#e9bbff" stroke="#e9bbff" points="128.048,-319.06 127.595,-327.524 133.227,-321.19 128.048,-319.06"/>
</a>
</g>
<!-- PATZ1_KLF4&#45;&gt;PATZ1_KLF4 -->
<g id="edge66" class="edge"><title>PATZ1_KLF4&#45;&gt;PATZ1_KLF4</title>
<a xlink:title="PATZ1: 0.441||KLF4: 0.051||remove37root">
<path fill="none" stroke="#de99ff" stroke-width="3" d="M245.729,-24.6907C255.85,-24.3083 263.515,-22.0781 263.515,-18 263.515,-15.1326 259.725,-13.1787 253.957,-12.1384"/>
<polygon fill="#de99ff" stroke="#de99ff" points="253.969,-9.32556 245.729,-11.3093 253.408,-14.8973 253.969,-9.32556"/>
</a>
</g>
<!-- PATZ1_KLF4&#45;&gt;TCF3_MYOG -->
<g id="edge68" class="edge"><title>PATZ1_KLF4&#45;&gt;TCF3_MYOG</title>
<a xlink:title="MYOG: 0.234||TCF3: 0.133||remove25root">
<path fill="none" stroke="#e6b1ff" stroke-width="3" d="M245.783,-30.5937C254.846,-33.4397 264.503,-36.3618 273.535,-38.88 298.754,-45.9112 327.14,-52.8476 350.303,-58.2587"/>
<polygon fill="#e6b1ff" stroke="#e6b1ff" points="349.839,-61.0253 358.264,-60.1068 351.105,-55.5703 349.839,-61.0253"/>
</a>
</g>
<!-- SP4_PML&#45;&gt;SIX5_SMARCC2_HCFC1 -->
<g id="edge58" class="edge"><title>SP4_PML&#45;&gt;SIX5_SMARCC2_HCFC1</title>
<a xlink:title="SMARCC2: 0.247||HCFC1: 0.067||remove26root">
<path fill="none" stroke="#e5afff" stroke-width="3" d="M290.882,-36.0326C248.244,-78.6706 141.197,-185.718 93.0824,-233.833"/>
<polygon fill="#e5afff" stroke="#e5afff" points="90.9188,-232.036 87.2419,-239.673 94.8787,-235.996 90.9188,-232.036"/>
</a>
</g>
<!-- SP4_PML&#45;&gt;TFEC_MITF_ARNTL_BHLHE41 -->
<g id="edge50" class="edge"><title>SP4_PML&#45;&gt;TFEC_MITF_ARNTL_BHLHE41</title>
<a xlink:title="MITF: 0.375||BHLHE41: 0.025||remove33root">
<path fill="none" stroke="#a0aaff" stroke-width="3" d="M304.054,-36.1427C295.006,-69.9078 275.559,-142.485 265.141,-181.367"/>
<polygon fill="#a0aaff" stroke="#a0aaff" points="262.428,-180.675 263.062,-189.127 267.837,-182.124 262.428,-180.675"/>
</a>
</g>
<!-- SP4_PML&#45;&gt;HOXD11_HOXA11 -->
<g id="edge60" class="edge"><title>SP4_PML&#45;&gt;HOXD11_HOXA11</title>
<a xlink:title="HOXD11: 0.108||remove13root">
<path fill="none" stroke="#eabfff" stroke-width="3" d="M315.016,-36.4087C324.824,-67.0776 343.682,-130.756 350.435,-186.335 358.578,-253.355 334.28,-331.003 319.465,-370.482"/>
<polygon fill="#eabfff" stroke="#eabfff" points="316.713,-369.837 316.463,-378.31 321.942,-371.843 316.713,-369.837"/>
</a>
</g>
<!-- SP4_PML&#45;&gt;DBX2_HLX -->
<g id="edge62" class="edge"><title>SP4_PML&#45;&gt;DBX2_HLX</title>
<a xlink:title="HLX: 0.023||remove4root">
<path fill="none" stroke="#edc9ff" stroke-width="3" d="M318.974,-36.2235C338.065,-73.3186 375.493,-159.863 350.435,-228.095 327.915,-289.415 272.056,-343.683 237.216,-373.119"/>
<polygon fill="#edc9ff" stroke="#edc9ff" points="235.324,-371.052 230.968,-378.323 238.908,-375.355 235.324,-371.052"/>
</a>
</g>
<!-- SP4_PML&#45;&gt;SIN3A_CHD1 -->
<g id="edge48" class="edge"><title>SP4_PML&#45;&gt;SIN3A_CHD1</title>
<a xlink:title="SIN3A: 0.124||remove17root">
<path fill="none" stroke="#eabdff" stroke-width="3" d="M278.514,-29.8878C269.887,-33.0382 260.435,-36.2819 251.595,-38.88 223.852,-47.0332 192.273,-54.2439 166.972,-59.5316"/>
<polygon fill="#eabdff" stroke="#eabdff" points="166.259,-56.8196 158.99,-61.1796 167.391,-62.304 166.259,-56.8196"/>
</a>
</g>
<!-- SP4_PML&#45;&gt;PATZ1_KLF4 -->
<g id="edge52" class="edge"><title>SP4_PML&#45;&gt;PATZ1_KLF4</title>
<a xlink:title="PATZ1: 0.058||remove6root">
<path fill="none" stroke="#ecc5ff" stroke-width="3" d="M278.492,-18C270.791,-18 262.344,-18 254.046,-18"/>
<polygon fill="#ecc5ff" stroke="#ecc5ff" points="253.832,-15.2001 245.832,-18 253.832,-20.8001 253.832,-15.2001"/>
</a>
</g>
<!-- SP4_PML&#45;&gt;SP4_PML -->
<g id="edge54" class="edge"><title>SP4_PML&#45;&gt;SP4_PML</title>
<a xlink:title="SP4: 0.061||remove7root">
<path fill="none" stroke="#ecc5ff" stroke-width="3" d="M339.382,-24.7484C349.163,-24.6791 356.915,-22.4297 356.915,-18 356.915,-14.8854 353.083,-12.8486 347.407,-11.8898"/>
<polygon fill="#ecc5ff" stroke="#ecc5ff" points="347.579,-9.09468 339.382,-11.2516 347.135,-14.6771 347.579,-9.09468"/>
</a>
</g>
<!-- SP4_PML&#45;&gt;TCF3_MYOG -->
<g id="edge56" class="edge"><title>SP4_PML&#45;&gt;TCF3_MYOG</title>
<a xlink:title="TCF3: 0.114||remove14root">
<path fill="none" stroke="#eabeff" stroke-width="3" d="M339.628,-35.7324C345.601,-39.1805 351.932,-42.8358 358.121,-46.4089"/>
<polygon fill="#eabeff" stroke="#eabeff" points="356.962,-48.9731 365.29,-50.5483 359.762,-44.1234 356.962,-48.9731"/>
</a>
</g>
<!-- TCF3_MYOG&#45;&gt;TFEC_MITF_ARNTL_BHLHE41 -->
<g id="edge76" class="edge"><title>TCF3_MYOG&#45;&gt;TFEC_MITF_ARNTL_BHLHE41</title>
<a xlink:title="MITF: 0.397||remove36root">
<path fill="none" stroke="#9ea8ff" stroke-width="3" d="M378.622,-86.8084C353.942,-111.488 309.683,-155.747 282.248,-183.182"/>
<polygon fill="#9ea8ff" stroke="#9ea8ff" points="280.005,-181.465 276.328,-189.102 283.965,-185.425 280.005,-181.465"/>
</a>
</g>
<!-- TCF3_MYOG&#45;&gt;HOXD11_HOXA11 -->
<g id="edge78" class="edge"><title>TCF3_MYOG&#45;&gt;HOXD11_HOXA11</title>
<a xlink:title="HOXA11: 0.003||remove1root">
<path fill="none" stroke="#eecbff" stroke-width="3" d="M391.884,-86.787C377.19,-141.624 333.097,-306.18 315.896,-370.378"/>
<polygon fill="#eecbff" stroke="#eecbff" points="313.112,-369.947 313.746,-378.399 318.522,-371.396 313.112,-369.947"/>
</a>
</g>
<!-- SP3&#45;&gt;SIX5_SMARCC2_HCFC1 -->
<g id="edge92" class="edge"><title>SP3&#45;&gt;SIX5_SMARCC2_HCFC1</title>
<a xlink:title="SMARCC2: 0.389||HCFC1: 0.087||SIX5: 0.064||remove35root">
<path fill="none" stroke="#e09fff" stroke-width="3" d="M429.22,-174.687C410.98,-191.658 381.256,-216.117 350.435,-228.095 283.623,-254.06 201.561,-260.116 143.329,-260.521"/>
<polygon fill="#e09fff" stroke="#e09fff" points="143.267,-257.721 135.274,-260.542 143.282,-263.321 143.267,-257.721"/>
</a>
</g>
<!-- SP3&#45;&gt;TFEC_MITF_ARNTL_BHLHE41 -->
<g id="edge80" class="edge"><title>SP3&#45;&gt;TFEC_MITF_ARNTL_BHLHE41</title>
<a xlink:title="MITF: 0.779||BHLHE41: 0.101||ARNTL: 0.007||remove42root">
<path fill="none" stroke="#7280ff" stroke-width="3" d="M420.32,-163.779C397.617,-169.862 364.094,-178.845 333.415,-187.065"/>
<polygon fill="#7280ff" stroke="#7280ff" points="332.688,-184.361 325.685,-189.136 334.137,-189.77 332.688,-184.361"/>
</a>
</g>
<!-- SP3&#45;&gt;HOXD10 -->
<g id="edge84" class="edge"><title>SP3&#45;&gt;HOXD10</title>
<a xlink:title="HOXD10: 0.021||remove3root">
<path fill="none" stroke="#edc9ff" stroke-width="3" d="M438.782,-174.666C431.451,-190.731 421.166,-214.982 414.95,-237.035 407.171,-264.633 402.256,-297.166 399.517,-319.4"/>
<polygon fill="#edc9ff" stroke="#edc9ff" points="396.732,-319.112 398.573,-327.385 402.293,-319.77 396.732,-319.112"/>
</a>
</g>
<!-- SP3&#45;&gt;HOXD11_HOXA11 -->
<g id="edge94" class="edge"><title>SP3&#45;&gt;HOXD11_HOXA11</title>
<a xlink:title="HOXA11: 0.002||remove0root">
<path fill="none" stroke="#eecbff" stroke-width="3" d="M437.019,-174.548C412.602,-216.838 351.602,-322.493 323.505,-371.16"/>
<polygon fill="#eecbff" stroke="#eecbff" points="321.022,-369.86 319.447,-378.188 325.872,-372.66 321.022,-369.86"/>
</a>
</g>
<!-- SP3&#45;&gt;ZNF711_TFAP2A_TFAP2D -->
<g id="edge86" class="edge"><title>SP3&#45;&gt;ZNF711_TFAP2A_TFAP2D</title>
<a xlink:title="TFAP2A: 0.666||ZNF711: 0.060||remove40root">
<path fill="none" stroke="#d67fff" stroke-width="3" d="M420.214,-156.515C363.573,-156.515 231.223,-156.515 146.141,-156.515"/>
<polygon fill="#d67fff" stroke="#d67fff" points="146.059,-153.715 138.059,-156.515 146.059,-159.315 146.059,-153.715"/>
</a>
</g>
<!-- SP3&#45;&gt;PATZ1_KLF4 -->
<g id="edge82" class="edge"><title>SP3&#45;&gt;PATZ1_KLF4</title>
<a xlink:title="PATZ1: 0.077||KLF4: 0.020||remove8root">
<path fill="none" stroke="#ebc3ff" stroke-width="3" d="M420.375,-140.895C377.742,-116.281 294.771,-68.3772 245.962,-40.1974"/>
<polygon fill="#ebc3ff" stroke="#ebc3ff" points="247.346,-37.7631 239.017,-36.1879 244.546,-42.6129 247.346,-37.7631"/>
</a>
</g>
<!-- SP3&#45;&gt;SP4_PML -->
<g id="edge88" class="edge"><title>SP3&#45;&gt;SP4_PML</title>
<a xlink:title="SP4: 0.099||remove11root">
<path fill="none" stroke="#ebc0ff" stroke-width="3" d="M420.052,-141.52C399.627,-129.395 371.938,-110.878 352.07,-89.58 339.342,-75.9359 328.513,-57.9392 320.886,-43.4047"/>
<polygon fill="#ebc0ff" stroke="#ebc0ff" points="323.322,-42.0187 317.196,-36.161 318.332,-44.5604 323.322,-42.0187"/>
</a>
</g>
<!-- SP3&#45;&gt;TCF3_MYOG -->
<g id="edge90" class="edge"><title>SP3&#45;&gt;TCF3_MYOG</title>
<a xlink:title="MYOG: 0.227||remove24root">
<path fill="none" stroke="#e6b1ff" stroke-width="3" d="M436.925,-138.32C429.515,-125.486 419.493,-108.126 411.31,-93.9526"/>
<polygon fill="#e6b1ff" stroke="#e6b1ff" points="413.647,-92.4002 407.222,-86.872 408.797,-95.2002 413.647,-92.4002"/>
</a>
</g>
</g>
</svg>
