<?xml version="1.0" encoding="UTF-8" standalone="no"?>
<!DOCTYPE svg PUBLIC "-//W3C//DTD SVG 1.1//EN"
 "http://www.w3.org/Graphics/SVG/1.1/DTD/svg11.dtd">
<!-- Generated by graphviz version 2.28.0 (20110630.0925)
 -->
<!-- Title: _anonymous_0 Pages: 1 -->
<svg width="509pt" height="366pt"
 viewBox="0.00 0.00 508.95 366.45" xmlns="http://www.w3.org/2000/svg" xmlns:xlink="http://www.w3.org/1999/xlink">
<g id="graph1" class="graph" transform="scale(1 1) rotate(0) translate(4 362.449)">
<title>_anonymous_0</title>
<polygon fill="white" stroke="white" points="-4,5 -4,-362.449 505.949,-362.449 505.949,5 -4,5"/>
<!-- SIN3A_CHD1 -->
<g id="node1" class="node"><title>SIN3A_CHD1</title>
<a xlink:href="SIN3A_CHD1.svg" xlink:title="Z&#45;value: 1.751||remove30">
<polygon fill="#3247ff" stroke="#3247ff" stroke-width="2" points="204.775,-358.449 150.275,-358.449 138.275,-346.449 138.275,-334.449 150.275,-322.449 204.775,-322.449 216.775,-334.449 216.775,-346.449 204.775,-358.449"/>
<path fill="#3247ff" stroke="#3247ff" stroke-width="2" d="M150.275,-358.449C144.275,-358.449 138.275,-352.449 138.275,-346.449"/>
<path fill="#3247ff" stroke="#3247ff" stroke-width="2" d="M138.275,-334.449C138.275,-328.449 144.275,-322.449 150.275,-322.449"/>
<path fill="#3247ff" stroke="#3247ff" stroke-width="2" d="M204.775,-322.449C210.775,-322.449 216.775,-328.449 216.775,-334.449"/>
<path fill="#3247ff" stroke="#3247ff" stroke-width="2" d="M216.775,-346.449C216.775,-352.449 210.775,-358.449 204.775,-358.449"/>
<polyline fill="none" stroke="white" stroke-width="2" points="204.775,-358.449 150.275,-358.449 "/>
<path fill="none" stroke="white" stroke-width="2" d="M150.275,-358.449C144.275,-358.449 138.275,-352.449 138.275,-346.449"/>
<polyline fill="none" stroke="white" stroke-width="2" points="138.275,-346.449 138.275,-334.449 "/>
<path fill="none" stroke="white" stroke-width="2" d="M138.275,-334.449C138.275,-328.449 144.275,-322.449 150.275,-322.449"/>
<polyline fill="none" stroke="white" stroke-width="2" points="150.275,-322.449 204.775,-322.449 "/>
<path fill="none" stroke="white" stroke-width="2" d="M204.775,-322.449C210.775,-322.449 216.775,-328.449 216.775,-334.449"/>
<polyline fill="none" stroke="white" stroke-width="2" points="216.775,-334.449 216.775,-346.449 "/>
<path fill="none" stroke="white" stroke-width="2" d="M216.775,-346.449C216.775,-352.449 210.775,-358.449 204.775,-358.449"/>
<text text-anchor="middle" x="177.525" y="-337.949" font-family="Helvetica,sans-Serif" font-size="10.00" fill="white">SIN3A_CHD1</text>
</a>
</g>
<!-- SIN3A_CHD1&#45;&gt;SIN3A_CHD1 -->
<g id="edge10" class="edge"><title>SIN3A_CHD1&#45;&gt;SIN3A_CHD1</title>
<a xlink:title="CHD1: 0.054||remove10root">
<path fill="none" stroke="#edc7ff" stroke-width="3" d="M217.03,-347.13C227.289,-346.719 235.025,-344.492 235.025,-340.449 235.025,-337.606 231.2,-335.662 225.363,-334.615"/>
<polygon fill="#edc7ff" stroke="#edc7ff" points="225.272,-331.791 217.03,-333.769 224.707,-337.363 225.272,-331.791"/>
</a>
</g>
<!-- TWIST1_SNAI1 -->
<g id="node2" class="node"><title>TWIST1_SNAI1</title>
<a xlink:href="TWIST1_SNAI1.svg" xlink:title="Z&#45;value: 0.616||remove23">
<polygon fill="#96a0ff" stroke="#96a0ff" stroke-width="2" points="134.2,-315.249 71.2,-315.249 59.2,-303.249 59.2,-291.249 71.2,-279.249 134.2,-279.249 146.2,-291.249 146.2,-303.249 134.2,-315.249"/>
<path fill="#96a0ff" stroke="#96a0ff" stroke-width="2" d="M71.2,-315.249C65.2,-315.249 59.2,-309.249 59.2,-303.249"/>
<path fill="#96a0ff" stroke="#96a0ff" stroke-width="2" d="M59.2,-291.249C59.2,-285.249 65.2,-279.249 71.2,-279.249"/>
<path fill="#96a0ff" stroke="#96a0ff" stroke-width="2" d="M134.2,-279.249C140.2,-279.249 146.2,-285.249 146.2,-291.249"/>
<path fill="#96a0ff" stroke="#96a0ff" stroke-width="2" d="M146.2,-303.249C146.2,-309.249 140.2,-315.249 134.2,-315.249"/>
<polyline fill="none" stroke="white" stroke-width="2" points="134.2,-315.249 71.2,-315.249 "/>
<path fill="none" stroke="white" stroke-width="2" d="M71.2,-315.249C65.2,-315.249 59.2,-309.249 59.2,-303.249"/>
<polyline fill="none" stroke="white" stroke-width="2" points="59.2,-303.249 59.2,-291.249 "/>
<path fill="none" stroke="white" stroke-width="2" d="M59.2,-291.249C59.2,-285.249 65.2,-279.249 71.2,-279.249"/>
<polyline fill="none" stroke="white" stroke-width="2" points="71.2,-279.249 134.2,-279.249 "/>
<path fill="none" stroke="white" stroke-width="2" d="M134.2,-279.249C140.2,-279.249 146.2,-285.249 146.2,-291.249"/>
<polyline fill="none" stroke="white" stroke-width="2" points="146.2,-291.249 146.2,-303.249 "/>
<path fill="none" stroke="white" stroke-width="2" d="M146.2,-303.249C146.2,-309.249 140.2,-315.249 134.2,-315.249"/>
<text text-anchor="middle" x="102.7" y="-294.749" font-family="Helvetica,sans-Serif" font-size="10.00">TWIST1_SNAI1</text>
</a>
</g>
<!-- SIN3A_CHD1&#45;&gt;TWIST1_SNAI1 -->
<g id="edge2" class="edge"><title>SIN3A_CHD1&#45;&gt;TWIST1_SNAI1</title>
<a xlink:title="TWIST1: 0.325||remove23">
<path fill="none" stroke="#e5b0ff" stroke-width="3" d="M146.226,-322.379C144.599,-321.44 142.956,-320.491 141.31,-319.541"/>
<polygon fill="#e5b0ff" stroke="#e5b0ff" points="142.442,-316.961 134.114,-315.386 139.642,-321.811 142.442,-316.961"/>
</a>
</g>
<!-- FOXD1_FOXO1_FOXO6_FOXG1_FOXP1 -->
<g id="node4" class="node"><title>FOXD1_FOXO1_FOXO6_FOXG1_FOXP1</title>
<a xlink:href="FOXD1_FOXO1_FOXO6_FOXG1_FOXP1.svg" xlink:title="Z&#45;value: 0.656||remove34">
<polygon fill="#929dff" stroke="#929dff" stroke-width="2" points="470.949,-240.425 292.949,-240.425 280.949,-228.425 280.949,-216.425 292.949,-204.425 470.949,-204.425 482.949,-216.425 482.949,-228.425 470.949,-240.425"/>
<path fill="#929dff" stroke="#929dff" stroke-width="2" d="M292.949,-240.425C286.949,-240.425 280.949,-234.425 280.949,-228.425"/>
<path fill="#929dff" stroke="#929dff" stroke-width="2" d="M280.949,-216.425C280.949,-210.425 286.949,-204.425 292.949,-204.425"/>
<path fill="#929dff" stroke="#929dff" stroke-width="2" d="M470.949,-204.425C476.949,-204.425 482.949,-210.425 482.949,-216.425"/>
<path fill="#929dff" stroke="#929dff" stroke-width="2" d="M482.949,-228.425C482.949,-234.425 476.949,-240.425 470.949,-240.425"/>
<polyline fill="none" stroke="white" stroke-width="2" points="470.949,-240.425 292.949,-240.425 "/>
<path fill="none" stroke="white" stroke-width="2" d="M292.949,-240.425C286.949,-240.425 280.949,-234.425 280.949,-228.425"/>
<polyline fill="none" stroke="white" stroke-width="2" points="280.949,-228.425 280.949,-216.425 "/>
<path fill="none" stroke="white" stroke-width="2" d="M280.949,-216.425C280.949,-210.425 286.949,-204.425 292.949,-204.425"/>
<polyline fill="none" stroke="white" stroke-width="2" points="292.949,-204.425 470.949,-204.425 "/>
<path fill="none" stroke="white" stroke-width="2" d="M470.949,-204.425C476.949,-204.425 482.949,-210.425 482.949,-216.425"/>
<polyline fill="none" stroke="white" stroke-width="2" points="482.949,-216.425 482.949,-228.425 "/>
<path fill="none" stroke="white" stroke-width="2" d="M482.949,-228.425C482.949,-234.425 476.949,-240.425 470.949,-240.425"/>
<text text-anchor="middle" x="381.949" y="-219.925" font-family="Helvetica,sans-Serif" font-size="10.00">FOXD1_FOXO1_FOXO6_FOXG1_FOXP1</text>
</a>
</g>
<!-- SIN3A_CHD1&#45;&gt;FOXD1_FOXO1_FOXO6_FOXG1_FOXP1 -->
<g id="edge4" class="edge"><title>SIN3A_CHD1&#45;&gt;FOXD1_FOXO1_FOXO6_FOXG1_FOXP1</title>
<a xlink:title="FOXG1: 0.205||FOXD1: 0.122||FOXP1: 0.057||CHD1: 0.008||remove26root">
<path fill="none" stroke="#e9baff" stroke-width="3" d="M215.55,-317.34C252.113,-296.231 306.75,-264.686 343.215,-243.633"/>
<path fill="none" stroke="#eecbff" stroke-width="3" d="M216.55,-319.072C253.113,-297.963 307.75,-266.418 344.215,-245.365"/>
<polygon fill="#eecbff" stroke="#eecbff" points="214.546,-315.842 209.018,-322.267 217.346,-320.691 214.546,-315.842"/>
<polygon fill="#e9baff" stroke="#e9baff" points="345.227,-246.859 350.756,-240.434 342.427,-242.009 345.227,-246.859"/>
</a>
</g>
<!-- VDR -->
<g id="node6" class="node"><title>VDR</title>
<a xlink:href="VDR.svg" xlink:title="Z&#45;value: 0.992||remove35">
<polygon fill="#ff7575" stroke="#ff7575" stroke-width="2" points="235.725,-197.225 205.725,-197.225 193.725,-185.225 193.725,-173.225 205.725,-161.225 235.725,-161.225 247.725,-173.225 247.725,-185.225 235.725,-197.225"/>
<path fill="#ff7575" stroke="#ff7575" stroke-width="2" d="M205.725,-197.225C199.725,-197.225 193.725,-191.225 193.725,-185.225"/>
<path fill="#ff7575" stroke="#ff7575" stroke-width="2" d="M193.725,-173.225C193.725,-167.225 199.725,-161.225 205.725,-161.225"/>
<path fill="#ff7575" stroke="#ff7575" stroke-width="2" d="M235.725,-161.225C241.725,-161.225 247.725,-167.225 247.725,-173.225"/>
<path fill="#ff7575" stroke="#ff7575" stroke-width="2" d="M247.725,-185.225C247.725,-191.225 241.725,-197.225 235.725,-197.225"/>
<polyline fill="none" stroke="white" stroke-width="2" points="235.725,-197.225 205.725,-197.225 "/>
<path fill="none" stroke="white" stroke-width="2" d="M205.725,-197.225C199.725,-197.225 193.725,-191.225 193.725,-185.225"/>
<polyline fill="none" stroke="white" stroke-width="2" points="193.725,-185.225 193.725,-173.225 "/>
<path fill="none" stroke="white" stroke-width="2" d="M193.725,-173.225C193.725,-167.225 199.725,-161.225 205.725,-161.225"/>
<polyline fill="none" stroke="white" stroke-width="2" points="205.725,-161.225 235.725,-161.225 "/>
<path fill="none" stroke="white" stroke-width="2" d="M235.725,-161.225C241.725,-161.225 247.725,-167.225 247.725,-173.225"/>
<polyline fill="none" stroke="white" stroke-width="2" points="247.725,-173.225 247.725,-185.225 "/>
<path fill="none" stroke="white" stroke-width="2" d="M247.725,-185.225C247.725,-191.225 241.725,-197.225 235.725,-197.225"/>
<text text-anchor="middle" x="220.725" y="-176.725" font-family="Helvetica,sans-Serif" font-size="10.00">VDR</text>
</a>
</g>
<!-- SIN3A_CHD1&#45;&gt;VDR -->
<g id="edge6" class="edge"><title>SIN3A_CHD1&#45;&gt;VDR</title>
<a xlink:title="VDR: 0.328||remove30root">
<path fill="none" stroke="#afb7ff" stroke-width="3" d="M182.396,-322.268C190.045,-293.723 204.904,-238.267 213.706,-205.42"/>
<polygon fill="#afb7ff" stroke="#afb7ff" points="216.438,-206.039 215.805,-197.587 211.029,-204.589 216.438,-206.039"/>
</a>
</g>
<!-- MAZ_ZNF281_GTF2F1 -->
<g id="node8" class="node"><title>MAZ_ZNF281_GTF2F1</title>
<a xlink:href="MAZ_ZNF281_GTF2F1.svg" xlink:title="Z&#45;value: 1.186||remove22">
<polygon fill="#6473ff" stroke="#6473ff" stroke-width="2" points="106.75,-240.425 12.25,-240.425 0.25,-228.425 0.25,-216.425 12.25,-204.425 106.75,-204.425 118.75,-216.425 118.75,-228.425 106.75,-240.425"/>
<path fill="#6473ff" stroke="#6473ff" stroke-width="2" d="M12.25,-240.425C6.25,-240.425 0.25,-234.425 0.25,-228.425"/>
<path fill="#6473ff" stroke="#6473ff" stroke-width="2" d="M0.25,-216.425C0.25,-210.425 6.25,-204.425 12.25,-204.425"/>
<path fill="#6473ff" stroke="#6473ff" stroke-width="2" d="M106.75,-204.425C112.75,-204.425 118.75,-210.425 118.75,-216.425"/>
<path fill="#6473ff" stroke="#6473ff" stroke-width="2" d="M118.75,-228.425C118.75,-234.425 112.75,-240.425 106.75,-240.425"/>
<polyline fill="none" stroke="white" stroke-width="2" points="106.75,-240.425 12.25,-240.425 "/>
<path fill="none" stroke="white" stroke-width="2" d="M12.25,-240.425C6.25,-240.425 0.25,-234.425 0.25,-228.425"/>
<polyline fill="none" stroke="white" stroke-width="2" points="0.25,-228.425 0.25,-216.425 "/>
<path fill="none" stroke="white" stroke-width="2" d="M0.25,-216.425C0.25,-210.425 6.25,-204.425 12.25,-204.425"/>
<polyline fill="none" stroke="white" stroke-width="2" points="12.25,-204.425 106.75,-204.425 "/>
<path fill="none" stroke="white" stroke-width="2" d="M106.75,-204.425C112.75,-204.425 118.75,-210.425 118.75,-216.425"/>
<polyline fill="none" stroke="white" stroke-width="2" points="118.75,-216.425 118.75,-228.425 "/>
<path fill="none" stroke="white" stroke-width="2" d="M118.75,-228.425C118.75,-234.425 112.75,-240.425 106.75,-240.425"/>
<text text-anchor="middle" x="59.5" y="-219.925" font-family="Helvetica,sans-Serif" font-size="10.00" fill="white">MAZ_ZNF281_GTF2F1</text>
</a>
</g>
<!-- SIN3A_CHD1&#45;&gt;MAZ_ZNF281_GTF2F1 -->
<g id="edge8" class="edge"><title>SIN3A_CHD1&#45;&gt;MAZ_ZNF281_GTF2F1</title>
<a xlink:title="MAZ: 0.257||ZNF281: 0.124||remove22">
<path fill="none" stroke="#e7b5ff" stroke-width="3" d="M174.33,-322.443C171.104,-308.569 164.943,-289.585 153.74,-276.369 142.635,-263.27 127.501,-252.662 112.611,-244.432"/>
<polygon fill="#e7b5ff" stroke="#e7b5ff" points="113.72,-241.851 105.34,-240.582 111.1,-246.8 113.72,-241.851"/>
</a>
</g>
<!-- KLF14_SP8 -->
<g id="node11" class="node"><title>KLF14_SP8</title>
<a xlink:href="KLF14_SP8.svg" xlink:title="Z&#45;value: 1.011||remove28">
<polygon fill="#7381ff" stroke="#7381ff" stroke-width="2" points="81.75,-154.025 37.25,-154.025 25.25,-142.025 25.25,-130.025 37.25,-118.025 81.75,-118.025 93.75,-130.025 93.75,-142.025 81.75,-154.025"/>
<path fill="#7381ff" stroke="#7381ff" stroke-width="2" d="M37.25,-154.025C31.25,-154.025 25.25,-148.025 25.25,-142.025"/>
<path fill="#7381ff" stroke="#7381ff" stroke-width="2" d="M25.25,-130.025C25.25,-124.025 31.25,-118.025 37.25,-118.025"/>
<path fill="#7381ff" stroke="#7381ff" stroke-width="2" d="M81.75,-118.025C87.75,-118.025 93.75,-124.025 93.75,-130.025"/>
<path fill="#7381ff" stroke="#7381ff" stroke-width="2" d="M93.75,-142.025C93.75,-148.025 87.75,-154.025 81.75,-154.025"/>
<polyline fill="none" stroke="white" stroke-width="2" points="81.75,-154.025 37.25,-154.025 "/>
<path fill="none" stroke="white" stroke-width="2" d="M37.25,-154.025C31.25,-154.025 25.25,-148.025 25.25,-142.025"/>
<polyline fill="none" stroke="white" stroke-width="2" points="25.25,-142.025 25.25,-130.025 "/>
<path fill="none" stroke="white" stroke-width="2" d="M25.25,-130.025C25.25,-124.025 31.25,-118.025 37.25,-118.025"/>
<polyline fill="none" stroke="white" stroke-width="2" points="37.25,-118.025 81.75,-118.025 "/>
<path fill="none" stroke="white" stroke-width="2" d="M81.75,-118.025C87.75,-118.025 93.75,-124.025 93.75,-130.025"/>
<polyline fill="none" stroke="white" stroke-width="2" points="93.75,-130.025 93.75,-142.025 "/>
<path fill="none" stroke="white" stroke-width="2" d="M93.75,-142.025C93.75,-148.025 87.75,-154.025 81.75,-154.025"/>
<text text-anchor="middle" x="59.5" y="-133.525" font-family="Helvetica,sans-Serif" font-size="10.00">KLF14_SP8</text>
</a>
</g>
<!-- SIN3A_CHD1&#45;&gt;KLF14_SP8 -->
<g id="edge12" class="edge"><title>SIN3A_CHD1&#45;&gt;KLF14_SP8</title>
<a xlink:title="KLF14: 0.343||SP8: 0.094||SIN3A: 0.009||remove28">
<path fill="none" stroke="#e5aeff" stroke-width="3" d="M171.159,-314.264C164.345,-285.067 150.606,-237.363 127.681,-202.089 117.541,-186.41 102.683,-171.653 89.4332,-160.218"/>
<path fill="none" stroke="#eecbff" stroke-width="3" d="M173.107,-313.809C166.267,-284.514 152.528,-236.809 129.359,-201.001 118.95,-184.991 104.092,-170.234 90.7401,-158.704"/>
<polygon fill="#eecbff" stroke="#eecbff" points="169.466,-314.939 173.955,-322.128 174.929,-313.709 169.466,-314.939"/>
<polygon fill="#e5aeff" stroke="#e5aeff" points="91.6338,-157.104 83.7091,-154.097 88.0292,-161.39 91.6338,-157.104"/>
</a>
</g>
<!-- NFIA -->
<g id="node13" class="node"><title>NFIA</title>
<a xlink:href="NFIA.svg" xlink:title="Z&#45;value: 0.607||remove33">
<polygon fill="#96a1ff" stroke="#96a1ff" stroke-width="2" points="353.749,-315.249 323.749,-315.249 311.749,-303.249 311.749,-291.249 323.749,-279.249 353.749,-279.249 365.749,-291.249 365.749,-303.249 353.749,-315.249"/>
<path fill="#96a1ff" stroke="#96a1ff" stroke-width="2" d="M323.749,-315.249C317.749,-315.249 311.749,-309.249 311.749,-303.249"/>
<path fill="#96a1ff" stroke="#96a1ff" stroke-width="2" d="M311.749,-291.249C311.749,-285.249 317.749,-279.249 323.749,-279.249"/>
<path fill="#96a1ff" stroke="#96a1ff" stroke-width="2" d="M353.749,-279.249C359.749,-279.249 365.749,-285.249 365.749,-291.249"/>
<path fill="#96a1ff" stroke="#96a1ff" stroke-width="2" d="M365.749,-303.249C365.749,-309.249 359.749,-315.249 353.749,-315.249"/>
<polyline fill="none" stroke="white" stroke-width="2" points="353.749,-315.249 323.749,-315.249 "/>
<path fill="none" stroke="white" stroke-width="2" d="M323.749,-315.249C317.749,-315.249 311.749,-309.249 311.749,-303.249"/>
<polyline fill="none" stroke="white" stroke-width="2" points="311.749,-303.249 311.749,-291.249 "/>
<path fill="none" stroke="white" stroke-width="2" d="M311.749,-291.249C311.749,-285.249 317.749,-279.249 323.749,-279.249"/>
<polyline fill="none" stroke="white" stroke-width="2" points="323.749,-279.249 353.749,-279.249 "/>
<path fill="none" stroke="white" stroke-width="2" d="M353.749,-279.249C359.749,-279.249 365.749,-285.249 365.749,-291.249"/>
<polyline fill="none" stroke="white" stroke-width="2" points="365.749,-291.249 365.749,-303.249 "/>
<path fill="none" stroke="white" stroke-width="2" d="M365.749,-303.249C365.749,-309.249 359.749,-315.249 353.749,-315.249"/>
<text text-anchor="middle" x="338.749" y="-294.749" font-family="Helvetica,sans-Serif" font-size="10.00">NFIA</text>
</a>
</g>
<!-- SIN3A_CHD1&#45;&gt;NFIA -->
<g id="edge14" class="edge"><title>SIN3A_CHD1&#45;&gt;NFIA</title>
<a xlink:title="NFIA: 0.024||remove2root">
<path fill="none" stroke="#eec9ff" stroke-width="3" d="M216.988,-324.65C222.198,-322.812 227.501,-321.063 232.605,-319.569 255.898,-312.75 282.643,-307.139 303.459,-303.249"/>
<polygon fill="#eec9ff" stroke="#eec9ff" points="304.048,-305.988 311.413,-301.792 303.039,-300.479 304.048,-305.988"/>
</a>
</g>
<!-- RCOR1_MTA3 -->
<g id="node15" class="node"><title>RCOR1_MTA3</title>
<a xlink:href="RCOR1_MTA3.svg" xlink:title="Z&#45;value: 1.731||remove32">
<polygon fill="#3448ff" stroke="#3448ff" stroke-width="2" points="131.95,-79.2 73.45,-79.2 61.45,-67.2 61.45,-55.2 73.45,-43.2 131.95,-43.2 143.95,-55.2 143.95,-67.2 131.95,-79.2"/>
<path fill="#3448ff" stroke="#3448ff" stroke-width="2" d="M73.45,-79.2C67.45,-79.2 61.45,-73.2 61.45,-67.2"/>
<path fill="#3448ff" stroke="#3448ff" stroke-width="2" d="M61.45,-55.2C61.45,-49.2 67.45,-43.2 73.45,-43.2"/>
<path fill="#3448ff" stroke="#3448ff" stroke-width="2" d="M131.95,-43.2C137.95,-43.2 143.95,-49.2 143.95,-55.2"/>
<path fill="#3448ff" stroke="#3448ff" stroke-width="2" d="M143.95,-67.2C143.95,-73.2 137.95,-79.2 131.95,-79.2"/>
<polyline fill="none" stroke="white" stroke-width="2" points="131.95,-79.2 73.45,-79.2 "/>
<path fill="none" stroke="white" stroke-width="2" d="M73.45,-79.2C67.45,-79.2 61.45,-73.2 61.45,-67.2"/>
<polyline fill="none" stroke="white" stroke-width="2" points="61.45,-67.2 61.45,-55.2 "/>
<path fill="none" stroke="white" stroke-width="2" d="M61.45,-55.2C61.45,-49.2 67.45,-43.2 73.45,-43.2"/>
<polyline fill="none" stroke="white" stroke-width="2" points="73.45,-43.2 131.95,-43.2 "/>
<path fill="none" stroke="white" stroke-width="2" d="M131.95,-43.2C137.95,-43.2 143.95,-49.2 143.95,-55.2"/>
<polyline fill="none" stroke="white" stroke-width="2" points="143.95,-55.2 143.95,-67.2 "/>
<path fill="none" stroke="white" stroke-width="2" d="M143.95,-67.2C143.95,-73.2 137.95,-79.2 131.95,-79.2"/>
<text text-anchor="middle" x="102.7" y="-58.7" font-family="Helvetica,sans-Serif" font-size="10.00" fill="white">RCOR1_MTA3</text>
</a>
</g>
<!-- SIN3A_CHD1&#45;&gt;RCOR1_MTA3 -->
<g id="edge16" class="edge"><title>SIN3A_CHD1&#45;&gt;RCOR1_MTA3</title>
<a xlink:title="RCOR1: 1.779||SIN3A: 0.229||remove30">
<path fill="none" stroke="#bd32ff" stroke-width="3" d="M169.49,-314.326C155.172,-260.893 122.904,-140.467 108.686,-87.4031"/>
<path fill="none" stroke="#e8b8ff" stroke-width="3" d="M171.421,-313.808C157.104,-260.376 124.836,-139.949 110.618,-86.8854"/>
<polygon fill="#e8b8ff" stroke="#e8b8ff" points="167.84,-315.124 172.615,-322.127 173.249,-313.675 167.84,-315.124"/>
<polygon fill="#bd32ff" stroke="#bd32ff" points="112.305,-86.2294 107.53,-79.2268 106.896,-87.6789 112.305,-86.2294"/>
</a>
</g>
<!-- TWIST1_SNAI1&#45;&gt;VDR -->
<g id="edge68" class="edge"><title>TWIST1_SNAI1&#45;&gt;VDR</title>
<a xlink:title="VDR: 0.163||remove23root">
<path fill="none" stroke="#bdc4ff" stroke-width="3" d="M120.883,-279.067C141.302,-258.648 174.513,-225.437 196.969,-202.98"/>
<polygon fill="#bdc4ff" stroke="#bdc4ff" points="199.038,-204.871 202.715,-197.234 195.078,-200.911 199.038,-204.871"/>
</a>
</g>
<!-- IKZF1 -->
<g id="node19" class="node"><title>IKZF1</title>
<a xlink:href="IKZF1.svg" xlink:title="Z&#45;value: 1.300||remove21">
<polygon fill="#5a6aff" stroke="#5a6aff" stroke-width="2" points="278.925,-36 248.925,-36 236.925,-24 236.925,-12 248.925,-0 278.925,-0 290.925,-12 290.925,-24 278.925,-36"/>
<path fill="#5a6aff" stroke="#5a6aff" stroke-width="2" d="M248.925,-36C242.925,-36 236.925,-30 236.925,-24"/>
<path fill="#5a6aff" stroke="#5a6aff" stroke-width="2" d="M236.925,-12C236.925,-6 242.925,-0 248.925,-0"/>
<path fill="#5a6aff" stroke="#5a6aff" stroke-width="2" d="M278.925,-0C284.925,-0 290.925,-6 290.925,-12"/>
<path fill="#5a6aff" stroke="#5a6aff" stroke-width="2" d="M290.925,-24C290.925,-30 284.925,-36 278.925,-36"/>
<polyline fill="none" stroke="white" stroke-width="2" points="278.925,-36 248.925,-36 "/>
<path fill="none" stroke="white" stroke-width="2" d="M248.925,-36C242.925,-36 236.925,-30 236.925,-24"/>
<polyline fill="none" stroke="white" stroke-width="2" points="236.925,-24 236.925,-12 "/>
<path fill="none" stroke="white" stroke-width="2" d="M236.925,-12C236.925,-6 242.925,-0 248.925,-0"/>
<polyline fill="none" stroke="white" stroke-width="2" points="248.925,-0 278.925,-0 "/>
<path fill="none" stroke="white" stroke-width="2" d="M278.925,-0C284.925,-0 290.925,-6 290.925,-12"/>
<polyline fill="none" stroke="white" stroke-width="2" points="290.925,-12 290.925,-24 "/>
<path fill="none" stroke="white" stroke-width="2" d="M290.925,-24C290.925,-30 284.925,-36 278.925,-36"/>
<text text-anchor="middle" x="263.925" y="-15.5" font-family="Helvetica,sans-Serif" font-size="10.00" fill="white">IKZF1</text>
</a>
</g>
<!-- TWIST1_SNAI1&#45;&gt;IKZF1 -->
<g id="edge66" class="edge"><title>TWIST1_SNAI1&#45;&gt;IKZF1</title>
<a xlink:title="IKZF1: 0.031||TWIST1: 0.011||SNAI1: 0.002||remove4root">
<path fill="none" stroke="#edc9ff" stroke-width="3" d="M116.47,-271.399C147.189,-218.191 218.067,-95.4286 248.616,-42.515"/>
<path fill="none" stroke="#eecbff" stroke-width="3" d="M118.202,-272.399C148.921,-219.191 219.799,-96.4286 250.348,-43.515"/>
<polygon fill="#eecbff" stroke="#eecbff" points="114.854,-270.599 113.278,-278.927 119.703,-273.399 114.854,-270.599"/>
<polygon fill="#edc9ff" stroke="#edc9ff" points="251.942,-44.355 253.517,-36.0268 247.092,-41.555 251.942,-44.355"/>
</a>
</g>
<!-- FOXD1_FOXO1_FOXO6_FOXG1_FOXP1&#45;&gt;FOXD1_FOXO1_FOXO6_FOXG1_FOXP1 -->
<g id="edge64" class="edge"><title>FOXD1_FOXO1_FOXO6_FOXG1_FOXP1&#45;&gt;FOXD1_FOXO1_FOXO6_FOXG1_FOXP1</title>
<a xlink:title="FOXP1: 0.292||FOXO1: 0.176||remove29root">
<path fill="none" stroke="#e6b2ff" stroke-width="3" d="M483.087,-228.061C493.957,-226.975 500.949,-225.096 500.949,-222.425 500.949,-220.504 497.337,-218.994 491.269,-217.893"/>
<polygon fill="#e6b2ff" stroke="#e6b2ff" points="491.389,-215.084 483.087,-216.789 490.64,-220.633 491.389,-215.084"/>
</a>
</g>
<!-- FOXD1_FOXO1_FOXO6_FOXG1_FOXP1&#45;&gt;IKZF1 -->
<g id="edge62" class="edge"><title>FOXD1_FOXO1_FOXO6_FOXG1_FOXP1&#45;&gt;IKZF1</title>
<a xlink:title="IKZF1: 0.006||FOXO6: 0.087||FOXG1: 0.026||remove12root">
<path fill="none" stroke="#eecbff" stroke-width="3" d="M366.526,-197.711C343.89,-158.504 300.496,-83.3434 277.767,-43.9757"/>
<path fill="none" stroke="#ecc4ff" stroke-width="3" d="M368.258,-196.711C345.622,-157.504 302.228,-82.3434 279.499,-42.9757"/>
<polygon fill="#ecc4ff" stroke="#ecc4ff" points="365.05,-198.755 371.475,-204.283 369.9,-195.955 365.05,-198.755"/>
<polygon fill="#eecbff" stroke="#eecbff" points="280.8,-41.6289 274.375,-36.1007 275.95,-44.4289 280.8,-41.6289"/>
</a>
</g>
<!-- VDR&#45;&gt;FOXD1_FOXO1_FOXO6_FOXG1_FOXP1 -->
<g id="edge56" class="edge"><title>VDR&#45;&gt;FOXD1_FOXO1_FOXO6_FOXG1_FOXP1</title>
<a xlink:title="FOXP1: 1.291||remove34root">
<path fill="none" stroke="#ff5c5c" stroke-width="3" d="M248.074,-186.553C264.246,-190.886 285.594,-196.606 306.479,-202.202"/>
<polygon fill="#ff5c5c" stroke="#ff5c5c" points="305.997,-204.972 314.449,-204.338 307.447,-199.563 305.997,-204.972"/>
</a>
</g>
<!-- VDR&#45;&gt;NFIA -->
<g id="edge60" class="edge"><title>VDR&#45;&gt;NFIA</title>
<a xlink:title="NFIA: 0.494||remove33root">
<path fill="none" stroke="#ffa1a1" stroke-width="3" d="M230.864,-197.285C238.986,-210.834 251.234,-229.367 264.789,-243.305 276.679,-255.529 291.594,-266.982 304.91,-276.164"/>
<polygon fill="#ffa1a1" stroke="#ffa1a1" points="303.506,-278.595 311.704,-280.75 306.64,-273.953 303.506,-278.595"/>
</a>
</g>
<!-- SP100 -->
<g id="node40" class="node"><title>SP100</title>
<a xlink:href="SP100.svg" xlink:title="Z&#45;value: 0.584||remove31">
<polygon fill="#98a3ff" stroke="#98a3ff" stroke-width="2" points="278.925,-358.449 248.925,-358.449 236.925,-346.449 236.925,-334.449 248.925,-322.449 278.925,-322.449 290.925,-334.449 290.925,-346.449 278.925,-358.449"/>
<path fill="#98a3ff" stroke="#98a3ff" stroke-width="2" d="M248.925,-358.449C242.925,-358.449 236.925,-352.449 236.925,-346.449"/>
<path fill="#98a3ff" stroke="#98a3ff" stroke-width="2" d="M236.925,-334.449C236.925,-328.449 242.925,-322.449 248.925,-322.449"/>
<path fill="#98a3ff" stroke="#98a3ff" stroke-width="2" d="M278.925,-322.449C284.925,-322.449 290.925,-328.449 290.925,-334.449"/>
<path fill="#98a3ff" stroke="#98a3ff" stroke-width="2" d="M290.925,-346.449C290.925,-352.449 284.925,-358.449 278.925,-358.449"/>
<polyline fill="none" stroke="white" stroke-width="2" points="278.925,-358.449 248.925,-358.449 "/>
<path fill="none" stroke="white" stroke-width="2" d="M248.925,-358.449C242.925,-358.449 236.925,-352.449 236.925,-346.449"/>
<polyline fill="none" stroke="white" stroke-width="2" points="236.925,-346.449 236.925,-334.449 "/>
<path fill="none" stroke="white" stroke-width="2" d="M236.925,-334.449C236.925,-328.449 242.925,-322.449 248.925,-322.449"/>
<polyline fill="none" stroke="white" stroke-width="2" points="248.925,-322.449 278.925,-322.449 "/>
<path fill="none" stroke="white" stroke-width="2" d="M278.925,-322.449C284.925,-322.449 290.925,-328.449 290.925,-334.449"/>
<polyline fill="none" stroke="white" stroke-width="2" points="290.925,-334.449 290.925,-346.449 "/>
<path fill="none" stroke="white" stroke-width="2" d="M290.925,-346.449C290.925,-352.449 284.925,-358.449 278.925,-358.449"/>
<text text-anchor="middle" x="263.925" y="-337.949" font-family="Helvetica,sans-Serif" font-size="10.00">SP100</text>
</a>
</g>
<!-- VDR&#45;&gt;SP100 -->
<g id="edge58" class="edge"><title>VDR&#45;&gt;SP100</title>
<a xlink:title="SP100: 0.337||remove31root">
<path fill="none" stroke="#ffafaf" stroke-width="3" d="M225.596,-197.406C233.245,-225.951 248.104,-281.407 256.906,-314.254"/>
<polygon fill="#ffafaf" stroke="#ffafaf" points="254.229,-315.084 259.005,-322.087 259.638,-313.635 254.229,-315.084"/>
</a>
</g>
<!-- MAZ_ZNF281_GTF2F1&#45;&gt;TWIST1_SNAI1 -->
<g id="edge22" class="edge"><title>MAZ_ZNF281_GTF2F1&#45;&gt;TWIST1_SNAI1</title>
<a xlink:title="TWIST1: 0.136||remove19root">
<path fill="none" stroke="#eac0ff" stroke-width="3" d="M69.9575,-240.538C75.3829,-249.935 82.0997,-261.568 88.035,-271.849"/>
<polygon fill="#eac0ff" stroke="#eac0ff" points="85.7641,-273.516 92.1891,-279.044 90.6139,-270.715 85.7641,-273.516"/>
</a>
</g>
<!-- MAZ_ZNF281_GTF2F1&#45;&gt;FOXD1_FOXO1_FOXO6_FOXG1_FOXP1 -->
<g id="edge26" class="edge"><title>MAZ_ZNF281_GTF2F1&#45;&gt;FOXD1_FOXO1_FOXO6_FOXG1_FOXP1</title>
<a xlink:title="FOXP1: 0.089||remove13root">
<path fill="none" stroke="#ecc4ff" stroke-width="3" d="M119.018,-222.425C161.942,-222.425 221.122,-222.425 272.469,-222.425"/>
<polygon fill="#ecc4ff" stroke="#ecc4ff" points="272.639,-225.225 280.639,-222.425 272.639,-219.625 272.639,-225.225"/>
</a>
</g>
<!-- MAZ_ZNF281_GTF2F1&#45;&gt;VDR -->
<g id="edge28" class="edge"><title>MAZ_ZNF281_GTF2F1&#45;&gt;VDR</title>
<a xlink:title="VDR: 0.154||ZNF281: 0.033||remove22root">
<path fill="none" stroke="#bec5ff" stroke-width="3" d="M126.661,-203.394C146.713,-198.021 167.886,-192.347 185.031,-187.753"/>
<path fill="none" stroke="#ffc9c9" stroke-width="3" d="M127.178,-205.326C147.231,-199.952 168.403,-194.279 185.549,-189.685"/>
<polygon fill="#ffc9c9" stroke="#ffc9c9" points="126.079,-201.686 119.076,-206.461 127.528,-207.095 126.079,-201.686"/>
<polygon fill="#bec5ff" stroke="#bec5ff" points="186.358,-191.332 193.361,-186.557 184.909,-185.923 186.358,-191.332"/>
</a>
</g>
<!-- MAZ_ZNF281_GTF2F1&#45;&gt;MAZ_ZNF281_GTF2F1 -->
<g id="edge30" class="edge"><title>MAZ_ZNF281_GTF2F1&#45;&gt;MAZ_ZNF281_GTF2F1</title>
<a xlink:title="MAZ: 0.032||remove5root">
<path fill="none" stroke="#edc9ff" stroke-width="3" d="M118.904,-228.753C129.281,-227.909 136.5,-225.8 136.5,-222.425 136.5,-220.052 132.931,-218.304 127.205,-217.183"/>
<polygon fill="#edc9ff" stroke="#edc9ff" points="127.2,-214.358 118.904,-216.096 126.473,-219.911 127.2,-214.358"/>
</a>
</g>
<!-- MAZ_ZNF281_GTF2F1&#45;&gt;KLF14_SP8 -->
<g id="edge32" class="edge"><title>MAZ_ZNF281_GTF2F1&#45;&gt;KLF14_SP8</title>
<a xlink:title="SP8: 0.206||MAZ: 0.046||ZNF281: 0.019||remove22">
<path fill="none" stroke="#e9baff" stroke-width="3" d="M58.5,-196.029C58.5,-185.292 58.5,-172.913 58.5,-162.198"/>
<path fill="none" stroke="#edc8ff" stroke-width="3" d="M60.5,-196.029C60.5,-185.292 60.5,-172.913 60.5,-162.198"/>
<polygon fill="#edc8ff" stroke="#edc8ff" points="56.7001,-196.101 59.5,-204.101 62.3001,-196.101 56.7001,-196.101"/>
<polygon fill="#e9baff" stroke="#e9baff" points="62.3001,-162.025 59.5,-154.025 56.7001,-162.025 62.3001,-162.025"/>
</a>
</g>
<!-- MAZ_ZNF281_GTF2F1&#45;&gt;NFIA -->
<g id="edge34" class="edge"><title>MAZ_ZNF281_GTF2F1&#45;&gt;NFIA</title>
<a xlink:title="NFIA: 0.089||remove14root">
<path fill="none" stroke="#ecc4ff" stroke-width="3" d="M119.063,-238.385C175.124,-253.406 257.194,-275.396 303.519,-287.809"/>
<polygon fill="#ecc4ff" stroke="#ecc4ff" points="303.012,-290.572 311.464,-289.938 304.461,-285.163 303.012,-290.572"/>
</a>
</g>
<!-- MAZ_ZNF281_GTF2F1&#45;&gt;RCOR1_MTA3 -->
<g id="edge36" class="edge"><title>MAZ_ZNF281_GTF2F1&#45;&gt;RCOR1_MTA3</title>
<a xlink:title="RCOR1: 0.132||MTA3: 0.104||MAZ: 0.067||remove17root">
<path fill="none" stroke="#ebc0ff" stroke-width="3" d="M78.2212,-196.761C86.086,-185.198 94.3487,-170.789 98.562,-156.618 105.329,-134.144 105.529,-106.982 104.377,-87.4834"/>
<path fill="none" stroke="#ecc6ff" stroke-width="3" d="M79.8751,-197.886C87.821,-186.193 96.0837,-171.784 100.478,-157.191 107.329,-134.159 107.529,-106.997 106.374,-87.3657"/>
<polygon fill="#ecc6ff" stroke="#ecc6ff" points="76.5351,-196.029 74.2107,-204.18 81.1108,-199.257 76.5351,-196.029"/>
<polygon fill="#ebc0ff" stroke="#ebc0ff" points="108.156,-87.0561 104.792,-79.2768 102.571,-87.4565 108.156,-87.0561"/>
</a>
</g>
<!-- MESP1 -->
<g id="node17" class="node"><title>MESP1</title>
<a xlink:href="MESP1.svg" xlink:title="Z&#45;value: 0.887||remove24">
<polygon fill="#7e8bff" stroke="#7e8bff" stroke-width="2" points="192.525,-36 162.525,-36 150.525,-24 150.525,-12 162.525,-6.39488e-14 192.525,-6.39488e-14 204.525,-12 204.525,-24 192.525,-36"/>
<path fill="#7e8bff" stroke="#7e8bff" stroke-width="2" d="M162.525,-36C156.525,-36 150.525,-30 150.525,-24"/>
<path fill="#7e8bff" stroke="#7e8bff" stroke-width="2" d="M150.525,-12C150.525,-6 156.525,-6.39488e-14 162.525,-6.39488e-14"/>
<path fill="#7e8bff" stroke="#7e8bff" stroke-width="2" d="M192.525,-6.39488e-14C198.525,-6.39488e-14 204.525,-6 204.525,-12"/>
<path fill="#7e8bff" stroke="#7e8bff" stroke-width="2" d="M204.525,-24C204.525,-30 198.525,-36 192.525,-36"/>
<polyline fill="none" stroke="white" stroke-width="2" points="192.525,-36 162.525,-36 "/>
<path fill="none" stroke="white" stroke-width="2" d="M162.525,-36C156.525,-36 150.525,-30 150.525,-24"/>
<polyline fill="none" stroke="white" stroke-width="2" points="150.525,-24 150.525,-12 "/>
<path fill="none" stroke="white" stroke-width="2" d="M150.525,-12C150.525,-6 156.525,-6.39488e-14 162.525,-6.39488e-14"/>
<polyline fill="none" stroke="white" stroke-width="2" points="162.525,-6.39488e-14 192.525,-6.39488e-14 "/>
<path fill="none" stroke="white" stroke-width="2" d="M192.525,-6.39488e-14C198.525,-6.39488e-14 204.525,-6 204.525,-12"/>
<polyline fill="none" stroke="white" stroke-width="2" points="204.525,-12 204.525,-24 "/>
<path fill="none" stroke="white" stroke-width="2" d="M204.525,-24C204.525,-30 198.525,-36 192.525,-36"/>
<text text-anchor="middle" x="177.525" y="-15.5" font-family="Helvetica,sans-Serif" font-size="10.00">MESP1</text>
</a>
</g>
<!-- MAZ_ZNF281_GTF2F1&#45;&gt;MESP1 -->
<g id="edge18" class="edge"><title>MAZ_ZNF281_GTF2F1&#45;&gt;MESP1</title>
<a xlink:title="MESP1: 0.011||remove0root">
<path fill="none" stroke="#eecbff" stroke-width="3" d="M73.0426,-204.022C91.9583,-177.816 126.68,-127.84 150.84,-82.08 157.348,-69.7538 163.422,-55.4849 168.127,-43.545"/>
<polygon fill="#eecbff" stroke="#eecbff" points="170.74,-44.5504 171.011,-36.0789 165.516,-42.5324 170.74,-44.5504"/>
</a>
</g>
<!-- MAZ_ZNF281_GTF2F1&#45;&gt;IKZF1 -->
<g id="edge20" class="edge"><title>MAZ_ZNF281_GTF2F1&#45;&gt;IKZF1</title>
<a xlink:title="IKZF1: 0.001||MAZ: 0.119||ZNF281: 0.033||remove16root">
<path fill="none" stroke="#eecbff" stroke-width="3" d="M82.7205,-197.79C122.008,-158.502 199.749,-80.7616 239.136,-41.374"/>
<path fill="none" stroke="#ebc1ff" stroke-width="3" d="M84.1347,-199.204C123.423,-159.916 201.163,-82.1758 240.551,-42.7882"/>
<polygon fill="#ebc1ff" stroke="#ebc1ff" points="81.3183,-196.646 77.6413,-204.283 85.2781,-200.606 81.3183,-196.646"/>
<polygon fill="#eecbff" stroke="#eecbff" points="242.147,-43.7375 245.824,-36.1007 238.187,-39.7776 242.147,-43.7375"/>
</a>
</g>
<!-- HIVEP1 -->
<g id="node22" class="node"><title>HIVEP1</title>
<a xlink:href="HIVEP1.svg" xlink:title="Z&#45;value: 0.599||remove20">
<polygon fill="#97a1ff" stroke="#97a1ff" stroke-width="2" points="353.749,-79.2 323.749,-79.2 311.749,-67.2 311.749,-55.2 323.749,-43.2 353.749,-43.2 365.749,-55.2 365.749,-67.2 353.749,-79.2"/>
<path fill="#97a1ff" stroke="#97a1ff" stroke-width="2" d="M323.749,-79.2C317.749,-79.2 311.749,-73.2 311.749,-67.2"/>
<path fill="#97a1ff" stroke="#97a1ff" stroke-width="2" d="M311.749,-55.2C311.749,-49.2 317.749,-43.2 323.749,-43.2"/>
<path fill="#97a1ff" stroke="#97a1ff" stroke-width="2" d="M353.749,-43.2C359.749,-43.2 365.749,-49.2 365.749,-55.2"/>
<path fill="#97a1ff" stroke="#97a1ff" stroke-width="2" d="M365.749,-67.2C365.749,-73.2 359.749,-79.2 353.749,-79.2"/>
<polyline fill="none" stroke="white" stroke-width="2" points="353.749,-79.2 323.749,-79.2 "/>
<path fill="none" stroke="white" stroke-width="2" d="M323.749,-79.2C317.749,-79.2 311.749,-73.2 311.749,-67.2"/>
<polyline fill="none" stroke="white" stroke-width="2" points="311.749,-67.2 311.749,-55.2 "/>
<path fill="none" stroke="white" stroke-width="2" d="M311.749,-55.2C311.749,-49.2 317.749,-43.2 323.749,-43.2"/>
<polyline fill="none" stroke="white" stroke-width="2" points="323.749,-43.2 353.749,-43.2 "/>
<path fill="none" stroke="white" stroke-width="2" d="M353.749,-43.2C359.749,-43.2 365.749,-49.2 365.749,-55.2"/>
<polyline fill="none" stroke="white" stroke-width="2" points="365.749,-55.2 365.749,-67.2 "/>
<path fill="none" stroke="white" stroke-width="2" d="M365.749,-67.2C365.749,-73.2 359.749,-79.2 353.749,-79.2"/>
<text text-anchor="middle" x="338.749" y="-58.7" font-family="Helvetica,sans-Serif" font-size="10.00">HIVEP1</text>
</a>
</g>
<!-- MAZ_ZNF281_GTF2F1&#45;&gt;HIVEP1 -->
<g id="edge24" class="edge"><title>MAZ_ZNF281_GTF2F1&#45;&gt;HIVEP1</title>
<a xlink:title="HIVEP1: 0.037||ZNF281: 0.018||remove7root">
<path fill="none" stroke="#edc8ff" stroke-width="3" d="M97.2845,-199.455C151.938,-167.901 251.493,-110.422 303.894,-80.1688"/>
<path fill="none" stroke="#eecaff" stroke-width="3" d="M98.2845,-201.187C152.938,-169.633 252.493,-112.155 304.894,-81.9009"/>
<polygon fill="#eecaff" stroke="#eecaff" points="96.2488,-197.974 90.7206,-204.399 99.0488,-202.824 96.2488,-197.974"/>
<polygon fill="#edc8ff" stroke="#edc8ff" points="305.937,-83.3771 311.466,-76.9522 303.137,-78.5273 305.937,-83.3771"/>
</a>
</g>
<!-- KLF14_SP8&#45;&gt;VDR -->
<g id="edge54" class="edge"><title>KLF14_SP8&#45;&gt;VDR</title>
<a xlink:title="VDR: 0.235||remove28root">
<path fill="none" stroke="#b7beff" stroke-width="3" d="M94.0867,-145.292C121.087,-152.527 158.447,-162.537 185.586,-169.809"/>
<polygon fill="#b7beff" stroke="#b7beff" points="185.206,-172.606 193.658,-171.972 186.656,-167.197 185.206,-172.606"/>
</a>
</g>
<!-- RCOR1_MTA3&#45;&gt;TWIST1_SNAI1 -->
<g id="edge42" class="edge"><title>RCOR1_MTA3&#45;&gt;TWIST1_SNAI1</title>
<a xlink:title="TWIST1: 0.254||remove23">
<path fill="none" stroke="#e7b6ff" stroke-width="3" d="M109.55,-79.2134C121.113,-112.11 141.985,-183.984 128.52,-243.305 126.316,-253.015 122.139,-263.021 117.778,-271.738"/>
<polygon fill="#e7b6ff" stroke="#e7b6ff" points="115.19,-270.644 113.942,-279.027 120.145,-273.252 115.19,-270.644"/>
</a>
</g>
<!-- RCOR1_MTA3&#45;&gt;FOXD1_FOXO1_FOXO6_FOXG1_FOXP1 -->
<g id="edge44" class="edge"><title>RCOR1_MTA3&#45;&gt;FOXD1_FOXO1_FOXO6_FOXG1_FOXP1</title>
<a xlink:title="FOXD1: 0.228||FOXP1: 0.064||remove27root">
<path fill="none" stroke="#e8b8ff" stroke-width="3" d="M133.921,-79.2252C185.271,-108.872 287.417,-167.846 343.268,-200.092"/>
<polygon fill="#e8b8ff" stroke="#e8b8ff" points="342.174,-202.694 350.502,-204.269 344.974,-197.844 342.174,-202.694"/>
</a>
</g>
<!-- RCOR1_MTA3&#45;&gt;VDR -->
<g id="edge46" class="edge"><title>RCOR1_MTA3&#45;&gt;VDR</title>
<a xlink:title="VDR: 0.470||remove32root">
<path fill="none" stroke="#a3acff" stroke-width="3" d="M120.883,-79.3827C141.302,-99.8017 174.513,-133.013 196.969,-155.469"/>
<polygon fill="#a3acff" stroke="#a3acff" points="195.078,-157.538 202.715,-161.215 199.038,-153.578 195.078,-157.538"/>
</a>
</g>
<!-- RCOR1_MTA3&#45;&gt;KLF14_SP8 -->
<g id="edge48" class="edge"><title>RCOR1_MTA3&#45;&gt;KLF14_SP8</title>
<a xlink:title="KLF14: 0.134||remove18root">
<path fill="none" stroke="#eac0ff" stroke-width="3" d="M92.2425,-79.3129C86.8171,-88.7099 80.1003,-100.344 74.165,-110.624"/>
<polygon fill="#eac0ff" stroke="#eac0ff" points="71.5861,-109.491 70.0109,-117.819 76.4359,-112.291 71.5861,-109.491"/>
</a>
</g>
<!-- RCOR1_MTA3&#45;&gt;NFIA -->
<g id="edge50" class="edge"><title>RCOR1_MTA3&#45;&gt;NFIA</title>
<a xlink:title="NFIA: 0.096||remove15root">
<path fill="none" stroke="#ecc3ff" stroke-width="3" d="M110.941,-79.5861C124.316,-107.95 152.964,-162.977 189.405,-200.105 223.403,-234.744 271.835,-263.418 304.231,-280.424"/>
<polygon fill="#ecc3ff" stroke="#ecc3ff" points="303.306,-283.098 311.698,-284.287 305.879,-278.124 303.306,-283.098"/>
</a>
</g>
<!-- RCOR1_MTA3&#45;&gt;RCOR1_MTA3 -->
<g id="edge52" class="edge"><title>RCOR1_MTA3&#45;&gt;RCOR1_MTA3</title>
<a xlink:title="RCOR1: 1.276||remove32">
<path fill="none" stroke="#cb5eff" stroke-width="3" d="M144.055,-67.8445C154.171,-67.3523 161.7,-65.1375 161.7,-61.2 161.7,-58.4314 157.978,-56.5145 152.251,-55.4493"/>
<polygon fill="#cb5eff" stroke="#cb5eff" points="152.311,-52.6393 144.055,-54.5555 151.704,-58.2063 152.311,-52.6393"/>
</a>
</g>
<!-- RCOR1_MTA3&#45;&gt;MESP1 -->
<g id="edge38" class="edge"><title>RCOR1_MTA3&#45;&gt;MESP1</title>
<a xlink:title="MESP1: 0.556||remove24">
<path fill="none" stroke="#df9cff" stroke-width="3" d="M133.999,-43.1296C137.062,-41.3609 140.182,-39.5597 143.273,-37.7752"/>
<polygon fill="#df9cff" stroke="#df9cff" points="144.864,-40.0898 150.392,-33.6649 142.064,-35.2401 144.864,-40.0898"/>
</a>
</g>
<!-- RCOR1_MTA3&#45;&gt;IKZF1 -->
<g id="edge40" class="edge"><title>RCOR1_MTA3&#45;&gt;IKZF1</title>
<a xlink:title="IKZF1: 0.518||RCOR1: 0.141||MTA3: 0.016||remove21">
<path fill="none" stroke="#e09fff" stroke-width="3" d="M152.03,-51.4608C169.988,-47.8523 190.366,-43.2498 208.564,-37.9203 215.153,-35.992 222.121,-33.6211 228.764,-31.1901"/>
<path fill="none" stroke="#eabfff" stroke-width="3" d="M152.424,-53.4216C170.429,-49.8031 190.807,-45.2007 209.126,-39.8397 215.798,-37.8854 222.765,-35.5144 229.451,-33.0683"/>
<polygon fill="#eabfff" stroke="#eabfff" points="151.458,-49.7386 144.15,-54.031 152.54,-55.2332 151.458,-49.7386"/>
<polygon fill="#e09fff" stroke="#e09fff" points="230.249,-34.6915 236.753,-29.2571 228.279,-29.4492 230.249,-34.6915"/>
</a>
</g>
<!-- MESP1&#45;&gt;TWIST1_SNAI1 -->
<g id="edge78" class="edge"><title>MESP1&#45;&gt;TWIST1_SNAI1</title>
<a xlink:title="SNAI1: 0.041||remove8root">
<path fill="none" stroke="#edc8ff" stroke-width="3" d="M175.034,-36.2029C169.405,-75.0265 154.16,-168.519 128.52,-243.305 125.238,-252.876 120.714,-262.978 116.368,-271.819"/>
<polygon fill="#edc8ff" stroke="#edc8ff" points="113.738,-270.815 112.63,-279.219 118.736,-273.34 113.738,-270.815"/>
</a>
</g>
<!-- MESP1&#45;&gt;VDR -->
<g id="edge80" class="edge"><title>MESP1&#45;&gt;VDR</title>
<a xlink:title="VDR: 0.183||remove24root">
<path fill="none" stroke="#bcc2ff" stroke-width="3" d="M182.396,-36.1811C190.045,-64.7264 204.904,-120.183 213.706,-153.029"/>
<polygon fill="#bcc2ff" stroke="#bcc2ff" points="211.029,-153.86 215.805,-160.863 216.438,-152.41 211.029,-153.86"/>
</a>
</g>
<!-- MESP1&#45;&gt;NFIA -->
<g id="edge82" class="edge"><title>MESP1&#45;&gt;NFIA</title>
<a xlink:title="NFIA: 0.028||remove3root">
<path fill="none" stroke="#edc9ff" stroke-width="3" d="M189.78,-36.1589C206.647,-62.0753 236.667,-111.709 252.045,-158.345 264.002,-194.607 245.003,-210.649 264.789,-243.305 274.203,-258.84 289.953,-271.257 304.506,-280.242"/>
<polygon fill="#edc9ff" stroke="#edc9ff" points="303.207,-282.727 311.521,-284.376 306.05,-277.902 303.207,-282.727"/>
</a>
</g>
<!-- IKZF1&#45;&gt;SIN3A_CHD1 -->
<g id="edge76" class="edge"><title>IKZF1&#45;&gt;SIN3A_CHD1</title>
<a xlink:title="SIN3A: 0.037||remove6root">
<path fill="none" stroke="#edc8ff" stroke-width="3" d="M250.825,-36.4267C233.259,-62.2629 202.741,-111.372 189.405,-158.345 174.144,-212.096 174.271,-278.214 175.828,-314.15"/>
<polygon fill="#edc8ff" stroke="#edc8ff" points="173.033,-314.335 176.222,-322.188 178.627,-314.061 173.033,-314.335"/>
</a>
</g>
<!-- IKZF1&#45;&gt;VDR -->
<g id="edge72" class="edge"><title>IKZF1&#45;&gt;VDR</title>
<a xlink:title="VDR: 0.154||remove21root">
<path fill="none" stroke="#bec5ff" stroke-width="3" d="M259.053,-36.1811C251.404,-64.7264 236.545,-120.183 227.744,-153.029"/>
<polygon fill="#bec5ff" stroke="#bec5ff" points="225.011,-152.41 225.645,-160.863 230.42,-153.86 225.011,-152.41"/>
</a>
</g>
<!-- IKZF1&#45;&gt;MESP1 -->
<g id="edge70" class="edge"><title>IKZF1&#45;&gt;MESP1</title>
<a xlink:title="MESP1: 0.063||remove11root">
<path fill="none" stroke="#ecc6ff" stroke-width="3" d="M236.587,-18C229.028,-18 220.717,-18 212.777,-18"/>
<polygon fill="#ecc6ff" stroke="#ecc6ff" points="212.684,-15.2001 204.684,-18 212.684,-20.8001 212.684,-15.2001"/>
</a>
</g>
<!-- IKZF1&#45;&gt;SP100 -->
<g id="edge74" class="edge"><title>IKZF1&#45;&gt;SP100</title>
<a xlink:title="SP100: 0.017||remove1root">
<path fill="none" stroke="#eecaff" stroke-width="3" d="M263.925,-36.2601C263.925,-90.4652 263.925,-250.61 263.925,-314.094"/>
<polygon fill="#eecaff" stroke="#eecaff" points="261.125,-314.389 263.925,-322.389 266.725,-314.389 261.125,-314.389"/>
</a>
</g>
<!-- HIVEP1&#45;&gt;VDR -->
<g id="edge86" class="edge"><title>HIVEP1&#45;&gt;VDR</title>
<a xlink:title="VDR: 0.139||remove20root">
<path fill="none" stroke="#c0c6ff" stroke-width="3" d="M320.567,-79.3827C300.148,-99.8017 266.937,-133.013 244.48,-155.469"/>
<polygon fill="#c0c6ff" stroke="#c0c6ff" points="242.411,-153.578 238.734,-161.215 246.371,-157.538 242.411,-153.578"/>
</a>
</g>
<!-- SP100&#45;&gt;FOXD1_FOXO1_FOXO6_FOXG1_FOXP1 -->
<g id="edge84" class="edge"><title>SP100&#45;&gt;FOXD1_FOXO1_FOXO6_FOXG1_FOXP1</title>
<a xlink:title="FOXG1: 0.047||remove9root">
<path fill="none" stroke="#edc7ff" stroke-width="3" d="M273.877,-322.365C281.866,-308.804 293.945,-290.266 307.429,-276.369 318.596,-264.86 332.467,-254.081 345.203,-245.229"/>
<polygon fill="#edc7ff" stroke="#edc7ff" points="347.094,-247.33 352.137,-240.517 343.947,-242.698 347.094,-247.33"/>
</a>
</g>
<!-- BHLHE40 -->
<g id="node56" class="node"><title>BHLHE40</title>
<a xlink:href="BHLHE40.svg" xlink:title="Z&#45;value: 0.505||remove25">
<polygon fill="#9fa9ff" stroke="#9fa9ff" stroke-width="2" points="400.199,-154.025 363.699,-154.025 351.699,-142.025 351.699,-130.025 363.699,-118.025 400.199,-118.025 412.199,-130.025 412.199,-142.025 400.199,-154.025"/>
<path fill="#9fa9ff" stroke="#9fa9ff" stroke-width="2" d="M363.699,-154.025C357.699,-154.025 351.699,-148.025 351.699,-142.025"/>
<path fill="#9fa9ff" stroke="#9fa9ff" stroke-width="2" d="M351.699,-130.025C351.699,-124.025 357.699,-118.025 363.699,-118.025"/>
<path fill="#9fa9ff" stroke="#9fa9ff" stroke-width="2" d="M400.199,-118.025C406.199,-118.025 412.199,-124.025 412.199,-130.025"/>
<path fill="#9fa9ff" stroke="#9fa9ff" stroke-width="2" d="M412.199,-142.025C412.199,-148.025 406.199,-154.025 400.199,-154.025"/>
<polyline fill="none" stroke="white" stroke-width="2" points="400.199,-154.025 363.699,-154.025 "/>
<path fill="none" stroke="white" stroke-width="2" d="M363.699,-154.025C357.699,-154.025 351.699,-148.025 351.699,-142.025"/>
<polyline fill="none" stroke="white" stroke-width="2" points="351.699,-142.025 351.699,-130.025 "/>
<path fill="none" stroke="white" stroke-width="2" d="M351.699,-130.025C351.699,-124.025 357.699,-118.025 363.699,-118.025"/>
<polyline fill="none" stroke="white" stroke-width="2" points="363.699,-118.025 400.199,-118.025 "/>
<path fill="none" stroke="white" stroke-width="2" d="M400.199,-118.025C406.199,-118.025 412.199,-124.025 412.199,-130.025"/>
<polyline fill="none" stroke="white" stroke-width="2" points="412.199,-130.025 412.199,-142.025 "/>
<path fill="none" stroke="white" stroke-width="2" d="M412.199,-142.025C412.199,-148.025 406.199,-154.025 400.199,-154.025"/>
<text text-anchor="middle" x="381.949" y="-133.525" font-family="Helvetica,sans-Serif" font-size="10.00">BHLHE40</text>
</a>
</g>
<!-- BHLHE40&#45;&gt;VDR -->
<g id="edge88" class="edge"><title>BHLHE40&#45;&gt;VDR</title>
<a xlink:title="VDR: 0.183||remove25root">
<path fill="none" stroke="#bcc2ff" stroke-width="3" d="M351.245,-144.252C324.053,-151.538 284.371,-162.171 255.908,-169.797"/>
<polygon fill="#bcc2ff" stroke="#bcc2ff" points="254.833,-167.187 247.83,-171.962 256.282,-172.596 254.833,-167.187"/>
</a>
</g>
</g>
</svg>
