<?xml version="1.0" encoding="UTF-8" standalone="no"?>
<!DOCTYPE svg PUBLIC "-//W3C//DTD SVG 1.1//EN"
 "http://www.w3.org/Graphics/SVG/1.1/DTD/svg11.dtd">
<!-- Generated by graphviz version 2.28.0 (20110630.0925)
 -->
<!-- Title: _anonymous_0 Pages: 1 -->
<svg width="420pt" height="384pt"
 viewBox="0.00 0.00 420.36 384.36" xmlns="http://www.w3.org/2000/svg" xmlns:xlink="http://www.w3.org/1999/xlink">
<g id="graph1" class="graph" transform="scale(1 1) rotate(0) translate(4 380.363)">
<title>_anonymous_0</title>
<polygon fill="white" stroke="white" points="-4,5 -4,-380.363 417.363,-380.363 417.363,5 -4,5"/>
<!-- ZNF711_TFAP2A_TFAP2D -->
<g id="node1" class="node"><title>ZNF711_TFAP2A_TFAP2D</title>
<a xlink:href="ZNF711_TFAP2A_TFAP2D.svg" xlink:title="Z&#45;value: 2.387||remove22">
<polygon fill="#3247ff" stroke="#3247ff" stroke-width="2" points="129.6,-330.763 15.6,-330.763 3.6,-318.763 3.6,-306.763 15.6,-294.763 129.6,-294.763 141.6,-306.763 141.6,-318.763 129.6,-330.763"/>
<path fill="#3247ff" stroke="#3247ff" stroke-width="2" d="M15.6,-330.763C9.6,-330.763 3.6,-324.763 3.6,-318.763"/>
<path fill="#3247ff" stroke="#3247ff" stroke-width="2" d="M3.6,-306.763C3.6,-300.763 9.6,-294.763 15.6,-294.763"/>
<path fill="#3247ff" stroke="#3247ff" stroke-width="2" d="M129.6,-294.763C135.6,-294.763 141.6,-300.763 141.6,-306.763"/>
<path fill="#3247ff" stroke="#3247ff" stroke-width="2" d="M141.6,-318.763C141.6,-324.763 135.6,-330.763 129.6,-330.763"/>
<polyline fill="none" stroke="white" stroke-width="2" points="129.6,-330.763 15.6,-330.763 "/>
<path fill="none" stroke="white" stroke-width="2" d="M15.6,-330.763C9.6,-330.763 3.6,-324.763 3.6,-318.763"/>
<polyline fill="none" stroke="white" stroke-width="2" points="3.6,-318.763 3.6,-306.763 "/>
<path fill="none" stroke="white" stroke-width="2" d="M3.6,-306.763C3.6,-300.763 9.6,-294.763 15.6,-294.763"/>
<polyline fill="none" stroke="white" stroke-width="2" points="15.6,-294.763 129.6,-294.763 "/>
<path fill="none" stroke="white" stroke-width="2" d="M129.6,-294.763C135.6,-294.763 141.6,-300.763 141.6,-306.763"/>
<polyline fill="none" stroke="white" stroke-width="2" points="141.6,-306.763 141.6,-318.763 "/>
<path fill="none" stroke="white" stroke-width="2" d="M141.6,-318.763C141.6,-324.763 135.6,-330.763 129.6,-330.763"/>
<text text-anchor="middle" x="72.6" y="-310.263" font-family="Helvetica,sans-Serif" font-size="10.00" fill="white">ZNF711_TFAP2A_TFAP2D</text>
</a>
</g>
<!-- ZNF711_TFAP2A_TFAP2D&#45;&gt;ZNF711_TFAP2A_TFAP2D -->
<g id="edge16" class="edge"><title>ZNF711_TFAP2A_TFAP2D&#45;&gt;ZNF711_TFAP2A_TFAP2D</title>
<a xlink:title="TFAP2A: 0.506||ZNF711: 0.089||remove22">
<path fill="none" stroke="#d57cff" stroke-width="3" d="M141.875,-318.918C152.431,-317.979 159.6,-315.927 159.6,-312.763 159.6,-310.489 155.897,-308.789 149.894,-307.664"/>
<polygon fill="#d57cff" stroke="#d57cff" points="150.172,-304.877 141.875,-306.608 149.44,-310.429 150.172,-304.877"/>
</a>
</g>
<!-- ERG -->
<g id="node2" class="node"><title>ERG</title>
<a xlink:href="ERG.svg" xlink:title="Z&#45;value: 0.660||remove11">
<polygon fill="#a1abff" stroke="#a1abff" stroke-width="2" points="42,-251.782 12,-251.782 0,-239.782 0,-227.782 12,-215.782 42,-215.782 54,-227.782 54,-239.782 42,-251.782"/>
<path fill="#a1abff" stroke="#a1abff" stroke-width="2" d="M12,-251.782C6,-251.782 0,-245.782 0,-239.782"/>
<path fill="#a1abff" stroke="#a1abff" stroke-width="2" d="M0,-227.782C0,-221.782 6,-215.782 12,-215.782"/>
<path fill="#a1abff" stroke="#a1abff" stroke-width="2" d="M42,-215.782C48,-215.782 54,-221.782 54,-227.782"/>
<path fill="#a1abff" stroke="#a1abff" stroke-width="2" d="M54,-239.782C54,-245.782 48,-251.782 42,-251.782"/>
<polyline fill="none" stroke="white" stroke-width="2" points="42,-251.782 12,-251.782 "/>
<path fill="none" stroke="white" stroke-width="2" d="M12,-251.782C6,-251.782 0,-245.782 0,-239.782"/>
<polyline fill="none" stroke="white" stroke-width="2" points="0,-239.782 0,-227.782 "/>
<path fill="none" stroke="white" stroke-width="2" d="M0,-227.782C0,-221.782 6,-215.782 12,-215.782"/>
<polyline fill="none" stroke="white" stroke-width="2" points="12,-215.782 42,-215.782 "/>
<path fill="none" stroke="white" stroke-width="2" d="M42,-215.782C48,-215.782 54,-221.782 54,-227.782"/>
<polyline fill="none" stroke="white" stroke-width="2" points="54,-227.782 54,-239.782 "/>
<path fill="none" stroke="white" stroke-width="2" d="M54,-239.782C54,-245.782 48,-251.782 42,-251.782"/>
<text text-anchor="middle" x="27" y="-231.282" font-family="Helvetica,sans-Serif" font-size="10.00">ERG</text>
</a>
</g>
<!-- ZNF711_TFAP2A_TFAP2D&#45;&gt;ERG -->
<g id="edge2" class="edge"><title>ZNF711_TFAP2A_TFAP2D&#45;&gt;ERG</title>
<a xlink:title="ERG: 0.612||TFAP2A: 0.047||remove11">
<path fill="none" stroke="#cf6bff" stroke-width="3" d="M56.9806,-287.709C51.7513,-278.652 45.8741,-268.472 40.6635,-259.447"/>
<path fill="none" stroke="#ecc4ff" stroke-width="3" d="M58.7127,-286.709C53.4833,-277.652 47.6061,-267.472 42.3956,-258.447"/>
<polygon fill="#ecc4ff" stroke="#ecc4ff" points="55.5989,-288.916 62.0238,-294.445 60.4487,-286.116 55.5989,-288.916"/>
<polygon fill="#cf6bff" stroke="#cf6bff" points="43.9437,-257.529 37.5188,-252.001 39.094,-260.329 43.9437,-257.529"/>
</a>
</g>
<!-- FLI1 -->
<g id="node4" class="node"><title>FLI1</title>
<a xlink:href="FLI1.svg" xlink:title="Z&#45;value: 0.966||remove17">
<polygon fill="#8e99ff" stroke="#8e99ff" stroke-width="2" points="42,-160.582 12,-160.582 -3.19744e-14,-148.582 -3.19744e-14,-136.582 12,-124.582 42,-124.582 54,-136.582 54,-148.582 42,-160.582"/>
<path fill="#8e99ff" stroke="#8e99ff" stroke-width="2" d="M12,-160.582C6,-160.582 -3.19744e-14,-154.582 -3.19744e-14,-148.582"/>
<path fill="#8e99ff" stroke="#8e99ff" stroke-width="2" d="M-3.19744e-14,-136.582C-3.19744e-14,-130.582 6,-124.582 12,-124.582"/>
<path fill="#8e99ff" stroke="#8e99ff" stroke-width="2" d="M42,-124.582C48,-124.582 54,-130.582 54,-136.582"/>
<path fill="#8e99ff" stroke="#8e99ff" stroke-width="2" d="M54,-148.582C54,-154.582 48,-160.582 42,-160.582"/>
<polyline fill="none" stroke="white" stroke-width="2" points="42,-160.582 12,-160.582 "/>
<path fill="none" stroke="white" stroke-width="2" d="M12,-160.582C6,-160.582 -3.19744e-14,-154.582 -3.19744e-14,-148.582"/>
<polyline fill="none" stroke="white" stroke-width="2" points="-3.19744e-14,-148.582 -3.19744e-14,-136.582 "/>
<path fill="none" stroke="white" stroke-width="2" d="M-3.19744e-14,-136.582C-3.19744e-14,-130.582 6,-124.582 12,-124.582"/>
<polyline fill="none" stroke="white" stroke-width="2" points="12,-124.582 42,-124.582 "/>
<path fill="none" stroke="white" stroke-width="2" d="M42,-124.582C48,-124.582 54,-130.582 54,-136.582"/>
<polyline fill="none" stroke="white" stroke-width="2" points="54,-136.582 54,-148.582 "/>
<path fill="none" stroke="white" stroke-width="2" d="M54,-148.582C54,-154.582 48,-160.582 42,-160.582"/>
<text text-anchor="middle" x="27" y="-140.082" font-family="Helvetica,sans-Serif" font-size="10.00">FLI1</text>
</a>
</g>
<!-- ZNF711_TFAP2A_TFAP2D&#45;&gt;FLI1 -->
<g id="edge4" class="edge"><title>ZNF711_TFAP2A_TFAP2D&#45;&gt;FLI1</title>
<a xlink:title="FLI1: 0.122||remove17">
<path fill="none" stroke="#e8b8ff" stroke-width="3" d="M71.5024,-294.405C69.94,-274.127 66.3205,-240.669 58.32,-212.902 53.8969,-197.55 46.7755,-181.203 40.4401,-168.137"/>
<polygon fill="#e8b8ff" stroke="#e8b8ff" points="42.8912,-166.777 36.8271,-160.855 37.8748,-169.266 42.8912,-166.777"/>
</a>
</g>
<!-- IKZF2 -->
<g id="node6" class="node"><title>IKZF2</title>
<a xlink:href="IKZF2.svg" xlink:title="Z&#45;value: 0.505||remove15">
<polygon fill="#abb3ff" stroke="#abb3ff" stroke-width="2" points="382.363,-251.782 352.363,-251.782 340.363,-239.782 340.363,-227.782 352.363,-215.782 382.363,-215.782 394.363,-227.782 394.363,-239.782 382.363,-251.782"/>
<path fill="#abb3ff" stroke="#abb3ff" stroke-width="2" d="M352.363,-251.782C346.363,-251.782 340.363,-245.782 340.363,-239.782"/>
<path fill="#abb3ff" stroke="#abb3ff" stroke-width="2" d="M340.363,-227.782C340.363,-221.782 346.363,-215.782 352.363,-215.782"/>
<path fill="#abb3ff" stroke="#abb3ff" stroke-width="2" d="M382.363,-215.782C388.363,-215.782 394.363,-221.782 394.363,-227.782"/>
<path fill="#abb3ff" stroke="#abb3ff" stroke-width="2" d="M394.363,-239.782C394.363,-245.782 388.363,-251.782 382.363,-251.782"/>
<polyline fill="none" stroke="white" stroke-width="2" points="382.363,-251.782 352.363,-251.782 "/>
<path fill="none" stroke="white" stroke-width="2" d="M352.363,-251.782C346.363,-251.782 340.363,-245.782 340.363,-239.782"/>
<polyline fill="none" stroke="white" stroke-width="2" points="340.363,-239.782 340.363,-227.782 "/>
<path fill="none" stroke="white" stroke-width="2" d="M340.363,-227.782C340.363,-221.782 346.363,-215.782 352.363,-215.782"/>
<polyline fill="none" stroke="white" stroke-width="2" points="352.363,-215.782 382.363,-215.782 "/>
<path fill="none" stroke="white" stroke-width="2" d="M382.363,-215.782C388.363,-215.782 394.363,-221.782 394.363,-227.782"/>
<polyline fill="none" stroke="white" stroke-width="2" points="394.363,-227.782 394.363,-239.782 "/>
<path fill="none" stroke="white" stroke-width="2" d="M394.363,-239.782C394.363,-245.782 388.363,-251.782 382.363,-251.782"/>
<text text-anchor="middle" x="367.363" y="-231.282" font-family="Helvetica,sans-Serif" font-size="10.00">IKZF2</text>
</a>
</g>
<!-- ZNF711_TFAP2A_TFAP2D&#45;&gt;IKZF2 -->
<g id="edge6" class="edge"><title>ZNF711_TFAP2A_TFAP2D&#45;&gt;IKZF2</title>
<a xlink:title="IKZF2: 0.040||TFAP2A: 0.060||remove9root">
<path fill="none" stroke="#ecc5ff" stroke-width="3" d="M147.533,-291.65C206.863,-275.752 286.919,-254.301 332.158,-242.179"/>
<path fill="none" stroke="#ebc2ff" stroke-width="3" d="M148.051,-293.581C207.38,-277.684 287.437,-256.233 332.676,-244.111"/>
<polygon fill="#ebc2ff" stroke="#ebc2ff" points="146.858,-289.967 139.855,-294.742 148.307,-295.376 146.858,-289.967"/>
<polygon fill="#ecc5ff" stroke="#ecc5ff" points="333.174,-245.841 340.177,-241.066 331.725,-240.432 333.174,-245.841"/>
</a>
</g>
<!-- XBP1 -->
<g id="node8" class="node"><title>XBP1</title>
<a xlink:href="XBP1.svg" xlink:title="Z&#45;value: 0.508||remove23">
<polygon fill="#ffabab" stroke="#ffabab" stroke-width="2" points="212.182,-206.182 182.182,-206.182 170.182,-194.182 170.182,-182.182 182.182,-170.182 212.182,-170.182 224.182,-182.182 224.182,-194.182 212.182,-206.182"/>
<path fill="#ffabab" stroke="#ffabab" stroke-width="2" d="M182.182,-206.182C176.182,-206.182 170.182,-200.182 170.182,-194.182"/>
<path fill="#ffabab" stroke="#ffabab" stroke-width="2" d="M170.182,-182.182C170.182,-176.182 176.182,-170.182 182.182,-170.182"/>
<path fill="#ffabab" stroke="#ffabab" stroke-width="2" d="M212.182,-170.182C218.182,-170.182 224.182,-176.182 224.182,-182.182"/>
<path fill="#ffabab" stroke="#ffabab" stroke-width="2" d="M224.182,-194.182C224.182,-200.182 218.182,-206.182 212.182,-206.182"/>
<polyline fill="none" stroke="white" stroke-width="2" points="212.182,-206.182 182.182,-206.182 "/>
<path fill="none" stroke="white" stroke-width="2" d="M182.182,-206.182C176.182,-206.182 170.182,-200.182 170.182,-194.182"/>
<polyline fill="none" stroke="white" stroke-width="2" points="170.182,-194.182 170.182,-182.182 "/>
<path fill="none" stroke="white" stroke-width="2" d="M170.182,-182.182C170.182,-176.182 176.182,-170.182 182.182,-170.182"/>
<polyline fill="none" stroke="white" stroke-width="2" points="182.182,-170.182 212.182,-170.182 "/>
<path fill="none" stroke="white" stroke-width="2" d="M212.182,-170.182C218.182,-170.182 224.182,-176.182 224.182,-182.182"/>
<polyline fill="none" stroke="white" stroke-width="2" points="224.182,-182.182 224.182,-194.182 "/>
<path fill="none" stroke="white" stroke-width="2" d="M224.182,-194.182C224.182,-200.182 218.182,-206.182 212.182,-206.182"/>
<text text-anchor="middle" x="197.182" y="-185.682" font-family="Helvetica,sans-Serif" font-size="10.00">XBP1</text>
</a>
</g>
<!-- ZNF711_TFAP2A_TFAP2D&#45;&gt;XBP1 -->
<g id="edge8" class="edge"><title>ZNF711_TFAP2A_TFAP2D&#45;&gt;XBP1</title>
<a xlink:title="XBP1: 0.141||remove22root">
<path fill="none" stroke="#b5bdff" stroke-width="3" d="M90.7152,-294.648C112.49,-272.873 149.102,-236.261 173.203,-212.16"/>
<polygon fill="#b5bdff" stroke="#b5bdff" points="175.367,-213.955 179.044,-206.319 171.408,-209.996 175.367,-213.955"/>
</a>
</g>
<!-- ZEB1 -->
<g id="node10" class="node"><title>ZEB1</title>
<a xlink:href="ZEB1.svg" xlink:title="Z&#45;value: 1.478||remove16">
<polygon fill="#6d7bff" stroke="#6d7bff" stroke-width="2" points="87.6,-81.6 57.6,-81.6 45.6,-69.6 45.6,-57.6 57.6,-45.6 87.6,-45.6 99.6,-57.6 99.6,-69.6 87.6,-81.6"/>
<path fill="#6d7bff" stroke="#6d7bff" stroke-width="2" d="M57.6,-81.6C51.6,-81.6 45.6,-75.6 45.6,-69.6"/>
<path fill="#6d7bff" stroke="#6d7bff" stroke-width="2" d="M45.6,-57.6C45.6,-51.6 51.6,-45.6 57.6,-45.6"/>
<path fill="#6d7bff" stroke="#6d7bff" stroke-width="2" d="M87.6,-45.6C93.6,-45.6 99.6,-51.6 99.6,-57.6"/>
<path fill="#6d7bff" stroke="#6d7bff" stroke-width="2" d="M99.6,-69.6C99.6,-75.6 93.6,-81.6 87.6,-81.6"/>
<polyline fill="none" stroke="white" stroke-width="2" points="87.6,-81.6 57.6,-81.6 "/>
<path fill="none" stroke="white" stroke-width="2" d="M57.6,-81.6C51.6,-81.6 45.6,-75.6 45.6,-69.6"/>
<polyline fill="none" stroke="white" stroke-width="2" points="45.6,-69.6 45.6,-57.6 "/>
<path fill="none" stroke="white" stroke-width="2" d="M45.6,-57.6C45.6,-51.6 51.6,-45.6 57.6,-45.6"/>
<polyline fill="none" stroke="white" stroke-width="2" points="57.6,-45.6 87.6,-45.6 "/>
<path fill="none" stroke="white" stroke-width="2" d="M87.6,-45.6C93.6,-45.6 99.6,-51.6 99.6,-57.6"/>
<polyline fill="none" stroke="white" stroke-width="2" points="99.6,-57.6 99.6,-69.6 "/>
<path fill="none" stroke="white" stroke-width="2" d="M99.6,-69.6C99.6,-75.6 93.6,-81.6 87.6,-81.6"/>
<text text-anchor="middle" x="72.6" y="-61.1" font-family="Helvetica,sans-Serif" font-size="10.00" fill="white">ZEB1</text>
</a>
</g>
<!-- ZNF711_TFAP2A_TFAP2D&#45;&gt;ZEB1 -->
<g id="edge10" class="edge"><title>ZNF711_TFAP2A_TFAP2D&#45;&gt;ZEB1</title>
<a xlink:title="ZEB1: 0.050||TFAP2A: 0.386||ZNF711: 0.137||remove16">
<path fill="none" stroke="#ecc4ff" stroke-width="3" d="M71.6,-286.219C71.6,-238.25 71.6,-137.683 71.6,-89.8963"/>
<path fill="none" stroke="#db8fff" stroke-width="3" d="M73.6,-286.219C73.6,-238.25 73.6,-137.683 73.6,-89.8963"/>
<polygon fill="#db8fff" stroke="#db8fff" points="69.8001,-286.441 72.6,-294.441 75.4001,-286.442 69.8001,-286.441"/>
<polygon fill="#ecc4ff" stroke="#ecc4ff" points="75.4001,-89.6123 72.6,-81.6124 69.8001,-89.6124 75.4001,-89.6123"/>
</a>
</g>
<!-- TWIST1_SNAI1 -->
<g id="node12" class="node"><title>TWIST1_SNAI1</title>
<a xlink:href="TWIST1_SNAI1.svg" xlink:title="Z&#45;value: 0.616||remove21">
<polygon fill="#a4adff" stroke="#a4adff" stroke-width="2" points="353.263,-330.763 290.263,-330.763 278.263,-318.763 278.263,-306.763 290.263,-294.763 353.263,-294.763 365.263,-306.763 365.263,-318.763 353.263,-330.763"/>
<path fill="#a4adff" stroke="#a4adff" stroke-width="2" d="M290.263,-330.763C284.263,-330.763 278.263,-324.763 278.263,-318.763"/>
<path fill="#a4adff" stroke="#a4adff" stroke-width="2" d="M278.263,-306.763C278.263,-300.763 284.263,-294.763 290.263,-294.763"/>
<path fill="#a4adff" stroke="#a4adff" stroke-width="2" d="M353.263,-294.763C359.263,-294.763 365.263,-300.763 365.263,-306.763"/>
<path fill="#a4adff" stroke="#a4adff" stroke-width="2" d="M365.263,-318.763C365.263,-324.763 359.263,-330.763 353.263,-330.763"/>
<polyline fill="none" stroke="white" stroke-width="2" points="353.263,-330.763 290.263,-330.763 "/>
<path fill="none" stroke="white" stroke-width="2" d="M290.263,-330.763C284.263,-330.763 278.263,-324.763 278.263,-318.763"/>
<polyline fill="none" stroke="white" stroke-width="2" points="278.263,-318.763 278.263,-306.763 "/>
<path fill="none" stroke="white" stroke-width="2" d="M278.263,-306.763C278.263,-300.763 284.263,-294.763 290.263,-294.763"/>
<polyline fill="none" stroke="white" stroke-width="2" points="290.263,-294.763 353.263,-294.763 "/>
<path fill="none" stroke="white" stroke-width="2" d="M353.263,-294.763C359.263,-294.763 365.263,-300.763 365.263,-306.763"/>
<polyline fill="none" stroke="white" stroke-width="2" points="365.263,-306.763 365.263,-318.763 "/>
<path fill="none" stroke="white" stroke-width="2" d="M365.263,-318.763C365.263,-324.763 359.263,-330.763 353.263,-330.763"/>
<text text-anchor="middle" x="321.763" y="-310.263" font-family="Helvetica,sans-Serif" font-size="10.00">TWIST1_SNAI1</text>
</a>
</g>
<!-- ZNF711_TFAP2A_TFAP2D&#45;&gt;TWIST1_SNAI1 -->
<g id="edge12" class="edge"><title>ZNF711_TFAP2A_TFAP2D&#45;&gt;TWIST1_SNAI1</title>
<a xlink:title="SNAI1: 0.970||TWIST1: 0.025||TFAP2A: 0.201||remove21">
<path fill="none" stroke="#bd32ff" stroke-width="3" d="M149.694,-311.763C188.626,-311.763 234.834,-311.763 269.558,-311.763"/>
<path fill="none" stroke="#e4acff" stroke-width="3" d="M149.694,-313.763C188.626,-313.763 234.834,-313.763 269.558,-313.763"/>
<polygon fill="#e4acff" stroke="#e4acff" points="149.675,-309.963 141.675,-312.763 149.675,-315.563 149.675,-309.963"/>
<polygon fill="#bd32ff" stroke="#bd32ff" points="269.678,-315.563 277.678,-312.763 269.678,-309.963 269.678,-315.563"/>
</a>
</g>
<!-- ZBTB7A_ZBTB7C -->
<g id="node14" class="node"><title>ZBTB7A_ZBTB7C</title>
<a xlink:href="ZBTB7A_ZBTB7C.svg" xlink:title="Z&#45;value: 0.322||remove18">
<polygon fill="#b7beff" stroke="#b7beff" stroke-width="2" points="279.282,-376.363 206.282,-376.363 194.282,-364.363 194.282,-352.363 206.282,-340.363 279.282,-340.363 291.282,-352.363 291.282,-364.363 279.282,-376.363"/>
<path fill="#b7beff" stroke="#b7beff" stroke-width="2" d="M206.282,-376.363C200.282,-376.363 194.282,-370.363 194.282,-364.363"/>
<path fill="#b7beff" stroke="#b7beff" stroke-width="2" d="M194.282,-352.363C194.282,-346.363 200.282,-340.363 206.282,-340.363"/>
<path fill="#b7beff" stroke="#b7beff" stroke-width="2" d="M279.282,-340.363C285.282,-340.363 291.282,-346.363 291.282,-352.363"/>
<path fill="#b7beff" stroke="#b7beff" stroke-width="2" d="M291.282,-364.363C291.282,-370.363 285.282,-376.363 279.282,-376.363"/>
<polyline fill="none" stroke="white" stroke-width="2" points="279.282,-376.363 206.282,-376.363 "/>
<path fill="none" stroke="white" stroke-width="2" d="M206.282,-376.363C200.282,-376.363 194.282,-370.363 194.282,-364.363"/>
<polyline fill="none" stroke="white" stroke-width="2" points="194.282,-364.363 194.282,-352.363 "/>
<path fill="none" stroke="white" stroke-width="2" d="M194.282,-352.363C194.282,-346.363 200.282,-340.363 206.282,-340.363"/>
<polyline fill="none" stroke="white" stroke-width="2" points="206.282,-340.363 279.282,-340.363 "/>
<path fill="none" stroke="white" stroke-width="2" d="M279.282,-340.363C285.282,-340.363 291.282,-346.363 291.282,-352.363"/>
<polyline fill="none" stroke="white" stroke-width="2" points="291.282,-352.363 291.282,-364.363 "/>
<path fill="none" stroke="white" stroke-width="2" d="M291.282,-364.363C291.282,-370.363 285.282,-376.363 279.282,-376.363"/>
<text text-anchor="middle" x="242.782" y="-355.863" font-family="Helvetica,sans-Serif" font-size="10.00">ZBTB7A_ZBTB7C</text>
</a>
</g>
<!-- ZNF711_TFAP2A_TFAP2D&#45;&gt;ZBTB7A_ZBTB7C -->
<g id="edge14" class="edge"><title>ZNF711_TFAP2A_TFAP2D&#45;&gt;ZBTB7A_ZBTB7C</title>
<a xlink:title="ZBTB7C: 0.046||remove7root">
<path fill="none" stroke="#ecc4ff" stroke-width="3" d="M141.75,-326.979C155.459,-330.157 169.692,-333.713 182.902,-337.483 183.884,-337.763 184.874,-338.051 185.87,-338.345"/>
<polygon fill="#ecc4ff" stroke="#ecc4ff" points="185.114,-341.042 193.583,-340.704 186.752,-335.686 185.114,-341.042"/>
</a>
</g>
<!-- SP4_PML -->
<g id="node17" class="node"><title>SP4_PML</title>
<a xlink:href="SP4_PML.svg" xlink:title="Z&#45;value: 1.603||remove14">
<polygon fill="#6574ff" stroke="#6574ff" stroke-width="2" points="169.832,-36 133.332,-36 121.332,-24 121.332,-12 133.332,-3.19744e-14 169.832,-3.19744e-14 181.832,-12 181.832,-24 169.832,-36"/>
<path fill="#6574ff" stroke="#6574ff" stroke-width="2" d="M133.332,-36C127.332,-36 121.332,-30 121.332,-24"/>
<path fill="#6574ff" stroke="#6574ff" stroke-width="2" d="M121.332,-12C121.332,-6 127.332,-3.19744e-14 133.332,-3.19744e-14"/>
<path fill="#6574ff" stroke="#6574ff" stroke-width="2" d="M169.832,-3.19744e-14C175.832,-3.19744e-14 181.832,-6 181.832,-12"/>
<path fill="#6574ff" stroke="#6574ff" stroke-width="2" d="M181.832,-24C181.832,-30 175.832,-36 169.832,-36"/>
<polyline fill="none" stroke="white" stroke-width="2" points="169.832,-36 133.332,-36 "/>
<path fill="none" stroke="white" stroke-width="2" d="M133.332,-36C127.332,-36 121.332,-30 121.332,-24"/>
<polyline fill="none" stroke="white" stroke-width="2" points="121.332,-24 121.332,-12 "/>
<path fill="none" stroke="white" stroke-width="2" d="M121.332,-12C121.332,-6 127.332,-3.19744e-14 133.332,-3.19744e-14"/>
<polyline fill="none" stroke="white" stroke-width="2" points="133.332,-3.19744e-14 169.832,-3.19744e-14 "/>
<path fill="none" stroke="white" stroke-width="2" d="M169.832,-3.19744e-14C175.832,-3.19744e-14 181.832,-6 181.832,-12"/>
<polyline fill="none" stroke="white" stroke-width="2" points="181.832,-12 181.832,-24 "/>
<path fill="none" stroke="white" stroke-width="2" d="M181.832,-24C181.832,-30 175.832,-36 169.832,-36"/>
<text text-anchor="middle" x="151.582" y="-15.5" font-family="Helvetica,sans-Serif" font-size="10.00" fill="white">SP4_PML</text>
</a>
</g>
<!-- ZNF711_TFAP2A_TFAP2D&#45;&gt;SP4_PML -->
<g id="edge18" class="edge"><title>ZNF711_TFAP2A_TFAP2D&#45;&gt;SP4_PML</title>
<a xlink:title="SP4: 0.046||TFAP2A: 0.217||ZNF711: 0.116||remove14">
<path fill="none" stroke="#ecc4ff" stroke-width="3" d="M78.6475,-286.33C93.6429,-230.366 128.673,-99.6326 143.637,-43.7851"/>
<path fill="none" stroke="#e3a9ff" stroke-width="3" d="M80.5793,-286.848C95.5748,-230.884 130.605,-100.15 145.569,-44.3027"/>
<polygon fill="#e3a9ff" stroke="#e3a9ff" points="76.9067,-285.872 77.5406,-294.324 82.3159,-287.322 76.9067,-285.872"/>
<polygon fill="#ecc4ff" stroke="#ecc4ff" points="147.378,-44.5075 146.744,-36.0554 141.968,-43.0581 147.378,-44.5075"/>
</a>
</g>
<!-- ERG&#45;&gt;XBP1 -->
<g id="edge50" class="edge"><title>ERG&#45;&gt;XBP1</title>
<a xlink:title="XBP1: 0.061||remove11root">
<path fill="none" stroke="#c2c8ff" stroke-width="3" d="M54.3426,-226.455C83.6193,-218.61 130.165,-206.139 162.117,-197.577"/>
<polygon fill="#c2c8ff" stroke="#c2c8ff" points="162.904,-200.265 169.907,-195.49 161.455,-194.856 162.904,-200.265"/>
</a>
</g>
<!-- ERG&#45;&gt;ZBTB7A_ZBTB7C -->
<g id="edge52" class="edge"><title>ERG&#45;&gt;ZBTB7A_ZBTB7C</title>
<a xlink:title="ZBTB7A: 0.003||remove1root">
<path fill="none" stroke="#eecbff" stroke-width="3" d="M54.2679,-244.508C80.2704,-255.17 120.169,-272.669 152.64,-291.883 174.21,-304.646 196.91,-321.41 214.134,-334.91"/>
<polygon fill="#eecbff" stroke="#eecbff" points="212.678,-337.328 220.689,-340.096 216.153,-332.936 212.678,-337.328"/>
</a>
</g>
<!-- FLI1&#45;&gt;XBP1 -->
<g id="edge20" class="edge"><title>FLI1&#45;&gt;XBP1</title>
<a xlink:title="XBP1: 0.089||remove17root">
<path fill="none" stroke="#bdc4ff" stroke-width="3" d="M54.3426,-149.908C83.6193,-157.753 130.165,-170.224 162.117,-178.786"/>
<polygon fill="#bdc4ff" stroke="#bdc4ff" points="161.455,-181.507 169.907,-180.873 162.904,-176.098 161.455,-181.507"/>
</a>
</g>
<!-- FLI1&#45;&gt;ZEB1 -->
<g id="edge22" class="edge"><title>FLI1&#45;&gt;ZEB1</title>
<a xlink:title="ZEB1: 0.095||FLI1: 0.013||remove16">
<path fill="none" stroke="#e9bdff" stroke-width="3" d="M40.8873,-116.528C46.1167,-107.47 51.9939,-97.2909 57.2044,-88.2659"/>
<path fill="none" stroke="#eec9ff" stroke-width="3" d="M42.6194,-117.528C47.8487,-108.47 53.7259,-98.2909 58.9365,-89.2659"/>
<polygon fill="#eec9ff" stroke="#eec9ff" points="39.1513,-115.935 37.5762,-124.263 44.0011,-118.735 39.1513,-115.935"/>
<polygon fill="#e9bdff" stroke="#e9bdff" points="60.506,-90.1474 62.0812,-81.8191 55.6563,-87.3473 60.506,-90.1474"/>
</a>
</g>
<!-- IKZF2&#45;&gt;IKZF2 -->
<g id="edge64" class="edge"><title>IKZF2&#45;&gt;IKZF2</title>
<a xlink:title="IKZF2: 0.114||remove15">
<path fill="none" stroke="#e8baff" stroke-width="3" d="M394.604,-240.525C404.387,-240.67 412.363,-238.422 412.363,-233.782 412.363,-230.519 408.42,-228.439 402.678,-227.542"/>
<polygon fill="#e8baff" stroke="#e8baff" points="402.763,-224.742 394.604,-227.038 402.414,-230.331 402.763,-224.742"/>
</a>
</g>
<!-- XBP1&#45;&gt;IKZF2 -->
<g id="edge56" class="edge"><title>XBP1&#45;&gt;IKZF2</title>
<a xlink:title="IKZF2: 0.077||remove15root">
<path fill="none" stroke="#ffbfbf" stroke-width="3" d="M224.524,-195.508C253.801,-203.353 300.346,-215.824 332.299,-224.386"/>
<polygon fill="#ffbfbf" stroke="#ffbfbf" points="331.636,-227.107 340.088,-226.473 333.086,-221.698 331.636,-227.107"/>
</a>
</g>
<!-- XBP1&#45;&gt;TWIST1_SNAI1 -->
<g id="edge60" class="edge"><title>XBP1&#45;&gt;TWIST1_SNAI1</title>
<a xlink:title="TWIST1: 0.136||remove21root">
<path fill="none" stroke="#ffb6b6" stroke-width="3" d="M215.297,-206.297C237.071,-228.071 273.683,-264.683 297.785,-288.785"/>
<polygon fill="#ffb6b6" stroke="#ffb6b6" points="295.989,-290.949 303.626,-294.626 299.949,-286.989 295.989,-290.949"/>
</a>
</g>
<!-- XBP1&#45;&gt;ZBTB7A_ZBTB7C -->
<g id="edge62" class="edge"><title>XBP1&#45;&gt;ZBTB7A_ZBTB7C</title>
<a xlink:title="ZBTB7A: 0.092||remove18root">
<path fill="none" stroke="#ffbdbd" stroke-width="3" d="M202.062,-206.394C210.187,-236.718 226.515,-297.655 235.837,-332.447"/>
<polygon fill="#ffbdbd" stroke="#ffbdbd" points="233.161,-333.279 237.937,-340.282 238.571,-331.829 233.161,-333.279"/>
</a>
</g>
<!-- HOXA5 -->
<g id="node40" class="node"><title>HOXA5</title>
<a xlink:href="HOXA5.svg" xlink:title="Z&#45;value: 0.304||remove12">
<polygon fill="#b8bfff" stroke="#b8bfff" stroke-width="2" points="166.582,-376.363 136.582,-376.363 124.582,-364.363 124.582,-352.363 136.582,-340.363 166.582,-340.363 178.582,-352.363 178.582,-364.363 166.582,-376.363"/>
<path fill="#b8bfff" stroke="#b8bfff" stroke-width="2" d="M136.582,-376.363C130.582,-376.363 124.582,-370.363 124.582,-364.363"/>
<path fill="#b8bfff" stroke="#b8bfff" stroke-width="2" d="M124.582,-352.363C124.582,-346.363 130.582,-340.363 136.582,-340.363"/>
<path fill="#b8bfff" stroke="#b8bfff" stroke-width="2" d="M166.582,-340.363C172.582,-340.363 178.582,-346.363 178.582,-352.363"/>
<path fill="#b8bfff" stroke="#b8bfff" stroke-width="2" d="M178.582,-364.363C178.582,-370.363 172.582,-376.363 166.582,-376.363"/>
<polyline fill="none" stroke="white" stroke-width="2" points="166.582,-376.363 136.582,-376.363 "/>
<path fill="none" stroke="white" stroke-width="2" d="M136.582,-376.363C130.582,-376.363 124.582,-370.363 124.582,-364.363"/>
<polyline fill="none" stroke="white" stroke-width="2" points="124.582,-364.363 124.582,-352.363 "/>
<path fill="none" stroke="white" stroke-width="2" d="M124.582,-352.363C124.582,-346.363 130.582,-340.363 136.582,-340.363"/>
<polyline fill="none" stroke="white" stroke-width="2" points="136.582,-340.363 166.582,-340.363 "/>
<path fill="none" stroke="white" stroke-width="2" d="M166.582,-340.363C172.582,-340.363 178.582,-346.363 178.582,-352.363"/>
<polyline fill="none" stroke="white" stroke-width="2" points="178.582,-352.363 178.582,-364.363 "/>
<path fill="none" stroke="white" stroke-width="2" d="M178.582,-364.363C178.582,-370.363 172.582,-376.363 166.582,-376.363"/>
<text text-anchor="middle" x="151.582" y="-355.863" font-family="Helvetica,sans-Serif" font-size="10.00">HOXA5</text>
</a>
</g>
<!-- XBP1&#45;&gt;HOXA5 -->
<g id="edge58" class="edge"><title>XBP1&#45;&gt;HOXA5</title>
<a xlink:title="HOXA5: 0.066||remove12root">
<path fill="none" stroke="#ffc1c1" stroke-width="3" d="M192.302,-206.394C184.176,-236.718 167.848,-297.655 158.526,-332.447"/>
<polygon fill="#ffc1c1" stroke="#ffc1c1" points="155.792,-331.829 156.426,-340.282 161.202,-333.279 155.792,-331.829"/>
</a>
</g>
<!-- ZEB1&#45;&gt;ERG -->
<g id="edge36" class="edge"><title>ZEB1&#45;&gt;ERG</title>
<a xlink:title="ERG: 0.173||ZEB1: 0.019||remove11">
<path fill="none" stroke="#e5b0ff" stroke-width="3" d="M71.8115,-90.2337C69.9587,-110.638 66.3124,-139.291 59.2809,-163.738 54.8137,-179.212 47.6923,-195.56 41.3399,-208.663"/>
<path fill="none" stroke="#edc8ff" stroke-width="3" d="M69.8196,-90.0529C67.9747,-110.385 64.3284,-139.039 57.3591,-163.185 52.9801,-178.413 45.8587,-194.761 39.5403,-207.79"/>
<polygon fill="#edc8ff" stroke="#edc8ff" points="73.6235,-90.1643 71.5024,-81.9581 68.0432,-89.6959 73.6235,-90.1643"/>
<polygon fill="#e5b0ff" stroke="#e5b0ff" points="37.8748,-207.097 36.8271,-215.508 42.8912,-209.586 37.8748,-207.097"/>
</a>
</g>
<!-- ZEB1&#45;&gt;IKZF2 -->
<g id="edge38" class="edge"><title>ZEB1&#45;&gt;IKZF2</title>
<a xlink:title="IKZF2: 0.090||remove15">
<path fill="none" stroke="#eabdff" stroke-width="3" d="M99.8023,-79.3052C153.653,-110.396 273.736,-179.726 332.97,-213.925"/>
<polygon fill="#eabdff" stroke="#eabdff" points="331.898,-216.539 340.227,-218.114 334.698,-211.689 331.898,-216.539"/>
</a>
</g>
<!-- ZEB1&#45;&gt;XBP1 -->
<g id="edge40" class="edge"><title>ZEB1&#45;&gt;XBP1</title>
<a xlink:title="XBP1: 0.079||remove16root">
<path fill="none" stroke="#bfc5ff" stroke-width="3" d="M90.7152,-81.7152C112.49,-103.49 149.102,-140.102 173.203,-164.203"/>
<polygon fill="#bfc5ff" stroke="#bfc5ff" points="171.408,-166.367 179.044,-170.044 175.367,-162.408 171.408,-166.367"/>
</a>
</g>
<!-- ZEB1&#45;&gt;ZEB1 -->
<g id="edge42" class="edge"><title>ZEB1&#45;&gt;ZEB1</title>
<a xlink:title="ZEB1: 0.449||remove16">
<path fill="none" stroke="#d885ff" stroke-width="3" d="M99.8408,-70.3434C109.624,-70.4884 117.6,-68.2406 117.6,-63.6 117.6,-60.3371 113.657,-58.2571 107.915,-57.3601"/>
<polygon fill="#d885ff" stroke="#d885ff" points="108,-54.5601 99.8408,-56.8566 107.651,-60.1492 108,-54.5601"/>
</a>
</g>
<!-- ZEB1&#45;&gt;TWIST1_SNAI1 -->
<g id="edge44" class="edge"><title>ZEB1&#45;&gt;TWIST1_SNAI1</title>
<a xlink:title="SNAI1: 0.706||ZEB1: 0.033||remove16">
<path fill="none" stroke="#cb5cff" stroke-width="3" d="M85.7387,-88.7569C101.395,-119.659 130.863,-172.092 166.575,-208.36 199.767,-242.155 245.967,-271.196 279.357,-289.811"/>
<path fill="none" stroke="#edc6ff" stroke-width="3" d="M83.9546,-89.6608C99.6511,-120.638 129.119,-173.071 165.148,-209.763 198.702,-243.848 244.902,-272.889 278.383,-291.558"/>
<polygon fill="#edc6ff" stroke="#edc6ff" points="87.241,-87.7361 81.1628,-81.8287 82.2305,-90.2371 87.241,-87.7361"/>
<polygon fill="#cb5cff" stroke="#cb5cff" points="277.867,-293.329 286.226,-294.734 280.568,-288.423 277.867,-293.329"/>
</a>
</g>
<!-- ZBTB49 -->
<g id="node32" class="node"><title>ZBTB49</title>
<a xlink:href="ZBTB49.svg" xlink:title="Z&#45;value: 0.439||remove19">
<polygon fill="#afb7ff" stroke="#afb7ff" stroke-width="2" points="257.782,-36 227.782,-36 215.782,-24 215.782,-12 227.782,3.19744e-14 257.782,3.19744e-14 269.782,-12 269.782,-24 257.782,-36"/>
<path fill="#afb7ff" stroke="#afb7ff" stroke-width="2" d="M227.782,-36C221.782,-36 215.782,-30 215.782,-24"/>
<path fill="#afb7ff" stroke="#afb7ff" stroke-width="2" d="M215.782,-12C215.782,-6 221.782,3.19744e-14 227.782,3.19744e-14"/>
<path fill="#afb7ff" stroke="#afb7ff" stroke-width="2" d="M257.782,3.19744e-14C263.782,3.19744e-14 269.782,-6 269.782,-12"/>
<path fill="#afb7ff" stroke="#afb7ff" stroke-width="2" d="M269.782,-24C269.782,-30 263.782,-36 257.782,-36"/>
<polyline fill="none" stroke="white" stroke-width="2" points="257.782,-36 227.782,-36 "/>
<path fill="none" stroke="white" stroke-width="2" d="M227.782,-36C221.782,-36 215.782,-30 215.782,-24"/>
<polyline fill="none" stroke="white" stroke-width="2" points="215.782,-24 215.782,-12 "/>
<path fill="none" stroke="white" stroke-width="2" d="M215.782,-12C215.782,-6 221.782,3.19744e-14 227.782,3.19744e-14"/>
<polyline fill="none" stroke="white" stroke-width="2" points="227.782,3.19744e-14 257.782,3.19744e-14 "/>
<path fill="none" stroke="white" stroke-width="2" d="M257.782,3.19744e-14C263.782,3.19744e-14 269.782,-6 269.782,-12"/>
<polyline fill="none" stroke="white" stroke-width="2" points="269.782,-12 269.782,-24 "/>
<path fill="none" stroke="white" stroke-width="2" d="M269.782,-24C269.782,-30 263.782,-36 257.782,-36"/>
<text text-anchor="middle" x="242.782" y="-15.5" font-family="Helvetica,sans-Serif" font-size="10.00">ZBTB49</text>
</a>
</g>
<!-- ZEB1&#45;&gt;ZBTB49 -->
<g id="edge46" class="edge"><title>ZEB1&#45;&gt;ZBTB49</title>
<a xlink:title="ZBTB49: 0.003||remove0root">
<path fill="none" stroke="#eecbff" stroke-width="3" d="M99.6809,-58.894C123.03,-54.5647 157.53,-47.516 186.962,-38.88 193.741,-36.8908 200.875,-34.4774 207.692,-32.0074"/>
<polygon fill="#eecbff" stroke="#eecbff" points="208.984,-34.5143 215.509,-29.104 207.034,-29.2647 208.984,-34.5143"/>
</a>
</g>
<!-- ZNF652 -->
<g id="node34" class="node"><title>ZNF652</title>
<a xlink:href="ZNF652.svg" xlink:title="Z&#45;value: 0.892||remove20">
<polygon fill="#929dff" stroke="#929dff" stroke-width="2" points="336.763,-81.6 306.763,-81.6 294.763,-69.6 294.763,-57.6 306.763,-45.6 336.763,-45.6 348.763,-57.6 348.763,-69.6 336.763,-81.6"/>
<path fill="#929dff" stroke="#929dff" stroke-width="2" d="M306.763,-81.6C300.763,-81.6 294.763,-75.6 294.763,-69.6"/>
<path fill="#929dff" stroke="#929dff" stroke-width="2" d="M294.763,-57.6C294.763,-51.6 300.763,-45.6 306.763,-45.6"/>
<path fill="#929dff" stroke="#929dff" stroke-width="2" d="M336.763,-45.6C342.763,-45.6 348.763,-51.6 348.763,-57.6"/>
<path fill="#929dff" stroke="#929dff" stroke-width="2" d="M348.763,-69.6C348.763,-75.6 342.763,-81.6 336.763,-81.6"/>
<polyline fill="none" stroke="white" stroke-width="2" points="336.763,-81.6 306.763,-81.6 "/>
<path fill="none" stroke="white" stroke-width="2" d="M306.763,-81.6C300.763,-81.6 294.763,-75.6 294.763,-69.6"/>
<polyline fill="none" stroke="white" stroke-width="2" points="294.763,-69.6 294.763,-57.6 "/>
<path fill="none" stroke="white" stroke-width="2" d="M294.763,-57.6C294.763,-51.6 300.763,-45.6 306.763,-45.6"/>
<polyline fill="none" stroke="white" stroke-width="2" points="306.763,-45.6 336.763,-45.6 "/>
<path fill="none" stroke="white" stroke-width="2" d="M336.763,-45.6C342.763,-45.6 348.763,-51.6 348.763,-57.6"/>
<polyline fill="none" stroke="white" stroke-width="2" points="348.763,-57.6 348.763,-69.6 "/>
<path fill="none" stroke="white" stroke-width="2" d="M348.763,-69.6C348.763,-75.6 342.763,-81.6 336.763,-81.6"/>
<text text-anchor="middle" x="321.763" y="-61.1" font-family="Helvetica,sans-Serif" font-size="10.00">ZNF652</text>
</a>
</g>
<!-- ZEB1&#45;&gt;ZNF652 -->
<g id="edge48" class="edge"><title>ZEB1&#45;&gt;ZNF652</title>
<a xlink:title="ZNF652: 0.019||remove3root">
<path fill="none" stroke="#edc8ff" stroke-width="3" d="M99.7391,-63.6C145.047,-63.6 236.068,-63.6 286.356,-63.6"/>
<polygon fill="#edc8ff" stroke="#edc8ff" points="286.657,-66.4001 294.657,-63.6 286.657,-60.8001 286.657,-66.4001"/>
</a>
</g>
<!-- TWIST1_SNAI1&#45;&gt;ERG -->
<g id="edge54" class="edge"><title>TWIST1_SNAI1&#45;&gt;ERG</title>
<a xlink:title="ERG: 0.097||remove11">
<path fill="none" stroke="#e9bcff" stroke-width="3" d="M277.952,-301.024C219.223,-285.287 116.126,-257.663 62.1724,-243.206"/>
<polygon fill="#e9bcff" stroke="#e9bcff" points="62.7166,-240.453 54.2645,-241.087 61.2672,-245.862 62.7166,-240.453"/>
</a>
</g>
<!-- SP4_PML&#45;&gt;ERG -->
<g id="edge24" class="edge"><title>SP4_PML&#45;&gt;ERG</title>
<a xlink:title="ERG: 0.601||remove11">
<path fill="none" stroke="#d06dff" stroke-width="3" d="M141.174,-36.0263C119.006,-74.4226 67.0786,-164.363 41.6092,-208.478"/>
<polygon fill="#d06dff" stroke="#d06dff" points="39.0406,-207.327 37.4655,-215.655 43.8904,-210.127 39.0406,-207.327"/>
</a>
</g>
<!-- SP4_PML&#45;&gt;IKZF2 -->
<g id="edge26" class="edge"><title>SP4_PML&#45;&gt;IKZF2</title>
<a xlink:title="IKZF2: 0.044||remove6root">
<path fill="none" stroke="#ecc5ff" stroke-width="3" d="M169.608,-36.0263C208.401,-74.8193 299.809,-166.227 343.412,-209.83"/>
<polygon fill="#ecc5ff" stroke="#ecc5ff" points="341.6,-211.978 349.236,-215.655 345.559,-208.018 341.6,-211.978"/>
</a>
</g>
<!-- SP4_PML&#45;&gt;XBP1 -->
<g id="edge28" class="edge"><title>SP4_PML&#45;&gt;XBP1</title>
<a xlink:title="XBP1: 0.074||remove14root">
<path fill="none" stroke="#c0c6ff" stroke-width="3" d="M156.462,-36.2124C164.587,-66.5365 180.915,-127.473 190.237,-162.266"/>
<polygon fill="#c0c6ff" stroke="#c0c6ff" points="187.561,-163.097 192.337,-170.1 192.971,-161.648 187.561,-163.097"/>
</a>
</g>
<!-- SP4_PML&#45;&gt;ZEB1 -->
<g id="edge30" class="edge"><title>SP4_PML&#45;&gt;ZEB1</title>
<a xlink:title="ZEB1: 0.031||remove4root">
<path fill="none" stroke="#edc7ff" stroke-width="3" d="M121.271,-35.4997C116.478,-38.2672 111.493,-41.145 106.622,-43.9574"/>
<polygon fill="#edc7ff" stroke="#edc7ff" points="105.13,-41.5858 99.6014,-48.0107 107.93,-46.4355 105.13,-41.5858"/>
</a>
</g>
<!-- SP4_PML&#45;&gt;TWIST1_SNAI1 -->
<g id="edge32" class="edge"><title>SP4_PML&#45;&gt;TWIST1_SNAI1</title>
<a xlink:title="SNAI1: 0.753||remove14">
<path fill="none" stroke="#c855ff" stroke-width="3" d="M162.227,-36.4387C191.606,-87.3239 273.851,-229.776 307.32,-287.747"/>
<polygon fill="#c855ff" stroke="#c855ff" points="304.914,-289.179 311.339,-294.708 309.764,-286.379 304.914,-289.179"/>
</a>
</g>
<!-- SP4_PML&#45;&gt;SP4_PML -->
<g id="edge34" class="edge"><title>SP4_PML&#45;&gt;SP4_PML</title>
<a xlink:title="SP4: 0.061||remove10root">
<path fill="none" stroke="#ebc2ff" stroke-width="3" d="M182.049,-24.7484C191.83,-24.6791 199.582,-22.4297 199.582,-18 199.582,-14.8854 195.749,-12.8486 190.074,-11.8898"/>
<polygon fill="#ebc2ff" stroke="#ebc2ff" points="190.246,-9.09468 182.049,-11.2516 189.802,-14.6771 190.246,-9.09468"/>
</a>
</g>
<!-- ZBTB49&#45;&gt;XBP1 -->
<g id="edge68" class="edge"><title>ZBTB49&#45;&gt;XBP1</title>
<a xlink:title="XBP1: 0.107||remove19root">
<path fill="none" stroke="#bbc1ff" stroke-width="3" d="M237.902,-36.2124C229.776,-66.5365 213.448,-127.473 204.126,-162.266"/>
<polygon fill="#bbc1ff" stroke="#bbc1ff" points="201.392,-161.648 202.026,-170.1 206.802,-163.097 201.392,-161.648"/>
</a>
</g>
<!-- ZNF652&#45;&gt;XBP1 -->
<g id="edge66" class="edge"><title>ZNF652&#45;&gt;XBP1</title>
<a xlink:title="XBP1: 0.130||remove20root">
<path fill="none" stroke="#b7beff" stroke-width="3" d="M303.648,-81.7152C281.873,-103.49 245.261,-140.102 221.16,-164.203"/>
<polygon fill="#b7beff" stroke="#b7beff" points="218.996,-162.408 215.319,-170.044 222.955,-166.367 218.996,-162.408"/>
</a>
</g>
<!-- HOXA5&#45;&gt;IKZF2 -->
<g id="edge78" class="edge"><title>HOXA5&#45;&gt;IKZF2</title>
<a xlink:title="IKZF2: 0.041||remove5root">
<path fill="none" stroke="#ecc5ff" stroke-width="3" d="M178.924,-341.657C181.293,-340.237 183.656,-338.83 185.942,-337.483 236.923,-307.429 296.596,-273.57 333.184,-252.958"/>
<polygon fill="#ecc5ff" stroke="#ecc5ff" points="334.586,-255.382 340.184,-249.018 331.839,-250.502 334.586,-255.382"/>
</a>
</g>
<!-- HIC2 -->
<g id="node47" class="node"><title>HIC2</title>
<a xlink:href="HIC2.svg" xlink:title="Z&#45;value: 1.161||remove13">
<polygon fill="#818eff" stroke="#818eff" stroke-width="2" points="382.363,-160.582 352.363,-160.582 340.363,-148.582 340.363,-136.582 352.363,-124.582 382.363,-124.582 394.363,-136.582 394.363,-148.582 382.363,-160.582"/>
<path fill="#818eff" stroke="#818eff" stroke-width="2" d="M352.363,-160.582C346.363,-160.582 340.363,-154.582 340.363,-148.582"/>
<path fill="#818eff" stroke="#818eff" stroke-width="2" d="M340.363,-136.582C340.363,-130.582 346.363,-124.582 352.363,-124.582"/>
<path fill="#818eff" stroke="#818eff" stroke-width="2" d="M382.363,-124.582C388.363,-124.582 394.363,-130.582 394.363,-136.582"/>
<path fill="#818eff" stroke="#818eff" stroke-width="2" d="M394.363,-148.582C394.363,-154.582 388.363,-160.582 382.363,-160.582"/>
<polyline fill="none" stroke="white" stroke-width="2" points="382.363,-160.582 352.363,-160.582 "/>
<path fill="none" stroke="white" stroke-width="2" d="M352.363,-160.582C346.363,-160.582 340.363,-154.582 340.363,-148.582"/>
<polyline fill="none" stroke="white" stroke-width="2" points="340.363,-148.582 340.363,-136.582 "/>
<path fill="none" stroke="white" stroke-width="2" d="M340.363,-136.582C340.363,-130.582 346.363,-124.582 352.363,-124.582"/>
<polyline fill="none" stroke="white" stroke-width="2" points="352.363,-124.582 382.363,-124.582 "/>
<path fill="none" stroke="white" stroke-width="2" d="M382.363,-124.582C388.363,-124.582 394.363,-130.582 394.363,-136.582"/>
<polyline fill="none" stroke="white" stroke-width="2" points="394.363,-136.582 394.363,-148.582 "/>
<path fill="none" stroke="white" stroke-width="2" d="M394.363,-148.582C394.363,-154.582 388.363,-160.582 382.363,-160.582"/>
<text text-anchor="middle" x="367.363" y="-140.082" font-family="Helvetica,sans-Serif" font-size="10.00">HIC2</text>
</a>
</g>
<!-- HIC2&#45;&gt;ERG -->
<g id="edge70" class="edge"><title>HIC2&#45;&gt;ERG</title>
<a xlink:title="ERG: 0.572||remove11">
<path fill="none" stroke="#d171ff" stroke-width="3" d="M340.232,-158.848C312.981,-174.384 269.294,-197.142 228.502,-209.062 171.848,-225.616 103.089,-231.09 62.3051,-232.897"/>
<polygon fill="#d171ff" stroke="#d171ff" points="62.1678,-230.1 54.2873,-233.22 62.3937,-235.695 62.1678,-230.1"/>
</a>
</g>
<!-- HIC2&#45;&gt;FLI1 -->
<g id="edge72" class="edge"><title>HIC2&#45;&gt;FLI1</title>
<a xlink:title="FLI1: 0.007||remove2root">
<path fill="none" stroke="#eecaff" stroke-width="3" d="M340.085,-142.582C278.969,-142.582 131.076,-142.582 62.728,-142.582"/>
<polygon fill="#eecaff" stroke="#eecaff" points="62.4079,-139.781 54.4079,-142.582 62.4079,-145.381 62.4079,-139.781"/>
</a>
</g>
<!-- HIC2&#45;&gt;XBP1 -->
<g id="edge74" class="edge"><title>HIC2&#45;&gt;XBP1</title>
<a xlink:title="XBP1: 0.073||remove13root">
<path fill="none" stroke="#c0c6ff" stroke-width="3" d="M340.02,-149.908C310.744,-157.753 264.198,-170.224 232.246,-178.786"/>
<polygon fill="#c0c6ff" stroke="#c0c6ff" points="231.459,-176.098 224.456,-180.873 232.908,-181.507 231.459,-176.098"/>
</a>
</g>
<!-- HIC2&#45;&gt;ZEB1 -->
<g id="edge76" class="edge"><title>HIC2&#45;&gt;ZEB1</title>
<a xlink:title="ZEB1: 0.051||remove8root">
<path fill="none" stroke="#ecc3ff" stroke-width="3" d="M340.161,-135.293C286.53,-120.922 167.204,-88.9491 107.72,-73.0103"/>
<polygon fill="#ecc3ff" stroke="#ecc3ff" points="108.189,-70.2372 99.7365,-70.8712 106.739,-75.6464 108.189,-70.2372"/>
</a>
</g>
</g>
</svg>
