<?xml version="1.0" encoding="UTF-8" standalone="no"?>
<!DOCTYPE svg PUBLIC "-//W3C//DTD SVG 1.1//EN"
 "http://www.w3.org/Graphics/SVG/1.1/DTD/svg11.dtd">
<!-- Generated by graphviz version 2.28.0 (20110630.0925)
 -->
<!-- Title: _anonymous_0 Pages: 1 -->
<svg width="449pt" height="366pt"
 viewBox="0.00 0.00 448.95 366.45" xmlns="http://www.w3.org/2000/svg" xmlns:xlink="http://www.w3.org/1999/xlink">
<g id="graph1" class="graph" transform="scale(1 1) rotate(0) translate(4 362.449)">
<title>_anonymous_0</title>
<polygon fill="white" stroke="white" points="-4,5 -4,-362.449 445.949,-362.449 445.949,5 -4,5"/>
<!-- PATZ1_KLF4 -->
<g id="node1" class="node"><title>PATZ1_KLF4</title>
<a xlink:href="PATZ1_KLF4.svg" xlink:title="Z&#45;value: 1.751||remove17">
<polygon fill="#3247ff" stroke="#3247ff" stroke-width="2" points="294.925,-358.449 242.925,-358.449 230.925,-346.449 230.925,-334.449 242.925,-322.449 294.925,-322.449 306.925,-334.449 306.925,-346.449 294.925,-358.449"/>
<path fill="#3247ff" stroke="#3247ff" stroke-width="2" d="M242.925,-358.449C236.925,-358.449 230.925,-352.449 230.925,-346.449"/>
<path fill="#3247ff" stroke="#3247ff" stroke-width="2" d="M230.925,-334.449C230.925,-328.449 236.925,-322.449 242.925,-322.449"/>
<path fill="#3247ff" stroke="#3247ff" stroke-width="2" d="M294.925,-322.449C300.925,-322.449 306.925,-328.449 306.925,-334.449"/>
<path fill="#3247ff" stroke="#3247ff" stroke-width="2" d="M306.925,-346.449C306.925,-352.449 300.925,-358.449 294.925,-358.449"/>
<polyline fill="none" stroke="white" stroke-width="2" points="294.925,-358.449 242.925,-358.449 "/>
<path fill="none" stroke="white" stroke-width="2" d="M242.925,-358.449C236.925,-358.449 230.925,-352.449 230.925,-346.449"/>
<polyline fill="none" stroke="white" stroke-width="2" points="230.925,-346.449 230.925,-334.449 "/>
<path fill="none" stroke="white" stroke-width="2" d="M230.925,-334.449C230.925,-328.449 236.925,-322.449 242.925,-322.449"/>
<polyline fill="none" stroke="white" stroke-width="2" points="242.925,-322.449 294.925,-322.449 "/>
<path fill="none" stroke="white" stroke-width="2" d="M294.925,-322.449C300.925,-322.449 306.925,-328.449 306.925,-334.449"/>
<polyline fill="none" stroke="white" stroke-width="2" points="306.925,-334.449 306.925,-346.449 "/>
<path fill="none" stroke="white" stroke-width="2" d="M306.925,-346.449C306.925,-352.449 300.925,-358.449 294.925,-358.449"/>
<text text-anchor="middle" x="268.925" y="-337.949" font-family="Helvetica,sans-Serif" font-size="10.00" fill="white">PATZ1_KLF4</text>
</a>
</g>
<!-- PATZ1_KLF4&#45;&gt;PATZ1_KLF4 -->
<g id="edge14" class="edge"><title>PATZ1_KLF4&#45;&gt;PATZ1_KLF4</title>
<a xlink:title="PATZ1: 0.441||KLF4: 0.051||remove17">
<path fill="none" stroke="#d989ff" stroke-width="3" d="M307.139,-347.14C317.259,-346.758 324.925,-344.527 324.925,-340.449 324.925,-337.582 321.135,-335.628 315.367,-334.588"/>
<polygon fill="#d989ff" stroke="#d989ff" points="315.379,-331.775 307.139,-333.759 314.818,-337.347 315.379,-331.775"/>
</a>
</g>
<!-- NRF1 -->
<g id="node2" class="node"><title>NRF1</title>
<a xlink:href="NRF1.svg" xlink:title="Z&#45;value: 1.442||remove16">
<polygon fill="#4d5fff" stroke="#4d5fff" stroke-width="2" points="197.525,-358.449 167.525,-358.449 155.525,-346.449 155.525,-334.449 167.525,-322.449 197.525,-322.449 209.525,-334.449 209.525,-346.449 197.525,-358.449"/>
<path fill="#4d5fff" stroke="#4d5fff" stroke-width="2" d="M167.525,-358.449C161.525,-358.449 155.525,-352.449 155.525,-346.449"/>
<path fill="#4d5fff" stroke="#4d5fff" stroke-width="2" d="M155.525,-334.449C155.525,-328.449 161.525,-322.449 167.525,-322.449"/>
<path fill="#4d5fff" stroke="#4d5fff" stroke-width="2" d="M197.525,-322.449C203.525,-322.449 209.525,-328.449 209.525,-334.449"/>
<path fill="#4d5fff" stroke="#4d5fff" stroke-width="2" d="M209.525,-346.449C209.525,-352.449 203.525,-358.449 197.525,-358.449"/>
<polyline fill="none" stroke="white" stroke-width="2" points="197.525,-358.449 167.525,-358.449 "/>
<path fill="none" stroke="white" stroke-width="2" d="M167.525,-358.449C161.525,-358.449 155.525,-352.449 155.525,-346.449"/>
<polyline fill="none" stroke="white" stroke-width="2" points="155.525,-346.449 155.525,-334.449 "/>
<path fill="none" stroke="white" stroke-width="2" d="M155.525,-334.449C155.525,-328.449 161.525,-322.449 167.525,-322.449"/>
<polyline fill="none" stroke="white" stroke-width="2" points="167.525,-322.449 197.525,-322.449 "/>
<path fill="none" stroke="white" stroke-width="2" d="M197.525,-322.449C203.525,-322.449 209.525,-328.449 209.525,-334.449"/>
<polyline fill="none" stroke="white" stroke-width="2" points="209.525,-334.449 209.525,-346.449 "/>
<path fill="none" stroke="white" stroke-width="2" d="M209.525,-346.449C209.525,-352.449 203.525,-358.449 197.525,-358.449"/>
<text text-anchor="middle" x="182.525" y="-337.949" font-family="Helvetica,sans-Serif" font-size="10.00" fill="white">NRF1</text>
</a>
</g>
<!-- PATZ1_KLF4&#45;&gt;NRF1 -->
<g id="edge2" class="edge"><title>PATZ1_KLF4&#45;&gt;NRF1</title>
<a xlink:title="NRF1: 0.012||remove4root">
<path fill="none" stroke="#eecaff" stroke-width="3" d="M230.777,-340.449C226.424,-340.449 222.002,-340.449 217.691,-340.449"/>
<polygon fill="#eecaff" stroke="#eecaff" points="217.584,-337.649 209.584,-340.449 217.584,-343.249 217.584,-337.649"/>
</a>
</g>
<!-- ARNT -->
<g id="node4" class="node"><title>ARNT</title>
<a xlink:href="ARNT.svg" xlink:title="Z&#45;value: 0.674||remove14">
<polygon fill="#919cff" stroke="#919cff" stroke-width="2" points="122.7,-315.249 92.7,-315.249 80.7,-303.249 80.7,-291.249 92.7,-279.249 122.7,-279.249 134.7,-291.249 134.7,-303.249 122.7,-315.249"/>
<path fill="#919cff" stroke="#919cff" stroke-width="2" d="M92.7,-315.249C86.7,-315.249 80.7,-309.249 80.7,-303.249"/>
<path fill="#919cff" stroke="#919cff" stroke-width="2" d="M80.7,-291.249C80.7,-285.249 86.7,-279.249 92.7,-279.249"/>
<path fill="#919cff" stroke="#919cff" stroke-width="2" d="M122.7,-279.249C128.7,-279.249 134.7,-285.249 134.7,-291.249"/>
<path fill="#919cff" stroke="#919cff" stroke-width="2" d="M134.7,-303.249C134.7,-309.249 128.7,-315.249 122.7,-315.249"/>
<polyline fill="none" stroke="white" stroke-width="2" points="122.7,-315.249 92.7,-315.249 "/>
<path fill="none" stroke="white" stroke-width="2" d="M92.7,-315.249C86.7,-315.249 80.7,-309.249 80.7,-303.249"/>
<polyline fill="none" stroke="white" stroke-width="2" points="80.7,-303.249 80.7,-291.249 "/>
<path fill="none" stroke="white" stroke-width="2" d="M80.7,-291.249C80.7,-285.249 86.7,-279.249 92.7,-279.249"/>
<polyline fill="none" stroke="white" stroke-width="2" points="92.7,-279.249 122.7,-279.249 "/>
<path fill="none" stroke="white" stroke-width="2" d="M122.7,-279.249C128.7,-279.249 134.7,-285.249 134.7,-291.249"/>
<polyline fill="none" stroke="white" stroke-width="2" points="134.7,-291.249 134.7,-303.249 "/>
<path fill="none" stroke="white" stroke-width="2" d="M134.7,-303.249C134.7,-309.249 128.7,-315.249 122.7,-315.249"/>
<text text-anchor="middle" x="107.7" y="-294.749" font-family="Helvetica,sans-Serif" font-size="10.00">ARNT</text>
</a>
</g>
<!-- PATZ1_KLF4&#45;&gt;ARNT -->
<g id="edge4" class="edge"><title>PATZ1_KLF4&#45;&gt;ARNT</title>
<a xlink:title="ARNT: 0.269||KLF4: 0.073||PATZ1: 0.046||remove14">
<path fill="none" stroke="#e1a3ff" stroke-width="3" d="M222.695,-323.389C219.625,-322.371 216.55,-321.403 213.564,-320.529 190.346,-313.728 163.601,-308.118 142.807,-304.232"/>
<path fill="none" stroke="#ebc0ff" stroke-width="3" d="M223.324,-321.491C220.225,-320.464 217.151,-319.495 214.126,-318.609 190.756,-311.771 164.012,-306.161 143.174,-302.266"/>
<polygon fill="#ebc0ff" stroke="#ebc0ff" points="222.186,-325.118 230.662,-325.076 224.01,-319.823 222.186,-325.118"/>
<polygon fill="#e1a3ff" stroke="#e1a3ff" points="143.41,-300.479 135.036,-301.792 142.401,-305.988 143.41,-300.479"/>
</a>
</g>
<!-- RFX5 -->
<g id="node6" class="node"><title>RFX5</title>
<a xlink:href="RFX5.svg" xlink:title="Z&#45;value: 0.261||remove15">
<polygon fill="#b5bcff" stroke="#b5bcff" stroke-width="2" points="401.949,-240.425 371.949,-240.425 359.949,-228.425 359.949,-216.425 371.949,-204.425 401.949,-204.425 413.949,-216.425 413.949,-228.425 401.949,-240.425"/>
<path fill="#b5bcff" stroke="#b5bcff" stroke-width="2" d="M371.949,-240.425C365.949,-240.425 359.949,-234.425 359.949,-228.425"/>
<path fill="#b5bcff" stroke="#b5bcff" stroke-width="2" d="M359.949,-216.425C359.949,-210.425 365.949,-204.425 371.949,-204.425"/>
<path fill="#b5bcff" stroke="#b5bcff" stroke-width="2" d="M401.949,-204.425C407.949,-204.425 413.949,-210.425 413.949,-216.425"/>
<path fill="#b5bcff" stroke="#b5bcff" stroke-width="2" d="M413.949,-228.425C413.949,-234.425 407.949,-240.425 401.949,-240.425"/>
<polyline fill="none" stroke="white" stroke-width="2" points="401.949,-240.425 371.949,-240.425 "/>
<path fill="none" stroke="white" stroke-width="2" d="M371.949,-240.425C365.949,-240.425 359.949,-234.425 359.949,-228.425"/>
<polyline fill="none" stroke="white" stroke-width="2" points="359.949,-228.425 359.949,-216.425 "/>
<path fill="none" stroke="white" stroke-width="2" d="M359.949,-216.425C359.949,-210.425 365.949,-204.425 371.949,-204.425"/>
<polyline fill="none" stroke="white" stroke-width="2" points="371.949,-204.425 401.949,-204.425 "/>
<path fill="none" stroke="white" stroke-width="2" d="M401.949,-204.425C407.949,-204.425 413.949,-210.425 413.949,-216.425"/>
<polyline fill="none" stroke="white" stroke-width="2" points="413.949,-216.425 413.949,-228.425 "/>
<path fill="none" stroke="white" stroke-width="2" d="M413.949,-228.425C413.949,-234.425 407.949,-240.425 401.949,-240.425"/>
<text text-anchor="middle" x="386.949" y="-219.925" font-family="Helvetica,sans-Serif" font-size="10.00">RFX5</text>
</a>
</g>
<!-- PATZ1_KLF4&#45;&gt;RFX5 -->
<g id="edge6" class="edge"><title>PATZ1_KLF4&#45;&gt;RFX5</title>
<a xlink:title="RFX5: 0.037||remove15">
<path fill="none" stroke="#ecc6ff" stroke-width="3" d="M278.877,-322.365C286.866,-308.804 298.945,-290.266 312.429,-276.369 324.363,-264.07 339.384,-252.605 352.808,-243.434"/>
<polygon fill="#ecc6ff" stroke="#ecc6ff" points="354.562,-245.629 359.657,-238.856 351.45,-240.974 354.562,-245.629"/>
</a>
</g>
<!-- ZBTB49 -->
<g id="node8" class="node"><title>ZBTB49</title>
<a xlink:href="ZBTB49.svg" xlink:title="Z&#45;value: 0.439||remove22">
<polygon fill="#ffa5a5" stroke="#ffa5a5" stroke-width="2" points="240.725,-197.225 210.725,-197.225 198.725,-185.225 198.725,-173.225 210.725,-161.225 240.725,-161.225 252.725,-173.225 252.725,-185.225 240.725,-197.225"/>
<path fill="#ffa5a5" stroke="#ffa5a5" stroke-width="2" d="M210.725,-197.225C204.725,-197.225 198.725,-191.225 198.725,-185.225"/>
<path fill="#ffa5a5" stroke="#ffa5a5" stroke-width="2" d="M198.725,-173.225C198.725,-167.225 204.725,-161.225 210.725,-161.225"/>
<path fill="#ffa5a5" stroke="#ffa5a5" stroke-width="2" d="M240.725,-161.225C246.725,-161.225 252.725,-167.225 252.725,-173.225"/>
<path fill="#ffa5a5" stroke="#ffa5a5" stroke-width="2" d="M252.725,-185.225C252.725,-191.225 246.725,-197.225 240.725,-197.225"/>
<polyline fill="none" stroke="white" stroke-width="2" points="240.725,-197.225 210.725,-197.225 "/>
<path fill="none" stroke="white" stroke-width="2" d="M210.725,-197.225C204.725,-197.225 198.725,-191.225 198.725,-185.225"/>
<polyline fill="none" stroke="white" stroke-width="2" points="198.725,-185.225 198.725,-173.225 "/>
<path fill="none" stroke="white" stroke-width="2" d="M198.725,-173.225C198.725,-167.225 204.725,-161.225 210.725,-161.225"/>
<polyline fill="none" stroke="white" stroke-width="2" points="210.725,-161.225 240.725,-161.225 "/>
<path fill="none" stroke="white" stroke-width="2" d="M240.725,-161.225C246.725,-161.225 252.725,-167.225 252.725,-173.225"/>
<polyline fill="none" stroke="white" stroke-width="2" points="252.725,-173.225 252.725,-185.225 "/>
<path fill="none" stroke="white" stroke-width="2" d="M252.725,-185.225C252.725,-191.225 246.725,-197.225 240.725,-197.225"/>
<text text-anchor="middle" x="225.725" y="-176.725" font-family="Helvetica,sans-Serif" font-size="10.00">ZBTB49</text>
</a>
</g>
<!-- PATZ1_KLF4&#45;&gt;ZBTB49 -->
<g id="edge8" class="edge"><title>PATZ1_KLF4&#45;&gt;ZBTB49</title>
<a xlink:title="ZBTB49: 0.048||remove17root">
<path fill="none" stroke="#c4caff" stroke-width="3" d="M264.053,-322.268C256.404,-293.723 241.545,-238.267 232.744,-205.42"/>
<polygon fill="#c4caff" stroke="#c4caff" points="235.42,-204.589 230.645,-197.587 230.011,-206.039 235.42,-204.589"/>
</a>
</g>
<!-- XBP1 -->
<g id="node10" class="node"><title>XBP1</title>
<a xlink:href="XBP1.svg" xlink:title="Z&#45;value: 0.508||remove21">
<polygon fill="#9fa9ff" stroke="#9fa9ff" stroke-width="2" points="358.749,-315.249 328.749,-315.249 316.749,-303.249 316.749,-291.249 328.749,-279.249 358.749,-279.249 370.749,-291.249 370.749,-303.249 358.749,-315.249"/>
<path fill="#9fa9ff" stroke="#9fa9ff" stroke-width="2" d="M328.749,-315.249C322.749,-315.249 316.749,-309.249 316.749,-303.249"/>
<path fill="#9fa9ff" stroke="#9fa9ff" stroke-width="2" d="M316.749,-291.249C316.749,-285.249 322.749,-279.249 328.749,-279.249"/>
<path fill="#9fa9ff" stroke="#9fa9ff" stroke-width="2" d="M358.749,-279.249C364.749,-279.249 370.749,-285.249 370.749,-291.249"/>
<path fill="#9fa9ff" stroke="#9fa9ff" stroke-width="2" d="M370.749,-303.249C370.749,-309.249 364.749,-315.249 358.749,-315.249"/>
<polyline fill="none" stroke="white" stroke-width="2" points="358.749,-315.249 328.749,-315.249 "/>
<path fill="none" stroke="white" stroke-width="2" d="M328.749,-315.249C322.749,-315.249 316.749,-309.249 316.749,-303.249"/>
<polyline fill="none" stroke="white" stroke-width="2" points="316.749,-303.249 316.749,-291.249 "/>
<path fill="none" stroke="white" stroke-width="2" d="M316.749,-291.249C316.749,-285.249 322.749,-279.249 328.749,-279.249"/>
<polyline fill="none" stroke="white" stroke-width="2" points="328.749,-279.249 358.749,-279.249 "/>
<path fill="none" stroke="white" stroke-width="2" d="M358.749,-279.249C364.749,-279.249 370.749,-285.249 370.749,-291.249"/>
<polyline fill="none" stroke="white" stroke-width="2" points="370.749,-291.249 370.749,-303.249 "/>
<path fill="none" stroke="white" stroke-width="2" d="M370.749,-303.249C370.749,-309.249 364.749,-315.249 358.749,-315.249"/>
<text text-anchor="middle" x="343.749" y="-294.749" font-family="Helvetica,sans-Serif" font-size="10.00">XBP1</text>
</a>
</g>
<!-- PATZ1_KLF4&#45;&gt;XBP1 -->
<g id="edge10" class="edge"><title>PATZ1_KLF4&#45;&gt;XBP1</title>
<a xlink:title="XBP1: 0.032||remove12root">
<path fill="none" stroke="#edc7ff" stroke-width="3" d="M300.223,-322.379C303.287,-320.61 306.407,-318.809 309.498,-317.024"/>
<polygon fill="#edc7ff" stroke="#edc7ff" points="311.089,-319.339 316.617,-312.914 308.289,-314.489 311.089,-319.339"/>
</a>
</g>
<!-- MXI1_MYC_MYCN -->
<g id="node12" class="node"><title>MXI1_MYC_MYCN</title>
<a xlink:href="MXI1_MYC_MYCN.svg" xlink:title="Z&#45;value: 1.090||remove20">
<polygon fill="#6c7bff" stroke="#6c7bff" stroke-width="2" points="103.75,-240.425 25.25,-240.425 13.25,-228.425 13.25,-216.425 25.25,-204.425 103.75,-204.425 115.75,-216.425 115.75,-228.425 103.75,-240.425"/>
<path fill="#6c7bff" stroke="#6c7bff" stroke-width="2" d="M25.25,-240.425C19.25,-240.425 13.25,-234.425 13.25,-228.425"/>
<path fill="#6c7bff" stroke="#6c7bff" stroke-width="2" d="M13.25,-216.425C13.25,-210.425 19.25,-204.425 25.25,-204.425"/>
<path fill="#6c7bff" stroke="#6c7bff" stroke-width="2" d="M103.75,-204.425C109.75,-204.425 115.75,-210.425 115.75,-216.425"/>
<path fill="#6c7bff" stroke="#6c7bff" stroke-width="2" d="M115.75,-228.425C115.75,-234.425 109.75,-240.425 103.75,-240.425"/>
<polyline fill="none" stroke="white" stroke-width="2" points="103.75,-240.425 25.25,-240.425 "/>
<path fill="none" stroke="white" stroke-width="2" d="M25.25,-240.425C19.25,-240.425 13.25,-234.425 13.25,-228.425"/>
<polyline fill="none" stroke="white" stroke-width="2" points="13.25,-228.425 13.25,-216.425 "/>
<path fill="none" stroke="white" stroke-width="2" d="M13.25,-216.425C13.25,-210.425 19.25,-204.425 25.25,-204.425"/>
<polyline fill="none" stroke="white" stroke-width="2" points="25.25,-204.425 103.75,-204.425 "/>
<path fill="none" stroke="white" stroke-width="2" d="M103.75,-204.425C109.75,-204.425 115.75,-210.425 115.75,-216.425"/>
<polyline fill="none" stroke="white" stroke-width="2" points="115.75,-216.425 115.75,-228.425 "/>
<path fill="none" stroke="white" stroke-width="2" d="M115.75,-228.425C115.75,-234.425 109.75,-240.425 103.75,-240.425"/>
<text text-anchor="middle" x="64.5" y="-219.925" font-family="Helvetica,sans-Serif" font-size="10.00" fill="white">MXI1_MYC_MYCN</text>
</a>
</g>
<!-- PATZ1_KLF4&#45;&gt;MXI1_MYC_MYCN -->
<g id="edge12" class="edge"><title>PATZ1_KLF4&#45;&gt;MXI1_MYC_MYCN</title>
<a xlink:title="MYCN: 0.388||MXI1: 0.051||PATZ1: 0.041||remove17">
<path fill="none" stroke="#db91ff" stroke-width="3" d="M229.899,-319.072C193.336,-297.963 138.7,-266.418 102.234,-245.365"/>
<path fill="none" stroke="#ecc5ff" stroke-width="3" d="M230.899,-317.34C194.336,-296.231 139.7,-264.686 103.234,-243.633"/>
<polygon fill="#ecc5ff" stroke="#ecc5ff" points="229.103,-320.691 237.431,-322.267 231.903,-315.842 229.103,-320.691"/>
<polygon fill="#db91ff" stroke="#db91ff" points="104.022,-242.009 95.6937,-240.434 101.222,-246.859 104.022,-242.009"/>
</a>
</g>
<!-- MLX_USF2_USF1_PAX2 -->
<g id="node15" class="node"><title>MLX_USF2_USF1_PAX2</title>
<a xlink:href="MLX_USF2_USF1_PAX2.svg" xlink:title="Z&#45;value: 0.581||remove6">
<polygon fill="#99a3ff" stroke="#99a3ff" stroke-width="2" points="116.75,-154.025 12.25,-154.025 0.25,-142.025 0.25,-130.025 12.25,-118.025 116.75,-118.025 128.75,-130.025 128.75,-142.025 116.75,-154.025"/>
<path fill="#99a3ff" stroke="#99a3ff" stroke-width="2" d="M12.25,-154.025C6.25,-154.025 0.25,-148.025 0.25,-142.025"/>
<path fill="#99a3ff" stroke="#99a3ff" stroke-width="2" d="M0.25,-130.025C0.25,-124.025 6.25,-118.025 12.25,-118.025"/>
<path fill="#99a3ff" stroke="#99a3ff" stroke-width="2" d="M116.75,-118.025C122.75,-118.025 128.75,-124.025 128.75,-130.025"/>
<path fill="#99a3ff" stroke="#99a3ff" stroke-width="2" d="M128.75,-142.025C128.75,-148.025 122.75,-154.025 116.75,-154.025"/>
<polyline fill="none" stroke="white" stroke-width="2" points="116.75,-154.025 12.25,-154.025 "/>
<path fill="none" stroke="white" stroke-width="2" d="M12.25,-154.025C6.25,-154.025 0.25,-148.025 0.25,-142.025"/>
<polyline fill="none" stroke="white" stroke-width="2" points="0.25,-142.025 0.25,-130.025 "/>
<path fill="none" stroke="white" stroke-width="2" d="M0.25,-130.025C0.25,-124.025 6.25,-118.025 12.25,-118.025"/>
<polyline fill="none" stroke="white" stroke-width="2" points="12.25,-118.025 116.75,-118.025 "/>
<path fill="none" stroke="white" stroke-width="2" d="M116.75,-118.025C122.75,-118.025 128.75,-124.025 128.75,-130.025"/>
<polyline fill="none" stroke="white" stroke-width="2" points="128.75,-130.025 128.75,-142.025 "/>
<path fill="none" stroke="white" stroke-width="2" d="M128.75,-142.025C128.75,-148.025 122.75,-154.025 116.75,-154.025"/>
<text text-anchor="middle" x="64.5" y="-133.525" font-family="Helvetica,sans-Serif" font-size="10.00">MLX_USF2_USF1_PAX2</text>
</a>
</g>
<!-- PATZ1_KLF4&#45;&gt;MLX_USF2_USF1_PAX2 -->
<g id="edge16" class="edge"><title>PATZ1_KLF4&#45;&gt;MLX_USF2_USF1_PAX2</title>
<a xlink:title="USF2: 0.445||PAX2: 0.127||USF1: 0.038||remove6">
<path fill="none" stroke="#d988ff" stroke-width="3" d="M250.783,-322.308C213.809,-285.333 129.74,-201.265 88.3821,-159.907"/>
<polygon fill="#d988ff" stroke="#d988ff" points="90.2375,-157.802 82.6007,-154.125 86.2776,-161.762 90.2375,-157.802"/>
</a>
</g>
<!-- NRF1&#45;&gt;NRF1 -->
<g id="edge18" class="edge"><title>NRF1&#45;&gt;NRF1</title>
<a xlink:title="NRF1: 0.063||remove16">
<path fill="none" stroke="#ebc2ff" stroke-width="3" d="M209.765,-347.193C219.549,-347.338 227.525,-345.09 227.525,-340.449 227.525,-337.186 223.581,-335.106 217.839,-334.209"/>
<polygon fill="#ebc2ff" stroke="#ebc2ff" points="217.924,-331.409 209.765,-333.706 217.576,-336.998 217.924,-331.409"/>
</a>
</g>
<!-- NRF1&#45;&gt;ZBTB49 -->
<g id="edge20" class="edge"><title>NRF1&#45;&gt;ZBTB49</title>
<a xlink:title="ZBTB49: 0.045||remove16root">
<path fill="none" stroke="#c5caff" stroke-width="3" d="M187.396,-322.268C195.045,-293.723 209.904,-238.267 218.706,-205.42"/>
<polygon fill="#c5caff" stroke="#c5caff" points="221.438,-206.039 220.805,-197.587 216.029,-204.589 221.438,-206.039"/>
</a>
</g>
<!-- NRF1&#45;&gt;MLX_USF2_USF1_PAX2 -->
<g id="edge22" class="edge"><title>NRF1&#45;&gt;MLX_USF2_USF1_PAX2</title>
<a xlink:title="MLX: 0.161||remove6">
<path fill="none" stroke="#e6b3ff" stroke-width="3" d="M177.151,-322.396C168.508,-294.944 149.856,-241.661 124.24,-201.545 114.645,-186.519 101.505,-171.679 89.9917,-159.932"/>
<polygon fill="#e6b3ff" stroke="#e6b3ff" points="91.783,-157.764 84.1463,-154.086 87.8231,-161.723 91.783,-157.764"/>
</a>
</g>
<!-- ARNT&#45;&gt;RFX5 -->
<g id="edge34" class="edge"><title>ARNT&#45;&gt;RFX5</title>
<a xlink:title="RFX5: 0.019||remove5root">
<path fill="none" stroke="#edc9ff" stroke-width="3" d="M134.729,-290.007C185.609,-276.374 295.554,-246.914 351.981,-231.794"/>
<polygon fill="#edc9ff" stroke="#edc9ff" points="352.902,-234.446 359.905,-229.671 351.453,-229.037 352.902,-234.446"/>
</a>
</g>
<!-- ARNT&#45;&gt;ZBTB49 -->
<g id="edge36" class="edge"><title>ARNT&#45;&gt;ZBTB49</title>
<a xlink:title="ZBTB49: 0.035||remove14root">
<path fill="none" stroke="#c6ccff" stroke-width="3" d="M125.883,-279.067C146.302,-258.648 179.513,-225.437 201.969,-202.98"/>
<polygon fill="#c6ccff" stroke="#c6ccff" points="204.038,-204.871 207.715,-197.234 200.078,-200.911 204.038,-204.871"/>
</a>
</g>
<!-- ARNT&#45;&gt;MLX_USF2_USF1_PAX2 -->
<g id="edge40" class="edge"><title>ARNT&#45;&gt;MLX_USF2_USF1_PAX2</title>
<a xlink:title="MLX: 0.059||remove6">
<path fill="none" stroke="#ebc3ff" stroke-width="3" d="M116.444,-279.043C124.633,-259.355 134.231,-227.33 124.24,-201.545 118.036,-185.532 105.895,-171.034 94.1694,-159.77"/>
<polygon fill="#ebc3ff" stroke="#ebc3ff" points="95.8892,-157.547 88.1091,-154.184 92.0937,-161.665 95.8892,-157.547"/>
</a>
</g>
<!-- HIF1A -->
<g id="node29" class="node"><title>HIF1A</title>
<a xlink:href="HIF1A.svg" xlink:title="Z&#45;value: 0.634||remove10">
<polygon fill="#949fff" stroke="#949fff" stroke-width="2" points="283.925,-36 253.925,-36 241.925,-24 241.925,-12 253.925,-0 283.925,-0 295.925,-12 295.925,-24 283.925,-36"/>
<path fill="#949fff" stroke="#949fff" stroke-width="2" d="M253.925,-36C247.925,-36 241.925,-30 241.925,-24"/>
<path fill="#949fff" stroke="#949fff" stroke-width="2" d="M241.925,-12C241.925,-6 247.925,-0 253.925,-0"/>
<path fill="#949fff" stroke="#949fff" stroke-width="2" d="M283.925,-0C289.925,-0 295.925,-6 295.925,-12"/>
<path fill="#949fff" stroke="#949fff" stroke-width="2" d="M295.925,-24C295.925,-30 289.925,-36 283.925,-36"/>
<polyline fill="none" stroke="white" stroke-width="2" points="283.925,-36 253.925,-36 "/>
<path fill="none" stroke="white" stroke-width="2" d="M253.925,-36C247.925,-36 241.925,-30 241.925,-24"/>
<polyline fill="none" stroke="white" stroke-width="2" points="241.925,-24 241.925,-12 "/>
<path fill="none" stroke="white" stroke-width="2" d="M241.925,-12C241.925,-6 247.925,-0 253.925,-0"/>
<polyline fill="none" stroke="white" stroke-width="2" points="253.925,-0 283.925,-0 "/>
<path fill="none" stroke="white" stroke-width="2" d="M283.925,-0C289.925,-0 295.925,-6 295.925,-12"/>
<polyline fill="none" stroke="white" stroke-width="2" points="295.925,-12 295.925,-24 "/>
<path fill="none" stroke="white" stroke-width="2" d="M295.925,-24C295.925,-30 289.925,-36 283.925,-36"/>
<text text-anchor="middle" x="268.925" y="-15.5" font-family="Helvetica,sans-Serif" font-size="10.00">HIF1A</text>
</a>
</g>
<!-- ARNT&#45;&gt;HIF1A -->
<g id="edge38" class="edge"><title>ARNT&#45;&gt;HIF1A</title>
<a xlink:title="HIF1A: 0.026||remove9root">
<path fill="none" stroke="#edc8ff" stroke-width="3" d="M118.278,-278.927C146.303,-230.387 222.5,-98.4097 254.484,-43.011"/>
<polygon fill="#edc8ff" stroke="#edc8ff" points="256.942,-44.355 258.517,-36.0268 252.092,-41.555 256.942,-44.355"/>
</a>
</g>
<!-- ZBTB49&#45;&gt;RFX5 -->
<g id="edge46" class="edge"><title>ZBTB49&#45;&gt;RFX5</title>
<a xlink:title="RFX5: 0.037||remove15root">
<path fill="none" stroke="#ffc6c6" stroke-width="3" d="M253.074,-186.553C280.256,-193.836 322.061,-205.038 351.715,-212.984"/>
<polygon fill="#ffc6c6" stroke="#ffc6c6" points="351.283,-215.767 359.735,-215.133 352.732,-210.357 351.283,-215.767"/>
</a>
</g>
<!-- ZBTB49&#45;&gt;XBP1 -->
<g id="edge48" class="edge"><title>ZBTB49&#45;&gt;XBP1</title>
<a xlink:title="XBP1: 0.107||remove21root">
<path fill="none" stroke="#ffbbbb" stroke-width="3" d="M243.907,-197.407C264.326,-217.826 297.537,-251.037 319.994,-273.494"/>
<polygon fill="#ffbbbb" stroke="#ffbbbb" points="318.103,-275.563 325.74,-279.24 322.063,-271.603 318.103,-275.563"/>
</a>
</g>
<!-- MXI1_MYC_MYCN&#45;&gt;RFX5 -->
<g id="edge28" class="edge"><title>MXI1_MYC_MYCN&#45;&gt;RFX5</title>
<a xlink:title="RFX5: 0.060||remove15">
<path fill="none" stroke="#ebc2ff" stroke-width="3" d="M115.95,-222.425C181.908,-222.425 294.547,-222.425 351.6,-222.425"/>
<polygon fill="#ebc2ff" stroke="#ebc2ff" points="351.933,-225.225 359.933,-222.425 351.933,-219.625 351.933,-225.225"/>
</a>
</g>
<!-- MXI1_MYC_MYCN&#45;&gt;ZBTB49 -->
<g id="edge30" class="edge"><title>MXI1_MYC_MYCN&#45;&gt;ZBTB49</title>
<a xlink:title="ZBTB49: 0.080||remove20root">
<path fill="none" stroke="#bfc6ff" stroke-width="3" d="M115.956,-208.637C140.414,-202.083 169.012,-194.421 190.884,-188.56"/>
<polygon fill="#bfc6ff" stroke="#bfc6ff" points="191.616,-191.263 198.619,-186.488 190.166,-185.854 191.616,-191.263"/>
</a>
</g>
<!-- MXI1_MYC_MYCN&#45;&gt;MLX_USF2_USF1_PAX2 -->
<g id="edge32" class="edge"><title>MXI1_MYC_MYCN&#45;&gt;MLX_USF2_USF1_PAX2</title>
<a xlink:title="USF2: 0.125||remove6">
<path fill="none" stroke="#e8b9ff" stroke-width="3" d="M64.5,-204.101C64.5,-191.877 64.5,-175.621 64.5,-162.06"/>
<polygon fill="#e8b9ff" stroke="#e8b9ff" points="67.3001,-162.025 64.5,-154.025 61.7001,-162.025 67.3001,-162.025"/>
</a>
</g>
<!-- PLAGL1 -->
<g id="node20" class="node"><title>PLAGL1</title>
<a xlink:href="PLAGL1.svg" xlink:title="Z&#45;value: 1.203||remove7">
<polygon fill="#6272ff" stroke="#6272ff" stroke-width="2" points="122.7,-79.2 92.7,-79.2 80.7,-67.2 80.7,-55.2 92.7,-43.2 122.7,-43.2 134.7,-55.2 134.7,-67.2 122.7,-79.2"/>
<path fill="#6272ff" stroke="#6272ff" stroke-width="2" d="M92.7,-79.2C86.7,-79.2 80.7,-73.2 80.7,-67.2"/>
<path fill="#6272ff" stroke="#6272ff" stroke-width="2" d="M80.7,-55.2C80.7,-49.2 86.7,-43.2 92.7,-43.2"/>
<path fill="#6272ff" stroke="#6272ff" stroke-width="2" d="M122.7,-43.2C128.7,-43.2 134.7,-49.2 134.7,-55.2"/>
<path fill="#6272ff" stroke="#6272ff" stroke-width="2" d="M134.7,-67.2C134.7,-73.2 128.7,-79.2 122.7,-79.2"/>
<polyline fill="none" stroke="white" stroke-width="2" points="122.7,-79.2 92.7,-79.2 "/>
<path fill="none" stroke="white" stroke-width="2" d="M92.7,-79.2C86.7,-79.2 80.7,-73.2 80.7,-67.2"/>
<polyline fill="none" stroke="white" stroke-width="2" points="80.7,-67.2 80.7,-55.2 "/>
<path fill="none" stroke="white" stroke-width="2" d="M80.7,-55.2C80.7,-49.2 86.7,-43.2 92.7,-43.2"/>
<polyline fill="none" stroke="white" stroke-width="2" points="92.7,-43.2 122.7,-43.2 "/>
<path fill="none" stroke="white" stroke-width="2" d="M122.7,-43.2C128.7,-43.2 134.7,-49.2 134.7,-55.2"/>
<polyline fill="none" stroke="white" stroke-width="2" points="134.7,-55.2 134.7,-67.2 "/>
<path fill="none" stroke="white" stroke-width="2" d="M134.7,-67.2C134.7,-73.2 128.7,-79.2 122.7,-79.2"/>
<text text-anchor="middle" x="107.7" y="-58.7" font-family="Helvetica,sans-Serif" font-size="10.00" fill="white">PLAGL1</text>
</a>
</g>
<!-- MXI1_MYC_MYCN&#45;&gt;PLAGL1 -->
<g id="edge24" class="edge"><title>MXI1_MYC_MYCN&#45;&gt;PLAGL1</title>
<a xlink:title="PLAGL1: 0.022||MXI1: 0.057||remove7">
<path fill="none" stroke="#edc8ff" stroke-width="3" d="M101.779,-198.662C116.058,-187.822 130.828,-173.371 138.409,-156.492 148.956,-134.017 137.173,-106.146 125.174,-86.6357"/>
<path fill="none" stroke="#ebc3ff" stroke-width="3" d="M102.989,-200.254C117.456,-189.252 132.227,-174.801 140.231,-157.318 150.798,-133.238 139.015,-105.368 126.879,-85.5888"/>
<polygon fill="#ebc3ff" stroke="#ebc3ff" points="100.656,-197.253 95.8352,-204.225 103.951,-201.781 100.656,-197.253"/>
<polygon fill="#edc8ff" stroke="#edc8ff" points="128.301,-84.4724 121.609,-79.2706 123.596,-87.5102 128.301,-84.4724"/>
</a>
</g>
<!-- E2F3 -->
<g id="node22" class="node"><title>E2F3</title>
<a xlink:href="E2F3.svg" xlink:title="Z&#45;value: 0.771||remove8">
<polygon fill="#8894ff" stroke="#8894ff" stroke-width="2" points="197.525,-36 167.525,-36 155.525,-24 155.525,-12 167.525,-6.39488e-14 197.525,-6.39488e-14 209.525,-12 209.525,-24 197.525,-36"/>
<path fill="#8894ff" stroke="#8894ff" stroke-width="2" d="M167.525,-36C161.525,-36 155.525,-30 155.525,-24"/>
<path fill="#8894ff" stroke="#8894ff" stroke-width="2" d="M155.525,-12C155.525,-6 161.525,-6.39488e-14 167.525,-6.39488e-14"/>
<path fill="#8894ff" stroke="#8894ff" stroke-width="2" d="M197.525,-6.39488e-14C203.525,-6.39488e-14 209.525,-6 209.525,-12"/>
<path fill="#8894ff" stroke="#8894ff" stroke-width="2" d="M209.525,-24C209.525,-30 203.525,-36 197.525,-36"/>
<polyline fill="none" stroke="white" stroke-width="2" points="197.525,-36 167.525,-36 "/>
<path fill="none" stroke="white" stroke-width="2" d="M167.525,-36C161.525,-36 155.525,-30 155.525,-24"/>
<polyline fill="none" stroke="white" stroke-width="2" points="155.525,-24 155.525,-12 "/>
<path fill="none" stroke="white" stroke-width="2" d="M155.525,-12C155.525,-6 161.525,-6.39488e-14 167.525,-6.39488e-14"/>
<polyline fill="none" stroke="white" stroke-width="2" points="167.525,-6.39488e-14 197.525,-6.39488e-14 "/>
<path fill="none" stroke="white" stroke-width="2" d="M197.525,-6.39488e-14C203.525,-6.39488e-14 209.525,-6 209.525,-12"/>
<polyline fill="none" stroke="white" stroke-width="2" points="209.525,-12 209.525,-24 "/>
<path fill="none" stroke="white" stroke-width="2" d="M209.525,-24C209.525,-30 203.525,-36 197.525,-36"/>
<text text-anchor="middle" x="182.525" y="-15.5" font-family="Helvetica,sans-Serif" font-size="10.00">E2F3</text>
</a>
</g>
<!-- MXI1_MYC_MYCN&#45;&gt;E2F3 -->
<g id="edge26" class="edge"><title>MXI1_MYC_MYCN&#45;&gt;E2F3</title>
<a xlink:title="E2F3: 0.030||remove8">
<path fill="none" stroke="#edc7ff" stroke-width="3" d="M91.7756,-204.379C107.687,-192.579 126.99,-175.867 139.32,-156.905 162.126,-121.833 173.507,-73.9903 178.701,-44.5881"/>
<polygon fill="#edc7ff" stroke="#edc7ff" points="181.504,-44.8026 180.063,-36.4501 175.98,-43.8782 181.504,-44.8026"/>
</a>
</g>
<!-- MLX_USF2_USF1_PAX2&#45;&gt;RFX5 -->
<g id="edge42" class="edge"><title>MLX_USF2_USF1_PAX2&#45;&gt;RFX5</title>
<a xlink:title="RFX5: 0.009||remove2root">
<path fill="none" stroke="#eecaff" stroke-width="3" d="M93.7527,-154.1C119.332,-168.997 157.983,-189.361 194.405,-200.105 247.668,-215.816 312.269,-220.546 351.46,-221.924"/>
<polygon fill="#eecaff" stroke="#eecaff" points="351.818,-224.736 359.9,-222.183 351.989,-219.139 351.818,-224.736"/>
</a>
</g>
<!-- MLX_USF2_USF1_PAX2&#45;&gt;ZBTB49 -->
<g id="edge44" class="edge"><title>MLX_USF2_USF1_PAX2&#45;&gt;ZBTB49</title>
<a xlink:title="ZBTB49: 0.021||remove6root">
<path fill="none" stroke="#c8ceff" stroke-width="3" d="M129.147,-153.347C150.115,-158.965 172.584,-164.986 190.569,-169.805"/>
<polygon fill="#c8ceff" stroke="#c8ceff" points="190.043,-172.562 198.495,-171.928 191.492,-167.153 190.043,-172.562"/>
</a>
</g>
<!-- PLAGL1&#45;&gt;NRF1 -->
<g id="edge68" class="edge"><title>PLAGL1&#45;&gt;NRF1</title>
<a xlink:title="NRF1: 0.118||remove7">
<path fill="none" stroke="#e8baff" stroke-width="3" d="M120.47,-79.3872C127.014,-89.4954 134.58,-102.546 139.32,-115.145 165.297,-184.197 176.302,-271.283 180.401,-314.151"/>
<polygon fill="#e8baff" stroke="#e8baff" points="177.635,-314.649 181.152,-322.361 183.211,-314.139 177.635,-314.649"/>
</a>
</g>
<!-- PLAGL1&#45;&gt;ARNT -->
<g id="edge72" class="edge"><title>PLAGL1&#45;&gt;ARNT</title>
<a xlink:title="ARNT: 0.078||remove7">
<path fill="none" stroke="#eac0ff" stroke-width="3" d="M121.769,-79.5617C128.506,-89.5127 135.85,-102.363 139.32,-115.145 154.209,-169.99 133.363,-236.107 119.101,-271.65"/>
<polygon fill="#eac0ff" stroke="#eac0ff" points="116.46,-270.708 115.996,-279.171 121.637,-272.845 116.46,-270.708"/>
</a>
</g>
<!-- PLAGL1&#45;&gt;ZBTB49 -->
<g id="edge74" class="edge"><title>PLAGL1&#45;&gt;ZBTB49</title>
<a xlink:title="ZBTB49: 0.022||remove7root">
<path fill="none" stroke="#c8ceff" stroke-width="3" d="M125.883,-79.3827C146.302,-99.8017 179.513,-133.013 201.969,-155.469"/>
<polygon fill="#c8ceff" stroke="#c8ceff" points="200.078,-157.538 207.715,-161.215 204.038,-153.578 200.078,-157.538"/>
</a>
</g>
<!-- PLAGL1&#45;&gt;MLX_USF2_USF1_PAX2 -->
<g id="edge76" class="edge"><title>PLAGL1&#45;&gt;MLX_USF2_USF1_PAX2</title>
<a xlink:title="USF2: 0.082||MLX: 0.043||remove6">
<path fill="none" stroke="#eabfff" stroke-width="3" d="M97.2425,-79.3129C91.8171,-88.7099 85.1003,-100.344 79.165,-110.624"/>
<polygon fill="#eabfff" stroke="#eabfff" points="76.5861,-109.491 75.0109,-117.819 81.4359,-112.291 76.5861,-109.491"/>
</a>
</g>
<!-- PLAGL1&#45;&gt;PLAGL1 -->
<g id="edge70" class="edge"><title>PLAGL1&#45;&gt;PLAGL1</title>
<a xlink:title="PLAGL1: 0.151||remove7">
<path fill="none" stroke="#e7b5ff" stroke-width="3" d="M134.941,-67.9434C144.724,-68.0884 152.7,-65.8406 152.7,-61.2 152.7,-57.9371 148.757,-55.8571 143.015,-54.9601"/>
<polygon fill="#e7b5ff" stroke="#e7b5ff" points="143.1,-52.1601 134.941,-54.4566 142.751,-57.7492 143.1,-52.1601"/>
</a>
</g>
<!-- E2F3&#45;&gt;PATZ1_KLF4 -->
<g id="edge82" class="edge"><title>E2F3&#45;&gt;PATZ1_KLF4</title>
<a xlink:title="KLF4: 0.001||remove0root">
<path fill="none" stroke="#eecbff" stroke-width="3" d="M195.624,-36.4267C213.19,-62.2629 243.708,-111.372 257.045,-158.345 272.305,-212.096 272.178,-278.214 270.621,-314.15"/>
<polygon fill="#eecbff" stroke="#eecbff" points="267.823,-314.061 270.227,-322.188 273.416,-314.335 267.823,-314.061"/>
</a>
</g>
<!-- E2F3&#45;&gt;ZBTB49 -->
<g id="edge78" class="edge"><title>E2F3&#45;&gt;ZBTB49</title>
<a xlink:title="ZBTB49: 0.022||remove8root">
<path fill="none" stroke="#c8ceff" stroke-width="3" d="M187.396,-36.1811C195.045,-64.7264 209.904,-120.183 218.706,-153.029"/>
<polygon fill="#c8ceff" stroke="#c8ceff" points="216.029,-153.86 220.805,-160.863 221.438,-152.41 216.029,-153.86"/>
</a>
</g>
<!-- E2F3&#45;&gt;XBP1 -->
<g id="edge80" class="edge"><title>E2F3&#45;&gt;XBP1</title>
<a xlink:title="XBP1: 0.036||remove8">
<path fill="none" stroke="#ecc6ff" stroke-width="3" d="M193.103,-36.3223C221.128,-84.8626 297.325,-216.84 329.309,-272.238"/>
<polygon fill="#ecc6ff" stroke="#ecc6ff" points="326.917,-273.694 333.341,-279.222 331.766,-270.894 326.917,-273.694"/>
</a>
</g>
<!-- E2F3&#45;&gt;MLX_USF2_USF1_PAX2 -->
<g id="edge84" class="edge"><title>E2F3&#45;&gt;MLX_USF2_USF1_PAX2</title>
<a xlink:title="MLX: 0.078||remove6">
<path fill="none" stroke="#eac0ff" stroke-width="3" d="M172.572,-36.0841C164.583,-49.6451 152.504,-68.1833 139.02,-82.08 127.853,-93.5891 113.982,-104.368 101.246,-113.22"/>
<polygon fill="#eac0ff" stroke="#eac0ff" points="99.3553,-111.12 94.3119,-117.932 102.503,-115.752 99.3553,-111.12"/>
</a>
</g>
<!-- HIF1A&#45;&gt;PATZ1_KLF4 -->
<g id="edge96" class="edge"><title>HIF1A&#45;&gt;PATZ1_KLF4</title>
<a xlink:title="KLF4: 0.152||PATZ1: 0.048||remove10">
<path fill="none" stroke="#e7b5ff" stroke-width="3" d="M268.925,-36.2601C268.925,-90.4652 268.925,-250.61 268.925,-314.094"/>
<polygon fill="#e7b5ff" stroke="#e7b5ff" points="266.125,-314.389 268.925,-322.389 271.725,-314.389 266.125,-314.389"/>
</a>
</g>
<!-- HIF1A&#45;&gt;ZBTB49 -->
<g id="edge94" class="edge"><title>HIF1A&#45;&gt;ZBTB49</title>
<a xlink:title="ZBTB49: 0.031||remove10root">
<path fill="none" stroke="#c7ccff" stroke-width="3" d="M264.053,-36.1811C256.404,-64.7264 241.545,-120.183 232.744,-153.029"/>
<polygon fill="#c7ccff" stroke="#c7ccff" points="230.011,-152.41 230.645,-160.863 235.42,-153.86 230.011,-152.41"/>
</a>
</g>
<!-- SP3 -->
<g id="node36" class="node"><title>SP3</title>
<a xlink:href="SP3.svg" xlink:title="Z&#45;value: 1.634||remove19">
<polygon fill="#3d50ff" stroke="#3d50ff" stroke-width="2" points="358.749,-79.2 328.749,-79.2 316.749,-67.2 316.749,-55.2 328.749,-43.2 358.749,-43.2 370.749,-55.2 370.749,-67.2 358.749,-79.2"/>
<path fill="#3d50ff" stroke="#3d50ff" stroke-width="2" d="M328.749,-79.2C322.749,-79.2 316.749,-73.2 316.749,-67.2"/>
<path fill="#3d50ff" stroke="#3d50ff" stroke-width="2" d="M316.749,-55.2C316.749,-49.2 322.749,-43.2 328.749,-43.2"/>
<path fill="#3d50ff" stroke="#3d50ff" stroke-width="2" d="M358.749,-43.2C364.749,-43.2 370.749,-49.2 370.749,-55.2"/>
<path fill="#3d50ff" stroke="#3d50ff" stroke-width="2" d="M370.749,-67.2C370.749,-73.2 364.749,-79.2 358.749,-79.2"/>
<polyline fill="none" stroke="white" stroke-width="2" points="358.749,-79.2 328.749,-79.2 "/>
<path fill="none" stroke="white" stroke-width="2" d="M328.749,-79.2C322.749,-79.2 316.749,-73.2 316.749,-67.2"/>
<polyline fill="none" stroke="white" stroke-width="2" points="316.749,-67.2 316.749,-55.2 "/>
<path fill="none" stroke="white" stroke-width="2" d="M316.749,-55.2C316.749,-49.2 322.749,-43.2 328.749,-43.2"/>
<polyline fill="none" stroke="white" stroke-width="2" points="328.749,-43.2 358.749,-43.2 "/>
<path fill="none" stroke="white" stroke-width="2" d="M358.749,-43.2C364.749,-43.2 370.749,-49.2 370.749,-55.2"/>
<polyline fill="none" stroke="white" stroke-width="2" points="370.749,-55.2 370.749,-67.2 "/>
<path fill="none" stroke="white" stroke-width="2" d="M370.749,-67.2C370.749,-73.2 364.749,-79.2 358.749,-79.2"/>
<text text-anchor="middle" x="343.749" y="-58.7" font-family="Helvetica,sans-Serif" font-size="10.00" fill="white">SP3</text>
</a>
</g>
<!-- SP3&#45;&gt;PATZ1_KLF4 -->
<g id="edge64" class="edge"><title>SP3&#45;&gt;PATZ1_KLF4</title>
<a xlink:title="PATZ1: 0.077||KLF4: 0.020||remove17">
<path fill="none" stroke="#eac0ff" stroke-width="3" d="M336.608,-79.5156C332.704,-89.882 327.938,-103.138 324.309,-115.145 302.79,-186.356 283.494,-272.083 274.414,-314.318"/>
<polygon fill="#eac0ff" stroke="#eac0ff" points="271.67,-313.759 272.736,-322.167 277.146,-314.929 271.67,-313.759"/>
</a>
</g>
<!-- SP3&#45;&gt;ARNT -->
<g id="edge54" class="edge"><title>SP3&#45;&gt;ARNT</title>
<a xlink:title="ARNT: 0.032||remove11root">
<path fill="none" stroke="#edc7ff" stroke-width="3" d="M335.509,-79.5861C322.133,-107.95 293.485,-162.977 257.045,-200.105 223.046,-234.744 174.615,-263.418 142.218,-280.424"/>
<polygon fill="#edc7ff" stroke="#edc7ff" points="140.57,-278.124 134.751,-284.287 143.143,-283.098 140.57,-278.124"/>
</a>
</g>
<!-- SP3&#45;&gt;RFX5 -->
<g id="edge56" class="edge"><title>SP3&#45;&gt;RFX5</title>
<a xlink:title="RFX5: 0.052||remove15">
<path fill="none" stroke="#ecc4ff" stroke-width="3" d="M334.011,-79.3979C324.847,-99.0786 313.958,-131.098 324.309,-156.905 330.795,-173.074 343.385,-187.511 355.587,-198.69"/>
<polygon fill="#ecc4ff" stroke="#ecc4ff" points="354.039,-201.057 361.898,-204.232 357.734,-196.849 354.039,-201.057"/>
</a>
</g>
<!-- SP3&#45;&gt;ZBTB49 -->
<g id="edge58" class="edge"><title>SP3&#45;&gt;ZBTB49</title>
<a xlink:title="ZBTB49: 0.066||remove19root">
<path fill="none" stroke="#c1c8ff" stroke-width="3" d="M325.567,-79.3827C305.148,-99.8017 271.937,-133.013 249.48,-155.469"/>
<polygon fill="#c1c8ff" stroke="#c1c8ff" points="247.411,-153.578 243.734,-161.215 251.371,-157.538 247.411,-153.578"/>
</a>
</g>
<!-- SP3&#45;&gt;XBP1 -->
<g id="edge60" class="edge"><title>SP3&#45;&gt;XBP1</title>
<a xlink:title="XBP1: 0.032||remove13root">
<path fill="none" stroke="#edc7ff" stroke-width="3" d="M335.471,-79.2455C331.211,-89.5274 326.468,-102.788 324.309,-115.145 314.685,-170.237 327.464,-235.595 336.404,-271.101"/>
<polygon fill="#edc7ff" stroke="#edc7ff" points="333.746,-272.005 338.466,-279.045 339.166,-270.598 333.746,-272.005"/>
</a>
</g>
<!-- SP3&#45;&gt;MXI1_MYC_MYCN -->
<g id="edge62" class="edge"><title>SP3&#45;&gt;MXI1_MYC_MYCN</title>
<a xlink:title="MYCN: 0.237||MXI1: 0.146||remove19">
<path fill="none" stroke="#e3a8ff" stroke-width="3" d="M316.72,-76.8054C266.84,-105.603 160.194,-167.176 102.856,-200.28"/>
<polygon fill="#e3a8ff" stroke="#e3a8ff" points="101.306,-197.942 95.7775,-204.367 104.106,-202.791 101.306,-197.942"/>
</a>
</g>
<!-- SP3&#45;&gt;MLX_USF2_USF1_PAX2 -->
<g id="edge66" class="edge"><title>SP3&#45;&gt;MLX_USF2_USF1_PAX2</title>
<a xlink:title="USF2: 1.015||USF1: 0.055||remove6">
<path fill="none" stroke="#bd32ff" stroke-width="3" d="M316.72,-68.4425C275.522,-79.4815 195.598,-100.897 136.717,-116.674"/>
<polygon fill="#bd32ff" stroke="#bd32ff" points="135.922,-113.988 128.919,-118.764 137.371,-119.398 135.922,-113.988"/>
</a>
</g>
<!-- SP3&#45;&gt;PLAGL1 -->
<g id="edge50" class="edge"><title>SP3&#45;&gt;PLAGL1</title>
<a xlink:title="PLAGL1: 0.059||SP3: 0.106||remove7">
<path fill="none" stroke="#ebc3ff" stroke-width="3" d="M308.533,-62.2C263.97,-62.2 187.662,-62.2 143.04,-62.2"/>
<path fill="none" stroke="#e9bbff" stroke-width="3" d="M308.533,-60.2C263.97,-60.2 187.662,-60.2 143.04,-60.2"/>
<polygon fill="#e9bbff" stroke="#e9bbff" points="308.671,-64.0001 316.671,-61.2 308.671,-58.4001 308.671,-64.0001"/>
<polygon fill="#ebc3ff" stroke="#ebc3ff" points="142.825,-58.4001 134.825,-61.2 142.825,-64.0001 142.825,-58.4001"/>
</a>
</g>
<!-- SP3&#45;&gt;E2F3 -->
<g id="edge52" class="edge"><title>SP3&#45;&gt;E2F3</title>
<a xlink:title="E2F3: 0.331||SP3: 0.058||remove8">
<path fill="none" stroke="#de9aff" stroke-width="3" d="M308.275,-56.1831C287.437,-52.2886 260.693,-46.6782 237.324,-39.8397 230.651,-37.8854 223.684,-35.5144 216.998,-33.0683"/>
<path fill="none" stroke="#ebc3ff" stroke-width="3" d="M308.642,-54.2172C287.848,-50.3312 261.103,-44.7208 237.886,-37.9203 231.296,-35.992 224.328,-33.6211 217.686,-31.1901"/>
<polygon fill="#ebc3ff" stroke="#ebc3ff" points="308.039,-57.9698 316.413,-56.6572 309.048,-52.4615 308.039,-57.9698"/>
<polygon fill="#de9aff" stroke="#de9aff" points="218.17,-29.4492 209.696,-29.2571 216.201,-34.6915 218.17,-29.4492"/>
</a>
</g>
<!-- ELF2_GABPA_ELF5 -->
<g id="node55" class="node"><title>ELF2_GABPA_ELF5</title>
<a xlink:href="ELF2_GABPA_ELF5.svg" xlink:title="Z&#45;value: 1.088||remove18">
<polygon fill="#6c7bff" stroke="#6c7bff" stroke-width="2" points="428.949,-154.025 344.949,-154.025 332.949,-142.025 332.949,-130.025 344.949,-118.025 428.949,-118.025 440.949,-130.025 440.949,-142.025 428.949,-154.025"/>
<path fill="#6c7bff" stroke="#6c7bff" stroke-width="2" d="M344.949,-154.025C338.949,-154.025 332.949,-148.025 332.949,-142.025"/>
<path fill="#6c7bff" stroke="#6c7bff" stroke-width="2" d="M332.949,-130.025C332.949,-124.025 338.949,-118.025 344.949,-118.025"/>
<path fill="#6c7bff" stroke="#6c7bff" stroke-width="2" d="M428.949,-118.025C434.949,-118.025 440.949,-124.025 440.949,-130.025"/>
<path fill="#6c7bff" stroke="#6c7bff" stroke-width="2" d="M440.949,-142.025C440.949,-148.025 434.949,-154.025 428.949,-154.025"/>
<polyline fill="none" stroke="white" stroke-width="2" points="428.949,-154.025 344.949,-154.025 "/>
<path fill="none" stroke="white" stroke-width="2" d="M344.949,-154.025C338.949,-154.025 332.949,-148.025 332.949,-142.025"/>
<polyline fill="none" stroke="white" stroke-width="2" points="332.949,-142.025 332.949,-130.025 "/>
<path fill="none" stroke="white" stroke-width="2" d="M332.949,-130.025C332.949,-124.025 338.949,-118.025 344.949,-118.025"/>
<polyline fill="none" stroke="white" stroke-width="2" points="344.949,-118.025 428.949,-118.025 "/>
<path fill="none" stroke="white" stroke-width="2" d="M428.949,-118.025C434.949,-118.025 440.949,-124.025 440.949,-130.025"/>
<polyline fill="none" stroke="white" stroke-width="2" points="440.949,-130.025 440.949,-142.025 "/>
<path fill="none" stroke="white" stroke-width="2" d="M440.949,-142.025C440.949,-148.025 434.949,-154.025 428.949,-154.025"/>
<text text-anchor="middle" x="386.949" y="-133.525" font-family="Helvetica,sans-Serif" font-size="10.00" fill="white">ELF2_GABPA_ELF5</text>
</a>
</g>
<!-- ELF2_GABPA_ELF5&#45;&gt;PATZ1_KLF4 -->
<g id="edge92" class="edge"><title>ELF2_GABPA_ELF5&#45;&gt;PATZ1_KLF4</title>
<a xlink:title="PATZ1: 0.012||remove3root">
<path fill="none" stroke="#eecaff" stroke-width="3" d="M376.475,-154.166C355.347,-190.762 307.583,-273.491 283.455,-315.282"/>
<polygon fill="#eecaff" stroke="#eecaff" points="280.95,-314.02 279.375,-322.349 285.8,-316.82 280.95,-314.02"/>
</a>
</g>
<!-- ELF2_GABPA_ELF5&#45;&gt;ZBTB49 -->
<g id="edge88" class="edge"><title>ELF2_GABPA_ELF5&#45;&gt;ZBTB49</title>
<a xlink:title="ZBTB49: 0.056||remove18root">
<path fill="none" stroke="#c3c9ff" stroke-width="3" d="M332.815,-150.53C308.967,-156.92 281.641,-164.242 260.561,-169.89"/>
<polygon fill="#c3c9ff" stroke="#c3c9ff" points="259.811,-167.192 252.808,-171.968 261.26,-172.602 259.811,-167.192"/>
</a>
</g>
<!-- ELF2_GABPA_ELF5&#45;&gt;XBP1 -->
<g id="edge90" class="edge"><title>ELF2_GABPA_ELF5&#45;&gt;XBP1</title>
<a xlink:title="XBP1: 0.007||remove1root">
<path fill="none" stroke="#eecbff" stroke-width="3" d="M376.387,-154.032C369.362,-166.854 360.551,-184.725 355.629,-201.545 348.952,-224.361 346.027,-251.309 344.746,-270.786"/>
<polygon fill="#eecbff" stroke="#eecbff" points="341.943,-270.757 344.279,-278.905 347.534,-271.079 341.943,-270.757"/>
</a>
</g>
<!-- ELF2_GABPA_ELF5&#45;&gt;E2F3 -->
<g id="edge86" class="edge"><title>ELF2_GABPA_ELF5&#45;&gt;E2F3</title>
<a xlink:title="E2F3: 0.032||remove8">
<path fill="none" stroke="#edc7ff" stroke-width="3" d="M355.456,-117.842C317.921,-96.1711 255.43,-60.0918 216.736,-37.752"/>
<polygon fill="#edc7ff" stroke="#edc7ff" points="218.128,-35.3223 209.799,-33.7471 215.328,-40.172 218.128,-35.3223"/>
</a>
</g>
</g>
</svg>
