<?xml version="1.0" encoding="UTF-8" standalone="no"?>
<!DOCTYPE svg PUBLIC "-//W3C//DTD SVG 1.1//EN"
 "http://www.w3.org/Graphics/SVG/1.1/DTD/svg11.dtd">
<!-- Generated by graphviz version 2.28.0 (20110630.0925)
 -->
<!-- Title: _anonymous_0 Pages: 1 -->
<svg width="621pt" height="525pt"
 viewBox="0.00 0.00 621.41 525.31" xmlns="http://www.w3.org/2000/svg" xmlns:xlink="http://www.w3.org/1999/xlink">
<g id="graph1" class="graph" transform="scale(1 1) rotate(0) translate(4 521.308)">
<title>_anonymous_0</title>
<polygon fill="white" stroke="white" points="-4,5 -4,-521.308 618.409,-521.308 618.409,5 -4,5"/>
<!-- ZNF711_TFAP2A_TFAP2D -->
<g id="node1" class="node"><title>ZNF711_TFAP2A_TFAP2D</title>
<a xlink:href="ZNF711_TFAP2A_TFAP2D.svg" xlink:title="Z&#45;value: 2.387||remove31">
<polygon fill="#3247ff" stroke="#3247ff" stroke-width="2" points="394.729,-36 280.729,-36 268.729,-24 268.729,-12 280.729,3.19744e-14 394.729,3.19744e-14 406.729,-12 406.729,-24 394.729,-36"/>
<path fill="#3247ff" stroke="#3247ff" stroke-width="2" d="M280.729,-36C274.729,-36 268.729,-30 268.729,-24"/>
<path fill="#3247ff" stroke="#3247ff" stroke-width="2" d="M268.729,-12C268.729,-6 274.729,3.19744e-14 280.729,3.19744e-14"/>
<path fill="#3247ff" stroke="#3247ff" stroke-width="2" d="M394.729,3.19744e-14C400.729,3.19744e-14 406.729,-6 406.729,-12"/>
<path fill="#3247ff" stroke="#3247ff" stroke-width="2" d="M406.729,-24C406.729,-30 400.729,-36 394.729,-36"/>
<polyline fill="none" stroke="white" stroke-width="2" points="394.729,-36 280.729,-36 "/>
<path fill="none" stroke="white" stroke-width="2" d="M280.729,-36C274.729,-36 268.729,-30 268.729,-24"/>
<polyline fill="none" stroke="white" stroke-width="2" points="268.729,-24 268.729,-12 "/>
<path fill="none" stroke="white" stroke-width="2" d="M268.729,-12C268.729,-6 274.729,3.19744e-14 280.729,3.19744e-14"/>
<polyline fill="none" stroke="white" stroke-width="2" points="280.729,3.19744e-14 394.729,3.19744e-14 "/>
<path fill="none" stroke="white" stroke-width="2" d="M394.729,3.19744e-14C400.729,3.19744e-14 406.729,-6 406.729,-12"/>
<polyline fill="none" stroke="white" stroke-width="2" points="406.729,-12 406.729,-24 "/>
<path fill="none" stroke="white" stroke-width="2" d="M406.729,-24C406.729,-30 400.729,-36 394.729,-36"/>
<text text-anchor="middle" x="337.729" y="-15.5" font-family="Helvetica,sans-Serif" font-size="10.00" fill="white">ZNF711_TFAP2A_TFAP2D</text>
</a>
</g>
<!-- ZNF711_TFAP2A_TFAP2D&#45;&gt;ZNF711_TFAP2A_TFAP2D -->
<g id="edge2" class="edge"><title>ZNF711_TFAP2A_TFAP2D&#45;&gt;ZNF711_TFAP2A_TFAP2D</title>
<a xlink:title="TFAP2A: 0.506||ZNF711: 0.089||remove31">
<path fill="none" stroke="#dd96ff" stroke-width="3" d="M407.004,-24.1551C417.561,-23.2158 424.729,-21.1641 424.729,-18 424.729,-15.7258 421.026,-14.0263 415.023,-12.9014"/>
<polygon fill="#dd96ff" stroke="#dd96ff" points="415.301,-10.114 407.004,-11.8449 414.57,-15.666 415.301,-10.114"/>
</a>
</g>
<!-- LHX6 -->
<g id="node3" class="node"><title>LHX6</title>
<a xlink:href="LHX6.svg" xlink:title="Z&#45;value: 0.402||remove29">
<polygon fill="#b2b9ff" stroke="#b2b9ff" stroke-width="2" points="551.409,-345.151 521.409,-345.151 509.409,-333.151 509.409,-321.151 521.409,-309.151 551.409,-309.151 563.409,-321.151 563.409,-333.151 551.409,-345.151"/>
<path fill="#b2b9ff" stroke="#b2b9ff" stroke-width="2" d="M521.409,-345.151C515.409,-345.151 509.409,-339.151 509.409,-333.151"/>
<path fill="#b2b9ff" stroke="#b2b9ff" stroke-width="2" d="M509.409,-321.151C509.409,-315.151 515.409,-309.151 521.409,-309.151"/>
<path fill="#b2b9ff" stroke="#b2b9ff" stroke-width="2" d="M551.409,-309.151C557.409,-309.151 563.409,-315.151 563.409,-321.151"/>
<path fill="#b2b9ff" stroke="#b2b9ff" stroke-width="2" d="M563.409,-333.151C563.409,-339.151 557.409,-345.151 551.409,-345.151"/>
<polyline fill="none" stroke="white" stroke-width="2" points="551.409,-345.151 521.409,-345.151 "/>
<path fill="none" stroke="white" stroke-width="2" d="M521.409,-345.151C515.409,-345.151 509.409,-339.151 509.409,-333.151"/>
<polyline fill="none" stroke="white" stroke-width="2" points="509.409,-333.151 509.409,-321.151 "/>
<path fill="none" stroke="white" stroke-width="2" d="M509.409,-321.151C509.409,-315.151 515.409,-309.151 521.409,-309.151"/>
<polyline fill="none" stroke="white" stroke-width="2" points="521.409,-309.151 551.409,-309.151 "/>
<path fill="none" stroke="white" stroke-width="2" d="M551.409,-309.151C557.409,-309.151 563.409,-315.151 563.409,-321.151"/>
<polyline fill="none" stroke="white" stroke-width="2" points="563.409,-321.151 563.409,-333.151 "/>
<path fill="none" stroke="white" stroke-width="2" d="M563.409,-333.151C563.409,-339.151 557.409,-345.151 551.409,-345.151"/>
<text text-anchor="middle" x="536.409" y="-324.651" font-family="Helvetica,sans-Serif" font-size="10.00">LHX6</text>
</a>
</g>
<!-- ZNF711_TFAP2A_TFAP2D&#45;&gt;LHX6 -->
<g id="edge4" class="edge"><title>ZNF711_TFAP2A_TFAP2D&#45;&gt;LHX6</title>
<a xlink:title="LHX6: 0.265||remove24root">
<path fill="none" stroke="#e5afff" stroke-width="3" d="M349.563,-36.413C383.519,-89.2505 481.324,-241.438 520.197,-301.925"/>
<polygon fill="#e5afff" stroke="#e5afff" points="517.957,-303.618 524.637,-308.834 522.668,-300.591 517.957,-303.618"/>
</a>
</g>
<!-- OVOL1 -->
<g id="node5" class="node"><title>OVOL1</title>
<a xlink:href="OVOL1.svg" xlink:title="Z&#45;value: 0.157||remove30">
<polygon fill="#c1c8ff" stroke="#c1c8ff" stroke-width="2" points="477.344,-460.398 447.344,-460.398 435.344,-448.398 435.344,-436.398 447.344,-424.398 477.344,-424.398 489.344,-436.398 489.344,-448.398 477.344,-460.398"/>
<path fill="#c1c8ff" stroke="#c1c8ff" stroke-width="2" d="M447.344,-460.398C441.344,-460.398 435.344,-454.398 435.344,-448.398"/>
<path fill="#c1c8ff" stroke="#c1c8ff" stroke-width="2" d="M435.344,-436.398C435.344,-430.398 441.344,-424.398 447.344,-424.398"/>
<path fill="#c1c8ff" stroke="#c1c8ff" stroke-width="2" d="M477.344,-424.398C483.344,-424.398 489.344,-430.398 489.344,-436.398"/>
<path fill="#c1c8ff" stroke="#c1c8ff" stroke-width="2" d="M489.344,-448.398C489.344,-454.398 483.344,-460.398 477.344,-460.398"/>
<polyline fill="none" stroke="white" stroke-width="2" points="477.344,-460.398 447.344,-460.398 "/>
<path fill="none" stroke="white" stroke-width="2" d="M447.344,-460.398C441.344,-460.398 435.344,-454.398 435.344,-448.398"/>
<polyline fill="none" stroke="white" stroke-width="2" points="435.344,-448.398 435.344,-436.398 "/>
<path fill="none" stroke="white" stroke-width="2" d="M435.344,-436.398C435.344,-430.398 441.344,-424.398 447.344,-424.398"/>
<polyline fill="none" stroke="white" stroke-width="2" points="447.344,-424.398 477.344,-424.398 "/>
<path fill="none" stroke="white" stroke-width="2" d="M477.344,-424.398C483.344,-424.398 489.344,-430.398 489.344,-436.398"/>
<polyline fill="none" stroke="white" stroke-width="2" points="489.344,-436.398 489.344,-448.398 "/>
<path fill="none" stroke="white" stroke-width="2" d="M489.344,-448.398C489.344,-454.398 483.344,-460.398 477.344,-460.398"/>
<text text-anchor="middle" x="462.344" y="-439.898" font-family="Helvetica,sans-Serif" font-size="10.00">OVOL1</text>
</a>
</g>
<!-- ZNF711_TFAP2A_TFAP2D&#45;&gt;OVOL1 -->
<g id="edge6" class="edge"><title>ZNF711_TFAP2A_TFAP2D&#45;&gt;OVOL1</title>
<a xlink:title="OVOL1: 1.347||remove30">
<path fill="none" stroke="#c13dff" stroke-width="3" d="M343.084,-36.2359C362.816,-103.438 431.52,-337.423 454.665,-416.247"/>
<polygon fill="#c13dff" stroke="#c13dff" points="452.069,-417.343 457.009,-424.23 457.442,-415.765 452.069,-417.343"/>
</a>
</g>
<!-- RCOR1_MTA3 -->
<g id="node7" class="node"><title>RCOR1_MTA3</title>
<a xlink:href="RCOR1_MTA3.svg" xlink:title="Z&#45;value: 1.731||remove40">
<polygon fill="#5d6dff" stroke="#5d6dff" stroke-width="2" points="491.594,-92.9095 433.094,-92.9095 421.094,-80.9095 421.094,-68.9095 433.094,-56.9095 491.594,-56.9095 503.594,-68.9095 503.594,-80.9095 491.594,-92.9095"/>
<path fill="#5d6dff" stroke="#5d6dff" stroke-width="2" d="M433.094,-92.9095C427.094,-92.9095 421.094,-86.9095 421.094,-80.9095"/>
<path fill="#5d6dff" stroke="#5d6dff" stroke-width="2" d="M421.094,-68.9095C421.094,-62.9095 427.094,-56.9095 433.094,-56.9095"/>
<path fill="#5d6dff" stroke="#5d6dff" stroke-width="2" d="M491.594,-56.9095C497.594,-56.9095 503.594,-62.9095 503.594,-68.9095"/>
<path fill="#5d6dff" stroke="#5d6dff" stroke-width="2" d="M503.594,-80.9095C503.594,-86.9095 497.594,-92.9095 491.594,-92.9095"/>
<polyline fill="none" stroke="white" stroke-width="2" points="491.594,-92.9095 433.094,-92.9095 "/>
<path fill="none" stroke="white" stroke-width="2" d="M433.094,-92.9095C427.094,-92.9095 421.094,-86.9095 421.094,-80.9095"/>
<polyline fill="none" stroke="white" stroke-width="2" points="421.094,-80.9095 421.094,-68.9095 "/>
<path fill="none" stroke="white" stroke-width="2" d="M421.094,-68.9095C421.094,-62.9095 427.094,-56.9095 433.094,-56.9095"/>
<polyline fill="none" stroke="white" stroke-width="2" points="433.094,-56.9095 491.594,-56.9095 "/>
<path fill="none" stroke="white" stroke-width="2" d="M491.594,-56.9095C497.594,-56.9095 503.594,-62.9095 503.594,-68.9095"/>
<polyline fill="none" stroke="white" stroke-width="2" points="503.594,-68.9095 503.594,-80.9095 "/>
<path fill="none" stroke="white" stroke-width="2" d="M503.594,-80.9095C503.594,-86.9095 497.594,-92.9095 491.594,-92.9095"/>
<text text-anchor="middle" x="462.344" y="-72.4095" font-family="Helvetica,sans-Serif" font-size="10.00" fill="white">RCOR1_MTA3</text>
</a>
</g>
<!-- ZNF711_TFAP2A_TFAP2D&#45;&gt;RCOR1_MTA3 -->
<g id="edge8" class="edge"><title>ZNF711_TFAP2A_TFAP2D&#45;&gt;RCOR1_MTA3</title>
<a xlink:title="MTA3: 0.723||ZNF711: 0.072||TFAP2D: 0.043||TFAP2A: 0.016||remove31">
<path fill="none" stroke="#d67fff" stroke-width="3" d="M384.872,-38.43C394.915,-43.0165 405.535,-47.8666 415.595,-52.4606"/>
<path fill="none" stroke="#ecc4ff" stroke-width="3" d="M384.041,-40.2493C394.084,-44.8358 404.704,-49.6858 414.764,-54.2799"/>
<polygon fill="#ecc4ff" stroke="#ecc4ff" points="385.598,-36.7829 377.158,-36.0065 383.272,-41.8769 385.598,-36.7829"/>
<polygon fill="#d67fff" stroke="#d67fff" points="414.303,-56.0484 422.744,-56.8248 416.63,-50.9545 414.303,-56.0484"/>
</a>
</g>
<!-- TWIST1_SNAI1 -->
<g id="node9" class="node"><title>TWIST1_SNAI1</title>
<a xlink:href="TWIST1_SNAI1.svg" xlink:title="Z&#45;value: 0.616||remove38">
<polygon fill="#a4adff" stroke="#a4adff" stroke-width="2" points="369.229,-517.308 306.229,-517.308 294.229,-505.308 294.229,-493.308 306.229,-481.308 369.229,-481.308 381.229,-493.308 381.229,-505.308 369.229,-517.308"/>
<path fill="#a4adff" stroke="#a4adff" stroke-width="2" d="M306.229,-517.308C300.229,-517.308 294.229,-511.308 294.229,-505.308"/>
<path fill="#a4adff" stroke="#a4adff" stroke-width="2" d="M294.229,-493.308C294.229,-487.308 300.229,-481.308 306.229,-481.308"/>
<path fill="#a4adff" stroke="#a4adff" stroke-width="2" d="M369.229,-481.308C375.229,-481.308 381.229,-487.308 381.229,-493.308"/>
<path fill="#a4adff" stroke="#a4adff" stroke-width="2" d="M381.229,-505.308C381.229,-511.308 375.229,-517.308 369.229,-517.308"/>
<polyline fill="none" stroke="white" stroke-width="2" points="369.229,-517.308 306.229,-517.308 "/>
<path fill="none" stroke="white" stroke-width="2" d="M306.229,-517.308C300.229,-517.308 294.229,-511.308 294.229,-505.308"/>
<polyline fill="none" stroke="white" stroke-width="2" points="294.229,-505.308 294.229,-493.308 "/>
<path fill="none" stroke="white" stroke-width="2" d="M294.229,-493.308C294.229,-487.308 300.229,-481.308 306.229,-481.308"/>
<polyline fill="none" stroke="white" stroke-width="2" points="306.229,-481.308 369.229,-481.308 "/>
<path fill="none" stroke="white" stroke-width="2" d="M369.229,-481.308C375.229,-481.308 381.229,-487.308 381.229,-493.308"/>
<polyline fill="none" stroke="white" stroke-width="2" points="381.229,-493.308 381.229,-505.308 "/>
<path fill="none" stroke="white" stroke-width="2" d="M381.229,-505.308C381.229,-511.308 375.229,-517.308 369.229,-517.308"/>
<text text-anchor="middle" x="337.729" y="-496.808" font-family="Helvetica,sans-Serif" font-size="10.00">TWIST1_SNAI1</text>
</a>
</g>
<!-- ZNF711_TFAP2A_TFAP2D&#45;&gt;TWIST1_SNAI1 -->
<g id="edge10" class="edge"><title>ZNF711_TFAP2A_TFAP2D&#45;&gt;TWIST1_SNAI1</title>
<a xlink:title="SNAI1: 0.970||TWIST1: 0.025||TFAP2A: 0.201||remove31">
<path fill="none" stroke="#cd65ff" stroke-width="3" d="M338.729,-44.3192C338.729,-128.281 338.729,-389.152 338.729,-473.041"/>
<path fill="none" stroke="#e7b6ff" stroke-width="3" d="M336.729,-44.3192C336.729,-128.281 336.729,-389.152 336.729,-473.041"/>
<polygon fill="#e7b6ff" stroke="#e7b6ff" points="340.529,-44.2801 337.729,-36.2801 334.929,-44.2801 340.529,-44.2801"/>
<polygon fill="#cd65ff" stroke="#cd65ff" points="334.929,-473.266 337.729,-481.266 340.529,-473.266 334.929,-473.266"/>
</a>
</g>
<!-- HOXC6_HOXA7 -->
<g id="node11" class="node"><title>HOXC6_HOXA7</title>
<a xlink:href="HOXC6_HOXA7.svg" xlink:title="Z&#45;value: 0.413||remove33">
<polygon fill="#b1b9ff" stroke="#b1b9ff" stroke-width="2" points="235.129,-497.811 169.129,-497.811 157.129,-485.811 157.129,-473.811 169.129,-461.811 235.129,-461.811 247.129,-473.811 247.129,-485.811 235.129,-497.811"/>
<path fill="#b1b9ff" stroke="#b1b9ff" stroke-width="2" d="M169.129,-497.811C163.129,-497.811 157.129,-491.811 157.129,-485.811"/>
<path fill="#b1b9ff" stroke="#b1b9ff" stroke-width="2" d="M157.129,-473.811C157.129,-467.811 163.129,-461.811 169.129,-461.811"/>
<path fill="#b1b9ff" stroke="#b1b9ff" stroke-width="2" d="M235.129,-461.811C241.129,-461.811 247.129,-467.811 247.129,-473.811"/>
<path fill="#b1b9ff" stroke="#b1b9ff" stroke-width="2" d="M247.129,-485.811C247.129,-491.811 241.129,-497.811 235.129,-497.811"/>
<polyline fill="none" stroke="white" stroke-width="2" points="235.129,-497.811 169.129,-497.811 "/>
<path fill="none" stroke="white" stroke-width="2" d="M169.129,-497.811C163.129,-497.811 157.129,-491.811 157.129,-485.811"/>
<polyline fill="none" stroke="white" stroke-width="2" points="157.129,-485.811 157.129,-473.811 "/>
<path fill="none" stroke="white" stroke-width="2" d="M157.129,-473.811C157.129,-467.811 163.129,-461.811 169.129,-461.811"/>
<polyline fill="none" stroke="white" stroke-width="2" points="169.129,-461.811 235.129,-461.811 "/>
<path fill="none" stroke="white" stroke-width="2" d="M235.129,-461.811C241.129,-461.811 247.129,-467.811 247.129,-473.811"/>
<polyline fill="none" stroke="white" stroke-width="2" points="247.129,-473.811 247.129,-485.811 "/>
<path fill="none" stroke="white" stroke-width="2" d="M247.129,-485.811C247.129,-491.811 241.129,-497.811 235.129,-497.811"/>
<text text-anchor="middle" x="202.129" y="-477.311" font-family="Helvetica,sans-Serif" font-size="10.00">HOXC6_HOXA7</text>
</a>
</g>
<!-- ZNF711_TFAP2A_TFAP2D&#45;&gt;HOXC6_HOXA7 -->
<g id="edge12" class="edge"><title>ZNF711_TFAP2A_TFAP2D&#45;&gt;HOXC6_HOXA7</title>
<a xlink:title="HOXC6: 0.285||remove26root">
<path fill="none" stroke="#e5adff" stroke-width="3" d="M332.191,-36.2142C320.77,-73.8335 293.824,-162.866 271.808,-237.774 248.757,-316.205 222.213,-409.163 209.571,-453.603"/>
<polygon fill="#e5adff" stroke="#e5adff" points="206.8,-453.113 207.305,-461.574 212.186,-454.644 206.8,-453.113"/>
</a>
</g>
<!-- BHLHE40 -->
<g id="node13" class="node"><title>BHLHE40</title>
<a xlink:href="BHLHE40.svg" xlink:title="Z&#45;value: 0.505||remove27">
<polygon fill="#abb3ff" stroke="#abb3ff" stroke-width="2" points="116.846,-408.099 80.3458,-408.099 68.3458,-396.099 68.3458,-384.099 80.3458,-372.099 116.846,-372.099 128.846,-384.099 128.846,-396.099 116.846,-408.099"/>
<path fill="#abb3ff" stroke="#abb3ff" stroke-width="2" d="M80.3458,-408.099C74.3458,-408.099 68.3458,-402.099 68.3458,-396.099"/>
<path fill="#abb3ff" stroke="#abb3ff" stroke-width="2" d="M68.3458,-384.099C68.3458,-378.099 74.3458,-372.099 80.3458,-372.099"/>
<path fill="#abb3ff" stroke="#abb3ff" stroke-width="2" d="M116.846,-372.099C122.846,-372.099 128.846,-378.099 128.846,-384.099"/>
<path fill="#abb3ff" stroke="#abb3ff" stroke-width="2" d="M128.846,-396.099C128.846,-402.099 122.846,-408.099 116.846,-408.099"/>
<polyline fill="none" stroke="white" stroke-width="2" points="116.846,-408.099 80.3458,-408.099 "/>
<path fill="none" stroke="white" stroke-width="2" d="M80.3458,-408.099C74.3458,-408.099 68.3458,-402.099 68.3458,-396.099"/>
<polyline fill="none" stroke="white" stroke-width="2" points="68.3458,-396.099 68.3458,-384.099 "/>
<path fill="none" stroke="white" stroke-width="2" d="M68.3458,-384.099C68.3458,-378.099 74.3458,-372.099 80.3458,-372.099"/>
<polyline fill="none" stroke="white" stroke-width="2" points="80.3458,-372.099 116.846,-372.099 "/>
<path fill="none" stroke="white" stroke-width="2" d="M116.846,-372.099C122.846,-372.099 128.846,-378.099 128.846,-384.099"/>
<polyline fill="none" stroke="white" stroke-width="2" points="128.846,-384.099 128.846,-396.099 "/>
<path fill="none" stroke="white" stroke-width="2" d="M128.846,-396.099C128.846,-402.099 122.846,-408.099 116.846,-408.099"/>
<text text-anchor="middle" x="98.5958" y="-387.599" font-family="Helvetica,sans-Serif" font-size="10.00">BHLHE40</text>
</a>
</g>
<!-- ZNF711_TFAP2A_TFAP2D&#45;&gt;BHLHE40 -->
<g id="edge14" class="edge"><title>ZNF711_TFAP2A_TFAP2D&#45;&gt;BHLHE40</title>
<a xlink:title="BHLHE40: 0.226||remove21root">
<path fill="none" stroke="#e7b4ff" stroke-width="3" d="M326.033,-36.199C286.779,-97.2805 159.671,-295.063 114.614,-365.174"/>
<polygon fill="#e7b4ff" stroke="#e7b4ff" points="112.239,-363.691 110.269,-371.935 116.95,-366.719 112.239,-363.691"/>
</a>
</g>
<!-- MAZ_ZNF281_GTF2F1 -->
<g id="node15" class="node"><title>MAZ_ZNF281_GTF2F1</title>
<a xlink:href="MAZ_ZNF281_GTF2F1.svg" xlink:title="Z&#45;value: 1.186||remove32">
<polygon fill="#7f8cff" stroke="#7f8cff" stroke-width="2" points="583.659,-208.157 489.159,-208.157 477.159,-196.157 477.159,-184.157 489.159,-172.157 583.659,-172.157 595.659,-184.157 595.659,-196.157 583.659,-208.157"/>
<path fill="#7f8cff" stroke="#7f8cff" stroke-width="2" d="M489.159,-208.157C483.159,-208.157 477.159,-202.157 477.159,-196.157"/>
<path fill="#7f8cff" stroke="#7f8cff" stroke-width="2" d="M477.159,-184.157C477.159,-178.157 483.159,-172.157 489.159,-172.157"/>
<path fill="#7f8cff" stroke="#7f8cff" stroke-width="2" d="M583.659,-172.157C589.659,-172.157 595.659,-178.157 595.659,-184.157"/>
<path fill="#7f8cff" stroke="#7f8cff" stroke-width="2" d="M595.659,-196.157C595.659,-202.157 589.659,-208.157 583.659,-208.157"/>
<polyline fill="none" stroke="white" stroke-width="2" points="583.659,-208.157 489.159,-208.157 "/>
<path fill="none" stroke="white" stroke-width="2" d="M489.159,-208.157C483.159,-208.157 477.159,-202.157 477.159,-196.157"/>
<polyline fill="none" stroke="white" stroke-width="2" points="477.159,-196.157 477.159,-184.157 "/>
<path fill="none" stroke="white" stroke-width="2" d="M477.159,-184.157C477.159,-178.157 483.159,-172.157 489.159,-172.157"/>
<polyline fill="none" stroke="white" stroke-width="2" points="489.159,-172.157 583.659,-172.157 "/>
<path fill="none" stroke="white" stroke-width="2" d="M583.659,-172.157C589.659,-172.157 595.659,-178.157 595.659,-184.157"/>
<polyline fill="none" stroke="white" stroke-width="2" points="595.659,-184.157 595.659,-196.157 "/>
<path fill="none" stroke="white" stroke-width="2" d="M595.659,-196.157C595.659,-202.157 589.659,-208.157 583.659,-208.157"/>
<text text-anchor="middle" x="536.409" y="-187.657" font-family="Helvetica,sans-Serif" font-size="10.00">MAZ_ZNF281_GTF2F1</text>
</a>
</g>
<!-- ZNF711_TFAP2A_TFAP2D&#45;&gt;MAZ_ZNF281_GTF2F1 -->
<g id="edge16" class="edge"><title>ZNF711_TFAP2A_TFAP2D&#45;&gt;MAZ_ZNF281_GTF2F1</title>
<a xlink:title="MAZ: 1.281||ZNF281: 0.359||GTF2F1: 0.015||ZNF711: 0.008||remove31">
<path fill="none" stroke="#c344ff" stroke-width="3" d="M360.721,-41.6252C375.553,-57.3962 395.785,-78.1136 414.867,-95.0415 444.074,-120.959 479.693,-147.992 504.893,-166.424"/>
<path fill="none" stroke="#eecbff" stroke-width="3" d="M359.264,-42.9953C374.122,-58.7935 394.354,-79.5109 413.54,-96.5375 442.865,-122.553 478.483,-149.585 503.712,-168.038"/>
<polygon fill="#eecbff" stroke="#eecbff" points="361.889,-40.2385 354.381,-36.3054 357.797,-44.0622 361.889,-40.2385"/>
<polygon fill="#c344ff" stroke="#c344ff" points="502.685,-169.517 510.801,-171.962 505.981,-164.99 502.685,-169.517"/>
</a>
</g>
<!-- ETV1_ERF_FEV_ELF1 -->
<g id="node17" class="node"><title>ETV1_ERF_FEV_ELF1</title>
<a xlink:href="ETV1_ERF_FEV_ELF1.svg" xlink:title="Z&#45;value: 0.994||remove36">
<polygon fill="#8c97ff" stroke="#8c97ff" stroke-width="2" points="107.5,-276.654 12.5,-276.654 0.5,-264.654 0.5,-252.654 12.5,-240.654 107.5,-240.654 119.5,-252.654 119.5,-264.654 107.5,-276.654"/>
<path fill="#8c97ff" stroke="#8c97ff" stroke-width="2" d="M12.5,-276.654C6.5,-276.654 0.5,-270.654 0.5,-264.654"/>
<path fill="#8c97ff" stroke="#8c97ff" stroke-width="2" d="M0.5,-252.654C0.5,-246.654 6.5,-240.654 12.5,-240.654"/>
<path fill="#8c97ff" stroke="#8c97ff" stroke-width="2" d="M107.5,-240.654C113.5,-240.654 119.5,-246.654 119.5,-252.654"/>
<path fill="#8c97ff" stroke="#8c97ff" stroke-width="2" d="M119.5,-264.654C119.5,-270.654 113.5,-276.654 107.5,-276.654"/>
<polyline fill="none" stroke="white" stroke-width="2" points="107.5,-276.654 12.5,-276.654 "/>
<path fill="none" stroke="white" stroke-width="2" d="M12.5,-276.654C6.5,-276.654 0.5,-270.654 0.5,-264.654"/>
<polyline fill="none" stroke="white" stroke-width="2" points="0.5,-264.654 0.5,-252.654 "/>
<path fill="none" stroke="white" stroke-width="2" d="M0.5,-252.654C0.5,-246.654 6.5,-240.654 12.5,-240.654"/>
<polyline fill="none" stroke="white" stroke-width="2" points="12.5,-240.654 107.5,-240.654 "/>
<path fill="none" stroke="white" stroke-width="2" d="M107.5,-240.654C113.5,-240.654 119.5,-246.654 119.5,-252.654"/>
<polyline fill="none" stroke="white" stroke-width="2" points="119.5,-252.654 119.5,-264.654 "/>
<path fill="none" stroke="white" stroke-width="2" d="M119.5,-264.654C119.5,-270.654 113.5,-276.654 107.5,-276.654"/>
<text text-anchor="middle" x="60" y="-256.154" font-family="Helvetica,sans-Serif" font-size="10.00">ETV1_ERF_FEV_ELF1</text>
</a>
</g>
<!-- ZNF711_TFAP2A_TFAP2D&#45;&gt;ETV1_ERF_FEV_ELF1 -->
<g id="edge18" class="edge"><title>ZNF711_TFAP2A_TFAP2D&#45;&gt;ETV1_ERF_FEV_ELF1</title>
<a xlink:title="ELF1: 0.900||FEV: 0.282||ETV1: 0.042||ERF: 0.041||remove31">
<path fill="none" stroke="#d06cff" stroke-width="3" d="M316.854,-36.0881C267.295,-79.0317 142.566,-187.11 87.2009,-235.084"/>
<polygon fill="#d06cff" stroke="#d06cff" points="85.3295,-233.001 81.1171,-240.356 88.9967,-237.233 85.3295,-233.001"/>
</a>
</g>
<!-- WT1_MTF1_ZBTB7B -->
<g id="node19" class="node"><title>WT1_MTF1_ZBTB7B</title>
<a xlink:href="WT1_MTF1_ZBTB7B.svg" xlink:title="Z&#45;value: 0.561||remove37">
<polygon fill="#a8b0ff" stroke="#a8b0ff" stroke-width="2" points="141.846,-145.209 55.3458,-145.209 43.3458,-133.209 43.3458,-121.209 55.3458,-109.209 141.846,-109.209 153.846,-121.209 153.846,-133.209 141.846,-145.209"/>
<path fill="#a8b0ff" stroke="#a8b0ff" stroke-width="2" d="M55.3458,-145.209C49.3458,-145.209 43.3458,-139.209 43.3458,-133.209"/>
<path fill="#a8b0ff" stroke="#a8b0ff" stroke-width="2" d="M43.3458,-121.209C43.3458,-115.209 49.3458,-109.209 55.3458,-109.209"/>
<path fill="#a8b0ff" stroke="#a8b0ff" stroke-width="2" d="M141.846,-109.209C147.846,-109.209 153.846,-115.209 153.846,-121.209"/>
<path fill="#a8b0ff" stroke="#a8b0ff" stroke-width="2" d="M153.846,-133.209C153.846,-139.209 147.846,-145.209 141.846,-145.209"/>
<polyline fill="none" stroke="white" stroke-width="2" points="141.846,-145.209 55.3458,-145.209 "/>
<path fill="none" stroke="white" stroke-width="2" d="M55.3458,-145.209C49.3458,-145.209 43.3458,-139.209 43.3458,-133.209"/>
<polyline fill="none" stroke="white" stroke-width="2" points="43.3458,-133.209 43.3458,-121.209 "/>
<path fill="none" stroke="white" stroke-width="2" d="M43.3458,-121.209C43.3458,-115.209 49.3458,-109.209 55.3458,-109.209"/>
<polyline fill="none" stroke="white" stroke-width="2" points="55.3458,-109.209 141.846,-109.209 "/>
<path fill="none" stroke="white" stroke-width="2" d="M141.846,-109.209C147.846,-109.209 153.846,-115.209 153.846,-121.209"/>
<polyline fill="none" stroke="white" stroke-width="2" points="153.846,-121.209 153.846,-133.209 "/>
<path fill="none" stroke="white" stroke-width="2" d="M153.846,-133.209C153.846,-139.209 147.846,-145.209 141.846,-145.209"/>
<text text-anchor="middle" x="98.5958" y="-124.709" font-family="Helvetica,sans-Serif" font-size="10.00">WT1_MTF1_ZBTB7B</text>
</a>
</g>
<!-- ZNF711_TFAP2A_TFAP2D&#45;&gt;WT1_MTF1_ZBTB7B -->
<g id="edge20" class="edge"><title>ZNF711_TFAP2A_TFAP2D&#45;&gt;WT1_MTF1_ZBTB7B</title>
<a xlink:title="ZBTB7B: 0.183||WT1: 0.019||TFAP2A: 0.032||remove18root">
<path fill="none" stroke="#e8b8ff" stroke-width="3" d="M293.403,-40.5454C280.578,-46.6729 266.563,-53.2992 253.588,-59.2844 218.411,-75.5115 178.473,-93.2791 148,-106.7"/>
<path fill="none" stroke="#edc8ff" stroke-width="3" d="M292.541,-38.7408C279.723,-44.8648 265.708,-51.491 252.75,-57.4683 217.598,-73.6841 177.66,-91.4517 147.194,-104.87"/>
<polygon fill="#edc8ff" stroke="#edc8ff" points="294.359,-42.0832 300.366,-36.1028 291.941,-37.0324 294.359,-42.0832"/>
<polygon fill="#e8b8ff" stroke="#e8b8ff" points="146.258,-103.315 140.063,-109.1 148.513,-108.441 146.258,-103.315"/>
</a>
</g>
<!-- HNF1A_HNF1B -->
<g id="node21" class="node"><title>HNF1A_HNF1B</title>
<a xlink:href="HNF1A_HNF1B.svg" xlink:title="Z&#45;value: 0.567||remove34">
<polygon fill="#a7b0ff" stroke="#a7b0ff" stroke-width="2" points="233.629,-55.4963 170.629,-55.4963 158.629,-43.4963 158.629,-31.4963 170.629,-19.4963 233.629,-19.4963 245.629,-31.4963 245.629,-43.4963 233.629,-55.4963"/>
<path fill="#a7b0ff" stroke="#a7b0ff" stroke-width="2" d="M170.629,-55.4963C164.629,-55.4963 158.629,-49.4963 158.629,-43.4963"/>
<path fill="#a7b0ff" stroke="#a7b0ff" stroke-width="2" d="M158.629,-31.4963C158.629,-25.4963 164.629,-19.4963 170.629,-19.4963"/>
<path fill="#a7b0ff" stroke="#a7b0ff" stroke-width="2" d="M233.629,-19.4963C239.629,-19.4963 245.629,-25.4963 245.629,-31.4963"/>
<path fill="#a7b0ff" stroke="#a7b0ff" stroke-width="2" d="M245.629,-43.4963C245.629,-49.4963 239.629,-55.4963 233.629,-55.4963"/>
<polyline fill="none" stroke="white" stroke-width="2" points="233.629,-55.4963 170.629,-55.4963 "/>
<path fill="none" stroke="white" stroke-width="2" d="M170.629,-55.4963C164.629,-55.4963 158.629,-49.4963 158.629,-43.4963"/>
<polyline fill="none" stroke="white" stroke-width="2" points="158.629,-43.4963 158.629,-31.4963 "/>
<path fill="none" stroke="white" stroke-width="2" d="M158.629,-31.4963C158.629,-25.4963 164.629,-19.4963 170.629,-19.4963"/>
<polyline fill="none" stroke="white" stroke-width="2" points="170.629,-19.4963 233.629,-19.4963 "/>
<path fill="none" stroke="white" stroke-width="2" d="M233.629,-19.4963C239.629,-19.4963 245.629,-25.4963 245.629,-31.4963"/>
<polyline fill="none" stroke="white" stroke-width="2" points="245.629,-31.4963 245.629,-43.4963 "/>
<path fill="none" stroke="white" stroke-width="2" d="M245.629,-43.4963C245.629,-49.4963 239.629,-55.4963 233.629,-55.4963"/>
<text text-anchor="middle" x="202.129" y="-34.9963" font-family="Helvetica,sans-Serif" font-size="10.00">HNF1A_HNF1B</text>
</a>
</g>
<!-- ZNF711_TFAP2A_TFAP2D&#45;&gt;HNF1A_HNF1B -->
<g id="edge22" class="edge"><title>ZNF711_TFAP2A_TFAP2D&#45;&gt;HNF1A_HNF1B</title>
<a xlink:title="HNF1B: 0.048||HNF1A: 0.009||remove7root">
<path fill="none" stroke="#edc6ff" stroke-width="3" d="M268.34,-27.9766C263.698,-28.6441 259.065,-29.3102 254.529,-29.9624"/>
<polygon fill="#edc6ff" stroke="#edc6ff" points="254.009,-27.2083 246.489,-31.1184 254.806,-32.7513 254.009,-27.2083"/>
</a>
</g>
<!-- ZEB1 -->
<g id="node23" class="node"><title>ZEB1</title>
<a xlink:href="ZEB1.svg" xlink:title="Z&#45;value: 1.478||remove41">
<polygon fill="#ff6d6d" stroke="#ff6d6d" stroke-width="2" points="318.128,-276.654 288.128,-276.654 276.128,-264.654 276.128,-252.654 288.128,-240.654 318.128,-240.654 330.128,-252.654 330.128,-264.654 318.128,-276.654"/>
<path fill="#ff6d6d" stroke="#ff6d6d" stroke-width="2" d="M288.128,-276.654C282.128,-276.654 276.128,-270.654 276.128,-264.654"/>
<path fill="#ff6d6d" stroke="#ff6d6d" stroke-width="2" d="M276.128,-252.654C276.128,-246.654 282.128,-240.654 288.128,-240.654"/>
<path fill="#ff6d6d" stroke="#ff6d6d" stroke-width="2" d="M318.128,-240.654C324.128,-240.654 330.128,-246.654 330.128,-252.654"/>
<path fill="#ff6d6d" stroke="#ff6d6d" stroke-width="2" d="M330.128,-264.654C330.128,-270.654 324.128,-276.654 318.128,-276.654"/>
<polyline fill="none" stroke="white" stroke-width="2" points="318.128,-276.654 288.128,-276.654 "/>
<path fill="none" stroke="white" stroke-width="2" d="M288.128,-276.654C282.128,-276.654 276.128,-270.654 276.128,-264.654"/>
<polyline fill="none" stroke="white" stroke-width="2" points="276.128,-264.654 276.128,-252.654 "/>
<path fill="none" stroke="white" stroke-width="2" d="M276.128,-252.654C276.128,-246.654 282.128,-240.654 288.128,-240.654"/>
<polyline fill="none" stroke="white" stroke-width="2" points="288.128,-240.654 318.128,-240.654 "/>
<path fill="none" stroke="white" stroke-width="2" d="M318.128,-240.654C324.128,-240.654 330.128,-246.654 330.128,-252.654"/>
<polyline fill="none" stroke="white" stroke-width="2" points="330.128,-252.654 330.128,-264.654 "/>
<path fill="none" stroke="white" stroke-width="2" d="M330.128,-264.654C330.128,-270.654 324.128,-276.654 318.128,-276.654"/>
<text text-anchor="middle" x="303.128" y="-256.154" font-family="Helvetica,sans-Serif" font-size="10.00" fill="white">ZEB1</text>
</a>
</g>
<!-- ZNF711_TFAP2A_TFAP2D&#45;&gt;ZEB1 -->
<g id="edge24" class="edge"><title>ZNF711_TFAP2A_TFAP2D&#45;&gt;ZEB1</title>
<a xlink:title="ZEB1: 0.050||TFAP2A: 0.386||ZNF711: 0.137||remove31root">
<path fill="none" stroke="#c6ccff" stroke-width="3" d="M334.979,-44.1548C328.343,-90.3087 314.581,-186.024 307.909,-232.43"/>
<path fill="none" stroke="#ffa3a3" stroke-width="3" d="M332.999,-43.8702C326.363,-90.0241 312.602,-185.74 305.93,-232.145"/>
<polygon fill="#ffa3a3" stroke="#ffa3a3" points="336.761,-44.4052 335.129,-36.0881 331.218,-43.6082 336.761,-44.4052"/>
<polygon fill="#c6ccff" stroke="#c6ccff" points="304.126,-232.039 305.759,-240.356 309.669,-232.836 304.126,-232.039"/>
</a>
</g>
<!-- LHX6&#45;&gt;ETV1_ERF_FEV_ELF1 -->
<g id="edge94" class="edge"><title>LHX6&#45;&gt;ETV1_ERF_FEV_ELF1</title>
<a xlink:title="ETV1: 0.064||ELF1: 0.058||remove10root">
<path fill="none" stroke="#ecc5ff" stroke-width="3" d="M509.084,-323.222C435.956,-312.708 234.128,-283.69 127.705,-268.388"/>
<polygon fill="#ecc5ff" stroke="#ecc5ff" points="127.903,-265.588 119.586,-267.221 127.106,-271.131 127.903,-265.588"/>
</a>
</g>
<!-- RCOR1_MTA3&#45;&gt;LHX6 -->
<g id="edge42" class="edge"><title>RCOR1_MTA3&#45;&gt;LHX6</title>
<a xlink:title="LHX6: 0.313||remove28root">
<path fill="none" stroke="#e4aaff" stroke-width="3" d="M460.231,-92.9825C457.748,-119.494 455.352,-170.205 467.389,-211.037 477.484,-245.284 499.984,-279.865 516.563,-302.27"/>
<polygon fill="#e4aaff" stroke="#e4aaff" points="514.447,-304.115 521.498,-308.819 518.919,-300.744 514.447,-304.115"/>
</a>
</g>
<!-- RCOR1_MTA3&#45;&gt;RCOR1_MTA3 -->
<g id="edge44" class="edge"><title>RCOR1_MTA3&#45;&gt;RCOR1_MTA3</title>
<a xlink:title="RCOR1: 1.276||remove39root">
<path fill="none" stroke="#c344ff" stroke-width="3" d="M503.698,-81.5541C513.815,-81.0619 521.344,-78.847 521.344,-74.9095 521.344,-72.141 517.622,-70.2241 511.895,-69.1588"/>
<polygon fill="#c344ff" stroke="#c344ff" points="511.955,-66.3488 503.698,-68.265 511.348,-71.9158 511.955,-66.3488"/>
</a>
</g>
<!-- RCOR1_MTA3&#45;&gt;TWIST1_SNAI1 -->
<g id="edge46" class="edge"><title>RCOR1_MTA3&#45;&gt;TWIST1_SNAI1</title>
<a xlink:title="TWIST1: 0.254||remove23root">
<path fill="none" stroke="#e6b1ff" stroke-width="3" d="M456.989,-93.1454C437.257,-160.347 368.553,-394.333 345.408,-473.157"/>
<polygon fill="#e6b1ff" stroke="#e6b1ff" points="342.631,-472.675 343.064,-481.14 348.004,-474.253 342.631,-472.675"/>
</a>
</g>
<!-- RCOR1_MTA3&#45;&gt;HOXC6_HOXA7 -->
<g id="edge48" class="edge"><title>RCOR1_MTA3&#45;&gt;HOXC6_HOXA7</title>
<a xlink:title="HOXA7: 0.082||remove13root">
<path fill="none" stroke="#ebc3ff" stroke-width="3" d="M451.205,-93.0719C429.18,-128.906 378.39,-211.164 334.448,-279.534 293.68,-342.966 244.441,-416.78 219.071,-454.613"/>
<polygon fill="#ebc3ff" stroke="#ebc3ff" points="216.457,-453.483 214.325,-461.686 221.108,-456.604 216.457,-453.483"/>
</a>
</g>
<!-- RCOR1_MTA3&#45;&gt;ETV1_ERF_FEV_ELF1 -->
<g id="edge50" class="edge"><title>RCOR1_MTA3&#45;&gt;ETV1_ERF_FEV_ELF1</title>
<a xlink:title="ERF: 0.033||remove4root">
<path fill="none" stroke="#edc8ff" stroke-width="3" d="M422.664,-93.0305C348.05,-127.106 187.169,-200.578 107.163,-237.115"/>
<polygon fill="#edc8ff" stroke="#edc8ff" points="105.793,-234.663 99.679,-240.533 108.119,-239.757 105.793,-234.663"/>
</a>
</g>
<!-- RCOR1_MTA3&#45;&gt;WT1_MTF1_ZBTB7B -->
<g id="edge52" class="edge"><title>RCOR1_MTA3&#45;&gt;WT1_MTF1_ZBTB7B</title>
<a xlink:title="ZBTB7B: 0.132||MTF1: 0.002||MTA3: 0.100||remove16root">
<path fill="none" stroke="#eabeff" stroke-width="3" d="M413.143,-82.9938C348.062,-92.351 233.452,-108.83 162.05,-119.096"/>
<path fill="none" stroke="#ebc1ff" stroke-width="3" d="M412.858,-81.0142C347.778,-90.3714 233.167,-106.85 161.765,-117.116"/>
<polygon fill="#ebc1ff" stroke="#ebc1ff" points="413.451,-84.7681 420.971,-80.858 412.654,-79.2251 413.451,-84.7681"/>
<polygon fill="#eabeff" stroke="#eabeff" points="161.37,-115.354 153.85,-119.264 162.167,-120.897 161.37,-115.354"/>
</a>
</g>
<!-- RCOR1_MTA3&#45;&gt;HNF1A_HNF1B -->
<g id="edge54" class="edge"><title>RCOR1_MTA3&#45;&gt;HNF1A_HNF1B</title>
<a xlink:title="HNF1A: 0.222||HNF1B: 0.113||remove20root">
<path fill="none" stroke="#e7b4ff" stroke-width="3" d="M420.824,-68.9399C375.427,-62.4127 302.626,-51.9456 253.624,-44.9002"/>
<polygon fill="#e7b4ff" stroke="#e7b4ff" points="253.988,-42.1238 245.671,-43.7567 253.191,-47.6668 253.988,-42.1238"/>
</a>
</g>
<!-- RCOR1_MTA3&#45;&gt;ZEB1 -->
<g id="edge56" class="edge"><title>RCOR1_MTA3&#45;&gt;ZEB1</title>
<a xlink:title="ZEB1: 1.445||MTA3: 0.121||remove40root">
<path fill="none" stroke="#3247ff" stroke-width="3" d="M441.932,-99.9925C411.454,-135.167 355.53,-199.706 325.051,-234.88"/>
<path fill="none" stroke="#ffbfbf" stroke-width="3" d="M440.421,-98.6828C409.942,-133.857 354.018,-198.397 323.54,-233.571"/>
<polygon fill="#ffbfbf" stroke="#ffbfbf" points="443.373,-101.079 446.496,-93.1994 439.14,-97.4118 443.373,-101.079"/>
<polygon fill="#3247ff" stroke="#3247ff" points="322.035,-232.558 318.913,-240.438 326.268,-236.225 322.035,-232.558"/>
</a>
</g>
<!-- TWIST1_SNAI1&#45;&gt;LHX6 -->
<g id="edge78" class="edge"><title>TWIST1_SNAI1&#45;&gt;LHX6</title>
<a xlink:title="LHX6: 0.071||remove12root">
<path fill="none" stroke="#ecc4ff" stroke-width="3" d="M358.616,-481.209C394.836,-449.824 469.26,-385.336 509.372,-350.579"/>
<polygon fill="#ecc4ff" stroke="#ecc4ff" points="511.291,-352.62 515.504,-345.265 507.624,-348.388 511.291,-352.62"/>
</a>
</g>
<!-- TWIST1_SNAI1&#45;&gt;WT1_MTF1_ZBTB7B -->
<g id="edge80" class="edge"><title>TWIST1_SNAI1&#45;&gt;WT1_MTF1_ZBTB7B</title>
<a xlink:title="ZBTB7B: 0.057||remove9root">
<path fill="none" stroke="#ecc5ff" stroke-width="3" d="M326.033,-481.109C286.779,-420.027 159.671,-222.244 114.614,-152.134"/>
<polygon fill="#ecc5ff" stroke="#ecc5ff" points="116.95,-150.589 110.269,-145.373 112.239,-153.616 116.95,-150.589"/>
</a>
</g>
<!-- MAZ_ZNF281_GTF2F1&#45;&gt;LHX6 -->
<g id="edge26" class="edge"><title>MAZ_ZNF281_GTF2F1&#45;&gt;LHX6</title>
<a xlink:title="LHX6: 0.234||remove22root">
<path fill="none" stroke="#e6b3ff" stroke-width="3" d="M536.409,-208.348C536.409,-231.992 536.409,-273.456 536.409,-300.611"/>
<polygon fill="#e6b3ff" stroke="#e6b3ff" points="533.609,-300.884 536.409,-308.884 539.209,-300.884 533.609,-300.884"/>
</a>
</g>
<!-- MAZ_ZNF281_GTF2F1&#45;&gt;RCOR1_MTA3 -->
<g id="edge28" class="edge"><title>MAZ_ZNF281_GTF2F1&#45;&gt;RCOR1_MTA3</title>
<a xlink:title="RCOR1: 0.132||MTA3: 0.104||MAZ: 0.067||remove15root">
<path fill="none" stroke="#eabeff" stroke-width="3" d="M519.515,-165.719C507.104,-146.408 490.002,-119.796 477.584,-100.474"/>
<path fill="none" stroke="#ecc4ff" stroke-width="3" d="M521.197,-164.638C508.787,-145.327 491.685,-118.715 479.267,-99.3923"/>
<polygon fill="#ecc4ff" stroke="#ecc4ff" points="518.155,-166.933 524.836,-172.149 522.866,-163.905 518.155,-166.933"/>
<polygon fill="#eabeff" stroke="#eabeff" points="480.76,-98.387 474.08,-93.1708 476.049,-101.415 480.76,-98.387"/>
</a>
</g>
<!-- MAZ_ZNF281_GTF2F1&#45;&gt;TWIST1_SNAI1 -->
<g id="edge30" class="edge"><title>MAZ_ZNF281_GTF2F1&#45;&gt;TWIST1_SNAI1</title>
<a xlink:title="TWIST1: 0.136||remove17root">
<path fill="none" stroke="#eabdff" stroke-width="3" d="M524.575,-208.57C490.619,-261.407 392.814,-413.595 353.941,-474.082"/>
<polygon fill="#eabdff" stroke="#eabdff" points="351.47,-472.747 349.501,-480.991 356.181,-475.775 351.47,-472.747"/>
</a>
</g>
<!-- MAZ_ZNF281_GTF2F1&#45;&gt;MAZ_ZNF281_GTF2F1 -->
<g id="edge32" class="edge"><title>MAZ_ZNF281_GTF2F1&#45;&gt;MAZ_ZNF281_GTF2F1</title>
<a xlink:title="MAZ: 0.032||remove3root">
<path fill="none" stroke="#edc8ff" stroke-width="3" d="M595.813,-196.485C606.19,-195.641 613.409,-193.532 613.409,-190.157 613.409,-187.784 609.84,-186.036 604.114,-184.915"/>
<polygon fill="#edc8ff" stroke="#edc8ff" points="604.109,-182.09 595.813,-183.828 603.382,-187.643 604.109,-182.09"/>
</a>
</g>
<!-- MAZ_ZNF281_GTF2F1&#45;&gt;ETV1_ERF_FEV_ELF1 -->
<g id="edge34" class="edge"><title>MAZ_ZNF281_GTF2F1&#45;&gt;ETV1_ERF_FEV_ELF1</title>
<a xlink:title="ERF: 0.192||GTF2F1: 0.047||remove19root">
<path fill="none" stroke="#e8b7ff" stroke-width="3" d="M469.214,-200.828C378.689,-213.843 218.659,-236.852 127.913,-249.9"/>
<path fill="none" stroke="#edc6ff" stroke-width="3" d="M468.93,-198.848C378.405,-211.864 218.374,-234.873 127.628,-247.92"/>
<polygon fill="#edc6ff" stroke="#edc6ff" points="469.514,-202.603 477.034,-198.693 468.717,-197.06 469.514,-202.603"/>
<polygon fill="#e8b7ff" stroke="#e8b7ff" points="127.267,-246.153 119.747,-250.063 128.064,-251.696 127.267,-246.153"/>
</a>
</g>
<!-- MAZ_ZNF281_GTF2F1&#45;&gt;WT1_MTF1_ZBTB7B -->
<g id="edge36" class="edge"><title>MAZ_ZNF281_GTF2F1&#45;&gt;WT1_MTF1_ZBTB7B</title>
<a xlink:title="WT1: 0.087||MTF1: 0.055||MAZ: 0.280||ZNF281: 0.055||remove25root">
<path fill="none" stroke="#ebc2ff" stroke-width="3" d="M468.597,-181.417C385.032,-169.402 243.952,-149.118 162.224,-137.367"/>
<path fill="none" stroke="#e5aeff" stroke-width="3" d="M468.882,-179.437C385.316,-167.422 244.237,-147.138 162.509,-135.388"/>
<polygon fill="#e5aeff" stroke="#e5aeff" points="468.59,-183.235 476.908,-181.602 469.387,-177.692 468.59,-183.235"/>
<polygon fill="#ebc2ff" stroke="#ebc2ff" points="162.478,-133.565 154.161,-135.198 161.681,-139.108 162.478,-133.565"/>
</a>
</g>
<!-- MAZ_ZNF281_GTF2F1&#45;&gt;HNF1A_HNF1B -->
<g id="edge38" class="edge"><title>MAZ_ZNF281_GTF2F1&#45;&gt;HNF1A_HNF1B</title>
<a xlink:title="HNF1B: 0.032||HNF1A: 0.014||remove2root">
<path fill="none" stroke="#edc8ff" stroke-width="3" d="M496.75,-172.045C434.802,-143.754 315.332,-89.1945 249.145,-58.9678"/>
<polygon fill="#edc8ff" stroke="#edc8ff" points="250.177,-56.3608 241.737,-55.5844 247.85,-61.4547 250.177,-56.3608"/>
</a>
</g>
<!-- MAZ_ZNF281_GTF2F1&#45;&gt;ZEB1 -->
<g id="edge40" class="edge"><title>MAZ_ZNF281_GTF2F1&#45;&gt;ZEB1</title>
<a xlink:title="ZEB1: 0.416||remove32root">
<path fill="none" stroke="#9fa9ff" stroke-width="3" d="M476.939,-207.619C433.014,-220.516 374.719,-237.633 338.06,-248.397"/>
<polygon fill="#9fa9ff" stroke="#9fa9ff" points="337.016,-245.785 330.129,-250.726 338.594,-251.158 337.016,-245.785"/>
</a>
</g>
<!-- ETV1_ERF_FEV_ELF1&#45;&gt;WT1_MTF1_ZBTB7B -->
<g id="edge58" class="edge"><title>ETV1_ERF_FEV_ELF1&#45;&gt;WT1_MTF1_ZBTB7B</title>
<a xlink:title="MTF1: 0.012||ELF1: 0.122||ERF: 0.081||FEV: 0.007||ETV1: 0.004||remove14root">
<path fill="none" stroke="#eecaff" stroke-width="3" d="M66.6368,-232.501C73.4065,-209.446 83.2628,-175.879 90.0342,-152.817"/>
<path fill="none" stroke="#eabfff" stroke-width="3" d="M68.5558,-233.065C75.3255,-210.009 85.1818,-176.442 91.9532,-153.381"/>
<polygon fill="#eabfff" stroke="#eabfff" points="64.853,-232.188 65.2857,-240.652 70.2262,-233.765 64.853,-232.188"/>
<polygon fill="#eecaff" stroke="#eecaff" points="93.6828,-153.879 93.2501,-145.414 88.3096,-152.301 93.6828,-153.879"/>
</a>
</g>
<!-- WT1_MTF1_ZBTB7B&#45;&gt;LHX6 -->
<g id="edge84" class="edge"><title>WT1_MTF1_ZBTB7B&#45;&gt;LHX6</title>
<a xlink:title="LHX6: 0.032||remove1root">
<path fill="none" stroke="#edc8ff" stroke-width="3" d="M138.221,-145.305C223.151,-184.091 421.509,-274.678 501.775,-311.335"/>
<polygon fill="#edc8ff" stroke="#edc8ff" points="500.727,-313.934 509.167,-314.71 503.053,-308.84 500.727,-313.934"/>
</a>
</g>
<!-- WT1_MTF1_ZBTB7B&#45;&gt;HOXC6_HOXA7 -->
<g id="edge86" class="edge"><title>WT1_MTF1_ZBTB7B&#45;&gt;HOXC6_HOXA7</title>
<a xlink:title="HOXA7: 0.037||remove5root">
<path fill="none" stroke="#edc8ff" stroke-width="3" d="M104.016,-145.67C121.209,-204.221 174.553,-385.895 194.5,-453.828"/>
<polygon fill="#edc8ff" stroke="#edc8ff" points="191.822,-454.646 196.762,-461.533 197.195,-453.068 191.822,-454.646"/>
</a>
</g>
<!-- WT1_MTF1_ZBTB7B&#45;&gt;BHLHE40 -->
<g id="edge88" class="edge"><title>WT1_MTF1_ZBTB7B&#45;&gt;BHLHE40</title>
<a xlink:title="BHLHE40: 0.065||remove11root">
<path fill="none" stroke="#ecc5ff" stroke-width="3" d="M106.363,-145.368C117.595,-173.792 136.33,-230.607 129.6,-279.534 125.511,-309.26 115.512,-342.252 107.967,-364.394"/>
<polygon fill="#ecc5ff" stroke="#ecc5ff" points="105.293,-363.558 105.314,-372.034 110.583,-365.395 105.293,-363.558"/>
</a>
</g>
<!-- WT1_MTF1_ZBTB7B&#45;&gt;WT1_MTF1_ZBTB7B -->
<g id="edge90" class="edge"><title>WT1_MTF1_ZBTB7B&#45;&gt;WT1_MTF1_ZBTB7B</title>
<a xlink:title="ZBTB7B: 0.057||WT1: 0.024||remove8root">
<path fill="none" stroke="#ecc5ff" stroke-width="3" d="M153.983,-133.612C164.318,-132.824 171.596,-130.689 171.596,-127.209 171.596,-124.761 167.998,-122.98 162.269,-121.863"/>
<polygon fill="#ecc5ff" stroke="#ecc5ff" points="162.273,-119.041 153.983,-120.805 161.564,-124.596 162.273,-119.041"/>
</a>
</g>
<!-- WT1_MTF1_ZBTB7B&#45;&gt;HNF1A_HNF1B -->
<g id="edge92" class="edge"><title>WT1_MTF1_ZBTB7B&#45;&gt;HNF1A_HNF1B</title>
<a xlink:title="HNF1A: 0.024||remove0root">
<path fill="none" stroke="#edc9ff" stroke-width="3" d="M119.547,-109.054C135.545,-95.1917 157.717,-75.9801 175.059,-60.9532"/>
<polygon fill="#edc9ff" stroke="#edc9ff" points="176.996,-62.979 181.209,-55.624 173.329,-58.7468 176.996,-62.979"/>
</a>
</g>
<!-- HNF1A_HNF1B&#45;&gt;ETV1_ERF_FEV_ELF1 -->
<g id="edge82" class="edge"><title>HNF1A_HNF1B&#45;&gt;ETV1_ERF_FEV_ELF1</title>
<a xlink:title="ELF1: 0.044||remove6root">
<path fill="none" stroke="#edc7ff" stroke-width="3" d="M198.116,-55.7277C192.57,-78.5068 181.139,-118.132 162.976,-148.089 142.588,-181.713 110.768,-213.87 87.8945,-234.749"/>
<polygon fill="#edc7ff" stroke="#edc7ff" points="85.7677,-232.897 81.6973,-240.331 89.5155,-237.058 85.7677,-232.897"/>
</a>
</g>
<!-- ZEB1&#45;&gt;LHX6 -->
<g id="edge60" class="edge"><title>ZEB1&#45;&gt;LHX6</title>
<a xlink:title="LHX6: 0.316||remove29root">
<path fill="none" stroke="#ffaaaa" stroke-width="3" d="M330.345,-266.645C372.838,-279.122 454.901,-303.218 501.625,-316.938"/>
<polygon fill="#ffaaaa" stroke="#ffaaaa" points="500.9,-319.643 509.365,-319.21 502.478,-314.27 500.9,-319.643"/>
</a>
</g>
<!-- ZEB1&#45;&gt;OVOL1 -->
<g id="edge62" class="edge"><title>ZEB1&#45;&gt;OVOL1</title>
<a xlink:title="OVOL1: 0.348||remove30root">
<path fill="none" stroke="#ffa7a7" stroke-width="3" d="M318.977,-276.944C347.826,-310.238 408.916,-380.739 441.249,-418.053"/>
<polygon fill="#ffa7a7" stroke="#ffa7a7" points="439.205,-419.97 446.56,-424.182 443.437,-416.302 439.205,-419.97"/>
</a>
</g>
<!-- ZEB1&#45;&gt;TWIST1_SNAI1 -->
<g id="edge64" class="edge"><title>ZEB1&#45;&gt;TWIST1_SNAI1</title>
<a xlink:title="SNAI1: 0.706||ZEB1: 0.033||remove38root">
<path fill="none" stroke="#ff8181" stroke-width="3" d="M307.858,-284.524C314.494,-330.678 328.256,-426.393 334.928,-472.799"/>
<path fill="none" stroke="#c8cdff" stroke-width="3" d="M305.879,-284.809C312.515,-330.962 326.276,-426.678 332.949,-473.084"/>
<polygon fill="#c8cdff" stroke="#c8cdff" points="309.639,-284.262 305.729,-276.742 304.096,-285.059 309.639,-284.262"/>
<polygon fill="#ff8181" stroke="#ff8181" points="331.188,-473.489 335.098,-481.01 336.731,-472.692 331.188,-473.489"/>
</a>
</g>
<!-- ZEB1&#45;&gt;HOXC6_HOXA7 -->
<g id="edge66" class="edge"><title>ZEB1&#45;&gt;HOXC6_HOXA7</title>
<a xlink:title="HOXC6: 0.436||remove33root">
<path fill="none" stroke="#ff9d9d" stroke-width="3" d="M294.863,-276.752C276.915,-316.053 234.336,-409.289 213.716,-454.44"/>
<polygon fill="#ff9d9d" stroke="#ff9d9d" points="211.143,-453.333 210.367,-461.773 216.237,-455.659 211.143,-453.333"/>
</a>
</g>
<!-- ZEB1&#45;&gt;BHLHE40 -->
<g id="edge68" class="edge"><title>ZEB1&#45;&gt;BHLHE40</title>
<a xlink:title="BHLHE40: 0.304||remove27root">
<path fill="none" stroke="#ffabab" stroke-width="3" d="M275.968,-276.109C239.296,-299.676 173.907,-341.7 133.59,-367.61"/>
<polygon fill="#ffabab" stroke="#ffabab" points="132.071,-365.257 126.855,-371.938 135.099,-369.968 132.071,-365.257"/>
</a>
</g>
<!-- ZEB1&#45;&gt;ETV1_ERF_FEV_ELF1 -->
<g id="edge70" class="edge"><title>ZEB1&#45;&gt;ETV1_ERF_FEV_ELF1</title>
<a xlink:title="ELF1: 0.600||ETV1: 0.053||ERF: 0.035||remove36root">
<path fill="none" stroke="#ff8c8c" stroke-width="3" d="M275.711,-258.654C240.067,-258.654 176.596,-258.654 127.7,-258.654"/>
<polygon fill="#ff8c8c" stroke="#ff8c8c" points="127.677,-255.854 119.677,-258.654 127.677,-261.454 127.677,-255.854"/>
</a>
</g>
<!-- ZEB1&#45;&gt;WT1_MTF1_ZBTB7B -->
<g id="edge72" class="edge"><title>ZEB1&#45;&gt;WT1_MTF1_ZBTB7B</title>
<a xlink:title="ZBTB7B: 0.628||WT1: 0.053||ZEB1: 0.005||remove37root">
<path fill="none" stroke="#ff8989" stroke-width="3" d="M268.29,-237.453C230.766,-213.338 170.931,-174.884 133.11,-150.578"/>
<path fill="none" stroke="#cbd0ff" stroke-width="3" d="M269.371,-235.771C231.847,-211.655 172.012,-173.202 134.191,-148.896"/>
<polygon fill="#cbd0ff" stroke="#cbd0ff" points="267.724,-239.229 275.968,-241.199 270.752,-234.518 267.724,-239.229"/>
<polygon fill="#ff8989" stroke="#ff8989" points="135.099,-147.339 126.855,-145.37 132.071,-152.05 135.099,-147.339"/>
</a>
</g>
<!-- ZEB1&#45;&gt;HNF1A_HNF1B -->
<g id="edge74" class="edge"><title>ZEB1&#45;&gt;HNF1A_HNF1B</title>
<a xlink:title="HNF1B: 0.436||remove34root">
<path fill="none" stroke="#ff9d9d" stroke-width="3" d="M294.863,-240.556C276.915,-201.255 234.336,-108.019 213.716,-62.868"/>
<polygon fill="#ff9d9d" stroke="#ff9d9d" points="216.237,-61.6484 210.367,-55.5345 211.143,-63.9747 216.237,-61.6484"/>
</a>
</g>
<!-- ZEB1&#45;&gt;ZEB1 -->
<g id="edge76" class="edge"><title>ZEB1&#45;&gt;ZEB1</title>
<a xlink:title="ZEB1: 0.449||remove35root">
<path fill="none" stroke="#ff9c9c" stroke-width="3" d="M330.369,-265.397C340.152,-265.542 348.128,-263.294 348.128,-258.654 348.128,-255.391 344.185,-253.311 338.443,-252.414"/>
<polygon fill="#ff9c9c" stroke="#ff9c9c" points="338.528,-249.614 330.369,-251.91 338.179,-255.203 338.528,-249.614"/>
</a>
</g>
</g>
</svg>
