<?xml version="1.0" encoding="UTF-8" standalone="no"?>
<!DOCTYPE svg PUBLIC "-//W3C//DTD SVG 1.1//EN"
 "http://www.w3.org/Graphics/SVG/1.1/DTD/svg11.dtd">
<!-- Generated by graphviz version 2.28.0 (20110630.0925)
 -->
<!-- Title: _anonymous_0 Pages: 1 -->
<svg width="411pt" height="366pt"
 viewBox="0.00 0.00 411.45 366.45" xmlns="http://www.w3.org/2000/svg" xmlns:xlink="http://www.w3.org/1999/xlink">
<g id="graph1" class="graph" transform="scale(1 1) rotate(0) translate(4 362.449)">
<title>_anonymous_0</title>
<polygon fill="white" stroke="white" points="-4,5 -4,-362.449 408.449,-362.449 408.449,5 -4,5"/>
<!-- ESRRA_ESR2 -->
<g id="node1" class="node"><title>ESRRA_ESR2</title>
<a xlink:href="ESRRA_ESR2.svg" xlink:title="Z&#45;value: 3.814||remove26">
<polygon fill="#3247ff" stroke="#3247ff" stroke-width="2" points="260.675,-358.449 202.175,-358.449 190.175,-346.449 190.175,-334.449 202.175,-322.449 260.675,-322.449 272.675,-334.449 272.675,-346.449 260.675,-358.449"/>
<path fill="#3247ff" stroke="#3247ff" stroke-width="2" d="M202.175,-358.449C196.175,-358.449 190.175,-352.449 190.175,-346.449"/>
<path fill="#3247ff" stroke="#3247ff" stroke-width="2" d="M190.175,-334.449C190.175,-328.449 196.175,-322.449 202.175,-322.449"/>
<path fill="#3247ff" stroke="#3247ff" stroke-width="2" d="M260.675,-322.449C266.675,-322.449 272.675,-328.449 272.675,-334.449"/>
<path fill="#3247ff" stroke="#3247ff" stroke-width="2" d="M272.675,-346.449C272.675,-352.449 266.675,-358.449 260.675,-358.449"/>
<polyline fill="none" stroke="white" stroke-width="2" points="260.675,-358.449 202.175,-358.449 "/>
<path fill="none" stroke="white" stroke-width="2" d="M202.175,-358.449C196.175,-358.449 190.175,-352.449 190.175,-346.449"/>
<polyline fill="none" stroke="white" stroke-width="2" points="190.175,-346.449 190.175,-334.449 "/>
<path fill="none" stroke="white" stroke-width="2" d="M190.175,-334.449C190.175,-328.449 196.175,-322.449 202.175,-322.449"/>
<polyline fill="none" stroke="white" stroke-width="2" points="202.175,-322.449 260.675,-322.449 "/>
<path fill="none" stroke="white" stroke-width="2" d="M260.675,-322.449C266.675,-322.449 272.675,-328.449 272.675,-334.449"/>
<polyline fill="none" stroke="white" stroke-width="2" points="272.675,-334.449 272.675,-346.449 "/>
<path fill="none" stroke="white" stroke-width="2" d="M272.675,-346.449C272.675,-352.449 266.675,-358.449 260.675,-358.449"/>
<text text-anchor="middle" x="231.425" y="-337.949" font-family="Helvetica,sans-Serif" font-size="10.00" fill="white">ESRRA_ESR2</text>
</a>
</g>
<!-- PPARG -->
<g id="node2" class="node"><title>PPARG</title>
<a xlink:href="PPARG.svg" xlink:title="Z&#45;value: 0.983||remove13">
<polygon fill="#a4adff" stroke="#a4adff" stroke-width="2" points="364.449,-240.425 334.449,-240.425 322.449,-228.425 322.449,-216.425 334.449,-204.425 364.449,-204.425 376.449,-216.425 376.449,-228.425 364.449,-240.425"/>
<path fill="#a4adff" stroke="#a4adff" stroke-width="2" d="M334.449,-240.425C328.449,-240.425 322.449,-234.425 322.449,-228.425"/>
<path fill="#a4adff" stroke="#a4adff" stroke-width="2" d="M322.449,-216.425C322.449,-210.425 328.449,-204.425 334.449,-204.425"/>
<path fill="#a4adff" stroke="#a4adff" stroke-width="2" d="M364.449,-204.425C370.449,-204.425 376.449,-210.425 376.449,-216.425"/>
<path fill="#a4adff" stroke="#a4adff" stroke-width="2" d="M376.449,-228.425C376.449,-234.425 370.449,-240.425 364.449,-240.425"/>
<polyline fill="none" stroke="white" stroke-width="2" points="364.449,-240.425 334.449,-240.425 "/>
<path fill="none" stroke="white" stroke-width="2" d="M334.449,-240.425C328.449,-240.425 322.449,-234.425 322.449,-228.425"/>
<polyline fill="none" stroke="white" stroke-width="2" points="322.449,-228.425 322.449,-216.425 "/>
<path fill="none" stroke="white" stroke-width="2" d="M322.449,-216.425C322.449,-210.425 328.449,-204.425 334.449,-204.425"/>
<polyline fill="none" stroke="white" stroke-width="2" points="334.449,-204.425 364.449,-204.425 "/>
<path fill="none" stroke="white" stroke-width="2" d="M364.449,-204.425C370.449,-204.425 376.449,-210.425 376.449,-216.425"/>
<polyline fill="none" stroke="white" stroke-width="2" points="376.449,-216.425 376.449,-228.425 "/>
<path fill="none" stroke="white" stroke-width="2" d="M376.449,-228.425C376.449,-234.425 370.449,-240.425 364.449,-240.425"/>
<text text-anchor="middle" x="349.449" y="-219.925" font-family="Helvetica,sans-Serif" font-size="10.00">PPARG</text>
</a>
</g>
<!-- ESRRA_ESR2&#45;&gt;PPARG -->
<g id="edge2" class="edge"><title>ESRRA_ESR2&#45;&gt;PPARG</title>
<a xlink:title="PPARG: 0.222||remove13">
<path fill="none" stroke="#e6b2ff" stroke-width="3" d="M241.377,-322.365C249.366,-308.804 261.445,-290.266 274.929,-276.369 286.863,-264.07 301.884,-252.605 315.308,-243.434"/>
<polygon fill="#e6b2ff" stroke="#e6b2ff" points="317.062,-245.629 322.157,-238.856 313.95,-240.974 317.062,-245.629"/>
</a>
</g>
<!-- ERG -->
<g id="node4" class="node"><title>ERG</title>
<a xlink:href="ERG.svg" xlink:title="Z&#45;value: 0.660||remove21">
<polygon fill="#b1b9ff" stroke="#b1b9ff" stroke-width="2" points="160.025,-358.449 130.025,-358.449 118.025,-346.449 118.025,-334.449 130.025,-322.449 160.025,-322.449 172.025,-334.449 172.025,-346.449 160.025,-358.449"/>
<path fill="#b1b9ff" stroke="#b1b9ff" stroke-width="2" d="M130.025,-358.449C124.025,-358.449 118.025,-352.449 118.025,-346.449"/>
<path fill="#b1b9ff" stroke="#b1b9ff" stroke-width="2" d="M118.025,-334.449C118.025,-328.449 124.025,-322.449 130.025,-322.449"/>
<path fill="#b1b9ff" stroke="#b1b9ff" stroke-width="2" d="M160.025,-322.449C166.025,-322.449 172.025,-328.449 172.025,-334.449"/>
<path fill="#b1b9ff" stroke="#b1b9ff" stroke-width="2" d="M172.025,-346.449C172.025,-352.449 166.025,-358.449 160.025,-358.449"/>
<polyline fill="none" stroke="white" stroke-width="2" points="160.025,-358.449 130.025,-358.449 "/>
<path fill="none" stroke="white" stroke-width="2" d="M130.025,-358.449C124.025,-358.449 118.025,-352.449 118.025,-346.449"/>
<polyline fill="none" stroke="white" stroke-width="2" points="118.025,-346.449 118.025,-334.449 "/>
<path fill="none" stroke="white" stroke-width="2" d="M118.025,-334.449C118.025,-328.449 124.025,-322.449 130.025,-322.449"/>
<polyline fill="none" stroke="white" stroke-width="2" points="130.025,-322.449 160.025,-322.449 "/>
<path fill="none" stroke="white" stroke-width="2" d="M160.025,-322.449C166.025,-322.449 172.025,-328.449 172.025,-334.449"/>
<polyline fill="none" stroke="white" stroke-width="2" points="172.025,-334.449 172.025,-346.449 "/>
<path fill="none" stroke="white" stroke-width="2" d="M172.025,-346.449C172.025,-352.449 166.025,-358.449 160.025,-358.449"/>
<text text-anchor="middle" x="145.025" y="-337.949" font-family="Helvetica,sans-Serif" font-size="10.00">ERG</text>
</a>
</g>
<!-- ESRRA_ESR2&#45;&gt;ERG -->
<g id="edge4" class="edge"><title>ESRRA_ESR2&#45;&gt;ERG</title>
<a xlink:title="ERG: 1.344||remove21">
<path fill="none" stroke="#bd32ff" stroke-width="3" d="M189.996,-340.449C186.775,-340.449 183.541,-340.449 180.365,-340.449"/>
<polygon fill="#bd32ff" stroke="#bd32ff" points="180.145,-337.649 172.145,-340.449 180.145,-343.249 180.145,-337.649"/>
</a>
</g>
<!-- WT1_MTF1_ZBTB7B -->
<g id="node6" class="node"><title>WT1_MTF1_ZBTB7B</title>
<a xlink:href="WT1_MTF1_ZBTB7B.svg" xlink:title="Z&#45;value: 0.561||remove16">
<polygon fill="#b5bcff" stroke="#b5bcff" stroke-width="2" points="113.45,-315.249 26.95,-315.249 14.95,-303.249 14.95,-291.249 26.95,-279.249 113.45,-279.249 125.45,-291.249 125.45,-303.249 113.45,-315.249"/>
<path fill="#b5bcff" stroke="#b5bcff" stroke-width="2" d="M26.95,-315.249C20.95,-315.249 14.95,-309.249 14.95,-303.249"/>
<path fill="#b5bcff" stroke="#b5bcff" stroke-width="2" d="M14.95,-291.249C14.95,-285.249 20.95,-279.249 26.95,-279.249"/>
<path fill="#b5bcff" stroke="#b5bcff" stroke-width="2" d="M113.45,-279.249C119.45,-279.249 125.45,-285.249 125.45,-291.249"/>
<path fill="#b5bcff" stroke="#b5bcff" stroke-width="2" d="M125.45,-303.249C125.45,-309.249 119.45,-315.249 113.45,-315.249"/>
<polyline fill="none" stroke="white" stroke-width="2" points="113.45,-315.249 26.95,-315.249 "/>
<path fill="none" stroke="white" stroke-width="2" d="M26.95,-315.249C20.95,-315.249 14.95,-309.249 14.95,-303.249"/>
<polyline fill="none" stroke="white" stroke-width="2" points="14.95,-303.249 14.95,-291.249 "/>
<path fill="none" stroke="white" stroke-width="2" d="M14.95,-291.249C14.95,-285.249 20.95,-279.249 26.95,-279.249"/>
<polyline fill="none" stroke="white" stroke-width="2" points="26.95,-279.249 113.45,-279.249 "/>
<path fill="none" stroke="white" stroke-width="2" d="M113.45,-279.249C119.45,-279.249 125.45,-285.249 125.45,-291.249"/>
<polyline fill="none" stroke="white" stroke-width="2" points="125.45,-291.249 125.45,-303.249 "/>
<path fill="none" stroke="white" stroke-width="2" d="M125.45,-303.249C125.45,-309.249 119.45,-315.249 113.45,-315.249"/>
<text text-anchor="middle" x="70.2" y="-294.749" font-family="Helvetica,sans-Serif" font-size="10.00">WT1_MTF1_ZBTB7B</text>
</a>
</g>
<!-- ESRRA_ESR2&#45;&gt;WT1_MTF1_ZBTB7B -->
<g id="edge6" class="edge"><title>ESRRA_ESR2&#45;&gt;WT1_MTF1_ZBTB7B</title>
<a xlink:title="WT1: 0.257||ESRRA: 0.084||remove16">
<path fill="none" stroke="#e5aeff" stroke-width="3" d="M182.038,-322.361C180.031,-321.72 178.026,-321.103 176.064,-320.529 162.588,-316.583 147.905,-313.032 133.915,-309.993"/>
<path fill="none" stroke="#ebc2ff" stroke-width="3" d="M182.647,-320.456C180.619,-319.808 178.614,-319.192 176.626,-318.609 163.059,-314.639 148.375,-311.088 134.34,-308.039"/>
<polygon fill="#ebc2ff" stroke="#ebc2ff" points="181.68,-324.139 190.155,-324.018 183.454,-318.828 181.68,-324.139"/>
<polygon fill="#e5aeff" stroke="#e5aeff" points="134.376,-306.206 125.969,-307.283 133.213,-311.684 134.376,-306.206"/>
</a>
</g>
<!-- ZKSCAN1 -->
<g id="node8" class="node"><title>ZKSCAN1</title>
<a xlink:href="ZKSCAN1.svg" xlink:title="Z&#45;value: 0.266||remove27">
<polygon fill="#ffc1c1" stroke="#ffc1c1" stroke-width="2" points="207.475,-197.225 168.975,-197.225 156.975,-185.225 156.975,-173.225 168.975,-161.225 207.475,-161.225 219.475,-173.225 219.475,-185.225 207.475,-197.225"/>
<path fill="#ffc1c1" stroke="#ffc1c1" stroke-width="2" d="M168.975,-197.225C162.975,-197.225 156.975,-191.225 156.975,-185.225"/>
<path fill="#ffc1c1" stroke="#ffc1c1" stroke-width="2" d="M156.975,-173.225C156.975,-167.225 162.975,-161.225 168.975,-161.225"/>
<path fill="#ffc1c1" stroke="#ffc1c1" stroke-width="2" d="M207.475,-161.225C213.475,-161.225 219.475,-167.225 219.475,-173.225"/>
<path fill="#ffc1c1" stroke="#ffc1c1" stroke-width="2" d="M219.475,-185.225C219.475,-191.225 213.475,-197.225 207.475,-197.225"/>
<polyline fill="none" stroke="white" stroke-width="2" points="207.475,-197.225 168.975,-197.225 "/>
<path fill="none" stroke="white" stroke-width="2" d="M168.975,-197.225C162.975,-197.225 156.975,-191.225 156.975,-185.225"/>
<polyline fill="none" stroke="white" stroke-width="2" points="156.975,-185.225 156.975,-173.225 "/>
<path fill="none" stroke="white" stroke-width="2" d="M156.975,-173.225C156.975,-167.225 162.975,-161.225 168.975,-161.225"/>
<polyline fill="none" stroke="white" stroke-width="2" points="168.975,-161.225 207.475,-161.225 "/>
<path fill="none" stroke="white" stroke-width="2" d="M207.475,-161.225C213.475,-161.225 219.475,-167.225 219.475,-173.225"/>
<polyline fill="none" stroke="white" stroke-width="2" points="219.475,-173.225 219.475,-185.225 "/>
<path fill="none" stroke="white" stroke-width="2" d="M219.475,-185.225C219.475,-191.225 213.475,-197.225 207.475,-197.225"/>
<text text-anchor="middle" x="188.225" y="-176.725" font-family="Helvetica,sans-Serif" font-size="10.00">ZKSCAN1</text>
</a>
</g>
<!-- ESRRA_ESR2&#45;&gt;ZKSCAN1 -->
<g id="edge8" class="edge"><title>ESRRA_ESR2&#45;&gt;ZKSCAN1</title>
<a xlink:title="ZKSCAN1: 0.304||remove26root">
<path fill="none" stroke="#a9b1ff" stroke-width="3" d="M226.553,-322.268C218.904,-293.723 204.045,-238.267 195.244,-205.42"/>
<polygon fill="#a9b1ff" stroke="#a9b1ff" points="197.92,-204.589 193.145,-197.587 192.511,-206.039 197.92,-204.589"/>
</a>
</g>
<!-- E2F6 -->
<g id="node10" class="node"><title>E2F6</title>
<a xlink:href="E2F6.svg" xlink:title="Z&#45;value: 0.812||remove15">
<polygon fill="#abb3ff" stroke="#abb3ff" stroke-width="2" points="42,-240.425 12,-240.425 3.19744e-14,-228.425 3.19744e-14,-216.425 12,-204.425 42,-204.425 54,-216.425 54,-228.425 42,-240.425"/>
<path fill="#abb3ff" stroke="#abb3ff" stroke-width="2" d="M12,-240.425C6,-240.425 3.19744e-14,-234.425 3.19744e-14,-228.425"/>
<path fill="#abb3ff" stroke="#abb3ff" stroke-width="2" d="M3.19744e-14,-216.425C3.19744e-14,-210.425 6,-204.425 12,-204.425"/>
<path fill="#abb3ff" stroke="#abb3ff" stroke-width="2" d="M42,-204.425C48,-204.425 54,-210.425 54,-216.425"/>
<path fill="#abb3ff" stroke="#abb3ff" stroke-width="2" d="M54,-228.425C54,-234.425 48,-240.425 42,-240.425"/>
<polyline fill="none" stroke="white" stroke-width="2" points="42,-240.425 12,-240.425 "/>
<path fill="none" stroke="white" stroke-width="2" d="M12,-240.425C6,-240.425 3.19744e-14,-234.425 3.19744e-14,-228.425"/>
<polyline fill="none" stroke="white" stroke-width="2" points="3.19744e-14,-228.425 3.19744e-14,-216.425 "/>
<path fill="none" stroke="white" stroke-width="2" d="M3.19744e-14,-216.425C3.19744e-14,-210.425 6,-204.425 12,-204.425"/>
<polyline fill="none" stroke="white" stroke-width="2" points="12,-204.425 42,-204.425 "/>
<path fill="none" stroke="white" stroke-width="2" d="M42,-204.425C48,-204.425 54,-210.425 54,-216.425"/>
<polyline fill="none" stroke="white" stroke-width="2" points="54,-216.425 54,-228.425 "/>
<path fill="none" stroke="white" stroke-width="2" d="M54,-228.425C54,-234.425 48,-240.425 42,-240.425"/>
<text text-anchor="middle" x="27" y="-219.925" font-family="Helvetica,sans-Serif" font-size="10.00">E2F6</text>
</a>
</g>
<!-- ESRRA_ESR2&#45;&gt;E2F6 -->
<g id="edge10" class="edge"><title>ESRRA_ESR2&#45;&gt;E2F6</title>
<a xlink:title="E2F6: 0.027||remove12root">
<path fill="none" stroke="#edc8ff" stroke-width="3" d="M205.655,-322.176C186.444,-308.857 159.357,-290.71 134.58,-276.369 110.801,-262.607 83.0665,-248.75 61.7136,-238.526"/>
<polygon fill="#edc8ff" stroke="#edc8ff" points="62.871,-235.976 54.444,-235.068 60.4652,-241.033 62.871,-235.976"/>
</a>
</g>
<!-- ERG&#45;&gt;PPARG -->
<g id="edge22" class="edge"><title>ERG&#45;&gt;PPARG</title>
<a xlink:title="PPARG: 0.096||remove13">
<path fill="none" stroke="#ebc1ff" stroke-width="3" d="M172.171,-324.776C208.979,-303.525 274.732,-265.562 314.984,-242.323"/>
<polygon fill="#ebc1ff" stroke="#ebc1ff" points="316.663,-244.587 322.191,-238.162 313.863,-239.737 316.663,-244.587"/>
</a>
</g>
<!-- ERG&#45;&gt;WT1_MTF1_ZBTB7B -->
<g id="edge30" class="edge"><title>ERG&#45;&gt;WT1_MTF1_ZBTB7B</title>
<a xlink:title="ZBTB7B: 0.019||remove8root">
<path fill="none" stroke="#edc9ff" stroke-width="3" d="M118.011,-324.853C114.914,-323.065 111.713,-321.216 108.503,-319.363"/>
<polygon fill="#edc9ff" stroke="#edc9ff" points="109.827,-316.895 101.499,-315.32 107.027,-321.745 109.827,-316.895"/>
</a>
</g>
<!-- ERG&#45;&gt;ZKSCAN1 -->
<g id="edge32" class="edge"><title>ERG&#45;&gt;ZKSCAN1</title>
<a xlink:title="ZKSCAN1: 0.066||remove21root">
<path fill="none" stroke="#c4caff" stroke-width="3" d="M149.896,-322.268C157.545,-293.723 172.404,-238.267 181.206,-205.42"/>
<polygon fill="#c4caff" stroke="#c4caff" points="183.938,-206.039 183.305,-197.587 178.529,-204.589 183.938,-206.039"/>
</a>
</g>
<!-- RORC -->
<g id="node12" class="node"><title>RORC</title>
<a xlink:href="RORC.svg" xlink:title="Z&#45;value: 0.191||remove22">
<polygon fill="#c4caff" stroke="#c4caff" stroke-width="2" points="321.249,-315.249 291.249,-315.249 279.249,-303.249 279.249,-291.249 291.249,-279.249 321.249,-279.249 333.249,-291.249 333.249,-303.249 321.249,-315.249"/>
<path fill="#c4caff" stroke="#c4caff" stroke-width="2" d="M291.249,-315.249C285.249,-315.249 279.249,-309.249 279.249,-303.249"/>
<path fill="#c4caff" stroke="#c4caff" stroke-width="2" d="M279.249,-291.249C279.249,-285.249 285.249,-279.249 291.249,-279.249"/>
<path fill="#c4caff" stroke="#c4caff" stroke-width="2" d="M321.249,-279.249C327.249,-279.249 333.249,-285.249 333.249,-291.249"/>
<path fill="#c4caff" stroke="#c4caff" stroke-width="2" d="M333.249,-303.249C333.249,-309.249 327.249,-315.249 321.249,-315.249"/>
<polyline fill="none" stroke="white" stroke-width="2" points="321.249,-315.249 291.249,-315.249 "/>
<path fill="none" stroke="white" stroke-width="2" d="M291.249,-315.249C285.249,-315.249 279.249,-309.249 279.249,-303.249"/>
<polyline fill="none" stroke="white" stroke-width="2" points="279.249,-303.249 279.249,-291.249 "/>
<path fill="none" stroke="white" stroke-width="2" d="M279.249,-291.249C279.249,-285.249 285.249,-279.249 291.249,-279.249"/>
<polyline fill="none" stroke="white" stroke-width="2" points="291.249,-279.249 321.249,-279.249 "/>
<path fill="none" stroke="white" stroke-width="2" d="M321.249,-279.249C327.249,-279.249 333.249,-285.249 333.249,-291.249"/>
<polyline fill="none" stroke="white" stroke-width="2" points="333.249,-291.249 333.249,-303.249 "/>
<path fill="none" stroke="white" stroke-width="2" d="M333.249,-303.249C333.249,-309.249 327.249,-315.249 321.249,-315.249"/>
<text text-anchor="middle" x="306.249" y="-294.749" font-family="Helvetica,sans-Serif" font-size="10.00">RORC</text>
</a>
</g>
<!-- ERG&#45;&gt;RORC -->
<g id="edge24" class="edge"><title>ERG&#45;&gt;RORC</title>
<a xlink:title="RORC: 0.146||remove21">
<path fill="none" stroke="#e9bbff" stroke-width="3" d="M172.122,-324.301C175.793,-322.52 179.574,-320.88 183.285,-319.569 211.958,-309.441 246.092,-303.712 271.113,-300.602"/>
<polygon fill="#e9bbff" stroke="#e9bbff" points="271.611,-303.363 279.228,-299.645 270.955,-297.801 271.611,-303.363"/>
</a>
</g>
<!-- ETV4_ETS2 -->
<g id="node21" class="node"><title>ETV4_ETS2</title>
<a xlink:href="ETV4_ETS2.svg" xlink:title="Z&#45;value: 0.872||remove14">
<polygon fill="#a9b1ff" stroke="#a9b1ff" stroke-width="2" points="93.45,-79.2 46.95,-79.2 34.95,-67.2 34.95,-55.2 46.95,-43.2 93.45,-43.2 105.45,-55.2 105.45,-67.2 93.45,-79.2"/>
<path fill="#a9b1ff" stroke="#a9b1ff" stroke-width="2" d="M46.95,-79.2C40.95,-79.2 34.95,-73.2 34.95,-67.2"/>
<path fill="#a9b1ff" stroke="#a9b1ff" stroke-width="2" d="M34.95,-55.2C34.95,-49.2 40.95,-43.2 46.95,-43.2"/>
<path fill="#a9b1ff" stroke="#a9b1ff" stroke-width="2" d="M93.45,-43.2C99.45,-43.2 105.45,-49.2 105.45,-55.2"/>
<path fill="#a9b1ff" stroke="#a9b1ff" stroke-width="2" d="M105.45,-67.2C105.45,-73.2 99.45,-79.2 93.45,-79.2"/>
<polyline fill="none" stroke="white" stroke-width="2" points="93.45,-79.2 46.95,-79.2 "/>
<path fill="none" stroke="white" stroke-width="2" d="M46.95,-79.2C40.95,-79.2 34.95,-73.2 34.95,-67.2"/>
<polyline fill="none" stroke="white" stroke-width="2" points="34.95,-67.2 34.95,-55.2 "/>
<path fill="none" stroke="white" stroke-width="2" d="M34.95,-55.2C34.95,-49.2 40.95,-43.2 46.95,-43.2"/>
<polyline fill="none" stroke="white" stroke-width="2" points="46.95,-43.2 93.45,-43.2 "/>
<path fill="none" stroke="white" stroke-width="2" d="M93.45,-43.2C99.45,-43.2 105.45,-49.2 105.45,-55.2"/>
<polyline fill="none" stroke="white" stroke-width="2" points="105.45,-55.2 105.45,-67.2 "/>
<path fill="none" stroke="white" stroke-width="2" d="M105.45,-67.2C105.45,-73.2 99.45,-79.2 93.45,-79.2"/>
<text text-anchor="middle" x="70.2" y="-58.7" font-family="Helvetica,sans-Serif" font-size="10.00">ETV4_ETS2</text>
</a>
</g>
<!-- ERG&#45;&gt;ETV4_ETS2 -->
<g id="edge26" class="edge"><title>ERG&#45;&gt;ETV4_ETS2</title>
<a xlink:title="ETS2: 0.048||remove14">
<path fill="none" stroke="#ecc6ff" stroke-width="3" d="M142.714,-322.374C140.91,-309.471 138.118,-291.748 134.58,-276.369 118.63,-207.047 92.7183,-127.256 79.1429,-87.1211"/>
<polygon fill="#ecc6ff" stroke="#ecc6ff" points="81.7464,-86.0798 76.5201,-79.407 76.4444,-87.8826 81.7464,-86.0798"/>
</a>
</g>
<!-- PATZ1_KLF4 -->
<g id="node23" class="node"><title>PATZ1_KLF4</title>
<a xlink:href="PATZ1_KLF4.svg" xlink:title="Z&#45;value: 1.751||remove25">
<polygon fill="#8591ff" stroke="#8591ff" stroke-width="2" points="171.025,-36 119.025,-36 107.025,-24 107.025,-12 119.025,-6.39488e-14 171.025,-6.39488e-14 183.025,-12 183.025,-24 171.025,-36"/>
<path fill="#8591ff" stroke="#8591ff" stroke-width="2" d="M119.025,-36C113.025,-36 107.025,-30 107.025,-24"/>
<path fill="#8591ff" stroke="#8591ff" stroke-width="2" d="M107.025,-12C107.025,-6 113.025,-6.39488e-14 119.025,-6.39488e-14"/>
<path fill="#8591ff" stroke="#8591ff" stroke-width="2" d="M171.025,-6.39488e-14C177.025,-6.39488e-14 183.025,-6 183.025,-12"/>
<path fill="#8591ff" stroke="#8591ff" stroke-width="2" d="M183.025,-24C183.025,-30 177.025,-36 171.025,-36"/>
<polyline fill="none" stroke="white" stroke-width="2" points="171.025,-36 119.025,-36 "/>
<path fill="none" stroke="white" stroke-width="2" d="M119.025,-36C113.025,-36 107.025,-30 107.025,-24"/>
<polyline fill="none" stroke="white" stroke-width="2" points="107.025,-24 107.025,-12 "/>
<path fill="none" stroke="white" stroke-width="2" d="M107.025,-12C107.025,-6 113.025,-6.39488e-14 119.025,-6.39488e-14"/>
<polyline fill="none" stroke="white" stroke-width="2" points="119.025,-6.39488e-14 171.025,-6.39488e-14 "/>
<path fill="none" stroke="white" stroke-width="2" d="M171.025,-6.39488e-14C177.025,-6.39488e-14 183.025,-6 183.025,-12"/>
<polyline fill="none" stroke="white" stroke-width="2" points="183.025,-12 183.025,-24 "/>
<path fill="none" stroke="white" stroke-width="2" d="M183.025,-24C183.025,-30 177.025,-36 171.025,-36"/>
<text text-anchor="middle" x="145.025" y="-15.5" font-family="Helvetica,sans-Serif" font-size="10.00">PATZ1_KLF4</text>
</a>
</g>
<!-- ERG&#45;&gt;PATZ1_KLF4 -->
<g id="edge28" class="edge"><title>ERG&#45;&gt;PATZ1_KLF4</title>
<a xlink:title="PATZ1: 0.048||ERG: 0.749||remove21">
<path fill="none" stroke="#ecc6ff" stroke-width="3" d="M144.025,-313.858C144.025,-253.123 144.025,-104.804 144.025,-44.3248"/>
<path fill="none" stroke="#d376ff" stroke-width="3" d="M146.025,-313.858C146.025,-253.123 146.025,-104.804 146.025,-44.3248"/>
<polygon fill="#d376ff" stroke="#d376ff" points="142.225,-314.189 145.025,-322.189 147.825,-314.189 142.225,-314.189"/>
<polygon fill="#ecc6ff" stroke="#ecc6ff" points="147.825,-44.0598 145.025,-36.0599 142.225,-44.0599 147.825,-44.0598"/>
</a>
</g>
<!-- WT1_MTF1_ZBTB7B&#45;&gt;PPARG -->
<g id="edge34" class="edge"><title>WT1_MTF1_ZBTB7B&#45;&gt;PPARG</title>
<a xlink:title="PPARG: 0.039||remove13">
<path fill="none" stroke="#edc7ff" stroke-width="3" d="M125.705,-282.377C181.939,-267.309 267.197,-244.464 314.582,-231.767"/>
<polygon fill="#edc7ff" stroke="#edc7ff" points="315.41,-234.444 322.413,-229.669 313.961,-229.035 315.41,-234.444"/>
</a>
</g>
<!-- WT1_MTF1_ZBTB7B&#45;&gt;WT1_MTF1_ZBTB7B -->
<g id="edge42" class="edge"><title>WT1_MTF1_ZBTB7B&#45;&gt;WT1_MTF1_ZBTB7B</title>
<a xlink:title="ZBTB7B: 0.057||WT1: 0.024||remove16">
<path fill="none" stroke="#ecc5ff" stroke-width="3" d="M125.587,-303.653C135.922,-302.864 143.2,-300.73 143.2,-297.249 143.2,-294.802 139.602,-293.02 133.873,-291.904"/>
<polygon fill="#ecc5ff" stroke="#ecc5ff" points="133.878,-289.082 125.587,-290.846 133.168,-294.637 133.878,-289.082"/>
</a>
</g>
<!-- WT1_MTF1_ZBTB7B&#45;&gt;ZKSCAN1 -->
<g id="edge46" class="edge"><title>WT1_MTF1_ZBTB7B&#45;&gt;ZKSCAN1</title>
<a xlink:title="ZKSCAN1: 0.042||remove16root">
<path fill="none" stroke="#c7ccff" stroke-width="3" d="M88.3827,-279.067C108.802,-258.648 142.013,-225.437 164.469,-202.98"/>
<polygon fill="#c7ccff" stroke="#c7ccff" points="166.538,-204.871 170.215,-197.234 162.578,-200.911 166.538,-204.871"/>
</a>
</g>
<!-- WT1_MTF1_ZBTB7B&#45;&gt;RORC -->
<g id="edge36" class="edge"><title>WT1_MTF1_ZBTB7B&#45;&gt;RORC</title>
<a xlink:title="RORC: 0.045||remove16">
<path fill="none" stroke="#edc6ff" stroke-width="3" d="M125.543,-297.249C170.39,-297.249 232.247,-297.249 270.716,-297.249"/>
<polygon fill="#edc6ff" stroke="#edc6ff" points="271.026,-300.049 279.026,-297.249 271.025,-294.449 271.026,-300.049"/>
</a>
</g>
<!-- TCF7L2 -->
<g id="node15" class="node"><title>TCF7L2</title>
<a xlink:href="TCF7L2.svg" xlink:title="Z&#45;value: 0.480||remove17">
<polygon fill="#b8bfff" stroke="#b8bfff" stroke-width="2" points="42,-154.025 12,-154.025 0,-142.025 0,-130.025 12,-118.025 42,-118.025 54,-130.025 54,-142.025 42,-154.025"/>
<path fill="#b8bfff" stroke="#b8bfff" stroke-width="2" d="M12,-154.025C6,-154.025 0,-148.025 0,-142.025"/>
<path fill="#b8bfff" stroke="#b8bfff" stroke-width="2" d="M0,-130.025C0,-124.025 6,-118.025 12,-118.025"/>
<path fill="#b8bfff" stroke="#b8bfff" stroke-width="2" d="M42,-118.025C48,-118.025 54,-124.025 54,-130.025"/>
<path fill="#b8bfff" stroke="#b8bfff" stroke-width="2" d="M54,-142.025C54,-148.025 48,-154.025 42,-154.025"/>
<polyline fill="none" stroke="white" stroke-width="2" points="42,-154.025 12,-154.025 "/>
<path fill="none" stroke="white" stroke-width="2" d="M12,-154.025C6,-154.025 0,-148.025 0,-142.025"/>
<polyline fill="none" stroke="white" stroke-width="2" points="0,-142.025 0,-130.025 "/>
<path fill="none" stroke="white" stroke-width="2" d="M0,-130.025C0,-124.025 6,-118.025 12,-118.025"/>
<polyline fill="none" stroke="white" stroke-width="2" points="12,-118.025 42,-118.025 "/>
<path fill="none" stroke="white" stroke-width="2" d="M42,-118.025C48,-118.025 54,-124.025 54,-130.025"/>
<polyline fill="none" stroke="white" stroke-width="2" points="54,-130.025 54,-142.025 "/>
<path fill="none" stroke="white" stroke-width="2" d="M54,-142.025C54,-148.025 48,-154.025 42,-154.025"/>
<text text-anchor="middle" x="27" y="-133.525" font-family="Helvetica,sans-Serif" font-size="10.00">TCF7L2</text>
</a>
</g>
<!-- WT1_MTF1_ZBTB7B&#45;&gt;TCF7L2 -->
<g id="edge44" class="edge"><title>WT1_MTF1_ZBTB7B&#45;&gt;TCF7L2</title>
<a xlink:title="TCF7L2: 0.080||remove16">
<path fill="none" stroke="#ebc2ff" stroke-width="3" d="M69.6705,-278.905C68.7056,-259.375 65.9853,-227.737 58.32,-201.545 54.2822,-187.747 47.6279,-173.243 41.4889,-161.398"/>
<polygon fill="#ebc2ff" stroke="#ebc2ff" points="43.7965,-159.774 37.5618,-154.032 38.855,-162.409 43.7965,-159.774"/>
</a>
</g>
<!-- WT1_MTF1_ZBTB7B&#45;&gt;ETV4_ETS2 -->
<g id="edge38" class="edge"><title>WT1_MTF1_ZBTB7B&#45;&gt;ETV4_ETS2</title>
<a xlink:title="ETS2: 0.082||remove14">
<path fill="none" stroke="#ebc2ff" stroke-width="3" d="M70.2,-279.119C70.2,-237.669 70.2,-135.84 70.2,-87.4968"/>
<polygon fill="#ebc2ff" stroke="#ebc2ff" points="73.0001,-87.3922 70.2,-79.3922 67.4001,-87.3922 73.0001,-87.3922"/>
</a>
</g>
<!-- WT1_MTF1_ZBTB7B&#45;&gt;PATZ1_KLF4 -->
<g id="edge40" class="edge"><title>WT1_MTF1_ZBTB7B&#45;&gt;PATZ1_KLF4</title>
<a xlink:title="PATZ1: 0.082||KLF4: 0.044||WT1: 0.327||MTF1: 0.189||remove16">
<path fill="none" stroke="#ebc2ff" stroke-width="3" d="M76.3032,-270.608C90.6203,-217.176 122.888,-96.7494 137.107,-43.6854"/>
<path fill="none" stroke="#e2a6ff" stroke-width="3" d="M78.235,-271.126C92.5522,-217.693 124.82,-97.267 139.039,-44.2031"/>
<polygon fill="#e2a6ff" stroke="#e2a6ff" points="74.4755,-270.475 75.1095,-278.927 79.8847,-271.924 74.4755,-270.475"/>
<polygon fill="#ebc2ff" stroke="#ebc2ff" points="140.828,-44.4789 140.194,-36.0268 135.419,-43.0294 140.828,-44.4789"/>
</a>
</g>
<!-- ZKSCAN1&#45;&gt;PPARG -->
<g id="edge48" class="edge"><title>ZKSCAN1&#45;&gt;PPARG</title>
<a xlink:title="PPARG: 0.032||remove13root">
<path fill="none" stroke="#ffc8c8" stroke-width="3" d="M219.693,-187.657C246.883,-194.942 286.136,-205.46 314.339,-213.017"/>
<polygon fill="#ffc8c8" stroke="#ffc8c8" points="313.894,-215.796 322.346,-215.162 315.343,-210.387 313.894,-215.796"/>
</a>
</g>
<!-- ZKSCAN1&#45;&gt;RORC -->
<g id="edge50" class="edge"><title>ZKSCAN1&#45;&gt;RORC</title>
<a xlink:title="RORC: 0.087||remove22root">
<path fill="none" stroke="#ffc2c2" stroke-width="3" d="M206.407,-197.407C226.826,-217.826 260.037,-251.037 282.494,-273.494"/>
<polygon fill="#ffc2c2" stroke="#ffc2c2" points="280.603,-275.563 288.24,-279.24 284.563,-271.603 280.603,-275.563"/>
</a>
</g>
<!-- E2F6&#45;&gt;WT1_MTF1_ZBTB7B -->
<g id="edge14" class="edge"><title>E2F6&#45;&gt;WT1_MTF1_ZBTB7B</title>
<a xlink:title="WT1: 0.018||ZBTB7B: 0.011||E2F6: 0.014||remove6root">
<path fill="none" stroke="#eec9ff" stroke-width="3" d="M42.4726,-247.224C47.0129,-255.088 52.0153,-263.752 56.5494,-271.606"/>
<path fill="none" stroke="#eecaff" stroke-width="3" d="M40.7406,-248.224C45.2809,-256.088 50.2833,-264.752 54.8174,-272.606"/>
<polygon fill="#eecaff" stroke="#eecaff" points="43.8824,-246.066 37.4575,-240.538 39.0327,-248.866 43.8824,-246.066"/>
<polygon fill="#eec9ff" stroke="#eec9ff" points="53.2641,-273.516 59.6891,-279.044 58.1139,-270.715 53.2641,-273.516"/>
</a>
</g>
<!-- E2F6&#45;&gt;ZKSCAN1 -->
<g id="edge18" class="edge"><title>E2F6&#45;&gt;ZKSCAN1</title>
<a xlink:title="ZKSCAN1: 0.039||remove15root">
<path fill="none" stroke="#c7cdff" stroke-width="3" d="M54.3496,-215.096C80.2993,-208.143 119.578,-197.619 148.887,-189.765"/>
<polygon fill="#c7cdff" stroke="#c7cdff" points="149.867,-192.401 156.87,-187.626 148.418,-186.992 149.867,-192.401"/>
</a>
</g>
<!-- E2F6&#45;&gt;E2F6 -->
<g id="edge20" class="edge"><title>E2F6&#45;&gt;E2F6</title>
<a xlink:title="E2F6: 0.097||remove15">
<path fill="none" stroke="#ebc0ff" stroke-width="3" d="M54.2408,-229.168C64.0239,-229.313 72,-227.065 72,-222.425 72,-219.162 68.0568,-217.082 62.3147,-216.185"/>
<polygon fill="#ebc0ff" stroke="#ebc0ff" points="62.3996,-213.385 54.2408,-215.681 62.051,-218.974 62.3996,-213.385"/>
</a>
</g>
<!-- E2F6&#45;&gt;RORC -->
<g id="edge12" class="edge"><title>E2F6&#45;&gt;RORC</title>
<a xlink:title="RORC: 0.018||remove7root">
<path fill="none" stroke="#eec9ff" stroke-width="3" d="M54.0293,-229.667C104.909,-243.3 214.854,-272.76 271.281,-287.88"/>
<polygon fill="#eec9ff" stroke="#eec9ff" points="270.753,-290.637 279.205,-290.003 272.202,-285.228 270.753,-290.637"/>
</a>
</g>
<!-- E2F6&#45;&gt;TCF7L2 -->
<g id="edge16" class="edge"><title>E2F6&#45;&gt;TCF7L2</title>
<a xlink:title="TCF7L2: 0.017||remove4root">
<path fill="none" stroke="#eecaff" stroke-width="3" d="M27,-204.101C27,-191.877 27,-175.621 27,-162.06"/>
<polygon fill="#eecaff" stroke="#eecaff" points="29.8001,-162.025 27,-154.025 24.2001,-162.025 29.8001,-162.025"/>
</a>
</g>
<!-- TCF7L2&#45;&gt;ZKSCAN1 -->
<g id="edge74" class="edge"><title>TCF7L2&#45;&gt;ZKSCAN1</title>
<a xlink:title="ZKSCAN1: 0.043||remove17root">
<path fill="none" stroke="#c7ccff" stroke-width="3" d="M54.3496,-143.353C80.2993,-150.306 119.578,-160.831 148.887,-168.684"/>
<polygon fill="#c7ccff" stroke="#c7ccff" points="148.418,-171.457 156.87,-170.823 149.867,-166.048 148.418,-171.457"/>
</a>
</g>
<!-- TCF7L2&#45;&gt;TCF7L2 -->
<g id="edge72" class="edge"><title>TCF7L2&#45;&gt;TCF7L2</title>
<a xlink:title="TCF7L2: 0.116||remove17">
<path fill="none" stroke="#eabeff" stroke-width="3" d="M54.2408,-142.768C64.0239,-142.913 72,-140.665 72,-136.025 72,-132.762 68.0568,-130.682 62.3147,-129.785"/>
<polygon fill="#eabeff" stroke="#eabeff" points="62.3996,-126.985 54.2408,-129.281 62.051,-132.574 62.3996,-126.985"/>
</a>
</g>
<!-- ETV4_ETS2&#45;&gt;PPARG -->
<g id="edge66" class="edge"><title>ETV4_ETS2&#45;&gt;PPARG</title>
<a xlink:title="PPARG: 0.005||remove1root">
<path fill="none" stroke="#eecbff" stroke-width="3" d="M101.421,-79.2252C154.133,-109.659 260.371,-170.995 315.113,-202.601"/>
<polygon fill="#eecbff" stroke="#eecbff" points="313.837,-205.097 322.166,-206.672 316.637,-200.248 313.837,-205.097"/>
</a>
</g>
<!-- ETV4_ETS2&#45;&gt;ZKSCAN1 -->
<g id="edge70" class="edge"><title>ETV4_ETS2&#45;&gt;ZKSCAN1</title>
<a xlink:title="ZKSCAN1: 0.035||remove14root">
<path fill="none" stroke="#c7cdff" stroke-width="3" d="M88.3827,-79.3827C108.802,-99.8017 142.013,-133.013 164.469,-155.469"/>
<polygon fill="#c7cdff" stroke="#c7cdff" points="162.578,-157.538 170.215,-161.215 166.538,-153.578 162.578,-157.538"/>
</a>
</g>
<!-- SPDEF -->
<g id="node44" class="node"><title>SPDEF</title>
<a xlink:href="SPDEF.svg" xlink:title="Z&#45;value: 0.814||remove19">
<polygon fill="#abb3ff" stroke="#abb3ff" stroke-width="2" points="246.425,-36 216.425,-36 204.425,-24 204.425,-12 216.425,-0 246.425,-0 258.425,-12 258.425,-24 246.425,-36"/>
<path fill="#abb3ff" stroke="#abb3ff" stroke-width="2" d="M216.425,-36C210.425,-36 204.425,-30 204.425,-24"/>
<path fill="#abb3ff" stroke="#abb3ff" stroke-width="2" d="M204.425,-12C204.425,-6 210.425,-0 216.425,-0"/>
<path fill="#abb3ff" stroke="#abb3ff" stroke-width="2" d="M246.425,-0C252.425,-0 258.425,-6 258.425,-12"/>
<path fill="#abb3ff" stroke="#abb3ff" stroke-width="2" d="M258.425,-24C258.425,-30 252.425,-36 246.425,-36"/>
<polyline fill="none" stroke="white" stroke-width="2" points="246.425,-36 216.425,-36 "/>
<path fill="none" stroke="white" stroke-width="2" d="M216.425,-36C210.425,-36 204.425,-30 204.425,-24"/>
<polyline fill="none" stroke="white" stroke-width="2" points="204.425,-24 204.425,-12 "/>
<path fill="none" stroke="white" stroke-width="2" d="M204.425,-12C204.425,-6 210.425,-0 216.425,-0"/>
<polyline fill="none" stroke="white" stroke-width="2" points="216.425,-0 246.425,-0 "/>
<path fill="none" stroke="white" stroke-width="2" d="M246.425,-0C252.425,-0 258.425,-6 258.425,-12"/>
<polyline fill="none" stroke="white" stroke-width="2" points="258.425,-12 258.425,-24 "/>
<path fill="none" stroke="white" stroke-width="2" d="M258.425,-24C258.425,-30 252.425,-36 246.425,-36"/>
<text text-anchor="middle" x="231.425" y="-15.5" font-family="Helvetica,sans-Serif" font-size="10.00">SPDEF</text>
</a>
</g>
<!-- ETV4_ETS2&#45;&gt;SPDEF -->
<g id="edge68" class="edge"><title>ETV4_ETS2&#45;&gt;SPDEF</title>
<a xlink:title="SPDEF: 0.017||remove5root">
<path fill="none" stroke="#eecaff" stroke-width="3" d="M105.698,-57.1172C129.674,-53.7369 161.808,-47.9849 189.105,-38.88 191.592,-38.0505 194.118,-37.102 196.635,-36.0775"/>
<polygon fill="#eecaff" stroke="#eecaff" points="197.897,-38.5821 204.111,-32.8178 195.658,-33.4489 197.897,-38.5821"/>
</a>
</g>
<!-- PATZ1_KLF4&#45;&gt;ESRRA_ESR2 -->
<g id="edge62" class="edge"><title>PATZ1_KLF4&#45;&gt;ESRRA_ESR2</title>
<a xlink:title="ESRRA: 1.315||ESR2: 0.103||remove25">
<path fill="none" stroke="#be36ff" stroke-width="3" d="M159.249,-36.2143C178.285,-61.8042 211.218,-110.629 224.765,-158.345 240.043,-212.159 237.392,-278.513 234.292,-314.409"/>
<polygon fill="#be36ff" stroke="#be36ff" points="231.498,-314.209 233.546,-322.433 237.074,-314.727 231.498,-314.209"/>
</a>
</g>
<!-- PATZ1_KLF4&#45;&gt;PPARG -->
<g id="edge52" class="edge"><title>PATZ1_KLF4&#45;&gt;PPARG</title>
<a xlink:title="PPARG: 0.183||remove13">
<path fill="none" stroke="#e7b7ff" stroke-width="3" d="M163.166,-36.1413C200.141,-73.116 284.209,-157.184 325.567,-198.542"/>
<polygon fill="#e7b7ff" stroke="#e7b7ff" points="323.712,-200.647 331.349,-204.324 327.672,-196.687 323.712,-200.647"/>
</a>
</g>
<!-- PATZ1_KLF4&#45;&gt;ZKSCAN1 -->
<g id="edge64" class="edge"><title>PATZ1_KLF4&#45;&gt;ZKSCAN1</title>
<a xlink:title="ZKSCAN1: 0.201||remove25root">
<path fill="none" stroke="#b5bcff" stroke-width="3" d="M149.896,-36.1811C157.545,-64.7264 172.404,-120.183 181.206,-153.029"/>
<polygon fill="#b5bcff" stroke="#b5bcff" points="178.529,-153.86 183.305,-160.863 183.938,-152.41 178.529,-153.86"/>
</a>
</g>
<!-- PATZ1_KLF4&#45;&gt;RORC -->
<g id="edge54" class="edge"><title>PATZ1_KLF4&#45;&gt;RORC</title>
<a xlink:title="RORC: 0.033||KLF4: 0.043||remove18root">
<path fill="none" stroke="#edc8ff" stroke-width="3" d="M160.527,-42.8505C191.246,-96.0579 262.123,-218.821 292.673,-271.734"/>
<path fill="none" stroke="#edc7ff" stroke-width="3" d="M158.795,-43.8505C189.514,-97.0579 260.391,-219.821 290.941,-272.734"/>
<polygon fill="#edc7ff" stroke="#edc7ff" points="162.028,-41.8505 155.603,-36.3223 157.178,-44.6506 162.028,-41.8505"/>
<polygon fill="#edc8ff" stroke="#edc8ff" points="289.417,-273.694 295.841,-279.222 294.266,-270.894 289.417,-273.694"/>
</a>
</g>
<!-- PATZ1_KLF4&#45;&gt;TCF7L2 -->
<g id="edge60" class="edge"><title>PATZ1_KLF4&#45;&gt;TCF7L2</title>
<a xlink:title="TCF7L2: 0.339||remove17">
<path fill="none" stroke="#e2a5ff" stroke-width="3" d="M138.484,-36.125C132.859,-49.8836 123.702,-68.659 111.38,-82.08 97.4099,-97.2963 78.2333,-110.008 61.6914,-119.262"/>
<polygon fill="#e2a5ff" stroke="#e2a5ff" points="60.0027,-116.992 54.3047,-123.267 62.672,-121.915 60.0027,-116.992"/>
</a>
</g>
<!-- PATZ1_KLF4&#45;&gt;ETV4_ETS2 -->
<g id="edge56" class="edge"><title>PATZ1_KLF4&#45;&gt;ETV4_ETS2</title>
<a xlink:title="ETV4: 0.222||ETS2: 0.001||PATZ1: 0.032||remove14">
<path fill="none" stroke="#e6b2ff" stroke-width="3" d="M107.029,-41.0874C106.928,-41.1499 106.825,-41.2093 106.72,-41.2656"/>
<path fill="none" stroke="#edc8ff" stroke-width="3" d="M106.032,-39.3615C105.928,-39.4178 105.825,-39.4772 105.724,-39.5396"/>
<polygon fill="#edc8ff" stroke="#edc8ff" points="108.198,-42.4953 113.726,-36.0704 105.398,-37.6456 108.198,-42.4953"/>
<polygon fill="#e6b2ff" stroke="#e6b2ff" points="107.142,-36.6382 101.614,-43.0632 109.942,-41.488 107.142,-36.6382"/>
</a>
</g>
<!-- PATZ1_KLF4&#45;&gt;PATZ1_KLF4 -->
<g id="edge58" class="edge"><title>PATZ1_KLF4&#45;&gt;PATZ1_KLF4</title>
<a xlink:title="PATZ1: 0.441||KLF4: 0.051||remove25">
<path fill="none" stroke="#de99ff" stroke-width="3" d="M183.239,-24.6907C193.359,-24.3083 201.025,-22.0781 201.025,-18 201.025,-15.1326 197.235,-13.1787 191.467,-12.1384"/>
<polygon fill="#de99ff" stroke="#de99ff" points="191.479,-9.32556 183.239,-11.3093 190.918,-14.8973 191.479,-9.32556"/>
</a>
</g>
<!-- SPDEF&#45;&gt;ZKSCAN1 -->
<g id="edge104" class="edge"><title>SPDEF&#45;&gt;ZKSCAN1</title>
<a xlink:title="ZKSCAN1: 0.048||remove19root">
<path fill="none" stroke="#c6ccff" stroke-width="3" d="M226.553,-36.1811C218.904,-64.7264 204.045,-120.183 195.244,-153.029"/>
<polygon fill="#c6ccff" stroke="#c6ccff" points="192.511,-152.41 193.145,-160.863 197.92,-153.86 192.511,-152.41"/>
</a>
</g>
<!-- WRNIP1 -->
<g id="node49" class="node"><title>WRNIP1</title>
<a xlink:href="WRNIP1.svg" xlink:title="Z&#45;value: 1.103||remove23">
<polygon fill="#9fa9ff" stroke="#9fa9ff" stroke-width="2" points="321.749,-79.2 290.749,-79.2 278.749,-67.2 278.749,-55.2 290.749,-43.2 321.749,-43.2 333.749,-55.2 333.749,-67.2 321.749,-79.2"/>
<path fill="#9fa9ff" stroke="#9fa9ff" stroke-width="2" d="M290.749,-79.2C284.749,-79.2 278.749,-73.2 278.749,-67.2"/>
<path fill="#9fa9ff" stroke="#9fa9ff" stroke-width="2" d="M278.749,-55.2C278.749,-49.2 284.749,-43.2 290.749,-43.2"/>
<path fill="#9fa9ff" stroke="#9fa9ff" stroke-width="2" d="M321.749,-43.2C327.749,-43.2 333.749,-49.2 333.749,-55.2"/>
<path fill="#9fa9ff" stroke="#9fa9ff" stroke-width="2" d="M333.749,-67.2C333.749,-73.2 327.749,-79.2 321.749,-79.2"/>
<polyline fill="none" stroke="white" stroke-width="2" points="321.749,-79.2 290.749,-79.2 "/>
<path fill="none" stroke="white" stroke-width="2" d="M290.749,-79.2C284.749,-79.2 278.749,-73.2 278.749,-67.2"/>
<polyline fill="none" stroke="white" stroke-width="2" points="278.749,-67.2 278.749,-55.2 "/>
<path fill="none" stroke="white" stroke-width="2" d="M278.749,-55.2C278.749,-49.2 284.749,-43.2 290.749,-43.2"/>
<polyline fill="none" stroke="white" stroke-width="2" points="290.749,-43.2 321.749,-43.2 "/>
<path fill="none" stroke="white" stroke-width="2" d="M321.749,-43.2C327.749,-43.2 333.749,-49.2 333.749,-55.2"/>
<polyline fill="none" stroke="white" stroke-width="2" points="333.749,-55.2 333.749,-67.2 "/>
<path fill="none" stroke="white" stroke-width="2" d="M333.749,-67.2C333.749,-73.2 327.749,-79.2 321.749,-79.2"/>
<text text-anchor="middle" x="306.249" y="-58.7" font-family="Helvetica,sans-Serif" font-size="10.00">WRNIP1</text>
</a>
</g>
<!-- WRNIP1&#45;&gt;ESRRA_ESR2 -->
<g id="edge88" class="edge"><title>WRNIP1&#45;&gt;ESRRA_ESR2</title>
<a xlink:title="ESRRA: 0.023||remove9root">
<path fill="none" stroke="#edc9ff" stroke-width="3" d="M299.108,-79.5156C295.204,-89.882 290.438,-103.138 286.809,-115.145 265.29,-186.356 245.994,-272.083 236.914,-314.318"/>
<polygon fill="#edc9ff" stroke="#edc9ff" points="234.17,-313.759 235.236,-322.167 239.646,-314.929 234.17,-313.759"/>
</a>
</g>
<!-- WRNIP1&#45;&gt;ERG -->
<g id="edge80" class="edge"><title>WRNIP1&#45;&gt;ERG</title>
<a xlink:title="ERG: 0.192||remove21">
<path fill="none" stroke="#e7b6ff" stroke-width="3" d="M295.671,-79.5223C267.646,-128.063 191.449,-260.04 159.465,-315.438"/>
<polygon fill="#e7b6ff" stroke="#e7b6ff" points="157.008,-314.094 155.432,-322.422 161.857,-316.894 157.008,-314.094"/>
</a>
</g>
<!-- WRNIP1&#45;&gt;WT1_MTF1_ZBTB7B -->
<g id="edge84" class="edge"><title>WRNIP1&#45;&gt;WT1_MTF1_ZBTB7B</title>
<a xlink:title="WT1: 0.259||MTF1: 0.049||remove16">
<path fill="none" stroke="#e5aeff" stroke-width="3" d="M299.037,-79.219C287.006,-107.574 260.58,-163.176 224.765,-200.105 193.686,-232.149 150.018,-258.339 117.021,-275.416"/>
<polygon fill="#e5aeff" stroke="#e5aeff" points="115.584,-273.006 109.728,-279.133 118.127,-277.995 115.584,-273.006"/>
</a>
</g>
<!-- WRNIP1&#45;&gt;ZKSCAN1 -->
<g id="edge90" class="edge"><title>WRNIP1&#45;&gt;ZKSCAN1</title>
<a xlink:title="ZKSCAN1: 0.089||remove23root">
<path fill="none" stroke="#c1c7ff" stroke-width="3" d="M288.067,-79.3827C267.648,-99.8017 234.437,-133.013 211.98,-155.469"/>
<polygon fill="#c1c7ff" stroke="#c1c7ff" points="209.911,-153.578 206.234,-161.215 213.871,-157.538 209.911,-153.578"/>
</a>
</g>
<!-- WRNIP1&#45;&gt;TCF7L2 -->
<g id="edge86" class="edge"><title>WRNIP1&#45;&gt;TCF7L2</title>
<a xlink:title="TCF7L2: 0.182||remove17">
<path fill="none" stroke="#e8b7ff" stroke-width="3" d="M278.709,-68.5792C227.693,-82.2491 118.568,-111.489 62.2468,-126.58"/>
<polygon fill="#e8b7ff" stroke="#e8b7ff" points="61.3361,-123.925 54.3334,-128.701 62.7855,-129.335 61.3361,-123.925"/>
</a>
</g>
<!-- WRNIP1&#45;&gt;ETV4_ETS2 -->
<g id="edge78" class="edge"><title>WRNIP1&#45;&gt;ETV4_ETS2</title>
<a xlink:title="ETV4: 0.009||remove2root">
<path fill="none" stroke="#eecaff" stroke-width="3" d="M278.709,-61.2C238.127,-61.2 161.874,-61.2 113.685,-61.2"/>
<polygon fill="#eecaff" stroke="#eecaff" points="113.616,-58.4001 105.616,-61.2 113.616,-64.0001 113.616,-58.4001"/>
</a>
</g>
<!-- WRNIP1&#45;&gt;PATZ1_KLF4 -->
<g id="edge82" class="edge"><title>WRNIP1&#45;&gt;PATZ1_KLF4</title>
<a xlink:title="PATZ1: 0.056||remove20root">
<path fill="none" stroke="#ecc5ff" stroke-width="3" d="M278.468,-56.5772C256.882,-52.6935 226.309,-46.5518 200.105,-38.88 197.099,-38 194.024,-37.0318 190.94,-36.009"/>
<polygon fill="#ecc5ff" stroke="#ecc5ff" points="191.763,-33.3311 183.287,-33.3734 189.939,-38.6259 191.763,-33.3311"/>
</a>
</g>
<!-- WRNIP1&#45;&gt;WRNIP1 -->
<g id="edge76" class="edge"><title>WRNIP1&#45;&gt;WRNIP1</title>
<a xlink:title="WRNIP1: 0.003||remove0root">
<path fill="none" stroke="#eecbff" stroke-width="3" d="M333.933,-67.9484C343.513,-68.0198 351.249,-65.7703 351.249,-61.2 351.249,-58.0579 347.593,-56.0128 342.194,-55.0646"/>
<polygon fill="#eecbff" stroke="#eecbff" points="342.119,-52.2514 333.933,-54.4516 341.704,-57.8361 342.119,-52.2514"/>
</a>
</g>
<!-- ELF2_GABPA_ELF5 -->
<g id="node58" class="node"><title>ELF2_GABPA_ELF5</title>
<a xlink:href="ELF2_GABPA_ELF5.svg" xlink:title="Z&#45;value: 1.088||remove24">
<polygon fill="#a0a9ff" stroke="#a0a9ff" stroke-width="2" points="391.449,-154.025 307.449,-154.025 295.449,-142.025 295.449,-130.025 307.449,-118.025 391.449,-118.025 403.449,-130.025 403.449,-142.025 391.449,-154.025"/>
<path fill="#a0a9ff" stroke="#a0a9ff" stroke-width="2" d="M307.449,-154.025C301.449,-154.025 295.449,-148.025 295.449,-142.025"/>
<path fill="#a0a9ff" stroke="#a0a9ff" stroke-width="2" d="M295.449,-130.025C295.449,-124.025 301.449,-118.025 307.449,-118.025"/>
<path fill="#a0a9ff" stroke="#a0a9ff" stroke-width="2" d="M391.449,-118.025C397.449,-118.025 403.449,-124.025 403.449,-130.025"/>
<path fill="#a0a9ff" stroke="#a0a9ff" stroke-width="2" d="M403.449,-142.025C403.449,-148.025 397.449,-154.025 391.449,-154.025"/>
<polyline fill="none" stroke="white" stroke-width="2" points="391.449,-154.025 307.449,-154.025 "/>
<path fill="none" stroke="white" stroke-width="2" d="M307.449,-154.025C301.449,-154.025 295.449,-148.025 295.449,-142.025"/>
<polyline fill="none" stroke="white" stroke-width="2" points="295.449,-142.025 295.449,-130.025 "/>
<path fill="none" stroke="white" stroke-width="2" d="M295.449,-130.025C295.449,-124.025 301.449,-118.025 307.449,-118.025"/>
<polyline fill="none" stroke="white" stroke-width="2" points="307.449,-118.025 391.449,-118.025 "/>
<path fill="none" stroke="white" stroke-width="2" d="M391.449,-118.025C397.449,-118.025 403.449,-124.025 403.449,-130.025"/>
<polyline fill="none" stroke="white" stroke-width="2" points="403.449,-130.025 403.449,-142.025 "/>
<path fill="none" stroke="white" stroke-width="2" d="M403.449,-142.025C403.449,-148.025 397.449,-154.025 391.449,-154.025"/>
<text text-anchor="middle" x="349.449" y="-133.525" font-family="Helvetica,sans-Serif" font-size="10.00">ELF2_GABPA_ELF5</text>
</a>
</g>
<!-- ELF2_GABPA_ELF5&#45;&gt;PPARG -->
<g id="edge92" class="edge"><title>ELF2_GABPA_ELF5&#45;&gt;PPARG</title>
<a xlink:title="PPARG: 0.065||remove13">
<path fill="none" stroke="#ecc4ff" stroke-width="3" d="M349.449,-154.348C349.449,-166.572 349.449,-182.828 349.449,-196.389"/>
<polygon fill="#ecc4ff" stroke="#ecc4ff" points="346.649,-196.424 349.449,-204.424 352.249,-196.424 346.649,-196.424"/>
</a>
</g>
<!-- ELF2_GABPA_ELF5&#45;&gt;WT1_MTF1_ZBTB7B -->
<g id="edge98" class="edge"><title>ELF2_GABPA_ELF5&#45;&gt;WT1_MTF1_ZBTB7B</title>
<a xlink:title="ZBTB7B: 0.063||WT1: 0.021||remove16">
<path fill="none" stroke="#ecc4ff" stroke-width="3" d="M318.229,-154.05C266.879,-183.697 164.732,-242.671 108.881,-274.917"/>
<polygon fill="#ecc4ff" stroke="#ecc4ff" points="107.175,-272.668 101.647,-279.093 109.975,-277.518 107.175,-272.668"/>
</a>
</g>
<!-- ELF2_GABPA_ELF5&#45;&gt;ZKSCAN1 -->
<g id="edge100" class="edge"><title>ELF2_GABPA_ELF5&#45;&gt;ZKSCAN1</title>
<a xlink:title="ZKSCAN1: 0.136||remove24root">
<path fill="none" stroke="#bcc3ff" stroke-width="3" d="M295.315,-150.53C273.187,-156.459 248.065,-163.19 227.716,-168.643"/>
<polygon fill="#bcc3ff" stroke="#bcc3ff" points="226.886,-165.966 219.884,-170.742 228.336,-171.376 226.886,-165.966"/>
</a>
</g>
<!-- ELF2_GABPA_ELF5&#45;&gt;E2F6 -->
<g id="edge102" class="edge"><title>ELF2_GABPA_ELF5&#45;&gt;E2F6</title>
<a xlink:title="E2F6: 0.023||remove10root">
<path fill="none" stroke="#edc9ff" stroke-width="3" d="M321.483,-154.155C297.002,-169.087 259.943,-189.47 224.765,-200.105 169.648,-216.766 102.486,-221.194 62.3164,-222.255"/>
<polygon fill="#edc9ff" stroke="#edc9ff" points="62.1051,-219.459 54.1684,-222.433 62.2278,-225.057 62.1051,-219.459"/>
</a>
</g>
<!-- ELF2_GABPA_ELF5&#45;&gt;ETV4_ETS2 -->
<g id="edge94" class="edge"><title>ELF2_GABPA_ELF5&#45;&gt;ETV4_ETS2</title>
<a xlink:title="ETV4: 0.026||ETS2: 0.015||remove11root">
<path fill="none" stroke="#edc9ff" stroke-width="3" d="M295.276,-121.509C242.24,-107.298 162.477,-85.9255 113.519,-72.8072"/>
<polygon fill="#edc9ff" stroke="#edc9ff" points="114.091,-70.0617 105.638,-70.6957 112.641,-75.4709 114.091,-70.0617"/>
</a>
</g>
<!-- ELF2_GABPA_ELF5&#45;&gt;PATZ1_KLF4 -->
<g id="edge96" class="edge"><title>ELF2_GABPA_ELF5&#45;&gt;PATZ1_KLF4</title>
<a xlink:title="PATZ1: 0.012||remove3root">
<path fill="none" stroke="#eecaff" stroke-width="3" d="M317.956,-117.842C281.686,-96.9016 222.114,-62.5078 183.228,-40.0568"/>
<polygon fill="#eecaff" stroke="#eecaff" points="184.546,-37.5848 176.218,-36.0097 181.746,-42.4346 184.546,-37.5848"/>
</a>
</g>
</g>
</svg>
