<?xml version="1.0" ?><!DOCTYPE svg  PUBLIC '-//W3C//DTD SVG 1.1//EN'  'http://www.w3.org/Graphics/SVG/1.1/DTD/svg11.dtd'><!-- Generated by graphviz version 2.28.0 (20110630.0925)
 --><!-- Title: _anonymous_0 Pages: 1 --><svg height="484pt" onload="init(evt)" width="688pt" xmlns="http://www.w3.org/2000/svg" xmlns:ismara="ismara.unibas.ch" xmlns:xlink="http://www.w3.org/1999/xlink">
<g class="graph" id="graph1" transform="scale(1 1) rotate(0) translate(54 429.626)">

<polygon fill="white" points="-4,5 -4,-429.626 535.126,-429.626 535.126,5 -4,5" stroke="white"/>
<!-- ZNF711_TFAP2A_TFAP2D -->
<g class="node" id="node1">
<a class="remove32" onmousemove="ShowTooltip(evt, 'Z-value: 2.387')" onmouseout="HideTooltip(evt)" xlink:href="ZNF711_TFAP2A_TFAP2D.svg">
<polygon fill="#ff3232" points="352.813,-230.813 238.813,-230.813 226.813,-218.813 226.813,-206.813 238.813,-194.813 352.813,-194.813 364.813,-206.813 364.813,-218.813 352.813,-230.813" stroke="#ff3232" stroke-width="2"/>
<path d="M238.813,-230.813C232.813,-230.813 226.813,-224.813 226.813,-218.813" fill="#ff3232" stroke="#ff3232" stroke-width="2"/>
<path d="M226.813,-206.813C226.813,-200.813 232.813,-194.813 238.813,-194.813" fill="#ff3232" stroke="#ff3232" stroke-width="2"/>
<path d="M352.813,-194.813C358.813,-194.813 364.813,-200.813 364.813,-206.813" fill="#ff3232" stroke="#ff3232" stroke-width="2"/>
<path d="M364.813,-218.813C364.813,-224.813 358.813,-230.813 352.813,-230.813" fill="#ff3232" stroke="#ff3232" stroke-width="2"/>
<polyline fill="none" points="352.813,-230.813 238.813,-230.813 " stroke="white" stroke-width="2"/>
<path d="M238.813,-230.813C232.813,-230.813 226.813,-224.813 226.813,-218.813" fill="none" stroke="white" stroke-width="2"/>
<polyline fill="none" points="226.813,-218.813 226.813,-206.813 " stroke="white" stroke-width="2"/>
<path d="M226.813,-206.813C226.813,-200.813 232.813,-194.813 238.813,-194.813" fill="none" stroke="white" stroke-width="2"/>
<polyline fill="none" points="238.813,-194.813 352.813,-194.813 " stroke="white" stroke-width="2"/>
<path d="M352.813,-194.813C358.813,-194.813 364.813,-200.813 364.813,-206.813" fill="none" stroke="white" stroke-width="2"/>
<polyline fill="none" points="364.813,-206.813 364.813,-218.813 " stroke="white" stroke-width="2"/>
<path d="M364.813,-218.813C364.813,-224.813 358.813,-230.813 352.813,-230.813" fill="none" stroke="white" stroke-width="2"/>
<text fill="white" font-family="Helvetica,sans-Serif" font-size="10.00" text-anchor="middle" x="295.813" y="-210.313">ZNF711_TFAP2A_TFAP2D</text>
</a>
</g>
<!-- ZNF711_TFAP2A_TFAP2D&#45;&gt;ZNF711_TFAP2A_TFAP2D -->
<g class="edge" id="edge8">
<a class="remove18 root" ismara:data="0.506" onmousemove="ShowTooltip(evt, 'TFAP2A: 0.506|ZNF711: 0.089')" onmouseout="HideTooltip(evt)">
<path d="M365.088,-218.968C375.644,-218.029 382.813,-215.977 382.813,-212.813 382.813,-210.539 379.11,-208.839 373.107,-207.714" fill="none" stroke="#ffb9b9" stroke-width="3"/>
<polygon fill="#ffb9b9" points="373.385,-204.927 365.088,-206.658 372.653,-210.479 373.385,-204.927" stroke="#ffb9b9"/>
</a>
</g>
<!-- GRHL1 -->
<g class="node" id="node2">
<a class="remove27" onmousemove="ShowTooltip(evt, 'Z-value: 0.930')" onmouseout="HideTooltip(evt)" xlink:href="GRHL1.svg">
<polygon fill="#909bff" points="505.626,-283.013 475.626,-283.013 463.626,-271.013 463.626,-259.013 475.626,-247.013 505.626,-247.013 517.626,-259.013 517.626,-271.013 505.626,-283.013" stroke="#909bff" stroke-width="2"/>
<path d="M475.626,-283.013C469.626,-283.013 463.626,-277.013 463.626,-271.013" fill="#909bff" stroke="#909bff" stroke-width="2"/>
<path d="M463.626,-259.013C463.626,-253.013 469.626,-247.013 475.626,-247.013" fill="#909bff" stroke="#909bff" stroke-width="2"/>
<path d="M505.626,-247.013C511.626,-247.013 517.626,-253.013 517.626,-259.013" fill="#909bff" stroke="#909bff" stroke-width="2"/>
<path d="M517.626,-271.013C517.626,-277.013 511.626,-283.013 505.626,-283.013" fill="#909bff" stroke="#909bff" stroke-width="2"/>
<polyline fill="none" points="505.626,-283.013 475.626,-283.013 " stroke="white" stroke-width="2"/>
<path d="M475.626,-283.013C469.626,-283.013 463.626,-277.013 463.626,-271.013" fill="none" stroke="white" stroke-width="2"/>
<polyline fill="none" points="463.626,-271.013 463.626,-259.013 " stroke="white" stroke-width="2"/>
<path d="M463.626,-259.013C463.626,-253.013 469.626,-247.013 475.626,-247.013" fill="none" stroke="white" stroke-width="2"/>
<polyline fill="none" points="475.626,-247.013 505.626,-247.013 " stroke="white" stroke-width="2"/>
<path d="M505.626,-247.013C511.626,-247.013 517.626,-253.013 517.626,-259.013" fill="none" stroke="white" stroke-width="2"/>
<polyline fill="none" points="517.626,-259.013 517.626,-271.013 " stroke="white" stroke-width="2"/>
<path d="M517.626,-271.013C517.626,-277.013 511.626,-283.013 505.626,-283.013" fill="none" stroke="white" stroke-width="2"/>
<text font-family="Helvetica,sans-Serif" font-size="10.00" text-anchor="middle" x="490.626" y="-262.513">GRHL1</text>
</a>
</g>
<!-- ZNF711_TFAP2A_TFAP2D&#45;&gt;GRHL1 -->
<g class="edge" id="edge2">
<a class="remove27 root" ismara:data="2.147" onmousemove="ShowTooltip(evt, 'GRHL1: 2.147')" onmouseout="HideTooltip(evt)">
<path d="M363.129,-230.85C394.092,-239.147 429.553,-248.649 455.204,-255.522" fill="none" stroke="#ff7f7f" stroke-width="3"/>
<polygon fill="#ff7f7f" points="454.717,-258.29 463.169,-257.656 456.166,-252.881 454.717,-258.29" stroke="#ff7f7f"/>
</a>
</g>
<!-- E2F2_E2F5 -->
<g class="node" id="node4">
<a class="remove29" onmousemove="ShowTooltip(evt, 'Z-value: 0.434')" onmouseout="HideTooltip(evt)" xlink:href="E2F2_E2F5.svg">
<polygon fill="#b0b8ff" points="460.426,-373.426 416.426,-373.426 404.426,-361.426 404.426,-349.426 416.426,-337.426 460.426,-337.426 472.426,-349.426 472.426,-361.426 460.426,-373.426" stroke="#b0b8ff" stroke-width="2"/>
<path d="M416.426,-373.426C410.426,-373.426 404.426,-367.426 404.426,-361.426" fill="#b0b8ff" stroke="#b0b8ff" stroke-width="2"/>
<path d="M404.426,-349.426C404.426,-343.426 410.426,-337.426 416.426,-337.426" fill="#b0b8ff" stroke="#b0b8ff" stroke-width="2"/>
<path d="M460.426,-337.426C466.426,-337.426 472.426,-343.426 472.426,-349.426" fill="#b0b8ff" stroke="#b0b8ff" stroke-width="2"/>
<path d="M472.426,-361.426C472.426,-367.426 466.426,-373.426 460.426,-373.426" fill="#b0b8ff" stroke="#b0b8ff" stroke-width="2"/>
<polyline fill="none" points="460.426,-373.426 416.426,-373.426 " stroke="white" stroke-width="2"/>
<path d="M416.426,-373.426C410.426,-373.426 404.426,-367.426 404.426,-361.426" fill="none" stroke="white" stroke-width="2"/>
<polyline fill="none" points="404.426,-361.426 404.426,-349.426 " stroke="white" stroke-width="2"/>
<path d="M404.426,-349.426C404.426,-343.426 410.426,-337.426 416.426,-337.426" fill="none" stroke="white" stroke-width="2"/>
<polyline fill="none" points="416.426,-337.426 460.426,-337.426 " stroke="white" stroke-width="2"/>
<path d="M460.426,-337.426C466.426,-337.426 472.426,-343.426 472.426,-349.426" fill="none" stroke="white" stroke-width="2"/>
<polyline fill="none" points="472.426,-349.426 472.426,-361.426 " stroke="white" stroke-width="2"/>
<path d="M472.426,-361.426C472.426,-367.426 466.426,-373.426 460.426,-373.426" fill="none" stroke="white" stroke-width="2"/>
<text font-family="Helvetica,sans-Serif" font-size="10.00" text-anchor="middle" x="438.426" y="-352.926">E2F2_E2F5</text>
</a>
</g>
<!-- ZNF711_TFAP2A_TFAP2D&#45;&gt;E2F2_E2F5 -->
<g class="edge" id="edge4">
<a class="remove29 root" ismara:data="2.466" onmousemove="ShowTooltip(evt, 'E2F2: 2.466')" onmouseout="HideTooltip(evt)">
<path d="M313.875,-230.875C339.346,-256.346 385.874,-302.874 414.286,-331.286" fill="none" stroke="#ff7474" stroke-width="3"/>
<polygon fill="#ff7474" points="412.423,-333.383 420.06,-337.06 416.383,-329.423 412.423,-333.383" stroke="#ff7474"/>
</a>
</g>
<!-- OVOL1 -->
<g class="node" id="node6">
<a class="remove20" onmousemove="ShowTooltip(evt, 'Z-value: 0.157')" onmouseout="HideTooltip(evt)" xlink:href="OVOL1.svg">
<polygon fill="#c1c8ff" points="363.013,-425.626 333.013,-425.626 321.013,-413.626 321.013,-401.626 333.013,-389.626 363.013,-389.626 375.013,-401.626 375.013,-413.626 363.013,-425.626" stroke="#c1c8ff" stroke-width="2"/>
<path d="M333.013,-425.626C327.013,-425.626 321.013,-419.626 321.013,-413.626" fill="#c1c8ff" stroke="#c1c8ff" stroke-width="2"/>
<path d="M321.013,-401.626C321.013,-395.626 327.013,-389.626 333.013,-389.626" fill="#c1c8ff" stroke="#c1c8ff" stroke-width="2"/>
<path d="M363.013,-389.626C369.013,-389.626 375.013,-395.626 375.013,-401.626" fill="#c1c8ff" stroke="#c1c8ff" stroke-width="2"/>
<path d="M375.013,-413.626C375.013,-419.626 369.013,-425.626 363.013,-425.626" fill="#c1c8ff" stroke="#c1c8ff" stroke-width="2"/>
<polyline fill="none" points="363.013,-425.626 333.013,-425.626 " stroke="white" stroke-width="2"/>
<path d="M333.013,-425.626C327.013,-425.626 321.013,-419.626 321.013,-413.626" fill="none" stroke="white" stroke-width="2"/>
<polyline fill="none" points="321.013,-413.626 321.013,-401.626 " stroke="white" stroke-width="2"/>
<path d="M321.013,-401.626C321.013,-395.626 327.013,-389.626 333.013,-389.626" fill="none" stroke="white" stroke-width="2"/>
<polyline fill="none" points="333.013,-389.626 363.013,-389.626 " stroke="white" stroke-width="2"/>
<path d="M363.013,-389.626C369.013,-389.626 375.013,-395.626 375.013,-401.626" fill="none" stroke="white" stroke-width="2"/>
<polyline fill="none" points="375.013,-401.626 375.013,-413.626 " stroke="white" stroke-width="2"/>
<path d="M375.013,-413.626C375.013,-419.626 369.013,-425.626 363.013,-425.626" fill="none" stroke="white" stroke-width="2"/>
<text font-family="Helvetica,sans-Serif" font-size="10.00" text-anchor="middle" x="348.013" y="-405.126">OVOL1</text>
</a>
</g>
<!-- ZNF711_TFAP2A_TFAP2D&#45;&gt;OVOL1 -->
<g class="edge" id="edge6">
<a class="remove20 root" ismara:data="1.347" onmousemove="ShowTooltip(evt, 'OVOL1: 1.347')" onmouseout="HideTooltip(evt)">
<path d="M300.724,-231.141C310.036,-265.893 330.286,-341.468 341.016,-381.511" fill="none" stroke="#ff9b9b" stroke-width="3"/>
<polygon fill="#ff9b9b" points="338.378,-382.487 343.153,-389.489 343.787,-381.037 338.378,-382.487" stroke="#ff9b9b"/>
</a>
</g>
<!-- RXRA_NR2F6_NR2C2 -->
<g class="node" id="node9">
<a class="remove28" onmousemove="ShowTooltip(evt, 'Z-value: 0.563')" onmouseout="HideTooltip(evt)" xlink:href="RXRA_NR2F6_NR2C2.svg">
<polygon fill="#a7b0ff" points="291.113,-425.626 196.113,-425.626 184.113,-413.626 184.113,-401.626 196.113,-389.626 291.113,-389.626 303.113,-401.626 303.113,-413.626 291.113,-425.626" stroke="#a7b0ff" stroke-width="2"/>
<path d="M196.113,-425.626C190.113,-425.626 184.113,-419.626 184.113,-413.626" fill="#a7b0ff" stroke="#a7b0ff" stroke-width="2"/>
<path d="M184.113,-401.626C184.113,-395.626 190.113,-389.626 196.113,-389.626" fill="#a7b0ff" stroke="#a7b0ff" stroke-width="2"/>
<path d="M291.113,-389.626C297.113,-389.626 303.113,-395.626 303.113,-401.626" fill="#a7b0ff" stroke="#a7b0ff" stroke-width="2"/>
<path d="M303.113,-413.626C303.113,-419.626 297.113,-425.626 291.113,-425.626" fill="#a7b0ff" stroke="#a7b0ff" stroke-width="2"/>
<polyline fill="none" points="291.113,-425.626 196.113,-425.626 " stroke="white" stroke-width="2"/>
<path d="M196.113,-425.626C190.113,-425.626 184.113,-419.626 184.113,-413.626" fill="none" stroke="white" stroke-width="2"/>
<polyline fill="none" points="184.113,-413.626 184.113,-401.626 " stroke="white" stroke-width="2"/>
<path d="M184.113,-401.626C184.113,-395.626 190.113,-389.626 196.113,-389.626" fill="none" stroke="white" stroke-width="2"/>
<polyline fill="none" points="196.113,-389.626 291.113,-389.626 " stroke="white" stroke-width="2"/>
<path d="M291.113,-389.626C297.113,-389.626 303.113,-395.626 303.113,-401.626" fill="none" stroke="white" stroke-width="2"/>
<polyline fill="none" points="303.113,-401.626 303.113,-413.626 " stroke="white" stroke-width="2"/>
<path d="M303.113,-413.626C303.113,-419.626 297.113,-425.626 291.113,-425.626" fill="none" stroke="white" stroke-width="2"/>
<text font-family="Helvetica,sans-Serif" font-size="10.00" text-anchor="middle" x="243.613" y="-405.126">RXRA_NR2F6_NR2C2</text>
</a>
</g>
<!-- ZNF711_TFAP2A_TFAP2D&#45;&gt;RXRA_NR2F6_NR2C2 -->
<g class="edge" id="edge10">
<a class="remove28 root" ismara:data="2.399" onmousemove="ShowTooltip(evt, 'NR2F6: 2.399|NR2C2: 0.835|RXRA: 0.314')" onmouseout="HideTooltip(evt)">
<path d="M290.902,-231.141C281.59,-265.893 261.34,-341.468 250.611,-381.511" fill="none" stroke="#ff7676" stroke-width="3"/>
<polygon fill="#ff7676" points="247.839,-381.037 248.473,-389.489 253.248,-382.487 247.839,-381.037" stroke="#ff7676"/>
</a>
</g>
<!-- MEF2D_MEF2A -->
<g class="node" id="node11">
<a class="remove30" onmousemove="ShowTooltip(evt, 'Z-value: 0.591')" onmouseout="HideTooltip(evt)" xlink:href="MEF2D_MEF2A.svg">
<polygon fill="#a6aeff" points="185.45,-373.426 120.95,-373.426 108.95,-361.426 108.95,-349.426 120.95,-337.426 185.45,-337.426 197.45,-349.426 197.45,-361.426 185.45,-373.426" stroke="#a6aeff" stroke-width="2"/>
<path d="M120.95,-373.426C114.95,-373.426 108.95,-367.426 108.95,-361.426" fill="#a6aeff" stroke="#a6aeff" stroke-width="2"/>
<path d="M108.95,-349.426C108.95,-343.426 114.95,-337.426 120.95,-337.426" fill="#a6aeff" stroke="#a6aeff" stroke-width="2"/>
<path d="M185.45,-337.426C191.45,-337.426 197.45,-343.426 197.45,-349.426" fill="#a6aeff" stroke="#a6aeff" stroke-width="2"/>
<path d="M197.45,-361.426C197.45,-367.426 191.45,-373.426 185.45,-373.426" fill="#a6aeff" stroke="#a6aeff" stroke-width="2"/>
<polyline fill="none" points="185.45,-373.426 120.95,-373.426 " stroke="white" stroke-width="2"/>
<path d="M120.95,-373.426C114.95,-373.426 108.95,-367.426 108.95,-361.426" fill="none" stroke="white" stroke-width="2"/>
<polyline fill="none" points="108.95,-361.426 108.95,-349.426 " stroke="white" stroke-width="2"/>
<path d="M108.95,-349.426C108.95,-343.426 114.95,-337.426 120.95,-337.426" fill="none" stroke="white" stroke-width="2"/>
<polyline fill="none" points="120.95,-337.426 185.45,-337.426 " stroke="white" stroke-width="2"/>
<path d="M185.45,-337.426C191.45,-337.426 197.45,-343.426 197.45,-349.426" fill="none" stroke="white" stroke-width="2"/>
<polyline fill="none" points="197.45,-349.426 197.45,-361.426 " stroke="white" stroke-width="2"/>
<path d="M197.45,-361.426C197.45,-367.426 191.45,-373.426 185.45,-373.426" fill="none" stroke="white" stroke-width="2"/>
<text font-family="Helvetica,sans-Serif" font-size="10.00" text-anchor="middle" x="153.2" y="-352.926">MEF2D_MEF2A</text>
</a>
</g>
<!-- ZNF711_TFAP2A_TFAP2D&#45;&gt;MEF2D_MEF2A -->
<g class="edge" id="edge12">
<a class="remove30 root" ismara:data="2.781" onmousemove="ShowTooltip(evt, 'MEF2A: 2.781')" onmouseout="HideTooltip(evt)">
<path d="M277.751,-230.875C252.28,-256.346 205.752,-302.874 177.34,-331.286" fill="none" stroke="#ff6868" stroke-width="3"/>
<polygon fill="#ff6868" points="175.243,-329.423 171.566,-337.06 179.203,-333.383 175.243,-329.423" stroke="#ff6868"/>
</a>
</g>
<!-- FOXD1_FOXO1_FOXO6_FOXG1_FOXP1 -->
<g class="node" id="node13">
<a class="remove21" onmousemove="ShowTooltip(evt, 'Z-value: 0.656')" onmouseout="HideTooltip(evt)" xlink:href="FOXD1_FOXO1_FOXO6_FOXG1_FOXP1.svg">
<polygon fill="#a1abff" points="190,-283.013 12,-283.013 0,-271.013 0,-259.013 12,-247.013 190,-247.013 202,-259.013 202,-271.013 190,-283.013" stroke="#a1abff" stroke-width="2"/>
<path d="M12,-283.013C6,-283.013 0,-277.013 0,-271.013" fill="#a1abff" stroke="#a1abff" stroke-width="2"/>
<path d="M0,-259.013C0,-253.013 6,-247.013 12,-247.013" fill="#a1abff" stroke="#a1abff" stroke-width="2"/>
<path d="M190,-247.013C196,-247.013 202,-253.013 202,-259.013" fill="#a1abff" stroke="#a1abff" stroke-width="2"/>
<path d="M202,-271.013C202,-277.013 196,-283.013 190,-283.013" fill="#a1abff" stroke="#a1abff" stroke-width="2"/>
<polyline fill="none" points="190,-283.013 12,-283.013 " stroke="white" stroke-width="2"/>
<path d="M12,-283.013C6,-283.013 0,-277.013 0,-271.013" fill="none" stroke="white" stroke-width="2"/>
<polyline fill="none" points="0,-271.013 0,-259.013 " stroke="white" stroke-width="2"/>
<path d="M0,-259.013C0,-253.013 6,-247.013 12,-247.013" fill="none" stroke="white" stroke-width="2"/>
<polyline fill="none" points="12,-247.013 190,-247.013 " stroke="white" stroke-width="2"/>
<path d="M190,-247.013C196,-247.013 202,-253.013 202,-259.013" fill="none" stroke="white" stroke-width="2"/>
<polyline fill="none" points="202,-259.013 202,-271.013 " stroke="white" stroke-width="2"/>
<path d="M202,-271.013C202,-277.013 196,-283.013 190,-283.013" fill="none" stroke="white" stroke-width="2"/>
<text font-family="Helvetica,sans-Serif" font-size="10.00" text-anchor="middle" x="101" y="-262.513">FOXD1_FOXO1_FOXO6_FOXG1_FOXP1</text>
</a>
</g>
<!-- ZNF711_TFAP2A_TFAP2D&#45;&gt;FOXD1_FOXO1_FOXO6_FOXG1_FOXP1 -->
<g class="edge" id="edge14">
<a class="remove21 root" ismara:data="1.482" onmousemove="ShowTooltip(evt, 'FOXP1: 1.482|FOXO6: 1.204|FOXO1: 0.200|FOXG1: 0.121')" onmouseout="HideTooltip(evt)">
<path d="M228.497,-230.85C211.616,-235.374 193.397,-240.255 176.161,-244.874" fill="none" stroke="#ff9797" stroke-width="3"/>
<polygon fill="#ff9797" points="175.322,-242.2 168.319,-246.975 176.771,-247.609 175.322,-242.2" stroke="#ff9797"/>
</a>
</g>
<!-- JUND -->
<g class="node" id="node15">
<a class="remove26" onmousemove="ShowTooltip(evt, 'Z-value: 0.652')" onmouseout="HideTooltip(evt)" xlink:href="JUND.svg">
<polygon fill="#a2abff" points="116,-178.613 86,-178.613 74,-166.613 74,-154.613 86,-142.613 116,-142.613 128,-154.613 128,-166.613 116,-178.613" stroke="#a2abff" stroke-width="2"/>
<path d="M86,-178.613C80,-178.613 74,-172.613 74,-166.613" fill="#a2abff" stroke="#a2abff" stroke-width="2"/>
<path d="M74,-154.613C74,-148.613 80,-142.613 86,-142.613" fill="#a2abff" stroke="#a2abff" stroke-width="2"/>
<path d="M116,-142.613C122,-142.613 128,-148.613 128,-154.613" fill="#a2abff" stroke="#a2abff" stroke-width="2"/>
<path d="M128,-166.613C128,-172.613 122,-178.613 116,-178.613" fill="#a2abff" stroke="#a2abff" stroke-width="2"/>
<polyline fill="none" points="116,-178.613 86,-178.613 " stroke="white" stroke-width="2"/>
<path d="M86,-178.613C80,-178.613 74,-172.613 74,-166.613" fill="none" stroke="white" stroke-width="2"/>
<polyline fill="none" points="74,-166.613 74,-154.613 " stroke="white" stroke-width="2"/>
<path d="M74,-154.613C74,-148.613 80,-142.613 86,-142.613" fill="none" stroke="white" stroke-width="2"/>
<polyline fill="none" points="86,-142.613 116,-142.613 " stroke="white" stroke-width="2"/>
<path d="M116,-142.613C122,-142.613 128,-148.613 128,-154.613" fill="none" stroke="white" stroke-width="2"/>
<polyline fill="none" points="128,-154.613 128,-166.613 " stroke="white" stroke-width="2"/>
<path d="M128,-166.613C128,-172.613 122,-178.613 116,-178.613" fill="none" stroke="white" stroke-width="2"/>
<text font-family="Helvetica,sans-Serif" font-size="10.00" text-anchor="middle" x="101" y="-158.113">JUND</text>
</a>
</g>
<!-- ZNF711_TFAP2A_TFAP2D&#45;&gt;JUND -->
<g class="edge" id="edge16">
<a class="remove26 root" ismara:data="2.132" onmousemove="ShowTooltip(evt, 'JUND: 2.132')" onmouseout="HideTooltip(evt)">
<path d="M228.497,-194.776C197.534,-186.479 162.073,-176.977 136.422,-170.104" fill="none" stroke="#ff8080" stroke-width="3"/>
<polygon fill="#ff8080" points="136.909,-167.336 128.457,-167.97 135.46,-172.745 136.909,-167.336" stroke="#ff8080"/>
</a>
</g>
<!-- GZF1 -->
<g class="node" id="node17">
<a class="remove24" onmousemove="ShowTooltip(evt, 'Z-value: 0.286')" onmouseout="HideTooltip(evt)" xlink:href="GZF1.svg">
<polygon fill="#b9c0ff" points="168.2,-88.2 138.2,-88.2 126.2,-76.2 126.2,-64.2 138.2,-52.2 168.2,-52.2 180.2,-64.2 180.2,-76.2 168.2,-88.2" stroke="#b9c0ff" stroke-width="2"/>
<path d="M138.2,-88.2C132.2,-88.2 126.2,-82.2 126.2,-76.2" fill="#b9c0ff" stroke="#b9c0ff" stroke-width="2"/>
<path d="M126.2,-64.2C126.2,-58.2 132.2,-52.2 138.2,-52.2" fill="#b9c0ff" stroke="#b9c0ff" stroke-width="2"/>
<path d="M168.2,-52.2C174.2,-52.2 180.2,-58.2 180.2,-64.2" fill="#b9c0ff" stroke="#b9c0ff" stroke-width="2"/>
<path d="M180.2,-76.2C180.2,-82.2 174.2,-88.2 168.2,-88.2" fill="#b9c0ff" stroke="#b9c0ff" stroke-width="2"/>
<polyline fill="none" points="168.2,-88.2 138.2,-88.2 " stroke="white" stroke-width="2"/>
<path d="M138.2,-88.2C132.2,-88.2 126.2,-82.2 126.2,-76.2" fill="none" stroke="white" stroke-width="2"/>
<polyline fill="none" points="126.2,-76.2 126.2,-64.2 " stroke="white" stroke-width="2"/>
<path d="M126.2,-64.2C126.2,-58.2 132.2,-52.2 138.2,-52.2" fill="none" stroke="white" stroke-width="2"/>
<polyline fill="none" points="138.2,-52.2 168.2,-52.2 " stroke="white" stroke-width="2"/>
<path d="M168.2,-52.2C174.2,-52.2 180.2,-58.2 180.2,-64.2" fill="none" stroke="white" stroke-width="2"/>
<polyline fill="none" points="180.2,-64.2 180.2,-76.2 " stroke="white" stroke-width="2"/>
<path d="M180.2,-76.2C180.2,-82.2 174.2,-88.2 168.2,-88.2" fill="none" stroke="white" stroke-width="2"/>
<text font-family="Helvetica,sans-Serif" font-size="10.00" text-anchor="middle" x="153.2" y="-67.7">GZF1</text>
</a>
</g>
<!-- ZNF711_TFAP2A_TFAP2D&#45;&gt;GZF1 -->
<g class="edge" id="edge18">
<a class="remove24 root" ismara:data="1.867" onmousemove="ShowTooltip(evt, 'GZF1: 1.867')" onmouseout="HideTooltip(evt)">
<path d="M277.751,-194.751C252.28,-169.28 205.752,-122.752 177.34,-94.3397" fill="none" stroke="#ff8989" stroke-width="3"/>
<polygon fill="#ff8989" points="179.203,-92.2428 171.566,-88.5659 175.243,-96.2026 179.203,-92.2428" stroke="#ff8989"/>
</a>
</g>
<!-- CEBPA -->
<g class="node" id="node19">
<a class="remove22" onmousemove="ShowTooltip(evt, 'Z-value: 0.889')" onmouseout="HideTooltip(evt)" xlink:href="CEBPA.svg">
<polygon fill="#929dff" points="258.613,-36 228.613,-36 216.613,-24 216.613,-12 228.613,-3.19744e-14 258.613,-3.19744e-14 270.613,-12 270.613,-24 258.613,-36" stroke="#929dff" stroke-width="2"/>
<path d="M228.613,-36C222.613,-36 216.613,-30 216.613,-24" fill="#929dff" stroke="#929dff" stroke-width="2"/>
<path d="M216.613,-12C216.613,-6 222.613,-3.19744e-14 228.613,-3.19744e-14" fill="#929dff" stroke="#929dff" stroke-width="2"/>
<path d="M258.613,-3.19744e-14C264.613,-3.19744e-14 270.613,-6 270.613,-12" fill="#929dff" stroke="#929dff" stroke-width="2"/>
<path d="M270.613,-24C270.613,-30 264.613,-36 258.613,-36" fill="#929dff" stroke="#929dff" stroke-width="2"/>
<polyline fill="none" points="258.613,-36 228.613,-36 " stroke="white" stroke-width="2"/>
<path d="M228.613,-36C222.613,-36 216.613,-30 216.613,-24" fill="none" stroke="white" stroke-width="2"/>
<polyline fill="none" points="216.613,-24 216.613,-12 " stroke="white" stroke-width="2"/>
<path d="M216.613,-12C216.613,-6 222.613,-3.19744e-14 228.613,-3.19744e-14" fill="none" stroke="white" stroke-width="2"/>
<polyline fill="none" points="228.613,-3.19744e-14 258.613,-3.19744e-14 " stroke="white" stroke-width="2"/>
<path d="M258.613,-3.19744e-14C264.613,-3.19744e-14 270.613,-6 270.613,-12" fill="none" stroke="white" stroke-width="2"/>
<polyline fill="none" points="270.613,-12 270.613,-24 " stroke="white" stroke-width="2"/>
<path d="M270.613,-24C270.613,-30 264.613,-36 258.613,-36" fill="none" stroke="white" stroke-width="2"/>
<text font-family="Helvetica,sans-Serif" font-size="10.00" text-anchor="middle" x="243.613" y="-15.5">CEBPA</text>
</a>
</g>
<!-- ZNF711_TFAP2A_TFAP2D&#45;&gt;CEBPA -->
<g class="edge" id="edge20">
<a class="remove22 root" ismara:data="1.518" onmousemove="ShowTooltip(evt, 'CEBPA: 1.518')" onmouseout="HideTooltip(evt)">
<path d="M290.902,-194.486C281.59,-159.733 261.34,-84.1586 250.611,-44.115" fill="none" stroke="#ff9595" stroke-width="3"/>
<polygon fill="#ff9595" points="253.248,-43.1396 248.473,-36.1369 247.839,-44.589 253.248,-43.1396" stroke="#ff9595"/>
</a>
</g>
<!-- TFAP2C -->
<g class="node" id="node21">
<a class="remove25" onmousemove="ShowTooltip(evt, 'Z-value: 0.810')" onmouseout="HideTooltip(evt)" xlink:href="TFAP2C.svg">
<polygon fill="#98a2ff" points="363.263,-36 332.763,-36 320.763,-24 320.763,-12 332.763,3.19744e-14 363.263,3.19744e-14 375.263,-12 375.263,-24 363.263,-36" stroke="#98a2ff" stroke-width="2"/>
<path d="M332.763,-36C326.763,-36 320.763,-30 320.763,-24" fill="#98a2ff" stroke="#98a2ff" stroke-width="2"/>
<path d="M320.763,-12C320.763,-6 326.763,3.19744e-14 332.763,3.19744e-14" fill="#98a2ff" stroke="#98a2ff" stroke-width="2"/>
<path d="M363.263,3.19744e-14C369.263,3.19744e-14 375.263,-6 375.263,-12" fill="#98a2ff" stroke="#98a2ff" stroke-width="2"/>
<path d="M375.263,-24C375.263,-30 369.263,-36 363.263,-36" fill="#98a2ff" stroke="#98a2ff" stroke-width="2"/>
<polyline fill="none" points="363.263,-36 332.763,-36 " stroke="white" stroke-width="2"/>
<path d="M332.763,-36C326.763,-36 320.763,-30 320.763,-24" fill="none" stroke="white" stroke-width="2"/>
<polyline fill="none" points="320.763,-24 320.763,-12 " stroke="white" stroke-width="2"/>
<path d="M320.763,-12C320.763,-6 326.763,3.19744e-14 332.763,3.19744e-14" fill="none" stroke="white" stroke-width="2"/>
<polyline fill="none" points="332.763,3.19744e-14 363.263,3.19744e-14 " stroke="white" stroke-width="2"/>
<path d="M363.263,3.19744e-14C369.263,3.19744e-14 375.263,-6 375.263,-12" fill="none" stroke="white" stroke-width="2"/>
<polyline fill="none" points="375.263,-12 375.263,-24 " stroke="white" stroke-width="2"/>
<path d="M375.263,-24C375.263,-30 369.263,-36 363.263,-36" fill="none" stroke="white" stroke-width="2"/>
<text font-family="Helvetica,sans-Serif" font-size="10.00" text-anchor="middle" x="348.013" y="-15.5">TFAP2C</text>
</a>
</g>
<!-- ZNF711_TFAP2A_TFAP2D&#45;&gt;TFAP2C -->
<g class="edge" id="edge22">
<a class="remove25 root" ismara:data="1.922" onmousemove="ShowTooltip(evt, 'TFAP2C: 1.922')" onmouseout="HideTooltip(evt)">
<path d="M300.724,-194.486C310.036,-159.733 330.286,-84.1586 341.016,-44.115" fill="none" stroke="#ff8787" stroke-width="3"/>
<polygon fill="#ff8787" points="343.787,-44.589 343.153,-36.1369 338.378,-43.1396 343.787,-44.589" stroke="#ff8787"/>
</a>
</g>
<!-- POU5F1_POU2F3 -->
<g class="node" id="node23">
<a class="remove23" onmousemove="ShowTooltip(evt, 'Z-value: 0.774')" onmouseout="HideTooltip(evt)" xlink:href="POU5F1_POU2F3.svg">
<polygon fill="#9aa4ff" points="474.926,-88.2 401.926,-88.2 389.926,-76.2 389.926,-64.2 401.926,-52.2 474.926,-52.2 486.926,-64.2 486.926,-76.2 474.926,-88.2" stroke="#9aa4ff" stroke-width="2"/>
<path d="M401.926,-88.2C395.926,-88.2 389.926,-82.2 389.926,-76.2" fill="#9aa4ff" stroke="#9aa4ff" stroke-width="2"/>
<path d="M389.926,-64.2C389.926,-58.2 395.926,-52.2 401.926,-52.2" fill="#9aa4ff" stroke="#9aa4ff" stroke-width="2"/>
<path d="M474.926,-52.2C480.926,-52.2 486.926,-58.2 486.926,-64.2" fill="#9aa4ff" stroke="#9aa4ff" stroke-width="2"/>
<path d="M486.926,-76.2C486.926,-82.2 480.926,-88.2 474.926,-88.2" fill="#9aa4ff" stroke="#9aa4ff" stroke-width="2"/>
<polyline fill="none" points="474.926,-88.2 401.926,-88.2 " stroke="white" stroke-width="2"/>
<path d="M401.926,-88.2C395.926,-88.2 389.926,-82.2 389.926,-76.2" fill="none" stroke="white" stroke-width="2"/>
<polyline fill="none" points="389.926,-76.2 389.926,-64.2 " stroke="white" stroke-width="2"/>
<path d="M389.926,-64.2C389.926,-58.2 395.926,-52.2 401.926,-52.2" fill="none" stroke="white" stroke-width="2"/>
<polyline fill="none" points="401.926,-52.2 474.926,-52.2 " stroke="white" stroke-width="2"/>
<path d="M474.926,-52.2C480.926,-52.2 486.926,-58.2 486.926,-64.2" fill="none" stroke="white" stroke-width="2"/>
<polyline fill="none" points="486.926,-64.2 486.926,-76.2 " stroke="white" stroke-width="2"/>
<path d="M486.926,-76.2C486.926,-82.2 480.926,-88.2 474.926,-88.2" fill="none" stroke="white" stroke-width="2"/>
<text font-family="Helvetica,sans-Serif" font-size="10.00" text-anchor="middle" x="438.426" y="-67.7">POU5F1_POU2F3</text>
</a>
</g>
<!-- ZNF711_TFAP2A_TFAP2D&#45;&gt;POU5F1_POU2F3 -->
<g class="edge" id="edge24">
<a class="remove23 root" ismara:data="1.589" onmousemove="ShowTooltip(evt, 'POU5F1: 1.589|POU2F3: 0.217')" onmouseout="HideTooltip(evt)">
<path d="M313.875,-194.751C339.346,-169.28 385.874,-122.752 414.286,-94.3397" fill="none" stroke="#ff9393" stroke-width="3"/>
<polygon fill="#ff9393" points="416.383,-96.2026 420.06,-88.5659 412.423,-92.2428 416.383,-96.2026" stroke="#ff9393"/>
</a>
</g>
<!-- EPAS1_BCL3 -->
<g class="node" id="node25">
<a class="remove31" onmousemove="ShowTooltip(evt, 'Z-value: 0.784')" onmouseout="HideTooltip(evt)" xlink:href="EPAS1_BCL3.svg">
<polygon fill="#99a3ff" points="517.876,-178.613 463.376,-178.613 451.376,-166.613 451.376,-154.613 463.376,-142.613 517.876,-142.613 529.876,-154.613 529.876,-166.613 517.876,-178.613" stroke="#99a3ff" stroke-width="2"/>
<path d="M463.376,-178.613C457.376,-178.613 451.376,-172.613 451.376,-166.613" fill="#99a3ff" stroke="#99a3ff" stroke-width="2"/>
<path d="M451.376,-154.613C451.376,-148.613 457.376,-142.613 463.376,-142.613" fill="#99a3ff" stroke="#99a3ff" stroke-width="2"/>
<path d="M517.876,-142.613C523.876,-142.613 529.876,-148.613 529.876,-154.613" fill="#99a3ff" stroke="#99a3ff" stroke-width="2"/>
<path d="M529.876,-166.613C529.876,-172.613 523.876,-178.613 517.876,-178.613" fill="#99a3ff" stroke="#99a3ff" stroke-width="2"/>
<polyline fill="none" points="517.876,-178.613 463.376,-178.613 " stroke="white" stroke-width="2"/>
<path d="M463.376,-178.613C457.376,-178.613 451.376,-172.613 451.376,-166.613" fill="none" stroke="white" stroke-width="2"/>
<polyline fill="none" points="451.376,-166.613 451.376,-154.613 " stroke="white" stroke-width="2"/>
<path d="M451.376,-154.613C451.376,-148.613 457.376,-142.613 463.376,-142.613" fill="none" stroke="white" stroke-width="2"/>
<polyline fill="none" points="463.376,-142.613 517.876,-142.613 " stroke="white" stroke-width="2"/>
<path d="M517.876,-142.613C523.876,-142.613 529.876,-148.613 529.876,-154.613" fill="none" stroke="white" stroke-width="2"/>
<polyline fill="none" points="529.876,-154.613 529.876,-166.613 " stroke="white" stroke-width="2"/>
<path d="M529.876,-166.613C529.876,-172.613 523.876,-178.613 517.876,-178.613" fill="none" stroke="white" stroke-width="2"/>
<text font-family="Helvetica,sans-Serif" font-size="10.00" text-anchor="middle" x="490.626" y="-158.113">EPAS1_BCL3</text>
</a>
</g>
<!-- ZNF711_TFAP2A_TFAP2D&#45;&gt;EPAS1_BCL3 -->
<g class="edge" id="edge26">
<a class="remove31 root" ismara:data="4.292" onmousemove="ShowTooltip(evt, 'BCL3: 4.292|EPAS1: 0.098')" onmouseout="HideTooltip(evt)">
<path d="M363.129,-194.776C389.413,-187.733 418.938,-179.822 442.952,-173.387" fill="none" stroke="#ff3232" stroke-width="3"/>
<polygon fill="#ff3232" points="443.869,-176.04 450.872,-171.265 442.419,-170.631 443.869,-176.04" stroke="#ff3232"/>
</a>
</g>
<!-- GRHL1&#45;&gt;RXRA_NR2F6_NR2C2 -->
<g class="edge" id="edge28">
<a class="remove19 root" ismara:data="0.939" onmousemove="ShowTooltip(evt, 'NR2F6: 0.939')" onmouseout="HideTooltip(evt)">
<path d="M463.248,-280.82C419.19,-306.257 332.421,-356.353 282.136,-385.385" fill="none" stroke="#e3aaff" stroke-width="3"/>
<polygon fill="#e3aaff" points="280.52,-383.085 274.991,-389.51 283.32,-387.935 280.52,-383.085" stroke="#e3aaff"/>
</a>
</g>
<!-- E2F2_E2F5&#45;&gt;MEF2D_MEF2A -->
<g class="edge" id="edge64">
<a class="remove0 root" ismara:data="0.005" onmousemove="ShowTooltip(evt, 'MEF2A: 0.005')" onmouseout="HideTooltip(evt)">
<path d="M404.304,-355.426C355.118,-355.426 263.853,-355.426 205.947,-355.426" fill="none" stroke="#eecbff" stroke-width="3"/>
<polygon fill="#eecbff" points="205.655,-352.626 197.655,-355.426 205.655,-358.226 205.655,-352.626" stroke="#eecbff"/>
</a>
</g>
<!-- RXRA_NR2F6_NR2C2&#45;&gt;RXRA_NR2F6_NR2C2 -->
<g class="edge" id="edge62">
<a class="remove5 root" ismara:data="0.058" onmousemove="ShowTooltip(evt, 'NR2F6: 0.058|NR2C2: 0.022')" onmouseout="HideTooltip(evt)">
<path d="M303.341,-413.927C313.544,-413.066 320.613,-410.966 320.613,-407.626 320.613,-405.278 317.118,-403.542 311.496,-402.419" fill="none" stroke="#eec9ff" stroke-width="3"/>
<polygon fill="#eec9ff" points="311.642,-399.614 303.341,-401.325 310.897,-405.164 311.642,-399.614" stroke="#eec9ff"/>
</a>
</g>
<!-- FOXD1_FOXO1_FOXO6_FOXG1_FOXP1&#45;&gt;FOXD1_FOXO1_FOXO6_FOXG1_FOXP1 -->
<g class="edge" id="edge58">
<a class="remove17 root" ismara:data="0.292" onmousemove="ShowTooltip(evt, 'FOXP1: 0.292|FOXO1: 0.176')" onmouseout="HideTooltip(evt)">
<path d="M202.138,-270.649C213.008,-269.564 220,-267.685 220,-265.013 220,-263.093 216.388,-261.582 210.32,-260.481" fill="none" stroke="#ebc1ff" stroke-width="3"/>
<polygon fill="#ebc1ff" points="210.44,-257.672 202.138,-259.377 209.691,-263.222 210.44,-257.672" stroke="#ebc1ff"/>
</a>
</g>
<!-- FOXD1_FOXO1_FOXO6_FOXG1_FOXP1&#45;&gt;JUND -->
<g class="edge" id="edge60">
<a class="remove9 root" ismara:data="0.081" onmousemove="ShowTooltip(evt, 'JUND: 0.081')" onmouseout="HideTooltip(evt)">
<path d="M101,-246.828C101,-230.312 101,-205.75 101,-187.063" fill="none" stroke="#edc9ff" stroke-width="3"/>
<polygon fill="#edc9ff" points="103.8,-186.94 101,-178.94 98.2001,-186.94 103.8,-186.94" stroke="#edc9ff"/>
</a>
</g>
<!-- TFAP2C&#45;&gt;OVOL1 -->
<g class="edge" id="edge30">
<a class="remove12 root" ismara:data="0.109" onmousemove="ShowTooltip(evt, 'OVOL1: 0.109')" onmouseout="HideTooltip(evt)">
<path d="M351.898,-36.1657C358.417,-67.6831 371.295,-134.622 375.853,-191.933 381.328,-260.774 364.769,-341.346 354.866,-381.748" fill="none" stroke="#edc8ff" stroke-width="3"/>
<polygon fill="#edc8ff" points="352.15,-381.069 352.923,-389.509 357.582,-382.428 352.15,-381.069" stroke="#edc8ff"/>
</a>
</g>
<!-- TFAP2C&#45;&gt;RXRA_NR2F6_NR2C2 -->
<g class="edge" id="edge32">
<a class="remove14 root" ismara:data="0.181" onmousemove="ShowTooltip(evt, 'NR2F6: 0.181|NR2C2: 0.118|TFAP2C: 0.027')" onmouseout="HideTooltip(evt)">
<path d="M359.529,-43.4696C374.853,-84.756 399.025,-167.498 376.801,-234.012 355.751,-296.209 303.203,-353.481 270.928,-384.445" fill="none" stroke="#ecc5ff" stroke-width="3"/>
<path d="M357.654,-44.1656C372.933,-85.3169 397.105,-168.059 374.905,-233.374 354.277,-294.857 301.729,-352.129 269.543,-383.001" fill="none" stroke="#eecbff" stroke-width="3"/>
<polygon fill="#eecbff" points="361.132,-42.6222 355.665,-36.1447 355.899,-44.6174 361.132,-42.6222" stroke="#eecbff"/>
<polygon fill="#ecc5ff" points="267.964,-382.017 264.076,-389.549 271.812,-386.086 267.964,-382.017" stroke="#ecc5ff"/>
</a>
</g>
<!-- TFAP2C&#45;&gt;MEF2D_MEF2A -->
<g class="edge" id="edge34">
<a class="remove8 root" ismara:data="0.07" onmousemove="ShowTooltip(evt, 'MEF2A: 0.070')" onmouseout="HideTooltip(evt)">
<path d="M327.55,-36.0775C296.308,-65.2049 238.001,-125.97 215.773,-191.933 209.846,-209.521 213.692,-215.25 215.773,-233.693 216.307,-238.423 217.626,-239.403 218.16,-244.133 220.241,-262.576 224.97,-268.628 218.16,-285.893 211.064,-303.884 196.873,-319.962 183.56,-332.114" fill="none" stroke="#edc9ff" stroke-width="3"/>
<polygon fill="#edc9ff" points="181.692,-330.028 177.534,-337.413 185.39,-334.233 181.692,-330.028" stroke="#edc9ff"/>
</a>
</g>
<!-- TFAP2C&#45;&gt;FOXD1_FOXO1_FOXO6_FOXG1_FOXP1 -->
<g class="edge" id="edge36">
<a class="remove6 root" ismara:data="0.058" onmousemove="ShowTooltip(evt, 'FOXP1: 0.058|FOXO6: 0.029')" onmouseout="HideTooltip(evt)">
<path d="M329.85,-36.1635C285.954,-80.0593 174.105,-191.908 124.875,-241.139" fill="none" stroke="#eec9ff" stroke-width="3"/>
<polygon fill="#eec9ff" points="122.867,-239.186 119.19,-246.823 126.827,-243.146 122.867,-239.186" stroke="#eec9ff"/>
</a>
</g>
<!-- TFAP2C&#45;&gt;JUND -->
<g class="edge" id="edge38">
<a class="remove13 root" ismara:data="0.114" onmousemove="ShowTooltip(evt, 'JUND: 0.114')" onmouseout="HideTooltip(evt)">
<path d="M320.635,-33.807C275.26,-60.0043 184.582,-112.357 135.114,-140.917" fill="none" stroke="#edc7ff" stroke-width="3"/>
<polygon fill="#edc7ff" points="133.653,-138.528 128.125,-144.953 136.453,-143.377 133.653,-138.528" stroke="#edc7ff"/>
</a>
</g>
<!-- TFAP2C&#45;&gt;GZF1 -->
<g class="edge" id="edge40">
<a class="remove1 root" ismara:data="0.017" onmousemove="ShowTooltip(evt, 'GZF1: 0.017')" onmouseout="HideTooltip(evt)">
<path d="M320.645,-26.0051C306.944,-29.9655 290.087,-34.7665 274.933,-38.88 245.794,-46.7897 212.594,-55.2983 188.234,-61.4479" fill="none" stroke="#eecbff" stroke-width="3"/>
<polygon fill="#eecbff" points="187.404,-58.7694 180.33,-63.4387 188.772,-64.1998 187.404,-58.7694" stroke="#eecbff"/>
</a>
</g>
<!-- TFAP2C&#45;&gt;CEBPA -->
<g class="edge" id="edge42">
<a class="remove2 root" ismara:data="0.041" onmousemove="ShowTooltip(evt, 'CEBPA: 0.041')" onmouseout="HideTooltip(evt)">
<path d="M320.583,-18C307.876,-18 292.618,-18 279.051,-18" fill="none" stroke="#eecaff" stroke-width="3"/>
<polygon fill="#eecaff" points="278.86,-15.2001 270.86,-18 278.86,-20.8001 278.86,-15.2001" stroke="#eecaff"/>
</a>
</g>
<!-- TFAP2C&#45;&gt;TFAP2C -->
<g class="edge" id="edge44">
<a class="remove7 root" ismara:data="0.059" onmousemove="ShowTooltip(evt, 'TFAP2C: 0.059')" onmouseout="HideTooltip(evt)">
<path d="M375.697,-24.7484C385.277,-24.8198 393.013,-22.5703 393.013,-18 393.013,-14.8579 389.356,-12.8128 383.958,-11.8646" fill="none" stroke="#eec9ff" stroke-width="3"/>
<polygon fill="#eec9ff" points="383.883,-9.05141 375.697,-11.2516 383.468,-14.6361 383.883,-9.05141" stroke="#eec9ff"/>
</a>
</g>
<!-- TFAP2C&#45;&gt;POU5F1_POU2F3 -->
<g class="edge" id="edge46">
<a class="remove11 root" ismara:data="0.102" onmousemove="ShowTooltip(evt, 'POU5F1: 0.102|POU2F3: 0.023')" onmouseout="HideTooltip(evt)">
<path d="M375.631,-33.9454C383.265,-38.3528 391.692,-43.2179 399.827,-47.9146" fill="none" stroke="#edc8ff" stroke-width="3"/>
<polygon fill="#edc8ff" points="398.856,-50.5875 407.184,-52.1626 401.656,-45.7377 398.856,-50.5875" stroke="#edc8ff"/>
</a>
</g>
<!-- TFAP2C&#45;&gt;EPAS1_BCL3 -->
<g class="edge" id="edge48">
<a class="remove16 root" ismara:data="0.272" onmousemove="ShowTooltip(evt, 'BCL3: 0.272')" onmouseout="HideTooltip(evt)">
<path d="M353.128,-36.1502C358.3,-52.0176 367.55,-74.9759 381.586,-91.08 398.816,-110.849 423.021,-127.052 444.25,-138.829" fill="none" stroke="#ebc2ff" stroke-width="3"/>
<polygon fill="#ebc2ff" points="442.952,-141.31 451.321,-142.652 445.615,-136.384 442.952,-141.31" stroke="#ebc2ff"/>
</a>
</g>
<!-- POU5F1_POU2F3&#45;&gt;E2F2_E2F5 -->
<g class="edge" id="edge50">
<a class="remove4 root" ismara:data="0.043" onmousemove="ShowTooltip(evt, 'E2F5: 0.043')" onmouseout="HideTooltip(evt)">
<path d="M438.426,-88.4761C438.426,-137.478 438.426,-271.941 438.426,-329.128" fill="none" stroke="#eecaff" stroke-width="3"/>
<polygon fill="#eecaff" points="435.626,-329.302 438.426,-337.302 441.226,-329.302 435.626,-329.302" stroke="#eecaff"/>
</a>
</g>
<!-- POU5F1_POU2F3&#45;&gt;RXRA_NR2F6_NR2C2 -->
<g class="edge" id="edge52">
<a class="remove3 root" ismara:data="0.042" onmousemove="ShowTooltip(evt, 'NR2C2: 0.042')" onmouseout="HideTooltip(evt)">
<path d="M433.335,-88.3573C424.248,-119.341 403.562,-183.898 375.853,-233.693 343.69,-291.493 293.987,-351.251 265.562,-383.483" fill="none" stroke="#eecaff" stroke-width="3"/>
<polygon fill="#eecaff" points="263.39,-381.712 260.173,-389.553 267.578,-385.43 263.39,-381.712" stroke="#eecaff"/>
</a>
</g>
<!-- POU5F1_POU2F3&#45;&gt;FOXD1_FOXO1_FOXO6_FOXG1_FOXP1 -->
<g class="edge" id="edge54">
<a class="remove10 root" ismara:data="0.091" onmousemove="ShowTooltip(evt, 'FOXP1: 0.091')" onmouseout="HideTooltip(evt)">
<path d="M403.698,-88.2661C359.549,-111.442 281.201,-153.275 215.773,-191.933 188.311,-208.159 157.887,-227.6 135.267,-242.35" fill="none" stroke="#edc8ff" stroke-width="3"/>
<polygon fill="#edc8ff" points="133.673,-240.047 128.509,-246.768 136.737,-244.734 133.673,-240.047" stroke="#edc8ff"/>
</a>
</g>
<!-- POU5F1_POU2F3&#45;&gt;POU5F1_POU2F3 -->
<g class="edge" id="edge56">
<a class="remove15 root" ismara:data="0.236" onmousemove="ShowTooltip(evt, 'POU2F3: 0.236')" onmouseout="HideTooltip(evt)">
<path d="M487.066,-76.7127C497.164,-76.0272 504.426,-73.8563 504.426,-70.2 504.426,-67.6292 500.836,-65.7927 495.194,-64.6906" fill="none" stroke="#ebc3ff" stroke-width="3"/>
<polygon fill="#ebc3ff" points="495.349,-61.8885 487.066,-63.6873 494.663,-67.4464 495.349,-61.8885" stroke="#ebc3ff"/>
</a>
</g>
</g>
<rect height="14" id="tooltip_bg" style="fill: white; stroke: black; opacity: 0.8;" visibility="hidden"/><text id="tooltip" style="font-size: 10px;font-weight: bold;" visibility="hidden"></text><g id="plus" onclick="showSome();moveSlider();setThreshold();"><circle cx="22" cy="22" r="10" style="fill: #dddddd; opacity: 100%;"/><line stroke="#888888" stroke-width="2" x1="16" x2="28" y1="22" y2="22"/><line stroke="#888888" stroke-width="2" x1="22" x2="22" y1="16" y2="28"/></g><g id="minus" onclick="hideSome();moveSlider();setThreshold();"><circle cx="22" cy="412" r="10" style="fill: #dddddd; opacity: 100%;"/><line stroke="#888888" stroke-width="2" x1="16" x2="28" y1="412" y2="412"/></g><line id="slider_scale" onmousedown="jump_slider(evt)" stroke="#888888" stroke-width="5" x1="22" x2="22" y1="40" y2="394"/><circle cx="22" cy="50" id="slider" onmousedown="grab(evt)" onmouseout="release(evt)" onmouseup="release(evt)" r="15" style="fill:#922"/><script type="text/ecmascript"><![CDATA[
    var svgNS = "http://www.w3.org/2000/svg";
    var edge_num = 32;
    var counter = 0;
    var tooltip, tooltip_bg;

    function init(evt) {
        if ( window.svgDocument == null ) {
            svgDocument = evt.target.ownerDocument;
        }
        tooltip = svgDocument.getElementById('tooltip');
        tooltip_bg = svgDocument.getElementById('tooltip_bg');
        setThreshold();
    }

    function ShowTooltip(evt, txt) {
        var length = 0;
        var height;
        var tooltip_x = evt.pageX + 18;
        var tooltip_y = evt.pageY + 22;
        var bg_x = evt.pageX + 10;
        var bg_y = evt.pageY + 10;

        /* Clean toolip content */
        while (tooltip.lastChild) {
            tooltip.removeChild(tooltip.lastChild)
        }

        /* Populate tooltip with tspan elements and get longest of them */
        var text_elements = txt.split('|');
        for (var i = 0; i  < text_elements.length; i++) {
            var shift_y = 12;
            if (i == 0) {
                shift_y = 0;
            }
            var tspan_element = document.createElementNS(svgNS, "tspan");
            tspan_element.setAttributeNS(null, "dy", shift_y);
            tspan_element.setAttributeNS(null, "x", tooltip_x);
            var text_node = svgDocument.createTextNode(text_elements[i]);
            tspan_element.appendChild(text_node);
            tooltip.appendChild(tspan_element);
            var tspan_length = tspan_element.getComputedTextLength();
            if (tspan_length > length) {
                length = tspan_length
            }
        }
        /* add right margin to tooltip */
        length = length + 15;
        height = 12 * text_elements.length + 5;
        tooltip_bg.setAttributeNS(null,"width",length);
        tooltip_bg.setAttributeNS(null,"height",height);
        tooltip_bg.setAttributeNS(null,"x", bg_x);
        tooltip_bg.setAttributeNS(null,"y", bg_y);
        tooltip_bg.setAttributeNS(null,"visibility","visible");
        tooltip.setAttributeNS(null,"x", tooltip_x);
        tooltip.setAttributeNS(null,"y", tooltip_y);
        tooltip.setAttributeNS(null,"visibility","visible");
    }
    function HideTooltip() {
      tooltip.setAttributeNS(null,"visibility","hidden");
      tooltip_bg.setAttributeNS(null,"visibility","hidden");
    }

    /*** Hide/Show edges functions ***/

    function hideSome() {
      if (counter >= edge_num -1) {
        return 1;
      }
      var elements = svgDocument.getElementsByClassName('remove' + counter);
      for (var i = 0; i < elements.length; i++) {
        elements[i].setAttributeNS(null,"visibility","hidden");
      }
      counter = counter + 1;
    }

    function showSome() {
      if (counter <= 0) {
        return 1;
      }
      counter = counter - 1;
      var elements = svgDocument.getElementsByClassName('remove' + counter);
      for (var i = 0; i < elements.length; i++) {
        elements[i].setAttributeNS(null,"visibility","visible");
      }
    }

    function setThreshold() {
        var elements = svgDocument.getElementsByClassName('remove' + counter);
        var score = 0;
        for (var i = 0; i < elements.length; i++) {
            if (elements[i].classList.contains("root")){
                if (elements[i].hasAttributeNS("ismara.unibas.ch", "data")) {
                    score = elements[i].getAttributeNS("ismara.unibas.ch", "data");
                }
            } 
        }
        svgDocument.getElementById("score_indicator").textContent = "Score threshold: " + score;
    }

    /*** Slider functions ***/

    var slider_maxY = parseInt(document.getElementById("slider_scale").getAttributeNS(null, "y2"));
    var slider_minY = parseInt(document.getElementById("slider_scale").getAttributeNS(null, "y1"));
    var slider_r = parseInt(document.getElementById("slider").getAttributeNS(null, "r"));
    var coef = (edge_num - 1) / (slider_maxY - slider_minY - 2 * slider_r);

    function grab(evt){
        var element = evt.target;
        var Attr = {"onmousemove":"slide(evt,'"+element.id+"')"};
        assignAttr(element, Attr);
    }

    function release(evt){
        var element = evt.target;
        var Attr = {"onmousemove":null};
        assignAttr(element, Attr);
    }

    function assignAttr(obj,attr){
        for (i in attr) obj.setAttributeNS(null,i, attr[i]);
    }

    function slide(evt,id){
        var slider = evt.target;
        var y = evt.pageY;
        var new_counter = Math.floor((evt.pageY - slider_minY - slider_r) * coef);
        if (evt.pageY > (slider_maxY - slider_r)) {
            slider.setAttributeNS(null, "cy", (slider_maxY - slider_r));
            new_counter = edge_num;
        } else if(evt.pageY < (slider_minY + slider_r)) {
            slider.setAttributeNS(null, "cy", (slider_minY + slider_r));
            new_counter = 1;
        } else {
            slider.setAttributeNS(null, "cy", evt.pageY);
        }

        if (new_counter < counter) {
                showSome();
            counter = new_counter;
        }
        if (new_counter > counter) {
                hideSome();
            counter = new_counter;
        }
        setThreshold();
    }

    function moveSlider() {
        circle = document.getElementById("slider");
        circle.setAttributeNS(null, "cy",  slider_minY +  slider_r + (counter) / coef);
    }

    function jump_slider(evt) {
        var slider = document.getElementById("slider");
        var new_counter = Math.floor((evt.pageY - slider_minY - slider_r) * coef);
        if (evt.pageY > (slider_maxY - slider_r)) {
            slider.setAttributeNS(null, "cy", (slider_maxY - slider_r));
            new_counter = edge_num;
        } else if(evt.pageY < (slider_minY + slider_r)) {
             slider.setAttributeNS(null, "cy", (slider_minY + slider_r));
            new_counter = 1;
        } else {
            slider.setAttributeNS(null, "cy", evt.pageY);
        }

        if (new_counter > counter) {
            var d = new_counter - counter;
            for (var i = 0; i < d; i++){
                hideSome();
            }
            counter = new_counter;
        }
        if (new_counter < counter) {
            var d = counter - new_counter;
            for (var i = 0; i < d; i++){
                showSome();
            }
            counter = new_counter;
        }
        setThreshold();
    }
    ]]></script><text id="score_indicator" style="font-size: 10px;font-weight: bold;" x="10" y="444">Score threshold: 0</text><text id="info" style="font-size: 10px;font-weight: bold;" x="10" y="459">Use slider or -/+ buttons to hide/show edges.</text></svg>