<?xml version="1.0" encoding="UTF-8" standalone="no"?>
<!DOCTYPE svg PUBLIC "-//W3C//DTD SVG 1.1//EN"
 "http://www.w3.org/Graphics/SVG/1.1/DTD/svg11.dtd">
<!-- Generated by graphviz version 2.28.0 (20110630.0925)
 -->
<!-- Title: _anonymous_0 Pages: 1 -->
<svg width="764pt" height="722pt"
 viewBox="0.00 0.00 763.99 722.49" xmlns="http://www.w3.org/2000/svg" xmlns:xlink="http://www.w3.org/1999/xlink">
<g id="graph1" class="graph" transform="scale(1 1) rotate(0) translate(4 718.487)">
<title>_anonymous_0</title>
<polygon fill="white" stroke="white" points="-4,5 -4,-718.487 760.987,-718.487 760.987,5 -4,5"/>
<!-- FOXM1_TBL1XR1 -->
<g id="node1" class="node"><title>FOXM1_TBL1XR1</title>
<a xlink:href="FOXM1_TBL1XR1.svg" xlink:title="Z&#45;value: 2.140||remove17">
<polygon fill="#3247ff" stroke="#3247ff" stroke-width="2" points="311.843,-36 238.843,-36 226.843,-24 226.843,-12 238.843,-6.39488e-14 311.843,-6.39488e-14 323.843,-12 323.843,-24 311.843,-36"/>
<path fill="#3247ff" stroke="#3247ff" stroke-width="2" d="M238.843,-36C232.843,-36 226.843,-30 226.843,-24"/>
<path fill="#3247ff" stroke="#3247ff" stroke-width="2" d="M226.843,-12C226.843,-6 232.843,-6.39488e-14 238.843,-6.39488e-14"/>
<path fill="#3247ff" stroke="#3247ff" stroke-width="2" d="M311.843,-6.39488e-14C317.843,-6.39488e-14 323.843,-6 323.843,-12"/>
<path fill="#3247ff" stroke="#3247ff" stroke-width="2" d="M323.843,-24C323.843,-30 317.843,-36 311.843,-36"/>
<polyline fill="none" stroke="white" stroke-width="2" points="311.843,-36 238.843,-36 "/>
<path fill="none" stroke="white" stroke-width="2" d="M238.843,-36C232.843,-36 226.843,-30 226.843,-24"/>
<polyline fill="none" stroke="white" stroke-width="2" points="226.843,-24 226.843,-12 "/>
<path fill="none" stroke="white" stroke-width="2" d="M226.843,-12C226.843,-6 232.843,-6.39488e-14 238.843,-6.39488e-14"/>
<polyline fill="none" stroke="white" stroke-width="2" points="238.843,-6.39488e-14 311.843,-6.39488e-14 "/>
<path fill="none" stroke="white" stroke-width="2" d="M311.843,-6.39488e-14C317.843,-6.39488e-14 323.843,-6 323.843,-12"/>
<polyline fill="none" stroke="white" stroke-width="2" points="323.843,-12 323.843,-24 "/>
<path fill="none" stroke="white" stroke-width="2" d="M323.843,-24C323.843,-30 317.843,-36 311.843,-36"/>
<text text-anchor="middle" x="275.343" y="-15.5" font-family="Helvetica,sans-Serif" font-size="10.00" fill="white">FOXM1_TBL1XR1</text>
</a>
</g>
<!-- CPEB1 -->
<g id="node2" class="node"><title>CPEB1</title>
<a xlink:href="CPEB1.svg" xlink:title="Z&#45;value: 0.827||remove34">
<polygon fill="#ff9090" stroke="#ff9090" stroke-width="2" points="381.243,-375.243 351.243,-375.243 339.243,-363.243 339.243,-351.243 351.243,-339.243 381.243,-339.243 393.243,-351.243 393.243,-363.243 381.243,-375.243"/>
<path fill="#ff9090" stroke="#ff9090" stroke-width="2" d="M351.243,-375.243C345.243,-375.243 339.243,-369.243 339.243,-363.243"/>
<path fill="#ff9090" stroke="#ff9090" stroke-width="2" d="M339.243,-351.243C339.243,-345.243 345.243,-339.243 351.243,-339.243"/>
<path fill="#ff9090" stroke="#ff9090" stroke-width="2" d="M381.243,-339.243C387.243,-339.243 393.243,-345.243 393.243,-351.243"/>
<path fill="#ff9090" stroke="#ff9090" stroke-width="2" d="M393.243,-363.243C393.243,-369.243 387.243,-375.243 381.243,-375.243"/>
<polyline fill="none" stroke="white" stroke-width="2" points="381.243,-375.243 351.243,-375.243 "/>
<path fill="none" stroke="white" stroke-width="2" d="M351.243,-375.243C345.243,-375.243 339.243,-369.243 339.243,-363.243"/>
<polyline fill="none" stroke="white" stroke-width="2" points="339.243,-363.243 339.243,-351.243 "/>
<path fill="none" stroke="white" stroke-width="2" d="M339.243,-351.243C339.243,-345.243 345.243,-339.243 351.243,-339.243"/>
<polyline fill="none" stroke="white" stroke-width="2" points="351.243,-339.243 381.243,-339.243 "/>
<path fill="none" stroke="white" stroke-width="2" d="M381.243,-339.243C387.243,-339.243 393.243,-345.243 393.243,-351.243"/>
<polyline fill="none" stroke="white" stroke-width="2" points="393.243,-351.243 393.243,-363.243 "/>
<path fill="none" stroke="white" stroke-width="2" d="M393.243,-363.243C393.243,-369.243 387.243,-375.243 381.243,-375.243"/>
<text text-anchor="middle" x="366.243" y="-354.743" font-family="Helvetica,sans-Serif" font-size="10.00">CPEB1</text>
</a>
</g>
<!-- FOXM1_TBL1XR1&#45;&gt;CPEB1 -->
<g id="edge2" class="edge"><title>FOXM1_TBL1XR1&#45;&gt;CPEB1</title>
<a xlink:title="CPEB1: 0.193||remove17root">
<path fill="none" stroke="#b4bcff" stroke-width="3" d="M280.231,-36.2392C295.366,-92.727 341.511,-264.939 359.22,-331.033"/>
<polygon fill="#b4bcff" stroke="#b4bcff" points="356.557,-331.911 361.332,-338.914 361.966,-330.462 356.557,-331.911"/>
</a>
</g>
<!-- SMAD4 -->
<g id="node4" class="node"><title>SMAD4</title>
<a xlink:href="SMAD4.svg" xlink:title="Z&#45;value: 1.601||remove33">
<polygon fill="#596aff" stroke="#596aff" stroke-width="2" points="472.143,-36 442.143,-36 430.143,-24 430.143,-12 442.143,6.39488e-14 472.143,6.39488e-14 484.143,-12 484.143,-24 472.143,-36"/>
<path fill="#596aff" stroke="#596aff" stroke-width="2" d="M442.143,-36C436.143,-36 430.143,-30 430.143,-24"/>
<path fill="#596aff" stroke="#596aff" stroke-width="2" d="M430.143,-12C430.143,-6 436.143,6.39488e-14 442.143,6.39488e-14"/>
<path fill="#596aff" stroke="#596aff" stroke-width="2" d="M472.143,6.39488e-14C478.143,6.39488e-14 484.143,-6 484.143,-12"/>
<path fill="#596aff" stroke="#596aff" stroke-width="2" d="M484.143,-24C484.143,-30 478.143,-36 472.143,-36"/>
<polyline fill="none" stroke="white" stroke-width="2" points="472.143,-36 442.143,-36 "/>
<path fill="none" stroke="white" stroke-width="2" d="M442.143,-36C436.143,-36 430.143,-30 430.143,-24"/>
<polyline fill="none" stroke="white" stroke-width="2" points="430.143,-24 430.143,-12 "/>
<path fill="none" stroke="white" stroke-width="2" d="M430.143,-12C430.143,-6 436.143,6.39488e-14 442.143,6.39488e-14"/>
<polyline fill="none" stroke="white" stroke-width="2" points="442.143,6.39488e-14 472.143,6.39488e-14 "/>
<path fill="none" stroke="white" stroke-width="2" d="M472.143,6.39488e-14C478.143,6.39488e-14 484.143,-6 484.143,-12"/>
<polyline fill="none" stroke="white" stroke-width="2" points="484.143,-12 484.143,-24 "/>
<path fill="none" stroke="white" stroke-width="2" d="M484.143,-24C484.143,-30 478.143,-36 472.143,-36"/>
<text text-anchor="middle" x="457.143" y="-15.5" font-family="Helvetica,sans-Serif" font-size="10.00" fill="white">SMAD4</text>
</a>
</g>
<!-- FOXM1_TBL1XR1&#45;&gt;SMAD4 -->
<g id="edge4" class="edge"><title>FOXM1_TBL1XR1&#45;&gt;SMAD4</title>
<a xlink:title="SMAD4: 0.077||remove7root">
<path fill="none" stroke="#ebc2ff" stroke-width="3" d="M324.062,-18C354.85,-18 393.933,-18 421.763,-18"/>
<polygon fill="#ebc2ff" stroke="#ebc2ff" points="422.017,-20.8001 430.017,-18 422.017,-15.2001 422.017,-20.8001"/>
</a>
</g>
<!-- SOX4 -->
<g id="node6" class="node"><title>SOX4</title>
<a xlink:href="SOX4.svg" xlink:title="Z&#45;value: 0.496||remove22">
<polygon fill="#a8b1ff" stroke="#a8b1ff" stroke-width="2" points="720.487,-466.143 690.487,-466.143 678.487,-454.143 678.487,-442.143 690.487,-430.143 720.487,-430.143 732.487,-442.143 732.487,-454.143 720.487,-466.143"/>
<path fill="#a8b1ff" stroke="#a8b1ff" stroke-width="2" d="M690.487,-466.143C684.487,-466.143 678.487,-460.143 678.487,-454.143"/>
<path fill="#a8b1ff" stroke="#a8b1ff" stroke-width="2" d="M678.487,-442.143C678.487,-436.143 684.487,-430.143 690.487,-430.143"/>
<path fill="#a8b1ff" stroke="#a8b1ff" stroke-width="2" d="M720.487,-430.143C726.487,-430.143 732.487,-436.143 732.487,-442.143"/>
<path fill="#a8b1ff" stroke="#a8b1ff" stroke-width="2" d="M732.487,-454.143C732.487,-460.143 726.487,-466.143 720.487,-466.143"/>
<polyline fill="none" stroke="white" stroke-width="2" points="720.487,-466.143 690.487,-466.143 "/>
<path fill="none" stroke="white" stroke-width="2" d="M690.487,-466.143C684.487,-466.143 678.487,-460.143 678.487,-454.143"/>
<polyline fill="none" stroke="white" stroke-width="2" points="678.487,-454.143 678.487,-442.143 "/>
<path fill="none" stroke="white" stroke-width="2" d="M678.487,-442.143C678.487,-436.143 684.487,-430.143 690.487,-430.143"/>
<polyline fill="none" stroke="white" stroke-width="2" points="690.487,-430.143 720.487,-430.143 "/>
<path fill="none" stroke="white" stroke-width="2" d="M720.487,-430.143C726.487,-430.143 732.487,-436.143 732.487,-442.143"/>
<polyline fill="none" stroke="white" stroke-width="2" points="732.487,-442.143 732.487,-454.143 "/>
<path fill="none" stroke="white" stroke-width="2" d="M732.487,-454.143C732.487,-460.143 726.487,-466.143 720.487,-466.143"/>
<text text-anchor="middle" x="705.487" y="-445.643" font-family="Helvetica,sans-Serif" font-size="10.00">SOX4</text>
</a>
</g>
<!-- FOXM1_TBL1XR1&#45;&gt;SOX4 -->
<g id="edge6" class="edge"><title>FOXM1_TBL1XR1&#45;&gt;SOX4</title>
<a xlink:title="SOX4: 0.334||remove17">
<path fill="none" stroke="#e1a3ff" stroke-width="3" d="M293.551,-36.208C361.967,-104.624 603.7,-346.356 681.308,-423.965"/>
<polygon fill="#e1a3ff" stroke="#e1a3ff" points="679.397,-426.013 687.034,-429.69 683.357,-422.054 679.397,-426.013"/>
</a>
</g>
<!-- PLAGL1 -->
<g id="node8" class="node"><title>PLAGL1</title>
<a xlink:href="PLAGL1.svg" xlink:title="Z&#45;value: 1.203||remove30">
<polygon fill="#7683ff" stroke="#7683ff" stroke-width="2" points="629.587,-126.9 599.587,-126.9 587.587,-114.9 587.587,-102.9 599.587,-90.9 629.587,-90.9 641.587,-102.9 641.587,-114.9 629.587,-126.9"/>
<path fill="#7683ff" stroke="#7683ff" stroke-width="2" d="M599.587,-126.9C593.587,-126.9 587.587,-120.9 587.587,-114.9"/>
<path fill="#7683ff" stroke="#7683ff" stroke-width="2" d="M587.587,-102.9C587.587,-96.9 593.587,-90.9 599.587,-90.9"/>
<path fill="#7683ff" stroke="#7683ff" stroke-width="2" d="M629.587,-90.9C635.587,-90.9 641.587,-96.9 641.587,-102.9"/>
<path fill="#7683ff" stroke="#7683ff" stroke-width="2" d="M641.587,-114.9C641.587,-120.9 635.587,-126.9 629.587,-126.9"/>
<polyline fill="none" stroke="white" stroke-width="2" points="629.587,-126.9 599.587,-126.9 "/>
<path fill="none" stroke="white" stroke-width="2" d="M599.587,-126.9C593.587,-126.9 587.587,-120.9 587.587,-114.9"/>
<polyline fill="none" stroke="white" stroke-width="2" points="587.587,-114.9 587.587,-102.9 "/>
<path fill="none" stroke="white" stroke-width="2" d="M587.587,-102.9C587.587,-96.9 593.587,-90.9 599.587,-90.9"/>
<polyline fill="none" stroke="white" stroke-width="2" points="599.587,-90.9 629.587,-90.9 "/>
<path fill="none" stroke="white" stroke-width="2" d="M629.587,-90.9C635.587,-90.9 641.587,-96.9 641.587,-102.9"/>
<polyline fill="none" stroke="white" stroke-width="2" points="641.587,-102.9 641.587,-114.9 "/>
<path fill="none" stroke="white" stroke-width="2" d="M641.587,-114.9C641.587,-120.9 635.587,-126.9 629.587,-126.9"/>
<text text-anchor="middle" x="614.587" y="-106.4" font-family="Helvetica,sans-Serif" font-size="10.00">PLAGL1</text>
</a>
</g>
<!-- FOXM1_TBL1XR1&#45;&gt;PLAGL1 -->
<g id="edge8" class="edge"><title>FOXM1_TBL1XR1&#45;&gt;PLAGL1</title>
<a xlink:title="PLAGL1: 0.046||TBL1XR1: 0.005||remove4root">
<path fill="none" stroke="#ecc6ff" stroke-width="3" d="M332.062,-32.1623C402.565,-51.0537 521.032,-82.7966 579.716,-98.521"/>
<path fill="none" stroke="#eecbff" stroke-width="3" d="M331.544,-34.0941C402.048,-52.9856 520.514,-84.7285 579.198,-100.453"/>
<polygon fill="#eecbff" stroke="#eecbff" points="332.401,-30.3898 323.949,-31.0238 330.951,-35.799 332.401,-30.3898"/>
<polygon fill="#ecc6ff" stroke="#ecc6ff" points="578.877,-102.23 587.329,-101.596 580.327,-96.8212 578.877,-102.23"/>
</a>
</g>
<!-- FOXD1_FOXO1_FOXO6_FOXG1_FOXP1 -->
<g id="node10" class="node"><title>FOXD1_FOXO1_FOXO6_FOXG1_FOXP1</title>
<a xlink:href="FOXD1_FOXO1_FOXO6_FOXG1_FOXP1.svg" xlink:title="Z&#45;value: 0.656||remove31">
<polygon fill="#9da6ff" stroke="#9da6ff" stroke-width="2" points="703.587,-623.587 525.587,-623.587 513.587,-611.587 513.587,-599.587 525.587,-587.587 703.587,-587.587 715.587,-599.587 715.587,-611.587 703.587,-623.587"/>
<path fill="#9da6ff" stroke="#9da6ff" stroke-width="2" d="M525.587,-623.587C519.587,-623.587 513.587,-617.587 513.587,-611.587"/>
<path fill="#9da6ff" stroke="#9da6ff" stroke-width="2" d="M513.587,-599.587C513.587,-593.587 519.587,-587.587 525.587,-587.587"/>
<path fill="#9da6ff" stroke="#9da6ff" stroke-width="2" d="M703.587,-587.587C709.587,-587.587 715.587,-593.587 715.587,-599.587"/>
<path fill="#9da6ff" stroke="#9da6ff" stroke-width="2" d="M715.587,-611.587C715.587,-617.587 709.587,-623.587 703.587,-623.587"/>
<polyline fill="none" stroke="white" stroke-width="2" points="703.587,-623.587 525.587,-623.587 "/>
<path fill="none" stroke="white" stroke-width="2" d="M525.587,-623.587C519.587,-623.587 513.587,-617.587 513.587,-611.587"/>
<polyline fill="none" stroke="white" stroke-width="2" points="513.587,-611.587 513.587,-599.587 "/>
<path fill="none" stroke="white" stroke-width="2" d="M513.587,-599.587C513.587,-593.587 519.587,-587.587 525.587,-587.587"/>
<polyline fill="none" stroke="white" stroke-width="2" points="525.587,-587.587 703.587,-587.587 "/>
<path fill="none" stroke="white" stroke-width="2" d="M703.587,-587.587C709.587,-587.587 715.587,-593.587 715.587,-599.587"/>
<polyline fill="none" stroke="white" stroke-width="2" points="715.587,-599.587 715.587,-611.587 "/>
<path fill="none" stroke="white" stroke-width="2" d="M715.587,-611.587C715.587,-617.587 709.587,-623.587 703.587,-623.587"/>
<text text-anchor="middle" x="614.587" y="-603.087" font-family="Helvetica,sans-Serif" font-size="10.00">FOXD1_FOXO1_FOXO6_FOXG1_FOXP1</text>
</a>
</g>
<!-- FOXM1_TBL1XR1&#45;&gt;FOXD1_FOXO1_FOXO6_FOXG1_FOXP1 -->
<g id="edge10" class="edge"><title>FOXM1_TBL1XR1&#45;&gt;FOXD1_FOXO1_FOXO6_FOXG1_FOXP1</title>
<a xlink:title="FOXG1: 0.285||FOXP1: 0.254||remove17">
<path fill="none" stroke="#e3a9ff" stroke-width="3" d="M285.868,-36.2296C335.135,-121.562 542.969,-481.541 600.037,-580.386"/>
<polygon fill="#e3a9ff" stroke="#e3a9ff" points="597.76,-582.042 604.185,-587.57 602.61,-579.242 597.76,-582.042"/>
</a>
</g>
<!-- OTP_PHOX2B_LHX1_LMX1A_LHX5_HOXC4 -->
<g id="node12" class="node"><title>OTP_PHOX2B_LHX1_LMX1A_LHX5_HOXC4</title>
<a xlink:href="OTP_PHOX2B_LHX1_LMX1A_LHX5_HOXC4.svg" xlink:title="Z&#45;value: 0.402||remove27">
<polygon fill="#afb7ff" stroke="#afb7ff" stroke-width="2" points="555.143,-714.487 359.143,-714.487 347.143,-702.487 347.143,-690.487 359.143,-678.487 555.143,-678.487 567.143,-690.487 567.143,-702.487 555.143,-714.487"/>
<path fill="#afb7ff" stroke="#afb7ff" stroke-width="2" d="M359.143,-714.487C353.143,-714.487 347.143,-708.487 347.143,-702.487"/>
<path fill="#afb7ff" stroke="#afb7ff" stroke-width="2" d="M347.143,-690.487C347.143,-684.487 353.143,-678.487 359.143,-678.487"/>
<path fill="#afb7ff" stroke="#afb7ff" stroke-width="2" d="M555.143,-678.487C561.143,-678.487 567.143,-684.487 567.143,-690.487"/>
<path fill="#afb7ff" stroke="#afb7ff" stroke-width="2" d="M567.143,-702.487C567.143,-708.487 561.143,-714.487 555.143,-714.487"/>
<polyline fill="none" stroke="white" stroke-width="2" points="555.143,-714.487 359.143,-714.487 "/>
<path fill="none" stroke="white" stroke-width="2" d="M359.143,-714.487C353.143,-714.487 347.143,-708.487 347.143,-702.487"/>
<polyline fill="none" stroke="white" stroke-width="2" points="347.143,-702.487 347.143,-690.487 "/>
<path fill="none" stroke="white" stroke-width="2" d="M347.143,-690.487C347.143,-684.487 353.143,-678.487 359.143,-678.487"/>
<polyline fill="none" stroke="white" stroke-width="2" points="359.143,-678.487 555.143,-678.487 "/>
<path fill="none" stroke="white" stroke-width="2" d="M555.143,-678.487C561.143,-678.487 567.143,-684.487 567.143,-690.487"/>
<polyline fill="none" stroke="white" stroke-width="2" points="567.143,-690.487 567.143,-702.487 "/>
<path fill="none" stroke="white" stroke-width="2" d="M567.143,-702.487C567.143,-708.487 561.143,-714.487 555.143,-714.487"/>
<text text-anchor="middle" x="457.143" y="-693.987" font-family="Helvetica,sans-Serif" font-size="10.00">OTP_PHOX2B_LHX1_LMX1A_LHX5_HOXC4</text>
</a>
</g>
<!-- FOXM1_TBL1XR1&#45;&gt;OTP_PHOX2B_LHX1_LMX1A_LHX5_HOXC4 -->
<g id="edge12" class="edge"><title>FOXM1_TBL1XR1&#45;&gt;OTP_PHOX2B_LHX1_LMX1A_LHX5_HOXC4</title>
<a xlink:title="PHOX2B: 0.035||LMX1A: 0.011||LHX5: 0.009||remove3root">
<path fill="none" stroke="#edc7ff" stroke-width="3" d="M283.85,-36.2206C305.934,-84.2412 365.591,-218.668 397.563,-336.363 430.816,-458.769 448.492,-609.912 454.622,-670.028"/>
<polygon fill="#edc7ff" stroke="#edc7ff" points="451.859,-670.542 455.443,-678.223 457.431,-669.983 451.859,-670.542"/>
</a>
</g>
<!-- CPEB1&#45;&gt;SOX4 -->
<g id="edge32" class="edge"><title>CPEB1&#45;&gt;SOX4</title>
<a xlink:title="SOX4: 0.270||remove22root">
<path fill="none" stroke="#ffabab" stroke-width="3" d="M393.432,-364.529C454.471,-380.884 602.354,-420.509 670.292,-438.713"/>
<polygon fill="#ffabab" stroke="#ffabab" points="669.717,-441.458 678.169,-440.824 671.166,-436.048 669.717,-441.458"/>
</a>
</g>
<!-- CPEB1&#45;&gt;FOXD1_FOXO1_FOXO6_FOXG1_FOXP1 -->
<g id="edge36" class="edge"><title>CPEB1&#45;&gt;FOXD1_FOXO1_FOXO6_FOXG1_FOXP1</title>
<a xlink:title="FOXP1: 0.447||remove31root">
<path fill="none" stroke="#ff9696" stroke-width="3" d="M384.505,-375.505C428.637,-419.637 541.088,-532.088 590.584,-581.584"/>
<polygon fill="#ff9696" stroke="#ff9696" points="588.662,-583.622 596.299,-587.299 592.622,-579.662 588.662,-583.622"/>
</a>
</g>
<!-- CPEB1&#45;&gt;OTP_PHOX2B_LHX1_LMX1A_LHX5_HOXC4 -->
<g id="edge38" class="edge"><title>CPEB1&#45;&gt;OTP_PHOX2B_LHX1_LMX1A_LHX5_HOXC4</title>
<a xlink:title="OTP: 0.293||PHOX2B: 0.110||HOXC4: 0.107||remove27root">
<path fill="none" stroke="#ffa8a8" stroke-width="3" d="M371.131,-375.483C386.266,-431.97 432.411,-604.183 450.12,-670.277"/>
<polygon fill="#ffa8a8" stroke="#ffa8a8" points="447.457,-671.155 452.232,-678.157 452.866,-669.705 447.457,-671.155"/>
</a>
</g>
<!-- RCOR1_MTA3 -->
<g id="node15" class="node"><title>RCOR1_MTA3</title>
<a xlink:href="RCOR1_MTA3.svg" xlink:title="Z&#45;value: 1.731||remove32">
<polygon fill="#5061ff" stroke="#5061ff" stroke-width="2" points="304.593,-714.487 246.093,-714.487 234.093,-702.487 234.093,-690.487 246.093,-678.487 304.593,-678.487 316.593,-690.487 316.593,-702.487 304.593,-714.487"/>
<path fill="#5061ff" stroke="#5061ff" stroke-width="2" d="M246.093,-714.487C240.093,-714.487 234.093,-708.487 234.093,-702.487"/>
<path fill="#5061ff" stroke="#5061ff" stroke-width="2" d="M234.093,-690.487C234.093,-684.487 240.093,-678.487 246.093,-678.487"/>
<path fill="#5061ff" stroke="#5061ff" stroke-width="2" d="M304.593,-678.487C310.593,-678.487 316.593,-684.487 316.593,-690.487"/>
<path fill="#5061ff" stroke="#5061ff" stroke-width="2" d="M316.593,-702.487C316.593,-708.487 310.593,-714.487 304.593,-714.487"/>
<polyline fill="none" stroke="white" stroke-width="2" points="304.593,-714.487 246.093,-714.487 "/>
<path fill="none" stroke="white" stroke-width="2" d="M246.093,-714.487C240.093,-714.487 234.093,-708.487 234.093,-702.487"/>
<polyline fill="none" stroke="white" stroke-width="2" points="234.093,-702.487 234.093,-690.487 "/>
<path fill="none" stroke="white" stroke-width="2" d="M234.093,-690.487C234.093,-684.487 240.093,-678.487 246.093,-678.487"/>
<polyline fill="none" stroke="white" stroke-width="2" points="246.093,-678.487 304.593,-678.487 "/>
<path fill="none" stroke="white" stroke-width="2" d="M304.593,-678.487C310.593,-678.487 316.593,-684.487 316.593,-690.487"/>
<polyline fill="none" stroke="white" stroke-width="2" points="316.593,-690.487 316.593,-702.487 "/>
<path fill="none" stroke="white" stroke-width="2" d="M316.593,-702.487C316.593,-708.487 310.593,-714.487 304.593,-714.487"/>
<text text-anchor="middle" x="275.343" y="-693.987" font-family="Helvetica,sans-Serif" font-size="10.00" fill="white">RCOR1_MTA3</text>
</a>
</g>
<!-- CPEB1&#45;&gt;RCOR1_MTA3 -->
<g id="edge30" class="edge"><title>CPEB1&#45;&gt;RCOR1_MTA3</title>
<a xlink:title="RCOR1: 0.220||CPEB1: 0.565||remove32root">
<path fill="none" stroke="#ffb1b1" stroke-width="3" d="M360.215,-383.607C343.295,-446.753 300.303,-607.202 283.343,-670.496"/>
<path fill="none" stroke="#8894ff" stroke-width="3" d="M358.283,-383.089C341.363,-446.235 298.371,-606.684 281.411,-669.978"/>
<polygon fill="#8894ff" stroke="#8894ff" points="361.99,-383.935 361.356,-375.483 356.581,-382.485 361.99,-383.935"/>
<polygon fill="#ffb1b1" stroke="#ffb1b1" points="279.621,-669.705 280.255,-678.157 285.03,-671.155 279.621,-669.705"/>
</a>
</g>
<!-- PLAG1 -->
<g id="node22" class="node"><title>PLAG1</title>
<a xlink:href="PLAG1.svg" xlink:title="Z&#45;value: 0.394||remove19">
<polygon fill="#afb7ff" stroke="#afb7ff" stroke-width="2" points="132.9,-623.587 102.9,-623.587 90.9,-611.587 90.9,-599.587 102.9,-587.587 132.9,-587.587 144.9,-599.587 144.9,-611.587 132.9,-623.587"/>
<path fill="#afb7ff" stroke="#afb7ff" stroke-width="2" d="M102.9,-623.587C96.9,-623.587 90.9,-617.587 90.9,-611.587"/>
<path fill="#afb7ff" stroke="#afb7ff" stroke-width="2" d="M90.9,-599.587C90.9,-593.587 96.9,-587.587 102.9,-587.587"/>
<path fill="#afb7ff" stroke="#afb7ff" stroke-width="2" d="M132.9,-587.587C138.9,-587.587 144.9,-593.587 144.9,-599.587"/>
<path fill="#afb7ff" stroke="#afb7ff" stroke-width="2" d="M144.9,-611.587C144.9,-617.587 138.9,-623.587 132.9,-623.587"/>
<polyline fill="none" stroke="white" stroke-width="2" points="132.9,-623.587 102.9,-623.587 "/>
<path fill="none" stroke="white" stroke-width="2" d="M102.9,-623.587C96.9,-623.587 90.9,-617.587 90.9,-611.587"/>
<polyline fill="none" stroke="white" stroke-width="2" points="90.9,-611.587 90.9,-599.587 "/>
<path fill="none" stroke="white" stroke-width="2" d="M90.9,-599.587C90.9,-593.587 96.9,-587.587 102.9,-587.587"/>
<polyline fill="none" stroke="white" stroke-width="2" points="102.9,-587.587 132.9,-587.587 "/>
<path fill="none" stroke="white" stroke-width="2" d="M132.9,-587.587C138.9,-587.587 144.9,-593.587 144.9,-599.587"/>
<polyline fill="none" stroke="white" stroke-width="2" points="144.9,-599.587 144.9,-611.587 "/>
<path fill="none" stroke="white" stroke-width="2" d="M144.9,-611.587C144.9,-617.587 138.9,-623.587 132.9,-623.587"/>
<text text-anchor="middle" x="117.9" y="-603.087" font-family="Helvetica,sans-Serif" font-size="10.00">PLAG1</text>
</a>
</g>
<!-- CPEB1&#45;&gt;PLAG1 -->
<g id="edge44" class="edge"><title>CPEB1&#45;&gt;PLAG1</title>
<a xlink:title="PLAG1: 0.200||remove19root">
<path fill="none" stroke="#ffb3b3" stroke-width="3" d="M347.982,-375.505C303.85,-419.637 191.398,-532.088 141.903,-581.584"/>
<polygon fill="#ffb3b3" stroke="#ffb3b3" points="139.865,-579.662 136.188,-587.299 143.825,-583.622 139.865,-579.662"/>
</a>
</g>
<!-- TBX2 -->
<g id="node26" class="node"><title>TBX2</title>
<a xlink:href="TBX2.svg" xlink:title="Z&#45;value: 0.814||remove28">
<polygon fill="#919cff" stroke="#919cff" stroke-width="2" points="42,-466.143 12,-466.143 0,-454.143 0,-442.143 12,-430.143 42,-430.143 54,-442.143 54,-454.143 42,-466.143"/>
<path fill="#919cff" stroke="#919cff" stroke-width="2" d="M12,-466.143C6,-466.143 0,-460.143 0,-454.143"/>
<path fill="#919cff" stroke="#919cff" stroke-width="2" d="M0,-442.143C0,-436.143 6,-430.143 12,-430.143"/>
<path fill="#919cff" stroke="#919cff" stroke-width="2" d="M42,-430.143C48,-430.143 54,-436.143 54,-442.143"/>
<path fill="#919cff" stroke="#919cff" stroke-width="2" d="M54,-454.143C54,-460.143 48,-466.143 42,-466.143"/>
<polyline fill="none" stroke="white" stroke-width="2" points="42,-466.143 12,-466.143 "/>
<path fill="none" stroke="white" stroke-width="2" d="M12,-466.143C6,-466.143 0,-460.143 0,-454.143"/>
<polyline fill="none" stroke="white" stroke-width="2" points="0,-454.143 0,-442.143 "/>
<path fill="none" stroke="white" stroke-width="2" d="M0,-442.143C0,-436.143 6,-430.143 12,-430.143"/>
<polyline fill="none" stroke="white" stroke-width="2" points="12,-430.143 42,-430.143 "/>
<path fill="none" stroke="white" stroke-width="2" d="M42,-430.143C48,-430.143 54,-436.143 54,-442.143"/>
<polyline fill="none" stroke="white" stroke-width="2" points="54,-442.143 54,-454.143 "/>
<path fill="none" stroke="white" stroke-width="2" d="M54,-454.143C54,-460.143 48,-466.143 42,-466.143"/>
<text text-anchor="middle" x="27" y="-445.643" font-family="Helvetica,sans-Serif" font-size="10.00">TBX2</text>
</a>
</g>
<!-- CPEB1&#45;&gt;TBX2 -->
<g id="edge34" class="edge"><title>CPEB1&#45;&gt;TBX2</title>
<a xlink:title="TBX2: 0.298||CPEB1: 0.164||remove28root">
<path fill="none" stroke="#ffa8a8" stroke-width="3" d="M331.451,-367.601C266.409,-385.029 127.735,-422.187 62.5285,-439.659"/>
<path fill="none" stroke="#b8bfff" stroke-width="3" d="M330.933,-365.669C265.891,-383.098 127.218,-420.255 62.0109,-437.727"/>
<polygon fill="#b8bfff" stroke="#b8bfff" points="332.052,-369.304 339.055,-364.529 330.603,-363.895 332.052,-369.304"/>
<polygon fill="#ffa8a8" stroke="#ffa8a8" points="61.3204,-436.048 54.3177,-440.824 62.7699,-441.458 61.3204,-436.048"/>
</a>
</g>
<!-- CDX2 -->
<g id="node30" class="node"><title>CDX2</title>
<a xlink:href="CDX2.svg" xlink:title="Z&#45;value: 0.460||remove25">
<polygon fill="#abb3ff" stroke="#abb3ff" stroke-width="2" points="42,-284.343 12,-284.343 -6.39488e-14,-272.343 -6.39488e-14,-260.343 12,-248.343 42,-248.343 54,-260.343 54,-272.343 42,-284.343"/>
<path fill="#abb3ff" stroke="#abb3ff" stroke-width="2" d="M12,-284.343C6,-284.343 -6.39488e-14,-278.343 -6.39488e-14,-272.343"/>
<path fill="#abb3ff" stroke="#abb3ff" stroke-width="2" d="M-6.39488e-14,-260.343C-6.39488e-14,-254.343 6,-248.343 12,-248.343"/>
<path fill="#abb3ff" stroke="#abb3ff" stroke-width="2" d="M42,-248.343C48,-248.343 54,-254.343 54,-260.343"/>
<path fill="#abb3ff" stroke="#abb3ff" stroke-width="2" d="M54,-272.343C54,-278.343 48,-284.343 42,-284.343"/>
<polyline fill="none" stroke="white" stroke-width="2" points="42,-284.343 12,-284.343 "/>
<path fill="none" stroke="white" stroke-width="2" d="M12,-284.343C6,-284.343 -6.39488e-14,-278.343 -6.39488e-14,-272.343"/>
<polyline fill="none" stroke="white" stroke-width="2" points="-6.39488e-14,-272.343 -6.39488e-14,-260.343 "/>
<path fill="none" stroke="white" stroke-width="2" d="M-6.39488e-14,-260.343C-6.39488e-14,-254.343 6,-248.343 12,-248.343"/>
<polyline fill="none" stroke="white" stroke-width="2" points="12,-248.343 42,-248.343 "/>
<path fill="none" stroke="white" stroke-width="2" d="M42,-248.343C48,-248.343 54,-254.343 54,-260.343"/>
<polyline fill="none" stroke="white" stroke-width="2" points="54,-260.343 54,-272.343 "/>
<path fill="none" stroke="white" stroke-width="2" d="M54,-272.343C54,-278.343 48,-284.343 42,-284.343"/>
<text text-anchor="middle" x="27" y="-263.843" font-family="Helvetica,sans-Serif" font-size="10.00">CDX2</text>
</a>
</g>
<!-- CPEB1&#45;&gt;CDX2 -->
<g id="edge40" class="edge"><title>CPEB1&#45;&gt;CDX2</title>
<a xlink:title="CDX2: 0.288||remove25root">
<path fill="none" stroke="#ffa9a9" stroke-width="3" d="M339.055,-349.958C278.016,-333.603 130.132,-293.978 62.1952,-275.774"/>
<polygon fill="#ffa9a9" stroke="#ffa9a9" points="62.7699,-273.029 54.3177,-273.663 61.3204,-278.438 62.7699,-273.029"/>
</a>
</g>
<!-- HOXD9 -->
<g id="node32" class="node"><title>HOXD9</title>
<a xlink:href="HOXD9.svg" xlink:title="Z&#45;value: 0.536||remove29">
<polygon fill="#a5aeff" stroke="#a5aeff" stroke-width="2" points="132.9,-126.9 102.9,-126.9 90.9,-114.9 90.9,-102.9 102.9,-90.9 132.9,-90.9 144.9,-102.9 144.9,-114.9 132.9,-126.9"/>
<path fill="#a5aeff" stroke="#a5aeff" stroke-width="2" d="M102.9,-126.9C96.9,-126.9 90.9,-120.9 90.9,-114.9"/>
<path fill="#a5aeff" stroke="#a5aeff" stroke-width="2" d="M90.9,-102.9C90.9,-96.9 96.9,-90.9 102.9,-90.9"/>
<path fill="#a5aeff" stroke="#a5aeff" stroke-width="2" d="M132.9,-90.9C138.9,-90.9 144.9,-96.9 144.9,-102.9"/>
<path fill="#a5aeff" stroke="#a5aeff" stroke-width="2" d="M144.9,-114.9C144.9,-120.9 138.9,-126.9 132.9,-126.9"/>
<polyline fill="none" stroke="white" stroke-width="2" points="132.9,-126.9 102.9,-126.9 "/>
<path fill="none" stroke="white" stroke-width="2" d="M102.9,-126.9C96.9,-126.9 90.9,-120.9 90.9,-114.9"/>
<polyline fill="none" stroke="white" stroke-width="2" points="90.9,-114.9 90.9,-102.9 "/>
<path fill="none" stroke="white" stroke-width="2" d="M90.9,-102.9C90.9,-96.9 96.9,-90.9 102.9,-90.9"/>
<polyline fill="none" stroke="white" stroke-width="2" points="102.9,-90.9 132.9,-90.9 "/>
<path fill="none" stroke="white" stroke-width="2" d="M132.9,-90.9C138.9,-90.9 144.9,-96.9 144.9,-102.9"/>
<polyline fill="none" stroke="white" stroke-width="2" points="144.9,-102.9 144.9,-114.9 "/>
<path fill="none" stroke="white" stroke-width="2" d="M144.9,-114.9C144.9,-120.9 138.9,-126.9 132.9,-126.9"/>
<text text-anchor="middle" x="117.9" y="-106.4" font-family="Helvetica,sans-Serif" font-size="10.00">HOXD9</text>
</a>
</g>
<!-- CPEB1&#45;&gt;HOXD9 -->
<g id="edge42" class="edge"><title>CPEB1&#45;&gt;HOXD9</title>
<a xlink:title="HOXD9: 0.311||remove29root">
<path fill="none" stroke="#ffa6a6" stroke-width="3" d="M347.982,-338.982C303.85,-294.85 191.398,-182.398 141.903,-132.903"/>
<polygon fill="#ffa6a6" stroke="#ffa6a6" points="143.825,-130.865 136.188,-127.188 139.865,-134.825 143.825,-130.865"/>
</a>
</g>
<!-- SMAD4&#45;&gt;CPEB1 -->
<g id="edge14" class="edge"><title>SMAD4&#45;&gt;CPEB1</title>
<a xlink:title="CPEB1: 0.581||remove33root">
<path fill="none" stroke="#8692ff" stroke-width="3" d="M452.256,-36.2392C437.12,-92.727 390.976,-264.939 373.266,-331.033"/>
<polygon fill="#8692ff" stroke="#8692ff" points="370.521,-330.462 371.155,-338.914 375.93,-331.911 370.521,-330.462"/>
</a>
</g>
<!-- PLAGL1&#45;&gt;CPEB1 -->
<g id="edge18" class="edge"><title>PLAGL1&#45;&gt;CPEB1</title>
<a xlink:title="CPEB1: 0.369||remove30root">
<path fill="none" stroke="#9fa9ff" stroke-width="3" d="M596.326,-127.161C552.193,-171.294 439.742,-283.745 390.247,-333.24"/>
<polygon fill="#9fa9ff" stroke="#9fa9ff" points="388.208,-331.319 384.531,-338.955 392.168,-335.278 388.208,-331.319"/>
</a>
</g>
<!-- PLAGL1&#45;&gt;SMAD4 -->
<g id="edge20" class="edge"><title>PLAGL1&#45;&gt;SMAD4</title>
<a xlink:title="SMAD4: 0.093||remove10root">
<path fill="none" stroke="#ebc0ff" stroke-width="3" d="M587.521,-93.2737C560.936,-77.9249 520.279,-54.4514 491.443,-37.803"/>
<polygon fill="#ebc0ff" stroke="#ebc0ff" points="492.711,-35.3017 484.383,-33.7266 489.911,-40.1515 492.711,-35.3017"/>
</a>
</g>
<!-- PLAGL1&#45;&gt;PLAGL1 -->
<g id="edge22" class="edge"><title>PLAGL1&#45;&gt;PLAGL1</title>
<a xlink:title="PLAGL1: 0.151||remove14root">
<path fill="none" stroke="#e8b9ff" stroke-width="3" d="M641.828,-115.643C651.611,-115.788 659.587,-113.541 659.587,-108.9 659.587,-105.637 655.644,-103.557 649.902,-102.66"/>
<polygon fill="#e8b9ff" stroke="#e8b9ff" points="649.986,-99.8601 641.828,-102.157 649.638,-105.449 649.986,-99.8601"/>
</a>
</g>
<!-- PLAGL1&#45;&gt;FOXD1_FOXO1_FOXO6_FOXG1_FOXP1 -->
<g id="edge24" class="edge"><title>PLAGL1&#45;&gt;FOXD1_FOXO1_FOXO6_FOXG1_FOXP1</title>
<a xlink:title="FOXP1: 0.065||FOXG1: 0.010||remove5root">
<path fill="none" stroke="#ecc4ff" stroke-width="3" d="M614.587,-127.166C614.587,-202.624 614.587,-490.244 614.587,-579.206"/>
<polygon fill="#ecc4ff" stroke="#ecc4ff" points="611.787,-579.417 614.587,-587.417 617.387,-579.417 611.787,-579.417"/>
</a>
</g>
<!-- PLAGL1&#45;&gt;OTP_PHOX2B_LHX1_LMX1A_LHX5_HOXC4 -->
<g id="edge26" class="edge"><title>PLAGL1&#45;&gt;OTP_PHOX2B_LHX1_LMX1A_LHX5_HOXC4</title>
<a xlink:title="LMX1A: 0.125||HOXC4: 0.023||PLAGL1: 0.045||remove12root">
<path fill="none" stroke="#e9bdff" stroke-width="3" d="M608.573,-135.208C582.505,-232.493 491.022,-573.914 465.039,-670.885"/>
<path fill="none" stroke="#ecc6ff" stroke-width="3" d="M606.641,-134.69C580.574,-231.975 489.09,-573.397 463.107,-670.367"/>
<polygon fill="#ecc6ff" stroke="#ecc6ff" points="610.336,-135.582 609.702,-127.13 604.927,-134.132 610.336,-135.582"/>
<polygon fill="#e9bdff" stroke="#e9bdff" points="461.337,-670.018 461.971,-678.47 466.746,-671.467 461.337,-670.018"/>
</a>
</g>
<!-- PLAGL1&#45;&gt;RCOR1_MTA3 -->
<g id="edge16" class="edge"><title>PLAGL1&#45;&gt;RCOR1_MTA3</title>
<a xlink:title="RCOR1: 0.068||PLAGL1: 0.282||remove24root">
<path fill="none" stroke="#ecc3ff" stroke-width="3" d="M600.76,-134.849C544.896,-231.607 346.071,-575.983 290.646,-671.981"/>
<path fill="none" stroke="#e3aaff" stroke-width="3" d="M599.028,-133.849C543.164,-230.607 344.339,-574.983 288.914,-670.981"/>
<polygon fill="#e3aaff" stroke="#e3aaff" points="602.487,-135.458 604.062,-127.13 597.637,-132.658 602.487,-135.458"/>
<polygon fill="#ecc3ff" stroke="#ecc3ff" points="287.321,-670.142 285.746,-678.47 292.17,-672.942 287.321,-670.142"/>
</a>
</g>
<!-- PLAGL1&#45;&gt;PLAG1 -->
<g id="edge28" class="edge"><title>PLAGL1&#45;&gt;PLAG1</title>
<a xlink:title="PLAG1: 0.395||remove19">
<path fill="none" stroke="#df9cff" stroke-width="3" d="M602.058,-126.969C570.48,-171.905 483.975,-291.333 397.563,-378.123 315.2,-460.847 204.394,-543.777 150.316,-582.698"/>
<polygon fill="#df9cff" stroke="#df9cff" points="148.564,-580.509 143.695,-587.447 151.828,-585.059 148.564,-580.509"/>
</a>
</g>
<!-- FOXD1_FOXO1_FOXO6_FOXG1_FOXP1&#45;&gt;FOXD1_FOXO1_FOXO6_FOXG1_FOXP1 -->
<g id="edge48" class="edge"><title>FOXD1_FOXO1_FOXO6_FOXG1_FOXP1&#45;&gt;FOXD1_FOXO1_FOXO6_FOXG1_FOXP1</title>
<a xlink:title="FOXP1: 0.292||FOXO1: 0.176||remove26root">
<path fill="none" stroke="#e3a8ff" stroke-width="3" d="M715.724,-611.223C726.595,-610.137 733.587,-608.259 733.587,-605.587 733.587,-603.666 729.975,-602.156 723.907,-601.055"/>
<polygon fill="#e3a8ff" stroke="#e3a8ff" points="724.027,-598.246 715.724,-599.951 723.278,-603.796 724.027,-598.246"/>
</a>
</g>
<!-- FOXD1_FOXO1_FOXO6_FOXG1_FOXP1&#45;&gt;OTP_PHOX2B_LHX1_LMX1A_LHX5_HOXC4 -->
<g id="edge50" class="edge"><title>FOXD1_FOXO1_FOXO6_FOXG1_FOXP1&#45;&gt;OTP_PHOX2B_LHX1_LMX1A_LHX5_HOXC4</title>
<a xlink:title="PHOX2B: 0.148||OTP: 0.058||remove13root">
<path fill="none" stroke="#e8baff" stroke-width="3" d="M583.104,-623.763C557.897,-638.317 522.435,-658.791 495.558,-674.308"/>
<polygon fill="#e8baff" stroke="#e8baff" points="494.1,-671.917 488.571,-678.342 496.9,-676.767 494.1,-671.917"/>
</a>
</g>
<!-- FOXD1_FOXO1_FOXO6_FOXG1_FOXP1&#45;&gt;TBX2 -->
<g id="edge46" class="edge"><title>FOXD1_FOXO1_FOXO6_FOXG1_FOXP1&#45;&gt;TBX2</title>
<a xlink:title="TBX2: 0.080||remove8root">
<path fill="none" stroke="#ebc2ff" stroke-width="3" d="M547.183,-587.526C421.965,-553.974 157.529,-483.118 62.1961,-457.574"/>
<polygon fill="#ebc2ff" stroke="#ebc2ff" points="62.7512,-454.824 54.299,-455.458 61.3017,-460.233 62.7512,-454.824"/>
</a>
</g>
<!-- OTP_PHOX2B_LHX1_LMX1A_LHX5_HOXC4&#45;&gt;PLAG1 -->
<g id="edge52" class="edge"><title>OTP_PHOX2B_LHX1_LMX1A_LHX5_HOXC4&#45;&gt;PLAG1</title>
<a xlink:title="PLAG1: 0.009||remove0root">
<path fill="none" stroke="#eecaff" stroke-width="3" d="M389.714,-678.419C318.44,-659.321 208.785,-629.939 153.044,-615.004"/>
<polygon fill="#eecaff" stroke="#eecaff" points="153.674,-612.274 145.222,-612.908 152.224,-617.683 153.674,-612.274"/>
</a>
</g>
<!-- RCOR1_MTA3&#45;&gt;FOXM1_TBL1XR1 -->
<g id="edge54" class="edge"><title>RCOR1_MTA3&#45;&gt;FOXM1_TBL1XR1</title>
<a xlink:title="FOXM1: 0.174||TBL1XR1: 0.055||remove15root">
<path fill="none" stroke="#e8b7ff" stroke-width="3" d="M275.343,-678.339C275.343,-584.579 275.343,-155.147 275.343,-44.2141"/>
<polygon fill="#e8b7ff" stroke="#e8b7ff" points="278.144,-44.204 275.343,-36.204 272.544,-44.2041 278.144,-44.204"/>
</a>
</g>
<!-- RCOR1_MTA3&#45;&gt;SOX4 -->
<g id="edge58" class="edge"><title>RCOR1_MTA3&#45;&gt;SOX4</title>
<a xlink:title="SOX4: 0.075||remove6root">
<path fill="none" stroke="#ebc3ff" stroke-width="3" d="M306.625,-678.427C385.068,-633.137 589.681,-515.004 671.222,-467.926"/>
<polygon fill="#ebc3ff" stroke="#ebc3ff" points="672.734,-470.287 678.262,-463.862 669.934,-465.437 672.734,-470.287"/>
</a>
</g>
<!-- RCOR1_MTA3&#45;&gt;FOXD1_FOXO1_FOXO6_FOXG1_FOXP1 -->
<g id="edge62" class="edge"><title>RCOR1_MTA3&#45;&gt;FOXD1_FOXO1_FOXO6_FOXG1_FOXP1</title>
<a xlink:title="FOXD1: 0.228||FOXP1: 0.064||remove20root">
<path fill="none" stroke="#e5b0ff" stroke-width="3" d="M316.878,-679.874C321.13,-678.358 325.407,-676.906 329.543,-675.607 392.563,-655.816 464.845,-638.114 520.851,-625.461"/>
<polygon fill="#e5b0ff" stroke="#e5b0ff" points="521.802,-628.117 528.993,-623.631 520.574,-622.654 521.802,-628.117"/>
</a>
</g>
<!-- RCOR1_MTA3&#45;&gt;OTP_PHOX2B_LHX1_LMX1A_LHX5_HOXC4 -->
<g id="edge64" class="edge"><title>RCOR1_MTA3&#45;&gt;OTP_PHOX2B_LHX1_LMX1A_LHX5_HOXC4</title>
<a xlink:title="LMX1A: 0.271||LHX5: 0.137||HOXC4: 0.050||remove23root">
<path fill="none" stroke="#e4abff" stroke-width="3" d="M316.597,-696.487C323.444,-696.487 330.833,-696.487 338.515,-696.487"/>
<polygon fill="#e4abff" stroke="#e4abff" points="338.953,-699.287 346.953,-696.487 338.953,-693.687 338.953,-699.287"/>
</a>
</g>
<!-- RCOR1_MTA3&#45;&gt;RCOR1_MTA3 -->
<g id="edge56" class="edge"><title>RCOR1_MTA3&#45;&gt;RCOR1_MTA3</title>
<a xlink:title="RCOR1: 1.276||remove32">
<path fill="none" stroke="#bd32ff" stroke-width="3" d="M316.698,-703.131C326.815,-702.639 334.343,-700.424 334.343,-696.487 334.343,-693.718 330.621,-691.801 324.895,-690.736"/>
<polygon fill="#bd32ff" stroke="#bd32ff" points="324.955,-687.926 316.698,-689.842 324.347,-693.493 324.955,-687.926"/>
</a>
</g>
<!-- RCOR1_MTA3&#45;&gt;PLAG1 -->
<g id="edge70" class="edge"><title>RCOR1_MTA3&#45;&gt;PLAG1</title>
<a xlink:title="PLAG1: 0.180||remove16root">
<path fill="none" stroke="#e7b6ff" stroke-width="3" d="M243.861,-678.31C217.335,-662.996 179.455,-641.126 152.171,-625.373"/>
<polygon fill="#e7b6ff" stroke="#e7b6ff" points="153.455,-622.881 145.127,-621.306 150.655,-627.731 153.455,-622.881"/>
</a>
</g>
<!-- RCOR1_MTA3&#45;&gt;TBX2 -->
<g id="edge60" class="edge"><title>RCOR1_MTA3&#45;&gt;TBX2</title>
<a xlink:title="TBX2: 0.530||RCOR1: 0.270||remove28">
<path fill="none" stroke="#da8cff" stroke-width="3" d="M250.663,-673.221C203.222,-625.78 97.8595,-520.417 50.3503,-472.908"/>
<path fill="none" stroke="#e4abff" stroke-width="3" d="M252.077,-671.807C204.637,-624.366 99.2737,-519.003 51.7645,-471.494"/>
<polygon fill="#e4abff" stroke="#e4abff" points="249.445,-674.549 257.082,-678.226 253.405,-670.589 249.445,-674.549"/>
<polygon fill="#da8cff" stroke="#da8cff" points="52.9248,-470.108 45.2881,-466.431 48.965,-474.068 52.9248,-470.108"/>
</a>
</g>
<!-- RCOR1_MTA3&#45;&gt;CDX2 -->
<g id="edge66" class="edge"><title>RCOR1_MTA3&#45;&gt;CDX2</title>
<a xlink:title="CDX2: 0.574||remove25">
<path fill="none" stroke="#d887ff" stroke-width="3" d="M264.831,-678.279C225.569,-610.274 87.4415,-371.031 41.7779,-291.94"/>
<polygon fill="#d887ff" stroke="#d887ff" points="44.0788,-290.325 37.6539,-284.797 39.2291,-293.125 44.0788,-290.325"/>
</a>
</g>
<!-- RCOR1_MTA3&#45;&gt;HOXD9 -->
<g id="edge68" class="edge"><title>RCOR1_MTA3&#45;&gt;HOXD9</title>
<a xlink:title="HOXD9: 0.258||remove21root">
<path fill="none" stroke="#e4adff" stroke-width="3" d="M270.459,-678.257C247.64,-593.095 151.524,-234.388 124.813,-134.699"/>
<polygon fill="#e4adff" stroke="#e4adff" points="127.503,-133.92 122.728,-126.917 122.094,-135.369 127.503,-133.92"/>
</a>
</g>
<!-- MNT_HEY1_HEY2 -->
<g id="node48" class="node"><title>MNT_HEY1_HEY2</title>
<a xlink:href="MNT_HEY1_HEY2.svg" xlink:title="Z&#45;value: 0.774||remove18">
<polygon fill="#949fff" stroke="#949fff" stroke-width="2" points="743.737,-284.343 667.237,-284.343 655.237,-272.343 655.237,-260.343 667.237,-248.343 743.737,-248.343 755.737,-260.343 755.737,-272.343 743.737,-284.343"/>
<path fill="#949fff" stroke="#949fff" stroke-width="2" d="M667.237,-284.343C661.237,-284.343 655.237,-278.343 655.237,-272.343"/>
<path fill="#949fff" stroke="#949fff" stroke-width="2" d="M655.237,-260.343C655.237,-254.343 661.237,-248.343 667.237,-248.343"/>
<path fill="#949fff" stroke="#949fff" stroke-width="2" d="M743.737,-248.343C749.737,-248.343 755.737,-254.343 755.737,-260.343"/>
<path fill="#949fff" stroke="#949fff" stroke-width="2" d="M755.737,-272.343C755.737,-278.343 749.737,-284.343 743.737,-284.343"/>
<polyline fill="none" stroke="white" stroke-width="2" points="743.737,-284.343 667.237,-284.343 "/>
<path fill="none" stroke="white" stroke-width="2" d="M667.237,-284.343C661.237,-284.343 655.237,-278.343 655.237,-272.343"/>
<polyline fill="none" stroke="white" stroke-width="2" points="655.237,-272.343 655.237,-260.343 "/>
<path fill="none" stroke="white" stroke-width="2" d="M655.237,-260.343C655.237,-254.343 661.237,-248.343 667.237,-248.343"/>
<polyline fill="none" stroke="white" stroke-width="2" points="667.237,-248.343 743.737,-248.343 "/>
<path fill="none" stroke="white" stroke-width="2" d="M743.737,-248.343C749.737,-248.343 755.737,-254.343 755.737,-260.343"/>
<polyline fill="none" stroke="white" stroke-width="2" points="755.737,-260.343 755.737,-272.343 "/>
<path fill="none" stroke="white" stroke-width="2" d="M755.737,-272.343C755.737,-278.343 749.737,-284.343 743.737,-284.343"/>
<text text-anchor="middle" x="705.487" y="-263.843" font-family="Helvetica,sans-Serif" font-size="10.00">MNT_HEY1_HEY2</text>
</a>
</g>
<!-- RCOR1_MTA3&#45;&gt;MNT_HEY1_HEY2 -->
<g id="edge72" class="edge"><title>RCOR1_MTA3&#45;&gt;MNT_HEY1_HEY2</title>
<a xlink:title="HEY1: 0.091||RCOR1: 0.060||MTA3: 0.007||remove9root">
<path fill="none" stroke="#ebc1ff" stroke-width="3" d="M298.538,-671.878C373.644,-596.772 604.401,-366.015 680.3,-290.116"/>
<path fill="none" stroke="#ecc4ff" stroke-width="3" d="M299.953,-673.292C375.059,-598.186 605.815,-367.429 681.714,-291.531"/>
<polygon fill="#ecc4ff" stroke="#ecc4ff" points="297.228,-670.642 293.551,-678.279 301.188,-674.602 297.228,-670.642"/>
<polygon fill="#ebc1ff" stroke="#ebc1ff" points="683.357,-292.433 687.034,-284.797 679.397,-288.474 683.357,-292.433"/>
</a>
</g>
<!-- MNT_HEY1_HEY2&#45;&gt;FOXM1_TBL1XR1 -->
<g id="edge74" class="edge"><title>MNT_HEY1_HEY2&#45;&gt;FOXM1_TBL1XR1</title>
<a xlink:title="FOXM1: 0.035||TBL1XR1: 0.034||remove2root">
<path fill="none" stroke="#edc7ff" stroke-width="3" d="M674.206,-248.283C597.092,-203.762 398.051,-88.8455 313.86,-40.2378"/>
<polygon fill="#edc7ff" stroke="#edc7ff" points="315.126,-37.7353 306.798,-36.1601 312.326,-42.585 315.126,-37.7353"/>
</a>
</g>
<!-- MNT_HEY1_HEY2&#45;&gt;CPEB1 -->
<g id="edge76" class="edge"><title>MNT_HEY1_HEY2&#45;&gt;CPEB1</title>
<a xlink:title="CPEB1: 0.197||remove18root">
<path fill="none" stroke="#b4bbff" stroke-width="3" d="M655.065,-279.854C585.467,-298.503 461.731,-331.658 401.347,-347.838"/>
<polygon fill="#b4bbff" stroke="#b4bbff" points="400.61,-345.136 393.607,-349.911 402.059,-350.545 400.61,-345.136"/>
</a>
</g>
<!-- MNT_HEY1_HEY2&#45;&gt;PLAGL1 -->
<g id="edge78" class="edge"><title>MNT_HEY1_HEY2&#45;&gt;PLAGL1</title>
<a xlink:title="PLAGL1: 0.094||remove11root">
<path fill="none" stroke="#ebc0ff" stroke-width="3" d="M695.059,-248.283C678.913,-220.316 647.803,-166.432 629.352,-134.474"/>
<polygon fill="#ebc0ff" stroke="#ebc0ff" points="631.598,-132.763 625.173,-127.235 626.748,-135.563 631.598,-132.763"/>
</a>
</g>
<!-- MNT_HEY1_HEY2&#45;&gt;FOXD1_FOXO1_FOXO6_FOXG1_FOXP1 -->
<g id="edge80" class="edge"><title>MNT_HEY1_HEY2&#45;&gt;FOXD1_FOXO1_FOXO6_FOXG1_FOXP1</title>
<a xlink:title="FOXP1: 0.034||remove1root">
<path fill="none" stroke="#edc7ff" stroke-width="3" d="M700.6,-284.583C685.464,-341.07 639.32,-513.283 621.61,-579.377"/>
<polygon fill="#edc7ff" stroke="#edc7ff" points="618.864,-578.805 619.498,-587.257 624.273,-580.255 618.864,-578.805"/>
</a>
</g>
</g>
</svg>
