<?xml version="1.0" encoding="UTF-8" standalone="no"?>
<!DOCTYPE svg PUBLIC "-//W3C//DTD SVG 1.1//EN"
 "http://www.w3.org/Graphics/SVG/1.1/DTD/svg11.dtd">
<!-- Generated by graphviz version 2.28.0 (20110630.0925)
 -->
<!-- Title: _anonymous_0 Pages: 1 -->
<svg width="473pt" height="384pt"
 viewBox="0.00 0.00 473.36 384.36" xmlns="http://www.w3.org/2000/svg" xmlns:xlink="http://www.w3.org/1999/xlink">
<g id="graph1" class="graph" transform="scale(1 1) rotate(0) translate(4 380.363)">
<title>_anonymous_0</title>
<polygon fill="white" stroke="white" points="-4,5 -4,-380.363 470.363,-380.363 470.363,5 -4,5"/>
<!-- ZNF711_TFAP2A_TFAP2D -->
<g id="node1" class="node"><title>ZNF711_TFAP2A_TFAP2D</title>
<a xlink:href="ZNF711_TFAP2A_TFAP2D.svg" xlink:title="Z&#45;value: 2.387||remove34">
<polygon fill="#3247ff" stroke="#3247ff" stroke-width="2" points="435.363,-251.782 321.363,-251.782 309.363,-239.782 309.363,-227.782 321.363,-215.782 435.363,-215.782 447.363,-227.782 447.363,-239.782 435.363,-251.782"/>
<path fill="#3247ff" stroke="#3247ff" stroke-width="2" d="M321.363,-251.782C315.363,-251.782 309.363,-245.782 309.363,-239.782"/>
<path fill="#3247ff" stroke="#3247ff" stroke-width="2" d="M309.363,-227.782C309.363,-221.782 315.363,-215.782 321.363,-215.782"/>
<path fill="#3247ff" stroke="#3247ff" stroke-width="2" d="M435.363,-215.782C441.363,-215.782 447.363,-221.782 447.363,-227.782"/>
<path fill="#3247ff" stroke="#3247ff" stroke-width="2" d="M447.363,-239.782C447.363,-245.782 441.363,-251.782 435.363,-251.782"/>
<polyline fill="none" stroke="white" stroke-width="2" points="435.363,-251.782 321.363,-251.782 "/>
<path fill="none" stroke="white" stroke-width="2" d="M321.363,-251.782C315.363,-251.782 309.363,-245.782 309.363,-239.782"/>
<polyline fill="none" stroke="white" stroke-width="2" points="309.363,-239.782 309.363,-227.782 "/>
<path fill="none" stroke="white" stroke-width="2" d="M309.363,-227.782C309.363,-221.782 315.363,-215.782 321.363,-215.782"/>
<polyline fill="none" stroke="white" stroke-width="2" points="321.363,-215.782 435.363,-215.782 "/>
<path fill="none" stroke="white" stroke-width="2" d="M435.363,-215.782C441.363,-215.782 447.363,-221.782 447.363,-227.782"/>
<polyline fill="none" stroke="white" stroke-width="2" points="447.363,-227.782 447.363,-239.782 "/>
<path fill="none" stroke="white" stroke-width="2" d="M447.363,-239.782C447.363,-245.782 441.363,-251.782 435.363,-251.782"/>
<text text-anchor="middle" x="378.363" y="-231.282" font-family="Helvetica,sans-Serif" font-size="10.00" fill="white">ZNF711_TFAP2A_TFAP2D</text>
</a>
</g>
<!-- ZNF711_TFAP2A_TFAP2D&#45;&gt;ZNF711_TFAP2A_TFAP2D -->
<g id="edge6" class="edge"><title>ZNF711_TFAP2A_TFAP2D&#45;&gt;ZNF711_TFAP2A_TFAP2D</title>
<a xlink:title="TFAP2A: 0.506||ZNF711: 0.089||remove34">
<path fill="none" stroke="#d989ff" stroke-width="3" d="M447.638,-239.937C458.194,-238.997 465.363,-236.946 465.363,-233.782 465.363,-231.507 461.66,-229.808 455.657,-228.683"/>
<polygon fill="#d989ff" stroke="#d989ff" points="455.935,-225.895 447.638,-227.626 455.203,-231.448 455.935,-225.895"/>
</a>
</g>
<!-- KLF16_SP2 -->
<g id="node2" class="node"><title>KLF16_SP2</title>
<a xlink:href="KLF16_SP2.svg" xlink:title="Z&#45;value: 0.850||remove38">
<polygon fill="#95a0ff" stroke="#95a0ff" stroke-width="2" points="355.013,-330.763 310.513,-330.763 298.513,-318.763 298.513,-306.763 310.513,-294.763 355.013,-294.763 367.013,-306.763 367.013,-318.763 355.013,-330.763"/>
<path fill="#95a0ff" stroke="#95a0ff" stroke-width="2" d="M310.513,-330.763C304.513,-330.763 298.513,-324.763 298.513,-318.763"/>
<path fill="#95a0ff" stroke="#95a0ff" stroke-width="2" d="M298.513,-306.763C298.513,-300.763 304.513,-294.763 310.513,-294.763"/>
<path fill="#95a0ff" stroke="#95a0ff" stroke-width="2" d="M355.013,-294.763C361.013,-294.763 367.013,-300.763 367.013,-306.763"/>
<path fill="#95a0ff" stroke="#95a0ff" stroke-width="2" d="M367.013,-318.763C367.013,-324.763 361.013,-330.763 355.013,-330.763"/>
<polyline fill="none" stroke="white" stroke-width="2" points="355.013,-330.763 310.513,-330.763 "/>
<path fill="none" stroke="white" stroke-width="2" d="M310.513,-330.763C304.513,-330.763 298.513,-324.763 298.513,-318.763"/>
<polyline fill="none" stroke="white" stroke-width="2" points="298.513,-318.763 298.513,-306.763 "/>
<path fill="none" stroke="white" stroke-width="2" d="M298.513,-306.763C298.513,-300.763 304.513,-294.763 310.513,-294.763"/>
<polyline fill="none" stroke="white" stroke-width="2" points="310.513,-294.763 355.013,-294.763 "/>
<path fill="none" stroke="white" stroke-width="2" d="M355.013,-294.763C361.013,-294.763 367.013,-300.763 367.013,-306.763"/>
<polyline fill="none" stroke="white" stroke-width="2" points="367.013,-306.763 367.013,-318.763 "/>
<path fill="none" stroke="white" stroke-width="2" d="M367.013,-318.763C367.013,-324.763 361.013,-330.763 355.013,-330.763"/>
<text text-anchor="middle" x="332.763" y="-310.263" font-family="Helvetica,sans-Serif" font-size="10.00">KLF16_SP2</text>
</a>
</g>
<!-- ZNF711_TFAP2A_TFAP2D&#45;&gt;KLF16_SP2 -->
<g id="edge2" class="edge"><title>ZNF711_TFAP2A_TFAP2D&#45;&gt;KLF16_SP2</title>
<a xlink:title="SP2: 0.109||TFAP2A: 0.037||remove23root">
<path fill="none" stroke="#eabdff" stroke-width="3" d="M364.476,-259.835C359.246,-268.893 353.369,-279.072 348.159,-288.097"/>
<path fill="none" stroke="#edc7ff" stroke-width="3" d="M362.744,-258.835C357.514,-267.893 351.637,-278.072 346.427,-287.097"/>
<polygon fill="#edc7ff" stroke="#edc7ff" points="366.212,-260.428 367.787,-252.1 361.362,-257.628 366.212,-260.428"/>
<polygon fill="#eabdff" stroke="#eabdff" points="344.857,-286.216 343.282,-294.544 349.707,-289.016 344.857,-286.216"/>
</a>
</g>
<!-- HOMEZ -->
<g id="node4" class="node"><title>HOMEZ</title>
<a xlink:href="HOMEZ.svg" xlink:title="Z&#45;value: 1.134||remove40">
<polygon fill="#838fff" stroke="#838fff" stroke-width="2" points="268.782,-376.363 238.782,-376.363 226.782,-364.363 226.782,-352.363 238.782,-340.363 268.782,-340.363 280.782,-352.363 280.782,-364.363 268.782,-376.363"/>
<path fill="#838fff" stroke="#838fff" stroke-width="2" d="M238.782,-376.363C232.782,-376.363 226.782,-370.363 226.782,-364.363"/>
<path fill="#838fff" stroke="#838fff" stroke-width="2" d="M226.782,-352.363C226.782,-346.363 232.782,-340.363 238.782,-340.363"/>
<path fill="#838fff" stroke="#838fff" stroke-width="2" d="M268.782,-340.363C274.782,-340.363 280.782,-346.363 280.782,-352.363"/>
<path fill="#838fff" stroke="#838fff" stroke-width="2" d="M280.782,-364.363C280.782,-370.363 274.782,-376.363 268.782,-376.363"/>
<polyline fill="none" stroke="white" stroke-width="2" points="268.782,-376.363 238.782,-376.363 "/>
<path fill="none" stroke="white" stroke-width="2" d="M238.782,-376.363C232.782,-376.363 226.782,-370.363 226.782,-364.363"/>
<polyline fill="none" stroke="white" stroke-width="2" points="226.782,-364.363 226.782,-352.363 "/>
<path fill="none" stroke="white" stroke-width="2" d="M226.782,-352.363C226.782,-346.363 232.782,-340.363 238.782,-340.363"/>
<polyline fill="none" stroke="white" stroke-width="2" points="238.782,-340.363 268.782,-340.363 "/>
<path fill="none" stroke="white" stroke-width="2" d="M268.782,-340.363C274.782,-340.363 280.782,-346.363 280.782,-352.363"/>
<polyline fill="none" stroke="white" stroke-width="2" points="280.782,-352.363 280.782,-364.363 "/>
<path fill="none" stroke="white" stroke-width="2" d="M280.782,-364.363C280.782,-370.363 274.782,-376.363 268.782,-376.363"/>
<text text-anchor="middle" x="253.782" y="-355.863" font-family="Helvetica,sans-Serif" font-size="10.00">HOMEZ</text>
</a>
</g>
<!-- ZNF711_TFAP2A_TFAP2D&#45;&gt;HOMEZ -->
<g id="edge4" class="edge"><title>ZNF711_TFAP2A_TFAP2D&#45;&gt;HOMEZ</title>
<a xlink:title="HOMEZ: 0.050||remove9root">
<path fill="none" stroke="#ecc5ff" stroke-width="3" d="M344.437,-251.973C327.537,-262.166 307.597,-276.014 292.743,-291.883 281.509,-303.885 272.083,-319.682 265.318,-332.866"/>
<polygon fill="#ecc5ff" stroke="#ecc5ff" points="262.688,-331.867 261.648,-340.278 267.707,-334.351 262.688,-331.867"/>
</a>
</g>
<!-- FOXM1_TBL1XR1 -->
<g id="node7" class="node"><title>FOXM1_TBL1XR1</title>
<a xlink:href="FOXM1_TBL1XR1.svg" xlink:title="Z&#45;value: 2.140||remove46">
<polygon fill="#4255ff" stroke="#4255ff" stroke-width="2" points="199.082,-376.363 126.082,-376.363 114.082,-364.363 114.082,-352.363 126.082,-340.363 199.082,-340.363 211.082,-352.363 211.082,-364.363 199.082,-376.363"/>
<path fill="#4255ff" stroke="#4255ff" stroke-width="2" d="M126.082,-376.363C120.082,-376.363 114.082,-370.363 114.082,-364.363"/>
<path fill="#4255ff" stroke="#4255ff" stroke-width="2" d="M114.082,-352.363C114.082,-346.363 120.082,-340.363 126.082,-340.363"/>
<path fill="#4255ff" stroke="#4255ff" stroke-width="2" d="M199.082,-340.363C205.082,-340.363 211.082,-346.363 211.082,-352.363"/>
<path fill="#4255ff" stroke="#4255ff" stroke-width="2" d="M211.082,-364.363C211.082,-370.363 205.082,-376.363 199.082,-376.363"/>
<polyline fill="none" stroke="white" stroke-width="2" points="199.082,-376.363 126.082,-376.363 "/>
<path fill="none" stroke="white" stroke-width="2" d="M126.082,-376.363C120.082,-376.363 114.082,-370.363 114.082,-364.363"/>
<polyline fill="none" stroke="white" stroke-width="2" points="114.082,-364.363 114.082,-352.363 "/>
<path fill="none" stroke="white" stroke-width="2" d="M114.082,-352.363C114.082,-346.363 120.082,-340.363 126.082,-340.363"/>
<polyline fill="none" stroke="white" stroke-width="2" points="126.082,-340.363 199.082,-340.363 "/>
<path fill="none" stroke="white" stroke-width="2" d="M199.082,-340.363C205.082,-340.363 211.082,-346.363 211.082,-352.363"/>
<polyline fill="none" stroke="white" stroke-width="2" points="211.082,-352.363 211.082,-364.363 "/>
<path fill="none" stroke="white" stroke-width="2" d="M211.082,-364.363C211.082,-370.363 205.082,-376.363 199.082,-376.363"/>
<text text-anchor="middle" x="162.582" y="-355.863" font-family="Helvetica,sans-Serif" font-size="10.00" fill="white">FOXM1_TBL1XR1</text>
</a>
</g>
<!-- ZNF711_TFAP2A_TFAP2D&#45;&gt;FOXM1_TBL1XR1 -->
<g id="edge8" class="edge"><title>ZNF711_TFAP2A_TFAP2D&#45;&gt;FOXM1_TBL1XR1</title>
<a xlink:title="TBL1XR1: 0.276||FOXM1: 0.007||TFAP2A: 0.004||remove34">
<path fill="none" stroke="#e2a7ff" stroke-width="3" d="M340.513,-256.789C301.323,-279.415 240.803,-314.356 201.565,-337.011"/>
<path fill="none" stroke="#eecbff" stroke-width="3" d="M339.513,-255.057C300.323,-277.683 239.803,-312.624 200.565,-335.279"/>
<polygon fill="#eecbff" stroke="#eecbff" points="341.458,-258.322 346.987,-251.897 338.658,-253.472 341.458,-258.322"/>
<polygon fill="#e2a7ff" stroke="#e2a7ff" points="199.524,-333.801 193.996,-340.226 202.324,-338.651 199.524,-333.801"/>
</a>
</g>
<!-- PITX1 -->
<g id="node9" class="node"><title>PITX1</title>
<a xlink:href="PITX1.svg" xlink:title="Z&#45;value: 2.159||remove44">
<polygon fill="#4154ff" stroke="#4154ff" stroke-width="2" points="98.6,-330.763 68.6,-330.763 56.6,-318.763 56.6,-306.763 68.6,-294.763 98.6,-294.763 110.6,-306.763 110.6,-318.763 98.6,-330.763"/>
<path fill="#4154ff" stroke="#4154ff" stroke-width="2" d="M68.6,-330.763C62.6,-330.763 56.6,-324.763 56.6,-318.763"/>
<path fill="#4154ff" stroke="#4154ff" stroke-width="2" d="M56.6,-306.763C56.6,-300.763 62.6,-294.763 68.6,-294.763"/>
<path fill="#4154ff" stroke="#4154ff" stroke-width="2" d="M98.6,-294.763C104.6,-294.763 110.6,-300.763 110.6,-306.763"/>
<path fill="#4154ff" stroke="#4154ff" stroke-width="2" d="M110.6,-318.763C110.6,-324.763 104.6,-330.763 98.6,-330.763"/>
<polyline fill="none" stroke="white" stroke-width="2" points="98.6,-330.763 68.6,-330.763 "/>
<path fill="none" stroke="white" stroke-width="2" d="M68.6,-330.763C62.6,-330.763 56.6,-324.763 56.6,-318.763"/>
<polyline fill="none" stroke="white" stroke-width="2" points="56.6,-318.763 56.6,-306.763 "/>
<path fill="none" stroke="white" stroke-width="2" d="M56.6,-306.763C56.6,-300.763 62.6,-294.763 68.6,-294.763"/>
<polyline fill="none" stroke="white" stroke-width="2" points="68.6,-294.763 98.6,-294.763 "/>
<path fill="none" stroke="white" stroke-width="2" d="M98.6,-294.763C104.6,-294.763 110.6,-300.763 110.6,-306.763"/>
<polyline fill="none" stroke="white" stroke-width="2" points="110.6,-306.763 110.6,-318.763 "/>
<path fill="none" stroke="white" stroke-width="2" d="M110.6,-318.763C110.6,-324.763 104.6,-330.763 98.6,-330.763"/>
<text text-anchor="middle" x="83.6" y="-310.263" font-family="Helvetica,sans-Serif" font-size="10.00" fill="white">PITX1</text>
</a>
</g>
<!-- ZNF711_TFAP2A_TFAP2D&#45;&gt;PITX1 -->
<g id="edge10" class="edge"><title>ZNF711_TFAP2A_TFAP2D&#45;&gt;PITX1</title>
<a xlink:title="PITX1: 0.055||remove10root">
<path fill="none" stroke="#ecc4ff" stroke-width="3" d="M311.108,-251.802C251.196,-267.856 165.903,-290.71 118.602,-303.384"/>
<polygon fill="#ecc4ff" stroke="#ecc4ff" points="117.789,-300.703 110.786,-305.478 119.238,-306.112 117.789,-300.703"/>
</a>
</g>
<!-- PATZ1_KLF4 -->
<g id="node11" class="node"><title>PATZ1_KLF4</title>
<a xlink:href="PATZ1_KLF4.svg" xlink:title="Z&#45;value: 1.751||remove35">
<polygon fill="#5b6cff" stroke="#5b6cff" stroke-width="2" points="64,-251.782 12,-251.782 -7.10543e-15,-239.782 -7.10543e-15,-227.782 12,-215.782 64,-215.782 76,-227.782 76,-239.782 64,-251.782"/>
<path fill="#5b6cff" stroke="#5b6cff" stroke-width="2" d="M12,-251.782C6,-251.782 -7.10543e-15,-245.782 -7.10543e-15,-239.782"/>
<path fill="#5b6cff" stroke="#5b6cff" stroke-width="2" d="M-7.10543e-15,-227.782C-7.10543e-15,-221.782 6,-215.782 12,-215.782"/>
<path fill="#5b6cff" stroke="#5b6cff" stroke-width="2" d="M64,-215.782C70,-215.782 76,-221.782 76,-227.782"/>
<path fill="#5b6cff" stroke="#5b6cff" stroke-width="2" d="M76,-239.782C76,-245.782 70,-251.782 64,-251.782"/>
<polyline fill="none" stroke="white" stroke-width="2" points="64,-251.782 12,-251.782 "/>
<path fill="none" stroke="white" stroke-width="2" d="M12,-251.782C6,-251.782 -7.10543e-15,-245.782 -7.10543e-15,-239.782"/>
<polyline fill="none" stroke="white" stroke-width="2" points="-7.10543e-15,-239.782 -7.10543e-15,-227.782 "/>
<path fill="none" stroke="white" stroke-width="2" d="M-7.10543e-15,-227.782C-7.10543e-15,-221.782 6,-215.782 12,-215.782"/>
<polyline fill="none" stroke="white" stroke-width="2" points="12,-215.782 64,-215.782 "/>
<path fill="none" stroke="white" stroke-width="2" d="M64,-215.782C70,-215.782 76,-221.782 76,-227.782"/>
<polyline fill="none" stroke="white" stroke-width="2" points="76,-227.782 76,-239.782 "/>
<path fill="none" stroke="white" stroke-width="2" d="M76,-239.782C76,-245.782 70,-251.782 64,-251.782"/>
<text text-anchor="middle" x="38" y="-231.282" font-family="Helvetica,sans-Serif" font-size="10.00" fill="white">PATZ1_KLF4</text>
</a>
</g>
<!-- ZNF711_TFAP2A_TFAP2D&#45;&gt;PATZ1_KLF4 -->
<g id="edge12" class="edge"><title>ZNF711_TFAP2A_TFAP2D&#45;&gt;PATZ1_KLF4</title>
<a xlink:title="PATZ1: 0.083||TFAP2A: 0.544||remove34">
<path fill="none" stroke="#ebc0ff" stroke-width="3" d="M300.67,-234.782C233.907,-234.782 139.867,-234.782 84.2947,-234.782"/>
<path fill="none" stroke="#d784ff" stroke-width="3" d="M300.67,-232.782C233.907,-232.782 139.867,-232.782 84.2947,-232.782"/>
<polygon fill="#d784ff" stroke="#d784ff" points="301.075,-236.582 309.075,-233.782 301.075,-230.982 301.075,-236.582"/>
<polygon fill="#ebc0ff" stroke="#ebc0ff" points="84.0494,-230.982 76.0494,-233.782 84.0494,-236.582 84.0494,-230.982"/>
</a>
</g>
<!-- BARHL1 -->
<g id="node13" class="node"><title>BARHL1</title>
<a xlink:href="BARHL1.svg" xlink:title="Z&#45;value: 1.014||remove33">
<polygon fill="#8a96ff" stroke="#8a96ff" stroke-width="2" points="53.5,-160.582 22.5,-160.582 10.5,-148.582 10.5,-136.582 22.5,-124.582 53.5,-124.582 65.5,-136.582 65.5,-148.582 53.5,-160.582"/>
<path fill="#8a96ff" stroke="#8a96ff" stroke-width="2" d="M22.5,-160.582C16.5,-160.582 10.5,-154.582 10.5,-148.582"/>
<path fill="#8a96ff" stroke="#8a96ff" stroke-width="2" d="M10.5,-136.582C10.5,-130.582 16.5,-124.582 22.5,-124.582"/>
<path fill="#8a96ff" stroke="#8a96ff" stroke-width="2" d="M53.5,-124.582C59.5,-124.582 65.5,-130.582 65.5,-136.582"/>
<path fill="#8a96ff" stroke="#8a96ff" stroke-width="2" d="M65.5,-148.582C65.5,-154.582 59.5,-160.582 53.5,-160.582"/>
<polyline fill="none" stroke="white" stroke-width="2" points="53.5,-160.582 22.5,-160.582 "/>
<path fill="none" stroke="white" stroke-width="2" d="M22.5,-160.582C16.5,-160.582 10.5,-154.582 10.5,-148.582"/>
<polyline fill="none" stroke="white" stroke-width="2" points="10.5,-148.582 10.5,-136.582 "/>
<path fill="none" stroke="white" stroke-width="2" d="M10.5,-136.582C10.5,-130.582 16.5,-124.582 22.5,-124.582"/>
<polyline fill="none" stroke="white" stroke-width="2" points="22.5,-124.582 53.5,-124.582 "/>
<path fill="none" stroke="white" stroke-width="2" d="M53.5,-124.582C59.5,-124.582 65.5,-130.582 65.5,-136.582"/>
<polyline fill="none" stroke="white" stroke-width="2" points="65.5,-136.582 65.5,-148.582 "/>
<path fill="none" stroke="white" stroke-width="2" d="M65.5,-148.582C65.5,-154.582 59.5,-160.582 53.5,-160.582"/>
<text text-anchor="middle" x="38" y="-140.082" font-family="Helvetica,sans-Serif" font-size="10.00">BARHL1</text>
</a>
</g>
<!-- ZNF711_TFAP2A_TFAP2D&#45;&gt;BARHL1 -->
<g id="edge14" class="edge"><title>ZNF711_TFAP2A_TFAP2D&#45;&gt;BARHL1</title>
<a xlink:title="BARHL1: 0.064||remove14root">
<path fill="none" stroke="#ebc3ff" stroke-width="3" d="M309.107,-235.155C260.433,-234.087 194.497,-228.492 139.742,-209.062 112.348,-199.341 84.9754,-180.831 65.5331,-165.806"/>
<polygon fill="#ebc3ff" stroke="#ebc3ff" points="67.0163,-163.41 58.9999,-160.658 63.5499,-167.809 67.0163,-163.41"/>
</a>
</g>
<!-- CREB5_CREM_JUNB -->
<g id="node15" class="node"><title>CREB5_CREM_JUNB</title>
<a xlink:href="CREB5_CREM_JUNB.svg" xlink:title="Z&#45;value: 0.521||remove47">
<polygon fill="#ffaaaa" stroke="#ffaaaa" stroke-width="2" points="255.182,-206.182 161.182,-206.182 149.182,-194.182 149.182,-182.182 161.182,-170.182 255.182,-170.182 267.182,-182.182 267.182,-194.182 255.182,-206.182"/>
<path fill="#ffaaaa" stroke="#ffaaaa" stroke-width="2" d="M161.182,-206.182C155.182,-206.182 149.182,-200.182 149.182,-194.182"/>
<path fill="#ffaaaa" stroke="#ffaaaa" stroke-width="2" d="M149.182,-182.182C149.182,-176.182 155.182,-170.182 161.182,-170.182"/>
<path fill="#ffaaaa" stroke="#ffaaaa" stroke-width="2" d="M255.182,-170.182C261.182,-170.182 267.182,-176.182 267.182,-182.182"/>
<path fill="#ffaaaa" stroke="#ffaaaa" stroke-width="2" d="M267.182,-194.182C267.182,-200.182 261.182,-206.182 255.182,-206.182"/>
<polyline fill="none" stroke="white" stroke-width="2" points="255.182,-206.182 161.182,-206.182 "/>
<path fill="none" stroke="white" stroke-width="2" d="M161.182,-206.182C155.182,-206.182 149.182,-200.182 149.182,-194.182"/>
<polyline fill="none" stroke="white" stroke-width="2" points="149.182,-194.182 149.182,-182.182 "/>
<path fill="none" stroke="white" stroke-width="2" d="M149.182,-182.182C149.182,-176.182 155.182,-170.182 161.182,-170.182"/>
<polyline fill="none" stroke="white" stroke-width="2" points="161.182,-170.182 255.182,-170.182 "/>
<path fill="none" stroke="white" stroke-width="2" d="M255.182,-170.182C261.182,-170.182 267.182,-176.182 267.182,-182.182"/>
<polyline fill="none" stroke="white" stroke-width="2" points="267.182,-182.182 267.182,-194.182 "/>
<path fill="none" stroke="white" stroke-width="2" d="M267.182,-194.182C267.182,-200.182 261.182,-206.182 255.182,-206.182"/>
<text text-anchor="middle" x="208.182" y="-185.682" font-family="Helvetica,sans-Serif" font-size="10.00">CREB5_CREM_JUNB</text>
</a>
</g>
<!-- ZNF711_TFAP2A_TFAP2D&#45;&gt;CREB5_CREM_JUNB -->
<g id="edge16" class="edge"><title>ZNF711_TFAP2A_TFAP2D&#45;&gt;CREB5_CREM_JUNB</title>
<a xlink:title="CREM: 0.244||JUNB: 0.121||CREB5: 0.090||remove34root">
<path fill="none" stroke="#abb4ff" stroke-width="3" d="M311.103,-215.759C299.327,-212.604 287.074,-209.321 275.301,-206.166"/>
<polygon fill="#abb4ff" stroke="#abb4ff" points="275.692,-203.372 267.24,-204.006 274.243,-208.781 275.692,-203.372"/>
</a>
</g>
<!-- NFATC2_NFATC3 -->
<g id="node17" class="node"><title>NFATC2_NFATC3</title>
<a xlink:href="NFATC2_NFATC3.svg" xlink:title="Z&#45;value: 0.625||remove42">
<polygon fill="#a3adff" stroke="#a3adff" stroke-width="2" points="121.6,-81.6 45.6,-81.6 33.6,-69.6 33.6,-57.6 45.6,-45.6 121.6,-45.6 133.6,-57.6 133.6,-69.6 121.6,-81.6"/>
<path fill="#a3adff" stroke="#a3adff" stroke-width="2" d="M45.6,-81.6C39.6,-81.6 33.6,-75.6 33.6,-69.6"/>
<path fill="#a3adff" stroke="#a3adff" stroke-width="2" d="M33.6,-57.6C33.6,-51.6 39.6,-45.6 45.6,-45.6"/>
<path fill="#a3adff" stroke="#a3adff" stroke-width="2" d="M121.6,-45.6C127.6,-45.6 133.6,-51.6 133.6,-57.6"/>
<path fill="#a3adff" stroke="#a3adff" stroke-width="2" d="M133.6,-69.6C133.6,-75.6 127.6,-81.6 121.6,-81.6"/>
<polyline fill="none" stroke="white" stroke-width="2" points="121.6,-81.6 45.6,-81.6 "/>
<path fill="none" stroke="white" stroke-width="2" d="M45.6,-81.6C39.6,-81.6 33.6,-75.6 33.6,-69.6"/>
<polyline fill="none" stroke="white" stroke-width="2" points="33.6,-69.6 33.6,-57.6 "/>
<path fill="none" stroke="white" stroke-width="2" d="M33.6,-57.6C33.6,-51.6 39.6,-45.6 45.6,-45.6"/>
<polyline fill="none" stroke="white" stroke-width="2" points="45.6,-45.6 121.6,-45.6 "/>
<path fill="none" stroke="white" stroke-width="2" d="M121.6,-45.6C127.6,-45.6 133.6,-51.6 133.6,-57.6"/>
<polyline fill="none" stroke="white" stroke-width="2" points="133.6,-57.6 133.6,-69.6 "/>
<path fill="none" stroke="white" stroke-width="2" d="M133.6,-69.6C133.6,-75.6 127.6,-81.6 121.6,-81.6"/>
<text text-anchor="middle" x="83.6" y="-61.1" font-family="Helvetica,sans-Serif" font-size="10.00">NFATC2_NFATC3</text>
</a>
</g>
<!-- ZNF711_TFAP2A_TFAP2D&#45;&gt;NFATC2_NFATC3 -->
<g id="edge18" class="edge"><title>ZNF711_TFAP2A_TFAP2D&#45;&gt;NFATC2_NFATC3</title>
<a xlink:title="NFATC3: 0.114||TFAP2A: 0.078||ZNF711: 0.015||remove24root">
<path fill="none" stroke="#e9bcff" stroke-width="3" d="M344.724,-211.965C325.055,-198.76 299.444,-182.016 276.111,-168.161 225.503,-138.106 165.499,-106.47 126.002,-86.1732"/>
<path fill="none" stroke="#ebc1ff" stroke-width="3" d="M345.839,-210.305C326.149,-197.086 300.538,-180.342 277.132,-166.442 226.436,-136.337 166.432,-104.701 126.916,-84.3944"/>
<polygon fill="#ebc1ff" stroke="#ebc1ff" points="343.783,-213.501 351.982,-215.65 346.913,-208.857 343.783,-213.501"/>
<polygon fill="#e9bcff" stroke="#e9bcff" points="127.724,-82.7859 119.328,-81.6278 125.17,-87.7692 127.724,-82.7859"/>
</a>
</g>
<!-- SP4_PML -->
<g id="node19" class="node"><title>SP4_PML</title>
<a xlink:href="SP4_PML.svg" xlink:title="Z&#45;value: 1.603||remove43">
<polygon fill="#6574ff" stroke="#6574ff" stroke-width="2" points="180.832,-36 144.332,-36 132.332,-24 132.332,-12 144.332,-3.19744e-14 180.832,-3.19744e-14 192.832,-12 192.832,-24 180.832,-36"/>
<path fill="#6574ff" stroke="#6574ff" stroke-width="2" d="M144.332,-36C138.332,-36 132.332,-30 132.332,-24"/>
<path fill="#6574ff" stroke="#6574ff" stroke-width="2" d="M132.332,-12C132.332,-6 138.332,-3.19744e-14 144.332,-3.19744e-14"/>
<path fill="#6574ff" stroke="#6574ff" stroke-width="2" d="M180.832,-3.19744e-14C186.832,-3.19744e-14 192.832,-6 192.832,-12"/>
<path fill="#6574ff" stroke="#6574ff" stroke-width="2" d="M192.832,-24C192.832,-30 186.832,-36 180.832,-36"/>
<polyline fill="none" stroke="white" stroke-width="2" points="180.832,-36 144.332,-36 "/>
<path fill="none" stroke="white" stroke-width="2" d="M144.332,-36C138.332,-36 132.332,-30 132.332,-24"/>
<polyline fill="none" stroke="white" stroke-width="2" points="132.332,-24 132.332,-12 "/>
<path fill="none" stroke="white" stroke-width="2" d="M132.332,-12C132.332,-6 138.332,-3.19744e-14 144.332,-3.19744e-14"/>
<polyline fill="none" stroke="white" stroke-width="2" points="144.332,-3.19744e-14 180.832,-3.19744e-14 "/>
<path fill="none" stroke="white" stroke-width="2" d="M180.832,-3.19744e-14C186.832,-3.19744e-14 192.832,-6 192.832,-12"/>
<polyline fill="none" stroke="white" stroke-width="2" points="192.832,-12 192.832,-24 "/>
<path fill="none" stroke="white" stroke-width="2" d="M192.832,-24C192.832,-30 186.832,-36 180.832,-36"/>
<text text-anchor="middle" x="162.582" y="-15.5" font-family="Helvetica,sans-Serif" font-size="10.00" fill="white">SP4_PML</text>
</a>
</g>
<!-- ZNF711_TFAP2A_TFAP2D&#45;&gt;SP4_PML -->
<g id="edge20" class="edge"><title>ZNF711_TFAP2A_TFAP2D&#45;&gt;SP4_PML</title>
<a xlink:title="SP4: 0.046||TFAP2A: 0.217||ZNF711: 0.116||remove29root">
<path fill="none" stroke="#ecc5ff" stroke-width="3" d="M353.817,-210.65C312.337,-169.169 227.349,-84.1821 185.805,-42.6377"/>
<path fill="none" stroke="#e5afff" stroke-width="3" d="M355.231,-209.236C313.751,-167.755 228.764,-82.7679 187.219,-41.2235"/>
<polygon fill="#e5afff" stroke="#e5afff" points="352.7,-212.078 360.337,-215.755 356.66,-208.118 352.7,-212.078"/>
<polygon fill="#ecc5ff" stroke="#ecc5ff" points="188.345,-39.8037 180.708,-36.1267 184.385,-43.7635 188.345,-39.8037"/>
</a>
</g>
<!-- KLF16_SP2&#45;&gt;FOXM1_TBL1XR1 -->
<g id="edge76" class="edge"><title>KLF16_SP2&#45;&gt;FOXM1_TBL1XR1</title>
<a xlink:title="TBL1XR1: 0.058||FOXM1: 0.022||remove12root">
<path fill="none" stroke="#ecc4ff" stroke-width="3" d="M298.224,-319.439C276.352,-323.928 247.56,-330.32 222.462,-337.483 221.304,-337.814 220.135,-338.154 218.96,-338.503"/>
<polygon fill="#ecc4ff" stroke="#ecc4ff" points="217.949,-335.884 211.125,-340.911 219.595,-341.237 217.949,-335.884"/>
</a>
</g>
<!-- KLF16_SP2&#45;&gt;CREB5_CREM_JUNB -->
<g id="edge80" class="edge"><title>KLF16_SP2&#45;&gt;CREB5_CREM_JUNB</title>
<a xlink:title="CREM: 0.301||remove38root">
<path fill="none" stroke="#a4adff" stroke-width="3" d="M314.648,-294.648C292.873,-272.873 256.261,-236.261 232.16,-212.16"/>
<polygon fill="#a4adff" stroke="#a4adff" points="233.955,-209.996 226.319,-206.319 229.996,-213.955 233.955,-209.996"/>
</a>
</g>
<!-- KLF16_SP2&#45;&gt;NFATC2_NFATC3 -->
<g id="edge82" class="edge"><title>KLF16_SP2&#45;&gt;NFATC2_NFATC3</title>
<a xlink:title="NFATC3: 0.185||remove28root">
<path fill="none" stroke="#e6b3ff" stroke-width="3" d="M298.412,-302.565C255.707,-288.242 183.162,-258.262 139.742,-209.062 109.159,-174.408 94.3974,-121.273 87.957,-89.7242"/>
<polygon fill="#e6b3ff" stroke="#e6b3ff" points="90.6948,-89.1337 86.4245,-81.8122 85.197,-90.1988 90.6948,-89.1337"/>
</a>
</g>
<!-- SMAD1 -->
<g id="node25" class="node"><title>SMAD1</title>
<a xlink:href="SMAD1.svg" xlink:title="Z&#45;value: 1.536||remove41">
<polygon fill="#6978ff" stroke="#6978ff" stroke-width="2" points="268.782,-36 238.782,-36 226.782,-24 226.782,-12 238.782,3.19744e-14 268.782,3.19744e-14 280.782,-12 280.782,-24 268.782,-36"/>
<path fill="#6978ff" stroke="#6978ff" stroke-width="2" d="M238.782,-36C232.782,-36 226.782,-30 226.782,-24"/>
<path fill="#6978ff" stroke="#6978ff" stroke-width="2" d="M226.782,-12C226.782,-6 232.782,3.19744e-14 238.782,3.19744e-14"/>
<path fill="#6978ff" stroke="#6978ff" stroke-width="2" d="M268.782,3.19744e-14C274.782,3.19744e-14 280.782,-6 280.782,-12"/>
<path fill="#6978ff" stroke="#6978ff" stroke-width="2" d="M280.782,-24C280.782,-30 274.782,-36 268.782,-36"/>
<polyline fill="none" stroke="white" stroke-width="2" points="268.782,-36 238.782,-36 "/>
<path fill="none" stroke="white" stroke-width="2" d="M238.782,-36C232.782,-36 226.782,-30 226.782,-24"/>
<polyline fill="none" stroke="white" stroke-width="2" points="226.782,-24 226.782,-12 "/>
<path fill="none" stroke="white" stroke-width="2" d="M226.782,-12C226.782,-6 232.782,3.19744e-14 238.782,3.19744e-14"/>
<polyline fill="none" stroke="white" stroke-width="2" points="238.782,3.19744e-14 268.782,3.19744e-14 "/>
<path fill="none" stroke="white" stroke-width="2" d="M268.782,3.19744e-14C274.782,3.19744e-14 280.782,-6 280.782,-12"/>
<polyline fill="none" stroke="white" stroke-width="2" points="280.782,-12 280.782,-24 "/>
<path fill="none" stroke="white" stroke-width="2" d="M280.782,-24C280.782,-30 274.782,-36 268.782,-36"/>
<text text-anchor="middle" x="253.782" y="-15.5" font-family="Helvetica,sans-Serif" font-size="10.00" fill="white">SMAD1</text>
</a>
</g>
<!-- KLF16_SP2&#45;&gt;SMAD1 -->
<g id="edge74" class="edge"><title>KLF16_SP2&#45;&gt;SMAD1</title>
<a xlink:title="SMAD1: 0.002||remove0root">
<path fill="none" stroke="#eecbff" stroke-width="3" d="M319.855,-294.759C312.498,-283.685 303.701,-268.925 298.323,-254.662 283.832,-216.228 265.346,-97.3738 257.534,-44.1912"/>
<polygon fill="#eecbff" stroke="#eecbff" points="260.3,-43.7538 256.374,-36.2419 254.759,-44.5624 260.3,-43.7538"/>
</a>
</g>
<!-- SP3 -->
<g id="node27" class="node"><title>SP3</title>
<a xlink:href="SP3.svg" xlink:title="Z&#45;value: 1.634||remove45">
<polygon fill="#6372ff" stroke="#6372ff" stroke-width="2" points="347.763,-81.6 317.763,-81.6 305.763,-69.6 305.763,-57.6 317.763,-45.6 347.763,-45.6 359.763,-57.6 359.763,-69.6 347.763,-81.6"/>
<path fill="#6372ff" stroke="#6372ff" stroke-width="2" d="M317.763,-81.6C311.763,-81.6 305.763,-75.6 305.763,-69.6"/>
<path fill="#6372ff" stroke="#6372ff" stroke-width="2" d="M305.763,-57.6C305.763,-51.6 311.763,-45.6 317.763,-45.6"/>
<path fill="#6372ff" stroke="#6372ff" stroke-width="2" d="M347.763,-45.6C353.763,-45.6 359.763,-51.6 359.763,-57.6"/>
<path fill="#6372ff" stroke="#6372ff" stroke-width="2" d="M359.763,-69.6C359.763,-75.6 353.763,-81.6 347.763,-81.6"/>
<polyline fill="none" stroke="white" stroke-width="2" points="347.763,-81.6 317.763,-81.6 "/>
<path fill="none" stroke="white" stroke-width="2" d="M317.763,-81.6C311.763,-81.6 305.763,-75.6 305.763,-69.6"/>
<polyline fill="none" stroke="white" stroke-width="2" points="305.763,-69.6 305.763,-57.6 "/>
<path fill="none" stroke="white" stroke-width="2" d="M305.763,-57.6C305.763,-51.6 311.763,-45.6 317.763,-45.6"/>
<polyline fill="none" stroke="white" stroke-width="2" points="317.763,-45.6 347.763,-45.6 "/>
<path fill="none" stroke="white" stroke-width="2" d="M347.763,-45.6C353.763,-45.6 359.763,-51.6 359.763,-57.6"/>
<polyline fill="none" stroke="white" stroke-width="2" points="359.763,-57.6 359.763,-69.6 "/>
<path fill="none" stroke="white" stroke-width="2" d="M359.763,-69.6C359.763,-75.6 353.763,-81.6 347.763,-81.6"/>
<text text-anchor="middle" x="332.763" y="-61.1" font-family="Helvetica,sans-Serif" font-size="10.00" fill="white">SP3</text>
</a>
</g>
<!-- KLF16_SP2&#45;&gt;SP3 -->
<g id="edge78" class="edge"><title>KLF16_SP2&#45;&gt;SP3</title>
<a xlink:title="SP3: 0.230||SP2: 0.088||remove30root">
<path fill="none" stroke="#e4adff" stroke-width="3" d="M313.141,-288.33C306.831,-278.459 300.633,-266.778 297.359,-254.926 281.402,-196.08 304.682,-125.738 320.103,-88.726"/>
<path fill="none" stroke="#eac0ff" stroke-width="3" d="M314.826,-287.253C308.598,-277.521 302.399,-265.841 299.287,-254.397 283.301,-196.709 306.581,-126.366 321.949,-89.4954"/>
<polygon fill="#eac0ff" stroke="#eac0ff" points="311.743,-289.477 318.519,-294.569 316.397,-286.363 311.743,-289.477"/>
<polygon fill="#e4adff" stroke="#e4adff" points="323.602,-90.2078 324.174,-81.7512 318.453,-88.0052 323.602,-90.2078"/>
</a>
</g>
<!-- HOMEZ&#45;&gt;CREB5_CREM_JUNB -->
<g id="edge60" class="edge"><title>HOMEZ&#45;&gt;CREB5_CREM_JUNB</title>
<a xlink:title="CREB5: 0.344||HOMEZ: 0.005||remove40root">
<path fill="none" stroke="#9ea8ff" stroke-width="3" d="M245.831,-332.555C237.255,-300.548 222.794,-246.578 214.212,-214.551"/>
<path fill="none" stroke="#ffcbcb" stroke-width="3" d="M247.763,-332.038C239.187,-300.03 224.726,-246.061 216.144,-214.033"/>
<polygon fill="#ffcbcb" stroke="#ffcbcb" points="244.126,-333.148 248.902,-340.151 249.535,-331.699 244.126,-333.148"/>
<polygon fill="#9ea8ff" stroke="#9ea8ff" points="217.802,-213.266 213.026,-206.263 212.392,-214.715 217.802,-213.266"/>
</a>
</g>
<!-- FOXM1_TBL1XR1&#45;&gt;HOMEZ -->
<g id="edge28" class="edge"><title>FOXM1_TBL1XR1&#45;&gt;HOMEZ</title>
<a xlink:title="HOMEZ: 0.026||remove6root">
<path fill="none" stroke="#edc8ff" stroke-width="3" d="M211.119,-358.363C213.591,-358.363 216.052,-358.363 218.473,-358.363"/>
<polygon fill="#edc8ff" stroke="#edc8ff" points="218.502,-361.163 226.502,-358.363 218.501,-355.563 218.502,-361.163"/>
</a>
</g>
<!-- FOXM1_TBL1XR1&#45;&gt;CREB5_CREM_JUNB -->
<g id="edge34" class="edge"><title>FOXM1_TBL1XR1&#45;&gt;CREB5_CREM_JUNB</title>
<a xlink:title="CREB5: 1.155||CREM: 0.825||remove46root">
<path fill="none" stroke="#3247ff" stroke-width="3" d="M167.462,-340.151C175.587,-309.827 191.915,-248.89 201.237,-214.097"/>
<polygon fill="#3247ff" stroke="#3247ff" points="203.971,-214.715 203.337,-206.263 198.561,-213.266 203.971,-214.715"/>
</a>
</g>
<!-- FOXM1_TBL1XR1&#45;&gt;NFATC2_NFATC3 -->
<g id="edge36" class="edge"><title>FOXM1_TBL1XR1&#45;&gt;NFATC2_NFATC3</title>
<a xlink:title="NFATC2: 0.165||remove27root">
<path fill="none" stroke="#e7b6ff" stroke-width="3" d="M157.641,-339.924C144.09,-289.35 106.302,-148.324 90.5903,-89.6882"/>
<polygon fill="#e7b6ff" stroke="#e7b6ff" points="93.2132,-88.6581 88.4379,-81.6554 87.804,-90.1075 93.2132,-88.6581"/>
</a>
</g>
<!-- FOXM1_TBL1XR1&#45;&gt;SP4_PML -->
<g id="edge38" class="edge"><title>FOXM1_TBL1XR1&#45;&gt;SP4_PML</title>
<a xlink:title="PML: 0.279||TBL1XR1: 0.555||FOXM1: 0.102||remove43">
<path fill="none" stroke="#e2a7ff" stroke-width="3" d="M156.303,-332.07C150.644,-302.315 142.05,-252.543 138.744,-209.137 134.267,-149.825 146.95,-80.9328 155.182,-44.1135"/>
<path fill="none" stroke="#d782ff" stroke-width="3" d="M158.268,-331.696C152.615,-301.975 144.021,-252.203 140.739,-208.986 136.234,-150.188 148.917,-81.2949 157.134,-44.5499"/>
<polygon fill="#d782ff" stroke="#d782ff" points="154.602,-332.754 158.867,-340.078 160.1,-331.693 154.602,-332.754"/>
<polygon fill="#e2a7ff" stroke="#e2a7ff" points="158.98,-44.5495 158.039,-36.1261 153.522,-43.2983 158.98,-44.5495"/>
</a>
</g>
<!-- FOXM1_TBL1XR1&#45;&gt;SMAD1 -->
<g id="edge30" class="edge"><title>FOXM1_TBL1XR1&#45;&gt;SMAD1</title>
<a xlink:title="SMAD1: 0.105||remove21root">
<path fill="none" stroke="#eabeff" stroke-width="3" d="M155.26,-340.173C142.435,-305.555 119.138,-228.219 139.742,-167.302 156.938,-116.458 199.146,-69.2898 227.106,-42.0792"/>
<polygon fill="#eabeff" stroke="#eabeff" points="229.347,-43.8102 233.188,-36.2549 225.474,-39.7655 229.347,-43.8102"/>
</a>
</g>
<!-- FOXM1_TBL1XR1&#45;&gt;SP3 -->
<g id="edge32" class="edge"><title>FOXM1_TBL1XR1&#45;&gt;SP3</title>
<a xlink:title="SP3: 0.266||TBL1XR1: 0.644||remove45">
<path fill="none" stroke="#e3a8ff" stroke-width="3" d="M183.796,-333.523C208.654,-305.211 249.189,-256.053 275.749,-208.573 297.793,-169.226 314.976,-119.244 324.221,-89.3737"/>
<path fill="none" stroke="#d376ff" stroke-width="3" d="M185.299,-334.843C210.197,-306.483 250.732,-257.326 277.494,-209.55 299.684,-169.876 316.868,-119.894 326.132,-89.965"/>
<polygon fill="#d376ff" stroke="#d376ff" points="182.388,-332.398 179.184,-340.245 186.582,-336.109 182.388,-332.398"/>
<polygon fill="#e3a8ff" stroke="#e3a8ff" points="327.923,-90.2627 327.574,-81.794 322.565,-88.6318 327.923,-90.2627"/>
</a>
</g>
<!-- PITX1&#45;&gt;HOMEZ -->
<g id="edge22" class="edge"><title>PITX1&#45;&gt;HOMEZ</title>
<a xlink:title="HOMEZ: 0.277||remove37root">
<path fill="none" stroke="#e2a7ff" stroke-width="3" d="M110.667,-314.762C137.013,-317.336 178.069,-323.018 218.863,-337.729"/>
<polygon fill="#e2a7ff" stroke="#e2a7ff" points="218,-340.396 226.474,-340.583 219.966,-335.152 218,-340.396"/>
</a>
</g>
<!-- PITX1&#45;&gt;PATZ1_KLF4 -->
<g id="edge24" class="edge"><title>PITX1&#45;&gt;PATZ1_KLF4</title>
<a xlink:title="KLF4: 0.239||PITX1: 0.139||remove32root">
<path fill="none" stroke="#e4acff" stroke-width="3" d="M67.9806,-287.709C62.7513,-278.652 56.8741,-268.472 51.6635,-259.447"/>
<path fill="none" stroke="#e8b9ff" stroke-width="3" d="M69.7127,-286.709C64.4833,-277.652 58.6061,-267.472 53.3956,-258.447"/>
<polygon fill="#e8b9ff" stroke="#e8b9ff" points="66.5989,-288.916 73.0238,-294.445 71.4487,-286.116 66.5989,-288.916"/>
<polygon fill="#e4acff" stroke="#e4acff" points="54.9437,-257.529 48.5188,-252.001 50.094,-260.329 54.9437,-257.529"/>
</a>
</g>
<!-- PITX1&#45;&gt;CREB5_CREM_JUNB -->
<g id="edge26" class="edge"><title>PITX1&#45;&gt;CREB5_CREM_JUNB</title>
<a xlink:title="CREM: 0.482||remove44root">
<path fill="none" stroke="#8c97ff" stroke-width="3" d="M101.715,-294.648C123.49,-272.873 160.102,-236.261 184.203,-212.16"/>
<polygon fill="#8c97ff" stroke="#8c97ff" points="186.367,-213.955 190.044,-206.319 182.408,-209.996 186.367,-213.955"/>
</a>
</g>
<!-- PATZ1_KLF4&#45;&gt;KLF16_SP2 -->
<g id="edge62" class="edge"><title>PATZ1_KLF4&#45;&gt;KLF16_SP2</title>
<a xlink:title="KLF16: 0.163||SP2: 0.058||remove26root">
<path fill="none" stroke="#e7b6ff" stroke-width="3" d="M76.2329,-244.026C131.429,-258.816 233.091,-286.056 290.469,-301.43"/>
<polygon fill="#e7b6ff" stroke="#e7b6ff" points="289.81,-304.152 298.262,-303.518 291.259,-298.743 289.81,-304.152"/>
</a>
</g>
<!-- PATZ1_KLF4&#45;&gt;HOMEZ -->
<g id="edge64" class="edge"><title>PATZ1_KLF4&#45;&gt;HOMEZ</title>
<a xlink:title="HOMEZ: 0.088||remove18root">
<path fill="none" stroke="#eac0ff" stroke-width="3" d="M70.2663,-251.881C106.661,-272.376 167.542,-306.9 219.422,-337.483 219.564,-337.567 219.707,-337.652 219.851,-337.736"/>
<polygon fill="#eac0ff" stroke="#eac0ff" points="218.132,-339.972 226.439,-341.657 220.996,-335.16 218.132,-339.972"/>
</a>
</g>
<!-- PATZ1_KLF4&#45;&gt;FOXM1_TBL1XR1 -->
<g id="edge68" class="edge"><title>PATZ1_KLF4&#45;&gt;FOXM1_TBL1XR1</title>
<a xlink:title="TBL1XR1: 0.675||remove35">
<path fill="none" stroke="#d272ff" stroke-width="3" d="M65.9707,-251.835C81.3324,-262.477 100.196,-276.788 114.92,-291.883 127.135,-304.407 138.631,-320.271 147.271,-333.361"/>
<polygon fill="#d272ff" stroke="#d272ff" points="145.068,-335.112 151.763,-340.31 149.771,-332.071 145.068,-335.112"/>
</a>
</g>
<!-- PATZ1_KLF4&#45;&gt;PATZ1_KLF4 -->
<g id="edge70" class="edge"><title>PATZ1_KLF4&#45;&gt;PATZ1_KLF4</title>
<a xlink:title="PATZ1: 0.441||KLF4: 0.051||remove35">
<path fill="none" stroke="#db91ff" stroke-width="3" d="M76.214,-240.472C86.3346,-240.09 94,-237.86 94,-233.782 94,-230.914 90.2104,-228.96 84.4422,-227.92"/>
<polygon fill="#db91ff" stroke="#db91ff" points="84.4544,-225.107 76.214,-227.091 83.8929,-230.679 84.4544,-225.107"/>
</a>
</g>
<!-- PATZ1_KLF4&#45;&gt;CREB5_CREM_JUNB -->
<g id="edge72" class="edge"><title>PATZ1_KLF4&#45;&gt;CREB5_CREM_JUNB</title>
<a xlink:title="CREB5: 0.256||CREM: 0.148||remove35root">
<path fill="none" stroke="#aab2ff" stroke-width="3" d="M76.1921,-223.548C95.3902,-218.404 119.22,-212.019 141.327,-206.095"/>
<polygon fill="#aab2ff" stroke="#aab2ff" points="142.062,-208.797 149.064,-204.022 140.612,-203.388 142.062,-208.797"/>
</a>
</g>
<!-- PATZ1_KLF4&#45;&gt;SMAD1 -->
<g id="edge66" class="edge"><title>PATZ1_KLF4&#45;&gt;SMAD1</title>
<a xlink:title="SMAD1: 0.087||KLF4: 0.044||remove17root">
<path fill="none" stroke="#eac0ff" stroke-width="3" d="M61.1318,-209.236C102.612,-167.755 187.599,-82.7679 229.144,-41.2235"/>
<path fill="none" stroke="#ecc6ff" stroke-width="3" d="M62.546,-210.65C104.026,-169.169 189.014,-84.1821 230.558,-42.6377"/>
<polygon fill="#ecc6ff" stroke="#ecc6ff" points="59.7032,-208.118 56.0263,-215.755 63.6631,-212.078 59.7032,-208.118"/>
<polygon fill="#eac0ff" stroke="#eac0ff" points="231.978,-43.7635 235.655,-36.1267 228.018,-39.8037 231.978,-43.7635"/>
</a>
</g>
<!-- BARHL1&#45;&gt;CREB5_CREM_JUNB -->
<g id="edge56" class="edge"><title>BARHL1&#45;&gt;CREB5_CREM_JUNB</title>
<a xlink:title="CREM: 0.242||CREB5: 0.007||remove33root">
<path fill="none" stroke="#abb4ff" stroke-width="3" d="M65.7214,-150.009C86.1213,-155.476 114.756,-163.148 141.007,-170.182"/>
<polygon fill="#abb4ff" stroke="#abb4ff" points="140.614,-172.976 149.066,-172.342 142.063,-167.566 140.614,-172.976"/>
</a>
</g>
<!-- BARHL1&#45;&gt;NFATC2_NFATC3 -->
<g id="edge58" class="edge"><title>BARHL1&#45;&gt;NFATC2_NFATC3</title>
<a xlink:title="NFATC3: 0.046||remove8root">
<path fill="none" stroke="#ecc5ff" stroke-width="3" d="M48.5762,-124.263C54.6192,-113.796 62.2889,-100.512 68.9096,-89.0446"/>
<polygon fill="#ecc5ff" stroke="#ecc5ff" points="71.506,-90.1474 73.0812,-81.8191 66.6563,-87.3473 71.506,-90.1474"/>
</a>
</g>
<!-- BARHL1&#45;&gt;SMAD1 -->
<g id="edge54" class="edge"><title>BARHL1&#45;&gt;SMAD1</title>
<a xlink:title="SMAD1: 0.038||remove7root">
<path fill="none" stroke="#edc6ff" stroke-width="3" d="M65.8039,-127.224C86.7214,-115.613 116.054,-99.2102 141.6,-84.48 167.968,-69.2757 197.583,-51.7048 219.76,-38.4469"/>
<polygon fill="#edc6ff" stroke="#edc6ff" points="221.259,-40.8131 226.686,-34.3024 218.383,-36.0078 221.259,-40.8131"/>
</a>
</g>
<!-- CREB5_CREM_JUNB&#45;&gt;CREB5_CREM_JUNB -->
<g id="edge86" class="edge"><title>CREB5_CREM_JUNB&#45;&gt;CREB5_CREM_JUNB</title>
<a xlink:title="CREM: 0.108||remove22root">
<path fill="none" stroke="#ffbdbd" stroke-width="3" d="M267.261,-194.536C277.812,-193.71 285.182,-191.592 285.182,-188.182 285.182,-185.73 281.374,-183.947 275.315,-182.831"/>
<polygon fill="#ffbdbd" stroke="#ffbdbd" points="275.545,-180.038 267.261,-181.827 274.853,-185.595 275.545,-180.038"/>
</a>
</g>
<!-- NFATC2_NFATC3&#45;&gt;CREB5_CREM_JUNB -->
<g id="edge84" class="edge"><title>NFATC2_NFATC3&#45;&gt;CREB5_CREM_JUNB</title>
<a xlink:title="CREB5: 0.356||remove42root">
<path fill="none" stroke="#9ca6ff" stroke-width="3" d="M101.715,-81.7152C123.49,-103.49 160.102,-140.102 184.203,-164.203"/>
<polygon fill="#9ca6ff" stroke="#9ca6ff" points="182.408,-166.367 190.044,-170.044 186.367,-162.408 182.408,-166.367"/>
</a>
</g>
<!-- SP4_PML&#45;&gt;KLF16_SP2 -->
<g id="edge40" class="edge"><title>SP4_PML&#45;&gt;KLF16_SP2</title>
<a xlink:title="SP2: 0.038||SP4: 0.102||PML: 0.004||remove20root">
<path fill="none" stroke="#edc6ff" stroke-width="3" d="M186.801,-41.3996C212.742,-69.3213 253.877,-117.729 277.523,-166.868 294.744,-203.965 283.937,-218.251 299.248,-254.282 303.851,-265.521 310.452,-277.297 316.609,-287.217"/>
<path fill="none" stroke="#eabeff" stroke-width="3" d="M185.335,-42.7609C211.218,-70.6164 252.353,-119.024 275.72,-167.735 293.149,-202.759 282.342,-217.045 297.398,-255.041 302.106,-266.499 308.708,-278.275 314.91,-288.272"/>
<polygon fill="#eabeff" stroke="#eabeff" points="187.982,-40.0281 180.464,-36.1133 183.9,-43.8617 187.982,-40.0281"/>
<polygon fill="#edc6ff" stroke="#edc6ff" points="313.493,-289.398 320.151,-294.643 318.217,-286.39 313.493,-289.398"/>
</a>
</g>
<!-- SP4_PML&#45;&gt;PATZ1_KLF4 -->
<g id="edge44" class="edge"><title>SP4_PML&#45;&gt;PATZ1_KLF4</title>
<a xlink:title="PATZ1: 0.058||remove11root">
<path fill="none" stroke="#ecc4ff" stroke-width="3" d="M158.456,-36.0557C154.956,-49.755 149.277,-68.834 141.6,-84.48 118.441,-131.678 81.5343,-180.693 58.591,-209.16"/>
<polygon fill="#ecc4ff" stroke="#ecc4ff" points="56.2304,-207.625 53.3565,-215.598 60.5757,-211.157 56.2304,-207.625"/>
</a>
</g>
<!-- SP4_PML&#45;&gt;BARHL1 -->
<g id="edge46" class="edge"><title>SP4_PML&#45;&gt;BARHL1</title>
<a xlink:title="BARHL1: 0.005||remove1root">
<path fill="none" stroke="#eecbff" stroke-width="3" d="M160.563,-36.0923C158.147,-50.5344 152.901,-70.5824 141.6,-84.48 123.911,-106.235 95.7867,-121.271 73.3024,-130.588"/>
<polygon fill="#eecbff" stroke="#eecbff" points="72.01,-128.088 65.611,-133.647 74.0795,-133.292 72.01,-128.088"/>
</a>
</g>
<!-- SP4_PML&#45;&gt;CREB5_CREM_JUNB -->
<g id="edge48" class="edge"><title>SP4_PML&#45;&gt;CREB5_CREM_JUNB</title>
<a xlink:title="CREB5: 0.392||CREM: 0.074||remove43root">
<path fill="none" stroke="#98a2ff" stroke-width="3" d="M167.462,-36.2124C175.587,-66.5365 191.915,-127.473 201.237,-162.266"/>
<polygon fill="#98a2ff" stroke="#98a2ff" points="198.561,-163.097 203.337,-170.1 203.971,-161.648 198.561,-163.097"/>
</a>
</g>
<!-- SP4_PML&#45;&gt;NFATC2_NFATC3 -->
<g id="edge50" class="edge"><title>SP4_PML&#45;&gt;NFATC2_NFATC3</title>
<a xlink:title="NFATC3: 0.237||remove31root">
<path fill="none" stroke="#e4acff" stroke-width="3" d="M132.271,-35.4997C128.913,-37.4384 125.462,-39.4312 122.021,-41.4177"/>
<polygon fill="#e4acff" stroke="#e4acff" points="120.535,-39.0422 115.007,-45.4671 123.335,-43.892 120.535,-39.0422"/>
</a>
</g>
<!-- SP4_PML&#45;&gt;SP4_PML -->
<g id="edge52" class="edge"><title>SP4_PML&#45;&gt;SP4_PML</title>
<a xlink:title="SP4: 0.061||remove13root">
<path fill="none" stroke="#ecc3ff" stroke-width="3" d="M193.049,-24.7484C202.83,-24.6791 210.582,-22.4297 210.582,-18 210.582,-14.8854 206.749,-12.8486 201.074,-11.8898"/>
<polygon fill="#ecc3ff" stroke="#ecc3ff" points="201.246,-9.09468 193.049,-11.2516 200.802,-14.6771 201.246,-9.09468"/>
</a>
</g>
<!-- SP4_PML&#45;&gt;SMAD1 -->
<g id="edge42" class="edge"><title>SP4_PML&#45;&gt;SMAD1</title>
<a xlink:title="SMAD1: 0.025||PML: 0.260||remove36root">
<path fill="none" stroke="#edc8ff" stroke-width="3" d="M201.045,-17C206.821,-17 212.754,-17 218.46,-17"/>
<path fill="none" stroke="#e3a9ff" stroke-width="3" d="M201.045,-19C206.821,-19 212.754,-19 218.46,-19"/>
<polygon fill="#e3a9ff" stroke="#e3a9ff" points="200.95,-15.1999 192.95,-18 200.95,-20.7999 200.95,-15.1999"/>
<polygon fill="#edc8ff" stroke="#edc8ff" points="218.613,-20.8001 226.613,-18 218.613,-15.2001 218.613,-20.8001"/>
</a>
</g>
<!-- SMAD1&#45;&gt;CREB5_CREM_JUNB -->
<g id="edge90" class="edge"><title>SMAD1&#45;&gt;CREB5_CREM_JUNB</title>
<a xlink:title="CREM: 0.348||remove41root">
<path fill="none" stroke="#9da7ff" stroke-width="3" d="M248.902,-36.2124C240.776,-66.5365 224.448,-127.473 215.126,-162.266"/>
<polygon fill="#9da7ff" stroke="#9da7ff" points="212.392,-161.648 213.026,-170.1 217.802,-163.097 212.392,-161.648"/>
</a>
</g>
<!-- SMAD1&#45;&gt;NFATC2_NFATC3 -->
<g id="edge92" class="edge"><title>SMAD1&#45;&gt;NFATC2_NFATC3</title>
<a xlink:title="NFATC3: 0.013||remove3root">
<path fill="none" stroke="#eecaff" stroke-width="3" d="M226.509,-29.104C217.512,-32.5236 207.393,-36.1125 197.962,-38.88 179.96,-44.162 160.063,-48.8502 141.981,-52.6856"/>
<polygon fill="#eecaff" stroke="#eecaff" points="141.075,-50.0142 133.814,-54.3869 142.217,-55.4965 141.075,-50.0142"/>
</a>
</g>
<!-- FOXQ1 -->
<g id="node56" class="node"><title>FOXQ1</title>
<a xlink:href="FOXQ1.svg" xlink:title="Z&#45;value: 0.912||remove39">
<polygon fill="#919cff" stroke="#919cff" stroke-width="2" points="393.363,-160.582 363.363,-160.582 351.363,-148.582 351.363,-136.582 363.363,-124.582 393.363,-124.582 405.363,-136.582 405.363,-148.582 393.363,-160.582"/>
<path fill="#919cff" stroke="#919cff" stroke-width="2" d="M363.363,-160.582C357.363,-160.582 351.363,-154.582 351.363,-148.582"/>
<path fill="#919cff" stroke="#919cff" stroke-width="2" d="M351.363,-136.582C351.363,-130.582 357.363,-124.582 363.363,-124.582"/>
<path fill="#919cff" stroke="#919cff" stroke-width="2" d="M393.363,-124.582C399.363,-124.582 405.363,-130.582 405.363,-136.582"/>
<path fill="#919cff" stroke="#919cff" stroke-width="2" d="M405.363,-148.582C405.363,-154.582 399.363,-160.582 393.363,-160.582"/>
<polyline fill="none" stroke="white" stroke-width="2" points="393.363,-160.582 363.363,-160.582 "/>
<path fill="none" stroke="white" stroke-width="2" d="M363.363,-160.582C357.363,-160.582 351.363,-154.582 351.363,-148.582"/>
<polyline fill="none" stroke="white" stroke-width="2" points="351.363,-148.582 351.363,-136.582 "/>
<path fill="none" stroke="white" stroke-width="2" d="M351.363,-136.582C351.363,-130.582 357.363,-124.582 363.363,-124.582"/>
<polyline fill="none" stroke="white" stroke-width="2" points="363.363,-124.582 393.363,-124.582 "/>
<path fill="none" stroke="white" stroke-width="2" d="M393.363,-124.582C399.363,-124.582 405.363,-130.582 405.363,-136.582"/>
<polyline fill="none" stroke="white" stroke-width="2" points="405.363,-136.582 405.363,-148.582 "/>
<path fill="none" stroke="white" stroke-width="2" d="M405.363,-148.582C405.363,-154.582 399.363,-160.582 393.363,-160.582"/>
<text text-anchor="middle" x="378.363" y="-140.082" font-family="Helvetica,sans-Serif" font-size="10.00">FOXQ1</text>
</a>
</g>
<!-- SMAD1&#45;&gt;FOXQ1 -->
<g id="edge88" class="edge"><title>SMAD1&#45;&gt;FOXQ1</title>
<a xlink:title="FOXQ1: 0.005||SMAD1: 0.006||remove2root">
<path fill="none" stroke="#eecbff" stroke-width="3" d="M269.927,-42.4507C278.542,-55.5051 290.038,-71.3698 302.159,-83.7818 314.915,-96.8722 330.924,-109.453 344.968,-119.489"/>
<path fill="none" stroke="#eecbff" stroke-width="3" d="M268.258,-43.5524C276.923,-56.6787 288.418,-72.5433 300.727,-85.1782 313.679,-98.4447 329.689,-111.025 343.805,-121.116"/>
<polygon fill="#eecbff" stroke="#eecbff" points="271.295,-41.2511 264.6,-36.0534 266.592,-44.2917 271.295,-41.2511"/>
<polygon fill="#eecbff" stroke="#eecbff" points="342.965,-122.726 351.121,-125.032 346.184,-118.143 342.965,-122.726"/>
</a>
</g>
<!-- SP3&#45;&gt;ZNF711_TFAP2A_TFAP2D -->
<g id="edge98" class="edge"><title>SP3&#45;&gt;ZNF711_TFAP2A_TFAP2D</title>
<a xlink:title="TFAP2A: 0.666||ZNF711: 0.060||remove34">
<path fill="none" stroke="#d273ff" stroke-width="3" d="M333.861,-81.9581C335.423,-102.236 339.043,-135.694 347.043,-163.462 351.466,-178.813 358.588,-195.16 364.923,-208.226"/>
<polygon fill="#d273ff" stroke="#d273ff" points="362.472,-209.586 368.536,-215.508 367.488,-207.097 362.472,-209.586"/>
</a>
</g>
<!-- SP3&#45;&gt;HOMEZ -->
<g id="edge94" class="edge"><title>SP3&#45;&gt;HOMEZ</title>
<a xlink:title="HOMEZ: 0.067||remove15root">
<path fill="none" stroke="#ebc3ff" stroke-width="3" d="M327.822,-82.0388C314.271,-132.613 276.483,-273.639 260.772,-332.275"/>
<polygon fill="#ebc3ff" stroke="#ebc3ff" points="257.985,-331.855 258.619,-340.308 263.395,-333.305 257.985,-331.855"/>
</a>
</g>
<!-- SP3&#45;&gt;PITX1 -->
<g id="edge100" class="edge"><title>SP3&#45;&gt;PITX1</title>
<a xlink:title="PITX1: 0.124||remove25root">
<path fill="none" stroke="#e9bbff" stroke-width="3" d="M305.526,-71.4638C264.216,-84.7092 185.679,-115.248 139.742,-167.302 109.159,-201.956 94.3974,-255.091 87.957,-286.639"/>
<polygon fill="#e9bbff" stroke="#e9bbff" points="85.197,-286.164 86.4245,-294.551 90.6948,-287.229 85.197,-286.164"/>
</a>
</g>
<!-- SP3&#45;&gt;PATZ1_KLF4 -->
<g id="edge102" class="edge"><title>SP3&#45;&gt;PATZ1_KLF4</title>
<a xlink:title="PATZ1: 0.077||KLF4: 0.020||remove16root">
<path fill="none" stroke="#ebc1ff" stroke-width="3" d="M305.503,-77.3094C267.745,-96.5087 197.635,-132.921 139.742,-167.302 116.372,-181.179 90.7613,-197.923 71.0813,-211.135"/>
<polygon fill="#ebc1ff" stroke="#ebc1ff" points="69.4504,-208.857 64.381,-215.65 72.5799,-213.501 69.4504,-208.857"/>
</a>
</g>
<!-- SP3&#45;&gt;BARHL1 -->
<g id="edge104" class="edge"><title>SP3&#45;&gt;BARHL1</title>
<a xlink:title="BARHL1: 0.016||remove4root">
<path fill="none" stroke="#eec9ff" stroke-width="3" d="M305.561,-70.8888C252.066,-85.2227 133.209,-117.07 73.5739,-133.05"/>
<polygon fill="#eec9ff" stroke="#eec9ff" points="72.5677,-130.42 65.565,-135.195 74.0172,-135.829 72.5677,-130.42"/>
</a>
</g>
<!-- SP3&#45;&gt;CREB5_CREM_JUNB -->
<g id="edge106" class="edge"><title>SP3&#45;&gt;CREB5_CREM_JUNB</title>
<a xlink:title="CREB5: 0.572||CREM: 0.270||JUNB: 0.022||remove45root">
<path fill="none" stroke="#808cff" stroke-width="3" d="M314.648,-81.7152C292.873,-103.49 256.261,-140.102 232.16,-164.203"/>
<polygon fill="#808cff" stroke="#808cff" points="229.996,-162.408 226.319,-170.044 233.955,-166.367 229.996,-162.408"/>
</a>
</g>
<!-- SP3&#45;&gt;SP4_PML -->
<g id="edge108" class="edge"><title>SP3&#45;&gt;SP4_PML</title>
<a xlink:title="SP4: 0.099||remove19root">
<path fill="none" stroke="#eabeff" stroke-width="3" d="M305.346,-58.369C282.893,-53.8672 250.391,-46.8505 222.462,-38.88 215.386,-36.8609 207.925,-34.4731 200.76,-32.0466"/>
<polygon fill="#eabeff" stroke="#eabeff" points="201.611,-29.3782 193.135,-29.4141 199.783,-34.6716 201.611,-29.3782"/>
</a>
</g>
<!-- SP3&#45;&gt;SMAD1 -->
<g id="edge96" class="edge"><title>SP3&#45;&gt;SMAD1</title>
<a xlink:title="SMAD1: 0.020||remove5root">
<path fill="none" stroke="#edc9ff" stroke-width="3" d="M305.582,-47.9071C299.997,-44.6827 294.048,-41.2477 288.245,-37.8976"/>
<polygon fill="#edc9ff" stroke="#edc9ff" points="289.341,-35.297 281.013,-33.7219 286.541,-40.1468 289.341,-35.297"/>
</a>
</g>
<!-- FOXQ1&#45;&gt;CREB5_CREM_JUNB -->
<g id="edge110" class="edge"><title>FOXQ1&#45;&gt;CREB5_CREM_JUNB</title>
<a xlink:title="CREB5: 0.322||remove39root">
<path fill="none" stroke="#a1aaff" stroke-width="3" d="M351.02,-149.908C330.497,-155.407 301.486,-163.181 274.966,-170.287"/>
<polygon fill="#a1aaff" stroke="#a1aaff" points="274.198,-167.594 267.195,-172.369 275.647,-173.003 274.198,-167.594"/>
</a>
</g>
</g>
</svg>
