<?xml version="1.0" encoding="UTF-8" standalone="no"?>
<!DOCTYPE svg PUBLIC "-//W3C//DTD SVG 1.1//EN"
 "http://www.w3.org/Graphics/SVG/1.1/DTD/svg11.dtd">
<!-- Generated by graphviz version 2.28.0 (20110630.0925)
 -->
<!-- Title: _anonymous_0 Pages: 1 -->
<svg width="561pt" height="474pt"
 viewBox="0.00 0.00 560.93 473.93" xmlns="http://www.w3.org/2000/svg" xmlns:xlink="http://www.w3.org/1999/xlink">
<g id="graph1" class="graph" transform="scale(1 1) rotate(0) translate(4 469.932)">
<title>_anonymous_0</title>
<polygon fill="white" stroke="white" points="-4,5 -4,-469.932 557.932,-469.932 557.932,5 -4,5"/>
<!-- NRF1 -->
<g id="node1" class="node"><title>NRF1</title>
<a xlink:href="NRF1.svg" xlink:title="Z&#45;value: 1.442||remove29">
<polygon fill="#3247ff" stroke="#3247ff" stroke-width="2" points="314.566,-36 284.566,-36 272.566,-24 272.566,-12 284.566,-0 314.566,-0 326.566,-12 326.566,-24 314.566,-36"/>
<path fill="#3247ff" stroke="#3247ff" stroke-width="2" d="M284.566,-36C278.566,-36 272.566,-30 272.566,-24"/>
<path fill="#3247ff" stroke="#3247ff" stroke-width="2" d="M272.566,-12C272.566,-6 278.566,-0 284.566,-0"/>
<path fill="#3247ff" stroke="#3247ff" stroke-width="2" d="M314.566,-0C320.566,-0 326.566,-6 326.566,-12"/>
<path fill="#3247ff" stroke="#3247ff" stroke-width="2" d="M326.566,-24C326.566,-30 320.566,-36 314.566,-36"/>
<polyline fill="none" stroke="white" stroke-width="2" points="314.566,-36 284.566,-36 "/>
<path fill="none" stroke="white" stroke-width="2" d="M284.566,-36C278.566,-36 272.566,-30 272.566,-24"/>
<polyline fill="none" stroke="white" stroke-width="2" points="272.566,-24 272.566,-12 "/>
<path fill="none" stroke="white" stroke-width="2" d="M272.566,-12C272.566,-6 278.566,-0 284.566,-0"/>
<polyline fill="none" stroke="white" stroke-width="2" points="284.566,-0 314.566,-0 "/>
<path fill="none" stroke="white" stroke-width="2" d="M314.566,-0C320.566,-0 326.566,-6 326.566,-12"/>
<polyline fill="none" stroke="white" stroke-width="2" points="326.566,-12 326.566,-24 "/>
<path fill="none" stroke="white" stroke-width="2" d="M326.566,-24C326.566,-30 320.566,-36 314.566,-36"/>
<text text-anchor="middle" x="299.566" y="-15.5" font-family="Helvetica,sans-Serif" font-size="10.00" fill="white">NRF1</text>
</a>
</g>
<!-- NRF1&#45;&gt;NRF1 -->
<g id="edge4" class="edge"><title>NRF1&#45;&gt;NRF1</title>
<a xlink:title="NRF1: 0.063||remove17root">
<path fill="none" stroke="#e6b3ff" stroke-width="3" d="M326.807,-24.7434C336.59,-24.8884 344.566,-22.6406 344.566,-18 344.566,-14.7371 340.623,-12.6571 334.881,-11.7601"/>
<polygon fill="#e6b3ff" stroke="#e6b3ff" points="334.966,-8.96005 326.807,-11.2566 334.617,-14.5492 334.966,-8.96005"/>
</a>
</g>
<!-- EGR1_EGR4 -->
<g id="node2" class="node"><title>EGR1_EGR4</title>
<a xlink:href="EGR1_EGR4.svg" xlink:title="Z&#45;value: 0.376||remove36">
<polygon fill="#ffa4a4" stroke="#ffa4a4" stroke-width="2" points="267.966,-250.966 215.966,-250.966 203.966,-238.966 203.966,-226.966 215.966,-214.966 267.966,-214.966 279.966,-226.966 279.966,-238.966 267.966,-250.966"/>
<path fill="#ffa4a4" stroke="#ffa4a4" stroke-width="2" d="M215.966,-250.966C209.966,-250.966 203.966,-244.966 203.966,-238.966"/>
<path fill="#ffa4a4" stroke="#ffa4a4" stroke-width="2" d="M203.966,-226.966C203.966,-220.966 209.966,-214.966 215.966,-214.966"/>
<path fill="#ffa4a4" stroke="#ffa4a4" stroke-width="2" d="M267.966,-214.966C273.966,-214.966 279.966,-220.966 279.966,-226.966"/>
<path fill="#ffa4a4" stroke="#ffa4a4" stroke-width="2" d="M279.966,-238.966C279.966,-244.966 273.966,-250.966 267.966,-250.966"/>
<polyline fill="none" stroke="white" stroke-width="2" points="267.966,-250.966 215.966,-250.966 "/>
<path fill="none" stroke="white" stroke-width="2" d="M215.966,-250.966C209.966,-250.966 203.966,-244.966 203.966,-238.966"/>
<polyline fill="none" stroke="white" stroke-width="2" points="203.966,-238.966 203.966,-226.966 "/>
<path fill="none" stroke="white" stroke-width="2" d="M203.966,-226.966C203.966,-220.966 209.966,-214.966 215.966,-214.966"/>
<polyline fill="none" stroke="white" stroke-width="2" points="215.966,-214.966 267.966,-214.966 "/>
<path fill="none" stroke="white" stroke-width="2" d="M267.966,-214.966C273.966,-214.966 279.966,-220.966 279.966,-226.966"/>
<polyline fill="none" stroke="white" stroke-width="2" points="279.966,-226.966 279.966,-238.966 "/>
<path fill="none" stroke="white" stroke-width="2" d="M279.966,-238.966C279.966,-244.966 273.966,-250.966 267.966,-250.966"/>
<text text-anchor="middle" x="241.966" y="-230.466" font-family="Helvetica,sans-Serif" font-size="10.00">EGR1_EGR4</text>
</a>
</g>
<!-- NRF1&#45;&gt;EGR1_EGR4 -->
<g id="edge2" class="edge"><title>NRF1&#45;&gt;EGR1_EGR4</title>
<a xlink:title="EGR4: 0.111||remove29root">
<path fill="none" stroke="#a0aaff" stroke-width="3" d="M294.655,-36.3279C284.432,-74.482 260.833,-162.555 248.999,-206.718"/>
<polygon fill="#a0aaff" stroke="#a0aaff" points="246.231,-206.233 246.865,-214.685 251.64,-207.682 246.231,-206.233"/>
</a>
</g>
<!-- MAZ_ZNF281_GTF2F1 -->
<g id="node5" class="node"><title>MAZ_ZNF281_GTF2F1</title>
<a xlink:href="MAZ_ZNF281_GTF2F1.svg" xlink:title="Z&#45;value: 1.186||remove33">
<polygon fill="#4e5fff" stroke="#4e5fff" stroke-width="2" points="446.582,-93.6 352.082,-93.6 340.082,-81.6 340.082,-69.6 352.082,-57.6 446.582,-57.6 458.582,-69.6 458.582,-81.6 446.582,-93.6"/>
<path fill="#4e5fff" stroke="#4e5fff" stroke-width="2" d="M352.082,-93.6C346.082,-93.6 340.082,-87.6 340.082,-81.6"/>
<path fill="#4e5fff" stroke="#4e5fff" stroke-width="2" d="M340.082,-69.6C340.082,-63.6 346.082,-57.6 352.082,-57.6"/>
<path fill="#4e5fff" stroke="#4e5fff" stroke-width="2" d="M446.582,-57.6C452.582,-57.6 458.582,-63.6 458.582,-69.6"/>
<path fill="#4e5fff" stroke="#4e5fff" stroke-width="2" d="M458.582,-81.6C458.582,-87.6 452.582,-93.6 446.582,-93.6"/>
<polyline fill="none" stroke="white" stroke-width="2" points="446.582,-93.6 352.082,-93.6 "/>
<path fill="none" stroke="white" stroke-width="2" d="M352.082,-93.6C346.082,-93.6 340.082,-87.6 340.082,-81.6"/>
<polyline fill="none" stroke="white" stroke-width="2" points="340.082,-81.6 340.082,-69.6 "/>
<path fill="none" stroke="white" stroke-width="2" d="M340.082,-69.6C340.082,-63.6 346.082,-57.6 352.082,-57.6"/>
<polyline fill="none" stroke="white" stroke-width="2" points="352.082,-57.6 446.582,-57.6 "/>
<path fill="none" stroke="white" stroke-width="2" d="M446.582,-57.6C452.582,-57.6 458.582,-63.6 458.582,-69.6"/>
<polyline fill="none" stroke="white" stroke-width="2" points="458.582,-69.6 458.582,-81.6 "/>
<path fill="none" stroke="white" stroke-width="2" d="M458.582,-81.6C458.582,-87.6 452.582,-93.6 446.582,-93.6"/>
<text text-anchor="middle" x="399.332" y="-73.1" font-family="Helvetica,sans-Serif" font-size="10.00" fill="white">MAZ_ZNF281_GTF2F1</text>
</a>
</g>
<!-- NRF1&#45;&gt;MAZ_ZNF281_GTF2F1 -->
<g id="edge6" class="edge"><title>NRF1&#45;&gt;MAZ_ZNF281_GTF2F1</title>
<a xlink:title="ZNF281: 0.081||remove21root">
<path fill="none" stroke="#e4acff" stroke-width="3" d="M326.828,-33.7395C337.339,-39.808 349.55,-46.858 360.92,-53.4227"/>
<polygon fill="#e4acff" stroke="#e4acff" points="359.54,-55.8591 367.868,-57.4343 362.34,-51.0094 359.54,-55.8591"/>
</a>
</g>
<!-- ELK4_ETV5_ELK1_ELK3_ELF4 -->
<g id="node7" class="node"><title>ELK4_ETV5_ELK1_ELK3_ELF4</title>
<a xlink:href="ELK4_ETV5_ELK1_ELK3_ELF4.svg" xlink:title="Z&#45;value: 1.430||remove24">
<polygon fill="#3448ff" stroke="#3448ff" stroke-width="2" points="523.432,-308.566 390.432,-308.566 378.432,-296.566 378.432,-284.566 390.432,-272.566 523.432,-272.566 535.432,-284.566 535.432,-296.566 523.432,-308.566"/>
<path fill="#3448ff" stroke="#3448ff" stroke-width="2" d="M390.432,-308.566C384.432,-308.566 378.432,-302.566 378.432,-296.566"/>
<path fill="#3448ff" stroke="#3448ff" stroke-width="2" d="M378.432,-284.566C378.432,-278.566 384.432,-272.566 390.432,-272.566"/>
<path fill="#3448ff" stroke="#3448ff" stroke-width="2" d="M523.432,-272.566C529.432,-272.566 535.432,-278.566 535.432,-284.566"/>
<path fill="#3448ff" stroke="#3448ff" stroke-width="2" d="M535.432,-296.566C535.432,-302.566 529.432,-308.566 523.432,-308.566"/>
<polyline fill="none" stroke="white" stroke-width="2" points="523.432,-308.566 390.432,-308.566 "/>
<path fill="none" stroke="white" stroke-width="2" d="M390.432,-308.566C384.432,-308.566 378.432,-302.566 378.432,-296.566"/>
<polyline fill="none" stroke="white" stroke-width="2" points="378.432,-296.566 378.432,-284.566 "/>
<path fill="none" stroke="white" stroke-width="2" d="M378.432,-284.566C378.432,-278.566 384.432,-272.566 390.432,-272.566"/>
<polyline fill="none" stroke="white" stroke-width="2" points="390.432,-272.566 523.432,-272.566 "/>
<path fill="none" stroke="white" stroke-width="2" d="M523.432,-272.566C529.432,-272.566 535.432,-278.566 535.432,-284.566"/>
<polyline fill="none" stroke="white" stroke-width="2" points="535.432,-284.566 535.432,-296.566 "/>
<path fill="none" stroke="white" stroke-width="2" d="M535.432,-296.566C535.432,-302.566 529.432,-308.566 523.432,-308.566"/>
<text text-anchor="middle" x="456.932" y="-288.066" font-family="Helvetica,sans-Serif" font-size="10.00" fill="white">ELK4_ETV5_ELK1_ELK3_ELF4</text>
</a>
</g>
<!-- NRF1&#45;&gt;ELK4_ETV5_ELK1_ELK3_ELF4 -->
<g id="edge8" class="edge"><title>NRF1&#45;&gt;ELK4_ETV5_ELK1_ELK3_ELF4</title>
<a xlink:title="ETV5: 0.121||NRF1: 0.042||remove24">
<path fill="none" stroke="#df9cff" stroke-width="3" d="M309.152,-43.5904C314.705,-59.1432 322.512,-79.1682 331.201,-96.022 364.037,-159.779 412.655,-228.992 439.036,-264.991"/>
<path fill="none" stroke="#e9bbff" stroke-width="3" d="M307.268,-44.2629C312.841,-59.8698 320.649,-79.8947 329.423,-96.938 362.401,-160.929 411.019,-230.141 437.423,-266.173"/>
<polygon fill="#e9bbff" stroke="#e9bbff" points="310.8,-42.8494 305.513,-36.2244 305.514,-44.7003 310.8,-42.8494"/>
<polygon fill="#df9cff" stroke="#df9cff" points="436.201,-267.551 443.2,-272.331 440.71,-264.23 436.201,-267.551"/>
</a>
</g>
<!-- EGR1_EGR4&#45;&gt;ELK4_ETV5_ELK1_ELK3_ELF4 -->
<g id="edge52" class="edge"><title>EGR1_EGR4&#45;&gt;ELK4_ETV5_ELK1_ELK3_ELF4</title>
<a xlink:title="ELK1: 0.095||ETV5: 0.028||remove24root">
<path fill="none" stroke="#ffa7a7" stroke-width="3" d="M280.398,-243.264C308.46,-250.783 347.413,-261.22 381.59,-270.378"/>
<polygon fill="#ffa7a7" stroke="#ffa7a7" points="381.258,-273.188 389.71,-272.554 382.708,-267.779 381.258,-273.188"/>
</a>
</g>
<!-- ZBTB12 -->
<g id="node10" class="node"><title>ZBTB12</title>
<a xlink:href="ZBTB12.svg" xlink:title="Z&#45;value: 0.315||remove23">
<polygon fill="#aab2ff" stroke="#aab2ff" stroke-width="2" points="414.332,-408.332 384.332,-408.332 372.332,-396.332 372.332,-384.332 384.332,-372.332 414.332,-372.332 426.332,-384.332 426.332,-396.332 414.332,-408.332"/>
<path fill="#aab2ff" stroke="#aab2ff" stroke-width="2" d="M384.332,-408.332C378.332,-408.332 372.332,-402.332 372.332,-396.332"/>
<path fill="#aab2ff" stroke="#aab2ff" stroke-width="2" d="M372.332,-384.332C372.332,-378.332 378.332,-372.332 384.332,-372.332"/>
<path fill="#aab2ff" stroke="#aab2ff" stroke-width="2" d="M414.332,-372.332C420.332,-372.332 426.332,-378.332 426.332,-384.332"/>
<path fill="#aab2ff" stroke="#aab2ff" stroke-width="2" d="M426.332,-396.332C426.332,-402.332 420.332,-408.332 414.332,-408.332"/>
<polyline fill="none" stroke="white" stroke-width="2" points="414.332,-408.332 384.332,-408.332 "/>
<path fill="none" stroke="white" stroke-width="2" d="M384.332,-408.332C378.332,-408.332 372.332,-402.332 372.332,-396.332"/>
<polyline fill="none" stroke="white" stroke-width="2" points="372.332,-396.332 372.332,-384.332 "/>
<path fill="none" stroke="white" stroke-width="2" d="M372.332,-384.332C372.332,-378.332 378.332,-372.332 384.332,-372.332"/>
<polyline fill="none" stroke="white" stroke-width="2" points="384.332,-372.332 414.332,-372.332 "/>
<path fill="none" stroke="white" stroke-width="2" d="M414.332,-372.332C420.332,-372.332 426.332,-378.332 426.332,-384.332"/>
<polyline fill="none" stroke="white" stroke-width="2" points="426.332,-384.332 426.332,-396.332 "/>
<path fill="none" stroke="white" stroke-width="2" d="M426.332,-396.332C426.332,-402.332 420.332,-408.332 414.332,-408.332"/>
<text text-anchor="middle" x="399.332" y="-387.832" font-family="Helvetica,sans-Serif" font-size="10.00">ZBTB12</text>
</a>
</g>
<!-- EGR1_EGR4&#45;&gt;ZBTB12 -->
<g id="edge42" class="edge"><title>EGR1_EGR4&#45;&gt;ZBTB12</title>
<a xlink:title="ZBTB12: 0.088||remove23root">
<path fill="none" stroke="#ffa9a9" stroke-width="3" d="M260.018,-251.018C288.325,-279.325 343.196,-334.196 374.973,-365.973"/>
<polygon fill="#ffa9a9" stroke="#ffa9a9" points="373.369,-368.329 381.006,-372.006 377.329,-364.369 373.369,-368.329"/>
</a>
</g>
<!-- PKNOX1_TGIF2 -->
<g id="node12" class="node"><title>PKNOX1_TGIF2</title>
<a xlink:href="PKNOX1_TGIF2.svg" xlink:title="Z&#45;value: 0.465||remove25">
<polygon fill="#9aa4ff" stroke="#9aa4ff" stroke-width="2" points="332.566,-465.932 266.566,-465.932 254.566,-453.932 254.566,-441.932 266.566,-429.932 332.566,-429.932 344.566,-441.932 344.566,-453.932 332.566,-465.932"/>
<path fill="#9aa4ff" stroke="#9aa4ff" stroke-width="2" d="M266.566,-465.932C260.566,-465.932 254.566,-459.932 254.566,-453.932"/>
<path fill="#9aa4ff" stroke="#9aa4ff" stroke-width="2" d="M254.566,-441.932C254.566,-435.932 260.566,-429.932 266.566,-429.932"/>
<path fill="#9aa4ff" stroke="#9aa4ff" stroke-width="2" d="M332.566,-429.932C338.566,-429.932 344.566,-435.932 344.566,-441.932"/>
<path fill="#9aa4ff" stroke="#9aa4ff" stroke-width="2" d="M344.566,-453.932C344.566,-459.932 338.566,-465.932 332.566,-465.932"/>
<polyline fill="none" stroke="white" stroke-width="2" points="332.566,-465.932 266.566,-465.932 "/>
<path fill="none" stroke="white" stroke-width="2" d="M266.566,-465.932C260.566,-465.932 254.566,-459.932 254.566,-453.932"/>
<polyline fill="none" stroke="white" stroke-width="2" points="254.566,-453.932 254.566,-441.932 "/>
<path fill="none" stroke="white" stroke-width="2" d="M254.566,-441.932C254.566,-435.932 260.566,-429.932 266.566,-429.932"/>
<polyline fill="none" stroke="white" stroke-width="2" points="266.566,-429.932 332.566,-429.932 "/>
<path fill="none" stroke="white" stroke-width="2" d="M332.566,-429.932C338.566,-429.932 344.566,-435.932 344.566,-441.932"/>
<polyline fill="none" stroke="white" stroke-width="2" points="344.566,-441.932 344.566,-453.932 "/>
<path fill="none" stroke="white" stroke-width="2" d="M344.566,-453.932C344.566,-459.932 338.566,-465.932 332.566,-465.932"/>
<text text-anchor="middle" x="299.566" y="-445.432" font-family="Helvetica,sans-Serif" font-size="10.00">PKNOX1_TGIF2</text>
</a>
</g>
<!-- EGR1_EGR4&#45;&gt;PKNOX1_TGIF2 -->
<g id="edge44" class="edge"><title>EGR1_EGR4&#45;&gt;PKNOX1_TGIF2</title>
<a xlink:title="PKNOX1: 0.095||TGIF2: 0.006||remove25root">
<path fill="none" stroke="#ffa7a7" stroke-width="3" d="M246.877,-251.294C257.1,-289.448 280.699,-377.521 292.533,-421.684"/>
<polygon fill="#ffa7a7" stroke="#ffa7a7" points="289.892,-422.648 294.668,-429.651 295.302,-421.199 289.892,-422.648"/>
</a>
</g>
<!-- FOSL2_SMARCC1 -->
<g id="node14" class="node"><title>FOSL2_SMARCC1</title>
<a xlink:href="FOSL2_SMARCC1.svg" xlink:title="Z&#45;value: 0.739||remove27">
<polygon fill="#7d8aff" stroke="#7d8aff" stroke-width="2" points="222.866,-465.932 145.866,-465.932 133.866,-453.932 133.866,-441.932 145.866,-429.932 222.866,-429.932 234.866,-441.932 234.866,-453.932 222.866,-465.932"/>
<path fill="#7d8aff" stroke="#7d8aff" stroke-width="2" d="M145.866,-465.932C139.866,-465.932 133.866,-459.932 133.866,-453.932"/>
<path fill="#7d8aff" stroke="#7d8aff" stroke-width="2" d="M133.866,-441.932C133.866,-435.932 139.866,-429.932 145.866,-429.932"/>
<path fill="#7d8aff" stroke="#7d8aff" stroke-width="2" d="M222.866,-429.932C228.866,-429.932 234.866,-435.932 234.866,-441.932"/>
<path fill="#7d8aff" stroke="#7d8aff" stroke-width="2" d="M234.866,-453.932C234.866,-459.932 228.866,-465.932 222.866,-465.932"/>
<polyline fill="none" stroke="white" stroke-width="2" points="222.866,-465.932 145.866,-465.932 "/>
<path fill="none" stroke="white" stroke-width="2" d="M145.866,-465.932C139.866,-465.932 133.866,-459.932 133.866,-453.932"/>
<polyline fill="none" stroke="white" stroke-width="2" points="133.866,-453.932 133.866,-441.932 "/>
<path fill="none" stroke="white" stroke-width="2" d="M133.866,-441.932C133.866,-435.932 139.866,-429.932 145.866,-429.932"/>
<polyline fill="none" stroke="white" stroke-width="2" points="145.866,-429.932 222.866,-429.932 "/>
<path fill="none" stroke="white" stroke-width="2" d="M222.866,-429.932C228.866,-429.932 234.866,-435.932 234.866,-441.932"/>
<polyline fill="none" stroke="white" stroke-width="2" points="234.866,-441.932 234.866,-453.932 "/>
<path fill="none" stroke="white" stroke-width="2" d="M234.866,-453.932C234.866,-459.932 228.866,-465.932 222.866,-465.932"/>
<text text-anchor="middle" x="184.366" y="-445.432" font-family="Helvetica,sans-Serif" font-size="10.00">FOSL2_SMARCC1</text>
</a>
</g>
<!-- EGR1_EGR4&#45;&gt;FOSL2_SMARCC1 -->
<g id="edge46" class="edge"><title>EGR1_EGR4&#45;&gt;FOSL2_SMARCC1</title>
<a xlink:title="SMARCC1: 0.111||remove27root">
<path fill="none" stroke="#ffa0a0" stroke-width="3" d="M237.055,-251.294C226.832,-289.448 203.233,-377.521 191.399,-421.684"/>
<polygon fill="#ffa0a0" stroke="#ffa0a0" points="188.631,-421.199 189.265,-429.651 194.04,-422.648 188.631,-421.199"/>
</a>
</g>
<!-- ETV1_ERF_FEV_ELF1 -->
<g id="node18" class="node"><title>ETV1_ERF_FEV_ELF1</title>
<a xlink:href="ETV1_ERF_FEV_ELF1.svg" xlink:title="Z&#45;value: 0.994||remove34">
<polygon fill="#6272ff" stroke="#6272ff" stroke-width="2" points="132.1,-408.332 37.1,-408.332 25.1,-396.332 25.1,-384.332 37.1,-372.332 132.1,-372.332 144.1,-384.332 144.1,-396.332 132.1,-408.332"/>
<path fill="#6272ff" stroke="#6272ff" stroke-width="2" d="M37.1,-408.332C31.1,-408.332 25.1,-402.332 25.1,-396.332"/>
<path fill="#6272ff" stroke="#6272ff" stroke-width="2" d="M25.1,-384.332C25.1,-378.332 31.1,-372.332 37.1,-372.332"/>
<path fill="#6272ff" stroke="#6272ff" stroke-width="2" d="M132.1,-372.332C138.1,-372.332 144.1,-378.332 144.1,-384.332"/>
<path fill="#6272ff" stroke="#6272ff" stroke-width="2" d="M144.1,-396.332C144.1,-402.332 138.1,-408.332 132.1,-408.332"/>
<polyline fill="none" stroke="white" stroke-width="2" points="132.1,-408.332 37.1,-408.332 "/>
<path fill="none" stroke="white" stroke-width="2" d="M37.1,-408.332C31.1,-408.332 25.1,-402.332 25.1,-396.332"/>
<polyline fill="none" stroke="white" stroke-width="2" points="25.1,-396.332 25.1,-384.332 "/>
<path fill="none" stroke="white" stroke-width="2" d="M25.1,-384.332C25.1,-378.332 31.1,-372.332 37.1,-372.332"/>
<polyline fill="none" stroke="white" stroke-width="2" points="37.1,-372.332 132.1,-372.332 "/>
<path fill="none" stroke="white" stroke-width="2" d="M132.1,-372.332C138.1,-372.332 144.1,-378.332 144.1,-384.332"/>
<polyline fill="none" stroke="white" stroke-width="2" points="144.1,-384.332 144.1,-396.332 "/>
<path fill="none" stroke="white" stroke-width="2" d="M144.1,-396.332C144.1,-402.332 138.1,-408.332 132.1,-408.332"/>
<text text-anchor="middle" x="84.6" y="-387.832" font-family="Helvetica,sans-Serif" font-size="10.00" fill="white">ETV1_ERF_FEV_ELF1</text>
</a>
</g>
<!-- EGR1_EGR4&#45;&gt;ETV1_ERF_FEV_ELF1 -->
<g id="edge48" class="edge"><title>EGR1_EGR4&#45;&gt;ETV1_ERF_FEV_ELF1</title>
<a xlink:title="ELF1: 0.089||ERF: 0.030||EGR1: 0.289||remove34root">
<path fill="none" stroke="#ffa9a9" stroke-width="3" d="M218.621,-257.726C189.093,-287.254 139.297,-337.05 109.641,-366.705"/>
<path fill="none" stroke="#5b6cff" stroke-width="3" d="M217.206,-256.312C187.679,-285.839 137.883,-335.635 108.227,-365.291"/>
<polygon fill="#5b6cff" stroke="#5b6cff" points="220.237,-258.655 223.914,-251.018 216.277,-254.695 220.237,-258.655"/>
<polygon fill="#ffa9a9" stroke="#ffa9a9" points="106.603,-364.369 102.926,-372.006 110.563,-368.329 106.603,-364.369"/>
</a>
</g>
<!-- SRF -->
<g id="node21" class="node"><title>SRF</title>
<a xlink:href="SRF.svg" xlink:title="Z&#45;value: 0.235||remove30">
<polygon fill="#b3baff" stroke="#b3baff" stroke-width="2" points="42,-308.566 12,-308.566 6.39488e-14,-296.566 6.39488e-14,-284.566 12,-272.566 42,-272.566 54,-284.566 54,-296.566 42,-308.566"/>
<path fill="#b3baff" stroke="#b3baff" stroke-width="2" d="M12,-308.566C6,-308.566 6.39488e-14,-302.566 6.39488e-14,-296.566"/>
<path fill="#b3baff" stroke="#b3baff" stroke-width="2" d="M6.39488e-14,-284.566C6.39488e-14,-278.566 6,-272.566 12,-272.566"/>
<path fill="#b3baff" stroke="#b3baff" stroke-width="2" d="M42,-272.566C48,-272.566 54,-278.566 54,-284.566"/>
<path fill="#b3baff" stroke="#b3baff" stroke-width="2" d="M54,-296.566C54,-302.566 48,-308.566 42,-308.566"/>
<polyline fill="none" stroke="white" stroke-width="2" points="42,-308.566 12,-308.566 "/>
<path fill="none" stroke="white" stroke-width="2" d="M12,-308.566C6,-308.566 6.39488e-14,-302.566 6.39488e-14,-296.566"/>
<polyline fill="none" stroke="white" stroke-width="2" points="6.39488e-14,-296.566 6.39488e-14,-284.566 "/>
<path fill="none" stroke="white" stroke-width="2" d="M6.39488e-14,-284.566C6.39488e-14,-278.566 6,-272.566 12,-272.566"/>
<polyline fill="none" stroke="white" stroke-width="2" points="12,-272.566 42,-272.566 "/>
<path fill="none" stroke="white" stroke-width="2" d="M42,-272.566C48,-272.566 54,-278.566 54,-284.566"/>
<polyline fill="none" stroke="white" stroke-width="2" points="54,-284.566 54,-296.566 "/>
<path fill="none" stroke="white" stroke-width="2" d="M54,-296.566C54,-302.566 48,-308.566 42,-308.566"/>
<text text-anchor="middle" x="27" y="-288.066" font-family="Helvetica,sans-Serif" font-size="10.00">SRF</text>
</a>
</g>
<!-- EGR1_EGR4&#45;&gt;SRF -->
<g id="edge50" class="edge"><title>EGR1_EGR4&#45;&gt;SRF</title>
<a xlink:title="SRF: 0.003||EGR1: 0.170||EGR4: 0.026||remove30root">
<path fill="none" stroke="#ffcaca" stroke-width="3" d="M195.984,-246.322C155.904,-257.062 98.7729,-272.37 62.3551,-282.128"/>
<path fill="none" stroke="#8a95ff" stroke-width="3" d="M195.466,-244.39C155.387,-255.13 98.2552,-270.438 61.8374,-280.196"/>
<polygon fill="#8a95ff" stroke="#8a95ff" points="196.532,-248.039 203.534,-243.264 195.082,-242.63 196.532,-248.039"/>
<polygon fill="#ffcaca" stroke="#ffcaca" points="61.2079,-278.501 54.2052,-283.277 62.6573,-283.911 61.2079,-278.501"/>
</a>
</g>
<!-- HIVEP1 -->
<g id="node24" class="node"><title>HIVEP1</title>
<a xlink:href="HIVEP1.svg" xlink:title="Z&#45;value: 0.599||remove28">
<polygon fill="#8c97ff" stroke="#8c97ff" stroke-width="2" points="42,-193.366 12,-193.366 0,-181.366 0,-169.366 12,-157.366 42,-157.366 54,-169.366 54,-181.366 42,-193.366"/>
<path fill="#8c97ff" stroke="#8c97ff" stroke-width="2" d="M12,-193.366C6,-193.366 0,-187.366 0,-181.366"/>
<path fill="#8c97ff" stroke="#8c97ff" stroke-width="2" d="M0,-169.366C0,-163.366 6,-157.366 12,-157.366"/>
<path fill="#8c97ff" stroke="#8c97ff" stroke-width="2" d="M42,-157.366C48,-157.366 54,-163.366 54,-169.366"/>
<path fill="#8c97ff" stroke="#8c97ff" stroke-width="2" d="M54,-181.366C54,-187.366 48,-193.366 42,-193.366"/>
<polyline fill="none" stroke="white" stroke-width="2" points="42,-193.366 12,-193.366 "/>
<path fill="none" stroke="white" stroke-width="2" d="M12,-193.366C6,-193.366 0,-187.366 0,-181.366"/>
<polyline fill="none" stroke="white" stroke-width="2" points="0,-181.366 0,-169.366 "/>
<path fill="none" stroke="white" stroke-width="2" d="M0,-169.366C0,-163.366 6,-157.366 12,-157.366"/>
<polyline fill="none" stroke="white" stroke-width="2" points="12,-157.366 42,-157.366 "/>
<path fill="none" stroke="white" stroke-width="2" d="M42,-157.366C48,-157.366 54,-163.366 54,-169.366"/>
<polyline fill="none" stroke="white" stroke-width="2" points="54,-169.366 54,-181.366 "/>
<path fill="none" stroke="white" stroke-width="2" d="M54,-181.366C54,-187.366 48,-193.366 42,-193.366"/>
<text text-anchor="middle" x="27" y="-172.866" font-family="Helvetica,sans-Serif" font-size="10.00">HIVEP1</text>
</a>
</g>
<!-- EGR1_EGR4&#45;&gt;HIVEP1 -->
<g id="edge56" class="edge"><title>EGR1_EGR4&#45;&gt;HIVEP1</title>
<a xlink:title="HIVEP1: 0.111||remove28root">
<path fill="none" stroke="#ffa0a0" stroke-width="3" d="M203.534,-222.668C163.397,-211.914 100.981,-195.189 62.1229,-184.777"/>
<polygon fill="#ffa0a0" stroke="#ffa0a0" points="62.6573,-182.022 54.2052,-182.656 61.2079,-187.431 62.6573,-182.022"/>
</a>
</g>
<!-- CEBPA -->
<g id="node31" class="node"><title>CEBPA</title>
<a xlink:href="CEBPA.svg" xlink:title="Z&#45;value: 0.889||remove26">
<polygon fill="#6d7cff" stroke="#6d7cff" stroke-width="2" points="99.6,-93.6 69.6,-93.6 57.6,-81.6 57.6,-69.6 69.6,-57.6 99.6,-57.6 111.6,-69.6 111.6,-81.6 99.6,-93.6"/>
<path fill="#6d7cff" stroke="#6d7cff" stroke-width="2" d="M69.6,-93.6C63.6,-93.6 57.6,-87.6 57.6,-81.6"/>
<path fill="#6d7cff" stroke="#6d7cff" stroke-width="2" d="M57.6,-69.6C57.6,-63.6 63.6,-57.6 69.6,-57.6"/>
<path fill="#6d7cff" stroke="#6d7cff" stroke-width="2" d="M99.6,-57.6C105.6,-57.6 111.6,-63.6 111.6,-69.6"/>
<path fill="#6d7cff" stroke="#6d7cff" stroke-width="2" d="M111.6,-81.6C111.6,-87.6 105.6,-93.6 99.6,-93.6"/>
<polyline fill="none" stroke="white" stroke-width="2" points="99.6,-93.6 69.6,-93.6 "/>
<path fill="none" stroke="white" stroke-width="2" d="M69.6,-93.6C63.6,-93.6 57.6,-87.6 57.6,-81.6"/>
<polyline fill="none" stroke="white" stroke-width="2" points="57.6,-81.6 57.6,-69.6 "/>
<path fill="none" stroke="white" stroke-width="2" d="M57.6,-69.6C57.6,-63.6 63.6,-57.6 69.6,-57.6"/>
<polyline fill="none" stroke="white" stroke-width="2" points="69.6,-57.6 99.6,-57.6 "/>
<path fill="none" stroke="white" stroke-width="2" d="M99.6,-57.6C105.6,-57.6 111.6,-63.6 111.6,-69.6"/>
<polyline fill="none" stroke="white" stroke-width="2" points="111.6,-69.6 111.6,-81.6 "/>
<path fill="none" stroke="white" stroke-width="2" d="M111.6,-81.6C111.6,-87.6 105.6,-93.6 99.6,-93.6"/>
<text text-anchor="middle" x="84.6" y="-73.1" font-family="Helvetica,sans-Serif" font-size="10.00" fill="white">CEBPA</text>
</a>
</g>
<!-- EGR1_EGR4&#45;&gt;CEBPA -->
<g id="edge40" class="edge"><title>EGR1_EGR4&#45;&gt;CEBPA</title>
<a xlink:title="CEBPA: 0.110||remove26root">
<path fill="none" stroke="#ffa1a1" stroke-width="3" d="M223.914,-214.914C195.607,-186.607 140.736,-131.736 108.959,-99.9589"/>
<polygon fill="#ffa1a1" stroke="#ffa1a1" points="110.563,-97.6031 102.926,-93.9261 106.603,-101.563 110.563,-97.6031"/>
</a>
</g>
<!-- TFAP2C -->
<g id="node39" class="node"><title>TFAP2C</title>
<a xlink:href="TFAP2C.svg" xlink:title="Z&#45;value: 0.810||remove31">
<polygon fill="#7683ff" stroke="#7683ff" stroke-width="2" points="199.616,-36 169.116,-36 157.116,-24 157.116,-12 169.116,-9.59233e-14 199.616,-9.59233e-14 211.616,-12 211.616,-24 199.616,-36"/>
<path fill="#7683ff" stroke="#7683ff" stroke-width="2" d="M169.116,-36C163.116,-36 157.116,-30 157.116,-24"/>
<path fill="#7683ff" stroke="#7683ff" stroke-width="2" d="M157.116,-12C157.116,-6 163.116,-9.59233e-14 169.116,-9.59233e-14"/>
<path fill="#7683ff" stroke="#7683ff" stroke-width="2" d="M199.616,-9.59233e-14C205.616,-9.59233e-14 211.616,-6 211.616,-12"/>
<path fill="#7683ff" stroke="#7683ff" stroke-width="2" d="M211.616,-24C211.616,-30 205.616,-36 199.616,-36"/>
<polyline fill="none" stroke="white" stroke-width="2" points="199.616,-36 169.116,-36 "/>
<path fill="none" stroke="white" stroke-width="2" d="M169.116,-36C163.116,-36 157.116,-30 157.116,-24"/>
<polyline fill="none" stroke="white" stroke-width="2" points="157.116,-24 157.116,-12 "/>
<path fill="none" stroke="white" stroke-width="2" d="M157.116,-12C157.116,-6 163.116,-9.59233e-14 169.116,-9.59233e-14"/>
<polyline fill="none" stroke="white" stroke-width="2" points="169.116,-9.59233e-14 199.616,-9.59233e-14 "/>
<path fill="none" stroke="white" stroke-width="2" d="M199.616,-9.59233e-14C205.616,-9.59233e-14 211.616,-6 211.616,-12"/>
<polyline fill="none" stroke="white" stroke-width="2" points="211.616,-12 211.616,-24 "/>
<path fill="none" stroke="white" stroke-width="2" d="M211.616,-24C211.616,-30 205.616,-36 199.616,-36"/>
<text text-anchor="middle" x="184.366" y="-15.5" font-family="Helvetica,sans-Serif" font-size="10.00">TFAP2C</text>
</a>
</g>
<!-- EGR1_EGR4&#45;&gt;TFAP2C -->
<g id="edge54" class="edge"><title>EGR1_EGR4&#45;&gt;TFAP2C</title>
<a xlink:title="TFAP2C: 0.180||remove31root">
<path fill="none" stroke="#ff8686" stroke-width="3" d="M237.055,-214.638C226.832,-176.484 203.233,-88.4113 191.399,-44.2481"/>
<polygon fill="#ff8686" stroke="#ff8686" points="194.04,-43.2842 189.265,-36.2815 188.631,-44.7336 194.04,-43.2842"/>
</a>
</g>
<!-- MAZ_ZNF281_GTF2F1&#45;&gt;EGR1_EGR4 -->
<g id="edge10" class="edge"><title>MAZ_ZNF281_GTF2F1&#45;&gt;EGR1_EGR4</title>
<a xlink:title="EGR1: 0.278||MAZ: 0.030||ZNF281: 0.018||remove33root">
<path fill="none" stroke="#5f6fff" stroke-width="3" d="M375.987,-100.36C346.459,-129.888 296.663,-179.683 267.007,-209.339"/>
<path fill="none" stroke="#ffc0c0" stroke-width="3" d="M374.572,-98.9456C345.045,-128.473 295.249,-178.269 265.593,-207.925"/>
<polygon fill="#ffc0c0" stroke="#ffc0c0" points="377.603,-101.289 381.28,-93.6519 373.644,-97.3289 377.603,-101.289"/>
<polygon fill="#5f6fff" stroke="#5f6fff" points="263.969,-207.003 260.292,-214.64 267.929,-210.963 263.969,-207.003"/>
</a>
</g>
<!-- MAZ_ZNF281_GTF2F1&#45;&gt;MAZ_ZNF281_GTF2F1 -->
<g id="edge22" class="edge"><title>MAZ_ZNF281_GTF2F1&#45;&gt;MAZ_ZNF281_GTF2F1</title>
<a xlink:title="MAZ: 0.032||remove6root">
<path fill="none" stroke="#eabfff" stroke-width="3" d="M458.737,-81.9281C469.114,-81.0844 476.332,-78.975 476.332,-75.6 476.332,-73.227 472.763,-71.4796 467.037,-70.358"/>
<polygon fill="#eabfff" stroke="#eabfff" points="467.032,-67.5335 458.737,-69.2719 466.306,-73.0862 467.032,-67.5335"/>
</a>
</g>
<!-- MAZ_ZNF281_GTF2F1&#45;&gt;ELK4_ETV5_ELK1_ELK3_ELF4 -->
<g id="edge26" class="edge"><title>MAZ_ZNF281_GTF2F1&#45;&gt;ELK4_ETV5_ELK1_ELK3_ELF4</title>
<a xlink:title="ETV5: 0.031||ELK3: 0.026||GTF2F1: 0.160||ZNF281: 0.034||MAZ: 0.021||remove24">
<path fill="none" stroke="#eac0ff" stroke-width="3" d="M405.197,-101.658C409.961,-126.216 417.771,-163.864 426.577,-195.982 432.986,-219.369 441.824,-245.573 448.469,-264.387"/>
<path fill="none" stroke="#da8dff" stroke-width="3" d="M403.233,-102.038C408.003,-126.622 415.813,-164.27 424.648,-196.51 431.09,-220.008 439.929,-246.212 446.583,-265.053"/>
<polygon fill="#da8dff" stroke="#da8dff" points="406.915,-101.062 402.659,-93.7326 401.415,-102.117 406.915,-101.062"/>
<polygon fill="#eac0ff" stroke="#eac0ff" points="444.906,-265.711 450.228,-272.308 450.182,-263.832 444.906,-265.711"/>
</a>
</g>
<!-- MAZ_ZNF281_GTF2F1&#45;&gt;ZBTB12 -->
<g id="edge12" class="edge"><title>MAZ_ZNF281_GTF2F1&#45;&gt;ZBTB12</title>
<a xlink:title="ZBTB12: 0.119||remove23">
<path fill="none" stroke="#df9dff" stroke-width="3" d="M392.438,-93.7783C378.296,-133.521 348.681,-231.025 365.292,-311.446 369.146,-330.105 377.629,-349.784 385.162,-364.819"/>
<polygon fill="#df9dff" stroke="#df9dff" points="382.828,-366.403 388.985,-372.228 387.805,-363.835 382.828,-366.403"/>
</a>
</g>
<!-- MAZ_ZNF281_GTF2F1&#45;&gt;PKNOX1_TGIF2 -->
<g id="edge14" class="edge"><title>MAZ_ZNF281_GTF2F1&#45;&gt;PKNOX1_TGIF2</title>
<a xlink:title="TGIF2: 0.040||PKNOX1: 0.006||remove10root">
<path fill="none" stroke="#e9bcff" stroke-width="3" d="M394.453,-93.8104C378.175,-154.56 325.688,-350.443 306.594,-421.702"/>
<polygon fill="#e9bcff" stroke="#e9bcff" points="303.802,-421.305 304.436,-429.757 309.211,-422.754 303.802,-421.305"/>
</a>
</g>
<!-- MAZ_ZNF281_GTF2F1&#45;&gt;FOSL2_SMARCC1 -->
<g id="edge16" class="edge"><title>MAZ_ZNF281_GTF2F1&#45;&gt;FOSL2_SMARCC1</title>
<a xlink:title="SMARCC1: 0.130||remove27">
<path fill="none" stroke="#de99ff" stroke-width="3" d="M388.818,-93.8104C353.602,-154.807 239.731,-352.038 199.012,-422.565"/>
<polygon fill="#de99ff" stroke="#de99ff" points="196.435,-421.429 194.86,-429.757 201.285,-424.229 196.435,-421.429"/>
</a>
</g>
<!-- FLI1 -->
<g id="node16" class="node"><title>FLI1</title>
<a xlink:href="FLI1.svg" xlink:title="Z&#45;value: 0.966||remove35">
<polygon fill="#6574ff" stroke="#6574ff" stroke-width="2" points="471.932,-193.366 441.932,-193.366 429.932,-181.366 429.932,-169.366 441.932,-157.366 471.932,-157.366 483.932,-169.366 483.932,-181.366 471.932,-193.366"/>
<path fill="#6574ff" stroke="#6574ff" stroke-width="2" d="M441.932,-193.366C435.932,-193.366 429.932,-187.366 429.932,-181.366"/>
<path fill="#6574ff" stroke="#6574ff" stroke-width="2" d="M429.932,-169.366C429.932,-163.366 435.932,-157.366 441.932,-157.366"/>
<path fill="#6574ff" stroke="#6574ff" stroke-width="2" d="M471.932,-157.366C477.932,-157.366 483.932,-163.366 483.932,-169.366"/>
<path fill="#6574ff" stroke="#6574ff" stroke-width="2" d="M483.932,-181.366C483.932,-187.366 477.932,-193.366 471.932,-193.366"/>
<polyline fill="none" stroke="white" stroke-width="2" points="471.932,-193.366 441.932,-193.366 "/>
<path fill="none" stroke="white" stroke-width="2" d="M441.932,-193.366C435.932,-193.366 429.932,-187.366 429.932,-181.366"/>
<polyline fill="none" stroke="white" stroke-width="2" points="429.932,-181.366 429.932,-169.366 "/>
<path fill="none" stroke="white" stroke-width="2" d="M429.932,-169.366C429.932,-163.366 435.932,-157.366 441.932,-157.366"/>
<polyline fill="none" stroke="white" stroke-width="2" points="441.932,-157.366 471.932,-157.366 "/>
<path fill="none" stroke="white" stroke-width="2" d="M471.932,-157.366C477.932,-157.366 483.932,-163.366 483.932,-169.366"/>
<polyline fill="none" stroke="white" stroke-width="2" points="483.932,-169.366 483.932,-181.366 "/>
<path fill="none" stroke="white" stroke-width="2" d="M483.932,-181.366C483.932,-187.366 477.932,-193.366 471.932,-193.366"/>
<text text-anchor="middle" x="456.932" y="-172.866" font-family="Helvetica,sans-Serif" font-size="10.00" fill="white">FLI1</text>
</a>
</g>
<!-- MAZ_ZNF281_GTF2F1&#45;&gt;FLI1 -->
<g id="edge18" class="edge"><title>MAZ_ZNF281_GTF2F1&#45;&gt;FLI1</title>
<a xlink:title="FLI1: 0.082||remove22root">
<path fill="none" stroke="#e4acff" stroke-width="3" d="M409.897,-93.8986C418.991,-109.65 432.205,-132.538 442.314,-150.046"/>
<polygon fill="#e4acff" stroke="#e4acff" points="440.01,-151.655 446.435,-157.183 444.859,-148.855 440.01,-151.655"/>
</a>
</g>
<!-- MAZ_ZNF281_GTF2F1&#45;&gt;ETV1_ERF_FEV_ELF1 -->
<g id="edge20" class="edge"><title>MAZ_ZNF281_GTF2F1&#45;&gt;ETV1_ERF_FEV_ELF1</title>
<a xlink:title="ERF: 0.192||GTF2F1: 0.047||remove32root">
<path fill="none" stroke="#d681ff" stroke-width="3" d="M388.276,-101.498C370.115,-138.304 332.832,-207.049 286.764,-254.543 238.896,-303.79 170.901,-345.401 127.347,-369.367"/>
<path fill="none" stroke="#e8b9ff" stroke-width="3" d="M386.482,-100.613C368.357,-137.351 331.074,-206.095 285.329,-253.149 237.852,-302.084 169.857,-343.695 126.383,-367.615"/>
<polygon fill="#e8b9ff" stroke="#e8b9ff" points="389.969,-102.132 390.956,-93.7138 384.935,-99.6792 389.969,-102.132"/>
<polygon fill="#d681ff" stroke="#d681ff" points="125.517,-366.036 119.833,-372.324 128.197,-370.954 125.517,-366.036"/>
</a>
</g>
<!-- MAZ_ZNF281_GTF2F1&#45;&gt;SRF -->
<g id="edge24" class="edge"><title>MAZ_ZNF281_GTF2F1&#45;&gt;SRF</title>
<a xlink:title="SRF: 0.042||remove13root">
<path fill="none" stroke="#e9bbff" stroke-width="3" d="M367.908,-93.7426C298.583,-133.768 133.002,-229.366 61.192,-270.825"/>
<polygon fill="#e9bbff" stroke="#e9bbff" points="59.6611,-268.476 54.1329,-274.901 62.4612,-273.326 59.6611,-268.476"/>
</a>
</g>
<!-- MAZ_ZNF281_GTF2F1&#45;&gt;HIVEP1 -->
<g id="edge28" class="edge"><title>MAZ_ZNF281_GTF2F1&#45;&gt;HIVEP1</title>
<a xlink:title="HIVEP1: 0.037||ZNF281: 0.018||remove9root">
<path fill="none" stroke="#eabdff" stroke-width="3" d="M332.324,-94.5901C252.894,-115.873 123.809,-150.462 62.171,-166.977"/>
<path fill="none" stroke="#ecc4ff" stroke-width="3" d="M331.806,-92.6582C252.377,-113.941 123.291,-148.53 61.6534,-165.046"/>
<polygon fill="#ecc4ff" stroke="#ecc4ff" points="332.921,-96.2938 339.923,-91.5186 331.471,-90.8846 332.921,-96.2938"/>
<polygon fill="#eabdff" stroke="#eabdff" points="61.0311,-163.349 54.0284,-168.124 62.4805,-168.758 61.0311,-163.349"/>
</a>
</g>
<!-- ELK4_ETV5_ELK1_ELK3_ELF4&#45;&gt;ELK4_ETV5_ELK1_ELK3_ELF4 -->
<g id="edge38" class="edge"><title>ELK4_ETV5_ELK1_ELK3_ELF4&#45;&gt;ELK4_ETV5_ELK1_ELK3_ELF4</title>
<a xlink:title="ELK4: 0.168||ELK3: 0.113||remove24">
<path fill="none" stroke="#d98aff" stroke-width="3" d="M535.652,-296.519C546.042,-295.503 552.932,-293.519 552.932,-290.566 552.932,-288.49 549.526,-286.892 543.891,-285.774"/>
<polygon fill="#d98aff" stroke="#d98aff" points="543.964,-282.957 535.652,-284.614 543.183,-288.502 543.964,-282.957"/>
</a>
</g>
<!-- ELK4_ETV5_ELK1_ELK3_ELF4&#45;&gt;PKNOX1_TGIF2 -->
<g id="edge30" class="edge"><title>ELK4_ETV5_ELK1_ELK3_ELF4&#45;&gt;PKNOX1_TGIF2</title>
<a xlink:title="TGIF2: 0.064||remove18root">
<path fill="none" stroke="#e6b2ff" stroke-width="3" d="M435.032,-308.635C416.59,-324.166 389.808,-347.471 368.012,-369.452 350.859,-386.751 332.8,-407.583 319.541,-423.435"/>
<polygon fill="#e6b2ff" stroke="#e6b2ff" points="317.129,-421.957 314.169,-429.899 321.436,-425.536 317.129,-421.957"/>
</a>
</g>
<!-- ELK4_ETV5_ELK1_ELK3_ELF4&#45;&gt;FOSL2_SMARCC1 -->
<g id="edge32" class="edge"><title>ELK4_ETV5_ELK1_ELK3_ELF4&#45;&gt;FOSL2_SMARCC1</title>
<a xlink:title="FOSL2: 0.117||SMARCC1: 0.039||ELF4: 0.116||remove24">
<path fill="none" stroke="#e09eff" stroke-width="3" d="M419.123,-313.55C367.237,-343.507 275.156,-396.669 223.238,-426.644"/>
<path fill="none" stroke="#e09eff" stroke-width="3" d="M418.123,-311.818C366.237,-341.775 274.156,-394.937 222.238,-424.912"/>
<polygon fill="#e09eff" stroke="#e09eff" points="420.137,-315.043 425.665,-308.618 417.337,-310.193 420.137,-315.043"/>
<polygon fill="#e09eff" stroke="#e09eff" points="221.215,-423.424 215.687,-429.849 224.015,-428.274 221.215,-423.424"/>
</a>
</g>
<!-- ELK4_ETV5_ELK1_ELK3_ELF4&#45;&gt;FLI1 -->
<g id="edge34" class="edge"><title>ELK4_ETV5_ELK1_ELK3_ELF4&#45;&gt;FLI1</title>
<a xlink:title="FLI1: 0.013||ELK3: 0.037||remove7root">
<path fill="none" stroke="#edc6ff" stroke-width="3" d="M455.932,-264.459C455.932,-245.723 455.932,-220.568 455.932,-201.766"/>
<path fill="none" stroke="#eabdff" stroke-width="3" d="M457.932,-264.459C457.932,-245.723 457.932,-220.568 457.932,-201.766"/>
<polygon fill="#eabdff" stroke="#eabdff" points="454.132,-264.566 456.932,-272.566 459.732,-264.566 454.132,-264.566"/>
<polygon fill="#edc6ff" stroke="#edc6ff" points="459.732,-201.62 456.932,-193.62 454.132,-201.62 459.732,-201.62"/>
</a>
</g>
<!-- ELK4_ETV5_ELK1_ELK3_ELF4&#45;&gt;SRF -->
<g id="edge36" class="edge"><title>ELK4_ETV5_ELK1_ELK3_ELF4&#45;&gt;SRF</title>
<a xlink:title="SRF: 0.027||remove5root">
<path fill="none" stroke="#ebc1ff" stroke-width="3" d="M378.076,-290.566C284.156,-290.566 131.351,-290.566 62.5549,-290.566"/>
<polygon fill="#ebc1ff" stroke="#ebc1ff" points="62.2,-287.766 54.1999,-290.566 62.1999,-293.366 62.2,-287.766"/>
</a>
</g>
<!-- FOSL2_SMARCC1&#45;&gt;FLI1 -->
<g id="edge62" class="edge"><title>FOSL2_SMARCC1&#45;&gt;FLI1</title>
<a xlink:title="FLI1: 0.013||remove1root">
<path fill="none" stroke="#edc7ff" stroke-width="3" d="M202.673,-429.625C250.485,-381.814 379.11,-253.189 432.836,-199.463"/>
<polygon fill="#edc7ff" stroke="#edc7ff" points="435.028,-201.23 438.705,-193.594 431.068,-197.27 435.028,-201.23"/>
</a>
</g>
<!-- FOSL2_SMARCC1&#45;&gt;ETV1_ERF_FEV_ELF1 -->
<g id="edge64" class="edge"><title>FOSL2_SMARCC1&#45;&gt;ETV1_ERF_FEV_ELF1</title>
<a xlink:title="ELF1: 0.206||remove27">
<path fill="none" stroke="#d57bff" stroke-width="3" d="M153.073,-429.865C143.509,-424.343 132.88,-418.207 122.905,-412.448"/>
<polygon fill="#d57bff" stroke="#d57bff" points="124.11,-409.91 115.782,-408.335 121.31,-414.76 124.11,-409.91"/>
</a>
</g>
<!-- FLI1&#45;&gt;EGR1_EGR4 -->
<g id="edge58" class="edge"><title>FLI1&#45;&gt;EGR1_EGR4</title>
<a xlink:title="EGR1: 0.394||remove35root">
<path fill="none" stroke="#3247ff" stroke-width="3" d="M429.707,-182.661C394.077,-192.208 331.11,-209.08 288.002,-220.631"/>
<polygon fill="#3247ff" stroke="#3247ff" points="287.197,-217.948 280.195,-222.723 288.647,-223.357 287.197,-217.948"/>
</a>
</g>
<!-- FLI1&#45;&gt;PKNOX1_TGIF2 -->
<g id="edge60" class="edge"><title>FLI1&#45;&gt;PKNOX1_TGIF2</title>
<a xlink:title="TGIF2: 0.014||remove2root">
<path fill="none" stroke="#ecc6ff" stroke-width="3" d="M434.597,-193.503C414.152,-211.118 384.275,-239.55 365.292,-269.686 334.127,-319.162 314.605,-385.597 305.547,-421.773"/>
<polygon fill="#ecc6ff" stroke="#ecc6ff" points="302.749,-421.43 303.57,-429.866 308.189,-422.759 302.749,-421.43"/>
</a>
</g>
<!-- ETV1_ERF_FEV_ELF1&#45;&gt;ELK4_ETV5_ELK1_ELK3_ELF4 -->
<g id="edge72" class="edge"><title>ETV1_ERF_FEV_ELF1&#45;&gt;ELK4_ETV5_ELK1_ELK3_ELF4</title>
<a xlink:title="ELK4: 0.027||remove4root">
<path fill="none" stroke="#ebc1ff" stroke-width="3" d="M144.422,-374.303C208.949,-357.013 311.821,-329.449 381.765,-310.707"/>
<polygon fill="#ebc1ff" stroke="#ebc1ff" points="382.698,-313.356 389.701,-308.581 381.249,-307.947 382.698,-313.356"/>
</a>
</g>
<!-- ETV1_ERF_FEV_ELF1&#45;&gt;PKNOX1_TGIF2 -->
<g id="edge68" class="edge"><title>ETV1_ERF_FEV_ELF1&#45;&gt;PKNOX1_TGIF2</title>
<a xlink:title="TGIF2: 0.037||remove8root">
<path fill="none" stroke="#eabdff" stroke-width="3" d="M144.324,-402.214C174.335,-408.667 211.117,-417.315 243.526,-427.052 244.533,-427.355 245.548,-427.666 246.568,-427.985"/>
<polygon fill="#eabdff" stroke="#eabdff" points="245.996,-430.743 254.47,-430.558 247.73,-425.418 245.996,-430.743"/>
</a>
</g>
<!-- ETV1_ERF_FEV_ELF1&#45;&gt;FLI1 -->
<g id="edge70" class="edge"><title>ETV1_ERF_FEV_ELF1&#45;&gt;FLI1</title>
<a xlink:title="FLI1: 0.008||remove0root">
<path fill="none" stroke="#edc8ff" stroke-width="3" d="M116.024,-372.19C185.349,-332.165 350.93,-236.566 422.74,-195.107"/>
<polygon fill="#edc8ff" stroke="#edc8ff" points="424.271,-197.456 429.799,-191.031 421.471,-192.607 424.271,-197.456"/>
</a>
</g>
<!-- SRF&#45;&gt;SRF -->
<g id="edge66" class="edge"><title>SRF&#45;&gt;SRF</title>
<a xlink:title="SRF: 0.017||remove3root">
<path fill="none" stroke="#ecc5ff" stroke-width="3" d="M54.2408,-297.31C64.0239,-297.455 72,-295.207 72,-290.566 72,-287.303 68.0568,-285.223 62.3147,-284.326"/>
<polygon fill="#ecc5ff" stroke="#ecc5ff" points="62.3996,-281.526 54.2408,-283.823 62.051,-287.115 62.3996,-281.526"/>
</a>
</g>
<!-- CEBPA&#45;&gt;FOSL2_SMARCC1 -->
<g id="edge74" class="edge"><title>CEBPA&#45;&gt;FOSL2_SMARCC1</title>
<a xlink:title="FOSL2: 0.070||remove19root">
<path fill="none" stroke="#e6b0ff" stroke-width="3" d="M89.4795,-93.8104C105.757,-154.56 158.244,-350.443 177.338,-421.702"/>
<polygon fill="#e6b0ff" stroke="#e6b0ff" points="174.721,-422.754 179.496,-429.757 180.13,-421.305 174.721,-422.754"/>
</a>
</g>
<!-- TFAP2C&#45;&gt;MAZ_ZNF281_GTF2F1 -->
<g id="edge80" class="edge"><title>TFAP2C&#45;&gt;MAZ_ZNF281_GTF2F1</title>
<a xlink:title="MAZ: 0.062||ZNF281: 0.045||remove15root">
<path fill="none" stroke="#e7b4ff" stroke-width="3" d="M212.029,-25.4123C242.115,-33.4737 291.315,-46.6568 331.741,-57.489"/>
<polygon fill="#e7b4ff" stroke="#e7b4ff" points="331.249,-60.2558 339.701,-59.6218 332.698,-54.8466 331.249,-60.2558"/>
</a>
</g>
<!-- TFAP2C&#45;&gt;ELK4_ETV5_ELK1_ELK3_ELF4 -->
<g id="edge82" class="edge"><title>TFAP2C&#45;&gt;ELK4_ETV5_ELK1_ELK3_ELF4</title>
<a xlink:title="ELK3: 0.062||ELF4: 0.040||ELK1: 0.029||ETV5: 0.014||remove16root">
<path fill="none" stroke="#e6b3ff" stroke-width="3" d="M202.673,-36.3071C250.485,-84.1185 379.11,-212.744 432.836,-266.47"/>
<polygon fill="#e6b3ff" stroke="#e6b3ff" points="431.068,-268.662 438.705,-272.339 435.028,-264.702 431.068,-268.662"/>
</a>
</g>
<!-- TFAP2C&#45;&gt;ETV1_ERF_FEV_ELF1 -->
<g id="edge78" class="edge"><title>TFAP2C&#45;&gt;ETV1_ERF_FEV_ELF1</title>
<a xlink:title="ELF1: 0.041||ERF: 0.036||remove12root">
<path fill="none" stroke="#e9bcff" stroke-width="3" d="M179.487,-36.2104C163.209,-96.9598 110.722,-292.843 91.6284,-364.102"/>
<polygon fill="#e9bcff" stroke="#e9bcff" points="88.8361,-363.705 89.4701,-372.157 94.2453,-365.154 88.8361,-363.705"/>
</a>
</g>
<!-- TFAP2C&#45;&gt;HIVEP1 -->
<g id="edge86" class="edge"><title>TFAP2C&#45;&gt;HIVEP1</title>
<a xlink:title="HIVEP1: 0.080||remove20root">
<path fill="none" stroke="#e4acff" stroke-width="3" d="M169.763,-36.0329C156.311,-52.3256 135.523,-76.71 115.92,-96.48 96.508,-116.057 73.1409,-136.684 55.2331,-151.934"/>
<polygon fill="#e4acff" stroke="#e4acff" points="53.1954,-149.991 48.8999,-157.298 56.8144,-154.264 53.1954,-149.991"/>
</a>
</g>
<!-- TFAP2C&#45;&gt;CEBPA -->
<g id="edge76" class="edge"><title>TFAP2C&#45;&gt;CEBPA</title>
<a xlink:title="CEBPA: 0.041||remove11root">
<path fill="none" stroke="#e9bcff" stroke-width="3" d="M157.105,-33.7395C145.337,-40.5335 131.439,-48.5578 118.974,-55.7539"/>
<polygon fill="#e9bcff" stroke="#e9bcff" points="117.357,-53.4547 111.829,-59.8796 120.157,-58.3044 117.357,-53.4547"/>
</a>
</g>
<!-- TFAP2C&#45;&gt;TFAP2C -->
<g id="edge84" class="edge"><title>TFAP2C&#45;&gt;TFAP2C</title>
<a xlink:title="TFAP2C: 0.059||remove14root">
<path fill="none" stroke="#e7b4ff" stroke-width="3" d="M212.05,-24.7484C221.63,-24.8198 229.366,-22.5703 229.366,-18 229.366,-14.8579 225.71,-12.8128 220.311,-11.8646"/>
<polygon fill="#e7b4ff" stroke="#e7b4ff" points="220.236,-9.05141 212.05,-11.2516 219.821,-14.6361 220.236,-9.05141"/>
</a>
</g>
</g>
</svg>
