<?xml version="1.0" ?><!DOCTYPE svg  PUBLIC '-//W3C//DTD SVG 1.1//EN'  'http://www.w3.org/Graphics/SVG/1.1/DTD/svg11.dtd'><!-- Generated by graphviz version 2.28.0 (20110630.0925)
 --><!-- Title: _anonymous_0 Pages: 1 --><svg height="412pt" onload="init(evt)" width="585pt" xmlns="http://www.w3.org/2000/svg" xmlns:ismara="ismara.unibas.ch" xmlns:xlink="http://www.w3.org/1999/xlink">
<g class="graph" id="graph1" transform="scale(1 1) rotate(0) translate(54 357.525)">

<polygon fill="white" points="-4,5 -4,-357.525 431.701,-357.525 431.701,5 -4,5" stroke="white"/>
<!-- ZNF711_TFAP2A_TFAP2D -->
<g class="node" id="node1">
<a class="remove4" onmousemove="ShowTooltip(evt, 'Z-value: 2.387')" onmouseout="HideTooltip(evt)" xlink:href="ZNF711_TFAP2A_TFAP2D.svg">
<polygon fill="#3247ff" points="396.701,-249.9 282.701,-249.9 270.701,-237.9 270.701,-225.9 282.701,-213.9 396.701,-213.9 408.701,-225.9 408.701,-237.9 396.701,-249.9" stroke="#3247ff" stroke-width="2"/>
<path d="M282.701,-249.9C276.701,-249.9 270.701,-243.9 270.701,-237.9" fill="#3247ff" stroke="#3247ff" stroke-width="2"/>
<path d="M270.701,-225.9C270.701,-219.9 276.701,-213.9 282.701,-213.9" fill="#3247ff" stroke="#3247ff" stroke-width="2"/>
<path d="M396.701,-213.9C402.701,-213.9 408.701,-219.9 408.701,-225.9" fill="#3247ff" stroke="#3247ff" stroke-width="2"/>
<path d="M408.701,-237.9C408.701,-243.9 402.701,-249.9 396.701,-249.9" fill="#3247ff" stroke="#3247ff" stroke-width="2"/>
<polyline fill="none" points="396.701,-249.9 282.701,-249.9 " stroke="white" stroke-width="2"/>
<path d="M282.701,-249.9C276.701,-249.9 270.701,-243.9 270.701,-237.9" fill="none" stroke="white" stroke-width="2"/>
<polyline fill="none" points="270.701,-237.9 270.701,-225.9 " stroke="white" stroke-width="2"/>
<path d="M270.701,-225.9C270.701,-219.9 276.701,-213.9 282.701,-213.9" fill="none" stroke="white" stroke-width="2"/>
<polyline fill="none" points="282.701,-213.9 396.701,-213.9 " stroke="white" stroke-width="2"/>
<path d="M396.701,-213.9C402.701,-213.9 408.701,-219.9 408.701,-225.9" fill="none" stroke="white" stroke-width="2"/>
<polyline fill="none" points="408.701,-225.9 408.701,-237.9 " stroke="white" stroke-width="2"/>
<path d="M408.701,-237.9C408.701,-243.9 402.701,-249.9 396.701,-249.9" fill="none" stroke="white" stroke-width="2"/>
<text fill="white" font-family="Helvetica,sans-Serif" font-size="10.00" text-anchor="middle" x="339.701" y="-229.4">ZNF711_TFAP2A_TFAP2D</text>
</a>
</g>
<!-- ZNF711_TFAP2A_TFAP2D&#45;&gt;ZNF711_TFAP2A_TFAP2D -->
<g class="edge" id="edge8">
<a class="remove4" ismara:data="0.506" onmousemove="ShowTooltip(evt, 'TFAP2A: 0.506|ZNF711: 0.089')" onmouseout="HideTooltip(evt)">
<path d="M408.976,-238.055C419.533,-237.116 426.701,-235.064 426.701,-231.9 426.701,-229.626 422.998,-227.927 416.995,-226.802" fill="none" stroke="#db8fff" stroke-width="3"/>
<polygon fill="#db8fff" points="417.273,-224.014 408.976,-225.745 416.542,-229.566 417.273,-224.014" stroke="#db8fff"/>
</a>
</g>
<!-- FOXM1_TBL1XR1 -->
<g class="node" id="node2">
<a class="remove6" onmousemove="ShowTooltip(evt, 'Z-value: 2.140')" onmouseout="HideTooltip(evt)" xlink:href="FOXM1_TBL1XR1.svg">
<polygon fill="#4255ff" points="305.318,-334.376 232.318,-334.376 220.318,-322.376 220.318,-310.376 232.318,-298.376 305.318,-298.376 317.318,-310.376 317.318,-322.376 305.318,-334.376" stroke="#4255ff" stroke-width="2"/>
<path d="M232.318,-334.376C226.318,-334.376 220.318,-328.376 220.318,-322.376" fill="#4255ff" stroke="#4255ff" stroke-width="2"/>
<path d="M220.318,-310.376C220.318,-304.376 226.318,-298.376 232.318,-298.376" fill="#4255ff" stroke="#4255ff" stroke-width="2"/>
<path d="M305.318,-298.376C311.318,-298.376 317.318,-304.376 317.318,-310.376" fill="#4255ff" stroke="#4255ff" stroke-width="2"/>
<path d="M317.318,-322.376C317.318,-328.376 311.318,-334.376 305.318,-334.376" fill="#4255ff" stroke="#4255ff" stroke-width="2"/>
<polyline fill="none" points="305.318,-334.376 232.318,-334.376 " stroke="white" stroke-width="2"/>
<path d="M232.318,-334.376C226.318,-334.376 220.318,-328.376 220.318,-322.376" fill="none" stroke="white" stroke-width="2"/>
<polyline fill="none" points="220.318,-322.376 220.318,-310.376 " stroke="white" stroke-width="2"/>
<path d="M220.318,-310.376C220.318,-304.376 226.318,-298.376 232.318,-298.376" fill="none" stroke="white" stroke-width="2"/>
<polyline fill="none" points="232.318,-298.376 305.318,-298.376 " stroke="white" stroke-width="2"/>
<path d="M305.318,-298.376C311.318,-298.376 317.318,-304.376 317.318,-310.376" fill="none" stroke="white" stroke-width="2"/>
<polyline fill="none" points="317.318,-310.376 317.318,-322.376 " stroke="white" stroke-width="2"/>
<path d="M317.318,-322.376C317.318,-328.376 311.318,-334.376 305.318,-334.376" fill="none" stroke="white" stroke-width="2"/>
<text fill="white" font-family="Helvetica,sans-Serif" font-size="10.00" text-anchor="middle" x="268.818" y="-313.876">FOXM1_TBL1XR1</text>
</a>
</g>
<!-- ZNF711_TFAP2A_TFAP2D&#45;&gt;FOXM1_TBL1XR1 -->
<g class="edge" id="edge2">
<a class="remove4" ismara:data="0.276" onmousemove="ShowTooltip(evt, 'TBL1XR1: 0.276|FOXM1: 0.007|TFAP2A: 0.004')" onmouseout="HideTooltip(evt)">
<path d="M319.792,-257.183C310.402,-268.373 299.329,-281.569 289.975,-292.718" fill="none" stroke="#e4aaff" stroke-width="3"/>
<path d="M318.26,-255.898C308.87,-267.087 297.797,-280.284 288.442,-291.432" fill="none" stroke="#eecbff" stroke-width="3"/>
<polygon fill="#eecbff" points="321.323,-258.158 324.321,-250.23 317.033,-254.559 321.323,-258.158" stroke="#eecbff"/>
<polygon fill="#e4aaff" points="286.922,-290.444 283.925,-298.372 291.212,-294.043 286.922,-290.444" stroke="#e4aaff"/>
</a>
</g>
<!-- GLIS1 -->
<g class="node" id="node4">
<a class="remove12" onmousemove="ShowTooltip(evt, 'Z-value: 0.161')" onmouseout="HideTooltip(evt)" xlink:href="GLIS1.svg">
<polygon fill="#ffc1c1" points="203.212,-194.763 173.212,-194.763 161.212,-182.763 161.212,-170.763 173.212,-158.763 203.212,-158.763 215.212,-170.763 215.212,-182.763 203.212,-194.763" stroke="#ffc1c1" stroke-width="2"/>
<path d="M173.212,-194.763C167.212,-194.763 161.212,-188.763 161.212,-182.763" fill="#ffc1c1" stroke="#ffc1c1" stroke-width="2"/>
<path d="M161.212,-170.763C161.212,-164.763 167.212,-158.763 173.212,-158.763" fill="#ffc1c1" stroke="#ffc1c1" stroke-width="2"/>
<path d="M203.212,-158.763C209.212,-158.763 215.212,-164.763 215.212,-170.763" fill="#ffc1c1" stroke="#ffc1c1" stroke-width="2"/>
<path d="M215.212,-182.763C215.212,-188.763 209.212,-194.763 203.212,-194.763" fill="#ffc1c1" stroke="#ffc1c1" stroke-width="2"/>
<polyline fill="none" points="203.212,-194.763 173.212,-194.763 " stroke="white" stroke-width="2"/>
<path d="M173.212,-194.763C167.212,-194.763 161.212,-188.763 161.212,-182.763" fill="none" stroke="white" stroke-width="2"/>
<polyline fill="none" points="161.212,-182.763 161.212,-170.763 " stroke="white" stroke-width="2"/>
<path d="M161.212,-170.763C161.212,-164.763 167.212,-158.763 173.212,-158.763" fill="none" stroke="white" stroke-width="2"/>
<polyline fill="none" points="173.212,-158.763 203.212,-158.763 " stroke="white" stroke-width="2"/>
<path d="M203.212,-158.763C209.212,-158.763 215.212,-164.763 215.212,-170.763" fill="none" stroke="white" stroke-width="2"/>
<polyline fill="none" points="215.212,-170.763 215.212,-182.763 " stroke="white" stroke-width="2"/>
<path d="M215.212,-182.763C215.212,-188.763 209.212,-194.763 203.212,-194.763" fill="none" stroke="white" stroke-width="2"/>
<text font-family="Helvetica,sans-Serif" font-size="10.00" text-anchor="middle" x="188.212" y="-174.263">GLIS1</text>
</a>
</g>
<!-- ZNF711_TFAP2A_TFAP2D&#45;&gt;GLIS1 -->
<g class="edge" id="edge4">
<a class="remove4 root" ismara:data="0.025" onmousemove="ShowTooltip(evt, 'GLIS1: 0.025')" onmouseout="HideTooltip(evt)">
<path d="M290.098,-213.846C268.159,-205.861 242.884,-196.662 222.997,-189.423" fill="none" stroke="#c9ceff" stroke-width="3"/>
<polygon fill="#c9ceff" points="223.858,-186.757 215.382,-186.652 221.942,-192.019 223.858,-186.757" stroke="#c9ceff"/>
</a>
</g>
<!-- RCOR1_MTA3 -->
<g class="node" id="node6">
<a class="remove3" onmousemove="ShowTooltip(evt, 'Z-value: 1.731')" onmouseout="HideTooltip(evt)" xlink:href="RCOR1_MTA3.svg">
<polygon fill="#5d6dff" points="189.468,-353.525 130.968,-353.525 118.968,-341.525 118.968,-329.525 130.968,-317.525 189.468,-317.525 201.468,-329.525 201.468,-341.525 189.468,-353.525" stroke="#5d6dff" stroke-width="2"/>
<path d="M130.968,-353.525C124.968,-353.525 118.968,-347.525 118.968,-341.525" fill="#5d6dff" stroke="#5d6dff" stroke-width="2"/>
<path d="M118.968,-329.525C118.968,-323.525 124.968,-317.525 130.968,-317.525" fill="#5d6dff" stroke="#5d6dff" stroke-width="2"/>
<path d="M189.468,-317.525C195.468,-317.525 201.468,-323.525 201.468,-329.525" fill="#5d6dff" stroke="#5d6dff" stroke-width="2"/>
<path d="M201.468,-341.525C201.468,-347.525 195.468,-353.525 189.468,-353.525" fill="#5d6dff" stroke="#5d6dff" stroke-width="2"/>
<polyline fill="none" points="189.468,-353.525 130.968,-353.525 " stroke="white" stroke-width="2"/>
<path d="M130.968,-353.525C124.968,-353.525 118.968,-347.525 118.968,-341.525" fill="none" stroke="white" stroke-width="2"/>
<polyline fill="none" points="118.968,-341.525 118.968,-329.525 " stroke="white" stroke-width="2"/>
<path d="M118.968,-329.525C118.968,-323.525 124.968,-317.525 130.968,-317.525" fill="none" stroke="white" stroke-width="2"/>
<polyline fill="none" points="130.968,-317.525 189.468,-317.525 " stroke="white" stroke-width="2"/>
<path d="M189.468,-317.525C195.468,-317.525 201.468,-323.525 201.468,-329.525" fill="none" stroke="white" stroke-width="2"/>
<polyline fill="none" points="201.468,-329.525 201.468,-341.525 " stroke="white" stroke-width="2"/>
<path d="M201.468,-341.525C201.468,-347.525 195.468,-353.525 189.468,-353.525" fill="none" stroke="white" stroke-width="2"/>
<text fill="white" font-family="Helvetica,sans-Serif" font-size="10.00" text-anchor="middle" x="160.218" y="-333.025">RCOR1_MTA3</text>
</a>
</g>
<!-- ZNF711_TFAP2A_TFAP2D&#45;&gt;RCOR1_MTA3 -->
<g class="edge" id="edge6">
<a class="remove3" ismara:data="0.723" onmousemove="ShowTooltip(evt, 'MTA3: 0.723|ZNF711: 0.072|TFAP2D: 0.043|TFAP2A: 0.016')" onmouseout="HideTooltip(evt)">
<path d="M291.378,-254.316C267.064,-265.729 237.532,-280.645 212.509,-296.343 204.606,-301.297 196.389,-307.24 188.934,-312.981" fill="none" stroke="#d275ff" stroke-width="3"/>
<path d="M290.528,-252.506C266.162,-263.943 236.631,-278.86 211.446,-294.649 203.434,-299.676 195.217,-305.619 187.714,-311.396" fill="none" stroke="#ebc3ff" stroke-width="3"/>
<polygon fill="#ebc3ff" points="292.256,-255.893 298.33,-249.981 289.895,-250.815 292.256,-255.893" stroke="#ebc3ff"/>
<polygon fill="#d275ff" points="186.257,-310.252 181.692,-317.394 189.714,-314.657 186.257,-310.252" stroke="#d275ff"/>
</a>
</g>
<!-- TCF12_ASCL2 -->
<g class="node" id="node9">
<a class="remove1" onmousemove="ShowTooltip(evt, 'Z-value: 0.810')" onmouseout="HideTooltip(evt)" xlink:href="TCF12_ASCL2.svg">
<polygon fill="#98a2ff" points="93.9664,-298.388 35.4664,-298.388 23.4664,-286.388 23.4664,-274.388 35.4664,-262.388 93.9664,-262.388 105.966,-274.388 105.966,-286.388 93.9664,-298.388" stroke="#98a2ff" stroke-width="2"/>
<path d="M35.4664,-298.388C29.4664,-298.388 23.4664,-292.388 23.4664,-286.388" fill="#98a2ff" stroke="#98a2ff" stroke-width="2"/>
<path d="M23.4664,-274.388C23.4664,-268.388 29.4664,-262.388 35.4664,-262.388" fill="#98a2ff" stroke="#98a2ff" stroke-width="2"/>
<path d="M93.9664,-262.388C99.9664,-262.388 105.966,-268.388 105.966,-274.388" fill="#98a2ff" stroke="#98a2ff" stroke-width="2"/>
<path d="M105.966,-286.388C105.966,-292.388 99.9664,-298.388 93.9664,-298.388" fill="#98a2ff" stroke="#98a2ff" stroke-width="2"/>
<polyline fill="none" points="93.9664,-298.388 35.4664,-298.388 " stroke="white" stroke-width="2"/>
<path d="M35.4664,-298.388C29.4664,-298.388 23.4664,-292.388 23.4664,-286.388" fill="none" stroke="white" stroke-width="2"/>
<polyline fill="none" points="23.4664,-286.388 23.4664,-274.388 " stroke="white" stroke-width="2"/>
<path d="M23.4664,-274.388C23.4664,-268.388 29.4664,-262.388 35.4664,-262.388" fill="none" stroke="white" stroke-width="2"/>
<polyline fill="none" points="35.4664,-262.388 93.9664,-262.388 " stroke="white" stroke-width="2"/>
<path d="M93.9664,-262.388C99.9664,-262.388 105.966,-268.388 105.966,-274.388" fill="none" stroke="white" stroke-width="2"/>
<polyline fill="none" points="105.966,-274.388 105.966,-286.388 " stroke="white" stroke-width="2"/>
<path d="M105.966,-286.388C105.966,-292.388 99.9664,-298.388 93.9664,-298.388" fill="none" stroke="white" stroke-width="2"/>
<text font-family="Helvetica,sans-Serif" font-size="10.00" text-anchor="middle" x="64.7164" y="-277.888">TCF12_ASCL2</text>
</a>
</g>
<!-- ZNF711_TFAP2A_TFAP2D&#45;&gt;TCF12_ASCL2 -->
<g class="edge" id="edge10">
<a class="remove1" ismara:data="0.285" onmousemove="ShowTooltip(evt, 'ASCL2: 0.285')" onmouseout="HideTooltip(evt)">
<path d="M270.666,-244.073C221.99,-252.656 157.946,-263.949 114.282,-271.648" fill="none" stroke="#e3a9ff" stroke-width="3"/>
<polygon fill="#e3a9ff" points="113.767,-268.895 106.375,-273.042 114.74,-274.41 113.767,-268.895" stroke="#e3a9ff"/>
</a>
</g>
<!-- FLI1 -->
<g class="node" id="node11">
<a class="remove8" onmousemove="ShowTooltip(evt, 'Z-value: 0.966')" onmouseout="HideTooltip(evt)" xlink:href="FLI1.svg">
<polygon fill="#8e99ff" points="42,-194.763 12,-194.763 -3.19744e-14,-182.763 -3.19744e-14,-170.763 12,-158.763 42,-158.763 54,-170.763 54,-182.763 42,-194.763" stroke="#8e99ff" stroke-width="2"/>
<path d="M12,-194.763C6,-194.763 -3.19744e-14,-188.763 -3.19744e-14,-182.763" fill="#8e99ff" stroke="#8e99ff" stroke-width="2"/>
<path d="M-3.19744e-14,-170.763C-3.19744e-14,-164.763 6,-158.763 12,-158.763" fill="#8e99ff" stroke="#8e99ff" stroke-width="2"/>
<path d="M42,-158.763C48,-158.763 54,-164.763 54,-170.763" fill="#8e99ff" stroke="#8e99ff" stroke-width="2"/>
<path d="M54,-182.763C54,-188.763 48,-194.763 42,-194.763" fill="#8e99ff" stroke="#8e99ff" stroke-width="2"/>
<polyline fill="none" points="42,-194.763 12,-194.763 " stroke="white" stroke-width="2"/>
<path d="M12,-194.763C6,-194.763 -3.19744e-14,-188.763 -3.19744e-14,-182.763" fill="none" stroke="white" stroke-width="2"/>
<polyline fill="none" points="-3.19744e-14,-182.763 -3.19744e-14,-170.763 " stroke="white" stroke-width="2"/>
<path d="M-3.19744e-14,-170.763C-3.19744e-14,-164.763 6,-158.763 12,-158.763" fill="none" stroke="white" stroke-width="2"/>
<polyline fill="none" points="12,-158.763 42,-158.763 " stroke="white" stroke-width="2"/>
<path d="M42,-158.763C48,-158.763 54,-164.763 54,-170.763" fill="none" stroke="white" stroke-width="2"/>
<polyline fill="none" points="54,-170.763 54,-182.763 " stroke="white" stroke-width="2"/>
<path d="M54,-182.763C54,-188.763 48,-194.763 42,-194.763" fill="none" stroke="white" stroke-width="2"/>
<text font-family="Helvetica,sans-Serif" font-size="10.00" text-anchor="middle" x="27" y="-174.263">FLI1</text>
</a>
</g>
<!-- ZNF711_TFAP2A_TFAP2D&#45;&gt;FLI1 -->
<g class="edge" id="edge12">
<a class="remove4" ismara:data="0.122" onmousemove="ShowTooltip(evt, 'FLI1: 0.122')" onmouseout="HideTooltip(evt)">
<path d="M270.691,-219.732C206.289,-208.376 112.78,-191.888 62.3734,-183" fill="none" stroke="#eabdff" stroke-width="3"/>
<polygon fill="#eabdff" points="62.733,-180.22 54.3683,-181.588 61.7605,-185.735 62.733,-180.22" stroke="#eabdff"/>
</a>
</g>
<!-- TAL1 -->
<g class="node" id="node13">
<a class="remove9" onmousemove="ShowTooltip(evt, 'Z-value: 0.928')" onmouseout="HideTooltip(evt)" xlink:href="TAL1.svg">
<polygon fill="#909bff" points="79.7164,-91.1377 49.7164,-91.1377 37.7164,-79.1377 37.7164,-67.1377 49.7164,-55.1377 79.7164,-55.1377 91.7164,-67.1377 91.7164,-79.1377 79.7164,-91.1377" stroke="#909bff" stroke-width="2"/>
<path d="M49.7164,-91.1377C43.7164,-91.1377 37.7164,-85.1377 37.7164,-79.1377" fill="#909bff" stroke="#909bff" stroke-width="2"/>
<path d="M37.7164,-67.1377C37.7164,-61.1377 43.7164,-55.1377 49.7164,-55.1377" fill="#909bff" stroke="#909bff" stroke-width="2"/>
<path d="M79.7164,-55.1377C85.7164,-55.1377 91.7164,-61.1377 91.7164,-67.1377" fill="#909bff" stroke="#909bff" stroke-width="2"/>
<path d="M91.7164,-79.1377C91.7164,-85.1377 85.7164,-91.1377 79.7164,-91.1377" fill="#909bff" stroke="#909bff" stroke-width="2"/>
<polyline fill="none" points="79.7164,-91.1377 49.7164,-91.1377 " stroke="white" stroke-width="2"/>
<path d="M49.7164,-91.1377C43.7164,-91.1377 37.7164,-85.1377 37.7164,-79.1377" fill="none" stroke="white" stroke-width="2"/>
<polyline fill="none" points="37.7164,-79.1377 37.7164,-67.1377 " stroke="white" stroke-width="2"/>
<path d="M37.7164,-67.1377C37.7164,-61.1377 43.7164,-55.1377 49.7164,-55.1377" fill="none" stroke="white" stroke-width="2"/>
<polyline fill="none" points="49.7164,-55.1377 79.7164,-55.1377 " stroke="white" stroke-width="2"/>
<path d="M79.7164,-55.1377C85.7164,-55.1377 91.7164,-61.1377 91.7164,-67.1377" fill="none" stroke="white" stroke-width="2"/>
<polyline fill="none" points="91.7164,-67.1377 91.7164,-79.1377 " stroke="white" stroke-width="2"/>
<path d="M91.7164,-79.1377C91.7164,-85.1377 85.7164,-91.1377 79.7164,-91.1377" fill="none" stroke="white" stroke-width="2"/>
<text font-family="Helvetica,sans-Serif" font-size="10.00" text-anchor="middle" x="64.7164" y="-70.6377">TAL1</text>
</a>
</g>
<!-- ZNF711_TFAP2A_TFAP2D&#45;&gt;TAL1 -->
<g class="edge" id="edge14">
<a class="remove4" ismara:data="0.221" onmousemove="ShowTooltip(evt, 'TAL1: 0.221|ZNF711: 0.008')" onmouseout="HideTooltip(evt)">
<path d="M305.039,-210.22C281.215,-194.727 248.506,-173.916 219.028,-156.747 178.352,-133.052 130.349,-107.802 98.7189,-91.525" fill="none" stroke="#e6b1ff" stroke-width="3"/>
<path d="M306.13,-208.543C282.289,-193.04 249.58,-172.229 220.035,-155.018 179.283,-131.282 131.28,-106.032 99.634,-89.7466" fill="none" stroke="#eecbff" stroke-width="3"/>
<polygon fill="#eecbff" points="304.141,-211.783 312.371,-213.807 307.199,-207.092 304.141,-211.783" stroke="#eecbff"/>
<polygon fill="#e6b1ff" points="100.291,-88.0605 91.8949,-86.8983 97.7336,-93.0425 100.291,-88.0605" stroke="#e6b1ff"/>
</a>
</g>
<!-- FOXM1_TBL1XR1&#45;&gt;GLIS1 -->
<g class="edge" id="edge30">
<a class="remove6 root" ismara:data="0.039" onmousemove="ShowTooltip(evt, 'GLIS1: 0.039')" onmouseout="HideTooltip(evt)">
<path d="M258.28,-298.124C244.099,-273.562 218.81,-229.76 202.806,-202.04" fill="none" stroke="#c7ccff" stroke-width="3"/>
<polygon fill="#c7ccff" points="205.177,-200.547 198.752,-195.019 200.327,-203.347 205.177,-200.547" stroke="#c7ccff"/>
</a>
</g>
<!-- FOXM1_TBL1XR1&#45;&gt;TCF12_ASCL2 -->
<g class="edge" id="edge34">
<a class="remove1" ismara:data="0.18" onmousemove="ShowTooltip(evt, 'TCF12: 0.180')" onmouseout="HideTooltip(evt)">
<path d="M220.19,-307.802C188.124,-302.148 146.259,-294.766 114.051,-289.086" fill="none" stroke="#e7b6ff" stroke-width="3"/>
<polygon fill="#e7b6ff" points="114.447,-286.313 106.082,-287.681 113.474,-291.828 114.447,-286.313" stroke="#e7b6ff"/>
</a>
</g>
<!-- FOXM1_TBL1XR1&#45;&gt;FLI1 -->
<g class="edge" id="edge36">
<a class="remove6" ismara:data="0.099" onmousemove="ShowTooltip(evt, 'FLI1: 0.099')" onmouseout="HideTooltip(evt)">
<path d="M237.204,-298.124C191.755,-271.884 108.273,-223.686 61.3506,-196.595" fill="none" stroke="#eac0ff" stroke-width="3"/>
<polygon fill="#eac0ff" points="62.4734,-194.01 54.1452,-192.435 59.6734,-198.86 62.4734,-194.01" stroke="#eac0ff"/>
</a>
</g>
<!-- CUX1 -->
<g class="node" id="node17">
<a class="remove10" onmousemove="ShowTooltip(evt, 'Z-value: 0.796')" onmouseout="HideTooltip(evt)" xlink:href="CUX1.svg">
<polygon fill="#98a3ff" points="175.218,-36 145.218,-36 133.218,-24 133.218,-12 145.218,3.19744e-14 175.218,3.19744e-14 187.218,-12 187.218,-24 175.218,-36" stroke="#98a3ff" stroke-width="2"/>
<path d="M145.218,-36C139.218,-36 133.218,-30 133.218,-24" fill="#98a3ff" stroke="#98a3ff" stroke-width="2"/>
<path d="M133.218,-12C133.218,-6 139.218,3.19744e-14 145.218,3.19744e-14" fill="#98a3ff" stroke="#98a3ff" stroke-width="2"/>
<path d="M175.218,3.19744e-14C181.218,3.19744e-14 187.218,-6 187.218,-12" fill="#98a3ff" stroke="#98a3ff" stroke-width="2"/>
<path d="M187.218,-24C187.218,-30 181.218,-36 175.218,-36" fill="#98a3ff" stroke="#98a3ff" stroke-width="2"/>
<polyline fill="none" points="175.218,-36 145.218,-36 " stroke="white" stroke-width="2"/>
<path d="M145.218,-36C139.218,-36 133.218,-30 133.218,-24" fill="none" stroke="white" stroke-width="2"/>
<polyline fill="none" points="133.218,-24 133.218,-12 " stroke="white" stroke-width="2"/>
<path d="M133.218,-12C133.218,-6 139.218,3.19744e-14 145.218,3.19744e-14" fill="none" stroke="white" stroke-width="2"/>
<polyline fill="none" points="145.218,3.19744e-14 175.218,3.19744e-14 " stroke="white" stroke-width="2"/>
<path d="M175.218,3.19744e-14C181.218,3.19744e-14 187.218,-6 187.218,-12" fill="none" stroke="white" stroke-width="2"/>
<polyline fill="none" points="187.218,-12 187.218,-24 " stroke="white" stroke-width="2"/>
<path d="M187.218,-24C187.218,-30 181.218,-36 175.218,-36" fill="none" stroke="white" stroke-width="2"/>
<text font-family="Helvetica,sans-Serif" font-size="10.00" text-anchor="middle" x="160.218" y="-15.5">CUX1</text>
</a>
</g>
<!-- FOXM1_TBL1XR1&#45;&gt;CUX1 -->
<g class="edge" id="edge32">
<a class="remove6" ismara:data="0.258" onmousemove="ShowTooltip(evt, 'CUX1: 0.258')" onmouseout="HideTooltip(evt)">
<path d="M263.972,-298.354C255.774,-268.436 238.229,-206.771 219.532,-155.883 204.891,-116.033 184.862,-71.0606 172.233,-43.6254" fill="none" stroke="#e4adff" stroke-width="3"/>
<polygon fill="#e4adff" points="174.622,-42.1203 168.722,-36.0352 169.54,-44.4715 174.622,-42.1203" stroke="#e4adff"/>
</a>
</g>
<!-- CPEB1 -->
<g class="node" id="node22">
<a class="remove11" onmousemove="ShowTooltip(evt, 'Z-value: 0.827')" onmouseout="HideTooltip(evt)" xlink:href="CPEB1.svg">
<polygon fill="#97a1ff" points="283.818,-55.1491 253.818,-55.1491 241.818,-43.1491 241.818,-31.1491 253.818,-19.1491 283.818,-19.1491 295.818,-31.1491 295.818,-43.1491 283.818,-55.1491" stroke="#97a1ff" stroke-width="2"/>
<path d="M253.818,-55.1491C247.818,-55.1491 241.818,-49.1491 241.818,-43.1491" fill="#97a1ff" stroke="#97a1ff" stroke-width="2"/>
<path d="M241.818,-31.1491C241.818,-25.1491 247.818,-19.1491 253.818,-19.1491" fill="#97a1ff" stroke="#97a1ff" stroke-width="2"/>
<path d="M283.818,-19.1491C289.818,-19.1491 295.818,-25.1491 295.818,-31.1491" fill="#97a1ff" stroke="#97a1ff" stroke-width="2"/>
<path d="M295.818,-43.1491C295.818,-49.1491 289.818,-55.1491 283.818,-55.1491" fill="#97a1ff" stroke="#97a1ff" stroke-width="2"/>
<polyline fill="none" points="283.818,-55.1491 253.818,-55.1491 " stroke="white" stroke-width="2"/>
<path d="M253.818,-55.1491C247.818,-55.1491 241.818,-49.1491 241.818,-43.1491" fill="none" stroke="white" stroke-width="2"/>
<polyline fill="none" points="241.818,-43.1491 241.818,-31.1491 " stroke="white" stroke-width="2"/>
<path d="M241.818,-31.1491C241.818,-25.1491 247.818,-19.1491 253.818,-19.1491" fill="none" stroke="white" stroke-width="2"/>
<polyline fill="none" points="253.818,-19.1491 283.818,-19.1491 " stroke="white" stroke-width="2"/>
<path d="M283.818,-19.1491C289.818,-19.1491 295.818,-25.1491 295.818,-31.1491" fill="none" stroke="white" stroke-width="2"/>
<polyline fill="none" points="295.818,-31.1491 295.818,-43.1491 " stroke="white" stroke-width="2"/>
<path d="M295.818,-43.1491C295.818,-49.1491 289.818,-55.1491 283.818,-55.1491" fill="none" stroke="white" stroke-width="2"/>
<text font-family="Helvetica,sans-Serif" font-size="10.00" text-anchor="middle" x="268.818" y="-34.6491">CPEB1</text>
</a>
</g>
<!-- FOXM1_TBL1XR1&#45;&gt;CPEB1 -->
<g class="edge" id="edge38">
<a class="remove6" ismara:data="0.193" onmousemove="ShowTooltip(evt, 'CPEB1: 0.193')" onmouseout="HideTooltip(evt)">
<path d="M265.522,-298.358C263.373,-285.666 260.769,-268.246 259.661,-252.78 254.776,-184.566 261.511,-104.012 265.78,-63.3879" fill="none" stroke="#e7b4ff" stroke-width="3"/>
<polygon fill="#e7b4ff" points="268.573,-63.5984 266.648,-55.344 263.006,-62.9972 268.573,-63.5984" stroke="#e7b4ff"/>
</a>
</g>
<!-- RCOR1_MTA3&#45;&gt;FOXM1_TBL1XR1 -->
<g class="edge" id="edge16">
<a class="remove3" ismara:data="0.174" onmousemove="ShowTooltip(evt, 'FOXM1: 0.174|TBL1XR1: 0.055')" onmouseout="HideTooltip(evt)">
<path d="M201.584,-328.231C205.119,-327.608 208.731,-326.971 212.357,-326.332" fill="none" stroke="#e8b7ff" stroke-width="3"/>
<polygon fill="#e8b7ff" points="212.896,-329.08 220.288,-324.933 211.924,-323.565 212.896,-329.08" stroke="#e8b7ff"/>
</a>
</g>
<!-- RCOR1_MTA3&#45;&gt;GLIS1 -->
<g class="edge" id="edge18">
<a class="remove3 root" ismara:data="0.021" onmousemove="ShowTooltip(evt, 'GLIS1: 0.021')" onmouseout="HideTooltip(evt)">
<path d="M163.429,-317.313C168.36,-289.35 177.821,-235.692 183.52,-203.371" fill="none" stroke="#c9ceff" stroke-width="3"/>
<polygon fill="#c9ceff" points="186.32,-203.616 184.952,-195.251 180.805,-202.644 186.32,-203.616" stroke="#c9ceff"/>
</a>
</g>
<!-- RCOR1_MTA3&#45;&gt;RCOR1_MTA3 -->
<g class="edge" id="edge22">
<a class="remove3" ismara:data="1.276" onmousemove="ShowTooltip(evt, 'RCOR1: 1.276')" onmouseout="HideTooltip(evt)">
<path d="M201.572,-342.17C211.689,-341.678 219.218,-339.463 219.218,-335.525 219.218,-332.757 215.496,-330.84 209.769,-329.774" fill="none" stroke="#bd32ff" stroke-width="3"/>
<polygon fill="#bd32ff" points="209.829,-326.964 201.572,-328.881 209.222,-332.531 209.829,-326.964" stroke="#bd32ff"/>
</a>
</g>
<!-- RCOR1_MTA3&#45;&gt;TCF12_ASCL2 -->
<g class="edge" id="edge24">
<a class="remove1" ismara:data="0.141" onmousemove="ShowTooltip(evt, 'TCF12: 0.141')" onmouseout="HideTooltip(evt)">
<path d="M128.947,-317.471C120.702,-312.711 111.71,-307.519 103.136,-302.569" fill="none" stroke="#e9bbff" stroke-width="3"/>
<polygon fill="#e9bbff" points="104.386,-300.057 96.0573,-298.482 101.586,-304.907 104.386,-300.057" stroke="#e9bbff"/>
</a>
</g>
<!-- RCOR1_MTA3&#45;&gt;FLI1 -->
<g class="edge" id="edge26">
<a class="remove3" ismara:data="0.099" onmousemove="ShowTooltip(evt, 'FLI1: 0.099')" onmouseout="HideTooltip(evt)">
<path d="M150.656,-317.49C141.819,-301.54 127.825,-277.999 112.856,-259.508 95.3396,-237.869 72.5331,-216.13 54.8287,-200.368" fill="none" stroke="#eac0ff" stroke-width="3"/>
<polygon fill="#eac0ff" points="56.41,-198.029 48.5561,-194.842 52.7084,-202.231 56.41,-198.029" stroke="#eac0ff"/>
</a>
</g>
<!-- RCOR1_MTA3&#45;&gt;CUX1 -->
<g class="edge" id="edge20">
<a class="remove3" ismara:data="0.938" onmousemove="ShowTooltip(evt, 'CUX1: 0.938')" onmouseout="HideTooltip(evt)">
<path d="M159.636,-317.239C158.829,-290.836 157.409,-240.501 156.892,-197.643 156.235,-143.153 158.023,-79.3764 159.225,-44.362" fill="none" stroke="#ca5bff" stroke-width="3"/>
<polygon fill="#ca5bff" points="162.033,-44.1966 159.517,-36.1028 156.436,-43.9992 162.033,-44.1966" stroke="#ca5bff"/>
</a>
</g>
<!-- RCOR1_MTA3&#45;&gt;CPEB1 -->
<g class="edge" id="edge28">
<a class="remove3" ismara:data="0.565" onmousemove="ShowTooltip(evt, 'CPEB1: 0.565|RCOR1: 0.220')" onmouseout="HideTooltip(evt)">
<path d="M171.325,-309.482C183.949,-282.058 203.977,-237.086 218.593,-197.298 235.735,-150.65 251.928,-94.855 260.807,-62.884" fill="none" stroke="#d988ff" stroke-width="3"/>
<path d="M173.142,-310.318C185.776,-282.871 205.804,-237.899 220.47,-197.987 237.655,-151.207 253.848,-95.4125 262.734,-63.4192" fill="none" stroke="#e6b1ff" stroke-width="3"/>
<polygon fill="#e6b1ff" points="169.54,-309.054 168.722,-317.49 174.622,-311.405 169.54,-309.054" stroke="#e6b1ff"/>
<polygon fill="#d988ff" points="264.543,-63.6281 263.972,-55.1715 259.145,-62.1388 264.543,-63.6281" stroke="#d988ff"/>
</a>
</g>
<!-- TCF12_ASCL2&#45;&gt;GLIS1 -->
<g class="edge" id="edge52">
<a class="remove1 root" ismara:data="0.006" onmousemove="ShowTooltip(evt, 'GLIS1: 0.006')" onmouseout="HideTooltip(evt)">
<path d="M86.2276,-262.337C106.732,-245.132 137.721,-219.129 160.157,-200.303" fill="none" stroke="#cbd0ff" stroke-width="3"/>
<polygon fill="#cbd0ff" points="162.204,-202.241 166.533,-194.954 158.604,-197.951 162.204,-202.241" stroke="#cbd0ff"/>
</a>
</g>
<!-- TCF12_ASCL2&#45;&gt;TCF12_ASCL2 -->
<g class="edge" id="edge54">
<a class="remove1" ismara:data="0.026" onmousemove="ShowTooltip(evt, 'TCF12: 0.026')" onmouseout="HideTooltip(evt)">
<path d="M106.071,-287.032C116.188,-286.54 123.716,-284.325 123.716,-280.388 123.716,-277.619 119.994,-275.702 114.268,-274.637" fill="none" stroke="#edc8ff" stroke-width="3"/>
<polygon fill="#edc8ff" points="114.328,-271.827 106.071,-273.743 113.72,-277.394 114.328,-271.827" stroke="#edc8ff"/>
</a>
</g>
<!-- TCF12_ASCL2&#45;&gt;CPEB1 -->
<g class="edge" id="edge56">
<a class="remove1" ismara:data="0.048" onmousemove="ShowTooltip(evt, 'CPEB1: 0.048')" onmouseout="HideTooltip(evt)">
<path d="M77.1975,-262.147C94.3433,-237.422 126.522,-192.19 156.892,-155.883 185.423,-121.774 221.047,-84.8528 244.338,-61.3923" fill="none" stroke="#ecc6ff" stroke-width="3"/>
<polygon fill="#ecc6ff" points="246.609,-63.0802 250.273,-55.437 242.643,-59.1272 246.609,-63.0802" stroke="#ecc6ff"/>
</a>
</g>
<!-- FLI1&#45;&gt;GLIS1 -->
<g class="edge" id="edge40">
<a class="remove8 root" ismara:data="0.042" onmousemove="ShowTooltip(evt, 'GLIS1: 0.042')" onmouseout="HideTooltip(evt)">
<path d="M54.3474,-176.763C81.5267,-176.763 123.329,-176.763 152.981,-176.763" fill="none" stroke="#c6ccff" stroke-width="3"/>
<polygon fill="#c6ccff" points="153,-179.563 161,-176.763 153,-173.963 153,-179.563" stroke="#c6ccff"/>
</a>
</g>
<!-- TAL1&#45;&gt;FOXM1_TBL1XR1 -->
<g class="edge" id="edge42">
<a class="remove5 root" ismara:data="0.031" onmousemove="ShowTooltip(evt, 'TBL1XR1: 0.031')" onmouseout="HideTooltip(evt)">
<path d="M77.1975,-91.3777C94.3433,-116.103 126.522,-161.336 156.892,-197.643 185.423,-231.751 221.047,-268.672 244.338,-292.133" fill="none" stroke="#edc8ff" stroke-width="3"/>
<polygon fill="#edc8ff" points="242.643,-294.398 250.273,-298.088 246.609,-290.445 242.643,-294.398" stroke="#edc8ff"/>
</a>
</g>
<!-- TAL1&#45;&gt;GLIS1 -->
<g class="edge" id="edge44">
<a class="remove9 root" ismara:data="0.05" onmousemove="ShowTooltip(evt, 'GLIS1: 0.050')" onmouseout="HideTooltip(evt)">
<path d="M86.2276,-91.1878C106.732,-108.393 137.721,-134.396 160.157,-153.222" fill="none" stroke="#c5cbff" stroke-width="3"/>
<polygon fill="#c5cbff" points="158.604,-155.574 166.533,-158.572 162.204,-151.284 158.604,-155.574" stroke="#c5cbff"/>
</a>
</g>
<!-- TAL1&#45;&gt;FLI1 -->
<g class="edge" id="edge48">
<a class="remove8" ismara:data="0.075" onmousemove="ShowTooltip(evt, 'FLI1: 0.075')" onmouseout="HideTooltip(evt)">
<path d="M58.1467,-91.1878C52.1264,-107.728 43.1465,-132.4 36.3735,-151.009" fill="none" stroke="#ebc2ff" stroke-width="3"/>
<polygon fill="#ebc2ff" points="33.726,-150.096 33.621,-158.572 38.9883,-152.012 33.726,-150.096" stroke="#ebc2ff"/>
</a>
</g>
<!-- TAL1&#45;&gt;CUX1 -->
<g class="edge" id="edge46">
<a class="remove2 root" ismara:data="0.014" onmousemove="ShowTooltip(evt, 'CUX1: 0.014')" onmouseout="HideTooltip(evt)">
<path d="M91.8278,-57.4849C102.413,-51.3735 114.674,-44.2947 125.866,-37.8328" fill="none" stroke="#eecaff" stroke-width="3"/>
<polygon fill="#eecaff" points="127.51,-40.1168 133.038,-33.6919 124.71,-35.2671 127.51,-40.1168" stroke="#eecaff"/>
</a>
</g>
<!-- TAL1&#45;&gt;CPEB1 -->
<g class="edge" id="edge50">
<a class="remove7 root" ismara:data="0.042" onmousemove="ShowTooltip(evt, 'CPEB1: 0.042')" onmouseout="HideTooltip(evt)">
<path d="M91.8195,-68.3587C128.341,-61.919 193.403,-50.4468 233.654,-43.3494" fill="none" stroke="#edc7ff" stroke-width="3"/>
<polygon fill="#edc7ff" points="234.21,-46.0946 241.602,-41.9479 233.238,-40.5797 234.21,-46.0946" stroke="#edc7ff"/>
</a>
</g>
<!-- CUX1&#45;&gt;GLIS1 -->
<g class="edge" id="edge62">
<a class="remove10 root" ismara:data="0.083" onmousemove="ShowTooltip(evt, 'GLIS1: 0.083')" onmouseout="HideTooltip(evt)">
<path d="M163.429,-36.2121C168.36,-64.1751 177.821,-117.833 183.52,-150.154" fill="none" stroke="#c2c8ff" stroke-width="3"/>
<polygon fill="#c2c8ff" points="180.805,-150.882 184.952,-158.274 186.32,-149.909 180.805,-150.882" stroke="#c2c8ff"/>
</a>
</g>
<!-- CPEB1&#45;&gt;ZNF711_TFAP2A_TFAP2D -->
<g class="edge" id="edge60">
<a class="remove4" ismara:data="0.129" onmousemove="ShowTooltip(evt, 'TFAP2D: 0.129')" onmouseout="HideTooltip(evt)">
<path d="M267.397,-55.2712C266.348,-76.755 266.585,-113.322 277.061,-142.505 285.766,-166.754 302.892,-190.46 317.039,-207.36" fill="none" stroke="#e9bcff" stroke-width="3"/>
<polygon fill="#e9bcff" points="315.156,-209.465 322.489,-213.716 319.407,-205.82 315.156,-209.465" stroke="#e9bcff"/>
</a>
</g>
<!-- CPEB1&#45;&gt;GLIS1 -->
<g class="edge" id="edge58">
<a class="remove11 root" ismara:data="0.12" onmousemove="ShowTooltip(evt, 'GLIS1: 0.120')" onmouseout="HideTooltip(evt)">
<path d="M258.28,-55.4011C244.099,-79.9631 218.81,-123.765 202.806,-151.485" fill="none" stroke="#bdc4ff" stroke-width="3"/>
<polygon fill="#bdc4ff" points="200.327,-150.178 198.752,-158.506 205.177,-152.978 200.327,-150.178" stroke="#bdc4ff"/>
</a>
</g>
<!-- ELF2_GABPA_ELF5 -->
<g class="node" id="node41">
<a class="remove0" onmousemove="ShowTooltip(evt, 'Z-value: 1.088')" onmouseout="HideTooltip(evt)" xlink:href="ELF2_GABPA_ELF5.svg">
<polygon fill="#8692ff" points="381.701,-139.625 297.701,-139.625 285.701,-127.625 285.701,-115.625 297.701,-103.625 381.701,-103.625 393.701,-115.625 393.701,-127.625 381.701,-139.625" stroke="#8692ff" stroke-width="2"/>
<path d="M297.701,-139.625C291.701,-139.625 285.701,-133.625 285.701,-127.625" fill="#8692ff" stroke="#8692ff" stroke-width="2"/>
<path d="M285.701,-115.625C285.701,-109.625 291.701,-103.625 297.701,-103.625" fill="#8692ff" stroke="#8692ff" stroke-width="2"/>
<path d="M381.701,-103.625C387.701,-103.625 393.701,-109.625 393.701,-115.625" fill="#8692ff" stroke="#8692ff" stroke-width="2"/>
<path d="M393.701,-127.625C393.701,-133.625 387.701,-139.625 381.701,-139.625" fill="#8692ff" stroke="#8692ff" stroke-width="2"/>
<polyline fill="none" points="381.701,-139.625 297.701,-139.625 " stroke="white" stroke-width="2"/>
<path d="M297.701,-139.625C291.701,-139.625 285.701,-133.625 285.701,-127.625" fill="none" stroke="white" stroke-width="2"/>
<polyline fill="none" points="285.701,-127.625 285.701,-115.625 " stroke="white" stroke-width="2"/>
<path d="M285.701,-115.625C285.701,-109.625 291.701,-103.625 297.701,-103.625" fill="none" stroke="white" stroke-width="2"/>
<polyline fill="none" points="297.701,-103.625 381.701,-103.625 " stroke="white" stroke-width="2"/>
<path d="M381.701,-103.625C387.701,-103.625 393.701,-109.625 393.701,-115.625" fill="none" stroke="white" stroke-width="2"/>
<polyline fill="none" points="393.701,-115.625 393.701,-127.625 " stroke="white" stroke-width="2"/>
<path d="M393.701,-127.625C393.701,-133.625 387.701,-139.625 381.701,-139.625" fill="none" stroke="white" stroke-width="2"/>
<text font-family="Helvetica,sans-Serif" font-size="10.00" text-anchor="middle" x="339.701" y="-119.125">ELF2_GABPA_ELF5</text>
</a>
</g>
<!-- ELF2_GABPA_ELF5&#45;&gt;ZNF711_TFAP2A_TFAP2D -->
<g class="edge" id="edge70">
<a class="remove0" ismara:data="0.08" onmousemove="ShowTooltip(evt, 'TFAP2A: 0.080')" onmouseout="HideTooltip(evt)">
<path d="M339.701,-139.835C339.701,-157.713 339.701,-185.177 339.701,-205.46" fill="none" stroke="#ebc2ff" stroke-width="3"/>
<polygon fill="#ebc2ff" points="336.901,-205.664 339.701,-213.663 342.501,-205.663 336.901,-205.664" stroke="#ebc2ff"/>
</a>
</g>
<!-- ELF2_GABPA_ELF5&#45;&gt;FOXM1_TBL1XR1 -->
<g class="edge" id="edge64">
<a class="remove0" ismara:data="0.062" onmousemove="ShowTooltip(evt, 'TBL1XR1: 0.062')" onmouseout="HideTooltip(evt)">
<path d="M315.636,-139.9C296.38,-156.158 270.819,-181.832 259.661,-211.02 249.837,-236.72 254.652,-268.433 260.334,-290.313" fill="none" stroke="#ecc4ff" stroke-width="3"/>
<polygon fill="#ecc4ff" points="257.682,-291.229 262.525,-298.185 263.077,-289.727 257.682,-291.229" stroke="#ecc4ff"/>
</a>
</g>
<!-- ELF2_GABPA_ELF5&#45;&gt;GLIS1 -->
<g class="edge" id="edge66">
<a class="remove0 root" ismara:data="0.004" onmousemove="ShowTooltip(evt, 'GLIS1: 0.004')" onmouseout="HideTooltip(evt)">
<path d="M290.098,-139.679C268.159,-147.664 242.884,-156.863 222.997,-164.102" fill="none" stroke="#cbd0ff" stroke-width="3"/>
<polygon fill="#cbd0ff" points="221.942,-161.506 215.382,-166.873 223.858,-166.768 221.942,-161.506" stroke="#cbd0ff"/>
</a>
</g>
<!-- ELF2_GABPA_ELF5&#45;&gt;RCOR1_MTA3 -->
<g class="edge" id="edge68">
<a class="remove0" ismara:data="0.077" onmousemove="ShowTooltip(evt, 'MTA3: 0.077')" onmouseout="HideTooltip(evt)">
<path d="M322.838,-139.848C306.425,-157.728 280.918,-185.891 259.661,-211.02 230.961,-244.95 199.122,-285.324 179.385,-310.694" fill="none" stroke="#ebc2ff" stroke-width="3"/>
<polygon fill="#ebc2ff" points="177.089,-309.084 174.394,-317.12 181.512,-312.519 177.089,-309.084" stroke="#ebc2ff"/>
</a>
</g>
<!-- ELF2_GABPA_ELF5&#45;&gt;FLI1 -->
<g class="edge" id="edge72">
<a class="remove0" ismara:data="0.007" onmousemove="ShowTooltip(evt, 'FLI1: 0.007')" onmouseout="HideTooltip(evt)">
<path d="M285.59,-131.166C221.41,-142.483 116.303,-161.016 61.969,-170.597" fill="none" stroke="#eecbff" stroke-width="3"/>
<polygon fill="#eecbff" points="61.4073,-167.852 54.0151,-171.999 62.3798,-173.367 61.4073,-167.852" stroke="#eecbff"/>
</a>
</g>
</g>
<rect height="14" id="tooltip_bg" style="fill: white; stroke: black; opacity: 0.8;" visibility="hidden"/><text id="tooltip" style="font-size: 10px;font-weight: bold;" visibility="hidden"></text><g id="plus" onclick="showSome();moveSlider();setThreshold();"><circle cx="22" cy="22" r="10" style="fill: #dddddd; opacity: 100%;"/><line stroke="#888888" stroke-width="2" x1="16" x2="28" y1="22" y2="22"/><line stroke="#888888" stroke-width="2" x1="22" x2="22" y1="16" y2="28"/></g><g id="minus" onclick="hideSome();moveSlider();setThreshold();"><circle cx="22" cy="340" r="10" style="fill: #dddddd; opacity: 100%;"/><line stroke="#888888" stroke-width="2" x1="16" x2="28" y1="340" y2="340"/></g><line id="slider_scale" onmousedown="jump_slider(evt)" stroke="#888888" stroke-width="5" x1="22" x2="22" y1="40" y2="322"/><circle cx="22" cy="50" id="slider" onmousedown="grab(evt)" onmouseout="release(evt)" onmouseup="release(evt)" r="15" style="fill:#922"/><script type="text/ecmascript"><![CDATA[
    var svgNS = "http://www.w3.org/2000/svg";
    var edge_num = 12;
    var counter = 0;
    var tooltip, tooltip_bg;

    function init(evt) {
        if ( window.svgDocument == null ) {
            svgDocument = evt.target.ownerDocument;
        }
        tooltip = svgDocument.getElementById('tooltip');
        tooltip_bg = svgDocument.getElementById('tooltip_bg');
        setThreshold();
    }

    function ShowTooltip(evt, txt) {
        var length = 0;
        var height;
        var tooltip_x = evt.pageX + 18;
        var tooltip_y = evt.pageY + 22;
        var bg_x = evt.pageX + 10;
        var bg_y = evt.pageY + 10;

        /* Clean toolip content */
        while (tooltip.lastChild) {
            tooltip.removeChild(tooltip.lastChild)
        }

        /* Populate tooltip with tspan elements and get longest of them */
        var text_elements = txt.split('|');
        for (var i = 0; i  < text_elements.length; i++) {
            var shift_y = 12;
            if (i == 0) {
                shift_y = 0;
            }
            var tspan_element = document.createElementNS(svgNS, "tspan");
            tspan_element.setAttributeNS(null, "dy", shift_y);
            tspan_element.setAttributeNS(null, "x", tooltip_x);
            var text_node = svgDocument.createTextNode(text_elements[i]);
            tspan_element.appendChild(text_node);
            tooltip.appendChild(tspan_element);
            var tspan_length = tspan_element.getComputedTextLength();
            if (tspan_length > length) {
                length = tspan_length
            }
        }
        /* add right margin to tooltip */
        length = length + 15;
        height = 12 * text_elements.length + 5;
        tooltip_bg.setAttributeNS(null,"width",length);
        tooltip_bg.setAttributeNS(null,"height",height);
        tooltip_bg.setAttributeNS(null,"x", bg_x);
        tooltip_bg.setAttributeNS(null,"y", bg_y);
        tooltip_bg.setAttributeNS(null,"visibility","visible");
        tooltip.setAttributeNS(null,"x", tooltip_x);
        tooltip.setAttributeNS(null,"y", tooltip_y);
        tooltip.setAttributeNS(null,"visibility","visible");
    }
    function HideTooltip() {
      tooltip.setAttributeNS(null,"visibility","hidden");
      tooltip_bg.setAttributeNS(null,"visibility","hidden");
    }

    /*** Hide/Show edges functions ***/

    function hideSome() {
      if (counter >= edge_num -1) {
        return 1;
      }
      var elements = svgDocument.getElementsByClassName('remove' + counter);
      for (var i = 0; i < elements.length; i++) {
        elements[i].setAttributeNS(null,"visibility","hidden");
      }
      counter = counter + 1;
    }

    function showSome() {
      if (counter <= 0) {
        return 1;
      }
      counter = counter - 1;
      var elements = svgDocument.getElementsByClassName('remove' + counter);
      for (var i = 0; i < elements.length; i++) {
        elements[i].setAttributeNS(null,"visibility","visible");
      }
    }

    function setThreshold() {
        var elements = svgDocument.getElementsByClassName('remove' + counter);
        var score = 0;
        for (var i = 0; i < elements.length; i++) {
            if (elements[i].classList.contains("root")){
                if (elements[i].hasAttributeNS("ismara.unibas.ch", "data")) {
                    score = elements[i].getAttributeNS("ismara.unibas.ch", "data");
                }
            } 
        }
        svgDocument.getElementById("score_indicator").textContent = "Score threshold: " + score;
    }

    /*** Slider functions ***/

    var slider_maxY = parseInt(document.getElementById("slider_scale").getAttributeNS(null, "y2"));
    var slider_minY = parseInt(document.getElementById("slider_scale").getAttributeNS(null, "y1"));
    var slider_r = parseInt(document.getElementById("slider").getAttributeNS(null, "r"));
    var coef = (edge_num - 1) / (slider_maxY - slider_minY - 2 * slider_r);

    function grab(evt){
        var element = evt.target;
        var Attr = {"onmousemove":"slide(evt,'"+element.id+"')"};
        assignAttr(element, Attr);
    }

    function release(evt){
        var element = evt.target;
        var Attr = {"onmousemove":null};
        assignAttr(element, Attr);
    }

    function assignAttr(obj,attr){
        for (i in attr) obj.setAttributeNS(null,i, attr[i]);
    }

    function slide(evt,id){
        var slider = evt.target;
        var y = evt.pageY;
        var new_counter = Math.floor((evt.pageY - slider_minY - slider_r) * coef);
        if (evt.pageY > (slider_maxY - slider_r)) {
            slider.setAttributeNS(null, "cy", (slider_maxY - slider_r));
            new_counter = edge_num;
        } else if(evt.pageY < (slider_minY + slider_r)) {
            slider.setAttributeNS(null, "cy", (slider_minY + slider_r));
            new_counter = 1;
        } else {
            slider.setAttributeNS(null, "cy", evt.pageY);
        }

        if (new_counter < counter) {
                showSome();
            counter = new_counter;
        }
        if (new_counter > counter) {
                hideSome();
            counter = new_counter;
        }
        setThreshold();
    }

    function moveSlider() {
        circle = document.getElementById("slider");
        circle.setAttributeNS(null, "cy",  slider_minY +  slider_r + (counter) / coef);
    }

    function jump_slider(evt) {
        var slider = document.getElementById("slider");
        var new_counter = Math.floor((evt.pageY - slider_minY - slider_r) * coef);
        if (evt.pageY > (slider_maxY - slider_r)) {
            slider.setAttributeNS(null, "cy", (slider_maxY - slider_r));
            new_counter = edge_num;
        } else if(evt.pageY < (slider_minY + slider_r)) {
             slider.setAttributeNS(null, "cy", (slider_minY + slider_r));
            new_counter = 1;
        } else {
            slider.setAttributeNS(null, "cy", evt.pageY);
        }

        if (new_counter > counter) {
            var d = new_counter - counter;
            for (var i = 0; i < d; i++){
                hideSome();
            }
            counter = new_counter;
        }
        if (new_counter < counter) {
            var d = counter - new_counter;
            for (var i = 0; i < d; i++){
                showSome();
            }
            counter = new_counter;
        }
        setThreshold();
    }
    ]]></script><text id="score_indicator" style="font-size: 10px;font-weight: bold;" x="10" y="372">Score threshold: 0</text><text id="info" style="font-size: 10px;font-weight: bold;" x="10" y="387">Use slider or -/+ buttons to hide/show edges.</text></svg>