<?xml version="1.0" encoding="UTF-8" standalone="no"?>
<!DOCTYPE svg PUBLIC "-//W3C//DTD SVG 1.1//EN"
 "http://www.w3.org/Graphics/SVG/1.1/DTD/svg11.dtd">
<!-- Generated by graphviz version 2.28.0 (20110630.0925)
 -->
<!-- Title: _anonymous_0 Pages: 1 -->
<svg width="610pt" height="492pt"
 viewBox="0.00 0.00 609.85 491.85" xmlns="http://www.w3.org/2000/svg" xmlns:xlink="http://www.w3.org/1999/xlink">
<g id="graph1" class="graph" transform="scale(1 1) rotate(0) translate(4 487.846)">
<title>_anonymous_0</title>
<polygon fill="white" stroke="white" points="-4,5 -4,-487.846 606.846,-487.846 606.846,5 -4,5"/>
<!-- ZNF711_TFAP2A_TFAP2D -->
<g id="node1" class="node"><title>ZNF711_TFAP2A_TFAP2D</title>
<a xlink:href="ZNF711_TFAP2A_TFAP2D.svg" xlink:title="Z&#45;value: 2.387||remove16">
<polygon fill="#3247ff" stroke="#3247ff" stroke-width="2" points="532.846,-423.846 418.846,-423.846 406.846,-411.846 406.846,-399.846 418.846,-387.846 532.846,-387.846 544.846,-399.846 544.846,-411.846 532.846,-423.846"/>
<path fill="#3247ff" stroke="#3247ff" stroke-width="2" d="M418.846,-423.846C412.846,-423.846 406.846,-417.846 406.846,-411.846"/>
<path fill="#3247ff" stroke="#3247ff" stroke-width="2" d="M406.846,-399.846C406.846,-393.846 412.846,-387.846 418.846,-387.846"/>
<path fill="#3247ff" stroke="#3247ff" stroke-width="2" d="M532.846,-387.846C538.846,-387.846 544.846,-393.846 544.846,-399.846"/>
<path fill="#3247ff" stroke="#3247ff" stroke-width="2" d="M544.846,-411.846C544.846,-417.846 538.846,-423.846 532.846,-423.846"/>
<polyline fill="none" stroke="white" stroke-width="2" points="532.846,-423.846 418.846,-423.846 "/>
<path fill="none" stroke="white" stroke-width="2" d="M418.846,-423.846C412.846,-423.846 406.846,-417.846 406.846,-411.846"/>
<polyline fill="none" stroke="white" stroke-width="2" points="406.846,-411.846 406.846,-399.846 "/>
<path fill="none" stroke="white" stroke-width="2" d="M406.846,-399.846C406.846,-393.846 412.846,-387.846 418.846,-387.846"/>
<polyline fill="none" stroke="white" stroke-width="2" points="418.846,-387.846 532.846,-387.846 "/>
<path fill="none" stroke="white" stroke-width="2" d="M532.846,-387.846C538.846,-387.846 544.846,-393.846 544.846,-399.846"/>
<polyline fill="none" stroke="white" stroke-width="2" points="544.846,-399.846 544.846,-411.846 "/>
<path fill="none" stroke="white" stroke-width="2" d="M544.846,-411.846C544.846,-417.846 538.846,-423.846 532.846,-423.846"/>
<text text-anchor="middle" x="475.846" y="-403.346" font-family="Helvetica,sans-Serif" font-size="10.00" fill="white">ZNF711_TFAP2A_TFAP2D</text>
</a>
</g>
<!-- ZNF711_TFAP2A_TFAP2D&#45;&gt;ZNF711_TFAP2A_TFAP2D -->
<g id="edge14" class="edge"><title>ZNF711_TFAP2A_TFAP2D&#45;&gt;ZNF711_TFAP2A_TFAP2D</title>
<a xlink:title="TFAP2A: 0.506||ZNF711: 0.089||remove16">
<path fill="none" stroke="#df9bff" stroke-width="3" d="M545.121,-412.001C555.678,-411.062 562.846,-409.01 562.846,-405.846 562.846,-403.572 559.143,-401.872 553.14,-400.748"/>
<polygon fill="#df9bff" stroke="#df9bff" points="553.418,-397.96 545.121,-399.691 552.686,-403.512 553.418,-397.96"/>
</a>
</g>
<!-- FOXO3_FOXD2 -->
<g id="node2" class="node"><title>FOXO3_FOXD2</title>
<a xlink:href="FOXO3_FOXD2.svg" xlink:title="Z&#45;value: 0.855||remove17">
<polygon fill="#959fff" stroke="#959fff" stroke-width="2" points="403.423,-483.846 340.423,-483.846 328.423,-471.846 328.423,-459.846 340.423,-447.846 403.423,-447.846 415.423,-459.846 415.423,-471.846 403.423,-483.846"/>
<path fill="#959fff" stroke="#959fff" stroke-width="2" d="M340.423,-483.846C334.423,-483.846 328.423,-477.846 328.423,-471.846"/>
<path fill="#959fff" stroke="#959fff" stroke-width="2" d="M328.423,-459.846C328.423,-453.846 334.423,-447.846 340.423,-447.846"/>
<path fill="#959fff" stroke="#959fff" stroke-width="2" d="M403.423,-447.846C409.423,-447.846 415.423,-453.846 415.423,-459.846"/>
<path fill="#959fff" stroke="#959fff" stroke-width="2" d="M415.423,-471.846C415.423,-477.846 409.423,-483.846 403.423,-483.846"/>
<polyline fill="none" stroke="white" stroke-width="2" points="403.423,-483.846 340.423,-483.846 "/>
<path fill="none" stroke="white" stroke-width="2" d="M340.423,-483.846C334.423,-483.846 328.423,-477.846 328.423,-471.846"/>
<polyline fill="none" stroke="white" stroke-width="2" points="328.423,-471.846 328.423,-459.846 "/>
<path fill="none" stroke="white" stroke-width="2" d="M328.423,-459.846C328.423,-453.846 334.423,-447.846 340.423,-447.846"/>
<polyline fill="none" stroke="white" stroke-width="2" points="340.423,-447.846 403.423,-447.846 "/>
<path fill="none" stroke="white" stroke-width="2" d="M403.423,-447.846C409.423,-447.846 415.423,-453.846 415.423,-459.846"/>
<polyline fill="none" stroke="white" stroke-width="2" points="415.423,-459.846 415.423,-471.846 "/>
<path fill="none" stroke="white" stroke-width="2" d="M415.423,-471.846C415.423,-477.846 409.423,-483.846 403.423,-483.846"/>
<text text-anchor="middle" x="371.923" y="-463.346" font-family="Helvetica,sans-Serif" font-size="10.00">FOXO3_FOXD2</text>
</a>
</g>
<!-- ZNF711_TFAP2A_TFAP2D&#45;&gt;FOXO3_FOXD2 -->
<g id="edge2" class="edge"><title>ZNF711_TFAP2A_TFAP2D&#45;&gt;FOXO3_FOXD2</title>
<a xlink:title="FOXO3: 0.868||FOXD2: 0.048||remove16">
<path fill="none" stroke="#d378ff" stroke-width="3" d="M444.666,-423.848C433.974,-430.021 421.877,-437.005 410.661,-443.481"/>
<polygon fill="#d378ff" stroke="#d378ff" points="408.969,-441.225 403.441,-447.649 411.769,-446.074 408.969,-441.225"/>
</a>
</g>
<!-- DLX3_EVX1_MEOX1 -->
<g id="node4" class="node"><title>DLX3_EVX1_MEOX1</title>
<a xlink:href="DLX3_EVX1_MEOX1.svg" xlink:title="Z&#45;value: 0.411||remove12">
<polygon fill="#b1b9ff" stroke="#b1b9ff" stroke-width="2" points="295.423,-483.846 208.423,-483.846 196.423,-471.846 196.423,-459.846 208.423,-447.846 295.423,-447.846 307.423,-459.846 307.423,-471.846 295.423,-483.846"/>
<path fill="#b1b9ff" stroke="#b1b9ff" stroke-width="2" d="M208.423,-483.846C202.423,-483.846 196.423,-477.846 196.423,-471.846"/>
<path fill="#b1b9ff" stroke="#b1b9ff" stroke-width="2" d="M196.423,-459.846C196.423,-453.846 202.423,-447.846 208.423,-447.846"/>
<path fill="#b1b9ff" stroke="#b1b9ff" stroke-width="2" d="M295.423,-447.846C301.423,-447.846 307.423,-453.846 307.423,-459.846"/>
<path fill="#b1b9ff" stroke="#b1b9ff" stroke-width="2" d="M307.423,-471.846C307.423,-477.846 301.423,-483.846 295.423,-483.846"/>
<polyline fill="none" stroke="white" stroke-width="2" points="295.423,-483.846 208.423,-483.846 "/>
<path fill="none" stroke="white" stroke-width="2" d="M208.423,-483.846C202.423,-483.846 196.423,-477.846 196.423,-471.846"/>
<polyline fill="none" stroke="white" stroke-width="2" points="196.423,-471.846 196.423,-459.846 "/>
<path fill="none" stroke="white" stroke-width="2" d="M196.423,-459.846C196.423,-453.846 202.423,-447.846 208.423,-447.846"/>
<polyline fill="none" stroke="white" stroke-width="2" points="208.423,-447.846 295.423,-447.846 "/>
<path fill="none" stroke="white" stroke-width="2" d="M295.423,-447.846C301.423,-447.846 307.423,-453.846 307.423,-459.846"/>
<polyline fill="none" stroke="white" stroke-width="2" points="307.423,-459.846 307.423,-471.846 "/>
<path fill="none" stroke="white" stroke-width="2" d="M307.423,-471.846C307.423,-477.846 301.423,-483.846 295.423,-483.846"/>
<text text-anchor="middle" x="251.923" y="-463.346" font-family="Helvetica,sans-Serif" font-size="10.00">DLX3_EVX1_MEOX1</text>
</a>
</g>
<!-- ZNF711_TFAP2A_TFAP2D&#45;&gt;DLX3_EVX1_MEOX1 -->
<g id="edge4" class="edge"><title>ZNF711_TFAP2A_TFAP2D&#45;&gt;DLX3_EVX1_MEOX1</title>
<a xlink:title="MEOX1: 0.224||remove12">
<path fill="none" stroke="#e7b6ff" stroke-width="3" d="M406.623,-422.587C379.775,-429.272 348.824,-437.214 320.883,-444.966 319.169,-445.442 317.433,-445.929 315.682,-446.425"/>
<polygon fill="#e7b6ff" stroke="#e7b6ff" points="314.854,-443.749 307.936,-448.647 316.398,-449.132 314.854,-443.749"/>
</a>
</g>
<!-- HOXB6_PRRX2 -->
<g id="node6" class="node"><title>HOXB6_PRRX2</title>
<a xlink:href="HOXB6_PRRX2.svg" xlink:title="Z&#45;value: 0.695||remove26">
<polygon fill="#9fa8ff" stroke="#9fa8ff" stroke-width="2" points="180.25,-423.846 115.75,-423.846 103.75,-411.846 103.75,-399.846 115.75,-387.846 180.25,-387.846 192.25,-399.846 192.25,-411.846 180.25,-423.846"/>
<path fill="#9fa8ff" stroke="#9fa8ff" stroke-width="2" d="M115.75,-423.846C109.75,-423.846 103.75,-417.846 103.75,-411.846"/>
<path fill="#9fa8ff" stroke="#9fa8ff" stroke-width="2" d="M103.75,-399.846C103.75,-393.846 109.75,-387.846 115.75,-387.846"/>
<path fill="#9fa8ff" stroke="#9fa8ff" stroke-width="2" d="M180.25,-387.846C186.25,-387.846 192.25,-393.846 192.25,-399.846"/>
<path fill="#9fa8ff" stroke="#9fa8ff" stroke-width="2" d="M192.25,-411.846C192.25,-417.846 186.25,-423.846 180.25,-423.846"/>
<polyline fill="none" stroke="white" stroke-width="2" points="180.25,-423.846 115.75,-423.846 "/>
<path fill="none" stroke="white" stroke-width="2" d="M115.75,-423.846C109.75,-423.846 103.75,-417.846 103.75,-411.846"/>
<polyline fill="none" stroke="white" stroke-width="2" points="103.75,-411.846 103.75,-399.846 "/>
<path fill="none" stroke="white" stroke-width="2" d="M103.75,-399.846C103.75,-393.846 109.75,-387.846 115.75,-387.846"/>
<polyline fill="none" stroke="white" stroke-width="2" points="115.75,-387.846 180.25,-387.846 "/>
<path fill="none" stroke="white" stroke-width="2" d="M180.25,-387.846C186.25,-387.846 192.25,-393.846 192.25,-399.846"/>
<polyline fill="none" stroke="white" stroke-width="2" points="192.25,-399.846 192.25,-411.846 "/>
<path fill="none" stroke="white" stroke-width="2" d="M192.25,-411.846C192.25,-417.846 186.25,-423.846 180.25,-423.846"/>
<text text-anchor="middle" x="148" y="-403.346" font-family="Helvetica,sans-Serif" font-size="10.00">HOXB6_PRRX2</text>
</a>
</g>
<!-- ZNF711_TFAP2A_TFAP2D&#45;&gt;HOXB6_PRRX2 -->
<g id="edge6" class="edge"><title>ZNF711_TFAP2A_TFAP2D&#45;&gt;HOXB6_PRRX2</title>
<a xlink:title="PRRX2: 0.229||TFAP2D: 0.455||TFAP2A: 0.041||remove16">
<path fill="none" stroke="#e7b5ff" stroke-width="3" d="M398.645,-406.846C337.745,-406.846 254.419,-406.846 200.894,-406.846"/>
<path fill="none" stroke="#e0a0ff" stroke-width="3" d="M398.645,-404.846C337.745,-404.846 254.419,-404.846 200.894,-404.846"/>
<polygon fill="#e0a0ff" stroke="#e0a0ff" points="398.719,-408.646 406.719,-405.846 398.719,-403.046 398.719,-408.646"/>
<polygon fill="#e7b5ff" stroke="#e7b5ff" points="200.894,-403.046 192.894,-405.846 200.893,-408.646 200.894,-403.046"/>
</a>
</g>
<!-- NOTO_VSX2_DLX2_DLX6_NKX6&#45;1 -->
<g id="node8" class="node"><title>NOTO_VSX2_DLX2_DLX6_NKX6&#45;1</title>
<a xlink:href="NOTO_VSX2_DLX2_DLX6_NKX6-1.svg" xlink:title="Z&#45;value: 0.431||remove20">
<polygon fill="#b0b8ff" stroke="#b0b8ff" stroke-width="2" points="163.5,-319.923 12.5,-319.923 0.5,-307.923 0.5,-295.923 12.5,-283.923 163.5,-283.923 175.5,-295.923 175.5,-307.923 163.5,-319.923"/>
<path fill="#b0b8ff" stroke="#b0b8ff" stroke-width="2" d="M12.5,-319.923C6.5,-319.923 0.5,-313.923 0.5,-307.923"/>
<path fill="#b0b8ff" stroke="#b0b8ff" stroke-width="2" d="M0.5,-295.923C0.5,-289.923 6.5,-283.923 12.5,-283.923"/>
<path fill="#b0b8ff" stroke="#b0b8ff" stroke-width="2" d="M163.5,-283.923C169.5,-283.923 175.5,-289.923 175.5,-295.923"/>
<path fill="#b0b8ff" stroke="#b0b8ff" stroke-width="2" d="M175.5,-307.923C175.5,-313.923 169.5,-319.923 163.5,-319.923"/>
<polyline fill="none" stroke="white" stroke-width="2" points="163.5,-319.923 12.5,-319.923 "/>
<path fill="none" stroke="white" stroke-width="2" d="M12.5,-319.923C6.5,-319.923 0.5,-313.923 0.5,-307.923"/>
<polyline fill="none" stroke="white" stroke-width="2" points="0.5,-307.923 0.5,-295.923 "/>
<path fill="none" stroke="white" stroke-width="2" d="M0.5,-295.923C0.5,-289.923 6.5,-283.923 12.5,-283.923"/>
<polyline fill="none" stroke="white" stroke-width="2" points="12.5,-283.923 163.5,-283.923 "/>
<path fill="none" stroke="white" stroke-width="2" d="M163.5,-283.923C169.5,-283.923 175.5,-289.923 175.5,-295.923"/>
<polyline fill="none" stroke="white" stroke-width="2" points="175.5,-295.923 175.5,-307.923 "/>
<path fill="none" stroke="white" stroke-width="2" d="M175.5,-307.923C175.5,-313.923 169.5,-319.923 163.5,-319.923"/>
<text text-anchor="middle" x="88" y="-299.423" font-family="Helvetica,sans-Serif" font-size="10.00">NOTO_VSX2_DLX2_DLX6_NKX6&#45;1</text>
</a>
</g>
<!-- ZNF711_TFAP2A_TFAP2D&#45;&gt;NOTO_VSX2_DLX2_DLX6_NKX6&#45;1 -->
<g id="edge8" class="edge"><title>ZNF711_TFAP2A_TFAP2D&#45;&gt;NOTO_VSX2_DLX2_DLX6_NKX6&#45;1</title>
<a xlink:title="DLX6: 0.115||VSX2: 0.009||remove16">
<path fill="none" stroke="#ebc0ff" stroke-width="3" d="M408.288,-387.744C339.953,-369.434 234.536,-341.187 163.49,-322.151"/>
<polygon fill="#ebc0ff" stroke="#ebc0ff" points="163.885,-319.358 155.433,-319.992 162.436,-324.767 163.885,-319.358"/>
</a>
</g>
<!-- HESX1 -->
<g id="node10" class="node"><title>HESX1</title>
<a xlink:href="HESX1.svg" xlink:title="Z&#45;value: 0.490||remove28">
<polygon fill="#ffacac" stroke="#ffacac" stroke-width="2" points="326.923,-259.923 296.923,-259.923 284.923,-247.923 284.923,-235.923 296.923,-223.923 326.923,-223.923 338.923,-235.923 338.923,-247.923 326.923,-259.923"/>
<path fill="#ffacac" stroke="#ffacac" stroke-width="2" d="M296.923,-259.923C290.923,-259.923 284.923,-253.923 284.923,-247.923"/>
<path fill="#ffacac" stroke="#ffacac" stroke-width="2" d="M284.923,-235.923C284.923,-229.923 290.923,-223.923 296.923,-223.923"/>
<path fill="#ffacac" stroke="#ffacac" stroke-width="2" d="M326.923,-223.923C332.923,-223.923 338.923,-229.923 338.923,-235.923"/>
<path fill="#ffacac" stroke="#ffacac" stroke-width="2" d="M338.923,-247.923C338.923,-253.923 332.923,-259.923 326.923,-259.923"/>
<polyline fill="none" stroke="white" stroke-width="2" points="326.923,-259.923 296.923,-259.923 "/>
<path fill="none" stroke="white" stroke-width="2" d="M296.923,-259.923C290.923,-259.923 284.923,-253.923 284.923,-247.923"/>
<polyline fill="none" stroke="white" stroke-width="2" points="284.923,-247.923 284.923,-235.923 "/>
<path fill="none" stroke="white" stroke-width="2" d="M284.923,-235.923C284.923,-229.923 290.923,-223.923 296.923,-223.923"/>
<polyline fill="none" stroke="white" stroke-width="2" points="296.923,-223.923 326.923,-223.923 "/>
<path fill="none" stroke="white" stroke-width="2" d="M326.923,-223.923C332.923,-223.923 338.923,-229.923 338.923,-235.923"/>
<polyline fill="none" stroke="white" stroke-width="2" points="338.923,-235.923 338.923,-247.923 "/>
<path fill="none" stroke="white" stroke-width="2" d="M338.923,-247.923C338.923,-253.923 332.923,-259.923 326.923,-259.923"/>
<text text-anchor="middle" x="311.923" y="-239.423" font-family="Helvetica,sans-Serif" font-size="10.00">HESX1</text>
</a>
</g>
<!-- ZNF711_TFAP2A_TFAP2D&#45;&gt;HESX1 -->
<g id="edge10" class="edge"><title>ZNF711_TFAP2A_TFAP2D&#45;&gt;HESX1</title>
<a xlink:title="HESX1: 0.093||remove16root">
<path fill="none" stroke="#c3c9ff" stroke-width="3" d="M457.677,-387.677C428.014,-358.014 369.177,-299.177 336.047,-266.047"/>
<polygon fill="#c3c9ff" stroke="#c3c9ff" points="337.81,-263.85 330.173,-260.173 333.85,-267.81 337.81,-263.85"/>
</a>
</g>
<!-- FOXK1_FOXP2_FOXB1_FOXP3 -->
<g id="node12" class="node"><title>FOXK1_FOXP2_FOXB1_FOXP3</title>
<a xlink:href="FOXK1_FOXP2_FOXB1_FOXP3.svg" xlink:title="Z&#45;value: 0.694||remove18">
<polygon fill="#9fa9ff" stroke="#9fa9ff" stroke-width="2" points="156.25,-199.923 19.75,-199.923 7.75,-187.923 7.75,-175.923 19.75,-163.923 156.25,-163.923 168.25,-175.923 168.25,-187.923 156.25,-199.923"/>
<path fill="#9fa9ff" stroke="#9fa9ff" stroke-width="2" d="M19.75,-199.923C13.75,-199.923 7.75,-193.923 7.75,-187.923"/>
<path fill="#9fa9ff" stroke="#9fa9ff" stroke-width="2" d="M7.75,-175.923C7.75,-169.923 13.75,-163.923 19.75,-163.923"/>
<path fill="#9fa9ff" stroke="#9fa9ff" stroke-width="2" d="M156.25,-163.923C162.25,-163.923 168.25,-169.923 168.25,-175.923"/>
<path fill="#9fa9ff" stroke="#9fa9ff" stroke-width="2" d="M168.25,-187.923C168.25,-193.923 162.25,-199.923 156.25,-199.923"/>
<polyline fill="none" stroke="white" stroke-width="2" points="156.25,-199.923 19.75,-199.923 "/>
<path fill="none" stroke="white" stroke-width="2" d="M19.75,-199.923C13.75,-199.923 7.75,-193.923 7.75,-187.923"/>
<polyline fill="none" stroke="white" stroke-width="2" points="7.75,-187.923 7.75,-175.923 "/>
<path fill="none" stroke="white" stroke-width="2" d="M7.75,-175.923C7.75,-169.923 13.75,-163.923 19.75,-163.923"/>
<polyline fill="none" stroke="white" stroke-width="2" points="19.75,-163.923 156.25,-163.923 "/>
<path fill="none" stroke="white" stroke-width="2" d="M156.25,-163.923C162.25,-163.923 168.25,-169.923 168.25,-175.923"/>
<polyline fill="none" stroke="white" stroke-width="2" points="168.25,-175.923 168.25,-187.923 "/>
<path fill="none" stroke="white" stroke-width="2" d="M168.25,-187.923C168.25,-193.923 162.25,-199.923 156.25,-199.923"/>
<text text-anchor="middle" x="88" y="-179.423" font-family="Helvetica,sans-Serif" font-size="10.00">FOXK1_FOXP2_FOXB1_FOXP3</text>
</a>
</g>
<!-- ZNF711_TFAP2A_TFAP2D&#45;&gt;FOXK1_FOXP2_FOXB1_FOXP3 -->
<g id="edge12" class="edge"><title>ZNF711_TFAP2A_TFAP2D&#45;&gt;FOXK1_FOXP2_FOXB1_FOXP3</title>
<a xlink:title="FOXK1: 0.546||remove16">
<path fill="none" stroke="#dd97ff" stroke-width="3" d="M444.436,-387.711C373.943,-347.013 203.332,-248.51 126.562,-204.187"/>
<polygon fill="#dd97ff" stroke="#dd97ff" points="127.761,-201.646 119.433,-200.071 124.961,-206.496 127.761,-201.646"/>
</a>
</g>
<!-- GATA1_GATA4 -->
<g id="node15" class="node"><title>GATA1_GATA4</title>
<a xlink:href="GATA1_GATA4.svg" xlink:title="Z&#45;value: 1.000||remove15">
<polygon fill="#8b97ff" stroke="#8b97ff" stroke-width="2" points="179,-96 117,-96 105,-84 105,-72 117,-60 179,-60 191,-72 191,-84 179,-96"/>
<path fill="#8b97ff" stroke="#8b97ff" stroke-width="2" d="M117,-96C111,-96 105,-90 105,-84"/>
<path fill="#8b97ff" stroke="#8b97ff" stroke-width="2" d="M105,-72C105,-66 111,-60 117,-60"/>
<path fill="#8b97ff" stroke="#8b97ff" stroke-width="2" d="M179,-60C185,-60 191,-66 191,-72"/>
<path fill="#8b97ff" stroke="#8b97ff" stroke-width="2" d="M191,-84C191,-90 185,-96 179,-96"/>
<polyline fill="none" stroke="white" stroke-width="2" points="179,-96 117,-96 "/>
<path fill="none" stroke="white" stroke-width="2" d="M117,-96C111,-96 105,-90 105,-84"/>
<polyline fill="none" stroke="white" stroke-width="2" points="105,-84 105,-72 "/>
<path fill="none" stroke="white" stroke-width="2" d="M105,-72C105,-66 111,-60 117,-60"/>
<polyline fill="none" stroke="white" stroke-width="2" points="117,-60 179,-60 "/>
<path fill="none" stroke="white" stroke-width="2" d="M179,-60C185,-60 191,-66 191,-72"/>
<polyline fill="none" stroke="white" stroke-width="2" points="191,-72 191,-84 "/>
<path fill="none" stroke="white" stroke-width="2" d="M191,-84C191,-90 185,-96 179,-96"/>
<text text-anchor="middle" x="148" y="-75.5" font-family="Helvetica,sans-Serif" font-size="10.00">GATA1_GATA4</text>
</a>
</g>
<!-- ZNF711_TFAP2A_TFAP2D&#45;&gt;GATA1_GATA4 -->
<g id="edge16" class="edge"><title>ZNF711_TFAP2A_TFAP2D&#45;&gt;GATA1_GATA4</title>
<a xlink:title="GATA4: 0.006||remove1root">
<path fill="none" stroke="#eecbff" stroke-width="3" d="M465.449,-387.618C445.004,-352.736 396.867,-275.2 343.243,-221.043 294.333,-171.647 227.105,-126.358 185.657,-100.496"/>
<polygon fill="#eecbff" stroke="#eecbff" points="187.006,-98.038 178.731,-96.2053 184.057,-102.799 187.006,-98.038"/>
</a>
</g>
<!-- POU5F1_POU2F3 -->
<g id="node17" class="node"><title>POU5F1_POU2F3</title>
<a xlink:href="POU5F1_POU2F3.svg" xlink:title="Z&#45;value: 0.774||remove27">
<polygon fill="#9aa4ff" stroke="#9aa4ff" stroke-width="2" points="572.346,-319.923 499.346,-319.923 487.346,-307.923 487.346,-295.923 499.346,-283.923 572.346,-283.923 584.346,-295.923 584.346,-307.923 572.346,-319.923"/>
<path fill="#9aa4ff" stroke="#9aa4ff" stroke-width="2" d="M499.346,-319.923C493.346,-319.923 487.346,-313.923 487.346,-307.923"/>
<path fill="#9aa4ff" stroke="#9aa4ff" stroke-width="2" d="M487.346,-295.923C487.346,-289.923 493.346,-283.923 499.346,-283.923"/>
<path fill="#9aa4ff" stroke="#9aa4ff" stroke-width="2" d="M572.346,-283.923C578.346,-283.923 584.346,-289.923 584.346,-295.923"/>
<path fill="#9aa4ff" stroke="#9aa4ff" stroke-width="2" d="M584.346,-307.923C584.346,-313.923 578.346,-319.923 572.346,-319.923"/>
<polyline fill="none" stroke="white" stroke-width="2" points="572.346,-319.923 499.346,-319.923 "/>
<path fill="none" stroke="white" stroke-width="2" d="M499.346,-319.923C493.346,-319.923 487.346,-313.923 487.346,-307.923"/>
<polyline fill="none" stroke="white" stroke-width="2" points="487.346,-307.923 487.346,-295.923 "/>
<path fill="none" stroke="white" stroke-width="2" d="M487.346,-295.923C487.346,-289.923 493.346,-283.923 499.346,-283.923"/>
<polyline fill="none" stroke="white" stroke-width="2" points="499.346,-283.923 572.346,-283.923 "/>
<path fill="none" stroke="white" stroke-width="2" d="M572.346,-283.923C578.346,-283.923 584.346,-289.923 584.346,-295.923"/>
<polyline fill="none" stroke="white" stroke-width="2" points="584.346,-295.923 584.346,-307.923 "/>
<path fill="none" stroke="white" stroke-width="2" d="M584.346,-307.923C584.346,-313.923 578.346,-319.923 572.346,-319.923"/>
<text text-anchor="middle" x="535.846" y="-299.423" font-family="Helvetica,sans-Serif" font-size="10.00">POU5F1_POU2F3</text>
</a>
</g>
<!-- ZNF711_TFAP2A_TFAP2D&#45;&gt;POU5F1_POU2F3 -->
<g id="edge18" class="edge"><title>ZNF711_TFAP2A_TFAP2D&#45;&gt;POU5F1_POU2F3</title>
<a xlink:title="POU5F1: 1.589||POU2F3: 0.217||remove16">
<path fill="none" stroke="#bd32ff" stroke-width="3" d="M486.297,-387.744C495.96,-371.008 510.415,-345.97 521.222,-327.252"/>
<polygon fill="#bd32ff" stroke="#bd32ff" points="523.738,-328.495 525.313,-320.166 518.888,-325.695 523.738,-328.495"/>
</a>
</g>
<!-- FOXO3_FOXD2&#45;&gt;FOXO3_FOXD2 -->
<g id="edge24" class="edge"><title>FOXO3_FOXD2&#45;&gt;FOXO3_FOXD2</title>
<a xlink:title="FOXO3: 0.021||remove4root">
<path fill="none" stroke="#eec9ff" stroke-width="3" d="M415.514,-472.447C425.551,-471.879 432.923,-469.678 432.923,-465.846 432.923,-463.152 429.278,-461.264 423.625,-460.183"/>
<polygon fill="#eec9ff" stroke="#eec9ff" points="423.783,-457.383 415.514,-459.245 423.14,-462.945 423.783,-457.383"/>
</a>
</g>
<!-- FOXO3_FOXD2&#45;&gt;HESX1 -->
<g id="edge26" class="edge"><title>FOXO3_FOXD2&#45;&gt;HESX1</title>
<a xlink:title="HESX1: 0.127||remove17root">
<path fill="none" stroke="#bfc6ff" stroke-width="3" d="M367.013,-447.522C356.395,-407.894 331.265,-314.107 318.959,-268.181"/>
<polygon fill="#bfc6ff" stroke="#bfc6ff" points="321.592,-267.189 316.817,-260.187 316.183,-268.639 321.592,-267.189"/>
</a>
</g>
<!-- FOXO3_FOXD2&#45;&gt;FOXK1_FOXP2_FOXB1_FOXP3 -->
<g id="edge28" class="edge"><title>FOXO3_FOXD2&#45;&gt;FOXK1_FOXP2_FOXB1_FOXP3</title>
<a xlink:title="FOXP2: 0.444||FOXO3: 0.030||remove17">
<path fill="none" stroke="#e1a1ff" stroke-width="3" d="M347.887,-442.497C313.454,-407.071 246.871,-338.868 189.375,-281.753 163.226,-255.776 132.868,-226.395 112.102,-206.415"/>
<path fill="none" stroke="#edc9ff" stroke-width="3" d="M349.321,-441.103C314.885,-405.673 248.302,-337.47 190.785,-280.334 164.617,-254.339 134.258,-224.958 113.489,-204.974"/>
<polygon fill="#edc9ff" stroke="#edc9ff" points="346.666,-443.824 354.249,-447.611 350.683,-439.922 346.666,-443.824"/>
<polygon fill="#e1a1ff" stroke="#e1a1ff" points="114.647,-203.59 106.939,-200.064 110.766,-207.627 114.647,-203.59"/>
</a>
</g>
<!-- DLX3_EVX1_MEOX1&#45;&gt;HESX1 -->
<g id="edge64" class="edge"><title>DLX3_EVX1_MEOX1&#45;&gt;HESX1</title>
<a xlink:title="HESX1: 0.065||remove12root">
<path fill="none" stroke="#c5cbff" stroke-width="3" d="M256.833,-447.522C267.451,-407.894 292.582,-314.107 304.887,-268.181"/>
<polygon fill="#c5cbff" stroke="#c5cbff" points="307.663,-268.639 307.029,-260.187 302.254,-267.189 307.663,-268.639"/>
</a>
</g>
<!-- HOXB6_PRRX2&#45;&gt;DLX3_EVX1_MEOX1 -->
<g id="edge40" class="edge"><title>HOXB6_PRRX2&#45;&gt;DLX3_EVX1_MEOX1</title>
<a xlink:title="EVX1: 0.110||remove12">
<path fill="none" stroke="#ebc1ff" stroke-width="3" d="M179.18,-423.848C189.872,-430.021 201.969,-437.005 213.186,-443.481"/>
<polygon fill="#ebc1ff" stroke="#ebc1ff" points="212.077,-446.074 220.406,-447.649 214.877,-441.225 212.077,-446.074"/>
</a>
</g>
<!-- HOXB6_PRRX2&#45;&gt;HOXB6_PRRX2 -->
<g id="edge42" class="edge"><title>HOXB6_PRRX2&#45;&gt;HOXB6_PRRX2</title>
<a xlink:title="HOXB6: 0.279||remove24root">
<path fill="none" stroke="#e6b1ff" stroke-width="3" d="M192.306,-412.447C202.507,-411.879 210,-409.678 210,-405.846 210,-403.152 206.295,-401.264 200.55,-400.183"/>
<polygon fill="#e6b1ff" stroke="#e6b1ff" points="200.571,-397.367 192.306,-399.245 199.938,-402.931 200.571,-397.367"/>
</a>
</g>
<!-- HOXB6_PRRX2&#45;&gt;NOTO_VSX2_DLX2_DLX6_NKX6&#45;1 -->
<g id="edge44" class="edge"><title>HOXB6_PRRX2&#45;&gt;NOTO_VSX2_DLX2_DLX6_NKX6&#45;1</title>
<a xlink:title="VSX2: 0.062||remove10root">
<path fill="none" stroke="#ecc6ff" stroke-width="3" d="M137.549,-387.744C127.886,-371.008 113.431,-345.97 102.624,-327.252"/>
<polygon fill="#ecc6ff" stroke="#ecc6ff" points="104.958,-325.695 98.5328,-320.166 100.108,-328.495 104.958,-325.695"/>
</a>
</g>
<!-- HOXB6_PRRX2&#45;&gt;HESX1 -->
<g id="edge46" class="edge"><title>HOXB6_PRRX2&#45;&gt;HESX1</title>
<a xlink:title="HESX1: 0.352||remove26root">
<path fill="none" stroke="#aab2ff" stroke-width="3" d="M166.169,-387.677C195.832,-358.014 254.67,-299.177 287.799,-266.047"/>
<polygon fill="#aab2ff" stroke="#aab2ff" points="289.996,-267.81 293.673,-260.173 286.036,-263.85 289.996,-267.81"/>
</a>
</g>
<!-- HOXB6_PRRX2&#45;&gt;FOXK1_FOXP2_FOXB1_FOXP3 -->
<g id="edge48" class="edge"><title>HOXB6_PRRX2&#45;&gt;FOXK1_FOXP2_FOXB1_FOXP3</title>
<a xlink:title="FOXB1: 0.005||remove0root">
<path fill="none" stroke="#eecbff" stroke-width="3" d="M162.352,-387.759C179.987,-363.198 205.754,-318.109 190.08,-281.043 176.625,-249.224 147.406,-222.589 123.663,-204.97"/>
<polygon fill="#eecbff" stroke="#eecbff" points="125.251,-202.664 117.128,-200.243 121.969,-207.201 125.251,-202.664"/>
</a>
</g>
<!-- HOXB8 -->
<g id="node27" class="node"><title>HOXB8</title>
<a xlink:href="HOXB8.svg" xlink:title="Z&#45;value: 0.725||remove25">
<polygon fill="#9da7ff" stroke="#9da7ff" stroke-width="2" points="266.923,-36 236.923,-36 224.923,-24 224.923,-12 236.923,-9.59233e-14 266.923,-9.59233e-14 278.923,-12 278.923,-24 266.923,-36"/>
<path fill="#9da7ff" stroke="#9da7ff" stroke-width="2" d="M236.923,-36C230.923,-36 224.923,-30 224.923,-24"/>
<path fill="#9da7ff" stroke="#9da7ff" stroke-width="2" d="M224.923,-12C224.923,-6 230.923,-9.59233e-14 236.923,-9.59233e-14"/>
<path fill="#9da7ff" stroke="#9da7ff" stroke-width="2" d="M266.923,-9.59233e-14C272.923,-9.59233e-14 278.923,-6 278.923,-12"/>
<path fill="#9da7ff" stroke="#9da7ff" stroke-width="2" d="M278.923,-24C278.923,-30 272.923,-36 266.923,-36"/>
<polyline fill="none" stroke="white" stroke-width="2" points="266.923,-36 236.923,-36 "/>
<path fill="none" stroke="white" stroke-width="2" d="M236.923,-36C230.923,-36 224.923,-30 224.923,-24"/>
<polyline fill="none" stroke="white" stroke-width="2" points="224.923,-24 224.923,-12 "/>
<path fill="none" stroke="white" stroke-width="2" d="M224.923,-12C224.923,-6 230.923,-9.59233e-14 236.923,-9.59233e-14"/>
<polyline fill="none" stroke="white" stroke-width="2" points="236.923,-9.59233e-14 266.923,-9.59233e-14 "/>
<path fill="none" stroke="white" stroke-width="2" d="M266.923,-9.59233e-14C272.923,-9.59233e-14 278.923,-6 278.923,-12"/>
<polyline fill="none" stroke="white" stroke-width="2" points="278.923,-12 278.923,-24 "/>
<path fill="none" stroke="white" stroke-width="2" d="M278.923,-24C278.923,-30 272.923,-36 266.923,-36"/>
<text text-anchor="middle" x="251.923" y="-15.5" font-family="Helvetica,sans-Serif" font-size="10.00">HOXB8</text>
</a>
</g>
<!-- HOXB6_PRRX2&#45;&gt;HOXB8 -->
<g id="edge50" class="edge"><title>HOXB6_PRRX2&#45;&gt;HOXB8</title>
<a xlink:title="HOXB8: 0.082||remove14root">
<path fill="none" stroke="#ecc4ff" stroke-width="3" d="M159.011,-387.678C168.515,-371.261 181.959,-346.16 190.08,-322.803 224.752,-223.076 242.538,-97.8664 249.006,-44.286"/>
<polygon fill="#ecc4ff" stroke="#ecc4ff" points="251.789,-44.5899 249.947,-36.3166 246.228,-43.9328 251.789,-44.5899"/>
</a>
</g>
<!-- HOXA6 -->
<g id="node29" class="node"><title>HOXA6</title>
<a xlink:href="HOXA6.svg" xlink:title="Z&#45;value: 0.453||remove11">
<polygon fill="#aeb6ff" stroke="#aeb6ff" stroke-width="2" points="386.923,-36 356.923,-36 344.923,-24 344.923,-12 356.923,-0 386.923,-0 398.923,-12 398.923,-24 386.923,-36"/>
<path fill="#aeb6ff" stroke="#aeb6ff" stroke-width="2" d="M356.923,-36C350.923,-36 344.923,-30 344.923,-24"/>
<path fill="#aeb6ff" stroke="#aeb6ff" stroke-width="2" d="M344.923,-12C344.923,-6 350.923,-0 356.923,-0"/>
<path fill="#aeb6ff" stroke="#aeb6ff" stroke-width="2" d="M386.923,-0C392.923,-0 398.923,-6 398.923,-12"/>
<path fill="#aeb6ff" stroke="#aeb6ff" stroke-width="2" d="M398.923,-24C398.923,-30 392.923,-36 386.923,-36"/>
<polyline fill="none" stroke="white" stroke-width="2" points="386.923,-36 356.923,-36 "/>
<path fill="none" stroke="white" stroke-width="2" d="M356.923,-36C350.923,-36 344.923,-30 344.923,-24"/>
<polyline fill="none" stroke="white" stroke-width="2" points="344.923,-24 344.923,-12 "/>
<path fill="none" stroke="white" stroke-width="2" d="M344.923,-12C344.923,-6 350.923,-0 356.923,-0"/>
<polyline fill="none" stroke="white" stroke-width="2" points="356.923,-0 386.923,-0 "/>
<path fill="none" stroke="white" stroke-width="2" d="M386.923,-0C392.923,-0 398.923,-6 398.923,-12"/>
<polyline fill="none" stroke="white" stroke-width="2" points="398.923,-12 398.923,-24 "/>
<path fill="none" stroke="white" stroke-width="2" d="M398.923,-24C398.923,-30 392.923,-36 386.923,-36"/>
<text text-anchor="middle" x="371.923" y="-15.5" font-family="Helvetica,sans-Serif" font-size="10.00">HOXA6</text>
</a>
</g>
<!-- HOXB6_PRRX2&#45;&gt;HOXA6 -->
<g id="edge38" class="edge"><title>HOXB6_PRRX2&#45;&gt;HOXA6</title>
<a xlink:title="HOXA6: 0.021||remove3root">
<path fill="none" stroke="#eec9ff" stroke-width="3" d="M158.5,-387.66C194.864,-324.676 315.485,-115.753 357.411,-43.1352"/>
<polygon fill="#eec9ff" stroke="#eec9ff" points="359.871,-44.4753 361.446,-36.1471 355.021,-41.6753 359.871,-44.4753"/>
</a>
</g>
<!-- NOTO_VSX2_DLX2_DLX6_NKX6&#45;1&#45;&gt;HESX1 -->
<g id="edge62" class="edge"><title>NOTO_VSX2_DLX2_DLX6_NKX6&#45;1&#45;&gt;HESX1</title>
<a xlink:title="HESX1: 0.150||remove20root">
<path fill="none" stroke="#bdc4ff" stroke-width="3" d="M155.184,-283.921C195.206,-273.197 244.368,-260.024 276.842,-251.323"/>
<polygon fill="#bdc4ff" stroke="#bdc4ff" points="277.72,-253.987 284.723,-249.211 276.271,-248.577 277.72,-253.987"/>
</a>
</g>
<!-- HESX1&#45;&gt;POU5F1_POU2F3 -->
<g id="edge60" class="edge"><title>HESX1&#45;&gt;POU5F1_POU2F3</title>
<a xlink:title="POU5F1: 0.448||remove27root">
<path fill="none" stroke="#ffa0a0" stroke-width="3" d="M338.933,-249.16C373.499,-258.422 434.272,-274.706 479.188,-286.741"/>
<polygon fill="#ffa0a0" stroke="#ffa0a0" points="478.645,-289.495 487.097,-288.861 480.095,-284.086 478.645,-289.495"/>
</a>
</g>
<!-- FOXK1_FOXP2_FOXB1_FOXP3&#45;&gt;NOTO_VSX2_DLX2_DLX6_NKX6&#45;1 -->
<g id="edge52" class="edge"><title>FOXK1_FOXP2_FOXB1_FOXP3&#45;&gt;NOTO_VSX2_DLX2_DLX6_NKX6&#45;1</title>
<a xlink:title="DLX6: 0.004||FOXP2: 0.049||remove8root">
<path fill="none" stroke="#eecbff" stroke-width="3" d="M89,-208.421C89,-228.487 89,-255.91 89,-275.867"/>
<path fill="none" stroke="#edc7ff" stroke-width="3" d="M87,-208.421C87,-228.487 87,-255.91 87,-275.867"/>
<polygon fill="#edc7ff" stroke="#edc7ff" points="90.8001,-208.148 88,-200.148 85.2001,-208.149 90.8001,-208.148"/>
<polygon fill="#eecbff" stroke="#eecbff" points="85.1999,-275.919 88,-283.919 90.7999,-275.919 85.1999,-275.919"/>
</a>
</g>
<!-- FOXK1_FOXP2_FOXB1_FOXP3&#45;&gt;HESX1 -->
<g id="edge54" class="edge"><title>FOXK1_FOXP2_FOXB1_FOXP3&#45;&gt;HESX1</title>
<a xlink:title="HESX1: 0.129||remove18root">
<path fill="none" stroke="#bfc5ff" stroke-width="3" d="M155.184,-199.925C195.206,-210.649 244.368,-223.822 276.842,-232.523"/>
<polygon fill="#bfc5ff" stroke="#bfc5ff" points="276.271,-235.269 284.723,-234.635 277.72,-229.86 276.271,-235.269"/>
</a>
</g>
<!-- FOXK1_FOXP2_FOXB1_FOXP3&#45;&gt;FOXK1_FOXP2_FOXB1_FOXP3 -->
<g id="edge56" class="edge"><title>FOXK1_FOXP2_FOXB1_FOXP3&#45;&gt;FOXK1_FOXP2_FOXB1_FOXP3</title>
<a xlink:title="FOXP2: 0.236||remove18">
<path fill="none" stroke="#e7b5ff" stroke-width="3" d="M168.36,-187.875C178.966,-186.86 186,-184.876 186,-181.923 186,-179.8 182.366,-178.179 176.384,-177.057"/>
<polygon fill="#e7b5ff" stroke="#e7b5ff" points="176.663,-174.269 168.36,-175.971 175.912,-179.819 176.663,-174.269"/>
</a>
</g>
<!-- FOXK1_FOXP2_FOXB1_FOXP3&#45;&gt;POU5F1_POU2F3 -->
<g id="edge58" class="edge"><title>FOXK1_FOXP2_FOXB1_FOXP3&#45;&gt;POU5F1_POU2F3</title>
<a xlink:title="POU2F3: 0.043||remove6root">
<path fill="none" stroke="#edc7ff" stroke-width="3" d="M123.611,-200.009C161.565,-218.532 223.881,-246.81 280.603,-262.803 347.363,-281.627 426.661,-291.987 478.955,-297.238"/>
<polygon fill="#edc7ff" stroke="#edc7ff" points="478.875,-300.043 487.11,-298.037 479.422,-294.47 478.875,-300.043"/>
</a>
</g>
<!-- GATA1_GATA4&#45;&gt;HESX1 -->
<g id="edge20" class="edge"><title>GATA1_GATA4&#45;&gt;HESX1</title>
<a xlink:title="HESX1: 0.084||remove15root">
<path fill="none" stroke="#c3c9ff" stroke-width="3" d="M166.169,-96.169C195.832,-125.832 254.67,-184.67 287.799,-217.799"/>
<polygon fill="#c3c9ff" stroke="#c3c9ff" points="286.036,-219.996 293.673,-223.673 289.996,-216.036 286.036,-219.996"/>
</a>
</g>
<!-- GATA1_GATA4&#45;&gt;FOXK1_FOXP2_FOXB1_FOXP3 -->
<g id="edge22" class="edge"><title>GATA1_GATA4&#45;&gt;FOXK1_FOXP2_FOXB1_FOXP3</title>
<a xlink:title="FOXP2: 0.108||FOXP3: 0.014||remove15">
<path fill="none" stroke="#ebc1ff" stroke-width="3" d="M137.549,-96.102C127.886,-112.838 113.431,-137.876 102.624,-156.594"/>
<polygon fill="#ebc1ff" stroke="#ebc1ff" points="100.108,-155.352 98.5328,-163.68 104.958,-158.152 100.108,-155.352"/>
</a>
</g>
<!-- POU5F1_POU2F3&#45;&gt;DLX3_EVX1_MEOX1 -->
<g id="edge30" class="edge"><title>POU5F1_POU2F3&#45;&gt;DLX3_EVX1_MEOX1</title>
<a xlink:title="EVX1: 0.126||remove12">
<path fill="none" stroke="#eabfff" stroke-width="3" d="M504.649,-319.935C452.292,-350.163 346.915,-411.002 290.177,-443.76"/>
<polygon fill="#eabfff" stroke="#eabfff" points="288.7,-441.38 283.172,-447.805 291.5,-446.23 288.7,-441.38"/>
</a>
</g>
<!-- POU5F1_POU2F3&#45;&gt;HOXB6_PRRX2 -->
<g id="edge32" class="edge"><title>POU5F1_POU2F3&#45;&gt;HOXB6_PRRX2</title>
<a xlink:title="HOXB6: 0.195||remove22root">
<path fill="none" stroke="#e8b9ff" stroke-width="3" d="M487.118,-314.98C413.8,-334.625 275.692,-371.631 200.321,-391.827"/>
<polygon fill="#e8b9ff" stroke="#e8b9ff" points="199.34,-389.191 192.338,-393.966 200.79,-394.6 199.34,-389.191"/>
</a>
</g>
<!-- POU5F1_POU2F3&#45;&gt;POU5F1_POU2F3 -->
<g id="edge34" class="edge"><title>POU5F1_POU2F3&#45;&gt;POU5F1_POU2F3</title>
<a xlink:title="POU2F3: 0.236||remove23root">
<path fill="none" stroke="#e7b5ff" stroke-width="3" d="M584.486,-308.436C594.584,-307.75 601.846,-305.579 601.846,-301.923 601.846,-299.352 598.256,-297.516 592.614,-296.414"/>
<polygon fill="#e7b5ff" stroke="#e7b5ff" points="592.769,-293.612 584.486,-295.41 592.083,-299.169 592.769,-293.612"/>
</a>
</g>
<!-- POU5F1_POU2F3&#45;&gt;HOXB8 -->
<g id="edge36" class="edge"><title>POU5F1_POU2F3&#45;&gt;HOXB8</title>
<a xlink:title="HOXB8: 0.044||remove7root">
<path fill="none" stroke="#edc7ff" stroke-width="3" d="M517.654,-283.73C468.174,-234.251 331.162,-97.2386 275.694,-41.7713"/>
<polygon fill="#edc7ff" stroke="#edc7ff" points="277.601,-39.718 269.964,-36.0411 273.641,-43.6779 277.601,-39.718"/>
</a>
</g>
<!-- HOXB8&#45;&gt;NOTO_VSX2_DLX2_DLX6_NKX6&#45;1 -->
<g id="edge68" class="edge"><title>HOXB8&#45;&gt;NOTO_VSX2_DLX2_DLX6_NKX6&#45;1</title>
<a xlink:title="DLX6: 0.176||remove20">
<path fill="none" stroke="#e9bbff" stroke-width="3" d="M247.538,-36.1327C238.691,-70.5249 216.502,-146.797 181.38,-202.803 163.281,-231.664 135.972,-259.438 115.555,-278.206"/>
<polygon fill="#e9bbff" stroke="#e9bbff" points="113.505,-276.285 109.458,-283.732 117.266,-280.434 113.505,-276.285"/>
</a>
</g>
<!-- HOXB8&#45;&gt;HESX1 -->
<g id="edge70" class="edge"><title>HOXB8&#45;&gt;HESX1</title>
<a xlink:title="HESX1: 0.307||remove25root">
<path fill="none" stroke="#aeb6ff" stroke-width="3" d="M256.833,-36.3246C267.451,-75.9522 292.582,-169.74 304.887,-215.665"/>
<polygon fill="#aeb6ff" stroke="#aeb6ff" points="302.254,-216.657 307.029,-223.659 307.663,-215.207 302.254,-216.657"/>
</a>
</g>
<!-- HOXB8&#45;&gt;FOXK1_FOXP2_FOXB1_FOXP3 -->
<g id="edge72" class="edge"><title>HOXB8&#45;&gt;FOXK1_FOXP2_FOXB1_FOXP3</title>
<a xlink:title="FOXP3: 0.072||remove13root">
<path fill="none" stroke="#ecc5ff" stroke-width="3" d="M242.091,-36.2796C232.279,-53.5441 216.075,-79.595 197.88,-98.88 175.871,-122.207 146.762,-143.886 124.035,-159.241"/>
<polygon fill="#ecc5ff" stroke="#ecc5ff" points="122.303,-157.03 117.201,-163.798 125.41,-161.689 122.303,-157.03"/>
</a>
</g>
<!-- HOXB8&#45;&gt;HOXA6 -->
<g id="edge66" class="edge"><title>HOXB8&#45;&gt;HOXA6</title>
<a xlink:title="HOXA6: 0.061||HOXB8: 0.010||remove9root">
<path fill="none" stroke="#ecc6ff" stroke-width="3" d="M287.304,-17C302.811,-17 320.974,-17 336.488,-17"/>
<path fill="none" stroke="#eecbff" stroke-width="3" d="M287.304,-19C302.811,-19 320.974,-19 336.488,-19"/>
<polygon fill="#eecbff" stroke="#eecbff" points="287.153,-15.1999 279.153,-18 287.153,-20.7999 287.153,-15.1999"/>
<polygon fill="#ecc6ff" stroke="#ecc6ff" points="336.801,-20.8001 344.801,-18 336.801,-15.2001 336.801,-20.8001"/>
</a>
</g>
<!-- HOXA6&#45;&gt;ZNF711_TFAP2A_TFAP2D -->
<g id="edge78" class="edge"><title>HOXA6&#45;&gt;ZNF711_TFAP2A_TFAP2D</title>
<a xlink:title="TFAP2D: 0.150||TFAP2A: 0.065||remove11">
<path fill="none" stroke="#eabdff" stroke-width="3" d="M376.796,-36.1864C393.604,-98.9157 449.201,-306.407 468.874,-379.824"/>
<polygon fill="#eabdff" stroke="#eabdff" points="466.208,-380.696 470.984,-387.699 471.618,-379.247 466.208,-380.696"/>
</a>
</g>
<!-- HOXA6&#45;&gt;HESX1 -->
<g id="edge74" class="edge"><title>HOXA6&#45;&gt;HESX1</title>
<a xlink:title="HESX1: 0.063||remove11root">
<path fill="none" stroke="#c5cbff" stroke-width="3" d="M367.013,-36.3246C356.395,-75.9522 331.265,-169.74 318.959,-215.665"/>
<polygon fill="#c5cbff" stroke="#c5cbff" points="316.183,-215.207 316.817,-223.659 321.592,-216.657 316.183,-215.207"/>
</a>
</g>
<!-- HOXA6&#45;&gt;FOXK1_FOXP2_FOXB1_FOXP3 -->
<g id="edge76" class="edge"><title>HOXA6&#45;&gt;FOXK1_FOXP2_FOXB1_FOXP3</title>
<a xlink:title="FOXP2: 0.029||remove5root">
<path fill="none" stroke="#edc9ff" stroke-width="3" d="M344.699,-33.7176C293.987,-62.9964 184.928,-125.961 126.623,-159.624"/>
<polygon fill="#edc9ff" stroke="#edc9ff" points="124.957,-157.353 119.429,-163.778 127.757,-162.202 124.957,-157.353"/>
</a>
</g>
<!-- HBP1 -->
<g id="node51" class="node"><title>HBP1</title>
<a xlink:href="HBP1.svg" xlink:title="Z&#45;value: 0.641||remove21">
<polygon fill="#a2acff" stroke="#a2acff" stroke-width="2" points="490.846,-96 460.846,-96 448.846,-84 448.846,-72 460.846,-60 490.846,-60 502.846,-72 502.846,-84 490.846,-96"/>
<path fill="#a2acff" stroke="#a2acff" stroke-width="2" d="M460.846,-96C454.846,-96 448.846,-90 448.846,-84"/>
<path fill="#a2acff" stroke="#a2acff" stroke-width="2" d="M448.846,-72C448.846,-66 454.846,-60 460.846,-60"/>
<path fill="#a2acff" stroke="#a2acff" stroke-width="2" d="M490.846,-60C496.846,-60 502.846,-66 502.846,-72"/>
<path fill="#a2acff" stroke="#a2acff" stroke-width="2" d="M502.846,-84C502.846,-90 496.846,-96 490.846,-96"/>
<polyline fill="none" stroke="white" stroke-width="2" points="490.846,-96 460.846,-96 "/>
<path fill="none" stroke="white" stroke-width="2" d="M460.846,-96C454.846,-96 448.846,-90 448.846,-84"/>
<polyline fill="none" stroke="white" stroke-width="2" points="448.846,-84 448.846,-72 "/>
<path fill="none" stroke="white" stroke-width="2" d="M448.846,-72C448.846,-66 454.846,-60 460.846,-60"/>
<polyline fill="none" stroke="white" stroke-width="2" points="460.846,-60 490.846,-60 "/>
<path fill="none" stroke="white" stroke-width="2" d="M490.846,-60C496.846,-60 502.846,-66 502.846,-72"/>
<polyline fill="none" stroke="white" stroke-width="2" points="502.846,-72 502.846,-84 "/>
<path fill="none" stroke="white" stroke-width="2" d="M502.846,-84C502.846,-90 496.846,-96 490.846,-96"/>
<text text-anchor="middle" x="475.846" y="-75.5" font-family="Helvetica,sans-Serif" font-size="10.00">HBP1</text>
</a>
</g>
<!-- HBP1&#45;&gt;HESX1 -->
<g id="edge80" class="edge"><title>HBP1&#45;&gt;HESX1</title>
<a xlink:title="HESX1: 0.169||remove21root">
<path fill="none" stroke="#bbc2ff" stroke-width="3" d="M457.677,-96.169C428.014,-125.832 369.177,-184.67 336.047,-217.799"/>
<polygon fill="#bbc2ff" stroke="#bbc2ff" points="333.85,-216.036 330.173,-223.673 337.81,-219.996 333.85,-216.036"/>
</a>
</g>
<!-- PDX1 -->
<g id="node53" class="node"><title>PDX1</title>
<a xlink:href="PDX1.svg" xlink:title="Z&#45;value: 0.496||remove19">
<polygon fill="#acb4ff" stroke="#acb4ff" stroke-width="2" points="550.846,-199.923 520.846,-199.923 508.846,-187.923 508.846,-175.923 520.846,-163.923 550.846,-163.923 562.846,-175.923 562.846,-187.923 550.846,-199.923"/>
<path fill="#acb4ff" stroke="#acb4ff" stroke-width="2" d="M520.846,-199.923C514.846,-199.923 508.846,-193.923 508.846,-187.923"/>
<path fill="#acb4ff" stroke="#acb4ff" stroke-width="2" d="M508.846,-175.923C508.846,-169.923 514.846,-163.923 520.846,-163.923"/>
<path fill="#acb4ff" stroke="#acb4ff" stroke-width="2" d="M550.846,-163.923C556.846,-163.923 562.846,-169.923 562.846,-175.923"/>
<path fill="#acb4ff" stroke="#acb4ff" stroke-width="2" d="M562.846,-187.923C562.846,-193.923 556.846,-199.923 550.846,-199.923"/>
<polyline fill="none" stroke="white" stroke-width="2" points="550.846,-199.923 520.846,-199.923 "/>
<path fill="none" stroke="white" stroke-width="2" d="M520.846,-199.923C514.846,-199.923 508.846,-193.923 508.846,-187.923"/>
<polyline fill="none" stroke="white" stroke-width="2" points="508.846,-187.923 508.846,-175.923 "/>
<path fill="none" stroke="white" stroke-width="2" d="M508.846,-175.923C508.846,-169.923 514.846,-163.923 520.846,-163.923"/>
<polyline fill="none" stroke="white" stroke-width="2" points="520.846,-163.923 550.846,-163.923 "/>
<path fill="none" stroke="white" stroke-width="2" d="M550.846,-163.923C556.846,-163.923 562.846,-169.923 562.846,-175.923"/>
<polyline fill="none" stroke="white" stroke-width="2" points="562.846,-175.923 562.846,-187.923 "/>
<path fill="none" stroke="white" stroke-width="2" d="M562.846,-187.923C562.846,-193.923 556.846,-199.923 550.846,-199.923"/>
<text text-anchor="middle" x="535.846" y="-179.423" font-family="Helvetica,sans-Serif" font-size="10.00">PDX1</text>
</a>
</g>
<!-- PDX1&#45;&gt;HESX1 -->
<g id="edge82" class="edge"><title>PDX1&#45;&gt;HESX1</title>
<a xlink:title="HESX1: 0.129||remove19root">
<path fill="none" stroke="#bfc5ff" stroke-width="3" d="M508.836,-189.16C468.319,-200.017 391.794,-220.522 347.007,-232.522"/>
<polygon fill="#bfc5ff" stroke="#bfc5ff" points="346.032,-229.885 339.029,-234.66 347.481,-235.294 346.032,-229.885"/>
</a>
</g>
<!-- PDX1&#45;&gt;FOXK1_FOXP2_FOXB1_FOXP3 -->
<g id="edge84" class="edge"><title>PDX1&#45;&gt;FOXK1_FOXP2_FOXB1_FOXP3</title>
<a xlink:title="FOXP2: 0.146||remove18">
<path fill="none" stroke="#eabdff" stroke-width="3" d="M508.84,-181.923C444.488,-181.923 279.783,-181.923 176.543,-181.923"/>
<polygon fill="#eabdff" stroke="#eabdff" points="176.294,-179.123 168.294,-181.923 176.294,-184.723 176.294,-179.123"/>
</a>
</g>
<!-- PDX1&#45;&gt;HOXB8 -->
<g id="edge86" class="edge"><title>PDX1&#45;&gt;HOXB8</title>
<a xlink:title="HOXB8: 0.012||remove2root">
<path fill="none" stroke="#eecaff" stroke-width="3" d="M508.622,-166.205C456.579,-136.158 343.086,-70.6332 286.062,-37.7102"/>
<polygon fill="#eecaff" stroke="#eecaff" points="287.393,-35.2452 279.064,-33.67 284.593,-40.095 287.393,-35.2452"/>
</a>
</g>
</g>
</svg>
