<?xml version="1.0" ?><!DOCTYPE svg  PUBLIC '-//W3C//DTD SVG 1.1//EN'  'http://www.w3.org/Graphics/SVG/1.1/DTD/svg11.dtd'><!-- Generated by graphviz version 2.28.0 (20110630.0925)
 --><!-- Title: _anonymous_0 Pages: 1 --><svg height="446pt" onload="init(evt)" width="603pt" xmlns="http://www.w3.org/2000/svg" xmlns:ismara="ismara.unibas.ch" xmlns:xlink="http://www.w3.org/1999/xlink">
<g class="graph" id="graph1" transform="scale(1 1) rotate(0) translate(54 391.559)">

<polygon fill="white" points="-4,5 -4,-391.559 449.559,-391.559 449.559,5 -4,5" stroke="white"/>
<!-- FOXM1_TBL1XR1 -->
<g class="node" id="node1">
<a class="remove26" onmousemove="ShowTooltip(evt, 'Z-value: 2.140')" onmouseout="HideTooltip(evt)" xlink:href="FOXM1_TBL1XR1.svg">
<polygon fill="#3247ff" points="207.68,-36 134.68,-36 122.68,-24 122.68,-12 134.68,-3.19744e-14 207.68,-3.19744e-14 219.68,-12 219.68,-24 207.68,-36" stroke="#3247ff" stroke-width="2"/>
<path d="M134.68,-36C128.68,-36 122.68,-30 122.68,-24" fill="#3247ff" stroke="#3247ff" stroke-width="2"/>
<path d="M122.68,-12C122.68,-6 128.68,-3.19744e-14 134.68,-3.19744e-14" fill="#3247ff" stroke="#3247ff" stroke-width="2"/>
<path d="M207.68,-3.19744e-14C213.68,-3.19744e-14 219.68,-6 219.68,-12" fill="#3247ff" stroke="#3247ff" stroke-width="2"/>
<path d="M219.68,-24C219.68,-30 213.68,-36 207.68,-36" fill="#3247ff" stroke="#3247ff" stroke-width="2"/>
<polyline fill="none" points="207.68,-36 134.68,-36 " stroke="white" stroke-width="2"/>
<path d="M134.68,-36C128.68,-36 122.68,-30 122.68,-24" fill="none" stroke="white" stroke-width="2"/>
<polyline fill="none" points="122.68,-24 122.68,-12 " stroke="white" stroke-width="2"/>
<path d="M122.68,-12C122.68,-6 128.68,-3.19744e-14 134.68,-3.19744e-14" fill="none" stroke="white" stroke-width="2"/>
<polyline fill="none" points="134.68,-3.19744e-14 207.68,-3.19744e-14 " stroke="white" stroke-width="2"/>
<path d="M207.68,-3.19744e-14C213.68,-3.19744e-14 219.68,-6 219.68,-12" fill="none" stroke="white" stroke-width="2"/>
<polyline fill="none" points="219.68,-12 219.68,-24 " stroke="white" stroke-width="2"/>
<path d="M219.68,-24C219.68,-30 213.68,-36 207.68,-36" fill="none" stroke="white" stroke-width="2"/>
<text fill="white" font-family="Helvetica,sans-Serif" font-size="10.00" text-anchor="middle" x="171.18" y="-15.5">FOXM1_TBL1XR1</text>
</a>
</g>
<!-- SMAD4 -->
<g class="node" id="node2">
<a class="remove20" onmousemove="ShowTooltip(evt, 'Z-value: 1.601')" onmouseout="HideTooltip(evt)" xlink:href="SMAD4.svg">
<polygon fill="#596aff" points="409.059,-258.88 379.059,-258.88 367.059,-246.88 367.059,-234.88 379.059,-222.88 409.059,-222.88 421.059,-234.88 421.059,-246.88 409.059,-258.88" stroke="#596aff" stroke-width="2"/>
<path d="M379.059,-258.88C373.059,-258.88 367.059,-252.88 367.059,-246.88" fill="#596aff" stroke="#596aff" stroke-width="2"/>
<path d="M367.059,-234.88C367.059,-228.88 373.059,-222.88 379.059,-222.88" fill="#596aff" stroke="#596aff" stroke-width="2"/>
<path d="M409.059,-222.88C415.059,-222.88 421.059,-228.88 421.059,-234.88" fill="#596aff" stroke="#596aff" stroke-width="2"/>
<path d="M421.059,-246.88C421.059,-252.88 415.059,-258.88 409.059,-258.88" fill="#596aff" stroke="#596aff" stroke-width="2"/>
<polyline fill="none" points="409.059,-258.88 379.059,-258.88 " stroke="white" stroke-width="2"/>
<path d="M379.059,-258.88C373.059,-258.88 367.059,-252.88 367.059,-246.88" fill="none" stroke="white" stroke-width="2"/>
<polyline fill="none" points="367.059,-246.88 367.059,-234.88 " stroke="white" stroke-width="2"/>
<path d="M367.059,-234.88C367.059,-228.88 373.059,-222.88 379.059,-222.88" fill="none" stroke="white" stroke-width="2"/>
<polyline fill="none" points="379.059,-222.88 409.059,-222.88 " stroke="white" stroke-width="2"/>
<path d="M409.059,-222.88C415.059,-222.88 421.059,-228.88 421.059,-234.88" fill="none" stroke="white" stroke-width="2"/>
<polyline fill="none" points="421.059,-234.88 421.059,-246.88 " stroke="white" stroke-width="2"/>
<path d="M421.059,-246.88C421.059,-252.88 415.059,-258.88 409.059,-258.88" fill="none" stroke="white" stroke-width="2"/>
<text fill="white" font-family="Helvetica,sans-Serif" font-size="10.00" text-anchor="middle" x="394.059" y="-238.38">SMAD4</text>
</a>
</g>
<!-- FOXM1_TBL1XR1&#45;&gt;SMAD4 -->
<g class="edge" id="edge2">
<a class="remove9 root" ismara:data="0.077" onmousemove="ShowTooltip(evt, 'SMAD4: 0.077')" onmouseout="HideTooltip(evt)">
<path d="M189.419,-36.2392C229.516,-76.3368 325.326,-172.146 370.16,-216.98" fill="none" stroke="#dd95ff" stroke-width="3"/>
<polygon fill="#dd95ff" points="368.244,-219.024 375.881,-222.701 372.204,-215.064 368.244,-219.024" stroke="#dd95ff"/>
</a>
</g>
<!-- PLAGL1 -->
<g class="node" id="node4">
<a class="remove22" onmousemove="ShowTooltip(evt, 'Z-value: 1.203')" onmouseout="HideTooltip(evt)" xlink:href="PLAGL1.svg">
<polygon fill="#7683ff" points="361.959,-340.459 331.959,-340.459 319.959,-328.459 319.959,-316.459 331.959,-304.459 361.959,-304.459 373.959,-316.459 373.959,-328.459 361.959,-340.459" stroke="#7683ff" stroke-width="2"/>
<path d="M331.959,-340.459C325.959,-340.459 319.959,-334.459 319.959,-328.459" fill="#7683ff" stroke="#7683ff" stroke-width="2"/>
<path d="M319.959,-316.459C319.959,-310.459 325.959,-304.459 331.959,-304.459" fill="#7683ff" stroke="#7683ff" stroke-width="2"/>
<path d="M361.959,-304.459C367.959,-304.459 373.959,-310.459 373.959,-316.459" fill="#7683ff" stroke="#7683ff" stroke-width="2"/>
<path d="M373.959,-328.459C373.959,-334.459 367.959,-340.459 361.959,-340.459" fill="#7683ff" stroke="#7683ff" stroke-width="2"/>
<polyline fill="none" points="361.959,-340.459 331.959,-340.459 " stroke="white" stroke-width="2"/>
<path d="M331.959,-340.459C325.959,-340.459 319.959,-334.459 319.959,-328.459" fill="none" stroke="white" stroke-width="2"/>
<polyline fill="none" points="319.959,-328.459 319.959,-316.459 " stroke="white" stroke-width="2"/>
<path d="M319.959,-316.459C319.959,-310.459 325.959,-304.459 331.959,-304.459" fill="none" stroke="white" stroke-width="2"/>
<polyline fill="none" points="331.959,-304.459 361.959,-304.459 " stroke="white" stroke-width="2"/>
<path d="M361.959,-304.459C367.959,-304.459 373.959,-310.459 373.959,-316.459" fill="none" stroke="white" stroke-width="2"/>
<polyline fill="none" points="373.959,-316.459 373.959,-328.459 " stroke="white" stroke-width="2"/>
<path d="M373.959,-328.459C373.959,-334.459 367.959,-340.459 361.959,-340.459" fill="none" stroke="white" stroke-width="2"/>
<text font-family="Helvetica,sans-Serif" font-size="10.00" text-anchor="middle" x="346.959" y="-319.959">PLAGL1</text>
</a>
</g>
<!-- FOXM1_TBL1XR1&#45;&gt;PLAGL1 -->
<g class="edge" id="edge4">
<a class="remove4 root" ismara:data="0.046" onmousemove="ShowTooltip(evt, 'PLAGL1: 0.046|TBL1XR1: 0.005')" onmouseout="HideTooltip(evt)">
<path d="M186.662,-42.8168C219.772,-100.165 300.182,-239.439 333.251,-296.716" fill="none" stroke="#e4abff" stroke-width="3"/>
<path d="M184.93,-43.8168C218.04,-101.165 298.45,-240.439 331.519,-297.716" fill="none" stroke="#edc8ff" stroke-width="3"/>
<polygon fill="#edc8ff" points="188.074,-41.6617 181.649,-36.1335 183.224,-44.4618 188.074,-41.6617" stroke="#edc8ff"/>
<polygon fill="#e4abff" points="330.12,-298.892 336.545,-304.421 334.969,-296.092 330.12,-298.892" stroke="#e4abff"/>
</a>
</g>
<!-- HNF1A_HNF1B -->
<g class="node" id="node6">
<a class="remove27" onmousemove="ShowTooltip(evt, 'Z-value: 0.567')" onmouseout="HideTooltip(evt)" xlink:href="HNF1A_HNF1B.svg">
<polygon fill="#a3acff" points="296.88,-387.559 233.88,-387.559 221.88,-375.559 221.88,-363.559 233.88,-351.559 296.88,-351.559 308.88,-363.559 308.88,-375.559 296.88,-387.559" stroke="#a3acff" stroke-width="2"/>
<path d="M233.88,-387.559C227.88,-387.559 221.88,-381.559 221.88,-375.559" fill="#a3acff" stroke="#a3acff" stroke-width="2"/>
<path d="M221.88,-363.559C221.88,-357.559 227.88,-351.559 233.88,-351.559" fill="#a3acff" stroke="#a3acff" stroke-width="2"/>
<path d="M296.88,-351.559C302.88,-351.559 308.88,-357.559 308.88,-363.559" fill="#a3acff" stroke="#a3acff" stroke-width="2"/>
<path d="M308.88,-375.559C308.88,-381.559 302.88,-387.559 296.88,-387.559" fill="#a3acff" stroke="#a3acff" stroke-width="2"/>
<polyline fill="none" points="296.88,-387.559 233.88,-387.559 " stroke="white" stroke-width="2"/>
<path d="M233.88,-387.559C227.88,-387.559 221.88,-381.559 221.88,-375.559" fill="none" stroke="white" stroke-width="2"/>
<polyline fill="none" points="221.88,-375.559 221.88,-363.559 " stroke="white" stroke-width="2"/>
<path d="M221.88,-363.559C221.88,-357.559 227.88,-351.559 233.88,-351.559" fill="none" stroke="white" stroke-width="2"/>
<polyline fill="none" points="233.88,-351.559 296.88,-351.559 " stroke="white" stroke-width="2"/>
<path d="M296.88,-351.559C302.88,-351.559 308.88,-357.559 308.88,-363.559" fill="none" stroke="white" stroke-width="2"/>
<polyline fill="none" points="308.88,-363.559 308.88,-375.559 " stroke="white" stroke-width="2"/>
<path d="M308.88,-375.559C308.88,-381.559 302.88,-387.559 296.88,-387.559" fill="none" stroke="white" stroke-width="2"/>
<text font-family="Helvetica,sans-Serif" font-size="10.00" text-anchor="middle" x="265.38" y="-367.059">HNF1A_HNF1B</text>
</a>
</g>
<!-- FOXM1_TBL1XR1&#45;&gt;HNF1A_HNF1B -->
<g class="edge" id="edge6">
<a class="remove5 root" ismara:data="0.052" onmousemove="ShowTooltip(evt, 'HNF1A: 0.052')" onmouseout="HideTooltip(evt)">
<path d="M170.331,-36.0338C169.176,-71.1516 169.003,-150.861 186.96,-214.66 200.661,-263.341 230.088,-314.747 248.742,-344.396" fill="none" stroke="#e2a7ff" stroke-width="3"/>
<polygon fill="#e2a7ff" points="246.576,-346.208 253.236,-351.45 251.299,-343.199 246.576,-346.208" stroke="#e2a7ff"/>
</a>
</g>
<!-- AR_NR3C2 -->
<g class="node" id="node8">
<a class="remove23" onmousemove="ShowTooltip(evt, 'Z-value: 0.484')" onmouseout="HideTooltip(evt)" xlink:href="AR_NR3C2.svg">
<polygon fill="#a9b1ff" points="193.43,-387.559 148.93,-387.559 136.93,-375.559 136.93,-363.559 148.93,-351.559 193.43,-351.559 205.43,-363.559 205.43,-375.559 193.43,-387.559" stroke="#a9b1ff" stroke-width="2"/>
<path d="M148.93,-387.559C142.93,-387.559 136.93,-381.559 136.93,-375.559" fill="#a9b1ff" stroke="#a9b1ff" stroke-width="2"/>
<path d="M136.93,-363.559C136.93,-357.559 142.93,-351.559 148.93,-351.559" fill="#a9b1ff" stroke="#a9b1ff" stroke-width="2"/>
<path d="M193.43,-351.559C199.43,-351.559 205.43,-357.559 205.43,-363.559" fill="#a9b1ff" stroke="#a9b1ff" stroke-width="2"/>
<path d="M205.43,-375.559C205.43,-381.559 199.43,-387.559 193.43,-387.559" fill="#a9b1ff" stroke="#a9b1ff" stroke-width="2"/>
<polyline fill="none" points="193.43,-387.559 148.93,-387.559 " stroke="white" stroke-width="2"/>
<path d="M148.93,-387.559C142.93,-387.559 136.93,-381.559 136.93,-375.559" fill="none" stroke="white" stroke-width="2"/>
<polyline fill="none" points="136.93,-375.559 136.93,-363.559 " stroke="white" stroke-width="2"/>
<path d="M136.93,-363.559C136.93,-357.559 142.93,-351.559 148.93,-351.559" fill="none" stroke="white" stroke-width="2"/>
<polyline fill="none" points="148.93,-351.559 193.43,-351.559 " stroke="white" stroke-width="2"/>
<path d="M193.43,-351.559C199.43,-351.559 205.43,-357.559 205.43,-363.559" fill="none" stroke="white" stroke-width="2"/>
<polyline fill="none" points="205.43,-363.559 205.43,-375.559 " stroke="white" stroke-width="2"/>
<path d="M205.43,-375.559C205.43,-381.559 199.43,-387.559 193.43,-387.559" fill="none" stroke="white" stroke-width="2"/>
<text font-family="Helvetica,sans-Serif" font-size="10.00" text-anchor="middle" x="171.18" y="-367.059">AR_NR3C2</text>
</a>
</g>
<!-- FOXM1_TBL1XR1&#45;&gt;AR_NR3C2 -->
<g class="edge" id="edge8">
<a class="remove3 root" ismara:data="0.042" onmousemove="ShowTooltip(evt, 'AR: 0.042')" onmouseout="HideTooltip(evt)">
<path d="M172.683,-36.3823C177.093,-90.6375 189.801,-249.537 191.68,-301.579 192.35,-320.127 197.726,-325.791 191.68,-343.339 191.558,-343.694 191.428,-344.048 191.292,-344.401" fill="none" stroke="#e5aeff" stroke-width="3"/>
<polygon fill="#e5aeff" points="188.782,-343.161 187.622,-351.557 193.764,-345.717 188.782,-343.161" stroke="#e5aeff"/>
</a>
</g>
<!-- HNF4G -->
<g class="node" id="node10">
<a class="remove28" onmousemove="ShowTooltip(evt, 'Z-value: 0.704')" onmouseout="HideTooltip(evt)" xlink:href="HNF4G.svg">
<polygon fill="#ff9999" points="233.28,-211.78 203.28,-211.78 191.28,-199.78 191.28,-187.78 203.28,-175.78 233.28,-175.78 245.28,-187.78 245.28,-199.78 233.28,-211.78" stroke="#ff9999" stroke-width="2"/>
<path d="M203.28,-211.78C197.28,-211.78 191.28,-205.78 191.28,-199.78" fill="#ff9999" stroke="#ff9999" stroke-width="2"/>
<path d="M191.28,-187.78C191.28,-181.78 197.28,-175.78 203.28,-175.78" fill="#ff9999" stroke="#ff9999" stroke-width="2"/>
<path d="M233.28,-175.78C239.28,-175.78 245.28,-181.78 245.28,-187.78" fill="#ff9999" stroke="#ff9999" stroke-width="2"/>
<path d="M245.28,-199.78C245.28,-205.78 239.28,-211.78 233.28,-211.78" fill="#ff9999" stroke="#ff9999" stroke-width="2"/>
<polyline fill="none" points="233.28,-211.78 203.28,-211.78 " stroke="white" stroke-width="2"/>
<path d="M203.28,-211.78C197.28,-211.78 191.28,-205.78 191.28,-199.78" fill="none" stroke="white" stroke-width="2"/>
<polyline fill="none" points="191.28,-199.78 191.28,-187.78 " stroke="white" stroke-width="2"/>
<path d="M191.28,-187.78C191.28,-181.78 197.28,-175.78 203.28,-175.78" fill="none" stroke="white" stroke-width="2"/>
<polyline fill="none" points="203.28,-175.78 233.28,-175.78 " stroke="white" stroke-width="2"/>
<path d="M233.28,-175.78C239.28,-175.78 245.28,-181.78 245.28,-187.78" fill="none" stroke="white" stroke-width="2"/>
<polyline fill="none" points="245.28,-187.78 245.28,-199.78 " stroke="white" stroke-width="2"/>
<path d="M245.28,-199.78C245.28,-205.78 239.28,-211.78 233.28,-211.78" fill="none" stroke="white" stroke-width="2"/>
<text font-family="Helvetica,sans-Serif" font-size="10.00" text-anchor="middle" x="218.28" y="-191.28">HNF4G</text>
</a>
</g>
<!-- FOXM1_TBL1XR1&#45;&gt;HNF4G -->
<g class="edge" id="edge10">
<a class="remove26 root" ismara:data="0.206" onmousemove="ShowTooltip(evt, 'HNF4G: 0.206')" onmouseout="HideTooltip(evt)">
<path d="M176.043,-36.1494C184.42,-67.4142 201.602,-131.54 211.271,-167.623" fill="none" stroke="#3a4eff" stroke-width="3"/>
<polygon fill="#3a4eff" points="208.668,-168.726 213.443,-175.729 214.077,-167.277 208.668,-168.726" stroke="#3a4eff"/>
</a>
</g>
<!-- NOTO_VSX2_DLX2_DLX6_NKX6&#45;1 -->
<g class="node" id="node12">
<a class="remove19" onmousemove="ShowTooltip(evt, 'Z-value: 0.431')" onmouseout="HideTooltip(evt)" xlink:href="NOTO_VSX2_DLX2_DLX6_NKX6-1.svg">
<polygon fill="#adb5ff" points="165.1,-340.459 14.1,-340.459 2.1,-328.459 2.1,-316.459 14.1,-304.459 165.1,-304.459 177.1,-316.459 177.1,-328.459 165.1,-340.459" stroke="#adb5ff" stroke-width="2"/>
<path d="M14.1,-340.459C8.1,-340.459 2.1,-334.459 2.1,-328.459" fill="#adb5ff" stroke="#adb5ff" stroke-width="2"/>
<path d="M2.1,-316.459C2.1,-310.459 8.1,-304.459 14.1,-304.459" fill="#adb5ff" stroke="#adb5ff" stroke-width="2"/>
<path d="M165.1,-304.459C171.1,-304.459 177.1,-310.459 177.1,-316.459" fill="#adb5ff" stroke="#adb5ff" stroke-width="2"/>
<path d="M177.1,-328.459C177.1,-334.459 171.1,-340.459 165.1,-340.459" fill="#adb5ff" stroke="#adb5ff" stroke-width="2"/>
<polyline fill="none" points="165.1,-340.459 14.1,-340.459 " stroke="white" stroke-width="2"/>
<path d="M14.1,-340.459C8.1,-340.459 2.1,-334.459 2.1,-328.459" fill="none" stroke="white" stroke-width="2"/>
<polyline fill="none" points="2.1,-328.459 2.1,-316.459 " stroke="white" stroke-width="2"/>
<path d="M2.1,-316.459C2.1,-310.459 8.1,-304.459 14.1,-304.459" fill="none" stroke="white" stroke-width="2"/>
<polyline fill="none" points="14.1,-304.459 165.1,-304.459 " stroke="white" stroke-width="2"/>
<path d="M165.1,-304.459C171.1,-304.459 177.1,-310.459 177.1,-316.459" fill="none" stroke="white" stroke-width="2"/>
<polyline fill="none" points="177.1,-316.459 177.1,-328.459 " stroke="white" stroke-width="2"/>
<path d="M177.1,-328.459C177.1,-334.459 171.1,-340.459 165.1,-340.459" fill="none" stroke="white" stroke-width="2"/>
<text font-family="Helvetica,sans-Serif" font-size="10.00" text-anchor="middle" x="89.6" y="-319.959">NOTO_VSX2_DLX2_DLX6_NKX6-1</text>
</a>
</g>
<!-- FOXM1_TBL1XR1&#45;&gt;NOTO_VSX2_DLX2_DLX6_NKX6&#45;1 -->
<g class="edge" id="edge12">
<a class="remove19" ismara:data="0.172" onmousemove="ShowTooltip(evt, 'DLX2: 0.172|NKX6-1: 0.155|VSX2: 0.088|DLX6: 0.064|NOTO: 0.031')" onmouseout="HideTooltip(evt)">
<path d="M166.321,-36.1335C152.463,-87.8519 112.707,-236.223 96.5513,-296.517" fill="none" stroke="#c752ff" stroke-width="3"/>
<polygon fill="#c752ff" points="93.7994,-295.969 94.4334,-304.421 99.2086,-297.418 93.7994,-295.969" stroke="#c752ff"/>
</a>
</g>
<!-- SREBF1_TFE3 -->
<g class="node" id="node14">
<a class="remove25" onmousemove="ShowTooltip(evt, 'Z-value: 0.439')" onmouseout="HideTooltip(evt)" xlink:href="SREBF1_TFE3.svg">
<polygon fill="#acb4ff" points="72.75,-258.88 12.25,-258.88 0.25,-246.88 0.25,-234.88 12.25,-222.88 72.75,-222.88 84.75,-234.88 84.75,-246.88 72.75,-258.88" stroke="#acb4ff" stroke-width="2"/>
<path d="M12.25,-258.88C6.25,-258.88 0.25,-252.88 0.25,-246.88" fill="#acb4ff" stroke="#acb4ff" stroke-width="2"/>
<path d="M0.25,-234.88C0.25,-228.88 6.25,-222.88 12.25,-222.88" fill="#acb4ff" stroke="#acb4ff" stroke-width="2"/>
<path d="M72.75,-222.88C78.75,-222.88 84.75,-228.88 84.75,-234.88" fill="#acb4ff" stroke="#acb4ff" stroke-width="2"/>
<path d="M84.75,-246.88C84.75,-252.88 78.75,-258.88 72.75,-258.88" fill="#acb4ff" stroke="#acb4ff" stroke-width="2"/>
<polyline fill="none" points="72.75,-258.88 12.25,-258.88 " stroke="white" stroke-width="2"/>
<path d="M12.25,-258.88C6.25,-258.88 0.25,-252.88 0.25,-246.88" fill="none" stroke="white" stroke-width="2"/>
<polyline fill="none" points="0.25,-246.88 0.25,-234.88 " stroke="white" stroke-width="2"/>
<path d="M0.25,-234.88C0.25,-228.88 6.25,-222.88 12.25,-222.88" fill="none" stroke="white" stroke-width="2"/>
<polyline fill="none" points="12.25,-222.88 72.75,-222.88 " stroke="white" stroke-width="2"/>
<path d="M72.75,-222.88C78.75,-222.88 84.75,-228.88 84.75,-234.88" fill="none" stroke="white" stroke-width="2"/>
<polyline fill="none" points="84.75,-234.88 84.75,-246.88 " stroke="white" stroke-width="2"/>
<path d="M84.75,-246.88C84.75,-252.88 78.75,-258.88 72.75,-258.88" fill="none" stroke="white" stroke-width="2"/>
<text font-family="Helvetica,sans-Serif" font-size="10.00" text-anchor="middle" x="42.5" y="-238.38">SREBF1_TFE3</text>
</a>
</g>
<!-- FOXM1_TBL1XR1&#45;&gt;SREBF1_TFE3 -->
<g class="edge" id="edge14">
<a class="remove12 root" ismara:data="0.083" onmousemove="ShowTooltip(evt, 'SREBF1: 0.083')" onmouseout="HideTooltip(evt)">
<path d="M160.649,-36.2392C137.735,-75.9277 83.3088,-170.197 57.0999,-215.592" fill="none" stroke="#db91ff" stroke-width="3"/>
<polygon fill="#db91ff" points="54.5706,-214.373 52.9954,-222.701 59.4204,-217.173 54.5706,-214.373" stroke="#db91ff"/>
</a>
</g>
<!-- SMAD4&#45;&gt;NOTO_VSX2_DLX2_DLX6_NKX6&#45;1 -->
<g class="edge" id="edge16">
<a class="remove19" ismara:data="0.197" onmousemove="ShowTooltip(evt, 'DLX2: 0.197')" onmouseout="HideTooltip(evt)">
<path d="M367.04,-248.119C322.079,-260.167 230.363,-284.742 164.686,-302.34" fill="none" stroke="#c241ff" stroke-width="3"/>
<polygon fill="#c241ff" points="163.814,-299.675 156.811,-304.45 165.263,-305.084 163.814,-299.675" stroke="#c241ff"/>
</a>
</g>
<!-- PLAGL1&#45;&gt;SMAD4 -->
<g class="edge" id="edge20">
<a class="remove14 root" ismara:data="0.093" onmousemove="ShowTooltip(evt, 'SMAD4: 0.093')" onmouseout="HideTooltip(evt)">
<path d="M357.412,-304.354C363.937,-293.053 372.428,-278.345 379.594,-265.934" fill="none" stroke="#d98aff" stroke-width="3"/>
<polygon fill="#d98aff" points="382.06,-267.262 383.635,-258.934 377.21,-264.462 382.06,-267.262" stroke="#d98aff"/>
</a>
</g>
<!-- PLAGL1&#45;&gt;PLAGL1 -->
<g class="edge" id="edge22">
<a class="remove22" ismara:data="0.151" onmousemove="ShowTooltip(evt, 'PLAGL1: 0.151')" onmouseout="HideTooltip(evt)">
<path d="M374.2,-329.203C383.983,-329.348 391.959,-327.1 391.959,-322.459 391.959,-319.196 388.016,-317.116 382.274,-316.219" fill="none" stroke="#cc61ff" stroke-width="3"/>
<polygon fill="#cc61ff" points="382.359,-313.419 374.2,-315.716 382.01,-319.008 382.359,-313.419" stroke="#cc61ff"/>
</a>
</g>
<!-- PLAGL1&#45;&gt;HNF1A_HNF1B -->
<g class="edge" id="edge24">
<a class="remove0 root" ismara:data="0.019" onmousemove="ShowTooltip(evt, 'HNF1A: 0.019')" onmouseout="HideTooltip(evt)">
<path d="M319.794,-338.143C314.696,-341.086 309.276,-344.215 303.909,-347.314" fill="none" stroke="#eabeff" stroke-width="3"/>
<polygon fill="#eabeff" points="302.186,-345.076 296.658,-351.501 304.986,-349.925 302.186,-345.076" stroke="#eabeff"/>
</a>
</g>
<!-- PLAGL1&#45;&gt;AR_NR3C2 -->
<g class="edge" id="edge26">
<a class="remove22" ismara:data="0.145" onmousemove="ShowTooltip(evt, 'NR3C2: 0.145')" onmouseout="HideTooltip(evt)">
<path d="M319.766,-325.764C292.585,-329.546 249.84,-336.801 214.34,-348.679 213.984,-348.798 213.628,-348.919 213.272,-349.042" fill="none" stroke="#ce66ff" stroke-width="3"/>
<polygon fill="#ce66ff" points="212.208,-346.451 205.723,-351.908 214.196,-351.686 212.208,-346.451" stroke="#ce66ff"/>
</a>
</g>
<!-- PLAGL1&#45;&gt;NOTO_VSX2_DLX2_DLX6_NKX6&#45;1 -->
<g class="edge" id="edge30">
<a class="remove7 root" ismara:data="0.061" onmousemove="ShowTooltip(evt, 'NKX6-1: 0.061')" onmouseout="HideTooltip(evt)">
<path d="M319.904,-322.459C288.123,-322.459 233.638,-322.459 185.64,-322.459" fill="none" stroke="#e0a1ff" stroke-width="3"/>
<polygon fill="#e0a1ff" points="185.381,-319.659 177.381,-322.459 185.38,-325.259 185.381,-319.659" stroke="#e0a1ff"/>
</a>
</g>
<!-- PLAGL1&#45;&gt;SREBF1_TFE3 -->
<g class="edge" id="edge32">
<a class="remove10 root" ismara:data="0.081" onmousemove="ShowTooltip(evt, 'SREBF1: 0.081')" onmouseout="HideTooltip(evt)">
<path d="M319.94,-315.22C269,-301.57 158.041,-271.839 92.935,-254.394" fill="none" stroke="#dc92ff" stroke-width="3"/>
<polygon fill="#dc92ff" points="93.2934,-251.591 84.8412,-252.225 91.8439,-257 93.2934,-251.591" stroke="#dc92ff"/>
</a>
</g>
<!-- NFE2L1 -->
<g class="node" id="node17">
<a class="remove24" onmousemove="ShowTooltip(evt, 'Z-value: 0.797')" onmouseout="HideTooltip(evt)" xlink:href="NFE2L1.svg">
<polygon fill="#939dff" points="280.38,-36 250.38,-36 238.38,-24 238.38,-12 250.38,3.19744e-14 280.38,3.19744e-14 292.38,-12 292.38,-24 280.38,-36" stroke="#939dff" stroke-width="2"/>
<path d="M250.38,-36C244.38,-36 238.38,-30 238.38,-24" fill="#939dff" stroke="#939dff" stroke-width="2"/>
<path d="M238.38,-12C238.38,-6 244.38,3.19744e-14 250.38,3.19744e-14" fill="#939dff" stroke="#939dff" stroke-width="2"/>
<path d="M280.38,3.19744e-14C286.38,3.19744e-14 292.38,-6 292.38,-12" fill="#939dff" stroke="#939dff" stroke-width="2"/>
<path d="M292.38,-24C292.38,-30 286.38,-36 280.38,-36" fill="#939dff" stroke="#939dff" stroke-width="2"/>
<polyline fill="none" points="280.38,-36 250.38,-36 " stroke="white" stroke-width="2"/>
<path d="M250.38,-36C244.38,-36 238.38,-30 238.38,-24" fill="none" stroke="white" stroke-width="2"/>
<polyline fill="none" points="238.38,-24 238.38,-12 " stroke="white" stroke-width="2"/>
<path d="M238.38,-12C238.38,-6 244.38,3.19744e-14 250.38,3.19744e-14" fill="none" stroke="white" stroke-width="2"/>
<polyline fill="none" points="250.38,3.19744e-14 280.38,3.19744e-14 " stroke="white" stroke-width="2"/>
<path d="M280.38,3.19744e-14C286.38,3.19744e-14 292.38,-6 292.38,-12" fill="none" stroke="white" stroke-width="2"/>
<polyline fill="none" points="292.38,-12 292.38,-24 " stroke="white" stroke-width="2"/>
<path d="M292.38,-24C292.38,-30 286.38,-36 280.38,-36" fill="none" stroke="white" stroke-width="2"/>
<text font-family="Helvetica,sans-Serif" font-size="10.00" text-anchor="middle" x="265.38" y="-15.5">NFE2L1</text>
</a>
</g>
<!-- PLAGL1&#45;&gt;NFE2L1 -->
<g class="edge" id="edge18">
<a class="remove6 root" ismara:data="0.056" onmousemove="ShowTooltip(evt, 'NFE2L1: 0.056')" onmouseout="HideTooltip(evt)">
<path d="M342.1,-304.326C328.242,-252.607 288.487,-104.236 272.331,-43.9425" fill="none" stroke="#e2a4ff" stroke-width="3"/>
<polygon fill="#e2a4ff" points="274.988,-43.0412 270.213,-36.0385 269.579,-44.4906 274.988,-43.0412" stroke="#e2a4ff"/>
</a>
</g>
<!-- POU3F2 -->
<g class="node" id="node23">
<a class="remove21" onmousemove="ShowTooltip(evt, 'Z-value: 0.954')" onmouseout="HideTooltip(evt)" xlink:href="POU3F2.svg">
<polygon fill="#8793ff" points="362.209,-83.1 331.709,-83.1 319.709,-71.1 319.709,-59.1 331.709,-47.1 362.209,-47.1 374.209,-59.1 374.209,-71.1 362.209,-83.1" stroke="#8793ff" stroke-width="2"/>
<path d="M331.709,-83.1C325.709,-83.1 319.709,-77.1 319.709,-71.1" fill="#8793ff" stroke="#8793ff" stroke-width="2"/>
<path d="M319.709,-59.1C319.709,-53.1 325.709,-47.1 331.709,-47.1" fill="#8793ff" stroke="#8793ff" stroke-width="2"/>
<path d="M362.209,-47.1C368.209,-47.1 374.209,-53.1 374.209,-59.1" fill="#8793ff" stroke="#8793ff" stroke-width="2"/>
<path d="M374.209,-71.1C374.209,-77.1 368.209,-83.1 362.209,-83.1" fill="#8793ff" stroke="#8793ff" stroke-width="2"/>
<polyline fill="none" points="362.209,-83.1 331.709,-83.1 " stroke="white" stroke-width="2"/>
<path d="M331.709,-83.1C325.709,-83.1 319.709,-77.1 319.709,-71.1" fill="none" stroke="white" stroke-width="2"/>
<polyline fill="none" points="319.709,-71.1 319.709,-59.1 " stroke="white" stroke-width="2"/>
<path d="M319.709,-59.1C319.709,-53.1 325.709,-47.1 331.709,-47.1" fill="none" stroke="white" stroke-width="2"/>
<polyline fill="none" points="331.709,-47.1 362.209,-47.1 " stroke="white" stroke-width="2"/>
<path d="M362.209,-47.1C368.209,-47.1 374.209,-53.1 374.209,-59.1" fill="none" stroke="white" stroke-width="2"/>
<polyline fill="none" points="374.209,-59.1 374.209,-71.1 " stroke="white" stroke-width="2"/>
<path d="M374.209,-71.1C374.209,-77.1 368.209,-83.1 362.209,-83.1" fill="none" stroke="white" stroke-width="2"/>
<text font-family="Helvetica,sans-Serif" font-size="10.00" text-anchor="middle" x="346.959" y="-62.6">POU3F2</text>
</a>
</g>
<!-- PLAGL1&#45;&gt;POU3F2 -->
<g class="edge" id="edge28">
<a class="remove15 root" ismara:data="0.112" onmousemove="ShowTooltip(evt, 'POU3F2: 0.112')" onmouseout="HideTooltip(evt)">
<path d="M344.057,-304.261C338.922,-269.516 329.335,-191.348 335.479,-125.8 336.545,-114.425 338.712,-102.007 340.879,-91.3825" fill="none" stroke="#d57dff" stroke-width="3"/>
<polygon fill="#d57dff" points="343.672,-91.7084 342.595,-83.3012 338.194,-90.5448 343.672,-91.7084" stroke="#d57dff"/>
</a>
</g>
<!-- HIVEP1 -->
<g class="node" id="node27">
<a class="remove18" onmousemove="ShowTooltip(evt, 'Z-value: 0.599')" onmouseout="HideTooltip(evt)" xlink:href="HIVEP1.svg">
<polygon fill="#a1aaff" points="57.5,-164.68 27.5,-164.68 15.5,-152.68 15.5,-140.68 27.5,-128.68 57.5,-128.68 69.5,-140.68 69.5,-152.68 57.5,-164.68" stroke="#a1aaff" stroke-width="2"/>
<path d="M27.5,-164.68C21.5,-164.68 15.5,-158.68 15.5,-152.68" fill="#a1aaff" stroke="#a1aaff" stroke-width="2"/>
<path d="M15.5,-140.68C15.5,-134.68 21.5,-128.68 27.5,-128.68" fill="#a1aaff" stroke="#a1aaff" stroke-width="2"/>
<path d="M57.5,-128.68C63.5,-128.68 69.5,-134.68 69.5,-140.68" fill="#a1aaff" stroke="#a1aaff" stroke-width="2"/>
<path d="M69.5,-152.68C69.5,-158.68 63.5,-164.68 57.5,-164.68" fill="#a1aaff" stroke="#a1aaff" stroke-width="2"/>
<polyline fill="none" points="57.5,-164.68 27.5,-164.68 " stroke="white" stroke-width="2"/>
<path d="M27.5,-164.68C21.5,-164.68 15.5,-158.68 15.5,-152.68" fill="none" stroke="white" stroke-width="2"/>
<polyline fill="none" points="15.5,-152.68 15.5,-140.68 " stroke="white" stroke-width="2"/>
<path d="M15.5,-140.68C15.5,-134.68 21.5,-128.68 27.5,-128.68" fill="none" stroke="white" stroke-width="2"/>
<polyline fill="none" points="27.5,-128.68 57.5,-128.68 " stroke="white" stroke-width="2"/>
<path d="M57.5,-128.68C63.5,-128.68 69.5,-134.68 69.5,-140.68" fill="none" stroke="white" stroke-width="2"/>
<polyline fill="none" points="69.5,-140.68 69.5,-152.68 " stroke="white" stroke-width="2"/>
<path d="M69.5,-152.68C69.5,-158.68 63.5,-164.68 57.5,-164.68" fill="none" stroke="white" stroke-width="2"/>
<text font-family="Helvetica,sans-Serif" font-size="10.00" text-anchor="middle" x="42.5" y="-144.18">HIVEP1</text>
</a>
</g>
<!-- PLAGL1&#45;&gt;HIVEP1 -->
<g class="edge" id="edge34">
<a class="remove13 root" ismara:data="0.085" onmousemove="ShowTooltip(evt, 'HIVEP1: 0.085')" onmouseout="HideTooltip(evt)">
<path d="M319.94,-306.86C264.561,-274.886 138.247,-201.959 77.0295,-166.615" fill="none" stroke="#db90ff" stroke-width="3"/>
<polygon fill="#db90ff" points="78.2241,-164.072 69.8958,-162.497 75.424,-168.922 78.2241,-164.072" stroke="#db90ff"/>
</a>
</g>
<!-- HNF4G&#45;&gt;SMAD4 -->
<g class="edge" id="edge36">
<a class="remove20 root" ismara:data="0.131" onmousemove="ShowTooltip(evt, 'SMAD4: 0.131')" onmouseout="HideTooltip(evt)">
<path d="M245.36,-201.036C275.812,-209.195 325.366,-222.473 358.813,-231.435" fill="none" stroke="#ff6f6f" stroke-width="3"/>
<polygon fill="#ff6f6f" points="358.496,-234.249 366.948,-233.615 359.945,-228.84 358.496,-234.249" stroke="#ff6f6f"/>
</a>
</g>
<!-- HNF4G&#45;&gt;PLAGL1 -->
<g class="edge" id="edge40">
<a class="remove22 root" ismara:data="0.14" onmousemove="ShowTooltip(evt, 'PLAGL1: 0.140')" onmouseout="HideTooltip(evt)">
<path d="M236.443,-211.943C259.148,-234.648 298.067,-273.567 323.14,-298.64" fill="none" stroke="#ff6969" stroke-width="3"/>
<polygon fill="#ff6969" points="321.251,-300.711 328.888,-304.388 325.211,-296.751 321.251,-300.711" stroke="#ff6969"/>
</a>
</g>
<!-- HNF4G&#45;&gt;HNF1A_HNF1B -->
<g class="edge" id="edge42">
<a class="remove27 root" ismara:data="0.217" onmousemove="ShowTooltip(evt, 'HNF1A: 0.217|HNF1B: 0.133')" onmouseout="HideTooltip(evt)">
<path d="M223.143,-211.929C231.52,-243.194 248.702,-307.319 258.371,-343.402" fill="none" stroke="#ff3232" stroke-width="3"/>
<polygon fill="#ff3232" points="255.768,-344.506 260.543,-351.508 261.177,-343.056 255.768,-344.506" stroke="#ff3232"/>
</a>
</g>
<!-- HNF4G&#45;&gt;AR_NR3C2 -->
<g class="edge" id="edge44">
<a class="remove23 root" ismara:data="0.156" onmousemove="ShowTooltip(evt, 'AR: 0.156')" onmouseout="HideTooltip(evt)">
<path d="M217.844,-212.101C216.546,-241.151 211.458,-299.027 191.68,-343.339 191.527,-343.682 191.368,-344.025 191.205,-344.366" fill="none" stroke="#ff5e5e" stroke-width="3"/>
<polygon fill="#ff5e5e" points="188.734,-343.045 187.153,-351.372 193.582,-345.849 188.734,-343.045" stroke="#ff5e5e"/>
</a>
</g>
<!-- HNF4G&#45;&gt;NOTO_VSX2_DLX2_DLX6_NKX6&#45;1 -->
<g class="edge" id="edge46">
<a class="remove19 root" ismara:data="0.117" onmousemove="ShowTooltip(evt, 'VSX2: 0.117')" onmouseout="HideTooltip(evt)">
<path d="M200.116,-211.943C177.411,-234.648 138.493,-273.567 113.419,-298.64" fill="none" stroke="#ff7979" stroke-width="3"/>
<polygon fill="#ff7979" points="111.348,-296.751 107.671,-304.388 115.308,-300.711 111.348,-296.751" stroke="#ff7979"/>
</a>
</g>
<!-- HNF4G&#45;&gt;SREBF1_TFE3 -->
<g class="edge" id="edge48">
<a class="remove25 root" ismara:data="0.199" onmousemove="ShowTooltip(evt, 'SREBF1: 0.199')" onmouseout="HideTooltip(evt)">
<path d="M191.199,-201.036C165.098,-208.03 124.962,-218.784 92.9642,-227.358" fill="none" stroke="#ff3f3f" stroke-width="3"/>
<polygon fill="#ff3f3f" points="92.0207,-224.712 85.0181,-229.487 93.4702,-230.121 92.0207,-224.712" stroke="#ff3f3f"/>
</a>
</g>
<!-- HNF4G&#45;&gt;HIVEP1 -->
<g class="edge" id="edge50">
<a class="remove18 root" ismara:data="0.115" onmousemove="ShowTooltip(evt, 'HIVEP1: 0.115')" onmouseout="HideTooltip(evt)">
<path d="M191.199,-186.523C160.748,-178.364 111.194,-165.086 77.7462,-156.124" fill="none" stroke="#ff7a7a" stroke-width="3"/>
<polygon fill="#ff7a7a" points="78.0632,-153.31 69.6111,-153.944 76.6138,-158.719 78.0632,-153.31" stroke="#ff7a7a"/>
</a>
</g>
<!-- PBX1 -->
<g class="node" id="node30">
<a class="remove17" onmousemove="ShowTooltip(evt, 'Z-value: 0.480')" onmouseout="HideTooltip(evt)" xlink:href="PBX1.svg">
<polygon fill="#a9b2ff" points="104.6,-83.1 74.6,-83.1 62.6,-71.1 62.6,-59.1 74.6,-47.1 104.6,-47.1 116.6,-59.1 116.6,-71.1 104.6,-83.1" stroke="#a9b2ff" stroke-width="2"/>
<path d="M74.6,-83.1C68.6,-83.1 62.6,-77.1 62.6,-71.1" fill="#a9b2ff" stroke="#a9b2ff" stroke-width="2"/>
<path d="M62.6,-59.1C62.6,-53.1 68.6,-47.1 74.6,-47.1" fill="#a9b2ff" stroke="#a9b2ff" stroke-width="2"/>
<path d="M104.6,-47.1C110.6,-47.1 116.6,-53.1 116.6,-59.1" fill="#a9b2ff" stroke="#a9b2ff" stroke-width="2"/>
<path d="M116.6,-71.1C116.6,-77.1 110.6,-83.1 104.6,-83.1" fill="#a9b2ff" stroke="#a9b2ff" stroke-width="2"/>
<polyline fill="none" points="104.6,-83.1 74.6,-83.1 " stroke="white" stroke-width="2"/>
<path d="M74.6,-83.1C68.6,-83.1 62.6,-77.1 62.6,-71.1" fill="none" stroke="white" stroke-width="2"/>
<polyline fill="none" points="62.6,-71.1 62.6,-59.1 " stroke="white" stroke-width="2"/>
<path d="M62.6,-59.1C62.6,-53.1 68.6,-47.1 74.6,-47.1" fill="none" stroke="white" stroke-width="2"/>
<polyline fill="none" points="74.6,-47.1 104.6,-47.1 " stroke="white" stroke-width="2"/>
<path d="M104.6,-47.1C110.6,-47.1 116.6,-53.1 116.6,-59.1" fill="none" stroke="white" stroke-width="2"/>
<polyline fill="none" points="116.6,-59.1 116.6,-71.1 " stroke="white" stroke-width="2"/>
<path d="M116.6,-71.1C116.6,-77.1 110.6,-83.1 104.6,-83.1" fill="none" stroke="white" stroke-width="2"/>
<text font-family="Helvetica,sans-Serif" font-size="10.00" text-anchor="middle" x="89.6" y="-62.6">PBX1</text>
</a>
</g>
<!-- HNF4G&#45;&gt;PBX1 -->
<g class="edge" id="edge38">
<a class="remove17 root" ismara:data="0.114" onmousemove="ShowTooltip(evt, 'PBX1: 0.114')" onmouseout="HideTooltip(evt)">
<path d="M200.116,-175.616C177.411,-152.911 138.493,-113.993 113.419,-88.9192" fill="none" stroke="#ff7b7b" stroke-width="3"/>
<polygon fill="#ff7b7b" points="115.308,-86.8483 107.671,-83.1713 111.348,-90.8081 115.308,-86.8483" stroke="#ff7b7b"/>
</a>
</g>
<!-- NOTO_VSX2_DLX2_DLX6_NKX6&#45;1&#45;&gt;NFE2L1 -->
<g class="edge" id="edge54">
<a class="remove8 root" ismara:data="0.073" onmousemove="ShowTooltip(evt, 'NFE2L1: 0.025|DLX6: 0.073')" onmouseout="HideTooltip(evt)">
<path d="M103.351,-296.642C136.461,-239.294 216.87,-100.021 249.94,-42.7428" fill="none" stroke="#e8baff" stroke-width="3"/>
<path d="M105.083,-297.642C138.193,-240.294 218.602,-101.021 251.672,-43.7428" fill="none" stroke="#de98ff" stroke-width="3"/>
<polygon fill="#de98ff" points="101.645,-295.997 100.069,-304.326 106.494,-298.797 101.645,-295.997" stroke="#de98ff"/>
<polygon fill="#e8baff" points="253.39,-44.3667 254.965,-36.0385 248.54,-41.5667 253.39,-44.3667" stroke="#e8baff"/>
</a>
</g>
<!-- HOXD11_HOXA11 -->
<g class="node" id="node38">
<a class="remove16" onmousemove="ShowTooltip(evt, 'Z-value: 0.598')" onmouseout="HideTooltip(evt)" xlink:href="HOXD11_HOXA11.svg">
<polygon fill="#a1aaff" points="432.309,-164.68 355.809,-164.68 343.809,-152.68 343.809,-140.68 355.809,-128.68 432.309,-128.68 444.309,-140.68 444.309,-152.68 432.309,-164.68" stroke="#a1aaff" stroke-width="2"/>
<path d="M355.809,-164.68C349.809,-164.68 343.809,-158.68 343.809,-152.68" fill="#a1aaff" stroke="#a1aaff" stroke-width="2"/>
<path d="M343.809,-140.68C343.809,-134.68 349.809,-128.68 355.809,-128.68" fill="#a1aaff" stroke="#a1aaff" stroke-width="2"/>
<path d="M432.309,-128.68C438.309,-128.68 444.309,-134.68 444.309,-140.68" fill="#a1aaff" stroke="#a1aaff" stroke-width="2"/>
<path d="M444.309,-152.68C444.309,-158.68 438.309,-164.68 432.309,-164.68" fill="#a1aaff" stroke="#a1aaff" stroke-width="2"/>
<polyline fill="none" points="432.309,-164.68 355.809,-164.68 " stroke="white" stroke-width="2"/>
<path d="M355.809,-164.68C349.809,-164.68 343.809,-158.68 343.809,-152.68" fill="none" stroke="white" stroke-width="2"/>
<polyline fill="none" points="343.809,-152.68 343.809,-140.68 " stroke="white" stroke-width="2"/>
<path d="M343.809,-140.68C343.809,-134.68 349.809,-128.68 355.809,-128.68" fill="none" stroke="white" stroke-width="2"/>
<polyline fill="none" points="355.809,-128.68 432.309,-128.68 " stroke="white" stroke-width="2"/>
<path d="M432.309,-128.68C438.309,-128.68 444.309,-134.68 444.309,-140.68" fill="none" stroke="white" stroke-width="2"/>
<polyline fill="none" points="444.309,-140.68 444.309,-152.68 " stroke="white" stroke-width="2"/>
<path d="M444.309,-152.68C444.309,-158.68 438.309,-164.68 432.309,-164.68" fill="none" stroke="white" stroke-width="2"/>
<text font-family="Helvetica,sans-Serif" font-size="10.00" text-anchor="middle" x="394.059" y="-144.18">HOXD11_HOXA11</text>
</a>
</g>
<!-- SREBF1_TFE3&#45;&gt;HOXD11_HOXA11 -->
<g class="edge" id="edge52">
<a class="remove11 root" ismara:data="0.082" onmousemove="ShowTooltip(evt, 'HOXD11: 0.082')" onmouseout="HideTooltip(evt)">
<path d="M73.5036,-222.778C102.02,-206.995 145.971,-184.814 186.96,-172.9 235.736,-158.721 293.18,-152.209 335.18,-149.218" fill="none" stroke="#dc92ff" stroke-width="3"/>
<polygon fill="#dc92ff" points="335.574,-151.998 343.367,-148.665 335.197,-146.41 335.574,-151.998" stroke="#dc92ff"/>
</a>
</g>
<!-- NFE2L1&#45;&gt;HNF4G -->
<g class="edge" id="edge58">
<a class="remove24 root" ismara:data="0.195" onmousemove="ShowTooltip(evt, 'HNF4G: 0.195')" onmouseout="HideTooltip(evt)">
<path d="M260.516,-36.1494C252.139,-67.4142 234.957,-131.54 225.288,-167.623" fill="none" stroke="#4255ff" stroke-width="3"/>
<polygon fill="#4255ff" points="222.482,-167.277 223.116,-175.729 227.891,-168.726 222.482,-167.277" stroke="#4255ff"/>
</a>
</g>
<!-- POU3F2&#45;&gt;HNF4G -->
<g class="edge" id="edge56">
<a class="remove21 root" ismara:data="0.139" onmousemove="ShowTooltip(evt, 'HNF4G: 0.139')" onmouseout="HideTooltip(evt)">
<path d="M328.795,-83.2637C306.091,-105.968 267.172,-144.887 242.099,-169.96" fill="none" stroke="#6978ff" stroke-width="3"/>
<polygon fill="#6978ff" points="240.028,-168.071 236.351,-175.708 243.988,-172.031 240.028,-168.071" stroke="#6978ff"/>
</a>
</g>
<!-- PBX1&#45;&gt;NFE2L1 -->
<g class="edge" id="edge60">
<a class="remove2 root" ismara:data="0.025" onmousemove="ShowTooltip(evt, 'NFE2L1: 0.025')" onmouseout="HideTooltip(evt)">
<path d="M116.819,-62.5624C145.24,-59.3144 190.778,-52.4079 228.02,-38.88 228.858,-38.5756 229.699,-38.2538 230.542,-37.917" fill="none" stroke="#e9baff" stroke-width="3"/>
<polygon fill="#e9baff" points="231.942,-40.3586 238.106,-34.5415 229.66,-35.2447 231.942,-40.3586" stroke="#e9baff"/>
</a>
</g>
<!-- HOXD11_HOXA11&#45;&gt;HNF4G -->
<g class="edge" id="edge62">
<a class="remove16 root" ismara:data="0.112" onmousemove="ShowTooltip(evt, 'HNF4G: 0.112')" onmouseout="HideTooltip(evt)">
<path d="M343.688,-160.177C314.943,-167.879 279.608,-177.347 253.778,-184.268" fill="none" stroke="#7c89ff" stroke-width="3"/>
<polygon fill="#7c89ff" points="252.749,-181.645 245.747,-186.42 254.199,-187.054 252.749,-181.645" stroke="#7c89ff"/>
</a>
</g>
<!-- HOXD11_HOXA11&#45;&gt;NOTO_VSX2_DLX2_DLX6_NKX6&#45;1 -->
<g class="edge" id="edge64">
<a class="remove1 root" ismara:data="0.019" onmousemove="ShowTooltip(evt, 'DLX6: 0.019')" onmouseout="HideTooltip(evt)">
<path d="M362.623,-164.829C306.415,-197.281 188.885,-265.137 128.001,-300.288" fill="none" stroke="#eabeff" stroke-width="3"/>
<polygon fill="#eabeff" points="126.393,-297.984 120.865,-304.408 129.193,-302.833 126.393,-297.984" stroke="#eabeff"/>
</a>
</g>
</g>
<rect height="14" id="tooltip_bg" style="fill: white; stroke: black; opacity: 0.8;" visibility="hidden"/><text id="tooltip" style="font-size: 10px;font-weight: bold;" visibility="hidden"></text><g id="plus" onclick="showSome();moveSlider();setThreshold();"><circle cx="22" cy="22" r="10" style="fill: #dddddd; opacity: 100%;"/><line stroke="#888888" stroke-width="2" x1="16" x2="28" y1="22" y2="22"/><line stroke="#888888" stroke-width="2" x1="22" x2="22" y1="16" y2="28"/></g><g id="minus" onclick="hideSome();moveSlider();setThreshold();"><circle cx="22" cy="374" r="10" style="fill: #dddddd; opacity: 100%;"/><line stroke="#888888" stroke-width="2" x1="16" x2="28" y1="374" y2="374"/></g><line id="slider_scale" onmousedown="jump_slider(evt)" stroke="#888888" stroke-width="5" x1="22" x2="22" y1="40" y2="356"/><circle cx="22" cy="50" id="slider" onmousedown="grab(evt)" onmouseout="release(evt)" onmouseup="release(evt)" r="15" style="fill:#922"/><script type="text/ecmascript"><![CDATA[
    var svgNS = "http://www.w3.org/2000/svg";
    var edge_num = 28;
    var counter = 0;
    var tooltip, tooltip_bg;

    function init(evt) {
        if ( window.svgDocument == null ) {
            svgDocument = evt.target.ownerDocument;
        }
        tooltip = svgDocument.getElementById('tooltip');
        tooltip_bg = svgDocument.getElementById('tooltip_bg');
        setThreshold();
    }

    function ShowTooltip(evt, txt) {
        var length = 0;
        var height;
        var tooltip_x = evt.pageX + 18;
        var tooltip_y = evt.pageY + 22;
        var bg_x = evt.pageX + 10;
        var bg_y = evt.pageY + 10;

        /* Clean toolip content */
        while (tooltip.lastChild) {
            tooltip.removeChild(tooltip.lastChild)
        }

        /* Populate tooltip with tspan elements and get longest of them */
        var text_elements = txt.split('|');
        for (var i = 0; i  < text_elements.length; i++) {
            var shift_y = 12;
            if (i == 0) {
                shift_y = 0;
            }
            var tspan_element = document.createElementNS(svgNS, "tspan");
            tspan_element.setAttributeNS(null, "dy", shift_y);
            tspan_element.setAttributeNS(null, "x", tooltip_x);
            var text_node = svgDocument.createTextNode(text_elements[i]);
            tspan_element.appendChild(text_node);
            tooltip.appendChild(tspan_element);
            var tspan_length = tspan_element.getComputedTextLength();
            if (tspan_length > length) {
                length = tspan_length
            }
        }
        /* add right margin to tooltip */
        length = length + 15;
        height = 12 * text_elements.length + 5;
        tooltip_bg.setAttributeNS(null,"width",length);
        tooltip_bg.setAttributeNS(null,"height",height);
        tooltip_bg.setAttributeNS(null,"x", bg_x);
        tooltip_bg.setAttributeNS(null,"y", bg_y);
        tooltip_bg.setAttributeNS(null,"visibility","visible");
        tooltip.setAttributeNS(null,"x", tooltip_x);
        tooltip.setAttributeNS(null,"y", tooltip_y);
        tooltip.setAttributeNS(null,"visibility","visible");
    }
    function HideTooltip() {
      tooltip.setAttributeNS(null,"visibility","hidden");
      tooltip_bg.setAttributeNS(null,"visibility","hidden");
    }

    /*** Hide/Show edges functions ***/

    function hideSome() {
      if (counter >= edge_num -1) {
        return 1;
      }
      var elements = svgDocument.getElementsByClassName('remove' + counter);
      for (var i = 0; i < elements.length; i++) {
        elements[i].setAttributeNS(null,"visibility","hidden");
      }
      counter = counter + 1;
    }

    function showSome() {
      if (counter <= 0) {
        return 1;
      }
      counter = counter - 1;
      var elements = svgDocument.getElementsByClassName('remove' + counter);
      for (var i = 0; i < elements.length; i++) {
        elements[i].setAttributeNS(null,"visibility","visible");
      }
    }

    function setThreshold() {
        var elements = svgDocument.getElementsByClassName('remove' + counter);
        var score = 0;
        for (var i = 0; i < elements.length; i++) {
            if (elements[i].classList.contains("root")){
                if (elements[i].hasAttributeNS("ismara.unibas.ch", "data")) {
                    score = elements[i].getAttributeNS("ismara.unibas.ch", "data");
                }
            } 
        }
        svgDocument.getElementById("score_indicator").textContent = "Score threshold: " + score;
    }

    /*** Slider functions ***/

    var slider_maxY = parseInt(document.getElementById("slider_scale").getAttributeNS(null, "y2"));
    var slider_minY = parseInt(document.getElementById("slider_scale").getAttributeNS(null, "y1"));
    var slider_r = parseInt(document.getElementById("slider").getAttributeNS(null, "r"));
    var coef = (edge_num - 1) / (slider_maxY - slider_minY - 2 * slider_r);

    function grab(evt){
        var element = evt.target;
        var Attr = {"onmousemove":"slide(evt,'"+element.id+"')"};
        assignAttr(element, Attr);
    }

    function release(evt){
        var element = evt.target;
        var Attr = {"onmousemove":null};
        assignAttr(element, Attr);
    }

    function assignAttr(obj,attr){
        for (i in attr) obj.setAttributeNS(null,i, attr[i]);
    }

    function slide(evt,id){
        var slider = evt.target;
        var y = evt.pageY;
        var new_counter = Math.floor((evt.pageY - slider_minY - slider_r) * coef);
        if (evt.pageY > (slider_maxY - slider_r)) {
            slider.setAttributeNS(null, "cy", (slider_maxY - slider_r));
            new_counter = edge_num;
        } else if(evt.pageY < (slider_minY + slider_r)) {
            slider.setAttributeNS(null, "cy", (slider_minY + slider_r));
            new_counter = 1;
        } else {
            slider.setAttributeNS(null, "cy", evt.pageY);
        }

        if (new_counter < counter) {
                showSome();
            counter = new_counter;
        }
        if (new_counter > counter) {
                hideSome();
            counter = new_counter;
        }
        setThreshold();
    }

    function moveSlider() {
        circle = document.getElementById("slider");
        circle.setAttributeNS(null, "cy",  slider_minY +  slider_r + (counter) / coef);
    }

    function jump_slider(evt) {
        var slider = document.getElementById("slider");
        var new_counter = Math.floor((evt.pageY - slider_minY - slider_r) * coef);
        if (evt.pageY > (slider_maxY - slider_r)) {
            slider.setAttributeNS(null, "cy", (slider_maxY - slider_r));
            new_counter = edge_num;
        } else if(evt.pageY < (slider_minY + slider_r)) {
             slider.setAttributeNS(null, "cy", (slider_minY + slider_r));
            new_counter = 1;
        } else {
            slider.setAttributeNS(null, "cy", evt.pageY);
        }

        if (new_counter > counter) {
            var d = new_counter - counter;
            for (var i = 0; i < d; i++){
                hideSome();
            }
            counter = new_counter;
        }
        if (new_counter < counter) {
            var d = counter - new_counter;
            for (var i = 0; i < d; i++){
                showSome();
            }
            counter = new_counter;
        }
        setThreshold();
    }
    ]]></script><text id="score_indicator" style="font-size: 10px;font-weight: bold;" x="10" y="406">Score threshold: 0</text><text id="info" style="font-size: 10px;font-weight: bold;" x="10" y="421">Use slider or -/+ buttons to hide/show edges.</text></svg>