<?xml version="1.0" encoding="UTF-8" standalone="no"?>
<!DOCTYPE svg PUBLIC "-//W3C//DTD SVG 1.1//EN"
 "http://www.w3.org/Graphics/SVG/1.1/DTD/svg11.dtd">
<!-- Generated by graphviz version 2.28.0 (20110630.0925)
 -->
<!-- Title: _anonymous_0 Pages: 1 -->
<svg width="443pt" height="366pt"
 viewBox="0.00 0.00 443.45 366.45" xmlns="http://www.w3.org/2000/svg" xmlns:xlink="http://www.w3.org/1999/xlink">
<g id="graph1" class="graph" transform="scale(1 1) rotate(0) translate(4 362.449)">
<title>_anonymous_0</title>
<polygon fill="white" stroke="white" points="-4,5 -4,-362.449 440.449,-362.449 440.449,5 -4,5"/>
<!-- FOXM1_TBL1XR1 -->
<g id="node1" class="node"><title>FOXM1_TBL1XR1</title>
<a xlink:href="FOXM1_TBL1XR1.svg" xlink:title="Z&#45;value: 2.140||remove24">
<polygon fill="#3247ff" stroke="#3247ff" stroke-width="2" points="85.5,-240.425 12.5,-240.425 0.5,-228.425 0.5,-216.425 12.5,-204.425 85.5,-204.425 97.5,-216.425 97.5,-228.425 85.5,-240.425"/>
<path fill="#3247ff" stroke="#3247ff" stroke-width="2" d="M12.5,-240.425C6.5,-240.425 0.5,-234.425 0.5,-228.425"/>
<path fill="#3247ff" stroke="#3247ff" stroke-width="2" d="M0.5,-216.425C0.5,-210.425 6.5,-204.425 12.5,-204.425"/>
<path fill="#3247ff" stroke="#3247ff" stroke-width="2" d="M85.5,-204.425C91.5,-204.425 97.5,-210.425 97.5,-216.425"/>
<path fill="#3247ff" stroke="#3247ff" stroke-width="2" d="M97.5,-228.425C97.5,-234.425 91.5,-240.425 85.5,-240.425"/>
<polyline fill="none" stroke="white" stroke-width="2" points="85.5,-240.425 12.5,-240.425 "/>
<path fill="none" stroke="white" stroke-width="2" d="M12.5,-240.425C6.5,-240.425 0.5,-234.425 0.5,-228.425"/>
<polyline fill="none" stroke="white" stroke-width="2" points="0.5,-228.425 0.5,-216.425 "/>
<path fill="none" stroke="white" stroke-width="2" d="M0.5,-216.425C0.5,-210.425 6.5,-204.425 12.5,-204.425"/>
<polyline fill="none" stroke="white" stroke-width="2" points="12.5,-204.425 85.5,-204.425 "/>
<path fill="none" stroke="white" stroke-width="2" d="M85.5,-204.425C91.5,-204.425 97.5,-210.425 97.5,-216.425"/>
<polyline fill="none" stroke="white" stroke-width="2" points="97.5,-216.425 97.5,-228.425 "/>
<path fill="none" stroke="white" stroke-width="2" d="M97.5,-228.425C97.5,-234.425 91.5,-240.425 85.5,-240.425"/>
<text text-anchor="middle" x="49" y="-219.925" font-family="Helvetica,sans-Serif" font-size="10.00" fill="white">FOXM1_TBL1XR1</text>
</a>
</g>
<!-- HOXA13 -->
<g id="node2" class="node"><title>HOXA13</title>
<a xlink:href="HOXA13.svg" xlink:title="Z&#45;value: 0.507||remove40">
<polygon fill="#ffa7a7" stroke="#ffa7a7" stroke-width="2" points="225.725,-197.225 194.725,-197.225 182.725,-185.225 182.725,-173.225 194.725,-161.225 225.725,-161.225 237.725,-173.225 237.725,-185.225 225.725,-197.225"/>
<path fill="#ffa7a7" stroke="#ffa7a7" stroke-width="2" d="M194.725,-197.225C188.725,-197.225 182.725,-191.225 182.725,-185.225"/>
<path fill="#ffa7a7" stroke="#ffa7a7" stroke-width="2" d="M182.725,-173.225C182.725,-167.225 188.725,-161.225 194.725,-161.225"/>
<path fill="#ffa7a7" stroke="#ffa7a7" stroke-width="2" d="M225.725,-161.225C231.725,-161.225 237.725,-167.225 237.725,-173.225"/>
<path fill="#ffa7a7" stroke="#ffa7a7" stroke-width="2" d="M237.725,-185.225C237.725,-191.225 231.725,-197.225 225.725,-197.225"/>
<polyline fill="none" stroke="white" stroke-width="2" points="225.725,-197.225 194.725,-197.225 "/>
<path fill="none" stroke="white" stroke-width="2" d="M194.725,-197.225C188.725,-197.225 182.725,-191.225 182.725,-185.225"/>
<polyline fill="none" stroke="white" stroke-width="2" points="182.725,-185.225 182.725,-173.225 "/>
<path fill="none" stroke="white" stroke-width="2" d="M182.725,-173.225C182.725,-167.225 188.725,-161.225 194.725,-161.225"/>
<polyline fill="none" stroke="white" stroke-width="2" points="194.725,-161.225 225.725,-161.225 "/>
<path fill="none" stroke="white" stroke-width="2" d="M225.725,-161.225C231.725,-161.225 237.725,-167.225 237.725,-173.225"/>
<polyline fill="none" stroke="white" stroke-width="2" points="237.725,-173.225 237.725,-185.225 "/>
<path fill="none" stroke="white" stroke-width="2" d="M237.725,-185.225C237.725,-191.225 231.725,-197.225 225.725,-197.225"/>
<text text-anchor="middle" x="210.225" y="-176.725" font-family="Helvetica,sans-Serif" font-size="10.00">HOXA13</text>
</a>
</g>
<!-- FOXM1_TBL1XR1&#45;&gt;HOXA13 -->
<g id="edge2" class="edge"><title>FOXM1_TBL1XR1&#45;&gt;HOXA13</title>
<a xlink:title="HOXA13: 0.090||remove24root">
<path fill="none" stroke="#bdc4ff" stroke-width="3" d="M98.2487,-209.228C122.661,-202.687 151.621,-194.927 173.972,-188.938"/>
<polygon fill="#bdc4ff" stroke="#bdc4ff" points="174.885,-191.593 181.888,-186.817 173.436,-186.184 174.885,-191.593"/>
</a>
</g>
<!-- ESRRB_ESRRG -->
<g id="node4" class="node"><title>ESRRB_ESRRG</title>
<a xlink:href="ESRRB_ESRRG.svg" xlink:title="Z&#45;value: 0.825||remove36">
<polygon fill="#919cff" stroke="#919cff" stroke-width="2" points="405.699,-240.425 337.199,-240.425 325.199,-228.425 325.199,-216.425 337.199,-204.425 405.699,-204.425 417.699,-216.425 417.699,-228.425 405.699,-240.425"/>
<path fill="#919cff" stroke="#919cff" stroke-width="2" d="M337.199,-240.425C331.199,-240.425 325.199,-234.425 325.199,-228.425"/>
<path fill="#919cff" stroke="#919cff" stroke-width="2" d="M325.199,-216.425C325.199,-210.425 331.199,-204.425 337.199,-204.425"/>
<path fill="#919cff" stroke="#919cff" stroke-width="2" d="M405.699,-204.425C411.699,-204.425 417.699,-210.425 417.699,-216.425"/>
<path fill="#919cff" stroke="#919cff" stroke-width="2" d="M417.699,-228.425C417.699,-234.425 411.699,-240.425 405.699,-240.425"/>
<polyline fill="none" stroke="white" stroke-width="2" points="405.699,-240.425 337.199,-240.425 "/>
<path fill="none" stroke="white" stroke-width="2" d="M337.199,-240.425C331.199,-240.425 325.199,-234.425 325.199,-228.425"/>
<polyline fill="none" stroke="white" stroke-width="2" points="325.199,-228.425 325.199,-216.425 "/>
<path fill="none" stroke="white" stroke-width="2" d="M325.199,-216.425C325.199,-210.425 331.199,-204.425 337.199,-204.425"/>
<polyline fill="none" stroke="white" stroke-width="2" points="337.199,-204.425 405.699,-204.425 "/>
<path fill="none" stroke="white" stroke-width="2" d="M405.699,-204.425C411.699,-204.425 417.699,-210.425 417.699,-216.425"/>
<polyline fill="none" stroke="white" stroke-width="2" points="417.699,-216.425 417.699,-228.425 "/>
<path fill="none" stroke="white" stroke-width="2" d="M417.699,-228.425C417.699,-234.425 411.699,-240.425 405.699,-240.425"/>
<text text-anchor="middle" x="371.449" y="-219.925" font-family="Helvetica,sans-Serif" font-size="10.00">ESRRB_ESRRG</text>
</a>
</g>
<!-- FOXM1_TBL1XR1&#45;&gt;ESRRB_ESRRG -->
<g id="edge4" class="edge"><title>FOXM1_TBL1XR1&#45;&gt;ESRRB_ESRRG</title>
<a xlink:title="ESRRB: 0.967||ESRRG: 0.508||remove24">
<path fill="none" stroke="#bd32ff" stroke-width="3" d="M97.623,-222.425C156.47,-222.425 255.294,-222.425 316.746,-222.425"/>
<polygon fill="#bd32ff" stroke="#bd32ff" points="316.791,-225.225 324.791,-222.425 316.791,-219.625 316.791,-225.225"/>
</a>
</g>
<!-- ID4_TCF4_SNAI2 -->
<g id="node6" class="node"><title>ID4_TCF4_SNAI2</title>
<a xlink:href="ID4_TCF4_SNAI2.svg" xlink:title="Z&#45;value: 1.966||remove26">
<polygon fill="#3f52ff" stroke="#3f52ff" stroke-width="2" points="364.499,-315.249 291.999,-315.249 279.999,-303.249 279.999,-291.249 291.999,-279.249 364.499,-279.249 376.499,-291.249 376.499,-303.249 364.499,-315.249"/>
<path fill="#3f52ff" stroke="#3f52ff" stroke-width="2" d="M291.999,-315.249C285.999,-315.249 279.999,-309.249 279.999,-303.249"/>
<path fill="#3f52ff" stroke="#3f52ff" stroke-width="2" d="M279.999,-291.249C279.999,-285.249 285.999,-279.249 291.999,-279.249"/>
<path fill="#3f52ff" stroke="#3f52ff" stroke-width="2" d="M364.499,-279.249C370.499,-279.249 376.499,-285.249 376.499,-291.249"/>
<path fill="#3f52ff" stroke="#3f52ff" stroke-width="2" d="M376.499,-303.249C376.499,-309.249 370.499,-315.249 364.499,-315.249"/>
<polyline fill="none" stroke="white" stroke-width="2" points="364.499,-315.249 291.999,-315.249 "/>
<path fill="none" stroke="white" stroke-width="2" d="M291.999,-315.249C285.999,-315.249 279.999,-309.249 279.999,-303.249"/>
<polyline fill="none" stroke="white" stroke-width="2" points="279.999,-303.249 279.999,-291.249 "/>
<path fill="none" stroke="white" stroke-width="2" d="M279.999,-291.249C279.999,-285.249 285.999,-279.249 291.999,-279.249"/>
<polyline fill="none" stroke="white" stroke-width="2" points="291.999,-279.249 364.499,-279.249 "/>
<path fill="none" stroke="white" stroke-width="2" d="M364.499,-279.249C370.499,-279.249 376.499,-285.249 376.499,-291.249"/>
<polyline fill="none" stroke="white" stroke-width="2" points="376.499,-291.249 376.499,-303.249 "/>
<path fill="none" stroke="white" stroke-width="2" d="M376.499,-303.249C376.499,-309.249 370.499,-315.249 364.499,-315.249"/>
<text text-anchor="middle" x="328.249" y="-294.749" font-family="Helvetica,sans-Serif" font-size="10.00" fill="white">ID4_TCF4_SNAI2</text>
</a>
</g>
<!-- FOXM1_TBL1XR1&#45;&gt;ID4_TCF4_SNAI2 -->
<g id="edge6" class="edge"><title>FOXM1_TBL1XR1&#45;&gt;ID4_TCF4_SNAI2</title>
<a xlink:title="ID4: 0.141||TCF4: 0.128||remove24">
<path fill="none" stroke="#e7b5ff" stroke-width="3" d="M97.6415,-235.458C146.145,-248.454 220.593,-268.403 271.703,-282.098"/>
<polygon fill="#e7b5ff" stroke="#e7b5ff" points="271.245,-284.874 279.697,-284.24 272.695,-279.465 271.245,-284.874"/>
</a>
</g>
<!-- PLAGL1 -->
<g id="node8" class="node"><title>PLAGL1</title>
<a xlink:href="PLAGL1.svg" xlink:title="Z&#45;value: 1.203||remove35">
<polygon fill="#7683ff" stroke="#7683ff" stroke-width="2" points="64,-154.025 34,-154.025 22,-142.025 22,-130.025 34,-118.025 64,-118.025 76,-130.025 76,-142.025 64,-154.025"/>
<path fill="#7683ff" stroke="#7683ff" stroke-width="2" d="M34,-154.025C28,-154.025 22,-148.025 22,-142.025"/>
<path fill="#7683ff" stroke="#7683ff" stroke-width="2" d="M22,-130.025C22,-124.025 28,-118.025 34,-118.025"/>
<path fill="#7683ff" stroke="#7683ff" stroke-width="2" d="M64,-118.025C70,-118.025 76,-124.025 76,-130.025"/>
<path fill="#7683ff" stroke="#7683ff" stroke-width="2" d="M76,-142.025C76,-148.025 70,-154.025 64,-154.025"/>
<polyline fill="none" stroke="white" stroke-width="2" points="64,-154.025 34,-154.025 "/>
<path fill="none" stroke="white" stroke-width="2" d="M34,-154.025C28,-154.025 22,-148.025 22,-142.025"/>
<polyline fill="none" stroke="white" stroke-width="2" points="22,-142.025 22,-130.025 "/>
<path fill="none" stroke="white" stroke-width="2" d="M22,-130.025C22,-124.025 28,-118.025 34,-118.025"/>
<polyline fill="none" stroke="white" stroke-width="2" points="34,-118.025 64,-118.025 "/>
<path fill="none" stroke="white" stroke-width="2" d="M64,-118.025C70,-118.025 76,-124.025 76,-130.025"/>
<polyline fill="none" stroke="white" stroke-width="2" points="76,-130.025 76,-142.025 "/>
<path fill="none" stroke="white" stroke-width="2" d="M76,-142.025C76,-148.025 70,-154.025 64,-154.025"/>
<text text-anchor="middle" x="49" y="-133.525" font-family="Helvetica,sans-Serif" font-size="10.00">PLAGL1</text>
</a>
</g>
<!-- FOXM1_TBL1XR1&#45;&gt;PLAGL1 -->
<g id="edge8" class="edge"><title>FOXM1_TBL1XR1&#45;&gt;PLAGL1</title>
<a xlink:title="PLAGL1: 0.046||TBL1XR1: 0.005||remove14root">
<path fill="none" stroke="#ecc4ff" stroke-width="3" d="M48,-196.029C48,-185.292 48,-172.913 48,-162.198"/>
<path fill="none" stroke="#eecbff" stroke-width="3" d="M50,-196.029C50,-185.292 50,-172.913 50,-162.198"/>
<polygon fill="#eecbff" stroke="#eecbff" points="46.2001,-196.101 49,-204.101 51.8001,-196.101 46.2001,-196.101"/>
<polygon fill="#ecc4ff" stroke="#ecc4ff" points="51.8001,-162.025 49,-154.025 46.2001,-162.025 51.8001,-162.025"/>
</a>
</g>
<!-- NR5A2 -->
<g id="node10" class="node"><title>NR5A2</title>
<a xlink:href="NR5A2.svg" xlink:title="Z&#45;value: 0.899||remove23">
<polygon fill="#8b97ff" stroke="#8b97ff" stroke-width="2" points="268.425,-358.449 238.425,-358.449 226.425,-346.449 226.425,-334.449 238.425,-322.449 268.425,-322.449 280.425,-334.449 280.425,-346.449 268.425,-358.449"/>
<path fill="#8b97ff" stroke="#8b97ff" stroke-width="2" d="M238.425,-358.449C232.425,-358.449 226.425,-352.449 226.425,-346.449"/>
<path fill="#8b97ff" stroke="#8b97ff" stroke-width="2" d="M226.425,-334.449C226.425,-328.449 232.425,-322.449 238.425,-322.449"/>
<path fill="#8b97ff" stroke="#8b97ff" stroke-width="2" d="M268.425,-322.449C274.425,-322.449 280.425,-328.449 280.425,-334.449"/>
<path fill="#8b97ff" stroke="#8b97ff" stroke-width="2" d="M280.425,-346.449C280.425,-352.449 274.425,-358.449 268.425,-358.449"/>
<polyline fill="none" stroke="white" stroke-width="2" points="268.425,-358.449 238.425,-358.449 "/>
<path fill="none" stroke="white" stroke-width="2" d="M238.425,-358.449C232.425,-358.449 226.425,-352.449 226.425,-346.449"/>
<polyline fill="none" stroke="white" stroke-width="2" points="226.425,-346.449 226.425,-334.449 "/>
<path fill="none" stroke="white" stroke-width="2" d="M226.425,-334.449C226.425,-328.449 232.425,-322.449 238.425,-322.449"/>
<polyline fill="none" stroke="white" stroke-width="2" points="238.425,-322.449 268.425,-322.449 "/>
<path fill="none" stroke="white" stroke-width="2" d="M268.425,-322.449C274.425,-322.449 280.425,-328.449 280.425,-334.449"/>
<polyline fill="none" stroke="white" stroke-width="2" points="280.425,-334.449 280.425,-346.449 "/>
<path fill="none" stroke="white" stroke-width="2" d="M280.425,-346.449C280.425,-352.449 274.425,-358.449 268.425,-358.449"/>
<text text-anchor="middle" x="253.425" y="-337.949" font-family="Helvetica,sans-Serif" font-size="10.00">NR5A2</text>
</a>
</g>
<!-- FOXM1_TBL1XR1&#45;&gt;NR5A2 -->
<g id="edge10" class="edge"><title>FOXM1_TBL1XR1&#45;&gt;NR5A2</title>
<a xlink:title="NR5A2: 0.168||remove23">
<path fill="none" stroke="#e6b1ff" stroke-width="3" d="M80.4933,-240.607C118.028,-262.278 180.519,-298.357 219.213,-320.697"/>
<polygon fill="#e6b1ff" stroke="#e6b1ff" points="217.822,-323.127 226.15,-324.702 220.622,-318.277 217.822,-323.127"/>
</a>
</g>
<!-- SIN3A_CHD1 -->
<g id="node12" class="node"><title>SIN3A_CHD1</title>
<a xlink:href="SIN3A_CHD1.svg" xlink:title="Z&#45;value: 1.751||remove30">
<polygon fill="#4e60ff" stroke="#4e60ff" stroke-width="2" points="119.45,-79.2 64.95,-79.2 52.95,-67.2 52.95,-55.2 64.95,-43.2 119.45,-43.2 131.45,-55.2 131.45,-67.2 119.45,-79.2"/>
<path fill="#4e60ff" stroke="#4e60ff" stroke-width="2" d="M64.95,-79.2C58.95,-79.2 52.95,-73.2 52.95,-67.2"/>
<path fill="#4e60ff" stroke="#4e60ff" stroke-width="2" d="M52.95,-55.2C52.95,-49.2 58.95,-43.2 64.95,-43.2"/>
<path fill="#4e60ff" stroke="#4e60ff" stroke-width="2" d="M119.45,-43.2C125.45,-43.2 131.45,-49.2 131.45,-55.2"/>
<path fill="#4e60ff" stroke="#4e60ff" stroke-width="2" d="M131.45,-67.2C131.45,-73.2 125.45,-79.2 119.45,-79.2"/>
<polyline fill="none" stroke="white" stroke-width="2" points="119.45,-79.2 64.95,-79.2 "/>
<path fill="none" stroke="white" stroke-width="2" d="M64.95,-79.2C58.95,-79.2 52.95,-73.2 52.95,-67.2"/>
<polyline fill="none" stroke="white" stroke-width="2" points="52.95,-67.2 52.95,-55.2 "/>
<path fill="none" stroke="white" stroke-width="2" d="M52.95,-55.2C52.95,-49.2 58.95,-43.2 64.95,-43.2"/>
<polyline fill="none" stroke="white" stroke-width="2" points="64.95,-43.2 119.45,-43.2 "/>
<path fill="none" stroke="white" stroke-width="2" d="M119.45,-43.2C125.45,-43.2 131.45,-49.2 131.45,-55.2"/>
<polyline fill="none" stroke="white" stroke-width="2" points="131.45,-55.2 131.45,-67.2 "/>
<path fill="none" stroke="white" stroke-width="2" d="M131.45,-67.2C131.45,-73.2 125.45,-79.2 119.45,-79.2"/>
<text text-anchor="middle" x="92.2" y="-58.7" font-family="Helvetica,sans-Serif" font-size="10.00" fill="white">SIN3A_CHD1</text>
</a>
</g>
<!-- FOXM1_TBL1XR1&#45;&gt;SIN3A_CHD1 -->
<g id="edge12" class="edge"><title>FOXM1_TBL1XR1&#45;&gt;SIN3A_CHD1</title>
<a xlink:title="CHD1: 0.041||remove12root">
<path fill="none" stroke="#ecc5ff" stroke-width="3" d="M59.5618,-204.417C66.5871,-191.595 75.3977,-173.724 80.32,-156.905 86.9972,-134.089 89.9221,-107.141 91.203,-87.6631"/>
<polygon fill="#ecc5ff" stroke="#ecc5ff" points="94.0059,-87.6922 91.6705,-79.5445 88.4151,-87.3703 94.0059,-87.6922"/>
</a>
</g>
<!-- MAFB -->
<g id="node14" class="node"><title>MAFB</title>
<a xlink:href="MAFB.svg" xlink:title="Z&#45;value: 0.960||remove38">
<polygon fill="#8793ff" stroke="#8793ff" stroke-width="2" points="182.025,-36 152.025,-36 140.025,-24 140.025,-12 152.025,-6.39488e-14 182.025,-6.39488e-14 194.025,-12 194.025,-24 182.025,-36"/>
<path fill="#8793ff" stroke="#8793ff" stroke-width="2" d="M152.025,-36C146.025,-36 140.025,-30 140.025,-24"/>
<path fill="#8793ff" stroke="#8793ff" stroke-width="2" d="M140.025,-12C140.025,-6 146.025,-6.39488e-14 152.025,-6.39488e-14"/>
<path fill="#8793ff" stroke="#8793ff" stroke-width="2" d="M182.025,-6.39488e-14C188.025,-6.39488e-14 194.025,-6 194.025,-12"/>
<path fill="#8793ff" stroke="#8793ff" stroke-width="2" d="M194.025,-24C194.025,-30 188.025,-36 182.025,-36"/>
<polyline fill="none" stroke="white" stroke-width="2" points="182.025,-36 152.025,-36 "/>
<path fill="none" stroke="white" stroke-width="2" d="M152.025,-36C146.025,-36 140.025,-30 140.025,-24"/>
<polyline fill="none" stroke="white" stroke-width="2" points="140.025,-24 140.025,-12 "/>
<path fill="none" stroke="white" stroke-width="2" d="M140.025,-12C140.025,-6 146.025,-6.39488e-14 152.025,-6.39488e-14"/>
<polyline fill="none" stroke="white" stroke-width="2" points="152.025,-6.39488e-14 182.025,-6.39488e-14 "/>
<path fill="none" stroke="white" stroke-width="2" d="M182.025,-6.39488e-14C188.025,-6.39488e-14 194.025,-6 194.025,-12"/>
<polyline fill="none" stroke="white" stroke-width="2" points="194.025,-12 194.025,-24 "/>
<path fill="none" stroke="white" stroke-width="2" d="M194.025,-24C194.025,-30 188.025,-36 182.025,-36"/>
<text text-anchor="middle" x="167.025" y="-15.5" font-family="Helvetica,sans-Serif" font-size="10.00">MAFB</text>
</a>
</g>
<!-- FOXM1_TBL1XR1&#45;&gt;MAFB -->
<g id="edge14" class="edge"><title>FOXM1_TBL1XR1&#45;&gt;MAFB</title>
<a xlink:title="MAFB: 0.072||remove20root">
<path fill="none" stroke="#ebc0ff" stroke-width="3" d="M61.6554,-204.306C79.7345,-178.033 113.479,-127.525 138.02,-82.08 144.731,-69.652 151.299,-55.3733 156.483,-43.4532"/>
<polygon fill="#ebc0ff" stroke="#ebc0ff" points="159.098,-44.4598 159.677,-36.0038 153.951,-42.2529 159.098,-44.4598"/>
</a>
</g>
<!-- HOXA13&#45;&gt;ESRRB_ESRRG -->
<g id="edge62" class="edge"><title>HOXA13&#45;&gt;ESRRB_ESRRG</title>
<a xlink:title="ESRRG: 0.186||remove36root">
<path fill="none" stroke="#ffaeae" stroke-width="3" d="M237.94,-186.651C259.737,-192.491 290.772,-200.807 317.435,-207.951"/>
<polygon fill="#ffaeae" stroke="#ffaeae" points="316.738,-210.663 325.19,-210.029 318.187,-205.254 316.738,-210.663"/>
</a>
</g>
<!-- HOXA13&#45;&gt;ID4_TCF4_SNAI2 -->
<g id="edge64" class="edge"><title>HOXA13&#45;&gt;ID4_TCF4_SNAI2</title>
<a xlink:title="ID4: 0.093||TCF4: 0.005||remove26root">
<path fill="none" stroke="#ffbdbd" stroke-width="3" d="M228.407,-197.407C248.826,-217.826 282.037,-251.037 304.494,-273.494"/>
<polygon fill="#ffbdbd" stroke="#ffbdbd" points="302.603,-275.563 310.24,-279.24 306.563,-271.603 302.603,-275.563"/>
</a>
</g>
<!-- HOXA13&#45;&gt;NR5A2 -->
<g id="edge68" class="edge"><title>HOXA13&#45;&gt;NR5A2</title>
<a xlink:title="NR5A2: 0.085||remove23root">
<path fill="none" stroke="#ffbebe" stroke-width="3" d="M215.096,-197.406C222.745,-225.951 237.604,-281.407 246.406,-314.254"/>
<polygon fill="#ffbebe" stroke="#ffbebe" points="243.729,-315.084 248.505,-322.087 249.138,-313.635 243.729,-315.084"/>
</a>
</g>
<!-- BARHL2 -->
<g id="node37" class="node"><title>BARHL2</title>
<a xlink:href="BARHL2.svg" xlink:title="Z&#45;value: 0.750||remove25">
<polygon fill="#96a0ff" stroke="#96a0ff" stroke-width="2" points="182.525,-358.449 151.525,-358.449 139.525,-346.449 139.525,-334.449 151.525,-322.449 182.525,-322.449 194.525,-334.449 194.525,-346.449 182.525,-358.449"/>
<path fill="#96a0ff" stroke="#96a0ff" stroke-width="2" d="M151.525,-358.449C145.525,-358.449 139.525,-352.449 139.525,-346.449"/>
<path fill="#96a0ff" stroke="#96a0ff" stroke-width="2" d="M139.525,-334.449C139.525,-328.449 145.525,-322.449 151.525,-322.449"/>
<path fill="#96a0ff" stroke="#96a0ff" stroke-width="2" d="M182.525,-322.449C188.525,-322.449 194.525,-328.449 194.525,-334.449"/>
<path fill="#96a0ff" stroke="#96a0ff" stroke-width="2" d="M194.525,-346.449C194.525,-352.449 188.525,-358.449 182.525,-358.449"/>
<polyline fill="none" stroke="white" stroke-width="2" points="182.525,-358.449 151.525,-358.449 "/>
<path fill="none" stroke="white" stroke-width="2" d="M151.525,-358.449C145.525,-358.449 139.525,-352.449 139.525,-346.449"/>
<polyline fill="none" stroke="white" stroke-width="2" points="139.525,-346.449 139.525,-334.449 "/>
<path fill="none" stroke="white" stroke-width="2" d="M139.525,-334.449C139.525,-328.449 145.525,-322.449 151.525,-322.449"/>
<polyline fill="none" stroke="white" stroke-width="2" points="151.525,-322.449 182.525,-322.449 "/>
<path fill="none" stroke="white" stroke-width="2" d="M182.525,-322.449C188.525,-322.449 194.525,-328.449 194.525,-334.449"/>
<polyline fill="none" stroke="white" stroke-width="2" points="194.525,-334.449 194.525,-346.449 "/>
<path fill="none" stroke="white" stroke-width="2" d="M194.525,-346.449C194.525,-352.449 188.525,-358.449 182.525,-358.449"/>
<text text-anchor="middle" x="167.025" y="-337.949" font-family="Helvetica,sans-Serif" font-size="10.00">BARHL2</text>
</a>
</g>
<!-- HOXA13&#45;&gt;BARHL2 -->
<g id="edge66" class="edge"><title>HOXA13&#45;&gt;BARHL2</title>
<a xlink:title="BARHL2: 0.090||remove25root">
<path fill="none" stroke="#ffbdbd" stroke-width="3" d="M205.353,-197.406C197.704,-225.951 182.845,-281.407 174.044,-314.254"/>
<polygon fill="#ffbdbd" stroke="#ffbdbd" points="171.311,-313.635 171.945,-322.087 176.72,-315.084 171.311,-313.635"/>
</a>
</g>
<!-- HOXB7 -->
<g id="node47" class="node"><title>HOXB7</title>
<a xlink:href="HOXB7.svg" xlink:title="Z&#45;value: 0.421||remove32">
<polygon fill="#adb6ff" stroke="#adb6ff" stroke-width="2" points="107.2,-315.249 77.2,-315.249 65.2,-303.249 65.2,-291.249 77.2,-279.249 107.2,-279.249 119.2,-291.249 119.2,-303.249 107.2,-315.249"/>
<path fill="#adb6ff" stroke="#adb6ff" stroke-width="2" d="M77.2,-315.249C71.2,-315.249 65.2,-309.249 65.2,-303.249"/>
<path fill="#adb6ff" stroke="#adb6ff" stroke-width="2" d="M65.2,-291.249C65.2,-285.249 71.2,-279.249 77.2,-279.249"/>
<path fill="#adb6ff" stroke="#adb6ff" stroke-width="2" d="M107.2,-279.249C113.2,-279.249 119.2,-285.249 119.2,-291.249"/>
<path fill="#adb6ff" stroke="#adb6ff" stroke-width="2" d="M119.2,-303.249C119.2,-309.249 113.2,-315.249 107.2,-315.249"/>
<polyline fill="none" stroke="white" stroke-width="2" points="107.2,-315.249 77.2,-315.249 "/>
<path fill="none" stroke="white" stroke-width="2" d="M77.2,-315.249C71.2,-315.249 65.2,-309.249 65.2,-303.249"/>
<polyline fill="none" stroke="white" stroke-width="2" points="65.2,-303.249 65.2,-291.249 "/>
<path fill="none" stroke="white" stroke-width="2" d="M65.2,-291.249C65.2,-285.249 71.2,-279.249 77.2,-279.249"/>
<polyline fill="none" stroke="white" stroke-width="2" points="77.2,-279.249 107.2,-279.249 "/>
<path fill="none" stroke="white" stroke-width="2" d="M107.2,-279.249C113.2,-279.249 119.2,-285.249 119.2,-291.249"/>
<polyline fill="none" stroke="white" stroke-width="2" points="119.2,-291.249 119.2,-303.249 "/>
<path fill="none" stroke="white" stroke-width="2" d="M119.2,-303.249C119.2,-309.249 113.2,-315.249 107.2,-315.249"/>
<text text-anchor="middle" x="92.2" y="-294.749" font-family="Helvetica,sans-Serif" font-size="10.00">HOXB7</text>
</a>
</g>
<!-- HOXA13&#45;&gt;HOXB7 -->
<g id="edge70" class="edge"><title>HOXA13&#45;&gt;HOXB7</title>
<a xlink:title="HOXB7: 0.130||remove32root">
<path fill="none" stroke="#ffb7b7" stroke-width="3" d="M192.042,-197.407C171.623,-217.826 138.412,-251.037 115.955,-273.494"/>
<polygon fill="#ffb7b7" stroke="#ffb7b7" points="113.887,-271.603 110.21,-279.24 117.846,-275.563 113.887,-271.603"/>
</a>
</g>
<!-- ESRRB_ESRRG&#45;&gt;ESRRB_ESRRG -->
<g id="edge60" class="edge"><title>ESRRB_ESRRG&#45;&gt;ESRRB_ESRRG</title>
<a xlink:title="ESRRG: 0.023||remove7root">
<path fill="none" stroke="#edc8ff" stroke-width="3" d="M417.761,-228.993C427.995,-228.376 435.449,-226.186 435.449,-222.425 435.449,-219.78 431.764,-217.912 426.019,-216.822"/>
<polygon fill="#edc8ff" stroke="#edc8ff" points="426.032,-214.004 417.761,-215.856 425.382,-219.566 426.032,-214.004"/>
</a>
</g>
<!-- ID4_TCF4_SNAI2&#45;&gt;ID4_TCF4_SNAI2 -->
<g id="edge52" class="edge"><title>ID4_TCF4_SNAI2&#45;&gt;ID4_TCF4_SNAI2</title>
<a xlink:title="SNAI2: 0.300||TCF4: 0.041||remove26">
<path fill="none" stroke="#df9cff" stroke-width="3" d="M376.597,-303.781C386.847,-303.118 394.249,-300.941 394.249,-297.249 394.249,-294.654 390.59,-292.807 384.854,-291.708"/>
<polygon fill="#df9cff" stroke="#df9cff" points="384.874,-288.891 376.597,-290.717 384.206,-294.451 384.874,-288.891"/>
</a>
</g>
<!-- PATZ1_KLF4 -->
<g id="node19" class="node"><title>PATZ1_KLF4</title>
<a xlink:href="PATZ1_KLF4.svg" xlink:title="Z&#45;value: 1.751||remove39">
<polygon fill="#4e60ff" stroke="#4e60ff" stroke-width="2" points="279.425,-36 227.425,-36 215.425,-24 215.425,-12 227.425,-0 279.425,-0 291.425,-12 291.425,-24 279.425,-36"/>
<path fill="#4e60ff" stroke="#4e60ff" stroke-width="2" d="M227.425,-36C221.425,-36 215.425,-30 215.425,-24"/>
<path fill="#4e60ff" stroke="#4e60ff" stroke-width="2" d="M215.425,-12C215.425,-6 221.425,-0 227.425,-0"/>
<path fill="#4e60ff" stroke="#4e60ff" stroke-width="2" d="M279.425,-0C285.425,-0 291.425,-6 291.425,-12"/>
<path fill="#4e60ff" stroke="#4e60ff" stroke-width="2" d="M291.425,-24C291.425,-30 285.425,-36 279.425,-36"/>
<polyline fill="none" stroke="white" stroke-width="2" points="279.425,-36 227.425,-36 "/>
<path fill="none" stroke="white" stroke-width="2" d="M227.425,-36C221.425,-36 215.425,-30 215.425,-24"/>
<polyline fill="none" stroke="white" stroke-width="2" points="215.425,-24 215.425,-12 "/>
<path fill="none" stroke="white" stroke-width="2" d="M215.425,-12C215.425,-6 221.425,-0 227.425,-0"/>
<polyline fill="none" stroke="white" stroke-width="2" points="227.425,-0 279.425,-0 "/>
<path fill="none" stroke="white" stroke-width="2" d="M279.425,-0C285.425,-0 291.425,-6 291.425,-12"/>
<polyline fill="none" stroke="white" stroke-width="2" points="291.425,-12 291.425,-24 "/>
<path fill="none" stroke="white" stroke-width="2" d="M291.425,-24C291.425,-30 285.425,-36 279.425,-36"/>
<text text-anchor="middle" x="253.425" y="-15.5" font-family="Helvetica,sans-Serif" font-size="10.00" fill="white">PATZ1_KLF4</text>
</a>
</g>
<!-- ID4_TCF4_SNAI2&#45;&gt;PATZ1_KLF4 -->
<g id="edge58" class="edge"><title>ID4_TCF4_SNAI2&#45;&gt;PATZ1_KLF4</title>
<a xlink:title="PATZ1: 0.067||SNAI2: 0.109||TCF4: 0.089||remove26">
<path fill="none" stroke="#ebc1ff" stroke-width="3" d="M320.214,-271.126C305.897,-217.693 273.629,-97.267 259.41,-44.2031"/>
<path fill="none" stroke="#e9baff" stroke-width="3" d="M322.146,-270.608C307.829,-217.176 275.561,-96.7494 261.342,-43.6854"/>
<polygon fill="#e9baff" stroke="#e9baff" points="318.565,-271.924 323.34,-278.927 323.974,-270.475 318.565,-271.924"/>
<polygon fill="#ebc1ff" stroke="#ebc1ff" points="263.03,-43.0294 258.255,-36.0268 257.621,-44.4789 263.03,-43.0294"/>
</a>
</g>
<!-- ID4_TCF4_SNAI2&#45;&gt;BARHL2 -->
<g id="edge54" class="edge"><title>ID4_TCF4_SNAI2&#45;&gt;BARHL2</title>
<a xlink:title="BARHL2: 0.003||remove0root">
<path fill="none" stroke="#eecbff" stroke-width="3" d="M279.773,-305.797C261.537,-309.442 240.719,-314.12 222.105,-319.569 215.615,-321.469 208.803,-323.781 202.268,-326.164"/>
<polygon fill="#eecbff" stroke="#eecbff" points="201.27,-323.548 194.76,-328.976 203.234,-328.793 201.27,-323.548"/>
</a>
</g>
<!-- GATA3 -->
<g id="node39" class="node"><title>GATA3</title>
<a xlink:href="GATA3.svg" xlink:title="Z&#45;value: 2.023||remove33">
<polygon fill="#3b4eff" stroke="#3b4eff" stroke-width="2" points="386.449,-154.025 356.449,-154.025 344.449,-142.025 344.449,-130.025 356.449,-118.025 386.449,-118.025 398.449,-130.025 398.449,-142.025 386.449,-154.025"/>
<path fill="#3b4eff" stroke="#3b4eff" stroke-width="2" d="M356.449,-154.025C350.449,-154.025 344.449,-148.025 344.449,-142.025"/>
<path fill="#3b4eff" stroke="#3b4eff" stroke-width="2" d="M344.449,-130.025C344.449,-124.025 350.449,-118.025 356.449,-118.025"/>
<path fill="#3b4eff" stroke="#3b4eff" stroke-width="2" d="M386.449,-118.025C392.449,-118.025 398.449,-124.025 398.449,-130.025"/>
<path fill="#3b4eff" stroke="#3b4eff" stroke-width="2" d="M398.449,-142.025C398.449,-148.025 392.449,-154.025 386.449,-154.025"/>
<polyline fill="none" stroke="white" stroke-width="2" points="386.449,-154.025 356.449,-154.025 "/>
<path fill="none" stroke="white" stroke-width="2" d="M356.449,-154.025C350.449,-154.025 344.449,-148.025 344.449,-142.025"/>
<polyline fill="none" stroke="white" stroke-width="2" points="344.449,-142.025 344.449,-130.025 "/>
<path fill="none" stroke="white" stroke-width="2" d="M344.449,-130.025C344.449,-124.025 350.449,-118.025 356.449,-118.025"/>
<polyline fill="none" stroke="white" stroke-width="2" points="356.449,-118.025 386.449,-118.025 "/>
<path fill="none" stroke="white" stroke-width="2" d="M386.449,-118.025C392.449,-118.025 398.449,-124.025 398.449,-130.025"/>
<polyline fill="none" stroke="white" stroke-width="2" points="398.449,-130.025 398.449,-142.025 "/>
<path fill="none" stroke="white" stroke-width="2" d="M398.449,-142.025C398.449,-148.025 392.449,-154.025 386.449,-154.025"/>
<text text-anchor="middle" x="371.449" y="-133.525" font-family="Helvetica,sans-Serif" font-size="10.00" fill="white">GATA3</text>
</a>
</g>
<!-- ID4_TCF4_SNAI2&#45;&gt;GATA3 -->
<g id="edge56" class="edge"><title>ID4_TCF4_SNAI2&#45;&gt;GATA3</title>
<a xlink:title="GATA3: 0.037||TCF4: 0.079||remove22root">
<path fill="none" stroke="#ecc6ff" stroke-width="3" d="M318.192,-271.395C312.777,-251.623 308.421,-224.286 316.568,-201.207 322.296,-185.375 333.349,-170.866 344.069,-159.401"/>
<path fill="none" stroke="#eabfff" stroke-width="3" d="M320.121,-270.866C314.752,-251.308 310.396,-223.971 318.45,-201.882 323.887,-186.587 334.94,-172.078 345.53,-160.767"/>
<polygon fill="#eabfff" stroke="#eabfff" points="316.546,-272.174 321.498,-279.053 321.916,-270.587 316.546,-272.174"/>
<polygon fill="#ecc6ff" stroke="#ecc6ff" points="347.062,-161.775 350.641,-154.092 343.051,-157.866 347.062,-161.775"/>
</a>
</g>
<!-- PLAGL1&#45;&gt;HOXA13 -->
<g id="edge40" class="edge"><title>PLAGL1&#45;&gt;HOXA13</title>
<a xlink:title="HOXA13: 0.167||remove35root">
<path fill="none" stroke="#b1b9ff" stroke-width="3" d="M76.3496,-143.353C103.367,-150.592 144.832,-161.703 174.452,-169.639"/>
<polygon fill="#b1b9ff" stroke="#b1b9ff" points="174.018,-172.422 182.47,-171.788 175.468,-167.013 174.018,-172.422"/>
</a>
</g>
<!-- PLAGL1&#45;&gt;ESRRB_ESRRG -->
<g id="edge42" class="edge"><title>PLAGL1&#45;&gt;ESRRB_ESRRG</title>
<a xlink:title="ESRRG: 0.052||remove15root">
<path fill="none" stroke="#ecc3ff" stroke-width="3" d="M76.4725,-153.231C101.78,-168.205 140.882,-189.173 177.745,-200.105 223.497,-213.672 277.6,-219.065 316.982,-221.173"/>
<polygon fill="#ecc3ff" stroke="#ecc3ff" points="317.026,-223.978 325.154,-221.574 317.301,-218.385 317.026,-223.978"/>
</a>
</g>
<!-- PLAGL1&#45;&gt;ID4_TCF4_SNAI2 -->
<g id="edge44" class="edge"><title>PLAGL1&#45;&gt;ID4_TCF4_SNAI2</title>
<a xlink:title="TCF4: 0.064||remove18root">
<path fill="none" stroke="#ebc1ff" stroke-width="3" d="M76.0293,-151.63C125.909,-180.428 232.556,-242 289.894,-275.105"/>
<polygon fill="#ebc1ff" stroke="#ebc1ff" points="288.643,-277.616 296.972,-279.191 291.444,-272.766 288.643,-277.616"/>
</a>
</g>
<!-- PLAGL1&#45;&gt;PLAGL1 -->
<g id="edge46" class="edge"><title>PLAGL1&#45;&gt;PLAGL1</title>
<a xlink:title="PLAGL1: 0.151||remove34root">
<path fill="none" stroke="#e7b4ff" stroke-width="3" d="M76.2408,-142.768C86.0239,-142.913 94,-140.665 94,-136.025 94,-132.762 90.0568,-130.682 84.3147,-129.785"/>
<polygon fill="#e7b4ff" stroke="#e7b4ff" points="84.3996,-126.985 76.2408,-129.281 84.051,-132.574 84.3996,-126.985"/>
</a>
</g>
<!-- PLAGL1&#45;&gt;SIN3A_CHD1 -->
<g id="edge48" class="edge"><title>PLAGL1&#45;&gt;SIN3A_CHD1</title>
<a xlink:title="SIN3A: 0.010||remove3root">
<path fill="none" stroke="#eecaff" stroke-width="3" d="M59.4575,-117.912C64.8829,-108.515 71.5997,-96.8808 77.535,-86.6005"/>
<polygon fill="#eecaff" stroke="#eecaff" points="80.1139,-87.7337 81.6891,-79.4055 75.2641,-84.9337 80.1139,-87.7337"/>
</a>
</g>
<!-- PLAGL1&#45;&gt;MAFB -->
<g id="edge50" class="edge"><title>PLAGL1&#45;&gt;MAFB</title>
<a xlink:title="MAFB: 0.320||remove35">
<path fill="none" stroke="#de99ff" stroke-width="3" d="M76.1074,-124.881C95.4662,-115.776 120.993,-101.278 138.02,-82.08 147.658,-71.2129 154.601,-56.6106 159.273,-44.0899"/>
<polygon fill="#de99ff" stroke="#de99ff" points="162.026,-44.6987 162.021,-36.2229 156.739,-42.8521 162.026,-44.6987"/>
</a>
</g>
<!-- SIN3A_CHD1&#45;&gt;HOXA13 -->
<g id="edge16" class="edge"><title>SIN3A_CHD1&#45;&gt;HOXA13</title>
<a xlink:title="HOXA13: 0.129||remove30root">
<path fill="none" stroke="#b7beff" stroke-width="3" d="M110.383,-79.3827C130.802,-99.8017 164.013,-133.013 186.469,-155.469"/>
<polygon fill="#b7beff" stroke="#b7beff" points="184.578,-157.538 192.215,-161.215 188.538,-153.578 184.578,-157.538"/>
</a>
</g>
<!-- SIN3A_CHD1&#45;&gt;ESRRB_ESRRG -->
<g id="edge18" class="edge"><title>SIN3A_CHD1&#45;&gt;ESRRB_ESRRG</title>
<a xlink:title="ESRRG: 0.207||ESRRB: 0.052||remove30">
<path fill="none" stroke="#e4abff" stroke-width="3" d="M123.421,-79.2252C174.771,-108.872 276.917,-167.846 332.768,-200.092"/>
<polygon fill="#e4abff" stroke="#e4abff" points="331.674,-202.694 340.002,-204.269 334.474,-197.844 331.674,-202.694"/>
</a>
</g>
<!-- SIN3A_CHD1&#45;&gt;ID4_TCF4_SNAI2 -->
<g id="edge20" class="edge"><title>SIN3A_CHD1&#45;&gt;ID4_TCF4_SNAI2</title>
<a xlink:title="ID4: 0.165||TCF4: 0.130||remove26">
<path fill="none" stroke="#e6b1ff" stroke-width="3" d="M100.256,-79.6088C113.353,-108.003 141.486,-163.07 177.745,-200.105 208.692,-231.714 251.713,-258.188 283.837,-275.475"/>
<polygon fill="#e6b1ff" stroke="#e6b1ff" points="282.55,-277.962 290.929,-279.238 285.174,-273.015 282.55,-277.962"/>
</a>
</g>
<!-- SIN3A_CHD1&#45;&gt;SIN3A_CHD1 -->
<g id="edge26" class="edge"><title>SIN3A_CHD1&#45;&gt;SIN3A_CHD1</title>
<a xlink:title="CHD1: 0.054||remove16root">
<path fill="none" stroke="#ebc3ff" stroke-width="3" d="M131.627,-67.8693C141.664,-67.4309 149.2,-65.2078 149.2,-61.2 149.2,-58.382 145.475,-56.4464 139.773,-55.3931"/>
<polygon fill="#ebc3ff" stroke="#ebc3ff" points="139.877,-52.5885 131.627,-54.5308 139.288,-58.1574 139.877,-52.5885"/>
</a>
</g>
<!-- SIN3A_CHD1&#45;&gt;MAFB -->
<g id="edge28" class="edge"><title>SIN3A_CHD1&#45;&gt;MAFB</title>
<a xlink:title="MAFB: 0.111||SIN3A: 0.019||remove29root">
<path fill="none" stroke="#e9baff" stroke-width="3" d="M129.951,-38.2499C130.747,-37.79 131.543,-37.3304 132.337,-36.872"/>
<path fill="none" stroke="#edc8ff" stroke-width="3" d="M130.951,-39.9819C131.747,-39.5221 132.543,-39.0625 133.337,-38.604"/>
<polygon fill="#edc8ff" stroke="#edc8ff" points="129.027,-36.7047 123.499,-43.1296 131.827,-41.5544 129.027,-36.7047"/>
<polygon fill="#e9baff" stroke="#e9baff" points="134.364,-40.0898 139.892,-33.6649 131.564,-35.2401 134.364,-40.0898"/>
</a>
</g>
<!-- SIN3A_CHD1&#45;&gt;PATZ1_KLF4 -->
<g id="edge22" class="edge"><title>SIN3A_CHD1&#45;&gt;PATZ1_KLF4</title>
<a xlink:title="KLF4: 0.185||PATZ1: 0.181||remove30">
<path fill="none" stroke="#e5aeff" stroke-width="3" d="M131.88,-54.3707C151.98,-50.5302 176.658,-45.2291 198.345,-38.88 201.35,-38 204.425,-37.0318 207.51,-36.009"/>
<polygon fill="#e5aeff" stroke="#e5aeff" points="208.51,-38.6259 215.162,-33.3734 206.686,-33.3311 208.51,-38.6259"/>
</a>
</g>
<!-- WRNIP1 -->
<g id="node21" class="node"><title>WRNIP1</title>
<a xlink:href="WRNIP1.svg" xlink:title="Z&#45;value: 1.103||remove37">
<polygon fill="#7d8aff" stroke="#7d8aff" stroke-width="2" points="343.749,-79.2 312.749,-79.2 300.749,-67.2 300.749,-55.2 312.749,-43.2 343.749,-43.2 355.749,-55.2 355.749,-67.2 343.749,-79.2"/>
<path fill="#7d8aff" stroke="#7d8aff" stroke-width="2" d="M312.749,-79.2C306.749,-79.2 300.749,-73.2 300.749,-67.2"/>
<path fill="#7d8aff" stroke="#7d8aff" stroke-width="2" d="M300.749,-55.2C300.749,-49.2 306.749,-43.2 312.749,-43.2"/>
<path fill="#7d8aff" stroke="#7d8aff" stroke-width="2" d="M343.749,-43.2C349.749,-43.2 355.749,-49.2 355.749,-55.2"/>
<path fill="#7d8aff" stroke="#7d8aff" stroke-width="2" d="M355.749,-67.2C355.749,-73.2 349.749,-79.2 343.749,-79.2"/>
<polyline fill="none" stroke="white" stroke-width="2" points="343.749,-79.2 312.749,-79.2 "/>
<path fill="none" stroke="white" stroke-width="2" d="M312.749,-79.2C306.749,-79.2 300.749,-73.2 300.749,-67.2"/>
<polyline fill="none" stroke="white" stroke-width="2" points="300.749,-67.2 300.749,-55.2 "/>
<path fill="none" stroke="white" stroke-width="2" d="M300.749,-55.2C300.749,-49.2 306.749,-43.2 312.749,-43.2"/>
<polyline fill="none" stroke="white" stroke-width="2" points="312.749,-43.2 343.749,-43.2 "/>
<path fill="none" stroke="white" stroke-width="2" d="M343.749,-43.2C349.749,-43.2 355.749,-49.2 355.749,-55.2"/>
<polyline fill="none" stroke="white" stroke-width="2" points="355.749,-55.2 355.749,-67.2 "/>
<path fill="none" stroke="white" stroke-width="2" d="M355.749,-67.2C355.749,-73.2 349.749,-79.2 343.749,-79.2"/>
<text text-anchor="middle" x="328.249" y="-58.7" font-family="Helvetica,sans-Serif" font-size="10.00">WRNIP1</text>
</a>
</g>
<!-- SIN3A_CHD1&#45;&gt;WRNIP1 -->
<g id="edge24" class="edge"><title>SIN3A_CHD1&#45;&gt;WRNIP1</title>
<a xlink:title="WRNIP1: 0.001||SIN3A: 0.007||remove2root">
<path fill="none" stroke="#eecbff" stroke-width="3" d="M139.795,-60.2C184.77,-60.2 251.258,-60.2 292.056,-60.2"/>
<path fill="none" stroke="#eecaff" stroke-width="3" d="M139.795,-62.2C184.77,-62.2 251.258,-62.2 292.056,-62.2"/>
<polygon fill="#eecaff" stroke="#eecaff" points="139.709,-58.4001 131.709,-61.2 139.709,-64.0001 139.709,-58.4001"/>
<polygon fill="#eecbff" stroke="#eecbff" points="292.107,-64.0001 300.107,-61.2 292.107,-58.4001 292.107,-64.0001"/>
</a>
</g>
<!-- MAFB&#45;&gt;HOXA13 -->
<g id="edge30" class="edge"><title>MAFB&#45;&gt;HOXA13</title>
<a xlink:title="HOXA13: 0.236||remove38root">
<path fill="none" stroke="#a6afff" stroke-width="3" d="M171.896,-36.1811C179.545,-64.7264 194.404,-120.183 203.206,-153.029"/>
<polygon fill="#a6afff" stroke="#a6afff" points="200.529,-153.86 205.305,-160.863 205.938,-152.41 200.529,-153.86"/>
</a>
</g>
<!-- MAFB&#45;&gt;ESRRB_ESRRG -->
<g id="edge32" class="edge"><title>MAFB&#45;&gt;ESRRB_ESRRG</title>
<a xlink:title="ESRRB: 0.041||ESRRG: 0.011||remove13root">
<path fill="none" stroke="#ecc5ff" stroke-width="3" d="M185.166,-36.1413C222.141,-73.116 306.209,-157.184 347.567,-198.542"/>
<polygon fill="#ecc5ff" stroke="#ecc5ff" points="345.712,-200.647 353.349,-204.324 349.672,-196.687 345.712,-200.647"/>
</a>
</g>
<!-- MAFB&#45;&gt;ID4_TCF4_SNAI2 -->
<g id="edge34" class="edge"><title>MAFB&#45;&gt;ID4_TCF4_SNAI2</title>
<a xlink:title="TCF4: 0.032||remove10root">
<path fill="none" stroke="#edc6ff" stroke-width="3" d="M177.603,-36.3223C205.628,-84.8626 281.825,-216.84 313.809,-272.238"/>
<polygon fill="#edc6ff" stroke="#edc6ff" points="311.417,-273.694 317.841,-279.222 316.266,-270.894 311.417,-273.694"/>
</a>
</g>
<!-- MAFB&#45;&gt;MAFB -->
<g id="edge38" class="edge"><title>MAFB&#45;&gt;MAFB</title>
<a xlink:title="MAFB: 0.024||remove8root">
<path fill="none" stroke="#edc8ff" stroke-width="3" d="M194.265,-24.7434C204.049,-24.8884 212.025,-22.6406 212.025,-18 212.025,-14.7371 208.081,-12.6571 202.339,-11.7601"/>
<polygon fill="#edc8ff" stroke="#edc8ff" points="202.424,-8.96005 194.265,-11.2566 202.076,-14.5492 202.424,-8.96005"/>
</a>
</g>
<!-- MAFB&#45;&gt;PATZ1_KLF4 -->
<g id="edge36" class="edge"><title>MAFB&#45;&gt;PATZ1_KLF4</title>
<a xlink:title="KLF4: 0.149||PATZ1: 0.093||MAFB: 0.456||remove38">
<path fill="none" stroke="#e7b4ff" stroke-width="3" d="M202.671,-17C204.094,-17 205.528,-17 206.966,-17"/>
<path fill="none" stroke="#d783ff" stroke-width="3" d="M202.671,-19C204.094,-19 205.528,-19 206.966,-19"/>
<polygon fill="#d783ff" stroke="#d783ff" points="202.362,-15.1999 194.362,-18 202.362,-20.7999 202.362,-15.1999"/>
<polygon fill="#e7b4ff" stroke="#e7b4ff" points="207.214,-20.8001 215.214,-18 207.214,-15.2001 207.214,-20.8001"/>
</a>
</g>
<!-- PATZ1_KLF4&#45;&gt;FOXM1_TBL1XR1 -->
<g id="edge78" class="edge"><title>PATZ1_KLF4&#45;&gt;FOXM1_TBL1XR1</title>
<a xlink:title="TBL1XR1: 0.675||remove24">
<path fill="none" stroke="#cc61ff" stroke-width="3" d="M235.283,-36.1413C198.309,-73.116 114.24,-157.184 72.8821,-198.542"/>
<polygon fill="#cc61ff" stroke="#cc61ff" points="70.7776,-196.687 67.1007,-204.324 74.7375,-200.647 70.7776,-196.687"/>
</a>
</g>
<!-- PATZ1_KLF4&#45;&gt;HOXA13 -->
<g id="edge80" class="edge"><title>PATZ1_KLF4&#45;&gt;HOXA13</title>
<a xlink:title="HOXA13: 0.251||remove39root">
<path fill="none" stroke="#a4adff" stroke-width="3" d="M248.553,-36.1811C240.904,-64.7264 226.045,-120.183 217.244,-153.029"/>
<polygon fill="#a4adff" stroke="#a4adff" points="214.511,-152.41 215.145,-160.863 219.92,-153.86 214.511,-152.41"/>
</a>
</g>
<!-- PATZ1_KLF4&#45;&gt;ESRRB_ESRRG -->
<g id="edge82" class="edge"><title>PATZ1_KLF4&#45;&gt;ESRRB_ESRRG</title>
<a xlink:title="ESRRG: 0.040||remove11root">
<path fill="none" stroke="#ecc5ff" stroke-width="3" d="M263.898,-36.1413C285.027,-72.7371 332.791,-155.466 356.919,-197.258"/>
<polygon fill="#ecc5ff" stroke="#ecc5ff" points="354.574,-198.796 360.999,-204.324 359.424,-195.996 354.574,-198.796"/>
</a>
</g>
<!-- PATZ1_KLF4&#45;&gt;PATZ1_KLF4 -->
<g id="edge86" class="edge"><title>PATZ1_KLF4&#45;&gt;PATZ1_KLF4</title>
<a xlink:title="PATZ1: 0.441||KLF4: 0.051||remove39">
<path fill="none" stroke="#d886ff" stroke-width="3" d="M291.639,-24.6907C301.759,-24.3083 309.425,-22.0781 309.425,-18 309.425,-15.1326 305.635,-13.1787 299.867,-12.1384"/>
<polygon fill="#d886ff" stroke="#d886ff" points="299.879,-9.32556 291.639,-11.3093 299.318,-14.8973 299.879,-9.32556"/>
</a>
</g>
<!-- PATZ1_KLF4&#45;&gt;GATA3 -->
<g id="edge84" class="edge"><title>PATZ1_KLF4&#45;&gt;GATA3</title>
<a xlink:title="GATA3: 0.094||remove27root">
<path fill="none" stroke="#e9bdff" stroke-width="3" d="M262.99,-36.1307C270.702,-49.7162 282.433,-68.2646 295.769,-82.08 307.984,-94.7338 323.517,-106.392 337.328,-115.608"/>
<polygon fill="#e9bdff" stroke="#e9bdff" points="336.136,-118.173 344.367,-120.197 339.195,-113.482 336.136,-118.173"/>
</a>
</g>
<!-- WRNIP1&#45;&gt;FOXM1_TBL1XR1 -->
<g id="edge90" class="edge"><title>WRNIP1&#45;&gt;FOXM1_TBL1XR1</title>
<a xlink:title="FOXM1: 0.028||TBL1XR1: 0.019||remove9root">
<path fill="none" stroke="#edc7ff" stroke-width="3" d="M300.709,-77.1001C250.699,-105.974 144.849,-167.086 87.6391,-200.116"/>
<polygon fill="#edc7ff" stroke="#edc7ff" points="86.1018,-197.771 80.5736,-204.196 88.9018,-202.62 86.1018,-197.771"/>
</a>
</g>
<!-- WRNIP1&#45;&gt;HOXA13 -->
<g id="edge92" class="edge"><title>WRNIP1&#45;&gt;HOXA13</title>
<a xlink:title="HOXA13: 0.226||remove37root">
<path fill="none" stroke="#a8b0ff" stroke-width="3" d="M310.067,-79.3827C289.648,-99.8017 256.437,-133.013 233.98,-155.469"/>
<polygon fill="#a8b0ff" stroke="#a8b0ff" points="231.911,-153.578 228.234,-161.215 235.871,-157.538 231.911,-153.578"/>
</a>
</g>
<!-- WRNIP1&#45;&gt;ID4_TCF4_SNAI2 -->
<g id="edge94" class="edge"><title>WRNIP1&#45;&gt;ID4_TCF4_SNAI2</title>
<a xlink:title="ID4: 0.069||SNAI2: 0.057||TCF4: 0.048||remove19root">
<path fill="none" stroke="#ebc1ff" stroke-width="3" d="M325.299,-79.33C320.381,-112.116 311.606,-183.421 317.509,-243.305 318.404,-252.379 320.125,-262.188 321.932,-270.923"/>
<polygon fill="#ebc1ff" stroke="#ebc1ff" points="319.232,-271.685 323.667,-278.908 324.705,-270.496 319.232,-271.685"/>
</a>
</g>
<!-- WRNIP1&#45;&gt;PLAGL1 -->
<g id="edge96" class="edge"><title>WRNIP1&#45;&gt;PLAGL1</title>
<a xlink:title="PLAGL1: 0.019||remove4root">
<path fill="none" stroke="#edc9ff" stroke-width="3" d="M300.709,-68.5792C249.693,-82.2491 140.568,-111.489 84.2468,-126.58"/>
<polygon fill="#edc9ff" stroke="#edc9ff" points="83.3361,-123.925 76.3334,-128.701 84.7855,-129.335 83.3361,-123.925"/>
</a>
</g>
<!-- WRNIP1&#45;&gt;MAFB -->
<g id="edge104" class="edge"><title>WRNIP1&#45;&gt;MAFB</title>
<a xlink:title="MAFB: 0.102||remove28root">
<path fill="none" stroke="#e9bbff" stroke-width="3" d="M300.317,-58.1435C275.87,-54.9563 239.63,-48.9817 209.345,-38.88 206.858,-38.0505 204.331,-37.102 201.814,-36.0775"/>
<polygon fill="#e9bbff" stroke="#e9bbff" points="202.791,-33.4489 194.338,-32.8178 200.552,-38.5821 202.791,-33.4489"/>
</a>
</g>
<!-- WRNIP1&#45;&gt;PATZ1_KLF4 -->
<g id="edge100" class="edge"><title>WRNIP1&#45;&gt;PATZ1_KLF4</title>
<a xlink:title="PATZ1: 0.056||remove17root">
<path fill="none" stroke="#ebc3ff" stroke-width="3" d="M300.387,-45.1139C297.694,-43.5591 294.931,-41.9635 292.157,-40.3623"/>
<polygon fill="#ebc3ff" stroke="#ebc3ff" points="293.163,-37.71 284.835,-36.1349 290.363,-42.5598 293.163,-37.71"/>
</a>
</g>
<!-- WRNIP1&#45;&gt;WRNIP1 -->
<g id="edge102" class="edge"><title>WRNIP1&#45;&gt;WRNIP1</title>
<a xlink:title="WRNIP1: 0.003||remove1root">
<path fill="none" stroke="#eecbff" stroke-width="3" d="M355.933,-67.9484C365.513,-68.0198 373.249,-65.7703 373.249,-61.2 373.249,-58.0579 369.593,-56.0128 364.194,-55.0646"/>
<polygon fill="#eecbff" stroke="#eecbff" points="364.119,-52.2514 355.933,-54.4516 363.704,-57.8361 364.119,-52.2514"/>
</a>
</g>
<!-- WRNIP1&#45;&gt;GATA3 -->
<g id="edge98" class="edge"><title>WRNIP1&#45;&gt;GATA3</title>
<a xlink:title="GATA3: 0.022||remove6root">
<path fill="none" stroke="#edc8ff" stroke-width="3" d="M338.707,-79.3129C344.132,-88.7099 350.849,-100.344 356.784,-110.624"/>
<polygon fill="#edc8ff" stroke="#edc8ff" points="354.513,-112.291 360.938,-117.819 359.363,-109.491 354.513,-112.291"/>
</a>
</g>
<!-- BARHL2&#45;&gt;ESRRB_ESRRG -->
<g id="edge88" class="edge"><title>BARHL2&#45;&gt;ESRRB_ESRRG</title>
<a xlink:title="ESRRG: 0.072||remove21root">
<path fill="none" stroke="#ebc0ff" stroke-width="3" d="M194.859,-322.922C215.881,-309.816 245.532,-291.607 271.989,-276.369 290.756,-265.561 311.806,-254.057 329.691,-244.461"/>
<polygon fill="#ebc0ff" stroke="#ebc0ff" points="331.413,-246.715 337.146,-240.473 328.772,-241.777 331.413,-246.715"/>
</a>
</g>
<!-- GATA3&#45;&gt;HOXA13 -->
<g id="edge72" class="edge"><title>GATA3&#45;&gt;HOXA13</title>
<a xlink:title="HOXA13: 0.149||remove33root">
<path fill="none" stroke="#b4bbff" stroke-width="3" d="M344.1,-143.353C317.082,-150.592 275.617,-161.703 245.997,-169.639"/>
<polygon fill="#b4bbff" stroke="#b4bbff" points="244.981,-167.013 237.979,-171.788 246.431,-172.422 244.981,-167.013"/>
</a>
</g>
<!-- GATA3&#45;&gt;ESRRB_ESRRG -->
<g id="edge74" class="edge"><title>GATA3&#45;&gt;ESRRB_ESRRG</title>
<a xlink:title="ESRRB: 0.130||ESRRG: 0.067||remove31root">
<path fill="none" stroke="#e8b7ff" stroke-width="3" d="M371.449,-154.348C371.449,-166.572 371.449,-182.828 371.449,-196.389"/>
<polygon fill="#e8b7ff" stroke="#e8b7ff" points="368.649,-196.424 371.449,-204.424 374.249,-196.424 368.649,-196.424"/>
</a>
</g>
<!-- GATA3&#45;&gt;MAFB -->
<g id="edge76" class="edge"><title>GATA3&#45;&gt;MAFB</title>
<a xlink:title="MAFB: 0.149||remove33">
<path fill="none" stroke="#e7b4ff" stroke-width="3" d="M344.303,-120.352C307.495,-99.1007 241.742,-61.1378 201.489,-37.8982"/>
<polygon fill="#e7b4ff" stroke="#e7b4ff" points="202.611,-35.3127 194.283,-33.7376 199.811,-40.1625 202.611,-35.3127"/>
</a>
</g>
<!-- HOXB7&#45;&gt;SIN3A_CHD1 -->
<g id="edge106" class="edge"><title>HOXB7&#45;&gt;SIN3A_CHD1</title>
<a xlink:title="SIN3A: 0.021||remove5root">
<path fill="none" stroke="#edc8ff" stroke-width="3" d="M98.0168,-278.989C101.009,-268.64 104.337,-255.383 105.84,-243.305 112.728,-187.965 103.711,-122.7 97.3936,-87.2753"/>
<polygon fill="#edc8ff" stroke="#edc8ff" points="100.137,-86.7127 95.936,-79.3514 94.6296,-87.726 100.137,-86.7127"/>
</a>
</g>
</g>
</svg>
