<?xml version="1.0" encoding="UTF-8" standalone="no"?>
<!DOCTYPE svg PUBLIC "-//W3C//DTD SVG 1.1//EN"
 "http://www.w3.org/Graphics/SVG/1.1/DTD/svg11.dtd">
<!-- Generated by graphviz version 2.28.0 (20110630.0925)
 -->
<!-- Title: _anonymous_0 Pages: 1 -->
<svg width="509pt" height="366pt"
 viewBox="0.00 0.00 509.45 366.45" xmlns="http://www.w3.org/2000/svg" xmlns:xlink="http://www.w3.org/1999/xlink">
<g id="graph1" class="graph" transform="scale(1 1) rotate(0) translate(4 362.449)">
<title>_anonymous_0</title>
<polygon fill="white" stroke="white" points="-4,5 -4,-362.449 506.449,-362.449 506.449,5 -4,5"/>
<!-- ESR1 -->
<g id="node1" class="node"><title>ESR1</title>
<a xlink:href="ESR1.svg" xlink:title="Z&#45;value: 6.597||remove20">
<polygon fill="#3247ff" stroke="#3247ff" stroke-width="2" points="75,-154.025 45,-154.025 33,-142.025 33,-130.025 45,-118.025 75,-118.025 87,-130.025 87,-142.025 75,-154.025"/>
<path fill="#3247ff" stroke="#3247ff" stroke-width="2" d="M45,-154.025C39,-154.025 33,-148.025 33,-142.025"/>
<path fill="#3247ff" stroke="#3247ff" stroke-width="2" d="M33,-130.025C33,-124.025 39,-118.025 45,-118.025"/>
<path fill="#3247ff" stroke="#3247ff" stroke-width="2" d="M75,-118.025C81,-118.025 87,-124.025 87,-130.025"/>
<path fill="#3247ff" stroke="#3247ff" stroke-width="2" d="M87,-142.025C87,-148.025 81,-154.025 75,-154.025"/>
<polyline fill="none" stroke="white" stroke-width="2" points="75,-154.025 45,-154.025 "/>
<path fill="none" stroke="white" stroke-width="2" d="M45,-154.025C39,-154.025 33,-148.025 33,-142.025"/>
<polyline fill="none" stroke="white" stroke-width="2" points="33,-142.025 33,-130.025 "/>
<path fill="none" stroke="white" stroke-width="2" d="M33,-130.025C33,-124.025 39,-118.025 45,-118.025"/>
<polyline fill="none" stroke="white" stroke-width="2" points="45,-118.025 75,-118.025 "/>
<path fill="none" stroke="white" stroke-width="2" d="M75,-118.025C81,-118.025 87,-124.025 87,-130.025"/>
<polyline fill="none" stroke="white" stroke-width="2" points="87,-130.025 87,-142.025 "/>
<path fill="none" stroke="white" stroke-width="2" d="M87,-142.025C87,-148.025 81,-154.025 75,-154.025"/>
<text text-anchor="middle" x="60" y="-133.525" font-family="Helvetica,sans-Serif" font-size="10.00" fill="white">ESR1</text>
</a>
</g>
<!-- HOXD4 -->
<g id="node2" class="node"><title>HOXD4</title>
<a xlink:href="HOXD4.svg" xlink:title="Z&#45;value: 0.478||remove21">
<polygon fill="#ffc0c0" stroke="#ffc0c0" stroke-width="2" points="236.225,-197.225 206.225,-197.225 194.225,-185.225 194.225,-173.225 206.225,-161.225 236.225,-161.225 248.225,-173.225 248.225,-185.225 236.225,-197.225"/>
<path fill="#ffc0c0" stroke="#ffc0c0" stroke-width="2" d="M206.225,-197.225C200.225,-197.225 194.225,-191.225 194.225,-185.225"/>
<path fill="#ffc0c0" stroke="#ffc0c0" stroke-width="2" d="M194.225,-173.225C194.225,-167.225 200.225,-161.225 206.225,-161.225"/>
<path fill="#ffc0c0" stroke="#ffc0c0" stroke-width="2" d="M236.225,-161.225C242.225,-161.225 248.225,-167.225 248.225,-173.225"/>
<path fill="#ffc0c0" stroke="#ffc0c0" stroke-width="2" d="M248.225,-185.225C248.225,-191.225 242.225,-197.225 236.225,-197.225"/>
<polyline fill="none" stroke="white" stroke-width="2" points="236.225,-197.225 206.225,-197.225 "/>
<path fill="none" stroke="white" stroke-width="2" d="M206.225,-197.225C200.225,-197.225 194.225,-191.225 194.225,-185.225"/>
<polyline fill="none" stroke="white" stroke-width="2" points="194.225,-185.225 194.225,-173.225 "/>
<path fill="none" stroke="white" stroke-width="2" d="M194.225,-173.225C194.225,-167.225 200.225,-161.225 206.225,-161.225"/>
<polyline fill="none" stroke="white" stroke-width="2" points="206.225,-161.225 236.225,-161.225 "/>
<path fill="none" stroke="white" stroke-width="2" d="M236.225,-161.225C242.225,-161.225 248.225,-167.225 248.225,-173.225"/>
<polyline fill="none" stroke="white" stroke-width="2" points="248.225,-173.225 248.225,-185.225 "/>
<path fill="none" stroke="white" stroke-width="2" d="M248.225,-185.225C248.225,-191.225 242.225,-197.225 236.225,-197.225"/>
<text text-anchor="middle" x="221.225" y="-176.725" font-family="Helvetica,sans-Serif" font-size="10.00">HOXD4</text>
</a>
</g>
<!-- ESR1&#45;&gt;HOXD4 -->
<g id="edge2" class="edge"><title>ESR1&#45;&gt;HOXD4</title>
<a xlink:title="HOXD4: 0.988||remove20root">
<path fill="none" stroke="#8591ff" stroke-width="3" d="M87.3496,-143.353C114.531,-150.636 156.336,-161.838 185.991,-169.784"/>
<polygon fill="#8591ff" stroke="#8591ff" points="185.558,-172.567 194.01,-171.933 187.008,-167.157 185.558,-172.567"/>
</a>
</g>
<!-- FOXD1_FOXO1_FOXO6_FOXG1_FOXP1 -->
<g id="node4" class="node"><title>FOXD1_FOXO1_FOXO6_FOXG1_FOXP1</title>
<a xlink:href="FOXD1_FOXO1_FOXO6_FOXG1_FOXP1.svg" xlink:title="Z&#45;value: 0.656||remove12">
<polygon fill="#bcc3ff" stroke="#bcc3ff" stroke-width="2" points="471.449,-240.425 293.449,-240.425 281.449,-228.425 281.449,-216.425 293.449,-204.425 471.449,-204.425 483.449,-216.425 483.449,-228.425 471.449,-240.425"/>
<path fill="#bcc3ff" stroke="#bcc3ff" stroke-width="2" d="M293.449,-240.425C287.449,-240.425 281.449,-234.425 281.449,-228.425"/>
<path fill="#bcc3ff" stroke="#bcc3ff" stroke-width="2" d="M281.449,-216.425C281.449,-210.425 287.449,-204.425 293.449,-204.425"/>
<path fill="#bcc3ff" stroke="#bcc3ff" stroke-width="2" d="M471.449,-204.425C477.449,-204.425 483.449,-210.425 483.449,-216.425"/>
<path fill="#bcc3ff" stroke="#bcc3ff" stroke-width="2" d="M483.449,-228.425C483.449,-234.425 477.449,-240.425 471.449,-240.425"/>
<polyline fill="none" stroke="white" stroke-width="2" points="471.449,-240.425 293.449,-240.425 "/>
<path fill="none" stroke="white" stroke-width="2" d="M293.449,-240.425C287.449,-240.425 281.449,-234.425 281.449,-228.425"/>
<polyline fill="none" stroke="white" stroke-width="2" points="281.449,-228.425 281.449,-216.425 "/>
<path fill="none" stroke="white" stroke-width="2" d="M281.449,-216.425C281.449,-210.425 287.449,-204.425 293.449,-204.425"/>
<polyline fill="none" stroke="white" stroke-width="2" points="293.449,-204.425 471.449,-204.425 "/>
<path fill="none" stroke="white" stroke-width="2" d="M471.449,-204.425C477.449,-204.425 483.449,-210.425 483.449,-216.425"/>
<polyline fill="none" stroke="white" stroke-width="2" points="483.449,-216.425 483.449,-228.425 "/>
<path fill="none" stroke="white" stroke-width="2" d="M483.449,-228.425C483.449,-234.425 477.449,-240.425 471.449,-240.425"/>
<text text-anchor="middle" x="382.449" y="-219.925" font-family="Helvetica,sans-Serif" font-size="10.00">FOXD1_FOXO1_FOXO6_FOXG1_FOXP1</text>
</a>
</g>
<!-- HOXD4&#45;&gt;FOXD1_FOXO1_FOXO6_FOXG1_FOXP1 -->
<g id="edge4" class="edge"><title>HOXD4&#45;&gt;FOXD1_FOXO1_FOXO6_FOXG1_FOXP1</title>
<a xlink:title="FOXG1: 0.061||remove12root">
<path fill="none" stroke="#ffc7c7" stroke-width="3" d="M248.574,-186.553C264.746,-190.886 286.094,-196.606 306.979,-202.202"/>
<polygon fill="#ffc7c7" stroke="#ffc7c7" points="306.497,-204.972 314.949,-204.338 307.947,-199.563 306.497,-204.972"/>
</a>
</g>
<!-- GFI1 -->
<g id="node6" class="node"><title>GFI1</title>
<a xlink:href="GFI1.svg" xlink:title="Z&#45;value: 0.612||remove16">
<polygon fill="#bdc4ff" stroke="#bdc4ff" stroke-width="2" points="354.249,-315.249 324.249,-315.249 312.249,-303.249 312.249,-291.249 324.249,-279.249 354.249,-279.249 366.249,-291.249 366.249,-303.249 354.249,-315.249"/>
<path fill="#bdc4ff" stroke="#bdc4ff" stroke-width="2" d="M324.249,-315.249C318.249,-315.249 312.249,-309.249 312.249,-303.249"/>
<path fill="#bdc4ff" stroke="#bdc4ff" stroke-width="2" d="M312.249,-291.249C312.249,-285.249 318.249,-279.249 324.249,-279.249"/>
<path fill="#bdc4ff" stroke="#bdc4ff" stroke-width="2" d="M354.249,-279.249C360.249,-279.249 366.249,-285.249 366.249,-291.249"/>
<path fill="#bdc4ff" stroke="#bdc4ff" stroke-width="2" d="M366.249,-303.249C366.249,-309.249 360.249,-315.249 354.249,-315.249"/>
<polyline fill="none" stroke="white" stroke-width="2" points="354.249,-315.249 324.249,-315.249 "/>
<path fill="none" stroke="white" stroke-width="2" d="M324.249,-315.249C318.249,-315.249 312.249,-309.249 312.249,-303.249"/>
<polyline fill="none" stroke="white" stroke-width="2" points="312.249,-303.249 312.249,-291.249 "/>
<path fill="none" stroke="white" stroke-width="2" d="M312.249,-291.249C312.249,-285.249 318.249,-279.249 324.249,-279.249"/>
<polyline fill="none" stroke="white" stroke-width="2" points="324.249,-279.249 354.249,-279.249 "/>
<path fill="none" stroke="white" stroke-width="2" d="M354.249,-279.249C360.249,-279.249 366.249,-285.249 366.249,-291.249"/>
<polyline fill="none" stroke="white" stroke-width="2" points="366.249,-291.249 366.249,-303.249 "/>
<path fill="none" stroke="white" stroke-width="2" d="M366.249,-303.249C366.249,-309.249 360.249,-315.249 354.249,-315.249"/>
<text text-anchor="middle" x="339.249" y="-294.749" font-family="Helvetica,sans-Serif" font-size="10.00">GFI1</text>
</a>
</g>
<!-- HOXD4&#45;&gt;GFI1 -->
<g id="edge6" class="edge"><title>HOXD4&#45;&gt;GFI1</title>
<a xlink:title="GFI1: 0.104||remove16root">
<path fill="none" stroke="#ffc4c4" stroke-width="3" d="M231.364,-197.285C239.486,-210.834 251.734,-229.367 265.289,-243.305 277.179,-255.529 292.094,-266.982 305.41,-276.164"/>
<polygon fill="#ffc4c4" stroke="#ffc4c4" points="304.006,-278.595 312.204,-280.75 307.14,-273.953 304.006,-278.595"/>
</a>
</g>
<!-- CUX1 -->
<g id="node8" class="node"><title>CUX1</title>
<a xlink:href="CUX1.svg" xlink:title="Z&#45;value: 0.796||remove18">
<polygon fill="#b9c0ff" stroke="#b9c0ff" stroke-width="2" points="279.425,-358.449 249.425,-358.449 237.425,-346.449 237.425,-334.449 249.425,-322.449 279.425,-322.449 291.425,-334.449 291.425,-346.449 279.425,-358.449"/>
<path fill="#b9c0ff" stroke="#b9c0ff" stroke-width="2" d="M249.425,-358.449C243.425,-358.449 237.425,-352.449 237.425,-346.449"/>
<path fill="#b9c0ff" stroke="#b9c0ff" stroke-width="2" d="M237.425,-334.449C237.425,-328.449 243.425,-322.449 249.425,-322.449"/>
<path fill="#b9c0ff" stroke="#b9c0ff" stroke-width="2" d="M279.425,-322.449C285.425,-322.449 291.425,-328.449 291.425,-334.449"/>
<path fill="#b9c0ff" stroke="#b9c0ff" stroke-width="2" d="M291.425,-346.449C291.425,-352.449 285.425,-358.449 279.425,-358.449"/>
<polyline fill="none" stroke="white" stroke-width="2" points="279.425,-358.449 249.425,-358.449 "/>
<path fill="none" stroke="white" stroke-width="2" d="M249.425,-358.449C243.425,-358.449 237.425,-352.449 237.425,-346.449"/>
<polyline fill="none" stroke="white" stroke-width="2" points="237.425,-346.449 237.425,-334.449 "/>
<path fill="none" stroke="white" stroke-width="2" d="M237.425,-334.449C237.425,-328.449 243.425,-322.449 249.425,-322.449"/>
<polyline fill="none" stroke="white" stroke-width="2" points="249.425,-322.449 279.425,-322.449 "/>
<path fill="none" stroke="white" stroke-width="2" d="M279.425,-322.449C285.425,-322.449 291.425,-328.449 291.425,-334.449"/>
<polyline fill="none" stroke="white" stroke-width="2" points="291.425,-334.449 291.425,-346.449 "/>
<path fill="none" stroke="white" stroke-width="2" d="M291.425,-346.449C291.425,-352.449 285.425,-358.449 279.425,-358.449"/>
<text text-anchor="middle" x="264.425" y="-337.949" font-family="Helvetica,sans-Serif" font-size="10.00">CUX1</text>
</a>
</g>
<!-- HOXD4&#45;&gt;CUX1 -->
<g id="edge8" class="edge"><title>HOXD4&#45;&gt;CUX1</title>
<a xlink:title="CUX1: 0.203||remove18root">
<path fill="none" stroke="#ffbdbd" stroke-width="3" d="M226.096,-197.406C233.745,-225.951 248.604,-281.407 257.406,-314.254"/>
<polygon fill="#ffbdbd" stroke="#ffbdbd" points="254.729,-315.084 259.505,-322.087 260.138,-313.635 254.729,-315.084"/>
</a>
</g>
<!-- SOX6 -->
<g id="node10" class="node"><title>SOX6</title>
<a xlink:href="SOX6.svg" xlink:title="Z&#45;value: 0.520||remove15">
<polygon fill="#bfc6ff" stroke="#bfc6ff" stroke-width="2" points="193.025,-358.449 163.025,-358.449 151.025,-346.449 151.025,-334.449 163.025,-322.449 193.025,-322.449 205.025,-334.449 205.025,-346.449 193.025,-358.449"/>
<path fill="#bfc6ff" stroke="#bfc6ff" stroke-width="2" d="M163.025,-358.449C157.025,-358.449 151.025,-352.449 151.025,-346.449"/>
<path fill="#bfc6ff" stroke="#bfc6ff" stroke-width="2" d="M151.025,-334.449C151.025,-328.449 157.025,-322.449 163.025,-322.449"/>
<path fill="#bfc6ff" stroke="#bfc6ff" stroke-width="2" d="M193.025,-322.449C199.025,-322.449 205.025,-328.449 205.025,-334.449"/>
<path fill="#bfc6ff" stroke="#bfc6ff" stroke-width="2" d="M205.025,-346.449C205.025,-352.449 199.025,-358.449 193.025,-358.449"/>
<polyline fill="none" stroke="white" stroke-width="2" points="193.025,-358.449 163.025,-358.449 "/>
<path fill="none" stroke="white" stroke-width="2" d="M163.025,-358.449C157.025,-358.449 151.025,-352.449 151.025,-346.449"/>
<polyline fill="none" stroke="white" stroke-width="2" points="151.025,-346.449 151.025,-334.449 "/>
<path fill="none" stroke="white" stroke-width="2" d="M151.025,-334.449C151.025,-328.449 157.025,-322.449 163.025,-322.449"/>
<polyline fill="none" stroke="white" stroke-width="2" points="163.025,-322.449 193.025,-322.449 "/>
<path fill="none" stroke="white" stroke-width="2" d="M193.025,-322.449C199.025,-322.449 205.025,-328.449 205.025,-334.449"/>
<polyline fill="none" stroke="white" stroke-width="2" points="205.025,-334.449 205.025,-346.449 "/>
<path fill="none" stroke="white" stroke-width="2" d="M205.025,-346.449C205.025,-352.449 199.025,-358.449 193.025,-358.449"/>
<text text-anchor="middle" x="178.025" y="-337.949" font-family="Helvetica,sans-Serif" font-size="10.00">SOX6</text>
</a>
</g>
<!-- HOXD4&#45;&gt;SOX6 -->
<g id="edge10" class="edge"><title>HOXD4&#45;&gt;SOX6</title>
<a xlink:title="SOX6: 0.096||remove15root">
<path fill="none" stroke="#ffc5c5" stroke-width="3" d="M216.353,-197.406C208.704,-225.951 193.845,-281.407 185.044,-314.254"/>
<polygon fill="#ffc5c5" stroke="#ffc5c5" points="182.311,-313.635 182.945,-322.087 187.72,-315.084 182.311,-313.635"/>
</a>
</g>
<!-- ZBTB33_CHD2 -->
<g id="node12" class="node"><title>ZBTB33_CHD2</title>
<a xlink:href="ZBTB33_CHD2.svg" xlink:title="Z&#45;value: 1.181||remove7">
<polygon fill="#b0b8ff" stroke="#b0b8ff" stroke-width="2" points="134.2,-315.249 72.2,-315.249 60.2,-303.249 60.2,-291.249 72.2,-279.249 134.2,-279.249 146.2,-291.249 146.2,-303.249 134.2,-315.249"/>
<path fill="#b0b8ff" stroke="#b0b8ff" stroke-width="2" d="M72.2,-315.249C66.2,-315.249 60.2,-309.249 60.2,-303.249"/>
<path fill="#b0b8ff" stroke="#b0b8ff" stroke-width="2" d="M60.2,-291.249C60.2,-285.249 66.2,-279.249 72.2,-279.249"/>
<path fill="#b0b8ff" stroke="#b0b8ff" stroke-width="2" d="M134.2,-279.249C140.2,-279.249 146.2,-285.249 146.2,-291.249"/>
<path fill="#b0b8ff" stroke="#b0b8ff" stroke-width="2" d="M146.2,-303.249C146.2,-309.249 140.2,-315.249 134.2,-315.249"/>
<polyline fill="none" stroke="white" stroke-width="2" points="134.2,-315.249 72.2,-315.249 "/>
<path fill="none" stroke="white" stroke-width="2" d="M72.2,-315.249C66.2,-315.249 60.2,-309.249 60.2,-303.249"/>
<polyline fill="none" stroke="white" stroke-width="2" points="60.2,-303.249 60.2,-291.249 "/>
<path fill="none" stroke="white" stroke-width="2" d="M60.2,-291.249C60.2,-285.249 66.2,-279.249 72.2,-279.249"/>
<polyline fill="none" stroke="white" stroke-width="2" points="72.2,-279.249 134.2,-279.249 "/>
<path fill="none" stroke="white" stroke-width="2" d="M134.2,-279.249C140.2,-279.249 146.2,-285.249 146.2,-291.249"/>
<polyline fill="none" stroke="white" stroke-width="2" points="146.2,-291.249 146.2,-303.249 "/>
<path fill="none" stroke="white" stroke-width="2" d="M146.2,-303.249C146.2,-309.249 140.2,-315.249 134.2,-315.249"/>
<text text-anchor="middle" x="103.2" y="-294.749" font-family="Helvetica,sans-Serif" font-size="10.00">ZBTB33_CHD2</text>
</a>
</g>
<!-- HOXD4&#45;&gt;ZBTB33_CHD2 -->
<g id="edge12" class="edge"><title>HOXD4&#45;&gt;ZBTB33_CHD2</title>
<a xlink:title="CHD2: 0.039||remove7root">
<path fill="none" stroke="#ffc9c9" stroke-width="3" d="M203.042,-197.407C182.623,-217.826 149.412,-251.037 126.955,-273.494"/>
<polygon fill="#ffc9c9" stroke="#ffc9c9" points="124.887,-271.603 121.21,-279.24 128.846,-275.563 124.887,-271.603"/>
</a>
</g>
<!-- RXRA_NR2F6_NR2C2 -->
<g id="node14" class="node"><title>RXRA_NR2F6_NR2C2</title>
<a xlink:href="RXRA_NR2F6_NR2C2.svg" xlink:title="Z&#45;value: 0.563||remove17">
<polygon fill="#bec5ff" stroke="#bec5ff" stroke-width="2" points="107.5,-240.425 12.5,-240.425 0.5,-228.425 0.5,-216.425 12.5,-204.425 107.5,-204.425 119.5,-216.425 119.5,-228.425 107.5,-240.425"/>
<path fill="#bec5ff" stroke="#bec5ff" stroke-width="2" d="M12.5,-240.425C6.5,-240.425 0.5,-234.425 0.5,-228.425"/>
<path fill="#bec5ff" stroke="#bec5ff" stroke-width="2" d="M0.5,-216.425C0.5,-210.425 6.5,-204.425 12.5,-204.425"/>
<path fill="#bec5ff" stroke="#bec5ff" stroke-width="2" d="M107.5,-204.425C113.5,-204.425 119.5,-210.425 119.5,-216.425"/>
<path fill="#bec5ff" stroke="#bec5ff" stroke-width="2" d="M119.5,-228.425C119.5,-234.425 113.5,-240.425 107.5,-240.425"/>
<polyline fill="none" stroke="white" stroke-width="2" points="107.5,-240.425 12.5,-240.425 "/>
<path fill="none" stroke="white" stroke-width="2" d="M12.5,-240.425C6.5,-240.425 0.5,-234.425 0.5,-228.425"/>
<polyline fill="none" stroke="white" stroke-width="2" points="0.5,-228.425 0.5,-216.425 "/>
<path fill="none" stroke="white" stroke-width="2" d="M0.5,-216.425C0.5,-210.425 6.5,-204.425 12.5,-204.425"/>
<polyline fill="none" stroke="white" stroke-width="2" points="12.5,-204.425 107.5,-204.425 "/>
<path fill="none" stroke="white" stroke-width="2" d="M107.5,-204.425C113.5,-204.425 119.5,-210.425 119.5,-216.425"/>
<polyline fill="none" stroke="white" stroke-width="2" points="119.5,-216.425 119.5,-228.425 "/>
<path fill="none" stroke="white" stroke-width="2" d="M119.5,-228.425C119.5,-234.425 113.5,-240.425 107.5,-240.425"/>
<text text-anchor="middle" x="60" y="-219.925" font-family="Helvetica,sans-Serif" font-size="10.00">RXRA_NR2F6_NR2C2</text>
</a>
</g>
<!-- HOXD4&#45;&gt;RXRA_NR2F6_NR2C2 -->
<g id="edge14" class="edge"><title>HOXD4&#45;&gt;RXRA_NR2F6_NR2C2</title>
<a xlink:title="NR2C2: 0.107||remove17root">
<path fill="none" stroke="#ffc4c4" stroke-width="3" d="M193.875,-186.553C175.795,-191.397 151.244,-197.976 128.103,-204.176"/>
<polygon fill="#ffc4c4" stroke="#ffc4c4" points="127.323,-201.486 120.321,-206.262 128.773,-206.896 127.323,-201.486"/>
</a>
</g>
<!-- FOXD1_FOXO1_FOXO6_FOXG1_FOXP1&#45;&gt;FOXD1_FOXO1_FOXO6_FOXG1_FOXP1 -->
<g id="edge24" class="edge"><title>FOXD1_FOXO1_FOXO6_FOXG1_FOXP1&#45;&gt;FOXD1_FOXO1_FOXO6_FOXG1_FOXP1</title>
<a xlink:title="FOXP1: 0.292||FOXO1: 0.176||remove12">
<path fill="none" stroke="#e7b7ff" stroke-width="3" d="M483.587,-228.061C494.457,-226.975 501.449,-225.096 501.449,-222.425 501.449,-220.504 497.837,-218.994 491.769,-217.893"/>
<polygon fill="#e7b7ff" stroke="#e7b7ff" points="491.889,-215.084 483.587,-216.789 491.14,-220.633 491.889,-215.084"/>
</a>
</g>
<!-- FOXD1_FOXO1_FOXO6_FOXG1_FOXP1&#45;&gt;SOX6 -->
<g id="edge26" class="edge"><title>FOXD1_FOXO1_FOXO6_FOXG1_FOXP1&#45;&gt;SOX6</title>
<a xlink:title="SOX6: 0.014||remove3root">
<path fill="none" stroke="#eecaff" stroke-width="3" d="M350.956,-240.607C313.421,-262.278 250.93,-298.357 212.236,-320.697"/>
<polygon fill="#eecaff" stroke="#eecaff" points="210.828,-318.277 205.299,-324.702 213.628,-323.127 210.828,-318.277"/>
</a>
</g>
<!-- SMAD1 -->
<g id="node23" class="node"><title>SMAD1</title>
<a xlink:href="SMAD1.svg" xlink:title="Z&#45;value: 1.536||remove13">
<polygon fill="#a8b1ff" stroke="#a8b1ff" stroke-width="2" points="193.025,-36 163.025,-36 151.025,-24 151.025,-12 163.025,-6.39488e-14 193.025,-6.39488e-14 205.025,-12 205.025,-24 193.025,-36"/>
<path fill="#a8b1ff" stroke="#a8b1ff" stroke-width="2" d="M163.025,-36C157.025,-36 151.025,-30 151.025,-24"/>
<path fill="#a8b1ff" stroke="#a8b1ff" stroke-width="2" d="M151.025,-12C151.025,-6 157.025,-6.39488e-14 163.025,-6.39488e-14"/>
<path fill="#a8b1ff" stroke="#a8b1ff" stroke-width="2" d="M193.025,-6.39488e-14C199.025,-6.39488e-14 205.025,-6 205.025,-12"/>
<path fill="#a8b1ff" stroke="#a8b1ff" stroke-width="2" d="M205.025,-24C205.025,-30 199.025,-36 193.025,-36"/>
<polyline fill="none" stroke="white" stroke-width="2" points="193.025,-36 163.025,-36 "/>
<path fill="none" stroke="white" stroke-width="2" d="M163.025,-36C157.025,-36 151.025,-30 151.025,-24"/>
<polyline fill="none" stroke="white" stroke-width="2" points="151.025,-24 151.025,-12 "/>
<path fill="none" stroke="white" stroke-width="2" d="M151.025,-12C151.025,-6 157.025,-6.39488e-14 163.025,-6.39488e-14"/>
<polyline fill="none" stroke="white" stroke-width="2" points="163.025,-6.39488e-14 193.025,-6.39488e-14 "/>
<path fill="none" stroke="white" stroke-width="2" d="M193.025,-6.39488e-14C199.025,-6.39488e-14 205.025,-6 205.025,-12"/>
<polyline fill="none" stroke="white" stroke-width="2" points="205.025,-12 205.025,-24 "/>
<path fill="none" stroke="white" stroke-width="2" d="M205.025,-24C205.025,-30 199.025,-36 193.025,-36"/>
<text text-anchor="middle" x="178.025" y="-15.5" font-family="Helvetica,sans-Serif" font-size="10.00">SMAD1</text>
</a>
</g>
<!-- FOXD1_FOXO1_FOXO6_FOXG1_FOXP1&#45;&gt;SMAD1 -->
<g id="edge28" class="edge"><title>FOXD1_FOXO1_FOXO6_FOXG1_FOXP1&#45;&gt;SMAD1</title>
<a xlink:title="SMAD1: 0.027||FOXP1: 0.076||remove12">
<path fill="none" stroke="#eecaff" stroke-width="3" d="M357.814,-199.204C318.527,-159.916 240.786,-82.1758 201.399,-42.7882"/>
<path fill="none" stroke="#ecc6ff" stroke-width="3" d="M359.229,-197.79C319.941,-158.502 242.2,-80.7616 202.813,-41.374"/>
<polygon fill="#ecc6ff" stroke="#ecc6ff" points="356.671,-200.606 364.308,-204.283 360.631,-196.646 356.671,-200.606"/>
<polygon fill="#eecaff" stroke="#eecaff" points="203.762,-39.7776 196.125,-36.1007 199.802,-43.7375 203.762,-39.7776"/>
</a>
</g>
<!-- SOX3_SOX2 -->
<g id="node25" class="node"><title>SOX3_SOX2</title>
<a xlink:href="SOX3_SOX2.svg" xlink:title="Z&#45;value: 0.860||remove9">
<polygon fill="#b8bfff" stroke="#b8bfff" stroke-width="2" points="289.425,-36 239.425,-36 227.425,-24 227.425,-12 239.425,-0 289.425,-0 301.425,-12 301.425,-24 289.425,-36"/>
<path fill="#b8bfff" stroke="#b8bfff" stroke-width="2" d="M239.425,-36C233.425,-36 227.425,-30 227.425,-24"/>
<path fill="#b8bfff" stroke="#b8bfff" stroke-width="2" d="M227.425,-12C227.425,-6 233.425,-0 239.425,-0"/>
<path fill="#b8bfff" stroke="#b8bfff" stroke-width="2" d="M289.425,-0C295.425,-0 301.425,-6 301.425,-12"/>
<path fill="#b8bfff" stroke="#b8bfff" stroke-width="2" d="M301.425,-24C301.425,-30 295.425,-36 289.425,-36"/>
<polyline fill="none" stroke="white" stroke-width="2" points="289.425,-36 239.425,-36 "/>
<path fill="none" stroke="white" stroke-width="2" d="M239.425,-36C233.425,-36 227.425,-30 227.425,-24"/>
<polyline fill="none" stroke="white" stroke-width="2" points="227.425,-24 227.425,-12 "/>
<path fill="none" stroke="white" stroke-width="2" d="M227.425,-12C227.425,-6 233.425,-0 239.425,-0"/>
<polyline fill="none" stroke="white" stroke-width="2" points="239.425,-0 289.425,-0 "/>
<path fill="none" stroke="white" stroke-width="2" d="M289.425,-0C295.425,-0 301.425,-6 301.425,-12"/>
<polyline fill="none" stroke="white" stroke-width="2" points="301.425,-12 301.425,-24 "/>
<path fill="none" stroke="white" stroke-width="2" d="M301.425,-24C301.425,-30 295.425,-36 289.425,-36"/>
<text text-anchor="middle" x="264.425" y="-15.5" font-family="Helvetica,sans-Serif" font-size="10.00">SOX3_SOX2</text>
</a>
</g>
<!-- FOXD1_FOXO1_FOXO6_FOXG1_FOXP1&#45;&gt;SOX3_SOX2 -->
<g id="edge30" class="edge"><title>FOXD1_FOXO1_FOXO6_FOXG1_FOXP1&#45;&gt;SOX3_SOX2</title>
<a xlink:title="SOX2: 0.033||FOXP1: 0.474||remove9">
<path fill="none" stroke="#edc9ff" stroke-width="3" d="M367.026,-197.711C344.39,-158.504 300.996,-83.3434 278.267,-43.9757"/>
<path fill="none" stroke="#e3aaff" stroke-width="3" d="M368.758,-196.711C346.122,-157.504 302.728,-82.3434 279.999,-42.9757"/>
<polygon fill="#e3aaff" stroke="#e3aaff" points="365.55,-198.755 371.975,-204.283 370.4,-195.955 365.55,-198.755"/>
<polygon fill="#edc9ff" stroke="#edc9ff" points="281.3,-41.6289 274.875,-36.1007 276.45,-44.4289 281.3,-41.6289"/>
</a>
</g>
<!-- SOX6&#45;&gt;SOX3_SOX2 -->
<g id="edge72" class="edge"><title>SOX6&#45;&gt;SOX3_SOX2</title>
<a xlink:title="SOX2: 0.089||remove9">
<path fill="none" stroke="#ecc5ff" stroke-width="3" d="M191.124,-322.023C208.69,-296.186 239.208,-247.077 252.545,-200.105 267.805,-146.353 267.678,-80.235 266.121,-44.2997"/>
<polygon fill="#ecc5ff" stroke="#ecc5ff" points="268.916,-44.1139 265.727,-36.2609 263.323,-44.3886 268.916,-44.1139"/>
</a>
</g>
<!-- ZBTB33_CHD2&#45;&gt;CUX1 -->
<g id="edge58" class="edge"><title>ZBTB33_CHD2&#45;&gt;CUX1</title>
<a xlink:title="CUX1: 0.018||remove4root">
<path fill="none" stroke="#eecaff" stroke-width="3" d="M146.442,-304.765C165.849,-308.541 188.923,-313.59 209.345,-319.569 215.976,-321.511 222.943,-323.881 229.607,-326.32"/>
<polygon fill="#eecaff" stroke="#eecaff" points="228.779,-329 237.253,-329.192 230.749,-323.758 228.779,-329"/>
</a>
</g>
<!-- FUBP1 -->
<g id="node33" class="node"><title>FUBP1</title>
<a xlink:href="FUBP1.svg" xlink:title="Z&#45;value: 0.535||remove8">
<polygon fill="#bfc5ff" stroke="#bfc5ff" stroke-width="2" points="397.449,-154.025 367.449,-154.025 355.449,-142.025 355.449,-130.025 367.449,-118.025 397.449,-118.025 409.449,-130.025 409.449,-142.025 397.449,-154.025"/>
<path fill="#bfc5ff" stroke="#bfc5ff" stroke-width="2" d="M367.449,-154.025C361.449,-154.025 355.449,-148.025 355.449,-142.025"/>
<path fill="#bfc5ff" stroke="#bfc5ff" stroke-width="2" d="M355.449,-130.025C355.449,-124.025 361.449,-118.025 367.449,-118.025"/>
<path fill="#bfc5ff" stroke="#bfc5ff" stroke-width="2" d="M397.449,-118.025C403.449,-118.025 409.449,-124.025 409.449,-130.025"/>
<path fill="#bfc5ff" stroke="#bfc5ff" stroke-width="2" d="M409.449,-142.025C409.449,-148.025 403.449,-154.025 397.449,-154.025"/>
<polyline fill="none" stroke="white" stroke-width="2" points="397.449,-154.025 367.449,-154.025 "/>
<path fill="none" stroke="white" stroke-width="2" d="M367.449,-154.025C361.449,-154.025 355.449,-148.025 355.449,-142.025"/>
<polyline fill="none" stroke="white" stroke-width="2" points="355.449,-142.025 355.449,-130.025 "/>
<path fill="none" stroke="white" stroke-width="2" d="M355.449,-130.025C355.449,-124.025 361.449,-118.025 367.449,-118.025"/>
<polyline fill="none" stroke="white" stroke-width="2" points="367.449,-118.025 397.449,-118.025 "/>
<path fill="none" stroke="white" stroke-width="2" d="M397.449,-118.025C403.449,-118.025 409.449,-124.025 409.449,-130.025"/>
<polyline fill="none" stroke="white" stroke-width="2" points="409.449,-130.025 409.449,-142.025 "/>
<path fill="none" stroke="white" stroke-width="2" d="M409.449,-142.025C409.449,-148.025 403.449,-154.025 397.449,-154.025"/>
<text text-anchor="middle" x="382.449" y="-133.525" font-family="Helvetica,sans-Serif" font-size="10.00">FUBP1</text>
</a>
</g>
<!-- ZBTB33_CHD2&#45;&gt;FUBP1 -->
<g id="edge56" class="edge"><title>ZBTB33_CHD2&#45;&gt;FUBP1</title>
<a xlink:title="FUBP1: 0.078||remove7">
<path fill="none" stroke="#ecc6ff" stroke-width="3" d="M133.249,-279.222C165.696,-259.823 218.964,-228.169 265.289,-201.545 293.002,-185.617 324.65,-167.949 348.062,-154.978"/>
<polygon fill="#ecc6ff" stroke="#ecc6ff" points="349.714,-157.263 355.358,-150.939 347.003,-152.364 349.714,-157.263"/>
</a>
</g>
<!-- RXRA_NR2F6_NR2C2&#45;&gt;CUX1 -->
<g id="edge32" class="edge"><title>RXRA_NR2F6_NR2C2&#45;&gt;CUX1</title>
<a xlink:title="CUX1: 0.046||remove10root">
<path fill="none" stroke="#edc8ff" stroke-width="3" d="M91.4933,-240.607C129.028,-262.278 191.519,-298.357 230.213,-320.697"/>
<polygon fill="#edc8ff" stroke="#edc8ff" points="228.822,-323.127 237.15,-324.702 231.622,-318.277 228.822,-323.127"/>
</a>
</g>
<!-- RXRA_NR2F6_NR2C2&#45;&gt;RXRA_NR2F6_NR2C2 -->
<g id="edge34" class="edge"><title>RXRA_NR2F6_NR2C2&#45;&gt;RXRA_NR2F6_NR2C2</title>
<a xlink:title="NR2F6: 0.058||NR2C2: 0.022||remove11root">
<path fill="none" stroke="#edc7ff" stroke-width="3" d="M119.728,-228.726C129.931,-227.865 137,-225.764 137,-222.425 137,-220.076 133.505,-218.341 127.883,-217.218"/>
<polygon fill="#edc7ff" stroke="#edc7ff" points="128.029,-214.412 119.728,-216.123 127.284,-219.963 128.029,-214.412"/>
</a>
</g>
<!-- ESRRA_ESR2 -->
<g id="node16" class="node"><title>ESRRA_ESR2</title>
<a xlink:href="ESRRA_ESR2.svg" xlink:title="Z&#45;value: 3.814||remove19">
<polygon fill="#7381ff" stroke="#7381ff" stroke-width="2" points="132.45,-79.2 73.95,-79.2 61.95,-67.2 61.95,-55.2 73.95,-43.2 132.45,-43.2 144.45,-55.2 144.45,-67.2 132.45,-79.2"/>
<path fill="#7381ff" stroke="#7381ff" stroke-width="2" d="M73.95,-79.2C67.95,-79.2 61.95,-73.2 61.95,-67.2"/>
<path fill="#7381ff" stroke="#7381ff" stroke-width="2" d="M61.95,-55.2C61.95,-49.2 67.95,-43.2 73.95,-43.2"/>
<path fill="#7381ff" stroke="#7381ff" stroke-width="2" d="M132.45,-43.2C138.45,-43.2 144.45,-49.2 144.45,-55.2"/>
<path fill="#7381ff" stroke="#7381ff" stroke-width="2" d="M144.45,-67.2C144.45,-73.2 138.45,-79.2 132.45,-79.2"/>
<polyline fill="none" stroke="white" stroke-width="2" points="132.45,-79.2 73.95,-79.2 "/>
<path fill="none" stroke="white" stroke-width="2" d="M73.95,-79.2C67.95,-79.2 61.95,-73.2 61.95,-67.2"/>
<polyline fill="none" stroke="white" stroke-width="2" points="61.95,-67.2 61.95,-55.2 "/>
<path fill="none" stroke="white" stroke-width="2" d="M61.95,-55.2C61.95,-49.2 67.95,-43.2 73.95,-43.2"/>
<polyline fill="none" stroke="white" stroke-width="2" points="73.95,-43.2 132.45,-43.2 "/>
<path fill="none" stroke="white" stroke-width="2" d="M132.45,-43.2C138.45,-43.2 144.45,-49.2 144.45,-55.2"/>
<polyline fill="none" stroke="white" stroke-width="2" points="144.45,-55.2 144.45,-67.2 "/>
<path fill="none" stroke="white" stroke-width="2" d="M144.45,-67.2C144.45,-73.2 138.45,-79.2 132.45,-79.2"/>
<text text-anchor="middle" x="103.2" y="-58.7" font-family="Helvetica,sans-Serif" font-size="10.00">ESRRA_ESR2</text>
</a>
</g>
<!-- ESRRA_ESR2&#45;&gt;ESR1 -->
<g id="edge18" class="edge"><title>ESRRA_ESR2&#45;&gt;ESR1</title>
<a xlink:title="ESR1: 2.139||remove19">
<path fill="none" stroke="#bd32ff" stroke-width="3" d="M92.7425,-79.3129C87.3171,-88.7099 80.6003,-100.344 74.665,-110.624"/>
<polygon fill="#bd32ff" stroke="#bd32ff" points="72.0861,-109.491 70.5109,-117.819 76.9359,-112.291 72.0861,-109.491"/>
</a>
</g>
<!-- ESRRA_ESR2&#45;&gt;HOXD4 -->
<g id="edge20" class="edge"><title>ESRRA_ESR2&#45;&gt;HOXD4</title>
<a xlink:title="HOXD4: 0.623||remove19root">
<path fill="none" stroke="#9fa8ff" stroke-width="3" d="M121.383,-79.3827C141.802,-99.8017 175.013,-133.013 197.469,-155.469"/>
<polygon fill="#9fa8ff" stroke="#9fa8ff" points="195.578,-157.538 203.215,-161.215 199.538,-153.578 195.578,-157.538"/>
</a>
</g>
<!-- ESRRA_ESR2&#45;&gt;FOXD1_FOXO1_FOXO6_FOXG1_FOXP1 -->
<g id="edge16" class="edge"><title>ESRRA_ESR2&#45;&gt;FOXD1_FOXO1_FOXO6_FOXG1_FOXP1</title>
<a xlink:title="FOXP1: 1.145||FOXG1: 0.675||FOXO1: 0.161||remove12">
<path fill="none" stroke="#d47aff" stroke-width="3" d="M134.421,-79.2252C185.771,-108.872 287.917,-167.846 343.768,-200.092"/>
<polygon fill="#d47aff" stroke="#d47aff" points="342.674,-202.694 351.002,-204.269 345.474,-197.844 342.674,-202.694"/>
</a>
</g>
<!-- ESRRA_ESR2&#45;&gt;RXRA_NR2F6_NR2C2 -->
<g id="edge22" class="edge"><title>ESRRA_ESR2&#45;&gt;RXRA_NR2F6_NR2C2</title>
<a xlink:title="RXRA: 1.387||NR2F6: 0.896||NR2C2: 0.129||ESRRA: 0.089||remove17">
<path fill="none" stroke="#ce68ff" stroke-width="3" d="M103.201,-87.7287C101.916,-107.249 98.9914,-134.197 92.2797,-157.185 88.1911,-171.119 81.5368,-185.623 75.3767,-197.511"/>
<path fill="none" stroke="#ecc5ff" stroke-width="3" d="M101.205,-87.5975C99.928,-107.033 97.0031,-133.981 90.3603,-156.624 86.3733,-170.285 79.719,-184.789 73.6011,-196.591"/>
<polygon fill="#ecc5ff" stroke="#ecc5ff" points="105.006,-87.6922 102.67,-79.5445 99.4151,-87.3703 105.006,-87.6922"/>
<polygon fill="#ce68ff" stroke="#ce68ff" points="71.855,-196.04 70.5618,-204.417 76.7965,-198.675 71.855,-196.04"/>
</a>
</g>
<!-- SMAD1&#45;&gt;ESR1 -->
<g id="edge50" class="edge"><title>SMAD1&#45;&gt;ESR1</title>
<a xlink:title="ESR1: 0.006||remove1root">
<path fill="none" stroke="#eecbff" stroke-width="3" d="M173.793,-36.2589C169.847,-50.0895 162.809,-68.8964 151.34,-82.08 135.974,-99.7438 113.345,-113.167 94.4554,-122.205"/>
<polygon fill="#eecbff" stroke="#eecbff" points="93.2478,-119.679 87.1565,-125.573 95.5938,-124.764 93.2478,-119.679"/>
</a>
</g>
<!-- SMAD1&#45;&gt;HOXD4 -->
<g id="edge52" class="edge"><title>SMAD1&#45;&gt;HOXD4</title>
<a xlink:title="HOXD4: 0.071||remove13root">
<path fill="none" stroke="#c6ccff" stroke-width="3" d="M182.896,-36.1811C190.545,-64.7264 205.404,-120.183 214.206,-153.029"/>
<polygon fill="#c6ccff" stroke="#c6ccff" points="211.529,-153.86 216.305,-160.863 216.938,-152.41 211.529,-153.86"/>
</a>
</g>
<!-- SMAD1&#45;&gt;ZBTB33_CHD2 -->
<g id="edge54" class="edge"><title>SMAD1&#45;&gt;ZBTB33_CHD2</title>
<a xlink:title="CHD2: 0.274||remove7">
<path fill="none" stroke="#e8b8ff" stroke-width="3" d="M175.645,-36.2217C170.241,-75.0815 155.46,-168.639 129.6,-243.305 126.241,-253.003 121.562,-263.219 117.074,-272.121"/>
<polygon fill="#e8b8ff" stroke="#e8b8ff" points="114.576,-270.857 113.383,-279.249 119.548,-273.432 114.576,-270.857"/>
</a>
</g>
<!-- SOX3_SOX2&#45;&gt;HOXD4 -->
<g id="edge64" class="edge"><title>SOX3_SOX2&#45;&gt;HOXD4</title>
<a xlink:title="HOXD4: 0.043||remove9root">
<path fill="none" stroke="#c8ceff" stroke-width="3" d="M259.553,-36.1811C251.904,-64.7264 237.045,-120.183 228.244,-153.029"/>
<polygon fill="#c8ceff" stroke="#c8ceff" points="225.511,-152.41 226.145,-160.863 230.92,-153.86 225.511,-152.41"/>
</a>
</g>
<!-- SOX3_SOX2&#45;&gt;ZBTB33_CHD2 -->
<g id="edge66" class="edge"><title>SOX3_SOX2&#45;&gt;ZBTB33_CHD2</title>
<a xlink:title="CHD2: 0.008||ZBTB33: 0.001||remove2root">
<path fill="none" stroke="#eecbff" stroke-width="3" d="M253.846,-36.3223C225.821,-84.8626 149.625,-216.84 117.64,-272.238"/>
<polygon fill="#eecbff" stroke="#eecbff" points="115.183,-270.894 113.608,-279.222 120.033,-273.694 115.183,-270.894"/>
</a>
</g>
<!-- SOX3_SOX2&#45;&gt;SMAD1 -->
<g id="edge68" class="edge"><title>SOX3_SOX2&#45;&gt;SMAD1</title>
<a xlink:title="SMAD1: 0.364||remove9">
<path fill="none" stroke="#e6b2ff" stroke-width="3" d="M227.282,-18C222.651,-18 217.925,-18 213.324,-18"/>
<polygon fill="#e6b2ff" stroke="#e6b2ff" points="213.221,-15.1999 205.221,-18 213.221,-20.7999 213.221,-15.1999"/>
</a>
</g>
<!-- SOX3_SOX2&#45;&gt;SOX3_SOX2 -->
<g id="edge70" class="edge"><title>SOX3_SOX2&#45;&gt;SOX3_SOX2</title>
<a xlink:title="SOX2: 0.005||remove0root">
<path fill="none" stroke="#eecbff" stroke-width="3" d="M301.44,-24.7088C311.634,-24.3847 319.425,-22.1484 319.425,-18 319.425,-15.0831 315.573,-13.1116 309.743,-12.0854"/>
<polygon fill="#eecbff" stroke="#eecbff" points="309.67,-9.2658 301.44,-11.2912 309.137,-14.8404 309.67,-9.2658"/>
</a>
</g>
<!-- GATA3 -->
<g id="node29" class="node"><title>GATA3</title>
<a xlink:href="GATA3.svg" xlink:title="Z&#45;value: 2.023||remove14">
<polygon fill="#9da6ff" stroke="#9da6ff" stroke-width="2" points="354.249,-79.2 324.249,-79.2 312.249,-67.2 312.249,-55.2 324.249,-43.2 354.249,-43.2 366.249,-55.2 366.249,-67.2 354.249,-79.2"/>
<path fill="#9da6ff" stroke="#9da6ff" stroke-width="2" d="M324.249,-79.2C318.249,-79.2 312.249,-73.2 312.249,-67.2"/>
<path fill="#9da6ff" stroke="#9da6ff" stroke-width="2" d="M312.249,-55.2C312.249,-49.2 318.249,-43.2 324.249,-43.2"/>
<path fill="#9da6ff" stroke="#9da6ff" stroke-width="2" d="M354.249,-43.2C360.249,-43.2 366.249,-49.2 366.249,-55.2"/>
<path fill="#9da6ff" stroke="#9da6ff" stroke-width="2" d="M366.249,-67.2C366.249,-73.2 360.249,-79.2 354.249,-79.2"/>
<polyline fill="none" stroke="white" stroke-width="2" points="354.249,-79.2 324.249,-79.2 "/>
<path fill="none" stroke="white" stroke-width="2" d="M324.249,-79.2C318.249,-79.2 312.249,-73.2 312.249,-67.2"/>
<polyline fill="none" stroke="white" stroke-width="2" points="312.249,-67.2 312.249,-55.2 "/>
<path fill="none" stroke="white" stroke-width="2" d="M312.249,-55.2C312.249,-49.2 318.249,-43.2 324.249,-43.2"/>
<polyline fill="none" stroke="white" stroke-width="2" points="324.249,-43.2 354.249,-43.2 "/>
<path fill="none" stroke="white" stroke-width="2" d="M354.249,-43.2C360.249,-43.2 366.249,-49.2 366.249,-55.2"/>
<polyline fill="none" stroke="white" stroke-width="2" points="366.249,-55.2 366.249,-67.2 "/>
<path fill="none" stroke="white" stroke-width="2" d="M366.249,-67.2C366.249,-73.2 360.249,-79.2 354.249,-79.2"/>
<text text-anchor="middle" x="339.249" y="-58.7" font-family="Helvetica,sans-Serif" font-size="10.00">GATA3</text>
</a>
</g>
<!-- GATA3&#45;&gt;ESR1 -->
<g id="edge38" class="edge"><title>GATA3&#45;&gt;ESR1</title>
<a xlink:title="ESR1: 0.031||remove6root">
<path fill="none" stroke="#edc9ff" stroke-width="3" d="M312.22,-68.4425C261.34,-82.0756 151.395,-111.535 94.9679,-126.655"/>
<polygon fill="#edc9ff" stroke="#edc9ff" points="94.0469,-124.003 87.0442,-128.778 95.4963,-129.412 94.0469,-124.003"/>
</a>
</g>
<!-- GATA3&#45;&gt;HOXD4 -->
<g id="edge44" class="edge"><title>GATA3&#45;&gt;HOXD4</title>
<a xlink:title="HOXD4: 0.092||remove14root">
<path fill="none" stroke="#c5cbff" stroke-width="3" d="M321.067,-79.3827C300.648,-99.8017 267.437,-133.013 244.98,-155.469"/>
<polygon fill="#c5cbff" stroke="#c5cbff" points="242.911,-153.578 239.234,-161.215 246.871,-157.538 242.911,-153.578"/>
</a>
</g>
<!-- GATA3&#45;&gt;FOXD1_FOXO1_FOXO6_FOXG1_FOXP1 -->
<g id="edge36" class="edge"><title>GATA3&#45;&gt;FOXD1_FOXO1_FOXO6_FOXG1_FOXP1</title>
<a xlink:title="FOXP1: 0.174||FOXG1: 0.170||remove12">
<path fill="none" stroke="#eabfff" stroke-width="3" d="M339.779,-79.5445C340.744,-99.0746 343.464,-130.712 351.129,-156.905 355.167,-170.702 361.821,-185.206 367.96,-197.051"/>
<polygon fill="#eabfff" stroke="#eabfff" points="365.653,-198.675 371.887,-204.417 370.594,-196.04 365.653,-198.675"/>
</a>
</g>
<!-- GATA3&#45;&gt;GFI1 -->
<g id="edge40" class="edge"><title>GATA3&#45;&gt;GFI1</title>
<a xlink:title="GFI1: 0.246||remove14">
<path fill="none" stroke="#e9baff" stroke-width="3" d="M325.811,-79.5268C307.87,-105.247 276.995,-154.222 265.289,-201.545 260.832,-219.562 256.878,-226.76 265.289,-243.305 273.707,-259.863 289.854,-272.546 304.918,-281.44"/>
<polygon fill="#e9baff" stroke="#e9baff" points="303.839,-284.045 312.188,-285.503 306.571,-279.156 303.839,-284.045"/>
</a>
</g>
<!-- GATA3&#45;&gt;ZBTB33_CHD2 -->
<g id="edge46" class="edge"><title>GATA3&#45;&gt;ZBTB33_CHD2</title>
<a xlink:title="CHD2: 0.268||remove7">
<path fill="none" stroke="#e8b8ff" stroke-width="3" d="M331.009,-79.5861C317.633,-107.95 288.985,-162.977 252.545,-200.105 221.856,-231.372 179.407,-257.779 147.607,-275.131"/>
<polygon fill="#e8b8ff" stroke="#e8b8ff" points="145.895,-272.873 140.175,-279.128 148.547,-277.805 145.895,-272.873"/>
</a>
</g>
<!-- GATA3&#45;&gt;SMAD1 -->
<g id="edge48" class="edge"><title>GATA3&#45;&gt;SMAD1</title>
<a xlink:title="SMAD1: 0.235||remove13">
<path fill="none" stroke="#e9bbff" stroke-width="3" d="M312.092,-58.0945C287.897,-54.85 251.746,-48.8186 221.505,-38.88 218.546,-37.9078 215.53,-36.7774 212.535,-35.5553"/>
<polygon fill="#e9bbff" stroke="#e9bbff" points="213.632,-32.9794 205.179,-32.3666 211.405,-38.1175 213.632,-32.9794"/>
</a>
</g>
<!-- GATA3&#45;&gt;FUBP1 -->
<g id="edge42" class="edge"><title>GATA3&#45;&gt;FUBP1</title>
<a xlink:title="FUBP1: 0.028||remove5root">
<path fill="none" stroke="#eecaff" stroke-width="3" d="M349.707,-79.3129C355.132,-88.7099 361.849,-100.344 367.784,-110.624"/>
<polygon fill="#eecaff" stroke="#eecaff" points="365.513,-112.291 371.938,-117.819 370.363,-109.491 365.513,-112.291"/>
</a>
</g>
<!-- FUBP1&#45;&gt;HOXD4 -->
<g id="edge62" class="edge"><title>FUBP1&#45;&gt;HOXD4</title>
<a xlink:title="HOXD4: 0.041||remove8root">
<path fill="none" stroke="#c9ceff" stroke-width="3" d="M355.1,-143.353C327.918,-150.636 286.113,-161.838 256.458,-169.784"/>
<polygon fill="#c9ceff" stroke="#c9ceff" points="255.441,-167.157 248.439,-171.933 256.891,-172.567 255.441,-167.157"/>
</a>
</g>
<!-- FUBP1&#45;&gt;FOXD1_FOXO1_FOXO6_FOXG1_FOXP1 -->
<g id="edge60" class="edge"><title>FUBP1&#45;&gt;FOXD1_FOXO1_FOXO6_FOXG1_FOXP1</title>
<a xlink:title="FOXP1: 0.260||remove8">
<path fill="none" stroke="#e8b9ff" stroke-width="3" d="M382.449,-154.348C382.449,-166.572 382.449,-182.828 382.449,-196.389"/>
<polygon fill="#e8b9ff" stroke="#e8b9ff" points="379.649,-196.424 382.449,-204.424 385.249,-196.424 379.649,-196.424"/>
</a>
</g>
</g>
</svg>
