<?xml version="1.0" encoding="UTF-8" standalone="no"?>
<!DOCTYPE svg PUBLIC "-//W3C//DTD SVG 1.1//EN"
 "http://www.w3.org/Graphics/SVG/1.1/DTD/svg11.dtd">
<!-- Generated by graphviz version 2.28.0 (20110630.0925)
 -->
<!-- Title: _anonymous_0 Pages: 1 -->
<svg width="615pt" height="576pt"
 viewBox="0.00 0.00 615.00 576.42" xmlns="http://www.w3.org/2000/svg" xmlns:xlink="http://www.w3.org/1999/xlink">
<g id="graph1" class="graph" transform="scale(1 1) rotate(0) translate(4 572.42)">
<title>_anonymous_0</title>
<polygon fill="white" stroke="white" points="-4,5 -4,-572.42 612.001,-572.42 612.001,5 -4,5"/>
<!-- ESRRA_ESR2 -->
<g id="node1" class="node"><title>ESRRA_ESR2</title>
<a xlink:href="ESRRA_ESR2.svg" xlink:title="Z&#45;value: 3.814||remove25">
<polygon fill="#3247ff" stroke="#3247ff" stroke-width="2" points="594.751,-377.981 536.251,-377.981 524.251,-365.981 524.251,-353.981 536.251,-341.981 594.751,-341.981 606.751,-353.981 606.751,-365.981 594.751,-377.981"/>
<path fill="#3247ff" stroke="#3247ff" stroke-width="2" d="M536.251,-377.981C530.251,-377.981 524.251,-371.981 524.251,-365.981"/>
<path fill="#3247ff" stroke="#3247ff" stroke-width="2" d="M524.251,-353.981C524.251,-347.981 530.251,-341.981 536.251,-341.981"/>
<path fill="#3247ff" stroke="#3247ff" stroke-width="2" d="M594.751,-341.981C600.751,-341.981 606.751,-347.981 606.751,-353.981"/>
<path fill="#3247ff" stroke="#3247ff" stroke-width="2" d="M606.751,-365.981C606.751,-371.981 600.751,-377.981 594.751,-377.981"/>
<polyline fill="none" stroke="white" stroke-width="2" points="594.751,-377.981 536.251,-377.981 "/>
<path fill="none" stroke="white" stroke-width="2" d="M536.251,-377.981C530.251,-377.981 524.251,-371.981 524.251,-365.981"/>
<polyline fill="none" stroke="white" stroke-width="2" points="524.251,-365.981 524.251,-353.981 "/>
<path fill="none" stroke="white" stroke-width="2" d="M524.251,-353.981C524.251,-347.981 530.251,-341.981 536.251,-341.981"/>
<polyline fill="none" stroke="white" stroke-width="2" points="536.251,-341.981 594.751,-341.981 "/>
<path fill="none" stroke="white" stroke-width="2" d="M594.751,-341.981C600.751,-341.981 606.751,-347.981 606.751,-353.981"/>
<polyline fill="none" stroke="white" stroke-width="2" points="606.751,-353.981 606.751,-365.981 "/>
<path fill="none" stroke="white" stroke-width="2" d="M606.751,-365.981C606.751,-371.981 600.751,-377.981 594.751,-377.981"/>
<text text-anchor="middle" x="565.501" y="-357.481" font-family="Helvetica,sans-Serif" font-size="10.00" fill="white">ESRRA_ESR2</text>
</a>
</g>
<!-- IKZF2 -->
<g id="node2" class="node"><title>IKZF2</title>
<a xlink:href="IKZF2.svg" xlink:title="Z&#45;value: 0.505||remove26">
<polygon fill="#ffb7b7" stroke="#ffb7b7" stroke-width="2" points="322.447,-302.21 292.447,-302.21 280.447,-290.21 280.447,-278.21 292.447,-266.21 322.447,-266.21 334.447,-278.21 334.447,-290.21 322.447,-302.21"/>
<path fill="#ffb7b7" stroke="#ffb7b7" stroke-width="2" d="M292.447,-302.21C286.447,-302.21 280.447,-296.21 280.447,-290.21"/>
<path fill="#ffb7b7" stroke="#ffb7b7" stroke-width="2" d="M280.447,-278.21C280.447,-272.21 286.447,-266.21 292.447,-266.21"/>
<path fill="#ffb7b7" stroke="#ffb7b7" stroke-width="2" d="M322.447,-266.21C328.447,-266.21 334.447,-272.21 334.447,-278.21"/>
<path fill="#ffb7b7" stroke="#ffb7b7" stroke-width="2" d="M334.447,-290.21C334.447,-296.21 328.447,-302.21 322.447,-302.21"/>
<polyline fill="none" stroke="white" stroke-width="2" points="322.447,-302.21 292.447,-302.21 "/>
<path fill="none" stroke="white" stroke-width="2" d="M292.447,-302.21C286.447,-302.21 280.447,-296.21 280.447,-290.21"/>
<polyline fill="none" stroke="white" stroke-width="2" points="280.447,-290.21 280.447,-278.21 "/>
<path fill="none" stroke="white" stroke-width="2" d="M280.447,-278.21C280.447,-272.21 286.447,-266.21 292.447,-266.21"/>
<polyline fill="none" stroke="white" stroke-width="2" points="292.447,-266.21 322.447,-266.21 "/>
<path fill="none" stroke="white" stroke-width="2" d="M322.447,-266.21C328.447,-266.21 334.447,-272.21 334.447,-278.21"/>
<polyline fill="none" stroke="white" stroke-width="2" points="334.447,-278.21 334.447,-290.21 "/>
<path fill="none" stroke="white" stroke-width="2" d="M334.447,-290.21C334.447,-296.21 328.447,-302.21 322.447,-302.21"/>
<text text-anchor="middle" x="307.447" y="-281.71" font-family="Helvetica,sans-Serif" font-size="10.00">IKZF2</text>
</a>
</g>
<!-- ESRRA_ESR2&#45;&gt;IKZF2 -->
<g id="edge2" class="edge"><title>ESRRA_ESR2&#45;&gt;IKZF2</title>
<a xlink:title="IKZF2: 0.321||remove25root">
<path fill="none" stroke="#a7b0ff" stroke-width="3" d="M523.753,-347.723C473.321,-332.915 389.399,-308.273 342.285,-294.439"/>
<polygon fill="#a7b0ff" stroke="#a7b0ff" points="342.956,-291.718 334.491,-292.151 341.379,-297.091 342.956,-291.718"/>
</a>
</g>
<!-- RARG -->
<g id="node4" class="node"><title>RARG</title>
<a xlink:href="RARG.svg" xlink:title="Z&#45;value: 1.340||remove22">
<polygon fill="#96a0ff" stroke="#96a0ff" stroke-width="2" points="498.571,-505.467 468.571,-505.467 456.571,-493.467 456.571,-481.467 468.571,-469.467 498.571,-469.467 510.571,-481.467 510.571,-493.467 498.571,-505.467"/>
<path fill="#96a0ff" stroke="#96a0ff" stroke-width="2" d="M468.571,-505.467C462.571,-505.467 456.571,-499.467 456.571,-493.467"/>
<path fill="#96a0ff" stroke="#96a0ff" stroke-width="2" d="M456.571,-481.467C456.571,-475.467 462.571,-469.467 468.571,-469.467"/>
<path fill="#96a0ff" stroke="#96a0ff" stroke-width="2" d="M498.571,-469.467C504.571,-469.467 510.571,-475.467 510.571,-481.467"/>
<path fill="#96a0ff" stroke="#96a0ff" stroke-width="2" d="M510.571,-493.467C510.571,-499.467 504.571,-505.467 498.571,-505.467"/>
<polyline fill="none" stroke="white" stroke-width="2" points="498.571,-505.467 468.571,-505.467 "/>
<path fill="none" stroke="white" stroke-width="2" d="M468.571,-505.467C462.571,-505.467 456.571,-499.467 456.571,-493.467"/>
<polyline fill="none" stroke="white" stroke-width="2" points="456.571,-493.467 456.571,-481.467 "/>
<path fill="none" stroke="white" stroke-width="2" d="M456.571,-481.467C456.571,-475.467 462.571,-469.467 468.571,-469.467"/>
<polyline fill="none" stroke="white" stroke-width="2" points="468.571,-469.467 498.571,-469.467 "/>
<path fill="none" stroke="white" stroke-width="2" d="M498.571,-469.467C504.571,-469.467 510.571,-475.467 510.571,-481.467"/>
<polyline fill="none" stroke="white" stroke-width="2" points="510.571,-481.467 510.571,-493.467 "/>
<path fill="none" stroke="white" stroke-width="2" d="M510.571,-493.467C510.571,-499.467 504.571,-505.467 498.571,-505.467"/>
<text text-anchor="middle" x="483.571" y="-484.967" font-family="Helvetica,sans-Serif" font-size="10.00">RARG</text>
</a>
</g>
<!-- ESRRA_ESR2&#45;&gt;RARG -->
<g id="edge4" class="edge"><title>ESRRA_ESR2&#45;&gt;RARG</title>
<a xlink:title="RARG: 0.130||remove20root">
<path fill="none" stroke="#e9bdff" stroke-width="3" d="M553.762,-378.247C539.586,-400.304 515.668,-437.522 499.75,-462.291"/>
<polygon fill="#e9bdff" stroke="#e9bdff" points="497.257,-460.991 495.287,-469.235 501.968,-464.019 497.257,-460.991"/>
</a>
</g>
<!-- MYB -->
<g id="node6" class="node"><title>MYB</title>
<a xlink:href="MYB.svg" xlink:title="Z&#45;value: 1.052||remove15">
<polygon fill="#a1abff" stroke="#a1abff" stroke-width="2" points="360.723,-568.42 330.723,-568.42 318.723,-556.42 318.723,-544.42 330.723,-532.42 360.723,-532.42 372.723,-544.42 372.723,-556.42 360.723,-568.42"/>
<path fill="#a1abff" stroke="#a1abff" stroke-width="2" d="M330.723,-568.42C324.723,-568.42 318.723,-562.42 318.723,-556.42"/>
<path fill="#a1abff" stroke="#a1abff" stroke-width="2" d="M318.723,-544.42C318.723,-538.42 324.723,-532.42 330.723,-532.42"/>
<path fill="#a1abff" stroke="#a1abff" stroke-width="2" d="M360.723,-532.42C366.723,-532.42 372.723,-538.42 372.723,-544.42"/>
<path fill="#a1abff" stroke="#a1abff" stroke-width="2" d="M372.723,-556.42C372.723,-562.42 366.723,-568.42 360.723,-568.42"/>
<polyline fill="none" stroke="white" stroke-width="2" points="360.723,-568.42 330.723,-568.42 "/>
<path fill="none" stroke="white" stroke-width="2" d="M330.723,-568.42C324.723,-568.42 318.723,-562.42 318.723,-556.42"/>
<polyline fill="none" stroke="white" stroke-width="2" points="318.723,-556.42 318.723,-544.42 "/>
<path fill="none" stroke="white" stroke-width="2" d="M318.723,-544.42C318.723,-538.42 324.723,-532.42 330.723,-532.42"/>
<polyline fill="none" stroke="white" stroke-width="2" points="330.723,-532.42 360.723,-532.42 "/>
<path fill="none" stroke="white" stroke-width="2" d="M360.723,-532.42C366.723,-532.42 372.723,-538.42 372.723,-544.42"/>
<polyline fill="none" stroke="white" stroke-width="2" points="372.723,-544.42 372.723,-556.42 "/>
<path fill="none" stroke="white" stroke-width="2" d="M372.723,-556.42C372.723,-562.42 366.723,-568.42 360.723,-568.42"/>
<text text-anchor="middle" x="345.723" y="-547.92" font-family="Helvetica,sans-Serif" font-size="10.00">MYB</text>
</a>
</g>
<!-- ESRRA_ESR2&#45;&gt;MYB -->
<g id="edge6" class="edge"><title>ESRRA_ESR2&#45;&gt;MYB</title>
<a xlink:title="MYB: 0.153||remove15">
<path fill="none" stroke="#e9baff" stroke-width="3" d="M544.427,-378.241C504.388,-412.936 417.362,-488.344 372.963,-526.816"/>
<polygon fill="#e9baff" stroke="#e9baff" points="370.944,-524.86 366.732,-532.215 374.612,-529.092 370.944,-524.86"/>
</a>
</g>
<!-- RCOR1_MTA3 -->
<g id="node8" class="node"><title>RCOR1_MTA3</title>
<a xlink:href="RCOR1_MTA3.svg" xlink:title="Z&#45;value: 1.731||remove23">
<polygon fill="#8692ff" stroke="#8692ff" stroke-width="2" points="224.973,-546.853 166.473,-546.853 154.473,-534.853 154.473,-522.853 166.473,-510.853 224.973,-510.853 236.973,-522.853 236.973,-534.853 224.973,-546.853"/>
<path fill="#8692ff" stroke="#8692ff" stroke-width="2" d="M166.473,-546.853C160.473,-546.853 154.473,-540.853 154.473,-534.853"/>
<path fill="#8692ff" stroke="#8692ff" stroke-width="2" d="M154.473,-522.853C154.473,-516.853 160.473,-510.853 166.473,-510.853"/>
<path fill="#8692ff" stroke="#8692ff" stroke-width="2" d="M224.973,-510.853C230.973,-510.853 236.973,-516.853 236.973,-522.853"/>
<path fill="#8692ff" stroke="#8692ff" stroke-width="2" d="M236.973,-534.853C236.973,-540.853 230.973,-546.853 224.973,-546.853"/>
<polyline fill="none" stroke="white" stroke-width="2" points="224.973,-546.853 166.473,-546.853 "/>
<path fill="none" stroke="white" stroke-width="2" d="M166.473,-546.853C160.473,-546.853 154.473,-540.853 154.473,-534.853"/>
<polyline fill="none" stroke="white" stroke-width="2" points="154.473,-534.853 154.473,-522.853 "/>
<path fill="none" stroke="white" stroke-width="2" d="M154.473,-522.853C154.473,-516.853 160.473,-510.853 166.473,-510.853"/>
<polyline fill="none" stroke="white" stroke-width="2" points="166.473,-510.853 224.973,-510.853 "/>
<path fill="none" stroke="white" stroke-width="2" d="M224.973,-510.853C230.973,-510.853 236.973,-516.853 236.973,-522.853"/>
<polyline fill="none" stroke="white" stroke-width="2" points="236.973,-522.853 236.973,-534.853 "/>
<path fill="none" stroke="white" stroke-width="2" d="M236.973,-534.853C236.973,-540.853 230.973,-546.853 224.973,-546.853"/>
<text text-anchor="middle" x="195.723" y="-526.353" font-family="Helvetica,sans-Serif" font-size="10.00">RCOR1_MTA3</text>
</a>
</g>
<!-- ESRRA_ESR2&#45;&gt;RCOR1_MTA3 -->
<g id="edge8" class="edge"><title>ESRRA_ESR2&#45;&gt;RCOR1_MTA3</title>
<a xlink:title="MTA3: 0.083||ESRRA: 0.308||ESR2: 0.004||remove23">
<path fill="none" stroke="#ebc2ff" stroke-width="3" d="M519.013,-382.311C448.074,-414.707 314.256,-475.82 243.215,-508.264"/>
<path fill="none" stroke="#e3a9ff" stroke-width="3" d="M518.182,-380.491C447.244,-412.888 313.425,-474.001 242.384,-506.444"/>
<polygon fill="#e3a9ff" stroke="#e3a9ff" points="519.814,-383.924 525.928,-378.053 517.488,-378.83 519.814,-383.924"/>
<polygon fill="#ebc2ff" stroke="#ebc2ff" points="241.404,-504.913 235.29,-510.783 243.73,-510.007 241.404,-504.913"/>
</a>
</g>
<!-- KLF16_SP2 -->
<g id="node10" class="node"><title>KLF16_SP2</title>
<a xlink:href="KLF16_SP2.svg" xlink:title="Z&#45;value: 0.850||remove14">
<polygon fill="#a9b2ff" stroke="#a9b2ff" stroke-width="2" points="103.444,-447.614 58.9445,-447.614 46.9445,-435.614 46.9445,-423.614 58.9445,-411.614 103.444,-411.614 115.444,-423.614 115.444,-435.614 103.444,-447.614"/>
<path fill="#a9b2ff" stroke="#a9b2ff" stroke-width="2" d="M58.9445,-447.614C52.9445,-447.614 46.9445,-441.614 46.9445,-435.614"/>
<path fill="#a9b2ff" stroke="#a9b2ff" stroke-width="2" d="M46.9445,-423.614C46.9445,-417.614 52.9445,-411.614 58.9445,-411.614"/>
<path fill="#a9b2ff" stroke="#a9b2ff" stroke-width="2" d="M103.444,-411.614C109.444,-411.614 115.444,-417.614 115.444,-423.614"/>
<path fill="#a9b2ff" stroke="#a9b2ff" stroke-width="2" d="M115.444,-435.614C115.444,-441.614 109.444,-447.614 103.444,-447.614"/>
<polyline fill="none" stroke="white" stroke-width="2" points="103.444,-447.614 58.9445,-447.614 "/>
<path fill="none" stroke="white" stroke-width="2" d="M58.9445,-447.614C52.9445,-447.614 46.9445,-441.614 46.9445,-435.614"/>
<polyline fill="none" stroke="white" stroke-width="2" points="46.9445,-435.614 46.9445,-423.614 "/>
<path fill="none" stroke="white" stroke-width="2" d="M46.9445,-423.614C46.9445,-417.614 52.9445,-411.614 58.9445,-411.614"/>
<polyline fill="none" stroke="white" stroke-width="2" points="58.9445,-411.614 103.444,-411.614 "/>
<path fill="none" stroke="white" stroke-width="2" d="M103.444,-411.614C109.444,-411.614 115.444,-417.614 115.444,-423.614"/>
<polyline fill="none" stroke="white" stroke-width="2" points="115.444,-423.614 115.444,-435.614 "/>
<path fill="none" stroke="white" stroke-width="2" d="M115.444,-435.614C115.444,-441.614 109.444,-447.614 103.444,-447.614"/>
<text text-anchor="middle" x="81.1945" y="-427.114" font-family="Helvetica,sans-Serif" font-size="10.00">KLF16_SP2</text>
</a>
</g>
<!-- ESRRA_ESR2&#45;&gt;KLF16_SP2 -->
<g id="edge10" class="edge"><title>ESRRA_ESR2&#45;&gt;KLF16_SP2</title>
<a xlink:title="SP2: 0.078||ESRRA: 0.005||ESR2: 0.000||remove8root">
<path fill="none" stroke="#ebc3ff" stroke-width="3" d="M516.363,-368.056C421.191,-381.74 213.593,-411.588 123.955,-424.476"/>
<path fill="none" stroke="#eecbff" stroke-width="3" d="M516.078,-366.077C420.906,-379.76 213.308,-409.609 123.67,-422.496"/>
<polygon fill="#eecbff" stroke="#eecbff" points="516.689,-369.828 524.209,-365.918 515.892,-364.285 516.689,-369.828"/>
<polygon fill="#ebc3ff" stroke="#ebc3ff" points="123.29,-420.733 115.77,-424.643 124.087,-426.276 123.29,-420.733"/>
</a>
</g>
<!-- AHR_ARNT2 -->
<g id="node12" class="node"><title>AHR_ARNT2</title>
<a xlink:href="AHR_ARNT2.svg" xlink:title="Z&#45;value: 1.019||remove19">
<polygon fill="#a3acff" stroke="#a3acff" stroke-width="2" points="64.75,-302.21 12.25,-302.21 0.25,-290.21 0.25,-278.21 12.25,-266.21 64.75,-266.21 76.75,-278.21 76.75,-290.21 64.75,-302.21"/>
<path fill="#a3acff" stroke="#a3acff" stroke-width="2" d="M12.25,-302.21C6.25,-302.21 0.25,-296.21 0.25,-290.21"/>
<path fill="#a3acff" stroke="#a3acff" stroke-width="2" d="M0.25,-278.21C0.25,-272.21 6.25,-266.21 12.25,-266.21"/>
<path fill="#a3acff" stroke="#a3acff" stroke-width="2" d="M64.75,-266.21C70.75,-266.21 76.75,-272.21 76.75,-278.21"/>
<path fill="#a3acff" stroke="#a3acff" stroke-width="2" d="M76.75,-290.21C76.75,-296.21 70.75,-302.21 64.75,-302.21"/>
<polyline fill="none" stroke="white" stroke-width="2" points="64.75,-302.21 12.25,-302.21 "/>
<path fill="none" stroke="white" stroke-width="2" d="M12.25,-302.21C6.25,-302.21 0.25,-296.21 0.25,-290.21"/>
<polyline fill="none" stroke="white" stroke-width="2" points="0.25,-290.21 0.25,-278.21 "/>
<path fill="none" stroke="white" stroke-width="2" d="M0.25,-278.21C0.25,-272.21 6.25,-266.21 12.25,-266.21"/>
<polyline fill="none" stroke="white" stroke-width="2" points="12.25,-266.21 64.75,-266.21 "/>
<path fill="none" stroke="white" stroke-width="2" d="M64.75,-266.21C70.75,-266.21 76.75,-272.21 76.75,-278.21"/>
<polyline fill="none" stroke="white" stroke-width="2" points="76.75,-278.21 76.75,-290.21 "/>
<path fill="none" stroke="white" stroke-width="2" d="M76.75,-290.21C76.75,-296.21 70.75,-302.21 64.75,-302.21"/>
<text text-anchor="middle" x="38.5" y="-281.71" font-family="Helvetica,sans-Serif" font-size="10.00">AHR_ARNT2</text>
</a>
</g>
<!-- ESRRA_ESR2&#45;&gt;AHR_ARNT2 -->
<g id="edge12" class="edge"><title>ESRRA_ESR2&#45;&gt;AHR_ARNT2</title>
<a xlink:title="ARNT2: 0.150||AHR: 0.001||ESR2: 0.120||remove19">
<path fill="none" stroke="#e9bbff" stroke-width="3" d="M515.835,-353.851C414.361,-339.261 184.063,-306.149 85.0432,-291.912"/>
<path fill="none" stroke="#eabeff" stroke-width="3" d="M516.119,-351.871C414.645,-337.281 184.347,-304.169 85.3278,-289.932"/>
<polygon fill="#eabeff" stroke="#eabeff" points="515.831,-355.668 524.148,-354.036 516.628,-350.125 515.831,-355.668"/>
<polygon fill="#e9bbff" stroke="#e9bbff" points="85.4685,-288.134 77.1515,-289.767 84.6715,-293.677 85.4685,-288.134"/>
</a>
</g>
<!-- IKZF2&#45;&gt;IKZF2 -->
<g id="edge60" class="edge"><title>IKZF2&#45;&gt;IKZF2</title>
<a xlink:title="IKZF2: 0.114||remove13root">
<path fill="none" stroke="#ffbfbf" stroke-width="3" d="M334.688,-290.953C344.471,-291.098 352.447,-288.851 352.447,-284.21 352.447,-280.947 348.504,-278.867 342.762,-277.97"/>
<polygon fill="#ffbfbf" stroke="#ffbfbf" points="342.847,-275.17 334.688,-277.467 342.498,-280.759 342.847,-275.17"/>
</a>
</g>
<!-- RARG&#45;&gt;IKZF2 -->
<g id="edge44" class="edge"><title>RARG&#45;&gt;IKZF2</title>
<a xlink:title="IKZF2: 0.158||remove22root">
<path fill="none" stroke="#bac1ff" stroke-width="3" d="M467.941,-469.429C436.296,-432.909 364.611,-350.18 328.734,-308.776"/>
<polygon fill="#bac1ff" stroke="#bac1ff" points="330.65,-306.712 323.295,-302.499 326.418,-310.379 330.65,-306.712"/>
</a>
</g>
<!-- RARG&#45;&gt;KLF16_SP2 -->
<g id="edge48" class="edge"><title>RARG&#45;&gt;KLF16_SP2</title>
<a xlink:title="SP2: 0.105||RARG: 0.062||remove10root">
<path fill="none" stroke="#eac0ff" stroke-width="3" d="M448.021,-483.366C374.123,-472.741 203.726,-448.242 123.844,-436.756"/>
<path fill="none" stroke="#ecc5ff" stroke-width="3" d="M448.306,-481.386C374.408,-470.761 204.011,-446.262 124.129,-434.777"/>
<polygon fill="#ecc5ff" stroke="#ecc5ff" points="448.228,-485.214 456.545,-483.581 449.025,-479.671 448.228,-485.214"/>
<polygon fill="#eac0ff" stroke="#eac0ff" points="123.941,-432.931 115.624,-434.564 123.144,-438.474 123.941,-432.931"/>
</a>
</g>
<!-- FOXK1_FOXP2_FOXB1_FOXP3 -->
<g id="node23" class="node"><title>FOXK1_FOXP2_FOXB1_FOXP3</title>
<a xlink:href="FOXK1_FOXP2_FOXB1_FOXP3.svg" xlink:title="Z&#45;value: 0.694||remove17">
<polygon fill="#b0b8ff" stroke="#b0b8ff" stroke-width="2" points="263.973,-57.5667 127.473,-57.5667 115.473,-45.5667 115.473,-33.5667 127.473,-21.5667 263.973,-21.5667 275.973,-33.5667 275.973,-45.5667 263.973,-57.5667"/>
<path fill="#b0b8ff" stroke="#b0b8ff" stroke-width="2" d="M127.473,-57.5667C121.473,-57.5667 115.473,-51.5667 115.473,-45.5667"/>
<path fill="#b0b8ff" stroke="#b0b8ff" stroke-width="2" d="M115.473,-33.5667C115.473,-27.5667 121.473,-21.5667 127.473,-21.5667"/>
<path fill="#b0b8ff" stroke="#b0b8ff" stroke-width="2" d="M263.973,-21.5667C269.973,-21.5667 275.973,-27.5667 275.973,-33.5667"/>
<path fill="#b0b8ff" stroke="#b0b8ff" stroke-width="2" d="M275.973,-45.5667C275.973,-51.5667 269.973,-57.5667 263.973,-57.5667"/>
<polyline fill="none" stroke="white" stroke-width="2" points="263.973,-57.5667 127.473,-57.5667 "/>
<path fill="none" stroke="white" stroke-width="2" d="M127.473,-57.5667C121.473,-57.5667 115.473,-51.5667 115.473,-45.5667"/>
<polyline fill="none" stroke="white" stroke-width="2" points="115.473,-45.5667 115.473,-33.5667 "/>
<path fill="none" stroke="white" stroke-width="2" d="M115.473,-33.5667C115.473,-27.5667 121.473,-21.5667 127.473,-21.5667"/>
<polyline fill="none" stroke="white" stroke-width="2" points="127.473,-21.5667 263.973,-21.5667 "/>
<path fill="none" stroke="white" stroke-width="2" d="M263.973,-21.5667C269.973,-21.5667 275.973,-27.5667 275.973,-33.5667"/>
<polyline fill="none" stroke="white" stroke-width="2" points="275.973,-33.5667 275.973,-45.5667 "/>
<path fill="none" stroke="white" stroke-width="2" d="M275.973,-45.5667C275.973,-51.5667 269.973,-57.5667 263.973,-57.5667"/>
<text text-anchor="middle" x="195.723" y="-37.0667" font-family="Helvetica,sans-Serif" font-size="10.00">FOXK1_FOXP2_FOXB1_FOXP3</text>
</a>
</g>
<!-- RARG&#45;&gt;FOXK1_FOXP2_FOXB1_FOXP3 -->
<g id="edge46" class="edge"><title>RARG&#45;&gt;FOXK1_FOXP2_FOXB1_FOXP3</title>
<a xlink:title="FOXK1: 0.283||RARG: 0.023||remove17">
<path fill="none" stroke="#e4acff" stroke-width="3" d="M466.696,-463.06C416.392,-384.784 262.012,-144.564 211.249,-65.5756"/>
<path fill="none" stroke="#edc9ff" stroke-width="3" d="M468.379,-461.979C418.074,-383.703 263.694,-143.483 212.931,-64.4944"/>
<polygon fill="#edc9ff" stroke="#edc9ff" points="465.249,-464.138 471.93,-469.354 469.96,-461.11 465.249,-464.138"/>
<polygon fill="#e4acff" stroke="#e4acff" points="214.189,-63.1213 207.508,-57.9051 209.478,-66.1489 214.189,-63.1213"/>
</a>
</g>
<!-- MYB&#45;&gt;IKZF2 -->
<g id="edge14" class="edge"><title>MYB&#45;&gt;IKZF2</title>
<a xlink:title="IKZF2: 0.116||remove15root">
<path fill="none" stroke="#bec5ff" stroke-width="3" d="M343.092,-532.122C336.439,-485.848 318.923,-364.026 311.199,-310.3"/>
<polygon fill="#bec5ff" stroke="#bec5ff" points="313.956,-309.804 310.046,-302.284 308.413,-310.601 313.956,-309.804"/>
</a>
</g>
<!-- MYB&#45;&gt;AHR_ARNT2 -->
<g id="edge18" class="edge"><title>MYB&#45;&gt;AHR_ARNT2</title>
<a xlink:title="ARNT2: 0.087||MYB: 0.207||remove15">
<path fill="none" stroke="#ebc2ff" stroke-width="3" d="M317.667,-527.433C259.301,-476.858 123.297,-359.01 65.0789,-308.564"/>
<path fill="none" stroke="#e7b4ff" stroke-width="3" d="M318.977,-525.921C260.61,-475.346 124.607,-357.499 66.3886,-307.052"/>
<polygon fill="#e7b4ff" stroke="#e7b4ff" points="316.726,-528.999 324.606,-532.122 320.394,-524.767 316.726,-528.999"/>
<polygon fill="#ebc2ff" stroke="#ebc2ff" points="67.2378,-305.406 59.3582,-302.284 63.5706,-309.639 67.2378,-305.406"/>
</a>
</g>
<!-- SP3 -->
<g id="node15" class="node"><title>SP3</title>
<a xlink:href="SP3.svg" xlink:title="Z&#45;value: 1.634||remove18">
<polygon fill="#8a96ff" stroke="#8a96ff" stroke-width="2" points="96.1945,-156.806 66.1945,-156.806 54.1945,-144.806 54.1945,-132.806 66.1945,-120.806 96.1945,-120.806 108.194,-132.806 108.194,-144.806 96.1945,-156.806"/>
<path fill="#8a96ff" stroke="#8a96ff" stroke-width="2" d="M66.1945,-156.806C60.1945,-156.806 54.1945,-150.806 54.1945,-144.806"/>
<path fill="#8a96ff" stroke="#8a96ff" stroke-width="2" d="M54.1945,-132.806C54.1945,-126.806 60.1945,-120.806 66.1945,-120.806"/>
<path fill="#8a96ff" stroke="#8a96ff" stroke-width="2" d="M96.1945,-120.806C102.194,-120.806 108.194,-126.806 108.194,-132.806"/>
<path fill="#8a96ff" stroke="#8a96ff" stroke-width="2" d="M108.194,-144.806C108.194,-150.806 102.194,-156.806 96.1945,-156.806"/>
<polyline fill="none" stroke="white" stroke-width="2" points="96.1945,-156.806 66.1945,-156.806 "/>
<path fill="none" stroke="white" stroke-width="2" d="M66.1945,-156.806C60.1945,-156.806 54.1945,-150.806 54.1945,-144.806"/>
<polyline fill="none" stroke="white" stroke-width="2" points="54.1945,-144.806 54.1945,-132.806 "/>
<path fill="none" stroke="white" stroke-width="2" d="M54.1945,-132.806C54.1945,-126.806 60.1945,-120.806 66.1945,-120.806"/>
<polyline fill="none" stroke="white" stroke-width="2" points="66.1945,-120.806 96.1945,-120.806 "/>
<path fill="none" stroke="white" stroke-width="2" d="M96.1945,-120.806C102.194,-120.806 108.194,-126.806 108.194,-132.806"/>
<polyline fill="none" stroke="white" stroke-width="2" points="108.194,-132.806 108.194,-144.806 "/>
<path fill="none" stroke="white" stroke-width="2" d="M108.194,-144.806C108.194,-150.806 102.194,-156.806 96.1945,-156.806"/>
<text text-anchor="middle" x="81.1945" y="-136.306" font-family="Helvetica,sans-Serif" font-size="10.00">SP3</text>
</a>
</g>
<!-- MYB&#45;&gt;SP3 -->
<g id="edge16" class="edge"><title>MYB&#45;&gt;SP3</title>
<a xlink:title="SP3: 0.194||MYB: 0.293||remove15">
<path fill="none" stroke="#e7b6ff" stroke-width="3" d="M328.752,-525.863C281.492,-452.324 143.703,-237.921 96.465,-164.417"/>
<path fill="none" stroke="#e4abff" stroke-width="3" d="M330.435,-524.781C283.174,-451.243 145.385,-236.839 98.1475,-163.336"/>
<polygon fill="#e4abff" stroke="#e4abff" points="327.334,-526.986 334.015,-532.202 332.045,-523.958 327.334,-526.986"/>
<polygon fill="#e7b6ff" stroke="#e7b6ff" points="99.4477,-162.029 92.767,-156.813 94.7367,-165.057 99.4477,-162.029"/>
</a>
</g>
<!-- RCOR1_MTA3&#45;&gt;IKZF2 -->
<g id="edge26" class="edge"><title>RCOR1_MTA3&#45;&gt;IKZF2</title>
<a xlink:title="IKZF2: 0.178||remove23root">
<path fill="none" stroke="#b7bfff" stroke-width="3" d="M204.12,-510.465C223.822,-467.324 273.055,-359.519 295.706,-309.919"/>
<polygon fill="#b7bfff" stroke="#b7bfff" points="298.328,-310.918 299.105,-302.478 293.235,-308.591 298.328,-310.918"/>
</a>
</g>
<!-- RCOR1_MTA3&#45;&gt;RARG -->
<g id="edge28" class="edge"><title>RCOR1_MTA3&#45;&gt;RARG</title>
<a xlink:title="RARG: 0.067||remove7root">
<path fill="none" stroke="#ecc4ff" stroke-width="3" d="M237.271,-522.879C294.02,-514.72 394.798,-500.23 448.154,-492.559"/>
<polygon fill="#ecc4ff" stroke="#ecc4ff" points="448.776,-495.298 456.296,-491.388 447.979,-489.755 448.776,-495.298"/>
</a>
</g>
<!-- RCOR1_MTA3&#45;&gt;RCOR1_MTA3 -->
<g id="edge34" class="edge"><title>RCOR1_MTA3&#45;&gt;RCOR1_MTA3</title>
<a xlink:title="RCOR1: 1.276||remove23">
<path fill="none" stroke="#c03cff" stroke-width="3" d="M237.077,-535.498C247.194,-535.005 254.723,-532.791 254.723,-528.853 254.723,-526.085 251.001,-524.168 245.274,-523.102"/>
<polygon fill="#c03cff" stroke="#c03cff" points="245.334,-520.292 237.077,-522.209 244.727,-525.859 245.334,-520.292"/>
</a>
</g>
<!-- RCOR1_MTA3&#45;&gt;KLF16_SP2 -->
<g id="edge40" class="edge"><title>RCOR1_MTA3&#45;&gt;KLF16_SP2</title>
<a xlink:title="KLF16: 0.227||remove14">
<path fill="none" stroke="#e6b2ff" stroke-width="3" d="M174.716,-510.651C155.989,-494.424 128.473,-470.581 108.132,-452.956"/>
<polygon fill="#e6b2ff" stroke="#e6b2ff" points="109.947,-450.823 102.068,-447.7 106.28,-455.056 109.947,-450.823"/>
</a>
</g>
<!-- RCOR1_MTA3&#45;&gt;SP3 -->
<g id="edge36" class="edge"><title>RCOR1_MTA3&#45;&gt;SP3</title>
<a xlink:title="SP3: 0.797||MTA3: 1.158||remove18">
<path fill="none" stroke="#d272ff" stroke-width="3" d="M187.152,-503.213C166.381,-432.475 108.884,-236.659 87.9695,-165.429"/>
<path fill="none" stroke="#c549ff" stroke-width="3" d="M189.071,-502.649C168.3,-431.911 110.803,-236.095 89.8885,-164.866"/>
<polygon fill="#c549ff" stroke="#c549ff" points="185.488,-503.936 190.428,-510.823 190.861,-502.358 185.488,-503.936"/>
<polygon fill="#d272ff" stroke="#d272ff" points="91.5051,-163.982 86.5646,-157.095 86.132,-165.56 91.5051,-163.982"/>
</a>
</g>
<!-- RCOR1_MTA3&#45;&gt;FOXK1_FOXP2_FOXB1_FOXP3 -->
<g id="edge30" class="edge"><title>RCOR1_MTA3&#45;&gt;FOXK1_FOXP2_FOXB1_FOXP3</title>
<a xlink:title="FOXB1: 0.212||FOXP3: 0.024||remove17">
<path fill="none" stroke="#e7b4ff" stroke-width="3" d="M195.723,-510.565C195.723,-435.852 195.723,-153.594 195.723,-65.7954"/>
<polygon fill="#e7b4ff" stroke="#e7b4ff" points="198.523,-65.6862 195.723,-57.6862 192.923,-65.6862 198.523,-65.6862"/>
</a>
</g>
<!-- HOXB6_PRRX2 -->
<g id="node25" class="node"><title>HOXB6_PRRX2</title>
<a xlink:href="HOXB6_PRRX2.svg" xlink:title="Z&#45;value: 0.695||remove21">
<polygon fill="#b0b7ff" stroke="#b0b7ff" stroke-width="2" points="377.973,-36 313.473,-36 301.473,-24 301.473,-12 313.473,3.19744e-14 377.973,3.19744e-14 389.973,-12 389.973,-24 377.973,-36"/>
<path fill="#b0b7ff" stroke="#b0b7ff" stroke-width="2" d="M313.473,-36C307.473,-36 301.473,-30 301.473,-24"/>
<path fill="#b0b7ff" stroke="#b0b7ff" stroke-width="2" d="M301.473,-12C301.473,-6 307.473,3.19744e-14 313.473,3.19744e-14"/>
<path fill="#b0b7ff" stroke="#b0b7ff" stroke-width="2" d="M377.973,3.19744e-14C383.973,3.19744e-14 389.973,-6 389.973,-12"/>
<path fill="#b0b7ff" stroke="#b0b7ff" stroke-width="2" d="M389.973,-24C389.973,-30 383.973,-36 377.973,-36"/>
<polyline fill="none" stroke="white" stroke-width="2" points="377.973,-36 313.473,-36 "/>
<path fill="none" stroke="white" stroke-width="2" d="M313.473,-36C307.473,-36 301.473,-30 301.473,-24"/>
<polyline fill="none" stroke="white" stroke-width="2" points="301.473,-24 301.473,-12 "/>
<path fill="none" stroke="white" stroke-width="2" d="M301.473,-12C301.473,-6 307.473,3.19744e-14 313.473,3.19744e-14"/>
<polyline fill="none" stroke="white" stroke-width="2" points="313.473,3.19744e-14 377.973,3.19744e-14 "/>
<path fill="none" stroke="white" stroke-width="2" d="M377.973,3.19744e-14C383.973,3.19744e-14 389.973,-6 389.973,-12"/>
<polyline fill="none" stroke="white" stroke-width="2" points="389.973,-12 389.973,-24 "/>
<path fill="none" stroke="white" stroke-width="2" d="M389.973,-24C389.973,-30 383.973,-36 377.973,-36"/>
<text text-anchor="middle" x="345.723" y="-15.5" font-family="Helvetica,sans-Serif" font-size="10.00">HOXB6_PRRX2</text>
</a>
</g>
<!-- RCOR1_MTA3&#45;&gt;HOXB6_PRRX2 -->
<g id="edge32" class="edge"><title>RCOR1_MTA3&#45;&gt;HOXB6_PRRX2</title>
<a xlink:title="HOXB6: 0.222||remove21">
<path fill="none" stroke="#e6b3ff" stroke-width="3" d="M201.061,-510.672C223.658,-433.713 311.492,-134.58 338.064,-44.0822"/>
<polygon fill="#e6b3ff" stroke="#e6b3ff" points="340.803,-44.6945 340.37,-36.2297 335.429,-43.1168 340.803,-44.6945"/>
</a>
</g>
<!-- FOXD3_FOXI1_FOXF1 -->
<g id="node29" class="node"><title>FOXD3_FOXI1_FOXF1</title>
<a xlink:href="FOXD3_FOXI1_FOXF1.svg" xlink:title="Z&#45;value: 0.866||remove24">
<polygon fill="#a9b1ff" stroke="#a9b1ff" stroke-width="2" points="531.071,-98.953 436.071,-98.953 424.071,-86.953 424.071,-74.953 436.071,-62.953 531.071,-62.953 543.071,-74.953 543.071,-86.953 531.071,-98.953"/>
<path fill="#a9b1ff" stroke="#a9b1ff" stroke-width="2" d="M436.071,-98.953C430.071,-98.953 424.071,-92.953 424.071,-86.953"/>
<path fill="#a9b1ff" stroke="#a9b1ff" stroke-width="2" d="M424.071,-74.953C424.071,-68.953 430.071,-62.953 436.071,-62.953"/>
<path fill="#a9b1ff" stroke="#a9b1ff" stroke-width="2" d="M531.071,-62.953C537.071,-62.953 543.071,-68.953 543.071,-74.953"/>
<path fill="#a9b1ff" stroke="#a9b1ff" stroke-width="2" d="M543.071,-86.953C543.071,-92.953 537.071,-98.953 531.071,-98.953"/>
<polyline fill="none" stroke="white" stroke-width="2" points="531.071,-98.953 436.071,-98.953 "/>
<path fill="none" stroke="white" stroke-width="2" d="M436.071,-98.953C430.071,-98.953 424.071,-92.953 424.071,-86.953"/>
<polyline fill="none" stroke="white" stroke-width="2" points="424.071,-86.953 424.071,-74.953 "/>
<path fill="none" stroke="white" stroke-width="2" d="M424.071,-74.953C424.071,-68.953 430.071,-62.953 436.071,-62.953"/>
<polyline fill="none" stroke="white" stroke-width="2" points="436.071,-62.953 531.071,-62.953 "/>
<path fill="none" stroke="white" stroke-width="2" d="M531.071,-62.953C537.071,-62.953 543.071,-68.953 543.071,-74.953"/>
<polyline fill="none" stroke="white" stroke-width="2" points="543.071,-74.953 543.071,-86.953 "/>
<path fill="none" stroke="white" stroke-width="2" d="M543.071,-86.953C543.071,-92.953 537.071,-98.953 531.071,-98.953"/>
<text text-anchor="middle" x="483.571" y="-78.453" font-family="Helvetica,sans-Serif" font-size="10.00">FOXD3_FOXI1_FOXF1</text>
</a>
</g>
<!-- RCOR1_MTA3&#45;&gt;FOXD3_FOXI1_FOXF1 -->
<g id="edge38" class="edge"><title>RCOR1_MTA3&#45;&gt;FOXD3_FOXI1_FOXF1</title>
<a xlink:title="FOXD3: 0.510||FOXI1: 0.141||FOXF1: 0.119||remove23">
<path fill="none" stroke="#dc92ff" stroke-width="3" d="M207.363,-510.74C252.388,-440.68 415.207,-187.329 467.371,-106.16"/>
<polygon fill="#dc92ff" stroke="#dc92ff" points="469.816,-107.535 471.785,-99.2914 465.105,-104.508 469.816,-107.535"/>
</a>
</g>
<!-- BARHL2 -->
<g id="node32" class="node"><title>BARHL2</title>
<a xlink:href="BARHL2.svg" xlink:title="Z&#45;value: 0.750||remove16">
<polygon fill="#adb6ff" stroke="#adb6ff" stroke-width="2" points="581.001,-226.439 550.001,-226.439 538.001,-214.439 538.001,-202.439 550.001,-190.439 581.001,-190.439 593.001,-202.439 593.001,-214.439 581.001,-226.439"/>
<path fill="#adb6ff" stroke="#adb6ff" stroke-width="2" d="M550.001,-226.439C544.001,-226.439 538.001,-220.439 538.001,-214.439"/>
<path fill="#adb6ff" stroke="#adb6ff" stroke-width="2" d="M538.001,-202.439C538.001,-196.439 544.001,-190.439 550.001,-190.439"/>
<path fill="#adb6ff" stroke="#adb6ff" stroke-width="2" d="M581.001,-190.439C587.001,-190.439 593.001,-196.439 593.001,-202.439"/>
<path fill="#adb6ff" stroke="#adb6ff" stroke-width="2" d="M593.001,-214.439C593.001,-220.439 587.001,-226.439 581.001,-226.439"/>
<polyline fill="none" stroke="white" stroke-width="2" points="581.001,-226.439 550.001,-226.439 "/>
<path fill="none" stroke="white" stroke-width="2" d="M550.001,-226.439C544.001,-226.439 538.001,-220.439 538.001,-214.439"/>
<polyline fill="none" stroke="white" stroke-width="2" points="538.001,-214.439 538.001,-202.439 "/>
<path fill="none" stroke="white" stroke-width="2" d="M538.001,-202.439C538.001,-196.439 544.001,-190.439 550.001,-190.439"/>
<polyline fill="none" stroke="white" stroke-width="2" points="550.001,-190.439 581.001,-190.439 "/>
<path fill="none" stroke="white" stroke-width="2" d="M581.001,-190.439C587.001,-190.439 593.001,-196.439 593.001,-202.439"/>
<polyline fill="none" stroke="white" stroke-width="2" points="593.001,-202.439 593.001,-214.439 "/>
<path fill="none" stroke="white" stroke-width="2" d="M593.001,-214.439C593.001,-220.439 587.001,-226.439 581.001,-226.439"/>
<text text-anchor="middle" x="565.501" y="-205.939" font-family="Helvetica,sans-Serif" font-size="10.00">BARHL2</text>
</a>
</g>
<!-- RCOR1_MTA3&#45;&gt;BARHL2 -->
<g id="edge42" class="edge"><title>RCOR1_MTA3&#45;&gt;BARHL2</title>
<a xlink:title="BARHL2: 0.112||remove12root">
<path fill="none" stroke="#eabfff" stroke-width="3" d="M216.663,-510.708C279.693,-456.092 467.631,-293.243 538.263,-232.04"/>
<polygon fill="#eabfff" stroke="#eabfff" points="540.119,-234.137 544.332,-226.782 536.452,-229.905 540.119,-234.137"/>
</a>
</g>
<!-- KLF16_SP2&#45;&gt;IKZF2 -->
<g id="edge50" class="edge"><title>KLF16_SP2&#45;&gt;IKZF2</title>
<a xlink:title="IKZF2: 0.114||remove14root">
<path fill="none" stroke="#bfc5ff" stroke-width="3" d="M109.392,-411.492C150.996,-384.755 228.716,-334.808 273.427,-306.074"/>
<polygon fill="#bfc5ff" stroke="#bfc5ff" points="275.093,-308.332 280.309,-301.651 272.065,-303.62 275.093,-308.332"/>
</a>
</g>
<!-- KLF16_SP2&#45;&gt;AHR_ARNT2 -->
<g id="edge58" class="edge"><title>KLF16_SP2&#45;&gt;AHR_ARNT2</title>
<a xlink:title="AHR: 0.023||ARNT2: 0.006||remove3root">
<path fill="none" stroke="#edc9ff" stroke-width="3" d="M75.8735,-411.492C68.3952,-386.024 54.7332,-339.495 46.1614,-310.302"/>
<polygon fill="#edc9ff" stroke="#edc9ff" points="48.8285,-309.447 43.888,-302.56 43.4554,-311.025 48.8285,-309.447"/>
</a>
</g>
<!-- KLF16_SP2&#45;&gt;SP3 -->
<g id="edge52" class="edge"><title>KLF16_SP2&#45;&gt;SP3</title>
<a xlink:title="SP3: 0.230||SP2: 0.088||remove14">
<path fill="none" stroke="#e6b2ff" stroke-width="3" d="M80.8329,-402.949C81.5449,-370.115 82.5492,-312.605 82.16,-263.338 81.893,-229.501 81.2176,-190.486 80.7332,-165.281"/>
<path fill="none" stroke="#ebc2ff" stroke-width="3" d="M82.8325,-402.992C83.5446,-370.15 84.5489,-312.64 84.16,-263.322 83.8927,-229.467 83.2173,-190.451 82.7328,-165.242"/>
<polygon fill="#ebc2ff" stroke="#ebc2ff" points="79.0292,-403.099 81.65,-411.16 84.6278,-403.224 79.0292,-403.099"/>
<polygon fill="#e6b2ff" stroke="#e6b2ff" points="84.5265,-164.896 81.5706,-156.953 78.9276,-165.006 84.5265,-164.896"/>
</a>
</g>
<!-- KLF16_SP2&#45;&gt;FOXD3_FOXI1_FOXF1 -->
<g id="edge54" class="edge"><title>KLF16_SP2&#45;&gt;FOXD3_FOXI1_FOXF1</title>
<a xlink:title="FOXD3: 0.002||remove0root">
<path fill="none" stroke="#eecbff" stroke-width="3" d="M101.981,-411.603C169.153,-353.398 380.412,-170.34 456.184,-104.683"/>
<polygon fill="#eecbff" stroke="#eecbff" points="458.455,-106.421 462.667,-99.0659 454.788,-102.189 458.455,-106.421"/>
</a>
</g>
<!-- KLF16_SP2&#45;&gt;BARHL2 -->
<g id="edge56" class="edge"><title>KLF16_SP2&#45;&gt;BARHL2</title>
<a xlink:title="BARHL2: 0.013||remove2root">
<path fill="none" stroke="#eecaff" stroke-width="3" d="M115.636,-413.885C204.459,-373.321 440.586,-265.485 530.272,-224.527"/>
<polygon fill="#eecaff" stroke="#eecaff" points="531.619,-226.99 537.733,-221.12 529.293,-221.896 531.619,-226.99"/>
</a>
</g>
<!-- AHR_ARNT2&#45;&gt;IKZF2 -->
<g id="edge20" class="edge"><title>AHR_ARNT2&#45;&gt;IKZF2</title>
<a xlink:title="IKZF2: 0.126||remove19root">
<path fill="none" stroke="#bdc4ff" stroke-width="3" d="M77.0336,-284.21C129.317,-284.21 221.973,-284.21 272.392,-284.21"/>
<polygon fill="#bdc4ff" stroke="#bdc4ff" points="272.405,-287.01 280.405,-284.21 272.405,-281.41 272.405,-287.01"/>
</a>
</g>
<!-- AHR_ARNT2&#45;&gt;RARG -->
<g id="edge22" class="edge"><title>AHR_ARNT2&#45;&gt;RARG</title>
<a xlink:title="RARG: 0.194||remove19">
<path fill="none" stroke="#e7b6ff" stroke-width="3" d="M76.8317,-301.715C162.215,-340.709 366.96,-434.213 448.854,-471.612"/>
<polygon fill="#e7b6ff" stroke="#e7b6ff" points="447.947,-474.276 456.388,-475.053 450.274,-469.182 447.947,-474.276"/>
</a>
</g>
<!-- AHR_ARNT2&#45;&gt;RCOR1_MTA3 -->
<g id="edge24" class="edge"><title>AHR_ARNT2&#45;&gt;RCOR1_MTA3</title>
<a xlink:title="MTA3: 0.187||ARNT2: 0.082||AHR: 0.045||remove19">
<path fill="none" stroke="#e7b6ff" stroke-width="3" d="M56.0479,-308.328C72.9219,-333.348 99.6158,-373.243 122.056,-408.194 142.973,-440.772 166.393,-478.795 181.3,-503.2"/>
<path fill="none" stroke="#ebc2ff" stroke-width="3" d="M54.3898,-309.446C71.2596,-334.46 97.9536,-374.355 120.373,-409.274 141.27,-441.821 164.69,-479.844 179.594,-504.242"/>
<polygon fill="#ebc2ff" stroke="#ebc2ff" points="57.5295,-307.305 50.7323,-302.242 52.8883,-310.439 57.5295,-307.305"/>
<polygon fill="#e7b6ff" stroke="#e7b6ff" points="178.23,-505.464 184.787,-510.835 183.011,-502.548 178.23,-505.464"/>
</a>
</g>
<!-- SP3&#45;&gt;ESRRA_ESR2 -->
<g id="edge72" class="edge"><title>SP3&#45;&gt;ESRRA_ESR2</title>
<a xlink:title="ESRRA: 1.361||ESR2: 0.109||remove18">
<path fill="none" stroke="#bd32ff" stroke-width="3" d="M108.271,-151.171C187.288,-187.257 418.308,-292.761 518.378,-338.461"/>
<polygon fill="#bd32ff" stroke="#bd32ff" points="517.488,-341.133 525.928,-341.909 519.814,-336.039 517.488,-341.133"/>
</a>
</g>
<!-- SP3&#45;&gt;IKZF2 -->
<g id="edge62" class="edge"><title>SP3&#45;&gt;IKZF2</title>
<a xlink:title="IKZF2: 0.124||remove18root">
<path fill="none" stroke="#bec4ff" stroke-width="3" d="M108.486,-156.345C149.876,-182.945 228.455,-233.444 273.483,-262.383"/>
<polygon fill="#bec4ff" stroke="#bec4ff" points="272.168,-264.865 280.411,-266.835 275.195,-260.154 272.168,-264.865"/>
</a>
</g>
<!-- SP3&#45;&gt;RARG -->
<g id="edge64" class="edge"><title>SP3&#45;&gt;RARG</title>
<a xlink:title="RARG: 0.104||remove9root">
<path fill="none" stroke="#eac0ff" stroke-width="3" d="M101.981,-156.817C169.153,-215.022 380.412,-398.08 456.184,-463.737"/>
<polygon fill="#eac0ff" stroke="#eac0ff" points="454.788,-466.231 462.667,-469.354 458.455,-461.999 454.788,-466.231"/>
</a>
</g>
<!-- SP3&#45;&gt;AHR_ARNT2 -->
<g id="edge76" class="edge"><title>SP3&#45;&gt;AHR_ARNT2</title>
<a xlink:title="ARNT2: 0.817||remove18">
<path fill="none" stroke="#d170ff" stroke-width="3" d="M75.8735,-156.927C68.3952,-182.396 54.7332,-228.925 46.1614,-258.118"/>
<polygon fill="#d170ff" stroke="#d170ff" points="43.4554,-257.395 43.888,-265.86 48.8285,-258.973 43.4554,-257.395"/>
</a>
</g>
<!-- SP3&#45;&gt;FOXK1_FOXP2_FOXB1_FOXP3 -->
<g id="edge66" class="edge"><title>SP3&#45;&gt;FOXK1_FOXP2_FOXB1_FOXP3</title>
<a xlink:title="FOXK1: 0.792||remove17">
<path fill="none" stroke="#d272ff" stroke-width="3" d="M102.201,-120.604C120.928,-104.377 148.444,-80.5338 168.785,-62.9084"/>
<polygon fill="#d272ff" stroke="#d272ff" points="170.637,-65.0084 174.85,-57.6534 166.97,-60.7762 170.637,-65.0084"/>
</a>
</g>
<!-- SP3&#45;&gt;HOXB6_PRRX2 -->
<g id="edge68" class="edge"><title>SP3&#45;&gt;HOXB6_PRRX2</title>
<a xlink:title="PRRX2: 0.131||remove18">
<path fill="none" stroke="#e9bdff" stroke-width="3" d="M108.512,-131.218C149.306,-119.298 227.894,-94.0335 289.103,-60.4467 299.059,-54.9837 309.207,-47.9316 318.111,-41.1503"/>
<polygon fill="#e9bdff" stroke="#e9bdff" points="320.066,-43.1759 324.653,-36.0482 316.622,-38.76 320.066,-43.1759"/>
</a>
</g>
<!-- SP3&#45;&gt;FOXD3_FOXI1_FOXF1 -->
<g id="edge70" class="edge"><title>SP3&#45;&gt;FOXD3_FOXI1_FOXF1</title>
<a xlink:title="FOXI1: 0.197||remove18">
<path fill="none" stroke="#e7b5ff" stroke-width="3" d="M108.22,-134.92C170.566,-125.956 325.995,-103.609 416.082,-90.6564"/>
<polygon fill="#e7b5ff" stroke="#e7b5ff" points="416.536,-93.4201 424.056,-89.51 415.739,-87.8771 416.536,-93.4201"/>
</a>
</g>
<!-- SP3&#45;&gt;BARHL2 -->
<g id="edge74" class="edge"><title>SP3&#45;&gt;BARHL2</title>
<a xlink:title="BARHL2: 0.107||remove11root">
<path fill="none" stroke="#eabfff" stroke-width="3" d="M108.271,-142.699C190.452,-154.515 437.052,-189.971 529.751,-203.299"/>
<polygon fill="#eabfff" stroke="#eabfff" points="529.398,-206.077 537.715,-204.444 530.195,-200.534 529.398,-206.077"/>
</a>
</g>
<!-- FOXK1_FOXP2_FOXB1_FOXP3&#45;&gt;ESRRA_ESR2 -->
<g id="edge98" class="edge"><title>FOXK1_FOXP2_FOXB1_FOXP3&#45;&gt;ESRRA_ESR2</title>
<a xlink:title="ESR2: 0.029||remove4root">
<path fill="none" stroke="#edc8ff" stroke-width="3" d="M216.663,-57.7117C279.693,-112.327 467.631,-275.177 538.263,-336.38"/>
<polygon fill="#edc8ff" stroke="#edc8ff" points="536.452,-338.515 544.332,-341.638 540.119,-334.283 536.452,-338.515"/>
</a>
</g>
<!-- FOXK1_FOXP2_FOXB1_FOXP3&#45;&gt;IKZF2 -->
<g id="edge92" class="edge"><title>FOXK1_FOXP2_FOXB1_FOXP3&#45;&gt;IKZF2</title>
<a xlink:title="IKZF2: 0.121||remove17root">
<path fill="none" stroke="#bec4ff" stroke-width="3" d="M204.12,-57.9547C223.822,-101.096 273.055,-208.901 295.706,-258.5"/>
<polygon fill="#bec4ff" stroke="#bec4ff" points="293.235,-259.828 299.105,-265.942 298.328,-257.502 293.235,-259.828"/>
</a>
</g>
<!-- FOXK1_FOXP2_FOXB1_FOXP3&#45;&gt;MYB -->
<g id="edge94" class="edge"><title>FOXK1_FOXP2_FOXB1_FOXP3&#45;&gt;MYB</title>
<a xlink:title="MYB: 0.124||remove15">
<path fill="none" stroke="#eabeff" stroke-width="3" d="M201.061,-57.7483C223.658,-134.707 311.492,-433.84 338.064,-524.338"/>
<polygon fill="#eabeff" stroke="#eabeff" points="335.429,-525.303 340.37,-532.19 340.803,-523.725 335.429,-525.303"/>
</a>
</g>
<!-- FOXK1_FOXP2_FOXB1_FOXP3&#45;&gt;AHR_ARNT2 -->
<g id="edge100" class="edge"><title>FOXK1_FOXP2_FOXB1_FOXP3&#45;&gt;AHR_ARNT2</title>
<a xlink:title="ARNT2: 0.036||remove6root">
<path fill="none" stroke="#edc7ff" stroke-width="3" d="M183.905,-57.9547C156.066,-101.273 86.3275,-209.789 54.6309,-259.11"/>
<polygon fill="#edc7ff" stroke="#edc7ff" points="52.2096,-257.698 50.2399,-265.942 56.9206,-260.726 52.2096,-257.698"/>
</a>
</g>
<!-- FOXK1_FOXP2_FOXB1_FOXP3&#45;&gt;FOXK1_FOXP2_FOXB1_FOXP3 -->
<g id="edge96" class="edge"><title>FOXK1_FOXP2_FOXB1_FOXP3&#45;&gt;FOXK1_FOXP2_FOXB1_FOXP3</title>
<a xlink:title="FOXP2: 0.236||remove17">
<path fill="none" stroke="#e6b1ff" stroke-width="3" d="M276.082,-45.5191C286.688,-44.504 293.723,-42.5199 293.723,-39.5667 293.723,-37.4442 290.089,-35.8222 284.107,-34.7008"/>
<polygon fill="#e6b1ff" stroke="#e6b1ff" points="284.386,-31.9131 276.082,-33.6144 283.634,-37.4625 284.386,-31.9131"/>
</a>
</g>
<!-- HOXB6_PRRX2&#45;&gt;IKZF2 -->
<g id="edge86" class="edge"><title>HOXB6_PRRX2&#45;&gt;IKZF2</title>
<a xlink:title="IKZF2: 0.147||remove21root">
<path fill="none" stroke="#bbc2ff" stroke-width="3" d="M343.092,-36.2977C336.439,-82.572 318.923,-204.394 311.199,-258.12"/>
<polygon fill="#bbc2ff" stroke="#bbc2ff" points="308.413,-257.819 310.046,-266.136 313.956,-258.616 308.413,-257.819"/>
</a>
</g>
<!-- HOXB6_PRRX2&#45;&gt;FOXK1_FOXP2_FOXB1_FOXP3 -->
<g id="edge88" class="edge"><title>HOXB6_PRRX2&#45;&gt;FOXK1_FOXP2_FOXB1_FOXP3</title>
<a xlink:title="FOXB1: 0.005||remove1root">
<path fill="none" stroke="#eecbff" stroke-width="3" d="M301.124,-24.4123C295.662,-25.1977 289.94,-26.0203 284.108,-26.8589"/>
<polygon fill="#eecbff" stroke="#eecbff" points="283.618,-24.1004 276.098,-28.0105 284.415,-29.6434 283.618,-24.1004"/>
</a>
</g>
<!-- HOXB6_PRRX2&#45;&gt;HOXB6_PRRX2 -->
<g id="edge90" class="edge"><title>HOXB6_PRRX2&#45;&gt;HOXB6_PRRX2</title>
<a xlink:title="HOXB6: 0.279||remove21">
<path fill="none" stroke="#e4acff" stroke-width="3" d="M390.028,-24.6013C400.229,-24.0325 407.723,-21.832 407.723,-18 407.723,-15.3056 404.018,-13.4178 398.273,-12.3367"/>
<polygon fill="#e4acff" stroke="#e4acff" points="398.294,-9.52117 390.028,-11.3987 397.661,-15.0853 398.294,-9.52117"/>
</a>
</g>
<!-- FOXD3_FOXI1_FOXF1&#45;&gt;IKZF2 -->
<g id="edge78" class="edge"><title>FOXD3_FOXI1_FOXF1&#45;&gt;IKZF2</title>
<a xlink:title="IKZF2: 0.189||remove24root">
<path fill="none" stroke="#b6beff" stroke-width="3" d="M467.941,-98.9907C436.296,-135.511 364.611,-218.24 328.734,-259.644"/>
<polygon fill="#b6beff" stroke="#b6beff" points="326.418,-258.041 323.295,-265.92 330.65,-261.708 326.418,-258.041"/>
</a>
</g>
<!-- FOXD3_FOXI1_FOXF1&#45;&gt;FOXK1_FOXP2_FOXB1_FOXP3 -->
<g id="edge80" class="edge"><title>FOXD3_FOXI1_FOXF1&#45;&gt;FOXK1_FOXP2_FOXB1_FOXP3</title>
<a xlink:title="FOXP2: 0.208||FOXP3: 0.029||remove17">
<path fill="none" stroke="#e7b4ff" stroke-width="3" d="M423.928,-72.3778C383.538,-66.5706 329.475,-58.7975 284.109,-52.2747"/>
<polygon fill="#e7b4ff" stroke="#e7b4ff" points="284.353,-49.4811 276.036,-51.114 283.556,-55.0241 284.353,-49.4811"/>
</a>
</g>
<!-- FOXD3_FOXI1_FOXF1&#45;&gt;BARHL2 -->
<g id="edge82" class="edge"><title>FOXD3_FOXI1_FOXF1&#45;&gt;BARHL2</title>
<a xlink:title="BARHL2: 0.032||remove5root">
<path fill="none" stroke="#edc8ff" stroke-width="3" d="M495.309,-99.2186C509.485,-121.276 533.403,-158.494 549.321,-183.262"/>
<polygon fill="#edc8ff" stroke="#edc8ff" points="547.103,-184.991 553.784,-190.207 551.814,-181.963 547.103,-184.991"/>
</a>
</g>
<!-- BARHL2&#45;&gt;IKZF2 -->
<g id="edge84" class="edge"><title>BARHL2&#45;&gt;IKZF2</title>
<a xlink:title="IKZF2: 0.117||remove16root">
<path fill="none" stroke="#bec5ff" stroke-width="3" d="M537.884,-216.548C490.615,-230.427 394.291,-258.71 342.408,-273.945"/>
<polygon fill="#bec5ff" stroke="#bec5ff" points="341.364,-271.333 334.477,-276.273 342.942,-276.706 341.364,-271.333"/>
</a>
</g>
</g>
</svg>
