<?xml version="1.0" encoding="UTF-8" standalone="no"?>
<!DOCTYPE svg PUBLIC "-//W3C//DTD SVG 1.1//EN"
 "http://www.w3.org/Graphics/SVG/1.1/DTD/svg11.dtd">
<!-- Generated by graphviz version 2.28.0 (20110630.0925)
 -->
<!-- Title: _anonymous_0 Pages: 1 -->
<svg width="592pt" height="481pt"
 viewBox="0.00 0.00 591.65 480.65" xmlns="http://www.w3.org/2000/svg" xmlns:xlink="http://www.w3.org/1999/xlink">
<g id="graph1" class="graph" transform="scale(1 1) rotate(0) translate(4 476.65)">
<title>_anonymous_0</title>
<polygon fill="white" stroke="white" points="-4,5 -4,-476.65 588.65,-476.65 588.65,5 -4,5"/>
<!-- SIN3A_CHD1 -->
<g id="node1" class="node"><title>SIN3A_CHD1</title>
<a xlink:href="SIN3A_CHD1.svg" xlink:title="Z&#45;value: 1.751||remove10">
<polygon fill="#3247ff" stroke="#3247ff" stroke-width="2" points="113.75,-414.15 59.25,-414.15 47.25,-402.15 47.25,-390.15 59.25,-378.15 113.75,-378.15 125.75,-390.15 125.75,-402.15 113.75,-414.15"/>
<path fill="#3247ff" stroke="#3247ff" stroke-width="2" d="M59.25,-414.15C53.25,-414.15 47.25,-408.15 47.25,-402.15"/>
<path fill="#3247ff" stroke="#3247ff" stroke-width="2" d="M47.25,-390.15C47.25,-384.15 53.25,-378.15 59.25,-378.15"/>
<path fill="#3247ff" stroke="#3247ff" stroke-width="2" d="M113.75,-378.15C119.75,-378.15 125.75,-384.15 125.75,-390.15"/>
<path fill="#3247ff" stroke="#3247ff" stroke-width="2" d="M125.75,-402.15C125.75,-408.15 119.75,-414.15 113.75,-414.15"/>
<polyline fill="none" stroke="white" stroke-width="2" points="113.75,-414.15 59.25,-414.15 "/>
<path fill="none" stroke="white" stroke-width="2" d="M59.25,-414.15C53.25,-414.15 47.25,-408.15 47.25,-402.15"/>
<polyline fill="none" stroke="white" stroke-width="2" points="47.25,-402.15 47.25,-390.15 "/>
<path fill="none" stroke="white" stroke-width="2" d="M47.25,-390.15C47.25,-384.15 53.25,-378.15 59.25,-378.15"/>
<polyline fill="none" stroke="white" stroke-width="2" points="59.25,-378.15 113.75,-378.15 "/>
<path fill="none" stroke="white" stroke-width="2" d="M113.75,-378.15C119.75,-378.15 125.75,-384.15 125.75,-390.15"/>
<polyline fill="none" stroke="white" stroke-width="2" points="125.75,-390.15 125.75,-402.15 "/>
<path fill="none" stroke="white" stroke-width="2" d="M125.75,-402.15C125.75,-408.15 119.75,-414.15 113.75,-414.15"/>
<text text-anchor="middle" x="86.5" y="-393.65" font-family="Helvetica,sans-Serif" font-size="10.00" fill="white">SIN3A_CHD1</text>
</a>
</g>
<!-- SIN3A_CHD1&#45;&gt;SIN3A_CHD1 -->
<g id="edge10" class="edge"><title>SIN3A_CHD1&#45;&gt;SIN3A_CHD1</title>
<a xlink:title="CHD1: 0.054||remove10">
<path fill="none" stroke="#ecc5ff" stroke-width="3" d="M126.006,-402.83C136.264,-402.42 144,-400.193 144,-396.15 144,-393.307 140.176,-391.362 134.339,-390.315"/>
<polygon fill="#ecc5ff" stroke="#ecc5ff" points="134.248,-387.492 126.006,-389.47 133.682,-393.063 134.248,-387.492"/>
</a>
</g>
<!-- FOXD1_FOXO1_FOXO6_FOXG1_FOXP1 -->
<g id="node2" class="node"><title>FOXD1_FOXO1_FOXO6_FOXG1_FOXP1</title>
<a xlink:href="FOXD1_FOXO1_FOXO6_FOXG1_FOXP1.svg" xlink:title="Z&#45;value: 0.656||remove16">
<polygon fill="#929dff" stroke="#929dff" stroke-width="2" points="553.65,-312.825 375.65,-312.825 363.65,-300.825 363.65,-288.825 375.65,-276.825 553.65,-276.825 565.65,-288.825 565.65,-300.825 553.65,-312.825"/>
<path fill="#929dff" stroke="#929dff" stroke-width="2" d="M375.65,-312.825C369.65,-312.825 363.65,-306.825 363.65,-300.825"/>
<path fill="#929dff" stroke="#929dff" stroke-width="2" d="M363.65,-288.825C363.65,-282.825 369.65,-276.825 375.65,-276.825"/>
<path fill="#929dff" stroke="#929dff" stroke-width="2" d="M553.65,-276.825C559.65,-276.825 565.65,-282.825 565.65,-288.825"/>
<path fill="#929dff" stroke="#929dff" stroke-width="2" d="M565.65,-300.825C565.65,-306.825 559.65,-312.825 553.65,-312.825"/>
<polyline fill="none" stroke="white" stroke-width="2" points="553.65,-312.825 375.65,-312.825 "/>
<path fill="none" stroke="white" stroke-width="2" d="M375.65,-312.825C369.65,-312.825 363.65,-306.825 363.65,-300.825"/>
<polyline fill="none" stroke="white" stroke-width="2" points="363.65,-300.825 363.65,-288.825 "/>
<path fill="none" stroke="white" stroke-width="2" d="M363.65,-288.825C363.65,-282.825 369.65,-276.825 375.65,-276.825"/>
<polyline fill="none" stroke="white" stroke-width="2" points="375.65,-276.825 553.65,-276.825 "/>
<path fill="none" stroke="white" stroke-width="2" d="M553.65,-276.825C559.65,-276.825 565.65,-282.825 565.65,-288.825"/>
<polyline fill="none" stroke="white" stroke-width="2" points="565.65,-288.825 565.65,-300.825 "/>
<path fill="none" stroke="white" stroke-width="2" d="M565.65,-300.825C565.65,-306.825 559.65,-312.825 553.65,-312.825"/>
<text text-anchor="middle" x="464.65" y="-292.325" font-family="Helvetica,sans-Serif" font-size="10.00">FOXD1_FOXO1_FOXO6_FOXG1_FOXP1</text>
</a>
</g>
<!-- SIN3A_CHD1&#45;&gt;FOXD1_FOXO1_FOXO6_FOXG1_FOXP1 -->
<g id="edge2" class="edge"><title>SIN3A_CHD1&#45;&gt;FOXD1_FOXO1_FOXO6_FOXG1_FOXP1</title>
<a xlink:title="FOXG1: 0.205||FOXD1: 0.122||FOXP1: 0.057||CHD1: 0.008||remove10">
<path fill="none" stroke="#e7b5ff" stroke-width="3" d="M133.823,-382.435C197.945,-365.253 312.802,-334.477 388.812,-314.11"/>
<path fill="none" stroke="#eecbff" stroke-width="3" d="M134.341,-384.366C198.463,-367.185 313.32,-336.409 389.33,-316.042"/>
<polygon fill="#eecbff" stroke="#eecbff" points="133.257,-380.723 126.254,-385.498 134.706,-386.132 133.257,-380.723"/>
<polygon fill="#e7b5ff" stroke="#e7b5ff" points="390.218,-317.668 397.221,-312.893 388.768,-312.259 390.218,-317.668"/>
</a>
</g>
<!-- WRNIP1 -->
<g id="node4" class="node"><title>WRNIP1</title>
<a xlink:href="WRNIP1.svg" xlink:title="Z&#45;value: 1.103||remove20">
<polygon fill="#6b7aff" stroke="#6b7aff" stroke-width="2" points="43.5,-312.825 12.5,-312.825 0.5,-300.825 0.5,-288.825 12.5,-276.825 43.5,-276.825 55.5,-288.825 55.5,-300.825 43.5,-312.825"/>
<path fill="#6b7aff" stroke="#6b7aff" stroke-width="2" d="M12.5,-312.825C6.5,-312.825 0.5,-306.825 0.5,-300.825"/>
<path fill="#6b7aff" stroke="#6b7aff" stroke-width="2" d="M0.5,-288.825C0.5,-282.825 6.5,-276.825 12.5,-276.825"/>
<path fill="#6b7aff" stroke="#6b7aff" stroke-width="2" d="M43.5,-276.825C49.5,-276.825 55.5,-282.825 55.5,-288.825"/>
<path fill="#6b7aff" stroke="#6b7aff" stroke-width="2" d="M55.5,-300.825C55.5,-306.825 49.5,-312.825 43.5,-312.825"/>
<polyline fill="none" stroke="white" stroke-width="2" points="43.5,-312.825 12.5,-312.825 "/>
<path fill="none" stroke="white" stroke-width="2" d="M12.5,-312.825C6.5,-312.825 0.5,-306.825 0.5,-300.825"/>
<polyline fill="none" stroke="white" stroke-width="2" points="0.5,-300.825 0.5,-288.825 "/>
<path fill="none" stroke="white" stroke-width="2" d="M0.5,-288.825C0.5,-282.825 6.5,-276.825 12.5,-276.825"/>
<polyline fill="none" stroke="white" stroke-width="2" points="12.5,-276.825 43.5,-276.825 "/>
<path fill="none" stroke="white" stroke-width="2" d="M43.5,-276.825C49.5,-276.825 55.5,-282.825 55.5,-288.825"/>
<polyline fill="none" stroke="white" stroke-width="2" points="55.5,-288.825 55.5,-300.825 "/>
<path fill="none" stroke="white" stroke-width="2" d="M55.5,-300.825C55.5,-306.825 49.5,-312.825 43.5,-312.825"/>
<text text-anchor="middle" x="28" y="-292.325" font-family="Helvetica,sans-Serif" font-size="10.00" fill="white">WRNIP1</text>
</a>
</g>
<!-- SIN3A_CHD1&#45;&gt;WRNIP1 -->
<g id="edge4" class="edge"><title>SIN3A_CHD1&#45;&gt;WRNIP1</title>
<a xlink:title="WRNIP1: 0.001||SIN3A: 0.007||remove4root">
<path fill="none" stroke="#eecbff" stroke-width="3" d="M70.9623,-371.238C62.0684,-355.833 50.7583,-336.244 41.8554,-320.823"/>
<path fill="none" stroke="#eecbff" stroke-width="3" d="M72.6944,-370.238C63.8004,-354.833 52.4904,-335.244 43.5874,-319.823"/>
<polygon fill="#eecbff" stroke="#eecbff" points="69.6165,-372.507 76.0414,-378.035 74.4662,-369.707 69.6165,-372.507"/>
<polygon fill="#eecbff" stroke="#eecbff" points="44.9902,-318.653 38.5653,-313.125 40.1405,-321.453 44.9902,-318.653"/>
</a>
</g>
<!-- ZNF143 -->
<g id="node6" class="node"><title>ZNF143</title>
<a xlink:href="ZNF143.svg" xlink:title="Z&#45;value: 0.598||remove11">
<polygon fill="#97a2ff" stroke="#97a2ff" stroke-width="2" points="43,-195.825 13,-195.825 1,-183.825 1,-171.825 13,-159.825 43,-159.825 55,-171.825 55,-183.825 43,-195.825"/>
<path fill="#97a2ff" stroke="#97a2ff" stroke-width="2" d="M13,-195.825C7,-195.825 1,-189.825 1,-183.825"/>
<path fill="#97a2ff" stroke="#97a2ff" stroke-width="2" d="M1,-171.825C1,-165.825 7,-159.825 13,-159.825"/>
<path fill="#97a2ff" stroke="#97a2ff" stroke-width="2" d="M43,-159.825C49,-159.825 55,-165.825 55,-171.825"/>
<path fill="#97a2ff" stroke="#97a2ff" stroke-width="2" d="M55,-183.825C55,-189.825 49,-195.825 43,-195.825"/>
<polyline fill="none" stroke="white" stroke-width="2" points="43,-195.825 13,-195.825 "/>
<path fill="none" stroke="white" stroke-width="2" d="M13,-195.825C7,-195.825 1,-189.825 1,-183.825"/>
<polyline fill="none" stroke="white" stroke-width="2" points="1,-183.825 1,-171.825 "/>
<path fill="none" stroke="white" stroke-width="2" d="M1,-171.825C1,-165.825 7,-159.825 13,-159.825"/>
<polyline fill="none" stroke="white" stroke-width="2" points="13,-159.825 43,-159.825 "/>
<path fill="none" stroke="white" stroke-width="2" d="M43,-159.825C49,-159.825 55,-165.825 55,-171.825"/>
<polyline fill="none" stroke="white" stroke-width="2" points="55,-171.825 55,-183.825 "/>
<path fill="none" stroke="white" stroke-width="2" d="M55,-183.825C55,-189.825 49,-195.825 43,-195.825"/>
<text text-anchor="middle" x="28" y="-175.325" font-family="Helvetica,sans-Serif" font-size="10.00">ZNF143</text>
</a>
</g>
<!-- SIN3A_CHD1&#45;&gt;ZNF143 -->
<g id="edge6" class="edge"><title>SIN3A_CHD1&#45;&gt;ZNF143</title>
<a xlink:title="ZNF143: 0.023||remove8root">
<path fill="none" stroke="#edc9ff" stroke-width="3" d="M83.2757,-377.771C78.8994,-353.718 70.4683,-310.343 60.48,-273.945 53.8724,-249.867 44.624,-222.983 37.6851,-203.783"/>
<polygon fill="#edc9ff" stroke="#edc9ff" points="40.2385,-202.612 34.8671,-196.056 34.9774,-204.531 40.2385,-202.612"/>
</a>
</g>
<!-- ZNF384 -->
<g id="node8" class="node"><title>ZNF384</title>
<a xlink:href="ZNF384.svg" xlink:title="Z&#45;value: 1.127||remove17">
<polygon fill="#6978ff" stroke="#6978ff" stroke-width="2" points="101.5,-94.5 71.5,-94.5 59.5,-82.5 59.5,-70.5 71.5,-58.5 101.5,-58.5 113.5,-70.5 113.5,-82.5 101.5,-94.5"/>
<path fill="#6978ff" stroke="#6978ff" stroke-width="2" d="M71.5,-94.5C65.5,-94.5 59.5,-88.5 59.5,-82.5"/>
<path fill="#6978ff" stroke="#6978ff" stroke-width="2" d="M59.5,-70.5C59.5,-64.5 65.5,-58.5 71.5,-58.5"/>
<path fill="#6978ff" stroke="#6978ff" stroke-width="2" d="M101.5,-58.5C107.5,-58.5 113.5,-64.5 113.5,-70.5"/>
<path fill="#6978ff" stroke="#6978ff" stroke-width="2" d="M113.5,-82.5C113.5,-88.5 107.5,-94.5 101.5,-94.5"/>
<polyline fill="none" stroke="white" stroke-width="2" points="101.5,-94.5 71.5,-94.5 "/>
<path fill="none" stroke="white" stroke-width="2" d="M71.5,-94.5C65.5,-94.5 59.5,-88.5 59.5,-82.5"/>
<polyline fill="none" stroke="white" stroke-width="2" points="59.5,-82.5 59.5,-70.5 "/>
<path fill="none" stroke="white" stroke-width="2" d="M59.5,-70.5C59.5,-64.5 65.5,-58.5 71.5,-58.5"/>
<polyline fill="none" stroke="white" stroke-width="2" points="71.5,-58.5 101.5,-58.5 "/>
<path fill="none" stroke="white" stroke-width="2" d="M101.5,-58.5C107.5,-58.5 113.5,-64.5 113.5,-70.5"/>
<polyline fill="none" stroke="white" stroke-width="2" points="113.5,-70.5 113.5,-82.5 "/>
<path fill="none" stroke="white" stroke-width="2" d="M113.5,-82.5C113.5,-88.5 107.5,-94.5 101.5,-94.5"/>
<text text-anchor="middle" x="86.5" y="-74" font-family="Helvetica,sans-Serif" font-size="10.00" fill="white">ZNF384</text>
</a>
</g>
<!-- SIN3A_CHD1&#45;&gt;ZNF384 -->
<g id="edge8" class="edge"><title>SIN3A_CHD1&#45;&gt;ZNF384</title>
<a xlink:title="ZNF384: 0.059||remove10">
<path fill="none" stroke="#ecc5ff" stroke-width="3" d="M86.5,-378.048C86.5,-324.44 86.5,-166.304 86.5,-103.071"/>
<polygon fill="#ecc5ff" stroke="#ecc5ff" points="89.3001,-102.799 86.5,-94.7993 83.7001,-102.799 89.3001,-102.799"/>
</a>
</g>
<!-- MAZ_ZNF281_GTF2F1 -->
<g id="node11" class="node"><title>MAZ_ZNF281_GTF2F1</title>
<a xlink:href="MAZ_ZNF281_GTF2F1.svg" xlink:title="Z&#45;value: 1.186||remove15">
<polygon fill="#6473ff" stroke="#6473ff" stroke-width="2" points="235.075,-36 140.575,-36 128.575,-24 128.575,-12 140.575,-6.39488e-14 235.075,-6.39488e-14 247.075,-12 247.075,-24 235.075,-36"/>
<path fill="#6473ff" stroke="#6473ff" stroke-width="2" d="M140.575,-36C134.575,-36 128.575,-30 128.575,-24"/>
<path fill="#6473ff" stroke="#6473ff" stroke-width="2" d="M128.575,-12C128.575,-6 134.575,-6.39488e-14 140.575,-6.39488e-14"/>
<path fill="#6473ff" stroke="#6473ff" stroke-width="2" d="M235.075,-6.39488e-14C241.075,-6.39488e-14 247.075,-6 247.075,-12"/>
<path fill="#6473ff" stroke="#6473ff" stroke-width="2" d="M247.075,-24C247.075,-30 241.075,-36 235.075,-36"/>
<polyline fill="none" stroke="white" stroke-width="2" points="235.075,-36 140.575,-36 "/>
<path fill="none" stroke="white" stroke-width="2" d="M140.575,-36C134.575,-36 128.575,-30 128.575,-24"/>
<polyline fill="none" stroke="white" stroke-width="2" points="128.575,-24 128.575,-12 "/>
<path fill="none" stroke="white" stroke-width="2" d="M128.575,-12C128.575,-6 134.575,-6.39488e-14 140.575,-6.39488e-14"/>
<polyline fill="none" stroke="white" stroke-width="2" points="140.575,-6.39488e-14 235.075,-6.39488e-14 "/>
<path fill="none" stroke="white" stroke-width="2" d="M235.075,-6.39488e-14C241.075,-6.39488e-14 247.075,-6 247.075,-12"/>
<polyline fill="none" stroke="white" stroke-width="2" points="247.075,-12 247.075,-24 "/>
<path fill="none" stroke="white" stroke-width="2" d="M247.075,-24C247.075,-30 241.075,-36 235.075,-36"/>
<text text-anchor="middle" x="187.825" y="-15.5" font-family="Helvetica,sans-Serif" font-size="10.00" fill="white">MAZ_ZNF281_GTF2F1</text>
</a>
</g>
<!-- SIN3A_CHD1&#45;&gt;MAZ_ZNF281_GTF2F1 -->
<g id="edge12" class="edge"><title>SIN3A_CHD1&#45;&gt;MAZ_ZNF281_GTF2F1</title>
<a xlink:title="MAZ: 0.257||ZNF281: 0.124||remove10">
<path fill="none" stroke="#e5afff" stroke-width="3" d="M91.3871,-377.911C107.874,-316.383 161.487,-116.295 180.806,-44.1961"/>
<polygon fill="#e5afff" stroke="#e5afff" points="183.621,-44.5081 182.987,-36.0559 178.212,-43.0586 183.621,-44.5081"/>
</a>
</g>
<!-- PATZ1_KLF4 -->
<g id="node13" class="node"><title>PATZ1_KLF4</title>
<a xlink:href="PATZ1_KLF4.svg" xlink:title="Z&#45;value: 1.751||remove19">
<polygon fill="#3347ff" stroke="#3347ff" stroke-width="2" points="330.825,-36 278.825,-36 266.825,-24 266.825,-12 278.825,3.19744e-14 330.825,3.19744e-14 342.825,-12 342.825,-24 330.825,-36"/>
<path fill="#3347ff" stroke="#3347ff" stroke-width="2" d="M278.825,-36C272.825,-36 266.825,-30 266.825,-24"/>
<path fill="#3347ff" stroke="#3347ff" stroke-width="2" d="M266.825,-12C266.825,-6 272.825,3.19744e-14 278.825,3.19744e-14"/>
<path fill="#3347ff" stroke="#3347ff" stroke-width="2" d="M330.825,3.19744e-14C336.825,3.19744e-14 342.825,-6 342.825,-12"/>
<path fill="#3347ff" stroke="#3347ff" stroke-width="2" d="M342.825,-24C342.825,-30 336.825,-36 330.825,-36"/>
<polyline fill="none" stroke="white" stroke-width="2" points="330.825,-36 278.825,-36 "/>
<path fill="none" stroke="white" stroke-width="2" d="M278.825,-36C272.825,-36 266.825,-30 266.825,-24"/>
<polyline fill="none" stroke="white" stroke-width="2" points="266.825,-24 266.825,-12 "/>
<path fill="none" stroke="white" stroke-width="2" d="M266.825,-12C266.825,-6 272.825,3.19744e-14 278.825,3.19744e-14"/>
<polyline fill="none" stroke="white" stroke-width="2" points="278.825,3.19744e-14 330.825,3.19744e-14 "/>
<path fill="none" stroke="white" stroke-width="2" d="M330.825,3.19744e-14C336.825,3.19744e-14 342.825,-6 342.825,-12"/>
<polyline fill="none" stroke="white" stroke-width="2" points="342.825,-12 342.825,-24 "/>
<path fill="none" stroke="white" stroke-width="2" d="M342.825,-24C342.825,-30 336.825,-36 330.825,-36"/>
<text text-anchor="middle" x="304.825" y="-15.5" font-family="Helvetica,sans-Serif" font-size="10.00" fill="white">PATZ1_KLF4</text>
</a>
</g>
<!-- SIN3A_CHD1&#45;&gt;PATZ1_KLF4 -->
<g id="edge14" class="edge"><title>SIN3A_CHD1&#45;&gt;PATZ1_KLF4</title>
<a xlink:title="KLF4: 0.185||PATZ1: 0.181||remove10">
<path fill="none" stroke="#e8b7ff" stroke-width="3" d="M97.0303,-377.911C132.698,-316.133 249.015,-114.666 290.205,-43.3232"/>
<polygon fill="#e8b7ff" stroke="#e8b7ff" points="292.825,-44.3842 294.4,-36.0559 287.975,-41.5841 292.825,-44.3842"/>
</a>
</g>
<!-- IRF3 -->
<g id="node15" class="node"><title>IRF3</title>
<a xlink:href="IRF3.svg" xlink:title="Z&#45;value: 0.170||remove21">
<polygon fill="#ffbdbd" stroke="#ffbdbd" stroke-width="2" points="261.325,-254.325 231.325,-254.325 219.325,-242.325 219.325,-230.325 231.325,-218.325 261.325,-218.325 273.325,-230.325 273.325,-242.325 261.325,-254.325"/>
<path fill="#ffbdbd" stroke="#ffbdbd" stroke-width="2" d="M231.325,-254.325C225.325,-254.325 219.325,-248.325 219.325,-242.325"/>
<path fill="#ffbdbd" stroke="#ffbdbd" stroke-width="2" d="M219.325,-230.325C219.325,-224.325 225.325,-218.325 231.325,-218.325"/>
<path fill="#ffbdbd" stroke="#ffbdbd" stroke-width="2" d="M261.325,-218.325C267.325,-218.325 273.325,-224.325 273.325,-230.325"/>
<path fill="#ffbdbd" stroke="#ffbdbd" stroke-width="2" d="M273.325,-242.325C273.325,-248.325 267.325,-254.325 261.325,-254.325"/>
<polyline fill="none" stroke="white" stroke-width="2" points="261.325,-254.325 231.325,-254.325 "/>
<path fill="none" stroke="white" stroke-width="2" d="M231.325,-254.325C225.325,-254.325 219.325,-248.325 219.325,-242.325"/>
<polyline fill="none" stroke="white" stroke-width="2" points="219.325,-242.325 219.325,-230.325 "/>
<path fill="none" stroke="white" stroke-width="2" d="M219.325,-230.325C219.325,-224.325 225.325,-218.325 231.325,-218.325"/>
<polyline fill="none" stroke="white" stroke-width="2" points="231.325,-218.325 261.325,-218.325 "/>
<path fill="none" stroke="white" stroke-width="2" d="M261.325,-218.325C267.325,-218.325 273.325,-224.325 273.325,-230.325"/>
<polyline fill="none" stroke="white" stroke-width="2" points="273.325,-230.325 273.325,-242.325 "/>
<path fill="none" stroke="white" stroke-width="2" d="M273.325,-242.325C273.325,-248.325 267.325,-254.325 261.325,-254.325"/>
<text text-anchor="middle" x="246.325" y="-233.825" font-family="Helvetica,sans-Serif" font-size="10.00">IRF3</text>
</a>
</g>
<!-- SIN3A_CHD1&#45;&gt;IRF3 -->
<g id="edge16" class="edge"><title>SIN3A_CHD1&#45;&gt;IRF3</title>
<a xlink:title="IRF3: 0.026||remove10root">
<path fill="none" stroke="#c9ceff" stroke-width="3" d="M104.523,-378.127C133.42,-349.23 190.137,-292.513 222.396,-260.254"/>
<polygon fill="#c9ceff" stroke="#c9ceff" points="224.445,-262.164 228.122,-254.528 220.486,-258.205 224.445,-262.164"/>
</a>
</g>
<!-- FOXD1_FOXO1_FOXO6_FOXG1_FOXP1&#45;&gt;FOXD1_FOXO1_FOXO6_FOXG1_FOXP1 -->
<g id="edge78" class="edge"><title>FOXD1_FOXO1_FOXO6_FOXG1_FOXP1&#45;&gt;FOXD1_FOXO1_FOXO6_FOXG1_FOXP1</title>
<a xlink:title="FOXP1: 0.292||FOXO1: 0.176||remove16">
<path fill="none" stroke="#e4abff" stroke-width="3" d="M565.788,-300.461C576.658,-299.376 583.65,-297.497 583.65,-294.825 583.65,-292.905 580.038,-291.394 573.97,-290.293"/>
<polygon fill="#e4abff" stroke="#e4abff" points="574.09,-287.484 565.788,-289.189 573.341,-293.034 574.09,-287.484"/>
</a>
</g>
<!-- FOXD1_FOXO1_FOXO6_FOXG1_FOXP1&#45;&gt;ZNF143 -->
<g id="edge80" class="edge"><title>FOXD1_FOXO1_FOXO6_FOXG1_FOXP1&#45;&gt;ZNF143</title>
<a xlink:title="ZNF143: 0.001||remove0root">
<path fill="none" stroke="#eecbff" stroke-width="3" d="M429.424,-276.695C392.537,-258.477 332.458,-230.94 277.645,-215.445 202.887,-194.312 111.976,-184.408 63.1165,-180.315"/>
<polygon fill="#eecbff" stroke="#eecbff" points="63.2706,-177.519 55.0703,-179.662 62.8175,-183.1 63.2706,-177.519"/>
</a>
</g>
<!-- IKZF1 -->
<g id="node21" class="node"><title>IKZF1</title>
<a xlink:href="IKZF1.svg" xlink:title="Z&#45;value: 1.300||remove14">
<polygon fill="#5a6aff" stroke="#5a6aff" stroke-width="2" points="421.15,-94.5 391.15,-94.5 379.15,-82.5 379.15,-70.5 391.15,-58.5 421.15,-58.5 433.15,-70.5 433.15,-82.5 421.15,-94.5"/>
<path fill="#5a6aff" stroke="#5a6aff" stroke-width="2" d="M391.15,-94.5C385.15,-94.5 379.15,-88.5 379.15,-82.5"/>
<path fill="#5a6aff" stroke="#5a6aff" stroke-width="2" d="M379.15,-70.5C379.15,-64.5 385.15,-58.5 391.15,-58.5"/>
<path fill="#5a6aff" stroke="#5a6aff" stroke-width="2" d="M421.15,-58.5C427.15,-58.5 433.15,-64.5 433.15,-70.5"/>
<path fill="#5a6aff" stroke="#5a6aff" stroke-width="2" d="M433.15,-82.5C433.15,-88.5 427.15,-94.5 421.15,-94.5"/>
<polyline fill="none" stroke="white" stroke-width="2" points="421.15,-94.5 391.15,-94.5 "/>
<path fill="none" stroke="white" stroke-width="2" d="M391.15,-94.5C385.15,-94.5 379.15,-88.5 379.15,-82.5"/>
<polyline fill="none" stroke="white" stroke-width="2" points="379.15,-82.5 379.15,-70.5 "/>
<path fill="none" stroke="white" stroke-width="2" d="M379.15,-70.5C379.15,-64.5 385.15,-58.5 391.15,-58.5"/>
<polyline fill="none" stroke="white" stroke-width="2" points="391.15,-58.5 421.15,-58.5 "/>
<path fill="none" stroke="white" stroke-width="2" d="M421.15,-58.5C427.15,-58.5 433.15,-64.5 433.15,-70.5"/>
<polyline fill="none" stroke="white" stroke-width="2" points="433.15,-70.5 433.15,-82.5 "/>
<path fill="none" stroke="white" stroke-width="2" d="M433.15,-82.5C433.15,-88.5 427.15,-94.5 421.15,-94.5"/>
<text text-anchor="middle" x="406.15" y="-74" font-family="Helvetica,sans-Serif" font-size="10.00" fill="white">IKZF1</text>
</a>
</g>
<!-- FOXD1_FOXO1_FOXO6_FOXG1_FOXP1&#45;&gt;IKZF1 -->
<g id="edge82" class="edge"><title>FOXD1_FOXO1_FOXO6_FOXG1_FOXP1&#45;&gt;IKZF1</title>
<a xlink:title="IKZF1: 0.006||FOXO6: 0.087||FOXG1: 0.026||remove14">
<path fill="none" stroke="#eecbff" stroke-width="3" d="M454.479,-269.145C447.84,-249.909 438.943,-223.017 432.365,-198.969 423.39,-166.139 415.238,-127.822 410.246,-102.942"/>
<path fill="none" stroke="#ebc2ff" stroke-width="3" d="M456.37,-268.492C449.739,-249.281 440.841,-222.388 434.295,-198.441 425.346,-165.723 417.194,-127.406 412.207,-102.548"/>
<polygon fill="#ebc2ff" stroke="#ebc2ff" points="452.843,-269.921 458.116,-276.557 458.133,-268.081 452.843,-269.921"/>
<polygon fill="#eecbff" stroke="#eecbff" points="413.964,-102.155 409.659,-94.8542 408.472,-103.246 413.964,-102.155"/>
</a>
</g>
<!-- WRNIP1&#45;&gt;FOXD1_FOXO1_FOXO6_FOXG1_FOXP1 -->
<g id="edge40" class="edge"><title>WRNIP1&#45;&gt;FOXD1_FOXO1_FOXO6_FOXG1_FOXP1</title>
<a xlink:title="FOXP1: 0.285||FOXO6: 0.144||FOXG1: 0.126||remove16">
<path fill="none" stroke="#e4abff" stroke-width="3" d="M55.6457,-294.825C114.602,-294.825 255.439,-294.825 355.329,-294.825"/>
<polygon fill="#e4abff" stroke="#e4abff" points="355.352,-297.625 363.351,-294.825 355.351,-292.025 355.352,-297.625"/>
</a>
</g>
<!-- WRNIP1&#45;&gt;WRNIP1 -->
<g id="edge42" class="edge"><title>WRNIP1&#45;&gt;WRNIP1</title>
<a xlink:title="WRNIP1: 0.003||remove1root">
<path fill="none" stroke="#eecbff" stroke-width="3" d="M55.6842,-301.573C65.2638,-301.645 73,-299.395 73,-294.825 73,-291.683 69.3434,-289.638 63.9452,-288.69"/>
<polygon fill="#eecbff" stroke="#eecbff" points="63.8695,-285.876 55.6842,-288.077 63.455,-291.461 63.8695,-285.876"/>
</a>
</g>
<!-- WRNIP1&#45;&gt;ZNF143 -->
<g id="edge44" class="edge"><title>WRNIP1&#45;&gt;ZNF143</title>
<a xlink:title="ZNF143: 0.000||WRNIP1: 0.096||remove11">
<path fill="none" stroke="#eecbff" stroke-width="3" d="M27,-268.528C27,-249.302 27,-223.334 27,-204.111"/>
<path fill="none" stroke="#ebc1ff" stroke-width="3" d="M29,-268.528C29,-249.302 29,-223.334 29,-204.111"/>
<polygon fill="#ebc1ff" stroke="#ebc1ff" points="25.1999,-268.8 28,-276.8 30.7999,-268.8 25.1999,-268.8"/>
<polygon fill="#eecbff" stroke="#eecbff" points="30.8001,-204.063 28,-196.063 25.2001,-204.063 30.8001,-204.063"/>
</a>
</g>
<!-- WRNIP1&#45;&gt;MAZ_ZNF281_GTF2F1 -->
<g id="edge50" class="edge"><title>WRNIP1&#45;&gt;MAZ_ZNF281_GTF2F1</title>
<a xlink:title="MAZ: 0.109||remove15">
<path fill="none" stroke="#eabfff" stroke-width="3" d="M38.4866,-276.662C66.2015,-228.658 141.442,-98.3372 173.282,-43.1893"/>
<polygon fill="#eabfff" stroke="#eabfff" points="175.725,-44.5584 177.3,-36.2301 170.875,-41.7583 175.725,-44.5584"/>
</a>
</g>
<!-- WRNIP1&#45;&gt;PATZ1_KLF4 -->
<g id="edge52" class="edge"><title>WRNIP1&#45;&gt;PATZ1_KLF4</title>
<a xlink:title="PATZ1: 0.056||remove18root">
<path fill="none" stroke="#ecc5ff" stroke-width="3" d="M46.1633,-276.662C94.4609,-228.364 226.087,-96.7383 280.64,-42.1849"/>
<polygon fill="#ecc5ff" stroke="#ecc5ff" points="282.918,-43.8669 286.595,-36.2301 278.958,-39.9071 282.918,-43.8669"/>
</a>
</g>
<!-- WRNIP1&#45;&gt;IRF3 -->
<g id="edge54" class="edge"><title>WRNIP1&#45;&gt;IRF3</title>
<a xlink:title="IRF3: 0.169||remove20root">
<path fill="none" stroke="#b9c0ff" stroke-width="3" d="M55.651,-287.416C95.2119,-276.816 167.956,-257.324 211.253,-245.722"/>
<polygon fill="#b9c0ff" stroke="#b9c0ff" points="212.238,-248.357 219.241,-243.582 210.789,-242.948 212.238,-248.357"/>
</a>
</g>
<!-- ATF5 -->
<g id="node25" class="node"><title>ATF5</title>
<a xlink:href="ATF5.svg" xlink:title="Z&#45;value: 0.314||remove13">
<polygon fill="#b0b8ff" stroke="#b0b8ff" stroke-width="2" points="319.825,-472.65 289.825,-472.65 277.825,-460.65 277.825,-448.65 289.825,-436.65 319.825,-436.65 331.825,-448.65 331.825,-460.65 319.825,-472.65"/>
<path fill="#b0b8ff" stroke="#b0b8ff" stroke-width="2" d="M289.825,-472.65C283.825,-472.65 277.825,-466.65 277.825,-460.65"/>
<path fill="#b0b8ff" stroke="#b0b8ff" stroke-width="2" d="M277.825,-448.65C277.825,-442.65 283.825,-436.65 289.825,-436.65"/>
<path fill="#b0b8ff" stroke="#b0b8ff" stroke-width="2" d="M319.825,-436.65C325.825,-436.65 331.825,-442.65 331.825,-448.65"/>
<path fill="#b0b8ff" stroke="#b0b8ff" stroke-width="2" d="M331.825,-460.65C331.825,-466.65 325.825,-472.65 319.825,-472.65"/>
<polyline fill="none" stroke="white" stroke-width="2" points="319.825,-472.65 289.825,-472.65 "/>
<path fill="none" stroke="white" stroke-width="2" d="M289.825,-472.65C283.825,-472.65 277.825,-466.65 277.825,-460.65"/>
<polyline fill="none" stroke="white" stroke-width="2" points="277.825,-460.65 277.825,-448.65 "/>
<path fill="none" stroke="white" stroke-width="2" d="M277.825,-448.65C277.825,-442.65 283.825,-436.65 289.825,-436.65"/>
<polyline fill="none" stroke="white" stroke-width="2" points="289.825,-436.65 319.825,-436.65 "/>
<path fill="none" stroke="white" stroke-width="2" d="M319.825,-436.65C325.825,-436.65 331.825,-442.65 331.825,-448.65"/>
<polyline fill="none" stroke="white" stroke-width="2" points="331.825,-448.65 331.825,-460.65 "/>
<path fill="none" stroke="white" stroke-width="2" d="M331.825,-460.65C331.825,-466.65 325.825,-472.65 319.825,-472.65"/>
<text text-anchor="middle" x="304.825" y="-452.15" font-family="Helvetica,sans-Serif" font-size="10.00">ATF5</text>
</a>
</g>
<!-- WRNIP1&#45;&gt;ATF5 -->
<g id="edge46" class="edge"><title>WRNIP1&#45;&gt;ATF5</title>
<a xlink:title="ATF5: 0.013||remove6root">
<path fill="none" stroke="#eecaff" stroke-width="3" d="M55.5551,-310.734C106.468,-340.128 215.131,-402.865 270.644,-434.915"/>
<polygon fill="#eecaff" stroke="#eecaff" points="269.461,-437.466 277.79,-439.041 272.261,-432.616 269.461,-437.466"/>
</a>
</g>
<!-- DBX2_HLX -->
<g id="node28" class="node"><title>DBX2_HLX</title>
<a xlink:href="DBX2_HLX.svg" xlink:title="Z&#45;value: 0.615||remove9">
<polygon fill="#96a0ff" stroke="#96a0ff" stroke-width="2" points="209.825,-472.65 165.825,-472.65 153.825,-460.65 153.825,-448.65 165.825,-436.65 209.825,-436.65 221.825,-448.65 221.825,-460.65 209.825,-472.65"/>
<path fill="#96a0ff" stroke="#96a0ff" stroke-width="2" d="M165.825,-472.65C159.825,-472.65 153.825,-466.65 153.825,-460.65"/>
<path fill="#96a0ff" stroke="#96a0ff" stroke-width="2" d="M153.825,-448.65C153.825,-442.65 159.825,-436.65 165.825,-436.65"/>
<path fill="#96a0ff" stroke="#96a0ff" stroke-width="2" d="M209.825,-436.65C215.825,-436.65 221.825,-442.65 221.825,-448.65"/>
<path fill="#96a0ff" stroke="#96a0ff" stroke-width="2" d="M221.825,-460.65C221.825,-466.65 215.825,-472.65 209.825,-472.65"/>
<polyline fill="none" stroke="white" stroke-width="2" points="209.825,-472.65 165.825,-472.65 "/>
<path fill="none" stroke="white" stroke-width="2" d="M165.825,-472.65C159.825,-472.65 153.825,-466.65 153.825,-460.65"/>
<polyline fill="none" stroke="white" stroke-width="2" points="153.825,-460.65 153.825,-448.65 "/>
<path fill="none" stroke="white" stroke-width="2" d="M153.825,-448.65C153.825,-442.65 159.825,-436.65 165.825,-436.65"/>
<polyline fill="none" stroke="white" stroke-width="2" points="165.825,-436.65 209.825,-436.65 "/>
<path fill="none" stroke="white" stroke-width="2" d="M209.825,-436.65C215.825,-436.65 221.825,-442.65 221.825,-448.65"/>
<polyline fill="none" stroke="white" stroke-width="2" points="221.825,-448.65 221.825,-460.65 "/>
<path fill="none" stroke="white" stroke-width="2" d="M221.825,-460.65C221.825,-466.65 215.825,-472.65 209.825,-472.65"/>
<text text-anchor="middle" x="187.825" y="-452.15" font-family="Helvetica,sans-Serif" font-size="10.00">DBX2_HLX</text>
</a>
</g>
<!-- WRNIP1&#45;&gt;DBX2_HLX -->
<g id="edge48" class="edge"><title>WRNIP1&#45;&gt;DBX2_HLX</title>
<a xlink:title="HLX: 0.101||DBX2: 0.090||remove9">
<path fill="none" stroke="#ebc0ff" stroke-width="3" d="M55.5567,-312.623C77.7354,-327.722 108.951,-350.783 132.32,-375.27 148.026,-391.727 162.633,-412.958 172.916,-429.321"/>
<polygon fill="#ebc0ff" stroke="#ebc0ff" points="170.739,-431.126 177.324,-436.463 175.504,-428.185 170.739,-431.126"/>
</a>
</g>
<!-- ZNF143&#45;&gt;IRF3 -->
<g id="edge84" class="edge"><title>ZNF143&#45;&gt;IRF3</title>
<a xlink:title="IRF3: 0.026||remove11root">
<path fill="none" stroke="#c9ceff" stroke-width="3" d="M55.2096,-185.116C94.7026,-195.698 167.921,-215.317 211.365,-226.958"/>
<polygon fill="#c9ceff" stroke="#c9ceff" points="210.664,-229.668 219.116,-229.034 212.114,-224.259 210.664,-229.668"/>
</a>
</g>
<!-- ZNF384&#45;&gt;FOXD1_FOXO1_FOXO6_FOXG1_FOXP1 -->
<g id="edge18" class="edge"><title>ZNF384&#45;&gt;FOXD1_FOXO1_FOXO6_FOXG1_FOXP1</title>
<a xlink:title="FOXP1: 0.209||FOXG1: 0.061||remove16">
<path fill="none" stroke="#e7b4ff" stroke-width="3" d="M113.696,-92.2014C179.892,-130.42 349.572,-228.385 426.141,-272.592"/>
<polygon fill="#e7b4ff" stroke="#e7b4ff" points="424.926,-275.123 433.254,-276.699 427.726,-270.274 424.926,-275.123"/>
</a>
</g>
<!-- ZNF384&#45;&gt;WRNIP1 -->
<g id="edge20" class="edge"><title>ZNF384&#45;&gt;WRNIP1</title>
<a xlink:title="WRNIP1: 0.030||ZNF384: 0.067||remove17">
<path fill="none" stroke="#edc8ff" stroke-width="3" d="M82.4039,-102.942C77.4121,-127.822 69.2601,-166.139 60.2846,-198.969 53.7073,-223.017 44.8096,-249.909 38.1707,-269.145"/>
<path fill="none" stroke="#ecc4ff" stroke-width="3" d="M80.4429,-102.548C75.4559,-127.406 67.3039,-165.723 58.3554,-198.441 51.8085,-222.388 42.9109,-249.281 36.2801,-268.492"/>
<polygon fill="#ecc4ff" stroke="#ecc4ff" points="84.1784,-103.246 82.9908,-94.8542 78.6857,-102.155 84.1784,-103.246"/>
<polygon fill="#edc8ff" stroke="#edc8ff" points="34.5174,-268.081 34.5338,-276.557 39.8066,-269.921 34.5174,-268.081"/>
</a>
</g>
<!-- ZNF384&#45;&gt;IRF3 -->
<g id="edge22" class="edge"><title>ZNF384&#45;&gt;IRF3</title>
<a xlink:title="IRF3: 0.038||remove17root">
<path fill="none" stroke="#c7cdff" stroke-width="3" d="M104.523,-94.5233C133.42,-123.42 190.137,-180.137 222.396,-212.396"/>
<polygon fill="#c7cdff" stroke="#c7cdff" points="220.486,-214.445 228.122,-218.122 224.445,-210.486 220.486,-214.445"/>
</a>
</g>
<!-- MAZ_ZNF281_GTF2F1&#45;&gt;FOXD1_FOXO1_FOXO6_FOXG1_FOXP1 -->
<g id="edge24" class="edge"><title>MAZ_ZNF281_GTF2F1&#45;&gt;FOXD1_FOXO1_FOXO6_FOXG1_FOXP1</title>
<a xlink:title="FOXP1: 0.089||remove15">
<path fill="none" stroke="#ebc2ff" stroke-width="3" d="M205.988,-36.1633C254.286,-84.4609 385.912,-216.087 440.465,-270.64"/>
<polygon fill="#ebc2ff" stroke="#ebc2ff" points="438.783,-272.918 446.42,-276.595 442.743,-268.958 438.783,-272.918"/>
</a>
</g>
<!-- MAZ_ZNF281_GTF2F1&#45;&gt;ZNF384 -->
<g id="edge32" class="edge"><title>MAZ_ZNF281_GTF2F1&#45;&gt;ZNF384</title>
<a xlink:title="ZNF384: 0.006||remove3root">
<path fill="none" stroke="#eecbff" stroke-width="3" d="M156.597,-36.0293C145.233,-42.5904 132.331,-50.0394 120.721,-56.7425"/>
<polygon fill="#eecbff" stroke="#eecbff" points="119.213,-54.3801 113.684,-60.805 122.013,-59.2299 119.213,-54.3801"/>
</a>
</g>
<!-- MAZ_ZNF281_GTF2F1&#45;&gt;MAZ_ZNF281_GTF2F1 -->
<g id="edge36" class="edge"><title>MAZ_ZNF281_GTF2F1&#45;&gt;MAZ_ZNF281_GTF2F1</title>
<a xlink:title="MAZ: 0.032||remove15">
<path fill="none" stroke="#edc8ff" stroke-width="3" d="M247.229,-24.3281C257.606,-23.4844 264.825,-21.375 264.825,-18 264.825,-15.627 261.256,-13.8796 255.53,-12.758"/>
<polygon fill="#edc8ff" stroke="#edc8ff" points="255.525,-9.93353 247.229,-11.6719 254.798,-15.4862 255.525,-9.93353"/>
</a>
</g>
<!-- MAZ_ZNF281_GTF2F1&#45;&gt;IRF3 -->
<g id="edge38" class="edge"><title>MAZ_ZNF281_GTF2F1&#45;&gt;IRF3</title>
<a xlink:title="IRF3: 0.032||remove15root">
<path fill="none" stroke="#c8cdff" stroke-width="3" d="M192.712,-36.2387C203.104,-75.0236 227.425,-165.789 239.406,-210.502"/>
<polygon fill="#c8cdff" stroke="#c8cdff" points="236.718,-211.289 241.493,-218.292 242.127,-209.84 236.718,-211.289"/>
</a>
</g>
<!-- MAZ_ZNF281_GTF2F1&#45;&gt;IKZF1 -->
<g id="edge26" class="edge"><title>MAZ_ZNF281_GTF2F1&#45;&gt;IKZF1</title>
<a xlink:title="IKZF1: 0.001||MAZ: 0.119||ZNF281: 0.033||remove14">
<path fill="none" stroke="#eecbff" stroke-width="3" d="M255.1,-36.2951C257.09,-36.8441 259.064,-37.3855 261.008,-37.9152 298.592,-48.1564 341.846,-59.2607 371.336,-66.7287"/>
<path fill="none" stroke="#eabeff" stroke-width="3" d="M254.568,-38.223C256.561,-38.7729 258.535,-39.3143 260.482,-39.8448 298.095,-50.0936 341.349,-61.1979 370.845,-68.6675"/>
<polygon fill="#eabeff" stroke="#eabeff" points="255.544,-34.5502 247.087,-35.1068 254.045,-39.9459 255.544,-34.5502"/>
<polygon fill="#eecbff" stroke="#eecbff" points="370.586,-70.4585 379.028,-69.7046 371.958,-65.0293 370.586,-70.4585"/>
</a>
</g>
<!-- IRF7 -->
<g id="node23" class="node"><title>IRF7</title>
<a xlink:href="IRF7.svg" xlink:title="Z&#45;value: 0.789||remove7">
<polygon fill="#8793ff" stroke="#8793ff" stroke-width="2" points="421.15,-414.15 391.15,-414.15 379.15,-402.15 379.15,-390.15 391.15,-378.15 421.15,-378.15 433.15,-390.15 433.15,-402.15 421.15,-414.15"/>
<path fill="#8793ff" stroke="#8793ff" stroke-width="2" d="M391.15,-414.15C385.15,-414.15 379.15,-408.15 379.15,-402.15"/>
<path fill="#8793ff" stroke="#8793ff" stroke-width="2" d="M379.15,-390.15C379.15,-384.15 385.15,-378.15 391.15,-378.15"/>
<path fill="#8793ff" stroke="#8793ff" stroke-width="2" d="M421.15,-378.15C427.15,-378.15 433.15,-384.15 433.15,-390.15"/>
<path fill="#8793ff" stroke="#8793ff" stroke-width="2" d="M433.15,-402.15C433.15,-408.15 427.15,-414.15 421.15,-414.15"/>
<polyline fill="none" stroke="white" stroke-width="2" points="421.15,-414.15 391.15,-414.15 "/>
<path fill="none" stroke="white" stroke-width="2" d="M391.15,-414.15C385.15,-414.15 379.15,-408.15 379.15,-402.15"/>
<polyline fill="none" stroke="white" stroke-width="2" points="379.15,-402.15 379.15,-390.15 "/>
<path fill="none" stroke="white" stroke-width="2" d="M379.15,-390.15C379.15,-384.15 385.15,-378.15 391.15,-378.15"/>
<polyline fill="none" stroke="white" stroke-width="2" points="391.15,-378.15 421.15,-378.15 "/>
<path fill="none" stroke="white" stroke-width="2" d="M421.15,-378.15C427.15,-378.15 433.15,-384.15 433.15,-390.15"/>
<polyline fill="none" stroke="white" stroke-width="2" points="433.15,-390.15 433.15,-402.15 "/>
<path fill="none" stroke="white" stroke-width="2" d="M433.15,-402.15C433.15,-408.15 427.15,-414.15 421.15,-414.15"/>
<text text-anchor="middle" x="406.15" y="-393.65" font-family="Helvetica,sans-Serif" font-size="10.00">IRF7</text>
</a>
</g>
<!-- MAZ_ZNF281_GTF2F1&#45;&gt;IRF7 -->
<g id="edge28" class="edge"><title>MAZ_ZNF281_GTF2F1&#45;&gt;IRF7</title>
<a xlink:title="IRF7: 0.012||remove5root">
<path fill="none" stroke="#eecaff" stroke-width="3" d="M196.525,-36.2716C219.3,-83.6113 283.35,-213.665 347.49,-315.705 359.724,-335.168 375.079,-356.121 387.01,-371.762"/>
<polygon fill="#eecaff" stroke="#eecaff" points="384.801,-373.482 391.895,-378.121 389.242,-370.071 384.801,-373.482"/>
</a>
</g>
<!-- MAZ_ZNF281_GTF2F1&#45;&gt;ATF5 -->
<g id="edge30" class="edge"><title>MAZ_ZNF281_GTF2F1&#45;&gt;ATF5</title>
<a xlink:title="ATF5: 0.108||remove13">
<path fill="none" stroke="#eabfff" stroke-width="3" d="M198.393,-36.0495C217.69,-69.9367 258.407,-145.942 277.645,-215.445 298.498,-290.783 303.389,-383.718 304.51,-428.324"/>
<polygon fill="#eabfff" stroke="#eabfff" points="301.717,-428.643 304.688,-436.581 307.315,-428.523 301.717,-428.643"/>
</a>
</g>
<!-- MAZ_ZNF281_GTF2F1&#45;&gt;DBX2_HLX -->
<g id="edge34" class="edge"><title>MAZ_ZNF281_GTF2F1&#45;&gt;DBX2_HLX</title>
<a xlink:title="DBX2: 0.005||remove2root">
<path fill="none" stroke="#eecbff" stroke-width="3" d="M187.825,-36.2064C187.825,-104.728 187.825,-347.303 187.825,-428.185"/>
<polygon fill="#eecbff" stroke="#eecbff" points="185.025,-428.366 187.825,-436.366 190.625,-428.366 185.025,-428.366"/>
</a>
</g>
<!-- PATZ1_KLF4&#45;&gt;FOXD1_FOXO1_FOXO6_FOXG1_FOXP1 -->
<g id="edge56" class="edge"><title>PATZ1_KLF4&#45;&gt;FOXD1_FOXO1_FOXO6_FOXG1_FOXP1</title>
<a xlink:title="FOXP1: 1.364||FOXO1: 0.439||FOXO6: 0.225||FOXG1: 0.052||remove16">
<path fill="none" stroke="#bd32ff" stroke-width="3" d="M315.312,-36.1633C343.027,-84.167 418.267,-214.488 450.107,-269.636"/>
<polygon fill="#bd32ff" stroke="#bd32ff" points="447.7,-271.067 454.125,-276.595 452.55,-268.267 447.7,-271.067"/>
</a>
</g>
<!-- PATZ1_KLF4&#45;&gt;MAZ_ZNF281_GTF2F1 -->
<g id="edge64" class="edge"><title>PATZ1_KLF4&#45;&gt;MAZ_ZNF281_GTF2F1</title>
<a xlink:title="MAZ: 0.544||ZNF281: 0.083||GTF2F1: 0.003||remove15">
<path fill="none" stroke="#db8fff" stroke-width="3" d="M266.515,-18C262.97,-18 259.313,-18 255.604,-18"/>
<polygon fill="#db8fff" stroke="#db8fff" points="255.428,-15.1999 247.428,-18 255.428,-20.7999 255.428,-15.1999"/>
</a>
</g>
<!-- PATZ1_KLF4&#45;&gt;PATZ1_KLF4 -->
<g id="edge66" class="edge"><title>PATZ1_KLF4&#45;&gt;PATZ1_KLF4</title>
<a xlink:title="PATZ1: 0.441||KLF4: 0.051||remove19">
<path fill="none" stroke="#de9aff" stroke-width="3" d="M343.039,-24.6907C353.16,-24.3083 360.825,-22.0781 360.825,-18 360.825,-15.1326 357.035,-13.1787 351.267,-12.1384"/>
<polygon fill="#de9aff" stroke="#de9aff" points="351.279,-9.32556 343.039,-11.3093 350.718,-14.8973 351.279,-9.32556"/>
</a>
</g>
<!-- PATZ1_KLF4&#45;&gt;IRF3 -->
<g id="edge68" class="edge"><title>PATZ1_KLF4&#45;&gt;IRF3</title>
<a xlink:title="IRF3: 0.107||remove19root">
<path fill="none" stroke="#bfc6ff" stroke-width="3" d="M299.938,-36.2387C289.546,-75.0236 265.225,-165.789 253.244,-210.502"/>
<polygon fill="#bfc6ff" stroke="#bfc6ff" points="250.523,-209.84 251.157,-218.292 255.932,-211.289 250.523,-209.84"/>
</a>
</g>
<!-- PATZ1_KLF4&#45;&gt;IRF7 -->
<g id="edge58" class="edge"><title>PATZ1_KLF4&#45;&gt;IRF7</title>
<a xlink:title="IRF7: 0.080||remove7">
<path fill="none" stroke="#ebc3ff" stroke-width="3" d="M304.435,-36.231C304.038,-84.0138 306.976,-216.068 347.49,-315.705 355.921,-336.44 370.833,-356.783 383.512,-371.824"/>
<polygon fill="#ebc3ff" stroke="#ebc3ff" points="381.436,-373.704 388.783,-377.931 385.675,-370.045 381.436,-373.704"/>
</a>
</g>
<!-- PATZ1_KLF4&#45;&gt;ATF5 -->
<g id="edge60" class="edge"><title>PATZ1_KLF4&#45;&gt;ATF5</title>
<a xlink:title="ATF5: 0.031||remove13">
<path fill="none" stroke="#edc8ff" stroke-width="3" d="M304.825,-36.2064C304.825,-104.728 304.825,-347.303 304.825,-428.185"/>
<polygon fill="#edc8ff" stroke="#edc8ff" points="302.025,-428.366 304.825,-436.366 307.625,-428.366 302.025,-428.366"/>
</a>
</g>
<!-- EBF1 -->
<g id="node43" class="node"><title>EBF1</title>
<a xlink:href="EBF1.svg" xlink:title="Z&#45;value: 0.941||remove12">
<polygon fill="#7987ff" stroke="#7987ff" stroke-width="2" points="479.65,-195.825 449.65,-195.825 437.65,-183.825 437.65,-171.825 449.65,-159.825 479.65,-159.825 491.65,-171.825 491.65,-183.825 479.65,-195.825"/>
<path fill="#7987ff" stroke="#7987ff" stroke-width="2" d="M449.65,-195.825C443.65,-195.825 437.65,-189.825 437.65,-183.825"/>
<path fill="#7987ff" stroke="#7987ff" stroke-width="2" d="M437.65,-171.825C437.65,-165.825 443.65,-159.825 449.65,-159.825"/>
<path fill="#7987ff" stroke="#7987ff" stroke-width="2" d="M479.65,-159.825C485.65,-159.825 491.65,-165.825 491.65,-171.825"/>
<path fill="#7987ff" stroke="#7987ff" stroke-width="2" d="M491.65,-183.825C491.65,-189.825 485.65,-195.825 479.65,-195.825"/>
<polyline fill="none" stroke="white" stroke-width="2" points="479.65,-195.825 449.65,-195.825 "/>
<path fill="none" stroke="white" stroke-width="2" d="M449.65,-195.825C443.65,-195.825 437.65,-189.825 437.65,-183.825"/>
<polyline fill="none" stroke="white" stroke-width="2" points="437.65,-183.825 437.65,-171.825 "/>
<path fill="none" stroke="white" stroke-width="2" d="M437.65,-171.825C437.65,-165.825 443.65,-159.825 449.65,-159.825"/>
<polyline fill="none" stroke="white" stroke-width="2" points="449.65,-159.825 479.65,-159.825 "/>
<path fill="none" stroke="white" stroke-width="2" d="M479.65,-159.825C485.65,-159.825 491.65,-165.825 491.65,-171.825"/>
<polyline fill="none" stroke="white" stroke-width="2" points="491.65,-171.825 491.65,-183.825 "/>
<path fill="none" stroke="white" stroke-width="2" d="M491.65,-183.825C491.65,-189.825 485.65,-195.825 479.65,-195.825"/>
<text text-anchor="middle" x="464.65" y="-175.325" font-family="Helvetica,sans-Serif" font-size="10.00">EBF1</text>
</a>
</g>
<!-- PATZ1_KLF4&#45;&gt;EBF1 -->
<g id="edge62" class="edge"><title>PATZ1_KLF4&#45;&gt;EBF1</title>
<a xlink:title="EBF1: 0.007||PATZ1: 0.049||remove12">
<path fill="none" stroke="#eecbff" stroke-width="3" d="M326.086,-42.0786C339.665,-58.0792 358.141,-79.1456 375.54,-96.6756 395.326,-116.616 419.109,-137.805 437.207,-153.406"/>
<path fill="none" stroke="#ecc6ff" stroke-width="3" d="M324.561,-43.3727C338.161,-59.3979 356.637,-80.4644 374.12,-98.0844 393.995,-118.11 417.778,-139.298 435.901,-154.921"/>
<polygon fill="#ecc6ff" stroke="#ecc6ff" points="327.115,-40.5065 319.816,-36.1973 322.835,-44.1175 327.115,-40.5065"/>
<polygon fill="#eecbff" stroke="#eecbff" points="435.056,-156.568 442.951,-159.651 438.702,-152.317 435.056,-156.568"/>
</a>
</g>
<!-- IRF3&#45;&gt;FOXD1_FOXO1_FOXO6_FOXG1_FOXP1 -->
<g id="edge70" class="edge"><title>IRF3&#45;&gt;FOXD1_FOXO1_FOXO6_FOXG1_FOXP1</title>
<a xlink:title="FOXP1: 0.037||remove16root">
<path fill="none" stroke="#ffc7c7" stroke-width="3" d="M273.535,-243.616C302.362,-251.34 349.157,-263.879 389.227,-274.615"/>
<polygon fill="#ffc7c7" stroke="#ffc7c7" points="388.692,-277.371 397.144,-276.737 390.141,-271.962 388.692,-277.371"/>
</a>
</g>
<!-- IRF3&#45;&gt;IRF7 -->
<g id="edge72" class="edge"><title>IRF3&#45;&gt;IRF7</title>
<a xlink:title="IRF7: 0.021||remove7root">
<path fill="none" stroke="#ffc9c9" stroke-width="3" d="M264.348,-254.348C293.245,-283.245 349.962,-339.962 382.221,-372.221"/>
<polygon fill="#ffc9c9" stroke="#ffc9c9" points="380.311,-374.27 387.947,-377.947 384.27,-370.311 380.311,-374.27"/>
</a>
</g>
<!-- IRF3&#45;&gt;ATF5 -->
<g id="edge74" class="edge"><title>IRF3&#45;&gt;ATF5</title>
<a xlink:title="ATF5: 0.030||remove13root">
<path fill="none" stroke="#ffc8c8" stroke-width="3" d="M251.212,-254.564C261.604,-293.349 285.925,-384.114 297.906,-428.827"/>
<polygon fill="#ffc8c8" stroke="#ffc8c8" points="295.218,-429.614 299.993,-436.617 300.627,-428.165 295.218,-429.614"/>
</a>
</g>
<!-- IRF3&#45;&gt;DBX2_HLX -->
<g id="edge76" class="edge"><title>IRF3&#45;&gt;DBX2_HLX</title>
<a xlink:title="HLX: 0.025||remove9root">
<path fill="none" stroke="#ffc9c9" stroke-width="3" d="M241.438,-254.564C231.046,-293.349 206.725,-384.114 194.744,-428.827"/>
<polygon fill="#ffc9c9" stroke="#ffc9c9" points="192.023,-428.165 192.657,-436.617 197.432,-429.614 192.023,-428.165"/>
</a>
</g>
<!-- IKZF1&#45;&gt;SIN3A_CHD1 -->
<g id="edge104" class="edge"><title>IKZF1&#45;&gt;SIN3A_CHD1</title>
<a xlink:title="SIN3A: 0.037||remove10">
<path fill="none" stroke="#edc7ff" stroke-width="3" d="M379.022,-92.2849C339.939,-115.851 266.806,-163.102 215.005,-215.445 166.339,-264.619 122.671,-333.808 100.967,-370.675"/>
<polygon fill="#edc7ff" stroke="#edc7ff" points="98.2879,-369.712 96.6756,-378.033 103.125,-372.534 98.2879,-369.712"/>
</a>
</g>
<!-- IKZF1&#45;&gt;ZNF143 -->
<g id="edge96" class="edge"><title>IKZF1&#45;&gt;ZNF143</title>
<a xlink:title="ZNF143: 0.034||remove11">
<path fill="none" stroke="#edc8ff" stroke-width="3" d="M378.954,-83.787C311.717,-101.803 137.719,-148.426 62.9686,-168.455"/>
<polygon fill="#edc8ff" stroke="#edc8ff" points="62.2054,-165.761 55.2027,-170.536 63.6549,-171.17 62.2054,-165.761"/>
</a>
</g>
<!-- IKZF1&#45;&gt;ZNF384 -->
<g id="edge102" class="edge"><title>IKZF1&#45;&gt;ZNF384</title>
<a xlink:title="ZNF384: 0.067||remove14">
<path fill="none" stroke="#ecc4ff" stroke-width="3" d="M378.897,-76.5C321.101,-76.5 186.273,-76.5 121.914,-76.5"/>
<polygon fill="#ecc4ff" stroke="#ecc4ff" points="121.684,-73.7001 113.684,-76.5 121.684,-79.3001 121.684,-73.7001"/>
</a>
</g>
<!-- IKZF1&#45;&gt;PATZ1_KLF4 -->
<g id="edge108" class="edge"><title>IKZF1&#45;&gt;PATZ1_KLF4</title>
<a xlink:title="PATZ1: 0.034||remove14">
<path fill="none" stroke="#edc8ff" stroke-width="3" d="M378.997,-60.8231C368.123,-54.5449 355.392,-47.1948 343.577,-40.3736"/>
<polygon fill="#edc8ff" stroke="#edc8ff" points="344.692,-37.7843 336.364,-36.2091 341.892,-42.634 344.692,-37.7843"/>
</a>
</g>
<!-- IKZF1&#45;&gt;IRF3 -->
<g id="edge110" class="edge"><title>IKZF1&#45;&gt;IRF3</title>
<a xlink:title="IRF3: 0.032||remove14root">
<path fill="none" stroke="#c8cdff" stroke-width="3" d="M388.127,-94.5233C359.23,-123.42 302.513,-180.137 270.254,-212.396"/>
<polygon fill="#c8cdff" stroke="#c8cdff" points="268.205,-210.486 264.528,-218.122 272.164,-214.445 268.205,-210.486"/>
</a>
</g>
<!-- IKZF1&#45;&gt;IRF7 -->
<g id="edge98" class="edge"><title>IKZF1&#45;&gt;IRF7</title>
<a xlink:title="IRF7: 0.099||remove7">
<path fill="none" stroke="#ebc0ff" stroke-width="3" d="M394.799,-94.763C371.196,-135.135 321.125,-234.802 347.49,-315.705 354.379,-336.844 369.153,-357.048 382.151,-371.922"/>
<polygon fill="#ebc0ff" stroke="#ebc0ff" points="380.151,-373.884 387.584,-377.956 384.312,-370.138 380.151,-373.884"/>
</a>
</g>
<!-- IKZF1&#45;&gt;ATF5 -->
<g id="edge100" class="edge"><title>IKZF1&#45;&gt;ATF5</title>
<a xlink:title="ATF5: 0.105||remove13">
<path fill="none" stroke="#eac0ff" stroke-width="3" d="M400.383,-94.6401C389.448,-129.304 365.208,-207.427 347.49,-273.945 332.896,-328.735 318.214,-393.545 310.456,-428.739"/>
<polygon fill="#eac0ff" stroke="#eac0ff" points="307.708,-428.197 308.727,-436.611 313.178,-429.398 307.708,-428.197"/>
</a>
</g>
<!-- IKZF1&#45;&gt;DBX2_HLX -->
<g id="edge106" class="edge"><title>IKZF1&#45;&gt;DBX2_HLX</title>
<a xlink:title="HLX: 0.134||DBX2: 0.006||remove9">
<path fill="none" stroke="#e9bdff" stroke-width="3" d="M395.62,-94.739C359.952,-156.517 243.635,-357.984 202.445,-429.327"/>
<polygon fill="#e9bdff" stroke="#e9bdff" points="199.825,-428.266 198.25,-436.594 204.675,-431.066 199.825,-428.266"/>
</a>
</g>
<!-- EBF1&#45;&gt;FOXD1_FOXO1_FOXO6_FOXG1_FOXP1 -->
<g id="edge86" class="edge"><title>EBF1&#45;&gt;FOXD1_FOXO1_FOXO6_FOXG1_FOXP1</title>
<a xlink:title="FOXO6: 0.144||FOXG1: 0.090||remove12">
<path fill="none" stroke="#e9bbff" stroke-width="3" d="M464.65,-195.85C464.65,-215.289 464.65,-246.423 464.65,-268.578"/>
<polygon fill="#e9bbff" stroke="#e9bbff" points="461.85,-268.587 464.65,-276.587 467.45,-268.587 461.85,-268.587"/>
</a>
</g>
<!-- EBF1&#45;&gt;MAZ_ZNF281_GTF2F1 -->
<g id="edge92" class="edge"><title>EBF1&#45;&gt;MAZ_ZNF281_GTF2F1</title>
<a xlink:title="MAZ: 0.041||ZNF281: 0.019||remove12">
<path fill="none" stroke="#edc7ff" stroke-width="3" d="M437.603,-162.209C388.156,-133.661 283.043,-72.9741 226.213,-40.1633"/>
<polygon fill="#edc7ff" stroke="#edc7ff" points="227.522,-37.6862 219.194,-36.111 224.722,-42.536 227.522,-37.6862"/>
</a>
</g>
<!-- EBF1&#45;&gt;IRF3 -->
<g id="edge94" class="edge"><title>EBF1&#45;&gt;IRF3</title>
<a xlink:title="IRF3: 0.029||remove12root">
<path fill="none" stroke="#c8ceff" stroke-width="3" d="M437.44,-185.116C397.947,-195.698 324.729,-215.317 281.284,-226.958"/>
<polygon fill="#c8ceff" stroke="#c8ceff" points="280.536,-224.259 273.534,-229.034 281.986,-229.668 280.536,-224.259"/>
</a>
</g>
<!-- EBF1&#45;&gt;IKZF1 -->
<g id="edge88" class="edge"><title>EBF1&#45;&gt;IKZF1</title>
<a xlink:title="IKZF1: 0.030||remove12">
<path fill="none" stroke="#edc8ff" stroke-width="3" d="M454.191,-159.71C444.932,-143.672 431.315,-120.087 420.941,-102.118"/>
<polygon fill="#edc8ff" stroke="#edc8ff" points="423.14,-100.328 416.715,-94.7997 418.29,-103.128 423.14,-100.328"/>
</a>
</g>
<!-- EBF1&#45;&gt;DBX2_HLX -->
<g id="edge90" class="edge"><title>EBF1&#45;&gt;DBX2_HLX</title>
<a xlink:title="HLX: 0.068||remove9">
<path fill="none" stroke="#ecc4ff" stroke-width="3" d="M440.365,-195.912C415.985,-214.486 377.796,-244.729 347.49,-273.945 293.155,-326.327 236.166,-394.548 207.207,-430.322"/>
<polygon fill="#ecc4ff" stroke="#ecc4ff" points="204.976,-428.628 202.133,-436.613 209.335,-432.144 204.976,-428.628"/>
</a>
</g>
</g>
</svg>
