<?xml version="1.0" encoding="UTF-8" standalone="no"?>
<!DOCTYPE svg PUBLIC "-//W3C//DTD SVG 1.1//EN"
 "http://www.w3.org/Graphics/SVG/1.1/DTD/svg11.dtd">
<!-- Generated by graphviz version 2.28.0 (20110630.0925)
 -->
<!-- Title: _anonymous_0 Pages: 1 -->
<svg width="557pt" height="514pt"
 viewBox="0.00 0.00 556.74 514.24" xmlns="http://www.w3.org/2000/svg" xmlns:xlink="http://www.w3.org/1999/xlink">
<g id="graph1" class="graph" transform="scale(1 1) rotate(0) translate(4 510.238)">
<title>_anonymous_0</title>
<polygon fill="white" stroke="white" points="-4,5 -4,-510.238 553.738,-510.238 553.738,5 -4,5"/>
<!-- PATZ1_KLF4 -->
<g id="node1" class="node"><title>PATZ1_KLF4</title>
<a xlink:href="PATZ1_KLF4.svg" xlink:title="Z&#45;value: 1.751||remove26">
<polygon fill="#3247ff" stroke="#3247ff" stroke-width="2" points="461.238,-99 409.238,-99 397.238,-87 397.238,-75 409.238,-63 461.238,-63 473.238,-75 473.238,-87 461.238,-99"/>
<path fill="#3247ff" stroke="#3247ff" stroke-width="2" d="M409.238,-99C403.238,-99 397.238,-93 397.238,-87"/>
<path fill="#3247ff" stroke="#3247ff" stroke-width="2" d="M397.238,-75C397.238,-69 403.238,-63 409.238,-63"/>
<path fill="#3247ff" stroke="#3247ff" stroke-width="2" d="M461.238,-63C467.238,-63 473.238,-69 473.238,-75"/>
<path fill="#3247ff" stroke="#3247ff" stroke-width="2" d="M473.238,-87C473.238,-93 467.238,-99 461.238,-99"/>
<polyline fill="none" stroke="white" stroke-width="2" points="461.238,-99 409.238,-99 "/>
<path fill="none" stroke="white" stroke-width="2" d="M409.238,-99C403.238,-99 397.238,-93 397.238,-87"/>
<polyline fill="none" stroke="white" stroke-width="2" points="397.238,-87 397.238,-75 "/>
<path fill="none" stroke="white" stroke-width="2" d="M397.238,-75C397.238,-69 403.238,-63 409.238,-63"/>
<polyline fill="none" stroke="white" stroke-width="2" points="409.238,-63 461.238,-63 "/>
<path fill="none" stroke="white" stroke-width="2" d="M461.238,-63C467.238,-63 473.238,-69 473.238,-75"/>
<polyline fill="none" stroke="white" stroke-width="2" points="473.238,-75 473.238,-87 "/>
<path fill="none" stroke="white" stroke-width="2" d="M473.238,-87C473.238,-93 467.238,-99 461.238,-99"/>
<text text-anchor="middle" x="435.238" y="-78.5" font-family="Helvetica,sans-Serif" font-size="10.00" fill="white">PATZ1_KLF4</text>
</a>
</g>
<!-- PATZ1_KLF4&#45;&gt;PATZ1_KLF4 -->
<g id="edge2" class="edge"><title>PATZ1_KLF4&#45;&gt;PATZ1_KLF4</title>
<a xlink:title="PATZ1: 0.441||KLF4: 0.051||remove25root">
<path fill="none" stroke="#d681ff" stroke-width="3" d="M473.452,-87.6907C483.573,-87.3084 491.238,-85.0781 491.238,-81 491.238,-78.1326 487.449,-76.1787 481.681,-75.1384"/>
<polygon fill="#d681ff" stroke="#d681ff" points="481.693,-72.3256 473.452,-74.3093 481.131,-77.8974 481.693,-72.3256"/>
</a>
</g>
<!-- MAFB -->
<g id="node3" class="node"><title>MAFB</title>
<a xlink:href="MAFB.svg" xlink:title="Z&#45;value: 0.960||remove28">
<polygon fill="#ff7878" stroke="#ff7878" stroke-width="2" points="278.119,-271.119 248.119,-271.119 236.119,-259.119 236.119,-247.119 248.119,-235.119 278.119,-235.119 290.119,-247.119 290.119,-259.119 278.119,-271.119"/>
<path fill="#ff7878" stroke="#ff7878" stroke-width="2" d="M248.119,-271.119C242.119,-271.119 236.119,-265.119 236.119,-259.119"/>
<path fill="#ff7878" stroke="#ff7878" stroke-width="2" d="M236.119,-247.119C236.119,-241.119 242.119,-235.119 248.119,-235.119"/>
<path fill="#ff7878" stroke="#ff7878" stroke-width="2" d="M278.119,-235.119C284.119,-235.119 290.119,-241.119 290.119,-247.119"/>
<path fill="#ff7878" stroke="#ff7878" stroke-width="2" d="M290.119,-259.119C290.119,-265.119 284.119,-271.119 278.119,-271.119"/>
<polyline fill="none" stroke="white" stroke-width="2" points="278.119,-271.119 248.119,-271.119 "/>
<path fill="none" stroke="white" stroke-width="2" d="M248.119,-271.119C242.119,-271.119 236.119,-265.119 236.119,-259.119"/>
<polyline fill="none" stroke="white" stroke-width="2" points="236.119,-259.119 236.119,-247.119 "/>
<path fill="none" stroke="white" stroke-width="2" d="M236.119,-247.119C236.119,-241.119 242.119,-235.119 248.119,-235.119"/>
<polyline fill="none" stroke="white" stroke-width="2" points="248.119,-235.119 278.119,-235.119 "/>
<path fill="none" stroke="white" stroke-width="2" d="M278.119,-235.119C284.119,-235.119 290.119,-241.119 290.119,-247.119"/>
<polyline fill="none" stroke="white" stroke-width="2" points="290.119,-247.119 290.119,-259.119 "/>
<path fill="none" stroke="white" stroke-width="2" d="M290.119,-259.119C290.119,-265.119 284.119,-271.119 278.119,-271.119"/>
<text text-anchor="middle" x="263.119" y="-250.619" font-family="Helvetica,sans-Serif" font-size="10.00">MAFB</text>
</a>
</g>
<!-- PATZ1_KLF4&#45;&gt;MAFB -->
<g id="edge4" class="edge"><title>PATZ1_KLF4&#45;&gt;MAFB</title>
<a xlink:title="MAFB: 0.456||KLF4: 0.149||PATZ1: 0.093||remove26root">
<path fill="none" stroke="#7e8bff" stroke-width="3" d="M412.11,-105.543C379.312,-138.34 320.605,-197.048 287.757,-229.896"/>
<path fill="none" stroke="#ffb2b2" stroke-width="3" d="M410.696,-104.128C377.898,-136.926 319.191,-195.633 286.343,-228.481"/>
<polygon fill="#ffb2b2" stroke="#ffb2b2" points="413.467,-106.731 417.144,-99.0945 409.507,-102.771 413.467,-106.731"/>
<polygon fill="#7e8bff" stroke="#7e8bff" points="284.906,-227.372 281.229,-235.009 288.866,-231.332 284.906,-227.372"/>
</a>
</g>
<!-- HOXD11_HOXA11 -->
<g id="node5" class="node"><title>HOXD11_HOXA11</title>
<a xlink:href="HOXD11_HOXA11.svg" xlink:title="Z&#45;value: 0.598||remove19">
<polygon fill="#97a2ff" stroke="#97a2ff" stroke-width="2" points="536.488,-334.119 459.988,-334.119 447.988,-322.119 447.988,-310.119 459.988,-298.119 536.488,-298.119 548.488,-310.119 548.488,-322.119 536.488,-334.119"/>
<path fill="#97a2ff" stroke="#97a2ff" stroke-width="2" d="M459.988,-334.119C453.988,-334.119 447.988,-328.119 447.988,-322.119"/>
<path fill="#97a2ff" stroke="#97a2ff" stroke-width="2" d="M447.988,-310.119C447.988,-304.119 453.988,-298.119 459.988,-298.119"/>
<path fill="#97a2ff" stroke="#97a2ff" stroke-width="2" d="M536.488,-298.119C542.488,-298.119 548.488,-304.119 548.488,-310.119"/>
<path fill="#97a2ff" stroke="#97a2ff" stroke-width="2" d="M548.488,-322.119C548.488,-328.119 542.488,-334.119 536.488,-334.119"/>
<polyline fill="none" stroke="white" stroke-width="2" points="536.488,-334.119 459.988,-334.119 "/>
<path fill="none" stroke="white" stroke-width="2" d="M459.988,-334.119C453.988,-334.119 447.988,-328.119 447.988,-322.119"/>
<polyline fill="none" stroke="white" stroke-width="2" points="447.988,-322.119 447.988,-310.119 "/>
<path fill="none" stroke="white" stroke-width="2" d="M447.988,-310.119C447.988,-304.119 453.988,-298.119 459.988,-298.119"/>
<polyline fill="none" stroke="white" stroke-width="2" points="459.988,-298.119 536.488,-298.119 "/>
<path fill="none" stroke="white" stroke-width="2" d="M536.488,-298.119C542.488,-298.119 548.488,-304.119 548.488,-310.119"/>
<polyline fill="none" stroke="white" stroke-width="2" points="548.488,-310.119 548.488,-322.119 "/>
<path fill="none" stroke="white" stroke-width="2" d="M548.488,-322.119C548.488,-328.119 542.488,-334.119 536.488,-334.119"/>
<text text-anchor="middle" x="498.238" y="-313.619" font-family="Helvetica,sans-Serif" font-size="10.00">HOXD11_HOXA11</text>
</a>
</g>
<!-- PATZ1_KLF4&#45;&gt;HOXD11_HOXA11 -->
<g id="edge6" class="edge"><title>PATZ1_KLF4&#45;&gt;HOXD11_HOXA11</title>
<a xlink:title="HOXD11: 0.125||remove9root">
<path fill="none" stroke="#e7b6ff" stroke-width="3" d="M439.358,-99.1601C445.145,-124.359 456.177,-171.31 466.918,-210.999 474.253,-238.099 483.527,-268.849 490.074,-290.058"/>
<polygon fill="#e7b6ff" stroke="#e7b6ff" points="487.483,-291.156 492.526,-297.968 492.832,-289.498 487.483,-291.156"/>
</a>
</g>
<!-- HOXC10_HOXD13 -->
<g id="node7" class="node"><title>HOXC10_HOXD13</title>
<a xlink:href="HOXC10_HOXD13.svg" xlink:title="Z&#45;value: 0.435||remove22">
<polygon fill="#a5aeff" stroke="#a5aeff" stroke-width="2" points="473.488,-443.238 396.988,-443.238 384.988,-431.238 384.988,-419.238 396.988,-407.238 473.488,-407.238 485.488,-419.238 485.488,-431.238 473.488,-443.238"/>
<path fill="#a5aeff" stroke="#a5aeff" stroke-width="2" d="M396.988,-443.238C390.988,-443.238 384.988,-437.238 384.988,-431.238"/>
<path fill="#a5aeff" stroke="#a5aeff" stroke-width="2" d="M384.988,-419.238C384.988,-413.238 390.988,-407.238 396.988,-407.238"/>
<path fill="#a5aeff" stroke="#a5aeff" stroke-width="2" d="M473.488,-407.238C479.488,-407.238 485.488,-413.238 485.488,-419.238"/>
<path fill="#a5aeff" stroke="#a5aeff" stroke-width="2" d="M485.488,-431.238C485.488,-437.238 479.488,-443.238 473.488,-443.238"/>
<polyline fill="none" stroke="white" stroke-width="2" points="473.488,-443.238 396.988,-443.238 "/>
<path fill="none" stroke="white" stroke-width="2" d="M396.988,-443.238C390.988,-443.238 384.988,-437.238 384.988,-431.238"/>
<polyline fill="none" stroke="white" stroke-width="2" points="384.988,-431.238 384.988,-419.238 "/>
<path fill="none" stroke="white" stroke-width="2" d="M384.988,-419.238C384.988,-413.238 390.988,-407.238 396.988,-407.238"/>
<polyline fill="none" stroke="white" stroke-width="2" points="396.988,-407.238 473.488,-407.238 "/>
<path fill="none" stroke="white" stroke-width="2" d="M473.488,-407.238C479.488,-407.238 485.488,-413.238 485.488,-419.238"/>
<polyline fill="none" stroke="white" stroke-width="2" points="485.488,-419.238 485.488,-431.238 "/>
<path fill="none" stroke="white" stroke-width="2" d="M485.488,-431.238C485.488,-437.238 479.488,-443.238 473.488,-443.238"/>
<text text-anchor="middle" x="435.238" y="-422.738" font-family="Helvetica,sans-Serif" font-size="10.00">HOXC10_HOXD13</text>
</a>
</g>
<!-- PATZ1_KLF4&#45;&gt;HOXC10_HOXD13 -->
<g id="edge8" class="edge"><title>PATZ1_KLF4&#45;&gt;HOXC10_HOXD13</title>
<a xlink:title="HOXC10: 0.039||remove4root">
<path fill="none" stroke="#ecc5ff" stroke-width="3" d="M435.238,-99.0231C435.238,-155.82 435.238,-331.292 435.238,-398.589"/>
<polygon fill="#ecc5ff" stroke="#ecc5ff" points="432.439,-398.978 435.238,-406.978 438.039,-398.978 432.439,-398.978"/>
</a>
</g>
<!-- MEIS3_TGIF2LX -->
<g id="node9" class="node"><title>MEIS3_TGIF2LX</title>
<a xlink:href="MEIS3_TGIF2LX.svg" xlink:title="Z&#45;value: 0.309||remove14">
<polygon fill="#b1b8ff" stroke="#b1b8ff" stroke-width="2" points="360.119,-506.238 292.119,-506.238 280.119,-494.238 280.119,-482.238 292.119,-470.238 360.119,-470.238 372.119,-482.238 372.119,-494.238 360.119,-506.238"/>
<path fill="#b1b8ff" stroke="#b1b8ff" stroke-width="2" d="M292.119,-506.238C286.119,-506.238 280.119,-500.238 280.119,-494.238"/>
<path fill="#b1b8ff" stroke="#b1b8ff" stroke-width="2" d="M280.119,-482.238C280.119,-476.238 286.119,-470.238 292.119,-470.238"/>
<path fill="#b1b8ff" stroke="#b1b8ff" stroke-width="2" d="M360.119,-470.238C366.119,-470.238 372.119,-476.238 372.119,-482.238"/>
<path fill="#b1b8ff" stroke="#b1b8ff" stroke-width="2" d="M372.119,-494.238C372.119,-500.238 366.119,-506.238 360.119,-506.238"/>
<polyline fill="none" stroke="white" stroke-width="2" points="360.119,-506.238 292.119,-506.238 "/>
<path fill="none" stroke="white" stroke-width="2" d="M292.119,-506.238C286.119,-506.238 280.119,-500.238 280.119,-494.238"/>
<polyline fill="none" stroke="white" stroke-width="2" points="280.119,-494.238 280.119,-482.238 "/>
<path fill="none" stroke="white" stroke-width="2" d="M280.119,-482.238C280.119,-476.238 286.119,-470.238 292.119,-470.238"/>
<polyline fill="none" stroke="white" stroke-width="2" points="292.119,-470.238 360.119,-470.238 "/>
<path fill="none" stroke="white" stroke-width="2" d="M360.119,-470.238C366.119,-470.238 372.119,-476.238 372.119,-482.238"/>
<polyline fill="none" stroke="white" stroke-width="2" points="372.119,-482.238 372.119,-494.238 "/>
<path fill="none" stroke="white" stroke-width="2" d="M372.119,-494.238C372.119,-500.238 366.119,-506.238 360.119,-506.238"/>
<text text-anchor="middle" x="326.119" y="-485.738" font-family="Helvetica,sans-Serif" font-size="10.00">MEIS3_TGIF2LX</text>
</a>
</g>
<!-- PATZ1_KLF4&#45;&gt;MEIS3_TGIF2LX -->
<g id="edge10" class="edge"><title>PATZ1_KLF4&#45;&gt;MEIS3_TGIF2LX</title>
<a xlink:title="TGIF2LX: 0.014||remove0root">
<path fill="none" stroke="#edc9ff" stroke-width="3" d="M430.409,-99.024C413.018,-163.927 353.544,-385.886 333.093,-462.212"/>
<polygon fill="#edc9ff" stroke="#edc9ff" points="330.383,-461.508 331.017,-469.961 335.792,-462.958 330.383,-461.508"/>
</a>
</g>
<!-- ONECUT2_ONECUT3 -->
<g id="node11" class="node"><title>ONECUT2_ONECUT3</title>
<a xlink:href="ONECUT2_ONECUT3.svg" xlink:title="Z&#45;value: 0.366||remove20">
<polygon fill="#acb4ff" stroke="#acb4ff" stroke-width="2" points="247.119,-506.238 153.119,-506.238 141.119,-494.238 141.119,-482.238 153.119,-470.238 247.119,-470.238 259.119,-482.238 259.119,-494.238 247.119,-506.238"/>
<path fill="#acb4ff" stroke="#acb4ff" stroke-width="2" d="M153.119,-506.238C147.119,-506.238 141.119,-500.238 141.119,-494.238"/>
<path fill="#acb4ff" stroke="#acb4ff" stroke-width="2" d="M141.119,-482.238C141.119,-476.238 147.119,-470.238 153.119,-470.238"/>
<path fill="#acb4ff" stroke="#acb4ff" stroke-width="2" d="M247.119,-470.238C253.119,-470.238 259.119,-476.238 259.119,-482.238"/>
<path fill="#acb4ff" stroke="#acb4ff" stroke-width="2" d="M259.119,-494.238C259.119,-500.238 253.119,-506.238 247.119,-506.238"/>
<polyline fill="none" stroke="white" stroke-width="2" points="247.119,-506.238 153.119,-506.238 "/>
<path fill="none" stroke="white" stroke-width="2" d="M153.119,-506.238C147.119,-506.238 141.119,-500.238 141.119,-494.238"/>
<polyline fill="none" stroke="white" stroke-width="2" points="141.119,-494.238 141.119,-482.238 "/>
<path fill="none" stroke="white" stroke-width="2" d="M141.119,-482.238C141.119,-476.238 147.119,-470.238 153.119,-470.238"/>
<polyline fill="none" stroke="white" stroke-width="2" points="153.119,-470.238 247.119,-470.238 "/>
<path fill="none" stroke="white" stroke-width="2" d="M247.119,-470.238C253.119,-470.238 259.119,-476.238 259.119,-482.238"/>
<polyline fill="none" stroke="white" stroke-width="2" points="259.119,-482.238 259.119,-494.238 "/>
<path fill="none" stroke="white" stroke-width="2" d="M259.119,-494.238C259.119,-500.238 253.119,-506.238 247.119,-506.238"/>
<text text-anchor="middle" x="200.119" y="-485.738" font-family="Helvetica,sans-Serif" font-size="10.00">ONECUT2_ONECUT3</text>
</a>
</g>
<!-- PATZ1_KLF4&#45;&gt;ONECUT2_ONECUT3 -->
<g id="edge12" class="edge"><title>PATZ1_KLF4&#45;&gt;ONECUT2_ONECUT3</title>
<a xlink:title="ONECUT2: 0.141||ONECUT3: 0.086||remove10root">
<path fill="none" stroke="#e7b4ff" stroke-width="3" d="M424.832,-99.024C387.285,-164.059 258.693,-386.785 214.879,-462.674"/>
<polygon fill="#e7b4ff" stroke="#e7b4ff" points="212.247,-461.632 210.672,-469.961 217.097,-464.432 212.247,-461.632"/>
</a>
</g>
<!-- POU3F3_POU3F4 -->
<g id="node13" class="node"><title>POU3F3_POU3F4</title>
<a xlink:href="POU3F3_POU3F4.svg" xlink:title="Z&#45;value: 0.515||remove17">
<polygon fill="#9fa8ff" stroke="#9fa8ff" stroke-width="2" points="127.5,-443.238 54.5,-443.238 42.5,-431.238 42.5,-419.238 54.5,-407.238 127.5,-407.238 139.5,-419.238 139.5,-431.238 127.5,-443.238"/>
<path fill="#9fa8ff" stroke="#9fa8ff" stroke-width="2" d="M54.5,-443.238C48.5,-443.238 42.5,-437.238 42.5,-431.238"/>
<path fill="#9fa8ff" stroke="#9fa8ff" stroke-width="2" d="M42.5,-419.238C42.5,-413.238 48.5,-407.238 54.5,-407.238"/>
<path fill="#9fa8ff" stroke="#9fa8ff" stroke-width="2" d="M127.5,-407.238C133.5,-407.238 139.5,-413.238 139.5,-419.238"/>
<path fill="#9fa8ff" stroke="#9fa8ff" stroke-width="2" d="M139.5,-431.238C139.5,-437.238 133.5,-443.238 127.5,-443.238"/>
<polyline fill="none" stroke="white" stroke-width="2" points="127.5,-443.238 54.5,-443.238 "/>
<path fill="none" stroke="white" stroke-width="2" d="M54.5,-443.238C48.5,-443.238 42.5,-437.238 42.5,-431.238"/>
<polyline fill="none" stroke="white" stroke-width="2" points="42.5,-431.238 42.5,-419.238 "/>
<path fill="none" stroke="white" stroke-width="2" d="M42.5,-419.238C42.5,-413.238 48.5,-407.238 54.5,-407.238"/>
<polyline fill="none" stroke="white" stroke-width="2" points="54.5,-407.238 127.5,-407.238 "/>
<path fill="none" stroke="white" stroke-width="2" d="M127.5,-407.238C133.5,-407.238 139.5,-413.238 139.5,-419.238"/>
<polyline fill="none" stroke="white" stroke-width="2" points="139.5,-419.238 139.5,-431.238 "/>
<path fill="none" stroke="white" stroke-width="2" d="M139.5,-431.238C139.5,-437.238 133.5,-443.238 127.5,-443.238"/>
<text text-anchor="middle" x="91" y="-422.738" font-family="Helvetica,sans-Serif" font-size="10.00">POU3F3_POU3F4</text>
</a>
</g>
<!-- PATZ1_KLF4&#45;&gt;POU3F3_POU3F4 -->
<g id="edge14" class="edge"><title>PATZ1_KLF4&#45;&gt;POU3F3_POU3F4</title>
<a xlink:title="POU3F3: 0.287||remove17">
<path fill="none" stroke="#df9bff" stroke-width="3" d="M405.446,-99.0685C363.757,-125.214 286.943,-176.597 231.799,-232.239 178.563,-285.957 129.732,-361.067 106.039,-399.842"/>
<polygon fill="#df9bff" stroke="#df9bff" points="103.395,-398.803 101.642,-407.095 108.183,-401.706 103.395,-398.803"/>
</a>
</g>
<!-- HOXA13 -->
<g id="node15" class="node"><title>HOXA13</title>
<a xlink:href="HOXA13.svg" xlink:title="Z&#45;value: 0.507||remove15">
<polygon fill="#9fa9ff" stroke="#9fa9ff" stroke-width="2" points="43.5,-334.119 12.5,-334.119 0.5,-322.119 0.5,-310.119 12.5,-298.119 43.5,-298.119 55.5,-310.119 55.5,-322.119 43.5,-334.119"/>
<path fill="#9fa9ff" stroke="#9fa9ff" stroke-width="2" d="M12.5,-334.119C6.5,-334.119 0.5,-328.119 0.5,-322.119"/>
<path fill="#9fa9ff" stroke="#9fa9ff" stroke-width="2" d="M0.5,-310.119C0.5,-304.119 6.5,-298.119 12.5,-298.119"/>
<path fill="#9fa9ff" stroke="#9fa9ff" stroke-width="2" d="M43.5,-298.119C49.5,-298.119 55.5,-304.119 55.5,-310.119"/>
<path fill="#9fa9ff" stroke="#9fa9ff" stroke-width="2" d="M55.5,-322.119C55.5,-328.119 49.5,-334.119 43.5,-334.119"/>
<polyline fill="none" stroke="white" stroke-width="2" points="43.5,-334.119 12.5,-334.119 "/>
<path fill="none" stroke="white" stroke-width="2" d="M12.5,-334.119C6.5,-334.119 0.5,-328.119 0.5,-322.119"/>
<polyline fill="none" stroke="white" stroke-width="2" points="0.5,-322.119 0.5,-310.119 "/>
<path fill="none" stroke="white" stroke-width="2" d="M0.5,-310.119C0.5,-304.119 6.5,-298.119 12.5,-298.119"/>
<polyline fill="none" stroke="white" stroke-width="2" points="12.5,-298.119 43.5,-298.119 "/>
<path fill="none" stroke="white" stroke-width="2" d="M43.5,-298.119C49.5,-298.119 55.5,-304.119 55.5,-310.119"/>
<polyline fill="none" stroke="white" stroke-width="2" points="55.5,-310.119 55.5,-322.119 "/>
<path fill="none" stroke="white" stroke-width="2" d="M55.5,-322.119C55.5,-328.119 49.5,-334.119 43.5,-334.119"/>
<text text-anchor="middle" x="28" y="-313.619" font-family="Helvetica,sans-Serif" font-size="10.00">HOXA13</text>
</a>
</g>
<!-- PATZ1_KLF4&#45;&gt;HOXA13 -->
<g id="edge16" class="edge"><title>PATZ1_KLF4&#45;&gt;HOXA13</title>
<a xlink:title="HOXA13: 0.251||remove15">
<path fill="none" stroke="#e1a1ff" stroke-width="3" d="M403.959,-99.059C329.442,-142.082 141.81,-250.411 63.35,-295.71"/>
<polygon fill="#e1a1ff" stroke="#e1a1ff" points="61.6335,-293.468 56.1053,-299.893 64.4336,-298.317 61.6335,-293.468"/>
</a>
</g>
<!-- MAFB&#45;&gt;MAFB -->
<g id="edge22" class="edge"><title>MAFB&#45;&gt;MAFB</title>
<a xlink:title="MAFB: 0.024||remove2root">
<path fill="none" stroke="#ffc7c7" stroke-width="3" d="M290.36,-259.863C300.143,-260.008 308.119,-257.76 308.119,-253.119 308.119,-249.856 304.176,-247.776 298.434,-246.879"/>
<polygon fill="#ffc7c7" stroke="#ffc7c7" points="298.519,-244.079 290.36,-246.376 298.17,-249.668 298.519,-244.079"/>
</a>
</g>
<!-- MAFB&#45;&gt;HOXD11_HOXA11 -->
<g id="edge24" class="edge"><title>MAFB&#45;&gt;HOXD11_HOXA11</title>
<a xlink:title="HOXD11: 0.275||remove19root">
<path fill="none" stroke="#ff9d9d" stroke-width="3" d="M290.551,-260.469C327.041,-270.247 392.484,-287.782 440.18,-300.563"/>
<polygon fill="#ff9d9d" stroke="#ff9d9d" points="439.521,-303.285 447.973,-302.651 440.97,-297.875 439.521,-303.285"/>
</a>
</g>
<!-- MAFB&#45;&gt;HOXC10_HOXD13 -->
<g id="edge26" class="edge"><title>MAFB&#45;&gt;HOXC10_HOXD13</title>
<a xlink:title="HOXD13: 0.303||remove22root">
<path fill="none" stroke="#ff9898" stroke-width="3" d="M281.214,-271.214C312.463,-302.463 376.536,-366.536 411.385,-401.385"/>
<polygon fill="#ff9898" stroke="#ff9898" points="409.491,-403.451 417.128,-407.128 413.451,-399.491 409.491,-403.451"/>
</a>
</g>
<!-- MAFB&#45;&gt;MEIS3_TGIF2LX -->
<g id="edge28" class="edge"><title>MAFB&#45;&gt;MEIS3_TGIF2LX</title>
<a xlink:title="MEIS3: 0.227||remove14root">
<path fill="none" stroke="#ffa5a5" stroke-width="3" d="M267.958,-271.178C279.044,-312.55 306.311,-414.313 319.181,-462.344"/>
<polygon fill="#ffa5a5" stroke="#ffa5a5" points="316.489,-463.115 321.264,-470.118 321.898,-461.666 316.489,-463.115"/>
</a>
</g>
<!-- MAFB&#45;&gt;ONECUT2_ONECUT3 -->
<g id="edge30" class="edge"><title>MAFB&#45;&gt;ONECUT2_ONECUT3</title>
<a xlink:title="ONECUT2: 0.280||remove20root">
<path fill="none" stroke="#ff9c9c" stroke-width="3" d="M258.28,-271.178C247.195,-312.55 219.927,-414.313 207.058,-462.344"/>
<polygon fill="#ff9c9c" stroke="#ff9c9c" points="204.341,-461.666 204.975,-470.118 209.75,-463.115 204.341,-461.666"/>
</a>
</g>
<!-- MAFB&#45;&gt;POU3F3_POU3F4 -->
<g id="edge36" class="edge"><title>MAFB&#45;&gt;POU3F3_POU3F4</title>
<a xlink:title="POU3F3: 0.252||remove17root">
<path fill="none" stroke="#ffa1a1" stroke-width="3" d="M245.025,-271.214C213.776,-302.463 149.702,-366.536 114.853,-401.385"/>
<polygon fill="#ffa1a1" stroke="#ffa1a1" points="112.787,-399.491 109.11,-407.128 116.747,-403.451 112.787,-399.491"/>
</a>
</g>
<!-- MAFB&#45;&gt;HOXA13 -->
<g id="edge38" class="edge"><title>MAFB&#45;&gt;HOXA13</title>
<a xlink:title="HOXA13: 0.236||remove15root">
<path fill="none" stroke="#ffa3a3" stroke-width="3" d="M235.688,-260.469C192.975,-271.914 110.592,-293.989 63.4359,-306.624"/>
<polygon fill="#ffa3a3" stroke="#ffa3a3" points="62.6227,-303.943 55.62,-308.718 64.0722,-309.352 62.6227,-303.943"/>
</a>
</g>
<!-- ISL2 -->
<g id="node17" class="node"><title>ISL2</title>
<a xlink:href="ISL2.svg" xlink:title="Z&#45;value: 0.301||remove16">
<polygon fill="#b1b9ff" stroke="#b1b9ff" stroke-width="2" points="43,-208.119 13,-208.119 1,-196.119 1,-184.119 13,-172.119 43,-172.119 55,-184.119 55,-196.119 43,-208.119"/>
<path fill="#b1b9ff" stroke="#b1b9ff" stroke-width="2" d="M13,-208.119C7,-208.119 1,-202.119 1,-196.119"/>
<path fill="#b1b9ff" stroke="#b1b9ff" stroke-width="2" d="M1,-184.119C1,-178.119 7,-172.119 13,-172.119"/>
<path fill="#b1b9ff" stroke="#b1b9ff" stroke-width="2" d="M43,-172.119C49,-172.119 55,-178.119 55,-184.119"/>
<path fill="#b1b9ff" stroke="#b1b9ff" stroke-width="2" d="M55,-196.119C55,-202.119 49,-208.119 43,-208.119"/>
<polyline fill="none" stroke="white" stroke-width="2" points="43,-208.119 13,-208.119 "/>
<path fill="none" stroke="white" stroke-width="2" d="M13,-208.119C7,-208.119 1,-202.119 1,-196.119"/>
<polyline fill="none" stroke="white" stroke-width="2" points="1,-196.119 1,-184.119 "/>
<path fill="none" stroke="white" stroke-width="2" d="M1,-184.119C1,-178.119 7,-172.119 13,-172.119"/>
<polyline fill="none" stroke="white" stroke-width="2" points="13,-172.119 43,-172.119 "/>
<path fill="none" stroke="white" stroke-width="2" d="M43,-172.119C49,-172.119 55,-178.119 55,-184.119"/>
<polyline fill="none" stroke="white" stroke-width="2" points="55,-184.119 55,-196.119 "/>
<path fill="none" stroke="white" stroke-width="2" d="M55,-196.119C55,-202.119 49,-208.119 43,-208.119"/>
<text text-anchor="middle" x="28" y="-187.619" font-family="Helvetica,sans-Serif" font-size="10.00">ISL2</text>
</a>
</g>
<!-- MAFB&#45;&gt;ISL2 -->
<g id="edge18" class="edge"><title>MAFB&#45;&gt;ISL2</title>
<a xlink:title="ISL2: 0.247||remove16root">
<path fill="none" stroke="#ffa1a1" stroke-width="3" d="M235.688,-245.769C192.86,-234.293 110.15,-212.131 63.0574,-199.513"/>
<polygon fill="#ffa1a1" stroke="#ffa1a1" points="63.7087,-196.789 55.2566,-197.423 62.2593,-202.198 63.7087,-196.789"/>
</a>
</g>
<!-- TBX2 -->
<g id="node19" class="node"><title>TBX2</title>
<a xlink:href="TBX2.svg" xlink:title="Z&#45;value: 0.814||remove24">
<polygon fill="#8491ff" stroke="#8491ff" stroke-width="2" points="106,-99 76,-99 64,-87 64,-75 76,-63 106,-63 118,-75 118,-87 106,-99"/>
<path fill="#8491ff" stroke="#8491ff" stroke-width="2" d="M76,-99C70,-99 64,-93 64,-87"/>
<path fill="#8491ff" stroke="#8491ff" stroke-width="2" d="M64,-75C64,-69 70,-63 76,-63"/>
<path fill="#8491ff" stroke="#8491ff" stroke-width="2" d="M106,-63C112,-63 118,-69 118,-75"/>
<path fill="#8491ff" stroke="#8491ff" stroke-width="2" d="M118,-87C118,-93 112,-99 106,-99"/>
<polyline fill="none" stroke="white" stroke-width="2" points="106,-99 76,-99 "/>
<path fill="none" stroke="white" stroke-width="2" d="M76,-99C70,-99 64,-93 64,-87"/>
<polyline fill="none" stroke="white" stroke-width="2" points="64,-87 64,-75 "/>
<path fill="none" stroke="white" stroke-width="2" d="M64,-75C64,-69 70,-63 76,-63"/>
<polyline fill="none" stroke="white" stroke-width="2" points="76,-63 106,-63 "/>
<path fill="none" stroke="white" stroke-width="2" d="M106,-63C112,-63 118,-69 118,-75"/>
<polyline fill="none" stroke="white" stroke-width="2" points="118,-75 118,-87 "/>
<path fill="none" stroke="white" stroke-width="2" d="M118,-87C118,-93 112,-99 106,-99"/>
<text text-anchor="middle" x="91" y="-78.5" font-family="Helvetica,sans-Serif" font-size="10.00">TBX2</text>
</a>
</g>
<!-- MAFB&#45;&gt;TBX2 -->
<g id="edge20" class="edge"><title>MAFB&#45;&gt;TBX2</title>
<a xlink:title="TBX2: 0.380||remove24root">
<path fill="none" stroke="#ff8b8b" stroke-width="3" d="M245.025,-235.025C213.776,-203.776 149.702,-139.702 114.853,-104.853"/>
<polygon fill="#ff8b8b" stroke="#ff8b8b" points="116.747,-102.787 109.11,-99.1103 112.787,-106.747 116.747,-102.787"/>
</a>
</g>
<!-- TBX4 -->
<g id="node26" class="node"><title>TBX4</title>
<a xlink:href="TBX4.svg" xlink:title="Z&#45;value: 0.386||remove27">
<polygon fill="#aab2ff" stroke="#aab2ff" stroke-width="2" points="215.119,-36 185.119,-36 173.119,-24 173.119,-12 185.119,-9.59233e-14 215.119,-9.59233e-14 227.119,-12 227.119,-24 215.119,-36"/>
<path fill="#aab2ff" stroke="#aab2ff" stroke-width="2" d="M185.119,-36C179.119,-36 173.119,-30 173.119,-24"/>
<path fill="#aab2ff" stroke="#aab2ff" stroke-width="2" d="M173.119,-12C173.119,-6 179.119,-9.59233e-14 185.119,-9.59233e-14"/>
<path fill="#aab2ff" stroke="#aab2ff" stroke-width="2" d="M215.119,-9.59233e-14C221.119,-9.59233e-14 227.119,-6 227.119,-12"/>
<path fill="#aab2ff" stroke="#aab2ff" stroke-width="2" d="M227.119,-24C227.119,-30 221.119,-36 215.119,-36"/>
<polyline fill="none" stroke="white" stroke-width="2" points="215.119,-36 185.119,-36 "/>
<path fill="none" stroke="white" stroke-width="2" d="M185.119,-36C179.119,-36 173.119,-30 173.119,-24"/>
<polyline fill="none" stroke="white" stroke-width="2" points="173.119,-24 173.119,-12 "/>
<path fill="none" stroke="white" stroke-width="2" d="M173.119,-12C173.119,-6 179.119,-9.59233e-14 185.119,-9.59233e-14"/>
<polyline fill="none" stroke="white" stroke-width="2" points="185.119,-9.59233e-14 215.119,-9.59233e-14 "/>
<path fill="none" stroke="white" stroke-width="2" d="M215.119,-9.59233e-14C221.119,-9.59233e-14 227.119,-6 227.119,-12"/>
<polyline fill="none" stroke="white" stroke-width="2" points="227.119,-12 227.119,-24 "/>
<path fill="none" stroke="white" stroke-width="2" d="M227.119,-24C227.119,-30 221.119,-36 215.119,-36"/>
<text text-anchor="middle" x="200.119" y="-15.5" font-family="Helvetica,sans-Serif" font-size="10.00">TBX4</text>
</a>
</g>
<!-- MAFB&#45;&gt;TBX4 -->
<g id="edge32" class="edge"><title>MAFB&#45;&gt;TBX4</title>
<a xlink:title="TBX4: 0.901||remove27root">
<path fill="none" stroke="#ff3232" stroke-width="3" d="M258.28,-235.06C247.195,-193.688 219.927,-91.9254 207.058,-43.8948"/>
<polygon fill="#ff3232" stroke="#ff3232" points="209.75,-43.1232 204.975,-36.1205 204.341,-44.5727 209.75,-43.1232"/>
</a>
</g>
<!-- YY1_YY2 -->
<g id="node28" class="node"><title>YY1_YY2</title>
<a xlink:href="YY1_YY2.svg" xlink:title="Z&#45;value: 1.199||remove21">
<polygon fill="#6372ff" stroke="#6372ff" stroke-width="2" points="343.369,-36 308.869,-36 296.869,-24 296.869,-12 308.869,-0 343.369,-0 355.369,-12 355.369,-24 343.369,-36"/>
<path fill="#6372ff" stroke="#6372ff" stroke-width="2" d="M308.869,-36C302.869,-36 296.869,-30 296.869,-24"/>
<path fill="#6372ff" stroke="#6372ff" stroke-width="2" d="M296.869,-12C296.869,-6 302.869,-0 308.869,-0"/>
<path fill="#6372ff" stroke="#6372ff" stroke-width="2" d="M343.369,-0C349.369,-0 355.369,-6 355.369,-12"/>
<path fill="#6372ff" stroke="#6372ff" stroke-width="2" d="M355.369,-24C355.369,-30 349.369,-36 343.369,-36"/>
<polyline fill="none" stroke="white" stroke-width="2" points="343.369,-36 308.869,-36 "/>
<path fill="none" stroke="white" stroke-width="2" d="M308.869,-36C302.869,-36 296.869,-30 296.869,-24"/>
<polyline fill="none" stroke="white" stroke-width="2" points="296.869,-24 296.869,-12 "/>
<path fill="none" stroke="white" stroke-width="2" d="M296.869,-12C296.869,-6 302.869,-0 308.869,-0"/>
<polyline fill="none" stroke="white" stroke-width="2" points="308.869,-0 343.369,-0 "/>
<path fill="none" stroke="white" stroke-width="2" d="M343.369,-0C349.369,-0 355.369,-6 355.369,-12"/>
<polyline fill="none" stroke="white" stroke-width="2" points="355.369,-12 355.369,-24 "/>
<path fill="none" stroke="white" stroke-width="2" d="M355.369,-24C355.369,-30 349.369,-36 343.369,-36"/>
<text text-anchor="middle" x="326.119" y="-15.5" font-family="Helvetica,sans-Serif" font-size="10.00" fill="white">YY1_YY2</text>
</a>
</g>
<!-- MAFB&#45;&gt;YY1_YY2 -->
<g id="edge34" class="edge"><title>MAFB&#45;&gt;YY1_YY2</title>
<a xlink:title="YY1: 0.288||remove21root">
<path fill="none" stroke="#ff9b9b" stroke-width="3" d="M267.958,-235.06C279.044,-193.688 306.311,-91.9254 319.181,-43.8948"/>
<polygon fill="#ff9b9b" stroke="#ff9b9b" points="321.898,-44.5727 321.264,-36.1205 316.489,-43.1232 321.898,-44.5727"/>
</a>
</g>
<!-- HOXA13&#45;&gt;HOXD11_HOXA11 -->
<g id="edge40" class="edge"><title>HOXA13&#45;&gt;HOXD11_HOXA11</title>
<a xlink:title="HOXA11: 0.020||remove1root">
<path fill="none" stroke="#edc8ff" stroke-width="3" d="M55.66,-316.119C130.416,-316.119 337.716,-316.119 439.845,-316.119"/>
<polygon fill="#edc8ff" stroke="#edc8ff" points="439.906,-318.919 447.906,-316.119 439.906,-313.319 439.906,-318.919"/>
</a>
</g>
<!-- TBX4&#45;&gt;HOXD11_HOXA11 -->
<g id="edge62" class="edge"><title>TBX4&#45;&gt;HOXD11_HOXA11</title>
<a xlink:title="HOXD11: 0.121||remove8root">
<path fill="none" stroke="#e8b7ff" stroke-width="3" d="M218.319,-36.1999C269.67,-87.5509 415.728,-233.608 473.898,-291.779"/>
<polygon fill="#e8b7ff" stroke="#e8b7ff" points="472.261,-294.102 479.898,-297.779 476.221,-290.142 472.261,-294.102"/>
</a>
</g>
<!-- YY1_YY2&#45;&gt;HOXA13 -->
<g id="edge60" class="edge"><title>YY1_YY2&#45;&gt;HOXA13</title>
<a xlink:title="HOXA13: 0.034||remove3root">
<path fill="none" stroke="#ecc6ff" stroke-width="3" d="M307.919,-36.1999C256.568,-87.5509 110.511,-233.608 52.3404,-291.779"/>
<polygon fill="#ecc6ff" stroke="#ecc6ff" points="50.0175,-290.142 46.3405,-297.779 53.9773,-294.102 50.0175,-290.142"/>
</a>
</g>
<!-- PLAGL1 -->
<g id="node33" class="node"><title>PLAGL1</title>
<a xlink:href="PLAGL1.svg" xlink:title="Z&#45;value: 1.203||remove23">
<polygon fill="#6272ff" stroke="#6272ff" stroke-width="2" points="513.238,-208.119 483.238,-208.119 471.238,-196.119 471.238,-184.119 483.238,-172.119 513.238,-172.119 525.238,-184.119 525.238,-196.119 513.238,-208.119"/>
<path fill="#6272ff" stroke="#6272ff" stroke-width="2" d="M483.238,-208.119C477.238,-208.119 471.238,-202.119 471.238,-196.119"/>
<path fill="#6272ff" stroke="#6272ff" stroke-width="2" d="M471.238,-184.119C471.238,-178.119 477.238,-172.119 483.238,-172.119"/>
<path fill="#6272ff" stroke="#6272ff" stroke-width="2" d="M513.238,-172.119C519.238,-172.119 525.238,-178.119 525.238,-184.119"/>
<path fill="#6272ff" stroke="#6272ff" stroke-width="2" d="M525.238,-196.119C525.238,-202.119 519.238,-208.119 513.238,-208.119"/>
<polyline fill="none" stroke="white" stroke-width="2" points="513.238,-208.119 483.238,-208.119 "/>
<path fill="none" stroke="white" stroke-width="2" d="M483.238,-208.119C477.238,-208.119 471.238,-202.119 471.238,-196.119"/>
<polyline fill="none" stroke="white" stroke-width="2" points="471.238,-196.119 471.238,-184.119 "/>
<path fill="none" stroke="white" stroke-width="2" d="M471.238,-184.119C471.238,-178.119 477.238,-172.119 483.238,-172.119"/>
<polyline fill="none" stroke="white" stroke-width="2" points="483.238,-172.119 513.238,-172.119 "/>
<path fill="none" stroke="white" stroke-width="2" d="M513.238,-172.119C519.238,-172.119 525.238,-178.119 525.238,-184.119"/>
<polyline fill="none" stroke="white" stroke-width="2" points="525.238,-184.119 525.238,-196.119 "/>
<path fill="none" stroke="white" stroke-width="2" d="M525.238,-196.119C525.238,-202.119 519.238,-208.119 513.238,-208.119"/>
<text text-anchor="middle" x="498.238" y="-187.619" font-family="Helvetica,sans-Serif" font-size="10.00" fill="white">PLAGL1</text>
</a>
</g>
<!-- PLAGL1&#45;&gt;MAFB -->
<g id="edge42" class="edge"><title>PLAGL1&#45;&gt;MAFB</title>
<a xlink:title="MAFB: 0.320||remove23root">
<path fill="none" stroke="#95a0ff" stroke-width="3" d="M470.807,-197.469C427.98,-208.945 345.269,-231.107 298.177,-243.726"/>
<polygon fill="#95a0ff" stroke="#95a0ff" points="297.378,-241.041 290.376,-245.816 298.828,-246.45 297.378,-241.041"/>
</a>
</g>
<!-- PLAGL1&#45;&gt;HOXC10_HOXD13 -->
<g id="edge44" class="edge"><title>PLAGL1&#45;&gt;HOXC10_HOXD13</title>
<a xlink:title="HOXC10: 0.101||HOXD13: 0.003||remove6root">
<path fill="none" stroke="#e9baff" stroke-width="3" d="M484.536,-208.3C470.297,-228.371 448.837,-262.228 439.658,-295.239 429.942,-330.185 430.678,-372.453 432.575,-399.1"/>
<polygon fill="#e9baff" stroke="#e9baff" points="429.792,-399.422 433.22,-407.173 435.374,-398.975 429.792,-399.422"/>
</a>
</g>
<!-- PLAGL1&#45;&gt;MEIS3_TGIF2LX -->
<g id="edge46" class="edge"><title>PLAGL1&#45;&gt;MEIS3_TGIF2LX</title>
<a xlink:title="MEIS3: 0.176||remove13root">
<path fill="none" stroke="#e5aeff" stroke-width="3" d="M487.731,-208.319C458.263,-259.358 374.779,-403.957 340.79,-462.829"/>
<polygon fill="#e5aeff" stroke="#e5aeff" points="338.283,-461.57 336.708,-469.898 343.133,-464.37 338.283,-461.57"/>
</a>
</g>
<!-- PLAGL1&#45;&gt;ONECUT2_ONECUT3 -->
<g id="edge48" class="edge"><title>PLAGL1&#45;&gt;ONECUT2_ONECUT3</title>
<a xlink:title="ONECUT2: 0.064||ONECUT3: 0.055||remove5root">
<path fill="none" stroke="#ebc1ff" stroke-width="3" d="M480.038,-208.319C428.688,-259.67 282.63,-405.728 224.46,-463.898"/>
<polygon fill="#ebc1ff" stroke="#ebc1ff" points="222.137,-462.261 218.46,-469.898 226.097,-466.221 222.137,-462.261"/>
</a>
</g>
<!-- PLAGL1&#45;&gt;POU3F3_POU3F4 -->
<g id="edge54" class="edge"><title>PLAGL1&#45;&gt;POU3F3_POU3F4</title>
<a xlink:title="POU3F3: 0.459||POU3F4: 0.040||remove17">
<path fill="none" stroke="#d57eff" stroke-width="3" d="M471.203,-205.728C400.76,-246.398 211.379,-355.738 129.542,-402.986"/>
<polygon fill="#d57eff" stroke="#d57eff" points="127.96,-400.666 122.432,-407.091 130.76,-405.516 127.96,-400.666"/>
</a>
</g>
<!-- PLAGL1&#45;&gt;HOXA13 -->
<g id="edge56" class="edge"><title>PLAGL1&#45;&gt;HOXA13</title>
<a xlink:title="HOXA13: 0.167||remove12root">
<path fill="none" stroke="#e5afff" stroke-width="3" d="M470.939,-192.315C422.184,-196.701 317.243,-208.259 231.799,-232.239 170.671,-249.395 103.161,-279.553 63.2265,-298.649"/>
<polygon fill="#e5afff" stroke="#e5afff" points="61.61,-296.32 55.6172,-302.314 64.0398,-301.365 61.61,-296.32"/>
</a>
</g>
<!-- PLAGL1&#45;&gt;TBX4 -->
<g id="edge50" class="edge"><title>PLAGL1&#45;&gt;TBX4</title>
<a xlink:title="TBX4: 0.260||remove18root">
<path fill="none" stroke="#e09fff" stroke-width="3" d="M470.992,-174.388C416.433,-142.889 293.898,-72.143 234.16,-37.6532"/>
<polygon fill="#e09fff" stroke="#e09fff" points="235.523,-35.2071 227.194,-33.6319 232.723,-40.0568 235.523,-35.2071"/>
</a>
</g>
<!-- PLAGL1&#45;&gt;YY1_YY2 -->
<g id="edge52" class="edge"><title>PLAGL1&#45;&gt;YY1_YY2</title>
<a xlink:title="YY1: 0.102||remove7root">
<path fill="none" stroke="#e9baff" stroke-width="3" d="M473.093,-171.934C450.499,-155.023 416.998,-128.498 391.158,-101.88 373.255,-83.4374 355.553,-60.1903 343.148,-42.8495"/>
<polygon fill="#e9baff" stroke="#e9baff" points="345.407,-41.1939 338.5,-36.2811 340.835,-44.4288 345.407,-41.1939"/>
</a>
</g>
<!-- PLAGL1&#45;&gt;PLAGL1 -->
<g id="edge58" class="edge"><title>PLAGL1&#45;&gt;PLAGL1</title>
<a xlink:title="PLAGL1: 0.151||remove11root">
<path fill="none" stroke="#e6b2ff" stroke-width="3" d="M525.479,-196.863C535.262,-197.008 543.238,-194.76 543.238,-190.119 543.238,-186.856 539.295,-184.776 533.553,-183.879"/>
<polygon fill="#e6b2ff" stroke="#e6b2ff" points="533.638,-181.079 525.479,-183.376 533.289,-186.668 533.638,-181.079"/>
</a>
</g>
</g>
</svg>
