<?xml version="1.0" ?><!DOCTYPE svg  PUBLIC '-//W3C//DTD SVG 1.1//EN'  'http://www.w3.org/Graphics/SVG/1.1/DTD/svg11.dtd'><!-- Generated by graphviz version 2.28.0 (20110630.0925)
 --><!-- Title: _anonymous_0 Pages: 1 --><svg height="416pt" onload="init(evt)" width="538pt" xmlns="http://www.w3.org/2000/svg" xmlns:ismara="ismara.unibas.ch" xmlns:xlink="http://www.w3.org/1999/xlink">
<g class="graph" id="graph1" transform="scale(1 1) rotate(0) translate(54 362.449)">

<polygon fill="white" points="-4,5 -4,-362.449 384.949,-362.449 384.949,5 -4,5" stroke="white"/>
<!-- FOXM1_TBL1XR1 -->
<g class="node" id="node1">
<a class="remove13" onmousemove="ShowTooltip(evt, 'Z-value: 2.140')" onmouseout="HideTooltip(evt)" xlink:href="FOXM1_TBL1XR1.svg">
<polygon fill="#3247ff" points="110.2,-315.249 37.2,-315.249 25.2,-303.249 25.2,-291.249 37.2,-279.249 110.2,-279.249 122.2,-291.249 122.2,-303.249 110.2,-315.249" stroke="#3247ff" stroke-width="2"/>
<path d="M37.2,-315.249C31.2,-315.249 25.2,-309.249 25.2,-303.249" fill="#3247ff" stroke="#3247ff" stroke-width="2"/>
<path d="M25.2,-291.249C25.2,-285.249 31.2,-279.249 37.2,-279.249" fill="#3247ff" stroke="#3247ff" stroke-width="2"/>
<path d="M110.2,-279.249C116.2,-279.249 122.2,-285.249 122.2,-291.249" fill="#3247ff" stroke="#3247ff" stroke-width="2"/>
<path d="M122.2,-303.249C122.2,-309.249 116.2,-315.249 110.2,-315.249" fill="#3247ff" stroke="#3247ff" stroke-width="2"/>
<polyline fill="none" points="110.2,-315.249 37.2,-315.249 " stroke="white" stroke-width="2"/>
<path d="M37.2,-315.249C31.2,-315.249 25.2,-309.249 25.2,-303.249" fill="none" stroke="white" stroke-width="2"/>
<polyline fill="none" points="25.2,-303.249 25.2,-291.249 " stroke="white" stroke-width="2"/>
<path d="M25.2,-291.249C25.2,-285.249 31.2,-279.249 37.2,-279.249" fill="none" stroke="white" stroke-width="2"/>
<polyline fill="none" points="37.2,-279.249 110.2,-279.249 " stroke="white" stroke-width="2"/>
<path d="M110.2,-279.249C116.2,-279.249 122.2,-285.249 122.2,-291.249" fill="none" stroke="white" stroke-width="2"/>
<polyline fill="none" points="122.2,-291.249 122.2,-303.249 " stroke="white" stroke-width="2"/>
<path d="M122.2,-303.249C122.2,-309.249 116.2,-315.249 110.2,-315.249" fill="none" stroke="white" stroke-width="2"/>
<text fill="white" font-family="Helvetica,sans-Serif" font-size="10.00" text-anchor="middle" x="73.7" y="-294.749">FOXM1_TBL1XR1</text>
</a>
</g>
<!-- MZF1 -->
<g class="node" id="node2">
<a class="remove14" onmousemove="ShowTooltip(evt, 'Z-value: 0.821')" onmouseout="HideTooltip(evt)" xlink:href="MZF1.svg">
<polygon fill="#919cff" points="45.5,-240.425 15.5,-240.425 3.5,-228.425 3.5,-216.425 15.5,-204.425 45.5,-204.425 57.5,-216.425 57.5,-228.425 45.5,-240.425" stroke="#919cff" stroke-width="2"/>
<path d="M15.5,-240.425C9.5,-240.425 3.5,-234.425 3.5,-228.425" fill="#919cff" stroke="#919cff" stroke-width="2"/>
<path d="M3.5,-216.425C3.5,-210.425 9.5,-204.425 15.5,-204.425" fill="#919cff" stroke="#919cff" stroke-width="2"/>
<path d="M45.5,-204.425C51.5,-204.425 57.5,-210.425 57.5,-216.425" fill="#919cff" stroke="#919cff" stroke-width="2"/>
<path d="M57.5,-228.425C57.5,-234.425 51.5,-240.425 45.5,-240.425" fill="#919cff" stroke="#919cff" stroke-width="2"/>
<polyline fill="none" points="45.5,-240.425 15.5,-240.425 " stroke="white" stroke-width="2"/>
<path d="M15.5,-240.425C9.5,-240.425 3.5,-234.425 3.5,-228.425" fill="none" stroke="white" stroke-width="2"/>
<polyline fill="none" points="3.5,-228.425 3.5,-216.425 " stroke="white" stroke-width="2"/>
<path d="M3.5,-216.425C3.5,-210.425 9.5,-204.425 15.5,-204.425" fill="none" stroke="white" stroke-width="2"/>
<polyline fill="none" points="15.5,-204.425 45.5,-204.425 " stroke="white" stroke-width="2"/>
<path d="M45.5,-204.425C51.5,-204.425 57.5,-210.425 57.5,-216.425" fill="none" stroke="white" stroke-width="2"/>
<polyline fill="none" points="57.5,-216.425 57.5,-228.425 " stroke="white" stroke-width="2"/>
<path d="M57.5,-228.425C57.5,-234.425 51.5,-240.425 45.5,-240.425" fill="none" stroke="white" stroke-width="2"/>
<text font-family="Helvetica,sans-Serif" font-size="10.00" text-anchor="middle" x="30.5" y="-219.925">MZF1</text>
</a>
</g>
<!-- FOXM1_TBL1XR1&#45;&gt;MZF1 -->
<g class="edge" id="edge2">
<a class="remove13" ismara:data="0.122" onmousemove="ShowTooltip(evt, 'MZF1: 0.122')" onmouseout="HideTooltip(evt)">
<path d="M63.2425,-279.136C57.8171,-269.739 51.1003,-258.105 45.165,-247.825" fill="none" stroke="#e3aaff" stroke-width="3"/>
<polygon fill="#e3aaff" points="47.4359,-246.158 41.0109,-240.63 42.5861,-248.958 47.4359,-246.158" stroke="#e3aaff"/>
</a>
</g>
<!-- NR2F1 -->
<g class="node" id="node4">
<a class="remove15" onmousemove="ShowTooltip(evt, 'Z-value: 0.504')" onmouseout="HideTooltip(evt)" xlink:href="NR2F1.svg">
<polygon fill="#a7b0ff" points="367.949,-240.425 337.949,-240.425 325.949,-228.425 325.949,-216.425 337.949,-204.425 367.949,-204.425 379.949,-216.425 379.949,-228.425 367.949,-240.425" stroke="#a7b0ff" stroke-width="2"/>
<path d="M337.949,-240.425C331.949,-240.425 325.949,-234.425 325.949,-228.425" fill="#a7b0ff" stroke="#a7b0ff" stroke-width="2"/>
<path d="M325.949,-216.425C325.949,-210.425 331.949,-204.425 337.949,-204.425" fill="#a7b0ff" stroke="#a7b0ff" stroke-width="2"/>
<path d="M367.949,-204.425C373.949,-204.425 379.949,-210.425 379.949,-216.425" fill="#a7b0ff" stroke="#a7b0ff" stroke-width="2"/>
<path d="M379.949,-228.425C379.949,-234.425 373.949,-240.425 367.949,-240.425" fill="#a7b0ff" stroke="#a7b0ff" stroke-width="2"/>
<polyline fill="none" points="367.949,-240.425 337.949,-240.425 " stroke="white" stroke-width="2"/>
<path d="M337.949,-240.425C331.949,-240.425 325.949,-234.425 325.949,-228.425" fill="none" stroke="white" stroke-width="2"/>
<polyline fill="none" points="325.949,-228.425 325.949,-216.425 " stroke="white" stroke-width="2"/>
<path d="M325.949,-216.425C325.949,-210.425 331.949,-204.425 337.949,-204.425" fill="none" stroke="white" stroke-width="2"/>
<polyline fill="none" points="337.949,-204.425 367.949,-204.425 " stroke="white" stroke-width="2"/>
<path d="M367.949,-204.425C373.949,-204.425 379.949,-210.425 379.949,-216.425" fill="none" stroke="white" stroke-width="2"/>
<polyline fill="none" points="379.949,-216.425 379.949,-228.425 " stroke="white" stroke-width="2"/>
<path d="M379.949,-228.425C379.949,-234.425 373.949,-240.425 367.949,-240.425" fill="none" stroke="white" stroke-width="2"/>
<text font-family="Helvetica,sans-Serif" font-size="10.00" text-anchor="middle" x="352.949" y="-219.925">NR2F1</text>
</a>
</g>
<!-- FOXM1_TBL1XR1&#45;&gt;NR2F1 -->
<g class="edge" id="edge4">
<a class="remove13" ismara:data="0.49" onmousemove="ShowTooltip(evt, 'NR2F1: 0.490')" onmouseout="HideTooltip(evt)">
<path d="M122.342,-284.216C178.146,-269.263 268.295,-245.108 317.729,-231.862" fill="none" stroke="#c344ff" stroke-width="3"/>
<polygon fill="#c344ff" points="318.591,-234.53 325.593,-229.755 317.141,-229.121 318.591,-234.53" stroke="#c344ff"/>
</a>
</g>
<!-- STAT6 -->
<g class="node" id="node6">
<a class="remove17" onmousemove="ShowTooltip(evt, 'Z-value: 0.329')" onmouseout="HideTooltip(evt)" xlink:href="STAT6.svg">
<polygon fill="#b4bbff" points="324.749,-315.249 294.749,-315.249 282.749,-303.249 282.749,-291.249 294.749,-279.249 324.749,-279.249 336.749,-291.249 336.749,-303.249 324.749,-315.249" stroke="#b4bbff" stroke-width="2"/>
<path d="M294.749,-315.249C288.749,-315.249 282.749,-309.249 282.749,-303.249" fill="#b4bbff" stroke="#b4bbff" stroke-width="2"/>
<path d="M282.749,-291.249C282.749,-285.249 288.749,-279.249 294.749,-279.249" fill="#b4bbff" stroke="#b4bbff" stroke-width="2"/>
<path d="M324.749,-279.249C330.749,-279.249 336.749,-285.249 336.749,-291.249" fill="#b4bbff" stroke="#b4bbff" stroke-width="2"/>
<path d="M336.749,-303.249C336.749,-309.249 330.749,-315.249 324.749,-315.249" fill="#b4bbff" stroke="#b4bbff" stroke-width="2"/>
<polyline fill="none" points="324.749,-315.249 294.749,-315.249 " stroke="white" stroke-width="2"/>
<path d="M294.749,-315.249C288.749,-315.249 282.749,-309.249 282.749,-303.249" fill="none" stroke="white" stroke-width="2"/>
<polyline fill="none" points="282.749,-303.249 282.749,-291.249 " stroke="white" stroke-width="2"/>
<path d="M282.749,-291.249C282.749,-285.249 288.749,-279.249 294.749,-279.249" fill="none" stroke="white" stroke-width="2"/>
<polyline fill="none" points="294.749,-279.249 324.749,-279.249 " stroke="white" stroke-width="2"/>
<path d="M324.749,-279.249C330.749,-279.249 336.749,-285.249 336.749,-291.249" fill="none" stroke="white" stroke-width="2"/>
<polyline fill="none" points="336.749,-291.249 336.749,-303.249 " stroke="white" stroke-width="2"/>
<path d="M336.749,-303.249C336.749,-309.249 330.749,-315.249 324.749,-315.249" fill="none" stroke="white" stroke-width="2"/>
<text font-family="Helvetica,sans-Serif" font-size="10.00" text-anchor="middle" x="309.749" y="-294.749">STAT6</text>
</a>
</g>
<!-- FOXM1_TBL1XR1&#45;&gt;STAT6 -->
<g class="edge" id="edge6">
<a class="remove6 root" ismara:data="0.041" onmousemove="ShowTooltip(evt, 'STAT6: 0.041')" onmouseout="HideTooltip(evt)">
<path d="M122.323,-297.249C167.557,-297.249 233.884,-297.249 274.306,-297.249" fill="none" stroke="#ebc0ff" stroke-width="3"/>
<polygon fill="#ebc0ff" points="274.522,-300.049 282.521,-297.249 274.521,-294.449 274.522,-300.049" stroke="#ebc0ff"/>
</a>
</g>
<!-- PROX1 -->
<g class="node" id="node8">
<a class="remove18" onmousemove="ShowTooltip(evt, 'Z-value: 0.533')" onmouseout="HideTooltip(evt)" xlink:href="PROX1.svg">
<polygon fill="#a5aeff" points="249.925,-358.449 219.925,-358.449 207.925,-346.449 207.925,-334.449 219.925,-322.449 249.925,-322.449 261.925,-334.449 261.925,-346.449 249.925,-358.449" stroke="#a5aeff" stroke-width="2"/>
<path d="M219.925,-358.449C213.925,-358.449 207.925,-352.449 207.925,-346.449" fill="#a5aeff" stroke="#a5aeff" stroke-width="2"/>
<path d="M207.925,-334.449C207.925,-328.449 213.925,-322.449 219.925,-322.449" fill="#a5aeff" stroke="#a5aeff" stroke-width="2"/>
<path d="M249.925,-322.449C255.925,-322.449 261.925,-328.449 261.925,-334.449" fill="#a5aeff" stroke="#a5aeff" stroke-width="2"/>
<path d="M261.925,-346.449C261.925,-352.449 255.925,-358.449 249.925,-358.449" fill="#a5aeff" stroke="#a5aeff" stroke-width="2"/>
<polyline fill="none" points="249.925,-358.449 219.925,-358.449 " stroke="white" stroke-width="2"/>
<path d="M219.925,-358.449C213.925,-358.449 207.925,-352.449 207.925,-346.449" fill="none" stroke="white" stroke-width="2"/>
<polyline fill="none" points="207.925,-346.449 207.925,-334.449 " stroke="white" stroke-width="2"/>
<path d="M207.925,-334.449C207.925,-328.449 213.925,-322.449 219.925,-322.449" fill="none" stroke="white" stroke-width="2"/>
<polyline fill="none" points="219.925,-322.449 249.925,-322.449 " stroke="white" stroke-width="2"/>
<path d="M249.925,-322.449C255.925,-322.449 261.925,-328.449 261.925,-334.449" fill="none" stroke="white" stroke-width="2"/>
<polyline fill="none" points="261.925,-334.449 261.925,-346.449 " stroke="white" stroke-width="2"/>
<path d="M261.925,-346.449C261.925,-352.449 255.925,-358.449 249.925,-358.449" fill="none" stroke="white" stroke-width="2"/>
<text font-family="Helvetica,sans-Serif" font-size="10.00" text-anchor="middle" x="234.925" y="-337.949">PROX1</text>
</a>
</g>
<!-- FOXM1_TBL1XR1&#45;&gt;PROX1 -->
<g class="edge" id="edge8">
<a class="remove13" ismara:data="0.197" onmousemove="ShowTooltip(evt, 'PROX1: 0.197')" onmouseout="HideTooltip(evt)">
<path d="M122.376,-304.149C143.052,-307.735 167.25,-312.807 188.545,-319.569 192.442,-320.807 196.448,-322.28 200.394,-323.863" fill="none" stroke="#dd95ff" stroke-width="3"/>
<polygon fill="#dd95ff" points="199.408,-326.486 207.867,-327.01 201.581,-321.325 199.408,-326.486" stroke="#dd95ff"/>
</a>
</g>
<!-- AR_NR3C2 -->
<g class="node" id="node10">
<a class="remove11" onmousemove="ShowTooltip(evt, 'Z-value: 0.484')" onmouseout="HideTooltip(evt)" xlink:href="AR_NR3C2.svg">
<polygon fill="#a9b1ff" points="170.775,-358.449 126.275,-358.449 114.275,-346.449 114.275,-334.449 126.275,-322.449 170.775,-322.449 182.775,-334.449 182.775,-346.449 170.775,-358.449" stroke="#a9b1ff" stroke-width="2"/>
<path d="M126.275,-358.449C120.275,-358.449 114.275,-352.449 114.275,-346.449" fill="#a9b1ff" stroke="#a9b1ff" stroke-width="2"/>
<path d="M114.275,-334.449C114.275,-328.449 120.275,-322.449 126.275,-322.449" fill="#a9b1ff" stroke="#a9b1ff" stroke-width="2"/>
<path d="M170.775,-322.449C176.775,-322.449 182.775,-328.449 182.775,-334.449" fill="#a9b1ff" stroke="#a9b1ff" stroke-width="2"/>
<path d="M182.775,-346.449C182.775,-352.449 176.775,-358.449 170.775,-358.449" fill="#a9b1ff" stroke="#a9b1ff" stroke-width="2"/>
<polyline fill="none" points="170.775,-358.449 126.275,-358.449 " stroke="white" stroke-width="2"/>
<path d="M126.275,-358.449C120.275,-358.449 114.275,-352.449 114.275,-346.449" fill="none" stroke="white" stroke-width="2"/>
<polyline fill="none" points="114.275,-346.449 114.275,-334.449 " stroke="white" stroke-width="2"/>
<path d="M114.275,-334.449C114.275,-328.449 120.275,-322.449 126.275,-322.449" fill="none" stroke="white" stroke-width="2"/>
<polyline fill="none" points="126.275,-322.449 170.775,-322.449 " stroke="white" stroke-width="2"/>
<path d="M170.775,-322.449C176.775,-322.449 182.775,-328.449 182.775,-334.449" fill="none" stroke="white" stroke-width="2"/>
<polyline fill="none" points="182.775,-334.449 182.775,-346.449 " stroke="white" stroke-width="2"/>
<path d="M182.775,-346.449C182.775,-352.449 176.775,-358.449 170.775,-358.449" fill="none" stroke="white" stroke-width="2"/>
<text font-family="Helvetica,sans-Serif" font-size="10.00" text-anchor="middle" x="148.525" y="-337.949">AR_NR3C2</text>
</a>
</g>
<!-- FOXM1_TBL1XR1&#45;&gt;AR_NR3C2 -->
<g class="edge" id="edge10">
<a class="remove7 root" ismara:data="0.042" onmousemove="ShowTooltip(evt, 'AR: 0.042')" onmouseout="HideTooltip(evt)">
<path d="M104.999,-315.32C106.626,-316.259 108.268,-317.207 109.914,-318.158" fill="none" stroke="#eac0ff" stroke-width="3"/>
<polygon fill="#eac0ff" points="108.782,-320.737 117.111,-322.312 111.582,-315.887 108.782,-320.737" stroke="#eac0ff"/>
</a>
</g>
<!-- MECOM -->
<g class="node" id="node12">
<a class="remove24" onmousemove="ShowTooltip(evt, 'Z-value: 0.630')" onmouseout="HideTooltip(evt)" xlink:href="MECOM.svg">
<polygon fill="#ff9e9e" points="206.975,-197.225 176.475,-197.225 164.475,-185.225 164.475,-173.225 176.475,-161.225 206.975,-161.225 218.975,-173.225 218.975,-185.225 206.975,-197.225" stroke="#ff9e9e" stroke-width="2"/>
<path d="M176.475,-197.225C170.475,-197.225 164.475,-191.225 164.475,-185.225" fill="#ff9e9e" stroke="#ff9e9e" stroke-width="2"/>
<path d="M164.475,-173.225C164.475,-167.225 170.475,-161.225 176.475,-161.225" fill="#ff9e9e" stroke="#ff9e9e" stroke-width="2"/>
<path d="M206.975,-161.225C212.975,-161.225 218.975,-167.225 218.975,-173.225" fill="#ff9e9e" stroke="#ff9e9e" stroke-width="2"/>
<path d="M218.975,-185.225C218.975,-191.225 212.975,-197.225 206.975,-197.225" fill="#ff9e9e" stroke="#ff9e9e" stroke-width="2"/>
<polyline fill="none" points="206.975,-197.225 176.475,-197.225 " stroke="white" stroke-width="2"/>
<path d="M176.475,-197.225C170.475,-197.225 164.475,-191.225 164.475,-185.225" fill="none" stroke="white" stroke-width="2"/>
<polyline fill="none" points="164.475,-185.225 164.475,-173.225 " stroke="white" stroke-width="2"/>
<path d="M164.475,-173.225C164.475,-167.225 170.475,-161.225 176.475,-161.225" fill="none" stroke="white" stroke-width="2"/>
<polyline fill="none" points="176.475,-161.225 206.975,-161.225 " stroke="white" stroke-width="2"/>
<path d="M206.975,-161.225C212.975,-161.225 218.975,-167.225 218.975,-173.225" fill="none" stroke="white" stroke-width="2"/>
<polyline fill="none" points="218.975,-173.225 218.975,-185.225 " stroke="white" stroke-width="2"/>
<path d="M218.975,-185.225C218.975,-191.225 212.975,-197.225 206.975,-197.225" fill="none" stroke="white" stroke-width="2"/>
<text font-family="Helvetica,sans-Serif" font-size="10.00" text-anchor="middle" x="191.725" y="-176.725">MECOM</text>
</a>
</g>
<!-- FOXM1_TBL1XR1&#45;&gt;MECOM -->
<g class="edge" id="edge12">
<a class="remove13 root" ismara:data="0.083" onmousemove="ShowTooltip(evt, 'MECOM: 0.083')" onmouseout="HideTooltip(evt)">
<path d="M91.8827,-279.067C112.302,-258.648 145.513,-225.437 167.969,-202.98" fill="none" stroke="#b5bcff" stroke-width="3"/>
<polygon fill="#b5bcff" points="170.038,-204.871 173.715,-197.234 166.078,-200.911 170.038,-204.871" stroke="#b5bcff"/>
</a>
</g>
<!-- SP4_PML -->
<g class="node" id="node14">
<a class="remove20" onmousemove="ShowTooltip(evt, 'Z-value: 1.603')" onmouseout="HideTooltip(evt)" xlink:href="SP4_PML.svg">
<polygon fill="#5969ff" points="48.75,-154.025 12.25,-154.025 0.25,-142.025 0.25,-130.025 12.25,-118.025 48.75,-118.025 60.75,-130.025 60.75,-142.025 48.75,-154.025" stroke="#5969ff" stroke-width="2"/>
<path d="M12.25,-154.025C6.25,-154.025 0.25,-148.025 0.25,-142.025" fill="#5969ff" stroke="#5969ff" stroke-width="2"/>
<path d="M0.25,-130.025C0.25,-124.025 6.25,-118.025 12.25,-118.025" fill="#5969ff" stroke="#5969ff" stroke-width="2"/>
<path d="M48.75,-118.025C54.75,-118.025 60.75,-124.025 60.75,-130.025" fill="#5969ff" stroke="#5969ff" stroke-width="2"/>
<path d="M60.75,-142.025C60.75,-148.025 54.75,-154.025 48.75,-154.025" fill="#5969ff" stroke="#5969ff" stroke-width="2"/>
<polyline fill="none" points="48.75,-154.025 12.25,-154.025 " stroke="white" stroke-width="2"/>
<path d="M12.25,-154.025C6.25,-154.025 0.25,-148.025 0.25,-142.025" fill="none" stroke="white" stroke-width="2"/>
<polyline fill="none" points="0.25,-142.025 0.25,-130.025 " stroke="white" stroke-width="2"/>
<path d="M0.25,-130.025C0.25,-124.025 6.25,-118.025 12.25,-118.025" fill="none" stroke="white" stroke-width="2"/>
<polyline fill="none" points="12.25,-118.025 48.75,-118.025 " stroke="white" stroke-width="2"/>
<path d="M48.75,-118.025C54.75,-118.025 60.75,-124.025 60.75,-130.025" fill="none" stroke="white" stroke-width="2"/>
<polyline fill="none" points="60.75,-130.025 60.75,-142.025 " stroke="white" stroke-width="2"/>
<path d="M60.75,-142.025C60.75,-148.025 54.75,-154.025 48.75,-154.025" fill="none" stroke="white" stroke-width="2"/>
<text fill="white" font-family="Helvetica,sans-Serif" font-size="10.00" text-anchor="middle" x="30.5" y="-133.525">SP4_PML</text>
</a>
</g>
<!-- FOXM1_TBL1XR1&#45;&gt;SP4_PML -->
<g class="edge" id="edge14">
<a class="remove13" ismara:data="0.555" onmousemove="ShowTooltip(evt, 'PML: 0.279|TBL1XR1: 0.555|FOXM1: 0.102')" onmouseout="HideTooltip(evt)">
<path d="M71.7052,-270.852C70.428,-251.416 67.5031,-224.468 60.8603,-201.825 56.8733,-188.164 50.219,-173.66 44.1011,-161.858" fill="none" stroke="#d67fff" stroke-width="3"/>
<path d="M73.7008,-270.72C72.4163,-251.201 69.4914,-224.253 62.7797,-201.264 58.6911,-187.33 52.0368,-172.826 45.8767,-160.938" fill="none" stroke="#bd32ff" stroke-width="3"/>
<polygon fill="#bd32ff" points="69.9151,-271.079 73.1705,-278.905 75.5059,-270.757 69.9151,-271.079" stroke="#bd32ff"/>
<polygon fill="#d67fff" points="47.2965,-159.774 41.0618,-154.032 42.355,-162.409 47.2965,-159.774" stroke="#d67fff"/>
</a>
</g>
<!-- MZF1&#45;&gt;MZF1 -->
<g class="edge" id="edge36">
<a class="remove9 root" ismara:data="0.056" onmousemove="ShowTooltip(evt, 'MZF1: 0.056')" onmouseout="HideTooltip(evt)">
<path d="M57.7408,-229.168C67.5239,-229.313 75.5,-227.065 75.5,-222.425 75.5,-219.162 71.5568,-217.082 65.8147,-216.185" fill="none" stroke="#e9bcff" stroke-width="3"/>
<polygon fill="#e9bcff" points="65.8996,-213.385 57.7408,-215.681 65.551,-218.974 65.8996,-213.385" stroke="#e9bcff"/>
</a>
</g>
<!-- MZF1&#45;&gt;STAT6 -->
<g class="edge" id="edge38">
<a class="remove14" ismara:data="0.124" onmousemove="ShowTooltip(evt, 'STAT6: 0.124')" onmouseout="HideTooltip(evt)">
<path d="M57.5293,-229.667C108.409,-243.3 218.354,-272.76 274.781,-287.88" fill="none" stroke="#e3a9ff" stroke-width="3"/>
<polygon fill="#e3a9ff" points="274.253,-290.637 282.705,-290.003 275.702,-285.228 274.253,-290.637" stroke="#e3a9ff"/>
</a>
</g>
<!-- MZF1&#45;&gt;PROX1 -->
<g class="edge" id="edge40">
<a class="remove4 root" ismara:data="0.034" onmousemove="ShowTooltip(evt, 'PROX1: 0.034')" onmouseout="HideTooltip(evt)">
<path d="M57.9016,-236.67C78.1351,-247.317 106.26,-262.385 130.54,-276.369 154.276,-290.04 180.554,-306.177 200.806,-318.838" fill="none" stroke="#ebc2ff" stroke-width="3"/>
<polygon fill="#ebc2ff" points="199.438,-321.285 207.704,-323.161 202.412,-316.54 199.438,-321.285" stroke="#ebc2ff"/>
</a>
</g>
<!-- MZF1&#45;&gt;MECOM -->
<g class="edge" id="edge42">
<a class="remove14 root" ismara:data="0.084" onmousemove="ShowTooltip(evt, 'MECOM: 0.084')" onmouseout="HideTooltip(evt)">
<path d="M57.8496,-215.096C84.949,-207.835 126.584,-196.679 156.222,-188.738" fill="none" stroke="#b4bcff" stroke-width="3"/>
<polygon fill="#b4bcff" points="157.238,-191.364 164.241,-186.589 155.789,-185.955 157.238,-191.364" stroke="#b4bcff"/>
</a>
</g>
<!-- REL -->
<g class="node" id="node29">
<a class="remove12" onmousemove="ShowTooltip(evt, 'Z-value: 0.573')" onmouseout="HideTooltip(evt)" xlink:href="REL.svg">
<polygon fill="#a3acff" points="367.949,-154.025 337.949,-154.025 325.949,-142.025 325.949,-130.025 337.949,-118.025 367.949,-118.025 379.949,-130.025 379.949,-142.025 367.949,-154.025" stroke="#a3acff" stroke-width="2"/>
<path d="M337.949,-154.025C331.949,-154.025 325.949,-148.025 325.949,-142.025" fill="#a3acff" stroke="#a3acff" stroke-width="2"/>
<path d="M325.949,-130.025C325.949,-124.025 331.949,-118.025 337.949,-118.025" fill="#a3acff" stroke="#a3acff" stroke-width="2"/>
<path d="M367.949,-118.025C373.949,-118.025 379.949,-124.025 379.949,-130.025" fill="#a3acff" stroke="#a3acff" stroke-width="2"/>
<path d="M379.949,-142.025C379.949,-148.025 373.949,-154.025 367.949,-154.025" fill="#a3acff" stroke="#a3acff" stroke-width="2"/>
<polyline fill="none" points="367.949,-154.025 337.949,-154.025 " stroke="white" stroke-width="2"/>
<path d="M337.949,-154.025C331.949,-154.025 325.949,-148.025 325.949,-142.025" fill="none" stroke="white" stroke-width="2"/>
<polyline fill="none" points="325.949,-142.025 325.949,-130.025 " stroke="white" stroke-width="2"/>
<path d="M325.949,-130.025C325.949,-124.025 331.949,-118.025 337.949,-118.025" fill="none" stroke="white" stroke-width="2"/>
<polyline fill="none" points="337.949,-118.025 367.949,-118.025 " stroke="white" stroke-width="2"/>
<path d="M367.949,-118.025C373.949,-118.025 379.949,-124.025 379.949,-130.025" fill="none" stroke="white" stroke-width="2"/>
<polyline fill="none" points="379.949,-130.025 379.949,-142.025 " stroke="white" stroke-width="2"/>
<path d="M379.949,-142.025C379.949,-148.025 373.949,-154.025 367.949,-154.025" fill="none" stroke="white" stroke-width="2"/>
<text font-family="Helvetica,sans-Serif" font-size="10.00" text-anchor="middle" x="352.949" y="-133.525">REL</text>
</a>
</g>
<!-- MZF1&#45;&gt;REL -->
<g class="edge" id="edge44">
<a class="remove3 root" ismara:data="0.025" onmousemove="ShowTooltip(evt, 'REL: 0.025')" onmouseout="HideTooltip(evt)">
<path d="M57.6145,-205.515C83.0273,-190.527 122.581,-169.359 159.825,-158.345 213.235,-142.549 278.035,-137.843 317.348,-136.493" fill="none" stroke="#ecc5ff" stroke-width="3"/>
<polygon fill="#ecc5ff" points="317.901,-139.278 325.814,-136.241 317.734,-133.68 317.901,-139.278" stroke="#ecc5ff"/>
</a>
</g>
<!-- STAT6&#45;&gt;PROX1 -->
<g class="edge" id="edge54">
<a class="remove0 root" ismara:data="0.003" onmousemove="ShowTooltip(evt, 'PROX1: 0.003')" onmouseout="HideTooltip(evt)">
<path d="M282.736,-312.845C278.34,-315.383 273.737,-318.041 269.196,-320.663" fill="none" stroke="#eecbff" stroke-width="3"/>
<polygon fill="#eecbff" points="267.678,-318.306 262.15,-324.731 270.478,-323.156 267.678,-318.306" stroke="#eecbff"/>
</a>
</g>
<!-- MECOM&#45;&gt;NR2F1 -->
<g class="edge" id="edge46">
<a class="remove15 root" ismara:data="0.092" onmousemove="ShowTooltip(evt, 'NR2F1: 0.092')" onmouseout="HideTooltip(evt)">
<path d="M219.074,-186.553C246.256,-193.836 288.061,-205.038 317.715,-212.984" fill="none" stroke="#ffb2b2" stroke-width="3"/>
<polygon fill="#ffb2b2" points="317.283,-215.767 325.735,-215.133 318.732,-210.357 317.283,-215.767" stroke="#ffb2b2"/>
</a>
</g>
<!-- MECOM&#45;&gt;STAT6 -->
<g class="edge" id="edge48">
<a class="remove17 root" ismara:data="0.099" onmousemove="ShowTooltip(evt, 'STAT6: 0.099')" onmouseout="HideTooltip(evt)">
<path d="M209.907,-197.407C230.326,-217.826 263.537,-251.037 285.994,-273.494" fill="none" stroke="#ffb0b0" stroke-width="3"/>
<polygon fill="#ffb0b0" points="284.103,-275.563 291.74,-279.24 288.063,-271.603 284.103,-275.563" stroke="#ffb0b0"/>
</a>
</g>
<!-- MECOM&#45;&gt;PROX1 -->
<g class="edge" id="edge50">
<a class="remove18 root" ismara:data="0.109" onmousemove="ShowTooltip(evt, 'PROX1: 0.109')" onmouseout="HideTooltip(evt)">
<path d="M196.596,-197.406C204.245,-225.951 219.104,-281.407 227.906,-314.254" fill="none" stroke="#ffaeae" stroke-width="3"/>
<polygon fill="#ffaeae" points="225.229,-315.084 230.005,-322.087 230.638,-313.635 225.229,-315.084" stroke="#ffaeae"/>
</a>
</g>
<!-- MECOM&#45;&gt;AR_NR3C2 -->
<g class="edge" id="edge52">
<a class="remove11 root" ismara:data="0.075" onmousemove="ShowTooltip(evt, 'AR: 0.075')" onmouseout="HideTooltip(evt)">
<path d="M186.853,-197.406C179.204,-225.951 164.345,-281.407 155.544,-314.254" fill="none" stroke="#ffb7b7" stroke-width="3"/>
<polygon fill="#ffb7b7" points="152.811,-313.635 153.445,-322.087 158.22,-315.084 152.811,-313.635" stroke="#ffb7b7"/>
</a>
</g>
<!-- SP4_PML&#45;&gt;MZF1 -->
<g class="edge" id="edge16">
<a class="remove1 root" ismara:data="0.008" onmousemove="ShowTooltip(evt, 'MZF1: 0.008')" onmouseout="HideTooltip(evt)">
<path d="M30.5,-154.348C30.5,-166.572 30.5,-182.828 30.5,-196.389" fill="none" stroke="#edc9ff" stroke-width="3"/>
<polygon fill="#edc9ff" points="27.7001,-196.424 30.5,-204.424 33.3001,-196.424 27.7001,-196.424" stroke="#edc9ff"/>
</a>
</g>
<!-- SP4_PML&#45;&gt;PROX1 -->
<g class="edge" id="edge20">
<a class="remove2 root" ismara:data="0.013" onmousemove="ShowTooltip(evt, 'PROX1: 0.013')" onmouseout="HideTooltip(evt)">
<path d="M48.6413,-154.166C85.616,-191.141 169.684,-275.209 211.042,-316.567" fill="none" stroke="#edc8ff" stroke-width="3"/>
<polygon fill="#edc8ff" points="209.187,-318.672 216.824,-322.349 213.147,-314.712 209.187,-318.672" stroke="#edc8ff"/>
</a>
</g>
<!-- SP4_PML&#45;&gt;AR_NR3C2 -->
<g class="edge" id="edge24">
<a class="remove11" ismara:data="0.096" onmousemove="ShowTooltip(evt, 'NR3C2: 0.096')" onmouseout="HideTooltip(evt)">
<path d="M46.6677,-154.223C68.6034,-179.795 107.673,-228.598 130.54,-276.369 136.255,-288.309 140.457,-302.396 143.355,-314.316" fill="none" stroke="#e6b1ff" stroke-width="3"/>
<polygon fill="#e6b1ff" points="140.639,-314.998 145.156,-322.17 146.097,-313.747 140.639,-314.998" stroke="#e6b1ff"/>
</a>
</g>
<!-- SP4_PML&#45;&gt;MECOM -->
<g class="edge" id="edge26">
<a class="remove20 root" ismara:data="0.119" onmousemove="ShowTooltip(evt, 'MECOM: 0.119')" onmouseout="HideTooltip(evt)">
<path d="M60.8251,-144.15C88.0062,-151.433 127.887,-162.119 156.479,-169.781" fill="none" stroke="#abb3ff" stroke-width="3"/>
<polygon fill="#abb3ff" points="155.772,-172.49 164.224,-171.856 157.221,-167.081 155.772,-172.49" stroke="#abb3ff"/>
</a>
</g>
<!-- SP4_PML&#45;&gt;SP4_PML -->
<g class="edge" id="edge32">
<a class="remove10 root" ismara:data="0.061" onmousemove="ShowTooltip(evt, 'SP4: 0.061')" onmouseout="HideTooltip(evt)">
<path d="M60.9673,-142.773C70.748,-142.704 78.5,-140.454 78.5,-136.025 78.5,-132.91 74.6676,-130.873 68.9921,-129.914" fill="none" stroke="#e9bbff" stroke-width="3"/>
<polygon fill="#e9bbff" points="69.1641,-127.119 60.9673,-129.276 68.7201,-132.702 69.1641,-127.119" stroke="#e9bbff"/>
</a>
</g>
<!-- IRF7 -->
<g class="node" id="node17">
<a class="remove21" onmousemove="ShowTooltip(evt, 'Z-value: 0.789')" onmouseout="HideTooltip(evt)" xlink:href="IRF7.svg">
<polygon fill="#939eff" points="88.7,-79.2 58.7,-79.2 46.7,-67.2 46.7,-55.2 58.7,-43.2 88.7,-43.2 100.7,-55.2 100.7,-67.2 88.7,-79.2" stroke="#939eff" stroke-width="2"/>
<path d="M58.7,-79.2C52.7,-79.2 46.7,-73.2 46.7,-67.2" fill="#939eff" stroke="#939eff" stroke-width="2"/>
<path d="M46.7,-55.2C46.7,-49.2 52.7,-43.2 58.7,-43.2" fill="#939eff" stroke="#939eff" stroke-width="2"/>
<path d="M88.7,-43.2C94.7,-43.2 100.7,-49.2 100.7,-55.2" fill="#939eff" stroke="#939eff" stroke-width="2"/>
<path d="M100.7,-67.2C100.7,-73.2 94.7,-79.2 88.7,-79.2" fill="#939eff" stroke="#939eff" stroke-width="2"/>
<polyline fill="none" points="88.7,-79.2 58.7,-79.2 " stroke="white" stroke-width="2"/>
<path d="M58.7,-79.2C52.7,-79.2 46.7,-73.2 46.7,-67.2" fill="none" stroke="white" stroke-width="2"/>
<polyline fill="none" points="46.7,-67.2 46.7,-55.2 " stroke="white" stroke-width="2"/>
<path d="M46.7,-55.2C46.7,-49.2 52.7,-43.2 58.7,-43.2" fill="none" stroke="white" stroke-width="2"/>
<polyline fill="none" points="58.7,-43.2 88.7,-43.2 " stroke="white" stroke-width="2"/>
<path d="M88.7,-43.2C94.7,-43.2 100.7,-49.2 100.7,-55.2" fill="none" stroke="white" stroke-width="2"/>
<polyline fill="none" points="100.7,-55.2 100.7,-67.2 " stroke="white" stroke-width="2"/>
<path d="M100.7,-67.2C100.7,-73.2 94.7,-79.2 88.7,-79.2" fill="none" stroke="white" stroke-width="2"/>
<text font-family="Helvetica,sans-Serif" font-size="10.00" text-anchor="middle" x="73.7" y="-58.7">IRF7</text>
</a>
</g>
<!-- SP4_PML&#45;&gt;IRF7 -->
<g class="edge" id="edge18">
<a class="remove19 root" ismara:data="0.119" onmousemove="ShowTooltip(evt, 'IRF7: 0.119')" onmouseout="HideTooltip(evt)">
<path d="M40.9575,-117.912C46.3829,-108.515 53.0997,-96.8808 59.035,-86.6005" fill="none" stroke="#e4abff" stroke-width="3"/>
<polygon fill="#e4abff" points="61.6139,-87.7337 63.1891,-79.4055 56.7641,-84.9337 61.6139,-87.7337" stroke="#e4abff"/>
</a>
</g>
<!-- POU3F2 -->
<g class="node" id="node20">
<a class="remove22" onmousemove="ShowTooltip(evt, 'Z-value: 0.954')" onmouseout="HideTooltip(evt)" xlink:href="POU3F2.svg">
<polygon fill="#8793ff" points="163.775,-36 133.275,-36 121.275,-24 121.275,-12 133.275,-6.39488e-14 163.775,-6.39488e-14 175.775,-12 175.775,-24 163.775,-36" stroke="#8793ff" stroke-width="2"/>
<path d="M133.275,-36C127.275,-36 121.275,-30 121.275,-24" fill="#8793ff" stroke="#8793ff" stroke-width="2"/>
<path d="M121.275,-12C121.275,-6 127.275,-6.39488e-14 133.275,-6.39488e-14" fill="#8793ff" stroke="#8793ff" stroke-width="2"/>
<path d="M163.775,-6.39488e-14C169.775,-6.39488e-14 175.775,-6 175.775,-12" fill="#8793ff" stroke="#8793ff" stroke-width="2"/>
<path d="M175.775,-24C175.775,-30 169.775,-36 163.775,-36" fill="#8793ff" stroke="#8793ff" stroke-width="2"/>
<polyline fill="none" points="163.775,-36 133.275,-36 " stroke="white" stroke-width="2"/>
<path d="M133.275,-36C127.275,-36 121.275,-30 121.275,-24" fill="none" stroke="white" stroke-width="2"/>
<polyline fill="none" points="121.275,-24 121.275,-12 " stroke="white" stroke-width="2"/>
<path d="M121.275,-12C121.275,-6 127.275,-6.39488e-14 133.275,-6.39488e-14" fill="none" stroke="white" stroke-width="2"/>
<polyline fill="none" points="133.275,-6.39488e-14 163.775,-6.39488e-14 " stroke="white" stroke-width="2"/>
<path d="M163.775,-6.39488e-14C169.775,-6.39488e-14 175.775,-6 175.775,-12" fill="none" stroke="white" stroke-width="2"/>
<polyline fill="none" points="175.775,-12 175.775,-24 " stroke="white" stroke-width="2"/>
<path d="M175.775,-24C175.775,-30 169.775,-36 163.775,-36" fill="none" stroke="white" stroke-width="2"/>
<text font-family="Helvetica,sans-Serif" font-size="10.00" text-anchor="middle" x="148.525" y="-15.5">POU3F2</text>
</a>
</g>
<!-- SP4_PML&#45;&gt;POU3F2 -->
<g class="edge" id="edge22">
<a class="remove5 root" ismara:data="0.037" onmousemove="ShowTooltip(evt, 'POU3F2: 0.037')" onmouseout="HideTooltip(evt)">
<path d="M60.3119,-117.932C74.7519,-108.336 91.7848,-95.7204 105.02,-82.08 116.292,-70.4633 126.582,-55.603 134.322,-43.1181" fill="none" stroke="#ebc1ff" stroke-width="3"/>
<polygon fill="#ebc1ff" points="136.831,-44.3792 138.572,-36.0841 132.038,-41.483 136.831,-44.3792" stroke="#ebc1ff"/>
</a>
</g>
<!-- CDX1 -->
<g class="node" id="node24">
<a class="remove16" onmousemove="ShowTooltip(evt, 'Z-value: 0.491')" onmouseout="HideTooltip(evt)" xlink:href="CDX1.svg">
<polygon fill="#a8b1ff" points="249.925,-36 219.925,-36 207.925,-24 207.925,-12 219.925,-0 249.925,-0 261.925,-12 261.925,-24 249.925,-36" stroke="#a8b1ff" stroke-width="2"/>
<path d="M219.925,-36C213.925,-36 207.925,-30 207.925,-24" fill="#a8b1ff" stroke="#a8b1ff" stroke-width="2"/>
<path d="M207.925,-12C207.925,-6 213.925,-0 219.925,-0" fill="#a8b1ff" stroke="#a8b1ff" stroke-width="2"/>
<path d="M249.925,-0C255.925,-0 261.925,-6 261.925,-12" fill="#a8b1ff" stroke="#a8b1ff" stroke-width="2"/>
<path d="M261.925,-24C261.925,-30 255.925,-36 249.925,-36" fill="#a8b1ff" stroke="#a8b1ff" stroke-width="2"/>
<polyline fill="none" points="249.925,-36 219.925,-36 " stroke="white" stroke-width="2"/>
<path d="M219.925,-36C213.925,-36 207.925,-30 207.925,-24" fill="none" stroke="white" stroke-width="2"/>
<polyline fill="none" points="207.925,-24 207.925,-12 " stroke="white" stroke-width="2"/>
<path d="M207.925,-12C207.925,-6 213.925,-0 219.925,-0" fill="none" stroke="white" stroke-width="2"/>
<polyline fill="none" points="219.925,-0 249.925,-0 " stroke="white" stroke-width="2"/>
<path d="M249.925,-0C255.925,-0 261.925,-6 261.925,-12" fill="none" stroke="white" stroke-width="2"/>
<polyline fill="none" points="261.925,-12 261.925,-24 " stroke="white" stroke-width="2"/>
<path d="M261.925,-24C261.925,-30 255.925,-36 249.925,-36" fill="none" stroke="white" stroke-width="2"/>
<text font-family="Helvetica,sans-Serif" font-size="10.00" text-anchor="middle" x="234.925" y="-15.5">CDX1</text>
</a>
</g>
<!-- SP4_PML&#45;&gt;CDX1 -->
<g class="edge" id="edge28">
<a class="remove16" ismara:data="0.11" onmousemove="ShowTooltip(evt, 'CDX1: 0.110')" onmouseout="HideTooltip(evt)">
<path d="M61.1044,-118.355C98.5379,-96.7429 161.723,-60.2632 200.723,-37.7465" fill="none" stroke="#e4adff" stroke-width="3"/>
<polygon fill="#e4adff" points="202.184,-40.1363 207.712,-33.7113 199.384,-35.2865 202.184,-40.1363" stroke="#e4adff"/>
</a>
</g>
<!-- HES1 -->
<g class="node" id="node26">
<a class="remove23" onmousemove="ShowTooltip(evt, 'Z-value: 1.505')" onmouseout="HideTooltip(evt)" xlink:href="HES1.svg">
<polygon fill="#6070ff" points="324.749,-79.2 294.749,-79.2 282.749,-67.2 282.749,-55.2 294.749,-43.2 324.749,-43.2 336.749,-55.2 336.749,-67.2 324.749,-79.2" stroke="#6070ff" stroke-width="2"/>
<path d="M294.749,-79.2C288.749,-79.2 282.749,-73.2 282.749,-67.2" fill="#6070ff" stroke="#6070ff" stroke-width="2"/>
<path d="M282.749,-55.2C282.749,-49.2 288.749,-43.2 294.749,-43.2" fill="#6070ff" stroke="#6070ff" stroke-width="2"/>
<path d="M324.749,-43.2C330.749,-43.2 336.749,-49.2 336.749,-55.2" fill="#6070ff" stroke="#6070ff" stroke-width="2"/>
<path d="M336.749,-67.2C336.749,-73.2 330.749,-79.2 324.749,-79.2" fill="#6070ff" stroke="#6070ff" stroke-width="2"/>
<polyline fill="none" points="324.749,-79.2 294.749,-79.2 " stroke="white" stroke-width="2"/>
<path d="M294.749,-79.2C288.749,-79.2 282.749,-73.2 282.749,-67.2" fill="none" stroke="white" stroke-width="2"/>
<polyline fill="none" points="282.749,-67.2 282.749,-55.2 " stroke="white" stroke-width="2"/>
<path d="M282.749,-55.2C282.749,-49.2 288.749,-43.2 294.749,-43.2" fill="none" stroke="white" stroke-width="2"/>
<polyline fill="none" points="294.749,-43.2 324.749,-43.2 " stroke="white" stroke-width="2"/>
<path d="M324.749,-43.2C330.749,-43.2 336.749,-49.2 336.749,-55.2" fill="none" stroke="white" stroke-width="2"/>
<polyline fill="none" points="336.749,-55.2 336.749,-67.2 " stroke="white" stroke-width="2"/>
<path d="M336.749,-67.2C336.749,-73.2 330.749,-79.2 324.749,-79.2" fill="none" stroke="white" stroke-width="2"/>
<text fill="white" font-family="Helvetica,sans-Serif" font-size="10.00" text-anchor="middle" x="309.749" y="-58.7">HES1</text>
</a>
</g>
<!-- SP4_PML&#45;&gt;HES1 -->
<g class="edge" id="edge30">
<a class="remove8 root" ismara:data="0.05" onmousemove="ShowTooltip(evt, 'HES1: 0.050')" onmouseout="HideTooltip(evt)">
<path d="M60.9161,-127.875C113.192,-113.867 219.768,-85.3103 274.931,-70.5295" fill="none" stroke="#eabeff" stroke-width="3"/>
<polygon fill="#eabeff" points="275.681,-73.2273 282.684,-68.4521 274.232,-67.8181 275.681,-73.2273" stroke="#eabeff"/>
</a>
</g>
<!-- SP4_PML&#45;&gt;REL -->
<g class="edge" id="edge34">
<a class="remove12" ismara:data="0.193" onmousemove="ShowTooltip(evt, 'REL: 0.193')" onmouseout="HideTooltip(evt)">
<path d="M60.8352,-136.025C120.701,-136.025 253.754,-136.025 317.526,-136.025" fill="none" stroke="#dd96ff" stroke-width="3"/>
<polygon fill="#dd96ff" points="317.684,-138.825 325.684,-136.025 317.684,-133.225 317.684,-138.825" stroke="#dd96ff"/>
</a>
</g>
<!-- IRF7&#45;&gt;MECOM -->
<g class="edge" id="edge62">
<a class="remove21 root" ismara:data="0.149" onmousemove="ShowTooltip(evt, 'MECOM: 0.149')" onmouseout="HideTooltip(evt)">
<path d="M91.8827,-79.3827C112.302,-99.8017 145.513,-133.013 167.969,-155.469" fill="none" stroke="#a2acff" stroke-width="3"/>
<polygon fill="#a2acff" points="166.078,-157.538 173.715,-161.215 170.038,-153.578 166.078,-157.538" stroke="#a2acff"/>
</a>
</g>
<!-- POU3F2&#45;&gt;MECOM -->
<g class="edge" id="edge56">
<a class="remove22 root" ismara:data="0.15" onmousemove="ShowTooltip(evt, 'MECOM: 0.150')" onmouseout="HideTooltip(evt)">
<path d="M153.396,-36.1811C161.045,-64.7264 175.904,-120.183 184.706,-153.029" fill="none" stroke="#a2acff" stroke-width="3"/>
<polygon fill="#a2acff" points="182.029,-153.86 186.805,-160.863 187.438,-152.41 182.029,-153.86" stroke="#a2acff"/>
</a>
</g>
<!-- CDX1&#45;&gt;MECOM -->
<g class="edge" id="edge68">
<a class="remove16 root" ismara:data="0.094" onmousemove="ShowTooltip(evt, 'MECOM: 0.094')" onmouseout="HideTooltip(evt)">
<path d="M230.053,-36.1811C222.404,-64.7264 207.545,-120.183 198.744,-153.029" fill="none" stroke="#b2b9ff" stroke-width="3"/>
<polygon fill="#b2b9ff" points="196.011,-152.41 196.645,-160.863 201.42,-153.86 196.011,-152.41" stroke="#b2b9ff"/>
</a>
</g>
<!-- HES1&#45;&gt;MECOM -->
<g class="edge" id="edge58">
<a class="remove23 root" ismara:data="0.174" onmousemove="ShowTooltip(evt, 'MECOM: 0.174')" onmouseout="HideTooltip(evt)">
<path d="M291.567,-79.3827C271.148,-99.8017 237.937,-133.013 215.48,-155.469" fill="none" stroke="#9ca5ff" stroke-width="3"/>
<polygon fill="#9ca5ff" points="213.411,-153.578 209.734,-161.215 217.371,-157.538 213.411,-153.578" stroke="#9ca5ff"/>
</a>
</g>
<!-- HES1&#45;&gt;CDX1 -->
<g class="edge" id="edge60">
<a class="remove16" ismara:data="0.249" onmousemove="ShowTooltip(evt, 'CDX1: 0.249')" onmouseout="HideTooltip(evt)">
<path d="M282.736,-45.6038C278.34,-43.0661 273.737,-40.4084 269.196,-37.7865" fill="none" stroke="#d887ff" stroke-width="3"/>
<polygon fill="#d887ff" points="270.478,-35.2936 262.15,-33.7184 267.678,-40.1433 270.478,-35.2936" stroke="#d887ff"/>
</a>
</g>
<!-- REL&#45;&gt;STAT6 -->
<g class="edge" id="edge64">
<a class="remove12" ismara:data="0.14" onmousemove="ShowTooltip(evt, 'STAT6: 0.140')" onmouseout="HideTooltip(evt)">
<path d="M342.387,-154.032C335.362,-166.854 326.551,-184.725 321.629,-201.545 314.952,-224.361 312.027,-251.309 310.746,-270.786" fill="none" stroke="#e2a5ff" stroke-width="3"/>
<polygon fill="#e2a5ff" points="307.943,-270.757 310.279,-278.905 313.534,-271.079 307.943,-270.757" stroke="#e2a5ff"/>
</a>
</g>
<!-- REL&#45;&gt;MECOM -->
<g class="edge" id="edge66">
<a class="remove12 root" ismara:data="0.078" onmousemove="ShowTooltip(evt, 'MECOM: 0.078')" onmouseout="HideTooltip(evt)">
<path d="M325.6,-143.353C298.5,-150.614 256.865,-161.77 227.227,-169.712" fill="none" stroke="#b6bdff" stroke-width="3"/>
<polygon fill="#b6bdff" points="226.211,-167.085 219.208,-171.86 227.66,-172.494 226.211,-167.085" stroke="#b6bdff"/>
</a>
</g>
</g>
<rect height="14" id="tooltip_bg" style="fill: white; stroke: black; opacity: 0.8;" visibility="hidden"/><text id="tooltip" style="font-size: 10px;font-weight: bold;" visibility="hidden"></text><g id="plus" onclick="showSome();moveSlider();setThreshold();"><circle cx="22" cy="22" r="10" style="fill: #dddddd; opacity: 100%;"/><line stroke="#888888" stroke-width="2" x1="16" x2="28" y1="22" y2="22"/><line stroke="#888888" stroke-width="2" x1="22" x2="22" y1="16" y2="28"/></g><g id="minus" onclick="hideSome();moveSlider();setThreshold();"><circle cx="22" cy="344" r="10" style="fill: #dddddd; opacity: 100%;"/><line stroke="#888888" stroke-width="2" x1="16" x2="28" y1="344" y2="344"/></g><line id="slider_scale" onmousedown="jump_slider(evt)" stroke="#888888" stroke-width="5" x1="22" x2="22" y1="40" y2="326"/><circle cx="22" cy="50" id="slider" onmousedown="grab(evt)" onmouseout="release(evt)" onmouseup="release(evt)" r="15" style="fill:#922"/><script type="text/ecmascript"><![CDATA[
    var svgNS = "http://www.w3.org/2000/svg";
    var edge_num = 24;
    var counter = 0;
    var tooltip, tooltip_bg;

    function init(evt) {
        if ( window.svgDocument == null ) {
            svgDocument = evt.target.ownerDocument;
        }
        tooltip = svgDocument.getElementById('tooltip');
        tooltip_bg = svgDocument.getElementById('tooltip_bg');
        setThreshold();
    }

    function ShowTooltip(evt, txt) {
        var length = 0;
        var height;
        var tooltip_x = evt.pageX + 18;
        var tooltip_y = evt.pageY + 22;
        var bg_x = evt.pageX + 10;
        var bg_y = evt.pageY + 10;

        /* Clean toolip content */
        while (tooltip.lastChild) {
            tooltip.removeChild(tooltip.lastChild)
        }

        /* Populate tooltip with tspan elements and get longest of them */
        var text_elements = txt.split('|');
        for (var i = 0; i  < text_elements.length; i++) {
            var shift_y = 12;
            if (i == 0) {
                shift_y = 0;
            }
            var tspan_element = document.createElementNS(svgNS, "tspan");
            tspan_element.setAttributeNS(null, "dy", shift_y);
            tspan_element.setAttributeNS(null, "x", tooltip_x);
            var text_node = svgDocument.createTextNode(text_elements[i]);
            tspan_element.appendChild(text_node);
            tooltip.appendChild(tspan_element);
            var tspan_length = tspan_element.getComputedTextLength();
            if (tspan_length > length) {
                length = tspan_length
            }
        }
        /* add right margin to tooltip */
        length = length + 15;
        height = 12 * text_elements.length + 5;
        tooltip_bg.setAttributeNS(null,"width",length);
        tooltip_bg.setAttributeNS(null,"height",height);
        tooltip_bg.setAttributeNS(null,"x", bg_x);
        tooltip_bg.setAttributeNS(null,"y", bg_y);
        tooltip_bg.setAttributeNS(null,"visibility","visible");
        tooltip.setAttributeNS(null,"x", tooltip_x);
        tooltip.setAttributeNS(null,"y", tooltip_y);
        tooltip.setAttributeNS(null,"visibility","visible");
    }
    function HideTooltip() {
      tooltip.setAttributeNS(null,"visibility","hidden");
      tooltip_bg.setAttributeNS(null,"visibility","hidden");
    }

    /*** Hide/Show edges functions ***/

    function hideSome() {
      if (counter >= edge_num -1) {
        return 1;
      }
      var elements = svgDocument.getElementsByClassName('remove' + counter);
      for (var i = 0; i < elements.length; i++) {
        elements[i].setAttributeNS(null,"visibility","hidden");
      }
      counter = counter + 1;
    }

    function showSome() {
      if (counter <= 0) {
        return 1;
      }
      counter = counter - 1;
      var elements = svgDocument.getElementsByClassName('remove' + counter);
      for (var i = 0; i < elements.length; i++) {
        elements[i].setAttributeNS(null,"visibility","visible");
      }
    }

    function setThreshold() {
        var elements = svgDocument.getElementsByClassName('remove' + counter);
        var score = 0;
        for (var i = 0; i < elements.length; i++) {
            if (elements[i].classList.contains("root")){
                if (elements[i].hasAttributeNS("ismara.unibas.ch", "data")) {
                    score = elements[i].getAttributeNS("ismara.unibas.ch", "data");
                }
            } 
        }
        svgDocument.getElementById("score_indicator").textContent = "Score threshold: " + score;
    }

    /*** Slider functions ***/

    var slider_maxY = parseInt(document.getElementById("slider_scale").getAttributeNS(null, "y2"));
    var slider_minY = parseInt(document.getElementById("slider_scale").getAttributeNS(null, "y1"));
    var slider_r = parseInt(document.getElementById("slider").getAttributeNS(null, "r"));
    var coef = (edge_num - 1) / (slider_maxY - slider_minY - 2 * slider_r);

    function grab(evt){
        var element = evt.target;
        var Attr = {"onmousemove":"slide(evt,'"+element.id+"')"};
        assignAttr(element, Attr);
    }

    function release(evt){
        var element = evt.target;
        var Attr = {"onmousemove":null};
        assignAttr(element, Attr);
    }

    function assignAttr(obj,attr){
        for (i in attr) obj.setAttributeNS(null,i, attr[i]);
    }

    function slide(evt,id){
        var slider = evt.target;
        var y = evt.pageY;
        var new_counter = Math.floor((evt.pageY - slider_minY - slider_r) * coef);
        if (evt.pageY > (slider_maxY - slider_r)) {
            slider.setAttributeNS(null, "cy", (slider_maxY - slider_r));
            new_counter = edge_num;
        } else if(evt.pageY < (slider_minY + slider_r)) {
            slider.setAttributeNS(null, "cy", (slider_minY + slider_r));
            new_counter = 1;
        } else {
            slider.setAttributeNS(null, "cy", evt.pageY);
        }

        if (new_counter < counter) {
                showSome();
            counter = new_counter;
        }
        if (new_counter > counter) {
                hideSome();
            counter = new_counter;
        }
        setThreshold();
    }

    function moveSlider() {
        circle = document.getElementById("slider");
        circle.setAttributeNS(null, "cy",  slider_minY +  slider_r + (counter) / coef);
    }

    function jump_slider(evt) {
        var slider = document.getElementById("slider");
        var new_counter = Math.floor((evt.pageY - slider_minY - slider_r) * coef);
        if (evt.pageY > (slider_maxY - slider_r)) {
            slider.setAttributeNS(null, "cy", (slider_maxY - slider_r));
            new_counter = edge_num;
        } else if(evt.pageY < (slider_minY + slider_r)) {
             slider.setAttributeNS(null, "cy", (slider_minY + slider_r));
            new_counter = 1;
        } else {
            slider.setAttributeNS(null, "cy", evt.pageY);
        }

        if (new_counter > counter) {
            var d = new_counter - counter;
            for (var i = 0; i < d; i++){
                hideSome();
            }
            counter = new_counter;
        }
        if (new_counter < counter) {
            var d = counter - new_counter;
            for (var i = 0; i < d; i++){
                showSome();
            }
            counter = new_counter;
        }
        setThreshold();
    }
    ]]></script><text id="score_indicator" style="font-size: 10px;font-weight: bold;" x="10" y="376">Score threshold: 0</text><text id="info" style="font-size: 10px;font-weight: bold;" x="10" y="391">Use slider or -/+ buttons to hide/show edges.</text></svg>