<?xml version="1.0" ?><!DOCTYPE svg  PUBLIC '-//W3C//DTD SVG 1.1//EN'  'http://www.w3.org/Graphics/SVG/1.1/DTD/svg11.dtd'><!-- Generated by graphviz version 2.28.0 (20110630.0925)
 --><!-- Title: _anonymous_0 Pages: 1 --><svg height="416pt" onload="init(evt)" width="626pt" xmlns="http://www.w3.org/2000/svg" xmlns:ismara="ismara.unibas.ch" xmlns:xlink="http://www.w3.org/1999/xlink">
<g class="graph" id="graph1" transform="scale(1 1) rotate(0) translate(54 362.449)">

<polygon fill="white" points="-4,5 -4,-362.449 473.449,-362.449 473.449,5 -4,5" stroke="white"/>
<!-- SIN3A_CHD1 -->
<g class="node" id="node1">
<a class="remove20" onmousemove="ShowTooltip(evt, 'Z-value: 1.751')" onmouseout="HideTooltip(evt)" xlink:href="SIN3A_CHD1.svg">
<polygon fill="#3247ff" points="376.699,-154.025 322.199,-154.025 310.199,-142.025 310.199,-130.025 322.199,-118.025 376.699,-118.025 388.699,-130.025 388.699,-142.025 376.699,-154.025" stroke="#3247ff" stroke-width="2"/>
<path d="M322.199,-154.025C316.199,-154.025 310.199,-148.025 310.199,-142.025" fill="#3247ff" stroke="#3247ff" stroke-width="2"/>
<path d="M310.199,-130.025C310.199,-124.025 316.199,-118.025 322.199,-118.025" fill="#3247ff" stroke="#3247ff" stroke-width="2"/>
<path d="M376.699,-118.025C382.699,-118.025 388.699,-124.025 388.699,-130.025" fill="#3247ff" stroke="#3247ff" stroke-width="2"/>
<path d="M388.699,-142.025C388.699,-148.025 382.699,-154.025 376.699,-154.025" fill="#3247ff" stroke="#3247ff" stroke-width="2"/>
<polyline fill="none" points="376.699,-154.025 322.199,-154.025 " stroke="white" stroke-width="2"/>
<path d="M322.199,-154.025C316.199,-154.025 310.199,-148.025 310.199,-142.025" fill="none" stroke="white" stroke-width="2"/>
<polyline fill="none" points="310.199,-142.025 310.199,-130.025 " stroke="white" stroke-width="2"/>
<path d="M310.199,-130.025C310.199,-124.025 316.199,-118.025 322.199,-118.025" fill="none" stroke="white" stroke-width="2"/>
<polyline fill="none" points="322.199,-118.025 376.699,-118.025 " stroke="white" stroke-width="2"/>
<path d="M376.699,-118.025C382.699,-118.025 388.699,-124.025 388.699,-130.025" fill="none" stroke="white" stroke-width="2"/>
<polyline fill="none" points="388.699,-130.025 388.699,-142.025 " stroke="white" stroke-width="2"/>
<path d="M388.699,-142.025C388.699,-148.025 382.699,-154.025 376.699,-154.025" fill="none" stroke="white" stroke-width="2"/>
<text fill="white" font-family="Helvetica,sans-Serif" font-size="10.00" text-anchor="middle" x="349.449" y="-133.525">SIN3A_CHD1</text>
</a>
</g>
<!-- SIN3A_CHD1&#45;&gt;SIN3A_CHD1 -->
<g class="edge" id="edge8">
<a class="remove5 root" ismara:data="0.054" onmousemove="ShowTooltip(evt, 'CHD1: 0.054')" onmouseout="HideTooltip(evt)">
<path d="M388.955,-142.705C399.214,-142.294 406.949,-140.068 406.949,-136.025 406.949,-133.182 403.125,-131.237 397.288,-130.19" fill="none" stroke="#ecc5ff" stroke-width="3"/>
<polygon fill="#ecc5ff" points="397.197,-127.367 388.955,-129.344 396.631,-132.938 397.197,-127.367" stroke="#ecc5ff"/>
</a>
</g>
<!-- FOXD1_FOXO1_FOXO6_FOXG1_FOXP1 -->
<g class="node" id="node2">
<a class="remove21" onmousemove="ShowTooltip(evt, 'Z-value: 0.656')" onmouseout="HideTooltip(evt)" xlink:href="FOXD1_FOXO1_FOXO6_FOXG1_FOXP1.svg">
<polygon fill="#929dff" points="438.449,-240.425 260.449,-240.425 248.449,-228.425 248.449,-216.425 260.449,-204.425 438.449,-204.425 450.449,-216.425 450.449,-228.425 438.449,-240.425" stroke="#929dff" stroke-width="2"/>
<path d="M260.449,-240.425C254.449,-240.425 248.449,-234.425 248.449,-228.425" fill="#929dff" stroke="#929dff" stroke-width="2"/>
<path d="M248.449,-216.425C248.449,-210.425 254.449,-204.425 260.449,-204.425" fill="#929dff" stroke="#929dff" stroke-width="2"/>
<path d="M438.449,-204.425C444.449,-204.425 450.449,-210.425 450.449,-216.425" fill="#929dff" stroke="#929dff" stroke-width="2"/>
<path d="M450.449,-228.425C450.449,-234.425 444.449,-240.425 438.449,-240.425" fill="#929dff" stroke="#929dff" stroke-width="2"/>
<polyline fill="none" points="438.449,-240.425 260.449,-240.425 " stroke="white" stroke-width="2"/>
<path d="M260.449,-240.425C254.449,-240.425 248.449,-234.425 248.449,-228.425" fill="none" stroke="white" stroke-width="2"/>
<polyline fill="none" points="248.449,-228.425 248.449,-216.425 " stroke="white" stroke-width="2"/>
<path d="M248.449,-216.425C248.449,-210.425 254.449,-204.425 260.449,-204.425" fill="none" stroke="white" stroke-width="2"/>
<polyline fill="none" points="260.449,-204.425 438.449,-204.425 " stroke="white" stroke-width="2"/>
<path d="M438.449,-204.425C444.449,-204.425 450.449,-210.425 450.449,-216.425" fill="none" stroke="white" stroke-width="2"/>
<polyline fill="none" points="450.449,-216.425 450.449,-228.425 " stroke="white" stroke-width="2"/>
<path d="M450.449,-228.425C450.449,-234.425 444.449,-240.425 438.449,-240.425" fill="none" stroke="white" stroke-width="2"/>
<text font-family="Helvetica,sans-Serif" font-size="10.00" text-anchor="middle" x="349.449" y="-219.925">FOXD1_FOXO1_FOXO6_FOXG1_FOXP1</text>
</a>
</g>
<!-- SIN3A_CHD1&#45;&gt;FOXD1_FOXO1_FOXO6_FOXG1_FOXP1 -->
<g class="edge" id="edge2">
<a class="remove13 root" ismara:data="0.205" onmousemove="ShowTooltip(evt, 'FOXG1: 0.205|FOXD1: 0.122|FOXP1: 0.057|CHD1: 0.008')" onmouseout="HideTooltip(evt)">
<path d="M350.449,-162.42C350.449,-173.158 350.449,-185.536 350.449,-196.251" fill="none" stroke="#e6b3ff" stroke-width="3"/>
<path d="M348.449,-162.42C348.449,-173.158 348.449,-185.536 348.449,-196.251" fill="none" stroke="#eecaff" stroke-width="3"/>
<polygon fill="#eecaff" points="352.249,-162.348 349.449,-154.348 346.649,-162.348 352.249,-162.348" stroke="#eecaff"/>
<polygon fill="#e6b3ff" points="346.649,-196.424 349.449,-204.424 352.249,-196.424 346.649,-196.424" stroke="#e6b3ff"/>
</a>
</g>
<!-- E2F2_E2F5 -->
<g class="node" id="node4">
<a class="remove22" onmousemove="ShowTooltip(evt, 'Z-value: 0.434')" onmouseout="HideTooltip(evt)" xlink:href="E2F2_E2F5.svg">
<polygon fill="#a6aeff" points="328.249,-315.249 284.249,-315.249 272.249,-303.249 272.249,-291.249 284.249,-279.249 328.249,-279.249 340.249,-291.249 340.249,-303.249 328.249,-315.249" stroke="#a6aeff" stroke-width="2"/>
<path d="M284.249,-315.249C278.249,-315.249 272.249,-309.249 272.249,-303.249" fill="#a6aeff" stroke="#a6aeff" stroke-width="2"/>
<path d="M272.249,-291.249C272.249,-285.249 278.249,-279.249 284.249,-279.249" fill="#a6aeff" stroke="#a6aeff" stroke-width="2"/>
<path d="M328.249,-279.249C334.249,-279.249 340.249,-285.249 340.249,-291.249" fill="#a6aeff" stroke="#a6aeff" stroke-width="2"/>
<path d="M340.249,-303.249C340.249,-309.249 334.249,-315.249 328.249,-315.249" fill="#a6aeff" stroke="#a6aeff" stroke-width="2"/>
<polyline fill="none" points="328.249,-315.249 284.249,-315.249 " stroke="white" stroke-width="2"/>
<path d="M284.249,-315.249C278.249,-315.249 272.249,-309.249 272.249,-303.249" fill="none" stroke="white" stroke-width="2"/>
<polyline fill="none" points="272.249,-303.249 272.249,-291.249 " stroke="white" stroke-width="2"/>
<path d="M272.249,-291.249C272.249,-285.249 278.249,-279.249 284.249,-279.249" fill="none" stroke="white" stroke-width="2"/>
<polyline fill="none" points="284.249,-279.249 328.249,-279.249 " stroke="white" stroke-width="2"/>
<path d="M328.249,-279.249C334.249,-279.249 340.249,-285.249 340.249,-291.249" fill="none" stroke="white" stroke-width="2"/>
<polyline fill="none" points="340.249,-291.249 340.249,-303.249 " stroke="white" stroke-width="2"/>
<path d="M340.249,-303.249C340.249,-309.249 334.249,-315.249 328.249,-315.249" fill="none" stroke="white" stroke-width="2"/>
<text font-family="Helvetica,sans-Serif" font-size="10.00" text-anchor="middle" x="306.249" y="-294.749">E2F2_E2F5</text>
</a>
</g>
<!-- SIN3A_CHD1&#45;&gt;E2F2_E2F5 -->
<g class="edge" id="edge4">
<a class="remove16 root" ismara:data="0.303" onmousemove="ShowTooltip(evt, 'E2F5: 0.303')" onmouseout="HideTooltip(evt)">
<path d="M310.115,-146.55C283.007,-156.082 248.973,-173.1 232.289,-201.545 222.899,-217.554 223.878,-226.76 232.289,-243.305 239.399,-257.29 252.024,-268.512 264.852,-277.02" fill="none" stroke="#e2a7ff" stroke-width="3"/>
<polygon fill="#e2a7ff" points="263.699,-279.602 271.967,-281.469 266.668,-274.853 263.699,-279.602" stroke="#e2a7ff"/>
</a>
</g>
<!-- GTF2I -->
<g class="node" id="node6">
<a class="remove23" onmousemove="ShowTooltip(evt, 'Z-value: 1.592')" onmouseout="HideTooltip(evt)" xlink:href="GTF2I.svg">
<polygon fill="#4053ff" points="246.425,-358.449 216.425,-358.449 204.425,-346.449 204.425,-334.449 216.425,-322.449 246.425,-322.449 258.425,-334.449 258.425,-346.449 246.425,-358.449" stroke="#4053ff" stroke-width="2"/>
<path d="M216.425,-358.449C210.425,-358.449 204.425,-352.449 204.425,-346.449" fill="#4053ff" stroke="#4053ff" stroke-width="2"/>
<path d="M204.425,-334.449C204.425,-328.449 210.425,-322.449 216.425,-322.449" fill="#4053ff" stroke="#4053ff" stroke-width="2"/>
<path d="M246.425,-322.449C252.425,-322.449 258.425,-328.449 258.425,-334.449" fill="#4053ff" stroke="#4053ff" stroke-width="2"/>
<path d="M258.425,-346.449C258.425,-352.449 252.425,-358.449 246.425,-358.449" fill="#4053ff" stroke="#4053ff" stroke-width="2"/>
<polyline fill="none" points="246.425,-358.449 216.425,-358.449 " stroke="white" stroke-width="2"/>
<path d="M216.425,-358.449C210.425,-358.449 204.425,-352.449 204.425,-346.449" fill="none" stroke="white" stroke-width="2"/>
<polyline fill="none" points="204.425,-346.449 204.425,-334.449 " stroke="white" stroke-width="2"/>
<path d="M204.425,-334.449C204.425,-328.449 210.425,-322.449 216.425,-322.449" fill="none" stroke="white" stroke-width="2"/>
<polyline fill="none" points="216.425,-322.449 246.425,-322.449 " stroke="white" stroke-width="2"/>
<path d="M246.425,-322.449C252.425,-322.449 258.425,-328.449 258.425,-334.449" fill="none" stroke="white" stroke-width="2"/>
<polyline fill="none" points="258.425,-334.449 258.425,-346.449 " stroke="white" stroke-width="2"/>
<path d="M258.425,-346.449C258.425,-352.449 252.425,-358.449 246.425,-358.449" fill="none" stroke="white" stroke-width="2"/>
<text fill="white" font-family="Helvetica,sans-Serif" font-size="10.00" text-anchor="middle" x="231.425" y="-337.949">GTF2I</text>
</a>
</g>
<!-- SIN3A_CHD1&#45;&gt;GTF2I -->
<g class="edge" id="edge6">
<a class="remove11 root" ismara:data="0.139" onmousemove="ShowTooltip(evt, 'GTF2I: 0.061|SIN3A: 0.139')" onmouseout="HideTooltip(evt)">
<path d="M302.751,-150.399C277.346,-160.294 247.976,-176.687 233.15,-202.053 212.765,-236.156 218.691,-284.804 225.247,-314.258" fill="none" stroke="#ecc4ff" stroke-width="3"/>
<path d="M302.025,-148.535C276.371,-158.548 247.001,-174.94 231.428,-201.036 210.78,-236.398 216.706,-285.046 223.294,-314.692" fill="none" stroke="#e9bbff" stroke-width="3"/>
<polygon fill="#e9bbff" points="303.641,-151.989 310.168,-146.581 301.693,-146.738 303.641,-151.989" stroke="#e9bbff"/>
<polygon fill="#ecc4ff" points="221.55,-315.137 226.12,-322.275 226.999,-313.845 221.55,-315.137" stroke="#ecc4ff"/>
</a>
</g>
<!-- MECP2 -->
<g class="node" id="node9">
<a class="remove29" onmousemove="ShowTooltip(evt, 'Z-value: 1.015')" onmouseout="HideTooltip(evt)" xlink:href="MECP2.svg">
<polygon fill="#ff7373" points="203.225,-197.225 173.225,-197.225 161.225,-185.225 161.225,-173.225 173.225,-161.225 203.225,-161.225 215.225,-173.225 215.225,-185.225 203.225,-197.225" stroke="#ff7373" stroke-width="2"/>
<path d="M173.225,-197.225C167.225,-197.225 161.225,-191.225 161.225,-185.225" fill="#ff7373" stroke="#ff7373" stroke-width="2"/>
<path d="M161.225,-173.225C161.225,-167.225 167.225,-161.225 173.225,-161.225" fill="#ff7373" stroke="#ff7373" stroke-width="2"/>
<path d="M203.225,-161.225C209.225,-161.225 215.225,-167.225 215.225,-173.225" fill="#ff7373" stroke="#ff7373" stroke-width="2"/>
<path d="M215.225,-185.225C215.225,-191.225 209.225,-197.225 203.225,-197.225" fill="#ff7373" stroke="#ff7373" stroke-width="2"/>
<polyline fill="none" points="203.225,-197.225 173.225,-197.225 " stroke="white" stroke-width="2"/>
<path d="M173.225,-197.225C167.225,-197.225 161.225,-191.225 161.225,-185.225" fill="none" stroke="white" stroke-width="2"/>
<polyline fill="none" points="161.225,-185.225 161.225,-173.225 " stroke="white" stroke-width="2"/>
<path d="M161.225,-173.225C161.225,-167.225 167.225,-161.225 173.225,-161.225" fill="none" stroke="white" stroke-width="2"/>
<polyline fill="none" points="173.225,-161.225 203.225,-161.225 " stroke="white" stroke-width="2"/>
<path d="M203.225,-161.225C209.225,-161.225 215.225,-167.225 215.225,-173.225" fill="none" stroke="white" stroke-width="2"/>
<polyline fill="none" points="215.225,-173.225 215.225,-185.225 " stroke="white" stroke-width="2"/>
<path d="M215.225,-185.225C215.225,-191.225 209.225,-197.225 203.225,-197.225" fill="none" stroke="white" stroke-width="2"/>
<text font-family="Helvetica,sans-Serif" font-size="10.00" text-anchor="middle" x="188.225" y="-176.725">MECP2</text>
</a>
</g>
<!-- SIN3A_CHD1&#45;&gt;MECP2 -->
<g class="edge" id="edge10">
<a class="remove20 root" ismara:data="0.379" onmousemove="ShowTooltip(evt, 'MECP2: 0.379|SIN3A: 0.042')" onmouseout="HideTooltip(evt)">
<path d="M302.517,-149.635C277.331,-156.384 246.855,-164.55 223.748,-170.741" fill="none" stroke="#9ea7ff" stroke-width="3"/>
<path d="M301.999,-147.704C276.813,-154.452 246.338,-162.618 223.231,-168.81" fill="none" stroke="#ffc6c6" stroke-width="3"/>
<polygon fill="#ffc6c6" points="303.007,-151.368 310.009,-146.593 301.557,-145.959 303.007,-151.368" stroke="#ffc6c6"/>
<polygon fill="#9ea7ff" points="222.647,-167.102 215.644,-171.878 224.096,-172.512 222.647,-167.102" stroke="#9ea7ff"/>
</a>
</g>
<!-- FOXA2_FOXJ3 -->
<g class="node" id="node11">
<a class="remove25" onmousemove="ShowTooltip(evt, 'Z-value: 0.626')" onmouseout="HideTooltip(evt)" xlink:href="FOXA2_FOXJ3.svg">
<polygon fill="#959fff" points="175.275,-358.449 114.775,-358.449 102.775,-346.449 102.775,-334.449 114.775,-322.449 175.275,-322.449 187.275,-334.449 187.275,-346.449 175.275,-358.449" stroke="#959fff" stroke-width="2"/>
<path d="M114.775,-358.449C108.775,-358.449 102.775,-352.449 102.775,-346.449" fill="#959fff" stroke="#959fff" stroke-width="2"/>
<path d="M102.775,-334.449C102.775,-328.449 108.775,-322.449 114.775,-322.449" fill="#959fff" stroke="#959fff" stroke-width="2"/>
<path d="M175.275,-322.449C181.275,-322.449 187.275,-328.449 187.275,-334.449" fill="#959fff" stroke="#959fff" stroke-width="2"/>
<path d="M187.275,-346.449C187.275,-352.449 181.275,-358.449 175.275,-358.449" fill="#959fff" stroke="#959fff" stroke-width="2"/>
<polyline fill="none" points="175.275,-358.449 114.775,-358.449 " stroke="white" stroke-width="2"/>
<path d="M114.775,-358.449C108.775,-358.449 102.775,-352.449 102.775,-346.449" fill="none" stroke="white" stroke-width="2"/>
<polyline fill="none" points="102.775,-346.449 102.775,-334.449 " stroke="white" stroke-width="2"/>
<path d="M102.775,-334.449C102.775,-328.449 108.775,-322.449 114.775,-322.449" fill="none" stroke="white" stroke-width="2"/>
<polyline fill="none" points="114.775,-322.449 175.275,-322.449 " stroke="white" stroke-width="2"/>
<path d="M175.275,-322.449C181.275,-322.449 187.275,-328.449 187.275,-334.449" fill="none" stroke="white" stroke-width="2"/>
<polyline fill="none" points="187.275,-334.449 187.275,-346.449 " stroke="white" stroke-width="2"/>
<path d="M187.275,-346.449C187.275,-352.449 181.275,-358.449 175.275,-358.449" fill="none" stroke="white" stroke-width="2"/>
<text font-family="Helvetica,sans-Serif" font-size="10.00" text-anchor="middle" x="145.025" y="-337.949">FOXA2_FOXJ3</text>
</a>
</g>
<!-- SIN3A_CHD1&#45;&gt;FOXA2_FOXJ3 -->
<g class="edge" id="edge12">
<a class="remove20" ismara:data="0.607" onmousemove="ShowTooltip(evt, 'FOXA2: 0.607')" onmouseout="HideTooltip(evt)">
<path d="M310.135,-151.953C285.735,-163.216 254.843,-180.113 232.289,-201.545 197.418,-234.68 170.574,-284.559 156.345,-314.662" fill="none" stroke="#d782ff" stroke-width="3"/>
<polygon fill="#d782ff" points="153.66,-313.797 152.836,-322.233 158.74,-316.152 153.66,-313.797" stroke="#d782ff"/>
</a>
</g>
<!-- RXRA_NR2F6_NR2C2 -->
<g class="node" id="node13">
<a class="remove19" onmousemove="ShowTooltip(evt, 'Z-value: 0.563')" onmouseout="HideTooltip(evt)" xlink:href="RXRA_NR2F6_NR2C2.svg">
<polygon fill="#9aa4ff" points="117.7,-315.249 22.7,-315.249 10.7,-303.249 10.7,-291.249 22.7,-279.249 117.7,-279.249 129.7,-291.249 129.7,-303.249 117.7,-315.249" stroke="#9aa4ff" stroke-width="2"/>
<path d="M22.7,-315.249C16.7,-315.249 10.7,-309.249 10.7,-303.249" fill="#9aa4ff" stroke="#9aa4ff" stroke-width="2"/>
<path d="M10.7,-291.249C10.7,-285.249 16.7,-279.249 22.7,-279.249" fill="#9aa4ff" stroke="#9aa4ff" stroke-width="2"/>
<path d="M117.7,-279.249C123.7,-279.249 129.7,-285.249 129.7,-291.249" fill="#9aa4ff" stroke="#9aa4ff" stroke-width="2"/>
<path d="M129.7,-303.249C129.7,-309.249 123.7,-315.249 117.7,-315.249" fill="#9aa4ff" stroke="#9aa4ff" stroke-width="2"/>
<polyline fill="none" points="117.7,-315.249 22.7,-315.249 " stroke="white" stroke-width="2"/>
<path d="M22.7,-315.249C16.7,-315.249 10.7,-309.249 10.7,-303.249" fill="none" stroke="white" stroke-width="2"/>
<polyline fill="none" points="10.7,-303.249 10.7,-291.249 " stroke="white" stroke-width="2"/>
<path d="M10.7,-291.249C10.7,-285.249 16.7,-279.249 22.7,-279.249" fill="none" stroke="white" stroke-width="2"/>
<polyline fill="none" points="22.7,-279.249 117.7,-279.249 " stroke="white" stroke-width="2"/>
<path d="M117.7,-279.249C123.7,-279.249 129.7,-285.249 129.7,-291.249" fill="none" stroke="white" stroke-width="2"/>
<polyline fill="none" points="129.7,-291.249 129.7,-303.249 " stroke="white" stroke-width="2"/>
<path d="M129.7,-303.249C129.7,-309.249 123.7,-315.249 117.7,-315.249" fill="none" stroke="white" stroke-width="2"/>
<text font-family="Helvetica,sans-Serif" font-size="10.00" text-anchor="middle" x="70.2" y="-294.749">RXRA_NR2F6_NR2C2</text>
</a>
</g>
<!-- SIN3A_CHD1&#45;&gt;RXRA_NR2F6_NR2C2 -->
<g class="edge" id="edge14">
<a class="remove19" ismara:data="1.263" onmousemove="ShowTooltip(evt, 'RXRA: 1.263|NR2C2: 0.352')" onmouseout="HideTooltip(evt)">
<path d="M316.759,-154.037C293.196,-167.087 260.678,-185.229 232.289,-201.545 189.221,-226.297 140.152,-255.397 107.392,-274.954" fill="none" stroke="#bd32ff" stroke-width="3"/>
<polygon fill="#bd32ff" points="105.681,-272.715 100.249,-279.222 108.553,-277.523 105.681,-272.715" stroke="#bd32ff"/>
</a>
</g>
<!-- FOXD1_FOXO1_FOXO6_FOXG1_FOXP1&#45;&gt;FOXD1_FOXO1_FOXO6_FOXG1_FOXP1 -->
<g class="edge" id="edge40">
<a class="remove15 root" ismara:data="0.292" onmousemove="ShowTooltip(evt, 'FOXP1: 0.292|FOXO1: 0.176')" onmouseout="HideTooltip(evt)">
<path d="M450.587,-228.061C461.457,-226.975 468.449,-225.096 468.449,-222.425 468.449,-220.504 464.837,-218.994 458.769,-217.893" fill="none" stroke="#e3a8ff" stroke-width="3"/>
<polygon fill="#e3a8ff" points="458.889,-215.084 450.587,-216.789 458.14,-220.633 458.889,-215.084" stroke="#e3a8ff"/>
</a>
</g>
<!-- FOXD1_FOXO1_FOXO6_FOXG1_FOXP1&#45;&gt;FOXA2_FOXJ3 -->
<g class="edge" id="edge44">
<a class="remove1 root" ismara:data="0.003" onmousemove="ShowTooltip(evt, 'FOXA2: 0.003')" onmouseout="HideTooltip(evt)">
<path d="M317.956,-240.607C281.686,-261.548 222.114,-295.941 183.228,-318.392" fill="none" stroke="#eecbff" stroke-width="3"/>
<polygon fill="#eecbff" points="181.746,-316.015 176.218,-322.44 184.546,-320.864 181.746,-316.015" stroke="#eecbff"/>
</a>
</g>
<!-- JUND -->
<g class="node" id="node23">
<a class="remove17" onmousemove="ShowTooltip(evt, 'Z-value: 0.652')" onmouseout="HideTooltip(evt)" xlink:href="JUND.svg">
<polygon fill="#939dff" points="160.025,-36 130.025,-36 118.025,-24 118.025,-12 130.025,-6.39488e-14 160.025,-6.39488e-14 172.025,-12 172.025,-24 160.025,-36" stroke="#939dff" stroke-width="2"/>
<path d="M130.025,-36C124.025,-36 118.025,-30 118.025,-24" fill="#939dff" stroke="#939dff" stroke-width="2"/>
<path d="M118.025,-12C118.025,-6 124.025,-6.39488e-14 130.025,-6.39488e-14" fill="#939dff" stroke="#939dff" stroke-width="2"/>
<path d="M160.025,-6.39488e-14C166.025,-6.39488e-14 172.025,-6 172.025,-12" fill="#939dff" stroke="#939dff" stroke-width="2"/>
<path d="M172.025,-24C172.025,-30 166.025,-36 160.025,-36" fill="#939dff" stroke="#939dff" stroke-width="2"/>
<polyline fill="none" points="160.025,-36 130.025,-36 " stroke="white" stroke-width="2"/>
<path d="M130.025,-36C124.025,-36 118.025,-30 118.025,-24" fill="none" stroke="white" stroke-width="2"/>
<polyline fill="none" points="118.025,-24 118.025,-12 " stroke="white" stroke-width="2"/>
<path d="M118.025,-12C118.025,-6 124.025,-6.39488e-14 130.025,-6.39488e-14" fill="none" stroke="white" stroke-width="2"/>
<polyline fill="none" points="130.025,-6.39488e-14 160.025,-6.39488e-14 " stroke="white" stroke-width="2"/>
<path d="M160.025,-6.39488e-14C166.025,-6.39488e-14 172.025,-6 172.025,-12" fill="none" stroke="white" stroke-width="2"/>
<polyline fill="none" points="172.025,-12 172.025,-24 " stroke="white" stroke-width="2"/>
<path d="M172.025,-24C172.025,-30 166.025,-36 160.025,-36" fill="none" stroke="white" stroke-width="2"/>
<text font-family="Helvetica,sans-Serif" font-size="10.00" text-anchor="middle" x="145.025" y="-15.5">JUND</text>
</a>
</g>
<!-- FOXD1_FOXO1_FOXO6_FOXG1_FOXP1&#45;&gt;JUND -->
<g class="edge" id="edge42">
<a class="remove7 root" ismara:data="0.081" onmousemove="ShowTooltip(evt, 'JUND: 0.081')" onmouseout="HideTooltip(evt)">
<path d="M331.308,-204.283C294.333,-167.309 210.265,-83.2404 168.907,-41.8821" fill="none" stroke="#ebc2ff" stroke-width="3"/>
<polygon fill="#ebc2ff" points="170.762,-39.7776 163.125,-36.1007 166.802,-43.7375 170.762,-39.7776" stroke="#ebc2ff"/>
</a>
</g>
<!-- E2F2_E2F5&#45;&gt;FOXA2_FOXJ3 -->
<g class="edge" id="edge48">
<a class="remove2 root" ismara:data="0.019" onmousemove="ShowTooltip(evt, 'FOXJ3: 0.019')" onmouseout="HideTooltip(evt)">
<path d="M271.976,-303.059C251.019,-306.956 223.779,-312.638 200.105,-319.569 198.559,-320.022 196.995,-320.498 195.42,-320.992" fill="none" stroke="#edc9ff" stroke-width="3"/>
<polygon fill="#edc9ff" points="194.224,-318.438 187.502,-323.601 195.976,-323.757 194.224,-318.438" stroke="#edc9ff"/>
</a>
</g>
<!-- GTF2I&#45;&gt;FOXD1_FOXO1_FOXO6_FOXG1_FOXP1 -->
<g class="edge" id="edge38">
<a class="remove9 root" ismara:data="0.123" onmousemove="ShowTooltip(evt, 'FOXP1: 0.123')" onmouseout="HideTooltip(evt)">
<path d="M238.54,-322.37C244.582,-308.636 254.269,-289.871 266.809,-276.369 278.129,-264.182 292.747,-253.481 306.534,-244.891" fill="none" stroke="#e9bdff" stroke-width="3"/>
<polygon fill="#e9bdff" points="308.247,-247.128 313.647,-240.595 305.351,-242.334 308.247,-247.128" stroke="#e9bdff"/>
</a>
</g>
<!-- MECP2&#45;&gt;FOXD1_FOXO1_FOXO6_FOXG1_FOXP1 -->
<g class="edge" id="edge16">
<a class="remove21 root" ismara:data="0.392" onmousemove="ShowTooltip(evt, 'FOXO6: 0.392|FOXO1: 0.090|FOXD1: 0.060|FOXP1: 0.053|FOXG1: 0.028')" onmouseout="HideTooltip(evt)">
<path d="M215.574,-186.553C231.746,-190.886 253.094,-196.606 273.979,-202.202" fill="none" stroke="#ff9c9c" stroke-width="3"/>
<polygon fill="#ff9c9c" points="273.497,-204.972 281.949,-204.338 274.947,-199.563 273.497,-204.972" stroke="#ff9c9c"/>
</a>
</g>
<!-- MECP2&#45;&gt;E2F2_E2F5 -->
<g class="edge" id="edge22">
<a class="remove22 root" ismara:data="0.405" onmousemove="ShowTooltip(evt, 'E2F2: 0.405')" onmouseout="HideTooltip(evt)">
<path d="M198.364,-197.285C206.486,-210.834 218.734,-229.367 232.289,-243.305 243.415,-254.744 257.191,-265.508 269.826,-274.367" fill="none" stroke="#ff9a9a" stroke-width="3"/>
<polygon fill="#ff9a9a" points="268.524,-276.869 276.705,-279.085 271.691,-272.251 268.524,-276.869" stroke="#ff9a9a"/>
</a>
</g>
<!-- MECP2&#45;&gt;GTF2I -->
<g class="edge" id="edge28">
<a class="remove23 root" ismara:data="0.417" onmousemove="ShowTooltip(evt, 'GTF2I: 0.025|MECP2: 0.417')" onmouseout="HideTooltip(evt)">
<path d="M196.154,-204.954C204.175,-234.89 217.282,-283.804 225.34,-313.877" fill="none" stroke="#ffc8c8" stroke-width="3"/>
<path d="M194.222,-205.471C202.244,-235.408 215.35,-284.322 223.408,-314.395" fill="none" stroke="#99a3ff" stroke-width="3"/>
<polygon fill="#99a3ff" points="197.871,-204.408 193.096,-197.406 192.462,-205.858 197.871,-204.408" stroke="#99a3ff"/>
<polygon fill="#ffc8c8" points="221.729,-315.084 226.505,-322.087 227.138,-313.635 221.729,-315.084" stroke="#ffc8c8"/>
</a>
</g>
<!-- MECP2&#45;&gt;FOXA2_FOXJ3 -->
<g class="edge" id="edge32">
<a class="remove25 root" ismara:data="0.564" onmousemove="ShowTooltip(evt, 'FOXJ3: 0.564')" onmouseout="HideTooltip(evt)">
<path d="M183.353,-197.406C175.704,-225.951 160.845,-281.407 152.044,-314.254" fill="none" stroke="#ff8787" stroke-width="3"/>
<polygon fill="#ff8787" points="149.311,-313.635 149.945,-322.087 154.72,-315.084 149.311,-313.635" stroke="#ff8787"/>
</a>
</g>
<!-- MECP2&#45;&gt;RXRA_NR2F6_NR2C2 -->
<g class="edge" id="edge34">
<a class="remove19 root" ismara:data="0.356" onmousemove="ShowTooltip(evt, 'NR2F6: 0.356|NR2C2: 0.158|RXRA: 0.060')" onmouseout="HideTooltip(evt)">
<path d="M170.042,-197.407C149.623,-217.826 116.412,-251.037 93.9555,-273.494" fill="none" stroke="#ffa0a0" stroke-width="3"/>
<polygon fill="#ffa0a0" points="91.8866,-271.603 88.2097,-279.24 95.8465,-275.563 91.8866,-271.603" stroke="#ffa0a0"/>
</a>
</g>
<!-- TCF7L1 -->
<g class="node" id="node16">
<a class="remove27" onmousemove="ShowTooltip(evt, 'Z-value: 0.609')" onmouseout="HideTooltip(evt)" xlink:href="TCF7L1.svg">
<polygon fill="#96a1ff" points="42,-240.425 12,-240.425 3.19744e-14,-228.425 3.19744e-14,-216.425 12,-204.425 42,-204.425 54,-216.425 54,-228.425 42,-240.425" stroke="#96a1ff" stroke-width="2"/>
<path d="M12,-240.425C6,-240.425 3.19744e-14,-234.425 3.19744e-14,-228.425" fill="#96a1ff" stroke="#96a1ff" stroke-width="2"/>
<path d="M3.19744e-14,-216.425C3.19744e-14,-210.425 6,-204.425 12,-204.425" fill="#96a1ff" stroke="#96a1ff" stroke-width="2"/>
<path d="M42,-204.425C48,-204.425 54,-210.425 54,-216.425" fill="#96a1ff" stroke="#96a1ff" stroke-width="2"/>
<path d="M54,-228.425C54,-234.425 48,-240.425 42,-240.425" fill="#96a1ff" stroke="#96a1ff" stroke-width="2"/>
<polyline fill="none" points="42,-240.425 12,-240.425 " stroke="white" stroke-width="2"/>
<path d="M12,-240.425C6,-240.425 3.19744e-14,-234.425 3.19744e-14,-228.425" fill="none" stroke="white" stroke-width="2"/>
<polyline fill="none" points="3.19744e-14,-228.425 3.19744e-14,-216.425 " stroke="white" stroke-width="2"/>
<path d="M3.19744e-14,-216.425C3.19744e-14,-210.425 6,-204.425 12,-204.425" fill="none" stroke="white" stroke-width="2"/>
<polyline fill="none" points="12,-204.425 42,-204.425 " stroke="white" stroke-width="2"/>
<path d="M42,-204.425C48,-204.425 54,-210.425 54,-216.425" fill="none" stroke="white" stroke-width="2"/>
<polyline fill="none" points="54,-216.425 54,-228.425 " stroke="white" stroke-width="2"/>
<path d="M54,-228.425C54,-234.425 48,-240.425 42,-240.425" fill="none" stroke="white" stroke-width="2"/>
<text font-family="Helvetica,sans-Serif" font-size="10.00" text-anchor="middle" x="27" y="-219.925">TCF7L1</text>
</a>
</g>
<!-- MECP2&#45;&gt;TCF7L1 -->
<g class="edge" id="edge18">
<a class="remove27 root" ismara:data="0.739" onmousemove="ShowTooltip(evt, 'TCF7L1: 0.739')" onmouseout="HideTooltip(evt)">
<path d="M160.875,-186.553C133.694,-193.836 91.8881,-205.038 62.2338,-212.984" fill="none" stroke="#ff7272" stroke-width="3"/>
<polygon fill="#ff7272" points="61.2169,-210.357 54.2142,-215.133 62.6663,-215.767 61.2169,-210.357" stroke="#ff7272"/>
</a>
</g>
<!-- GRHL1 -->
<g class="node" id="node18">
<a class="remove24" onmousemove="ShowTooltip(evt, 'Z-value: 0.930')" onmouseout="HideTooltip(evt)" xlink:href="GRHL1.svg">
<polygon fill="#7a87ff" points="42,-154.025 12,-154.025 0,-142.025 0,-130.025 12,-118.025 42,-118.025 54,-130.025 54,-142.025 42,-154.025" stroke="#7a87ff" stroke-width="2"/>
<path d="M12,-154.025C6,-154.025 0,-148.025 0,-142.025" fill="#7a87ff" stroke="#7a87ff" stroke-width="2"/>
<path d="M0,-130.025C0,-124.025 6,-118.025 12,-118.025" fill="#7a87ff" stroke="#7a87ff" stroke-width="2"/>
<path d="M42,-118.025C48,-118.025 54,-124.025 54,-130.025" fill="#7a87ff" stroke="#7a87ff" stroke-width="2"/>
<path d="M54,-142.025C54,-148.025 48,-154.025 42,-154.025" fill="#7a87ff" stroke="#7a87ff" stroke-width="2"/>
<polyline fill="none" points="42,-154.025 12,-154.025 " stroke="white" stroke-width="2"/>
<path d="M12,-154.025C6,-154.025 0,-148.025 0,-142.025" fill="none" stroke="white" stroke-width="2"/>
<polyline fill="none" points="0,-142.025 0,-130.025 " stroke="white" stroke-width="2"/>
<path d="M0,-130.025C0,-124.025 6,-118.025 12,-118.025" fill="none" stroke="white" stroke-width="2"/>
<polyline fill="none" points="12,-118.025 42,-118.025 " stroke="white" stroke-width="2"/>
<path d="M42,-118.025C48,-118.025 54,-124.025 54,-130.025" fill="none" stroke="white" stroke-width="2"/>
<polyline fill="none" points="54,-130.025 54,-142.025 " stroke="white" stroke-width="2"/>
<path d="M54,-142.025C54,-148.025 48,-154.025 42,-154.025" fill="none" stroke="white" stroke-width="2"/>
<text font-family="Helvetica,sans-Serif" font-size="10.00" text-anchor="middle" x="27" y="-133.525">GRHL1</text>
</a>
</g>
<!-- MECP2&#45;&gt;GRHL1 -->
<g class="edge" id="edge20">
<a class="remove24 root" ismara:data="0.552" onmousemove="ShowTooltip(evt, 'GRHL1: 0.552')" onmouseout="HideTooltip(evt)">
<path d="M160.875,-171.896C133.694,-164.613 91.8881,-153.411 62.2338,-145.465" fill="none" stroke="#ff8989" stroke-width="3"/>
<polygon fill="#ff8989" points="62.6663,-142.683 54.2142,-143.317 61.2169,-148.092 62.6663,-142.683" stroke="#ff8989"/>
</a>
</g>
<!-- MBD2 -->
<g class="node" id="node21">
<a class="remove26" onmousemove="ShowTooltip(evt, 'Z-value: 0.615')" onmouseout="HideTooltip(evt)" xlink:href="MBD2.svg">
<polygon fill="#96a0ff" points="85.2,-79.2 55.2,-79.2 43.2,-67.2 43.2,-55.2 55.2,-43.2 85.2,-43.2 97.2,-55.2 97.2,-67.2 85.2,-79.2" stroke="#96a0ff" stroke-width="2"/>
<path d="M55.2,-79.2C49.2,-79.2 43.2,-73.2 43.2,-67.2" fill="#96a0ff" stroke="#96a0ff" stroke-width="2"/>
<path d="M43.2,-55.2C43.2,-49.2 49.2,-43.2 55.2,-43.2" fill="#96a0ff" stroke="#96a0ff" stroke-width="2"/>
<path d="M85.2,-43.2C91.2,-43.2 97.2,-49.2 97.2,-55.2" fill="#96a0ff" stroke="#96a0ff" stroke-width="2"/>
<path d="M97.2,-67.2C97.2,-73.2 91.2,-79.2 85.2,-79.2" fill="#96a0ff" stroke="#96a0ff" stroke-width="2"/>
<polyline fill="none" points="85.2,-79.2 55.2,-79.2 " stroke="white" stroke-width="2"/>
<path d="M55.2,-79.2C49.2,-79.2 43.2,-73.2 43.2,-67.2" fill="none" stroke="white" stroke-width="2"/>
<polyline fill="none" points="43.2,-67.2 43.2,-55.2 " stroke="white" stroke-width="2"/>
<path d="M43.2,-55.2C43.2,-49.2 49.2,-43.2 55.2,-43.2" fill="none" stroke="white" stroke-width="2"/>
<polyline fill="none" points="55.2,-43.2 85.2,-43.2 " stroke="white" stroke-width="2"/>
<path d="M85.2,-43.2C91.2,-43.2 97.2,-49.2 97.2,-55.2" fill="none" stroke="white" stroke-width="2"/>
<polyline fill="none" points="97.2,-55.2 97.2,-67.2 " stroke="white" stroke-width="2"/>
<path d="M97.2,-67.2C97.2,-73.2 91.2,-79.2 85.2,-79.2" fill="none" stroke="white" stroke-width="2"/>
<text font-family="Helvetica,sans-Serif" font-size="10.00" text-anchor="middle" x="70.2" y="-58.7">MBD2</text>
</a>
</g>
<!-- MECP2&#45;&gt;MBD2 -->
<g class="edge" id="edge24">
<a class="remove26 root" ismara:data="0.626" onmousemove="ShowTooltip(evt, 'MBD2: 0.626')" onmouseout="HideTooltip(evt)">
<path d="M170.042,-161.042C149.623,-140.623 116.412,-107.412 93.9555,-84.9555" fill="none" stroke="#ff8080" stroke-width="3"/>
<polygon fill="#ff8080" points="95.8465,-82.8866 88.2097,-79.2097 91.8866,-86.8465 95.8465,-82.8866" stroke="#ff8080"/>
</a>
</g>
<!-- MECP2&#45;&gt;JUND -->
<g class="edge" id="edge26">
<a class="remove17 root" ismara:data="0.333" onmousemove="ShowTooltip(evt, 'JUND: 0.333')" onmouseout="HideTooltip(evt)">
<path d="M183.353,-161.043C175.704,-132.498 160.845,-77.042 152.044,-44.1955" fill="none" stroke="#ffa3a3" stroke-width="3"/>
<polygon fill="#ffa3a3" points="154.72,-43.3647 149.945,-36.362 149.311,-44.8142 154.72,-43.3647" stroke="#ffa3a3"/>
</a>
</g>
<!-- AHR_ARNT2 -->
<g class="node" id="node26">
<a class="remove18" onmousemove="ShowTooltip(evt, 'Z-value: 1.019')" onmouseout="HideTooltip(evt)" xlink:href="AHR_ARNT2.svg">
<polygon fill="#7280ff" points="257.675,-36 205.175,-36 193.175,-24 193.175,-12 205.175,-0 257.675,-0 269.675,-12 269.675,-24 257.675,-36" stroke="#7280ff" stroke-width="2"/>
<path d="M205.175,-36C199.175,-36 193.175,-30 193.175,-24" fill="#7280ff" stroke="#7280ff" stroke-width="2"/>
<path d="M193.175,-12C193.175,-6 199.175,-0 205.175,-0" fill="#7280ff" stroke="#7280ff" stroke-width="2"/>
<path d="M257.675,-0C263.675,-0 269.675,-6 269.675,-12" fill="#7280ff" stroke="#7280ff" stroke-width="2"/>
<path d="M269.675,-24C269.675,-30 263.675,-36 257.675,-36" fill="#7280ff" stroke="#7280ff" stroke-width="2"/>
<polyline fill="none" points="257.675,-36 205.175,-36 " stroke="white" stroke-width="2"/>
<path d="M205.175,-36C199.175,-36 193.175,-30 193.175,-24" fill="none" stroke="white" stroke-width="2"/>
<polyline fill="none" points="193.175,-24 193.175,-12 " stroke="white" stroke-width="2"/>
<path d="M193.175,-12C193.175,-6 199.175,-0 205.175,-0" fill="none" stroke="white" stroke-width="2"/>
<polyline fill="none" points="205.175,-0 257.675,-0 " stroke="white" stroke-width="2"/>
<path d="M257.675,-0C263.675,-0 269.675,-6 269.675,-12" fill="none" stroke="white" stroke-width="2"/>
<polyline fill="none" points="269.675,-12 269.675,-24 " stroke="white" stroke-width="2"/>
<path d="M269.675,-24C269.675,-30 263.675,-36 257.675,-36" fill="none" stroke="white" stroke-width="2"/>
<text font-family="Helvetica,sans-Serif" font-size="10.00" text-anchor="middle" x="231.425" y="-15.5">AHR_ARNT2</text>
</a>
</g>
<!-- MECP2&#45;&gt;AHR_ARNT2 -->
<g class="edge" id="edge30">
<a class="remove18 root" ismara:data="0.349" onmousemove="ShowTooltip(evt, 'ARNT2: 0.349')" onmouseout="HideTooltip(evt)">
<path d="M193.096,-161.043C200.745,-132.498 215.604,-77.042 224.406,-44.1955" fill="none" stroke="#ffa1a1" stroke-width="3"/>
<polygon fill="#ffa1a1" points="227.138,-44.8142 226.505,-36.362 221.729,-43.3647 227.138,-44.8142" stroke="#ffa1a1"/>
</a>
</g>
<!-- EPAS1_BCL3 -->
<g class="node" id="node30">
<a class="remove28" onmousemove="ShowTooltip(evt, 'Z-value: 0.784')" onmouseout="HideTooltip(evt)" xlink:href="EPAS1_BCL3.svg">
<polygon fill="#8793ff" points="333.499,-79.2 278.999,-79.2 266.999,-67.2 266.999,-55.2 278.999,-43.2 333.499,-43.2 345.499,-55.2 345.499,-67.2 333.499,-79.2" stroke="#8793ff" stroke-width="2"/>
<path d="M278.999,-79.2C272.999,-79.2 266.999,-73.2 266.999,-67.2" fill="#8793ff" stroke="#8793ff" stroke-width="2"/>
<path d="M266.999,-55.2C266.999,-49.2 272.999,-43.2 278.999,-43.2" fill="#8793ff" stroke="#8793ff" stroke-width="2"/>
<path d="M333.499,-43.2C339.499,-43.2 345.499,-49.2 345.499,-55.2" fill="#8793ff" stroke="#8793ff" stroke-width="2"/>
<path d="M345.499,-67.2C345.499,-73.2 339.499,-79.2 333.499,-79.2" fill="#8793ff" stroke="#8793ff" stroke-width="2"/>
<polyline fill="none" points="333.499,-79.2 278.999,-79.2 " stroke="white" stroke-width="2"/>
<path d="M278.999,-79.2C272.999,-79.2 266.999,-73.2 266.999,-67.2" fill="none" stroke="white" stroke-width="2"/>
<polyline fill="none" points="266.999,-67.2 266.999,-55.2 " stroke="white" stroke-width="2"/>
<path d="M266.999,-55.2C266.999,-49.2 272.999,-43.2 278.999,-43.2" fill="none" stroke="white" stroke-width="2"/>
<polyline fill="none" points="278.999,-43.2 333.499,-43.2 " stroke="white" stroke-width="2"/>
<path d="M333.499,-43.2C339.499,-43.2 345.499,-49.2 345.499,-55.2" fill="none" stroke="white" stroke-width="2"/>
<polyline fill="none" points="345.499,-55.2 345.499,-67.2 " stroke="white" stroke-width="2"/>
<path d="M345.499,-67.2C345.499,-73.2 339.499,-79.2 333.499,-79.2" fill="none" stroke="white" stroke-width="2"/>
<text font-family="Helvetica,sans-Serif" font-size="10.00" text-anchor="middle" x="306.249" y="-58.7">EPAS1_BCL3</text>
</a>
</g>
<!-- MECP2&#45;&gt;EPAS1_BCL3 -->
<g class="edge" id="edge36">
<a class="remove28 root" ismara:data="0.781" onmousemove="ShowTooltip(evt, 'BCL3: 0.781|EPAS1: 0.037')" onmouseout="HideTooltip(evt)">
<path d="M206.407,-161.042C226.826,-140.623 260.037,-107.412 282.494,-84.9555" fill="none" stroke="#ff6d6d" stroke-width="3"/>
<polygon fill="#ff6d6d" points="284.563,-86.8465 288.24,-79.2097 280.603,-82.8866 284.563,-86.8465" stroke="#ff6d6d"/>
</a>
</g>
<!-- RXRA_NR2F6_NR2C2&#45;&gt;RXRA_NR2F6_NR2C2 -->
<g class="edge" id="edge46">
<a class="remove6 root" ismara:data="0.058" onmousemove="ShowTooltip(evt, 'NR2F6: 0.058|NR2C2: 0.022')" onmouseout="HideTooltip(evt)">
<path d="M129.928,-303.551C140.131,-302.689 147.2,-300.589 147.2,-297.249 147.2,-294.901 143.705,-293.165 138.083,-292.042" fill="none" stroke="#ecc5ff" stroke-width="3"/>
<polygon fill="#ecc5ff" points="138.229,-289.237 129.928,-290.948 137.484,-294.787 138.229,-289.237" stroke="#ecc5ff"/>
</a>
</g>
<!-- TCF7L1&#45;&gt;AHR_ARNT2 -->
<g class="edge" id="edge66">
<a class="remove12 root" ismara:data="0.175" onmousemove="ShowTooltip(evt, 'ARNT2: 0.175')" onmouseout="HideTooltip(evt)">
<path d="M45.1413,-204.283C82.116,-167.309 166.184,-83.2404 207.542,-41.8821" fill="none" stroke="#e7b6ff" stroke-width="3"/>
<polygon fill="#e7b6ff" points="209.647,-43.7375 213.324,-36.1007 205.687,-39.7776 209.647,-43.7375" stroke="#e7b6ff"/>
</a>
</g>
<!-- GRHL1&#45;&gt;RXRA_NR2F6_NR2C2 -->
<g class="edge" id="edge64">
<a class="remove19" ismara:data="0.939" onmousemove="ShowTooltip(evt, 'NR2F6: 0.939')" onmouseout="HideTooltip(evt)">
<path d="M37.5618,-154.032C44.5871,-166.854 53.3977,-184.725 58.32,-201.545 64.9972,-224.361 67.9221,-251.309 69.203,-270.786" fill="none" stroke="#ca5aff" stroke-width="3"/>
<polygon fill="#ca5aff" points="66.4151,-271.079 69.6705,-278.905 72.0059,-270.757 66.4151,-271.079" stroke="#ca5aff"/>
</a>
</g>
<!-- MBD2&#45;&gt;RXRA_NR2F6_NR2C2 -->
<g class="edge" id="edge62">
<a class="remove3 root" ismara:data="0.034" onmousemove="ShowTooltip(evt, 'NR2C2: 0.034')" onmouseout="HideTooltip(evt)">
<path d="M70.2,-79.3304C70.2,-120.78 70.2,-222.609 70.2,-270.952" fill="none" stroke="#edc7ff" stroke-width="3"/>
<polygon fill="#edc7ff" points="67.4001,-271.057 70.2,-279.057 73.0001,-271.057 67.4001,-271.057" stroke="#edc7ff"/>
</a>
</g>
<!-- MBD2&#45;&gt;GRHL1 -->
<g class="edge" id="edge60">
<a class="remove0 root" ismara:data="0.0" onmousemove="ShowTooltip(evt, 'GRHL1: 0.000')" onmouseout="HideTooltip(evt)">
<path d="M59.7425,-79.3129C54.3171,-88.7099 47.6003,-100.344 41.665,-110.624" fill="none" stroke="#eecbff" stroke-width="3"/>
<polygon fill="#eecbff" points="39.0861,-109.491 37.5109,-117.819 43.9359,-112.291 39.0861,-109.491" stroke="#eecbff"/>
</a>
</g>
<!-- AHR_ARNT2&#45;&gt;SIN3A_CHD1 -->
<g class="edge" id="edge56">
<a class="remove8 root" ismara:data="0.085" onmousemove="ShowTooltip(evt, 'SIN3A: 0.085')" onmouseout="HideTooltip(evt)">
<path d="M236.428,-36.2229C240.936,-50.0341 248.68,-68.8325 260.429,-82.08 272.073,-95.2092 287.693,-106.14 302.596,-114.651" fill="none" stroke="#ebc1ff" stroke-width="3"/>
<polygon fill="#ebc1ff" points="301.475,-117.23 309.834,-118.634 304.175,-112.324 301.475,-117.23" stroke="#ebc1ff"/>
</a>
</g>
<!-- AHR_ARNT2&#45;&gt;FOXD1_FOXO1_FOXO6_FOXG1_FOXP1 -->
<g class="edge" id="edge50">
<a class="remove18" ismara:data="0.463" onmousemove="ShowTooltip(evt, 'FOXP1: 0.463')" onmouseout="HideTooltip(evt)">
<path d="M239.084,-36.1794C244.678,-49.1325 252.621,-66.8712 260.429,-82.08 277.968,-116.241 283.006,-124.512 303.629,-156.905 312.353,-170.608 322.677,-185.475 331.314,-197.578" fill="none" stroke="#dc93ff" stroke-width="3"/>
<polygon fill="#dc93ff" points="329.24,-199.49 336.18,-204.355 333.789,-196.224 329.24,-199.49" stroke="#dc93ff"/>
</a>
</g>
<!-- AHR_ARNT2&#45;&gt;GTF2I -->
<g class="edge" id="edge54">
<a class="remove4 root" ismara:data="0.035" onmousemove="ShowTooltip(evt, 'GTF2I: 0.035')" onmouseout="HideTooltip(evt)">
<path d="M231.425,-36.2601C231.425,-90.4652 231.425,-250.61 231.425,-314.094" fill="none" stroke="#edc7ff" stroke-width="3"/>
<polygon fill="#edc7ff" points="228.625,-314.389 231.425,-322.389 234.225,-314.389 228.625,-314.389" stroke="#edc7ff"/>
</a>
</g>
<!-- AHR_ARNT2&#45;&gt;RXRA_NR2F6_NR2C2 -->
<g class="edge" id="edge58">
<a class="remove14 root" ismara:data="0.233" onmousemove="ShowTooltip(evt, 'NR2F6: 0.233')" onmouseout="HideTooltip(evt)">
<path d="M220.846,-36.3223C192.821,-84.8626 116.625,-216.84 84.6401,-272.238" fill="none" stroke="#e5afff" stroke-width="3"/>
<polygon fill="#e5afff" points="82.1829,-270.894 80.6078,-279.222 87.0327,-273.694 82.1829,-270.894" stroke="#e5afff"/>
</a>
</g>
<!-- AHR_ARNT2&#45;&gt;MBD2 -->
<g class="edge" id="edge52">
<a class="remove10 root" ismara:data="0.128" onmousemove="ShowTooltip(evt, 'MBD2: 0.128')" onmouseout="HideTooltip(evt)">
<path d="M193.162,-33.3734C187.568,-35.3667 181.841,-37.2709 176.345,-38.88 153.051,-45.6995 126.306,-51.3099 105.491,-55.2001" fill="none" stroke="#e9bcff" stroke-width="3"/>
<polygon fill="#e9bcff" points="104.901,-52.4615 97.5363,-56.6572 105.91,-57.9698 104.901,-52.4615" stroke="#e9bcff"/>
</a>
</g>
</g>
<rect height="14" id="tooltip_bg" style="fill: white; stroke: black; opacity: 0.8;" visibility="hidden"/><text id="tooltip" style="font-size: 10px;font-weight: bold;" visibility="hidden"></text><g id="plus" onclick="showSome();moveSlider();setThreshold();"><circle cx="22" cy="22" r="10" style="fill: #dddddd; opacity: 100%;"/><line stroke="#888888" stroke-width="2" x1="16" x2="28" y1="22" y2="22"/><line stroke="#888888" stroke-width="2" x1="22" x2="22" y1="16" y2="28"/></g><g id="minus" onclick="hideSome();moveSlider();setThreshold();"><circle cx="22" cy="344" r="10" style="fill: #dddddd; opacity: 100%;"/><line stroke="#888888" stroke-width="2" x1="16" x2="28" y1="344" y2="344"/></g><line id="slider_scale" onmousedown="jump_slider(evt)" stroke="#888888" stroke-width="5" x1="22" x2="22" y1="40" y2="326"/><circle cx="22" cy="50" id="slider" onmousedown="grab(evt)" onmouseout="release(evt)" onmouseup="release(evt)" r="15" style="fill:#922"/><script type="text/ecmascript"><![CDATA[
    var svgNS = "http://www.w3.org/2000/svg";
    var edge_num = 29;
    var counter = 0;
    var tooltip, tooltip_bg;

    function init(evt) {
        if ( window.svgDocument == null ) {
            svgDocument = evt.target.ownerDocument;
        }
        tooltip = svgDocument.getElementById('tooltip');
        tooltip_bg = svgDocument.getElementById('tooltip_bg');
        setThreshold();
    }

    function ShowTooltip(evt, txt) {
        var length = 0;
        var height;
        var tooltip_x = evt.pageX + 18;
        var tooltip_y = evt.pageY + 22;
        var bg_x = evt.pageX + 10;
        var bg_y = evt.pageY + 10;

        /* Clean toolip content */
        while (tooltip.lastChild) {
            tooltip.removeChild(tooltip.lastChild)
        }

        /* Populate tooltip with tspan elements and get longest of them */
        var text_elements = txt.split('|');
        for (var i = 0; i  < text_elements.length; i++) {
            var shift_y = 12;
            if (i == 0) {
                shift_y = 0;
            }
            var tspan_element = document.createElementNS(svgNS, "tspan");
            tspan_element.setAttributeNS(null, "dy", shift_y);
            tspan_element.setAttributeNS(null, "x", tooltip_x);
            var text_node = svgDocument.createTextNode(text_elements[i]);
            tspan_element.appendChild(text_node);
            tooltip.appendChild(tspan_element);
            var tspan_length = tspan_element.getComputedTextLength();
            if (tspan_length > length) {
                length = tspan_length
            }
        }
        /* add right margin to tooltip */
        length = length + 15;
        height = 12 * text_elements.length + 5;
        tooltip_bg.setAttributeNS(null,"width",length);
        tooltip_bg.setAttributeNS(null,"height",height);
        tooltip_bg.setAttributeNS(null,"x", bg_x);
        tooltip_bg.setAttributeNS(null,"y", bg_y);
        tooltip_bg.setAttributeNS(null,"visibility","visible");
        tooltip.setAttributeNS(null,"x", tooltip_x);
        tooltip.setAttributeNS(null,"y", tooltip_y);
        tooltip.setAttributeNS(null,"visibility","visible");
    }
    function HideTooltip() {
      tooltip.setAttributeNS(null,"visibility","hidden");
      tooltip_bg.setAttributeNS(null,"visibility","hidden");
    }

    /*** Hide/Show edges functions ***/

    function hideSome() {
      if (counter >= edge_num -1) {
        return 1;
      }
      var elements = svgDocument.getElementsByClassName('remove' + counter);
      for (var i = 0; i < elements.length; i++) {
        elements[i].setAttributeNS(null,"visibility","hidden");
      }
      counter = counter + 1;
    }

    function showSome() {
      if (counter <= 0) {
        return 1;
      }
      counter = counter - 1;
      var elements = svgDocument.getElementsByClassName('remove' + counter);
      for (var i = 0; i < elements.length; i++) {
        elements[i].setAttributeNS(null,"visibility","visible");
      }
    }

    function setThreshold() {
        var elements = svgDocument.getElementsByClassName('remove' + counter);
        var score = 0;
        for (var i = 0; i < elements.length; i++) {
            if (elements[i].classList.contains("root")){
                if (elements[i].hasAttributeNS("ismara.unibas.ch", "data")) {
                    score = elements[i].getAttributeNS("ismara.unibas.ch", "data");
                }
            } 
        }
        svgDocument.getElementById("score_indicator").textContent = "Score threshold: " + score;
    }

    /*** Slider functions ***/

    var slider_maxY = parseInt(document.getElementById("slider_scale").getAttributeNS(null, "y2"));
    var slider_minY = parseInt(document.getElementById("slider_scale").getAttributeNS(null, "y1"));
    var slider_r = parseInt(document.getElementById("slider").getAttributeNS(null, "r"));
    var coef = (edge_num - 1) / (slider_maxY - slider_minY - 2 * slider_r);

    function grab(evt){
        var element = evt.target;
        var Attr = {"onmousemove":"slide(evt,'"+element.id+"')"};
        assignAttr(element, Attr);
    }

    function release(evt){
        var element = evt.target;
        var Attr = {"onmousemove":null};
        assignAttr(element, Attr);
    }

    function assignAttr(obj,attr){
        for (i in attr) obj.setAttributeNS(null,i, attr[i]);
    }

    function slide(evt,id){
        var slider = evt.target;
        var y = evt.pageY;
        var new_counter = Math.floor((evt.pageY - slider_minY - slider_r) * coef);
        if (evt.pageY > (slider_maxY - slider_r)) {
            slider.setAttributeNS(null, "cy", (slider_maxY - slider_r));
            new_counter = edge_num;
        } else if(evt.pageY < (slider_minY + slider_r)) {
            slider.setAttributeNS(null, "cy", (slider_minY + slider_r));
            new_counter = 1;
        } else {
            slider.setAttributeNS(null, "cy", evt.pageY);
        }

        if (new_counter < counter) {
                showSome();
            counter = new_counter;
        }
        if (new_counter > counter) {
                hideSome();
            counter = new_counter;
        }
        setThreshold();
    }

    function moveSlider() {
        circle = document.getElementById("slider");
        circle.setAttributeNS(null, "cy",  slider_minY +  slider_r + (counter) / coef);
    }

    function jump_slider(evt) {
        var slider = document.getElementById("slider");
        var new_counter = Math.floor((evt.pageY - slider_minY - slider_r) * coef);
        if (evt.pageY > (slider_maxY - slider_r)) {
            slider.setAttributeNS(null, "cy", (slider_maxY - slider_r));
            new_counter = edge_num;
        } else if(evt.pageY < (slider_minY + slider_r)) {
             slider.setAttributeNS(null, "cy", (slider_minY + slider_r));
            new_counter = 1;
        } else {
            slider.setAttributeNS(null, "cy", evt.pageY);
        }

        if (new_counter > counter) {
            var d = new_counter - counter;
            for (var i = 0; i < d; i++){
                hideSome();
            }
            counter = new_counter;
        }
        if (new_counter < counter) {
            var d = counter - new_counter;
            for (var i = 0; i < d; i++){
                showSome();
            }
            counter = new_counter;
        }
        setThreshold();
    }
    ]]></script><text id="score_indicator" style="font-size: 10px;font-weight: bold;" x="10" y="376">Score threshold: 0</text><text id="info" style="font-size: 10px;font-weight: bold;" x="10" y="391">Use slider or -/+ buttons to hide/show edges.</text></svg>