<?xml version="1.0" encoding="UTF-8" standalone="no"?>
<!DOCTYPE svg PUBLIC "-//W3C//DTD SVG 1.1//EN"
 "http://www.w3.org/Graphics/SVG/1.1/DTD/svg11.dtd">
<!-- Generated by graphviz version 2.28.0 (20110630.0925)
 -->
<!-- Title: _anonymous_0 Pages: 1 -->
<svg width="493pt" height="366pt"
 viewBox="0.00 0.00 492.95 366.45" xmlns="http://www.w3.org/2000/svg" xmlns:xlink="http://www.w3.org/1999/xlink">
<g id="graph1" class="graph" transform="scale(1 1) rotate(0) translate(4 362.449)">
<title>_anonymous_0</title>
<polygon fill="white" stroke="white" points="-4,5 -4,-362.449 489.949,-362.449 489.949,5 -4,5"/>
<!-- YBX1_FOS_NFYC_NFYA_NFYB_CEBPZ -->
<g id="node1" class="node"><title>YBX1_FOS_NFYC_NFYA_NFYB_CEBPZ</title>
<a xlink:href="YBX1_FOS_NFYC_NFYA_NFYB_CEBPZ.svg" xlink:title="Z&#45;value: 1.883||remove35">
<polygon fill="#3247ff" stroke="#3247ff" stroke-width="2" points="454.449,-240.425 275.449,-240.425 263.449,-228.425 263.449,-216.425 275.449,-204.425 454.449,-204.425 466.449,-216.425 466.449,-228.425 454.449,-240.425"/>
<path fill="#3247ff" stroke="#3247ff" stroke-width="2" d="M275.449,-240.425C269.449,-240.425 263.449,-234.425 263.449,-228.425"/>
<path fill="#3247ff" stroke="#3247ff" stroke-width="2" d="M263.449,-216.425C263.449,-210.425 269.449,-204.425 275.449,-204.425"/>
<path fill="#3247ff" stroke="#3247ff" stroke-width="2" d="M454.449,-204.425C460.449,-204.425 466.449,-210.425 466.449,-216.425"/>
<path fill="#3247ff" stroke="#3247ff" stroke-width="2" d="M466.449,-228.425C466.449,-234.425 460.449,-240.425 454.449,-240.425"/>
<polyline fill="none" stroke="white" stroke-width="2" points="454.449,-240.425 275.449,-240.425 "/>
<path fill="none" stroke="white" stroke-width="2" d="M275.449,-240.425C269.449,-240.425 263.449,-234.425 263.449,-228.425"/>
<polyline fill="none" stroke="white" stroke-width="2" points="263.449,-228.425 263.449,-216.425 "/>
<path fill="none" stroke="white" stroke-width="2" d="M263.449,-216.425C263.449,-210.425 269.449,-204.425 275.449,-204.425"/>
<polyline fill="none" stroke="white" stroke-width="2" points="275.449,-204.425 454.449,-204.425 "/>
<path fill="none" stroke="white" stroke-width="2" d="M454.449,-204.425C460.449,-204.425 466.449,-210.425 466.449,-216.425"/>
<polyline fill="none" stroke="white" stroke-width="2" points="466.449,-216.425 466.449,-228.425 "/>
<path fill="none" stroke="white" stroke-width="2" d="M466.449,-228.425C466.449,-234.425 460.449,-240.425 454.449,-240.425"/>
<text text-anchor="middle" x="364.949" y="-219.925" font-family="Helvetica,sans-Serif" font-size="10.00" fill="white">YBX1_FOS_NFYC_NFYA_NFYB_CEBPZ</text>
</a>
</g>
<!-- YBX1_FOS_NFYC_NFYA_NFYB_CEBPZ&#45;&gt;YBX1_FOS_NFYC_NFYA_NFYB_CEBPZ -->
<g id="edge6" class="edge"><title>YBX1_FOS_NFYC_NFYA_NFYB_CEBPZ&#45;&gt;YBX1_FOS_NFYC_NFYA_NFYB_CEBPZ</title>
<a xlink:title="NFYC: 1.015||remove35">
<path fill="none" stroke="#c752ff" stroke-width="3" d="M467.367,-228.017C478.083,-226.926 484.949,-225.061 484.949,-222.425 484.949,-220.529 481.402,-219.033 475.428,-217.936"/>
<polygon fill="#c752ff" stroke="#c752ff" points="475.673,-215.144 467.367,-216.832 474.913,-220.692 475.673,-215.144"/>
</a>
</g>
<!-- ZIC2_GLI1 -->
<g id="node2" class="node"><title>ZIC2_GLI1</title>
<a xlink:href="ZIC2_GLI1.svg" xlink:title="Z&#45;value: 0.352||remove34">
<polygon fill="#afb7ff" stroke="#afb7ff" stroke-width="2" points="341.999,-315.249 301.499,-315.249 289.499,-303.249 289.499,-291.249 301.499,-279.249 341.999,-279.249 353.999,-291.249 353.999,-303.249 341.999,-315.249"/>
<path fill="#afb7ff" stroke="#afb7ff" stroke-width="2" d="M301.499,-315.249C295.499,-315.249 289.499,-309.249 289.499,-303.249"/>
<path fill="#afb7ff" stroke="#afb7ff" stroke-width="2" d="M289.499,-291.249C289.499,-285.249 295.499,-279.249 301.499,-279.249"/>
<path fill="#afb7ff" stroke="#afb7ff" stroke-width="2" d="M341.999,-279.249C347.999,-279.249 353.999,-285.249 353.999,-291.249"/>
<path fill="#afb7ff" stroke="#afb7ff" stroke-width="2" d="M353.999,-303.249C353.999,-309.249 347.999,-315.249 341.999,-315.249"/>
<polyline fill="none" stroke="white" stroke-width="2" points="341.999,-315.249 301.499,-315.249 "/>
<path fill="none" stroke="white" stroke-width="2" d="M301.499,-315.249C295.499,-315.249 289.499,-309.249 289.499,-303.249"/>
<polyline fill="none" stroke="white" stroke-width="2" points="289.499,-303.249 289.499,-291.249 "/>
<path fill="none" stroke="white" stroke-width="2" d="M289.499,-291.249C289.499,-285.249 295.499,-279.249 301.499,-279.249"/>
<polyline fill="none" stroke="white" stroke-width="2" points="301.499,-279.249 341.999,-279.249 "/>
<path fill="none" stroke="white" stroke-width="2" d="M341.999,-279.249C347.999,-279.249 353.999,-285.249 353.999,-291.249"/>
<polyline fill="none" stroke="white" stroke-width="2" points="353.999,-291.249 353.999,-303.249 "/>
<path fill="none" stroke="white" stroke-width="2" d="M353.999,-303.249C353.999,-309.249 347.999,-315.249 341.999,-315.249"/>
<text text-anchor="middle" x="321.749" y="-294.749" font-family="Helvetica,sans-Serif" font-size="10.00">ZIC2_GLI1</text>
</a>
</g>
<!-- YBX1_FOS_NFYC_NFYA_NFYB_CEBPZ&#45;&gt;ZIC2_GLI1 -->
<g id="edge2" class="edge"><title>YBX1_FOS_NFYC_NFYA_NFYB_CEBPZ&#45;&gt;ZIC2_GLI1</title>
<a xlink:title="ZIC2: 0.062||remove18root">
<path fill="none" stroke="#ecc4ff" stroke-width="3" d="M354.492,-240.538C349.066,-249.935 342.35,-261.568 336.414,-271.849"/>
<polygon fill="#ecc4ff" stroke="#ecc4ff" points="333.835,-270.715 332.26,-279.044 338.685,-273.516 333.835,-270.715"/>
</a>
</g>
<!-- GATA2 -->
<g id="node4" class="node"><title>GATA2</title>
<a xlink:href="GATA2.svg" xlink:title="Z&#45;value: 0.620||remove36">
<polygon fill="#99a3ff" stroke="#99a3ff" stroke-width="2" points="261.925,-358.449 231.925,-358.449 219.925,-346.449 219.925,-334.449 231.925,-322.449 261.925,-322.449 273.925,-334.449 273.925,-346.449 261.925,-358.449"/>
<path fill="#99a3ff" stroke="#99a3ff" stroke-width="2" d="M231.925,-358.449C225.925,-358.449 219.925,-352.449 219.925,-346.449"/>
<path fill="#99a3ff" stroke="#99a3ff" stroke-width="2" d="M219.925,-334.449C219.925,-328.449 225.925,-322.449 231.925,-322.449"/>
<path fill="#99a3ff" stroke="#99a3ff" stroke-width="2" d="M261.925,-322.449C267.925,-322.449 273.925,-328.449 273.925,-334.449"/>
<path fill="#99a3ff" stroke="#99a3ff" stroke-width="2" d="M273.925,-346.449C273.925,-352.449 267.925,-358.449 261.925,-358.449"/>
<polyline fill="none" stroke="white" stroke-width="2" points="261.925,-358.449 231.925,-358.449 "/>
<path fill="none" stroke="white" stroke-width="2" d="M231.925,-358.449C225.925,-358.449 219.925,-352.449 219.925,-346.449"/>
<polyline fill="none" stroke="white" stroke-width="2" points="219.925,-346.449 219.925,-334.449 "/>
<path fill="none" stroke="white" stroke-width="2" d="M219.925,-334.449C219.925,-328.449 225.925,-322.449 231.925,-322.449"/>
<polyline fill="none" stroke="white" stroke-width="2" points="231.925,-322.449 261.925,-322.449 "/>
<path fill="none" stroke="white" stroke-width="2" d="M261.925,-322.449C267.925,-322.449 273.925,-328.449 273.925,-334.449"/>
<polyline fill="none" stroke="white" stroke-width="2" points="273.925,-334.449 273.925,-346.449 "/>
<path fill="none" stroke="white" stroke-width="2" d="M273.925,-346.449C273.925,-352.449 267.925,-358.449 261.925,-358.449"/>
<text text-anchor="middle" x="246.925" y="-337.949" font-family="Helvetica,sans-Serif" font-size="10.00">GATA2</text>
</a>
</g>
<!-- YBX1_FOS_NFYC_NFYA_NFYB_CEBPZ&#45;&gt;GATA2 -->
<g id="edge4" class="edge"><title>YBX1_FOS_NFYC_NFYA_NFYB_CEBPZ&#45;&gt;GATA2</title>
<a xlink:title="GATA2: 0.117||remove29root">
<path fill="none" stroke="#eabdff" stroke-width="3" d="M330.451,-240.612C315.012,-249.893 297.337,-262.216 284.049,-276.369 273.482,-287.624 264.66,-302.419 258.271,-314.957"/>
<polygon fill="#eabdff" stroke="#eabdff" points="255.62,-314.004 254.613,-322.42 260.648,-316.469 255.62,-314.004"/>
</a>
</g>
<!-- HLF_TEF -->
<g id="node7" class="node"><title>HLF_TEF</title>
<a xlink:href="HLF_TEF.svg" xlink:title="Z&#45;value: 0.505||remove32">
<polygon fill="#a2acff" stroke="#a2acff" stroke-width="2" points="177.775,-358.449 143.275,-358.449 131.275,-346.449 131.275,-334.449 143.275,-322.449 177.775,-322.449 189.775,-334.449 189.775,-346.449 177.775,-358.449"/>
<path fill="#a2acff" stroke="#a2acff" stroke-width="2" d="M143.275,-358.449C137.275,-358.449 131.275,-352.449 131.275,-346.449"/>
<path fill="#a2acff" stroke="#a2acff" stroke-width="2" d="M131.275,-334.449C131.275,-328.449 137.275,-322.449 143.275,-322.449"/>
<path fill="#a2acff" stroke="#a2acff" stroke-width="2" d="M177.775,-322.449C183.775,-322.449 189.775,-328.449 189.775,-334.449"/>
<path fill="#a2acff" stroke="#a2acff" stroke-width="2" d="M189.775,-346.449C189.775,-352.449 183.775,-358.449 177.775,-358.449"/>
<polyline fill="none" stroke="white" stroke-width="2" points="177.775,-358.449 143.275,-358.449 "/>
<path fill="none" stroke="white" stroke-width="2" d="M143.275,-358.449C137.275,-358.449 131.275,-352.449 131.275,-346.449"/>
<polyline fill="none" stroke="white" stroke-width="2" points="131.275,-346.449 131.275,-334.449 "/>
<path fill="none" stroke="white" stroke-width="2" d="M131.275,-334.449C131.275,-328.449 137.275,-322.449 143.275,-322.449"/>
<polyline fill="none" stroke="white" stroke-width="2" points="143.275,-322.449 177.775,-322.449 "/>
<path fill="none" stroke="white" stroke-width="2" d="M177.775,-322.449C183.775,-322.449 189.775,-328.449 189.775,-334.449"/>
<polyline fill="none" stroke="white" stroke-width="2" points="189.775,-334.449 189.775,-346.449 "/>
<path fill="none" stroke="white" stroke-width="2" d="M189.775,-346.449C189.775,-352.449 183.775,-358.449 177.775,-358.449"/>
<text text-anchor="middle" x="160.525" y="-337.949" font-family="Helvetica,sans-Serif" font-size="10.00">HLF_TEF</text>
</a>
</g>
<!-- YBX1_FOS_NFYC_NFYA_NFYB_CEBPZ&#45;&gt;HLF_TEF -->
<g id="edge8" class="edge"><title>YBX1_FOS_NFYC_NFYA_NFYB_CEBPZ&#45;&gt;HLF_TEF</title>
<a xlink:title="TEF: 0.011||remove4root">
<path fill="none" stroke="#eecaff" stroke-width="3" d="M333.456,-240.607C296.659,-261.852 235.878,-296.944 197.046,-319.364"/>
<polygon fill="#eecaff" stroke="#eecaff" points="195.589,-316.971 190.061,-323.396 198.389,-321.821 195.589,-316.971"/>
</a>
</g>
<!-- RCOR1_MTA3 -->
<g id="node9" class="node"><title>RCOR1_MTA3</title>
<a xlink:href="RCOR1_MTA3.svg" xlink:title="Z&#45;value: 1.731||remove43">
<polygon fill="#3f52ff" stroke="#3f52ff" stroke-width="2" points="114.95,-79.2 56.45,-79.2 44.45,-67.2 44.45,-55.2 56.45,-43.2 114.95,-43.2 126.95,-55.2 126.95,-67.2 114.95,-79.2"/>
<path fill="#3f52ff" stroke="#3f52ff" stroke-width="2" d="M56.45,-79.2C50.45,-79.2 44.45,-73.2 44.45,-67.2"/>
<path fill="#3f52ff" stroke="#3f52ff" stroke-width="2" d="M44.45,-55.2C44.45,-49.2 50.45,-43.2 56.45,-43.2"/>
<path fill="#3f52ff" stroke="#3f52ff" stroke-width="2" d="M114.95,-43.2C120.95,-43.2 126.95,-49.2 126.95,-55.2"/>
<path fill="#3f52ff" stroke="#3f52ff" stroke-width="2" d="M126.95,-67.2C126.95,-73.2 120.95,-79.2 114.95,-79.2"/>
<polyline fill="none" stroke="white" stroke-width="2" points="114.95,-79.2 56.45,-79.2 "/>
<path fill="none" stroke="white" stroke-width="2" d="M56.45,-79.2C50.45,-79.2 44.45,-73.2 44.45,-67.2"/>
<polyline fill="none" stroke="white" stroke-width="2" points="44.45,-67.2 44.45,-55.2 "/>
<path fill="none" stroke="white" stroke-width="2" d="M44.45,-55.2C44.45,-49.2 50.45,-43.2 56.45,-43.2"/>
<polyline fill="none" stroke="white" stroke-width="2" points="56.45,-43.2 114.95,-43.2 "/>
<path fill="none" stroke="white" stroke-width="2" d="M114.95,-43.2C120.95,-43.2 126.95,-49.2 126.95,-55.2"/>
<polyline fill="none" stroke="white" stroke-width="2" points="126.95,-55.2 126.95,-67.2 "/>
<path fill="none" stroke="white" stroke-width="2" d="M126.95,-67.2C126.95,-73.2 120.95,-79.2 114.95,-79.2"/>
<text text-anchor="middle" x="85.7" y="-58.7" font-family="Helvetica,sans-Serif" font-size="10.00" fill="white">RCOR1_MTA3</text>
</a>
</g>
<!-- YBX1_FOS_NFYC_NFYA_NFYB_CEBPZ&#45;&gt;RCOR1_MTA3 -->
<g id="edge10" class="edge"><title>YBX1_FOS_NFYC_NFYA_NFYB_CEBPZ&#45;&gt;RCOR1_MTA3</title>
<a xlink:title="RCOR1: 0.148||NFYB: 0.666||NFYC: 0.172||YBX1: 0.144||remove35">
<path fill="none" stroke="#e9baff" stroke-width="3" d="M326.014,-201.1C272.801,-170.377 177.23,-115.199 123.885,-84.4008"/>
<path fill="none" stroke="#d57cff" stroke-width="3" d="M327.014,-199.368C273.801,-168.645 178.23,-113.467 124.885,-82.6687"/>
<polygon fill="#d57cff" stroke="#d57cff" points="325.4,-202.824 333.729,-204.399 328.2,-197.974 325.4,-202.824"/>
<polygon fill="#e9baff" stroke="#e9baff" points="125.475,-80.931 117.147,-79.3558 122.675,-85.7807 125.475,-80.931"/>
</a>
</g>
<!-- ZIC2_GLI1&#45;&gt;ZIC2_GLI1 -->
<g id="edge34" class="edge"><title>ZIC2_GLI1&#45;&gt;ZIC2_GLI1</title>
<a xlink:title="GLI1: 0.018||remove7root">
<path fill="none" stroke="#eec9ff" stroke-width="3" d="M354.45,-303.984C364.179,-303.783 371.749,-301.538 371.749,-297.249 371.749,-294.3 368.171,-292.318 362.773,-291.301"/>
<polygon fill="#eec9ff" stroke="#eec9ff" points="362.678,-288.48 354.45,-290.514 362.15,-294.055 362.678,-288.48"/>
</a>
</g>
<!-- GATA2&#45;&gt;HLF_TEF -->
<g id="edge32" class="edge"><title>GATA2&#45;&gt;HLF_TEF</title>
<a xlink:title="HLF: 0.047||remove14root">
<path fill="none" stroke="#ecc6ff" stroke-width="3" d="M219.587,-340.449C212.765,-340.449 205.329,-340.449 198.107,-340.449"/>
<polygon fill="#ecc6ff" stroke="#ecc6ff" points="197.776,-337.649 189.776,-340.449 197.776,-343.249 197.776,-337.649"/>
</a>
</g>
<!-- RCOR1_MTA3&#45;&gt;ZIC2_GLI1 -->
<g id="edge14" class="edge"><title>RCOR1_MTA3&#45;&gt;ZIC2_GLI1</title>
<a xlink:title="GLI1: 0.014||remove5root">
<path fill="none" stroke="#eecaff" stroke-width="3" d="M93.9407,-79.5861C107.316,-107.95 135.964,-162.977 172.405,-200.105 204.733,-233.043 250.113,-260.588 282.347,-277.836"/>
<polygon fill="#eecaff" stroke="#eecaff" points="281.041,-280.313 289.423,-281.57 283.655,-275.36 281.041,-280.313"/>
</a>
</g>
<!-- RCOR1_MTA3&#45;&gt;GATA2 -->
<g id="edge18" class="edge"><title>RCOR1_MTA3&#45;&gt;GATA2</title>
<a xlink:title="GATA2: 0.227||RCOR1: 0.087||remove36">
<path fill="none" stroke="#e5b0ff" stroke-width="3" d="M101.202,-86.0505C131.921,-139.258 202.799,-262.021 233.348,-314.934"/>
<path fill="none" stroke="#ebc1ff" stroke-width="3" d="M99.4701,-87.0505C130.189,-140.258 201.067,-263.021 231.616,-315.934"/>
<polygon fill="#ebc1ff" stroke="#ebc1ff" points="102.703,-85.0505 96.2784,-79.5223 97.8536,-87.8506 102.703,-85.0505"/>
<polygon fill="#e5b0ff" stroke="#e5b0ff" points="230.092,-316.894 236.517,-322.422 234.942,-314.094 230.092,-316.894"/>
</a>
</g>
<!-- RCOR1_MTA3&#45;&gt;HLF_TEF -->
<g id="edge26" class="edge"><title>RCOR1_MTA3&#45;&gt;HLF_TEF</title>
<a xlink:title="HLF: 0.168||TEF: 0.069||remove32">
<path fill="none" stroke="#e8b7ff" stroke-width="3" d="M90.6095,-79.5223C103.536,-127.765 138.547,-258.427 153.548,-314.412"/>
<polygon fill="#e8b7ff" stroke="#e8b7ff" points="150.919,-315.42 155.694,-322.422 156.328,-313.97 150.919,-315.42"/>
</a>
</g>
<!-- RCOR1_MTA3&#45;&gt;RCOR1_MTA3 -->
<g id="edge28" class="edge"><title>RCOR1_MTA3&#45;&gt;RCOR1_MTA3</title>
<a xlink:title="RCOR1: 1.276||remove43">
<path fill="none" stroke="#bd32ff" stroke-width="3" d="M127.055,-67.8445C137.171,-67.3523 144.7,-65.1375 144.7,-61.2 144.7,-58.4314 140.978,-56.5145 135.251,-55.4493"/>
<polygon fill="#bd32ff" stroke="#bd32ff" points="135.311,-52.6393 127.055,-54.5555 134.704,-58.2063 135.311,-52.6393"/>
</a>
</g>
<!-- VDR -->
<g id="node11" class="node"><title>VDR</title>
<a xlink:href="VDR.svg" xlink:title="Z&#45;value: 0.992||remove39">
<polygon fill="#7b88ff" stroke="#7b88ff" stroke-width="2" points="100.7,-315.249 70.7,-315.249 58.7,-303.249 58.7,-291.249 70.7,-279.249 100.7,-279.249 112.7,-291.249 112.7,-303.249 100.7,-315.249"/>
<path fill="#7b88ff" stroke="#7b88ff" stroke-width="2" d="M70.7,-315.249C64.7,-315.249 58.7,-309.249 58.7,-303.249"/>
<path fill="#7b88ff" stroke="#7b88ff" stroke-width="2" d="M58.7,-291.249C58.7,-285.249 64.7,-279.249 70.7,-279.249"/>
<path fill="#7b88ff" stroke="#7b88ff" stroke-width="2" d="M100.7,-279.249C106.7,-279.249 112.7,-285.249 112.7,-291.249"/>
<path fill="#7b88ff" stroke="#7b88ff" stroke-width="2" d="M112.7,-303.249C112.7,-309.249 106.7,-315.249 100.7,-315.249"/>
<polyline fill="none" stroke="white" stroke-width="2" points="100.7,-315.249 70.7,-315.249 "/>
<path fill="none" stroke="white" stroke-width="2" d="M70.7,-315.249C64.7,-315.249 58.7,-309.249 58.7,-303.249"/>
<polyline fill="none" stroke="white" stroke-width="2" points="58.7,-303.249 58.7,-291.249 "/>
<path fill="none" stroke="white" stroke-width="2" d="M58.7,-291.249C58.7,-285.249 64.7,-279.249 70.7,-279.249"/>
<polyline fill="none" stroke="white" stroke-width="2" points="70.7,-279.249 100.7,-279.249 "/>
<path fill="none" stroke="white" stroke-width="2" d="M100.7,-279.249C106.7,-279.249 112.7,-285.249 112.7,-291.249"/>
<polyline fill="none" stroke="white" stroke-width="2" points="112.7,-291.249 112.7,-303.249 "/>
<path fill="none" stroke="white" stroke-width="2" d="M112.7,-303.249C112.7,-309.249 106.7,-315.249 100.7,-315.249"/>
<text text-anchor="middle" x="85.7" y="-294.749" font-family="Helvetica,sans-Serif" font-size="10.00">VDR</text>
</a>
</g>
<!-- RCOR1_MTA3&#45;&gt;VDR -->
<g id="edge12" class="edge"><title>RCOR1_MTA3&#45;&gt;VDR</title>
<a xlink:title="VDR: 0.470||remove39">
<path fill="none" stroke="#dc93ff" stroke-width="3" d="M88.3045,-79.6318C89.6436,-90.0346 91.1318,-103.288 91.8,-115.145 95.0052,-172.014 95.0052,-186.435 91.8,-243.305 91.2936,-252.29 90.3163,-262.077 89.2899,-270.818"/>
<polygon fill="#dc93ff" stroke="#dc93ff" points="86.5037,-270.535 88.3045,-278.817 92.0617,-271.22 86.5037,-270.535"/>
</a>
</g>
<!-- MESP1 -->
<g id="node14" class="node"><title>MESP1</title>
<a xlink:href="MESP1.svg" xlink:title="Z&#45;value: 0.887||remove44">
<polygon fill="#ff8383" stroke="#ff8383" stroke-width="2" points="218.725,-197.225 188.725,-197.225 176.725,-185.225 176.725,-173.225 188.725,-161.225 218.725,-161.225 230.725,-173.225 230.725,-185.225 218.725,-197.225"/>
<path fill="#ff8383" stroke="#ff8383" stroke-width="2" d="M188.725,-197.225C182.725,-197.225 176.725,-191.225 176.725,-185.225"/>
<path fill="#ff8383" stroke="#ff8383" stroke-width="2" d="M176.725,-173.225C176.725,-167.225 182.725,-161.225 188.725,-161.225"/>
<path fill="#ff8383" stroke="#ff8383" stroke-width="2" d="M218.725,-161.225C224.725,-161.225 230.725,-167.225 230.725,-173.225"/>
<path fill="#ff8383" stroke="#ff8383" stroke-width="2" d="M230.725,-185.225C230.725,-191.225 224.725,-197.225 218.725,-197.225"/>
<polyline fill="none" stroke="white" stroke-width="2" points="218.725,-197.225 188.725,-197.225 "/>
<path fill="none" stroke="white" stroke-width="2" d="M188.725,-197.225C182.725,-197.225 176.725,-191.225 176.725,-185.225"/>
<polyline fill="none" stroke="white" stroke-width="2" points="176.725,-185.225 176.725,-173.225 "/>
<path fill="none" stroke="white" stroke-width="2" d="M176.725,-173.225C176.725,-167.225 182.725,-161.225 188.725,-161.225"/>
<polyline fill="none" stroke="white" stroke-width="2" points="188.725,-161.225 218.725,-161.225 "/>
<path fill="none" stroke="white" stroke-width="2" d="M218.725,-161.225C224.725,-161.225 230.725,-167.225 230.725,-173.225"/>
<polyline fill="none" stroke="white" stroke-width="2" points="230.725,-173.225 230.725,-185.225 "/>
<path fill="none" stroke="white" stroke-width="2" d="M230.725,-185.225C230.725,-191.225 224.725,-197.225 218.725,-197.225"/>
<text text-anchor="middle" x="203.725" y="-176.725" font-family="Helvetica,sans-Serif" font-size="10.00">MESP1</text>
</a>
</g>
<!-- RCOR1_MTA3&#45;&gt;MESP1 -->
<g id="edge16" class="edge"><title>RCOR1_MTA3&#45;&gt;MESP1</title>
<a xlink:title="MESP1: 0.556||remove43root">
<path fill="none" stroke="#8995ff" stroke-width="3" d="M103.883,-79.3827C124.302,-99.8017 157.513,-133.013 179.969,-155.469"/>
<polygon fill="#8995ff" stroke="#8995ff" points="178.078,-157.538 185.715,-161.215 182.038,-153.578 178.078,-157.538"/>
</a>
</g>
<!-- DRGX_PROP1 -->
<g id="node17" class="node"><title>DRGX_PROP1</title>
<a xlink:href="DRGX_PROP1.svg" xlink:title="Z&#45;value: 0.337||remove42">
<polygon fill="#b0b8ff" stroke="#b0b8ff" stroke-width="2" points="72.75,-240.425 12.25,-240.425 0.25,-228.425 0.25,-216.425 12.25,-204.425 72.75,-204.425 84.75,-216.425 84.75,-228.425 72.75,-240.425"/>
<path fill="#b0b8ff" stroke="#b0b8ff" stroke-width="2" d="M12.25,-240.425C6.25,-240.425 0.25,-234.425 0.25,-228.425"/>
<path fill="#b0b8ff" stroke="#b0b8ff" stroke-width="2" d="M0.25,-216.425C0.25,-210.425 6.25,-204.425 12.25,-204.425"/>
<path fill="#b0b8ff" stroke="#b0b8ff" stroke-width="2" d="M72.75,-204.425C78.75,-204.425 84.75,-210.425 84.75,-216.425"/>
<path fill="#b0b8ff" stroke="#b0b8ff" stroke-width="2" d="M84.75,-228.425C84.75,-234.425 78.75,-240.425 72.75,-240.425"/>
<polyline fill="none" stroke="white" stroke-width="2" points="72.75,-240.425 12.25,-240.425 "/>
<path fill="none" stroke="white" stroke-width="2" d="M12.25,-240.425C6.25,-240.425 0.25,-234.425 0.25,-228.425"/>
<polyline fill="none" stroke="white" stroke-width="2" points="0.25,-228.425 0.25,-216.425 "/>
<path fill="none" stroke="white" stroke-width="2" d="M0.25,-216.425C0.25,-210.425 6.25,-204.425 12.25,-204.425"/>
<polyline fill="none" stroke="white" stroke-width="2" points="12.25,-204.425 72.75,-204.425 "/>
<path fill="none" stroke="white" stroke-width="2" d="M72.75,-204.425C78.75,-204.425 84.75,-210.425 84.75,-216.425"/>
<polyline fill="none" stroke="white" stroke-width="2" points="84.75,-216.425 84.75,-228.425 "/>
<path fill="none" stroke="white" stroke-width="2" d="M84.75,-228.425C84.75,-234.425 78.75,-240.425 72.75,-240.425"/>
<text text-anchor="middle" x="42.5" y="-219.925" font-family="Helvetica,sans-Serif" font-size="10.00">DRGX_PROP1</text>
</a>
</g>
<!-- RCOR1_MTA3&#45;&gt;DRGX_PROP1 -->
<g id="edge20" class="edge"><title>RCOR1_MTA3&#45;&gt;DRGX_PROP1</title>
<a xlink:title="DRGX: 0.067||remove19root">
<path fill="none" stroke="#ecc3ff" stroke-width="3" d="M90.8505,-79.3632C95.5171,-99.0142 100.455,-131.008 91.8,-156.905 86.6984,-172.17 76.4869,-186.731 66.674,-198.233"/>
<polygon fill="#ecc3ff" stroke="#ecc3ff" points="64.5125,-196.45 61.2985,-204.293 68.7019,-200.166 64.5125,-196.45"/>
</a>
</g>
<!-- TBX5 -->
<g id="node19" class="node"><title>TBX5</title>
<a xlink:href="TBX5.svg" xlink:title="Z&#45;value: 0.861||remove37">
<polygon fill="#8692ff" stroke="#8692ff" stroke-width="2" points="175.525,-36 145.525,-36 133.525,-24 133.525,-12 145.525,-3.19744e-14 175.525,-3.19744e-14 187.525,-12 187.525,-24 175.525,-36"/>
<path fill="#8692ff" stroke="#8692ff" stroke-width="2" d="M145.525,-36C139.525,-36 133.525,-30 133.525,-24"/>
<path fill="#8692ff" stroke="#8692ff" stroke-width="2" d="M133.525,-12C133.525,-6 139.525,-3.19744e-14 145.525,-3.19744e-14"/>
<path fill="#8692ff" stroke="#8692ff" stroke-width="2" d="M175.525,-3.19744e-14C181.525,-3.19744e-14 187.525,-6 187.525,-12"/>
<path fill="#8692ff" stroke="#8692ff" stroke-width="2" d="M187.525,-24C187.525,-30 181.525,-36 175.525,-36"/>
<polyline fill="none" stroke="white" stroke-width="2" points="175.525,-36 145.525,-36 "/>
<path fill="none" stroke="white" stroke-width="2" d="M145.525,-36C139.525,-36 133.525,-30 133.525,-24"/>
<polyline fill="none" stroke="white" stroke-width="2" points="133.525,-24 133.525,-12 "/>
<path fill="none" stroke="white" stroke-width="2" d="M133.525,-12C133.525,-6 139.525,-3.19744e-14 145.525,-3.19744e-14"/>
<polyline fill="none" stroke="white" stroke-width="2" points="145.525,-3.19744e-14 175.525,-3.19744e-14 "/>
<path fill="none" stroke="white" stroke-width="2" d="M175.525,-3.19744e-14C181.525,-3.19744e-14 187.525,-6 187.525,-12"/>
<polyline fill="none" stroke="white" stroke-width="2" points="187.525,-12 187.525,-24 "/>
<path fill="none" stroke="white" stroke-width="2" d="M187.525,-24C187.525,-30 181.525,-36 175.525,-36"/>
<text text-anchor="middle" x="160.525" y="-15.5" font-family="Helvetica,sans-Serif" font-size="10.00">TBX5</text>
</a>
</g>
<!-- RCOR1_MTA3&#45;&gt;TBX5 -->
<g id="edge22" class="edge"><title>RCOR1_MTA3&#45;&gt;TBX5</title>
<a xlink:title="TBX5: 0.037||remove11root">
<path fill="none" stroke="#edc7ff" stroke-width="3" d="M116.999,-43.1296C120.062,-41.3609 123.182,-39.5597 126.273,-37.7752"/>
<polygon fill="#edc7ff" stroke="#edc7ff" points="127.864,-40.0898 133.392,-33.6649 125.064,-35.2401 127.864,-40.0898"/>
</a>
</g>
<!-- SOX10_SOX15 -->
<g id="node21" class="node"><title>SOX10_SOX15</title>
<a xlink:href="SOX10_SOX15.svg" xlink:title="Z&#45;value: 0.413||remove40">
<polygon fill="#aab2ff" stroke="#aab2ff" stroke-width="2" points="72.75,-154.025 12.25,-154.025 0.25,-142.025 0.25,-130.025 12.25,-118.025 72.75,-118.025 84.75,-130.025 84.75,-142.025 72.75,-154.025"/>
<path fill="#aab2ff" stroke="#aab2ff" stroke-width="2" d="M12.25,-154.025C6.25,-154.025 0.25,-148.025 0.25,-142.025"/>
<path fill="#aab2ff" stroke="#aab2ff" stroke-width="2" d="M0.25,-130.025C0.25,-124.025 6.25,-118.025 12.25,-118.025"/>
<path fill="#aab2ff" stroke="#aab2ff" stroke-width="2" d="M72.75,-118.025C78.75,-118.025 84.75,-124.025 84.75,-130.025"/>
<path fill="#aab2ff" stroke="#aab2ff" stroke-width="2" d="M84.75,-142.025C84.75,-148.025 78.75,-154.025 72.75,-154.025"/>
<polyline fill="none" stroke="white" stroke-width="2" points="72.75,-154.025 12.25,-154.025 "/>
<path fill="none" stroke="white" stroke-width="2" d="M12.25,-154.025C6.25,-154.025 0.25,-148.025 0.25,-142.025"/>
<polyline fill="none" stroke="white" stroke-width="2" points="0.25,-142.025 0.25,-130.025 "/>
<path fill="none" stroke="white" stroke-width="2" d="M0.25,-130.025C0.25,-124.025 6.25,-118.025 12.25,-118.025"/>
<polyline fill="none" stroke="white" stroke-width="2" points="12.25,-118.025 72.75,-118.025 "/>
<path fill="none" stroke="white" stroke-width="2" d="M72.75,-118.025C78.75,-118.025 84.75,-124.025 84.75,-130.025"/>
<polyline fill="none" stroke="white" stroke-width="2" points="84.75,-130.025 84.75,-142.025 "/>
<path fill="none" stroke="white" stroke-width="2" d="M84.75,-142.025C84.75,-148.025 78.75,-154.025 72.75,-154.025"/>
<text text-anchor="middle" x="42.5" y="-133.525" font-family="Helvetica,sans-Serif" font-size="10.00">SOX10_SOX15</text>
</a>
</g>
<!-- RCOR1_MTA3&#45;&gt;SOX10_SOX15 -->
<g id="edge24" class="edge"><title>RCOR1_MTA3&#45;&gt;SOX10_SOX15</title>
<a xlink:title="SOX15: 0.173||SOX10: 0.101||remove38root">
<path fill="none" stroke="#e8b7ff" stroke-width="3" d="M75.2425,-79.3129C69.8171,-88.7099 63.1003,-100.344 57.165,-110.624"/>
<polygon fill="#e8b7ff" stroke="#e8b7ff" points="54.5861,-109.491 53.0109,-117.819 59.4359,-112.291 54.5861,-109.491"/>
</a>
</g>
<!-- WRNIP1 -->
<g id="node25" class="node"><title>WRNIP1</title>
<a xlink:href="WRNIP1.svg" xlink:title="Z&#45;value: 1.103||remove31">
<polygon fill="#7280ff" stroke="#7280ff" stroke-width="2" points="262.425,-36 231.425,-36 219.425,-24 219.425,-12 231.425,3.19744e-14 262.425,3.19744e-14 274.425,-12 274.425,-24 262.425,-36"/>
<path fill="#7280ff" stroke="#7280ff" stroke-width="2" d="M231.425,-36C225.425,-36 219.425,-30 219.425,-24"/>
<path fill="#7280ff" stroke="#7280ff" stroke-width="2" d="M219.425,-12C219.425,-6 225.425,3.19744e-14 231.425,3.19744e-14"/>
<path fill="#7280ff" stroke="#7280ff" stroke-width="2" d="M262.425,3.19744e-14C268.425,3.19744e-14 274.425,-6 274.425,-12"/>
<path fill="#7280ff" stroke="#7280ff" stroke-width="2" d="M274.425,-24C274.425,-30 268.425,-36 262.425,-36"/>
<polyline fill="none" stroke="white" stroke-width="2" points="262.425,-36 231.425,-36 "/>
<path fill="none" stroke="white" stroke-width="2" d="M231.425,-36C225.425,-36 219.425,-30 219.425,-24"/>
<polyline fill="none" stroke="white" stroke-width="2" points="219.425,-24 219.425,-12 "/>
<path fill="none" stroke="white" stroke-width="2" d="M219.425,-12C219.425,-6 225.425,3.19744e-14 231.425,3.19744e-14"/>
<polyline fill="none" stroke="white" stroke-width="2" points="231.425,3.19744e-14 262.425,3.19744e-14 "/>
<path fill="none" stroke="white" stroke-width="2" d="M262.425,3.19744e-14C268.425,3.19744e-14 274.425,-6 274.425,-12"/>
<polyline fill="none" stroke="white" stroke-width="2" points="274.425,-12 274.425,-24 "/>
<path fill="none" stroke="white" stroke-width="2" d="M274.425,-24C274.425,-30 268.425,-36 262.425,-36"/>
<text text-anchor="middle" x="246.925" y="-15.5" font-family="Helvetica,sans-Serif" font-size="10.00" fill="white">WRNIP1</text>
</a>
</g>
<!-- RCOR1_MTA3&#45;&gt;WRNIP1 -->
<g id="edge30" class="edge"><title>RCOR1_MTA3&#45;&gt;WRNIP1</title>
<a xlink:title="WRNIP1: 0.243||MTA3: 0.177||remove31">
<path fill="none" stroke="#e5aeff" stroke-width="3" d="M135.03,-51.4608C152.988,-47.8523 173.366,-43.2498 191.564,-37.9203 197.804,-36.0941 204.386,-33.8703 210.705,-31.576"/>
<path fill="none" stroke="#e7b6ff" stroke-width="3" d="M135.424,-53.4216C153.429,-49.8031 173.807,-45.2007 192.126,-39.8397 198.445,-37.9889 205.026,-35.7651 211.387,-33.456"/>
<polygon fill="#e7b6ff" stroke="#e7b6ff" points="134.458,-49.7386 127.15,-54.031 135.54,-55.2332 134.458,-49.7386"/>
<polygon fill="#e5aeff" stroke="#e5aeff" points="212.391,-35.0027 218.907,-29.582 210.433,-29.7563 212.391,-35.0027"/>
</a>
</g>
<!-- VDR&#45;&gt;ZIC2_GLI1 -->
<g id="edge60" class="edge"><title>VDR&#45;&gt;ZIC2_GLI1</title>
<a xlink:title="GLI1: 0.006||remove2root">
<path fill="none" stroke="#eecbff" stroke-width="3" d="M112.778,-297.249C154.104,-297.249 233.176,-297.249 281.318,-297.249"/>
<polygon fill="#eecbff" stroke="#eecbff" points="281.349,-300.049 289.349,-297.249 281.349,-294.449 281.349,-300.049"/>
</a>
</g>
<!-- MESP1&#45;&gt;YBX1_FOS_NFYC_NFYA_NFYB_CEBPZ -->
<g id="edge70" class="edge"><title>MESP1&#45;&gt;YBX1_FOS_NFYC_NFYA_NFYB_CEBPZ</title>
<a xlink:title="FOS: 0.132||remove35root">
<path fill="none" stroke="#ffbcbc" stroke-width="3" d="M231.074,-186.553C247.246,-190.886 268.594,-196.606 289.479,-202.202"/>
<polygon fill="#ffbcbc" stroke="#ffbcbc" points="288.997,-204.972 297.449,-204.338 290.447,-199.563 288.997,-204.972"/>
</a>
</g>
<!-- MESP1&#45;&gt;ZIC2_GLI1 -->
<g id="edge64" class="edge"><title>MESP1&#45;&gt;ZIC2_GLI1</title>
<a xlink:title="GLI1: 0.132||remove34root">
<path fill="none" stroke="#ffbcbc" stroke-width="3" d="M213.477,-197.333C221.323,-210.907 233.222,-229.45 246.629,-243.305 257.84,-254.889 271.813,-265.685 284.656,-274.529"/>
<polygon fill="#ffbcbc" stroke="#ffbcbc" points="283.45,-277.092 291.65,-279.233 286.575,-272.445 283.45,-277.092"/>
</a>
</g>
<!-- MESP1&#45;&gt;GATA2 -->
<g id="edge66" class="edge"><title>MESP1&#45;&gt;GATA2</title>
<a xlink:title="GATA2: 0.142||remove36root">
<path fill="none" stroke="#ffbaba" stroke-width="3" d="M208.596,-197.406C216.245,-225.951 231.104,-281.407 239.906,-314.254"/>
<polygon fill="#ffbaba" stroke="#ffbaba" points="237.229,-315.084 242.005,-322.087 242.638,-313.635 237.229,-315.084"/>
</a>
</g>
<!-- MESP1&#45;&gt;HLF_TEF -->
<g id="edge74" class="edge"><title>MESP1&#45;&gt;HLF_TEF</title>
<a xlink:title="TEF: 0.129||remove32root">
<path fill="none" stroke="#ffbcbc" stroke-width="3" d="M198.853,-197.406C191.204,-225.951 176.345,-281.407 167.544,-314.254"/>
<polygon fill="#ffbcbc" stroke="#ffbcbc" points="164.811,-313.635 165.445,-322.087 170.22,-315.084 164.811,-313.635"/>
</a>
</g>
<!-- MESP1&#45;&gt;VDR -->
<g id="edge62" class="edge"><title>MESP1&#45;&gt;VDR</title>
<a xlink:title="VDR: 0.183||remove39root">
<path fill="none" stroke="#ffb6b6" stroke-width="3" d="M185.542,-197.407C165.123,-217.826 131.912,-251.037 109.455,-273.494"/>
<polygon fill="#ffb6b6" stroke="#ffb6b6" points="107.387,-271.603 103.71,-279.24 111.346,-275.563 107.387,-271.603"/>
</a>
</g>
<!-- MESP1&#45;&gt;DRGX_PROP1 -->
<g id="edge68" class="edge"><title>MESP1&#45;&gt;DRGX_PROP1</title>
<a xlink:title="PROP1: 0.248||remove42root">
<path fill="none" stroke="#ffaeae" stroke-width="3" d="M176.375,-186.553C153.562,-192.666 120.447,-201.539 92.8606,-208.931"/>
<polygon fill="#ffaeae" stroke="#ffaeae" points="91.8708,-206.297 84.8681,-211.072 93.3202,-211.706 91.8708,-206.297"/>
</a>
</g>
<!-- MESP1&#45;&gt;SOX10_SOX15 -->
<g id="edge72" class="edge"><title>MESP1&#45;&gt;SOX10_SOX15</title>
<a xlink:title="SOX15: 0.217||remove40root">
<path fill="none" stroke="#ffb1b1" stroke-width="3" d="M176.375,-171.896C153.562,-165.783 120.447,-156.91 92.8606,-149.519"/>
<polygon fill="#ffb1b1" stroke="#ffb1b1" points="93.3202,-146.743 84.8681,-147.377 91.8708,-152.152 93.3202,-146.743"/>
</a>
</g>
<!-- TBX5&#45;&gt;ZIC2_GLI1 -->
<g id="edge76" class="edge"><title>TBX5&#45;&gt;ZIC2_GLI1</title>
<a xlink:title="GLI1: 0.038||remove12root">
<path fill="none" stroke="#edc7ff" stroke-width="3" d="M172.867,-36.1306C189.837,-62.0132 219.98,-111.607 235.045,-158.345 246.736,-194.616 226.978,-210.653 246.629,-243.305 255.16,-257.479 268.993,-268.983 282.479,-277.669"/>
<polygon fill="#edc7ff" stroke="#edc7ff" points="281.185,-280.16 289.469,-281.954 284.111,-275.386 281.185,-280.16"/>
</a>
</g>
<!-- TBX5&#45;&gt;HLF_TEF -->
<g id="edge80" class="edge"><title>TBX5&#45;&gt;HLF_TEF</title>
<a xlink:title="HLF: 0.003||remove0root">
<path fill="none" stroke="#eecbff" stroke-width="3" d="M160.525,-36.2601C160.525,-90.4652 160.525,-250.61 160.525,-314.094"/>
<polygon fill="#eecbff" stroke="#eecbff" points="157.725,-314.389 160.525,-322.389 163.325,-314.389 157.725,-314.389"/>
</a>
</g>
<!-- TBX5&#45;&gt;MESP1 -->
<g id="edge78" class="edge"><title>TBX5&#45;&gt;MESP1</title>
<a xlink:title="MESP1: 0.172||remove37root">
<path fill="none" stroke="#b7beff" stroke-width="3" d="M165.396,-36.1811C173.045,-64.7264 187.904,-120.183 196.706,-153.029"/>
<polygon fill="#b7beff" stroke="#b7beff" points="194.029,-153.86 198.805,-160.863 199.438,-152.41 194.029,-153.86"/>
</a>
</g>
<!-- SOX10_SOX15&#45;&gt;YBX1_FOS_NFYC_NFYA_NFYB_CEBPZ -->
<g id="edge82" class="edge"><title>SOX10_SOX15&#45;&gt;YBX1_FOS_NFYC_NFYA_NFYB_CEBPZ</title>
<a xlink:title="NFYC: 0.105||remove27root">
<path fill="none" stroke="#eabfff" stroke-width="3" d="M71.7527,-154.1C97.3319,-168.997 135.983,-189.361 172.405,-200.105 198.697,-207.86 227.752,-212.94 255.15,-216.262"/>
<polygon fill="#eabfff" stroke="#eabfff" points="254.942,-219.056 263.211,-217.195 255.586,-213.493 254.942,-219.056"/>
</a>
</g>
<!-- WRNIP1&#45;&gt;YBX1_FOS_NFYC_NFYA_NFYB_CEBPZ -->
<g id="edge52" class="edge"><title>WRNIP1&#45;&gt;YBX1_FOS_NFYC_NFYA_NFYB_CEBPZ</title>
<a xlink:title="YBX1: 0.079||NFYC: 0.054||NFYB: 0.039||FOS: 0.038||CEBPZ: 0.007||remove22root">
<path fill="none" stroke="#ebc2ff" stroke-width="3" d="M257.398,-36.1413C278.527,-72.7371 326.291,-155.466 350.419,-197.258"/>
<polygon fill="#ebc2ff" stroke="#ebc2ff" points="348.074,-198.796 354.499,-204.324 352.924,-195.996 348.074,-198.796"/>
</a>
</g>
<!-- WRNIP1&#45;&gt;ZIC2_GLI1 -->
<g id="edge38" class="edge"><title>WRNIP1&#45;&gt;ZIC2_GLI1</title>
<a xlink:title="GLI1: 0.054||remove16root">
<path fill="none" stroke="#ecc5ff" stroke-width="3" d="M244.791,-36.3244C239.637,-83.4122 228.239,-207.458 246.629,-243.305 254.306,-258.268 268.276,-270.017 282.104,-278.678"/>
<polygon fill="#ecc5ff" stroke="#ecc5ff" points="280.977,-281.264 289.289,-282.926 283.828,-276.444 280.977,-281.264"/>
</a>
</g>
<!-- WRNIP1&#45;&gt;GATA2 -->
<g id="edge46" class="edge"><title>WRNIP1&#45;&gt;GATA2</title>
<a xlink:title="GATA2: 0.076||remove20root">
<path fill="none" stroke="#ebc2ff" stroke-width="3" d="M246.866,-36.1067C246.75,-74.3655 246.512,-166.247 246.629,-243.305 246.666,-267.252 246.753,-294.519 246.823,-314.057"/>
<polygon fill="#ebc2ff" stroke="#ebc2ff" points="244.023,-314.197 246.853,-322.187 249.623,-314.176 244.023,-314.197"/>
</a>
</g>
<!-- WRNIP1&#45;&gt;HLF_TEF -->
<g id="edge56" class="edge"><title>WRNIP1&#45;&gt;HLF_TEF</title>
<a xlink:title="TEF: 0.319||HLF: 0.034||remove31">
<path fill="none" stroke="#e2a5ff" stroke-width="3" d="M233.825,-36.4267C216.259,-62.2629 185.741,-111.372 172.405,-158.345 157.144,-212.096 157.271,-278.214 158.828,-314.15"/>
<polygon fill="#e2a5ff" stroke="#e2a5ff" points="156.033,-314.335 159.222,-322.188 161.627,-314.061 156.033,-314.335"/>
</a>
</g>
<!-- WRNIP1&#45;&gt;VDR -->
<g id="edge36" class="edge"><title>WRNIP1&#45;&gt;VDR</title>
<a xlink:title="VDR: 0.102||remove25root">
<path fill="none" stroke="#eabfff" stroke-width="3" d="M236.346,-36.3223C208.321,-84.8626 132.125,-216.84 100.14,-272.238"/>
<polygon fill="#eabfff" stroke="#eabfff" points="97.6829,-270.894 96.1078,-279.222 102.533,-273.694 97.6829,-270.894"/>
</a>
</g>
<!-- WRNIP1&#45;&gt;MESP1 -->
<g id="edge42" class="edge"><title>WRNIP1&#45;&gt;MESP1</title>
<a xlink:title="MESP1: 0.126||remove31root">
<path fill="none" stroke="#bcc3ff" stroke-width="3" d="M242.053,-36.1811C234.404,-64.7264 219.545,-120.183 210.744,-153.029"/>
<polygon fill="#bcc3ff" stroke="#bcc3ff" points="208.011,-152.41 208.645,-160.863 213.42,-153.86 208.011,-152.41"/>
</a>
</g>
<!-- WRNIP1&#45;&gt;DRGX_PROP1 -->
<g id="edge48" class="edge"><title>WRNIP1&#45;&gt;DRGX_PROP1</title>
<a xlink:title="PROP1: 0.182||remove31">
<path fill="none" stroke="#e7b6ff" stroke-width="3" d="M228.783,-36.1413C191.809,-73.116 107.74,-157.184 66.3821,-198.542"/>
<polygon fill="#e7b6ff" stroke="#e7b6ff" points="64.2776,-196.687 60.6007,-204.324 68.2375,-200.647 64.2776,-196.687"/>
</a>
</g>
<!-- WRNIP1&#45;&gt;TBX5 -->
<g id="edge50" class="edge"><title>WRNIP1&#45;&gt;TBX5</title>
<a xlink:title="TBX5: 0.233||remove31">
<path fill="none" stroke="#e5b0ff" stroke-width="3" d="M219.112,-18C211.721,-18 203.64,-18 195.904,-18"/>
<polygon fill="#e5b0ff" stroke="#e5b0ff" points="195.695,-15.1999 187.695,-18 195.695,-20.7999 195.695,-15.1999"/>
</a>
</g>
<!-- WRNIP1&#45;&gt;SOX10_SOX15 -->
<g id="edge54" class="edge"><title>WRNIP1&#45;&gt;SOX10_SOX15</title>
<a xlink:title="SOX15: 0.026||remove9root">
<path fill="none" stroke="#edc8ff" stroke-width="3" d="M219.355,-33.9173C183.68,-54.5143 121.33,-90.5119 80.9974,-113.798"/>
<polygon fill="#edc8ff" stroke="#edc8ff" points="79.5093,-111.424 73.9811,-117.849 82.3094,-116.274 79.5093,-111.424"/>
</a>
</g>
<!-- WRNIP1&#45;&gt;WRNIP1 -->
<g id="edge58" class="edge"><title>WRNIP1&#45;&gt;WRNIP1</title>
<a xlink:title="WRNIP1: 0.003||remove1root">
<path fill="none" stroke="#eecbff" stroke-width="3" d="M274.609,-24.7484C284.188,-24.8198 291.925,-22.5703 291.925,-18 291.925,-14.8579 288.268,-12.8128 282.87,-11.8646"/>
<polygon fill="#eecbff" stroke="#eecbff" points="282.794,-9.05141 274.609,-11.2516 282.38,-14.6361 282.794,-9.05141"/>
</a>
</g>
<!-- TAL1 -->
<g id="node31" class="node"><title>TAL1</title>
<a xlink:href="TAL1.svg" xlink:title="Z&#45;value: 0.928||remove41">
<polygon fill="#808dff" stroke="#808dff" stroke-width="2" points="336.749,-79.2 306.749,-79.2 294.749,-67.2 294.749,-55.2 306.749,-43.2 336.749,-43.2 348.749,-55.2 348.749,-67.2 336.749,-79.2"/>
<path fill="#808dff" stroke="#808dff" stroke-width="2" d="M306.749,-79.2C300.749,-79.2 294.749,-73.2 294.749,-67.2"/>
<path fill="#808dff" stroke="#808dff" stroke-width="2" d="M294.749,-55.2C294.749,-49.2 300.749,-43.2 306.749,-43.2"/>
<path fill="#808dff" stroke="#808dff" stroke-width="2" d="M336.749,-43.2C342.749,-43.2 348.749,-49.2 348.749,-55.2"/>
<path fill="#808dff" stroke="#808dff" stroke-width="2" d="M348.749,-67.2C348.749,-73.2 342.749,-79.2 336.749,-79.2"/>
<polyline fill="none" stroke="white" stroke-width="2" points="336.749,-79.2 306.749,-79.2 "/>
<path fill="none" stroke="white" stroke-width="2" d="M306.749,-79.2C300.749,-79.2 294.749,-73.2 294.749,-67.2"/>
<polyline fill="none" stroke="white" stroke-width="2" points="294.749,-67.2 294.749,-55.2 "/>
<path fill="none" stroke="white" stroke-width="2" d="M294.749,-55.2C294.749,-49.2 300.749,-43.2 306.749,-43.2"/>
<polyline fill="none" stroke="white" stroke-width="2" points="306.749,-43.2 336.749,-43.2 "/>
<path fill="none" stroke="white" stroke-width="2" d="M336.749,-43.2C342.749,-43.2 348.749,-49.2 348.749,-55.2"/>
<polyline fill="none" stroke="white" stroke-width="2" points="348.749,-55.2 348.749,-67.2 "/>
<path fill="none" stroke="white" stroke-width="2" d="M348.749,-67.2C348.749,-73.2 342.749,-79.2 336.749,-79.2"/>
<text text-anchor="middle" x="321.749" y="-58.7" font-family="Helvetica,sans-Serif" font-size="10.00">TAL1</text>
</a>
</g>
<!-- WRNIP1&#45;&gt;TAL1 -->
<g id="edge40" class="edge"><title>WRNIP1&#45;&gt;TAL1</title>
<a xlink:title="TAL1: 0.078||remove21root">
<path fill="none" stroke="#ebc2ff" stroke-width="3" d="M274.787,-34.0861C278.939,-36.4835 283.26,-38.978 287.525,-41.4404"/>
<polygon fill="#ebc2ff" stroke="#ebc2ff" points="286.282,-43.9561 294.61,-45.5313 289.082,-39.1063 286.282,-43.9561"/>
</a>
</g>
<!-- MAFB -->
<g id="node34" class="node"><title>MAFB</title>
<a xlink:href="MAFB.svg" xlink:title="Z&#45;value: 0.960||remove33">
<polygon fill="#7d8aff" stroke="#7d8aff" stroke-width="2" points="379.949,-154.025 349.949,-154.025 337.949,-142.025 337.949,-130.025 349.949,-118.025 379.949,-118.025 391.949,-130.025 391.949,-142.025 379.949,-154.025"/>
<path fill="#7d8aff" stroke="#7d8aff" stroke-width="2" d="M349.949,-154.025C343.949,-154.025 337.949,-148.025 337.949,-142.025"/>
<path fill="#7d8aff" stroke="#7d8aff" stroke-width="2" d="M337.949,-130.025C337.949,-124.025 343.949,-118.025 349.949,-118.025"/>
<path fill="#7d8aff" stroke="#7d8aff" stroke-width="2" d="M379.949,-118.025C385.949,-118.025 391.949,-124.025 391.949,-130.025"/>
<path fill="#7d8aff" stroke="#7d8aff" stroke-width="2" d="M391.949,-142.025C391.949,-148.025 385.949,-154.025 379.949,-154.025"/>
<polyline fill="none" stroke="white" stroke-width="2" points="379.949,-154.025 349.949,-154.025 "/>
<path fill="none" stroke="white" stroke-width="2" d="M349.949,-154.025C343.949,-154.025 337.949,-148.025 337.949,-142.025"/>
<polyline fill="none" stroke="white" stroke-width="2" points="337.949,-142.025 337.949,-130.025 "/>
<path fill="none" stroke="white" stroke-width="2" d="M337.949,-130.025C337.949,-124.025 343.949,-118.025 349.949,-118.025"/>
<polyline fill="none" stroke="white" stroke-width="2" points="349.949,-118.025 379.949,-118.025 "/>
<path fill="none" stroke="white" stroke-width="2" d="M379.949,-118.025C385.949,-118.025 391.949,-124.025 391.949,-130.025"/>
<polyline fill="none" stroke="white" stroke-width="2" points="391.949,-130.025 391.949,-142.025 "/>
<path fill="none" stroke="white" stroke-width="2" d="M391.949,-142.025C391.949,-148.025 385.949,-154.025 379.949,-154.025"/>
<text text-anchor="middle" x="364.949" y="-133.525" font-family="Helvetica,sans-Serif" font-size="10.00">MAFB</text>
</a>
</g>
<!-- WRNIP1&#45;&gt;MAFB -->
<g id="edge44" class="edge"><title>WRNIP1&#45;&gt;MAFB</title>
<a xlink:title="MAFB: 0.102||remove24root">
<path fill="none" stroke="#eabfff" stroke-width="3" d="M256.877,-36.0841C264.866,-49.6451 276.945,-68.1833 290.429,-82.08 302.363,-94.3789 317.384,-105.845 330.808,-115.015"/>
<polygon fill="#eabfff" stroke="#eabfff" points="329.45,-117.475 337.657,-119.593 332.562,-112.82 329.45,-117.475"/>
</a>
</g>
<!-- TAL1&#45;&gt;YBX1_FOS_NFYC_NFYA_NFYB_CEBPZ -->
<g id="edge106" class="edge"><title>TAL1&#45;&gt;YBX1_FOS_NFYC_NFYA_NFYB_CEBPZ</title>
<a xlink:title="FOS: 0.042||YBX1: 0.001||remove13root">
<path fill="none" stroke="#edc6ff" stroke-width="3" d="M322.279,-79.5445C323.244,-99.0746 325.964,-130.712 333.629,-156.905 337.667,-170.702 344.321,-185.206 350.46,-197.051"/>
<polygon fill="#edc6ff" stroke="#edc6ff" points="348.153,-198.675 354.387,-204.417 353.094,-196.04 348.153,-198.675"/>
</a>
</g>
<!-- TAL1&#45;&gt;ZIC2_GLI1 -->
<g id="edge96" class="edge"><title>TAL1&#45;&gt;ZIC2_GLI1</title>
<a xlink:title="GLI1: 0.015||remove6root">
<path fill="none" stroke="#eecaff" stroke-width="3" d="M308.103,-79.4913C289.884,-105.17 258.529,-154.098 246.629,-201.545 242.114,-219.547 238.157,-226.791 246.629,-243.305 254.306,-258.268 268.276,-270.017 282.104,-278.678"/>
<polygon fill="#eecaff" stroke="#eecaff" points="280.977,-281.264 289.289,-282.926 283.828,-276.444 280.977,-281.264"/>
</a>
</g>
<!-- TAL1&#45;&gt;GATA2 -->
<g id="edge100" class="edge"><title>TAL1&#45;&gt;GATA2</title>
<a xlink:title="GATA2: 0.009||remove3root">
<path fill="none" stroke="#eecaff" stroke-width="3" d="M308.103,-79.4913C289.884,-105.17 258.529,-154.098 246.629,-201.545 237.06,-239.701 239.806,-285.63 243.058,-313.934"/>
<polygon fill="#eecaff" stroke="#eecaff" points="240.31,-314.528 244.07,-322.124 245.867,-313.84 240.31,-314.528"/>
</a>
</g>
<!-- TAL1&#45;&gt;HLF_TEF -->
<g id="edge108" class="edge"><title>TAL1&#45;&gt;HLF_TEF</title>
<a xlink:title="TEF: 0.031||remove10root">
<path fill="none" stroke="#edc8ff" stroke-width="3" d="M311.171,-79.5223C283.146,-128.063 206.949,-260.04 174.965,-315.438"/>
<polygon fill="#edc8ff" stroke="#edc8ff" points="172.508,-314.094 170.932,-322.422 177.357,-316.894 172.508,-314.094"/>
</a>
</g>
<!-- TAL1&#45;&gt;VDR -->
<g id="edge94" class="edge"><title>TAL1&#45;&gt;VDR</title>
<a xlink:title="VDR: 0.103||remove26root">
<path fill="none" stroke="#eabfff" stroke-width="3" d="M313.509,-79.5861C300.133,-107.95 271.485,-162.977 235.045,-200.105 201.046,-234.744 152.615,-263.418 120.218,-280.424"/>
<polygon fill="#eabfff" stroke="#eabfff" points="118.57,-278.124 112.751,-284.287 121.143,-283.098 118.57,-278.124"/>
</a>
</g>
<!-- TAL1&#45;&gt;MESP1 -->
<g id="edge98" class="edge"><title>TAL1&#45;&gt;MESP1</title>
<a xlink:title="MESP1: 0.229||remove41root">
<path fill="none" stroke="#b0b8ff" stroke-width="3" d="M303.567,-79.3827C283.148,-99.8017 249.937,-133.013 227.48,-155.469"/>
<polygon fill="#b0b8ff" stroke="#b0b8ff" points="225.411,-153.578 221.734,-161.215 229.371,-157.538 225.411,-153.578"/>
</a>
</g>
<!-- TAL1&#45;&gt;DRGX_PROP1 -->
<g id="edge102" class="edge"><title>TAL1&#45;&gt;DRGX_PROP1</title>
<a xlink:title="PROP1: 0.081||DRGX: 0.003||remove23root">
<path fill="none" stroke="#ebc2ff" stroke-width="3" d="M294.72,-76.8054C244.84,-105.603 138.194,-167.176 80.8556,-200.28"/>
<polygon fill="#ebc2ff" stroke="#ebc2ff" points="79.3057,-197.942 73.7775,-204.367 82.1057,-202.791 79.3057,-197.942"/>
</a>
</g>
<!-- TAL1&#45;&gt;TBX5 -->
<g id="edge104" class="edge"><title>TAL1&#45;&gt;TBX5</title>
<a xlink:title="TBX5: 0.051||remove15root">
<path fill="none" stroke="#ecc5ff" stroke-width="3" d="M294.544,-56.8169C272.669,-52.9883 241.27,-46.8052 214.445,-38.88 208.217,-37.0401 201.694,-34.7969 195.422,-32.4716"/>
<polygon fill="#ecc5ff" stroke="#ecc5ff" points="196.126,-29.7434 187.654,-29.5065 194.129,-34.9752 196.126,-29.7434"/>
</a>
</g>
<!-- MAFB&#45;&gt;YBX1_FOS_NFYC_NFYA_NFYB_CEBPZ -->
<g id="edge90" class="edge"><title>MAFB&#45;&gt;YBX1_FOS_NFYC_NFYA_NFYB_CEBPZ</title>
<a xlink:title="YBX1: 0.108||remove28root">
<path fill="none" stroke="#eabfff" stroke-width="3" d="M364.949,-154.348C364.949,-166.572 364.949,-182.828 364.949,-196.389"/>
<polygon fill="#eabfff" stroke="#eabfff" points="362.149,-196.424 364.949,-204.424 367.749,-196.424 362.149,-196.424"/>
</a>
</g>
<!-- MAFB&#45;&gt;RCOR1_MTA3 -->
<g id="edge92" class="edge"><title>MAFB&#45;&gt;RCOR1_MTA3</title>
<a xlink:title="RCOR1: 0.120||MTA3: 0.034||remove30root">
<path fill="none" stroke="#eabdff" stroke-width="3" d="M337.92,-128.782C291.119,-116.242 194.344,-90.3112 135.213,-74.467"/>
<polygon fill="#eabdff" stroke="#eabdff" points="135.581,-71.6668 127.128,-72.3007 134.131,-77.0759 135.581,-71.6668"/>
</a>
</g>
<!-- MAFB&#45;&gt;MESP1 -->
<g id="edge86" class="edge"><title>MAFB&#45;&gt;MESP1</title>
<a xlink:title="MESP1: 0.131||remove33root">
<path fill="none" stroke="#bcc2ff" stroke-width="3" d="M337.6,-143.353C310.418,-150.636 268.613,-161.838 238.958,-169.784"/>
<polygon fill="#bcc2ff" stroke="#bcc2ff" points="237.941,-167.157 230.939,-171.933 239.391,-172.567 237.941,-167.157"/>
</a>
</g>
<!-- MAFB&#45;&gt;TAL1 -->
<g id="edge84" class="edge"><title>MAFB&#45;&gt;TAL1</title>
<a xlink:title="TAL1: 0.056||MAFB: 0.010||remove17root">
<path fill="none" stroke="#ecc5ff" stroke-width="3" d="M349.477,-111.225C344.936,-103.361 339.934,-94.6968 335.4,-86.8435"/>
<path fill="none" stroke="#eecaff" stroke-width="3" d="M351.209,-110.225C346.668,-102.361 341.666,-93.6968 337.132,-85.8435"/>
<polygon fill="#eecaff" stroke="#eecaff" points="348.067,-112.383 354.492,-117.912 352.917,-109.583 348.067,-112.383"/>
<polygon fill="#ecc5ff" stroke="#ecc5ff" points="338.685,-84.9337 332.26,-79.4055 333.835,-87.7337 338.685,-84.9337"/>
</a>
</g>
<!-- MAFB&#45;&gt;MAFB -->
<g id="edge88" class="edge"><title>MAFB&#45;&gt;MAFB</title>
<a xlink:title="MAFB: 0.024||remove8root">
<path fill="none" stroke="#edc9ff" stroke-width="3" d="M392.19,-142.768C401.973,-142.913 409.949,-140.665 409.949,-136.025 409.949,-132.762 406.006,-130.682 400.264,-129.785"/>
<polygon fill="#edc9ff" stroke="#edc9ff" points="400.349,-126.985 392.19,-129.281 400,-132.574 400.349,-126.985"/>
</a>
</g>
</g>
</svg>
