<?xml version="1.0" encoding="UTF-8" standalone="no"?>
<!DOCTYPE svg PUBLIC "-//W3C//DTD SVG 1.1//EN"
 "http://www.w3.org/Graphics/SVG/1.1/DTD/svg11.dtd">
<!-- Generated by graphviz version 2.28.0 (20110630.0925)
 -->
<!-- Title: _anonymous_0 Pages: 1 -->
<svg width="457pt" height="396pt"
 viewBox="0.00 0.00 456.56 395.56" xmlns="http://www.w3.org/2000/svg" xmlns:xlink="http://www.w3.org/1999/xlink">
<g id="graph1" class="graph" transform="scale(1 1) rotate(0) translate(4 391.559)">
<title>_anonymous_0</title>
<polygon fill="white" stroke="white" points="-4,5 -4,-391.559 453.559,-391.559 453.559,5 -4,5"/>
<!-- ESR1 -->
<g id="node1" class="node"><title>ESR1</title>
<a xlink:href="ESR1.svg" xlink:title="Z&#45;value: 6.597||remove34">
<polygon fill="#3247ff" stroke="#3247ff" stroke-width="2" points="212.68,-387.559 182.68,-387.559 170.68,-375.559 170.68,-363.559 182.68,-351.559 212.68,-351.559 224.68,-363.559 224.68,-375.559 212.68,-387.559"/>
<path fill="#3247ff" stroke="#3247ff" stroke-width="2" d="M182.68,-387.559C176.68,-387.559 170.68,-381.559 170.68,-375.559"/>
<path fill="#3247ff" stroke="#3247ff" stroke-width="2" d="M170.68,-363.559C170.68,-357.559 176.68,-351.559 182.68,-351.559"/>
<path fill="#3247ff" stroke="#3247ff" stroke-width="2" d="M212.68,-351.559C218.68,-351.559 224.68,-357.559 224.68,-363.559"/>
<path fill="#3247ff" stroke="#3247ff" stroke-width="2" d="M224.68,-375.559C224.68,-381.559 218.68,-387.559 212.68,-387.559"/>
<polyline fill="none" stroke="white" stroke-width="2" points="212.68,-387.559 182.68,-387.559 "/>
<path fill="none" stroke="white" stroke-width="2" d="M182.68,-387.559C176.68,-387.559 170.68,-381.559 170.68,-375.559"/>
<polyline fill="none" stroke="white" stroke-width="2" points="170.68,-375.559 170.68,-363.559 "/>
<path fill="none" stroke="white" stroke-width="2" d="M170.68,-363.559C170.68,-357.559 176.68,-351.559 182.68,-351.559"/>
<polyline fill="none" stroke="white" stroke-width="2" points="182.68,-351.559 212.68,-351.559 "/>
<path fill="none" stroke="white" stroke-width="2" d="M212.68,-351.559C218.68,-351.559 224.68,-357.559 224.68,-363.559"/>
<polyline fill="none" stroke="white" stroke-width="2" points="224.68,-363.559 224.68,-375.559 "/>
<path fill="none" stroke="white" stroke-width="2" d="M224.68,-375.559C224.68,-381.559 218.68,-387.559 212.68,-387.559"/>
<text text-anchor="middle" x="197.68" y="-367.059" font-family="Helvetica,sans-Serif" font-size="10.00" fill="white">ESR1</text>
</a>
</g>
<!-- MNT_HEY1_HEY2 -->
<g id="node2" class="node"><title>MNT_HEY1_HEY2</title>
<a xlink:href="MNT_HEY1_HEY2.svg" xlink:title="Z&#45;value: 0.774||remove35">
<polygon fill="#ffbaba" stroke="#ffbaba" stroke-width="2" points="283.03,-211.78 206.53,-211.78 194.53,-199.78 194.53,-187.78 206.53,-175.78 283.03,-175.78 295.03,-187.78 295.03,-199.78 283.03,-211.78"/>
<path fill="#ffbaba" stroke="#ffbaba" stroke-width="2" d="M206.53,-211.78C200.53,-211.78 194.53,-205.78 194.53,-199.78"/>
<path fill="#ffbaba" stroke="#ffbaba" stroke-width="2" d="M194.53,-187.78C194.53,-181.78 200.53,-175.78 206.53,-175.78"/>
<path fill="#ffbaba" stroke="#ffbaba" stroke-width="2" d="M283.03,-175.78C289.03,-175.78 295.03,-181.78 295.03,-187.78"/>
<path fill="#ffbaba" stroke="#ffbaba" stroke-width="2" d="M295.03,-199.78C295.03,-205.78 289.03,-211.78 283.03,-211.78"/>
<polyline fill="none" stroke="white" stroke-width="2" points="283.03,-211.78 206.53,-211.78 "/>
<path fill="none" stroke="white" stroke-width="2" d="M206.53,-211.78C200.53,-211.78 194.53,-205.78 194.53,-199.78"/>
<polyline fill="none" stroke="white" stroke-width="2" points="194.53,-199.78 194.53,-187.78 "/>
<path fill="none" stroke="white" stroke-width="2" d="M194.53,-187.78C194.53,-181.78 200.53,-175.78 206.53,-175.78"/>
<polyline fill="none" stroke="white" stroke-width="2" points="206.53,-175.78 283.03,-175.78 "/>
<path fill="none" stroke="white" stroke-width="2" d="M283.03,-175.78C289.03,-175.78 295.03,-181.78 295.03,-187.78"/>
<polyline fill="none" stroke="white" stroke-width="2" points="295.03,-187.78 295.03,-199.78 "/>
<path fill="none" stroke="white" stroke-width="2" d="M295.03,-199.78C295.03,-205.78 289.03,-211.78 283.03,-211.78"/>
<text text-anchor="middle" x="244.78" y="-191.28" font-family="Helvetica,sans-Serif" font-size="10.00">MNT_HEY1_HEY2</text>
</a>
</g>
<!-- ESR1&#45;&gt;MNT_HEY1_HEY2 -->
<g id="edge2" class="edge"><title>ESR1&#45;&gt;MNT_HEY1_HEY2</title>
<a xlink:title="MNT: 3.579||remove34root">
<path fill="none" stroke="#3247ff" stroke-width="3" d="M202.543,-351.41C210.92,-320.145 228.102,-256.02 237.771,-219.936"/>
<polygon fill="#3247ff" stroke="#3247ff" points="240.577,-220.282 239.943,-211.83 235.168,-218.833 240.577,-220.282"/>
</a>
</g>
<!-- PPARG -->
<g id="node4" class="node"><title>PPARG</title>
<a xlink:href="PPARG.svg" xlink:title="Z&#45;value: 0.983||remove29">
<polygon fill="#b5bcff" stroke="#b5bcff" stroke-width="2" points="131.1,-340.459 101.1,-340.459 89.1,-328.459 89.1,-316.459 101.1,-304.459 131.1,-304.459 143.1,-316.459 143.1,-328.459 131.1,-340.459"/>
<path fill="#b5bcff" stroke="#b5bcff" stroke-width="2" d="M101.1,-340.459C95.1,-340.459 89.1,-334.459 89.1,-328.459"/>
<path fill="#b5bcff" stroke="#b5bcff" stroke-width="2" d="M89.1,-316.459C89.1,-310.459 95.1,-304.459 101.1,-304.459"/>
<path fill="#b5bcff" stroke="#b5bcff" stroke-width="2" d="M131.1,-304.459C137.1,-304.459 143.1,-310.459 143.1,-316.459"/>
<path fill="#b5bcff" stroke="#b5bcff" stroke-width="2" d="M143.1,-328.459C143.1,-334.459 137.1,-340.459 131.1,-340.459"/>
<polyline fill="none" stroke="white" stroke-width="2" points="131.1,-340.459 101.1,-340.459 "/>
<path fill="none" stroke="white" stroke-width="2" d="M101.1,-340.459C95.1,-340.459 89.1,-334.459 89.1,-328.459"/>
<polyline fill="none" stroke="white" stroke-width="2" points="89.1,-328.459 89.1,-316.459 "/>
<path fill="none" stroke="white" stroke-width="2" d="M89.1,-316.459C89.1,-310.459 95.1,-304.459 101.1,-304.459"/>
<polyline fill="none" stroke="white" stroke-width="2" points="101.1,-304.459 131.1,-304.459 "/>
<path fill="none" stroke="white" stroke-width="2" d="M131.1,-304.459C137.1,-304.459 143.1,-310.459 143.1,-316.459"/>
<polyline fill="none" stroke="white" stroke-width="2" points="143.1,-316.459 143.1,-328.459 "/>
<path fill="none" stroke="white" stroke-width="2" d="M143.1,-328.459C143.1,-334.459 137.1,-340.459 131.1,-340.459"/>
<text text-anchor="middle" x="116.1" y="-319.959" font-family="Helvetica,sans-Serif" font-size="10.00">PPARG</text>
</a>
</g>
<!-- ESR1&#45;&gt;PPARG -->
<g id="edge4" class="edge"><title>ESR1&#45;&gt;PPARG</title>
<a xlink:title="PPARG: 0.797||remove29">
<path fill="none" stroke="#e3a9ff" stroke-width="3" d="M170.515,-353.876C164.047,-350.142 157.064,-346.11 150.326,-342.219"/>
<polygon fill="#e3a9ff" stroke="#e3a9ff" points="151.474,-339.65 143.146,-338.074 148.674,-344.499 151.474,-339.65"/>
</a>
</g>
<!-- HOXC13 -->
<g id="node7" class="node"><title>HOXC13</title>
<a xlink:href="HOXC13.svg" xlink:title="Z&#45;value: 0.478||remove24">
<polygon fill="#c0c7ff" stroke="#c0c7ff" stroke-width="2" points="436.059,-258.88 405.059,-258.88 393.059,-246.88 393.059,-234.88 405.059,-222.88 436.059,-222.88 448.059,-234.88 448.059,-246.88 436.059,-258.88"/>
<path fill="#c0c7ff" stroke="#c0c7ff" stroke-width="2" d="M405.059,-258.88C399.059,-258.88 393.059,-252.88 393.059,-246.88"/>
<path fill="#c0c7ff" stroke="#c0c7ff" stroke-width="2" d="M393.059,-234.88C393.059,-228.88 399.059,-222.88 405.059,-222.88"/>
<path fill="#c0c7ff" stroke="#c0c7ff" stroke-width="2" d="M436.059,-222.88C442.059,-222.88 448.059,-228.88 448.059,-234.88"/>
<path fill="#c0c7ff" stroke="#c0c7ff" stroke-width="2" d="M448.059,-246.88C448.059,-252.88 442.059,-258.88 436.059,-258.88"/>
<polyline fill="none" stroke="white" stroke-width="2" points="436.059,-258.88 405.059,-258.88 "/>
<path fill="none" stroke="white" stroke-width="2" d="M405.059,-258.88C399.059,-258.88 393.059,-252.88 393.059,-246.88"/>
<polyline fill="none" stroke="white" stroke-width="2" points="393.059,-246.88 393.059,-234.88 "/>
<path fill="none" stroke="white" stroke-width="2" d="M393.059,-234.88C393.059,-228.88 399.059,-222.88 405.059,-222.88"/>
<polyline fill="none" stroke="white" stroke-width="2" points="405.059,-222.88 436.059,-222.88 "/>
<path fill="none" stroke="white" stroke-width="2" d="M436.059,-222.88C442.059,-222.88 448.059,-228.88 448.059,-234.88"/>
<polyline fill="none" stroke="white" stroke-width="2" points="448.059,-234.88 448.059,-246.88 "/>
<path fill="none" stroke="white" stroke-width="2" d="M448.059,-246.88C448.059,-252.88 442.059,-258.88 436.059,-258.88"/>
<text text-anchor="middle" x="420.559" y="-238.38" font-family="Helvetica,sans-Serif" font-size="10.00">HOXC13</text>
</a>
</g>
<!-- MNT_HEY1_HEY2&#45;&gt;HOXC13 -->
<g id="edge8" class="edge"><title>MNT_HEY1_HEY2&#45;&gt;HOXC13</title>
<a xlink:title="HOXC13: 0.321||remove24root">
<path fill="none" stroke="#ffbebe" stroke-width="3" d="M295.151,-207.277C323.621,-214.905 358.557,-224.266 384.318,-231.169"/>
<polygon fill="#ffbebe" stroke="#ffbebe" points="383.887,-233.952 392.339,-233.318 385.337,-228.543 383.887,-233.952"/>
</a>
</g>
<!-- EN1_ESX1_GBX1 -->
<g id="node9" class="node"><title>EN1_ESX1_GBX1</title>
<a xlink:href="EN1_ESX1_GBX1.svg" xlink:title="Z&#45;value: 0.484||remove20">
<polygon fill="#c0c7ff" stroke="#c0c7ff" stroke-width="2" points="409.959,-340.459 336.959,-340.459 324.959,-328.459 324.959,-316.459 336.959,-304.459 409.959,-304.459 421.959,-316.459 421.959,-328.459 409.959,-340.459"/>
<path fill="#c0c7ff" stroke="#c0c7ff" stroke-width="2" d="M336.959,-340.459C330.959,-340.459 324.959,-334.459 324.959,-328.459"/>
<path fill="#c0c7ff" stroke="#c0c7ff" stroke-width="2" d="M324.959,-316.459C324.959,-310.459 330.959,-304.459 336.959,-304.459"/>
<path fill="#c0c7ff" stroke="#c0c7ff" stroke-width="2" d="M409.959,-304.459C415.959,-304.459 421.959,-310.459 421.959,-316.459"/>
<path fill="#c0c7ff" stroke="#c0c7ff" stroke-width="2" d="M421.959,-328.459C421.959,-334.459 415.959,-340.459 409.959,-340.459"/>
<polyline fill="none" stroke="white" stroke-width="2" points="409.959,-340.459 336.959,-340.459 "/>
<path fill="none" stroke="white" stroke-width="2" d="M336.959,-340.459C330.959,-340.459 324.959,-334.459 324.959,-328.459"/>
<polyline fill="none" stroke="white" stroke-width="2" points="324.959,-328.459 324.959,-316.459 "/>
<path fill="none" stroke="white" stroke-width="2" d="M324.959,-316.459C324.959,-310.459 330.959,-304.459 336.959,-304.459"/>
<polyline fill="none" stroke="white" stroke-width="2" points="336.959,-304.459 409.959,-304.459 "/>
<path fill="none" stroke="white" stroke-width="2" d="M409.959,-304.459C415.959,-304.459 421.959,-310.459 421.959,-316.459"/>
<polyline fill="none" stroke="white" stroke-width="2" points="421.959,-316.459 421.959,-328.459 "/>
<path fill="none" stroke="white" stroke-width="2" d="M421.959,-328.459C421.959,-334.459 415.959,-340.459 409.959,-340.459"/>
<text text-anchor="middle" x="373.459" y="-319.959" font-family="Helvetica,sans-Serif" font-size="10.00">EN1_ESX1_GBX1</text>
</a>
</g>
<!-- MNT_HEY1_HEY2&#45;&gt;EN1_ESX1_GBX1 -->
<g id="edge10" class="edge"><title>MNT_HEY1_HEY2&#45;&gt;EN1_ESX1_GBX1</title>
<a xlink:title="EN1: 0.273||remove20root">
<path fill="none" stroke="#ffc0c0" stroke-width="3" d="M262.943,-211.943C285.648,-234.648 324.567,-273.567 349.64,-298.64"/>
<polygon fill="#ffc0c0" stroke="#ffc0c0" points="347.751,-300.711 355.388,-304.388 351.711,-296.751 347.751,-300.711"/>
</a>
</g>
<!-- NFIX_NFIB -->
<g id="node11" class="node"><title>NFIX_NFIB</title>
<a xlink:href="NFIX_NFIB.svg" xlink:title="Z&#45;value: 1.099||remove31">
<polygon fill="#b2baff" stroke="#b2baff" stroke-width="2" points="313.88,-387.559 269.88,-387.559 257.88,-375.559 257.88,-363.559 269.88,-351.559 313.88,-351.559 325.88,-363.559 325.88,-375.559 313.88,-387.559"/>
<path fill="#b2baff" stroke="#b2baff" stroke-width="2" d="M269.88,-387.559C263.88,-387.559 257.88,-381.559 257.88,-375.559"/>
<path fill="#b2baff" stroke="#b2baff" stroke-width="2" d="M257.88,-363.559C257.88,-357.559 263.88,-351.559 269.88,-351.559"/>
<path fill="#b2baff" stroke="#b2baff" stroke-width="2" d="M313.88,-351.559C319.88,-351.559 325.88,-357.559 325.88,-363.559"/>
<path fill="#b2baff" stroke="#b2baff" stroke-width="2" d="M325.88,-375.559C325.88,-381.559 319.88,-387.559 313.88,-387.559"/>
<polyline fill="none" stroke="white" stroke-width="2" points="313.88,-387.559 269.88,-387.559 "/>
<path fill="none" stroke="white" stroke-width="2" d="M269.88,-387.559C263.88,-387.559 257.88,-381.559 257.88,-375.559"/>
<polyline fill="none" stroke="white" stroke-width="2" points="257.88,-375.559 257.88,-363.559 "/>
<path fill="none" stroke="white" stroke-width="2" d="M257.88,-363.559C257.88,-357.559 263.88,-351.559 269.88,-351.559"/>
<polyline fill="none" stroke="white" stroke-width="2" points="269.88,-351.559 313.88,-351.559 "/>
<path fill="none" stroke="white" stroke-width="2" d="M313.88,-351.559C319.88,-351.559 325.88,-357.559 325.88,-363.559"/>
<polyline fill="none" stroke="white" stroke-width="2" points="325.88,-363.559 325.88,-375.559 "/>
<path fill="none" stroke="white" stroke-width="2" d="M325.88,-375.559C325.88,-381.559 319.88,-387.559 313.88,-387.559"/>
<text text-anchor="middle" x="291.88" y="-367.059" font-family="Helvetica,sans-Serif" font-size="10.00">NFIX_NFIB</text>
</a>
</g>
<!-- MNT_HEY1_HEY2&#45;&gt;NFIX_NFIB -->
<g id="edge12" class="edge"><title>MNT_HEY1_HEY2&#45;&gt;NFIX_NFIB</title>
<a xlink:title="NFIX: 0.586||HEY2: 0.034||remove31root">
<path fill="none" stroke="#ffb2b2" stroke-width="3" d="M252.785,-219.792C261.713,-253.11 277.011,-310.206 285.896,-343.364"/>
<path fill="none" stroke="#cacfff" stroke-width="3" d="M250.853,-220.309C259.781,-253.628 275.079,-310.724 283.964,-343.882"/>
<polygon fill="#cacfff" stroke="#cacfff" points="254.418,-218.932 249.643,-211.929 249.009,-220.381 254.418,-218.932"/>
<polygon fill="#ffb2b2" stroke="#ffb2b2" points="282.268,-344.506 287.043,-351.508 287.677,-343.056 282.268,-344.506"/>
</a>
</g>
<!-- PPARG&#45;&gt;MNT_HEY1_HEY2 -->
<g id="edge6" class="edge"><title>PPARG&#45;&gt;MNT_HEY1_HEY2</title>
<a xlink:title="MNT: 0.476||remove29root">
<path fill="none" stroke="#b7beff" stroke-width="3" d="M134.264,-304.295C156.968,-281.591 195.887,-242.672 220.96,-217.599"/>
<polygon fill="#b7beff" stroke="#b7beff" points="223.031,-219.488 226.708,-211.851 219.071,-215.528 223.031,-219.488"/>
</a>
</g>
<!-- EN1_ESX1_GBX1&#45;&gt;ESR1 -->
<g id="edge88" class="edge"><title>EN1_ESX1_GBX1&#45;&gt;ESR1</title>
<a xlink:title="ESR1: 0.023||remove2root">
<path fill="none" stroke="#eecbff" stroke-width="3" d="M324.746,-331.268C302.5,-335.736 275.932,-341.699 252.44,-348.679 245.85,-350.637 238.925,-353.016 232.3,-355.457"/>
<polygon fill="#eecbff" stroke="#eecbff" points="231.192,-352.882 224.698,-358.33 233.172,-358.121 231.192,-352.882"/>
</a>
</g>
<!-- NFIX_NFIB&#45;&gt;ESR1 -->
<g id="edge36" class="edge"><title>NFIX_NFIB&#45;&gt;ESR1</title>
<a xlink:title="ESR1: 0.202||remove16root">
<path fill="none" stroke="#ebc3ff" stroke-width="3" d="M257.871,-369.559C249.814,-369.559 241.201,-369.559 233.084,-369.559"/>
<polygon fill="#ebc3ff" stroke="#ebc3ff" points="232.847,-366.759 224.847,-369.559 232.847,-372.359 232.847,-366.759"/>
</a>
</g>
<!-- NFIX_NFIB&#45;&gt;EN1_ESX1_GBX1 -->
<g id="edge32" class="edge"><title>NFIX_NFIB&#45;&gt;EN1_ESX1_GBX1</title>
<a xlink:title="ESX1: 0.010||remove0root">
<path fill="none" stroke="#eecbff" stroke-width="3" d="M323.187,-351.484C327.063,-349.246 331.059,-346.939 335.026,-344.649"/>
<polygon fill="#eecbff" stroke="#eecbff" points="336.572,-346.989 342.101,-340.564 333.772,-342.139 336.572,-346.989"/>
</a>
</g>
<!-- NFIX_NFIB&#45;&gt;NFIX_NFIB -->
<g id="edge38" class="edge"><title>NFIX_NFIB&#45;&gt;NFIX_NFIB</title>
<a xlink:title="NFIX: 0.048||NFIB: 0.022||remove4root">
<path fill="none" stroke="#eec9ff" stroke-width="3" d="M325.888,-376.294C336.006,-376.093 343.88,-373.848 343.88,-369.559 343.88,-366.543 339.987,-364.538 334.159,-363.544"/>
<polygon fill="#eec9ff" stroke="#eec9ff" points="334.101,-360.728 325.888,-362.824 333.615,-366.307 334.101,-360.728"/>
</a>
</g>
<!-- PATZ1_KLF4 -->
<g id="node16" class="node"><title>PATZ1_KLF4</title>
<a xlink:href="PATZ1_KLF4.svg" xlink:title="Z&#45;value: 1.751||remove33">
<polygon fill="#a3acff" stroke="#a3acff" stroke-width="2" points="95,-164.68 43,-164.68 31,-152.68 31,-140.68 43,-128.68 95,-128.68 107,-140.68 107,-152.68 95,-164.68"/>
<path fill="#a3acff" stroke="#a3acff" stroke-width="2" d="M43,-164.68C37,-164.68 31,-158.68 31,-152.68"/>
<path fill="#a3acff" stroke="#a3acff" stroke-width="2" d="M31,-140.68C31,-134.68 37,-128.68 43,-128.68"/>
<path fill="#a3acff" stroke="#a3acff" stroke-width="2" d="M95,-128.68C101,-128.68 107,-134.68 107,-140.68"/>
<path fill="#a3acff" stroke="#a3acff" stroke-width="2" d="M107,-152.68C107,-158.68 101,-164.68 95,-164.68"/>
<polyline fill="none" stroke="white" stroke-width="2" points="95,-164.68 43,-164.68 "/>
<path fill="none" stroke="white" stroke-width="2" d="M43,-164.68C37,-164.68 31,-158.68 31,-152.68"/>
<polyline fill="none" stroke="white" stroke-width="2" points="31,-152.68 31,-140.68 "/>
<path fill="none" stroke="white" stroke-width="2" d="M31,-140.68C31,-134.68 37,-128.68 43,-128.68"/>
<polyline fill="none" stroke="white" stroke-width="2" points="43,-128.68 95,-128.68 "/>
<path fill="none" stroke="white" stroke-width="2" d="M95,-128.68C101,-128.68 107,-134.68 107,-140.68"/>
<polyline fill="none" stroke="white" stroke-width="2" points="107,-140.68 107,-152.68 "/>
<path fill="none" stroke="white" stroke-width="2" d="M107,-152.68C107,-158.68 101,-164.68 95,-164.68"/>
<text text-anchor="middle" x="69" y="-144.18" font-family="Helvetica,sans-Serif" font-size="10.00">PATZ1_KLF4</text>
</a>
</g>
<!-- NFIX_NFIB&#45;&gt;PATZ1_KLF4 -->
<g id="edge34" class="edge"><title>NFIX_NFIB&#45;&gt;PATZ1_KLF4</title>
<a xlink:title="PATZ1: 0.020||NFIX: 0.057||NFIB: 0.041||remove5root">
<path fill="none" stroke="#eecbff" stroke-width="3" d="M268.793,-345.851C241.084,-315.849 192.135,-263.605 148.34,-220.714 130.893,-203.625 110.567,-185.021 94.777,-170.841"/>
<path fill="none" stroke="#edc9ff" stroke-width="3" d="M270.263,-344.494C242.543,-314.482 193.595,-262.238 149.74,-219.285 132.243,-202.15 111.917,-183.546 96.1133,-169.353"/>
<polygon fill="#edc9ff" stroke="#edc9ff" points="267.629,-347.243 275.11,-351.226 271.746,-343.447 267.629,-347.243"/>
<polygon fill="#eecbff" stroke="#eecbff" points="97.2391,-167.945 89.4111,-164.695 93.5038,-172.117 97.2391,-167.945"/>
</a>
</g>
<!-- TFDP1 -->
<g id="node22" class="node"><title>TFDP1</title>
<a xlink:href="TFDP1.svg" xlink:title="Z&#45;value: 1.163||remove25">
<polygon fill="#b1b8ff" stroke="#b1b8ff" stroke-width="2" points="131.1,-83.1 101.1,-83.1 89.1,-71.1 89.1,-59.1 101.1,-47.1 131.1,-47.1 143.1,-59.1 143.1,-71.1 131.1,-83.1"/>
<path fill="#b1b8ff" stroke="#b1b8ff" stroke-width="2" d="M101.1,-83.1C95.1,-83.1 89.1,-77.1 89.1,-71.1"/>
<path fill="#b1b8ff" stroke="#b1b8ff" stroke-width="2" d="M89.1,-59.1C89.1,-53.1 95.1,-47.1 101.1,-47.1"/>
<path fill="#b1b8ff" stroke="#b1b8ff" stroke-width="2" d="M131.1,-47.1C137.1,-47.1 143.1,-53.1 143.1,-59.1"/>
<path fill="#b1b8ff" stroke="#b1b8ff" stroke-width="2" d="M143.1,-71.1C143.1,-77.1 137.1,-83.1 131.1,-83.1"/>
<polyline fill="none" stroke="white" stroke-width="2" points="131.1,-83.1 101.1,-83.1 "/>
<path fill="none" stroke="white" stroke-width="2" d="M101.1,-83.1C95.1,-83.1 89.1,-77.1 89.1,-71.1"/>
<polyline fill="none" stroke="white" stroke-width="2" points="89.1,-71.1 89.1,-59.1 "/>
<path fill="none" stroke="white" stroke-width="2" d="M89.1,-59.1C89.1,-53.1 95.1,-47.1 101.1,-47.1"/>
<polyline fill="none" stroke="white" stroke-width="2" points="101.1,-47.1 131.1,-47.1 "/>
<path fill="none" stroke="white" stroke-width="2" d="M131.1,-47.1C137.1,-47.1 143.1,-53.1 143.1,-59.1"/>
<polyline fill="none" stroke="white" stroke-width="2" points="143.1,-59.1 143.1,-71.1 "/>
<path fill="none" stroke="white" stroke-width="2" d="M143.1,-71.1C143.1,-77.1 137.1,-83.1 131.1,-83.1"/>
<text text-anchor="middle" x="116.1" y="-62.6" font-family="Helvetica,sans-Serif" font-size="10.00">TFDP1</text>
</a>
</g>
<!-- NFIX_NFIB&#45;&gt;TFDP1 -->
<g id="edge40" class="edge"><title>NFIX_NFIB&#45;&gt;TFDP1</title>
<a xlink:title="TFDP1: 0.016||remove1root">
<path fill="none" stroke="#eecbff" stroke-width="3" d="M277.854,-351.113C256.589,-322.702 215.563,-266.122 186.2,-214.66 162.326,-172.819 139.599,-121.49 126.794,-91.1411"/>
<polygon fill="#eecbff" stroke="#eecbff" points="129.279,-89.8261 123.605,-83.5295 124.114,-91.9901 129.279,-89.8261"/>
</a>
</g>
<!-- MXI1_MYC_MYCN -->
<g id="node24" class="node"><title>MXI1_MYC_MYCN</title>
<a xlink:href="MXI1_MYC_MYCN.svg" xlink:title="Z&#45;value: 1.090||remove32">
<polygon fill="#b2baff" stroke="#b2baff" stroke-width="2" points="236.93,-36 158.43,-36 146.43,-24 146.43,-12 158.43,-6.39488e-14 236.93,-6.39488e-14 248.93,-12 248.93,-24 236.93,-36"/>
<path fill="#b2baff" stroke="#b2baff" stroke-width="2" d="M158.43,-36C152.43,-36 146.43,-30 146.43,-24"/>
<path fill="#b2baff" stroke="#b2baff" stroke-width="2" d="M146.43,-12C146.43,-6 152.43,-6.39488e-14 158.43,-6.39488e-14"/>
<path fill="#b2baff" stroke="#b2baff" stroke-width="2" d="M236.93,-6.39488e-14C242.93,-6.39488e-14 248.93,-6 248.93,-12"/>
<path fill="#b2baff" stroke="#b2baff" stroke-width="2" d="M248.93,-24C248.93,-30 242.93,-36 236.93,-36"/>
<polyline fill="none" stroke="white" stroke-width="2" points="236.93,-36 158.43,-36 "/>
<path fill="none" stroke="white" stroke-width="2" d="M158.43,-36C152.43,-36 146.43,-30 146.43,-24"/>
<polyline fill="none" stroke="white" stroke-width="2" points="146.43,-24 146.43,-12 "/>
<path fill="none" stroke="white" stroke-width="2" d="M146.43,-12C146.43,-6 152.43,-6.39488e-14 158.43,-6.39488e-14"/>
<polyline fill="none" stroke="white" stroke-width="2" points="158.43,-6.39488e-14 236.93,-6.39488e-14 "/>
<path fill="none" stroke="white" stroke-width="2" d="M236.93,-6.39488e-14C242.93,-6.39488e-14 248.93,-6 248.93,-12"/>
<polyline fill="none" stroke="white" stroke-width="2" points="248.93,-12 248.93,-24 "/>
<path fill="none" stroke="white" stroke-width="2" d="M248.93,-24C248.93,-30 242.93,-36 236.93,-36"/>
<text text-anchor="middle" x="197.68" y="-15.5" font-family="Helvetica,sans-Serif" font-size="10.00">MXI1_MYC_MYCN</text>
</a>
</g>
<!-- NFIX_NFIB&#45;&gt;MXI1_MYC_MYCN -->
<g id="edge42" class="edge"><title>NFIX_NFIB&#45;&gt;MXI1_MYC_MYCN</title>
<a xlink:title="MYCN: 0.300||remove23root">
<path fill="none" stroke="#eabfff" stroke-width="3" d="M274.037,-351.514C248.707,-324.485 203.481,-270.652 186.2,-214.66 168.056,-155.871 181.081,-82.5939 190.428,-44.2209"/>
<polygon fill="#eabfff" stroke="#eabfff" points="193.226,-44.5769 192.471,-36.1347 187.797,-43.2052 193.226,-44.5769"/>
</a>
</g>
<!-- ZNF711_TFAP2A_TFAP2D -->
<g id="node13" class="node"><title>ZNF711_TFAP2A_TFAP2D</title>
<a xlink:href="ZNF711_TFAP2A_TFAP2D.svg" xlink:title="Z&#45;value: 2.387||remove19">
<polygon fill="#949fff" stroke="#949fff" stroke-width="2" points="126,-258.88 12,-258.88 -2.84217e-14,-246.88 -2.84217e-14,-234.88 12,-222.88 126,-222.88 138,-234.88 138,-246.88 126,-258.88"/>
<path fill="#949fff" stroke="#949fff" stroke-width="2" d="M12,-258.88C6,-258.88 -2.84217e-14,-252.88 -2.84217e-14,-246.88"/>
<path fill="#949fff" stroke="#949fff" stroke-width="2" d="M-2.84217e-14,-234.88C-2.84217e-14,-228.88 6,-222.88 12,-222.88"/>
<path fill="#949fff" stroke="#949fff" stroke-width="2" d="M126,-222.88C132,-222.88 138,-228.88 138,-234.88"/>
<path fill="#949fff" stroke="#949fff" stroke-width="2" d="M138,-246.88C138,-252.88 132,-258.88 126,-258.88"/>
<polyline fill="none" stroke="white" stroke-width="2" points="126,-258.88 12,-258.88 "/>
<path fill="none" stroke="white" stroke-width="2" d="M12,-258.88C6,-258.88 -2.84217e-14,-252.88 -2.84217e-14,-246.88"/>
<polyline fill="none" stroke="white" stroke-width="2" points="-2.84217e-14,-246.88 -2.84217e-14,-234.88 "/>
<path fill="none" stroke="white" stroke-width="2" d="M-2.84217e-14,-234.88C-2.84217e-14,-228.88 6,-222.88 12,-222.88"/>
<polyline fill="none" stroke="white" stroke-width="2" points="12,-222.88 126,-222.88 "/>
<path fill="none" stroke="white" stroke-width="2" d="M126,-222.88C132,-222.88 138,-228.88 138,-234.88"/>
<polyline fill="none" stroke="white" stroke-width="2" points="138,-234.88 138,-246.88 "/>
<path fill="none" stroke="white" stroke-width="2" d="M138,-246.88C138,-252.88 132,-258.88 126,-258.88"/>
<text text-anchor="middle" x="69" y="-238.38" font-family="Helvetica,sans-Serif" font-size="10.00">ZNF711_TFAP2A_TFAP2D</text>
</a>
</g>
<!-- ZNF711_TFAP2A_TFAP2D&#45;&gt;ESR1 -->
<g id="edge20" class="edge"><title>ZNF711_TFAP2A_TFAP2D&#45;&gt;ESR1</title>
<a xlink:title="ESR1: 0.979||remove19">
<path fill="none" stroke="#e1a2ff" stroke-width="3" d="M95.9171,-258.89C111.792,-270.177 131.769,-285.579 147.42,-301.579 160.268,-314.714 172.568,-331.257 181.784,-344.736"/>
<polygon fill="#e1a2ff" stroke="#e1a2ff" points="179.524,-346.391 186.309,-351.47 184.172,-343.268 179.524,-346.391"/>
</a>
</g>
<!-- ZNF711_TFAP2A_TFAP2D&#45;&gt;MNT_HEY1_HEY2 -->
<g id="edge14" class="edge"><title>ZNF711_TFAP2A_TFAP2D&#45;&gt;MNT_HEY1_HEY2</title>
<a xlink:title="MNT: 0.271||remove19root">
<path fill="none" stroke="#c0c6ff" stroke-width="3" d="M136.207,-222.872C152.782,-218.43 170.397,-213.71 186.509,-209.393"/>
<polygon fill="#c0c6ff" stroke="#c0c6ff" points="187.284,-212.084 194.286,-207.309 185.834,-206.675 187.284,-212.084"/>
</a>
</g>
<!-- ZNF711_TFAP2A_TFAP2D&#45;&gt;PPARG -->
<g id="edge26" class="edge"><title>ZNF711_TFAP2A_TFAP2D&#45;&gt;PPARG</title>
<a xlink:title="PPARG: 0.598||remove19">
<path fill="none" stroke="#e6b2ff" stroke-width="3" d="M79.453,-258.985C85.9777,-270.286 94.4691,-284.993 101.635,-297.405"/>
<polygon fill="#e6b2ff" stroke="#e6b2ff" points="99.2513,-298.876 105.676,-304.405 104.101,-296.076 99.2513,-298.876"/>
</a>
</g>
<!-- ZNF711_TFAP2A_TFAP2D&#45;&gt;HOXC13 -->
<g id="edge16" class="edge"><title>ZNF711_TFAP2A_TFAP2D&#45;&gt;HOXC13</title>
<a xlink:title="HOXC13: 0.025||remove3root">
<path fill="none" stroke="#eecaff" stroke-width="3" d="M138.037,-240.88C212.178,-240.88 327.094,-240.88 384.851,-240.88"/>
<polygon fill="#eecaff" stroke="#eecaff" points="384.946,-243.68 392.946,-240.88 384.946,-238.08 384.946,-243.68"/>
</a>
</g>
<!-- ZNF711_TFAP2A_TFAP2D&#45;&gt;NFIX_NFIB -->
<g id="edge22" class="edge"><title>ZNF711_TFAP2A_TFAP2D&#45;&gt;NFIX_NFIB</title>
<a xlink:title="NFIX: 0.159||NFIB: 0.135||remove12root">
<path fill="none" stroke="#ecc5ff" stroke-width="3" d="M100.46,-259.043C140.698,-282.275 210.339,-322.482 253.608,-347.463"/>
<polygon fill="#ecc5ff" stroke="#ecc5ff" points="252.251,-349.913 260.579,-351.488 255.051,-345.063 252.251,-349.913"/>
</a>
</g>
<!-- ZNF711_TFAP2A_TFAP2D&#45;&gt;ZNF711_TFAP2A_TFAP2D -->
<g id="edge24" class="edge"><title>ZNF711_TFAP2A_TFAP2D&#45;&gt;ZNF711_TFAP2A_TFAP2D</title>
<a xlink:title="TFAP2A: 0.506||ZNF711: 0.089||remove19">
<path fill="none" stroke="#e7b6ff" stroke-width="3" d="M138.275,-247.035C148.831,-246.095 156,-244.044 156,-240.88 156,-238.605 152.297,-236.906 146.294,-235.781"/>
<polygon fill="#e7b6ff" stroke="#e7b6ff" points="146.572,-232.994 138.275,-234.725 145.84,-238.546 146.572,-232.994"/>
</a>
</g>
<!-- ZNF711_TFAP2A_TFAP2D&#45;&gt;PATZ1_KLF4 -->
<g id="edge18" class="edge"><title>ZNF711_TFAP2A_TFAP2D&#45;&gt;PATZ1_KLF4</title>
<a xlink:title="PATZ1: 0.083||TFAP2A: 0.544||remove19">
<path fill="none" stroke="#edc8ff" stroke-width="3" d="M68,-214.379C68,-201.391 68,-185.801 68,-172.857"/>
<path fill="none" stroke="#e7b4ff" stroke-width="3" d="M70,-214.379C70,-201.391 70,-185.801 70,-172.857"/>
<polygon fill="#e7b4ff" stroke="#e7b4ff" points="66.2001,-214.717 69,-222.717 71.8001,-214.717 66.2001,-214.717"/>
<polygon fill="#edc8ff" stroke="#edc8ff" points="71.8001,-172.787 69,-164.787 66.2001,-172.787 71.8001,-172.787"/>
</a>
</g>
<!-- ZNF711_TFAP2A_TFAP2D&#45;&gt;TFDP1 -->
<g id="edge28" class="edge"><title>ZNF711_TFAP2A_TFAP2D&#45;&gt;TFDP1</title>
<a xlink:title="TFDP1: 0.084||ZNF711: 0.041||TFAP2A: 0.032||remove8root">
<path fill="none" stroke="#edc8ff" stroke-width="3" d="M87.4297,-215.574C96.7615,-202.085 107.091,-184.529 112.12,-167.278 119.434,-142.499 119.348,-112.494 117.938,-91.5175"/>
<path fill="none" stroke="#eecaff" stroke-width="3" d="M89.0746,-216.712C98.4853,-203.1 108.814,-185.543 114.04,-167.841 121.434,-142.493 121.348,-112.488 119.933,-91.3836"/>
<polygon fill="#eecaff" stroke="#eecaff" points="85.8394,-214.704 83.4716,-222.842 90.3978,-217.957 85.8394,-214.704"/>
<polygon fill="#edc8ff" stroke="#edc8ff" points="121.713,-91.0555 118.292,-83.3006 116.131,-91.4961 121.713,-91.0555"/>
</a>
</g>
<!-- ZNF711_TFAP2A_TFAP2D&#45;&gt;MXI1_MYC_MYCN -->
<g id="edge30" class="edge"><title>ZNF711_TFAP2A_TFAP2D&#45;&gt;MXI1_MYC_MYCN</title>
<a xlink:title="MYCN: 0.343||MYC: 0.055||remove19">
<path fill="none" stroke="#e9bdff" stroke-width="3" d="M80.1859,-222.579C89.178,-207.795 102.079,-186.419 113.08,-167.56 138.437,-124.088 167.113,-72.9613 183.722,-43.1478"/>
<polygon fill="#e9bdff" stroke="#e9bdff" points="186.231,-44.3968 187.675,-36.0449 181.338,-41.6734 186.231,-44.3968"/>
</a>
</g>
<!-- PATZ1_KLF4&#45;&gt;ESR1 -->
<g id="edge64" class="edge"><title>PATZ1_KLF4&#45;&gt;ESR1</title>
<a xlink:title="ESR1: 0.418||remove27root">
<path fill="none" stroke="#e8baff" stroke-width="3" d="M94.9913,-164.822C112.486,-178.249 134.865,-197.972 149.04,-220 174.026,-258.826 187.226,-311.616 193.308,-342.981"/>
<polygon fill="#e8baff" stroke="#e8baff" points="190.626,-343.875 194.839,-351.23 196.132,-342.853 190.626,-343.875"/>
</a>
</g>
<!-- PATZ1_KLF4&#45;&gt;MNT_HEY1_HEY2 -->
<g id="edge58" class="edge"><title>PATZ1_KLF4&#45;&gt;MNT_HEY1_HEY2</title>
<a xlink:title="MNT: 1.056||HEY1: 0.620||HEY2: 0.350||remove33root">
<path fill="none" stroke="#9ea8ff" stroke-width="3" d="M107.142,-156.9C130.293,-163.103 160.311,-171.146 186.403,-178.138"/>
<polygon fill="#9ea8ff" stroke="#9ea8ff" points="185.91,-180.904 194.362,-180.27 187.36,-175.495 185.91,-180.904"/>
</a>
</g>
<!-- PATZ1_KLF4&#45;&gt;PPARG -->
<g id="edge66" class="edge"><title>PATZ1_KLF4&#45;&gt;PPARG</title>
<a xlink:title="PPARG: 0.183||remove15root">
<path fill="none" stroke="#ecc4ff" stroke-width="3" d="M98.8721,-164.729C117.094,-177.598 138.792,-196.714 149.04,-220 160.333,-245.659 147.073,-276.436 134.162,-297.518"/>
<polygon fill="#ecc4ff" stroke="#ecc4ff" points="131.792,-296.028 129.833,-304.274 136.507,-299.049 131.792,-296.028"/>
</a>
</g>
<!-- PATZ1_KLF4&#45;&gt;PATZ1_KLF4 -->
<g id="edge62" class="edge"><title>PATZ1_KLF4&#45;&gt;PATZ1_KLF4</title>
<a xlink:title="PATZ1: 0.441||KLF4: 0.051||remove28root">
<path fill="none" stroke="#e8b9ff" stroke-width="3" d="M107.214,-153.37C117.335,-152.988 125,-150.758 125,-146.68 125,-143.812 121.21,-141.858 115.442,-140.818"/>
<polygon fill="#e8b9ff" stroke="#e8b9ff" points="115.454,-138.005 107.214,-139.989 114.893,-143.577 115.454,-138.005"/>
</a>
</g>
<!-- PPARA -->
<g id="node40" class="node"><title>PPARA</title>
<a xlink:href="PPARA.svg" xlink:title="Z&#45;value: 0.768||remove22">
<polygon fill="#bac1ff" stroke="#bac1ff" stroke-width="2" points="306.88,-36 276.88,-36 264.88,-24 264.88,-12 276.88,-0 306.88,-0 318.88,-12 318.88,-24 306.88,-36"/>
<path fill="#bac1ff" stroke="#bac1ff" stroke-width="2" d="M276.88,-36C270.88,-36 264.88,-30 264.88,-24"/>
<path fill="#bac1ff" stroke="#bac1ff" stroke-width="2" d="M264.88,-12C264.88,-6 270.88,-0 276.88,-0"/>
<path fill="#bac1ff" stroke="#bac1ff" stroke-width="2" d="M306.88,-0C312.88,-0 318.88,-6 318.88,-12"/>
<path fill="#bac1ff" stroke="#bac1ff" stroke-width="2" d="M318.88,-24C318.88,-30 312.88,-36 306.88,-36"/>
<polyline fill="none" stroke="white" stroke-width="2" points="306.88,-36 276.88,-36 "/>
<path fill="none" stroke="white" stroke-width="2" d="M276.88,-36C270.88,-36 264.88,-30 264.88,-24"/>
<polyline fill="none" stroke="white" stroke-width="2" points="264.88,-24 264.88,-12 "/>
<path fill="none" stroke="white" stroke-width="2" d="M264.88,-12C264.88,-6 270.88,-0 276.88,-0"/>
<polyline fill="none" stroke="white" stroke-width="2" points="276.88,-0 306.88,-0 "/>
<path fill="none" stroke="white" stroke-width="2" d="M306.88,-0C312.88,-0 318.88,-6 318.88,-12"/>
<polyline fill="none" stroke="white" stroke-width="2" points="318.88,-12 318.88,-24 "/>
<path fill="none" stroke="white" stroke-width="2" d="M318.88,-24C318.88,-30 312.88,-36 306.88,-36"/>
<text text-anchor="middle" x="291.88" y="-15.5" font-family="Helvetica,sans-Serif" font-size="10.00">PPARA</text>
</a>
</g>
<!-- PATZ1_KLF4&#45;&gt;PPARA -->
<g id="edge60" class="edge"><title>PATZ1_KLF4&#45;&gt;PPARA</title>
<a xlink:title="PPARA: 0.175||remove14root">
<path fill="none" stroke="#ecc4ff" stroke-width="3" d="M101.146,-128.612C138.766,-107.394 202.863,-71.0085 257.42,-38.88 257.57,-38.7913 257.721,-38.7023 257.873,-38.613"/>
<polygon fill="#ecc4ff" stroke="#ecc4ff" points="259.384,-40.9721 264.83,-34.4775 256.522,-36.1583 259.384,-40.9721"/>
</a>
</g>
<!-- TFDP1&#45;&gt;MNT_HEY1_HEY2 -->
<g id="edge50" class="edge"><title>TFDP1&#45;&gt;MNT_HEY1_HEY2</title>
<a xlink:title="MNT: 0.368||HEY1: 0.082||remove25root">
<path fill="none" stroke="#bcc2ff" stroke-width="3" d="M134.264,-83.2637C156.968,-105.968 195.887,-144.887 220.96,-169.96"/>
<polygon fill="#bcc2ff" stroke="#bcc2ff" points="219.071,-172.031 226.708,-175.708 223.031,-168.071 219.071,-172.031"/>
</a>
</g>
<!-- TFDP1&#45;&gt;EN1_ESX1_GBX1 -->
<g id="edge52" class="edge"><title>TFDP1&#45;&gt;EN1_ESX1_GBX1</title>
<a xlink:title="GBX1: 0.085||remove9root">
<path fill="none" stroke="#edc8ff" stroke-width="3" d="M120.723,-83.2346C129.232,-113.576 149.908,-175.183 186.2,-214.66 222.528,-254.176 276.751,-283.197 317.513,-301.109"/>
<polygon fill="#edc8ff" stroke="#edc8ff" points="316.506,-303.724 324.96,-304.324 318.726,-298.583 316.506,-303.724"/>
</a>
</g>
<!-- TFDP1&#45;&gt;PATZ1_KLF4 -->
<g id="edge54" class="edge"><title>TFDP1&#45;&gt;PATZ1_KLF4</title>
<a xlink:title="PATZ1: 0.479||TFDP1: 0.173||remove25">
<path fill="none" stroke="#e8b7ff" stroke-width="3" d="M102.469,-90.7096C96.6995,-100.703 90.0749,-112.177 84.3106,-122.161"/>
<path fill="none" stroke="#ecc4ff" stroke-width="3" d="M100.737,-89.7096C94.9674,-99.7027 88.3428,-111.177 82.5785,-121.161"/>
<polygon fill="#ecc4ff" stroke="#ecc4ff" points="104.072,-91.5334 105.647,-83.2052 99.2221,-88.7334 104.072,-91.5334"/>
<polygon fill="#e8b7ff" stroke="#e8b7ff" points="80.999,-120.297 79.4238,-128.625 85.8487,-123.097 80.999,-120.297"/>
</a>
</g>
<!-- TFDP1&#45;&gt;TFDP1 -->
<g id="edge56" class="edge"><title>TFDP1&#45;&gt;TFDP1</title>
<a xlink:title="TFDP1: 0.077||remove6root">
<path fill="none" stroke="#edc8ff" stroke-width="3" d="M143.341,-71.8434C153.124,-71.9884 161.1,-69.7406 161.1,-65.1 161.1,-61.8371 157.157,-59.7571 151.415,-58.8601"/>
<polygon fill="#edc8ff" stroke="#edc8ff" points="151.5,-56.0601 143.341,-58.3566 151.151,-61.6492 151.5,-56.0601"/>
</a>
</g>
<!-- MXI1_MYC_MYCN&#45;&gt;MNT_HEY1_HEY2 -->
<g id="edge44" class="edge"><title>MXI1_MYC_MYCN&#45;&gt;MNT_HEY1_HEY2</title>
<a xlink:title="MNT: 0.635||remove32root">
<path fill="none" stroke="#b0b8ff" stroke-width="3" d="M202.543,-36.1494C210.92,-67.4142 228.102,-131.54 237.771,-167.623"/>
<polygon fill="#b0b8ff" stroke="#b0b8ff" points="235.168,-168.726 239.943,-175.729 240.577,-167.277 235.168,-168.726"/>
</a>
</g>
<!-- MXI1_MYC_MYCN&#45;&gt;PATZ1_KLF4 -->
<g id="edge46" class="edge"><title>MXI1_MYC_MYCN&#45;&gt;PATZ1_KLF4</title>
<a xlink:title="PATZ1: 0.041||MYCN: 0.388||MXI1: 0.051||remove26root">
<path fill="none" stroke="#eecaff" stroke-width="3" d="M182.61,-43.388C173.37,-56.8986 161.07,-73.4424 148.135,-86.6793 134.472,-100.636 117.646,-114.062 103.03,-124.769"/>
<path fill="none" stroke="#e9bbff" stroke-width="3" d="M180.959,-42.2591C171.765,-55.7053 159.465,-72.249 146.705,-85.2807 133.224,-99.0731 116.398,-112.499 101.849,-123.156"/>
<polygon fill="#e9bbff" stroke="#e9bbff" points="184.172,-44.2909 186.309,-36.089 179.524,-41.1677 184.172,-44.2909"/>
<polygon fill="#eecaff" stroke="#eecaff" points="100.766,-121.717 95.9171,-128.669 104.043,-126.258 100.766,-121.717"/>
</a>
</g>
<!-- MXI1_MYC_MYCN&#45;&gt;TFDP1 -->
<g id="edge48" class="edge"><title>MXI1_MYC_MYCN&#45;&gt;TFDP1</title>
<a xlink:title="TFDP1: 0.013||MXI1: 0.145||MYCN: 0.127||remove11root">
<path fill="none" stroke="#eecbff" stroke-width="3" d="M159.608,-41.1351C156.753,-42.784 153.882,-44.4413 151.053,-46.0745"/>
<path fill="none" stroke="#ecc5ff" stroke-width="3" d="M158.608,-39.403C155.753,-41.0519 152.882,-42.7092 150.053,-44.3424"/>
<polygon fill="#ecc5ff" stroke="#ecc5ff" points="160.844,-42.5003 166.372,-36.0754 158.044,-37.6506 160.844,-42.5003"/>
<polygon fill="#eecbff" stroke="#eecbff" points="148.729,-43.0283 143.201,-49.4532 151.529,-47.878 148.729,-43.0283"/>
</a>
</g>
<!-- PPARA&#45;&gt;ESR1 -->
<g id="edge70" class="edge"><title>PPARA&#45;&gt;ESR1</title>
<a xlink:title="ESR1: 0.472||remove22">
<path fill="none" stroke="#e8b7ff" stroke-width="3" d="M297.088,-36.1347C306.33,-71.4271 322.876,-151.425 303.36,-214.66 287.294,-266.715 247.074,-316.904 221.144,-345.423"/>
<polygon fill="#e8b7ff" stroke="#e8b7ff" points="218.891,-343.736 215.522,-351.514 223.006,-347.534 218.891,-343.736"/>
</a>
</g>
<!-- PPARA&#45;&gt;MNT_HEY1_HEY2 -->
<g id="edge68" class="edge"><title>PPARA&#45;&gt;MNT_HEY1_HEY2</title>
<a xlink:title="MNT: 0.296||remove22root">
<path fill="none" stroke="#bfc5ff" stroke-width="3" d="M287.016,-36.1494C278.639,-67.4142 261.457,-131.54 251.788,-167.623"/>
<polygon fill="#bfc5ff" stroke="#bfc5ff" points="248.982,-167.277 249.616,-175.729 254.391,-168.726 248.982,-167.277"/>
</a>
</g>
<!-- SP3 -->
<g id="node47" class="node"><title>SP3</title>
<a xlink:href="SP3.svg" xlink:title="Z&#45;value: 1.634||remove30">
<polygon fill="#a6aeff" stroke="#a6aeff" stroke-width="2" points="388.459,-83.1 358.459,-83.1 346.459,-71.1 346.459,-59.1 358.459,-47.1 388.459,-47.1 400.459,-59.1 400.459,-71.1 388.459,-83.1"/>
<path fill="#a6aeff" stroke="#a6aeff" stroke-width="2" d="M358.459,-83.1C352.459,-83.1 346.459,-77.1 346.459,-71.1"/>
<path fill="#a6aeff" stroke="#a6aeff" stroke-width="2" d="M346.459,-59.1C346.459,-53.1 352.459,-47.1 358.459,-47.1"/>
<path fill="#a6aeff" stroke="#a6aeff" stroke-width="2" d="M388.459,-47.1C394.459,-47.1 400.459,-53.1 400.459,-59.1"/>
<path fill="#a6aeff" stroke="#a6aeff" stroke-width="2" d="M400.459,-71.1C400.459,-77.1 394.459,-83.1 388.459,-83.1"/>
<polyline fill="none" stroke="white" stroke-width="2" points="388.459,-83.1 358.459,-83.1 "/>
<path fill="none" stroke="white" stroke-width="2" d="M358.459,-83.1C352.459,-83.1 346.459,-77.1 346.459,-71.1"/>
<polyline fill="none" stroke="white" stroke-width="2" points="346.459,-71.1 346.459,-59.1 "/>
<path fill="none" stroke="white" stroke-width="2" d="M346.459,-59.1C346.459,-53.1 352.459,-47.1 358.459,-47.1"/>
<polyline fill="none" stroke="white" stroke-width="2" points="358.459,-47.1 388.459,-47.1 "/>
<path fill="none" stroke="white" stroke-width="2" d="M388.459,-47.1C394.459,-47.1 400.459,-53.1 400.459,-59.1"/>
<polyline fill="none" stroke="white" stroke-width="2" points="400.459,-59.1 400.459,-71.1 "/>
<path fill="none" stroke="white" stroke-width="2" d="M400.459,-71.1C400.459,-77.1 394.459,-83.1 388.459,-83.1"/>
<text text-anchor="middle" x="373.459" y="-62.6" font-family="Helvetica,sans-Serif" font-size="10.00">SP3</text>
</a>
</g>
<!-- SP3&#45;&gt;ESR1 -->
<g id="edge78" class="edge"><title>SP3&#45;&gt;ESR1</title>
<a xlink:title="ESR1: 0.716||remove30">
<path fill="none" stroke="#e4adff" stroke-width="3" d="M365.954,-83.5295C354.013,-112.24 329.366,-169.08 303.36,-214.66 276.176,-262.302 238.996,-314.332 216.753,-344.335"/>
<polygon fill="#e4adff" stroke="#e4adff" points="214.238,-343.025 211.705,-351.113 218.729,-346.37 214.238,-343.025"/>
</a>
</g>
<!-- SP3&#45;&gt;MNT_HEY1_HEY2 -->
<g id="edge72" class="edge"><title>SP3&#45;&gt;MNT_HEY1_HEY2</title>
<a xlink:title="MNT: 0.483||HEY2: 0.077||remove30root">
<path fill="none" stroke="#b7beff" stroke-width="3" d="M355.295,-83.2637C332.591,-105.968 293.672,-144.887 268.599,-169.96"/>
<polygon fill="#b7beff" stroke="#b7beff" points="266.528,-168.071 262.851,-175.708 270.488,-172.031 266.528,-168.071"/>
</a>
</g>
<!-- SP3&#45;&gt;PPARG -->
<g id="edge84" class="edge"><title>SP3&#45;&gt;PPARG</title>
<a xlink:title="PPARG: 0.636||remove29">
<path fill="none" stroke="#e5b0ff" stroke-width="3" d="M368.836,-83.2346C360.327,-113.576 339.651,-175.183 303.36,-214.66 260.309,-261.489 192.129,-293.578 151,-309.907"/>
<polygon fill="#e5b0ff" stroke="#e5b0ff" points="149.837,-307.355 143.398,-312.868 151.869,-312.573 149.837,-307.355"/>
</a>
</g>
<!-- SP3&#45;&gt;HOXC13 -->
<g id="edge74" class="edge"><title>SP3&#45;&gt;HOXC13</title>
<a xlink:title="HOXC13: 0.270||remove18root">
<path fill="none" stroke="#eac0ff" stroke-width="3" d="M374.861,-83.1616C376.784,-103.863 380.983,-138.659 389.239,-167.56 393.923,-183.955 401.351,-201.549 407.798,-215.392"/>
<polygon fill="#eac0ff" stroke="#eac0ff" points="405.292,-216.642 411.255,-222.665 410.35,-214.237 405.292,-216.642"/>
</a>
</g>
<!-- SP3&#45;&gt;NFIX_NFIB -->
<g id="edge80" class="edge"><title>SP3&#45;&gt;NFIX_NFIB</title>
<a xlink:title="NFIX: 0.174||NFIB: 0.069||remove13root">
<path fill="none" stroke="#ecc4ff" stroke-width="3" d="M368.6,-83.2335C354.742,-134.952 314.987,-283.323 298.831,-343.617"/>
<polygon fill="#ecc4ff" stroke="#ecc4ff" points="296.079,-343.069 296.713,-351.521 301.488,-344.518 296.079,-343.069"/>
</a>
</g>
<!-- SP3&#45;&gt;ZNF711_TFAP2A_TFAP2D -->
<g id="edge82" class="edge"><title>SP3&#45;&gt;ZNF711_TFAP2A_TFAP2D</title>
<a xlink:title="TFAP2A: 0.666||ZNF711: 0.060||remove19">
<path fill="none" stroke="#e5afff" stroke-width="3" d="M346.152,-80.7825C309.675,-101.74 243.039,-140.055 186.2,-172.9 159.92,-188.085 130.357,-205.234 107.497,-218.508"/>
<polygon fill="#e5afff" stroke="#e5afff" points="105.834,-216.235 100.323,-222.674 108.647,-221.078 105.834,-216.235"/>
</a>
</g>
<!-- SP3&#45;&gt;PATZ1_KLF4 -->
<g id="edge76" class="edge"><title>SP3&#45;&gt;PATZ1_KLF4</title>
<a xlink:title="PATZ1: 0.077||KLF4: 0.020||remove7root">
<path fill="none" stroke="#edc8ff" stroke-width="3" d="M346.44,-72.3396C294.383,-86.2883 179.648,-117.032 115.221,-134.295"/>
<polygon fill="#edc8ff" stroke="#edc8ff" points="114.242,-131.658 107.24,-136.433 115.692,-137.067 114.242,-131.658"/>
</a>
</g>
<!-- SP3&#45;&gt;MXI1_MYC_MYCN -->
<g id="edge86" class="edge"><title>SP3&#45;&gt;MXI1_MYC_MYCN</title>
<a xlink:title="MYCN: 0.237||MXI1: 0.146||remove17root">
<path fill="none" stroke="#ebc1ff" stroke-width="3" d="M346.363,-59.5434C323.381,-54.655 289.614,-47.0588 260.56,-38.88 259.383,-38.5488 258.196,-38.2092 257.001,-37.8623"/>
<polygon fill="#ebc1ff" stroke="#ebc1ff" points="257.5,-35.0892 249.034,-35.4821 255.897,-40.4549 257.5,-35.0892"/>
</a>
</g>
<!-- RXRG -->
<g id="node57" class="node"><title>RXRG</title>
<a xlink:href="RXRG.svg" xlink:title="Z&#45;value: 0.838||remove21">
<polygon fill="#b8bfff" stroke="#b8bfff" stroke-width="2" points="435.559,-164.68 405.559,-164.68 393.559,-152.68 393.559,-140.68 405.559,-128.68 435.559,-128.68 447.559,-140.68 447.559,-152.68 435.559,-164.68"/>
<path fill="#b8bfff" stroke="#b8bfff" stroke-width="2" d="M405.559,-164.68C399.559,-164.68 393.559,-158.68 393.559,-152.68"/>
<path fill="#b8bfff" stroke="#b8bfff" stroke-width="2" d="M393.559,-140.68C393.559,-134.68 399.559,-128.68 405.559,-128.68"/>
<path fill="#b8bfff" stroke="#b8bfff" stroke-width="2" d="M435.559,-128.68C441.559,-128.68 447.559,-134.68 447.559,-140.68"/>
<path fill="#b8bfff" stroke="#b8bfff" stroke-width="2" d="M447.559,-152.68C447.559,-158.68 441.559,-164.68 435.559,-164.68"/>
<polyline fill="none" stroke="white" stroke-width="2" points="435.559,-164.68 405.559,-164.68 "/>
<path fill="none" stroke="white" stroke-width="2" d="M405.559,-164.68C399.559,-164.68 393.559,-158.68 393.559,-152.68"/>
<polyline fill="none" stroke="white" stroke-width="2" points="393.559,-152.68 393.559,-140.68 "/>
<path fill="none" stroke="white" stroke-width="2" d="M393.559,-140.68C393.559,-134.68 399.559,-128.68 405.559,-128.68"/>
<polyline fill="none" stroke="white" stroke-width="2" points="405.559,-128.68 435.559,-128.68 "/>
<path fill="none" stroke="white" stroke-width="2" d="M435.559,-128.68C441.559,-128.68 447.559,-134.68 447.559,-140.68"/>
<polyline fill="none" stroke="white" stroke-width="2" points="447.559,-140.68 447.559,-152.68 "/>
<path fill="none" stroke="white" stroke-width="2" d="M447.559,-152.68C447.559,-158.68 441.559,-164.68 435.559,-164.68"/>
<text text-anchor="middle" x="420.559" y="-144.18" font-family="Helvetica,sans-Serif" font-size="10.00">RXRG</text>
</a>
</g>
<!-- RXRG&#45;&gt;MNT_HEY1_HEY2 -->
<g id="edge90" class="edge"><title>RXRG&#45;&gt;MNT_HEY1_HEY2</title>
<a xlink:title="MNT: 0.296||remove21root">
<path fill="none" stroke="#bfc5ff" stroke-width="3" d="M393.479,-153.936C369.521,-160.355 333.74,-169.943 303.281,-178.104"/>
<polygon fill="#bfc5ff" stroke="#bfc5ff" points="302.258,-175.48 295.255,-180.255 303.707,-180.889 302.258,-175.48"/>
</a>
</g>
<!-- RXRG&#45;&gt;PPARG -->
<g id="edge92" class="edge"><title>RXRG&#45;&gt;PPARG</title>
<a xlink:title="PPARG: 0.086||remove10root">
<path fill="none" stroke="#edc8ff" stroke-width="3" d="M393.105,-162.638C369.363,-176.431 334.113,-196.889 303.36,-214.66 250.073,-245.452 188.176,-281.051 150.59,-302.649"/>
<polygon fill="#edc8ff" stroke="#edc8ff" points="148.948,-300.363 143.407,-306.777 151.738,-305.219 148.948,-300.363"/>
</a>
</g>
</g>
</svg>
