<?xml version="1.0" encoding="UTF-8" standalone="no"?>
<!DOCTYPE svg PUBLIC "-//W3C//DTD SVG 1.1//EN"
 "http://www.w3.org/Graphics/SVG/1.1/DTD/svg11.dtd">
<!-- Generated by graphviz version 2.28.0 (20110630.0925)
 -->
<!-- Title: _anonymous_0 Pages: 1 -->
<svg width="431pt" height="366pt"
 viewBox="0.00 0.00 431.45 366.45" xmlns="http://www.w3.org/2000/svg" xmlns:xlink="http://www.w3.org/1999/xlink">
<g id="graph1" class="graph" transform="scale(1 1) rotate(0) translate(4 362.449)">
<title>_anonymous_0</title>
<polygon fill="white" stroke="white" points="-4,5 -4,-362.449 428.449,-362.449 428.449,5 -4,5"/>
<!-- PITX1 -->
<g id="node1" class="node"><title>PITX1</title>
<a xlink:href="PITX1.svg" xlink:title="Z&#45;value: 2.159||remove29">
<polygon fill="#3247ff" stroke="#3247ff" stroke-width="2" points="182.025,-358.449 152.025,-358.449 140.025,-346.449 140.025,-334.449 152.025,-322.449 182.025,-322.449 194.025,-334.449 194.025,-346.449 182.025,-358.449"/>
<path fill="#3247ff" stroke="#3247ff" stroke-width="2" d="M152.025,-358.449C146.025,-358.449 140.025,-352.449 140.025,-346.449"/>
<path fill="#3247ff" stroke="#3247ff" stroke-width="2" d="M140.025,-334.449C140.025,-328.449 146.025,-322.449 152.025,-322.449"/>
<path fill="#3247ff" stroke="#3247ff" stroke-width="2" d="M182.025,-322.449C188.025,-322.449 194.025,-328.449 194.025,-334.449"/>
<path fill="#3247ff" stroke="#3247ff" stroke-width="2" d="M194.025,-346.449C194.025,-352.449 188.025,-358.449 182.025,-358.449"/>
<polyline fill="none" stroke="white" stroke-width="2" points="182.025,-358.449 152.025,-358.449 "/>
<path fill="none" stroke="white" stroke-width="2" d="M152.025,-358.449C146.025,-358.449 140.025,-352.449 140.025,-346.449"/>
<polyline fill="none" stroke="white" stroke-width="2" points="140.025,-346.449 140.025,-334.449 "/>
<path fill="none" stroke="white" stroke-width="2" d="M140.025,-334.449C140.025,-328.449 146.025,-322.449 152.025,-322.449"/>
<polyline fill="none" stroke="white" stroke-width="2" points="152.025,-322.449 182.025,-322.449 "/>
<path fill="none" stroke="white" stroke-width="2" d="M182.025,-322.449C188.025,-322.449 194.025,-328.449 194.025,-334.449"/>
<polyline fill="none" stroke="white" stroke-width="2" points="194.025,-334.449 194.025,-346.449 "/>
<path fill="none" stroke="white" stroke-width="2" d="M194.025,-346.449C194.025,-352.449 188.025,-358.449 182.025,-358.449"/>
<text text-anchor="middle" x="167.025" y="-337.949" font-family="Helvetica,sans-Serif" font-size="10.00" fill="white">PITX1</text>
</a>
</g>
<!-- NANOG -->
<g id="node2" class="node"><title>NANOG</title>
<a xlink:href="NANOG.svg" xlink:title="Z&#45;value: 0.259||remove30">
<polygon fill="#ffb9b9" stroke="#ffb9b9" stroke-width="2" points="225.225,-197.225 195.225,-197.225 183.225,-185.225 183.225,-173.225 195.225,-161.225 225.225,-161.225 237.225,-173.225 237.225,-185.225 225.225,-197.225"/>
<path fill="#ffb9b9" stroke="#ffb9b9" stroke-width="2" d="M195.225,-197.225C189.225,-197.225 183.225,-191.225 183.225,-185.225"/>
<path fill="#ffb9b9" stroke="#ffb9b9" stroke-width="2" d="M183.225,-173.225C183.225,-167.225 189.225,-161.225 195.225,-161.225"/>
<path fill="#ffb9b9" stroke="#ffb9b9" stroke-width="2" d="M225.225,-161.225C231.225,-161.225 237.225,-167.225 237.225,-173.225"/>
<path fill="#ffb9b9" stroke="#ffb9b9" stroke-width="2" d="M237.225,-185.225C237.225,-191.225 231.225,-197.225 225.225,-197.225"/>
<polyline fill="none" stroke="white" stroke-width="2" points="225.225,-197.225 195.225,-197.225 "/>
<path fill="none" stroke="white" stroke-width="2" d="M195.225,-197.225C189.225,-197.225 183.225,-191.225 183.225,-185.225"/>
<polyline fill="none" stroke="white" stroke-width="2" points="183.225,-185.225 183.225,-173.225 "/>
<path fill="none" stroke="white" stroke-width="2" d="M183.225,-173.225C183.225,-167.225 189.225,-161.225 195.225,-161.225"/>
<polyline fill="none" stroke="white" stroke-width="2" points="195.225,-161.225 225.225,-161.225 "/>
<path fill="none" stroke="white" stroke-width="2" d="M225.225,-161.225C231.225,-161.225 237.225,-167.225 237.225,-173.225"/>
<polyline fill="none" stroke="white" stroke-width="2" points="237.225,-173.225 237.225,-185.225 "/>
<path fill="none" stroke="white" stroke-width="2" d="M237.225,-185.225C237.225,-191.225 231.225,-197.225 225.225,-197.225"/>
<text text-anchor="middle" x="210.225" y="-176.725" font-family="Helvetica,sans-Serif" font-size="10.00">NANOG</text>
</a>
</g>
<!-- PITX1&#45;&gt;NANOG -->
<g id="edge2" class="edge"><title>PITX1&#45;&gt;NANOG</title>
<a xlink:title="NANOG: 0.292||remove29root">
<path fill="none" stroke="#8995ff" stroke-width="3" d="M171.896,-322.268C179.545,-293.723 194.404,-238.267 203.206,-205.42"/>
<polygon fill="#8995ff" stroke="#8995ff" points="205.938,-206.039 205.305,-197.587 200.529,-204.589 205.938,-206.039"/>
</a>
</g>
<!-- PATZ1_KLF4 -->
<g id="node4" class="node"><title>PATZ1_KLF4</title>
<a xlink:href="PATZ1_KLF4.svg" xlink:title="Z&#45;value: 1.751||remove24">
<polygon fill="#4f61ff" stroke="#4f61ff" stroke-width="2" points="118.2,-315.249 66.2,-315.249 54.2,-303.249 54.2,-291.249 66.2,-279.249 118.2,-279.249 130.2,-291.249 130.2,-303.249 118.2,-315.249"/>
<path fill="#4f61ff" stroke="#4f61ff" stroke-width="2" d="M66.2,-315.249C60.2,-315.249 54.2,-309.249 54.2,-303.249"/>
<path fill="#4f61ff" stroke="#4f61ff" stroke-width="2" d="M54.2,-291.249C54.2,-285.249 60.2,-279.249 66.2,-279.249"/>
<path fill="#4f61ff" stroke="#4f61ff" stroke-width="2" d="M118.2,-279.249C124.2,-279.249 130.2,-285.249 130.2,-291.249"/>
<path fill="#4f61ff" stroke="#4f61ff" stroke-width="2" d="M130.2,-303.249C130.2,-309.249 124.2,-315.249 118.2,-315.249"/>
<polyline fill="none" stroke="white" stroke-width="2" points="118.2,-315.249 66.2,-315.249 "/>
<path fill="none" stroke="white" stroke-width="2" d="M66.2,-315.249C60.2,-315.249 54.2,-309.249 54.2,-303.249"/>
<polyline fill="none" stroke="white" stroke-width="2" points="54.2,-303.249 54.2,-291.249 "/>
<path fill="none" stroke="white" stroke-width="2" d="M54.2,-291.249C54.2,-285.249 60.2,-279.249 66.2,-279.249"/>
<polyline fill="none" stroke="white" stroke-width="2" points="66.2,-279.249 118.2,-279.249 "/>
<path fill="none" stroke="white" stroke-width="2" d="M118.2,-279.249C124.2,-279.249 130.2,-285.249 130.2,-291.249"/>
<polyline fill="none" stroke="white" stroke-width="2" points="130.2,-291.249 130.2,-303.249 "/>
<path fill="none" stroke="white" stroke-width="2" d="M130.2,-303.249C130.2,-309.249 124.2,-315.249 118.2,-315.249"/>
<text text-anchor="middle" x="92.2" y="-294.749" font-family="Helvetica,sans-Serif" font-size="10.00" fill="white">PATZ1_KLF4</text>
</a>
</g>
<!-- PITX1&#45;&gt;PATZ1_KLF4 -->
<g id="edge4" class="edge"><title>PITX1&#45;&gt;PATZ1_KLF4</title>
<a xlink:title="KLF4: 0.239||PITX1: 0.139||remove24">
<path fill="none" stroke="#dd95ff" stroke-width="3" d="M132.342,-321.58C131.564,-321.131 130.784,-320.68 130.003,-320.229"/>
<path fill="none" stroke="#e4acff" stroke-width="3" d="M133.342,-319.848C132.564,-319.399 131.784,-318.948 131.003,-318.497"/>
<polygon fill="#e4acff" stroke="#e4acff" points="131.683,-323.278 140.011,-324.853 134.483,-318.428 131.683,-323.278"/>
<polygon fill="#dd95ff" stroke="#dd95ff" points="131.827,-316.895 123.499,-315.32 129.027,-321.745 131.827,-316.895"/>
</a>
</g>
<!-- OTX2_CRX -->
<g id="node7" class="node"><title>OTX2_CRX</title>
<a xlink:href="OTX2_CRX.svg" xlink:title="Z&#45;value: 0.326||remove18">
<polygon fill="#b4bcff" stroke="#b4bcff" stroke-width="2" points="393.699,-240.425 349.199,-240.425 337.199,-228.425 337.199,-216.425 349.199,-204.425 393.699,-204.425 405.699,-216.425 405.699,-228.425 393.699,-240.425"/>
<path fill="#b4bcff" stroke="#b4bcff" stroke-width="2" d="M349.199,-240.425C343.199,-240.425 337.199,-234.425 337.199,-228.425"/>
<path fill="#b4bcff" stroke="#b4bcff" stroke-width="2" d="M337.199,-216.425C337.199,-210.425 343.199,-204.425 349.199,-204.425"/>
<path fill="#b4bcff" stroke="#b4bcff" stroke-width="2" d="M393.699,-204.425C399.699,-204.425 405.699,-210.425 405.699,-216.425"/>
<path fill="#b4bcff" stroke="#b4bcff" stroke-width="2" d="M405.699,-228.425C405.699,-234.425 399.699,-240.425 393.699,-240.425"/>
<polyline fill="none" stroke="white" stroke-width="2" points="393.699,-240.425 349.199,-240.425 "/>
<path fill="none" stroke="white" stroke-width="2" d="M349.199,-240.425C343.199,-240.425 337.199,-234.425 337.199,-228.425"/>
<polyline fill="none" stroke="white" stroke-width="2" points="337.199,-228.425 337.199,-216.425 "/>
<path fill="none" stroke="white" stroke-width="2" d="M337.199,-216.425C337.199,-210.425 343.199,-204.425 349.199,-204.425"/>
<polyline fill="none" stroke="white" stroke-width="2" points="349.199,-204.425 393.699,-204.425 "/>
<path fill="none" stroke="white" stroke-width="2" d="M393.699,-204.425C399.699,-204.425 405.699,-210.425 405.699,-216.425"/>
<polyline fill="none" stroke="white" stroke-width="2" points="405.699,-216.425 405.699,-228.425 "/>
<path fill="none" stroke="white" stroke-width="2" d="M405.699,-228.425C405.699,-234.425 399.699,-240.425 393.699,-240.425"/>
<text text-anchor="middle" x="371.449" y="-219.925" font-family="Helvetica,sans-Serif" font-size="10.00">OTX2_CRX</text>
</a>
</g>
<!-- NANOG&#45;&gt;OTX2_CRX -->
<g id="edge22" class="edge"><title>NANOG&#45;&gt;OTX2_CRX</title>
<a xlink:title="OTX2: 0.080||remove18root">
<path fill="none" stroke="#ffb9b9" stroke-width="3" d="M237.574,-186.553C262.621,-193.264 300.084,-203.302 329.015,-211.055"/>
<polygon fill="#ffb9b9" stroke="#ffb9b9" points="328.48,-213.81 336.932,-213.176 329.929,-208.401 328.48,-213.81"/>
</a>
</g>
<!-- GFI1 -->
<g id="node10" class="node"><title>GFI1</title>
<a xlink:href="GFI1.svg" xlink:title="Z&#45;value: 0.612||remove13">
<polygon fill="#a0aaff" stroke="#a0aaff" stroke-width="2" points="343.249,-315.249 313.249,-315.249 301.249,-303.249 301.249,-291.249 313.249,-279.249 343.249,-279.249 355.249,-291.249 355.249,-303.249 343.249,-315.249"/>
<path fill="#a0aaff" stroke="#a0aaff" stroke-width="2" d="M313.249,-315.249C307.249,-315.249 301.249,-309.249 301.249,-303.249"/>
<path fill="#a0aaff" stroke="#a0aaff" stroke-width="2" d="M301.249,-291.249C301.249,-285.249 307.249,-279.249 313.249,-279.249"/>
<path fill="#a0aaff" stroke="#a0aaff" stroke-width="2" d="M343.249,-279.249C349.249,-279.249 355.249,-285.249 355.249,-291.249"/>
<path fill="#a0aaff" stroke="#a0aaff" stroke-width="2" d="M355.249,-303.249C355.249,-309.249 349.249,-315.249 343.249,-315.249"/>
<polyline fill="none" stroke="white" stroke-width="2" points="343.249,-315.249 313.249,-315.249 "/>
<path fill="none" stroke="white" stroke-width="2" d="M313.249,-315.249C307.249,-315.249 301.249,-309.249 301.249,-303.249"/>
<polyline fill="none" stroke="white" stroke-width="2" points="301.249,-303.249 301.249,-291.249 "/>
<path fill="none" stroke="white" stroke-width="2" d="M301.249,-291.249C301.249,-285.249 307.249,-279.249 313.249,-279.249"/>
<polyline fill="none" stroke="white" stroke-width="2" points="313.249,-279.249 343.249,-279.249 "/>
<path fill="none" stroke="white" stroke-width="2" d="M343.249,-279.249C349.249,-279.249 355.249,-285.249 355.249,-291.249"/>
<polyline fill="none" stroke="white" stroke-width="2" points="355.249,-291.249 355.249,-303.249 "/>
<path fill="none" stroke="white" stroke-width="2" d="M355.249,-303.249C355.249,-309.249 349.249,-315.249 343.249,-315.249"/>
<text text-anchor="middle" x="328.249" y="-294.749" font-family="Helvetica,sans-Serif" font-size="10.00">GFI1</text>
</a>
</g>
<!-- NANOG&#45;&gt;GFI1 -->
<g id="edge24" class="edge"><title>NANOG&#45;&gt;GFI1</title>
<a xlink:title="GFI1: 0.032||NANOG: 0.070||remove13root">
<path fill="none" stroke="#ffc4c4" stroke-width="3" d="M234.878,-202.464C255.372,-222.958 284.72,-252.306 305.168,-272.754"/>
<path fill="none" stroke="#bcc2ff" stroke-width="3" d="M233.464,-203.878C253.958,-224.372 283.306,-253.72 303.754,-274.168"/>
<polygon fill="#bcc2ff" stroke="#bcc2ff" points="236.044,-201.084 228.407,-197.407 232.084,-205.044 236.044,-201.084"/>
<polygon fill="#ffc4c4" stroke="#ffc4c4" points="302.603,-275.563 310.24,-279.24 306.563,-271.603 302.603,-275.563"/>
</a>
</g>
<!-- HMGA1 -->
<g id="node22" class="node"><title>HMGA1</title>
<a xlink:href="HMGA1.svg" xlink:title="Z&#45;value: 0.961||remove15">
<polygon fill="#8793ff" stroke="#8793ff" stroke-width="2" points="268.425,-358.449 238.425,-358.449 226.425,-346.449 226.425,-334.449 238.425,-322.449 268.425,-322.449 280.425,-334.449 280.425,-346.449 268.425,-358.449"/>
<path fill="#8793ff" stroke="#8793ff" stroke-width="2" d="M238.425,-358.449C232.425,-358.449 226.425,-352.449 226.425,-346.449"/>
<path fill="#8793ff" stroke="#8793ff" stroke-width="2" d="M226.425,-334.449C226.425,-328.449 232.425,-322.449 238.425,-322.449"/>
<path fill="#8793ff" stroke="#8793ff" stroke-width="2" d="M268.425,-322.449C274.425,-322.449 280.425,-328.449 280.425,-334.449"/>
<path fill="#8793ff" stroke="#8793ff" stroke-width="2" d="M280.425,-346.449C280.425,-352.449 274.425,-358.449 268.425,-358.449"/>
<polyline fill="none" stroke="white" stroke-width="2" points="268.425,-358.449 238.425,-358.449 "/>
<path fill="none" stroke="white" stroke-width="2" d="M238.425,-358.449C232.425,-358.449 226.425,-352.449 226.425,-346.449"/>
<polyline fill="none" stroke="white" stroke-width="2" points="226.425,-346.449 226.425,-334.449 "/>
<path fill="none" stroke="white" stroke-width="2" d="M226.425,-334.449C226.425,-328.449 232.425,-322.449 238.425,-322.449"/>
<polyline fill="none" stroke="white" stroke-width="2" points="238.425,-322.449 268.425,-322.449 "/>
<path fill="none" stroke="white" stroke-width="2" d="M268.425,-322.449C274.425,-322.449 280.425,-328.449 280.425,-334.449"/>
<polyline fill="none" stroke="white" stroke-width="2" points="280.425,-334.449 280.425,-346.449 "/>
<path fill="none" stroke="white" stroke-width="2" d="M280.425,-346.449C280.425,-352.449 274.425,-358.449 268.425,-358.449"/>
<text text-anchor="middle" x="253.425" y="-337.949" font-family="Helvetica,sans-Serif" font-size="10.00">HMGA1</text>
</a>
</g>
<!-- NANOG&#45;&gt;HMGA1 -->
<g id="edge26" class="edge"><title>NANOG&#45;&gt;HMGA1</title>
<a xlink:title="HMGA1: 0.077||remove15root">
<path fill="none" stroke="#ffbaba" stroke-width="3" d="M215.096,-197.406C222.745,-225.951 237.604,-281.407 246.406,-314.254"/>
<polygon fill="#ffbaba" stroke="#ffbaba" points="243.729,-315.084 248.505,-322.087 249.138,-313.635 243.729,-315.084"/>
</a>
</g>
<!-- PATZ1_KLF4&#45;&gt;NANOG -->
<g id="edge6" class="edge"><title>PATZ1_KLF4&#45;&gt;NANOG</title>
<a xlink:title="NANOG: 0.127||remove24root">
<path fill="none" stroke="#afb7ff" stroke-width="3" d="M110.383,-279.067C130.802,-258.648 164.013,-225.437 186.469,-202.98"/>
<polygon fill="#afb7ff" stroke="#afb7ff" points="188.538,-204.871 192.215,-197.234 184.578,-200.911 188.538,-204.871"/>
</a>
</g>
<!-- PATZ1_KLF4&#45;&gt;PATZ1_KLF4 -->
<g id="edge10" class="edge"><title>PATZ1_KLF4&#45;&gt;PATZ1_KLF4</title>
<a xlink:title="PATZ1: 0.441||KLF4: 0.051||remove24">
<path fill="none" stroke="#ce67ff" stroke-width="3" d="M130.414,-303.94C140.535,-303.558 148.2,-301.327 148.2,-297.249 148.2,-294.382 144.41,-292.428 138.642,-291.388"/>
<polygon fill="#ce67ff" stroke="#ce67ff" points="138.654,-288.575 130.414,-290.559 138.093,-294.147 138.654,-288.575"/>
</a>
</g>
<!-- PATZ1_KLF4&#45;&gt;OTX2_CRX -->
<g id="edge8" class="edge"><title>PATZ1_KLF4&#45;&gt;OTX2_CRX</title>
<a xlink:title="CRX: 0.186||remove18">
<path fill="none" stroke="#e1a1ff" stroke-width="3" d="M130.443,-287.002C182.444,-273.068 275.151,-248.228 329.168,-233.754"/>
<polygon fill="#e1a1ff" stroke="#e1a1ff" points="330.168,-236.385 337.171,-231.61 328.718,-230.976 330.168,-236.385"/>
</a>
</g>
<!-- PATZ1_KLF4&#45;&gt;GFI1 -->
<g id="edge12" class="edge"><title>PATZ1_KLF4&#45;&gt;GFI1</title>
<a xlink:title="GFI1: 0.115||remove13">
<path fill="none" stroke="#e6b1ff" stroke-width="3" d="M130.388,-297.249C175.375,-297.249 249.497,-297.249 293.115,-297.249"/>
<polygon fill="#e6b1ff" stroke="#e6b1ff" points="293.152,-300.049 301.152,-297.249 293.152,-294.449 293.152,-300.049"/>
</a>
</g>
<!-- FOXM1_TBL1XR1 -->
<g id="node12" class="node"><title>FOXM1_TBL1XR1</title>
<a xlink:href="FOXM1_TBL1XR1.svg" xlink:title="Z&#45;value: 2.140||remove28">
<polygon fill="#3448ff" stroke="#3448ff" stroke-width="2" points="85.5,-240.425 12.5,-240.425 0.5,-228.425 0.5,-216.425 12.5,-204.425 85.5,-204.425 97.5,-216.425 97.5,-228.425 85.5,-240.425"/>
<path fill="#3448ff" stroke="#3448ff" stroke-width="2" d="M12.5,-240.425C6.5,-240.425 0.5,-234.425 0.5,-228.425"/>
<path fill="#3448ff" stroke="#3448ff" stroke-width="2" d="M0.5,-216.425C0.5,-210.425 6.5,-204.425 12.5,-204.425"/>
<path fill="#3448ff" stroke="#3448ff" stroke-width="2" d="M85.5,-204.425C91.5,-204.425 97.5,-210.425 97.5,-216.425"/>
<path fill="#3448ff" stroke="#3448ff" stroke-width="2" d="M97.5,-228.425C97.5,-234.425 91.5,-240.425 85.5,-240.425"/>
<polyline fill="none" stroke="white" stroke-width="2" points="85.5,-240.425 12.5,-240.425 "/>
<path fill="none" stroke="white" stroke-width="2" d="M12.5,-240.425C6.5,-240.425 0.5,-234.425 0.5,-228.425"/>
<polyline fill="none" stroke="white" stroke-width="2" points="0.5,-228.425 0.5,-216.425 "/>
<path fill="none" stroke="white" stroke-width="2" d="M0.5,-216.425C0.5,-210.425 6.5,-204.425 12.5,-204.425"/>
<polyline fill="none" stroke="white" stroke-width="2" points="12.5,-204.425 85.5,-204.425 "/>
<path fill="none" stroke="white" stroke-width="2" d="M85.5,-204.425C91.5,-204.425 97.5,-210.425 97.5,-216.425"/>
<polyline fill="none" stroke="white" stroke-width="2" points="97.5,-216.425 97.5,-228.425 "/>
<path fill="none" stroke="white" stroke-width="2" d="M97.5,-228.425C97.5,-234.425 91.5,-240.425 85.5,-240.425"/>
<text text-anchor="middle" x="49" y="-219.925" font-family="Helvetica,sans-Serif" font-size="10.00" fill="white">FOXM1_TBL1XR1</text>
</a>
</g>
<!-- PATZ1_KLF4&#45;&gt;FOXM1_TBL1XR1 -->
<g id="edge14" class="edge"><title>PATZ1_KLF4&#45;&gt;FOXM1_TBL1XR1</title>
<a xlink:title="TBL1XR1: 0.675||remove24">
<path fill="none" stroke="#bd32ff" stroke-width="3" d="M81.7425,-279.136C76.3171,-269.739 69.6003,-258.105 63.665,-247.825"/>
<polygon fill="#bd32ff" stroke="#bd32ff" points="65.9359,-246.158 59.5109,-240.63 61.0861,-248.958 65.9359,-246.158"/>
</a>
</g>
<!-- SMAD4 -->
<g id="node14" class="node"><title>SMAD4</title>
<a xlink:href="SMAD4.svg" xlink:title="Z&#45;value: 1.601||remove25">
<polygon fill="#5a6aff" stroke="#5a6aff" stroke-width="2" points="64,-154.025 34,-154.025 22,-142.025 22,-130.025 34,-118.025 64,-118.025 76,-130.025 76,-142.025 64,-154.025"/>
<path fill="#5a6aff" stroke="#5a6aff" stroke-width="2" d="M34,-154.025C28,-154.025 22,-148.025 22,-142.025"/>
<path fill="#5a6aff" stroke="#5a6aff" stroke-width="2" d="M22,-130.025C22,-124.025 28,-118.025 34,-118.025"/>
<path fill="#5a6aff" stroke="#5a6aff" stroke-width="2" d="M64,-118.025C70,-118.025 76,-124.025 76,-130.025"/>
<path fill="#5a6aff" stroke="#5a6aff" stroke-width="2" d="M76,-142.025C76,-148.025 70,-154.025 64,-154.025"/>
<polyline fill="none" stroke="white" stroke-width="2" points="64,-154.025 34,-154.025 "/>
<path fill="none" stroke="white" stroke-width="2" d="M34,-154.025C28,-154.025 22,-148.025 22,-142.025"/>
<polyline fill="none" stroke="white" stroke-width="2" points="22,-142.025 22,-130.025 "/>
<path fill="none" stroke="white" stroke-width="2" d="M22,-130.025C22,-124.025 28,-118.025 34,-118.025"/>
<polyline fill="none" stroke="white" stroke-width="2" points="34,-118.025 64,-118.025 "/>
<path fill="none" stroke="white" stroke-width="2" d="M64,-118.025C70,-118.025 76,-124.025 76,-130.025"/>
<polyline fill="none" stroke="white" stroke-width="2" points="76,-130.025 76,-142.025 "/>
<path fill="none" stroke="white" stroke-width="2" d="M76,-142.025C76,-148.025 70,-154.025 64,-154.025"/>
<text text-anchor="middle" x="49" y="-133.525" font-family="Helvetica,sans-Serif" font-size="10.00" fill="white">SMAD4</text>
</a>
</g>
<!-- PATZ1_KLF4&#45;&gt;SMAD4 -->
<g id="edge16" class="edge"><title>PATZ1_KLF4&#45;&gt;SMAD4</title>
<a xlink:title="SMAD4: 0.086||remove19root">
<path fill="none" stroke="#e8b8ff" stroke-width="3" d="M99.9484,-279.043C107.161,-259.356 115.466,-227.331 105.84,-201.545 99.92,-185.686 88.2402,-171.122 77,-159.774"/>
<polygon fill="#e8b8ff" stroke="#e8b8ff" points="78.8867,-157.703 71.1951,-154.142 74.9874,-161.722 78.8867,-157.703"/>
</a>
</g>
<!-- DMBX1 -->
<g id="node16" class="node"><title>DMBX1</title>
<a xlink:href="DMBX1.svg" xlink:title="Z&#45;value: 0.354||remove22">
<polygon fill="#b2baff" stroke="#b2baff" stroke-width="2" points="107.2,-79.2 77.2,-79.2 65.2,-67.2 65.2,-55.2 77.2,-43.2 107.2,-43.2 119.2,-55.2 119.2,-67.2 107.2,-79.2"/>
<path fill="#b2baff" stroke="#b2baff" stroke-width="2" d="M77.2,-79.2C71.2,-79.2 65.2,-73.2 65.2,-67.2"/>
<path fill="#b2baff" stroke="#b2baff" stroke-width="2" d="M65.2,-55.2C65.2,-49.2 71.2,-43.2 77.2,-43.2"/>
<path fill="#b2baff" stroke="#b2baff" stroke-width="2" d="M107.2,-43.2C113.2,-43.2 119.2,-49.2 119.2,-55.2"/>
<path fill="#b2baff" stroke="#b2baff" stroke-width="2" d="M119.2,-67.2C119.2,-73.2 113.2,-79.2 107.2,-79.2"/>
<polyline fill="none" stroke="white" stroke-width="2" points="107.2,-79.2 77.2,-79.2 "/>
<path fill="none" stroke="white" stroke-width="2" d="M77.2,-79.2C71.2,-79.2 65.2,-73.2 65.2,-67.2"/>
<polyline fill="none" stroke="white" stroke-width="2" points="65.2,-67.2 65.2,-55.2 "/>
<path fill="none" stroke="white" stroke-width="2" d="M65.2,-55.2C65.2,-49.2 71.2,-43.2 77.2,-43.2"/>
<polyline fill="none" stroke="white" stroke-width="2" points="77.2,-43.2 107.2,-43.2 "/>
<path fill="none" stroke="white" stroke-width="2" d="M107.2,-43.2C113.2,-43.2 119.2,-49.2 119.2,-55.2"/>
<polyline fill="none" stroke="white" stroke-width="2" points="119.2,-55.2 119.2,-67.2 "/>
<path fill="none" stroke="white" stroke-width="2" d="M119.2,-67.2C119.2,-73.2 113.2,-79.2 107.2,-79.2"/>
<text text-anchor="middle" x="92.2" y="-58.7" font-family="Helvetica,sans-Serif" font-size="10.00">DMBX1</text>
</a>
</g>
<!-- PATZ1_KLF4&#45;&gt;DMBX1 -->
<g id="edge18" class="edge"><title>PATZ1_KLF4&#45;&gt;DMBX1</title>
<a xlink:title="DMBX1: 0.043||remove8root">
<path fill="none" stroke="#ebc2ff" stroke-width="3" d="M98.0168,-278.989C101.009,-268.64 104.337,-255.383 105.84,-243.305 112.728,-187.965 103.711,-122.7 97.3936,-87.2753"/>
<polygon fill="#ebc2ff" stroke="#ebc2ff" points="100.137,-86.7127 95.936,-79.3514 94.6296,-87.726 100.137,-86.7127"/>
</a>
</g>
<!-- SMAD1 -->
<g id="node18" class="node"><title>SMAD1</title>
<a xlink:href="SMAD1.svg" xlink:title="Z&#45;value: 1.536||remove27">
<polygon fill="#5f6fff" stroke="#5f6fff" stroke-width="2" points="182.025,-36 152.025,-36 140.025,-24 140.025,-12 152.025,-6.39488e-14 182.025,-6.39488e-14 194.025,-12 194.025,-24 182.025,-36"/>
<path fill="#5f6fff" stroke="#5f6fff" stroke-width="2" d="M152.025,-36C146.025,-36 140.025,-30 140.025,-24"/>
<path fill="#5f6fff" stroke="#5f6fff" stroke-width="2" d="M140.025,-12C140.025,-6 146.025,-6.39488e-14 152.025,-6.39488e-14"/>
<path fill="#5f6fff" stroke="#5f6fff" stroke-width="2" d="M182.025,-6.39488e-14C188.025,-6.39488e-14 194.025,-6 194.025,-12"/>
<path fill="#5f6fff" stroke="#5f6fff" stroke-width="2" d="M194.025,-24C194.025,-30 188.025,-36 182.025,-36"/>
<polyline fill="none" stroke="white" stroke-width="2" points="182.025,-36 152.025,-36 "/>
<path fill="none" stroke="white" stroke-width="2" d="M152.025,-36C146.025,-36 140.025,-30 140.025,-24"/>
<polyline fill="none" stroke="white" stroke-width="2" points="140.025,-24 140.025,-12 "/>
<path fill="none" stroke="white" stroke-width="2" d="M140.025,-12C140.025,-6 146.025,-6.39488e-14 152.025,-6.39488e-14"/>
<polyline fill="none" stroke="white" stroke-width="2" points="152.025,-6.39488e-14 182.025,-6.39488e-14 "/>
<path fill="none" stroke="white" stroke-width="2" d="M182.025,-6.39488e-14C188.025,-6.39488e-14 194.025,-6 194.025,-12"/>
<polyline fill="none" stroke="white" stroke-width="2" points="194.025,-12 194.025,-24 "/>
<path fill="none" stroke="white" stroke-width="2" d="M194.025,-24C194.025,-30 188.025,-36 182.025,-36"/>
<text text-anchor="middle" x="167.025" y="-15.5" font-family="Helvetica,sans-Serif" font-size="10.00" fill="white">SMAD1</text>
</a>
</g>
<!-- PATZ1_KLF4&#45;&gt;SMAD1 -->
<g id="edge20" class="edge"><title>PATZ1_KLF4&#45;&gt;SMAD1</title>
<a xlink:title="SMAD1: 0.087||KLF4: 0.044||remove20root">
<path fill="none" stroke="#e8b8ff" stroke-width="3" d="M98.3032,-270.608C112.62,-217.176 144.888,-96.7494 159.107,-43.6854"/>
<path fill="none" stroke="#ebc1ff" stroke-width="3" d="M100.235,-271.126C114.552,-217.693 146.82,-97.267 161.039,-44.2031"/>
<polygon fill="#ebc1ff" stroke="#ebc1ff" points="96.4755,-270.475 97.1095,-278.927 101.885,-271.924 96.4755,-270.475"/>
<polygon fill="#e8b8ff" stroke="#e8b8ff" points="162.828,-44.4789 162.194,-36.0268 157.419,-43.0294 162.828,-44.4789"/>
</a>
</g>
<!-- OTX2_CRX&#45;&gt;OTX2_CRX -->
<g id="edge68" class="edge"><title>OTX2_CRX&#45;&gt;OTX2_CRX</title>
<a xlink:title="CRX: 0.090||remove18">
<path fill="none" stroke="#e8b7ff" stroke-width="3" d="M405.953,-229.148C415.832,-228.885 423.449,-226.643 423.449,-222.425 423.449,-219.458 419.683,-217.47 414.014,-216.459"/>
<polygon fill="#e8b7ff" stroke="#e8b7ff" points="414.18,-213.662 405.953,-215.701 413.656,-219.238 414.18,-213.662"/>
</a>
</g>
<!-- FOXM1_TBL1XR1&#45;&gt;NANOG -->
<g id="edge28" class="edge"><title>FOXM1_TBL1XR1&#45;&gt;NANOG</title>
<a xlink:title="NANOG: 0.140||remove28root">
<path fill="none" stroke="#acb4ff" stroke-width="3" d="M97.8102,-209.346C122.738,-202.666 152.499,-194.692 175.135,-188.627"/>
<polygon fill="#acb4ff" stroke="#acb4ff" points="176.127,-191.26 183.13,-186.485 174.678,-185.851 176.127,-191.26"/>
</a>
</g>
<!-- FOXM1_TBL1XR1&#45;&gt;OTX2_CRX -->
<g id="edge30" class="edge"><title>FOXM1_TBL1XR1&#45;&gt;OTX2_CRX</title>
<a xlink:title="OTX2: 0.053||remove10root">
<path fill="none" stroke="#eabfff" stroke-width="3" d="M97.623,-222.425C160.467,-222.425 268.902,-222.425 328.726,-222.425"/>
<polygon fill="#eabfff" stroke="#eabfff" points="328.835,-225.225 336.835,-222.425 328.835,-219.625 328.835,-225.225"/>
</a>
</g>
<!-- FOXM1_TBL1XR1&#45;&gt;GFI1 -->
<g id="edge32" class="edge"><title>FOXM1_TBL1XR1&#45;&gt;GFI1</title>
<a xlink:title="GFI1: 0.179||remove13">
<path fill="none" stroke="#e1a3ff" stroke-width="3" d="M97.6415,-235.458C153.446,-250.411 243.595,-274.566 293.029,-287.812"/>
<polygon fill="#e1a3ff" stroke="#e1a3ff" points="292.441,-290.553 300.893,-289.919 293.891,-285.144 292.441,-290.553"/>
</a>
</g>
<!-- FOXM1_TBL1XR1&#45;&gt;SMAD4 -->
<g id="edge34" class="edge"><title>FOXM1_TBL1XR1&#45;&gt;SMAD4</title>
<a xlink:title="SMAD4: 0.077||remove17root">
<path fill="none" stroke="#e9baff" stroke-width="3" d="M49,-204.101C49,-191.877 49,-175.621 49,-162.06"/>
<polygon fill="#e9baff" stroke="#e9baff" points="51.8001,-162.025 49,-154.025 46.2001,-162.025 51.8001,-162.025"/>
</a>
</g>
<!-- FOXM1_TBL1XR1&#45;&gt;SMAD1 -->
<g id="edge36" class="edge"><title>FOXM1_TBL1XR1&#45;&gt;SMAD1</title>
<a xlink:title="SMAD1: 0.105||remove23root">
<path fill="none" stroke="#e7b4ff" stroke-width="3" d="M59.4739,-204.283C80.6025,-167.687 128.366,-84.9582 152.495,-43.1667"/>
<polygon fill="#e7b4ff" stroke="#e7b4ff" points="154.999,-44.4289 156.574,-36.1007 150.149,-41.6289 154.999,-44.4289"/>
</a>
</g>
<!-- PAX5 -->
<g id="node29" class="node"><title>PAX5</title>
<a xlink:href="PAX5.svg" xlink:title="Z&#45;value: 1.037||remove12">
<polygon fill="#828eff" stroke="#828eff" stroke-width="2" points="268.425,-36 238.425,-36 226.425,-24 226.425,-12 238.425,-0 268.425,-0 280.425,-12 280.425,-24 268.425,-36"/>
<path fill="#828eff" stroke="#828eff" stroke-width="2" d="M238.425,-36C232.425,-36 226.425,-30 226.425,-24"/>
<path fill="#828eff" stroke="#828eff" stroke-width="2" d="M226.425,-12C226.425,-6 232.425,-0 238.425,-0"/>
<path fill="#828eff" stroke="#828eff" stroke-width="2" d="M268.425,-0C274.425,-0 280.425,-6 280.425,-12"/>
<path fill="#828eff" stroke="#828eff" stroke-width="2" d="M280.425,-24C280.425,-30 274.425,-36 268.425,-36"/>
<polyline fill="none" stroke="white" stroke-width="2" points="268.425,-36 238.425,-36 "/>
<path fill="none" stroke="white" stroke-width="2" d="M238.425,-36C232.425,-36 226.425,-30 226.425,-24"/>
<polyline fill="none" stroke="white" stroke-width="2" points="226.425,-24 226.425,-12 "/>
<path fill="none" stroke="white" stroke-width="2" d="M226.425,-12C226.425,-6 232.425,-0 238.425,-0"/>
<polyline fill="none" stroke="white" stroke-width="2" points="238.425,-0 268.425,-0 "/>
<path fill="none" stroke="white" stroke-width="2" d="M268.425,-0C274.425,-0 280.425,-6 280.425,-12"/>
<polyline fill="none" stroke="white" stroke-width="2" points="280.425,-12 280.425,-24 "/>
<path fill="none" stroke="white" stroke-width="2" d="M280.425,-24C280.425,-30 274.425,-36 268.425,-36"/>
<text text-anchor="middle" x="253.425" y="-15.5" font-family="Helvetica,sans-Serif" font-size="10.00">PAX5</text>
</a>
</g>
<!-- FOXM1_TBL1XR1&#45;&gt;PAX5 -->
<g id="edge38" class="edge"><title>FOXM1_TBL1XR1&#45;&gt;PAX5</title>
<a xlink:title="PAX5: 0.171||remove12">
<path fill="none" stroke="#e2a5ff" stroke-width="3" d="M67.1413,-204.283C104.116,-167.309 188.184,-83.2404 229.542,-41.8821"/>
<polygon fill="#e2a5ff" stroke="#e2a5ff" points="231.647,-43.7375 235.324,-36.1007 227.687,-39.7776 231.647,-43.7375"/>
</a>
</g>
<!-- RHOXF1 -->
<g id="node31" class="node"><title>RHOXF1</title>
<a xlink:href="RHOXF1.svg" xlink:title="Z&#45;value: 1.007||remove26">
<polygon fill="#8490ff" stroke="#8490ff" stroke-width="2" points="344.499,-79.2 311.999,-79.2 299.999,-67.2 299.999,-55.2 311.999,-43.2 344.499,-43.2 356.499,-55.2 356.499,-67.2 344.499,-79.2"/>
<path fill="#8490ff" stroke="#8490ff" stroke-width="2" d="M311.999,-79.2C305.999,-79.2 299.999,-73.2 299.999,-67.2"/>
<path fill="#8490ff" stroke="#8490ff" stroke-width="2" d="M299.999,-55.2C299.999,-49.2 305.999,-43.2 311.999,-43.2"/>
<path fill="#8490ff" stroke="#8490ff" stroke-width="2" d="M344.499,-43.2C350.499,-43.2 356.499,-49.2 356.499,-55.2"/>
<path fill="#8490ff" stroke="#8490ff" stroke-width="2" d="M356.499,-67.2C356.499,-73.2 350.499,-79.2 344.499,-79.2"/>
<polyline fill="none" stroke="white" stroke-width="2" points="344.499,-79.2 311.999,-79.2 "/>
<path fill="none" stroke="white" stroke-width="2" d="M311.999,-79.2C305.999,-79.2 299.999,-73.2 299.999,-67.2"/>
<polyline fill="none" stroke="white" stroke-width="2" points="299.999,-67.2 299.999,-55.2 "/>
<path fill="none" stroke="white" stroke-width="2" d="M299.999,-55.2C299.999,-49.2 305.999,-43.2 311.999,-43.2"/>
<polyline fill="none" stroke="white" stroke-width="2" points="311.999,-43.2 344.499,-43.2 "/>
<path fill="none" stroke="white" stroke-width="2" d="M344.499,-43.2C350.499,-43.2 356.499,-49.2 356.499,-55.2"/>
<polyline fill="none" stroke="white" stroke-width="2" points="356.499,-55.2 356.499,-67.2 "/>
<path fill="none" stroke="white" stroke-width="2" d="M356.499,-67.2C356.499,-73.2 350.499,-79.2 344.499,-79.2"/>
<text text-anchor="middle" x="328.249" y="-58.7" font-family="Helvetica,sans-Serif" font-size="10.00">RHOXF1</text>
</a>
</g>
<!-- FOXM1_TBL1XR1&#45;&gt;RHOXF1 -->
<g id="edge40" class="edge"><title>FOXM1_TBL1XR1&#45;&gt;RHOXF1</title>
<a xlink:title="RHOXF1: 0.075||remove14root">
<path fill="none" stroke="#e9baff" stroke-width="3" d="M80.2206,-204.399C132.524,-174.202 237.527,-113.578 292.631,-81.7642"/>
<polygon fill="#e9baff" stroke="#e9baff" points="294.214,-84.0836 299.742,-77.6587 291.414,-79.2338 294.214,-84.0836"/>
</a>
</g>
<!-- SMAD4&#45;&gt;NANOG -->
<g id="edge42" class="edge"><title>SMAD4&#45;&gt;NANOG</title>
<a xlink:title="NANOG: 0.130||remove25root">
<path fill="none" stroke="#aeb6ff" stroke-width="3" d="M76.3496,-143.353C103.531,-150.636 145.336,-161.838 174.991,-169.784"/>
<polygon fill="#aeb6ff" stroke="#aeb6ff" points="174.558,-172.567 183.01,-171.933 176.008,-167.157 174.558,-172.567"/>
</a>
</g>
<!-- SMAD4&#45;&gt;OTX2_CRX -->
<g id="edge44" class="edge"><title>SMAD4&#45;&gt;OTX2_CRX</title>
<a xlink:title="CRX: 0.077||remove16root">
<path fill="none" stroke="#e9baff" stroke-width="3" d="M76.2478,-152.928C101.783,-167.912 141.518,-189.077 178.905,-200.105 229.077,-214.904 289.31,-219.96 328.887,-221.649"/>
<polygon fill="#e9baff" stroke="#e9baff" points="328.907,-224.452 337.008,-221.96 329.121,-218.856 328.907,-224.452"/>
</a>
</g>
<!-- SMAD4&#45;&gt;PAX5 -->
<g id="edge46" class="edge"><title>SMAD4&#45;&gt;PAX5</title>
<a xlink:title="PAX5: 0.027||remove4root">
<path fill="none" stroke="#ecc5ff" stroke-width="3" d="M76.146,-120.352C112.954,-99.1007 178.708,-61.1378 218.96,-37.8982"/>
<polygon fill="#ecc5ff" stroke="#ecc5ff" points="220.638,-40.1625 226.166,-33.7376 217.838,-35.3127 220.638,-40.1625"/>
</a>
</g>
<!-- DMBX1&#45;&gt;NANOG -->
<g id="edge70" class="edge"><title>DMBX1&#45;&gt;NANOG</title>
<a xlink:title="NANOG: 0.098||remove22root">
<path fill="none" stroke="#b5bdff" stroke-width="3" d="M110.383,-79.3827C130.802,-99.8017 164.013,-133.013 186.469,-155.469"/>
<polygon fill="#b5bdff" stroke="#b5bdff" points="184.578,-157.538 192.215,-161.215 188.538,-153.578 184.578,-157.538"/>
</a>
</g>
<!-- SMAD1&#45;&gt;NANOG -->
<g id="edge48" class="edge"><title>SMAD1&#45;&gt;NANOG</title>
<a xlink:title="NANOG: 0.137||remove27root">
<path fill="none" stroke="#adb5ff" stroke-width="3" d="M171.896,-36.1811C179.545,-64.7264 194.404,-120.183 203.206,-153.029"/>
<polygon fill="#adb5ff" stroke="#adb5ff" points="200.529,-153.86 205.305,-160.863 205.938,-152.41 200.529,-153.86"/>
</a>
</g>
<!-- SMAD1&#45;&gt;SMAD4 -->
<g id="edge50" class="edge"><title>SMAD1&#45;&gt;SMAD4</title>
<a xlink:title="SMAD4: 0.139||remove25">
<path fill="none" stroke="#e4acff" stroke-width="3" d="M157.072,-36.0841C149.083,-49.6451 137.004,-68.1833 123.52,-82.08 111.586,-94.3789 96.5654,-105.845 83.1414,-115.015"/>
<polygon fill="#e4acff" stroke="#e4acff" points="81.3868,-112.82 76.2919,-119.593 84.4989,-117.475 81.3868,-112.82"/>
</a>
</g>
<!-- SMAD1&#45;&gt;HMGA1 -->
<g id="edge52" class="edge"><title>SMAD1&#45;&gt;HMGA1</title>
<a xlink:title="HMGA1: 0.180||remove15">
<path fill="none" stroke="#e1a3ff" stroke-width="3" d="M180.124,-36.4267C197.69,-62.2629 228.208,-111.372 241.545,-158.345 256.805,-212.096 256.678,-278.214 255.121,-314.15"/>
<polygon fill="#e1a3ff" stroke="#e1a3ff" points="252.323,-314.061 254.727,-322.188 257.916,-314.335 252.323,-314.061"/>
</a>
</g>
<!-- SMAD1&#45;&gt;PAX5 -->
<g id="edge54" class="edge"><title>SMAD1&#45;&gt;PAX5</title>
<a xlink:title="PAX5: 0.123||remove12">
<path fill="none" stroke="#e5b0ff" stroke-width="3" d="M194.362,-18C201.921,-18 210.232,-18 218.172,-18"/>
<polygon fill="#e5b0ff" stroke="#e5b0ff" points="218.265,-20.8001 226.265,-18 218.265,-15.2001 218.265,-20.8001"/>
</a>
</g>
<!-- HMGA1&#45;&gt;HMGA1 -->
<g id="edge72" class="edge"><title>HMGA1&#45;&gt;HMGA1</title>
<a xlink:title="HMGA1: 0.005||remove1root">
<path fill="none" stroke="#eecaff" stroke-width="3" d="M280.665,-347.193C290.449,-347.338 298.425,-345.09 298.425,-340.449 298.425,-337.186 294.481,-335.106 288.739,-334.209"/>
<polygon fill="#eecaff" stroke="#eecaff" points="288.824,-331.409 280.665,-333.706 288.476,-336.998 288.824,-331.409"/>
</a>
</g>
<!-- PAX5&#45;&gt;NANOG -->
<g id="edge56" class="edge"><title>PAX5&#45;&gt;NANOG</title>
<a xlink:title="NANOG: 0.063||remove12root">
<path fill="none" stroke="#bdc4ff" stroke-width="3" d="M248.553,-36.1811C240.904,-64.7264 226.045,-120.183 217.244,-153.029"/>
<polygon fill="#bdc4ff" stroke="#bdc4ff" points="214.511,-152.41 215.145,-160.863 219.92,-153.86 214.511,-152.41"/>
</a>
</g>
<!-- PAX5&#45;&gt;PATZ1_KLF4 -->
<g id="edge60" class="edge"><title>PAX5&#45;&gt;PATZ1_KLF4</title>
<a xlink:title="PATZ1: 0.040||remove7root">
<path fill="none" stroke="#ebc2ff" stroke-width="3" d="M242.846,-36.3223C214.821,-84.8626 138.625,-216.84 106.64,-272.238"/>
<polygon fill="#ebc2ff" stroke="#ebc2ff" points="104.183,-270.894 102.608,-279.222 109.033,-273.694 104.183,-270.894"/>
</a>
</g>
<!-- PAX5&#45;&gt;OTX2_CRX -->
<g id="edge58" class="edge"><title>PAX5&#45;&gt;OTX2_CRX</title>
<a xlink:title="OTX2: 0.029||remove6root">
<path fill="none" stroke="#ecc5ff" stroke-width="3" d="M263.898,-36.1413C285.027,-72.7371 332.791,-155.466 356.919,-197.258"/>
<polygon fill="#ecc5ff" stroke="#ecc5ff" points="354.574,-198.796 360.999,-204.324 359.424,-195.996 354.574,-198.796"/>
</a>
</g>
<!-- PAX5&#45;&gt;GFI1 -->
<g id="edge62" class="edge"><title>PAX5&#45;&gt;GFI1</title>
<a xlink:title="GFI1: 0.190||remove12">
<path fill="none" stroke="#e0a0ff" stroke-width="3" d="M258.334,-36.3223C271.261,-84.5654 306.271,-215.227 321.273,-271.212"/>
<polygon fill="#e0a0ff" stroke="#e0a0ff" points="318.644,-272.22 323.419,-279.222 324.053,-270.77 318.644,-272.22"/>
</a>
</g>
<!-- RHOXF1&#45;&gt;NANOG -->
<g id="edge64" class="edge"><title>RHOXF1&#45;&gt;NANOG</title>
<a xlink:title="NANOG: 0.130||remove26root">
<path fill="none" stroke="#aeb6ff" stroke-width="3" d="M310.067,-79.3827C289.648,-99.8017 256.437,-133.013 233.98,-155.469"/>
<polygon fill="#aeb6ff" stroke="#aeb6ff" points="231.911,-153.578 228.234,-161.215 235.871,-157.538 231.911,-153.578"/>
</a>
</g>
<!-- RHOXF1&#45;&gt;HMGA1 -->
<g id="edge66" class="edge"><title>RHOXF1&#45;&gt;HMGA1</title>
<a xlink:title="HMGA1: 0.111||remove15">
<path fill="none" stroke="#e6b2ff" stroke-width="3" d="M323.34,-79.5223C310.413,-127.765 275.402,-258.427 260.401,-314.412"/>
<polygon fill="#e6b2ff" stroke="#e6b2ff" points="257.621,-313.97 258.255,-322.422 263.03,-315.42 257.621,-313.97"/>
</a>
</g>
<!-- WRNIP1 -->
<g id="node49" class="node"><title>WRNIP1</title>
<a xlink:href="WRNIP1.svg" xlink:title="Z&#45;value: 1.103||remove21">
<polygon fill="#7d8aff" stroke="#7d8aff" stroke-width="2" points="386.949,-154.025 355.949,-154.025 343.949,-142.025 343.949,-130.025 355.949,-118.025 386.949,-118.025 398.949,-130.025 398.949,-142.025 386.949,-154.025"/>
<path fill="#7d8aff" stroke="#7d8aff" stroke-width="2" d="M355.949,-154.025C349.949,-154.025 343.949,-148.025 343.949,-142.025"/>
<path fill="#7d8aff" stroke="#7d8aff" stroke-width="2" d="M343.949,-130.025C343.949,-124.025 349.949,-118.025 355.949,-118.025"/>
<path fill="#7d8aff" stroke="#7d8aff" stroke-width="2" d="M386.949,-118.025C392.949,-118.025 398.949,-124.025 398.949,-130.025"/>
<path fill="#7d8aff" stroke="#7d8aff" stroke-width="2" d="M398.949,-142.025C398.949,-148.025 392.949,-154.025 386.949,-154.025"/>
<polyline fill="none" stroke="white" stroke-width="2" points="386.949,-154.025 355.949,-154.025 "/>
<path fill="none" stroke="white" stroke-width="2" d="M355.949,-154.025C349.949,-154.025 343.949,-148.025 343.949,-142.025"/>
<polyline fill="none" stroke="white" stroke-width="2" points="343.949,-142.025 343.949,-130.025 "/>
<path fill="none" stroke="white" stroke-width="2" d="M343.949,-130.025C343.949,-124.025 349.949,-118.025 355.949,-118.025"/>
<polyline fill="none" stroke="white" stroke-width="2" points="355.949,-118.025 386.949,-118.025 "/>
<path fill="none" stroke="white" stroke-width="2" d="M386.949,-118.025C392.949,-118.025 398.949,-124.025 398.949,-130.025"/>
<polyline fill="none" stroke="white" stroke-width="2" points="398.949,-130.025 398.949,-142.025 "/>
<path fill="none" stroke="white" stroke-width="2" d="M398.949,-142.025C398.949,-148.025 392.949,-154.025 386.949,-154.025"/>
<text text-anchor="middle" x="371.449" y="-133.525" font-family="Helvetica,sans-Serif" font-size="10.00">WRNIP1</text>
</a>
</g>
<!-- WRNIP1&#45;&gt;NANOG -->
<g id="edge74" class="edge"><title>WRNIP1&#45;&gt;NANOG</title>
<a xlink:title="NANOG: 0.097||remove21root">
<path fill="none" stroke="#b6bdff" stroke-width="3" d="M343.366,-143.549C316.152,-150.841 274.792,-161.924 245.4,-169.799"/>
<polygon fill="#b6bdff" stroke="#b6bdff" points="244.451,-167.155 237.449,-171.93 245.901,-172.564 244.451,-167.155"/>
</a>
</g>
<!-- WRNIP1&#45;&gt;PATZ1_KLF4 -->
<g id="edge80" class="edge"><title>WRNIP1&#45;&gt;PATZ1_KLF4</title>
<a xlink:title="PATZ1: 0.056||remove11root">
<path fill="none" stroke="#eabfff" stroke-width="3" d="M343.909,-151.925C293.899,-180.798 188.049,-241.911 130.839,-274.941"/>
<polygon fill="#eabfff" stroke="#eabfff" points="129.302,-272.595 123.774,-279.02 132.102,-277.445 129.302,-272.595"/>
</a>
</g>
<!-- WRNIP1&#45;&gt;OTX2_CRX -->
<g id="edge76" class="edge"><title>WRNIP1&#45;&gt;OTX2_CRX</title>
<a xlink:title="CRX: 0.132||OTX2: 0.019||remove18">
<path fill="none" stroke="#e5aeff" stroke-width="3" d="M371.449,-154.348C371.449,-166.572 371.449,-182.828 371.449,-196.389"/>
<polygon fill="#e5aeff" stroke="#e5aeff" points="368.649,-196.424 371.449,-204.424 374.249,-196.424 368.649,-196.424"/>
</a>
</g>
<!-- WRNIP1&#45;&gt;GFI1 -->
<g id="edge82" class="edge"><title>WRNIP1&#45;&gt;GFI1</title>
<a xlink:title="GFI1: 0.119||remove13">
<path fill="none" stroke="#e6b1ff" stroke-width="3" d="M356.738,-154.27C347.596,-166.772 336.626,-184.178 331.429,-201.545 324.62,-224.297 324.421,-251.46 325.574,-271.025"/>
<polygon fill="#e6b1ff" stroke="#e6b1ff" points="322.793,-271.393 326.158,-279.172 328.379,-270.993 322.793,-271.393"/>
</a>
</g>
<!-- WRNIP1&#45;&gt;FOXM1_TBL1XR1 -->
<g id="edge84" class="edge"><title>WRNIP1&#45;&gt;FOXM1_TBL1XR1</title>
<a xlink:title="FOXM1: 0.028||TBL1XR1: 0.019||remove5root">
<path fill="none" stroke="#ecc5ff" stroke-width="3" d="M343.705,-153.219C318.154,-168.184 278.69,-189.148 241.545,-200.105 197.098,-213.215 144.755,-218.679 105.872,-220.93"/>
<polygon fill="#ecc5ff" stroke="#ecc5ff" points="105.626,-218.139 97.787,-221.363 105.925,-223.731 105.626,-218.139"/>
</a>
</g>
<!-- WRNIP1&#45;&gt;SMAD4 -->
<g id="edge86" class="edge"><title>WRNIP1&#45;&gt;SMAD4</title>
<a xlink:title="SMAD4: 0.103||remove21">
<path fill="none" stroke="#e7b4ff" stroke-width="3" d="M343.678,-136.025C285.199,-136.025 149.434,-136.025 84.6455,-136.025"/>
<polygon fill="#e7b4ff" stroke="#e7b4ff" points="84.3615,-133.225 76.3614,-136.025 84.3614,-138.825 84.3615,-133.225"/>
</a>
</g>
<!-- WRNIP1&#45;&gt;DMBX1 -->
<g id="edge88" class="edge"><title>WRNIP1&#45;&gt;DMBX1</title>
<a xlink:title="DMBX1: 0.045||remove9root">
<path fill="none" stroke="#ebc1ff" stroke-width="3" d="M343.909,-128.645C292.893,-114.975 183.768,-85.7357 127.447,-70.6444"/>
<polygon fill="#ebc1ff" stroke="#ebc1ff" points="127.986,-67.89 119.533,-68.524 126.536,-73.2992 127.986,-67.89"/>
</a>
</g>
<!-- WRNIP1&#45;&gt;SMAD1 -->
<g id="edge90" class="edge"><title>WRNIP1&#45;&gt;SMAD1</title>
<a xlink:title="SMAD1: 0.023||remove3root">
<path fill="none" stroke="#ecc6ff" stroke-width="3" d="M343.88,-120.107C306.945,-98.7829 241.418,-60.9509 201.333,-37.8082"/>
<polygon fill="#ecc6ff" stroke="#ecc6ff" points="202.486,-35.2403 194.157,-33.6651 199.686,-40.0901 202.486,-35.2403"/>
</a>
</g>
<!-- WRNIP1&#45;&gt;PAX5 -->
<g id="edge92" class="edge"><title>WRNIP1&#45;&gt;PAX5</title>
<a xlink:title="PAX5: 0.008||remove2root">
<path fill="none" stroke="#eecaff" stroke-width="3" d="M343.753,-120.039C328.353,-110.31 309.473,-96.9179 295.189,-82.08 284.103,-70.5639 274.209,-55.7097 266.836,-43.2029"/>
<polygon fill="#eecaff" stroke="#eecaff" points="269.203,-41.7025 262.797,-36.1532 264.345,-44.4866 269.203,-41.7025"/>
</a>
</g>
<!-- WRNIP1&#45;&gt;WRNIP1 -->
<g id="edge78" class="edge"><title>WRNIP1&#45;&gt;WRNIP1</title>
<a xlink:title="WRNIP1: 0.003||remove0root">
<path fill="none" stroke="#eecbff" stroke-width="3" d="M399.133,-142.773C408.713,-142.844 416.449,-140.595 416.449,-136.025 416.449,-132.883 412.793,-130.837 407.394,-129.889"/>
<polygon fill="#eecbff" stroke="#eecbff" points="407.319,-127.076 399.133,-129.276 406.904,-132.661 407.319,-127.076"/>
</a>
</g>
</g>
</svg>
