<?xml version="1.0" encoding="UTF-8" standalone="no"?>
<!DOCTYPE svg PUBLIC "-//W3C//DTD SVG 1.1//EN"
 "http://www.w3.org/Graphics/SVG/1.1/DTD/svg11.dtd">
<!-- Generated by graphviz version 2.28.0 (20110630.0925)
 -->
<!-- Title: _anonymous_0 Pages: 1 -->
<svg width="437pt" height="366pt"
 viewBox="0.00 0.00 437.45 366.45" xmlns="http://www.w3.org/2000/svg" xmlns:xlink="http://www.w3.org/1999/xlink">
<g id="graph1" class="graph" transform="scale(1 1) rotate(0) translate(4 362.449)">
<title>_anonymous_0</title>
<polygon fill="white" stroke="white" points="-4,5 -4,-362.449 434.449,-362.449 434.449,5 -4,5"/>
<!-- ESRRA_ESR2 -->
<g id="node1" class="node"><title>ESRRA_ESR2</title>
<a xlink:href="ESRRA_ESR2.svg" xlink:title="Z&#45;value: 3.814||remove40">
<polygon fill="#3247ff" stroke="#3247ff" stroke-width="2" points="122.95,-79.2 64.45,-79.2 52.45,-67.2 52.45,-55.2 64.45,-43.2 122.95,-43.2 134.95,-55.2 134.95,-67.2 122.95,-79.2"/>
<path fill="#3247ff" stroke="#3247ff" stroke-width="2" d="M64.45,-79.2C58.45,-79.2 52.45,-73.2 52.45,-67.2"/>
<path fill="#3247ff" stroke="#3247ff" stroke-width="2" d="M52.45,-55.2C52.45,-49.2 58.45,-43.2 64.45,-43.2"/>
<path fill="#3247ff" stroke="#3247ff" stroke-width="2" d="M122.95,-43.2C128.95,-43.2 134.95,-49.2 134.95,-55.2"/>
<path fill="#3247ff" stroke="#3247ff" stroke-width="2" d="M134.95,-67.2C134.95,-73.2 128.95,-79.2 122.95,-79.2"/>
<polyline fill="none" stroke="white" stroke-width="2" points="122.95,-79.2 64.45,-79.2 "/>
<path fill="none" stroke="white" stroke-width="2" d="M64.45,-79.2C58.45,-79.2 52.45,-73.2 52.45,-67.2"/>
<polyline fill="none" stroke="white" stroke-width="2" points="52.45,-67.2 52.45,-55.2 "/>
<path fill="none" stroke="white" stroke-width="2" d="M52.45,-55.2C52.45,-49.2 58.45,-43.2 64.45,-43.2"/>
<polyline fill="none" stroke="white" stroke-width="2" points="64.45,-43.2 122.95,-43.2 "/>
<path fill="none" stroke="white" stroke-width="2" d="M122.95,-43.2C128.95,-43.2 134.95,-49.2 134.95,-55.2"/>
<polyline fill="none" stroke="white" stroke-width="2" points="134.95,-55.2 134.95,-67.2 "/>
<path fill="none" stroke="white" stroke-width="2" d="M134.95,-67.2C134.95,-73.2 128.95,-79.2 122.95,-79.2"/>
<text text-anchor="middle" x="93.7" y="-58.7" font-family="Helvetica,sans-Serif" font-size="10.00" fill="white">ESRRA_ESR2</text>
</a>
</g>
<!-- STAT1_STAT3_BCL6 -->
<g id="node2" class="node"><title>STAT1_STAT3_BCL6</title>
<a xlink:href="STAT1_STAT3_BCL6.svg" xlink:title="Z&#45;value: 0.363||remove29">
<polygon fill="#bdc3ff" stroke="#bdc3ff" stroke-width="2" points="417.199,-240.425 328.699,-240.425 316.699,-228.425 316.699,-216.425 328.699,-204.425 417.199,-204.425 429.199,-216.425 429.199,-228.425 417.199,-240.425"/>
<path fill="#bdc3ff" stroke="#bdc3ff" stroke-width="2" d="M328.699,-240.425C322.699,-240.425 316.699,-234.425 316.699,-228.425"/>
<path fill="#bdc3ff" stroke="#bdc3ff" stroke-width="2" d="M316.699,-216.425C316.699,-210.425 322.699,-204.425 328.699,-204.425"/>
<path fill="#bdc3ff" stroke="#bdc3ff" stroke-width="2" d="M417.199,-204.425C423.199,-204.425 429.199,-210.425 429.199,-216.425"/>
<path fill="#bdc3ff" stroke="#bdc3ff" stroke-width="2" d="M429.199,-228.425C429.199,-234.425 423.199,-240.425 417.199,-240.425"/>
<polyline fill="none" stroke="white" stroke-width="2" points="417.199,-240.425 328.699,-240.425 "/>
<path fill="none" stroke="white" stroke-width="2" d="M328.699,-240.425C322.699,-240.425 316.699,-234.425 316.699,-228.425"/>
<polyline fill="none" stroke="white" stroke-width="2" points="316.699,-228.425 316.699,-216.425 "/>
<path fill="none" stroke="white" stroke-width="2" d="M316.699,-216.425C316.699,-210.425 322.699,-204.425 328.699,-204.425"/>
<polyline fill="none" stroke="white" stroke-width="2" points="328.699,-204.425 417.199,-204.425 "/>
<path fill="none" stroke="white" stroke-width="2" d="M417.199,-204.425C423.199,-204.425 429.199,-210.425 429.199,-216.425"/>
<polyline fill="none" stroke="white" stroke-width="2" points="429.199,-216.425 429.199,-228.425 "/>
<path fill="none" stroke="white" stroke-width="2" d="M429.199,-228.425C429.199,-234.425 423.199,-240.425 417.199,-240.425"/>
<text text-anchor="middle" x="372.949" y="-219.925" font-family="Helvetica,sans-Serif" font-size="10.00">STAT1_STAT3_BCL6</text>
</a>
</g>
<!-- ESRRA_ESR2&#45;&gt;STAT1_STAT3_BCL6 -->
<g id="edge2" class="edge"><title>ESRRA_ESR2&#45;&gt;STAT1_STAT3_BCL6</title>
<a xlink:title="STAT1: 0.115||remove23root">
<path fill="none" stroke="#eabeff" stroke-width="3" d="M124.921,-79.2252C176.271,-108.872 278.417,-167.846 334.268,-200.092"/>
<polygon fill="#eabeff" stroke="#eabeff" points="333.174,-202.694 341.502,-204.269 335.974,-197.844 333.174,-202.694"/>
</a>
</g>
<!-- IRF2_STAT2_IRF8_IRF1 -->
<g id="node4" class="node"><title>IRF2_STAT2_IRF8_IRF1</title>
<a xlink:href="IRF2_STAT2_IRF8_IRF1.svg" xlink:title="Z&#45;value: 0.544||remove30">
<polygon fill="#b6bdff" stroke="#b6bdff" stroke-width="2" points="381.749,-315.249 277.749,-315.249 265.749,-303.249 265.749,-291.249 277.749,-279.249 381.749,-279.249 393.749,-291.249 393.749,-303.249 381.749,-315.249"/>
<path fill="#b6bdff" stroke="#b6bdff" stroke-width="2" d="M277.749,-315.249C271.749,-315.249 265.749,-309.249 265.749,-303.249"/>
<path fill="#b6bdff" stroke="#b6bdff" stroke-width="2" d="M265.749,-291.249C265.749,-285.249 271.749,-279.249 277.749,-279.249"/>
<path fill="#b6bdff" stroke="#b6bdff" stroke-width="2" d="M381.749,-279.249C387.749,-279.249 393.749,-285.249 393.749,-291.249"/>
<path fill="#b6bdff" stroke="#b6bdff" stroke-width="2" d="M393.749,-303.249C393.749,-309.249 387.749,-315.249 381.749,-315.249"/>
<polyline fill="none" stroke="white" stroke-width="2" points="381.749,-315.249 277.749,-315.249 "/>
<path fill="none" stroke="white" stroke-width="2" d="M277.749,-315.249C271.749,-315.249 265.749,-309.249 265.749,-303.249"/>
<polyline fill="none" stroke="white" stroke-width="2" points="265.749,-303.249 265.749,-291.249 "/>
<path fill="none" stroke="white" stroke-width="2" d="M265.749,-291.249C265.749,-285.249 271.749,-279.249 277.749,-279.249"/>
<polyline fill="none" stroke="white" stroke-width="2" points="277.749,-279.249 381.749,-279.249 "/>
<path fill="none" stroke="white" stroke-width="2" d="M381.749,-279.249C387.749,-279.249 393.749,-285.249 393.749,-291.249"/>
<polyline fill="none" stroke="white" stroke-width="2" points="393.749,-291.249 393.749,-303.249 "/>
<path fill="none" stroke="white" stroke-width="2" d="M393.749,-303.249C393.749,-309.249 387.749,-315.249 381.749,-315.249"/>
<text text-anchor="middle" x="329.749" y="-294.749" font-family="Helvetica,sans-Serif" font-size="10.00">IRF2_STAT2_IRF8_IRF1</text>
</a>
</g>
<!-- ESRRA_ESR2&#45;&gt;IRF2_STAT2_IRF8_IRF1 -->
<g id="edge4" class="edge"><title>ESRRA_ESR2&#45;&gt;IRF2_STAT2_IRF8_IRF1</title>
<a xlink:title="IRF8: 0.068||remove17root">
<path fill="none" stroke="#ecc4ff" stroke-width="3" d="M101.941,-79.5861C115.316,-107.95 143.964,-162.977 180.405,-200.105 211.093,-231.372 253.542,-257.779 285.343,-275.131"/>
<polygon fill="#ecc4ff" stroke="#ecc4ff" points="284.402,-277.805 292.774,-279.128 287.054,-272.873 284.402,-277.805"/>
</a>
</g>
<!-- PLAGL1 -->
<g id="node6" class="node"><title>PLAGL1</title>
<a xlink:href="PLAGL1.svg" xlink:title="Z&#45;value: 1.203||remove38">
<polygon fill="#9ba5ff" stroke="#9ba5ff" stroke-width="2" points="183.525,-36 153.525,-36 141.525,-24 141.525,-12 153.525,-6.39488e-14 183.525,-6.39488e-14 195.525,-12 195.525,-24 183.525,-36"/>
<path fill="#9ba5ff" stroke="#9ba5ff" stroke-width="2" d="M153.525,-36C147.525,-36 141.525,-30 141.525,-24"/>
<path fill="#9ba5ff" stroke="#9ba5ff" stroke-width="2" d="M141.525,-12C141.525,-6 147.525,-6.39488e-14 153.525,-6.39488e-14"/>
<path fill="#9ba5ff" stroke="#9ba5ff" stroke-width="2" d="M183.525,-6.39488e-14C189.525,-6.39488e-14 195.525,-6 195.525,-12"/>
<path fill="#9ba5ff" stroke="#9ba5ff" stroke-width="2" d="M195.525,-24C195.525,-30 189.525,-36 183.525,-36"/>
<polyline fill="none" stroke="white" stroke-width="2" points="183.525,-36 153.525,-36 "/>
<path fill="none" stroke="white" stroke-width="2" d="M153.525,-36C147.525,-36 141.525,-30 141.525,-24"/>
<polyline fill="none" stroke="white" stroke-width="2" points="141.525,-24 141.525,-12 "/>
<path fill="none" stroke="white" stroke-width="2" d="M141.525,-12C141.525,-6 147.525,-6.39488e-14 153.525,-6.39488e-14"/>
<polyline fill="none" stroke="white" stroke-width="2" points="153.525,-6.39488e-14 183.525,-6.39488e-14 "/>
<path fill="none" stroke="white" stroke-width="2" d="M183.525,-6.39488e-14C189.525,-6.39488e-14 195.525,-6 195.525,-12"/>
<polyline fill="none" stroke="white" stroke-width="2" points="195.525,-12 195.525,-24 "/>
<path fill="none" stroke="white" stroke-width="2" d="M195.525,-24C195.525,-30 189.525,-36 183.525,-36"/>
<text text-anchor="middle" x="168.525" y="-15.5" font-family="Helvetica,sans-Serif" font-size="10.00">PLAGL1</text>
</a>
</g>
<!-- ESRRA_ESR2&#45;&gt;PLAGL1 -->
<g id="edge6" class="edge"><title>ESRRA_ESR2&#45;&gt;PLAGL1</title>
<a xlink:title="PLAGL1: 0.182||ESRRA: 0.170||remove32root">
<path fill="none" stroke="#e7b6ff" stroke-width="3" d="M131.451,-38.2499C132.247,-37.79 133.043,-37.3304 133.837,-36.872"/>
<path fill="none" stroke="#e8b8ff" stroke-width="3" d="M132.451,-39.9819C133.247,-39.5221 134.043,-39.0625 134.837,-38.604"/>
<polygon fill="#e8b8ff" stroke="#e8b8ff" points="130.527,-36.7047 124.999,-43.1296 133.327,-41.5544 130.527,-36.7047"/>
<polygon fill="#e7b6ff" stroke="#e7b6ff" points="135.864,-40.0898 141.392,-33.6649 133.064,-35.2401 135.864,-40.0898"/>
</a>
</g>
<!-- NFKB2 -->
<g id="node8" class="node"><title>NFKB2</title>
<a xlink:href="NFKB2.svg" xlink:title="Z&#45;value: 0.836||remove41">
<polygon fill="#ffaaaa" stroke="#ffaaaa" stroke-width="2" points="226.725,-197.225 196.725,-197.225 184.725,-185.225 184.725,-173.225 196.725,-161.225 226.725,-161.225 238.725,-173.225 238.725,-185.225 226.725,-197.225"/>
<path fill="#ffaaaa" stroke="#ffaaaa" stroke-width="2" d="M196.725,-197.225C190.725,-197.225 184.725,-191.225 184.725,-185.225"/>
<path fill="#ffaaaa" stroke="#ffaaaa" stroke-width="2" d="M184.725,-173.225C184.725,-167.225 190.725,-161.225 196.725,-161.225"/>
<path fill="#ffaaaa" stroke="#ffaaaa" stroke-width="2" d="M226.725,-161.225C232.725,-161.225 238.725,-167.225 238.725,-173.225"/>
<path fill="#ffaaaa" stroke="#ffaaaa" stroke-width="2" d="M238.725,-185.225C238.725,-191.225 232.725,-197.225 226.725,-197.225"/>
<polyline fill="none" stroke="white" stroke-width="2" points="226.725,-197.225 196.725,-197.225 "/>
<path fill="none" stroke="white" stroke-width="2" d="M196.725,-197.225C190.725,-197.225 184.725,-191.225 184.725,-185.225"/>
<polyline fill="none" stroke="white" stroke-width="2" points="184.725,-185.225 184.725,-173.225 "/>
<path fill="none" stroke="white" stroke-width="2" d="M184.725,-173.225C184.725,-167.225 190.725,-161.225 196.725,-161.225"/>
<polyline fill="none" stroke="white" stroke-width="2" points="196.725,-161.225 226.725,-161.225 "/>
<path fill="none" stroke="white" stroke-width="2" d="M226.725,-161.225C232.725,-161.225 238.725,-167.225 238.725,-173.225"/>
<polyline fill="none" stroke="white" stroke-width="2" points="238.725,-173.225 238.725,-185.225 "/>
<path fill="none" stroke="white" stroke-width="2" d="M238.725,-185.225C238.725,-191.225 232.725,-197.225 226.725,-197.225"/>
<text text-anchor="middle" x="211.725" y="-176.725" font-family="Helvetica,sans-Serif" font-size="10.00">NFKB2</text>
</a>
</g>
<!-- ESRRA_ESR2&#45;&gt;NFKB2 -->
<g id="edge8" class="edge"><title>ESRRA_ESR2&#45;&gt;NFKB2</title>
<a xlink:title="NFKB2: 0.278||remove40root">
<path fill="none" stroke="#abb4ff" stroke-width="3" d="M111.883,-79.3827C132.302,-99.8017 165.513,-133.013 187.969,-155.469"/>
<polygon fill="#abb4ff" stroke="#abb4ff" points="186.078,-157.538 193.715,-161.215 190.038,-153.578 186.078,-157.538"/>
</a>
</g>
<!-- IRF2_STAT2_IRF8_IRF1&#45;&gt;IRF2_STAT2_IRF8_IRF1 -->
<g id="edge40" class="edge"><title>IRF2_STAT2_IRF8_IRF1&#45;&gt;IRF2_STAT2_IRF8_IRF1</title>
<a xlink:title="IRF2: 0.013||remove2root">
<path fill="none" stroke="#eecaff" stroke-width="3" d="M394.037,-303.495C404.535,-302.601 411.749,-300.519 411.749,-297.249 411.749,-294.899 408.022,-293.163 402.028,-292.04"/>
<polygon fill="#eecaff" stroke="#eecaff" points="402.331,-289.256 394.037,-291.004 401.61,-294.809 402.331,-289.256"/>
</a>
</g>
<!-- SMAD1 -->
<g id="node14" class="node"><title>SMAD1</title>
<a xlink:href="SMAD1.svg" xlink:title="Z&#45;value: 1.536||remove27">
<polygon fill="#8e99ff" stroke="#8e99ff" stroke-width="2" points="269.925,-36 239.925,-36 227.925,-24 227.925,-12 239.925,-0 269.925,-0 281.925,-12 281.925,-24 269.925,-36"/>
<path fill="#8e99ff" stroke="#8e99ff" stroke-width="2" d="M239.925,-36C233.925,-36 227.925,-30 227.925,-24"/>
<path fill="#8e99ff" stroke="#8e99ff" stroke-width="2" d="M227.925,-12C227.925,-6 233.925,-0 239.925,-0"/>
<path fill="#8e99ff" stroke="#8e99ff" stroke-width="2" d="M269.925,-0C275.925,-0 281.925,-6 281.925,-12"/>
<path fill="#8e99ff" stroke="#8e99ff" stroke-width="2" d="M281.925,-24C281.925,-30 275.925,-36 269.925,-36"/>
<polyline fill="none" stroke="white" stroke-width="2" points="269.925,-36 239.925,-36 "/>
<path fill="none" stroke="white" stroke-width="2" d="M239.925,-36C233.925,-36 227.925,-30 227.925,-24"/>
<polyline fill="none" stroke="white" stroke-width="2" points="227.925,-24 227.925,-12 "/>
<path fill="none" stroke="white" stroke-width="2" d="M227.925,-12C227.925,-6 233.925,-0 239.925,-0"/>
<polyline fill="none" stroke="white" stroke-width="2" points="239.925,-0 269.925,-0 "/>
<path fill="none" stroke="white" stroke-width="2" d="M269.925,-0C275.925,-0 281.925,-6 281.925,-12"/>
<polyline fill="none" stroke="white" stroke-width="2" points="281.925,-12 281.925,-24 "/>
<path fill="none" stroke="white" stroke-width="2" d="M281.925,-24C281.925,-30 275.925,-36 269.925,-36"/>
<text text-anchor="middle" x="254.925" y="-15.5" font-family="Helvetica,sans-Serif" font-size="10.00">SMAD1</text>
</a>
</g>
<!-- IRF2_STAT2_IRF8_IRF1&#45;&gt;SMAD1 -->
<g id="edge42" class="edge"><title>IRF2_STAT2_IRF8_IRF1&#45;&gt;SMAD1</title>
<a xlink:title="SMAD1: 0.007||IRF1: 0.124||IRF8: 0.068||remove25root">
<path fill="none" stroke="#eecbff" stroke-width="3" d="M317.211,-272.017C313.457,-263.138 309.499,-253.076 306.457,-243.61 283.738,-172.847 266.461,-86.8141 258.6,-44.3937"/>
<path fill="none" stroke="#eabdff" stroke-width="3" d="M319.053,-271.238C315.319,-262.406 311.36,-252.344 308.361,-242.999 285.699,-172.453 268.421,-86.4203 260.566,-44.0293"/>
<polygon fill="#eabdff" stroke="#eabdff" points="315.596,-272.818 321.339,-279.052 320.738,-270.598 315.596,-272.818"/>
<polygon fill="#eecbff" stroke="#eecbff" points="262.291,-43.4518 258.095,-36.0875 256.782,-44.4612 262.291,-43.4518"/>
</a>
</g>
<!-- PLAGL1&#45;&gt;STAT1_STAT3_BCL6 -->
<g id="edge10" class="edge"><title>PLAGL1&#45;&gt;STAT1_STAT3_BCL6</title>
<a xlink:title="BCL6: 0.072||STAT3: 0.019||remove18root">
<path fill="none" stroke="#ecc3ff" stroke-width="3" d="M186.666,-36.1413C223.641,-73.116 307.709,-157.184 349.067,-198.542"/>
<polygon fill="#ecc3ff" stroke="#ecc3ff" points="347.212,-200.647 354.849,-204.324 351.172,-196.687 347.212,-200.647"/>
</a>
</g>
<!-- PLAGL1&#45;&gt;IRF2_STAT2_IRF8_IRF1 -->
<g id="edge14" class="edge"><title>PLAGL1&#45;&gt;IRF2_STAT2_IRF8_IRF1</title>
<a xlink:title="IRF8: 0.178||PLAGL1: 0.035||remove30">
<path fill="none" stroke="#e8b7ff" stroke-width="3" d="M184.027,-42.8505C214.746,-96.0579 285.623,-218.821 316.173,-271.734"/>
<path fill="none" stroke="#edc7ff" stroke-width="3" d="M182.295,-43.8505C213.014,-97.0579 283.891,-219.821 314.441,-272.734"/>
<polygon fill="#edc7ff" stroke="#edc7ff" points="185.528,-41.8505 179.103,-36.3223 180.678,-44.6506 185.528,-41.8505"/>
<polygon fill="#e8b7ff" stroke="#e8b7ff" points="312.917,-273.694 319.341,-279.222 317.766,-270.894 312.917,-273.694"/>
</a>
</g>
<!-- PLAGL1&#45;&gt;PLAGL1 -->
<g id="edge20" class="edge"><title>PLAGL1&#45;&gt;PLAGL1</title>
<a xlink:title="PLAGL1: 0.151||remove31root">
<path fill="none" stroke="#e9baff" stroke-width="3" d="M195.765,-24.7434C205.549,-24.8884 213.525,-22.6406 213.525,-18 213.525,-14.7371 209.581,-12.6571 203.839,-11.7601"/>
<polygon fill="#e9baff" stroke="#e9baff" points="203.924,-8.96005 195.765,-11.2566 203.576,-14.5492 203.924,-8.96005"/>
</a>
</g>
<!-- PLAGL1&#45;&gt;NFKB2 -->
<g id="edge24" class="edge"><title>PLAGL1&#45;&gt;NFKB2</title>
<a xlink:title="NFKB2: 0.251||remove38root">
<path fill="none" stroke="#aeb6ff" stroke-width="3" d="M173.396,-36.1811C181.045,-64.7264 195.904,-120.183 204.706,-153.029"/>
<polygon fill="#aeb6ff" stroke="#aeb6ff" points="202.029,-153.86 206.805,-160.863 207.438,-152.41 202.029,-153.86"/>
</a>
</g>
<!-- GMEB2 -->
<g id="node11" class="node"><title>GMEB2</title>
<a xlink:href="GMEB2.svg" xlink:title="Z&#45;value: 0.543||remove37">
<polygon fill="#b6bdff" stroke="#b6bdff" stroke-width="2" points="269.925,-358.449 239.925,-358.449 227.925,-346.449 227.925,-334.449 239.925,-322.449 269.925,-322.449 281.925,-334.449 281.925,-346.449 269.925,-358.449"/>
<path fill="#b6bdff" stroke="#b6bdff" stroke-width="2" d="M239.925,-358.449C233.925,-358.449 227.925,-352.449 227.925,-346.449"/>
<path fill="#b6bdff" stroke="#b6bdff" stroke-width="2" d="M227.925,-334.449C227.925,-328.449 233.925,-322.449 239.925,-322.449"/>
<path fill="#b6bdff" stroke="#b6bdff" stroke-width="2" d="M269.925,-322.449C275.925,-322.449 281.925,-328.449 281.925,-334.449"/>
<path fill="#b6bdff" stroke="#b6bdff" stroke-width="2" d="M281.925,-346.449C281.925,-352.449 275.925,-358.449 269.925,-358.449"/>
<polyline fill="none" stroke="white" stroke-width="2" points="269.925,-358.449 239.925,-358.449 "/>
<path fill="none" stroke="white" stroke-width="2" d="M239.925,-358.449C233.925,-358.449 227.925,-352.449 227.925,-346.449"/>
<polyline fill="none" stroke="white" stroke-width="2" points="227.925,-346.449 227.925,-334.449 "/>
<path fill="none" stroke="white" stroke-width="2" d="M227.925,-334.449C227.925,-328.449 233.925,-322.449 239.925,-322.449"/>
<polyline fill="none" stroke="white" stroke-width="2" points="239.925,-322.449 269.925,-322.449 "/>
<path fill="none" stroke="white" stroke-width="2" d="M269.925,-322.449C275.925,-322.449 281.925,-328.449 281.925,-334.449"/>
<polyline fill="none" stroke="white" stroke-width="2" points="281.925,-334.449 281.925,-346.449 "/>
<path fill="none" stroke="white" stroke-width="2" d="M281.925,-346.449C281.925,-352.449 275.925,-358.449 269.925,-358.449"/>
<text text-anchor="middle" x="254.925" y="-337.949" font-family="Helvetica,sans-Serif" font-size="10.00">GMEB2</text>
</a>
</g>
<!-- PLAGL1&#45;&gt;GMEB2 -->
<g id="edge12" class="edge"><title>PLAGL1&#45;&gt;GMEB2</title>
<a xlink:title="GMEB2: 0.123||remove24root">
<path fill="none" stroke="#eabdff" stroke-width="3" d="M181.624,-36.4267C199.19,-62.2629 229.708,-111.372 243.045,-158.345 251.137,-186.846 253.746,-270.903 254.564,-314.125"/>
<polygon fill="#eabdff" stroke="#eabdff" points="251.766,-314.246 254.705,-322.196 257.365,-314.149 251.766,-314.246"/>
</a>
</g>
<!-- PLAGL1&#45;&gt;SMAD1 -->
<g id="edge16" class="edge"><title>PLAGL1&#45;&gt;SMAD1</title>
<a xlink:title="SMAD1: 0.038||remove11root">
<path fill="none" stroke="#edc7ff" stroke-width="3" d="M195.862,-18C203.421,-18 211.732,-18 219.672,-18"/>
<polygon fill="#edc7ff" stroke="#edc7ff" points="219.765,-20.8001 227.765,-18 219.765,-15.2001 219.765,-20.8001"/>
</a>
</g>
<!-- YY1_YY2 -->
<g id="node16" class="node"><title>YY1_YY2</title>
<a xlink:href="YY1_YY2.svg" xlink:title="Z&#45;value: 1.199||remove39">
<polygon fill="#9ba5ff" stroke="#9ba5ff" stroke-width="2" points="185.775,-358.449 151.275,-358.449 139.275,-346.449 139.275,-334.449 151.275,-322.449 185.775,-322.449 197.775,-334.449 197.775,-346.449 185.775,-358.449"/>
<path fill="#9ba5ff" stroke="#9ba5ff" stroke-width="2" d="M151.275,-358.449C145.275,-358.449 139.275,-352.449 139.275,-346.449"/>
<path fill="#9ba5ff" stroke="#9ba5ff" stroke-width="2" d="M139.275,-334.449C139.275,-328.449 145.275,-322.449 151.275,-322.449"/>
<path fill="#9ba5ff" stroke="#9ba5ff" stroke-width="2" d="M185.775,-322.449C191.775,-322.449 197.775,-328.449 197.775,-334.449"/>
<path fill="#9ba5ff" stroke="#9ba5ff" stroke-width="2" d="M197.775,-346.449C197.775,-352.449 191.775,-358.449 185.775,-358.449"/>
<polyline fill="none" stroke="white" stroke-width="2" points="185.775,-358.449 151.275,-358.449 "/>
<path fill="none" stroke="white" stroke-width="2" d="M151.275,-358.449C145.275,-358.449 139.275,-352.449 139.275,-346.449"/>
<polyline fill="none" stroke="white" stroke-width="2" points="139.275,-346.449 139.275,-334.449 "/>
<path fill="none" stroke="white" stroke-width="2" d="M139.275,-334.449C139.275,-328.449 145.275,-322.449 151.275,-322.449"/>
<polyline fill="none" stroke="white" stroke-width="2" points="151.275,-322.449 185.775,-322.449 "/>
<path fill="none" stroke="white" stroke-width="2" d="M185.775,-322.449C191.775,-322.449 197.775,-328.449 197.775,-334.449"/>
<polyline fill="none" stroke="white" stroke-width="2" points="197.775,-334.449 197.775,-346.449 "/>
<path fill="none" stroke="white" stroke-width="2" d="M197.775,-346.449C197.775,-352.449 191.775,-358.449 185.775,-358.449"/>
<text text-anchor="middle" x="168.525" y="-337.949" font-family="Helvetica,sans-Serif" font-size="10.00">YY1_YY2</text>
</a>
</g>
<!-- PLAGL1&#45;&gt;YY1_YY2 -->
<g id="edge18" class="edge"><title>PLAGL1&#45;&gt;YY1_YY2</title>
<a xlink:title="YY1: 0.102||remove22root">
<path fill="none" stroke="#eac0ff" stroke-width="3" d="M168.525,-36.2601C168.525,-90.4652 168.525,-250.61 168.525,-314.094"/>
<polygon fill="#eac0ff" stroke="#eac0ff" points="165.725,-314.389 168.525,-322.389 171.325,-314.389 165.725,-314.389"/>
</a>
</g>
<!-- FOXA3_FOXC2 -->
<g id="node19" class="node"><title>FOXA3_FOXC2</title>
<a xlink:href="FOXA3_FOXC2.svg" xlink:title="Z&#45;value: 0.645||remove34">
<polygon fill="#b2b9ff" stroke="#b2b9ff" stroke-width="2" points="124.95,-315.249 62.45,-315.249 50.45,-303.249 50.45,-291.249 62.45,-279.249 124.95,-279.249 136.95,-291.249 136.95,-303.249 124.95,-315.249"/>
<path fill="#b2b9ff" stroke="#b2b9ff" stroke-width="2" d="M62.45,-315.249C56.45,-315.249 50.45,-309.249 50.45,-303.249"/>
<path fill="#b2b9ff" stroke="#b2b9ff" stroke-width="2" d="M50.45,-291.249C50.45,-285.249 56.45,-279.249 62.45,-279.249"/>
<path fill="#b2b9ff" stroke="#b2b9ff" stroke-width="2" d="M124.95,-279.249C130.95,-279.249 136.95,-285.249 136.95,-291.249"/>
<path fill="#b2b9ff" stroke="#b2b9ff" stroke-width="2" d="M136.95,-303.249C136.95,-309.249 130.95,-315.249 124.95,-315.249"/>
<polyline fill="none" stroke="white" stroke-width="2" points="124.95,-315.249 62.45,-315.249 "/>
<path fill="none" stroke="white" stroke-width="2" d="M62.45,-315.249C56.45,-315.249 50.45,-309.249 50.45,-303.249"/>
<polyline fill="none" stroke="white" stroke-width="2" points="50.45,-303.249 50.45,-291.249 "/>
<path fill="none" stroke="white" stroke-width="2" d="M50.45,-291.249C50.45,-285.249 56.45,-279.249 62.45,-279.249"/>
<polyline fill="none" stroke="white" stroke-width="2" points="62.45,-279.249 124.95,-279.249 "/>
<path fill="none" stroke="white" stroke-width="2" d="M124.95,-279.249C130.95,-279.249 136.95,-285.249 136.95,-291.249"/>
<polyline fill="none" stroke="white" stroke-width="2" points="136.95,-291.249 136.95,-303.249 "/>
<path fill="none" stroke="white" stroke-width="2" d="M136.95,-303.249C136.95,-309.249 130.95,-315.249 124.95,-315.249"/>
<text text-anchor="middle" x="93.7" y="-294.749" font-family="Helvetica,sans-Serif" font-size="10.00">FOXA3_FOXC2</text>
</a>
</g>
<!-- PLAGL1&#45;&gt;FOXA3_FOXC2 -->
<g id="edge22" class="edge"><title>PLAGL1&#45;&gt;FOXA3_FOXC2</title>
<a xlink:title="FOXA3: 0.282||remove34">
<path fill="none" stroke="#e4abff" stroke-width="3" d="M163.869,-36.1393C154.004,-74.4599 130.172,-166.452 109.08,-243.305 106.594,-252.364 103.797,-262.256 101.277,-271.067"/>
<polygon fill="#e4abff" stroke="#e4abff" points="98.5738,-270.337 99.0579,-278.799 103.956,-271.882 98.5738,-270.337"/>
</a>
</g>
<!-- NFKB2&#45;&gt;STAT1_STAT3_BCL6 -->
<g id="edge26" class="edge"><title>NFKB2&#45;&gt;STAT1_STAT3_BCL6</title>
<a xlink:title="BCL6: 0.146||remove29root">
<path fill="none" stroke="#ffbaba" stroke-width="3" d="M239.074,-186.553C258.206,-191.679 284.582,-198.747 308.867,-205.254"/>
<polygon fill="#ffbaba" stroke="#ffbaba" points="308.215,-207.978 316.667,-207.344 309.664,-202.569 308.215,-207.978"/>
</a>
</g>
<!-- NFKB2&#45;&gt;IRF2_STAT2_IRF8_IRF1 -->
<g id="edge30" class="edge"><title>NFKB2&#45;&gt;IRF2_STAT2_IRF8_IRF1</title>
<a xlink:title="STAT2: 0.148||remove30root">
<path fill="none" stroke="#ffbaba" stroke-width="3" d="M229.907,-197.407C250.326,-217.826 283.537,-251.037 305.994,-273.494"/>
<polygon fill="#ffbaba" stroke="#ffbaba" points="304.103,-275.563 311.74,-279.24 308.063,-271.603 304.103,-275.563"/>
</a>
</g>
<!-- NFKB2&#45;&gt;GMEB2 -->
<g id="edge28" class="edge"><title>NFKB2&#45;&gt;GMEB2</title>
<a xlink:title="GMEB2: 0.250||remove37root">
<path fill="none" stroke="#ffaeae" stroke-width="3" d="M216.596,-197.406C224.245,-225.951 239.104,-281.407 247.906,-314.254"/>
<polygon fill="#ffaeae" stroke="#ffaeae" points="245.229,-315.084 250.005,-322.087 250.638,-313.635 245.229,-315.084"/>
</a>
</g>
<!-- NFKB2&#45;&gt;YY1_YY2 -->
<g id="edge32" class="edge"><title>NFKB2&#45;&gt;YY1_YY2</title>
<a xlink:title="YY1: 0.260||remove39root">
<path fill="none" stroke="#ffadad" stroke-width="3" d="M206.853,-197.406C199.204,-225.951 184.345,-281.407 175.544,-314.254"/>
<polygon fill="#ffadad" stroke="#ffadad" points="172.811,-313.635 173.445,-322.087 178.22,-315.084 172.811,-313.635"/>
</a>
</g>
<!-- NFKB2&#45;&gt;FOXA3_FOXC2 -->
<g id="edge34" class="edge"><title>NFKB2&#45;&gt;FOXA3_FOXC2</title>
<a xlink:title="FOXA3: 0.200||remove34root">
<path fill="none" stroke="#ffb4b4" stroke-width="3" d="M193.542,-197.407C173.123,-217.826 139.912,-251.037 117.455,-273.494"/>
<polygon fill="#ffb4b4" stroke="#ffb4b4" points="115.387,-271.603 111.71,-279.24 119.346,-275.563 115.387,-271.603"/>
</a>
</g>
<!-- HOXD11_HOXA11 -->
<g id="node27" class="node"><title>HOXD11_HOXA11</title>
<a xlink:href="HOXD11_HOXA11.svg" xlink:title="Z&#45;value: 0.598||remove36">
<polygon fill="#b4bbff" stroke="#b4bbff" stroke-width="2" points="88.75,-240.425 12.25,-240.425 0.25,-228.425 0.25,-216.425 12.25,-204.425 88.75,-204.425 100.75,-216.425 100.75,-228.425 88.75,-240.425"/>
<path fill="#b4bbff" stroke="#b4bbff" stroke-width="2" d="M12.25,-240.425C6.25,-240.425 0.25,-234.425 0.25,-228.425"/>
<path fill="#b4bbff" stroke="#b4bbff" stroke-width="2" d="M0.25,-216.425C0.25,-210.425 6.25,-204.425 12.25,-204.425"/>
<path fill="#b4bbff" stroke="#b4bbff" stroke-width="2" d="M88.75,-204.425C94.75,-204.425 100.75,-210.425 100.75,-216.425"/>
<path fill="#b4bbff" stroke="#b4bbff" stroke-width="2" d="M100.75,-228.425C100.75,-234.425 94.75,-240.425 88.75,-240.425"/>
<polyline fill="none" stroke="white" stroke-width="2" points="88.75,-240.425 12.25,-240.425 "/>
<path fill="none" stroke="white" stroke-width="2" d="M12.25,-240.425C6.25,-240.425 0.25,-234.425 0.25,-228.425"/>
<polyline fill="none" stroke="white" stroke-width="2" points="0.25,-228.425 0.25,-216.425 "/>
<path fill="none" stroke="white" stroke-width="2" d="M0.25,-216.425C0.25,-210.425 6.25,-204.425 12.25,-204.425"/>
<polyline fill="none" stroke="white" stroke-width="2" points="12.25,-204.425 88.75,-204.425 "/>
<path fill="none" stroke="white" stroke-width="2" d="M88.75,-204.425C94.75,-204.425 100.75,-210.425 100.75,-216.425"/>
<polyline fill="none" stroke="white" stroke-width="2" points="100.75,-216.425 100.75,-228.425 "/>
<path fill="none" stroke="white" stroke-width="2" d="M100.75,-228.425C100.75,-234.425 94.75,-240.425 88.75,-240.425"/>
<text text-anchor="middle" x="50.5" y="-219.925" font-family="Helvetica,sans-Serif" font-size="10.00">HOXD11_HOXA11</text>
</a>
</g>
<!-- NFKB2&#45;&gt;HOXD11_HOXA11 -->
<g id="edge36" class="edge"><title>NFKB2&#45;&gt;HOXD11_HOXA11</title>
<a xlink:title="HOXD11: 0.233||remove36root">
<path fill="none" stroke="#ffb0b0" stroke-width="3" d="M184.375,-186.553C163.776,-192.072 134.779,-199.842 109.037,-206.74"/>
<polygon fill="#ffb0b0" stroke="#ffb0b0" points="108.168,-204.074 101.165,-208.849 109.617,-209.483 108.168,-204.074"/>
</a>
</g>
<!-- HOXB5 -->
<g id="node29" class="node"><title>HOXB5</title>
<a xlink:href="HOXB5.svg" xlink:title="Z&#45;value: 0.212||remove35">
<polygon fill="#c3c9ff" stroke="#c3c9ff" stroke-width="2" points="65.5,-154.025 35.5,-154.025 23.5,-142.025 23.5,-130.025 35.5,-118.025 65.5,-118.025 77.5,-130.025 77.5,-142.025 65.5,-154.025"/>
<path fill="#c3c9ff" stroke="#c3c9ff" stroke-width="2" d="M35.5,-154.025C29.5,-154.025 23.5,-148.025 23.5,-142.025"/>
<path fill="#c3c9ff" stroke="#c3c9ff" stroke-width="2" d="M23.5,-130.025C23.5,-124.025 29.5,-118.025 35.5,-118.025"/>
<path fill="#c3c9ff" stroke="#c3c9ff" stroke-width="2" d="M65.5,-118.025C71.5,-118.025 77.5,-124.025 77.5,-130.025"/>
<path fill="#c3c9ff" stroke="#c3c9ff" stroke-width="2" d="M77.5,-142.025C77.5,-148.025 71.5,-154.025 65.5,-154.025"/>
<polyline fill="none" stroke="white" stroke-width="2" points="65.5,-154.025 35.5,-154.025 "/>
<path fill="none" stroke="white" stroke-width="2" d="M35.5,-154.025C29.5,-154.025 23.5,-148.025 23.5,-142.025"/>
<polyline fill="none" stroke="white" stroke-width="2" points="23.5,-142.025 23.5,-130.025 "/>
<path fill="none" stroke="white" stroke-width="2" d="M23.5,-130.025C23.5,-124.025 29.5,-118.025 35.5,-118.025"/>
<polyline fill="none" stroke="white" stroke-width="2" points="35.5,-118.025 65.5,-118.025 "/>
<path fill="none" stroke="white" stroke-width="2" d="M65.5,-118.025C71.5,-118.025 77.5,-124.025 77.5,-130.025"/>
<polyline fill="none" stroke="white" stroke-width="2" points="77.5,-130.025 77.5,-142.025 "/>
<path fill="none" stroke="white" stroke-width="2" d="M77.5,-142.025C77.5,-148.025 71.5,-154.025 65.5,-154.025"/>
<text text-anchor="middle" x="50.5" y="-133.525" font-family="Helvetica,sans-Serif" font-size="10.00">HOXB5</text>
</a>
</g>
<!-- NFKB2&#45;&gt;HOXB5 -->
<g id="edge38" class="edge"><title>NFKB2&#45;&gt;HOXB5</title>
<a xlink:title="HOXB5: 0.211||remove35root">
<path fill="none" stroke="#ffb3b3" stroke-width="3" d="M184.375,-171.896C157.194,-164.613 115.388,-153.411 85.7338,-145.465"/>
<polygon fill="#ffb3b3" stroke="#ffb3b3" points="86.1663,-142.683 77.7142,-143.317 84.7169,-148.092 86.1663,-142.683"/>
</a>
</g>
<!-- GMEB2&#45;&gt;GMEB2 -->
<g id="edge72" class="edge"><title>GMEB2&#45;&gt;GMEB2</title>
<a xlink:title="GMEB2: 0.020||remove5root">
<path fill="none" stroke="#edc9ff" stroke-width="3" d="M282.165,-347.193C291.949,-347.338 299.925,-345.09 299.925,-340.449 299.925,-337.186 295.981,-335.106 290.239,-334.209"/>
<polygon fill="#edc9ff" stroke="#edc9ff" points="290.324,-331.409 282.165,-333.706 289.976,-336.998 290.324,-331.409"/>
</a>
</g>
<!-- GMEB2&#45;&gt;SMAD1 -->
<g id="edge74" class="edge"><title>GMEB2&#45;&gt;SMAD1</title>
<a xlink:title="SMAD1: 0.018||remove3root">
<path fill="none" stroke="#eec9ff" stroke-width="3" d="M254.925,-322.189C254.925,-267.984 254.925,-107.839 254.925,-44.3552"/>
<polygon fill="#eec9ff" stroke="#eec9ff" points="257.725,-44.0598 254.925,-36.0599 252.125,-44.0599 257.725,-44.0598"/>
</a>
</g>
<!-- SMAD1&#45;&gt;STAT1_STAT3_BCL6 -->
<g id="edge60" class="edge"><title>SMAD1&#45;&gt;STAT1_STAT3_BCL6</title>
<a xlink:title="STAT1: 0.043||remove12root">
<path fill="none" stroke="#edc6ff" stroke-width="3" d="M263.023,-36.2189C268.943,-49.1905 277.359,-66.9353 285.669,-82.08 308.349,-123.413 337.873,-169.506 356.11,-197.22"/>
<polygon fill="#edc6ff" stroke="#edc6ff" points="353.971,-199.061 360.716,-204.193 358.643,-195.974 353.971,-199.061"/>
</a>
</g>
<!-- SMAD1&#45;&gt;NFKB2 -->
<g id="edge62" class="edge"><title>SMAD1&#45;&gt;NFKB2</title>
<a xlink:title="NFKB2: 0.126||remove27root">
<path fill="none" stroke="#bdc3ff" stroke-width="3" d="M250.053,-36.1811C242.404,-64.7264 227.545,-120.183 218.744,-153.029"/>
<polygon fill="#bdc3ff" stroke="#bdc3ff" points="216.011,-152.41 216.645,-160.863 221.42,-153.86 216.011,-152.41"/>
</a>
</g>
<!-- YY1_YY2&#45;&gt;SMAD1 -->
<g id="edge68" class="edge"><title>YY1_YY2&#45;&gt;SMAD1</title>
<a xlink:title="SMAD1: 0.006||remove1root">
<path fill="none" stroke="#eecbff" stroke-width="3" d="M181.624,-322.023C199.19,-296.186 229.708,-247.077 243.045,-200.105 258.305,-146.353 258.178,-80.235 256.621,-44.2997"/>
<polygon fill="#eecbff" stroke="#eecbff" points="259.416,-44.1139 256.227,-36.2609 253.823,-44.3886 259.416,-44.1139"/>
</a>
</g>
<!-- YY1_YY2&#45;&gt;HOXB5 -->
<g id="edge70" class="edge"><title>YY1_YY2&#45;&gt;HOXB5</title>
<a xlink:title="HOXB5: 0.049||remove14root">
<path fill="none" stroke="#ecc6ff" stroke-width="3" d="M162.056,-322.352C157.339,-309.437 150.662,-291.711 144.16,-276.369 129.828,-242.552 129.33,-232.187 109.08,-201.545 99.2655,-186.693 86.2304,-171.771 74.9484,-159.927"/>
<polygon fill="#ecc6ff" stroke="#ecc6ff" points="76.8127,-157.827 69.2348,-154.03 72.7909,-161.724 76.8127,-157.827"/>
</a>
</g>
<!-- FOXA3_FOXC2&#45;&gt;SMAD1 -->
<g id="edge64" class="edge"><title>FOXA3_FOXC2&#45;&gt;SMAD1</title>
<a xlink:title="SMAD1: 0.095||remove21root">
<path fill="none" stroke="#ebc0ff" stroke-width="3" d="M104.278,-278.927C132.303,-230.387 208.5,-98.4097 240.484,-43.011"/>
<polygon fill="#ebc0ff" stroke="#ebc0ff" points="242.942,-44.355 244.517,-36.0268 238.092,-41.555 242.942,-44.355"/>
</a>
</g>
<!-- HOXD11_HOXA11&#45;&gt;GMEB2 -->
<g id="edge66" class="edge"><title>HOXD11_HOXA11&#45;&gt;GMEB2</title>
<a xlink:title="GMEB2: 0.079||remove19root">
<path fill="none" stroke="#ebc2ff" stroke-width="3" d="M82.1565,-240.637C100.309,-251.086 123.521,-264.455 144.16,-276.369 169.744,-291.137 198.634,-307.852 220.493,-320.507"/>
<polygon fill="#ebc2ff" stroke="#ebc2ff" points="219.295,-323.049 227.621,-324.634 222.101,-318.202 219.295,-323.049"/>
</a>
</g>
<!-- PATZ1_KLF4 -->
<g id="node33" class="node"><title>PATZ1_KLF4</title>
<a xlink:href="PATZ1_KLF4.svg" xlink:title="Z&#45;value: 1.751||remove28">
<polygon fill="#8591ff" stroke="#8591ff" stroke-width="2" points="355.749,-79.2 303.749,-79.2 291.749,-67.2 291.749,-55.2 303.749,-43.2 355.749,-43.2 367.749,-55.2 367.749,-67.2 355.749,-79.2"/>
<path fill="#8591ff" stroke="#8591ff" stroke-width="2" d="M303.749,-79.2C297.749,-79.2 291.749,-73.2 291.749,-67.2"/>
<path fill="#8591ff" stroke="#8591ff" stroke-width="2" d="M291.749,-55.2C291.749,-49.2 297.749,-43.2 303.749,-43.2"/>
<path fill="#8591ff" stroke="#8591ff" stroke-width="2" d="M355.749,-43.2C361.749,-43.2 367.749,-49.2 367.749,-55.2"/>
<path fill="#8591ff" stroke="#8591ff" stroke-width="2" d="M367.749,-67.2C367.749,-73.2 361.749,-79.2 355.749,-79.2"/>
<polyline fill="none" stroke="white" stroke-width="2" points="355.749,-79.2 303.749,-79.2 "/>
<path fill="none" stroke="white" stroke-width="2" d="M303.749,-79.2C297.749,-79.2 291.749,-73.2 291.749,-67.2"/>
<polyline fill="none" stroke="white" stroke-width="2" points="291.749,-67.2 291.749,-55.2 "/>
<path fill="none" stroke="white" stroke-width="2" d="M291.749,-55.2C291.749,-49.2 297.749,-43.2 303.749,-43.2"/>
<polyline fill="none" stroke="white" stroke-width="2" points="303.749,-43.2 355.749,-43.2 "/>
<path fill="none" stroke="white" stroke-width="2" d="M355.749,-43.2C361.749,-43.2 367.749,-49.2 367.749,-55.2"/>
<polyline fill="none" stroke="white" stroke-width="2" points="367.749,-55.2 367.749,-67.2 "/>
<path fill="none" stroke="white" stroke-width="2" d="M367.749,-67.2C367.749,-73.2 361.749,-79.2 355.749,-79.2"/>
<text text-anchor="middle" x="329.749" y="-58.7" font-family="Helvetica,sans-Serif" font-size="10.00">PATZ1_KLF4</text>
</a>
</g>
<!-- PATZ1_KLF4&#45;&gt;ESRRA_ESR2 -->
<g id="edge52" class="edge"><title>PATZ1_KLF4&#45;&gt;ESRRA_ESR2</title>
<a xlink:title="ESRRA: 1.315||ESR2: 0.103||remove28">
<path fill="none" stroke="#bd32ff" stroke-width="3" d="M291.561,-61.2C251.148,-61.2 187.224,-61.2 143.023,-61.2"/>
<polygon fill="#bd32ff" stroke="#bd32ff" points="143.009,-58.4001 135.009,-61.2 143.009,-64.0001 143.009,-58.4001"/>
</a>
</g>
<!-- PATZ1_KLF4&#45;&gt;STAT1_STAT3_BCL6 -->
<g id="edge46" class="edge"><title>PATZ1_KLF4&#45;&gt;STAT1_STAT3_BCL6</title>
<a xlink:title="STAT3: 0.021||STAT1: 0.021||BCL6: 0.018||remove7root">
<path fill="none" stroke="#edc9ff" stroke-width="3" d="M329.912,-79.2043C330.512,-98.7194 332.737,-130.598 340.469,-156.905 344.561,-170.825 351.472,-185.374 357.87,-197.216"/>
<polygon fill="#edc9ff" stroke="#edc9ff" points="355.424,-198.578 361.758,-204.21 360.318,-195.857 355.424,-198.578"/>
</a>
</g>
<!-- PATZ1_KLF4&#45;&gt;IRF2_STAT2_IRF8_IRF1 -->
<g id="edge48" class="edge"><title>PATZ1_KLF4&#45;&gt;IRF2_STAT2_IRF8_IRF1</title>
<a xlink:title="IRF1: 0.255||IRF2: 0.128||STAT2: 0.071||remove28">
<path fill="none" stroke="#e5aeff" stroke-width="3" d="M323.706,-79.435C313.628,-112.388 295.605,-183.947 307.409,-243.305 309.305,-252.84 312.916,-262.801 316.691,-271.532"/>
<polygon fill="#e5aeff" stroke="#e5aeff" points="314.155,-272.719 320.011,-278.846 319.254,-270.404 314.155,-272.719"/>
</a>
</g>
<!-- PATZ1_KLF4&#45;&gt;NFKB2 -->
<g id="edge58" class="edge"><title>PATZ1_KLF4&#45;&gt;NFKB2</title>
<a xlink:title="NFKB2: 0.128||remove28root">
<path fill="none" stroke="#bdc3ff" stroke-width="3" d="M311.567,-79.3827C291.148,-99.8017 257.937,-133.013 235.48,-155.469"/>
<polygon fill="#bdc3ff" stroke="#bdc3ff" points="233.411,-153.578 229.734,-161.215 237.371,-157.538 233.411,-153.578"/>
</a>
</g>
<!-- PATZ1_KLF4&#45;&gt;SMAD1 -->
<g id="edge50" class="edge"><title>PATZ1_KLF4&#45;&gt;SMAD1</title>
<a xlink:title="SMAD1: 0.087||KLF4: 0.044||remove20root">
<path fill="none" stroke="#ebc1ff" stroke-width="3" d="M290.998,-39.9819C290.202,-39.5221 289.406,-39.0625 288.612,-38.604"/>
<path fill="none" stroke="#edc6ff" stroke-width="3" d="M291.998,-38.2499C291.202,-37.79 290.406,-37.3304 289.612,-36.872"/>
<polygon fill="#edc6ff" stroke="#edc6ff" points="290.122,-41.5544 298.45,-43.1296 292.922,-36.7047 290.122,-41.5544"/>
<polygon fill="#ebc1ff" stroke="#ebc1ff" points="290.385,-35.2401 282.057,-33.6649 287.585,-40.0898 290.385,-35.2401"/>
</a>
</g>
<!-- PATZ1_KLF4&#45;&gt;FOXA3_FOXC2 -->
<g id="edge54" class="edge"><title>PATZ1_KLF4&#45;&gt;FOXA3_FOXC2</title>
<a xlink:title="FOXC2: 0.249||FOXA3: 0.062||remove28">
<path fill="none" stroke="#e5aeff" stroke-width="3" d="M321.509,-79.5861C308.133,-107.95 279.485,-162.977 243.045,-200.105 212.356,-231.372 169.907,-257.779 138.107,-275.131"/>
<polygon fill="#e5aeff" stroke="#e5aeff" points="136.395,-272.873 130.675,-279.128 139.047,-277.805 136.395,-272.873"/>
</a>
</g>
<!-- PATZ1_KLF4&#45;&gt;HOXD11_HOXA11 -->
<g id="edge56" class="edge"><title>PATZ1_KLF4&#45;&gt;HOXD11_HOXA11</title>
<a xlink:title="HOXD11: 0.125||remove26root">
<path fill="none" stroke="#eabdff" stroke-width="3" d="M298.529,-79.2252C247.179,-108.872 145.032,-167.846 89.1809,-200.092"/>
<polygon fill="#eabdff" stroke="#eabdff" points="87.475,-197.844 81.9468,-204.269 90.275,-202.694 87.475,-197.844"/>
</a>
</g>
<!-- PATZ1_KLF4&#45;&gt;PATZ1_KLF4 -->
<g id="edge44" class="edge"><title>PATZ1_KLF4&#45;&gt;PATZ1_KLF4</title>
<a xlink:title="PATZ1: 0.441||KLF4: 0.051||remove28">
<path fill="none" stroke="#de98ff" stroke-width="3" d="M367.963,-67.8907C378.084,-67.5084 385.749,-65.2781 385.749,-61.2 385.749,-58.3326 381.96,-56.3787 376.191,-55.3384"/>
<polygon fill="#de98ff" stroke="#de98ff" points="376.204,-52.5256 367.963,-54.5093 375.642,-58.0974 376.204,-52.5256"/>
</a>
</g>
<!-- WRNIP1 -->
<g id="node50" class="node"><title>WRNIP1</title>
<a xlink:href="WRNIP1.svg" xlink:title="Z&#45;value: 1.103||remove33">
<polygon fill="#9fa9ff" stroke="#9fa9ff" stroke-width="2" points="388.449,-154.025 357.449,-154.025 345.449,-142.025 345.449,-130.025 357.449,-118.025 388.449,-118.025 400.449,-130.025 400.449,-142.025 388.449,-154.025"/>
<path fill="#9fa9ff" stroke="#9fa9ff" stroke-width="2" d="M357.449,-154.025C351.449,-154.025 345.449,-148.025 345.449,-142.025"/>
<path fill="#9fa9ff" stroke="#9fa9ff" stroke-width="2" d="M345.449,-130.025C345.449,-124.025 351.449,-118.025 357.449,-118.025"/>
<path fill="#9fa9ff" stroke="#9fa9ff" stroke-width="2" d="M388.449,-118.025C394.449,-118.025 400.449,-124.025 400.449,-130.025"/>
<path fill="#9fa9ff" stroke="#9fa9ff" stroke-width="2" d="M400.449,-142.025C400.449,-148.025 394.449,-154.025 388.449,-154.025"/>
<polyline fill="none" stroke="white" stroke-width="2" points="388.449,-154.025 357.449,-154.025 "/>
<path fill="none" stroke="white" stroke-width="2" d="M357.449,-154.025C351.449,-154.025 345.449,-148.025 345.449,-142.025"/>
<polyline fill="none" stroke="white" stroke-width="2" points="345.449,-142.025 345.449,-130.025 "/>
<path fill="none" stroke="white" stroke-width="2" d="M345.449,-130.025C345.449,-124.025 351.449,-118.025 357.449,-118.025"/>
<polyline fill="none" stroke="white" stroke-width="2" points="357.449,-118.025 388.449,-118.025 "/>
<path fill="none" stroke="white" stroke-width="2" d="M388.449,-118.025C394.449,-118.025 400.449,-124.025 400.449,-130.025"/>
<polyline fill="none" stroke="white" stroke-width="2" points="400.449,-130.025 400.449,-142.025 "/>
<path fill="none" stroke="white" stroke-width="2" d="M400.449,-142.025C400.449,-148.025 394.449,-154.025 388.449,-154.025"/>
<text text-anchor="middle" x="372.949" y="-133.525" font-family="Helvetica,sans-Serif" font-size="10.00">WRNIP1</text>
</a>
</g>
<!-- WRNIP1&#45;&gt;ESRRA_ESR2 -->
<g id="edge88" class="edge"><title>WRNIP1&#45;&gt;ESRRA_ESR2</title>
<a xlink:title="ESRRA: 0.023||remove9root">
<path fill="none" stroke="#edc9ff" stroke-width="3" d="M344.895,-128.508C297.737,-115.872 201.988,-90.2157 143.279,-74.4848"/>
<polygon fill="#edc9ff" stroke="#edc9ff" points="143.702,-71.6994 135.25,-72.3333 142.253,-77.1086 143.702,-71.6994"/>
</a>
</g>
<!-- WRNIP1&#45;&gt;STAT1_STAT3_BCL6 -->
<g id="edge78" class="edge"><title>WRNIP1&#45;&gt;STAT1_STAT3_BCL6</title>
<a xlink:title="STAT1: 0.054||BCL6: 0.025||remove15root">
<path fill="none" stroke="#ecc5ff" stroke-width="3" d="M372.949,-154.348C372.949,-166.572 372.949,-182.828 372.949,-196.389"/>
<polygon fill="#ecc5ff" stroke="#ecc5ff" points="370.149,-196.424 372.949,-204.424 375.749,-196.424 370.149,-196.424"/>
</a>
</g>
<!-- WRNIP1&#45;&gt;IRF2_STAT2_IRF8_IRF1 -->
<g id="edge80" class="edge"><title>WRNIP1&#45;&gt;IRF2_STAT2_IRF8_IRF1</title>
<a xlink:title="IRF8: 0.022||remove8root">
<path fill="none" stroke="#edc9ff" stroke-width="3" d="M346.429,-154.244C331.933,-165.883 315.353,-182.37 307.409,-201.545 297.954,-224.366 306.339,-251.985 315.409,-271.676"/>
<polygon fill="#edc9ff" stroke="#edc9ff" points="312.992,-273.107 319.018,-279.068 318.025,-270.651 312.992,-273.107"/>
</a>
</g>
<!-- WRNIP1&#45;&gt;PLAGL1 -->
<g id="edge90" class="edge"><title>WRNIP1&#45;&gt;PLAGL1</title>
<a xlink:title="PLAGL1: 0.019||remove4root">
<path fill="none" stroke="#edc9ff" stroke-width="3" d="M345.38,-120.107C308.445,-98.7829 242.918,-60.9509 202.833,-37.8082"/>
<polygon fill="#edc9ff" stroke="#edc9ff" points="203.986,-35.2403 195.657,-33.6651 201.186,-40.0901 203.986,-35.2403"/>
</a>
</g>
<!-- WRNIP1&#45;&gt;NFKB2 -->
<g id="edge96" class="edge"><title>WRNIP1&#45;&gt;NFKB2</title>
<a xlink:title="NFKB2: 0.195||remove33root">
<path fill="none" stroke="#b5bcff" stroke-width="3" d="M345.234,-143.451C317.994,-150.75 276.327,-161.914 246.796,-169.827"/>
<polygon fill="#b5bcff" stroke="#b5bcff" points="245.813,-167.192 238.81,-171.967 247.262,-172.601 245.813,-167.192"/>
</a>
</g>
<!-- WRNIP1&#45;&gt;SMAD1 -->
<g id="edge82" class="edge"><title>WRNIP1&#45;&gt;SMAD1</title>
<a xlink:title="SMAD1: 0.023||remove10root">
<path fill="none" stroke="#edc9ff" stroke-width="3" d="M345.294,-124.059C326.532,-114.815 302.223,-100.493 285.669,-82.08 275.763,-71.0615 268.386,-56.2811 263.345,-43.6922"/>
<polygon fill="#edc9ff" stroke="#edc9ff" points="265.956,-42.6814 260.506,-36.1902 260.719,-44.6634 265.956,-42.6814"/>
</a>
</g>
<!-- WRNIP1&#45;&gt;YY1_YY2 -->
<g id="edge86" class="edge"><title>WRNIP1&#45;&gt;YY1_YY2</title>
<a xlink:title="YY1: 0.048||YY2: 0.024||remove13root">
<path fill="none" stroke="#ecc6ff" stroke-width="3" d="M354.808,-154.166C317.833,-191.141 233.765,-275.209 192.407,-316.567"/>
<polygon fill="#ecc6ff" stroke="#ecc6ff" points="190.302,-314.712 186.625,-322.349 194.262,-318.672 190.302,-314.712"/>
</a>
</g>
<!-- WRNIP1&#45;&gt;FOXA3_FOXC2 -->
<g id="edge92" class="edge"><title>WRNIP1&#45;&gt;FOXA3_FOXC2</title>
<a xlink:title="FOXA3: 0.021||FOXC2: 0.001||remove6root">
<path fill="none" stroke="#edc9ff" stroke-width="3" d="M345.409,-151.925C295.399,-180.798 189.549,-241.911 132.339,-274.941"/>
<polygon fill="#edc9ff" stroke="#edc9ff" points="130.802,-272.595 125.274,-279.02 133.602,-277.445 130.802,-272.595"/>
</a>
</g>
<!-- WRNIP1&#45;&gt;HOXD11_HOXA11 -->
<g id="edge94" class="edge"><title>WRNIP1&#45;&gt;HOXD11_HOXA11</title>
<a xlink:title="HOXD11: 0.261||remove33">
<path fill="none" stroke="#e4adff" stroke-width="3" d="M345.205,-153.219C319.654,-168.184 280.19,-189.148 243.045,-200.105 199.2,-213.037 147.673,-218.53 108.961,-220.836"/>
<polygon fill="#e4adff" stroke="#e4adff" points="108.736,-218.044 100.903,-221.282 109.045,-223.636 108.736,-218.044"/>
</a>
</g>
<!-- WRNIP1&#45;&gt;PATZ1_KLF4 -->
<g id="edge76" class="edge"><title>WRNIP1&#45;&gt;PATZ1_KLF4</title>
<a xlink:title="PATZ1: 0.056||remove16root">
<path fill="none" stroke="#ecc5ff" stroke-width="3" d="M362.492,-117.912C357.066,-108.515 350.35,-96.8808 344.414,-86.6005"/>
<polygon fill="#ecc5ff" stroke="#ecc5ff" points="346.685,-84.9337 340.26,-79.4055 341.835,-87.7337 346.685,-84.9337"/>
</a>
</g>
<!-- WRNIP1&#45;&gt;WRNIP1 -->
<g id="edge84" class="edge"><title>WRNIP1&#45;&gt;WRNIP1</title>
<a xlink:title="WRNIP1: 0.003||remove0root">
<path fill="none" stroke="#eecbff" stroke-width="3" d="M400.633,-142.773C410.213,-142.844 417.949,-140.595 417.949,-136.025 417.949,-132.883 414.293,-130.837 408.894,-129.889"/>
<polygon fill="#eecbff" stroke="#eecbff" points="408.819,-127.076 400.633,-129.276 408.404,-132.661 408.819,-127.076"/>
</a>
</g>
</g>
</svg>
