<?xml version="1.0" encoding="UTF-8" standalone="no"?>
<!DOCTYPE svg PUBLIC "-//W3C//DTD SVG 1.1//EN"
 "http://www.w3.org/Graphics/SVG/1.1/DTD/svg11.dtd">
<!-- Generated by graphviz version 2.28.0 (20110630.0925)
 -->
<!-- Title: _anonymous_0 Pages: 1 -->
<svg width="476pt" height="431pt"
 viewBox="0.00 0.00 476.39 431.39" xmlns="http://www.w3.org/2000/svg" xmlns:xlink="http://www.w3.org/1999/xlink">
<g id="graph1" class="graph" transform="scale(1 1) rotate(0) translate(4 427.387)">
<title>_anonymous_0</title>
<polygon fill="white" stroke="white" points="-4,5 -4,-427.387 473.387,-427.387 473.387,5 -4,5"/>
<!-- ESRRA_ESR2 -->
<g id="node1" class="node"><title>ESRRA_ESR2</title>
<a xlink:href="ESRRA_ESR2.svg" xlink:title="Z&#45;value: 3.814||remove32">
<polygon fill="#3247ff" stroke="#3247ff" stroke-width="2" points="456.137,-281.593 397.637,-281.593 385.637,-269.593 385.637,-257.593 397.637,-245.593 456.137,-245.593 468.137,-257.593 468.137,-269.593 456.137,-281.593"/>
<path fill="#3247ff" stroke="#3247ff" stroke-width="2" d="M397.637,-281.593C391.637,-281.593 385.637,-275.593 385.637,-269.593"/>
<path fill="#3247ff" stroke="#3247ff" stroke-width="2" d="M385.637,-257.593C385.637,-251.593 391.637,-245.593 397.637,-245.593"/>
<path fill="#3247ff" stroke="#3247ff" stroke-width="2" d="M456.137,-245.593C462.137,-245.593 468.137,-251.593 468.137,-257.593"/>
<path fill="#3247ff" stroke="#3247ff" stroke-width="2" d="M468.137,-269.593C468.137,-275.593 462.137,-281.593 456.137,-281.593"/>
<polyline fill="none" stroke="white" stroke-width="2" points="456.137,-281.593 397.637,-281.593 "/>
<path fill="none" stroke="white" stroke-width="2" d="M397.637,-281.593C391.637,-281.593 385.637,-275.593 385.637,-269.593"/>
<polyline fill="none" stroke="white" stroke-width="2" points="385.637,-269.593 385.637,-257.593 "/>
<path fill="none" stroke="white" stroke-width="2" d="M385.637,-257.593C385.637,-251.593 391.637,-245.593 397.637,-245.593"/>
<polyline fill="none" stroke="white" stroke-width="2" points="397.637,-245.593 456.137,-245.593 "/>
<path fill="none" stroke="white" stroke-width="2" d="M456.137,-245.593C462.137,-245.593 468.137,-251.593 468.137,-257.593"/>
<polyline fill="none" stroke="white" stroke-width="2" points="468.137,-257.593 468.137,-269.593 "/>
<path fill="none" stroke="white" stroke-width="2" d="M468.137,-269.593C468.137,-275.593 462.137,-281.593 456.137,-281.593"/>
<text text-anchor="middle" x="426.887" y="-261.093" font-family="Helvetica,sans-Serif" font-size="10.00" fill="white">ESRRA_ESR2</text>
</a>
</g>
<!-- SIN3A_CHD1 -->
<g id="node2" class="node"><title>SIN3A_CHD1</title>
<a xlink:href="SIN3A_CHD1.svg" xlink:title="Z&#45;value: 1.751||remove34">
<polygon fill="#8591ff" stroke="#8591ff" stroke-width="2" points="66.75,-281.593 12.25,-281.593 0.25,-269.593 0.25,-257.593 12.25,-245.593 66.75,-245.593 78.75,-257.593 78.75,-269.593 66.75,-281.593"/>
<path fill="#8591ff" stroke="#8591ff" stroke-width="2" d="M12.25,-281.593C6.25,-281.593 0.25,-275.593 0.25,-269.593"/>
<path fill="#8591ff" stroke="#8591ff" stroke-width="2" d="M0.25,-257.593C0.25,-251.593 6.25,-245.593 12.25,-245.593"/>
<path fill="#8591ff" stroke="#8591ff" stroke-width="2" d="M66.75,-245.593C72.75,-245.593 78.75,-251.593 78.75,-257.593"/>
<path fill="#8591ff" stroke="#8591ff" stroke-width="2" d="M78.75,-269.593C78.75,-275.593 72.75,-281.593 66.75,-281.593"/>
<polyline fill="none" stroke="white" stroke-width="2" points="66.75,-281.593 12.25,-281.593 "/>
<path fill="none" stroke="white" stroke-width="2" d="M12.25,-281.593C6.25,-281.593 0.25,-275.593 0.25,-269.593"/>
<polyline fill="none" stroke="white" stroke-width="2" points="0.25,-269.593 0.25,-257.593 "/>
<path fill="none" stroke="white" stroke-width="2" d="M0.25,-257.593C0.25,-251.593 6.25,-245.593 12.25,-245.593"/>
<polyline fill="none" stroke="white" stroke-width="2" points="12.25,-245.593 66.75,-245.593 "/>
<path fill="none" stroke="white" stroke-width="2" d="M66.75,-245.593C72.75,-245.593 78.75,-251.593 78.75,-257.593"/>
<polyline fill="none" stroke="white" stroke-width="2" points="78.75,-257.593 78.75,-269.593 "/>
<path fill="none" stroke="white" stroke-width="2" d="M78.75,-269.593C78.75,-275.593 72.75,-281.593 66.75,-281.593"/>
<text text-anchor="middle" x="39.5" y="-261.093" font-family="Helvetica,sans-Serif" font-size="10.00">SIN3A_CHD1</text>
</a>
</g>
<!-- ESRRA_ESR2&#45;&gt;SIN3A_CHD1 -->
<g id="edge2" class="edge"><title>ESRRA_ESR2&#45;&gt;SIN3A_CHD1</title>
<a xlink:title="SIN3A: 0.074||ESRRA: 0.089||remove28root">
<path fill="none" stroke="#ecc5ff" stroke-width="3" d="M376.831,-264.593C301.784,-264.593 161.068,-264.593 87.3385,-264.593"/>
<path fill="none" stroke="#ecc4ff" stroke-width="3" d="M376.831,-262.593C301.784,-262.593 161.068,-262.593 87.3385,-262.593"/>
<polygon fill="#ecc4ff" stroke="#ecc4ff" points="377.062,-266.394 385.062,-263.593 377.062,-260.794 377.062,-266.394"/>
<polygon fill="#ecc5ff" stroke="#ecc5ff" points="87.1202,-260.794 79.1201,-263.593 87.1201,-266.394 87.1202,-260.794"/>
</a>
</g>
<!-- ARID5B -->
<g id="node4" class="node"><title>ARID5B</title>
<a xlink:href="ARID5B.svg" xlink:title="Z&#45;value: 0.249||remove30">
<polygon fill="#c2c8ff" stroke="#c2c8ff" stroke-width="2" points="54.5,-177.793 24.5,-177.793 12.5,-165.793 12.5,-153.793 24.5,-141.793 54.5,-141.793 66.5,-153.793 66.5,-165.793 54.5,-177.793"/>
<path fill="#c2c8ff" stroke="#c2c8ff" stroke-width="2" d="M24.5,-177.793C18.5,-177.793 12.5,-171.793 12.5,-165.793"/>
<path fill="#c2c8ff" stroke="#c2c8ff" stroke-width="2" d="M12.5,-153.793C12.5,-147.793 18.5,-141.793 24.5,-141.793"/>
<path fill="#c2c8ff" stroke="#c2c8ff" stroke-width="2" d="M54.5,-141.793C60.5,-141.793 66.5,-147.793 66.5,-153.793"/>
<path fill="#c2c8ff" stroke="#c2c8ff" stroke-width="2" d="M66.5,-165.793C66.5,-171.793 60.5,-177.793 54.5,-177.793"/>
<polyline fill="none" stroke="white" stroke-width="2" points="54.5,-177.793 24.5,-177.793 "/>
<path fill="none" stroke="white" stroke-width="2" d="M24.5,-177.793C18.5,-177.793 12.5,-171.793 12.5,-165.793"/>
<polyline fill="none" stroke="white" stroke-width="2" points="12.5,-165.793 12.5,-153.793 "/>
<path fill="none" stroke="white" stroke-width="2" d="M12.5,-153.793C12.5,-147.793 18.5,-141.793 24.5,-141.793"/>
<polyline fill="none" stroke="white" stroke-width="2" points="24.5,-141.793 54.5,-141.793 "/>
<path fill="none" stroke="white" stroke-width="2" d="M54.5,-141.793C60.5,-141.793 66.5,-147.793 66.5,-153.793"/>
<polyline fill="none" stroke="white" stroke-width="2" points="66.5,-153.793 66.5,-165.793 "/>
<path fill="none" stroke="white" stroke-width="2" d="M66.5,-165.793C66.5,-171.793 60.5,-177.793 54.5,-177.793"/>
<text text-anchor="middle" x="39.5" y="-157.293" font-family="Helvetica,sans-Serif" font-size="10.00">ARID5B</text>
</a>
</g>
<!-- ESRRA_ESR2&#45;&gt;ARID5B -->
<g id="edge4" class="edge"><title>ESRRA_ESR2&#45;&gt;ARID5B</title>
<a xlink:title="ARID5B: 1.856||remove30">
<path fill="none" stroke="#bd32ff" stroke-width="3" d="M394.042,-245.516C361.966,-228.68 311.285,-204.221 264.513,-190.813 199.165,-172.08 119.792,-164.51 74.9159,-161.564"/>
<polygon fill="#bd32ff" stroke="#bd32ff" points="74.8409,-158.754 66.682,-161.05 74.4921,-164.343 74.8409,-158.754"/>
</a>
</g>
<!-- TFEC_MITF_ARNTL_BHLHE41 -->
<g id="node6" class="node"><title>TFEC_MITF_ARNTL_BHLHE41</title>
<a xlink:href="TFEC_MITF_ARNTL_BHLHE41.svg" xlink:title="Z&#45;value: 0.735||remove22">
<polygon fill="#aeb6ff" stroke="#aeb6ff" stroke-width="2" points="442.237,-371.487 307.737,-371.487 295.737,-359.487 295.737,-347.487 307.737,-335.487 442.237,-335.487 454.237,-347.487 454.237,-359.487 442.237,-371.487"/>
<path fill="#aeb6ff" stroke="#aeb6ff" stroke-width="2" d="M307.737,-371.487C301.737,-371.487 295.737,-365.487 295.737,-359.487"/>
<path fill="#aeb6ff" stroke="#aeb6ff" stroke-width="2" d="M295.737,-347.487C295.737,-341.487 301.737,-335.487 307.737,-335.487"/>
<path fill="#aeb6ff" stroke="#aeb6ff" stroke-width="2" d="M442.237,-335.487C448.237,-335.487 454.237,-341.487 454.237,-347.487"/>
<path fill="#aeb6ff" stroke="#aeb6ff" stroke-width="2" d="M454.237,-359.487C454.237,-365.487 448.237,-371.487 442.237,-371.487"/>
<polyline fill="none" stroke="white" stroke-width="2" points="442.237,-371.487 307.737,-371.487 "/>
<path fill="none" stroke="white" stroke-width="2" d="M307.737,-371.487C301.737,-371.487 295.737,-365.487 295.737,-359.487"/>
<polyline fill="none" stroke="white" stroke-width="2" points="295.737,-359.487 295.737,-347.487 "/>
<path fill="none" stroke="white" stroke-width="2" d="M295.737,-347.487C295.737,-341.487 301.737,-335.487 307.737,-335.487"/>
<polyline fill="none" stroke="white" stroke-width="2" points="307.737,-335.487 442.237,-335.487 "/>
<path fill="none" stroke="white" stroke-width="2" d="M442.237,-335.487C448.237,-335.487 454.237,-341.487 454.237,-347.487"/>
<polyline fill="none" stroke="white" stroke-width="2" points="454.237,-347.487 454.237,-359.487 "/>
<path fill="none" stroke="white" stroke-width="2" d="M454.237,-359.487C454.237,-365.487 448.237,-371.487 442.237,-371.487"/>
<text text-anchor="middle" x="374.987" y="-350.987" font-family="Helvetica,sans-Serif" font-size="10.00">TFEC_MITF_ARNTL_BHLHE41</text>
</a>
</g>
<!-- ESRRA_ESR2&#45;&gt;TFEC_MITF_ARNTL_BHLHE41 -->
<g id="edge6" class="edge"><title>ESRRA_ESR2&#45;&gt;TFEC_MITF_ARNTL_BHLHE41</title>
<a xlink:title="TFEC: 0.011||remove6root">
<path fill="none" stroke="#eecbff" stroke-width="3" d="M416.384,-281.785C408.646,-295.188 398.027,-313.581 389.481,-328.383"/>
<polygon fill="#eecbff" stroke="#eecbff" points="387.049,-326.994 385.474,-335.323 391.899,-329.794 387.049,-326.994"/>
</a>
</g>
<!-- FOXA2_FOXJ3 -->
<g id="node8" class="node"><title>FOXA2_FOXJ3</title>
<a xlink:href="FOXA2_FOXJ3.svg" xlink:title="Z&#45;value: 0.626||remove24">
<polygon fill="#b2baff" stroke="#b2baff" stroke-width="2" points="315.343,-423.387 254.843,-423.387 242.843,-411.387 242.843,-399.387 254.843,-387.387 315.343,-387.387 327.343,-399.387 327.343,-411.387 315.343,-423.387"/>
<path fill="#b2baff" stroke="#b2baff" stroke-width="2" d="M254.843,-423.387C248.843,-423.387 242.843,-417.387 242.843,-411.387"/>
<path fill="#b2baff" stroke="#b2baff" stroke-width="2" d="M242.843,-399.387C242.843,-393.387 248.843,-387.387 254.843,-387.387"/>
<path fill="#b2baff" stroke="#b2baff" stroke-width="2" d="M315.343,-387.387C321.343,-387.387 327.343,-393.387 327.343,-399.387"/>
<path fill="#b2baff" stroke="#b2baff" stroke-width="2" d="M327.343,-411.387C327.343,-417.387 321.343,-423.387 315.343,-423.387"/>
<polyline fill="none" stroke="white" stroke-width="2" points="315.343,-423.387 254.843,-423.387 "/>
<path fill="none" stroke="white" stroke-width="2" d="M254.843,-423.387C248.843,-423.387 242.843,-417.387 242.843,-411.387"/>
<polyline fill="none" stroke="white" stroke-width="2" points="242.843,-411.387 242.843,-399.387 "/>
<path fill="none" stroke="white" stroke-width="2" d="M242.843,-399.387C242.843,-393.387 248.843,-387.387 254.843,-387.387"/>
<polyline fill="none" stroke="white" stroke-width="2" points="254.843,-387.387 315.343,-387.387 "/>
<path fill="none" stroke="white" stroke-width="2" d="M315.343,-387.387C321.343,-387.387 327.343,-393.387 327.343,-399.387"/>
<polyline fill="none" stroke="white" stroke-width="2" points="327.343,-399.387 327.343,-411.387 "/>
<path fill="none" stroke="white" stroke-width="2" d="M327.343,-411.387C327.343,-417.387 321.343,-423.387 315.343,-423.387"/>
<text text-anchor="middle" x="285.093" y="-402.887" font-family="Helvetica,sans-Serif" font-size="10.00">FOXA2_FOXJ3</text>
</a>
</g>
<!-- ESRRA_ESR2&#45;&gt;FOXA2_FOXJ3 -->
<g id="edge8" class="edge"><title>ESRRA_ESR2&#45;&gt;FOXA2_FOXJ3</title>
<a xlink:title="FOXJ3: 0.358||remove24">
<path fill="none" stroke="#e5aeff" stroke-width="3" d="M385.308,-271.011C351.223,-279.52 305.093,-297.162 282.767,-332.607 274.206,-346.198 274.716,-364.227 277.402,-378.941"/>
<polygon fill="#e5aeff" stroke="#e5aeff" points="274.753,-379.936 279.183,-387.162 280.226,-378.75 274.753,-379.936"/>
</a>
</g>
<!-- SIN3A_CHD1&#45;&gt;SIN3A_CHD1 -->
<g id="edge10" class="edge"><title>SIN3A_CHD1&#45;&gt;SIN3A_CHD1</title>
<a xlink:title="CHD1: 0.054||remove19root">
<path fill="none" stroke="#edc7ff" stroke-width="3" d="M78.9269,-270.263C88.9645,-269.824 96.5,-267.601 96.5,-263.593 96.5,-260.775 92.7746,-258.84 87.0734,-257.786"/>
<polygon fill="#edc7ff" stroke="#edc7ff" points="87.1772,-254.982 78.9269,-256.924 86.5877,-260.551 87.1772,-254.982"/>
</a>
</g>
<!-- SIN3A_CHD1&#45;&gt;TFEC_MITF_ARNTL_BHLHE41 -->
<g id="edge14" class="edge"><title>SIN3A_CHD1&#45;&gt;TFEC_MITF_ARNTL_BHLHE41</title>
<a xlink:title="ARNTL: 0.364||remove22">
<path fill="none" stroke="#e5aeff" stroke-width="3" d="M78.9711,-274.17C133.092,-288.671 231.401,-315.013 299.809,-333.343"/>
<polygon fill="#e5aeff" stroke="#e5aeff" points="299.128,-336.059 307.58,-335.425 300.578,-330.65 299.128,-336.059"/>
</a>
</g>
<!-- SIN3A_CHD1&#45;&gt;FOXA2_FOXJ3 -->
<g id="edge24" class="edge"><title>SIN3A_CHD1&#45;&gt;FOXA2_FOXJ3</title>
<a xlink:title="FOXA2: 0.607||remove24">
<path fill="none" stroke="#de99ff" stroke-width="3" d="M71.1043,-281.84C115.959,-307.737 198.003,-355.105 246.428,-383.063"/>
<polygon fill="#de99ff" stroke="#de99ff" points="245.282,-385.635 253.61,-387.21 248.082,-380.785 245.282,-385.635"/>
</a>
</g>
<!-- MECOM -->
<g id="node11" class="node"><title>MECOM</title>
<a xlink:href="MECOM.svg" xlink:title="Z&#45;value: 0.630||remove29">
<polygon fill="#b2baff" stroke="#b2baff" stroke-width="2" points="106.65,-87.9 76.15,-87.9 64.15,-75.9 64.15,-63.9 76.15,-51.9 106.65,-51.9 118.65,-63.9 118.65,-75.9 106.65,-87.9"/>
<path fill="#b2baff" stroke="#b2baff" stroke-width="2" d="M76.15,-87.9C70.15,-87.9 64.15,-81.9 64.15,-75.9"/>
<path fill="#b2baff" stroke="#b2baff" stroke-width="2" d="M64.15,-63.9C64.15,-57.9 70.15,-51.9 76.15,-51.9"/>
<path fill="#b2baff" stroke="#b2baff" stroke-width="2" d="M106.65,-51.9C112.65,-51.9 118.65,-57.9 118.65,-63.9"/>
<path fill="#b2baff" stroke="#b2baff" stroke-width="2" d="M118.65,-75.9C118.65,-81.9 112.65,-87.9 106.65,-87.9"/>
<polyline fill="none" stroke="white" stroke-width="2" points="106.65,-87.9 76.15,-87.9 "/>
<path fill="none" stroke="white" stroke-width="2" d="M76.15,-87.9C70.15,-87.9 64.15,-81.9 64.15,-75.9"/>
<polyline fill="none" stroke="white" stroke-width="2" points="64.15,-75.9 64.15,-63.9 "/>
<path fill="none" stroke="white" stroke-width="2" d="M64.15,-63.9C64.15,-57.9 70.15,-51.9 76.15,-51.9"/>
<polyline fill="none" stroke="white" stroke-width="2" points="76.15,-51.9 106.65,-51.9 "/>
<path fill="none" stroke="white" stroke-width="2" d="M106.65,-51.9C112.65,-51.9 118.65,-57.9 118.65,-63.9"/>
<polyline fill="none" stroke="white" stroke-width="2" points="118.65,-63.9 118.65,-75.9 "/>
<path fill="none" stroke="white" stroke-width="2" d="M118.65,-75.9C118.65,-81.9 112.65,-87.9 106.65,-87.9"/>
<text text-anchor="middle" x="91.4" y="-67.4" font-family="Helvetica,sans-Serif" font-size="10.00">MECOM</text>
</a>
</g>
<!-- SIN3A_CHD1&#45;&gt;MECOM -->
<g id="edge12" class="edge"><title>SIN3A_CHD1&#45;&gt;MECOM</title>
<a xlink:title="MECOM: 0.047||remove17root">
<path fill="none" stroke="#edc8ff" stroke-width="3" d="M47.4174,-245.462C54.4049,-228.869 64.4437,-203.498 70.82,-180.673 78.7536,-152.275 84.4797,-118.912 87.8472,-96.2781"/>
<polygon fill="#edc8ff" stroke="#edc8ff" points="90.647,-96.48 89.022,-88.1614 85.1048,-95.6778 90.647,-96.48"/>
</a>
</g>
<!-- WRNIP1 -->
<g id="node14" class="node"><title>WRNIP1</title>
<a xlink:href="WRNIP1.svg" xlink:title="Z&#45;value: 1.103||remove31">
<polygon fill="#9fa9ff" stroke="#9fa9ff" stroke-width="2" points="196.793,-36 165.793,-36 153.793,-24 153.793,-12 165.793,-3.19744e-14 196.793,-3.19744e-14 208.793,-12 208.793,-24 196.793,-36"/>
<path fill="#9fa9ff" stroke="#9fa9ff" stroke-width="2" d="M165.793,-36C159.793,-36 153.793,-30 153.793,-24"/>
<path fill="#9fa9ff" stroke="#9fa9ff" stroke-width="2" d="M153.793,-12C153.793,-6 159.793,-3.19744e-14 165.793,-3.19744e-14"/>
<path fill="#9fa9ff" stroke="#9fa9ff" stroke-width="2" d="M196.793,-3.19744e-14C202.793,-3.19744e-14 208.793,-6 208.793,-12"/>
<path fill="#9fa9ff" stroke="#9fa9ff" stroke-width="2" d="M208.793,-24C208.793,-30 202.793,-36 196.793,-36"/>
<polyline fill="none" stroke="white" stroke-width="2" points="196.793,-36 165.793,-36 "/>
<path fill="none" stroke="white" stroke-width="2" d="M165.793,-36C159.793,-36 153.793,-30 153.793,-24"/>
<polyline fill="none" stroke="white" stroke-width="2" points="153.793,-24 153.793,-12 "/>
<path fill="none" stroke="white" stroke-width="2" d="M153.793,-12C153.793,-6 159.793,-3.19744e-14 165.793,-3.19744e-14"/>
<polyline fill="none" stroke="white" stroke-width="2" points="165.793,-3.19744e-14 196.793,-3.19744e-14 "/>
<path fill="none" stroke="white" stroke-width="2" d="M196.793,-3.19744e-14C202.793,-3.19744e-14 208.793,-6 208.793,-12"/>
<polyline fill="none" stroke="white" stroke-width="2" points="208.793,-12 208.793,-24 "/>
<path fill="none" stroke="white" stroke-width="2" d="M208.793,-24C208.793,-30 202.793,-36 196.793,-36"/>
<text text-anchor="middle" x="181.293" y="-15.5" font-family="Helvetica,sans-Serif" font-size="10.00">WRNIP1</text>
</a>
</g>
<!-- SIN3A_CHD1&#45;&gt;WRNIP1 -->
<g id="edge16" class="edge"><title>SIN3A_CHD1&#45;&gt;WRNIP1</title>
<a xlink:title="WRNIP1: 0.001||SIN3A: 0.007||remove4root">
<path fill="none" stroke="#eecbff" stroke-width="3" d="M53.1938,-237.875C80.4116,-190.732 138.703,-89.7693 165.898,-42.6663"/>
<path fill="none" stroke="#eecbff" stroke-width="3" d="M54.9259,-238.875C82.1436,-191.732 140.435,-90.7693 167.63,-43.6663"/>
<polygon fill="#eecbff" stroke="#eecbff" points="51.5016,-237.206 49.9264,-245.534 56.3513,-240.006 51.5016,-237.206"/>
<polygon fill="#eecbff" stroke="#eecbff" points="169.277,-44.4138 170.852,-36.0855 164.427,-41.6137 169.277,-44.4138"/>
</a>
</g>
<!-- NR2F1 -->
<g id="node16" class="node"><title>NR2F1</title>
<a xlink:href="NR2F1.svg" xlink:title="Z&#45;value: 0.504||remove36">
<polygon fill="#ffb7b7" stroke="#ffb7b7" stroke-width="2" points="248.193,-229.693 218.193,-229.693 206.193,-217.693 206.193,-205.693 218.193,-193.693 248.193,-193.693 260.193,-205.693 260.193,-217.693 248.193,-229.693"/>
<path fill="#ffb7b7" stroke="#ffb7b7" stroke-width="2" d="M218.193,-229.693C212.193,-229.693 206.193,-223.693 206.193,-217.693"/>
<path fill="#ffb7b7" stroke="#ffb7b7" stroke-width="2" d="M206.193,-205.693C206.193,-199.693 212.193,-193.693 218.193,-193.693"/>
<path fill="#ffb7b7" stroke="#ffb7b7" stroke-width="2" d="M248.193,-193.693C254.193,-193.693 260.193,-199.693 260.193,-205.693"/>
<path fill="#ffb7b7" stroke="#ffb7b7" stroke-width="2" d="M260.193,-217.693C260.193,-223.693 254.193,-229.693 248.193,-229.693"/>
<polyline fill="none" stroke="white" stroke-width="2" points="248.193,-229.693 218.193,-229.693 "/>
<path fill="none" stroke="white" stroke-width="2" d="M218.193,-229.693C212.193,-229.693 206.193,-223.693 206.193,-217.693"/>
<polyline fill="none" stroke="white" stroke-width="2" points="206.193,-217.693 206.193,-205.693 "/>
<path fill="none" stroke="white" stroke-width="2" d="M206.193,-205.693C206.193,-199.693 212.193,-193.693 218.193,-193.693"/>
<polyline fill="none" stroke="white" stroke-width="2" points="218.193,-193.693 248.193,-193.693 "/>
<path fill="none" stroke="white" stroke-width="2" d="M248.193,-193.693C254.193,-193.693 260.193,-199.693 260.193,-205.693"/>
<polyline fill="none" stroke="white" stroke-width="2" points="260.193,-205.693 260.193,-217.693 "/>
<path fill="none" stroke="white" stroke-width="2" d="M260.193,-217.693C260.193,-223.693 254.193,-229.693 248.193,-229.693"/>
<text text-anchor="middle" x="233.193" y="-209.193" font-family="Helvetica,sans-Serif" font-size="10.00">NR2F1</text>
</a>
</g>
<!-- SIN3A_CHD1&#45;&gt;NR2F1 -->
<g id="edge18" class="edge"><title>SIN3A_CHD1&#45;&gt;NR2F1</title>
<a xlink:title="NR2F1: 0.327||remove34root">
<path fill="none" stroke="#b1b8ff" stroke-width="3" d="M79.1642,-252.965C114.059,-243.615 164.385,-230.131 197.906,-221.149"/>
<polygon fill="#b1b8ff" stroke="#b1b8ff" points="199.043,-223.743 206.046,-218.968 197.594,-218.334 199.043,-223.743"/>
</a>
</g>
<!-- HNF1A_HNF1B -->
<g id="node18" class="node"><title>HNF1A_HNF1B</title>
<a xlink:href="HNF1A_HNF1B.svg" xlink:title="Z&#45;value: 0.567||remove25">
<polygon fill="#b5bcff" stroke="#b5bcff" stroke-width="2" points="212.793,-423.387 149.793,-423.387 137.793,-411.387 137.793,-399.387 149.793,-387.387 212.793,-387.387 224.793,-399.387 224.793,-411.387 212.793,-423.387"/>
<path fill="#b5bcff" stroke="#b5bcff" stroke-width="2" d="M149.793,-423.387C143.793,-423.387 137.793,-417.387 137.793,-411.387"/>
<path fill="#b5bcff" stroke="#b5bcff" stroke-width="2" d="M137.793,-399.387C137.793,-393.387 143.793,-387.387 149.793,-387.387"/>
<path fill="#b5bcff" stroke="#b5bcff" stroke-width="2" d="M212.793,-387.387C218.793,-387.387 224.793,-393.387 224.793,-399.387"/>
<path fill="#b5bcff" stroke="#b5bcff" stroke-width="2" d="M224.793,-411.387C224.793,-417.387 218.793,-423.387 212.793,-423.387"/>
<polyline fill="none" stroke="white" stroke-width="2" points="212.793,-423.387 149.793,-423.387 "/>
<path fill="none" stroke="white" stroke-width="2" d="M149.793,-423.387C143.793,-423.387 137.793,-417.387 137.793,-411.387"/>
<polyline fill="none" stroke="white" stroke-width="2" points="137.793,-411.387 137.793,-399.387 "/>
<path fill="none" stroke="white" stroke-width="2" d="M137.793,-399.387C137.793,-393.387 143.793,-387.387 149.793,-387.387"/>
<polyline fill="none" stroke="white" stroke-width="2" points="149.793,-387.387 212.793,-387.387 "/>
<path fill="none" stroke="white" stroke-width="2" d="M212.793,-387.387C218.793,-387.387 224.793,-393.387 224.793,-399.387"/>
<polyline fill="none" stroke="white" stroke-width="2" points="224.793,-399.387 224.793,-411.387 "/>
<path fill="none" stroke="white" stroke-width="2" d="M224.793,-411.387C224.793,-417.387 218.793,-423.387 212.793,-423.387"/>
<text text-anchor="middle" x="181.293" y="-402.887" font-family="Helvetica,sans-Serif" font-size="10.00">HNF1A_HNF1B</text>
</a>
</g>
<!-- SIN3A_CHD1&#45;&gt;HNF1A_HNF1B -->
<g id="edge20" class="edge"><title>SIN3A_CHD1&#45;&gt;HNF1A_HNF1B</title>
<a xlink:title="HNF1A: 0.074||HNF1B: 0.007||remove25">
<path fill="none" stroke="#ecc5ff" stroke-width="3" d="M63.9148,-281.733C81.1163,-295.005 104.276,-313.89 122.72,-332.607 137.528,-347.634 152.411,-366.181 163.468,-380.791"/>
<polygon fill="#ecc5ff" stroke="#ecc5ff" points="161.23,-382.473 168.266,-387.199 165.713,-379.117 161.23,-382.473"/>
</a>
</g>
<!-- PATZ1_KLF4 -->
<g id="node20" class="node"><title>PATZ1_KLF4</title>
<a xlink:href="PATZ1_KLF4.svg" xlink:title="Z&#45;value: 1.751||remove26">
<polygon fill="#8591ff" stroke="#8591ff" stroke-width="2" points="311.093,-36 259.093,-36 247.093,-24 247.093,-12 259.093,3.19744e-14 311.093,3.19744e-14 323.093,-12 323.093,-24 311.093,-36"/>
<path fill="#8591ff" stroke="#8591ff" stroke-width="2" d="M259.093,-36C253.093,-36 247.093,-30 247.093,-24"/>
<path fill="#8591ff" stroke="#8591ff" stroke-width="2" d="M247.093,-12C247.093,-6 253.093,3.19744e-14 259.093,3.19744e-14"/>
<path fill="#8591ff" stroke="#8591ff" stroke-width="2" d="M311.093,3.19744e-14C317.093,3.19744e-14 323.093,-6 323.093,-12"/>
<path fill="#8591ff" stroke="#8591ff" stroke-width="2" d="M323.093,-24C323.093,-30 317.093,-36 311.093,-36"/>
<polyline fill="none" stroke="white" stroke-width="2" points="311.093,-36 259.093,-36 "/>
<path fill="none" stroke="white" stroke-width="2" d="M259.093,-36C253.093,-36 247.093,-30 247.093,-24"/>
<polyline fill="none" stroke="white" stroke-width="2" points="247.093,-24 247.093,-12 "/>
<path fill="none" stroke="white" stroke-width="2" d="M247.093,-12C247.093,-6 253.093,3.19744e-14 259.093,3.19744e-14"/>
<polyline fill="none" stroke="white" stroke-width="2" points="259.093,3.19744e-14 311.093,3.19744e-14 "/>
<path fill="none" stroke="white" stroke-width="2" d="M311.093,3.19744e-14C317.093,3.19744e-14 323.093,-6 323.093,-12"/>
<polyline fill="none" stroke="white" stroke-width="2" points="323.093,-12 323.093,-24 "/>
<path fill="none" stroke="white" stroke-width="2" d="M323.093,-24C323.093,-30 317.093,-36 311.093,-36"/>
<text text-anchor="middle" x="285.093" y="-15.5" font-family="Helvetica,sans-Serif" font-size="10.00">PATZ1_KLF4</text>
</a>
</g>
<!-- SIN3A_CHD1&#45;&gt;PATZ1_KLF4 -->
<g id="edge22" class="edge"><title>SIN3A_CHD1&#45;&gt;PATZ1_KLF4</title>
<a xlink:title="KLF4: 0.185||PATZ1: 0.181||remove26">
<path fill="none" stroke="#e9bcff" stroke-width="3" d="M57.5591,-245.534C101.114,-201.979 211.957,-91.1363 261.057,-42.0366"/>
<polygon fill="#e9bcff" stroke="#e9bcff" points="263.331,-43.7223 267.008,-36.0855 259.371,-39.7625 263.331,-43.7223"/>
</a>
</g>
<!-- ARID5B&#45;&gt;SIN3A_CHD1 -->
<g id="edge32" class="edge"><title>ARID5B&#45;&gt;SIN3A_CHD1</title>
<a xlink:title="CHD1: 0.026||remove11root">
<path fill="none" stroke="#eec9ff" stroke-width="3" d="M39.5,-177.874C39.5,-194.295 39.5,-218.716 39.5,-237.296"/>
<polygon fill="#eec9ff" stroke="#eec9ff" points="36.7001,-237.372 39.5,-245.372 42.3001,-237.372 36.7001,-237.372"/>
</a>
</g>
<!-- ARID5B&#45;&gt;NR2F1 -->
<g id="edge34" class="edge"><title>ARID5B&#45;&gt;NR2F1</title>
<a xlink:title="NR2F1: 0.096||remove30root">
<path fill="none" stroke="#c4c9ff" stroke-width="3" d="M66.8407,-167.119C101.16,-176.315 160.093,-192.106 197.816,-202.214"/>
<polygon fill="#c4c9ff" stroke="#c4c9ff" points="197.54,-205.039 205.992,-204.405 198.989,-199.63 197.54,-205.039"/>
</a>
</g>
<!-- RREB1 -->
<g id="node23" class="node"><title>RREB1</title>
<a xlink:href="RREB1.svg" xlink:title="Z&#45;value: 0.513||remove23">
<polygon fill="#b7beff" stroke="#b7beff" stroke-width="2" points="106.4,-371.487 76.4,-371.487 64.4,-359.487 64.4,-347.487 76.4,-335.487 106.4,-335.487 118.4,-347.487 118.4,-359.487 106.4,-371.487"/>
<path fill="#b7beff" stroke="#b7beff" stroke-width="2" d="M76.4,-371.487C70.4,-371.487 64.4,-365.487 64.4,-359.487"/>
<path fill="#b7beff" stroke="#b7beff" stroke-width="2" d="M64.4,-347.487C64.4,-341.487 70.4,-335.487 76.4,-335.487"/>
<path fill="#b7beff" stroke="#b7beff" stroke-width="2" d="M106.4,-335.487C112.4,-335.487 118.4,-341.487 118.4,-347.487"/>
<path fill="#b7beff" stroke="#b7beff" stroke-width="2" d="M118.4,-359.487C118.4,-365.487 112.4,-371.487 106.4,-371.487"/>
<polyline fill="none" stroke="white" stroke-width="2" points="106.4,-371.487 76.4,-371.487 "/>
<path fill="none" stroke="white" stroke-width="2" d="M76.4,-371.487C70.4,-371.487 64.4,-365.487 64.4,-359.487"/>
<polyline fill="none" stroke="white" stroke-width="2" points="64.4,-359.487 64.4,-347.487 "/>
<path fill="none" stroke="white" stroke-width="2" d="M64.4,-347.487C64.4,-341.487 70.4,-335.487 76.4,-335.487"/>
<polyline fill="none" stroke="white" stroke-width="2" points="76.4,-335.487 106.4,-335.487 "/>
<path fill="none" stroke="white" stroke-width="2" d="M106.4,-335.487C112.4,-335.487 118.4,-341.487 118.4,-347.487"/>
<polyline fill="none" stroke="white" stroke-width="2" points="118.4,-347.487 118.4,-359.487 "/>
<path fill="none" stroke="white" stroke-width="2" d="M118.4,-359.487C118.4,-365.487 112.4,-371.487 106.4,-371.487"/>
<text text-anchor="middle" x="91.4" y="-350.987" font-family="Helvetica,sans-Serif" font-size="10.00">RREB1</text>
</a>
</g>
<!-- TFEC_MITF_ARNTL_BHLHE41&#45;&gt;RREB1 -->
<g id="edge26" class="edge"><title>TFEC_MITF_ARNTL_BHLHE41&#45;&gt;RREB1</title>
<a xlink:title="RREB1: 0.009||remove5root">
<path fill="none" stroke="#eecbff" stroke-width="3" d="M295.615,-353.487C240.122,-353.487 168.691,-353.487 126.688,-353.487"/>
<polygon fill="#eecbff" stroke="#eecbff" points="126.44,-350.687 118.44,-353.487 126.44,-356.287 126.44,-350.687"/>
</a>
</g>
<!-- FOXM1_TBL1XR1 -->
<g id="node25" class="node"><title>FOXM1_TBL1XR1</title>
<a xlink:href="FOXM1_TBL1XR1.svg" xlink:title="Z&#45;value: 2.140||remove35">
<polygon fill="#7683ff" stroke="#7683ff" stroke-width="2" points="411.487,-87.9 338.487,-87.9 326.487,-75.9 326.487,-63.9 338.487,-51.9 411.487,-51.9 423.487,-63.9 423.487,-75.9 411.487,-87.9"/>
<path fill="#7683ff" stroke="#7683ff" stroke-width="2" d="M338.487,-87.9C332.487,-87.9 326.487,-81.9 326.487,-75.9"/>
<path fill="#7683ff" stroke="#7683ff" stroke-width="2" d="M326.487,-63.9C326.487,-57.9 332.487,-51.9 338.487,-51.9"/>
<path fill="#7683ff" stroke="#7683ff" stroke-width="2" d="M411.487,-51.9C417.487,-51.9 423.487,-57.9 423.487,-63.9"/>
<path fill="#7683ff" stroke="#7683ff" stroke-width="2" d="M423.487,-75.9C423.487,-81.9 417.487,-87.9 411.487,-87.9"/>
<polyline fill="none" stroke="white" stroke-width="2" points="411.487,-87.9 338.487,-87.9 "/>
<path fill="none" stroke="white" stroke-width="2" d="M338.487,-87.9C332.487,-87.9 326.487,-81.9 326.487,-75.9"/>
<polyline fill="none" stroke="white" stroke-width="2" points="326.487,-75.9 326.487,-63.9 "/>
<path fill="none" stroke="white" stroke-width="2" d="M326.487,-63.9C326.487,-57.9 332.487,-51.9 338.487,-51.9"/>
<polyline fill="none" stroke="white" stroke-width="2" points="338.487,-51.9 411.487,-51.9 "/>
<path fill="none" stroke="white" stroke-width="2" d="M411.487,-51.9C417.487,-51.9 423.487,-57.9 423.487,-63.9"/>
<polyline fill="none" stroke="white" stroke-width="2" points="423.487,-63.9 423.487,-75.9 "/>
<path fill="none" stroke="white" stroke-width="2" d="M423.487,-75.9C423.487,-81.9 417.487,-87.9 411.487,-87.9"/>
<text text-anchor="middle" x="374.987" y="-67.4" font-family="Helvetica,sans-Serif" font-size="10.00">FOXM1_TBL1XR1</text>
</a>
</g>
<!-- TFEC_MITF_ARNTL_BHLHE41&#45;&gt;FOXM1_TBL1XR1 -->
<g id="edge28" class="edge"><title>TFEC_MITF_ARNTL_BHLHE41&#45;&gt;FOXM1_TBL1XR1</title>
<a xlink:title="FOXM1: 0.189||TFEC: 0.163||MITF: 0.092||remove22">
<path fill="none" stroke="#e9bcff" stroke-width="3" d="M373.987,-327.163C373.987,-273.04 373.987,-149.843 373.987,-95.9525"/>
<path fill="none" stroke="#eabeff" stroke-width="3" d="M375.987,-327.163C375.987,-273.04 375.987,-149.843 375.987,-95.9525"/>
<polygon fill="#eabeff" stroke="#eabeff" points="372.187,-327.316 374.987,-335.316 377.787,-327.316 372.187,-327.316"/>
<polygon fill="#e9bcff" stroke="#e9bcff" points="377.787,-95.9197 374.987,-87.9197 372.187,-95.9197 377.787,-95.9197"/>
</a>
</g>
<!-- FOXA2_FOXJ3&#45;&gt;TFEC_MITF_ARNTL_BHLHE41 -->
<g id="edge30" class="edge"><title>FOXA2_FOXJ3&#45;&gt;TFEC_MITF_ARNTL_BHLHE41</title>
<a xlink:title="MITF: 0.231||remove22">
<path fill="none" stroke="#e8b8ff" stroke-width="3" d="M316.282,-387.38C322.761,-383.639 329.663,-379.655 336.373,-375.781"/>
<polygon fill="#e8b8ff" stroke="#e8b8ff" points="338.021,-378.062 343.549,-371.637 335.221,-373.212 338.021,-378.062"/>
</a>
</g>
<!-- MECOM&#45;&gt;TFEC_MITF_ARNTL_BHLHE41 -->
<g id="edge46" class="edge"><title>MECOM&#45;&gt;TFEC_MITF_ARNTL_BHLHE41</title>
<a xlink:title="TFEC: 0.021||remove9root">
<path fill="none" stroke="#eecaff" stroke-width="3" d="M100.827,-88.0587C117.935,-119.869 156.55,-186.651 201.873,-232.573 242.07,-273.301 297.608,-309.316 334.835,-331.223"/>
<polygon fill="#eecaff" stroke="#eecaff" points="333.705,-333.805 342.026,-335.414 336.524,-328.966 333.705,-333.805"/>
</a>
</g>
<!-- MECOM&#45;&gt;NR2F1 -->
<g id="edge48" class="edge"><title>MECOM&#45;&gt;NR2F1</title>
<a xlink:title="NR2F1: 0.092||remove29root">
<path fill="none" stroke="#c4caff" stroke-width="3" d="M109.647,-88.1467C135.065,-113.565 181.168,-159.668 209.3,-187.8"/>
<polygon fill="#c4caff" stroke="#c4caff" points="207.38,-189.84 215.017,-193.517 211.34,-185.88 207.38,-189.84"/>
</a>
</g>
<!-- WRNIP1&#45;&gt;ESRRA_ESR2 -->
<g id="edge66" class="edge"><title>WRNIP1&#45;&gt;ESRRA_ESR2</title>
<a xlink:title="ESRRA: 0.023||remove10root">
<path fill="none" stroke="#eecaff" stroke-width="3" d="M199.353,-36.0591C242.907,-79.614 353.751,-190.457 402.85,-239.557"/>
<polygon fill="#eecaff" stroke="#eecaff" points="401.165,-241.831 408.801,-245.508 405.124,-237.871 401.165,-241.831"/>
</a>
</g>
<!-- WRNIP1&#45;&gt;ARID5B -->
<g id="edge64" class="edge"><title>WRNIP1&#45;&gt;ARID5B</title>
<a xlink:title="ARID5B: 0.137||remove30">
<path fill="none" stroke="#ebc0ff" stroke-width="3" d="M168.441,-36.2159C157.287,-51.488 140.298,-73.5061 123.3,-90.78 107.107,-107.237 87.2225,-123.746 70.8877,-136.49"/>
<polygon fill="#ebc0ff" stroke="#ebc0ff" points="68.7474,-134.605 64.1255,-141.71 72.1693,-139.038 68.7474,-134.605"/>
</a>
</g>
<!-- WRNIP1&#45;&gt;TFEC_MITF_ARNTL_BHLHE41 -->
<g id="edge68" class="edge"><title>WRNIP1&#45;&gt;TFEC_MITF_ARNTL_BHLHE41</title>
<a xlink:title="MITF: 0.035||BHLHE41: 0.025||remove14root">
<path fill="none" stroke="#edc9ff" stroke-width="3" d="M191.707,-36.0372C224.091,-92.1271 323.087,-263.594 360.48,-328.36"/>
<polygon fill="#edc9ff" stroke="#edc9ff" points="358.097,-329.832 364.522,-335.36 362.946,-327.032 358.097,-329.832"/>
</a>
</g>
<!-- WRNIP1&#45;&gt;FOXA2_FOXJ3 -->
<g id="edge78" class="edge"><title>WRNIP1&#45;&gt;FOXA2_FOXJ3</title>
<a xlink:title="FOXA2: 0.026||remove12root">
<path fill="none" stroke="#edc9ff" stroke-width="3" d="M180.905,-36.1929C180.566,-73.6777 182.153,-161.924 201.873,-232.573 217.355,-288.036 249.892,-347.421 269.38,-380.123"/>
<polygon fill="#edc9ff" stroke="#edc9ff" points="267.039,-381.663 273.565,-387.072 271.836,-378.774 267.039,-381.663"/>
</a>
</g>
<!-- WRNIP1&#45;&gt;WRNIP1 -->
<g id="edge70" class="edge"><title>WRNIP1&#45;&gt;WRNIP1</title>
<a xlink:title="WRNIP1: 0.003||remove1root">
<path fill="none" stroke="#eecbff" stroke-width="3" d="M208.978,-24.7484C218.557,-24.8198 226.293,-22.5703 226.293,-18 226.293,-14.8579 222.637,-12.8128 217.239,-11.8646"/>
<polygon fill="#eecbff" stroke="#eecbff" points="217.163,-9.05141 208.978,-11.2516 216.748,-14.6361 217.163,-9.05141"/>
</a>
</g>
<!-- WRNIP1&#45;&gt;NR2F1 -->
<g id="edge72" class="edge"><title>WRNIP1&#45;&gt;NR2F1</title>
<a xlink:title="NR2F1: 0.099||remove31root">
<path fill="none" stroke="#c3c9ff" stroke-width="3" d="M186.176,-36.2222C195.434,-70.775 215.568,-145.915 226.236,-185.729"/>
<polygon fill="#c3c9ff" stroke="#c3c9ff" points="223.586,-186.658 228.362,-193.661 228.996,-185.209 223.586,-186.658"/>
</a>
</g>
<!-- WRNIP1&#45;&gt;PATZ1_KLF4 -->
<g id="edge74" class="edge"><title>WRNIP1&#45;&gt;PATZ1_KLF4</title>
<a xlink:title="PATZ1: 0.056||remove21root">
<path fill="none" stroke="#edc7ff" stroke-width="3" d="M208.837,-18C218.031,-18 228.544,-18 238.766,-18"/>
<polygon fill="#edc7ff" stroke="#edc7ff" points="238.869,-20.8001 246.869,-18 238.869,-15.2001 238.869,-20.8001"/>
</a>
</g>
<!-- WRNIP1&#45;&gt;RREB1 -->
<g id="edge60" class="edge"><title>WRNIP1&#45;&gt;RREB1</title>
<a xlink:title="RREB1: 0.011||remove7root">
<path fill="none" stroke="#eecbff" stroke-width="3" d="M176.46,-36.0372C161.492,-91.8995 115.859,-262.205 98.3452,-327.567"/>
<polygon fill="#eecbff" stroke="#eecbff" points="95.623,-326.908 96.257,-335.36 101.032,-328.358 95.623,-326.908"/>
</a>
</g>
<!-- WRNIP1&#45;&gt;FOXM1_TBL1XR1 -->
<g id="edge62" class="edge"><title>WRNIP1&#45;&gt;FOXM1_TBL1XR1</title>
<a xlink:title="FOXM1: 0.028||TBL1XR1: 0.019||remove13root">
<path fill="none" stroke="#edc9ff" stroke-width="3" d="M209.042,-28.4068C219.043,-31.9697 230.464,-35.8242 241.013,-38.88 266.149,-46.1606 294.321,-52.8933 318.321,-58.2126"/>
<polygon fill="#edc9ff" stroke="#edc9ff" points="317.875,-60.9814 326.29,-59.9611 319.076,-55.5116 317.875,-60.9814"/>
</a>
</g>
<!-- EZH2 -->
<g id="node50" class="node"><title>EZH2</title>
<a xlink:href="EZH2.svg" xlink:title="Z&#45;value: 0.639||remove33">
<polygon fill="#b2baff" stroke="#b2baff" stroke-width="2" points="441.887,-177.793 411.887,-177.793 399.887,-165.793 399.887,-153.793 411.887,-141.793 441.887,-141.793 453.887,-153.793 453.887,-165.793 441.887,-177.793"/>
<path fill="#b2baff" stroke="#b2baff" stroke-width="2" d="M411.887,-177.793C405.887,-177.793 399.887,-171.793 399.887,-165.793"/>
<path fill="#b2baff" stroke="#b2baff" stroke-width="2" d="M399.887,-153.793C399.887,-147.793 405.887,-141.793 411.887,-141.793"/>
<path fill="#b2baff" stroke="#b2baff" stroke-width="2" d="M441.887,-141.793C447.887,-141.793 453.887,-147.793 453.887,-153.793"/>
<path fill="#b2baff" stroke="#b2baff" stroke-width="2" d="M453.887,-165.793C453.887,-171.793 447.887,-177.793 441.887,-177.793"/>
<polyline fill="none" stroke="white" stroke-width="2" points="441.887,-177.793 411.887,-177.793 "/>
<path fill="none" stroke="white" stroke-width="2" d="M411.887,-177.793C405.887,-177.793 399.887,-171.793 399.887,-165.793"/>
<polyline fill="none" stroke="white" stroke-width="2" points="399.887,-165.793 399.887,-153.793 "/>
<path fill="none" stroke="white" stroke-width="2" d="M399.887,-153.793C399.887,-147.793 405.887,-141.793 411.887,-141.793"/>
<polyline fill="none" stroke="white" stroke-width="2" points="411.887,-141.793 441.887,-141.793 "/>
<path fill="none" stroke="white" stroke-width="2" d="M441.887,-141.793C447.887,-141.793 453.887,-147.793 453.887,-153.793"/>
<polyline fill="none" stroke="white" stroke-width="2" points="453.887,-153.793 453.887,-165.793 "/>
<path fill="none" stroke="white" stroke-width="2" d="M453.887,-165.793C453.887,-171.793 447.887,-177.793 441.887,-177.793"/>
<text text-anchor="middle" x="426.887" y="-157.293" font-family="Helvetica,sans-Serif" font-size="10.00">EZH2</text>
</a>
</g>
<!-- WRNIP1&#45;&gt;EZH2 -->
<g id="edge76" class="edge"><title>WRNIP1&#45;&gt;EZH2</title>
<a xlink:title="EZH2: 0.007||remove3root">
<path fill="none" stroke="#eecbff" stroke-width="3" d="M208.989,-33.9899C254.185,-60.084 343.668,-111.747 392.732,-140.074"/>
<polygon fill="#eecbff" stroke="#eecbff" points="391.339,-142.503 399.668,-144.078 394.139,-137.653 391.339,-142.503"/>
</a>
</g>
<!-- NR2F1&#45;&gt;ESRRA_ESR2 -->
<g id="edge52" class="edge"><title>NR2F1&#45;&gt;ESRRA_ESR2</title>
<a xlink:title="ESRRA: 0.111||remove32root">
<path fill="none" stroke="#ffc2c2" stroke-width="3" d="M260.534,-219.019C290.909,-227.158 340.564,-240.463 377.731,-250.422"/>
<polygon fill="#ffc2c2" stroke="#ffc2c2" points="377.009,-253.127 385.461,-252.493 378.458,-247.718 377.009,-253.127"/>
</a>
</g>
<!-- NR2F1&#45;&gt;TFEC_MITF_ARNTL_BHLHE41 -->
<g id="edge54" class="edge"><title>NR2F1&#45;&gt;TFEC_MITF_ARNTL_BHLHE41</title>
<a xlink:title="TFEC: 0.057||remove22root">
<path fill="none" stroke="#ffc7c7" stroke-width="3" d="M251.44,-229.94C276.858,-255.358 322.962,-301.462 351.094,-329.594"/>
<polygon fill="#ffc7c7" stroke="#ffc7c7" points="349.173,-331.633 356.81,-335.31 353.133,-327.673 349.173,-331.633"/>
</a>
</g>
<!-- NR2F1&#45;&gt;FOXA2_FOXJ3 -->
<g id="edge58" class="edge"><title>NR2F1&#45;&gt;FOXA2_FOXJ3</title>
<a xlink:title="FOXJ3: 0.069||remove24root">
<path fill="none" stroke="#ffc6c6" stroke-width="3" d="M238.076,-229.916C247.334,-264.468 267.468,-339.609 278.136,-379.422"/>
<polygon fill="#ffc6c6" stroke="#ffc6c6" points="275.486,-380.352 280.262,-387.354 280.896,-378.902 275.486,-380.352"/>
</a>
</g>
<!-- NR2F1&#45;&gt;HNF1A_HNF1B -->
<g id="edge56" class="edge"><title>NR2F1&#45;&gt;HNF1A_HNF1B</title>
<a xlink:title="HNF1A: 0.071||remove25root">
<path fill="none" stroke="#ffc6c6" stroke-width="3" d="M228.311,-229.916C219.052,-264.468 198.919,-339.609 188.251,-379.422"/>
<polygon fill="#ffc6c6" stroke="#ffc6c6" points="185.491,-378.902 186.125,-387.354 190.901,-380.352 185.491,-378.902"/>
</a>
</g>
<!-- NR2F1&#45;&gt;RREB1 -->
<g id="edge50" class="edge"><title>NR2F1&#45;&gt;RREB1</title>
<a xlink:title="RREB1: 0.061||remove23root">
<path fill="none" stroke="#ffc6c6" stroke-width="3" d="M214.947,-229.94C189.529,-255.358 143.425,-301.462 115.293,-329.594"/>
<polygon fill="#ffc6c6" stroke="#ffc6c6" points="113.254,-327.673 109.577,-335.31 117.213,-331.633 113.254,-327.673"/>
</a>
</g>
<!-- PATZ1_KLF4&#45;&gt;ESRRA_ESR2 -->
<g id="edge88" class="edge"><title>PATZ1_KLF4&#45;&gt;ESRRA_ESR2</title>
<a xlink:title="ESRRA: 1.315||ESR2: 0.103||remove26">
<path fill="none" stroke="#cb5fff" stroke-width="3" d="M292.579,-36.2751C298.883,-51.197 308.409,-72.6966 318.147,-90.78 347.488,-145.267 387.382,-205.809 409.79,-238.806"/>
<polygon fill="#cb5fff" stroke="#cb5fff" points="407.477,-240.384 414.296,-245.418 412.104,-237.23 407.477,-240.384"/>
</a>
</g>
<!-- PATZ1_KLF4&#45;&gt;ARID5B -->
<g id="edge86" class="edge"><title>PATZ1_KLF4&#45;&gt;ARID5B</title>
<a xlink:title="ARID5B: 0.556||remove26">
<path fill="none" stroke="#e09eff" stroke-width="3" d="M253.489,-36.2467C207.279,-62.9261 121.598,-112.394 73.8692,-139.95"/>
<polygon fill="#e09eff" stroke="#e09eff" points="72.3574,-137.59 66.8292,-144.015 75.1574,-142.44 72.3574,-137.59"/>
</a>
</g>
<!-- PATZ1_KLF4&#45;&gt;TFEC_MITF_ARNTL_BHLHE41 -->
<g id="edge90" class="edge"><title>PATZ1_KLF4&#45;&gt;TFEC_MITF_ARNTL_BHLHE41</title>
<a xlink:title="MITF: 0.531||remove22">
<path fill="none" stroke="#e0a0ff" stroke-width="3" d="M289.927,-36.0372C304.895,-91.8995 350.528,-262.205 368.042,-327.567"/>
<polygon fill="#e0a0ff" stroke="#e0a0ff" points="365.355,-328.358 370.13,-335.36 370.764,-326.908 365.355,-328.358"/>
</a>
</g>
<!-- PATZ1_KLF4&#45;&gt;FOXA2_FOXJ3 -->
<g id="edge98" class="edge"><title>PATZ1_KLF4&#45;&gt;FOXA2_FOXJ3</title>
<a xlink:title="FOXA2: 0.054||FOXJ3: 0.034||remove20root">
<path fill="none" stroke="#edc7ff" stroke-width="3" d="M284.913,-36.0876C284.442,-84.2835 283.184,-219.816 282.767,-332.607 282.698,-351.167 282.072,-355.82 282.767,-374.367 282.826,-375.945 282.902,-377.568 282.99,-379.205"/>
<polygon fill="#edc7ff" stroke="#edc7ff" points="280.207,-379.552 283.512,-387.357 285.795,-379.194 280.207,-379.552"/>
</a>
</g>
<!-- PATZ1_KLF4&#45;&gt;MECOM -->
<g id="edge84" class="edge"><title>PATZ1_KLF4&#45;&gt;MECOM</title>
<a xlink:title="MECOM: 0.005||remove2root">
<path fill="none" stroke="#eecbff" stroke-width="3" d="M247.043,-29.4193C236.307,-32.5651 224.602,-35.9236 213.773,-38.88 184.52,-46.8671 151.141,-55.2818 126.642,-61.3287"/>
<polygon fill="#eecbff" stroke="#eecbff" points="125.792,-58.6543 118.693,-63.2846 127.13,-64.0921 125.792,-58.6543"/>
</a>
</g>
<!-- PATZ1_KLF4&#45;&gt;NR2F1 -->
<g id="edge92" class="edge"><title>PATZ1_KLF4&#45;&gt;NR2F1</title>
<a xlink:title="NR2F1: 0.075||remove26root">
<path fill="none" stroke="#c5cbff" stroke-width="3" d="M280.211,-36.2222C270.952,-70.775 250.819,-145.915 240.151,-185.729"/>
<polygon fill="#c5cbff" stroke="#c5cbff" points="237.391,-185.209 238.025,-193.661 242.801,-186.658 237.391,-185.209"/>
</a>
</g>
<!-- PATZ1_KLF4&#45;&gt;PATZ1_KLF4 -->
<g id="edge94" class="edge"><title>PATZ1_KLF4&#45;&gt;PATZ1_KLF4</title>
<a xlink:title="PATZ1: 0.441||KLF4: 0.051||remove26">
<path fill="none" stroke="#e3a7ff" stroke-width="3" d="M323.307,-24.6907C333.428,-24.3083 341.093,-22.0781 341.093,-18 341.093,-15.1326 337.304,-13.1787 331.536,-12.1384"/>
<polygon fill="#e3a7ff" stroke="#e3a7ff" points="331.548,-9.32556 323.307,-11.3093 330.986,-14.8973 331.548,-9.32556"/>
</a>
</g>
<!-- PATZ1_KLF4&#45;&gt;RREB1 -->
<g id="edge80" class="edge"><title>PATZ1_KLF4&#45;&gt;RREB1</title>
<a xlink:title="RREB1: 0.216||remove23">
<path fill="none" stroke="#e8baff" stroke-width="3" d="M274.68,-36.0372C242.296,-92.1271 143.3,-263.594 105.907,-328.36"/>
<polygon fill="#e8baff" stroke="#e8baff" points="103.44,-327.032 101.865,-335.36 108.29,-329.832 103.44,-327.032"/>
</a>
</g>
<!-- PATZ1_KLF4&#45;&gt;FOXM1_TBL1XR1 -->
<g id="edge82" class="edge"><title>PATZ1_KLF4&#45;&gt;FOXM1_TBL1XR1</title>
<a xlink:title="TBL1XR1: 0.675||remove26">
<path fill="none" stroke="#dc94ff" stroke-width="3" d="M316.282,-36.0064C322.761,-39.7475 329.663,-43.7324 336.373,-47.6063"/>
<polygon fill="#dc94ff" stroke="#dc94ff" points="335.221,-50.1744 343.549,-51.7496 338.021,-45.3247 335.221,-50.1744"/>
</a>
</g>
<!-- PATZ1_KLF4&#45;&gt;EZH2 -->
<g id="edge96" class="edge"><title>PATZ1_KLF4&#45;&gt;EZH2</title>
<a xlink:title="EZH2: 0.171||remove26">
<path fill="none" stroke="#eabdff" stroke-width="3" d="M290.073,-36.0837C295.129,-51.8912 304.214,-74.7585 318.147,-90.78 338.536,-114.226 368.83,-132.553 392.269,-144.41"/>
<polygon fill="#eabdff" stroke="#eabdff" points="391.203,-147.006 399.616,-148.03 393.678,-141.983 391.203,-147.006"/>
</a>
</g>
<!-- RREB1&#45;&gt;SIN3A_CHD1 -->
<g id="edge106" class="edge"><title>RREB1&#45;&gt;SIN3A_CHD1</title>
<a xlink:title="CHD1: 0.044||remove16root">
<path fill="none" stroke="#edc8ff" stroke-width="3" d="M80.8973,-335.296C73.1591,-321.893 62.5396,-303.499 53.994,-288.698"/>
<polygon fill="#edc8ff" stroke="#edc8ff" points="56.412,-287.286 49.9871,-281.758 51.5623,-290.086 56.412,-287.286"/>
</a>
</g>
<!-- FOXM1_TBL1XR1&#45;&gt;SIN3A_CHD1 -->
<g id="edge36" class="edge"><title>FOXM1_TBL1XR1&#45;&gt;SIN3A_CHD1</title>
<a xlink:title="CHD1: 0.041||remove15root">
<path fill="none" stroke="#edc8ff" stroke-width="3" d="M343.726,-87.9483C282.046,-123.559 144.864,-202.761 77.8431,-241.456"/>
<polygon fill="#edc8ff" stroke="#edc8ff" points="76.3316,-239.095 70.8034,-245.52 79.1316,-243.945 76.3316,-239.095"/>
</a>
</g>
<!-- FOXM1_TBL1XR1&#45;&gt;FOXA2_FOXJ3 -->
<g id="edge44" class="edge"><title>FOXM1_TBL1XR1&#45;&gt;FOXA2_FOXJ3</title>
<a xlink:title="FOXA2: 0.296||remove24">
<path fill="none" stroke="#e6b3ff" stroke-width="3" d="M366.159,-88.1173C346.395,-130.036 299.049,-237.068 282.767,-332.607 280.164,-347.881 280.587,-365.212 281.734,-379.129"/>
<polygon fill="#e6b3ff" stroke="#e6b3ff" points="278.968,-379.61 282.522,-387.304 284.542,-379.073 278.968,-379.61"/>
</a>
</g>
<!-- FOXM1_TBL1XR1&#45;&gt;MECOM -->
<g id="edge38" class="edge"><title>FOXM1_TBL1XR1&#45;&gt;MECOM</title>
<a xlink:title="MECOM: 0.083||remove27root">
<path fill="none" stroke="#ecc5ff" stroke-width="3" d="M326.237,-69.9C269.532,-69.9 177.284,-69.9 126.941,-69.9"/>
<polygon fill="#ecc5ff" stroke="#ecc5ff" points="126.936,-67.1001 118.936,-69.9 126.936,-72.7001 126.936,-67.1001"/>
</a>
</g>
<!-- FOXM1_TBL1XR1&#45;&gt;NR2F1 -->
<g id="edge40" class="edge"><title>FOXM1_TBL1XR1&#45;&gt;NR2F1</title>
<a xlink:title="NR2F1: 0.490||remove35root">
<path fill="none" stroke="#a3acff" stroke-width="3" d="M356.74,-88.1467C331.322,-113.565 285.219,-159.668 257.087,-187.8"/>
<polygon fill="#a3acff" stroke="#a3acff" points="255.047,-185.88 251.37,-193.517 259.007,-189.84 255.047,-185.88"/>
</a>
</g>
<!-- FOXM1_TBL1XR1&#45;&gt;HNF1A_HNF1B -->
<g id="edge42" class="edge"><title>FOXM1_TBL1XR1&#45;&gt;HNF1A_HNF1B</title>
<a xlink:title="HNF1A: 0.052||remove18root">
<path fill="none" stroke="#edc7ff" stroke-width="3" d="M364.573,-87.9372C332.19,-144.027 233.193,-315.494 195.8,-380.26"/>
<polygon fill="#edc7ff" stroke="#edc7ff" points="193.334,-378.932 191.759,-387.26 198.184,-381.732 193.334,-378.932"/>
</a>
</g>
<!-- EZH2&#45;&gt;TFEC_MITF_ARNTL_BHLHE41 -->
<g id="edge102" class="edge"><title>EZH2&#45;&gt;TFEC_MITF_ARNTL_BHLHE41</title>
<a xlink:title="MITF: 0.000||remove0root">
<path fill="none" stroke="#eecbff" stroke-width="3" d="M412.74,-178.007C401.193,-194.048 385.692,-218.557 378.747,-242.713 370.685,-270.755 370.854,-304.44 372.332,-327.246"/>
<polygon fill="#eecbff" stroke="#eecbff" points="369.554,-327.652 372.948,-335.419 375.139,-327.231 369.554,-327.652"/>
</a>
</g>
<!-- EZH2&#45;&gt;NR2F1 -->
<g id="edge104" class="edge"><title>EZH2&#45;&gt;NR2F1</title>
<a xlink:title="NR2F1: 0.238||remove33root">
<path fill="none" stroke="#b8bfff" stroke-width="3" d="M399.546,-167.119C365.226,-176.315 306.294,-192.106 268.57,-202.214"/>
<polygon fill="#b8bfff" stroke="#b8bfff" points="267.398,-199.63 260.395,-204.405 268.847,-205.039 267.398,-199.63"/>
</a>
</g>
<!-- EZH2&#45;&gt;RREB1 -->
<g id="edge100" class="edge"><title>EZH2&#45;&gt;RREB1</title>
<a xlink:title="RREB1: 0.013||remove8root">
<path fill="none" stroke="#eecaff" stroke-width="3" d="M399.717,-175.48C339.062,-210.499 192.714,-294.993 125.812,-333.619"/>
<polygon fill="#eecaff" stroke="#eecaff" points="124.352,-331.229 118.824,-337.654 127.152,-336.079 124.352,-331.229"/>
</a>
</g>
</g>
</svg>
