<?xml version="1.0" encoding="UTF-8" standalone="no"?>
<!DOCTYPE svg PUBLIC "-//W3C//DTD SVG 1.1//EN"
 "http://www.w3.org/Graphics/SVG/1.1/DTD/svg11.dtd">
<!-- Generated by graphviz version 2.28.0 (20110630.0925)
 -->
<!-- Title: _anonymous_0 Pages: 1 -->
<svg width="624pt" height="564pt"
 viewBox="0.00 0.00 624.00 563.50" xmlns="http://www.w3.org/2000/svg" xmlns:xlink="http://www.w3.org/1999/xlink">
<g id="graph1" class="graph" transform="scale(1 1) rotate(0) translate(4 559.501)">
<title>_anonymous_0</title>
<polygon fill="white" stroke="white" points="-4,5 -4,-559.501 621.001,-559.501 621.001,5 -4,5"/>
<!-- ESRRA_ESR2 -->
<g id="node1" class="node"><title>ESRRA_ESR2</title>
<a xlink:href="ESRRA_ESR2.svg" xlink:title="Z&#45;value: 3.814||remove34">
<polygon fill="#3247ff" stroke="#3247ff" stroke-width="2" points="70.75,-226.151 12.25,-226.151 0.25,-214.151 0.25,-202.151 12.25,-190.151 70.75,-190.151 82.75,-202.151 82.75,-214.151 70.75,-226.151"/>
<path fill="#3247ff" stroke="#3247ff" stroke-width="2" d="M12.25,-226.151C6.25,-226.151 0.25,-220.151 0.25,-214.151"/>
<path fill="#3247ff" stroke="#3247ff" stroke-width="2" d="M0.25,-202.151C0.25,-196.151 6.25,-190.151 12.25,-190.151"/>
<path fill="#3247ff" stroke="#3247ff" stroke-width="2" d="M70.75,-190.151C76.75,-190.151 82.75,-196.151 82.75,-202.151"/>
<path fill="#3247ff" stroke="#3247ff" stroke-width="2" d="M82.75,-214.151C82.75,-220.151 76.75,-226.151 70.75,-226.151"/>
<polyline fill="none" stroke="white" stroke-width="2" points="70.75,-226.151 12.25,-226.151 "/>
<path fill="none" stroke="white" stroke-width="2" d="M12.25,-226.151C6.25,-226.151 0.25,-220.151 0.25,-214.151"/>
<polyline fill="none" stroke="white" stroke-width="2" points="0.25,-214.151 0.25,-202.151 "/>
<path fill="none" stroke="white" stroke-width="2" d="M0.25,-202.151C0.25,-196.151 6.25,-190.151 12.25,-190.151"/>
<polyline fill="none" stroke="white" stroke-width="2" points="12.25,-190.151 70.75,-190.151 "/>
<path fill="none" stroke="white" stroke-width="2" d="M70.75,-190.151C76.75,-190.151 82.75,-196.151 82.75,-202.151"/>
<polyline fill="none" stroke="white" stroke-width="2" points="82.75,-202.151 82.75,-214.151 "/>
<path fill="none" stroke="white" stroke-width="2" d="M82.75,-214.151C82.75,-220.151 76.75,-226.151 70.75,-226.151"/>
<text text-anchor="middle" x="41.5" y="-205.651" font-family="Helvetica,sans-Serif" font-size="10.00" fill="white">ESRRA_ESR2</text>
</a>
</g>
<!-- NR5A2 -->
<g id="node2" class="node"><title>NR5A2</title>
<a xlink:href="NR5A2.svg" xlink:title="Z&#45;value: 0.899||remove37">
<polygon fill="#ffa7a7" stroke="#ffa7a7" stroke-width="2" points="316.251,-295.751 286.251,-295.751 274.251,-283.751 274.251,-271.751 286.251,-259.751 316.251,-259.751 328.251,-271.751 328.251,-283.751 316.251,-295.751"/>
<path fill="#ffa7a7" stroke="#ffa7a7" stroke-width="2" d="M286.251,-295.751C280.251,-295.751 274.251,-289.751 274.251,-283.751"/>
<path fill="#ffa7a7" stroke="#ffa7a7" stroke-width="2" d="M274.251,-271.751C274.251,-265.751 280.251,-259.751 286.251,-259.751"/>
<path fill="#ffa7a7" stroke="#ffa7a7" stroke-width="2" d="M316.251,-259.751C322.251,-259.751 328.251,-265.751 328.251,-271.751"/>
<path fill="#ffa7a7" stroke="#ffa7a7" stroke-width="2" d="M328.251,-283.751C328.251,-289.751 322.251,-295.751 316.251,-295.751"/>
<polyline fill="none" stroke="white" stroke-width="2" points="316.251,-295.751 286.251,-295.751 "/>
<path fill="none" stroke="white" stroke-width="2" d="M286.251,-295.751C280.251,-295.751 274.251,-289.751 274.251,-283.751"/>
<polyline fill="none" stroke="white" stroke-width="2" points="274.251,-283.751 274.251,-271.751 "/>
<path fill="none" stroke="white" stroke-width="2" d="M274.251,-271.751C274.251,-265.751 280.251,-259.751 286.251,-259.751"/>
<polyline fill="none" stroke="white" stroke-width="2" points="286.251,-259.751 316.251,-259.751 "/>
<path fill="none" stroke="white" stroke-width="2" d="M316.251,-259.751C322.251,-259.751 328.251,-265.751 328.251,-271.751"/>
<polyline fill="none" stroke="white" stroke-width="2" points="328.251,-271.751 328.251,-283.751 "/>
<path fill="none" stroke="white" stroke-width="2" d="M328.251,-283.751C328.251,-289.751 322.251,-295.751 316.251,-295.751"/>
<text text-anchor="middle" x="301.251" y="-275.251" font-family="Helvetica,sans-Serif" font-size="10.00">NR5A2</text>
</a>
</g>
<!-- ESRRA_ESR2&#45;&gt;NR5A2 -->
<g id="edge2" class="edge"><title>ESRRA_ESR2&#45;&gt;NR5A2</title>
<a xlink:title="NR5A2: 0.312||remove34root">
<path fill="none" stroke="#a6afff" stroke-width="3" d="M83.2335,-219.333C133.935,-232.919 218.571,-255.597 266.1,-268.332"/>
<polygon fill="#a6afff" stroke="#a6afff" points="265.511,-271.073 273.963,-270.439 266.96,-265.664 265.511,-271.073"/>
</a>
</g>
<!-- GATA1_GATA4 -->
<g id="node4" class="node"><title>GATA1_GATA4</title>
<a xlink:href="GATA1_GATA4.svg" xlink:title="Z&#45;value: 1.000||remove28">
<polygon fill="#a3acff" stroke="#a3acff" stroke-width="2" points="142.1,-105.6 80.1,-105.6 68.1,-93.6 68.1,-81.6 80.1,-69.6 142.1,-69.6 154.1,-81.6 154.1,-93.6 142.1,-105.6"/>
<path fill="#a3acff" stroke="#a3acff" stroke-width="2" d="M80.1,-105.6C74.1,-105.6 68.1,-99.6 68.1,-93.6"/>
<path fill="#a3acff" stroke="#a3acff" stroke-width="2" d="M68.1,-81.6C68.1,-75.6 74.1,-69.6 80.1,-69.6"/>
<path fill="#a3acff" stroke="#a3acff" stroke-width="2" d="M142.1,-69.6C148.1,-69.6 154.1,-75.6 154.1,-81.6"/>
<path fill="#a3acff" stroke="#a3acff" stroke-width="2" d="M154.1,-93.6C154.1,-99.6 148.1,-105.6 142.1,-105.6"/>
<polyline fill="none" stroke="white" stroke-width="2" points="142.1,-105.6 80.1,-105.6 "/>
<path fill="none" stroke="white" stroke-width="2" d="M80.1,-105.6C74.1,-105.6 68.1,-99.6 68.1,-93.6"/>
<polyline fill="none" stroke="white" stroke-width="2" points="68.1,-93.6 68.1,-81.6 "/>
<path fill="none" stroke="white" stroke-width="2" d="M68.1,-81.6C68.1,-75.6 74.1,-69.6 80.1,-69.6"/>
<polyline fill="none" stroke="white" stroke-width="2" points="80.1,-69.6 142.1,-69.6 "/>
<path fill="none" stroke="white" stroke-width="2" d="M142.1,-69.6C148.1,-69.6 154.1,-75.6 154.1,-81.6"/>
<polyline fill="none" stroke="white" stroke-width="2" points="154.1,-81.6 154.1,-93.6 "/>
<path fill="none" stroke="white" stroke-width="2" d="M154.1,-93.6C154.1,-99.6 148.1,-105.6 142.1,-105.6"/>
<text text-anchor="middle" x="111.1" y="-85.1" font-family="Helvetica,sans-Serif" font-size="10.00">GATA1_GATA4</text>
</a>
</g>
<!-- ESRRA_ESR2&#45;&gt;GATA1_GATA4 -->
<g id="edge4" class="edge"><title>ESRRA_ESR2&#45;&gt;GATA1_GATA4</title>
<a xlink:title="GATA4: 0.064||remove12root">
<path fill="none" stroke="#ecc4ff" stroke-width="3" d="M51.9198,-190.103C63.7595,-169.596 83.1654,-135.984 96.5075,-112.875"/>
<polygon fill="#ecc4ff" stroke="#ecc4ff" points="99.0338,-114.099 100.609,-105.771 94.184,-111.299 99.0338,-114.099"/>
</a>
</g>
<!-- TBX15_MGA -->
<g id="node6" class="node"><title>TBX15_MGA</title>
<a xlink:href="TBX15_MGA.svg" xlink:title="Z&#45;value: 0.701||remove32">
<polygon fill="#afb7ff" stroke="#afb7ff" stroke-width="2" points="586.001,-365.351 536.001,-365.351 524.001,-353.351 524.001,-341.351 536.001,-329.351 586.001,-329.351 598.001,-341.351 598.001,-353.351 586.001,-365.351"/>
<path fill="#afb7ff" stroke="#afb7ff" stroke-width="2" d="M536.001,-365.351C530.001,-365.351 524.001,-359.351 524.001,-353.351"/>
<path fill="#afb7ff" stroke="#afb7ff" stroke-width="2" d="M524.001,-341.351C524.001,-335.351 530.001,-329.351 536.001,-329.351"/>
<path fill="#afb7ff" stroke="#afb7ff" stroke-width="2" d="M586.001,-329.351C592.001,-329.351 598.001,-335.351 598.001,-341.351"/>
<path fill="#afb7ff" stroke="#afb7ff" stroke-width="2" d="M598.001,-353.351C598.001,-359.351 592.001,-365.351 586.001,-365.351"/>
<polyline fill="none" stroke="white" stroke-width="2" points="586.001,-365.351 536.001,-365.351 "/>
<path fill="none" stroke="white" stroke-width="2" d="M536.001,-365.351C530.001,-365.351 524.001,-359.351 524.001,-353.351"/>
<polyline fill="none" stroke="white" stroke-width="2" points="524.001,-353.351 524.001,-341.351 "/>
<path fill="none" stroke="white" stroke-width="2" d="M524.001,-341.351C524.001,-335.351 530.001,-329.351 536.001,-329.351"/>
<polyline fill="none" stroke="white" stroke-width="2" points="536.001,-329.351 586.001,-329.351 "/>
<path fill="none" stroke="white" stroke-width="2" d="M586.001,-329.351C592.001,-329.351 598.001,-335.351 598.001,-341.351"/>
<polyline fill="none" stroke="white" stroke-width="2" points="598.001,-341.351 598.001,-353.351 "/>
<path fill="none" stroke="white" stroke-width="2" d="M598.001,-353.351C598.001,-359.351 592.001,-365.351 586.001,-365.351"/>
<text text-anchor="middle" x="561.001" y="-344.851" font-family="Helvetica,sans-Serif" font-size="10.00">TBX15_MGA</text>
</a>
</g>
<!-- ESRRA_ESR2&#45;&gt;TBX15_MGA -->
<g id="edge6" class="edge"><title>ESRRA_ESR2&#45;&gt;TBX15_MGA</title>
<a xlink:title="MGA: 0.068||remove13root">
<path fill="none" stroke="#ecc3ff" stroke-width="3" d="M79.8461,-226.245C124.548,-246.648 201.099,-279.471 269.931,-298.631 355.084,-322.334 457.652,-336.216 515.494,-342.749"/>
<polygon fill="#ecc3ff" stroke="#ecc3ff" points="515.436,-345.559 523.696,-343.66 516.054,-339.994 515.436,-345.559"/>
</a>
</g>
<!-- KLF14_SP8 -->
<g id="node8" class="node"><title>KLF14_SP8</title>
<a xlink:href="KLF14_SP8.svg" xlink:title="Z&#45;value: 1.011||remove30">
<polygon fill="#a3acff" stroke="#a3acff" stroke-width="2" points="253.901,-36 209.401,-36 197.401,-24 197.401,-12 209.401,-9.59233e-14 253.901,-9.59233e-14 265.901,-12 265.901,-24 253.901,-36"/>
<path fill="#a3acff" stroke="#a3acff" stroke-width="2" d="M209.401,-36C203.401,-36 197.401,-30 197.401,-24"/>
<path fill="#a3acff" stroke="#a3acff" stroke-width="2" d="M197.401,-12C197.401,-6 203.401,-9.59233e-14 209.401,-9.59233e-14"/>
<path fill="#a3acff" stroke="#a3acff" stroke-width="2" d="M253.901,-9.59233e-14C259.901,-9.59233e-14 265.901,-6 265.901,-12"/>
<path fill="#a3acff" stroke="#a3acff" stroke-width="2" d="M265.901,-24C265.901,-30 259.901,-36 253.901,-36"/>
<polyline fill="none" stroke="white" stroke-width="2" points="253.901,-36 209.401,-36 "/>
<path fill="none" stroke="white" stroke-width="2" d="M209.401,-36C203.401,-36 197.401,-30 197.401,-24"/>
<polyline fill="none" stroke="white" stroke-width="2" points="197.401,-24 197.401,-12 "/>
<path fill="none" stroke="white" stroke-width="2" d="M197.401,-12C197.401,-6 203.401,-9.59233e-14 209.401,-9.59233e-14"/>
<polyline fill="none" stroke="white" stroke-width="2" points="209.401,-9.59233e-14 253.901,-9.59233e-14 "/>
<path fill="none" stroke="white" stroke-width="2" d="M253.901,-9.59233e-14C259.901,-9.59233e-14 265.901,-6 265.901,-12"/>
<polyline fill="none" stroke="white" stroke-width="2" points="265.901,-12 265.901,-24 "/>
<path fill="none" stroke="white" stroke-width="2" d="M265.901,-24C265.901,-30 259.901,-36 253.901,-36"/>
<text text-anchor="middle" x="231.651" y="-15.5" font-family="Helvetica,sans-Serif" font-size="10.00">KLF14_SP8</text>
</a>
</g>
<!-- ESRRA_ESR2&#45;&gt;KLF14_SP8 -->
<g id="edge8" class="edge"><title>ESRRA_ESR2&#45;&gt;KLF14_SP8</title>
<a xlink:title="SP8: 0.036||remove4root">
<path fill="none" stroke="#edc7ff" stroke-width="3" d="M66.1503,-190.068C91.2686,-171.09 130.726,-139.723 160.98,-108.48 180.985,-87.8205 200.889,-61.708 214.451,-42.8514"/>
<polygon fill="#edc7ff" stroke="#edc7ff" points="216.788,-44.3965 219.149,-36.2561 212.227,-41.1475 216.788,-44.3965"/>
</a>
</g>
<!-- RCOR1_MTA3 -->
<g id="node10" class="node"><title>RCOR1_MTA3</title>
<a xlink:href="RCOR1_MTA3.svg" xlink:title="Z&#45;value: 1.731||remove35">
<polygon fill="#8692ff" stroke="#8692ff" stroke-width="2" points="400.101,-36 341.601,-36 329.601,-24 329.601,-12 341.601,-0 400.101,-0 412.101,-12 412.101,-24 400.101,-36"/>
<path fill="#8692ff" stroke="#8692ff" stroke-width="2" d="M341.601,-36C335.601,-36 329.601,-30 329.601,-24"/>
<path fill="#8692ff" stroke="#8692ff" stroke-width="2" d="M329.601,-12C329.601,-6 335.601,-0 341.601,-0"/>
<path fill="#8692ff" stroke="#8692ff" stroke-width="2" d="M400.101,-0C406.101,-0 412.101,-6 412.101,-12"/>
<path fill="#8692ff" stroke="#8692ff" stroke-width="2" d="M412.101,-24C412.101,-30 406.101,-36 400.101,-36"/>
<polyline fill="none" stroke="white" stroke-width="2" points="400.101,-36 341.601,-36 "/>
<path fill="none" stroke="white" stroke-width="2" d="M341.601,-36C335.601,-36 329.601,-30 329.601,-24"/>
<polyline fill="none" stroke="white" stroke-width="2" points="329.601,-24 329.601,-12 "/>
<path fill="none" stroke="white" stroke-width="2" d="M329.601,-12C329.601,-6 335.601,-0 341.601,-0"/>
<polyline fill="none" stroke="white" stroke-width="2" points="341.601,-0 400.101,-0 "/>
<path fill="none" stroke="white" stroke-width="2" d="M400.101,-0C406.101,-0 412.101,-6 412.101,-12"/>
<polyline fill="none" stroke="white" stroke-width="2" points="412.101,-12 412.101,-24 "/>
<path fill="none" stroke="white" stroke-width="2" d="M412.101,-24C412.101,-30 406.101,-36 400.101,-36"/>
<text text-anchor="middle" x="370.851" y="-15.5" font-family="Helvetica,sans-Serif" font-size="10.00">RCOR1_MTA3</text>
</a>
</g>
<!-- ESRRA_ESR2&#45;&gt;RCOR1_MTA3 -->
<g id="edge10" class="edge"><title>ESRRA_ESR2&#45;&gt;RCOR1_MTA3</title>
<a xlink:title="MTA3: 0.083||ESRRA: 0.308||ESR2: 0.004||remove33root">
<path fill="none" stroke="#ebc2ff" stroke-width="3" d="M79.585,-185.008C142.959,-148.419 268.368,-76.0137 331.751,-39.4193"/>
<path fill="none" stroke="#e2a7ff" stroke-width="3" d="M80.585,-186.74C143.959,-150.151 269.368,-77.7457 332.751,-41.1513"/>
<polygon fill="#e2a7ff" stroke="#e2a7ff" points="78.3096,-183.665 72.7814,-190.09 81.1097,-188.515 78.3096,-183.665"/>
<polygon fill="#ebc2ff" stroke="#ebc2ff" points="333.768,-42.6429 339.296,-36.218 330.968,-37.7931 333.768,-42.6429"/>
</a>
</g>
<!-- NFE2L1 -->
<g id="node12" class="node"><title>NFE2L1</title>
<a xlink:href="NFE2L1.svg" xlink:title="Z&#45;value: 0.797||remove26">
<polygon fill="#acb4ff" stroke="#acb4ff" stroke-width="2" points="506.401,-485.901 476.401,-485.901 464.401,-473.901 464.401,-461.901 476.401,-449.901 506.401,-449.901 518.401,-461.901 518.401,-473.901 506.401,-485.901"/>
<path fill="#acb4ff" stroke="#acb4ff" stroke-width="2" d="M476.401,-485.901C470.401,-485.901 464.401,-479.901 464.401,-473.901"/>
<path fill="#acb4ff" stroke="#acb4ff" stroke-width="2" d="M464.401,-461.901C464.401,-455.901 470.401,-449.901 476.401,-449.901"/>
<path fill="#acb4ff" stroke="#acb4ff" stroke-width="2" d="M506.401,-449.901C512.401,-449.901 518.401,-455.901 518.401,-461.901"/>
<path fill="#acb4ff" stroke="#acb4ff" stroke-width="2" d="M518.401,-473.901C518.401,-479.901 512.401,-485.901 506.401,-485.901"/>
<polyline fill="none" stroke="white" stroke-width="2" points="506.401,-485.901 476.401,-485.901 "/>
<path fill="none" stroke="white" stroke-width="2" d="M476.401,-485.901C470.401,-485.901 464.401,-479.901 464.401,-473.901"/>
<polyline fill="none" stroke="white" stroke-width="2" points="464.401,-473.901 464.401,-461.901 "/>
<path fill="none" stroke="white" stroke-width="2" d="M464.401,-461.901C464.401,-455.901 470.401,-449.901 476.401,-449.901"/>
<polyline fill="none" stroke="white" stroke-width="2" points="476.401,-449.901 506.401,-449.901 "/>
<path fill="none" stroke="white" stroke-width="2" d="M506.401,-449.901C512.401,-449.901 518.401,-455.901 518.401,-461.901"/>
<polyline fill="none" stroke="white" stroke-width="2" points="518.401,-461.901 518.401,-473.901 "/>
<path fill="none" stroke="white" stroke-width="2" d="M518.401,-473.901C518.401,-479.901 512.401,-485.901 506.401,-485.901"/>
<text text-anchor="middle" x="491.401" y="-465.401" font-family="Helvetica,sans-Serif" font-size="10.00">NFE2L1</text>
</a>
</g>
<!-- ESRRA_ESR2&#45;&gt;NFE2L1 -->
<g id="edge12" class="edge"><title>ESRRA_ESR2&#45;&gt;NFE2L1</title>
<a xlink:title="NFE2L1: 0.785||remove26">
<path fill="none" stroke="#d06dff" stroke-width="3" d="M72.779,-226.21C154.297,-273.274 372.787,-399.42 457.336,-448.234"/>
<polygon fill="#d06dff" stroke="#d06dff" points="456.052,-450.726 464.38,-452.301 458.852,-445.876 456.052,-450.726"/>
</a>
</g>
<!-- DLX1_HOXA3_BARX2 -->
<g id="node14" class="node"><title>DLX1_HOXA3_BARX2</title>
<a xlink:href="DLX1_HOXA3_BARX2.svg" xlink:title="Z&#45;value: 0.566||remove29">
<polygon fill="#b5bcff" stroke="#b5bcff" stroke-width="2" points="418.101,-555.501 323.601,-555.501 311.601,-543.501 311.601,-531.501 323.601,-519.501 418.101,-519.501 430.101,-531.501 430.101,-543.501 418.101,-555.501"/>
<path fill="#b5bcff" stroke="#b5bcff" stroke-width="2" d="M323.601,-555.501C317.601,-555.501 311.601,-549.501 311.601,-543.501"/>
<path fill="#b5bcff" stroke="#b5bcff" stroke-width="2" d="M311.601,-531.501C311.601,-525.501 317.601,-519.501 323.601,-519.501"/>
<path fill="#b5bcff" stroke="#b5bcff" stroke-width="2" d="M418.101,-519.501C424.101,-519.501 430.101,-525.501 430.101,-531.501"/>
<path fill="#b5bcff" stroke="#b5bcff" stroke-width="2" d="M430.101,-543.501C430.101,-549.501 424.101,-555.501 418.101,-555.501"/>
<polyline fill="none" stroke="white" stroke-width="2" points="418.101,-555.501 323.601,-555.501 "/>
<path fill="none" stroke="white" stroke-width="2" d="M323.601,-555.501C317.601,-555.501 311.601,-549.501 311.601,-543.501"/>
<polyline fill="none" stroke="white" stroke-width="2" points="311.601,-543.501 311.601,-531.501 "/>
<path fill="none" stroke="white" stroke-width="2" d="M311.601,-531.501C311.601,-525.501 317.601,-519.501 323.601,-519.501"/>
<polyline fill="none" stroke="white" stroke-width="2" points="323.601,-519.501 418.101,-519.501 "/>
<path fill="none" stroke="white" stroke-width="2" d="M418.101,-519.501C424.101,-519.501 430.101,-525.501 430.101,-531.501"/>
<polyline fill="none" stroke="white" stroke-width="2" points="430.101,-531.501 430.101,-543.501 "/>
<path fill="none" stroke="white" stroke-width="2" d="M430.101,-543.501C430.101,-549.501 424.101,-555.501 418.101,-555.501"/>
<text text-anchor="middle" x="370.851" y="-535.001" font-family="Helvetica,sans-Serif" font-size="10.00">DLX1_HOXA3_BARX2</text>
</a>
</g>
<!-- ESRRA_ESR2&#45;&gt;DLX1_HOXA3_BARX2 -->
<g id="edge14" class="edge"><title>ESRRA_ESR2&#45;&gt;DLX1_HOXA3_BARX2</title>
<a xlink:title="DLX1: 0.079||remove15root">
<path fill="none" stroke="#ebc2ff" stroke-width="3" d="M59.6765,-226.327C115.459,-282.11 284.221,-450.872 346.994,-513.645"/>
<polygon fill="#ebc2ff" stroke="#ebc2ff" points="345.094,-515.704 352.73,-519.381 349.053,-511.744 345.094,-515.704"/>
</a>
</g>
<!-- STAT1_STAT3_BCL6 -->
<g id="node16" class="node"><title>STAT1_STAT3_BCL6</title>
<a xlink:href="STAT1_STAT3_BCL6.svg" xlink:title="Z&#45;value: 0.363||remove31">
<polygon fill="#bdc3ff" stroke="#bdc3ff" stroke-width="2" points="275.901,-555.501 187.401,-555.501 175.401,-543.501 175.401,-531.501 187.401,-519.501 275.901,-519.501 287.901,-531.501 287.901,-543.501 275.901,-555.501"/>
<path fill="#bdc3ff" stroke="#bdc3ff" stroke-width="2" d="M187.401,-555.501C181.401,-555.501 175.401,-549.501 175.401,-543.501"/>
<path fill="#bdc3ff" stroke="#bdc3ff" stroke-width="2" d="M175.401,-531.501C175.401,-525.501 181.401,-519.501 187.401,-519.501"/>
<path fill="#bdc3ff" stroke="#bdc3ff" stroke-width="2" d="M275.901,-519.501C281.901,-519.501 287.901,-525.501 287.901,-531.501"/>
<path fill="#bdc3ff" stroke="#bdc3ff" stroke-width="2" d="M287.901,-543.501C287.901,-549.501 281.901,-555.501 275.901,-555.501"/>
<polyline fill="none" stroke="white" stroke-width="2" points="275.901,-555.501 187.401,-555.501 "/>
<path fill="none" stroke="white" stroke-width="2" d="M187.401,-555.501C181.401,-555.501 175.401,-549.501 175.401,-543.501"/>
<polyline fill="none" stroke="white" stroke-width="2" points="175.401,-543.501 175.401,-531.501 "/>
<path fill="none" stroke="white" stroke-width="2" d="M175.401,-531.501C175.401,-525.501 181.401,-519.501 187.401,-519.501"/>
<polyline fill="none" stroke="white" stroke-width="2" points="187.401,-519.501 275.901,-519.501 "/>
<path fill="none" stroke="white" stroke-width="2" d="M275.901,-519.501C281.901,-519.501 287.901,-525.501 287.901,-531.501"/>
<polyline fill="none" stroke="white" stroke-width="2" points="287.901,-531.501 287.901,-543.501 "/>
<path fill="none" stroke="white" stroke-width="2" d="M287.901,-543.501C287.901,-549.501 281.901,-555.501 275.901,-555.501"/>
<text text-anchor="middle" x="231.651" y="-535.001" font-family="Helvetica,sans-Serif" font-size="10.00">STAT1_STAT3_BCL6</text>
</a>
</g>
<!-- ESRRA_ESR2&#45;&gt;STAT1_STAT3_BCL6 -->
<g id="edge16" class="edge"><title>ESRRA_ESR2&#45;&gt;STAT1_STAT3_BCL6</title>
<a xlink:title="STAT1: 0.115||remove21root">
<path fill="none" stroke="#eabeff" stroke-width="3" d="M51.9942,-226.327C83.9407,-281.66 180.068,-448.157 216.988,-512.105"/>
<polygon fill="#eabeff" stroke="#eabeff" points="214.764,-513.853 221.189,-519.381 219.614,-511.053 214.764,-513.853"/>
</a>
</g>
<!-- ELK4_ETV5_ELK1_ELK3_ELF4 -->
<g id="node18" class="node"><title>ELK4_ETV5_ELK1_ELK3_ELF4</title>
<a xlink:href="ELK4_ETV5_ELK1_ELK3_ELF4.svg" xlink:title="Z&#45;value: 1.430||remove24">
<polygon fill="#929dff" stroke="#929dff" stroke-width="2" points="557.901,-105.6 424.901,-105.6 412.901,-93.6 412.901,-81.6 424.901,-69.6 557.901,-69.6 569.901,-81.6 569.901,-93.6 557.901,-105.6"/>
<path fill="#929dff" stroke="#929dff" stroke-width="2" d="M424.901,-105.6C418.901,-105.6 412.901,-99.6 412.901,-93.6"/>
<path fill="#929dff" stroke="#929dff" stroke-width="2" d="M412.901,-81.6C412.901,-75.6 418.901,-69.6 424.901,-69.6"/>
<path fill="#929dff" stroke="#929dff" stroke-width="2" d="M557.901,-69.6C563.901,-69.6 569.901,-75.6 569.901,-81.6"/>
<path fill="#929dff" stroke="#929dff" stroke-width="2" d="M569.901,-93.6C569.901,-99.6 563.901,-105.6 557.901,-105.6"/>
<polyline fill="none" stroke="white" stroke-width="2" points="557.901,-105.6 424.901,-105.6 "/>
<path fill="none" stroke="white" stroke-width="2" d="M424.901,-105.6C418.901,-105.6 412.901,-99.6 412.901,-93.6"/>
<polyline fill="none" stroke="white" stroke-width="2" points="412.901,-93.6 412.901,-81.6 "/>
<path fill="none" stroke="white" stroke-width="2" d="M412.901,-81.6C412.901,-75.6 418.901,-69.6 424.901,-69.6"/>
<polyline fill="none" stroke="white" stroke-width="2" points="424.901,-69.6 557.901,-69.6 "/>
<path fill="none" stroke="white" stroke-width="2" d="M557.901,-69.6C563.901,-69.6 569.901,-75.6 569.901,-81.6"/>
<polyline fill="none" stroke="white" stroke-width="2" points="569.901,-81.6 569.901,-93.6 "/>
<path fill="none" stroke="white" stroke-width="2" d="M569.901,-93.6C569.901,-99.6 563.901,-105.6 557.901,-105.6"/>
<text text-anchor="middle" x="491.401" y="-85.1" font-family="Helvetica,sans-Serif" font-size="10.00">ELK4_ETV5_ELK1_ELK3_ELF4</text>
</a>
</g>
<!-- ESRRA_ESR2&#45;&gt;ELK4_ETV5_ELK1_ELK3_ELF4 -->
<g id="edge18" class="edge"><title>ESRRA_ESR2&#45;&gt;ELK4_ETV5_ELK1_ELK3_ELF4</title>
<a xlink:title="ELK1: 0.045||ESRRA: 0.253||remove24">
<path fill="none" stroke="#ecc6ff" stroke-width="3" d="M90.8118,-193.902C169.461,-172.828 323.368,-131.589 415.749,-106.836"/>
<path fill="none" stroke="#e4adff" stroke-width="3" d="M91.3294,-195.834C169.979,-174.76 323.886,-133.521 416.267,-108.768"/>
<polygon fill="#e4adff" stroke="#e4adff" points="90.0219,-192.25 83.0192,-197.026 91.4714,-197.66 90.0219,-192.25"/>
<polygon fill="#ecc6ff" stroke="#ecc6ff" points="416.922,-110.455 423.925,-105.68 415.473,-105.046 416.922,-110.455"/>
</a>
</g>
<!-- NR5A2&#45;&gt;TBX15_MGA -->
<g id="edge70" class="edge"><title>NR5A2&#45;&gt;TBX15_MGA</title>
<a xlink:title="MGA: 0.204||NR5A2: 0.089||remove32root">
<path fill="none" stroke="#ffb3b3" stroke-width="3" d="M336.607,-286.189C383.044,-298.632 464.965,-320.582 516.006,-334.259"/>
<path fill="none" stroke="#c1c7ff" stroke-width="3" d="M336.09,-288.121C382.526,-300.564 464.447,-322.514 515.488,-336.191"/>
<polygon fill="#c1c7ff" stroke="#c1c7ff" points="337.01,-284.434 328.558,-285.068 335.56,-289.843 337.01,-284.434"/>
<polygon fill="#ffb3b3" stroke="#ffb3b3" points="515.211,-337.98 523.664,-337.346 516.661,-332.571 515.211,-337.98"/>
</a>
</g>
<!-- NR5A2&#45;&gt;NFE2L1 -->
<g id="edge72" class="edge"><title>NR5A2&#45;&gt;NFE2L1</title>
<a xlink:title="NFE2L1: 0.163||remove26root">
<path fill="none" stroke="#ffb8b8" stroke-width="3" d="M319.483,-295.983C353.983,-330.483 428.803,-405.303 467.359,-443.859"/>
<polygon fill="#ffb8b8" stroke="#ffb8b8" points="465.587,-446.047 473.224,-449.724 469.547,-442.087 465.587,-446.047"/>
</a>
</g>
<!-- NR5A2&#45;&gt;DLX1_HOXA3_BARX2 -->
<g id="edge74" class="edge"><title>NR5A2&#45;&gt;DLX1_HOXA3_BARX2</title>
<a xlink:title="DLX1: 0.190||NR5A2: 0.011||remove29root">
<path fill="none" stroke="#ffb5b5" stroke-width="3" d="M309.218,-303.622C322.571,-353.456 351.531,-461.535 364.854,-511.256"/>
<path fill="none" stroke="#cacfff" stroke-width="3" d="M307.286,-304.14C320.639,-353.974 349.599,-462.052 362.922,-511.774"/>
<polygon fill="#cacfff" stroke="#cacfff" points="310.92,-303.019 306.145,-296.016 305.511,-304.468 310.92,-303.019"/>
<polygon fill="#ffb5b5" stroke="#ffb5b5" points="361.187,-512.254 365.962,-519.257 366.596,-510.804 361.187,-512.254"/>
</a>
</g>
<!-- NR5A2&#45;&gt;STAT1_STAT3_BCL6 -->
<g id="edge78" class="edge"><title>NR5A2&#45;&gt;STAT1_STAT3_BCL6</title>
<a xlink:title="BCL6: 0.204||remove31root">
<path fill="none" stroke="#ffb3b3" stroke-width="3" d="M296.357,-296.016C284.226,-341.286 252.737,-458.806 238.646,-511.395"/>
<polygon fill="#ffb3b3" stroke="#ffb3b3" points="235.906,-510.804 236.539,-519.257 241.315,-512.254 235.906,-510.804"/>
</a>
</g>
<!-- ZBTB33_CHD2 -->
<g id="node25" class="node"><title>ZBTB33_CHD2</title>
<a xlink:href="ZBTB33_CHD2.svg" xlink:title="Z&#45;value: 1.181||remove36">
<polygon fill="#9ca6ff" stroke="#9ca6ff" stroke-width="2" points="142.1,-485.901 80.1,-485.901 68.1,-473.901 68.1,-461.901 80.1,-449.901 142.1,-449.901 154.1,-461.901 154.1,-473.901 142.1,-485.901"/>
<path fill="#9ca6ff" stroke="#9ca6ff" stroke-width="2" d="M80.1,-485.901C74.1,-485.901 68.1,-479.901 68.1,-473.901"/>
<path fill="#9ca6ff" stroke="#9ca6ff" stroke-width="2" d="M68.1,-461.901C68.1,-455.901 74.1,-449.901 80.1,-449.901"/>
<path fill="#9ca6ff" stroke="#9ca6ff" stroke-width="2" d="M142.1,-449.901C148.1,-449.901 154.1,-455.901 154.1,-461.901"/>
<path fill="#9ca6ff" stroke="#9ca6ff" stroke-width="2" d="M154.1,-473.901C154.1,-479.901 148.1,-485.901 142.1,-485.901"/>
<polyline fill="none" stroke="white" stroke-width="2" points="142.1,-485.901 80.1,-485.901 "/>
<path fill="none" stroke="white" stroke-width="2" d="M80.1,-485.901C74.1,-485.901 68.1,-479.901 68.1,-473.901"/>
<polyline fill="none" stroke="white" stroke-width="2" points="68.1,-473.901 68.1,-461.901 "/>
<path fill="none" stroke="white" stroke-width="2" d="M68.1,-461.901C68.1,-455.901 74.1,-449.901 80.1,-449.901"/>
<polyline fill="none" stroke="white" stroke-width="2" points="80.1,-449.901 142.1,-449.901 "/>
<path fill="none" stroke="white" stroke-width="2" d="M142.1,-449.901C148.1,-449.901 154.1,-455.901 154.1,-461.901"/>
<polyline fill="none" stroke="white" stroke-width="2" points="154.1,-461.901 154.1,-473.901 "/>
<path fill="none" stroke="white" stroke-width="2" d="M154.1,-473.901C154.1,-479.901 148.1,-485.901 142.1,-485.901"/>
<text text-anchor="middle" x="111.1" y="-465.401" font-family="Helvetica,sans-Serif" font-size="10.00">ZBTB33_CHD2</text>
</a>
</g>
<!-- NR5A2&#45;&gt;ZBTB33_CHD2 -->
<g id="edge76" class="edge"><title>NR5A2&#45;&gt;ZBTB33_CHD2</title>
<a xlink:title="CHD2: 0.371||remove36root">
<path fill="none" stroke="#ff9f9f" stroke-width="3" d="M283.018,-295.983C248.518,-330.483 173.698,-405.303 135.142,-443.859"/>
<polygon fill="#ff9f9f" stroke="#ff9f9f" points="132.954,-442.087 129.277,-449.724 136.914,-446.047 132.954,-442.087"/>
</a>
</g>
<!-- EMX2 -->
<g id="node41" class="node"><title>EMX2</title>
<a xlink:href="EMX2.svg" xlink:title="Z&#45;value: 0.549||remove25">
<polygon fill="#b5bdff" stroke="#b5bdff" stroke-width="2" points="56.5,-365.351 26.5,-365.351 14.5,-353.351 14.5,-341.351 26.5,-329.351 56.5,-329.351 68.5,-341.351 68.5,-353.351 56.5,-365.351"/>
<path fill="#b5bdff" stroke="#b5bdff" stroke-width="2" d="M26.5,-365.351C20.5,-365.351 14.5,-359.351 14.5,-353.351"/>
<path fill="#b5bdff" stroke="#b5bdff" stroke-width="2" d="M14.5,-341.351C14.5,-335.351 20.5,-329.351 26.5,-329.351"/>
<path fill="#b5bdff" stroke="#b5bdff" stroke-width="2" d="M56.5,-329.351C62.5,-329.351 68.5,-335.351 68.5,-341.351"/>
<path fill="#b5bdff" stroke="#b5bdff" stroke-width="2" d="M68.5,-353.351C68.5,-359.351 62.5,-365.351 56.5,-365.351"/>
<polyline fill="none" stroke="white" stroke-width="2" points="56.5,-365.351 26.5,-365.351 "/>
<path fill="none" stroke="white" stroke-width="2" d="M26.5,-365.351C20.5,-365.351 14.5,-359.351 14.5,-353.351"/>
<polyline fill="none" stroke="white" stroke-width="2" points="14.5,-353.351 14.5,-341.351 "/>
<path fill="none" stroke="white" stroke-width="2" d="M14.5,-341.351C14.5,-335.351 20.5,-329.351 26.5,-329.351"/>
<polyline fill="none" stroke="white" stroke-width="2" points="26.5,-329.351 56.5,-329.351 "/>
<path fill="none" stroke="white" stroke-width="2" d="M56.5,-329.351C62.5,-329.351 68.5,-335.351 68.5,-341.351"/>
<polyline fill="none" stroke="white" stroke-width="2" points="68.5,-341.351 68.5,-353.351 "/>
<path fill="none" stroke="white" stroke-width="2" d="M68.5,-353.351C68.5,-359.351 62.5,-365.351 56.5,-365.351"/>
<text text-anchor="middle" x="41.5" y="-344.851" font-family="Helvetica,sans-Serif" font-size="10.00">EMX2</text>
</a>
</g>
<!-- NR5A2&#45;&gt;EMX2 -->
<g id="edge80" class="edge"><title>NR5A2&#45;&gt;EMX2</title>
<a xlink:title="EMX2: 0.163||remove25root">
<path fill="none" stroke="#ffb8b8" stroke-width="3" d="M273.944,-285.068C226.59,-297.756 129.289,-323.828 76.8477,-337.879"/>
<polygon fill="#ffb8b8" stroke="#ffb8b8" points="75.8335,-335.252 68.8308,-340.027 77.283,-340.661 75.8335,-335.252"/>
</a>
</g>
<!-- GATA1_GATA4&#45;&gt;NR5A2 -->
<g id="edge36" class="edge"><title>GATA1_GATA4&#45;&gt;NR5A2</title>
<a xlink:title="NR5A2: 0.105||GATA1: 0.175||remove28root">
<path fill="none" stroke="#bfc5ff" stroke-width="3" d="M135.911,-110.997C172.395,-147.481 241.249,-216.335 277.778,-252.864"/>
<path fill="none" stroke="#ffb6b6" stroke-width="3" d="M134.497,-112.411C170.981,-148.895 239.835,-217.749 276.364,-254.278"/>
<polygon fill="#ffb6b6" stroke="#ffb6b6" points="136.969,-109.509 129.332,-105.832 133.009,-113.469 136.969,-109.509"/>
<polygon fill="#bfc5ff" stroke="#bfc5ff" points="275.437,-255.897 283.073,-259.573 279.397,-251.937 275.437,-255.897"/>
</a>
</g>
<!-- TBX15_MGA&#45;&gt;TBX15_MGA -->
<g id="edge84" class="edge"><title>TBX15_MGA&#45;&gt;TBX15_MGA</title>
<a xlink:title="MGA: 0.096||remove18root">
<path fill="none" stroke="#ebc0ff" stroke-width="3" d="M598.017,-354.06C608.211,-353.735 616.001,-351.499 616.001,-347.351 616.001,-344.434 612.15,-342.462 606.32,-341.436"/>
<polygon fill="#ebc0ff" stroke="#ebc0ff" points="606.247,-338.617 598.017,-340.642 605.714,-344.191 606.247,-338.617"/>
</a>
</g>
<!-- KLF14_SP8&#45;&gt;NR5A2 -->
<g id="edge60" class="edge"><title>KLF14_SP8&#45;&gt;NR5A2</title>
<a xlink:title="NR5A2: 0.196||remove30root">
<path fill="none" stroke="#b4bbff" stroke-width="3" d="M236.545,-36.2652C248.675,-81.5357 280.164,-199.055 294.255,-251.644"/>
<polygon fill="#b4bbff" stroke="#b4bbff" points="291.587,-252.503 296.362,-259.506 296.996,-251.054 291.587,-252.503"/>
</a>
</g>
<!-- KLF14_SP8&#45;&gt;GATA1_GATA4 -->
<g id="edge62" class="edge"><title>KLF14_SP8&#45;&gt;GATA1_GATA4</title>
<a xlink:title="GATA4: 0.084||remove16root">
<path fill="none" stroke="#ebc1ff" stroke-width="3" d="M200.292,-36.1049C184.805,-45.0465 165.979,-55.9154 149.622,-65.3591"/>
<polygon fill="#ebc1ff" stroke="#ebc1ff" points="147.83,-63.1608 142.302,-69.5858 150.63,-68.0106 147.83,-63.1608"/>
</a>
</g>
<!-- KLF14_SP8&#45;&gt;TBX15_MGA -->
<g id="edge64" class="edge"><title>KLF14_SP8&#45;&gt;TBX15_MGA</title>
<a xlink:title="MGA: 0.006||SP8: 0.072||remove14root">
<path fill="none" stroke="#eecbff" stroke-width="3" d="M256.278,-41.213C317.035,-101.97 476.792,-261.727 537.674,-322.609"/>
<path fill="none" stroke="#ebc3ff" stroke-width="3" d="M254.864,-42.6272C315.621,-103.385 475.377,-263.141 536.259,-324.023"/>
<polygon fill="#ebc3ff" stroke="#ebc3ff" points="257.464,-39.8534 249.827,-36.1765 253.504,-43.8133 257.464,-39.8534"/>
<polygon fill="#eecbff" stroke="#eecbff" points="535.244,-325.553 542.881,-329.23 539.204,-321.594 535.244,-325.553"/>
</a>
</g>
<!-- KLF14_SP8&#45;&gt;STAT1_STAT3_BCL6 -->
<g id="edge66" class="edge"><title>KLF14_SP8&#45;&gt;STAT1_STAT3_BCL6</title>
<a xlink:title="STAT3: 0.044||remove8root">
<path fill="none" stroke="#ecc6ff" stroke-width="3" d="M231.651,-36.1847C231.651,-114.038 231.651,-419.456 231.651,-511.262"/>
<polygon fill="#ecc6ff" stroke="#ecc6ff" points="228.851,-511.464 231.651,-519.464 234.451,-511.464 228.851,-511.464"/>
</a>
</g>
<!-- KLF14_SP8&#45;&gt;ELK4_ETV5_ELK1_ELK3_ELF4 -->
<g id="edge68" class="edge"><title>KLF14_SP8&#45;&gt;ELK4_ETV5_ELK1_ELK3_ELF4</title>
<a xlink:title="ELK1: 0.042||ELK3: 0.041||remove6root">
<path fill="none" stroke="#edc6ff" stroke-width="3" d="M266.144,-27.2423C304.263,-37.4564 366.815,-54.2171 416.342,-67.4878"/>
<polygon fill="#edc6ff" stroke="#edc6ff" points="415.721,-70.2201 424.173,-69.5861 417.17,-64.8109 415.721,-70.2201"/>
</a>
</g>
<!-- RCOR1_MTA3&#45;&gt;NR5A2 -->
<g id="edge38" class="edge"><title>RCOR1_MTA3&#45;&gt;NR5A2</title>
<a xlink:title="NR5A2: 0.331||remove35root">
<path fill="none" stroke="#a4adff" stroke-width="3" d="M365.957,-36.2652C353.826,-81.5357 322.337,-199.055 308.246,-251.644"/>
<polygon fill="#a4adff" stroke="#a4adff" points="305.506,-251.054 306.139,-259.506 310.915,-252.503 305.506,-251.054"/>
</a>
</g>
<!-- RCOR1_MTA3&#45;&gt;GATA1_GATA4 -->
<g id="edge40" class="edge"><title>RCOR1_MTA3&#45;&gt;GATA1_GATA4</title>
<a xlink:title="GATA4: 0.251||GATA1: 0.130||remove28">
<path fill="none" stroke="#e5adff" stroke-width="3" d="M329.405,-29.1053C283.953,-41.2842 210.982,-60.8367 162.065,-73.9441"/>
<polygon fill="#e5adff" stroke="#e5adff" points="161.13,-71.2956 154.127,-76.0708 162.58,-76.7048 161.13,-71.2956"/>
</a>
</g>
<!-- RCOR1_MTA3&#45;&gt;TBX15_MGA -->
<g id="edge42" class="edge"><title>RCOR1_MTA3&#45;&gt;TBX15_MGA</title>
<a xlink:title="TBX15: 0.443||remove32">
<path fill="none" stroke="#dd96ff" stroke-width="3" d="M375.054,-36.263C379.729,-54.9626 388.177,-84.5906 399.761,-108.48 440.585,-192.666 507.801,-281.316 541.07,-322.991"/>
<polygon fill="#dd96ff" stroke="#dd96ff" points="538.918,-324.782 546.109,-329.268 543.285,-321.277 538.918,-324.782"/>
</a>
</g>
<!-- RCOR1_MTA3&#45;&gt;KLF14_SP8 -->
<g id="edge44" class="edge"><title>RCOR1_MTA3&#45;&gt;KLF14_SP8</title>
<a xlink:title="KLF14: 0.134||remove23root">
<path fill="none" stroke="#e9bbff" stroke-width="3" d="M329.463,-18C312.107,-18 291.934,-18 274.433,-18"/>
<polygon fill="#e9bbff" stroke="#e9bbff" points="274.079,-15.1999 266.079,-18 274.079,-20.7999 274.079,-15.1999"/>
</a>
</g>
<!-- RCOR1_MTA3&#45;&gt;RCOR1_MTA3 -->
<g id="edge46" class="edge"><title>RCOR1_MTA3&#45;&gt;RCOR1_MTA3</title>
<a xlink:title="RCOR1: 1.276||remove35">
<path fill="none" stroke="#bd32ff" stroke-width="3" d="M412.205,-24.6445C422.322,-24.1523 429.851,-21.9375 429.851,-18 429.851,-15.2314 426.129,-13.3145 420.402,-12.2493"/>
<polygon fill="#bd32ff" stroke="#bd32ff" points="420.462,-9.43931 412.205,-11.3555 419.855,-15.0063 420.462,-9.43931"/>
</a>
</g>
<!-- RCOR1_MTA3&#45;&gt;NFE2L1 -->
<g id="edge48" class="edge"><title>RCOR1_MTA3&#45;&gt;NFE2L1</title>
<a xlink:title="NFE2L1: 0.174||remove26">
<path fill="none" stroke="#e8b7ff" stroke-width="3" d="M375.726,-36.1939C394.506,-106.284 462.223,-359.005 484.351,-441.589"/>
<polygon fill="#e8b7ff" stroke="#e8b7ff" points="481.691,-442.479 486.466,-449.481 487.1,-441.029 481.691,-442.479"/>
</a>
</g>
<!-- RCOR1_MTA3&#45;&gt;DLX1_HOXA3_BARX2 -->
<g id="edge52" class="edge"><title>RCOR1_MTA3&#45;&gt;DLX1_HOXA3_BARX2</title>
<a xlink:title="HOXA3: 0.102||DLX1: 0.018||remove20root">
<path fill="none" stroke="#eabfff" stroke-width="3" d="M370.851,-36.1847C370.851,-114.038 370.851,-419.456 370.851,-511.262"/>
<polygon fill="#eabfff" stroke="#eabfff" points="368.051,-511.464 370.851,-519.464 373.651,-511.464 368.051,-511.464"/>
</a>
</g>
<!-- RCOR1_MTA3&#45;&gt;STAT1_STAT3_BCL6 -->
<g id="edge54" class="edge"><title>RCOR1_MTA3&#45;&gt;STAT1_STAT3_BCL6</title>
<a xlink:title="STAT1: 0.224||BCL6: 0.084||STAT3: 0.020||remove31">
<path fill="none" stroke="#e6b1ff" stroke-width="3" d="M361.133,-36.287C340.744,-75.508 293.446,-171.122 269.931,-256.871 244.852,-348.319 235.835,-461.237 232.912,-511.386"/>
<polygon fill="#e6b1ff" stroke="#e6b1ff" points="230.112,-511.3 232.464,-519.443 235.704,-511.611 230.112,-511.3"/>
</a>
</g>
<!-- RCOR1_MTA3&#45;&gt;ELK4_ETV5_ELK1_ELK3_ELF4 -->
<g id="edge56" class="edge"><title>RCOR1_MTA3&#45;&gt;ELK4_ETV5_ELK1_ELK3_ELF4</title>
<a xlink:title="ELK3: 0.260||ETV5: 0.138||remove24">
<path fill="none" stroke="#e4acff" stroke-width="3" d="M402.209,-36.1049C417.697,-45.0465 436.522,-55.9154 452.879,-65.3591"/>
<polygon fill="#e4acff" stroke="#e4acff" points="451.872,-68.0106 460.2,-69.5858 454.672,-63.1608 451.872,-68.0106"/>
</a>
</g>
<!-- FOXM1_TBL1XR1 -->
<g id="node36" class="node"><title>FOXM1_TBL1XR1</title>
<a xlink:href="FOXM1_TBL1XR1.svg" xlink:title="Z&#45;value: 2.140||remove27">
<polygon fill="#7683ff" stroke="#7683ff" stroke-width="2" points="597.501,-226.151 524.501,-226.151 512.501,-214.151 512.501,-202.151 524.501,-190.151 597.501,-190.151 609.501,-202.151 609.501,-214.151 597.501,-226.151"/>
<path fill="#7683ff" stroke="#7683ff" stroke-width="2" d="M524.501,-226.151C518.501,-226.151 512.501,-220.151 512.501,-214.151"/>
<path fill="#7683ff" stroke="#7683ff" stroke-width="2" d="M512.501,-202.151C512.501,-196.151 518.501,-190.151 524.501,-190.151"/>
<path fill="#7683ff" stroke="#7683ff" stroke-width="2" d="M597.501,-190.151C603.501,-190.151 609.501,-196.151 609.501,-202.151"/>
<path fill="#7683ff" stroke="#7683ff" stroke-width="2" d="M609.501,-214.151C609.501,-220.151 603.501,-226.151 597.501,-226.151"/>
<polyline fill="none" stroke="white" stroke-width="2" points="597.501,-226.151 524.501,-226.151 "/>
<path fill="none" stroke="white" stroke-width="2" d="M524.501,-226.151C518.501,-226.151 512.501,-220.151 512.501,-214.151"/>
<polyline fill="none" stroke="white" stroke-width="2" points="512.501,-214.151 512.501,-202.151 "/>
<path fill="none" stroke="white" stroke-width="2" d="M512.501,-202.151C512.501,-196.151 518.501,-190.151 524.501,-190.151"/>
<polyline fill="none" stroke="white" stroke-width="2" points="524.501,-190.151 597.501,-190.151 "/>
<path fill="none" stroke="white" stroke-width="2" d="M597.501,-190.151C603.501,-190.151 609.501,-196.151 609.501,-202.151"/>
<polyline fill="none" stroke="white" stroke-width="2" points="609.501,-202.151 609.501,-214.151 "/>
<path fill="none" stroke="white" stroke-width="2" d="M609.501,-214.151C609.501,-220.151 603.501,-226.151 597.501,-226.151"/>
<text text-anchor="middle" x="561.001" y="-205.651" font-family="Helvetica,sans-Serif" font-size="10.00">FOXM1_TBL1XR1</text>
</a>
</g>
<!-- RCOR1_MTA3&#45;&gt;FOXM1_TBL1XR1 -->
<g id="edge50" class="edge"><title>RCOR1_MTA3&#45;&gt;FOXM1_TBL1XR1</title>
<a xlink:title="FOXM1: 0.174||TBL1XR1: 0.055||remove27">
<path fill="none" stroke="#e8b7ff" stroke-width="3" d="M372.863,-36.0425C375.842,-55.6489 383.01,-87.0381 399.761,-108.48 427.567,-144.071 471.899,-170.146 507.047,-186.68"/>
<polygon fill="#e8b7ff" stroke="#e8b7ff" points="505.96,-189.262 514.398,-190.064 508.302,-184.175 505.96,-189.262"/>
</a>
</g>
<!-- RCOR1_MTA3&#45;&gt;EMX2 -->
<g id="edge58" class="edge"><title>RCOR1_MTA3&#45;&gt;EMX2</title>
<a xlink:title="EMX2: 0.205||remove25">
<path fill="none" stroke="#e6b3ff" stroke-width="3" d="M352.674,-36.1765C296.891,-91.9593 128.13,-260.721 65.3568,-323.494"/>
<polygon fill="#e6b3ff" stroke="#e6b3ff" points="63.2973,-321.594 59.6203,-329.23 67.2571,-325.553 63.2973,-321.594"/>
</a>
</g>
<!-- NFE2L1&#45;&gt;ZBTB33_CHD2 -->
<g id="edge82" class="edge"><title>NFE2L1&#45;&gt;ZBTB33_CHD2</title>
<a xlink:title="CHD2: 0.009||remove0root">
<path fill="none" stroke="#eecaff" stroke-width="3" d="M464.356,-467.901C401.439,-467.901 244.398,-467.901 162.547,-467.901"/>
<polygon fill="#eecaff" stroke="#eecaff" points="162.387,-465.102 154.387,-467.901 162.387,-470.702 162.387,-465.102"/>
</a>
</g>
<!-- ELK4_ETV5_ELK1_ELK3_ELF4&#45;&gt;NR5A2 -->
<g id="edge20" class="edge"><title>ELK4_ETV5_ELK1_ELK3_ELF4&#45;&gt;NR5A2</title>
<a xlink:title="NR5A2: 0.156||remove24root">
<path fill="none" stroke="#b9c0ff" stroke-width="3" d="M473.169,-105.832C438.669,-140.332 363.849,-215.152 325.293,-253.709"/>
<polygon fill="#b9c0ff" stroke="#b9c0ff" points="323.105,-251.937 319.428,-259.573 327.065,-255.897 323.105,-251.937"/>
</a>
</g>
<!-- ELK4_ETV5_ELK1_ELK3_ELF4&#45;&gt;GATA1_GATA4 -->
<g id="edge22" class="edge"><title>ELK4_ETV5_ELK1_ELK3_ELF4&#45;&gt;GATA1_GATA4</title>
<a xlink:title="GATA4: 0.052||remove10root">
<path fill="none" stroke="#ecc5ff" stroke-width="3" d="M412.603,-87.6C337.645,-87.6 227.044,-87.6 162.71,-87.6"/>
<polygon fill="#ecc5ff" stroke="#ecc5ff" points="162.332,-84.8001 154.332,-87.6 162.332,-90.4001 162.332,-84.8001"/>
</a>
</g>
<!-- ELK4_ETV5_ELK1_ELK3_ELF4&#45;&gt;TBX15_MGA -->
<g id="edge24" class="edge"><title>ELK4_ETV5_ELK1_ELK3_ELF4&#45;&gt;TBX15_MGA</title>
<a xlink:title="MGA: 0.029||remove3root">
<path fill="none" stroke="#edc8ff" stroke-width="3" d="M490.993,-105.827C490.836,-133.124 492.306,-186.011 504.161,-229.031 513.504,-262.931 532.234,-298.95 545.641,-322.218"/>
<polygon fill="#edc8ff" stroke="#edc8ff" points="543.331,-323.815 549.788,-329.306 548.164,-320.987 543.331,-323.815"/>
</a>
</g>
<!-- ELK4_ETV5_ELK1_ELK3_ELF4&#45;&gt;NFE2L1 -->
<g id="edge26" class="edge"><title>ELK4_ETV5_ELK1_ELK3_ELF4&#45;&gt;NFE2L1</title>
<a xlink:title="NFE2L1: 0.013||remove2root">
<path fill="none" stroke="#eecaff" stroke-width="3" d="M491.401,-105.687C491.401,-167.249 491.401,-368.844 491.401,-441.501"/>
<polygon fill="#eecaff" stroke="#eecaff" points="488.602,-441.704 491.401,-449.704 494.202,-441.704 488.602,-441.704"/>
</a>
</g>
<!-- ELK4_ETV5_ELK1_ELK3_ELF4&#45;&gt;DLX1_HOXA3_BARX2 -->
<g id="edge28" class="edge"><title>ELK4_ETV5_ELK1_ELK3_ELF4&#45;&gt;DLX1_HOXA3_BARX2</title>
<a xlink:title="HOXA3: 0.063||remove11root">
<path fill="none" stroke="#ecc4ff" stroke-width="3" d="M486.526,-105.794C467.746,-175.884 400.03,-428.605 377.901,-511.189"/>
<polygon fill="#ecc4ff" stroke="#ecc4ff" points="375.152,-510.629 375.786,-519.081 380.562,-512.079 375.152,-510.629"/>
</a>
</g>
<!-- ELK4_ETV5_ELK1_ELK3_ELF4&#45;&gt;STAT1_STAT3_BCL6 -->
<g id="edge32" class="edge"><title>ELK4_ETV5_ELK1_ELK3_ELF4&#45;&gt;STAT1_STAT3_BCL6</title>
<a xlink:title="STAT1: 0.044||BCL6: 0.029||STAT3: 0.013||remove7root">
<path fill="none" stroke="#edc6ff" stroke-width="3" d="M480.897,-105.794C440.349,-176.026 293.932,-429.626 246.555,-511.687"/>
<polygon fill="#edc6ff" stroke="#edc6ff" points="243.861,-510.753 242.286,-519.081 248.711,-513.553 243.861,-510.753"/>
</a>
</g>
<!-- ELK4_ETV5_ELK1_ELK3_ELF4&#45;&gt;ELK4_ETV5_ELK1_ELK3_ELF4 -->
<g id="edge34" class="edge"><title>ELK4_ETV5_ELK1_ELK3_ELF4&#45;&gt;ELK4_ETV5_ELK1_ELK3_ELF4</title>
<a xlink:title="ELK4: 0.168||ELK3: 0.113||remove24">
<path fill="none" stroke="#e8b7ff" stroke-width="3" d="M570.121,-93.5524C580.511,-92.5373 587.401,-90.5531 587.401,-87.6 587.401,-85.5236 583.995,-83.9262 578.361,-82.8079"/>
<polygon fill="#e8b7ff" stroke="#e8b7ff" points="578.433,-79.9906 570.121,-81.6476 577.652,-85.5359 578.433,-79.9906"/>
</a>
</g>
<!-- ELK4_ETV5_ELK1_ELK3_ELF4&#45;&gt;ZBTB33_CHD2 -->
<g id="edge30" class="edge"><title>ELK4_ETV5_ELK1_ELK3_ELF4&#45;&gt;ZBTB33_CHD2</title>
<a xlink:title="ZBTB33: 0.089||CHD2: 0.061||ETV5: 0.121||ELF4: 0.120||remove22root">
<path fill="none" stroke="#ebc1ff" stroke-width="3" d="M476.522,-113.373C450.008,-154.828 393.434,-238.71 333.28,-299.335 273.801,-359.235 192.767,-415.976 146.952,-446.189"/>
<path fill="none" stroke="#eabdff" stroke-width="3" d="M474.837,-112.296C448.35,-153.709 391.776,-237.591 331.861,-297.926 272.653,-357.596 191.62,-414.338 145.851,-444.519"/>
<polygon fill="#eabdff" stroke="#eabdff" points="478.194,-114.098 480.122,-105.845 473.467,-111.095 478.194,-114.098"/>
<polygon fill="#ebc1ff" stroke="#ebc1ff" points="144.79,-443.063 139.636,-449.792 147.861,-447.746 144.79,-443.063"/>
</a>
</g>
<!-- ZBTB33_CHD2&#45;&gt;RCOR1_MTA3 -->
<g id="edge102" class="edge"><title>ZBTB33_CHD2&#45;&gt;RCOR1_MTA3</title>
<a xlink:title="MTA3: 0.089||remove17root">
<path fill="none" stroke="#ebc1ff" stroke-width="3" d="M121.604,-449.708C162.153,-379.476 308.569,-125.875 355.947,-43.8142"/>
<polygon fill="#ebc1ff" stroke="#ebc1ff" points="358.641,-44.7485 360.216,-36.4203 353.791,-41.9485 358.641,-44.7485"/>
</a>
</g>
<!-- FOXM1_TBL1XR1&#45;&gt;NR5A2 -->
<g id="edge86" class="edge"><title>FOXM1_TBL1XR1&#45;&gt;NR5A2</title>
<a xlink:title="NR5A2: 0.168||remove27root">
<path fill="none" stroke="#b7bfff" stroke-width="3" d="M512.449,-221.16C461.196,-234.894 381.67,-256.202 336.239,-268.376"/>
<polygon fill="#b7bfff" stroke="#b7bfff" points="335.441,-265.691 328.438,-270.466 336.89,-271.1 335.441,-265.691"/>
</a>
</g>
<!-- FOXM1_TBL1XR1&#45;&gt;GATA1_GATA4 -->
<g id="edge88" class="edge"><title>FOXM1_TBL1XR1&#45;&gt;GATA1_GATA4</title>
<a xlink:title="GATA4: 0.100||GATA1: 0.029||remove19root">
<path fill="none" stroke="#eabfff" stroke-width="3" d="M512.427,-195.135C426.715,-172.169 249.453,-124.672 162.069,-101.257"/>
<polygon fill="#eabfff" stroke="#eabfff" points="162.605,-98.5021 154.153,-99.1361 161.156,-103.911 162.605,-98.5021"/>
</a>
</g>
<!-- FOXM1_TBL1XR1&#45;&gt;TBX15_MGA -->
<g id="edge90" class="edge"><title>FOXM1_TBL1XR1&#45;&gt;TBX15_MGA</title>
<a xlink:title="TBX15: 0.597||remove27">
<path fill="none" stroke="#d784ff" stroke-width="3" d="M561.001,-226.349C561.001,-250.525 561.001,-293.398 561.001,-321.082"/>
<polygon fill="#d784ff" stroke="#d784ff" points="558.202,-321.148 561.001,-329.148 563.802,-321.148 558.202,-321.148"/>
</a>
</g>
<!-- FOXM1_TBL1XR1&#45;&gt;DLX1_HOXA3_BARX2 -->
<g id="edge92" class="edge"><title>FOXM1_TBL1XR1&#45;&gt;DLX1_HOXA3_BARX2</title>
<a xlink:title="DLX1: 0.012||remove1root">
<path fill="none" stroke="#eecaff" stroke-width="3" d="M550.507,-226.327C518.561,-281.66 422.434,-448.157 385.513,-512.105"/>
<polygon fill="#eecaff" stroke="#eecaff" points="382.888,-511.053 381.312,-519.381 387.737,-513.853 382.888,-511.053"/>
</a>
</g>
<!-- FOXM1_TBL1XR1&#45;&gt;STAT1_STAT3_BCL6 -->
<g id="edge96" class="edge"><title>FOXM1_TBL1XR1&#45;&gt;STAT1_STAT3_BCL6</title>
<a xlink:title="STAT1: 0.327||BCL6: 0.214||remove27">
<path fill="none" stroke="#e2a4ff" stroke-width="3" d="M542.825,-226.327C487.042,-282.11 318.28,-450.872 255.508,-513.645"/>
<polygon fill="#e2a4ff" stroke="#e2a4ff" points="253.448,-511.744 249.771,-519.381 257.408,-515.704 253.448,-511.744"/>
</a>
</g>
<!-- FOXM1_TBL1XR1&#45;&gt;ELK4_ETV5_ELK1_ELK3_ELF4 -->
<g id="edge98" class="edge"><title>FOXM1_TBL1XR1&#45;&gt;ELK4_ETV5_ELK1_ELK3_ELF4</title>
<a xlink:title="ELK4: 0.042||ETV5: 0.010||remove5root">
<path fill="none" stroke="#edc6ff" stroke-width="3" d="M550.582,-190.103C538.742,-169.596 519.336,-135.984 505.994,-112.875"/>
<polygon fill="#edc6ff" stroke="#edc6ff" points="508.317,-111.299 501.893,-105.771 503.468,-114.099 508.317,-111.299"/>
</a>
</g>
<!-- FOXM1_TBL1XR1&#45;&gt;ZBTB33_CHD2 -->
<g id="edge94" class="edge"><title>FOXM1_TBL1XR1&#45;&gt;ZBTB33_CHD2</title>
<a xlink:title="CHD2: 0.045||remove9root">
<path fill="none" stroke="#ecc6ff" stroke-width="3" d="M529.722,-226.21C449.576,-272.482 237.029,-395.197 149.546,-445.704"/>
<polygon fill="#ecc6ff" stroke="#ecc6ff" points="147.999,-443.365 142.471,-449.79 150.799,-448.215 147.999,-443.365"/>
</a>
</g>
<!-- FOXM1_TBL1XR1&#45;&gt;EMX2 -->
<g id="edge100" class="edge"><title>FOXM1_TBL1XR1&#45;&gt;EMX2</title>
<a xlink:title="EMX2: 0.218||remove25">
<path fill="none" stroke="#e6b1ff" stroke-width="3" d="M522.655,-226.245C477.953,-246.648 401.402,-279.471 332.571,-298.631 242.193,-323.788 132.197,-337.882 76.8802,-343.869"/>
<polygon fill="#e6b1ff" stroke="#e6b1ff" points="76.4628,-341.097 68.8035,-344.727 77.0546,-346.666 76.4628,-341.097"/>
</a>
</g>
</g>
</svg>
