<?xml version="1.0" encoding="UTF-8" standalone="no"?>
<!DOCTYPE svg PUBLIC "-//W3C//DTD SVG 1.1//EN"
 "http://www.w3.org/Graphics/SVG/1.1/DTD/svg11.dtd">
<!-- Generated by graphviz version 2.28.0 (20110630.0925)
 -->
<!-- Title: _anonymous_0 Pages: 1 -->
<svg width="406pt" height="366pt"
 viewBox="0.00 0.00 406.45 366.45" xmlns="http://www.w3.org/2000/svg" xmlns:xlink="http://www.w3.org/1999/xlink">
<g id="graph1" class="graph" transform="scale(1 1) rotate(0) translate(4 362.449)">
<title>_anonymous_0</title>
<polygon fill="white" stroke="white" points="-4,5 -4,-362.449 403.449,-362.449 403.449,5 -4,5"/>
<!-- FOXM1_TBL1XR1 -->
<g id="node1" class="node"><title>FOXM1_TBL1XR1</title>
<a xlink:href="FOXM1_TBL1XR1.svg" xlink:title="Z&#45;value: 2.140||remove28">
<polygon fill="#3247ff" stroke="#3247ff" stroke-width="2" points="385.949,-240.425 312.949,-240.425 300.949,-228.425 300.949,-216.425 312.949,-204.425 385.949,-204.425 397.949,-216.425 397.949,-228.425 385.949,-240.425"/>
<path fill="#3247ff" stroke="#3247ff" stroke-width="2" d="M312.949,-240.425C306.949,-240.425 300.949,-234.425 300.949,-228.425"/>
<path fill="#3247ff" stroke="#3247ff" stroke-width="2" d="M300.949,-216.425C300.949,-210.425 306.949,-204.425 312.949,-204.425"/>
<path fill="#3247ff" stroke="#3247ff" stroke-width="2" d="M385.949,-204.425C391.949,-204.425 397.949,-210.425 397.949,-216.425"/>
<path fill="#3247ff" stroke="#3247ff" stroke-width="2" d="M397.949,-228.425C397.949,-234.425 391.949,-240.425 385.949,-240.425"/>
<polyline fill="none" stroke="white" stroke-width="2" points="385.949,-240.425 312.949,-240.425 "/>
<path fill="none" stroke="white" stroke-width="2" d="M312.949,-240.425C306.949,-240.425 300.949,-234.425 300.949,-228.425"/>
<polyline fill="none" stroke="white" stroke-width="2" points="300.949,-228.425 300.949,-216.425 "/>
<path fill="none" stroke="white" stroke-width="2" d="M300.949,-216.425C300.949,-210.425 306.949,-204.425 312.949,-204.425"/>
<polyline fill="none" stroke="white" stroke-width="2" points="312.949,-204.425 385.949,-204.425 "/>
<path fill="none" stroke="white" stroke-width="2" d="M385.949,-204.425C391.949,-204.425 397.949,-210.425 397.949,-216.425"/>
<polyline fill="none" stroke="white" stroke-width="2" points="397.949,-216.425 397.949,-228.425 "/>
<path fill="none" stroke="white" stroke-width="2" d="M397.949,-228.425C397.949,-234.425 391.949,-240.425 385.949,-240.425"/>
<text text-anchor="middle" x="349.449" y="-219.925" font-family="Helvetica,sans-Serif" font-size="10.00" fill="white">FOXM1_TBL1XR1</text>
</a>
</g>
<!-- SMAD1 -->
<g id="node2" class="node"><title>SMAD1</title>
<a xlink:href="SMAD1.svg" xlink:title="Z&#45;value: 1.536||remove32">
<polygon fill="#5e6eff" stroke="#5e6eff" stroke-width="2" points="321.249,-315.249 291.249,-315.249 279.249,-303.249 279.249,-291.249 291.249,-279.249 321.249,-279.249 333.249,-291.249 333.249,-303.249 321.249,-315.249"/>
<path fill="#5e6eff" stroke="#5e6eff" stroke-width="2" d="M291.249,-315.249C285.249,-315.249 279.249,-309.249 279.249,-303.249"/>
<path fill="#5e6eff" stroke="#5e6eff" stroke-width="2" d="M279.249,-291.249C279.249,-285.249 285.249,-279.249 291.249,-279.249"/>
<path fill="#5e6eff" stroke="#5e6eff" stroke-width="2" d="M321.249,-279.249C327.249,-279.249 333.249,-285.249 333.249,-291.249"/>
<path fill="#5e6eff" stroke="#5e6eff" stroke-width="2" d="M333.249,-303.249C333.249,-309.249 327.249,-315.249 321.249,-315.249"/>
<polyline fill="none" stroke="white" stroke-width="2" points="321.249,-315.249 291.249,-315.249 "/>
<path fill="none" stroke="white" stroke-width="2" d="M291.249,-315.249C285.249,-315.249 279.249,-309.249 279.249,-303.249"/>
<polyline fill="none" stroke="white" stroke-width="2" points="279.249,-303.249 279.249,-291.249 "/>
<path fill="none" stroke="white" stroke-width="2" d="M279.249,-291.249C279.249,-285.249 285.249,-279.249 291.249,-279.249"/>
<polyline fill="none" stroke="white" stroke-width="2" points="291.249,-279.249 321.249,-279.249 "/>
<path fill="none" stroke="white" stroke-width="2" d="M321.249,-279.249C327.249,-279.249 333.249,-285.249 333.249,-291.249"/>
<polyline fill="none" stroke="white" stroke-width="2" points="333.249,-291.249 333.249,-303.249 "/>
<path fill="none" stroke="white" stroke-width="2" d="M333.249,-303.249C333.249,-309.249 327.249,-315.249 321.249,-315.249"/>
<text text-anchor="middle" x="306.249" y="-294.749" font-family="Helvetica,sans-Serif" font-size="10.00" fill="white">SMAD1</text>
</a>
</g>
<!-- FOXM1_TBL1XR1&#45;&gt;SMAD1 -->
<g id="edge2" class="edge"><title>FOXM1_TBL1XR1&#45;&gt;SMAD1</title>
<a xlink:title="SMAD1: 0.105||remove24root">
<path fill="none" stroke="#eabfff" stroke-width="3" d="M338.992,-240.538C333.566,-249.935 326.85,-261.568 320.914,-271.849"/>
<polygon fill="#eabfff" stroke="#eabfff" points="318.335,-270.715 316.76,-279.044 323.185,-273.516 318.335,-270.715"/>
</a>
</g>
<!-- PAX5 -->
<g id="node4" class="node"><title>PAX5</title>
<a xlink:href="PAX5.svg" xlink:title="Z&#45;value: 1.037||remove33">
<polygon fill="#818eff" stroke="#818eff" stroke-width="2" points="246.425,-358.449 216.425,-358.449 204.425,-346.449 204.425,-334.449 216.425,-322.449 246.425,-322.449 258.425,-334.449 258.425,-346.449 246.425,-358.449"/>
<path fill="#818eff" stroke="#818eff" stroke-width="2" d="M216.425,-358.449C210.425,-358.449 204.425,-352.449 204.425,-346.449"/>
<path fill="#818eff" stroke="#818eff" stroke-width="2" d="M204.425,-334.449C204.425,-328.449 210.425,-322.449 216.425,-322.449"/>
<path fill="#818eff" stroke="#818eff" stroke-width="2" d="M246.425,-322.449C252.425,-322.449 258.425,-328.449 258.425,-334.449"/>
<path fill="#818eff" stroke="#818eff" stroke-width="2" d="M258.425,-346.449C258.425,-352.449 252.425,-358.449 246.425,-358.449"/>
<polyline fill="none" stroke="white" stroke-width="2" points="246.425,-358.449 216.425,-358.449 "/>
<path fill="none" stroke="white" stroke-width="2" d="M216.425,-358.449C210.425,-358.449 204.425,-352.449 204.425,-346.449"/>
<polyline fill="none" stroke="white" stroke-width="2" points="204.425,-346.449 204.425,-334.449 "/>
<path fill="none" stroke="white" stroke-width="2" d="M204.425,-334.449C204.425,-328.449 210.425,-322.449 216.425,-322.449"/>
<polyline fill="none" stroke="white" stroke-width="2" points="216.425,-322.449 246.425,-322.449 "/>
<path fill="none" stroke="white" stroke-width="2" d="M246.425,-322.449C252.425,-322.449 258.425,-328.449 258.425,-334.449"/>
<polyline fill="none" stroke="white" stroke-width="2" points="258.425,-334.449 258.425,-346.449 "/>
<path fill="none" stroke="white" stroke-width="2" d="M258.425,-346.449C258.425,-352.449 252.425,-358.449 246.425,-358.449"/>
<text text-anchor="middle" x="231.425" y="-337.949" font-family="Helvetica,sans-Serif" font-size="10.00">PAX5</text>
</a>
</g>
<!-- FOXM1_TBL1XR1&#45;&gt;PAX5 -->
<g id="edge4" class="edge"><title>FOXM1_TBL1XR1&#45;&gt;PAX5</title>
<a xlink:title="PAX5: 0.171||remove28">
<path fill="none" stroke="#e8b7ff" stroke-width="3" d="M319.637,-240.517C305.197,-250.113 288.164,-262.729 274.929,-276.369 263.658,-287.986 253.367,-302.846 245.627,-315.331"/>
<polygon fill="#e8b7ff" stroke="#e8b7ff" points="243.118,-314.07 241.377,-322.365 247.911,-316.966 243.118,-314.07"/>
</a>
</g>
<!-- PAX8 -->
<g id="node6" class="node"><title>PAX8</title>
<a xlink:href="PAX8.svg" xlink:title="Z&#45;value: 0.427||remove35">
<polygon fill="#ffadad" stroke="#ffadad" stroke-width="2" points="203.225,-197.225 173.225,-197.225 161.225,-185.225 161.225,-173.225 173.225,-161.225 203.225,-161.225 215.225,-173.225 215.225,-185.225 203.225,-197.225"/>
<path fill="#ffadad" stroke="#ffadad" stroke-width="2" d="M173.225,-197.225C167.225,-197.225 161.225,-191.225 161.225,-185.225"/>
<path fill="#ffadad" stroke="#ffadad" stroke-width="2" d="M161.225,-173.225C161.225,-167.225 167.225,-161.225 173.225,-161.225"/>
<path fill="#ffadad" stroke="#ffadad" stroke-width="2" d="M203.225,-161.225C209.225,-161.225 215.225,-167.225 215.225,-173.225"/>
<path fill="#ffadad" stroke="#ffadad" stroke-width="2" d="M215.225,-185.225C215.225,-191.225 209.225,-197.225 203.225,-197.225"/>
<polyline fill="none" stroke="white" stroke-width="2" points="203.225,-197.225 173.225,-197.225 "/>
<path fill="none" stroke="white" stroke-width="2" d="M173.225,-197.225C167.225,-197.225 161.225,-191.225 161.225,-185.225"/>
<polyline fill="none" stroke="white" stroke-width="2" points="161.225,-185.225 161.225,-173.225 "/>
<path fill="none" stroke="white" stroke-width="2" d="M161.225,-173.225C161.225,-167.225 167.225,-161.225 173.225,-161.225"/>
<polyline fill="none" stroke="white" stroke-width="2" points="173.225,-161.225 203.225,-161.225 "/>
<path fill="none" stroke="white" stroke-width="2" d="M203.225,-161.225C209.225,-161.225 215.225,-167.225 215.225,-173.225"/>
<polyline fill="none" stroke="white" stroke-width="2" points="215.225,-173.225 215.225,-185.225 "/>
<path fill="none" stroke="white" stroke-width="2" d="M215.225,-185.225C215.225,-191.225 209.225,-197.225 203.225,-197.225"/>
<text text-anchor="middle" x="188.225" y="-176.725" font-family="Helvetica,sans-Serif" font-size="10.00">PAX8</text>
</a>
</g>
<!-- FOXM1_TBL1XR1&#45;&gt;PAX8 -->
<g id="edge6" class="edge"><title>FOXM1_TBL1XR1&#45;&gt;PAX8</title>
<a xlink:title="PAX8: 0.135||remove28root">
<path fill="none" stroke="#bbc2ff" stroke-width="3" d="M300.639,-209.346C275.711,-202.666 245.95,-194.692 223.314,-188.627"/>
<polygon fill="#bbc2ff" stroke="#bbc2ff" points="223.771,-185.851 215.319,-186.485 222.322,-191.26 223.771,-185.851"/>
</a>
</g>
<!-- PLAGL1 -->
<g id="node8" class="node"><title>PLAGL1</title>
<a xlink:href="PLAGL1.svg" xlink:title="Z&#45;value: 1.203||remove30">
<polygon fill="#7683ff" stroke="#7683ff" stroke-width="2" points="160.025,-358.449 130.025,-358.449 118.025,-346.449 118.025,-334.449 130.025,-322.449 160.025,-322.449 172.025,-334.449 172.025,-346.449 160.025,-358.449"/>
<path fill="#7683ff" stroke="#7683ff" stroke-width="2" d="M130.025,-358.449C124.025,-358.449 118.025,-352.449 118.025,-346.449"/>
<path fill="#7683ff" stroke="#7683ff" stroke-width="2" d="M118.025,-334.449C118.025,-328.449 124.025,-322.449 130.025,-322.449"/>
<path fill="#7683ff" stroke="#7683ff" stroke-width="2" d="M160.025,-322.449C166.025,-322.449 172.025,-328.449 172.025,-334.449"/>
<path fill="#7683ff" stroke="#7683ff" stroke-width="2" d="M172.025,-346.449C172.025,-352.449 166.025,-358.449 160.025,-358.449"/>
<polyline fill="none" stroke="white" stroke-width="2" points="160.025,-358.449 130.025,-358.449 "/>
<path fill="none" stroke="white" stroke-width="2" d="M130.025,-358.449C124.025,-358.449 118.025,-352.449 118.025,-346.449"/>
<polyline fill="none" stroke="white" stroke-width="2" points="118.025,-346.449 118.025,-334.449 "/>
<path fill="none" stroke="white" stroke-width="2" d="M118.025,-334.449C118.025,-328.449 124.025,-322.449 130.025,-322.449"/>
<polyline fill="none" stroke="white" stroke-width="2" points="130.025,-322.449 160.025,-322.449 "/>
<path fill="none" stroke="white" stroke-width="2" d="M160.025,-322.449C166.025,-322.449 172.025,-328.449 172.025,-334.449"/>
<polyline fill="none" stroke="white" stroke-width="2" points="172.025,-334.449 172.025,-346.449 "/>
<path fill="none" stroke="white" stroke-width="2" d="M172.025,-346.449C172.025,-352.449 166.025,-358.449 160.025,-358.449"/>
<text text-anchor="middle" x="145.025" y="-337.949" font-family="Helvetica,sans-Serif" font-size="10.00">PLAGL1</text>
</a>
</g>
<!-- FOXM1_TBL1XR1&#45;&gt;PLAGL1 -->
<g id="edge8" class="edge"><title>FOXM1_TBL1XR1&#45;&gt;PLAGL1</title>
<a xlink:title="PLAGL1: 0.046||TBL1XR1: 0.005||remove15root">
<path fill="none" stroke="#ecc6ff" stroke-width="3" d="M311.42,-245.535C273.503,-267.427 216.149,-300.54 179.781,-321.537"/>
<path fill="none" stroke="#eecbff" stroke-width="3" d="M310.42,-243.803C272.503,-265.695 215.149,-298.808 178.781,-319.805"/>
<polygon fill="#eecbff" stroke="#eecbff" points="312.428,-247.032 317.956,-240.607 309.628,-242.182 312.428,-247.032"/>
<polygon fill="#ecc6ff" stroke="#ecc6ff" points="177.828,-318.277 172.299,-324.702 180.628,-323.127 177.828,-318.277"/>
</a>
</g>
<!-- SMAD1&#45;&gt;PAX5 -->
<g id="edge24" class="edge"><title>SMAD1&#45;&gt;PAX5</title>
<a xlink:title="PAX5: 0.123||remove27root">
<path fill="none" stroke="#e9bdff" stroke-width="3" d="M279.236,-312.845C274.84,-315.383 270.237,-318.041 265.696,-320.663"/>
<polygon fill="#e9bdff" stroke="#e9bdff" points="264.178,-318.306 258.65,-324.731 266.978,-323.156 264.178,-318.306"/>
</a>
</g>
<!-- SMAD1&#45;&gt;PAX8 -->
<g id="edge26" class="edge"><title>SMAD1&#45;&gt;PAX8</title>
<a xlink:title="PAX8: 0.252||remove32root">
<path fill="none" stroke="#adb5ff" stroke-width="3" d="M288.067,-279.067C267.648,-258.648 234.437,-225.437 211.98,-202.98"/>
<polygon fill="#adb5ff" stroke="#adb5ff" points="213.871,-200.911 206.234,-197.234 209.911,-204.871 213.871,-200.911"/>
</a>
</g>
<!-- RCOR1_MTA3 -->
<g id="node13" class="node"><title>RCOR1_MTA3</title>
<a xlink:href="RCOR1_MTA3.svg" xlink:title="Z&#45;value: 1.731||remove26">
<polygon fill="#5061ff" stroke="#5061ff" stroke-width="2" points="99.45,-315.249 40.95,-315.249 28.95,-303.249 28.95,-291.249 40.95,-279.249 99.45,-279.249 111.45,-291.249 111.45,-303.249 99.45,-315.249"/>
<path fill="#5061ff" stroke="#5061ff" stroke-width="2" d="M40.95,-315.249C34.95,-315.249 28.95,-309.249 28.95,-303.249"/>
<path fill="#5061ff" stroke="#5061ff" stroke-width="2" d="M28.95,-291.249C28.95,-285.249 34.95,-279.249 40.95,-279.249"/>
<path fill="#5061ff" stroke="#5061ff" stroke-width="2" d="M99.45,-279.249C105.45,-279.249 111.45,-285.249 111.45,-291.249"/>
<path fill="#5061ff" stroke="#5061ff" stroke-width="2" d="M111.45,-303.249C111.45,-309.249 105.45,-315.249 99.45,-315.249"/>
<polyline fill="none" stroke="white" stroke-width="2" points="99.45,-315.249 40.95,-315.249 "/>
<path fill="none" stroke="white" stroke-width="2" d="M40.95,-315.249C34.95,-315.249 28.95,-309.249 28.95,-303.249"/>
<polyline fill="none" stroke="white" stroke-width="2" points="28.95,-303.249 28.95,-291.249 "/>
<path fill="none" stroke="white" stroke-width="2" d="M28.95,-291.249C28.95,-285.249 34.95,-279.249 40.95,-279.249"/>
<polyline fill="none" stroke="white" stroke-width="2" points="40.95,-279.249 99.45,-279.249 "/>
<path fill="none" stroke="white" stroke-width="2" d="M99.45,-279.249C105.45,-279.249 111.45,-285.249 111.45,-291.249"/>
<polyline fill="none" stroke="white" stroke-width="2" points="111.45,-291.249 111.45,-303.249 "/>
<path fill="none" stroke="white" stroke-width="2" d="M111.45,-303.249C111.45,-309.249 105.45,-315.249 99.45,-315.249"/>
<text text-anchor="middle" x="70.2" y="-294.749" font-family="Helvetica,sans-Serif" font-size="10.00" fill="white">RCOR1_MTA3</text>
</a>
</g>
<!-- SMAD1&#45;&gt;RCOR1_MTA3 -->
<g id="edge28" class="edge"><title>SMAD1&#45;&gt;RCOR1_MTA3</title>
<a xlink:title="RCOR1: 0.139||SMAD1: 0.020||remove26">
<path fill="none" stroke="#e9bbff" stroke-width="3" d="M271.079,-298.249C231.099,-298.249 165.525,-298.249 120.23,-298.249"/>
<path fill="none" stroke="#edc9ff" stroke-width="3" d="M271.079,-296.249C231.099,-296.249 165.525,-296.249 120.23,-296.249"/>
<polygon fill="#edc9ff" stroke="#edc9ff" points="271.171,-300.049 279.171,-297.249 271.171,-294.449 271.171,-300.049"/>
<polygon fill="#e9bbff" stroke="#e9bbff" points="120.019,-294.449 112.019,-297.249 120.019,-300.049 120.019,-294.449"/>
</a>
</g>
<!-- TAL1 -->
<g id="node23" class="node"><title>TAL1</title>
<a xlink:href="TAL1.svg" xlink:title="Z&#45;value: 0.928||remove20">
<polygon fill="#8995ff" stroke="#8995ff" stroke-width="2" points="85.2,-79.2 55.2,-79.2 43.2,-67.2 43.2,-55.2 55.2,-43.2 85.2,-43.2 97.2,-55.2 97.2,-67.2 85.2,-79.2"/>
<path fill="#8995ff" stroke="#8995ff" stroke-width="2" d="M55.2,-79.2C49.2,-79.2 43.2,-73.2 43.2,-67.2"/>
<path fill="#8995ff" stroke="#8995ff" stroke-width="2" d="M43.2,-55.2C43.2,-49.2 49.2,-43.2 55.2,-43.2"/>
<path fill="#8995ff" stroke="#8995ff" stroke-width="2" d="M85.2,-43.2C91.2,-43.2 97.2,-49.2 97.2,-55.2"/>
<path fill="#8995ff" stroke="#8995ff" stroke-width="2" d="M97.2,-67.2C97.2,-73.2 91.2,-79.2 85.2,-79.2"/>
<polyline fill="none" stroke="white" stroke-width="2" points="85.2,-79.2 55.2,-79.2 "/>
<path fill="none" stroke="white" stroke-width="2" d="M55.2,-79.2C49.2,-79.2 43.2,-73.2 43.2,-67.2"/>
<polyline fill="none" stroke="white" stroke-width="2" points="43.2,-67.2 43.2,-55.2 "/>
<path fill="none" stroke="white" stroke-width="2" d="M43.2,-55.2C43.2,-49.2 49.2,-43.2 55.2,-43.2"/>
<polyline fill="none" stroke="white" stroke-width="2" points="55.2,-43.2 85.2,-43.2 "/>
<path fill="none" stroke="white" stroke-width="2" d="M85.2,-43.2C91.2,-43.2 97.2,-49.2 97.2,-55.2"/>
<polyline fill="none" stroke="white" stroke-width="2" points="97.2,-55.2 97.2,-67.2 "/>
<path fill="none" stroke="white" stroke-width="2" d="M97.2,-67.2C97.2,-73.2 91.2,-79.2 85.2,-79.2"/>
<text text-anchor="middle" x="70.2" y="-58.7" font-family="Helvetica,sans-Serif" font-size="10.00">TAL1</text>
</a>
</g>
<!-- SMAD1&#45;&gt;TAL1 -->
<g id="edge30" class="edge"><title>SMAD1&#45;&gt;TAL1</title>
<a xlink:title="TAL1: 0.122||remove20">
<path fill="none" stroke="#eabdff" stroke-width="3" d="M279.198,-284.287C247.193,-267.977 193.628,-237.521 156.905,-200.105 123.453,-166.022 96.5684,-116.857 82.0364,-87.0798"/>
<polygon fill="#eabdff" stroke="#eabdff" points="84.426,-85.5874 78.4407,-79.5861 79.3771,-88.01 84.426,-85.5874"/>
</a>
</g>
<!-- PAX5&#45;&gt;PAX8 -->
<g id="edge34" class="edge"><title>PAX5&#45;&gt;PAX8</title>
<a xlink:title="PAX8: 0.267||remove33root">
<path fill="none" stroke="#abb4ff" stroke-width="3" d="M226.553,-322.268C218.904,-293.723 204.045,-238.267 195.244,-205.42"/>
<polygon fill="#abb4ff" stroke="#abb4ff" points="197.92,-204.589 193.145,-197.587 192.511,-206.039 197.92,-204.589"/>
</a>
</g>
<!-- PAX5&#45;&gt;RCOR1_MTA3 -->
<g id="edge36" class="edge"><title>PAX5&#45;&gt;RCOR1_MTA3</title>
<a xlink:title="MTA3: 0.033||PAX5: 0.228||remove26">
<path fill="none" stroke="#edc8ff" stroke-width="3" d="M196.264,-327.259C189.621,-324.828 182.653,-322.457 176.064,-320.529 157.866,-315.199 137.488,-310.597 119.53,-306.988"/>
<path fill="none" stroke="#e5b0ff" stroke-width="3" d="M196.951,-325.381C190.265,-322.935 183.298,-320.564 176.626,-318.609 158.307,-313.249 137.929,-308.646 119.924,-305.028"/>
<polygon fill="#e5b0ff" stroke="#e5b0ff" points="195.779,-329 204.253,-329.192 197.749,-323.758 195.779,-329"/>
<polygon fill="#edc8ff" stroke="#edc8ff" points="120.04,-303.216 111.65,-304.418 118.958,-308.711 120.04,-303.216"/>
</a>
</g>
<!-- HIC1 -->
<g id="node25" class="node"><title>HIC1</title>
<a xlink:href="HIC1.svg" xlink:title="Z&#45;value: 0.670||remove23">
<polygon fill="#9ca5ff" stroke="#9ca5ff" stroke-width="2" points="160.025,-36 130.025,-36 118.025,-24 118.025,-12 130.025,-6.39488e-14 160.025,-6.39488e-14 172.025,-12 172.025,-24 160.025,-36"/>
<path fill="#9ca5ff" stroke="#9ca5ff" stroke-width="2" d="M130.025,-36C124.025,-36 118.025,-30 118.025,-24"/>
<path fill="#9ca5ff" stroke="#9ca5ff" stroke-width="2" d="M118.025,-12C118.025,-6 124.025,-6.39488e-14 130.025,-6.39488e-14"/>
<path fill="#9ca5ff" stroke="#9ca5ff" stroke-width="2" d="M160.025,-6.39488e-14C166.025,-6.39488e-14 172.025,-6 172.025,-12"/>
<path fill="#9ca5ff" stroke="#9ca5ff" stroke-width="2" d="M172.025,-24C172.025,-30 166.025,-36 160.025,-36"/>
<polyline fill="none" stroke="white" stroke-width="2" points="160.025,-36 130.025,-36 "/>
<path fill="none" stroke="white" stroke-width="2" d="M130.025,-36C124.025,-36 118.025,-30 118.025,-24"/>
<polyline fill="none" stroke="white" stroke-width="2" points="118.025,-24 118.025,-12 "/>
<path fill="none" stroke="white" stroke-width="2" d="M118.025,-12C118.025,-6 124.025,-6.39488e-14 130.025,-6.39488e-14"/>
<polyline fill="none" stroke="white" stroke-width="2" points="130.025,-6.39488e-14 160.025,-6.39488e-14 "/>
<path fill="none" stroke="white" stroke-width="2" d="M160.025,-6.39488e-14C166.025,-6.39488e-14 172.025,-6 172.025,-12"/>
<polyline fill="none" stroke="white" stroke-width="2" points="172.025,-12 172.025,-24 "/>
<path fill="none" stroke="white" stroke-width="2" d="M172.025,-24C172.025,-30 166.025,-36 160.025,-36"/>
<text text-anchor="middle" x="145.025" y="-15.5" font-family="Helvetica,sans-Serif" font-size="10.00">HIC1</text>
</a>
</g>
<!-- PAX5&#45;&gt;HIC1 -->
<g id="edge32" class="edge"><title>PAX5&#45;&gt;HIC1</title>
<a xlink:title="HIC1: 0.042||remove14root">
<path fill="none" stroke="#edc6ff" stroke-width="3" d="M218.325,-322.023C200.759,-296.186 170.241,-247.077 156.905,-200.105 141.644,-146.353 141.771,-80.235 143.328,-44.2997"/>
<polygon fill="#edc6ff" stroke="#edc6ff" points="146.127,-44.3886 143.722,-36.2609 140.533,-44.1139 146.127,-44.3886"/>
</a>
</g>
<!-- PLAGL1&#45;&gt;SMAD1 -->
<g id="edge10" class="edge"><title>PLAGL1&#45;&gt;SMAD1</title>
<a xlink:title="SMAD1: 0.038||remove12root">
<path fill="none" stroke="#edc7ff" stroke-width="3" d="M172.196,-329.192C181.002,-325.803 190.879,-322.27 200.105,-319.569 223.398,-312.75 250.143,-307.139 270.959,-303.249"/>
<polygon fill="#edc7ff" stroke="#edc7ff" points="271.548,-305.988 278.913,-301.792 270.539,-300.479 271.548,-305.988"/>
</a>
</g>
<!-- PLAGL1&#45;&gt;PAX5 -->
<g id="edge12" class="edge"><title>PLAGL1&#45;&gt;PAX5</title>
<a xlink:title="PAX5: 0.088||remove19root">
<path fill="none" stroke="#ebc1ff" stroke-width="3" d="M172.362,-340.449C179.921,-340.449 188.232,-340.449 196.172,-340.449"/>
<polygon fill="#ebc1ff" stroke="#ebc1ff" points="196.265,-343.249 204.265,-340.449 196.265,-337.649 196.265,-343.249"/>
</a>
</g>
<!-- PLAGL1&#45;&gt;PAX8 -->
<g id="edge14" class="edge"><title>PLAGL1&#45;&gt;PAX8</title>
<a xlink:title="PAX8: 0.158||remove30root">
<path fill="none" stroke="#b9c0ff" stroke-width="3" d="M149.896,-322.268C157.545,-293.723 172.404,-238.267 181.206,-205.42"/>
<polygon fill="#b9c0ff" stroke="#b9c0ff" points="183.938,-206.039 183.305,-197.587 178.529,-204.589 183.938,-206.039"/>
</a>
</g>
<!-- PLAGL1&#45;&gt;PLAGL1 -->
<g id="edge22" class="edge"><title>PLAGL1&#45;&gt;PLAGL1</title>
<a xlink:title="PLAGL1: 0.151||remove29root">
<path fill="none" stroke="#e8b9ff" stroke-width="3" d="M172.265,-347.193C182.049,-347.338 190.025,-345.09 190.025,-340.449 190.025,-337.186 186.081,-335.106 180.339,-334.209"/>
<polygon fill="#e8b9ff" stroke="#e8b9ff" points="180.424,-331.409 172.265,-333.706 180.076,-336.998 180.424,-331.409"/>
</a>
</g>
<!-- PLAGL1&#45;&gt;RCOR1_MTA3 -->
<g id="edge16" class="edge"><title>PLAGL1&#45;&gt;RCOR1_MTA3</title>
<a xlink:title="RCOR1: 0.068||PLAGL1: 0.282||remove26">
<path fill="none" stroke="#ecc3ff" stroke-width="3" d="M110.342,-321.58C109.564,-321.131 108.784,-320.68 108.003,-320.229"/>
<path fill="none" stroke="#e3aaff" stroke-width="3" d="M111.342,-319.848C110.564,-319.399 109.784,-318.948 109.003,-318.497"/>
<polygon fill="#e3aaff" stroke="#e3aaff" points="109.683,-323.278 118.011,-324.853 112.483,-318.428 109.683,-323.278"/>
<polygon fill="#ecc3ff" stroke="#ecc3ff" points="109.827,-316.895 101.499,-315.32 107.027,-321.745 109.827,-316.895"/>
</a>
</g>
<!-- SIX4 -->
<g id="node15" class="node"><title>SIX4</title>
<a xlink:href="SIX4.svg" xlink:title="Z&#45;value: 0.285||remove21">
<polygon fill="#b7beff" stroke="#b7beff" stroke-width="2" points="42,-240.425 12,-240.425 3.19744e-14,-228.425 3.19744e-14,-216.425 12,-204.425 42,-204.425 54,-216.425 54,-228.425 42,-240.425"/>
<path fill="#b7beff" stroke="#b7beff" stroke-width="2" d="M12,-240.425C6,-240.425 3.19744e-14,-234.425 3.19744e-14,-228.425"/>
<path fill="#b7beff" stroke="#b7beff" stroke-width="2" d="M3.19744e-14,-216.425C3.19744e-14,-210.425 6,-204.425 12,-204.425"/>
<path fill="#b7beff" stroke="#b7beff" stroke-width="2" d="M42,-204.425C48,-204.425 54,-210.425 54,-216.425"/>
<path fill="#b7beff" stroke="#b7beff" stroke-width="2" d="M54,-228.425C54,-234.425 48,-240.425 42,-240.425"/>
<polyline fill="none" stroke="white" stroke-width="2" points="42,-240.425 12,-240.425 "/>
<path fill="none" stroke="white" stroke-width="2" d="M12,-240.425C6,-240.425 3.19744e-14,-234.425 3.19744e-14,-228.425"/>
<polyline fill="none" stroke="white" stroke-width="2" points="3.19744e-14,-228.425 3.19744e-14,-216.425 "/>
<path fill="none" stroke="white" stroke-width="2" d="M3.19744e-14,-216.425C3.19744e-14,-210.425 6,-204.425 12,-204.425"/>
<polyline fill="none" stroke="white" stroke-width="2" points="12,-204.425 42,-204.425 "/>
<path fill="none" stroke="white" stroke-width="2" d="M42,-204.425C48,-204.425 54,-210.425 54,-216.425"/>
<polyline fill="none" stroke="white" stroke-width="2" points="54,-216.425 54,-228.425 "/>
<path fill="none" stroke="white" stroke-width="2" d="M54,-228.425C54,-234.425 48,-240.425 42,-240.425"/>
<text text-anchor="middle" x="27" y="-219.925" font-family="Helvetica,sans-Serif" font-size="10.00">SIX4</text>
</a>
</g>
<!-- PLAGL1&#45;&gt;SIX4 -->
<g id="edge18" class="edge"><title>PLAGL1&#45;&gt;SIX4</title>
<a xlink:title="SIX4: 0.040||remove13root">
<path fill="none" stroke="#edc7ff" stroke-width="3" d="M140.793,-322.19C136.847,-308.36 129.809,-289.553 118.34,-276.369 102.974,-258.705 80.3447,-245.282 61.4554,-236.244"/>
<polygon fill="#edc7ff" stroke="#edc7ff" points="62.5938,-233.686 54.1565,-232.877 60.2478,-238.77 62.5938,-233.686"/>
</a>
</g>
<!-- HIVEP1 -->
<g id="node17" class="node"><title>HIVEP1</title>
<a xlink:href="HIVEP1.svg" xlink:title="Z&#45;value: 0.599||remove22">
<polygon fill="#a1aaff" stroke="#a1aaff" stroke-width="2" points="42,-154.025 12,-154.025 0,-142.025 0,-130.025 12,-118.025 42,-118.025 54,-130.025 54,-142.025 42,-154.025"/>
<path fill="#a1aaff" stroke="#a1aaff" stroke-width="2" d="M12,-154.025C6,-154.025 0,-148.025 0,-142.025"/>
<path fill="#a1aaff" stroke="#a1aaff" stroke-width="2" d="M0,-130.025C0,-124.025 6,-118.025 12,-118.025"/>
<path fill="#a1aaff" stroke="#a1aaff" stroke-width="2" d="M42,-118.025C48,-118.025 54,-124.025 54,-130.025"/>
<path fill="#a1aaff" stroke="#a1aaff" stroke-width="2" d="M54,-142.025C54,-148.025 48,-154.025 42,-154.025"/>
<polyline fill="none" stroke="white" stroke-width="2" points="42,-154.025 12,-154.025 "/>
<path fill="none" stroke="white" stroke-width="2" d="M12,-154.025C6,-154.025 0,-148.025 0,-142.025"/>
<polyline fill="none" stroke="white" stroke-width="2" points="0,-142.025 0,-130.025 "/>
<path fill="none" stroke="white" stroke-width="2" d="M0,-130.025C0,-124.025 6,-118.025 12,-118.025"/>
<polyline fill="none" stroke="white" stroke-width="2" points="12,-118.025 42,-118.025 "/>
<path fill="none" stroke="white" stroke-width="2" d="M42,-118.025C48,-118.025 54,-124.025 54,-130.025"/>
<polyline fill="none" stroke="white" stroke-width="2" points="54,-130.025 54,-142.025 "/>
<path fill="none" stroke="white" stroke-width="2" d="M54,-142.025C54,-148.025 48,-154.025 42,-154.025"/>
<text text-anchor="middle" x="27" y="-133.525" font-family="Helvetica,sans-Serif" font-size="10.00">HIVEP1</text>
</a>
</g>
<!-- PLAGL1&#45;&gt;HIVEP1 -->
<g id="edge20" class="edge"><title>PLAGL1&#45;&gt;HIVEP1</title>
<a xlink:title="HIVEP1: 0.085||remove18root">
<path fill="none" stroke="#ebc1ff" stroke-width="3" d="M138.511,-322.37C133.563,-309.309 126.273,-291.395 118.34,-276.369 96.0674,-234.184 64.8191,-188.416 45.2528,-160.991"/>
<polygon fill="#ebc1ff" stroke="#ebc1ff" points="47.4817,-159.294 40.5426,-154.427 42.9319,-162.559 47.4817,-159.294"/>
</a>
</g>
<!-- RCOR1_MTA3&#45;&gt;FOXM1_TBL1XR1 -->
<g id="edge46" class="edge"><title>RCOR1_MTA3&#45;&gt;FOXM1_TBL1XR1</title>
<a xlink:title="FOXM1: 0.174||TBL1XR1: 0.055||remove26">
<path fill="none" stroke="#e8b7ff" stroke-width="3" d="M111.705,-286.128C159.782,-273.246 239.245,-251.954 292.933,-237.568"/>
<polygon fill="#e8b7ff" stroke="#e8b7ff" points="293.658,-240.273 300.661,-235.497 292.208,-234.864 293.658,-240.273"/>
</a>
</g>
<!-- RCOR1_MTA3&#45;&gt;PAX8 -->
<g id="edge52" class="edge"><title>RCOR1_MTA3&#45;&gt;PAX8</title>
<a xlink:title="PAX8: 0.122||remove26root">
<path fill="none" stroke="#bdc3ff" stroke-width="3" d="M88.3827,-279.067C108.802,-258.648 142.013,-225.437 164.469,-202.98"/>
<polygon fill="#bdc3ff" stroke="#bdc3ff" points="166.538,-204.871 170.215,-197.234 162.578,-200.911 166.538,-204.871"/>
</a>
</g>
<!-- RCOR1_MTA3&#45;&gt;RCOR1_MTA3 -->
<g id="edge56" class="edge"><title>RCOR1_MTA3&#45;&gt;RCOR1_MTA3</title>
<a xlink:title="RCOR1: 1.276||remove26">
<path fill="none" stroke="#bd32ff" stroke-width="3" d="M111.555,-303.894C121.671,-303.402 129.2,-301.187 129.2,-297.249 129.2,-294.481 125.478,-292.564 119.751,-291.499"/>
<polygon fill="#bd32ff" stroke="#bd32ff" points="119.811,-288.689 111.555,-290.605 119.204,-294.256 119.811,-288.689"/>
</a>
</g>
<!-- RCOR1_MTA3&#45;&gt;SIX4 -->
<g id="edge58" class="edge"><title>RCOR1_MTA3&#45;&gt;SIX4</title>
<a xlink:title="SIX4: 0.220||remove21">
<path fill="none" stroke="#e6b1ff" stroke-width="3" d="M59.7425,-279.136C54.3171,-269.739 47.6003,-258.105 41.665,-247.825"/>
<polygon fill="#e6b1ff" stroke="#e6b1ff" points="43.9359,-246.158 37.5109,-240.63 39.0861,-248.958 43.9359,-246.158"/>
</a>
</g>
<!-- RCOR1_MTA3&#45;&gt;HIC1 -->
<g id="edge48" class="edge"><title>RCOR1_MTA3&#45;&gt;HIC1</title>
<a xlink:title="HIC1: 0.403||remove23">
<path fill="none" stroke="#df9bff" stroke-width="3" d="M75.1095,-278.927C88.0361,-230.684 123.047,-100.023 138.048,-44.0371"/>
<polygon fill="#df9bff" stroke="#df9bff" points="140.828,-44.4789 140.194,-36.0268 135.419,-43.0294 140.828,-44.4789"/>
</a>
</g>
<!-- EZH2 -->
<g id="node36" class="node"><title>EZH2</title>
<a xlink:href="EZH2.svg" xlink:title="Z&#45;value: 0.639||remove25">
<polygon fill="#9ea7ff" stroke="#9ea7ff" stroke-width="2" points="321.249,-79.2 291.249,-79.2 279.249,-67.2 279.249,-55.2 291.249,-43.2 321.249,-43.2 333.249,-55.2 333.249,-67.2 321.249,-79.2"/>
<path fill="#9ea7ff" stroke="#9ea7ff" stroke-width="2" d="M291.249,-79.2C285.249,-79.2 279.249,-73.2 279.249,-67.2"/>
<path fill="#9ea7ff" stroke="#9ea7ff" stroke-width="2" d="M279.249,-55.2C279.249,-49.2 285.249,-43.2 291.249,-43.2"/>
<path fill="#9ea7ff" stroke="#9ea7ff" stroke-width="2" d="M321.249,-43.2C327.249,-43.2 333.249,-49.2 333.249,-55.2"/>
<path fill="#9ea7ff" stroke="#9ea7ff" stroke-width="2" d="M333.249,-67.2C333.249,-73.2 327.249,-79.2 321.249,-79.2"/>
<polyline fill="none" stroke="white" stroke-width="2" points="321.249,-79.2 291.249,-79.2 "/>
<path fill="none" stroke="white" stroke-width="2" d="M291.249,-79.2C285.249,-79.2 279.249,-73.2 279.249,-67.2"/>
<polyline fill="none" stroke="white" stroke-width="2" points="279.249,-67.2 279.249,-55.2 "/>
<path fill="none" stroke="white" stroke-width="2" d="M279.249,-55.2C279.249,-49.2 285.249,-43.2 291.249,-43.2"/>
<polyline fill="none" stroke="white" stroke-width="2" points="291.249,-43.2 321.249,-43.2 "/>
<path fill="none" stroke="white" stroke-width="2" d="M321.249,-43.2C327.249,-43.2 333.249,-49.2 333.249,-55.2"/>
<polyline fill="none" stroke="white" stroke-width="2" points="333.249,-55.2 333.249,-67.2 "/>
<path fill="none" stroke="white" stroke-width="2" d="M333.249,-67.2C333.249,-73.2 327.249,-79.2 321.249,-79.2"/>
<text text-anchor="middle" x="306.249" y="-58.7" font-family="Helvetica,sans-Serif" font-size="10.00">EZH2</text>
</a>
</g>
<!-- RCOR1_MTA3&#45;&gt;EZH2 -->
<g id="edge50" class="edge"><title>RCOR1_MTA3&#45;&gt;EZH2</title>
<a xlink:title="EZH2: 0.203||remove25">
<path fill="none" stroke="#e6b3ff" stroke-width="3" d="M107.175,-279.128C139.525,-261.981 186.396,-233.879 219.545,-200.105 252.996,-166.022 279.881,-116.857 294.413,-87.0798"/>
<polygon fill="#e6b3ff" stroke="#e6b3ff" points="297.072,-88.01 298.009,-79.5861 292.023,-85.5874 297.072,-88.01"/>
</a>
</g>
<!-- WRNIP1 -->
<g id="node39" class="node"><title>WRNIP1</title>
<a xlink:href="WRNIP1.svg" xlink:title="Z&#45;value: 1.103||remove17">
<polygon fill="#7d8aff" stroke="#7d8aff" stroke-width="2" points="364.949,-154.025 333.949,-154.025 321.949,-142.025 321.949,-130.025 333.949,-118.025 364.949,-118.025 376.949,-130.025 376.949,-142.025 364.949,-154.025"/>
<path fill="#7d8aff" stroke="#7d8aff" stroke-width="2" d="M333.949,-154.025C327.949,-154.025 321.949,-148.025 321.949,-142.025"/>
<path fill="#7d8aff" stroke="#7d8aff" stroke-width="2" d="M321.949,-130.025C321.949,-124.025 327.949,-118.025 333.949,-118.025"/>
<path fill="#7d8aff" stroke="#7d8aff" stroke-width="2" d="M364.949,-118.025C370.949,-118.025 376.949,-124.025 376.949,-130.025"/>
<path fill="#7d8aff" stroke="#7d8aff" stroke-width="2" d="M376.949,-142.025C376.949,-148.025 370.949,-154.025 364.949,-154.025"/>
<polyline fill="none" stroke="white" stroke-width="2" points="364.949,-154.025 333.949,-154.025 "/>
<path fill="none" stroke="white" stroke-width="2" d="M333.949,-154.025C327.949,-154.025 321.949,-148.025 321.949,-142.025"/>
<polyline fill="none" stroke="white" stroke-width="2" points="321.949,-142.025 321.949,-130.025 "/>
<path fill="none" stroke="white" stroke-width="2" d="M321.949,-130.025C321.949,-124.025 327.949,-118.025 333.949,-118.025"/>
<polyline fill="none" stroke="white" stroke-width="2" points="333.949,-118.025 364.949,-118.025 "/>
<path fill="none" stroke="white" stroke-width="2" d="M364.949,-118.025C370.949,-118.025 376.949,-124.025 376.949,-130.025"/>
<polyline fill="none" stroke="white" stroke-width="2" points="376.949,-130.025 376.949,-142.025 "/>
<path fill="none" stroke="white" stroke-width="2" d="M376.949,-142.025C376.949,-148.025 370.949,-154.025 364.949,-154.025"/>
<text text-anchor="middle" x="349.449" y="-133.525" font-family="Helvetica,sans-Serif" font-size="10.00">WRNIP1</text>
</a>
</g>
<!-- RCOR1_MTA3&#45;&gt;WRNIP1 -->
<g id="edge54" class="edge"><title>RCOR1_MTA3&#45;&gt;WRNIP1</title>
<a xlink:title="WRNIP1: 0.243||MTA3: 0.177||remove17">
<path fill="none" stroke="#e5aeff" stroke-width="3" d="M107.947,-274.301C162.297,-242.922 261.107,-185.874 313.741,-155.486"/>
<path fill="none" stroke="#e7b6ff" stroke-width="3" d="M108.947,-276.034C163.297,-244.655 262.107,-187.606 314.741,-157.218"/>
<polygon fill="#e7b6ff" stroke="#e7b6ff" points="106.949,-272.799 101.421,-279.224 109.749,-277.649 106.949,-272.799"/>
<polygon fill="#e5aeff" stroke="#e5aeff" points="315.824,-158.671 321.352,-152.246 313.024,-153.822 315.824,-158.671"/>
</a>
</g>
<!-- SIX4&#45;&gt;PAX8 -->
<g id="edge88" class="edge"><title>SIX4&#45;&gt;PAX8</title>
<a xlink:title="PAX8: 0.101||remove21root">
<path fill="none" stroke="#bfc6ff" stroke-width="3" d="M54.3496,-215.096C81.5311,-207.813 123.336,-196.611 152.991,-188.665"/>
<polygon fill="#bfc6ff" stroke="#bfc6ff" points="154.008,-191.292 161.01,-186.517 152.558,-185.883 154.008,-191.292"/>
</a>
</g>
<!-- HIVEP1&#45;&gt;PAX8 -->
<g id="edge60" class="edge"><title>HIVEP1&#45;&gt;PAX8</title>
<a xlink:title="PAX8: 0.103||remove22root">
<path fill="none" stroke="#bfc6ff" stroke-width="3" d="M54.3496,-143.353C81.5311,-150.636 123.336,-161.838 152.991,-169.784"/>
<polygon fill="#bfc6ff" stroke="#bfc6ff" points="152.558,-172.567 161.01,-171.933 154.008,-167.157 152.558,-172.567"/>
</a>
</g>
<!-- TAL1&#45;&gt;FOXM1_TBL1XR1 -->
<g id="edge90" class="edge"><title>TAL1&#45;&gt;FOXM1_TBL1XR1</title>
<a xlink:title="TBL1XR1: 0.031||remove11root">
<path fill="none" stroke="#edc8ff" stroke-width="3" d="M97.2293,-76.8054C147.109,-105.603 253.756,-167.176 311.094,-200.28"/>
<polygon fill="#edc8ff" stroke="#edc8ff" points="309.843,-202.791 318.172,-204.367 312.644,-197.942 309.843,-202.791"/>
</a>
</g>
<!-- TAL1&#45;&gt;PAX8 -->
<g id="edge92" class="edge"><title>TAL1&#45;&gt;PAX8</title>
<a xlink:title="PAX8: 0.095||remove20root">
<path fill="none" stroke="#c0c6ff" stroke-width="3" d="M88.3827,-79.3827C108.802,-99.8017 142.013,-133.013 164.469,-155.469"/>
<polygon fill="#c0c6ff" stroke="#c0c6ff" points="162.578,-157.538 170.215,-161.215 166.538,-153.578 162.578,-157.538"/>
</a>
</g>
<!-- TAL1&#45;&gt;PLAGL1 -->
<g id="edge94" class="edge"><title>TAL1&#45;&gt;PLAGL1</title>
<a xlink:title="PLAGL1: 0.008||remove3root">
<path fill="none" stroke="#eecaff" stroke-width="3" d="M75.1095,-79.5223C88.0361,-127.765 123.047,-258.427 138.048,-314.412"/>
<polygon fill="#eecaff" stroke="#eecaff" points="135.419,-315.42 140.194,-322.422 140.828,-313.97 135.419,-315.42"/>
</a>
</g>
<!-- HIC1&#45;&gt;PAX8 -->
<g id="edge82" class="edge"><title>HIC1&#45;&gt;PAX8</title>
<a xlink:title="PAX8: 0.104||remove23root">
<path fill="none" stroke="#bfc5ff" stroke-width="3" d="M149.896,-36.1811C157.545,-64.7264 172.404,-120.183 181.206,-153.029"/>
<polygon fill="#bfc5ff" stroke="#bfc5ff" points="178.529,-153.86 183.305,-160.863 183.938,-152.41 178.529,-153.86"/>
</a>
</g>
<!-- HIC1&#45;&gt;WRNIP1 -->
<g id="edge84" class="edge"><title>HIC1&#45;&gt;WRNIP1</title>
<a xlink:title="WRNIP1: 0.026||remove9root">
<path fill="none" stroke="#edc8ff" stroke-width="3" d="M172.171,-33.6728C208.953,-54.9088 274.639,-92.8329 314.899,-116.077"/>
<polygon fill="#edc8ff" stroke="#edc8ff" points="313.536,-118.523 321.864,-120.098 316.336,-113.673 313.536,-118.523"/>
</a>
</g>
<!-- GATA3 -->
<g id="node29" class="node"><title>GATA3</title>
<a xlink:href="GATA3.svg" xlink:title="Z&#45;value: 2.023||remove34">
<polygon fill="#3b4eff" stroke="#3b4eff" stroke-width="2" points="246.425,-36 216.425,-36 204.425,-24 204.425,-12 216.425,-0 246.425,-0 258.425,-12 258.425,-24 246.425,-36"/>
<path fill="#3b4eff" stroke="#3b4eff" stroke-width="2" d="M216.425,-36C210.425,-36 204.425,-30 204.425,-24"/>
<path fill="#3b4eff" stroke="#3b4eff" stroke-width="2" d="M204.425,-12C204.425,-6 210.425,-0 216.425,-0"/>
<path fill="#3b4eff" stroke="#3b4eff" stroke-width="2" d="M246.425,-0C252.425,-0 258.425,-6 258.425,-12"/>
<path fill="#3b4eff" stroke="#3b4eff" stroke-width="2" d="M258.425,-24C258.425,-30 252.425,-36 246.425,-36"/>
<polyline fill="none" stroke="white" stroke-width="2" points="246.425,-36 216.425,-36 "/>
<path fill="none" stroke="white" stroke-width="2" d="M216.425,-36C210.425,-36 204.425,-30 204.425,-24"/>
<polyline fill="none" stroke="white" stroke-width="2" points="204.425,-24 204.425,-12 "/>
<path fill="none" stroke="white" stroke-width="2" d="M204.425,-12C204.425,-6 210.425,-0 216.425,-0"/>
<polyline fill="none" stroke="white" stroke-width="2" points="216.425,-0 246.425,-0 "/>
<path fill="none" stroke="white" stroke-width="2" d="M246.425,-0C252.425,-0 258.425,-6 258.425,-12"/>
<polyline fill="none" stroke="white" stroke-width="2" points="258.425,-12 258.425,-24 "/>
<path fill="none" stroke="white" stroke-width="2" d="M258.425,-24C258.425,-30 252.425,-36 246.425,-36"/>
<text text-anchor="middle" x="231.425" y="-15.5" font-family="Helvetica,sans-Serif" font-size="10.00" fill="white">GATA3</text>
</a>
</g>
<!-- GATA3&#45;&gt;SMAD1 -->
<g id="edge38" class="edge"><title>GATA3&#45;&gt;SMAD1</title>
<a xlink:title="SMAD1: 0.235||remove31root">
<path fill="none" stroke="#e5afff" stroke-width="3" d="M236.334,-36.3223C249.261,-84.5654 284.271,-215.227 299.273,-271.212"/>
<polygon fill="#e5afff" stroke="#e5afff" points="296.644,-272.22 301.419,-279.222 302.053,-270.77 296.644,-272.22"/>
</a>
</g>
<!-- GATA3&#45;&gt;PAX8 -->
<g id="edge40" class="edge"><title>GATA3&#45;&gt;PAX8</title>
<a xlink:title="PAX8: 0.852||remove34root">
<path fill="none" stroke="#6575ff" stroke-width="3" d="M226.553,-36.1811C218.904,-64.7264 204.045,-120.183 195.244,-153.029"/>
<polygon fill="#6575ff" stroke="#6575ff" points="192.511,-152.41 193.145,-160.863 197.92,-153.86 192.511,-152.41"/>
</a>
</g>
<!-- GATA3&#45;&gt;RCOR1_MTA3 -->
<g id="edge42" class="edge"><title>GATA3&#45;&gt;RCOR1_MTA3</title>
<a xlink:title="RCOR1: 0.161||remove26">
<path fill="none" stroke="#e8b8ff" stroke-width="3" d="M220.846,-36.3223C192.821,-84.8626 116.625,-216.84 84.6401,-272.238"/>
<polygon fill="#e8b8ff" stroke="#e8b8ff" points="82.1829,-270.894 80.6078,-279.222 87.0327,-273.694 82.1829,-270.894"/>
</a>
</g>
<!-- GATA3&#45;&gt;HIVEP1 -->
<g id="edge44" class="edge"><title>GATA3&#45;&gt;HIVEP1</title>
<a xlink:title="HIVEP1: 0.011||remove4root">
<path fill="none" stroke="#eecaff" stroke-width="3" d="M204.279,-33.6728C167.471,-54.9239 101.717,-92.8868 61.4648,-116.126"/>
<polygon fill="#eecaff" stroke="#eecaff" points="59.7865,-113.862 54.2583,-120.287 62.5865,-118.712 59.7865,-113.862"/>
</a>
</g>
<!-- EZH2&#45;&gt;PAX8 -->
<g id="edge86" class="edge"><title>EZH2&#45;&gt;PAX8</title>
<a xlink:title="PAX8: 0.112||remove25root">
<path fill="none" stroke="#bec5ff" stroke-width="3" d="M288.067,-79.3827C267.648,-99.8017 234.437,-133.013 211.98,-155.469"/>
<polygon fill="#bec5ff" stroke="#bec5ff" points="209.911,-153.578 206.234,-161.215 213.871,-157.538 209.911,-153.578"/>
</a>
</g>
<!-- WRNIP1&#45;&gt;FOXM1_TBL1XR1 -->
<g id="edge62" class="edge"><title>WRNIP1&#45;&gt;FOXM1_TBL1XR1</title>
<a xlink:title="FOXM1: 0.028||TBL1XR1: 0.019||remove10root">
<path fill="none" stroke="#edc8ff" stroke-width="3" d="M349.449,-154.348C349.449,-166.572 349.449,-182.828 349.449,-196.389"/>
<polygon fill="#edc8ff" stroke="#edc8ff" points="346.649,-196.424 349.449,-204.424 352.249,-196.424 346.649,-196.424"/>
</a>
</g>
<!-- WRNIP1&#45;&gt;SMAD1 -->
<g id="edge64" class="edge"><title>WRNIP1&#45;&gt;SMAD1</title>
<a xlink:title="SMAD1: 0.023||remove8root">
<path fill="none" stroke="#edc9ff" stroke-width="3" d="M327.254,-154.142C314.456,-166.084 299.561,-182.922 292.609,-201.545 284.149,-224.208 289.54,-251.691 295.866,-271.381"/>
<polygon fill="#edc9ff" stroke="#edc9ff" points="293.252,-272.388 298.501,-279.043 298.547,-270.568 293.252,-272.388"/>
</a>
</g>
<!-- WRNIP1&#45;&gt;PAX5 -->
<g id="edge66" class="edge"><title>WRNIP1&#45;&gt;PAX5</title>
<a xlink:title="PAX5: 0.008||remove2root">
<path fill="none" stroke="#eecbff" stroke-width="3" d="M331.179,-154.038C319.153,-166.578 303.651,-184.117 292.609,-201.545 269.276,-238.372 250.547,-285.614 240.217,-314.428"/>
<polygon fill="#eecbff" stroke="#eecbff" points="237.552,-313.567 237.529,-322.042 242.832,-315.431 237.552,-313.567"/>
</a>
</g>
<!-- WRNIP1&#45;&gt;PAX8 -->
<g id="edge72" class="edge"><title>WRNIP1&#45;&gt;PAX8</title>
<a xlink:title="PAX8: 0.085||remove17root">
<path fill="none" stroke="#c1c7ff" stroke-width="3" d="M321.734,-143.451C294.494,-150.75 252.827,-161.914 223.296,-169.827"/>
<polygon fill="#c1c7ff" stroke="#c1c7ff" points="222.313,-167.192 215.31,-171.967 223.762,-172.601 222.313,-167.192"/>
</a>
</g>
<!-- WRNIP1&#45;&gt;PLAGL1 -->
<g id="edge78" class="edge"><title>WRNIP1&#45;&gt;PLAGL1</title>
<a xlink:title="PLAGL1: 0.019||remove6root">
<path fill="none" stroke="#edc9ff" stroke-width="3" d="M331.308,-154.166C294.333,-191.141 210.265,-275.209 168.907,-316.567"/>
<polygon fill="#edc9ff" stroke="#edc9ff" points="166.802,-314.712 163.125,-322.349 170.762,-318.672 166.802,-314.712"/>
</a>
</g>
<!-- WRNIP1&#45;&gt;HIVEP1 -->
<g id="edge76" class="edge"><title>WRNIP1&#45;&gt;HIVEP1</title>
<a xlink:title="HIVEP1: 0.017||remove5root">
<path fill="none" stroke="#eec9ff" stroke-width="3" d="M321.678,-136.025C263.199,-136.025 127.434,-136.025 62.6455,-136.025"/>
<polygon fill="#eec9ff" stroke="#eec9ff" points="62.3615,-133.225 54.3614,-136.025 62.3614,-138.825 62.3615,-133.225"/>
</a>
</g>
<!-- WRNIP1&#45;&gt;TAL1 -->
<g id="edge80" class="edge"><title>WRNIP1&#45;&gt;TAL1</title>
<a xlink:title="TAL1: 0.078||remove16root">
<path fill="none" stroke="#ebc2ff" stroke-width="3" d="M321.909,-128.645C270.893,-114.975 161.768,-85.7357 105.447,-70.6444"/>
<polygon fill="#ebc2ff" stroke="#ebc2ff" points="105.986,-67.89 97.5334,-68.524 104.536,-73.2992 105.986,-67.89"/>
</a>
</g>
<!-- WRNIP1&#45;&gt;GATA3 -->
<g id="edge70" class="edge"><title>WRNIP1&#45;&gt;GATA3</title>
<a xlink:title="GATA3: 0.022||remove7root">
<path fill="none" stroke="#edc9ff" stroke-width="3" d="M321.801,-119.36C306.925,-109.605 288.832,-96.4082 274.929,-82.08 263.658,-70.4633 253.367,-55.603 245.627,-43.1181"/>
<polygon fill="#edc9ff" stroke="#edc9ff" points="247.911,-41.483 241.377,-36.0841 243.118,-44.3792 247.911,-41.483"/>
</a>
</g>
<!-- WRNIP1&#45;&gt;EZH2 -->
<g id="edge68" class="edge"><title>WRNIP1&#45;&gt;EZH2</title>
<a xlink:title="EZH2: 0.007||remove1root">
<path fill="none" stroke="#eecbff" stroke-width="3" d="M338.992,-117.912C333.566,-108.515 326.85,-96.8808 320.914,-86.6005"/>
<polygon fill="#eecbff" stroke="#eecbff" points="323.185,-84.9337 316.76,-79.4055 318.335,-87.7337 323.185,-84.9337"/>
</a>
</g>
<!-- WRNIP1&#45;&gt;WRNIP1 -->
<g id="edge74" class="edge"><title>WRNIP1&#45;&gt;WRNIP1</title>
<a xlink:title="WRNIP1: 0.003||remove0root">
<path fill="none" stroke="#eecbff" stroke-width="3" d="M377.133,-142.773C386.713,-142.844 394.449,-140.595 394.449,-136.025 394.449,-132.883 390.793,-130.837 385.394,-129.889"/>
<polygon fill="#eecbff" stroke="#eecbff" points="385.319,-127.076 377.133,-129.276 384.904,-132.661 385.319,-127.076"/>
</a>
</g>
</g>
</svg>
