<?xml version="1.0" encoding="UTF-8" standalone="no"?>
<!DOCTYPE svg PUBLIC "-//W3C//DTD SVG 1.1//EN"
 "http://www.w3.org/Graphics/SVG/1.1/DTD/svg11.dtd">
<!-- Generated by graphviz version 2.28.0 (20110630.0925)
 -->
<!-- Title: _anonymous_0 Pages: 1 -->
<svg width="418pt" height="366pt"
 viewBox="0.00 0.00 418.45 366.45" xmlns="http://www.w3.org/2000/svg" xmlns:xlink="http://www.w3.org/1999/xlink">
<g id="graph1" class="graph" transform="scale(1 1) rotate(0) translate(4 362.449)">
<title>_anonymous_0</title>
<polygon fill="white" stroke="white" points="-4,5 -4,-362.449 415.449,-362.449 415.449,5 -4,5"/>
<!-- ESRRA_ESR2 -->
<g id="node1" class="node"><title>ESRRA_ESR2</title>
<a xlink:href="ESRRA_ESR2.svg" xlink:title="Z&#45;value: 3.814||remove22">
<polygon fill="#3247ff" stroke="#3247ff" stroke-width="2" points="354.999,-315.249 296.499,-315.249 284.499,-303.249 284.499,-291.249 296.499,-279.249 354.999,-279.249 366.999,-291.249 366.999,-303.249 354.999,-315.249"/>
<path fill="#3247ff" stroke="#3247ff" stroke-width="2" d="M296.499,-315.249C290.499,-315.249 284.499,-309.249 284.499,-303.249"/>
<path fill="#3247ff" stroke="#3247ff" stroke-width="2" d="M284.499,-291.249C284.499,-285.249 290.499,-279.249 296.499,-279.249"/>
<path fill="#3247ff" stroke="#3247ff" stroke-width="2" d="M354.999,-279.249C360.999,-279.249 366.999,-285.249 366.999,-291.249"/>
<path fill="#3247ff" stroke="#3247ff" stroke-width="2" d="M366.999,-303.249C366.999,-309.249 360.999,-315.249 354.999,-315.249"/>
<polyline fill="none" stroke="white" stroke-width="2" points="354.999,-315.249 296.499,-315.249 "/>
<path fill="none" stroke="white" stroke-width="2" d="M296.499,-315.249C290.499,-315.249 284.499,-309.249 284.499,-303.249"/>
<polyline fill="none" stroke="white" stroke-width="2" points="284.499,-303.249 284.499,-291.249 "/>
<path fill="none" stroke="white" stroke-width="2" d="M284.499,-291.249C284.499,-285.249 290.499,-279.249 296.499,-279.249"/>
<polyline fill="none" stroke="white" stroke-width="2" points="296.499,-279.249 354.999,-279.249 "/>
<path fill="none" stroke="white" stroke-width="2" d="M354.999,-279.249C360.999,-279.249 366.999,-285.249 366.999,-291.249"/>
<polyline fill="none" stroke="white" stroke-width="2" points="366.999,-291.249 366.999,-303.249 "/>
<path fill="none" stroke="white" stroke-width="2" d="M366.999,-303.249C366.999,-309.249 360.999,-315.249 354.999,-315.249"/>
<text text-anchor="middle" x="325.749" y="-294.749" font-family="Helvetica,sans-Serif" font-size="10.00" fill="white">ESRRA_ESR2</text>
</a>
</g>
<!-- PBX1 -->
<g id="node2" class="node"><title>PBX1</title>
<a xlink:href="PBX1.svg" xlink:title="Z&#45;value: 0.480||remove31">
<polygon fill="#ffb8b8" stroke="#ffb8b8" stroke-width="2" points="222.725,-197.225 192.725,-197.225 180.725,-185.225 180.725,-173.225 192.725,-161.225 222.725,-161.225 234.725,-173.225 234.725,-185.225 222.725,-197.225"/>
<path fill="#ffb8b8" stroke="#ffb8b8" stroke-width="2" d="M192.725,-197.225C186.725,-197.225 180.725,-191.225 180.725,-185.225"/>
<path fill="#ffb8b8" stroke="#ffb8b8" stroke-width="2" d="M180.725,-173.225C180.725,-167.225 186.725,-161.225 192.725,-161.225"/>
<path fill="#ffb8b8" stroke="#ffb8b8" stroke-width="2" d="M222.725,-161.225C228.725,-161.225 234.725,-167.225 234.725,-173.225"/>
<path fill="#ffb8b8" stroke="#ffb8b8" stroke-width="2" d="M234.725,-185.225C234.725,-191.225 228.725,-197.225 222.725,-197.225"/>
<polyline fill="none" stroke="white" stroke-width="2" points="222.725,-197.225 192.725,-197.225 "/>
<path fill="none" stroke="white" stroke-width="2" d="M192.725,-197.225C186.725,-197.225 180.725,-191.225 180.725,-185.225"/>
<polyline fill="none" stroke="white" stroke-width="2" points="180.725,-185.225 180.725,-173.225 "/>
<path fill="none" stroke="white" stroke-width="2" d="M180.725,-173.225C180.725,-167.225 186.725,-161.225 192.725,-161.225"/>
<polyline fill="none" stroke="white" stroke-width="2" points="192.725,-161.225 222.725,-161.225 "/>
<path fill="none" stroke="white" stroke-width="2" d="M222.725,-161.225C228.725,-161.225 234.725,-167.225 234.725,-173.225"/>
<polyline fill="none" stroke="white" stroke-width="2" points="234.725,-173.225 234.725,-185.225 "/>
<path fill="none" stroke="white" stroke-width="2" d="M234.725,-185.225C234.725,-191.225 228.725,-197.225 222.725,-197.225"/>
<text text-anchor="middle" x="207.725" y="-176.725" font-family="Helvetica,sans-Serif" font-size="10.00">PBX1</text>
</a>
</g>
<!-- ESRRA_ESR2&#45;&gt;PBX1 -->
<g id="edge2" class="edge"><title>ESRRA_ESR2&#45;&gt;PBX1</title>
<a xlink:title="PBX1: 0.132||remove22root">
<path fill="none" stroke="#bdc3ff" stroke-width="3" d="M307.567,-279.067C287.148,-258.648 253.937,-225.437 231.48,-202.98"/>
<polygon fill="#bdc3ff" stroke="#bdc3ff" points="233.371,-200.911 225.734,-197.234 229.411,-204.871 233.371,-200.911"/>
</a>
</g>
<!-- PAX7_NOBOX -->
<g id="node4" class="node"><title>PAX7_NOBOX</title>
<a xlink:href="PAX7_NOBOX.svg" xlink:title="Z&#45;value: 0.658||remove27">
<polygon fill="#b1b9ff" stroke="#b1b9ff" stroke-width="2" points="398.199,-240.425 339.699,-240.425 327.699,-228.425 327.699,-216.425 339.699,-204.425 398.199,-204.425 410.199,-216.425 410.199,-228.425 398.199,-240.425"/>
<path fill="#b1b9ff" stroke="#b1b9ff" stroke-width="2" d="M339.699,-240.425C333.699,-240.425 327.699,-234.425 327.699,-228.425"/>
<path fill="#b1b9ff" stroke="#b1b9ff" stroke-width="2" d="M327.699,-216.425C327.699,-210.425 333.699,-204.425 339.699,-204.425"/>
<path fill="#b1b9ff" stroke="#b1b9ff" stroke-width="2" d="M398.199,-204.425C404.199,-204.425 410.199,-210.425 410.199,-216.425"/>
<path fill="#b1b9ff" stroke="#b1b9ff" stroke-width="2" d="M410.199,-228.425C410.199,-234.425 404.199,-240.425 398.199,-240.425"/>
<polyline fill="none" stroke="white" stroke-width="2" points="398.199,-240.425 339.699,-240.425 "/>
<path fill="none" stroke="white" stroke-width="2" d="M339.699,-240.425C333.699,-240.425 327.699,-234.425 327.699,-228.425"/>
<polyline fill="none" stroke="white" stroke-width="2" points="327.699,-228.425 327.699,-216.425 "/>
<path fill="none" stroke="white" stroke-width="2" d="M327.699,-216.425C327.699,-210.425 333.699,-204.425 339.699,-204.425"/>
<polyline fill="none" stroke="white" stroke-width="2" points="339.699,-204.425 398.199,-204.425 "/>
<path fill="none" stroke="white" stroke-width="2" d="M398.199,-204.425C404.199,-204.425 410.199,-210.425 410.199,-216.425"/>
<polyline fill="none" stroke="white" stroke-width="2" points="410.199,-216.425 410.199,-228.425 "/>
<path fill="none" stroke="white" stroke-width="2" d="M410.199,-228.425C410.199,-234.425 404.199,-240.425 398.199,-240.425"/>
<text text-anchor="middle" x="368.949" y="-219.925" font-family="Helvetica,sans-Serif" font-size="10.00">PAX7_NOBOX</text>
</a>
</g>
<!-- PBX1&#45;&gt;PAX7_NOBOX -->
<g id="edge4" class="edge"><title>PBX1&#45;&gt;PAX7_NOBOX</title>
<a xlink:title="NOBOX: 0.206||remove27root">
<path fill="none" stroke="#ffb4b4" stroke-width="3" d="M235.074,-186.553C258.051,-192.71 291.478,-201.666 319.181,-209.089"/>
<polygon fill="#ffb4b4" stroke="#ffb4b4" points="318.75,-211.872 327.202,-211.239 320.199,-206.463 318.75,-211.872"/>
</a>
</g>
<!-- PATZ1_KLF4 -->
<g id="node6" class="node"><title>PATZ1_KLF4</title>
<a xlink:href="PATZ1_KLF4.svg" xlink:title="Z&#45;value: 1.751||remove24">
<polygon fill="#8591ff" stroke="#8591ff" stroke-width="2" points="276.925,-358.449 224.925,-358.449 212.925,-346.449 212.925,-334.449 224.925,-322.449 276.925,-322.449 288.925,-334.449 288.925,-346.449 276.925,-358.449"/>
<path fill="#8591ff" stroke="#8591ff" stroke-width="2" d="M224.925,-358.449C218.925,-358.449 212.925,-352.449 212.925,-346.449"/>
<path fill="#8591ff" stroke="#8591ff" stroke-width="2" d="M212.925,-334.449C212.925,-328.449 218.925,-322.449 224.925,-322.449"/>
<path fill="#8591ff" stroke="#8591ff" stroke-width="2" d="M276.925,-322.449C282.925,-322.449 288.925,-328.449 288.925,-334.449"/>
<path fill="#8591ff" stroke="#8591ff" stroke-width="2" d="M288.925,-346.449C288.925,-352.449 282.925,-358.449 276.925,-358.449"/>
<polyline fill="none" stroke="white" stroke-width="2" points="276.925,-358.449 224.925,-358.449 "/>
<path fill="none" stroke="white" stroke-width="2" d="M224.925,-358.449C218.925,-358.449 212.925,-352.449 212.925,-346.449"/>
<polyline fill="none" stroke="white" stroke-width="2" points="212.925,-346.449 212.925,-334.449 "/>
<path fill="none" stroke="white" stroke-width="2" d="M212.925,-334.449C212.925,-328.449 218.925,-322.449 224.925,-322.449"/>
<polyline fill="none" stroke="white" stroke-width="2" points="224.925,-322.449 276.925,-322.449 "/>
<path fill="none" stroke="white" stroke-width="2" d="M276.925,-322.449C282.925,-322.449 288.925,-328.449 288.925,-334.449"/>
<polyline fill="none" stroke="white" stroke-width="2" points="288.925,-334.449 288.925,-346.449 "/>
<path fill="none" stroke="white" stroke-width="2" d="M288.925,-346.449C288.925,-352.449 282.925,-358.449 276.925,-358.449"/>
<text text-anchor="middle" x="250.925" y="-337.949" font-family="Helvetica,sans-Serif" font-size="10.00">PATZ1_KLF4</text>
</a>
</g>
<!-- PATZ1_KLF4&#45;&gt;ESRRA_ESR2 -->
<g id="edge16" class="edge"><title>PATZ1_KLF4&#45;&gt;ESRRA_ESR2</title>
<a xlink:title="ESRRA: 1.315||ESR2: 0.103||remove22">
<path fill="none" stroke="#bf38ff" stroke-width="3" d="M282.223,-322.379C283.85,-321.44 285.493,-320.491 287.139,-319.541"/>
<polygon fill="#bf38ff" stroke="#bf38ff" points="288.807,-321.811 294.335,-315.386 286.007,-316.961 288.807,-321.811"/>
</a>
</g>
<!-- PATZ1_KLF4&#45;&gt;PBX1 -->
<g id="edge10" class="edge"><title>PATZ1_KLF4&#45;&gt;PBX1</title>
<a xlink:title="PBX1: 0.166||remove24root">
<path fill="none" stroke="#b9c0ff" stroke-width="3" d="M246.053,-322.268C238.404,-293.723 223.545,-238.267 214.744,-205.42"/>
<polygon fill="#b9c0ff" stroke="#b9c0ff" points="217.42,-204.589 212.645,-197.587 212.011,-206.039 217.42,-204.589"/>
</a>
</g>
<!-- PATZ1_KLF4&#45;&gt;PAX7_NOBOX -->
<g id="edge14" class="edge"><title>PATZ1_KLF4&#45;&gt;PAX7_NOBOX</title>
<a xlink:title="PAX7: 0.019||remove3root">
<path fill="none" stroke="#edc9ff" stroke-width="3" d="M255.156,-322.19C259.103,-308.36 266.14,-289.553 277.609,-276.369 289.244,-262.995 305.041,-252.053 320.227,-243.603"/>
<polygon fill="#edc9ff" stroke="#edc9ff" points="321.876,-245.897 327.611,-239.656 319.236,-240.958 321.876,-245.897"/>
</a>
</g>
<!-- PATZ1_KLF4&#45;&gt;PATZ1_KLF4 -->
<g id="edge6" class="edge"><title>PATZ1_KLF4&#45;&gt;PATZ1_KLF4</title>
<a xlink:title="PATZ1: 0.441||KLF4: 0.051||remove24">
<path fill="none" stroke="#de9aff" stroke-width="3" d="M289.139,-347.14C299.259,-346.758 306.925,-344.527 306.925,-340.449 306.925,-337.582 303.135,-335.628 297.367,-334.588"/>
<polygon fill="#de9aff" stroke="#de9aff" points="297.379,-331.775 289.139,-333.759 296.818,-337.347 297.379,-331.775"/>
</a>
</g>
<!-- ZEB1 -->
<g id="node8" class="node"><title>ZEB1</title>
<a xlink:href="ZEB1.svg" xlink:title="Z&#45;value: 1.478||remove29">
<polygon fill="#909bff" stroke="#909bff" stroke-width="2" points="179.525,-358.449 149.525,-358.449 137.525,-346.449 137.525,-334.449 149.525,-322.449 179.525,-322.449 191.525,-334.449 191.525,-346.449 179.525,-358.449"/>
<path fill="#909bff" stroke="#909bff" stroke-width="2" d="M149.525,-358.449C143.525,-358.449 137.525,-352.449 137.525,-346.449"/>
<path fill="#909bff" stroke="#909bff" stroke-width="2" d="M137.525,-334.449C137.525,-328.449 143.525,-322.449 149.525,-322.449"/>
<path fill="#909bff" stroke="#909bff" stroke-width="2" d="M179.525,-322.449C185.525,-322.449 191.525,-328.449 191.525,-334.449"/>
<path fill="#909bff" stroke="#909bff" stroke-width="2" d="M191.525,-346.449C191.525,-352.449 185.525,-358.449 179.525,-358.449"/>
<polyline fill="none" stroke="white" stroke-width="2" points="179.525,-358.449 149.525,-358.449 "/>
<path fill="none" stroke="white" stroke-width="2" d="M149.525,-358.449C143.525,-358.449 137.525,-352.449 137.525,-346.449"/>
<polyline fill="none" stroke="white" stroke-width="2" points="137.525,-346.449 137.525,-334.449 "/>
<path fill="none" stroke="white" stroke-width="2" d="M137.525,-334.449C137.525,-328.449 143.525,-322.449 149.525,-322.449"/>
<polyline fill="none" stroke="white" stroke-width="2" points="149.525,-322.449 179.525,-322.449 "/>
<path fill="none" stroke="white" stroke-width="2" d="M179.525,-322.449C185.525,-322.449 191.525,-328.449 191.525,-334.449"/>
<polyline fill="none" stroke="white" stroke-width="2" points="191.525,-334.449 191.525,-346.449 "/>
<path fill="none" stroke="white" stroke-width="2" d="M191.525,-346.449C191.525,-352.449 185.525,-358.449 179.525,-358.449"/>
<text text-anchor="middle" x="164.525" y="-337.949" font-family="Helvetica,sans-Serif" font-size="10.00">ZEB1</text>
</a>
</g>
<!-- PATZ1_KLF4&#45;&gt;ZEB1 -->
<g id="edge8" class="edge"><title>PATZ1_KLF4&#45;&gt;ZEB1</title>
<a xlink:title="ZEB1: 0.088||remove15root">
<path fill="none" stroke="#ebc2ff" stroke-width="3" d="M212.777,-340.449C208.424,-340.449 204.002,-340.449 199.691,-340.449"/>
<polygon fill="#ebc2ff" stroke="#ebc2ff" points="199.584,-337.649 191.584,-340.449 199.584,-343.249 199.584,-337.649"/>
</a>
</g>
<!-- SP1 -->
<g id="node11" class="node"><title>SP1</title>
<a xlink:href="SP1.svg" xlink:title="Z&#45;value: 0.981||remove25">
<polygon fill="#a4adff" stroke="#a4adff" stroke-width="2" points="104.7,-315.249 74.7,-315.249 62.7,-303.249 62.7,-291.249 74.7,-279.249 104.7,-279.249 116.7,-291.249 116.7,-303.249 104.7,-315.249"/>
<path fill="#a4adff" stroke="#a4adff" stroke-width="2" d="M74.7,-315.249C68.7,-315.249 62.7,-309.249 62.7,-303.249"/>
<path fill="#a4adff" stroke="#a4adff" stroke-width="2" d="M62.7,-291.249C62.7,-285.249 68.7,-279.249 74.7,-279.249"/>
<path fill="#a4adff" stroke="#a4adff" stroke-width="2" d="M104.7,-279.249C110.7,-279.249 116.7,-285.249 116.7,-291.249"/>
<path fill="#a4adff" stroke="#a4adff" stroke-width="2" d="M116.7,-303.249C116.7,-309.249 110.7,-315.249 104.7,-315.249"/>
<polyline fill="none" stroke="white" stroke-width="2" points="104.7,-315.249 74.7,-315.249 "/>
<path fill="none" stroke="white" stroke-width="2" d="M74.7,-315.249C68.7,-315.249 62.7,-309.249 62.7,-303.249"/>
<polyline fill="none" stroke="white" stroke-width="2" points="62.7,-303.249 62.7,-291.249 "/>
<path fill="none" stroke="white" stroke-width="2" d="M62.7,-291.249C62.7,-285.249 68.7,-279.249 74.7,-279.249"/>
<polyline fill="none" stroke="white" stroke-width="2" points="74.7,-279.249 104.7,-279.249 "/>
<path fill="none" stroke="white" stroke-width="2" d="M104.7,-279.249C110.7,-279.249 116.7,-285.249 116.7,-291.249"/>
<polyline fill="none" stroke="white" stroke-width="2" points="116.7,-291.249 116.7,-303.249 "/>
<path fill="none" stroke="white" stroke-width="2" d="M116.7,-303.249C116.7,-309.249 110.7,-315.249 104.7,-315.249"/>
<text text-anchor="middle" x="89.7" y="-294.749" font-family="Helvetica,sans-Serif" font-size="10.00">SP1</text>
</a>
</g>
<!-- PATZ1_KLF4&#45;&gt;SP1 -->
<g id="edge12" class="edge"><title>PATZ1_KLF4&#45;&gt;SP1</title>
<a xlink:title="SP1: 0.098||KLF4: 0.019||remove17root">
<path fill="none" stroke="#ebc0ff" stroke-width="3" d="M204.695,-323.389C201.625,-322.371 198.55,-321.403 195.564,-320.529 172.346,-313.728 145.601,-308.118 124.807,-304.232"/>
<path fill="none" stroke="#edc9ff" stroke-width="3" d="M205.324,-321.491C202.225,-320.464 199.151,-319.495 196.126,-318.609 172.756,-311.771 146.012,-306.161 125.174,-302.266"/>
<polygon fill="#edc9ff" stroke="#edc9ff" points="204.186,-325.118 212.662,-325.076 206.01,-319.823 204.186,-325.118"/>
<polygon fill="#ebc0ff" stroke="#ebc0ff" points="125.41,-300.479 117.036,-301.792 124.401,-305.988 125.41,-300.479"/>
</a>
</g>
<!-- RUNX3_BCL11A -->
<g id="node15" class="node"><title>RUNX3_BCL11A</title>
<a xlink:href="RUNX3_BCL11A.svg" xlink:title="Z&#45;value: 0.557||remove23">
<polygon fill="#b5bcff" stroke="#b5bcff" stroke-width="2" points="80.75,-240.425 12.25,-240.425 0.25,-228.425 0.25,-216.425 12.25,-204.425 80.75,-204.425 92.75,-216.425 92.75,-228.425 80.75,-240.425"/>
<path fill="#b5bcff" stroke="#b5bcff" stroke-width="2" d="M12.25,-240.425C6.25,-240.425 0.25,-234.425 0.25,-228.425"/>
<path fill="#b5bcff" stroke="#b5bcff" stroke-width="2" d="M0.25,-216.425C0.25,-210.425 6.25,-204.425 12.25,-204.425"/>
<path fill="#b5bcff" stroke="#b5bcff" stroke-width="2" d="M80.75,-204.425C86.75,-204.425 92.75,-210.425 92.75,-216.425"/>
<path fill="#b5bcff" stroke="#b5bcff" stroke-width="2" d="M92.75,-228.425C92.75,-234.425 86.75,-240.425 80.75,-240.425"/>
<polyline fill="none" stroke="white" stroke-width="2" points="80.75,-240.425 12.25,-240.425 "/>
<path fill="none" stroke="white" stroke-width="2" d="M12.25,-240.425C6.25,-240.425 0.25,-234.425 0.25,-228.425"/>
<polyline fill="none" stroke="white" stroke-width="2" points="0.25,-228.425 0.25,-216.425 "/>
<path fill="none" stroke="white" stroke-width="2" d="M0.25,-216.425C0.25,-210.425 6.25,-204.425 12.25,-204.425"/>
<polyline fill="none" stroke="white" stroke-width="2" points="12.25,-204.425 80.75,-204.425 "/>
<path fill="none" stroke="white" stroke-width="2" d="M80.75,-204.425C86.75,-204.425 92.75,-210.425 92.75,-216.425"/>
<polyline fill="none" stroke="white" stroke-width="2" points="92.75,-216.425 92.75,-228.425 "/>
<path fill="none" stroke="white" stroke-width="2" d="M92.75,-228.425C92.75,-234.425 86.75,-240.425 80.75,-240.425"/>
<text text-anchor="middle" x="46.5" y="-219.925" font-family="Helvetica,sans-Serif" font-size="10.00">RUNX3_BCL11A</text>
</a>
</g>
<!-- PATZ1_KLF4&#45;&gt;RUNX3_BCL11A -->
<g id="edge18" class="edge"><title>PATZ1_KLF4&#45;&gt;RUNX3_BCL11A</title>
<a xlink:title="RUNX3: 0.279||remove23">
<path fill="none" stroke="#e4acff" stroke-width="3" d="M219.431,-322.267C183.162,-301.326 123.59,-266.932 84.7036,-244.481"/>
<polygon fill="#e4acff" stroke="#e4acff" points="86.0219,-242.009 77.6937,-240.434 83.2219,-246.859 86.0219,-242.009"/>
</a>
</g>
<!-- ZEB1&#45;&gt;PBX1 -->
<g id="edge40" class="edge"><title>ZEB1&#45;&gt;PBX1</title>
<a xlink:title="PBX1: 0.232||remove29root">
<path fill="none" stroke="#b1b9ff" stroke-width="3" d="M169.396,-322.268C177.045,-293.723 191.904,-238.267 200.706,-205.42"/>
<polygon fill="#b1b9ff" stroke="#b1b9ff" points="203.438,-206.039 202.805,-197.587 198.029,-204.589 203.438,-206.039"/>
</a>
</g>
<!-- ZEB1&#45;&gt;ZEB1 -->
<g id="edge38" class="edge"><title>ZEB1&#45;&gt;ZEB1</title>
<a xlink:title="ZEB1: 0.449||remove29">
<path fill="none" stroke="#de99ff" stroke-width="3" d="M191.765,-347.193C201.549,-347.338 209.525,-345.09 209.525,-340.449 209.525,-337.186 205.581,-335.106 199.839,-334.209"/>
<polygon fill="#de99ff" stroke="#de99ff" points="199.924,-331.409 191.765,-333.706 199.576,-336.998 199.924,-331.409"/>
</a>
</g>
<!-- FOXD3_FOXI1_FOXF1 -->
<g id="node24" class="node"><title>FOXD3_FOXI1_FOXF1</title>
<a xlink:href="FOXD3_FOXI1_FOXF1.svg" xlink:title="Z&#45;value: 0.866||remove18">
<polygon fill="#a9b1ff" stroke="#a9b1ff" stroke-width="2" points="137.2,-79.2 42.2,-79.2 30.2,-67.2 30.2,-55.2 42.2,-43.2 137.2,-43.2 149.2,-55.2 149.2,-67.2 137.2,-79.2"/>
<path fill="#a9b1ff" stroke="#a9b1ff" stroke-width="2" d="M42.2,-79.2C36.2,-79.2 30.2,-73.2 30.2,-67.2"/>
<path fill="#a9b1ff" stroke="#a9b1ff" stroke-width="2" d="M30.2,-55.2C30.2,-49.2 36.2,-43.2 42.2,-43.2"/>
<path fill="#a9b1ff" stroke="#a9b1ff" stroke-width="2" d="M137.2,-43.2C143.2,-43.2 149.2,-49.2 149.2,-55.2"/>
<path fill="#a9b1ff" stroke="#a9b1ff" stroke-width="2" d="M149.2,-67.2C149.2,-73.2 143.2,-79.2 137.2,-79.2"/>
<polyline fill="none" stroke="white" stroke-width="2" points="137.2,-79.2 42.2,-79.2 "/>
<path fill="none" stroke="white" stroke-width="2" d="M42.2,-79.2C36.2,-79.2 30.2,-73.2 30.2,-67.2"/>
<polyline fill="none" stroke="white" stroke-width="2" points="30.2,-67.2 30.2,-55.2 "/>
<path fill="none" stroke="white" stroke-width="2" d="M30.2,-55.2C30.2,-49.2 36.2,-43.2 42.2,-43.2"/>
<polyline fill="none" stroke="white" stroke-width="2" points="42.2,-43.2 137.2,-43.2 "/>
<path fill="none" stroke="white" stroke-width="2" d="M137.2,-43.2C143.2,-43.2 149.2,-49.2 149.2,-55.2"/>
<polyline fill="none" stroke="white" stroke-width="2" points="149.2,-55.2 149.2,-67.2 "/>
<path fill="none" stroke="white" stroke-width="2" d="M149.2,-67.2C149.2,-73.2 143.2,-79.2 137.2,-79.2"/>
<text text-anchor="middle" x="89.7" y="-58.7" font-family="Helvetica,sans-Serif" font-size="10.00">FOXD3_FOXI1_FOXF1</text>
</a>
</g>
<!-- ZEB1&#45;&gt;FOXD3_FOXI1_FOXF1 -->
<g id="edge42" class="edge"><title>ZEB1&#45;&gt;FOXD3_FOXI1_FOXF1</title>
<a xlink:title="FOXI1: 0.146||remove18">
<path fill="none" stroke="#e9bbff" stroke-width="3" d="M159.615,-322.127C146.688,-273.884 111.678,-143.223 96.6766,-87.2371"/>
<polygon fill="#e9bbff" stroke="#e9bbff" points="99.3055,-86.2294 94.5303,-79.2268 93.8963,-87.6789 99.3055,-86.2294"/>
</a>
</g>
<!-- SOX3_SOX2 -->
<g id="node26" class="node"><title>SOX3_SOX2</title>
<a xlink:href="SOX3_SOX2.svg" xlink:title="Z&#45;value: 0.860||remove28">
<polygon fill="#a9b2ff" stroke="#a9b2ff" stroke-width="2" points="189.525,-36 139.525,-36 127.525,-24 127.525,-12 139.525,-6.39488e-14 189.525,-6.39488e-14 201.525,-12 201.525,-24 189.525,-36"/>
<path fill="#a9b2ff" stroke="#a9b2ff" stroke-width="2" d="M139.525,-36C133.525,-36 127.525,-30 127.525,-24"/>
<path fill="#a9b2ff" stroke="#a9b2ff" stroke-width="2" d="M127.525,-12C127.525,-6 133.525,-6.39488e-14 139.525,-6.39488e-14"/>
<path fill="#a9b2ff" stroke="#a9b2ff" stroke-width="2" d="M189.525,-6.39488e-14C195.525,-6.39488e-14 201.525,-6 201.525,-12"/>
<path fill="#a9b2ff" stroke="#a9b2ff" stroke-width="2" d="M201.525,-24C201.525,-30 195.525,-36 189.525,-36"/>
<polyline fill="none" stroke="white" stroke-width="2" points="189.525,-36 139.525,-36 "/>
<path fill="none" stroke="white" stroke-width="2" d="M139.525,-36C133.525,-36 127.525,-30 127.525,-24"/>
<polyline fill="none" stroke="white" stroke-width="2" points="127.525,-24 127.525,-12 "/>
<path fill="none" stroke="white" stroke-width="2" d="M127.525,-12C127.525,-6 133.525,-6.39488e-14 139.525,-6.39488e-14"/>
<polyline fill="none" stroke="white" stroke-width="2" points="139.525,-6.39488e-14 189.525,-6.39488e-14 "/>
<path fill="none" stroke="white" stroke-width="2" d="M189.525,-6.39488e-14C195.525,-6.39488e-14 201.525,-6 201.525,-12"/>
<polyline fill="none" stroke="white" stroke-width="2" points="201.525,-12 201.525,-24 "/>
<path fill="none" stroke="white" stroke-width="2" d="M201.525,-24C201.525,-30 195.525,-36 189.525,-36"/>
<text text-anchor="middle" x="164.525" y="-15.5" font-family="Helvetica,sans-Serif" font-size="10.00">SOX3_SOX2</text>
</a>
</g>
<!-- ZEB1&#45;&gt;SOX3_SOX2 -->
<g id="edge44" class="edge"><title>ZEB1&#45;&gt;SOX3_SOX2</title>
<a xlink:title="SOX3: 0.187||remove26root">
<path fill="none" stroke="#e7b6ff" stroke-width="3" d="M164.525,-322.189C164.525,-267.984 164.525,-107.839 164.525,-44.3552"/>
<polygon fill="#e7b6ff" stroke="#e7b6ff" points="167.325,-44.0598 164.525,-36.0599 161.725,-44.0599 167.325,-44.0598"/>
</a>
</g>
<!-- SP1&#45;&gt;ESRRA_ESR2 -->
<g id="edge30" class="edge"><title>SP1&#45;&gt;ESRRA_ESR2</title>
<a xlink:title="ESRRA: 0.012||remove2root">
<path fill="none" stroke="#eecaff" stroke-width="3" d="M116.778,-297.249C155.585,-297.249 227.678,-297.249 276.187,-297.249"/>
<polygon fill="#eecaff" stroke="#eecaff" points="276.358,-300.049 284.358,-297.249 276.358,-294.449 276.358,-300.049"/>
</a>
</g>
<!-- SP1&#45;&gt;PBX1 -->
<g id="edge22" class="edge"><title>SP1&#45;&gt;PBX1</title>
<a xlink:title="PBX1: 0.186||remove25root">
<path fill="none" stroke="#b7beff" stroke-width="3" d="M107.883,-279.067C128.302,-258.648 161.513,-225.437 183.969,-202.98"/>
<polygon fill="#b7beff" stroke="#b7beff" points="186.038,-204.871 189.715,-197.234 182.078,-200.911 186.038,-204.871"/>
</a>
</g>
<!-- SP1&#45;&gt;PAX7_NOBOX -->
<g id="edge28" class="edge"><title>SP1&#45;&gt;PAX7_NOBOX</title>
<a xlink:title="NOBOX: 0.036||PAX7: 0.014||remove9root">
<path fill="none" stroke="#edc7ff" stroke-width="3" d="M116.729,-290.007C163.53,-277.467 260.305,-251.536 319.436,-235.692"/>
<polygon fill="#edc7ff" stroke="#edc7ff" points="320.518,-238.301 327.521,-233.525 319.069,-232.891 320.518,-238.301"/>
</a>
</g>
<!-- SP1&#45;&gt;ZEB1 -->
<g id="edge20" class="edge"><title>SP1&#45;&gt;ZEB1</title>
<a xlink:title="ZEB1: 0.081||remove14root">
<path fill="none" stroke="#ebc2ff" stroke-width="3" d="M116.713,-312.845C121.109,-315.383 125.712,-318.041 130.253,-320.663"/>
<polygon fill="#ebc2ff" stroke="#ebc2ff" points="128.971,-323.156 137.3,-324.731 131.771,-318.306 128.971,-323.156"/>
</a>
</g>
<!-- SP1&#45;&gt;SP1 -->
<g id="edge26" class="edge"><title>SP1&#45;&gt;SP1</title>
<a xlink:title="SP1: 0.288||remove25">
<path fill="none" stroke="#e4abff" stroke-width="3" d="M116.941,-303.993C126.724,-304.138 134.7,-301.89 134.7,-297.249 134.7,-293.986 130.757,-291.906 125.015,-291.009"/>
<polygon fill="#e4abff" stroke="#e4abff" points="125.1,-288.209 116.941,-290.506 124.751,-293.798 125.1,-288.209"/>
</a>
</g>
<!-- SP1&#45;&gt;RUNX3_BCL11A -->
<g id="edge36" class="edge"><title>SP1&#45;&gt;RUNX3_BCL11A</title>
<a xlink:title="BCL11A: 0.020||remove5root">
<path fill="none" stroke="#edc9ff" stroke-width="3" d="M79.2425,-279.136C73.8171,-269.739 67.1003,-258.105 61.165,-247.825"/>
<polygon fill="#edc9ff" stroke="#edc9ff" points="63.4359,-246.158 57.0109,-240.63 58.5861,-248.958 63.4359,-246.158"/>
</a>
</g>
<!-- SP3 -->
<g id="node19" class="node"><title>SP3</title>
<a xlink:href="SP3.svg" xlink:title="Z&#45;value: 1.634||remove30">
<polygon fill="#8a96ff" stroke="#8a96ff" stroke-width="2" points="61.5,-154.025 31.5,-154.025 19.5,-142.025 19.5,-130.025 31.5,-118.025 61.5,-118.025 73.5,-130.025 73.5,-142.025 61.5,-154.025"/>
<path fill="#8a96ff" stroke="#8a96ff" stroke-width="2" d="M31.5,-154.025C25.5,-154.025 19.5,-148.025 19.5,-142.025"/>
<path fill="#8a96ff" stroke="#8a96ff" stroke-width="2" d="M19.5,-130.025C19.5,-124.025 25.5,-118.025 31.5,-118.025"/>
<path fill="#8a96ff" stroke="#8a96ff" stroke-width="2" d="M61.5,-118.025C67.5,-118.025 73.5,-124.025 73.5,-130.025"/>
<path fill="#8a96ff" stroke="#8a96ff" stroke-width="2" d="M73.5,-142.025C73.5,-148.025 67.5,-154.025 61.5,-154.025"/>
<polyline fill="none" stroke="white" stroke-width="2" points="61.5,-154.025 31.5,-154.025 "/>
<path fill="none" stroke="white" stroke-width="2" d="M31.5,-154.025C25.5,-154.025 19.5,-148.025 19.5,-142.025"/>
<polyline fill="none" stroke="white" stroke-width="2" points="19.5,-142.025 19.5,-130.025 "/>
<path fill="none" stroke="white" stroke-width="2" d="M19.5,-130.025C19.5,-124.025 25.5,-118.025 31.5,-118.025"/>
<polyline fill="none" stroke="white" stroke-width="2" points="31.5,-118.025 61.5,-118.025 "/>
<path fill="none" stroke="white" stroke-width="2" d="M61.5,-118.025C67.5,-118.025 73.5,-124.025 73.5,-130.025"/>
<polyline fill="none" stroke="white" stroke-width="2" points="73.5,-130.025 73.5,-142.025 "/>
<path fill="none" stroke="white" stroke-width="2" d="M73.5,-142.025C73.5,-148.025 67.5,-154.025 61.5,-154.025"/>
<text text-anchor="middle" x="46.5" y="-133.525" font-family="Helvetica,sans-Serif" font-size="10.00">SP3</text>
</a>
</g>
<!-- SP1&#45;&gt;SP3 -->
<g id="edge24" class="edge"><title>SP1&#45;&gt;SP3</title>
<a xlink:title="SP3: 0.256||SP1: 0.424||remove25">
<path fill="none" stroke="#e5afff" stroke-width="3" d="M97.8279,-270.866C103.197,-251.308 107.553,-223.971 99.4987,-201.882 94.0624,-186.587 83.0093,-172.078 72.4196,-160.767"/>
<path fill="none" stroke="#df9cff" stroke-width="3" d="M99.7567,-271.395C105.172,-251.623 109.528,-224.286 101.381,-201.207 95.6533,-185.375 84.6002,-170.866 73.8801,-159.401"/>
<polygon fill="#df9cff" stroke="#df9cff" points="96.0333,-270.587 96.4511,-279.053 101.404,-272.174 96.0333,-270.587"/>
<polygon fill="#e5afff" stroke="#e5afff" points="74.8978,-157.866 67.3087,-154.092 70.8876,-161.775 74.8978,-157.866"/>
</a>
</g>
<!-- SP1&#45;&gt;FOXD3_FOXI1_FOXF1 -->
<g id="edge32" class="edge"><title>SP1&#45;&gt;FOXD3_FOXI1_FOXF1</title>
<a xlink:title="FOXI1: 0.178||remove18">
<path fill="none" stroke="#e8b7ff" stroke-width="3" d="M94.2827,-278.908C96.6394,-268.534 99.2596,-255.279 100.44,-243.305 105.882,-188.1 98.8494,-123.188 93.8649,-87.6958"/>
<polygon fill="#e8b7ff" stroke="#e8b7ff" points="96.5708,-86.8448 92.6506,-79.33 91.0289,-87.6493 96.5708,-86.8448"/>
</a>
</g>
<!-- SP1&#45;&gt;SOX3_SOX2 -->
<g id="edge34" class="edge"><title>SP1&#45;&gt;SOX3_SOX2</title>
<a xlink:title="SOX2: 0.029||SOX3: 0.015||remove7root">
<path fill="none" stroke="#edc8ff" stroke-width="3" d="M97.1183,-279.209C111.772,-242.704 144.308,-157.158 159.3,-82.08 161.762,-69.7489 163.069,-55.8612 163.761,-44.175"/>
<polygon fill="#edc8ff" stroke="#edc8ff" points="166.561,-44.2381 164.163,-36.1084 160.968,-43.9589 166.561,-44.2381"/>
</a>
</g>
<!-- RUNX3_BCL11A&#45;&gt;PBX1 -->
<g id="edge46" class="edge"><title>RUNX3_BCL11A&#45;&gt;PBX1</title>
<a xlink:title="PBX1: 0.137||remove23root">
<path fill="none" stroke="#bcc3ff" stroke-width="3" d="M93.1328,-209.929C118.423,-203.153 149.174,-194.913 172.452,-188.676"/>
<polygon fill="#bcc3ff" stroke="#bcc3ff" points="173.35,-191.334 180.352,-186.559 171.9,-185.925 173.35,-191.334"/>
</a>
</g>
<!-- RUNX3_BCL11A&#45;&gt;FOXD3_FOXI1_FOXF1 -->
<g id="edge48" class="edge"><title>RUNX3_BCL11A&#45;&gt;FOXD3_FOXI1_FOXF1</title>
<a xlink:title="FOXD3: 0.020||remove4root">
<path fill="none" stroke="#edc9ff" stroke-width="3" d="M57.0618,-204.417C64.0871,-191.595 72.8977,-173.724 77.82,-156.905 84.4972,-134.089 87.4221,-107.141 88.703,-87.6631"/>
<polygon fill="#edc9ff" stroke="#edc9ff" points="91.5059,-87.6922 89.1705,-79.5445 85.9151,-87.3703 91.5059,-87.6922"/>
</a>
</g>
<!-- SP3&#45;&gt;ESRRA_ESR2 -->
<g id="edge56" class="edge"><title>SP3&#45;&gt;ESRRA_ESR2</title>
<a xlink:title="ESRRA: 1.361||ESR2: 0.109||remove22">
<path fill="none" stroke="#bd32ff" stroke-width="3" d="M73.5293,-151.63C123.409,-180.428 230.056,-242 287.394,-275.105"/>
<polygon fill="#bd32ff" stroke="#bd32ff" points="286.143,-277.616 294.472,-279.191 288.944,-272.766 286.143,-277.616"/>
</a>
</g>
<!-- SP3&#45;&gt;PBX1 -->
<g id="edge54" class="edge"><title>SP3&#45;&gt;PBX1</title>
<a xlink:title="PBX1: 0.333||remove30root">
<path fill="none" stroke="#a6afff" stroke-width="3" d="M73.8496,-143.353C101.031,-150.636 142.836,-161.838 172.491,-169.784"/>
<polygon fill="#a6afff" stroke="#a6afff" points="172.058,-172.567 180.51,-171.933 173.508,-167.157 172.058,-172.567"/>
</a>
</g>
<!-- SP3&#45;&gt;PATZ1_KLF4 -->
<g id="edge50" class="edge"><title>SP3&#45;&gt;PATZ1_KLF4</title>
<a xlink:title="PATZ1: 0.077||KLF4: 0.020||remove13root">
<path fill="none" stroke="#ebc3ff" stroke-width="3" d="M64.6413,-154.166C101.616,-191.141 185.684,-275.209 227.042,-316.567"/>
<polygon fill="#ebc3ff" stroke="#ebc3ff" points="225.187,-318.672 232.824,-322.349 229.147,-314.712 225.187,-318.672"/>
</a>
</g>
<!-- SP3&#45;&gt;ZEB1 -->
<g id="edge52" class="edge"><title>SP3&#45;&gt;ZEB1</title>
<a xlink:title="ZEB1: 0.073||remove12root">
<path fill="none" stroke="#ecc3ff" stroke-width="3" d="M63.674,-154.252C75.0156,-166.886 89.7091,-184.448 100.44,-201.545 123.799,-238.76 143.731,-285.889 154.91,-314.574"/>
<polygon fill="#ecc3ff" stroke="#ecc3ff" points="152.34,-315.691 157.826,-322.152 157.566,-313.68 152.34,-315.691"/>
</a>
</g>
<!-- SP3&#45;&gt;RUNX3_BCL11A -->
<g id="edge62" class="edge"><title>SP3&#45;&gt;RUNX3_BCL11A</title>
<a xlink:title="BCL11A: 0.057||RUNX3: 0.055||remove10root">
<path fill="none" stroke="#ecc5ff" stroke-width="3" d="M46.5,-154.348C46.5,-166.572 46.5,-182.828 46.5,-196.389"/>
<polygon fill="#ecc5ff" stroke="#ecc5ff" points="43.7001,-196.424 46.5,-204.424 49.3001,-196.424 43.7001,-196.424"/>
</a>
</g>
<!-- SP3&#45;&gt;FOXD3_FOXI1_FOXF1 -->
<g id="edge58" class="edge"><title>SP3&#45;&gt;FOXD3_FOXI1_FOXF1</title>
<a xlink:title="FOXI1: 0.197||remove18">
<path fill="none" stroke="#e7b5ff" stroke-width="3" d="M56.9575,-117.912C62.3829,-108.515 69.0997,-96.8808 75.035,-86.6005"/>
<polygon fill="#e7b5ff" stroke="#e7b5ff" points="77.6139,-87.7337 79.1891,-79.4055 72.7641,-84.9337 77.6139,-87.7337"/>
</a>
</g>
<!-- SP3&#45;&gt;SOX3_SOX2 -->
<g id="edge60" class="edge"><title>SP3&#45;&gt;SOX3_SOX2</title>
<a xlink:title="SOX3: 0.463||SOX2: 0.124||remove28">
<path fill="none" stroke="#de97ff" stroke-width="3" d="M73.8805,-131.024C100.464,-124.607 139.602,-110.686 159.3,-82.08 166.758,-71.2493 168.458,-56.8159 168.12,-44.3895"/>
<polygon fill="#de97ff" stroke="#de97ff" points="170.901,-43.9859 167.607,-36.1762 165.312,-44.3354 170.901,-43.9859"/>
</a>
</g>
<!-- FOXD3_FOXI1_FOXF1&#45;&gt;PBX1 -->
<g id="edge64" class="edge"><title>FOXD3_FOXI1_FOXF1&#45;&gt;PBX1</title>
<a xlink:title="PBX1: 0.102||remove18root">
<path fill="none" stroke="#c0c6ff" stroke-width="3" d="M107.883,-79.3827C128.302,-99.8017 161.513,-133.013 183.969,-155.469"/>
<polygon fill="#c0c6ff" stroke="#c0c6ff" points="182.078,-157.538 189.715,-161.215 186.038,-153.578 182.078,-157.538"/>
</a>
</g>
<!-- SOX3_SOX2&#45;&gt;PBX1 -->
<g id="edge68" class="edge"><title>SOX3_SOX2&#45;&gt;PBX1</title>
<a xlink:title="PBX1: 0.207||remove28root">
<path fill="none" stroke="#b4bcff" stroke-width="3" d="M169.396,-36.1811C177.045,-64.7264 191.904,-120.183 200.706,-153.029"/>
<polygon fill="#b4bcff" stroke="#b4bcff" points="198.029,-153.86 202.805,-160.863 203.438,-152.41 198.029,-153.86"/>
</a>
</g>
<!-- SOX3_SOX2&#45;&gt;PATZ1_KLF4 -->
<g id="edge66" class="edge"><title>SOX3_SOX2&#45;&gt;PATZ1_KLF4</title>
<a xlink:title="PATZ1: 0.010||remove1root">
<path fill="none" stroke="#eecaff" stroke-width="3" d="M177.624,-36.4267C195.19,-62.2629 225.708,-111.372 239.045,-158.345 254.305,-212.096 254.178,-278.214 252.621,-314.15"/>
<polygon fill="#eecaff" stroke="#eecaff" points="249.823,-314.061 252.227,-322.188 255.416,-314.335 249.823,-314.061"/>
</a>
</g>
<!-- SOX3_SOX2&#45;&gt;SOX3_SOX2 -->
<g id="edge70" class="edge"><title>SOX3_SOX2&#45;&gt;SOX3_SOX2</title>
<a xlink:title="SOX2: 0.005||remove0root">
<path fill="none" stroke="#eecbff" stroke-width="3" d="M201.54,-24.7088C211.734,-24.3847 219.525,-22.1484 219.525,-18 219.525,-15.0831 215.673,-13.1116 209.843,-12.0854"/>
<polygon fill="#eecbff" stroke="#eecbff" points="209.77,-9.2658 201.54,-11.2912 209.237,-14.8404 209.77,-9.2658"/>
</a>
</g>
<!-- HNF4G -->
<g id="node46" class="node"><title>HNF4G</title>
<a xlink:href="HNF4G.svg" xlink:title="Z&#45;value: 0.704||remove21">
<polygon fill="#afb7ff" stroke="#afb7ff" stroke-width="2" points="265.925,-36 235.925,-36 223.925,-24 223.925,-12 235.925,-0 265.925,-0 277.925,-12 277.925,-24 265.925,-36"/>
<path fill="#afb7ff" stroke="#afb7ff" stroke-width="2" d="M235.925,-36C229.925,-36 223.925,-30 223.925,-24"/>
<path fill="#afb7ff" stroke="#afb7ff" stroke-width="2" d="M223.925,-12C223.925,-6 229.925,-0 235.925,-0"/>
<path fill="#afb7ff" stroke="#afb7ff" stroke-width="2" d="M265.925,-0C271.925,-0 277.925,-6 277.925,-12"/>
<path fill="#afb7ff" stroke="#afb7ff" stroke-width="2" d="M277.925,-24C277.925,-30 271.925,-36 265.925,-36"/>
<polyline fill="none" stroke="white" stroke-width="2" points="265.925,-36 235.925,-36 "/>
<path fill="none" stroke="white" stroke-width="2" d="M235.925,-36C229.925,-36 223.925,-30 223.925,-24"/>
<polyline fill="none" stroke="white" stroke-width="2" points="223.925,-24 223.925,-12 "/>
<path fill="none" stroke="white" stroke-width="2" d="M223.925,-12C223.925,-6 229.925,-0 235.925,-0"/>
<polyline fill="none" stroke="white" stroke-width="2" points="235.925,-0 265.925,-0 "/>
<path fill="none" stroke="white" stroke-width="2" d="M265.925,-0C271.925,-0 277.925,-6 277.925,-12"/>
<polyline fill="none" stroke="white" stroke-width="2" points="277.925,-12 277.925,-24 "/>
<path fill="none" stroke="white" stroke-width="2" d="M277.925,-24C277.925,-30 271.925,-36 265.925,-36"/>
<text text-anchor="middle" x="250.925" y="-15.5" font-family="Helvetica,sans-Serif" font-size="10.00">HNF4G</text>
</a>
</g>
<!-- HNF4G&#45;&gt;ESRRA_ESR2 -->
<g id="edge74" class="edge"><title>HNF4G&#45;&gt;ESRRA_ESR2</title>
<a xlink:title="ESRRA: 0.024||remove6root">
<path fill="none" stroke="#edc9ff" stroke-width="3" d="M255.834,-36.3223C268.761,-84.5654 303.771,-215.227 318.773,-271.212"/>
<polygon fill="#edc9ff" stroke="#edc9ff" points="316.144,-272.22 320.919,-279.222 321.553,-270.77 316.144,-272.22"/>
</a>
</g>
<!-- HNF4G&#45;&gt;PBX1 -->
<g id="edge72" class="edge"><title>HNF4G&#45;&gt;PBX1</title>
<a xlink:title="PBX1: 0.114||remove21root">
<path fill="none" stroke="#bfc5ff" stroke-width="3" d="M246.053,-36.1811C238.404,-64.7264 223.545,-120.183 214.744,-153.029"/>
<polygon fill="#bfc5ff" stroke="#bfc5ff" points="212.011,-152.41 212.645,-160.863 217.42,-153.86 212.011,-152.41"/>
</a>
</g>
<!-- KLF1 -->
<g id="node49" class="node"><title>KLF1</title>
<a xlink:href="KLF1.svg" xlink:title="Z&#45;value: 0.684||remove20">
<polygon fill="#b0b8ff" stroke="#b0b8ff" stroke-width="2" points="340.749,-79.2 310.749,-79.2 298.749,-67.2 298.749,-55.2 310.749,-43.2 340.749,-43.2 352.749,-55.2 352.749,-67.2 340.749,-79.2"/>
<path fill="#b0b8ff" stroke="#b0b8ff" stroke-width="2" d="M310.749,-79.2C304.749,-79.2 298.749,-73.2 298.749,-67.2"/>
<path fill="#b0b8ff" stroke="#b0b8ff" stroke-width="2" d="M298.749,-55.2C298.749,-49.2 304.749,-43.2 310.749,-43.2"/>
<path fill="#b0b8ff" stroke="#b0b8ff" stroke-width="2" d="M340.749,-43.2C346.749,-43.2 352.749,-49.2 352.749,-55.2"/>
<path fill="#b0b8ff" stroke="#b0b8ff" stroke-width="2" d="M352.749,-67.2C352.749,-73.2 346.749,-79.2 340.749,-79.2"/>
<polyline fill="none" stroke="white" stroke-width="2" points="340.749,-79.2 310.749,-79.2 "/>
<path fill="none" stroke="white" stroke-width="2" d="M310.749,-79.2C304.749,-79.2 298.749,-73.2 298.749,-67.2"/>
<polyline fill="none" stroke="white" stroke-width="2" points="298.749,-67.2 298.749,-55.2 "/>
<path fill="none" stroke="white" stroke-width="2" d="M298.749,-55.2C298.749,-49.2 304.749,-43.2 310.749,-43.2"/>
<polyline fill="none" stroke="white" stroke-width="2" points="310.749,-43.2 340.749,-43.2 "/>
<path fill="none" stroke="white" stroke-width="2" d="M340.749,-43.2C346.749,-43.2 352.749,-49.2 352.749,-55.2"/>
<polyline fill="none" stroke="white" stroke-width="2" points="352.749,-55.2 352.749,-67.2 "/>
<path fill="none" stroke="white" stroke-width="2" d="M352.749,-67.2C352.749,-73.2 346.749,-79.2 340.749,-79.2"/>
<text text-anchor="middle" x="325.749" y="-58.7" font-family="Helvetica,sans-Serif" font-size="10.00">KLF1</text>
</a>
</g>
<!-- KLF1&#45;&gt;PBX1 -->
<g id="edge78" class="edge"><title>KLF1&#45;&gt;PBX1</title>
<a xlink:title="PBX1: 0.110||remove20root">
<path fill="none" stroke="#bfc5ff" stroke-width="3" d="M307.567,-79.3827C287.148,-99.8017 253.937,-133.013 231.48,-155.469"/>
<polygon fill="#bfc5ff" stroke="#bfc5ff" points="229.411,-153.578 225.734,-161.215 233.371,-157.538 229.411,-153.578"/>
</a>
</g>
<!-- KLF1&#45;&gt;ZEB1 -->
<g id="edge76" class="edge"><title>KLF1&#45;&gt;ZEB1</title>
<a xlink:title="ZEB1: 0.091||remove16root">
<path fill="none" stroke="#ebc1ff" stroke-width="3" d="M315.171,-79.5223C287.146,-128.063 210.949,-260.04 178.965,-315.438"/>
<polygon fill="#ebc1ff" stroke="#ebc1ff" points="176.508,-314.094 174.932,-322.422 181.357,-316.894 176.508,-314.094"/>
</a>
</g>
<!-- KLF1&#45;&gt;FOXD3_FOXI1_FOXF1 -->
<g id="edge80" class="edge"><title>KLF1&#45;&gt;FOXD3_FOXI1_FOXF1</title>
<a xlink:title="FOXI1: 0.061||remove11root">
<path fill="none" stroke="#ecc5ff" stroke-width="3" d="M298.671,-61.2C264.443,-61.2 204.321,-61.2 157.325,-61.2"/>
<polygon fill="#ecc5ff" stroke="#ecc5ff" points="157.308,-58.3999 149.308,-61.2 157.308,-63.9999 157.308,-58.3999"/>
</a>
</g>
<!-- KLF1&#45;&gt;SOX3_SOX2 -->
<g id="edge82" class="edge"><title>KLF1&#45;&gt;SOX3_SOX2</title>
<a xlink:title="SOX2: 0.030||remove8root">
<path fill="none" stroke="#edc8ff" stroke-width="3" d="M298.413,-56.6572C276.804,-52.7781 245.99,-46.6047 219.605,-38.88 216.2,-37.8833 212.707,-36.7734 209.212,-35.5992"/>
<polygon fill="#edc8ff" stroke="#edc8ff" points="210.066,-32.9318 201.59,-32.945 208.224,-38.2203 210.066,-32.9318"/>
</a>
</g>
<!-- GLI3 -->
<g id="node54" class="node"><title>GLI3</title>
<a xlink:href="GLI3.svg" xlink:title="Z&#45;value: 0.646||remove19">
<polygon fill="#b2b9ff" stroke="#b2b9ff" stroke-width="2" points="383.949,-154.025 353.949,-154.025 341.949,-142.025 341.949,-130.025 353.949,-118.025 383.949,-118.025 395.949,-130.025 395.949,-142.025 383.949,-154.025"/>
<path fill="#b2b9ff" stroke="#b2b9ff" stroke-width="2" d="M353.949,-154.025C347.949,-154.025 341.949,-148.025 341.949,-142.025"/>
<path fill="#b2b9ff" stroke="#b2b9ff" stroke-width="2" d="M341.949,-130.025C341.949,-124.025 347.949,-118.025 353.949,-118.025"/>
<path fill="#b2b9ff" stroke="#b2b9ff" stroke-width="2" d="M383.949,-118.025C389.949,-118.025 395.949,-124.025 395.949,-130.025"/>
<path fill="#b2b9ff" stroke="#b2b9ff" stroke-width="2" d="M395.949,-142.025C395.949,-148.025 389.949,-154.025 383.949,-154.025"/>
<polyline fill="none" stroke="white" stroke-width="2" points="383.949,-154.025 353.949,-154.025 "/>
<path fill="none" stroke="white" stroke-width="2" d="M353.949,-154.025C347.949,-154.025 341.949,-148.025 341.949,-142.025"/>
<polyline fill="none" stroke="white" stroke-width="2" points="341.949,-142.025 341.949,-130.025 "/>
<path fill="none" stroke="white" stroke-width="2" d="M341.949,-130.025C341.949,-124.025 347.949,-118.025 353.949,-118.025"/>
<polyline fill="none" stroke="white" stroke-width="2" points="353.949,-118.025 383.949,-118.025 "/>
<path fill="none" stroke="white" stroke-width="2" d="M383.949,-118.025C389.949,-118.025 395.949,-124.025 395.949,-130.025"/>
<polyline fill="none" stroke="white" stroke-width="2" points="395.949,-130.025 395.949,-142.025 "/>
<path fill="none" stroke="white" stroke-width="2" d="M395.949,-142.025C395.949,-148.025 389.949,-154.025 383.949,-154.025"/>
<text text-anchor="middle" x="368.949" y="-133.525" font-family="Helvetica,sans-Serif" font-size="10.00">GLI3</text>
</a>
</g>
<!-- GLI3&#45;&gt;PBX1 -->
<g id="edge84" class="edge"><title>GLI3&#45;&gt;PBX1</title>
<a xlink:title="PBX1: 0.107||remove19root">
<path fill="none" stroke="#bfc6ff" stroke-width="3" d="M341.6,-143.353C314.418,-150.636 272.613,-161.838 242.958,-169.784"/>
<polygon fill="#bfc6ff" stroke="#bfc6ff" points="241.941,-167.157 234.939,-171.933 243.391,-172.567 241.941,-167.157"/>
</a>
</g>
</g>
</svg>
