<?xml version="1.0" ?><!DOCTYPE svg  PUBLIC '-//W3C//DTD SVG 1.1//EN'  'http://www.w3.org/Graphics/SVG/1.1/DTD/svg11.dtd'><!-- Generated by graphviz version 2.28.0 (20110630.0925)
 --><!-- Title: _anonymous_0 Pages: 1 --><svg height="609pt" onload="init(evt)" width="755pt" xmlns="http://www.w3.org/2000/svg" xmlns:ismara="ismara.unibas.ch" xmlns:xlink="http://www.w3.org/1999/xlink">
<g class="graph" id="graph1" transform="scale(1 1) rotate(0) translate(54 555.023)">

<polygon fill="white" points="-4,5 -4,-555.023 602.023,-555.023 602.023,5 -4,5" stroke="white"/>
<!-- SP4_PML -->
<g class="node" id="node1">
<a class="remove14" onmousemove="ShowTooltip(evt, 'Z-value: 1.603')" onmouseout="HideTooltip(evt)" xlink:href="SP4_PML.svg">
<polygon fill="#3247ff" points="491.273,-105 454.773,-105 442.773,-93 442.773,-81 454.773,-69 491.273,-69 503.273,-81 503.273,-93 491.273,-105" stroke="#3247ff" stroke-width="2"/>
<path d="M454.773,-105C448.773,-105 442.773,-99 442.773,-93" fill="#3247ff" stroke="#3247ff" stroke-width="2"/>
<path d="M442.773,-81C442.773,-75 448.773,-69 454.773,-69" fill="#3247ff" stroke="#3247ff" stroke-width="2"/>
<path d="M491.273,-69C497.273,-69 503.273,-75 503.273,-81" fill="#3247ff" stroke="#3247ff" stroke-width="2"/>
<path d="M503.273,-93C503.273,-99 497.273,-105 491.273,-105" fill="#3247ff" stroke="#3247ff" stroke-width="2"/>
<polyline fill="none" points="491.273,-105 454.773,-105 " stroke="white" stroke-width="2"/>
<path d="M454.773,-105C448.773,-105 442.773,-99 442.773,-93" fill="none" stroke="white" stroke-width="2"/>
<polyline fill="none" points="442.773,-93 442.773,-81 " stroke="white" stroke-width="2"/>
<path d="M442.773,-81C442.773,-75 448.773,-69 454.773,-69" fill="none" stroke="white" stroke-width="2"/>
<polyline fill="none" points="454.773,-69 491.273,-69 " stroke="white" stroke-width="2"/>
<path d="M491.273,-69C497.273,-69 503.273,-75 503.273,-81" fill="none" stroke="white" stroke-width="2"/>
<polyline fill="none" points="503.273,-81 503.273,-93 " stroke="white" stroke-width="2"/>
<path d="M503.273,-93C503.273,-99 497.273,-105 491.273,-105" fill="none" stroke="white" stroke-width="2"/>
<text fill="white" font-family="Helvetica,sans-Serif" font-size="10.00" text-anchor="middle" x="473.023" y="-84.5">SP4_PML</text>
</a>
</g>
<!-- SP4_PML&#45;&gt;SP4_PML -->
<g class="edge" id="edge10">
<a class="remove9 root" ismara:data="0.061" onmousemove="ShowTooltip(evt, 'SP4: 0.061')" onmouseout="HideTooltip(evt)">
<path d="M503.808,-93.7484C513.69,-93.6791 521.523,-91.4297 521.523,-87 521.523,-83.8854 517.651,-81.8486 511.916,-80.8898" fill="none" stroke="#e8b9ff" stroke-width="3"/>
<polygon fill="#e8b9ff" points="512.003,-78.088 503.808,-80.2517 511.563,-83.6707 512.003,-78.088" stroke="#e8b9ff"/>
</a>
</g>
<!-- ZNF423 -->
<g class="node" id="node2">
<a class="remove18" onmousemove="ShowTooltip(evt, 'Z-value: 0.368')" onmouseout="HideTooltip(evt)" xlink:href="ZNF423.svg">
<polygon fill="#a8b1ff" points="557.023,-362.512 527.023,-362.512 515.023,-350.512 515.023,-338.512 527.023,-326.512 557.023,-326.512 569.023,-338.512 569.023,-350.512 557.023,-362.512" stroke="#a8b1ff" stroke-width="2"/>
<path d="M527.023,-362.512C521.023,-362.512 515.023,-356.512 515.023,-350.512" fill="#a8b1ff" stroke="#a8b1ff" stroke-width="2"/>
<path d="M515.023,-338.512C515.023,-332.512 521.023,-326.512 527.023,-326.512" fill="#a8b1ff" stroke="#a8b1ff" stroke-width="2"/>
<path d="M557.023,-326.512C563.023,-326.512 569.023,-332.512 569.023,-338.512" fill="#a8b1ff" stroke="#a8b1ff" stroke-width="2"/>
<path d="M569.023,-350.512C569.023,-356.512 563.023,-362.512 557.023,-362.512" fill="#a8b1ff" stroke="#a8b1ff" stroke-width="2"/>
<polyline fill="none" points="557.023,-362.512 527.023,-362.512 " stroke="white" stroke-width="2"/>
<path d="M527.023,-362.512C521.023,-362.512 515.023,-356.512 515.023,-350.512" fill="none" stroke="white" stroke-width="2"/>
<polyline fill="none" points="515.023,-350.512 515.023,-338.512 " stroke="white" stroke-width="2"/>
<path d="M515.023,-338.512C515.023,-332.512 521.023,-326.512 527.023,-326.512" fill="none" stroke="white" stroke-width="2"/>
<polyline fill="none" points="527.023,-326.512 557.023,-326.512 " stroke="white" stroke-width="2"/>
<path d="M557.023,-326.512C563.023,-326.512 569.023,-332.512 569.023,-338.512" fill="none" stroke="white" stroke-width="2"/>
<polyline fill="none" points="569.023,-338.512 569.023,-350.512 " stroke="white" stroke-width="2"/>
<path d="M569.023,-350.512C569.023,-356.512 563.023,-362.512 557.023,-362.512" fill="none" stroke="white" stroke-width="2"/>
<text font-family="Helvetica,sans-Serif" font-size="10.00" text-anchor="middle" x="542.023" y="-342.012">ZNF423</text>
</a>
</g>
<!-- SP4_PML&#45;&gt;ZNF423 -->
<g class="edge" id="edge2">
<a class="remove13 root" ismara:data="0.208" onmousemove="ShowTooltip(evt, 'ZNF423: 0.208')" onmouseout="HideTooltip(evt)">
<path d="M475.436,-105.394C479.207,-132.431 487.31,-184.355 499.103,-227.392 507.896,-259.479 521.593,-295.234 531.141,-318.699" fill="none" stroke="#da8bff" stroke-width="3"/>
<polygon fill="#da8bff" points="528.577,-319.826 534.207,-326.162 533.757,-317.698 528.577,-319.826" stroke="#da8bff"/>
</a>
</g>
<!-- ESRRB_ESRRG -->
<g class="node" id="node4">
<a class="remove21" onmousemove="ShowTooltip(evt, 'Z-value: 0.825')" onmouseout="HideTooltip(evt)" xlink:href="ESRRB_ESRRG.svg">
<polygon fill="#7d8aff" points="507.273,-482.023 438.773,-482.023 426.773,-470.023 426.773,-458.023 438.773,-446.023 507.273,-446.023 519.273,-458.023 519.273,-470.023 507.273,-482.023" stroke="#7d8aff" stroke-width="2"/>
<path d="M438.773,-482.023C432.773,-482.023 426.773,-476.023 426.773,-470.023" fill="#7d8aff" stroke="#7d8aff" stroke-width="2"/>
<path d="M426.773,-458.023C426.773,-452.023 432.773,-446.023 438.773,-446.023" fill="#7d8aff" stroke="#7d8aff" stroke-width="2"/>
<path d="M507.273,-446.023C513.273,-446.023 519.273,-452.023 519.273,-458.023" fill="#7d8aff" stroke="#7d8aff" stroke-width="2"/>
<path d="M519.273,-470.023C519.273,-476.023 513.273,-482.023 507.273,-482.023" fill="#7d8aff" stroke="#7d8aff" stroke-width="2"/>
<polyline fill="none" points="507.273,-482.023 438.773,-482.023 " stroke="white" stroke-width="2"/>
<path d="M438.773,-482.023C432.773,-482.023 426.773,-476.023 426.773,-470.023" fill="none" stroke="white" stroke-width="2"/>
<polyline fill="none" points="426.773,-470.023 426.773,-458.023 " stroke="white" stroke-width="2"/>
<path d="M426.773,-458.023C426.773,-452.023 432.773,-446.023 438.773,-446.023" fill="none" stroke="white" stroke-width="2"/>
<polyline fill="none" points="438.773,-446.023 507.273,-446.023 " stroke="white" stroke-width="2"/>
<path d="M507.273,-446.023C513.273,-446.023 519.273,-452.023 519.273,-458.023" fill="none" stroke="white" stroke-width="2"/>
<polyline fill="none" points="519.273,-458.023 519.273,-470.023 " stroke="white" stroke-width="2"/>
<path d="M519.273,-470.023C519.273,-476.023 513.273,-482.023 507.273,-482.023" fill="none" stroke="white" stroke-width="2"/>
<text font-family="Helvetica,sans-Serif" font-size="10.00" text-anchor="middle" x="473.023" y="-461.523">ESRRB_ESRRG</text>
</a>
</g>
<!-- SP4_PML&#45;&gt;ESRRB_ESRRG -->
<g class="edge" id="edge4">
<a class="remove10 root" ismara:data="0.084" onmousemove="ShowTooltip(evt, 'ESRRG: 0.084')" onmouseout="HideTooltip(evt)">
<path d="M473.023,-105.185C473.023,-166.529 473.023,-366.021 473.023,-437.905" fill="none" stroke="#e6b1ff" stroke-width="3"/>
<polygon fill="#e6b1ff" points="470.223,-438.021 473.023,-446.021 475.823,-438.021 470.223,-438.021" stroke="#e6b1ff"/>
</a>
</g>
<!-- RFX3_RFX2 -->
<g class="node" id="node6">
<a class="remove25" onmousemove="ShowTooltip(evt, 'Z-value: 0.994')" onmouseout="HideTooltip(evt)" xlink:href="RFX3_RFX2.svg">
<polygon fill="#6d7bff" points="377.762,-551.023 329.262,-551.023 317.262,-539.023 317.262,-527.023 329.262,-515.023 377.762,-515.023 389.762,-527.023 389.762,-539.023 377.762,-551.023" stroke="#6d7bff" stroke-width="2"/>
<path d="M329.262,-551.023C323.262,-551.023 317.262,-545.023 317.262,-539.023" fill="#6d7bff" stroke="#6d7bff" stroke-width="2"/>
<path d="M317.262,-527.023C317.262,-521.023 323.262,-515.023 329.262,-515.023" fill="#6d7bff" stroke="#6d7bff" stroke-width="2"/>
<path d="M377.762,-515.023C383.762,-515.023 389.762,-521.023 389.762,-527.023" fill="#6d7bff" stroke="#6d7bff" stroke-width="2"/>
<path d="M389.762,-539.023C389.762,-545.023 383.762,-551.023 377.762,-551.023" fill="#6d7bff" stroke="#6d7bff" stroke-width="2"/>
<polyline fill="none" points="377.762,-551.023 329.262,-551.023 " stroke="white" stroke-width="2"/>
<path d="M329.262,-551.023C323.262,-551.023 317.262,-545.023 317.262,-539.023" fill="none" stroke="white" stroke-width="2"/>
<polyline fill="none" points="317.262,-539.023 317.262,-527.023 " stroke="white" stroke-width="2"/>
<path d="M317.262,-527.023C317.262,-521.023 323.262,-515.023 329.262,-515.023" fill="none" stroke="white" stroke-width="2"/>
<polyline fill="none" points="329.262,-515.023 377.762,-515.023 " stroke="white" stroke-width="2"/>
<path d="M377.762,-515.023C383.762,-515.023 389.762,-521.023 389.762,-527.023" fill="none" stroke="white" stroke-width="2"/>
<polyline fill="none" points="389.762,-527.023 389.762,-539.023 " stroke="white" stroke-width="2"/>
<path d="M389.762,-539.023C389.762,-545.023 383.762,-551.023 377.762,-551.023" fill="none" stroke="white" stroke-width="2"/>
<text fill="white" font-family="Helvetica,sans-Serif" font-size="10.00" text-anchor="middle" x="353.512" y="-530.523">RFX3_RFX2</text>
</a>
</g>
<!-- SP4_PML&#45;&gt;RFX3_RFX2 -->
<g class="edge" id="edge6">
<a class="remove2 root" ismara:data="0.007" onmousemove="ShowTooltip(evt, 'RFX2: 0.007')" onmouseout="HideTooltip(evt)">
<path d="M468.19,-105.037C449.571,-174.523 382.439,-425.065 360.501,-506.937" fill="none" stroke="#edc9ff" stroke-width="3"/>
<polygon fill="#edc9ff" points="357.771,-506.309 358.405,-514.762 363.18,-507.759 357.771,-506.309" stroke="#edc9ff"/>
</a>
</g>
<!-- SOX3_SOX2 -->
<g class="node" id="node8">
<a class="remove24" onmousemove="ShowTooltip(evt, 'Z-value: 0.860')" onmouseout="HideTooltip(evt)" xlink:href="SOX3_SOX2.svg">
<polygon fill="#7987ff" points="567.023,-224.512 517.023,-224.512 505.023,-212.512 505.023,-200.512 517.023,-188.512 567.023,-188.512 579.023,-200.512 579.023,-212.512 567.023,-224.512" stroke="#7987ff" stroke-width="2"/>
<path d="M517.023,-224.512C511.023,-224.512 505.023,-218.512 505.023,-212.512" fill="#7987ff" stroke="#7987ff" stroke-width="2"/>
<path d="M505.023,-200.512C505.023,-194.512 511.023,-188.512 517.023,-188.512" fill="#7987ff" stroke="#7987ff" stroke-width="2"/>
<path d="M567.023,-188.512C573.023,-188.512 579.023,-194.512 579.023,-200.512" fill="#7987ff" stroke="#7987ff" stroke-width="2"/>
<path d="M579.023,-212.512C579.023,-218.512 573.023,-224.512 567.023,-224.512" fill="#7987ff" stroke="#7987ff" stroke-width="2"/>
<polyline fill="none" points="567.023,-224.512 517.023,-224.512 " stroke="white" stroke-width="2"/>
<path d="M517.023,-224.512C511.023,-224.512 505.023,-218.512 505.023,-212.512" fill="none" stroke="white" stroke-width="2"/>
<polyline fill="none" points="505.023,-212.512 505.023,-200.512 " stroke="white" stroke-width="2"/>
<path d="M505.023,-200.512C505.023,-194.512 511.023,-188.512 517.023,-188.512" fill="none" stroke="white" stroke-width="2"/>
<polyline fill="none" points="517.023,-188.512 567.023,-188.512 " stroke="white" stroke-width="2"/>
<path d="M567.023,-188.512C573.023,-188.512 579.023,-194.512 579.023,-200.512" fill="none" stroke="white" stroke-width="2"/>
<polyline fill="none" points="579.023,-200.512 579.023,-212.512 " stroke="white" stroke-width="2"/>
<path d="M579.023,-212.512C579.023,-218.512 573.023,-224.512 567.023,-224.512" fill="none" stroke="white" stroke-width="2"/>
<text font-family="Helvetica,sans-Serif" font-size="10.00" text-anchor="middle" x="542.023" y="-204.012">SOX3_SOX2</text>
</a>
</g>
<!-- SP4_PML&#45;&gt;SOX3_SOX2 -->
<g class="edge" id="edge8">
<a class="remove14" ismara:data="0.35" onmousemove="ShowTooltip(evt, 'SOX3: 0.350|SOX2: 0.050')" onmouseout="HideTooltip(evt)">
<path d="M483.503,-105.151C495.205,-125.42 514.227,-158.368 527.393,-181.171" fill="none" stroke="#cc5fff" stroke-width="3"/>
<polygon fill="#cc5fff" points="525.02,-182.661 531.445,-188.189 529.87,-179.861 525.02,-182.661" stroke="#cc5fff"/>
</a>
</g>
<!-- ZBTB33_CHD2 -->
<g class="node" id="node11">
<a class="remove16" onmousemove="ShowTooltip(evt, 'Z-value: 1.181')" onmouseout="HideTooltip(evt)" xlink:href="ZBTB33_CHD2.svg">
<polygon fill="#5b6bff" points="246.512,-551.023 184.512,-551.023 172.512,-539.023 172.512,-527.023 184.512,-515.023 246.512,-515.023 258.512,-527.023 258.512,-539.023 246.512,-551.023" stroke="#5b6bff" stroke-width="2"/>
<path d="M184.512,-551.023C178.512,-551.023 172.512,-545.023 172.512,-539.023" fill="#5b6bff" stroke="#5b6bff" stroke-width="2"/>
<path d="M172.512,-527.023C172.512,-521.023 178.512,-515.023 184.512,-515.023" fill="#5b6bff" stroke="#5b6bff" stroke-width="2"/>
<path d="M246.512,-515.023C252.512,-515.023 258.512,-521.023 258.512,-527.023" fill="#5b6bff" stroke="#5b6bff" stroke-width="2"/>
<path d="M258.512,-539.023C258.512,-545.023 252.512,-551.023 246.512,-551.023" fill="#5b6bff" stroke="#5b6bff" stroke-width="2"/>
<polyline fill="none" points="246.512,-551.023 184.512,-551.023 " stroke="white" stroke-width="2"/>
<path d="M184.512,-551.023C178.512,-551.023 172.512,-545.023 172.512,-539.023" fill="none" stroke="white" stroke-width="2"/>
<polyline fill="none" points="172.512,-539.023 172.512,-527.023 " stroke="white" stroke-width="2"/>
<path d="M172.512,-527.023C172.512,-521.023 178.512,-515.023 184.512,-515.023" fill="none" stroke="white" stroke-width="2"/>
<polyline fill="none" points="184.512,-515.023 246.512,-515.023 " stroke="white" stroke-width="2"/>
<path d="M246.512,-515.023C252.512,-515.023 258.512,-521.023 258.512,-527.023" fill="none" stroke="white" stroke-width="2"/>
<polyline fill="none" points="258.512,-527.023 258.512,-539.023 " stroke="white" stroke-width="2"/>
<path d="M258.512,-539.023C258.512,-545.023 252.512,-551.023 246.512,-551.023" fill="none" stroke="white" stroke-width="2"/>
<text fill="white" font-family="Helvetica,sans-Serif" font-size="10.00" text-anchor="middle" x="215.512" y="-530.523">ZBTB33_CHD2</text>
</a>
</g>
<!-- SP4_PML&#45;&gt;ZBTB33_CHD2 -->
<g class="edge" id="edge12">
<a class="remove7 root" ismara:data="0.044" onmousemove="ShowTooltip(evt, 'CHD2: 0.044|ZBTB33: 0.021')" onmouseout="HideTooltip(evt)">
<path d="M462.609,-105.037C422.41,-174.664 277.256,-426.078 230.287,-507.431" fill="none" stroke="#eabeff" stroke-width="3"/>
<polygon fill="#eabeff" points="227.63,-506.433 226.055,-514.762 232.48,-509.233 227.63,-506.433" stroke="#eabeff"/>
</a>
</g>
<!-- SMAD1 -->
<g class="node" id="node13">
<a class="remove26" onmousemove="ShowTooltip(evt, 'Z-value: 1.536')" onmouseout="HideTooltip(evt)" xlink:href="SMAD1.svg">
<polygon fill="#ff3939" points="299.512,-293.512 269.512,-293.512 257.512,-281.512 257.512,-269.512 269.512,-257.512 299.512,-257.512 311.512,-269.512 311.512,-281.512 299.512,-293.512" stroke="#ff3939" stroke-width="2"/>
<path d="M269.512,-293.512C263.512,-293.512 257.512,-287.512 257.512,-281.512" fill="#ff3939" stroke="#ff3939" stroke-width="2"/>
<path d="M257.512,-269.512C257.512,-263.512 263.512,-257.512 269.512,-257.512" fill="#ff3939" stroke="#ff3939" stroke-width="2"/>
<path d="M299.512,-257.512C305.512,-257.512 311.512,-263.512 311.512,-269.512" fill="#ff3939" stroke="#ff3939" stroke-width="2"/>
<path d="M311.512,-281.512C311.512,-287.512 305.512,-293.512 299.512,-293.512" fill="#ff3939" stroke="#ff3939" stroke-width="2"/>
<polyline fill="none" points="299.512,-293.512 269.512,-293.512 " stroke="white" stroke-width="2"/>
<path d="M269.512,-293.512C263.512,-293.512 257.512,-287.512 257.512,-281.512" fill="none" stroke="white" stroke-width="2"/>
<polyline fill="none" points="257.512,-281.512 257.512,-269.512 " stroke="white" stroke-width="2"/>
<path d="M257.512,-269.512C257.512,-263.512 263.512,-257.512 269.512,-257.512" fill="none" stroke="white" stroke-width="2"/>
<polyline fill="none" points="269.512,-257.512 299.512,-257.512 " stroke="white" stroke-width="2"/>
<path d="M299.512,-257.512C305.512,-257.512 311.512,-263.512 311.512,-269.512" fill="none" stroke="white" stroke-width="2"/>
<polyline fill="none" points="311.512,-269.512 311.512,-281.512 " stroke="white" stroke-width="2"/>
<path d="M311.512,-281.512C311.512,-287.512 305.512,-293.512 299.512,-293.512" fill="none" stroke="white" stroke-width="2"/>
<text fill="white" font-family="Helvetica,sans-Serif" font-size="10.00" text-anchor="middle" x="284.512" y="-273.012">SMAD1</text>
</a>
</g>
<!-- SP4_PML&#45;&gt;SMAD1 -->
<g class="edge" id="edge14">
<a class="remove14 root" ismara:data="0.26" onmousemove="ShowTooltip(evt, 'SMAD1: 0.025|PML: 0.260')" onmouseout="HideTooltip(evt)">
<path d="M449.834,-111.603C413.664,-147.773 345.404,-216.033 309.19,-252.247" fill="none" stroke="#c4caff" stroke-width="3"/>
<path d="M448.42,-110.189C412.25,-146.359 343.99,-214.619 307.776,-250.833" fill="none" stroke="#ff7b7b" stroke-width="3"/>
<polygon fill="#ff7b7b" points="451.271,-112.712 454.948,-105.075 447.311,-108.752 451.271,-112.712" stroke="#ff7b7b"/>
<polygon fill="#c4caff" points="306.209,-249.854 302.532,-257.491 310.169,-253.814 306.209,-249.854" stroke="#c4caff"/>
</a>
</g>
<!-- CREB5_CREM_JUNB -->
<g class="node" id="node15">
<a class="remove23" onmousemove="ShowTooltip(evt, 'Z-value: 0.521')" onmouseout="HideTooltip(evt)" xlink:href="CREB5_CREM_JUNB.svg">
<polygon fill="#9aa4ff" points="143,-482.023 49,-482.023 37,-470.023 37,-458.023 49,-446.023 143,-446.023 155,-458.023 155,-470.023 143,-482.023" stroke="#9aa4ff" stroke-width="2"/>
<path d="M49,-482.023C43,-482.023 37,-476.023 37,-470.023" fill="#9aa4ff" stroke="#9aa4ff" stroke-width="2"/>
<path d="M37,-458.023C37,-452.023 43,-446.023 49,-446.023" fill="#9aa4ff" stroke="#9aa4ff" stroke-width="2"/>
<path d="M143,-446.023C149,-446.023 155,-452.023 155,-458.023" fill="#9aa4ff" stroke="#9aa4ff" stroke-width="2"/>
<path d="M155,-470.023C155,-476.023 149,-482.023 143,-482.023" fill="#9aa4ff" stroke="#9aa4ff" stroke-width="2"/>
<polyline fill="none" points="143,-482.023 49,-482.023 " stroke="white" stroke-width="2"/>
<path d="M49,-482.023C43,-482.023 37,-476.023 37,-470.023" fill="none" stroke="white" stroke-width="2"/>
<polyline fill="none" points="37,-470.023 37,-458.023 " stroke="white" stroke-width="2"/>
<path d="M37,-458.023C37,-452.023 43,-446.023 49,-446.023" fill="none" stroke="white" stroke-width="2"/>
<polyline fill="none" points="49,-446.023 143,-446.023 " stroke="white" stroke-width="2"/>
<path d="M143,-446.023C149,-446.023 155,-452.023 155,-458.023" fill="none" stroke="white" stroke-width="2"/>
<polyline fill="none" points="155,-458.023 155,-470.023 " stroke="white" stroke-width="2"/>
<path d="M155,-470.023C155,-476.023 149,-482.023 143,-482.023" fill="none" stroke="white" stroke-width="2"/>
<text font-family="Helvetica,sans-Serif" font-size="10.00" text-anchor="middle" x="96" y="-461.523">CREB5_CREM_JUNB</text>
</a>
</g>
<!-- SP4_PML&#45;&gt;CREB5_CREM_JUNB -->
<g class="edge" id="edge16">
<a class="remove14" ismara:data="0.392" onmousemove="ShowTooltip(evt, 'CREB5: 0.392|CREM: 0.074')" onmouseout="HideTooltip(evt)">
<path d="M461.875,-105.112C437.994,-143.098 378.913,-232.833 315.832,-296.392 257.141,-355.525 176.967,-411.54 131.43,-441.476" fill="none" stroke="#c753ff" stroke-width="3"/>
<polygon fill="#c753ff" points="129.863,-439.156 124.699,-445.877 132.927,-443.843 129.863,-439.156" stroke="#c753ff"/>
</a>
</g>
<!-- ESRRB_ESRRG&#45;&gt;ESRRB_ESRRG -->
<g class="edge" id="edge44">
<a class="remove6 root" ismara:data="0.023" onmousemove="ShowTooltip(evt, 'ESRRG: 0.023')" onmouseout="HideTooltip(evt)">
<path d="M519.335,-470.591C529.569,-469.974 537.023,-467.785 537.023,-464.023 537.023,-461.378 533.338,-459.51 527.592,-458.42" fill="none" stroke="#ecc4ff" stroke-width="3"/>
<polygon fill="#ecc4ff" points="527.606,-455.603 519.335,-457.455 526.956,-461.165 527.606,-455.603" stroke="#ecc4ff"/>
</a>
</g>
<!-- NOTO_VSX2_DLX2_DLX6_NKX6&#45;1 -->
<g class="node" id="node30">
<a class="remove20" onmousemove="ShowTooltip(evt, 'Z-value: 0.431')" onmouseout="HideTooltip(evt)" xlink:href="NOTO_VSX2_DLX2_DLX6_NKX6-1.svg">
<polygon fill="#a2acff" points="429.012,-36 278.012,-36 266.012,-24 266.012,-12 278.012,3.19744e-14 429.012,3.19744e-14 441.012,-12 441.012,-24 429.012,-36" stroke="#a2acff" stroke-width="2"/>
<path d="M278.012,-36C272.012,-36 266.012,-30 266.012,-24" fill="#a2acff" stroke="#a2acff" stroke-width="2"/>
<path d="M266.012,-12C266.012,-6 272.012,3.19744e-14 278.012,3.19744e-14" fill="#a2acff" stroke="#a2acff" stroke-width="2"/>
<path d="M429.012,3.19744e-14C435.012,3.19744e-14 441.012,-6 441.012,-12" fill="#a2acff" stroke="#a2acff" stroke-width="2"/>
<path d="M441.012,-24C441.012,-30 435.012,-36 429.012,-36" fill="#a2acff" stroke="#a2acff" stroke-width="2"/>
<polyline fill="none" points="429.012,-36 278.012,-36 " stroke="white" stroke-width="2"/>
<path d="M278.012,-36C272.012,-36 266.012,-30 266.012,-24" fill="none" stroke="white" stroke-width="2"/>
<polyline fill="none" points="266.012,-24 266.012,-12 " stroke="white" stroke-width="2"/>
<path d="M266.012,-12C266.012,-6 272.012,3.19744e-14 278.012,3.19744e-14" fill="none" stroke="white" stroke-width="2"/>
<polyline fill="none" points="278.012,3.19744e-14 429.012,3.19744e-14 " stroke="white" stroke-width="2"/>
<path d="M429.012,3.19744e-14C435.012,3.19744e-14 441.012,-6 441.012,-12" fill="none" stroke="white" stroke-width="2"/>
<polyline fill="none" points="441.012,-12 441.012,-24 " stroke="white" stroke-width="2"/>
<path d="M441.012,-24C441.012,-30 435.012,-36 429.012,-36" fill="none" stroke="white" stroke-width="2"/>
<text font-family="Helvetica,sans-Serif" font-size="10.00" text-anchor="middle" x="353.512" y="-15.5">NOTO_VSX2_DLX2_DLX6_NKX6-1</text>
</a>
</g>
<!-- ESRRB_ESRRG&#45;&gt;NOTO_VSX2_DLX2_DLX6_NKX6&#45;1 -->
<g class="edge" id="edge46">
<a class="remove5 root" ismara:data="0.019" onmousemove="ShowTooltip(evt, 'DLX6: 0.019')" onmouseout="HideTooltip(evt)">
<path d="M468.19,-445.986C449.571,-376.5 382.439,-125.958 360.501,-44.0858" fill="none" stroke="#ecc6ff" stroke-width="3"/>
<polygon fill="#ecc6ff" points="363.18,-43.2642 358.405,-36.2615 357.771,-44.7136 363.18,-43.2642" stroke="#ecc6ff"/>
</a>
</g>
<!-- SOX3_SOX2&#45;&gt;SOX3_SOX2 -->
<g class="edge" id="edge38">
<a class="remove1 root" ismara:data="0.005" onmousemove="ShowTooltip(evt, 'SOX2: 0.005')" onmouseout="HideTooltip(evt)">
<path d="M579.038,-213.22C589.233,-212.896 597.023,-210.66 597.023,-206.512 597.023,-203.595 593.172,-201.623 587.341,-200.597" fill="none" stroke="#eecaff" stroke-width="3"/>
<polygon fill="#eecaff" points="587.269,-197.777 579.038,-199.803 586.735,-203.352 587.269,-197.777" stroke="#eecaff"/>
</a>
</g>
<!-- SOX3_SOX2&#45;&gt;ZBTB33_CHD2 -->
<g class="edge" id="edge40">
<a class="remove3 root" ismara:data="0.008" onmousemove="ShowTooltip(evt, 'CHD2: 0.008|ZBTB33: 0.001')" onmouseout="HideTooltip(evt)">
<path d="M524.003,-224.531C468.831,-279.704 302.177,-446.357 239.602,-508.933" fill="none" stroke="#edc9ff" stroke-width="3"/>
<polygon fill="#edc9ff" points="237.555,-507.02 233.878,-514.656 241.515,-510.979 237.555,-507.02" stroke="#edc9ff"/>
</a>
</g>
<!-- SOX3_SOX2&#45;&gt;SMAD1 -->
<g class="edge" id="edge42">
<a class="remove24 root" ismara:data="0.364" onmousemove="ShowTooltip(evt, 'SMAD1: 0.364')" onmouseout="HideTooltip(evt)">
<path d="M504.854,-216.471C455.347,-229.736 368.387,-253.037 319.833,-266.047" fill="none" stroke="#5b6cff" stroke-width="3"/>
<polygon fill="#5b6cff" points="318.81,-263.423 311.807,-268.198 320.259,-268.832 318.81,-263.423" stroke="#5b6cff"/>
</a>
</g>
<!-- SMAD1&#45;&gt;ZNF423 -->
<g class="edge" id="edge18">
<a class="remove18 root" ismara:data="0.289" onmousemove="ShowTooltip(evt, 'ZNF423: 0.289')" onmouseout="HideTooltip(evt)">
<path d="M311.583,-282.765C358.529,-295.344 454.99,-321.191 506.98,-335.122" fill="none" stroke="#ff7272" stroke-width="3"/>
<polygon fill="#ff7272" points="506.476,-337.885 514.928,-337.251 507.925,-332.476 506.476,-337.885" stroke="#ff7272"/>
</a>
</g>
<!-- SMAD1&#45;&gt;ESRRB_ESRRG -->
<g class="edge" id="edge20">
<a class="remove21 root" ismara:data="0.305" onmousemove="ShowTooltip(evt, 'ESRRB: 0.305|ESRRG: 0.197')" onmouseout="HideTooltip(evt)">
<path d="M302.587,-293.587C336.789,-327.789 410.964,-401.964 449.188,-440.188" fill="none" stroke="#ff6d6d" stroke-width="3"/>
<polygon fill="#ff6d6d" points="447.366,-442.326 455.002,-446.002 451.326,-438.366 447.366,-442.326" stroke="#ff6d6d"/>
</a>
</g>
<!-- SMAD1&#45;&gt;RFX3_RFX2 -->
<g class="edge" id="edge26">
<a class="remove25 root" ismara:data="0.496" onmousemove="ShowTooltip(evt, 'RFX2: 0.496')" onmouseout="HideTooltip(evt)">
<path d="M289.363,-293.619C301.389,-338.5 332.607,-455.006 346.577,-507.141" fill="none" stroke="#ff3232" stroke-width="3"/>
<polygon fill="#ff3232" points="343.89,-507.933 348.665,-514.935 349.299,-506.483 343.89,-507.933" stroke="#ff3232"/>
</a>
</g>
<!-- SMAD1&#45;&gt;ZBTB33_CHD2 -->
<g class="edge" id="edge30">
<a class="remove16 root" ismara:data="0.274" onmousemove="ShowTooltip(evt, 'CHD2: 0.274')" onmouseout="HideTooltip(evt)">
<path d="M279.66,-293.619C267.634,-338.5 236.416,-455.006 222.446,-507.141" fill="none" stroke="#ff7777" stroke-width="3"/>
<polygon fill="#ff7777" points="219.724,-506.483 220.358,-514.935 225.133,-507.933 219.724,-506.483" stroke="#ff7777"/>
</a>
</g>
<!-- SMAD1&#45;&gt;CREB5_CREM_JUNB -->
<g class="edge" id="edge34">
<a class="remove23 root" ismara:data="0.348" onmousemove="ShowTooltip(evt, 'CREM: 0.348')" onmouseout="HideTooltip(evt)">
<path d="M266.436,-293.587C232.234,-327.789 158.059,-401.964 119.835,-440.188" fill="none" stroke="#ff6060" stroke-width="3"/>
<polygon fill="#ff6060" points="117.698,-438.366 114.021,-446.002 121.657,-442.326 117.698,-438.366" stroke="#ff6060"/>
</a>
</g>
<!-- GCM2 -->
<g class="node" id="node19">
<a class="remove17" onmousemove="ShowTooltip(evt, 'Z-value: 0.496')" onmouseout="HideTooltip(evt)" xlink:href="GCM2.svg">
<polygon fill="#9ca6ff" points="42,-362.512 12,-362.512 3.19744e-14,-350.512 3.19744e-14,-338.512 12,-326.512 42,-326.512 54,-338.512 54,-350.512 42,-362.512" stroke="#9ca6ff" stroke-width="2"/>
<path d="M12,-362.512C6,-362.512 3.19744e-14,-356.512 3.19744e-14,-350.512" fill="#9ca6ff" stroke="#9ca6ff" stroke-width="2"/>
<path d="M3.19744e-14,-338.512C3.19744e-14,-332.512 6,-326.512 12,-326.512" fill="#9ca6ff" stroke="#9ca6ff" stroke-width="2"/>
<path d="M42,-326.512C48,-326.512 54,-332.512 54,-338.512" fill="#9ca6ff" stroke="#9ca6ff" stroke-width="2"/>
<path d="M54,-350.512C54,-356.512 48,-362.512 42,-362.512" fill="#9ca6ff" stroke="#9ca6ff" stroke-width="2"/>
<polyline fill="none" points="42,-362.512 12,-362.512 " stroke="white" stroke-width="2"/>
<path d="M12,-362.512C6,-362.512 3.19744e-14,-356.512 3.19744e-14,-350.512" fill="none" stroke="white" stroke-width="2"/>
<polyline fill="none" points="3.19744e-14,-350.512 3.19744e-14,-338.512 " stroke="white" stroke-width="2"/>
<path d="M3.19744e-14,-338.512C3.19744e-14,-332.512 6,-326.512 12,-326.512" fill="none" stroke="white" stroke-width="2"/>
<polyline fill="none" points="12,-326.512 42,-326.512 " stroke="white" stroke-width="2"/>
<path d="M42,-326.512C48,-326.512 54,-332.512 54,-338.512" fill="none" stroke="white" stroke-width="2"/>
<polyline fill="none" points="54,-338.512 54,-350.512 " stroke="white" stroke-width="2"/>
<path d="M54,-350.512C54,-356.512 48,-362.512 42,-362.512" fill="none" stroke="white" stroke-width="2"/>
<text font-family="Helvetica,sans-Serif" font-size="10.00" text-anchor="middle" x="27" y="-342.012">GCM2</text>
</a>
</g>
<!-- SMAD1&#45;&gt;GCM2 -->
<g class="edge" id="edge22">
<a class="remove17 root" ismara:data="0.285" onmousemove="ShowTooltip(evt, 'GCM2: 0.285')" onmouseout="HideTooltip(evt)">
<path d="M257.44,-282.765C210.494,-295.344 114.033,-321.191 62.043,-335.122" fill="none" stroke="#ff7373" stroke-width="3"/>
<polygon fill="#ff7373" points="61.0979,-332.476 54.0952,-337.251 62.5473,-337.885 61.0979,-332.476" stroke="#ff7373"/>
</a>
</g>
<!-- SPIB -->
<g class="node" id="node21">
<a class="remove15" onmousemove="ShowTooltip(evt, 'Z-value: 0.681')" onmouseout="HideTooltip(evt)" xlink:href="SPIB.svg">
<polygon fill="#8a96ff" points="42,-224.512 12,-224.512 -3.19744e-14,-212.512 -3.19744e-14,-200.512 12,-188.512 42,-188.512 54,-200.512 54,-212.512 42,-224.512" stroke="#8a96ff" stroke-width="2"/>
<path d="M12,-224.512C6,-224.512 -3.19744e-14,-218.512 -3.19744e-14,-212.512" fill="#8a96ff" stroke="#8a96ff" stroke-width="2"/>
<path d="M-3.19744e-14,-200.512C-3.19744e-14,-194.512 6,-188.512 12,-188.512" fill="#8a96ff" stroke="#8a96ff" stroke-width="2"/>
<path d="M42,-188.512C48,-188.512 54,-194.512 54,-200.512" fill="#8a96ff" stroke="#8a96ff" stroke-width="2"/>
<path d="M54,-212.512C54,-218.512 48,-224.512 42,-224.512" fill="#8a96ff" stroke="#8a96ff" stroke-width="2"/>
<polyline fill="none" points="42,-224.512 12,-224.512 " stroke="white" stroke-width="2"/>
<path d="M12,-224.512C6,-224.512 -3.19744e-14,-218.512 -3.19744e-14,-212.512" fill="none" stroke="white" stroke-width="2"/>
<polyline fill="none" points="-3.19744e-14,-212.512 -3.19744e-14,-200.512 " stroke="white" stroke-width="2"/>
<path d="M-3.19744e-14,-200.512C-3.19744e-14,-194.512 6,-188.512 12,-188.512" fill="none" stroke="white" stroke-width="2"/>
<polyline fill="none" points="12,-188.512 42,-188.512 " stroke="white" stroke-width="2"/>
<path d="M42,-188.512C48,-188.512 54,-194.512 54,-200.512" fill="none" stroke="white" stroke-width="2"/>
<polyline fill="none" points="54,-200.512 54,-212.512 " stroke="white" stroke-width="2"/>
<path d="M54,-212.512C54,-218.512 48,-224.512 42,-224.512" fill="none" stroke="white" stroke-width="2"/>
<text font-family="Helvetica,sans-Serif" font-size="10.00" text-anchor="middle" x="27" y="-204.012">SPIB</text>
</a>
</g>
<!-- SMAD1&#45;&gt;SPIB -->
<g class="edge" id="edge24">
<a class="remove15 root" ismara:data="0.26" onmousemove="ShowTooltip(evt, 'SPIB: 0.260')" onmouseout="HideTooltip(evt)">
<path d="M257.44,-268.258C210.494,-255.679 114.033,-229.832 62.043,-215.901" fill="none" stroke="#ff7b7b" stroke-width="3"/>
<polygon fill="#ff7b7b" points="62.5473,-213.138 54.0952,-213.772 61.0979,-218.547 62.5473,-213.138" stroke="#ff7b7b"/>
</a>
</g>
<!-- PAX3 -->
<g class="node" id="node24">
<a class="remove19" onmousemove="ShowTooltip(evt, 'Z-value: 0.497')" onmouseout="HideTooltip(evt)" xlink:href="PAX3.svg">
<polygon fill="#9ca6ff" points="111,-105 81,-105 69,-93 69,-81 81,-69 111,-69 123,-81 123,-93 111,-105" stroke="#9ca6ff" stroke-width="2"/>
<path d="M81,-105C75,-105 69,-99 69,-93" fill="#9ca6ff" stroke="#9ca6ff" stroke-width="2"/>
<path d="M69,-81C69,-75 75,-69 81,-69" fill="#9ca6ff" stroke="#9ca6ff" stroke-width="2"/>
<path d="M111,-69C117,-69 123,-75 123,-81" fill="#9ca6ff" stroke="#9ca6ff" stroke-width="2"/>
<path d="M123,-93C123,-99 117,-105 111,-105" fill="#9ca6ff" stroke="#9ca6ff" stroke-width="2"/>
<polyline fill="none" points="111,-105 81,-105 " stroke="white" stroke-width="2"/>
<path d="M81,-105C75,-105 69,-99 69,-93" fill="none" stroke="white" stroke-width="2"/>
<polyline fill="none" points="69,-93 69,-81 " stroke="white" stroke-width="2"/>
<path d="M69,-81C69,-75 75,-69 81,-69" fill="none" stroke="white" stroke-width="2"/>
<polyline fill="none" points="81,-69 111,-69 " stroke="white" stroke-width="2"/>
<path d="M111,-69C117,-69 123,-75 123,-81" fill="none" stroke="white" stroke-width="2"/>
<polyline fill="none" points="123,-81 123,-93 " stroke="white" stroke-width="2"/>
<path d="M123,-93C123,-99 117,-105 111,-105" fill="none" stroke="white" stroke-width="2"/>
<text font-family="Helvetica,sans-Serif" font-size="10.00" text-anchor="middle" x="96" y="-84.5">PAX3</text>
</a>
</g>
<!-- SMAD1&#45;&gt;PAX3 -->
<g class="edge" id="edge28">
<a class="remove19 root" ismara:data="0.303" onmousemove="ShowTooltip(evt, 'PAX3: 0.303')" onmouseout="HideTooltip(evt)">
<path d="M266.436,-257.436C232.234,-223.234 158.059,-149.059 119.835,-110.835" fill="none" stroke="#ff6e6e" stroke-width="3"/>
<polygon fill="#ff6e6e" points="121.657,-108.698 114.021,-105.021 117.698,-112.657 121.657,-108.698" stroke="#ff6e6e"/>
</a>
</g>
<!-- NR2E1 -->
<g class="node" id="node27">
<a class="remove22" onmousemove="ShowTooltip(evt, 'Z-value: 0.528')" onmouseout="HideTooltip(evt)" xlink:href="NR2E1.svg">
<polygon fill="#99a3ff" points="230.512,-36 200.512,-36 188.512,-24 188.512,-12 200.512,-6.39488e-14 230.512,-6.39488e-14 242.512,-12 242.512,-24 230.512,-36" stroke="#99a3ff" stroke-width="2"/>
<path d="M200.512,-36C194.512,-36 188.512,-30 188.512,-24" fill="#99a3ff" stroke="#99a3ff" stroke-width="2"/>
<path d="M188.512,-12C188.512,-6 194.512,-6.39488e-14 200.512,-6.39488e-14" fill="#99a3ff" stroke="#99a3ff" stroke-width="2"/>
<path d="M230.512,-6.39488e-14C236.512,-6.39488e-14 242.512,-6 242.512,-12" fill="#99a3ff" stroke="#99a3ff" stroke-width="2"/>
<path d="M242.512,-24C242.512,-30 236.512,-36 230.512,-36" fill="#99a3ff" stroke="#99a3ff" stroke-width="2"/>
<polyline fill="none" points="230.512,-36 200.512,-36 " stroke="white" stroke-width="2"/>
<path d="M200.512,-36C194.512,-36 188.512,-30 188.512,-24" fill="none" stroke="white" stroke-width="2"/>
<polyline fill="none" points="188.512,-24 188.512,-12 " stroke="white" stroke-width="2"/>
<path d="M188.512,-12C188.512,-6 194.512,-6.39488e-14 200.512,-6.39488e-14" fill="none" stroke="white" stroke-width="2"/>
<polyline fill="none" points="200.512,-6.39488e-14 230.512,-6.39488e-14 " stroke="white" stroke-width="2"/>
<path d="M230.512,-6.39488e-14C236.512,-6.39488e-14 242.512,-6 242.512,-12" fill="none" stroke="white" stroke-width="2"/>
<polyline fill="none" points="242.512,-12 242.512,-24 " stroke="white" stroke-width="2"/>
<path d="M242.512,-24C242.512,-30 236.512,-36 230.512,-36" fill="none" stroke="white" stroke-width="2"/>
<text font-family="Helvetica,sans-Serif" font-size="10.00" text-anchor="middle" x="215.512" y="-15.5">NR2E1</text>
</a>
</g>
<!-- SMAD1&#45;&gt;NR2E1 -->
<g class="edge" id="edge32">
<a class="remove22 root" ismara:data="0.33" onmousemove="ShowTooltip(evt, 'NR2E1: 0.330')" onmouseout="HideTooltip(evt)">
<path d="M279.66,-257.404C267.634,-212.523 236.416,-96.0173 222.446,-43.8816" fill="none" stroke="#ff6666" stroke-width="3"/>
<polygon fill="#ff6666" points="225.133,-43.0904 220.358,-36.0877 219.724,-44.5398 225.133,-43.0904" stroke="#ff6666"/>
</a>
</g>
<!-- SMAD1&#45;&gt;NOTO_VSX2_DLX2_DLX6_NKX6&#45;1 -->
<g class="edge" id="edge36">
<a class="remove20 root" ismara:data="0.305" onmousemove="ShowTooltip(evt, 'NKX6-1: 0.305')" onmouseout="HideTooltip(evt)">
<path d="M289.363,-257.404C301.389,-212.523 332.607,-96.0173 346.577,-43.8816" fill="none" stroke="#ff6e6e" stroke-width="3"/>
<polygon fill="#ff6e6e" points="349.299,-44.5398 348.665,-36.0877 343.89,-43.0904 349.299,-44.5398" stroke="#ff6e6e"/>
</a>
</g>
<!-- CREB5_CREM_JUNB&#45;&gt;RFX3_RFX2 -->
<g class="edge" id="edge48">
<a class="remove0 root" ismara:data="0.002" onmousemove="ShowTooltip(evt, 'RFX3: 0.002')" onmouseout="HideTooltip(evt)">
<path d="M155.078,-479.853C201.95,-492.412 266.45,-509.695 309.027,-521.103" fill="none" stroke="#eecbff" stroke-width="3"/>
<polygon fill="#eecbff" points="308.523,-523.867 316.975,-523.233 309.972,-518.458 308.523,-523.867" stroke="#eecbff"/>
</a>
</g>
<!-- CREB5_CREM_JUNB&#45;&gt;ZBTB33_CHD2 -->
<g class="edge" id="edge50">
<a class="remove8 root" ismara:data="0.06" onmousemove="ShowTooltip(evt, 'CHD2: 0.060')" onmouseout="HideTooltip(evt)">
<path d="M127.4,-482.152C142.634,-490.947 161.067,-501.59 177.128,-510.863" fill="none" stroke="#e8b9ff" stroke-width="3"/>
<polygon fill="#e8b9ff" points="175.993,-513.44 184.321,-515.015 178.793,-508.59 175.993,-513.44" stroke="#e8b9ff"/>
</a>
</g>
<!-- CREB5_CREM_JUNB&#45;&gt;CREB5_CREM_JUNB -->
<g class="edge" id="edge54">
<a class="remove12 root" ismara:data="0.108" onmousemove="ShowTooltip(evt, 'CREM: 0.108')" onmouseout="HideTooltip(evt)">
<path d="M155.079,-470.377C165.63,-469.551 173,-467.433 173,-464.023 173,-461.572 169.193,-459.788 163.133,-458.672" fill="none" stroke="#e4aaff" stroke-width="3"/>
<polygon fill="#e4aaff" points="163.364,-455.88 155.079,-457.669 162.671,-461.437 163.364,-455.88" stroke="#e4aaff"/>
</a>
</g>
<!-- CREB5_CREM_JUNB&#45;&gt;NR2E1 -->
<g class="edge" id="edge52">
<a class="remove11 root" ismara:data="0.105" onmousemove="ShowTooltip(evt, 'NR2E1: 0.105')" onmouseout="HideTooltip(evt)">
<path d="M100.833,-445.986C119.452,-376.5 186.584,-125.958 208.522,-44.0858" fill="none" stroke="#e4abff" stroke-width="3"/>
<polygon fill="#e4abff" points="211.252,-44.7136 210.618,-36.2615 205.843,-43.2642 211.252,-44.7136" stroke="#e4abff"/>
</a>
</g>
<!-- CREB5_CREM_JUNB&#45;&gt;NOTO_VSX2_DLX2_DLX6_NKX6&#45;1 -->
<g class="edge" id="edge56">
<a class="remove4 root" ismara:data="0.013" onmousemove="ShowTooltip(evt, 'DLX6: 0.013')" onmouseout="HideTooltip(evt)">
<path d="M106.414,-445.986C146.613,-376.359 291.767,-124.945 338.736,-43.5917" fill="none" stroke="#edc7ff" stroke-width="3"/>
<polygon fill="#edc7ff" points="341.393,-44.5897 342.968,-36.2615 336.543,-41.7897 341.393,-44.5897" stroke="#edc7ff"/>
</a>
</g>
</g>
<rect height="14" id="tooltip_bg" style="fill: white; stroke: black; opacity: 0.8;" visibility="hidden"/><text id="tooltip" style="font-size: 10px;font-weight: bold;" visibility="hidden"></text><g id="plus" onclick="showSome();moveSlider();setThreshold();"><circle cx="22" cy="22" r="10" style="fill: #dddddd; opacity: 100%;"/><line stroke="#888888" stroke-width="2" x1="16" x2="28" y1="22" y2="22"/><line stroke="#888888" stroke-width="2" x1="22" x2="22" y1="16" y2="28"/></g><g id="minus" onclick="hideSome();moveSlider();setThreshold();"><circle cx="22" cy="537" r="10" style="fill: #dddddd; opacity: 100%;"/><line stroke="#888888" stroke-width="2" x1="16" x2="28" y1="537" y2="537"/></g><line id="slider_scale" onmousedown="jump_slider(evt)" stroke="#888888" stroke-width="5" x1="22" x2="22" y1="40" y2="519"/><circle cx="22" cy="50" id="slider" onmousedown="grab(evt)" onmouseout="release(evt)" onmouseup="release(evt)" r="15" style="fill:#922"/><script type="text/ecmascript"><![CDATA[
    var svgNS = "http://www.w3.org/2000/svg";
    var edge_num = 26;
    var counter = 0;
    var tooltip, tooltip_bg;

    function init(evt) {
        if ( window.svgDocument == null ) {
            svgDocument = evt.target.ownerDocument;
        }
        tooltip = svgDocument.getElementById('tooltip');
        tooltip_bg = svgDocument.getElementById('tooltip_bg');
        setThreshold();
    }

    function ShowTooltip(evt, txt) {
        var length = 0;
        var height;
        var tooltip_x = evt.pageX + 18;
        var tooltip_y = evt.pageY + 22;
        var bg_x = evt.pageX + 10;
        var bg_y = evt.pageY + 10;

        /* Clean toolip content */
        while (tooltip.lastChild) {
            tooltip.removeChild(tooltip.lastChild)
        }

        /* Populate tooltip with tspan elements and get longest of them */
        var text_elements = txt.split('|');
        for (var i = 0; i  < text_elements.length; i++) {
            var shift_y = 12;
            if (i == 0) {
                shift_y = 0;
            }
            var tspan_element = document.createElementNS(svgNS, "tspan");
            tspan_element.setAttributeNS(null, "dy", shift_y);
            tspan_element.setAttributeNS(null, "x", tooltip_x);
            var text_node = svgDocument.createTextNode(text_elements[i]);
            tspan_element.appendChild(text_node);
            tooltip.appendChild(tspan_element);
            var tspan_length = tspan_element.getComputedTextLength();
            if (tspan_length > length) {
                length = tspan_length
            }
        }
        /* add right margin to tooltip */
        length = length + 15;
        height = 12 * text_elements.length + 5;
        tooltip_bg.setAttributeNS(null,"width",length);
        tooltip_bg.setAttributeNS(null,"height",height);
        tooltip_bg.setAttributeNS(null,"x", bg_x);
        tooltip_bg.setAttributeNS(null,"y", bg_y);
        tooltip_bg.setAttributeNS(null,"visibility","visible");
        tooltip.setAttributeNS(null,"x", tooltip_x);
        tooltip.setAttributeNS(null,"y", tooltip_y);
        tooltip.setAttributeNS(null,"visibility","visible");
    }
    function HideTooltip() {
      tooltip.setAttributeNS(null,"visibility","hidden");
      tooltip_bg.setAttributeNS(null,"visibility","hidden");
    }

    /*** Hide/Show edges functions ***/

    function hideSome() {
      if (counter >= edge_num -1) {
        return 1;
      }
      var elements = svgDocument.getElementsByClassName('remove' + counter);
      for (var i = 0; i < elements.length; i++) {
        elements[i].setAttributeNS(null,"visibility","hidden");
      }
      counter = counter + 1;
    }

    function showSome() {
      if (counter <= 0) {
        return 1;
      }
      counter = counter - 1;
      var elements = svgDocument.getElementsByClassName('remove' + counter);
      for (var i = 0; i < elements.length; i++) {
        elements[i].setAttributeNS(null,"visibility","visible");
      }
    }

    function setThreshold() {
        var elements = svgDocument.getElementsByClassName('remove' + counter);
        var score = 0;
        for (var i = 0; i < elements.length; i++) {
            if (elements[i].classList.contains("root")){
                if (elements[i].hasAttributeNS("ismara.unibas.ch", "data")) {
                    score = elements[i].getAttributeNS("ismara.unibas.ch", "data");
                }
            } 
        }
        svgDocument.getElementById("score_indicator").textContent = "Score threshold: " + score;
    }

    /*** Slider functions ***/

    var slider_maxY = parseInt(document.getElementById("slider_scale").getAttributeNS(null, "y2"));
    var slider_minY = parseInt(document.getElementById("slider_scale").getAttributeNS(null, "y1"));
    var slider_r = parseInt(document.getElementById("slider").getAttributeNS(null, "r"));
    var coef = (edge_num - 1) / (slider_maxY - slider_minY - 2 * slider_r);

    function grab(evt){
        var element = evt.target;
        var Attr = {"onmousemove":"slide(evt,'"+element.id+"')"};
        assignAttr(element, Attr);
    }

    function release(evt){
        var element = evt.target;
        var Attr = {"onmousemove":null};
        assignAttr(element, Attr);
    }

    function assignAttr(obj,attr){
        for (i in attr) obj.setAttributeNS(null,i, attr[i]);
    }

    function slide(evt,id){
        var slider = evt.target;
        var y = evt.pageY;
        var new_counter = Math.floor((evt.pageY - slider_minY - slider_r) * coef);
        if (evt.pageY > (slider_maxY - slider_r)) {
            slider.setAttributeNS(null, "cy", (slider_maxY - slider_r));
            new_counter = edge_num;
        } else if(evt.pageY < (slider_minY + slider_r)) {
            slider.setAttributeNS(null, "cy", (slider_minY + slider_r));
            new_counter = 1;
        } else {
            slider.setAttributeNS(null, "cy", evt.pageY);
        }

        if (new_counter < counter) {
                showSome();
            counter = new_counter;
        }
        if (new_counter > counter) {
                hideSome();
            counter = new_counter;
        }
        setThreshold();
    }

    function moveSlider() {
        circle = document.getElementById("slider");
        circle.setAttributeNS(null, "cy",  slider_minY +  slider_r + (counter) / coef);
    }

    function jump_slider(evt) {
        var slider = document.getElementById("slider");
        var new_counter = Math.floor((evt.pageY - slider_minY - slider_r) * coef);
        if (evt.pageY > (slider_maxY - slider_r)) {
            slider.setAttributeNS(null, "cy", (slider_maxY - slider_r));
            new_counter = edge_num;
        } else if(evt.pageY < (slider_minY + slider_r)) {
             slider.setAttributeNS(null, "cy", (slider_minY + slider_r));
            new_counter = 1;
        } else {
            slider.setAttributeNS(null, "cy", evt.pageY);
        }

        if (new_counter > counter) {
            var d = new_counter - counter;
            for (var i = 0; i < d; i++){
                hideSome();
            }
            counter = new_counter;
        }
        if (new_counter < counter) {
            var d = counter - new_counter;
            for (var i = 0; i < d; i++){
                showSome();
            }
            counter = new_counter;
        }
        setThreshold();
    }
    ]]></script><text id="score_indicator" style="font-size: 10px;font-weight: bold;" x="10" y="569">Score threshold: 0</text><text id="info" style="font-size: 10px;font-weight: bold;" x="10" y="584">Use slider or -/+ buttons to hide/show edges.</text></svg>