<?xml version="1.0" encoding="UTF-8" standalone="no"?>
<!DOCTYPE svg PUBLIC "-//W3C//DTD SVG 1.1//EN"
 "http://www.w3.org/Graphics/SVG/1.1/DTD/svg11.dtd">
<!-- Generated by graphviz version 2.28.0 (20110630.0925)
 -->
<!-- Title: _anonymous_0 Pages: 1 -->
<svg width="454pt" height="384pt"
 viewBox="0.00 0.00 453.86 384.36" xmlns="http://www.w3.org/2000/svg" xmlns:xlink="http://www.w3.org/1999/xlink">
<g id="graph1" class="graph" transform="scale(1 1) rotate(0) translate(4 380.363)">
<title>_anonymous_0</title>
<polygon fill="white" stroke="white" points="-4,5 -4,-380.363 450.863,-380.363 450.863,5 -4,5"/>
<!-- BACH1_NFE2_NFE2L2 -->
<g id="node1" class="node"><title>BACH1_NFE2_NFE2L2</title>
<a xlink:href="BACH1_NFE2_NFE2L2.svg" xlink:title="Z&#45;value: 1.802||remove5">
<polygon fill="#3247ff" stroke="#3247ff" stroke-width="2" points="433.863,-251.782 335.863,-251.782 323.863,-239.782 323.863,-227.782 335.863,-215.782 433.863,-215.782 445.863,-227.782 445.863,-239.782 433.863,-251.782"/>
<path fill="#3247ff" stroke="#3247ff" stroke-width="2" d="M335.863,-251.782C329.863,-251.782 323.863,-245.782 323.863,-239.782"/>
<path fill="#3247ff" stroke="#3247ff" stroke-width="2" d="M323.863,-227.782C323.863,-221.782 329.863,-215.782 335.863,-215.782"/>
<path fill="#3247ff" stroke="#3247ff" stroke-width="2" d="M433.863,-215.782C439.863,-215.782 445.863,-221.782 445.863,-227.782"/>
<path fill="#3247ff" stroke="#3247ff" stroke-width="2" d="M445.863,-239.782C445.863,-245.782 439.863,-251.782 433.863,-251.782"/>
<polyline fill="none" stroke="white" stroke-width="2" points="433.863,-251.782 335.863,-251.782 "/>
<path fill="none" stroke="white" stroke-width="2" d="M335.863,-251.782C329.863,-251.782 323.863,-245.782 323.863,-239.782"/>
<polyline fill="none" stroke="white" stroke-width="2" points="323.863,-239.782 323.863,-227.782 "/>
<path fill="none" stroke="white" stroke-width="2" d="M323.863,-227.782C323.863,-221.782 329.863,-215.782 335.863,-215.782"/>
<polyline fill="none" stroke="white" stroke-width="2" points="335.863,-215.782 433.863,-215.782 "/>
<path fill="none" stroke="white" stroke-width="2" d="M433.863,-215.782C439.863,-215.782 445.863,-221.782 445.863,-227.782"/>
<polyline fill="none" stroke="white" stroke-width="2" points="445.863,-227.782 445.863,-239.782 "/>
<path fill="none" stroke="white" stroke-width="2" d="M445.863,-239.782C445.863,-245.782 439.863,-251.782 433.863,-251.782"/>
<text text-anchor="middle" x="384.863" y="-231.282" font-family="Helvetica,sans-Serif" font-size="10.00" fill="white">BACH1_NFE2_NFE2L2</text>
</a>
</g>
<!-- SMAD4 -->
<g id="node2" class="node"><title>SMAD4</title>
<a xlink:href="SMAD4.svg" xlink:title="Z&#45;value: 1.601||remove17">
<polygon fill="#ff4444" stroke="#ff4444" stroke-width="2" points="229.682,-206.182 199.682,-206.182 187.682,-194.182 187.682,-182.182 199.682,-170.182 229.682,-170.182 241.682,-182.182 241.682,-194.182 229.682,-206.182"/>
<path fill="#ff4444" stroke="#ff4444" stroke-width="2" d="M199.682,-206.182C193.682,-206.182 187.682,-200.182 187.682,-194.182"/>
<path fill="#ff4444" stroke="#ff4444" stroke-width="2" d="M187.682,-182.182C187.682,-176.182 193.682,-170.182 199.682,-170.182"/>
<path fill="#ff4444" stroke="#ff4444" stroke-width="2" d="M229.682,-170.182C235.682,-170.182 241.682,-176.182 241.682,-182.182"/>
<path fill="#ff4444" stroke="#ff4444" stroke-width="2" d="M241.682,-194.182C241.682,-200.182 235.682,-206.182 229.682,-206.182"/>
<polyline fill="none" stroke="white" stroke-width="2" points="229.682,-206.182 199.682,-206.182 "/>
<path fill="none" stroke="white" stroke-width="2" d="M199.682,-206.182C193.682,-206.182 187.682,-200.182 187.682,-194.182"/>
<polyline fill="none" stroke="white" stroke-width="2" points="187.682,-194.182 187.682,-182.182 "/>
<path fill="none" stroke="white" stroke-width="2" d="M187.682,-182.182C187.682,-176.182 193.682,-170.182 199.682,-170.182"/>
<polyline fill="none" stroke="white" stroke-width="2" points="199.682,-170.182 229.682,-170.182 "/>
<path fill="none" stroke="white" stroke-width="2" d="M229.682,-170.182C235.682,-170.182 241.682,-176.182 241.682,-182.182"/>
<polyline fill="none" stroke="white" stroke-width="2" points="241.682,-182.182 241.682,-194.182 "/>
<path fill="none" stroke="white" stroke-width="2" d="M241.682,-194.182C241.682,-200.182 235.682,-206.182 229.682,-206.182"/>
<text text-anchor="middle" x="214.682" y="-185.682" font-family="Helvetica,sans-Serif" font-size="10.00" fill="white">SMAD4</text>
</a>
</g>
<!-- SMAD4&#45;&gt;BACH1_NFE2_NFE2L2 -->
<g id="edge4" class="edge"><title>SMAD4&#45;&gt;BACH1_NFE2_NFE2L2</title>
<a xlink:title="NFE2: 0.197||remove5root">
<path fill="none" stroke="#ff9898" stroke-width="3" d="M242.024,-195.508C261.949,-200.847 289.873,-208.329 315.751,-215.263"/>
<polygon fill="#ff9898" stroke="#ff9898" points="315.253,-218.028 323.705,-217.394 316.703,-212.619 315.253,-218.028"/>
</a>
</g>
<!-- JUN -->
<g id="node3" class="node"><title>JUN</title>
<a xlink:href="JUN.svg" xlink:title="Z&#45;value: 0.873||remove9">
<polygon fill="#818eff" stroke="#818eff" stroke-width="2" points="354.263,-330.763 324.263,-330.763 312.263,-318.763 312.263,-306.763 324.263,-294.763 354.263,-294.763 366.263,-306.763 366.263,-318.763 354.263,-330.763"/>
<path fill="#818eff" stroke="#818eff" stroke-width="2" d="M324.263,-330.763C318.263,-330.763 312.263,-324.763 312.263,-318.763"/>
<path fill="#818eff" stroke="#818eff" stroke-width="2" d="M312.263,-306.763C312.263,-300.763 318.263,-294.763 324.263,-294.763"/>
<path fill="#818eff" stroke="#818eff" stroke-width="2" d="M354.263,-294.763C360.263,-294.763 366.263,-300.763 366.263,-306.763"/>
<path fill="#818eff" stroke="#818eff" stroke-width="2" d="M366.263,-318.763C366.263,-324.763 360.263,-330.763 354.263,-330.763"/>
<polyline fill="none" stroke="white" stroke-width="2" points="354.263,-330.763 324.263,-330.763 "/>
<path fill="none" stroke="white" stroke-width="2" d="M324.263,-330.763C318.263,-330.763 312.263,-324.763 312.263,-318.763"/>
<polyline fill="none" stroke="white" stroke-width="2" points="312.263,-318.763 312.263,-306.763 "/>
<path fill="none" stroke="white" stroke-width="2" d="M312.263,-306.763C312.263,-300.763 318.263,-294.763 324.263,-294.763"/>
<polyline fill="none" stroke="white" stroke-width="2" points="324.263,-294.763 354.263,-294.763 "/>
<path fill="none" stroke="white" stroke-width="2" d="M354.263,-294.763C360.263,-294.763 366.263,-300.763 366.263,-306.763"/>
<polyline fill="none" stroke="white" stroke-width="2" points="366.263,-306.763 366.263,-318.763 "/>
<path fill="none" stroke="white" stroke-width="2" d="M366.263,-318.763C366.263,-324.763 360.263,-330.763 354.263,-330.763"/>
<text text-anchor="middle" x="339.263" y="-310.263" font-family="Helvetica,sans-Serif" font-size="10.00">JUN</text>
</a>
</g>
<!-- SMAD4&#45;&gt;JUN -->
<g id="edge2" class="edge"><title>SMAD4&#45;&gt;JUN</title>
<a xlink:title="JUN: 0.215||remove9root">
<path fill="none" stroke="#ff9393" stroke-width="3" d="M232.797,-206.297C254.571,-228.071 291.183,-264.683 315.285,-288.785"/>
<polygon fill="#ff9393" stroke="#ff9393" points="313.489,-290.949 321.126,-294.626 317.449,-286.989 313.489,-290.949"/>
</a>
</g>
<!-- CPEB1 -->
<g id="node6" class="node"><title>CPEB1</title>
<a xlink:href="CPEB1.svg" xlink:title="Z&#45;value: 0.827||remove16">
<polygon fill="#8591ff" stroke="#8591ff" stroke-width="2" points="275.282,-376.363 245.282,-376.363 233.282,-364.363 233.282,-352.363 245.282,-340.363 275.282,-340.363 287.282,-352.363 287.282,-364.363 275.282,-376.363"/>
<path fill="#8591ff" stroke="#8591ff" stroke-width="2" d="M245.282,-376.363C239.282,-376.363 233.282,-370.363 233.282,-364.363"/>
<path fill="#8591ff" stroke="#8591ff" stroke-width="2" d="M233.282,-352.363C233.282,-346.363 239.282,-340.363 245.282,-340.363"/>
<path fill="#8591ff" stroke="#8591ff" stroke-width="2" d="M275.282,-340.363C281.282,-340.363 287.282,-346.363 287.282,-352.363"/>
<path fill="#8591ff" stroke="#8591ff" stroke-width="2" d="M287.282,-364.363C287.282,-370.363 281.282,-376.363 275.282,-376.363"/>
<polyline fill="none" stroke="white" stroke-width="2" points="275.282,-376.363 245.282,-376.363 "/>
<path fill="none" stroke="white" stroke-width="2" d="M245.282,-376.363C239.282,-376.363 233.282,-370.363 233.282,-364.363"/>
<polyline fill="none" stroke="white" stroke-width="2" points="233.282,-364.363 233.282,-352.363 "/>
<path fill="none" stroke="white" stroke-width="2" d="M233.282,-352.363C233.282,-346.363 239.282,-340.363 245.282,-340.363"/>
<polyline fill="none" stroke="white" stroke-width="2" points="245.282,-340.363 275.282,-340.363 "/>
<path fill="none" stroke="white" stroke-width="2" d="M275.282,-340.363C281.282,-340.363 287.282,-346.363 287.282,-352.363"/>
<polyline fill="none" stroke="white" stroke-width="2" points="287.282,-352.363 287.282,-364.363 "/>
<path fill="none" stroke="white" stroke-width="2" d="M287.282,-364.363C287.282,-370.363 281.282,-376.363 275.282,-376.363"/>
<text text-anchor="middle" x="260.282" y="-355.863" font-family="Helvetica,sans-Serif" font-size="10.00">CPEB1</text>
</a>
</g>
<!-- SMAD4&#45;&gt;CPEB1 -->
<g id="edge6" class="edge"><title>SMAD4&#45;&gt;CPEB1</title>
<a xlink:title="CPEB1: 0.581||remove16root">
<path fill="none" stroke="#ff3232" stroke-width="3" d="M219.562,-206.394C227.687,-236.718 244.015,-297.655 253.337,-332.447"/>
<polygon fill="#ff3232" stroke="#ff3232" points="250.661,-333.279 255.437,-340.282 256.071,-331.829 250.661,-333.279"/>
</a>
</g>
<!-- EN1_ESX1_GBX1 -->
<g id="node8" class="node"><title>EN1_ESX1_GBX1</title>
<a xlink:href="EN1_ESX1_GBX1.svg" xlink:title="Z&#45;value: 0.484||remove14">
<polygon fill="#a2acff" stroke="#a2acff" stroke-width="2" points="205.582,-376.363 132.582,-376.363 120.582,-364.363 120.582,-352.363 132.582,-340.363 205.582,-340.363 217.582,-352.363 217.582,-364.363 205.582,-376.363"/>
<path fill="#a2acff" stroke="#a2acff" stroke-width="2" d="M132.582,-376.363C126.582,-376.363 120.582,-370.363 120.582,-364.363"/>
<path fill="#a2acff" stroke="#a2acff" stroke-width="2" d="M120.582,-352.363C120.582,-346.363 126.582,-340.363 132.582,-340.363"/>
<path fill="#a2acff" stroke="#a2acff" stroke-width="2" d="M205.582,-340.363C211.582,-340.363 217.582,-346.363 217.582,-352.363"/>
<path fill="#a2acff" stroke="#a2acff" stroke-width="2" d="M217.582,-364.363C217.582,-370.363 211.582,-376.363 205.582,-376.363"/>
<polyline fill="none" stroke="white" stroke-width="2" points="205.582,-376.363 132.582,-376.363 "/>
<path fill="none" stroke="white" stroke-width="2" d="M132.582,-376.363C126.582,-376.363 120.582,-370.363 120.582,-364.363"/>
<polyline fill="none" stroke="white" stroke-width="2" points="120.582,-364.363 120.582,-352.363 "/>
<path fill="none" stroke="white" stroke-width="2" d="M120.582,-352.363C120.582,-346.363 126.582,-340.363 132.582,-340.363"/>
<polyline fill="none" stroke="white" stroke-width="2" points="132.582,-340.363 205.582,-340.363 "/>
<path fill="none" stroke="white" stroke-width="2" d="M205.582,-340.363C211.582,-340.363 217.582,-346.363 217.582,-352.363"/>
<polyline fill="none" stroke="white" stroke-width="2" points="217.582,-352.363 217.582,-364.363 "/>
<path fill="none" stroke="white" stroke-width="2" d="M217.582,-364.363C217.582,-370.363 211.582,-376.363 205.582,-376.363"/>
<text text-anchor="middle" x="169.082" y="-355.863" font-family="Helvetica,sans-Serif" font-size="10.00">EN1_ESX1_GBX1</text>
</a>
</g>
<!-- SMAD4&#45;&gt;EN1_ESX1_GBX1 -->
<g id="edge8" class="edge"><title>SMAD4&#45;&gt;EN1_ESX1_GBX1</title>
<a xlink:title="EN1: 0.375||remove14root">
<path fill="none" stroke="#ff6969" stroke-width="3" d="M209.802,-206.394C201.676,-236.718 185.348,-297.655 176.026,-332.447"/>
<polygon fill="#ff6969" stroke="#ff6969" points="173.292,-331.829 173.926,-340.282 178.702,-333.279 173.292,-331.829"/>
</a>
</g>
<!-- HOXA10_HOXB9 -->
<g id="node10" class="node"><title>HOXA10_HOXB9</title>
<a xlink:href="HOXA10_HOXB9.svg" xlink:title="Z&#45;value: 0.533||remove15">
<polygon fill="#9ea8ff" stroke="#9ea8ff" stroke-width="2" points="125.35,-330.763 54.85,-330.763 42.85,-318.763 42.85,-306.763 54.85,-294.763 125.35,-294.763 137.35,-306.763 137.35,-318.763 125.35,-330.763"/>
<path fill="#9ea8ff" stroke="#9ea8ff" stroke-width="2" d="M54.85,-330.763C48.85,-330.763 42.85,-324.763 42.85,-318.763"/>
<path fill="#9ea8ff" stroke="#9ea8ff" stroke-width="2" d="M42.85,-306.763C42.85,-300.763 48.85,-294.763 54.85,-294.763"/>
<path fill="#9ea8ff" stroke="#9ea8ff" stroke-width="2" d="M125.35,-294.763C131.35,-294.763 137.35,-300.763 137.35,-306.763"/>
<path fill="#9ea8ff" stroke="#9ea8ff" stroke-width="2" d="M137.35,-318.763C137.35,-324.763 131.35,-330.763 125.35,-330.763"/>
<polyline fill="none" stroke="white" stroke-width="2" points="125.35,-330.763 54.85,-330.763 "/>
<path fill="none" stroke="white" stroke-width="2" d="M54.85,-330.763C48.85,-330.763 42.85,-324.763 42.85,-318.763"/>
<polyline fill="none" stroke="white" stroke-width="2" points="42.85,-318.763 42.85,-306.763 "/>
<path fill="none" stroke="white" stroke-width="2" d="M42.85,-306.763C42.85,-300.763 48.85,-294.763 54.85,-294.763"/>
<polyline fill="none" stroke="white" stroke-width="2" points="54.85,-294.763 125.35,-294.763 "/>
<path fill="none" stroke="white" stroke-width="2" d="M125.35,-294.763C131.35,-294.763 137.35,-300.763 137.35,-306.763"/>
<polyline fill="none" stroke="white" stroke-width="2" points="137.35,-306.763 137.35,-318.763 "/>
<path fill="none" stroke="white" stroke-width="2" d="M137.35,-318.763C137.35,-324.763 131.35,-330.763 125.35,-330.763"/>
<text text-anchor="middle" x="90.1" y="-310.263" font-family="Helvetica,sans-Serif" font-size="10.00">HOXA10_HOXB9</text>
</a>
</g>
<!-- SMAD4&#45;&gt;HOXA10_HOXB9 -->
<g id="edge10" class="edge"><title>SMAD4&#45;&gt;HOXA10_HOXB9</title>
<a xlink:title="HOXA10: 0.531||remove15root">
<path fill="none" stroke="#ff4040" stroke-width="3" d="M196.566,-206.297C174.792,-228.071 138.18,-264.683 114.078,-288.785"/>
<polygon fill="#ff4040" stroke="#ff4040" points="111.914,-286.989 108.237,-294.626 115.874,-290.949 111.914,-286.989"/>
</a>
</g>
<!-- TP73 -->
<g id="node12" class="node"><title>TP73</title>
<a xlink:href="TP73.svg" xlink:title="Z&#45;value: 0.308||remove12">
<polygon fill="#b1b9ff" stroke="#b1b9ff" stroke-width="2" points="59.5,-251.782 29.5,-251.782 17.5,-239.782 17.5,-227.782 29.5,-215.782 59.5,-215.782 71.5,-227.782 71.5,-239.782 59.5,-251.782"/>
<path fill="#b1b9ff" stroke="#b1b9ff" stroke-width="2" d="M29.5,-251.782C23.5,-251.782 17.5,-245.782 17.5,-239.782"/>
<path fill="#b1b9ff" stroke="#b1b9ff" stroke-width="2" d="M17.5,-227.782C17.5,-221.782 23.5,-215.782 29.5,-215.782"/>
<path fill="#b1b9ff" stroke="#b1b9ff" stroke-width="2" d="M59.5,-215.782C65.5,-215.782 71.5,-221.782 71.5,-227.782"/>
<path fill="#b1b9ff" stroke="#b1b9ff" stroke-width="2" d="M71.5,-239.782C71.5,-245.782 65.5,-251.782 59.5,-251.782"/>
<polyline fill="none" stroke="white" stroke-width="2" points="59.5,-251.782 29.5,-251.782 "/>
<path fill="none" stroke="white" stroke-width="2" d="M29.5,-251.782C23.5,-251.782 17.5,-245.782 17.5,-239.782"/>
<polyline fill="none" stroke="white" stroke-width="2" points="17.5,-239.782 17.5,-227.782 "/>
<path fill="none" stroke="white" stroke-width="2" d="M17.5,-227.782C17.5,-221.782 23.5,-215.782 29.5,-215.782"/>
<polyline fill="none" stroke="white" stroke-width="2" points="29.5,-215.782 59.5,-215.782 "/>
<path fill="none" stroke="white" stroke-width="2" d="M59.5,-215.782C65.5,-215.782 71.5,-221.782 71.5,-227.782"/>
<polyline fill="none" stroke="white" stroke-width="2" points="71.5,-227.782 71.5,-239.782 "/>
<path fill="none" stroke="white" stroke-width="2" d="M71.5,-239.782C71.5,-245.782 65.5,-251.782 59.5,-251.782"/>
<text text-anchor="middle" x="44.5" y="-231.282" font-family="Helvetica,sans-Serif" font-size="10.00">TP73</text>
</a>
</g>
<!-- SMAD4&#45;&gt;TP73 -->
<g id="edge12" class="edge"><title>SMAD4&#45;&gt;TP73</title>
<a xlink:title="TP73: 0.312||remove12root">
<path fill="none" stroke="#ff7979" stroke-width="3" d="M187.339,-195.508C158.062,-203.353 111.517,-215.824 79.5644,-224.386"/>
<polygon fill="#ff7979" stroke="#ff7979" points="78.7774,-221.698 71.7748,-226.473 80.2269,-227.107 78.7774,-221.698"/>
</a>
</g>
<!-- MEF2D_MEF2A -->
<g id="node14" class="node"><title>MEF2D_MEF2A</title>
<a xlink:href="MEF2D_MEF2A.svg" xlink:title="Z&#45;value: 0.591||remove8">
<polygon fill="#99a3ff" stroke="#99a3ff" stroke-width="2" points="76.75,-160.582 12.25,-160.582 0.25,-148.582 0.25,-136.582 12.25,-124.582 76.75,-124.582 88.75,-136.582 88.75,-148.582 76.75,-160.582"/>
<path fill="#99a3ff" stroke="#99a3ff" stroke-width="2" d="M12.25,-160.582C6.25,-160.582 0.25,-154.582 0.25,-148.582"/>
<path fill="#99a3ff" stroke="#99a3ff" stroke-width="2" d="M0.25,-136.582C0.25,-130.582 6.25,-124.582 12.25,-124.582"/>
<path fill="#99a3ff" stroke="#99a3ff" stroke-width="2" d="M76.75,-124.582C82.75,-124.582 88.75,-130.582 88.75,-136.582"/>
<path fill="#99a3ff" stroke="#99a3ff" stroke-width="2" d="M88.75,-148.582C88.75,-154.582 82.75,-160.582 76.75,-160.582"/>
<polyline fill="none" stroke="white" stroke-width="2" points="76.75,-160.582 12.25,-160.582 "/>
<path fill="none" stroke="white" stroke-width="2" d="M12.25,-160.582C6.25,-160.582 0.25,-154.582 0.25,-148.582"/>
<polyline fill="none" stroke="white" stroke-width="2" points="0.25,-148.582 0.25,-136.582 "/>
<path fill="none" stroke="white" stroke-width="2" d="M0.25,-136.582C0.25,-130.582 6.25,-124.582 12.25,-124.582"/>
<polyline fill="none" stroke="white" stroke-width="2" points="12.25,-124.582 76.75,-124.582 "/>
<path fill="none" stroke="white" stroke-width="2" d="M76.75,-124.582C82.75,-124.582 88.75,-130.582 88.75,-136.582"/>
<polyline fill="none" stroke="white" stroke-width="2" points="88.75,-136.582 88.75,-148.582 "/>
<path fill="none" stroke="white" stroke-width="2" d="M88.75,-148.582C88.75,-154.582 82.75,-160.582 76.75,-160.582"/>
<text text-anchor="middle" x="44.5" y="-140.082" font-family="Helvetica,sans-Serif" font-size="10.00">MEF2D_MEF2A</text>
</a>
</g>
<!-- SMAD4&#45;&gt;MEF2D_MEF2A -->
<g id="edge14" class="edge"><title>SMAD4&#45;&gt;MEF2D_MEF2A</title>
<a xlink:title="MEF2D: 0.210||remove8root">
<path fill="none" stroke="#ff9494" stroke-width="3" d="M187.339,-180.855C163.016,-174.338 126.775,-164.627 96.8841,-156.618"/>
<polygon fill="#ff9494" stroke="#ff9494" points="97.4882,-153.881 89.036,-154.515 96.0387,-159.29 97.4882,-153.881"/>
</a>
</g>
<!-- ALX3 -->
<g id="node16" class="node"><title>ALX3</title>
<a xlink:href="ALX3.svg" xlink:title="Z&#45;value: 0.552||remove13">
<polygon fill="#9da6ff" stroke="#9da6ff" stroke-width="2" points="105.1,-81.6 75.1,-81.6 63.1,-69.6 63.1,-57.6 75.1,-45.6 105.1,-45.6 117.1,-57.6 117.1,-69.6 105.1,-81.6"/>
<path fill="#9da6ff" stroke="#9da6ff" stroke-width="2" d="M75.1,-81.6C69.1,-81.6 63.1,-75.6 63.1,-69.6"/>
<path fill="#9da6ff" stroke="#9da6ff" stroke-width="2" d="M63.1,-57.6C63.1,-51.6 69.1,-45.6 75.1,-45.6"/>
<path fill="#9da6ff" stroke="#9da6ff" stroke-width="2" d="M105.1,-45.6C111.1,-45.6 117.1,-51.6 117.1,-57.6"/>
<path fill="#9da6ff" stroke="#9da6ff" stroke-width="2" d="M117.1,-69.6C117.1,-75.6 111.1,-81.6 105.1,-81.6"/>
<polyline fill="none" stroke="white" stroke-width="2" points="105.1,-81.6 75.1,-81.6 "/>
<path fill="none" stroke="white" stroke-width="2" d="M75.1,-81.6C69.1,-81.6 63.1,-75.6 63.1,-69.6"/>
<polyline fill="none" stroke="white" stroke-width="2" points="63.1,-69.6 63.1,-57.6 "/>
<path fill="none" stroke="white" stroke-width="2" d="M63.1,-57.6C63.1,-51.6 69.1,-45.6 75.1,-45.6"/>
<polyline fill="none" stroke="white" stroke-width="2" points="75.1,-45.6 105.1,-45.6 "/>
<path fill="none" stroke="white" stroke-width="2" d="M105.1,-45.6C111.1,-45.6 117.1,-51.6 117.1,-57.6"/>
<polyline fill="none" stroke="white" stroke-width="2" points="117.1,-57.6 117.1,-69.6 "/>
<path fill="none" stroke="white" stroke-width="2" d="M117.1,-69.6C117.1,-75.6 111.1,-81.6 105.1,-81.6"/>
<text text-anchor="middle" x="90.1" y="-61.1" font-family="Helvetica,sans-Serif" font-size="10.00">ALX3</text>
</a>
</g>
<!-- SMAD4&#45;&gt;ALX3 -->
<g id="edge16" class="edge"><title>SMAD4&#45;&gt;ALX3</title>
<a xlink:title="ALX3: 0.348||remove13root">
<path fill="none" stroke="#ff7070" stroke-width="3" d="M196.566,-170.066C174.792,-148.292 138.18,-111.68 114.078,-87.5783"/>
<polygon fill="#ff7070" stroke="#ff7070" points="115.874,-85.4141 108.237,-81.7371 111.914,-89.3739 115.874,-85.4141"/>
</a>
</g>
<!-- ESRRB_ESRRG -->
<g id="node18" class="node"><title>ESRRB_ESRRG</title>
<a xlink:href="ESRRB_ESRRG.svg" xlink:title="Z&#45;value: 0.825||remove10">
<polygon fill="#8592ff" stroke="#8592ff" stroke-width="2" points="203.332,-36 134.832,-36 122.832,-24 122.832,-12 134.832,-3.19744e-14 203.332,-3.19744e-14 215.332,-12 215.332,-24 203.332,-36"/>
<path fill="#8592ff" stroke="#8592ff" stroke-width="2" d="M134.832,-36C128.832,-36 122.832,-30 122.832,-24"/>
<path fill="#8592ff" stroke="#8592ff" stroke-width="2" d="M122.832,-12C122.832,-6 128.832,-3.19744e-14 134.832,-3.19744e-14"/>
<path fill="#8592ff" stroke="#8592ff" stroke-width="2" d="M203.332,-3.19744e-14C209.332,-3.19744e-14 215.332,-6 215.332,-12"/>
<path fill="#8592ff" stroke="#8592ff" stroke-width="2" d="M215.332,-24C215.332,-30 209.332,-36 203.332,-36"/>
<polyline fill="none" stroke="white" stroke-width="2" points="203.332,-36 134.832,-36 "/>
<path fill="none" stroke="white" stroke-width="2" d="M134.832,-36C128.832,-36 122.832,-30 122.832,-24"/>
<polyline fill="none" stroke="white" stroke-width="2" points="122.832,-24 122.832,-12 "/>
<path fill="none" stroke="white" stroke-width="2" d="M122.832,-12C122.832,-6 128.832,-3.19744e-14 134.832,-3.19744e-14"/>
<polyline fill="none" stroke="white" stroke-width="2" points="134.832,-3.19744e-14 203.332,-3.19744e-14 "/>
<path fill="none" stroke="white" stroke-width="2" d="M203.332,-3.19744e-14C209.332,-3.19744e-14 215.332,-6 215.332,-12"/>
<polyline fill="none" stroke="white" stroke-width="2" points="215.332,-12 215.332,-24 "/>
<path fill="none" stroke="white" stroke-width="2" d="M215.332,-24C215.332,-30 209.332,-36 203.332,-36"/>
<text text-anchor="middle" x="169.082" y="-15.5" font-family="Helvetica,sans-Serif" font-size="10.00">ESRRB_ESRRG</text>
</a>
</g>
<!-- SMAD4&#45;&gt;ESRRB_ESRRG -->
<g id="edge18" class="edge"><title>SMAD4&#45;&gt;ESRRB_ESRRG</title>
<a xlink:title="ESRRG: 0.220||remove10root">
<path fill="none" stroke="#ff9191" stroke-width="3" d="M209.802,-169.969C201.676,-139.645 185.348,-78.7083 176.026,-43.9159"/>
<polygon fill="#ff9191" stroke="#ff9191" points="178.702,-43.0841 173.926,-36.0815 173.292,-44.5336 178.702,-43.0841"/>
</a>
</g>
<!-- NKX2&#45;4 -->
<g id="node20" class="node"><title>NKX2&#45;4</title>
<a xlink:href="NKX2-4.svg" xlink:title="Z&#45;value: 0.505||remove7">
<polygon fill="#a1aaff" stroke="#a1aaff" stroke-width="2" points="275.282,-36 245.282,-36 233.282,-24 233.282,-12 245.282,3.19744e-14 275.282,3.19744e-14 287.282,-12 287.282,-24 275.282,-36"/>
<path fill="#a1aaff" stroke="#a1aaff" stroke-width="2" d="M245.282,-36C239.282,-36 233.282,-30 233.282,-24"/>
<path fill="#a1aaff" stroke="#a1aaff" stroke-width="2" d="M233.282,-12C233.282,-6 239.282,3.19744e-14 245.282,3.19744e-14"/>
<path fill="#a1aaff" stroke="#a1aaff" stroke-width="2" d="M275.282,3.19744e-14C281.282,3.19744e-14 287.282,-6 287.282,-12"/>
<path fill="#a1aaff" stroke="#a1aaff" stroke-width="2" d="M287.282,-24C287.282,-30 281.282,-36 275.282,-36"/>
<polyline fill="none" stroke="white" stroke-width="2" points="275.282,-36 245.282,-36 "/>
<path fill="none" stroke="white" stroke-width="2" d="M245.282,-36C239.282,-36 233.282,-30 233.282,-24"/>
<polyline fill="none" stroke="white" stroke-width="2" points="233.282,-24 233.282,-12 "/>
<path fill="none" stroke="white" stroke-width="2" d="M233.282,-12C233.282,-6 239.282,3.19744e-14 245.282,3.19744e-14"/>
<polyline fill="none" stroke="white" stroke-width="2" points="245.282,3.19744e-14 275.282,3.19744e-14 "/>
<path fill="none" stroke="white" stroke-width="2" d="M275.282,3.19744e-14C281.282,3.19744e-14 287.282,-6 287.282,-12"/>
<polyline fill="none" stroke="white" stroke-width="2" points="287.282,-12 287.282,-24 "/>
<path fill="none" stroke="white" stroke-width="2" d="M287.282,-24C287.282,-30 281.282,-36 275.282,-36"/>
<text text-anchor="middle" x="260.282" y="-15.5" font-family="Helvetica,sans-Serif" font-size="10.00">NKX2&#45;4</text>
</a>
</g>
<!-- SMAD4&#45;&gt;NKX2&#45;4 -->
<g id="edge20" class="edge"><title>SMAD4&#45;&gt;NKX2&#45;4</title>
<a xlink:title="NKX2&#45;4: 0.207||remove7root">
<path fill="none" stroke="#ff9595" stroke-width="3" d="M219.562,-169.969C227.687,-139.645 244.015,-78.7083 253.337,-43.9159"/>
<polygon fill="#ff9595" stroke="#ff9595" points="256.071,-44.5336 255.437,-36.0815 250.661,-43.0841 256.071,-44.5336"/>
</a>
</g>
<!-- NKX1&#45;1 -->
<g id="node22" class="node"><title>NKX1&#45;1</title>
<a xlink:href="NKX1-1.svg" xlink:title="Z&#45;value: 0.172||remove6">
<polygon fill="#bdc3ff" stroke="#bdc3ff" stroke-width="2" points="354.263,-81.6 324.263,-81.6 312.263,-69.6 312.263,-57.6 324.263,-45.6 354.263,-45.6 366.263,-57.6 366.263,-69.6 354.263,-81.6"/>
<path fill="#bdc3ff" stroke="#bdc3ff" stroke-width="2" d="M324.263,-81.6C318.263,-81.6 312.263,-75.6 312.263,-69.6"/>
<path fill="#bdc3ff" stroke="#bdc3ff" stroke-width="2" d="M312.263,-57.6C312.263,-51.6 318.263,-45.6 324.263,-45.6"/>
<path fill="#bdc3ff" stroke="#bdc3ff" stroke-width="2" d="M354.263,-45.6C360.263,-45.6 366.263,-51.6 366.263,-57.6"/>
<path fill="#bdc3ff" stroke="#bdc3ff" stroke-width="2" d="M366.263,-69.6C366.263,-75.6 360.263,-81.6 354.263,-81.6"/>
<polyline fill="none" stroke="white" stroke-width="2" points="354.263,-81.6 324.263,-81.6 "/>
<path fill="none" stroke="white" stroke-width="2" d="M324.263,-81.6C318.263,-81.6 312.263,-75.6 312.263,-69.6"/>
<polyline fill="none" stroke="white" stroke-width="2" points="312.263,-69.6 312.263,-57.6 "/>
<path fill="none" stroke="white" stroke-width="2" d="M312.263,-57.6C312.263,-51.6 318.263,-45.6 324.263,-45.6"/>
<polyline fill="none" stroke="white" stroke-width="2" points="324.263,-45.6 354.263,-45.6 "/>
<path fill="none" stroke="white" stroke-width="2" d="M354.263,-45.6C360.263,-45.6 366.263,-51.6 366.263,-57.6"/>
<polyline fill="none" stroke="white" stroke-width="2" points="366.263,-57.6 366.263,-69.6 "/>
<path fill="none" stroke="white" stroke-width="2" d="M366.263,-69.6C366.263,-75.6 360.263,-81.6 354.263,-81.6"/>
<text text-anchor="middle" x="339.263" y="-61.1" font-family="Helvetica,sans-Serif" font-size="10.00">NKX1&#45;1</text>
</a>
</g>
<!-- SMAD4&#45;&gt;NKX1&#45;1 -->
<g id="edge22" class="edge"><title>SMAD4&#45;&gt;NKX1&#45;1</title>
<a xlink:title="NKX1&#45;1: 0.202||remove6root">
<path fill="none" stroke="#ff9696" stroke-width="3" d="M232.797,-170.066C254.571,-148.292 291.183,-111.68 315.285,-87.5783"/>
<polygon fill="#ff9696" stroke="#ff9696" points="317.449,-89.3739 321.126,-81.7371 313.489,-85.4141 317.449,-89.3739"/>
</a>
</g>
<!-- CPEB1&#45;&gt;HOXA10_HOXB9 -->
<g id="edge24" class="edge"><title>CPEB1&#45;&gt;HOXA10_HOXB9</title>
<a xlink:title="HOXA10: 0.089||remove3root">
<path fill="none" stroke="#e7b4ff" stroke-width="3" d="M232.974,-340.583C230.639,-339.43 228.271,-338.375 225.922,-337.483 200.347,-327.768 170.576,-321.802 145.435,-318.173"/>
<polygon fill="#e7b4ff" stroke="#e7b4ff" points="145.753,-315.39 137.446,-317.075 144.991,-320.938 145.753,-315.39"/>
</a>
</g>
<!-- EN1_ESX1_GBX1&#45;&gt;ESRRB_ESRRG -->
<g id="edge30" class="edge"><title>EN1_ESX1_GBX1&#45;&gt;ESRRB_ESRRG</title>
<a xlink:title="ESRRG: 0.022||remove0root">
<path fill="none" stroke="#ecc6ff" stroke-width="3" d="M169.082,-340.064C169.082,-283.505 169.082,-111.312 169.082,-44.7031"/>
<polygon fill="#ecc6ff" stroke="#ecc6ff" points="171.882,-44.3898 169.082,-36.3899 166.282,-44.3899 171.882,-44.3898"/>
</a>
</g>
<!-- TP73&#45;&gt;HOXA10_HOXB9 -->
<g id="edge32" class="edge"><title>TP73&#45;&gt;HOXA10_HOXB9</title>
<a xlink:title="HOXA10: 0.057||remove2root">
<path fill="none" stroke="#e9bdff" stroke-width="3" d="M55.0762,-252.1C61.1192,-262.567 68.7889,-275.851 75.4096,-287.318"/>
<polygon fill="#e9bdff" stroke="#e9bdff" points="73.1563,-289.016 79.5812,-294.544 78.006,-286.216 73.1563,-289.016"/>
</a>
</g>
<!-- MEF2D_MEF2A&#45;&gt;ESRRB_ESRRG -->
<g id="edge28" class="edge"><title>MEF2D_MEF2A&#45;&gt;ESRRB_ESRRG</title>
<a xlink:title="ESRRB: 0.222||remove8">
<path fill="none" stroke="#db91ff" stroke-width="3" d="M72.4707,-124.528C87.8324,-113.886 106.696,-99.5753 121.42,-84.48 133.635,-71.9565 145.131,-56.0919 153.771,-43.0016"/>
<polygon fill="#db91ff" stroke="#db91ff" points="156.271,-44.2917 158.263,-36.0534 151.568,-41.2511 156.271,-44.2917"/>
</a>
</g>
<!-- ESRRB_ESRRG&#45;&gt;ESRRB_ESRRG -->
<g id="edge26" class="edge"><title>ESRRB_ESRRG&#45;&gt;ESRRB_ESRRG</title>
<a xlink:title="ESRRG: 0.023||remove1root">
<path fill="none" stroke="#ecc5ff" stroke-width="3" d="M215.393,-24.5683C225.628,-23.9512 233.082,-21.7617 233.082,-18 233.082,-15.355 229.396,-13.4874 223.651,-12.3971"/>
<polygon fill="#ecc5ff" stroke="#ecc5ff" points="223.664,-9.57965 215.393,-11.4317 223.014,-15.1418 223.664,-9.57965"/>
</a>
</g>
<!-- ZNF384 -->
<g id="node29" class="node"><title>ZNF384</title>
<a xlink:href="ZNF384.svg" xlink:title="Z&#45;value: 1.127||remove11">
<polygon fill="#6c7aff" stroke="#6c7aff" stroke-width="2" points="399.863,-160.582 369.863,-160.582 357.863,-148.582 357.863,-136.582 369.863,-124.582 399.863,-124.582 411.863,-136.582 411.863,-148.582 399.863,-160.582"/>
<path fill="#6c7aff" stroke="#6c7aff" stroke-width="2" d="M369.863,-160.582C363.863,-160.582 357.863,-154.582 357.863,-148.582"/>
<path fill="#6c7aff" stroke="#6c7aff" stroke-width="2" d="M357.863,-136.582C357.863,-130.582 363.863,-124.582 369.863,-124.582"/>
<path fill="#6c7aff" stroke="#6c7aff" stroke-width="2" d="M399.863,-124.582C405.863,-124.582 411.863,-130.582 411.863,-136.582"/>
<path fill="#6c7aff" stroke="#6c7aff" stroke-width="2" d="M411.863,-148.582C411.863,-154.582 405.863,-160.582 399.863,-160.582"/>
<polyline fill="none" stroke="white" stroke-width="2" points="399.863,-160.582 369.863,-160.582 "/>
<path fill="none" stroke="white" stroke-width="2" d="M369.863,-160.582C363.863,-160.582 357.863,-154.582 357.863,-148.582"/>
<polyline fill="none" stroke="white" stroke-width="2" points="357.863,-148.582 357.863,-136.582 "/>
<path fill="none" stroke="white" stroke-width="2" d="M357.863,-136.582C357.863,-130.582 363.863,-124.582 369.863,-124.582"/>
<polyline fill="none" stroke="white" stroke-width="2" points="369.863,-124.582 399.863,-124.582 "/>
<path fill="none" stroke="white" stroke-width="2" d="M399.863,-124.582C405.863,-124.582 411.863,-130.582 411.863,-136.582"/>
<polyline fill="none" stroke="white" stroke-width="2" points="411.863,-136.582 411.863,-148.582 "/>
<path fill="none" stroke="white" stroke-width="2" d="M411.863,-148.582C411.863,-154.582 405.863,-160.582 399.863,-160.582"/>
<text text-anchor="middle" x="384.863" y="-140.082" font-family="Helvetica,sans-Serif" font-size="10.00" fill="white">ZNF384</text>
</a>
</g>
<!-- ZNF384&#45;&gt;BACH1_NFE2_NFE2L2 -->
<g id="edge34" class="edge"><title>ZNF384&#45;&gt;BACH1_NFE2_NFE2L2</title>
<a xlink:title="NFE2: 0.108||NFE2L2: 0.014||remove4root">
<path fill="none" stroke="#e5afff" stroke-width="3" d="M384.863,-160.6C384.863,-173.878 384.863,-192.155 384.863,-207.122"/>
<polygon fill="#e5afff" stroke="#e5afff" points="382.063,-207.489 384.863,-215.489 387.663,-207.489 382.063,-207.489"/>
</a>
</g>
<!-- ZNF384&#45;&gt;SMAD4 -->
<g id="edge36" class="edge"><title>ZNF384&#45;&gt;SMAD4</title>
<a xlink:title="SMAD4: 0.299||remove11root">
<path fill="none" stroke="#7d8aff" stroke-width="3" d="M357.52,-149.908C328.244,-157.753 281.698,-170.224 249.746,-178.786"/>
<polygon fill="#7d8aff" stroke="#7d8aff" points="248.959,-176.098 241.956,-180.873 250.408,-181.507 248.959,-176.098"/>
</a>
</g>
</g>
</svg>
