<?xml version="1.0" encoding="UTF-8" standalone="no"?>
<!DOCTYPE svg PUBLIC "-//W3C//DTD SVG 1.1//EN"
 "http://www.w3.org/Graphics/SVG/1.1/DTD/svg11.dtd">
<!-- Generated by graphviz version 2.28.0 (20110630.0925)
 -->
<!-- Title: _anonymous_0 Pages: 1 -->
<svg width="433pt" height="380pt"
 viewBox="0.00 0.00 432.88 379.88" xmlns="http://www.w3.org/2000/svg" xmlns:xlink="http://www.w3.org/1999/xlink">
<g id="graph1" class="graph" transform="scale(1 1) rotate(0) translate(4 375.885)">
<title>_anonymous_0</title>
<polygon fill="white" stroke="white" points="-4,5 -4,-375.885 429.885,-375.885 429.885,5 -4,5"/>
<!-- FOXM1_TBL1XR1 -->
<g id="node1" class="node"><title>FOXM1_TBL1XR1</title>
<a xlink:href="FOXM1_TBL1XR1.svg" xlink:title="Z&#45;value: 2.140||remove25">
<polygon fill="#3247ff" stroke="#3247ff" stroke-width="2" points="354.385,-326.885 281.385,-326.885 269.385,-314.885 269.385,-302.885 281.385,-290.885 354.385,-290.885 366.385,-302.885 366.385,-314.885 354.385,-326.885"/>
<path fill="#3247ff" stroke="#3247ff" stroke-width="2" d="M281.385,-326.885C275.385,-326.885 269.385,-320.885 269.385,-314.885"/>
<path fill="#3247ff" stroke="#3247ff" stroke-width="2" d="M269.385,-302.885C269.385,-296.885 275.385,-290.885 281.385,-290.885"/>
<path fill="#3247ff" stroke="#3247ff" stroke-width="2" d="M354.385,-290.885C360.385,-290.885 366.385,-296.885 366.385,-302.885"/>
<path fill="#3247ff" stroke="#3247ff" stroke-width="2" d="M366.385,-314.885C366.385,-320.885 360.385,-326.885 354.385,-326.885"/>
<polyline fill="none" stroke="white" stroke-width="2" points="354.385,-326.885 281.385,-326.885 "/>
<path fill="none" stroke="white" stroke-width="2" d="M281.385,-326.885C275.385,-326.885 269.385,-320.885 269.385,-314.885"/>
<polyline fill="none" stroke="white" stroke-width="2" points="269.385,-314.885 269.385,-302.885 "/>
<path fill="none" stroke="white" stroke-width="2" d="M269.385,-302.885C269.385,-296.885 275.385,-290.885 281.385,-290.885"/>
<polyline fill="none" stroke="white" stroke-width="2" points="281.385,-290.885 354.385,-290.885 "/>
<path fill="none" stroke="white" stroke-width="2" d="M354.385,-290.885C360.385,-290.885 366.385,-296.885 366.385,-302.885"/>
<polyline fill="none" stroke="white" stroke-width="2" points="366.385,-302.885 366.385,-314.885 "/>
<path fill="none" stroke="white" stroke-width="2" d="M366.385,-314.885C366.385,-320.885 360.385,-326.885 354.385,-326.885"/>
<text text-anchor="middle" x="317.885" y="-306.385" font-family="Helvetica,sans-Serif" font-size="10.00" fill="white">FOXM1_TBL1XR1</text>
</a>
</g>
<!-- FOXA2_FOXJ3 -->
<g id="node2" class="node"><title>FOXA2_FOXJ3</title>
<a xlink:href="FOXA2_FOXJ3.svg" xlink:title="Z&#45;value: 0.626||remove24">
<polygon fill="#9fa8ff" stroke="#9fa8ff" stroke-width="2" points="270.192,-371.885 209.692,-371.885 197.692,-359.885 197.692,-347.885 209.692,-335.885 270.192,-335.885 282.192,-347.885 282.192,-359.885 270.192,-371.885"/>
<path fill="#9fa8ff" stroke="#9fa8ff" stroke-width="2" d="M209.692,-371.885C203.692,-371.885 197.692,-365.885 197.692,-359.885"/>
<path fill="#9fa8ff" stroke="#9fa8ff" stroke-width="2" d="M197.692,-347.885C197.692,-341.885 203.692,-335.885 209.692,-335.885"/>
<path fill="#9fa8ff" stroke="#9fa8ff" stroke-width="2" d="M270.192,-335.885C276.192,-335.885 282.192,-341.885 282.192,-347.885"/>
<path fill="#9fa8ff" stroke="#9fa8ff" stroke-width="2" d="M282.192,-359.885C282.192,-365.885 276.192,-371.885 270.192,-371.885"/>
<polyline fill="none" stroke="white" stroke-width="2" points="270.192,-371.885 209.692,-371.885 "/>
<path fill="none" stroke="white" stroke-width="2" d="M209.692,-371.885C203.692,-371.885 197.692,-365.885 197.692,-359.885"/>
<polyline fill="none" stroke="white" stroke-width="2" points="197.692,-359.885 197.692,-347.885 "/>
<path fill="none" stroke="white" stroke-width="2" d="M197.692,-347.885C197.692,-341.885 203.692,-335.885 209.692,-335.885"/>
<polyline fill="none" stroke="white" stroke-width="2" points="209.692,-335.885 270.192,-335.885 "/>
<path fill="none" stroke="white" stroke-width="2" d="M270.192,-335.885C276.192,-335.885 282.192,-341.885 282.192,-347.885"/>
<polyline fill="none" stroke="white" stroke-width="2" points="282.192,-347.885 282.192,-359.885 "/>
<path fill="none" stroke="white" stroke-width="2" d="M282.192,-359.885C282.192,-365.885 276.192,-371.885 270.192,-371.885"/>
<text text-anchor="middle" x="239.942" y="-351.385" font-family="Helvetica,sans-Serif" font-size="10.00">FOXA2_FOXJ3</text>
</a>
</g>
<!-- FOXM1_TBL1XR1&#45;&gt;FOXA2_FOXJ3 -->
<g id="edge2" class="edge"><title>FOXM1_TBL1XR1&#45;&gt;FOXA2_FOXJ3</title>
<a xlink:title="FOXA2: 0.296||remove24">
<path fill="none" stroke="#cf6cff" stroke-width="3" d="M286.632,-326.929C283.932,-328.487 281.18,-330.076 278.432,-331.663"/>
<polygon fill="#cf6cff" stroke="#cf6cff" points="276.731,-329.412 271.202,-335.837 279.531,-334.261 276.731,-329.412"/>
</a>
</g>
<!-- ELF3_EHF -->
<g id="node4" class="node"><title>ELF3_EHF</title>
<a xlink:href="ELF3_EHF.svg" xlink:title="Z&#45;value: 1.010||remove27">
<polygon fill="#8390ff" stroke="#8390ff" stroke-width="2" points="170.192,-371.885 129.692,-371.885 117.692,-359.885 117.692,-347.885 129.692,-335.885 170.192,-335.885 182.192,-347.885 182.192,-359.885 170.192,-371.885"/>
<path fill="#8390ff" stroke="#8390ff" stroke-width="2" d="M129.692,-371.885C123.692,-371.885 117.692,-365.885 117.692,-359.885"/>
<path fill="#8390ff" stroke="#8390ff" stroke-width="2" d="M117.692,-347.885C117.692,-341.885 123.692,-335.885 129.692,-335.885"/>
<path fill="#8390ff" stroke="#8390ff" stroke-width="2" d="M170.192,-335.885C176.192,-335.885 182.192,-341.885 182.192,-347.885"/>
<path fill="#8390ff" stroke="#8390ff" stroke-width="2" d="M182.192,-359.885C182.192,-365.885 176.192,-371.885 170.192,-371.885"/>
<polyline fill="none" stroke="white" stroke-width="2" points="170.192,-371.885 129.692,-371.885 "/>
<path fill="none" stroke="white" stroke-width="2" d="M129.692,-371.885C123.692,-371.885 117.692,-365.885 117.692,-359.885"/>
<polyline fill="none" stroke="white" stroke-width="2" points="117.692,-359.885 117.692,-347.885 "/>
<path fill="none" stroke="white" stroke-width="2" d="M117.692,-347.885C117.692,-341.885 123.692,-335.885 129.692,-335.885"/>
<polyline fill="none" stroke="white" stroke-width="2" points="129.692,-335.885 170.192,-335.885 "/>
<path fill="none" stroke="white" stroke-width="2" d="M170.192,-335.885C176.192,-335.885 182.192,-341.885 182.192,-347.885"/>
<polyline fill="none" stroke="white" stroke-width="2" points="182.192,-347.885 182.192,-359.885 "/>
<path fill="none" stroke="white" stroke-width="2" d="M182.192,-359.885C182.192,-365.885 176.192,-371.885 170.192,-371.885"/>
<text text-anchor="middle" x="149.942" y="-351.385" font-family="Helvetica,sans-Serif" font-size="10.00">ELF3_EHF</text>
</a>
</g>
<!-- FOXM1_TBL1XR1&#45;&gt;ELF3_EHF -->
<g id="edge4" class="edge"><title>FOXM1_TBL1XR1&#45;&gt;ELF3_EHF</title>
<a xlink:title="EHF: 0.121||remove15root">
<path fill="none" stroke="#e2a4ff" stroke-width="3" d="M269.307,-314.751C245.223,-318.495 215.949,-324.317 190.642,-333.005 190.473,-333.063 190.304,-333.121 190.135,-333.18"/>
<polygon fill="#e2a4ff" stroke="#e2a4ff" points="188.892,-330.66 182.463,-336.184 190.933,-335.875 188.892,-330.66"/>
</a>
</g>
<!-- TBX21_TBR1 -->
<g id="node6" class="node"><title>TBX21_TBR1</title>
<a xlink:href="TBX21_TBR1.svg" xlink:title="Z&#45;value: 0.653||remove22">
<polygon fill="#9da7ff" stroke="#9da7ff" stroke-width="2" points="98.25,-326.885 45.75,-326.885 33.75,-314.885 33.75,-302.885 45.75,-290.885 98.25,-290.885 110.25,-302.885 110.25,-314.885 98.25,-326.885"/>
<path fill="#9da7ff" stroke="#9da7ff" stroke-width="2" d="M45.75,-326.885C39.75,-326.885 33.75,-320.885 33.75,-314.885"/>
<path fill="#9da7ff" stroke="#9da7ff" stroke-width="2" d="M33.75,-302.885C33.75,-296.885 39.75,-290.885 45.75,-290.885"/>
<path fill="#9da7ff" stroke="#9da7ff" stroke-width="2" d="M98.25,-290.885C104.25,-290.885 110.25,-296.885 110.25,-302.885"/>
<path fill="#9da7ff" stroke="#9da7ff" stroke-width="2" d="M110.25,-314.885C110.25,-320.885 104.25,-326.885 98.25,-326.885"/>
<polyline fill="none" stroke="white" stroke-width="2" points="98.25,-326.885 45.75,-326.885 "/>
<path fill="none" stroke="white" stroke-width="2" d="M45.75,-326.885C39.75,-326.885 33.75,-320.885 33.75,-314.885"/>
<polyline fill="none" stroke="white" stroke-width="2" points="33.75,-314.885 33.75,-302.885 "/>
<path fill="none" stroke="white" stroke-width="2" d="M33.75,-302.885C33.75,-296.885 39.75,-290.885 45.75,-290.885"/>
<polyline fill="none" stroke="white" stroke-width="2" points="45.75,-290.885 98.25,-290.885 "/>
<path fill="none" stroke="white" stroke-width="2" d="M98.25,-290.885C104.25,-290.885 110.25,-296.885 110.25,-302.885"/>
<polyline fill="none" stroke="white" stroke-width="2" points="110.25,-302.885 110.25,-314.885 "/>
<path fill="none" stroke="white" stroke-width="2" d="M110.25,-314.885C110.25,-320.885 104.25,-326.885 98.25,-326.885"/>
<text text-anchor="middle" x="72" y="-306.385" font-family="Helvetica,sans-Serif" font-size="10.00">TBX21_TBR1</text>
</a>
</g>
<!-- FOXM1_TBL1XR1&#45;&gt;TBX21_TBR1 -->
<g id="edge6" class="edge"><title>FOXM1_TBL1XR1&#45;&gt;TBX21_TBR1</title>
<a xlink:title="TBX21: 0.034||remove6root">
<path fill="none" stroke="#ebc0ff" stroke-width="3" d="M269.306,-308.885C225.653,-308.885 161.965,-308.885 118.852,-308.885"/>
<polygon fill="#ebc0ff" stroke="#ebc0ff" points="118.783,-306.085 110.783,-308.885 118.783,-311.685 118.783,-306.085"/>
</a>
</g>
<!-- CPEB1 -->
<g id="node8" class="node"><title>CPEB1</title>
<a xlink:href="CPEB1.svg" xlink:title="Z&#45;value: 0.827||remove16">
<polygon fill="#909bff" stroke="#909bff" stroke-width="2" points="42,-248.942 12,-248.942 3.19744e-14,-236.942 3.19744e-14,-224.942 12,-212.942 42,-212.942 54,-224.942 54,-236.942 42,-248.942"/>
<path fill="#909bff" stroke="#909bff" stroke-width="2" d="M12,-248.942C6,-248.942 3.19744e-14,-242.942 3.19744e-14,-236.942"/>
<path fill="#909bff" stroke="#909bff" stroke-width="2" d="M3.19744e-14,-224.942C3.19744e-14,-218.942 6,-212.942 12,-212.942"/>
<path fill="#909bff" stroke="#909bff" stroke-width="2" d="M42,-212.942C48,-212.942 54,-218.942 54,-224.942"/>
<path fill="#909bff" stroke="#909bff" stroke-width="2" d="M54,-236.942C54,-242.942 48,-248.942 42,-248.942"/>
<polyline fill="none" stroke="white" stroke-width="2" points="42,-248.942 12,-248.942 "/>
<path fill="none" stroke="white" stroke-width="2" d="M12,-248.942C6,-248.942 3.19744e-14,-242.942 3.19744e-14,-236.942"/>
<polyline fill="none" stroke="white" stroke-width="2" points="3.19744e-14,-236.942 3.19744e-14,-224.942 "/>
<path fill="none" stroke="white" stroke-width="2" d="M3.19744e-14,-224.942C3.19744e-14,-218.942 6,-212.942 12,-212.942"/>
<polyline fill="none" stroke="white" stroke-width="2" points="12,-212.942 42,-212.942 "/>
<path fill="none" stroke="white" stroke-width="2" d="M42,-212.942C48,-212.942 54,-218.942 54,-224.942"/>
<polyline fill="none" stroke="white" stroke-width="2" points="54,-224.942 54,-236.942 "/>
<path fill="none" stroke="white" stroke-width="2" d="M54,-236.942C54,-242.942 48,-248.942 42,-248.942"/>
<text text-anchor="middle" x="27" y="-228.442" font-family="Helvetica,sans-Serif" font-size="10.00">CPEB1</text>
</a>
</g>
<!-- FOXM1_TBL1XR1&#45;&gt;CPEB1 -->
<g id="edge8" class="edge"><title>FOXM1_TBL1XR1&#45;&gt;CPEB1</title>
<a xlink:title="CPEB1: 0.193||remove16">
<path fill="none" stroke="#da8dff" stroke-width="3" d="M269.197,-295.839C210.706,-280.166 114.005,-254.255 62.2569,-240.389"/>
<polygon fill="#da8dff" stroke="#da8dff" points="62.8025,-237.637 54.3504,-238.271 61.3531,-243.046 62.8025,-237.637"/>
</a>
</g>
<!-- TBX5 -->
<g id="node10" class="node"><title>TBX5</title>
<a xlink:href="TBX5.svg" xlink:title="Z&#45;value: 0.861||remove19">
<polygon fill="#8e99ff" stroke="#8e99ff" stroke-width="2" points="42,-158.942 12,-158.942 0,-146.942 0,-134.942 12,-122.942 42,-122.942 54,-134.942 54,-146.942 42,-158.942"/>
<path fill="#8e99ff" stroke="#8e99ff" stroke-width="2" d="M12,-158.942C6,-158.942 0,-152.942 0,-146.942"/>
<path fill="#8e99ff" stroke="#8e99ff" stroke-width="2" d="M0,-134.942C0,-128.942 6,-122.942 12,-122.942"/>
<path fill="#8e99ff" stroke="#8e99ff" stroke-width="2" d="M42,-122.942C48,-122.942 54,-128.942 54,-134.942"/>
<path fill="#8e99ff" stroke="#8e99ff" stroke-width="2" d="M54,-146.942C54,-152.942 48,-158.942 42,-158.942"/>
<polyline fill="none" stroke="white" stroke-width="2" points="42,-158.942 12,-158.942 "/>
<path fill="none" stroke="white" stroke-width="2" d="M12,-158.942C6,-158.942 0,-152.942 0,-146.942"/>
<polyline fill="none" stroke="white" stroke-width="2" points="0,-146.942 0,-134.942 "/>
<path fill="none" stroke="white" stroke-width="2" d="M0,-134.942C0,-128.942 6,-122.942 12,-122.942"/>
<polyline fill="none" stroke="white" stroke-width="2" points="12,-122.942 42,-122.942 "/>
<path fill="none" stroke="white" stroke-width="2" d="M42,-122.942C48,-122.942 54,-128.942 54,-134.942"/>
<polyline fill="none" stroke="white" stroke-width="2" points="54,-134.942 54,-146.942 "/>
<path fill="none" stroke="white" stroke-width="2" d="M54,-146.942C54,-152.942 48,-158.942 42,-158.942"/>
<text text-anchor="middle" x="27" y="-138.442" font-family="Helvetica,sans-Serif" font-size="10.00">TBX5</text>
</a>
</g>
<!-- FOXM1_TBL1XR1&#45;&gt;TBX5 -->
<g id="edge10" class="edge"><title>FOXM1_TBL1XR1&#45;&gt;TBX5</title>
<a xlink:title="TBX5: 0.034||remove5root">
<path fill="none" stroke="#ebc1ff" stroke-width="3" d="M286.478,-290.752C231.394,-258.949 117.824,-193.38 60.9761,-160.558"/>
<polygon fill="#ebc1ff" stroke="#ebc1ff" points="62.3305,-158.107 54.0022,-156.532 59.5304,-162.957 62.3305,-158.107"/>
</a>
</g>
<!-- SOX6 -->
<g id="node12" class="node"><title>SOX6</title>
<a xlink:href="SOX6.svg" xlink:title="Z&#45;value: 0.520||remove30">
<polygon fill="#ffa6a6" stroke="#ffa6a6" stroke-width="2" points="209.942,-203.942 179.942,-203.942 167.942,-191.942 167.942,-179.942 179.942,-167.942 209.942,-167.942 221.942,-179.942 221.942,-191.942 209.942,-203.942"/>
<path fill="#ffa6a6" stroke="#ffa6a6" stroke-width="2" d="M179.942,-203.942C173.942,-203.942 167.942,-197.942 167.942,-191.942"/>
<path fill="#ffa6a6" stroke="#ffa6a6" stroke-width="2" d="M167.942,-179.942C167.942,-173.942 173.942,-167.942 179.942,-167.942"/>
<path fill="#ffa6a6" stroke="#ffa6a6" stroke-width="2" d="M209.942,-167.942C215.942,-167.942 221.942,-173.942 221.942,-179.942"/>
<path fill="#ffa6a6" stroke="#ffa6a6" stroke-width="2" d="M221.942,-191.942C221.942,-197.942 215.942,-203.942 209.942,-203.942"/>
<polyline fill="none" stroke="white" stroke-width="2" points="209.942,-203.942 179.942,-203.942 "/>
<path fill="none" stroke="white" stroke-width="2" d="M179.942,-203.942C173.942,-203.942 167.942,-197.942 167.942,-191.942"/>
<polyline fill="none" stroke="white" stroke-width="2" points="167.942,-191.942 167.942,-179.942 "/>
<path fill="none" stroke="white" stroke-width="2" d="M167.942,-179.942C167.942,-173.942 173.942,-167.942 179.942,-167.942"/>
<polyline fill="none" stroke="white" stroke-width="2" points="179.942,-167.942 209.942,-167.942 "/>
<path fill="none" stroke="white" stroke-width="2" d="M209.942,-167.942C215.942,-167.942 221.942,-173.942 221.942,-179.942"/>
<polyline fill="none" stroke="white" stroke-width="2" points="221.942,-179.942 221.942,-191.942 "/>
<path fill="none" stroke="white" stroke-width="2" d="M221.942,-191.942C221.942,-197.942 215.942,-203.942 209.942,-203.942"/>
<text text-anchor="middle" x="194.942" y="-183.442" font-family="Helvetica,sans-Serif" font-size="10.00">SOX6</text>
</a>
</g>
<!-- FOXM1_TBL1XR1&#45;&gt;SOX6 -->
<g id="edge12" class="edge"><title>FOXM1_TBL1XR1&#45;&gt;SOX6</title>
<a xlink:title="SOX6: 0.245||remove25root">
<path fill="none" stroke="#7c89ff" stroke-width="3" d="M299.744,-290.744C278.316,-269.316 242.594,-233.594 218.905,-209.905"/>
<polygon fill="#7c89ff" stroke="#7c89ff" points="220.794,-207.834 213.157,-204.157 216.834,-211.794 220.794,-207.834"/>
</a>
</g>
<!-- AHR_ARNT2 -->
<g id="node14" class="node"><title>AHR_ARNT2</title>
<a xlink:href="AHR_ARNT2.svg" xlink:title="Z&#45;value: 1.019||remove17">
<polygon fill="#838fff" stroke="#838fff" stroke-width="2" points="389.135,-248.942 336.635,-248.942 324.635,-236.942 324.635,-224.942 336.635,-212.942 389.135,-212.942 401.135,-224.942 401.135,-236.942 389.135,-248.942"/>
<path fill="#838fff" stroke="#838fff" stroke-width="2" d="M336.635,-248.942C330.635,-248.942 324.635,-242.942 324.635,-236.942"/>
<path fill="#838fff" stroke="#838fff" stroke-width="2" d="M324.635,-224.942C324.635,-218.942 330.635,-212.942 336.635,-212.942"/>
<path fill="#838fff" stroke="#838fff" stroke-width="2" d="M389.135,-212.942C395.135,-212.942 401.135,-218.942 401.135,-224.942"/>
<path fill="#838fff" stroke="#838fff" stroke-width="2" d="M401.135,-236.942C401.135,-242.942 395.135,-248.942 389.135,-248.942"/>
<polyline fill="none" stroke="white" stroke-width="2" points="389.135,-248.942 336.635,-248.942 "/>
<path fill="none" stroke="white" stroke-width="2" d="M336.635,-248.942C330.635,-248.942 324.635,-242.942 324.635,-236.942"/>
<polyline fill="none" stroke="white" stroke-width="2" points="324.635,-236.942 324.635,-224.942 "/>
<path fill="none" stroke="white" stroke-width="2" d="M324.635,-224.942C324.635,-218.942 330.635,-212.942 336.635,-212.942"/>
<polyline fill="none" stroke="white" stroke-width="2" points="336.635,-212.942 389.135,-212.942 "/>
<path fill="none" stroke="white" stroke-width="2" d="M389.135,-212.942C395.135,-212.942 401.135,-218.942 401.135,-224.942"/>
<polyline fill="none" stroke="white" stroke-width="2" points="401.135,-224.942 401.135,-236.942 "/>
<path fill="none" stroke="white" stroke-width="2" d="M401.135,-236.942C401.135,-242.942 395.135,-248.942 389.135,-248.942"/>
<text text-anchor="middle" x="362.885" y="-228.442" font-family="Helvetica,sans-Serif" font-size="10.00">AHR_ARNT2</text>
</a>
</g>
<!-- FOXM1_TBL1XR1&#45;&gt;AHR_ARNT2 -->
<g id="edge14" class="edge"><title>FOXM1_TBL1XR1&#45;&gt;AHR_ARNT2</title>
<a xlink:title="ARNT2: 0.022||TBL1XR1: 0.054||remove10root">
<path fill="none" stroke="#ecc4ff" stroke-width="3" d="M331.547,-283.22C336.618,-274.438 342.308,-264.581 347.387,-255.785"/>
<path fill="none" stroke="#e9baff" stroke-width="3" d="M333.279,-284.22C338.35,-275.438 344.04,-265.581 349.119,-256.785"/>
<polygon fill="#e9baff" stroke="#e9baff" points="329.897,-282.479 328.322,-290.807 334.747,-285.279 329.897,-282.479"/>
<polygon fill="#ecc4ff" stroke="#ecc4ff" points="350.773,-257.52 352.348,-249.192 345.923,-254.72 350.773,-257.52"/>
</a>
</g>
<!-- DUXA -->
<g id="node16" class="node"><title>DUXA</title>
<a xlink:href="DUXA.svg" xlink:title="Z&#45;value: 0.863||remove28">
<polygon fill="#8e99ff" stroke="#8e99ff" stroke-width="2" points="87,-81 57,-81 45,-69 45,-57 57,-45 87,-45 99,-57 99,-69 87,-81"/>
<path fill="#8e99ff" stroke="#8e99ff" stroke-width="2" d="M57,-81C51,-81 45,-75 45,-69"/>
<path fill="#8e99ff" stroke="#8e99ff" stroke-width="2" d="M45,-57C45,-51 51,-45 57,-45"/>
<path fill="#8e99ff" stroke="#8e99ff" stroke-width="2" d="M87,-45C93,-45 99,-51 99,-57"/>
<path fill="#8e99ff" stroke="#8e99ff" stroke-width="2" d="M99,-69C99,-75 93,-81 87,-81"/>
<polyline fill="none" stroke="white" stroke-width="2" points="87,-81 57,-81 "/>
<path fill="none" stroke="white" stroke-width="2" d="M57,-81C51,-81 45,-75 45,-69"/>
<polyline fill="none" stroke="white" stroke-width="2" points="45,-69 45,-57 "/>
<path fill="none" stroke="white" stroke-width="2" d="M45,-57C45,-51 51,-45 57,-45"/>
<polyline fill="none" stroke="white" stroke-width="2" points="57,-45 87,-45 "/>
<path fill="none" stroke="white" stroke-width="2" d="M87,-45C93,-45 99,-51 99,-57"/>
<polyline fill="none" stroke="white" stroke-width="2" points="99,-57 99,-69 "/>
<path fill="none" stroke="white" stroke-width="2" d="M99,-69C99,-75 93,-81 87,-81"/>
<text text-anchor="middle" x="72" y="-60.5" font-family="Helvetica,sans-Serif" font-size="10.00">DUXA</text>
</a>
</g>
<!-- FOXM1_TBL1XR1&#45;&gt;DUXA -->
<g id="edge16" class="edge"><title>FOXM1_TBL1XR1&#45;&gt;DUXA</title>
<a xlink:title="DUXA: 0.229||TBL1XR1: 0.040||remove23root">
<path fill="none" stroke="#d681ff" stroke-width="3" d="M305.01,-283.993C289.681,-253.421 260.782,-201.559 225.549,-165.763 190.066,-129.616 139.428,-99.1399 106.078,-81.2171"/>
<path fill="none" stroke="#eabeff" stroke-width="3" d="M306.798,-283.096C291.428,-252.447 262.529,-200.585 226.975,-164.361 191.097,-127.902 140.459,-97.4263 107.025,-79.4554"/>
<polygon fill="#eabeff" stroke="#eabeff" points="303.457,-284.913 309.51,-290.846 308.478,-282.434 303.457,-284.913"/>
<polygon fill="#d681ff" stroke="#d681ff" points="107.664,-77.757 99.2846,-76.4821 105.04,-82.7043 107.664,-77.757"/>
</a>
</g>
<!-- FOXA2_FOXJ3&#45;&gt;SOX6 -->
<g id="edge46" class="edge"><title>FOXA2_FOXJ3&#45;&gt;SOX6</title>
<a xlink:title="SOX6: 0.237||remove24root">
<path fill="none" stroke="#7f8bff" stroke-width="3" d="M235.041,-335.592C227.04,-305.732 211.146,-246.415 201.953,-212.108"/>
<polygon fill="#7f8bff" stroke="#7f8bff" points="204.545,-210.961 199.77,-203.958 199.136,-212.41 204.545,-210.961"/>
</a>
</g>
<!-- ELF3_EHF&#45;&gt;FOXA2_FOXJ3 -->
<g id="edge20" class="edge"><title>ELF3_EHF&#45;&gt;FOXA2_FOXJ3</title>
<a xlink:title="FOXJ3: 0.003||EHF: 0.007||remove1root">
<path fill="none" stroke="#eecaff" stroke-width="3" d="M190.443,-352.887C190.593,-352.885 190.742,-352.885 190.891,-352.887"/>
<path fill="none" stroke="#edc9ff" stroke-width="3" d="M190.443,-354.882C190.593,-354.885 190.742,-354.885 190.891,-354.882"/>
<polygon fill="#edc9ff" stroke="#edc9ff" points="190.434,-351.085 182.434,-353.885 190.434,-356.685 190.434,-351.085"/>
<polygon fill="#eecaff" stroke="#eecaff" points="189.627,-356.685 197.627,-353.885 189.627,-351.085 189.627,-356.685"/>
</a>
</g>
<!-- ELF3_EHF&#45;&gt;ELF3_EHF -->
<g id="edge22" class="edge"><title>ELF3_EHF&#45;&gt;ELF3_EHF</title>
<a xlink:title="EHF: 0.082||remove12root">
<path fill="none" stroke="#e6b1ff" stroke-width="3" d="M182.643,-360.62C192.372,-360.419 199.942,-358.174 199.942,-353.885 199.942,-350.936 196.364,-348.953 190.966,-347.937"/>
<polygon fill="#e6b1ff" stroke="#e6b1ff" points="190.871,-345.115 182.643,-347.149 190.344,-350.69 190.871,-345.115"/>
</a>
</g>
<!-- ELF3_EHF&#45;&gt;SOX6 -->
<g id="edge24" class="edge"><title>ELF3_EHF&#45;&gt;SOX6</title>
<a xlink:title="SOX6: 0.002||EHF: 0.284||remove27root">
<path fill="none" stroke="#cbd0ff" stroke-width="3" d="M155.956,-327.577C164.416,-296.004 178.586,-243.123 187.03,-211.606"/>
<path fill="none" stroke="#ff6f6f" stroke-width="3" d="M157.888,-328.095C166.348,-296.521 180.517,-243.64 188.962,-212.124"/>
<polygon fill="#ff6f6f" stroke="#ff6f6f" points="154.21,-327.14 154.844,-335.592 159.619,-328.589 154.21,-327.14"/>
<polygon fill="#cbd0ff" stroke="#cbd0ff" points="190.749,-212.41 190.115,-203.958 185.34,-210.961 190.749,-212.41"/>
</a>
</g>
<!-- TBX21_TBR1&#45;&gt;CPEB1 -->
<g id="edge42" class="edge"><title>TBX21_TBR1&#45;&gt;CPEB1</title>
<a xlink:title="CPEB1: 0.179||remove16">
<path fill="none" stroke="#dc92ff" stroke-width="3" d="M61.563,-290.807C55.642,-280.552 48.1387,-267.556 41.6373,-256.295"/>
<polygon fill="#dc92ff" stroke="#dc92ff" points="43.9612,-254.72 37.5363,-249.192 39.1115,-257.52 43.9612,-254.72"/>
</a>
</g>
<!-- TBX21_TBR1&#45;&gt;SOX6 -->
<g id="edge44" class="edge"><title>TBX21_TBR1&#45;&gt;SOX6</title>
<a xlink:title="SOX6: 0.165||remove22root">
<path fill="none" stroke="#96a0ff" stroke-width="3" d="M90.1406,-290.744C111.569,-269.316 147.29,-233.594 170.98,-209.905"/>
<polygon fill="#96a0ff" stroke="#96a0ff" points="173.05,-211.794 176.727,-204.157 169.091,-207.834 173.05,-211.794"/>
</a>
</g>
<!-- CPEB1&#45;&gt;SOX6 -->
<g id="edge40" class="edge"><title>CPEB1&#45;&gt;SOX6</title>
<a xlink:title="SOX6: 0.129||remove16root">
<path fill="none" stroke="#a2abff" stroke-width="3" d="M54.3566,-223.612C83.11,-215.908 128.441,-203.761 159.82,-195.353"/>
<polygon fill="#a2abff" stroke="#a2abff" points="160.873,-197.97 167.876,-193.195 159.424,-192.561 160.873,-197.97"/>
</a>
</g>
<!-- TBX2 -->
<g id="node29" class="node"><title>TBX2</title>
<a xlink:href="TBX2.svg" xlink:title="Z&#45;value: 0.814||remove21">
<polygon fill="#919cff" stroke="#919cff" stroke-width="2" points="254.942,-36 224.942,-36 212.942,-24 212.942,-12 224.942,-0 254.942,-0 266.942,-12 266.942,-24 254.942,-36"/>
<path fill="#919cff" stroke="#919cff" stroke-width="2" d="M224.942,-36C218.942,-36 212.942,-30 212.942,-24"/>
<path fill="#919cff" stroke="#919cff" stroke-width="2" d="M212.942,-12C212.942,-6 218.942,-0 224.942,-0"/>
<path fill="#919cff" stroke="#919cff" stroke-width="2" d="M254.942,-0C260.942,-0 266.942,-6 266.942,-12"/>
<path fill="#919cff" stroke="#919cff" stroke-width="2" d="M266.942,-24C266.942,-30 260.942,-36 254.942,-36"/>
<polyline fill="none" stroke="white" stroke-width="2" points="254.942,-36 224.942,-36 "/>
<path fill="none" stroke="white" stroke-width="2" d="M224.942,-36C218.942,-36 212.942,-30 212.942,-24"/>
<polyline fill="none" stroke="white" stroke-width="2" points="212.942,-24 212.942,-12 "/>
<path fill="none" stroke="white" stroke-width="2" d="M212.942,-12C212.942,-6 218.942,-0 224.942,-0"/>
<polyline fill="none" stroke="white" stroke-width="2" points="224.942,-0 254.942,-0 "/>
<path fill="none" stroke="white" stroke-width="2" d="M254.942,-0C260.942,-0 266.942,-6 266.942,-12"/>
<polyline fill="none" stroke="white" stroke-width="2" points="266.942,-12 266.942,-24 "/>
<path fill="none" stroke="white" stroke-width="2" d="M266.942,-24C266.942,-30 260.942,-36 254.942,-36"/>
<text text-anchor="middle" x="239.942" y="-15.5" font-family="Helvetica,sans-Serif" font-size="10.00">TBX2</text>
</a>
</g>
<!-- CPEB1&#45;&gt;TBX2 -->
<g id="edge38" class="edge"><title>CPEB1&#45;&gt;TBX2</title>
<a xlink:title="TBX2: 0.298||CPEB1: 0.164||remove16">
<path fill="none" stroke="#cf6bff" stroke-width="3" d="M50.199,-206.329C91.1978,-165.33 174.452,-82.0762 215.401,-41.1269"/>
<path fill="none" stroke="#dd96ff" stroke-width="3" d="M51.6132,-207.743C92.612,-166.745 175.866,-83.4904 216.815,-42.5412"/>
<polygon fill="#dd96ff" stroke="#dd96ff" points="48.8323,-205.15 45.1553,-212.787 52.7921,-209.11 48.8323,-205.15"/>
<polygon fill="#cf6bff" stroke="#cf6bff" points="218.156,-43.7462 221.833,-36.1094 214.196,-39.7864 218.156,-43.7462"/>
</a>
</g>
<!-- TBX5&#45;&gt;FOXA2_FOXJ3 -->
<g id="edge30" class="edge"><title>TBX5&#45;&gt;FOXA2_FOXJ3</title>
<a xlink:title="FOXA2: 0.109||remove14root">
<path fill="none" stroke="#e3a8ff" stroke-width="3" d="M45.1553,-159.098C83.5789,-197.521 173.11,-287.052 216.088,-330.03"/>
<polygon fill="#e3a8ff" stroke="#e3a8ff" points="214.196,-332.098 221.833,-335.775 218.156,-328.138 214.196,-332.098"/>
</a>
</g>
<!-- TBX5&#45;&gt;ELF3_EHF -->
<g id="edge32" class="edge"><title>TBX5&#45;&gt;ELF3_EHF</title>
<a xlink:title="EHF: 0.095||remove13root">
<path fill="none" stroke="#e4adff" stroke-width="3" d="M38.8028,-159.235C56.4231,-186.775 90.3492,-240.706 116.66,-288.005 123.985,-301.173 131.603,-316.144 137.7,-328.484"/>
<polygon fill="#e4adff" stroke="#e4adff" points="135.245,-329.838 141.283,-335.787 140.273,-327.372 135.245,-329.838"/>
</a>
</g>
<!-- TBX5&#45;&gt;SOX6 -->
<g id="edge34" class="edge"><title>TBX5&#45;&gt;SOX6</title>
<a xlink:title="SOX6: 0.151||remove19root">
<path fill="none" stroke="#9aa4ff" stroke-width="3" d="M54.3566,-148.272C83.11,-155.977 128.441,-168.123 159.82,-176.531"/>
<polygon fill="#9aa4ff" stroke="#9aa4ff" points="159.424,-179.324 167.876,-178.69 160.873,-173.915 159.424,-179.324"/>
</a>
</g>
<!-- HMGA1 -->
<g id="node27" class="node"><title>HMGA1</title>
<a xlink:href="HMGA1.svg" xlink:title="Z&#45;value: 0.961||remove18">
<polygon fill="#8793ff" stroke="#8793ff" stroke-width="2" points="164.942,-36 134.942,-36 122.942,-24 122.942,-12 134.942,-6.39488e-14 164.942,-6.39488e-14 176.942,-12 176.942,-24 164.942,-36"/>
<path fill="#8793ff" stroke="#8793ff" stroke-width="2" d="M134.942,-36C128.942,-36 122.942,-30 122.942,-24"/>
<path fill="#8793ff" stroke="#8793ff" stroke-width="2" d="M122.942,-12C122.942,-6 128.942,-6.39488e-14 134.942,-6.39488e-14"/>
<path fill="#8793ff" stroke="#8793ff" stroke-width="2" d="M164.942,-6.39488e-14C170.942,-6.39488e-14 176.942,-6 176.942,-12"/>
<path fill="#8793ff" stroke="#8793ff" stroke-width="2" d="M176.942,-24C176.942,-30 170.942,-36 164.942,-36"/>
<polyline fill="none" stroke="white" stroke-width="2" points="164.942,-36 134.942,-36 "/>
<path fill="none" stroke="white" stroke-width="2" d="M134.942,-36C128.942,-36 122.942,-30 122.942,-24"/>
<polyline fill="none" stroke="white" stroke-width="2" points="122.942,-24 122.942,-12 "/>
<path fill="none" stroke="white" stroke-width="2" d="M122.942,-12C122.942,-6 128.942,-6.39488e-14 134.942,-6.39488e-14"/>
<polyline fill="none" stroke="white" stroke-width="2" points="134.942,-6.39488e-14 164.942,-6.39488e-14 "/>
<path fill="none" stroke="white" stroke-width="2" d="M164.942,-6.39488e-14C170.942,-6.39488e-14 176.942,-6 176.942,-12"/>
<polyline fill="none" stroke="white" stroke-width="2" points="176.942,-12 176.942,-24 "/>
<path fill="none" stroke="white" stroke-width="2" d="M176.942,-24C176.942,-30 170.942,-36 164.942,-36"/>
<text text-anchor="middle" x="149.942" y="-15.5" font-family="Helvetica,sans-Serif" font-size="10.00">HMGA1</text>
</a>
</g>
<!-- TBX5&#45;&gt;HMGA1 -->
<g id="edge36" class="edge"><title>TBX5&#45;&gt;HMGA1</title>
<a xlink:title="HMGA1: 0.179||remove18">
<path fill="none" stroke="#dc91ff" stroke-width="3" d="M54.0773,-123.787C69.4631,-113.314 88.5431,-99.0484 103.32,-83.88 115.282,-71.6009 126.459,-56.0118 134.869,-43.0808"/>
<polygon fill="#dc91ff" stroke="#dc91ff" points="137.31,-44.4605 139.244,-36.2083 132.586,-41.4532 137.31,-44.4605"/>
</a>
</g>
<!-- SOX6&#45;&gt;AHR_ARNT2 -->
<g id="edge48" class="edge"><title>SOX6&#45;&gt;AHR_ARNT2</title>
<a xlink:title="ARNT2: 0.141||remove17root">
<path fill="none" stroke="#ff9e9e" stroke-width="3" d="M222.299,-193.272C247.81,-200.108 286.371,-210.441 316.659,-218.556"/>
<polygon fill="#ff9e9e" stroke="#ff9e9e" points="316.113,-221.309 324.565,-220.675 317.562,-215.899 316.113,-221.309"/>
</a>
</g>
<!-- AHR_ARNT2&#45;&gt;ELF3_EHF -->
<g id="edge18" class="edge"><title>AHR_ARNT2&#45;&gt;ELF3_EHF</title>
<a xlink:title="EHF: 0.030||remove4root">
<path fill="none" stroke="#ebc2ff" stroke-width="3" d="M330.206,-248.986C310.174,-260.113 284.045,-274.744 261.045,-288.005 236.26,-302.294 208.585,-318.702 187.057,-331.569"/>
<polygon fill="#ebc2ff" stroke="#ebc2ff" points="185.432,-329.279 180.004,-335.789 188.307,-334.084 185.432,-329.279"/>
</a>
</g>
<!-- DUXA&#45;&gt;SOX6 -->
<g id="edge26" class="edge"><title>DUXA&#45;&gt;SOX6</title>
<a xlink:title="SOX6: 0.345||remove28root">
<path fill="none" stroke="#5c6cff" stroke-width="3" d="M90.1406,-81.1406C111.569,-102.569 147.29,-138.29 170.98,-161.98"/>
<polygon fill="#5c6cff" stroke="#5c6cff" points="169.091,-164.05 176.727,-167.727 173.05,-160.091 169.091,-164.05"/>
</a>
</g>
<!-- DUXA&#45;&gt;AHR_ARNT2 -->
<g id="edge28" class="edge"><title>DUXA&#45;&gt;AHR_ARNT2</title>
<a xlink:title="ARNT2: 0.069||remove11root">
<path fill="none" stroke="#e7b5ff" stroke-width="3" d="M99.1045,-78.6488C151.012,-108.618 264.593,-174.194 324.361,-208.701"/>
<polygon fill="#e7b5ff" stroke="#e7b5ff" points="323.047,-211.175 331.375,-212.75 325.847,-206.325 323.047,-211.175"/>
</a>
</g>
<!-- HMGA1&#45;&gt;SOX6 -->
<g id="edge52" class="edge"><title>HMGA1&#45;&gt;SOX6</title>
<a xlink:title="SOX6: 0.145||remove18root">
<path fill="none" stroke="#9ca6ff" stroke-width="3" d="M154.844,-36.2925C162.845,-66.1522 178.739,-125.47 187.931,-159.777"/>
<polygon fill="#9ca6ff" stroke="#9ca6ff" points="185.34,-160.924 190.115,-167.927 190.749,-159.474 185.34,-160.924"/>
</a>
</g>
<!-- HMGA1&#45;&gt;AHR_ARNT2 -->
<g id="edge56" class="edge"><title>HMGA1&#45;&gt;AHR_ARNT2</title>
<a xlink:title="ARNT2: 0.036||remove7root">
<path fill="none" stroke="#eac0ff" stroke-width="3" d="M168.098,-36.1553C206.521,-74.5789 296.052,-164.11 339.03,-207.088"/>
<polygon fill="#eac0ff" stroke="#eac0ff" points="337.138,-209.156 344.775,-212.833 341.098,-205.196 337.138,-209.156"/>
</a>
</g>
<!-- HMGA1&#45;&gt;HMGA1 -->
<g id="edge54" class="edge"><title>HMGA1&#45;&gt;HMGA1</title>
<a xlink:title="HMGA1: 0.005||remove0root">
<path fill="none" stroke="#eecaff" stroke-width="3" d="M177.183,-24.7434C186.966,-24.8884 194.942,-22.6406 194.942,-18 194.942,-14.7371 190.999,-12.6571 185.257,-11.7601"/>
<polygon fill="#eecaff" stroke="#eecaff" points="185.342,-8.96005 177.183,-11.2566 184.993,-14.5492 185.342,-8.96005"/>
</a>
</g>
<!-- TBX2&#45;&gt;SOX6 -->
<g id="edge58" class="edge"><title>TBX2&#45;&gt;SOX6</title>
<a xlink:title="SOX6: 0.161||remove21root">
<path fill="none" stroke="#97a2ff" stroke-width="3" d="M235.041,-36.2925C227.04,-66.1522 211.146,-125.47 201.953,-159.777"/>
<polygon fill="#97a2ff" stroke="#97a2ff" points="199.136,-159.474 199.77,-167.927 204.545,-160.924 199.136,-159.474"/>
</a>
</g>
<!-- BARHL1 -->
<g id="node36" class="node"><title>BARHL1</title>
<a xlink:href="BARHL1.svg" xlink:title="Z&#45;value: 1.014||remove20">
<polygon fill="#838fff" stroke="#838fff" stroke-width="2" points="333.385,-81 302.385,-81 290.385,-69 290.385,-57 302.385,-45 333.385,-45 345.385,-57 345.385,-69 333.385,-81"/>
<path fill="#838fff" stroke="#838fff" stroke-width="2" d="M302.385,-81C296.385,-81 290.385,-75 290.385,-69"/>
<path fill="#838fff" stroke="#838fff" stroke-width="2" d="M290.385,-57C290.385,-51 296.385,-45 302.385,-45"/>
<path fill="#838fff" stroke="#838fff" stroke-width="2" d="M333.385,-45C339.385,-45 345.385,-51 345.385,-57"/>
<path fill="#838fff" stroke="#838fff" stroke-width="2" d="M345.385,-69C345.385,-75 339.385,-81 333.385,-81"/>
<polyline fill="none" stroke="white" stroke-width="2" points="333.385,-81 302.385,-81 "/>
<path fill="none" stroke="white" stroke-width="2" d="M302.385,-81C296.385,-81 290.385,-75 290.385,-69"/>
<polyline fill="none" stroke="white" stroke-width="2" points="290.385,-69 290.385,-57 "/>
<path fill="none" stroke="white" stroke-width="2" d="M290.385,-57C290.385,-51 296.385,-45 302.385,-45"/>
<polyline fill="none" stroke="white" stroke-width="2" points="302.385,-45 333.385,-45 "/>
<path fill="none" stroke="white" stroke-width="2" d="M333.385,-45C339.385,-45 345.385,-51 345.385,-57"/>
<polyline fill="none" stroke="white" stroke-width="2" points="345.385,-57 345.385,-69 "/>
<path fill="none" stroke="white" stroke-width="2" d="M345.385,-69C345.385,-75 339.385,-81 333.385,-81"/>
<text text-anchor="middle" x="317.885" y="-60.5" font-family="Helvetica,sans-Serif" font-size="10.00">BARHL1</text>
</a>
</g>
<!-- BARHL1&#45;&gt;SOX6 -->
<g id="edge50" class="edge"><title>BARHL1&#45;&gt;SOX6</title>
<a xlink:title="SOX6: 0.153||remove20root">
<path fill="none" stroke="#9aa4ff" stroke-width="3" d="M299.744,-81.1406C278.316,-102.569 242.594,-138.29 218.905,-161.98"/>
<polygon fill="#9aa4ff" stroke="#9aa4ff" points="216.834,-160.091 213.157,-167.727 220.794,-164.05 216.834,-160.091"/>
</a>
</g>
<!-- HOXB6_PRRX2 -->
<g id="node42" class="node"><title>HOXB6_PRRX2</title>
<a xlink:href="HOXB6_PRRX2.svg" xlink:title="Z&#45;value: 0.695||remove29">
<polygon fill="#9aa4ff" stroke="#9aa4ff" stroke-width="2" points="395.135,-158.942 330.635,-158.942 318.635,-146.942 318.635,-134.942 330.635,-122.942 395.135,-122.942 407.135,-134.942 407.135,-146.942 395.135,-158.942"/>
<path fill="#9aa4ff" stroke="#9aa4ff" stroke-width="2" d="M330.635,-158.942C324.635,-158.942 318.635,-152.942 318.635,-146.942"/>
<path fill="#9aa4ff" stroke="#9aa4ff" stroke-width="2" d="M318.635,-134.942C318.635,-128.942 324.635,-122.942 330.635,-122.942"/>
<path fill="#9aa4ff" stroke="#9aa4ff" stroke-width="2" d="M395.135,-122.942C401.135,-122.942 407.135,-128.942 407.135,-134.942"/>
<path fill="#9aa4ff" stroke="#9aa4ff" stroke-width="2" d="M407.135,-146.942C407.135,-152.942 401.135,-158.942 395.135,-158.942"/>
<polyline fill="none" stroke="white" stroke-width="2" points="395.135,-158.942 330.635,-158.942 "/>
<path fill="none" stroke="white" stroke-width="2" d="M330.635,-158.942C324.635,-158.942 318.635,-152.942 318.635,-146.942"/>
<polyline fill="none" stroke="white" stroke-width="2" points="318.635,-146.942 318.635,-134.942 "/>
<path fill="none" stroke="white" stroke-width="2" d="M318.635,-134.942C318.635,-128.942 324.635,-122.942 330.635,-122.942"/>
<polyline fill="none" stroke="white" stroke-width="2" points="330.635,-122.942 395.135,-122.942 "/>
<path fill="none" stroke="white" stroke-width="2" d="M395.135,-122.942C401.135,-122.942 407.135,-128.942 407.135,-134.942"/>
<polyline fill="none" stroke="white" stroke-width="2" points="407.135,-134.942 407.135,-146.942 "/>
<path fill="none" stroke="white" stroke-width="2" d="M407.135,-146.942C407.135,-152.942 401.135,-158.942 395.135,-158.942"/>
<text text-anchor="middle" x="362.885" y="-138.442" font-family="Helvetica,sans-Serif" font-size="10.00">HOXB6_PRRX2</text>
</a>
</g>
<!-- HOXB6_PRRX2&#45;&gt;FOXM1_TBL1XR1 -->
<g id="edge62" class="edge"><title>HOXB6_PRRX2&#45;&gt;FOXM1_TBL1XR1</title>
<a xlink:title="TBL1XR1: 0.008||remove2root">
<path fill="none" stroke="#edc9ff" stroke-width="3" d="M346.967,-159.129C336.556,-172.283 323.876,-191.024 318.225,-210.062 311.176,-233.808 311.97,-262.202 314.002,-282.448"/>
<polygon fill="#edc9ff" stroke="#edc9ff" points="311.242,-282.957 314.929,-290.589 316.806,-282.323 311.242,-282.957"/>
</a>
</g>
<!-- HOXB6_PRRX2&#45;&gt;ELF3_EHF -->
<g id="edge60" class="edge"><title>HOXB6_PRRX2&#45;&gt;ELF3_EHF</title>
<a xlink:title="EHF: 0.039||remove8root">
<path fill="none" stroke="#eabfff" stroke-width="3" d="M344.729,-159.098C306.306,-197.521 216.775,-287.052 173.797,-330.03"/>
<polygon fill="#eabfff" stroke="#eabfff" points="171.729,-328.138 168.052,-335.775 175.688,-332.098 171.729,-328.138"/>
</a>
</g>
<!-- HOXB6_PRRX2&#45;&gt;CPEB1 -->
<g id="edge64" class="edge"><title>HOXB6_PRRX2&#45;&gt;CPEB1</title>
<a xlink:title="CPEB1: 0.009||remove3root">
<path fill="none" stroke="#edc8ff" stroke-width="3" d="M332.845,-159.006C305.907,-174.318 264.801,-195.536 226.262,-206.822 170.532,-223.143 102.921,-228.436 62.5121,-230.143"/>
<polygon fill="#edc8ff" stroke="#edc8ff" points="62.2039,-227.353 54.3164,-230.456 62.4173,-232.949 62.2039,-227.353"/>
</a>
</g>
<!-- HOXB6_PRRX2&#45;&gt;SOX6 -->
<g id="edge66" class="edge"><title>HOXB6_PRRX2&#45;&gt;SOX6</title>
<a xlink:title="SOX6: 0.471||remove29root">
<path fill="none" stroke="#3247ff" stroke-width="3" d="M318.32,-152.883C290.787,-160.261 255.944,-169.597 230.313,-176.465"/>
<polygon fill="#3247ff" stroke="#3247ff" points="229.338,-173.827 222.336,-178.602 230.788,-179.236 229.338,-173.827"/>
</a>
</g>
<!-- HOXB6_PRRX2&#45;&gt;HMGA1 -->
<g id="edge70" class="edge"><title>HOXB6_PRRX2&#45;&gt;HMGA1</title>
<a xlink:title="HMGA1: 0.050||remove9root">
<path fill="none" stroke="#e9bbff" stroke-width="3" d="M331.464,-122.802C292.066,-100.055 224.77,-61.2021 184.12,-37.7323"/>
<polygon fill="#e9bbff" stroke="#e9bbff" points="185.426,-35.2532 177.097,-33.678 182.626,-40.1029 185.426,-35.2532"/>
</a>
</g>
<!-- HOXB6_PRRX2&#45;&gt;HOXB6_PRRX2 -->
<g id="edge68" class="edge"><title>HOXB6_PRRX2&#45;&gt;HOXB6_PRRX2</title>
<a xlink:title="HOXB6: 0.279||remove26root">
<path fill="none" stroke="#d171ff" stroke-width="3" d="M407.19,-147.544C417.391,-146.975 424.885,-144.774 424.885,-140.942 424.885,-138.248 421.18,-136.36 415.434,-135.279"/>
<polygon fill="#d171ff" stroke="#d171ff" points="415.456,-132.463 407.19,-134.341 414.823,-138.028 415.456,-132.463"/>
</a>
</g>
</g>
</svg>
