<?xml version="1.0" encoding="UTF-8" standalone="no"?>
<!DOCTYPE svg PUBLIC "-//W3C//DTD SVG 1.1//EN"
 "http://www.w3.org/Graphics/SVG/1.1/DTD/svg11.dtd">
<!-- Generated by graphviz version 2.28.0 (20110630.0925)
 -->
<!-- Title: _anonymous_0 Pages: 1 -->
<svg width="412pt" height="375pt"
 viewBox="0.00 0.00 412.41 375.41" xmlns="http://www.w3.org/2000/svg" xmlns:xlink="http://www.w3.org/1999/xlink">
<g id="graph1" class="graph" transform="scale(1 1) rotate(0) translate(4 371.406)">
<title>_anonymous_0</title>
<polygon fill="white" stroke="white" points="-4,5 -4,-371.406 409.406,-371.406 409.406,5 -4,5"/>
<!-- PITX1 -->
<g id="node1" class="node"><title>PITX1</title>
<a xlink:href="PITX1.svg" xlink:title="Z&#45;value: 2.159||remove30">
<polygon fill="#3247ff" stroke="#3247ff" stroke-width="2" points="348.006,-323.006 318.006,-323.006 306.006,-311.006 306.006,-299.006 318.006,-287.006 348.006,-287.006 360.006,-299.006 360.006,-311.006 348.006,-323.006"/>
<path fill="#3247ff" stroke="#3247ff" stroke-width="2" d="M318.006,-323.006C312.006,-323.006 306.006,-317.006 306.006,-311.006"/>
<path fill="#3247ff" stroke="#3247ff" stroke-width="2" d="M306.006,-299.006C306.006,-293.006 312.006,-287.006 318.006,-287.006"/>
<path fill="#3247ff" stroke="#3247ff" stroke-width="2" d="M348.006,-287.006C354.006,-287.006 360.006,-293.006 360.006,-299.006"/>
<path fill="#3247ff" stroke="#3247ff" stroke-width="2" d="M360.006,-311.006C360.006,-317.006 354.006,-323.006 348.006,-323.006"/>
<polyline fill="none" stroke="white" stroke-width="2" points="348.006,-323.006 318.006,-323.006 "/>
<path fill="none" stroke="white" stroke-width="2" d="M318.006,-323.006C312.006,-323.006 306.006,-317.006 306.006,-311.006"/>
<polyline fill="none" stroke="white" stroke-width="2" points="306.006,-311.006 306.006,-299.006 "/>
<path fill="none" stroke="white" stroke-width="2" d="M306.006,-299.006C306.006,-293.006 312.006,-287.006 318.006,-287.006"/>
<polyline fill="none" stroke="white" stroke-width="2" points="318.006,-287.006 348.006,-287.006 "/>
<path fill="none" stroke="white" stroke-width="2" d="M348.006,-287.006C354.006,-287.006 360.006,-293.006 360.006,-299.006"/>
<polyline fill="none" stroke="white" stroke-width="2" points="360.006,-299.006 360.006,-311.006 "/>
<path fill="none" stroke="white" stroke-width="2" d="M360.006,-311.006C360.006,-317.006 354.006,-323.006 348.006,-323.006"/>
<text text-anchor="middle" x="333.006" y="-302.506" font-family="Helvetica,sans-Serif" font-size="10.00" fill="white">PITX1</text>
</a>
</g>
<!-- STAT6 -->
<g id="node2" class="node"><title>STAT6</title>
<a xlink:href="STAT6.svg" xlink:title="Z&#45;value: 0.329||remove34">
<polygon fill="#ffb4b4" stroke="#ffb4b4" stroke-width="2" points="226.703,-201.703 196.703,-201.703 184.703,-189.703 184.703,-177.703 196.703,-165.703 226.703,-165.703 238.703,-177.703 238.703,-189.703 226.703,-201.703"/>
<path fill="#ffb4b4" stroke="#ffb4b4" stroke-width="2" d="M196.703,-201.703C190.703,-201.703 184.703,-195.703 184.703,-189.703"/>
<path fill="#ffb4b4" stroke="#ffb4b4" stroke-width="2" d="M184.703,-177.703C184.703,-171.703 190.703,-165.703 196.703,-165.703"/>
<path fill="#ffb4b4" stroke="#ffb4b4" stroke-width="2" d="M226.703,-165.703C232.703,-165.703 238.703,-171.703 238.703,-177.703"/>
<path fill="#ffb4b4" stroke="#ffb4b4" stroke-width="2" d="M238.703,-189.703C238.703,-195.703 232.703,-201.703 226.703,-201.703"/>
<polyline fill="none" stroke="white" stroke-width="2" points="226.703,-201.703 196.703,-201.703 "/>
<path fill="none" stroke="white" stroke-width="2" d="M196.703,-201.703C190.703,-201.703 184.703,-195.703 184.703,-189.703"/>
<polyline fill="none" stroke="white" stroke-width="2" points="184.703,-189.703 184.703,-177.703 "/>
<path fill="none" stroke="white" stroke-width="2" d="M184.703,-177.703C184.703,-171.703 190.703,-165.703 196.703,-165.703"/>
<polyline fill="none" stroke="white" stroke-width="2" points="196.703,-165.703 226.703,-165.703 "/>
<path fill="none" stroke="white" stroke-width="2" d="M226.703,-165.703C232.703,-165.703 238.703,-171.703 238.703,-177.703"/>
<polyline fill="none" stroke="white" stroke-width="2" points="238.703,-177.703 238.703,-189.703 "/>
<path fill="none" stroke="white" stroke-width="2" d="M238.703,-189.703C238.703,-195.703 232.703,-201.703 226.703,-201.703"/>
<text text-anchor="middle" x="211.703" y="-181.203" font-family="Helvetica,sans-Serif" font-size="10.00">STAT6</text>
</a>
</g>
<!-- PITX1&#45;&gt;STAT6 -->
<g id="edge2" class="edge"><title>PITX1&#45;&gt;STAT6</title>
<a xlink:title="STAT6: 0.184||remove30root">
<path fill="none" stroke="#b7beff" stroke-width="3" d="M314.846,-286.846C293.854,-265.854 259.214,-231.214 235.937,-207.937"/>
<polygon fill="#b7beff" stroke="#b7beff" points="237.624,-205.664 229.988,-201.988 233.664,-209.624 237.624,-205.664"/>
</a>
</g>
<!-- NR2F2 -->
<g id="node4" class="node"><title>NR2F2</title>
<a xlink:href="NR2F2.svg" xlink:title="Z&#45;value: 1.741||remove24">
<polygon fill="#5062ff" stroke="#5062ff" stroke-width="2" points="392.406,-246.103 362.406,-246.103 350.406,-234.103 350.406,-222.103 362.406,-210.103 392.406,-210.103 404.406,-222.103 404.406,-234.103 392.406,-246.103"/>
<path fill="#5062ff" stroke="#5062ff" stroke-width="2" d="M362.406,-246.103C356.406,-246.103 350.406,-240.103 350.406,-234.103"/>
<path fill="#5062ff" stroke="#5062ff" stroke-width="2" d="M350.406,-222.103C350.406,-216.103 356.406,-210.103 362.406,-210.103"/>
<path fill="#5062ff" stroke="#5062ff" stroke-width="2" d="M392.406,-210.103C398.406,-210.103 404.406,-216.103 404.406,-222.103"/>
<path fill="#5062ff" stroke="#5062ff" stroke-width="2" d="M404.406,-234.103C404.406,-240.103 398.406,-246.103 392.406,-246.103"/>
<polyline fill="none" stroke="white" stroke-width="2" points="392.406,-246.103 362.406,-246.103 "/>
<path fill="none" stroke="white" stroke-width="2" d="M362.406,-246.103C356.406,-246.103 350.406,-240.103 350.406,-234.103"/>
<polyline fill="none" stroke="white" stroke-width="2" points="350.406,-234.103 350.406,-222.103 "/>
<path fill="none" stroke="white" stroke-width="2" d="M350.406,-222.103C350.406,-216.103 356.406,-210.103 362.406,-210.103"/>
<polyline fill="none" stroke="white" stroke-width="2" points="362.406,-210.103 392.406,-210.103 "/>
<path fill="none" stroke="white" stroke-width="2" d="M392.406,-210.103C398.406,-210.103 404.406,-216.103 404.406,-222.103"/>
<polyline fill="none" stroke="white" stroke-width="2" points="404.406,-222.103 404.406,-234.103 "/>
<path fill="none" stroke="white" stroke-width="2" d="M404.406,-234.103C404.406,-240.103 398.406,-246.103 392.406,-246.103"/>
<text text-anchor="middle" x="377.406" y="-225.603" font-family="Helvetica,sans-Serif" font-size="10.00" fill="white">NR2F2</text>
</a>
</g>
<!-- STAT6&#45;&gt;NR2F2 -->
<g id="edge4" class="edge"><title>STAT6&#45;&gt;NR2F2</title>
<a xlink:title="NR2F2: 0.134||remove24root">
<path fill="none" stroke="#ffbdbd" stroke-width="3" d="M239.066,-191.035C267.334,-198.609 311.551,-210.457 342.361,-218.713"/>
<polygon fill="#ffbdbd" stroke="#ffbdbd" points="341.826,-221.468 350.278,-220.834 343.276,-216.059 341.826,-221.468"/>
</a>
</g>
<!-- REL -->
<g id="node20" class="node"><title>REL</title>
<a xlink:href="REL.svg" xlink:title="Z&#45;value: 0.573||remove27">
<polygon fill="#a3acff" stroke="#a3acff" stroke-width="2" points="182.303,-36 152.303,-36 140.303,-24 140.303,-12 152.303,-6.39488e-14 182.303,-6.39488e-14 194.303,-12 194.303,-24 182.303,-36"/>
<path fill="#a3acff" stroke="#a3acff" stroke-width="2" d="M152.303,-36C146.303,-36 140.303,-30 140.303,-24"/>
<path fill="#a3acff" stroke="#a3acff" stroke-width="2" d="M140.303,-12C140.303,-6 146.303,-6.39488e-14 152.303,-6.39488e-14"/>
<path fill="#a3acff" stroke="#a3acff" stroke-width="2" d="M182.303,-6.39488e-14C188.303,-6.39488e-14 194.303,-6 194.303,-12"/>
<path fill="#a3acff" stroke="#a3acff" stroke-width="2" d="M194.303,-24C194.303,-30 188.303,-36 182.303,-36"/>
<polyline fill="none" stroke="white" stroke-width="2" points="182.303,-36 152.303,-36 "/>
<path fill="none" stroke="white" stroke-width="2" d="M152.303,-36C146.303,-36 140.303,-30 140.303,-24"/>
<polyline fill="none" stroke="white" stroke-width="2" points="140.303,-24 140.303,-12 "/>
<path fill="none" stroke="white" stroke-width="2" d="M140.303,-12C140.303,-6 146.303,-6.39488e-14 152.303,-6.39488e-14"/>
<polyline fill="none" stroke="white" stroke-width="2" points="152.303,-6.39488e-14 182.303,-6.39488e-14 "/>
<path fill="none" stroke="white" stroke-width="2" d="M182.303,-6.39488e-14C188.303,-6.39488e-14 194.303,-6 194.303,-12"/>
<polyline fill="none" stroke="white" stroke-width="2" points="194.303,-12 194.303,-24 "/>
<path fill="none" stroke="white" stroke-width="2" d="M194.303,-24C194.303,-30 188.303,-36 182.303,-36"/>
<text text-anchor="middle" x="167.303" y="-15.5" font-family="Helvetica,sans-Serif" font-size="10.00">REL</text>
</a>
</g>
<!-- NR2F2&#45;&gt;REL -->
<g id="edge68" class="edge"><title>NR2F2&#45;&gt;REL</title>
<a xlink:title="REL: 0.035||remove5root">
<path fill="none" stroke="#edc8ff" stroke-width="3" d="M359.128,-209.825C321.083,-171.78 233.406,-84.1031 191.054,-41.7512"/>
<polygon fill="#edc8ff" stroke="#edc8ff" points="193.026,-39.7628 185.389,-36.0859 189.066,-43.7227 193.026,-39.7628"/>
</a>
</g>
<!-- SIN3A_CHD1 -->
<g id="node6" class="node"><title>SIN3A_CHD1</title>
<a xlink:href="SIN3A_CHD1.svg" xlink:title="Z&#45;value: 1.751||remove32">
<polygon fill="#4f61ff" stroke="#4f61ff" stroke-width="2" points="283.353,-367.406 228.853,-367.406 216.853,-355.406 216.853,-343.406 228.853,-331.406 283.353,-331.406 295.353,-343.406 295.353,-355.406 283.353,-367.406"/>
<path fill="#4f61ff" stroke="#4f61ff" stroke-width="2" d="M228.853,-367.406C222.853,-367.406 216.853,-361.406 216.853,-355.406"/>
<path fill="#4f61ff" stroke="#4f61ff" stroke-width="2" d="M216.853,-343.406C216.853,-337.406 222.853,-331.406 228.853,-331.406"/>
<path fill="#4f61ff" stroke="#4f61ff" stroke-width="2" d="M283.353,-331.406C289.353,-331.406 295.353,-337.406 295.353,-343.406"/>
<path fill="#4f61ff" stroke="#4f61ff" stroke-width="2" d="M295.353,-355.406C295.353,-361.406 289.353,-367.406 283.353,-367.406"/>
<polyline fill="none" stroke="white" stroke-width="2" points="283.353,-367.406 228.853,-367.406 "/>
<path fill="none" stroke="white" stroke-width="2" d="M228.853,-367.406C222.853,-367.406 216.853,-361.406 216.853,-355.406"/>
<polyline fill="none" stroke="white" stroke-width="2" points="216.853,-355.406 216.853,-343.406 "/>
<path fill="none" stroke="white" stroke-width="2" d="M216.853,-343.406C216.853,-337.406 222.853,-331.406 228.853,-331.406"/>
<polyline fill="none" stroke="white" stroke-width="2" points="228.853,-331.406 283.353,-331.406 "/>
<path fill="none" stroke="white" stroke-width="2" d="M283.353,-331.406C289.353,-331.406 295.353,-337.406 295.353,-343.406"/>
<polyline fill="none" stroke="white" stroke-width="2" points="295.353,-343.406 295.353,-355.406 "/>
<path fill="none" stroke="white" stroke-width="2" d="M295.353,-355.406C295.353,-361.406 289.353,-367.406 283.353,-367.406"/>
<text text-anchor="middle" x="256.103" y="-346.906" font-family="Helvetica,sans-Serif" font-size="10.00" fill="white">SIN3A_CHD1</text>
</a>
</g>
<!-- SIN3A_CHD1&#45;&gt;STAT6 -->
<g id="edge14" class="edge"><title>SIN3A_CHD1&#45;&gt;STAT6</title>
<a xlink:title="STAT6: 0.242||remove32root">
<path fill="none" stroke="#b1b8ff" stroke-width="3" d="M251.267,-331.358C243.393,-301.973 227.773,-243.676 218.692,-209.787"/>
<polygon fill="#b1b8ff" stroke="#b1b8ff" points="221.308,-208.732 216.533,-201.729 215.899,-210.182 221.308,-208.732"/>
</a>
</g>
<!-- SIN3A_CHD1&#45;&gt;NR2F2 -->
<g id="edge20" class="edge"><title>SIN3A_CHD1&#45;&gt;NR2F2</title>
<a xlink:title="NR2F2: 0.584||remove24">
<path fill="none" stroke="#d98bff" stroke-width="3" d="M266.498,-331.333C274.942,-317.527 287.709,-298.492 301.686,-284.126 314.132,-271.334 329.728,-259.267 343.527,-249.631"/>
<polygon fill="#d98bff" stroke="#d98bff" points="345.118,-251.936 350.135,-245.104 341.953,-247.316 345.118,-251.936"/>
</a>
</g>
<!-- SIN3A_CHD1&#45;&gt;SIN3A_CHD1 -->
<g id="edge6" class="edge"><title>SIN3A_CHD1&#45;&gt;SIN3A_CHD1</title>
<a xlink:title="CHD1: 0.054||remove11root">
<path fill="none" stroke="#ecc5ff" stroke-width="3" d="M295.53,-356.075C305.568,-355.637 313.103,-353.414 313.103,-349.406 313.103,-346.588 309.378,-344.652 303.676,-343.599"/>
<polygon fill="#ecc5ff" stroke="#ecc5ff" points="303.78,-340.795 295.53,-342.737 303.191,-346.364 303.78,-340.795"/>
</a>
</g>
<!-- KLF14_SP8 -->
<g id="node8" class="node"><title>KLF14_SP8</title>
<a xlink:href="KLF14_SP8.svg" xlink:title="Z&#45;value: 1.011||remove25">
<polygon fill="#8490ff" stroke="#8490ff" stroke-width="2" points="189.553,-367.406 145.053,-367.406 133.053,-355.406 133.053,-343.406 145.053,-331.406 189.553,-331.406 201.553,-343.406 201.553,-355.406 189.553,-367.406"/>
<path fill="#8490ff" stroke="#8490ff" stroke-width="2" d="M145.053,-367.406C139.053,-367.406 133.053,-361.406 133.053,-355.406"/>
<path fill="#8490ff" stroke="#8490ff" stroke-width="2" d="M133.053,-343.406C133.053,-337.406 139.053,-331.406 145.053,-331.406"/>
<path fill="#8490ff" stroke="#8490ff" stroke-width="2" d="M189.553,-331.406C195.553,-331.406 201.553,-337.406 201.553,-343.406"/>
<path fill="#8490ff" stroke="#8490ff" stroke-width="2" d="M201.553,-355.406C201.553,-361.406 195.553,-367.406 189.553,-367.406"/>
<polyline fill="none" stroke="white" stroke-width="2" points="189.553,-367.406 145.053,-367.406 "/>
<path fill="none" stroke="white" stroke-width="2" d="M145.053,-367.406C139.053,-367.406 133.053,-361.406 133.053,-355.406"/>
<polyline fill="none" stroke="white" stroke-width="2" points="133.053,-355.406 133.053,-343.406 "/>
<path fill="none" stroke="white" stroke-width="2" d="M133.053,-343.406C133.053,-337.406 139.053,-331.406 145.053,-331.406"/>
<polyline fill="none" stroke="white" stroke-width="2" points="145.053,-331.406 189.553,-331.406 "/>
<path fill="none" stroke="white" stroke-width="2" d="M189.553,-331.406C195.553,-331.406 201.553,-337.406 201.553,-343.406"/>
<polyline fill="none" stroke="white" stroke-width="2" points="201.553,-343.406 201.553,-355.406 "/>
<path fill="none" stroke="white" stroke-width="2" d="M201.553,-355.406C201.553,-361.406 195.553,-367.406 189.553,-367.406"/>
<text text-anchor="middle" x="167.303" y="-346.906" font-family="Helvetica,sans-Serif" font-size="10.00">KLF14_SP8</text>
</a>
</g>
<!-- SIN3A_CHD1&#45;&gt;KLF14_SP8 -->
<g id="edge8" class="edge"><title>SIN3A_CHD1&#45;&gt;KLF14_SP8</title>
<a xlink:title="KLF14: 0.343||SP8: 0.094||SIN3A: 0.009||remove25">
<path fill="none" stroke="#e2a5ff" stroke-width="3" d="M208.317,-350.403C208.183,-350.406 208.048,-350.406 207.914,-350.403"/>
<path fill="none" stroke="#eecbff" stroke-width="3" d="M208.317,-348.409C208.183,-348.406 208.048,-348.406 207.914,-348.409"/>
<polygon fill="#eecbff" stroke="#eecbff" points="208.637,-352.206 216.637,-349.406 208.637,-346.606 208.637,-352.206"/>
<polygon fill="#e2a5ff" stroke="#e2a5ff" points="209.907,-346.606 201.907,-349.406 209.907,-352.206 209.907,-346.606"/>
</a>
</g>
<!-- TBX2 -->
<g id="node10" class="node"><title>TBX2</title>
<a xlink:href="TBX2.svg" xlink:title="Z&#45;value: 0.814||remove28">
<polygon fill="#929dff" stroke="#929dff" stroke-width="2" points="105.4,-323.006 75.4,-323.006 63.4,-311.006 63.4,-299.006 75.4,-287.006 105.4,-287.006 117.4,-299.006 117.4,-311.006 105.4,-323.006"/>
<path fill="#929dff" stroke="#929dff" stroke-width="2" d="M75.4,-323.006C69.4,-323.006 63.4,-317.006 63.4,-311.006"/>
<path fill="#929dff" stroke="#929dff" stroke-width="2" d="M63.4,-299.006C63.4,-293.006 69.4,-287.006 75.4,-287.006"/>
<path fill="#929dff" stroke="#929dff" stroke-width="2" d="M105.4,-287.006C111.4,-287.006 117.4,-293.006 117.4,-299.006"/>
<path fill="#929dff" stroke="#929dff" stroke-width="2" d="M117.4,-311.006C117.4,-317.006 111.4,-323.006 105.4,-323.006"/>
<polyline fill="none" stroke="white" stroke-width="2" points="105.4,-323.006 75.4,-323.006 "/>
<path fill="none" stroke="white" stroke-width="2" d="M75.4,-323.006C69.4,-323.006 63.4,-317.006 63.4,-311.006"/>
<polyline fill="none" stroke="white" stroke-width="2" points="63.4,-311.006 63.4,-299.006 "/>
<path fill="none" stroke="white" stroke-width="2" d="M63.4,-299.006C63.4,-293.006 69.4,-287.006 75.4,-287.006"/>
<polyline fill="none" stroke="white" stroke-width="2" points="75.4,-287.006 105.4,-287.006 "/>
<path fill="none" stroke="white" stroke-width="2" d="M105.4,-287.006C111.4,-287.006 117.4,-293.006 117.4,-299.006"/>
<polyline fill="none" stroke="white" stroke-width="2" points="117.4,-299.006 117.4,-311.006 "/>
<path fill="none" stroke="white" stroke-width="2" d="M117.4,-311.006C117.4,-317.006 111.4,-323.006 105.4,-323.006"/>
<text text-anchor="middle" x="90.4" y="-302.506" font-family="Helvetica,sans-Serif" font-size="10.00">TBX2</text>
</a>
</g>
<!-- SIN3A_CHD1&#45;&gt;TBX2 -->
<g id="edge10" class="edge"><title>SIN3A_CHD1&#45;&gt;TBX2</title>
<a xlink:title="TBX2: 1.375||remove28">
<path fill="none" stroke="#bd32ff" stroke-width="3" d="M216.693,-331.731C213.551,-330.569 210.402,-329.483 207.323,-328.526 180.439,-320.167 149.129,-314.052 125.679,-310.156"/>
<polygon fill="#bd32ff" stroke="#bd32ff" points="126.077,-307.384 117.732,-308.87 125.182,-312.912 126.077,-307.384"/>
</a>
</g>
<!-- E2F7_E2F1 -->
<g id="node12" class="node"><title>E2F7_E2F1</title>
<a xlink:href="E2F7_E2F1.svg" xlink:title="Z&#45;value: 1.367||remove21">
<polygon fill="#6b79ff" stroke="#6b79ff" stroke-width="2" points="68,-246.103 24,-246.103 12,-234.103 12,-222.103 24,-210.103 68,-210.103 80,-222.103 80,-234.103 68,-246.103"/>
<path fill="#6b79ff" stroke="#6b79ff" stroke-width="2" d="M24,-246.103C18,-246.103 12,-240.103 12,-234.103"/>
<path fill="#6b79ff" stroke="#6b79ff" stroke-width="2" d="M12,-222.103C12,-216.103 18,-210.103 24,-210.103"/>
<path fill="#6b79ff" stroke="#6b79ff" stroke-width="2" d="M68,-210.103C74,-210.103 80,-216.103 80,-222.103"/>
<path fill="#6b79ff" stroke="#6b79ff" stroke-width="2" d="M80,-234.103C80,-240.103 74,-246.103 68,-246.103"/>
<polyline fill="none" stroke="white" stroke-width="2" points="68,-246.103 24,-246.103 "/>
<path fill="none" stroke="white" stroke-width="2" d="M24,-246.103C18,-246.103 12,-240.103 12,-234.103"/>
<polyline fill="none" stroke="white" stroke-width="2" points="12,-234.103 12,-222.103 "/>
<path fill="none" stroke="white" stroke-width="2" d="M12,-222.103C12,-216.103 18,-210.103 24,-210.103"/>
<polyline fill="none" stroke="white" stroke-width="2" points="24,-210.103 68,-210.103 "/>
<path fill="none" stroke="white" stroke-width="2" d="M68,-210.103C74,-210.103 80,-216.103 80,-222.103"/>
<polyline fill="none" stroke="white" stroke-width="2" points="80,-222.103 80,-234.103 "/>
<path fill="none" stroke="white" stroke-width="2" d="M80,-234.103C80,-240.103 74,-246.103 68,-246.103"/>
<text text-anchor="middle" x="46" y="-225.603" font-family="Helvetica,sans-Serif" font-size="10.00" fill="white">E2F7_E2F1</text>
</a>
</g>
<!-- SIN3A_CHD1&#45;&gt;E2F7_E2F1 -->
<g id="edge12" class="edge"><title>SIN3A_CHD1&#45;&gt;E2F7_E2F1</title>
<a xlink:title="E2F7: 0.074||SIN3A: 0.033||remove17root">
<path fill="none" stroke="#ecc3ff" stroke-width="3" d="M217.137,-328.064C179.34,-306.242 121.977,-273.123 84.1247,-251.269"/>
<path fill="none" stroke="#edc8ff" stroke-width="3" d="M218.137,-326.332C180.34,-304.51 122.977,-271.391 85.1247,-249.537"/>
<polygon fill="#edc8ff" stroke="#edc8ff" points="216.32,-329.671 224.649,-331.246 219.12,-324.821 216.32,-329.671"/>
<polygon fill="#ecc3ff" stroke="#ecc3ff" points="85.6542,-247.764 77.326,-246.189 82.8542,-252.614 85.6542,-247.764"/>
</a>
</g>
<!-- ZNF740_ZNF219 -->
<g id="node15" class="node"><title>ZNF740_ZNF219</title>
<a xlink:href="ZNF740_ZNF219.svg" xlink:title="Z&#45;value: 0.639||remove33">
<polygon fill="#9ea8ff" stroke="#9ea8ff" stroke-width="2" points="80,-157.303 12,-157.303 0,-145.303 0,-133.303 12,-121.303 80,-121.303 92,-133.303 92,-145.303 80,-157.303"/>
<path fill="#9ea8ff" stroke="#9ea8ff" stroke-width="2" d="M12,-157.303C6,-157.303 0,-151.303 0,-145.303"/>
<path fill="#9ea8ff" stroke="#9ea8ff" stroke-width="2" d="M0,-133.303C0,-127.303 6,-121.303 12,-121.303"/>
<path fill="#9ea8ff" stroke="#9ea8ff" stroke-width="2" d="M80,-121.303C86,-121.303 92,-127.303 92,-133.303"/>
<path fill="#9ea8ff" stroke="#9ea8ff" stroke-width="2" d="M92,-145.303C92,-151.303 86,-157.303 80,-157.303"/>
<polyline fill="none" stroke="white" stroke-width="2" points="80,-157.303 12,-157.303 "/>
<path fill="none" stroke="white" stroke-width="2" d="M12,-157.303C6,-157.303 0,-151.303 0,-145.303"/>
<polyline fill="none" stroke="white" stroke-width="2" points="0,-145.303 0,-133.303 "/>
<path fill="none" stroke="white" stroke-width="2" d="M0,-133.303C0,-127.303 6,-121.303 12,-121.303"/>
<polyline fill="none" stroke="white" stroke-width="2" points="12,-121.303 80,-121.303 "/>
<path fill="none" stroke="white" stroke-width="2" d="M80,-121.303C86,-121.303 92,-127.303 92,-133.303"/>
<polyline fill="none" stroke="white" stroke-width="2" points="92,-133.303 92,-145.303 "/>
<path fill="none" stroke="white" stroke-width="2" d="M92,-145.303C92,-151.303 86,-157.303 80,-157.303"/>
<text text-anchor="middle" x="46" y="-136.803" font-family="Helvetica,sans-Serif" font-size="10.00">ZNF740_ZNF219</text>
</a>
</g>
<!-- SIN3A_CHD1&#45;&gt;ZNF740_ZNF219 -->
<g id="edge16" class="edge"><title>SIN3A_CHD1&#45;&gt;ZNF740_ZNF219</title>
<a xlink:title="ZNF219: 0.386||SIN3A: 0.029||remove32">
<path fill="none" stroke="#e0a1ff" stroke-width="3" d="M231.43,-326.148C191.001,-285.719 109.711,-204.428 69.2724,-163.99"/>
<path fill="none" stroke="#edc8ff" stroke-width="3" d="M232.845,-324.733C192.416,-284.304 111.125,-203.014 70.6866,-162.575"/>
<polygon fill="#edc8ff" stroke="#edc8ff" points="230.189,-327.451 237.825,-331.128 234.148,-323.492 230.189,-327.451"/>
<polygon fill="#e0a1ff" stroke="#e0a1ff" points="71.7227,-161.066 64.0859,-157.389 67.7628,-165.026 71.7227,-161.066"/>
</a>
</g>
<!-- ELK4_ETV5_ELK1_ELK3_ELF4 -->
<g id="node17" class="node"><title>ELK4_ETV5_ELK1_ELK3_ELF4</title>
<a xlink:href="ELK4_ETV5_ELK1_ELK3_ELF4.svg" xlink:title="Z&#45;value: 1.430||remove29">
<polygon fill="#6675ff" stroke="#6675ff" stroke-width="2" points="156.9,-80.4 23.9,-80.4 11.9,-68.4 11.9,-56.4 23.9,-44.4 156.9,-44.4 168.9,-56.4 168.9,-68.4 156.9,-80.4"/>
<path fill="#6675ff" stroke="#6675ff" stroke-width="2" d="M23.9,-80.4C17.9,-80.4 11.9,-74.4 11.9,-68.4"/>
<path fill="#6675ff" stroke="#6675ff" stroke-width="2" d="M11.9,-56.4C11.9,-50.4 17.9,-44.4 23.9,-44.4"/>
<path fill="#6675ff" stroke="#6675ff" stroke-width="2" d="M156.9,-44.4C162.9,-44.4 168.9,-50.4 168.9,-56.4"/>
<path fill="#6675ff" stroke="#6675ff" stroke-width="2" d="M168.9,-68.4C168.9,-74.4 162.9,-80.4 156.9,-80.4"/>
<polyline fill="none" stroke="white" stroke-width="2" points="156.9,-80.4 23.9,-80.4 "/>
<path fill="none" stroke="white" stroke-width="2" d="M23.9,-80.4C17.9,-80.4 11.9,-74.4 11.9,-68.4"/>
<polyline fill="none" stroke="white" stroke-width="2" points="11.9,-68.4 11.9,-56.4 "/>
<path fill="none" stroke="white" stroke-width="2" d="M11.9,-56.4C11.9,-50.4 17.9,-44.4 23.9,-44.4"/>
<polyline fill="none" stroke="white" stroke-width="2" points="23.9,-44.4 156.9,-44.4 "/>
<path fill="none" stroke="white" stroke-width="2" d="M156.9,-44.4C162.9,-44.4 168.9,-50.4 168.9,-56.4"/>
<polyline fill="none" stroke="white" stroke-width="2" points="168.9,-56.4 168.9,-68.4 "/>
<path fill="none" stroke="white" stroke-width="2" d="M168.9,-68.4C168.9,-74.4 162.9,-80.4 156.9,-80.4"/>
<text text-anchor="middle" x="90.4" y="-59.9" font-family="Helvetica,sans-Serif" font-size="10.00" fill="white">ELK4_ETV5_ELK1_ELK3_ELF4</text>
</a>
</g>
<!-- SIN3A_CHD1&#45;&gt;ELK4_ETV5_ELK1_ELK3_ELF4 -->
<g id="edge18" class="edge"><title>SIN3A_CHD1&#45;&gt;ELK4_ETV5_ELK1_ELK3_ELF4</title>
<a xlink:title="ELK4: 0.423||ELK3: 0.080||ETV5: 0.034||remove29">
<path fill="none" stroke="#df9cff" stroke-width="3" d="M245.486,-331.016C216.842,-281.404 137.937,-144.736 105.069,-87.8076"/>
<polygon fill="#df9cff" stroke="#df9cff" points="107.354,-86.1652 100.929,-80.637 102.504,-88.9652 107.354,-86.1652"/>
</a>
</g>
<!-- SIN3A_CHD1&#45;&gt;REL -->
<g id="edge22" class="edge"><title>SIN3A_CHD1&#45;&gt;REL</title>
<a xlink:title="REL: 0.063||remove15root">
<path fill="none" stroke="#ecc4ff" stroke-width="3" d="M257.165,-331.262C258.637,-297.447 259.484,-222.789 243.023,-162.823 230.682,-117.866 202.988,-70.9564 184.734,-43.1223"/>
<polygon fill="#ecc4ff" stroke="#ecc4ff" points="186.847,-41.2425 180.084,-36.1324 182.184,-44.3441 186.847,-41.2425"/>
</a>
</g>
<!-- SP3 -->
<g id="node22" class="node"><title>SP3</title>
<a xlink:href="SP3.svg" xlink:title="Z&#45;value: 1.634||remove31">
<polygon fill="#5868ff" stroke="#5868ff" stroke-width="2" points="271.103,-36 241.103,-36 229.103,-24 229.103,-12 241.103,-0 271.103,-0 283.103,-12 283.103,-24 271.103,-36"/>
<path fill="#5868ff" stroke="#5868ff" stroke-width="2" d="M241.103,-36C235.103,-36 229.103,-30 229.103,-24"/>
<path fill="#5868ff" stroke="#5868ff" stroke-width="2" d="M229.103,-12C229.103,-6 235.103,-0 241.103,-0"/>
<path fill="#5868ff" stroke="#5868ff" stroke-width="2" d="M271.103,-0C277.103,-0 283.103,-6 283.103,-12"/>
<path fill="#5868ff" stroke="#5868ff" stroke-width="2" d="M283.103,-24C283.103,-30 277.103,-36 271.103,-36"/>
<polyline fill="none" stroke="white" stroke-width="2" points="271.103,-36 241.103,-36 "/>
<path fill="none" stroke="white" stroke-width="2" d="M241.103,-36C235.103,-36 229.103,-30 229.103,-24"/>
<polyline fill="none" stroke="white" stroke-width="2" points="229.103,-24 229.103,-12 "/>
<path fill="none" stroke="white" stroke-width="2" d="M229.103,-12C229.103,-6 235.103,-0 241.103,-0"/>
<polyline fill="none" stroke="white" stroke-width="2" points="241.103,-0 271.103,-0 "/>
<path fill="none" stroke="white" stroke-width="2" d="M271.103,-0C277.103,-0 283.103,-6 283.103,-12"/>
<polyline fill="none" stroke="white" stroke-width="2" points="283.103,-12 283.103,-24 "/>
<path fill="none" stroke="white" stroke-width="2" d="M283.103,-24C283.103,-30 277.103,-36 271.103,-36"/>
<text text-anchor="middle" x="256.103" y="-15.5" font-family="Helvetica,sans-Serif" font-size="10.00" fill="white">SP3</text>
</a>
</g>
<!-- SIN3A_CHD1&#45;&gt;SP3 -->
<g id="edge24" class="edge"><title>SIN3A_CHD1&#45;&gt;SP3</title>
<a xlink:title="SP3: 1.334||SIN3A: 0.230||remove31">
<path fill="none" stroke="#bf37ff" stroke-width="3" d="M255.103,-322.995C255.103,-260.928 255.103,-106.355 255.103,-44.3491"/>
<path fill="none" stroke="#e6b2ff" stroke-width="3" d="M257.103,-322.995C257.103,-260.928 257.103,-106.355 257.103,-44.3491"/>
<polygon fill="#e6b2ff" stroke="#e6b2ff" points="253.303,-323.116 256.103,-331.116 258.903,-323.116 253.303,-323.116"/>
<polygon fill="#bf37ff" stroke="#bf37ff" points="258.903,-44.2333 256.103,-36.2334 253.303,-44.2334 258.903,-44.2333"/>
</a>
</g>
<!-- KLF14_SP8&#45;&gt;STAT6 -->
<g id="edge50" class="edge"><title>KLF14_SP8&#45;&gt;STAT6</title>
<a xlink:title="STAT6: 0.136||remove25root">
<path fill="none" stroke="#bcc3ff" stroke-width="3" d="M172.139,-331.358C180.013,-301.973 195.633,-243.676 204.714,-209.787"/>
<polygon fill="#bcc3ff" stroke="#bcc3ff" points="207.507,-210.182 206.873,-201.729 202.098,-208.732 207.507,-210.182"/>
</a>
</g>
<!-- KLF14_SP8&#45;&gt;TBX2 -->
<g id="edge48" class="edge"><title>KLF14_SP8&#45;&gt;TBX2</title>
<a xlink:title="TBX2: 0.107||remove19root">
<path fill="none" stroke="#eac0ff" stroke-width="3" d="M136.024,-331.347C132.273,-329.182 128.429,-326.962 124.639,-324.774"/>
<polygon fill="#eac0ff" stroke="#eac0ff" points="125.787,-322.204 117.459,-320.629 122.987,-327.054 125.787,-322.204"/>
</a>
</g>
<!-- KLF14_SP8&#45;&gt;ZNF740_ZNF219 -->
<g id="edge52" class="edge"><title>KLF14_SP8&#45;&gt;ZNF740_ZNF219</title>
<a xlink:title="ZNF219: 0.044||ZNF740: 0.016||remove9root">
<path fill="none" stroke="#edc7ff" stroke-width="3" d="M156.728,-330.988C141.15,-303.87 111.104,-251.608 85.44,-207.223 77.2809,-193.112 68.142,-177.37 60.7174,-164.597"/>
<polygon fill="#edc7ff" stroke="#edc7ff" points="63.0061,-162.963 56.5643,-157.454 58.1649,-165.777 63.0061,-162.963"/>
</a>
</g>
<!-- KLF14_SP8&#45;&gt;ELK4_ETV5_ELK1_ELK3_ELF4 -->
<g id="edge54" class="edge"><title>KLF14_SP8&#45;&gt;ELK4_ETV5_ELK1_ELK3_ELF4</title>
<a xlink:title="ELK1: 0.042||ELK3: 0.041||remove7root">
<path fill="none" stroke="#edc7ff" stroke-width="3" d="M162.375,-331.016C149.136,-281.607 112.76,-145.85 97.3958,-88.5086"/>
<polygon fill="#edc7ff" stroke="#edc7ff" points="100.062,-87.6397 95.2866,-80.637 94.6526,-89.0891 100.062,-87.6397"/>
</a>
</g>
<!-- KLF14_SP8&#45;&gt;SP3 -->
<g id="edge56" class="edge"><title>KLF14_SP8&#45;&gt;SP3</title>
<a xlink:title="SP3: 0.024||remove3root">
<path fill="none" stroke="#edc9ff" stroke-width="3" d="M179.979,-331.244C197.681,-304.784 229.19,-253.449 243.023,-204.583 258.704,-149.191 258.939,-81.0355 257.601,-44.3607"/>
<polygon fill="#edc9ff" stroke="#edc9ff" points="260.39,-44.045 257.256,-36.1699 254.795,-44.2807 260.39,-44.045"/>
</a>
</g>
<!-- TBX2&#45;&gt;STAT6 -->
<g id="edge70" class="edge"><title>TBX2&#45;&gt;STAT6</title>
<a xlink:title="STAT6: 0.141||remove28root">
<path fill="none" stroke="#bcc2ff" stroke-width="3" d="M108.56,-286.846C129.552,-265.854 164.192,-231.214 187.469,-207.937"/>
<polygon fill="#bcc2ff" stroke="#bcc2ff" points="189.742,-209.624 193.419,-201.988 185.782,-205.664 189.742,-209.624"/>
</a>
</g>
<!-- E2F7_E2F1&#45;&gt;STAT6 -->
<g id="edge60" class="edge"><title>E2F7_E2F1&#45;&gt;STAT6</title>
<a xlink:title="STAT6: 0.123||remove21root">
<path fill="none" stroke="#bec4ff" stroke-width="3" d="M80.3338,-218.903C108.461,-211.367 148.106,-200.744 176.474,-193.143"/>
<polygon fill="#bec4ff" stroke="#bec4ff" points="177.521,-195.761 184.523,-190.986 176.071,-190.352 177.521,-195.761"/>
</a>
</g>
<!-- E2F7_E2F1&#45;&gt;NR2F2 -->
<g id="edge64" class="edge"><title>E2F7_E2F1&#45;&gt;NR2F2</title>
<a xlink:title="NR2F2: 0.002||remove0root">
<path fill="none" stroke="#eecbff" stroke-width="3" d="M80.218,-228.103C143.369,-228.103 277.629,-228.103 341.803,-228.103"/>
<polygon fill="#eecbff" stroke="#eecbff" points="342.01,-230.903 350.01,-228.103 342.01,-225.303 342.01,-230.903"/>
</a>
</g>
<!-- E2F7_E2F1&#45;&gt;E2F7_E2F1 -->
<g id="edge58" class="edge"><title>E2F7_E2F1&#45;&gt;E2F7_E2F1</title>
<a xlink:title="E2F7: 1.052||remove21">
<path fill="none" stroke="#c957ff" stroke-width="3" d="M80.0085,-234.838C90.1268,-234.637 98,-232.392 98,-228.103 98,-225.087 94.1076,-223.082 88.2792,-222.087"/>
<polygon fill="#c957ff" stroke="#c957ff" points="88.2211,-219.272 80.0085,-221.368 87.7357,-224.851 88.2211,-219.272"/>
</a>
</g>
<!-- E2F7_E2F1&#45;&gt;ELK4_ETV5_ELK1_ELK3_ELF4 -->
<g id="edge62" class="edge"><title>E2F7_E2F1&#45;&gt;ELK4_ETV5_ELK1_ELK3_ELF4</title>
<a xlink:title="ETV5: 0.067||ELK1: 0.028||remove16root">
<path fill="none" stroke="#ecc4ff" stroke-width="3" d="M65.7882,-210.028C78.0515,-197.421 92.6945,-179.457 99.36,-160.183 107.44,-136.819 103.49,-108.547 98.5474,-88.4247"/>
<polygon fill="#ecc4ff" stroke="#ecc4ff" points="101.232,-87.6223 96.4766,-80.6059 95.8182,-89.0561 101.232,-87.6223"/>
</a>
</g>
<!-- E2F7_E2F1&#45;&gt;REL -->
<g id="edge66" class="edge"><title>E2F7_E2F1&#45;&gt;REL</title>
<a xlink:title="REL: 0.024||remove2root">
<path fill="none" stroke="#edc9ff" stroke-width="3" d="M72.4132,-210.013C105.35,-185.666 160.003,-138.926 182.04,-83.28 188.02,-68.1809 187.46,-61.1899 182.383,-44.0437"/>
<polygon fill="#edc9ff" stroke="#edc9ff" points="184.948,-42.8557 179.936,-36.0204 179.591,-44.4892 184.948,-42.8557"/>
</a>
</g>
<!-- ZNF740_ZNF219&#45;&gt;PITX1 -->
<g id="edge76" class="edge"><title>ZNF740_ZNF219&#45;&gt;PITX1</title>
<a xlink:title="PITX1: 0.024||remove1root">
<path fill="none" stroke="#edc9ff" stroke-width="3" d="M77.261,-157.352C131.348,-188.579 241.993,-252.46 298.351,-284.998"/>
<polygon fill="#edc9ff" stroke="#edc9ff" points="297.275,-287.61 305.604,-289.185 300.075,-282.76 297.275,-287.61"/>
</a>
</g>
<!-- ZNF740_ZNF219&#45;&gt;STAT6 -->
<g id="edge72" class="edge"><title>ZNF740_ZNF219&#45;&gt;STAT6</title>
<a xlink:title="STAT6: 0.271||remove33root">
<path fill="none" stroke="#adb5ff" stroke-width="3" d="M92.1575,-151.671C118.829,-158.817 151.858,-167.668 176.435,-174.253"/>
<polygon fill="#adb5ff" stroke="#adb5ff" points="175.973,-177.028 184.425,-176.394 177.422,-171.619 175.973,-177.028"/>
</a>
</g>
<!-- ZNF740_ZNF219&#45;&gt;ELK4_ETV5_ELK1_ELK3_ELF4 -->
<g id="edge74" class="edge"><title>ZNF740_ZNF219&#45;&gt;ELK4_ETV5_ELK1_ELK3_ELF4</title>
<a xlink:title="ELF4: 0.055||ELK3: 0.003||remove13root">
<path fill="none" stroke="#ecc5ff" stroke-width="3" d="M56.5222,-121.078C62.2728,-111.118 69.485,-98.6259 75.7752,-87.731"/>
<polygon fill="#ecc5ff" stroke="#ecc5ff" points="78.3782,-88.8224 79.9533,-80.4941 73.5284,-86.0223 78.3782,-88.8224"/>
</a>
</g>
<!-- ELK4_ETV5_ELK1_ELK3_ELF4&#45;&gt;STAT6 -->
<g id="edge30" class="edge"><title>ELK4_ETV5_ELK1_ELK3_ELF4&#45;&gt;STAT6</title>
<a xlink:title="STAT6: 0.145||remove29root">
<path fill="none" stroke="#bbc2ff" stroke-width="3" d="M108.56,-80.5603C129.552,-101.552 164.192,-136.192 187.469,-159.469"/>
<polygon fill="#bbc2ff" stroke="#bbc2ff" points="185.782,-161.742 193.419,-165.419 189.742,-157.782 185.782,-161.742"/>
</a>
</g>
<!-- ELK4_ETV5_ELK1_ELK3_ELF4&#45;&gt;NR2F2 -->
<g id="edge34" class="edge"><title>ELK4_ETV5_ELK1_ELK3_ELF4&#45;&gt;NR2F2</title>
<a xlink:title="NR2F2: 0.040||remove6root">
<path fill="none" stroke="#edc7ff" stroke-width="3" d="M121.661,-80.4486C175.748,-111.676 286.393,-175.557 342.751,-208.095"/>
<polygon fill="#edc7ff" stroke="#edc7ff" points="341.675,-210.707 350.004,-212.282 344.475,-205.857 341.675,-210.707"/>
</a>
</g>
<!-- ELK4_ETV5_ELK1_ELK3_ELF4&#45;&gt;TBX2 -->
<g id="edge28" class="edge"><title>ELK4_ETV5_ELK1_ELK3_ELF4&#45;&gt;TBX2</title>
<a xlink:title="TBX2: 0.097||remove18root">
<path fill="none" stroke="#ebc1ff" stroke-width="3" d="M94.0379,-80.4785C96.051,-91.4111 98.3457,-105.659 99.36,-118.423 103.902,-175.587 97.895,-242.8 93.7445,-278.907"/>
<polygon fill="#ebc1ff" stroke="#ebc1ff" points="90.95,-278.696 92.7885,-286.971 96.5111,-279.356 90.95,-278.696"/>
</a>
</g>
<!-- ELK4_ETV5_ELK1_ELK3_ELF4&#45;&gt;ELK4_ETV5_ELK1_ELK3_ELF4 -->
<g id="edge32" class="edge"><title>ELK4_ETV5_ELK1_ELK3_ELF4&#45;&gt;ELK4_ETV5_ELK1_ELK3_ELF4</title>
<a xlink:title="ELK4: 0.168||ELK3: 0.113||remove29">
<path fill="none" stroke="#e8b9ff" stroke-width="3" d="M169.12,-68.3524C179.509,-67.3373 186.4,-65.3531 186.4,-62.4 186.4,-60.3236 182.993,-58.7262 177.359,-57.6079"/>
<polygon fill="#e8b9ff" stroke="#e8b9ff" points="177.432,-54.7906 169.12,-56.4476 176.651,-60.3359 177.432,-54.7906"/>
</a>
</g>
<!-- ELK4_ETV5_ELK1_ELK3_ELF4&#45;&gt;SP3 -->
<g id="edge36" class="edge"><title>ELK4_ETV5_ELK1_ELK3_ELF4&#45;&gt;SP3</title>
<a xlink:title="SP3: 0.256||ELF4: 0.691||ELK1: 0.405||ETV5: 0.141||remove29">
<path fill="none" stroke="#e5afff" stroke-width="3" d="M176.769,-43.6958C184.096,-41.8668 191.38,-39.9317 198.346,-37.9193 205.648,-35.8105 213.405,-33.232 220.744,-30.6272"/>
<path fill="none" stroke="#d67fff" stroke-width="3" d="M177.254,-45.6362C184.61,-43.7998 191.894,-41.8646 198.901,-39.8407 206.279,-37.7083 214.036,-35.1299 221.413,-32.512"/>
<polygon fill="#d67fff" stroke="#d67fff" points="176.142,-41.996 169.034,-46.6135 177.47,-47.4362 176.142,-41.996"/>
<polygon fill="#e5afff" stroke="#e5afff" points="222.302,-34.1041 228.867,-28.7433 220.392,-28.84 222.302,-34.1041"/>
</a>
</g>
<!-- MZF1 -->
<g id="node24" class="node"><title>MZF1</title>
<a xlink:href="MZF1.svg" xlink:title="Z&#45;value: 0.821||remove23">
<polygon fill="#919cff" stroke="#919cff" stroke-width="2" points="348.006,-80.4 318.006,-80.4 306.006,-68.4 306.006,-56.4 318.006,-44.4 348.006,-44.4 360.006,-56.4 360.006,-68.4 348.006,-80.4"/>
<path fill="#919cff" stroke="#919cff" stroke-width="2" d="M318.006,-80.4C312.006,-80.4 306.006,-74.4 306.006,-68.4"/>
<path fill="#919cff" stroke="#919cff" stroke-width="2" d="M306.006,-56.4C306.006,-50.4 312.006,-44.4 318.006,-44.4"/>
<path fill="#919cff" stroke="#919cff" stroke-width="2" d="M348.006,-44.4C354.006,-44.4 360.006,-50.4 360.006,-56.4"/>
<path fill="#919cff" stroke="#919cff" stroke-width="2" d="M360.006,-68.4C360.006,-74.4 354.006,-80.4 348.006,-80.4"/>
<polyline fill="none" stroke="white" stroke-width="2" points="348.006,-80.4 318.006,-80.4 "/>
<path fill="none" stroke="white" stroke-width="2" d="M318.006,-80.4C312.006,-80.4 306.006,-74.4 306.006,-68.4"/>
<polyline fill="none" stroke="white" stroke-width="2" points="306.006,-68.4 306.006,-56.4 "/>
<path fill="none" stroke="white" stroke-width="2" d="M306.006,-56.4C306.006,-50.4 312.006,-44.4 318.006,-44.4"/>
<polyline fill="none" stroke="white" stroke-width="2" points="318.006,-44.4 348.006,-44.4 "/>
<path fill="none" stroke="white" stroke-width="2" d="M348.006,-44.4C354.006,-44.4 360.006,-50.4 360.006,-56.4"/>
<polyline fill="none" stroke="white" stroke-width="2" points="360.006,-56.4 360.006,-68.4 "/>
<path fill="none" stroke="white" stroke-width="2" d="M360.006,-68.4C360.006,-74.4 354.006,-80.4 348.006,-80.4"/>
<text text-anchor="middle" x="333.006" y="-59.9" font-family="Helvetica,sans-Serif" font-size="10.00">MZF1</text>
</a>
</g>
<!-- ELK4_ETV5_ELK1_ELK3_ELF4&#45;&gt;MZF1 -->
<g id="edge26" class="edge"><title>ELK4_ETV5_ELK1_ELK3_ELF4&#45;&gt;MZF1</title>
<a xlink:title="MZF1: 0.043||ELK1: 0.036||remove8root">
<path fill="none" stroke="#edc7ff" stroke-width="3" d="M177.249,-61.4C218.851,-61.4 266.348,-61.4 297.842,-61.4"/>
<path fill="none" stroke="#edc8ff" stroke-width="3" d="M177.249,-63.4C218.851,-63.4 266.348,-63.4 297.842,-63.4"/>
<polygon fill="#edc8ff" stroke="#edc8ff" points="177.167,-59.6001 169.167,-62.4 177.167,-65.2001 177.167,-59.6001"/>
<polygon fill="#edc7ff" stroke="#edc7ff" points="297.886,-65.2001 305.886,-62.4 297.886,-59.6001 297.886,-65.2001"/>
</a>
</g>
<!-- REL&#45;&gt;STAT6 -->
<g id="edge78" class="edge"><title>REL&#45;&gt;STAT6</title>
<a xlink:title="STAT6: 0.140||remove27root">
<path fill="none" stroke="#bcc3ff" stroke-width="3" d="M179.536,-36.158C180.466,-37.9285 181.32,-39.732 182.04,-41.52 197.638,-80.2683 205.47,-128.402 209.055,-157.552"/>
<polygon fill="#bcc3ff" stroke="#bcc3ff" points="206.286,-157.981 209.996,-165.602 211.848,-157.331 206.286,-157.981"/>
</a>
</g>
<!-- SP3&#45;&gt;PITX1 -->
<g id="edge44" class="edge"><title>SP3&#45;&gt;PITX1</title>
<a xlink:title="PITX1: 0.124||remove22root">
<path fill="none" stroke="#eabeff" stroke-width="3" d="M261.031,-36.3901C274.27,-85.7994 310.646,-221.556 326.01,-278.897"/>
<polygon fill="#eabeff" stroke="#eabeff" points="323.344,-279.766 328.12,-286.769 328.754,-278.317 323.344,-279.766"/>
</a>
</g>
<!-- SP3&#45;&gt;STAT6 -->
<g id="edge40" class="edge"><title>SP3&#45;&gt;STAT6</title>
<a xlink:title="STAT6: 0.219||remove31root">
<path fill="none" stroke="#b3bbff" stroke-width="3" d="M251.267,-36.0486C243.393,-65.4328 227.773,-123.73 218.692,-157.619"/>
<polygon fill="#b3bbff" stroke="#b3bbff" points="215.899,-157.225 216.533,-165.677 221.308,-158.674 215.899,-157.225"/>
</a>
</g>
<!-- SP3&#45;&gt;E2F7_E2F1 -->
<g id="edge38" class="edge"><title>SP3&#45;&gt;E2F7_E2F1</title>
<a xlink:title="E2F1: 0.360||E2F7: 0.213||remove21">
<path fill="none" stroke="#e1a3ff" stroke-width="3" d="M237.825,-36.2777C199.78,-74.3234 112.103,-162 69.7512,-204.352"/>
<polygon fill="#e1a3ff" stroke="#e1a3ff" points="67.7628,-202.38 64.0859,-210.017 71.7227,-206.34 67.7628,-202.38"/>
</a>
</g>
<!-- SP3&#45;&gt;ZNF740_ZNF219 -->
<g id="edge42" class="edge"><title>SP3&#45;&gt;ZNF740_ZNF219</title>
<a xlink:title="ZNF219: 0.423||ZNF740: 0.173||remove31">
<path fill="none" stroke="#df9cff" stroke-width="3" d="M238.891,-36.1871C224.678,-50.4212 203.433,-69.9701 182.04,-83.28 156.588,-99.1153 125.881,-112.206 100.087,-121.74"/>
<polygon fill="#df9cff" stroke="#df9cff" points="98.816,-119.222 92.2511,-124.584 100.726,-124.486 98.816,-119.222"/>
</a>
</g>
<!-- SP3&#45;&gt;REL -->
<g id="edge46" class="edge"><title>SP3&#45;&gt;REL</title>
<a xlink:title="REL: 0.179||remove27">
<path fill="none" stroke="#e8b8ff" stroke-width="3" d="M228.978,-18C220.706,-18 211.487,-18 202.75,-18"/>
<polygon fill="#e8b8ff" stroke="#e8b8ff" points="202.568,-15.1999 194.568,-18 202.568,-20.7999 202.568,-15.1999"/>
</a>
</g>
<!-- MZF1&#45;&gt;STAT6 -->
<g id="edge84" class="edge"><title>MZF1&#45;&gt;STAT6</title>
<a xlink:title="STAT6: 0.124||remove23root">
<path fill="none" stroke="#bec4ff" stroke-width="3" d="M314.846,-80.5603C293.854,-101.552 259.214,-136.192 235.937,-159.469"/>
<polygon fill="#bec4ff" stroke="#bec4ff" points="233.664,-157.782 229.988,-165.419 237.624,-161.742 233.664,-157.782"/>
</a>
</g>
<!-- MZF1&#45;&gt;SIN3A_CHD1 -->
<g id="edge80" class="edge"><title>MZF1&#45;&gt;SIN3A_CHD1</title>
<a xlink:title="SIN3A: 0.046||remove10root">
<path fill="none" stroke="#edc6ff" stroke-width="3" d="M328.079,-80.7901C314.839,-130.199 278.464,-265.956 263.099,-323.297"/>
<polygon fill="#edc6ff" stroke="#edc6ff" points="260.356,-322.717 260.99,-331.169 265.765,-324.166 260.356,-322.717"/>
</a>
</g>
<!-- MZF1&#45;&gt;REL -->
<g id="edge86" class="edge"><title>MZF1&#45;&gt;REL</title>
<a xlink:title="REL: 0.025||remove4root">
<path fill="none" stroke="#edc9ff" stroke-width="3" d="M305.623,-57.5053C283.59,-53.3149 251.937,-46.724 224.783,-38.88 217.442,-36.7594 209.686,-34.1809 202.328,-31.5696"/>
<polygon fill="#edc9ff" stroke="#edc9ff" points="203.014,-28.84 194.539,-28.7433 201.104,-34.1041 203.014,-28.84"/>
</a>
</g>
<!-- MZF1&#45;&gt;SP3 -->
<g id="edge88" class="edge"><title>MZF1&#45;&gt;SP3</title>
<a xlink:title="SP3: 0.055||remove12root">
<path fill="none" stroke="#ecc5ff" stroke-width="3" d="M305.676,-46.6212C300.69,-43.7423 295.431,-40.7058 290.275,-37.7293"/>
<polygon fill="#ecc5ff" stroke="#ecc5ff" points="291.673,-35.3032 283.345,-33.728 288.873,-40.1529 291.673,-35.3032"/>
</a>
</g>
<!-- MZF1&#45;&gt;MZF1 -->
<g id="edge82" class="edge"><title>MZF1&#45;&gt;MZF1</title>
<a xlink:title="MZF1: 0.056||remove14root">
<path fill="none" stroke="#ecc5ff" stroke-width="3" d="M360.247,-69.1434C370.03,-69.2884 378.006,-67.0406 378.006,-62.4 378.006,-59.1371 374.063,-57.0571 368.321,-56.1601"/>
<polygon fill="#ecc5ff" stroke="#ecc5ff" points="368.406,-53.3601 360.247,-55.6566 368.057,-58.9492 368.406,-53.3601"/>
</a>
</g>
<!-- TLX2 -->
<g id="node57" class="node"><title>TLX2</title>
<a xlink:href="TLX2.svg" xlink:title="Z&#45;value: 0.623||remove26">
<polygon fill="#9fa9ff" stroke="#9fa9ff" stroke-width="2" points="392.406,-157.303 362.406,-157.303 350.406,-145.303 350.406,-133.303 362.406,-121.303 392.406,-121.303 404.406,-133.303 404.406,-145.303 392.406,-157.303"/>
<path fill="#9fa9ff" stroke="#9fa9ff" stroke-width="2" d="M362.406,-157.303C356.406,-157.303 350.406,-151.303 350.406,-145.303"/>
<path fill="#9fa9ff" stroke="#9fa9ff" stroke-width="2" d="M350.406,-133.303C350.406,-127.303 356.406,-121.303 362.406,-121.303"/>
<path fill="#9fa9ff" stroke="#9fa9ff" stroke-width="2" d="M392.406,-121.303C398.406,-121.303 404.406,-127.303 404.406,-133.303"/>
<path fill="#9fa9ff" stroke="#9fa9ff" stroke-width="2" d="M404.406,-145.303C404.406,-151.303 398.406,-157.303 392.406,-157.303"/>
<polyline fill="none" stroke="white" stroke-width="2" points="392.406,-157.303 362.406,-157.303 "/>
<path fill="none" stroke="white" stroke-width="2" d="M362.406,-157.303C356.406,-157.303 350.406,-151.303 350.406,-145.303"/>
<polyline fill="none" stroke="white" stroke-width="2" points="350.406,-145.303 350.406,-133.303 "/>
<path fill="none" stroke="white" stroke-width="2" d="M350.406,-133.303C350.406,-127.303 356.406,-121.303 362.406,-121.303"/>
<polyline fill="none" stroke="white" stroke-width="2" points="362.406,-121.303 392.406,-121.303 "/>
<path fill="none" stroke="white" stroke-width="2" d="M392.406,-121.303C398.406,-121.303 404.406,-127.303 404.406,-133.303"/>
<polyline fill="none" stroke="white" stroke-width="2" points="404.406,-133.303 404.406,-145.303 "/>
<path fill="none" stroke="white" stroke-width="2" d="M404.406,-145.303C404.406,-151.303 398.406,-157.303 392.406,-157.303"/>
<text text-anchor="middle" x="377.406" y="-136.803" font-family="Helvetica,sans-Serif" font-size="10.00">TLX2</text>
</a>
</g>
<!-- TLX2&#45;&gt;STAT6 -->
<g id="edge92" class="edge"><title>TLX2&#45;&gt;STAT6</title>
<a xlink:title="STAT6: 0.138||remove26root">
<path fill="none" stroke="#bcc3ff" stroke-width="3" d="M350.044,-146.635C321.776,-154.209 277.558,-166.057 246.748,-174.313"/>
<polygon fill="#bcc3ff" stroke="#bcc3ff" points="245.833,-171.659 238.831,-176.434 247.283,-177.068 245.833,-171.659"/>
</a>
</g>
<!-- TLX2&#45;&gt;MZF1 -->
<g id="edge90" class="edge"><title>TLX2&#45;&gt;MZF1</title>
<a xlink:title="MZF1: 0.116||remove20root">
<path fill="none" stroke="#eabfff" stroke-width="3" d="M366.884,-121.078C361.133,-111.118 353.921,-98.6259 347.631,-87.731"/>
<polygon fill="#eabfff" stroke="#eabfff" points="349.878,-86.0223 343.453,-80.4941 345.028,-88.8224 349.878,-86.0223"/>
</a>
</g>
</g>
</svg>
