<?xml version="1.0" ?><!DOCTYPE svg  PUBLIC '-//W3C//DTD SVG 1.1//EN'  'http://www.w3.org/Graphics/SVG/1.1/DTD/svg11.dtd'><!-- Generated by graphviz version 2.28.0 (20110630.0925)
 --><!-- Title: _anonymous_0 Pages: 1 --><svg height="428pt" onload="init(evt)" width="580pt" xmlns="http://www.w3.org/2000/svg" xmlns:ismara="ismara.unibas.ch" xmlns:xlink="http://www.w3.org/1999/xlink">
<g class="graph" id="graph1" transform="scale(1 1) rotate(0) translate(54 373.645)">

<polygon fill="white" points="-4,5 -4,-373.645 426.945,-373.645 426.945,5 -4,5" stroke="white"/>
<!-- ESRRA_ESR2 -->
<g class="node" id="node1">
<a class="remove30" onmousemove="ShowTooltip(evt, 'Z-value: 3.814')" onmouseout="HideTooltip(evt)" xlink:href="ESRRA_ESR2.svg">
<polygon fill="#3247ff" points="194.673,-36 136.173,-36 124.173,-24 124.173,-12 136.173,-6.39488e-14 194.673,-6.39488e-14 206.673,-12 206.673,-24 194.673,-36" stroke="#3247ff" stroke-width="2"/>
<path d="M136.173,-36C130.173,-36 124.173,-30 124.173,-24" fill="#3247ff" stroke="#3247ff" stroke-width="2"/>
<path d="M124.173,-12C124.173,-6 130.173,-6.39488e-14 136.173,-6.39488e-14" fill="#3247ff" stroke="#3247ff" stroke-width="2"/>
<path d="M194.673,-6.39488e-14C200.673,-6.39488e-14 206.673,-6 206.673,-12" fill="#3247ff" stroke="#3247ff" stroke-width="2"/>
<path d="M206.673,-24C206.673,-30 200.673,-36 194.673,-36" fill="#3247ff" stroke="#3247ff" stroke-width="2"/>
<polyline fill="none" points="194.673,-36 136.173,-36 " stroke="white" stroke-width="2"/>
<path d="M136.173,-36C130.173,-36 124.173,-30 124.173,-24" fill="none" stroke="white" stroke-width="2"/>
<polyline fill="none" points="124.173,-24 124.173,-12 " stroke="white" stroke-width="2"/>
<path d="M124.173,-12C124.173,-6 130.173,-6.39488e-14 136.173,-6.39488e-14" fill="none" stroke="white" stroke-width="2"/>
<polyline fill="none" points="136.173,-6.39488e-14 194.673,-6.39488e-14 " stroke="white" stroke-width="2"/>
<path d="M194.673,-6.39488e-14C200.673,-6.39488e-14 206.673,-6 206.673,-12" fill="none" stroke="white" stroke-width="2"/>
<polyline fill="none" points="206.673,-12 206.673,-24 " stroke="white" stroke-width="2"/>
<path d="M206.673,-24C206.673,-30 200.673,-36 194.673,-36" fill="none" stroke="white" stroke-width="2"/>
<text fill="white" font-family="Helvetica,sans-Serif" font-size="10.00" text-anchor="middle" x="165.423" y="-15.5">ESRRA_ESR2</text>
</a>
</g>
<!-- MESP1 -->
<g class="node" id="node2">
<a class="remove21" onmousemove="ShowTooltip(evt, 'Z-value: 0.887')" onmouseout="HideTooltip(evt)" xlink:href="MESP1.svg">
<polygon fill="#a8b1ff" points="391.945,-247.523 361.945,-247.523 349.945,-235.523 349.945,-223.523 361.945,-211.523 391.945,-211.523 403.945,-223.523 403.945,-235.523 391.945,-247.523" stroke="#a8b1ff" stroke-width="2"/>
<path d="M361.945,-247.523C355.945,-247.523 349.945,-241.523 349.945,-235.523" fill="#a8b1ff" stroke="#a8b1ff" stroke-width="2"/>
<path d="M349.945,-223.523C349.945,-217.523 355.945,-211.523 361.945,-211.523" fill="#a8b1ff" stroke="#a8b1ff" stroke-width="2"/>
<path d="M391.945,-211.523C397.945,-211.523 403.945,-217.523 403.945,-223.523" fill="#a8b1ff" stroke="#a8b1ff" stroke-width="2"/>
<path d="M403.945,-235.523C403.945,-241.523 397.945,-247.523 391.945,-247.523" fill="#a8b1ff" stroke="#a8b1ff" stroke-width="2"/>
<polyline fill="none" points="391.945,-247.523 361.945,-247.523 " stroke="white" stroke-width="2"/>
<path d="M361.945,-247.523C355.945,-247.523 349.945,-241.523 349.945,-235.523" fill="none" stroke="white" stroke-width="2"/>
<polyline fill="none" points="349.945,-235.523 349.945,-223.523 " stroke="white" stroke-width="2"/>
<path d="M349.945,-223.523C349.945,-217.523 355.945,-211.523 361.945,-211.523" fill="none" stroke="white" stroke-width="2"/>
<polyline fill="none" points="361.945,-211.523 391.945,-211.523 " stroke="white" stroke-width="2"/>
<path d="M391.945,-211.523C397.945,-211.523 403.945,-217.523 403.945,-223.523" fill="none" stroke="white" stroke-width="2"/>
<polyline fill="none" points="403.945,-223.523 403.945,-235.523 " stroke="white" stroke-width="2"/>
<path d="M403.945,-235.523C403.945,-241.523 397.945,-247.523 391.945,-247.523" fill="none" stroke="white" stroke-width="2"/>
<text font-family="Helvetica,sans-Serif" font-size="10.00" text-anchor="middle" x="376.945" y="-227.023">MESP1</text>
</a>
</g>
<!-- ESRRA_ESR2&#45;&gt;MESP1 -->
<g class="edge" id="edge2">
<a class="remove6 root" ismara:data="0.018" onmousemove="ShowTooltip(evt, 'MESP1: 0.018')" onmouseout="HideTooltip(evt)">
<path d="M184.307,-36.1697C186.262,-38.0724 188.214,-39.9821 190.08,-41.82 249.226,-100.084 317.896,-169.532 353.233,-205.405" fill="none" stroke="#ebc3ff" stroke-width="3"/>
<polygon fill="#ebc3ff" points="351.415,-207.55 359.023,-211.285 355.405,-203.62 351.415,-207.55" stroke="#ebc3ff"/>
</a>
</g>
<!-- TBX5 -->
<g class="node" id="node4">
<a class="remove31" onmousemove="ShowTooltip(evt, 'Z-value: 0.861')" onmouseout="HideTooltip(evt)" xlink:href="TBX5.svg">
<polygon fill="#ffa9a9" points="225.123,-202.823 195.123,-202.823 183.123,-190.823 183.123,-178.823 195.123,-166.823 225.123,-166.823 237.123,-178.823 237.123,-190.823 225.123,-202.823" stroke="#ffa9a9" stroke-width="2"/>
<path d="M195.123,-202.823C189.123,-202.823 183.123,-196.823 183.123,-190.823" fill="#ffa9a9" stroke="#ffa9a9" stroke-width="2"/>
<path d="M183.123,-178.823C183.123,-172.823 189.123,-166.823 195.123,-166.823" fill="#ffa9a9" stroke="#ffa9a9" stroke-width="2"/>
<path d="M225.123,-166.823C231.123,-166.823 237.123,-172.823 237.123,-178.823" fill="#ffa9a9" stroke="#ffa9a9" stroke-width="2"/>
<path d="M237.123,-190.823C237.123,-196.823 231.123,-202.823 225.123,-202.823" fill="#ffa9a9" stroke="#ffa9a9" stroke-width="2"/>
<polyline fill="none" points="225.123,-202.823 195.123,-202.823 " stroke="white" stroke-width="2"/>
<path d="M195.123,-202.823C189.123,-202.823 183.123,-196.823 183.123,-190.823" fill="none" stroke="white" stroke-width="2"/>
<polyline fill="none" points="183.123,-190.823 183.123,-178.823 " stroke="white" stroke-width="2"/>
<path d="M183.123,-178.823C183.123,-172.823 189.123,-166.823 195.123,-166.823" fill="none" stroke="white" stroke-width="2"/>
<polyline fill="none" points="195.123,-166.823 225.123,-166.823 " stroke="white" stroke-width="2"/>
<path d="M225.123,-166.823C231.123,-166.823 237.123,-172.823 237.123,-178.823" fill="none" stroke="white" stroke-width="2"/>
<polyline fill="none" points="237.123,-178.823 237.123,-190.823 " stroke="white" stroke-width="2"/>
<path d="M237.123,-190.823C237.123,-196.823 231.123,-202.823 225.123,-202.823" fill="none" stroke="white" stroke-width="2"/>
<text font-family="Helvetica,sans-Serif" font-size="10.00" text-anchor="middle" x="210.123" y="-182.323">TBX5</text>
</a>
</g>
<!-- ESRRA_ESR2&#45;&gt;TBX5 -->
<g class="edge" id="edge4">
<a class="remove30 root" ismara:data="0.293" onmousemove="ShowTooltip(evt, 'TBX5: 0.293')" onmouseout="HideTooltip(evt)">
<path d="M186.379,-36.0165C187.789,-37.8624 189.054,-39.8045 190.08,-41.82 209.026,-79.0297 211.803,-128.355 211.431,-158.279" fill="none" stroke="#384cff" stroke-width="3"/>
<polygon fill="#384cff" points="208.625,-158.481 211.241,-166.543 214.224,-158.609 208.625,-158.481" stroke="#384cff"/>
</a>
</g>
<!-- GLIS2 -->
<g class="node" id="node6">
<a class="remove24" onmousemove="ShowTooltip(evt, 'Z-value: 0.867')" onmouseout="HideTooltip(evt)" xlink:href="GLIS2.svg">
<polygon fill="#a9b1ff" points="269.823,-36 239.823,-36 227.823,-24 227.823,-12 239.823,-0 269.823,-0 281.823,-12 281.823,-24 269.823,-36" stroke="#a9b1ff" stroke-width="2"/>
<path d="M239.823,-36C233.823,-36 227.823,-30 227.823,-24" fill="#a9b1ff" stroke="#a9b1ff" stroke-width="2"/>
<path d="M227.823,-12C227.823,-6 233.823,-0 239.823,-0" fill="#a9b1ff" stroke="#a9b1ff" stroke-width="2"/>
<path d="M269.823,-0C275.823,-0 281.823,-6 281.823,-12" fill="#a9b1ff" stroke="#a9b1ff" stroke-width="2"/>
<path d="M281.823,-24C281.823,-30 275.823,-36 269.823,-36" fill="#a9b1ff" stroke="#a9b1ff" stroke-width="2"/>
<polyline fill="none" points="269.823,-36 239.823,-36 " stroke="white" stroke-width="2"/>
<path d="M239.823,-36C233.823,-36 227.823,-30 227.823,-24" fill="none" stroke="white" stroke-width="2"/>
<polyline fill="none" points="227.823,-24 227.823,-12 " stroke="white" stroke-width="2"/>
<path d="M227.823,-12C227.823,-6 233.823,-0 239.823,-0" fill="none" stroke="white" stroke-width="2"/>
<polyline fill="none" points="239.823,-0 269.823,-0 " stroke="white" stroke-width="2"/>
<path d="M269.823,-0C275.823,-0 281.823,-6 281.823,-12" fill="none" stroke="white" stroke-width="2"/>
<polyline fill="none" points="281.823,-12 281.823,-24 " stroke="white" stroke-width="2"/>
<path d="M281.823,-24C281.823,-30 275.823,-36 269.823,-36" fill="none" stroke="white" stroke-width="2"/>
<text font-family="Helvetica,sans-Serif" font-size="10.00" text-anchor="middle" x="254.823" y="-15.5">GLIS2</text>
</a>
</g>
<!-- ESRRA_ESR2&#45;&gt;GLIS2 -->
<g class="edge" id="edge6">
<a class="remove7 root" ismara:data="0.02" onmousemove="ShowTooltip(evt, 'GLIS2: 0.020')" onmouseout="HideTooltip(evt)">
<path d="M206.721,-18C211.07,-18 215.462,-18 219.732,-18" fill="none" stroke="#ebc1ff" stroke-width="3"/>
<polygon fill="#ebc1ff" points="219.748,-20.8001 227.748,-18 219.748,-15.2001 219.748,-20.8001" stroke="#ebc1ff"/>
</a>
</g>
<!-- IKZF1 -->
<g class="node" id="node8">
<a class="remove25" onmousemove="ShowTooltip(evt, 'Z-value: 1.300')" onmouseout="HideTooltip(evt)" xlink:href="IKZF1.svg">
<polygon fill="#97a2ff" points="347.245,-80.7 317.245,-80.7 305.245,-68.7 305.245,-56.7 317.245,-44.7 347.245,-44.7 359.245,-56.7 359.245,-68.7 347.245,-80.7" stroke="#97a2ff" stroke-width="2"/>
<path d="M317.245,-80.7C311.245,-80.7 305.245,-74.7 305.245,-68.7" fill="#97a2ff" stroke="#97a2ff" stroke-width="2"/>
<path d="M305.245,-56.7C305.245,-50.7 311.245,-44.7 317.245,-44.7" fill="#97a2ff" stroke="#97a2ff" stroke-width="2"/>
<path d="M347.245,-44.7C353.245,-44.7 359.245,-50.7 359.245,-56.7" fill="#97a2ff" stroke="#97a2ff" stroke-width="2"/>
<path d="M359.245,-68.7C359.245,-74.7 353.245,-80.7 347.245,-80.7" fill="#97a2ff" stroke="#97a2ff" stroke-width="2"/>
<polyline fill="none" points="347.245,-80.7 317.245,-80.7 " stroke="white" stroke-width="2"/>
<path d="M317.245,-80.7C311.245,-80.7 305.245,-74.7 305.245,-68.7" fill="none" stroke="white" stroke-width="2"/>
<polyline fill="none" points="305.245,-68.7 305.245,-56.7 " stroke="white" stroke-width="2"/>
<path d="M305.245,-56.7C305.245,-50.7 311.245,-44.7 317.245,-44.7" fill="none" stroke="white" stroke-width="2"/>
<polyline fill="none" points="317.245,-44.7 347.245,-44.7 " stroke="white" stroke-width="2"/>
<path d="M347.245,-44.7C353.245,-44.7 359.245,-50.7 359.245,-56.7" fill="none" stroke="white" stroke-width="2"/>
<polyline fill="none" points="359.245,-56.7 359.245,-68.7 " stroke="white" stroke-width="2"/>
<path d="M359.245,-68.7C359.245,-74.7 353.245,-80.7 347.245,-80.7" fill="none" stroke="white" stroke-width="2"/>
<text font-family="Helvetica,sans-Serif" font-size="10.00" text-anchor="middle" x="332.245" y="-60.2">IKZF1</text>
</a>
</g>
<!-- ESRRA_ESR2&#45;&gt;IKZF1 -->
<g class="edge" id="edge8">
<a class="remove2 root" ismara:data="0.009" onmousemove="ShowTooltip(evt, 'IKZF1: 0.004|ESRRA: 0.009')" onmouseout="HideTooltip(evt)">
<path d="M214.701,-35.1574C217.757,-36.1317 220.81,-37.0642 223.779,-37.919 248.088,-44.9213 276.049,-51.0037 297.497,-55.2617" fill="none" stroke="#eecaff" stroke-width="3"/>
<path d="M214.093,-37.0629C217.173,-38.0445 220.226,-38.977 223.226,-39.8409 247.663,-46.8756 275.624,-52.958 297.107,-57.2234" fill="none" stroke="#edc7ff" stroke-width="3"/>
<polygon fill="#edc7ff" points="215.245,-33.4416 206.771,-33.6012 213.495,-38.7611 215.245,-33.4416" stroke="#edc7ff"/>
<polygon fill="#eecaff" points="296.801,-58.9975 305.19,-57.7849 297.876,-53.5016 296.801,-58.9975" stroke="#eecaff"/>
</a>
</g>
<!-- HMGA1 -->
<g class="node" id="node11">
<a class="remove22" onmousemove="ShowTooltip(evt, 'Z-value: 0.961')" onmouseout="HideTooltip(evt)" xlink:href="HMGA1.svg">
<polygon fill="#a5aeff" points="347.245,-324.945 317.245,-324.945 305.245,-312.945 305.245,-300.945 317.245,-288.945 347.245,-288.945 359.245,-300.945 359.245,-312.945 347.245,-324.945" stroke="#a5aeff" stroke-width="2"/>
<path d="M317.245,-324.945C311.245,-324.945 305.245,-318.945 305.245,-312.945" fill="#a5aeff" stroke="#a5aeff" stroke-width="2"/>
<path d="M305.245,-300.945C305.245,-294.945 311.245,-288.945 317.245,-288.945" fill="#a5aeff" stroke="#a5aeff" stroke-width="2"/>
<path d="M347.245,-288.945C353.245,-288.945 359.245,-294.945 359.245,-300.945" fill="#a5aeff" stroke="#a5aeff" stroke-width="2"/>
<path d="M359.245,-312.945C359.245,-318.945 353.245,-324.945 347.245,-324.945" fill="#a5aeff" stroke="#a5aeff" stroke-width="2"/>
<polyline fill="none" points="347.245,-324.945 317.245,-324.945 " stroke="white" stroke-width="2"/>
<path d="M317.245,-324.945C311.245,-324.945 305.245,-318.945 305.245,-312.945" fill="none" stroke="white" stroke-width="2"/>
<polyline fill="none" points="305.245,-312.945 305.245,-300.945 " stroke="white" stroke-width="2"/>
<path d="M305.245,-300.945C305.245,-294.945 311.245,-288.945 317.245,-288.945" fill="none" stroke="white" stroke-width="2"/>
<polyline fill="none" points="317.245,-288.945 347.245,-288.945 " stroke="white" stroke-width="2"/>
<path d="M347.245,-288.945C353.245,-288.945 359.245,-294.945 359.245,-300.945" fill="none" stroke="white" stroke-width="2"/>
<polyline fill="none" points="359.245,-300.945 359.245,-312.945 " stroke="white" stroke-width="2"/>
<path d="M359.245,-312.945C359.245,-318.945 353.245,-324.945 347.245,-324.945" fill="none" stroke="white" stroke-width="2"/>
<text font-family="Helvetica,sans-Serif" font-size="10.00" text-anchor="middle" x="332.245" y="-304.445">HMGA1</text>
</a>
</g>
<!-- MESP1&#45;&gt;HMGA1 -->
<g class="edge" id="edge24">
<a class="remove4 root" ismara:data="0.014" onmousemove="ShowTooltip(evt, 'HMGA1: 0.014')" onmouseout="HideTooltip(evt)">
<path d="M366.352,-247.871C360.507,-257.995 353.162,-270.717 346.787,-281.759" fill="none" stroke="#ecc4ff" stroke-width="3"/>
<polygon fill="#ecc4ff" points="344.338,-280.401 342.763,-288.729 349.188,-283.201 344.338,-280.401" stroke="#ecc4ff"/>
</a>
</g>
<!-- TBX5&#45;&gt;MESP1 -->
<g class="edge" id="edge28">
<a class="remove21 root" ismara:data="0.172" onmousemove="ShowTooltip(evt, 'MESP1: 0.172')" onmouseout="HideTooltip(evt)">
<path d="M237.297,-192.104C265.774,-199.734 310.62,-211.751 341.779,-220.1" fill="none" stroke="#ff7575" stroke-width="3"/>
<polygon fill="#ff7575" points="341.331,-222.878 349.783,-222.244 342.78,-217.469 341.331,-222.878" stroke="#ff7575"/>
</a>
</g>
<!-- TBX5&#45;&gt;HMGA1 -->
<g class="edge" id="edge30">
<a class="remove22 root" ismara:data="0.179" onmousemove="ShowTooltip(evt, 'HMGA1: 0.179')" onmouseout="HideTooltip(evt)">
<path d="M228.142,-202.842C249.428,-224.128 284.911,-259.611 308.443,-283.143" fill="none" stroke="#ff7171" stroke-width="3"/>
<polygon fill="#ff7171" points="306.515,-285.175 314.152,-288.852 310.475,-281.215 306.515,-285.175" stroke="#ff7171"/>
</a>
</g>
<!-- HOXA10_HOXB9 -->
<g class="node" id="node13">
<a class="remove26" onmousemove="ShowTooltip(evt, 'Z-value: 0.533')" onmouseout="HideTooltip(evt)" xlink:href="HOXA10_HOXB9.svg">
<polygon fill="#b6bdff" points="290.073,-369.645 219.573,-369.645 207.573,-357.645 207.573,-345.645 219.573,-333.645 290.073,-333.645 302.073,-345.645 302.073,-357.645 290.073,-369.645" stroke="#b6bdff" stroke-width="2"/>
<path d="M219.573,-369.645C213.573,-369.645 207.573,-363.645 207.573,-357.645" fill="#b6bdff" stroke="#b6bdff" stroke-width="2"/>
<path d="M207.573,-345.645C207.573,-339.645 213.573,-333.645 219.573,-333.645" fill="#b6bdff" stroke="#b6bdff" stroke-width="2"/>
<path d="M290.073,-333.645C296.073,-333.645 302.073,-339.645 302.073,-345.645" fill="#b6bdff" stroke="#b6bdff" stroke-width="2"/>
<path d="M302.073,-357.645C302.073,-363.645 296.073,-369.645 290.073,-369.645" fill="#b6bdff" stroke="#b6bdff" stroke-width="2"/>
<polyline fill="none" points="290.073,-369.645 219.573,-369.645 " stroke="white" stroke-width="2"/>
<path d="M219.573,-369.645C213.573,-369.645 207.573,-363.645 207.573,-357.645" fill="none" stroke="white" stroke-width="2"/>
<polyline fill="none" points="207.573,-357.645 207.573,-345.645 " stroke="white" stroke-width="2"/>
<path d="M207.573,-345.645C207.573,-339.645 213.573,-333.645 219.573,-333.645" fill="none" stroke="white" stroke-width="2"/>
<polyline fill="none" points="219.573,-333.645 290.073,-333.645 " stroke="white" stroke-width="2"/>
<path d="M290.073,-333.645C296.073,-333.645 302.073,-339.645 302.073,-345.645" fill="none" stroke="white" stroke-width="2"/>
<polyline fill="none" points="302.073,-345.645 302.073,-357.645 " stroke="white" stroke-width="2"/>
<path d="M302.073,-357.645C302.073,-363.645 296.073,-369.645 290.073,-369.645" fill="none" stroke="white" stroke-width="2"/>
<text font-family="Helvetica,sans-Serif" font-size="10.00" text-anchor="middle" x="254.823" y="-349.145">HOXA10_HOXB9</text>
</a>
</g>
<!-- TBX5&#45;&gt;HOXA10_HOXB9 -->
<g class="edge" id="edge32">
<a class="remove26 root" ismara:data="0.205" onmousemove="ShowTooltip(evt, 'HOXB9: 0.205')" onmouseout="HideTooltip(evt)">
<path d="M214.991,-202.993C222.918,-232.576 238.644,-291.267 247.786,-325.385" fill="none" stroke="#ff6565" stroke-width="3"/>
<polygon fill="#ff6565" points="245.185,-326.495 249.96,-333.497 250.594,-325.045 245.185,-326.495" stroke="#ff6565"/>
</a>
</g>
<!-- NKX2&#45;8 -->
<g class="node" id="node15">
<a class="remove29" onmousemove="ShowTooltip(evt, 'Z-value: 0.652')" onmouseout="HideTooltip(evt)" xlink:href="NKX2-8.svg">
<polygon fill="#b1b9ff" points="180.423,-369.645 150.423,-369.645 138.423,-357.645 138.423,-345.645 150.423,-333.645 180.423,-333.645 192.423,-345.645 192.423,-357.645 180.423,-369.645" stroke="#b1b9ff" stroke-width="2"/>
<path d="M150.423,-369.645C144.423,-369.645 138.423,-363.645 138.423,-357.645" fill="#b1b9ff" stroke="#b1b9ff" stroke-width="2"/>
<path d="M138.423,-345.645C138.423,-339.645 144.423,-333.645 150.423,-333.645" fill="#b1b9ff" stroke="#b1b9ff" stroke-width="2"/>
<path d="M180.423,-333.645C186.423,-333.645 192.423,-339.645 192.423,-345.645" fill="#b1b9ff" stroke="#b1b9ff" stroke-width="2"/>
<path d="M192.423,-357.645C192.423,-363.645 186.423,-369.645 180.423,-369.645" fill="#b1b9ff" stroke="#b1b9ff" stroke-width="2"/>
<polyline fill="none" points="180.423,-369.645 150.423,-369.645 " stroke="white" stroke-width="2"/>
<path d="M150.423,-369.645C144.423,-369.645 138.423,-363.645 138.423,-357.645" fill="none" stroke="white" stroke-width="2"/>
<polyline fill="none" points="138.423,-357.645 138.423,-345.645 " stroke="white" stroke-width="2"/>
<path d="M138.423,-345.645C138.423,-339.645 144.423,-333.645 150.423,-333.645" fill="none" stroke="white" stroke-width="2"/>
<polyline fill="none" points="150.423,-333.645 180.423,-333.645 " stroke="white" stroke-width="2"/>
<path d="M180.423,-333.645C186.423,-333.645 192.423,-339.645 192.423,-345.645" fill="none" stroke="white" stroke-width="2"/>
<polyline fill="none" points="192.423,-345.645 192.423,-357.645 " stroke="white" stroke-width="2"/>
<path d="M192.423,-357.645C192.423,-363.645 186.423,-369.645 180.423,-369.645" fill="none" stroke="white" stroke-width="2"/>
<text font-family="Helvetica,sans-Serif" font-size="10.00" text-anchor="middle" x="165.423" y="-349.145">NKX2-8</text>
</a>
</g>
<!-- TBX5&#45;&gt;NKX2&#45;8 -->
<g class="edge" id="edge34">
<a class="remove29 root" ismara:data="0.269" onmousemove="ShowTooltip(evt, 'NKX2-8: 0.269')" onmouseout="HideTooltip(evt)">
<path d="M205.254,-202.993C197.327,-232.576 181.601,-291.267 172.459,-325.385" fill="none" stroke="#ff4444" stroke-width="3"/>
<polygon fill="#ff4444" points="169.651,-325.045 170.285,-333.497 175.061,-326.495 169.651,-325.045" stroke="#ff4444"/>
</a>
</g>
<!-- CDX2 -->
<g class="node" id="node17">
<a class="remove28" onmousemove="ShowTooltip(evt, 'Z-value: 0.460')" onmouseout="HideTooltip(evt)" xlink:href="CDX2.svg">
<polygon fill="#b9c0ff" points="103,-324.945 73,-324.945 61,-312.945 61,-300.945 73,-288.945 103,-288.945 115,-300.945 115,-312.945 103,-324.945" stroke="#b9c0ff" stroke-width="2"/>
<path d="M73,-324.945C67,-324.945 61,-318.945 61,-312.945" fill="#b9c0ff" stroke="#b9c0ff" stroke-width="2"/>
<path d="M61,-300.945C61,-294.945 67,-288.945 73,-288.945" fill="#b9c0ff" stroke="#b9c0ff" stroke-width="2"/>
<path d="M103,-288.945C109,-288.945 115,-294.945 115,-300.945" fill="#b9c0ff" stroke="#b9c0ff" stroke-width="2"/>
<path d="M115,-312.945C115,-318.945 109,-324.945 103,-324.945" fill="#b9c0ff" stroke="#b9c0ff" stroke-width="2"/>
<polyline fill="none" points="103,-324.945 73,-324.945 " stroke="white" stroke-width="2"/>
<path d="M73,-324.945C67,-324.945 61,-318.945 61,-312.945" fill="none" stroke="white" stroke-width="2"/>
<polyline fill="none" points="61,-312.945 61,-300.945 " stroke="white" stroke-width="2"/>
<path d="M61,-300.945C61,-294.945 67,-288.945 73,-288.945" fill="none" stroke="white" stroke-width="2"/>
<polyline fill="none" points="73,-288.945 103,-288.945 " stroke="white" stroke-width="2"/>
<path d="M103,-288.945C109,-288.945 115,-294.945 115,-300.945" fill="none" stroke="white" stroke-width="2"/>
<polyline fill="none" points="115,-300.945 115,-312.945 " stroke="white" stroke-width="2"/>
<path d="M115,-312.945C115,-318.945 109,-324.945 103,-324.945" fill="none" stroke="white" stroke-width="2"/>
<text font-family="Helvetica,sans-Serif" font-size="10.00" text-anchor="middle" x="88" y="-304.445">CDX2</text>
</a>
</g>
<!-- TBX5&#45;&gt;CDX2 -->
<g class="edge" id="edge38">
<a class="remove28 root" ismara:data="0.264" onmousemove="ShowTooltip(evt, 'CDX2: 0.264')" onmouseout="HideTooltip(evt)">
<path d="M192.103,-202.842C170.818,-224.128 135.335,-259.611 111.803,-283.143" fill="none" stroke="#ff4747" stroke-width="3"/>
<polygon fill="#ff4747" points="109.771,-281.215 106.094,-288.852 113.73,-285.175 109.771,-281.215" stroke="#ff4747"/>
</a>
</g>
<!-- SOX11 -->
<g class="node" id="node27">
<a class="remove23" onmousemove="ShowTooltip(evt, 'Z-value: 0.385')" onmouseout="HideTooltip(evt)" xlink:href="SOX11.svg">
<polygon fill="#bcc3ff" points="58.3,-247.523 28.3,-247.523 16.3,-235.523 16.3,-223.523 28.3,-211.523 58.3,-211.523 70.3,-223.523 70.3,-235.523 58.3,-247.523" stroke="#bcc3ff" stroke-width="2"/>
<path d="M28.3,-247.523C22.3,-247.523 16.3,-241.523 16.3,-235.523" fill="#bcc3ff" stroke="#bcc3ff" stroke-width="2"/>
<path d="M16.3,-223.523C16.3,-217.523 22.3,-211.523 28.3,-211.523" fill="#bcc3ff" stroke="#bcc3ff" stroke-width="2"/>
<path d="M58.3,-211.523C64.3,-211.523 70.3,-217.523 70.3,-223.523" fill="#bcc3ff" stroke="#bcc3ff" stroke-width="2"/>
<path d="M70.3,-235.523C70.3,-241.523 64.3,-247.523 58.3,-247.523" fill="#bcc3ff" stroke="#bcc3ff" stroke-width="2"/>
<polyline fill="none" points="58.3,-247.523 28.3,-247.523 " stroke="white" stroke-width="2"/>
<path d="M28.3,-247.523C22.3,-247.523 16.3,-241.523 16.3,-235.523" fill="none" stroke="white" stroke-width="2"/>
<polyline fill="none" points="16.3,-235.523 16.3,-223.523 " stroke="white" stroke-width="2"/>
<path d="M16.3,-223.523C16.3,-217.523 22.3,-211.523 28.3,-211.523" fill="none" stroke="white" stroke-width="2"/>
<polyline fill="none" points="28.3,-211.523 58.3,-211.523 " stroke="white" stroke-width="2"/>
<path d="M58.3,-211.523C64.3,-211.523 70.3,-217.523 70.3,-223.523" fill="none" stroke="white" stroke-width="2"/>
<polyline fill="none" points="70.3,-223.523 70.3,-235.523 " stroke="white" stroke-width="2"/>
<path d="M70.3,-235.523C70.3,-241.523 64.3,-247.523 58.3,-247.523" fill="none" stroke="white" stroke-width="2"/>
<text font-family="Helvetica,sans-Serif" font-size="10.00" text-anchor="middle" x="43.3" y="-227.023">SOX11</text>
</a>
</g>
<!-- TBX5&#45;&gt;SOX11 -->
<g class="edge" id="edge36">
<a class="remove23 root" ismara:data="0.18" onmousemove="ShowTooltip(evt, 'SOX11: 0.180')" onmouseout="HideTooltip(evt)">
<path d="M182.948,-192.104C154.471,-199.734 109.625,-211.751 78.4665,-220.1" fill="none" stroke="#ff7171" stroke-width="3"/>
<polygon fill="#ff7171" points="77.4653,-217.469 70.4626,-222.244 78.9147,-222.878 77.4653,-217.469" stroke="#ff7171"/>
</a>
</g>
<!-- SOX6 -->
<g class="node" id="node30">
<a class="remove18" onmousemove="ShowTooltip(evt, 'Z-value: 0.520')" onmouseout="HideTooltip(evt)" xlink:href="SOX6.svg">
<polygon fill="#b7beff" points="58.3,-158.123 28.3,-158.123 16.3,-146.123 16.3,-134.123 28.3,-122.123 58.3,-122.123 70.3,-134.123 70.3,-146.123 58.3,-158.123" stroke="#b7beff" stroke-width="2"/>
<path d="M28.3,-158.123C22.3,-158.123 16.3,-152.123 16.3,-146.123" fill="#b7beff" stroke="#b7beff" stroke-width="2"/>
<path d="M16.3,-134.123C16.3,-128.123 22.3,-122.123 28.3,-122.123" fill="#b7beff" stroke="#b7beff" stroke-width="2"/>
<path d="M58.3,-122.123C64.3,-122.123 70.3,-128.123 70.3,-134.123" fill="#b7beff" stroke="#b7beff" stroke-width="2"/>
<path d="M70.3,-146.123C70.3,-152.123 64.3,-158.123 58.3,-158.123" fill="#b7beff" stroke="#b7beff" stroke-width="2"/>
<polyline fill="none" points="58.3,-158.123 28.3,-158.123 " stroke="white" stroke-width="2"/>
<path d="M28.3,-158.123C22.3,-158.123 16.3,-152.123 16.3,-146.123" fill="none" stroke="white" stroke-width="2"/>
<polyline fill="none" points="16.3,-146.123 16.3,-134.123 " stroke="white" stroke-width="2"/>
<path d="M16.3,-134.123C16.3,-128.123 22.3,-122.123 28.3,-122.123" fill="none" stroke="white" stroke-width="2"/>
<polyline fill="none" points="28.3,-122.123 58.3,-122.123 " stroke="white" stroke-width="2"/>
<path d="M58.3,-122.123C64.3,-122.123 70.3,-128.123 70.3,-134.123" fill="none" stroke="white" stroke-width="2"/>
<polyline fill="none" points="70.3,-134.123 70.3,-146.123 " stroke="white" stroke-width="2"/>
<path d="M70.3,-146.123C70.3,-152.123 64.3,-158.123 58.3,-158.123" fill="none" stroke="white" stroke-width="2"/>
<text font-family="Helvetica,sans-Serif" font-size="10.00" text-anchor="middle" x="43.3" y="-137.623">SOX6</text>
</a>
</g>
<!-- TBX5&#45;&gt;SOX6 -->
<g class="edge" id="edge40">
<a class="remove18 root" ismara:data="0.151" onmousemove="ShowTooltip(evt, 'SOX6: 0.151')" onmouseout="HideTooltip(evt)">
<path d="M182.948,-177.541C154.471,-169.911 109.625,-157.894 78.4665,-149.545" fill="none" stroke="#ff7f7f" stroke-width="3"/>
<polygon fill="#ff7f7f" points="78.9147,-146.767 70.4626,-147.401 77.4653,-152.176 78.9147,-146.767" stroke="#ff7f7f"/>
</a>
</g>
<!-- NOTO_VSX2_DLX2_DLX6_NKX6&#45;1 -->
<g class="node" id="node32">
<a class="remove20" onmousemove="ShowTooltip(evt, 'Z-value: 0.431')" onmouseout="HideTooltip(evt)" xlink:href="NOTO_VSX2_DLX2_DLX6_NKX6-1.svg">
<polygon fill="#bac1ff" points="163.5,-80.7 12.5,-80.7 0.5,-68.7 0.5,-56.7 12.5,-44.7 163.5,-44.7 175.5,-56.7 175.5,-68.7 163.5,-80.7" stroke="#bac1ff" stroke-width="2"/>
<path d="M12.5,-80.7C6.5,-80.7 0.5,-74.7 0.5,-68.7" fill="#bac1ff" stroke="#bac1ff" stroke-width="2"/>
<path d="M0.5,-56.7C0.5,-50.7 6.5,-44.7 12.5,-44.7" fill="#bac1ff" stroke="#bac1ff" stroke-width="2"/>
<path d="M163.5,-44.7C169.5,-44.7 175.5,-50.7 175.5,-56.7" fill="#bac1ff" stroke="#bac1ff" stroke-width="2"/>
<path d="M175.5,-68.7C175.5,-74.7 169.5,-80.7 163.5,-80.7" fill="#bac1ff" stroke="#bac1ff" stroke-width="2"/>
<polyline fill="none" points="163.5,-80.7 12.5,-80.7 " stroke="white" stroke-width="2"/>
<path d="M12.5,-80.7C6.5,-80.7 0.5,-74.7 0.5,-68.7" fill="none" stroke="white" stroke-width="2"/>
<polyline fill="none" points="0.5,-68.7 0.5,-56.7 " stroke="white" stroke-width="2"/>
<path d="M0.5,-56.7C0.5,-50.7 6.5,-44.7 12.5,-44.7" fill="none" stroke="white" stroke-width="2"/>
<polyline fill="none" points="12.5,-44.7 163.5,-44.7 " stroke="white" stroke-width="2"/>
<path d="M163.5,-44.7C169.5,-44.7 175.5,-50.7 175.5,-56.7" fill="none" stroke="white" stroke-width="2"/>
<polyline fill="none" points="175.5,-56.7 175.5,-68.7 " stroke="white" stroke-width="2"/>
<path d="M175.5,-68.7C175.5,-74.7 169.5,-80.7 163.5,-80.7" fill="none" stroke="white" stroke-width="2"/>
<text font-family="Helvetica,sans-Serif" font-size="10.00" text-anchor="middle" x="88" y="-60.2">NOTO_VSX2_DLX2_DLX6_NKX6-1</text>
</a>
</g>
<!-- TBX5&#45;&gt;NOTO_VSX2_DLX2_DLX6_NKX6&#45;1 -->
<g class="edge" id="edge42">
<a class="remove20 root" ismara:data="0.157" onmousemove="ShowTooltip(evt, 'DLX6: 0.157')" onmouseout="HideTooltip(evt)">
<path d="M192.103,-166.803C170.818,-145.518 135.335,-110.035 111.803,-86.5028" fill="none" stroke="#ff7c7c" stroke-width="3"/>
<polygon fill="#ff7c7c" points="113.73,-84.4705 106.094,-80.7936 109.771,-88.4303 113.73,-84.4705" stroke="#ff7c7c"/>
</a>
</g>
<!-- GLIS2&#45;&gt;TBX5 -->
<g class="edge" id="edge26">
<a class="remove24 root" ismara:data="0.183" onmousemove="ShowTooltip(evt, 'TBX5: 0.183')" onmouseout="HideTooltip(evt)">
<path d="M249.954,-36.1705C242.027,-65.7533 226.301,-124.444 217.159,-158.562" fill="none" stroke="#6f7eff" stroke-width="3"/>
<polygon fill="#6f7eff" points="214.351,-158.222 214.985,-166.675 219.761,-159.672 214.351,-158.222" stroke="#6f7eff"/>
</a>
</g>
<!-- IKZF1&#45;&gt;MESP1 -->
<g class="edge" id="edge10">
<a class="remove14 root" ismara:data="0.063" onmousemove="ShowTooltip(evt, 'MESP1: 0.063')" onmouseout="HideTooltip(evt)">
<path d="M332.775,-80.8048C333.752,-100.795 336.537,-133.756 344.465,-161.003 348.76,-175.762 355.894,-191.313 362.384,-203.862" fill="none" stroke="#e4acff" stroke-width="3"/>
<polygon fill="#e4acff" points="360.085,-205.502 366.311,-211.254 365.03,-202.875 360.085,-205.502" stroke="#e4acff"/>
</a>
</g>
<!-- IKZF1&#45;&gt;TBX5 -->
<g class="edge" id="edge20">
<a class="remove25 root" ismara:data="0.195" onmousemove="ShowTooltip(evt, 'TBX5: 0.195')" onmouseout="HideTooltip(evt)">
<path d="M314.226,-80.7196C292.94,-102.005 257.457,-137.488 233.925,-161.02" fill="none" stroke="#6978ff" stroke-width="3"/>
<polygon fill="#6978ff" points="231.893,-159.092 228.216,-166.729 235.853,-163.052 231.893,-159.092" stroke="#6978ff"/>
</a>
</g>
<!-- IKZF1&#45;&gt;GLIS2 -->
<g class="edge" id="edge22">
<a class="remove5 root" ismara:data="0.014" onmousemove="ShowTooltip(evt, 'GLIS2: 0.014')" onmouseout="HideTooltip(evt)">
<path d="M305.167,-47.0661C300.01,-44.089 294.55,-40.9367 289.202,-37.8488" fill="none" stroke="#ecc4ff" stroke-width="3"/>
<polygon fill="#ecc4ff" points="290.345,-35.2758 282.017,-33.7006 287.545,-40.1255 290.345,-35.2758" stroke="#ecc4ff"/>
</a>
</g>
<!-- IKZF1&#45;&gt;HMGA1 -->
<g class="edge" id="edge12">
<a class="remove11 root" ismara:data="0.043" onmousemove="ShowTooltip(evt, 'HMGA1: 0.043')" onmouseout="HideTooltip(evt)">
<path d="M332.245,-81.0581C332.245,-123.952 332.245,-230.874 332.245,-280.663" fill="none" stroke="#e7b6ff" stroke-width="3"/>
<polygon fill="#e7b6ff" points="329.445,-280.707 332.245,-288.707 335.045,-280.707 329.445,-280.707" stroke="#e7b6ff"/>
</a>
</g>
<!-- IKZF1&#45;&gt;HOXA10_HOXB9 -->
<g class="edge" id="edge14">
<a class="remove13 root" ismara:data="0.06" onmousemove="ShowTooltip(evt, 'HOXA10: 0.060|HOXB9: 0.002')" onmouseout="HideTooltip(evt)">
<path d="M327.402,-80.7748C314.15,-130.233 277.252,-267.937 261.785,-325.661" fill="none" stroke="#e5adff" stroke-width="3"/>
<polygon fill="#e5adff" points="259.03,-325.125 259.664,-333.577 264.439,-326.575 259.03,-325.125" stroke="#e5adff"/>
</a>
</g>
<!-- IKZF1&#45;&gt;NKX2&#45;8 -->
<g class="edge" id="edge16">
<a class="remove9 root" ismara:data="0.029" onmousemove="ShowTooltip(evt, 'NKX2-8: 0.029')" onmouseout="HideTooltip(evt)">
<path d="M321.81,-80.7748C293.138,-130.436 213.099,-269.067 180.017,-326.367" fill="none" stroke="#eabdff" stroke-width="3"/>
<polygon fill="#eabdff" points="177.429,-325.249 175.854,-333.577 182.279,-328.049 177.429,-325.249" stroke="#eabdff"/>
</a>
</g>
<!-- IKZF1&#45;&gt;CDX2 -->
<g class="edge" id="edge18">
<a class="remove25" ismara:data="0.304" onmousemove="ShowTooltip(evt, 'CDX2: 0.304')" onmouseout="HideTooltip(evt)">
<path d="M323.738,-81.1132C309.685,-110.117 279.37,-167.106 241.443,-205.703 205.985,-241.787 155.608,-272.001 122.382,-289.78" fill="none" stroke="#bd32ff" stroke-width="3"/>
<polygon fill="#bd32ff" points="120.919,-287.386 115.152,-293.598 123.534,-292.338 120.919,-287.386" stroke="#bd32ff"/>
</a>
</g>
<!-- HMGA1&#45;&gt;HMGA1 -->
<g class="edge" id="edge44">
<a class="remove1 root" ismara:data="0.005" onmousemove="ShowTooltip(evt, 'HMGA1: 0.005')" onmouseout="HideTooltip(evt)">
<path d="M359.486,-313.689C369.269,-313.834 377.245,-311.586 377.245,-306.945 377.245,-303.682 373.302,-301.602 367.56,-300.705" fill="none" stroke="#edc9ff" stroke-width="3"/>
<polygon fill="#edc9ff" points="367.645,-297.905 359.486,-300.202 367.296,-303.495 367.645,-297.905" stroke="#edc9ff"/>
</a>
</g>
<!-- HMGA1&#45;&gt;SOX6 -->
<g class="edge" id="edge46">
<a class="remove17 root" ismara:data="0.145" onmousemove="ShowTooltip(evt, 'SOX6: 0.145')" onmouseout="HideTooltip(evt)">
<path d="M305.062,-291.251C252.25,-260.76 135.878,-193.573 77.7507,-160.013" fill="none" stroke="#d783ff" stroke-width="3"/>
<polygon fill="#d783ff" points="78.9498,-157.472 70.6215,-155.897 76.1497,-162.322 78.9498,-157.472" stroke="#d783ff"/>
</a>
</g>
<!-- NKX2&#45;8&#45;&gt;HOXA10_HOXB9 -->
<g class="edge" id="edge48">
<a class="remove16 root" ismara:data="0.139" onmousemove="ShowTooltip(evt, 'HOXB9: 0.139')" onmouseout="HideTooltip(evt)">
<path d="M192.731,-351.645C194.946,-351.645 197.228,-351.645 199.55,-351.645" fill="none" stroke="#d885ff" stroke-width="3"/>
<polygon fill="#d885ff" points="199.562,-354.445 207.562,-351.645 199.562,-348.845 199.562,-354.445" stroke="#d885ff"/>
</a>
</g>
<!-- WRNIP1 -->
<g class="node" id="node37">
<a class="remove27" onmousemove="ShowTooltip(evt, 'Z-value: 1.103')" onmouseout="HideTooltip(evt)" xlink:href="WRNIP1.svg">
<polygon fill="#9fa9ff" points="392.445,-158.123 361.445,-158.123 349.445,-146.123 349.445,-134.123 361.445,-122.123 392.445,-122.123 404.445,-134.123 404.445,-146.123 392.445,-158.123" stroke="#9fa9ff" stroke-width="2"/>
<path d="M361.445,-158.123C355.445,-158.123 349.445,-152.123 349.445,-146.123" fill="#9fa9ff" stroke="#9fa9ff" stroke-width="2"/>
<path d="M349.445,-134.123C349.445,-128.123 355.445,-122.123 361.445,-122.123" fill="#9fa9ff" stroke="#9fa9ff" stroke-width="2"/>
<path d="M392.445,-122.123C398.445,-122.123 404.445,-128.123 404.445,-134.123" fill="#9fa9ff" stroke="#9fa9ff" stroke-width="2"/>
<path d="M404.445,-146.123C404.445,-152.123 398.445,-158.123 392.445,-158.123" fill="#9fa9ff" stroke="#9fa9ff" stroke-width="2"/>
<polyline fill="none" points="392.445,-158.123 361.445,-158.123 " stroke="white" stroke-width="2"/>
<path d="M361.445,-158.123C355.445,-158.123 349.445,-152.123 349.445,-146.123" fill="none" stroke="white" stroke-width="2"/>
<polyline fill="none" points="349.445,-146.123 349.445,-134.123 " stroke="white" stroke-width="2"/>
<path d="M349.445,-134.123C349.445,-128.123 355.445,-122.123 361.445,-122.123" fill="none" stroke="white" stroke-width="2"/>
<polyline fill="none" points="361.445,-122.123 392.445,-122.123 " stroke="white" stroke-width="2"/>
<path d="M392.445,-122.123C398.445,-122.123 404.445,-128.123 404.445,-134.123" fill="none" stroke="white" stroke-width="2"/>
<polyline fill="none" points="404.445,-134.123 404.445,-146.123 " stroke="white" stroke-width="2"/>
<path d="M404.445,-146.123C404.445,-152.123 398.445,-158.123 392.445,-158.123" fill="none" stroke="white" stroke-width="2"/>
<text font-family="Helvetica,sans-Serif" font-size="10.00" text-anchor="middle" x="376.945" y="-137.623">WRNIP1</text>
</a>
</g>
<!-- WRNIP1&#45;&gt;ESRRA_ESR2 -->
<g class="edge" id="edge62">
<a class="remove8 root" ismara:data="0.023" onmousemove="ShowTooltip(evt, 'ESRRA: 0.023')" onmouseout="HideTooltip(evt)">
<path d="M348.857,-123.906C311.569,-102.377 245.572,-64.2743 203.737,-40.1206" fill="none" stroke="#ebc0ff" stroke-width="3"/>
<polygon fill="#ebc0ff" points="205.057,-37.6497 196.729,-36.0745 202.257,-42.4995 205.057,-37.6497" stroke="#ebc0ff"/>
</a>
</g>
<!-- WRNIP1&#45;&gt;MESP1 -->
<g class="edge" id="edge50">
<a class="remove15 root" ismara:data="0.126" onmousemove="ShowTooltip(evt, 'MESP1: 0.126')" onmouseout="HideTooltip(evt)">
<path d="M376.945,-158.214C376.945,-171.18 376.945,-188.842 376.945,-203.344" fill="none" stroke="#da8cff" stroke-width="3"/>
<polygon fill="#da8cff" points="374.145,-203.458 376.945,-211.458 379.745,-203.458 374.145,-203.458" stroke="#da8cff"/>
</a>
</g>
<!-- WRNIP1&#45;&gt;TBX5 -->
<g class="edge" id="edge58">
<a class="remove27 root" ismara:data="0.233" onmousemove="ShowTooltip(evt, 'TBX5: 0.233')" onmouseout="HideTooltip(evt)">
<path d="M349.398,-147.504C320.854,-155.152 276.157,-167.129 245.127,-175.443" fill="none" stroke="#5667ff" stroke-width="3"/>
<polygon fill="#5667ff" points="244.16,-172.804 237.157,-177.579 245.61,-178.213 244.16,-172.804" stroke="#5667ff"/>
</a>
</g>
<!-- WRNIP1&#45;&gt;GLIS2 -->
<g class="edge" id="edge60">
<a class="remove3 root" ismara:data="0.009" onmousemove="ShowTooltip(evt, 'GLIS2: 0.009')" onmouseout="HideTooltip(evt)">
<path d="M349.229,-122.677C334.024,-112.359 315.383,-98.4296 300.925,-83.58 289.048,-71.38 277.993,-55.8629 269.688,-42.9855" fill="none" stroke="#edc7ff" stroke-width="3"/>
<polygon fill="#edc7ff" points="272.006,-41.4124 265.369,-36.1409 267.27,-44.4008 272.006,-41.4124" stroke="#edc7ff"/>
</a>
</g>
<!-- WRNIP1&#45;&gt;HOXA10_HOXB9 -->
<g class="edge" id="edge52">
<a class="remove12 root" ismara:data="0.06" onmousemove="ShowTooltip(evt, 'HOXA10: 0.060')" onmouseout="HideTooltip(evt)">
<path d="M366.533,-158.157C344.777,-195.84 294.451,-283.008 269.455,-326.301" fill="none" stroke="#e5aeff" stroke-width="3"/>
<polygon fill="#e5aeff" points="266.957,-325.028 265.382,-333.356 271.807,-327.828 266.957,-325.028" stroke="#e5aeff"/>
</a>
</g>
<!-- WRNIP1&#45;&gt;NKX2&#45;8 -->
<g class="edge" id="edge54">
<a class="remove10 root" ismara:data="0.037" onmousemove="ShowTooltip(evt, 'NKX2-8: 0.037')" onmouseout="HideTooltip(evt)">
<path d="M358.911,-158.157C320.839,-196.229 232.254,-284.814 189.439,-327.629" fill="none" stroke="#e8b9ff" stroke-width="3"/>
<polygon fill="#e8b9ff" points="187.389,-325.719 183.712,-333.356 191.349,-329.679 187.389,-325.719" stroke="#e8b9ff"/>
</a>
</g>
<!-- WRNIP1&#45;&gt;NOTO_VSX2_DLX2_DLX6_NKX6&#45;1 -->
<g class="edge" id="edge64">
<a class="remove19 root" ismara:data="0.155" onmousemove="ShowTooltip(evt, 'NKX6-1: 0.155')" onmouseout="HideTooltip(evt)">
<path d="M349.24,-132.699C306.861,-121.343 224.442,-99.2596 163.463,-82.9202" fill="none" stroke="#d57dff" stroke-width="3"/>
<polygon fill="#d57dff" points="163.837,-80.1216 155.384,-80.7556 162.387,-85.5308 163.837,-80.1216" stroke="#d57dff"/>
</a>
</g>
<!-- WRNIP1&#45;&gt;WRNIP1 -->
<g class="edge" id="edge56">
<a class="remove0 root" ismara:data="0.003" onmousemove="ShowTooltip(evt, 'WRNIP1: 0.003')" onmouseout="HideTooltip(evt)">
<path d="M404.63,-146.871C414.209,-146.942 421.945,-144.693 421.945,-140.123 421.945,-136.981 418.289,-134.935 412.891,-133.987" fill="none" stroke="#eecaff" stroke-width="3"/>
<polygon fill="#eecaff" points="412.815,-131.174 404.63,-133.374 412.4,-136.759 412.815,-131.174" stroke="#eecaff"/>
</a>
</g>
</g>
<rect height="14" id="tooltip_bg" style="fill: white; stroke: black; opacity: 0.8;" visibility="hidden"/><text id="tooltip" style="font-size: 10px;font-weight: bold;" visibility="hidden"></text><g id="plus" onclick="showSome();moveSlider();setThreshold();"><circle cx="22" cy="22" r="10" style="fill: #dddddd; opacity: 100%;"/><line stroke="#888888" stroke-width="2" x1="16" x2="28" y1="22" y2="22"/><line stroke="#888888" stroke-width="2" x1="22" x2="22" y1="16" y2="28"/></g><g id="minus" onclick="hideSome();moveSlider();setThreshold();"><circle cx="22" cy="356" r="10" style="fill: #dddddd; opacity: 100%;"/><line stroke="#888888" stroke-width="2" x1="16" x2="28" y1="356" y2="356"/></g><line id="slider_scale" onmousedown="jump_slider(evt)" stroke="#888888" stroke-width="5" x1="22" x2="22" y1="40" y2="338"/><circle cx="22" cy="50" id="slider" onmousedown="grab(evt)" onmouseout="release(evt)" onmouseup="release(evt)" r="15" style="fill:#922"/><script type="text/ecmascript"><![CDATA[
    var svgNS = "http://www.w3.org/2000/svg";
    var edge_num = 31;
    var counter = 0;
    var tooltip, tooltip_bg;

    function init(evt) {
        if ( window.svgDocument == null ) {
            svgDocument = evt.target.ownerDocument;
        }
        tooltip = svgDocument.getElementById('tooltip');
        tooltip_bg = svgDocument.getElementById('tooltip_bg');
        setThreshold();
    }

    function ShowTooltip(evt, txt) {
        var length = 0;
        var height;
        var tooltip_x = evt.pageX + 18;
        var tooltip_y = evt.pageY + 22;
        var bg_x = evt.pageX + 10;
        var bg_y = evt.pageY + 10;

        /* Clean toolip content */
        while (tooltip.lastChild) {
            tooltip.removeChild(tooltip.lastChild)
        }

        /* Populate tooltip with tspan elements and get longest of them */
        var text_elements = txt.split('|');
        for (var i = 0; i  < text_elements.length; i++) {
            var shift_y = 12;
            if (i == 0) {
                shift_y = 0;
            }
            var tspan_element = document.createElementNS(svgNS, "tspan");
            tspan_element.setAttributeNS(null, "dy", shift_y);
            tspan_element.setAttributeNS(null, "x", tooltip_x);
            var text_node = svgDocument.createTextNode(text_elements[i]);
            tspan_element.appendChild(text_node);
            tooltip.appendChild(tspan_element);
            var tspan_length = tspan_element.getComputedTextLength();
            if (tspan_length > length) {
                length = tspan_length
            }
        }
        /* add right margin to tooltip */
        length = length + 15;
        height = 12 * text_elements.length + 5;
        tooltip_bg.setAttributeNS(null,"width",length);
        tooltip_bg.setAttributeNS(null,"height",height);
        tooltip_bg.setAttributeNS(null,"x", bg_x);
        tooltip_bg.setAttributeNS(null,"y", bg_y);
        tooltip_bg.setAttributeNS(null,"visibility","visible");
        tooltip.setAttributeNS(null,"x", tooltip_x);
        tooltip.setAttributeNS(null,"y", tooltip_y);
        tooltip.setAttributeNS(null,"visibility","visible");
    }
    function HideTooltip() {
      tooltip.setAttributeNS(null,"visibility","hidden");
      tooltip_bg.setAttributeNS(null,"visibility","hidden");
    }

    /*** Hide/Show edges functions ***/

    function hideSome() {
      if (counter >= edge_num -1) {
        return 1;
      }
      var elements = svgDocument.getElementsByClassName('remove' + counter);
      for (var i = 0; i < elements.length; i++) {
        elements[i].setAttributeNS(null,"visibility","hidden");
      }
      counter = counter + 1;
    }

    function showSome() {
      if (counter <= 0) {
        return 1;
      }
      counter = counter - 1;
      var elements = svgDocument.getElementsByClassName('remove' + counter);
      for (var i = 0; i < elements.length; i++) {
        elements[i].setAttributeNS(null,"visibility","visible");
      }
    }

    function setThreshold() {
        var elements = svgDocument.getElementsByClassName('remove' + counter);
        var score = 0;
        for (var i = 0; i < elements.length; i++) {
            if (elements[i].classList.contains("root")){
                if (elements[i].hasAttributeNS("ismara.unibas.ch", "data")) {
                    score = elements[i].getAttributeNS("ismara.unibas.ch", "data");
                }
            } 
        }
        svgDocument.getElementById("score_indicator").textContent = "Score threshold: " + score;
    }

    /*** Slider functions ***/

    var slider_maxY = parseInt(document.getElementById("slider_scale").getAttributeNS(null, "y2"));
    var slider_minY = parseInt(document.getElementById("slider_scale").getAttributeNS(null, "y1"));
    var slider_r = parseInt(document.getElementById("slider").getAttributeNS(null, "r"));
    var coef = (edge_num - 1) / (slider_maxY - slider_minY - 2 * slider_r);

    function grab(evt){
        var element = evt.target;
        var Attr = {"onmousemove":"slide(evt,'"+element.id+"')"};
        assignAttr(element, Attr);
    }

    function release(evt){
        var element = evt.target;
        var Attr = {"onmousemove":null};
        assignAttr(element, Attr);
    }

    function assignAttr(obj,attr){
        for (i in attr) obj.setAttributeNS(null,i, attr[i]);
    }

    function slide(evt,id){
        var slider = evt.target;
        var y = evt.pageY;
        var new_counter = Math.floor((evt.pageY - slider_minY - slider_r) * coef);
        if (evt.pageY > (slider_maxY - slider_r)) {
            slider.setAttributeNS(null, "cy", (slider_maxY - slider_r));
            new_counter = edge_num;
        } else if(evt.pageY < (slider_minY + slider_r)) {
            slider.setAttributeNS(null, "cy", (slider_minY + slider_r));
            new_counter = 1;
        } else {
            slider.setAttributeNS(null, "cy", evt.pageY);
        }

        if (new_counter < counter) {
                showSome();
            counter = new_counter;
        }
        if (new_counter > counter) {
                hideSome();
            counter = new_counter;
        }
        setThreshold();
    }

    function moveSlider() {
        circle = document.getElementById("slider");
        circle.setAttributeNS(null, "cy",  slider_minY +  slider_r + (counter) / coef);
    }

    function jump_slider(evt) {
        var slider = document.getElementById("slider");
        var new_counter = Math.floor((evt.pageY - slider_minY - slider_r) * coef);
        if (evt.pageY > (slider_maxY - slider_r)) {
            slider.setAttributeNS(null, "cy", (slider_maxY - slider_r));
            new_counter = edge_num;
        } else if(evt.pageY < (slider_minY + slider_r)) {
             slider.setAttributeNS(null, "cy", (slider_minY + slider_r));
            new_counter = 1;
        } else {
            slider.setAttributeNS(null, "cy", evt.pageY);
        }

        if (new_counter > counter) {
            var d = new_counter - counter;
            for (var i = 0; i < d; i++){
                hideSome();
            }
            counter = new_counter;
        }
        if (new_counter < counter) {
            var d = counter - new_counter;
            for (var i = 0; i < d; i++){
                showSome();
            }
            counter = new_counter;
        }
        setThreshold();
    }
    ]]></script><text id="score_indicator" style="font-size: 10px;font-weight: bold;" x="10" y="388">Score threshold: 0</text><text id="info" style="font-size: 10px;font-weight: bold;" x="10" y="403">Use slider or -/+ buttons to hide/show edges.</text></svg>