<?xml version="1.0" encoding="UTF-8" standalone="no"?>
<!DOCTYPE svg PUBLIC "-//W3C//DTD SVG 1.1//EN"
 "http://www.w3.org/Graphics/SVG/1.1/DTD/svg11.dtd">
<!-- Generated by graphviz version 2.28.0 (20110630.0925)
 -->
<!-- Title: _anonymous_0 Pages: 1 -->
<svg width="490pt" height="419pt"
 viewBox="0.00 0.00 490.01 418.82" xmlns="http://www.w3.org/2000/svg" xmlns:xlink="http://www.w3.org/1999/xlink">
<g id="graph1" class="graph" transform="scale(1 1) rotate(0) translate(4 414.824)">
<title>_anonymous_0</title>
<polygon fill="white" stroke="white" points="-4,5 -4,-414.824 487.008,-414.824 487.008,5 -4,5"/>
<!-- ID4_TCF4_SNAI2 -->
<g id="node1" class="node"><title>ID4_TCF4_SNAI2</title>
<a xlink:href="ID4_TCF4_SNAI2.svg" xlink:title="Z&#45;value: 1.966||remove26">
<polygon fill="#3247ff" stroke="#3247ff" stroke-width="2" points="304.535,-36 232.035,-36 220.035,-24 220.035,-12 232.035,3.19744e-14 304.535,3.19744e-14 316.535,-12 316.535,-24 304.535,-36"/>
<path fill="#3247ff" stroke="#3247ff" stroke-width="2" d="M232.035,-36C226.035,-36 220.035,-30 220.035,-24"/>
<path fill="#3247ff" stroke="#3247ff" stroke-width="2" d="M220.035,-12C220.035,-6 226.035,3.19744e-14 232.035,3.19744e-14"/>
<path fill="#3247ff" stroke="#3247ff" stroke-width="2" d="M304.535,3.19744e-14C310.535,3.19744e-14 316.535,-6 316.535,-12"/>
<path fill="#3247ff" stroke="#3247ff" stroke-width="2" d="M316.535,-24C316.535,-30 310.535,-36 304.535,-36"/>
<polyline fill="none" stroke="white" stroke-width="2" points="304.535,-36 232.035,-36 "/>
<path fill="none" stroke="white" stroke-width="2" d="M232.035,-36C226.035,-36 220.035,-30 220.035,-24"/>
<polyline fill="none" stroke="white" stroke-width="2" points="220.035,-24 220.035,-12 "/>
<path fill="none" stroke="white" stroke-width="2" d="M220.035,-12C220.035,-6 226.035,3.19744e-14 232.035,3.19744e-14"/>
<polyline fill="none" stroke="white" stroke-width="2" points="232.035,3.19744e-14 304.535,3.19744e-14 "/>
<path fill="none" stroke="white" stroke-width="2" d="M304.535,3.19744e-14C310.535,3.19744e-14 316.535,-6 316.535,-12"/>
<polyline fill="none" stroke="white" stroke-width="2" points="316.535,-12 316.535,-24 "/>
<path fill="none" stroke="white" stroke-width="2" d="M316.535,-24C316.535,-30 310.535,-36 304.535,-36"/>
<text text-anchor="middle" x="268.285" y="-15.5" font-family="Helvetica,sans-Serif" font-size="10.00" fill="white">ID4_TCF4_SNAI2</text>
</a>
</g>
<!-- ID4_TCF4_SNAI2&#45;&gt;ID4_TCF4_SNAI2 -->
<g id="edge10" class="edge"><title>ID4_TCF4_SNAI2&#45;&gt;ID4_TCF4_SNAI2</title>
<a xlink:title="SNAI2: 0.300||TCF4: 0.041||remove22root">
<path fill="none" stroke="#e6b2ff" stroke-width="3" d="M316.999,-24.5321C327.327,-23.8688 334.785,-21.6914 334.785,-18 334.785,-15.4045 331.098,-13.5575 325.318,-12.459"/>
<polygon fill="#e6b2ff" stroke="#e6b2ff" points="325.274,-9.63402 316.999,-11.4679 324.611,-15.1947 325.274,-9.63402"/>
</a>
</g>
<!-- RCOR1_MTA3 -->
<g id="node2" class="node"><title>RCOR1_MTA3</title>
<a xlink:href="RCOR1_MTA3.svg" xlink:title="Z&#45;value: 1.731||remove34">
<polygon fill="#4557ff" stroke="#4557ff" stroke-width="2" points="452.258,-276.755 393.758,-276.755 381.758,-264.755 381.758,-252.755 393.758,-240.755 452.258,-240.755 464.258,-252.755 464.258,-264.755 452.258,-276.755"/>
<path fill="#4557ff" stroke="#4557ff" stroke-width="2" d="M393.758,-276.755C387.758,-276.755 381.758,-270.755 381.758,-264.755"/>
<path fill="#4557ff" stroke="#4557ff" stroke-width="2" d="M381.758,-252.755C381.758,-246.755 387.758,-240.755 393.758,-240.755"/>
<path fill="#4557ff" stroke="#4557ff" stroke-width="2" d="M452.258,-240.755C458.258,-240.755 464.258,-246.755 464.258,-252.755"/>
<path fill="#4557ff" stroke="#4557ff" stroke-width="2" d="M464.258,-264.755C464.258,-270.755 458.258,-276.755 452.258,-276.755"/>
<polyline fill="none" stroke="white" stroke-width="2" points="452.258,-276.755 393.758,-276.755 "/>
<path fill="none" stroke="white" stroke-width="2" d="M393.758,-276.755C387.758,-276.755 381.758,-270.755 381.758,-264.755"/>
<polyline fill="none" stroke="white" stroke-width="2" points="381.758,-264.755 381.758,-252.755 "/>
<path fill="none" stroke="white" stroke-width="2" d="M381.758,-252.755C381.758,-246.755 387.758,-240.755 393.758,-240.755"/>
<polyline fill="none" stroke="white" stroke-width="2" points="393.758,-240.755 452.258,-240.755 "/>
<path fill="none" stroke="white" stroke-width="2" d="M452.258,-240.755C458.258,-240.755 464.258,-246.755 464.258,-252.755"/>
<polyline fill="none" stroke="white" stroke-width="2" points="464.258,-252.755 464.258,-264.755 "/>
<path fill="none" stroke="white" stroke-width="2" d="M464.258,-264.755C464.258,-270.755 458.258,-276.755 452.258,-276.755"/>
<text text-anchor="middle" x="423.008" y="-256.255" font-family="Helvetica,sans-Serif" font-size="10.00" fill="white">RCOR1_MTA3</text>
</a>
</g>
<!-- ID4_TCF4_SNAI2&#45;&gt;RCOR1_MTA3 -->
<g id="edge2" class="edge"><title>ID4_TCF4_SNAI2&#45;&gt;RCOR1_MTA3</title>
<a xlink:title="MTA3: 0.119||ID4: 0.327||TCF4: 0.204||remove24root">
<path fill="none" stroke="#ebc1ff" stroke-width="3" d="M267.83,-44.1768C268.04,-56.3494 269.621,-70.9042 274.613,-82.8153 274.92,-83.6798 361.943,-185.688 402.904,-233.671"/>
<path fill="none" stroke="#e5afff" stroke-width="3" d="M265.83,-44.2121C266.052,-56.5654 267.632,-71.1201 272.766,-83.5826 273.398,-84.9779 360.422,-186.986 401.383,-234.969"/>
<polygon fill="#e5afff" stroke="#e5afff" points="269.63,-44.1426 266.872,-36.1281 264.03,-44.1133 269.63,-44.1426"/>
<polygon fill="#ebc1ff" stroke="#ebc1ff" points="400.047,-236.176 407.37,-240.442 404.306,-232.54 400.047,-236.176"/>
</a>
</g>
<!-- ELK4_ETV5_ELK1_ELK3_ELF4 -->
<g id="node4" class="node"><title>ELK4_ETV5_ELK1_ELK3_ELF4</title>
<a xlink:href="ELK4_ETV5_ELK1_ELK3_ELF4.svg" xlink:title="Z&#45;value: 1.430||remove36">
<polygon fill="#5c6cff" stroke="#5c6cff" stroke-width="2" points="431.83,-80.3189 298.83,-80.3189 286.83,-68.3189 286.83,-56.3189 298.83,-44.3189 431.83,-44.3189 443.83,-56.3189 443.83,-68.3189 431.83,-80.3189"/>
<path fill="#5c6cff" stroke="#5c6cff" stroke-width="2" d="M298.83,-80.3189C292.83,-80.3189 286.83,-74.3189 286.83,-68.3189"/>
<path fill="#5c6cff" stroke="#5c6cff" stroke-width="2" d="M286.83,-56.3189C286.83,-50.3189 292.83,-44.3189 298.83,-44.3189"/>
<path fill="#5c6cff" stroke="#5c6cff" stroke-width="2" d="M431.83,-44.3189C437.83,-44.3189 443.83,-50.3189 443.83,-56.3189"/>
<path fill="#5c6cff" stroke="#5c6cff" stroke-width="2" d="M443.83,-68.3189C443.83,-74.3189 437.83,-80.3189 431.83,-80.3189"/>
<polyline fill="none" stroke="white" stroke-width="2" points="431.83,-80.3189 298.83,-80.3189 "/>
<path fill="none" stroke="white" stroke-width="2" d="M298.83,-80.3189C292.83,-80.3189 286.83,-74.3189 286.83,-68.3189"/>
<polyline fill="none" stroke="white" stroke-width="2" points="286.83,-68.3189 286.83,-56.3189 "/>
<path fill="none" stroke="white" stroke-width="2" d="M286.83,-56.3189C286.83,-50.3189 292.83,-44.3189 298.83,-44.3189"/>
<polyline fill="none" stroke="white" stroke-width="2" points="298.83,-44.3189 431.83,-44.3189 "/>
<path fill="none" stroke="white" stroke-width="2" d="M431.83,-44.3189C437.83,-44.3189 443.83,-50.3189 443.83,-56.3189"/>
<polyline fill="none" stroke="white" stroke-width="2" points="443.83,-56.3189 443.83,-68.3189 "/>
<path fill="none" stroke="white" stroke-width="2" d="M443.83,-68.3189C443.83,-74.3189 437.83,-80.3189 431.83,-80.3189"/>
<text text-anchor="middle" x="365.33" y="-59.8189" font-family="Helvetica,sans-Serif" font-size="10.00" fill="white">ELK4_ETV5_ELK1_ELK3_ELF4</text>
</a>
</g>
<!-- ID4_TCF4_SNAI2&#45;&gt;ELK4_ETV5_ELK1_ELK3_ELF4 -->
<g id="edge4" class="edge"><title>ID4_TCF4_SNAI2&#45;&gt;ELK4_ETV5_ELK1_ELK3_ELF4</title>
<a xlink:title="ELK1: 0.082||TCF4: 0.127||ID4: 0.024||remove12root">
<path fill="none" stroke="#ecc4ff" stroke-width="3" d="M315.531,-38.4776C316.658,-38.9922 317.787,-39.5074 318.914,-40.0221"/>
<path fill="none" stroke="#ebc1ff" stroke-width="3" d="M314.701,-40.2968C315.828,-40.8115 316.956,-41.3267 318.083,-41.8413"/>
<polygon fill="#ebc1ff" stroke="#ebc1ff" points="316.197,-36.8026 307.757,-36.0262 313.87,-41.8966 316.197,-36.8026"/>
<polygon fill="#ecc4ff" stroke="#ecc4ff" points="317.453,-43.5323 325.893,-44.3087 319.779,-38.4383 317.453,-43.5323"/>
</a>
</g>
<!-- LMX1B_MNX1_RAX2 -->
<g id="node6" class="node"><title>LMX1B_MNX1_RAX2</title>
<a xlink:href="LMX1B_MNX1_RAX2.svg" xlink:title="Z&#45;value: 0.411||remove25">
<polygon fill="#abb4ff" stroke="#abb4ff" stroke-width="2" points="409.58,-366.505 321.08,-366.505 309.08,-354.505 309.08,-342.505 321.08,-330.505 409.58,-330.505 421.58,-342.505 421.58,-354.505 409.58,-366.505"/>
<path fill="#abb4ff" stroke="#abb4ff" stroke-width="2" d="M321.08,-366.505C315.08,-366.505 309.08,-360.505 309.08,-354.505"/>
<path fill="#abb4ff" stroke="#abb4ff" stroke-width="2" d="M309.08,-342.505C309.08,-336.505 315.08,-330.505 321.08,-330.505"/>
<path fill="#abb4ff" stroke="#abb4ff" stroke-width="2" d="M409.58,-330.505C415.58,-330.505 421.58,-336.505 421.58,-342.505"/>
<path fill="#abb4ff" stroke="#abb4ff" stroke-width="2" d="M421.58,-354.505C421.58,-360.505 415.58,-366.505 409.58,-366.505"/>
<polyline fill="none" stroke="white" stroke-width="2" points="409.58,-366.505 321.08,-366.505 "/>
<path fill="none" stroke="white" stroke-width="2" d="M321.08,-366.505C315.08,-366.505 309.08,-360.505 309.08,-354.505"/>
<polyline fill="none" stroke="white" stroke-width="2" points="309.08,-354.505 309.08,-342.505 "/>
<path fill="none" stroke="white" stroke-width="2" d="M309.08,-342.505C309.08,-336.505 315.08,-330.505 321.08,-330.505"/>
<polyline fill="none" stroke="white" stroke-width="2" points="321.08,-330.505 409.58,-330.505 "/>
<path fill="none" stroke="white" stroke-width="2" d="M409.58,-330.505C415.58,-330.505 421.58,-336.505 421.58,-342.505"/>
<polyline fill="none" stroke="white" stroke-width="2" points="421.58,-342.505 421.58,-354.505 "/>
<path fill="none" stroke="white" stroke-width="2" d="M421.58,-354.505C421.58,-360.505 415.58,-366.505 409.58,-366.505"/>
<text text-anchor="middle" x="365.33" y="-346.005" font-family="Helvetica,sans-Serif" font-size="10.00">LMX1B_MNX1_RAX2</text>
</a>
</g>
<!-- ID4_TCF4_SNAI2&#45;&gt;LMX1B_MNX1_RAX2 -->
<g id="edge6" class="edge"><title>ID4_TCF4_SNAI2&#45;&gt;LMX1B_MNX1_RAX2</title>
<a xlink:title="LMX1B: 0.075||remove7root">
<path fill="none" stroke="#ecc5ff" stroke-width="3" d="M266.877,-36.1258C266.51,-49.6103 267.468,-68.1959 273.69,-83.1989 296.315,-137.754 338.353,-129.448 359.659,-184.532 377.345,-230.258 373.812,-288.62 369.599,-321.956"/>
<polygon fill="#ecc5ff" stroke="#ecc5ff" points="366.772,-321.962 368.467,-330.266 372.321,-322.717 366.772,-321.962"/>
</a>
</g>
<!-- YBX1_FOS_NFYC_NFYA_NFYB_CEBPZ -->
<g id="node8" class="node"><title>YBX1_FOS_NFYC_NFYA_NFYB_CEBPZ</title>
<a xlink:href="YBX1_FOS_NFYC_NFYA_NFYB_CEBPZ.svg" xlink:title="Z&#45;value: 1.883||remove38">
<polygon fill="#ff3939" stroke="#ff3939" stroke-width="2" points="330.839,-223.412 151.839,-223.412 139.839,-211.412 139.839,-199.412 151.839,-187.412 330.839,-187.412 342.839,-199.412 342.839,-211.412 330.839,-223.412"/>
<path fill="#ff3939" stroke="#ff3939" stroke-width="2" d="M151.839,-223.412C145.839,-223.412 139.839,-217.412 139.839,-211.412"/>
<path fill="#ff3939" stroke="#ff3939" stroke-width="2" d="M139.839,-199.412C139.839,-193.412 145.839,-187.412 151.839,-187.412"/>
<path fill="#ff3939" stroke="#ff3939" stroke-width="2" d="M330.839,-187.412C336.839,-187.412 342.839,-193.412 342.839,-199.412"/>
<path fill="#ff3939" stroke="#ff3939" stroke-width="2" d="M342.839,-211.412C342.839,-217.412 336.839,-223.412 330.839,-223.412"/>
<polyline fill="none" stroke="white" stroke-width="2" points="330.839,-223.412 151.839,-223.412 "/>
<path fill="none" stroke="white" stroke-width="2" d="M151.839,-223.412C145.839,-223.412 139.839,-217.412 139.839,-211.412"/>
<polyline fill="none" stroke="white" stroke-width="2" points="139.839,-211.412 139.839,-199.412 "/>
<path fill="none" stroke="white" stroke-width="2" d="M139.839,-199.412C139.839,-193.412 145.839,-187.412 151.839,-187.412"/>
<polyline fill="none" stroke="white" stroke-width="2" points="151.839,-187.412 330.839,-187.412 "/>
<path fill="none" stroke="white" stroke-width="2" d="M330.839,-187.412C336.839,-187.412 342.839,-193.412 342.839,-199.412"/>
<polyline fill="none" stroke="white" stroke-width="2" points="342.839,-199.412 342.839,-211.412 "/>
<path fill="none" stroke="white" stroke-width="2" d="M342.839,-211.412C342.839,-217.412 336.839,-223.412 330.839,-223.412"/>
<text text-anchor="middle" x="241.339" y="-202.912" font-family="Helvetica,sans-Serif" font-size="10.00" fill="white">YBX1_FOS_NFYC_NFYA_NFYB_CEBPZ</text>
</a>
</g>
<!-- ID4_TCF4_SNAI2&#45;&gt;YBX1_FOS_NFYC_NFYA_NFYB_CEBPZ -->
<g id="edge8" class="edge"><title>ID4_TCF4_SNAI2&#45;&gt;YBX1_FOS_NFYC_NFYA_NFYB_CEBPZ</title>
<a xlink:title="FOS: 0.358||ID4: 0.028||remove26root">
<path fill="none" stroke="#adb5ff" stroke-width="3" d="M265.464,-44.6438C260.317,-80.4423 251.2,-143.856 246.082,-179.449"/>
<path fill="none" stroke="#ffc9c9" stroke-width="3" d="M263.485,-44.3591C258.338,-80.1577 249.22,-143.571 244.102,-179.165"/>
<polygon fill="#ffc9c9" stroke="#ffc9c9" points="267.285,-44.6281 265.652,-36.3111 261.742,-43.8311 267.285,-44.6281"/>
<polygon fill="#adb5ff" stroke="#adb5ff" points="242.31,-178.985 243.943,-187.302 247.853,-179.782 242.31,-178.985"/>
</a>
</g>
<!-- RCOR1_MTA3&#45;&gt;RCOR1_MTA3 -->
<g id="edge42" class="edge"><title>RCOR1_MTA3&#45;&gt;RCOR1_MTA3</title>
<a xlink:title="RCOR1: 1.276||remove34">
<path fill="none" stroke="#cb5eff" stroke-width="3" d="M464.363,-265.399C474.48,-264.907 482.008,-262.692 482.008,-258.755 482.008,-255.986 478.286,-254.069 472.56,-253.004"/>
<polygon fill="#cb5eff" stroke="#cb5eff" points="472.62,-250.194 464.363,-252.11 472.012,-255.761 472.62,-250.194"/>
</a>
</g>
<!-- RCOR1_MTA3&#45;&gt;ELK4_ETV5_ELK1_ELK3_ELF4 -->
<g id="edge44" class="edge"><title>RCOR1_MTA3&#45;&gt;ELK4_ETV5_ELK1_ELK3_ELF4</title>
<a xlink:title="ELK3: 0.260||ETV5: 0.138||remove20root">
<path fill="none" stroke="#e7b5ff" stroke-width="3" d="M415.664,-240.55C408.881,-223.321 398.809,-196.641 391.688,-172.949 383.122,-144.445 375.505,-111.151 370.689,-88.591"/>
<polygon fill="#e7b5ff" stroke="#e7b5ff" points="373.374,-87.7532 368.984,-80.5026 367.894,-88.9081 373.374,-87.7532"/>
</a>
</g>
<!-- RCOR1_MTA3&#45;&gt;LMX1B_MNX1_RAX2 -->
<g id="edge46" class="edge"><title>RCOR1_MTA3&#45;&gt;LMX1B_MNX1_RAX2</title>
<a xlink:title="RAX2: 0.554||MNX1: 0.372||remove25">
<path fill="none" stroke="#df9cff" stroke-width="3" d="M411.336,-276.917C402.736,-290.298 390.935,-308.663 381.437,-323.44"/>
<polygon fill="#df9cff" stroke="#df9cff" points="378.954,-322.126 376.984,-330.369 383.665,-325.153 378.954,-322.126"/>
</a>
</g>
<!-- LHX2 -->
<g id="node13" class="node"><title>LHX2</title>
<a xlink:href="LHX2.svg" xlink:title="Z&#45;value: 0.319||remove31">
<polygon fill="#b3baff" stroke="#b3baff" stroke-width="2" points="283.285,-410.824 253.285,-410.824 241.285,-398.824 241.285,-386.824 253.285,-374.824 283.285,-374.824 295.285,-386.824 295.285,-398.824 283.285,-410.824"/>
<path fill="#b3baff" stroke="#b3baff" stroke-width="2" d="M253.285,-410.824C247.285,-410.824 241.285,-404.824 241.285,-398.824"/>
<path fill="#b3baff" stroke="#b3baff" stroke-width="2" d="M241.285,-386.824C241.285,-380.824 247.285,-374.824 253.285,-374.824"/>
<path fill="#b3baff" stroke="#b3baff" stroke-width="2" d="M283.285,-374.824C289.285,-374.824 295.285,-380.824 295.285,-386.824"/>
<path fill="#b3baff" stroke="#b3baff" stroke-width="2" d="M295.285,-398.824C295.285,-404.824 289.285,-410.824 283.285,-410.824"/>
<polyline fill="none" stroke="white" stroke-width="2" points="283.285,-410.824 253.285,-410.824 "/>
<path fill="none" stroke="white" stroke-width="2" d="M253.285,-410.824C247.285,-410.824 241.285,-404.824 241.285,-398.824"/>
<polyline fill="none" stroke="white" stroke-width="2" points="241.285,-398.824 241.285,-386.824 "/>
<path fill="none" stroke="white" stroke-width="2" d="M241.285,-386.824C241.285,-380.824 247.285,-374.824 253.285,-374.824"/>
<polyline fill="none" stroke="white" stroke-width="2" points="253.285,-374.824 283.285,-374.824 "/>
<path fill="none" stroke="white" stroke-width="2" d="M283.285,-374.824C289.285,-374.824 295.285,-380.824 295.285,-386.824"/>
<polyline fill="none" stroke="white" stroke-width="2" points="295.285,-386.824 295.285,-398.824 "/>
<path fill="none" stroke="white" stroke-width="2" d="M295.285,-398.824C295.285,-404.824 289.285,-410.824 283.285,-410.824"/>
<text text-anchor="middle" x="268.285" y="-390.324" font-family="Helvetica,sans-Serif" font-size="10.00">LHX2</text>
</a>
</g>
<!-- RCOR1_MTA3&#45;&gt;LHX2 -->
<g id="edge48" class="edge"><title>RCOR1_MTA3&#45;&gt;LHX2</title>
<a xlink:title="LHX2: 1.061||remove31">
<path fill="none" stroke="#d170ff" stroke-width="3" d="M381.653,-274.229C355.502,-285.709 322.477,-303.545 299.79,-327.625 289.295,-338.763 281.657,-354.052 276.533,-367.024"/>
<polygon fill="#d170ff" stroke="#d170ff" points="273.826,-366.27 273.663,-374.745 279.075,-368.221 273.826,-366.27"/>
</a>
</g>
<!-- TAF1 -->
<g id="node15" class="node"><title>TAF1</title>
<a xlink:href="TAF1.svg" xlink:title="Z&#45;value: 1.052||remove28">
<polygon fill="#7a87ff" stroke="#7a87ff" stroke-width="2" points="438.008,-170.069 408.008,-170.069 396.008,-158.069 396.008,-146.069 408.008,-134.069 438.008,-134.069 450.008,-146.069 450.008,-158.069 438.008,-170.069"/>
<path fill="#7a87ff" stroke="#7a87ff" stroke-width="2" d="M408.008,-170.069C402.008,-170.069 396.008,-164.069 396.008,-158.069"/>
<path fill="#7a87ff" stroke="#7a87ff" stroke-width="2" d="M396.008,-146.069C396.008,-140.069 402.008,-134.069 408.008,-134.069"/>
<path fill="#7a87ff" stroke="#7a87ff" stroke-width="2" d="M438.008,-134.069C444.008,-134.069 450.008,-140.069 450.008,-146.069"/>
<path fill="#7a87ff" stroke="#7a87ff" stroke-width="2" d="M450.008,-158.069C450.008,-164.069 444.008,-170.069 438.008,-170.069"/>
<polyline fill="none" stroke="white" stroke-width="2" points="438.008,-170.069 408.008,-170.069 "/>
<path fill="none" stroke="white" stroke-width="2" d="M408.008,-170.069C402.008,-170.069 396.008,-164.069 396.008,-158.069"/>
<polyline fill="none" stroke="white" stroke-width="2" points="396.008,-158.069 396.008,-146.069 "/>
<path fill="none" stroke="white" stroke-width="2" d="M396.008,-146.069C396.008,-140.069 402.008,-134.069 408.008,-134.069"/>
<polyline fill="none" stroke="white" stroke-width="2" points="408.008,-134.069 438.008,-134.069 "/>
<path fill="none" stroke="white" stroke-width="2" d="M438.008,-134.069C444.008,-134.069 450.008,-140.069 450.008,-146.069"/>
<polyline fill="none" stroke="white" stroke-width="2" points="450.008,-146.069 450.008,-158.069 "/>
<path fill="none" stroke="white" stroke-width="2" d="M450.008,-158.069C450.008,-164.069 444.008,-170.069 438.008,-170.069"/>
<text text-anchor="middle" x="423.008" y="-149.569" font-family="Helvetica,sans-Serif" font-size="10.00">TAF1</text>
</a>
</g>
<!-- RCOR1_MTA3&#45;&gt;TAF1 -->
<g id="edge50" class="edge"><title>RCOR1_MTA3&#45;&gt;TAF1</title>
<a xlink:title="TAF1: 0.065||MTA3: 0.062||remove5root">
<path fill="none" stroke="#ecc6ff" stroke-width="3" d="M422.008,-232.546C422.008,-216.075 422.008,-194.9 422.008,-178.405"/>
<path fill="none" stroke="#ecc6ff" stroke-width="3" d="M424.008,-232.546C424.008,-216.075 424.008,-194.9 424.008,-178.405"/>
<polygon fill="#ecc6ff" stroke="#ecc6ff" points="420.208,-232.657 423.008,-240.657 425.808,-232.657 420.208,-232.657"/>
<polygon fill="#ecc6ff" stroke="#ecc6ff" points="425.809,-178.255 423.008,-170.255 420.209,-178.255 425.809,-178.255"/>
</a>
</g>
<!-- NFATC4 -->
<g id="node23" class="node"><title>NFATC4</title>
<a xlink:href="NFATC4.svg" xlink:title="Z&#45;value: 0.451||remove33">
<polygon fill="#a8b1ff" stroke="#a8b1ff" stroke-width="2" points="97.5569,-325.776 66.5569,-325.776 54.5569,-313.776 54.5569,-301.776 66.5569,-289.776 97.5569,-289.776 109.557,-301.776 109.557,-313.776 97.5569,-325.776"/>
<path fill="#a8b1ff" stroke="#a8b1ff" stroke-width="2" d="M66.5569,-325.776C60.5569,-325.776 54.5569,-319.776 54.5569,-313.776"/>
<path fill="#a8b1ff" stroke="#a8b1ff" stroke-width="2" d="M54.5569,-301.776C54.5569,-295.776 60.5569,-289.776 66.5569,-289.776"/>
<path fill="#a8b1ff" stroke="#a8b1ff" stroke-width="2" d="M97.5569,-289.776C103.557,-289.776 109.557,-295.776 109.557,-301.776"/>
<path fill="#a8b1ff" stroke="#a8b1ff" stroke-width="2" d="M109.557,-313.776C109.557,-319.776 103.557,-325.776 97.5569,-325.776"/>
<polyline fill="none" stroke="white" stroke-width="2" points="97.5569,-325.776 66.5569,-325.776 "/>
<path fill="none" stroke="white" stroke-width="2" d="M66.5569,-325.776C60.5569,-325.776 54.5569,-319.776 54.5569,-313.776"/>
<polyline fill="none" stroke="white" stroke-width="2" points="54.5569,-313.776 54.5569,-301.776 "/>
<path fill="none" stroke="white" stroke-width="2" d="M54.5569,-301.776C54.5569,-295.776 60.5569,-289.776 66.5569,-289.776"/>
<polyline fill="none" stroke="white" stroke-width="2" points="66.5569,-289.776 97.5569,-289.776 "/>
<path fill="none" stroke="white" stroke-width="2" d="M97.5569,-289.776C103.557,-289.776 109.557,-295.776 109.557,-301.776"/>
<polyline fill="none" stroke="white" stroke-width="2" points="109.557,-301.776 109.557,-313.776 "/>
<path fill="none" stroke="white" stroke-width="2" d="M109.557,-313.776C109.557,-319.776 103.557,-325.776 97.5569,-325.776"/>
<text text-anchor="middle" x="82.0569" y="-305.276" font-family="Helvetica,sans-Serif" font-size="10.00">NFATC4</text>
</a>
</g>
<!-- RCOR1_MTA3&#45;&gt;NFATC4 -->
<g id="edge52" class="edge"><title>RCOR1_MTA3&#45;&gt;NFATC4</title>
<a xlink:title="NFATC4: 0.175||remove16root">
<path fill="none" stroke="#e9bcff" stroke-width="3" d="M381.542,-264.717C314.284,-274.387 182.507,-293.334 118.576,-302.526"/>
<polygon fill="#e9bcff" stroke="#e9bcff" points="117.907,-299.793 110.387,-303.703 118.704,-305.336 117.907,-299.793"/>
</a>
</g>
<!-- RFX7_RFX4_RFX1 -->
<g id="node26" class="node"><title>RFX7_RFX4_RFX1</title>
<a xlink:href="RFX7_RFX4_RFX1.svg" xlink:title="Z&#45;value: 0.686||remove27">
<polygon fill="#96a1ff" stroke="#96a1ff" stroke-width="2" points="92,-223.412 12,-223.412 -2.84217e-14,-211.412 -2.84217e-14,-199.412 12,-187.412 92,-187.412 104,-199.412 104,-211.412 92,-223.412"/>
<path fill="#96a1ff" stroke="#96a1ff" stroke-width="2" d="M12,-223.412C6,-223.412 -2.84217e-14,-217.412 -2.84217e-14,-211.412"/>
<path fill="#96a1ff" stroke="#96a1ff" stroke-width="2" d="M-2.84217e-14,-199.412C-2.84217e-14,-193.412 6,-187.412 12,-187.412"/>
<path fill="#96a1ff" stroke="#96a1ff" stroke-width="2" d="M92,-187.412C98,-187.412 104,-193.412 104,-199.412"/>
<path fill="#96a1ff" stroke="#96a1ff" stroke-width="2" d="M104,-211.412C104,-217.412 98,-223.412 92,-223.412"/>
<polyline fill="none" stroke="white" stroke-width="2" points="92,-223.412 12,-223.412 "/>
<path fill="none" stroke="white" stroke-width="2" d="M12,-223.412C6,-223.412 -2.84217e-14,-217.412 -2.84217e-14,-211.412"/>
<polyline fill="none" stroke="white" stroke-width="2" points="-2.84217e-14,-211.412 -2.84217e-14,-199.412 "/>
<path fill="none" stroke="white" stroke-width="2" d="M-2.84217e-14,-199.412C-2.84217e-14,-193.412 6,-187.412 12,-187.412"/>
<polyline fill="none" stroke="white" stroke-width="2" points="12,-187.412 92,-187.412 "/>
<path fill="none" stroke="white" stroke-width="2" d="M92,-187.412C98,-187.412 104,-193.412 104,-199.412"/>
<polyline fill="none" stroke="white" stroke-width="2" points="104,-199.412 104,-211.412 "/>
<path fill="none" stroke="white" stroke-width="2" d="M104,-211.412C104,-217.412 98,-223.412 92,-223.412"/>
<text text-anchor="middle" x="52" y="-202.912" font-family="Helvetica,sans-Serif" font-size="10.00">RFX7_RFX4_RFX1</text>
</a>
</g>
<!-- RCOR1_MTA3&#45;&gt;RFX7_RFX4_RFX1 -->
<g id="edge54" class="edge"><title>RCOR1_MTA3&#45;&gt;RFX7_RFX4_RFX1</title>
<a xlink:title="RFX7: 0.223||RFX1: 0.056||remove18root">
<path fill="none" stroke="#e8b8ff" stroke-width="3" d="M381.408,-256.6C323.162,-253.053 214.207,-244.48 123.019,-226.292 119.449,-225.58 115.799,-224.769 112.131,-223.892"/>
<polygon fill="#e8b8ff" stroke="#e8b8ff" points="112.537,-221.107 104.096,-221.874 111.173,-226.538 112.537,-221.107"/>
</a>
</g>
<!-- MSX2 -->
<g id="node29" class="node"><title>MSX2</title>
<a xlink:href="MSX2.svg" xlink:title="Z&#45;value: 0.323||remove29">
<polygon fill="#b2baff" stroke="#b2baff" stroke-width="2" points="97.0569,-121.047 67.0569,-121.047 55.0569,-109.047 55.0569,-97.0474 67.0569,-85.0474 97.0569,-85.0474 109.057,-97.0474 109.057,-109.047 97.0569,-121.047"/>
<path fill="#b2baff" stroke="#b2baff" stroke-width="2" d="M67.0569,-121.047C61.0569,-121.047 55.0569,-115.047 55.0569,-109.047"/>
<path fill="#b2baff" stroke="#b2baff" stroke-width="2" d="M55.0569,-97.0474C55.0569,-91.0474 61.0569,-85.0474 67.0569,-85.0474"/>
<path fill="#b2baff" stroke="#b2baff" stroke-width="2" d="M97.0569,-85.0474C103.057,-85.0474 109.057,-91.0474 109.057,-97.0474"/>
<path fill="#b2baff" stroke="#b2baff" stroke-width="2" d="M109.057,-109.047C109.057,-115.047 103.057,-121.047 97.0569,-121.047"/>
<polyline fill="none" stroke="white" stroke-width="2" points="97.0569,-121.047 67.0569,-121.047 "/>
<path fill="none" stroke="white" stroke-width="2" d="M67.0569,-121.047C61.0569,-121.047 55.0569,-115.047 55.0569,-109.047"/>
<polyline fill="none" stroke="white" stroke-width="2" points="55.0569,-109.047 55.0569,-97.0474 "/>
<path fill="none" stroke="white" stroke-width="2" d="M55.0569,-97.0474C55.0569,-91.0474 61.0569,-85.0474 67.0569,-85.0474"/>
<polyline fill="none" stroke="white" stroke-width="2" points="67.0569,-85.0474 97.0569,-85.0474 "/>
<path fill="none" stroke="white" stroke-width="2" d="M97.0569,-85.0474C103.057,-85.0474 109.057,-91.0474 109.057,-97.0474"/>
<polyline fill="none" stroke="white" stroke-width="2" points="109.057,-97.0474 109.057,-109.047 "/>
<path fill="none" stroke="white" stroke-width="2" d="M109.057,-109.047C109.057,-115.047 103.057,-121.047 97.0569,-121.047"/>
<text text-anchor="middle" x="82.0569" y="-100.547" font-family="Helvetica,sans-Serif" font-size="10.00">MSX2</text>
</a>
</g>
<!-- RCOR1_MTA3&#45;&gt;MSX2 -->
<g id="edge56" class="edge"><title>RCOR1_MTA3&#45;&gt;MSX2</title>
<a xlink:title="MSX2: 0.263||remove21root">
<path fill="none" stroke="#e7b5ff" stroke-width="3" d="M411.929,-240.528C400.75,-223.634 381.981,-198.994 359.659,-184.532 282.274,-134.395 173.124,-114.263 117.559,-106.884"/>
<polygon fill="#e7b5ff" stroke="#e7b5ff" points="117.728,-104.083 109.437,-105.846 117.018,-109.638 117.728,-104.083"/>
</a>
</g>
<!-- SIN3A_CHD1 -->
<g id="node31" class="node"><title>SIN3A_CHD1</title>
<a xlink:href="SIN3A_CHD1.svg" xlink:title="Z&#45;value: 1.751||remove35">
<polygon fill="#4356ff" stroke="#4356ff" stroke-width="2" points="189.935,-51.183 135.435,-51.183 123.435,-39.183 123.435,-27.183 135.435,-15.183 189.935,-15.183 201.935,-27.183 201.935,-39.183 189.935,-51.183"/>
<path fill="#4356ff" stroke="#4356ff" stroke-width="2" d="M135.435,-51.183C129.435,-51.183 123.435,-45.183 123.435,-39.183"/>
<path fill="#4356ff" stroke="#4356ff" stroke-width="2" d="M123.435,-27.183C123.435,-21.183 129.435,-15.183 135.435,-15.183"/>
<path fill="#4356ff" stroke="#4356ff" stroke-width="2" d="M189.935,-15.183C195.935,-15.183 201.935,-21.183 201.935,-27.183"/>
<path fill="#4356ff" stroke="#4356ff" stroke-width="2" d="M201.935,-39.183C201.935,-45.183 195.935,-51.183 189.935,-51.183"/>
<polyline fill="none" stroke="white" stroke-width="2" points="189.935,-51.183 135.435,-51.183 "/>
<path fill="none" stroke="white" stroke-width="2" d="M135.435,-51.183C129.435,-51.183 123.435,-45.183 123.435,-39.183"/>
<polyline fill="none" stroke="white" stroke-width="2" points="123.435,-39.183 123.435,-27.183 "/>
<path fill="none" stroke="white" stroke-width="2" d="M123.435,-27.183C123.435,-21.183 129.435,-15.183 135.435,-15.183"/>
<polyline fill="none" stroke="white" stroke-width="2" points="135.435,-15.183 189.935,-15.183 "/>
<path fill="none" stroke="white" stroke-width="2" d="M189.935,-15.183C195.935,-15.183 201.935,-21.183 201.935,-27.183"/>
<polyline fill="none" stroke="white" stroke-width="2" points="201.935,-27.183 201.935,-39.183 "/>
<path fill="none" stroke="white" stroke-width="2" d="M201.935,-39.183C201.935,-45.183 195.935,-51.183 189.935,-51.183"/>
<text text-anchor="middle" x="162.685" y="-30.683" font-family="Helvetica,sans-Serif" font-size="10.00" fill="white">SIN3A_CHD1</text>
</a>
</g>
<!-- RCOR1_MTA3&#45;&gt;SIN3A_CHD1 -->
<g id="edge58" class="edge"><title>RCOR1_MTA3&#45;&gt;SIN3A_CHD1</title>
<a xlink:title="SIN3A: 0.229||RCOR1: 1.779||remove34">
<path fill="none" stroke="#e8b8ff" stroke-width="3" d="M403.398,-234.783C391.4,-219.778 375.087,-200.558 358.97,-185.257 306.017,-134.944 236.756,-84.8627 196.101,-56.8332"/>
<path fill="none" stroke="#bd32ff" stroke-width="3" d="M404.96,-233.534C392.925,-218.484 376.612,-199.264 360.348,-183.807 307.189,-133.323 237.928,-83.242 197.236,-55.1866"/>
<polygon fill="#bd32ff" stroke="#bd32ff" points="402.224,-236.2 409.382,-240.739 406.617,-232.727 402.224,-236.2"/>
<polygon fill="#e8b8ff" stroke="#e8b8ff" points="198.085,-53.5865 189.905,-51.3685 194.917,-58.2039 198.085,-53.5865"/>
</a>
</g>
<!-- ELK4_ETV5_ELK1_ELK3_ELF4&#45;&gt;ELK4_ETV5_ELK1_ELK3_ELF4 -->
<g id="edge12" class="edge"><title>ELK4_ETV5_ELK1_ELK3_ELF4&#45;&gt;ELK4_ETV5_ELK1_ELK3_ELF4</title>
<a xlink:title="ELK4: 0.168||ELK3: 0.113||remove15root">
<path fill="none" stroke="#eabdff" stroke-width="3" d="M444.049,-68.2713C454.439,-67.2562 461.33,-65.2721 461.33,-62.3189 461.33,-60.2425 457.923,-58.6452 452.289,-57.5268"/>
<polygon fill="#eabdff" stroke="#eabdff" points="452.362,-54.7096 444.049,-56.3665 451.581,-60.2548 452.362,-54.7096"/>
</a>
</g>
<!-- ELK4_ETV5_ELK1_ELK3_ELF4&#45;&gt;LMX1B_MNX1_RAX2 -->
<g id="edge14" class="edge"><title>ELK4_ETV5_ELK1_ELK3_ELF4&#45;&gt;LMX1B_MNX1_RAX2</title>
<a xlink:title="MNX1: 0.152||remove13root">
<path fill="none" stroke="#eabeff" stroke-width="3" d="M365.33,-80.6565C365.33,-129.824 365.33,-264.738 365.33,-322.118"/>
<polygon fill="#eabeff" stroke="#eabeff" points="362.53,-322.32 365.33,-330.32 368.13,-322.32 362.53,-322.32"/>
</a>
</g>
<!-- ELK4_ETV5_ELK1_ELK3_ELF4&#45;&gt;YBX1_FOS_NFYC_NFYA_NFYB_CEBPZ -->
<g id="edge22" class="edge"><title>ELK4_ETV5_ELK1_ELK3_ELF4&#45;&gt;YBX1_FOS_NFYC_NFYA_NFYB_CEBPZ</title>
<a xlink:title="YBX1: 0.163||NFYB: 0.125||NFYC: 0.065||ETV5: 0.845||ELK1: 0.000||remove36root">
<path fill="none" stroke="#bdc4ff" stroke-width="3" d="M345.082,-87.2136C322.398,-113.392 286.447,-154.881 263.579,-181.273"/>
<path fill="none" stroke="#ff8383" stroke-width="3" d="M343.57,-85.9039C320.887,-112.082 284.936,-153.572 262.067,-179.963"/>
<polygon fill="#ff8383" stroke="#ff8383" points="346.503,-88.3214 349.626,-80.4417 342.271,-84.6541 346.503,-88.3214"/>
<polygon fill="#bdc4ff" stroke="#bdc4ff" points="260.429,-179.105 257.307,-186.984 264.662,-182.772 260.429,-179.105"/>
</a>
</g>
<!-- ELK4_ETV5_ELK1_ELK3_ELF4&#45;&gt;LHX2 -->
<g id="edge16" class="edge"><title>ELK4_ETV5_ELK1_ELK3_ELF4&#45;&gt;LHX2</title>
<a xlink:title="LHX2: 0.094||remove8root">
<path fill="none" stroke="#ecc3ff" stroke-width="3" d="M367.57,-80.4905C370.733,-111.236 374.589,-175.161 359.659,-226.292 344.997,-276.505 324.495,-281.516 299.79,-327.625 292.922,-340.441 285.829,-354.986 280.116,-367.081"/>
<polygon fill="#ecc3ff" stroke="#ecc3ff" points="277.437,-366.2 276.578,-374.632 282.508,-368.576 277.437,-366.2"/>
</a>
</g>
<!-- ELK4_ETV5_ELK1_ELK3_ELF4&#45;&gt;TAF1 -->
<g id="edge18" class="edge"><title>ELK4_ETV5_ELK1_ELK3_ELF4&#45;&gt;TAF1</title>
<a xlink:title="TAF1: 0.222||remove17root">
<path fill="none" stroke="#e8b8ff" stroke-width="3" d="M377.002,-80.4812C385.602,-93.8627 397.403,-112.227 406.901,-127.005"/>
<polygon fill="#e8b8ff" stroke="#e8b8ff" points="404.673,-128.717 411.354,-133.934 409.384,-125.69 404.673,-128.717"/>
</a>
</g>
<!-- E2F8 -->
<g id="node17" class="node"><title>E2F8</title>
<a xlink:href="E2F8.svg" xlink:title="Z&#45;value: 0.543||remove32">
<polygon fill="#a1abff" stroke="#a1abff" stroke-width="2" points="177.685,-395.641 147.685,-395.641 135.685,-383.641 135.685,-371.641 147.685,-359.641 177.685,-359.641 189.685,-371.641 189.685,-383.641 177.685,-395.641"/>
<path fill="#a1abff" stroke="#a1abff" stroke-width="2" d="M147.685,-395.641C141.685,-395.641 135.685,-389.641 135.685,-383.641"/>
<path fill="#a1abff" stroke="#a1abff" stroke-width="2" d="M135.685,-371.641C135.685,-365.641 141.685,-359.641 147.685,-359.641"/>
<path fill="#a1abff" stroke="#a1abff" stroke-width="2" d="M177.685,-359.641C183.685,-359.641 189.685,-365.641 189.685,-371.641"/>
<path fill="#a1abff" stroke="#a1abff" stroke-width="2" d="M189.685,-383.641C189.685,-389.641 183.685,-395.641 177.685,-395.641"/>
<polyline fill="none" stroke="white" stroke-width="2" points="177.685,-395.641 147.685,-395.641 "/>
<path fill="none" stroke="white" stroke-width="2" d="M147.685,-395.641C141.685,-395.641 135.685,-389.641 135.685,-383.641"/>
<polyline fill="none" stroke="white" stroke-width="2" points="135.685,-383.641 135.685,-371.641 "/>
<path fill="none" stroke="white" stroke-width="2" d="M135.685,-371.641C135.685,-365.641 141.685,-359.641 147.685,-359.641"/>
<polyline fill="none" stroke="white" stroke-width="2" points="147.685,-359.641 177.685,-359.641 "/>
<path fill="none" stroke="white" stroke-width="2" d="M177.685,-359.641C183.685,-359.641 189.685,-365.641 189.685,-371.641"/>
<polyline fill="none" stroke="white" stroke-width="2" points="189.685,-371.641 189.685,-383.641 "/>
<path fill="none" stroke="white" stroke-width="2" d="M189.685,-383.641C189.685,-389.641 183.685,-395.641 177.685,-395.641"/>
<text text-anchor="middle" x="162.685" y="-375.141" font-family="Helvetica,sans-Serif" font-size="10.00">E2F8</text>
</a>
</g>
<!-- ELK4_ETV5_ELK1_ELK3_ELF4&#45;&gt;E2F8 -->
<g id="edge20" class="edge"><title>ELK4_ETV5_ELK1_ELK3_ELF4&#45;&gt;E2F8</title>
<a xlink:title="E2F8: 0.111||remove11root">
<path fill="none" stroke="#ebc2ff" stroke-width="3" d="M369.527,-80.8011C375.731,-112.562 384.155,-178.672 359.659,-226.292 324.714,-294.224 243.82,-340.609 197.296,-362.741"/>
<polygon fill="#ebc2ff" stroke="#ebc2ff" points="195.925,-360.291 189.86,-366.212 198.294,-365.366 195.925,-360.291"/>
</a>
</g>
<!-- YBX1_FOS_NFYC_NFYA_NFYB_CEBPZ&#45;&gt;RCOR1_MTA3 -->
<g id="edge24" class="edge"><title>YBX1_FOS_NFYC_NFYA_NFYB_CEBPZ&#45;&gt;RCOR1_MTA3</title>
<a xlink:title="RCOR1: 0.148||NFYB: 0.666||NFYC: 0.172||YBX1: 0.144||remove34root">
<path fill="none" stroke="#ffbfbf" stroke-width="3" d="M310.818,-224.771C331.871,-230.952 354.569,-237.617 374.024,-243.329"/>
<path fill="none" stroke="#929dff" stroke-width="3" d="M310.255,-226.69C331.307,-232.871 354.005,-239.536 373.46,-245.248"/>
<polygon fill="#929dff" stroke="#929dff" points="311.309,-223.039 302.844,-223.471 309.731,-228.412 311.309,-223.039"/>
<polygon fill="#ffbfbf" stroke="#ffbfbf" points="373.121,-247.025 381.586,-246.592 374.699,-241.651 373.121,-247.025"/>
</a>
</g>
<!-- YBX1_FOS_NFYC_NFYA_NFYB_CEBPZ&#45;&gt;LMX1B_MNX1_RAX2 -->
<g id="edge26" class="edge"><title>YBX1_FOS_NFYC_NFYA_NFYB_CEBPZ&#45;&gt;LMX1B_MNX1_RAX2</title>
<a xlink:title="MNX1: 0.348||remove25root">
<path fill="none" stroke="#ffaeae" stroke-width="3" d="M257.042,-223.535C279.095,-248.984 319.302,-295.386 344.031,-323.925"/>
<polygon fill="#ffaeae" stroke="#ffaeae" points="342.007,-325.865 349.362,-330.077 346.239,-322.197 342.007,-325.865"/>
</a>
</g>
<!-- YBX1_FOS_NFYC_NFYA_NFYB_CEBPZ&#45;&gt;YBX1_FOS_NFYC_NFYA_NFYB_CEBPZ -->
<g id="edge36" class="edge"><title>YBX1_FOS_NFYC_NFYA_NFYB_CEBPZ&#45;&gt;YBX1_FOS_NFYC_NFYA_NFYB_CEBPZ</title>
<a xlink:title="NFYC: 1.015||remove37root">
<path fill="none" stroke="#ff7474" stroke-width="3" d="M342.904,-211.005C353.53,-209.913 360.339,-208.049 360.339,-205.412 360.339,-203.517 356.821,-202.021 350.897,-200.924"/>
<polygon fill="#ff7474" stroke="#ff7474" points="351.212,-198.14 342.904,-199.819 350.445,-203.688 351.212,-198.14"/>
</a>
</g>
<!-- YBX1_FOS_NFYC_NFYA_NFYB_CEBPZ&#45;&gt;LHX2 -->
<g id="edge28" class="edge"><title>YBX1_FOS_NFYC_NFYA_NFYB_CEBPZ&#45;&gt;LHX2</title>
<a xlink:title="LHX2: 0.430||remove31root">
<path fill="none" stroke="#ffa6a6" stroke-width="3" d="M243.972,-223.723C248.773,-257.118 258.967,-328.017 264.508,-366.556"/>
<polygon fill="#ffa6a6" stroke="#ffa6a6" points="261.771,-367.194 265.681,-374.714 267.314,-366.397 261.771,-367.194"/>
</a>
</g>
<!-- YBX1_FOS_NFYC_NFYA_NFYB_CEBPZ&#45;&gt;E2F8 -->
<g id="edge32" class="edge"><title>YBX1_FOS_NFYC_NFYA_NFYB_CEBPZ&#45;&gt;E2F8</title>
<a xlink:title="E2F8: 0.431||remove32root">
<path fill="none" stroke="#ffa6a6" stroke-width="3" d="M233.07,-223.518C219.026,-254.27 190.474,-316.79 174.385,-352.019"/>
<polygon fill="#ffa6a6" stroke="#ffa6a6" points="171.737,-351.079 170.961,-359.519 176.831,-353.405 171.737,-351.079"/>
</a>
</g>
<!-- YBX1_FOS_NFYC_NFYA_NFYB_CEBPZ&#45;&gt;NFATC4 -->
<g id="edge30" class="edge"><title>YBX1_FOS_NFYC_NFYA_NFYB_CEBPZ&#45;&gt;NFATC4</title>
<a xlink:title="NFATC4: 0.552||remove33root">
<path fill="none" stroke="#ff9c9c" stroke-width="3" d="M213.229,-223.477C186.306,-240.779 145.615,-266.93 116.701,-285.512"/>
<polygon fill="#ff9c9c" stroke="#ff9c9c" points="114.835,-283.382 109.619,-290.063 117.863,-288.093 114.835,-283.382"/>
</a>
</g>
<!-- YBX1_FOS_NFYC_NFYA_NFYB_CEBPZ&#45;&gt;RFX7_RFX4_RFX1 -->
<g id="edge34" class="edge"><title>YBX1_FOS_NFYC_NFYA_NFYB_CEBPZ&#45;&gt;RFX7_RFX4_RFX1</title>
<a xlink:title="RFX1: 0.387||CEBPZ: 0.037||remove27root">
<path fill="none" stroke="#ffaaaa" stroke-width="3" d="M131.712,-206.412C125.174,-206.412 118.733,-206.412 112.519,-206.412"/>
<path fill="none" stroke="#c8ceff" stroke-width="3" d="M131.712,-204.412C125.174,-204.412 118.733,-204.412 112.519,-204.412"/>
<polygon fill="#c8ceff" stroke="#c8ceff" points="131.741,-208.212 139.741,-205.412 131.741,-202.612 131.741,-208.212"/>
<polygon fill="#ffaaaa" stroke="#ffaaaa" points="112.198,-202.612 104.198,-205.412 112.198,-208.212 112.198,-202.612"/>
</a>
</g>
<!-- YBX1_FOS_NFYC_NFYA_NFYB_CEBPZ&#45;&gt;MSX2 -->
<g id="edge38" class="edge"><title>YBX1_FOS_NFYC_NFYA_NFYB_CEBPZ&#45;&gt;MSX2</title>
<a xlink:title="MSX2: 0.413||remove29root">
<path fill="none" stroke="#ffa8a8" stroke-width="3" d="M213.229,-187.347C186.142,-169.939 145.117,-143.573 116.172,-124.972"/>
<polygon fill="#ffa8a8" stroke="#ffa8a8" points="117.333,-122.389 109.089,-120.42 114.305,-127.101 117.333,-122.389"/>
</a>
</g>
<!-- YBX1_FOS_NFYC_NFYA_NFYB_CEBPZ&#45;&gt;SIN3A_CHD1 -->
<g id="edge40" class="edge"><title>YBX1_FOS_NFYC_NFYA_NFYB_CEBPZ&#45;&gt;SIN3A_CHD1</title>
<a xlink:title="SIN3A: 0.085||YBX1: 0.686||NFYB: 0.126||NFYC: 0.065||remove35root">
<path fill="none" stroke="#ffc4c4" stroke-width="3" d="M228.737,-180.224C213.846,-147.619 188.27,-91.6134 173.408,-59.0705"/>
<path fill="none" stroke="#919cff" stroke-width="3" d="M230.556,-179.393C215.666,-146.788 190.089,-90.7826 175.227,-58.2396"/>
<polygon fill="#919cff" stroke="#919cff" points="227.2,-181.192 233.07,-187.306 232.294,-178.866 227.2,-181.192"/>
<polygon fill="#ffc4c4" stroke="#ffc4c4" points="176.831,-57.4187 170.961,-51.3048 171.737,-59.7451 176.831,-57.4187"/>
</a>
</g>
<!-- TAF1&#45;&gt;YBX1_FOS_NFYC_NFYA_NFYB_CEBPZ -->
<g id="edge88" class="edge"><title>TAF1&#45;&gt;YBX1_FOS_NFYC_NFYA_NFYB_CEBPZ</title>
<a xlink:title="NFYC: 0.399||remove28root">
<path fill="none" stroke="#a9b2ff" stroke-width="3" d="M395.811,-160.055C373.367,-166.645 340.508,-176.293 310.859,-184.999"/>
<polygon fill="#a9b2ff" stroke="#a9b2ff" points="309.884,-182.367 302.997,-187.307 311.462,-187.74 309.884,-182.367"/>
</a>
</g>
<!-- TAF1&#45;&gt;RFX7_RFX4_RFX1 -->
<g id="edge86" class="edge"><title>TAF1&#45;&gt;RFX7_RFX4_RFX1</title>
<a xlink:title="RFX1: 0.103||RFX7: 0.092||remove9root">
<path fill="none" stroke="#ebc3ff" stroke-width="3" d="M395.872,-153.383C342.949,-156.304 222.427,-164.704 123.019,-184.532 119.449,-185.244 115.799,-186.054 112.131,-186.932"/>
<polygon fill="#ebc3ff" stroke="#ebc3ff" points="111.173,-184.285 104.096,-188.95 112.537,-189.717 111.173,-184.285"/>
</a>
</g>
<!-- E2F8&#45;&gt;E2F8 -->
<g id="edge82" class="edge"><title>E2F8&#45;&gt;E2F8</title>
<a xlink:title="E2F8: 0.025||remove3root">
<path fill="none" stroke="#eec9ff" stroke-width="3" d="M189.926,-384.384C199.709,-384.529 207.685,-382.281 207.685,-377.641 207.685,-374.378 203.741,-372.298 197.999,-371.401"/>
<polygon fill="#eec9ff" stroke="#eec9ff" points="198.084,-368.601 189.926,-370.897 197.736,-374.19 198.084,-368.601"/>
</a>
</g>
<!-- E2F8&#45;&gt;NFATC4 -->
<g id="edge80" class="edge"><title>E2F8&#45;&gt;NFATC4</title>
<a xlink:title="NFATC4: 0.015||remove2root">
<path fill="none" stroke="#eecaff" stroke-width="3" d="M141.501,-359.285C131.687,-350.781 119.903,-340.57 109.425,-331.491"/>
<polygon fill="#eecaff" stroke="#eecaff" points="110.979,-329.132 103.099,-326.01 107.312,-333.365 110.979,-329.132"/>
</a>
</g>
<!-- NFATC4&#45;&gt;ID4_TCF4_SNAI2 -->
<g id="edge84" class="edge"><title>NFATC4&#45;&gt;ID4_TCF4_SNAI2</title>
<a xlink:title="SNAI2: 0.074||TCF4: 0.072||remove6root">
<path fill="none" stroke="#ecc5ff" stroke-width="3" d="M89.4638,-289.52C95.9628,-273.129 105.426,-248.327 112.32,-226.292 118.041,-208.006 114.103,-201.49 123.019,-184.532 153.483,-126.591 207.869,-71.9076 240.756,-41.8785"/>
<polygon fill="#ecc5ff" stroke="#ecc5ff" points="242.974,-43.6483 247.034,-36.2078 239.22,-39.4928 242.974,-43.6483"/>
</a>
</g>
<!-- RFX7_RFX4_RFX1&#45;&gt;RFX7_RFX4_RFX1 -->
<g id="edge78" class="edge"><title>RFX7_RFX4_RFX1&#45;&gt;RFX7_RFX4_RFX1</title>
<a xlink:title="RFX4: 0.006||remove1root">
<path fill="none" stroke="#eecbff" stroke-width="3" d="M104.202,-211.883C114.592,-211.155 122,-208.998 122,-205.412 122,-202.834 118.173,-200.995 112.162,-199.894"/>
<polygon fill="#eecbff" stroke="#eecbff" points="112.479,-197.112 104.202,-198.94 111.812,-202.672 112.479,-197.112"/>
</a>
</g>
<!-- SIN3A_CHD1&#45;&gt;ID4_TCF4_SNAI2 -->
<g id="edge76" class="edge"><title>SIN3A_CHD1&#45;&gt;ID4_TCF4_SNAI2</title>
<a xlink:title="ID4: 0.165||TCF4: 0.130||remove14root">
<path fill="none" stroke="#eabdff" stroke-width="3" d="M202.006,-27.5294C205.305,-27.0552 208.678,-26.5701 212.071,-26.0823"/>
<polygon fill="#eabdff" stroke="#eabdff" points="212.475,-28.8532 219.995,-24.943 211.678,-23.3102 212.475,-28.8532"/>
</a>
</g>
<!-- SIN3A_CHD1&#45;&gt;ELK4_ETV5_ELK1_ELK3_ELF4 -->
<g id="edge60" class="edge"><title>SIN3A_CHD1&#45;&gt;ELK4_ETV5_ELK1_ELK3_ELF4</title>
<a xlink:title="ELK4: 0.423||ELK3: 0.080||ETV5: 0.034||remove30root">
<path fill="none" stroke="#e3a7ff" stroke-width="3" d="M202.238,-38.8699C223.95,-41.9916 251.781,-45.9931 278.282,-49.8034"/>
<polygon fill="#e3a7ff" stroke="#e3a7ff" points="278.139,-52.6115 286.456,-50.9786 278.936,-47.0685 278.139,-52.6115"/>
</a>
</g>
<!-- SIN3A_CHD1&#45;&gt;LMX1B_MNX1_RAX2 -->
<g id="edge62" class="edge"><title>SIN3A_CHD1&#45;&gt;LMX1B_MNX1_RAX2</title>
<a xlink:title="MNX1: 0.309||remove23root">
<path fill="none" stroke="#e6b1ff" stroke-width="3" d="M202.254,-50.4703C249.371,-73.455 325.925,-118.954 359.659,-184.532 371.641,-207.825 369.333,-282.282 367.084,-322.365"/>
<polygon fill="#e6b1ff" stroke="#e6b1ff" points="364.288,-322.215 366.61,-330.366 369.878,-322.546 364.288,-322.215"/>
</a>
</g>
<!-- SIN3A_CHD1&#45;&gt;LHX2 -->
<g id="edge64" class="edge"><title>SIN3A_CHD1&#45;&gt;LHX2</title>
<a xlink:title="LHX2: 0.909||remove31">
<path fill="none" stroke="#d57dff" stroke-width="3" d="M152.448,-51.2743C134.152,-86.0905 99.8328,-164.439 123.019,-226.292 145.839,-287.167 202.096,-340.418 237.526,-369.465"/>
<polygon fill="#d57dff" stroke="#d57dff" points="235.904,-371.755 243.887,-374.604 239.423,-367.398 235.904,-371.755"/>
</a>
</g>
<!-- SIN3A_CHD1&#45;&gt;E2F8 -->
<g id="edge68" class="edge"><title>SIN3A_CHD1&#45;&gt;E2F8</title>
<a xlink:title="E2F8: 0.002||remove0root">
<path fill="none" stroke="#eecbff" stroke-width="3" d="M156.242,-51.5198C146.72,-79.6888 129.337,-135.5 123.019,-184.532 115.231,-244.966 137.46,-314.739 151.722,-351.633"/>
<polygon fill="#eecbff" stroke="#eecbff" points="149.256,-353.014 154.804,-359.422 154.463,-350.952 149.256,-353.014"/>
</a>
</g>
<!-- SIN3A_CHD1&#45;&gt;NFATC4 -->
<g id="edge66" class="edge"><title>SIN3A_CHD1&#45;&gt;NFATC4</title>
<a xlink:title="NFATC4: 0.228||remove19root">
<path fill="none" stroke="#e8b8ff" stroke-width="3" d="M157.89,-51.3463C150.4,-79.7493 135.489,-136.412 123.019,-184.532 118.213,-203.079 118.041,-208.006 112.32,-226.292 106.449,-245.056 98.7156,-265.827 92.5357,-281.701"/>
<polygon fill="#e8b8ff" stroke="#e8b8ff" points="89.7833,-281.05 89.4638,-289.52 94.9955,-283.098 89.7833,-281.05"/>
</a>
</g>
<!-- SIN3A_CHD1&#45;&gt;RFX7_RFX4_RFX1 -->
<g id="edge70" class="edge"><title>SIN3A_CHD1&#45;&gt;RFX7_RFX4_RFX1</title>
<a xlink:title="RFX7: 0.629||RFX4: 0.021||remove27">
<path fill="none" stroke="#dd95ff" stroke-width="3" d="M153.806,-51.3679C144.471,-70.0176 128.995,-99.6501 113.377,-123.927 100.633,-143.738 84.5643,-164.957 72.0654,-180.775"/>
<polygon fill="#dd95ff" stroke="#dd95ff" points="69.7397,-179.201 66.9473,-187.204 74.1208,-182.689 69.7397,-179.201"/>
</a>
</g>
<!-- SIN3A_CHD1&#45;&gt;MSX2 -->
<g id="edge72" class="edge"><title>SIN3A_CHD1&#45;&gt;MSX2</title>
<a xlink:title="MSX2: 0.109||remove10root">
<path fill="none" stroke="#ebc2ff" stroke-width="3" d="M141.501,-51.539C131.687,-60.043 119.903,-70.2532 109.425,-79.3324"/>
<polygon fill="#ebc2ff" stroke="#ebc2ff" points="107.312,-77.4589 103.099,-84.8139 110.979,-81.6911 107.312,-77.4589"/>
</a>
</g>
<!-- SIN3A_CHD1&#45;&gt;SIN3A_CHD1 -->
<g id="edge74" class="edge"><title>SIN3A_CHD1&#45;&gt;SIN3A_CHD1</title>
<a xlink:title="CHD1: 0.054||remove4root">
<path fill="none" stroke="#edc7ff" stroke-width="3" d="M202.112,-39.8522C212.149,-39.4139 219.685,-37.1908 219.685,-33.183 219.685,-30.365 215.959,-28.4293 210.258,-27.376"/>
<polygon fill="#edc7ff" stroke="#edc7ff" points="210.362,-24.5715 202.112,-26.5137 209.772,-30.1404 210.362,-24.5715"/>
</a>
</g>
</g>
</svg>
