<?xml version="1.0" encoding="UTF-8" standalone="no"?>
<!DOCTYPE svg PUBLIC "-//W3C//DTD SVG 1.1//EN"
 "http://www.w3.org/Graphics/SVG/1.1/DTD/svg11.dtd">
<!-- Generated by graphviz version 2.28.0 (20110630.0925)
 -->
<!-- Title: _anonymous_0 Pages: 1 -->
<svg width="562pt" height="474pt"
 viewBox="0.00 0.00 561.93 473.93" xmlns="http://www.w3.org/2000/svg" xmlns:xlink="http://www.w3.org/1999/xlink">
<g id="graph1" class="graph" transform="scale(1 1) rotate(0) translate(4 469.932)">
<title>_anonymous_0</title>
<polygon fill="white" stroke="white" points="-4,5 -4,-469.932 558.932,-469.932 558.932,5 -4,5"/>
<!-- ZNF711_TFAP2A_TFAP2D -->
<g id="node1" class="node"><title>ZNF711_TFAP2A_TFAP2D</title>
<a xlink:href="ZNF711_TFAP2A_TFAP2D.svg" xlink:title="Z&#45;value: 2.387||remove28">
<polygon fill="#3247ff" stroke="#3247ff" stroke-width="2" points="293.366,-465.932 179.366,-465.932 167.366,-453.932 167.366,-441.932 179.366,-429.932 293.366,-429.932 305.366,-441.932 305.366,-453.932 293.366,-465.932"/>
<path fill="#3247ff" stroke="#3247ff" stroke-width="2" d="M179.366,-465.932C173.366,-465.932 167.366,-459.932 167.366,-453.932"/>
<path fill="#3247ff" stroke="#3247ff" stroke-width="2" d="M167.366,-441.932C167.366,-435.932 173.366,-429.932 179.366,-429.932"/>
<path fill="#3247ff" stroke="#3247ff" stroke-width="2" d="M293.366,-429.932C299.366,-429.932 305.366,-435.932 305.366,-441.932"/>
<path fill="#3247ff" stroke="#3247ff" stroke-width="2" d="M305.366,-453.932C305.366,-459.932 299.366,-465.932 293.366,-465.932"/>
<polyline fill="none" stroke="white" stroke-width="2" points="293.366,-465.932 179.366,-465.932 "/>
<path fill="none" stroke="white" stroke-width="2" d="M179.366,-465.932C173.366,-465.932 167.366,-459.932 167.366,-453.932"/>
<polyline fill="none" stroke="white" stroke-width="2" points="167.366,-453.932 167.366,-441.932 "/>
<path fill="none" stroke="white" stroke-width="2" d="M167.366,-441.932C167.366,-435.932 173.366,-429.932 179.366,-429.932"/>
<polyline fill="none" stroke="white" stroke-width="2" points="179.366,-429.932 293.366,-429.932 "/>
<path fill="none" stroke="white" stroke-width="2" d="M293.366,-429.932C299.366,-429.932 305.366,-435.932 305.366,-441.932"/>
<polyline fill="none" stroke="white" stroke-width="2" points="305.366,-441.932 305.366,-453.932 "/>
<path fill="none" stroke="white" stroke-width="2" d="M305.366,-453.932C305.366,-459.932 299.366,-465.932 293.366,-465.932"/>
<text text-anchor="middle" x="236.366" y="-445.432" font-family="Helvetica,sans-Serif" font-size="10.00" fill="white">ZNF711_TFAP2A_TFAP2D</text>
</a>
</g>
<!-- ZNF711_TFAP2A_TFAP2D&#45;&gt;ZNF711_TFAP2A_TFAP2D -->
<g id="edge12" class="edge"><title>ZNF711_TFAP2A_TFAP2D&#45;&gt;ZNF711_TFAP2A_TFAP2D</title>
<a xlink:title="TFAP2A: 0.506||ZNF711: 0.089||remove28">
<path fill="none" stroke="#bd32ff" stroke-width="3" d="M305.641,-454.087C316.198,-453.148 323.366,-451.096 323.366,-447.932 323.366,-445.658 319.663,-443.959 313.66,-442.834"/>
<polygon fill="#bd32ff" stroke="#bd32ff" points="313.938,-440.046 305.641,-441.777 313.206,-445.598 313.938,-440.046"/>
</a>
</g>
<!-- ETS1 -->
<g id="node2" class="node"><title>ETS1</title>
<a xlink:href="ETS1.svg" xlink:title="Z&#45;value: 0.924||remove29">
<polygon fill="#909bff" stroke="#909bff" stroke-width="2" points="151.6,-408.332 121.6,-408.332 109.6,-396.332 109.6,-384.332 121.6,-372.332 151.6,-372.332 163.6,-384.332 163.6,-396.332 151.6,-408.332"/>
<path fill="#909bff" stroke="#909bff" stroke-width="2" d="M121.6,-408.332C115.6,-408.332 109.6,-402.332 109.6,-396.332"/>
<path fill="#909bff" stroke="#909bff" stroke-width="2" d="M109.6,-384.332C109.6,-378.332 115.6,-372.332 121.6,-372.332"/>
<path fill="#909bff" stroke="#909bff" stroke-width="2" d="M151.6,-372.332C157.6,-372.332 163.6,-378.332 163.6,-384.332"/>
<path fill="#909bff" stroke="#909bff" stroke-width="2" d="M163.6,-396.332C163.6,-402.332 157.6,-408.332 151.6,-408.332"/>
<polyline fill="none" stroke="white" stroke-width="2" points="151.6,-408.332 121.6,-408.332 "/>
<path fill="none" stroke="white" stroke-width="2" d="M121.6,-408.332C115.6,-408.332 109.6,-402.332 109.6,-396.332"/>
<polyline fill="none" stroke="white" stroke-width="2" points="109.6,-396.332 109.6,-384.332 "/>
<path fill="none" stroke="white" stroke-width="2" d="M109.6,-384.332C109.6,-378.332 115.6,-372.332 121.6,-372.332"/>
<polyline fill="none" stroke="white" stroke-width="2" points="121.6,-372.332 151.6,-372.332 "/>
<path fill="none" stroke="white" stroke-width="2" d="M151.6,-372.332C157.6,-372.332 163.6,-378.332 163.6,-384.332"/>
<polyline fill="none" stroke="white" stroke-width="2" points="163.6,-384.332 163.6,-396.332 "/>
<path fill="none" stroke="white" stroke-width="2" d="M163.6,-396.332C163.6,-402.332 157.6,-408.332 151.6,-408.332"/>
<text text-anchor="middle" x="136.6" y="-387.832" font-family="Helvetica,sans-Serif" font-size="10.00">ETS1</text>
</a>
</g>
<!-- ZNF711_TFAP2A_TFAP2D&#45;&gt;ETS1 -->
<g id="edge2" class="edge"><title>ZNF711_TFAP2A_TFAP2D&#45;&gt;ETS1</title>
<a xlink:title="ETS1: 0.034||remove7root">
<path fill="none" stroke="#ebc1ff" stroke-width="3" d="M205.073,-429.865C194.198,-423.586 181.947,-416.513 170.845,-410.104"/>
<polygon fill="#ebc1ff" stroke="#ebc1ff" points="172.07,-407.578 163.742,-406.003 169.27,-412.428 172.07,-407.578"/>
</a>
</g>
<!-- ELK4_ETV5_ELK1_ELK3_ELF4 -->
<g id="node4" class="node"><title>ELK4_ETV5_ELK1_ELK3_ELF4</title>
<a xlink:href="ELK4_ETV5_ELK1_ELK3_ELF4.svg" xlink:title="Z&#45;value: 1.430||remove33">
<polygon fill="#707eff" stroke="#707eff" stroke-width="2" points="145.5,-308.566 12.5,-308.566 0.5,-296.566 0.5,-284.566 12.5,-272.566 145.5,-272.566 157.5,-284.566 157.5,-296.566 145.5,-308.566"/>
<path fill="#707eff" stroke="#707eff" stroke-width="2" d="M12.5,-308.566C6.5,-308.566 0.5,-302.566 0.5,-296.566"/>
<path fill="#707eff" stroke="#707eff" stroke-width="2" d="M0.5,-284.566C0.5,-278.566 6.5,-272.566 12.5,-272.566"/>
<path fill="#707eff" stroke="#707eff" stroke-width="2" d="M145.5,-272.566C151.5,-272.566 157.5,-278.566 157.5,-284.566"/>
<path fill="#707eff" stroke="#707eff" stroke-width="2" d="M157.5,-296.566C157.5,-302.566 151.5,-308.566 145.5,-308.566"/>
<polyline fill="none" stroke="white" stroke-width="2" points="145.5,-308.566 12.5,-308.566 "/>
<path fill="none" stroke="white" stroke-width="2" d="M12.5,-308.566C6.5,-308.566 0.5,-302.566 0.5,-296.566"/>
<polyline fill="none" stroke="white" stroke-width="2" points="0.5,-296.566 0.5,-284.566 "/>
<path fill="none" stroke="white" stroke-width="2" d="M0.5,-284.566C0.5,-278.566 6.5,-272.566 12.5,-272.566"/>
<polyline fill="none" stroke="white" stroke-width="2" points="12.5,-272.566 145.5,-272.566 "/>
<path fill="none" stroke="white" stroke-width="2" d="M145.5,-272.566C151.5,-272.566 157.5,-278.566 157.5,-284.566"/>
<polyline fill="none" stroke="white" stroke-width="2" points="157.5,-284.566 157.5,-296.566 "/>
<path fill="none" stroke="white" stroke-width="2" d="M157.5,-296.566C157.5,-302.566 151.5,-308.566 145.5,-308.566"/>
<text text-anchor="middle" x="79" y="-288.066" font-family="Helvetica,sans-Serif" font-size="10.00" fill="white">ELK4_ETV5_ELK1_ELK3_ELF4</text>
</a>
</g>
<!-- ZNF711_TFAP2A_TFAP2D&#45;&gt;ELK4_ETV5_ELK1_ELK3_ELF4 -->
<g id="edge4" class="edge"><title>ZNF711_TFAP2A_TFAP2D&#45;&gt;ELK4_ETV5_ELK1_ELK3_ELF4</title>
<a xlink:title="ELK1: 0.395||ELF4: 0.324||ETV5: 0.140||ELK4: 0.074||remove28">
<path fill="none" stroke="#c854ff" stroke-width="3" d="M221.763,-429.899C208.311,-413.607 187.523,-389.222 167.92,-369.452 148.508,-349.875 125.141,-329.248 107.233,-313.998"/>
<polygon fill="#c854ff" stroke="#c854ff" points="108.814,-311.668 100.9,-308.635 105.195,-315.941 108.814,-311.668"/>
</a>
</g>
<!-- IKZF1 -->
<g id="node6" class="node"><title>IKZF1</title>
<a xlink:href="IKZF1.svg" xlink:title="Z&#45;value: 1.300||remove27">
<polygon fill="#7886ff" stroke="#7886ff" stroke-width="2" points="94,-193.366 64,-193.366 52,-181.366 52,-169.366 64,-157.366 94,-157.366 106,-169.366 106,-181.366 94,-193.366"/>
<path fill="#7886ff" stroke="#7886ff" stroke-width="2" d="M64,-193.366C58,-193.366 52,-187.366 52,-181.366"/>
<path fill="#7886ff" stroke="#7886ff" stroke-width="2" d="M52,-169.366C52,-163.366 58,-157.366 64,-157.366"/>
<path fill="#7886ff" stroke="#7886ff" stroke-width="2" d="M94,-157.366C100,-157.366 106,-163.366 106,-169.366"/>
<path fill="#7886ff" stroke="#7886ff" stroke-width="2" d="M106,-181.366C106,-187.366 100,-193.366 94,-193.366"/>
<polyline fill="none" stroke="white" stroke-width="2" points="94,-193.366 64,-193.366 "/>
<path fill="none" stroke="white" stroke-width="2" d="M64,-193.366C58,-193.366 52,-187.366 52,-181.366"/>
<polyline fill="none" stroke="white" stroke-width="2" points="52,-181.366 52,-169.366 "/>
<path fill="none" stroke="white" stroke-width="2" d="M52,-169.366C52,-163.366 58,-157.366 64,-157.366"/>
<polyline fill="none" stroke="white" stroke-width="2" points="64,-157.366 94,-157.366 "/>
<path fill="none" stroke="white" stroke-width="2" d="M94,-157.366C100,-157.366 106,-163.366 106,-169.366"/>
<polyline fill="none" stroke="white" stroke-width="2" points="106,-169.366 106,-181.366 "/>
<path fill="none" stroke="white" stroke-width="2" d="M106,-181.366C106,-187.366 100,-193.366 94,-193.366"/>
<text text-anchor="middle" x="79" y="-172.866" font-family="Helvetica,sans-Serif" font-size="10.00">IKZF1</text>
</a>
</g>
<!-- ZNF711_TFAP2A_TFAP2D&#45;&gt;IKZF1 -->
<g id="edge6" class="edge"><title>ZNF711_TFAP2A_TFAP2D&#45;&gt;IKZF1</title>
<a xlink:title="IKZF1: 0.060||TFAP2A: 0.041||remove15root">
<path fill="none" stroke="#e8b9ff" stroke-width="3" d="M229.415,-422.016C220.368,-385.879 200.846,-319.444 169.794,-270.219 152.806,-243.203 126.807,-217.397 106.911,-199.712"/>
<path fill="none" stroke="#eabfff" stroke-width="3" d="M231.355,-421.53C222.286,-385.315 202.765,-318.88 171.486,-269.153 154.215,-241.783 128.216,-215.978 108.24,-198.218"/>
<polygon fill="#eabfff" stroke="#eabfff" points="227.744,-422.759 232.363,-429.866 233.184,-421.43 227.744,-422.759"/>
<polygon fill="#e8b9ff" stroke="#e8b9ff" points="109.199,-196.665 101.335,-193.503 105.511,-200.879 109.199,-196.665"/>
</a>
</g>
<!-- FOXM1_TBL1XR1 -->
<g id="node8" class="node"><title>FOXM1_TBL1XR1</title>
<a xlink:href="FOXM1_TBL1XR1.svg" xlink:title="Z&#45;value: 2.140||remove37">
<polygon fill="#4255ff" stroke="#4255ff" stroke-width="2" points="173.1,-93.6 100.1,-93.6 88.1,-81.6 88.1,-69.6 100.1,-57.6 173.1,-57.6 185.1,-69.6 185.1,-81.6 173.1,-93.6"/>
<path fill="#4255ff" stroke="#4255ff" stroke-width="2" d="M100.1,-93.6C94.1,-93.6 88.1,-87.6 88.1,-81.6"/>
<path fill="#4255ff" stroke="#4255ff" stroke-width="2" d="M88.1,-69.6C88.1,-63.6 94.1,-57.6 100.1,-57.6"/>
<path fill="#4255ff" stroke="#4255ff" stroke-width="2" d="M173.1,-57.6C179.1,-57.6 185.1,-63.6 185.1,-69.6"/>
<path fill="#4255ff" stroke="#4255ff" stroke-width="2" d="M185.1,-81.6C185.1,-87.6 179.1,-93.6 173.1,-93.6"/>
<polyline fill="none" stroke="white" stroke-width="2" points="173.1,-93.6 100.1,-93.6 "/>
<path fill="none" stroke="white" stroke-width="2" d="M100.1,-93.6C94.1,-93.6 88.1,-87.6 88.1,-81.6"/>
<polyline fill="none" stroke="white" stroke-width="2" points="88.1,-81.6 88.1,-69.6 "/>
<path fill="none" stroke="white" stroke-width="2" d="M88.1,-69.6C88.1,-63.6 94.1,-57.6 100.1,-57.6"/>
<polyline fill="none" stroke="white" stroke-width="2" points="100.1,-57.6 173.1,-57.6 "/>
<path fill="none" stroke="white" stroke-width="2" d="M173.1,-57.6C179.1,-57.6 185.1,-63.6 185.1,-69.6"/>
<polyline fill="none" stroke="white" stroke-width="2" points="185.1,-69.6 185.1,-81.6 "/>
<path fill="none" stroke="white" stroke-width="2" d="M185.1,-81.6C185.1,-87.6 179.1,-93.6 173.1,-93.6"/>
<text text-anchor="middle" x="136.6" y="-73.1" font-family="Helvetica,sans-Serif" font-size="10.00" fill="white">FOXM1_TBL1XR1</text>
</a>
</g>
<!-- ZNF711_TFAP2A_TFAP2D&#45;&gt;FOXM1_TBL1XR1 -->
<g id="edge8" class="edge"><title>ZNF711_TFAP2A_TFAP2D&#45;&gt;FOXM1_TBL1XR1</title>
<a xlink:title="TBL1XR1: 0.276||FOXM1: 0.007||TFAP2A: 0.004||remove28">
<path fill="none" stroke="#d378ff" stroke-width="3" d="M228.361,-421.92C210.038,-353.538 161.017,-170.59 142.683,-102.167"/>
<path fill="none" stroke="#eecaff" stroke-width="3" d="M230.293,-421.402C211.97,-353.02 162.949,-170.073 144.615,-101.649"/>
<polygon fill="#eecaff" stroke="#eecaff" points="226.711,-422.719 231.487,-429.722 232.121,-421.27 226.711,-422.719"/>
<polygon fill="#d378ff" stroke="#d378ff" points="146.245,-100.778 141.47,-93.7754 140.836,-102.227 146.245,-100.778"/>
</a>
</g>
<!-- TFAP4_MSC -->
<g id="node10" class="node"><title>TFAP4_MSC</title>
<a xlink:href="TFAP4_MSC.svg" xlink:title="Z&#45;value: 0.552||remove36">
<polygon fill="#a8b1ff" stroke="#a8b1ff" stroke-width="2" points="534.182,-308.566 483.682,-308.566 471.682,-296.566 471.682,-284.566 483.682,-272.566 534.182,-272.566 546.182,-284.566 546.182,-296.566 534.182,-308.566"/>
<path fill="#a8b1ff" stroke="#a8b1ff" stroke-width="2" d="M483.682,-308.566C477.682,-308.566 471.682,-302.566 471.682,-296.566"/>
<path fill="#a8b1ff" stroke="#a8b1ff" stroke-width="2" d="M471.682,-284.566C471.682,-278.566 477.682,-272.566 483.682,-272.566"/>
<path fill="#a8b1ff" stroke="#a8b1ff" stroke-width="2" d="M534.182,-272.566C540.182,-272.566 546.182,-278.566 546.182,-284.566"/>
<path fill="#a8b1ff" stroke="#a8b1ff" stroke-width="2" d="M546.182,-296.566C546.182,-302.566 540.182,-308.566 534.182,-308.566"/>
<polyline fill="none" stroke="white" stroke-width="2" points="534.182,-308.566 483.682,-308.566 "/>
<path fill="none" stroke="white" stroke-width="2" d="M483.682,-308.566C477.682,-308.566 471.682,-302.566 471.682,-296.566"/>
<polyline fill="none" stroke="white" stroke-width="2" points="471.682,-296.566 471.682,-284.566 "/>
<path fill="none" stroke="white" stroke-width="2" d="M471.682,-284.566C471.682,-278.566 477.682,-272.566 483.682,-272.566"/>
<polyline fill="none" stroke="white" stroke-width="2" points="483.682,-272.566 534.182,-272.566 "/>
<path fill="none" stroke="white" stroke-width="2" d="M534.182,-272.566C540.182,-272.566 546.182,-278.566 546.182,-284.566"/>
<polyline fill="none" stroke="white" stroke-width="2" points="546.182,-284.566 546.182,-296.566 "/>
<path fill="none" stroke="white" stroke-width="2" d="M546.182,-296.566C546.182,-302.566 540.182,-308.566 534.182,-308.566"/>
<text text-anchor="middle" x="508.932" y="-288.066" font-family="Helvetica,sans-Serif" font-size="10.00">TFAP4_MSC</text>
</a>
</g>
<!-- ZNF711_TFAP2A_TFAP2D&#45;&gt;TFAP4_MSC -->
<g id="edge10" class="edge"><title>ZNF711_TFAP2A_TFAP2D&#45;&gt;TFAP4_MSC</title>
<a xlink:title="TFAP4: 0.265||MSC: 0.070||remove28">
<path fill="none" stroke="#d57bff" stroke-width="3" d="M267.633,-429.88C317.817,-400.907 416.206,-344.102 470.564,-312.718"/>
<polygon fill="#d57bff" stroke="#d57bff" points="472.083,-315.074 477.611,-308.649 469.283,-310.224 472.083,-315.074"/>
</a>
</g>
<!-- PITX1 -->
<g id="node13" class="node"><title>PITX1</title>
<a xlink:href="PITX1.svg" xlink:title="Z&#45;value: 2.159||remove38">
<polygon fill="#4154ff" stroke="#4154ff" stroke-width="2" points="251.366,-36 221.366,-36 209.366,-24 209.366,-12 221.366,-9.59233e-14 251.366,-9.59233e-14 263.366,-12 263.366,-24 251.366,-36"/>
<path fill="#4154ff" stroke="#4154ff" stroke-width="2" d="M221.366,-36C215.366,-36 209.366,-30 209.366,-24"/>
<path fill="#4154ff" stroke="#4154ff" stroke-width="2" d="M209.366,-12C209.366,-6 215.366,-9.59233e-14 221.366,-9.59233e-14"/>
<path fill="#4154ff" stroke="#4154ff" stroke-width="2" d="M251.366,-9.59233e-14C257.366,-9.59233e-14 263.366,-6 263.366,-12"/>
<path fill="#4154ff" stroke="#4154ff" stroke-width="2" d="M263.366,-24C263.366,-30 257.366,-36 251.366,-36"/>
<polyline fill="none" stroke="white" stroke-width="2" points="251.366,-36 221.366,-36 "/>
<path fill="none" stroke="white" stroke-width="2" d="M221.366,-36C215.366,-36 209.366,-30 209.366,-24"/>
<polyline fill="none" stroke="white" stroke-width="2" points="209.366,-24 209.366,-12 "/>
<path fill="none" stroke="white" stroke-width="2" d="M209.366,-12C209.366,-6 215.366,-9.59233e-14 221.366,-9.59233e-14"/>
<polyline fill="none" stroke="white" stroke-width="2" points="221.366,-9.59233e-14 251.366,-9.59233e-14 "/>
<path fill="none" stroke="white" stroke-width="2" d="M251.366,-9.59233e-14C257.366,-9.59233e-14 263.366,-6 263.366,-12"/>
<polyline fill="none" stroke="white" stroke-width="2" points="263.366,-12 263.366,-24 "/>
<path fill="none" stroke="white" stroke-width="2" d="M263.366,-24C263.366,-30 257.366,-36 251.366,-36"/>
<text text-anchor="middle" x="236.366" y="-15.5" font-family="Helvetica,sans-Serif" font-size="10.00" fill="white">PITX1</text>
</a>
</g>
<!-- ZNF711_TFAP2A_TFAP2D&#45;&gt;PITX1 -->
<g id="edge14" class="edge"><title>ZNF711_TFAP2A_TFAP2D&#45;&gt;PITX1</title>
<a xlink:title="PITX1: 0.055||remove13root">
<path fill="none" stroke="#e9bbff" stroke-width="3" d="M236.366,-429.733C236.366,-362.036 236.366,-124.562 236.366,-44.5476"/>
<polygon fill="#e9bbff" stroke="#e9bbff" points="239.166,-44.444 236.366,-36.4441 233.566,-44.4441 239.166,-44.444"/>
</a>
</g>
<!-- E2F3 -->
<g id="node15" class="node"><title>E2F3</title>
<a xlink:href="E2F3.svg" xlink:title="Z&#45;value: 0.771||remove35">
<polygon fill="#9aa4ff" stroke="#9aa4ff" stroke-width="2" points="366.566,-36 336.566,-36 324.566,-24 324.566,-12 336.566,-0 366.566,-0 378.566,-12 378.566,-24 366.566,-36"/>
<path fill="#9aa4ff" stroke="#9aa4ff" stroke-width="2" d="M336.566,-36C330.566,-36 324.566,-30 324.566,-24"/>
<path fill="#9aa4ff" stroke="#9aa4ff" stroke-width="2" d="M324.566,-12C324.566,-6 330.566,-0 336.566,-0"/>
<path fill="#9aa4ff" stroke="#9aa4ff" stroke-width="2" d="M366.566,-0C372.566,-0 378.566,-6 378.566,-12"/>
<path fill="#9aa4ff" stroke="#9aa4ff" stroke-width="2" d="M378.566,-24C378.566,-30 372.566,-36 366.566,-36"/>
<polyline fill="none" stroke="white" stroke-width="2" points="366.566,-36 336.566,-36 "/>
<path fill="none" stroke="white" stroke-width="2" d="M336.566,-36C330.566,-36 324.566,-30 324.566,-24"/>
<polyline fill="none" stroke="white" stroke-width="2" points="324.566,-24 324.566,-12 "/>
<path fill="none" stroke="white" stroke-width="2" d="M324.566,-12C324.566,-6 330.566,-0 336.566,-0"/>
<polyline fill="none" stroke="white" stroke-width="2" points="336.566,-0 366.566,-0 "/>
<path fill="none" stroke="white" stroke-width="2" d="M366.566,-0C372.566,-0 378.566,-6 378.566,-12"/>
<polyline fill="none" stroke="white" stroke-width="2" points="378.566,-12 378.566,-24 "/>
<path fill="none" stroke="white" stroke-width="2" d="M378.566,-24C378.566,-30 372.566,-36 366.566,-36"/>
<text text-anchor="middle" x="351.566" y="-15.5" font-family="Helvetica,sans-Serif" font-size="10.00">E2F3</text>
</a>
</g>
<!-- ZNF711_TFAP2A_TFAP2D&#45;&gt;E2F3 -->
<g id="edge16" class="edge"><title>ZNF711_TFAP2A_TFAP2D&#45;&gt;E2F3</title>
<a xlink:title="E2F3: 0.353||remove28">
<path fill="none" stroke="#cc61ff" stroke-width="3" d="M247.148,-429.68C266.4,-396.139 306.434,-321.889 325.286,-253.846 345.809,-179.775 350.376,-88.4083 351.344,-44.2931"/>
<polygon fill="#cc61ff" stroke="#cc61ff" points="354.147,-44.169 351.494,-36.1192 348.548,-44.0668 354.147,-44.169"/>
</a>
</g>
<!-- ZBTB6 -->
<g id="node17" class="node"><title>ZBTB6</title>
<a xlink:href="ZBTB6.svg" xlink:title="Z&#45;value: 0.776||remove39">
<polygon fill="#ff9a9a" stroke="#ff9a9a" stroke-width="2" points="308.966,-250.966 278.966,-250.966 266.966,-238.966 266.966,-226.966 278.966,-214.966 308.966,-214.966 320.966,-226.966 320.966,-238.966 308.966,-250.966"/>
<path fill="#ff9a9a" stroke="#ff9a9a" stroke-width="2" d="M278.966,-250.966C272.966,-250.966 266.966,-244.966 266.966,-238.966"/>
<path fill="#ff9a9a" stroke="#ff9a9a" stroke-width="2" d="M266.966,-226.966C266.966,-220.966 272.966,-214.966 278.966,-214.966"/>
<path fill="#ff9a9a" stroke="#ff9a9a" stroke-width="2" d="M308.966,-214.966C314.966,-214.966 320.966,-220.966 320.966,-226.966"/>
<path fill="#ff9a9a" stroke="#ff9a9a" stroke-width="2" d="M320.966,-238.966C320.966,-244.966 314.966,-250.966 308.966,-250.966"/>
<polyline fill="none" stroke="white" stroke-width="2" points="308.966,-250.966 278.966,-250.966 "/>
<path fill="none" stroke="white" stroke-width="2" d="M278.966,-250.966C272.966,-250.966 266.966,-244.966 266.966,-238.966"/>
<polyline fill="none" stroke="white" stroke-width="2" points="266.966,-238.966 266.966,-226.966 "/>
<path fill="none" stroke="white" stroke-width="2" d="M266.966,-226.966C266.966,-220.966 272.966,-214.966 278.966,-214.966"/>
<polyline fill="none" stroke="white" stroke-width="2" points="278.966,-214.966 308.966,-214.966 "/>
<path fill="none" stroke="white" stroke-width="2" d="M308.966,-214.966C314.966,-214.966 320.966,-220.966 320.966,-226.966"/>
<polyline fill="none" stroke="white" stroke-width="2" points="320.966,-226.966 320.966,-238.966 "/>
<path fill="none" stroke="white" stroke-width="2" d="M320.966,-238.966C320.966,-244.966 314.966,-250.966 308.966,-250.966"/>
<text text-anchor="middle" x="293.966" y="-230.466" font-family="Helvetica,sans-Serif" font-size="10.00">ZBTB6</text>
</a>
</g>
<!-- ZNF711_TFAP2A_TFAP2D&#45;&gt;ZBTB6 -->
<g id="edge18" class="edge"><title>ZNF711_TFAP2A_TFAP2D&#45;&gt;ZBTB6</title>
<a xlink:title="ZBTB6: 0.160||remove28root">
<path fill="none" stroke="#9ba5ff" stroke-width="3" d="M241.277,-429.604C251.5,-391.45 275.099,-303.377 286.933,-259.214"/>
<polygon fill="#9ba5ff" stroke="#9ba5ff" points="289.702,-259.7 289.068,-251.248 284.292,-258.25 289.702,-259.7"/>
</a>
</g>
<!-- ETS1&#45;&gt;ELK4_ETV5_ELK1_ELK3_ELF4 -->
<g id="edge50" class="edge"><title>ETS1&#45;&gt;ELK4_ETV5_ELK1_ELK3_ELF4</title>
<a xlink:title="ELK4: 0.094||ELK3: 0.044||remove21root">
<path fill="none" stroke="#e5afff" stroke-width="3" d="M126.035,-372.034C116.941,-356.283 103.727,-333.395 93.6187,-315.886"/>
<polygon fill="#e5afff" stroke="#e5afff" points="95.9227,-314.277 89.4978,-308.749 91.0729,-317.077 95.9227,-314.277"/>
</a>
</g>
<!-- ETS1&#45;&gt;IKZF1 -->
<g id="edge52" class="edge"><title>ETS1&#45;&gt;IKZF1</title>
<a xlink:title="IKZF1: 0.096||remove22root">
<path fill="none" stroke="#e5aeff" stroke-width="3" d="M149.223,-371.928C164.036,-347.901 184.879,-304.775 170.64,-269.686 158.814,-240.544 133.182,-215.455 112.025,-198.495"/>
<polygon fill="#e5aeff" stroke="#e5aeff" points="113.652,-196.213 105.623,-193.497 110.206,-200.627 113.652,-196.213"/>
</a>
</g>
<!-- ETS1&#45;&gt;TFAP4_MSC -->
<g id="edge54" class="edge"><title>ETS1&#45;&gt;TFAP4_MSC</title>
<a xlink:title="MSC: 0.060||remove16root">
<path fill="none" stroke="#e8b9ff" stroke-width="3" d="M163.677,-383.077C227.017,-366.105 385.391,-323.669 463.674,-302.693"/>
<polygon fill="#e8b9ff" stroke="#e8b9ff" points="464.447,-305.385 471.449,-300.61 462.997,-299.976 464.447,-305.385"/>
</a>
</g>
<!-- ETS1&#45;&gt;ZBTB6 -->
<g id="edge56" class="edge"><title>ETS1&#45;&gt;ZBTB6</title>
<a xlink:title="ZBTB6: 0.161||remove29root">
<path fill="none" stroke="#9ba5ff" stroke-width="3" d="M154.652,-372.28C182.959,-343.974 237.83,-289.102 269.607,-257.325"/>
<polygon fill="#9ba5ff" stroke="#9ba5ff" points="271.963,-258.929 275.64,-251.292 268.003,-254.969 271.963,-258.929"/>
</a>
</g>
<!-- ELK4_ETV5_ELK1_ELK3_ELF4&#45;&gt;ELK4_ETV5_ELK1_ELK3_ELF4 -->
<g id="edge20" class="edge"><title>ELK4_ETV5_ELK1_ELK3_ELF4&#45;&gt;ELK4_ETV5_ELK1_ELK3_ELF4</title>
<a xlink:title="ELK4: 0.168||ELK3: 0.113||remove31root">
<path fill="none" stroke="#de99ff" stroke-width="3" d="M157.72,-296.519C168.109,-295.503 175,-293.519 175,-290.566 175,-288.49 171.593,-286.892 165.959,-285.774"/>
<polygon fill="#de99ff" stroke="#de99ff" points="166.032,-282.957 157.72,-284.614 165.251,-288.502 166.032,-282.957"/>
</a>
</g>
<!-- ELK4_ETV5_ELK1_ELK3_ELF4&#45;&gt;IKZF1 -->
<g id="edge26" class="edge"><title>ELK4_ETV5_ELK1_ELK3_ELF4&#45;&gt;IKZF1</title>
<a xlink:title="IKZF1: 0.054||ELK4: 0.120||ELK3: 0.040||remove25root">
<path fill="none" stroke="#e9bbff" stroke-width="3" d="M78,-264.459C78,-245.723 78,-220.568 78,-201.766"/>
<path fill="none" stroke="#e3a7ff" stroke-width="3" d="M80,-264.459C80,-245.723 80,-220.568 80,-201.766"/>
<polygon fill="#e3a7ff" stroke="#e3a7ff" points="76.2001,-264.566 79,-272.566 81.8001,-264.566 76.2001,-264.566"/>
<polygon fill="#e9bbff" stroke="#e9bbff" points="81.8001,-201.62 79,-193.62 76.2001,-201.62 81.8001,-201.62"/>
</a>
</g>
<!-- ELK4_ETV5_ELK1_ELK3_ELF4&#45;&gt;E2F3 -->
<g id="edge28" class="edge"><title>ELK4_ETV5_ELK1_ELK3_ELF4&#45;&gt;E2F3</title>
<a xlink:title="E2F3: 0.003||ELF4: 0.017||remove3root">
<path fill="none" stroke="#eecbff" stroke-width="3" d="M102.479,-265.673C154.186,-213.966 274.976,-93.1762 326.678,-41.4737"/>
<path fill="none" stroke="#edc6ff" stroke-width="3" d="M103.893,-267.087C155.601,-215.38 276.39,-94.5904 328.092,-42.8879"/>
<polygon fill="#edc6ff" stroke="#edc6ff" points="100.984,-264.622 97.3071,-272.259 104.944,-268.582 100.984,-264.622"/>
<polygon fill="#eecbff" stroke="#eecbff" points="329.662,-43.8642 333.339,-36.2274 325.702,-39.9044 329.662,-43.8642"/>
</a>
</g>
<!-- ELK4_ETV5_ELK1_ELK3_ELF4&#45;&gt;ZBTB6 -->
<g id="edge30" class="edge"><title>ELK4_ETV5_ELK1_ELK3_ELF4&#45;&gt;ZBTB6</title>
<a xlink:title="ZBTB6: 0.215||ELK1: 0.056||remove33root">
<path fill="none" stroke="#8a96ff" stroke-width="3" d="M154.372,-269.335C189.798,-259.843 230.299,-248.99 258.47,-241.442"/>
<path fill="none" stroke="#ffbbbb" stroke-width="3" d="M154.89,-271.267C190.316,-261.774 230.817,-250.922 258.988,-243.374"/>
<polygon fill="#ffbbbb" stroke="#ffbbbb" points="153.43,-267.724 146.427,-272.499 154.879,-273.133 153.43,-267.724"/>
<polygon fill="#8a96ff" stroke="#8a96ff" points="259.692,-245.049 266.695,-240.274 258.242,-239.64 259.692,-245.049"/>
</a>
</g>
<!-- SMAD1 -->
<g id="node20" class="node"><title>SMAD1</title>
<a xlink:href="SMAD1.svg" xlink:title="Z&#45;value: 1.536||remove26">
<polygon fill="#6978ff" stroke="#6978ff" stroke-width="2" points="466.332,-93.6 436.332,-93.6 424.332,-81.6 424.332,-69.6 436.332,-57.6 466.332,-57.6 478.332,-69.6 478.332,-81.6 466.332,-93.6"/>
<path fill="#6978ff" stroke="#6978ff" stroke-width="2" d="M436.332,-93.6C430.332,-93.6 424.332,-87.6 424.332,-81.6"/>
<path fill="#6978ff" stroke="#6978ff" stroke-width="2" d="M424.332,-69.6C424.332,-63.6 430.332,-57.6 436.332,-57.6"/>
<path fill="#6978ff" stroke="#6978ff" stroke-width="2" d="M466.332,-57.6C472.332,-57.6 478.332,-63.6 478.332,-69.6"/>
<path fill="#6978ff" stroke="#6978ff" stroke-width="2" d="M478.332,-81.6C478.332,-87.6 472.332,-93.6 466.332,-93.6"/>
<polyline fill="none" stroke="white" stroke-width="2" points="466.332,-93.6 436.332,-93.6 "/>
<path fill="none" stroke="white" stroke-width="2" d="M436.332,-93.6C430.332,-93.6 424.332,-87.6 424.332,-81.6"/>
<polyline fill="none" stroke="white" stroke-width="2" points="424.332,-81.6 424.332,-69.6 "/>
<path fill="none" stroke="white" stroke-width="2" d="M424.332,-69.6C424.332,-63.6 430.332,-57.6 436.332,-57.6"/>
<polyline fill="none" stroke="white" stroke-width="2" points="436.332,-57.6 466.332,-57.6 "/>
<path fill="none" stroke="white" stroke-width="2" d="M466.332,-57.6C472.332,-57.6 478.332,-63.6 478.332,-69.6"/>
<polyline fill="none" stroke="white" stroke-width="2" points="478.332,-69.6 478.332,-81.6 "/>
<path fill="none" stroke="white" stroke-width="2" d="M478.332,-81.6C478.332,-87.6 472.332,-93.6 466.332,-93.6"/>
<text text-anchor="middle" x="451.332" y="-73.1" font-family="Helvetica,sans-Serif" font-size="10.00" fill="white">SMAD1</text>
</a>
</g>
<!-- ELK4_ETV5_ELK1_ELK3_ELF4&#45;&gt;SMAD1 -->
<g id="edge22" class="edge"><title>ELK4_ETV5_ELK1_ELK3_ELF4&#45;&gt;SMAD1</title>
<a xlink:title="SMAD1: 0.007||remove1root">
<path fill="none" stroke="#edc9ff" stroke-width="3" d="M110.424,-272.424C179.749,-232.398 345.33,-136.8 417.14,-95.3408"/>
<polygon fill="#edc9ff" stroke="#edc9ff" points="418.671,-97.6901 424.199,-91.2652 415.871,-92.8404 418.671,-97.6901"/>
</a>
</g>
<!-- WRNIP1 -->
<g id="node22" class="node"><title>WRNIP1</title>
<a xlink:href="WRNIP1.svg" xlink:title="Z&#45;value: 1.103||remove30">
<polygon fill="#8591ff" stroke="#8591ff" stroke-width="2" points="524.432,-193.366 493.432,-193.366 481.432,-181.366 481.432,-169.366 493.432,-157.366 524.432,-157.366 536.432,-169.366 536.432,-181.366 524.432,-193.366"/>
<path fill="#8591ff" stroke="#8591ff" stroke-width="2" d="M493.432,-193.366C487.432,-193.366 481.432,-187.366 481.432,-181.366"/>
<path fill="#8591ff" stroke="#8591ff" stroke-width="2" d="M481.432,-169.366C481.432,-163.366 487.432,-157.366 493.432,-157.366"/>
<path fill="#8591ff" stroke="#8591ff" stroke-width="2" d="M524.432,-157.366C530.432,-157.366 536.432,-163.366 536.432,-169.366"/>
<path fill="#8591ff" stroke="#8591ff" stroke-width="2" d="M536.432,-181.366C536.432,-187.366 530.432,-193.366 524.432,-193.366"/>
<polyline fill="none" stroke="white" stroke-width="2" points="524.432,-193.366 493.432,-193.366 "/>
<path fill="none" stroke="white" stroke-width="2" d="M493.432,-193.366C487.432,-193.366 481.432,-187.366 481.432,-181.366"/>
<polyline fill="none" stroke="white" stroke-width="2" points="481.432,-181.366 481.432,-169.366 "/>
<path fill="none" stroke="white" stroke-width="2" d="M481.432,-169.366C481.432,-163.366 487.432,-157.366 493.432,-157.366"/>
<polyline fill="none" stroke="white" stroke-width="2" points="493.432,-157.366 524.432,-157.366 "/>
<path fill="none" stroke="white" stroke-width="2" d="M524.432,-157.366C530.432,-157.366 536.432,-163.366 536.432,-169.366"/>
<polyline fill="none" stroke="white" stroke-width="2" points="536.432,-169.366 536.432,-181.366 "/>
<path fill="none" stroke="white" stroke-width="2" d="M536.432,-181.366C536.432,-187.366 530.432,-193.366 524.432,-193.366"/>
<text text-anchor="middle" x="508.932" y="-172.866" font-family="Helvetica,sans-Serif" font-size="10.00">WRNIP1</text>
</a>
</g>
<!-- ELK4_ETV5_ELK1_ELK3_ELF4&#45;&gt;WRNIP1 -->
<g id="edge24" class="edge"><title>ELK4_ETV5_ELK1_ELK3_ELF4&#45;&gt;WRNIP1</title>
<a xlink:title="WRNIP1: 0.067||ELK4: 0.029||ELK1: 0.010||ELF4: 0.001||remove19root">
<path fill="none" stroke="#e8b7ff" stroke-width="3" d="M120.98,-267.843C157.521,-249.953 212.091,-225.373 262.374,-211.124 335.478,-190.439 424.051,-180.851 472.642,-176.857"/>
<path fill="none" stroke="#ebc3ff" stroke-width="3" d="M121.859,-269.639C158.343,-251.777 212.913,-227.196 262.919,-213.048 335.693,-192.427 424.266,-182.839 472.806,-178.85"/>
<polygon fill="#ebc3ff" stroke="#ebc3ff" points="119.845,-266.396 113.91,-272.448 122.324,-271.417 119.845,-266.396"/>
<polygon fill="#e8b7ff" stroke="#e8b7ff" points="472.987,-180.642 480.74,-177.216 472.543,-175.059 472.987,-180.642"/>
</a>
</g>
<!-- IKZF1&#45;&gt;TFAP4_MSC -->
<g id="edge44" class="edge"><title>IKZF1&#45;&gt;TFAP4_MSC</title>
<a xlink:title="MSC: 0.049||remove12root">
<path fill="none" stroke="#e9bdff" stroke-width="3" d="M106.195,-189.612C141.355,-207.409 204.932,-237.504 262.646,-253.846 331.205,-273.259 413.576,-282.896 463.553,-287.298"/>
<polygon fill="#e9bdff" stroke="#e9bdff" points="463.381,-290.093 471.591,-287.985 463.858,-284.514 463.381,-290.093"/>
</a>
</g>
<!-- IKZF1&#45;&gt;E2F3 -->
<g id="edge46" class="edge"><title>IKZF1&#45;&gt;E2F3</title>
<a xlink:title="E2F3: 0.102||remove23root">
<path fill="none" stroke="#e4adff" stroke-width="3" d="M106.131,-159.702C156.132,-130.834 262.702,-69.3056 317.488,-37.6748"/>
<polygon fill="#e4adff" stroke="#e4adff" points="319.016,-40.0258 324.545,-33.6008 316.216,-35.176 319.016,-40.0258"/>
</a>
</g>
<!-- IKZF1&#45;&gt;ZBTB6 -->
<g id="edge48" class="edge"><title>IKZF1&#45;&gt;ZBTB6</title>
<a xlink:title="ZBTB6: 0.160||remove27root">
<path fill="none" stroke="#9ba5ff" stroke-width="3" d="M106.226,-182.661C145.072,-193.07 216.413,-212.186 259.085,-223.62"/>
<polygon fill="#9ba5ff" stroke="#9ba5ff" points="258.509,-226.364 266.962,-225.73 259.959,-220.955 258.509,-226.364"/>
</a>
</g>
<!-- FOXM1_TBL1XR1&#45;&gt;ELK4_ETV5_ELK1_ELK3_ELF4 -->
<g id="edge34" class="edge"><title>FOXM1_TBL1XR1&#45;&gt;ELK4_ETV5_ELK1_ELK3_ELF4</title>
<a xlink:title="ELK4: 0.042||ETV5: 0.010||remove11root">
<path fill="none" stroke="#eabfff" stroke-width="3" d="M133.273,-93.7326C128.778,-117.466 120.181,-160.273 110.32,-196.246 103.894,-219.688 95.0562,-245.892 88.4066,-264.72"/>
<polygon fill="#eabfff" stroke="#eabfff" points="85.7506,-263.832 85.7042,-272.308 91.0261,-265.711 85.7506,-263.832"/>
</a>
</g>
<!-- FOXM1_TBL1XR1&#45;&gt;IKZF1 -->
<g id="edge38" class="edge"><title>FOXM1_TBL1XR1&#45;&gt;IKZF1</title>
<a xlink:title="IKZF1: 0.008||remove2root">
<path fill="none" stroke="#edc9ff" stroke-width="3" d="M126.035,-93.8986C116.941,-109.65 103.727,-132.538 93.6187,-150.046"/>
<polygon fill="#edc9ff" stroke="#edc9ff" points="91.0729,-148.855 89.4978,-157.183 95.9227,-151.655 91.0729,-148.855"/>
</a>
</g>
<!-- FOXM1_TBL1XR1&#45;&gt;TFAP4_MSC -->
<g id="edge40" class="edge"><title>FOXM1_TBL1XR1&#45;&gt;TFAP4_MSC</title>
<a xlink:title="MSC: 0.093||remove20root">
<path fill="none" stroke="#e5afff" stroke-width="3" d="M168.024,-93.7426C235.993,-132.985 396.49,-225.647 470.42,-268.331"/>
<polygon fill="#e5afff" stroke="#e5afff" points="469.396,-270.973 477.724,-272.548 472.196,-266.123 469.396,-270.973"/>
</a>
</g>
<!-- FOXM1_TBL1XR1&#45;&gt;ZBTB6 -->
<g id="edge42" class="edge"><title>FOXM1_TBL1XR1&#45;&gt;ZBTB6</title>
<a xlink:title="ZBTB6: 0.322||remove37root">
<path fill="none" stroke="#6a79ff" stroke-width="3" d="M154.652,-93.6519C182.959,-121.959 237.83,-176.83 269.607,-208.607"/>
<polygon fill="#6a79ff" stroke="#6a79ff" points="268.003,-210.963 275.64,-214.64 271.963,-207.003 268.003,-210.963"/>
</a>
</g>
<!-- FOXM1_TBL1XR1&#45;&gt;SMAD1 -->
<g id="edge36" class="edge"><title>FOXM1_TBL1XR1&#45;&gt;SMAD1</title>
<a xlink:title="SMAD1: 0.105||remove24root">
<path fill="none" stroke="#e4acff" stroke-width="3" d="M185.432,-75.6C249.317,-75.6 359.733,-75.6 416.063,-75.6"/>
<polygon fill="#e4acff" stroke="#e4acff" points="416.297,-78.4001 424.297,-75.6 416.297,-72.8001 416.297,-78.4001"/>
</a>
</g>
<!-- PITX1&#45;&gt;ZBTB6 -->
<g id="edge32" class="edge"><title>PITX1&#45;&gt;ZBTB6</title>
<a xlink:title="ZBTB6: 0.384||PITX1: 0.043||remove38root">
<path fill="none" stroke="#5768ff" stroke-width="3" d="M244.38,-44.043C255.459,-85.3931 276.828,-165.142 287.899,-206.459"/>
<path fill="none" stroke="#ffbebe" stroke-width="3" d="M242.448,-44.5606C253.527,-85.9107 274.896,-165.659 285.967,-206.976"/>
<polygon fill="#ffbebe" stroke="#ffbebe" points="246.052,-43.3306 241.277,-36.3279 240.643,-44.78 246.052,-43.3306"/>
<polygon fill="#5768ff" stroke="#5768ff" points="284.292,-207.682 289.068,-214.685 289.702,-206.233 284.292,-207.682"/>
</a>
</g>
<!-- E2F3&#45;&gt;ETS1 -->
<g id="edge64" class="edge"><title>E2F3&#45;&gt;ETS1</title>
<a xlink:title="ETS1: 0.034||remove8root">
<path fill="none" stroke="#ebc1ff" stroke-width="3" d="M341.052,-36.2104C305.836,-97.2067 191.964,-294.438 151.246,-364.965"/>
<polygon fill="#ebc1ff" stroke="#ebc1ff" points="148.669,-363.829 147.094,-372.157 153.518,-366.629 148.669,-363.829"/>
</a>
</g>
<!-- E2F3&#45;&gt;ZBTB6 -->
<g id="edge66" class="edge"><title>E2F3&#45;&gt;ZBTB6</title>
<a xlink:title="ZBTB6: 0.220||remove35root">
<path fill="none" stroke="#8995ff" stroke-width="3" d="M346.655,-36.3279C336.432,-74.482 312.833,-162.555 300.999,-206.718"/>
<polygon fill="#8995ff" stroke="#8995ff" points="298.231,-206.233 298.865,-214.685 303.64,-207.682 298.231,-206.233"/>
</a>
</g>
<!-- ZBTB6&#45;&gt;TFAP4_MSC -->
<g id="edge60" class="edge"><title>ZBTB6&#45;&gt;TFAP4_MSC</title>
<a xlink:title="MSC: 0.221||remove36root">
<path fill="none" stroke="#ff8989" stroke-width="3" d="M321.192,-240.261C357.034,-249.865 420.541,-266.882 463.667,-278.437"/>
<polygon fill="#ff8989" stroke="#ff8989" points="463.019,-281.162 471.471,-280.528 464.468,-275.753 463.019,-281.162"/>
</a>
</g>
<!-- CLOCK -->
<g id="node40" class="node"><title>CLOCK</title>
<a xlink:href="CLOCK.svg" xlink:title="Z&#45;value: 0.638||remove34">
<polygon fill="#a3acff" stroke="#a3acff" stroke-width="2" points="466.332,-408.332 436.332,-408.332 424.332,-396.332 424.332,-384.332 436.332,-372.332 466.332,-372.332 478.332,-384.332 478.332,-396.332 466.332,-408.332"/>
<path fill="#a3acff" stroke="#a3acff" stroke-width="2" d="M436.332,-408.332C430.332,-408.332 424.332,-402.332 424.332,-396.332"/>
<path fill="#a3acff" stroke="#a3acff" stroke-width="2" d="M424.332,-384.332C424.332,-378.332 430.332,-372.332 436.332,-372.332"/>
<path fill="#a3acff" stroke="#a3acff" stroke-width="2" d="M466.332,-372.332C472.332,-372.332 478.332,-378.332 478.332,-384.332"/>
<path fill="#a3acff" stroke="#a3acff" stroke-width="2" d="M478.332,-396.332C478.332,-402.332 472.332,-408.332 466.332,-408.332"/>
<polyline fill="none" stroke="white" stroke-width="2" points="466.332,-408.332 436.332,-408.332 "/>
<path fill="none" stroke="white" stroke-width="2" d="M436.332,-408.332C430.332,-408.332 424.332,-402.332 424.332,-396.332"/>
<polyline fill="none" stroke="white" stroke-width="2" points="424.332,-396.332 424.332,-384.332 "/>
<path fill="none" stroke="white" stroke-width="2" d="M424.332,-384.332C424.332,-378.332 430.332,-372.332 436.332,-372.332"/>
<polyline fill="none" stroke="white" stroke-width="2" points="436.332,-372.332 466.332,-372.332 "/>
<path fill="none" stroke="white" stroke-width="2" d="M466.332,-372.332C472.332,-372.332 478.332,-378.332 478.332,-384.332"/>
<polyline fill="none" stroke="white" stroke-width="2" points="478.332,-384.332 478.332,-396.332 "/>
<path fill="none" stroke="white" stroke-width="2" d="M478.332,-396.332C478.332,-402.332 472.332,-408.332 466.332,-408.332"/>
<text text-anchor="middle" x="451.332" y="-387.832" font-family="Helvetica,sans-Serif" font-size="10.00">CLOCK</text>
</a>
</g>
<!-- ZBTB6&#45;&gt;CLOCK -->
<g id="edge58" class="edge"><title>ZBTB6&#45;&gt;CLOCK</title>
<a xlink:title="CLOCK: 0.217||remove34root">
<path fill="none" stroke="#ff8a8a" stroke-width="3" d="M312.018,-251.018C340.325,-279.325 395.196,-334.196 426.973,-365.973"/>
<polygon fill="#ff8a8a" stroke="#ff8a8a" points="425.369,-368.329 433.006,-372.006 429.329,-364.369 425.369,-368.329"/>
</a>
</g>
<!-- NKX2&#45;3 -->
<g id="node43" class="node"><title>NKX2&#45;3</title>
<a xlink:href="NKX2-3.svg" xlink:title="Z&#45;value: 0.591||remove32">
<polygon fill="#a6aeff" stroke="#a6aeff" stroke-width="2" points="366.566,-465.932 336.566,-465.932 324.566,-453.932 324.566,-441.932 336.566,-429.932 366.566,-429.932 378.566,-441.932 378.566,-453.932 366.566,-465.932"/>
<path fill="#a6aeff" stroke="#a6aeff" stroke-width="2" d="M336.566,-465.932C330.566,-465.932 324.566,-459.932 324.566,-453.932"/>
<path fill="#a6aeff" stroke="#a6aeff" stroke-width="2" d="M324.566,-441.932C324.566,-435.932 330.566,-429.932 336.566,-429.932"/>
<path fill="#a6aeff" stroke="#a6aeff" stroke-width="2" d="M366.566,-429.932C372.566,-429.932 378.566,-435.932 378.566,-441.932"/>
<path fill="#a6aeff" stroke="#a6aeff" stroke-width="2" d="M378.566,-453.932C378.566,-459.932 372.566,-465.932 366.566,-465.932"/>
<polyline fill="none" stroke="white" stroke-width="2" points="366.566,-465.932 336.566,-465.932 "/>
<path fill="none" stroke="white" stroke-width="2" d="M336.566,-465.932C330.566,-465.932 324.566,-459.932 324.566,-453.932"/>
<polyline fill="none" stroke="white" stroke-width="2" points="324.566,-453.932 324.566,-441.932 "/>
<path fill="none" stroke="white" stroke-width="2" d="M324.566,-441.932C324.566,-435.932 330.566,-429.932 336.566,-429.932"/>
<polyline fill="none" stroke="white" stroke-width="2" points="336.566,-429.932 366.566,-429.932 "/>
<path fill="none" stroke="white" stroke-width="2" d="M366.566,-429.932C372.566,-429.932 378.566,-435.932 378.566,-441.932"/>
<polyline fill="none" stroke="white" stroke-width="2" points="378.566,-441.932 378.566,-453.932 "/>
<path fill="none" stroke="white" stroke-width="2" d="M378.566,-453.932C378.566,-459.932 372.566,-465.932 366.566,-465.932"/>
<text text-anchor="middle" x="351.566" y="-445.432" font-family="Helvetica,sans-Serif" font-size="10.00">NKX2&#45;3</text>
</a>
</g>
<!-- ZBTB6&#45;&gt;NKX2&#45;3 -->
<g id="edge62" class="edge"><title>ZBTB6&#45;&gt;NKX2&#45;3</title>
<a xlink:title="NKX2&#45;3: 0.203||remove32root">
<path fill="none" stroke="#ff8e8e" stroke-width="3" d="M298.877,-251.294C309.1,-289.448 332.699,-377.521 344.533,-421.684"/>
<polygon fill="#ff8e8e" stroke="#ff8e8e" points="341.892,-422.648 346.668,-429.651 347.302,-421.199 341.892,-422.648"/>
</a>
</g>
<!-- SMAD1&#45;&gt;TFAP4_MSC -->
<g id="edge68" class="edge"><title>SMAD1&#45;&gt;TFAP4_MSC</title>
<a xlink:title="MSC: 0.034||remove9root">
<path fill="none" stroke="#ebc1ff" stroke-width="3" d="M454.374,-93.7571C458.522,-117.516 466.578,-160.353 476.452,-196.246 482.924,-219.77 492.108,-245.966 499.061,-264.77"/>
<polygon fill="#ebc1ff" stroke="#ebc1ff" points="496.468,-265.831 501.889,-272.347 501.714,-263.872 496.468,-265.831"/>
</a>
</g>
<!-- SMAD1&#45;&gt;ZBTB6 -->
<g id="edge70" class="edge"><title>SMAD1&#45;&gt;ZBTB6</title>
<a xlink:title="ZBTB6: 0.156||remove26root">
<path fill="none" stroke="#9ca6ff" stroke-width="3" d="M433.28,-93.6519C404.974,-121.959 350.102,-176.83 318.325,-208.607"/>
<polygon fill="#9ca6ff" stroke="#9ca6ff" points="315.969,-207.003 312.292,-214.64 319.929,-210.963 315.969,-207.003"/>
</a>
</g>
<!-- WRNIP1&#45;&gt;ZNF711_TFAP2A_TFAP2D -->
<g id="edge80" class="edge"><title>WRNIP1&#45;&gt;ZNF711_TFAP2A_TFAP2D</title>
<a xlink:title="TFAP2A: 0.066||remove18root">
<path fill="none" stroke="#e8b8ff" stroke-width="3" d="M490.625,-193.673C442.814,-241.485 314.189,-370.11 260.463,-423.836"/>
<polygon fill="#e8b8ff" stroke="#e8b8ff" points="258.27,-422.068 254.594,-429.705 262.23,-426.028 258.27,-422.068"/>
</a>
</g>
<!-- WRNIP1&#45;&gt;FOXM1_TBL1XR1 -->
<g id="edge76" class="edge"><title>WRNIP1&#45;&gt;FOXM1_TBL1XR1</title>
<a xlink:title="FOXM1: 0.028||TBL1XR1: 0.019||remove5root">
<path fill="none" stroke="#ebc3ff" stroke-width="3" d="M481.251,-167.949C420.475,-151.664 274.338,-112.507 193.234,-90.775"/>
<polygon fill="#ebc3ff" stroke="#ebc3ff" points="193.566,-87.9653 185.114,-88.5993 192.117,-93.3745 193.566,-87.9653"/>
</a>
</g>
<!-- WRNIP1&#45;&gt;TFAP4_MSC -->
<g id="edge78" class="edge"><title>WRNIP1&#45;&gt;TFAP4_MSC</title>
<a xlink:title="TFAP4: 0.063||MSC: 0.010||remove17root">
<path fill="none" stroke="#e8b8ff" stroke-width="3" d="M508.932,-193.366C508.932,-212.36 508.932,-242.49 508.932,-264.171"/>
<polygon fill="#e8b8ff" stroke="#e8b8ff" points="506.132,-264.312 508.932,-272.312 511.732,-264.312 506.132,-264.312"/>
</a>
</g>
<!-- WRNIP1&#45;&gt;E2F3 -->
<g id="edge84" class="edge"><title>WRNIP1&#45;&gt;E2F3</title>
<a xlink:title="E2F3: 0.031||remove6root">
<path fill="none" stroke="#ebc2ff" stroke-width="3" d="M487.032,-157.298C468.59,-141.767 441.808,-118.461 420.012,-96.48 402.859,-79.1812 384.8,-58.3496 371.541,-42.4971"/>
<polygon fill="#ebc2ff" stroke="#ebc2ff" points="373.436,-40.3961 366.169,-36.0329 369.129,-43.9752 373.436,-40.3961"/>
</a>
</g>
<!-- WRNIP1&#45;&gt;ZBTB6 -->
<g id="edge86" class="edge"><title>WRNIP1&#45;&gt;ZBTB6</title>
<a xlink:title="ZBTB6: 0.164||remove30root">
<path fill="none" stroke="#9aa4ff" stroke-width="3" d="M481.269,-182.778C442.386,-193.197 371.573,-212.171 329.039,-223.568"/>
<polygon fill="#9aa4ff" stroke="#9aa4ff" points="328.187,-220.898 321.184,-225.673 329.636,-226.307 328.187,-220.898"/>
</a>
</g>
<!-- WRNIP1&#45;&gt;SMAD1 -->
<g id="edge72" class="edge"><title>WRNIP1&#45;&gt;SMAD1</title>
<a xlink:title="SMAD1: 0.023||remove4root">
<path fill="none" stroke="#ecc4ff" stroke-width="3" d="M498.368,-157.067C489.274,-141.317 476.059,-118.429 465.951,-100.92"/>
<polygon fill="#ecc4ff" stroke="#ecc4ff" points="468.255,-99.3108 461.83,-93.7826 463.405,-102.111 468.255,-99.3108"/>
</a>
</g>
<!-- WRNIP1&#45;&gt;WRNIP1 -->
<g id="edge74" class="edge"><title>WRNIP1&#45;&gt;WRNIP1</title>
<a xlink:title="WRNIP1: 0.003||remove0root">
<path fill="none" stroke="#eecbff" stroke-width="3" d="M536.616,-182.114C546.196,-182.186 553.932,-179.936 553.932,-175.366 553.932,-172.224 550.276,-170.179 544.877,-169.231"/>
<polygon fill="#eecbff" stroke="#eecbff" points="544.802,-166.418 536.616,-168.618 544.387,-172.002 544.802,-166.418"/>
</a>
</g>
<!-- WRNIP1&#45;&gt;NKX2&#45;3 -->
<g id="edge82" class="edge"><title>WRNIP1&#45;&gt;NKX2&#45;3</title>
<a xlink:title="NKX2&#45;3: 0.040||remove10root">
<path fill="none" stroke="#eabfff" stroke-width="3" d="M498.363,-193.673C470.983,-241.097 397.699,-368.028 366.242,-422.513"/>
<polygon fill="#eabfff" stroke="#eabfff" points="363.665,-421.377 362.09,-429.705 368.515,-424.177 363.665,-421.377"/>
</a>
</g>
<!-- NKX2&#45;3&#45;&gt;SMAD1 -->
<g id="edge88" class="edge"><title>NKX2&#45;3&#45;&gt;SMAD1</title>
<a xlink:title="SMAD1: 0.057||remove14root">
<path fill="none" stroke="#e9baff" stroke-width="3" d="M356.446,-429.722C372.723,-368.973 425.21,-173.089 444.304,-101.83"/>
<polygon fill="#e9baff" stroke="#e9baff" points="447.096,-102.227 446.462,-93.7754 441.687,-100.778 447.096,-102.227"/>
</a>
</g>
</g>
</svg>
