<?xml version="1.0" encoding="UTF-8" standalone="no"?>
<!DOCTYPE svg PUBLIC "-//W3C//DTD SVG 1.1//EN"
 "http://www.w3.org/Graphics/SVG/1.1/DTD/svg11.dtd">
<!-- Generated by graphviz version 2.28.0 (20110630.0925)
 -->
<!-- Title: _anonymous_0 Pages: 1 -->
<svg width="538pt" height="434pt"
 viewBox="0.00 0.00 538.13 433.63" xmlns="http://www.w3.org/2000/svg" xmlns:xlink="http://www.w3.org/1999/xlink">
<g id="graph1" class="graph" transform="scale(1 1) rotate(0) translate(4 429.626)">
<title>_anonymous_0</title>
<polygon fill="white" stroke="white" points="-4,5 -4,-429.626 535.126,-429.626 535.126,5 -4,5"/>
<!-- ZNF711_TFAP2A_TFAP2D -->
<g id="node1" class="node"><title>ZNF711_TFAP2A_TFAP2D</title>
<a xlink:href="ZNF711_TFAP2A_TFAP2D.svg" xlink:title="Z&#45;value: 2.387||remove32">
<polygon fill="#ff3232" stroke="#ff3232" stroke-width="2" points="352.813,-230.813 238.813,-230.813 226.813,-218.813 226.813,-206.813 238.813,-194.813 352.813,-194.813 364.813,-206.813 364.813,-218.813 352.813,-230.813"/>
<path fill="#ff3232" stroke="#ff3232" stroke-width="2" d="M238.813,-230.813C232.813,-230.813 226.813,-224.813 226.813,-218.813"/>
<path fill="#ff3232" stroke="#ff3232" stroke-width="2" d="M226.813,-206.813C226.813,-200.813 232.813,-194.813 238.813,-194.813"/>
<path fill="#ff3232" stroke="#ff3232" stroke-width="2" d="M352.813,-194.813C358.813,-194.813 364.813,-200.813 364.813,-206.813"/>
<path fill="#ff3232" stroke="#ff3232" stroke-width="2" d="M364.813,-218.813C364.813,-224.813 358.813,-230.813 352.813,-230.813"/>
<polyline fill="none" stroke="white" stroke-width="2" points="352.813,-230.813 238.813,-230.813 "/>
<path fill="none" stroke="white" stroke-width="2" d="M238.813,-230.813C232.813,-230.813 226.813,-224.813 226.813,-218.813"/>
<polyline fill="none" stroke="white" stroke-width="2" points="226.813,-218.813 226.813,-206.813 "/>
<path fill="none" stroke="white" stroke-width="2" d="M226.813,-206.813C226.813,-200.813 232.813,-194.813 238.813,-194.813"/>
<polyline fill="none" stroke="white" stroke-width="2" points="238.813,-194.813 352.813,-194.813 "/>
<path fill="none" stroke="white" stroke-width="2" d="M352.813,-194.813C358.813,-194.813 364.813,-200.813 364.813,-206.813"/>
<polyline fill="none" stroke="white" stroke-width="2" points="364.813,-206.813 364.813,-218.813 "/>
<path fill="none" stroke="white" stroke-width="2" d="M364.813,-218.813C364.813,-224.813 358.813,-230.813 352.813,-230.813"/>
<text text-anchor="middle" x="295.813" y="-210.313" font-family="Helvetica,sans-Serif" font-size="10.00" fill="white">ZNF711_TFAP2A_TFAP2D</text>
</a>
</g>
<!-- ZNF711_TFAP2A_TFAP2D&#45;&gt;ZNF711_TFAP2A_TFAP2D -->
<g id="edge8" class="edge"><title>ZNF711_TFAP2A_TFAP2D&#45;&gt;ZNF711_TFAP2A_TFAP2D</title>
<a xlink:title="TFAP2A: 0.506||ZNF711: 0.089||remove18root">
<path fill="none" stroke="#ffb9b9" stroke-width="3" d="M365.088,-218.968C375.644,-218.029 382.813,-215.977 382.813,-212.813 382.813,-210.539 379.11,-208.839 373.107,-207.714"/>
<polygon fill="#ffb9b9" stroke="#ffb9b9" points="373.385,-204.927 365.088,-206.658 372.653,-210.479 373.385,-204.927"/>
</a>
</g>
<!-- GRHL1 -->
<g id="node2" class="node"><title>GRHL1</title>
<a xlink:href="GRHL1.svg" xlink:title="Z&#45;value: 0.930||remove27">
<polygon fill="#909bff" stroke="#909bff" stroke-width="2" points="505.626,-283.013 475.626,-283.013 463.626,-271.013 463.626,-259.013 475.626,-247.013 505.626,-247.013 517.626,-259.013 517.626,-271.013 505.626,-283.013"/>
<path fill="#909bff" stroke="#909bff" stroke-width="2" d="M475.626,-283.013C469.626,-283.013 463.626,-277.013 463.626,-271.013"/>
<path fill="#909bff" stroke="#909bff" stroke-width="2" d="M463.626,-259.013C463.626,-253.013 469.626,-247.013 475.626,-247.013"/>
<path fill="#909bff" stroke="#909bff" stroke-width="2" d="M505.626,-247.013C511.626,-247.013 517.626,-253.013 517.626,-259.013"/>
<path fill="#909bff" stroke="#909bff" stroke-width="2" d="M517.626,-271.013C517.626,-277.013 511.626,-283.013 505.626,-283.013"/>
<polyline fill="none" stroke="white" stroke-width="2" points="505.626,-283.013 475.626,-283.013 "/>
<path fill="none" stroke="white" stroke-width="2" d="M475.626,-283.013C469.626,-283.013 463.626,-277.013 463.626,-271.013"/>
<polyline fill="none" stroke="white" stroke-width="2" points="463.626,-271.013 463.626,-259.013 "/>
<path fill="none" stroke="white" stroke-width="2" d="M463.626,-259.013C463.626,-253.013 469.626,-247.013 475.626,-247.013"/>
<polyline fill="none" stroke="white" stroke-width="2" points="475.626,-247.013 505.626,-247.013 "/>
<path fill="none" stroke="white" stroke-width="2" d="M505.626,-247.013C511.626,-247.013 517.626,-253.013 517.626,-259.013"/>
<polyline fill="none" stroke="white" stroke-width="2" points="517.626,-259.013 517.626,-271.013 "/>
<path fill="none" stroke="white" stroke-width="2" d="M517.626,-271.013C517.626,-277.013 511.626,-283.013 505.626,-283.013"/>
<text text-anchor="middle" x="490.626" y="-262.513" font-family="Helvetica,sans-Serif" font-size="10.00">GRHL1</text>
</a>
</g>
<!-- ZNF711_TFAP2A_TFAP2D&#45;&gt;GRHL1 -->
<g id="edge2" class="edge"><title>ZNF711_TFAP2A_TFAP2D&#45;&gt;GRHL1</title>
<a xlink:title="GRHL1: 2.147||remove27root">
<path fill="none" stroke="#ff7f7f" stroke-width="3" d="M363.129,-230.85C394.092,-239.147 429.553,-248.649 455.204,-255.522"/>
<polygon fill="#ff7f7f" stroke="#ff7f7f" points="454.717,-258.29 463.169,-257.656 456.166,-252.881 454.717,-258.29"/>
</a>
</g>
<!-- E2F2_E2F5 -->
<g id="node4" class="node"><title>E2F2_E2F5</title>
<a xlink:href="E2F2_E2F5.svg" xlink:title="Z&#45;value: 0.434||remove29">
<polygon fill="#b0b8ff" stroke="#b0b8ff" stroke-width="2" points="460.426,-373.426 416.426,-373.426 404.426,-361.426 404.426,-349.426 416.426,-337.426 460.426,-337.426 472.426,-349.426 472.426,-361.426 460.426,-373.426"/>
<path fill="#b0b8ff" stroke="#b0b8ff" stroke-width="2" d="M416.426,-373.426C410.426,-373.426 404.426,-367.426 404.426,-361.426"/>
<path fill="#b0b8ff" stroke="#b0b8ff" stroke-width="2" d="M404.426,-349.426C404.426,-343.426 410.426,-337.426 416.426,-337.426"/>
<path fill="#b0b8ff" stroke="#b0b8ff" stroke-width="2" d="M460.426,-337.426C466.426,-337.426 472.426,-343.426 472.426,-349.426"/>
<path fill="#b0b8ff" stroke="#b0b8ff" stroke-width="2" d="M472.426,-361.426C472.426,-367.426 466.426,-373.426 460.426,-373.426"/>
<polyline fill="none" stroke="white" stroke-width="2" points="460.426,-373.426 416.426,-373.426 "/>
<path fill="none" stroke="white" stroke-width="2" d="M416.426,-373.426C410.426,-373.426 404.426,-367.426 404.426,-361.426"/>
<polyline fill="none" stroke="white" stroke-width="2" points="404.426,-361.426 404.426,-349.426 "/>
<path fill="none" stroke="white" stroke-width="2" d="M404.426,-349.426C404.426,-343.426 410.426,-337.426 416.426,-337.426"/>
<polyline fill="none" stroke="white" stroke-width="2" points="416.426,-337.426 460.426,-337.426 "/>
<path fill="none" stroke="white" stroke-width="2" d="M460.426,-337.426C466.426,-337.426 472.426,-343.426 472.426,-349.426"/>
<polyline fill="none" stroke="white" stroke-width="2" points="472.426,-349.426 472.426,-361.426 "/>
<path fill="none" stroke="white" stroke-width="2" d="M472.426,-361.426C472.426,-367.426 466.426,-373.426 460.426,-373.426"/>
<text text-anchor="middle" x="438.426" y="-352.926" font-family="Helvetica,sans-Serif" font-size="10.00">E2F2_E2F5</text>
</a>
</g>
<!-- ZNF711_TFAP2A_TFAP2D&#45;&gt;E2F2_E2F5 -->
<g id="edge4" class="edge"><title>ZNF711_TFAP2A_TFAP2D&#45;&gt;E2F2_E2F5</title>
<a xlink:title="E2F2: 2.466||remove29root">
<path fill="none" stroke="#ff7474" stroke-width="3" d="M313.875,-230.875C339.346,-256.346 385.874,-302.874 414.286,-331.286"/>
<polygon fill="#ff7474" stroke="#ff7474" points="412.423,-333.383 420.06,-337.06 416.383,-329.423 412.423,-333.383"/>
</a>
</g>
<!-- OVOL1 -->
<g id="node6" class="node"><title>OVOL1</title>
<a xlink:href="OVOL1.svg" xlink:title="Z&#45;value: 0.157||remove20">
<polygon fill="#c1c8ff" stroke="#c1c8ff" stroke-width="2" points="363.013,-425.626 333.013,-425.626 321.013,-413.626 321.013,-401.626 333.013,-389.626 363.013,-389.626 375.013,-401.626 375.013,-413.626 363.013,-425.626"/>
<path fill="#c1c8ff" stroke="#c1c8ff" stroke-width="2" d="M333.013,-425.626C327.013,-425.626 321.013,-419.626 321.013,-413.626"/>
<path fill="#c1c8ff" stroke="#c1c8ff" stroke-width="2" d="M321.013,-401.626C321.013,-395.626 327.013,-389.626 333.013,-389.626"/>
<path fill="#c1c8ff" stroke="#c1c8ff" stroke-width="2" d="M363.013,-389.626C369.013,-389.626 375.013,-395.626 375.013,-401.626"/>
<path fill="#c1c8ff" stroke="#c1c8ff" stroke-width="2" d="M375.013,-413.626C375.013,-419.626 369.013,-425.626 363.013,-425.626"/>
<polyline fill="none" stroke="white" stroke-width="2" points="363.013,-425.626 333.013,-425.626 "/>
<path fill="none" stroke="white" stroke-width="2" d="M333.013,-425.626C327.013,-425.626 321.013,-419.626 321.013,-413.626"/>
<polyline fill="none" stroke="white" stroke-width="2" points="321.013,-413.626 321.013,-401.626 "/>
<path fill="none" stroke="white" stroke-width="2" d="M321.013,-401.626C321.013,-395.626 327.013,-389.626 333.013,-389.626"/>
<polyline fill="none" stroke="white" stroke-width="2" points="333.013,-389.626 363.013,-389.626 "/>
<path fill="none" stroke="white" stroke-width="2" d="M363.013,-389.626C369.013,-389.626 375.013,-395.626 375.013,-401.626"/>
<polyline fill="none" stroke="white" stroke-width="2" points="375.013,-401.626 375.013,-413.626 "/>
<path fill="none" stroke="white" stroke-width="2" d="M375.013,-413.626C375.013,-419.626 369.013,-425.626 363.013,-425.626"/>
<text text-anchor="middle" x="348.013" y="-405.126" font-family="Helvetica,sans-Serif" font-size="10.00">OVOL1</text>
</a>
</g>
<!-- ZNF711_TFAP2A_TFAP2D&#45;&gt;OVOL1 -->
<g id="edge6" class="edge"><title>ZNF711_TFAP2A_TFAP2D&#45;&gt;OVOL1</title>
<a xlink:title="OVOL1: 1.347||remove20root">
<path fill="none" stroke="#ff9b9b" stroke-width="3" d="M300.724,-231.141C310.036,-265.893 330.286,-341.468 341.016,-381.511"/>
<polygon fill="#ff9b9b" stroke="#ff9b9b" points="338.378,-382.487 343.153,-389.489 343.787,-381.037 338.378,-382.487"/>
</a>
</g>
<!-- RXRA_NR2F6_NR2C2 -->
<g id="node9" class="node"><title>RXRA_NR2F6_NR2C2</title>
<a xlink:href="RXRA_NR2F6_NR2C2.svg" xlink:title="Z&#45;value: 0.563||remove28">
<polygon fill="#a7b0ff" stroke="#a7b0ff" stroke-width="2" points="291.113,-425.626 196.113,-425.626 184.113,-413.626 184.113,-401.626 196.113,-389.626 291.113,-389.626 303.113,-401.626 303.113,-413.626 291.113,-425.626"/>
<path fill="#a7b0ff" stroke="#a7b0ff" stroke-width="2" d="M196.113,-425.626C190.113,-425.626 184.113,-419.626 184.113,-413.626"/>
<path fill="#a7b0ff" stroke="#a7b0ff" stroke-width="2" d="M184.113,-401.626C184.113,-395.626 190.113,-389.626 196.113,-389.626"/>
<path fill="#a7b0ff" stroke="#a7b0ff" stroke-width="2" d="M291.113,-389.626C297.113,-389.626 303.113,-395.626 303.113,-401.626"/>
<path fill="#a7b0ff" stroke="#a7b0ff" stroke-width="2" d="M303.113,-413.626C303.113,-419.626 297.113,-425.626 291.113,-425.626"/>
<polyline fill="none" stroke="white" stroke-width="2" points="291.113,-425.626 196.113,-425.626 "/>
<path fill="none" stroke="white" stroke-width="2" d="M196.113,-425.626C190.113,-425.626 184.113,-419.626 184.113,-413.626"/>
<polyline fill="none" stroke="white" stroke-width="2" points="184.113,-413.626 184.113,-401.626 "/>
<path fill="none" stroke="white" stroke-width="2" d="M184.113,-401.626C184.113,-395.626 190.113,-389.626 196.113,-389.626"/>
<polyline fill="none" stroke="white" stroke-width="2" points="196.113,-389.626 291.113,-389.626 "/>
<path fill="none" stroke="white" stroke-width="2" d="M291.113,-389.626C297.113,-389.626 303.113,-395.626 303.113,-401.626"/>
<polyline fill="none" stroke="white" stroke-width="2" points="303.113,-401.626 303.113,-413.626 "/>
<path fill="none" stroke="white" stroke-width="2" d="M303.113,-413.626C303.113,-419.626 297.113,-425.626 291.113,-425.626"/>
<text text-anchor="middle" x="243.613" y="-405.126" font-family="Helvetica,sans-Serif" font-size="10.00">RXRA_NR2F6_NR2C2</text>
</a>
</g>
<!-- ZNF711_TFAP2A_TFAP2D&#45;&gt;RXRA_NR2F6_NR2C2 -->
<g id="edge10" class="edge"><title>ZNF711_TFAP2A_TFAP2D&#45;&gt;RXRA_NR2F6_NR2C2</title>
<a xlink:title="NR2F6: 2.399||NR2C2: 0.835||RXRA: 0.314||remove28root">
<path fill="none" stroke="#ff7676" stroke-width="3" d="M290.902,-231.141C281.59,-265.893 261.34,-341.468 250.611,-381.511"/>
<polygon fill="#ff7676" stroke="#ff7676" points="247.839,-381.037 248.473,-389.489 253.248,-382.487 247.839,-381.037"/>
</a>
</g>
<!-- MEF2D_MEF2A -->
<g id="node11" class="node"><title>MEF2D_MEF2A</title>
<a xlink:href="MEF2D_MEF2A.svg" xlink:title="Z&#45;value: 0.591||remove30">
<polygon fill="#a6aeff" stroke="#a6aeff" stroke-width="2" points="185.45,-373.426 120.95,-373.426 108.95,-361.426 108.95,-349.426 120.95,-337.426 185.45,-337.426 197.45,-349.426 197.45,-361.426 185.45,-373.426"/>
<path fill="#a6aeff" stroke="#a6aeff" stroke-width="2" d="M120.95,-373.426C114.95,-373.426 108.95,-367.426 108.95,-361.426"/>
<path fill="#a6aeff" stroke="#a6aeff" stroke-width="2" d="M108.95,-349.426C108.95,-343.426 114.95,-337.426 120.95,-337.426"/>
<path fill="#a6aeff" stroke="#a6aeff" stroke-width="2" d="M185.45,-337.426C191.45,-337.426 197.45,-343.426 197.45,-349.426"/>
<path fill="#a6aeff" stroke="#a6aeff" stroke-width="2" d="M197.45,-361.426C197.45,-367.426 191.45,-373.426 185.45,-373.426"/>
<polyline fill="none" stroke="white" stroke-width="2" points="185.45,-373.426 120.95,-373.426 "/>
<path fill="none" stroke="white" stroke-width="2" d="M120.95,-373.426C114.95,-373.426 108.95,-367.426 108.95,-361.426"/>
<polyline fill="none" stroke="white" stroke-width="2" points="108.95,-361.426 108.95,-349.426 "/>
<path fill="none" stroke="white" stroke-width="2" d="M108.95,-349.426C108.95,-343.426 114.95,-337.426 120.95,-337.426"/>
<polyline fill="none" stroke="white" stroke-width="2" points="120.95,-337.426 185.45,-337.426 "/>
<path fill="none" stroke="white" stroke-width="2" d="M185.45,-337.426C191.45,-337.426 197.45,-343.426 197.45,-349.426"/>
<polyline fill="none" stroke="white" stroke-width="2" points="197.45,-349.426 197.45,-361.426 "/>
<path fill="none" stroke="white" stroke-width="2" d="M197.45,-361.426C197.45,-367.426 191.45,-373.426 185.45,-373.426"/>
<text text-anchor="middle" x="153.2" y="-352.926" font-family="Helvetica,sans-Serif" font-size="10.00">MEF2D_MEF2A</text>
</a>
</g>
<!-- ZNF711_TFAP2A_TFAP2D&#45;&gt;MEF2D_MEF2A -->
<g id="edge12" class="edge"><title>ZNF711_TFAP2A_TFAP2D&#45;&gt;MEF2D_MEF2A</title>
<a xlink:title="MEF2A: 2.781||remove30root">
<path fill="none" stroke="#ff6868" stroke-width="3" d="M277.751,-230.875C252.28,-256.346 205.752,-302.874 177.34,-331.286"/>
<polygon fill="#ff6868" stroke="#ff6868" points="175.243,-329.423 171.566,-337.06 179.203,-333.383 175.243,-329.423"/>
</a>
</g>
<!-- FOXD1_FOXO1_FOXO6_FOXG1_FOXP1 -->
<g id="node13" class="node"><title>FOXD1_FOXO1_FOXO6_FOXG1_FOXP1</title>
<a xlink:href="FOXD1_FOXO1_FOXO6_FOXG1_FOXP1.svg" xlink:title="Z&#45;value: 0.656||remove21">
<polygon fill="#a1abff" stroke="#a1abff" stroke-width="2" points="190,-283.013 12,-283.013 0,-271.013 0,-259.013 12,-247.013 190,-247.013 202,-259.013 202,-271.013 190,-283.013"/>
<path fill="#a1abff" stroke="#a1abff" stroke-width="2" d="M12,-283.013C6,-283.013 0,-277.013 0,-271.013"/>
<path fill="#a1abff" stroke="#a1abff" stroke-width="2" d="M0,-259.013C0,-253.013 6,-247.013 12,-247.013"/>
<path fill="#a1abff" stroke="#a1abff" stroke-width="2" d="M190,-247.013C196,-247.013 202,-253.013 202,-259.013"/>
<path fill="#a1abff" stroke="#a1abff" stroke-width="2" d="M202,-271.013C202,-277.013 196,-283.013 190,-283.013"/>
<polyline fill="none" stroke="white" stroke-width="2" points="190,-283.013 12,-283.013 "/>
<path fill="none" stroke="white" stroke-width="2" d="M12,-283.013C6,-283.013 0,-277.013 0,-271.013"/>
<polyline fill="none" stroke="white" stroke-width="2" points="0,-271.013 0,-259.013 "/>
<path fill="none" stroke="white" stroke-width="2" d="M0,-259.013C0,-253.013 6,-247.013 12,-247.013"/>
<polyline fill="none" stroke="white" stroke-width="2" points="12,-247.013 190,-247.013 "/>
<path fill="none" stroke="white" stroke-width="2" d="M190,-247.013C196,-247.013 202,-253.013 202,-259.013"/>
<polyline fill="none" stroke="white" stroke-width="2" points="202,-259.013 202,-271.013 "/>
<path fill="none" stroke="white" stroke-width="2" d="M202,-271.013C202,-277.013 196,-283.013 190,-283.013"/>
<text text-anchor="middle" x="101" y="-262.513" font-family="Helvetica,sans-Serif" font-size="10.00">FOXD1_FOXO1_FOXO6_FOXG1_FOXP1</text>
</a>
</g>
<!-- ZNF711_TFAP2A_TFAP2D&#45;&gt;FOXD1_FOXO1_FOXO6_FOXG1_FOXP1 -->
<g id="edge14" class="edge"><title>ZNF711_TFAP2A_TFAP2D&#45;&gt;FOXD1_FOXO1_FOXO6_FOXG1_FOXP1</title>
<a xlink:title="FOXP1: 1.482||FOXO6: 1.204||FOXO1: 0.200||FOXG1: 0.121||remove21root">
<path fill="none" stroke="#ff9797" stroke-width="3" d="M228.497,-230.85C211.616,-235.374 193.397,-240.255 176.161,-244.874"/>
<polygon fill="#ff9797" stroke="#ff9797" points="175.322,-242.2 168.319,-246.975 176.771,-247.609 175.322,-242.2"/>
</a>
</g>
<!-- JUND -->
<g id="node15" class="node"><title>JUND</title>
<a xlink:href="JUND.svg" xlink:title="Z&#45;value: 0.652||remove26">
<polygon fill="#a2abff" stroke="#a2abff" stroke-width="2" points="116,-178.613 86,-178.613 74,-166.613 74,-154.613 86,-142.613 116,-142.613 128,-154.613 128,-166.613 116,-178.613"/>
<path fill="#a2abff" stroke="#a2abff" stroke-width="2" d="M86,-178.613C80,-178.613 74,-172.613 74,-166.613"/>
<path fill="#a2abff" stroke="#a2abff" stroke-width="2" d="M74,-154.613C74,-148.613 80,-142.613 86,-142.613"/>
<path fill="#a2abff" stroke="#a2abff" stroke-width="2" d="M116,-142.613C122,-142.613 128,-148.613 128,-154.613"/>
<path fill="#a2abff" stroke="#a2abff" stroke-width="2" d="M128,-166.613C128,-172.613 122,-178.613 116,-178.613"/>
<polyline fill="none" stroke="white" stroke-width="2" points="116,-178.613 86,-178.613 "/>
<path fill="none" stroke="white" stroke-width="2" d="M86,-178.613C80,-178.613 74,-172.613 74,-166.613"/>
<polyline fill="none" stroke="white" stroke-width="2" points="74,-166.613 74,-154.613 "/>
<path fill="none" stroke="white" stroke-width="2" d="M74,-154.613C74,-148.613 80,-142.613 86,-142.613"/>
<polyline fill="none" stroke="white" stroke-width="2" points="86,-142.613 116,-142.613 "/>
<path fill="none" stroke="white" stroke-width="2" d="M116,-142.613C122,-142.613 128,-148.613 128,-154.613"/>
<polyline fill="none" stroke="white" stroke-width="2" points="128,-154.613 128,-166.613 "/>
<path fill="none" stroke="white" stroke-width="2" d="M128,-166.613C128,-172.613 122,-178.613 116,-178.613"/>
<text text-anchor="middle" x="101" y="-158.113" font-family="Helvetica,sans-Serif" font-size="10.00">JUND</text>
</a>
</g>
<!-- ZNF711_TFAP2A_TFAP2D&#45;&gt;JUND -->
<g id="edge16" class="edge"><title>ZNF711_TFAP2A_TFAP2D&#45;&gt;JUND</title>
<a xlink:title="JUND: 2.132||remove26root">
<path fill="none" stroke="#ff8080" stroke-width="3" d="M228.497,-194.776C197.534,-186.479 162.073,-176.977 136.422,-170.104"/>
<polygon fill="#ff8080" stroke="#ff8080" points="136.909,-167.336 128.457,-167.97 135.46,-172.745 136.909,-167.336"/>
</a>
</g>
<!-- GZF1 -->
<g id="node17" class="node"><title>GZF1</title>
<a xlink:href="GZF1.svg" xlink:title="Z&#45;value: 0.286||remove24">
<polygon fill="#b9c0ff" stroke="#b9c0ff" stroke-width="2" points="168.2,-88.2 138.2,-88.2 126.2,-76.2 126.2,-64.2 138.2,-52.2 168.2,-52.2 180.2,-64.2 180.2,-76.2 168.2,-88.2"/>
<path fill="#b9c0ff" stroke="#b9c0ff" stroke-width="2" d="M138.2,-88.2C132.2,-88.2 126.2,-82.2 126.2,-76.2"/>
<path fill="#b9c0ff" stroke="#b9c0ff" stroke-width="2" d="M126.2,-64.2C126.2,-58.2 132.2,-52.2 138.2,-52.2"/>
<path fill="#b9c0ff" stroke="#b9c0ff" stroke-width="2" d="M168.2,-52.2C174.2,-52.2 180.2,-58.2 180.2,-64.2"/>
<path fill="#b9c0ff" stroke="#b9c0ff" stroke-width="2" d="M180.2,-76.2C180.2,-82.2 174.2,-88.2 168.2,-88.2"/>
<polyline fill="none" stroke="white" stroke-width="2" points="168.2,-88.2 138.2,-88.2 "/>
<path fill="none" stroke="white" stroke-width="2" d="M138.2,-88.2C132.2,-88.2 126.2,-82.2 126.2,-76.2"/>
<polyline fill="none" stroke="white" stroke-width="2" points="126.2,-76.2 126.2,-64.2 "/>
<path fill="none" stroke="white" stroke-width="2" d="M126.2,-64.2C126.2,-58.2 132.2,-52.2 138.2,-52.2"/>
<polyline fill="none" stroke="white" stroke-width="2" points="138.2,-52.2 168.2,-52.2 "/>
<path fill="none" stroke="white" stroke-width="2" d="M168.2,-52.2C174.2,-52.2 180.2,-58.2 180.2,-64.2"/>
<polyline fill="none" stroke="white" stroke-width="2" points="180.2,-64.2 180.2,-76.2 "/>
<path fill="none" stroke="white" stroke-width="2" d="M180.2,-76.2C180.2,-82.2 174.2,-88.2 168.2,-88.2"/>
<text text-anchor="middle" x="153.2" y="-67.7" font-family="Helvetica,sans-Serif" font-size="10.00">GZF1</text>
</a>
</g>
<!-- ZNF711_TFAP2A_TFAP2D&#45;&gt;GZF1 -->
<g id="edge18" class="edge"><title>ZNF711_TFAP2A_TFAP2D&#45;&gt;GZF1</title>
<a xlink:title="GZF1: 1.867||remove24root">
<path fill="none" stroke="#ff8989" stroke-width="3" d="M277.751,-194.751C252.28,-169.28 205.752,-122.752 177.34,-94.3397"/>
<polygon fill="#ff8989" stroke="#ff8989" points="179.203,-92.2428 171.566,-88.5659 175.243,-96.2026 179.203,-92.2428"/>
</a>
</g>
<!-- CEBPA -->
<g id="node19" class="node"><title>CEBPA</title>
<a xlink:href="CEBPA.svg" xlink:title="Z&#45;value: 0.889||remove22">
<polygon fill="#929dff" stroke="#929dff" stroke-width="2" points="258.613,-36 228.613,-36 216.613,-24 216.613,-12 228.613,-3.19744e-14 258.613,-3.19744e-14 270.613,-12 270.613,-24 258.613,-36"/>
<path fill="#929dff" stroke="#929dff" stroke-width="2" d="M228.613,-36C222.613,-36 216.613,-30 216.613,-24"/>
<path fill="#929dff" stroke="#929dff" stroke-width="2" d="M216.613,-12C216.613,-6 222.613,-3.19744e-14 228.613,-3.19744e-14"/>
<path fill="#929dff" stroke="#929dff" stroke-width="2" d="M258.613,-3.19744e-14C264.613,-3.19744e-14 270.613,-6 270.613,-12"/>
<path fill="#929dff" stroke="#929dff" stroke-width="2" d="M270.613,-24C270.613,-30 264.613,-36 258.613,-36"/>
<polyline fill="none" stroke="white" stroke-width="2" points="258.613,-36 228.613,-36 "/>
<path fill="none" stroke="white" stroke-width="2" d="M228.613,-36C222.613,-36 216.613,-30 216.613,-24"/>
<polyline fill="none" stroke="white" stroke-width="2" points="216.613,-24 216.613,-12 "/>
<path fill="none" stroke="white" stroke-width="2" d="M216.613,-12C216.613,-6 222.613,-3.19744e-14 228.613,-3.19744e-14"/>
<polyline fill="none" stroke="white" stroke-width="2" points="228.613,-3.19744e-14 258.613,-3.19744e-14 "/>
<path fill="none" stroke="white" stroke-width="2" d="M258.613,-3.19744e-14C264.613,-3.19744e-14 270.613,-6 270.613,-12"/>
<polyline fill="none" stroke="white" stroke-width="2" points="270.613,-12 270.613,-24 "/>
<path fill="none" stroke="white" stroke-width="2" d="M270.613,-24C270.613,-30 264.613,-36 258.613,-36"/>
<text text-anchor="middle" x="243.613" y="-15.5" font-family="Helvetica,sans-Serif" font-size="10.00">CEBPA</text>
</a>
</g>
<!-- ZNF711_TFAP2A_TFAP2D&#45;&gt;CEBPA -->
<g id="edge20" class="edge"><title>ZNF711_TFAP2A_TFAP2D&#45;&gt;CEBPA</title>
<a xlink:title="CEBPA: 1.518||remove22root">
<path fill="none" stroke="#ff9595" stroke-width="3" d="M290.902,-194.486C281.59,-159.733 261.34,-84.1586 250.611,-44.115"/>
<polygon fill="#ff9595" stroke="#ff9595" points="253.248,-43.1396 248.473,-36.1369 247.839,-44.589 253.248,-43.1396"/>
</a>
</g>
<!-- TFAP2C -->
<g id="node21" class="node"><title>TFAP2C</title>
<a xlink:href="TFAP2C.svg" xlink:title="Z&#45;value: 0.810||remove25">
<polygon fill="#98a2ff" stroke="#98a2ff" stroke-width="2" points="363.263,-36 332.763,-36 320.763,-24 320.763,-12 332.763,3.19744e-14 363.263,3.19744e-14 375.263,-12 375.263,-24 363.263,-36"/>
<path fill="#98a2ff" stroke="#98a2ff" stroke-width="2" d="M332.763,-36C326.763,-36 320.763,-30 320.763,-24"/>
<path fill="#98a2ff" stroke="#98a2ff" stroke-width="2" d="M320.763,-12C320.763,-6 326.763,3.19744e-14 332.763,3.19744e-14"/>
<path fill="#98a2ff" stroke="#98a2ff" stroke-width="2" d="M363.263,3.19744e-14C369.263,3.19744e-14 375.263,-6 375.263,-12"/>
<path fill="#98a2ff" stroke="#98a2ff" stroke-width="2" d="M375.263,-24C375.263,-30 369.263,-36 363.263,-36"/>
<polyline fill="none" stroke="white" stroke-width="2" points="363.263,-36 332.763,-36 "/>
<path fill="none" stroke="white" stroke-width="2" d="M332.763,-36C326.763,-36 320.763,-30 320.763,-24"/>
<polyline fill="none" stroke="white" stroke-width="2" points="320.763,-24 320.763,-12 "/>
<path fill="none" stroke="white" stroke-width="2" d="M320.763,-12C320.763,-6 326.763,3.19744e-14 332.763,3.19744e-14"/>
<polyline fill="none" stroke="white" stroke-width="2" points="332.763,3.19744e-14 363.263,3.19744e-14 "/>
<path fill="none" stroke="white" stroke-width="2" d="M363.263,3.19744e-14C369.263,3.19744e-14 375.263,-6 375.263,-12"/>
<polyline fill="none" stroke="white" stroke-width="2" points="375.263,-12 375.263,-24 "/>
<path fill="none" stroke="white" stroke-width="2" d="M375.263,-24C375.263,-30 369.263,-36 363.263,-36"/>
<text text-anchor="middle" x="348.013" y="-15.5" font-family="Helvetica,sans-Serif" font-size="10.00">TFAP2C</text>
</a>
</g>
<!-- ZNF711_TFAP2A_TFAP2D&#45;&gt;TFAP2C -->
<g id="edge22" class="edge"><title>ZNF711_TFAP2A_TFAP2D&#45;&gt;TFAP2C</title>
<a xlink:title="TFAP2C: 1.922||remove25root">
<path fill="none" stroke="#ff8787" stroke-width="3" d="M300.724,-194.486C310.036,-159.733 330.286,-84.1586 341.016,-44.115"/>
<polygon fill="#ff8787" stroke="#ff8787" points="343.787,-44.589 343.153,-36.1369 338.378,-43.1396 343.787,-44.589"/>
</a>
</g>
<!-- POU5F1_POU2F3 -->
<g id="node23" class="node"><title>POU5F1_POU2F3</title>
<a xlink:href="POU5F1_POU2F3.svg" xlink:title="Z&#45;value: 0.774||remove23">
<polygon fill="#9aa4ff" stroke="#9aa4ff" stroke-width="2" points="474.926,-88.2 401.926,-88.2 389.926,-76.2 389.926,-64.2 401.926,-52.2 474.926,-52.2 486.926,-64.2 486.926,-76.2 474.926,-88.2"/>
<path fill="#9aa4ff" stroke="#9aa4ff" stroke-width="2" d="M401.926,-88.2C395.926,-88.2 389.926,-82.2 389.926,-76.2"/>
<path fill="#9aa4ff" stroke="#9aa4ff" stroke-width="2" d="M389.926,-64.2C389.926,-58.2 395.926,-52.2 401.926,-52.2"/>
<path fill="#9aa4ff" stroke="#9aa4ff" stroke-width="2" d="M474.926,-52.2C480.926,-52.2 486.926,-58.2 486.926,-64.2"/>
<path fill="#9aa4ff" stroke="#9aa4ff" stroke-width="2" d="M486.926,-76.2C486.926,-82.2 480.926,-88.2 474.926,-88.2"/>
<polyline fill="none" stroke="white" stroke-width="2" points="474.926,-88.2 401.926,-88.2 "/>
<path fill="none" stroke="white" stroke-width="2" d="M401.926,-88.2C395.926,-88.2 389.926,-82.2 389.926,-76.2"/>
<polyline fill="none" stroke="white" stroke-width="2" points="389.926,-76.2 389.926,-64.2 "/>
<path fill="none" stroke="white" stroke-width="2" d="M389.926,-64.2C389.926,-58.2 395.926,-52.2 401.926,-52.2"/>
<polyline fill="none" stroke="white" stroke-width="2" points="401.926,-52.2 474.926,-52.2 "/>
<path fill="none" stroke="white" stroke-width="2" d="M474.926,-52.2C480.926,-52.2 486.926,-58.2 486.926,-64.2"/>
<polyline fill="none" stroke="white" stroke-width="2" points="486.926,-64.2 486.926,-76.2 "/>
<path fill="none" stroke="white" stroke-width="2" d="M486.926,-76.2C486.926,-82.2 480.926,-88.2 474.926,-88.2"/>
<text text-anchor="middle" x="438.426" y="-67.7" font-family="Helvetica,sans-Serif" font-size="10.00">POU5F1_POU2F3</text>
</a>
</g>
<!-- ZNF711_TFAP2A_TFAP2D&#45;&gt;POU5F1_POU2F3 -->
<g id="edge24" class="edge"><title>ZNF711_TFAP2A_TFAP2D&#45;&gt;POU5F1_POU2F3</title>
<a xlink:title="POU5F1: 1.589||POU2F3: 0.217||remove23root">
<path fill="none" stroke="#ff9393" stroke-width="3" d="M313.875,-194.751C339.346,-169.28 385.874,-122.752 414.286,-94.3397"/>
<polygon fill="#ff9393" stroke="#ff9393" points="416.383,-96.2026 420.06,-88.5659 412.423,-92.2428 416.383,-96.2026"/>
</a>
</g>
<!-- EPAS1_BCL3 -->
<g id="node25" class="node"><title>EPAS1_BCL3</title>
<a xlink:href="EPAS1_BCL3.svg" xlink:title="Z&#45;value: 0.784||remove31">
<polygon fill="#99a3ff" stroke="#99a3ff" stroke-width="2" points="517.876,-178.613 463.376,-178.613 451.376,-166.613 451.376,-154.613 463.376,-142.613 517.876,-142.613 529.876,-154.613 529.876,-166.613 517.876,-178.613"/>
<path fill="#99a3ff" stroke="#99a3ff" stroke-width="2" d="M463.376,-178.613C457.376,-178.613 451.376,-172.613 451.376,-166.613"/>
<path fill="#99a3ff" stroke="#99a3ff" stroke-width="2" d="M451.376,-154.613C451.376,-148.613 457.376,-142.613 463.376,-142.613"/>
<path fill="#99a3ff" stroke="#99a3ff" stroke-width="2" d="M517.876,-142.613C523.876,-142.613 529.876,-148.613 529.876,-154.613"/>
<path fill="#99a3ff" stroke="#99a3ff" stroke-width="2" d="M529.876,-166.613C529.876,-172.613 523.876,-178.613 517.876,-178.613"/>
<polyline fill="none" stroke="white" stroke-width="2" points="517.876,-178.613 463.376,-178.613 "/>
<path fill="none" stroke="white" stroke-width="2" d="M463.376,-178.613C457.376,-178.613 451.376,-172.613 451.376,-166.613"/>
<polyline fill="none" stroke="white" stroke-width="2" points="451.376,-166.613 451.376,-154.613 "/>
<path fill="none" stroke="white" stroke-width="2" d="M451.376,-154.613C451.376,-148.613 457.376,-142.613 463.376,-142.613"/>
<polyline fill="none" stroke="white" stroke-width="2" points="463.376,-142.613 517.876,-142.613 "/>
<path fill="none" stroke="white" stroke-width="2" d="M517.876,-142.613C523.876,-142.613 529.876,-148.613 529.876,-154.613"/>
<polyline fill="none" stroke="white" stroke-width="2" points="529.876,-154.613 529.876,-166.613 "/>
<path fill="none" stroke="white" stroke-width="2" d="M529.876,-166.613C529.876,-172.613 523.876,-178.613 517.876,-178.613"/>
<text text-anchor="middle" x="490.626" y="-158.113" font-family="Helvetica,sans-Serif" font-size="10.00">EPAS1_BCL3</text>
</a>
</g>
<!-- ZNF711_TFAP2A_TFAP2D&#45;&gt;EPAS1_BCL3 -->
<g id="edge26" class="edge"><title>ZNF711_TFAP2A_TFAP2D&#45;&gt;EPAS1_BCL3</title>
<a xlink:title="BCL3: 4.292||EPAS1: 0.098||remove31root">
<path fill="none" stroke="#ff3232" stroke-width="3" d="M363.129,-194.776C389.413,-187.733 418.938,-179.822 442.952,-173.387"/>
<polygon fill="#ff3232" stroke="#ff3232" points="443.869,-176.04 450.872,-171.265 442.419,-170.631 443.869,-176.04"/>
</a>
</g>
<!-- GRHL1&#45;&gt;RXRA_NR2F6_NR2C2 -->
<g id="edge28" class="edge"><title>GRHL1&#45;&gt;RXRA_NR2F6_NR2C2</title>
<a xlink:title="NR2F6: 0.939||remove19root">
<path fill="none" stroke="#e3aaff" stroke-width="3" d="M463.248,-280.82C419.19,-306.257 332.421,-356.353 282.136,-385.385"/>
<polygon fill="#e3aaff" stroke="#e3aaff" points="280.52,-383.085 274.991,-389.51 283.32,-387.935 280.52,-383.085"/>
</a>
</g>
<!-- E2F2_E2F5&#45;&gt;MEF2D_MEF2A -->
<g id="edge64" class="edge"><title>E2F2_E2F5&#45;&gt;MEF2D_MEF2A</title>
<a xlink:title="MEF2A: 0.005||remove0root">
<path fill="none" stroke="#eecbff" stroke-width="3" d="M404.304,-355.426C355.118,-355.426 263.853,-355.426 205.947,-355.426"/>
<polygon fill="#eecbff" stroke="#eecbff" points="205.655,-352.626 197.655,-355.426 205.655,-358.226 205.655,-352.626"/>
</a>
</g>
<!-- RXRA_NR2F6_NR2C2&#45;&gt;RXRA_NR2F6_NR2C2 -->
<g id="edge62" class="edge"><title>RXRA_NR2F6_NR2C2&#45;&gt;RXRA_NR2F6_NR2C2</title>
<a xlink:title="NR2F6: 0.058||NR2C2: 0.022||remove5root">
<path fill="none" stroke="#eec9ff" stroke-width="3" d="M303.341,-413.927C313.544,-413.066 320.613,-410.966 320.613,-407.626 320.613,-405.278 317.118,-403.542 311.496,-402.419"/>
<polygon fill="#eec9ff" stroke="#eec9ff" points="311.642,-399.614 303.341,-401.325 310.897,-405.164 311.642,-399.614"/>
</a>
</g>
<!-- FOXD1_FOXO1_FOXO6_FOXG1_FOXP1&#45;&gt;FOXD1_FOXO1_FOXO6_FOXG1_FOXP1 -->
<g id="edge58" class="edge"><title>FOXD1_FOXO1_FOXO6_FOXG1_FOXP1&#45;&gt;FOXD1_FOXO1_FOXO6_FOXG1_FOXP1</title>
<a xlink:title="FOXP1: 0.292||FOXO1: 0.176||remove17root">
<path fill="none" stroke="#ebc1ff" stroke-width="3" d="M202.138,-270.649C213.008,-269.564 220,-267.685 220,-265.013 220,-263.093 216.388,-261.582 210.32,-260.481"/>
<polygon fill="#ebc1ff" stroke="#ebc1ff" points="210.44,-257.672 202.138,-259.377 209.691,-263.222 210.44,-257.672"/>
</a>
</g>
<!-- FOXD1_FOXO1_FOXO6_FOXG1_FOXP1&#45;&gt;JUND -->
<g id="edge60" class="edge"><title>FOXD1_FOXO1_FOXO6_FOXG1_FOXP1&#45;&gt;JUND</title>
<a xlink:title="JUND: 0.081||remove9root">
<path fill="none" stroke="#edc9ff" stroke-width="3" d="M101,-246.828C101,-230.312 101,-205.75 101,-187.063"/>
<polygon fill="#edc9ff" stroke="#edc9ff" points="103.8,-186.94 101,-178.94 98.2001,-186.94 103.8,-186.94"/>
</a>
</g>
<!-- TFAP2C&#45;&gt;OVOL1 -->
<g id="edge30" class="edge"><title>TFAP2C&#45;&gt;OVOL1</title>
<a xlink:title="OVOL1: 0.109||remove12root">
<path fill="none" stroke="#edc8ff" stroke-width="3" d="M351.898,-36.1657C358.417,-67.6831 371.295,-134.622 375.853,-191.933 381.328,-260.774 364.769,-341.346 354.866,-381.748"/>
<polygon fill="#edc8ff" stroke="#edc8ff" points="352.15,-381.069 352.923,-389.509 357.582,-382.428 352.15,-381.069"/>
</a>
</g>
<!-- TFAP2C&#45;&gt;RXRA_NR2F6_NR2C2 -->
<g id="edge32" class="edge"><title>TFAP2C&#45;&gt;RXRA_NR2F6_NR2C2</title>
<a xlink:title="NR2F6: 0.181||NR2C2: 0.118||TFAP2C: 0.027||remove14root">
<path fill="none" stroke="#ecc5ff" stroke-width="3" d="M359.529,-43.4696C374.853,-84.756 399.025,-167.498 376.801,-234.012 355.751,-296.209 303.203,-353.481 270.928,-384.445"/>
<path fill="none" stroke="#eecbff" stroke-width="3" d="M357.654,-44.1656C372.933,-85.3169 397.105,-168.059 374.905,-233.374 354.277,-294.857 301.729,-352.129 269.543,-383.001"/>
<polygon fill="#eecbff" stroke="#eecbff" points="361.132,-42.6222 355.665,-36.1447 355.899,-44.6174 361.132,-42.6222"/>
<polygon fill="#ecc5ff" stroke="#ecc5ff" points="267.964,-382.017 264.076,-389.549 271.812,-386.086 267.964,-382.017"/>
</a>
</g>
<!-- TFAP2C&#45;&gt;MEF2D_MEF2A -->
<g id="edge34" class="edge"><title>TFAP2C&#45;&gt;MEF2D_MEF2A</title>
<a xlink:title="MEF2A: 0.070||remove8root">
<path fill="none" stroke="#edc9ff" stroke-width="3" d="M327.55,-36.0775C296.308,-65.2049 238.001,-125.97 215.773,-191.933 209.846,-209.521 213.692,-215.25 215.773,-233.693 216.307,-238.423 217.626,-239.403 218.16,-244.133 220.241,-262.576 224.97,-268.628 218.16,-285.893 211.064,-303.884 196.873,-319.962 183.56,-332.114"/>
<polygon fill="#edc9ff" stroke="#edc9ff" points="181.692,-330.028 177.534,-337.413 185.39,-334.233 181.692,-330.028"/>
</a>
</g>
<!-- TFAP2C&#45;&gt;FOXD1_FOXO1_FOXO6_FOXG1_FOXP1 -->
<g id="edge36" class="edge"><title>TFAP2C&#45;&gt;FOXD1_FOXO1_FOXO6_FOXG1_FOXP1</title>
<a xlink:title="FOXP1: 0.058||FOXO6: 0.029||remove6root">
<path fill="none" stroke="#eec9ff" stroke-width="3" d="M329.85,-36.1635C285.954,-80.0593 174.105,-191.908 124.875,-241.139"/>
<polygon fill="#eec9ff" stroke="#eec9ff" points="122.867,-239.186 119.19,-246.823 126.827,-243.146 122.867,-239.186"/>
</a>
</g>
<!-- TFAP2C&#45;&gt;JUND -->
<g id="edge38" class="edge"><title>TFAP2C&#45;&gt;JUND</title>
<a xlink:title="JUND: 0.114||remove13root">
<path fill="none" stroke="#edc7ff" stroke-width="3" d="M320.635,-33.807C275.26,-60.0043 184.582,-112.357 135.114,-140.917"/>
<polygon fill="#edc7ff" stroke="#edc7ff" points="133.653,-138.528 128.125,-144.953 136.453,-143.377 133.653,-138.528"/>
</a>
</g>
<!-- TFAP2C&#45;&gt;GZF1 -->
<g id="edge40" class="edge"><title>TFAP2C&#45;&gt;GZF1</title>
<a xlink:title="GZF1: 0.017||remove1root">
<path fill="none" stroke="#eecbff" stroke-width="3" d="M320.645,-26.0051C306.944,-29.9655 290.087,-34.7665 274.933,-38.88 245.794,-46.7897 212.594,-55.2983 188.234,-61.4479"/>
<polygon fill="#eecbff" stroke="#eecbff" points="187.404,-58.7694 180.33,-63.4387 188.772,-64.1998 187.404,-58.7694"/>
</a>
</g>
<!-- TFAP2C&#45;&gt;CEBPA -->
<g id="edge42" class="edge"><title>TFAP2C&#45;&gt;CEBPA</title>
<a xlink:title="CEBPA: 0.041||remove2root">
<path fill="none" stroke="#eecaff" stroke-width="3" d="M320.583,-18C307.876,-18 292.618,-18 279.051,-18"/>
<polygon fill="#eecaff" stroke="#eecaff" points="278.86,-15.2001 270.86,-18 278.86,-20.8001 278.86,-15.2001"/>
</a>
</g>
<!-- TFAP2C&#45;&gt;TFAP2C -->
<g id="edge44" class="edge"><title>TFAP2C&#45;&gt;TFAP2C</title>
<a xlink:title="TFAP2C: 0.059||remove7root">
<path fill="none" stroke="#eec9ff" stroke-width="3" d="M375.697,-24.7484C385.277,-24.8198 393.013,-22.5703 393.013,-18 393.013,-14.8579 389.356,-12.8128 383.958,-11.8646"/>
<polygon fill="#eec9ff" stroke="#eec9ff" points="383.883,-9.05141 375.697,-11.2516 383.468,-14.6361 383.883,-9.05141"/>
</a>
</g>
<!-- TFAP2C&#45;&gt;POU5F1_POU2F3 -->
<g id="edge46" class="edge"><title>TFAP2C&#45;&gt;POU5F1_POU2F3</title>
<a xlink:title="POU5F1: 0.102||POU2F3: 0.023||remove11root">
<path fill="none" stroke="#edc8ff" stroke-width="3" d="M375.631,-33.9454C383.265,-38.3528 391.692,-43.2179 399.827,-47.9146"/>
<polygon fill="#edc8ff" stroke="#edc8ff" points="398.856,-50.5875 407.184,-52.1626 401.656,-45.7377 398.856,-50.5875"/>
</a>
</g>
<!-- TFAP2C&#45;&gt;EPAS1_BCL3 -->
<g id="edge48" class="edge"><title>TFAP2C&#45;&gt;EPAS1_BCL3</title>
<a xlink:title="BCL3: 0.272||remove16root">
<path fill="none" stroke="#ebc2ff" stroke-width="3" d="M353.128,-36.1502C358.3,-52.0176 367.55,-74.9759 381.586,-91.08 398.816,-110.849 423.021,-127.052 444.25,-138.829"/>
<polygon fill="#ebc2ff" stroke="#ebc2ff" points="442.952,-141.31 451.321,-142.652 445.615,-136.384 442.952,-141.31"/>
</a>
</g>
<!-- POU5F1_POU2F3&#45;&gt;E2F2_E2F5 -->
<g id="edge50" class="edge"><title>POU5F1_POU2F3&#45;&gt;E2F2_E2F5</title>
<a xlink:title="E2F5: 0.043||remove4root">
<path fill="none" stroke="#eecaff" stroke-width="3" d="M438.426,-88.4761C438.426,-137.478 438.426,-271.941 438.426,-329.128"/>
<polygon fill="#eecaff" stroke="#eecaff" points="435.626,-329.302 438.426,-337.302 441.226,-329.302 435.626,-329.302"/>
</a>
</g>
<!-- POU5F1_POU2F3&#45;&gt;RXRA_NR2F6_NR2C2 -->
<g id="edge52" class="edge"><title>POU5F1_POU2F3&#45;&gt;RXRA_NR2F6_NR2C2</title>
<a xlink:title="NR2C2: 0.042||remove3root">
<path fill="none" stroke="#eecaff" stroke-width="3" d="M433.335,-88.3573C424.248,-119.341 403.562,-183.898 375.853,-233.693 343.69,-291.493 293.987,-351.251 265.562,-383.483"/>
<polygon fill="#eecaff" stroke="#eecaff" points="263.39,-381.712 260.173,-389.553 267.578,-385.43 263.39,-381.712"/>
</a>
</g>
<!-- POU5F1_POU2F3&#45;&gt;FOXD1_FOXO1_FOXO6_FOXG1_FOXP1 -->
<g id="edge54" class="edge"><title>POU5F1_POU2F3&#45;&gt;FOXD1_FOXO1_FOXO6_FOXG1_FOXP1</title>
<a xlink:title="FOXP1: 0.091||remove10root">
<path fill="none" stroke="#edc8ff" stroke-width="3" d="M403.698,-88.2661C359.549,-111.442 281.201,-153.275 215.773,-191.933 188.311,-208.159 157.887,-227.6 135.267,-242.35"/>
<polygon fill="#edc8ff" stroke="#edc8ff" points="133.673,-240.047 128.509,-246.768 136.737,-244.734 133.673,-240.047"/>
</a>
</g>
<!-- POU5F1_POU2F3&#45;&gt;POU5F1_POU2F3 -->
<g id="edge56" class="edge"><title>POU5F1_POU2F3&#45;&gt;POU5F1_POU2F3</title>
<a xlink:title="POU2F3: 0.236||remove15root">
<path fill="none" stroke="#ebc3ff" stroke-width="3" d="M487.066,-76.7127C497.164,-76.0272 504.426,-73.8563 504.426,-70.2 504.426,-67.6292 500.836,-65.7927 495.194,-64.6906"/>
<polygon fill="#ebc3ff" stroke="#ebc3ff" points="495.349,-61.8885 487.066,-63.6873 494.663,-67.4464 495.349,-61.8885"/>
</a>
</g>
</g>
</svg>
