<?xml version="1.0" encoding="UTF-8" standalone="no"?>
<!DOCTYPE svg PUBLIC "-//W3C//DTD SVG 1.1//EN"
 "http://www.w3.org/Graphics/SVG/1.1/DTD/svg11.dtd">
<!-- Generated by graphviz version 2.28.0 (20110630.0925)
 -->
<!-- Title: _anonymous_0 Pages: 1 -->
<svg width="506pt" height="465pt"
 viewBox="0.00 0.00 506.48 464.98" xmlns="http://www.w3.org/2000/svg" xmlns:xlink="http://www.w3.org/1999/xlink">
<g id="graph1" class="graph" transform="scale(1 1) rotate(0) translate(4 460.975)">
<title>_anonymous_0</title>
<polygon fill="white" stroke="white" points="-4,5 -4,-460.975 503.475,-460.975 503.475,5 -4,5"/>
<!-- FOXM1_TBL1XR1 -->
<g id="node1" class="node"><title>FOXM1_TBL1XR1</title>
<a xlink:href="FOXM1_TBL1XR1.svg" xlink:title="Z&#45;value: 2.140||remove26">
<polygon fill="#3247ff" stroke="#3247ff" stroke-width="2" points="127.4,-92.4 54.4,-92.4 42.4,-80.4 42.4,-68.4 54.4,-56.4 127.4,-56.4 139.4,-68.4 139.4,-80.4 127.4,-92.4"/>
<path fill="#3247ff" stroke="#3247ff" stroke-width="2" d="M54.4,-92.4C48.4,-92.4 42.4,-86.4 42.4,-80.4"/>
<path fill="#3247ff" stroke="#3247ff" stroke-width="2" d="M42.4,-68.4C42.4,-62.4 48.4,-56.4 54.4,-56.4"/>
<path fill="#3247ff" stroke="#3247ff" stroke-width="2" d="M127.4,-56.4C133.4,-56.4 139.4,-62.4 139.4,-68.4"/>
<path fill="#3247ff" stroke="#3247ff" stroke-width="2" d="M139.4,-80.4C139.4,-86.4 133.4,-92.4 127.4,-92.4"/>
<polyline fill="none" stroke="white" stroke-width="2" points="127.4,-92.4 54.4,-92.4 "/>
<path fill="none" stroke="white" stroke-width="2" d="M54.4,-92.4C48.4,-92.4 42.4,-86.4 42.4,-80.4"/>
<polyline fill="none" stroke="white" stroke-width="2" points="42.4,-80.4 42.4,-68.4 "/>
<path fill="none" stroke="white" stroke-width="2" d="M42.4,-68.4C42.4,-62.4 48.4,-56.4 54.4,-56.4"/>
<polyline fill="none" stroke="white" stroke-width="2" points="54.4,-56.4 127.4,-56.4 "/>
<path fill="none" stroke="white" stroke-width="2" d="M127.4,-56.4C133.4,-56.4 139.4,-62.4 139.4,-68.4"/>
<polyline fill="none" stroke="white" stroke-width="2" points="139.4,-68.4 139.4,-80.4 "/>
<path fill="none" stroke="white" stroke-width="2" d="M139.4,-80.4C139.4,-86.4 133.4,-92.4 127.4,-92.4"/>
<text text-anchor="middle" x="90.9" y="-71.9" font-family="Helvetica,sans-Serif" font-size="10.00" fill="white">FOXM1_TBL1XR1</text>
</a>
</g>
<!-- MAZ_ZNF281_GTF2F1 -->
<g id="node2" class="node"><title>MAZ_ZNF281_GTF2F1</title>
<a xlink:href="MAZ_ZNF281_GTF2F1.svg" xlink:title="Z&#45;value: 1.186||remove20">
<polygon fill="#7784ff" stroke="#7784ff" stroke-width="2" points="235.838,-36 141.338,-36 129.338,-24 129.338,-12 141.338,-3.19744e-14 235.838,-3.19744e-14 247.838,-12 247.838,-24 235.838,-36"/>
<path fill="#7784ff" stroke="#7784ff" stroke-width="2" d="M141.338,-36C135.338,-36 129.338,-30 129.338,-24"/>
<path fill="#7784ff" stroke="#7784ff" stroke-width="2" d="M129.338,-12C129.338,-6 135.338,-3.19744e-14 141.338,-3.19744e-14"/>
<path fill="#7784ff" stroke="#7784ff" stroke-width="2" d="M235.838,-3.19744e-14C241.838,-3.19744e-14 247.838,-6 247.838,-12"/>
<path fill="#7784ff" stroke="#7784ff" stroke-width="2" d="M247.838,-24C247.838,-30 241.838,-36 235.838,-36"/>
<polyline fill="none" stroke="white" stroke-width="2" points="235.838,-36 141.338,-36 "/>
<path fill="none" stroke="white" stroke-width="2" d="M141.338,-36C135.338,-36 129.338,-30 129.338,-24"/>
<polyline fill="none" stroke="white" stroke-width="2" points="129.338,-24 129.338,-12 "/>
<path fill="none" stroke="white" stroke-width="2" d="M129.338,-12C129.338,-6 135.338,-3.19744e-14 141.338,-3.19744e-14"/>
<polyline fill="none" stroke="white" stroke-width="2" points="141.338,-3.19744e-14 235.838,-3.19744e-14 "/>
<path fill="none" stroke="white" stroke-width="2" d="M235.838,-3.19744e-14C241.838,-3.19744e-14 247.838,-6 247.838,-12"/>
<polyline fill="none" stroke="white" stroke-width="2" points="247.838,-12 247.838,-24 "/>
<path fill="none" stroke="white" stroke-width="2" d="M247.838,-24C247.838,-30 241.838,-36 235.838,-36"/>
<text text-anchor="middle" x="188.588" y="-15.5" font-family="Helvetica,sans-Serif" font-size="10.00">MAZ_ZNF281_GTF2F1</text>
</a>
</g>
<!-- FOXM1_TBL1XR1&#45;&gt;MAZ_ZNF281_GTF2F1 -->
<g id="edge2" class="edge"><title>FOXM1_TBL1XR1&#45;&gt;MAZ_ZNF281_GTF2F1</title>
<a xlink:title="ZNF281: 0.039||MAZ: 0.015||TBL1XR1: 0.025||remove9root">
<path fill="none" stroke="#eabfff" stroke-width="3" d="M128.606,-51.4755C135.482,-47.5057 142.654,-43.3652 149.539,-39.3898"/>
<path fill="none" stroke="#ecc3ff" stroke-width="3" d="M129.606,-53.2076C136.482,-49.2378 143.654,-45.0973 150.539,-41.1219"/>
<polygon fill="#ecc3ff" stroke="#ecc3ff" points="127.606,-49.9747 122.078,-56.3996 130.406,-54.8244 127.606,-49.9747"/>
<polygon fill="#eabfff" stroke="#eabfff" points="151.843,-42.4477 157.371,-36.0228 149.043,-37.598 151.843,-42.4477"/>
</a>
</g>
<!-- GATA1_GATA4 -->
<g id="node4" class="node"><title>GATA1_GATA4</title>
<a xlink:href="GATA1_GATA4.svg" xlink:title="Z&#45;value: 1.000||remove28">
<polygon fill="#8490ff" stroke="#8490ff" stroke-width="2" points="486.475,-302.888 424.475,-302.888 412.475,-290.888 412.475,-278.888 424.475,-266.888 486.475,-266.888 498.475,-278.888 498.475,-290.888 486.475,-302.888"/>
<path fill="#8490ff" stroke="#8490ff" stroke-width="2" d="M424.475,-302.888C418.475,-302.888 412.475,-296.888 412.475,-290.888"/>
<path fill="#8490ff" stroke="#8490ff" stroke-width="2" d="M412.475,-278.888C412.475,-272.888 418.475,-266.888 424.475,-266.888"/>
<path fill="#8490ff" stroke="#8490ff" stroke-width="2" d="M486.475,-266.888C492.475,-266.888 498.475,-272.888 498.475,-278.888"/>
<path fill="#8490ff" stroke="#8490ff" stroke-width="2" d="M498.475,-290.888C498.475,-296.888 492.475,-302.888 486.475,-302.888"/>
<polyline fill="none" stroke="white" stroke-width="2" points="486.475,-302.888 424.475,-302.888 "/>
<path fill="none" stroke="white" stroke-width="2" d="M424.475,-302.888C418.475,-302.888 412.475,-296.888 412.475,-290.888"/>
<polyline fill="none" stroke="white" stroke-width="2" points="412.475,-290.888 412.475,-278.888 "/>
<path fill="none" stroke="white" stroke-width="2" d="M412.475,-278.888C412.475,-272.888 418.475,-266.888 424.475,-266.888"/>
<polyline fill="none" stroke="white" stroke-width="2" points="424.475,-266.888 486.475,-266.888 "/>
<path fill="none" stroke="white" stroke-width="2" d="M486.475,-266.888C492.475,-266.888 498.475,-272.888 498.475,-278.888"/>
<polyline fill="none" stroke="white" stroke-width="2" points="498.475,-278.888 498.475,-290.888 "/>
<path fill="none" stroke="white" stroke-width="2" d="M498.475,-290.888C498.475,-296.888 492.475,-302.888 486.475,-302.888"/>
<text text-anchor="middle" x="455.475" y="-282.388" font-family="Helvetica,sans-Serif" font-size="10.00">GATA1_GATA4</text>
</a>
</g>
<!-- FOXM1_TBL1XR1&#45;&gt;GATA1_GATA4 -->
<g id="edge4" class="edge"><title>FOXM1_TBL1XR1&#45;&gt;GATA1_GATA4</title>
<a xlink:title="GATA4: 0.100||GATA1: 0.029||remove26">
<path fill="none" stroke="#e4abff" stroke-width="3" d="M122.299,-92.5282C189.01,-131.044 344.672,-220.915 417.119,-262.742"/>
<polygon fill="#e4abff" stroke="#e4abff" points="415.953,-265.303 424.281,-266.878 418.753,-260.453 415.953,-265.303"/>
</a>
</g>
<!-- ZNF784 -->
<g id="node6" class="node"><title>ZNF784</title>
<a xlink:href="ZNF784.svg" xlink:title="Z&#45;value: 0.410||remove32">
<polygon fill="#ffaeae" stroke="#ffaeae" stroke-width="2" points="259.988,-246.488 229.988,-246.488 217.988,-234.488 217.988,-222.488 229.988,-210.488 259.988,-210.488 271.988,-222.488 271.988,-234.488 259.988,-246.488"/>
<path fill="#ffaeae" stroke="#ffaeae" stroke-width="2" d="M229.988,-246.488C223.988,-246.488 217.988,-240.488 217.988,-234.488"/>
<path fill="#ffaeae" stroke="#ffaeae" stroke-width="2" d="M217.988,-222.488C217.988,-216.488 223.988,-210.488 229.988,-210.488"/>
<path fill="#ffaeae" stroke="#ffaeae" stroke-width="2" d="M259.988,-210.488C265.988,-210.488 271.988,-216.488 271.988,-222.488"/>
<path fill="#ffaeae" stroke="#ffaeae" stroke-width="2" d="M271.988,-234.488C271.988,-240.488 265.988,-246.488 259.988,-246.488"/>
<polyline fill="none" stroke="white" stroke-width="2" points="259.988,-246.488 229.988,-246.488 "/>
<path fill="none" stroke="white" stroke-width="2" d="M229.988,-246.488C223.988,-246.488 217.988,-240.488 217.988,-234.488"/>
<polyline fill="none" stroke="white" stroke-width="2" points="217.988,-234.488 217.988,-222.488 "/>
<path fill="none" stroke="white" stroke-width="2" d="M217.988,-222.488C217.988,-216.488 223.988,-210.488 229.988,-210.488"/>
<polyline fill="none" stroke="white" stroke-width="2" points="229.988,-210.488 259.988,-210.488 "/>
<path fill="none" stroke="white" stroke-width="2" d="M259.988,-210.488C265.988,-210.488 271.988,-216.488 271.988,-222.488"/>
<polyline fill="none" stroke="white" stroke-width="2" points="271.988,-222.488 271.988,-234.488 "/>
<path fill="none" stroke="white" stroke-width="2" d="M271.988,-234.488C271.988,-240.488 265.988,-246.488 259.988,-246.488"/>
<text text-anchor="middle" x="244.988" y="-225.988" font-family="Helvetica,sans-Serif" font-size="10.00">ZNF784</text>
</a>
</g>
<!-- FOXM1_TBL1XR1&#45;&gt;ZNF784 -->
<g id="edge6" class="edge"><title>FOXM1_TBL1XR1&#45;&gt;ZNF784</title>
<a xlink:title="ZNF784: 0.094||remove26root">
<path fill="none" stroke="#adb5ff" stroke-width="3" d="M109.181,-92.681C136.983,-120.483 189.92,-173.42 220.852,-204.352"/>
<polygon fill="#adb5ff" stroke="#adb5ff" points="219.094,-206.554 226.73,-210.23 223.054,-202.594 219.094,-206.554"/>
</a>
</g>
<!-- IRF6_IRF4_IRF5 -->
<g id="node8" class="node"><title>IRF6_IRF4_IRF5</title>
<a xlink:href="IRF6_IRF4_IRF5.svg" xlink:title="Z&#45;value: 0.295||remove17">
<polygon fill="#b6beff" stroke="#b6beff" stroke-width="2" points="433.075,-400.575 365.075,-400.575 353.075,-388.575 353.075,-376.575 365.075,-364.575 433.075,-364.575 445.075,-376.575 445.075,-388.575 433.075,-400.575"/>
<path fill="#b6beff" stroke="#b6beff" stroke-width="2" d="M365.075,-400.575C359.075,-400.575 353.075,-394.575 353.075,-388.575"/>
<path fill="#b6beff" stroke="#b6beff" stroke-width="2" d="M353.075,-376.575C353.075,-370.575 359.075,-364.575 365.075,-364.575"/>
<path fill="#b6beff" stroke="#b6beff" stroke-width="2" d="M433.075,-364.575C439.075,-364.575 445.075,-370.575 445.075,-376.575"/>
<path fill="#b6beff" stroke="#b6beff" stroke-width="2" d="M445.075,-388.575C445.075,-394.575 439.075,-400.575 433.075,-400.575"/>
<polyline fill="none" stroke="white" stroke-width="2" points="433.075,-400.575 365.075,-400.575 "/>
<path fill="none" stroke="white" stroke-width="2" d="M365.075,-400.575C359.075,-400.575 353.075,-394.575 353.075,-388.575"/>
<polyline fill="none" stroke="white" stroke-width="2" points="353.075,-388.575 353.075,-376.575 "/>
<path fill="none" stroke="white" stroke-width="2" d="M353.075,-376.575C353.075,-370.575 359.075,-364.575 365.075,-364.575"/>
<polyline fill="none" stroke="white" stroke-width="2" points="365.075,-364.575 433.075,-364.575 "/>
<path fill="none" stroke="white" stroke-width="2" d="M433.075,-364.575C439.075,-364.575 445.075,-370.575 445.075,-376.575"/>
<polyline fill="none" stroke="white" stroke-width="2" points="445.075,-376.575 445.075,-388.575 "/>
<path fill="none" stroke="white" stroke-width="2" d="M445.075,-388.575C445.075,-394.575 439.075,-400.575 433.075,-400.575"/>
<text text-anchor="middle" x="399.075" y="-380.075" font-family="Helvetica,sans-Serif" font-size="10.00">IRF6_IRF4_IRF5</text>
</a>
</g>
<!-- FOXM1_TBL1XR1&#45;&gt;IRF6_IRF4_IRF5 -->
<g id="edge8" class="edge"><title>FOXM1_TBL1XR1&#45;&gt;IRF6_IRF4_IRF5</title>
<a xlink:title="IRF6: 0.003||remove0root">
<path fill="none" stroke="#eecbff" stroke-width="3" d="M100.837,-92.5015C119.791,-125.999 163.701,-198.84 213.668,-249.368 258.663,-294.868 320.649,-335.96 360.298,-360.106"/>
<polygon fill="#eecbff" stroke="#eecbff" points="359.136,-362.676 367.432,-364.415 362.031,-357.882 359.136,-362.676"/>
</a>
</g>
<!-- NR1H2 -->
<g id="node10" class="node"><title>NR1H2</title>
<a xlink:href="NR1H2.svg" xlink:title="Z&#45;value: 0.674||remove23">
<polygon fill="#9ba5ff" stroke="#9ba5ff" stroke-width="2" points="316.388,-456.975 286.388,-456.975 274.388,-444.975 274.388,-432.975 286.388,-420.975 316.388,-420.975 328.388,-432.975 328.388,-444.975 316.388,-456.975"/>
<path fill="#9ba5ff" stroke="#9ba5ff" stroke-width="2" d="M286.388,-456.975C280.388,-456.975 274.388,-450.975 274.388,-444.975"/>
<path fill="#9ba5ff" stroke="#9ba5ff" stroke-width="2" d="M274.388,-432.975C274.388,-426.975 280.388,-420.975 286.388,-420.975"/>
<path fill="#9ba5ff" stroke="#9ba5ff" stroke-width="2" d="M316.388,-420.975C322.388,-420.975 328.388,-426.975 328.388,-432.975"/>
<path fill="#9ba5ff" stroke="#9ba5ff" stroke-width="2" d="M328.388,-444.975C328.388,-450.975 322.388,-456.975 316.388,-456.975"/>
<polyline fill="none" stroke="white" stroke-width="2" points="316.388,-456.975 286.388,-456.975 "/>
<path fill="none" stroke="white" stroke-width="2" d="M286.388,-456.975C280.388,-456.975 274.388,-450.975 274.388,-444.975"/>
<polyline fill="none" stroke="white" stroke-width="2" points="274.388,-444.975 274.388,-432.975 "/>
<path fill="none" stroke="white" stroke-width="2" d="M274.388,-432.975C274.388,-426.975 280.388,-420.975 286.388,-420.975"/>
<polyline fill="none" stroke="white" stroke-width="2" points="286.388,-420.975 316.388,-420.975 "/>
<path fill="none" stroke="white" stroke-width="2" d="M316.388,-420.975C322.388,-420.975 328.388,-426.975 328.388,-432.975"/>
<polyline fill="none" stroke="white" stroke-width="2" points="328.388,-432.975 328.388,-444.975 "/>
<path fill="none" stroke="white" stroke-width="2" d="M328.388,-444.975C328.388,-450.975 322.388,-456.975 316.388,-456.975"/>
<text text-anchor="middle" x="301.388" y="-436.475" font-family="Helvetica,sans-Serif" font-size="10.00">NR1H2</text>
</a>
</g>
<!-- FOXM1_TBL1XR1&#45;&gt;NR1H2 -->
<g id="edge10" class="edge"><title>FOXM1_TBL1XR1&#45;&gt;NR1H2</title>
<a xlink:title="NR1H2: 0.086||remove23">
<path fill="none" stroke="#e5b0ff" stroke-width="3" d="M101.338,-92.4794C135.914,-152.367 246.775,-344.383 286.801,-413.71"/>
<polygon fill="#e5b0ff" stroke="#e5b0ff" points="284.462,-415.259 290.887,-420.787 289.311,-412.459 284.462,-415.259"/>
</a>
</g>
<!-- HOXC8 -->
<g id="node12" class="node"><title>HOXC8</title>
<a xlink:href="HOXC8.svg" xlink:title="Z&#45;value: 0.905||remove19">
<polygon fill="#8b96ff" stroke="#8b96ff" stroke-width="2" points="203.588,-456.975 173.588,-456.975 161.588,-444.975 161.588,-432.975 173.588,-420.975 203.588,-420.975 215.588,-432.975 215.588,-444.975 203.588,-456.975"/>
<path fill="#8b96ff" stroke="#8b96ff" stroke-width="2" d="M173.588,-456.975C167.588,-456.975 161.588,-450.975 161.588,-444.975"/>
<path fill="#8b96ff" stroke="#8b96ff" stroke-width="2" d="M161.588,-432.975C161.588,-426.975 167.588,-420.975 173.588,-420.975"/>
<path fill="#8b96ff" stroke="#8b96ff" stroke-width="2" d="M203.588,-420.975C209.588,-420.975 215.588,-426.975 215.588,-432.975"/>
<path fill="#8b96ff" stroke="#8b96ff" stroke-width="2" d="M215.588,-444.975C215.588,-450.975 209.588,-456.975 203.588,-456.975"/>
<polyline fill="none" stroke="white" stroke-width="2" points="203.588,-456.975 173.588,-456.975 "/>
<path fill="none" stroke="white" stroke-width="2" d="M173.588,-456.975C167.588,-456.975 161.588,-450.975 161.588,-444.975"/>
<polyline fill="none" stroke="white" stroke-width="2" points="161.588,-444.975 161.588,-432.975 "/>
<path fill="none" stroke="white" stroke-width="2" d="M161.588,-432.975C161.588,-426.975 167.588,-420.975 173.588,-420.975"/>
<polyline fill="none" stroke="white" stroke-width="2" points="173.588,-420.975 203.588,-420.975 "/>
<path fill="none" stroke="white" stroke-width="2" d="M203.588,-420.975C209.588,-420.975 215.588,-426.975 215.588,-432.975"/>
<polyline fill="none" stroke="white" stroke-width="2" points="215.588,-432.975 215.588,-444.975 "/>
<path fill="none" stroke="white" stroke-width="2" d="M215.588,-444.975C215.588,-450.975 209.588,-456.975 203.588,-456.975"/>
<text text-anchor="middle" x="188.588" y="-436.475" font-family="Helvetica,sans-Serif" font-size="10.00">HOXC8</text>
</a>
</g>
<!-- FOXM1_TBL1XR1&#45;&gt;HOXC8 -->
<g id="edge12" class="edge"><title>FOXM1_TBL1XR1&#45;&gt;HOXC8</title>
<a xlink:title="HOXC8: 0.053||remove13root">
<path fill="none" stroke="#e9baff" stroke-width="3" d="M95.7443,-92.4794C111.726,-152.124 162.826,-342.83 181.591,-412.862"/>
<polygon fill="#e9baff" stroke="#e9baff" points="178.939,-413.784 183.714,-420.787 184.348,-412.335 178.939,-413.784"/>
</a>
</g>
<!-- MAZ_ZNF281_GTF2F1&#45;&gt;MAZ_ZNF281_GTF2F1 -->
<g id="edge14" class="edge"><title>MAZ_ZNF281_GTF2F1&#45;&gt;MAZ_ZNF281_GTF2F1</title>
<a xlink:title="MAZ: 0.032||remove6root">
<path fill="none" stroke="#ebc1ff" stroke-width="3" d="M247.992,-24.3281C258.369,-23.4844 265.588,-21.375 265.588,-18 265.588,-15.627 262.019,-13.8796 256.293,-12.758"/>
<polygon fill="#ebc1ff" stroke="#ebc1ff" points="256.288,-9.93353 247.992,-11.6719 255.561,-15.4862 256.288,-9.93353"/>
</a>
</g>
<!-- MAZ_ZNF281_GTF2F1&#45;&gt;GATA1_GATA4 -->
<g id="edge22" class="edge"><title>MAZ_ZNF281_GTF2F1&#45;&gt;GATA1_GATA4</title>
<a xlink:title="GATA4: 0.041||remove10root">
<path fill="none" stroke="#eabeff" stroke-width="3" d="M206.932,-36.3443C253.992,-83.4045 378.99,-208.402 431.604,-261.016"/>
<polygon fill="#eabeff" stroke="#eabeff" points="429.719,-263.091 437.356,-266.768 433.679,-259.131 429.719,-263.091"/>
</a>
</g>
<!-- MAZ_ZNF281_GTF2F1&#45;&gt;ZNF784 -->
<g id="edge24" class="edge"><title>MAZ_ZNF281_GTF2F1&#45;&gt;ZNF784</title>
<a xlink:title="ZNF784: 0.071||remove20root">
<path fill="none" stroke="#b5bcff" stroke-width="3" d="M193.494,-36.3112C203.54,-73.8029 226.476,-159.403 238.044,-202.575"/>
<polygon fill="#b5bcff" stroke="#b5bcff" points="235.357,-203.366 240.133,-210.369 240.767,-201.917 235.357,-203.366"/>
</a>
</g>
<!-- MAZ_ZNF281_GTF2F1&#45;&gt;IRF6_IRF4_IRF5 -->
<g id="edge26" class="edge"><title>MAZ_ZNF281_GTF2F1&#45;&gt;IRF6_IRF4_IRF5</title>
<a xlink:title="IRF6: 0.031||GTF2F1: 0.025||remove5root">
<path fill="none" stroke="#ebc2ff" stroke-width="3" d="M203.968,-42.6397C242.426,-109.25 346.641,-289.757 385.273,-356.67"/>
<path fill="none" stroke="#ecc3ff" stroke-width="3" d="M202.236,-43.6397C240.694,-110.25 344.909,-290.757 383.541,-357.67"/>
<polygon fill="#ecc3ff" stroke="#ecc3ff" points="205.451,-41.6075 199.026,-36.0793 200.601,-44.4076 205.451,-41.6075"/>
<polygon fill="#ebc2ff" stroke="#ebc2ff" points="382.149,-358.859 388.574,-364.387 386.999,-356.059 382.149,-358.859"/>
</a>
</g>
<!-- MAZ_ZNF281_GTF2F1&#45;&gt;NR1H2 -->
<g id="edge28" class="edge"><title>MAZ_ZNF281_GTF2F1&#45;&gt;NR1H2</title>
<a xlink:title="NR1H2: 0.248||remove20">
<path fill="none" stroke="#d57bff" stroke-width="3" d="M188.57,-36.0773C188.957,-75.5462 192.226,-172.087 213.668,-249.368 230.868,-311.363 266.348,-378.478 286.517,-413.853"/>
<polygon fill="#d57bff" stroke="#d57bff" points="284.159,-415.37 290.576,-420.907 289.013,-412.576 284.159,-415.37"/>
</a>
</g>
<!-- MAZ_ZNF281_GTF2F1&#45;&gt;HOXC8 -->
<g id="edge30" class="edge"><title>MAZ_ZNF281_GTF2F1&#45;&gt;HOXC8</title>
<a xlink:title="HOXC8: 0.156||remove19">
<path fill="none" stroke="#de99ff" stroke-width="3" d="M188.588,-36.0888C188.588,-102.614 188.588,-333.908 188.588,-412.559"/>
<polygon fill="#de99ff" stroke="#de99ff" points="185.788,-412.954 188.588,-420.954 191.388,-412.954 185.788,-412.954"/>
</a>
</g>
<!-- KLF16_SP2 -->
<g id="node15" class="node"><title>KLF16_SP2</title>
<a xlink:href="KLF16_SP2.svg" xlink:title="Z&#45;value: 0.850||remove27">
<polygon fill="#8f9aff" stroke="#8f9aff" stroke-width="2" points="323.638,-36 279.138,-36 267.138,-24 267.138,-12 279.138,3.19744e-14 323.638,3.19744e-14 335.638,-12 335.638,-24 323.638,-36"/>
<path fill="#8f9aff" stroke="#8f9aff" stroke-width="2" d="M279.138,-36C273.138,-36 267.138,-30 267.138,-24"/>
<path fill="#8f9aff" stroke="#8f9aff" stroke-width="2" d="M267.138,-12C267.138,-6 273.138,3.19744e-14 279.138,3.19744e-14"/>
<path fill="#8f9aff" stroke="#8f9aff" stroke-width="2" d="M323.638,3.19744e-14C329.638,3.19744e-14 335.638,-6 335.638,-12"/>
<path fill="#8f9aff" stroke="#8f9aff" stroke-width="2" d="M335.638,-24C335.638,-30 329.638,-36 323.638,-36"/>
<polyline fill="none" stroke="white" stroke-width="2" points="323.638,-36 279.138,-36 "/>
<path fill="none" stroke="white" stroke-width="2" d="M279.138,-36C273.138,-36 267.138,-30 267.138,-24"/>
<polyline fill="none" stroke="white" stroke-width="2" points="267.138,-24 267.138,-12 "/>
<path fill="none" stroke="white" stroke-width="2" d="M267.138,-12C267.138,-6 273.138,3.19744e-14 279.138,3.19744e-14"/>
<polyline fill="none" stroke="white" stroke-width="2" points="279.138,3.19744e-14 323.638,3.19744e-14 "/>
<path fill="none" stroke="white" stroke-width="2" d="M323.638,3.19744e-14C329.638,3.19744e-14 335.638,-6 335.638,-12"/>
<polyline fill="none" stroke="white" stroke-width="2" points="335.638,-12 335.638,-24 "/>
<path fill="none" stroke="white" stroke-width="2" d="M335.638,-24C335.638,-30 329.638,-36 323.638,-36"/>
<text text-anchor="middle" x="301.388" y="-15.5" font-family="Helvetica,sans-Serif" font-size="10.00">KLF16_SP2</text>
</a>
</g>
<!-- MAZ_ZNF281_GTF2F1&#45;&gt;KLF16_SP2 -->
<g id="edge16" class="edge"><title>MAZ_ZNF281_GTF2F1&#45;&gt;KLF16_SP2</title>
<a xlink:title="KLF16: 0.018||SP2: 0.005||MAZ: 0.473||GTF2F1: 0.016||remove20">
<path fill="none" stroke="#ecc6ff" stroke-width="3" d="M256.102,-17.0001C257.023,-17 257.939,-17 258.851,-17.0001"/>
<path fill="none" stroke="#bd32ff" stroke-width="3" d="M256.102,-18.9999C257.023,-19 257.939,-19 258.851,-18.9999"/>
<polygon fill="#bd32ff" stroke="#bd32ff" points="255.961,-15.2001 247.961,-18 255.961,-20.8001 255.961,-15.2001"/>
<polygon fill="#ecc6ff" stroke="#ecc6ff" points="258.887,-20.8001 266.887,-18 258.887,-15.2001 258.887,-20.8001"/>
</a>
</g>
<!-- HOXC9 -->
<g id="node17" class="node"><title>HOXC9</title>
<a xlink:href="HOXC9.svg" xlink:title="Z&#45;value: 0.778||remove29">
<polygon fill="#949fff" stroke="#949fff" stroke-width="2" points="105.9,-400.575 75.9,-400.575 63.9,-388.575 63.9,-376.575 75.9,-364.575 105.9,-364.575 117.9,-376.575 117.9,-388.575 105.9,-400.575"/>
<path fill="#949fff" stroke="#949fff" stroke-width="2" d="M75.9,-400.575C69.9,-400.575 63.9,-394.575 63.9,-388.575"/>
<path fill="#949fff" stroke="#949fff" stroke-width="2" d="M63.9,-376.575C63.9,-370.575 69.9,-364.575 75.9,-364.575"/>
<path fill="#949fff" stroke="#949fff" stroke-width="2" d="M105.9,-364.575C111.9,-364.575 117.9,-370.575 117.9,-376.575"/>
<path fill="#949fff" stroke="#949fff" stroke-width="2" d="M117.9,-388.575C117.9,-394.575 111.9,-400.575 105.9,-400.575"/>
<polyline fill="none" stroke="white" stroke-width="2" points="105.9,-400.575 75.9,-400.575 "/>
<path fill="none" stroke="white" stroke-width="2" d="M75.9,-400.575C69.9,-400.575 63.9,-394.575 63.9,-388.575"/>
<polyline fill="none" stroke="white" stroke-width="2" points="63.9,-388.575 63.9,-376.575 "/>
<path fill="none" stroke="white" stroke-width="2" d="M63.9,-376.575C63.9,-370.575 69.9,-364.575 75.9,-364.575"/>
<polyline fill="none" stroke="white" stroke-width="2" points="75.9,-364.575 105.9,-364.575 "/>
<path fill="none" stroke="white" stroke-width="2" d="M105.9,-364.575C111.9,-364.575 117.9,-370.575 117.9,-376.575"/>
<polyline fill="none" stroke="white" stroke-width="2" points="117.9,-376.575 117.9,-388.575 "/>
<path fill="none" stroke="white" stroke-width="2" d="M117.9,-388.575C117.9,-394.575 111.9,-400.575 105.9,-400.575"/>
<text text-anchor="middle" x="90.9" y="-380.075" font-family="Helvetica,sans-Serif" font-size="10.00">HOXC9</text>
</a>
</g>
<!-- MAZ_ZNF281_GTF2F1&#45;&gt;HOXC9 -->
<g id="edge18" class="edge"><title>MAZ_ZNF281_GTF2F1&#45;&gt;HOXC9</title>
<a xlink:title="HOXC9: 0.010||remove1root">
<path fill="none" stroke="#edc8ff" stroke-width="3" d="M183.743,-36.0793C167.762,-95.7242 116.662,-286.43 97.8972,-356.462"/>
<polygon fill="#edc8ff" stroke="#edc8ff" points="95.1396,-355.935 95.7736,-364.387 100.549,-357.384 95.1396,-355.935"/>
</a>
</g>
<!-- KLF14_SP8 -->
<g id="node19" class="node"><title>KLF14_SP8</title>
<a xlink:href="KLF14_SP8.svg" xlink:title="Z&#45;value: 1.011||remove31">
<polygon fill="#8390ff" stroke="#8390ff" stroke-width="2" points="56.75,-302.888 12.25,-302.888 0.25,-290.888 0.25,-278.888 12.25,-266.888 56.75,-266.888 68.75,-278.888 68.75,-290.888 56.75,-302.888"/>
<path fill="#8390ff" stroke="#8390ff" stroke-width="2" d="M12.25,-302.888C6.25,-302.888 0.25,-296.888 0.25,-290.888"/>
<path fill="#8390ff" stroke="#8390ff" stroke-width="2" d="M0.25,-278.888C0.25,-272.888 6.25,-266.888 12.25,-266.888"/>
<path fill="#8390ff" stroke="#8390ff" stroke-width="2" d="M56.75,-266.888C62.75,-266.888 68.75,-272.888 68.75,-278.888"/>
<path fill="#8390ff" stroke="#8390ff" stroke-width="2" d="M68.75,-290.888C68.75,-296.888 62.75,-302.888 56.75,-302.888"/>
<polyline fill="none" stroke="white" stroke-width="2" points="56.75,-302.888 12.25,-302.888 "/>
<path fill="none" stroke="white" stroke-width="2" d="M12.25,-302.888C6.25,-302.888 0.25,-296.888 0.25,-290.888"/>
<polyline fill="none" stroke="white" stroke-width="2" points="0.25,-290.888 0.25,-278.888 "/>
<path fill="none" stroke="white" stroke-width="2" d="M0.25,-278.888C0.25,-272.888 6.25,-266.888 12.25,-266.888"/>
<polyline fill="none" stroke="white" stroke-width="2" points="12.25,-266.888 56.75,-266.888 "/>
<path fill="none" stroke="white" stroke-width="2" d="M56.75,-266.888C62.75,-266.888 68.75,-272.888 68.75,-278.888"/>
<polyline fill="none" stroke="white" stroke-width="2" points="68.75,-278.888 68.75,-290.888 "/>
<path fill="none" stroke="white" stroke-width="2" d="M68.75,-290.888C68.75,-296.888 62.75,-302.888 56.75,-302.888"/>
<text text-anchor="middle" x="34.5" y="-282.388" font-family="Helvetica,sans-Serif" font-size="10.00">KLF14_SP8</text>
</a>
</g>
<!-- MAZ_ZNF281_GTF2F1&#45;&gt;KLF14_SP8 -->
<g id="edge20" class="edge"><title>MAZ_ZNF281_GTF2F1&#45;&gt;KLF14_SP8</title>
<a xlink:title="SP8: 0.206||MAZ: 0.046||ZNF281: 0.019||remove20">
<path fill="none" stroke="#d989ff" stroke-width="3" d="M176.3,-44.1956C168.451,-59.3194 158.19,-78.7388 148.612,-95.7702 115.08,-155.392 73.3123,-223.961 51.047,-260.092"/>
<path fill="none" stroke="#e9bdff" stroke-width="3" d="M174.525,-43.2743C166.683,-58.385 156.421,-77.8044 146.868,-94.7898 113.372,-154.352 71.6042,-222.92 49.3443,-259.043"/>
<polygon fill="#e9bdff" stroke="#e9bdff" points="178.092,-44.6497 179.278,-36.2573 173.117,-42.0779 178.092,-44.6497"/>
<polygon fill="#d989ff" stroke="#d989ff" points="47.5698,-258.491 45.7511,-266.769 52.3354,-261.432 47.5698,-258.491"/>
</a>
</g>
<!-- ZNF784&#45;&gt;GATA1_GATA4 -->
<g id="edge42" class="edge"><title>ZNF784&#45;&gt;GATA1_GATA4</title>
<a xlink:title="GATA4: 0.101||remove28root">
<path fill="none" stroke="#ffabab" stroke-width="3" d="M272.074,-235.746C305.454,-244.69 362.864,-260.072 404.577,-271.249"/>
<polygon fill="#ffabab" stroke="#ffabab" points="403.984,-273.989 412.436,-273.355 405.433,-268.58 403.984,-273.989"/>
</a>
</g>
<!-- ZNF784&#45;&gt;IRF6_IRF4_IRF5 -->
<g id="edge44" class="edge"><title>ZNF784&#45;&gt;IRF6_IRF4_IRF5</title>
<a xlink:title="IRF5: 0.064||remove17root">
<path fill="none" stroke="#ffb7b7" stroke-width="3" d="M263.269,-246.769C291.071,-274.571 344.008,-327.508 374.939,-358.439"/>
<polygon fill="#ffb7b7" stroke="#ffb7b7" points="373.181,-360.641 380.818,-364.318 377.141,-356.681 373.181,-360.641"/>
</a>
</g>
<!-- ZNF784&#45;&gt;NR1H2 -->
<g id="edge46" class="edge"><title>ZNF784&#45;&gt;NR1H2</title>
<a xlink:title="NR1H2: 0.084||remove23root">
<path fill="none" stroke="#ffb0b0" stroke-width="3" d="M249.894,-246.799C259.94,-284.291 282.876,-369.891 294.444,-413.062"/>
<polygon fill="#ffb0b0" stroke="#ffb0b0" points="291.757,-413.854 296.533,-420.856 297.167,-412.404 291.757,-413.854"/>
</a>
</g>
<!-- ZNF784&#45;&gt;HOXC8 -->
<g id="edge48" class="edge"><title>ZNF784&#45;&gt;HOXC8</title>
<a xlink:title="HOXC8: 0.069||remove19root">
<path fill="none" stroke="#ffb5b5" stroke-width="3" d="M240.081,-246.799C230.035,-284.291 207.099,-369.891 195.531,-413.062"/>
<polygon fill="#ffb5b5" stroke="#ffb5b5" points="192.809,-412.404 193.443,-420.856 198.218,-413.854 192.809,-412.404"/>
</a>
</g>
<!-- ZNF784&#45;&gt;HOXC9 -->
<g id="edge38" class="edge"><title>ZNF784&#45;&gt;HOXC9</title>
<a xlink:title="HOXC9: 0.124||remove29root">
<path fill="none" stroke="#ffa3a3" stroke-width="3" d="M226.707,-246.769C198.905,-274.571 145.967,-327.508 115.036,-358.439"/>
<polygon fill="#ffa3a3" stroke="#ffa3a3" points="112.834,-356.681 109.157,-364.318 116.794,-360.641 112.834,-356.681"/>
</a>
</g>
<!-- ZNF784&#45;&gt;KLF14_SP8 -->
<g id="edge40" class="edge"><title>ZNF784&#45;&gt;KLF14_SP8</title>
<a xlink:title="KLF14: 0.001||ZNF784: 0.211||remove31root">
<path fill="none" stroke="#ffcbcb" stroke-width="3" d="M210.176,-238.851C173.587,-248.655 116.211,-264.029 77.1159,-274.504"/>
<path fill="none" stroke="#8793ff" stroke-width="3" d="M209.658,-236.919C173.07,-246.723 115.693,-262.097 76.5982,-272.572"/>
<polygon fill="#8793ff" stroke="#8793ff" points="210.898,-240.521 217.901,-235.746 209.449,-235.112 210.898,-240.521"/>
<polygon fill="#ffcbcb" stroke="#ffcbcb" points="75.8089,-270.92 68.8062,-275.695 77.2583,-276.329 75.8089,-270.92"/>
</a>
</g>
<!-- STAT5B -->
<g id="node28" class="node"><title>STAT5B</title>
<a xlink:href="STAT5B.svg" xlink:title="Z&#45;value: 0.466||remove25">
<polygon fill="#aab3ff" stroke="#aab3ff" stroke-width="2" points="49.5,-190.088 19.5,-190.088 7.5,-178.088 7.5,-166.088 19.5,-154.088 49.5,-154.088 61.5,-166.088 61.5,-178.088 49.5,-190.088"/>
<path fill="#aab3ff" stroke="#aab3ff" stroke-width="2" d="M19.5,-190.088C13.5,-190.088 7.5,-184.088 7.5,-178.088"/>
<path fill="#aab3ff" stroke="#aab3ff" stroke-width="2" d="M7.5,-166.088C7.5,-160.088 13.5,-154.088 19.5,-154.088"/>
<path fill="#aab3ff" stroke="#aab3ff" stroke-width="2" d="M49.5,-154.088C55.5,-154.088 61.5,-160.088 61.5,-166.088"/>
<path fill="#aab3ff" stroke="#aab3ff" stroke-width="2" d="M61.5,-178.088C61.5,-184.088 55.5,-190.088 49.5,-190.088"/>
<polyline fill="none" stroke="white" stroke-width="2" points="49.5,-190.088 19.5,-190.088 "/>
<path fill="none" stroke="white" stroke-width="2" d="M19.5,-190.088C13.5,-190.088 7.5,-184.088 7.5,-178.088"/>
<polyline fill="none" stroke="white" stroke-width="2" points="7.5,-178.088 7.5,-166.088 "/>
<path fill="none" stroke="white" stroke-width="2" d="M7.5,-166.088C7.5,-160.088 13.5,-154.088 19.5,-154.088"/>
<polyline fill="none" stroke="white" stroke-width="2" points="19.5,-154.088 49.5,-154.088 "/>
<path fill="none" stroke="white" stroke-width="2" d="M49.5,-154.088C55.5,-154.088 61.5,-160.088 61.5,-166.088"/>
<polyline fill="none" stroke="white" stroke-width="2" points="61.5,-166.088 61.5,-178.088 "/>
<path fill="none" stroke="white" stroke-width="2" d="M61.5,-178.088C61.5,-184.088 55.5,-190.088 49.5,-190.088"/>
<text text-anchor="middle" x="34.5" y="-169.588" font-family="Helvetica,sans-Serif" font-size="10.00">STAT5B</text>
</a>
</g>
<!-- ZNF784&#45;&gt;STAT5B -->
<g id="edge36" class="edge"><title>ZNF784&#45;&gt;STAT5B</title>
<a xlink:title="STAT5B: 0.086||remove25root">
<path fill="none" stroke="#ffb0b0" stroke-width="3" d="M217.901,-221.23C180.115,-211.105 111.535,-192.729 69.7902,-181.544"/>
<polygon fill="#ffb0b0" stroke="#ffb0b0" points="70.2682,-178.773 61.8161,-179.407 68.8188,-184.182 70.2682,-178.773"/>
</a>
</g>
<!-- IRF6_IRF4_IRF5&#45;&gt;HOXC8 -->
<g id="edge50" class="edge"><title>IRF6_IRF4_IRF5&#45;&gt;HOXC8</title>
<a xlink:title="HOXC8: 0.013||remove3root">
<path fill="none" stroke="#edc7ff" stroke-width="3" d="M352.883,-394.953C314.007,-405.369 259.236,-420.045 223.821,-429.534"/>
<polygon fill="#edc7ff" stroke="#edc7ff" points="222.698,-426.937 215.695,-431.712 224.147,-432.346 222.698,-426.937"/>
</a>
</g>
<!-- HOXC8&#45;&gt;GATA1_GATA4 -->
<g id="edge32" class="edge"><title>HOXC8&#45;&gt;GATA1_GATA4</title>
<a xlink:title="GATA4: 0.049||remove12root">
<path fill="none" stroke="#e9bcff" stroke-width="3" d="M215.647,-423.353C263.334,-395.821 362.455,-338.593 417.157,-307.011"/>
<polygon fill="#e9bcff" stroke="#e9bcff" points="418.719,-309.342 424.247,-302.917 415.919,-304.492 418.719,-309.342"/>
</a>
</g>
<!-- HOXC8&#45;&gt;HOXC8 -->
<g id="edge34" class="edge"><title>HOXC8&#45;&gt;HOXC8</title>
<a xlink:title="HOXC8: 0.061||remove16root">
<path fill="none" stroke="#e8b8ff" stroke-width="3" d="M215.828,-445.719C225.612,-445.864 233.588,-443.616 233.588,-438.975 233.588,-435.712 229.644,-433.632 223.902,-432.735"/>
<polygon fill="#e8b8ff" stroke="#e8b8ff" points="223.987,-429.935 215.828,-432.232 223.639,-435.525 223.987,-429.935"/>
</a>
</g>
<!-- KLF16_SP2&#45;&gt;FOXM1_TBL1XR1 -->
<g id="edge62" class="edge"><title>KLF16_SP2&#45;&gt;FOXM1_TBL1XR1</title>
<a xlink:title="TBL1XR1: 0.058||FOXM1: 0.022||remove15root">
<path fill="none" stroke="#e8b9ff" stroke-width="3" d="M266.807,-35.3972C263.733,-36.667 260.638,-37.8507 257.608,-38.88 221.833,-51.033 180.274,-59.899 147.601,-65.7338"/>
<polygon fill="#e8b9ff" stroke="#e8b9ff" points="146.892,-63.0151 139.494,-67.152 147.857,-68.5314 146.892,-63.0151"/>
</a>
</g>
<!-- KLF16_SP2&#45;&gt;GATA1_GATA4 -->
<g id="edge64" class="edge"><title>KLF16_SP2&#45;&gt;GATA1_GATA4</title>
<a xlink:title="GATA4: 0.036||remove8root">
<path fill="none" stroke="#eac0ff" stroke-width="3" d="M311.979,-36.3443C338.929,-83.0227 410.148,-206.379 440.945,-259.721"/>
<polygon fill="#eac0ff" stroke="#eac0ff" points="438.589,-261.24 445.014,-266.768 443.439,-258.44 438.589,-261.24"/>
</a>
</g>
<!-- KLF16_SP2&#45;&gt;ZNF784 -->
<g id="edge66" class="edge"><title>KLF16_SP2&#45;&gt;ZNF784</title>
<a xlink:title="ZNF784: 0.094||remove27root">
<path fill="none" stroke="#adb5ff" stroke-width="3" d="M296.481,-36.3112C286.435,-73.8029 263.499,-159.403 251.931,-202.575"/>
<polygon fill="#adb5ff" stroke="#adb5ff" points="249.209,-201.917 249.843,-210.369 254.618,-203.366 249.209,-201.917"/>
</a>
</g>
<!-- KLF16_SP2&#45;&gt;IRF6_IRF4_IRF5 -->
<g id="edge68" class="edge"><title>KLF16_SP2&#45;&gt;IRF6_IRF4_IRF5</title>
<a xlink:title="IRF4: 0.098||IRF6: 0.028||IRF5: 0.010||remove17">
<path fill="none" stroke="#e4acff" stroke-width="3" d="M306.232,-36.0793C322.214,-95.7242 373.313,-286.43 392.078,-356.462"/>
<polygon fill="#e4acff" stroke="#e4acff" points="389.427,-357.384 394.202,-364.387 394.836,-355.935 389.427,-357.384"/>
</a>
</g>
<!-- KLF16_SP2&#45;&gt;NR1H2 -->
<g id="edge70" class="edge"><title>KLF16_SP2&#45;&gt;NR1H2</title>
<a xlink:title="NR1H2: 0.240||remove23">
<path fill="none" stroke="#d57eff" stroke-width="3" d="M301.388,-36.0888C301.388,-102.614 301.388,-333.908 301.388,-412.559"/>
<polygon fill="#d57eff" stroke="#d57eff" points="298.588,-412.954 301.388,-420.954 304.188,-412.954 298.588,-412.954"/>
</a>
</g>
<!-- KLF16_SP2&#45;&gt;HOXC8 -->
<g id="edge72" class="edge"><title>KLF16_SP2&#45;&gt;HOXC8</title>
<a xlink:title="HOXC8: 0.023||remove4root">
<path fill="none" stroke="#ecc4ff" stroke-width="3" d="M290.576,-36.0686C271.488,-68.9238 232.092,-141.203 213.668,-207.608 193.566,-280.059 189.436,-369.437 188.68,-412.847"/>
<polygon fill="#ecc4ff" stroke="#ecc4ff" points="185.88,-412.861 188.57,-420.898 191.479,-412.937 185.88,-412.861"/>
</a>
</g>
<!-- KLF16_SP2&#45;&gt;STAT5B -->
<g id="edge60" class="edge"><title>KLF16_SP2&#45;&gt;STAT5B</title>
<a xlink:title="STAT5B: 0.079||remove22root">
<path fill="none" stroke="#e6b2ff" stroke-width="3" d="M269.987,-36.1289C219.584,-65.2295 121.002,-122.146 68.81,-152.279"/>
<polygon fill="#e6b2ff" stroke="#e6b2ff" points="67.2915,-149.922 61.7633,-156.347 70.0915,-154.772 67.2915,-149.922"/>
</a>
</g>
<!-- GMEB1 -->
<g id="node49" class="node"><title>GMEB1</title>
<a xlink:href="GMEB1.svg" xlink:title="Z&#45;value: 0.667||remove18">
<polygon fill="#9ca6ff" stroke="#9ca6ff" stroke-width="2" points="470.475,-190.088 440.475,-190.088 428.475,-178.088 428.475,-166.088 440.475,-154.088 470.475,-154.088 482.475,-166.088 482.475,-178.088 470.475,-190.088"/>
<path fill="#9ca6ff" stroke="#9ca6ff" stroke-width="2" d="M440.475,-190.088C434.475,-190.088 428.475,-184.088 428.475,-178.088"/>
<path fill="#9ca6ff" stroke="#9ca6ff" stroke-width="2" d="M428.475,-166.088C428.475,-160.088 434.475,-154.088 440.475,-154.088"/>
<path fill="#9ca6ff" stroke="#9ca6ff" stroke-width="2" d="M470.475,-154.088C476.475,-154.088 482.475,-160.088 482.475,-166.088"/>
<path fill="#9ca6ff" stroke="#9ca6ff" stroke-width="2" d="M482.475,-178.088C482.475,-184.088 476.475,-190.088 470.475,-190.088"/>
<polyline fill="none" stroke="white" stroke-width="2" points="470.475,-190.088 440.475,-190.088 "/>
<path fill="none" stroke="white" stroke-width="2" d="M440.475,-190.088C434.475,-190.088 428.475,-184.088 428.475,-178.088"/>
<polyline fill="none" stroke="white" stroke-width="2" points="428.475,-178.088 428.475,-166.088 "/>
<path fill="none" stroke="white" stroke-width="2" d="M428.475,-166.088C428.475,-160.088 434.475,-154.088 440.475,-154.088"/>
<polyline fill="none" stroke="white" stroke-width="2" points="440.475,-154.088 470.475,-154.088 "/>
<path fill="none" stroke="white" stroke-width="2" d="M470.475,-154.088C476.475,-154.088 482.475,-160.088 482.475,-166.088"/>
<polyline fill="none" stroke="white" stroke-width="2" points="482.475,-166.088 482.475,-178.088 "/>
<path fill="none" stroke="white" stroke-width="2" d="M482.475,-178.088C482.475,-184.088 476.475,-190.088 470.475,-190.088"/>
<text text-anchor="middle" x="455.475" y="-169.588" font-family="Helvetica,sans-Serif" font-size="10.00">GMEB1</text>
</a>
</g>
<!-- KLF16_SP2&#45;&gt;GMEB1 -->
<g id="edge74" class="edge"><title>KLF16_SP2&#45;&gt;GMEB1</title>
<a xlink:title="GMEB1: 0.045||remove11root">
<path fill="none" stroke="#eabdff" stroke-width="3" d="M315.726,-36.1273C328.727,-52.2062 348.714,-76.0553 367.755,-95.28 386.531,-114.237 409.228,-134.035 426.83,-148.783"/>
<polygon fill="#eabdff" stroke="#eabdff" points="425.128,-151.009 433.068,-153.976 428.711,-146.706 425.128,-151.009"/>
</a>
</g>
<!-- KLF14_SP8&#45;&gt;GATA1_GATA4 -->
<g id="edge80" class="edge"><title>KLF14_SP8&#45;&gt;GATA1_GATA4</title>
<a xlink:title="GATA4: 0.084||remove24root">
<path fill="none" stroke="#e5b0ff" stroke-width="3" d="M68.9502,-284.888C142.856,-284.888 316.963,-284.888 404.026,-284.888"/>
<polygon fill="#e5b0ff" stroke="#e5b0ff" points="404.174,-287.688 412.174,-284.888 404.173,-282.088 404.174,-287.688"/>
</a>
</g>
<!-- KLF14_SP8&#45;&gt;IRF6_IRF4_IRF5 -->
<g id="edge82" class="edge"><title>KLF14_SP8&#45;&gt;IRF6_IRF4_IRF5</title>
<a xlink:title="IRF6: 0.013||remove2root">
<path fill="none" stroke="#edc7ff" stroke-width="3" d="M68.7984,-294.078C132.335,-311.102 268.782,-347.663 344.914,-368.063"/>
<polygon fill="#edc7ff" stroke="#edc7ff" points="344.537,-370.861 352.989,-370.227 345.986,-365.451 344.537,-370.861"/>
</a>
</g>
<!-- KLF14_SP8&#45;&gt;NR1H2 -->
<g id="edge84" class="edge"><title>KLF14_SP8&#45;&gt;NR1H2</title>
<a xlink:title="NR1H2: 0.075||remove21root">
<path fill="none" stroke="#e6b3ff" stroke-width="3" d="M65.9002,-303.017C116.304,-332.117 214.886,-389.034 267.078,-419.166"/>
<polygon fill="#e6b3ff" stroke="#e6b3ff" points="265.796,-421.66 274.124,-423.235 268.596,-416.81 265.796,-421.66"/>
</a>
</g>
<!-- KLF14_SP8&#45;&gt;KLF16_SP2 -->
<g id="edge78" class="edge"><title>KLF14_SP8&#45;&gt;KLF16_SP2</title>
<a xlink:title="KLF16: 0.182||remove27">
<path fill="none" stroke="#db91ff" stroke-width="3" d="M52.8443,-266.543C99.9045,-219.483 224.902,-94.4856 277.516,-41.8717"/>
<polygon fill="#db91ff" stroke="#db91ff" points="279.591,-43.7565 283.268,-36.1197 275.631,-39.7967 279.591,-43.7565"/>
</a>
</g>
<!-- KLF14_SP8&#45;&gt;STAT5B -->
<g id="edge76" class="edge"><title>KLF14_SP8&#45;&gt;STAT5B</title>
<a xlink:title="STAT5B: 0.053||remove14root">
<path fill="none" stroke="#e9baff" stroke-width="3" d="M34.5,-266.764C34.5,-248.264 34.5,-219.359 34.5,-198.351"/>
<polygon fill="#e9baff" stroke="#e9baff" points="37.3001,-198.166 34.5,-190.166 31.7001,-198.166 37.3001,-198.166"/>
</a>
</g>
<!-- GATA3 -->
<g id="node37" class="node"><title>GATA3</title>
<a xlink:href="GATA3.svg" xlink:title="Z&#45;value: 2.023||remove30">
<polygon fill="#3b4eff" stroke="#3b4eff" stroke-width="2" points="414.075,-92.4 384.075,-92.4 372.075,-80.4 372.075,-68.4 384.075,-56.4 414.075,-56.4 426.075,-68.4 426.075,-80.4 414.075,-92.4"/>
<path fill="#3b4eff" stroke="#3b4eff" stroke-width="2" d="M384.075,-92.4C378.075,-92.4 372.075,-86.4 372.075,-80.4"/>
<path fill="#3b4eff" stroke="#3b4eff" stroke-width="2" d="M372.075,-68.4C372.075,-62.4 378.075,-56.4 384.075,-56.4"/>
<path fill="#3b4eff" stroke="#3b4eff" stroke-width="2" d="M414.075,-56.4C420.075,-56.4 426.075,-62.4 426.075,-68.4"/>
<path fill="#3b4eff" stroke="#3b4eff" stroke-width="2" d="M426.075,-80.4C426.075,-86.4 420.075,-92.4 414.075,-92.4"/>
<polyline fill="none" stroke="white" stroke-width="2" points="414.075,-92.4 384.075,-92.4 "/>
<path fill="none" stroke="white" stroke-width="2" d="M384.075,-92.4C378.075,-92.4 372.075,-86.4 372.075,-80.4"/>
<polyline fill="none" stroke="white" stroke-width="2" points="372.075,-80.4 372.075,-68.4 "/>
<path fill="none" stroke="white" stroke-width="2" d="M372.075,-68.4C372.075,-62.4 378.075,-56.4 384.075,-56.4"/>
<polyline fill="none" stroke="white" stroke-width="2" points="384.075,-56.4 414.075,-56.4 "/>
<path fill="none" stroke="white" stroke-width="2" d="M414.075,-56.4C420.075,-56.4 426.075,-62.4 426.075,-68.4"/>
<polyline fill="none" stroke="white" stroke-width="2" points="426.075,-68.4 426.075,-80.4 "/>
<path fill="none" stroke="white" stroke-width="2" d="M426.075,-80.4C426.075,-86.4 420.075,-92.4 414.075,-92.4"/>
<text text-anchor="middle" x="399.075" y="-71.9" font-family="Helvetica,sans-Serif" font-size="10.00" fill="white">GATA3</text>
</a>
</g>
<!-- GATA3&#45;&gt;ZNF784 -->
<g id="edge56" class="edge"><title>GATA3&#45;&gt;ZNF784</title>
<a xlink:title="ZNF784: 0.158||remove30root">
<path fill="none" stroke="#98a2ff" stroke-width="3" d="M380.794,-92.681C352.992,-120.483 300.055,-173.42 269.124,-204.352"/>
<polygon fill="#98a2ff" stroke="#98a2ff" points="266.922,-202.594 263.245,-210.23 270.882,-206.554 266.922,-202.594"/>
</a>
</g>
<!-- GATA3&#45;&gt;HOXC8 -->
<g id="edge58" class="edge"><title>GATA3&#45;&gt;HOXC8</title>
<a xlink:title="HOXC8: 0.146||remove19">
<path fill="none" stroke="#df9cff" stroke-width="3" d="M388.637,-92.4794C354.061,-152.367 243.201,-344.383 203.175,-413.71"/>
<polygon fill="#df9cff" stroke="#df9cff" points="200.664,-412.459 199.089,-420.787 205.514,-415.259 200.664,-412.459"/>
</a>
</g>
<!-- GATA3&#45;&gt;KLF16_SP2 -->
<g id="edge52" class="edge"><title>GATA3&#45;&gt;KLF16_SP2</title>
<a xlink:title="KLF16: 0.130||GATA3: 0.003||remove27">
<path fill="none" stroke="#e1a1ff" stroke-width="3" d="M364.294,-55.4735C356.189,-50.7944 347.496,-45.7755 339.225,-41.0001"/>
<path fill="none" stroke="#eecaff" stroke-width="3" d="M365.294,-53.7414C357.189,-49.0624 348.496,-44.0434 340.225,-39.2681"/>
<polygon fill="#eecaff" stroke="#eecaff" points="363.536,-57.1143 371.864,-58.6895 366.336,-52.2645 363.536,-57.1143"/>
<polygon fill="#e1a1ff" stroke="#e1a1ff" points="340.919,-37.5901 332.59,-36.0149 338.119,-42.4399 340.919,-37.5901"/>
</a>
</g>
<!-- GATA3&#45;&gt;HOXC9 -->
<g id="edge54" class="edge"><title>GATA3&#45;&gt;HOXC9</title>
<a xlink:title="HOXC9: 0.217||remove29">
<path fill="none" stroke="#d886ff" stroke-width="3" d="M372.064,-89.8018C333.929,-112.386 263.415,-157.302 213.668,-207.608 167.019,-254.78 125.65,-321.401 104.938,-357.298"/>
<polygon fill="#d886ff" stroke="#d886ff" points="102.375,-356.139 100.837,-364.474 107.238,-358.917 102.375,-356.139"/>
</a>
</g>
<!-- GMEB1&#45;&gt;MAZ_ZNF281_GTF2F1 -->
<g id="edge86" class="edge"><title>GMEB1&#45;&gt;MAZ_ZNF281_GTF2F1</title>
<a xlink:title="MAZ: 0.035||GTF2F1: 0.012||remove7root">
<path fill="none" stroke="#ebc0ff" stroke-width="3" d="M428.416,-156.465C380.729,-128.933 281.608,-71.7055 226.906,-40.1233"/>
<polygon fill="#ebc0ff" stroke="#ebc0ff" points="228.144,-37.6046 219.816,-36.0294 225.344,-42.4543 228.144,-37.6046"/>
</a>
</g>
<!-- GMEB1&#45;&gt;ZNF784 -->
<g id="edge88" class="edge"><title>GMEB1&#45;&gt;ZNF784</title>
<a xlink:title="ZNF784: 0.068||remove18root">
<path fill="none" stroke="#b6bdff" stroke-width="3" d="M428.389,-179.346C390.602,-189.47 322.022,-207.846 280.278,-219.032"/>
<polygon fill="#b6bdff" stroke="#b6bdff" points="279.306,-216.393 272.304,-221.168 280.756,-221.802 279.306,-216.393"/>
</a>
</g>
</g>
</svg>
